<svg id="peep-46" xmlns="http://www.w3.org/2000/svg" width="246.673" height="324" viewBox="0 0 246.673 324">
  <g id="BODY" transform="translate(31.056 135.053)">
    <path id="_Skin" data-name="âœ‹ Skin" d="M205.158,49.344l-9.05.889c-14.448,1.1-28.891,3.411-43.228,4.795a.927.927,0,0,0-1.48-.082c-1.431-.125-3.034-1.219-4.33-.081-.042-.006-.084-.013-.127-.017a90.964,90.964,0,0,1-5.451-13.888c-.988-2.909-2.317-5.725-4.774-7.679-4.192-2.911-13.8-8.815-18.721-8.567a3.656,3.656,0,0,0-1.167-2.378c1.487-2.536-4.458-4.191-4.878-3.9.269-8.473-3.715-15.831-12.5-17.518-7.87-1.641-19.063-1.916-23.3,6.312-.465-.052-5.221-.077-5.681-.026C69.76,6.3,61.9,14.891,65.123,17.882,36.333,30.622,19.963,29.1,11.995,64.919c-1.077,3.365-1.156,7.047-2.293,10.336-4.047,9.454-7.33,19.521-8.147,29.808-1.973.506-2.2,3.986.085,4.49a5.344,5.344,0,0,1,2.24.954c-.5,8.43,1.54,27.687,2.825,27.627,2.618,8.336,14.3,10.689,22.566,7.759-1.425,2.683,0,4.369,0,5.8,29.752,1.126,62.283.478,92.027,2.022,3.8-.054,7.807.935,11.559.366,2.289-.549,2.292-4.149-.029-4.594l10.144-2.2c-.227-.086,4.181-3.019,7.513-8.5,3.1-6.131.99-13.532,2.4-20.2,10.974-.9,22.13-1.282,32.984-3.141,1.48,4.43,7.886-.868,9.923-3l-.008-.01a2.474,2.474,0,0,0,1.8-2.288,3,3,0,0,0,.173-3.335c3.038-17.535,7.669-35.439,9.343-53.139a3.745,3.745,0,0,0,1.621-.79l-.038-.038a2.012,2.012,0,0,0-.378-3.192A4.674,4.674,0,0,0,205.158,49.344Z" transform="translate(5.282 -5.072)" fill="#d08b5b"/>
    <path id="_Top" data-name="ðŸ‘• Top" d="M126.559,149.333c-4,0-9.86-.391-17.43-1.162-3.331-.339-10.186-.659-20.373-.951-8.628-.247-17.964-.428-24.78-.56h-.02c-3.556-.069-6.365-.124-8.032-.167l-.457-.012c-4.719-.136-9.475-.205-14.136-.205s-9.359.069-13.963.205v-5.706l26.408-13.1,23.662-13.315,11.408-5.284,2.324,1.479,19.014,6.129,11.62,1.479,9.507-1.479v16.274l1.9,15.217c-.21.386-.877.679-1.981.872A28.957,28.957,0,0,1,126.559,149.333ZM36.042,106.658H31.134l-28.56-6.9L0,98.909a71.165,71.165,0,0,1,1.064-7.6c.469-2.419,1.079-4.937,1.813-7.484a123.656,123.656,0,0,1,5.25-14.47,33.332,33.332,0,0,0,1.2-5.316,36.38,36.38,0,0,1,1.094-5.02,75.085,75.085,0,0,1,5.9-17.582c.575-1.138,1.188-2.236,1.821-3.263.621-1.007,1.283-1.98,1.966-2.89a34.248,34.248,0,0,1,4.378-4.822,43.363,43.363,0,0,1,10.627-6.933C39.088,21.6,43.4,19.965,48.4,18.07h0c4.525-1.716,9.653-3.661,15.144-6.091a2.465,2.465,0,0,1-.769-1.784,5.743,5.743,0,0,1,.465-2.267,16.657,16.657,0,0,1,2.89-4.538,13.815,13.815,0,0,1,1.557-1.554,2.2,2.2,0,0,1,1.053-.6A.189.189,0,0,1,68.9,1.3l.045,0,.1-.005.125,0c.33-.01.928-.015,1.686-.015,1.537,0,3.445.022,3.727.054A12.314,12.314,0,0,1,75.375,0l1.746,1.3L73.308,7.571,91.881,22.6v12l5.88,5.564,3.361-5.564,4.736-6.3,3.366-10.213-1.146-6.729,2.3-.217c.011.458.009.927-.005,1.391a.364.364,0,0,1,.19-.034,8.766,8.766,0,0,1,3.742,1.384,3.208,3.208,0,0,1,.971.985,1.467,1.467,0,0,1-.025,1.561,3.649,3.649,0,0,1,1.167,2.378c.1-.005.2-.008.308-.008a13.834,13.834,0,0,1,4.411.939,42.165,42.165,0,0,1,5.132,2.279c1.577.814,3.247,1.76,4.964,2.814,1.733,1.064,3.081,1.97,3.906,2.543a12.126,12.126,0,0,1,2.938,3.481,22.81,22.81,0,0,1,1.836,4.2l.233.71.24.729.242.728a80.26,80.26,0,0,0,4.736,11.722c.031,0,.064.008.093.012h.006l.029,0a2.02,2.02,0,0,1,1.391-.512,6.2,6.2,0,0,1,1.617.306,7.493,7.493,0,0,0,1.322.288,1.142,1.142,0,0,1,.771-.329.8.8,0,0,1,.683.371l.025.04-17.825,3.513L121.72,93.9,111.48,85.586l-5.5.818L91.467,91.641,74.584,96.028Z" transform="translate(6.857 0.831)" fill="#ffcf77"/>
    <path id="_Computer" data-name="ðŸ’» Computer" d="M27.012,72.08h0c1.2-4.54,2.125-8.275,2.914-11.753.3-1.31.594-2.641.882-3.928v0c.688-3.08,1.4-6.265,2.158-9.385,2.124-8.724,4.569-17.657,7.267-26.551.554-1.827,1.131-3.683,1.715-5.517l.41-1.283.316-1.022a12.17,12.17,0,0,1,.909-2.272A4.518,4.518,0,0,1,45.2,8.618a8.1,8.1,0,0,1,2.224-.866c.8-.2,1.625-.329,2.427-.455.422-.066.821-.129,1.211-.2l1.287-.242c1.917-.358,3.863-.707,5.785-1.037,9.2-1.584,18.58-2.871,27.872-3.825,4.81-.494,9.718-.91,14.587-1.237,4.824-.323,9.743-.568,14.621-.726L116.19,0l-.531,2.96c-.125.041-.255.076-.385.105-.162,1.712-.358,3.494-.584,5.3L111.4,26.718c-.585,3.348-1.132,6.655-1.642,9.756l-.709,3.5-.439,2.173c-.894,4.439-1.837,9.215-2.677,14.061a2.308,2.308,0,0,1,.285.566l-.062.263-.043.175-.044.173a14.477,14.477,0,0,1-.583,1.8,8.336,8.336,0,0,1-.857,1.624,5.586,5.586,0,0,1-1.227,1.3,5.023,5.023,0,0,1-1.695.827,25.292,25.292,0,0,1-4.586.664c-.523.044-1.064.089-1.586.144l-.226.025L59.676,67.774c-3.75.422-7.732.881-12.912,1.487l-3.73.438c-.9.1-1.813.206-2.7.3h-.011c-4.233.472-8.609.96-12.843,1.861a1.151,1.151,0,0,0-.471.214Zm52.827-46.9a.778.778,0,0,0-.777.942l.025.128a4.019,4.019,0,0,1-.249,2.261,5.739,5.739,0,0,1-1.3,1.9,7.3,7.3,0,0,1-1.152.862,4.021,4.021,0,0,0-1.816,1.827,1.627,1.627,0,0,0-.023,1.052,2,2,0,0,0,.571.865l-.122.06-.12.061-.117.062-.114.062-.111.063a6.53,6.53,0,0,0-1.5,1.144,2.974,2.974,0,0,0-.814,1.466,2.628,2.628,0,0,0,.666,2.158,4.839,4.839,0,0,0,1.327,1.136,7.026,7.026,0,0,0,1.659.694,13.758,13.758,0,0,0,3.708.44c.543,0,1.112-.02,1.74-.062l.183-.013c2-.15,5.6-.808,7.2-3.523A3,3,0,0,0,89.127,37a2.7,2.7,0,0,0-.755-1.654,4.216,4.216,0,0,0-2.44-1.241,3.012,3.012,0,0,0-.2-1.415,2.434,2.434,0,0,0-.978-1.089,2.891,2.891,0,0,0-1.433-.433,5.042,5.042,0,0,0-.716-2.587,19.8,19.8,0,0,0-1.584-2.36l-.267-.359-.114-.156-.111-.153a.849.849,0,0,0-.691-.369ZM26.51,71.846h0a1.38,1.38,0,0,0-.808-.239h-.064a25.44,25.44,0,0,1-6.387-.886A59.705,59.705,0,0,1,13.1,68.689l-.616-.235-1.718-.661c-1.583-.607-3.428-1.3-5.292-1.867l-.723-.218L4.38,65.6a19.766,19.766,0,0,0-4.188-.845L0,64.744l.41-.215a.97.97,0,0,0,.159-.1c.281.021.544.031.805.031a8.719,8.719,0,0,0,1.565-.137A14.692,14.692,0,0,0,7.348,62.76l.613-.332.251-.133.166-.086.165-.083a8.274,8.274,0,0,1,1.325-.544,4.859,4.859,0,0,1,1.412-.214,5.1,5.1,0,0,1,1.061.114,14.893,14.893,0,0,1,3.8,1.571c.295.155.6.315.9.467l.271.135.182.088.185.087.188.086a9.205,9.205,0,0,0,3.6.963A2.37,2.37,0,0,0,24,63.041a3.849,3.849,0,0,0-.482-3.106c.037,0,.075,0,.112,0a6.191,6.191,0,0,1,1.981.592,8.472,8.472,0,0,0,2.143.673l.091.007L26.51,71.846ZM79.5,40.892a13.6,13.6,0,0,1-2.548-.206,5.9,5.9,0,0,1-2.271-.88,2.041,2.041,0,0,1-.983-1.391,1.673,1.673,0,0,1,.516-1.331c.5-.539,1.007-1.1,1.538-1.639a2.115,2.115,0,0,0,.928.218,3.35,3.35,0,0,0,1.36-.35.091.091,0,0,0,.052-.107.115.115,0,0,0-.107-.1,3.382,3.382,0,0,1-1.21-.477c-.265-.153-.888-.543-.937-.871-.066-.437.646-.809,1.117-1.055h0l.144-.076.063-.035.055-.032A8.061,8.061,0,0,0,78.5,31.6a6.818,6.818,0,0,0,2.04-3.335l.028-.115,1.023,3.832-.018.032a.689.689,0,0,0,.028.69.8.8,0,0,0,.66.4.627.627,0,0,0,.455-.2l.056-.061a.732.732,0,0,1,.539-.242,1.127,1.127,0,0,1,.79.4,1.291,1.291,0,0,1,.37.811,2.333,2.333,0,0,1-.419,1.364,3.631,3.631,0,0,1-1.031.986l-.056.036-.147.091a.612.612,0,0,0-.278.708.753.753,0,0,0,.719.529.8.8,0,0,0,.12-.009,2.968,2.968,0,0,0,2.071-1.725,4.681,4.681,0,0,0,.525.107,2.976,2.976,0,0,1,1.009.3,1.19,1.19,0,0,1,.682.9,1.577,1.577,0,0,1-.256.962,3.794,3.794,0,0,1-.716.861l-.034.03L86.6,39a7.186,7.186,0,0,1-2.616,1.376,12.363,12.363,0,0,1-2.94.473l-.113.005C80.538,40.873,80.026,40.892,79.5,40.892Z" transform="translate(97.099 45.525)" fill="#fff"/>
    <path id="_Ink" data-name="ðŸ– Ink" d="M136.079,151.028a.792.792,0,0,1-.587-.26,3.694,3.694,0,0,1-.823-1.456,11.174,11.174,0,0,1-.34-1.652h0v0c-.028-.183-.057-.373-.089-.559-.223-1.3-.424-2.656-.617-4.137-.4-3.114-.628-5.678-.7-8.069-.085-2.754-.052-5.549.1-8.308.073-1.345.165-2.791.352-4.251.086-.673.16-1.237.245-1.8.032-.212.067-.426.108-.654l-2.284.258c-3.345.374-6.914.743-10.533.8h-.02a1.141,1.141,0,0,1-.929-.461,1.311,1.311,0,0,1-1.165.623h-.007c-5.025-.019-9.695-1.707-13.992-3.528-1.074-.455-2.157-.936-3.2-1.4l0,0c-1.155-.513-2.349-1.043-3.534-1.54-.87-.365-1.781-.693-2.661-1.01a38.709,38.709,0,0,1-3.766-1.506l-5.413,2.84a2.226,2.226,0,0,1-.889,1.244,4.8,4.8,0,0,1-1.013.542,4.206,4.206,0,0,1-1.62.323,4.4,4.4,0,0,1-.453-.024c-4.95,2.595-8.75,4.583-12.32,6.447l-4.11,2.143c-2.376,1.238-4.77,2.492-7.084,3.7-5.721,3-11.637,6.1-17.5,9.06l-.607.305a73.9,73.9,0,0,1-9.06,3.955,16.1,16.1,0,0,0,.046,2.424l.016.185c.007.077.015.153.023.234v.009a7.29,7.29,0,0,1,.048,1.473,1.852,1.852,0,0,1-.578,1.25,1.051,1.051,0,0,1-.69.259.815.815,0,0,1-.756-.445,2.843,2.843,0,0,1-.23-1.44,12.442,12.442,0,0,1,.222-1.584c.045-.243.087-.472.119-.685a10.418,10.418,0,0,1,.233-1.184,32.256,32.256,0,0,1-3.893.913,24.111,24.111,0,0,1-3.934.339,19.85,19.85,0,0,1-3.209-.256,11.209,11.209,0,0,1-2.543-.737,12.659,12.659,0,0,1-2.265-1.255,16.124,16.124,0,0,1-2.012-1.663,21.91,21.91,0,0,1-1.785-1.961,25.455,25.455,0,0,1-3.021-4.71,25.786,25.786,0,0,1-1.924-5.255,36.185,36.185,0,0,1-.928-6.3c-.143-2.14-.152-4.33-.141-6.379.014-2.515.071-4.737.175-6.795.122-2.431.308-4.646.568-6.772a7.332,7.332,0,0,0-1.628-.231c-.086,0-.171,0-.252.008a1.307,1.307,0,0,1-.536.477,1.575,1.575,0,0,1-.692.158,1.6,1.6,0,0,1-.188-.011.85.85,0,0,0-.239.809c.107.42.54.861,1.287,1.308A9.6,9.6,0,0,0,4.5,105.6a.34.34,0,0,1,.216.382.275.275,0,0,1-.284.241H4.419l-.235-.011c-1.464-.078-2.935-.333-3.775-1.662a2.554,2.554,0,0,1-.391-1.684,2.739,2.739,0,0,1,.725-1.536A102.843,102.843,0,0,1,3.37,87.966l.007-.028c.121-.5.245-1.01.367-1.515,1.082-4.487,2.337-9.207,3.839-14.43L8.2,69.852c1.043-3.612,2.176-7.474,3.4-11.244,1.342-4.136,2.656-7.74,4.016-11.02.84-2.025,1.643-3.76,2.455-5.3a37.559,37.559,0,0,1,3.083-4.958A34.9,34.9,0,0,1,24.7,33.25a36.412,36.412,0,0,1,4.13-3.485,49.151,49.151,0,0,1,8.819-4.975c3.047-1.368,6.208-2.534,9.449-3.707l.283-.1c3.154-1.142,6.524-2.377,9.8-3.676,1.483-.588,2.957-1.268,4.382-1.926,1.332-.615,2.71-1.251,4.09-1.809-.094-.171-.185-.343-.269-.511l-.053.045h0l-.026.019a.635.635,0,0,1-.364.108.88.88,0,0,1-.582-.23,1.165,1.165,0,0,1-.416-.984,2.16,2.16,0,0,1,.42-1l.058-.083c.416-.583.8-1.2,1.179-1.8.11-.176.235-.375.357-.566l.315-.5a20.585,20.585,0,0,1,2.86-3.749,6.186,6.186,0,0,1,1.7-1.168.059.059,0,0,1,.009-.057.615.615,0,0,1,.417-.194.155.155,0,0,1,.1.031A9.961,9.961,0,0,1,74.8,2.413c.961,0,1.934.083,2.771.16l.4-1.266a2.131,2.131,0,0,1,.755-.994,1.758,1.758,0,0,1,1-.313A1.844,1.844,0,0,1,81.51,1.354a2.274,2.274,0,0,1,.052.943,12.715,12.715,0,0,1-1.676,4.159,10.223,10.223,0,0,1-2.094,2.758c1.563,1.459,3.2,2.872,4.85,4.2a59.84,59.84,0,0,0,5.7,4.033c.534.334,1.083.661,1.615.977a38.263,38.263,0,0,1,3.556,2.3,13.852,13.852,0,0,1,2.106,1.92,8.14,8.14,0,0,1,1.5,2.411,6.766,6.766,0,0,1,.424,2.91,13.294,13.294,0,0,1-.552,2.909l-.063.217c-.066.224-.137.448-.211.685-.548,1.742-1.169,3.716.025,5.3a9.738,9.738,0,0,0,1.829,1.7c.241.189.49.384.725.582a19.925,19.925,0,0,1,2.15,2.108,17.429,17.429,0,0,1,3.355,5.572l.066.188a12.277,12.277,0,0,1,.68,2.947,5.6,5.6,0,0,1-.439,2.922.547.547,0,0,1-.515.314.683.683,0,0,1-.662-.468,12.489,12.489,0,0,1-.314-1.881,14.924,14.924,0,0,0-.242-1.6,13.158,13.158,0,0,0-1.314-3.412,18.478,18.478,0,0,0-4.518-5.364l-.547-.445a12.248,12.248,0,0,1-1.939-1.888,5.2,5.2,0,0,1-1.087-2.463,11.089,11.089,0,0,1,.71-4.83v0c.116-.386.237-.785.343-1.176a6.688,6.688,0,0,0,.092-3.914,16.437,16.437,0,0,1-1.259,1.7c-.152.188-.3.365-.432.541-.821,1.052-1.658,2.111-2.467,3.136l-.109.139-.608.77c-1.207,1.53-2.242,2.912-3.165,4.224-.488.694-.955,1.37-1.347,1.94-.183.266-.41.537-.629.8h0c-.184.219-.373.446-.539.671a.869.869,0,0,1-.079.79,1.469,1.469,0,0,1-1.168.7c-.722,0-1.561-.656-2.492-1.95a23.59,23.59,0,0,1-1.706-2.878l-.04-.078-.015-.029c-.729-1.4-1.376-2.868-2-4.287-.633-1.435-1.287-2.92-2.027-4.335A67.8,67.8,0,0,0,69.828,19.4c-.443-.61-.914-1.216-1.369-1.8-.746-.96-1.518-1.953-2.184-2.987a22.326,22.326,0,0,1-4.247,2.942c-1.576.871-3.275,1.646-4.64,2.269h0c-2.6,1.187-5.327,2.222-7.962,3.223l-.005,0c-.753.286-1.532.582-2.3.876l-1.014.394c-3.339,1.3-6.117,2.449-8.822,3.8a41.294,41.294,0,0,0-8.073,5.148A30.348,30.348,0,0,0,25.3,37.213a36.848,36.848,0,0,0-3.169,4.5,48.594,48.594,0,0,0-2.563,4.9c-.72,1.578-1.406,3.262-2.1,5.148-1.371,3.75-2.7,7.724-4.058,12.151-1.121,3.65-2.25,7.561-3.555,12.31C8.693,80.471,7.588,84.735,6.574,88.9c-.31,1.275-.607,2.575-.894,3.833v0c-.554,2.425-1.126,4.933-1.819,7.367.094,0,.188,0,.28,0a19.247,19.247,0,0,1,4,.589c.756.165,1.47.321,2.111.405,4.471.586,8.508,1.3,12.34,2.193,2.076.482,4.112,1.022,6.051,1.605,2.036.612,4.035,1.293,5.941,2.022a1.656,1.656,0,0,1,.961.906,1.873,1.873,0,0,1,.077,1.216l.668-.189.025-.007.982-.278a5.209,5.209,0,0,1-.316-3.018c.018-.228.036-.443.045-.636l0-.072c.033-.911.11-1.836.184-2.731v0c.039-.465.079-.946.112-1.419.2-2.793.441-5.368.748-7.872l.082-.655c.155-1.214.295-2.451.43-3.646v0c.183-1.614.371-3.282.6-4.916l.047-.326c-.165-.633-.364-1.3-.645-2.163-.433-1.334-1-2.635-1.55-3.893-.236-.541-.48-1.1-.711-1.657a.17.17,0,0,1,.011-.166.248.248,0,0,1,.2-.1.22.22,0,0,1,.148.053A13.042,13.042,0,0,1,38.441,77.3a18.449,18.449,0,0,1,1.4,2.244c.006-.032.012-.064.018-.1s.015-.083.024-.124l.094-.465a8,8,0,0,1,1.213-3.251.2.2,0,0,1,.155-.081.155.155,0,0,1,.136.081,5.321,5.321,0,0,1,.612,1.743,17.417,17.417,0,0,1,.213,1.864c.006.078.012.156.018.233.131,1.639.126,3.284.11,4.378-.032,2.277-.169,4.594-.3,6.835-.031.526-.066,1.122-.1,1.7-.143,2.553-.425,5.272-.861,8.312l-.075.519c-.052.355-.1.717-.152,1.068v0c-.133.95-.27,1.931-.456,2.883l-.072.356c-.042.2-.08.428-.119.667a9.66,9.66,0,0,1-.374,1.653c6.689-1.867,13.768-3.8,21.038-5.738,3.606-.963,7.273-1.931,10.819-2.867l4.421-1.168a5.721,5.721,0,0,1,1.019-1.338,5.5,5.5,0,0,1,1.46-1.033A3.773,3.773,0,0,1,80.3,95.3a3.368,3.368,0,0,1,1.781.518.227.227,0,0,1,.106.2.2.2,0,0,1-.106.177c-.377.206-.68.378-.955.541l3.051-.827c.672-.182,1.36-.382,2.024-.574h0c1.6-.463,3.25-.943,4.895-1.246A105.386,105.386,0,0,1,104.288,89l.265-.089.534-.18.913-.314a43.4,43.4,0,0,1,6.2-1.8,6.165,6.165,0,0,1,1.106-.1,4.443,4.443,0,0,1,2.035.447,2.839,2.839,0,0,1,1.377,1.518,28.225,28.225,0,0,1,2.544,1.961c.414.347.822.715,1.216,1.072l.005,0c.163.147.331.3.5.447l.105.092.1.089,0,0a1.979,1.979,0,0,1,.844,1.229.723.723,0,0,1-.148.569.459.459,0,0,1-.36.173.515.515,0,0,1-.055,0c-1-.108-1.851-1.051-2.6-1.883h0c-.187-.208-.363-.4-.534-.58-.744-.76-1.355-1.409-1.924-2.108a.9.9,0,0,1-.427.111.681.681,0,0,1-.627-.377,2.041,2.041,0,0,0-.891-.9,2.662,2.662,0,0,0-1.2-.252,10.564,10.564,0,0,0-3.138.72h0c-.3.1-.592.2-.848.277l-2.512.744c-1.041.309-2.411.716-3.765,1.128-1.263.384-2.542.79-3.779,1.183-2.146.682-4.365,1.386-6.569,2a.724.724,0,0,1,.173.651.763.763,0,0,1-.5.531,46.424,46.424,0,0,1-6.183,1.777h0c-.773.184-1.573.375-2.346.575-1.769.459-3.569.929-5.351,1.4a4.357,4.357,0,0,0-.618,1.708,12.785,12.785,0,0,0,.11,3.773,33.966,33.966,0,0,0,.845,3.714l.1.346a18.17,18.17,0,0,0,1.047,2.923,6.243,6.243,0,0,0,1.86,2.407,2.833,2.833,0,0,0,1.4.532c3.2-1.649,6.333-3.261,9.45-4.862a.879.879,0,0,1,.4-.1.92.92,0,0,1,.85.691,20.593,20.593,0,0,0,3.229-.813,14.39,14.39,0,0,0,2.786-1.414c.584-.353,1.188-.717,1.825-1.022a5.538,5.538,0,0,1,2.44-.548,8.713,8.713,0,0,1,3.051.631,29.715,29.715,0,0,1,2.914,1.34l.57.286.635.312a8.026,8.026,0,0,0,3.047.955,1.286,1.286,0,0,0,1.352-.844,1.943,1.943,0,0,0,.03-1.194,3.469,3.469,0,0,0-.581-1.132,6.9,6.9,0,0,0-1.859-1.671,11.307,11.307,0,0,0-2.231-1.02c-.823-.283-1.658-.5-2.367-.666-.92-.222-1.839-.4-2.73-.523-.332-.047-.673-.077-1-.106a9.088,9.088,0,0,1-2.114-.356.619.619,0,0,1-.4-.614.492.492,0,0,1,.4-.475,6.065,6.065,0,0,1,1.34-.138,15.992,15.992,0,0,1,3.652.561l.841.207a20.261,20.261,0,0,1,4.734,1.691,9.717,9.717,0,0,1,1.6,1.078,7.34,7.34,0,0,1,1.349,1.45,1.851,1.851,0,0,1,1.32-.5,3.737,3.737,0,0,1,.957.143l.452.126a5.554,5.554,0,0,0,1.489.264,3.016,3.016,0,0,0,.591-.058c.093-.508.195-1.052.3-1.588,1.059-5.32,2.212-10.548,3.425-15.539,1.07-4.4,2.246-8.864,3.5-13.264,1.236-4.353,2.578-8.768,3.989-13.124l.283-.87c.145-.444.287-.906.424-1.353v0a22.57,22.57,0,0,1,1.8-4.631,6.424,6.424,0,0,1,1.9-2.077,8.39,8.39,0,0,1,2.571-1.176,50.181,50.181,0,0,1,4.916-1.021h.007c.545-.094,1.108-.192,1.657-.294.291-.054.595-.108.862-.156l.6-.108a16.1,16.1,0,0,1-.779-1.71c-.076-.187-.148-.363-.219-.529l-.049-.112c-.65-1.481-1.222-2.987-1.648-4.132l-.387-1.045a52.29,52.29,0,0,0-3.208-7.348,18.93,18.93,0,0,0-2.41-3.391,20.035,20.035,0,0,0-3.087-2.79,51.582,51.582,0,0,0-6.938-4.059c-1.337-.691-2.719-1.4-4.04-2.176a30.183,30.183,0,0,1-3.805-2.582.159.159,0,0,1-.057-.183.233.233,0,0,1,.211-.149.189.189,0,0,1,.086.021,64.608,64.608,0,0,0,6.624,2.732h0c.95.351,1.932.714,2.887,1.09l.626.247a31.387,31.387,0,0,1,7.222,3.686,20.053,20.053,0,0,1,3.248,3.016,20.692,20.692,0,0,1,2.508,3.658A46.012,46.012,0,0,1,146.995,42v0c.178.511.361,1.039.545,1.554l.266.744c.383,1.063.8,2.2,1.292,3.312.152.347.354.708.567,1.09a10.158,10.158,0,0,1,.834,1.739l.175-.03h.007c.8-.139,1.63-.283,2.446-.419,4.722-.789,9.525-1.506,14.277-2.133s9.572-1.178,14.34-1.642,9.607-.85,14.388-1.149,9.632-.52,14.42-.656h.033a.943.943,0,0,1,.743.339,1.261,1.261,0,0,1,.256,1.016c-1.041,6.156-2.031,12.416-2.988,18.47l0,.013c-.743,4.7-1.512,9.558-2.3,14.331-.8,4.872-1.613,9.684-2.408,14.3-.178,1.033-.37,2.078-.556,3.089-.25,1.358-.508,2.762-.734,4.147-.068.417-.133.842-.2,1.253l0,.015a36.768,36.768,0,0,1-.9,4.559,11.01,11.01,0,0,1-2.473,4.664,7.222,7.222,0,0,1-2.324,1.611,11.478,11.478,0,0,1-2.728.8c-3.287.566-6.684.9-9.97,1.232-1.449.145-2.947.294-4.414.461l-25.447,2.9c.18,1.641.284,3.293.318,5.051.031,1.6,0,3.266-.089,5.08l-.1,1.868c-.076,1.436-.169,2.966-.39,4.493a8.46,8.46,0,0,1-.82,2.6,10.279,10.279,0,0,1-1.559,2.241,28.55,28.55,0,0,1-3.917,3.416,19.916,19.916,0,0,1-4.54,2.805l-.216.086a21.469,21.469,0,0,1-2.406.782,11.734,11.734,0,0,1-2.86.417,5.829,5.829,0,0,1-.924-.069c.05.252.111.513.169.765a5.865,5.865,0,0,1,.148,3.24.983.983,0,0,1-.351.47A.923.923,0,0,1,136.079,151.028Zm16.838-33.279-2.666.3c-3.127.356-6.2.693-8.8.977l-6.374.693c-.008.18-.023.354-.037.522v0c-.014.17-.028.331-.032.47-.043,1.47-.075,2.963-.1,4.247-.059,2.822.006,5.686.192,8.511.21,3.185.461,5.8.79,8.216l.076.545.044.287a1.253,1.253,0,0,1,.846.468,1.085,1.085,0,0,0,.861.281,8.089,8.089,0,0,0,2.393-.535,15.669,15.669,0,0,0,3.524-1.957,22.139,22.139,0,0,0,2.943-2.506l.753-.745a9.621,9.621,0,0,0,1.959-2.476,10.716,10.716,0,0,0,.8-3.472c.029-.245.058-.5.09-.742.2-1.49.443-3.109.775-5.1l1.971-7.991ZM5.433,102.388l-.012,2.77c-.014,3.769-.011,7.782.192,11.767l.038.727c.228,4.266.582,8.779,2.147,12.939a24.717,24.717,0,0,0,2.432,4.807,22.175,22.175,0,0,0,3.456,4.126,13.138,13.138,0,0,0,2.1,1.618,9.158,9.158,0,0,0,2.423,1.049,13.592,13.592,0,0,0,3.557.428c.474,0,.958-.018,1.481-.054,7-.488,13.332-3.85,19.458-7.1h0c.927-.492,1.885-1,2.823-1.486C56.5,128.293,68.2,122.235,79.964,116.173a5.637,5.637,0,0,1-.869-.732,12.583,12.583,0,0,1-2.887-5.88,31.046,31.046,0,0,1-.947-6.971l.258-2.709-.277.073c-2.86.76-5.762,1.538-8.567,2.291-7.067,1.895-14.374,3.854-21.586,5.681-2.874.728-5.8,1.437-8.637,2.123-2.083.5-4.238,1.026-6.353,1.551l-.808.2c-3.871.979-7.9,2.175-10.941,5.052a.116.116,0,0,1-.08.034.127.127,0,0,1-.112-.077.112.112,0,0,1,.024-.126,17.585,17.585,0,0,1,5.711-3.921,48.058,48.058,0,0,1,6.6-2.277c.452-.129.911-.259,1.356-.384l.019-.005,1.088-.308a144.4,144.4,0,0,0-18.444-5.362c-.8-.171-1.62-.321-2.412-.467h0c-.805-.148-1.638-.3-2.451-.475-.725-.155-1.451-.358-2.152-.554-.388-.108-.788-.22-1.187-.324Zm203.847-55.8c-5.042.152-10.126.4-15.11.724-5.034.331-10.105.758-15.074,1.269-9.288.954-18.666,2.241-27.872,3.825-1.921.33-3.868.68-5.785,1.037l-1.155.217c-.431.082-.874.151-1.343.225-.8.126-1.631.256-2.427.455a8.1,8.1,0,0,0-2.224.866,4.676,4.676,0,0,0-1.739,1.978,15.806,15.806,0,0,0-.941,2.543c-.071.232-.144.471-.219.7-.7,2.187-1.4,4.413-2.067,6.617-2.7,8.891-5.143,17.825-7.267,26.551-.759,3.115-1.469,6.3-2.155,9.371v0c-.288,1.292-.587,2.628-.885,3.941-.789,3.479-1.715,7.214-2.914,11.754a1.151,1.151,0,0,1,.471-.214c4.235-.9,8.612-1.389,12.845-1.861.886-.1,1.8-.2,2.706-.306l.5-.059c5.107-.6,10.6-1.243,16.139-1.866l35.632-4.009c.6-.067,1.213-.118,1.811-.168a25.306,25.306,0,0,0,4.587-.664,5.465,5.465,0,0,0,3.523-3.171,19.281,19.281,0,0,0,1.353-4.774l.018-.094c1.052-5.6,1.991-11.317,2.9-16.849v0c.609-3.712,1.24-7.55,1.9-11.323ZM118.787,118.2h.005a1.377,1.377,0,0,1,.808.239l1.331-10.644a7.93,7.93,0,0,1-2.234-.68,6.192,6.192,0,0,0-1.981-.593c-.038,0-.076,0-.112,0a3.85,3.85,0,0,1,.482,3.106,2.371,2.371,0,0,1-2.53,1.837,7.314,7.314,0,0,1-2.283-.44,16.076,16.076,0,0,1-1.992-.842c-.353-.176-.708-.363-1.052-.544a14.892,14.892,0,0,0-3.8-1.571,5.171,5.171,0,0,0-1.06-.114,7.743,7.743,0,0,0-3.747,1.292l-.186.1a14.7,14.7,0,0,1-4.408,1.558,8.727,8.727,0,0,1-1.565.137c-.261,0-.524-.01-.805-.031a.96.96,0,0,1-.159.1l-.41.216a23.048,23.048,0,0,1,5.471,1.182c1.862.565,3.708,1.26,5.292,1.868l1.719.661a64.475,64.475,0,0,0,6.448,2.183,25.835,25.835,0,0,0,6.707.97ZM71.424,4.278a4.754,4.754,0,0,0-1.079.853,17.619,17.619,0,0,0-2.454,3.7l-.042.077c-.176.322-.35.646-.518.96l0,0c-.206.384-.418.78-.632,1.167-.185.335-.376.665-.522.915a3.67,3.67,0,0,1-.248.333h0c-.071.09-.145.183-.2.255.124.174.259.356.413.555.011.014.169.189.432.478l.011.012c1.075,1.183,3.591,3.953,4.62,5.212,1.006,1.232,1.952,2.492,2.81,3.748.891,1.3,1.719,2.644,2.46,3.985.879,1.591,1.646,3.266,2.388,4.885.511,1.115,1.039,2.267,1.6,3.384A20.886,20.886,0,0,0,82.9,38.726c.022.027.046.054.069.08v0l0,0,.044.05a9.474,9.474,0,0,1,1.493-2.318c.113-.143.22-.277.309-.394l.044-.059c.956-1.289,2.019-2.625,3.344-4.205,1.022-1.217,2.11-2.456,3.233-3.683l.415-.451c.14-.151.283-.312.435-.483a9.8,9.8,0,0,1,2.437-2.186,5.443,5.443,0,0,0-.421-.638,14.376,14.376,0,0,0-4.018-3.283l-.954-.581C86.5,18.853,85,17.844,84.022,17.158a48.234,48.234,0,0,1-4.953-3.915A41.9,41.9,0,0,1,74.4,8.4l-.491-.622Zm6-1.086c-.395.033-.8.057-1.2.08a14.261,14.261,0,0,0-3.859.577c.822.778,1.633,1.6,2.416,2.4.534.545,1.085,1.108,1.635,1.648a20.028,20.028,0,0,1,.438-2.1c.045-.184.092-.375.137-.563Zm-.433,137.363a.871.871,0,0,1-.713-.437.823.823,0,0,1-.037-.824,118.614,118.614,0,0,1,6.713-10.963l.312-.465c1.075-1.6,2.188-3.258,3.293-4.88.6-.876,1.086-1.577,1.541-2.206l.317-.435,1.715-1.877a.155.155,0,0,1,.074-.019.151.151,0,0,1,.15.147,4.865,4.865,0,0,1-.652,2.192c-.051.107-.108.228-.16.342l-.038.084c-.4.88-.86,1.828-1.42,2.9-1.02,1.946-2.067,3.841-3.112,5.633a66.555,66.555,0,0,1-7.441,10.546A.714.714,0,0,1,76.994,140.555Zm43.362-37.621a3.866,3.866,0,0,1-2.729-1.452l-.646-.675a6.873,6.873,0,0,0-1.411-1.2,3.49,3.49,0,0,0-1.851-.488c-.056,0-.115,0-.173,0a27.344,27.344,0,0,0-3.277.389h0c-.619.1-1.259.2-1.886.275-1.865.221-3.826.421-5.828.594h-.007a.071.071,0,0,1-.069-.067.078.078,0,0,1,.055-.088l2.181-.543,8.477-1.71a7.236,7.236,0,0,1,.873-.056,4.325,4.325,0,0,1,2.847.958,11.194,11.194,0,0,1,1.1,1.088,9.421,9.421,0,0,0,1.31,1.248,3.127,3.127,0,0,0,1.681.634.51.51,0,0,1,.481.456.468.468,0,0,1-.349.516A2.755,2.755,0,0,1,120.356,102.934Zm1.685-5.307a.331.331,0,0,1-.077-.009,6.881,6.881,0,0,1-1.914-.81,20.786,20.786,0,0,1-1.715-1.184c-.424-.314-.863-.639-1.311-.932a6.079,6.079,0,0,0-3.52-.943c-.681,0-1.372.062-2.1.127l-.129.011c-2.1.187-4.11.441-5.983.757-.646.109-1.3.241-1.938.37a32.529,32.529,0,0,1-3.672.6v0a.245.245,0,0,1-.227-.195.2.2,0,0,1,.109-.238,25.02,25.02,0,0,1,6.06-1.812l.136-.028,6.114-.95.225-.022c.708-.069,1.249-.1,1.753-.1a8.451,8.451,0,0,1,1.941.2,6.416,6.416,0,0,1,1.878.763l.34.206a12.954,12.954,0,0,1,4.337,3.69.3.3,0,0,1,.01.315A.364.364,0,0,1,122.042,97.628Zm50.631-8.662a13.756,13.756,0,0,1-3.708-.44,7.025,7.025,0,0,1-1.659-.694,4.84,4.84,0,0,1-1.327-1.136,2.6,2.6,0,0,1-.651-2.234,3.254,3.254,0,0,1,1.052-1.64,7.761,7.761,0,0,1,1.831-1.2,2,2,0,0,1-.571-.865,1.629,1.629,0,0,1,.022-1.052,4.02,4.02,0,0,1,1.816-1.826,7.292,7.292,0,0,0,1.153-.862,5.74,5.74,0,0,0,1.3-1.9,4.02,4.02,0,0,0,.249-2.261l-.017-.086a.815.815,0,0,1,.147-.695.805.805,0,0,1,.622-.29.85.85,0,0,1,.691.369l.111.153c.121.166.246.334.378.511l0,.005a19.8,19.8,0,0,1,1.583,2.359,5.042,5.042,0,0,1,.716,2.587,2.892,2.892,0,0,1,1.433.433,2.434,2.434,0,0,1,.978,1.089,3.012,3.012,0,0,1,.2,1.415,4.215,4.215,0,0,1,2.44,1.241,2.7,2.7,0,0,1,.755,1.654,3,3,0,0,1-.424,1.775c-1.594,2.715-5.193,3.373-7.2,3.523l-.094.007C173.84,88.943,173.241,88.965,172.673,88.965Zm-3.832-6.927c-.528.539-1.042,1.1-1.538,1.639a1.673,1.673,0,0,0-.516,1.331,2.041,2.041,0,0,0,.983,1.391,5.9,5.9,0,0,0,2.271.879,13.6,13.6,0,0,0,2.548.206h0c.526,0,1.038-.019,1.425-.036a12.564,12.564,0,0,0,3-.462,7.219,7.219,0,0,0,2.672-1.392l.068-.059a3.844,3.844,0,0,0,.736-.869,1.6,1.6,0,0,0,.269-.979,1.188,1.188,0,0,0-.683-.9,2.976,2.976,0,0,0-1.009-.3,4.675,4.675,0,0,1-.526-.108,2.967,2.967,0,0,1-2.071,1.725.8.8,0,0,1-.12.009.753.753,0,0,1-.719-.529.612.612,0,0,1,.278-.709l.147-.091a3.691,3.691,0,0,0,1.068-1,2.339,2.339,0,0,0,.437-1.391,1.291,1.291,0,0,0-.37-.811,1.127,1.127,0,0,0-.79-.4.732.732,0,0,0-.539.241l-.03.033a.634.634,0,0,1-.481.228.8.8,0,0,1-.661-.4.688.688,0,0,1-.028-.69l.018-.032-1.023-3.833a6.349,6.349,0,0,1-.761,1.86,7.3,7.3,0,0,1-1.307,1.59,8.063,8.063,0,0,1-1.281.962l-.055.032c-.06.034-.136.073-.21.112-.471.246-1.182.617-1.116,1.054.049.328.672.718.937.871a3.382,3.382,0,0,0,1.21.477.115.115,0,0,1,.107.1.091.091,0,0,1-.052.107,3.352,3.352,0,0,1-1.36.349A2.114,2.114,0,0,1,168.841,82.038ZM49.574,70.808a.593.593,0,0,1-.625-.512c-.382-2.459-.762-4.955-1.129-7.369v0c-.434-2.854-.884-5.806-1.338-8.706-.323-2.064-.693-4.156-1.05-6.179v0c-.109-.614-.221-1.249-.331-1.881L43.915,38.4a.145.145,0,0,1,.042-.106.173.173,0,0,1,.121-.05.148.148,0,0,1,.132.076,29.137,29.137,0,0,1,2.435,6.759c.072.264.145.536.219.8.641,2.334,1.221,4.858,1.824,7.941.531,2.711.939,5.438,1.213,8.1.278,2.709.429,5.461.448,8.182a.641.641,0,0,1-.189.465A.839.839,0,0,1,49.574,70.808Zm8.7-7.712a.915.915,0,0,1-.688-.323.811.811,0,0,1-.168-.692L56.7,42.356a.221.221,0,0,1,.027-.205.25.25,0,0,1,.2-.094.261.261,0,0,1,.249.168,36.871,36.871,0,0,1,1.609,4.911,34.977,34.977,0,0,1,.889,5.1,30.367,30.367,0,0,1-.693,10.276A.71.71,0,0,1,58.271,63.1ZM97.832,44.975a.394.394,0,0,1-.321-.151,4.465,4.465,0,0,1-.281-.423,2.262,2.262,0,0,0-.6-.729,3.588,3.588,0,0,0-1.394-.484c-.216-.043-.439-.088-.647-.149A5,5,0,0,1,92.337,41.7l-2.212-5a.192.192,0,0,1,.049-.146.215.215,0,0,1,.157-.062.244.244,0,0,1,.2.1,15.107,15.107,0,0,1,.976,1.664,12.685,12.685,0,0,0,1.158,1.9,4.317,4.317,0,0,0,1.758,1.375,7.408,7.408,0,0,0,1.275.359,4.549,4.549,0,0,1,1.961.764,2.368,2.368,0,0,1,.74.935,1.2,1.2,0,0,1-.094,1.13A.579.579,0,0,1,97.832,44.975Zm3.729-3.8a.564.564,0,0,1-.405-.164,2.7,2.7,0,0,1-.368-2.717,11.983,11.983,0,0,1,1.232-2.683,15.613,15.613,0,0,1,3.561-3.855c.256-.221.52-.449.784-.683a19.281,19.281,0,0,0,3.928-5.635c.295-.557.59-1.13.876-1.684l.006-.011,0-.006c.35-.679.712-1.38,1.078-2.065a4.666,4.666,0,0,1-1.054-2.3c-.036-.14-.07-.273-.106-.4l-.022-.076a30.624,30.624,0,0,1-.9-4.177,22.909,22.909,0,0,1-.218-4.05l.014-.347.666-2.487a.264.264,0,0,1,.12-.031.261.261,0,0,1,.209.117.27.27,0,0,1-.04.415,10.008,10.008,0,0,1,.444,1.5c.124.547.258,1.105.411,1.707.144.569.282,1.151.415,1.713l0,.007v0c.134.564.272,1.148.417,1.719.292,1.151.657,2.362,1.083,3.6.024.071.052.147.086.234l.047.12.011-.018a.123.123,0,0,1,.1-.063.132.132,0,0,1,.1.047.142.142,0,0,1,.033.116c-.012.077-.026.154-.039.23v.008c-.008.046-.017.094-.025.141l.043.113a2.1,2.1,0,0,1-.04,2.111,1,1,0,0,1-.637.42,36.473,36.473,0,0,1-1.45,3.887l-.159.366a21.812,21.812,0,0,1-2.914,5.189,19.1,19.1,0,0,1-1.981,2,14.439,14.439,0,0,0-2.514,2.726,11.4,11.4,0,0,0-1.268,2.755l-.119.371A2.964,2.964,0,0,1,101.84,41.1.524.524,0,0,1,101.561,41.173Zm10.946-1.888a1.179,1.179,0,0,1-.757-.26l-1.45-1.205c-.244-.2-.487-.406-.723-.605-.22-.185-.421-.357-.613-.525l-.3-.267c-.035-.031-.1-.1-.179-.18a3.07,3.07,0,0,0-.72-.629l-.038,0c-.386,0-1.158.806-1.573,1.238h0l-.143.148-.043.043a17.726,17.726,0,0,0-1.761,2.024.137.137,0,0,1-.11.059.129.129,0,0,1-.108-.059.132.132,0,0,1,0-.13,18.085,18.085,0,0,1,1.714-2.955l.135-.185c.075-.1.155-.216.239-.338l0-.005c.415-.6.933-1.344,1.582-1.49a1.285,1.285,0,0,1,.282-.031,3.6,3.6,0,0,1,1.986,1.035c.12.1.234.191.343.273l.044.033c.361.271.717.547.986.757a12.847,12.847,0,0,1,.2-2.689,7.579,7.579,0,0,1,.926-2.5A11.1,11.1,0,0,1,114.1,28.83c.268-.273.546-.556.806-.847a11.326,11.326,0,0,0,1.284-1.893,13.9,13.9,0,0,1,.995-1.544.643.643,0,0,1,.424-.241c.025-.685.11-1.382.192-2.056v-.01c.023-.188.047-.383.068-.573l.029-.26c.015-.136.032-.274.05-.419a4.453,4.453,0,0,0-.172-2.568,5.419,5.419,0,0,0-1.71-1.648h0c-.166-.12-.323-.232-.472-.346l-.607-.471-1.752-1.674a.221.221,0,0,1-.021-.24.332.332,0,0,1,.282-.172.258.258,0,0,1,.053.005,11.745,11.745,0,0,1,3.187,1.391c.161.09.343.191.518.286l.123.067a5.224,5.224,0,0,1,2.336,2.075,6.562,6.562,0,0,1,.412,3.4l-.007.107c-.019.293-.035.594-.05.885v0h0a20.655,20.655,0,0,1-.342,3.248.958.958,0,0,1-.358.589.976.976,0,0,1-.59.185,1.221,1.221,0,0,1-.357-.054,10.829,10.829,0,0,1-2.629,3.832c-.368.4-.749.815-1.089,1.228a5.9,5.9,0,0,0-1.253,3.215,19.476,19.476,0,0,0,.049,3.528q.016.212.031.421a.877.877,0,0,1-.223.679A1.09,1.09,0,0,1,112.507,39.284Z" transform="translate(4.014 -1.057)"/>
  </g>
  <g id="HEAD" transform="translate(78.592 38.043)">
    <path id="_Skin-2" data-name="âœ‹ Skin" d="M39.135,0c11.971,0,24.352,9.3,28.74,15.238,3.689,4.991,5.676,27.558,5.676,42.809,0,3.19,1.756,9.2,1.243,12.253C72.917,81.48,64.736,90.857,48.546,90.857s-27.8-6.434-39.834-23.708C2.873,67.149.043,62.66,0,55.575a10.56,10.56,0,0,1,5.636-9.662S3.614,17.957,8.712,10.678,27.165,0,39.135,0Z" transform="translate(11.892 15.906)" fill="#d08b5b"/>
    <path id="_Ink-2" data-name="ðŸ– Ink" d="M50.746,97.43a28.387,28.387,0,0,1-5.255-.478,23.111,23.111,0,0,1-4.98-1.517,18.78,18.78,0,0,1-4.405-2.682,17.106,17.106,0,0,1-3.53-3.974.1.1,0,0,1-.008-.109.131.131,0,0,1,.114-.063.125.125,0,0,1,.08.029,19.671,19.671,0,0,0,2.771,1.888A21.361,21.361,0,0,0,38.5,91.9a30.06,30.06,0,0,0,6.429,1.56,31.6,31.6,0,0,0,4.373.3,32.8,32.8,0,0,0,4.894-.369,31.785,31.785,0,0,0,4.8-1.11,29,29,0,0,0,4.529-1.857,25.545,25.545,0,0,0,4.084-2.609,17.022,17.022,0,0,0,3.807-4.22,18.15,18.15,0,0,0,1.348-2.522,17.935,17.935,0,0,0,.93-2.7,17.092,17.092,0,0,0,.482-2.865,16.332,16.332,0,0,0-.023-2.907,15.152,15.152,0,0,0-.994-3.687c-.212-.584-.432-1.187-.613-1.8a1.659,1.659,0,0,1,.392-1.621c.052-.727.139-1.47.224-2.188.09-.768.184-1.56.234-2.335.107-1.7.173-3.425.2-5.119.042-3.388-.092-6.961-.4-10.618-.327-3.885-.991-7.778-1.633-11.542-.425-2.494-.865-5.072-1.2-7.624a1.061,1.061,0,0,1-.715.286,1.118,1.118,0,0,1-.521-.135l-.049-.027-.257-.148a.392.392,0,0,0-.047,0c-.369.036-.75.054-1.132.054a13.9,13.9,0,0,1-4.14-.654,15.5,15.5,0,0,1-4.866-2.521,22.129,22.129,0,0,0-.4,4.284,1.093,1.093,0,0,1-.351.816,1.173,1.173,0,0,1-.8.3,1.242,1.242,0,0,1-.561-.135,71.479,71.479,0,0,1-9.576-5.873l-.222,1.139,0,.012c-.275,1.412-.559,2.873-.841,4.311a.918.918,0,0,1-.388.584,1.185,1.185,0,0,1-.673.207,1.067,1.067,0,0,1-.539-.14,20.27,20.27,0,0,1-5.833-5.123c-.381.731-.687,1.313-.961,1.833L37,26.061a3.922,3.922,0,0,1-2.167,2.179,1.924,1.924,0,0,1-.509.07,1.818,1.818,0,0,1-1.161-.428,2.486,2.486,0,0,1-.738-1.064c-.11-.3-.216-.623-.316-.957a55.946,55.946,0,0,1-3.217,6.292,75.45,75.45,0,0,1-5.562,7.74l-.583.744a.851.851,0,0,1-.679.356,1.337,1.337,0,0,1-1.2-1.134c-.05-.454-.094-.926-.135-1.442-1.465,2.963-2.74,5.358-4.012,7.536l.205.807c.416,1.676.789,3.389,1.149,5.046.152.7.309,1.421.468,2.135a1.941,1.941,0,0,1-.289,1.454,1.242,1.242,0,0,1-.85.556,9.017,9.017,0,0,0-.958.213,5.779,5.779,0,0,1-1.434.247,2.434,2.434,0,0,1-.8-.131,2.958,2.958,0,0,1-1.669-1.795c-.106-.213-.214-.432-.338-.648a3.972,3.972,0,0,0-.387-.549l-.036.047a.114.114,0,0,1-.093.046.175.175,0,0,1-.139-.076.12.12,0,0,1-.015-.114l.062-.154a12.055,12.055,0,0,0-1.112-1c-.164-.136-.333-.276-.5-.417a5.88,5.88,0,0,0-.976-.08,5.379,5.379,0,0,0-2.612.619,5.188,5.188,0,0,0-1.3,1.1,6.263,6.263,0,0,0-.912,1.435,8.117,8.117,0,0,0-.726,3.33,15.456,15.456,0,0,0,2.158,7.82A6.779,6.779,0,0,0,6.7,67.208a4.536,4.536,0,0,0,1.444.952,6.843,6.843,0,0,0,1.715.37,7.286,7.286,0,0,1,1.646.34,1.418,1.418,0,0,1,.848.836,1.134,1.134,0,0,1-.11.983c-.02.034-.042.067-.063.1h0l-.031.046.328.436c.207.277.45.608.68.963.35.4.716.8,1.071,1.191h0c.214.234.435.475.65.715.72.8,1.437,1.628,2.131,2.429l0,0c.323.372.656.758.986,1.136.855.979,1.836,2,3.087,3.215.427.415.906.81,1.37,1.191a15.845,15.845,0,0,1,1.828,1.667,3,3,0,0,1,.61,1.088,2.258,2.258,0,0,1,.066,1.182,1.588,1.588,0,0,1-1.014,1.131,2.161,2.161,0,0,1-.8.158c-1.2,0-2.281-1.018-3.151-1.836l-.246-.23-.046-.043a30.567,30.567,0,0,1-5.309-6.358,4.661,4.661,0,0,1-2.606.785,4.128,4.128,0,0,1-2.349-.691,4.333,4.333,0,0,1-1.614-2.33,3.4,3.4,0,0,1-.747.091H7.031c-.155.09-.283.161-.4.223a2.441,2.441,0,0,1-1.121.284,1.926,1.926,0,0,1-1.03-.286,1.833,1.833,0,0,1-.72-.876,2.887,2.887,0,0,1-.11-1.683,9.844,9.844,0,0,1,.525-1.654l.083-.214a18.778,18.778,0,0,1,.791-1.843,10.029,10.029,0,0,1-2.239-2.395A16.643,16.643,0,0,1,.492,62.812,18.568,18.568,0,0,1,.037,59.8a15.342,15.342,0,0,1,.072-2.911A10.651,10.651,0,0,1,1.1,53.573,9.561,9.561,0,0,1,2,52.079a8.17,8.17,0,0,1,1.165-1.273L3.1,50.641a24.948,24.948,0,0,1-1.206-3.757,38.9,38.9,0,0,1-.643-4.635A44.48,44.48,0,0,1,1.439,32.4,43.29,43.29,0,0,1,3.549,23.4a35.253,35.253,0,0,1,4.158-8.223,7.06,7.06,0,0,1-1.214-1.95,3.983,3.983,0,0,1-.258-1.094A3.58,3.58,0,0,1,6.793,9.91a2.814,2.814,0,0,1,.8-.816,2.47,2.47,0,0,1,.627-.266,2.881,2.881,0,0,0,.51-.2l.107-.059c.1-.056.088-.074.047-.176a1.869,1.869,0,0,1-.1-.331,4.2,4.2,0,0,1,.063-2.379,2.514,2.514,0,0,1,1.739-1.527,3.113,3.113,0,0,1,.9-.134,3.726,3.726,0,0,1,1.985.62,6.194,6.194,0,0,1,1.571,1.452,19.434,19.434,0,0,1,4.566-2.306c1.586-.586,3.218-1.044,4.89-1.5A67.554,67.554,0,0,1,35.449.329,65.9,65.9,0,0,1,42.076,0a77.428,77.428,0,0,1,7.9.417c2.508.255,5.086.622,7.883,1.123a1.224,1.224,0,0,1,1.012.928c2.1.1,4.236.229,6.3.358,1.384.086,2.816.176,4.223.253a1.769,1.769,0,0,1,.838.255,1.624,1.624,0,0,1,.777,1.356,1.785,1.785,0,0,1-.2.856c-.12.233-.243.458-.358.666L70.6,6.16a5.723,5.723,0,0,1,1.743-.315,3.1,3.1,0,0,1,1.477.347,2.922,2.922,0,0,1,1.364,1.528,3.614,3.614,0,0,1,.167,2.058,5.47,5.47,0,0,1-.339,1.027c.105-.007.209-.01.308-.01a4.226,4.226,0,0,1,.554.036,3.311,3.311,0,0,1,1.061.325,3.049,3.049,0,0,1,1.68,2.613,6.688,6.688,0,0,1-.878,3.471,11.806,11.806,0,0,1-2.306,2.968,2.977,2.977,0,0,1,.251,1.8,2.892,2.892,0,0,1-.786,1.544,4.608,4.608,0,0,1-1.431.967A11.62,11.62,0,0,1,74,28.965a1.108,1.108,0,0,1-.317.668A1.282,1.282,0,0,1,73.05,30a52.932,52.932,0,0,1,2.05,7.438c.456,2.223.843,4.639,1.217,7.6a92.192,92.192,0,0,1,.7,10.815c.013,1.636-.014,3.284-.082,4.9l-.028.612c-.018.37-.032.749-.046,1.115a30.557,30.557,0,0,1-.359,4.249,14.728,14.728,0,0,1,1.7,6.188,19.087,19.087,0,0,1-.936,7.615,21.057,21.057,0,0,1-3.326,6.234,24.724,24.724,0,0,1-5.05,4.88,29.393,29.393,0,0,1-6.2,3.441,31.39,31.39,0,0,1-6.79,1.918A31.977,31.977,0,0,1,50.746,97.43ZM12.109,61.548a1.46,1.46,0,0,1-.818-.264A7.955,7.955,0,0,1,9.23,58.879L9.049,58.6l-.066-.1c-.057-.086-.114-.175-.169-.261v0a4.514,4.514,0,0,0-.774-.991l-.086-.076a1.211,1.211,0,0,0-.441-.263.847.847,0,0,0-.23-.029,1.2,1.2,0,0,0-.5.112.645.645,0,0,0-.344.344l-.013.04a.167.167,0,0,1-.167.128.177.177,0,0,1-.183-.174,1.921,1.921,0,0,1,.56-1.4,2.268,2.268,0,0,1,1.61-.65,2.406,2.406,0,0,1,.415.036,5.2,5.2,0,0,1,2.264,1.2l.33.262.175.137.006,0a7.5,7.5,0,0,1,2.084,2.127,1.691,1.691,0,0,1-.078,1.672,1.8,1.8,0,0,1-.567.592A1.419,1.419,0,0,1,12.109,61.548Z" transform="translate(10.541 11.624)"/>
  </g>
  <g id="FACE" transform="translate(112.183 77.354)">
    <path id="_Ink-3" data-name="ðŸ– Ink" d="M26.451,35.578a6.244,6.244,0,0,1-1.931-.294,6.386,6.386,0,0,1-1.978-1.074,6.484,6.484,0,0,1-1.5-1.694,5.22,5.22,0,0,1-.7-1.851,4.406,4.406,0,0,1,.127-2.009.2.2,0,0,1,.144-.122,4.78,4.78,0,0,1,.745.9l0,.005a7.933,7.933,0,0,0,1.177,1.445,5.79,5.79,0,0,0,1.2.831,4.869,4.869,0,0,0,1.373.484,4.09,4.09,0,0,0,2.666-.418,6.71,6.71,0,0,0,1.3-.978l.047-.043a4.4,4.4,0,0,1,1.41-.96,1.232,1.232,0,0,1,.426-.075,1.579,1.579,0,0,1,.941.342,1.884,1.884,0,0,1,.51.589,1.456,1.456,0,0,1,.187.74,3.091,3.091,0,0,1-.886,2.023,6.862,6.862,0,0,1-2.581,1.645A7.388,7.388,0,0,1,26.451,35.578Zm1.056-11.647h0a7.373,7.373,0,0,1-2.63-.53,13.281,13.281,0,0,1-3.093-1.756,1.189,1.189,0,0,1-.432-.687,1.423,1.423,0,0,1,.061-.771,1.754,1.754,0,0,1,.521-.753,1.267,1.267,0,0,1,.811-.317,1.151,1.151,0,0,1,.628.193l.211.163a16.748,16.748,0,0,0,1.937,1.347,4.768,4.768,0,0,0,2.321.74,2.505,2.505,0,0,0,.981-.193,2.741,2.741,0,0,0,.913-.647,2.8,2.8,0,0,0,.531-2.255,4.261,4.261,0,0,0-1.13-2,8.242,8.242,0,0,0-1.711-1.382.531.531,0,0,1-.143-.61.8.8,0,0,1,.264-.38.809.809,0,0,1,.505-.167,1.076,1.076,0,0,1,.182.016,5.736,5.736,0,0,1,2.018.729,4.577,4.577,0,0,1,1.357,1.252,4.974,4.974,0,0,1,.866,3.322,5.475,5.475,0,0,1-.444,1.744,5.088,5.088,0,0,1-1,1.5A4.779,4.779,0,0,1,27.507,23.931Zm8.169-7.967a1.45,1.45,0,0,1-1.086-.487,3.823,3.823,0,0,1-.84-1.916A8.172,8.172,0,0,1,33.6,11.6l.011-.162A8.531,8.531,0,0,1,34.258,8.6c.378-.823.868-1.258,1.417-1.258a2.513,2.513,0,0,1,2.09,1.707,7.1,7.1,0,0,1,.637,2.718v.048a6.283,6.283,0,0,1-.7,2.585,3.617,3.617,0,0,1-.849,1.1A1.812,1.812,0,0,1,35.676,15.964Zm-23.1,0a1.812,1.812,0,0,1-1.177-.456,3.617,3.617,0,0,1-.849-1.1,6.283,6.283,0,0,1-.7-2.585v-.048a7.1,7.1,0,0,1,.637-2.718,2.513,2.513,0,0,1,2.09-1.707c.563,0,1.062.455,1.444,1.317A8.791,8.791,0,0,1,14.65,11.6l0,.088a8.33,8.33,0,0,1-.168,1.946,3.842,3.842,0,0,1-.837,1.855A1.447,1.447,0,0,1,12.575,15.964Zm7.156-8.109a17.737,17.737,0,0,1-2.654-.207,15.606,15.606,0,0,1-3.419-1.061c-.679-.27-1.38-.549-2.106-.765a8.1,8.1,0,0,0-2.321-.3,22.444,22.444,0,0,0-2.914.241l-.664.089-.016,0c-.967.13-1.968.265-2.939.457-.285.056-.574.129-.854.2a8.462,8.462,0,0,1-1.7.309h0a.141.141,0,0,1-.121-.081.121.121,0,0,1,.006-.128,7.983,7.983,0,0,1,2.04-1.843A19.149,19.149,0,0,1,4.5,3.421l.1-.049a22.546,22.546,0,0,1,2.938-1.16,12.513,12.513,0,0,1,3.1-.57c.107-.005.216-.008.324-.008a12.967,12.967,0,0,1,3.8.762c.662.2,1.346.414,2.038.562a9.494,9.494,0,0,0,1.986.206A13.6,13.6,0,0,0,22.472,2.6a2.659,2.659,0,0,1,.716-.1,2.111,2.111,0,0,1,1.534.643,2.657,2.657,0,0,1,.715,1.472,2.512,2.512,0,0,1-.27,1.589,2.334,2.334,0,0,1-1.4,1.083A13.916,13.916,0,0,1,19.732,7.855Zm10.822-1.08a5.936,5.936,0,0,1-1.772-.263,2.582,2.582,0,0,1-1.468-1.163,2.4,2.4,0,0,1-.245-1.854,2.6,2.6,0,0,1,2.358-1.834,1.843,1.843,0,0,1,.6.1l.056.02A2.558,2.558,0,0,0,31,1.938a7.01,7.01,0,0,0,2.33-.542l.844-.317.346-.132A10.741,10.741,0,0,1,38.32,0h.052l.139,0a6.278,6.278,0,0,1,3.224,1.022,4.637,4.637,0,0,1,1.978,2.656.113.113,0,0,1-.019.1.125.125,0,0,1-.1.048.117.117,0,0,1-.081-.033,2.708,2.708,0,0,0-1.932-.765,8.523,8.523,0,0,0-3.531,1.182c-.27.136-.525.264-.773.38l-.685.317-.143.067A30.475,30.475,0,0,1,33.577,6.2,9.259,9.259,0,0,1,30.554,6.775Z" transform="translate(8.662 13.738)"/>
  </g>
</svg>
