<svg id="peep-23" xmlns="http://www.w3.org/2000/svg" width="240" height="324" viewBox="0 0 240 324">
  <g id="BODY" transform="translate(31.056 135.053)">
    <path id="_Skin" data-name="âœ‹ Skin" d="M109.827,158.472c-17.145.048-27.413-.153-46.806-.433-22.445-.594-28.494.474-41.069-2a15.705,15.705,0,0,1-4.869-1.891c-.532.6-1.433,1.5-2.289.9-1.577-1.042-.854-4.684-1.245-6.741-.647-18.109-1.683-36.759,1.857-54.649C13.26,92.968.687,87.794,0,86.06,11.371,56.317,36.314,21.51,69.132,22.821c.66.814,1.247,2.019,1.98,2.848C75.574,24,81.768,22.323,82.073,15.887c.773-4.295,1.329-8.3,1.7-12.252.067-.451.609-.607.941-.8A4.784,4.784,0,0,1,85.886.073c5.752-.517,18.881,1.856,22.326,2.834,4.7.8,4.211,5.851,5.087,9.676,1.388,4.729,2.354,9.637,4.417,14.257.467.064,1.774.292,2.256.376.025-.524-.22-2.077.259-2.394.889-.894,1.094.807,1.292,1.361C140.945,22.514,153.646,39,157.9,57.418a186.931,186.931,0,0,0,12.5,28.688c3.344,6.242-6.262,7.4-10.289,9.892,4.155,16.174,4.655,32.645,5.337,48.947.18,2.507.425,5.917-.463,7.165a1.668,1.668,0,0,1-1.141.342c-.824.89-2.238.831-3.428,1.085a71.467,71.467,0,0,1-11.24,1.211c-10.167,6.295-25.841,2.775-39.35,3.724" transform="translate(-0.845 -6.763)" fill="#d08b5b"/>
    <rect id="_Top" data-name="ðŸ‘• Top" width="92.535" height="60.869" transform="translate(49.437 41.636)" fill="#fff"/>
    <path id="_Ink" data-name="ðŸ– Ink" d="M111.134,158.022c-6.539,0-13.179-.02-19.6-.04l-2.332-.007c-2.466-.056-5.1-.082-8.291-.082-2.237,0-4.513.013-6.714.025h-.013c-2.2.012-4.485.025-6.729.025-4.858,0-8.595-.061-12.117-.2-4.4-.171-8.347-.463-12.066-.891a2.425,2.425,0,0,1-1.4.58,1.31,1.31,0,0,1-1.034-.529,3.148,3.148,0,0,1-.52-1,6.605,6.605,0,0,1-.28-1.265,8.182,8.182,0,0,1,.038-2.437l.152-4.125c.1-2.616.206-5.425.349-8.249l.346-6.7c.584-11.248,1.19-22.273,2.171-33.477a132.365,132.365,0,0,1-13.14-2.492c-4.26-1.031-8.579-2.295-12.837-3.757.248,6.927.225,14,.2,20.836-.02,6.136-.041,12.479.134,18.706.094,3.352.236,6.4.434,9.326.222,3.282.508,6.321.874,9.291a2.046,2.046,0,0,1,.417,1.014,1.641,1.641,0,0,1-.176.911,2.606,2.606,0,0,1-2.287,1.3,2.3,2.3,0,0,1-1.364-.43c-1.579-1.2-1.592-3.214-1.6-5.158a14.573,14.573,0,0,0-.149-2.469l-.058-1.615c-.031-.862-.063-1.716-.1-2.663-.3-8.177-.619-16.632-.467-24.951.081-4.483.288-8.552.631-12.441.386-4.371.933-8.4,1.673-12.315l-1.4-.542c-3.216-1.256-5.934-2.427-8.079-3.479C2.308,87,.369,85.623.047,84.618a.8.8,0,0,1,.081-.712c1.423-3.731,3.04-7.483,4.806-11.153,1.848-3.841,3.869-7.611,6.007-11.2,2.251-3.784,4.654-7.411,7.144-10.782A108.7,108.7,0,0,1,26.3,40.882,74.89,74.89,0,0,1,45.7,25.7a55.542,55.542,0,0,1,5.42-2.494,50.478,50.478,0,0,1,5.632-1.855A47.275,47.275,0,0,1,62.588,20.2a46.047,46.047,0,0,1,6.033-.4c.769,0,1.55.02,2.321.058a5.169,5.169,0,0,1,1.322,1.652,10.265,10.265,0,0,0,.609.934l1.007-.366c.942-.345,1.948-.727,2.918-1.183a13.428,13.428,0,0,0,2.626-1.571,6.611,6.611,0,0,0,2.706-5.284c.78-4.321,1.339-8.35,1.711-12.316a2.035,2.035,0,0,1,.831-1.3A2.461,2.461,0,0,1,86.087,0a2.71,2.71,0,0,1,1.968.8,2.015,2.015,0,0,1,.53,1.56c-.408,1.841-.7,3.775-.981,5.647C87.3,10.064,87,12,86.568,13.85A23.959,23.959,0,0,1,85.8,16.5a14.3,14.3,0,0,1-1.082,2.361,9.974,9.974,0,0,1-1.5,1.985A8.644,8.644,0,0,1,81.2,22.371a10.173,10.173,0,0,1-2.643.976,15.419,15.419,0,0,1-3.373.344c-.5,0-1.017-.019-1.549-.056a29.75,29.75,0,0,0,5.074,6.5,36.225,36.225,0,0,0,6.8,5.223,35.285,35.285,0,0,0,7.8,3.477,27.85,27.85,0,0,0,8.075,1.263,21.127,21.127,0,0,0,5.344-.662,17.751,17.751,0,0,0,4.891-2.088,19.4,19.4,0,0,0,7.474-9.069,2.973,2.973,0,0,1-1.352-.527,4.739,4.739,0,0,1-1.112-1.132,12.324,12.324,0,0,1-1.614-3.516,50.783,50.783,0,0,1-1.543-8.082v-.006c-.065-.5-.121-.927-.175-1.3l-.022-.325a12.663,12.663,0,0,1,.057-2.7,5.807,5.807,0,0,1,.989-2.5,4.17,4.17,0,0,1,1.255,1.669,13.753,13.753,0,0,1,.7,2.08l.278,1.111a76.235,76.235,0,0,0,3.379,10.924l.052.008a2.4,2.4,0,0,1,.658-1.764,2.006,2.006,0,0,1,1.417-.635,1.564,1.564,0,0,1,.993.349,2.21,2.21,0,0,1,.7,1.125,32.924,32.924,0,0,1,4.475-.315,28.053,28.053,0,0,1,6.379.718,26.133,26.133,0,0,1,5.66,2.036,27.917,27.917,0,0,1,4.964,3.174,32.933,32.933,0,0,1,4.292,4.133,45.214,45.214,0,0,1,6.663,10.426,65.944,65.944,0,0,1,4.259,12.113c1.574,4.725,3.461,9.6,5.609,14.483,1.985,4.514,4.27,9.213,6.791,13.966a7.534,7.534,0,0,1,.829,2.526,4.384,4.384,0,0,1-.227,2.048,4.965,4.965,0,0,1-1.146,1.741,9.266,9.266,0,0,1-1.819,1.4,33,33,0,0,1-4.6,2.151c-1.077.439-2.093.854-2.974,1.3.87,3.486,1.593,7.071,2.213,10.961.552,3.47,1.008,7.1,1.391,11.094.729,7.589,1.082,15.423,1.394,22.335a30,30,0,0,0,.129,3.79c.223,3.1.475,6.616-.833,8.17a2.693,2.693,0,0,1-1.62.67,1.637,1.637,0,0,1-.779-.2,2.168,2.168,0,0,1-.634-.531,4.369,4.369,0,0,1-.835-1.85,5.609,5.609,0,0,1-.061-2.119c.116-4.9.062-10.244-.164-16.351-.2-5.448-.519-10.979-.825-16.329v0c-.356-6.218-.725-12.648-.914-18.979-3.436,1.452-7.064,2.855-10.78,4.168.108,9.463.823,19.076,1.514,28.372.489,6.575.994,13.375,1.278,20.044a2.648,2.648,0,0,1,.939,1.369,1.9,1.9,0,0,1-.311,1.64,13.223,13.223,0,0,1-1.69,1.931,13.7,13.7,0,0,1-1.952,1.521,15.711,15.711,0,0,1-2.164,1.16,19.332,19.332,0,0,1-2.328.847,27.973,27.973,0,0,1-4.947.946c-1.488.161-3.079.247-5.008.271C128.56,157.979,120.684,158.022,111.134,158.022ZM137.455,74.11c-2.807,0-7.824.943-14.911,2.8-5.659,1.486-10.954,3.114-13.215,3.809l-.012,0c-.415.128-.715.22-.875.267l-.9.328c-1.151.419-2.326.842-3.463,1.252-6.819,2.458-13.869,5-20.522,8.141a89.288,89.288,0,0,0-9.643,5.24c-1.574.994-3.087,2.035-4.5,3.095-1.482,1.113-2.9,2.284-4.216,3.48a.3.3,0,0,0-.064.335.322.322,0,0,0,.294.192.347.347,0,0,0,.15-.035l.041-.024c.138-.077.408-.193.694-.315a3.166,3.166,0,0,0,.867-.436c0-.013-.025-.019-.069-.019a2.847,2.847,0,0,0-.436.061A140.739,140.739,0,0,1,93.786,89.342c4.37-1.595,9.064-3.138,14.349-4.718,4.168-1.246,8.633-2.5,14.479-4.059,2.8-.676,5.633-1.3,8.434-1.866.849-.206,1.747-.353,2.615-.5a30.53,30.53,0,0,0,3.1-.617,9.632,9.632,0,0,0,2.847-1.237c.448-.627.581-1.129.394-1.492a1.3,1.3,0,0,0-.863-.57,6.47,6.47,0,0,0-1.68-.177ZM64.495,88.117c-1.3,0-2.078.212-2.448.668a1.352,1.352,0,0,0-.2,1.176,3.44,3.44,0,0,0,.945,1.1,4.333,4.333,0,0,0,1.25.643,10.136,10.136,0,0,0,2.873.41c.274.019.555.028.835.028a12.812,12.812,0,0,0,2.3-.209,11.336,11.336,0,0,0,2.189-.625,6.676,6.676,0,0,0,3.241-2.491,4.394,4.394,0,0,0,.68-2.3,6.522,6.522,0,0,0-.719-2.9,3.953,3.953,0,0,0,2.609,1.014,6.308,6.308,0,0,0,3.956-1.787A11.47,11.47,0,0,0,83.6,81.1a10.841,10.841,0,0,0,1.127-1.871A4.126,4.126,0,0,0,86.4,81.012a4.493,4.493,0,0,0,2.21.533,7.394,7.394,0,0,0,2.679-.551,9.054,9.054,0,0,0,2.371-1.386,5.288,5.288,0,0,0,3.332,1.2,6.079,6.079,0,0,0,2.235-.447,8.372,8.372,0,0,0,2.056-1.194,10.249,10.249,0,0,0,1.727-1.718,9.8,9.8,0,0,0,1.246-2.02c.032.721.07,1.561.11,2.4a1.507,1.507,0,0,0,.554,1.1,1.764,1.764,0,0,0,1.107.4,1.3,1.3,0,0,0,1.327-1.094c.294-1.378.64-2.714,1.027-3.972a38.243,38.243,0,0,1,1.41-3.852,14.064,14.064,0,0,1,1.4-2.912c.407-.588.789-.886,1.134-.886.456,0,.843.528,1.119,1.527a16.089,16.089,0,0,1,.44,3.819,5.5,5.5,0,0,0,1.022,2.586,3.184,3.184,0,0,0,2.4,1.227l.059,0a1.549,1.549,0,0,0,.893-.335,1.283,1.283,0,0,0,.519-.788l.124-.827a23.118,23.118,0,0,1,1.218-5.146,5.2,5.2,0,0,0,.55,1.836,4.214,4.214,0,0,0,1.053,1.3,4.376,4.376,0,0,0,1.4.768,5.049,5.049,0,0,0,1.6.253,5.576,5.576,0,0,0,1.5-.209,5.634,5.634,0,0,0,1.422-.619,5.376,5.376,0,0,0,2.125-2.43,5.555,5.555,0,0,0,2.888.829c3.115,0,5.951-2.684,7.381-5.343l.057-.107a1.236,1.236,0,0,0-.039-1.249,1.365,1.365,0,0,0-1.125-.7,1.071,1.071,0,0,0-.826.411l-.335.349a17.987,17.987,0,0,1-2.335,2.108,6.918,6.918,0,0,1-1.345.775,3.618,3.618,0,0,1-1.388.306,2.665,2.665,0,0,1-1.04-.209,3.289,3.289,0,0,1-1.008-.687,22.526,22.526,0,0,0-.017-3.157,1.91,1.91,0,0,0-1.776-1.681,1.264,1.264,0,0,0-.969.455,3.357,3.357,0,0,0-2.227-.829,4.63,4.63,0,0,0-2.254.646A8.033,8.033,0,0,0,120.9,62.7a9.669,9.669,0,0,0-1.984,1.937,12.112,12.112,0,0,0-1.441,2.412,13.624,13.624,0,0,0-.884,2.645,12.028,12.028,0,0,0-.244-2.139,7.187,7.187,0,0,0-.689-1.942,3.878,3.878,0,0,0-3.222-2.141H112.4c-2.878,0-4.155,2.915-5.18,5.257v0c-.111.253-.216.493-.321.725-.076-1.3-.133-2.33-.18-3.25a1.463,1.463,0,0,0-.466-1.05,1.416,1.416,0,0,0-.946-.348,1.464,1.464,0,0,0-1.479,1.343l-.006.055a26.424,26.424,0,0,1-1.785,7.1,10.191,10.191,0,0,1-1.977,3.143,3.951,3.951,0,0,1-2.844,1.309,4.235,4.235,0,0,1-1.345-.232,14.86,14.86,0,0,0,1.43-1.915,21.493,21.493,0,0,0,1.422-2.6,15.358,15.358,0,0,0,1.009-2.857,7.323,7.323,0,0,0,.19-2.686,3.313,3.313,0,0,0-1.569-2.487,5.2,5.2,0,0,0-1.267-.162c-1.881,0-3.57,1.134-4.755,3.194a11.321,11.321,0,0,0-1.417,4.832,9.865,9.865,0,0,0,.133,2.447A6.635,6.635,0,0,0,91.8,77.4l-.133.094a6.032,6.032,0,0,1-2.974,1.194,1.761,1.761,0,0,1-1.742-1.324l-.093-.21a6.9,6.9,0,0,1-.5-1.488,2.656,2.656,0,0,1,.124-1.528,62.26,62.26,0,0,0,1-6.436,31.494,31.494,0,0,0,.2-4.186,5.106,5.106,0,0,0-.613-2.739.806.806,0,0,0-.651-.343,2.251,2.251,0,0,0-1.361.737,14.192,14.192,0,0,0-1.344,3.567,25.62,25.62,0,0,0-.585,3.778,12.905,12.905,0,0,0-.019,3.728,18.08,18.08,0,0,1,.113,2.6,5.755,5.755,0,0,1-.65,2.472,8.777,8.777,0,0,1-.824,1.63A9.7,9.7,0,0,1,80.6,80.423a6.214,6.214,0,0,1-1.3,1.062,2.544,2.544,0,0,1-1.269.409c-.8,0-1.777-.6-1.918-3.472a7.011,7.011,0,0,0,2.344-.452,4.565,4.565,0,0,0,1.582-1.024,4,4,0,0,0,1.153-2.909,4.071,4.071,0,0,0-.224-1.271,3.524,3.524,0,0,0-.6-1.08,2.839,2.839,0,0,0-.925-.75,2.675,2.675,0,0,0-1.21-.281,3.983,3.983,0,0,0-1.974.592,7.372,7.372,0,0,0-1.756,2.25,9.214,9.214,0,0,0-.887,2.756,10.693,10.693,0,0,0-.059,2.935,10.148,10.148,0,0,0,.725,2.787,7.749,7.749,0,0,0-2.335-1.69,23.534,23.534,0,0,0-2.7-1.061,15.457,15.457,0,0,1-3.95-1.8,4.849,4.849,0,0,1-1.424-4.448,6.9,6.9,0,0,1,1.337-2.706,14.341,14.341,0,0,1,2.405-2.4,23.455,23.455,0,0,1,2.87-1.96,24.818,24.818,0,0,1,2.731-1.382,7.784,7.784,0,0,1,1.312-.624c.941-.4,2.008-.857,1.989-1.044,0-.032-.04-.056-.109-.069a22.871,22.871,0,0,0-5.293.643A17.592,17.592,0,0,0,66.2,65.461a10.134,10.134,0,0,0-2.436,1.674,10.771,10.771,0,0,0-1.842,2.24,10.58,10.58,0,0,0-1.16,2.588,9.334,9.334,0,0,0-.388,2.72,7.967,7.967,0,0,0,.282,2.042,7.184,7.184,0,0,0,.829,1.894,7.867,7.867,0,0,0,3.463,2.951,24.162,24.162,0,0,0,2.348.935,22.409,22.409,0,0,1,2.513,1.017,5.734,5.734,0,0,1,1.944,1.489,1.713,1.713,0,0,1,.4,1.427A1.953,1.953,0,0,1,71,87.673a6.284,6.284,0,0,1-2.59.525,3.669,3.669,0,0,1-.755.06c-.41,0-.893-.031-1.4-.065l-.1-.006c-.574-.037-1.134-.071-1.662-.071ZM76.1,77.656h0l0-.134a9.756,9.756,0,0,1,.43-2.463,5.232,5.232,0,0,1,.53-1.178,2.389,2.389,0,0,1,.789-.811.807.807,0,0,1,.4-.124.693.693,0,0,1,.571.355,2.742,2.742,0,0,1,.282,2.051,3.136,3.136,0,0,1-1.2,1.428,7.725,7.725,0,0,1-1.805.876Zm17.987-2.464h0a6.719,6.719,0,0,1,.126-4.391,6.265,6.265,0,0,1,1.116-1.92,5.023,5.023,0,0,1,1.742-1.323,1.333,1.333,0,0,1-.008.342v0c-.006.056-.012.109-.013.157a11.879,11.879,0,0,1-.951,3.78,14.746,14.746,0,0,1-2.011,3.351Zm30.693-5.452a1.437,1.437,0,0,1-.876-.306,2.033,2.033,0,0,1-.618-.825,3.183,3.183,0,0,1-.119-1.963,4.455,4.455,0,0,1,.46-1.156,5.931,5.931,0,0,1,.893-1.186,3.787,3.787,0,0,1,.965-.121,5.084,5.084,0,0,1,1.322.187,5.171,5.171,0,0,0,.51,2.531,5.7,5.7,0,0,1-1.2,2.186A1.9,1.9,0,0,1,124.781,69.739Z" transform="translate(-2.324 -4.861)"/>
  </g>
  <g id="HEAD" transform="translate(78.592 38.043)">
    <path id="_Skin-2" data-name="âœ‹ Skin" d="M65.651,10.508C51.786-.79,29.566-4.459,14.723,6.94,3.19,17.637-1.582,48.035.459,63.309c.568,9.8,8.034,20.9,18.994,17.8,1.861-.184,3.668-.9,5.547-1.049a26.454,26.454,0,0,1,6.753.054c4.886.693,9.217,3.293,13.96,4.509A32.979,32.979,0,0,0,71.9,80.284c25.03-16.5,13.692-53.808-6.252-69.776Z" transform="translate(6.746 20.501)" fill="#d08b5b"/>
    <path id="_Ink-2" data-name="ðŸ– Ink" d="M28.218,124.193a7.9,7.9,0,0,1-2.247-.319,8.155,8.155,0,0,1-1.273-.5,7.505,7.505,0,0,1-1.379-.872,6.938,6.938,0,0,1-1.125-1.132,9.125,9.125,0,0,1-3.655.789,7.953,7.953,0,0,1-1.714-.184,7.262,7.262,0,0,1-1.635-.571,7.922,7.922,0,0,1-1.351-.211,7.059,7.059,0,0,1-3.29-1.88,6.124,6.124,0,0,1-1.119-1.543A5.074,5.074,0,0,1,8.9,115.95a6.72,6.72,0,0,1-4.613-4.638,7.019,7.019,0,0,1-.252-1.63,7.531,7.531,0,0,1,.124-1.652,7.847,7.847,0,0,1-2.927-2.989,9.409,9.409,0,0,1-.847-1.983,9.181,9.181,0,0,1-.371-2.113,9.045,9.045,0,0,1,1.043-4.6A15.81,15.81,0,0,1,3.942,92.45a5.6,5.6,0,0,1-1.09-3.029,6.554,6.554,0,0,1,.22-1.946,9.074,9.074,0,0,1,.72-1.835A17.033,17.033,0,0,1,6.053,82.4c.16-.187.312-.358.466-.522a5.838,5.838,0,0,1-.491-1.048,9.54,9.54,0,0,1-.4-3.993,17.368,17.368,0,0,1,.853-3.962,16.467,16.467,0,0,1,2.067-4.148,12.862,12.862,0,0,1,3.15-3.213c.147-.333.308-.664.477-.983v0a7.42,7.42,0,0,1-.614-2.676c-.085-2.549,1.082-5.264,3.47-8.069a17.332,17.332,0,0,1,4.634-3.808A19,19,0,0,1,22.4,48.7a19.206,19.206,0,0,1,2.9-.835,7.44,7.44,0,0,1-.119-1.789,8.172,8.172,0,0,1,.3-1.8,9.065,9.065,0,0,1,1.782-3.329,7.862,7.862,0,0,1,1.607-1.451,8.409,8.409,0,0,1,1.855-.937,12.243,12.243,0,0,1,4.158-.654c.423,0,.866.016,1.316.048a3.345,3.345,0,0,1-.01-.443,4.848,4.848,0,0,1,1.215-2.773,12.112,12.112,0,0,1,2.27-2.087,12.667,12.667,0,0,1,4.754-2.125,7.557,7.557,0,0,1-.138-1.857,7.68,7.68,0,0,1,.329-1.871,9.419,9.419,0,0,1,1.4-2.79A9.84,9.84,0,0,1,48.2,21.836a5.135,5.135,0,0,1,.529-4.959,8.961,8.961,0,0,1,4.7-3.287,6.306,6.306,0,0,1,3.851-3.984,9.4,9.4,0,0,1,3.371-.575,12.623,12.623,0,0,1,1.419.082,10.957,10.957,0,0,1,4.107-4,11.933,11.933,0,0,1,5.54-1.548c.85-.319,1.766-.612,2.722-.873A5.817,5.817,0,0,1,77.228.475,6.715,6.715,0,0,1,79.8,0a18.079,18.079,0,0,1,3.435.451c.715.141,1.455.286,2.185.373.227.025.457.044.683.057h.1c.21,0,.422.007.631.019h.01C87.493.9,88.158.861,88.8.823s1.3-.076,1.953-.076a11.447,11.447,0,0,1,1.655.108,7.48,7.48,0,0,1,3.556,1.507A5.8,5.8,0,0,1,97.389,3.97a12.3,12.3,0,0,1,6.619,2.053,11.4,11.4,0,0,1,2.582,2.335,9.894,9.894,0,0,1,1.686,3.038,18.9,18.9,0,0,1,3.963-.466,10.658,10.658,0,0,1,3.858.658,5.965,5.965,0,0,1,3.2,2.669,7.968,7.968,0,0,1,.731,2.988c.055.5.113,1.021.219,1.537a1.791,1.791,0,0,0,.294.783.966.966,0,0,0,.743.314c.11.008.225.012.351.012.227,0,.454-.012.674-.024s.449-.024.675-.024a4.519,4.519,0,0,1,.535.029,6.315,6.315,0,0,1,2.327.755,6.684,6.684,0,0,1,1.894,1.56,7.234,7.234,0,0,1,1.226,2.064,6.084,6.084,0,0,1,.418,2.361,10.706,10.706,0,0,1-.377,2.221l0,.011c-.039.161-.08.328-.118.493l-.011.049a3.468,3.468,0,0,0-.131.938,1.056,1.056,0,0,0,.406.8,6.832,6.832,0,0,0,.97.629,7.141,7.141,0,0,1,.959.618,5.2,5.2,0,0,1,1.45,1.847,7.076,7.076,0,0,1,.6,2.312,13.465,13.465,0,0,1-.009,2.4c-.028.347-.061.7-.092,1.033a22.928,22.928,0,0,0-.142,3.79,34.7,34.7,0,0,0,.74,4.531l.009.045q.057.271.113.543l.023.113a38.714,38.714,0,0,1,.8,4.894,12.006,12.006,0,0,1-.511,4.884,9.3,9.3,0,0,1-1.132,2.293,5.735,5.735,0,0,1-.4.471c-.407.446-.963,1.057-.938,1.393a.111.111,0,0,1,0,.041c0,.008,0,.008.013.024s.041.044.093.106a2.046,2.046,0,0,0,.607.418c.119.064.232.124.325.187a6.446,6.446,0,0,1,1.655,1.532,5.847,5.847,0,0,1,.979,2.175,8.321,8.321,0,0,1,.16,2.38,19.584,19.584,0,0,1-1.051,4.709,18.174,18.174,0,0,0-.5,1.79,36.472,36.472,0,0,1,2.692,4.212,13.523,13.523,0,0,1,1.309,4.479c.025.144.053.306.08.465.292,1.668.53,3.39.727,5.265.061.582.127,1.173.19,1.745.184,1.658.374,3.371.471,5.059a31.615,31.615,0,0,1-.073,5.072,33.991,33.991,0,0,1-3.276,11.588,8.92,8.92,0,0,1-3.656,4.163,6.346,6.346,0,0,1-2.919.733c-.069,0-.139,0-.208,0a5.738,5.738,0,0,1-1.26,1.231,6.914,6.914,0,0,1-1.66.866,6.24,6.24,0,0,1-2.153.365,10.237,10.237,0,0,1-2.888-.469,5.038,5.038,0,0,1-1.722.957,6.652,6.652,0,0,1-2.075.3c-.327,0-.685-.018-1.094-.055a3.931,3.931,0,0,1-.759.342,3.748,3.748,0,0,1-1.2.192,5.109,5.109,0,0,1-1.557-.267,12.943,12.943,0,0,1-1.5-.612l-.207-.1h0l-.015-.007c-.292-.01-.6-.015-.928-.015a1.67,1.67,0,0,1-.668,1.174,2.162,2.162,0,0,1-1.321.48,1.476,1.476,0,0,1-1.172-.535,2.376,2.376,0,0,0-.57-.481c-.049-.033-.1-.07-.16-.109a2.05,2.05,0,0,1-1.4.531,1.989,1.989,0,0,1-.424-.045,6.339,6.339,0,0,1-1.337-.45c-.207.02-.395.029-.573.029a4.055,4.055,0,0,1-.991-.116,2.119,2.119,0,0,1-1.368-1.026,2.485,2.485,0,0,1-.274-1.625,7.369,7.369,0,0,1-1.568-.547,6.184,6.184,0,0,1-1.391-.911,7.337,7.337,0,0,1-.763.129,6.388,6.388,0,0,1-.718.04,6.475,6.475,0,0,1-1.732-.235,6.12,6.12,0,0,1-1.619-.708,4.912,4.912,0,0,1-1.307-1.169,1.581,1.581,0,0,0,.061.275.052.052,0,0,1-.008.047.07.07,0,0,1-.054.027.05.05,0,0,1-.047-.03c-.061-.129-.126-.257-.194-.392a6.593,6.593,0,0,1-.413-.925,26.359,26.359,0,0,1-4.976.475c-.478,0-.962-.013-1.439-.039a29.848,29.848,0,0,1-4.2-.531,28.754,28.754,0,0,1-4.082-1.132,23.532,23.532,0,0,1-4.221-1.915,9.99,9.99,0,0,1-1.65-1.219,7.138,7.138,0,0,1-1.276-1.6.86.86,0,0,1-.02-.883,1.02,1.02,0,0,1,1.068-.487,20.429,20.429,0,0,1,4.772,1.777,27.674,27.674,0,0,0,3.558,1.476,25.8,25.8,0,0,0,7.605,1.168c.294,0,.592-.005.884-.016a22.051,22.051,0,0,0,7-1.411,22.52,22.52,0,0,0,6.115-3.479,22.064,22.064,0,0,0,4.73-5.194,21.148,21.148,0,0,0,2.845-6.558,34.061,34.061,0,0,0,.74-4.343c.169-1.527.263-3.079.334-4.4.16-3.038.263-6.2.306-9.386.023-1.742.03-3.509.036-5.218V72.3c.005-1.372.011-2.791.025-4.186s.065-2.729.128-4.33a8.336,8.336,0,0,1-1.908-.7,7.12,7.12,0,0,1-2.748-2.382,5.705,5.705,0,0,0-.889-1.042,3.008,3.008,0,0,0-1.692-.527c-.19-.02-.386-.042-.572-.073a7.254,7.254,0,0,1-4.961-3.291,8.468,8.468,0,0,1-1.567.142,16.1,16.1,0,0,1-5.188-1.076c-1.792-.631-3.605-1.294-5.358-1.935-.818-.3-1.744-.638-2.638-.962-.257-.093-.519-.193-.773-.29a13.216,13.216,0,0,0-2.925-.866c-.539-.07-1.087-.092-1.617-.112a13.058,13.058,0,0,1-2.216-.213,13.469,13.469,0,0,1-3.129-1.12,23.241,23.241,0,0,1-2.886-1.718,7.225,7.225,0,0,1-3.519.94,6.785,6.785,0,0,1-2.081-.327A6.087,6.087,0,0,1,59.31,46.7c0,.358-.027.725-.052,1.08v0c-.026.375-.052.763-.053,1.15a.691.691,0,0,1-.015.178l.032.1a1.389,1.389,0,0,0,.142.274,1.612,1.612,0,0,1,.144.272,5.73,5.73,0,0,1,.17.614c.035.145.07.3.112.436a6.581,6.581,0,0,1,.369,2.3,7.175,7.175,0,0,1-1.843,4.155,14.493,14.493,0,0,1-1.55,1.6l-.024.058,0,.009c-.049.119-.1.242-.149.361-.121.285-.223.6-.321.909l-.077.238a11.741,11.741,0,0,1,.731,1.463,8.447,8.447,0,0,1,.629,2.954,10.72,10.72,0,0,1-.336,3.023,5.094,5.094,0,0,1,.821,1.819,6.1,6.1,0,0,1,.141,2,9.6,9.6,0,0,1-1.712,4.186c-.277.452-.562.919-.826,1.41-.028.051-.069.149-.112.253-.082.2-.175.419-.216.419-.009,0-.014-.01-.018-.03a6.151,6.151,0,0,0,.106.913,6.176,6.176,0,0,1,.1.858,14.18,14.18,0,0,1-.369,3.357,13.66,13.66,0,0,1-2.2,4.827,14.546,14.546,0,0,1-.2,4.1,14.39,14.39,0,0,1-1.335,3.83,4.288,4.288,0,0,1,.66,2,6.045,6.045,0,0,1-.26,2.082c.059.039.121.082.188.131a6.1,6.1,0,0,1,2.334,1.841c.1.107.2.217.295.316a25.627,25.627,0,0,1,2.315,2.866,18.226,18.226,0,0,1,2.028,3.6,11.926,11.926,0,0,1,.617,1.961,9.754,9.754,0,0,1,.228,2.057,2.155,2.155,0,0,1-.179.871c.608,1.506.419,3.544-.949,4.345-.152.089-.288.162-.419.232a3.715,3.715,0,0,0-1.044.738c-.125.127-.249.258-.37.385a12.575,12.575,0,0,1-1.091,1.057,5.248,5.248,0,0,1-3.282,1.336,3.821,3.821,0,0,1-.943-.118,6.693,6.693,0,0,1-1.16.1,6.82,6.82,0,0,1-.894-.059,5.809,5.809,0,0,1-3.131.975c-.091,0-.184,0-.276-.007a5.023,5.023,0,0,1-.593-.063,10.132,10.132,0,0,1-4.444,1.431c-.155.01-.313.015-.471.015a7.424,7.424,0,0,1-3.651-.954,6.314,6.314,0,0,1-1.432-1.052c-.063.029-.129.056-.193.083s-.152.063-.2.089a21.937,21.937,0,0,1-3.316,1.484,10.981,10.981,0,0,1-3.546.641h0ZM94.511,114h0c-.272.1-.524.192-.77.277a3.092,3.092,0,0,0,.939.156H94.7c-.039-.084-.072-.165-.111-.262A.745.745,0,0,1,94.511,114Zm-55-77.282-.057.047,0,0c-.049.04-.1.082-.146.126a3.565,3.565,0,0,0-.893,1.318l.017,0,.027,0A10.656,10.656,0,0,1,39.515,36.718ZM92.835,4.055h0a6.089,6.089,0,0,1,.392.738c.221-.1.433-.18.649-.253a4.556,4.556,0,0,0-1.042-.484Z" transform="translate(-23.19 -8.877)"/>
  </g>
  <g id="FACE" transform="translate(112.183 77.354)">
    <path id="_Ink-3" data-name="ðŸ– Ink" d="M22.824,40.539a8.045,8.045,0,0,1-3.052-.61,8.621,8.621,0,0,1-1.992-1.145,8.487,8.487,0,0,1-1.622-1.636,1.676,1.676,0,0,1-.338-1.3,1.871,1.871,0,0,1,.728-1.172,1.793,1.793,0,0,1,1.067-.372,1.548,1.548,0,0,1,.238.018,1.648,1.648,0,0,1,1.1.73l.065.09A5.7,5.7,0,0,0,21.108,36.9a4.735,4.735,0,0,0,2.069.483,4.583,4.583,0,0,0,.513-.029,5.388,5.388,0,0,0,2.278-.8,10.668,10.668,0,0,0,1.93-1.611c.138-.141.284-.294.474-.5a.751.751,0,0,1,.394-.3.806.806,0,0,1,.256-.041.871.871,0,0,1,.714.373.8.8,0,0,1,.135.524,4.812,4.812,0,0,1-.57,1.864,6.221,6.221,0,0,1-1.22,1.567,7.841,7.841,0,0,1-1.847,1.288,7.69,7.69,0,0,1-2.05.7A7.548,7.548,0,0,1,22.824,40.539Zm2.148-12.17h0a7.373,7.373,0,0,1-2.63-.53,13.281,13.281,0,0,1-3.093-1.756,1.189,1.189,0,0,1-.432-.687,1.423,1.423,0,0,1,.061-.771,1.754,1.754,0,0,1,.521-.753,1.267,1.267,0,0,1,.812-.317,1.151,1.151,0,0,1,.628.193l.209.161,0,0a16.744,16.744,0,0,0,1.936,1.347,4.768,4.768,0,0,0,2.321.74,2.505,2.505,0,0,0,.981-.193,2.74,2.74,0,0,0,.913-.647,2.8,2.8,0,0,0,.531-2.255,4.26,4.26,0,0,0-1.13-2,8.241,8.241,0,0,0-1.711-1.381.531.531,0,0,1-.144-.61.8.8,0,0,1,.264-.38.809.809,0,0,1,.505-.167,1.076,1.076,0,0,1,.181.016,5.736,5.736,0,0,1,2.018.729,4.577,4.577,0,0,1,1.357,1.252,4.974,4.974,0,0,1,.866,3.322,5.475,5.475,0,0,1-.444,1.744,5.087,5.087,0,0,1-1,1.5A4.779,4.779,0,0,1,24.972,28.369ZM7.859,16.485a1.724,1.724,0,0,1-1.119-.439,1.744,1.744,0,0,1-.587-1.128,12.706,12.706,0,0,1,.067-3.308c.04-.321.081-.654.11-1.012a1.98,1.98,0,0,1,.75-1.415,2.31,2.31,0,0,1,1.421-.5,1.751,1.751,0,0,1,1.075.338,1.594,1.594,0,0,1,.594,1.057,8.877,8.877,0,0,1-.926,5.469,1.754,1.754,0,0,1-.619.716A1.427,1.427,0,0,1,7.859,16.485Zm25.119-.75a1.508,1.508,0,0,1-1.183-.507A4.624,4.624,0,0,1,31.074,14a5.342,5.342,0,0,1-.368-1.477,3.131,3.131,0,0,1,.853-2.687,1.772,1.772,0,0,1,.137-.208,1.933,1.933,0,0,1,1.487-.856,1.611,1.611,0,0,1,.452.067,2.175,2.175,0,0,1,1.453,1.268,4.486,4.486,0,0,1,.18,2.453,8.214,8.214,0,0,1-.744,2.314,1.5,1.5,0,0,1-.643.635A1.947,1.947,0,0,1,32.979,15.735ZM.278,7.854a.274.274,0,0,1-.229-.14.306.306,0,0,1-.018-.3A10.425,10.425,0,0,1,2.368,4.454,14.446,14.446,0,0,1,5.5,2.317a13.445,13.445,0,0,1,3.714-1.3l.4-.069A9.66,9.66,0,0,1,11.226.776a2.5,2.5,0,0,1,2,.746,1.7,1.7,0,0,1,.4,1.208,1.106,1.106,0,0,1-.4.789,3.08,3.08,0,0,1-2.112.62c-.166,0-.338,0-.5-.008H10.6c-.16,0-.341-.009-.521-.009s-.314,0-.452.012a14.274,14.274,0,0,0-3.143.536A21.357,21.357,0,0,0,.424,7.806.26.26,0,0,1,.278,7.854Zm38.247-1.6h0l-.167-.042A9.458,9.458,0,0,1,36.524,5.5l-.6-.293A16.537,16.537,0,0,0,33.8,4.3a25.089,25.089,0,0,0-4.845-1.07,1.979,1.979,0,0,1-.972-.369,1.457,1.457,0,0,1-.544-.828A1.482,1.482,0,0,1,27.609.786a1.581,1.581,0,0,1,.767-.661A1.725,1.725,0,0,1,29.03,0a1.926,1.926,0,0,1,.377.038l.3.062a21.676,21.676,0,0,1,5.232,1.7,10.579,10.579,0,0,1,2.3,1.514,6.719,6.719,0,0,1,1.627,2.1c.057.439,0,.548-.055.622L38.8,6.06l-.015.02a.421.421,0,0,1-.26.173Z" transform="translate(11.197 10.99)"/>
  </g>
</svg>
