<svg id="peep-64" xmlns="http://www.w3.org/2000/svg" width="240" height="324" viewBox="0 0 240 324">
  <g id="BODY" transform="translate(31.056 135.053)">
    <path id="_Skin" data-name="âœ‹ Skin" d="M76.936,48.1C75.1,40.953,73.4,37.924,70.13,35.441c-3.06-2.322-7.526-4.273-14.043-5.7-6.788-1.187-6.98-4.716-8.682-10.387a2.459,2.459,0,0,0-4.019-.93,4.878,4.878,0,0,0-.467-.443c.145-.813-1.039-3.144-1-3.922.413-8.119-2.242-12.2-8.869-13.711C31.609.021,21.821-.173,20.415.215,14.273,1.914,8.225,7.307,9.151,13.8a12.022,12.022,0,0,1-6.79,4.871C-2.272,19.264.055,84.909,8.1,124.238c3.452,16.874,86-11.846,82.267-20.3.529-1.549-.435-3.252,0-4.851.315-1.158,1.121-1.637,1.527-2.783.571-1.613-.05-3.777-.693-5.423-.263-.82.485-1.7.693-2.541.986-3.949-1.272-3.6-2.9-6.24.024-.008.448-1.893.446-1.883a7.611,7.611,0,0,0-.92-4.192,1.978,1.978,0,0,0-1.941-1.147,71.442,71.442,0,0,1,2.861-7.492c1.9-4.552,3.7-9.313,6.43-13.433,1.116-1.687.215-3.239-1.592-3.354A110.369,110.369,0,0,1,76.936,48.1Z" transform="translate(73.086 -6.552)" fill="#d08b5b"/>
    <path id="_Device" data-name="ðŸ“± Device" d="M13.348,0,0,22.6a19.273,19.273,0,0,1,4.448.932c1.281.616,7.165,8.1,7.165,8.1l.935,4.12-2.215,3.322.864,2.086a6.793,6.793,0,0,1,2.151-2.51c1.535-1.1,4.919-2.9,4.919-2.9s-1.125-.6-1.125-1.308-.991-3.721,1.125-4.859,13.046-3.8,13.046-3.8L42.39,2.4Z" transform="translate(127.546 42.096)" fill="#ec7495"/>
    <path id="_Top" data-name="ðŸ‘• Top" d="M73.418,0,115.8,7.441l19.483,9.172,3.18,2.451-18.85,33.352L90.507,57.727,83.092,76.993l1.514,21.717,47.351-5.647,20.425-2.428,4.8,19.389L156.315,118l-1.262,4.045L104.419,135.72s-25.784-2.5-30.354-2.5-38.082,3.329-38.082,3.329l-7.754-.829S11.075,117.634,8.414,111.2,0,65.635,0,65.635l.634-6.012L15.455,21.471a48.914,48.914,0,0,0,4.474-4.859C22.424,13.551,73.418,0,73.418,0Z" transform="translate(7.933 12.277)" fill="#9ddadb"/>
    <path id="_Ink" data-name="ðŸ– Ink" d="M128.4,148.694h0a46.955,46.955,0,0,1-4.837-.257c-1.814-.188-3.65-.434-5.427-.671h0c-2.054-.274-4.178-.558-6.278-.755-2.161-.2-4.417-.365-6.9-.494.162-.324.33-.649.493-.964v0c.126-.243.255-.493.381-.741a.822.822,0,0,0-.025-.828.958.958,0,0,0-.782-.454.716.716,0,0,0-.652.428c-.135.266-.274.535-.409.8-.283.547-.575,1.112-.842,1.679-3.234-.137-6.655-.2-10.459-.2-5.577,0-11.244.146-16.724.286-2.28.059-4.638.119-6.972.169-2.264.048-4.565.089-6.791.129H62.14c-4.947.089-10.063.181-15.1.348-2.088.069-4.214.154-6.271.237h-.017c-1.322.053-2.689.108-4.034.158-.2-.626-.415-1.257-.626-1.867-.085-.247-.182-.528-.274-.8a.829.829,0,0,0-.816-.583.908.908,0,0,0-.735.351.72.72,0,0,0-.078.681c.093.275.189.553.282.821v0c.164.476.334.968.493,1.454-3.6.122-6.37.176-8.981.176h-.655a.822.822,0,0,1-.258-.04l-.016.1-.006.04-.009.057a.025.025,0,0,1-.026.021.033.033,0,0,1-.021-.008.028.028,0,0,1-.01-.022c0-.072,0-.146,0-.222a.938.938,0,0,1-.539-.607,6.372,6.372,0,0,1-.1-2.64,3.4,3.4,0,0,0-.87-1.184,7.61,7.61,0,0,0-2.489-1.189,12.3,12.3,0,0,1-1.637-.643,19.415,19.415,0,0,1-2.877-1.811,24.281,24.281,0,0,1-4.859-4.975,35.106,35.106,0,0,1-2.136-3.228c-.629-1.072-1.235-2.228-1.8-3.434a59.529,59.529,0,0,1-2.793-7.231c-.779-2.435-1.475-5-2.07-7.614-.571-2.512-1.062-5.138-1.46-7.806A127.886,127.886,0,0,1,.029,89.578a105.905,105.905,0,0,1,.51-13.146,35.3,35.3,0,0,1,3.136-1.806.719.719,0,0,0,.4-.845.973.973,0,0,0-.3-.5.834.834,0,0,0-.554-.217.874.874,0,0,0-.4.1c-.666.339-1.335.711-2.045,1.137A104.46,104.46,0,0,1,3.671,59.529,101,101,0,0,1,8.7,45.336c1.2-2.728,2.339-5.074,3.47-7.172a58.308,58.308,0,0,1,4.238-6.8,14.9,14.9,0,0,1,3.41.615.89.89,0,0,0,.266.043.8.8,0,0,0,.761-.725.9.9,0,0,0-.09-.562.816.816,0,0,0-.488-.387,15.039,15.039,0,0,0-2.655-.563,38.731,38.731,0,0,1,2.949-3.294,34.863,34.863,0,0,1,3.68-3.158,40.061,40.061,0,0,1,4.046-2.643,47.5,47.5,0,0,1,4.324-2.179c1.425-.631,2.943-1.226,4.514-1.768a123.145,123.145,0,0,1,19.7-4.537c.62-.105,1.24-.2,1.84-.3a34.421,34.421,0,0,0,7.616-1.787,12.958,12.958,0,0,0,3.279-1.9A12.55,12.55,0,0,0,72.317,5.1a.9.9,0,0,1,.737-.411.693.693,0,0,1,.389.115c.134.089.312.208.494.332l.014-.04.011-.032a20.612,20.612,0,0,0,.652-2.913C74.727,1.5,74.843.829,75,.168A.209.209,0,0,1,75.215,0a.266.266,0,0,1,.247.168,7.365,7.365,0,0,1,.4,2.844,12.015,12.015,0,0,1-.552,3.08l.761.543a50.313,50.313,0,0,0,4.546,3.01c2.772,1.559,7.531,2.389,10.681,2.938l.144.025a46.843,46.843,0,0,0,7.971.752c.545,0,1.087-.013,1.612-.038a13.582,13.582,0,0,0,3.638-.617,7.452,7.452,0,0,0,1.749-.841c.116-.078.227-.157.338-.243a23.554,23.554,0,0,1-.171-4,8.258,8.258,0,0,1,.835-4,.052.052,0,0,1,.046-.029.071.071,0,0,1,.062.043,14.6,14.6,0,0,1,.829,4.424c.026.31.053.629.083.944a4.3,4.3,0,0,1,1.242-.185,4.147,4.147,0,0,1,3.394,1.764,7.906,7.906,0,0,1,1.008,2.254,13.843,13.843,0,0,0,.488,1.341,3.7,3.7,0,0,0,.352.544,2.359,2.359,0,0,1,.486.874c.088.076.13.122.124.138s-.006.006-.014.006a.552.552,0,0,1-.161-.058c-.09-.03-.146-.047-.165-.051.023.01.073.027.148.053l.023.008.17.085.012.006a3.529,3.529,0,0,1,.828.512,1.665,1.665,0,0,1,.485.757,2.24,2.24,0,0,1,.094.911c.274.13.551.266.818.4.562.276,1.143.562,1.719.8l.21.086c1.477.6,3,1.227,4.484,1.912,3.307,1.527,6.6,3.223,9.784,5.04l.493.281c.685.39,1.394.793,2.084,1.213a18.66,18.66,0,0,0-2.1,1.779.762.762,0,0,0-.192.863.923.923,0,0,0,.823.578.8.8,0,0,0,.563-.245,17.09,17.09,0,0,1,2.414-2,13.443,13.443,0,0,1,3.71,3.614,19.816,19.816,0,0,1,1.8,3.845l.008.021.125.326a19.8,19.8,0,0,0,2.146,4.155l.011.016a.66.66,0,0,1,.042.07l.183.01h.01l.192.011c2.757.158,5.549.371,8.3.634.429.041.876.081,1.27.116a54.855,54.855,0,0,1,6.786.9.761.761,0,0,1,.477.4.636.636,0,0,1,.049.53c-.089.219-.193.473-.3.729-2.849,6.939-6.157,14.068-10.111,21.795a2.455,2.455,0,0,1,1.143.3,1.777,1.777,0,0,1,.767,1,13.37,13.37,0,0,1,.694,2.825,6.543,6.543,0,0,1-.236,2.862.084.084,0,0,1-.08.063.091.091,0,0,1-.045-.012,3.841,3.841,0,0,0,1.056,2.779,7.65,7.65,0,0,0,.862.724,5.377,5.377,0,0,1,1.164,1.081c.889,1.23.281,2.218-.364,3.263-.122.2-.248.4-.363.609a1.013,1.013,0,0,0-.1.986,2.517,2.517,0,0,0,.641.721,4.4,4.4,0,0,1,.577.578,2.832,2.832,0,0,1,.527,1.129A3.645,3.645,0,0,1,159.035,86a8.225,8.225,0,0,1-1,2.733c-.125.239-.249.49-.37.734a11.768,11.768,0,0,1-1.424,2.386.5.5,0,0,1-.085.08.086.086,0,0,1,.021,0h0c.113,0,.259.182.3.277.022.049.044.1.065.148s.045.1.066.152l-.006-.017-.006-.017a.124.124,0,0,1,.015-.118.22.22,0,0,1,.169-.087h0c.13,0,.343.244.384.353a50.51,50.51,0,0,1,2,5.36l.226.875.045.175.407,1.575c.3,1.289.484,2.609.661,3.886l0,.015c.143.9.245,1.8.3,2.661.143,1.305.228,2.635.253,3.952a49.385,49.385,0,0,1-.553,6.378,25.734,25.734,0,0,1-.427,2.6,32.056,32.056,0,0,1-.906,3.859c-.155.64-.314,1.3-.454,1.882l-.119.493-.013.035-.24.649a12.184,12.184,0,0,1-.526,1.484c-.07.214-.15.439-.243.688a20.079,20.079,0,0,0-5.389-.986h-.017a.784.784,0,0,0-.8.824.9.9,0,0,0,.2.589.791.791,0,0,0,.615.277,17.8,17.8,0,0,1,4.715.848c-.242.487-.505.959-.783,1.405l-.028.055c-.76,1.494-1.546,3.04-2.448,4.5a27.631,27.631,0,0,1-1.713,2.458,18.694,18.694,0,0,1-3.647,3.663,9.68,9.68,0,0,1-2.172,1.378,16.233,16.233,0,0,1-2.77.922,15.328,15.328,0,0,1-1.61.3c-.289.036-.585.058-.871.079-.353.026-.719.053-1.077.107a8.157,8.157,0,0,0-1.722.427,4.179,4.179,0,0,0-.786.4,5.754,5.754,0,0,0-.589.6.027.027,0,0,1-.014.013,1.565,1.565,0,0,1-1.3,1.08A42.011,42.011,0,0,1,128.4,148.694ZM59.954,135.746a.875.875,0,0,0-.222.03.92.92,0,0,0-.551.474.681.681,0,0,0-.04.566,11.659,11.659,0,0,0,2.408,3.782.779.779,0,0,0,.563.254.918.918,0,0,0,.809-.569.782.782,0,0,0-.177-.881,9.505,9.505,0,0,1-1.973-3.036A.9.9,0,0,0,59.954,135.746Zm11.489-18.523a.834.834,0,0,0-.2.025,4.673,4.673,0,0,1-.536.093,2.906,2.906,0,0,0-.8.186c-.256.106-.51.229-.756.349l-.3.146-2.44,1.157c-1.538.731-3.052,1.453-4.5,2.147-2.764,1.324-5.55,2.721-8.244,4.072l0,0-1.24.621c-2.8,1.4-6.054,3.034-9.272,4.663-1.639.83-3.246,1.677-4.6,2.4l-.419.221c-.584.308-1.188.627-1.774.957-.157.088-.318.173-.488.262a5.5,5.5,0,0,0-1.617,1.105.09.09,0,0,0-.012.094.067.067,0,0,0,.063.041h.006a9.452,9.452,0,0,0,3.294-1.2c.363-.184.707-.359,1.035-.507l.991-.447,0,0c1.167-.527,2.375-1.071,3.555-1.622,3.732-1.744,6.792-3.16,9.633-4.458,1.289-.589,2.6-1.18,3.865-1.752,1.842-.831,3.746-1.691,5.611-2.554,1.56-.722,3.148-1.454,4.721-2.177L69.289,120l.374-.169.016-.007c.245-.11.5-.223.744-.342a4.377,4.377,0,0,0,.906-.612c.137-.112.279-.228.449-.35a.742.742,0,0,0,.279-.837A.632.632,0,0,0,71.443,117.223Zm53.773,14.623a.92.92,0,0,0-.813.571.777.777,0,0,0,.181.876c.233.236.459.486.678.727a10.364,10.364,0,0,0,1.684,1.6.691.691,0,0,0,.4.12.9.9,0,0,0,.758-.424.8.8,0,0,0,.081-.638.977.977,0,0,0-.385-.519,7.91,7.91,0,0,1-1.37-1.342c-.21-.241-.426-.491-.649-.717A.784.784,0,0,0,125.216,131.846ZM88.4,126.489a.785.785,0,0,0-.563.252,29.583,29.583,0,0,0-2.566,3.093.681.681,0,0,0-.109.547.946.946,0,0,0,.412.61.782.782,0,0,0,.406.117.961.961,0,0,0,.751-.42,26.537,26.537,0,0,1,2.3-2.751.776.776,0,0,0,.181-.876A.919.919,0,0,0,88.4,126.489Zm-68.391-6.305a.884.884,0,0,0-.391.095c-.527.258-1.073.5-1.6.726a24.667,24.667,0,0,0-2.537,1.222.769.769,0,0,0-.379.9.886.886,0,0,0,.81.676.835.835,0,0,0,.421-.121,24.649,24.649,0,0,1,2.537-1.222c.528-.23,1.075-.468,1.6-.725a.705.705,0,0,0,.41-.828A.935.935,0,0,0,20.006,120.184Zm128.568-13.392a.086.086,0,0,0-.062.026.07.07,0,0,0-.02.053,7.4,7.4,0,0,0,.49,1.965c.089.257.182.523.257.779.381,1.287.648,2.343.838,3.324a24.81,24.81,0,0,1,.325,2.83,18.516,18.516,0,0,0,.544,3.74.7.7,0,0,0,.685.549.89.89,0,0,0,.8-.549,6.208,6.208,0,0,0,.438-1.741,8.844,8.844,0,0,0-.006-1.822,16.7,16.7,0,0,0-.818-3.551,16.156,16.156,0,0,0-1.41-3.177,12.706,12.706,0,0,0-.874-1.337,4.063,4.063,0,0,0-1.154-1.078A.078.078,0,0,0,148.574,106.792Zm-43.629,2.716a.886.886,0,0,0-.738.352.673.673,0,0,0-.041.66c.232.574.486,1.15.731,1.707s.5,1.129.729,1.7a.935.935,0,0,0,1.589.211.674.674,0,0,0,.041-.66c-.233-.575-.486-1.15-.731-1.707h0c-.244-.555-.5-1.128-.728-1.7A.887.887,0,0,0,104.945,109.508Zm22.217-.554a.9.9,0,0,0-.257.039,34.864,34.864,0,0,0-4.085,1.6c-.306.135-.652.288-.984.431a.72.72,0,0,0-.378.336.672.672,0,0,0-.048.438.975.975,0,0,0,.916.764.912.912,0,0,0,.363-.078c.275-.119.555-.242.825-.361l.015-.007a33.035,33.035,0,0,1,3.826-1.5.807.807,0,0,0,.582-.93.934.934,0,0,0-.247-.514A.721.721,0,0,0,127.161,108.954Zm-75.69-.723a.921.921,0,0,0-.818.574.77.77,0,0,0,.186.87l2.19,2.191a.79.79,0,0,0,.563.249.921.921,0,0,0,.818-.574.77.77,0,0,0-.186-.87l-2.19-2.191A.791.791,0,0,0,51.472,108.232ZM38.393,72.3a.19.19,0,0,0-.139.055.177.177,0,0,0-.044.135c.06,1.057.155,2.127.247,3.162h0c.122,1.376.248,2.8.295,4.208.077,2.327.068,4.765-.027,7.451-.077,2.194-.222,4.507-.456,7.279-.06.716-.159,1.465-.254,2.189h0a22.537,22.537,0,0,0-.288,4.8c-2.243.588-4.176,1.182-5.908,1.816-.362.133-.74.263-1.139.4a25.741,25.741,0,0,0-3.977,1.632,6.58,6.58,0,0,0-2.929,2.816.074.074,0,0,0,.006.071.072.072,0,0,0,.058.036.057.057,0,0,0,.045-.024,4.839,4.839,0,0,1,1.843-1.354,16.1,16.1,0,0,1,2.212-.753l.43-.124c1.679-.493,3.352-.932,5.207-1.413,3.49-.906,7.081-1.652,10.553-2.374h0l.39-.081,1.711-.354c3.043-.628,6.19-1.278,9.261-2.034l.475-.116.015,0c1.564-.383,3.181-.779,4.724-1.3A20.71,20.71,0,0,0,65.817,96.1a.707.707,0,0,0,.233-.767.461.461,0,0,0-.459-.345.652.652,0,0,0-.074,0,31.3,31.3,0,0,0-4.492.977l-.011,0c-.3.081-.614.165-.918.245-.755.2-1.519.409-2.258.613h0c-1.089.3-2.214.612-3.331.885-2.6.637-5.253,1.222-7.821,1.787h0c-1.211.267-2.462.542-3.691.82-1.4.316-2.549.586-3.616.847a16.583,16.583,0,0,0,.258-2.127c.015-.2.031-.406.049-.61.03-.337.06-.679.09-1.011l0-.034c.076-.849.154-1.726.223-2.59.23-2.871.358-5.384.391-7.683a58.9,58.9,0,0,0-.335-7.45c-.122-1.087-.279-2.371-.517-3.658a22.313,22.313,0,0,0-.937-3.565A.216.216,0,0,0,38.393,72.3Zm82.989-7.536c-1,0-2.01.087-2.984.171h-.007c-.271.023-.527.045-.781.065a42.391,42.391,0,0,0-6.564,1,9.032,9.032,0,0,0-2.507.985,8.338,8.338,0,0,0-2.067,1.722,24.129,24.129,0,0,0-2.59,3.843c-.107.184-.229.392-.346.591a28.851,28.851,0,0,1-3.741,5.019,26.5,26.5,0,0,1-4.712,4.006,1.448,1.448,0,0,1-.577.638.049.049,0,0,1,.008.013c-.084.036-.154.067-.22.1l-.01,0-.01,0-.4.176a61.559,61.559,0,0,0-6.6,3.22c-.011.091-.024.183-.037.273v0c-.023.163-.045.317-.058.468-.04.471-.093.95-.144,1.412s-.1.936-.143,1.405a48.719,48.719,0,0,0-.211,5.675,28.836,28.836,0,0,0,.784,5.89c.187.768.434,1.528.673,2.264l.048.147a21.92,21.92,0,0,1,4.255-2.382,17.154,17.154,0,0,1,4.747-1.52,11.788,11.788,0,0,1,1.721-.12,24.751,24.751,0,0,1,3.413.3l.342.049.018,0a17.977,17.977,0,0,0,2.547.245,6.09,6.09,0,0,0,1.848-.256,4.767,4.767,0,0,0,2.018-1.322,15.705,15.705,0,0,0,1.517-1.98,13.264,13.264,0,0,1,1.753-2.208,5.3,5.3,0,0,1,3.1-1.5,4.89,4.89,0,0,1,.514-.023c.136,0,.275,0,.41.007h.009c.139,0,.281.007.421.007a3.118,3.118,0,0,0,1.288-.219,2.746,2.746,0,0,0,1.485-1.854,1.112,1.112,0,0,1,.585-.685,3.2,3.2,0,0,1-1.011-.664c-.1-.085-.2-.174-.314-.262-.6-.478-1.2-.928-1.787-1.338-.371-.26-.755-.516-1.125-.763-.187-.124-.38-.253-.569-.381-.1-.066-.218-.164-.358-.279A2.673,2.673,0,0,0,113.757,86a.425.425,0,0,0-.087.009h-.012a.084.084,0,0,1-.067-.033.058.058,0,0,1-.007-.055c.084-.224.3-.338.635-.338a4.826,4.826,0,0,1,1.759.5,18.443,18.443,0,0,1,2.174,1.163,10.291,10.291,0,0,1,2.917,2.327.657.657,0,0,1-.135.767,1.616,1.616,0,0,0,.4.052,1.837,1.837,0,0,0,1.328-.649,3.237,3.237,0,0,0,.729-1.373,10.227,10.227,0,0,0-.135-4q-.027-.161-.052-.319a.205.205,0,0,1,.048-.168.2.2,0,0,1,.149-.073.158.158,0,0,1,.042.006l.046-.106c-1.023-.447-2.113-.8-3.166-1.146h0c-.468-.153-.953-.311-1.423-.474l-.863-.3-.071-.025-2.016-.7-.3-.1a3.465,3.465,0,0,1-1.733-.976.893.893,0,0,1-.161-.837.658.658,0,0,1,.5-.438,2.515,2.515,0,0,1,.56-.062,5.3,5.3,0,0,1,1.82.439c.15.055.306.112.462.166.823.28,1.65.563,2.449.837l.31.106c.428.146.867.289,1.291.427l.007,0a35.537,35.537,0,0,1,3.566,1.3,7.005,7.005,0,0,1,1.8,1.134,5.109,5.109,0,0,1,1.262,1.7c.055.123.112.293.177.489.2.6.474,1.432.974,1.544a.5.5,0,0,0,.11.013c.3,0,.535-.286.712-.849a7.049,7.049,0,0,0,.241-1.25,8.479,8.479,0,0,0-.121-2.621,9.706,9.706,0,0,0-.885-2.537,8.266,8.266,0,0,0-3.634-3.717,26.433,26.433,0,0,0-4.911-1.618l-.183-.047c-1.379-.357-2.845-.66-4.358-.9-.557-.092-1.163-.179-1.851-.266a.1.1,0,0,1-.1-.108.091.091,0,0,1,.1-.089c.529-.023,1.058-.035,1.572-.035.243,0,.488,0,.728.008a14.7,14.7,0,0,1,6.335-1.384c.039,0,.079,0,.119,0a3,3,0,0,1,1.565.52,7.114,7.114,0,0,1,1.41,1.2,7.747,7.747,0,0,1,1.556,2.3,10.135,10.135,0,0,1,3.862,5.449c.041.123.078.242.114.363a5.3,5.3,0,0,1,1.031-1.578,7.767,7.767,0,0,1,1.43-1.216,25.788,25.788,0,0,1,3.577-1.985,1.182,1.182,0,0,1-.3-.167,2.247,2.247,0,0,1-.615-1.625c-.008-.075-.016-.153-.026-.229a7.205,7.205,0,0,1,.042-2.5,3.84,3.84,0,0,1,.44-1.092,4.337,4.337,0,0,1,.708-.886,7.13,7.13,0,0,1,1.93-1.281,28.308,28.308,0,0,1,5.428-1.924,30.521,30.521,0,0,1,5.7-.832.926.926,0,0,1,.089-.215c1.911-3.428,3.791-7.06,5.589-10.8,1.694-3.52,3.372-7.251,4.987-11.09-1.332-.1-2.686-.264-4-.422h0c-.971-.118-1.975-.239-2.963-.334-2.62-.252-5.272-.458-7.88-.613-.54-.033-1.084-.063-1.611-.091l-.029,0c-1.774-.093-3.6-.167-5.427-.218l-.646-.019-.067,0c-.845-.025-1.718-.051-2.578-.051l-.413,0a2.705,2.705,0,0,0-.781.092,1.3,1.3,0,0,0-.635.437,2.446,2.446,0,0,0-.233.366,1.409,1.409,0,0,1-.47.577l-.061.035-.11.062-.054.054,0,0a1.143,1.143,0,0,0-.111.119,9.244,9.244,0,0,0-.674,1.021c-.591,1.018-1.134,2.09-1.659,3.126l-.007.015c-.391.772-.77,1.564-1.137,2.329-.519,1.085-1.056,2.207-1.633,3.284-1.008,1.879-1.945,3.526-2.865,5.036-.234.381-2.052,3.155-3.084,4.553a9.609,9.609,0,0,1,2.425.378c.171-.391.37-.775.562-1.146h0c.164-.317.334-.644.485-.974.113-.247.214-.513.311-.769a6.889,6.889,0,0,1,.654-1.4.457.457,0,0,1,.382-.218.466.466,0,0,1,.353.167.481.481,0,0,1,.1.4,6.178,6.178,0,0,1-1.039,2.127l-.007.01-.058.088a10.046,10.046,0,0,1-1.43,1.82c.03.009.059.02.085.03a5.861,5.861,0,0,1,2.119,1.484,20.249,20.249,0,0,1,1.68,2.08c.2.272.389.528.582.779l.153.2,0,0c.788,1.006,3.187,4.066,3.66,6.635a3.757,3.757,0,0,1-.017,1.435,2.967,2.967,0,0,1-.544,1.223,1.822,1.822,0,0,1-1.349.735h-.035a.406.406,0,0,1-.363-.193.911.911,0,0,1-.115-.481,2.569,2.569,0,0,1,.348-1.225,1.117,1.117,0,0,1,.866-.665c-.179,0-.183-.118-.189-.268a1.032,1.032,0,0,0-.02-.2,3.577,3.577,0,0,0-.191-.533c-.021-.05-.042-.1-.062-.152a16.492,16.492,0,0,0-.858-1.778A26.116,26.116,0,0,0,128.913,70c-.674-.925-1.394-1.819-2.134-2.729l-.1-.121a5.211,5.211,0,0,0-2.588-2.071,10.148,10.148,0,0,0-2.626-.31Zm29.052,22.595a.5.5,0,0,1,.387.162.6.6,0,0,1,.142.372.733.733,0,0,1-.138.465.629.629,0,0,1-.459.253l-.151.014h0c-3.1.292-6.3.595-9.43,1.042-1.707.245-3.222.5-4.631.767-.534.1-1.079.238-1.606.369-.261.065-.53.131-.8.194a.078.078,0,0,1-.011.07,5.991,5.991,0,0,0-.954,2.326,3.049,3.049,0,0,0,.047,1.239,2.25,2.25,0,0,0,.647,1.078,2.008,2.008,0,0,0,1.456.486,8.491,8.491,0,0,0,.9-.065l.07-.008c.946-.1,1.885-.233,2.844-.368,1.566-.221,3.193-.479,4.975-.788.829-.142,1.7-.3,2.58-.473a86.624,86.624,0,0,0,9.123-3.891,15.052,15.052,0,0,1,.876-1.639c.181-.308.368-.626.535-.939l.028-.052c.478-.9,1.133-2.14.718-3.166a2.8,2.8,0,0,0-.822-.993,2.882,2.882,0,0,1-.834-1,1.911,1.911,0,0,1-.133-.981,2.581,2.581,0,0,1,.327-.943,5.051,5.051,0,0,1,.5-.675,2.649,2.649,0,0,0,.761-1.419c.032-.72-.671-1.268-1.291-1.752a6.868,6.868,0,0,1-.574-.48,3.7,3.7,0,0,1-1.061-1.983,3.615,3.615,0,0,1,.324-2.217.105.105,0,0,1,.087-.059,21.212,21.212,0,0,0-.459-2.3,10.87,10.87,0,0,0-.8-2.162,1.2,1.2,0,0,0-1.242-.679c-.135,0-.273.007-.42.014h-.008c-.092,0-.188.009-.285.012-.743.025-1.441.072-2.134.144a30.176,30.176,0,0,0-4.6.843,28.073,28.073,0,0,0-4.4,1.564,7.2,7.2,0,0,0-1.764,1.046,2.8,2.8,0,0,0-.985,1.74,7,7,0,0,0,.061,2.04l.01.074c.027.2.061.442.14.48a.158.158,0,0,0,.063.009,5.386,5.386,0,0,0,.933-.212c.1-.03.187-.053.225-.061l.435-.094.034-.007c1.378-.3,2.8-.6,4.2-.909.407-.088.831-.2,1.241-.3h0a14.751,14.751,0,0,1,3.209-.567h.012a.631.631,0,0,1,.581.533.5.5,0,0,1-.288.592,20.439,20.439,0,0,1-4.384,1.122c-.61.11-1.24.223-1.831.353l-.52.114-.52.114c-.548.255-1.108.5-1.649.746a42.526,42.526,0,0,0-4.179,2.049l-.061.035a7.513,7.513,0,0,0-2.891,2.41,2.657,2.657,0,0,0-.331,1.052,2.2,2.2,0,0,0,.145,1.081,1.422,1.422,0,0,0,1.014.849,3,3,0,0,0,.681.073,4.833,4.833,0,0,0,.664-.049,13.769,13.769,0,0,0,1.819-.428c.346-.1.673-.191.974-.259l4.081-.926,1.618-.367,6.748-1.529a.642.642,0,0,1,.141-.016.538.538,0,0,1,.4.17.666.666,0,0,1,.176.379.549.549,0,0,1-.074.354.516.516,0,0,1-.333.222c-3.693.839-7.416,1.688-11.018,2.509-.464.105-.939.225-1.4.341h0a29.022,29.022,0,0,1-3.12.664l-.026.017a15.354,15.354,0,0,0-3.7,2.955c-.069.08-.142.17-.228.281a1.255,1.255,0,0,0-.267,1.256.97.97,0,0,0,.915.486c.034,0,.068,0,.1,0a5.043,5.043,0,0,0,1.259-.237c.131-.036.266-.074.4-.106,1.107-.277,2.246-.53,3.387-.75a130.55,130.55,0,0,1,13.123-1.649l.624-.057C150.39,87.363,150.412,87.362,150.434,87.362Zm-136.2.429a.941.941,0,0,0-.834.585.746.746,0,0,0,.2.848,10.91,10.91,0,0,0,3.678,2.029l.007,0,.338.134a.833.833,0,0,0,.306.063.739.739,0,0,0,.691-.655.9.9,0,0,0-.548-1.038l-.4-.155A8.5,8.5,0,0,1,14.8,88.029.811.811,0,0,0,14.235,87.791Zm117.6-3.38a8.688,8.688,0,0,1-.074,1.6,8.748,8.748,0,0,1,1.458-.852A2.548,2.548,0,0,1,131.839,84.41ZM72.59,78.772a.779.779,0,0,0-.794.818.908.908,0,0,0,.2.592.8.8,0,0,0,.615.281,9.561,9.561,0,0,1,2.134.376h0l.317.08a.933.933,0,0,0,.225.029.853.853,0,0,0,.819-.786.829.829,0,0,0-.1-.531.775.775,0,0,0-.49-.342l-.151-.038-.041-.01a12.345,12.345,0,0,0-2.71-.469ZM49.039,65.645a.935.935,0,0,0-.871.726.706.706,0,0,0,.41.829,15.488,15.488,0,0,0,3.609,1.3.952.952,0,0,0,.2.021.889.889,0,0,0,.854-.823.79.79,0,0,0-.112-.513.751.751,0,0,0-.49-.316A13.631,13.631,0,0,1,49.43,65.74.882.882,0,0,0,49.039,65.645Zm29.62-10.466a.775.775,0,0,0-.778.6,38.106,38.106,0,0,0-.974,4.87.873.873,0,0,0,.206.717,1.013,1.013,0,0,0,.744.345.656.656,0,0,0,.681-.613,38.079,38.079,0,0,1,.974-4.87.776.776,0,0,0-.116-.7A.935.935,0,0,0,78.659,55.179ZM23.046,57.556a.832.832,0,0,0-.308.064,28.3,28.3,0,0,0-3.852,1.79.8.8,0,0,0-.362.416.815.815,0,0,0-.014.494.97.97,0,0,0,.294.472.772.772,0,0,0,.512.2.831.831,0,0,0,.423-.123,25.507,25.507,0,0,1,3.449-1.619.908.908,0,0,0,.546-1.044A.736.736,0,0,0,23.046,57.556Zm85.749-14.1a.71.71,0,0,0-.649.43,13.455,13.455,0,0,0-.748,1.738,6.312,6.312,0,0,0-.341,1.854.771.771,0,0,0,.208.573.86.86,0,0,0,.617.243.908.908,0,0,0,.586-.2.8.8,0,0,0,.279-.612,6.489,6.489,0,0,1,.858-2.739.828.828,0,0,0-.03-.831A.959.959,0,0,0,108.795,43.458ZM54.376,40.786a.918.918,0,0,0-.242.034c-1.041.286-2.118.5-3.159.7-.8.158-1.631.32-2.439.516a.769.769,0,0,0-.49.336.822.822,0,0,0-.106.528.857.857,0,0,0,.826.793.938.938,0,0,0,.22-.027c.809-.2,1.638-.359,2.44-.516,1.041-.2,2.117-.416,3.158-.7a.787.787,0,0,0,.589-.9.944.944,0,0,0-.25-.529A.744.744,0,0,0,54.376,40.786Zm-33.2-2.462a.742.742,0,0,0-.694.658.9.9,0,0,0,.549,1.034c.561.22,1.141.417,1.7.608h0c.562.191,1.142.388,1.705.609a.837.837,0,0,0,.3.062.742.742,0,0,0,.694-.658.9.9,0,0,0-.549-1.035c-.561-.22-1.141-.417-1.7-.608s-1.143-.389-1.705-.609A.836.836,0,0,0,21.179,38.324Zm52.649-6.055h0a.778.778,0,0,0-.612.264.889.889,0,0,0-.2.581.8.8,0,0,0,.816.845,18.8,18.8,0,0,1,3.426.214.965.965,0,0,0,.175.016.833.833,0,0,0,.616-.268,1,1,0,0,0,.265-.585.7.7,0,0,0-.607-.794,20.932,20.932,0,0,0-3.875-.274Zm45.525-9.524a.788.788,0,0,0-.439.144l-2.19,1.461a.844.844,0,0,0-.348.453.886.886,0,0,0,0,.519.839.839,0,0,0,.758.633.787.787,0,0,0,.439-.144l.438-.292,1.753-1.169a.844.844,0,0,0,.348-.453.886.886,0,0,0,0-.519A.839.839,0,0,0,119.353,22.744Zm-76.5-2.39a.976.976,0,0,0-.161.014,19.988,19.988,0,0,0-3.894.974.9.9,0,0,0-.551,1.03.744.744,0,0,0,.7.661.842.842,0,0,0,.3-.061A19.52,19.52,0,0,1,43.144,22a.684.684,0,0,0,.608-.775,1.006,1.006,0,0,0-.267-.6A.849.849,0,0,0,42.856,20.354Zm40.977-2.942a.9.9,0,0,0-.756.423.86.86,0,0,0,.3,1.157,12.6,12.6,0,0,1,1.746,1.542l.03.03a.791.791,0,0,0,.563.249.921.921,0,0,0,.818-.574.77.77,0,0,0-.186-.87,14.863,14.863,0,0,0-2.118-1.837A.705.705,0,0,0,83.833,17.413Z" transform="translate(7.395 1.479)"/>
  </g>
  <g id="HEAD" transform="translate(78.592 38.043)">
    <path id="_Skin-2" data-name="âœ‹ Skin" d="M97.794,18.908c-.468-1.185-1.3-2.674-2.68-2.733-1.071-3.281-3.732-6.623-7.435-6.534C76.811-1.5,63.129-.975,48.825,1.383c-7.547,1.4-15.209,4.151-20.838,9.573-6.741,6.383-9.366,17.521-4.087,25.593C19.338,39,19.249,44.816,21.2,49.014c-2.345,1.626-2.488,5.572.153,6.812a2.41,2.41,0,0,0,.227,1.685A22.287,22.287,0,0,1,17.157,60.1a2.087,2.087,0,0,0-1.131,1.372C11.4,64.519-.136,71.955,0,77.873-.066,80.96,2.218,82.992,4.994,83.8c-1.652,3.31-2.906,7.177-1.324,10.748.437,1.079,3.712,4.25,3.876,4.308.288.248,4.986-1.914,7.269-3.017a4.555,4.555,0,0,0,6.177,3.41c2.517-.761,4.064-2.9,5.652-4.84,2.107,4.608,8.307,4.661,12.314,2.674a15.8,15.8,0,0,0,7.858-8.4,43.12,43.12,0,0,0,26.35,3.542,2.562,2.562,0,0,0,2.926,1.286C80.766,92.1,85.934,92.024,89.9,88.8c8.26-5.943,8.955-16.9,8.379-26.241-.511-9.313-.064-18.7-1.752-27.915a53.162,53.162,0,0,1,3.08-7.658C100.829,24.311,100.8,20.339,97.794,18.908Z" transform="translate(-11.806 11.624)" fill="#d08b5b"/>
    <path id="_Hair" data-name="ðŸ’ˆ Hair" d="M58.823,0h.321q.8.005,1.589.031A58.319,58.319,0,0,1,69.72,1.11l.5.1c.816.16,1.547.321,2.712.594l2.313.547c1.178.275,2.045.466,2.845.619l.1.02S84.358,5.947,86.349,7.9l.2.2.085.085L87.5,8.2l.008.11h.007a4.395,4.395,0,0,1,2.36,1.275l.077.075.074.075A12.446,12.446,0,0,1,91.657,11.9l.14.222.252.4.2.321q.2.315.382.624l.12.205.087.151,2.235,1.307a3.824,3.824,0,0,1,.883.724l.073.081.071.083.609.726-.123.128.059.078.106.146.1.148.1.15.043.066.066.142.032.071.025.058.076.039.155.281a10.314,10.314,0,0,1,1.269,4.813,9.62,9.62,0,0,1-.467,3.266,7.271,7.271,0,0,1-1.1,2.038l-.434.6-.089.123-.106.15-.049.071c-.706,1.025-6.74,2.966-10.449,3.059l-.112,0h-.143q-.531,0-1.026-.039a19.126,19.126,0,0,1-4.31-.913l-.322-.1-1.707-.575-.129-.042-.156-.049a5.512,5.512,0,0,0-.835-.206l-.038,0,0,.071v.121a1.886,1.886,0,0,1-1.207,1.728,6.621,6.621,0,0,1-1.841.524l-.122.019a41.128,41.128,0,0,1-5.218.332q-.142,0-.286,0a6.916,6.916,0,0,1-1.733-.34l-.369-.106-.2-.055a3.712,3.712,0,0,0-.773-.151l-.057,0h-.056a.864.864,0,0,0-.57.179l-.085.068-1.146.963c-.149.125-.283.235-.381.313l-.04.032a8.137,8.137,0,0,1-4.84,2.01l-.118,0h-.123q-.135,0-.27,0A6.328,6.328,0,0,1,55.14,35.1l-.219-.112-.153-.08-.248-.132-.787-.422-.4-.211a5.543,5.543,0,0,0-.929-.416l-.029-.008-.017.016A6.655,6.655,0,0,0,51.2,35.369l-.058.108-.084.161-.547,1.092-.1.2a7.067,7.067,0,0,1-1.148,1.735A3.311,3.311,0,0,1,47,39.742l-.091,0-.108,0a4.915,4.915,0,0,1-1.369-.2l-.114-.033-.111-.034a4,4,0,0,0-2.8.4,2.549,2.549,0,0,0-1.52,2.371,11.294,11.294,0,0,0,.174,1.659l.029.164a25.3,25.3,0,0,0,.6,2.463l.61,2.063.069.241.069.248c.1.361.178.675.243.971a4.987,4.987,0,0,1,.041,2.706c-1.1,3.193-3.01,4.889-5.185,4.96l-.075,0h-.093c-1.67-.018-3.184-1.109-3.165-2.523a1.161,1.161,0,0,1,.079-.411l.022-.053.011-.022-.017-.042a3.875,3.875,0,0,0-3.095-2.308l-.079-.009-.078-.008c-.077-.007-.153-.011-.225-.014l-.071,0h-.085c-1.858,0-3.7,1.243-5.143,3.271a11.255,11.255,0,0,0-.833,1.373l-.083.164-.4.825-.272.8c-1.5,4.392-.739,8.987,2.182,11.363l.089.071a6.96,6.96,0,0,0,3.611,1.465c.152.016.305.025.452.029l.109,0h.125a4.922,4.922,0,0,0,1.212-.159,1.645,1.645,0,0,0,.658-.307,1,1,0,0,0,.1-.093l.022-.027L32.5,71.1l2,.3a19.038,19.038,0,0,0,2.916,6.968l.1.161.175.277.178.277a30.783,30.783,0,0,0,6.273,7.2l.161.13.216.171.2.155c.385.3.705.532,1.026.74l.08.051.757.481-.351.826a17.728,17.728,0,0,1-3.346,5.173l-.132.139-.969,1-.745-.951a.078.078,0,0,0-.042-.02l-.014,0h-.018l-.012,0-.012.006a4.712,4.712,0,0,0-1.3.989l-.064.066-.074.078-.1.107A8.015,8.015,0,0,1,33.9,97.872l-.133,0h-.134l-.144,0a8,8,0,0,1-6.9-4.756c-.052-.11-.1-.146-.187-.154h-.056a.918.918,0,0,0-.631.3L25.7,93.3l-.5.67-.191.253c-1.775,2.336-3.233,3.614-5.19,4a3.272,3.272,0,0,1-.49.057l-.105,0h-.061a5.416,5.416,0,0,1-2.568-.673,2.681,2.681,0,0,1-1.54-2.531l.006-.07.014-.116c.065-.579-.4-.894-.751-.61l-.024.02-.029.027a14.316,14.316,0,0,1-4.943,3.072l-.16.056-.237.081a8.96,8.96,0,0,1-2.789.592,2.215,2.215,0,0,1-1.781-.761,3.433,3.433,0,0,1-.652-1.267l-.03-.093L3.61,95.8l-.041-.139a12.929,12.929,0,0,1-.124-6.007,32.155,32.155,0,0,1,1.62-5.41l.16-.425.33-.868c.033-.087-.165-.391-.287-.425l-.014,0-.112.012c-.078.007-.157.013-.238.016l-.123,0H4.7C2.025,82.524-.016,79.9,0,77.112.023,74.5,1.331,72.262,3.829,69.6l.217-.229.235-.244.232-.238a52.363,52.363,0,0,1,6.851-5.939l.2-.14.218-.154c.8-.56,1.569-1.067,2.64-1.734l.63-.39L17.6,57.511l.181-.1.032-1.048,2.461.051a4.941,4.941,0,0,1-1.562-1.21,3.379,3.379,0,0,1,.477-5.1l.06-.039.716-.443.586.515a3.829,3.829,0,0,0,1.616.884l.089.02.442.094.086.14.05-.072a.075.075,0,0,0,0-.021l0-.01-.009-.014-.056-.069-.061-.074a11.625,11.625,0,0,0-.817-.843L21.6,49.9l-.219-.213a8.25,8.25,0,0,1-1.2-1.4,7.318,7.318,0,0,1-1.284-3.958,7.6,7.6,0,0,1,4.4-6.846c.093-.043.161-.353.05-.557a22,22,0,0,1-1.988-15.628A22.86,22.86,0,0,1,29.824,8.736C37.172,3.04,47.365.1,58.18,0l.328,0Z" transform="translate(-10.334 12.047)" fill="#ecdcbf"/>
    <path id="_Ink-2" data-name="ðŸ– Ink" d="M20.794,102.024h-.116a6.548,6.548,0,0,1-3.093-.837,5.614,5.614,0,0,1-2.174-2.15,16.268,16.268,0,0,1-4.567,2.212l-.146.043a10.326,10.326,0,0,1-2.863.478,4.718,4.718,0,0,1-2-.4,3.857,3.857,0,0,1-1.616-1.439,8.7,8.7,0,0,1-1.239-3.707,15.916,15.916,0,0,1,.054-3.94,28.787,28.787,0,0,1,1.746-6.388A6.287,6.287,0,0,1,1.9,83.984,7.684,7.684,0,0,1,.886,82.524a7.572,7.572,0,0,1-.646-1.64,8.043,8.043,0,0,1,.354-4.951A14.848,14.848,0,0,1,3.23,71.638a32.747,32.747,0,0,1,3.88-3.825c1.266-1.07,2.688-2.146,4.349-3.289a43.007,43.007,0,0,1,4.672-2.841,23.64,23.64,0,0,1,5.081-1.977.482.482,0,0,1,.118-.015.426.426,0,0,1,.4.316.433.433,0,0,1-.187.5c-.914.583-1.854,1.153-2.762,1.7-1.7,1.031-3.454,2.1-5.105,3.282-1.167.838-2.338,1.768-3.482,2.764-1.077.938-2.164,1.967-3.231,3.056l-.23.236A20.456,20.456,0,0,0,4.05,74.828a9.406,9.406,0,0,0-.926,1.906A6.523,6.523,0,0,0,2.757,78.8a4.807,4.807,0,0,0,.351,1.806,4.67,4.67,0,0,0,1,1.54A3.255,3.255,0,0,0,6.44,83.174a3.217,3.217,0,0,0,.389-.024,1,1,0,0,1,.121-.007,1.354,1.354,0,0,1,1.076.639A1.348,1.348,0,0,1,8.239,85l-.33.867a35.087,35.087,0,0,0-1.7,5.52,12,12,0,0,0,.076,5.658l.039.132a3.586,3.586,0,0,0,.47,1.1,1.162,1.162,0,0,0,1,.474H7.82a9.12,9.12,0,0,0,2.7-.616,12.572,12.572,0,0,0,2.514-1.2,13.984,13.984,0,0,0,2.208-1.7,1.54,1.54,0,0,1,1.054-.457,1.47,1.47,0,0,1,1.085.512,1.8,1.8,0,0,1,.435,1.4l-.006.046a1.369,1.369,0,0,0,.354,1.122,3.855,3.855,0,0,0,2.68,1.046,2.421,2.421,0,0,0,.466-.041c2.217-.44,3.816-2.6,5.1-4.336l.136-.183a1.965,1.965,0,0,1,1.506-.763,1.26,1.26,0,0,1,1.194.763,7.5,7.5,0,0,0,2.408,2.922A6.417,6.417,0,0,0,35.221,98.5l.182,0a6.633,6.633,0,0,0,1.9-.28,7.215,7.215,0,0,0,1.754-.8,6.83,6.83,0,0,0,1.283-1.045l.1-.1a5.918,5.918,0,0,1,1.7-1.331,1.139,1.139,0,0,1,1.346.195,1.041,1.041,0,0,1,.3.755A3.507,3.507,0,0,1,42.7,98.541a10.238,10.238,0,0,1-4.583,2.754,9.527,9.527,0,0,1-2.6.371c-.1,0-.194,0-.289,0a9.6,9.6,0,0,1-2.14-.318,10.089,10.089,0,0,1-2.012-.774,10.257,10.257,0,0,1-3.322-2.713,14.756,14.756,0,0,1-3.068,2.9,7.9,7.9,0,0,1-1.83.924A6.342,6.342,0,0,1,20.794,102.024Zm52.825-5.01a37.762,37.762,0,0,1-4.432-.261,40.333,40.333,0,0,1-4.744-.818l-.675-.169a6.323,6.323,0,0,1-1.783-.671,2.012,2.012,0,0,1-.993-1.529,1.418,1.418,0,0,1,.188-.923,1.957,1.957,0,0,1,.706-.659,1.911,1.911,0,0,1,.995-.253,5.581,5.581,0,0,1,1.386.241l.124.032a40.6,40.6,0,0,0,4.151.87,34.544,34.544,0,0,0,5.132.375,38.732,38.732,0,0,0,3.982-.209,31.574,31.574,0,0,0,7.615-1.714,21.455,21.455,0,0,0,6.742-3.877,13.4,13.4,0,0,0,3.961-5.435,21.988,21.988,0,0,0,.83-7.878c0-.241-.008-.515-.011-.78-.037-3.19-.041-6.434-.045-9.572v0c0-3.467-.009-7.052-.058-10.58-.1-7.431.024-14.023.387-20.154a.1.1,0,0,1,.1-.088.069.069,0,0,1,.073.064c1.076,7.828,1.664,15.654,2.1,22.277.236,3.606.518,7.42.837,11.337.071.867.154,1.756.235,2.616h0a68.136,68.136,0,0,1,.441,8.36,16.7,16.7,0,0,1-2.1,7.714,18.817,18.817,0,0,1-5.359,5.943c-3.853,2.839-8.895,4.669-14.985,5.439A38.446,38.446,0,0,1,73.619,97.014Zm-24.091-5.98c-1.535,0-3.19-1.321-4.179-2.11a31.655,31.655,0,0,1-6.663-7.585l-.18-.28a21.471,21.471,0,0,1-3.348-7.814l-.079.128-.014.02a1.916,1.916,0,0,1-.3.323,2.625,2.625,0,0,1-1.07.526,5.993,5.993,0,0,1-1.563.2,7.072,7.072,0,0,1-.718-.037,8,8,0,0,1-2.2-.546,8.1,8.1,0,0,1-1.957-1.139,8.324,8.324,0,0,1-2.166-2.575,10.157,10.157,0,0,1-1.076-3.178,14.265,14.265,0,0,1,.623-6.855,2.272,2.272,0,0,1-.528.06,3.808,3.808,0,0,1-1.611-.421,8.651,8.651,0,0,1-1.417-.874,6.208,6.208,0,0,1-1.43-1.461,4.566,4.566,0,0,1-.774-1.884,3.658,3.658,0,0,1,.407-2.158,3.76,3.76,0,0,1,.655-.924,2.62,2.62,0,0,1,.874-.607,9.6,9.6,0,0,1-1.563-2.769,9.808,9.808,0,0,1-.624-2.933,8.75,8.75,0,0,1,1.04-4.487,9.484,9.484,0,0,1,3.079-3.407A23.7,23.7,0,0,1,21.3,34.2a24.1,24.1,0,0,1-.643-8.519,23.535,23.535,0,0,1,.833-4.224,22.55,22.55,0,0,1,1.556-3.892,23.529,23.529,0,0,1,2.176-3.455A28.182,28.182,0,0,1,31.05,8.449a38.717,38.717,0,0,1,7.175-4.11,49.944,49.944,0,0,1,7.763-2.686A51.448,51.448,0,0,1,52.634.4,55.848,55.848,0,0,1,59.348,0c1.534,0,3.115.061,4.7.181C65.592.3,67.08.469,68.469.69a40.3,40.3,0,0,1,4.473.961,28.839,28.839,0,0,1,4.275,1.544,20.666,20.666,0,0,1,3.829,2.258.257.257,0,0,1,.1.29.247.247,0,0,1-.241.166.332.332,0,0,1-.052,0c-1.789-.286-3.582-.712-5.316-1.125-1.31-.312-2.665-.634-4.011-.894-1.635-.316-3.121-.558-4.545-.739-1.622-.207-3.122-.331-4.586-.379-.648-.021-1.3-.032-1.953-.032a58.257,58.257,0,0,0-7.464.477,52.221,52.221,0,0,0-7.424,1.5,43.528,43.528,0,0,0-7.049,2.643,35.435,35.435,0,0,0-6.339,3.891,23.958,23.958,0,0,0-5.069,5.3,20.156,20.156,0,0,0-3.024,6.668,20.881,20.881,0,0,0-.564,3.791,21.206,21.206,0,0,0,.133,3.822,20.971,20.971,0,0,0,.82,3.733,20.269,20.269,0,0,0,1.5,3.524,1.665,1.665,0,0,1,.1,1.273,1.218,1.218,0,0,1-.632.747A6.605,6.605,0,0,0,23.9,41.121,6.77,6.77,0,0,0,22.691,42.5a6.188,6.188,0,0,0-1.044,3.484,6.269,6.269,0,0,0,1.106,3.385,9.953,9.953,0,0,0,1.435,1.592,12.864,12.864,0,0,1,1.151,1.205,1.131,1.131,0,0,1,.249.656,1.03,1.03,0,0,1-.172.633c.2.086.4.156.6.225a5.7,5.7,0,0,1,.821.33.585.585,0,0,1,.295.533.558.558,0,0,1-.295.51,1.809,1.809,0,0,1-.822.2,2.179,2.179,0,0,1-1.07-.3,3.215,3.215,0,0,1-.886-.75,3.966,3.966,0,0,1-.322-.454,4.824,4.824,0,0,1-2.182-1.144,2.071,2.071,0,0,0-1,1.454,2.677,2.677,0,0,0,.658,2.138,4.66,4.66,0,0,0,2.055,1.3l.092.033c.117.042.233.081.345.118a3.055,3.055,0,0,1,1.564.892,12.554,12.554,0,0,1,1.093-1.868,10.43,10.43,0,0,1,2.589-2.592,6.073,6.073,0,0,1,3.417-1.121c.154,0,.311.007.465.02a5.027,5.027,0,0,1,2.828,1.184,4.8,4.8,0,0,1,.992,1.166,4.612,4.612,0,0,1,.571,1.454.149.149,0,0,1-.033.126.173.173,0,0,1-.129.066.116.116,0,0,1-.109-.077,3.106,3.106,0,0,0-1.394-1.536,4.186,4.186,0,0,0-2.008-.479,5.191,5.191,0,0,0-2.751.789,8.071,8.071,0,0,0-2.651,2.968,13.19,13.19,0,0,0-1.331,3.794,10.821,10.821,0,0,0-.05,3.977,7.684,7.684,0,0,0,.6,1.9A5.965,5.965,0,0,0,28.5,69.941a5.106,5.106,0,0,0,1.334.975,4.866,4.866,0,0,0,1.576.494,3.336,3.336,0,0,0,.439.029,5.432,5.432,0,0,0,1.077-.13l.338-.071a2.773,2.773,0,0,1,.573-.072c.048,0,.1,0,.142.006l.367.049.209.1a.652.652,0,0,0,.122.048h0a.836.836,0,0,0-.173-.114c.033,0,.065,0,.093,0a.822.822,0,0,1,.642.28,1.092,1.092,0,0,1,.245.641.219.219,0,0,1,.055.046c1.061,1.3,2.014,2.713,2.937,4.078a45.951,45.951,0,0,0,3.7,4.972l.735.823C44.873,84.272,47,86.5,49.529,87.574l.305.127a3.812,3.812,0,0,1,1.041.606,1.572,1.572,0,0,1,.552,1.046,1.335,1.335,0,0,1-.335,1.036,1.879,1.879,0,0,1-.949.57A2.476,2.476,0,0,1,49.528,91.034Zm-18.273-2a.192.192,0,0,1-.157-.079.132.132,0,0,1-.011-.129,7.47,7.47,0,0,0,.339-1.273,3.835,3.835,0,0,1,1.038-2.336,1.32,1.32,0,0,1,.823-.322,1.25,1.25,0,0,1,.769.287,2.382,2.382,0,0,1,.591.7l.024.043a.849.849,0,0,0,.715.537,1.181,1.181,0,0,0,.816-.464,2.8,2.8,0,0,0,.549-.95l.03-.1c.024-.079.049-.166.075-.257a5.8,5.8,0,0,1,.428-1.167.968.968,0,0,1,.833-.614,1.166,1.166,0,0,1,.521.143,1.34,1.34,0,0,1,.619,1.557,6.574,6.574,0,0,1-.6,1.76,4.221,4.221,0,0,1-1.026,1.379,3.242,3.242,0,0,1-1.526.756,3.28,3.28,0,0,1-.622.06,2.982,2.982,0,0,1-1.113-.208,2.274,2.274,0,0,1-1.353-1.356,1.024,1.024,0,0,1-.074-.216.473.473,0,0,1-.122.211,10.735,10.735,0,0,0-1.422,1.952A.154.154,0,0,1,31.255,89.038ZM17.711,86.85a6.055,6.055,0,0,1-1.787-.283.129.129,0,0,1-.1-.141.147.147,0,0,1,.135-.132,5.731,5.731,0,0,0,4.5-3.259l.087-.195a2.608,2.608,0,0,1,1.429-1.617,1.751,1.751,0,0,1,.583-.1,2,2,0,0,1,1.465.683,2.642,2.642,0,0,1,.334.524c.2.368.383.715.772.715a.8.8,0,0,0,.207-.029c.667-.179,1.1-.873,1.487-1.484.1-.167.2-.324.3-.464l.092-.129c.693-.95,1.765-2.082,2.935-2.082a1.974,1.974,0,0,1,1.2.433.9.9,0,0,1,.388.718.859.859,0,0,1-.388.685l-.2.142-.126.089-.008.006a7.044,7.044,0,0,0-1.769,1.579c-.1.141-.2.285-.3.425a8.332,8.332,0,0,1-1.5,1.771,3.878,3.878,0,0,1-2.395.863,2.971,2.971,0,0,1-1.207-.244,2.632,2.632,0,0,1-1.007-.78l-.113-.143a4.51,4.51,0,0,1-.3-.422l-.07.1-.019.028-.016.025A6,6,0,0,1,20.521,86,5.014,5.014,0,0,1,17.711,86.85ZM13.516,75.759a.33.33,0,0,1-.259-.145.253.253,0,0,1-.037-.236l.173-.463a10.451,10.451,0,0,1,1.133-2.287,3.42,3.42,0,0,1,.842-.859,1.884,1.884,0,0,1,1.067-.341,2.142,2.142,0,0,1,.685.119,4.124,4.124,0,0,1,.84.44,2.278,2.278,0,0,0,1.14.467,1.214,1.214,0,0,0,.8-.337,3.787,3.787,0,0,0,.853-1.239,3.575,3.575,0,0,1,.964-1.333.617.617,0,0,1,.378-.125.863.863,0,0,1,.509.179.791.791,0,0,1,.3.431,3.485,3.485,0,0,1-.745,2.893A4.767,4.767,0,0,1,20.8,74.145a3.452,3.452,0,0,1-1.634.512h-.09a3.077,3.077,0,0,1-1.439-.364,3.248,3.248,0,0,1-.456-.321,2.079,2.079,0,0,0-.754-.448.546.546,0,0,0-.108-.011c-.37,0-.7.371-1,.7-.087.1-.169.187-.247.263a13.923,13.923,0,0,1-1.421,1.237A.228.228,0,0,1,13.516,75.759ZM36.018,65a1.716,1.716,0,0,1-.879-.241,3.092,3.092,0,0,1-.931-.955,6.437,6.437,0,0,0-.409-.525,4.3,4.3,0,0,0-1.165-.906,7.653,7.653,0,0,0-1.368-.566,2.7,2.7,0,0,0-.652.485.117.117,0,0,1-.084.035.149.149,0,0,1-.13-.079.1.1,0,0,1,.012-.112,2.724,2.724,0,0,1,.439-.454l-.081-.024a.31.31,0,0,1-.219-.212.359.359,0,0,1,.076-.335,3.577,3.577,0,0,1,2.767-1.138,5.3,5.3,0,0,1,2.688.747,4.29,4.29,0,0,1,1.045.867,3.252,3.252,0,0,1,.649,1.138,1.773,1.773,0,0,1-.462,1.751A1.939,1.939,0,0,1,36.018,65Zm2.812-8.859c-.025,0-.05,0-.074,0a1.345,1.345,0,0,1-1.144-.657,1.046,1.046,0,0,1-.182-.642,1.64,1.64,0,0,1,.161-.655l.021-.043a6.031,6.031,0,0,0,.624-1.973,5.657,5.657,0,0,0-.106-2.066,12.842,12.842,0,0,0-.664-1.884,12.955,12.955,0,0,1-.658-1.859A7.988,7.988,0,0,1,37.9,40.383a3.923,3.923,0,0,1-2.034-1.271h0a.391.391,0,0,1-.061-.412.294.294,0,0,1,.278-.187h.028l.374.03.085.007c.494.042.961.081,1.433.081a5.927,5.927,0,0,0,1.619-.2,5.321,5.321,0,0,0,1.51-.719l.1-.067a2.383,2.383,0,0,1,1.611-.452h.017a.949.949,0,0,1,.671.321.7.7,0,0,1,.189.541l-.016.129a2.418,2.418,0,0,1-.358,1.074,2.177,2.177,0,0,1-.928.72,7.039,7.039,0,0,1-2.354.616c-.165.015-.337.023-.511.023-.151,0-.306-.006-.46-.017l-.07.406a17.353,17.353,0,0,0-.292,2.449,9.255,9.255,0,0,0,1.123,4.132l.014.03a11.342,11.342,0,0,1,.679,1.97,9.049,9.049,0,0,1,.254,1.969,8.322,8.322,0,0,1-.206,1.968,9.124,9.124,0,0,1-.7,1.968A1.3,1.3,0,0,1,38.83,56.146Zm8.824-18.14a1.054,1.054,0,0,1-.858-.41,1.238,1.238,0,0,1-.236-.579,1.882,1.882,0,0,1,.054-.761,4.981,4.981,0,0,1,.942-1.663c.108-.143.219-.292.323-.44a18.483,18.483,0,0,0,1.207-1.944,11.661,11.661,0,0,0,.877-2.082,7.621,7.621,0,0,0,.345-2.226,7.02,7.02,0,0,0-.334-2.079,6.572,6.572,0,0,0-.951-1.9,4.89,4.89,0,0,0-1.514-1.381,4.038,4.038,0,0,0-2.024-.534h-.06a.153.153,0,0,1-.159-.156.169.169,0,0,1,.162-.18c.107-.006.215-.009.321-.009a5.853,5.853,0,0,1,3.435,1.146,7.389,7.389,0,0,1,2.329,2.847c1.321,2.8.53,5.914-.365,8.031l-.3.706a14.207,14.207,0,0,1-.949,1.88,4.32,4.32,0,0,1-1.366,1.455A1.723,1.723,0,0,1,47.654,38.006Zm13.564-3.175a2.17,2.17,0,0,1-1.255-.405,2.1,2.1,0,0,1-.786-1.08.853.853,0,0,1,.041-.608,1.1,1.1,0,0,1,.4-.467,6.456,6.456,0,0,0,2.519-2.9,9.563,9.563,0,0,0,.584-1.994A12.021,12.021,0,0,0,62.9,25.3a9.727,9.727,0,0,0-3.9-8.083.18.18,0,0,1-.062-.206.155.155,0,0,1,.142-.114.167.167,0,0,1,.09.029,12.991,12.991,0,0,1,3.942,4.056A13.269,13.269,0,0,1,65.065,26.3a12.55,12.55,0,0,1,.02,3.1,9.983,9.983,0,0,1-.822,2.979,5.273,5.273,0,0,1-1.006,1.491,3.241,3.241,0,0,1-1.525.906A2.141,2.141,0,0,1,61.218,34.831Zm37.193-2.687a1.5,1.5,0,0,1-.762-.215,1.415,1.415,0,0,1-.537-.553,1.111,1.111,0,0,1,.1-1.189c.144-.209.293-.412.436-.609a7.582,7.582,0,0,0,1.214-2.105,8.6,8.6,0,0,0,.413-2.913,9.072,9.072,0,0,0-2.279-5.925.19.19,0,0,1,.135-.32.2.2,0,0,1,.093.024,7.316,7.316,0,0,1,1.53,1.079,7.814,7.814,0,0,1,1.2,1.4,8.81,8.81,0,0,1,1.354,3.46,9.942,9.942,0,0,1,.118,1.953,10.543,10.543,0,0,1-.272,2.055,6.925,6.925,0,0,1-1.865,3.5A1.264,1.264,0,0,1,98.411,32.145Zm-26.853-.59a2.454,2.454,0,0,1-.851-.154,1.088,1.088,0,0,1-.7-.723,1.113,1.113,0,0,1,.249-1,6.194,6.194,0,0,1,1.306-1.1,5.612,5.612,0,0,0,1.428-1.257,5.36,5.36,0,0,0,.853-1.884,7.588,7.588,0,0,0,.2-2.069l-.007-.153a13.435,13.435,0,0,0-1.1-4.625,5.846,5.846,0,0,0-1.353-1.936,2.947,2.947,0,0,0-2-.794h-.088a.125.125,0,0,1-.129-.13.139.139,0,0,1,.133-.148c.077,0,.155-.006.232-.006a4.738,4.738,0,0,1,2.5.72,6.94,6.94,0,0,1,1.929,1.824,10.875,10.875,0,0,1,1.332,2.426,12.164,12.164,0,0,1,.711,2.526,8.292,8.292,0,0,1-1.033,5.867l-.066.1a7.315,7.315,0,0,1-1.513,1.7A3.3,3.3,0,0,1,71.558,31.555Zm13.664-.563a1.679,1.679,0,0,1-.637-.13c-.449-.184-.976-.71-.738-1.3a2.428,2.428,0,0,1,.943-1.129c.107-.083.218-.168.336-.267a3.676,3.676,0,0,0,.96-1.394,8.028,8.028,0,0,0,.576-2.174,12.368,12.368,0,0,0,.069-2.254l-.011-.174a11.784,11.784,0,0,0-.412-2.306,9.81,9.81,0,0,0-.956-2.3A5.607,5.607,0,0,0,83.8,15.8a3.72,3.72,0,0,0-2.193-.705h-.1a.1.1,0,0,1-.11-.1.13.13,0,0,1,.114-.138,4.37,4.37,0,0,1,.554-.036,4.256,4.256,0,0,1,2.293.685,6.754,6.754,0,0,1,1.791,1.721,11.385,11.385,0,0,1,1.28,2.259,13.624,13.624,0,0,1,1.119,5.236,9.969,9.969,0,0,1-.386,2.928l-.042.134a7.265,7.265,0,0,1-1.064,2.063,3.6,3.6,0,0,1-.838.817A1.8,1.8,0,0,1,85.222,30.992Zm8.517-1.666a2.327,2.327,0,0,1-.6-.084.74.74,0,0,1-.477-.38.949.949,0,0,1-.083-.608,2.279,2.279,0,0,1,.862-1.406c.119-.113.241-.23.373-.368a5.715,5.715,0,0,0,1.192-1.967,8.012,8.012,0,0,0,.208-4.639,15.929,15.929,0,0,0-2.156-4.792l-.2-.318-.127-.2-.008-.013c-.938-1.494-2.223-3.541-4.059-3.541a2.523,2.523,0,0,0-.3.019H88.34a.114.114,0,0,1-.117-.1.174.174,0,0,1,.1-.192,2.652,2.652,0,0,1,.948-.18,3.56,3.56,0,0,1,2.242.947,14.084,14.084,0,0,1,1.762,1.841,25.849,25.849,0,0,1,2.074,2.782,14.774,14.774,0,0,1,1.53,3.108,10.021,10.021,0,0,1,.187,6.155,8.176,8.176,0,0,1-1.421,2.72l-.082.1A2.36,2.36,0,0,1,93.739,29.326Z" transform="translate(-12.016 10.356)"/>
  </g>
  <g id="FACE" transform="translate(112.183 77.354)">
    <path id="_Ink-3" data-name="ðŸ– Ink" d="M16.42,41.063a4.569,4.569,0,0,1-3.508-1.188,3.149,3.149,0,0,1-.94-2.747A6.336,6.336,0,0,1,13.7,33.993a11.984,11.984,0,0,1,2.8-2.214,11.617,11.617,0,0,1,3.549-1.253,19.927,19.927,0,0,1,3.759-.317,10.6,10.6,0,0,1,2.929.324,9.529,9.529,0,0,1,2.272,1.043c1.643.966,3.377,2.2,3.789,4.047a3.94,3.94,0,0,1,.078,1.271,3.462,3.462,0,0,1-.329,1.162,3.3,3.3,0,0,1-1.8,1.632c-.956.376-11.982,1.247-13.437,1.343C16.988,41.053,16.7,41.063,16.42,41.063Zm6.808-8.887a6.674,6.674,0,0,0-1.573.226,11.227,11.227,0,0,0-1.622.548c-1.082.46-1.781.962-1.781,1.278,0,.1.183.168.543.216a11.308,11.308,0,0,0,1.391.066,45.173,45.173,0,0,0,4.579-.275c1.646-.182,2.625-.393,2.687-.577a.262.262,0,0,0-.056-.239,3.533,3.533,0,0,0-1.619-.83A9.13,9.13,0,0,0,23.228,32.177Zm1.533-6.555h0a7.373,7.373,0,0,1-2.63-.53,13.281,13.281,0,0,1-3.093-1.756,1.189,1.189,0,0,1-.432-.687,1.423,1.423,0,0,1,.061-.771,1.754,1.754,0,0,1,.521-.753A1.267,1.267,0,0,1,20,20.808a1.151,1.151,0,0,1,.628.193l.207.16,0,0a16.743,16.743,0,0,0,1.936,1.347,4.768,4.768,0,0,0,2.321.74,2.505,2.505,0,0,0,.981-.193,2.741,2.741,0,0,0,.913-.647,2.8,2.8,0,0,0,.531-2.255,4.26,4.26,0,0,0-1.13-2,8.24,8.24,0,0,0-1.711-1.381.531.531,0,0,1-.143-.61.8.8,0,0,1,.264-.38.809.809,0,0,1,.505-.167,1.076,1.076,0,0,1,.181.016,5.736,5.736,0,0,1,2.018.729,4.577,4.577,0,0,1,1.357,1.252,4.974,4.974,0,0,1,.866,3.322,5.475,5.475,0,0,1-.444,1.744,5.088,5.088,0,0,1-1,1.5A4.779,4.779,0,0,1,24.761,25.622ZM6.827,15.094l-.023,0a2.971,2.971,0,0,1-1.77-.883A2.787,2.787,0,0,1,4.389,12.3a5.071,5.071,0,0,1,.623-2.428A5.8,5.8,0,0,1,6.664,7.982a4.615,4.615,0,0,1,2.763-.9,5.05,5.05,0,0,1,2.974.975,4.566,4.566,0,0,1,1.088,1.128,4.2,4.2,0,0,1,.627,1.475,1.413,1.413,0,0,1,.774,1.2l.014.143a1.574,1.574,0,0,1-1.139,1.5,2.361,2.361,0,0,1-.678.1,2.741,2.741,0,0,1-1.166-.3,1.527,1.527,0,0,1-.7-1.656l.01-.049a1.326,1.326,0,0,0-.256-1.043,2.2,2.2,0,0,0-.855-.707A1.8,1.8,0,0,0,9.359,9.7a2.491,2.491,0,0,0-1.4.478,3.75,3.75,0,0,0-.922.945,3.631,3.631,0,0,0-.547,1.2l-.019.086a4.962,4.962,0,0,0-.106,1.349,1.337,1.337,0,0,0,.53,1.12A.107.107,0,0,1,6.951,15,.131.131,0,0,1,6.827,15.094Zm23.636-.885a.13.13,0,0,1-.113-.067L30.259,14c-.067-.107-.134-.212-.2-.312A8.037,8.037,0,0,1,29.25,12.2a3.305,3.305,0,0,1-.157-1.74,3.81,3.81,0,0,1,.887-1.867,4.038,4.038,0,0,1,1.705-1.181,3.6,3.6,0,0,1,1.207-.2A4.284,4.284,0,0,1,36.3,8.971a3.279,3.279,0,0,1,.445,3.051,1.733,1.733,0,0,1-.616.864,1.462,1.462,0,0,1-.856.271,1.665,1.665,0,0,1-1.23-.559,1.71,1.71,0,0,1-.392-1.368l.008-.06a1.151,1.151,0,0,0-.211-.951,1,1,0,0,0-.781-.324A1.731,1.731,0,0,0,32.1,10a2.68,2.68,0,0,0-1.49,1.6,3.583,3.583,0,0,0-.257,1.247A2.447,2.447,0,0,0,30.589,14a.135.135,0,0,1,0,.136A.149.149,0,0,1,30.462,14.209Zm6.223-7.555a12.106,12.106,0,0,1-2.9-.389,17.03,17.03,0,0,1-2.615-.888A12.609,12.609,0,0,1,28.013,3.4a6.707,6.707,0,0,1-1.266-1.444A3.48,3.48,0,0,1,26.182.3a.176.176,0,0,1,.049-.131A.216.216,0,0,1,26.385.1a.194.194,0,0,1,.047.006,6.989,6.989,0,0,1,1.854.9c.283.173.575.352.862.5A15.7,15.7,0,0,0,32.131,2.7a10.887,10.887,0,0,0,3,.421h.093a9.4,9.4,0,0,0,1.619-.2,9.044,9.044,0,0,1,1.625-.2l.133,0a1.746,1.746,0,0,1,1.144.48,2.052,2.052,0,0,1,.6,1.048,1.682,1.682,0,0,1-.074,1.016,1.581,1.581,0,0,1-.766.8A6.2,6.2,0,0,1,36.685,6.654ZM4.573,6.633a13.445,13.445,0,0,1-2.332-.186A7.553,7.553,0,0,1,.13,5.77.239.239,0,0,1,0,5.525a.278.278,0,0,1,.192-.244,13.628,13.628,0,0,1,2.291-.374c.506-.054,1.029-.109,1.526-.2A31.421,31.421,0,0,0,7.527,3.9,24.593,24.593,0,0,0,10.849,2.63,21.382,21.382,0,0,0,13.927.859,2.214,2.214,0,0,1,15.659,0a1.944,1.944,0,0,1,1.71.993,2.051,2.051,0,0,1,.291.921,1.81,1.81,0,0,1-.156.846,2.148,2.148,0,0,1-.658.821,2.5,2.5,0,0,1-1.011.461A33.231,33.231,0,0,1,12.02,5.5a23.914,23.914,0,0,1-3.987.879l-.37.047A25.685,25.685,0,0,1,4.573,6.633Z" transform="translate(11.408 13.738)"/>
    <path id="Path_4" data-name="Path 4" d="M0,3.488S2.146,0,5.675,0s7.616,1.837,7.331,2.71c-.153.467-3.435,1.785-8.91,1.837A16.1,16.1,0,0,1,0,3.488Z" transform="translate(28.149 45.063)" fill="none" stroke="#22252b" stroke-miterlimit="10" stroke-width="1.5"/>
  </g>
</svg>
