<svg id="peep-2" xmlns="http://www.w3.org/2000/svg" width="258.395" height="324" viewBox="0 0 258.395 324">
  <g id="BODY" transform="translate(31.056 135.053)">
    <path id="_Skin" data-name="âœ‹ Skin" d="M233.026,64.537c2.164-1.13,4.277-2.358,6.356-3.636a1.324,1.324,0,0,0-1.334-2.286c-.768.408-1.533.82-2.3,1.226a13.479,13.479,0,0,0,1.666-1.705l-.035-.035c1.936-1.735-.551-5.01-2.753-3.584a30.941,30.941,0,0,1-6.13,3.772c-4.617,1.958-9.709,2.282-14.664,2.339a19.443,19.443,0,0,0-5.3.528c.69-2.768,2.416-4.859,3.332-7.54.676-2.707-3.23-4.551-4.615-1.949-.34.639-.664,1.285-.98,1.935-2.992,2.722-7.988,2.483-11.006,5.406a9.377,9.377,0,0,0-2.892,5.675c-.226,1.411.125,2.826-.728,4.076-4.124,5.835-10.64,15.058-13.949,21.479-2.343-15.259-8.6-34.133-15.062-48.085a57.891,57.891,0,0,0-7.792-12.6c.364-1.261-.92-3.5-1.737-2.811-2.513-3.072-6.956-3.867-10.529-5.394a20.92,20.92,0,0,1-10.791-11.225C129.254.838,123.033-.341,114.4.069,106.148.059,100.039,3.592,98.237,12c-3.66,6.382-12.3,5.327-18.52,7.016a61.579,61.579,0,0,0-13.181,4.7c-4.675-4.436-21.419,14.182-22.941,18.974.9.174,1.786.383,2.669.638a.636.636,0,0,1-.337,1.225,24.573,24.573,0,0,0-2.977-.513c-.03.1-.057.19-.077.284l-.336-.025a4,4,0,0,1,.72.473c.563.468-.17,1.37-.768,1a4.686,4.686,0,0,0-1.977-.5c-.04,1.39-5-.165-5.77-.626-3.424-.428-6.946.031-10.142-1.62-4.253-.9-8.537-1.887-12.742-3.028-1.113.434-2.159,1.988-1.275,3.128a.637.637,0,0,1-.768,1,16.344,16.344,0,0,1-5.1-5.247c-.648-.654-1.8-.513-2.67-.785a1.394,1.394,0,0,0-.184.682c-3.694.608-1.059,4.644.8,5.9-.985.642-1.023,1.9-.936,2.948a1.42,1.42,0,0,0-.1,1.256c.695,1.6,2.2,2.95,3.339,4.247a27.466,27.466,0,0,0,3.92,4.035,42.351,42.351,0,0,0,20.15,7.93c2.571.4,6.27,1,7.862,3.175a75.3,75.3,0,0,1-1.759,7.575c-.91,3.341-.848,6.839-.86,10.246a.251.251,0,0,0-.408.114,8.826,8.826,0,0,1-1.227,4.043,34.3,34.3,0,0,0-1.534,6.878c-1.126,10.989-1.4,22.3,1.144,33.121A39.2,39.2,0,0,0,37,141.576a2.394,2.394,0,0,0,2.624,1.149,18.591,18.591,0,0,0,10.443,1.734c11.5-3.256,7.491,4.585,23.612,2.184,27.825-3.546,55.946,3.422,83.712-.669.684,5.284,9.636,3.768,12.746,1.534,9.324-6.934,13.954-28.888,18.633-40.026,3.217-8.778,8.6-24.326,15.656-30.216a20.109,20.109,0,0,1,7.23-3.229c9.547-2.461,19.13-4.788,28.7-7.181,1.622-.4,1.331-3.167-.4-2.99C237.646,64.1,235.336,64.315,233.026,64.537Z" transform="translate(-18.222 -4.65)" fill="#d08b5b"/>
    <path id="_Ink" data-name="ðŸ– Ink" d="M162.651,143.393a1.226,1.226,0,0,1-.914-.423c-8.575-.345-17.009-.6-25.067-.75-6.717-.129-13.677-.194-20.689-.194-7.8,0-15.939.081-24.2.241-7.238.141-14.823.344-22.544.6-1.081.036-2.181.077-3.244.116H65.98c-2.573.1-5.234.194-7.851.23h-.108a9.22,9.22,0,0,1-1.632-.15,7.233,7.233,0,0,1-1.653-.5,3.817,3.817,0,0,1-1.308-.909,2.3,2.3,0,0,1-.6-1.391l0-.069a6.921,6.921,0,0,1-.771.163.925.925,0,0,1-.14.011.859.859,0,0,1-.2-.022l-.052-.014a7.842,7.842,0,0,1-2.28.311,23.984,23.984,0,0,1-6.2-1.153c-.378-.106-.736-.205-1.086-.3l-.234-.062a15.134,15.134,0,0,1-3.665-1.4,9.93,9.93,0,0,1-2.968-2.547,17.212,17.212,0,0,1-1.963-3.161,23.388,23.388,0,0,1-1.342-3.5,42.043,42.043,0,0,1-1.4-7.359,55.435,55.435,0,0,1,.083-13.759,53.334,53.334,0,0,1,.412-11.225c.22-1.937.463-3.723.742-5.459.163-1.012.374-2,.594-3.014.029-.134.056-.267.084-.409v0c.055-.274.111-.557.185-.833l.05-.177a1.493,1.493,0,0,1-.193.012,1.826,1.826,0,0,1-.872-.238,1.954,1.954,0,0,1-.869-.994,3.6,3.6,0,0,1-.243-1.322,62.906,62.906,0,0,1,.5-7.659l0-.041.058-.541c.3-2.79.7-5.512,1.206-8.093l.134-.689a30.714,30.714,0,0,1,1.638-5.939,65.134,65.134,0,0,1-8.846-1.963,26.935,26.935,0,0,1-4.128-1.693,8.786,8.786,0,0,1-1.464-.358h0c-.146-.045-.3-.091-.445-.134-.952-.278-1.9-.609-2.831-.983a32.927,32.927,0,0,1-5.512-2.783,26.207,26.207,0,0,1-3.937-3.066,23.117,23.117,0,0,1-3.233-3.8l-.129-.193a15.017,15.017,0,0,1-1.337-2.494,4.709,4.709,0,0,1-.428-2.775A1.856,1.856,0,0,1,2.7,39.33,8.783,8.783,0,0,1,.789,37.01a6.793,6.793,0,0,1-.6-1.357A3.9,3.9,0,0,1,0,34.344a1.885,1.885,0,0,1,.731-1.5,2.562,2.562,0,0,1,1.55-.45,4.053,4.053,0,0,1,2.173.639A11.287,11.287,0,0,1,6.817,35.4l.065.08c.764.94,1.6,1.873,2.565,2.851.24.244.483.482.722.71l.246.231c-.039-.092-.073-.186-.1-.279a3.884,3.884,0,0,1,.055-2.439,3.074,3.074,0,0,1,1.581-1.813A2.468,2.468,0,0,1,13,34.517a4.944,4.944,0,0,1,1.784.422l.14.057a33.68,33.68,0,0,0,3.754,1.321A46.773,46.773,0,0,0,24.341,37.5c1.907.291,3.86.507,5.749.717,1.51.167,3.071.34,4.6.55A54.621,54.621,0,0,1,40.9,39.945a19.581,19.581,0,0,1,1.9-4.824,30.111,30.111,0,0,1,2.875-4.3,38.162,38.162,0,0,1,4.021-4.318,41.69,41.69,0,0,1,4.534-3.613A48.571,48.571,0,0,1,59.184,19.9c1.65-.868,3.428-1.691,5.286-2.446a84.432,84.432,0,0,1,11.191-3.589c3.3-.832,6.919-1.592,11.4-2.392a1.475,1.475,0,0,1,.257-.023,2.9,2.9,0,0,1,1.535.615l.139.093.01.007a2.315,2.315,0,0,0,1.093.516.547.547,0,0,0,.266-.066,15.7,15.7,0,0,0,4.006-3.21,45.568,45.568,0,0,0,4.586-6.179c.561-.852,1.14-1.734,1.738-2.59A1.419,1.419,0,0,1,101.877,0a1.564,1.564,0,0,1,.764.2,1.43,1.43,0,0,1,.55.538,1.265,1.265,0,0,1-.066,1.318l-.466.77c-.869,1.429-1.916,3.1-3.083,4.688a26.626,26.626,0,0,1-3.708,4.157A16.179,16.179,0,0,1,93.546,13.4a13.587,13.587,0,0,1-2.617,1.235,11.009,11.009,0,0,1-3.379.63,5.281,5.281,0,0,1-1.535-.207l-.185-.269.185.269a66.136,66.136,0,0,0,6.694,8.134c2.164,2.267,4.6,4.573,7.664,7.256a206.792,206.792,0,0,0,16.949,12.992l.484.342A81.092,81.092,0,0,0,130.8,31.941a78.792,78.792,0,0,0,10.1-14.383,8.268,8.268,0,0,1-2.915-1.213l-.01-.006c-.146-.084-.284-.163-.421-.24a10.99,10.99,0,0,1-3.237-2.574,6.573,6.573,0,0,1-.907-1.459,8.346,8.346,0,0,1-.528-1.577,22.119,22.119,0,0,1-.426-3.354c-.046-.614-.094-1.248-.169-1.863a.146.146,0,0,1,.034-.117.2.2,0,0,1,.152-.06.216.216,0,0,1,.136.044,6.371,6.371,0,0,1,1.677,3.021c.057.168.116.341.175.509a7.455,7.455,0,0,0,2.132,3.424,15.606,15.606,0,0,0,3.5,2.122c.19.09.616.226,1.109.382h0c1.159.369,2.747.874,2.995,1.317a13.636,13.636,0,0,1,3.113-.361,15.009,15.009,0,0,1,6.156,1.371,20,20,0,0,1,5.37,3.6,35.639,35.639,0,0,1,5.107,6.009,74.734,74.734,0,0,1,4.088,6.767,107.094,107.094,0,0,1,6.739,15.2c.984,2.735,1.826,5.446,2.5,8.057a76.481,76.481,0,0,1,1.675,8.266c.618,4.287,1.065,8.951,1.366,14.26l.033.6c3.863-6.065,7.984-12.323,12.249-18.6a5.741,5.741,0,0,1-.083-3.755A8.879,8.879,0,0,1,194.468,54a11.8,11.8,0,0,1,2.938-2.284A35.758,35.758,0,0,1,200.77,50.1c.327-.144.665-.292,1-.441l.342-.155a17.245,17.245,0,0,0,3.591-2.062,12.827,12.827,0,0,0,1.306-1.256,10.637,10.637,0,0,1,1.6-1.477,3.746,3.746,0,0,1,2.1-.637,2.748,2.748,0,0,1,1.691.521,1.946,1.946,0,0,1,.553.681,2.4,2.4,0,0,1,.229.988,6.53,6.53,0,0,1-.318,2.048,17.49,17.49,0,0,1-.74,1.946,14.332,14.332,0,0,1-1.039,1.941,16.648,16.648,0,0,1-1.307,1.771.67.67,0,0,1-.141.127l-.037.023a33.5,33.5,0,0,0,3.989.454c.514.024,1.035.036,1.546.036a31.358,31.358,0,0,0,6.6-.686,29.357,29.357,0,0,0,7.83-2.874c.493-.267.985-.557,1.461-.838.773-.456,1.573-.927,2.389-1.307a9.237,9.237,0,0,1,2.575-.81c.208-.032.427-.054.67-.068h.026a.648.648,0,0,1,.51.3.542.542,0,0,1,.075.508c-.087.22-.174.422-.264.62a14.622,14.622,0,0,1-1.55,2.636,13.475,13.475,0,0,1-2.114,2.277l-.122.1c.565-.2,1.118-.414,1.642-.651,1.143-.515,2.266-1.135,3.353-1.735a26.308,26.308,0,0,1,6.082-2.714c.143-.038.3-.075.486-.116a1.256,1.256,0,0,1,.264-.029.95.95,0,0,1,.876.541,1.119,1.119,0,0,1-.153,1.185c-.115.147-.211.267-.3.376a38.715,38.715,0,0,1-5.028,5.195c-.632.537-1.287,1.06-1.946,1.554,1.977-.6,4.041-1.34,6.133-2.2a.955.955,0,0,1,.364-.075,1.023,1.023,0,0,1,.772.4,1.647,1.647,0,0,1,.364.819,2.85,2.85,0,0,1-.238,1.533,4.752,4.752,0,0,1-.916,1.316,14.917,14.917,0,0,1-2.568,2.007l-.068.045a23.839,23.839,0,0,1-5.2,2.545A53.239,53.239,0,0,1,226.319,66.8l-1.777.248c-1.7.237-3.5.5-5.294.838a40.968,40.968,0,0,0-5.166,1.3,23.926,23.926,0,0,0-4.793,2.138,19.161,19.161,0,0,0-2.181,1.5,18.1,18.1,0,0,0-2,1.86,28.591,28.591,0,0,0-3.651,5.06c-1.072,1.842-2,3.767-2.843,5.572-1.519,3.255-2.982,6.79-4.743,11.462-1.058,2.8-2.036,5.69-2.982,8.481-.4,1.194-.823,2.429-1.243,3.642-1.289,3.726-2.839,7.426-4.338,11l-.24.573a102.491,102.491,0,0,1-5.421,11.182c-1.044,1.835-2.144,3.6-3.272,5.251-1.19,1.74-2.454,3.414-3.757,4.977a.9.9,0,0,1-.7.363.921.921,0,0,1-.535-.183,1.237,1.237,0,0,1-.387-.463,1.184,1.184,0,0,1-.122-.6,1.117,1.117,0,0,1,.241-.62,65.11,65.11,0,0,0,3.909-5.658c1.152-1.865,2.284-3.891,3.364-6.022,1-1.966,1.95-4.014,2.916-6.263.849-1.977,1.688-4.064,2.563-6.379.833-2.2,1.6-4.472,2.346-6.667v0c.566-1.672,1.152-3.4,1.762-5.087l.84-2.318c1.066-2.938,2.22-6.091,3.432-9.241a122.611,122.611,0,0,1,5.013-11.417l.2-.39a46.812,46.812,0,0,1,3.077-5.23,25.786,25.786,0,0,1,3.953-4.577,20.519,20.519,0,0,1,2.109-1.661,22.162,22.162,0,0,1,2.253-1.354,27.65,27.65,0,0,1,4.844-1.95,65.634,65.634,0,0,1,10.37-2l2.19-.289a65.759,65.759,0,0,0,8.759-1.611,23.456,23.456,0,0,0,4.783-1.83,19.577,19.577,0,0,0,1.764-1.046,48.635,48.635,0,0,1-4.956,1.175c-.806.147-1.629.262-2.447.34-1.118.111-2.271.165-3.525.165-.863,0-1.771-.026-2.777-.078a.184.184,0,0,1-.167-.177.14.14,0,0,1,.12-.155c1.332-.237,2.752-.541,4.469-.956l.446-.109a1.281,1.281,0,0,1,.309-.759,6.334,6.334,0,0,1,2.029-1.391,12.423,12.423,0,0,0,1.089-.607,34.4,34.4,0,0,0,2.951-2.154c.84-.685,1.676-1.434,2.487-2.225l.022-.022-.011.011-.011.011c-.78.36-1.558.764-2.311,1.155a32.163,32.163,0,0,1-4.125,1.9,22.024,22.024,0,0,1-5.546,1.2l-.117.009-.117.008c-.575.041-1.158.066-1.722.09a24.2,24.2,0,0,0-4.174.421.216.216,0,0,1-.047.005.153.153,0,0,1-.155-.128.179.179,0,0,1,.111-.2,22.109,22.109,0,0,1,4.672-1.2l.014,0,.558-.1a.537.537,0,0,1,.3-.345l.456-.218a14.186,14.186,0,0,0,3.754-2.371,11.905,11.905,0,0,0,2.451-3.244,15.317,15.317,0,0,0-4.488,2.116,26.571,26.571,0,0,1-2.467,1.386,30.946,30.946,0,0,1-7.775,2.467l-.306.053a33.292,33.292,0,0,1-5.458.466,24.918,24.918,0,0,1-5.277-.532,16.634,16.634,0,0,1-4.825-1.815.124.124,0,0,1-.064-.144.155.155,0,0,1,.148-.112l.024,0c.758.124,1.524.264,2.265.4h.01c.5.092,1.019.186,1.528.275a.745.745,0,0,1-.236-.441.638.638,0,0,1,.164-.516,13.582,13.582,0,0,0,2.606-4.415l.11-.318.036-.1,0-.005a8.006,8.006,0,0,0,.371-1.29,1.642,1.642,0,0,0-.154-1.21,1.27,1.27,0,0,0-1.1-.493,2.467,2.467,0,0,0-.974.208,6.713,6.713,0,0,0-2.031,1.718,11.071,11.071,0,0,1-1.164,1.158,18.378,18.378,0,0,1-3.864,2.276l-.288.131c-.372.168-.755.334-1.126.495a17.182,17.182,0,0,0-5.6,3.331,9.234,9.234,0,0,0-1.337,1.685,6.238,6.238,0,0,0-.8,1.988,4.217,4.217,0,0,0,.042,1.953,3.455,3.455,0,0,0,.148.409,1.2,1.2,0,0,1,.112.91,5.436,5.436,0,0,1-.908,1.413c-.173.22-.337.428-.464.616-.457.678-.919,1.367-1.365,2.033-.765,1.146-1.54,2.314-2.29,3.443l-.014.021-.407.613c-1.729,2.609-3.483,5.291-5.36,8.2-.577.894-1.156,1.8-1.723,2.683l-.857,1.343-.369.576-.084.132-.067.106-.35.551-.355.558a.6.6,0,0,1-.011.334,1.524,1.524,0,0,1-.685.818l-.055.032c-2.78,4.4-5.577,8.881-8.283,13.218l-.021.034c-1.677,2.688-3.41,5.468-5.122,8.2-.267,2.442-.482,4.583-.657,6.547-.474,5.3-.749,10.163-.841,14.856-.034,1.753.061,3.541.153,5.27v.008c.034.636.069,1.293.1,1.938.052,1.162.122,2.316.211,3.431l.067.81a7.42,7.42,0,0,1-.26,3.28,1.363,1.363,0,0,1-.48.636A1.178,1.178,0,0,1,162.651,143.393ZM37.464,60.64a5.064,5.064,0,0,1,2.31.628A4.657,4.657,0,0,1,41.35,62.7a1.442,1.442,0,0,1,.452.814,5.425,5.425,0,0,1,.4,1.469.867.867,0,0,1-.182.7,37.971,37.971,0,0,1-.77,9.892,87.834,87.834,0,0,1-2.609,9.645l-.2.622-.129.394c-.4,1.234-.821,2.483-1.225,3.691v0c-.9,2.68-1.827,5.452-2.627,8.209a69.646,69.646,0,0,0-1.94,8.389,51.729,51.729,0,0,0-.176,14.152l.039.323a39.773,39.773,0,0,0,1.342,6.795,22.353,22.353,0,0,0,1.25,3.246,15.771,15.771,0,0,0,1.8,2.9,8.146,8.146,0,0,0,2.375,2.066,12.129,12.129,0,0,0,2.929,1.142l.119.032c.547.144,1.11.308,1.654.467h0a26.049,26.049,0,0,0,4.363,1.006,6.207,6.207,0,0,0,.67.036,11.06,11.06,0,0,0,4.072-1.027l.407-.159,0,0a17.012,17.012,0,0,0,4.077-5.638,37.585,37.585,0,0,0,2.3-6.749,70.758,70.758,0,0,0,1.7-9.074,84.054,84.054,0,0,0,.6-9.176A118.467,118.467,0,0,0,60.7,88.486c-.908-6.3-2.158-12.642-3.367-18.778l-.038-.194c-.185-.94-.378-1.895-.564-2.818v0h0c-.438-2.172-.891-4.417-1.281-6.634l-.33-1.861c-.163-.924-.351-2.017-.509-3.108-.194-1.334-.257-2.623-.324-3.987l-.009-.189a19.9,19.9,0,0,0-7.056-6.833,26.126,26.126,0,0,0-6.478-2.631A70.843,70.843,0,0,0,29.631,39.7c-2.909-.3-5.917-.61-8.767-1.2a39.114,39.114,0,0,1-6.29-1.9l-.281-.109a3.573,3.573,0,0,0-1.215-.293,1.189,1.189,0,0,0-1.161.834,2.064,2.064,0,0,0-.13,1.189,2.625,2.625,0,0,0,.5,1.094,6.446,6.446,0,0,0,2.485,1.854,23.63,23.63,0,0,0,2.965,1.09l.1.032a27.536,27.536,0,0,0,3.412.846c.349.063.7.113,1.046.161a11.352,11.352,0,0,1,2.372.509.558.558,0,0,1,.352.549.431.431,0,0,1-.352.406,5.89,5.89,0,0,1-1.355.148,14.863,14.863,0,0,1-2.818-.367l-.035-.007a29.412,29.412,0,0,1-4.506-1.274c-.317-.117-.583-.218-.835-.317l-.215-.085c.2.148.423.3.668.478a.076.076,0,0,1,.025.085.06.06,0,0,1-.057.046.072.072,0,0,1-.024,0,21.207,21.207,0,0,1-4.889-2.63A24.645,24.645,0,0,1,6.5,37.109l-.121-.138c-.131-.15-.284-.343-.462-.566A15.739,15.739,0,0,0,4.37,34.659a2.887,2.887,0,0,0-1.84-.953,1.328,1.328,0,0,0-.6.144.8.8,0,0,0-.453.565,1.736,1.736,0,0,0,.139.948,6.3,6.3,0,0,0,.594,1.118,22.807,22.807,0,0,0,1.585,2.083l.222.27.116.143a4.086,4.086,0,0,1,1.6.424,13.852,13.852,0,0,1,1.457.822l.1.061a47.967,47.967,0,0,0,4.973,2.644c1.559.733,3.189,1.377,4.766,2,1.846.729,3.755,1.484,5.561,2.385a.034.034,0,0,1,.02.04.048.048,0,0,1-.045.035h-.006a41.427,41.427,0,0,1-6.3-1.558l-.092-.029-.092-.031c-1.21-.4-2.455-.859-3.805-1.41a39.745,39.745,0,0,1-4.06-1.923c-.353-.193-.711-.427-1.09-.675a7.142,7.142,0,0,0-2.806-1.322,1.991,1.991,0,0,0-.252-.017c-.049,0-.1,0-.141.006a.753.753,0,0,0-.654.38c-.444.84.608,2.787.823,3.169a18.993,18.993,0,0,0,2.6,3.572,25.308,25.308,0,0,0,7.168,5.326c.849.434,1.761.843,2.789,1.251-.159-.14-.316-.287-.435-.4a15.962,15.962,0,0,1-1.586-1.735,13.907,13.907,0,0,1-1.293-1.962l-.2-.372a6.3,6.3,0,0,1-.723-1.965,1.875,1.875,0,0,1,.1-.952,1.608,1.608,0,0,1,.7-.767,2.553,2.553,0,0,1,1.324-.341,4.861,4.861,0,0,1,1.494.269c.051.016.1.034.153.051l.031.011c.357.125.748.287,1.194.495A23.91,23.91,0,0,1,20.664,48.4c.383.256.778.521,1.173.773a14.951,14.951,0,0,0,2.39,1.252A14.382,14.382,0,0,0,26.8,51.2l.172.035c.175.035.352.068.523.1,1.556.294,3.164.6,4.237,1.863a.575.575,0,0,1,.069.6.436.436,0,0,1-.4.27.518.518,0,0,1-.166-.029c-1.157-.39-2.355-.678-3.514-.957-1.069-.257-2.174-.523-3.233-.866a14.64,14.64,0,0,1-3.075-1.364c-.529-.319-1.054-.663-1.562-1h0c-.7-.457-1.419-.93-2.161-1.345a10.733,10.733,0,0,0-2.131-.942l-.409-.121a2.01,2.01,0,0,0-.529-.1.564.564,0,0,0-.189.028.363.363,0,0,0-.227.16c-.049.1,0,.233.055.4v0c.011.032.023.066.034.1l.011.035c1.008,3.12,4.05,5.461,5.774,6.579.517.337,1.073.663,1.652.97a31.412,31.412,0,0,0,5.114,2.115c1.76.571,3.592,1.05,5.363,1.513l.009,0c.575.15,1.171.306,1.754.462.024.007,2.431.679,3.218.929C37.281,60.644,37.372,60.64,37.464,60.64Zm139.21,24.866c-.043.01-.085.022-.125.033h0l-.009,0c-.846.237-1.711.452-2.548.66-.325.081-.693.172-1.048.262a32.961,32.961,0,0,0-6.032,2.012c-.351,4.432-.857,8.924-1.347,13.27h0c-.07.619-.149,1.32-.225,2l-.114,1.018c.966-1.792,1.851-3.371,2.706-4.825C170.746,95.153,173.687,90.3,176.674,85.506Zm-143.259.505a8.761,8.761,0,0,1-.119,1.3c-.025.179-.049.347-.069.515-.052.449-.1.907-.147,1.35v.005c-.051.489-.1.994-.163,1.49-.247,2.061-.432,3.931-.564,5.717-.093,1.247-.152,2.5-.2,3.667,1.007-3.764,2.308-7.516,3.566-11.146l.005-.015c.237-.684.482-1.391.722-2.087a5.19,5.19,0,0,1-.776-.159l-.448-.121-.09-.023h0C34.8,86.426,34.034,86.23,33.415,86.011ZM237.6,58.721l-.1.068Zm.626-.454-.178.131Zm-58.68,24.992h0l.016-.026.017-.026.35-.551.116-.182.036-.056.369-.576.009.2a1.2,1.2,0,0,1-.25.837,1.131,1.131,0,0,1-.662.38ZM49.113,51.172a4.044,4.044,0,0,1-1.85-.757,7.039,7.039,0,0,0-.986-.528,13.793,13.793,0,0,0-7.551-.731,13.446,13.446,0,0,0-2.423.683.109.109,0,0,1-.04.008.116.116,0,0,1-.105-.094.112.112,0,0,1,.052-.13,13.218,13.218,0,0,1,2.953-1.178,12.339,12.339,0,0,1,3.135-.408c.358,0,.721.016,1.078.048a13.183,13.183,0,0,1,3.676.845l.114.045.19.072a8.255,8.255,0,0,1,1.343.607,1.87,1.87,0,0,1,.9,1.011.355.355,0,0,1-.045.311.455.455,0,0,1-.337.192C49.182,51.17,49.148,51.172,49.113,51.172Z" transform="translate(-18.803 1.11)"/>
  </g>
  <g id="HEAD" transform="translate(78.592 38.043)">
    <path id="_Skin-2" data-name="âœ‹ Skin" d="M53.294,0c9.439,0,20.764,4.587,21.727,4.679h.026q.76,0,5.938,4.536l-3.739,7.311.3.29c1.448,1.392,2.684,2.66,3.66,3.66,7.967,8.165,9.4,40.225,7.522,51.405S83.375,94,67.184,94s-34.2-9.76-36.978-12.8a7.87,7.87,0,0,0-6.234-2.912l-.282-.359-.339-.048a20.96,20.96,0,0,1-6.86-1.871c-2.7-1.531-5.666-9.579-5.666-11.352,0-1.755-4.43-14.523-4.519-15.874v-.037c0-1.13-5.787-6.322-5.787-7.971s-1.167-1.549,0-7.36l.339-1.707C2.1,25.526,4.528,15.282,13.792,10.83,23.973,5.939,43.76,0,53.294,0Z" transform="translate(-1.685 12.408)" fill="#d08b5b"/>
    <path id="_Hat" data-name="ðŸ§¢ Hat" d="M23.973,78.292l-.282-.359-.339-.048a20.962,20.962,0,0,1-6.86-1.871c-2.7-1.531-5.666-9.579-5.666-11.352,0-1.755-4.43-14.523-4.518-15.874v-.037c0-1.13-5.787-6.322-5.787-7.971s-1.167-1.549,0-7.36l.339-1.707C2.1,25.526,4.528,15.282,13.792,10.83,23.973,5.939,43.76,0,53.295,0c9.439,0,20.764,4.587,21.727,4.679h.026q.76,0,5.938,4.535l-.877,1.715c-11.4.334-30.151,1.354-38.335,4.467C29.6,20.028,26.494,50.579,26.494,50.579a52.141,52.141,0,0,0-8.5,5.314c-4.252,3.3-2.152,3.4-2.152,3.4s-.183,7.062,1.127,9.863,9.071,3.3,9.071,3.3l1.314,4.412-.182,2.045A7.044,7.044,0,0,0,23.973,78.292Z" transform="translate(-1.687 12.47)" fill="#9ddadb"/>
    <path id="_Ink-2" data-name="ðŸ– Ink" d="M66.361,98.5a22.6,22.6,0,0,1-7.727-1.364,23.032,23.032,0,0,1-7.174-4.22,8.184,8.184,0,0,0-.774-.707c-.638-.542-1.43-1.216-1.372-1.535a.2.2,0,0,1,.15-.149c.209.222.436.451.694.7a.135.135,0,0,1-.008-.078l-.222-.2c-.451-.419-.659-.686-.616-.8.015-.039.061-.058.138-.058a.789.789,0,0,1,.135.014c.016.019.032.035.05.053l.037.038a3.023,3.023,0,0,1,.306.207l.04.032L50,90.422c-.248-.265-.386-.487-.352-.565.009-.022.032-.033.067-.033a.679.679,0,0,1,.249.078l.07.034c.227.239.462.475.721.721a.14.14,0,0,1,.015-.085l-.228-.221c-.2-.2-.193-.218-.106-.355v0l.025-.039c-.114-.16-.159-.273-.13-.328a.082.082,0,0,1,.08-.037.711.711,0,0,1,.522.355.422.422,0,0,1,.1-.011c.306,0,.59.331.84.623a1.5,1.5,0,0,0,.457.424,23.591,23.591,0,0,0,6.495,3.581,20.332,20.332,0,0,0,6.816,1.194,19.533,19.533,0,0,0,7.775-1.615A22.138,22.138,0,0,0,80.406,89.3a27.9,27.9,0,0,0,4.045-5.271,35.831,35.831,0,0,0,3.128-6.834A55.149,55.149,0,0,0,90.2,58.831l-.006-.655c-.03-2.986-.119-5.624-.272-8.066-.181-2.9-.451-5.521-.824-8.026a66.4,66.4,0,0,0-1.633-7.836,50.57,50.57,0,0,0-2.7-7.495,28,28,0,0,0-1.44-2.722c-.37-.669-.765-1.317-1.174-1.927a17.434,17.434,0,0,1-3.477-.645c-.426-.108-.808-.218-1.168-.338-3.245.177-6.507.367-9.662.551h0c-2.356.137-4.793.279-7.225.416l-1.775.111a45.686,45.686,0,0,0-7.187.893,16.46,16.46,0,0,0-6.49,2.9,7.752,7.752,0,0,0-1.345,1.223,10.048,10.048,0,0,0-1.038,1.435,26.178,26.178,0,0,0-1.56,3.217,29.971,29.971,0,0,1-1.314,2.788,9.413,9.413,0,0,1-1.835,2.4,13.955,13.955,0,0,0-2.491,2.1A9.021,9.021,0,0,0,34.118,41.3a18.935,18.935,0,0,0-1.36,5.019h0c-.082.454-.166.923-.26,1.413a20.2,20.2,0,0,0,.349,2.857,13.712,13.712,0,0,1,.287,4.33,3.6,3.6,0,0,1-.756,1.739,3.382,3.382,0,0,1-.763.673,4.692,4.692,0,0,1-1.081.507c.271.388.291.541.259.6a.084.084,0,0,1-.082.041.774.774,0,0,1-.557-.461h0l-.02,0c.238.444.251.6.22.652a.054.054,0,0,1-.05.026c-.147,0-.521-.374-.573-.616a.382.382,0,0,1-.158-.106c.224.363.238.5.211.546a.062.062,0,0,1-.059.03.84.84,0,0,1-.458-.318c-.04-.055-.056-.1-.046-.13a4.183,4.183,0,0,0-1.857-1.557,5.786,5.786,0,0,0-2.324-.465,6.4,6.4,0,0,0-1.709.23.089.089,0,0,1-.089.063.122.122,0,0,1-.071-.023,5.937,5.937,0,0,0-4.148,3.477,9.858,9.858,0,0,0-.822,2.838,12.574,12.574,0,0,0-.044,3.086,10.786,10.786,0,0,0,1.913,5.256,5.266,5.266,0,0,0,4.28,2.312,5.744,5.744,0,0,0,1.1-.11A.783.783,0,0,1,25.6,73.2a.238.238,0,0,1,.213.093.1.1,0,0,0,.048.039c-.048-.127-.054-.219-.017-.273a.132.132,0,0,1,.115-.051.347.347,0,0,1,.222.089.062.062,0,0,1,.021.043l.033,0,.016,0h0l.011,0h0c-.032-.178-.029-.292.009-.338a.062.062,0,0,1,.05-.023c.188,0,.649.65.711.839.008.024.008.039,0,.044a.267.267,0,0,1,.1-.034l-.036-.1c-.065-.173-.1-.254-.126-.3a.263.263,0,0,1-.031-.172c0-.017,0-.036,0-.059a1.573,1.573,0,0,0-.1-.212c-.029-.051-.029-.051-.014-.148v-.01l0-.025a.29.29,0,0,1,.174-.071c.2,0,.323.32.419.576.054.143.1.267.148.292a.442.442,0,0,1-.094-.44.149.149,0,0,1,.134-.086.25.25,0,0,1,.152.063,40.833,40.833,0,0,0,3.217,5.638,29.773,29.773,0,0,0,4.151,4.873c.281.222.652.511,1.039.782a14.255,14.255,0,0,0,2.462,1.584,14.1,14.1,0,0,1,2.121,1.332.125.125,0,0,1-.021.059l.028.025.029.027.43.207a2.312,2.312,0,0,1,.341.361,2.377,2.377,0,0,1,.283.408.2.2,0,0,1-.017.169.1.1,0,0,1-.084.036.29.29,0,0,1-.116-.03c-.049-.017-.1-.035-.146-.054h0l-.075-.028,0,.005a.047.047,0,0,0,.007.009c.022.033.119.263.079.338a.045.045,0,0,1-.043.024.12.12,0,0,1-.037-.007l-.022-.009c-.077-.028-.154-.059-.229-.089l-.079-.032c.094.117.182.244.26.356l0,0,.064.091a.72.72,0,0,1,.192.378c0,.07-.038.105-.1.105l-.027,0c-.118-.039-.237-.08-.363-.127l.034.066c.066.13.137.3.1.354a.044.044,0,0,1-.041.02.186.186,0,0,1-.07-.019c-.167-.052-.343-.116-.538-.195a.048.048,0,0,1-.046.029.143.143,0,0,1-.058-.016,10.85,10.85,0,0,1-1.627-.736c-.276-.2-.558-.4-.83-.6l-.548-.394a10.658,10.658,0,0,1-1.248-.875A27.208,27.208,0,0,1,29.4,80.65a5.278,5.278,0,0,1-3.569,1.155,14.932,14.932,0,0,1-4.944-1.023,33.334,33.334,0,0,1-4.605-2.117,8.832,8.832,0,0,1-2.172-1.689,9.393,9.393,0,0,1-1.5-2.164,12.3,12.3,0,0,1-.93-2.515,17.569,17.569,0,0,1-.46-2.741,10.627,10.627,0,0,0-.666-2.464c-.3-.763-.665-1.491-1.051-2.261a25.233,25.233,0,0,1-2-4.931,28.325,28.325,0,0,1-.827-8.2.066.066,0,0,1-.021,0,2.149,2.149,0,0,1-.432-.18,2.155,2.155,0,0,1-.4-.245l-.154-.213a1.306,1.306,0,0,1-.206-.138l-.028.037c-.02.025-.034.037-.042.037l0,0c-.008-.011,0-.056.014-.09,0-.014.007-.026.008-.032l-.267-.365c-.357-.489-.733-1.01-1.1-1.514h0c-.283-.392-.55-.762-.8-1.1l-.018.032c-.012.023-.019.04-.014.048a22.694,22.694,0,0,1-1.857-3.155,12.489,12.489,0,0,1-1.11-3.4,9.757,9.757,0,0,1-.237-2.634,14.233,14.233,0,0,1,.347-2.538A71.332,71.332,0,0,1,5.1,24.173a53.58,53.58,0,0,1,3.908-6.668A26.354,26.354,0,0,1,13.7,12.229,12.017,12.017,0,0,1,16.285,10.3a38.058,38.058,0,0,1,4.086-2.046A93.465,93.465,0,0,1,31.713,4.277,125.987,125.987,0,0,1,45.066,1.222c2.3-.391,4.519-.693,6.6-.9C53.857.109,55.911,0,57.773,0a36.935,36.935,0,0,1,4.41.242L62.62.3a25.841,25.841,0,0,1,3.442.676A29.19,29.19,0,0,1,76.523,5.3c.509.358,1.229.755,2.063,1.215a23.09,23.09,0,0,1,4.961,3.33,6.7,6.7,0,0,1,.874,1.046,4.168,4.168,0,0,1,.54,1.139,3.241,3.241,0,0,1,.112,1.236,3.849,3.849,0,0,1-.41,1.336,7.938,7.938,0,0,1,.85,2.67,5.742,5.742,0,0,1-.243,2.652,6.268,6.268,0,0,1-.468,1.617,47.066,47.066,0,0,1,4.522,8.818,101.614,101.614,0,0,1,2.493,11.336,86.932,86.932,0,0,1,1.074,11.449,100.423,100.423,0,0,1-.078,11.181c-.132,1.967-.336,3.876-.606,5.671a54.791,54.791,0,0,1-1.12,5.558,43.167,43.167,0,0,1-1.738,5.319,34.94,34.94,0,0,1-2.457,4.954,29.954,29.954,0,0,1-3.28,4.464,28.221,28.221,0,0,1-4.2,3.849,20.281,20.281,0,0,1-6.1,3.248A21.951,21.951,0,0,1,66.361,98.5ZM50.2,90.619h0l.074.093a.629.629,0,0,0,.144.136.117.117,0,0,1,0-.047c-.043-.033-.087-.069-.131-.107ZM9.536,36.593a58.436,58.436,0,0,1-.086,7.846c-.087,1.507-.176,3.065-.181,4.611a31.3,31.3,0,0,0,.314,4.736,25.593,25.593,0,0,0,1.3,5.089,31.967,31.967,0,0,0,2.773,5.669,14.121,14.121,0,0,1,1.534,4.963,17.947,17.947,0,0,0,.424,2.078,5.891,5.891,0,0,0,.885,1.871c.941,1.3,2.573,2.3,5.135,3.158l.229.088a17.823,17.823,0,0,0,2.086.664,8.889,8.889,0,0,0,2.107.279,5.771,5.771,0,0,0,1.214-.124l-.155-.252c-.1-.17-.152-.272-.127-.355a.253.253,0,0,1,.151-.141.29.29,0,0,0-.014-.025l-.009-.015c-.193-.365-.373-.723-.536-1.065-.056.019-.111.033-.17.048l-.041.011a.159.159,0,0,1,.022.138.133.133,0,0,1-.1.065,3.675,3.675,0,0,1-1.2.2c-.077,0-.155,0-.232-.007l-.1-.008a4.8,4.8,0,0,1-1.21-.228l-.013,0c-.1-.016-.2-.032-.295-.053a7.142,7.142,0,0,1-2.745-1.348,9.359,9.359,0,0,1-2.714-2.354,11.449,11.449,0,0,1-1.75-3.176,14.123,14.123,0,0,1-.594-7.332,11.153,11.153,0,0,1,2.481-5.346,8.5,8.5,0,0,1,2.26-1.831,8.659,8.659,0,0,1,2.942-.984,50.578,50.578,0,0,1,.938-8.167,74.387,74.387,0,0,1,2.435-9.354A67.522,67.522,0,0,1,30.3,26.669a42.643,42.643,0,0,1,5.05-7.915c2.744-3.379,7.612-6.215,14.077-8.2a62.029,62.029,0,0,1,9.353-2.062,66.851,66.851,0,0,1,9.469-.69c1.843,0,3.626.084,5.3.25l.564.189a17.087,17.087,0,0,1,3.486.82c.777.241,1.58.49,2.387.658a14,14,0,0,0-2.269-1.373,24.53,24.53,0,0,0-2.45-1.023,26.338,26.338,0,0,0-5.278-2.434A46.928,46.928,0,0,0,64.441,3.4a10.683,10.683,0,0,0-2.324-.309c-1.442-.124-2.934-.187-4.435-.187A68,68,0,0,0,45.246,4.144C41.7,4.8,37.939,5.7,33.065,7.068l-.651.188c-.528.151-1.061.3-1.577.447-4.869,1.372-9.9,2.79-14,5.755A24.207,24.207,0,0,0,14.6,15.41a27.428,27.428,0,0,0-1.981,2.181A35.6,35.6,0,0,0,9.3,22.476c-.892,1.558-1.764,3.3-2.665,5.314C5.8,29.676,5.03,31.575,4.378,33.206a13.533,13.533,0,0,0-1.183,4.062A13.271,13.271,0,0,0,3.3,41.307a13.135,13.135,0,0,0,1.281,3.739,12.679,12.679,0,0,0,2.332,3.161A60.679,60.679,0,0,1,9.015,37.4a2.635,2.635,0,0,0,.123-.418c.054-.241.076-.34.4-.39ZM32.421,68.05c-.134,0-.444-.27-.68-.5a.285.285,0,0,1-.021.212.075.075,0,0,1-.06.025c-.112,0-.326-.163-.653-.5-.109-.112-.212-.224-.3-.313a1.491,1.491,0,0,0-.182-.186,20.775,20.775,0,0,0-3.958-2.427,13.311,13.311,0,0,0-4.385-1.278l-.1-.011c-.352-.045-.547-.126-.613-.255a.318.318,0,0,1,.035-.3.941.941,0,0,1-.353-.147c-.082-.064-.094-.123-.09-.16.01-.086.112-.148.243-.148h.014c-.156-.1-.225-.216-.194-.319a.292.292,0,0,1,.284-.172.317.317,0,0,1,.124.024.245.245,0,0,1-.006-.218.192.192,0,0,1,.168-.061,1.266,1.266,0,0,1,.223.027l.03.006a.956.956,0,0,0,.149.022.055.055,0,0,0,.039-.01c.127-.2.235-.291.331-.291a.181.181,0,0,1,.105.039l.016.012h0a.1.1,0,0,0,.049.026c.012,0,.022-.009.03-.03a.865.865,0,0,1,.37-.131.188.188,0,0,1,.1.029l.014.009a.09.09,0,0,0,.047.02.075.075,0,0,0,.041-.015c.161-.013.326-.02.49-.02a7.712,7.712,0,0,1,2.689.526,12.475,12.475,0,0,1,2.574,1.352,17.3,17.3,0,0,1,2.275,1.84,17.513,17.513,0,0,1,1.794,1.991.114.114,0,0,1-.086.035c-.179,0-.466-.307-.575-.423l0,0L32.39,66.3a.1.1,0,0,1-.036.023l.058.082c.18.258.258.415.232.465a.035.035,0,0,1-.034.017,1.91,1.91,0,0,1-.623-.417,3.257,3.257,0,0,1-.56-.574.135.135,0,0,1-.065.019l-.021,0,.088.083h0a1.958,1.958,0,0,1,.519.629l.107.09c.49.421.745.813.7.936a.055.055,0,0,1-.057.035c-.143,0-.465-.255-.863-.682a.184.184,0,0,1,.019.152l.04.026c.32.224.624.692.581.829A.049.049,0,0,1,32.421,68.05Zm-12.052-33a1.008,1.008,0,0,1-.512-.133L19.1,34.4c-1.235-.829-2.465-1.639-3.94-2.444a1.209,1.209,0,0,1-.763-.969.678.678,0,0,1,.477-.591,2.554,2.554,0,0,1,.868-.128,7.818,7.818,0,0,1,5.187,2.255,2.179,2.179,0,0,1,.6,1.786A1.284,1.284,0,0,1,20.369,35.049Zm6.417-7.917a2.921,2.921,0,0,1-1.738-.6l-.691-.451c-1.443-.947-2.534-1.7-3.334-2.3-1.092-.823-1.614-1.348-1.551-1.559.022-.073.113-.11.271-.11a20.914,20.914,0,0,1,4.963,1.654c.245.105.5.2.777.3a3.99,3.99,0,0,1,2.285,1.448,1.217,1.217,0,0,1,.086,1.176A1.194,1.194,0,0,1,26.786,27.132Zm5.57-8.057a1.977,1.977,0,0,1-1.007-.286,43.3,43.3,0,0,0-3.891-2.183c-.661-.341-1.344-.694-1.992-1.052a.32.32,0,0,1,.036-.287.683.683,0,0,1,.547-.163,15.385,15.385,0,0,1,3.6.892l.327.108.165.063.316.116.006,0a5.036,5.036,0,0,1,2.57,1.552.9.9,0,0,1,.127.888A.881.881,0,0,1,32.356,19.075Zm6.807-6.616a5.425,5.425,0,0,1-3.112-1.428c-.364-.27-.739-.548-1.119-.779-.37-.4-.52-.693-.448-.858.048-.109.194-.164.434-.164a12.815,12.815,0,0,1,4.366,1.536l.024.018a.986.986,0,0,1,.411.9.931.931,0,0,1-.5.773Zm7.5-3.633a2.251,2.251,0,0,1-.933-.244,5.887,5.887,0,0,1-1.263-.843,6.772,6.772,0,0,1-.986-.823c-.182-.2-.258-.352-.225-.454s.169-.152.405-.152a8.876,8.876,0,0,1,3.387,1.112A.932.932,0,0,1,47.4,8.4.725.725,0,0,1,46.663,8.826Z" transform="translate(-3.162 10.779)"/>
  </g>
  <g id="FACE" transform="translate(112.183 77.354)">
    <path id="_Ink-3" data-name="ðŸ– Ink" d="M28.653,39.463l-.155,0c-.718-.025-1.448-.114-2.154-.2-.681-.083-1.384-.169-2.079-.2-.881-.036-1.773-.055-2.653-.055-.571,0-1.148.008-1.717.023-.414.011-.839.042-1.249.072-.522.038-1.062.077-1.59.077a7.732,7.732,0,0,1-1.224-.088.431.431,0,0,1-.373-.34.677.677,0,0,1,.241-.674,9.4,9.4,0,0,1,3.237-1.259l.008,0,.247-.063a27.887,27.887,0,0,1,3.681-.693,36.273,36.273,0,0,1,3.785-.235H26.7c.2,0,.4.014.617.029h.011c.214.014.435.029.651.029a2.867,2.867,0,0,0,.518-.041,2.2,2.2,0,0,0,.451-.157,2.647,2.647,0,0,1,.43-.156,1.952,1.952,0,0,1,.442-.052,1.7,1.7,0,0,1,.744.167,1.672,1.672,0,0,1,.572.451,1.861,1.861,0,0,1,.363,1.556,1.949,1.949,0,0,1-.387.841,2.228,2.228,0,0,1-.683.56A3.779,3.779,0,0,1,28.653,39.463Zm-3.047-13h0a7.373,7.373,0,0,1-2.63-.53,13.282,13.282,0,0,1-3.093-1.756,1.189,1.189,0,0,1-.432-.687,1.423,1.423,0,0,1,.061-.771,1.754,1.754,0,0,1,.521-.753,1.267,1.267,0,0,1,.811-.317,1.151,1.151,0,0,1,.628.193l.21.162h0a16.743,16.743,0,0,0,1.936,1.347,4.768,4.768,0,0,0,2.321.74,2.505,2.505,0,0,0,.981-.193,2.74,2.74,0,0,0,.913-.647A2.8,2.8,0,0,0,28.365,21a4.261,4.261,0,0,0-1.13-2,8.24,8.24,0,0,0-1.711-1.381.531.531,0,0,1-.143-.61.8.8,0,0,1,.264-.38.809.809,0,0,1,.5-.167,1.075,1.075,0,0,1,.182.016,5.736,5.736,0,0,1,2.018.729,4.578,4.578,0,0,1,1.357,1.252,4.974,4.974,0,0,1,.866,3.322,5.475,5.475,0,0,1-.444,1.744,5.087,5.087,0,0,1-1,1.5A4.779,4.779,0,0,1,25.606,26.467ZM10.932,16.422a1.908,1.908,0,0,1-1.066-.3,2.312,2.312,0,0,1-.842-.834,2.431,2.431,0,0,1-.391-1.254c-.337.088-.682.187-1.015.284-.634.183-1.288.373-1.931.492a1.519,1.519,0,0,1,.106.115.045.045,0,0,1,0,.047.036.036,0,0,1-.031.023.034.034,0,0,1-.021-.008l-.493-.109c-.167.022-.316.037-.455.046l0-.013a.344.344,0,0,1-.308-.207.3.3,0,0,1,.074-.336,10.1,10.1,0,0,1,3.458-2.038l1.19-.488a23.12,23.12,0,0,1,4.741-1.464,2.057,2.057,0,0,1,.336-.029,1.428,1.428,0,0,1,1.062.429,1.492,1.492,0,0,1,.4.959,1.459,1.459,0,0,1-.316,1,1.566,1.566,0,0,1-1.092.543c-.453.046-.917.086-1.326.122a2.231,2.231,0,0,1,.087.426c.019.116.034.244.048.406a1.807,1.807,0,0,1-.284,1.09,2.341,2.341,0,0,1-.8.8A2.293,2.293,0,0,1,10.932,16.422Zm22.2-.295a1.671,1.671,0,0,1-.842-.226,1.945,1.945,0,0,1-.941-1.364,3.25,3.25,0,0,1,0-1.291.933.933,0,0,1,.177-.415c-.144-.036-.274-.067-.4-.095a13.239,13.239,0,0,0-2.071-.25c-.47-.031-.957-.064-1.438-.133a.13.13,0,0,1-.1-.118.143.143,0,0,1,.07-.154A11.275,11.275,0,0,1,31,11.331l.122-.014a16.438,16.438,0,0,1,1.875-.1c.8,0,1.613.045,2.306.087a1.494,1.494,0,0,1,1.073.467,1.342,1.342,0,0,1,.306.926,1.482,1.482,0,0,1-1.348,1.513,1.433,1.433,0,0,1-.554-.119,1.344,1.344,0,0,1,.01.369,1.742,1.742,0,0,1-.825,1.439A1.664,1.664,0,0,1,33.127,16.128ZM1.345,9.6A4.848,4.848,0,0,1,.72,9.545a4.954,4.954,0,0,0-.643-.053A.075.075,0,0,1,0,9.435a.081.081,0,0,1,.034-.091,6.6,6.6,0,0,0,.623-.463A5.325,5.325,0,0,1,1.5,8.294c.538-.287,1.114-.589,1.761-.923,1.231-.635,2.429-1.352,3.486-1.985,1.28-.766,2.44-1.521,3.546-2.306.349-.248.7-.529,1.032-.8A9.322,9.322,0,0,1,13.741.7a1.429,1.429,0,0,1,.512-.091,2.119,2.119,0,0,1,1.72,1,1.877,1.877,0,0,1,.237,1.245,2.322,2.322,0,0,1-.546,1.151A9.209,9.209,0,0,1,12.512,5.96c-.232.105-.451.2-.661.3l-.1.048c-1.317.636-2.633,1.2-3.913,1.673a34.778,34.778,0,0,1-4.018,1.19,19.3,19.3,0,0,1-2.172.4A2.471,2.471,0,0,1,1.345,9.6Zm37.614-.309a22.517,22.517,0,0,1-4.424-.4,16.643,16.643,0,0,1-4.214-1.42,11.926,11.926,0,0,1-1.97-1.185,5.834,5.834,0,0,1-1.541-1.688,4.279,4.279,0,0,1-.541-1.646,3.184,3.184,0,0,1,.219-1.664,2.1,2.1,0,0,1,.6-.787A2.462,2.462,0,0,1,28.557,0a2,2,0,0,1,1.151.347,1.825,1.825,0,0,1,.709,1,4.655,4.655,0,0,1,.15.761,1.493,1.493,0,0,0,.6,1.137,23.642,23.642,0,0,0,1.924,1.555l.974.724A28.829,28.829,0,0,0,39.633,8.95a.144.144,0,0,1,.086.17.2.2,0,0,1-.176.163C39.347,9.286,39.151,9.288,38.959,9.288Z" transform="translate(10.563 12.892)"/>
  </g>
</svg>
