<svg id="peep-92" xmlns="http://www.w3.org/2000/svg" width="240" height="324" viewBox="0 0 240 324">
  <g id="BODY" transform="translate(31.056 135.053)">
    <path id="_Skin" data-name="âœ‹ Skin" d="M10.07,157.667c27.6,4.194,55.7,4.4,83.533,2.882a194.276,194.276,0,0,1,33.068.081c6.5.484,35.016,2.664,37.345-3.163-1.466-31.027-4.436-62.319-13.546-92.159-3.746-10.6-6.964-19.39-14.276-28.158-2.3-2.394-7.274-7.415-10.122-9.052-2.467-1.418-3.5-.912-4.915-3.308-1.408-2.647-2.446-7.067-4.445-8.934-2.035-1.9-5.051-1.221-8.79-.609.687-9.285-3.6-11.649-9.5-13.415C88.049-2.129,77.8-.14,75.193,12.494c-4.841,0-7.561,2.084-10.5,4.087-1.2.819-.366,2.9-1.8,3.548-2.656.946-7.349.714-9.907,1.879C41.355,27.3,31,34.979,24.2,46.192,8.946,70.131-1.529,120.558.283,148.931c-.794,1.246.3,3.032.583,4.372a2.55,2.55,0,0,0,2.684,1.808C5.213,156.9,7.783,157.3,10.07,157.667Z" transform="translate(6.338 -6.763)" fill="#d08b5b"/>
    <path id="_Top" data-name="ðŸ‘• Top" d="M67.493,2.777A9.532,9.532,0,0,1,74.385,0l.118,0,.857.038-.573,2.812-.029.133-.117.488-.156.639-.055.235-.058.26-.027.125-.026.123-.244,1.195.046.106-.013.271c-.038.981.173,1.521.639,1.694l.037.013.266.085.217.47c.5,1.076.964,2.016,1.442,2.9a65.207,65.207,0,0,0,4.971,7.755q2.731,3.7,5.689,7.049c.887,1,1.823,2.012,2.82,3.039l.858.879.273.276.184.183.229.224.33.315.239.235.078.074a1.77,1.77,0,0,0,.241.2l.025.016.075.045L96.7,36.065l1.405.773.667.37.135-.269.027-.086,1.479-3.248.9-1.989c1.853-4.093,3.295-7.349,4.613-10.449l.164-.387.486-1.154.257-.615c1.178-2.825,2.049-5.005,2.828-7.124l.111-.3.164-.453.244-.683.044-.117c.212-.542-.308-2.512-.82-3.591l-.029-.06-.133-.267-.144-.282a9.764,9.764,0,0,1-.79-2.283q-.05-.216-.094-.434l-.043-.22-.027-.144-.038-.2-.054-.289,1.146-.192.629-.1.274-.043c.355-.055.671-.1.969-.138l.111-.014.2-.024.007.039.409.04.3.031a29.571,29.571,0,0,1,3.467.526l.081.019.146.037.067.018a3.119,3.119,0,0,1,1.773,1.273,7.362,7.362,0,0,1,.834,1.654l.115.287.381.942q.067.172.207.55l.323.88,1.62,4.475,1.658.872c.771.4,1.334.694,1.612.832l.1.048.071.032.571.227-.061.178.069.039c6.824,3.927,12.087,9.969,16.185,17.989l.124.244.127.252c3.266,6.533,5.605,13.824,7.889,23.557l.141.605.111.481.6,2.6c2.238,9.807,3.775,17.121,5.048,24.3l.083.468.212,1.219q2.4,13.932,4.007,27.606l.178,1.534c.447,3.916.85,7.964,1.288,12.825l.059.653.193,2.183q.308,3.529.563,7.044l.083,1.171.171,2.546.1,1.451.012.2.041.756.011.177c.015.227.033.419.055.6l.017.13.019.127a3.134,3.134,0,0,0,.353,1l.048.087.317.567-.575.3c-3,1.58-8.9,2.275-17,2.311h-.752c-3.934,0-8.1-.154-12.454-.413l-.984-.06-.821-.052-1.055-.071-.548-.038-2.288-.167a192.825,192.825,0,0,0-32.972-.079c-31,1.7-57.758.981-82.908-2.775l-.762-.115-.561-.091-.335-.056c-2.668-.456-4.343-1.04-5.65-2.265l-.068-.065-.057-.056H3.352a3.194,3.194,0,0,1-2.968-2.137l-.023-.068-.029-.095-.02-.094c-.021-.091-.047-.19-.078-.3l-.025-.083L0,140.267l.7-.128A.3.3,0,0,0,.884,140l.058-.083.1-.14.244-.334a2.671,2.671,0,0,0,.451-.823,3,3,0,0,0,.071-.827l0-.177-.028-.642c0-.052,0-.1,0-.14v-.969l0-.994c0-.434,0-.857.007-1.272l.006-.618.006-.5q.051-4.13.242-8.251.375-8.044,1.285-16.051A242.17,242.17,0,0,1,9.1,76.164l.262-1.031a173.453,173.453,0,0,1,9-27.4c4.4-10,9.759-18.234,16.51-24.814a54.356,54.356,0,0,1,12.19-9.015,52.993,52.993,0,0,1,6.434-2.893l.328-.122.53-.194.406-.15,1.309-.489c.275-.1.575-.219.929-.358l.219-.087,2.345-.936.389-.153.433-.168.318-.122c.52-.2.991-.372,1.429-.524l.258-.089.235-.079,1-.346-.02.911A1.757,1.757,0,0,0,64.094,9.5l.012.01.012.01.011.007.061,0h.236a.412.412,0,0,0,.069-.047c.337-.286.493-.669.645-1.549l.04-.245.07-.458.028-.173a4.984,4.984,0,0,1,.361-1.333,7.848,7.848,0,0,1,.961-1.6L66.689,4l.36-.433L67.1,3.5a1.091,1.091,0,0,0,.218-.381l.006-.028.036-.182Z" transform="translate(6.338 4.851)" fill="#ffcf77"/>
    <path id="_Ink" data-name="ðŸ– Ink" d="M165.324,152.975a1.642,1.642,0,0,1-1.347-.714l-.164-.252a4.681,4.681,0,0,1-.8-1.842,13.807,13.807,0,0,1-.131-1.492c-.011-.213-.022-.433-.038-.647-.052-.724-.1-1.454-.148-2.16v-.017c-.038-.565-.076-1.149-.117-1.723-.19-2.714-.407-5.474-.645-8.2-.739-8.463-1.242-13.084-1.6-16.165-1.078-9.347-2.465-18.963-4.12-28.583-1.638-9.518-3.714-18.89-5.714-27.6l-.218-.948c-1.111-4.828-2.146-8.723-3.255-12.258A82.79,82.79,0,0,0,142.3,38.358a56.684,56.684,0,0,0-3.135-5.556,45.354,45.354,0,0,0-3.772-5.062,38.288,38.288,0,0,0-4.5-4.425,35.1,35.1,0,0,0-5.314-3.644.131.131,0,0,1-.07-.152.155.155,0,0,1,.22-.1,38.64,38.64,0,0,1,10.854,7.7,49.594,49.594,0,0,1,8.029,10.664A74.006,74.006,0,0,1,150.2,50.534c1.584,4.646,2.831,9.389,3.843,13.415l.081.323c2.186,8.727,4.237,18.193,6.271,28.938.908,4.8,1.757,9.765,2.522,14.769.736,4.813,1.419,9.807,2.028,14.846.656,5.423,1.159,10.245,1.536,14.74.206,2.459.4,4.944.562,7.385.078,1.138.137,2.077.185,2.956l.039.74c.005.106.012.214.018.318a5.523,5.523,0,0,1-.071,1.687,6.247,6.247,0,0,1-.568,1.335c-.044.085-.094.181-.142.276A1.282,1.282,0,0,1,165.324,152.975Zm-129.375-.492a1.11,1.11,0,0,1-.7-.274l-.132-.1-.093-.073,0,0a3.112,3.112,0,0,1-.992-1.069,6,6,0,0,1-.513-2.367l0-.02c-.076-.948-.056-1.921-.036-2.862.006-.3.013-.608.016-.914.025-2.5.061-5.038.1-7.551.177-10.1.526-19.149,1.066-27.675.288-4.539.674-8.918,1.148-13.016l.1-.81c.073-.615.144-1.24.212-1.843.075-.661.152-1.344.234-2.021A28.466,28.466,0,0,1,30.237,86a.181.181,0,0,1-.02-.194.167.167,0,0,1,.144-.1.16.16,0,0,1,.115.054,22.236,22.236,0,0,0,2.865,2.5,23.967,23.967,0,0,0,3.225,1.98A36.937,36.937,0,0,1,38.4,82.3a.215.215,0,0,1,.2-.134.16.16,0,0,1,.163.134,38.843,38.843,0,0,1,.676,7.144q.007.22.014.44c.072,2.192.086,4.587.043,7.538-.1,7.151-.283,14.415-.456,21.44l0,.093c-.049,2.009-.1,4.087-.149,6.13-.1,4.062-.206,8.884-.291,13.841-.029,1.7-.055,3.448-.076,5.191l-.025,2.282a27.85,27.85,0,0,1-.162,3.014,4.291,4.291,0,0,1-.62,1.864,2.639,2.639,0,0,1-.757.712c-.077.055-.156.111-.233.17l-.067.052A1.133,1.133,0,0,1,35.949,152.483ZM96.271,151a.429.429,0,0,1-.451-.34,74.624,74.624,0,0,1-.7-9.749v-.023c-.013-.46-.026-.935-.04-1.4l-.024-.745c-.139-4.042-.2-8.08-.188-12,.042-11.765.306-23.721.561-35.284v0l0-.072c.053-2.421.109-4.925.161-7.387.041-1.921.079-3.874.115-5.764v-.051c.1-5.133.2-10.441.375-15.662.129-3.892.263-7.405.411-10.739l.014-.307v0c.065-1.469.132-2.988.232-4.481l.048-.684c.016-.221.031-.443.046-.658v0c.015-.216.03-.44.046-.661a2.464,2.464,0,0,1-.848.15,5.653,5.653,0,0,1-2.589-.932c-.2-.112-.414-.228-.619-.334l-1.228-.632-.091-.047c-1.032-.532-2.1-1.081-3.164-1.628l-1.5-.766L83.848,39.26l-.335-.173h0a4.9,4.9,0,0,0-2.2-.757,2.6,2.6,0,0,0-1.29.365A73.807,73.807,0,0,0,65.766,49.53a1.8,1.8,0,0,1-1.228.454,1.761,1.761,0,0,1-1-.294,1.32,1.32,0,0,1-.557-.9,37.385,37.385,0,0,1-.414-3.966c-.067-1.248-.084-2.55-.052-3.982.059-2.657.282-5.355.5-7.963l0-.042q.036-.434.071-.867l.168-2.076c.182-2.215.411-4.83.723-7.428l.014-.113v0c.126-1.048.256-2.131.4-3.195l.112-.827c.033-.238.065-.48.1-.714v-.006a18.768,18.768,0,0,1,.595-3.138.9.9,0,0,1-.347-.205,2.482,2.482,0,0,1-.675-2.1,7.773,7.773,0,0,1,.6-2.258,10.007,10.007,0,0,1,2.338-3.421,1.278,1.278,0,0,1,.84-.359,12.6,12.6,0,0,1,2.715-1.388,8.549,8.549,0,0,1,2.863-.517,7.7,7.7,0,0,1,2.328.363c.1-.454.17-.8.242-1.121l.086-.372c.047-.2.087-.429.13-.671a9.689,9.689,0,0,1,.306-1.347A2.139,2.139,0,0,1,77.279.023.1.1,0,0,1,77.341,0a.064.064,0,0,1,.05.023A2.765,2.765,0,0,1,77.8,1.865c0,.129,0,.251,0,.372l0,.069c.031.942.043,1.941.039,3.241L77.836,8.99c0,.175-.006.356-.012.532-.009.3-.019.611,0,.911l.013.184a1.135,1.135,0,0,1,.3,1.049,1.487,1.487,0,0,1-.66,1.182l.819,1.163.82,1.162c2.047,2.9,3.644,5.1,5.179,7.106,1.755,2.3,3.7,4.608,5.78,6.865,1.064,1.155,2.055,2.193,3.028,3.171.29.292.589.583.879.864l.394.383.422.418c.058.058.117.114.18.173h0a2.583,2.583,0,0,1,.548.639,1.93,1.93,0,0,1,.117.515,1.171,1.171,0,0,0,.038.207,1.2,1.2,0,0,1-.1,1.1.8.8,0,0,1-.678.4.906.906,0,0,1-.327-.065l.04-.027c.053-.037.077-.062.073-.075s-.013-.011-.032-.011a1.7,1.7,0,0,0-.352.081,1.412,1.412,0,0,1-.654-.16l-.061-.033a2.874,2.874,0,0,1-.656-.536l-.119-.117-.058-.055c-.451-.423-.891-.874-1.316-1.31l-.235-.241c-1.126-1.151-2.145-2.244-3.115-3.342-1.967-2.227-3.892-4.613-5.724-7.092a66.179,66.179,0,0,1-5.019-7.83c-.5-.935-1-1.937-1.56-3.154a1.454,1.454,0,0,1-.938-.919,3.8,3.8,0,0,1-.172-1.547,14.28,14.28,0,0,1-.857-2.514.141.141,0,0,1,.131-.166.111.111,0,0,1,.084.041,13.833,13.833,0,0,1,.86,1.1c.094-.461.2-.9.3-1.28v0c.07-.283.13-.528.172-.728l.423-2.077c-.133-.007-.27-.011-.408-.011a9.02,9.02,0,0,0-3.386.684,8.33,8.33,0,0,0-2.847,1.9,2.158,2.158,0,0,1-.566.942h0c-.065.077-.133.157-.2.241a7.3,7.3,0,0,0-.966,1.573,6.361,6.361,0,0,0-.382,1.61,3.659,3.659,0,0,1-.931,2.374,1.054,1.054,0,0,1-.365.2,27.39,27.39,0,0,1,.3,6.029v0c-.014.576-.028,1.172-.03,1.745v.223c0,2.961-.1,5.941-.2,8.5l-.111,2.8a82.783,82.783,0,0,0,.125,11.192c1.654-1.466,3.385-2.88,5.144-4.205,1.158-.872,2.358-1.727,3.565-2.54l.984-.658.041-.028a24.084,24.084,0,0,1,3.635-2.143,5.045,5.045,0,0,1,2.063-.443,6.753,6.753,0,0,1,2.86.716c1.113.519,2.219,1.1,3.289,1.669h0c.491.259,1,.528,1.5.785,1.237.637,2.493,1.278,3.707,1.9l.174.089.982.5c.26.133.547.262.851.4a6.723,6.723,0,0,1,2.585,1.657c.052-.233.112-.458.177-.669a1.478,1.478,0,0,1,.142-1.054c2.577-4.737,4.934-9.516,7.528-14.824.6-1.233,1.2-2.493,1.779-3.712l0-.006c.6-1.269,1.224-2.582,1.854-3.866l1.2-2.451c.241-.491.427-.869.6-1.224s.357-.708.532-1.053c.129-.252.262-.513.391-.77.06-.119.128-.24.194-.358v0c.076-.135.154-.274.221-.412l.06-.13c0-.006.219-.687.134-.818a.043.043,0,0,0-.038-.021.077.077,0,0,0-.027.006l-.019.009a.116.116,0,0,1-.057.016.1.1,0,0,1-.09-.06.119.119,0,0,1,.015-.127.41.41,0,0,1,.323-.173.816.816,0,0,1,.618.492c.4.8-.1,1.949-.5,2.875-.1.235-.2.457-.268.652l-.019.053c-1.124,3.183-2.391,6.275-3.593,9.143-2.319,5.534-4.845,11.08-7.288,16.444l-.348.765-.031.1c.316-.243.645-.472.962-.694h0c.243-.17.473-.33.691-.492,1.3-.967,2.69-1.913,3.912-2.749,2.218-1.516,4.641-3.042,7.406-4.666l.5-.3a11.135,11.135,0,0,1,1.629-.812,4.854,4.854,0,0,1,1.738-.341,4.326,4.326,0,0,1,.629.046,11.228,11.228,0,0,1,3.283,1.236c.213.106.432.216.646.319l.129.062,3.871,1.841c-.379-1.514-.814-3.127-1.329-4.931-.9-3.145-1.909-6.34-3-9.5-.98-2.827-2.052-5.675-3.277-8.708l-.35-.863-.038-.1-.011-.029a8.252,8.252,0,0,0-.806-1.657A2.516,2.516,0,0,0,115.828,8.1a5.84,5.84,0,0,0-1.517-.145h-.405a4.035,4.035,0,0,1-2.22-.451.165.165,0,0,1-.073-.166.147.147,0,0,1,.111-.123l.763-.192a13.887,13.887,0,0,1,3.234-.509,5.006,5.006,0,0,1,1.234.141,4.781,4.781,0,0,1,1.989,1.11,6.966,6.966,0,0,1,1.42,1.792,29.281,29.281,0,0,1,1.612,3.666c.113.293.23.6.348.894l.1.24c.7,1.745,1.372,3.5,2,5.214,1.257,3.447,2.43,7.015,3.486,10.6.481,1.636.955,3.331,1.448,5.182.069.261.162.55.26.856v0c.091.282.184.574.27.875a5.012,5.012,0,0,1,.583.68.726.726,0,0,1,.131.561.979.979,0,0,1-.422.614,2.243,2.243,0,0,1-.341,1.191,1.871,1.871,0,0,1-1.574.829,1.666,1.666,0,0,1-1.213-.486,1.528,1.528,0,0,1-.392-1.165,1.449,1.449,0,0,1,.29-.776l0-.037-.019-.067c-.238-.114-.472-.233-.719-.359h0c-.176-.09-.358-.183-.543-.274L121.592,35.8c-.314-.155-.63-.329-.966-.514a9.492,9.492,0,0,0-2.824-1.189,2.189,2.189,0,0,0-.364-.03,5.812,5.812,0,0,0-2.625.97c-.2.111-.384.215-.566.311l-.068.035c-2.772,1.421-5.493,2.882-7.555,4-.711.384-1.429.784-2.122,1.171l-.009.005c-.5.277-1.01.563-1.517.841-.28.153-.56.322-.856.5h0a10.108,10.108,0,0,1-2.406,1.177,1.233,1.233,0,0,1-.771.271,1.469,1.469,0,0,1-.766-.23A23.857,23.857,0,0,1,98.4,46.1c.011.341.023.693.04,1.041.073,1.494.095,3.016.116,4.488,0,.308.009.627.014.94l.012.678c.074,3.83.117,7.756.133,12,.035,9.078-.018,18.307-.068,27.233-.029,5.083-.059,10.339-.072,15.511-.016,6.261-.123,12.885-.346,21.477-.082,3.169-.261,6.352-.422,9.088l-.1,1.651c-.029.495-.058,1-.085,1.484a69.959,69.959,0,0,1-.89,8.96A.447.447,0,0,1,96.271,151Zm6.5-.51a2.192,2.192,0,0,1-.569-.077,2.144,2.144,0,0,1-1.5-2.636l.052-.124a2.206,2.206,0,0,1,1.537-1.538,2.175,2.175,0,0,1,.577-.077,2.192,2.192,0,0,1,2.134,1.639,2.2,2.2,0,0,1-1.462,2.661l-.079.024-.124.052A2.195,2.195,0,0,1,102.771,150.487Zm44.492-4.65a3.718,3.718,0,0,1-.559-.048,1.589,1.589,0,0,1-1.051-.718,2.448,2.448,0,0,1-.419-1.214c-.235-4.922-.557-10.118-.986-15.883-.463-6.225-.813-12.565-1.15-18.7v-.014c-.171-3.1-.348-6.312-.537-9.466l-.2-3.282c-.194-3.231-.406-6.987-.472-10.676-.019-1.069,0-2.155.012-3.2.018-1.269.037-2.581-.005-3.87-.012-.368-.029-.75-.045-1.119a21.455,21.455,0,0,1,.233-5.561.1.1,0,0,1,.1-.072.087.087,0,0,1,.082.048,14.763,14.763,0,0,1,1.058,3.356c1.232-1.558,2.562-3.219,3.945-4.808a.137.137,0,0,1,.1-.052.167.167,0,0,1,.136.083.162.162,0,0,1,.009.161c-1.195,2.343-2.512,4.642-3.787,6.865.1.607.2,1.235.324,1.85.176.9.368,1.806.554,2.683v0c.347,1.635.706,3.326.967,5.019,1.508,9.751,2.256,19.68,2.839,28.222.63,9.229.725,18.623.818,27.708l.007.7a2.09,2.09,0,0,1-.414,1.216,1.722,1.722,0,0,1-1.056.716A2.751,2.751,0,0,1,147.264,145.836Zm-145.41-.748a.962.962,0,0,1-.766-.418l-.148-.2-.023-.031a3.485,3.485,0,0,1-.883-1.818C-.01,142.071,0,141.5.007,140.947c0-.241.007-.489.006-.733-.006-1.444.008-2.975.045-4.819.062-3.061.184-6.166.363-9.23.371-6.319.987-12.595,1.831-18.652.76-5.456,1.725-10.977,2.866-16.41,1.134-5.4,2.471-10.839,3.974-16.178,1.6-5.683,3.159-10.6,4.765-15.02a124.643,124.643,0,0,1,6.23-14.463c1.139-2.221,2.352-4.365,3.6-6.37,1.322-2.116,2.724-4.139,4.17-6.012a63.7,63.7,0,0,1,4.78-5.522,55.877,55.877,0,0,1,5.434-4.9,52.9,52.9,0,0,1,5.609-3.863A49.171,49.171,0,0,1,49.76,15.7a32.157,32.157,0,0,1,6.611-2.036,32.77,32.77,0,0,1,4.486-.406c.733-.032,1.491-.065,2.242-.124h.013a.115.115,0,0,1,.12.116.151.151,0,0,1-.132.163,27.2,27.2,0,0,0-6.275,1.8l-.006,0c-.347.13-.706.265-1.057.393l-.2.074a52.81,52.81,0,0,0-7.008,3.1A53.629,53.629,0,0,0,36.5,27.686a63.78,63.78,0,0,0-5.011,5.5,71.839,71.839,0,0,0-4.352,5.995c-1.307,2.007-2.574,4.16-3.764,6.4-1.124,2.115-2.216,4.376-3.246,6.718a138.446,138.446,0,0,0-5.223,14.046c-1.332,4.209-2.6,8.748-4,14.283C9.6,85.788,8.448,91.127,7.483,96.5c-.939,5.229-1.728,10.634-2.346,16.063-.6,5.294-1.033,10.681-1.282,16.009-.127,2.725-.208,5.493-.242,8.229-.016,1.271-.022,2.65-.021,4.217,0,.178.009.366.018.564a5.066,5.066,0,0,1-.075,1.516,4.035,4.035,0,0,1-.709,1.247c-.082.112-.16.218-.234.325A.893.893,0,0,1,1.854,145.088Zm101.018-12.279-.116,0-.068,0,.041.005-.071-.008c-.067-.006-.134-.013-.2-.022l-.058-.007-.078-.009c-.03,0-.054,0-.077,0l-.053,0c-.037,0-.076.005-.114.005a2.006,2.006,0,0,1-1.288-.586,1.936,1.936,0,0,1-.431-.644,1.6,1.6,0,0,1-.149-.758l.02-.19a2.169,2.169,0,0,1,.2-.771,2.344,2.344,0,0,1,.569-.825,2.539,2.539,0,0,1,1.732-.705h.019a2.231,2.231,0,0,1,1.17.306l.458.355c.117.151.239.308.371.48a2.047,2.047,0,0,1,.265,1.424,1.67,1.67,0,0,1-.265.83l-.349.452a2.986,2.986,0,0,1-1.021.6A1.617,1.617,0,0,1,102.872,132.809Zm-.064-24.094a2.166,2.166,0,0,1-.87-.177,2.273,2.273,0,0,1-1.047-.864l-.041-.067c-.017-.027-.033-.055-.049-.084l-.022-.043a2.332,2.332,0,0,1,.35-2.713,2.059,2.059,0,0,1,1.546-.638,2.494,2.494,0,0,1,1.167.287,2.8,2.8,0,0,1,.457.334h0l.121.1a2.264,2.264,0,0,1,.666,1.608,2.037,2.037,0,0,1-.175.869,2.3,2.3,0,0,1-.491.74l-.1.093a1.851,1.851,0,0,1-.907.492A3.384,3.384,0,0,1,102.808,108.715Zm-.96-22.851a2.112,2.112,0,0,1-.561-.075,2.153,2.153,0,0,1-1.5-1.5L99.744,84a2.563,2.563,0,0,1,.048-1.1,2.991,2.991,0,0,1,.262-.655,2.324,2.324,0,0,1,.607-.7,2.588,2.588,0,0,1,.824-.42,1.806,1.806,0,0,1,.54-.085,1.774,1.774,0,0,1,.387.043,2.279,2.279,0,0,1,1.1.458,1.172,1.172,0,0,1,.417.417,1.759,1.759,0,0,1,.416.791l.083.618-.083.618-.234.556-.195.252a2.6,2.6,0,0,1-.809.675A2.174,2.174,0,0,1,101.848,85.864ZM132.923,67.12a9.27,9.27,0,0,1-1.034-.079c-.216-.025-.439-.05-.654-.065-1.094-.073-2.214-.136-3.328-.186-2.314-.1-4.424-.158-6.451-.167l-1.031,0c-1.644,0-3.414.016-5.411.048-.61.01-1.238.033-1.845.056-.819.031-1.666.062-2.5.062a22.079,22.079,0,0,1-2.289-.105.28.28,0,0,1-.259-.245.262.262,0,0,1,.188-.28,28.591,28.591,0,0,1,5.807-1.123l.687-.085c2.146-.271,4.384-.475,6.65-.606,2.426-.139,4.672-.214,6.867-.23.341,0,.688,0,1.031,0,.538,0,1.087,0,1.631.009l.665.009c.146,0,.288,0,.426,0a3.386,3.386,0,0,1,2.52.674,1.036,1.036,0,0,1,.359.861,1.435,1.435,0,0,1-.607,1.066A2.376,2.376,0,0,1,132.923,67.12Zm-31.3-5.325h-.073a2.318,2.318,0,0,1-1.169-.317l-.469-.363a2.325,2.325,0,0,1-.6-1.023l-.083-.616a2.4,2.4,0,0,1,2.244-2.319l.073,0a2.307,2.307,0,0,1,1.1.276l.073.041.469.362a2.326,2.326,0,0,1,.6,1.023l.083.616a2.4,2.4,0,0,1-2.244,2.32ZM109.9,13.884h-.055a2.2,2.2,0,0,1-1.474-.625,3.745,3.745,0,0,1-.861-1.415,13.25,13.25,0,0,1-.606-3.391,9.657,9.657,0,0,1,.245-3A8.269,8.269,0,0,1,108.352,2.7a.657.657,0,0,1,.552-.322.771.771,0,0,1,.58.3.631.631,0,0,1,.143.527,22.909,22.909,0,0,0,.489,4.819,9.145,9.145,0,0,0,.737,2.137l.144.283a2.481,2.481,0,0,1,.191,2.673,1.723,1.723,0,0,1-.549.552A1.41,1.41,0,0,1,109.9,13.884Z" transform="translate(5.07 0.962)"/>
  </g>
  <g id="HEAD" transform="translate(78.592 38.043)">
    <path id="_Skin-2" data-name="âœ‹ Skin" d="M49.314,93.462h0a44.78,44.78,0,0,1-26.6-8.741,2.329,2.329,0,0,1-.864-1.152,1.955,1.955,0,0,1,.014-1.222A17.134,17.134,0,0,1,19.8,80.232a18.049,18.049,0,0,1-1.7-2.471,17.608,17.608,0,0,1-1.271-2.732,16.112,16.112,0,0,1-.761-2.9.883.883,0,0,0-.52-.554,3.605,3.605,0,0,0-.815-.218c-.124-.023-.241-.045-.355-.072a19.42,19.42,0,0,1-5.908-1.81A7.324,7.324,0,0,1,6.2,67.6a5.978,5.978,0,0,1-.769-1.3,6.649,6.649,0,0,1-.453-1.589,11.952,11.952,0,0,1,.007-2.69,11.422,11.422,0,0,1,.522-2.305,23,23,0,0,1,1.887-3.945c.449-.8.913-1.629,1.3-2.481a11.934,11.934,0,0,0,.892-2.724,10.391,10.391,0,0,0,.092-3.242,15.894,15.894,0,0,0-1.1-4.033,63.388,63.388,0,0,0-3.5-8.919C4.13,32.24,3.147,30.04,2.3,27.838A37.949,37.949,0,0,1,.349,21.306,19.561,19.561,0,0,1,0,18.179a13.269,13.269,0,0,1,.246-2.96,10.078,10.078,0,0,1,2.781-5.193A8.659,8.659,0,0,1,5.569,8.272a7.2,7.2,0,0,1,2.957-.656,6.36,6.36,0,0,1,1.31.136A79.872,79.872,0,0,1,44.125,0,77.007,77.007,0,0,1,62.13,2.118l.24.057A34.013,34.013,0,0,1,66.043,3.2a10.777,10.777,0,0,1,3.314,1.825,3.8,3.8,0,0,1,1.185,1.563,2.8,2.8,0,0,1,.094,1.588,10.559,10.559,0,0,1-1.687,3.3,16.492,16.492,0,0,0-1.634,2.894,5.453,5.453,0,0,0-.378,1.531,4.068,4.068,0,0,0,.172,1.6c.367.514,1.019,1.558,1.744,2.792.6,1.024,1.536,2.659,2.575,4.637a51.152,51.152,0,0,1,4.222,9.916c.686,2.862,1.134,4.375,1.3,4.375.025,0,.038-.034.046-.06,0-.011.006-.021.008-.031s.007-.029.011-.029a2.96,2.96,0,0,1,.062.469c.063.554.193,1.707.489,4.044.359,2.838.8,6.59,1.024,10.442a73.174,73.174,0,0,1-.066,10.51,49.709,49.709,0,0,1-.7,5.131,40.091,40.091,0,0,1-1.279,4.968,34.194,34.194,0,0,1-1.962,4.744,31.5,31.5,0,0,1-2.748,4.461,23.942,23.942,0,0,1-2.069,2.162,26.832,26.832,0,0,1-3.979,3.036,28.031,28.031,0,0,1-5.993,2.819A30.865,30.865,0,0,1,51.682,93.4C50.9,93.44,50.1,93.462,49.314,93.462ZM2.127,18.088a16.442,16.442,0,0,0,.364,2.706A14.113,14.113,0,0,1,3.2,18.837,1.882,1.882,0,0,1,2.127,18.088ZM8.653,8.32a6.6,6.6,0,0,0-2.174.83,8.316,8.316,0,0,0-1.847,1.5A29.368,29.368,0,0,1,8.653,8.32Z" transform="translate(9.698 10.99)" fill="#d08b5b"/>
    <path id="_Ink-2" data-name="ðŸ– Ink" d="M60.146,107.224a27.247,27.247,0,0,1-8.637-1.408,26.616,26.616,0,0,1-4.033-1.732,25.544,25.544,0,0,1-3.693-2.391,1.488,1.488,0,0,1-.49-1.745,2.29,2.29,0,0,1,.718-1.019,1.819,1.819,0,0,1,1.13-.434,1.51,1.51,0,0,1,.882.289,26.522,26.522,0,0,0,7.009,3.523,24.561,24.561,0,0,0,7.645,1.239,22.518,22.518,0,0,0,8.67-1.712A22.2,22.2,0,0,0,73.723,99.4a24.083,24.083,0,0,0,3.77-3.343A24.616,24.616,0,0,0,80.5,92a23.469,23.469,0,0,0,2.09-4.561,55.493,55.493,0,0,0,2.079-11.371c.04-.357.085-.761.13-1.155l.032-.28c.259-2.25.457-4.472.589-6.606.139-2.253.208-4.483.206-6.628s-.081-4.073-.244-5.919a49.044,49.044,0,0,0-.8-5.576,43.864,43.864,0,0,0-1.475-5.433,48.305,48.305,0,0,0-2.267-5.49,39.444,39.444,0,0,0-6.521-9.6,3.013,3.013,0,0,1-.608.057,8.163,8.163,0,0,1-1.2-.122h0c-.209-.032-.426-.064-.635-.087-.461-.05-.864-.09-1.233-.125.4.26.806.537,1.237.845l.531.384.252.18.013.009a11.788,11.788,0,0,1,2.295,1.946,3.185,3.185,0,0,1,.783,2.723,1.646,1.646,0,0,1-.486.85,1.889,1.889,0,0,1-.85.488,2.889,2.889,0,0,1-.669.08,3.4,3.4,0,0,1-1.926-.67,12.788,12.788,0,0,1-1.649-1.43c-.311-.3-.6-.587-.9-.842-1.29-1.1-2.62-2.076-3.982-3.058-.359-.257-.657-.468-.936-.664.283.331.573.684.862,1.049l.414.526.217.271a12.456,12.456,0,0,1,1.719,2.544,3.022,3.022,0,0,1,.007,2.837,1.814,1.814,0,0,1-.682.685,1.857,1.857,0,0,1-.931.26h-.031a2.941,2.941,0,0,1-2.144-1.04,11.1,11.1,0,0,1-1.426-2.124c-.213-.376-.415-.732-.626-1.055-.953-1.456-2.006-2.835-2.909-3.992-.322-.41-.592-.751-.85-1.071a88.254,88.254,0,0,0-14.045,1.87c-2.8.606-5.788,1.417-9.4,2.551l-.258.082a11.634,11.634,0,0,0-4.614,2.422,6.247,6.247,0,0,0,.125,2.5l.129.626a37.059,37.059,0,0,1,.611,3.909,20.258,20.258,0,0,1,.01,3.962A29.213,29.213,0,0,1,28.4,54.6a3.359,3.359,0,0,1-.6,1.006,2.115,2.115,0,0,0-.546,1.289,13.7,13.7,0,0,0,.039,3.015l.075.848a16.814,16.814,0,0,1,.029,3.383,5.98,5.98,0,0,1-1.2,3.091.451.451,0,0,1-.361.163.6.6,0,0,1-.507-.275,3.629,3.629,0,0,0-.2-.323,4.081,4.081,0,0,0-1.3-1.207,5.156,5.156,0,0,0-1.7-.613.1.1,0,0,1-.093-.105.156.156,0,0,1,.128-.148,4.274,4.274,0,0,1,2.854.674c-.16-.555-.772-.837-1.818-.837a11.446,11.446,0,0,0-2.651.4l-.035.009a10.331,10.331,0,0,0-3.493,1.665,8.237,8.237,0,0,0-1.408,1.326,8.02,8.02,0,0,0-1.038,1.59,7.94,7.94,0,0,0-.819,3.714,7.53,7.53,0,0,0,1,3.607,6.967,6.967,0,0,0,1.142,1.47,6.83,6.83,0,0,0,1.53,1.128,7.428,7.428,0,0,0,3.526.871h.079a8.5,8.5,0,0,0,1.748-.258,8.219,8.219,0,0,1,1.765-.255c.086,0,.171,0,.254.008a1.151,1.151,0,0,1,.936.607.955.955,0,0,1-.04.959,3.578,3.578,0,0,1-1.109,1.131,37.182,37.182,0,0,0,4.006,7,23.118,23.118,0,0,0,2.943,3.337,9.877,9.877,0,0,0,.774.622,8.718,8.718,0,0,1,1.259,1.082,1.8,1.8,0,0,1,.548,1.335,1.033,1.033,0,0,1-.717.947,1.339,1.339,0,0,1-.51.1c-1.1,0-2.315-1.259-3.117-2.093-.09-.094-.184-.191-.268-.277l-.072-.073a25.227,25.227,0,0,1-3.046-3.686,18.191,18.191,0,0,1-1.93-3.716,19.173,19.173,0,0,1-1.046-4.039,7.137,7.137,0,0,1-2.053.275,11.388,11.388,0,0,1-2.546-.306,11.88,11.88,0,0,1-2.2-.73,9.135,9.135,0,0,1-1.856-1.124,9.447,9.447,0,0,1-1.51-1.485A10.088,10.088,0,0,1,12.1,77.934a10.705,10.705,0,0,1-.769-1.965,10.962,10.962,0,0,1-.31-4.447,10.26,10.26,0,0,1,.551-2.185,9.646,9.646,0,0,1,3.45-4.492,2.282,2.282,0,0,1-.567-.437,14.989,14.989,0,0,1-2.071-3.153l-.2-.375-.08-.145c-.589-1.066-1.148-2.158-1.664-3.246l-.193-.413c-.443-.954-.86-1.7-1.263-2.412a18.382,18.382,0,0,1-1.746-3.821A53.235,53.235,0,0,1,5.4,43.08l-.108-.7a18.369,18.369,0,0,1-.286-4.714,6.253,6.253,0,0,1-2.023.393,3.336,3.336,0,0,1-1.519-.348,1.865,1.865,0,0,1-.855-.993,1.958,1.958,0,0,1-.079-1.307A3.2,3.2,0,0,1,1.449,34a3.313,3.313,0,0,1-.67-.452L.6,33.394a1.849,1.849,0,0,1-.591-1.223A2.335,2.335,0,0,1,.274,30.83c.039-.067.08-.143.124-.224a2.417,2.417,0,0,1,2.057-1.2h.032l.2,0,.2,0a3.609,3.609,0,0,1-1.134-.444,2.266,2.266,0,0,1-.907-1.073A2.517,2.517,0,0,1,.7,26.535a2.269,2.269,0,0,1,.5-1.12,2.1,2.1,0,0,1,1.113-.675,4.364,4.364,0,0,1,1.022-.115,7.141,7.141,0,0,1,1.641.212l-.018-.01-.083-.049a2.732,2.732,0,0,1-.887-.893,2.044,2.044,0,0,1-.319-1.214,2.971,2.971,0,0,1,.318-1.223,2.314,2.314,0,0,1,.888-.887,2.506,2.506,0,0,1,1.26-.335,2.185,2.185,0,0,1,1.2.335A20.708,20.708,0,0,1,9.148,21.9a6.144,6.144,0,0,1-1.305-2.35A2.48,2.48,0,0,1,8.95,16.826a2.224,2.224,0,0,1,1.137-.316,2.541,2.541,0,0,1,1.1.265,2.391,2.391,0,0,1,.457-1.6,3.106,3.106,0,0,1,.949-.857,2.4,2.4,0,0,1,1.189-.334,2.089,2.089,0,0,1,1.128.333,3.374,3.374,0,0,1,.561.469,3.16,3.16,0,0,1-.15-.933,2.49,2.49,0,0,1,.151-.88,2.264,2.264,0,0,1,1.291-1.3,2.352,2.352,0,0,1,.911-.176,2.672,2.672,0,0,1,1.7.6,2.314,2.314,0,0,1,.524-1.921,2.811,2.811,0,0,1,.924-.724,2.578,2.578,0,0,1,1.122-.269,2.173,2.173,0,0,1,1.94,1.211c.36.649.656,1.23.9,1.776l.1.23.011,0-.071-.168-.072-.168c-.074-.172-.153-.349-.23-.52l0,0a8.641,8.641,0,0,1-.78-2.283,3.4,3.4,0,0,1,.033-1.173,2.484,2.484,0,0,1,.442-.994,2.243,2.243,0,0,1,1.532-.853,2.151,2.151,0,0,1,.289-.019,2.632,2.632,0,0,1,1.959.92A2.643,2.643,0,0,1,28.1,6a2.531,2.531,0,0,1,.515-.922,2.341,2.341,0,0,1,1.751-.821A2.388,2.388,0,0,1,32,4.942a7.772,7.772,0,0,1,1.5,2.3c.11.22.223.447.338.664.139.261.282.526.421.782l0,0c.164.3.334.619.5.931.077-.092.161-.185.251-.277a38.15,38.15,0,0,1-1.1-4.159,2.766,2.766,0,0,1,.253-1.891,2.38,2.38,0,0,1,1.486-1.179,2.308,2.308,0,0,1,.616-.082,2.69,2.69,0,0,1,1.545.5,2.2,2.2,0,0,1,.9,1.328c.181.869.4,1.773.677,2.764a4.455,4.455,0,0,1,.512-.093c.015-.177.031-.351.048-.517l.066-.611.014-.129a9.845,9.845,0,0,1,1.011-4.05A2.33,2.33,0,0,1,43.067.08a2.531,2.531,0,0,1,1.665.626,2.263,2.263,0,0,1,.552.74,2.407,2.407,0,0,1,.219.987,9.146,9.146,0,0,1-.36,2.28c-.114.465-.232.946-.3,1.418-.07.494-.118,1.023-.145,1.617a48.234,48.234,0,0,1,1.345-5.316c.043-.141.088-.285.132-.424h0l0-.015.059-.187A2.622,2.622,0,0,1,47.155.489,2.459,2.459,0,0,1,48.643,0a2.724,2.724,0,0,1,.323.02A2.637,2.637,0,0,1,50.51.836a2.056,2.056,0,0,1,.613,1.63c-.024.223-.057.446-.1.662l.005,0h.005l-.028.08a4.134,4.134,0,0,1-.365,1.061c-.235.687-.458,1.37-.626,1.889.063,0,.125,0,.183,0a3.933,3.933,0,0,1,.72.065l.415-1.063.006-.016c.174-.444.353-.9.53-1.356.082-.209.156-.429.235-.661a5.081,5.081,0,0,1,1.013-2,2.829,2.829,0,0,1,2-.786,2.755,2.755,0,0,1,1.394.363A2.581,2.581,0,0,1,57.643,2a3.1,3.1,0,0,1,.125,1.734,1.948,1.948,0,0,1-1.059,1.341l-.056.029-.4.947a3.276,3.276,0,0,1,.386-.142,3.16,3.16,0,0,1,.632-.12c.507-.921,1.093-1.881,1.843-3.022a2.815,2.815,0,0,1,.964-.906,2.521,2.521,0,0,1,1.233-.33,2.389,2.389,0,0,1,1.223.338,2.692,2.692,0,0,1,1.2,1.725,2.134,2.134,0,0,1-.3,1.7c-.513.724-1.041,1.514-1.712,2.56a2.452,2.452,0,0,1,.28.065c.043-.058.088-.116.133-.171a12.709,12.709,0,0,1,1.727-1.68l.305-.262A4.867,4.867,0,0,0,64.857,5a3.431,3.431,0,0,1,1.186-1.149,2.641,2.641,0,0,1,1.174-.283,2.314,2.314,0,0,1,1.106.276,2.235,2.235,0,0,1,.855.831,2.647,2.647,0,0,1,.041,2.851,9.984,9.984,0,0,1-2.035,2.263l0,0c-.178.162-.347.315-.508.468A37.788,37.788,0,0,1,70.822,8c.973-.449,1.726-.768,2.441-1.036a3.615,3.615,0,0,1,1.268-.254,2.6,2.6,0,0,1,1,.2,3.56,3.56,0,0,1,.958.6,1.633,1.633,0,0,1,.479.818,1.612,1.612,0,0,1-.013.947,3.4,3.4,0,0,1-.805,1.289,3.049,3.049,0,0,1-1.337.723c-.364.1-.738.187-1.1.271-.415.1-.843.2-1.26.316a25.921,25.921,0,0,0-3.807,1.408,1.968,1.968,0,0,1,.251.182c.9-.291,1.838-.552,2.8-.776a36.04,36.04,0,0,1,4.741-.769l.53-.049.3-.03h.007c.592-.059,1.2-.12,1.807-.12A5.044,5.044,0,0,1,80.907,12a2.885,2.885,0,0,1,1.434,1.174,2.155,2.155,0,0,1,.305,1.1,1.854,1.854,0,0,1-.305,1.1A3.08,3.08,0,0,1,81.049,16.5a4.383,4.383,0,0,1-1.693.276c1.305.139,2.647.314,3.987.522.9.137,1.82.3,2.734.473l.454.089c.188.038.384.073.574.108h0a7.023,7.023,0,0,1,2.718.885,2.567,2.567,0,0,1,.985,1.174,2.187,2.187,0,0,1,.093,1.321,2.446,2.446,0,0,1-.77,1.267,2.783,2.783,0,0,1-1.505.667,3.408,3.408,0,0,1-.423.025,8.765,8.765,0,0,1-2.1-.36c-.317-.081-.616-.157-.911-.217-1.039-.21-2.111-.4-3.188-.566-.516-.081-1.059-.157-1.659-.232a23.067,23.067,0,0,1,3.337.718l.3.092A15.884,15.884,0,0,1,87.333,24.1a6.115,6.115,0,0,1,1.4,1.093,3.691,3.691,0,0,1,.857,1.475,1.951,1.951,0,0,1-.277,1.7,2.3,2.3,0,0,1-1.734.952c-.057,0-.115.005-.172.005a5.377,5.377,0,0,1-2.555-.9c-.185-.1-.376-.208-.564-.306a13.839,13.839,0,0,0-2.348-.939c-.823-.253-1.69-.472-2.576-.651A20.273,20.273,0,0,1,81.5,27.876l.315.234a16.906,16.906,0,0,1,2.906,2.566,5.324,5.324,0,0,1,.965,1.632,3.162,3.162,0,0,1,.092,1.827,2.069,2.069,0,0,1-.68,1.036,1.822,1.822,0,0,1-1.15.462c-.043,0-.086,0-.128-.006a3.834,3.834,0,0,1-1.97-.823,13.259,13.259,0,0,1-1.622-1.551,13.181,13.181,0,0,0-1.571-1.506c-.417-.316-.9-.648-1.429-.985a37.429,37.429,0,0,1,3.451,4.9,44.773,44.773,0,0,1,2.694,5.349,53.689,53.689,0,0,1,3.505,11.837c.337,1.928.579,3.892.739,6,.149,1.962.224,4.018.231,6.286v.268c.005,5.87-.17,10.3-.567,14.37a49.06,49.06,0,0,1-1.019,6.5,27.971,27.971,0,0,1-2.184,6.188,25.342,25.342,0,0,1-3.046,4.691,27.656,27.656,0,0,1-4,3.976,28.179,28.179,0,0,1-4.712,3.1,26.56,26.56,0,0,1-5.195,2.056A26.217,26.217,0,0,1,60.146,107.224ZM22.255,31.731h0a.58.58,0,0,0-.421.192A8.382,8.382,0,0,0,20.46,34.06a.621.621,0,0,0,.022.623.718.718,0,0,0,.584.34.532.532,0,0,0,.486-.322l.166-.332a6.619,6.619,0,0,1,.926-1.457l.085-.091a.591.591,0,0,0,.13-.664.686.686,0,0,0-.6-.425Zm-7.671-1.259a.729.729,0,0,0-.121.01c-.519.088-1.044.183-1.551.274s-1.029.186-1.545.273a.513.513,0,0,0-.455.581.7.7,0,0,0,.671.653.727.727,0,0,0,.121-.01c.517-.087,1.04-.182,1.547-.274s1.032-.187,1.55-.274a.513.513,0,0,0,.455-.581A.7.7,0,0,0,14.584,30.472Zm47.731-7.147a.59.59,0,0,0-.556.531.69.69,0,0,0,.064.428.62.62,0,0,0,.364.3A25.26,25.26,0,0,1,65.314,25.8a.66.66,0,0,0,.292.071.7.7,0,0,0,.654-.546.528.528,0,0,0-.308-.619,28,28,0,0,0-3.43-1.342A.655.655,0,0,0,62.315,23.325ZM14.387,21.669a.552.552,0,0,0-.515.489.68.68,0,0,0,.409.782l2.732,1.1a.621.621,0,0,0,.23.048.552.552,0,0,0,.515-.488.68.68,0,0,0-.409-.782l-2.732-1.1A.62.62,0,0,0,14.387,21.669Zm57.25-3.1h0a.633.633,0,0,0-.576.481.653.653,0,0,0,0,.385.618.618,0,0,0,.263.333c.159.1.334.194.5.283a4.06,4.06,0,0,1,.75.463l.076.068a.609.609,0,0,0,.421.178.7.7,0,0,0,.626-.439.559.559,0,0,0-.153-.635,4.849,4.849,0,0,0-1.02-.682c-.154-.085-.313-.173-.465-.267l-.1-.063a.6.6,0,0,0-.326-.1ZM24.773,76.017a1.064,1.064,0,0,1-.849-.535,9.021,9.021,0,0,0-5.153-4.305.059.059,0,0,1-.035-.059.038.038,0,0,1,.035-.036,6.129,6.129,0,0,1,.937-.072,6.277,6.277,0,0,1,1.763.257,7.244,7.244,0,0,1,1.627.71A9.354,9.354,0,0,1,25.773,74.4a1.1,1.1,0,0,1-.169,1.3.986.986,0,0,1-.741.313l-.016,0A.578.578,0,0,1,24.773,76.017Z" transform="translate(1.265 0.211)"/>
  </g>
  <g id="FACE" transform="translate(112.183 77.354)">
    <path id="_Ink-3" data-name="ðŸ– Ink" d="M26.594,37.762a11.015,11.015,0,0,1-3.84-.893l-.265-.1a7.124,7.124,0,0,1-2.454-1.434,2.737,2.737,0,0,1-.561-.732.577.577,0,0,1-.031-.471c.247-.024.48-.056.692-.095l.029-.005a1.6,1.6,0,0,1,.251-.034h.02a6.462,6.462,0,0,1,.806.068l.012,0h.009l.112.014c.222.027.448.058.648.085.611.082,1.243.167,1.884.2.116.006.237.008.369.008.348,0,.708-.02,1.056-.039l.087,0c.329-.018.669-.037,1-.037a4.9,4.9,0,0,1,1.3.145,2.713,2.713,0,0,1,1.145.616,1.078,1.078,0,0,1,.36.818,1.666,1.666,0,0,1-.383,1.014,2.186,2.186,0,0,1-.97.682,3.672,3.672,0,0,1-1.231.2ZM15.039,34.835a.874.874,0,0,1-.111-.007.611.611,0,0,1-.49-.318,4.469,4.469,0,0,1-.445-2.011,6.921,6.921,0,0,1,.361-2.071,16.859,16.859,0,0,1,1.905-3.768l.146-.226a17.314,17.314,0,0,1,2.471-3.046,6.305,6.305,0,0,1,3.308-1.844l.275.438.4-.266A2.039,2.039,0,0,1,24,21.386a2.78,2.78,0,0,1,1.132.254l.755.341A21.166,21.166,0,0,0,30.2,23.514c.11.023.222.045.332.065s.214.038.315.053c-.022-.1-.045-.2-.071-.31l0-.008c-.025-.1-.051-.213-.078-.319s-.058-.217-.09-.335c-.133-.485-.272-.915-.423-1.314a23.775,23.775,0,0,0-2.548-4.577l-.112-.17c-.133-.2-.276-.408-.428-.627l-.013-.019-.049-.071a16.439,16.439,0,0,1-1.042-1.632,4.11,4.11,0,0,1-.537-1.7,4.959,4.959,0,0,1,2.52,1.195l.021.015a19.326,19.326,0,0,1,2.762,2.481A16.023,16.023,0,0,1,34.484,22.6a5.27,5.27,0,0,1,.154,2.018A4.149,4.149,0,0,1,34,26.408a3.046,3.046,0,0,1-1.1,1.01,3.366,3.366,0,0,1-1.611.382c-.065,0-.131,0-.2,0a17.352,17.352,0,0,1-8.079-2.583,2.351,2.351,0,0,1-.706-.715,2.163,2.163,0,0,1-.32-.918l-.12-1.154-.65.961-.2.3,0,.007c-.183.268-.373.546-.549.825a37,37,0,0,0-1.872,3.323,19.3,19.3,0,0,0-.989,2.636l-.018.055a21.978,21.978,0,0,1-.8,2.22,6.339,6.339,0,0,1-1.22,1.88A.727.727,0,0,1,15.039,34.835Zm-4.353-17.6a1.812,1.812,0,0,1-1.177-.456,3.617,3.617,0,0,1-.849-1.1,6.283,6.283,0,0,1-.7-2.585v-.048A7.1,7.1,0,0,1,8.6,10.328a2.513,2.513,0,0,1,2.09-1.707c.563,0,1.062.455,1.444,1.317a8.79,8.79,0,0,1,.631,2.936l0,.088a8.33,8.33,0,0,1-.168,1.946,3.842,3.842,0,0,1-.837,1.855A1.447,1.447,0,0,1,10.686,17.238Zm23.1-.423a1.45,1.45,0,0,1-1.086-.487,3.823,3.823,0,0,1-.84-1.916,8.173,8.173,0,0,1-.148-1.96l.011-.162a8.535,8.535,0,0,1,.647-2.833c.378-.823.868-1.258,1.417-1.258A2.513,2.513,0,0,1,35.876,9.9a7.1,7.1,0,0,1,.637,2.718v.048a6.283,6.283,0,0,1-.7,2.584,3.617,3.617,0,0,1-.849,1.1A1.812,1.812,0,0,1,33.786,16.815ZM0,8.471H0A19.5,19.5,0,0,1,7.32,2.756,32.139,32.139,0,0,1,12.134.878L13.048.6A8.492,8.492,0,0,1,15.4.162a3.167,3.167,0,0,1,1.733.469,2.027,2.027,0,0,1,.92,1.328,1.9,1.9,0,0,1-.371,1.533,1.836,1.836,0,0,1-1.11.711,1.812,1.812,0,0,1-.339.032A2.219,2.219,0,0,1,15.2,3.959c-.151-.011-.268-.017-.358-.017a1.652,1.652,0,0,0-.2.012l-.147.018c-.267.031-.537.073-.768.11-.742.118-1.491.262-2.224.428-1.31.3-2.706.688-4.148,1.166C6.074,6.1,4.8,6.583,3.568,7.052l-.2.076c-.444.169-.892.361-1.326.546l-.016.007c-.659.282-1.34.573-2.025.79ZM40.122,6.489h0a9.126,9.126,0,0,0-2.543-1.429,18.75,18.75,0,0,0-2.827-.831,10.95,10.95,0,0,0-2.357-.252c-.119,0-.241,0-.362.006a9.446,9.446,0,0,0-1.226.142l-.029,0a7.9,7.9,0,0,1-1.257.134,3.548,3.548,0,0,1-.64-.055A1.543,1.543,0,0,1,28,3.668a2.242,2.242,0,0,1-.508-1.1,1.768,1.768,0,0,1,.146-1.045,2.6,2.6,0,0,1,.815-.93A3.77,3.77,0,0,1,30.767,0a14.288,14.288,0,0,1,1.822.145A10.062,10.062,0,0,1,36.158,1.3a8.6,8.6,0,0,1,2.754,2.408,8.7,8.7,0,0,1,1.2,2.747l.01.032Z" transform="translate(10.552 12.887)"/>
  </g>
  <g id="FACIAL_HAIR" data-name="FACIAL HAIR" transform="translate(104.577 109.479)">
    <path id="_Ink-4" data-name="ðŸ– Ink" d="M15.835,34.508H15.7A17.928,17.928,0,0,1,5.423,31.05,18.869,18.869,0,0,1,2.247,28.2a8.937,8.937,0,0,1-1.566-2.33A13.844,13.844,0,0,1,0,21.269,39.811,39.811,0,0,1,.305,16a25.529,25.529,0,0,1,1.78-6.92A15.764,15.764,0,0,1,6.16,3.274a14.452,14.452,0,0,1,1.8-1.335A13.638,13.638,0,0,1,9.947.9a11.153,11.153,0,0,1,4.3-.9A9.122,9.122,0,0,1,17.46.573,9.445,9.445,0,0,1,19.475.357,10.578,10.578,0,0,1,24.088,1.45a11.17,11.17,0,0,1,2.875,2.029,13.6,13.6,0,0,1,2.151,2.737,21.732,21.732,0,0,1,2.51,6.664A32.645,32.645,0,0,1,32.2,16.6a19.7,19.7,0,0,1-.072,4.763,14.831,14.831,0,0,1-1.4,4.538c-.019.037-.045.1-.079.173A13.141,13.141,0,0,1,27.167,30.8a14.3,14.3,0,0,1-4.433,2.581,19.96,19.96,0,0,1-6.9,1.127h0ZM17.9,5.794c-.433,0-.905.014-1.443.041-2.988.156-5.878.446-8.387,2.257a11.44,11.44,0,0,0-2.2,2.116,9.9,9.9,0,0,0,.387,2.145,14.227,14.227,0,0,0,1.372,3.1,21.384,21.384,0,0,0,1.962,2.773c.456.554.941,1.124,1.481,1.741.069-.062.138-.125.2-.186h0l.142-.131a23.919,23.919,0,0,0,2.542-2.621,12.99,12.99,0,0,0,.811-1.14,9.274,9.274,0,0,1,1.18-1.546,3.274,3.274,0,0,1,1.07-.711,3.085,3.085,0,0,1,1.156-.22,4.909,4.909,0,0,1,3.586,1.877c.143.173.284.354.42.529a5.469,5.469,0,0,0,1.932,1.79,3.668,3.668,0,0,0,1.016.3A19.025,19.025,0,0,0,26.338,13.3a12.164,12.164,0,0,0-.046-3.191c-.54-.677-1.1-1.312-1.659-1.887a7.47,7.47,0,0,0-3.138-1.948A11.628,11.628,0,0,0,17.9,5.794Z" transform="translate(25.563 5.707)"/>
  </g>
  <g id="ACCESORIES" transform="translate(88.521 88.978)">
    <path id="_Background" data-name="ðŸŽ¨ Background" d="M41.391,24.2a10.2,10.2,0,0,1-3.635-.493,13.094,13.094,0,0,1-5.132-4.061A13.523,13.523,0,0,1,30.9,16.625a14.726,14.726,0,0,1-.965-3.6c-.007-.023-.733-2.3-1.362-2.776a15.529,15.529,0,0,0-3.89-.871c-.2-.029-.344-.05-.405-.061a49.2,49.2,0,0,0-9.035-.96,28.8,28.8,0,0,0-3.119.163,22.049,22.049,0,0,0-3.039.542,17.467,17.467,0,0,0-2.884,1,14.9,14.9,0,0,0-2.655,1.546c-.133.081-.321.2-.539.336A13.3,13.3,0,0,1,.1,13.513c-.063,0-.1-.023-.1-.069A4.533,4.533,0,0,1,.36,11.8,9.32,9.32,0,0,1,1.515,9.733,11.515,11.515,0,0,1,6.4,5.922a27.46,27.46,0,0,1,6.588-1.7,49.632,49.632,0,0,1,6.975-.477,47.2,47.2,0,0,1,4.919.243l.049,0a5.852,5.852,0,0,0,1.063-.2,23.852,23.852,0,0,1,2.8-1.006,26.863,26.863,0,0,1,2.882-.665,34.2,34.2,0,0,1,5.935-.481A70.619,70.619,0,0,1,49.191,2.809c.112.022.311.066.588.127.923.2,2.64.583,4.633.915a39.157,39.157,0,0,0,6.221.613,10.24,10.24,0,0,0,3.482-.475,61.447,61.447,0,0,1,8.5-2.841A41.307,41.307,0,0,1,77,.306,33.47,33.47,0,0,1,81.433,0,29.388,29.388,0,0,1,84.57.166a1.041,1.041,0,0,1,.054.224c.109.564.306,1.876.4,3.028.087,1.047.123,2.331-.2,2.5a7.939,7.939,0,0,0-1.817,1.451,2.121,2.121,0,0,0-.468,1.453,14.637,14.637,0,0,1-.618,4.93,11.637,11.637,0,0,1-2.007,3.8,6.22,6.22,0,0,1-1.459,1.246,13.051,13.051,0,0,1-2.183,1.114,14.892,14.892,0,0,1-5.409,1.107,9.355,9.355,0,0,1-2.415-.3,6.4,6.4,0,0,1-2.107-.977,30.308,30.308,0,0,1-2.594-2.064,13.113,13.113,0,0,1-1.808-1.966,9.782,9.782,0,0,1-1.776-4.576c-.041-.279-.416-.487-.723-.487a.482.482,0,0,0-.335.115,13.784,13.784,0,0,0-2.129,2.586c-.629.96-1.188,1.994-1.681,2.907l-.064.119a31.055,31.055,0,0,1-1.895,3.195,10.568,10.568,0,0,1-2.62,2.664,16.3,16.3,0,0,1-4.5,1.482A26.214,26.214,0,0,1,41.391,24.2Zm-.07-20.113a12.839,12.839,0,0,0-3.54.449,7.521,7.521,0,0,0-2.48,1.2,6.016,6.016,0,0,0-2.356,4.845,9.583,9.583,0,0,0,.606,3.432,11.911,11.911,0,0,0,1.776,3.206,10.47,10.47,0,0,0,2.523,2.355,7.61,7.61,0,0,0,3.047,1.2,9.95,9.95,0,0,0,1.934.189,10.542,10.542,0,0,0,2.648-.343,11.514,11.514,0,0,0,2.5-.975A12.215,12.215,0,0,0,53.181,14.3a6.1,6.1,0,0,0,.808-2.628,11.505,11.505,0,0,0-.069-3.2,4.009,4.009,0,0,0-.94-2.17,1.288,1.288,0,0,0-.89-.367l-.068,0a1.471,1.471,0,0,0-.624.184,16.612,16.612,0,0,0-4.31-1.575,21.407,21.407,0,0,0-4.629-.491c-.376,0-.758.009-1.135.028h0ZM74.792,3.34a11.82,11.82,0,0,0-2.913.408c-3.081.793-6.311,2.573-7.394,3.739a1.548,1.548,0,0,0-.691.857v.176a7.093,7.093,0,0,0-.118,2.246,8.132,8.132,0,0,0,.547,2.174A9.592,9.592,0,0,0,65.439,15.1a10.419,10.419,0,0,0,1.715,1.8A7.534,7.534,0,0,0,69.3,18.167a6.108,6.108,0,0,0,2.141.391,6.194,6.194,0,0,0,.833-.057,8.054,8.054,0,0,0,4.945-2.933,10.439,10.439,0,0,0,2.454-5.9,7.65,7.65,0,0,0-.324-2.837,6.974,6.974,0,0,0-1.49-2.575,3.562,3.562,0,0,0-1.348-.7A6.238,6.238,0,0,0,74.792,3.34Z" transform="translate(-1.689 2.325)" fill="#fff"/>
    <path id="_Ink-5" data-name="ðŸ– Ink" d="M43.631,26.085a13.651,13.651,0,0,1-8.869-3.291,13.806,13.806,0,0,1-3.139-3.875,15,15,0,0,1-1.68-5.149l-.033-.148a3.79,3.79,0,0,0-1.054-2.21,3.931,3.931,0,0,0-2.521-.557h-.073l-.4-.079A52.846,52.846,0,0,0,15.851,9.609a27.815,27.815,0,0,0-3.019.158,21.249,21.249,0,0,0-2.94.526,16.838,16.838,0,0,0-2.79.974,14.4,14.4,0,0,0-2.569,1.5,3.878,3.878,0,0,0-1.388,1.909,4.185,4.185,0,0,1-1.1,1.673,1.359,1.359,0,0,1-.258.025,1.575,1.575,0,0,1-1.265-.78A3.229,3.229,0,0,1,0,14.11a7.24,7.24,0,0,1,.529-2.925A7.38,7.38,0,0,1,2.1,8.845a11.99,11.99,0,0,1,3.569-2.4,23.725,23.725,0,0,1,4.646-1.523,47.958,47.958,0,0,1,10.241-1.03,51.717,51.717,0,0,1,5.392.268.382.382,0,0,1,.276-.107.358.358,0,0,1,.32.166A26.945,26.945,0,0,1,29.643,3.1a29.863,29.863,0,0,1,3.18-.745,37.456,37.456,0,0,1,6.532-.543A63.216,63.216,0,0,1,49.932,2.817c1.12.217,2.256.5,3.354.779A29.276,29.276,0,0,0,60.307,4.77a11.742,11.742,0,0,0,4.218-.741,61.791,61.791,0,0,1,8.612-2.872A41.957,41.957,0,0,1,77.576.308,34.109,34.109,0,0,1,82.073,0a29.98,29.98,0,0,1,3.2.169,1.3,1.3,0,0,1,.465-.087A1.109,1.109,0,0,1,86.4.292a1.284,1.284,0,0,1,.457.676c.721,2.2.845,3.789.379,4.867a3.706,3.706,0,0,1-1.911,1.741,4.429,4.429,0,0,0-1.073.7,1.49,1.49,0,0,0-.44,1.164,14.95,14.95,0,0,1-.849,5.73A12.025,12.025,0,0,1,80.332,19.4a11.744,11.744,0,0,1-1.861,1.567,11.95,11.95,0,0,1-6.687,2.054h0a11.384,11.384,0,0,1-3.872-.669,10.911,10.911,0,0,1-3.481-2.045,11.815,11.815,0,0,1-2.707-3.474,15.655,15.655,0,0,1-1.551-4.957l-.045.027A13.076,13.076,0,0,0,58.1,14.384c-.582.9-1.1,1.864-1.605,2.8a32.811,32.811,0,0,1-2,3.391,12.875,12.875,0,0,1-1.244,1.52A9.94,9.94,0,0,1,51.711,23.4,13.619,13.619,0,0,1,43.631,26.085ZM27.376,8.867a4.91,4.91,0,0,1,2.138.415A3.344,3.344,0,0,1,30.827,10.4a10.313,10.313,0,0,1,1.29,3.542A14.671,14.671,0,0,0,33.4,17.731l.064.113a11.941,11.941,0,0,0,4.325,4.433,11.551,11.551,0,0,0,5.893,1.648,10.842,10.842,0,0,0,2.954-.409,11.183,11.183,0,0,0,2.877-1.282,8.366,8.366,0,0,0,1.631-1.249,11.484,11.484,0,0,0,1.323-1.555A31.617,31.617,0,0,0,54.6,15.811a31.769,31.769,0,0,1,2.12-3.6,11.536,11.536,0,0,1,1.314-1.55,8.386,8.386,0,0,1,1.618-1.248c.059,0,.119,0,.176,0,2.364,0,2.747,1.963,3.152,4.041a7.267,7.267,0,0,0,1.456,3.76,8.514,8.514,0,0,0,1.488,1.536,8.976,8.976,0,0,0,1.791,1.115,9.7,9.7,0,0,0,4.106.909A9.539,9.539,0,0,0,75.35,20.1a9.1,9.1,0,0,0,3.109-2.042,10.247,10.247,0,0,0,2.94-7.029c.021-.338.026-.681.031-1.013v0c.021-1.349.04-2.623,1.058-3.57a3.213,3.213,0,0,1,1.274-.694,3.432,3.432,0,0,0,.9-.423,1.2,1.2,0,0,0,.485-.859,4.865,4.865,0,0,0-.534-2.434c-.9-.045-1.74-.067-2.571-.067a39.352,39.352,0,0,0-4.447.24,35.1,35.1,0,0,0-4.466.8,39.593,39.593,0,0,0-5.177,1.717L67.9,4.74l-.337.129a20.953,20.953,0,0,1-3.838,1.313,14.737,14.737,0,0,1-3.317.38,29.12,29.12,0,0,1-6.81-1.1c-.569-.136-1.157-.277-1.773-.419C50.41,4.721,48.485,4.309,46.169,4a57.366,57.366,0,0,0-7.55-.474c-1.748,0-3.6.07-5.5.207-2.061.149-4.253.383-6.516.694a20.622,20.622,0,0,1,.438,4.442C27.156,8.87,27.269,8.867,27.376,8.867ZM25.811,4.7a23.237,23.237,0,0,1-4.337.418A58.85,58.85,0,0,0,9.583,6.576a20.014,20.014,0,0,0-2.793.962A12,12,0,0,0,4.426,8.883a7.581,7.581,0,0,0-1.755,1.8A6.267,6.267,0,0,0,1.7,13a7.823,7.823,0,0,1,1.76-1.972,11.1,11.1,0,0,1,2.292-1.4,17.779,17.779,0,0,1,2.6-.949c.806-.23,1.682-.433,2.676-.619a27.913,27.913,0,0,1,5.2-.465A45.872,45.872,0,0,1,25.3,8.63l.1-.977A28,28,0,0,1,25.811,4.7ZM43.375,22.077a10.685,10.685,0,0,1-2.085-.2,8.092,8.092,0,0,1-3.415-1.39,11.64,11.64,0,0,1-2.77-2.732,12.739,12.739,0,0,1-1.8-3.494,10.735,10.735,0,0,1-.433-1.852,8.743,8.743,0,0,1-.067-1.825,6.686,6.686,0,0,1,.631-2.444,5.887,5.887,0,0,1,1.6-2.017,7.732,7.732,0,0,1,2.7-1.371,13.873,13.873,0,0,1,3.918-.506h.019c.425-.021.855-.032,1.279-.032a23.609,23.609,0,0,1,5.282.579,17.938,17.938,0,0,1,4.886,1.867,1.243,1.243,0,0,1,.754-.317c.381,0,.713.271.985.805a5.969,5.969,0,0,1,.5,1.739,12.256,12.256,0,0,1,.128,2.19,11.065,11.065,0,0,1-.26,2.151,4.544,4.544,0,0,1-.661,1.621A12.859,12.859,0,0,1,52.6,17.768a13.348,13.348,0,0,1-2.663,2.287,12.735,12.735,0,0,1-3.146,1.49A11.451,11.451,0,0,1,43.375,22.077ZM42.54,5.848h0a15.028,15.028,0,0,0-4.024.477,7.992,7.992,0,0,0-1.708.688,5.691,5.691,0,0,0-1.391,1.068,6.562,6.562,0,0,0-.684,1.883,7.375,7.375,0,0,0-.115,2,9.082,9.082,0,0,0,1.261,3.9,9.575,9.575,0,0,0,3.1,3.225,8.491,8.491,0,0,0,2.077.953,8.1,8.1,0,0,0,2.342.346,9.08,9.08,0,0,0,3.6-.774,13.679,13.679,0,0,0,3.811-2.551,9.786,9.786,0,0,0,2.684-4.557,8.222,8.222,0,0,0-.605-5.32l-.214-.031c-.489-.075-1.085-.185-1.775-.312a47.257,47.257,0,0,0-8.357-.994ZM72.046,19.873a6.434,6.434,0,0,1-2.29-.426,8.1,8.1,0,0,1-2.292-1.368,11.552,11.552,0,0,1-1.817-1.908,10.752,10.752,0,0,1-1.32-2.272,9.081,9.081,0,0,1-.672-2.5,7.77,7.77,0,0,1,.129-2.593V8.662a.07.07,0,0,1,.029-.064c.009-.009.022-.022.039-.042a.87.87,0,0,1,.49-.514,15.175,15.175,0,0,1,4.78-3.022,23.88,23.88,0,0,1,3.462-1.237,13.352,13.352,0,0,1,3.385-.5,4.639,4.639,0,0,1,3.114.936A7.367,7.367,0,0,1,80.434,6.4a7.987,7.987,0,0,1,.54,2.428,10.543,10.543,0,0,1-.958,4.972,12.055,12.055,0,0,1-1.408,2.374A10.872,10.872,0,0,1,76.731,18.1,7.564,7.564,0,0,1,72.046,19.873ZM75.721,4.928h0a13.8,13.8,0,0,0-4.279.9c-1.568.537-3.236,1.248-4.849,1.936-.371.158-.755.322-1.131.481a1.139,1.139,0,0,1,.267,1.2,8.907,8.907,0,0,0,.4,3.619,8.029,8.029,0,0,0,.684,1.52,7.53,7.53,0,0,0,.941,1.282,6.694,6.694,0,0,0,2.093,1.559,5.714,5.714,0,0,0,2.447.56,5.49,5.49,0,0,0,1.867-.328,6.285,6.285,0,0,0,1.81-1.033,8.559,8.559,0,0,0,1.649-1.808A13.047,13.047,0,0,0,79,12.166a13.979,13.979,0,0,0,.261-3.89,4.214,4.214,0,0,0-.837-2.284,2.748,2.748,0,0,0-1.162-.817,4.379,4.379,0,0,0-1.539-.248Z" transform="translate(-2.324 1.691)"/>
  </g>
</svg>
