<svg id="peep-65" xmlns="http://www.w3.org/2000/svg" width="240" height="324" viewBox="0 0 240 324">
  <g id="BODY" transform="translate(31.056 135.053)">
    <path id="_Skin" data-name="âœ‹ Skin" d="M24.836,160.808c-2.92,0-5.548-.113-8.034-.346a59.074,59.074,0,0,1-7.971-1.27,2.544,2.544,0,0,1-.928.785,2.664,2.664,0,0,1-1.185.282,2.486,2.486,0,0,1-1.157-.284,2.646,2.646,0,0,1-.975-.9,3.745,3.745,0,0,1-.489-.812c-.254-.516-.494-1-1.044-1.157-.062-.049-.087-.1-.072-.142.025-.071.139-.11.235-.11a.275.275,0,0,1,.126.027,53.6,53.6,0,0,1-2.2-9A90.138,90.138,0,0,1,.121,137.543a162.187,162.187,0,0,1,.8-22.919C1.648,107.275,2.785,99.53,4.3,91.6c1.31-6.849,2.872-13.638,4.518-19.634a110.877,110.877,0,0,1,4.365-13.41c1.241-3.326,2.524-6.765,3.521-10.2.537-1.851.95-3.554,1.264-5.207a40.6,40.6,0,0,0,.669-5.336,27.067,27.067,0,0,0-.716-5.432,24.338,24.338,0,0,1-.7-6.136,8.045,8.045,0,0,1,.671-2.831,7.087,7.087,0,0,1,.771-1.31,8.047,8.047,0,0,1,1.13-1.221,5.642,5.642,0,0,1,.113-2.543,6.371,6.371,0,0,1,1.127-2.2,8.348,8.348,0,0,1,5.856-3.1,13.764,13.764,0,0,1,1.36-3.325A8.07,8.07,0,0,1,30.1,7.517a6.825,6.825,0,0,1,2.279-1.209,8.929,8.929,0,0,1,2.638-.37,15.571,15.571,0,0,1,3.546.455,31.448,31.448,0,0,1,3.852,1.2c2.644.989,5.448,2.318,8.16,3.6,2.549,1.208,5.184,2.458,7.609,3.381a30.192,30.192,0,0,0,3.5,1.124,14.329,14.329,0,0,0,3.174.458A51.826,51.826,0,0,0,67.136,11.2h0c.816-1.916,1.741-4.088,2.625-5.867a10.861,10.861,0,0,1,2.456-3.7A9.056,9.056,0,0,1,75.813.359,30.33,30.33,0,0,1,80.85,0,121.579,121.579,0,0,1,96.118,1.368h0c.713.1,1.386.187,1.969.262,1.551.2,2.868,1.273,4.025,3.284a33.042,33.042,0,0,1,2.865,7.79c2.815-.69,5.137-1.176,7.305-1.527a48.546,48.546,0,0,1,7.789-.686,33.13,33.13,0,0,1,3.7.2,26.219,26.219,0,0,1,3.6.657,21.663,21.663,0,0,1,3.443,1.2,19.317,19.317,0,0,1,3.215,1.828,6.519,6.519,0,0,1,1.637,2.162,5.352,5.352,0,0,1,.506,2.474,4.514,4.514,0,0,1-.546,1.966,5.03,5.03,0,0,1-1.51,1.673,11.143,11.143,0,0,1-1.489.769,4.2,4.2,0,0,0-1.668,1.021,43.44,43.44,0,0,0-1.7,5.123,17.311,17.311,0,0,0-.636,5.27c.583,5.215,1.265,10.541,2.085,16.282.73,5.113,1.554,10.441,2.517,16.286,1.79,10.858,3.8,21.884,5.75,32.547v.005c2.253,12.34,4.582,25.1,6.565,37.6l.143,1.289a45.725,45.725,0,0,1,.319,9.066,14.22,14.22,0,0,1-3.108,8.18,7.044,7.044,0,0,1-1.539.989,9.535,9.535,0,0,1-1.7.611,25.945,25.945,0,0,1-3.65.591c-.917.1-1.864.212-2.753.39-5.291.709-10.766,1.206-16.738,1.519-5.125.269-10.614.4-16.78.4-7.429,0-14.99-.191-22.3-.375h-.009c-7.312-.184-14.872-.375-22.309-.375-4.985,0-9.476.084-13.731.257-1.04.059-2.092.121-3.109.182-4.124.246-8.388.5-12.578.531l0-.048,0,.048C25.4,160.807,25.11,160.808,24.836,160.808ZM18.973,96.073h0a.842.842,0,0,0-.764.638.875.875,0,0,0,0,.515.839.839,0,0,0,.35.448c.42.276.854.544,1.273.8a19.686,19.686,0,0,1,3.424,2.474.909.909,0,0,0,.175.131c.023,12.454.659,25.108,1.275,37.345v.009c.23,4.577.468,9.31.671,13.963.112,2.581.213,5.135.3,7.591l.025.755c.549,0,1.119-.012,1.692-.024-.25-7.36-.62-14.838-.979-22.069v0c-.471-9.5-.958-19.328-1.177-29-.133-5.859-.149-11.129-.051-16.113a.775.775,0,0,0-.211-.573.864.864,0,0,0-.618-.243.9.9,0,0,0-.585.2.8.8,0,0,0-.276.612c-.031,1.572-.05,3.27-.058,5.346a31.208,31.208,0,0,0-2.746-1.855l-.005,0c-.419-.262-.852-.533-1.273-.808a.793.793,0,0,0-.437-.141ZM136.778,115.6h0a.887.887,0,0,0-.58.2.779.779,0,0,0-.263.613c.005,5.534.242,11.926.685,18.485.422,6.249,1.027,12.616,1.748,18.413a.876.876,0,0,0,.341.6,1.008,1.008,0,0,0,.609.2.781.781,0,0,0,.591-.239.7.7,0,0,0,.15-.565c-.722-5.8-1.326-12.164-1.748-18.413-.443-6.558-.68-12.951-.685-18.485a.779.779,0,0,0-.265-.612.89.89,0,0,0-.581-.2ZM57.906,129.7h0a.86.86,0,0,0-.408.108c-3.385,1.814-6.737,3.83-10.246,6.165-3.127,2.08-6.3,4.364-9.711,6.983a.909.909,0,0,0-.3,1.039.8.8,0,0,0,.705.589.731.731,0,0,0,.447-.168c3.408-2.618,6.584-4.9,9.711-6.983,3.509-2.335,6.86-4.351,10.246-6.165a.738.738,0,0,0,.395-.868.972.972,0,0,0-.3-.49.813.813,0,0,0-.539-.211Zm60.88-.915h0a.96.96,0,0,0-.85.486.662.662,0,0,0,.1.72,16.72,16.72,0,0,0,5.658,4.686.871.871,0,0,0,.4.1.831.831,0,0,0,.546-.21.975.975,0,0,0,.307-.487.718.718,0,0,0-.365-.845l-.034-.018a14.9,14.9,0,0,1-4.947-3.946l-.128-.163a.884.884,0,0,0-.69-.324ZM34,78.582a.725.725,0,0,0-.739.606,11.383,11.383,0,0,0-.19,3.421,23.032,23.032,0,0,0,.571,3.405l.035.147.071.293a.862.862,0,0,0,.815.621c.575.043,1.17.064,1.768.064,4.608,0,9.2-1.264,13.641-2.487.959-.264,1.95-.537,2.918-.79l.441-.115.44-.112a.775.775,0,0,0,.49-.343.833.833,0,0,0,.1-.533.85.85,0,0,0-.816-.783.934.934,0,0,0-.227.029l-.471.12c-1.092.282-2.212.591-3.3.89h-.005c-4.32,1.194-8.788,2.428-13.272,2.428-.349,0-.7-.008-1.039-.022l-.063-.275a19.478,19.478,0,0,1-.438-2.687,9.516,9.516,0,0,1,.122-2.686l.029-.138a.817.817,0,0,0-.153-.708A.964.964,0,0,0,34,78.582Zm86.632,1.411a.622.622,0,0,0-.45.191.892.892,0,0,0-.229.453.915.915,0,0,0,.542,1.052l.249.1a18.16,18.16,0,0,0,2.156.73,8.99,8.99,0,0,0,2.285.328,5.591,5.591,0,0,0,1.344-.156,4.472,4.472,0,0,0,1.258-.522,4.292,4.292,0,0,0,1.264-1.191,5.825,5.825,0,0,0,.76-1.551,12.175,12.175,0,0,0,.508-3.486l0-.173,0-.25a.785.785,0,0,0-.218-.574.875.875,0,0,0-.621-.243.8.8,0,0,0-.851.817l0,.213a11.9,11.9,0,0,1-.3,2.833,4.454,4.454,0,0,1-.55,1.3,2.745,2.745,0,0,1-.994.933,3.5,3.5,0,0,1-1.683.389,9.815,9.815,0,0,1-3.38-.806l-.322-.128-.464-.189a.823.823,0,0,0-.311-.066Z" transform="translate(13.521 -8.665)" fill="#d08b5b"/>
    <path id="_Jacket" data-name="ðŸ§¥ Jacket" d="M87.649,146.689l-1.543-4.342c-.107-.3-.213-.613-.334-.984l-.15-.465-.072-.233c-.063-.209-.125-.426-.2-.724l-.273-1.033L85,138.659c-.069-.251-.129-.449-.2-.663l-.082-.245-.06-.171c-.1-.287-.227-.6-.443-1.129l-.314-.762-.063-.155v-.124l.01-.41c.021-.948.017-1.983-.012-3.163l-.026-.905-.028-.776q0-.12-.01-.247l-.145-3.49-.28-7.751-.044-1.309c-.032-.98-.057-1.868-.079-2.714l-.019-.785-.006-.267c-.084-3.806-.112-7.747-.082-11.713.03-3.922.117-8,.259-12.117l.028-.8.029-.785c.242-6.48.573-12.433,1.073-19.3.475-6.515,1.127-14.224,2.182-25.779l.325-3.544.487-5.245.112-1.231c.235-2.6.392-4.508.526-6.376l.06-.853c.225-3.313.368-6.832.437-10.756l.011-.694-.3,1.06-.264-3.525a21.626,21.626,0,0,0-.413-2.973l-.044-.2-.086-.375-.067-.248a9.164,9.164,0,0,1,.6-2.351l.4-.1.487-.115a60.584,60.584,0,0,1,13.716-1.888,31.479,31.479,0,0,1,5.626.481l.173.032,4.782.89-4.851.366c-.226.017-.453.038-.676.063-.464.051-.926.116-1.373.193l-.291.052.125-.006c.321-.015.646-.022.967-.022a21.086,21.086,0,0,1,4.327.452,19.572,19.572,0,0,1,4.623,1.524l.164.081.211.108.1.049.081.037a1.468,1.468,0,0,1,.686.477.814.814,0,0,1,.157.659,1.162,1.162,0,0,1-.382.614,2.208,2.208,0,0,1-1.21.488c-.075.011-.152.021-.238.031l-.455.045a1.9,1.9,0,0,0-1.032.4,1.305,1.305,0,0,0-.46.864,1.474,1.474,0,0,0,.912,1.58l.043.012.055.013a1.691,1.691,0,0,1,.208.059l.048.019.106.043h0l0,0,.1.041.026.051.016.012a.423.423,0,0,1,.124.158l.034.067.028.1.008.031,0,.026v.008l.028.177.008.06,0,.039v2.711l-.695-1.391-.024.02a5.015,5.015,0,0,1-1.318.71l-.111.043-.29.107-.572.2-.132.049-.117.045c-.094.037-.173.071-.244.1a1.584,1.584,0,0,0-.289.17l-.049.038-.275.228-.678-.236-.221-.079-.658-.245-.563-.207c-.742-.271-1.4-.505-2.027-.715l-.776-.259-.566-.184-.633-.2-3.2-1.011-.616-.2c-.334-.108-.645-.21-.978-.321l-.6-.2-.579-.2c-1.792-.623-3.467-1.267-6.893-2.652l.7.4.517.292c.588.331,1.261.706,2.057,1.147l3.452,1.908.691.387,1.547.87.817.456c1.508.838,2.52,1.371,3.608,1.9.853.417,1.72.813,2.651,1.21l.345.146.529.22.417.181.283.124.186.08a4.308,4.308,0,0,0,1.654.434,2.273,2.273,0,0,0,.581-.077l.046-.013.044-.016,1.268-.486-.441,1.284c-.055.16-.1.3-.149.444l-.089.272-.072.143c-.421.836-.835,1.7-1.266,2.626l-.226.492-.131.1a.452.452,0,0,0-.128.158c-.169.33-.333.66-.488.982l-.165.347-.171.368c-.719,1.548-1.386,3.158-2.3,5.558L107,35.387l-.173.458c-1.418,3.741-2.769,7.535-4.018,11.279-2.473,7.4-4.69,15-6.588,22.609-1.9,7.633-3.512,15.423-4.778,23.153s-2.226,15.611-2.848,23.4c-.235,2.942-.407,5.909-.51,8.818l-.025.76-.081.672c-.066.553-.124,1.06-.178,1.549l-.033.3a80.914,80.914,0,0,0-.581,9.471c.01,1.42.054,2.709.132,3.943l.019.288.314,4.6ZM52.414,81.13H51.151c-.165-1.865-.368-3.78-.621-5.854a166.072,166.072,0,0,0-3.372-18.647l-.139-.569-.06-.245.125-.219a.641.641,0,0,0,.084-.41,13.784,13.784,0,0,0-.973-3.151l-.548-1.325-.123-.3-.009-.032c-.579-2.032-1.2-4.067-1.858-6.047l-.221-.663-.01-.031a75.651,75.651,0,0,0-3-8.875A61.944,61.944,0,0,0,37.493,28.7l-.207-.37-.019-.036a91.67,91.67,0,0,0-4.425-8.159l-.251-.407-.023-.066a1.156,1.156,0,0,0-.241-.408l-.041-.043-.052-.052-.115-.18-.916-.229a18.563,18.563,0,0,0-4.563-.545,24.834,24.834,0,0,0-3.693.29l-.2.03-.2.032a53.547,53.547,0,0,0-7.52,1.888L11.65,21.476l-.48.143-.454.134c-1.7.5-3.126.849-4.486,1.113L6.04,22.9l-.518.1-.256.047a13.857,13.857,0,0,1-2.428.264,6.389,6.389,0,0,1-1.214-.11l-.093-.018-.114-.025-.1-.025a1.731,1.731,0,0,1-1.193-.858,1.382,1.382,0,0,1-.12-.69,2.432,2.432,0,0,1,.23-.837,3.487,3.487,0,0,1,1.07-1.3,8.107,8.107,0,0,1,1.814-1.019l.21-.088.052-.021.055-.012a3.192,3.192,0,0,0,.988-.4,1.514,1.514,0,0,0,.65-.815,1.42,1.42,0,0,0-.039-1.019,1.593,1.593,0,0,0-1.344-.947.863.863,0,0,0-.324.06l-.425.169-.465.183-.287-.41c-.017-.025-.032-.048-.046-.072l-.022-.041-.014-.029-.035-.03-.035-.035a.641.641,0,0,1-.158-.3.7.7,0,0,1-.016-.112V14.47a2.71,2.71,0,0,1,.028-.345,2.651,2.651,0,0,1,.517-1.273,6.7,6.7,0,0,1,1.216-1.224l.167-.135.05-.04A8.847,8.847,0,0,1,9.152,9.429a5.78,5.78,0,0,1,1.305.145c.107.024.209.051.311.081l.105.032L11,9.729a1.329,1.329,0,0,0,.433.078,1.033,1.033,0,0,0,.973-.754,1.574,1.574,0,0,0,.066-.944,1.311,1.311,0,0,0-.5-.753l-.046-.032-.155-.1L11.592,7.1l-.2-.142L11.3,6.888l-.133-.1a4.718,4.718,0,0,1-1.153-1.143,1.589,1.589,0,0,1-.265-1.2l.011-.055.015-.064.027-.06.086-.184L9.977,3.9,10,3.847l.033-.045a4.033,4.033,0,0,1,1.783-1.181l.1-.04c.237-.1.767-.286,1.118-.412l.005,0c.174-.063.312-.112.36-.13l.011,0A27.56,27.56,0,0,1,17.939.64,28.33,28.33,0,0,1,22.67.029C23.117.01,23.57,0,24.016,0a30.125,30.125,0,0,1,7.872,1.034l.234.064.148.042a30.148,30.148,0,0,1,3.9,1.468l.416.187c.092.042.418.173.734.3l.008,0c.341.138.728.294.944.386l.073.031c1.716.754,2.529,1.5,2.721,2.489l.013.073a11.854,11.854,0,0,0,1.6,1.271l.153.1.145.093c.647.412,1.27.781,1.849,1.1l.157.085.109.057,1.046.359,1.293.448.259.089c1.368.466,2.148.7,3.094.934l.534.131c2.089.507,3.852.88,5.549,1.175,1.736.3,3.566.57,5.437.8l.631.077c.6.071,1.189.126,2.183.2l1.537.119,1.039.084-.553.884a29.923,29.923,0,0,0-1.983,3.773c-.6,1.344-1.179,2.861-1.835,4.773l-.14.41a125.3,125.3,0,0,0-3.307,12.176c-1.035,4.38-1.992,8.84-2.845,13.257s-1.623,8.912-2.29,13.357c-.921,6.142-1.676,12.339-2.243,18.419l-.08.874Z" transform="translate(30.847 -2.526)" fill="#fff"/>
    <path id="_Top" data-name="ðŸ‘• Top" d="M33.965,0l-.038.287-.036.287c-1.035,8.243-1.908,18.616-2.668,26.886C29.705,43.948,28.776,60.5,28.9,77.064c.034,4.283.189,8.552.386,12.828l.043.916a62.02,62.02,0,0,0,1.859,14.08,1.211,1.211,0,0,0,.83.886c.015.524.045,1.05.081,1.57l.027.389c.15,2.1.579,6.472,1.5,8.378a8.427,8.427,0,0,0,4.282,4.147,8.529,8.529,0,0,0,1.623.5C28,121,12.851,120.625,1.3,120.346A2.488,2.488,0,0,0,3.337,118a10.358,10.358,0,0,0-1.627-6.987,2.767,2.767,0,0,0-.488-.56l.032-1.345c.023-1.009.033-2.018-.024-3.026-.123-2.223-.306-4.447-.467-6.668C.439,94.962.187,90.5.088,86.045q-.3-13.378.45-26.753A357.81,357.81,0,0,1,7.761,4.3c.281-1.268.564-2.536.858-3.8,3,1.558,8.335,2.118,11.611,2.139A36.822,36.822,0,0,0,33.965,0Z" transform="translate(83.324 31.079)" fill="#e86bbb"/>
    <path id="_Ink" data-name="ðŸ– Ink" d="M15.144,159.695a24.248,24.248,0,0,1-4.717-.391,9.41,9.41,0,0,1-3.291-1.309,8.6,8.6,0,0,1-2.518-2.476,7.144,7.144,0,0,1-1.181-3.189,1.192,1.192,0,0,1-.283.034,1.26,1.26,0,0,1-.663-.188,1.093,1.093,0,0,1-.453-.562c-.12-.333-.243-.667-.362-.989l0-.005a22.289,22.289,0,0,1-1.606-6.075,25.426,25.426,0,0,1,0-3.724c.073-1.083.2-2.225.411-3.7A92.8,92.8,0,0,1,3.36,124.979c.194-.679.395-1.382.59-2.076.321-1.142.656-2.3.98-3.422h0c.86-2.972,1.749-6.045,2.453-9.112a62.934,62.934,0,0,0,1.147-6.642c.257-2.173.41-4.436.454-6.728.039-2.042.029-4.117.018-6.125-.014-2.629-.028-5.346.071-8.019A117.454,117.454,0,0,1,10.2,70.507a83.546,83.546,0,0,1,6.853-23.593,73.466,73.466,0,0,1,5.905-10.532,44.884,44.884,0,0,1,3.718-4.7c.565-.624,1.179-1.289,1.832-1.927a6.6,6.6,0,0,1-1.751-.844,5.252,5.252,0,0,1-1.327-1.3,4.663,4.663,0,0,1-.751-1.71,5.451,5.451,0,0,1-.023-2.087,6.525,6.525,0,0,1,2.366-3.893c.047-.039.1-.079.157-.12a4.392,4.392,0,0,1-.593-1.614,4.942,4.942,0,0,1,.033-1.663,6.4,6.4,0,0,1,.535-1.608,7.766,7.766,0,0,1,.912-1.45,11.42,11.42,0,0,1,1.437-1.5,11.954,11.954,0,0,1,1.69-1.232,11.826,11.826,0,0,1,1.877-.916,11.1,11.1,0,0,1,2-.558l-.025-.074-.006-.019,0-.012-.028-.081a4.371,4.371,0,0,1,0-2.736A4.782,4.782,0,0,1,36.592,4.1c2.044-1.628,4.948-2.79,8.88-3.553A30.273,30.273,0,0,1,51.216,0a32.315,32.315,0,0,1,4.365.3A27.027,27.027,0,0,1,60.189,1.36l.108.035A23.237,23.237,0,0,1,64.812,3.2a15.891,15.891,0,0,1,3.453,2.456A4.845,4.845,0,0,1,69.386,7.37a3.374,3.374,0,0,1,.058,2.08.3.3,0,0,1-.289.236.362.362,0,0,1-.354-.322c-.142-1.3-2-2.033-3.355-2.569-.289-.114-.561-.222-.784-.322a30.638,30.638,0,0,0-4.371-1.664,29.446,29.446,0,0,0-7.935-1.075c-.438,0-.881.01-1.318.029a27.7,27.7,0,0,0-4.608.593A26.924,26.924,0,0,0,41.99,5.72c-.149.06-.341.128-.564.206-.952.333-2.389.836-2.677,1.6a1.156,1.156,0,0,0,.366,1.15,6.009,6.009,0,0,0,1.122.955c.138.1.267.184.384.262a1.919,1.919,0,0,1,.781,1.071,2.246,2.246,0,0,1-.015,1.266,1.978,1.978,0,0,1-.584.927,1.549,1.549,0,0,1-1.026.383,1.975,1.975,0,0,1-.645-.115,4.308,4.308,0,0,0-.473-.135,5.16,5.16,0,0,0-1.165-.13,7.023,7.023,0,0,0-2.623.548,9.436,9.436,0,0,0-2.3,1.34A4.01,4.01,0,0,0,30.861,17.3c-.025.224-.03.282-.017.3s.011,0,.019,0h0c.023,0,.072,0,.137.176a.382.382,0,0,0,.047.093l.02-.008.008,0,.392-.156a1.515,1.515,0,0,1,.569-.109,2,2,0,0,1,1.147.4,2.334,2.334,0,0,1,.769.928,2.052,2.052,0,0,1,.061,1.473,2.151,2.151,0,0,1-.923,1.158,3.825,3.825,0,0,1-1.183.474,8.631,8.631,0,0,0-1.611.835,3.186,3.186,0,0,0-1.146,1.25,1.169,1.169,0,0,0-.1,1.01c.133.262.439.435.962.543a5.714,5.714,0,0,0,1.172.11,16.575,16.575,0,0,0,2.987-.375l.1-.018a50.535,50.535,0,0,0,5.066-1.268c.829-.246,1.676-.507,2.5-.76,2.129-.657,4.33-1.336,6.522-1.841,1.181-.272,2.261-.472,3.3-.611a24.885,24.885,0,0,1,3.326-.232,19.212,19.212,0,0,1,4.723.564c-.078-.189-.156-.384-.224-.556a.287.287,0,0,1,.02-.278.392.392,0,0,1,.321-.153.364.364,0,0,1,.31.156c.316.471.634.961.947,1.454a1.78,1.78,0,0,1,.437.7,91.9,91.9,0,0,1,4.671,8.566,62.625,62.625,0,0,1,3.177,6.5,76.294,76.294,0,0,1,3.021,8.948c.738,2.2,1.44,4.468,2.087,6.738.125.313.256.626.382.929a17.35,17.35,0,0,1,1.287,3.955,1.266,1.266,0,0,1-.158.824c.77,3.138,1.459,6.365,2.047,9.593.579,3.18,1.076,6.442,1.477,9.7.254,2.081.458,4,.623,5.876.578-6.383,1.361-12.887,2.328-19.33.669-4.455,1.441-8.959,2.295-13.387s1.812-8.893,2.85-13.279,2.012-8.357,3.323-12.233c.64-1.891,1.178-3.329,1.747-4.661a31.877,31.877,0,0,1,2.273-4.428c-.322-.026-.649-.051-.966-.075-.967-.074-1.967-.15-2.943-.269-2.052-.249-4.049-.541-5.937-.867-1.845-.32-3.792-.738-6.127-1.315-1.471-.361-2.925-.868-4.332-1.359h0c-.477-.166-.971-.338-1.458-.5a.227.227,0,0,1-.166-.256A.243.243,0,0,1,73.254,12a.305.305,0,0,1,.049,0c3.889.647,7.7,1.053,12.283,1.518l.316.032.136.014c2.87.29,5.839.59,8.757.59.621,0,1.228-.014,1.8-.041.373-.017.749-.04,1.118-.07.041,0,.081,0,.122,0a1.3,1.3,0,0,1,1.133.649,1.806,1.806,0,0,1,.089,1.7c-.27.536-.549,1.08-.82,1.605l0,.008c-.781,1.518-1.588,3.087-2.261,4.685A61.372,61.372,0,0,0,93.7,29.245c-.718,2.444-1.42,5.113-2.146,8.158l.3.06.066.013c1.1.223,2.239.452,3.374.582a33.685,33.685,0,0,0,3.872.228c.62,0,1.248-.018,1.866-.054a27.7,27.7,0,0,0,5.66-.923,25.676,25.676,0,0,0,5.328-2.107,1.823,1.823,0,0,1,.865-.229,1.638,1.638,0,0,1,.487.074c.368-2.616.775-5.212,1.209-7.716v-.055c.063-1.584.214-3.187.36-4.738h0c.13-1.39.265-2.827.337-4.245.047-.919.067-1.863.086-2.776v0c.032-1.483.064-3.016.212-4.5a.2.2,0,0,1,.013-.12c.045-.444.1-.848.156-1.236a.093.093,0,0,1,.1-.085.143.143,0,0,1,.131.085,13.912,13.912,0,0,1,.463,1.425c1.278.5,2.571,1.023,3.822,1.53h0c2.783,1.128,5.661,2.294,8.559,3.265,1.122.376,2.269.737,3.379,1.086h0c1.083.341,2.2.693,3.3,1.059.992.33,2.045.706,3.416,1.22.2.074.394.143.584.209l.1.034a2.173,2.173,0,0,1,.478-.3c.247-.114.539-.217.848-.327a3.948,3.948,0,0,0,2.273-1.41.516.516,0,0,0,.01-.131.225.225,0,0,1,0-.074s0,0,.008.024l-.019-.1c-.007-.034-.013-.067-.017-.089a.717.717,0,0,0,.025.108c0-.012-.011-.088-.034-.226h0a.052.052,0,0,1-.005.035.008.008,0,0,1-.006,0c-.015,0-.038-.033-.054-.063a.989.989,0,0,0-.156-.047,1.839,1.839,0,0,1-1.182-.866,2.278,2.278,0,0,1-.318-1.432,1.915,1.915,0,0,1,.69-1.281,2.554,2.554,0,0,1,1.366-.535l.168-.016h0a2.54,2.54,0,0,0,1.373-.387c.137-.124.2-.231.182-.328-.025-.164-.258-.272-.506-.386h0c-.074-.034-.15-.069-.22-.106a18.467,18.467,0,0,0-4.8-1.638,20.453,20.453,0,0,0-4.2-.438c-.311,0-.626.007-.937.022a15.98,15.98,0,0,0-2.3.339,13.877,13.877,0,0,1-2.593.344.144.144,0,0,1-.131-.1.121.121,0,0,1,.034-.139,7.206,7.206,0,0,1,2.8-1.239l.1-.029A21.431,21.431,0,0,1,136,7.992a20.632,20.632,0,0,1,7.086.448l.141.034c2.037.489,4.827,1.158,5.058,3.608a3.533,3.533,0,0,1-.259,1.757,3.981,3.981,0,0,1-.975,1.333,5.473,5.473,0,0,1,.416,1.431,5.021,5.021,0,0,1,.01,1.454,4.751,4.751,0,0,1-.5,1.525,5.818,5.818,0,0,1-.941,1.3,8.243,8.243,0,0,1-2.711,1.847c0,.037-.011.075-.017.109v.008l-.007.039A50.036,50.036,0,0,1,141.8,28.5c-.324,1.042-.663,2.1-1.008,3.153a50.3,50.3,0,0,1,6.17,8.589,63.142,63.142,0,0,1,4.454,9.607,72.317,72.317,0,0,1,2.347,7.715c.605,2.448,1.126,5.02,1.591,7.861.865,5.279,1.4,10.714,1.923,15.97.585,5.911,1.19,12.022,2.262,17.947.925,5.11,2.349,10.18,3.725,15.084.883,3.146,1.8,6.4,2.57,9.634.555,2.32.994,4.381,1.341,6.3.411,2.265.7,4.351.883,6.378a49.629,49.629,0,0,1,.188,6.123q-.005.156-.01.315a11.516,11.516,0,0,1-.4,3.2.4.4,0,0,1-.017.046,3.254,3.254,0,0,1,.391.862,4.5,4.5,0,0,1,.086,1.584,10.284,10.284,0,0,1-.381,1.943,5.185,5.185,0,0,1-1.691,2.9,8.887,8.887,0,0,1-3.9.9l-.1.008c-1.033.081-2.085.161-3.1.239H159.1l-1.509.115c-3.6.276-7.253.569-10.79.853h-.012c-7.347.589-14.944,1.2-22.42,1.686l-.674.046c-.883.061-1.8.124-2.69.124a10.466,10.466,0,0,1-4.206-.738,8.235,8.235,0,0,1-2.518-1.68,8.668,8.668,0,0,1-1.764-2.467,15.761,15.761,0,0,1-1.036-4.115c-.258-1.706-.4-3.4-.46-4.263-.044-.619-.088-1.285-.108-1.959a1.215,1.215,0,0,1-.83-.886,42.85,42.85,0,0,1-1.333-6.978c-.281-2.428-.419-4.848-.526-7.1-.341-7.177-.408-11.115-.429-13.744-.118-15.148.64-31.374,2.318-49.6.815-8.864,1.688-16.967,2.668-24.772.021-.178.046-.361.067-.523l.007-.051a28.972,28.972,0,0,1-5.69,1.955,26.838,26.838,0,0,1-5.982.683h-.161a26.962,26.962,0,0,1-5.065-.493A18.265,18.265,0,0,1,91.1,39.307c-.3,1.291-.589,2.59-.858,3.8-.955,4.309-1.834,8.717-2.613,13.1-.771,4.34-1.466,8.778-2.065,13.19-.593,4.367-1.108,8.829-1.532,13.263-.419,4.389-.76,8.871-1.013,13.321-.251,4.426-.416,8.925-.49,13.372s-.061,8.935.04,13.381c.089,3.988.31,8.36.676,13.366.044.614.092,1.253.135,1.817v0c.119,1.589.243,3.233.332,4.849.069,1.22.038,2.462.008,3.663-.006.231-.012.47-.017.707a2.768,2.768,0,0,1,.488.56,10.338,10.338,0,0,1,1.438,3.348,10.158,10.158,0,0,1,.189,3.639,2.977,2.977,0,0,1-.726,1.667,2.183,2.183,0,0,1-.712.507,2.539,2.539,0,0,1-.944.208l-20.212.735c-7.929.29-15.986.634-23.778.967l-1.069.046c-.25-7.725-.639-15.573-1.015-23.163v0c-.471-9.5-.958-19.328-1.177-29-.133-5.863-.149-11.133-.051-16.113a.775.775,0,0,0-.211-.573.864.864,0,0,0-.618-.243.9.9,0,0,0-.585.2.8.8,0,0,0-.276.612c-.031,1.574-.05,3.272-.058,5.346a31.224,31.224,0,0,0-2.745-1.854l0,0c-.42-.262-.854-.534-1.276-.811a.793.793,0,0,0-.437-.141.843.843,0,0,0-.765.638.875.875,0,0,0,0,.515.839.839,0,0,0,.35.448c.419.275.853.543,1.272.8a19.7,19.7,0,0,1,3.425,2.474.91.91,0,0,0,.175.131c.023,12.455.659,25.108,1.275,37.345v.006c.23,4.578.468,9.311.671,13.966.142,3.263.263,6.455.361,9.489-2.78.119-6.017.257-9.256.39-2.123.088-4.279.163-6.364.236l-2.479.087-.294.011h-.017C17.254,159.656,16.192,159.695,15.144,159.695Zm132.591-47.082a.886.886,0,0,0-.58.2.779.779,0,0,0-.263.612c.005,5.534.242,11.926.685,18.485.422,6.249,1.027,12.616,1.748,18.413a.875.875,0,0,0,.341.6,1.008,1.008,0,0,0,.609.2.781.781,0,0,0,.591-.239.7.7,0,0,0,.15-.565c-.722-5.8-1.326-12.164-1.748-18.413-.443-6.559-.68-12.951-.685-18.485a.78.78,0,0,0-.265-.612A.89.89,0,0,0,147.735,112.612Zm-30.4-97.829a.344.344,0,0,1,.24.1.281.281,0,0,1,.082.2c-.041,5.3-.193,9.719-.477,13.906-.255,3.73-.608,7.514-.949,11.174v0c-.085.908-.161,1.726-.236,2.542-.7,7.61-1.494,16.235-2.148,24.662-.715,9.207-1.192,17.291-1.459,24.712-.151,4.18-.246,8.316-.282,12.294-.038,4.17-.012,8.307.077,12.3.065,2.923.174,5.892.28,8.763v.036c.042,1.143.086,2.324.126,3.487.027.789.062,1.6.1,2.376v.013c.1,2.348.205,4.777.134,7.156v0c.073.18.15.367.218.531.243.587.494,1.194.7,1.813.164.5.3,1.021.431,1.523h0c.123.471.251.957.4,1.428.135.421.3.921.477,1.429-.091-1.332-.141-2.728-.152-4.269a83.784,83.784,0,0,1,.585-9.544c.087-.795.181-1.613.289-2.5.1-3.163.281-6.386.537-9.581.312-3.913.712-7.875,1.187-11.777s1.037-7.833,1.673-11.71c1.269-7.736,2.878-15.532,4.784-23.171,1.9-7.619,4.123-15.242,6.6-22.657,1.251-3.751,2.606-7.554,4.027-11.3.189-.5.379-1.005.563-1.494v0c.951-2.531,1.934-5.149,3.087-7.63-.075-.088-.148-.173-.211-.245a.186.186,0,0,1-.033-.206.194.194,0,0,1,.171-.115.186.186,0,0,1,.128.055l.127.12c.207-.438.427-.885.653-1.327a1.09,1.09,0,0,1,.315-.378c.487-1.061.956-2.039,1.434-2.99.129-.259.266-.519.4-.771v0l.044-.084a1.474,1.474,0,0,1-.325.127,2.9,2.9,0,0,1-.733.094,6.018,6.018,0,0,1-2.363-.678c-.187-.082-.38-.167-.572-.246-1.213-.5-2.33-1-3.416-1.532-1.8-.877-3.57-1.874-5.284-2.839l-.72-.4c-.962-.54-1.945-1.081-2.894-1.6-2.776-1.53-5.646-3.112-8.36-4.843a21.9,21.9,0,0,1,.471,3.263A.276.276,0,0,1,117.334,14.784ZM68.862,126.712a.86.86,0,0,0-.408.108c-3.386,1.814-6.737,3.831-10.246,6.165-3.127,2.08-6.3,4.364-9.711,6.983a.909.909,0,0,0-.3,1.039.8.8,0,0,0,.705.589.731.731,0,0,0,.447-.168c3.408-2.619,6.585-4.9,9.711-6.983,3.509-2.335,6.86-4.351,10.246-6.165a.738.738,0,0,0,.395-.868.971.971,0,0,0-.3-.489A.812.812,0,0,0,68.862,126.712Zm60.88-.916a.96.96,0,0,0-.85.487.661.661,0,0,0,.1.72,16.718,16.718,0,0,0,5.657,4.686.871.871,0,0,0,.4.1.832.832,0,0,0,.552-.216.972.972,0,0,0,.3-.5.721.721,0,0,0-.4-.847,14.825,14.825,0,0,1-5.051-4.079A.885.885,0,0,0,129.742,125.8ZM44.954,75.59a.725.725,0,0,0-.74.607,16.329,16.329,0,0,0,.487,7.267.862.862,0,0,0,.815.62c.575.043,1.17.064,1.768.064,4.608,0,9.2-1.264,13.64-2.486,1.25-.344,2.542-.7,3.8-1.017a.775.775,0,0,0,.49-.343.833.833,0,0,0,.1-.533.85.85,0,0,0-.816-.783.932.932,0,0,0-.227.029c-1.249.315-2.531.669-3.771,1.012-4.321,1.194-8.788,2.428-13.272,2.428-.349,0-.7-.008-1.039-.023a13.354,13.354,0,0,1-.349-5.786.817.817,0,0,0-.153-.708A.963.963,0,0,0,44.954,75.59ZM131.586,77a.623.623,0,0,0-.451.191.893.893,0,0,0-.229.453.914.914,0,0,0,.542,1.052,13.005,13.005,0,0,0,4.69,1.159,5.588,5.588,0,0,0,1.344-.156,4.471,4.471,0,0,0,1.258-.522,4.313,4.313,0,0,0,1.326-1.281,6.08,6.08,0,0,0,.765-1.675,13.753,13.753,0,0,0,.448-3.7.785.785,0,0,0-.218-.574.875.875,0,0,0-.621-.243.8.8,0,0,0-.851.817,12.973,12.973,0,0,1-.27,2.927,4.635,4.635,0,0,1-.549,1.366,2.762,2.762,0,0,1-1.025.982,3.5,3.5,0,0,1-1.682.389,11.77,11.77,0,0,1-4.144-1.114l-.022-.009A.822.822,0,0,0,131.586,77Z" transform="translate(2.535 -5.612)"/>
  </g>
  <g id="HEAD" transform="translate(78.592 38.043)">
    <path id="_Skin-2" data-name="âœ‹ Skin" d="M78.548,40.831a109.779,109.779,0,0,0-.879-14.253,21.5,21.5,0,0,0-5.82-12.056c-6.892-7.07-16.883-8.8-26.183-10.38l-15.9-2.706C24.916.612,19.741-.707,14.84.463a15.5,15.5,0,0,0-6.34,3.5A22.221,22.221,0,0,0,3.526,9.19a19.446,19.446,0,0,0-2.047,6.794Q.8,19.922.432,23.907A99.508,99.508,0,0,0,.228,39.9c.175,2.582.453,5.158.808,7.721q.264,1.907.6,3.8c.066.373.117.785.184,1.2a12.693,12.693,0,0,0-.764,4.386c.068,4.344,3.725,7.078,7.412,8.547,2.138.851,4.373,1.43,6.473,2.381a14.538,14.538,0,0,1,5.224,4.472,50.882,50.882,0,0,0,9.846,9.345C37.883,87.363,47.853,90.016,57.4,88a24.364,24.364,0,0,0,6.663-2.364,14.915,14.915,0,0,0,5.183-4.968,48.639,48.639,0,0,0,5.762-12.42,72.172,72.172,0,0,0,2.959-13.509,103.1,103.1,0,0,0,.577-13.91Z" transform="translate(9.698 19.021)" fill="#d08b5b"/>
    <path id="_Ink-2" data-name="ðŸ– Ink" d="M75.273,105.046h0a17.366,17.366,0,0,1-3.707-.391A14.852,14.852,0,0,1,62.2,98.2l-.06-.095c-.3-.481-.421-.821-.345-.959a.122.122,0,0,1,.116-.061,1.864,1.864,0,0,1,.961.722,20.427,20.427,0,0,0,6.049,3.737,17.993,17.993,0,0,0,6.588,1.258,18.207,18.207,0,0,0,6.728-1.3,21.411,21.411,0,0,0,6.319-3.946,29.776,29.776,0,0,0,8.209-12.606,49.615,49.615,0,0,0,2.125-7.987,66.678,66.678,0,0,0,.974-8.611,82,82,0,0,0-.05-8.863c-.17-2.9-.489-5.844-.947-8.741A77.608,77.608,0,0,0,94.79,35.122a73.459,73.459,0,0,0-8.008-.439,72.575,72.575,0,0,0-13.133,1.194,67.864,67.864,0,0,0-12.642,3.611,61.181,61.181,0,0,0-11.6,6.073,55.6,55.6,0,0,0-10,8.581l.937,5.653c.052.316.108.638.162.949l0,.015c.109.631.222,1.283.315,1.927a2.069,2.069,0,0,1-.33,1.736,1.455,1.455,0,0,1-1.158.554,6.541,6.541,0,0,1-3.019-1.406h0a16.3,16.3,0,0,0-1.577-.968,8.82,8.82,0,0,0-1.225-.09c-.17,0-.339.006-.5.017a6.412,6.412,0,0,0-4.8,3.185,9.072,9.072,0,0,0-1.071,2.776,11.191,11.191,0,0,0-.219,3.065,9.743,9.743,0,0,0,1.859,5.31,5.775,5.775,0,0,0,4.695,2.356,7.893,7.893,0,0,0,2.329-.377,1.822,1.822,0,0,1,.95-.317.992.992,0,0,1,.591.184,1.263,1.263,0,0,1,.413.543,22.645,22.645,0,0,1,3.08,3.9,36.749,36.749,0,0,0,5.111,6.295A34.281,34.281,0,0,0,50.334,93.3a7.275,7.275,0,0,0,1.14.839c1.144.743,2.439,1.585,1.784,2.774a1.154,1.154,0,0,1-1.119.733c-1.868,0-5.135-3.119-6.917-4.978-1.191-1.243-2.437-2.671-3.507-4.021a25.8,25.8,0,0,1-2.176-3.084,20.4,20.4,0,0,1-4.47,1.186,30.21,30.21,0,0,1-4.609.322c-2.572,0-5.17-.247-7.682-.486l-.035,0-.954-.09c-5.662-.3-10.351-1.643-13.937-4.007a17.216,17.216,0,0,1-4.284-3.982,16.948,16.948,0,0,1-2.59-5,20.231,20.231,0,0,1-.906-4.649A25.682,25.682,0,0,1,.194,63.8,33.02,33.02,0,0,1,1.3,58.466a41.488,41.488,0,0,1,2.06-5.5,53.766,53.766,0,0,1,6.82-11.023A66.409,66.409,0,0,1,20.346,31.689,70.52,70.52,0,0,1,35.821,23.1a.683.683,0,0,0,.407-.785.55.55,0,0,0-.512-.486.62.62,0,0,0-.232.048,75.578,75.578,0,0,0-10.493,5.208l-.005-1.2a33.107,33.107,0,0,1,.378-5.983,14.746,14.746,0,0,1,.925-3.681,9.862,9.862,0,0,1,1.932-3.552,29.3,29.3,0,0,1,4.823-4.889A35.558,35.558,0,0,1,50.578.162,17.985,17.985,0,0,1,53.024,0a22.361,22.361,0,0,1,4.794.537,22.927,22.927,0,0,1,4.7,1.574A18.1,18.1,0,0,1,66.6,4.667a12.476,12.476,0,0,1,2.92,3.483,84.554,84.554,0,0,1,8.735-1.591,72.776,72.776,0,0,1,9.145-.6,52.607,52.607,0,0,1,16.224,2.377,39.119,39.119,0,0,1,7.475,3.3,35.616,35.616,0,0,1,3.46,2.274,34.837,34.837,0,0,1,3.23,2.727,20.248,20.248,0,0,1,2.894,3.99,17,17,0,0,1,1.607,4.128,17.929,17.929,0,0,1-.041,8.341,25.965,25.965,0,0,1-2.942,7.2,35.858,35.858,0,0,1-4.769,6.348c-.882.944-1.819,1.853-2.787,2.7a37,37,0,0,1-2.9,2.306,30.949,30.949,0,0,1-2.909,1.848,22.589,22.589,0,0,1-2.8,1.329,33.935,33.935,0,0,1,.132,6.454,100.048,100.048,0,0,1-1.18,11.176,78.458,78.458,0,0,1-3.02,12.56,35.477,35.477,0,0,1-5.39,10.608,22.183,22.183,0,0,1-3.648,3.825,24.936,24.936,0,0,1-4.508,2.976,24.338,24.338,0,0,1-5.031,1.93A20.867,20.867,0,0,1,75.273,105.046ZM35.74,60.379l-.12.07a1.028,1.028,0,0,1-.3.117c.142.061.283.127.42.2,0-.1,0-.182,0-.255v-.127Zm3.646,11.595a1.672,1.672,0,0,1-.69-.518l-.039-.045.008.012c.1.154.139.262.113.31a.063.063,0,0,1-.06.029,1.042,1.042,0,0,1-.631-.5l-.006-.016a1.752,1.752,0,0,1-.27-.285c-.015-.019-.026-.033-.033-.041l-.006-.006A7.8,7.8,0,0,0,34.8,69.068c-.148-.028-.295-.05-.437-.065a13.234,13.234,0,0,0-1.811-.274.334.334,0,0,1-.207-.135c-.383-.013-.608-.091-.617-.214-.008-.107.158-.229.362-.266H32.1l-.076-.006c-.389-.038-.687-.142-.693-.242,0-.061.1-.116.295-.159l.076-.015c-.008-.012-.015-.025-.025-.044-.175-.019-.273-.094-.267-.206a.291.291,0,0,1,.281-.248.234.234,0,0,1,.092.019.209.209,0,0,1,.008-.186c.034-.046.1-.067.209-.067.039,0,.079,0,.117.005h.01c.033,0,.065,0,.09,0a.1.1,0,0,0,.062-.012.335.335,0,0,1,.154-.112.6.6,0,0,0,.112-.094c.012-.014.012-.014.044-.015H32.6a.7.7,0,0,1,.51-.182,2.584,2.584,0,0,1,.686.128l.064.019a2.138,2.138,0,0,0,.514.109h.016a6.773,6.773,0,0,1,2.919,1.175,7.9,7.9,0,0,1,1.213.835h0l0,0,.029.02a6.759,6.759,0,0,1,.863.851c.374.429.57.735.536.839-.009.028-.034.042-.074.042a.72.72,0,0,1-.263-.083c-.069-.09-.145-.183-.239-.3a.191.191,0,0,1-.035.038l.059.087c.207.312.3.5.269.551a.031.031,0,0,1-.03.015,3.842,3.842,0,0,1-1.122-1.014.175.175,0,0,1-.03.019l-.006,0,.308.375.1.132.065.063c.549.541.813,1.055.76,1.185a.051.051,0,0,1-.051.033c-.133,0-.448-.3-.843-.791a.472.472,0,0,1,.09.212l.071.091c.227.293.488.663.44.76A.042.042,0,0,1,39.386,71.974Z" transform="translate(-13.071 3.804)"/>
  </g>
  <g id="FACE" transform="translate(112.183 77.354)">
    <path id="_Ink-3" data-name="ðŸ– Ink" d="M22.824,40.539a8.045,8.045,0,0,1-3.052-.61,8.621,8.621,0,0,1-1.992-1.145,8.487,8.487,0,0,1-1.622-1.636,1.676,1.676,0,0,1-.338-1.3,1.871,1.871,0,0,1,.728-1.172,1.793,1.793,0,0,1,1.067-.372,1.548,1.548,0,0,1,.238.018,1.648,1.648,0,0,1,1.1.73l.065.09A5.7,5.7,0,0,0,21.108,36.9a4.735,4.735,0,0,0,2.069.483,4.583,4.583,0,0,0,.513-.029,5.388,5.388,0,0,0,2.278-.8,10.668,10.668,0,0,0,1.93-1.611c.138-.141.284-.294.474-.5a.751.751,0,0,1,.394-.3.806.806,0,0,1,.256-.041.871.871,0,0,1,.714.373.8.8,0,0,1,.135.524,4.812,4.812,0,0,1-.57,1.864,6.221,6.221,0,0,1-1.22,1.567,7.841,7.841,0,0,1-1.847,1.288,7.69,7.69,0,0,1-2.05.7A7.548,7.548,0,0,1,22.824,40.539Zm2.148-12.17h0a7.373,7.373,0,0,1-2.63-.53,13.281,13.281,0,0,1-3.093-1.756,1.189,1.189,0,0,1-.432-.687,1.423,1.423,0,0,1,.061-.771,1.754,1.754,0,0,1,.521-.753,1.267,1.267,0,0,1,.812-.317,1.151,1.151,0,0,1,.628.193l.209.161,0,0a16.744,16.744,0,0,0,1.936,1.347,4.768,4.768,0,0,0,2.321.74,2.505,2.505,0,0,0,.981-.193,2.74,2.74,0,0,0,.913-.647,2.8,2.8,0,0,0,.531-2.255,4.26,4.26,0,0,0-1.13-2,8.241,8.241,0,0,0-1.711-1.381.531.531,0,0,1-.144-.61.8.8,0,0,1,.264-.38.809.809,0,0,1,.505-.167,1.076,1.076,0,0,1,.181.016,5.736,5.736,0,0,1,2.018.729,4.577,4.577,0,0,1,1.357,1.252,4.974,4.974,0,0,1,.866,3.322,5.475,5.475,0,0,1-.444,1.744,5.087,5.087,0,0,1-1,1.5A4.779,4.779,0,0,1,24.972,28.369ZM7.859,16.485a1.724,1.724,0,0,1-1.119-.439,1.744,1.744,0,0,1-.587-1.128,12.706,12.706,0,0,1,.067-3.308c.04-.321.081-.654.11-1.012a1.98,1.98,0,0,1,.75-1.415,2.31,2.31,0,0,1,1.421-.5,1.751,1.751,0,0,1,1.075.338,1.594,1.594,0,0,1,.594,1.057,8.877,8.877,0,0,1-.926,5.469,1.754,1.754,0,0,1-.619.716A1.427,1.427,0,0,1,7.859,16.485Zm25.119-.75a1.508,1.508,0,0,1-1.183-.507A4.624,4.624,0,0,1,31.074,14a5.342,5.342,0,0,1-.368-1.477,3.131,3.131,0,0,1,.853-2.687,1.772,1.772,0,0,1,.137-.208,1.933,1.933,0,0,1,1.487-.856,1.611,1.611,0,0,1,.452.067,2.175,2.175,0,0,1,1.453,1.268,4.486,4.486,0,0,1,.18,2.453,8.214,8.214,0,0,1-.744,2.314,1.5,1.5,0,0,1-.643.635A1.947,1.947,0,0,1,32.979,15.735ZM.278,7.854a.274.274,0,0,1-.229-.14.306.306,0,0,1-.018-.3A10.425,10.425,0,0,1,2.368,4.454,14.446,14.446,0,0,1,5.5,2.317a13.445,13.445,0,0,1,3.714-1.3l.4-.069A9.66,9.66,0,0,1,11.226.776a2.5,2.5,0,0,1,2,.746,1.7,1.7,0,0,1,.4,1.208,1.106,1.106,0,0,1-.4.789,3.08,3.08,0,0,1-2.112.62c-.166,0-.338,0-.5-.008H10.6c-.16,0-.341-.009-.521-.009s-.314,0-.452.012a14.274,14.274,0,0,0-3.143.536A21.357,21.357,0,0,0,.424,7.806.26.26,0,0,1,.278,7.854Zm38.247-1.6h0l-.167-.042A9.458,9.458,0,0,1,36.524,5.5l-.6-.293A16.537,16.537,0,0,0,33.8,4.3a25.089,25.089,0,0,0-4.845-1.07,1.979,1.979,0,0,1-.972-.369,1.457,1.457,0,0,1-.544-.828A1.482,1.482,0,0,1,27.609.786a1.581,1.581,0,0,1,.767-.661A1.725,1.725,0,0,1,29.03,0a1.926,1.926,0,0,1,.377.038l.3.062a21.676,21.676,0,0,1,5.232,1.7,10.579,10.579,0,0,1,2.3,1.514,6.719,6.719,0,0,1,1.627,2.1c.057.439,0,.548-.055.622L38.8,6.06l-.015.02a.421.421,0,0,1-.26.173Z" transform="translate(11.197 10.99)"/>
  </g>
  <g id="FACIAL_HAIR" data-name="FACIAL HAIR" transform="translate(104.577 109.479)">
    <path id="_Ink-4" data-name="ðŸ– Ink" d="M44.212,2.115c-.7-.94-1.959-2.174-3.232-2.108a.181.181,0,0,0-.126.3c.416.509.985.871,1.4,1.39a6.393,6.393,0,0,1,1.082,2.105,6.28,6.28,0,0,1,.13,3.429,6.537,6.537,0,0,1-4.027,4.114,6.38,6.38,0,0,1-5.688-.089C31.232,9.7,29.093,7.44,25.924,7.4a1.757,1.757,0,0,0-1.575.814A1.813,1.813,0,0,0,22.8,7.4c-3.553-.04-6.2,2.407-9.187,3.932-2.015,1.031-4.623.711-6.7.03-1.961-.642-4.09-1.932-4.83-3.969a5.225,5.225,0,0,1,.1-3.547A6.3,6.3,0,0,1,3.409,1.843C3.955,1.248,4.673.875,5.233.311a.181.181,0,0,0-.126-.3C2.731-.155.585,2.683.137,4.742a6.46,6.46,0,0,0,1.55,5.6C4.4,13.485,9.418,14.523,13.325,13.6c3.162-.748,6.166-2.471,9.472-2.224a1.647,1.647,0,0,0,1.559-.706,1.6,1.6,0,0,0,1.568.709c3.081-.3,5.831,1.884,8.822,2.417a10.083,10.083,0,0,0,6.994-1.431,7.557,7.557,0,0,0,3.733-6.059,6.67,6.67,0,0,0-1.261-4.191" transform="translate(20.282 0.634)"/>
  </g>
</svg>
