<svg id="peep-71" xmlns="http://www.w3.org/2000/svg" width="258.395" height="324" viewBox="0 0 258.395 324">
  <g id="BODY" transform="translate(31.056 135.053)">
    <path id="_Skin" data-name="âœ‹ Skin" d="M233.026,64.537c2.164-1.13,4.277-2.358,6.356-3.636a1.324,1.324,0,0,0-1.334-2.286c-.768.408-1.533.82-2.3,1.226a13.479,13.479,0,0,0,1.666-1.705l-.035-.035c1.936-1.735-.551-5.01-2.753-3.584a30.941,30.941,0,0,1-6.13,3.772c-4.617,1.958-9.709,2.282-14.664,2.339a19.443,19.443,0,0,0-5.3.528c.69-2.768,2.416-4.859,3.332-7.54.676-2.707-3.23-4.551-4.615-1.949-.34.639-.664,1.285-.98,1.935-2.992,2.722-7.988,2.483-11.006,5.406a9.377,9.377,0,0,0-2.892,5.675c-.226,1.411.125,2.826-.728,4.076-4.124,5.835-10.64,15.058-13.949,21.479-2.343-15.259-8.6-34.133-15.062-48.085a57.891,57.891,0,0,0-7.792-12.6c.364-1.261-.92-3.5-1.737-2.811-2.513-3.072-6.956-3.867-10.529-5.394a20.92,20.92,0,0,1-10.791-11.225C129.254.838,123.033-.341,114.4.069,106.148.059,100.039,3.592,98.237,12c-3.66,6.382-12.3,5.327-18.52,7.016a61.579,61.579,0,0,0-13.181,4.7c-4.675-4.436-21.419,14.182-22.941,18.974.9.174,1.786.383,2.669.638a.636.636,0,0,1-.337,1.225,24.573,24.573,0,0,0-2.977-.513c-.03.1-.057.19-.077.284l-.336-.025a4,4,0,0,1,.72.473c.563.468-.17,1.37-.768,1a4.686,4.686,0,0,0-1.977-.5c-.04,1.39-5-.165-5.77-.626-3.424-.428-6.946.031-10.142-1.62-4.253-.9-8.537-1.887-12.742-3.028-1.113.434-2.159,1.988-1.275,3.128a.637.637,0,0,1-.768,1,16.344,16.344,0,0,1-5.1-5.247c-.648-.654-1.8-.513-2.67-.785a1.394,1.394,0,0,0-.184.682c-3.694.608-1.059,4.644.8,5.9-.985.642-1.023,1.9-.936,2.948a1.42,1.42,0,0,0-.1,1.256c.695,1.6,2.2,2.95,3.339,4.247a27.466,27.466,0,0,0,3.92,4.035,42.351,42.351,0,0,0,20.15,7.93c2.571.4,6.27,1,7.862,3.175a75.3,75.3,0,0,1-1.759,7.575c-.91,3.341-.848,6.839-.86,10.246a.251.251,0,0,0-.408.114,8.826,8.826,0,0,1-1.227,4.043,34.3,34.3,0,0,0-1.534,6.878c-1.126,10.989-1.4,22.3,1.144,33.121A39.2,39.2,0,0,0,37,141.576a2.394,2.394,0,0,0,2.624,1.149,18.591,18.591,0,0,0,10.443,1.734c11.5-3.256,7.491,4.585,23.612,2.184,27.825-3.546,55.946,3.422,83.712-.669.684,5.284,9.636,3.768,12.746,1.534,9.324-6.934,13.954-28.888,18.633-40.026,3.217-8.778,8.6-24.326,15.656-30.216a20.109,20.109,0,0,1,7.23-3.229c9.547-2.461,19.13-4.788,28.7-7.181,1.622-.4,1.331-3.167-.4-2.99C237.646,64.1,235.336,64.315,233.026,64.537Z" transform="translate(-18.222 -4.65)" fill="#d08b5b"/>
    <path id="_Ink" data-name="ðŸ– Ink" d="M162.651,143.393a1.226,1.226,0,0,1-.914-.423c-8.575-.345-17.009-.6-25.067-.75-6.717-.129-13.677-.194-20.689-.194-7.8,0-15.939.081-24.2.241-7.238.141-14.823.344-22.544.6-1.081.036-2.181.077-3.244.116H65.98c-2.573.1-5.234.194-7.851.23h-.108a9.22,9.22,0,0,1-1.632-.15,7.233,7.233,0,0,1-1.653-.5,3.817,3.817,0,0,1-1.308-.909,2.3,2.3,0,0,1-.6-1.391l0-.069a6.921,6.921,0,0,1-.771.163.925.925,0,0,1-.14.011.859.859,0,0,1-.2-.022l-.052-.014a7.842,7.842,0,0,1-2.28.311,23.984,23.984,0,0,1-6.2-1.153c-.378-.106-.736-.205-1.086-.3l-.234-.062a15.134,15.134,0,0,1-3.665-1.4,9.93,9.93,0,0,1-2.968-2.547,17.212,17.212,0,0,1-1.963-3.161,23.388,23.388,0,0,1-1.342-3.5,42.043,42.043,0,0,1-1.4-7.359,55.435,55.435,0,0,1,.083-13.759,53.334,53.334,0,0,1,.412-11.225c.22-1.937.463-3.723.742-5.459.163-1.012.374-2,.594-3.014.029-.134.056-.267.084-.409v0c.055-.274.111-.557.185-.833l.05-.177a1.493,1.493,0,0,1-.193.012,1.826,1.826,0,0,1-.872-.238,1.954,1.954,0,0,1-.869-.994,3.6,3.6,0,0,1-.243-1.322,62.906,62.906,0,0,1,.5-7.659l0-.041.058-.541c.3-2.79.7-5.512,1.206-8.093l.134-.689a30.714,30.714,0,0,1,1.638-5.939,65.134,65.134,0,0,1-8.846-1.963,26.935,26.935,0,0,1-4.128-1.693,8.786,8.786,0,0,1-1.464-.358h0c-.146-.045-.3-.091-.445-.134-.952-.278-1.9-.609-2.831-.983a32.927,32.927,0,0,1-5.512-2.783,26.207,26.207,0,0,1-3.937-3.066,23.117,23.117,0,0,1-3.233-3.8l-.129-.193a15.017,15.017,0,0,1-1.337-2.494,4.709,4.709,0,0,1-.428-2.775A1.856,1.856,0,0,1,2.7,39.33,8.783,8.783,0,0,1,.789,37.01a6.793,6.793,0,0,1-.6-1.357A3.9,3.9,0,0,1,0,34.344a1.885,1.885,0,0,1,.731-1.5,2.562,2.562,0,0,1,1.55-.45,4.053,4.053,0,0,1,2.173.639A11.287,11.287,0,0,1,6.817,35.4l.065.08c.764.94,1.6,1.873,2.565,2.851.24.244.483.482.722.71l.246.231c-.039-.092-.073-.186-.1-.279a3.884,3.884,0,0,1,.055-2.439,3.074,3.074,0,0,1,1.581-1.813A2.468,2.468,0,0,1,13,34.517a4.944,4.944,0,0,1,1.784.422l.14.057a33.68,33.68,0,0,0,3.754,1.321A46.773,46.773,0,0,0,24.341,37.5c1.907.291,3.86.507,5.749.717,1.51.167,3.071.34,4.6.55A54.621,54.621,0,0,1,40.9,39.945a19.581,19.581,0,0,1,1.9-4.824,30.111,30.111,0,0,1,2.875-4.3,38.162,38.162,0,0,1,4.021-4.318,41.69,41.69,0,0,1,4.534-3.613A48.571,48.571,0,0,1,59.184,19.9c1.65-.868,3.428-1.691,5.286-2.446a84.432,84.432,0,0,1,11.191-3.589c3.3-.832,6.919-1.592,11.4-2.392a1.475,1.475,0,0,1,.257-.023,2.9,2.9,0,0,1,1.535.615l.139.093.01.007a2.315,2.315,0,0,0,1.093.516.547.547,0,0,0,.266-.066,15.7,15.7,0,0,0,4.006-3.21,45.568,45.568,0,0,0,4.586-6.179c.561-.852,1.14-1.734,1.738-2.59A1.419,1.419,0,0,1,101.877,0a1.564,1.564,0,0,1,.764.2,1.43,1.43,0,0,1,.55.538,1.265,1.265,0,0,1-.066,1.318l-.466.77c-.869,1.429-1.916,3.1-3.083,4.688a26.626,26.626,0,0,1-3.708,4.157A16.179,16.179,0,0,1,93.546,13.4a13.587,13.587,0,0,1-2.617,1.235,11.009,11.009,0,0,1-3.379.63,5.281,5.281,0,0,1-1.535-.207l-.185-.269.185.269a66.136,66.136,0,0,0,6.694,8.134c2.164,2.267,4.6,4.573,7.664,7.256a206.792,206.792,0,0,0,16.949,12.992l.484.342A81.092,81.092,0,0,0,130.8,31.941a78.792,78.792,0,0,0,10.1-14.383,8.268,8.268,0,0,1-2.915-1.213l-.01-.006c-.146-.084-.284-.163-.421-.24a10.99,10.99,0,0,1-3.237-2.574,6.573,6.573,0,0,1-.907-1.459,8.346,8.346,0,0,1-.528-1.577,22.119,22.119,0,0,1-.426-3.354c-.046-.614-.094-1.248-.169-1.863a.146.146,0,0,1,.034-.117.2.2,0,0,1,.152-.06.216.216,0,0,1,.136.044,6.371,6.371,0,0,1,1.677,3.021c.057.168.116.341.175.509a7.455,7.455,0,0,0,2.132,3.424,15.606,15.606,0,0,0,3.5,2.122c.19.09.616.226,1.109.382h0c1.159.369,2.747.874,2.995,1.317a13.636,13.636,0,0,1,3.113-.361,15.009,15.009,0,0,1,6.156,1.371,20,20,0,0,1,5.37,3.6,35.639,35.639,0,0,1,5.107,6.009,74.734,74.734,0,0,1,4.088,6.767,107.094,107.094,0,0,1,6.739,15.2c.984,2.735,1.826,5.446,2.5,8.057a76.481,76.481,0,0,1,1.675,8.266c.618,4.287,1.065,8.951,1.366,14.26l.033.6c3.863-6.065,7.984-12.323,12.249-18.6a5.741,5.741,0,0,1-.083-3.755A8.879,8.879,0,0,1,194.468,54a11.8,11.8,0,0,1,2.938-2.284A35.758,35.758,0,0,1,200.77,50.1c.327-.144.665-.292,1-.441l.342-.155a17.245,17.245,0,0,0,3.591-2.062,12.827,12.827,0,0,0,1.306-1.256,10.637,10.637,0,0,1,1.6-1.477,3.746,3.746,0,0,1,2.1-.637,2.748,2.748,0,0,1,1.691.521,1.946,1.946,0,0,1,.553.681,2.4,2.4,0,0,1,.229.988,6.53,6.53,0,0,1-.318,2.048,17.49,17.49,0,0,1-.74,1.946,14.332,14.332,0,0,1-1.039,1.941,16.648,16.648,0,0,1-1.307,1.771.67.67,0,0,1-.141.127l-.037.023a33.5,33.5,0,0,0,3.989.454c.514.024,1.035.036,1.546.036a31.358,31.358,0,0,0,6.6-.686,29.357,29.357,0,0,0,7.83-2.874c.493-.267.985-.557,1.461-.838.773-.456,1.573-.927,2.389-1.307a9.237,9.237,0,0,1,2.575-.81c.208-.032.427-.054.67-.068h.026a.648.648,0,0,1,.51.3.542.542,0,0,1,.075.508c-.087.22-.174.422-.264.62a14.622,14.622,0,0,1-1.55,2.636,13.475,13.475,0,0,1-2.114,2.277l-.122.1c.565-.2,1.118-.414,1.642-.651,1.143-.515,2.266-1.135,3.353-1.735a26.308,26.308,0,0,1,6.082-2.714c.143-.038.3-.075.486-.116a1.256,1.256,0,0,1,.264-.029.95.95,0,0,1,.876.541,1.119,1.119,0,0,1-.153,1.185c-.115.147-.211.267-.3.376a38.715,38.715,0,0,1-5.028,5.195c-.632.537-1.287,1.06-1.946,1.554,1.977-.6,4.041-1.34,6.133-2.2a.955.955,0,0,1,.364-.075,1.023,1.023,0,0,1,.772.4,1.647,1.647,0,0,1,.364.819,2.85,2.85,0,0,1-.238,1.533,4.752,4.752,0,0,1-.916,1.316,14.917,14.917,0,0,1-2.568,2.007l-.068.045a23.839,23.839,0,0,1-5.2,2.545A53.239,53.239,0,0,1,226.319,66.8l-1.777.248c-1.7.237-3.5.5-5.294.838a40.968,40.968,0,0,0-5.166,1.3,23.926,23.926,0,0,0-4.793,2.138,19.161,19.161,0,0,0-2.181,1.5,18.1,18.1,0,0,0-2,1.86,28.591,28.591,0,0,0-3.651,5.06c-1.072,1.842-2,3.767-2.843,5.572-1.519,3.255-2.982,6.79-4.743,11.462-1.058,2.8-2.036,5.69-2.982,8.481-.4,1.194-.823,2.429-1.243,3.642-1.289,3.726-2.839,7.426-4.338,11l-.24.573a102.491,102.491,0,0,1-5.421,11.182c-1.044,1.835-2.144,3.6-3.272,5.251-1.19,1.74-2.454,3.414-3.757,4.977a.9.9,0,0,1-.7.363.921.921,0,0,1-.535-.183,1.237,1.237,0,0,1-.387-.463,1.184,1.184,0,0,1-.122-.6,1.117,1.117,0,0,1,.241-.62,65.11,65.11,0,0,0,3.909-5.658c1.152-1.865,2.284-3.891,3.364-6.022,1-1.966,1.95-4.014,2.916-6.263.849-1.977,1.688-4.064,2.563-6.379.833-2.2,1.6-4.472,2.346-6.667v0c.566-1.672,1.152-3.4,1.762-5.087l.84-2.318c1.066-2.938,2.22-6.091,3.432-9.241a122.611,122.611,0,0,1,5.013-11.417l.2-.39a46.812,46.812,0,0,1,3.077-5.23,25.786,25.786,0,0,1,3.953-4.577,20.519,20.519,0,0,1,2.109-1.661,22.162,22.162,0,0,1,2.253-1.354,27.65,27.65,0,0,1,4.844-1.95,65.634,65.634,0,0,1,10.37-2l2.19-.289a65.759,65.759,0,0,0,8.759-1.611,23.456,23.456,0,0,0,4.783-1.83,19.577,19.577,0,0,0,1.764-1.046,48.635,48.635,0,0,1-4.956,1.175c-.806.147-1.629.262-2.447.34-1.118.111-2.271.165-3.525.165-.863,0-1.771-.026-2.777-.078a.184.184,0,0,1-.167-.177.14.14,0,0,1,.12-.155c1.332-.237,2.752-.541,4.469-.956l.446-.109a1.281,1.281,0,0,1,.309-.759,6.334,6.334,0,0,1,2.029-1.391,12.423,12.423,0,0,0,1.089-.607,34.4,34.4,0,0,0,2.951-2.154c.84-.685,1.676-1.434,2.487-2.225l.022-.022-.011.011-.011.011c-.78.36-1.558.764-2.311,1.155a32.163,32.163,0,0,1-4.125,1.9,22.024,22.024,0,0,1-5.546,1.2l-.117.009-.117.008c-.575.041-1.158.066-1.722.09a24.2,24.2,0,0,0-4.174.421.216.216,0,0,1-.047.005.153.153,0,0,1-.155-.128.179.179,0,0,1,.111-.2,22.109,22.109,0,0,1,4.672-1.2l.014,0,.558-.1a.537.537,0,0,1,.3-.345l.456-.218a14.186,14.186,0,0,0,3.754-2.371,11.905,11.905,0,0,0,2.451-3.244,15.317,15.317,0,0,0-4.488,2.116,26.571,26.571,0,0,1-2.467,1.386,30.946,30.946,0,0,1-7.775,2.467l-.306.053a33.292,33.292,0,0,1-5.458.466,24.918,24.918,0,0,1-5.277-.532,16.634,16.634,0,0,1-4.825-1.815.124.124,0,0,1-.064-.144.155.155,0,0,1,.148-.112l.024,0c.758.124,1.524.264,2.265.4h.01c.5.092,1.019.186,1.528.275a.745.745,0,0,1-.236-.441.638.638,0,0,1,.164-.516,13.582,13.582,0,0,0,2.606-4.415l.11-.318.036-.1,0-.005a8.006,8.006,0,0,0,.371-1.29,1.642,1.642,0,0,0-.154-1.21,1.27,1.27,0,0,0-1.1-.493,2.467,2.467,0,0,0-.974.208,6.713,6.713,0,0,0-2.031,1.718,11.071,11.071,0,0,1-1.164,1.158,18.378,18.378,0,0,1-3.864,2.276l-.288.131c-.372.168-.755.334-1.126.495a17.182,17.182,0,0,0-5.6,3.331,9.234,9.234,0,0,0-1.337,1.685,6.238,6.238,0,0,0-.8,1.988,4.217,4.217,0,0,0,.042,1.953,3.455,3.455,0,0,0,.148.409,1.2,1.2,0,0,1,.112.91,5.436,5.436,0,0,1-.908,1.413c-.173.22-.337.428-.464.616-.457.678-.919,1.367-1.365,2.033-.765,1.146-1.54,2.314-2.29,3.443l-.014.021-.407.613c-1.729,2.609-3.483,5.291-5.36,8.2-.577.894-1.156,1.8-1.723,2.683l-.857,1.343-.369.576-.084.132-.067.106-.35.551-.355.558a.6.6,0,0,1-.011.334,1.524,1.524,0,0,1-.685.818l-.055.032c-2.78,4.4-5.577,8.881-8.283,13.218l-.021.034c-1.677,2.688-3.41,5.468-5.122,8.2-.267,2.442-.482,4.583-.657,6.547-.474,5.3-.749,10.163-.841,14.856-.034,1.753.061,3.541.153,5.27v.008c.034.636.069,1.293.1,1.938.052,1.162.122,2.316.211,3.431l.067.81a7.42,7.42,0,0,1-.26,3.28,1.363,1.363,0,0,1-.48.636A1.178,1.178,0,0,1,162.651,143.393ZM37.464,60.64a5.064,5.064,0,0,1,2.31.628A4.657,4.657,0,0,1,41.35,62.7a1.442,1.442,0,0,1,.452.814,5.425,5.425,0,0,1,.4,1.469.867.867,0,0,1-.182.7,37.971,37.971,0,0,1-.77,9.892,87.834,87.834,0,0,1-2.609,9.645l-.2.622-.129.394c-.4,1.234-.821,2.483-1.225,3.691v0c-.9,2.68-1.827,5.452-2.627,8.209a69.646,69.646,0,0,0-1.94,8.389,51.729,51.729,0,0,0-.176,14.152l.039.323a39.773,39.773,0,0,0,1.342,6.795,22.353,22.353,0,0,0,1.25,3.246,15.771,15.771,0,0,0,1.8,2.9,8.146,8.146,0,0,0,2.375,2.066,12.129,12.129,0,0,0,2.929,1.142l.119.032c.547.144,1.11.308,1.654.467h0a26.049,26.049,0,0,0,4.363,1.006,6.207,6.207,0,0,0,.67.036,11.06,11.06,0,0,0,4.072-1.027l.407-.159,0,0a17.012,17.012,0,0,0,4.077-5.638,37.585,37.585,0,0,0,2.3-6.749,70.758,70.758,0,0,0,1.7-9.074,84.054,84.054,0,0,0,.6-9.176A118.467,118.467,0,0,0,60.7,88.486c-.908-6.3-2.158-12.642-3.367-18.778l-.038-.194c-.185-.94-.378-1.895-.564-2.818v0h0c-.438-2.172-.891-4.417-1.281-6.634l-.33-1.861c-.163-.924-.351-2.017-.509-3.108-.194-1.334-.257-2.623-.324-3.987l-.009-.189a19.9,19.9,0,0,0-7.056-6.833,26.126,26.126,0,0,0-6.478-2.631A70.843,70.843,0,0,0,29.631,39.7c-2.909-.3-5.917-.61-8.767-1.2a39.114,39.114,0,0,1-6.29-1.9l-.281-.109a3.573,3.573,0,0,0-1.215-.293,1.189,1.189,0,0,0-1.161.834,2.064,2.064,0,0,0-.13,1.189,2.625,2.625,0,0,0,.5,1.094,6.446,6.446,0,0,0,2.485,1.854,23.63,23.63,0,0,0,2.965,1.09l.1.032a27.536,27.536,0,0,0,3.412.846c.349.063.7.113,1.046.161a11.352,11.352,0,0,1,2.372.509.558.558,0,0,1,.352.549.431.431,0,0,1-.352.406,5.89,5.89,0,0,1-1.355.148,14.863,14.863,0,0,1-2.818-.367l-.035-.007a29.412,29.412,0,0,1-4.506-1.274c-.317-.117-.583-.218-.835-.317l-.215-.085c.2.148.423.3.668.478a.076.076,0,0,1,.025.085.06.06,0,0,1-.057.046.072.072,0,0,1-.024,0,21.207,21.207,0,0,1-4.889-2.63A24.645,24.645,0,0,1,6.5,37.109l-.121-.138c-.131-.15-.284-.343-.462-.566A15.739,15.739,0,0,0,4.37,34.659a2.887,2.887,0,0,0-1.84-.953,1.328,1.328,0,0,0-.6.144.8.8,0,0,0-.453.565,1.736,1.736,0,0,0,.139.948,6.3,6.3,0,0,0,.594,1.118,22.807,22.807,0,0,0,1.585,2.083l.222.27.116.143a4.086,4.086,0,0,1,1.6.424,13.852,13.852,0,0,1,1.457.822l.1.061a47.967,47.967,0,0,0,4.973,2.644c1.559.733,3.189,1.377,4.766,2,1.846.729,3.755,1.484,5.561,2.385a.034.034,0,0,1,.02.04.048.048,0,0,1-.045.035h-.006a41.427,41.427,0,0,1-6.3-1.558l-.092-.029-.092-.031c-1.21-.4-2.455-.859-3.805-1.41a39.745,39.745,0,0,1-4.06-1.923c-.353-.193-.711-.427-1.09-.675a7.142,7.142,0,0,0-2.806-1.322,1.991,1.991,0,0,0-.252-.017c-.049,0-.1,0-.141.006a.753.753,0,0,0-.654.38c-.444.84.608,2.787.823,3.169a18.993,18.993,0,0,0,2.6,3.572,25.308,25.308,0,0,0,7.168,5.326c.849.434,1.761.843,2.789,1.251-.159-.14-.316-.287-.435-.4a15.962,15.962,0,0,1-1.586-1.735,13.907,13.907,0,0,1-1.293-1.962l-.2-.372a6.3,6.3,0,0,1-.723-1.965,1.875,1.875,0,0,1,.1-.952,1.608,1.608,0,0,1,.7-.767,2.553,2.553,0,0,1,1.324-.341,4.861,4.861,0,0,1,1.494.269c.051.016.1.034.153.051l.031.011c.357.125.748.287,1.194.495A23.91,23.91,0,0,1,20.664,48.4c.383.256.778.521,1.173.773a14.951,14.951,0,0,0,2.39,1.252A14.382,14.382,0,0,0,26.8,51.2l.172.035c.175.035.352.068.523.1,1.556.294,3.164.6,4.237,1.863a.575.575,0,0,1,.069.6.436.436,0,0,1-.4.27.518.518,0,0,1-.166-.029c-1.157-.39-2.355-.678-3.514-.957-1.069-.257-2.174-.523-3.233-.866a14.64,14.64,0,0,1-3.075-1.364c-.529-.319-1.054-.663-1.562-1h0c-.7-.457-1.419-.93-2.161-1.345a10.733,10.733,0,0,0-2.131-.942l-.409-.121a2.01,2.01,0,0,0-.529-.1.564.564,0,0,0-.189.028.363.363,0,0,0-.227.16c-.049.1,0,.233.055.4v0c.011.032.023.066.034.1l.011.035c1.008,3.12,4.05,5.461,5.774,6.579.517.337,1.073.663,1.652.97a31.412,31.412,0,0,0,5.114,2.115c1.76.571,3.592,1.05,5.363,1.513l.009,0c.575.15,1.171.306,1.754.462.024.007,2.431.679,3.218.929C37.281,60.644,37.372,60.64,37.464,60.64Zm139.21,24.866c-.043.01-.085.022-.125.033h0l-.009,0c-.846.237-1.711.452-2.548.66-.325.081-.693.172-1.048.262a32.961,32.961,0,0,0-6.032,2.012c-.351,4.432-.857,8.924-1.347,13.27h0c-.07.619-.149,1.32-.225,2l-.114,1.018c.966-1.792,1.851-3.371,2.706-4.825C170.746,95.153,173.687,90.3,176.674,85.506Zm-143.259.505a8.761,8.761,0,0,1-.119,1.3c-.025.179-.049.347-.069.515-.052.449-.1.907-.147,1.35v.005c-.051.489-.1.994-.163,1.49-.247,2.061-.432,3.931-.564,5.717-.093,1.247-.152,2.5-.2,3.667,1.007-3.764,2.308-7.516,3.566-11.146l.005-.015c.237-.684.482-1.391.722-2.087a5.19,5.19,0,0,1-.776-.159l-.448-.121-.09-.023h0C34.8,86.426,34.034,86.23,33.415,86.011ZM237.6,58.721l-.1.068Zm.626-.454-.178.131Zm-58.68,24.992h0l.016-.026.017-.026.35-.551.116-.182.036-.056.369-.576.009.2a1.2,1.2,0,0,1-.25.837,1.131,1.131,0,0,1-.662.38ZM49.113,51.172a4.044,4.044,0,0,1-1.85-.757,7.039,7.039,0,0,0-.986-.528,13.793,13.793,0,0,0-7.551-.731,13.446,13.446,0,0,0-2.423.683.109.109,0,0,1-.04.008.116.116,0,0,1-.105-.094.112.112,0,0,1,.052-.13,13.218,13.218,0,0,1,2.953-1.178,12.339,12.339,0,0,1,3.135-.408c.358,0,.721.016,1.078.048a13.183,13.183,0,0,1,3.676.845l.114.045.19.072a8.255,8.255,0,0,1,1.343.607,1.87,1.87,0,0,1,.9,1.011.355.355,0,0,1-.045.311.455.455,0,0,1-.337.192C49.182,51.17,49.148,51.172,49.113,51.172Z" transform="translate(-18.803 1.11)"/>
  </g>
  <g id="HEAD" transform="translate(78.592 38.043)">
    <path id="_Skin-2" data-name="âœ‹ Skin" d="M41.047,0l1.821,2.171q-1.512,1.068-2.855,2.147v0A24.82,24.82,0,0,1,53.713,0C63.269,0,82.68,8.229,87.068,14.165c2.178,2.946,6.224,11.989,8.323,21.82,1.687,7.9,4.2,30.217,1.687,38.6C93.867,85.321,83.3,95.24,72.414,95.24s-27.8-7.882-39.834-25.157c-.55-.79-6.869-1.705-11.377-4.67l1.184,13.072.9,7.6-.2.541q-4.843,13.13-7.675,13.7-2.89.582-11.772-9.5l-.757-3.184Q0,75.465,0,74.569v-.109c.028-1.374.5-9.154.51-11.248V31.835Q10.064,0,18.743,0Z" transform="translate(-8.577 12.541)" fill="#d08b5b"/>
    <path id="_Ink-2" data-name="ðŸ– Ink" d="M15.931,117.648a2.13,2.13,0,0,1-1.364-.5,1.951,1.951,0,0,1-.7-1.315,2.742,2.742,0,0,1-.83-1.053,4.912,4.912,0,0,1-.386-1.372c-.092-.637-.159-1.28-.224-1.9-.079-.76-.161-1.547-.29-2.32l-.089.084-.046.04-.015.1a2.092,2.092,0,0,1-1.03,1.468,4.581,4.581,0,0,1-.859,3.359A2.238,2.238,0,0,1,8.383,115a2.317,2.317,0,0,1-.406-.035H7.926a.715.715,0,0,1-.093-.006,2.741,2.741,0,0,1-1.127-.408,2.6,2.6,0,0,1-.789-.787,2.534,2.534,0,0,1-.3-2.1,3.666,3.666,0,0,1-.712-1.39,3.47,3.47,0,0,1-.052-1.548,2.267,2.267,0,0,1-.748-.827,3.136,3.136,0,0,1-.331-1.086A6.058,6.058,0,0,1,4.02,104.4a4.144,4.144,0,0,1-1.2-4.745A4.986,4.986,0,0,1,1.75,97a5.307,5.307,0,0,1,.5-2.809A2.847,2.847,0,0,1,1.225,92a2.918,2.918,0,0,1,1.018-2.257,7.461,7.461,0,0,1-.758-2.28,3.465,3.465,0,0,1,.323-2.189,2.918,2.918,0,0,1-.729-2.139,2.657,2.657,0,0,1,.567-1.454,3.966,3.966,0,0,1,1.2-.994l.065-.356A.777.777,0,0,0,3.57,80.1,3.484,3.484,0,0,1,4.2,79.62a.812.812,0,0,0,.6-.281,4.224,4.224,0,0,1,1.327-.2.788.788,0,0,0,.595-.253.884.884,0,0,0,.217-.553.8.8,0,0,0-.7-.876.833.833,0,0,0-.6-.253h-.18a3.117,3.117,0,0,0-1.235.2,1.386,1.386,0,0,0-.592.473,1.178,1.178,0,0,1-.547.855,1.335,1.335,0,0,1-.76.238,1.283,1.283,0,0,1-.654-.177,1.091,1.091,0,0,1-.533-.682,2.419,2.419,0,0,1-.018-.873A5.824,5.824,0,0,0,.9,75.272a5.762,5.762,0,0,1-.216-2.058,3.213,3.213,0,0,1,.618-1.57A3.7,3.7,0,0,1,.7,69.9a3.6,3.6,0,0,1,.322-1.819,3.873,3.873,0,0,1-.99-2.176,4.23,4.23,0,0,1,.389-2.36c0-.016.009-.032.013-.046s.011-.04.017-.06a3.608,3.608,0,0,1,.315-.685,3.494,3.494,0,0,1,.015-3.519,3.281,3.281,0,0,1-.755-2.042,3.5,3.5,0,0,1,.617-2.108c0-.076.011-.154.018-.229l.007-.075a3.78,3.78,0,0,1-.236-1.6,3.943,3.943,0,0,1,.437-1.55,6.237,6.237,0,0,1-.4-1.332,7.8,7.8,0,0,1,.228-3.6c.052-.178.111-.362.181-.564.01-.734.037-1.532.083-2.441a9.77,9.77,0,0,1-.19-2.142V41.1c0-.088,0-.18,0-.274-.013-1.119-.03-2.65.644-3.558a3.063,3.063,0,0,1,.506-3.241,3.452,3.452,0,0,1-.469-1.539A3.084,3.084,0,0,1,1.8,30.866a3.413,3.413,0,0,1,.3-.475,5.533,5.533,0,0,1,.667-2.907,4.819,4.819,0,0,1,1.417-1.591c-.011-.144-.016-.268-.014-.38a4.75,4.75,0,0,1,.342-1.645,2.679,2.679,0,0,1-.328-2.137,3.443,3.443,0,0,1,1.691-2.063A17.241,17.241,0,0,1,6.256,17.2a2.428,2.428,0,0,1-.206-.874,2.639,2.639,0,0,1,.111-.9A2.467,2.467,0,0,1,7.271,14,2.872,2.872,0,0,1,7.9,11.516a2.442,2.442,0,0,1,.835-.589A3.056,3.056,0,0,1,9.36,8.4a2.848,2.848,0,0,1,.9-.7,2.932,2.932,0,0,1,1.09-.3,3.255,3.255,0,0,1,3.132-2.6c.058,0,.116,0,.173.005a2.462,2.462,0,0,1,.49-.926,2.321,2.321,0,0,1,.883-.643,2.354,2.354,0,0,1,.554-.155,8.9,8.9,0,0,1,2.242-1.6A12.909,12.909,0,0,1,21.339.5,9.356,9.356,0,0,1,23.78.155a6.469,6.469,0,0,1,2.235.373l.1.039L26.23.551C26.7.5,27.2.465,27.71.452A6.643,6.643,0,0,1,30.124,0a6.485,6.485,0,0,1,3.4.957c.12-.005.241-.008.361-.008A9.529,9.529,0,0,1,38.7,2.313a10.605,10.605,0,0,1,2.022,1.546,10.149,10.149,0,0,1,1.583,1.981l.039.042c.026.028.052.057.075.084l.386.45A12.273,12.273,0,0,1,43.862,7.81a4.663,4.663,0,0,0-2.039.489,4.342,4.342,0,0,0-1.57,1.389.7.7,0,0,0-.078.748.956.956,0,0,0,.83.479.843.843,0,0,0,.682-.343l.022-.03A2.562,2.562,0,0,1,43.9,9.5a.794.794,0,0,0,.578-.243c.051.186.1.381.146.594A29.407,29.407,0,0,1,55.343,7.942c1.041,0,2.115.047,3.192.14A5.606,5.606,0,0,0,58.02,9.16a.743.743,0,0,0,.056.594.886.886,0,0,0,.533.446.843.843,0,0,0,.223.031.878.878,0,0,0,.8-.581l.015-.04A3.022,3.022,0,0,1,60.525,8.3a46.808,46.808,0,0,1,6.609,1.407,72.317,72.317,0,0,1,7.688,2.706,1.973,1.973,0,0,0-1.052.924.8.8,0,0,0,0,.813.951.951,0,0,0,.789.459.736.736,0,0,0,.647-.385l.019-.033a.784.784,0,0,1,.133-.188l.012-.011.074-.034.138-.04.053-.013a.672.672,0,0,1,.133-.014l.057,0c.147-.008.3-.008.442-.009h.05a.766.766,0,0,0,.744-.492c1.244.563,2.479,1.159,3.673,1.774l.286.149a28.692,28.692,0,0,1,5.269,3.453,18.838,18.838,0,0,1,2.224,2.209A15.539,15.539,0,0,1,90.3,23.58a1.3,1.3,0,0,1,.144.788c.424.509.848,1.052,1.263,1.615a30.228,30.228,0,0,1,3,5.491,59.192,59.192,0,0,1,3.786,11.812c.947,4.261,1.693,8.593,2.237,11.891.423,2.572.727,4.687.955,6.656.28,2.419.445,4.612.5,6.7a45.552,45.552,0,0,1-1.143,11.852,35.991,35.991,0,0,1-1.84,5.634,32.086,32.086,0,0,1-6.187,9.509,29.958,29.958,0,0,1-4.032,3.587,26.857,26.857,0,0,1-4.62,2.748,24.3,24.3,0,0,1-5.124,1.721,26.3,26.3,0,0,1-5.489.585,24.343,24.343,0,0,1-8.025-1.334A22.323,22.323,0,0,1,58.6,98.78a1.907,1.907,0,0,1-.642-1.4,2.51,2.51,0,0,1,.148-.953,2.192,2.192,0,0,1,.495-.8,2.088,2.088,0,0,1,1.5-.629,2.562,2.562,0,0,1,1.641.629,17.353,17.353,0,0,0,5.742,3.2,20.387,20.387,0,0,0,6.494,1.033,22.232,22.232,0,0,0,7.466-1.295,20.936,20.936,0,0,0,4.245-2.106,24.263,24.263,0,0,0,3.71-2.954,28.051,28.051,0,0,0,3.126-3.6,30.356,30.356,0,0,0,4.611-9.3,37.05,37.05,0,0,0,1.189-5.524,47.609,47.609,0,0,0,.428-5.66c.033-1.789-.023-3.7-.165-5.673-.288-4.037-.868-7.966-1.541-12.315l-.382-2.462C96.2,46,95.783,43.5,95.245,41.012l-.134-.615c-.425-1.94-.788-3.418-1.177-4.791a39.6,39.6,0,0,0-1.6-4.648c-.67-1.588-1.489-3.139-2.275-4.578-.164-.3-.327-.6-.487-.879a1.144,1.144,0,0,1-.379.064,1.22,1.22,0,0,1-.368-.058,30.738,30.738,0,0,0-7.081-1.361c-.664-.045-1.347-.067-2.03-.067-.416,0-.842.008-1.265.025-.361-.021-.723-.032-1.076-.032a14.743,14.743,0,0,0-4.527.666c-.179-.154-.366-.309-.53-.446a1.251,1.251,0,0,1-.144-.018,1.391,1.391,0,0,1-.972-.827c-.011-.024-.021-.047-.028-.065-.218-.168-.452-.342-.693-.519a.841.841,0,0,1-.211.027.919.919,0,0,1-.63-.266,1.277,1.277,0,0,1-.36-.607c-.092-.062-.186-.124-.277-.183l-.106-.069a1.882,1.882,0,0,1-.3.052c-.065,0-.13.007-.193.007a2.082,2.082,0,0,1-1-.241,2.2,2.2,0,0,1-.97-1.126c-.057,0-.115.005-.172.005a3.469,3.469,0,0,1-1.892-.61,6.275,6.275,0,0,1-1.3-1.273,43.669,43.669,0,0,0-7.433-2.542,44.278,44.278,0,0,0-7.754-1.181c-.515.1-1.028.218-1.526.354-.125.034-.306.1-.483.173a14.555,14.555,0,0,1,1.743-.109A12.55,12.55,0,0,1,49.4,15.4a17.043,17.043,0,0,1,7.633,3.344,46.956,46.956,0,0,1,6.233,5.737.964.964,0,0,1,.191-.019,1.177,1.177,0,0,1,1.051.737.92.92,0,0,1-.262,1.047L57.735,32.3a.884.884,0,0,1-.192.757,1.167,1.167,0,0,1-.888.449.91.91,0,0,1-.212-.025c-1.045-.252-2.163-.514-3.416-.8a3.69,3.69,0,0,1-1.6.365,3.536,3.536,0,0,1-2.16-.723c-.03-.024-.083-.056-.14-.091h0l-.113-.071a2.472,2.472,0,0,1-.226.159l-.006,0-.022.015a1.758,1.758,0,0,1-.977.284,2.05,2.05,0,0,1-.321-.026,2.641,2.641,0,0,1-1.236-.6,3.353,3.353,0,0,1-.324-.351c-.24-.281-.539-.631-.733-.668l-.015,0a.027.027,0,0,1,.023.021c.022.11-.482.58-.645.7a1.907,1.907,0,0,1-1.133.391,1.833,1.833,0,0,1-.2-.011,2.184,2.184,0,0,1-1.179-.569,4.2,4.2,0,0,1-.848-1.043l-.032-.056-.013-.035-.011.037c0,.007,0,.014-.007.022a1.427,1.427,0,0,1-.4.486,1.619,1.619,0,0,1-1.083.427,1.663,1.663,0,0,1-.286-.025,1.951,1.951,0,0,1-1.083-.651l-.045-.05c-.084-.094-.653-.862-.564-1.044l.01-.016-.028-.006a1.1,1.1,0,0,1-.263.033.9.9,0,0,1-.584-.211A32.243,32.243,0,0,1,33.3,28.42c-.094.264-.179.51-.259.75a10.469,10.469,0,0,1,1.112.837c.21.173.408.336.6.48l.013.01c.917.678,1.956,1.446,2.97,2.2l3.934,2.91.45-.121a1.078,1.078,0,0,1,.28-.038,1.1,1.1,0,0,1,1,.732l.017.044a3.846,3.846,0,0,0,.3.631l.091,0a2.063,2.063,0,0,1,2,1.436l.133,0a5.569,5.569,0,0,1,.606.033,1.2,1.2,0,0,1,.847.448,1.061,1.061,0,0,1,.178.841l-.009.048-.017.078a1.2,1.2,0,0,1,.751.992,1.871,1.871,0,0,1,.248.531,4.83,4.83,0,0,1-.392,2.688c-.064.19-.125.369-.178.541l-.023.076c-.2.681-.412,1.344-.589,1.9l-.5,1.572a48.022,48.022,0,0,0-1.743,6.718,17.112,17.112,0,0,0,.132,6.877.823.823,0,0,1-.131.72.859.859,0,0,1-.676.317.889.889,0,0,1-.732-.386,60.6,60.6,0,0,0-4.19-5.244l-.072-.011a2.765,2.765,0,0,1-1.824-1.549l-.088-.14a1.89,1.89,0,0,1-.534.078,1.787,1.787,0,0,1-.338-.032,2.146,2.146,0,0,1-1.1-.627,2.47,2.47,0,0,1-.311-.469,1.681,1.681,0,0,0-.471-.616.759.759,0,0,0-.367-.074,3.854,3.854,0,0,0-.532.053h-.006a3.807,3.807,0,0,1-.514.052,1.018,1.018,0,0,1-.149-.01,3.571,3.571,0,0,1-1.029-.335,5.731,5.731,0,0,0-1.1,2.839,2.353,2.353,0,0,1-.327,1.012c.11,0,.219-.006.322-.006a8.506,8.506,0,0,1,1.559.143,6.466,6.466,0,0,1,4.881,3.976.086.086,0,0,1-.006.083.08.08,0,0,1-.066.037.075.075,0,0,1-.064-.039,3.9,3.9,0,0,0-1.763-1.468,5.716,5.716,0,0,0-2.284-.437,7.786,7.786,0,0,0-2.5.421,5.637,5.637,0,0,0-2.728,2.006,7.011,7.011,0,0,0-.835,1.479,8.744,8.744,0,0,0-.505,1.676,9.161,9.161,0,0,0-.169,1.938,10.191,10.191,0,0,0,.224,1.94A11.034,11.034,0,0,0,28.3,72.556a5.149,5.149,0,0,0,2.686,2.3,3.092,3.092,0,0,0,.952.139,8.192,8.192,0,0,0,1.1-.1h0a8.247,8.247,0,0,1,1.113-.1,3.265,3.265,0,0,1,.914.121,1.662,1.662,0,0,1,1.036.827,2.028,2.028,0,0,1,.18,1.322,2.825,2.825,0,0,1-.371.968c.12.238.24.483.356.719l0,.006A25.4,25.4,0,0,0,37.5,81.055,23.142,23.142,0,0,0,40.77,85c1.513,1.529,2.715,2.674,3.9,3.711a23.208,23.208,0,0,0,2.419,1.778c.57.382,1.159.776,1.717,1.2a2.9,2.9,0,0,1,1.011,1.3,2.225,2.225,0,0,1-.056,1.627,2.4,2.4,0,0,1-.847,1.032,2.27,2.27,0,0,1-1.287.443,1.613,1.613,0,0,1-.62-.12,14.236,14.236,0,0,1-2.861-1.628,28.447,28.447,0,0,1-2.553-2.1,19.14,19.14,0,0,1-2.084-2.225,18.6,18.6,0,0,1-1.7-2.53,29.578,29.578,0,0,1-2.191-5.38l-.072-.227a25.172,25.172,0,0,1-.744-2.824,5.85,5.85,0,0,1-2.738.606A7.807,7.807,0,0,1,31,79.588a8.078,8.078,0,0,1-2.722-.893A8.834,8.834,0,0,1,26,76.94a12.136,12.136,0,0,1-1.633-2.222c.033.385.056.755.078,1.113l0,.026q.008.138.017.271a5.041,5.041,0,0,1,1.152,4.544,3.322,3.322,0,0,1,.875,1.7,3.407,3.407,0,0,1-.176,1.895,2.888,2.888,0,0,1,.808,1.855,5.878,5.878,0,0,1-.274,2.19,3.818,3.818,0,0,1,.692,1.12,4.188,4.188,0,0,1,.291,1.276,4.274,4.274,0,0,1-.609,2.525l-.028.108a4.149,4.149,0,0,1,.492,1.251,4.327,4.327,0,0,1,.077,1.32,4.432,4.432,0,0,1-.32,1.286,4.365,4.365,0,0,1-.7,1.147,4.179,4.179,0,0,1,.445,1.477A2.963,2.963,0,0,1,27,101.262a2.237,2.237,0,0,1-.58.811,2.652,2.652,0,0,1-1,.541,2.163,2.163,0,0,1-.625.093,2.189,2.189,0,0,1-1.348-.473,21.634,21.634,0,0,1,.452,3.646,12.652,12.652,0,0,1-.4,3.655,2.244,2.244,0,0,1-.819,1.2,2.283,2.283,0,0,1-1.367.472,2.081,2.081,0,0,1-1.075-.285,2.434,2.434,0,0,1-.767-.744,14.849,14.849,0,0,1-.285,3.682,1.837,1.837,0,0,1-.574.967,2.336,2.336,0,0,1-1.007.542.983.983,0,0,1,.116,1.182,2.186,2.186,0,0,1-.8.839A1.96,1.96,0,0,1,15.931,117.648Zm-.81-12.878a.872.872,0,0,0-.818.624.858.858,0,0,0,.589,1.04,5.519,5.519,0,0,0,1.681.213.857.857,0,0,0,.843-.845.856.856,0,0,0-.843-.845,3.814,3.814,0,0,1-1.233-.153A.735.735,0,0,0,15.121,104.77Zm-3.648-8.945h0a2.309,2.309,0,0,0-1.689.613.828.828,0,0,0-.244.609.8.8,0,0,0,.244.586.889.889,0,0,0,.6.241.848.848,0,0,0,.556-.208l.066-.059.019-.018.01-.006c.024-.016.049-.031.074-.045l-.055.036c-.007.005-.011.008-.01.009h0a.484.484,0,0,0,.065-.028h0l.052-.024.017-.007h.005l.044,0c.077,0,.158,0,.223,0h.02a.876.876,0,0,0,.618-.275.777.777,0,0,0,.226-.57.912.912,0,0,0-.252-.594.815.815,0,0,0-.59-.251Zm9.859-6.574H21.31a.776.776,0,0,0-.611.265.891.891,0,0,0-.2.582.8.8,0,0,0,.814.844h.18a4.269,4.269,0,0,0,2.25-.48.808.808,0,0,0,.357-.429.84.84,0,0,0,.008-.5.971.971,0,0,0-.29-.463.75.75,0,0,0-.5-.2.8.8,0,0,0-.4.11L22.888,89a2.3,2.3,0,0,1-1.239.251h-.316Zm-7.309-5.113a.853.853,0,0,0-.532.2,2.435,2.435,0,0,0-.671.412.707.707,0,0,0-.229.809.952.952,0,0,0,.864.6.845.845,0,0,0,.558-.218.639.639,0,0,1,.157-.1l.045-.019h.9a.791.791,0,0,0,.24-.042c.231.032.448.074.622.109h.006l.122.024a.958.958,0,0,0,.177.017.828.828,0,0,0,.612-.267,1,1,0,0,0,.264-.583.7.7,0,0,0-.6-.8,9.264,9.264,0,0,0-1.689-.193,4.625,4.625,0,0,0-.5.026l-.12.015ZM13.918,67.63h0a3.675,3.675,0,0,0-2.141.676.857.857,0,0,0-.342.465.914.914,0,0,0,.011.527.971.971,0,0,0,.28.437.7.7,0,0,0,.459.181.753.753,0,0,0,.41-.13l.032-.021a2.807,2.807,0,0,1,.336-.2,3.247,3.247,0,0,0,.9.134,2.72,2.72,0,0,0,.943-.167l.078-.03.047.018a.893.893,0,0,0,.378.087.883.883,0,0,0,.58-.227.989.989,0,0,0,.311-.516.686.686,0,0,0-.417-.8,4.415,4.415,0,0,0-1.867-.433Zm.624-11.417h0c.159,0,.326.015.5.032.426.044.846.124,1.311.216a.958.958,0,0,0,.184.018.9.9,0,0,0,.868-.84.774.774,0,0,0-.115-.505.739.739,0,0,0-.488-.3l-.471-.093c-.186-.036-.338-.065-.48-.09a.835.835,0,0,0-.31-.088l-.056,0H15.22a6.076,6.076,0,0,0-.668-.04c-.073,0-.146,0-.216.005a1.871,1.871,0,0,0-.667.16,1.194,1.194,0,0,0-.511.408.832.832,0,0,0-.068.78.846.846,0,0,0,.825.574.942.942,0,0,0,.628-.231Zm-8.7-14.845a4.521,4.521,0,0,0-1.94.379,1.769,1.769,0,0,0-1.048,1.481.719.719,0,0,0,.166.568.8.8,0,0,0,.6.24.993.993,0,0,0,.526-.15.842.842,0,0,0,.353-.449,11.063,11.063,0,0,1,1.962-.177,10.914,10.914,0,0,1,1.194.066.953.953,0,0,0,.248-.874.7.7,0,0,0-.509-.506.732.732,0,0,0-.554-.507l-.1-.013A7.056,7.056,0,0,0,5.846,41.368Zm32.928-3.241h0a.78.78,0,0,0-.574.242,2.841,2.841,0,0,0-.466.658l-.082.163c-.015.029-.029.056-.043.08s-.047.078-.069.112l-.02.031-.02.02,0,0-.027.029a.919.919,0,0,0-.242.651.768.768,0,0,0,.242.545.923.923,0,0,0,.618.243.78.78,0,0,0,.574-.243A2.845,2.845,0,0,0,39.13,40l.082-.163c.015-.029.029-.055.043-.08s.043-.072.065-.106l0,0,.021-.034.034-.034.016-.017a.919.919,0,0,0,.242-.651.768.768,0,0,0-.242-.545.925.925,0,0,0-.619-.242Zm-18.188-.481c.023.013.045.027.067.041l.012.008.049.044a.9.9,0,0,0,.617.242.769.769,0,0,0,.567-.235.911.911,0,0,0,.564-.737.853.853,0,0,0-.362-.842,3.188,3.188,0,0,0-1.835-.632,2.705,2.705,0,0,0-1.859.764.737.737,0,0,0-.209.839.942.942,0,0,0,.84.59.811.811,0,0,0,.534-.208L19.6,37.5c.031-.029.061-.053.087-.073a.809.809,0,0,0,.531.2h.162l.081,0,.043,0h.006l.038.016.032.015h0a.471.471,0,0,0,.064.027s-.018-.016-.059-.042Zm12.953-5.922a.908.908,0,0,0-.249.037,2.926,2.926,0,0,0-1.864,2.417.865.865,0,0,0,.589,1.04.786.786,0,0,0,.208.027.84.84,0,0,0,.829-.618,3.472,3.472,0,0,1,.262-.832l.073-.142c.035-.065.046-.076.161-.176a.791.791,0,0,1,.168-.079l.021-.007a.8.8,0,0,0,.585-.916.94.94,0,0,0-.248-.522A.731.731,0,0,0,33.539,31.724ZM14.681,24.693h0a2.575,2.575,0,0,0-.992.174,1.58,1.58,0,0,0-.757.647.754.754,0,0,0-.033.787.942.942,0,0,0,.8.465.781.781,0,0,0,.662-.365h.031l.019,0,.26-.021h.019a4.032,4.032,0,0,1,.93.13.935.935,0,0,0,.215.026.778.778,0,0,0,.574-.247.962.962,0,0,0,.256-.552.816.816,0,0,0-.107-.525.765.765,0,0,0-.489-.332l-.163-.037a5.742,5.742,0,0,0-1.225-.152Zm37.2-7.755h0a.788.788,0,0,0-.562.249,8.157,8.157,0,0,0-1.589,2,.93.93,0,0,0-.079.641.815.815,0,0,0,.382.516.835.835,0,0,0,.423.11.8.8,0,0,0,.731-.414A6.337,6.337,0,0,1,52.5,18.393l.011-.011a.771.771,0,0,0,.186-.87.919.919,0,0,0-.816-.574Zm-9.066-.578a3.681,3.681,0,0,0-1.549,2.052.749.749,0,0,0,.058.6.884.884,0,0,0,.531.443.841.841,0,0,0,.223.031.875.875,0,0,0,.8-.581l.015-.04a2.607,2.607,0,0,1,.365-.706,1.346,1.346,0,0,1,.5-.408.882.882,0,0,0,.614-.888,1.368,1.368,0,0,1-.448.077A1.421,1.421,0,0,1,42.811,16.36ZM18.6,13.729c.041.009.081.02.12.033l.048.017h0a.421.421,0,0,0,.077.06l.046.033.006,0a.818.818,0,0,0,.562.233.942.942,0,0,0,.84-.59.737.737,0,0,0-.209-.839,2.306,2.306,0,0,0-1.594-.635,2.667,2.667,0,0,0-1.128.259.709.709,0,0,0-.368.446.912.912,0,0,0,.066.711.792.792,0,0,0,.71.4,1.061,1.061,0,0,0,.432-.1c-.014.007-.02.011-.02.012h0a1.116,1.116,0,0,0,.121-.034h0l.075-.023a.151.151,0,0,0,.034,0h.164l.055,0H18.6ZM36.692,68.9a.9.9,0,0,1-.666-.314L36,68.556a9.52,9.52,0,0,0-2.614-2.123,8.654,8.654,0,0,0-3.205-1.019,1.075,1.075,0,0,1-.775-.445,1.263,1.263,0,0,1-.229-.8,1,1,0,0,1,.236-.614.821.821,0,0,1,.633-.266,1.209,1.209,0,0,1,.135.008,11.7,11.7,0,0,1,4.012,1.185,10.876,10.876,0,0,1,3.3,2.576,1.044,1.044,0,0,1,.171,1.156,1.245,1.245,0,0,1-.4.488A.977.977,0,0,1,36.692,68.9Z" transform="translate(-10.33 4.861)"/>
  </g>
  <g id="FACE" transform="translate(112.183 77.354)">
    <path id="_Ink-3" data-name="ðŸ– Ink" d="M15.766,30.485a.1.1,0,0,1-.091-.078.092.092,0,0,1,.045-.107A25.859,25.859,0,0,1,20.6,28.584l.148-.041c2.109-.588,3.86-1.029,5.511-1.388,1.806-.393,3.622-.675,5-.876-.01-.024-.024-.061-.036-.1A7.787,7.787,0,0,1,31,24.343c-.007-.147-.014-.3-.023-.445l-.026-.4a4.974,4.974,0,0,1,.223-2.382.136.136,0,0,1,.109-.061c.265,0,.685.819.935,1.308.083.163.149.291.184.34l.007.01a6.063,6.063,0,0,1,1.308,3.126c0,.032,0,.063,0,.092,1.206-.166,2.222-.309,3.255-.467a1.011,1.011,0,0,1,.623-.2,2.152,2.152,0,0,1,.952.265,1.219,1.219,0,0,1,.6.654,1.431,1.431,0,0,1,.045.849,1.581,1.581,0,0,1-.459.8,1.271,1.271,0,0,1-.871.342h-.032c-.3-.007-.6-.011-.907-.011a83.036,83.036,0,0,0-9.569.748l-.644.075c-1.782.208-3.7.443-5.634.75-.448.071-.908.151-1.352.229h0a31.093,31.093,0,0,1-3.956.518Zm10.052-9.3h0a7.374,7.374,0,0,1-2.63-.53A13.281,13.281,0,0,1,20.094,18.9a1.189,1.189,0,0,1-.432-.687,1.423,1.423,0,0,1,.061-.771,1.754,1.754,0,0,1,.521-.753,1.267,1.267,0,0,1,.811-.317,1.151,1.151,0,0,1,.628.193l.209.161,0,0a16.743,16.743,0,0,0,1.936,1.347,4.768,4.768,0,0,0,2.321.74,2.505,2.505,0,0,0,.981-.193,2.74,2.74,0,0,0,.913-.647,2.8,2.8,0,0,0,.531-2.255,4.26,4.26,0,0,0-1.13-2,8.241,8.241,0,0,0-1.711-1.381.531.531,0,0,1-.143-.61.8.8,0,0,1,.264-.38.809.809,0,0,1,.5-.167,1.076,1.076,0,0,1,.182.016,5.736,5.736,0,0,1,2.018.729,4.578,4.578,0,0,1,1.357,1.252,4.974,4.974,0,0,1,.866,3.322,5.475,5.475,0,0,1-.444,1.744,5.087,5.087,0,0,1-1,1.5A4.779,4.779,0,0,1,25.817,21.183ZM11.387,10.412a1.776,1.776,0,0,1-.882-.222,1.25,1.25,0,0,1-.576-.682,2.872,2.872,0,0,1-.226-1.6,9.4,9.4,0,0,1,.339-1.626l.021-.075c-1.592-.379-3.223-.717-4.8-1.045C3.559,4.809,1.8,4.443.085,4.027A.122.122,0,0,1,0,3.9a.1.1,0,0,1,.085-.1,35.985,35.985,0,0,1,5.469-.385c.822,0,1.693.023,2.587.067,1.388.069,2.793.174,4.177.311.735.073,1.467.155,2.174.243.164.021.356.064.558.11a4.6,4.6,0,0,0,.959.152,1.114,1.114,0,0,0,.3-.035,2.013,2.013,0,0,1,.532-.072,2.084,2.084,0,0,1,1.641.831,2.011,2.011,0,0,1,.349,1.764,1.965,1.965,0,0,1-.752,1.1,2.045,2.045,0,0,1-1.2.374,2.212,2.212,0,0,1-1.367-.477c-.548-.193-1.095-.374-1.626-.538a2.21,2.21,0,0,1-.189.506c-.1.2-.2.38-.278.557v0s-.067.175-.12.3l-.012.029-.117.3a2.131,2.131,0,0,1-.984,1.3A1.818,1.818,0,0,1,11.387,10.412Zm20.672-.363h0a1.54,1.54,0,0,1-1.091-.524,1.109,1.109,0,0,1-.3-.868c.012-.1.022-.192.034-.293.02-.177.04-.359.066-.541a2.158,2.158,0,0,1-.683.107,2.526,2.526,0,0,1-1.065-.241,2.3,2.3,0,0,1-.846-.665,2.386,2.386,0,0,1-.416-1.948,2.083,2.083,0,0,1,1.062-1.436,8.215,8.215,0,0,1,2.1-.664c.255-.056.518-.114.777-.18.959-.246,1.928-.532,2.881-.852.818-.275,1.646-.571,2.446-.857l.351-.126c.488-.175.941-.324,1.383-.456.076-.022.163-.058.256-.1a1.82,1.82,0,0,1,.477-.149A.43.43,0,0,1,39.868,0a.521.521,0,0,1,.412.24A.7.7,0,0,1,40.4.779a1.553,1.553,0,0,1-.244.575,6.173,6.173,0,0,1-.88,1l0,0-.116.114-.048.048a19.446,19.446,0,0,1-3.724,2.794c-.3.184-.6.357-.836.487a2.906,2.906,0,0,1,.138.32,2.936,2.936,0,0,1,.024,1.8,3.275,3.275,0,0,1-.983,1.508A2.561,2.561,0,0,1,32.059,10.049Z" transform="translate(10.352 18.176)"/>
  </g>
</svg>
