<svg id="peep-30" xmlns="http://www.w3.org/2000/svg" width="240" height="324" viewBox="0 0 240 324">
  <g id="BODY" transform="translate(31.056 135.053)">
    <path id="_Skin" data-name="âœ‹ Skin" d="M120.408,54.524A22.062,22.062,0,0,1,115.194,52c-4.644-3.458-7.673-8.663-10.534-13.594a91.18,91.18,0,0,1-8.887-22.786c-.853-3.425-1.143-7.4-3.08-10.433C88.3-1.17,75.42-.346,68.58.77,64,1.581,63.053,6.709,62.013,10.5A79.865,79.865,0,0,0,60.1,20.076a23.91,23.91,0,0,1-3.629,1.877C43.194,26.026,40.86,33.578,35.788,45.244,27.221,62.2,3.974,68.84.462,88.907c-2.262,13.248,4.171,25.712,10.8,36.726,6.177,12.03,14.8,17.8,28.536,14.962,12.882-2.891,25.262-7.727,37.918-11.464,6.13-1.508,12.249-5.429,18.7-4.062a163.977,163.977,0,0,0,40.551,4c19.116.773,19.113-17.581,17.151-31.8-1.374-22.12-12.527-36.324-33.711-42.753Z" transform="translate(19.014 -8.454)" fill="#d08b5b"/>
    <path id="_Ink" data-name="ðŸ– Ink" d="M82.563,155.5c-11.877,0-22.941-.362-32.884-1.075a209.373,209.373,0,0,1-28.274-3.665,3.482,3.482,0,0,1-2.659,1.19,3.374,3.374,0,0,1-1.547-.365,2.948,2.948,0,0,1-1.2-1.132,4.941,4.941,0,0,1-.573-1.86,19.562,19.562,0,0,1-.133-2.062v0c-.008-.295-.016-.573-.03-.835-.049-.923-.223-5.134-.406-9.593v-.013c-.191-4.639-.389-9.436-.481-11.39-.029-.623-.062-1.28-.088-1.808-.156-3.159-.317-6.426-.288-9.643.019-2.091.112-3.959.286-5.71.015-.146.027-.306.039-.476a6.327,6.327,0,0,1,.44-2.24A57.606,57.606,0,0,0,10.8,95.881a36.4,36.4,0,0,1-7.459-2.824L3.034,92.9a8.975,8.975,0,0,1-1.4-.807,2.9,2.9,0,0,1-.983-1.242,7.737,7.737,0,0,1-.65-3.275,67.5,67.5,0,0,1,.8-7.047c.083-.557.17-1.132.25-1.7.429-2.988.932-5.988,1.5-8.917,1.653-8.579,3.679-17.68,7.277-26.1,3.694-8.649,9.147-15.351,16.207-19.921A60.39,60.39,0,0,1,39.815,17.4a81.867,81.867,0,0,1,14.87-3.379c.2-.027.4-.058.588-.088a9.93,9.93,0,0,1,1.515-.159,3.551,3.551,0,0,1,1.2.192c.064.023.131.048.2.072a2.352,2.352,0,0,0,.8.2h.01a5.661,5.661,0,0,0,.976-.13c.208-.04.424-.081.628-.1,1.1-.128,2.218-.2,3.3-.273h.014l.937-.063c.173-.012.352-.023.525-.033h0a9.493,9.493,0,0,0,2.951-.487c1.9-.757,3.07-6.27,3.631-8.919.122-.576.219-1.031.286-1.263.032-.111.065-.23.1-.345A4.117,4.117,0,0,1,73.642.17a1.228,1.228,0,0,1,.64-.17,1.185,1.185,0,0,1,.9.368,2.148,2.148,0,0,1,.435,1.463,10.186,10.186,0,0,1-.21,1.716c-.053.3-.1.575-.134.826-.01.085-.022.2-.036.341-.056.565-.161,1.617-.4,2.851a19.448,19.448,0,0,1-1.207,4.042,10.4,10.4,0,0,1-2.552,3.7,7.216,7.216,0,0,1-1.949,1.242,7.6,7.6,0,0,1-2.486.581,47.618,47.618,0,0,0-5.305.569,3.181,3.181,0,0,0-1.681.631.606.606,0,0,0-.109.506c.005.053.01.108.01.161a39.382,39.382,0,0,0,3.571,5.337,43.8,43.8,0,0,0,5.292,5.335,34.964,34.964,0,0,0,4.939,3.483,35.565,35.565,0,0,0,5.469,2.591,34.867,34.867,0,0,0,5.827,1.616,33.157,33.157,0,0,0,6.015.557c.171,0,.344,0,.515,0A18.6,18.6,0,0,0,97.332,36.9a12.437,12.437,0,0,0,2.71-1.378,11.927,11.927,0,0,0,2.368-2.127,19.7,19.7,0,0,0,3.129-5.71c.835-2.162,1.48-4.406,2.05-6.386l.186-.646c-2.735-3.41-3.887-7.955-2.867-11.308.3-.972.727-1.465,1.283-1.465a1.411,1.411,0,0,1,.72.236c.669.407.821,1.886.943,3.074a9.632,9.632,0,0,0,.16,1.166,9.654,9.654,0,0,0,2.639,4.286l.365.411c.084-.007.168-.01.252-.01a3.257,3.257,0,0,1,2.349,1.04,62.446,62.446,0,0,1,9.2,2.877,31.784,31.784,0,0,1,8.271,4.877,42.194,42.194,0,0,1,5.49,5.563c1.442,1.732,2.928,3.727,4.677,6.278,2.509,3.66,4.974,7.442,7.357,11.1l.008.012c.88,1.35,1.79,2.746,2.688,4.116l1.98,3.017.1.149c3.012,4.591,6.126,9.338,9.214,14.008.934,1.413,1.87,2.825,2.781,4.2.431.649.887,1.334,1.395,2.095.105.158.219.314.338.48l0,0A5.348,5.348,0,0,1,168,78.4a3.346,3.346,0,0,1-.051,1.571c-.021.106-.043.216-.059.316a6.32,6.32,0,0,1-.539,1.884,7.464,7.464,0,0,1-1.6,2.141,30.159,30.159,0,0,1,1.282,3.417,35.793,35.793,0,0,1,.892,3.541,47.744,47.744,0,0,1,.842,7.256,52.655,52.655,0,0,1-.813,12.316,20.906,20.906,0,0,1-1.416,4.534,15.139,15.139,0,0,1-2.577,3.974,14.537,14.537,0,0,1-3.04,2.519,17.921,17.921,0,0,1-3.568,1.7,26.773,26.773,0,0,1-8.973,1.36c-1.485,0-3.075-.082-4.861-.251.072.306.135.613.2.91l0,.013c.025.122.051.247.077.368.114.538.233,2.852.37,5.532v0c.2,3.967.456,8.9.816,10.532.06.271.112.561.167.868a7.339,7.339,0,0,0,.9,2.835,4.865,4.865,0,0,1,.73,1.469,3.442,3.442,0,0,1,.066,1.633,5.464,5.464,0,0,1-1.331,2.544c-.14.139-.228.24-.292.314-.176.2-.176.2-.608.23-.339.021-.97.059-2.182.233-3.268.467-7.139.907-11.506,1.308-4.43.406-9.272.763-14.391,1.06-10.936.635-22.685.971-33.975.971h0ZM40.684,83.181a60.442,60.442,0,0,0-8.8.661c-2.714.4-5.54.971-8.641,1.742-2.51.624-5.209,1.382-8.491,2.384.1.362.215.79.337,1.214.265.922.546,1.844.836,2.741.628,1.943,1.331,3.872,2.088,5.733a74.271,74.271,0,0,0,5.45,10.759,73.523,73.523,0,0,0,5.968,8.484,48.983,48.983,0,0,0,3.522,3.847,37.563,37.563,0,0,0,3.917,3.349,14.166,14.166,0,0,0,3.962,2.066,13.958,13.958,0,0,0,4.386.694h0c.207,0,.42,0,.631-.013a44.547,44.547,0,0,0,9.5-1.807h0c.457-.122.929-.248,1.392-.369,7.455-1.948,14.9-4.262,22.142-6.877,3.148-1.137,6.457-2.415,10.73-4.142,1.933-.782,3.693-1.518,5.381-2.251.518-.225,1.043-.474,1.551-.716.326-.155.663-.315,1-.47-1.633-.982-3.267-2.019-4.848-3.022l-.006,0c-1.531-.971-3.113-1.975-4.693-2.928-1.948-1.176-3.692-2.134-5.329-2.931a40.141,40.141,0,0,0-5.638-2.267,48.258,48.258,0,0,0-6.345-1.512,50.638,50.638,0,0,0-6.489-.659c-.879-.033-1.775-.035-2.642-.037-1.233,0-2.508-.007-3.753-.1a8.144,8.144,0,0,1-2.53-.546,5.3,5.3,0,0,1-1.111-.616,4.771,4.771,0,0,1-.944-.914,12.1,12.1,0,0,1-1.794-4.193c-.092-.319-.186-.648-.283-.963-.575-1.867-1.132-3.762-1.649-5.532-.166-.029-.333-.063-.494-.1h0c-.181-.037-.369-.076-.55-.106-.814-.136-1.653-.249-2.5-.336-1.511-.157-3.082-.245-4.67-.262C41.089,83.182,40.886,83.181,40.684,83.181Zm22.334,8.513h0a53.51,53.51,0,0,1,12.668,1.544,48.256,48.256,0,0,1,6.626,2.144,53.51,53.51,0,0,1,6.27,3.036c2.249,1.273,4.461,2.692,6.6,4.064l0,0h0c1.642,1.054,3.34,2.143,5.044,3.159A94.023,94.023,0,0,0,126.1,116.21c2.264.554,4.659,1.063,7.117,1.515,2.291.421,4.709.8,7.188,1.139a56.284,56.284,0,0,0,7.592.588c.954,0,1.886-.036,2.77-.107a19.53,19.53,0,0,0,4.475-.843,10.864,10.864,0,0,0,3.95-2.2,10.4,10.4,0,0,0,2.941-4.951,27.572,27.572,0,0,0,.9-5.786,62.89,62.89,0,0,0,.1-6.893,37.56,37.56,0,0,0-.9-6.826,28.119,28.119,0,0,0-2.226-6.118c-.156-.318-.348-.656-.551-1.013v0a9.457,9.457,0,0,1-1.246-2.9c-.437-.023-.883-.035-1.325-.035a26.646,26.646,0,0,0-5.186.522,31.861,31.861,0,0,0-5,1.447l.093.006.028,0c.411.025.836.051,1.254.079,1.3.086,2.368.186,3.365.314.176.023.357.041.55.06H152a5.2,5.2,0,0,1,2.235.556,2.048,2.048,0,0,1,.939,1.552,2.5,2.5,0,0,1-.13,1.081,2.451,2.451,0,0,1-.591.937,2.563,2.563,0,0,1-1.147.619,5.477,5.477,0,0,1-1.426.161,17.957,17.957,0,0,1-2.051-.158c-.29-.034-.564-.066-.812-.087-9.744-.832-17.183-1.616-24.121-2.542-8.308-1.109-16.655-2.547-24.438-3.934-3.908-.7-8.1-1.419-12.254-1.98a121.957,121.957,0,0,0-12.358-1.094c-.935-.03-1.863-.046-2.758-.046-1.63,0-3.23.051-4.755.152-1.619.107-3.211.275-4.73.5a66.957,66.957,0,0,0-9.015,2.183l-.007,0c-.625.183-1.272.372-1.912.554.286.682.571,1.372.847,2.04.654,1.582,1.33,3.217,2.038,4.807.063.141.126.3.192.474.272.7.61,1.569,1.273,1.829a2.732,2.732,0,0,0,1,.155,10.662,10.662,0,0,0,1.3-.109c.284-.036.552-.069.793-.083C61.068,91.722,62.046,91.694,63.018,91.694Zm66.746-13.8a6.589,6.589,0,0,0-2.586.625,24.08,24.08,0,0,0-2.431,1.278c-.207.119-.4.232-.6.341-.534.305-1.1.651-1.786,1.089,4.427.607,8.963,1.153,13.482,1.624a14.439,14.439,0,0,0-4.019-4.345,3.653,3.653,0,0,0-1.013-.469A3.827,3.827,0,0,0,129.764,77.889Z" transform="translate(8.873 -0.423)"/>
  </g>
  <g id="HEAD" transform="translate(78.592 38.043)">
    <path id="_Skin-2" data-name="âœ‹ Skin" d="M36.094.016C67.825,1.023,69.739,16.133,69.739,41.473S53.278,82.78,47.217,85.568,25.2,100.333,10.793,94.814.561,65.978.561,55.96,4.362-.991,36.094.016Z" transform="translate(18.78 22.212)" fill="#d08b5b"/>
    <path id="_hijab" data-name="ðŸ§• hijab" d="M0,39.279Q9.841-.951,35.932.023C62.022,1,61.747,27.656,60.11,25.225q-1.6-2.382-22.461-16.643L36.789,8Z" transform="translate(24.203 23.163)" fill="#9fd8e5"/>
    <path id="_Ink-2" data-name="ðŸ– Ink" d="M54.8,132.436c-4.425,0-8.639-1.7-12.177-3.365-6.31-2.965-12.6-6.276-18.685-9.477l0,0c-1.869-.984-3.8-2-5.705-2.992-4.726-2.46-8.59-4.489-12.158-6.385-.337-.179-.779-.419-1.214-.693H4.747l-.234,0c-.271,0-.55.017-.845.034s-.608.036-.91.036a4,4,0,0,1-1.216-.155A2.15,2.15,0,0,1,.1,107.979,2.544,2.544,0,0,1,0,107.111a3.829,3.829,0,0,1,.544-1.69,12.89,12.89,0,0,1,2.861-2.992l.2-.171c1.226-1.037,2.489-1.965,3.564-2.736.5-.359,1.013-.72,1.509-1.069.9-.632,1.826-1.286,2.718-1.956l.033-.051c.064-.1.129-.2.192-.3a16.862,16.862,0,0,0,2.439-7.317,24.231,24.231,0,0,1-1.429-1.978A51.59,51.59,0,0,1,7,74.665,65.8,65.8,0,0,1,4.272,61.494a60.61,60.61,0,0,1,.08-13.348A56.114,56.114,0,0,1,12.46,24.863a57.463,57.463,0,0,1,7-9.117A54.614,54.614,0,0,1,28.141,8.26,50.086,50.086,0,0,1,38.233,2.855,41.653,41.653,0,0,1,45.462.735,38.926,38.926,0,0,1,52.933,0a36.311,36.311,0,0,1,6.813.64,34.194,34.194,0,0,1,5.573,1.574A36.858,36.858,0,0,1,70.6,4.694a37.868,37.868,0,0,1,4.834,3.274,36.8,36.8,0,0,1,4.237,3.956,41.3,41.3,0,0,1,3.106,3.849,45.059,45.059,0,0,1,2.631,4.163,53.319,53.319,0,0,1,3.962,9.047,75.982,75.982,0,0,1,3.59,19.441,74.758,74.758,0,0,1-2.6,25.1,73.221,73.221,0,0,1-4.3,11.345A80.723,80.723,0,0,1,80.007,95.42c.218.327.458.676.78,1.129,1.072,1.5,2.216,3.128,3.32,4.815a33.449,33.449,0,0,1,2.623,4.657,16.76,16.76,0,0,1,1.446,5.086,13.37,13.37,0,0,1,.076,1.75,2.53,2.53,0,0,1-.767,1.7,2.419,2.419,0,0,1-1.674.747,1.923,1.923,0,0,1-1.147-.38,5.256,5.256,0,0,0-3.188-1.018,9.474,9.474,0,0,0-2.989.562c-1.107,1.406-2.255,2.817-3.411,4.193-1.56,1.855-2.973,3.52-4.48,5.124A43.193,43.193,0,0,1,65.61,128.4a20.507,20.507,0,0,1-5.063,2.929,15.744,15.744,0,0,1-5.724,1.11Zm-31.17-30.574a.809.809,0,0,0-.538.211.972.972,0,0,0-.3.489.739.739,0,0,0,.394.868,34.029,34.029,0,0,0,6.3,2.58,53.681,53.681,0,0,0,6.647,1.523.969.969,0,0,0,.161.014.93.93,0,0,0,.894-.87.684.684,0,0,0-.607-.774,54.1,54.1,0,0,1-6.44-1.454,32.2,32.2,0,0,1-6.109-2.478A.855.855,0,0,0,23.627,101.861Zm6.21-6.929a.944.944,0,0,0-.845.593.732.732,0,0,0,.213.833,29.961,29.961,0,0,0,4.2,3.207,34.316,34.316,0,0,0,4.648,2.46,43.605,43.605,0,0,0,10.109,2.95.968.968,0,0,0,.162.014.845.845,0,0,0,.627-.274,1.007,1.007,0,0,0,.266-.595.685.685,0,0,0-.607-.776,43.029,43.029,0,0,1-9.707-2.787,32.55,32.55,0,0,1-4.47-2.332,27.945,27.945,0,0,1-4.03-3.064A.823.823,0,0,0,29.837,94.933ZM60.905,24.317l-.415.339-.027.022-.4.324c-.685.56-1.372,1.125-2.037,1.672h0c-1,.822-2.033,1.672-3.055,2.5-3.648,2.957-7.253,5.973-9.987,8.27-5.342,4.489-12.393,10.4-19.556,16.305a33.277,33.277,0,0,0-.629,6.693,40.512,40.512,0,0,0,.608,6.7,43.43,43.43,0,0,0,1.91,7.118c.9,2.54,1.971,4.979,2.8,6.82,1.412,1.324,2.612,2.4,3.774,3.379,1.382,1.166,2.7,2.185,4.018,3.116a39.263,39.263,0,0,0,10.431,5.4,26.42,26.42,0,0,0,8.217,1.363,22.243,22.243,0,0,0,5.395-.652,21,21,0,0,0,5.156-2.046,27.078,27.078,0,0,0,6.724-5.4A35.127,35.127,0,0,0,78.8,79.159c2.835-5.275,4.4-11.406,4.782-18.743a85.893,85.893,0,0,0-.106-9.855c-.217-3.475-.582-6.891-.91-9.773a.978.978,0,0,1-.138.01,1.112,1.112,0,0,1-.286-.039,4.659,4.659,0,0,1-2.071-1.6c-.185-.207-.359-.4-.539-.583-.853-.862-1.726-1.7-2.593-2.488-1.655-1.505-3.433-2.975-5.285-4.368-1.832-1.376-3.772-2.659-5.648-3.9C64.318,26.7,62.568,25.538,60.905,24.317Zm.805-3.982a20.93,20.93,0,0,0-3.238.278,21.732,21.732,0,0,0-3.113.757,25.531,25.531,0,0,0-5.847,2.788c-1.758,1.119-3.565,2.4-5.372,3.8C42.5,29.242,40.8,30.668,39.1,32.2a61.241,61.241,0,0,0-4.419,4.385,46.994,46.994,0,0,0-3.872,4.866,37.094,37.094,0,0,0-3.086,5.366A31.2,31.2,0,0,0,25.66,52.7l-.014.059c-.028.12-.058.243-.085.366C31.3,47.494,37.4,41.786,43.7,36.159c1.923-1.718,3.884-3.457,5.781-5.138l0,0,0,0c1.273-1.129,2.589-2.3,3.882-3.446,1.461-1.3,2.965-2.6,4.42-3.852l.535-.461.591-.51.005,0c.62-.535,1.26-1.088,1.892-1.629.108-.093.217-.19.323-.284h0C61.322,20.663,61.515,20.493,61.71,20.336Zm2.865.173a1.054,1.054,0,0,1-.044.184,3.235,3.235,0,0,1-.705,1.165,9.127,9.127,0,0,1-1.016.907l0,0-.19.154c-.284.23-.568.463-.812.664A28.8,28.8,0,0,1,67.7,26.106a52.337,52.337,0,0,1,5.4,3.5,65.488,65.488,0,0,1,5.673,4.645c.876.8,1.747,1.639,2.589,2.494.133.134.276.27.427.414h0c.135.128.274.26.411.4l-.023-.2,0-.024-.037-.318a1.386,1.386,0,0,1,.272-.976,21.623,21.623,0,0,0-2.582-5.731,21.909,21.909,0,0,0-4.04-4.7A21.571,21.571,0,0,0,70.6,22.248,20.857,20.857,0,0,0,64.575,20.509Z" transform="translate(0.632 7.82)"/>
  </g>
  <g id="FACE" transform="translate(112.183 77.354)">
    <path id="_Ink-3" data-name="ðŸ– Ink" d="M22.824,40.539a8.045,8.045,0,0,1-3.052-.61,8.621,8.621,0,0,1-1.992-1.145,8.487,8.487,0,0,1-1.622-1.636,1.676,1.676,0,0,1-.338-1.3,1.871,1.871,0,0,1,.728-1.172,1.793,1.793,0,0,1,1.067-.372,1.548,1.548,0,0,1,.238.018,1.648,1.648,0,0,1,1.1.73l.065.09A5.7,5.7,0,0,0,21.108,36.9a4.735,4.735,0,0,0,2.069.483,4.583,4.583,0,0,0,.513-.029,5.388,5.388,0,0,0,2.278-.8,10.668,10.668,0,0,0,1.93-1.611c.138-.141.284-.294.474-.5a.751.751,0,0,1,.394-.3.806.806,0,0,1,.256-.041.871.871,0,0,1,.714.373.8.8,0,0,1,.135.524,4.812,4.812,0,0,1-.57,1.864,6.221,6.221,0,0,1-1.22,1.567,7.841,7.841,0,0,1-1.847,1.288,7.69,7.69,0,0,1-2.05.7A7.548,7.548,0,0,1,22.824,40.539Zm2.148-12.17h0a7.373,7.373,0,0,1-2.63-.53,13.281,13.281,0,0,1-3.093-1.756,1.189,1.189,0,0,1-.432-.687,1.423,1.423,0,0,1,.061-.771,1.754,1.754,0,0,1,.521-.753,1.267,1.267,0,0,1,.812-.317,1.151,1.151,0,0,1,.628.193l.209.161,0,0a16.744,16.744,0,0,0,1.936,1.347,4.768,4.768,0,0,0,2.321.74,2.505,2.505,0,0,0,.981-.193,2.74,2.74,0,0,0,.913-.647,2.8,2.8,0,0,0,.531-2.255,4.26,4.26,0,0,0-1.13-2,8.241,8.241,0,0,0-1.711-1.381.531.531,0,0,1-.144-.61.8.8,0,0,1,.264-.38.809.809,0,0,1,.505-.167,1.076,1.076,0,0,1,.181.016,5.736,5.736,0,0,1,2.018.729,4.577,4.577,0,0,1,1.357,1.252,4.974,4.974,0,0,1,.866,3.322,5.475,5.475,0,0,1-.444,1.744,5.087,5.087,0,0,1-1,1.5A4.779,4.779,0,0,1,24.972,28.369ZM7.859,16.485a1.724,1.724,0,0,1-1.119-.439,1.744,1.744,0,0,1-.587-1.128,12.706,12.706,0,0,1,.067-3.308c.04-.321.081-.654.11-1.012a1.98,1.98,0,0,1,.75-1.415,2.31,2.31,0,0,1,1.421-.5,1.751,1.751,0,0,1,1.075.338,1.594,1.594,0,0,1,.594,1.057,8.877,8.877,0,0,1-.926,5.469,1.754,1.754,0,0,1-.619.716A1.427,1.427,0,0,1,7.859,16.485Zm25.119-.75a1.508,1.508,0,0,1-1.183-.507A4.624,4.624,0,0,1,31.074,14a5.342,5.342,0,0,1-.368-1.477,3.131,3.131,0,0,1,.853-2.687,1.772,1.772,0,0,1,.137-.208,1.933,1.933,0,0,1,1.487-.856,1.611,1.611,0,0,1,.452.067,2.175,2.175,0,0,1,1.453,1.268,4.486,4.486,0,0,1,.18,2.453,8.214,8.214,0,0,1-.744,2.314,1.5,1.5,0,0,1-.643.635A1.947,1.947,0,0,1,32.979,15.735ZM.278,7.854a.274.274,0,0,1-.229-.14.306.306,0,0,1-.018-.3A10.425,10.425,0,0,1,2.368,4.454,14.446,14.446,0,0,1,5.5,2.317a13.445,13.445,0,0,1,3.714-1.3l.4-.069A9.66,9.66,0,0,1,11.226.776a2.5,2.5,0,0,1,2,.746,1.7,1.7,0,0,1,.4,1.208,1.106,1.106,0,0,1-.4.789,3.08,3.08,0,0,1-2.112.62c-.166,0-.338,0-.5-.008H10.6c-.16,0-.341-.009-.521-.009s-.314,0-.452.012a14.274,14.274,0,0,0-3.143.536A21.357,21.357,0,0,0,.424,7.806.26.26,0,0,1,.278,7.854Zm38.247-1.6h0l-.167-.042A9.458,9.458,0,0,1,36.524,5.5l-.6-.293A16.537,16.537,0,0,0,33.8,4.3a25.089,25.089,0,0,0-4.845-1.07,1.979,1.979,0,0,1-.972-.369,1.457,1.457,0,0,1-.544-.828A1.482,1.482,0,0,1,27.609.786a1.581,1.581,0,0,1,.767-.661A1.725,1.725,0,0,1,29.03,0a1.926,1.926,0,0,1,.377.038l.3.062a21.676,21.676,0,0,1,5.232,1.7,10.579,10.579,0,0,1,2.3,1.514,6.719,6.719,0,0,1,1.627,2.1c.057.439,0,.548-.055.622L38.8,6.06l-.015.02a.421.421,0,0,1-.26.173Z" transform="translate(11.197 10.99)"/>
  </g>
  <g id="ACCESORIES" transform="translate(88.521 88.978)">
    <path id="_Ink-4" data-name="ðŸ– Ink" d="M39.146,24.884h0A13.261,13.261,0,0,1,32.083,22.8a9.353,9.353,0,0,1-2.925-3,8.643,8.643,0,0,1-1.165-3.494,11.388,11.388,0,0,1,.383-4.253,3.852,3.852,0,0,1-1.125.148,5.49,5.49,0,0,1-1.64-.248,2.351,2.351,0,0,1-1.183-.732c-2.291-.2-4.606-.48-6.844-.754A102.858,102.858,0,0,0,5.125,9.452c-1,0-1.977.029-2.914.088a.655.655,0,0,0-.593.4,1.719,1.719,0,0,0-.034.7,1.725,1.725,0,0,1-.033.693.649.649,0,0,1-.586.4,1.011,1.011,0,0,1-.948-.964,2.57,2.57,0,0,1,.244-1.39,1.783,1.783,0,0,1,.879-.945c.419-.3,1.7-.459,3.69-.459a83.676,83.676,0,0,1,9.582.7A81.5,81.5,0,0,1,24.53,10.493a3.572,3.572,0,0,1,2-.479,14.514,14.514,0,0,1,1.889.166c.2.027.394.052.573.073a12.677,12.677,0,0,1,1.591-2.785,15.625,15.625,0,0,1,2.441-2.6,12.519,12.519,0,0,1,3.037-1.922,8.442,8.442,0,0,1,3.378-.75,7.04,7.04,0,0,1,1.135.092,15.639,15.639,0,0,1,3.286.52,10.275,10.275,0,0,1,2.865,1.272,8.728,8.728,0,0,1,2.3,2.194A11.025,11.025,0,0,1,50.6,9.561a8.115,8.115,0,0,1,2.7-1.578,9.576,9.576,0,0,1,3.2-.561,7.057,7.057,0,0,1,3.61.906,13.526,13.526,0,0,1,3.144-4.46,12.513,12.513,0,0,1,4.721-2.751A5.715,5.715,0,0,1,71.322,0a6.2,6.2,0,0,1,2.6.6,8.835,8.835,0,0,1,2.33,1.6,11.3,11.3,0,0,1,1.866,2.3,11.131,11.131,0,0,1,1.212,2.683A2.557,2.557,0,0,1,80.441,6.7a5.865,5.865,0,0,1,1.2-.12,1.123,1.123,0,0,1,.66.354.756.756,0,0,1,.184.563c-.038.4-.426.812-1.207.812a4.063,4.063,0,0,1-1.757-.5,15.085,15.085,0,0,1,.28,6.261,10.375,10.375,0,0,1-2.044,4.583,10.251,10.251,0,0,1-1.847,1.81,11.08,11.08,0,0,1-2.194,1.294A12.174,12.174,0,0,1,68.8,22.8h0a11.736,11.736,0,0,1-2.292-.224,10.594,10.594,0,0,1-2.158-.672,9.3,9.3,0,0,1-1.92-1.122,8.381,8.381,0,0,1-1.579-1.573,8.673,8.673,0,0,1-1.668-4.051,13.681,13.681,0,0,1,.451-5.572,16.889,16.889,0,0,0-3.929-.5,10.936,10.936,0,0,0-4.917,1.083,11.3,11.3,0,0,1,.418,2.69,11.02,11.02,0,0,1-.225,2.594,11.306,11.306,0,0,1-.8,2.424,11.79,11.79,0,0,1-1.309,2.18,12.182,12.182,0,0,1-9.718,4.827ZM40.5,3.818h0a15.239,15.239,0,0,0-5.324,1.063,13.487,13.487,0,0,0-4.32,4.911,12.475,12.475,0,0,0-1.127,3.052,9.55,9.55,0,0,0-.2,3.1,7.221,7.221,0,0,0,1.475,3.715,8.845,8.845,0,0,0,3.832,2.726,10.98,10.98,0,0,0,2.059.608,11.294,11.294,0,0,0,2.122.2,11.122,11.122,0,0,0,4.668-1.02,10.19,10.19,0,0,0,2.043-1.261,9.7,9.7,0,0,0,1.7-1.748A10.3,10.3,0,0,0,49.5,13.885a10.152,10.152,0,0,0-.109-2.735A9.5,9.5,0,0,0,48.562,8.6a8.7,8.7,0,0,0-1.28-1.911A8.246,8.246,0,0,0,45.5,5.174a8.573,8.573,0,0,0-2.266-1A10.17,10.17,0,0,0,40.5,3.818Zm30.275-2.33a.118.118,0,0,0-.052.01,10.3,10.3,0,0,0-2.009.519c-.356.118-.691.229-.991.3A12.5,12.5,0,0,0,62.56,6.956,12.011,12.011,0,0,0,60.514,13.5a8.049,8.049,0,0,0,.3,2.1,6.98,6.98,0,0,0,.881,1.923,8.078,8.078,0,0,0,3.744,2.951,9.093,9.093,0,0,0,1.766.53,9.7,9.7,0,0,0,1.839.175,9.887,9.887,0,0,0,3.613-.685,9.06,9.06,0,0,0,1.628-.844A8.329,8.329,0,0,0,75.7,18.484a7.95,7.95,0,0,0,1.621-2.335,10.771,10.771,0,0,0,.858-2.871,12.957,12.957,0,0,0-.526-6.139,10.548,10.548,0,0,0-.973-2.081,8.451,8.451,0,0,0-1.392-1.73,7.047,7.047,0,0,0-1.806-1.244,6.935,6.935,0,0,0-2.215-.625.5.5,0,0,1-.234.055.9.9,0,0,1-.142-.013l-.016,0A.646.646,0,0,0,70.777,1.487ZM28.835,10.635h0l-.106.047h0L28.7,10.7l.012,0,.012,0a.27.27,0,0,1,.047.03l.021.015c.008-.022.017-.044.025-.065v0l.019-.047Z" transform="translate(2.957 1.691)"/>
  </g>
</svg>
