<svg id="peep-83" xmlns="http://www.w3.org/2000/svg" width="240" height="324" viewBox="0 0 240 324">
  <g id="BODY" transform="translate(31.056 135.053)">
    <path id="_Top" data-name="ðŸ‘• Top" d="M72.565,0,69.98,6.392,71.4,26.655l1.06.165q16.788,2.6,22.815,2.63H95.4a49.018,49.018,0,0,0,14.547-2.713l.257-.083.652-15.172h-1.538l-2.783-6.527,0,0q.046.078.1.152c1.16,1.717,1.833.33,4.559.938,3.264.727,4.713,4.027,7.586,6.493,1.334,1.145,4.134,1.685,5.474,2.472l1.408.827c4.41,2.6,9.479,5.763,12.141,9.881a72.112,72.112,0,0,1,7.257,14.78,202.1,202.1,0,0,1,9.375,35.535c2.152,12.312,3.445,24.776,4.433,37.231q.686,8.658,1.168,17.329l.079,1.445c.169,3.145.022,6.223-2.836,8.16-2.048,1.387-4.766,1.6-7.169,1.741l-.131.008q-26.649,1.564-53.3,3.114L70.03,146.618q-6.651.39-13.3.774l-10.824.625c-5.1.29-10.209.542-15.317.512a150.4,150.4,0,0,1-19.194-1.369l-.562-.077c-4.006-.553-9.815-1.953-10.534-6.76A.881.881,0,0,1,1.31,139.3c-.168-.782-.272-1.566-.371-2.246a87.513,87.513,0,0,1-.828-8.771,121.653,121.653,0,0,1,.545-17.627c.971-9.677,2.333-19.338,3.74-28.965l.313-2.139a241.953,241.953,0,0,1,6.066-30.317C13.35,40.061,17.368,30.514,22.9,24.71A60.219,60.219,0,0,1,44.405,10.776c.7-.268,14.637-3.32,15.575-2.875l.169-.132c2.778-2.194,6.742-6.049,10.822-4.835l.009-.015c.1-.177.473-1.361.994-2.919Z" transform="translate(9.085 4.998)" fill="#8fa7df"/>
    <path id="_Skin" data-name="âœ‹ Skin" d="M5.532,5.367C8.907,1.086,12.465-.275,17.722.044a16.927,16.927,0,0,1,10.14,2.843,18.97,18.97,0,0,1,6.97,6c1.5,2.19.36,7.6,1.727,9.945q-.02.382-.02.7,0,3.04,4.229,6.785l.112.1V41.138a60.688,60.688,0,0,1-17.607,2.187,72.339,72.339,0,0,1-21.51-3.474l-.339-.106L0,23.74l1.424-4.429V15.6l.55-1.659C2.949,11.025,4.44,6.752,5.532,5.367Z" transform="translate(79.065 -8.877)" fill="#d08b5b"/>
    <path id="_Top-2" data-name="ðŸ‘• Top" d="M0,0S12.517,3.646,21.061,3.646,38.8,0,38.8,0L37.311,120.028l-24.016.294Z" transform="translate(80.489 30.869)" fill="#9fd8e5"/>
    <path id="_Ink" data-name="ðŸ– Ink" d="M32.456,154.525a1.7,1.7,0,0,1-1.632-1.2l-.014-.048-.041.032a8.839,8.839,0,0,1-.108-3.239c.03-.351.059-.683.075-1.01l.612-12.409c.161-3.267.318-6.581.47-9.787.256-5.417.521-11.017.813-16.525l.158-2.923c.2-3.695.373-7.553.517-11.794l.044-1.312a35.5,35.5,0,0,0-.178-5.766,15.819,15.819,0,0,0-1.7-5.479.163.163,0,0,1,0-.165.177.177,0,0,1,.149-.084.174.174,0,0,1,.116.045,13.3,13.3,0,0,1,2.141,2.42,16.536,16.536,0,0,1,1.582,2.872,20.5,20.5,0,0,1,1.562,6.325,68.487,68.487,0,0,1-.155,10.031c-.075,1.165-.152,2.368-.206,3.538-.054,1.193-.108,2.4-.16,3.575v0c-.165,3.722-.337,7.571-.547,11.353-.094,1.687-.192,3.4-.287,5.06v.015c-.189,3.3-.384,6.711-.556,10.068l-.584,11.358c-.015.3-.019.612-.022.943v0a8,8,0,0,1-.37,2.884A1.811,1.811,0,0,1,32.456,154.525Zm84.609-3.545a1.842,1.842,0,0,1-.785-.189,2.147,2.147,0,0,1-.673-.5,1.516,1.516,0,0,1-.414-1.18c.828-7.135,2.016-14.345,3.165-21.318l.059-.36c.993-6.028,2.153-12.265,3.446-18.536,1.228-5.955,2.619-12.144,4.133-18.394l.517-2.128a83.505,83.505,0,0,0,1.686-8.385,33.642,33.642,0,0,0,.186-8.515,22.347,22.347,0,0,0-1.924-6.888,16.641,16.641,0,0,0-1.863-3.061,13.385,13.385,0,0,0-2.525-2.509l-.117-.087a2.073,2.073,0,0,1-.866-1.482,1.611,1.611,0,0,1,.508-1.293c.531-.521,1.1-1.076,1.683-1.648l3.371-3.292.68-.665c.543-.53,1.127-1.1,1.722-1.637.082-.074.194-.162.323-.265h0c.426-.335,1.008-.794,1.063-1.2a2.234,2.234,0,0,0-.4-1.047c-.047-.083-.092-.161-.126-.227l-.761-1.536c-.35-.709-.7-1.434-1.031-2.135l-.241-.5c-.247-.515-.5-1.039-.743-1.545l0,0c-.619-1.285-1.258-2.614-1.872-3.931L120.126,25.5c-.334-.717-.666-1.456-.987-2.17v0a49.944,49.944,0,0,0-3.648-7.088l-.374-.56a6.4,6.4,0,0,1-.785-1.5,6.107,6.107,0,0,0-.778-1.637,4.513,4.513,0,0,0-1.667-1.316,7.719,7.719,0,0,0-2.036-.658.127.127,0,0,1-.114-.137.184.184,0,0,1,.156-.175c.207-.02.416-.03.621-.03a10.21,10.21,0,0,1,3.821.948l.358.139c.727.28,1.422.607,2.072.919a5.127,5.127,0,0,1,1.934,1.9l.282.414a53.427,53.427,0,0,1,4.2,7.973v0c.37.81.752,1.647,1.138,2.457.469.986.947,1.988,1.409,2.957l0,0c1.458,3.057,2.966,6.217,4.414,9.344l.941,2.028c.444.958.922,1.99,1.4,3.047l.8,1.772a10.925,10.925,0,0,1,.919,2.755,4.008,4.008,0,0,1-.541,2.8,15.527,15.527,0,0,1-3.348,3.453c-.383.322-.745.627-1.093.938l-3.737,3.336a19.845,19.845,0,0,1,3.245,4.317,23.87,23.87,0,0,1,2.075,4.995,14.582,14.582,0,0,1,3.507-.8c.416-.059.809-.116,1.192-.182a1.9,1.9,0,0,1,.325-.029,1.324,1.324,0,0,1,1.018.436,1.529,1.529,0,0,1,.374.959,1.4,1.4,0,0,1-.359,1.025,1.278,1.278,0,0,1-.949.371h-.035c-.133,0-.275,0-.433,0-.27,0-.541,0-.827.008h-.013c-.28,0-.57.008-.865.008a12.728,12.728,0,0,1-2.521-.2,29.318,29.318,0,0,1,.568,3.472,36.95,36.95,0,0,1-.315,9.153c-.45,3.08-1.165,6.137-1.859,9l-.118.485c-1.735,7.141-3.157,13.44-4.345,19.256-1.315,6.432-2.514,12.98-3.564,19.463-.911,5.623-1.608,11.369-2.281,16.925l-.006.047c-.118.977-.241,1.988-.363,2.981a2.378,2.378,0,0,1-.565,1.314A1.722,1.722,0,0,1,117.065,150.98Zm-44.181-.294a1.518,1.518,0,0,1-.842-.243,1.445,1.445,0,0,1-.575-.777c-1.84-5.567-3.593-11.264-5.288-16.774-.6-1.938-1.212-3.94-1.826-5.916-3.676-11.839-6.973-24.857-10.377-40.968-1.437-6.8-2.768-13.715-3.957-20.556-.227-1.307-.451-2.622-.665-3.907l-.317-1.917c-.217-1.366-.34-2.79.721-3.871a4.791,4.791,0,0,1,1.49-.974A17.317,17.317,0,0,1,53,54.146c.328-.106.638-.206.934-.313l.1-.036c.5-.185,1-.367,1.481-.544.352-.128.75-.273,1.132-.414-.658-.518-1.323-1.051-1.966-1.566l-.007-.005h0c-.607-.487-1.235-.99-1.855-1.48-.339-.268-.686-.538-1.021-.8-.685-.534-1.394-1.087-2.077-1.646a5.179,5.179,0,0,1-1.087-1.182,3.233,3.233,0,0,1-.523-1.5,6.541,6.541,0,0,1,.639-2.845c.049-.125.1-.267.155-.4l.038-.1c.352-.95.761-2.054,1.174-3.133l2.466-6.45c.493-1.29.986-2.6,1.463-3.867v0c1.043-2.772,2.121-5.638,3.251-8.427a43.1,43.1,0,0,1,2.2-4.715c.43-.779.859-1.481,1.311-2.144a4.489,4.489,0,0,1,.8-.922,5.317,5.317,0,0,1,1.023-.661A12.207,12.207,0,0,0,64.486,9.7a12.694,12.694,0,0,1,1.806-1.26A8.652,8.652,0,0,1,70.376,7.36a.093.093,0,0,1,.095.083.1.1,0,0,1-.069.112,12.557,12.557,0,0,0-2.3.94,10.314,10.314,0,0,0-2.035,1.415,6.714,6.714,0,0,0-1.55,1.848,3.1,3.1,0,0,0-.273.862l-.018.1a3.04,3.04,0,0,1-.5,1.276l-.047.073a29.1,29.1,0,0,0-2.048,3.8c-.647,1.424-1.209,2.89-1.626,4.008l-2.189,5.878-2.188,5.879-1.41,3.788-.705,1.894c-.378,1.015-.773,2.043-1.155,3.038l0,.012-.03.079c-.055.142-.111.286-.166.425-.12.3-.243.618-.352.931-.007.021-.02.075-.035.144a2.178,2.178,0,0,1-.108.386l.018.031a5.469,5.469,0,0,0,1.58,1.393c.26.178.5.347.706.509l2.3,1.858c.478.387.969.777,1.443,1.155l.01.008c1.147.913,2.332,1.857,3.454,2.834a1.427,1.427,0,0,1,.439.665,1.524,1.524,0,0,1,.029.745,1.873,1.873,0,0,1-.418.843,1.764,1.764,0,0,1-.786.534c-1.407.458-2.815.994-4.177,1.511-.42.16-.9.341-1.353.512-.278.1-.564.2-.841.3-.466.163-.948.332-1.407.524l-.446.193c-.12.054-.118.071-.1.18a1.72,1.72,0,0,1,.019.219,4.216,4.216,0,0,0,.1.719v0c.02.1.04.2.057.3.614,3.713,1.276,7.484,1.967,11.21,1.205,6.491,2.559,13.124,4.023,19.713,1.431,6.439,3.008,13.021,4.689,19.565.993,3.866,2.046,7.786,3.064,11.577v.006c.709,2.641,1.443,5.371,2.15,8.061,1.49,5.667,3.414,11.338,5.274,16.823l.015.044c.279.822.567,1.673.849,2.508a1.281,1.281,0,0,1-.14,1.189A1.593,1.593,0,0,1,72.884,150.686Zm36.934-2.407a1.542,1.542,0,0,1-.94-.306,2,2,0,0,1-.649-.89,1.581,1.581,0,0,1-.049-.858c-.006-.183-.021-.38-.036-.572h0c-.021-.265-.042-.539-.037-.774l.035-1.688c0-.159.009-.32.014-.477v0c0-.094.007-.2.01-.3l-.031,0c-1.652.08-3.422.116-5.739.116-.966,0-1.948-.006-2.9-.012h-.015c-.9-.006-1.837-.011-2.76-.012l-1.69,0h-.246c-1.192,0-2.6-.007-3.985-.06l-.528-.022c-.323-.015-.658-.027-.982-.039h-.014c-.74-.027-1.506-.055-2.259-.12.152,1.223.278,2.325.385,3.369a1.631,1.631,0,0,1-.451,1.258,2.131,2.131,0,0,1-1.52.714,1.8,1.8,0,0,1-1.37-.59,2.549,2.549,0,0,1-.6-1.382c-.342-2.587-.583-5.229-.816-7.785-.216-2.364-.438-4.807-.741-7.2-.507-4.013-.96-8.1-1.4-12.055l-.027-.241-.123-1.109-.166-1.49c-1.947-17.429-3.67-33.4-5.268-48.827l-.786-7.612-.082-.794C73.3,51.236,72.522,43.7,71.873,36.286c-.365-4.16-.716-8.472-1.074-13.183-.226-2.983-.389-6.145-.5-9.667a1.646,1.646,0,0,1-.418-1.613c.09-.314.2-.653.347-1.068l-.005-.232c-.006-.252-.012-.538-.018-.815a.414.414,0,0,1,.119-.3.535.535,0,0,1,.376-.151.512.512,0,0,1,.1.01c.184-.447.379-.9.567-1.337l0,0c.308-.716.626-1.456.9-2.183.184-.481.364-.98.537-1.463A25.236,25.236,0,0,1,74.628.048.093.093,0,0,1,74.71,0a.1.1,0,0,1,.1.1,25.232,25.232,0,0,1-.495,4.579h0c-.087.511-.176,1.039-.252,1.552-.114.768-.2,1.566-.282,2.338h0a36.868,36.868,0,0,1-.545,3.815,1.567,1.567,0,0,1-.052.275l-.021.068a1.816,1.816,0,0,1-1.24,1.184c.215,1.19.374,2.161.5,3.055.237,1.668.451,3.317.7,5.278l.268,2.113c.22,1.733.456,3.632.742,5.976a16.955,16.955,0,0,0,1.9.657,25.311,25.311,0,0,0,4.549.75c2.61.256,5.277.4,7.857.539h.014L90,32.365l.673.038c1.773.1,3.369.151,4.881.151a55.448,55.448,0,0,0,5.716-.275,36.859,36.859,0,0,0,5.179-.908c.425-.107.85-.241,1.262-.371.427-.135.868-.274,1.307-.382a2.865,2.865,0,0,0,.772-.372l.057-.034a.908.908,0,0,1,.539-.33l.063-.011.063-.009.021-.01,0,.007a1.982,1.982,0,0,1,.263-.018,1.784,1.784,0,0,1,.239.016c.052-1.288.125-2.982.217-4.66.048-.878.116-1.782.181-2.655v0a36.556,36.556,0,0,0-.164-10,.109.109,0,0,1,.02-.094.111.111,0,0,1,.19.037c1.448,3.816,1.492,7.973,1.535,11.992.006.584.013,1.188.023,1.778.068,3.732.045,7.529.023,11.2,0,.757-.009,1.54-.013,2.32a2.249,2.249,0,0,1,.838.585,1.62,1.62,0,0,1,.389,1.139,1.128,1.128,0,0,1-.389.795,2.619,2.619,0,0,1-.853.486c-.016,3.9-.044,7.854-.083,11.745a1.627,1.627,0,0,1,.58,1.333,1.442,1.442,0,0,1-.608,1.175c-.1,8.837-.242,17.822-.381,26.511v.009c-.06,3.77-.123,7.668-.181,11.514l-.4,26.6c-.02,1.357-.046,2.733-.071,4.064-.041,2.152-.082,4.377-.1,6.566l.025.01.089.041c.157.074.372.186.417.3a.151.151,0,0,1,.014.067,1.269,1.269,0,0,1,.7.348,1.1,1.1,0,0,1,.348.862,1.486,1.486,0,0,1-.348.869l-.11.134a1.219,1.219,0,0,1-.93.385,1.353,1.353,0,0,1-.212-.016c0,.717,0,1.446.006,2.151v.007c0,1.466.01,2.982.005,4.476,0,.7-.013,1.387-.024,2.026l-.028,1.62a5.419,5.419,0,0,1-.175,1.448,1.576,1.576,0,0,1-.871,1.066A2.163,2.163,0,0,1,109.818,148.279Zm-23.85-13.8.359,2.6c.2,1.447.366,2.664.526,3.9.815-.112,1.647-.177,2.452-.241h0c.318-.025.646-.051.967-.079,1.982-.176,4.017-.26,5.813-.334h0c1.136-.047,2.287-.1,3.4-.16,2.7-.135,5.5-.274,8.243-.274h.4c.043,0,.084,0,.119.006l.2-5.123-2.818,0c-2.391,0-4.817-.024-7.163-.045l-1.763-.013H96.7c-1.533-.01-3.119-.021-4.678-.053l-.921-.022c-.516-.014-1.038-.014-1.591-.015h0a30.791,30.791,0,0,1-3.536-.138Zm-.92-7.318c.223,1.962.418,3.567.614,5.052a22.329,22.329,0,0,1,2.925-.157c.4,0,.792,0,1.171.009h0c.376,0,.764.009,1.148.009l.375,0,.234,0c.872-.015,1.8-.022,2.922-.022.8,0,1.616,0,2.4.007h.006c.667,0,1.356.006,2.041.007,2.909,0,5.318.013,7.584.032l2.077.017,0-.1c.053-1.449.095-3.026.131-4.962-.14.016-.25.026-.356.03-.273.011-.543.013-.747.013h-.933c-1.037.009-2.263.018-3.488.018h-.126c-2.341,0-4.726.014-7.09.043l-1.819.024h-.053c-1.793.024-3.648.049-5.472.052h-.122C87.287,127.22,86.046,127.186,85.049,127.158Zm-.914-8.184c.177,1.532.349,3.091.515,4.6v.011l0,.028q.074.669.148,1.338c.15-.023.3-.043.446-.058,1.321-.138,2.488-.238,3.566-.3,2.442-.151,4.872-.228,7.134-.289,2.438-.066,4.91-.116,7.346-.151.615-.009,1.26-.013,1.972-.013.482,0,1,0,1.6.006h.75c.278,0,.606,0,.929.024.063,0,.123.011.193.019l.042-2.992c.007-.488.015-.991.023-1.5-1.119.069-2.224.078-3.157.078-.394,0-.793,0-1.179,0h-.111c-.344,0-.7,0-1.053,0h-.469l-.906,0c-1.771,0-3.684-.023-6.021-.071-2.8-.058-5.068-.147-7.136-.28-.973-.062-1.941-.146-2.877-.249l-.479-.055c-.2-.024-.406-.045-.6-.066C84.586,119.025,84.36,119,84.135,118.974Zm-.9-7.809.2,1.741c.156,1.358.334,2.9.505,4.378.32-.015.643-.021.955-.028H84.9c.236,0,.481-.01.718-.018,1.184-.043,2.361-.051,3.357-.053h.858c.9,0,1.832,0,2.657.006,1.01,0,1.851.006,2.717.006H95.9c2.446-.005,4.867-.047,7.137-.09.811-.015,1.636-.05,2.434-.084,1.074-.045,2.184-.092,3.273-.092h.1l.138-6.4c-4.041.321-8.259.493-13.274.542l-.666.006c-1.3.01-2.625.035-3.906.059-1.669.031-3.395.064-5.1.064C85.031,111.2,84.111,111.189,83.234,111.165Zm-1.022-8.905c.3,2.617.612,5.344.93,8.107,1.872-.23,3.78-.421,5.626-.606,2.016-.2,4.1-.411,6.143-.671l3.535-.452c3.39-.433,7-.887,10.611-1.267l.119-5.544a6.067,6.067,0,0,1-1.6.2h-.023l-.162.007-1.715.085c-.658.032-1.523.073-2.385.1-2.656.1-5.33.189-7.949.272-2.044.065-3.694.1-5.192.1-1.052,0-2.023-.015-2.968-.044-1.419-.045-2.72-.118-3.976-.223-.209-.018-.423-.031-.629-.045h-.014ZM81.2,93.319c.234,2.072.48,4.229.7,6.131l.176,1.543c.2-.032.409-.061.609-.09h.008c.242-.034.492-.07.73-.11,1-.169,2.062-.319,3.352-.474,2.132-.256,4.459-.471,7.323-.679,1.392-.1,2.807-.195,4.176-.285h.017l.028,0c1.085-.072,2.207-.146,3.31-.224L103.4,99c.7-.048,1.261-.086,1.778-.117.32-.02.649-.026,1-.033a11.529,11.529,0,0,0,2.2-.18,1.426,1.426,0,0,1,.552-.109,1.556,1.556,0,0,1,.324.035l.119-5.57a9.322,9.322,0,0,1-1.809.2c-.183.008-.357.015-.525.026l-.134.009c-1.191.09-2.461.149-4.117.19-2.413.06-5.055.1-8.077.116l-1.619.01c-.73,0-1.6.009-2.479.009-1.531,0-2.8-.013-4-.041-1.334-.031-2.669-.095-4.15-.169-.2-.01-.41-.019-.612-.027h-.018C81.622,93.339,81.408,93.33,81.2,93.319Zm-.97-8.716c.285,2.6.546,4.948.8,7.176.261-.028.522-.053.774-.077.207-.02.441-.042.662-.065,1.534-.162,2.813-.295,4.15-.4,2.46-.194,4.964-.318,7.386-.437h0l.5-.025c1.478-.073,2.975-.134,4.424-.192h.011c1.194-.048,2.429-.1,3.644-.155,1.579-.074,2.786-.153,3.912-.257.3-.028.613-.079.945-.133h0a9.822,9.822,0,0,1,1.557-.172,3.733,3.733,0,0,1,.442.025c.039-1.816.082-3.7.119-5.367l.01-.451q.015-.671.03-1.342a1.616,1.616,0,0,1-1.114.565c-1.76.228-3.579.319-5.338.406-.654.032-1.331.066-2,.106l-.43.027c-2.29.151-4.617.274-6.867.394l-.685.036c-2.512.134-5.124.248-7.763.34-.7.024-1.418.036-2.2.036-.352,0-.722,0-1.1-.007l-.472-.007-.484-.006C80.843,84.616,80.533,84.613,80.225,84.6Zm-.989-9.087c.288,2.669.577,5.328.859,7.9.4-.075.8-.136,1.181-.2l.361-.056.064-.01c1.211-.19,2.463-.387,3.7-.53,2.679-.309,5.15-.572,7.553-.805l.659-.064.2-.019h.009c1.835-.178,3.733-.363,5.6-.528l1.295-.112c.8-.068,1.626-.15,2.42-.231h0c1.752-.177,3.564-.359,5.339-.4h.023a1.421,1.421,0,0,1,1.127.589c.058-2.54.116-5.023.175-7.556a1.06,1.06,0,0,1-.148.183,4.49,4.49,0,0,1-3.2,1.042c-.19.011-.386.023-.583.038l-.086.007c-1.533.129-2.89.236-4.148.327-2.931.212-5.843.353-8.305.464-2.7.121-4.76.175-6.687.175-.627,0-1.245-.006-1.837-.018-.358-.007-.726-.013-1.082-.019C82.251,75.682,80.725,75.658,79.237,75.516Zm-.986-9.131.8,7.437c1.352-.2,2.747-.3,4.1-.405h0c.485-.037.987-.075,1.475-.117l.391-.034c2.16-.2,4.362-.343,6.493-.484l.055,0,1.56-.1c2.852-.193,5.667-.426,8.306-.649l.069-.006c1.336-.112,2.718-.228,4.08-.354l.171-.017c.176-.018.352-.04.522-.06a11.045,11.045,0,0,1,1.323-.108,3.179,3.179,0,0,1,1.844.512,1.2,1.2,0,0,1,.392.431q.018-.77.036-1.54v-.063c.037-1.565.075-3.184.115-4.784a9.17,9.17,0,0,1-1.089.05h-.441c-.124,0-.285,0-.442.006-1.671.054-3.336.1-4.6.142l-9.2.272c-2.2.065-4.8.131-7.406.131-.688,0-1.363,0-2.006-.014l-.79-.01h0c-1.1-.013-2.234-.026-3.349-.087l-.459-.028c-.21-.014-.437-.023-.676-.034C79.106,66.447,78.679,66.429,78.251,66.385Zm-.982-9.009c.278,2.532.56,5.113.837,7.672.466-.087.938-.14,1.395-.191h0c.187-.021.379-.043.559-.066l.133-.018c1.267-.175,2.564-.287,3.819-.4l.039,0,.534-.047c3.042-.268,6.042-.429,8.576-.551,1.948-.094,3.924-.179,5.835-.262l.115,0,2.834-.124,2.928-.131,1.464-.064,1.18-.049.071,0,.84-.035c.112,0,.227-.013.339-.021h.006c.177-.013.36-.026.539-.026.057,0,.11,0,.162,0l.1-.013.122-.014a1.384,1.384,0,0,1,.3-.175l.065-.025.136-5.476c-6.179.249-11.68.4-16.819.472-.974.013-1.989.02-3.019.02-1.984,0-4.093-.024-6.448-.073-1.389-.029-2.774-.1-4.117-.2l-.512-.041c-.261-.022-.534-.042-.8-.061h0C78.087,57.445,77.677,57.415,77.269,57.376Zm-.919-8.243c.262,2.319.522,4.643.771,6.907.525-.06,1.056-.1,1.569-.143H78.7c.263-.021.535-.043.8-.066,1.825-.164,3.3-.269,4.629-.33l3.085-.143c1.977-.091,4.092-.186,6.171-.262,6.192-.226,11.718-.464,16.895-.729.038-1.48.078-3.012.123-4.685a1.551,1.551,0,0,1-1.168.479h-.005c-1.613,0-3.253,0-4.839-.005h-.055c-4.209,0-8.562,0-12.84-.073-4.664-.077-7.189-.186-8.867-.272-1.359-.07-2.776-.209-4.334-.424-.247-.034-.5-.064-.764-.1h0C77.137,49.242,76.741,49.2,76.35,49.133Zm-.946-8.2c.271,2.3.546,4.68.819,7.076.488-.087.987-.147,1.469-.205h0c.246-.03.478-.058.706-.089,1.631-.222,3.081-.367,4.433-.443,3.07-.174,6.1-.252,8.656-.307,4.291-.091,8.654-.116,12.874-.14h.018c1.587-.009,3.229-.018,4.843-.031h.016a1.525,1.525,0,0,1,1.222.544c.039-1.382.081-2.827.129-4.418-.213-.022-.427-.049-.634-.074-.359-.044-.7-.085-1.027-.108-1.621-.113-3.246-.217-4.831-.307-3.136-.18-6.437-.345-10.091-.5-3.22-.14-6.672-.287-10.1-.414l-1.472-.054A69.147,69.147,0,0,1,75.4,40.931Zm-1.058-8.88c.29,2.4.572,4.757.858,7.165l.086.739a58.85,58.85,0,0,1,8.621-.828c3.236-.138,6.424-.208,9.475-.208h.622c3.259.01,6.654.087,10.091.229,1.676.069,3.372.15,5.041.241.3.016.625.016.972.016h.01c.188,0,.383,0,.579,0q.007-.214.013-.429v-.017c.007-.223.014-.453.022-.68L110.778,37v-.021c.034-1.013.072-2.161.11-3.261a12.7,12.7,0,0,1-3.167.944c-.2.04-.4.082-.588.123l-.13.029a43.568,43.568,0,0,1-5.734.866c-1.482.129-3.058.195-4.686.195-2.051,0-4.238-.1-6.685-.308l-.661-.057a62.674,62.674,0,0,1-9.966-1.473,17.837,17.837,0,0,1-4.485-1.731C74.627,32.221,74.484,32.135,74.346,32.05ZM2.062,147.392A1.521,1.521,0,0,1,.51,145.929c-.446-6.014-.6-12.389-.462-19.488.109-5.716.4-11.906.921-19.482.41-5.975.973-11.822,1.673-17.38.745-5.915,1.672-11.715,2.756-17.24l.2-.99c.943-4.756,2.123-10.36,3.729-15.857A80.033,80.033,0,0,1,15.28,40.384a50.043,50.043,0,0,1,8.1-11.157A57.513,57.513,0,0,1,45.732,14.912a39.528,39.528,0,0,1,12.682-2.224c.447,0,.9.009,1.34.027a.2.2,0,0,1,.184.184.166.166,0,0,1-.134.185c-2.719.607-5.085,1.209-7.233,1.838a66.833,66.833,0,0,0-7.04,2.463,54.02,54.02,0,0,0-12.819,7.6,55.057,55.057,0,0,0-9.5,9.776,57.949,57.949,0,0,0-6.884,11.777,75.628,75.628,0,0,0-2.794,7.543c-.716,2.267-1.406,4.73-2.17,7.75-.678,2.68-1.32,5.466-1.908,8.28-.564,2.7-1.1,5.509-1.58,8.35C6.966,83.773,6.2,89.367,5.6,95.088c-.556,5.318-.991,10.948-1.293,16.733-.33,6.326-.4,12.76-.471,18.982v0c-.055,4.957-.113,10.082-.3,15.122a1.5,1.5,0,0,1-.48,1.1A1.5,1.5,0,0,1,2.062,147.392Zm144.53-1.451a2.134,2.134,0,0,1-1.217-.387,1.68,1.68,0,0,1-.705-1.039c-.954-4.851-1.8-9.985-2.671-16.156-.67-4.762-1.26-9.584-1.754-14.331-.5-4.782-.912-9.622-1.231-14.385s-.522-9.65-.6-14.482c-.034-2.106.012-4.308.141-6.733l.029-.517c.021-.364.039-.738.056-1.1V76.8a20.346,20.346,0,0,1,.825-5.761.12.12,0,0,1,.114-.084.121.121,0,0,1,.115.084,23.56,23.56,0,0,1,1,6.172c.037.507.076,1.031.121,1.537l.018.2c.228,2.409.395,4.786.541,7l.057.875c.726,11.161,1.54,20.218,2.561,28.5,1.276,10.35,3.041,20.484,4.436,28.157a2.3,2.3,0,0,1-.2,1.479,1.858,1.858,0,0,1-1.641.986Zm-101.428-.75a1.7,1.7,0,0,1-1-.348,1.907,1.907,0,0,1-.646-.841,1.42,1.42,0,0,1-.068-.81,1.45,1.45,0,0,1,.48-.776c1.393-1.229,2.849-2.439,4.257-3.609h0l0,0c.811-.674,1.65-1.371,2.467-2.063l.978-.829a35.456,35.456,0,0,1,5.825-4.225.116.116,0,0,1,.056-.014.128.128,0,0,1,.11.065.108.108,0,0,1,0,.112,39.256,39.256,0,0,1-5.122,6.208l-.257.271c-.736.778-1.478,1.577-2.195,2.35h0c-1.24,1.337-2.522,2.719-3.821,4.038A1.488,1.488,0,0,1,45.164,145.191Zm95.743-.131a2.195,2.195,0,0,1-1.489-.608c-.776-.695-1.532-1.452-2.263-2.184h0l0,0c-.273-.274-.556-.557-.835-.832l-.308-.3c-1.223-1.189-2.266-2.279-3.189-3.332l-.917-1.044a34.031,34.031,0,0,1-4.645-6.266.192.192,0,0,1,0-.194.2.2,0,0,1,.175-.1.216.216,0,0,1,.137.05c.7.569,1.366,1.212,2.011,1.834h0c.448.432.911.879,1.38,1.3,1.023.909,2.14,1.82,3.517,2.865,1.258.955,2.511,1.843,3.725,2.641a33.628,33.628,0,0,0,3.023,1.707l.037.019.19.1a2.039,2.039,0,0,1,1.365.794,2.32,2.32,0,0,1,.438,1.661,1.709,1.709,0,0,1-.607,1.168l-.149.117A2.6,2.6,0,0,1,140.907,145.06Zm19.856-1.986a1.865,1.865,0,0,1-1.34-.533,1.394,1.394,0,0,1-.376-1.06,10.68,10.68,0,0,1-.071-1.912c-.015-.089-.031-.172-.047-.254a1.032,1.032,0,0,1,.09-.674c.014-.281.03-.607.035-.919.022-1.327.017-2.532-.015-3.684-.069-2.489-.163-4.893-.279-7.776-.226-5.638-.526-10.716-.917-15.524-.369-4.539-.842-9.078-1.407-13.49-.581-4.537-1.274-9.06-2.059-13.445-.808-4.506-1.735-8.987-2.757-13.317-1.049-4.448-2.226-8.858-3.5-13.106-.618-2.063-1.285-4.076-1.983-5.984-.74-2.024-1.539-3.993-2.374-5.854-.88-1.961-1.826-3.862-2.814-5.65-1.035-1.874-2.147-3.681-3.3-5.37C136.6,33,135.47,31.5,134.279,30.07c-1.175-1.41-2.441-2.8-3.764-4.12-1.491-1.492-2.858-2.77-4.18-3.908a45.261,45.261,0,0,0-4.538-3.471.231.231,0,0,1-.087-.262.2.2,0,0,1,.183-.149.222.222,0,0,1,.072.013l.446.154a30.6,30.6,0,0,1,5.478,2.366,36.276,36.276,0,0,1,5.105,3.721,40.864,40.864,0,0,1,4.621,4.682,56.036,56.036,0,0,1,3.931,5.281,59.83,59.83,0,0,1,3.29,5.656c.947,1.848,1.862,3.851,2.719,5.954a121.677,121.677,0,0,1,4.2,12.408,263.184,263.184,0,0,1,6.155,27.159c.824,4.669,1.555,9.372,2.171,13.979.629,4.7,1.155,9.433,1.564,14.06s.685,9.294.823,13.9c.075,2.512.067,5.03.049,7.163,0,.532,0,1.1.006,1.842l.023,1.842c0,.27.013.548.022.818v0a10.016,10.016,0,0,1-.147,2.707,1.508,1.508,0,0,1-.631.916A1.86,1.86,0,0,1,160.763,143.074ZM109.931,17.323a1.47,1.47,0,0,1-1.4-1.018,35.251,35.251,0,0,1-1.887-6.46,25.554,25.554,0,0,1-.43-3.265c-.009-.166-.02-.33-.031-.5a7.849,7.849,0,0,1,.082-2.4.159.159,0,0,1,.157-.114.146.146,0,0,1,.132.076,8.969,8.969,0,0,1,.634,1.8c.089.324.181.659.289.975.093.272.186.55.275.818l0,.007h0c.231.692.47,1.407.735,2.1a39.771,39.771,0,0,0,2.757,5.824,1.36,1.36,0,0,1,.061,1.4,1.49,1.49,0,0,1-.581.555A1.666,1.666,0,0,1,109.931,17.323Z" transform="translate(7.817 0.211)"/>
  </g>
  <g id="HEAD" transform="translate(78.592 38.043)">
    <path id="_Skin-2" data-name="âœ‹ Skin" d="M73.169,31.749A41.971,41.971,0,0,0,60.411,10.116C40.314-9.8,3.407,1.009,3.574,31.026A39.957,39.957,0,0,0,2.8,41.712c.1,1.526.757,3.654-.128,5.027C.676,49.308-.484,51.2.2,54.618a8.366,8.366,0,0,0,5.326,6.22,5.58,5.58,0,0,1,3.8,3.064c3.648,6.7,6.351,12.266,12.1,16.83,1.484,1.175,16.707,8.222,21.722,8.222,14.684,0,33.191-5.332,33.5-21.775a87.878,87.878,0,0,0-.976-10.848C74.705,48.154,75.046,39.681,73.169,31.749Z" transform="translate(11.595 15.64)" fill="#d08b5b"/>
    <path id="_Ink-2" data-name="ðŸ– Ink" d="M50.414,92.608a17.108,17.108,0,0,1-5.083-.71,12.54,12.54,0,0,1-2.346-1,11.514,11.514,0,0,1-2.131-1.523,1.793,1.793,0,0,1-.585-1.032,2.1,2.1,0,0,1,.123-1.118,2.59,2.59,0,0,1,.786-1.08,1.907,1.907,0,0,1,1.189-.449,1.7,1.7,0,0,1,1.038.365,10.924,10.924,0,0,0,1.744,1.072,11.207,11.207,0,0,0,1.838.707,13.825,13.825,0,0,0,3.867.508,22.825,22.825,0,0,0,3.939-.374c1.137-.2,2.367-.477,3.872-.875l.153-.041a40.345,40.345,0,0,0,6.567-2.317,28.158,28.158,0,0,0,3.071-1.649,22.853,22.853,0,0,0,2.808-2.054,16.811,16.811,0,0,0,4.406-5.9,19.62,19.62,0,0,0,1.647-7.216,59.262,59.262,0,0,0-.43-8.588l-.032-.317c-.125-1.231-.254-2.48-.378-3.688-.206-2-.419-4.063-.619-6.1-.352-3.589-.561-6.352-.677-8.958l-.062-1.508c-.016-.387-.034-.786-.05-1.139-.117-2.636-.237-5.361-.123-8.009a.091.091,0,0,1,.093-.087.083.083,0,0,1,.082.064c.367,1.305.632,2.65.888,3.951.125.635.254,1.292.394,1.939.494,2.279.84,4.043,1.122,5.719.53,3.145,1.039,6.6,1.6,10.875l.119.909c.137,1.058.292,2.143.442,3.193.767,5.373,1.561,10.928.56,16.3a18.942,18.942,0,0,1-3.163,7.42,24.857,24.857,0,0,1-5.711,5.736,33.4,33.4,0,0,1-6.83,3.812,44.063,44.063,0,0,1-7.47,2.349c-1.142.254-2.246.451-3.282.585A26.465,26.465,0,0,1,50.414,92.608Zm-27.256-9.78a1.073,1.073,0,0,1-.419-.087,5.368,5.368,0,0,1-1.722-1.251,19.378,19.378,0,0,1-1.429-1.713l0,0c-.178-.231-.346-.449-.516-.66L19,79.029a35.4,35.4,0,0,1-2.938-4.239l-.29-.489a46.694,46.694,0,0,1-4.2-8.445,1.566,1.566,0,0,1-.214.186,2.885,2.885,0,0,1-1.712.5,5.959,5.959,0,0,1-1.751-.3,13.081,13.081,0,0,1-1.6-.637,10.737,10.737,0,0,1-3.64-2.768,11.67,11.67,0,0,1-1.387-2.024,10.794,10.794,0,0,1-.9-2.235A10.136,10.136,0,0,1,0,56.2a9.985,9.985,0,0,1,.227-2.448,10.706,10.706,0,0,1,1.808-3.96,10.244,10.244,0,0,1,3.241-2.929,10.183,10.183,0,0,1-1.965-4.92,30.059,30.059,0,0,1-.379-6.861,35.511,35.511,0,0,1,1.005-6.76,41.079,41.079,0,0,1,2.2-6.472,36.169,36.169,0,0,1,6.6-10.134A35.759,35.759,0,0,1,17.2,7.634a34.916,34.916,0,0,1,5.117-3.271A38.624,38.624,0,0,1,46.138.467,33.4,33.4,0,0,1,51.859,1.9a34.975,34.975,0,0,1,5.37,2.388,36.365,36.365,0,0,1,4.91,3.244,37.109,37.109,0,0,1,4.341,4,38.488,38.488,0,0,1,3.636,4.559A29.235,29.235,0,0,1,72.9,21.211a27.919,27.919,0,0,1,.972,2.719,22.453,22.453,0,0,1,.65,2.814,23.2,23.2,0,0,1,.343,2.984,8.213,8.213,0,0,1-.1,1.337,8.209,8.209,0,0,0-.105,1.376.115.115,0,0,1-.032.086.138.138,0,0,1-.1.04.119.119,0,0,1-.121-.091,7.4,7.4,0,0,0-.71-1.686,11.025,11.025,0,0,1-.539-1.131c-.3-.772-.644-1.529-.943-2.177l-.285-.616c-.8-1.731-1.762-3.416-2.693-5.046l-.1-.17a37.206,37.206,0,0,0-3.352-4.908,36.8,36.8,0,0,0-4.093-4.306,33.089,33.089,0,0,0-8.736-5.621,31.907,31.907,0,0,0-4.918-1.7A30.363,30.363,0,0,0,42.9,4.266c-.883-.069-1.781-.1-2.668-.1A34.619,34.619,0,0,0,30.881,5.45a33.717,33.717,0,0,0-8.658,3.8,32.109,32.109,0,0,0-13.23,16.58,36.733,36.733,0,0,0-2.05,10.69,49.062,49.062,0,0,0,.124,5.557l.064.88a14.186,14.186,0,0,1-.03,3.136A8.2,8.2,0,0,1,9.54,45.7a6.915,6.915,0,0,1,1,.073,4.229,4.229,0,0,1,3.552,2.524.091.091,0,0,1,0,.09.089.089,0,0,1-.076.043.1.1,0,0,1-.044-.011,3.345,3.345,0,0,0-1.486-.286A9.69,9.69,0,0,0,7.2,49.843a8.76,8.76,0,0,0-2.258,2.243,7.16,7.16,0,0,0-1.2,2.942,5.816,5.816,0,0,0-.034,1.538,6.464,6.464,0,0,0,.348,1.488,7.4,7.4,0,0,0,1.619,2.59,8.763,8.763,0,0,0,1.195,1.044,7.019,7.019,0,0,0,1.38.781,9.446,9.446,0,0,0,1.3.409,5.327,5.327,0,0,1,2.1.893,1.109,1.109,0,0,1,.433.948,1.767,1.767,0,0,1-.381.99c1.115,1.226,2.184,2.531,3.218,3.793h0c1.015,1.239,2.064,2.52,3.157,3.727.928,1.024,2,2.219,3.02,3.427l.366.439c.272.33.585.659.916,1.008a8.068,8.068,0,0,1,2.07,2.919,1.416,1.416,0,0,1-.265,1.23A1.324,1.324,0,0,1,23.158,82.828ZM13.813,59.892a1.3,1.3,0,0,1-.74-.22,1.492,1.492,0,0,1-.542-.733l-.023-.064a5.325,5.325,0,0,0-1.045-1.743,1.434,1.434,0,0,1-.55.515.583.583,0,0,1-.257.058.461.461,0,0,1-.484-.36,1.634,1.634,0,0,1,.226-1.163l.03-.044A9.113,9.113,0,0,0,8.717,55.05a6.893,6.893,0,0,0-1.77-.6.109.109,0,0,1-.085-.113.111.111,0,0,1,.085-.116,10.59,10.59,0,0,1,1.969-.21,6.012,6.012,0,0,1,2.47.5,7.847,7.847,0,0,1,2.1,1.371,13.492,13.492,0,0,1,1.683,1.865,1.131,1.131,0,0,1,.154,1.235A1.745,1.745,0,0,1,13.813,59.892Z" transform="translate(9.487 13.738)"/>
  </g>
  <g id="FACE" transform="translate(112.183 77.354)">
    <path id="eye" d="M11.662,17.753c5.6,0,10.141-3.974,10.141-8.877S17.262,0,11.662,0,0,3.813,0,8.715a14.066,14.066,0,0,0,3.007,7.228C4.865,18,8.438,17.753,11.662,17.753Z" transform="translate(8.409 16.697)" fill="#fff"/>
    <path id="eye-2" data-name="eye" d="M8.927,16.055A7.9,7.9,0,0,0,16.69,8.027,7.9,7.9,0,0,0,8.927,0C4.64,0,0,3.448,0,7.881a14.03,14.03,0,0,0,2.3,6.537C3.724,16.275,6.459,16.055,8.927,16.055Z" transform="translate(35.282 16.697)" fill="#fff"/>
    <path id="_Ink-3" data-name="ðŸ– Ink" d="M10.559,42.681a1.834,1.834,0,0,1-.715-.149,1.679,1.679,0,0,1-1.022-1.116,2.134,2.134,0,0,1,.4-1.8l.035-.046a13.725,13.725,0,0,0,1.873-3.8c.251-.7.472-1.392.658-2.051.034-.122.061-.246.086-.365a1.723,1.723,0,0,1,.451-1,.151.151,0,0,1,.1-.041.125.125,0,0,1,.066.019,2.4,2.4,0,0,1,.855,1.619,10.767,10.767,0,0,1,.177,2.027c.129.034.259.069.384.1h0c.25.069.486.133.718.184.545.121,1.1.232,1.64.339h.007l.611.123.564.116a44.369,44.369,0,0,0,5.729.839c1.064.081,2,.121,2.85.121a21.651,21.651,0,0,0,2.794-.166,15.065,15.065,0,0,0,2.364-.506,10.244,10.244,0,0,0,1.745-.753c.239-.121.486-.247.742-.366a2.054,2.054,0,0,1,.87-.2,1.837,1.837,0,0,1,1.163.416,1.985,1.985,0,0,1,.66.99,1.672,1.672,0,0,1-.033,1.053,1.869,1.869,0,0,1-.8.927,10.119,10.119,0,0,1-2.986,1.174,21.329,21.329,0,0,1-3.189.481c-.518.043-1.059.065-1.607.065a28.563,28.563,0,0,1-4.571-.41c-1.127-.181-2.23-.41-3.28-.681a31.419,31.419,0,0,1-3.194-1.007,22.519,22.519,0,0,1-2.583-1.18l-.228-.122-.3-.159-.006,0-.123-.065a14.653,14.653,0,0,1-1.156,4.054l-.013-.023a1.911,1.911,0,0,1-.654.976A1.741,1.741,0,0,1,10.559,42.681ZM28.232,31.693a14.371,14.371,0,0,1-3.116-.356,1.455,1.455,0,0,1-1.006-.713,2.046,2.046,0,0,1,.7-2.545,1.337,1.337,0,0,1,.689-.186,1.709,1.709,0,0,1,.538.092,9.78,9.78,0,0,0,2.905.552c.092,0,.185,0,.276,0,.341,0,.679-.015,1-.045.235-.022.477-.052.719-.091-.137-.182-.271-.369-.41-.571-.169-.244-.319-.471-.458-.693a14.764,14.764,0,0,1-1.087-2.114c-.09-.213-.182-.446-.28-.711v0l-.037-.1-.081-.069a5.662,5.662,0,0,1-1.475-1.973,8.721,8.721,0,0,1-.7-3.527,14.02,14.02,0,0,1,.475-3.589A9.182,9.182,0,0,1,28,12.5a8.485,8.485,0,0,1,1.79-2.054,4.663,4.663,0,0,1,.6-.84,7.163,7.163,0,0,1,2.982-1.722,7.509,7.509,0,0,1,2.25-.341,8.139,8.139,0,0,1,2.53.409,8.7,8.7,0,0,1,2.309,1.16,11.127,11.127,0,0,1,2.493,2.441,11.923,11.923,0,0,1,1.675,3.108,10.884,10.884,0,0,1,.648,3.26,9.261,9.261,0,0,1-.449,3.283,7.651,7.651,0,0,1-1.753,2.943,7.157,7.157,0,0,1-2.9,1.822,9.915,9.915,0,0,1-3.2.477,22.361,22.361,0,0,1-3.85-.406c-.568-.1-1.066-.2-1.523-.3a5.67,5.67,0,0,1,1.137,1.006A4.14,4.14,0,0,1,33.87,28.62a1.718,1.718,0,0,1-.49,1.648,5.042,5.042,0,0,1-2.5,1.145A12.547,12.547,0,0,1,28.232,31.693Zm1.452-17.975a10.641,10.641,0,0,0-.59,3.6v.161l0,.165a9,9,0,0,0,.291,2.263,3.771,3.771,0,0,0,1.121,1.906,4.543,4.543,0,0,0,1.861.892,13.51,13.51,0,0,0,2.134.323l1.077.09.286.021c.391.027.734.04,1.049.04a7.619,7.619,0,0,0,1.715-.172,4.32,4.32,0,0,0,1.556-.673A3.758,3.758,0,0,0,41.4,20.868a5.58,5.58,0,0,0,.5-1.853,7.932,7.932,0,0,0-.1-2.273,8.508,8.508,0,0,0-.724-2.181,8.06,8.06,0,0,0-1.284-1.9,7.046,7.046,0,0,0-1.782-1.417,4.839,4.839,0,0,0-2.37-.622,4.926,4.926,0,0,0-1.6.271,5.731,5.731,0,0,0-1.549.874l-.191.145c-.179.137-.354.254-.524.367a3.738,3.738,0,0,0-1.061.928l-.057.082a1,1,0,0,1-.837.431,1.081,1.081,0,0,1-.133-.008ZM13.379,28.14a36.98,36.98,0,0,1-4.519-.319l-.841-.106a16.054,16.054,0,0,1-3.428-.725A6.461,6.461,0,0,1,2.218,25.5a6.887,6.887,0,0,1-1.47-2.2,10.62,10.62,0,0,1-.725-4.748,13.95,13.95,0,0,1,.363-2.437,13.142,13.142,0,0,1,.752-2.242A11.136,11.136,0,0,1,2.549,11.54a12,12,0,0,1,2-2.019A9.78,9.78,0,0,1,6.946,8.1a6.989,6.989,0,0,1,2.62-.537,6,6,0,0,1,.623.032,13.537,13.537,0,0,1,1.753-.128h.121a13.656,13.656,0,0,1,8,2.521,11.776,11.776,0,0,1,1.562,1.358,9.754,9.754,0,0,1,1.263,1.618,7.339,7.339,0,0,1,1.152,3.9,10.09,10.09,0,0,1-.951,4.069,18.063,18.063,0,0,1-2.185,3.6,10.024,10.024,0,0,1-1.494,1.58A8.449,8.449,0,0,1,17.7,27.231a8.6,8.6,0,0,1-1.935.673,10.492,10.492,0,0,1-2.163.235ZM11.961,9.7h0a14.539,14.539,0,0,0-3.412.416,15.47,15.47,0,0,0-3.21,1.164,12.418,12.418,0,0,0-1.765,2.488,11,11,0,0,0-1.035,2.665,10.459,10.459,0,0,0-.268,2.858A9.486,9.486,0,0,0,2.823,22.1a3.967,3.967,0,0,0,1.953,2.243,9.693,9.693,0,0,0,2.948.845l.826.13.346.052a28.4,28.4,0,0,0,4.072.366,12.048,12.048,0,0,0,2.313-.2,5.543,5.543,0,0,0,2.81-1.518,12.188,12.188,0,0,0,1.97-2.582l.052-.087a11.469,11.469,0,0,0,1.381-3.161,6,6,0,0,0,.172-1.686,4.775,4.775,0,0,0-.393-1.687,7.106,7.106,0,0,0-1.861-2.464,10.562,10.562,0,0,0-2.622-1.665,11.052,11.052,0,0,0-2.358-.749A12.638,12.638,0,0,0,11.961,9.7Zm-.08,13.388a5.562,5.562,0,0,1-2.954-.842l.009-.012v0a.283.283,0,0,0,.018-.023,1.014,1.014,0,0,0,.179.016.887.887,0,0,0,.87-.584,2.809,2.809,0,0,0,.135-1.015,2.337,2.337,0,0,0-.252-.948,1.9,1.9,0,0,0-1.164-.952,2.145,2.145,0,0,0-.617-.091,2.234,2.234,0,0,0-.875.181,2.48,2.48,0,0,0-.749.5,6.437,6.437,0,0,1-.391-3.524,5.255,5.255,0,0,1,2.951-3.993,3.578,3.578,0,0,1,1.46-.344,2.776,2.776,0,0,1,.652.078,5.757,5.757,0,0,1,6.035.51,1.688,1.688,0,0,0-.442.14,1.407,1.407,0,0,0-.707.98.9.9,0,0,0,.087.638.877.877,0,0,0,.5.4,2.084,2.084,0,0,0,.626.109,1.06,1.06,0,0,0,1.017-.665l.012-.031.016-.023.006-.01h0a.085.085,0,0,0-.017.022c.011-.025.02-.049.031-.075v0a1.006,1.006,0,0,0,.042-.1c.019-.017.038-.036.055-.054l.005-.005a5.37,5.37,0,0,1,.7,1.588,4.875,4.875,0,0,1,.007,2.366,6.546,6.546,0,0,1-1.007,2.2,8.77,8.77,0,0,1-2.508,2.39,7.357,7.357,0,0,1-3.084,1.144A5.953,5.953,0,0,1,11.881,23.086Zm23.8-1.078a4.408,4.408,0,0,1-2.726-.941.687.687,0,0,0,.194-.151,2.04,2.04,0,0,0,.365-.546c.026-.058.047-.11.066-.158l.031-.08c.016-.047.043-.126.042-.129l0,0,0,.006.017-.039a1.031,1.031,0,0,0,.059-.6.781.781,0,0,0-.339-.49l-.041-.026a.853.853,0,0,0-.427-.105,1.321,1.321,0,0,0-1.058-.493,1.714,1.714,0,0,0-.425.055l-.019-.151c0-.029-.005-.053-.007-.076a5.078,5.078,0,0,1-.161-2.14A5.387,5.387,0,0,1,32,13.86l.06-.095a5.292,5.292,0,0,1,1.094-1.229,2.406,2.406,0,0,1,1.481-.6,1.647,1.647,0,0,1,.417.054,1.8,1.8,0,0,1,.488.21,2.853,2.853,0,0,1,.382-.026,3,3,0,0,1,1.554.439l-.015.04a.15.15,0,0,0-.006.02.928.928,0,0,0,.085.651,1.371,1.371,0,0,0,.505.575.992.992,0,0,0,.492.133h.019a1.019,1.019,0,0,0,.676-.294.808.808,0,0,0,.213-.376,2.589,2.589,0,0,1,.268.3,4.521,4.521,0,0,1,.756,1.559,5.39,5.39,0,0,1-.232,3.462,4.516,4.516,0,0,1-.961,1.446c-.056.055-.115.107-.173.157l0,0-.032.028a4.094,4.094,0,0,1-2.94,1.674A4.424,4.424,0,0,1,35.683,22.009ZM1.695,9a.094.094,0,0,1-.067-.03A.08.08,0,0,1,1.6,8.914a3.876,3.876,0,0,1,.736-1.9,14.288,14.288,0,0,1,1.32-1.609l0,0a16.17,16.17,0,0,1,3.476-2.85A18.8,18.8,0,0,1,11.315.636,17.324,17.324,0,0,1,13.666.069L13.8.048a4.208,4.208,0,0,1,.6-.048,2.1,2.1,0,0,1,1.814.957,1.465,1.465,0,0,1,0,1.492A1.976,1.976,0,0,1,15,3.423a7.657,7.657,0,0,1-1.678.271,9.913,9.913,0,0,0-1.123.14A18.965,18.965,0,0,0,8.387,5.007,24.768,24.768,0,0,0,4.848,6.939c-.347.226-.69.5-1.021.756A7.3,7.3,0,0,1,1.718,9,.074.074,0,0,1,1.695,9Zm39.662-1.45h0A1.846,1.846,0,0,1,40.173,7.1l-.453-.375-.29-.238A18.326,18.326,0,0,0,35.252,3.75,28.02,28.02,0,0,0,29.8,2.128h0l-.255-.057a.126.126,0,0,1-.086-.079.119.119,0,0,1,.009-.111A3.049,3.049,0,0,1,30.989.749a5.955,5.955,0,0,1,2.02-.31A11.731,11.731,0,0,1,35.93.848a16.378,16.378,0,0,1,3.613,1.441,11.624,11.624,0,0,1,3.075,2.365,1.665,1.665,0,0,1,.356,1.841A1.8,1.8,0,0,1,41.356,7.553Z" transform="translate(7.606 7.609)"/>
  </g>
  <g id="FACIAL_HAIR" data-name="FACIAL HAIR" transform="translate(104.577 109.479)">
    <path id="_Ink-4" data-name="ðŸ– Ink" d="M42.882,39.311h0c-1.731,0-3.459-.168-4.983-.316a56.53,56.53,0,0,1-12.609-2.759c-1.912-.645-3.883-1.412-6.028-2.346l-.884-.381a41.118,41.118,0,0,1-4.946-2.389,19.077,19.077,0,0,1-3.591-3.108l0,0c-.193-.2-.393-.4-.587-.6a65.614,65.614,0,0,1-5.726-6.4,20.7,20.7,0,0,1-2.081-3.166A11.613,11.613,0,0,1,.276,14.262C-.36,10.112.228,5.78.8,1.59.841,1.26.887.919.932.584A.183.183,0,0,1,1.107.436a.107.107,0,0,1,.108.078c0-.069-.008-.141-.013-.235A.257.257,0,0,1,1.27.085.292.292,0,0,1,1.482,0a.287.287,0,0,1,.284.2,25.019,25.019,0,0,0,5.528,9.84,30.424,30.424,0,0,0,2.577,2.473c.849.728,1.767,1.447,2.805,2.2,1.929,1.393,3.988,2.682,5.98,3.928h0c.414.259.842.527,1.261.791a1.071,1.071,0,0,1,.523-.279,11.792,11.792,0,0,1,1.891-4.11,18.258,18.258,0,0,1,2.987-3.312A24.96,24.96,0,0,1,41.276,5.826a21.037,21.037,0,0,1,3.954.367,18.335,18.335,0,0,1,3.759,1.141,16.3,16.3,0,0,1,4.4,2.8A16.519,16.519,0,0,1,56.7,14.177a17.309,17.309,0,0,1,1.346,2.9c.163.458,1.435,5.586.633,8.524a21.942,21.942,0,0,1-1.59,4.1,25.27,25.27,0,0,1-2.334,3.749A14.366,14.366,0,0,1,48.571,38.4a12.672,12.672,0,0,1-2.772.717A19.841,19.841,0,0,1,42.882,39.311ZM40.424,11.432a23.743,23.743,0,0,0-5.81.655A15.123,15.123,0,0,0,28.773,15a13.989,13.989,0,0,0-2.261,2.321,12.933,12.933,0,0,0-1.639,2.795,7.46,7.46,0,0,0,.067,2.638,19.623,19.623,0,0,0,5.081,2.575,17.716,17.716,0,0,0,5.606.927,16.686,16.686,0,0,0,1.925-.111c.3-.37.6-.793.921-1.24A18.746,18.746,0,0,1,40.4,22.5a4.412,4.412,0,0,1,2.438-1.382,3.359,3.359,0,0,1,.481-.035,3.645,3.645,0,0,1,2,.649,12.955,12.955,0,0,1,1.723,1.431,11.361,11.361,0,0,0,1.979,1.59c.108.062.23.125.374.194a7.765,7.765,0,0,0,3.805-1.188,3.811,3.811,0,0,0,1.253-1.37A5.4,5.4,0,0,0,55,20.668c-.058-.233-.121-.472-.189-.709a18.318,18.318,0,0,0-.874-2.425,13.449,13.449,0,0,0-1.261-2.242,8.552,8.552,0,0,0-1.45-1.611,6.573,6.573,0,0,0-1.844-1.122,17.315,17.315,0,0,0-4.708-.887l-.375-.036C42.891,11.5,41.623,11.432,40.424,11.432Z" transform="translate(-0.001 0)"/>
  </g>
</svg>
