<svg id="peep-24" xmlns="http://www.w3.org/2000/svg" width="240" height="324" viewBox="0 0 240 324">
  <g id="BODY" transform="translate(31.056 135.053)">
    <path id="_Skin" data-name="âœ‹ Skin" d="M.944,130.5c-.633,5.8-2.065,12.191.666,17.664-1.72.077-.325.575.6.746a2.772,2.772,0,0,0,1.912.516c3.478.735,7.069,1,10.6,1.418,44.1,3.664,88.486,2.691,132.664,1.112a2.581,2.581,0,0,0,2.511-2.513q2.429-31.044,2.384-62.215c-.719-7.3,4.792-4.448,1.852-14.062a146.146,146.146,0,0,0-10.323-29.413c-3.084-6.12-5.989-12.559-10.689-17.634-1.485-.205-2.75-1.681-4-2.505-1.271-.248-2.213-1.327-3.5-1.66-2.455-.639-7.949-2-10.04-.364-.083-.023-.166-.042-.249-.065-.409.454-.971.113-1.277-.294-1.045-.811-5.611-.895-6.129-2.14-2.7-2.452-3.425-7.611-3.425-10.63-1.01-1.136-1.08-.925-2.452-1.525A19.752,19.752,0,0,0,97.266,2.6c-10.2-6.7-25.007.36-27.4,12.008-3.776,2.991-7.662,6.029-12.286,7.587a15.85,15.85,0,0,0-7.223-1.534c-1.785-.065-4.253-1.1-5.413.782-19.52,6.393-31.3,24.985-39.679,42.6-1.174,2.508-2.579,5.135-2.22,7.992.247,3.422,3.96,5.459,3.258,9.086-1.02,9.977-2.18,19.944-3.241,29.918Q2,120.771.944,130.5Z" transform="translate(9.084 -5.284)" fill="#d08b5b"/>
    <path id="_Top" data-name="ðŸ‘• Top" d="M41.956,1.123c1.16-1.88,3.627-.847,5.413-.782a15.85,15.85,0,0,1,7.223,1.534l.276-.095.134.3L45.176,3.462l4.955,8.989q17.5,16.379,38.908,14.559,21.193-1.8,29.13-22.643l.159-.423-6.721-1.867V1.365a.6.6,0,0,0,.731-.156c.083.023.166.043.249.065,2.091-1.634,7.585-.275,10.04.364,1.288.332,2.231,1.412,3.5,1.66,1.255.824,2.52,2.3,4,2.505,4.7,5.075,7.606,11.514,10.689,17.634A146.147,146.147,0,0,1,151.145,52.85c1.882,6.152.3,7.2-.891,9.071l-.1.015A28.511,28.511,0,0,0,145.638,63a59.477,59.477,0,0,0-8.8,3.708l-.333.174,3.651,64.906-2.28.079c-37.239,1.272-74.611,1.973-111.812-.308l3.48-61.768L.6,53.718a5.787,5.787,0,0,1-.541-2C-.3,48.86,1.1,46.234,2.277,43.725,10.654,26.109,22.435,7.516,41.956,1.123Z" transform="translate(12.077 15.035)" fill="#78e185"/>
    <path id="_Ink" data-name="ðŸ– Ink" d="M152.9,148.359h0a1.542,1.542,0,0,1-1.419-1.074l-.037.022-.009.005a7.338,7.338,0,0,1-.217-3.347c.017-.191.034-.388.048-.579.1-1.3.19-2.637.279-3.968.166-2.491.319-5.022.453-7.524.447-8.354.758-17.32.95-27.409.035-1.828.063-3.678.089-5.468.04-2.666.081-5.422.147-8.136.019-.787.04-1.587.061-2.361v-.057c.039-1.47.08-2.991.108-4.486.009-.467.013-.944.016-1.405v-.006c.008-1.019.017-2.073.078-3.106-.774.133-1.493.281-2.2.452A37.985,37.985,0,0,0,147.6,81c-.351.124-.7.276-1.071.438h0a6.884,6.884,0,0,1-2.635.761h-.012a1.841,1.841,0,0,1-1.009-.29c.86,8.511,1.468,17.19,2.055,25.583h0c.075,1.075.153,2.186.231,3.291.205,2.911.429,5.869.645,8.729.564,7.457,1.147,15.167,1.458,22.755a2.1,2.1,0,0,1-.626,1.5,2.154,2.154,0,0,1-1.514.643,2,2,0,0,1-1.492-.638,2.509,2.509,0,0,1-.647-1.5c-.055-.628-.106-1.248-.152-1.824a8.775,8.775,0,0,1-4.53.8c-.391,0-.8,0-1.188.016-1.939.069-3.991.14-6.1.212-3.927.133-7.889.262-11.774.383-12.573.39-27.452.822-42.479,1.065l-1.1.018c-6.6.107-13.418.217-20.128.217H55.52c-3.952,0-7.461-.041-10.728-.125-1.819-.047-3.588-.153-5.259-.316-.887-.086-1.782-.22-2.648-.348h0c-.528-.079-1.074-.16-1.616-.23q-.01.2-.02.4c-.009.184-.019.379-.029.57-.006.111-.012.226-.017.337v.024a6.426,6.426,0,0,1-.988,3.828,2.1,2.1,0,0,1-1.6.856,1.837,1.837,0,0,1-1.029-.331,2.838,2.838,0,0,1-1.163-1.836,9.068,9.068,0,0,1-.147-2.244c.024-.859.074-1.732.121-2.576v-.007c.022-.4.046-.811.066-1.217q.2-3.9.391-7.81c.557-11.108,1.283-22.276,1.92-31.872.054-.812.109-1.631.165-2.469.282-4.212.574-8.568.79-12.857.127-2.534.175-4.468.156-6.268-1.776-.014-3.4-.048-4.976-.106a10.675,10.675,0,0,1,3.422,2.2,1.482,1.482,0,0,1,.217,1.566,1.088,1.088,0,0,1-1.017.708,1.264,1.264,0,0,1-.138-.008,14.1,14.1,0,0,1-5-1.935c-.422-.228-.859-.464-1.291-.682-2.234-1.128-4.11-2.076-6-3.04l-3.091-1.574-.509-.259L12.915,74.22c-.469-.239-.952-.475-1.42-.7-.643-.314-1.307-.639-1.952-.979-.079,3.969-.481,7.991-.87,11.88l0,.036c-.078.779-.158,1.584-.235,2.376-.28,2.893-.579,5.833-.868,8.675v.009c-.643,6.321-1.308,12.857-1.8,19.3-.38,4.973-.627,9.6-.757,14.14-.061,2.14-.093,4.39-.1,7.08q0,.333,0,.666v0c0,1.01-.007,2.055,0,3.082,0,.18.005.363.008.525a9.34,9.34,0,0,1-.1,2.012,2.018,2.018,0,0,1-.175.632,4.06,4.06,0,0,1-.2.458l-.02-.025-.018-.024a2.68,2.68,0,0,1-2.083,1.15,1.8,1.8,0,0,1-.938-.255,2.266,2.266,0,0,1-.791-.845A7.012,7.012,0,0,1,.014,139.8c0-.28.008-.569,0-.845C0,137.424-.006,136.166.01,135c.033-2.566.111-5.228.23-7.912.2-4.6.537-9.264,1.015-14.256.432-4.5.971-9.149,1.648-14.2.635-4.737,1.382-9.494,2.219-14.139a130.762,130.762,0,0,1,2.8-12.882l-.1-.061h0c-.046-.028-.093-.057-.139-.087a10.489,10.489,0,0,1-1.68-1.318,6.067,6.067,0,0,1-1.25-1.718,5.515,5.515,0,0,1-.5-2.617,9.785,9.785,0,0,1,.514-2.641c.972-3.011,2.178-6.2,3.8-10.046,1.51-3.588,2.992-6.728,4.53-9.6a73.747,73.747,0,0,1,5.628-8.992,59.845,59.845,0,0,1,6.289-7.267,50.718,50.718,0,0,1,7.411-6.032,42.287,42.287,0,0,1,8.43-4.348,38.1,38.1,0,0,1,4.566-1.4A36.76,36.76,0,0,1,50.2,14.67H50.2a.051.051,0,0,1,.05.047.061.061,0,0,1-.041.07,48.242,48.242,0,0,0-9.471,3.85,58.621,58.621,0,0,0-8.567,5.6,54.49,54.49,0,0,0-4.638,4.085l.024,0,.1-.016c.446-.067.9-.112,1.344-.155h.01l.432-.043c.932-.1,1.884-.144,2.8-.189h0l.774-.039.8-.043c2.015-.109,4.1-.221,6.151-.3l1.723-.065c2.933-.112,5.965-.227,8.944-.227,1.307,0,2.5.022,3.66.066a1.841,1.841,0,0,1,.588.117,25.416,25.416,0,0,1-1.61-2.568,25.085,25.085,0,0,1-1.557-3.372,12.932,12.932,0,0,1-.81-3.619.511.511,0,0,1-.306-.464.5.5,0,0,1,.294-.45c0-.019,0-.037,0-.056s0-.052,0-.077a.086.086,0,0,1,.087-.086.1.1,0,0,1,.079.041l.042.059.042.059.559-.06a37.885,37.885,0,0,0,7.2-1.245,21.864,21.864,0,0,0,3.51-1.426,27.3,27.3,0,0,0,3.246-1.96,22.127,22.127,0,0,0,5.217-5.123A21.763,21.763,0,0,0,72.91,3.66c.24-.508.429-1.016.634-1.579.027-.073.053-.149.078-.223a3.892,3.892,0,0,1,.34-.795,2.648,2.648,0,0,1,1-.812l.108-.06A1.513,1.513,0,0,1,75.824,0a1.6,1.6,0,0,1,.754.183,1.237,1.237,0,0,1,.538.545A.385.385,0,0,0,77,.656a0,0,0,0,0-.005,0,1.83,1.83,0,0,0,.339.4,1.953,1.953,0,0,1,.266.985,3.7,3.7,0,0,1-.343,1.361c-.3.765-.606,1.446-.923,2.082a22.535,22.535,0,0,1-2.327,3.682,24.878,24.878,0,0,1-6.486,5.893,25.076,25.076,0,0,1-5.554,2.6,22.538,22.538,0,0,1-3.089.774,18.312,18.312,0,0,1-3.131.282,13.832,13.832,0,0,1-3.655-.467c.381.58.756,1.176,1.119,1.753a43,43,0,0,0,3.032,4.4,42.753,42.753,0,0,0,3.075,3.371,38.979,38.979,0,0,0,3.43,3.007,36.169,36.169,0,0,0,7.721,4.527A46.585,46.585,0,0,0,79,38.049a56.1,56.1,0,0,0,12.088,1.34,49.728,49.728,0,0,0,6.54-.424,34.691,34.691,0,0,0,8.329-2.139,26.566,26.566,0,0,0,7.367-4.389,28.028,28.028,0,0,0,5.09-5.707,30.073,30.073,0,0,0,3.4-6.84,28.408,28.408,0,0,1-6.045-1.582,14.529,14.529,0,0,1-5.192-3.422,11.525,11.525,0,0,1-1.9-2.677,13.948,13.948,0,0,1-1.146-3.092,17.448,17.448,0,0,1-.289-6.572.089.089,0,0,1,.094-.078.115.115,0,0,1,.12.107,12.206,12.206,0,0,0,.4,3.141,8.617,8.617,0,0,0,1.333,2.852,20.9,20.9,0,0,0,3.776,4.156,14.868,14.868,0,0,0,5.6,2.721,41.422,41.422,0,0,0,6.187,1.069,2.367,2.367,0,0,1,1.334.573,1.757,1.757,0,0,1,.566,1.328,2.091,2.091,0,0,1-.585,1.366,2.153,2.153,0,0,1-.1.765,29.412,29.412,0,0,1-3.686,7.653c.735-.116,1.491-.178,2.222-.237.223-.018.475-.039.715-.06,1.35-.121,2.731-.184,4.066-.244l.713-.033c1.2-.056,2.419-.075,3.6-.093h0c.455-.007.924-.014,1.385-.023l.238-.006c.178,0,.378-.01.583-.01a4.527,4.527,0,0,1,1.709.259,1.423,1.423,0,0,1,.608.47,1.394,1.394,0,0,1-.594,2.117,4.4,4.4,0,0,1-1.687.261c-.22,0-.434-.007-.623-.013h0l-.232-.007c-.473-.011-.948-.02-1.407-.029-1.175-.022-2.389-.045-3.58-.109l-.85-.045c-1.358-.071-2.762-.144-4.136-.274l-.6-.055H124.4a20,20,0,0,1-3.131-.447,32.8,32.8,0,0,1-3.328,3.774,33.118,33.118,0,0,1-3.85,3.214c-.252.18-.508.351-.756.516,7.677-.752,15.548-.823,23.161-.893h.015c2.233-.02,4.543-.041,6.806-.079h.028a1.213,1.213,0,0,1,.975.435c-.719-1.516-1.42-2.878-2.142-4.162a47.868,47.868,0,0,0-7.861-10.565,32.274,32.274,0,0,0-5.106-4.156,25.461,25.461,0,0,0-5.911-2.859.114.114,0,0,1-.082-.131.118.118,0,0,1,.116-.1.141.141,0,0,1,.029,0,29.334,29.334,0,0,1,6.9,2.378,31.011,31.011,0,0,1,3.158,1.791,34.1,34.1,0,0,1,2.981,2.17,32.452,32.452,0,0,1,2.665,2.43c.817.831,1.618,1.734,2.381,2.683a45.617,45.617,0,0,1,4.019,5.96,66.986,66.986,0,0,1,3.218,6.482c.856,1.964,1.72,4.148,2.642,6.679A247.858,247.858,0,0,1,160.63,76.3a2.221,2.221,0,0,1-.4,1.859,2.087,2.087,0,0,1-1.625.8,35.907,35.907,0,0,0-4.339.371c.212,1.363.32,2.769.424,4.129v.013c.039.51.08,1.038.125,1.552.223,2.528.436,5.006.591,7.533.267,4.358.426,8.875.486,13.808.051,4.2.029,8.725-.067,13.818-.087,4.62-.24,9.264-.453,13.8-.108,2.3-.232,4.62-.367,6.9-.028.476-.037.973-.047,1.5a24.553,24.553,0,0,1-.155,2.763,6.718,6.718,0,0,1-.774,2.512A1.294,1.294,0,0,1,152.9,148.359ZM35.919,128.806c-.093,2.011-.194,4.152-.3,6.281-.041.814-.082,1.653-.121,2.442l0,.048c-.067,1.36-.137,2.767-.208,4.15.654-.1,1.316-.207,1.956-.314,1.024-.171,2.082-.348,3.132-.47,1.82-.212,3.685-.312,5.487-.409l.613-.033c3.1-.169,6.254-.27,9.3-.368h0l.071,0,2.4-.078c8.17-.275,16.477-.478,24.51-.675h.021c5.884-.144,11.969-.293,17.952-.469,7.045-.207,14.19-.437,21.237-.682,3.568-.124,7.175-.255,10.723-.388,1.674-.063,3.442-.13,5.256-.2.307-.012.619-.027.921-.042.594-.029,1.208-.06,1.812-.065h.04a4.057,4.057,0,0,1,1.918.477c-.238-3.3-.429-6.663-.614-9.914l0-.063c-.063-1.113-.129-2.263-.2-3.393q-.145-2.472-.291-4.943v-.017c-.287-4.861-.583-9.888-.862-14.833a2.416,2.416,0,0,1-.753.122,2.381,2.381,0,0,1-.628-.085c-5.212.227-10.408.246-15.715.246h-3.024c-.966,0-2.237,0-3.507,0-2.159.007-4.281.011-6.3.011-12.9,0-24.212-.154-34.593-.47-7.68-.234-14.435-.514-20.651-.857-3.028-.167-6.6-.388-10.111-.759l-.144-.015c-1.706-.18-3.471-.366-5.2-.611l-.573-.079c-.821-.113-1.668-.229-2.486-.409-.016.447-.036.972-.053,1.484-.132,3.9-.285,8.043-.468,12.662,2.732-.069,5.5-.144,8.17-.216,4.217-.114,8.577-.232,12.874-.33,11.675-.267,23.534-.462,35-.651l.563-.009,5.306-.088c6.856-.114,13.8-.264,20.643-.446,3.347-.089,6.748-.187,10.109-.292l3.136-.1.126,0,2.214-.071.7-.022h.021c.591-.018,1.2-.037,1.8-.059.051,0,.115-.007.2-.015a1.248,1.248,0,0,1,.536-.732,1.689,1.689,0,0,1,.923-.254,2.208,2.208,0,0,1,.742.132,1.74,1.74,0,0,1,1.214,1.555,2.222,2.222,0,0,1-.271,1.2,2.249,2.249,0,0,1-.923.918,5.547,5.547,0,0,1-2.42.46c-.815.029-1.644.055-2.446.08h-.027l-.083,0-.813.025c-2.247.071-4.516.13-6.518.183h-.011c-16.8.439-30.844.643-44.207.643l-2.135,0c-13.128-.022-27.252-.469-44.449-1.405-.168,4.2-.331,8.009-.5,11.647,7.092-.534,14.083-.821,22.4-1.088,2.783-.089,5.612-.2,8.348-.3H66.7c4.162-.156,8.465-.317,12.7-.424,5.356-.135,10.8-.213,16.061-.289l4.575-.067c7.151-.109,14.346-.206,21.057-.294l9.35-.123,1.178-.016,3.262-.043,2.213-.029c.277,0,.561-.015.835-.026.339-.014.689-.028,1.032-.028.242,0,.458.007.659.021a3.307,3.307,0,0,1,2.019,1.012.986.986,0,0,1,.31.733,1.054,1.054,0,0,1-.31.78,3.39,3.39,0,0,1-2.441,1.045c-.589.024-1.18.026-1.735.026h-.335c-.312,0-.593,0-.877,0l-5.9.059-3.945.04-7.847.079-6.072.062h-.15c-10.649.111-21.661.226-32.491.226l-2.98,0c-4.148-.008-8.362-.073-12.437-.136-2.823-.044-5.743-.089-8.621-.114-7.78-.069-14.1-.243-19.9-.546h0Zm10.734-28.634c3.817,0,7.66.076,11.375.15,2.845.057,5.7.116,8.46.174,10.628.222,21.618.451,32.43.52,3.023.019,6.091.029,9.119.029,3.828,0,7.711-.016,11.543-.047,2.821-.023,5.69-.085,8.465-.146,3.5-.076,7.12-.155,10.679-.155.513,0,1.023,0,1.515,0,.067,0,.136,0,.205.011-.153-2.788-.283-5.261-.4-7.561-.287-5.683-.477-10.833-.582-15.742l-.019-.909-.008-.375c-3,.116-6.044.3-8.99.481h0c-1.633.1-3.321.2-4.985.293-6.372.344-12.867.443-19.149.538-2.225.034-4.525.069-6.789.114l-25.939.52-.321.006h0c-8.464.17-17.217.346-25.827.456-1.138.015-2.3.033-3.42.05h-.035c-2.4.038-4.884.076-7.332.085a56.577,56.577,0,0,1,.673,7.469c.012.6.019,1.251.022,1.98,4.489-.218,9.2-.328,14.006-.328,2.608,0,5.316.032,8.049.1,12.857.3,26.53.607,39.911.744,5.247.054,10.569.081,15.817.081,1.3,0,2.624,0,3.934,0,3.348-.009,6.741-.028,10.086-.059,1.712-.016,3.409-.034,5.043-.054.244,0,.485-.011.717-.019h0c.289-.01.563-.019.836-.019a5.381,5.381,0,0,1,1.534.179,3.284,3.284,0,0,1,1.392.814.947.947,0,0,1,.284.677,1.018,1.018,0,0,1-.284.725,3.305,3.305,0,0,1-1.074.772,3.658,3.658,0,0,1-1.308.253c-.607.025-1.212.028-1.83.028h-.16c-.312,0-.635,0-.951,0-1.865.018-3.7.032-5.463.042-3,.018-6.046.027-9.046.027l-2.3,0c-13.306-.019-26.737-.226-39.919-.615-6.272-.185-13-.417-19.686-.856-7.25-.476-13.657-1.144-19.59-2.043,0,3.831-.141,7.727-.282,11.495l-.016.428c.926-.112,1.877-.144,2.8-.176h0c.3-.01.61-.021.914-.034C42.746,100.183,44.767,100.171,46.653,100.171ZM150.189,75.877c-1.485.042-3,.067-4.456.092h0c-1.138.019-2.315.04-3.483.067.129,1.177.226,2.068.315,2.887a7.5,7.5,0,0,1,3.244-1.7c.243-.082.472-.159.689-.238a36.12,36.12,0,0,1,3.693-1.111h0ZM7.461,64.35h0c-.013.049-.026.1-.039.146v0c-.018.065-.036.131-.053.2a3.205,3.205,0,0,0,1.175,3.683A15.773,15.773,0,0,0,11.6,70.1c.269.127.548.258.818.39l3.426,1.676.07.034L22.436,75.4c.916.449,1.828.9,2.52,1.241,2.7-.3,5.593-.531,8.844-.7-.048-.946-.109-1.78-.186-2.55a13.51,13.51,0,0,1-.1-1.589,4.766,4.766,0,0,1,.263-1.552.082.082,0,0,1,.076-.057.085.085,0,0,1,.056.022,6.213,6.213,0,0,1,1.665,3.307c.2.731.38,1.507.55,2.308,3.1-.132,6.253-.211,9.3-.288h.021c1.618-.041,3.29-.083,4.931-.132,12.424-.374,25.055-.646,37.27-.908h.067c4.9-.105,9.976-.214,14.962-.329l3.3-.077h.032c6.151-.145,12.511-.3,18.77-.3,1.386,0,2.747.007,4.045.022,1.235.014,2.49.033,3.7.051,2.248.034,4.573.068,6.86.074-.026-1.73-.025-3.056,0-4.3.011-.5.013-1.015.014-1.511,0-1.133.008-2.3.115-3.443-6.786-.185-13.58-.374-20.194-.559-15.861-.446-32.926-.858-50.245-.858-1.962,0-3.927.005-5.842.016-9.991.056-19.822.265-28.121.462-2.81.067-5.661.152-8.417.235h0c-6.061.181-12.328.369-18.5.369H7.461Zm145.392,9.37h0c.753,0,1.449.008,2.129.023a.921.921,0,0,1,.732.343,1,1,0,0,1,.162.84l.045,0,.094-.008c-1.307-5.718-2.454-10.354-3.61-14.591-1.024-3.753-2.131-7.75-3.42-11.735a100.784,100.784,0,0,0-4.4-11.434,1.518,1.518,0,0,1-.267,1.249,1.248,1.248,0,0,1-1.006.462c-2.272.015-4.588.048-6.827.08-3.054.044-6.211.089-9.32.089-2.964,0-5.58-.041-8-.126-2.856-.1-5.462-.262-7.967-.492a34.219,34.219,0,0,1-7.467,2.994,43.7,43.7,0,0,1-7.953,1.375c-1.508.124-3.053.187-4.593.187a58.7,58.7,0,0,1-7.836-.53A57.958,57.958,0,0,1,75.7,40.877a45.135,45.135,0,0,1-8.607-3.342.854.854,0,0,1-.445.3,9.86,9.86,0,0,1-2.453.232c-.245,0-.5.006-.747.014l-2.948.1-5.735.2-.371.013c-4.168.143-8.318.271-12.212.389-4.919.15-10.153.3-15.311.3-2.838,0-5.436-.043-7.943-.131a83.007,83.007,0,0,0-5.477,9.828c2.2.078,4.441.209,6.6.336h0c2.409.141,4.9.287,7.353.361,2.105.063,4.3.1,6.523.1,2.525,0,5.187-.041,7.914-.123,8.076-.242,16.279-.639,24.211-1.023,9.209-.446,18.731-.907,28.108-1.127,8.654-.2,17.431-.308,26.088-.309h.159c4.619,0,8.9.025,13.1.078,2.185.027,4.379.061,6.522.1,1.225.023,2.428.047,3.576.071a6.92,6.92,0,0,1,2.889.723.883.883,0,0,1,.562.865,1.377,1.377,0,0,1-.246.727,1.305,1.305,0,0,1-.588.489l-.085.033a5.325,5.325,0,0,1-1.9.484c-.089,0-.18,0-.278,0-.276,0-.559-.011-.831-.021h0c-.177-.007-.377-.015-.57-.019-1.292-.026-2.566-.051-3.787-.072-2.3-.039-4.708-.073-7.363-.1-4.16-.047-8.377-.071-12.533-.071l-2.2,0c-8.346.016-16.968.142-26.36.385-8.046.208-16.664.5-26.347.9l-2.1.088h-.017c-6.318.264-12.85.537-19.278.537h-.007c-1.449,0-2.873-.014-4.232-.042-4.489-.092-8.856-.335-12.981-.723-2.3-.217-4.311-.465-6.137-.759a53.256,53.256,0,0,1-6.042-1.3c-.909,1.951-1.774,3.981-2.571,6.033l-.342.878-.025.064c-.909,2.327-1.848,4.732-2.541,7.15,4.663-.8,9.648-1.432,15.241-1.934,5.546-.5,11.109-.811,15.336-1.028,4.982-.256,10.069-.437,15.552-.555,4.9-.1,9.99-.156,15.57-.156,8.721,0,17.343.126,25.362.262,18.378.312,37.057.884,55.12,1.438l1.268.039a1.636,1.636,0,0,1,1.257.588,1.865,1.865,0,0,1,.406,1.215,1.763,1.763,0,0,1-.411,1.136,1.533,1.533,0,0,1-1.2.51h-.056c-2.707-.072-5.46-.147-8.122-.219h-.043l-.824-.022-1.271-.035c.063.437.116.873.171,1.334l.009.078.017.144c.085.7.178,1.409.267,2.094.1.757.2,1.54.294,2.318.128,1.076.25,2.167.369,3.222l0,.02c1.619-.015,3.266-.06,4.86-.1h.006C148.837,73.776,150.862,73.72,152.852,73.72ZM26.6,29.266c-1.337,1.38-2.643,2.868-3.884,4.423-1.2,1.5-2.365,3.1-3.47,4.767,8.371-.8,16.654-1.242,22.935-1.536,4.611-.215,8.488-.393,12.423-.562l5.9-.253c.55-.024,1.107-.07,1.7-.118.637-.053,1.3-.107,1.943-.131a37.57,37.57,0,0,1-5.355-4.044,27.735,27.735,0,0,1-2.9-3.078,1.728,1.728,0,0,1-.377,1.324,1.622,1.622,0,0,1-1.2.556c-1.372.061-2.816.091-4.415.091-2.729,0-5.5-.088-8.185-.174l-1.727-.054c-2.1-.064-4.239-.166-6.3-.265l-.859-.041-.54-.025h0c-1-.046-2.026-.093-3.038-.192-.149-.015-.3-.028-.448-.04h0c-.4-.035-.822-.071-1.225-.141a1.438,1.438,0,0,1-.786-.371C26.716,29.358,26.662,29.314,26.6,29.266Z" transform="translate(6.338 0.634)"/>
  </g>
  <g id="HEAD" transform="translate(78.592 38.043)">
    <path id="_Skin-2" data-name="âœ‹ Skin" d="M18.657,5.079C31.941,4.352,43.712.61,53.063,8.985c0,0,15.128-11.326,17.652-7.012,1.691,2.89-.654,6.77-.025,10.337,4.1,7.009,3.869,18.871,4.1,21.651.584,7.007,4.265,33.374,4.265,39.636,0,3.2-2.628,11.566-4.265,16.225-3.644,10.368-10.6,15.652-22,15.652S22.765,95.917,16.794,87.432c-.523-.744-3.907,1.426-7.446-2.337C5.514,81.018,3.387,73.242,3.387,68.606c0-5.882-3.792-9.961-3.351-17.49C1.021,34.3,4.441,5.857,18.657,5.079Z" transform="translate(6.733 0.526)" fill="#d08b5b"/>
    <path id="bandana" d="M70.715,1.19c1.691,2.89-.654,6.77-.025,10.337a28.663,28.663,0,0,1,3.088,9.481l-3.1,1.65-1.147.169q-27.907,4.125-35.623,7.424-7.794,3.333-18.918,23.414l-.225.407-1.47,9.991L6.556,66.134,3.385,67.641C3.309,61.856-.4,57.784.036,50.333,1.021,33.518,4.441,5.074,18.657,4.3,31.941,3.569,43.712-.173,53.063,8.2Q68.191-3.124,70.715,1.19Z" transform="translate(6.746 1.268)" fill="#9fd8e5"/>
    <path id="_Ink-2" data-name="ðŸ– Ink" d="M64.178,121.407a21.67,21.67,0,0,1-3.678-.318,20.174,20.174,0,0,1-4.115-.991,31.025,31.025,0,0,1-3.137-1.338,12.158,12.158,0,0,1-1.529-.884,16.966,16.966,0,0,1-2.309-1.807c-.249-.214-.473-.417-.685-.621a.148.148,0,0,1-.052-.146.174.174,0,0,1,.128-.124l.038,0-.045-.041h0c-.033-.03-.067-.061-.1-.093a.171.171,0,0,1-.027-.03l-.021-.019,0,0c-.015-.014-.031-.027-.044-.041a.111.111,0,0,1-.033-.1.246.246,0,0,1,.1-.17.145.145,0,0,1,.07-.015l.034,0,0,0a.163.163,0,0,0-.02-.018c-.009-.007-.01-.025-.008-.04l-.032-.025a.15.15,0,0,1-.054-.147.175.175,0,0,1,.128-.124.29.29,0,0,1,.082-.01.919.919,0,0,1,.188.024l.04.009-.072-.068a.166.166,0,0,1-.072-.159.174.174,0,0,1,.142-.112,1.91,1.91,0,0,1,.345.051l.085.023c.036.009.071.02.108.031h0l.015,0-.077-.07c-.045-.041-.091-.082-.136-.125a.109.109,0,0,1-.027-.094.267.267,0,0,1,.094-.178.151.151,0,0,1,.074-.017.507.507,0,0,1,.259.093,1.234,1.234,0,0,1,.538.186c.232.223.49.455.786.708a1.211,1.211,0,0,1,.434.22c.275.264.583.536.942.833l.245.169.124.082.517.3.873.513.558.19,4.518,1.533.224.068,1.642.2a14.684,14.684,0,0,0,3.24-.017h.144a11.087,11.087,0,0,0,2.259-.236,22.418,22.418,0,0,0,3.942-1.033,29.2,29.2,0,0,0,4.254-2.014c.491-.276.98-.572,1.455-.881.148-.105.3-.219.462-.336.986-.742,1.968-1.562,2.918-2.437.427-.393.853-.817,1.267-1.259l.025-.027,0,0c.05-.053.1-.1.144-.157.4-.438.78-.884,1.128-1.325l.344-.389a44.346,44.346,0,0,0,3.73-5.51,34.739,34.739,0,0,0,2.728-5.969c.235-.747.438-1.5.6-2.242a12.4,12.4,0,0,0,.611-2.792c.031-.18.056-.363.08-.541l0-.018.014-.293c0-.057,0-.1,0-.146.045-.313.079-.6.105-.888.018-.316.028-.608.03-.894L90.7,87.48c-.006-.055-.013-.115-.017-.175l-.046-.4c-.051-.417-.1-.84-.14-1.249s-.09-.834-.14-1.251a.054.054,0,0,0,0-.017c-.034-.276-.075-.6-.124-.936-.017-.139-.038-.278-.058-.412l-.022-.146-.053-.325c-.1-.579-.221-1.146-.361-1.683l-.063-.238-.367-1.849-.413-1.82c-.268-1.222-.493-2.462-.668-3.686-.31-1.912-.583-3.853-.833-5.935-.014-.1-.026-.2-.036-.287-.238-1.8-.416-3.668-.531-5.542-.153-1.816-.242-3.663-.265-5.489a.217.217,0,0,1,.118-.188l-.006-.352a.758.758,0,0,0-.008-.136s0,0,0,0,0,0,0,0a1.24,1.24,0,0,1,0-.167l0-.977c0-.085,0-.138,0-.142-.353.025-.69.036-1.029.036-.512,0-.981-.026-1.525-.057h-.008l-.41-.022-.184-.01a25.113,25.113,0,0,1-2.973-.321.106.106,0,0,1-.095.1c-.065,0-.129,0-.19,0h0l-.1,0,.036.137a.121.121,0,0,1-.1.133L79.8,54.1c-.131.005-.3.012-.473.012a4.835,4.835,0,0,1-.652-.039,6.777,6.777,0,0,1-.987-.216,5.722,5.722,0,0,1-.614-.139c-.294-.085-.592-.187-.88-.286h0c-.236-.081-.481-.165-.723-.24a4.383,4.383,0,0,0-.916-.1,3.267,3.267,0,0,0-.771.09c-.148.035-.292.077-.432.118a3.309,3.309,0,0,1-.94.181,1.675,1.675,0,0,1-.41-.05,2.7,2.7,0,0,1-.377-.131l-.115-.008-.06-.007a4.225,4.225,0,0,1-1.2-.44,7.227,7.227,0,0,0-.708-.312,1.1,1.1,0,0,0-.26-.032,1.038,1.038,0,0,0-.4.082l-.054.024-.213.159c-.081.1-.164.2-.254.306l-.125.154a3.131,3.131,0,0,1-.771.727,1.929,1.929,0,0,1-1.293.539h-.054a2.608,2.608,0,0,1-.8-.142,6.039,6.039,0,0,1-1.787.281,4.949,4.949,0,0,1-1.435-.207,4.665,4.665,0,0,1-1.212-.351,4.937,4.937,0,0,1-.544-.287c-.487.206-.964.46-1.425.707h0c-.238.127-.485.259-.729.382l-.161.081a5.093,5.093,0,0,1-2.2.672c-.056,0-.112,0-.166-.005a29.093,29.093,0,0,1-3.084-.383.122.122,0,0,1-.028,0L52.4,55.2l-.51-.09-.412-.077-.21.081a16.182,16.182,0,0,1-1.908.608,8.207,8.207,0,0,1-1.946.256,5.431,5.431,0,0,1-1.385-.172,4.633,4.633,0,0,1-2.06-.765c-.022-.016-.043-.03-.063-.046a1.943,1.943,0,0,1-.274-.169l-.018-.014L43.6,54.8l-.008,0a2.316,2.316,0,0,1-1.364-2.354,2.7,2.7,0,0,1,.008-.978c-.286.338-.587.685-.921,1.061-1.374,1.658-2.39,2.968-3.294,4.246l-.237.339c-.563.8-1.1,1.636-1.587,2.5-.525.9-1.025,1.72-1.529,2.515-.687.761-1.352,1.543-1.978,2.324l-.271.341L31.5,65.993a11.332,11.332,0,0,0-1.609,2.523c-.356.664-.678,1.333-.957,1.989-.081.178-.166.375-.268.619a20.45,20.45,0,0,0-.744,2.486,13.234,13.234,0,0,0-.338,1.875l-.021.212c-.027.263-.045.508-.055.748a.839.839,0,0,1,.15.108l.154.055.124.037c.261.081.418.169.453.254a.1.1,0,0,1,0,.085l-.407.778a.114.114,0,0,1,.034.142c-.275.528-.556,1.063-.82,1.566a.111.111,0,0,1-.038.044,7.343,7.343,0,0,1,.679.355,3.96,3.96,0,0,1,1.025.89,6.469,6.469,0,0,1,.86.609,6.463,6.463,0,0,1,.871,1.152,6.715,6.715,0,0,1,.557,1.232,2.519,2.519,0,0,1,.091.7,1.2,1.2,0,0,1-.353.764.9.9,0,0,1-.611.207,2.276,2.276,0,0,1-.928-.245,1.263,1.263,0,0,1-.463-.315,6.783,6.783,0,0,0-.5-1.4,5.428,5.428,0,0,0-.836-1.191l-.019-.013c-.411-.182-.837-.369-1.275-.514-.048.009-.1.016-.146.024H26.1l-.046.007a.152.152,0,0,1,.029.149.169.169,0,0,1-.145.084,7.191,7.191,0,0,1-1.391.136c-.2,0-.413-.009-.618-.026L22.9,81.971a6.487,6.487,0,0,0-1.214.623l-.127.085-.023.017a8.207,8.207,0,0,0-2.275,3.01c-.049.108-.092.21-.133.311l-.063.158,0,.008a10.16,10.16,0,0,0-.137,4.137,13.547,13.547,0,0,0,1.311,3.949c.683,1.1,1.4,2.178,2.133,3.215l.721.945c.432.407.852.823,1.25,1.236.055.055.118.115.2.188a5.394,5.394,0,0,0,.658.372c.092.031.181.058.264.08a3.316,3.316,0,0,0,1.356.33c.113.007.226.011.338.011a4.891,4.891,0,0,0,1.484-.23l.117-.039.086-.032a4.76,4.76,0,0,0,.9-.761.208.208,0,0,1,.156-.054.634.634,0,0,1,.16.024c.087-.09.156-.167.217-.243a.129.129,0,0,1,.1-.043.155.155,0,0,1,.087.028h.023a.878.878,0,0,1,.589.338.1.1,0,0,1-.011.112.78.78,0,0,1-.048.067l-.03.041a2.632,2.632,0,0,1,.274.161,2.274,2.274,0,0,1,1.035.642.071.071,0,0,1,.008.057l-.006.011a1.509,1.509,0,0,1-.4.487l-.056.042-.124.087c.166.1.256.192.267.26a.079.079,0,0,1-.018.065,1.394,1.394,0,0,1-.112.186c.32.4.659.822,1.069,1.34a10.8,10.8,0,0,0,1.316,2.154,9.266,9.266,0,0,0,1.575,1.951c.034.035.07.069.1.1l0,0,.045.043c.43.319.894.629,1.417.95l.212.128.034.02h0c.113.066.254.147.174.293a.162.162,0,0,1-.038.051c.317.208.64.4.961.573l.031.019c.088.056.193.141.193.227a.143.143,0,0,1-.077.117.149.149,0,0,1-.084.022,1.648,1.648,0,0,1-.645-.312l-.015-.01a.448.448,0,0,1-.12-.023c.044.024.089.049.132.074l.056.032.1.053c.011.007.281.17.272.3,0,.038-.033.069-.088.092l-.045,0a.524.524,0,0,1-.3-.1c-.119-.059-.243-.125-.367-.195a.118.118,0,0,1,.023.1.134.134,0,0,1-.086.075h-.028a.656.656,0,0,1-.079-.005c.244.156.495.3.767.446l.043.027c.13.085.2.162.2.229a.119.119,0,0,1-.045.1.151.151,0,0,1-.1.035,1.229,1.229,0,0,1-.508-.222l-.037-.023-.308-.184a.235.235,0,0,1-.076.017l.112.072c.052.034.106.069.162.1l.129.07c.122.068.288.17.32.283a.128.128,0,0,1-.012.1.137.137,0,0,1-.129.068.791.791,0,0,1-.358-.136l-.171-.106,0,0-.019-.011-.007.025a.052.052,0,0,1-.006.013.14.14,0,0,1-.13.071.616.616,0,0,1-.285-.1l-.11-.067c-.2-.12-.378-.229-.556-.337l-.275-.17h0a17.23,17.23,0,0,1-2.658-1.879,16.1,16.1,0,0,1-1.4-1.4,17.436,17.436,0,0,1-2.169-3.3c-.01-.017,0-.061.029-.121-.064-.133-.131-.277-.2-.44a6,6,0,0,1-1.595.205c-.149,0-.3,0-.448-.015a5.4,5.4,0,0,1-1.065-.182,7.76,7.76,0,0,1-3.143-1.285c-.035-.023-.069-.047-.1-.071l-.066-.047a7.454,7.454,0,0,1-1.1-.761,18.25,18.25,0,0,1-1.914-1.841c-.427-.508-.832-1.039-1.206-1.579-.338-.475-.685-.958-1.021-1.424l-.139-.193a14.01,14.01,0,0,1-2.035-5.626,11.39,11.39,0,0,1-.183-2.215,9.59,9.59,0,0,1,.173-1.615l-.034-.033c-.049-.048-.1-.1-.149-.146-.032.057-.058.086-.076.086a.017.017,0,0,1-.012-.006l-.483-.485a7.794,7.794,0,0,1-.967-1.161,11.325,11.325,0,0,1-1.444-2.912,10.223,10.223,0,0,1-.483-2.394c-.021-.132-.042-.272-.059-.412a11.7,11.7,0,0,1,.156-3.242.173.173,0,0,1,.095-.139c.011-.075.023-.152.035-.227l.006-.035a9.342,9.342,0,0,1-1.714-2.459,6.444,6.444,0,0,1-.605-2.966,5.57,5.57,0,0,1,.431-1.975l.032-.071a3.436,3.436,0,0,1-1.569-.695,5.694,5.694,0,0,1-1.216-1.323c-.061-.048-.121-.1-.179-.147a9.886,9.886,0,0,1-2.693-4.16A9.746,9.746,0,0,1,4.2,58.595c-.006-.052-.01-.1-.014-.154v0l-.005-.063a18.878,18.878,0,0,1-.229-4.865,24.159,24.159,0,0,1-.686-3.05c-.069-.449-.124-.934-.168-1.484l0-.027-.006-.089-.018-.222c0-.037-.005-.074-.007-.11a23.977,23.977,0,0,1-.022-3.379,27.275,27.275,0,0,1,.424-3.334,35.337,35.337,0,0,1,1.921-6.463c.149-.387.3-.766.451-1.126L6,33.839A31.915,31.915,0,0,1,10.517,28.5c.6-.614,1.224-1.248,1.806-1.88a.808.808,0,0,0,.158-.9.91.91,0,0,0-.791-.558.755.755,0,0,0-.559.265c-.562.61-1.149,1.219-1.717,1.809h0c-.866.9-1.761,1.828-2.589,2.781-.169.012-.324.018-.474.018-.086,0-.171,0-.253-.006a5.8,5.8,0,0,1-1.227-.2A6.171,6.171,0,0,1,2.162,28.7,4.131,4.131,0,0,1,.726,27.615a2.884,2.884,0,0,1-.685-1.646,2.464,2.464,0,0,1,0-.376,3.312,3.312,0,0,1,.247-1.854,3.224,3.224,0,0,1,.173-.482,3.127,3.127,0,0,1,.972-1.23l.008,0h0l.018-.012.027-.029c.034-.036.069-.073.107-.106a2.408,2.408,0,0,1,.228-.184,11.6,11.6,0,0,1-.761-1.465A5.99,5.99,0,0,1,.633,18.5,7.066,7.066,0,0,1,.591,17.8c-.012-.1-.02-.205-.03-.328a5.783,5.783,0,0,1,.356-2.488c.015-.039.033-.077.051-.117L1,14.8a5.034,5.034,0,0,1,.2-.528,4.976,4.976,0,0,1,1.3-1.693A5.41,5.41,0,0,1,3.49,11.8a4.091,4.091,0,0,1,.711-.349,3.956,3.956,0,0,1,1.514-.477h.025l.068,0,.069,0a10.082,10.082,0,0,1,.679-3.633,5.338,5.338,0,0,1,.531-1.115,3.76,3.76,0,0,1,.793-.9,3.552,3.552,0,0,1,1.374-.893l.1-.035.038-.01a3.6,3.6,0,0,1,1.587-.34H11c.07,0,.141-.006.211-.006a3.587,3.587,0,0,1,1.672.394,3.675,3.675,0,0,1,.365.226,6.188,6.188,0,0,1,.308-.549,8.173,8.173,0,0,1,1.467-1.74c.045-.041.094-.08.141-.117l.072-.058a8.6,8.6,0,0,1,.873-.7A7.283,7.283,0,0,1,18.235.487,7.09,7.09,0,0,1,20.7.041c.08,0,.161,0,.241,0l.19.008c.04,0,.079.006.117.008h.007a8.919,8.919,0,0,1,2.673.621,8.068,8.068,0,0,1,2.348,1.5,3.875,3.875,0,0,1,.582-.647c.043-.037.088-.072.131-.106l.07-.055c.046-.046.1-.093.158-.148a5.124,5.124,0,0,1,.808-.585A3.631,3.631,0,0,1,29.073.235,4.454,4.454,0,0,1,30.23,0c.051,0,.1,0,.157,0,.111,0,.231.006.365.02a3.8,3.8,0,0,1,.576.066A4.626,4.626,0,0,1,33.85,1.52a.449.449,0,0,1,.031.035l.02.024a6.542,6.542,0,0,1,.873.8l.048-.046h0l.09-.086c.139-.123.286-.24.436-.349A5.688,5.688,0,0,1,37.531.726l.11-.03A.633.633,0,0,1,37.7.681,5.528,5.528,0,0,1,39.458.4h.017l.176,0A5.057,5.057,0,0,1,41.594.77a5.967,5.967,0,0,1,2.079,1.486,10.79,10.79,0,0,1,1.073,1.036A7.892,7.892,0,0,1,46.419,6c.047.131.091.273.135.433.924-.107,1.827-.179,2.684-.214.705-.043,1.393-.065,2.046-.065.328,0,.655.005.973.016a27.906,27.906,0,0,1,8.121,1.479,9.54,9.54,0,0,1,1.533.6,11.135,11.135,0,0,1,2.195,1.177l.587.349c.264.157.575.344.876.536a17.216,17.216,0,0,1,1.937,1.456,20.926,20.926,0,0,1,1.834,1.687c.141.144.287.3.459.489A15.694,15.694,0,0,1,73.43,16.7a25.669,25.669,0,0,1,5.936-2.513,20.76,20.76,0,0,1,2.724-.56c.381-.066.791-.124,1.252-.178l-.017.007c.276-.03.558-.057.886-.085l-.009,0,.058,0c.106-.009.216-.018.323-.025l.308-.025H84.9c.1,0,.223.214.231.285l.011.078c.043.049.083.1.119.145.02.026.041.052.058.073.056,0,.111-.009.164-.011h.012c.131,0,.279.189.376.313.023.029.045.057.063.078l.088.1a.83.83,0,0,1,.216.41c.111.906.213,1.792.3,2.635a9.032,9.032,0,0,1-.11,1.978c-.086.662-.175,1.332-.251,1.9-.133.437-.264.875-.391,1.3l-.01.033c-.041.13-.085.261-.129.387l-.04.116a27.021,27.021,0,0,1-1.2,3.253,14.868,14.868,0,0,1,.962,1.183l.019.02c.064.066.13.133.191.2a.208.208,0,0,1,.076-.072.177.177,0,0,1,.071-.016.215.215,0,0,1,.168.111,5.677,5.677,0,0,1,1.446,2.225l.187.442c.035.085.065.155.092.222a15.572,15.572,0,0,1,.573,1.97,11.916,11.916,0,0,1,.3,1.6c.476,1.6.846,3.24,1.155,4.648a1.054,1.054,0,0,1-.05.646l.2.194.339.339A10.774,10.774,0,0,1,91.7,41.949a16.309,16.309,0,0,1,.888,1.713c.075.161.153.326.231.489l.077.159.158.318a7.884,7.884,0,0,1,.4.958,8.4,8.4,0,0,1,.449,2.145,9.3,9.3,0,0,1,.016,1.659,4.716,4.716,0,0,1-.408,1.6.066.066,0,0,1-.01.021,4.373,4.373,0,0,1-.555,1.371,3.726,3.726,0,0,1-1,1.074,3.124,3.124,0,0,1-.557.425,1.671,1.671,0,0,1-.878.251,2.28,2.28,0,0,1-.554-.075l-.065-.017c-.074-.019-.129-.033-.181-.044.057.048.084.091.079.129s-.031.059-.079.082a1.072,1.072,0,0,1-.335.106.111.111,0,0,1,.029.089.129.129,0,0,1-.073.08.886.886,0,0,1-.42.122.657.657,0,0,1-.116-.01l.035.294c.12.966.234,1.589.343,2.192a27.834,27.834,0,0,1,.4,2.86c.143,2.446.374,4.906.685,7.313l.108.882c.334,2.69.726,5.565,1.334,8.366.3,1.188.56,2.41.78,3.633a14.746,14.746,0,0,1,.647,2.845,28.346,28.346,0,0,1,.365,2.98,5.362,5.362,0,0,1,.354,1.955,18.873,18.873,0,0,1-.093,2.667,17.289,17.289,0,0,1-.379,2.739,15.654,15.654,0,0,1-.974,3.6,35.081,35.081,0,0,1-1.358,3.815,37.4,37.4,0,0,1-2.907,5.482,38.574,38.574,0,0,1-3.449,4.73,32.283,32.283,0,0,1-5.616,5.148,27.366,27.366,0,0,1-3.73,2.334,27.745,27.745,0,0,1-4.939,2.067,24.834,24.834,0,0,1-3.283.694A20.143,20.143,0,0,1,64.178,121.407Zm-38.6-63.484a1.01,1.01,0,0,1,.41.165.233.233,0,0,1,.12.151.19.19,0,0,1-.061.149c-.019.022-.038.043-.057.061a2.136,2.136,0,0,1,.4.224,1.561,1.561,0,0,1,.85.506.05.05,0,0,1-.007.051c-.182.19-.374.4-.586.64.148.1.237.2.243.251a.042.042,0,0,1-.009.034,26.081,26.081,0,0,0-2.277,2.762,20.463,20.463,0,0,0-1.436,2.272,28.539,28.539,0,0,0-1.655,3.443c-.072.192-.136.368-.2.539a30.071,30.071,0,0,0-.9,3,23.9,23.9,0,0,0-.543,3.08l-.009.14c-.015.273-.027.716-.039,1.185v0c-.022.814-.046,1.736-.095,2.039a10.478,10.478,0,0,0,1.455.588c.09.026.187.052.289.076a1.607,1.607,0,0,1,.169-.059,5.916,5.916,0,0,1,1.444-.389,6.17,6.17,0,0,1,.809-.053l.19,0,.142.006c.137,0,.282.014.441.03-.006-.059-.01-.117-.013-.173,0-.026,0-.052-.005-.079a.146.146,0,0,1-.076-.116A14.083,14.083,0,0,1,24.57,75.6c.058-.458.129-.944.217-1.486.075-.372.167-.766.28-1.2a22.773,22.773,0,0,1,1.082-3.282,50.883,50.883,0,0,1,4.885-8.535c.5-.747.99-1.512,1.467-2.252.8-1.239,1.626-2.52,2.486-3.751,1.3-1.861,2.512-3.458,3.7-4.882a49.313,49.313,0,0,1,4.178-4.455c.231-.213.469-.426.729-.651a34.762,34.762,0,0,1,4.545-3.333.1.1,0,0,1,.056-.015.358.358,0,0,1,.206.1l.258-.159.13-.078a.048.048,0,0,1,.026-.008.118.118,0,0,1,.082.06c.09-.047.181-.093.269-.137l.06-.03c.046-.037.094-.074.14-.11l0,0h0l.1-.077c-1.166-.059-2.36-.148-3.55-.264-1.309.14-2.588.275-3.8.4-.823.095-1.64.177-2.427.245-.6.045-1.143.067-1.656.067a14.474,14.474,0,0,1-1.99-.128,12.028,12.028,0,0,1-1.269-.247c-.266.2-.554.39-.881.594L30.551,44.54a60.672,60.672,0,0,0-6.419,5.713,39.962,39.962,0,0,0-4.65,5.863A35.153,35.153,0,0,0,16.1,62.782a.7.7,0,0,0-.326.514,18.076,18.076,0,0,1-.786,2.838,18.617,18.617,0,0,0-.77,2.746,6.117,6.117,0,0,0,.079,2.635A6.32,6.32,0,0,0,15.5,73.857a.689.689,0,0,0,.558.245.958.958,0,0,0,.527-.158.144.144,0,0,0,.13.077c.132,0,.3-.152.374-.579a6.309,6.309,0,0,0,1.278-1.906.689.689,0,0,0-.011-.614.827.827,0,0,0-.6-.382c.192-.693.409-1.377.644-2.035a28.26,28.26,0,0,1,2.76-5.69A32.1,32.1,0,0,1,24.576,58.5a.1.1,0,0,1,.067-.029l.259-.288a.112.112,0,0,1,.088-.031.427.427,0,0,1,.1.016l.093-.1,0,0c.045-.049.092-.1.139-.148a.146.146,0,0,1,.105-.053.135.135,0,0,1,.108.062A.181.181,0,0,1,25.581,57.923ZM54.252,27.958h0a6.972,6.972,0,0,0-.7.442,7.627,7.627,0,0,0-.822.774,7.975,7.975,0,0,0-1.413,2.234,8.792,8.792,0,0,0-.289,1.357c-.011.095-.025.207-.036.321a9.421,9.421,0,0,0,.264,3.213,12.028,12.028,0,0,0,1.225,2.985h.042a19.959,19.959,0,0,1,2.993-1.317,28.04,28.04,0,0,1,2.568-1.541,26.96,26.96,0,0,1,5.905-2.282l.236-.059c.47-.12.96-.23,1.455-.327l.293-.055h0l-.032-.315a9.4,9.4,0,0,0-3.23-5.721l0,0a7.165,7.165,0,0,0-1.116-.51l-.145-.051-.67-.152a8.46,8.46,0,0,0-1.661-.167,8.342,8.342,0,0,0-1.223.091c-.417.061-.823.134-1.207.217A7.915,7.915,0,0,1,58.8,30.067a.851.851,0,0,1-.05.825,1.166,1.166,0,0,1-1.983-.263A5.174,5.174,0,0,0,54.252,27.958ZM34.778,38.57h0a6.621,6.621,0,0,0,1.267.375c.183.034.383.065.613.093l.027.018.014.011h.224c.359.035.737.052,1.123.052a20.811,20.811,0,0,0,3.625-.385c1.309-.132,2.64-.274,3.927-.412h.012c.9-.1,1.824-.2,2.74-.29h.011c.031,0,.048.016.048.045l.137-.013h.018a.369.369,0,0,1,.3.248.156.156,0,0,1-.033.185,2.036,2.036,0,0,1,.323.256l.05,0a9.245,9.245,0,0,1-.71-1.881l-.215-1.095a10.078,10.078,0,0,1-.1-1.272c-.017-.235-.025-.4-.025-.541,0-.174,0-.319.009-.456a13.257,13.257,0,0,0-1.28-.455l-.954-.118-.025,0c-.891-.11-1.812-.223-2.719-.334-.755.028-1.5.083-2.218.163-.819.072-1.661.168-2.5.283H38.45a.485.485,0,0,1-.292-.22l-.356.049h-.017c-.109,0-.214-.13-.231-.242a.154.154,0,0,1,.112-.184c.084-.033.171-.066.265-.1l.133-.047-.076.008h-.011a.258.258,0,0,1-.082-.017l-.063.008h0l-.522.065-.031,0a.121.121,0,0,1-.131-.1.269.269,0,0,1,.145-.275l.083-.031a.384.384,0,0,1-.182-.3.139.139,0,0,1,.088-.122l.024-.009c.054-.021.107-.041.158-.059l.093-.034a.129.129,0,0,1,0-.076l-.348.044s0,0,0,0a.707.707,0,0,1,.2-.26l.012-.006.167-.051a.659.659,0,0,1,.207-.245c.586-.185,1.163-.362,1.775-.5a.192.192,0,0,1,.1-.072c.339-.081.706-.152,1.122-.217.03-.045.054-.066.08-.068a14.454,14.454,0,0,1,1.818-.115c.325,0,.654.011.98.033.194.018.37.037.538.059.375.042.711.092,1.029.152a14.091,14.091,0,0,1,2.5.673l.187.071c.223.083.422.163.607.243a8.545,8.545,0,0,1,.377-1.065c.021-.063.046-.126.076-.2l-.2-.123a.212.212,0,0,1-.157.124.07.07,0,0,1-.037-.01,25.038,25.038,0,0,0-4.649-2.477,23.9,23.9,0,0,0-2.81-1.038c-.424-.137-.884-.272-1.446-.427-.269-.057-.494-.1-.732-.144a21.112,21.112,0,0,0-3.862-.666c-.946-.09-1.933-.135-2.932-.135-.974,0-2,.043-3.038.128-1.288.128-2.593.308-3.879.537a20.048,20.048,0,0,0-2.564.624l.48.973a52.567,52.567,0,0,0,2.592,4.761,23.06,23.06,0,0,0,1.632,2.259,11.333,11.333,0,0,0,1.318,1.433c.11.134.236.274.4.442a7.666,7.666,0,0,0,1.427.978,9.809,9.809,0,0,0,1.3.8l.17.085,1.581.609c.077.022.167.047.255.071l.129.033.24.051.18-.1.092-.048a.057.057,0,0,1,.027-.007c.034,0,.06.037.07.071a.087.087,0,0,1-.013.057l.23-.125ZM82.2,33.661a.074.074,0,0,1,.044.014l.143.1a11.071,11.071,0,0,1,3.28,1.488l-.018-.132c0-.022-.007-.044-.01-.066.017-.259.021-.521.013-.778a17.161,17.161,0,0,0-1.313-4.347.127.127,0,0,1,.014-.1,13.94,13.94,0,0,0-.983-1.411c-.192.333-.375.632-.559.914a21.359,21.359,0,0,1-3.392,4.031h.028c.345,0,.674.015.98.043a11.819,11.819,0,0,1,1.685.284A.152.152,0,0,1,82.2,33.661Zm-11.171-.438a28.954,28.954,0,0,1,3.4.2,19.626,19.626,0,0,0,1.908-1.3c.175-.136.355-.28.55-.442a21.086,21.086,0,0,0,5.045-6.558,21.835,21.835,0,0,0,1.282-3.494,16.757,16.757,0,0,0,.479-3.312c.027-.2.044-.392.057-.558l0-.08,0-.039c-.022-.42-.066-.841-.105-1.2a12.534,12.534,0,0,0-1.311.313,10.62,10.62,0,0,0-2.37.645c-.922.328-1.874.72-3.088,1.27A25.468,25.468,0,0,0,71.36,22.07c-.11.084-.218.173-.313.251-.407.353-.765.691-1.093,1.032l-.386.42-.005.006c-.231.252-.471.512-.705.769-.165.173-.342.343-.513.507a9.452,9.452,0,0,0-.854.894,2.611,2.611,0,0,0-.219.332l.238.082a.231.231,0,0,1,.131.261c-.011.065-.049.134-.125.134a.142.142,0,0,1-.038-.005,1.994,1.994,0,0,1-.194-.068.234.234,0,0,1,.051.1.219.219,0,0,1-.05.163.132.132,0,0,1-.1.048.142.142,0,0,1-.039-.006,1.384,1.384,0,0,1-.171-.059.783.783,0,0,0-.029.194.16.16,0,0,0,.034.011.887.887,0,0,1,.438.414.173.173,0,0,1-.031.148.151.151,0,0,1-.119.061.16.16,0,0,1-.042-.006,1.629,1.629,0,0,1-.272-.106.31.31,0,0,1,.11.171.223.223,0,0,1-.057.159.139.139,0,0,1-.1.049.128.128,0,0,1-.033,0,1.457,1.457,0,0,1-.531-.264.18.18,0,0,1-.12.08l-.017,0-.082-.025c.023.021.043.043.063.065l.03.032a10.327,10.327,0,0,1,1.5,2.078.565.565,0,0,1,.072-.064c.169-.143.359-.3.582-.469l.059-.052.061-.052-.441.146.01-.011.03-.04a2.156,2.156,0,0,1,.143-.178l.011-.01a9.848,9.848,0,0,1,1.977-1.38,8.86,8.86,0,0,1,1.455-.763,29.9,29.9,0,0,1,3.717-1.39l.224-.074h0c.107-.035.228-.076.343-.112a.1.1,0,0,1,.033-.007.026.026,0,0,1,.021.008.049.049,0,0,1,0,.041l.1-.03a.149.149,0,0,1,.046-.007.418.418,0,0,1,.317.236.158.158,0,0,1,0,.173c.066.054.138.119.206.187l.045.045.05-.015a.141.141,0,0,1,.042-.006c.116,0,.292.122.524.362l.119.126c.052.056.175.188.151.285a.14.14,0,0,1-.1.092l-.272.093c.009.062-.022.1-.1.133-.1.033-.2.069-.28.1.054.048.109.1.166.152l.081.078.014.015c.076.077.2.207.186.306a.125.125,0,0,1-.078.088L77.2,28l-.259.093a.14.14,0,0,1,.009.112.157.157,0,0,1-.1.078,41.606,41.606,0,0,0-4.436,1.807,13.814,13.814,0,0,1-3.428,1.342.1.1,0,0,1-.03,0,.582.582,0,0,1-.373-.273l-.18.053-.09.025-.03.006a9.331,9.331,0,0,1,.485,1.887c.01.055.019.115.025.174.262-.021.493-.037.706-.049C70.007,33.236,70.52,33.222,71.028,33.222ZM68.191,30.6c-.058.02-.105.036-.15.049.028.062.054.122.084.194h0l.2-.157A.707.707,0,0,1,68.191,30.6ZM30.98,92.127a.745.745,0,0,1-.394-.139c-.122-.079-.247-.157-.382-.24l-.193-.117h0l0,0A26.573,26.573,0,0,0,23.967,88.9c-.012,0-.016-.021-.011-.048a3.494,3.494,0,0,1,.513-.876c.311-.422.573-.674.7-.674a.089.089,0,0,1,.026,0c-.016-.007-.024-.013-.023-.021a2.763,2.763,0,0,1,.725-.15c.044,0,1.993.733,2.963,1.207l.048.024A15.841,15.841,0,0,1,31.384,89.9l.194.138c.032.023.137.106.137.194a4.5,4.5,0,0,1-.157,1.271C31.429,91.918,31.235,92.127,30.98,92.127ZM83.344,13.451h0a1.77,1.77,0,0,1,.595-.131.633.633,0,0,1,.264.051C83.934,13.39,83.653,13.417,83.344,13.451Z" transform="translate(-6.325 -13.949)"/>
  </g>
  <g id="FACE" transform="translate(112.183 77.354)">
    <path id="_Ink-3" data-name="ðŸ– Ink" d="M22.824,40.539a8.045,8.045,0,0,1-3.052-.61,8.621,8.621,0,0,1-1.992-1.145,8.487,8.487,0,0,1-1.622-1.636,1.676,1.676,0,0,1-.338-1.3,1.871,1.871,0,0,1,.728-1.172,1.793,1.793,0,0,1,1.067-.372,1.548,1.548,0,0,1,.238.018,1.648,1.648,0,0,1,1.1.73l.065.09A5.7,5.7,0,0,0,21.108,36.9a4.735,4.735,0,0,0,2.069.483,4.583,4.583,0,0,0,.513-.029,5.388,5.388,0,0,0,2.278-.8,10.668,10.668,0,0,0,1.93-1.611c.138-.141.284-.294.474-.5a.751.751,0,0,1,.394-.3.806.806,0,0,1,.256-.041.871.871,0,0,1,.714.373.8.8,0,0,1,.135.524,4.812,4.812,0,0,1-.57,1.864,6.221,6.221,0,0,1-1.22,1.567,7.841,7.841,0,0,1-1.847,1.288,7.69,7.69,0,0,1-2.05.7A7.548,7.548,0,0,1,22.824,40.539Zm2.148-12.17h0a7.373,7.373,0,0,1-2.63-.53,13.281,13.281,0,0,1-3.093-1.756,1.189,1.189,0,0,1-.432-.687,1.423,1.423,0,0,1,.061-.771,1.754,1.754,0,0,1,.521-.753,1.267,1.267,0,0,1,.812-.317,1.151,1.151,0,0,1,.628.193l.209.161,0,0a16.744,16.744,0,0,0,1.936,1.347,4.768,4.768,0,0,0,2.321.74,2.505,2.505,0,0,0,.981-.193,2.74,2.74,0,0,0,.913-.647,2.8,2.8,0,0,0,.531-2.255,4.26,4.26,0,0,0-1.13-2,8.241,8.241,0,0,0-1.711-1.381.531.531,0,0,1-.144-.61.8.8,0,0,1,.264-.38.809.809,0,0,1,.505-.167,1.076,1.076,0,0,1,.181.016,5.736,5.736,0,0,1,2.018.729,4.577,4.577,0,0,1,1.357,1.252,4.974,4.974,0,0,1,.866,3.322,5.475,5.475,0,0,1-.444,1.744,5.087,5.087,0,0,1-1,1.5A4.779,4.779,0,0,1,24.972,28.369ZM7.859,16.485a1.724,1.724,0,0,1-1.119-.439,1.744,1.744,0,0,1-.587-1.128,12.706,12.706,0,0,1,.067-3.308c.04-.321.081-.654.11-1.012a1.98,1.98,0,0,1,.75-1.415,2.31,2.31,0,0,1,1.421-.5,1.751,1.751,0,0,1,1.075.338,1.594,1.594,0,0,1,.594,1.057,8.877,8.877,0,0,1-.926,5.469,1.754,1.754,0,0,1-.619.716A1.427,1.427,0,0,1,7.859,16.485Zm25.119-.75a1.508,1.508,0,0,1-1.183-.507A4.624,4.624,0,0,1,31.074,14a5.342,5.342,0,0,1-.368-1.477,3.131,3.131,0,0,1,.853-2.687,1.772,1.772,0,0,1,.137-.208,1.933,1.933,0,0,1,1.487-.856,1.611,1.611,0,0,1,.452.067,2.175,2.175,0,0,1,1.453,1.268,4.486,4.486,0,0,1,.18,2.453,8.214,8.214,0,0,1-.744,2.314,1.5,1.5,0,0,1-.643.635A1.947,1.947,0,0,1,32.979,15.735ZM.278,7.854a.274.274,0,0,1-.229-.14.306.306,0,0,1-.018-.3A10.425,10.425,0,0,1,2.368,4.454,14.446,14.446,0,0,1,5.5,2.317a13.445,13.445,0,0,1,3.714-1.3l.4-.069A9.66,9.66,0,0,1,11.226.776a2.5,2.5,0,0,1,2,.746,1.7,1.7,0,0,1,.4,1.208,1.106,1.106,0,0,1-.4.789,3.08,3.08,0,0,1-2.112.62c-.166,0-.338,0-.5-.008H10.6c-.16,0-.341-.009-.521-.009s-.314,0-.452.012a14.274,14.274,0,0,0-3.143.536A21.357,21.357,0,0,0,.424,7.806.26.26,0,0,1,.278,7.854Zm38.247-1.6h0l-.167-.042A9.458,9.458,0,0,1,36.524,5.5l-.6-.293A16.537,16.537,0,0,0,33.8,4.3a25.089,25.089,0,0,0-4.845-1.07,1.979,1.979,0,0,1-.972-.369,1.457,1.457,0,0,1-.544-.828A1.482,1.482,0,0,1,27.609.786a1.581,1.581,0,0,1,.767-.661A1.725,1.725,0,0,1,29.03,0a1.926,1.926,0,0,1,.377.038l.3.062a21.676,21.676,0,0,1,5.232,1.7,10.579,10.579,0,0,1,2.3,1.514,6.719,6.719,0,0,1,1.627,2.1c.057.439,0,.548-.055.622L38.8,6.06l-.015.02a.421.421,0,0,1-.26.173Z" transform="translate(11.197 10.99)"/>
  </g>
  <g id="FACIAL_HAIR" data-name="FACIAL HAIR" transform="translate(104.577 109.479)">
    <path id="_Ink-4" data-name="ðŸ– Ink" d="M40.717,48.435h0a26.413,26.413,0,0,1-4.539-.419,39.009,39.009,0,0,1-9.31-2.961,74.446,74.446,0,0,1-9.9-3.83c-1.645-.769-3.389-1.6-5.033-2.558a22.141,22.141,0,0,1-4.515-3.355,13.818,13.818,0,0,1-1.685-2.039,17.077,17.077,0,0,1-1.3-2.29,26.419,26.419,0,0,1-1.716-5c-.127-.513-.249-1.041-.361-1.57a5.735,5.735,0,0,1-.272-.915c-.229-1.059-.44-2.14-.627-3.213-.372-2.11-.674-4.266-.9-6.408S.189,9.541.125,7.347C.114,6.975.092,6.592.069,6.185.025,5.422-.02,4.632.009,3.859A6.955,6.955,0,0,1,.4,1.66,2.418,2.418,0,0,1,2.533,0h.059A2.25,2.25,0,0,1,4.048.569c.6.5,2.139,3.671,3.773,7.024a72.6,72.6,0,0,0,4.01,7.619,47.006,47.006,0,0,0,6.308,7.042c.038.022.078.047.118.074a16.972,16.972,0,0,0,8.33-4.81c.672-.71,1.313-1.47,1.933-2.205a25.493,25.493,0,0,1,4.187-4.237,9.592,9.592,0,0,1,1.9-1.1,8.175,8.175,0,0,1,2.112-.594,8.7,8.7,0,0,1,1.185-.075c.691,0,1.392.066,2.07.129h0c.678.063,1.38.129,2.072.129.226,0,.437-.007.644-.02.339-.022.679-.053,1.007-.082.63-.057,1.224-.11,1.826-.11a6.119,6.119,0,0,1,2.6.506,12.627,12.627,0,0,1,3.724,2.993l.1.1a19.521,19.521,0,0,0,2.547,2.231,17.157,17.157,0,0,0,2.858,1.689h.025a.929.929,0,0,1,.739.333c.107.043.217.087.337.132a10.672,10.672,0,0,1,1.6-1.29c.223-.16.415-.3.512-.378a1.2,1.2,0,0,1,.768-.266,1.1,1.1,0,0,1,.8.32.9.9,0,0,1,.231.693l-.408,6.34c-.04.622-.542,4.582-.721,5.954-.144,1.109-.334,2.179-.563,3.18a26.672,26.672,0,0,1-.895,3.075,21.844,21.844,0,0,1-1.291,2.914,19.047,19.047,0,0,1-1.75,2.7,16.117,16.117,0,0,1-5.33,4.4,18.58,18.58,0,0,1-4.661,2.473,16.265,16.265,0,0,1-2.974.754A19.734,19.734,0,0,1,40.717,48.435ZM44.858,19.9a22.512,22.512,0,0,0-6.2,1c-1.76.505-3.5,1.158-5.188,1.789-1.81.678-3.681,1.379-5.579,1.9a30.765,30.765,0,0,1-3.859.837c.2.239.408.505.626.812a42.78,42.78,0,0,0,5.816,2.759c.287.107.568.211.854.311.435-.121.887-.27,1.382-.455.859-.407,1.7-.916,2.518-1.409a22.508,22.508,0,0,1,3.1-1.662,13.669,13.669,0,0,1,2.585-.754,14.473,14.473,0,0,1,2.667-.246,15.366,15.366,0,0,1,6.864,1.634l.447.167c.568.213,1.156.434,1.742.626a14.558,14.558,0,0,0,1.437.4,13.282,13.282,0,0,0,2.455-3.995,8.218,8.218,0,0,1-2.747-.746c-.682-.295-1.347-.657-1.99-1.007A18.734,18.734,0,0,0,49.156,20.6a11.892,11.892,0,0,0-2.129-.538A13.966,13.966,0,0,0,44.858,19.9Z" transform="translate(-0.211 -3.593)"/>
  </g>
</svg>
