<svg id="peep-29" xmlns="http://www.w3.org/2000/svg" width="240" height="324" viewBox="0 0 240 324">
  <g id="BODY" transform="translate(31.056 135.053)">
    <path id="_Skin" data-name="âœ‹ Skin" d="M152.022,152.978h0c-1.055,0-2.122-.051-3.154-.1-.7-.033-1.364-.065-1.993-.079-4.036-.54-8.154-.924-12.591-1.172-3.969-.222-8.1-.331-12.613-.331-8.868,0-17.891.43-26.616.845h-.007c-2.951.141-6,.286-9,.412-2.1.138-4.255.205-6.587.205-5.787,0-11.654-.43-17.328-.845h-.006c-5.67-.415-11.532-.845-17.306-.845-2.588,0-4.969.083-7.279.255a153.721,153.721,0,0,1-16.631,1.207,62.7,62.7,0,0,1-7.441-.414c-1.1-.175-2.253-.284-3.366-.39h0c-1.316-.125-2.676-.253-3.983-.492a14.854,14.854,0,0,1-3.781-1.165,4.55,4.55,0,0,1-1.663-1.625A5,5,0,0,1,.043,146.4a16.86,16.86,0,0,1,.43-4.645,26.553,26.553,0,0,0,.4-2.68c.858-4.141,1.633-8.86,2.369-14.425.659-4.978,1.233-10.213,1.789-15.276h0c1.481-13.5,3.013-27.455,6.424-40.3.882-3.32,1.871-6.487,2.941-9.411a83.091,83.091,0,0,1,3.819-8.868,67.042,67.042,0,0,1,4.871-8.186,58.338,58.338,0,0,1,6.094-7.365A58.671,58.671,0,0,1,35.837,30.3a39.233,39.233,0,0,1,6.242-3.2c4.267-1.722,8.842-2.725,14.839-3.954a47.22,47.22,0,0,0,5.871-1.673c2.03-.712,4.692-1.8,5.848-2.909a26,26,0,0,0,2.955-3.794l.108-.157A28.974,28.974,0,0,0,74,10.084a31.7,31.7,0,0,1,2.053-4.141,12.005,12.005,0,0,1,1.373-1.815,9.369,9.369,0,0,1,1.79-1.512A24.351,24.351,0,0,1,90.591,0a21.691,21.691,0,0,1,5.5.656,11.6,11.6,0,0,1,4.422,2.115,11.317,11.317,0,0,1,2.062,2.389,14.162,14.162,0,0,1,1.356,2.724,38.1,38.1,0,0,1,1.54,6.031c.291,1.466.592,2.981,1.007,4.429a17.619,17.619,0,0,0,1.717,4.149,19.081,19.081,0,0,0,6.887,4.186,91.441,91.441,0,0,0,8.732,2.81c2.218.633,4.312,1.231,6.019,1.867,1.232.515,5.893,4.359,7.163,5.519a17.457,17.457,0,0,1,2.151,2.566,24.523,24.523,0,0,1,1.8,3.075,42.266,42.266,0,0,1,2.719,7.316A146.487,146.487,0,0,1,146.952,66.6c.728,4.655,1.416,9.052,2.365,12.686,2.2,12.746,3.933,23.29,5.451,33.183,1.84,11.994,3.341,22.89,4.587,33.311a8.812,8.812,0,0,1,.243,3.1,3.923,3.923,0,0,1-2.055,3.1,6.6,6.6,0,0,1-1.607.618A16,16,0,0,1,152.022,152.978ZM4.889,145.707c-.051.01-.1.036-.1.06s.023.036.151.036H4.98l-.055-.057Z" transform="translate(6.972 -7.609)" fill="#d08b5b"/>
    <path id="_Ink" data-name="ðŸ– Ink" d="M161.061,150.76a2.447,2.447,0,0,1-1.619-.573,2.512,2.512,0,0,1-.8-1.767,1.66,1.66,0,0,1,.49-1.365l0-.05c0-.024-.005-.043-.007-.054v-.008c-.074-.4-.112-.82-.149-1.226-.018-.2-.036-.4-.058-.6-.1-.882-.2-1.774-.3-2.637l-.012-.1q-.063-.552-.125-1.105c-.267-2.319-.555-4.812-.858-7.327-.6-5-1.234-9.992-1.886-14.839l-.659-4.886c-.991-7.319-2.177-15.944-3.458-24.411-1.356-8.967-2.688-16.921-4.072-24.314-.808-4.311-1.662-8.745-2.539-13.18-.5-2.5-.913-4.412-1.356-6.209-.553-2.244-1.134-4.239-1.775-6.1a39.887,39.887,0,0,0-4.631-9.344,33.575,33.575,0,0,0-7.046-7.655c.049.476.091.961.131,1.429v0c.029.34.06.692.093,1.038.208,2.189.434,4.415.63,6.33.436,4.249.908,7.99,1.444,11.436.634,4.077,1.358,7.776,2.215,11.309a96.109,96.109,0,0,0,3.325,10.927c.674,1.8,1.4,3.553,2.159,5.2.22.476.481.952.758,1.456a9.426,9.426,0,0,1,1.465,3.906,1.414,1.414,0,0,1-.422,1.034,1.64,1.64,0,0,1-1.15.521,1.269,1.269,0,0,1-.14-.008c.36,3.173.579,6.414.791,9.547l.058.853c.121,1.767.235,3.565.346,5.3v.026c.2,3.169.409,6.446.667,9.663.749,9.386,1.709,18.811,2.548,26.793.162,1.545.34,3.115.512,4.633v0l0,.036.071.63.167,1.484.015.129,0,.021a4.516,4.516,0,0,1-.245,2.818,14.619,14.619,0,0,1,.951,3.411,3.134,3.134,0,0,1-.056,1.24,2.647,2.647,0,0,1-.539,1.072,2.08,2.08,0,0,1-1.63.737l-.1,0c-.172-.006-.357-.02-.583-.044a21.857,21.857,0,0,1-4.817.7c-.291,0-.6,0-.92,0-1.116,0-2.251-.013-3.349-.025-.668-.008-1.359-.015-2.047-.02h-.026c-3.752-.025-8-.054-12.187-.088-5-.04-10.075-.066-14.987-.092h-.02c-9.574-.049-19.474-.1-29.211-.257l-5.9-.094c-4.915-.079-10.626-.18-16.213-.384-4.148-.151-7.633-.28-11.159-.423l-.757-.029-1.122-.039h-.021a73.242,73.242,0,0,1-8.667-.643.118.118,0,0,1-.078-.049.168.168,0,0,1-.026-.123l0-.02-.142-.032a.067.067,0,0,1-.073.053,1.868,1.868,0,0,1-.815-.574,4.276,4.276,0,0,1-.617-.783,1.633,1.633,0,0,1-.275-.824,4.033,4.033,0,0,1-.36-2.865c.023-.213.044-.414.058-.6.048-.671.1-1.351.158-2.01l0-.022c.03-.359.06-.731.089-1.1.081-1.025.157-2.068.232-3.076v-.014c.086-1.176.176-2.393.272-3.588.833-10.318,1.391-18.886,1.756-26.964.169-3.735.313-7.533.452-11.206v0q.045-1.2.091-2.394c.1-2.51.215-4.417.389-6.184l.053-.513c.053-.5.093-1.015.131-1.516v0a16.635,16.635,0,0,1,.836-4.769.03.03,0,0,1,.057,0,18.131,18.131,0,0,1,.955,5.521c.016.233.033.473.05.707.02-.006.04-.01.061-.014l.023,0c.231-.11.466-.219.694-.325a23.019,23.019,0,0,0,2.473-1.273c.09-.055.18-.114.267-.17h0l.138-.089c1.006-3.079,2.131-6.176,3.219-9.172.638-1.755,1.3-3.57,1.925-5.363,1.359-3.879,2.591-7.895,3.661-11.937,1.057-3.992,1.982-8.1,2.748-12.214A174.735,174.735,0,0,0,53.488,16.2a106.571,106.571,0,0,1-10.282,5.6c-.956.476-1.944.969-2.912,1.461l-.416.212a50.78,50.78,0,0,0-6.306,3.711,25.865,25.865,0,0,0-5.362,4.942,31.509,31.509,0,0,0-3.467,5.509c-.982,1.932-1.826,3.917-2.676,5.951C20.378,47.628,18.744,52,17.211,56.568c-1.447,4.315-2.787,8.849-3.985,13.475-1.137,4.391-2.18,9-3.1,13.708C9.254,88.2,8.482,92.8,7.83,97.415c-.632,4.476-1.171,9.106-1.6,13.762-.474,5.136-.853,9.749-1.16,14.1-.155,2.18-.3,4.519-.458,7.152-.027.47-.052.94-.076,1.4-.036.682-.073,1.387-.118,2.081-.007.1-.013.2-.019.3v.006a6.282,6.282,0,0,1-.255,1.68,5.436,5.436,0,0,1-.667,1.216l-.146.222a1.525,1.525,0,0,1-.576.515,1.606,1.606,0,0,1-.737.183,1.272,1.272,0,0,1-1.167-.7L.623,138.9a4.646,4.646,0,0,1-.613-1.834,10.916,10.916,0,0,1,.042-1.428c.012-.166.025-.337.034-.5.072-1.326.156-2.674.23-3.863.175-2.8.366-5.531.568-8.12.428-5.521.981-10.977,1.641-16.217.645-5.1,1.308-9.741,2.027-14.177.808-4.986,1.665-9.587,2.62-14.068C8.2,73.873,9.347,69.2,10.581,64.8c1.323-4.711,2.8-9.3,4.391-13.634.839-2.286,1.711-4.516,2.593-6.627.938-2.244,1.917-4.429,2.91-6.494a38.621,38.621,0,0,1,3.449-5.912A26.555,26.555,0,0,1,26.088,29.5a22.3,22.3,0,0,1,2.532-2.315,34.7,34.7,0,0,1,5.373-3.376c1.851-.962,3.782-1.821,5.763-2.689l.484-.212c.749-.327,1.5-.662,2.234-.986a103.074,103.074,0,0,1,10.987-4.372,1.488,1.488,0,0,0-.287.055.1.1,0,0,1-.03,0,.09.09,0,0,1-.082-.057.107.107,0,0,1,.015-.115,3.091,3.091,0,0,0,.283-.381,2.581,2.581,0,0,1,.379-.479c.192-.182.4-.364.636-.555l.315-.251a4.943,4.943,0,0,1,1.906-1.084,1.411,1.411,0,0,1,.3-.034.975.975,0,0,1,.834.425,1.139,1.139,0,0,1,.107,1.046.323.323,0,0,1,.262-.114.412.412,0,0,1,.387.243c1.124,2.9,2.137,5.908,3.116,8.816s1.991,5.915,3.116,8.819a69.248,69.248,0,0,0,3.892,8.492c3.8,6.885,8.446,12.048,13.813,15.346a28.542,28.542,0,0,0,5.112,2.51,19.874,19.874,0,0,0,5.549,1.212c.337.021.678.032,1.014.032a15.907,15.907,0,0,0,4.439-.632,16.718,16.718,0,0,0,4.114-1.837,22.227,22.227,0,0,0,3.854-3.041,29.254,29.254,0,0,0,3.209-3.759,47.368,47.368,0,0,0,4.816-8.62,84.9,84.9,0,0,0,3.687-10,88.81,88.81,0,0,0,2.437-10.387h-.169A13.93,13.93,0,0,1,114.9,20a13.612,13.612,0,0,1-4.631-3.313,12.757,12.757,0,0,1-2.835-5.254,8.545,8.545,0,0,1-.283-2.751,10.1,10.1,0,0,1,.587-2.687.109.109,0,0,1,.1-.071.085.085,0,0,1,.087.071,26.221,26.221,0,0,0,1.625,4.726,13.442,13.442,0,0,0,2.689,3.992,11.471,11.471,0,0,0,4.027,2.667,13.051,13.051,0,0,0,4.759.856l.08,0c.01-.07.02-.141.03-.21v0l.018-.125.023-.169a2.112,2.112,0,0,1,.665-1.347,1.777,1.777,0,0,1,1.172-.432,1.889,1.889,0,0,1,1.064.329,1.772,1.772,0,0,1,.691.949c.3.1.557.177.815.264l.054.02c.1.038.255.106.434.184a6.525,6.525,0,0,0,1.7.587.251.251,0,0,0,.146-.034.855.855,0,0,1,.506-.17,1.266,1.266,0,0,1,1.066.809,9.543,9.543,0,0,1,.512,2.55c.021.2.042.38.065.565l.017.132.019.159a19.264,19.264,0,0,1,10.509,7.437,33,33,0,0,1,3.416,5.7,45.9,45.9,0,0,1,2.372,6.117,130.653,130.653,0,0,1,3.116,13.235l.049.245c.569,2.856,1.12,5.764,1.653,8.576v.013c.369,1.947.751,3.961,1.135,5.939,2.145,11.039,3.775,20.156,5.13,28.693l.442,2.786c1.559,9.859,2.819,18.139,3.9,26.5.564,4.366,1.137,9.06,1.753,14.349.1.842.2,1.7.3,2.562l.147,1.282c.014.121.029.243.043.361v0a9.965,9.965,0,0,1,.108,1.523,3.331,3.331,0,0,1-.367,1.476,3.142,3.142,0,0,1-2.751,1.668ZM61.47,15.637a3.971,3.971,0,0,1-2.181-.521.1.1,0,0,1-.048-.084.1.1,0,0,1,.048-.087,5.14,5.14,0,0,1,1.83-.664h0c.24-.054.487-.111.719-.177a22.824,22.824,0,0,0,2.713-.941,21.413,21.413,0,0,0,4.861-2.9A20.964,20.964,0,0,0,71.55,8.336a13.647,13.647,0,0,0,1.768-2.262,26.56,26.56,0,0,0,1.331-2.521,12.194,12.194,0,0,0,.466-1.178A9.572,9.572,0,0,1,75.73.908,1.742,1.742,0,0,1,76.418.23,1.918,1.918,0,0,1,77.335,0a1.964,1.964,0,0,1,.734.141,1.669,1.669,0,0,1,.943.9,2.416,2.416,0,0,1,.141,1.31A9.5,9.5,0,0,1,77.843,5.4l-.081.141A16.707,16.707,0,0,1,75.714,8.3a23.587,23.587,0,0,1-4.741,4.238,18.751,18.751,0,0,1-5.907,2.551l-.5.116A14.535,14.535,0,0,1,61.47,15.637Z" transform="translate(4.648 0.423)"/>
  </g>
  <g id="HEAD" transform="translate(78.592 38.043)">
    <path id="_Skin-2" data-name="âœ‹ Skin" d="M72.763,19.051c.23-2.14-2.269-7.849-2.209-6.691C66.549,6.167,58.731,3.732,51.986,1.688c-14.319-4.739-25.5.984-35.562,11.128C10.484,18.378,4.833,24.591,1.851,32.291c-5.866,14.688,2.927,31.437,16.3,38.454a36.044,36.044,0,0,1,3.282,1.848c5.527,3.2,12.018,4.309,18.177,5.7,11.523,2.64,25.994,1.382,32.785-9.616C77,60.874,75.775,51.412,75.414,42.75,74.873,35.161,73.922,26.584,72.763,19.051Z" transform="translate(10.33 25.151)" fill="#d08b5b"/>
    <path id="_Ink-2" data-name="ðŸ– Ink" d="M7.229,108.38a7.8,7.8,0,0,1-4.323-1.258A6.662,6.662,0,0,1,1.437,105.8a6.355,6.355,0,0,1-.986-1.65A6.079,6.079,0,0,1,.2,100.313,8.069,8.069,0,0,1,1.98,97.086a21.823,21.823,0,0,1,2.708-2.552l.369-.3.232-.189.044-.036c.861-.7,1.752-1.431,2.548-2.219a11.9,11.9,0,0,0,2.076-2.661A13.674,13.674,0,0,0,11.3,85.517a21.845,21.845,0,0,0,.5-3.833,67.473,67.473,0,0,0-.639-10.769c-.224-1.98-.456-4.026-.581-6.042-.179-2.891-.218-5.812-.115-8.68.1-2.893.354-5.8.743-8.649A68.381,68.381,0,0,1,15.464,31.23a53.922,53.922,0,0,1,8.57-14.47A44.735,44.735,0,0,1,27.4,13.166,26.847,26.847,0,0,1,30.358,9.86a33.421,33.421,0,0,1,5.7-4.272A38.294,38.294,0,0,1,42.563,2.5,41.453,41.453,0,0,1,56.67,0c.76,0,1.526.022,2.275.066A41.906,41.906,0,0,1,74.612,4.118a27.776,27.776,0,0,1,4.437,2.617c.962.45,1.883.93,2.738,1.427A25.208,25.208,0,0,1,91.856,19.279,29.487,29.487,0,0,1,94.2,26.224l.075.4c.032.162.068.329.106.505a12.151,12.151,0,0,1,.288,1.762,3.072,3.072,0,0,1-.281,1.655A2.189,2.189,0,0,1,92.519,31.7c-.048,0-.1,0-.143-.006.053.215.11.434.165.645v0c.123.47.25.956.34,1.437l.356,1.9c.07.378.124.671.175.951.4,2.2.691,4.008.913,5.681.536,4.02,1.017,8.03,1.429,11.918.266,2.5.539,5.219.86,8.544l.164,1.709a55.621,55.621,0,0,1,.312,8.864,23.265,23.265,0,0,1-1.263,6.311A18.782,18.782,0,0,1,92.8,85.117a7.542,7.542,0,0,1,.363,1.324v0c.049.231.1.47.162.717.285,1.134.666,2.24.967,3.077l.043.1.008.018c.151.353.306.717.458,1.077l.443,1.057.346.693a14.45,14.45,0,0,1,.967,2.3,5.892,5.892,0,0,1,1.921,1.573,3.95,3.95,0,0,1,.848,2.312,4.9,4.9,0,0,1-.548,2.368,4.336,4.336,0,0,1-1.645,1.775,3.5,3.5,0,0,1-1.787.486,5.66,5.66,0,0,1-2.37-.614,6.652,6.652,0,0,1-1.863.273,5.637,5.637,0,0,1-1.694-.253,6.01,6.01,0,0,1-1.505,1,5.879,5.879,0,0,1-1.791.509,7.66,7.66,0,0,1-.9.053,9.413,9.413,0,0,1-2.327-.311,17.419,17.419,0,0,1-2.246-.756l-.122-.049c-.048-.019-.1-.04-.162-.068a8.378,8.378,0,0,1-5.452-2.312,6.856,6.856,0,0,1-1.193-1.57,7.841,7.841,0,0,1-.978-3.446,6.9,6.9,0,0,1,.152-1.765,6.307,6.307,0,0,1,.623-1.669c-.218.009-.489.021-.748.027-.624.018-1.277.027-1.939.027-2.786,0-5.612-.162-8.01-.32l-.78-.053a11.387,11.387,0,0,1-3.46-.65,3.376,3.376,0,0,1-1.337-.932,2.537,2.537,0,0,1-.562-1.6.493.493,0,0,1,.144-.358A.541.541,0,0,1,57.213,89a.49.49,0,0,1,.134.019c.433.122.87.272,1.294.418h0a14.04,14.04,0,0,0,2.377.662,36.678,36.678,0,0,0,3.886.32c.372.017.756.035,1.136.056l.479.027c1.342.074,2.786.142,4.259.142a29.679,29.679,0,0,0,5.884-.513,30.487,30.487,0,0,0,7.3-2.522,20.233,20.233,0,0,0,3.083-1.878,16.6,16.6,0,0,0,2.648-2.45,13.557,13.557,0,0,0,2.094-3.314,17.964,17.964,0,0,0,1.18-3.726,26.647,26.647,0,0,0,.492-3.928c.067-1.195.076-2.476.028-3.918-.128-3.8-.458-7.657-.778-11.388v0c-.2-2.278-.4-4.633-.55-6.949l-.183-2.745c-.169-2.558-.292-4.7-.346-6.871-.033-1.314-.023-2.65-.014-3.943,0-.332.005-.708.007-1.077,0-.28,0-.572,0-.829v0c0-.55,0-1.119.012-1.677.008-.354.041-.707.074-1.048.01-.1.021-.224.031-.339a1.773,1.773,0,0,1-.514-.412,1.727,1.727,0,0,1-.283-.444,2.74,2.74,0,0,1-1.661-1.232A13.112,13.112,0,0,0,87.842,27.8a18.321,18.321,0,0,0-3.715-2.727,31.024,31.024,0,0,0-4.32-2.028c-1.331-.513-2.815-1-4.536-1.491-2.933-.834-5.986-1.424-8.939-1.995-1.759-.34-3.578-.691-5.353-1.091-1.28,1.789-2.675,3.58-4.147,5.324A90.588,90.588,0,0,1,49.581,31.4c-2.477,2.321-5.178,4.6-8.027,6.788-1.228.942-2.354,1.778-3.442,2.555-1.638,2.5-3.16,4.79-4.654,6.991l-.675.992-.01.019c-.092.14-.18.281-.27.425a9.44,9.44,0,0,1-.622.871c-.144.212-.293.427-.443.64a3.569,3.569,0,0,1,.753.52.92.92,0,0,1,.287.71,1.176,1.176,0,0,1-.287.715,1.287,1.287,0,0,1-1.02.481,4.712,4.712,0,0,1-2.037-.771A7.889,7.889,0,0,0,28,51.785a3.28,3.28,0,0,0-1,.527,5.588,5.588,0,0,0-.879.839,8.706,8.706,0,0,0-1.265,2,10.785,10.785,0,0,0-.851,2.963,9.556,9.556,0,0,0,.058,3.077,7.142,7.142,0,0,0,.962,2.5,6,6,0,0,0,1.865,1.874h0c.056.034.113.069.17.1l0,0,0,0c.05.032.1.064.162.1a5.637,5.637,0,0,0,2.355.7c.2.014.4.018.6.022a8.386,8.386,0,0,1,.841.044,3.624,3.624,0,0,1,.822.226,5.545,5.545,0,0,0,.534.173.9.9,0,0,1,.6.57.78.78,0,0,1-.072.726l-.017.025c-.155.223-.3.433-.457.622a18.053,18.053,0,0,1,1.417,1.987A26.465,26.465,0,0,1,35.4,73.7c.415.547.819,1.112,1.233,1.727a37.55,37.55,0,0,1,2.956,5.261,36.623,36.623,0,0,1,2.064,5.672c1.31,4.811,1.549,8.761.731,12.075a10.743,10.743,0,0,1-.983,2.554,8.949,8.949,0,0,1-1.581,2.118,7.445,7.445,0,0,1-2.137,1.478,7.248,7.248,0,0,1-2.649.634c-.123.006-.248.009-.372.009a7.417,7.417,0,0,1-1.968-.264,10.331,10.331,0,0,1-2.668,1.147,12.071,12.071,0,0,1-2.8.433c-.1,0-.2,0-.293,0a7.973,7.973,0,0,1-2.088-.266,5.615,5.615,0,0,1-1.888-.889,12.983,12.983,0,0,1-4.3,1.051c-.135.008-.273.012-.409.012a7.235,7.235,0,0,1-2.038-.295,6.773,6.773,0,0,1-1.843-.848,13.933,13.933,0,0,1-3.844,2.42A8.852,8.852,0,0,1,7.229,108.38ZM127.407,74.063a.166.166,0,0,1-.1-.031l-.017-.015-.184-.184a.188.188,0,0,1-.046-.076.341.341,0,0,1-.01-.076v-.02a.1.1,0,0,1,.031-.074.112.112,0,0,1,.079-.036.347.347,0,0,1,.114.019.217.217,0,0,1,.063.044l.177.178a.159.159,0,0,1,0,.224A.143.143,0,0,1,127.407,74.063ZM31.835,60.894a1.3,1.3,0,0,1-1.025-.444c-.176-.212-.34-.444-.512-.689a4.654,4.654,0,0,0-1.45-1.518,2.263,2.263,0,0,0-1.054-.279,1.42,1.42,0,0,0-.869.268,1.339,1.339,0,0,0-.494.867.145.145,0,0,1-.149.128.2.2,0,0,1-.2-.177,2.476,2.476,0,0,1,.619-1.722,3.318,3.318,0,0,1,1.548-1.045,2.866,2.866,0,0,1,.834-.12,4.448,4.448,0,0,1,2.184.653,6.048,6.048,0,0,1,1.708,1.465,1.953,1.953,0,0,1,.433,1.088,1.388,1.388,0,0,1-.433,1.08A1.657,1.657,0,0,1,31.835,60.894Z" transform="translate(-8.855 12.681)"/>
  </g>
  <g id="FACE" transform="translate(112.183 77.354)">
    <path id="_Ink-3" data-name="ðŸ– Ink" d="M22.824,40.539a8.045,8.045,0,0,1-3.052-.61,8.621,8.621,0,0,1-1.992-1.145,8.487,8.487,0,0,1-1.622-1.636,1.676,1.676,0,0,1-.338-1.3,1.871,1.871,0,0,1,.728-1.172,1.793,1.793,0,0,1,1.067-.372,1.548,1.548,0,0,1,.238.018,1.648,1.648,0,0,1,1.1.73l.065.09A5.7,5.7,0,0,0,21.108,36.9a4.735,4.735,0,0,0,2.069.483,4.583,4.583,0,0,0,.513-.029,5.388,5.388,0,0,0,2.278-.8,10.668,10.668,0,0,0,1.93-1.611c.138-.141.284-.294.474-.5a.751.751,0,0,1,.394-.3.806.806,0,0,1,.256-.041.871.871,0,0,1,.714.373.8.8,0,0,1,.135.524,4.812,4.812,0,0,1-.57,1.864,6.221,6.221,0,0,1-1.22,1.567,7.841,7.841,0,0,1-1.847,1.288,7.69,7.69,0,0,1-2.05.7A7.548,7.548,0,0,1,22.824,40.539Zm2.148-12.17h0a7.373,7.373,0,0,1-2.63-.53,13.281,13.281,0,0,1-3.093-1.756,1.189,1.189,0,0,1-.432-.687,1.423,1.423,0,0,1,.061-.771,1.754,1.754,0,0,1,.521-.753,1.267,1.267,0,0,1,.812-.317,1.151,1.151,0,0,1,.628.193l.209.161,0,0a16.744,16.744,0,0,0,1.936,1.347,4.768,4.768,0,0,0,2.321.74,2.505,2.505,0,0,0,.981-.193,2.74,2.74,0,0,0,.913-.647,2.8,2.8,0,0,0,.531-2.255,4.26,4.26,0,0,0-1.13-2,8.241,8.241,0,0,0-1.711-1.381.531.531,0,0,1-.144-.61.8.8,0,0,1,.264-.38.809.809,0,0,1,.505-.167,1.076,1.076,0,0,1,.181.016,5.736,5.736,0,0,1,2.018.729,4.577,4.577,0,0,1,1.357,1.252,4.974,4.974,0,0,1,.866,3.322,5.475,5.475,0,0,1-.444,1.744,5.087,5.087,0,0,1-1,1.5A4.779,4.779,0,0,1,24.972,28.369ZM7.859,16.485a1.724,1.724,0,0,1-1.119-.439,1.744,1.744,0,0,1-.587-1.128,12.706,12.706,0,0,1,.067-3.308c.04-.321.081-.654.11-1.012a1.98,1.98,0,0,1,.75-1.415,2.31,2.31,0,0,1,1.421-.5,1.751,1.751,0,0,1,1.075.338,1.594,1.594,0,0,1,.594,1.057,8.877,8.877,0,0,1-.926,5.469,1.754,1.754,0,0,1-.619.716A1.427,1.427,0,0,1,7.859,16.485Zm25.119-.75a1.508,1.508,0,0,1-1.183-.507A4.624,4.624,0,0,1,31.074,14a5.342,5.342,0,0,1-.368-1.477,3.131,3.131,0,0,1,.853-2.687,1.772,1.772,0,0,1,.137-.208,1.933,1.933,0,0,1,1.487-.856,1.611,1.611,0,0,1,.452.067,2.175,2.175,0,0,1,1.453,1.268,4.486,4.486,0,0,1,.18,2.453,8.214,8.214,0,0,1-.744,2.314,1.5,1.5,0,0,1-.643.635A1.947,1.947,0,0,1,32.979,15.735ZM.278,7.854a.274.274,0,0,1-.229-.14.306.306,0,0,1-.018-.3A10.425,10.425,0,0,1,2.368,4.454,14.446,14.446,0,0,1,5.5,2.317a13.445,13.445,0,0,1,3.714-1.3l.4-.069A9.66,9.66,0,0,1,11.226.776a2.5,2.5,0,0,1,2,.746,1.7,1.7,0,0,1,.4,1.208,1.106,1.106,0,0,1-.4.789,3.08,3.08,0,0,1-2.112.62c-.166,0-.338,0-.5-.008H10.6c-.16,0-.341-.009-.521-.009s-.314,0-.452.012a14.274,14.274,0,0,0-3.143.536A21.357,21.357,0,0,0,.424,7.806.26.26,0,0,1,.278,7.854Zm38.247-1.6h0l-.167-.042A9.458,9.458,0,0,1,36.524,5.5l-.6-.293A16.537,16.537,0,0,0,33.8,4.3a25.089,25.089,0,0,0-4.845-1.07,1.979,1.979,0,0,1-.972-.369,1.457,1.457,0,0,1-.544-.828A1.482,1.482,0,0,1,27.609.786a1.581,1.581,0,0,1,.767-.661A1.725,1.725,0,0,1,29.03,0a1.926,1.926,0,0,1,.377.038l.3.062a21.676,21.676,0,0,1,5.232,1.7,10.579,10.579,0,0,1,2.3,1.514,6.719,6.719,0,0,1,1.627,2.1c.057.439,0,.548-.055.622L38.8,6.06l-.015.02a.421.421,0,0,1-.26.173Z" transform="translate(11.197 10.99)"/>
  </g>
  <g id="FACIAL_HAIR" data-name="FACIAL HAIR" transform="translate(104.577 109.479)">
    <path id="_Ink-4" data-name="ðŸ– Ink" d="M40.224,2.478c-.282-.842-1.731-.768-1.642.222a2.907,2.907,0,0,1-1.369,2.943,2.46,2.46,0,0,1-3.1-.929,16.846,16.846,0,0,0-1.774-2.539,6.582,6.582,0,0,0-2.5-1.551A5.129,5.129,0,0,0,27.616.392a5.409,5.409,0,0,0-5.09,1.954c-.074.092-.142.186-.208.282-.113-.154-.231-.306-.357-.457a1,1,0,0,0-1.086-.365,6.618,6.618,0,0,0-7.294-.353C11.705,2.563,10.153,4.2,7.846,4.325c-1.828.1-3.818-.942-3.947-2.952C3.831.324,2.4-.55,1.6.421A7.207,7.207,0,0,0,.51,7.646a9.749,9.749,0,0,0,5.528,5.521,21.559,21.559,0,0,0,8.92,1.479A9.245,9.245,0,0,0,22.384,11a8.007,8.007,0,0,0,.564-.879,9.175,9.175,0,0,0,7.205,3.2c2.89.069,6.307-.438,8.35-2.684a8.377,8.377,0,0,0,1.721-8.154" transform="translate(21.972 4.438)"/>
  </g>
</svg>
