<svg id="peep-98" xmlns="http://www.w3.org/2000/svg" width="240" height="324" viewBox="0 0 240 324">
  <g id="BODY" transform="translate(31.056 135.053)">
    <path id="_Skin" data-name="âœ‹ Skin" d="M152.022,152.978h0c-1.055,0-2.122-.051-3.154-.1-.7-.033-1.364-.065-1.993-.079-4.036-.54-8.154-.924-12.591-1.172-3.969-.222-8.1-.331-12.613-.331-8.868,0-17.891.43-26.616.845h-.007c-2.951.141-6,.286-9,.412-2.1.138-4.255.205-6.587.205-5.787,0-11.654-.43-17.328-.845h-.006c-5.67-.415-11.532-.845-17.306-.845-2.588,0-4.969.083-7.279.255a153.721,153.721,0,0,1-16.631,1.207,62.7,62.7,0,0,1-7.441-.414c-1.1-.175-2.253-.284-3.366-.39h0c-1.316-.125-2.676-.253-3.983-.492a14.854,14.854,0,0,1-3.781-1.165,4.55,4.55,0,0,1-1.663-1.625A5,5,0,0,1,.043,146.4a16.86,16.86,0,0,1,.43-4.645,26.553,26.553,0,0,0,.4-2.68c.858-4.141,1.633-8.86,2.369-14.425.659-4.978,1.233-10.213,1.789-15.276h0c1.481-13.5,3.013-27.455,6.424-40.3.882-3.32,1.871-6.487,2.941-9.411a83.091,83.091,0,0,1,3.819-8.868,67.042,67.042,0,0,1,4.871-8.186,58.338,58.338,0,0,1,6.094-7.365A58.671,58.671,0,0,1,35.837,30.3a39.233,39.233,0,0,1,6.242-3.2c4.267-1.722,8.842-2.725,14.839-3.954a47.22,47.22,0,0,0,5.871-1.673c2.03-.712,4.692-1.8,5.848-2.909a26,26,0,0,0,2.955-3.794l.108-.157A28.974,28.974,0,0,0,74,10.084a31.7,31.7,0,0,1,2.053-4.141,12.005,12.005,0,0,1,1.373-1.815,9.369,9.369,0,0,1,1.79-1.512A24.351,24.351,0,0,1,90.591,0a21.691,21.691,0,0,1,5.5.656,11.6,11.6,0,0,1,4.422,2.115,11.317,11.317,0,0,1,2.062,2.389,14.162,14.162,0,0,1,1.356,2.724,38.1,38.1,0,0,1,1.54,6.031c.291,1.466.592,2.981,1.007,4.429a17.619,17.619,0,0,0,1.717,4.149,19.081,19.081,0,0,0,6.887,4.186,91.441,91.441,0,0,0,8.732,2.81c2.218.633,4.312,1.231,6.019,1.867,1.232.515,5.893,4.359,7.163,5.519a17.457,17.457,0,0,1,2.151,2.566,24.523,24.523,0,0,1,1.8,3.075,42.266,42.266,0,0,1,2.719,7.316A146.487,146.487,0,0,1,146.952,66.6c.728,4.655,1.416,9.052,2.365,12.686,2.2,12.746,3.933,23.29,5.451,33.183,1.84,11.994,3.341,22.89,4.587,33.311a8.812,8.812,0,0,1,.243,3.1,3.923,3.923,0,0,1-2.055,3.1,6.6,6.6,0,0,1-1.607.618A16,16,0,0,1,152.022,152.978ZM4.889,145.707c-.051.01-.1.036-.1.06s.023.036.151.036H4.98l-.055-.057Z" transform="translate(6.972 -7.609)" fill="#d08b5b"/>
    <path id="_Ink" data-name="ðŸ– Ink" d="M161.061,150.76a2.447,2.447,0,0,1-1.619-.573,2.512,2.512,0,0,1-.8-1.767,1.66,1.66,0,0,1,.49-1.365l0-.05c0-.024-.005-.043-.007-.054v-.008c-.074-.4-.112-.82-.149-1.226-.018-.2-.036-.4-.058-.6-.1-.882-.2-1.774-.3-2.637l-.012-.1q-.063-.552-.125-1.105c-.267-2.319-.555-4.812-.858-7.327-.6-5-1.234-9.992-1.886-14.839l-.659-4.886c-.991-7.319-2.177-15.944-3.458-24.411-1.356-8.967-2.688-16.921-4.072-24.314-.808-4.311-1.662-8.745-2.539-13.18-.5-2.5-.913-4.412-1.356-6.209-.553-2.244-1.134-4.239-1.775-6.1a39.887,39.887,0,0,0-4.631-9.344,33.575,33.575,0,0,0-7.046-7.655c.049.476.091.961.131,1.429v0c.029.34.06.692.093,1.038.208,2.189.434,4.415.63,6.33.436,4.249.908,7.99,1.444,11.436.634,4.077,1.358,7.776,2.215,11.309a96.109,96.109,0,0,0,3.325,10.927c.674,1.8,1.4,3.553,2.159,5.2.22.476.481.952.758,1.456a9.426,9.426,0,0,1,1.465,3.906,1.414,1.414,0,0,1-.422,1.034,1.64,1.64,0,0,1-1.15.521,1.269,1.269,0,0,1-.14-.008c.36,3.173.579,6.414.791,9.547l.058.853c.121,1.767.235,3.565.346,5.3v.026c.2,3.169.409,6.446.667,9.663.749,9.386,1.709,18.811,2.548,26.793.162,1.545.34,3.115.512,4.633v0l0,.036.071.63.167,1.484.015.129,0,.021a4.516,4.516,0,0,1-.245,2.818,14.619,14.619,0,0,1,.951,3.411,3.134,3.134,0,0,1-.056,1.24,2.647,2.647,0,0,1-.539,1.072,2.08,2.08,0,0,1-1.63.737l-.1,0c-.172-.006-.357-.02-.583-.044a21.857,21.857,0,0,1-4.817.7c-.291,0-.6,0-.92,0-1.116,0-2.251-.013-3.349-.025-.668-.008-1.359-.015-2.047-.02h-.026c-3.752-.025-8-.054-12.187-.088-5-.04-10.075-.066-14.987-.092h-.02c-9.574-.049-19.474-.1-29.211-.257l-5.9-.094c-4.915-.079-10.626-.18-16.213-.384-4.148-.151-7.633-.28-11.159-.423l-.757-.029-1.122-.039h-.021a73.242,73.242,0,0,1-8.667-.643.118.118,0,0,1-.078-.049.168.168,0,0,1-.026-.123l0-.02-.142-.032a.067.067,0,0,1-.073.053,1.868,1.868,0,0,1-.815-.574,4.276,4.276,0,0,1-.617-.783,1.633,1.633,0,0,1-.275-.824,4.033,4.033,0,0,1-.36-2.865c.023-.213.044-.414.058-.6.048-.671.1-1.351.158-2.01l0-.022c.03-.359.06-.731.089-1.1.081-1.025.157-2.068.232-3.076v-.014c.086-1.176.176-2.393.272-3.588.833-10.318,1.391-18.886,1.756-26.964.169-3.735.313-7.533.452-11.206v0q.045-1.2.091-2.394c.1-2.51.215-4.417.389-6.184l.053-.513c.053-.5.093-1.015.131-1.516v0a16.635,16.635,0,0,1,.836-4.769.03.03,0,0,1,.057,0,18.131,18.131,0,0,1,.955,5.521c.016.233.033.473.05.707.02-.006.04-.01.061-.014l.023,0c.231-.11.466-.219.694-.325a23.019,23.019,0,0,0,2.473-1.273c.09-.055.18-.114.267-.17h0l.138-.089c1.006-3.079,2.131-6.176,3.219-9.172.638-1.755,1.3-3.57,1.925-5.363,1.359-3.879,2.591-7.895,3.661-11.937,1.057-3.992,1.982-8.1,2.748-12.214A174.735,174.735,0,0,0,53.488,16.2a106.571,106.571,0,0,1-10.282,5.6c-.956.476-1.944.969-2.912,1.461l-.416.212a50.78,50.78,0,0,0-6.306,3.711,25.865,25.865,0,0,0-5.362,4.942,31.509,31.509,0,0,0-3.467,5.509c-.982,1.932-1.826,3.917-2.676,5.951C20.378,47.628,18.744,52,17.211,56.568c-1.447,4.315-2.787,8.849-3.985,13.475-1.137,4.391-2.18,9-3.1,13.708C9.254,88.2,8.482,92.8,7.83,97.415c-.632,4.476-1.171,9.106-1.6,13.762-.474,5.136-.853,9.749-1.16,14.1-.155,2.18-.3,4.519-.458,7.152-.027.47-.052.94-.076,1.4-.036.682-.073,1.387-.118,2.081-.007.1-.013.2-.019.3v.006a6.282,6.282,0,0,1-.255,1.68,5.436,5.436,0,0,1-.667,1.216l-.146.222a1.525,1.525,0,0,1-.576.515,1.606,1.606,0,0,1-.737.183,1.272,1.272,0,0,1-1.167-.7L.623,138.9a4.646,4.646,0,0,1-.613-1.834,10.916,10.916,0,0,1,.042-1.428c.012-.166.025-.337.034-.5.072-1.326.156-2.674.23-3.863.175-2.8.366-5.531.568-8.12.428-5.521.981-10.977,1.641-16.217.645-5.1,1.308-9.741,2.027-14.177.808-4.986,1.665-9.587,2.62-14.068C8.2,73.873,9.347,69.2,10.581,64.8c1.323-4.711,2.8-9.3,4.391-13.634.839-2.286,1.711-4.516,2.593-6.627.938-2.244,1.917-4.429,2.91-6.494a38.621,38.621,0,0,1,3.449-5.912A26.555,26.555,0,0,1,26.088,29.5a22.3,22.3,0,0,1,2.532-2.315,34.7,34.7,0,0,1,5.373-3.376c1.851-.962,3.782-1.821,5.763-2.689l.484-.212c.749-.327,1.5-.662,2.234-.986a103.074,103.074,0,0,1,10.987-4.372,1.488,1.488,0,0,0-.287.055.1.1,0,0,1-.03,0,.09.09,0,0,1-.082-.057.107.107,0,0,1,.015-.115,3.091,3.091,0,0,0,.283-.381,2.581,2.581,0,0,1,.379-.479c.192-.182.4-.364.636-.555l.315-.251a4.943,4.943,0,0,1,1.906-1.084,1.411,1.411,0,0,1,.3-.034.975.975,0,0,1,.834.425,1.139,1.139,0,0,1,.107,1.046.323.323,0,0,1,.262-.114.412.412,0,0,1,.387.243c1.124,2.9,2.137,5.908,3.116,8.816s1.991,5.915,3.116,8.819a69.248,69.248,0,0,0,3.892,8.492c3.8,6.885,8.446,12.048,13.813,15.346a28.542,28.542,0,0,0,5.112,2.51,19.874,19.874,0,0,0,5.549,1.212c.337.021.678.032,1.014.032a15.907,15.907,0,0,0,4.439-.632,16.718,16.718,0,0,0,4.114-1.837,22.227,22.227,0,0,0,3.854-3.041,29.254,29.254,0,0,0,3.209-3.759,47.368,47.368,0,0,0,4.816-8.62,84.9,84.9,0,0,0,3.687-10,88.81,88.81,0,0,0,2.437-10.387h-.169A13.93,13.93,0,0,1,114.9,20a13.612,13.612,0,0,1-4.631-3.313,12.757,12.757,0,0,1-2.835-5.254,8.545,8.545,0,0,1-.283-2.751,10.1,10.1,0,0,1,.587-2.687.109.109,0,0,1,.1-.071.085.085,0,0,1,.087.071,26.221,26.221,0,0,0,1.625,4.726,13.442,13.442,0,0,0,2.689,3.992,11.471,11.471,0,0,0,4.027,2.667,13.051,13.051,0,0,0,4.759.856l.08,0c.01-.07.02-.141.03-.21v0l.018-.125.023-.169a2.112,2.112,0,0,1,.665-1.347,1.777,1.777,0,0,1,1.172-.432,1.889,1.889,0,0,1,1.064.329,1.772,1.772,0,0,1,.691.949c.3.1.557.177.815.264l.054.02c.1.038.255.106.434.184a6.525,6.525,0,0,0,1.7.587.251.251,0,0,0,.146-.034.855.855,0,0,1,.506-.17,1.266,1.266,0,0,1,1.066.809,9.543,9.543,0,0,1,.512,2.55c.021.2.042.38.065.565l.017.132.019.159a19.264,19.264,0,0,1,10.509,7.437,33,33,0,0,1,3.416,5.7,45.9,45.9,0,0,1,2.372,6.117,130.653,130.653,0,0,1,3.116,13.235l.049.245c.569,2.856,1.12,5.764,1.653,8.576v.013c.369,1.947.751,3.961,1.135,5.939,2.145,11.039,3.775,20.156,5.13,28.693l.442,2.786c1.559,9.859,2.819,18.139,3.9,26.5.564,4.366,1.137,9.06,1.753,14.349.1.842.2,1.7.3,2.562l.147,1.282c.014.121.029.243.043.361v0a9.965,9.965,0,0,1,.108,1.523,3.331,3.331,0,0,1-.367,1.476,3.142,3.142,0,0,1-2.751,1.668ZM61.47,15.637a3.971,3.971,0,0,1-2.181-.521.1.1,0,0,1-.048-.084.1.1,0,0,1,.048-.087,5.14,5.14,0,0,1,1.83-.664h0c.24-.054.487-.111.719-.177a22.824,22.824,0,0,0,2.713-.941,21.413,21.413,0,0,0,4.861-2.9A20.964,20.964,0,0,0,71.55,8.336a13.647,13.647,0,0,0,1.768-2.262,26.56,26.56,0,0,0,1.331-2.521,12.194,12.194,0,0,0,.466-1.178A9.572,9.572,0,0,1,75.73.908,1.742,1.742,0,0,1,76.418.23,1.918,1.918,0,0,1,77.335,0a1.964,1.964,0,0,1,.734.141,1.669,1.669,0,0,1,.943.9,2.416,2.416,0,0,1,.141,1.31A9.5,9.5,0,0,1,77.843,5.4l-.081.141A16.707,16.707,0,0,1,75.714,8.3a23.587,23.587,0,0,1-4.741,4.238,18.751,18.751,0,0,1-5.907,2.551l-.5.116A14.535,14.535,0,0,1,61.47,15.637Z" transform="translate(4.648 0.423)"/>
  </g>
  <g id="HEAD" transform="translate(78.592 38.043)">
    <path id="_Skin-2" data-name="âœ‹ Skin" d="M73.9,34.016C72.449,16.331,68.043.668,47.339,0A72.138,72.138,0,0,0,19.867,5.755c-20.883,10.5-27.509,48.853-9.11,64.293a.2.2,0,0,0-.007.33,71.147,71.147,0,0,0,12.258,6.445c11.272,4.777,24.541,6.852,36.037,1.67C76.587,71.01,76.85,50.187,73.9,34.016Z" transform="translate(12.228 24.094)" fill="#d08b5b"/>
    <path id="_Ink-2" data-name="ðŸ– Ink" d="M152.278,75.229a5.26,5.26,0,0,0,1.531-2.462,4.828,4.828,0,0,0,0-2.7c-.283-.934-.892-1.678-.755-2.65a2.223,2.223,0,0,1,.063-.294c.527-1.83,1.824-3.151,1.36-5.18a3.518,3.518,0,0,0-.721-1.494c.038-.44.072-.883.1-1.327a7.1,7.1,0,0,0-.078-5.666,21.459,21.459,0,0,0-.46-2.669,5.142,5.142,0,0,0-.287-2.308,32.844,32.844,0,0,0-1.563-3.527,1.3,1.3,0,0,0-.136-.948,8.813,8.813,0,0,0-1.163-1.48c-.3-.542-.607-1.079-.909-1.609-.14-.244-.295-.514-.465-.8a2.755,2.755,0,0,0,.221-2.721,1.253,1.253,0,0,0-1.109-.638c-.456.027-.917.048-1.38.065a9.878,9.878,0,0,0-2.9-2.53c-1.065-.9-2.144-1.792-3.194-2.7l-.894-.774-.006-.021c-.219-.8-.466-1.591-.713-2.386-.154-.492-.2-1.008-.679-1.277a9.793,9.793,0,0,0-3.683-.744l-.342-.3a5.386,5.386,0,0,0-.228-4.261,1.044,1.044,0,0,0-1.425-.374,4.76,4.76,0,0,1-3.3.873c-1.7-1.306-8.532-7.213-9.588-7.836-.013-.022-.024-.045-.038-.067a8.587,8.587,0,0,0-2.126-2.326l-.347-.364a4.43,4.43,0,0,1,.8-2.01c.046-.068.1-.133.152-.2A1.014,1.014,0,0,0,116.8,7.941c-.076.034-.152.068-.228.1-.81.362-1.707.756-2.641,1.088-.342-.128-.69-.245-1.008-.373l-3.4-1.371c-.56-.226-1.152-.417-1.694-.682a2.609,2.609,0,0,0-2.755-2.042,2.456,2.456,0,0,1,.347-.7c.046-.066.1-.129.15-.19.673-.784-.226-2.238-1.187-1.541l-.2.146c-.267.188-.541.364-.817.535a1.856,1.856,0,0,0-1.462-.033,15.034,15.034,0,0,0-3.236,1.625c-.041.029-.084.053-.126.081a2.767,2.767,0,0,0-2.028-1.016h-.039a2.65,2.65,0,0,0-2.483-1.187,2.529,2.529,0,0,0-4.956-.556l-.315,1.026a11.087,11.087,0,0,0-3.08-1.06,15.868,15.868,0,0,0-7.2.709c-.236.068-.471.138-.707.208-.336-.391-.652-.791-.954-1.164a1,1,0,0,0-1.687.7,1.359,1.359,0,0,1-.546,1.275,8.069,8.069,0,0,1-1.4.066,4.6,4.6,0,0,1-1.973-.363,2.6,2.6,0,0,1-1.087-.9A2.609,2.609,0,0,0,66,1.9a2.676,2.676,0,0,0-3.082,1.115,3.082,3.082,0,0,1-1.815,1c-.626.176-1.267.309-1.91.425a.993.993,0,0,0-1.333-.324c-.3.222-.591.45-.879.684a12.4,12.4,0,0,1-6.533-.549c-1.789-.733-3.431,1.27-3.136,2.951-.518.27-1.08.45-1.592.733a6.317,6.317,0,0,0-2.592,2.744c-.1.206-.191.414-.277.624-.417.34-.83.69-1.232,1.059l-2.009-1.034a1,1,0,0,0-1.446.59,6.078,6.078,0,0,1-1.119,2.773,45.8,45.8,0,0,0-5.275,3.248c-1.937.609-4,.964-5.69,1.363a.963.963,0,0,0-.569,1.4q.519.8,1.035,1.6Q25.1,23.716,23.82,25.249a54.767,54.767,0,0,0-6.143,9.225l-2.112.854a1,1,0,0,0-.434,1.646,6.3,6.3,0,0,1,.7.875A11.624,11.624,0,0,1,12.012,42a2.58,2.58,0,0,0-1.075,1.306c-.171.114-.339.237-.506.361a1.015,1.015,0,0,0-.2,1.57,6.3,6.3,0,0,1,1.044,1.122c.065.239.133.48.2.719a17.782,17.782,0,0,0-3.748,4.878.837.837,0,0,0-.645.127c-1.7,1.262-1.754,3.272-1.069,5.068a18.4,18.4,0,0,0,.649,8.105,7.62,7.62,0,0,0-1.935,4.02,82.376,82.376,0,0,0-.6,9.116,9.331,9.331,0,0,0-2.41,4.075L.568,83.04A1.124,1.124,0,0,0,0,84.031,8.049,8.049,0,0,0,1.84,88.59,10.044,10.044,0,0,0,3.4,91.408a21.37,21.37,0,0,1,1.341,1.849,1.177,1.177,0,0,1,.086.169,3.757,3.757,0,0,0-.409.666,4.325,4.325,0,0,0,.394,5.235,1.305,1.305,0,0,0-.078,1.818c2.992,3.426,5.486,7.592,9.637,9.411a1.039,1.039,0,0,1,.051.1,6.149,6.149,0,0,0-.268,5.18.546.546,0,0,0,.017.055c.367,1.1,1.041,2.86,2.258,3.2a4.083,4.083,0,0,0,1.134.154q1.448,1.4,2.892,2.8a9.757,9.757,0,0,1,.154,1.4,1.25,1.25,0,0,0,1.564,1.194c.28-.082,1.832-1.594,2.117-1.585.143.144.283.287.422.433a4.68,4.68,0,0,1,1.282,1.953,2.769,2.769,0,0,0,1.933,2.5,1.061,1.061,0,0,0,1.613,0c.034-.036.067-.072.1-.1l.162-.019q.373,1.116.748,2.23a2.64,2.64,0,0,0,3.7,1.549c.215.129.426.266.637.4.32.205.645.414.978.611.019.055.038.11.055.163a1.17,1.17,0,0,0,1.659.632,4.86,4.86,0,0,0,.523.135,5.253,5.253,0,0,0,2.764-.178,8.447,8.447,0,0,1,1.948-.7c.043,0,.088,0,.132,0a5.435,5.435,0,0,0,2.869,2.5,5.318,5.318,0,0,0,3.9-.259,9.092,9.092,0,0,0,1.228,1.85.747.747,0,0,0,1.044,0q.8-.71,1.59-1.425c.382-.148.768-.325,1.171-.49a22.407,22.407,0,0,0,3.8-1.475,6.437,6.437,0,0,0,1.5-1.328,10.817,10.817,0,0,0,2.216-1.716,2.216,2.216,0,0,0,1.018-.247,4.249,4.249,0,0,0,2.218-3.677,25.969,25.969,0,0,0,2-8.511,21.221,21.221,0,0,0,0-2.906,5.106,5.106,0,0,0-.479-1.75,5.42,5.42,0,0,1-.226-.588c.015-.651.023-1.3.032-1.951a3.655,3.655,0,0,1,.921-1.486,2.388,2.388,0,0,0,.369-2.862l-1.193-1.591c.112-2.276.656-5.9-.55-6.279.048-.338.152-.672.211-1.008a6.136,6.136,0,0,0-.742-4.47c-.179-.294-.331-.554-.455-.807l-.234-1.395c-.12-.716-.238-1.439-.339-2.166-.053-.926-.1-1.851-.154-2.779q-.073-1.281-.16-2.564c.023-.383.057-.765.105-1.148.289-2.28,1.219-3.124,2.829-4.709.253-.04.5-.085.751-.135a11.425,11.425,0,0,1,3.533-.476c1.284.144,2.433.7,3.681-.011.367-.211,1.174-.795,1.244-1.258a.288.288,0,0,1,.019-.074c.086-.013.2-.023.268-.025.991-.034,1.937.357,2.937.249a4.591,4.591,0,0,0,2.937-1.433,7.315,7.315,0,0,0,2.728.2A6.054,6.054,0,0,0,87.7,73.72c.5-.271.342-.349.885-.129,1.238.5,2.357,1.167,3.751.822a3.984,3.984,0,0,0,1.872-1.095,6.391,6.391,0,0,0,.476-.48c.662.336,2.327,1.095,2.6,1.162a4.243,4.243,0,0,0,2.353-.093c.554-.186,1.233-.693,1.72-.8.63-.135,2.03.744,2.783,1.046a5.289,5.289,0,0,0,4.054.114c.46-.188,1.353-.938,1.7-.932a37.642,37.642,0,0,1,2.587,5.852c1.9,5.58,2.386,23,1.512,27.446-.034.131-.07.26-.105.391a63.306,63.306,0,0,1-3.993,11.4,18.6,18.6,0,0,1-7.41,8.3A20.978,20.978,0,0,1,90.967,128.9a39.879,39.879,0,0,1-7.459-1.312c-1.278-.332-2.545-.7-3.805-1.086-.55-.167-1.109-.323-1.649-.518a2.519,2.519,0,0,0-2.365.07,1.727,1.727,0,0,0-.611,2.333c.7,1.217,1.994,1.3,3.24,1.657,1.269.361,2.543.708,3.824,1.019a49.437,49.437,0,0,0,7.469,1.255,25.665,25.665,0,0,0,13.254-2.177c.464-.224.911-.463,1.343-.721-.16.224-.323.448-.487.67a1.469,1.469,0,0,0,.521,2c.2.106.4.207.609.306.027.066.057.131.091.2a4.467,4.467,0,0,0,3.053,2.168,18.048,18.048,0,0,0,4.642.059l4.185-.127c.329-.008.658-.019.987-.03l4.967-.15a4.949,4.949,0,0,0,2.791-.522,4.141,4.141,0,0,0,1.55-1.143,6.23,6.23,0,0,0,.769-.408,10.054,10.054,0,0,0,2.146-1.889c1.1.349,2.648.025,2.863-1.363.346-2.221,3.226-3.17,4.571-4.777a7.251,7.251,0,0,0,1.821-4.622c2.736-1.327,4.225-4.825,4.573-7.792.162-1.376.137-2.849.371-4.248a2.329,2.329,0,0,0,.274-.357,29.578,29.578,0,0,0,1.813-3.437,4.724,4.724,0,0,1,2.481-.89,1.971,1.971,0,0,0,.521-3.851l-.03-.011a5.555,5.555,0,0,0-.171-4.5c.029-.148.057-.294.084-.442A6.745,6.745,0,0,0,151,89.472a5.836,5.836,0,0,1,1.813-.862,1.167,1.167,0,0,0,.274-2.1,3.553,3.553,0,0,1-.77-.782,4.972,4.972,0,0,0-.755-4.707l2.043-2.625a1.517,1.517,0,0,0,0-2.111Q152.941,75.754,152.278,75.229Z" transform="translate(-31.623 -25.362)"/>
  </g>
  <g id="FACE" transform="translate(112.183 77.354)">
    <path id="_Ink-3" data-name="ðŸ– Ink" d="M29.547,34.493c-.866,0-1.621-.03-2.309-.091-.88-.078-1.784-.2-2.686-.375l-.524-.1a1.723,1.723,0,0,1-1.339-.768.341.341,0,0,1-.011-.314c.125-.276.6-.56,1.421-.843.672-.232,1.424-.412,1.829-.508.139-.033.239-.057.292-.072.961-.275,1.954-.5,2.915-.717l.284-.064.146-.034.319-.077a6.969,6.969,0,0,1,1.634-.269,2.491,2.491,0,0,1,1.425.419,1.917,1.917,0,0,1,.875,1.337,1.964,1.964,0,0,1-.5,1.557,3.419,3.419,0,0,1-2.881.914h0l-.212,0h-.073C29.939,34.492,29.737,34.493,29.547,34.493Zm-2.863-13.17a12.031,12.031,0,0,1-4.024-.686,1.746,1.746,0,0,1-.89-.746,1.229,1.229,0,0,1-.1-1.05c.038-.106.086-.213.132-.313a1.278,1.278,0,0,1,.692-.62,1.593,1.593,0,0,1,.594-.118,1.238,1.238,0,0,1,.371.054l.119.038.03.01a14.07,14.07,0,0,0,3.975.814c.135,0,.267,0,.392-.014a3.128,3.128,0,0,0,1.23-.319,1.976,1.976,0,0,0,.863-.885,1.362,1.362,0,0,0-.035-1.253,4.391,4.391,0,0,0-1.348-1.459,6.225,6.225,0,0,0-2.138-.9l-.029-.008c-.281-.078-.571-.159-.863-.256a.512.512,0,0,1-.243-.174.579.579,0,0,1-.116-.275.478.478,0,0,1,.05-.289.448.448,0,0,1,.217-.2,3.75,3.75,0,0,1,1.545-.314,5.778,5.778,0,0,1,3.281,1.13,5.389,5.389,0,0,1,1.691,1.935,3.891,3.891,0,0,1,.357,1.083,3.4,3.4,0,0,1,0,1.145A3.908,3.908,0,0,1,31.4,19.739a4.89,4.89,0,0,1-2.169,1.247A8.97,8.97,0,0,1,26.684,21.323ZM10.865,12.029a3.5,3.5,0,0,1-.744-.079,4.49,4.49,0,0,1-2.114-1.14A5.088,5.088,0,0,1,6.7,8.785L6.671,8.7a6.37,6.37,0,0,1-.291-2.031,2.842,2.842,0,0,1,.2-1.03,1.23,1.23,0,0,1,.626-.665.287.287,0,0,1,.116-.025c.346,0,.622.651.724.932l.176.484A5.508,5.508,0,0,0,9.453,8.522a2,2,0,0,0,1.24.6.934.934,0,0,0,.667-.275,1.407,1.407,0,0,0,.358-1.224,3.563,3.563,0,0,1,.01-.581A2,2,0,0,1,12.336,5.9a1.706,1.706,0,0,1,1.147-.522,1.259,1.259,0,0,1,1,.529,3.167,3.167,0,0,1,.7,1.778,3.553,3.553,0,0,1-.372,1.768,4.759,4.759,0,0,1-1.619,1.834A4.193,4.193,0,0,1,10.865,12.029Zm24.309-.4a3.46,3.46,0,0,1-1.493-.325,3.619,3.619,0,0,1-1.144-.868,5.591,5.591,0,0,1-1.181-2.306,7.334,7.334,0,0,1-.2-2.6.421.421,0,0,1,.411-.4.444.444,0,0,1,.406.293l.038.1c.088.225.176.485.269.76a9.566,9.566,0,0,0,.907,2.113,2.01,2.01,0,0,0,1.723,1.075h0a.92.92,0,0,0,.815-.413A1.862,1.862,0,0,0,35.966,8a3.069,3.069,0,0,0-.215-1.062L35.735,6.9a1.686,1.686,0,0,1,.057-1.639,1.9,1.9,0,0,1,1.57-.811,1.467,1.467,0,0,1,.9.281,1.335,1.335,0,0,1,.5.893l.02.145a8.152,8.152,0,0,1-.048,2.463,4.812,4.812,0,0,1-.931,2.2,3.156,3.156,0,0,1-2.289,1.176C35.4,11.624,35.285,11.629,35.175,11.629ZM12.263,3.35C8.757,3.35,4.6,3.3.342,2.943A.349.349,0,0,1,0,2.569a.339.339,0,0,1,.328-.347H.353C5.85,1.44,11.493,1.145,16.95.86h.014L19.028.75c4.963-.267,10.015-.438,14.9-.6,1.378-.047,2.8-.1,4.2-.145H38.2A1.283,1.283,0,0,1,39.2.435a1.509,1.509,0,0,1,.344.969A1.6,1.6,0,0,1,39.2,2.439a1.377,1.377,0,0,1-1.067.495c-1.451.034-2.927.071-4.355.108h-.005c-4.764.121-9.691.245-14.535.271l-1.145.007-1.18.008C15.389,3.339,13.813,3.35,12.263,3.35Z" transform="translate(9.085 17.119)"/>
  </g>
  <g id="ACCESORIES" transform="translate(88.521 88.978)">
    <path id="_Ink-4" data-name="ðŸ– Ink" d="M42.408,26.145a15.918,15.918,0,0,1-2.793-.253,15.741,15.741,0,0,1-2.734-.744,10.37,10.37,0,0,1-4.358-2.879,15.2,15.2,0,0,1-2.475-6.711,23.165,23.165,0,0,1-.274-4.158A16.964,16.964,0,0,1,30.3,7.469l-.013-.005-.022-.009c-.015.148-.228.272-.614.36a6.586,6.586,0,0,1-1.372.124c-1.189,0-2.569-.221-2.974-.716a.459.459,0,0,1-.106-.395c-2.517.045-5.246.21-8.34.505-2.761.263-5.559.6-8.265.933-1.867.227-3.8.462-5.707.671-.9.084-.946.727-.989,1.348a2.628,2.628,0,0,1-.122.75.735.735,0,0,1-.525.465H1.211a1.149,1.149,0,0,1-.87-.33,1.346,1.346,0,0,1-.332-.819A3.2,3.2,0,0,1,.5,8.491a2.918,2.918,0,0,1,.65-.758A1.894,1.894,0,0,1,2,7.326c1.86-.194,3.767-.452,5.612-.7A90.487,90.487,0,0,1,19.562,5.549a34.632,34.632,0,0,1,5.839.459,1.9,1.9,0,0,1,1.605-.689,8.127,8.127,0,0,1,1.894.319c.337.085.656.165.93.206a3.682,3.682,0,0,1,1.331-2.2,8.5,8.5,0,0,1,2.788-1.472A19.718,19.718,0,0,1,37.7,1.348a33.121,33.121,0,0,1,4.229-.257c4,0,8,.634,10.183,1.615,4.014-.462,8.178-.787,12.206-1.1h.006c1.629-.127,3.313-.258,4.94-.4A23.4,23.4,0,0,1,76.369,0,14.878,14.878,0,0,1,80.65.594c.067,0,.126-.006.179-.006.349,0,.4.078.5.219.02.028.042.059.069.093a5.5,5.5,0,0,1,1.97,1.51,5.707,5.707,0,0,1,1.186,2.339,6.078,6.078,0,0,1,2.648-.527,12.754,12.754,0,0,1,1.654.121,1.842,1.842,0,0,1,.629.428.476.476,0,0,1,.127.42.84.84,0,0,1-.373.465,3.209,3.209,0,0,1-.78.381,6.548,6.548,0,0,1-2.063.352c-.847,0-1.419-.2-1.609-.571a18.68,18.68,0,0,1,0,4.537A22.044,22.044,0,0,1,83.643,15.3a16.2,16.2,0,0,1-2.406,4.465,10.412,10.412,0,0,1-3.76,3.086A9.942,9.942,0,0,1,73.083,23.9a9.19,9.19,0,0,1-3.672-.76,9.508,9.508,0,0,1-3.069-2.132,11,11,0,0,1-2.95-8.123.808.808,0,0,1-.525-.43,2.645,2.645,0,0,1-.235-1.2,9.205,9.205,0,0,1,.143-1.588,18.788,18.788,0,0,1,.761-2.961,26.2,26.2,0,0,0-3.957-.374,11.8,11.8,0,0,0-3.616.525,8.279,8.279,0,0,1-.044,4.115,26.88,26.88,0,0,1-1.794,5.435,27.509,27.509,0,0,1-2.937,5.143,14.96,14.96,0,0,1-1.708,1.958A7.435,7.435,0,0,1,47.716,24.8a7.193,7.193,0,0,1-2.373,1.016,12.279,12.279,0,0,1-2.934.332h0ZM40.583,3.13a21.694,21.694,0,0,0-4.143.3,9.253,9.253,0,0,0-3.7,1.465,4.061,4.061,0,0,0-.719,1.238,9.274,9.274,0,0,0-.469,1.736,19.685,19.685,0,0,0-.219,4.388,24.009,24.009,0,0,0,.69,4.641,12.353,12.353,0,0,0,1.539,3.733,8.235,8.235,0,0,0,2.973,2.3,13.31,13.31,0,0,0,2.562,1.009,11.179,11.179,0,0,0,2.972.419,9.226,9.226,0,0,0,3.153-.543,9.6,9.6,0,0,0,3.1-1.876,14.148,14.148,0,0,0,2.823-3.581,26.135,26.135,0,0,0,2.312-5.657A10.526,10.526,0,0,0,54.3,8.9a4.782,4.782,0,0,0-.766-2.7,4.952,4.952,0,0,0-1.465-1.4,8.393,8.393,0,0,0-2.1-.929,15.715,15.715,0,0,0-2.608-.526,27.987,27.987,0,0,0-3-.189c-.184,0-.374,0-.581,0-.51,0-1.02-.008-1.56-.016H42.2C41.674,3.138,41.131,3.13,40.583,3.13Zm36.03-.983a23.411,23.411,0,0,0-4.336.328A11.568,11.568,0,0,0,68.241,3.97a6.958,6.958,0,0,0-2.782,3.362,9.976,9.976,0,0,0-.6,2.126,12.823,12.823,0,0,0-.176,2.217,1.283,1.283,0,0,1-.142.782,1.028,1.028,0,0,1-.487.41,16.192,16.192,0,0,0,1.326,4.162,10.8,10.8,0,0,0,2.058,2.938,8.1,8.1,0,0,0,2.558,1.742,7.229,7.229,0,0,0,2.826.575h0a8.534,8.534,0,0,0,6.118-2.809,14.854,14.854,0,0,0,3.685-8.213,18.3,18.3,0,0,0,.31-4.11A7.715,7.715,0,0,0,82.6,5.27a4.556,4.556,0,0,0-.841-1.562A4.031,4.031,0,0,0,80.152,2.57a6.834,6.834,0,0,0-2.518-.42l-.251,0C77.107,2.149,76.855,2.147,76.612,2.147Zm-23.7,1h0a7.42,7.42,0,0,1,1.745,1.463,6.15,6.15,0,0,1,1.174,1.87,6.5,6.5,0,0,1,2.387-.945,13.124,13.124,0,0,1,2.6-.226c.322,0,.662.008,1.037.024.114.007.233.011.36.016a4.3,4.3,0,0,1,1.8.322,8.689,8.689,0,0,1,1.235-1.8A8.468,8.468,0,0,1,66.81,2.481c-.641.049-1.3.1-1.928.15h0c-3.377.266-6.868.54-10.263.54C54.033,3.171,53.46,3.163,52.912,3.147Z" transform="translate(-0.423 2.113)"/>
  </g>
</svg>
