<svg id="peep-26" xmlns="http://www.w3.org/2000/svg" width="240" height="324" viewBox="0 0 240 324">
  <g id="BODY" transform="translate(31.056 135.053)">
    <path id="_Skin" data-name="âœ‹ Skin" d="M47.046,18.018c-3.913-2.849-5.854-7.514-7.313-8.308-1.074-.584-1.055-4.615-3.208-6.042C33.635,1.752,24.427.329,21.077.062A32.972,32.972,0,0,0,9.253,1.522C4.222,3.486,2.216,7.232,0,12.059,0,12.059,49.734,19.975,47.046,18.018Z" transform="translate(75.906 -2.959)" fill="#d08b5b"/>
    <path id="_Top" data-name="ðŸ‘• Top" d="M41.1,0h79.513l27.522,24.494,12.216,102.951-17.375,5.412L35.621,134.652,2.092,125.168,0,53.506Z" transform="translate(8.873 18.387)" fill="#78e185"/>
    <path id="_Ink" data-name="ðŸ– Ink" d="M97.357,153.05h0c-7.2,0-14.251-.283-22.056-.625-3.415-.148-6.242-.372-8.9-.7a38.491,38.491,0,0,0-4.7-.367,17.2,17.2,0,0,0-3.463.329l-.625.129a25.593,25.593,0,0,1-3.96.608c-.187.009-.382.014-.58.014a25.792,25.792,0,0,1-3.1-.252l-.4-.049c-1.467-.178-3.07-.324-5.046-.458a63.233,63.233,0,0,1-2.063-7.906c-.494-2.514-.881-5.159-1.182-8.085-.56-5.433-.73-11.013-.895-16.409v0c-.083-2.716-.169-5.525-.3-8.263a.817.817,0,0,0-.295-.611.932.932,0,0,0-.592-.2.838.838,0,0,0-.61.242.754.754,0,0,0-.194.573c.136,2.76.222,5.593.306,8.332.164,5.362.334,10.906.878,16.31.293,2.911.667,5.541,1.144,8.042A64.928,64.928,0,0,0,42.7,151.56c-.586-.035-1.168-.068-1.714-.1-2.537-.145-5.119-.275-7.616-.4h-.015c-3.292-.165-6.7-.336-10.04-.544l-1.711-.1h0c-2.362-.141-4.8-.288-7.2-.511-.568-.053-1.182-.078-1.933-.078-.475,0-.959.01-1.427.019h-.031c-.462.009-.939.019-1.407.019H9.326a5.317,5.317,0,0,1-.361.833,1.965,1.965,0,0,1-1.73.939,1.661,1.661,0,0,1-1.578-.939c-.731-1.607-1.356-3.11-1.912-4.595a60.353,60.353,0,0,1-2.715-9.641A56.118,56.118,0,0,1,0,126.5c-.031-2.712.117-5.47.261-8.136v0c.039-.724.079-1.472.115-2.208L.4,115.72c.163-3.287.332-6.687.549-10.029.2-3.113.331-6.282.455-9.347.155-3.806.315-7.741.616-11.6.262-3.383.681-6.716,1.243-9.906a90.7,90.7,0,0,1,2.264-9.722,93.2,93.2,0,0,1,3.423-9.555c1.124-2.7,2.459-5.641,4.2-9.244l.3-.624,0-.01c1.3-2.685,2.639-5.462,4.173-8.067a43.189,43.189,0,0,1,2.484-3.783,31.044,31.044,0,0,1,2.947-3.456,32.763,32.763,0,0,1,7.179-5.394A15.818,15.818,0,0,0,31.836,24a5.3,5.3,0,0,0,1.308-1.32c.2-.3.4-.607.585-.908a12.184,12.184,0,0,1,1.633-2.21,5.36,5.36,0,0,1,1.8-1.185,8.276,8.276,0,0,1,2.1-.512A4.547,4.547,0,0,0,40.8,17.42a4.953,4.953,0,0,0,1.269-.988c.153-.156.307-.316.456-.471h0a13.525,13.525,0,0,1,2.342-2.085,10.99,10.99,0,0,1,4.409-1.338c5.918-.918,11.586-3.4,17.068-5.8.54-.236,1.1-.48,1.647-.719A9.158,9.158,0,0,1,70.4,5.262a4.383,4.383,0,0,1,.625-.038c.145,0,.29,0,.431.008s.288.008.432.008a4.457,4.457,0,0,0,.548-.029c.743-.092,1.152-.926,1.513-1.662a6.758,6.758,0,0,1,.4-.741,3.764,3.764,0,0,1,1.031-1,3.506,3.506,0,0,1,1.806-1.3A7.018,7.018,0,0,1,79.714,0a3,3,0,0,1,2.714,1.3,1.613,1.613,0,0,1,.1.19c1.464.314,2.946.66,4.379.994,3.274.765,6.659,1.555,10.059,2.011a63.975,63.975,0,0,0,8.25.554h.2c1.357,0,2.712-.042,4.026-.125.28-.017.575-.054.861-.09a10.333,10.333,0,0,1,1.254-.1h.014a4.233,4.233,0,0,1,1.416-1.66,3.614,3.614,0,0,1,2.049-.677,3.031,3.031,0,0,1,1.7.519,3.544,3.544,0,0,1,1.386,2.171,6,6,0,0,1,1.215,1.9c.3.732.534,1.518.76,2.278.086.29.175.59.267.882.047.15.091.306.138.472a4.52,4.52,0,0,0,1.022,2.136,3.6,3.6,0,0,0,2.161.623,6.143,6.143,0,0,1,1.359.208,14.808,14.808,0,0,1,3.268,1.7l.135.085a12.894,12.894,0,0,0-1.548.619,5.566,5.566,0,0,0-1.375.934.744.744,0,0,0-.2.846.941.941,0,0,0,.836.586.814.814,0,0,0,.563-.237,6.092,6.092,0,0,1,2.36-1.181l.007,0,.18-.06a.812.812,0,0,0,.566-.644l7.14,4.424a76.813,76.813,0,0,1,6.54,4.458,42.432,42.432,0,0,1,5.821,5.352,36.339,36.339,0,0,1,7.749,12.924,23.755,23.755,0,0,1,.889,3.823c.06.407.1.825.147,1.229a14.872,14.872,0,0,0,.4,2.465,10.5,10.5,0,0,0,.975,2.163c.221.406.45.826.641,1.253a11.163,11.163,0,0,1,.877,3.73c.157,1.9.229,3.836.3,5.711.037,1,.075,2.027.126,3.039.015.309.025.626.034.933a13.018,13.018,0,0,0,.41,3.445A10.289,10.289,0,0,0,162.719,73a13.941,13.941,0,0,1,.667,1.345,6.993,6.993,0,0,1,.441,1.59,8.923,8.923,0,0,1,.1,1.6,23.334,23.334,0,0,1-.379,3.222c-.055.332-.111.675-.162,1.013a10.028,10.028,0,0,0-.128,1.811,6.033,6.033,0,0,0,.312,1.78c.172.505.391,1,.6,1.482a15.828,15.828,0,0,1,.691,1.76,7.612,7.612,0,0,1,.284,2.67,21.733,21.733,0,0,1-.365,2.625,20.992,20.992,0,0,0-.381,2.851,33.026,33.026,0,0,0,.72,7.022v.007c.074.42.15.853.221,1.279,1,5.974,1.866,11.378,2.254,17.008.186,2.694.28,5.4.28,8.045,0,2.692-.1,5.4-.291,8.042a.784.784,0,0,0-.58-.233,7.02,7.02,0,0,0-2.982.481.7.7,0,0,0-.368.443.912.912,0,0,0,.065.714.793.793,0,0,0,.711.4,1.08,1.08,0,0,0,.445-.1,3.984,3.984,0,0,1,1.641-.252H167a.763.763,0,0,0,.718-.43c.021.052.04.1.058.153v0a4.384,4.384,0,0,0,.255.581c.153.286.323.568.488.84h0a7.937,7.937,0,0,1,.952,1.957,4.034,4.034,0,0,1,.123,1.634,3.575,3.575,0,0,1-.575,1.528,3.824,3.824,0,0,1-1.622,1.348,8.545,8.545,0,0,1-2.048.594c-5.064.928-10.354,1.544-15.02,2.087-.549-3.734-1.036-7.819-1.489-12.488-.418-4.308-.768-8.678-1.076-12.533a.841.841,0,0,0-.314-.608.962.962,0,0,0-.6-.2.814.814,0,0,0-.6.241.731.731,0,0,0-.176.57c.344,4.294.685,8.492,1.089,12.63.458,4.694.948,8.811,1.5,12.585-.7.082-1.764.206-2.841.337-.69.083-1.4.183-2.084.28h0a40.829,40.829,0,0,1-5.635.531c-.381,0-.756-.011-1.113-.034a29.947,29.947,0,0,1-3.186-.428,23.464,23.464,0,0,0-3.951-.448,10.7,10.7,0,0,0-1.31.077c-1.517.186-3.052.449-4.536.7h0c-1.4.24-2.845.488-4.276.672-2.744.353-5.644.632-8.62.831C106.842,152.911,102.343,153.05,97.357,153.05ZM64.428,141.218a.979.979,0,0,0-.436.1l-.174.087A7.326,7.326,0,0,0,62,142.551a.745.745,0,0,0-.2.847.941.941,0,0,0,.836.586.814.814,0,0,0,.563-.237,5.139,5.139,0,0,1,1.326-.8l.006,0c.112-.054.218-.1.323-.157a.748.748,0,0,0,.375-.468.887.887,0,0,0-.071-.688A.814.814,0,0,0,64.428,141.218Zm21.843-.758a.689.689,0,0,0-.5.214.949.949,0,0,0-.156,1.065.827.827,0,0,0,.486.4,11.975,11.975,0,0,0,3.51.761h.024a.778.778,0,0,0,.792-.815.91.91,0,0,0-.2-.593.8.8,0,0,0-.616-.283,10.277,10.277,0,0,1-2.977-.672l-.084-.028A.877.877,0,0,0,86.271,140.46ZM16.26,133.9h-.03a.856.856,0,0,0-.832.744.942.942,0,0,0-.53.278.755.755,0,0,0-.213.554.942.942,0,0,0,.244.586.775.775,0,0,0,.573.26H15.5a1.643,1.643,0,0,0,1.575-1.576.854.854,0,0,0-.815-.846Zm98.92-2.556h-.017a18.1,18.1,0,0,0-2.008.183,18.11,18.11,0,0,1-2.008.183.791.791,0,0,0-.614.278.9.9,0,0,0-.2.59.783.783,0,0,0,.8.823h.017a18.1,18.1,0,0,0,2.008-.183,18.108,18.108,0,0,1,2.008-.183.791.791,0,0,0,.615-.278.906.906,0,0,0,.2-.59A.783.783,0,0,0,115.18,131.347Zm39.375-8.4a.742.742,0,0,0-.579.247.862.862,0,0,0-.2.553.922.922,0,0,0,.2.6.8.8,0,0,0,.617.292,4.026,4.026,0,0,1,1.631.549l.132.067a.879.879,0,0,0,.394.1.932.932,0,0,0,.866-.721.712.712,0,0,0-.407-.836,6.363,6.363,0,0,0-2.617-.846Zm-58.4-2.921a.778.778,0,0,0-.792.816.91.91,0,0,0,.2.593.8.8,0,0,0,.616.282,1.187,1.187,0,0,1,1.1.677.735.735,0,0,0,.663.421.954.954,0,0,0,.788-.457.8.8,0,0,0,.008-.817,2.913,2.913,0,0,0-2.555-1.515Zm-35.25,1.448a.927.927,0,0,0,.61.235.814.814,0,0,0,.58-.24.884.884,0,0,0,.244-.642.758.758,0,0,0-.244-.553,3.455,3.455,0,0,0-2.423-.613.778.778,0,0,0-.612.264.889.889,0,0,0-.2.581.8.8,0,0,0,.816.846h.356a3.9,3.9,0,0,1,.521.028,1.654,1.654,0,0,1,.217.043.725.725,0,0,1,.082.034.322.322,0,0,0,.057.023h0s0,0,0,0Zm78.326-12.362a.839.839,0,0,0-.7.377,4.114,4.114,0,0,1-1.223,1.153,5.739,5.739,0,0,1-1.558.65.778.778,0,0,0-.591.892.841.841,0,0,0,.8.77.924.924,0,0,0,.236-.032,6.475,6.475,0,0,0,3.791-2.58.7.7,0,0,0,.072-.753A.959.959,0,0,0,139.232,109.11ZM27.21,110.529h-.028a1.643,1.643,0,0,0-1.575,1.576.855.855,0,0,0,.815.846h.03a.857.857,0,0,0,.832-.744.942.942,0,0,0,.53-.278.755.755,0,0,0,.213-.554.942.942,0,0,0-.243-.586A.775.775,0,0,0,27.21,110.529Zm54.766-6.568a.855.855,0,0,0-.5.168.961.961,0,0,0-.329.412.757.757,0,0,0,.2.858,4.133,4.133,0,0,0,2.788,1.343h.029a.75.75,0,0,0,.586-.251.867.867,0,0,0,.2-.558.915.915,0,0,0-.2-.6.8.8,0,0,0-.616-.287,2.473,2.473,0,0,1-1.593-.848A.8.8,0,0,0,81.976,103.961Zm36.87-.736h-.032a.909.909,0,0,0-.594.253.821.821,0,0,0-.251.593c0,.01,0,.021,0,.031v.016a.792.792,0,0,0-.365.683.943.943,0,0,0,.243.586.773.773,0,0,0,.572.26h.029a1.158,1.158,0,0,0,1.075-.7,2.223,2.223,0,0,0,.135-.872.868.868,0,0,0-.241-.585A.8.8,0,0,0,118.846,103.225ZM45.8,98.477h0a.878.878,0,0,0-.619.275.776.776,0,0,0-.226.571.91.91,0,0,0,.253.594.82.82,0,0,0,.592.251h.047a.787.787,0,0,0,.65.365h.033a.939.939,0,0,0,.6-.253.769.769,0,0,0,.249-.593,1.158,1.158,0,0,0-.7-1.075,2.223,2.223,0,0,0-.871-.136Zm100.131-8.024a.985.985,0,0,0-.739.346.84.84,0,0,0-.177.713,11.376,11.376,0,0,1,0,4.664.813.813,0,0,0,.149.707.961.961,0,0,0,.737.348.73.73,0,0,0,.743-.606,13.565,13.565,0,0,0,0-5.562A.693.693,0,0,0,145.931,90.453ZM14.769,94.825h0a.777.777,0,0,0-.611.264.889.889,0,0,0-.2.581.8.8,0,0,0,.816.846h.062a3.97,3.97,0,0,1,1.7.25,1.052,1.052,0,0,0,.44.1.808.808,0,0,0,.716-.4.911.911,0,0,0,.066-.71.711.711,0,0,0-.369-.446,4.848,4.848,0,0,0-1.28-.387,8.257,8.257,0,0,0-1.338-.093Zm46-4.354a.8.8,0,0,0-.845.817,2.725,2.725,0,0,1-.25,1.4.97.97,0,0,0-.079.641.8.8,0,0,0,.382.516.841.841,0,0,0,.425.109.8.8,0,0,0,.731-.413,4.865,4.865,0,0,0,.48-2.253.778.778,0,0,0-.264-.612A.888.888,0,0,0,60.768,90.472Zm58.761-4.761a.8.8,0,0,0-.714.4.913.913,0,0,0-.065.715.7.7,0,0,0,.368.442,4.032,4.032,0,0,0,3.409,0,.7.7,0,0,0,.368-.442.913.913,0,0,0-.065-.715.794.794,0,0,0-.71-.4,1.082,1.082,0,0,0-.446.1,2.2,2.2,0,0,1-1.7,0A1.072,1.072,0,0,0,119.529,85.711ZM95.436,83.145a.819.819,0,0,0-.584.242l-1.1,1.1a.866.866,0,0,0-.243.63.778.778,0,0,0,.243.565.9.9,0,0,0,.611.242.82.82,0,0,0,.584-.242l1.1-1.1a.866.866,0,0,0,.243-.631.778.778,0,0,0-.243-.565A.9.9,0,0,0,95.436,83.145Zm60.039-3.657a.91.91,0,0,0,.59.221.819.819,0,0,0,.583-.24.88.88,0,0,0,.244-.634.773.773,0,0,0-.244-.562,2.932,2.932,0,0,0-2.058-.613.845.845,0,0,0,0,1.691c.088,0,.182,0,.278,0l.094.006c.053,0,.112.008.132.008h.007c.088.016.172.037.261.059h0l.022.005h.009a.092.092,0,0,0,.017.011.739.739,0,0,1,.076.056l.011.009-.026-.024Zm-16.915-5.1a.932.932,0,0,0-.866.721.712.712,0,0,0,.407.836l1.1.548,1.1.548a.879.879,0,0,0,.395.1.931.931,0,0,0,.865-.721.712.712,0,0,0-.407-.836l-2.19-1.1A.877.877,0,0,0,138.56,74.391ZM38.134,69.655a.8.8,0,0,0-.845.817,10.063,10.063,0,0,1-.335,3.062.754.754,0,0,0,.1.689.921.921,0,0,0,.736.351.8.8,0,0,0,.8-.59,11.753,11.753,0,0,0,.395-3.512.778.778,0,0,0-.264-.612A.888.888,0,0,0,38.134,69.655Zm27.015-3.316a.778.778,0,0,0-.612.264.89.89,0,0,0-.2.582.8.8,0,0,0,.816.845h1.825a.778.778,0,0,0,.612-.264.89.89,0,0,0,.2-.582.8.8,0,0,0-.816-.845Zm-43.755-4.4a.879.879,0,0,0-.278.048,8.546,8.546,0,0,0-3.293,1.678.744.744,0,0,0-.2.846.941.941,0,0,0,.836.586.814.814,0,0,0,.563-.237,6.091,6.091,0,0,1,2.361-1.181l.186-.062a.828.828,0,0,0,.486-.4.95.95,0,0,0-.156-1.065A.688.688,0,0,0,21.394,61.939Zm65.27-2.509a.856.856,0,0,0-.615.242.769.769,0,0,0-.206.574,3.671,3.671,0,0,0,.978,2.424.766.766,0,0,0,.562.26.914.914,0,0,0,.8-.563.8.8,0,0,0-.167-.893,1.965,1.965,0,0,1-.483-1.228.8.8,0,0,0-.282-.612A.914.914,0,0,0,86.663,59.429Zm35.432.339a.8.8,0,0,0-.593.245.893.893,0,0,0-.24.6.862.862,0,0,0,.24.6c.016.017.037.038.046.047.028.041.053.08.075.117.037.064.071.131.1.2l.039.077a2.829,2.829,0,0,0,.467.658.827.827,0,0,0,.6.245.8.8,0,0,0,.593-.245.893.893,0,0,0,.241-.6.861.861,0,0,0-.241-.6c-.018-.019-.037-.039-.046-.047-.029-.042-.053-.08-.075-.117-.038-.065-.072-.133-.1-.2l0-.005-.036-.07a2.826,2.826,0,0,0-.466-.658A.827.827,0,0,0,122.095,59.768ZM54.618,51.346a.875.875,0,0,0-.281.049,13.509,13.509,0,0,0-3.122,1.546.84.84,0,0,0-.349.449.88.88,0,0,0,0,.517.841.841,0,0,0,.762.636.79.79,0,0,0,.438-.142,11.711,11.711,0,0,1,2.719-1.376.832.832,0,0,0,.485-.4.927.927,0,0,0,.084-.574.917.917,0,0,0-.24-.49A.682.682,0,0,0,54.618,51.346Zm78.41-2.9a.778.778,0,0,0-.792.816.91.91,0,0,0,.2.593.8.8,0,0,0,.615.283,1.188,1.188,0,0,1,1.1.677.735.735,0,0,0,.663.421.954.954,0,0,0,.789-.457.8.8,0,0,0,.008-.817,2.912,2.912,0,0,0-2.555-1.514Zm-27.392-6.574a.742.742,0,0,0-.579.247.861.861,0,0,0-.2.553.921.921,0,0,0,.2.6.805.805,0,0,0,.617.292,4.026,4.026,0,0,1,1.631.549l.013.007.119.06a.879.879,0,0,0,.394.1.932.932,0,0,0,.866-.722.712.712,0,0,0-.407-.836,6.358,6.358,0,0,0-2.617-.846ZM45.85,39.3a.884.884,0,0,0-.274.046c-.6.2-1.225.376-1.826.548h0c-.6.172-1.22.35-1.824.547a.823.823,0,0,0-.486.4.912.912,0,0,0-.087.568.923.923,0,0,0,.242.5.694.694,0,0,0,.507.215.883.883,0,0,0,.274-.046c.6-.2,1.227-.376,1.828-.549s1.219-.35,1.822-.547a.823.823,0,0,0,.486-.4.913.913,0,0,0,.087-.568.922.922,0,0,0-.242-.5A.694.694,0,0,0,45.85,39.3Zm24.731,1.34h-.014a.646.646,0,0,0,.105.021c.051.009.109.018.135.025.08.022.161.045.239.068h0c.079.023.16.047.241.069A5,5,0,0,0,72.45,41h.029a.749.749,0,0,0,.585-.25.867.867,0,0,0,.2-.558.915.915,0,0,0-.2-.6.8.8,0,0,0-.616-.287,3.859,3.859,0,0,1-.936-.183,4.081,4.081,0,0,0-.889-.182h-.037a.778.778,0,0,0-.569.263.872.872,0,0,0-.239.583.821.821,0,0,0,.235.577.914.914,0,0,0,.589.267Zm70.137-6.8h0a.778.778,0,0,0-.612.264.889.889,0,0,0-.2.581.8.8,0,0,0,.816.845,16.214,16.214,0,0,1,3.791.335.938.938,0,0,0,.216.026.78.78,0,0,0,.574-.247.961.961,0,0,0,.257-.552.816.816,0,0,0-.107-.525.767.767,0,0,0-.49-.333,18.163,18.163,0,0,0-4.241-.4ZM108.923,23.253a.811.811,0,0,0-.563.239,6.1,6.1,0,0,1-1.781,1.051h0c-.2.089-.4.18-.6.276a.7.7,0,0,0-.41.826.936.936,0,0,0,.873.728.884.884,0,0,0,.39-.094c.176-.086.355-.17.529-.251h0a7.793,7.793,0,0,0,2.2-1.341.748.748,0,0,0,.2-.85A.94.94,0,0,0,108.923,23.253Zm-59.808-.375h-.029a7.265,7.265,0,0,0-2.982.846.7.7,0,0,0-.411.824.937.937,0,0,0,.875.73.886.886,0,0,0,.389-.093,5.3,5.3,0,0,1,2.129-.615.8.8,0,0,0,.616-.287.917.917,0,0,0,.2-.6.865.865,0,0,0-.2-.557A.749.749,0,0,0,49.115,22.878Zm24.447-2.916a.807.807,0,0,0-.536.209.971.971,0,0,0-.3.487.743.743,0,0,0,.393.873,4.23,4.23,0,0,1,1.522,1.888.718.718,0,0,0,.654.427.958.958,0,0,0,.783-.454.819.819,0,0,0,.022-.826,8.216,8.216,0,0,0-.887-1.408,4.18,4.18,0,0,0-1.242-1.087A.855.855,0,0,0,73.562,19.962Z" transform="translate(1.69 1.877)"/>
  </g>
  <g id="HEAD" transform="translate(78.592 38.043)">
    <path id="_Skin-2" data-name="âœ‹ Skin" d="M36.094.016C67.825,1.023,69.739,16.133,69.739,41.473S53.278,82.78,47.217,85.568,25.2,100.333,10.793,94.814.561,65.978.561,55.96,4.362-.991,36.094.016Z" transform="translate(18.78 22.212)" fill="#d08b5b"/>
    <path id="_hijab" data-name="ðŸ§• hijab" d="M0,39.279Q9.841-.951,35.932.023C62.022,1,61.747,27.656,60.11,25.225q-1.6-2.382-22.461-16.643L36.789,8Z" transform="translate(24.203 23.163)" fill="#9fd8e5"/>
    <path id="_Ink-2" data-name="ðŸ– Ink" d="M54.8,132.436c-4.425,0-8.639-1.7-12.177-3.365-6.31-2.965-12.6-6.276-18.685-9.477l0,0c-1.869-.984-3.8-2-5.705-2.992-4.726-2.46-8.59-4.489-12.158-6.385-.337-.179-.779-.419-1.214-.693H4.747l-.234,0c-.271,0-.55.017-.845.034s-.608.036-.91.036a4,4,0,0,1-1.216-.155A2.15,2.15,0,0,1,.1,107.979,2.544,2.544,0,0,1,0,107.111a3.829,3.829,0,0,1,.544-1.69,12.89,12.89,0,0,1,2.861-2.992l.2-.171c1.226-1.037,2.489-1.965,3.564-2.736.5-.359,1.013-.72,1.509-1.069.9-.632,1.826-1.286,2.718-1.956l.033-.051c.064-.1.129-.2.192-.3a16.862,16.862,0,0,0,2.439-7.317,24.231,24.231,0,0,1-1.429-1.978A51.59,51.59,0,0,1,7,74.665,65.8,65.8,0,0,1,4.272,61.494a60.61,60.61,0,0,1,.08-13.348A56.114,56.114,0,0,1,12.46,24.863a57.463,57.463,0,0,1,7-9.117A54.614,54.614,0,0,1,28.141,8.26,50.086,50.086,0,0,1,38.233,2.855,41.653,41.653,0,0,1,45.462.735,38.926,38.926,0,0,1,52.933,0a36.311,36.311,0,0,1,6.813.64,34.194,34.194,0,0,1,5.573,1.574A36.858,36.858,0,0,1,70.6,4.694a37.868,37.868,0,0,1,4.834,3.274,36.8,36.8,0,0,1,4.237,3.956,41.3,41.3,0,0,1,3.106,3.849,45.059,45.059,0,0,1,2.631,4.163,53.319,53.319,0,0,1,3.962,9.047,75.982,75.982,0,0,1,3.59,19.441,74.758,74.758,0,0,1-2.6,25.1,73.221,73.221,0,0,1-4.3,11.345A80.723,80.723,0,0,1,80.007,95.42c.218.327.458.676.78,1.129,1.072,1.5,2.216,3.128,3.32,4.815a33.449,33.449,0,0,1,2.623,4.657,16.76,16.76,0,0,1,1.446,5.086,13.37,13.37,0,0,1,.076,1.75,2.53,2.53,0,0,1-.767,1.7,2.419,2.419,0,0,1-1.674.747,1.923,1.923,0,0,1-1.147-.38,5.256,5.256,0,0,0-3.188-1.018,9.474,9.474,0,0,0-2.989.562c-1.107,1.406-2.255,2.817-3.411,4.193-1.56,1.855-2.973,3.52-4.48,5.124A43.193,43.193,0,0,1,65.61,128.4a20.507,20.507,0,0,1-5.063,2.929,15.744,15.744,0,0,1-5.724,1.11Zm-31.17-30.574a.809.809,0,0,0-.538.211.972.972,0,0,0-.3.489.739.739,0,0,0,.394.868,34.029,34.029,0,0,0,6.3,2.58,53.681,53.681,0,0,0,6.647,1.523.969.969,0,0,0,.161.014.93.93,0,0,0,.894-.87.684.684,0,0,0-.607-.774,54.1,54.1,0,0,1-6.44-1.454,32.2,32.2,0,0,1-6.109-2.478A.855.855,0,0,0,23.627,101.861Zm6.21-6.929a.944.944,0,0,0-.845.593.732.732,0,0,0,.213.833,29.961,29.961,0,0,0,4.2,3.207,34.316,34.316,0,0,0,4.648,2.46,43.605,43.605,0,0,0,10.109,2.95.968.968,0,0,0,.162.014.845.845,0,0,0,.627-.274,1.007,1.007,0,0,0,.266-.595.685.685,0,0,0-.607-.776,43.029,43.029,0,0,1-9.707-2.787,32.55,32.55,0,0,1-4.47-2.332,27.945,27.945,0,0,1-4.03-3.064A.823.823,0,0,0,29.837,94.933ZM60.905,24.317l-.415.339-.027.022-.4.324c-.685.56-1.372,1.125-2.037,1.672h0c-1,.822-2.033,1.672-3.055,2.5-3.648,2.957-7.253,5.973-9.987,8.27-5.342,4.489-12.393,10.4-19.556,16.305a33.277,33.277,0,0,0-.629,6.693,40.512,40.512,0,0,0,.608,6.7,43.43,43.43,0,0,0,1.91,7.118c.9,2.54,1.971,4.979,2.8,6.82,1.412,1.324,2.612,2.4,3.774,3.379,1.382,1.166,2.7,2.185,4.018,3.116a39.263,39.263,0,0,0,10.431,5.4,26.42,26.42,0,0,0,8.217,1.363,22.243,22.243,0,0,0,5.395-.652,21,21,0,0,0,5.156-2.046,27.078,27.078,0,0,0,6.724-5.4A35.127,35.127,0,0,0,78.8,79.159c2.835-5.275,4.4-11.406,4.782-18.743a85.893,85.893,0,0,0-.106-9.855c-.217-3.475-.582-6.891-.91-9.773a.978.978,0,0,1-.138.01,1.112,1.112,0,0,1-.286-.039,4.659,4.659,0,0,1-2.071-1.6c-.185-.207-.359-.4-.539-.583-.853-.862-1.726-1.7-2.593-2.488-1.655-1.505-3.433-2.975-5.285-4.368-1.832-1.376-3.772-2.659-5.648-3.9C64.318,26.7,62.568,25.538,60.905,24.317Zm.805-3.982a20.93,20.93,0,0,0-3.238.278,21.732,21.732,0,0,0-3.113.757,25.531,25.531,0,0,0-5.847,2.788c-1.758,1.119-3.565,2.4-5.372,3.8C42.5,29.242,40.8,30.668,39.1,32.2a61.241,61.241,0,0,0-4.419,4.385,46.994,46.994,0,0,0-3.872,4.866,37.094,37.094,0,0,0-3.086,5.366A31.2,31.2,0,0,0,25.66,52.7l-.014.059c-.028.12-.058.243-.085.366C31.3,47.494,37.4,41.786,43.7,36.159c1.923-1.718,3.884-3.457,5.781-5.138l0,0,0,0c1.273-1.129,2.589-2.3,3.882-3.446,1.461-1.3,2.965-2.6,4.42-3.852l.535-.461.591-.51.005,0c.62-.535,1.26-1.088,1.892-1.629.108-.093.217-.19.323-.284h0C61.322,20.663,61.515,20.493,61.71,20.336Zm2.865.173a1.054,1.054,0,0,1-.044.184,3.235,3.235,0,0,1-.705,1.165,9.127,9.127,0,0,1-1.016.907l0,0-.19.154c-.284.23-.568.463-.812.664A28.8,28.8,0,0,1,67.7,26.106a52.337,52.337,0,0,1,5.4,3.5,65.488,65.488,0,0,1,5.673,4.645c.876.8,1.747,1.639,2.589,2.494.133.134.276.27.427.414h0c.135.128.274.26.411.4l-.023-.2,0-.024-.037-.318a1.386,1.386,0,0,1,.272-.976,21.623,21.623,0,0,0-2.582-5.731,21.909,21.909,0,0,0-4.04-4.7A21.571,21.571,0,0,0,70.6,22.248,20.857,20.857,0,0,0,64.575,20.509Z" transform="translate(0.632 7.82)"/>
  </g>
  <g id="FACE" transform="translate(112.183 77.354)">
    <path id="_Ink-3" data-name="ðŸ– Ink" d="M22.824,40.539a8.045,8.045,0,0,1-3.052-.61,8.621,8.621,0,0,1-1.992-1.145,8.487,8.487,0,0,1-1.622-1.636,1.676,1.676,0,0,1-.338-1.3,1.871,1.871,0,0,1,.728-1.172,1.793,1.793,0,0,1,1.067-.372,1.548,1.548,0,0,1,.238.018,1.648,1.648,0,0,1,1.1.73l.065.09A5.7,5.7,0,0,0,21.108,36.9a4.735,4.735,0,0,0,2.069.483,4.583,4.583,0,0,0,.513-.029,5.388,5.388,0,0,0,2.278-.8,10.668,10.668,0,0,0,1.93-1.611c.138-.141.284-.294.474-.5a.751.751,0,0,1,.394-.3.806.806,0,0,1,.256-.041.871.871,0,0,1,.714.373.8.8,0,0,1,.135.524,4.812,4.812,0,0,1-.57,1.864,6.221,6.221,0,0,1-1.22,1.567,7.841,7.841,0,0,1-1.847,1.288,7.69,7.69,0,0,1-2.05.7A7.548,7.548,0,0,1,22.824,40.539Zm2.148-12.17h0a7.373,7.373,0,0,1-2.63-.53,13.281,13.281,0,0,1-3.093-1.756,1.189,1.189,0,0,1-.432-.687,1.423,1.423,0,0,1,.061-.771,1.754,1.754,0,0,1,.521-.753,1.267,1.267,0,0,1,.812-.317,1.151,1.151,0,0,1,.628.193l.209.161,0,0a16.744,16.744,0,0,0,1.936,1.347,4.768,4.768,0,0,0,2.321.74,2.505,2.505,0,0,0,.981-.193,2.74,2.74,0,0,0,.913-.647,2.8,2.8,0,0,0,.531-2.255,4.26,4.26,0,0,0-1.13-2,8.241,8.241,0,0,0-1.711-1.381.531.531,0,0,1-.144-.61.8.8,0,0,1,.264-.38.809.809,0,0,1,.505-.167,1.076,1.076,0,0,1,.181.016,5.736,5.736,0,0,1,2.018.729,4.577,4.577,0,0,1,1.357,1.252,4.974,4.974,0,0,1,.866,3.322,5.475,5.475,0,0,1-.444,1.744,5.087,5.087,0,0,1-1,1.5A4.779,4.779,0,0,1,24.972,28.369ZM7.859,16.485a1.724,1.724,0,0,1-1.119-.439,1.744,1.744,0,0,1-.587-1.128,12.706,12.706,0,0,1,.067-3.308c.04-.321.081-.654.11-1.012a1.98,1.98,0,0,1,.75-1.415,2.31,2.31,0,0,1,1.421-.5,1.751,1.751,0,0,1,1.075.338,1.594,1.594,0,0,1,.594,1.057,8.877,8.877,0,0,1-.926,5.469,1.754,1.754,0,0,1-.619.716A1.427,1.427,0,0,1,7.859,16.485Zm25.119-.75a1.508,1.508,0,0,1-1.183-.507A4.624,4.624,0,0,1,31.074,14a5.342,5.342,0,0,1-.368-1.477,3.131,3.131,0,0,1,.853-2.687,1.772,1.772,0,0,1,.137-.208,1.933,1.933,0,0,1,1.487-.856,1.611,1.611,0,0,1,.452.067,2.175,2.175,0,0,1,1.453,1.268,4.486,4.486,0,0,1,.18,2.453,8.214,8.214,0,0,1-.744,2.314,1.5,1.5,0,0,1-.643.635A1.947,1.947,0,0,1,32.979,15.735ZM.278,7.854a.274.274,0,0,1-.229-.14.306.306,0,0,1-.018-.3A10.425,10.425,0,0,1,2.368,4.454,14.446,14.446,0,0,1,5.5,2.317a13.445,13.445,0,0,1,3.714-1.3l.4-.069A9.66,9.66,0,0,1,11.226.776a2.5,2.5,0,0,1,2,.746,1.7,1.7,0,0,1,.4,1.208,1.106,1.106,0,0,1-.4.789,3.08,3.08,0,0,1-2.112.62c-.166,0-.338,0-.5-.008H10.6c-.16,0-.341-.009-.521-.009s-.314,0-.452.012a14.274,14.274,0,0,0-3.143.536A21.357,21.357,0,0,0,.424,7.806.26.26,0,0,1,.278,7.854Zm38.247-1.6h0l-.167-.042A9.458,9.458,0,0,1,36.524,5.5l-.6-.293A16.537,16.537,0,0,0,33.8,4.3a25.089,25.089,0,0,0-4.845-1.07,1.979,1.979,0,0,1-.972-.369,1.457,1.457,0,0,1-.544-.828A1.482,1.482,0,0,1,27.609.786a1.581,1.581,0,0,1,.767-.661A1.725,1.725,0,0,1,29.03,0a1.926,1.926,0,0,1,.377.038l.3.062a21.676,21.676,0,0,1,5.232,1.7,10.579,10.579,0,0,1,2.3,1.514,6.719,6.719,0,0,1,1.627,2.1c.057.439,0,.548-.055.622L38.8,6.06l-.015.02a.421.421,0,0,1-.26.173Z" transform="translate(11.197 10.99)"/>
  </g>
  <g id="ACCESORIES" transform="translate(88.521 88.978)">
    <path id="_Ink-4" data-name="ðŸ– Ink" d="M39.146,24.884h0A13.261,13.261,0,0,1,32.083,22.8a9.353,9.353,0,0,1-2.925-3,8.643,8.643,0,0,1-1.165-3.494,11.388,11.388,0,0,1,.383-4.253,3.852,3.852,0,0,1-1.125.148,5.49,5.49,0,0,1-1.64-.248,2.351,2.351,0,0,1-1.183-.732c-2.291-.2-4.606-.48-6.844-.754A102.858,102.858,0,0,0,5.125,9.452c-1,0-1.977.029-2.914.088a.655.655,0,0,0-.593.4,1.719,1.719,0,0,0-.034.7,1.725,1.725,0,0,1-.033.693.649.649,0,0,1-.586.4,1.011,1.011,0,0,1-.948-.964,2.57,2.57,0,0,1,.244-1.39,1.783,1.783,0,0,1,.879-.945c.419-.3,1.7-.459,3.69-.459a83.676,83.676,0,0,1,9.582.7A81.5,81.5,0,0,1,24.53,10.493a3.572,3.572,0,0,1,2-.479,14.514,14.514,0,0,1,1.889.166c.2.027.394.052.573.073a12.677,12.677,0,0,1,1.591-2.785,15.625,15.625,0,0,1,2.441-2.6,12.519,12.519,0,0,1,3.037-1.922,8.442,8.442,0,0,1,3.378-.75,7.04,7.04,0,0,1,1.135.092,15.639,15.639,0,0,1,3.286.52,10.275,10.275,0,0,1,2.865,1.272,8.728,8.728,0,0,1,2.3,2.194A11.025,11.025,0,0,1,50.6,9.561a8.115,8.115,0,0,1,2.7-1.578,9.576,9.576,0,0,1,3.2-.561,7.057,7.057,0,0,1,3.61.906,13.526,13.526,0,0,1,3.144-4.46,12.513,12.513,0,0,1,4.721-2.751A5.715,5.715,0,0,1,71.322,0a6.2,6.2,0,0,1,2.6.6,8.835,8.835,0,0,1,2.33,1.6,11.3,11.3,0,0,1,1.866,2.3,11.131,11.131,0,0,1,1.212,2.683A2.557,2.557,0,0,1,80.441,6.7a5.865,5.865,0,0,1,1.2-.12,1.123,1.123,0,0,1,.66.354.756.756,0,0,1,.184.563c-.038.4-.426.812-1.207.812a4.063,4.063,0,0,1-1.757-.5,15.085,15.085,0,0,1,.28,6.261,10.375,10.375,0,0,1-2.044,4.583,10.251,10.251,0,0,1-1.847,1.81,11.08,11.08,0,0,1-2.194,1.294A12.174,12.174,0,0,1,68.8,22.8h0a11.736,11.736,0,0,1-2.292-.224,10.594,10.594,0,0,1-2.158-.672,9.3,9.3,0,0,1-1.92-1.122,8.381,8.381,0,0,1-1.579-1.573,8.673,8.673,0,0,1-1.668-4.051,13.681,13.681,0,0,1,.451-5.572,16.889,16.889,0,0,0-3.929-.5,10.936,10.936,0,0,0-4.917,1.083,11.3,11.3,0,0,1,.418,2.69,11.02,11.02,0,0,1-.225,2.594,11.306,11.306,0,0,1-.8,2.424,11.79,11.79,0,0,1-1.309,2.18,12.182,12.182,0,0,1-9.718,4.827ZM40.5,3.818h0a15.239,15.239,0,0,0-5.324,1.063,13.487,13.487,0,0,0-4.32,4.911,12.475,12.475,0,0,0-1.127,3.052,9.55,9.55,0,0,0-.2,3.1,7.221,7.221,0,0,0,1.475,3.715,8.845,8.845,0,0,0,3.832,2.726,10.98,10.98,0,0,0,2.059.608,11.294,11.294,0,0,0,2.122.2,11.122,11.122,0,0,0,4.668-1.02,10.19,10.19,0,0,0,2.043-1.261,9.7,9.7,0,0,0,1.7-1.748A10.3,10.3,0,0,0,49.5,13.885a10.152,10.152,0,0,0-.109-2.735A9.5,9.5,0,0,0,48.562,8.6a8.7,8.7,0,0,0-1.28-1.911A8.246,8.246,0,0,0,45.5,5.174a8.573,8.573,0,0,0-2.266-1A10.17,10.17,0,0,0,40.5,3.818Zm30.275-2.33a.118.118,0,0,0-.052.01,10.3,10.3,0,0,0-2.009.519c-.356.118-.691.229-.991.3A12.5,12.5,0,0,0,62.56,6.956,12.011,12.011,0,0,0,60.514,13.5a8.049,8.049,0,0,0,.3,2.1,6.98,6.98,0,0,0,.881,1.923,8.078,8.078,0,0,0,3.744,2.951,9.093,9.093,0,0,0,1.766.53,9.7,9.7,0,0,0,1.839.175,9.887,9.887,0,0,0,3.613-.685,9.06,9.06,0,0,0,1.628-.844A8.329,8.329,0,0,0,75.7,18.484a7.95,7.95,0,0,0,1.621-2.335,10.771,10.771,0,0,0,.858-2.871,12.957,12.957,0,0,0-.526-6.139,10.548,10.548,0,0,0-.973-2.081,8.451,8.451,0,0,0-1.392-1.73,7.047,7.047,0,0,0-1.806-1.244,6.935,6.935,0,0,0-2.215-.625.5.5,0,0,1-.234.055.9.9,0,0,1-.142-.013l-.016,0A.646.646,0,0,0,70.777,1.487ZM28.835,10.635h0l-.106.047h0L28.7,10.7l.012,0,.012,0a.27.27,0,0,1,.047.03l.021.015c.008-.022.017-.044.025-.065v0l.019-.047Z" transform="translate(2.957 1.691)"/>
  </g>
</svg>
