<svg id="peep-61" xmlns="http://www.w3.org/2000/svg" width="240" height="324" viewBox="0 0 240 324">
  <g id="BODY" transform="translate(31.056 135.053)">
    <path id="_Skin" data-name="âœ‹ Skin" d="M27.8,162.868c-.073,0-.153,0-.238-.007a90.249,90.249,0,0,1-12.994-1.689c-3.754-.747-7.676-1.712-12.716-3.126a2.574,2.574,0,0,1-1.329-.913A2.471,2.471,0,0,1,0,155.61c.158-12.222.508-24.534,1.04-36.595.477-10.808,1.114-21.762,1.895-32.557.34-4.7.712-9.453,1.108-14.133l.172-2.018c.046-.531.088-1.07.129-1.592a53.413,53.413,0,0,1,.736-6.226,14.114,14.114,0,0,1,1.225-3.567A15.954,15.954,0,0,1,8.4,55.785a47.088,47.088,0,0,1,3.569-3.219C13.8,51,16.183,49.03,18.669,47.01c4.475-3.636,10.03-8.018,12.2-9.413,2.568-1.649,5.266-3.153,7.875-4.608,1.353-.754,2.752-1.534,4.118-2.326a7.426,7.426,0,0,1,2.208-.767,5.4,5.4,0,0,0,2.478-1.035c.424-.353,4.135-1.871,7.723-3.339,2.737-1.12,5.566-2.277,6.842-2.881L62.2,22.6A26.6,26.6,0,0,0,65.4,20.837a12.22,12.22,0,0,0,2.673-2.351,10.455,10.455,0,0,0,.966-2.673,15.885,15.885,0,0,0,.577-3.148c0-.381,0-.772-.008-1.151a18.27,18.27,0,0,1,.519-5.641,8.163,8.163,0,0,1,.815-1.814,7.577,7.577,0,0,1,2.743-2.665A8.1,8.1,0,0,1,75.524.633,20.657,20.657,0,0,1,81.032,0c1.331,0,2.639.08,3.508.14,1.246.086,2.885.22,4.522.492A21.183,21.183,0,0,1,93.448,1.8a11.912,11.912,0,0,1,3.284,1.938,10.066,10.066,0,0,1,2.4,2.953A14.345,14.345,0,0,1,100.3,9.663a24.545,24.545,0,0,1,.629,3.136c.13.917.236,1.832.323,2.607l.2,1.811c.079.691.147,1.212.285,1.984a17.842,17.842,0,0,0,.747,2.956,9.316,9.316,0,0,0,1.349,2.52,11.835,11.835,0,0,0,2.089,2.116,15.92,15.92,0,0,0,2.461,1.588,42.586,42.586,0,0,0,5.5,2.28c.581.21,1.181.427,1.763.646a9.788,9.788,0,0,1,3.539,2.2,7.083,7.083,0,0,1,1.944,3.653c.133.66,1.411,2.492,3.8,5.446,1.981,2.45,4.658,5.592,7.957,9.338,5.808,6.595,11.854,13.133,12.941,14.155l.059.055c1.342,1.209,1.481,3.28,1.6,5.107.031.458.06.89.106,1.3.249,2.2.489,4.435.716,6.654.458,4.492.872,9.048,1.23,13.54.7,8.794,1.216,17.723,1.533,26.539s.444,17.763.376,26.581l-.009,1c-.005.549-.008,1.1-.011,1.64-.009,1.679-.018,3.414-.094,5.116-.119,2.654-1.045,4.487-2.751,5.449a7.385,7.385,0,0,1-2.565.818,24.372,24.372,0,0,1-2.745.2c-.316.011-.642.023-.957.039l-.124.006c-2.118.116-4.362.218-6.67.3-6.321.234-13.158.343-21.514.343-1.748,0-3.585,0-5.617-.014-3.263-.015-6.582-.041-9.792-.066h-.022c-5.038-.039-10.248-.08-15.371-.08-5.332,0-10.018.045-14.327.136-5.131.109-9.814.285-14.318.537-.34.019-.75.029-1.221.029-2.314,0-5.843-.224-9.579-.461l-.346-.022c-3.569-.226-7.614-.483-10.386-.483-.888,0-1.615.027-2.16.08a3.132,3.132,0,0,0-2.111.716,1.116,1.116,0,0,0-.141.915c.034.242.064.451-.062.6S28.2,162.868,27.8,162.868ZM80.337,58.584,62.953,92.453h11.3l-8.1,18.818H83.949l-6.313,26.358,36.1-45.176H100.189l13.546-17.787h-9.4l9.4-15.063Z" transform="translate(10.985 -11.624)" fill="#d08b5b"/>
    <path id="_Top" data-name="ðŸ‘• Top" d="M63.017,3.774,56.262,80.728,0,82.122V0Z" transform="translate(68.458 41.199)" fill="#fdea6b"/>
    <path id="_Ink" data-name="ðŸ– Ink" d="M29.583,156.751h0a2.2,2.2,0,0,1-.291-.02,2.3,2.3,0,0,1-1.5-.927,1.9,1.9,0,0,1-.385-1.438c-.233-5.3-.136-10.7-.041-15.931v-.025q.012-.668.024-1.336c.088-4.892.269-9.877.551-15.239.252-4.786.58-9.763,1-15.217.482-6.2.957-10.953,1.54-15.4.07-.537.138-1.085.2-1.615a57.425,57.425,0,0,1,.944-5.943c.153-.657.289-1.35.421-2.021.109-.557.222-1.132.346-1.7l-.068-.108c-.256-.4-.52-.823-.792-1.219-.94-1.371-1.9-2.68-2.85-3.891A95.14,95.14,0,0,0,7.354,55.192a1.661,1.661,0,0,1,.108,1.131,1.349,1.349,0,0,1-.651.89c-.106,4.327-.418,8.718-.718,12.964v0c-.064.905-.131,1.841-.194,2.763-.68,9.9-.948,15.27-1.106,18.844-.305,6.9-.433,13.076-.39,18.871.048,6.422.2,12.775.439,18.882.141,3.485.286,6.6.442,9.539.064,1.2.138,2.411.21,3.587v.006c.025.4.055.9.084,1.38q.009.143.018.286a9.384,9.384,0,0,1-.019,2.111,2.96,2.96,0,0,1-.308.93,2.4,2.4,0,0,1-.667.773l0,.014v0l0,.023a1.268,1.268,0,0,1-.437.8,1.236,1.236,0,0,1-.784.3.956.956,0,0,1-.584-.191,1.135,1.135,0,0,1-.393-.612c-.01-.035-.02-.071-.03-.1h0c-.01-.033-.02-.068-.029-.1C.973,147.458.89,145.825.81,144.246c-.01-.2-.021-.407-.034-.608-.107-1.662-.209-3.424-.311-5.387-.177-3.422-.306-7.05-.382-10.783-.127-6.174-.109-12.6.053-19.1.154-6.16.442-12.579.858-19.079.442-6.938,1-13.165,1.7-19.036A125.148,125.148,0,0,1,4.86,57.229a3.122,3.122,0,0,1-1.29-.743A3.662,3.662,0,0,1,2.7,55.146a4.257,4.257,0,0,1-.287-1.381,4.34,4.34,0,0,1,.168-1.352,5.593,5.593,0,0,0-.289.873.111.111,0,0,1-.111.093.145.145,0,0,1-.108-.051.137.137,0,0,1-.03-.112,7.239,7.239,0,0,1,.907-2.422,24.011,24.011,0,0,1,1.463-2.2h0c.133-.184.27-.375.4-.559A57.756,57.756,0,0,1,8.448,43.4c1.1-1.255,2.272-2.5,3.493-3.688,1.177-1.15,2.433-2.289,3.733-3.387a84.225,84.225,0,0,1,8.066-5.99c2.656-1.745,5.491-3.427,8.67-5.141,2.708-1.46,5.664-2.942,9.037-4.529.8-.375,1.627-.762,2.544-1.182a1.283,1.283,0,0,1,.532-.12,1.17,1.17,0,0,1,.25.027h0a1.576,1.576,0,0,1,.446-.063,2.2,2.2,0,0,1,1.326.492l.034.027a6.084,6.084,0,0,1,1.2,1.133,1.361,1.361,0,0,1,.207,1.04c1.385-.373,2.824-.842,4.4-1.433,3.367-1.262,6.582-2.775,9.587-4.216l.578-.275a29.7,29.7,0,0,0,3.541-1.883,8.883,8.883,0,0,0,2.817-2.745,12.546,12.546,0,0,0,1.372-4.388l0-.013.047-.258c.108-.584.209-1.181.308-1.758.212-1.248.432-2.537.728-3.783a1.618,1.618,0,0,1,.621-.906A1.76,1.76,0,0,1,73.024,0a2.062,2.062,0,0,1,.87.235,1.321,1.321,0,0,1,.711.837,2.46,2.46,0,0,1,.079,1.11c-.213,1.425-.525,2.865-.828,4.259h0c-.115.529-.234,1.076-.345,1.614a15,15,0,0,1-1.777,5.062,11.834,11.834,0,0,1-3.489,3.442,31.111,31.111,0,0,1-4.356,2.331,74.651,74.651,0,0,1-10.789,4.3,31.477,31.477,0,0,1-5.55,1.05c-.059.006-.136.013-.211.017.847.464,1.712.923,2.527,1.353,3,1.586,5.683,2.9,8.2,4.009a76.073,76.073,0,0,0,14.884,4.816A74.755,74.755,0,0,0,88.5,36.092c.4,0,.8,0,1.195-.01a72.037,72.037,0,0,0,8.071-.584,67.612,67.612,0,0,0,7.949-1.519,51.616,51.616,0,0,0,8.273-2.794A41.135,41.135,0,0,0,118.239,29c.354-.211.693-.43,1.008-.636-2.445-.827-4.89-1.775-7.254-2.691h0l-.232-.09a22.923,22.923,0,0,1-4.284-2.107,13.412,13.412,0,0,1-3.493-3.217,13.315,13.315,0,0,1-1.943-3.736,19.451,19.451,0,0,1-.882-4.131,28.967,28.967,0,0,1,.2-8.331.2.2,0,0,1,.206-.163.236.236,0,0,1,.231.163c.338,1.185.59,2.411.833,3.6.278,1.352.565,2.75.981,4.1a29.83,29.83,0,0,0,1.269,3.427,16.009,16.009,0,0,0,1.833,3.15,10,10,0,0,0,3.091,2.625,24.612,24.612,0,0,0,3.739,1.648c1.576.581,3.192,1.127,4.756,1.655l.006,0c1.038.351,2.11.713,3.16,1.082a16.714,16.714,0,0,1,4.02.9c-.545-.367-1.007-.7-1.413-1.023a.087.087,0,0,1-.029-.1.126.126,0,0,1,.112-.083.1.1,0,0,1,.024,0,27.415,27.415,0,0,1,4.93,2.016l.109.053c1.743.851,3.287,1.689,4.722,2.56,1.772,1.077,3.3,2.088,4.669,3.089A40.541,40.541,0,0,1,142.9,36.34a51.111,51.111,0,0,1,6.822,8.367c.895,1.326,1.813,2.769,2.806,4.409.4.655.824,1.368,1.339,2.245.111.189.232.383.349.57a7.448,7.448,0,0,1,1.035,2.129,5.14,5.14,0,0,1-.228,1.331c-.168.694-.412,1.581-.687,2.5a26.842,26.842,0,0,1-1.616,4.4c-.069.109-.136.212-.2.315a1.454,1.454,0,0,1-1.215.694,1.525,1.525,0,0,1-1.1-.492,1.407,1.407,0,0,1-.373-1.081c-.117.1-.227.2-.326.289v.007c.825,4.945,1.678,10.058,2.285,15.181,1.282,10.842,2.144,21.9,2.979,32.6h0l0,.041c.1,1.263.2,2.568.3,3.852.471,6.007.82,11.966,1.166,18.049.188,3.335.345,6.357.482,9.238.075,1.553.148,3.125.212,4.511l.005.109c.017.378.047.758.078,1.162a11.473,11.473,0,0,1-.1,3.676,2.259,2.259,0,0,1-.839,1.292,2.229,2.229,0,0,1-1.324.414,2.678,2.678,0,0,1-1.46-.442,2.507,2.507,0,0,1-.991-1.264,7.4,7.4,0,0,1-.295-2.3c0-.213-.01-.433-.02-.645l-.064-1.373-.063-1.355c-.082-1.721-.166-3.417-.247-5.041-.084-1.684-.166-3.388-.246-5.035l0-.041c-.079-1.639-.161-3.334-.244-5-.311-6.267-.635-12.638-.947-18.8l0-.067c-.286-5.64-.582-11.471-.869-17.223-.044-.884-.09-1.788-.13-2.586v0c-.258-5.128-.525-10.43-.667-15.65-.1-3.68-.105-7.421-.112-11.04q0-.625,0-1.251c-.072.065-.145.133-.216.2h0l-.119.11c-1.611,1.514-2.9,2.782-4.058,3.993-.559.585-1.291,1.359-2,2.158-.139.157-.277.32-.411.478a7.384,7.384,0,0,1-1.556,1.511,1.359,1.359,0,0,1-.791.238,2.033,2.033,0,0,1-1.3-.508c-.047-.043-.094-.083-.139-.122a1.2,1.2,0,0,1-.159-.168c-.006,1.024-.012,2.235-.017,3.456-.02,7.022.061,13.342.245,19.322.212,6.855.556,13.165,1.052,19.292.472,5.84,1.086,12.019,1.935,19.444.352,3.087.748,6.277,1.175,9.483.206,1.543.425,3.109.67,4.789.041.282.1.576.148.861v0a11.221,11.221,0,0,1,.23,1.75,2.531,2.531,0,0,1-.258,1.192,4.9,4.9,0,0,1-.693,1,1.26,1.26,0,0,1-.96.394,1.472,1.472,0,0,1-.356-.043,2.865,2.865,0,0,1-.608.884,4.565,4.565,0,0,1-3.354,1.049c-.378,0-.755-.015-1.12-.03h-.019c-.372-.015-.724-.029-1.07-.029-.11,0-.211,0-.309,0l-5.116.151h-.041l-7.715.228-1.336.04c-14.773.438-30.05.891-45.086,1.334-7.6.226-15.414.428-23.212.6-2.345.05-4.827.074-7.587.074-1.258,0-2.572,0-4.018-.015a75.613,75.613,0,0,1-8.727-.545,2.157,2.157,0,0,1-1.908,1.153Zm63.3-57.3h0a1.256,1.256,0,0,1,1.086.6,1.219,1.219,0,0,1,.018,1.219l-.09.172c-.1.186-.2.378-.295.568-1.659,3.189-3.324,6.443-4.934,9.589l0,0c-.778,1.52-1.582,3.092-2.38,4.647L84.3,120.132l-.1.191-1.755,3.419-.009.017-.008.015c1.39-1.706,2.805-3.488,4.206-5.3.726-.937,1.48-1.909,2.145-2.767C93.474,109.659,98.328,103.4,102.794,97c1.343-1.925,2.638-3.887,3.849-5.732.636-.97,1.286-1.972,1.933-2.98.02-.03.068-.119.129-.232.114-.21.286-.527.42-.732-.1-.005-.2-.013-.3-.021-.176-.014-.357-.029-.538-.029a2.512,2.512,0,0,0-.477.042c-.745.145-1.5.352-2.223.553-.344.1-.7.193-1.05.284-1.721.44-3.471.889-5.162,1.323l-.007,0-.711.182c-.263.066-.528.134-.785.2l-.051.013a2.913,2.913,0,0,1-.721.1,1.014,1.014,0,0,1-.967-.428c-.148-.3-.031-.713.338-1.195l.015-.02c.25-.325.508-.661.768-.992,1.526-1.963,3.023-4.1,4.471-6.164a101.122,101.122,0,0,1,7.195-9.459c-2.208.167-4.2.314-6.2.421l-.063,0a1.44,1.44,0,0,1-1.231-.822,1.282,1.282,0,0,1,.049-1.352c.227-.315.437-.6.642-.877a32.29,32.29,0,0,0,2.27-3.907A30.449,30.449,0,0,1,106.85,61l.259-.33c1.565-2,3.182-4.065,4.837-6.046l-.2-.169a1.736,1.736,0,0,1-1.438.532c-.232,0-.461-.017-.682-.033h0l-.262-.018c-.919-.05-1.893-.111-2.894-.182-1.679-.117-5.537-.2-9.622-.282-5.415-.113-11.014-.229-11.735-.441l-.146.4c-.386,1.068-.75,2.076-1.208,3.1-.574,1.285-1.179,2.638-1.906,4.259-1.232,2.747-2.544,5.492-3.78,8.048l-1.9,3.928-.222.46-1.836,3.8c-.208.43-.423.862-.631,1.281-.44.886-.895,1.8-1.3,2.718a4.214,4.214,0,0,0-.4,1.507,60.53,60.53,0,0,1,7.5-1.612,63.537,63.537,0,0,1,7.638-.666c.141,0,.285-.007.423-.009h.031l.112,0a101.832,101.832,0,0,0-6.434,10.278,93.564,93.564,0,0,0-5.084,10.925.678.678,0,0,0,.173.8l-.083.169,0,0c-.033.067-.067.136-.1.2l.35-.1.255-.075a1.029,1.029,0,0,0,.2.019.886.886,0,0,0,.656-.272c4.988-1.463,10.1-2.714,15.2-3.719A1.412,1.412,0,0,1,92.888,99.449Zm47.748-28.661a1.851,1.851,0,0,1-.122.2c.029-.031.059-.06.086-.087l.036-.036ZM43.962,22.1h0l-.235.107c.229.138.477.286.758.45-.078-.076-.155-.157-.23-.236h0c-.05-.052-.1-.107-.152-.158a1.4,1.4,0,0,1-.139-.163Z" transform="translate(9.085 -4.861)"/>
  </g>
  <g id="HEAD" transform="translate(78.592 38.043)">
    <path id="_Skin-2" data-name="âœ‹ Skin" d="M72.495,12.085C70.323,4.225,62.022.8,54.546.252,34.3-1.858,13.7,9.455,4.726,27.8c-7.183,13.929-7.408,28.56,8.033,36.513.843.466,1.724.964,2.623,1.416a19.864,19.864,0,0,0,2.464,2.016,47.993,47.993,0,0,0,28.729,7.42c14.766-.3,20.038-10.343,23.263-23.225,3.4-12.825,5.3-26.74,2.656-39.854Z" transform="translate(13.071 30.857)" fill="#d08b5b"/>
    <path id="_Ink-2" data-name="ðŸ– Ink" d="M110.859,107.088c-.689-2.09-1.554-4.117-2.361-6.165a22.569,22.569,0,0,1-.314-3.088,46.489,46.489,0,0,1,1.355-11.056,223.937,223.937,0,0,0,4.088-22.067c1.5-13.364.607-27.26-5.456-39.459C102.918,14.685,94.015,6.043,82.514,2.805a49.248,49.248,0,0,0-10.422-1.7q-.654-.1-1.305-.2A69.327,69.327,0,0,0,55.973.115,46.208,46.208,0,0,0,32.782,7.692a34.606,34.606,0,0,0-14.058,19.38c-2.369,8.384-2.168,17.465-6.258,25.325-1.208,2.322-2.619,4.53-3.964,6.775C4.932,63.164,1.057,67.6.207,73.092-.84,79.876,3.053,85.61,6.739,90.9c3.331,4.781,7.851,11.383,4.423,17.269-1.617,2.777-4.208,4.855-6.154,7.387A24.6,24.6,0,0,0,.6,124.433a18.892,18.892,0,0,0,3.966,17.1,20.893,20.893,0,0,0,7.824,5.364c3.03,1.3,5.989,2.53,8.494,4.738a32.354,32.354,0,0,1,3.183,3.272,24.973,24.973,0,0,0,3.211,4.039c1.335,1.363,3.949-.5,2.724-2.107l-.27-.353c-.9-1.171-1.8-2.342-2.739-3.475A19.171,19.171,0,0,1,24.5,137.873a18.761,18.761,0,0,1,1.508-3.853c.135.353.282.7.438,1.046a20.61,20.61,0,0,0,2.543,4.271,11.333,11.333,0,0,0,.451,2.748c1.67,5.582,7.252,8.336,12.287,10.479.493.211.98.414,1.459.615,1.316.551,2.707-1.327,1.887-2.46-.215-.3-.424-.6-.622-.911A18.142,18.142,0,0,1,41.6,137.393c.67-4.618,3.386-8.439,6.082-12.106,2.648-3.606,5.492-7.285,6.677-11.683,1.311-4.859.118-9.7-1.906-14.175-1.853-4.092-4.322-7.864-6.392-11.844q1.063,1.063,2.194,2.055a14.768,14.768,0,0,0,2.722,2.119.746.746,0,0,0,.9-1.167,31.766,31.766,0,0,0-2.62-2.2c-.824-.706-1.624-1.44-2.4-2.194-.961-.928-1.875-1.9-2.756-2.9a45.961,45.961,0,0,1-1.759-5.527A30.546,30.546,0,0,1,41.147,69.9c.046-2.7,1.446-4.593,3.31-6.406.789-.768,1.586-1.527,2.382-2.287,1.694-1.247,3.292-2.64,4.844-4.029,2.766-2.475,5.441-5.091,8-7.784q1.028-1.084,2.036-2.192,3.518-3.619,6.691-7.538a31.57,31.57,0,0,0,6-2.969c-.822.835-1.653,1.659-2.479,2.49a45.841,45.841,0,0,1-5.886,5.22.24.24,0,0,0,.184.436,23.206,23.206,0,0,0,7.621-2.889,35.379,35.379,0,0,0,6.514-5.459,24.483,24.483,0,0,0,3.192-1.8l.158-.1c-.974,3.094-2.4,6.6-5.45,7.7-.1.036-.093.2.025.194a9.292,9.292,0,0,0,6.258-3,41.673,41.673,0,0,0,3.752-3.036,44.848,44.848,0,0,0,3.289-3.361C90.129,35.97,88.5,38.791,86.9,41.58c-.084.148.093.349.245.245A27.142,27.142,0,0,0,95.2,33.05c.31-.517.607-1.042.9-1.571q-.327,1.242-.711,2.469c-.461,1.481-.916,2.966-1.378,4.447a23.345,23.345,0,0,1-.886,2.345,5.524,5.524,0,0,0-.6,1.7.06.06,0,0,0,.075.057c1.351-.339,2.609-1.883,3.572-2.84a15.809,15.809,0,0,0,1.5-1.734c.086,3.552.145,7.1.067,10.667-.145,6.543-.567,13.085-1.107,19.607-.476,5.766-.829,11.817-4.037,16.828a19.4,19.4,0,0,1-10.885,7.862q-.579.174-1.164.313C74.21,94.7,67.9,93,62.3,89.979a1.486,1.486,0,0,0-1.5,2.566A27.357,27.357,0,0,0,81.46,95.929c-.217,8.143,3.786,15.868,7.769,22.775a81.4,81.4,0,0,1,6.034,11.9,40.713,40.713,0,0,1,2.551,11.049,61.083,61.083,0,0,1-.618,13.417c-.034.241-.067.484-.1.725a1.134,1.134,0,0,0,1.64,1.264c4.092-2.156,5.857-6.751,6.93-11a79.764,79.764,0,0,0,2.064-12.123,37.106,37.106,0,0,1,1.358,4.73c.049.231.095.461.141.691a1.37,1.37,0,0,0,2.623,0c.059-.226.116-.452.169-.681a57.391,57.391,0,0,0-1.157-31.586" transform="translate(-15.601 9.933)"/>
  </g>
  <g id="FACE" transform="translate(112.183 77.354)">
    <path id="_Ink-3" data-name="ðŸ– Ink" d="M22.824,40.539a8.045,8.045,0,0,1-3.052-.61,8.621,8.621,0,0,1-1.992-1.145,8.487,8.487,0,0,1-1.622-1.636,1.676,1.676,0,0,1-.338-1.3,1.871,1.871,0,0,1,.728-1.172,1.793,1.793,0,0,1,1.067-.372,1.548,1.548,0,0,1,.238.018,1.648,1.648,0,0,1,1.1.73l.065.09A5.7,5.7,0,0,0,21.108,36.9a4.735,4.735,0,0,0,2.069.483,4.583,4.583,0,0,0,.513-.029,5.388,5.388,0,0,0,2.278-.8,10.668,10.668,0,0,0,1.93-1.611c.138-.141.284-.294.474-.5a.751.751,0,0,1,.394-.3.806.806,0,0,1,.256-.041.871.871,0,0,1,.714.373.8.8,0,0,1,.135.524,4.812,4.812,0,0,1-.57,1.864,6.221,6.221,0,0,1-1.22,1.567,7.841,7.841,0,0,1-1.847,1.288,7.69,7.69,0,0,1-2.05.7A7.548,7.548,0,0,1,22.824,40.539Zm2.148-12.17h0a7.373,7.373,0,0,1-2.63-.53,13.281,13.281,0,0,1-3.093-1.756,1.189,1.189,0,0,1-.432-.687,1.423,1.423,0,0,1,.061-.771,1.754,1.754,0,0,1,.521-.753,1.267,1.267,0,0,1,.812-.317,1.151,1.151,0,0,1,.628.193l.209.161,0,0a16.744,16.744,0,0,0,1.936,1.347,4.768,4.768,0,0,0,2.321.74,2.505,2.505,0,0,0,.981-.193,2.74,2.74,0,0,0,.913-.647,2.8,2.8,0,0,0,.531-2.255,4.26,4.26,0,0,0-1.13-2,8.241,8.241,0,0,0-1.711-1.381.531.531,0,0,1-.144-.61.8.8,0,0,1,.264-.38.809.809,0,0,1,.505-.167,1.076,1.076,0,0,1,.181.016,5.736,5.736,0,0,1,2.018.729,4.577,4.577,0,0,1,1.357,1.252,4.974,4.974,0,0,1,.866,3.322,5.475,5.475,0,0,1-.444,1.744,5.087,5.087,0,0,1-1,1.5A4.779,4.779,0,0,1,24.972,28.369ZM7.859,16.485a1.724,1.724,0,0,1-1.119-.439,1.744,1.744,0,0,1-.587-1.128,12.706,12.706,0,0,1,.067-3.308c.04-.321.081-.654.11-1.012a1.98,1.98,0,0,1,.75-1.415,2.31,2.31,0,0,1,1.421-.5,1.751,1.751,0,0,1,1.075.338,1.594,1.594,0,0,1,.594,1.057,8.877,8.877,0,0,1-.926,5.469,1.754,1.754,0,0,1-.619.716A1.427,1.427,0,0,1,7.859,16.485Zm25.119-.75a1.508,1.508,0,0,1-1.183-.507A4.624,4.624,0,0,1,31.074,14a5.342,5.342,0,0,1-.368-1.477,3.131,3.131,0,0,1,.853-2.687,1.772,1.772,0,0,1,.137-.208,1.933,1.933,0,0,1,1.487-.856,1.611,1.611,0,0,1,.452.067,2.175,2.175,0,0,1,1.453,1.268,4.486,4.486,0,0,1,.18,2.453,8.214,8.214,0,0,1-.744,2.314,1.5,1.5,0,0,1-.643.635A1.947,1.947,0,0,1,32.979,15.735ZM.278,7.854a.274.274,0,0,1-.229-.14.306.306,0,0,1-.018-.3A10.425,10.425,0,0,1,2.368,4.454,14.446,14.446,0,0,1,5.5,2.317a13.445,13.445,0,0,1,3.714-1.3l.4-.069A9.66,9.66,0,0,1,11.226.776a2.5,2.5,0,0,1,2,.746,1.7,1.7,0,0,1,.4,1.208,1.106,1.106,0,0,1-.4.789,3.08,3.08,0,0,1-2.112.62c-.166,0-.338,0-.5-.008H10.6c-.16,0-.341-.009-.521-.009s-.314,0-.452.012a14.274,14.274,0,0,0-3.143.536A21.357,21.357,0,0,0,.424,7.806.26.26,0,0,1,.278,7.854Zm38.247-1.6h0l-.167-.042A9.458,9.458,0,0,1,36.524,5.5l-.6-.293A16.537,16.537,0,0,0,33.8,4.3a25.089,25.089,0,0,0-4.845-1.07,1.979,1.979,0,0,1-.972-.369,1.457,1.457,0,0,1-.544-.828A1.482,1.482,0,0,1,27.609.786a1.581,1.581,0,0,1,.767-.661A1.725,1.725,0,0,1,29.03,0a1.926,1.926,0,0,1,.377.038l.3.062a21.676,21.676,0,0,1,5.232,1.7,10.579,10.579,0,0,1,2.3,1.514,6.719,6.719,0,0,1,1.627,2.1c.057.439,0,.548-.055.622L38.8,6.06l-.015.02a.421.421,0,0,1-.26.173Z" transform="translate(11.197 10.99)"/>
  </g>
</svg>
