<svg id="peep-67" xmlns="http://www.w3.org/2000/svg" width="240" height="324" viewBox="0 0 240 324">
  <g id="BODY" transform="translate(31.056 135.053)">
    <path id="_Skin" data-name="âœ‹ Skin" d="M76.936,48.1C75.1,40.953,73.4,37.924,70.13,35.441c-3.06-2.322-7.526-4.273-14.043-5.7-6.788-1.187-6.98-4.716-8.682-10.387a2.459,2.459,0,0,0-4.019-.93,4.878,4.878,0,0,0-.467-.443c.145-.813-1.039-3.144-1-3.922.413-8.119-2.242-12.2-8.869-13.711C31.609.021,21.821-.173,20.415.215,14.273,1.914,8.225,7.307,9.151,13.8a12.022,12.022,0,0,1-6.79,4.871C-2.272,19.264.055,84.909,8.1,124.238c3.452,16.874,86-11.846,82.267-20.3.529-1.549-.435-3.252,0-4.851.315-1.158,1.121-1.637,1.527-2.783.571-1.613-.05-3.777-.693-5.423-.263-.82.485-1.7.693-2.541.986-3.949-1.272-3.6-2.9-6.24.024-.008.448-1.893.446-1.883a7.611,7.611,0,0,0-.92-4.192,1.978,1.978,0,0,0-1.941-1.147,71.442,71.442,0,0,1,2.861-7.492c1.9-4.552,3.7-9.313,6.43-13.433,1.116-1.687.215-3.239-1.592-3.354A110.369,110.369,0,0,1,76.936,48.1Z" transform="translate(73.086 -6.552)" fill="#d08b5b"/>
    <path id="_Device" data-name="ðŸ“± Device" d="M13.348,0,0,22.6a19.273,19.273,0,0,1,4.448.932c1.281.616,7.165,8.1,7.165,8.1l.935,4.12-2.215,3.322.864,2.086a6.793,6.793,0,0,1,2.151-2.51c1.535-1.1,4.919-2.9,4.919-2.9s-1.125-.6-1.125-1.308-.991-3.721,1.125-4.859,13.046-3.8,13.046-3.8L42.39,2.4Z" transform="translate(127.546 42.096)" fill="#ec7495"/>
    <path id="_Top" data-name="ðŸ‘• Top" d="M73.418,0,115.8,7.441l19.483,9.172,3.18,2.451-18.85,33.352L90.507,57.727,83.092,76.993l1.514,21.717,47.351-5.647,20.425-2.428,4.8,19.389L156.315,118l-1.262,4.045L104.419,135.72s-25.784-2.5-30.354-2.5-38.082,3.329-38.082,3.329l-7.754-.829S11.075,117.634,8.414,111.2,0,65.635,0,65.635l.634-6.012L15.455,21.471a48.914,48.914,0,0,0,4.474-4.859C22.424,13.551,73.418,0,73.418,0Z" transform="translate(7.933 12.277)" fill="#9ddadb"/>
    <path id="_Ink" data-name="ðŸ– Ink" d="M128.4,148.694h0a46.955,46.955,0,0,1-4.837-.257c-1.814-.188-3.65-.434-5.427-.671h0c-2.054-.274-4.178-.558-6.278-.755-2.161-.2-4.417-.365-6.9-.494.162-.324.33-.649.493-.964v0c.126-.243.255-.493.381-.741a.822.822,0,0,0-.025-.828.958.958,0,0,0-.782-.454.716.716,0,0,0-.652.428c-.135.266-.274.535-.409.8-.283.547-.575,1.112-.842,1.679-3.234-.137-6.655-.2-10.459-.2-5.577,0-11.244.146-16.724.286-2.28.059-4.638.119-6.972.169-2.264.048-4.565.089-6.791.129H62.14c-4.947.089-10.063.181-15.1.348-2.088.069-4.214.154-6.271.237h-.017c-1.322.053-2.689.108-4.034.158-.2-.626-.415-1.257-.626-1.867-.085-.247-.182-.528-.274-.8a.829.829,0,0,0-.816-.583.908.908,0,0,0-.735.351.72.72,0,0,0-.078.681c.093.275.189.553.282.821v0c.164.476.334.968.493,1.454-3.6.122-6.37.176-8.981.176h-.655a.822.822,0,0,1-.258-.04l-.016.1-.006.04-.009.057a.025.025,0,0,1-.026.021.033.033,0,0,1-.021-.008.028.028,0,0,1-.01-.022c0-.072,0-.146,0-.222a.938.938,0,0,1-.539-.607,6.372,6.372,0,0,1-.1-2.64,3.4,3.4,0,0,0-.87-1.184,7.61,7.61,0,0,0-2.489-1.189,12.3,12.3,0,0,1-1.637-.643,19.415,19.415,0,0,1-2.877-1.811,24.281,24.281,0,0,1-4.859-4.975,35.106,35.106,0,0,1-2.136-3.228c-.629-1.072-1.235-2.228-1.8-3.434a59.529,59.529,0,0,1-2.793-7.231c-.779-2.435-1.475-5-2.07-7.614-.571-2.512-1.062-5.138-1.46-7.806A127.886,127.886,0,0,1,.029,89.578a105.905,105.905,0,0,1,.51-13.146,35.3,35.3,0,0,1,3.136-1.806.719.719,0,0,0,.4-.845.973.973,0,0,0-.3-.5.834.834,0,0,0-.554-.217.874.874,0,0,0-.4.1c-.666.339-1.335.711-2.045,1.137A104.46,104.46,0,0,1,3.671,59.529,101,101,0,0,1,8.7,45.336c1.2-2.728,2.339-5.074,3.47-7.172a58.308,58.308,0,0,1,4.238-6.8,14.9,14.9,0,0,1,3.41.615.89.89,0,0,0,.266.043.8.8,0,0,0,.761-.725.9.9,0,0,0-.09-.562.816.816,0,0,0-.488-.387,15.039,15.039,0,0,0-2.655-.563,38.731,38.731,0,0,1,2.949-3.294,34.863,34.863,0,0,1,3.68-3.158,40.061,40.061,0,0,1,4.046-2.643,47.5,47.5,0,0,1,4.324-2.179c1.425-.631,2.943-1.226,4.514-1.768a123.145,123.145,0,0,1,19.7-4.537c.62-.105,1.24-.2,1.84-.3a34.421,34.421,0,0,0,7.616-1.787,12.958,12.958,0,0,0,3.279-1.9A12.55,12.55,0,0,0,72.317,5.1a.9.9,0,0,1,.737-.411.693.693,0,0,1,.389.115c.134.089.312.208.494.332l.014-.04.011-.032a20.612,20.612,0,0,0,.652-2.913C74.727,1.5,74.843.829,75,.168A.209.209,0,0,1,75.215,0a.266.266,0,0,1,.247.168,7.365,7.365,0,0,1,.4,2.844,12.015,12.015,0,0,1-.552,3.08l.761.543a50.313,50.313,0,0,0,4.546,3.01c2.772,1.559,7.531,2.389,10.681,2.938l.144.025a46.843,46.843,0,0,0,7.971.752c.545,0,1.087-.013,1.612-.038a13.582,13.582,0,0,0,3.638-.617,7.452,7.452,0,0,0,1.749-.841c.116-.078.227-.157.338-.243a23.554,23.554,0,0,1-.171-4,8.258,8.258,0,0,1,.835-4,.052.052,0,0,1,.046-.029.071.071,0,0,1,.062.043,14.6,14.6,0,0,1,.829,4.424c.026.31.053.629.083.944a4.3,4.3,0,0,1,1.242-.185,4.147,4.147,0,0,1,3.394,1.764,7.906,7.906,0,0,1,1.008,2.254,13.843,13.843,0,0,0,.488,1.341,3.7,3.7,0,0,0,.352.544,2.359,2.359,0,0,1,.486.874c.088.076.13.122.124.138s-.006.006-.014.006a.552.552,0,0,1-.161-.058c-.09-.03-.146-.047-.165-.051.023.01.073.027.148.053l.023.008.17.085.012.006a3.529,3.529,0,0,1,.828.512,1.665,1.665,0,0,1,.485.757,2.24,2.24,0,0,1,.094.911c.274.13.551.266.818.4.562.276,1.143.562,1.719.8l.21.086c1.477.6,3,1.227,4.484,1.912,3.307,1.527,6.6,3.223,9.784,5.04l.493.281c.685.39,1.394.793,2.084,1.213a18.66,18.66,0,0,0-2.1,1.779.762.762,0,0,0-.192.863.923.923,0,0,0,.823.578.8.8,0,0,0,.563-.245,17.09,17.09,0,0,1,2.414-2,13.443,13.443,0,0,1,3.71,3.614,19.816,19.816,0,0,1,1.8,3.845l.008.021.125.326a19.8,19.8,0,0,0,2.146,4.155l.011.016a.66.66,0,0,1,.042.07l.183.01h.01l.192.011c2.757.158,5.549.371,8.3.634.429.041.876.081,1.27.116a54.855,54.855,0,0,1,6.786.9.761.761,0,0,1,.477.4.636.636,0,0,1,.049.53c-.089.219-.193.473-.3.729-2.849,6.939-6.157,14.068-10.111,21.795a2.455,2.455,0,0,1,1.143.3,1.777,1.777,0,0,1,.767,1,13.37,13.37,0,0,1,.694,2.825,6.543,6.543,0,0,1-.236,2.862.084.084,0,0,1-.08.063.091.091,0,0,1-.045-.012,3.841,3.841,0,0,0,1.056,2.779,7.65,7.65,0,0,0,.862.724,5.377,5.377,0,0,1,1.164,1.081c.889,1.23.281,2.218-.364,3.263-.122.2-.248.4-.363.609a1.013,1.013,0,0,0-.1.986,2.517,2.517,0,0,0,.641.721,4.4,4.4,0,0,1,.577.578,2.832,2.832,0,0,1,.527,1.129A3.645,3.645,0,0,1,159.035,86a8.225,8.225,0,0,1-1,2.733c-.125.239-.249.49-.37.734a11.768,11.768,0,0,1-1.424,2.386.5.5,0,0,1-.085.08.086.086,0,0,1,.021,0h0c.113,0,.259.182.3.277.022.049.044.1.065.148s.045.1.066.152l-.006-.017-.006-.017a.124.124,0,0,1,.015-.118.22.22,0,0,1,.169-.087h0c.13,0,.343.244.384.353a50.51,50.51,0,0,1,2,5.36l.226.875.045.175.407,1.575c.3,1.289.484,2.609.661,3.886l0,.015c.143.9.245,1.8.3,2.661.143,1.305.228,2.635.253,3.952a49.385,49.385,0,0,1-.553,6.378,25.734,25.734,0,0,1-.427,2.6,32.056,32.056,0,0,1-.906,3.859c-.155.64-.314,1.3-.454,1.882l-.119.493-.013.035-.24.649a12.184,12.184,0,0,1-.526,1.484c-.07.214-.15.439-.243.688a20.079,20.079,0,0,0-5.389-.986h-.017a.784.784,0,0,0-.8.824.9.9,0,0,0,.2.589.791.791,0,0,0,.615.277,17.8,17.8,0,0,1,4.715.848c-.242.487-.505.959-.783,1.405l-.028.055c-.76,1.494-1.546,3.04-2.448,4.5a27.631,27.631,0,0,1-1.713,2.458,18.694,18.694,0,0,1-3.647,3.663,9.68,9.68,0,0,1-2.172,1.378,16.233,16.233,0,0,1-2.77.922,15.328,15.328,0,0,1-1.61.3c-.289.036-.585.058-.871.079-.353.026-.719.053-1.077.107a8.157,8.157,0,0,0-1.722.427,4.179,4.179,0,0,0-.786.4,5.754,5.754,0,0,0-.589.6.027.027,0,0,1-.014.013,1.565,1.565,0,0,1-1.3,1.08A42.011,42.011,0,0,1,128.4,148.694ZM59.954,135.746a.875.875,0,0,0-.222.03.92.92,0,0,0-.551.474.681.681,0,0,0-.04.566,11.659,11.659,0,0,0,2.408,3.782.779.779,0,0,0,.563.254.918.918,0,0,0,.809-.569.782.782,0,0,0-.177-.881,9.505,9.505,0,0,1-1.973-3.036A.9.9,0,0,0,59.954,135.746Zm11.489-18.523a.834.834,0,0,0-.2.025,4.673,4.673,0,0,1-.536.093,2.906,2.906,0,0,0-.8.186c-.256.106-.51.229-.756.349l-.3.146-2.44,1.157c-1.538.731-3.052,1.453-4.5,2.147-2.764,1.324-5.55,2.721-8.244,4.072l0,0-1.24.621c-2.8,1.4-6.054,3.034-9.272,4.663-1.639.83-3.246,1.677-4.6,2.4l-.419.221c-.584.308-1.188.627-1.774.957-.157.088-.318.173-.488.262a5.5,5.5,0,0,0-1.617,1.105.09.09,0,0,0-.012.094.067.067,0,0,0,.063.041h.006a9.452,9.452,0,0,0,3.294-1.2c.363-.184.707-.359,1.035-.507l.991-.447,0,0c1.167-.527,2.375-1.071,3.555-1.622,3.732-1.744,6.792-3.16,9.633-4.458,1.289-.589,2.6-1.18,3.865-1.752,1.842-.831,3.746-1.691,5.611-2.554,1.56-.722,3.148-1.454,4.721-2.177L69.289,120l.374-.169.016-.007c.245-.11.5-.223.744-.342a4.377,4.377,0,0,0,.906-.612c.137-.112.279-.228.449-.35a.742.742,0,0,0,.279-.837A.632.632,0,0,0,71.443,117.223Zm53.773,14.623a.92.92,0,0,0-.813.571.777.777,0,0,0,.181.876c.233.236.459.486.678.727a10.364,10.364,0,0,0,1.684,1.6.691.691,0,0,0,.4.12.9.9,0,0,0,.758-.424.8.8,0,0,0,.081-.638.977.977,0,0,0-.385-.519,7.91,7.91,0,0,1-1.37-1.342c-.21-.241-.426-.491-.649-.717A.784.784,0,0,0,125.216,131.846ZM88.4,126.489a.785.785,0,0,0-.563.252,29.583,29.583,0,0,0-2.566,3.093.681.681,0,0,0-.109.547.946.946,0,0,0,.412.61.782.782,0,0,0,.406.117.961.961,0,0,0,.751-.42,26.537,26.537,0,0,1,2.3-2.751.776.776,0,0,0,.181-.876A.919.919,0,0,0,88.4,126.489Zm-68.391-6.305a.884.884,0,0,0-.391.095c-.527.258-1.073.5-1.6.726a24.667,24.667,0,0,0-2.537,1.222.769.769,0,0,0-.379.9.886.886,0,0,0,.81.676.835.835,0,0,0,.421-.121,24.649,24.649,0,0,1,2.537-1.222c.528-.23,1.075-.468,1.6-.725a.705.705,0,0,0,.41-.828A.935.935,0,0,0,20.006,120.184Zm128.568-13.392a.086.086,0,0,0-.062.026.07.07,0,0,0-.02.053,7.4,7.4,0,0,0,.49,1.965c.089.257.182.523.257.779.381,1.287.648,2.343.838,3.324a24.81,24.81,0,0,1,.325,2.83,18.516,18.516,0,0,0,.544,3.74.7.7,0,0,0,.685.549.89.89,0,0,0,.8-.549,6.208,6.208,0,0,0,.438-1.741,8.844,8.844,0,0,0-.006-1.822,16.7,16.7,0,0,0-.818-3.551,16.156,16.156,0,0,0-1.41-3.177,12.706,12.706,0,0,0-.874-1.337,4.063,4.063,0,0,0-1.154-1.078A.078.078,0,0,0,148.574,106.792Zm-43.629,2.716a.886.886,0,0,0-.738.352.673.673,0,0,0-.041.66c.232.574.486,1.15.731,1.707s.5,1.129.729,1.7a.935.935,0,0,0,1.589.211.674.674,0,0,0,.041-.66c-.233-.575-.486-1.15-.731-1.707h0c-.244-.555-.5-1.128-.728-1.7A.887.887,0,0,0,104.945,109.508Zm22.217-.554a.9.9,0,0,0-.257.039,34.864,34.864,0,0,0-4.085,1.6c-.306.135-.652.288-.984.431a.72.72,0,0,0-.378.336.672.672,0,0,0-.048.438.975.975,0,0,0,.916.764.912.912,0,0,0,.363-.078c.275-.119.555-.242.825-.361l.015-.007a33.035,33.035,0,0,1,3.826-1.5.807.807,0,0,0,.582-.93.934.934,0,0,0-.247-.514A.721.721,0,0,0,127.161,108.954Zm-75.69-.723a.921.921,0,0,0-.818.574.77.77,0,0,0,.186.87l2.19,2.191a.79.79,0,0,0,.563.249.921.921,0,0,0,.818-.574.77.77,0,0,0-.186-.87l-2.19-2.191A.791.791,0,0,0,51.472,108.232ZM38.393,72.3a.19.19,0,0,0-.139.055.177.177,0,0,0-.044.135c.06,1.057.155,2.127.247,3.162h0c.122,1.376.248,2.8.295,4.208.077,2.327.068,4.765-.027,7.451-.077,2.194-.222,4.507-.456,7.279-.06.716-.159,1.465-.254,2.189h0a22.537,22.537,0,0,0-.288,4.8c-2.243.588-4.176,1.182-5.908,1.816-.362.133-.74.263-1.139.4a25.741,25.741,0,0,0-3.977,1.632,6.58,6.58,0,0,0-2.929,2.816.074.074,0,0,0,.006.071.072.072,0,0,0,.058.036.057.057,0,0,0,.045-.024,4.839,4.839,0,0,1,1.843-1.354,16.1,16.1,0,0,1,2.212-.753l.43-.124c1.679-.493,3.352-.932,5.207-1.413,3.49-.906,7.081-1.652,10.553-2.374h0l.39-.081,1.711-.354c3.043-.628,6.19-1.278,9.261-2.034l.475-.116.015,0c1.564-.383,3.181-.779,4.724-1.3A20.71,20.71,0,0,0,65.817,96.1a.707.707,0,0,0,.233-.767.461.461,0,0,0-.459-.345.652.652,0,0,0-.074,0,31.3,31.3,0,0,0-4.492.977l-.011,0c-.3.081-.614.165-.918.245-.755.2-1.519.409-2.258.613h0c-1.089.3-2.214.612-3.331.885-2.6.637-5.253,1.222-7.821,1.787h0c-1.211.267-2.462.542-3.691.82-1.4.316-2.549.586-3.616.847a16.583,16.583,0,0,0,.258-2.127c.015-.2.031-.406.049-.61.03-.337.06-.679.09-1.011l0-.034c.076-.849.154-1.726.223-2.59.23-2.871.358-5.384.391-7.683a58.9,58.9,0,0,0-.335-7.45c-.122-1.087-.279-2.371-.517-3.658a22.313,22.313,0,0,0-.937-3.565A.216.216,0,0,0,38.393,72.3Zm82.989-7.536c-1,0-2.01.087-2.984.171h-.007c-.271.023-.527.045-.781.065a42.391,42.391,0,0,0-6.564,1,9.032,9.032,0,0,0-2.507.985,8.338,8.338,0,0,0-2.067,1.722,24.129,24.129,0,0,0-2.59,3.843c-.107.184-.229.392-.346.591a28.851,28.851,0,0,1-3.741,5.019,26.5,26.5,0,0,1-4.712,4.006,1.448,1.448,0,0,1-.577.638.049.049,0,0,1,.008.013c-.084.036-.154.067-.22.1l-.01,0-.01,0-.4.176a61.559,61.559,0,0,0-6.6,3.22c-.011.091-.024.183-.037.273v0c-.023.163-.045.317-.058.468-.04.471-.093.95-.144,1.412s-.1.936-.143,1.405a48.719,48.719,0,0,0-.211,5.675,28.836,28.836,0,0,0,.784,5.89c.187.768.434,1.528.673,2.264l.048.147a21.92,21.92,0,0,1,4.255-2.382,17.154,17.154,0,0,1,4.747-1.52,11.788,11.788,0,0,1,1.721-.12,24.751,24.751,0,0,1,3.413.3l.342.049.018,0a17.977,17.977,0,0,0,2.547.245,6.09,6.09,0,0,0,1.848-.256,4.767,4.767,0,0,0,2.018-1.322,15.705,15.705,0,0,0,1.517-1.98,13.264,13.264,0,0,1,1.753-2.208,5.3,5.3,0,0,1,3.1-1.5,4.89,4.89,0,0,1,.514-.023c.136,0,.275,0,.41.007h.009c.139,0,.281.007.421.007a3.118,3.118,0,0,0,1.288-.219,2.746,2.746,0,0,0,1.485-1.854,1.112,1.112,0,0,1,.585-.685,3.2,3.2,0,0,1-1.011-.664c-.1-.085-.2-.174-.314-.262-.6-.478-1.2-.928-1.787-1.338-.371-.26-.755-.516-1.125-.763-.187-.124-.38-.253-.569-.381-.1-.066-.218-.164-.358-.279A2.673,2.673,0,0,0,113.757,86a.425.425,0,0,0-.087.009h-.012a.084.084,0,0,1-.067-.033.058.058,0,0,1-.007-.055c.084-.224.3-.338.635-.338a4.826,4.826,0,0,1,1.759.5,18.443,18.443,0,0,1,2.174,1.163,10.291,10.291,0,0,1,2.917,2.327.657.657,0,0,1-.135.767,1.616,1.616,0,0,0,.4.052,1.837,1.837,0,0,0,1.328-.649,3.237,3.237,0,0,0,.729-1.373,10.227,10.227,0,0,0-.135-4q-.027-.161-.052-.319a.205.205,0,0,1,.048-.168.2.2,0,0,1,.149-.073.158.158,0,0,1,.042.006l.046-.106c-1.023-.447-2.113-.8-3.166-1.146h0c-.468-.153-.953-.311-1.423-.474l-.863-.3-.071-.025-2.016-.7-.3-.1a3.465,3.465,0,0,1-1.733-.976.893.893,0,0,1-.161-.837.658.658,0,0,1,.5-.438,2.515,2.515,0,0,1,.56-.062,5.3,5.3,0,0,1,1.82.439c.15.055.306.112.462.166.823.28,1.65.563,2.449.837l.31.106c.428.146.867.289,1.291.427l.007,0a35.537,35.537,0,0,1,3.566,1.3,7.005,7.005,0,0,1,1.8,1.134,5.109,5.109,0,0,1,1.262,1.7c.055.123.112.293.177.489.2.6.474,1.432.974,1.544a.5.5,0,0,0,.11.013c.3,0,.535-.286.712-.849a7.049,7.049,0,0,0,.241-1.25,8.479,8.479,0,0,0-.121-2.621,9.706,9.706,0,0,0-.885-2.537,8.266,8.266,0,0,0-3.634-3.717,26.433,26.433,0,0,0-4.911-1.618l-.183-.047c-1.379-.357-2.845-.66-4.358-.9-.557-.092-1.163-.179-1.851-.266a.1.1,0,0,1-.1-.108.091.091,0,0,1,.1-.089c.529-.023,1.058-.035,1.572-.035.243,0,.488,0,.728.008a14.7,14.7,0,0,1,6.335-1.384c.039,0,.079,0,.119,0a3,3,0,0,1,1.565.52,7.114,7.114,0,0,1,1.41,1.2,7.747,7.747,0,0,1,1.556,2.3,10.135,10.135,0,0,1,3.862,5.449c.041.123.078.242.114.363a5.3,5.3,0,0,1,1.031-1.578,7.767,7.767,0,0,1,1.43-1.216,25.788,25.788,0,0,1,3.577-1.985,1.182,1.182,0,0,1-.3-.167,2.247,2.247,0,0,1-.615-1.625c-.008-.075-.016-.153-.026-.229a7.205,7.205,0,0,1,.042-2.5,3.84,3.84,0,0,1,.44-1.092,4.337,4.337,0,0,1,.708-.886,7.13,7.13,0,0,1,1.93-1.281,28.308,28.308,0,0,1,5.428-1.924,30.521,30.521,0,0,1,5.7-.832.926.926,0,0,1,.089-.215c1.911-3.428,3.791-7.06,5.589-10.8,1.694-3.52,3.372-7.251,4.987-11.09-1.332-.1-2.686-.264-4-.422h0c-.971-.118-1.975-.239-2.963-.334-2.62-.252-5.272-.458-7.88-.613-.54-.033-1.084-.063-1.611-.091l-.029,0c-1.774-.093-3.6-.167-5.427-.218l-.646-.019-.067,0c-.845-.025-1.718-.051-2.578-.051l-.413,0a2.705,2.705,0,0,0-.781.092,1.3,1.3,0,0,0-.635.437,2.446,2.446,0,0,0-.233.366,1.409,1.409,0,0,1-.47.577l-.061.035-.11.062-.054.054,0,0a1.143,1.143,0,0,0-.111.119,9.244,9.244,0,0,0-.674,1.021c-.591,1.018-1.134,2.09-1.659,3.126l-.007.015c-.391.772-.77,1.564-1.137,2.329-.519,1.085-1.056,2.207-1.633,3.284-1.008,1.879-1.945,3.526-2.865,5.036-.234.381-2.052,3.155-3.084,4.553a9.609,9.609,0,0,1,2.425.378c.171-.391.37-.775.562-1.146h0c.164-.317.334-.644.485-.974.113-.247.214-.513.311-.769a6.889,6.889,0,0,1,.654-1.4.457.457,0,0,1,.382-.218.466.466,0,0,1,.353.167.481.481,0,0,1,.1.4,6.178,6.178,0,0,1-1.039,2.127l-.007.01-.058.088a10.046,10.046,0,0,1-1.43,1.82c.03.009.059.02.085.03a5.861,5.861,0,0,1,2.119,1.484,20.249,20.249,0,0,1,1.68,2.08c.2.272.389.528.582.779l.153.2,0,0c.788,1.006,3.187,4.066,3.66,6.635a3.757,3.757,0,0,1-.017,1.435,2.967,2.967,0,0,1-.544,1.223,1.822,1.822,0,0,1-1.349.735h-.035a.406.406,0,0,1-.363-.193.911.911,0,0,1-.115-.481,2.569,2.569,0,0,1,.348-1.225,1.117,1.117,0,0,1,.866-.665c-.179,0-.183-.118-.189-.268a1.032,1.032,0,0,0-.02-.2,3.577,3.577,0,0,0-.191-.533c-.021-.05-.042-.1-.062-.152a16.492,16.492,0,0,0-.858-1.778A26.116,26.116,0,0,0,128.913,70c-.674-.925-1.394-1.819-2.134-2.729l-.1-.121a5.211,5.211,0,0,0-2.588-2.071,10.148,10.148,0,0,0-2.626-.31Zm29.052,22.595a.5.5,0,0,1,.387.162.6.6,0,0,1,.142.372.733.733,0,0,1-.138.465.629.629,0,0,1-.459.253l-.151.014h0c-3.1.292-6.3.595-9.43,1.042-1.707.245-3.222.5-4.631.767-.534.1-1.079.238-1.606.369-.261.065-.53.131-.8.194a.078.078,0,0,1-.011.07,5.991,5.991,0,0,0-.954,2.326,3.049,3.049,0,0,0,.047,1.239,2.25,2.25,0,0,0,.647,1.078,2.008,2.008,0,0,0,1.456.486,8.491,8.491,0,0,0,.9-.065l.07-.008c.946-.1,1.885-.233,2.844-.368,1.566-.221,3.193-.479,4.975-.788.829-.142,1.7-.3,2.58-.473a86.624,86.624,0,0,0,9.123-3.891,15.052,15.052,0,0,1,.876-1.639c.181-.308.368-.626.535-.939l.028-.052c.478-.9,1.133-2.14.718-3.166a2.8,2.8,0,0,0-.822-.993,2.882,2.882,0,0,1-.834-1,1.911,1.911,0,0,1-.133-.981,2.581,2.581,0,0,1,.327-.943,5.051,5.051,0,0,1,.5-.675,2.649,2.649,0,0,0,.761-1.419c.032-.72-.671-1.268-1.291-1.752a6.868,6.868,0,0,1-.574-.48,3.7,3.7,0,0,1-1.061-1.983,3.615,3.615,0,0,1,.324-2.217.105.105,0,0,1,.087-.059,21.212,21.212,0,0,0-.459-2.3,10.87,10.87,0,0,0-.8-2.162,1.2,1.2,0,0,0-1.242-.679c-.135,0-.273.007-.42.014h-.008c-.092,0-.188.009-.285.012-.743.025-1.441.072-2.134.144a30.176,30.176,0,0,0-4.6.843,28.073,28.073,0,0,0-4.4,1.564,7.2,7.2,0,0,0-1.764,1.046,2.8,2.8,0,0,0-.985,1.74,7,7,0,0,0,.061,2.04l.01.074c.027.2.061.442.14.48a.158.158,0,0,0,.063.009,5.386,5.386,0,0,0,.933-.212c.1-.03.187-.053.225-.061l.435-.094.034-.007c1.378-.3,2.8-.6,4.2-.909.407-.088.831-.2,1.241-.3h0a14.751,14.751,0,0,1,3.209-.567h.012a.631.631,0,0,1,.581.533.5.5,0,0,1-.288.592,20.439,20.439,0,0,1-4.384,1.122c-.61.11-1.24.223-1.831.353l-.52.114-.52.114c-.548.255-1.108.5-1.649.746a42.526,42.526,0,0,0-4.179,2.049l-.061.035a7.513,7.513,0,0,0-2.891,2.41,2.657,2.657,0,0,0-.331,1.052,2.2,2.2,0,0,0,.145,1.081,1.422,1.422,0,0,0,1.014.849,3,3,0,0,0,.681.073,4.833,4.833,0,0,0,.664-.049,13.769,13.769,0,0,0,1.819-.428c.346-.1.673-.191.974-.259l4.081-.926,1.618-.367,6.748-1.529a.642.642,0,0,1,.141-.016.538.538,0,0,1,.4.17.666.666,0,0,1,.176.379.549.549,0,0,1-.074.354.516.516,0,0,1-.333.222c-3.693.839-7.416,1.688-11.018,2.509-.464.105-.939.225-1.4.341h0a29.022,29.022,0,0,1-3.12.664l-.026.017a15.354,15.354,0,0,0-3.7,2.955c-.069.08-.142.17-.228.281a1.255,1.255,0,0,0-.267,1.256.97.97,0,0,0,.915.486c.034,0,.068,0,.1,0a5.043,5.043,0,0,0,1.259-.237c.131-.036.266-.074.4-.106,1.107-.277,2.246-.53,3.387-.75a130.55,130.55,0,0,1,13.123-1.649l.624-.057C150.39,87.363,150.412,87.362,150.434,87.362Zm-136.2.429a.941.941,0,0,0-.834.585.746.746,0,0,0,.2.848,10.91,10.91,0,0,0,3.678,2.029l.007,0,.338.134a.833.833,0,0,0,.306.063.739.739,0,0,0,.691-.655.9.9,0,0,0-.548-1.038l-.4-.155A8.5,8.5,0,0,1,14.8,88.029.811.811,0,0,0,14.235,87.791Zm117.6-3.38a8.688,8.688,0,0,1-.074,1.6,8.748,8.748,0,0,1,1.458-.852A2.548,2.548,0,0,1,131.839,84.41ZM72.59,78.772a.779.779,0,0,0-.794.818.908.908,0,0,0,.2.592.8.8,0,0,0,.615.281,9.561,9.561,0,0,1,2.134.376h0l.317.08a.933.933,0,0,0,.225.029.853.853,0,0,0,.819-.786.829.829,0,0,0-.1-.531.775.775,0,0,0-.49-.342l-.151-.038-.041-.01a12.345,12.345,0,0,0-2.71-.469ZM49.039,65.645a.935.935,0,0,0-.871.726.706.706,0,0,0,.41.829,15.488,15.488,0,0,0,3.609,1.3.952.952,0,0,0,.2.021.889.889,0,0,0,.854-.823.79.79,0,0,0-.112-.513.751.751,0,0,0-.49-.316A13.631,13.631,0,0,1,49.43,65.74.882.882,0,0,0,49.039,65.645Zm29.62-10.466a.775.775,0,0,0-.778.6,38.106,38.106,0,0,0-.974,4.87.873.873,0,0,0,.206.717,1.013,1.013,0,0,0,.744.345.656.656,0,0,0,.681-.613,38.079,38.079,0,0,1,.974-4.87.776.776,0,0,0-.116-.7A.935.935,0,0,0,78.659,55.179ZM23.046,57.556a.832.832,0,0,0-.308.064,28.3,28.3,0,0,0-3.852,1.79.8.8,0,0,0-.362.416.815.815,0,0,0-.014.494.97.97,0,0,0,.294.472.772.772,0,0,0,.512.2.831.831,0,0,0,.423-.123,25.507,25.507,0,0,1,3.449-1.619.908.908,0,0,0,.546-1.044A.736.736,0,0,0,23.046,57.556Zm85.749-14.1a.71.71,0,0,0-.649.43,13.455,13.455,0,0,0-.748,1.738,6.312,6.312,0,0,0-.341,1.854.771.771,0,0,0,.208.573.86.86,0,0,0,.617.243.908.908,0,0,0,.586-.2.8.8,0,0,0,.279-.612,6.489,6.489,0,0,1,.858-2.739.828.828,0,0,0-.03-.831A.959.959,0,0,0,108.795,43.458ZM54.376,40.786a.918.918,0,0,0-.242.034c-1.041.286-2.118.5-3.159.7-.8.158-1.631.32-2.439.516a.769.769,0,0,0-.49.336.822.822,0,0,0-.106.528.857.857,0,0,0,.826.793.938.938,0,0,0,.22-.027c.809-.2,1.638-.359,2.44-.516,1.041-.2,2.117-.416,3.158-.7a.787.787,0,0,0,.589-.9.944.944,0,0,0-.25-.529A.744.744,0,0,0,54.376,40.786Zm-33.2-2.462a.742.742,0,0,0-.694.658.9.9,0,0,0,.549,1.034c.561.22,1.141.417,1.7.608h0c.562.191,1.142.388,1.705.609a.837.837,0,0,0,.3.062.742.742,0,0,0,.694-.658.9.9,0,0,0-.549-1.035c-.561-.22-1.141-.417-1.7-.608s-1.143-.389-1.705-.609A.836.836,0,0,0,21.179,38.324Zm52.649-6.055h0a.778.778,0,0,0-.612.264.889.889,0,0,0-.2.581.8.8,0,0,0,.816.845,18.8,18.8,0,0,1,3.426.214.965.965,0,0,0,.175.016.833.833,0,0,0,.616-.268,1,1,0,0,0,.265-.585.7.7,0,0,0-.607-.794,20.932,20.932,0,0,0-3.875-.274Zm45.525-9.524a.788.788,0,0,0-.439.144l-2.19,1.461a.844.844,0,0,0-.348.453.886.886,0,0,0,0,.519.839.839,0,0,0,.758.633.787.787,0,0,0,.439-.144l.438-.292,1.753-1.169a.844.844,0,0,0,.348-.453.886.886,0,0,0,0-.519A.839.839,0,0,0,119.353,22.744Zm-76.5-2.39a.976.976,0,0,0-.161.014,19.988,19.988,0,0,0-3.894.974.9.9,0,0,0-.551,1.03.744.744,0,0,0,.7.661.842.842,0,0,0,.3-.061A19.52,19.52,0,0,1,43.144,22a.684.684,0,0,0,.608-.775,1.006,1.006,0,0,0-.267-.6A.849.849,0,0,0,42.856,20.354Zm40.977-2.942a.9.9,0,0,0-.756.423.86.86,0,0,0,.3,1.157,12.6,12.6,0,0,1,1.746,1.542l.03.03a.791.791,0,0,0,.563.249.921.921,0,0,0,.818-.574.77.77,0,0,0-.186-.87,14.863,14.863,0,0,0-2.118-1.837A.705.705,0,0,0,83.833,17.413Z" transform="translate(7.395 1.479)"/>
  </g>
  <g id="HEAD" transform="translate(78.592 38.043)">
    <path id="_Skin-2" data-name="âœ‹ Skin" d="M24.249.177C56.2-1.4,58.435,7.912,62.823,13.848c2.178,2.946,7.8,7.308,8.732,17.383.647,6.993-3.474,15.053-3.474,21.3,0,3.19,3.9,10.037,2.082,14.686C66.127,77.567,57.58,89.05,46.689,89.05s-31-6.018-43.03-23.292C-.283,60.1-7.706,1.752,24.249.177Z" transform="translate(16.945 17.296)" fill="#d08b5b"/>
    <path id="_Ink-2" data-name="ðŸ– Ink" d="M87.071,58.194a4.672,4.672,0,0,1-1.421-2.466,9.9,9.9,0,0,1-.124-1.353c2.8-3.927,5.526-13.2,5.526-18.276A32.865,32.865,0,0,0,84.1,16.36C75.672,5.266,61.648-.422,47.924.024,34.781.449,20.8,5.306,12.6,15.688c-27.2,34.445-4.372,72.069,12.349,79.9,1.456.681,6.156.445,5.5-1.01-1.881-4.18-3.364-11.88-3.709-13.613.535.362,1.075.715,1.617,1.08a5.13,5.13,0,0,0,3.451,1.169.131.131,0,0,0,.095-.124,4.891,4.891,0,0,0-1.467-3.111c-.989-1.124-1.929-2.276-2.994-3.331-.453-.45-.913-.9-1.372-1.342a40.74,40.74,0,0,1,.6-8.054,80.913,80.913,0,0,1,3.9-13.681,42.226,42.226,0,0,0,3.938-3.249,38.273,38.273,0,0,0,7.181-9.859l.072-.034q5.651-2.635,11.209-5.461c1.912-.97,3.812-1.964,5.711-2.957,1.033-.541,2.1-1.034,3.154-1.543A35.7,35.7,0,0,1,60.7,34.785a1.5,1.5,0,0,0,1.826,1.832,29.887,29.887,0,0,0,10.016-3.836,31.262,31.262,0,0,0,4.313-3.162,35.89,35.89,0,0,0,4.621,5.506q1.667,1.639,3.479,3.117c-.546,3.768-1.014,7.545-1.606,11.305-.31,1.966-.683,3.931-.917,5.907a6.215,6.215,0,0,0,1.87,5.263c1.978,2.2,1.975,5.383,1.219,8.116-.093.338-.209.668-.329,1-.025.068-.1.252-.126.324a.015.015,0,0,1,0,.008s0,0,0,.006,0,0,0,0v.006l0,0c-.089.207-.183.41-.278.613-.432.915-.915,1.809-1.417,2.689A54.56,54.56,0,0,1,74.23,85.3a32.831,32.831,0,0,1-5.313,4.392c-.409.26-.826.511-1.254.742-.23.125-.466.241-.7.359a2.792,2.792,0,0,1-.413.188,10.2,10.2,0,0,1-1.17.385c-.213.055-.428.1-.645.142a.075.075,0,0,1-.013,0s0,0-.006,0a.016.016,0,0,1-.011,0c-.08.006-.223.019-.251.019a35.407,35.407,0,0,1-8.96-1.152,28.124,28.124,0,0,1-4.665-1.589,20.636,20.636,0,0,1-2.212-1.173c-.318-.2-.62-.433-.955-.6a3.431,3.431,0,0,0-1.535-.254,1.27,1.27,0,0,0-1.21,1.594,3.205,3.205,0,0,0,1.431,2.027,17.922,17.922,0,0,0,2,1.181,30.643,30.643,0,0,0,4.682,1.913,39.591,39.591,0,0,0,9.3,1.765,12.368,12.368,0,0,0,6.352-1.116,26.306,26.306,0,0,0,5.994-4.126A62.221,62.221,0,0,0,85.322,77.685c2.831-4.21,5.028-8.794,4.3-14.021a10,10,0,0,0-2.555-5.47" transform="translate(0.632 12.258)"/>
  </g>
  <g id="FACE" transform="translate(112.183 77.354)">
    <path id="_Ink-3" data-name="ðŸ– Ink" d="M22.824,40.539a8.045,8.045,0,0,1-3.052-.61,8.621,8.621,0,0,1-1.992-1.145,8.487,8.487,0,0,1-1.622-1.636,1.676,1.676,0,0,1-.338-1.3,1.871,1.871,0,0,1,.728-1.172,1.793,1.793,0,0,1,1.067-.372,1.548,1.548,0,0,1,.238.018,1.648,1.648,0,0,1,1.1.73l.065.09A5.7,5.7,0,0,0,21.108,36.9a4.735,4.735,0,0,0,2.069.483,4.583,4.583,0,0,0,.513-.029,5.388,5.388,0,0,0,2.278-.8,10.668,10.668,0,0,0,1.93-1.611c.138-.141.284-.294.474-.5a.751.751,0,0,1,.394-.3.806.806,0,0,1,.256-.041.871.871,0,0,1,.714.373.8.8,0,0,1,.135.524,4.812,4.812,0,0,1-.57,1.864,6.221,6.221,0,0,1-1.22,1.567,7.841,7.841,0,0,1-1.847,1.288,7.69,7.69,0,0,1-2.05.7A7.548,7.548,0,0,1,22.824,40.539Zm2.148-12.17h0a7.373,7.373,0,0,1-2.63-.53,13.281,13.281,0,0,1-3.093-1.756,1.189,1.189,0,0,1-.432-.687,1.423,1.423,0,0,1,.061-.771,1.754,1.754,0,0,1,.521-.753,1.267,1.267,0,0,1,.812-.317,1.151,1.151,0,0,1,.628.193l.209.161,0,0a16.744,16.744,0,0,0,1.936,1.347,4.768,4.768,0,0,0,2.321.74,2.505,2.505,0,0,0,.981-.193,2.74,2.74,0,0,0,.913-.647,2.8,2.8,0,0,0,.531-2.255,4.26,4.26,0,0,0-1.13-2,8.241,8.241,0,0,0-1.711-1.381.531.531,0,0,1-.144-.61.8.8,0,0,1,.264-.38.809.809,0,0,1,.505-.167,1.076,1.076,0,0,1,.181.016,5.736,5.736,0,0,1,2.018.729,4.577,4.577,0,0,1,1.357,1.252,4.974,4.974,0,0,1,.866,3.322,5.475,5.475,0,0,1-.444,1.744,5.087,5.087,0,0,1-1,1.5A4.779,4.779,0,0,1,24.972,28.369ZM7.859,16.485a1.724,1.724,0,0,1-1.119-.439,1.744,1.744,0,0,1-.587-1.128,12.706,12.706,0,0,1,.067-3.308c.04-.321.081-.654.11-1.012a1.98,1.98,0,0,1,.75-1.415,2.31,2.31,0,0,1,1.421-.5,1.751,1.751,0,0,1,1.075.338,1.594,1.594,0,0,1,.594,1.057,8.877,8.877,0,0,1-.926,5.469,1.754,1.754,0,0,1-.619.716A1.427,1.427,0,0,1,7.859,16.485Zm25.119-.75a1.508,1.508,0,0,1-1.183-.507A4.624,4.624,0,0,1,31.074,14a5.342,5.342,0,0,1-.368-1.477,3.131,3.131,0,0,1,.853-2.687,1.772,1.772,0,0,1,.137-.208,1.933,1.933,0,0,1,1.487-.856,1.611,1.611,0,0,1,.452.067,2.175,2.175,0,0,1,1.453,1.268,4.486,4.486,0,0,1,.18,2.453,8.214,8.214,0,0,1-.744,2.314,1.5,1.5,0,0,1-.643.635A1.947,1.947,0,0,1,32.979,15.735ZM.278,7.854a.274.274,0,0,1-.229-.14.306.306,0,0,1-.018-.3A10.425,10.425,0,0,1,2.368,4.454,14.446,14.446,0,0,1,5.5,2.317a13.445,13.445,0,0,1,3.714-1.3l.4-.069A9.66,9.66,0,0,1,11.226.776a2.5,2.5,0,0,1,2,.746,1.7,1.7,0,0,1,.4,1.208,1.106,1.106,0,0,1-.4.789,3.08,3.08,0,0,1-2.112.62c-.166,0-.338,0-.5-.008H10.6c-.16,0-.341-.009-.521-.009s-.314,0-.452.012a14.274,14.274,0,0,0-3.143.536A21.357,21.357,0,0,0,.424,7.806.26.26,0,0,1,.278,7.854Zm38.247-1.6h0l-.167-.042A9.458,9.458,0,0,1,36.524,5.5l-.6-.293A16.537,16.537,0,0,0,33.8,4.3a25.089,25.089,0,0,0-4.845-1.07,1.979,1.979,0,0,1-.972-.369,1.457,1.457,0,0,1-.544-.828A1.482,1.482,0,0,1,27.609.786a1.581,1.581,0,0,1,.767-.661A1.725,1.725,0,0,1,29.03,0a1.926,1.926,0,0,1,.377.038l.3.062a21.676,21.676,0,0,1,5.232,1.7,10.579,10.579,0,0,1,2.3,1.514,6.719,6.719,0,0,1,1.627,2.1c.057.439,0,.548-.055.622L38.8,6.06l-.015.02a.421.421,0,0,1-.26.173Z" transform="translate(11.197 10.99)"/>
  </g>
</svg>
