<svg id="peep-97" xmlns="http://www.w3.org/2000/svg" width="240" height="324" viewBox="0 0 240 324">
  <g id="BODY" transform="translate(31.056 135.053)">
    <path id="_Skin" data-name="âœ‹ Skin" d="M47.046,18.018c-3.913-2.849-5.854-7.514-7.313-8.308-1.074-.584-1.055-4.615-3.208-6.042C33.635,1.752,24.427.329,21.077.062A32.972,32.972,0,0,0,9.253,1.522C4.222,3.486,2.216,7.232,0,12.059,0,12.059,49.734,19.975,47.046,18.018Z" transform="translate(75.906 -2.959)" fill="#d08b5b"/>
    <path id="_Top" data-name="ðŸ‘• Top" d="M41.1,0h79.513l27.522,24.494,12.216,102.951-17.375,5.412L35.621,134.652,2.092,125.168,0,53.506Z" transform="translate(8.873 18.387)" fill="#78e185"/>
    <path id="_Ink" data-name="ðŸ– Ink" d="M97.357,153.05h0c-7.2,0-14.251-.283-22.056-.625-3.415-.148-6.242-.372-8.9-.7a38.491,38.491,0,0,0-4.7-.367,17.2,17.2,0,0,0-3.463.329l-.625.129a25.593,25.593,0,0,1-3.96.608c-.187.009-.382.014-.58.014a25.792,25.792,0,0,1-3.1-.252l-.4-.049c-1.467-.178-3.07-.324-5.046-.458a63.233,63.233,0,0,1-2.063-7.906c-.494-2.514-.881-5.159-1.182-8.085-.56-5.433-.73-11.013-.895-16.409v0c-.083-2.716-.169-5.525-.3-8.263a.817.817,0,0,0-.295-.611.932.932,0,0,0-.592-.2.838.838,0,0,0-.61.242.754.754,0,0,0-.194.573c.136,2.76.222,5.593.306,8.332.164,5.362.334,10.906.878,16.31.293,2.911.667,5.541,1.144,8.042A64.928,64.928,0,0,0,42.7,151.56c-.586-.035-1.168-.068-1.714-.1-2.537-.145-5.119-.275-7.616-.4h-.015c-3.292-.165-6.7-.336-10.04-.544l-1.711-.1h0c-2.362-.141-4.8-.288-7.2-.511-.568-.053-1.182-.078-1.933-.078-.475,0-.959.01-1.427.019h-.031c-.462.009-.939.019-1.407.019H9.326a5.317,5.317,0,0,1-.361.833,1.965,1.965,0,0,1-1.73.939,1.661,1.661,0,0,1-1.578-.939c-.731-1.607-1.356-3.11-1.912-4.595a60.353,60.353,0,0,1-2.715-9.641A56.118,56.118,0,0,1,0,126.5c-.031-2.712.117-5.47.261-8.136v0c.039-.724.079-1.472.115-2.208L.4,115.72c.163-3.287.332-6.687.549-10.029.2-3.113.331-6.282.455-9.347.155-3.806.315-7.741.616-11.6.262-3.383.681-6.716,1.243-9.906a90.7,90.7,0,0,1,2.264-9.722,93.2,93.2,0,0,1,3.423-9.555c1.124-2.7,2.459-5.641,4.2-9.244l.3-.624,0-.01c1.3-2.685,2.639-5.462,4.173-8.067a43.189,43.189,0,0,1,2.484-3.783,31.044,31.044,0,0,1,2.947-3.456,32.763,32.763,0,0,1,7.179-5.394A15.818,15.818,0,0,0,31.836,24a5.3,5.3,0,0,0,1.308-1.32c.2-.3.4-.607.585-.908a12.184,12.184,0,0,1,1.633-2.21,5.36,5.36,0,0,1,1.8-1.185,8.276,8.276,0,0,1,2.1-.512A4.547,4.547,0,0,0,40.8,17.42a4.953,4.953,0,0,0,1.269-.988c.153-.156.307-.316.456-.471h0a13.525,13.525,0,0,1,2.342-2.085,10.99,10.99,0,0,1,4.409-1.338c5.918-.918,11.586-3.4,17.068-5.8.54-.236,1.1-.48,1.647-.719A9.158,9.158,0,0,1,70.4,5.262a4.383,4.383,0,0,1,.625-.038c.145,0,.29,0,.431.008s.288.008.432.008a4.457,4.457,0,0,0,.548-.029c.743-.092,1.152-.926,1.513-1.662a6.758,6.758,0,0,1,.4-.741,3.764,3.764,0,0,1,1.031-1,3.506,3.506,0,0,1,1.806-1.3A7.018,7.018,0,0,1,79.714,0a3,3,0,0,1,2.714,1.3,1.613,1.613,0,0,1,.1.19c1.464.314,2.946.66,4.379.994,3.274.765,6.659,1.555,10.059,2.011a63.975,63.975,0,0,0,8.25.554h.2c1.357,0,2.712-.042,4.026-.125.28-.017.575-.054.861-.09a10.333,10.333,0,0,1,1.254-.1h.014a4.233,4.233,0,0,1,1.416-1.66,3.614,3.614,0,0,1,2.049-.677,3.031,3.031,0,0,1,1.7.519,3.544,3.544,0,0,1,1.386,2.171,6,6,0,0,1,1.215,1.9c.3.732.534,1.518.76,2.278.086.29.175.59.267.882.047.15.091.306.138.472a4.52,4.52,0,0,0,1.022,2.136,3.6,3.6,0,0,0,2.161.623,6.143,6.143,0,0,1,1.359.208,14.808,14.808,0,0,1,3.268,1.7l.135.085a12.894,12.894,0,0,0-1.548.619,5.566,5.566,0,0,0-1.375.934.744.744,0,0,0-.2.846.941.941,0,0,0,.836.586.814.814,0,0,0,.563-.237,6.092,6.092,0,0,1,2.36-1.181l.007,0,.18-.06a.812.812,0,0,0,.566-.644l7.14,4.424a76.813,76.813,0,0,1,6.54,4.458,42.432,42.432,0,0,1,5.821,5.352,36.339,36.339,0,0,1,7.749,12.924,23.755,23.755,0,0,1,.889,3.823c.06.407.1.825.147,1.229a14.872,14.872,0,0,0,.4,2.465,10.5,10.5,0,0,0,.975,2.163c.221.406.45.826.641,1.253a11.163,11.163,0,0,1,.877,3.73c.157,1.9.229,3.836.3,5.711.037,1,.075,2.027.126,3.039.015.309.025.626.034.933a13.018,13.018,0,0,0,.41,3.445A10.289,10.289,0,0,0,162.719,73a13.941,13.941,0,0,1,.667,1.345,6.993,6.993,0,0,1,.441,1.59,8.923,8.923,0,0,1,.1,1.6,23.334,23.334,0,0,1-.379,3.222c-.055.332-.111.675-.162,1.013a10.028,10.028,0,0,0-.128,1.811,6.033,6.033,0,0,0,.312,1.78c.172.505.391,1,.6,1.482a15.828,15.828,0,0,1,.691,1.76,7.612,7.612,0,0,1,.284,2.67,21.733,21.733,0,0,1-.365,2.625,20.992,20.992,0,0,0-.381,2.851,33.026,33.026,0,0,0,.72,7.022v.007c.074.42.15.853.221,1.279,1,5.974,1.866,11.378,2.254,17.008.186,2.694.28,5.4.28,8.045,0,2.692-.1,5.4-.291,8.042a.784.784,0,0,0-.58-.233,7.02,7.02,0,0,0-2.982.481.7.7,0,0,0-.368.443.912.912,0,0,0,.065.714.793.793,0,0,0,.711.4,1.08,1.08,0,0,0,.445-.1,3.984,3.984,0,0,1,1.641-.252H167a.763.763,0,0,0,.718-.43c.021.052.04.1.058.153v0a4.384,4.384,0,0,0,.255.581c.153.286.323.568.488.84h0a7.937,7.937,0,0,1,.952,1.957,4.034,4.034,0,0,1,.123,1.634,3.575,3.575,0,0,1-.575,1.528,3.824,3.824,0,0,1-1.622,1.348,8.545,8.545,0,0,1-2.048.594c-5.064.928-10.354,1.544-15.02,2.087-.549-3.734-1.036-7.819-1.489-12.488-.418-4.308-.768-8.678-1.076-12.533a.841.841,0,0,0-.314-.608.962.962,0,0,0-.6-.2.814.814,0,0,0-.6.241.731.731,0,0,0-.176.57c.344,4.294.685,8.492,1.089,12.63.458,4.694.948,8.811,1.5,12.585-.7.082-1.764.206-2.841.337-.69.083-1.4.183-2.084.28h0a40.829,40.829,0,0,1-5.635.531c-.381,0-.756-.011-1.113-.034a29.947,29.947,0,0,1-3.186-.428,23.464,23.464,0,0,0-3.951-.448,10.7,10.7,0,0,0-1.31.077c-1.517.186-3.052.449-4.536.7h0c-1.4.24-2.845.488-4.276.672-2.744.353-5.644.632-8.62.831C106.842,152.911,102.343,153.05,97.357,153.05ZM64.428,141.218a.979.979,0,0,0-.436.1l-.174.087A7.326,7.326,0,0,0,62,142.551a.745.745,0,0,0-.2.847.941.941,0,0,0,.836.586.814.814,0,0,0,.563-.237,5.139,5.139,0,0,1,1.326-.8l.006,0c.112-.054.218-.1.323-.157a.748.748,0,0,0,.375-.468.887.887,0,0,0-.071-.688A.814.814,0,0,0,64.428,141.218Zm21.843-.758a.689.689,0,0,0-.5.214.949.949,0,0,0-.156,1.065.827.827,0,0,0,.486.4,11.975,11.975,0,0,0,3.51.761h.024a.778.778,0,0,0,.792-.815.91.91,0,0,0-.2-.593.8.8,0,0,0-.616-.283,10.277,10.277,0,0,1-2.977-.672l-.084-.028A.877.877,0,0,0,86.271,140.46ZM16.26,133.9h-.03a.856.856,0,0,0-.832.744.942.942,0,0,0-.53.278.755.755,0,0,0-.213.554.942.942,0,0,0,.244.586.775.775,0,0,0,.573.26H15.5a1.643,1.643,0,0,0,1.575-1.576.854.854,0,0,0-.815-.846Zm98.92-2.556h-.017a18.1,18.1,0,0,0-2.008.183,18.11,18.11,0,0,1-2.008.183.791.791,0,0,0-.614.278.9.9,0,0,0-.2.59.783.783,0,0,0,.8.823h.017a18.1,18.1,0,0,0,2.008-.183,18.108,18.108,0,0,1,2.008-.183.791.791,0,0,0,.615-.278.906.906,0,0,0,.2-.59A.783.783,0,0,0,115.18,131.347Zm39.375-8.4a.742.742,0,0,0-.579.247.862.862,0,0,0-.2.553.922.922,0,0,0,.2.6.8.8,0,0,0,.617.292,4.026,4.026,0,0,1,1.631.549l.132.067a.879.879,0,0,0,.394.1.932.932,0,0,0,.866-.721.712.712,0,0,0-.407-.836,6.363,6.363,0,0,0-2.617-.846Zm-58.4-2.921a.778.778,0,0,0-.792.816.91.91,0,0,0,.2.593.8.8,0,0,0,.616.282,1.187,1.187,0,0,1,1.1.677.735.735,0,0,0,.663.421.954.954,0,0,0,.788-.457.8.8,0,0,0,.008-.817,2.913,2.913,0,0,0-2.555-1.515Zm-35.25,1.448a.927.927,0,0,0,.61.235.814.814,0,0,0,.58-.24.884.884,0,0,0,.244-.642.758.758,0,0,0-.244-.553,3.455,3.455,0,0,0-2.423-.613.778.778,0,0,0-.612.264.889.889,0,0,0-.2.581.8.8,0,0,0,.816.846h.356a3.9,3.9,0,0,1,.521.028,1.654,1.654,0,0,1,.217.043.725.725,0,0,1,.082.034.322.322,0,0,0,.057.023h0s0,0,0,0Zm78.326-12.362a.839.839,0,0,0-.7.377,4.114,4.114,0,0,1-1.223,1.153,5.739,5.739,0,0,1-1.558.65.778.778,0,0,0-.591.892.841.841,0,0,0,.8.77.924.924,0,0,0,.236-.032,6.475,6.475,0,0,0,3.791-2.58.7.7,0,0,0,.072-.753A.959.959,0,0,0,139.232,109.11ZM27.21,110.529h-.028a1.643,1.643,0,0,0-1.575,1.576.855.855,0,0,0,.815.846h.03a.857.857,0,0,0,.832-.744.942.942,0,0,0,.53-.278.755.755,0,0,0,.213-.554.942.942,0,0,0-.243-.586A.775.775,0,0,0,27.21,110.529Zm54.766-6.568a.855.855,0,0,0-.5.168.961.961,0,0,0-.329.412.757.757,0,0,0,.2.858,4.133,4.133,0,0,0,2.788,1.343h.029a.75.75,0,0,0,.586-.251.867.867,0,0,0,.2-.558.915.915,0,0,0-.2-.6.8.8,0,0,0-.616-.287,2.473,2.473,0,0,1-1.593-.848A.8.8,0,0,0,81.976,103.961Zm36.87-.736h-.032a.909.909,0,0,0-.594.253.821.821,0,0,0-.251.593c0,.01,0,.021,0,.031v.016a.792.792,0,0,0-.365.683.943.943,0,0,0,.243.586.773.773,0,0,0,.572.26h.029a1.158,1.158,0,0,0,1.075-.7,2.223,2.223,0,0,0,.135-.872.868.868,0,0,0-.241-.585A.8.8,0,0,0,118.846,103.225ZM45.8,98.477h0a.878.878,0,0,0-.619.275.776.776,0,0,0-.226.571.91.91,0,0,0,.253.594.82.82,0,0,0,.592.251h.047a.787.787,0,0,0,.65.365h.033a.939.939,0,0,0,.6-.253.769.769,0,0,0,.249-.593,1.158,1.158,0,0,0-.7-1.075,2.223,2.223,0,0,0-.871-.136Zm100.131-8.024a.985.985,0,0,0-.739.346.84.84,0,0,0-.177.713,11.376,11.376,0,0,1,0,4.664.813.813,0,0,0,.149.707.961.961,0,0,0,.737.348.73.73,0,0,0,.743-.606,13.565,13.565,0,0,0,0-5.562A.693.693,0,0,0,145.931,90.453ZM14.769,94.825h0a.777.777,0,0,0-.611.264.889.889,0,0,0-.2.581.8.8,0,0,0,.816.846h.062a3.97,3.97,0,0,1,1.7.25,1.052,1.052,0,0,0,.44.1.808.808,0,0,0,.716-.4.911.911,0,0,0,.066-.71.711.711,0,0,0-.369-.446,4.848,4.848,0,0,0-1.28-.387,8.257,8.257,0,0,0-1.338-.093Zm46-4.354a.8.8,0,0,0-.845.817,2.725,2.725,0,0,1-.25,1.4.97.97,0,0,0-.079.641.8.8,0,0,0,.382.516.841.841,0,0,0,.425.109.8.8,0,0,0,.731-.413,4.865,4.865,0,0,0,.48-2.253.778.778,0,0,0-.264-.612A.888.888,0,0,0,60.768,90.472Zm58.761-4.761a.8.8,0,0,0-.714.4.913.913,0,0,0-.065.715.7.7,0,0,0,.368.442,4.032,4.032,0,0,0,3.409,0,.7.7,0,0,0,.368-.442.913.913,0,0,0-.065-.715.794.794,0,0,0-.71-.4,1.082,1.082,0,0,0-.446.1,2.2,2.2,0,0,1-1.7,0A1.072,1.072,0,0,0,119.529,85.711ZM95.436,83.145a.819.819,0,0,0-.584.242l-1.1,1.1a.866.866,0,0,0-.243.63.778.778,0,0,0,.243.565.9.9,0,0,0,.611.242.82.82,0,0,0,.584-.242l1.1-1.1a.866.866,0,0,0,.243-.631.778.778,0,0,0-.243-.565A.9.9,0,0,0,95.436,83.145Zm60.039-3.657a.91.91,0,0,0,.59.221.819.819,0,0,0,.583-.24.88.88,0,0,0,.244-.634.773.773,0,0,0-.244-.562,2.932,2.932,0,0,0-2.058-.613.845.845,0,0,0,0,1.691c.088,0,.182,0,.278,0l.094.006c.053,0,.112.008.132.008h.007c.088.016.172.037.261.059h0l.022.005h.009a.092.092,0,0,0,.017.011.739.739,0,0,1,.076.056l.011.009-.026-.024Zm-16.915-5.1a.932.932,0,0,0-.866.721.712.712,0,0,0,.407.836l1.1.548,1.1.548a.879.879,0,0,0,.395.1.931.931,0,0,0,.865-.721.712.712,0,0,0-.407-.836l-2.19-1.1A.877.877,0,0,0,138.56,74.391ZM38.134,69.655a.8.8,0,0,0-.845.817,10.063,10.063,0,0,1-.335,3.062.754.754,0,0,0,.1.689.921.921,0,0,0,.736.351.8.8,0,0,0,.8-.59,11.753,11.753,0,0,0,.395-3.512.778.778,0,0,0-.264-.612A.888.888,0,0,0,38.134,69.655Zm27.015-3.316a.778.778,0,0,0-.612.264.89.89,0,0,0-.2.582.8.8,0,0,0,.816.845h1.825a.778.778,0,0,0,.612-.264.89.89,0,0,0,.2-.582.8.8,0,0,0-.816-.845Zm-43.755-4.4a.879.879,0,0,0-.278.048,8.546,8.546,0,0,0-3.293,1.678.744.744,0,0,0-.2.846.941.941,0,0,0,.836.586.814.814,0,0,0,.563-.237,6.091,6.091,0,0,1,2.361-1.181l.186-.062a.828.828,0,0,0,.486-.4.95.95,0,0,0-.156-1.065A.688.688,0,0,0,21.394,61.939Zm65.27-2.509a.856.856,0,0,0-.615.242.769.769,0,0,0-.206.574,3.671,3.671,0,0,0,.978,2.424.766.766,0,0,0,.562.26.914.914,0,0,0,.8-.563.8.8,0,0,0-.167-.893,1.965,1.965,0,0,1-.483-1.228.8.8,0,0,0-.282-.612A.914.914,0,0,0,86.663,59.429Zm35.432.339a.8.8,0,0,0-.593.245.893.893,0,0,0-.24.6.862.862,0,0,0,.24.6c.016.017.037.038.046.047.028.041.053.08.075.117.037.064.071.131.1.2l.039.077a2.829,2.829,0,0,0,.467.658.827.827,0,0,0,.6.245.8.8,0,0,0,.593-.245.893.893,0,0,0,.241-.6.861.861,0,0,0-.241-.6c-.018-.019-.037-.039-.046-.047-.029-.042-.053-.08-.075-.117-.038-.065-.072-.133-.1-.2l0-.005-.036-.07a2.826,2.826,0,0,0-.466-.658A.827.827,0,0,0,122.095,59.768ZM54.618,51.346a.875.875,0,0,0-.281.049,13.509,13.509,0,0,0-3.122,1.546.84.84,0,0,0-.349.449.88.88,0,0,0,0,.517.841.841,0,0,0,.762.636.79.79,0,0,0,.438-.142,11.711,11.711,0,0,1,2.719-1.376.832.832,0,0,0,.485-.4.927.927,0,0,0,.084-.574.917.917,0,0,0-.24-.49A.682.682,0,0,0,54.618,51.346Zm78.41-2.9a.778.778,0,0,0-.792.816.91.91,0,0,0,.2.593.8.8,0,0,0,.615.283,1.188,1.188,0,0,1,1.1.677.735.735,0,0,0,.663.421.954.954,0,0,0,.789-.457.8.8,0,0,0,.008-.817,2.912,2.912,0,0,0-2.555-1.514Zm-27.392-6.574a.742.742,0,0,0-.579.247.861.861,0,0,0-.2.553.921.921,0,0,0,.2.6.805.805,0,0,0,.617.292,4.026,4.026,0,0,1,1.631.549l.013.007.119.06a.879.879,0,0,0,.394.1.932.932,0,0,0,.866-.722.712.712,0,0,0-.407-.836,6.358,6.358,0,0,0-2.617-.846ZM45.85,39.3a.884.884,0,0,0-.274.046c-.6.2-1.225.376-1.826.548h0c-.6.172-1.22.35-1.824.547a.823.823,0,0,0-.486.4.912.912,0,0,0-.087.568.923.923,0,0,0,.242.5.694.694,0,0,0,.507.215.883.883,0,0,0,.274-.046c.6-.2,1.227-.376,1.828-.549s1.219-.35,1.822-.547a.823.823,0,0,0,.486-.4.913.913,0,0,0,.087-.568.922.922,0,0,0-.242-.5A.694.694,0,0,0,45.85,39.3Zm24.731,1.34h-.014a.646.646,0,0,0,.105.021c.051.009.109.018.135.025.08.022.161.045.239.068h0c.079.023.16.047.241.069A5,5,0,0,0,72.45,41h.029a.749.749,0,0,0,.585-.25.867.867,0,0,0,.2-.558.915.915,0,0,0-.2-.6.8.8,0,0,0-.616-.287,3.859,3.859,0,0,1-.936-.183,4.081,4.081,0,0,0-.889-.182h-.037a.778.778,0,0,0-.569.263.872.872,0,0,0-.239.583.821.821,0,0,0,.235.577.914.914,0,0,0,.589.267Zm70.137-6.8h0a.778.778,0,0,0-.612.264.889.889,0,0,0-.2.581.8.8,0,0,0,.816.845,16.214,16.214,0,0,1,3.791.335.938.938,0,0,0,.216.026.78.78,0,0,0,.574-.247.961.961,0,0,0,.257-.552.816.816,0,0,0-.107-.525.767.767,0,0,0-.49-.333,18.163,18.163,0,0,0-4.241-.4ZM108.923,23.253a.811.811,0,0,0-.563.239,6.1,6.1,0,0,1-1.781,1.051h0c-.2.089-.4.18-.6.276a.7.7,0,0,0-.41.826.936.936,0,0,0,.873.728.884.884,0,0,0,.39-.094c.176-.086.355-.17.529-.251h0a7.793,7.793,0,0,0,2.2-1.341.748.748,0,0,0,.2-.85A.94.94,0,0,0,108.923,23.253Zm-59.808-.375h-.029a7.265,7.265,0,0,0-2.982.846.7.7,0,0,0-.411.824.937.937,0,0,0,.875.73.886.886,0,0,0,.389-.093,5.3,5.3,0,0,1,2.129-.615.8.8,0,0,0,.616-.287.917.917,0,0,0,.2-.6.865.865,0,0,0-.2-.557A.749.749,0,0,0,49.115,22.878Zm24.447-2.916a.807.807,0,0,0-.536.209.971.971,0,0,0-.3.487.743.743,0,0,0,.393.873,4.23,4.23,0,0,1,1.522,1.888.718.718,0,0,0,.654.427.958.958,0,0,0,.783-.454.819.819,0,0,0,.022-.826,8.216,8.216,0,0,0-.887-1.408,4.18,4.18,0,0,0-1.242-1.087A.855.855,0,0,0,73.562,19.962Z" transform="translate(1.69 1.877)"/>
  </g>
  <g id="HEAD" transform="translate(78.592 38.043)">
    <path id="_Skin-2" data-name="âœ‹ Skin" d="M82.5,36.644c3.822-2.457,9.036-8.727,6.073-13.481a5.419,5.419,0,0,0-4.647-2.614,2.253,2.253,0,0,0-1.809-.7l0-.029a12,12,0,0,0-6.785,2.327,16.671,16.671,0,0,0-4.349-2.428A66.125,66.125,0,0,1,73.7,10.295a2.54,2.54,0,0,0-3.07-3.1c.438-1.922-.568-4.153-2.758-4.129a16.46,16.46,0,0,0-3.629.913c-.839.21-1.665.426-2.475.7,0-.022-.006-.044-.008-.067C63.882,3.119,63.808-.31,60.69.023,59.36.14,58.008,1.048,56.778,1.6a35.628,35.628,0,0,0-5.945,1.232C45.44,4.175,39.67,5.522,35.228,8.925,27.533,11.9,17.963,16.494,17.009,25.578,3.457,20.321-6.782,37.107,5.509,43.713a12.744,12.744,0,0,0,7.838,1.169q-.935,3.467-1.777,6.959c-4.694,10.811-8.488,22.236-7.123,34.1a2.545,2.545,0,0,0,4.3,1.786c1.261-1.525,2.791.258,2.38,1.73a2.56,2.56,0,0,0,2.43,3.2c2,.105,3.588-1.239,5-2.481-.027.027.037-.014.131-.078,3.492,8.256,6.763,1.837,11.067,5.551,1.006.931,1.711,2.034,3,2.64,3.021,1.535,5.407-1.2,8.293-1.517,2.668-.2,5.306.729,7.864,1.352a25.97,25.97,0,0,0,9.069.767c3.924-.437,11.753-2.214,14.07-3.678,2.839,1.91,5.76-.355,7.321-2.964a2.543,2.543,0,0,0,4.033-.41c.872-1.811,2.5-4.58,4.378-4.17a1.137,1.137,0,0,1,.368.158,2.555,2.555,0,0,0,4.271-1.811c1.661-14.065-1.727-28.174-6.233-41.41C85.21,41.839,84.394,38.962,82.5,36.644Z" transform="translate(2.53 6.763)" fill="#d08b5b"/>
    <path id="_Ink-2" data-name="ðŸ– Ink" d="M60.648,102.413c-.238,0-.48,0-.718-.011a20.792,20.792,0,0,1-6.36-1.21l-.316-.115a24.029,24.029,0,0,1-2.621-1.123,12.028,12.028,0,0,1-2.373-1.544.276.276,0,0,1-.134-.322.281.281,0,0,1,.262-.234.293.293,0,0,1,.09.015c.445.144.888.3,1.316.443a24.527,24.527,0,0,0,4.409,1.21,26.121,26.121,0,0,0,3.82.272c.617,0,1.258-.02,1.906-.059a23.314,23.314,0,0,0,5.681-1.1c.534-.169,1.075-.388,1.6-.6a11.159,11.159,0,0,1,3.317-.956,2.615,2.615,0,0,1,.3-.353,3.033,3.033,0,0,1,.978-.661,2.588,2.588,0,0,1,.992-.187,7.121,7.121,0,0,1,2.164.485c.169.056.343.113.517.168.046.015.07.04.07.075l.02-.029.013-.018-.01.012c-.008.009-.013.013-.016.013h0a1.057,1.057,0,0,1,.087-.227v0l.024-.055,0-.006a7.633,7.633,0,0,0,.252-.923c.053-.231.107-.469.176-.7a3.512,3.512,0,0,1,2.494-2.744,1.944,1.944,0,0,1,.418-.044,2.009,2.009,0,0,1,.887.2,1.313,1.313,0,0,1,.627.63,1.317,1.317,0,0,0,1.3.864h.048c.656-.015.92-.37,1.177-1.021.111-.28.208-.567.3-.845v0a7.211,7.211,0,0,1,.934-2.025,3.857,3.857,0,0,1,3-1.591c.055,0,.111,0,.167,0a9.109,9.109,0,0,1,2.466.464l.1.03.082.025.17.055h0a3.442,3.442,0,0,0,.966.223.555.555,0,0,0,.31-.076c.4-.266.638-1.632.782-2.448.029-.163.053-.3.076-.416l.009-.044a23.129,23.129,0,0,0,.445-3.575,38.34,38.34,0,0,0-.45-7.524c-.381-2.554-.942-5.067-1.49-7.4-1.108-4.713-2.457-9.574-4.126-14.861-1.381-4.375-2.968-9.012-5-14.594a.148.148,0,0,1,.016-.141.2.2,0,0,1,.161-.079.166.166,0,0,1,.148.083,109.332,109.332,0,0,1,8,17.466c1.054,2.884,1.945,5.525,2.723,8.074.88,2.884,1.6,5.577,2.185,8.234l.084.382a46.475,46.475,0,0,1,1.109,8.179,29.762,29.762,0,0,1-.128,4.116,23.884,23.884,0,0,1-.771,4.054l-.073.254a8.8,8.8,0,0,1-.672,1.73,3.539,3.539,0,0,1-3.284,1.946,5.914,5.914,0,0,1-.915-.076,9.7,9.7,0,0,1-1.223-.3,8.548,8.548,0,0,0-1.379-.326,1.6,1.6,0,0,0-.19-.012.689.689,0,0,0-.548.214,1.7,1.7,0,0,0-.3.577l-.161.456a9.482,9.482,0,0,1-1.309,2.642,3.9,3.9,0,0,1-2.482,1.5,5.239,5.239,0,0,1-3.586-.648l0,.012h0c-.011.036-.022.073-.031.108l-.05.191a5.415,5.415,0,0,1-1.087,2.309,3.17,3.17,0,0,1-1.1.791,3.3,3.3,0,0,1-1.307.262,3.786,3.786,0,0,1-.748-.076,6.529,6.529,0,0,1-1.206-.415c-.111-.047-.226-.095-.339-.14a1.417,1.417,0,0,1-.52.852,1.53,1.53,0,0,1-.959.358,1.269,1.269,0,0,1-.29-.033,2.007,2.007,0,0,1-1-.544,8,8,0,0,1-2.059,1.107,20.4,20.4,0,0,1-2.212.676,21.806,21.806,0,0,1-2.795.521A23.834,23.834,0,0,1,60.648,102.413ZM31.5,100.922a1.531,1.531,0,0,1-1.233-.664,7.217,7.217,0,0,1-.656-1.15,5.762,5.762,0,0,0-.918-1.466,7.185,7.185,0,0,0-1.533-1.2,2.441,2.441,0,0,1-1.374,1.489,5.212,5.212,0,0,1-2.241.48,4.771,4.771,0,0,1-1.4-.2A5.29,5.29,0,0,1,20.085,97a8.009,8.009,0,0,1-1.44-1.886,5.917,5.917,0,0,1-1.592,1.134,4.1,4.1,0,0,1-4.07-.236,3.844,3.844,0,0,1-1.364-1.466A6.023,6.023,0,0,1,11,92.621c-.027-.166-.044-.38-.062-.606a9.233,9.233,0,0,0-.124-1.05l-.112.115a4.878,4.878,0,0,1-3.147,1.811,2.358,2.358,0,0,1-.388-.032,2.642,2.642,0,0,1-1.149-.5,3.944,3.944,0,0,1-.864-.92A10.329,10.329,0,0,1,4.04,89.13c-1.13-3.079-.928-6.5-.541-9.728a72.222,72.222,0,0,1,2.057-10.4c.443-1.621.967-3.276,1.557-4.918C7.677,62.515,8.321,60.9,9.026,59.3a48.553,48.553,0,0,1,2.394-4.7c.442-.768.933-1.531,1.4-2.246a11.112,11.112,0,0,1,.842-1.089,11.561,11.561,0,0,0,.8-1.021.088.088,0,0,1,.074-.042.093.093,0,0,1,.077.043.089.089,0,0,1,0,.089,5.484,5.484,0,0,0-.336,1c-.042.159-.086.322-.136.482a8.8,8.8,0,0,1-.421,1.023c-.09.2-.183.4-.265.6-.276.676-.549,1.365-.812,2.031l-.228.575c-.644,1.621-1.282,3.355-1.95,5.3A84.149,84.149,0,0,0,7.5,72.29c-.426,2.151-.721,3.917-.93,5.556a42.268,42.268,0,0,0-.372,5.617,12.745,12.745,0,0,0,.865,5.009,7.664,7.664,0,0,0,.359.723l.079.14.035.059.072.116a4.115,4.115,0,0,1,.786-.713c.115-.089.215-.166.287-.228l.035-.031,1.181-1.1A1.632,1.632,0,0,1,11,87a1.573,1.573,0,0,1,.768.2,3.4,3.4,0,0,1,.931.75,3.53,3.53,0,0,1,.569.924,9.389,9.389,0,0,1,.539,2.165c.058.344.118.7.194,1.048l.018.081a2.368,2.368,0,0,0,.361.913.926.926,0,0,0,.791.386,1.62,1.62,0,0,0,.261-.023A1.907,1.907,0,0,0,16.61,92.7a4.539,4.539,0,0,0,.681-1.263l.041-.113a1.791,1.791,0,0,1,.641-.879,1.573,1.573,0,0,1,.914-.289,1.65,1.65,0,0,1,.94.295,1.846,1.846,0,0,1,.669.873l.218.577a10.238,10.238,0,0,0,.848,1.809,3.007,3.007,0,0,0,1.382,1.272,1.881,1.881,0,0,0,.706.13,5.257,5.257,0,0,0,1.957-.553c.114-.049.222-.095.328-.138a.692.692,0,0,1,.264-.052.935.935,0,0,1,.578.223,1.046,1.046,0,0,1,.349.507,2.994,2.994,0,0,1,.078.362c.137-.013.275-.02.411-.02a5.513,5.513,0,0,1,2.326.576,6.816,6.816,0,0,1,1.83,1.256,3.523,3.523,0,0,1,1.1,1.881,1.551,1.551,0,0,1-.314,1.277A1.383,1.383,0,0,1,31.5,100.922ZM10.575,49.03a10.586,10.586,0,0,1-6.141-2.065,10.927,10.927,0,0,1-3.2-3.856,11.507,11.507,0,0,1-.85-2.287,12.21,12.21,0,0,1-.363-2.41,12.785,12.785,0,0,1,.153-2.7,12.953,12.953,0,0,1,.722-2.63,12.667,12.667,0,0,1,1.276-2.439,12.226,12.226,0,0,1,1.816-2.13,11.577,11.577,0,0,1,3.642-2.305,11.347,11.347,0,0,1,4.188-.8,11.656,11.656,0,0,1,1.632.116,11.075,11.075,0,0,1,4.569,1.737A8.691,8.691,0,0,1,19.8,28.826a12.5,12.5,0,0,1,1.361,1.945.091.091,0,0,1,0,.095.106.106,0,0,1-.091.052A.1.1,0,0,1,21,30.891a11.394,11.394,0,0,0-3.8-2.263,12.908,12.908,0,0,0-4.378-.791c-.145,0-.292,0-.435.008a9.548,9.548,0,0,0-3.827.967,10.1,10.1,0,0,0-1.664,1.02,10.276,10.276,0,0,0-1.436,1.315,9.96,9.96,0,0,0-1.965,3.236,9.342,9.342,0,0,0-.568,3.829,8.8,8.8,0,0,0,1.179,3.849A7.98,7.98,0,0,0,6.9,44.94a7.09,7.09,0,0,0,3.722.951,17.727,17.727,0,0,0,4.138-.621,1.085,1.085,0,0,1,.256-.032.826.826,0,0,1,.758.477,1.031,1.031,0,0,1-.13,1.078,5.572,5.572,0,0,1-2.27,1.714A7.243,7.243,0,0,1,10.575,49.03Zm3.4-9.226a.789.789,0,0,1-.555-.225.583.583,0,0,1-.17-.428,3.208,3.208,0,0,1,.344-1.392,3.553,3.553,0,0,1,.882-1.1c-.2-.031-.366-.05-.52-.061-.282-.019-.569-.029-.855-.029a15.27,15.27,0,0,0-5.264,1l.207.116a.075.075,0,0,1,.055.085.083.083,0,0,1-.083.069H8l-.973.049a.465.465,0,0,1-.106.013.38.38,0,0,1-.352-.227.427.427,0,0,1,.067-.459,9.706,9.706,0,0,1,2.692-2.2A10.493,10.493,0,0,1,12.6,33.841l.228-.039a16.617,16.617,0,0,1,2.623-.233,6.952,6.952,0,0,1,2.5.382,2.22,2.22,0,0,1,1.469,1.511,1.245,1.245,0,0,1-.2,1.109,1.669,1.669,0,0,1-.694.5,2.383,2.383,0,0,1-.9.173c-.04,0-.08,0-.119,0a9.8,9.8,0,0,1-1.816-.327c-.231-.057-.47-.115-.706-.166a14.035,14.035,0,0,0-.379,2.1c-.02.156-.041.318-.063.478A.541.541,0,0,1,13.974,39.8Zm70.7-1.464a5.251,5.251,0,0,1-.948-.109.957.957,0,0,1-.629-.481,1.036,1.036,0,0,1-.116-.836l.13-.39a2.56,2.56,0,0,1,.66-1.125,7.61,7.61,0,0,1,.757-.647c.118-.092.239-.187.356-.284a9.662,9.662,0,0,0,2.1-2.281,6.852,6.852,0,0,0,.992-2.568,5.965,5.965,0,0,0-.2-2.738,4.947,4.947,0,0,0-4.281-3.493,8.816,8.816,0,0,0-1.017-.057,13.937,13.937,0,0,0-2.458.247l-.7.126a3.416,3.416,0,0,0-2.433,1.283.122.122,0,0,1-.1.051.106.106,0,0,1-.1-.077A1.385,1.385,0,0,1,77,23.622a4.409,4.409,0,0,1,1.106-.955A8.418,8.418,0,0,1,80.2,21.75a13.63,13.63,0,0,1,2.245-.452,9.009,9.009,0,0,1,1.07-.065,8.341,8.341,0,0,1,1.869.209,7.472,7.472,0,0,1,1.733.629,6.795,6.795,0,0,1,2.727,2.535,8.265,8.265,0,0,1,.846,1.9,8.876,8.876,0,0,1,.363,2.033A9.423,9.423,0,0,1,90.39,32.6a12,12,0,0,1-2.571,3.9A8.076,8.076,0,0,1,85.967,38,2.621,2.621,0,0,1,84.673,38.34Zm-3.21-.593h0c-.031,0-.063,0-.094,0A2.982,2.982,0,0,1,79.22,36.56a7.359,7.359,0,0,1-1.1-2.315l-.291-.931a27.648,27.648,0,0,0-1.539-4.075,29.5,29.5,0,0,0-3-4.866c-.584-.761-1.229-1.491-1.852-2.2-.586-.664-1.191-1.349-1.744-2.058a.329.329,0,0,1-.027-.336.212.212,0,0,1,.191-.13.268.268,0,0,1,.1.019,13.574,13.574,0,0,1,4.457,2.951,23.909,23.909,0,0,1,3.422,4.16,26.084,26.084,0,0,1,1.538,2.68,5.346,5.346,0,0,1,1.18-1.039,8.646,8.646,0,0,1,1.376-.734l.1-.043a6.954,6.954,0,0,1,2.462-.6,1.52,1.52,0,0,1,1.534.818,1.068,1.068,0,0,1-.241,1.273,1.64,1.64,0,0,1-1.182.375c-.18,0-.362-.012-.538-.023-.159-.01-.309-.02-.453-.021h-.056a9.893,9.893,0,0,0-3.41.755h0l-.348.122c.235.514.454,1.027.649,1.525.1.251.19.511.278.763a11.893,11.893,0,0,0,.535,1.351,8.505,8.505,0,0,0,.94,1.391c.1.129.2.262.3.393a1.015,1.015,0,0,1,.2.6,1.371,1.371,0,0,1-.15.626A1.272,1.272,0,0,1,81.463,37.747ZM18.918,26.863a1.266,1.266,0,0,1-.493-.107,1.583,1.583,0,0,1-.848-1.787,8.4,8.4,0,0,1,.952-2.843,25.223,25.223,0,0,1,1.564-2.587,24.886,24.886,0,0,1,3.62-4.236A30.529,30.529,0,0,1,28.1,11.9a39.844,39.844,0,0,1,4.909-2.666A52.747,52.747,0,0,1,38.191,7.2,126.687,126.687,0,0,1,50.5,3.967c2.348-.533,4.776-1.084,7.142-1.705A72.863,72.863,0,0,0,64.652.08,1.224,1.224,0,0,1,65.081,0a1.205,1.205,0,0,1,.669.21,1.557,1.557,0,0,1,.482.528,1.453,1.453,0,0,1,.036,1.45,7.055,7.055,0,0,0-.963,2.761l5.307-1.268a1.506,1.506,0,0,1,.349-.041,1.488,1.488,0,0,1,1.176.581,1.386,1.386,0,0,1,.237,1.227l-.819,3.045a13.066,13.066,0,0,1,3.3-.639l.087,0a1.185,1.185,0,0,1,.935.449,1.656,1.656,0,0,1,.331,1.335,31.827,31.827,0,0,1-1.419,5.108l-.453,1.194A6.68,6.68,0,0,1,71.9,19.513a.879.879,0,0,1-.464.132.974.974,0,0,1-.964-.952,7.851,7.851,0,0,1,1.008-3.334c.221-.468.45-.952.631-1.439a30.378,30.378,0,0,0,.917-2.932,10.014,10.014,0,0,0-2.819,1.321l-.132.09a1.2,1.2,0,0,1-.69.221,1.522,1.522,0,0,1-1.411-1.793l.01-.04,1-3.759L64.231,8.178a1.634,1.634,0,0,1-.384.047,1.35,1.35,0,0,1-.987-.414,1.707,1.707,0,0,1-.456-1.028,9.634,9.634,0,0,1,.173-2.973C59.3,4.847,55.9,5.649,53.007,6.3l-.483.108c-.656.146-1.32.292-1.962.433-3.168.7-6.444,1.416-9.605,2.331-1.7.493-3.233,1-4.68,1.551a42.664,42.664,0,0,0-4.514,2.011,36.4,36.4,0,0,0-7.873,5.421,24.149,24.149,0,0,0-3.2,3.546,22.212,22.212,0,0,0-1.237,1.875l-.3.526a4.175,4.175,0,0,0-.375.789l-.043.137a1.445,1.445,0,0,0-.082.738,1.05,1.05,0,0,0,.326.428.911.911,0,0,0,.531.235.406.406,0,0,0,.135-.022l.017,0a.041.041,0,0,1,.038.026.057.057,0,0,1-.007.06A.977.977,0,0,1,18.918,26.863Z" transform="translate(1.687 5.072)"/>
  </g>
  <g id="FACE" transform="translate(112.183 77.354)">
    <path id="_Ink-3" data-name="ðŸ– Ink" d="M22.824,40.539a8.045,8.045,0,0,1-3.052-.61,8.621,8.621,0,0,1-1.992-1.145,8.487,8.487,0,0,1-1.622-1.636,1.676,1.676,0,0,1-.338-1.3,1.871,1.871,0,0,1,.728-1.172,1.793,1.793,0,0,1,1.067-.372,1.548,1.548,0,0,1,.238.018,1.648,1.648,0,0,1,1.1.73l.065.09A5.7,5.7,0,0,0,21.108,36.9a4.735,4.735,0,0,0,2.069.483,4.583,4.583,0,0,0,.513-.029,5.388,5.388,0,0,0,2.278-.8,10.668,10.668,0,0,0,1.93-1.611c.138-.141.284-.294.474-.5a.751.751,0,0,1,.394-.3.806.806,0,0,1,.256-.041.871.871,0,0,1,.714.373.8.8,0,0,1,.135.524,4.812,4.812,0,0,1-.57,1.864,6.221,6.221,0,0,1-1.22,1.567,7.841,7.841,0,0,1-1.847,1.288,7.69,7.69,0,0,1-2.05.7A7.548,7.548,0,0,1,22.824,40.539Zm2.148-12.17h0a7.373,7.373,0,0,1-2.63-.53,13.281,13.281,0,0,1-3.093-1.756,1.189,1.189,0,0,1-.432-.687,1.423,1.423,0,0,1,.061-.771,1.754,1.754,0,0,1,.521-.753,1.267,1.267,0,0,1,.812-.317,1.151,1.151,0,0,1,.628.193l.209.161,0,0a16.744,16.744,0,0,0,1.936,1.347,4.768,4.768,0,0,0,2.321.74,2.505,2.505,0,0,0,.981-.193,2.74,2.74,0,0,0,.913-.647,2.8,2.8,0,0,0,.531-2.255,4.26,4.26,0,0,0-1.13-2,8.241,8.241,0,0,0-1.711-1.381.531.531,0,0,1-.144-.61.8.8,0,0,1,.264-.38.809.809,0,0,1,.505-.167,1.076,1.076,0,0,1,.181.016,5.736,5.736,0,0,1,2.018.729,4.577,4.577,0,0,1,1.357,1.252,4.974,4.974,0,0,1,.866,3.322,5.475,5.475,0,0,1-.444,1.744,5.087,5.087,0,0,1-1,1.5A4.779,4.779,0,0,1,24.972,28.369ZM7.859,16.485a1.724,1.724,0,0,1-1.119-.439,1.744,1.744,0,0,1-.587-1.128,12.706,12.706,0,0,1,.067-3.308c.04-.321.081-.654.11-1.012a1.98,1.98,0,0,1,.75-1.415,2.31,2.31,0,0,1,1.421-.5,1.751,1.751,0,0,1,1.075.338,1.594,1.594,0,0,1,.594,1.057,8.877,8.877,0,0,1-.926,5.469,1.754,1.754,0,0,1-.619.716A1.427,1.427,0,0,1,7.859,16.485Zm25.119-.75a1.508,1.508,0,0,1-1.183-.507A4.624,4.624,0,0,1,31.074,14a5.342,5.342,0,0,1-.368-1.477,3.131,3.131,0,0,1,.853-2.687,1.772,1.772,0,0,1,.137-.208,1.933,1.933,0,0,1,1.487-.856,1.611,1.611,0,0,1,.452.067,2.175,2.175,0,0,1,1.453,1.268,4.486,4.486,0,0,1,.18,2.453,8.214,8.214,0,0,1-.744,2.314,1.5,1.5,0,0,1-.643.635A1.947,1.947,0,0,1,32.979,15.735ZM.278,7.854a.274.274,0,0,1-.229-.14.306.306,0,0,1-.018-.3A10.425,10.425,0,0,1,2.368,4.454,14.446,14.446,0,0,1,5.5,2.317a13.445,13.445,0,0,1,3.714-1.3l.4-.069A9.66,9.66,0,0,1,11.226.776a2.5,2.5,0,0,1,2,.746,1.7,1.7,0,0,1,.4,1.208,1.106,1.106,0,0,1-.4.789,3.08,3.08,0,0,1-2.112.62c-.166,0-.338,0-.5-.008H10.6c-.16,0-.341-.009-.521-.009s-.314,0-.452.012a14.274,14.274,0,0,0-3.143.536A21.357,21.357,0,0,0,.424,7.806.26.26,0,0,1,.278,7.854Zm38.247-1.6h0l-.167-.042A9.458,9.458,0,0,1,36.524,5.5l-.6-.293A16.537,16.537,0,0,0,33.8,4.3a25.089,25.089,0,0,0-4.845-1.07,1.979,1.979,0,0,1-.972-.369,1.457,1.457,0,0,1-.544-.828A1.482,1.482,0,0,1,27.609.786a1.581,1.581,0,0,1,.767-.661A1.725,1.725,0,0,1,29.03,0a1.926,1.926,0,0,1,.377.038l.3.062a21.676,21.676,0,0,1,5.232,1.7,10.579,10.579,0,0,1,2.3,1.514,6.719,6.719,0,0,1,1.627,2.1c.057.439,0,.548-.055.622L38.8,6.06l-.015.02a.421.421,0,0,1-.26.173Z" transform="translate(11.197 10.99)"/>
  </g>
  <g id="FACIAL_HAIR" data-name="FACIAL HAIR" transform="translate(104.577 109.479)">
    <path id="_Ink-4" data-name="ðŸ– Ink" d="M32.669,2.254c-1.393-.262-2.833-.188-4.217-.493C27.1,1.463,26.03.578,24.726.166a3.807,3.807,0,0,0-3.387.586,4.9,4.9,0,0,0-2.719-.34,12.685,12.685,0,0,0-4.046,1.455c-.148.076-.3.149-.444.222a29.818,29.818,0,0,0-7.09.451A8.446,8.446,0,0,0,1.832,5.771C.464,7.72.217,10.2.006,12.5c-.134,1.462,1.9,1.758,2.583.7A17.06,17.06,0,0,1,4.995,10.1,5.852,5.852,0,0,1,8.857,8.564c3.247-.208,6.515-.034,9.765-.178C20.506,8.3,22.6,7.579,23.363,5.94a5.658,5.658,0,0,0,4.157,2.14,36.3,36.3,0,0,1,4.8.164c1.51.318,3.3,1.443,2.969,3.242a.964.964,0,0,0,1.753.739,6.651,6.651,0,0,0-4.369-9.972" transform="translate(21.972 5.918)"/>
  </g>
</svg>
