<svg xmlns="http://www.w3.org/2000/svg" width="259.014" height="324" viewBox="0 0 259.014 324">
  <g id="peep-21" transform="translate(19.014)">
    <g id="BODY" transform="translate(31.056 135.053)">
      <path id="_Skin" data-name="âœ‹ Skin" d="M49.808,154.421c-1.444,0-2.856-.053-4.2-.158a12.123,12.123,0,0,1-3.56-.951,15.856,15.856,0,0,1-3.1-1.818,43.73,43.73,0,0,1-5.4-5.034h0c-.927-.966-1.885-1.965-2.849-2.869-4.456-4.556-8.791-9.3-12.883-14.109-4.135-4.856-8.128-9.894-11.867-14.976l-.157-.217c-.394-.539-.818-1.09-1.228-1.623a36.238,36.238,0,0,1-2.946-4.233,13.233,13.233,0,0,1-1.039-2.3,9.408,9.408,0,0,1-.485-2.486,2.083,2.083,0,0,1-.053-1.014,3.911,3.911,0,0,1,.368-1.078,5.653,5.653,0,0,1,1.417-1.794l.36-.519c1.528-2.2,2.964-4.166,4.389-6.014,1.612-2.091,3.166-3.972,4.75-5.749,1.712-1.922,3.458-3.715,5.192-5.329a64.351,64.351,0,0,1,5.716-4.753,2.8,2.8,0,0,1,.277-1.3,2.866,2.866,0,0,1,.9-1.079L56.874,50.783c2.762-1.9,5.508-3.944,8.163-5.919,2.824-2.1,5.744-4.273,8.7-6.284a86.033,86.033,0,0,1,9.162-5.529,41.447,41.447,0,0,1,3.993-1.665c1.272-.458,2.612-.88,4.1-1.291,2.758-.764,5.61-1.373,8.368-1.961,2.282-.487,4.64-.99,6.936-1.579a57.961,57.961,0,0,0,6.785-2.142c.093-1.24,1.305-2.012,2.306-2.441a9.15,9.15,0,0,1,3.148-.727c.223,0,.363.026.395.074a.041.041,0,0,1,0,.041,26.962,26.962,0,0,0,7.084-5.965,17.847,17.847,0,0,0,2.05-3.13,14.168,14.168,0,0,0,1.155-3.1,22.737,22.737,0,0,0,.457-3.011,10.448,10.448,0,0,1,.821-3.7A4.725,4.725,0,0,1,133.766.147C135.129.05,136.5,0,137.853,0a48.456,48.456,0,0,1,8.175.66,31.741,31.741,0,0,1,7.781,2.31A21.853,21.853,0,0,1,157.218,4.9a17.7,17.7,0,0,1,2.911,2.525,15.945,15.945,0,0,1,2.279,3.185,16.887,16.887,0,0,1,1.514,3.906,17.076,17.076,0,0,0,.954,3.091,13.04,13.04,0,0,0,1.359,2.443,27.65,27.65,0,0,0,4.074,4.313,22.719,22.719,0,0,1,2.407,3.731,13.856,13.856,0,0,1,1.223,3.42,9.012,9.012,0,0,1-.68,5.884,12.014,12.014,0,0,1-3.811,4.336,24.111,24.111,0,0,1-6.164,3.142,42.529,42.529,0,0,1-7.813,1.912,58.186,58.186,0,0,1-8.757.645c-1.921,0-3.86-.09-5.762-.267-1.932-.18-3.842-.452-5.676-.807a44.021,44.021,0,0,1-10.36-3.273,24.421,24.421,0,0,1-7.815-5.547,14.8,14.8,0,0,1-3.8-7.9,91.941,91.941,0,0,1-12.39,3.24,91,91,0,0,0-12.548,3.3A54.451,54.451,0,0,0,76.2,43.021C67.32,49.33,58.368,55.847,49.711,62.15c-6.48,4.718-13.181,9.6-19.808,14.355,4.409,2.031,11.734,8.272,13.447,14.242a7.134,7.134,0,0,1-.718,6.119,14.282,14.282,0,0,1-3.281,2.766l0,0c-.27.185-.55.377-.818.567l-.748.534c-.718.515-1.631,1.174-2.6,1.871-1.172.846-2.384,1.721-3.219,2.317l-.276.2-.341.245a258.106,258.106,0,0,0,37.467,43.392,2.075,2.075,0,0,1,.6,1.109,2.666,2.666,0,0,1-.059,1.289,2.3,2.3,0,0,1-.562.967,1.822,1.822,0,0,1-1.005.519l-2.059.3A111.553,111.553,0,0,1,49.808,154.421Zm168.75-.186h0c-6.382-.026-12.875-.3-19.155-.563-4.681-.2-9.522-.4-14.281-.5a3.53,3.53,0,0,1-2.009-1.146,2.33,2.33,0,0,1-.444-1.774,5.151,5.151,0,0,1,.944-2.233,9.96,9.96,0,0,1,2.062-2.133,11.343,11.343,0,0,1,2.807-1.6,8.781,8.781,0,0,1,3.178-.63,6.682,6.682,0,0,1,3.336.862,7.7,7.7,0,0,1,2.648,2,7.552,7.552,0,0,0,2.581,1.958,1.537,1.537,0,0,0,.317.039c.408,0,.516-.273.713-.768.024-.061.05-.125.078-.193l.043-.1c.361-.858.72-1.733,1.068-2.58l0,0c.165-.4.353-.86.539-1.309,4.187-10.316,8.667-20.714,13-30.769l.309-.718.795-1.846a3.848,3.848,0,0,0-.055-3.273,7.284,7.284,0,0,0-2.213-2.543,19.094,19.094,0,0,0-1.874-1.217c-1.183-.714-2.406-1.453-2.326-1.742.023-.084.16-.127.406-.127a11.013,11.013,0,0,1,2.017.314,10,10,0,0,1-.819-3.859,12.266,12.266,0,0,1,.59-3.778,23.709,23.709,0,0,1,3.71-6.867,22.76,22.76,0,0,1,2.22-2.862,13.435,13.435,0,0,1,2.194-1.936,8.57,8.57,0,0,1,2.156-1.1,6.694,6.694,0,0,1,2.107-.346,7.152,7.152,0,0,1,2.53.482,10.472,10.472,0,0,1,2.416,1.334,21.3,21.3,0,0,1,4.4,4.55,46.142,46.142,0,0,1,3.69,5.939c.988,1.866,1.931,3.878,2.8,5.981a22.89,22.89,0,0,1,1.181,5.159,28.164,28.164,0,0,1,.064,5.349,37.877,37.877,0,0,1-.861,5.455,52.871,52.871,0,0,1-1.6,5.476A88.55,88.55,0,0,1,235.21,131.3c-1.733,3.443-3.609,6.8-5.264,9.756l0,0v0c-.4.718-.781,1.4-1.156,2.072-.577.783-1.2,1.772-1.859,2.819a42.41,42.41,0,0,1-3.742,5.316C221.586,153.086,220.073,154.056,218.558,154.235Zm-44.7-45.762a24.77,24.77,0,0,1-5.215-.57,27.637,27.637,0,0,1-5.043-1.615,27.246,27.246,0,0,1-8.6-5.8c-3.056-4.187-1.91-9.166-.8-13.982a47.542,47.542,0,0,0,1-5.211,22.234,22.234,0,0,1-.992-3.9c-.1-.516-.192-1-.3-1.488l-.047-.208-1.489-6.5a2.934,2.934,0,0,1,.578-2.386,2.279,2.279,0,0,1,.7-.6,1.917,1.917,0,0,1,.914-.23,2.092,2.092,0,0,1,.238.014,151.9,151.9,0,0,0,17.248.986c3.124,0,6.289-.1,9.407-.293s6.276-.49,9.378-.878a1.4,1.4,0,0,1,.172-.011,2.359,2.359,0,0,1,1.436.588,2.2,2.2,0,0,1,.82,1.276c1.29,8.184-.2,16.31-1.842,23.932l-.313,1.445c-.3,1.386-.635,2.861-1.093,4.3a17.893,17.893,0,0,1-1.794,4.034,13.9,13.9,0,0,1-2.946,3.37,15.448,15.448,0,0,1-3.826,2.324A20.405,20.405,0,0,1,173.858,108.472Z" transform="translate(-47.325 -6.34)" fill="#d08b5b"/>
      <rect id="_Top" data-name="ðŸ‘• Top" width="42.042" height="42.27" transform="translate(104.366 59.812)" fill="#fdea6b"/>
      <path id="_Ink" data-name="ðŸ– Ink" d="M225.092,150.27a2.147,2.147,0,0,1-.953-.228,2.05,2.05,0,0,1-.743-.619,1.716,1.716,0,0,1-.237-1.574c.045-.141.09-.285.13-.413a10.72,10.72,0,0,1,.751-1.946c.205-.384.431-.767.65-1.137.112-.19.228-.387.341-.581.336-.584.682-1.189.986-1.722l0,0c.322-.563.654-1.144.983-1.715.636-1.106,1.3-2.221,1.939-3.3.754-1.269,1.533-2.581,2.274-3.887,2.644-4.656,4.807-8.859,6.611-12.848l.234-.518c.763-1.7,1.744-3.94,2.565-6.215a40.331,40.331,0,0,0,1.8-6.464,21.542,21.542,0,0,0,.345-3.43,22.581,22.581,0,0,0-.189-3.354,29.193,29.193,0,0,0-1.713-6.575c-.939-2.486-1.992-4.859-2.8-6.649l-.191-.419-.273-.592a28.909,28.909,0,0,1-2.2-5.847.169.169,0,0,1,.033-.145.173.173,0,0,1,.133-.066.163.163,0,0,1,.115.049,31,31,0,0,1,4.188,5.464c.338.516.688,1.05,1.039,1.568.324.477.658.957.982,1.421a36.944,36.944,0,0,1,3.425,5.6,21.456,21.456,0,0,1,1.98,7.317,29.525,29.525,0,0,1-.513,7.659,45.175,45.175,0,0,1-1.99,7.281c-.96,2.687-2.108,5.271-2.888,6.981-1.83,4.012-4.036,8.269-6.744,13.013l-.868,1.515c-1.012,1.763-2.1,3.638-3.275,5.472-.235.367-.471.742-.7,1.1l0,0a28.552,28.552,0,0,1-3.906,5.266A1.825,1.825,0,0,1,225.092,150.27ZM204.2,147.876a1.486,1.486,0,0,1-1.129-.562,1.324,1.324,0,0,1-.263-1.14,31.7,31.7,0,0,1,1.225-3.82c.21-.571.427-1.161.621-1.738.213-.632.429-1.275.638-1.9l.01-.029c.4-1.19.811-2.42,1.227-3.626,1.077-3.124,2.25-6.168,3.562-9.539l1.22-3.136c1.082-2.778,2.351-6.007,3.7-9.174l.141-.332c.1-.227.194-.46.289-.686l.013-.03c.63-1.5,1.281-3.043,2.06-4.506a16.66,16.66,0,0,1,2.814-3.975.188.188,0,0,1,.121-.055,7.875,7.875,0,0,1-1.656-1.188l-.024-.024a9.357,9.357,0,0,1-1.263-1.838c-.31.11-.641.225-1.014.351a1.648,1.648,0,0,1-.526.091,1.309,1.309,0,0,1-.9-.351l-.656.406a4.754,4.754,0,0,1-2.23.856h-.066a2.346,2.346,0,0,1-1.262-.363,3.106,3.106,0,0,1-.936-.946c-.171-.259-.318-.529-.461-.79a6.273,6.273,0,0,0-.881-1.324,13.52,13.52,0,0,0-1.95-1.657l-.814-.592a22.344,22.344,0,0,1-4.141-3.631c-.1-.119-.2-.239-.31-.366l-.006-.007a8.883,8.883,0,0,1-1.465-2.089,1.437,1.437,0,0,1-.125-.482c-.09.615-.183,1.229-.245,1.638-.642,4.274-1.137,8.051-1.512,11.548-.445,4.148-.73,7.947-.871,11.613-.176,4.624-.189,8.167-.04,11.489.083,1.89.223,3.818.416,5.73.084.847.187,1.849.311,2.86l.027.22a4.078,4.078,0,0,1,.03.841,2.915,2.915,0,0,1,1.127,1.093,8.923,8.923,0,0,1,.709,1.428,1.588,1.588,0,0,1,.081,1,1.9,1.9,0,0,1-.474.845,8.008,8.008,0,0,1,1.439,1.748.116.116,0,0,1,.008.12.139.139,0,0,1-.121.067.138.138,0,0,1-.087-.03,10,10,0,0,0-2.142-1.306,2.116,2.116,0,0,1-.752.143,1.766,1.766,0,0,1-.471-.062,2.023,2.023,0,0,1-1.071-.771,8.813,8.813,0,0,0-1.424-.117,8.425,8.425,0,0,0-2.5.376,8.569,8.569,0,0,0-2.36,1.157,8.342,8.342,0,0,0-1.1.936c-.052.052-.107.119-.159.183l-.022.027.419.161a3.512,3.512,0,0,0,.371.128,9.8,9.8,0,0,0,1.11.147l.557.046c.265.022.541.043.784.062.92.07,1.871.143,2.788.294a10.765,10.765,0,0,1,2.692.777.432.432,0,0,1,.25.449.546.546,0,0,1-.373.491,10.172,10.172,0,0,1-2.723.327c-.477,0-.986-.021-1.651-.069l-.318-.024c-.316-.024-.643-.043-.96-.061h0a15.082,15.082,0,0,1-3.231-.419,1.647,1.647,0,0,1-.128,1.4,1.571,1.571,0,0,1-.512.519,2.02,2.02,0,0,1-.818.283,37.73,37.73,0,0,1-5.02.309c-2.434,0-4.849-.183-7.1-.381-3.687-.325-7.977-.691-12.228-.913-6.8-.358-14.01-.524-22.7-.524-5.875,0-11.837.078-16.965.151l-7.472.108c-4.372.062-9.071.119-13.809.119-1.4,0-2.765-.005-4.067-.015l-2.789-.026c-1.066-.01-2.307-.024-3.535-.06l-.706-.023c-.233-.008-.481-.01-.715-.01h-.363a6.057,6.057,0,0,1-3.4-.661,2.153,2.153,0,0,1-.916-1.353,2.249,2.249,0,0,1,.293-1.6,4.437,4.437,0,0,1,.668-.805c.5-4.282.793-8.655,1.076-12.884h0l.025-.375c.256-3.867.412-7.77.463-11.6.051-3.858,0-7.751-.161-11.571-.159-3.847-.427-7.73-.8-11.542-.373-3.837-.86-7.711-1.447-11.513-3.035.928-6.127,1.989-9.452,3.245-2.912,1.1-5.941,2.326-9.258,3.749-3.543,1.519-6.756,2.965-9.822,4.419-.794.377-1.6.787-2.388,1.184a39.483,39.483,0,0,1-6.707,2.891,1.179,1.179,0,0,1-.767.306.921.921,0,0,1-.279-.043l-.046-.016h0a1.3,1.3,0,0,1-.3.034,1.436,1.436,0,0,1-.746-.218l-.215-.132-.108-.069a10.989,10.989,0,0,1-3.021-2.623c-.81.752-1.686,1.461-2.532,2.148l-.013.011-.452.367c-1.229,1-2.3,1.888-3.279,2.705-.114.1-.232.191-.346.282a8.412,8.412,0,0,0-.941.84l-.055.061-.025.03a23.032,23.032,0,0,1,4.152,3.841l.023.025.2.221c1.406,1.53,2.778,3.128,4.052,4.628l1.285,1.516,1.134,1.341.024.029c4.305,5.091,8.757,10.356,13.478,15.218,2.544,2.62,4.95,4.905,7.354,6.985a82.1,82.1,0,0,0,8.037,6.171,1.737,1.737,0,0,1,.715.936,1.839,1.839,0,0,1-.012,1.072,2.019,2.019,0,0,1-.586.923,1.465,1.465,0,0,1-.97.385,1.586,1.586,0,0,1-.906-.306,104.074,104.074,0,0,1-9.976-7.894c-2.668-2.362-5.272-4.912-7.959-7.794-2.379-2.551-4.767-5.3-7.3-8.418-2.127-2.613-4.394-5.526-6.932-8.906l-.766-1.019c-.974-1.3-2.009-2.685-3.007-4.119l-.2-.292a20.286,20.286,0,0,1-2.308-4.03,2.2,2.2,0,0,1-.8.528.878.878,0,0,1-.32.059,1.266,1.266,0,0,1-1.152-.9c-.339-1.348.763-2.172,1.736-2.9l.132-.1c1.235-.923,2.5-1.813,3.68-2.646l.442-.312.286-.2a37.781,37.781,0,0,1,4.5-2.885,1,1,0,0,1,.182-.186c.088-.07.164-.129.239-.186-1.026-1.664-2.093-3.278-3.17-4.794-1.13-1.59-2.31-3.127-3.508-4.569a80.926,80.926,0,0,0-5.894-6.374l-.934-.9A49.584,49.584,0,0,0,24.9,71.188l-.491.557c-.591.669-1.284,1.444-2.017,2.174-1.415,1.407-2.8,2.828-4.088,4.163C16.1,80.367,13.937,82.754,11.73,85.2l-1.081,1.2c-.6.661-1.212,1.329-1.808,1.976-1.67,1.811-3.4,3.684-4.9,5.65l-.1.135a6.724,6.724,0,0,0-1.048,1.9,3.641,3.641,0,0,0-.066,2.147,12.629,12.629,0,0,0,1.819,3.5l0,0c.117.177.238.36.353.539l.082.127c3.46,5.392,7.091,10.5,10.792,15.188a146.628,146.628,0,0,0,12.447,14.011c2.3,2.256,4.65,4.362,6.977,6.261a85.421,85.421,0,0,0,7.557,5.52,1.313,1.313,0,0,1,.561.707,1.384,1.384,0,0,1,0,.818,1.551,1.551,0,0,1-.457.722,1.162,1.162,0,0,1-.769.3,1.264,1.264,0,0,1-.7-.223,95.632,95.632,0,0,1-8.819-6.555c-2.681-2.234-5.409-4.732-8.108-7.426-2.272-2.266-4.5-4.7-6.815-7.428-2.031-2.4-4.084-4.978-6.277-7.891-1.952-2.595-3.856-5.29-5.658-8.012-.35-.529-.719-1.073-1.075-1.6l0-.005a42.547,42.547,0,0,1-3.968-6.69A7.867,7.867,0,0,1,.028,97.7,5.874,5.874,0,0,1,.3,95.258a11.679,11.679,0,0,1,2.517-3.886l.1-.109c2.2-2.472,4.554-5.049,7.2-7.881,2.268-2.428,4.749-4.9,7.585-7.564a54.03,54.03,0,0,1,6.45-5.182c-.208-.148-.41-.286-.619-.421a1.259,1.259,0,0,1-.573-.921,1.143,1.143,0,0,1,.334-.941,47.033,47.033,0,0,1,3.554-3.133c.454-.374.923-.76,1.377-1.145,1.591-1.35,3.239-2.749,4.658-3.955,3.188-2.7,6.471-5.489,9.368-7.947l.114-.1c4.1-3.476,8.246-7.029,12.259-10.465l.011-.009c1.458-1.248,3.11-2.663,4.71-4.031,1.893-1.618,3.832-3.247,5.708-4.823l0,0,1.4-1.179,4.22-3.552,2.064-1.733a22.533,22.533,0,0,1,3.34-2.438,31.711,31.711,0,0,1,7.659-2.679h.005c.556-.143,1.13-.291,1.684-.44l.207-.056c3.827-1.048,7.277-1.918,10.547-2.661,3.506-.8,7.093-1.535,10.661-2.2a62.13,62.13,0,0,1,9.761-1.184,4.393,4.393,0,0,1,1.521-.288,2.892,2.892,0,0,1,1.107.2,3.925,3.925,0,0,1,.98.592c.462-.162.928-.3,1.378-.437a12.461,12.461,0,0,0,3.293-1.345A16.447,16.447,0,0,0,128.8,9.78a18.89,18.89,0,0,0,2.711-4.608A30.969,30.969,0,0,0,133.108.064.089.089,0,0,1,133.2,0a.076.076,0,0,1,.081.064,13.406,13.406,0,0,1,.1,2.977A15.938,15.938,0,0,1,132.871,6a19.165,19.165,0,0,1-2.46,5.438,18.858,18.858,0,0,1-4.314,4.7l-.132.1a12.53,12.53,0,0,1-2.245,1.37,6.1,6.1,0,0,1-2.515.615,4.052,4.052,0,0,1-1.481-.274,1.391,1.391,0,0,1-.19-.089c.213.33.416.681.612,1.021l.024.041.06.1c.386.67.755,1.365,1.112,2.037.271.51.551,1.036.836,1.548a22.835,22.835,0,0,0,4.373,5.687,25.491,25.491,0,0,0,2.734,2.217,27.068,27.068,0,0,0,2.953,1.8,32.16,32.16,0,0,0,6.413,2.5,44.167,44.167,0,0,0,6.834,1.28,63.416,63.416,0,0,0,6.949.36l.63,0,.663-.006.891,0a39.09,39.09,0,0,0,6.291-.364,10.312,10.312,0,0,0,5.523-2.437A10.7,10.7,0,0,0,168.5,30.83a31.25,31.25,0,0,0,1.43-3.214c.571-1.433,1.027-2.921,1.467-4.361l0-.006c.2-.667.415-1.358.635-2.033a15.818,15.818,0,0,1-3.828-3.631,15.225,15.225,0,0,1-1.425-2.349,14.328,14.328,0,0,1-.964-2.573l-.07-.266a14.093,14.093,0,0,1-.432-2.345,4.762,4.762,0,0,1,.287-2.286.2.2,0,0,1,.191-.112.223.223,0,0,1,.2.112,5.6,5.6,0,0,1,.407,1.336c.05.235.1.477.17.712a16.931,16.931,0,0,0,.826,2.344,16.905,16.905,0,0,0,2.567,4.071,16.807,16.807,0,0,0,2.856,2.712,2.31,2.31,0,0,1,2.122-1.047,4.262,4.262,0,0,1,1.18.174,47.764,47.764,0,0,1,4.821,1.738l.315.13c.383.159.769.311,1.177.472h0a24.026,24.026,0,0,1,3.6,1.649c.4.189.789.38,1.167.565l0,0c.474.231.922.45,1.362.657,3.434,1.614,7.074,3.427,11.8,5.877l.836.434a25.1,25.1,0,0,1,4.677,2.9A20.875,20.875,0,0,1,209.5,36.88l.016.023c1.337,1.961,2.652,3.986,3.925,5.945v0l0,0c1.025,1.578,2.085,3.209,3.15,4.8l.006.009c4.734,7.056,9.629,14.353,14.485,21.531.4.586.816,1.177,1.223,1.749h0c.8,1.126,1.627,2.289,2.324,3.487a6.477,6.477,0,0,1,.844,2.642,13.8,13.8,0,0,1-.06,2.792l-.037.354c-.355,3.333-.965,6.848-3.01,9.974a20.477,20.477,0,0,1-2.657,3.255,24.134,24.134,0,0,1-3.189,2.662,30.908,30.908,0,0,1-3.58,2.151,41.512,41.512,0,0,1-3.829,1.722c.114.085.228.172.338.256a7.9,7.9,0,0,0,1.655,1.055,11.631,11.631,0,0,0,3.672.86c.276.022.553.025.787.025h.587a6.737,6.737,0,0,1,1.365.1,2.666,2.666,0,0,1,1.213.561,1.058,1.058,0,0,1,.333.821,1.024,1.024,0,0,1-.333.79,2.97,2.97,0,0,1-1.981.613,12.027,12.027,0,0,1-1.39-.11h-.007l-.3-.035-.076-.008a13.4,13.4,0,0,1-3.467-.786c-.284-.112-.557-.233-.811-.361a.17.17,0,0,1,.008.08,25.05,25.05,0,0,1-1.038,4.224l-.276.882c-.46,1.474-1.07,3.419-1.711,5.394-1.077,3.318-2.236,6.578-3.531,10.191l-1.047,2.92c-1.033,2.876-2.143,5.934-3.368,8.931-.594,1.452-1.2,2.928-1.787,4.355l0,0-.184.449-.264.643c-.23.559-.451,1.142-.665,1.705a31.493,31.493,0,0,1-1.574,3.672A1.169,1.169,0,0,1,204.2,147.876Zm-34.611-51.49a7.411,7.411,0,0,0-3.258,1c.592.257,1.236.534,1.914.824l4.246,1.813c.4.171.816.339,1.217.5a27.411,27.411,0,0,1,3,1.355.732.732,0,0,1,.228.19c.861-.551,1.766-1.074,2.642-1.579.532-.307,1.083-.625,1.616-.945l.968-.577a10.019,10.019,0,0,1-3.222.594,7.028,7.028,0,0,1-1.983-.279,15.017,15.017,0,0,1-2.919-1.33,21.988,21.988,0,0,0-2.026-1.014,6.816,6.816,0,0,0-2.143-.547C169.778,96.389,169.683,96.386,169.588,96.386Zm-.02-2a5.777,5.777,0,0,1,.735.047,12.062,12.062,0,0,1,4.149,1.62,14.934,14.934,0,0,0,3.3,1.458,5.526,5.526,0,0,0,1.389.175,12.278,12.278,0,0,0,4.561-1.24,17.414,17.414,0,0,1,3.224-1.1,8.742,8.742,0,0,1,1.534-.166h.171l.076-.044c.165-.1.349-.192.543-.292a4.263,4.263,0,0,0,1.548-1.107A4.9,4.9,0,0,0,191.4,91.7v0c.034-.235.067-.458.107-.661.015-.075.033-.163.049-.25h-.005a4.685,4.685,0,0,0-.869.07,12.9,12.9,0,0,0-2.67.869c-.374.159-.752.325-1.118.486a27.12,27.12,0,0,1-3.845,1.464,14.24,14.24,0,0,1-3.676.525,10.618,10.618,0,0,1-1.515-.107,8.534,8.534,0,0,1-2.365-.715,15.348,15.348,0,0,1-2.146-1.238l-.228-.155-.148-.1a5.737,5.737,0,0,0-2.985-1.325,2.317,2.317,0,0,0-1.057.256,7.44,7.44,0,0,0-1.047.691,8.456,8.456,0,0,1-.927.628,8.674,8.674,0,0,1-2.242.867,9.884,9.884,0,0,1-2.22.249,9.569,9.569,0,0,1-1.937-.194l.021,1.877c1.117.461,2.213.929,3.137,1.325.658-.225,1.281-.489,2.015-.815l.463-.208A8.084,8.084,0,0,1,169.569,94.387Zm.447-6a4.083,4.083,0,0,1,.726.067,9.431,9.431,0,0,1,3.552,1.782l.389.268.2.134a10.014,10.014,0,0,0,2.138,1.1,7.108,7.108,0,0,0,2.374.424h.076a11.934,11.934,0,0,0,2.7-.332,21.716,21.716,0,0,0,2.608-.8c.358-.131.714-.269,1.058-.4a17.528,17.528,0,0,1,4.091-1.2,7.387,7.387,0,0,1,.914-.058,5.724,5.724,0,0,1,.964.077c.087-.483.166-.945.241-1.412.159-.978.3-2,.429-3.035a4.852,4.852,0,0,0-1.261-.165,11.33,11.33,0,0,0-4.9,1.644,18.145,18.145,0,0,1-3.061,1.336,9.728,9.728,0,0,1-2.7.376,9.992,9.992,0,0,1-2.685-.366,13.053,13.053,0,0,1-3.7-1.912c-.172-.114-.368-.243-.558-.367l-.254-.164a3.717,3.717,0,0,0-1.919-.747,1.839,1.839,0,0,0-.345.033,4.012,4.012,0,0,0-1.413.709c-.2.138-.4.268-.595.38a10.3,10.3,0,0,1-2.218.924,11.437,11.437,0,0,1-2.37.412c-.24.016-.485.025-.728.025a11.276,11.276,0,0,1-3.284-.494l.044,4.155a6.368,6.368,0,0,0,1.473.3c.184.014.37.021.553.021a7.058,7.058,0,0,0,2-.285,6.884,6.884,0,0,0,1.838-.854l.662-.439A5.338,5.338,0,0,1,170.015,88.384ZM171.41,82.6a4.57,4.57,0,0,1,1.8.4,9.564,9.564,0,0,1,1.636.922l.379.259a9.742,9.742,0,0,0,4.635,1.991c.222.02.447.031.669.031a10.887,10.887,0,0,0,4.589-1.242l.4-.183a12.785,12.785,0,0,1,5.048-1.46,4.372,4.372,0,0,1,2.05.47c.164-1.553.29-3.167.374-4.8a2.7,2.7,0,0,0-.955-.192h-.019a7.8,7.8,0,0,0-2.5.539c-.925.327-1.83.746-2.706,1.152h0c-.75.348-1.526.708-2.311,1.007a10.757,10.757,0,0,1-3.835.762,8.092,8.092,0,0,1-1.281-.1,5.855,5.855,0,0,1-2.129-.783,8.712,8.712,0,0,1-1.76-1.447l-.16-.169-.034-.036a3.323,3.323,0,0,0-1.68-1.182,1.748,1.748,0,0,0-.33-.031,3.508,3.508,0,0,0-1.631.545c-.478.265-.941.567-1.388.859a10.63,10.63,0,0,1-3.1,1.565,7.891,7.891,0,0,1-1.967.24,12.324,12.324,0,0,1-4.771-1.081c.009,1.292.019,2.61.03,3.849a9.816,9.816,0,0,0,1.253.378,9.217,9.217,0,0,0,4.618-.137,8.887,8.887,0,0,0,2.035-1,8.109,8.109,0,0,1,2.184-1.031A3.582,3.582,0,0,1,171.41,82.6Zm1.861-6.159a3.729,3.729,0,0,1,1.9.531,7.2,7.2,0,0,1,1.556,1.27l.118.123a6.42,6.42,0,0,0,1.784,1.385,4.686,4.686,0,0,0,2.128.476c.17,0,.348-.007.529-.022a15.311,15.311,0,0,0,4.616-1.4l.606-.255.152-.063A11.6,11.6,0,0,1,190.9,77.4a5.273,5.273,0,0,1,.743.051,5.1,5.1,0,0,1,1.39.4c.064-1.494.1-3.043.106-4.736a3.625,3.625,0,0,0-2.388-.8,4.663,4.663,0,0,0-1.257.173,12.649,12.649,0,0,0-3,1.466,17.075,17.075,0,0,1-2.2,1.187,7.113,7.113,0,0,1-2.732.582,5.9,5.9,0,0,1-2.134-.4,13.71,13.71,0,0,1-2.712-1.553,19.746,19.746,0,0,0-1.841-1.154,5.068,5.068,0,0,0-2.335-.712,2.68,2.68,0,0,0-.353.023,3.253,3.253,0,0,0-2.006,1.35l-.293.349a11.717,11.717,0,0,1-1.51,1.543,5.7,5.7,0,0,1-1.9,1.038,5.882,5.882,0,0,1-1.765.27,6.49,6.49,0,0,1-2.859-.686,13.74,13.74,0,0,1-1.373-.82l-.091-.059.025,3.371a14.408,14.408,0,0,0,2.994,1.165,7.04,7.04,0,0,0,1.66.209,5.97,5.97,0,0,0,1.869-.3,7.651,7.651,0,0,0,1.8-.874l.177-.115c.148-.1.3-.2.432-.287a7.686,7.686,0,0,1,3.7-1.631C173.121,76.446,173.2,76.444,173.271,76.444Zm-12.907-6.423c.01.6.01,1.215.01,1.8v0c0,.234,0,.476,0,.713.352.2.693.423,1.022.638l.254.165.146.092a5.7,5.7,0,0,0,2.955,1.03,3.875,3.875,0,0,0,1.195-.193,5.416,5.416,0,0,0,2.452-1.981h0c.237-.284.482-.578.746-.854a5.108,5.108,0,0,1,1.523-1.108,4.283,4.283,0,0,1,1.823-.408c.059,0,.12,0,.18,0a8.132,8.132,0,0,1,4.082,1.5c.3.194.6.407.892.612h0a9.886,9.886,0,0,0,2.924,1.6,4.054,4.054,0,0,0,1.085.148,5.64,5.64,0,0,0,2.2-.507,20.442,20.442,0,0,0,2.131-1.114,11.507,11.507,0,0,1,3.535-1.545,4.979,4.979,0,0,1,.855-.074,4.9,4.9,0,0,1,1.483.226,3.966,3.966,0,0,1,1.285.672c-.01-1.633-.044-3.424-.106-5.474a15.063,15.063,0,0,0-5.094,1.471,24.071,24.071,0,0,1-3.128,1.145,8.066,8.066,0,0,1-2.053.266,9.79,9.79,0,0,1-3.052-.525,31.085,31.085,0,0,1-2.989-1.2h0l-.344-.152a9.131,9.131,0,0,0-3.584-.955,4.809,4.809,0,0,0-.766.061,11.2,11.2,0,0,0-3.754,1.624l-.019.011-.278.163-.243.14a17.729,17.729,0,0,1-3.165,1.457,10.577,10.577,0,0,1-3.379.571C160.915,70.055,160.638,70.044,160.364,70.021Zm-.277-4.489a1.606,1.606,0,0,1-.1.294,18.52,18.52,0,0,1,.3,2.3,9.341,9.341,0,0,0,1,.055,8.615,8.615,0,0,0,1.751-.177,14.17,14.17,0,0,0,4.161-1.849c.555-.322,1.129-.656,1.71-.949-.4.015-.8.032-1.181.048h0c-1.544.067-2.979.138-4.386.218-.283.015-.58.05-.893.087a11.615,11.615,0,0,1-1.333.1A3.432,3.432,0,0,1,160.087,65.532Zm22.128-.656c-1.732.012-3.524.024-5.284.062l-.642.015h-.076c.582.226,1.152.478,1.828.787l.606.278a9.753,9.753,0,0,0,4.054,1.1c.147,0,.295-.005.44-.016a15.282,15.282,0,0,0,4.1-1.087c.276-.1.561-.206.845-.306a11.75,11.75,0,0,1,3.87-.742,7.411,7.411,0,0,1,1.059.074V65.01c0-.14-.008-.284-.014-.429-3.582.247-7.241.271-10.78.3Z" transform="translate(-50.07 -1.479)"/>
    </g>
    <g id="HEAD" transform="translate(78.592 38.043)">
      <path id="_Skin-2" data-name="âœ‹ Skin" d="M37.552,0c11.971,0,29.492,8.014,30.81,15.724,1.553,9.086,5,43.251,3.124,54.432S62.286,89.6,46.1,89.6,17.82,80.745,15.045,77.706s-6.137-12.5-6.137-12.5S.044,63.7,0,56.618s4.453-9.273,4.453-9.273S2.03,17.957,7.128,10.678,25.581,0,37.552,0Z" transform="translate(13.476 15.906)" fill="#d08b5b"/>
      <path id="_Ink-2" data-name="ðŸ– Ink" d="M42.4,107.376c-1.714-.18-3.487-.161-4.74-1.463a.85.85,0,0,1,.169-1.323,4.215,4.215,0,0,1,2.684-.342c.879.12,1.76.216,2.646.277a38.933,38.933,0,0,0,5.705-.009,29.67,29.67,0,0,0,10.22-2.752A23.524,23.524,0,0,0,70.615,90.51c2.675-5.865,2.5-12.66,2.378-18.962-.137-6.911-.392-13.8-.991-20.689-.291-3.339-.74-6.655-1.145-9.98q-.32-2.65-.837-5.271c-.181-.924-.417-1.835-.611-2.752a3.6,3.6,0,0,1-.432.042,3.438,3.438,0,0,1-2.5-.814,1.825,1.825,0,0,1-.953.3c-3.624.179-7.3-.042-10.935-.044s-7.288,0-10.933.01-7.292.045-10.931-.053a65.915,65.915,0,0,1-10.233-.638c-1.124,4-1.084,8.4,1.259,11.977a2.1,2.1,0,0,1-.738,2.826,8.63,8.63,0,0,1-3.821,1.729c-.131.3-.266.59-.394.883A30.459,30.459,0,0,0,17.16,53.6c-.21.807-.391,1.626-.543,2.451.012.144.025.289.041.432a.383.383,0,0,0,0,.046c.009.059.019.127.025.165.078.414.154.829.236,1.241q.294,1.506.455,3.033c.2,1.86.177,4.278-1.632,5.379a3.543,3.543,0,0,1-3.15.133,13.241,13.241,0,0,1-1.9-1.012c-.375-.22-.768-.4-1.134-.628a2.251,2.251,0,0,1-.289-.22,7.892,7.892,0,0,0-1.729.6A9,9,0,0,0,4.9,67.287a8.58,8.58,0,0,0-1.851,6.59,9.251,9.251,0,0,0,2.755,6.072,4.024,4.024,0,0,0,2.64.981A5.53,5.53,0,0,0,9.833,80.7a13.245,13.245,0,0,0,1.444-.254.934.934,0,0,1,1.143,1.145,7.35,7.35,0,0,1-.542,1.262,95.866,95.866,0,0,0,5.692,8.283c1.834,2.393,3.993,4.4,6.034,6.6.9.968,1.276,2.874-.354,3.288s-2.84-1.333-3.774-2.4a35.678,35.678,0,0,1-8.161-15.192,4.611,4.611,0,0,1-2.073.782,6.712,6.712,0,0,1-4.292-.843C.017,80.517-1.176,72.8,1.134,67.965a8.709,8.709,0,0,1,2.384-3.011.709.709,0,0,1-.059-.52c.089-.334.187-.664.29-.993a.289.289,0,0,1-.179-.307q.139-1.427.274-2.853c-.032-1.437-.1-2.872-.085-4.318.026-2.3.165-4.605.173-6.909.027-8.035.354-16.063.377-24.1.013-3.929.021-7.864-.082-11.791,0-.053,0-.1,0-.157-.085-3.143-.915-7.349,2.15-9.382A1.82,1.82,0,0,1,8.054,3.5,13.2,13.2,0,0,1,13.5,1.565C17.1.982,20.737.7,24.365.331A47.716,47.716,0,0,1,30.156.107c.992.022,1.991-.014,2.991-.05C34.09.023,35.034-.011,35.975,0c2.2.036,4.419.118,6.628.3l.312-.03A90.143,90.143,0,0,1,55.379.409c3.959.167,8.14.577,11.694,2.477a5.472,5.472,0,0,1,1.175.83,3.721,3.721,0,0,1,1.3.418,2.17,2.17,0,0,1,2.693,1.613,18.545,18.545,0,0,1,.308,5.9c-.006.046-.011.1-.017.146a12.329,12.329,0,0,1,.049,5.65q.251,3.431.276,6.871c.009,1.584.08,3.2-.067,4.776a6.168,6.168,0,0,1-1.6,3.542.715.715,0,0,1-.692.184.9.9,0,0,1-.164-.049c.541,1.162.968,2.4,1.407,3.573a52.926,52.926,0,0,1,1.849,5.717,80.138,80.138,0,0,1,1.98,11.912c.656,7.141.9,14.344,1.029,21.513.122,6.793-.474,13.877-4.335,19.685a28.082,28.082,0,0,1-14.239,10.76,34.861,34.861,0,0,1-10.3,1.659q-.556.017-1.113.016A40.745,40.745,0,0,1,42.4,107.376ZM12.915,76.21c-1.174-.772-1.746-2.185-2.756-3.153a11.89,11.89,0,0,0-1.6-1.27,6.32,6.32,0,0,0-.79-.5c-.028-.013-1.183-.389-.959.108.076.165-.122.349-.264.2-.4-.408-.177-.9.2-1.262a2.851,2.851,0,0,1,2.564-.349,9.027,9.027,0,0,1,3.31,1.395c1.067.712,2.384,1.7,2.6,3.05a1.743,1.743,0,0,1-1.515,2.031A1.435,1.435,0,0,1,12.915,76.21Z" transform="translate(11.595 -0.634)"/>
    </g>
    <g id="FACE" transform="translate(112.183 77.354)">
      <path id="_Ink-3" data-name="ðŸ– Ink" d="M22.824,40.539a8.045,8.045,0,0,1-3.052-.61,8.621,8.621,0,0,1-1.992-1.145,8.487,8.487,0,0,1-1.622-1.636,1.676,1.676,0,0,1-.338-1.3,1.871,1.871,0,0,1,.728-1.172,1.793,1.793,0,0,1,1.067-.372,1.548,1.548,0,0,1,.238.018,1.648,1.648,0,0,1,1.1.73l.065.09A5.7,5.7,0,0,0,21.108,36.9a4.735,4.735,0,0,0,2.069.483,4.583,4.583,0,0,0,.513-.029,5.388,5.388,0,0,0,2.278-.8,10.668,10.668,0,0,0,1.93-1.611c.138-.141.284-.294.474-.5a.751.751,0,0,1,.394-.3.806.806,0,0,1,.256-.041.871.871,0,0,1,.714.373.8.8,0,0,1,.135.524,4.812,4.812,0,0,1-.57,1.864,6.221,6.221,0,0,1-1.22,1.567,7.841,7.841,0,0,1-1.847,1.288,7.69,7.69,0,0,1-2.05.7A7.548,7.548,0,0,1,22.824,40.539Zm2.148-12.17h0a7.373,7.373,0,0,1-2.63-.53,13.281,13.281,0,0,1-3.093-1.756,1.189,1.189,0,0,1-.432-.687,1.423,1.423,0,0,1,.061-.771,1.754,1.754,0,0,1,.521-.753,1.267,1.267,0,0,1,.812-.317,1.151,1.151,0,0,1,.628.193l.209.161,0,0a16.744,16.744,0,0,0,1.936,1.347,4.768,4.768,0,0,0,2.321.74,2.505,2.505,0,0,0,.981-.193,2.74,2.74,0,0,0,.913-.647,2.8,2.8,0,0,0,.531-2.255,4.26,4.26,0,0,0-1.13-2,8.241,8.241,0,0,0-1.711-1.381.531.531,0,0,1-.144-.61.8.8,0,0,1,.264-.38.809.809,0,0,1,.505-.167,1.076,1.076,0,0,1,.181.016,5.736,5.736,0,0,1,2.018.729,4.577,4.577,0,0,1,1.357,1.252,4.974,4.974,0,0,1,.866,3.322,5.475,5.475,0,0,1-.444,1.744,5.087,5.087,0,0,1-1,1.5A4.779,4.779,0,0,1,24.972,28.369ZM7.859,16.485a1.724,1.724,0,0,1-1.119-.439,1.744,1.744,0,0,1-.587-1.128,12.706,12.706,0,0,1,.067-3.308c.04-.321.081-.654.11-1.012a1.98,1.98,0,0,1,.75-1.415,2.31,2.31,0,0,1,1.421-.5,1.751,1.751,0,0,1,1.075.338,1.594,1.594,0,0,1,.594,1.057,8.877,8.877,0,0,1-.926,5.469,1.754,1.754,0,0,1-.619.716A1.427,1.427,0,0,1,7.859,16.485Zm25.119-.75a1.508,1.508,0,0,1-1.183-.507A4.624,4.624,0,0,1,31.074,14a5.342,5.342,0,0,1-.368-1.477,3.131,3.131,0,0,1,.853-2.687,1.772,1.772,0,0,1,.137-.208,1.933,1.933,0,0,1,1.487-.856,1.611,1.611,0,0,1,.452.067,2.175,2.175,0,0,1,1.453,1.268,4.486,4.486,0,0,1,.18,2.453,8.214,8.214,0,0,1-.744,2.314,1.5,1.5,0,0,1-.643.635A1.947,1.947,0,0,1,32.979,15.735ZM.278,7.854a.274.274,0,0,1-.229-.14.306.306,0,0,1-.018-.3A10.425,10.425,0,0,1,2.368,4.454,14.446,14.446,0,0,1,5.5,2.317a13.445,13.445,0,0,1,3.714-1.3l.4-.069A9.66,9.66,0,0,1,11.226.776a2.5,2.5,0,0,1,2,.746,1.7,1.7,0,0,1,.4,1.208,1.106,1.106,0,0,1-.4.789,3.08,3.08,0,0,1-2.112.62c-.166,0-.338,0-.5-.008H10.6c-.16,0-.341-.009-.521-.009s-.314,0-.452.012a14.274,14.274,0,0,0-3.143.536A21.357,21.357,0,0,0,.424,7.806.26.26,0,0,1,.278,7.854Zm38.247-1.6h0l-.167-.042A9.458,9.458,0,0,1,36.524,5.5l-.6-.293A16.537,16.537,0,0,0,33.8,4.3a25.089,25.089,0,0,0-4.845-1.07,1.979,1.979,0,0,1-.972-.369,1.457,1.457,0,0,1-.544-.828A1.482,1.482,0,0,1,27.609.786a1.581,1.581,0,0,1,.767-.661A1.725,1.725,0,0,1,29.03,0a1.926,1.926,0,0,1,.377.038l.3.062a21.676,21.676,0,0,1,5.232,1.7,10.579,10.579,0,0,1,2.3,1.514,6.719,6.719,0,0,1,1.627,2.1c.057.439,0,.548-.055.622L38.8,6.06l-.015.02a.421.421,0,0,1-.26.173Z" transform="translate(11.197 10.99)"/>
    </g>
  </g>
</svg>
