<svg id="peep-75" xmlns="http://www.w3.org/2000/svg" width="240" height="324" viewBox="0 0 240 324">
  <g id="BODY" transform="translate(31.056 135.053)">
    <path id="_Skin" data-name="âœ‹ Skin" d="M109.827,158.472c-17.145.048-27.413-.153-46.806-.433-22.445-.594-28.494.474-41.069-2a15.705,15.705,0,0,1-4.869-1.891c-.532.6-1.433,1.5-2.289.9-1.577-1.042-.854-4.684-1.245-6.741-.647-18.109-1.683-36.759,1.857-54.649C13.26,92.968.687,87.794,0,86.06,11.371,56.317,36.314,21.51,69.132,22.821c.66.814,1.247,2.019,1.98,2.848C75.574,24,81.768,22.323,82.073,15.887c.773-4.295,1.329-8.3,1.7-12.252.067-.451.609-.607.941-.8A4.784,4.784,0,0,1,85.886.073c5.752-.517,18.881,1.856,22.326,2.834,4.7.8,4.211,5.851,5.087,9.676,1.388,4.729,2.354,9.637,4.417,14.257.467.064,1.774.292,2.256.376.025-.524-.22-2.077.259-2.394.889-.894,1.094.807,1.292,1.361C140.945,22.514,153.646,39,157.9,57.418a186.931,186.931,0,0,0,12.5,28.688c3.344,6.242-6.262,7.4-10.289,9.892,4.155,16.174,4.655,32.645,5.337,48.947.18,2.507.425,5.917-.463,7.165a1.668,1.668,0,0,1-1.141.342c-.824.89-2.238.831-3.428,1.085a71.467,71.467,0,0,1-11.24,1.211c-10.167,6.295-25.841,2.775-39.35,3.724" transform="translate(-0.845 -6.763)" fill="#d08b5b"/>
    <rect id="_Top" data-name="ðŸ‘• Top" width="92.535" height="60.869" transform="translate(49.437 41.636)" fill="#fff"/>
    <path id="_Ink" data-name="ðŸ– Ink" d="M111.134,158.022c-6.539,0-13.179-.02-19.6-.04l-2.332-.007c-2.466-.056-5.1-.082-8.291-.082-2.237,0-4.513.013-6.714.025h-.013c-2.2.012-4.485.025-6.729.025-4.858,0-8.595-.061-12.117-.2-4.4-.171-8.347-.463-12.066-.891a2.425,2.425,0,0,1-1.4.58,1.31,1.31,0,0,1-1.034-.529,3.148,3.148,0,0,1-.52-1,6.605,6.605,0,0,1-.28-1.265,8.182,8.182,0,0,1,.038-2.437l.152-4.125c.1-2.616.206-5.425.349-8.249l.346-6.7c.584-11.248,1.19-22.273,2.171-33.477a132.365,132.365,0,0,1-13.14-2.492c-4.26-1.031-8.579-2.295-12.837-3.757.248,6.927.225,14,.2,20.836-.02,6.136-.041,12.479.134,18.706.094,3.352.236,6.4.434,9.326.222,3.282.508,6.321.874,9.291a2.046,2.046,0,0,1,.417,1.014,1.641,1.641,0,0,1-.176.911,2.606,2.606,0,0,1-2.287,1.3,2.3,2.3,0,0,1-1.364-.43c-1.579-1.2-1.592-3.214-1.6-5.158a14.573,14.573,0,0,0-.149-2.469l-.058-1.615c-.031-.862-.063-1.716-.1-2.663-.3-8.177-.619-16.632-.467-24.951.081-4.483.288-8.552.631-12.441.386-4.371.933-8.4,1.673-12.315l-1.4-.542c-3.216-1.256-5.934-2.427-8.079-3.479C2.308,87,.369,85.623.047,84.618a.8.8,0,0,1,.081-.712c1.423-3.731,3.04-7.483,4.806-11.153,1.848-3.841,3.869-7.611,6.007-11.2,2.251-3.784,4.654-7.411,7.144-10.782A108.7,108.7,0,0,1,26.3,40.882,74.89,74.89,0,0,1,45.7,25.7a55.542,55.542,0,0,1,5.42-2.494,50.478,50.478,0,0,1,5.632-1.855A47.275,47.275,0,0,1,62.588,20.2a46.047,46.047,0,0,1,6.033-.4c.769,0,1.55.02,2.321.058a5.169,5.169,0,0,1,1.322,1.652,10.265,10.265,0,0,0,.609.934l1.007-.366c.942-.345,1.948-.727,2.918-1.183a13.428,13.428,0,0,0,2.626-1.571,6.611,6.611,0,0,0,2.706-5.284c.78-4.321,1.339-8.35,1.711-12.316a2.035,2.035,0,0,1,.831-1.3A2.461,2.461,0,0,1,86.087,0a2.71,2.71,0,0,1,1.968.8,2.015,2.015,0,0,1,.53,1.56c-.408,1.841-.7,3.775-.981,5.647C87.3,10.064,87,12,86.568,13.85A23.959,23.959,0,0,1,85.8,16.5a14.3,14.3,0,0,1-1.082,2.361,9.974,9.974,0,0,1-1.5,1.985A8.644,8.644,0,0,1,81.2,22.371a10.173,10.173,0,0,1-2.643.976,15.419,15.419,0,0,1-3.373.344c-.5,0-1.017-.019-1.549-.056a29.75,29.75,0,0,0,5.074,6.5,36.225,36.225,0,0,0,6.8,5.223,35.285,35.285,0,0,0,7.8,3.477,27.85,27.85,0,0,0,8.075,1.263,21.127,21.127,0,0,0,5.344-.662,17.751,17.751,0,0,0,4.891-2.088,19.4,19.4,0,0,0,7.474-9.069,2.973,2.973,0,0,1-1.352-.527,4.739,4.739,0,0,1-1.112-1.132,12.324,12.324,0,0,1-1.614-3.516,50.783,50.783,0,0,1-1.543-8.082v-.006c-.065-.5-.121-.927-.175-1.3l-.022-.325a12.663,12.663,0,0,1,.057-2.7,5.807,5.807,0,0,1,.989-2.5,4.17,4.17,0,0,1,1.255,1.669,13.753,13.753,0,0,1,.7,2.08l.278,1.111a76.235,76.235,0,0,0,3.379,10.924l.052.008a2.4,2.4,0,0,1,.658-1.764,2.006,2.006,0,0,1,1.417-.635,1.564,1.564,0,0,1,.993.349,2.21,2.21,0,0,1,.7,1.125,32.924,32.924,0,0,1,4.475-.315,28.053,28.053,0,0,1,6.379.718,26.133,26.133,0,0,1,5.66,2.036,27.917,27.917,0,0,1,4.964,3.174,32.933,32.933,0,0,1,4.292,4.133,45.214,45.214,0,0,1,6.663,10.426,65.944,65.944,0,0,1,4.259,12.113c1.574,4.725,3.461,9.6,5.609,14.483,1.985,4.514,4.27,9.213,6.791,13.966a7.534,7.534,0,0,1,.829,2.526,4.384,4.384,0,0,1-.227,2.048,4.965,4.965,0,0,1-1.146,1.741,9.266,9.266,0,0,1-1.819,1.4,33,33,0,0,1-4.6,2.151c-1.077.439-2.093.854-2.974,1.3.87,3.486,1.593,7.071,2.213,10.961.552,3.47,1.008,7.1,1.391,11.094.729,7.589,1.082,15.423,1.394,22.335a30,30,0,0,0,.129,3.79c.223,3.1.475,6.616-.833,8.17a2.693,2.693,0,0,1-1.62.67,1.637,1.637,0,0,1-.779-.2,2.168,2.168,0,0,1-.634-.531,4.369,4.369,0,0,1-.835-1.85,5.609,5.609,0,0,1-.061-2.119c.116-4.9.062-10.244-.164-16.351-.2-5.448-.519-10.979-.825-16.329v0c-.356-6.218-.725-12.648-.914-18.979-3.436,1.452-7.064,2.855-10.78,4.168.108,9.463.823,19.076,1.514,28.372.489,6.575.994,13.375,1.278,20.044a2.648,2.648,0,0,1,.939,1.369,1.9,1.9,0,0,1-.311,1.64,13.223,13.223,0,0,1-1.69,1.931,13.7,13.7,0,0,1-1.952,1.521,15.711,15.711,0,0,1-2.164,1.16,19.332,19.332,0,0,1-2.328.847,27.973,27.973,0,0,1-4.947.946c-1.488.161-3.079.247-5.008.271C128.56,157.979,120.684,158.022,111.134,158.022ZM137.455,74.11c-2.807,0-7.824.943-14.911,2.8-5.659,1.486-10.954,3.114-13.215,3.809l-.012,0c-.415.128-.715.22-.875.267l-.9.328c-1.151.419-2.326.842-3.463,1.252-6.819,2.458-13.869,5-20.522,8.141a89.288,89.288,0,0,0-9.643,5.24c-1.574.994-3.087,2.035-4.5,3.095-1.482,1.113-2.9,2.284-4.216,3.48a.3.3,0,0,0-.064.335.322.322,0,0,0,.294.192.347.347,0,0,0,.15-.035l.041-.024c.138-.077.408-.193.694-.315a3.166,3.166,0,0,0,.867-.436c0-.013-.025-.019-.069-.019a2.847,2.847,0,0,0-.436.061A140.739,140.739,0,0,1,93.786,89.342c4.37-1.595,9.064-3.138,14.349-4.718,4.168-1.246,8.633-2.5,14.479-4.059,2.8-.676,5.633-1.3,8.434-1.866.849-.206,1.747-.353,2.615-.5a30.53,30.53,0,0,0,3.1-.617,9.632,9.632,0,0,0,2.847-1.237c.448-.627.581-1.129.394-1.492a1.3,1.3,0,0,0-.863-.57,6.47,6.47,0,0,0-1.68-.177ZM64.495,88.117c-1.3,0-2.078.212-2.448.668a1.352,1.352,0,0,0-.2,1.176,3.44,3.44,0,0,0,.945,1.1,4.333,4.333,0,0,0,1.25.643,10.136,10.136,0,0,0,2.873.41c.274.019.555.028.835.028a12.812,12.812,0,0,0,2.3-.209,11.336,11.336,0,0,0,2.189-.625,6.676,6.676,0,0,0,3.241-2.491,4.394,4.394,0,0,0,.68-2.3,6.522,6.522,0,0,0-.719-2.9,3.953,3.953,0,0,0,2.609,1.014,6.308,6.308,0,0,0,3.956-1.787A11.47,11.47,0,0,0,83.6,81.1a10.841,10.841,0,0,0,1.127-1.871A4.126,4.126,0,0,0,86.4,81.012a4.493,4.493,0,0,0,2.21.533,7.394,7.394,0,0,0,2.679-.551,9.054,9.054,0,0,0,2.371-1.386,5.288,5.288,0,0,0,3.332,1.2,6.079,6.079,0,0,0,2.235-.447,8.372,8.372,0,0,0,2.056-1.194,10.249,10.249,0,0,0,1.727-1.718,9.8,9.8,0,0,0,1.246-2.02c.032.721.07,1.561.11,2.4a1.507,1.507,0,0,0,.554,1.1,1.764,1.764,0,0,0,1.107.4,1.3,1.3,0,0,0,1.327-1.094c.294-1.378.64-2.714,1.027-3.972a38.243,38.243,0,0,1,1.41-3.852,14.064,14.064,0,0,1,1.4-2.912c.407-.588.789-.886,1.134-.886.456,0,.843.528,1.119,1.527a16.089,16.089,0,0,1,.44,3.819,5.5,5.5,0,0,0,1.022,2.586,3.184,3.184,0,0,0,2.4,1.227l.059,0a1.549,1.549,0,0,0,.893-.335,1.283,1.283,0,0,0,.519-.788l.124-.827a23.118,23.118,0,0,1,1.218-5.146,5.2,5.2,0,0,0,.55,1.836,4.214,4.214,0,0,0,1.053,1.3,4.376,4.376,0,0,0,1.4.768,5.049,5.049,0,0,0,1.6.253,5.576,5.576,0,0,0,1.5-.209,5.634,5.634,0,0,0,1.422-.619,5.376,5.376,0,0,0,2.125-2.43,5.555,5.555,0,0,0,2.888.829c3.115,0,5.951-2.684,7.381-5.343l.057-.107a1.236,1.236,0,0,0-.039-1.249,1.365,1.365,0,0,0-1.125-.7,1.071,1.071,0,0,0-.826.411l-.335.349a17.987,17.987,0,0,1-2.335,2.108,6.918,6.918,0,0,1-1.345.775,3.618,3.618,0,0,1-1.388.306,2.665,2.665,0,0,1-1.04-.209,3.289,3.289,0,0,1-1.008-.687,22.526,22.526,0,0,0-.017-3.157,1.91,1.91,0,0,0-1.776-1.681,1.264,1.264,0,0,0-.969.455,3.357,3.357,0,0,0-2.227-.829,4.63,4.63,0,0,0-2.254.646A8.033,8.033,0,0,0,120.9,62.7a9.669,9.669,0,0,0-1.984,1.937,12.112,12.112,0,0,0-1.441,2.412,13.624,13.624,0,0,0-.884,2.645,12.028,12.028,0,0,0-.244-2.139,7.187,7.187,0,0,0-.689-1.942,3.878,3.878,0,0,0-3.222-2.141H112.4c-2.878,0-4.155,2.915-5.18,5.257v0c-.111.253-.216.493-.321.725-.076-1.3-.133-2.33-.18-3.25a1.463,1.463,0,0,0-.466-1.05,1.416,1.416,0,0,0-.946-.348,1.464,1.464,0,0,0-1.479,1.343l-.006.055a26.424,26.424,0,0,1-1.785,7.1,10.191,10.191,0,0,1-1.977,3.143,3.951,3.951,0,0,1-2.844,1.309,4.235,4.235,0,0,1-1.345-.232,14.86,14.86,0,0,0,1.43-1.915,21.493,21.493,0,0,0,1.422-2.6,15.358,15.358,0,0,0,1.009-2.857,7.323,7.323,0,0,0,.19-2.686,3.313,3.313,0,0,0-1.569-2.487,5.2,5.2,0,0,0-1.267-.162c-1.881,0-3.57,1.134-4.755,3.194a11.321,11.321,0,0,0-1.417,4.832,9.865,9.865,0,0,0,.133,2.447A6.635,6.635,0,0,0,91.8,77.4l-.133.094a6.032,6.032,0,0,1-2.974,1.194,1.761,1.761,0,0,1-1.742-1.324l-.093-.21a6.9,6.9,0,0,1-.5-1.488,2.656,2.656,0,0,1,.124-1.528,62.26,62.26,0,0,0,1-6.436,31.494,31.494,0,0,0,.2-4.186,5.106,5.106,0,0,0-.613-2.739.806.806,0,0,0-.651-.343,2.251,2.251,0,0,0-1.361.737,14.192,14.192,0,0,0-1.344,3.567,25.62,25.62,0,0,0-.585,3.778,12.905,12.905,0,0,0-.019,3.728,18.08,18.08,0,0,1,.113,2.6,5.755,5.755,0,0,1-.65,2.472,8.777,8.777,0,0,1-.824,1.63A9.7,9.7,0,0,1,80.6,80.423a6.214,6.214,0,0,1-1.3,1.062,2.544,2.544,0,0,1-1.269.409c-.8,0-1.777-.6-1.918-3.472a7.011,7.011,0,0,0,2.344-.452,4.565,4.565,0,0,0,1.582-1.024,4,4,0,0,0,1.153-2.909,4.071,4.071,0,0,0-.224-1.271,3.524,3.524,0,0,0-.6-1.08,2.839,2.839,0,0,0-.925-.75,2.675,2.675,0,0,0-1.21-.281,3.983,3.983,0,0,0-1.974.592,7.372,7.372,0,0,0-1.756,2.25,9.214,9.214,0,0,0-.887,2.756,10.693,10.693,0,0,0-.059,2.935,10.148,10.148,0,0,0,.725,2.787,7.749,7.749,0,0,0-2.335-1.69,23.534,23.534,0,0,0-2.7-1.061,15.457,15.457,0,0,1-3.95-1.8,4.849,4.849,0,0,1-1.424-4.448,6.9,6.9,0,0,1,1.337-2.706,14.341,14.341,0,0,1,2.405-2.4,23.455,23.455,0,0,1,2.87-1.96,24.818,24.818,0,0,1,2.731-1.382,7.784,7.784,0,0,1,1.312-.624c.941-.4,2.008-.857,1.989-1.044,0-.032-.04-.056-.109-.069a22.871,22.871,0,0,0-5.293.643A17.592,17.592,0,0,0,66.2,65.461a10.134,10.134,0,0,0-2.436,1.674,10.771,10.771,0,0,0-1.842,2.24,10.58,10.58,0,0,0-1.16,2.588,9.334,9.334,0,0,0-.388,2.72,7.967,7.967,0,0,0,.282,2.042,7.184,7.184,0,0,0,.829,1.894,7.867,7.867,0,0,0,3.463,2.951,24.162,24.162,0,0,0,2.348.935,22.409,22.409,0,0,1,2.513,1.017,5.734,5.734,0,0,1,1.944,1.489,1.713,1.713,0,0,1,.4,1.427A1.953,1.953,0,0,1,71,87.673a6.284,6.284,0,0,1-2.59.525,3.669,3.669,0,0,1-.755.06c-.41,0-.893-.031-1.4-.065l-.1-.006c-.574-.037-1.134-.071-1.662-.071ZM76.1,77.656h0l0-.134a9.756,9.756,0,0,1,.43-2.463,5.232,5.232,0,0,1,.53-1.178,2.389,2.389,0,0,1,.789-.811.807.807,0,0,1,.4-.124.693.693,0,0,1,.571.355,2.742,2.742,0,0,1,.282,2.051,3.136,3.136,0,0,1-1.2,1.428,7.725,7.725,0,0,1-1.805.876Zm17.987-2.464h0a6.719,6.719,0,0,1,.126-4.391,6.265,6.265,0,0,1,1.116-1.92,5.023,5.023,0,0,1,1.742-1.323,1.333,1.333,0,0,1-.008.342v0c-.006.056-.012.109-.013.157a11.879,11.879,0,0,1-.951,3.78,14.746,14.746,0,0,1-2.011,3.351Zm30.693-5.452a1.437,1.437,0,0,1-.876-.306,2.033,2.033,0,0,1-.618-.825,3.183,3.183,0,0,1-.119-1.963,4.455,4.455,0,0,1,.46-1.156,5.931,5.931,0,0,1,.893-1.186,3.787,3.787,0,0,1,.965-.121,5.084,5.084,0,0,1,1.322.187,5.171,5.171,0,0,0,.51,2.531,5.7,5.7,0,0,1-1.2,2.186A1.9,1.9,0,0,1,124.781,69.739Z" transform="translate(-2.324 -4.861)"/>
  </g>
  <g id="HEAD" transform="translate(78.592 38.043)">
    <path id="_Skin-2" data-name="âœ‹ Skin" d="M53.294,0c9.439,0,20.764,4.587,21.727,4.679h.026q.76,0,5.938,4.536l-3.739,7.311.3.29c1.448,1.392,2.684,2.66,3.66,3.66,7.967,8.165,9.4,40.225,7.522,51.405S83.375,94,67.184,94s-34.2-9.76-36.978-12.8a7.87,7.87,0,0,0-6.234-2.912l-.282-.359-.339-.048a20.96,20.96,0,0,1-6.86-1.871c-2.7-1.531-5.666-9.579-5.666-11.352,0-1.755-4.43-14.523-4.519-15.874v-.037c0-1.13-5.787-6.322-5.787-7.971s-1.167-1.549,0-7.36l.339-1.707C2.1,25.526,4.528,15.282,13.792,10.83,23.973,5.939,43.76,0,53.294,0Z" transform="translate(-1.685 12.408)" fill="#d08b5b"/>
    <path id="_Hat" data-name="ðŸ§¢ Hat" d="M23.973,78.292l-.282-.359-.339-.048a20.962,20.962,0,0,1-6.86-1.871c-2.7-1.531-5.666-9.579-5.666-11.352,0-1.755-4.43-14.523-4.518-15.874v-.037c0-1.13-5.787-6.322-5.787-7.971s-1.167-1.549,0-7.36l.339-1.707C2.1,25.526,4.528,15.282,13.792,10.83,23.973,5.939,43.76,0,53.295,0c9.439,0,20.764,4.587,21.727,4.679h.026q.76,0,5.938,4.535l-.877,1.715c-11.4.334-30.151,1.354-38.335,4.467C29.6,20.028,26.494,50.579,26.494,50.579a52.141,52.141,0,0,0-8.5,5.314c-4.252,3.3-2.152,3.4-2.152,3.4s-.183,7.062,1.127,9.863,9.071,3.3,9.071,3.3l1.314,4.412-.182,2.045A7.044,7.044,0,0,0,23.973,78.292Z" transform="translate(-1.687 12.47)" fill="#9ddadb"/>
    <path id="_Ink-2" data-name="ðŸ– Ink" d="M66.361,98.5a22.6,22.6,0,0,1-7.727-1.364,23.032,23.032,0,0,1-7.174-4.22,8.184,8.184,0,0,0-.774-.707c-.638-.542-1.43-1.216-1.372-1.535a.2.2,0,0,1,.15-.149c.209.222.436.451.694.7a.135.135,0,0,1-.008-.078l-.222-.2c-.451-.419-.659-.686-.616-.8.015-.039.061-.058.138-.058a.789.789,0,0,1,.135.014c.016.019.032.035.05.053l.037.038a3.023,3.023,0,0,1,.306.207l.04.032L50,90.422c-.248-.265-.386-.487-.352-.565.009-.022.032-.033.067-.033a.679.679,0,0,1,.249.078l.07.034c.227.239.462.475.721.721a.14.14,0,0,1,.015-.085l-.228-.221c-.2-.2-.193-.218-.106-.355v0l.025-.039c-.114-.16-.159-.273-.13-.328a.082.082,0,0,1,.08-.037.711.711,0,0,1,.522.355.422.422,0,0,1,.1-.011c.306,0,.59.331.84.623a1.5,1.5,0,0,0,.457.424,23.591,23.591,0,0,0,6.495,3.581,20.332,20.332,0,0,0,6.816,1.194,19.533,19.533,0,0,0,7.775-1.615A22.138,22.138,0,0,0,80.406,89.3a27.9,27.9,0,0,0,4.045-5.271,35.831,35.831,0,0,0,3.128-6.834A55.149,55.149,0,0,0,90.2,58.831l-.006-.655c-.03-2.986-.119-5.624-.272-8.066-.181-2.9-.451-5.521-.824-8.026a66.4,66.4,0,0,0-1.633-7.836,50.57,50.57,0,0,0-2.7-7.495,28,28,0,0,0-1.44-2.722c-.37-.669-.765-1.317-1.174-1.927a17.434,17.434,0,0,1-3.477-.645c-.426-.108-.808-.218-1.168-.338-3.245.177-6.507.367-9.662.551h0c-2.356.137-4.793.279-7.225.416l-1.775.111a45.686,45.686,0,0,0-7.187.893,16.46,16.46,0,0,0-6.49,2.9,7.752,7.752,0,0,0-1.345,1.223,10.048,10.048,0,0,0-1.038,1.435,26.178,26.178,0,0,0-1.56,3.217,29.971,29.971,0,0,1-1.314,2.788,9.413,9.413,0,0,1-1.835,2.4,13.955,13.955,0,0,0-2.491,2.1A9.021,9.021,0,0,0,34.118,41.3a18.935,18.935,0,0,0-1.36,5.019h0c-.082.454-.166.923-.26,1.413a20.2,20.2,0,0,0,.349,2.857,13.712,13.712,0,0,1,.287,4.33,3.6,3.6,0,0,1-.756,1.739,3.382,3.382,0,0,1-.763.673,4.692,4.692,0,0,1-1.081.507c.271.388.291.541.259.6a.084.084,0,0,1-.082.041.774.774,0,0,1-.557-.461h0l-.02,0c.238.444.251.6.22.652a.054.054,0,0,1-.05.026c-.147,0-.521-.374-.573-.616a.382.382,0,0,1-.158-.106c.224.363.238.5.211.546a.062.062,0,0,1-.059.03.84.84,0,0,1-.458-.318c-.04-.055-.056-.1-.046-.13a4.183,4.183,0,0,0-1.857-1.557,5.786,5.786,0,0,0-2.324-.465,6.4,6.4,0,0,0-1.709.23.089.089,0,0,1-.089.063.122.122,0,0,1-.071-.023,5.937,5.937,0,0,0-4.148,3.477,9.858,9.858,0,0,0-.822,2.838,12.574,12.574,0,0,0-.044,3.086,10.786,10.786,0,0,0,1.913,5.256,5.266,5.266,0,0,0,4.28,2.312,5.744,5.744,0,0,0,1.1-.11A.783.783,0,0,1,25.6,73.2a.238.238,0,0,1,.213.093.1.1,0,0,0,.048.039c-.048-.127-.054-.219-.017-.273a.132.132,0,0,1,.115-.051.347.347,0,0,1,.222.089.062.062,0,0,1,.021.043l.033,0,.016,0h0l.011,0h0c-.032-.178-.029-.292.009-.338a.062.062,0,0,1,.05-.023c.188,0,.649.65.711.839.008.024.008.039,0,.044a.267.267,0,0,1,.1-.034l-.036-.1c-.065-.173-.1-.254-.126-.3a.263.263,0,0,1-.031-.172c0-.017,0-.036,0-.059a1.573,1.573,0,0,0-.1-.212c-.029-.051-.029-.051-.014-.148v-.01l0-.025a.29.29,0,0,1,.174-.071c.2,0,.323.32.419.576.054.143.1.267.148.292a.442.442,0,0,1-.094-.44.149.149,0,0,1,.134-.086.25.25,0,0,1,.152.063,40.833,40.833,0,0,0,3.217,5.638,29.773,29.773,0,0,0,4.151,4.873c.281.222.652.511,1.039.782a14.255,14.255,0,0,0,2.462,1.584,14.1,14.1,0,0,1,2.121,1.332.125.125,0,0,1-.021.059l.028.025.029.027.43.207a2.312,2.312,0,0,1,.341.361,2.377,2.377,0,0,1,.283.408.2.2,0,0,1-.017.169.1.1,0,0,1-.084.036.29.29,0,0,1-.116-.03c-.049-.017-.1-.035-.146-.054h0l-.075-.028,0,.005a.047.047,0,0,0,.007.009c.022.033.119.263.079.338a.045.045,0,0,1-.043.024.12.12,0,0,1-.037-.007l-.022-.009c-.077-.028-.154-.059-.229-.089l-.079-.032c.094.117.182.244.26.356l0,0,.064.091a.72.72,0,0,1,.192.378c0,.07-.038.105-.1.105l-.027,0c-.118-.039-.237-.08-.363-.127l.034.066c.066.13.137.3.1.354a.044.044,0,0,1-.041.02.186.186,0,0,1-.07-.019c-.167-.052-.343-.116-.538-.195a.048.048,0,0,1-.046.029.143.143,0,0,1-.058-.016,10.85,10.85,0,0,1-1.627-.736c-.276-.2-.558-.4-.83-.6l-.548-.394a10.658,10.658,0,0,1-1.248-.875A27.208,27.208,0,0,1,29.4,80.65a5.278,5.278,0,0,1-3.569,1.155,14.932,14.932,0,0,1-4.944-1.023,33.334,33.334,0,0,1-4.605-2.117,8.832,8.832,0,0,1-2.172-1.689,9.393,9.393,0,0,1-1.5-2.164,12.3,12.3,0,0,1-.93-2.515,17.569,17.569,0,0,1-.46-2.741,10.627,10.627,0,0,0-.666-2.464c-.3-.763-.665-1.491-1.051-2.261a25.233,25.233,0,0,1-2-4.931,28.325,28.325,0,0,1-.827-8.2.066.066,0,0,1-.021,0,2.149,2.149,0,0,1-.432-.18,2.155,2.155,0,0,1-.4-.245l-.154-.213a1.306,1.306,0,0,1-.206-.138l-.028.037c-.02.025-.034.037-.042.037l0,0c-.008-.011,0-.056.014-.09,0-.014.007-.026.008-.032l-.267-.365c-.357-.489-.733-1.01-1.1-1.514h0c-.283-.392-.55-.762-.8-1.1l-.018.032c-.012.023-.019.04-.014.048a22.694,22.694,0,0,1-1.857-3.155,12.489,12.489,0,0,1-1.11-3.4,9.757,9.757,0,0,1-.237-2.634,14.233,14.233,0,0,1,.347-2.538A71.332,71.332,0,0,1,5.1,24.173a53.58,53.58,0,0,1,3.908-6.668A26.354,26.354,0,0,1,13.7,12.229,12.017,12.017,0,0,1,16.285,10.3a38.058,38.058,0,0,1,4.086-2.046A93.465,93.465,0,0,1,31.713,4.277,125.987,125.987,0,0,1,45.066,1.222c2.3-.391,4.519-.693,6.6-.9C53.857.109,55.911,0,57.773,0a36.935,36.935,0,0,1,4.41.242L62.62.3a25.841,25.841,0,0,1,3.442.676A29.19,29.19,0,0,1,76.523,5.3c.509.358,1.229.755,2.063,1.215a23.09,23.09,0,0,1,4.961,3.33,6.7,6.7,0,0,1,.874,1.046,4.168,4.168,0,0,1,.54,1.139,3.241,3.241,0,0,1,.112,1.236,3.849,3.849,0,0,1-.41,1.336,7.938,7.938,0,0,1,.85,2.67,5.742,5.742,0,0,1-.243,2.652,6.268,6.268,0,0,1-.468,1.617,47.066,47.066,0,0,1,4.522,8.818,101.614,101.614,0,0,1,2.493,11.336,86.932,86.932,0,0,1,1.074,11.449,100.423,100.423,0,0,1-.078,11.181c-.132,1.967-.336,3.876-.606,5.671a54.791,54.791,0,0,1-1.12,5.558,43.167,43.167,0,0,1-1.738,5.319,34.94,34.94,0,0,1-2.457,4.954,29.954,29.954,0,0,1-3.28,4.464,28.221,28.221,0,0,1-4.2,3.849,20.281,20.281,0,0,1-6.1,3.248A21.951,21.951,0,0,1,66.361,98.5ZM50.2,90.619h0l.074.093a.629.629,0,0,0,.144.136.117.117,0,0,1,0-.047c-.043-.033-.087-.069-.131-.107ZM9.536,36.593a58.436,58.436,0,0,1-.086,7.846c-.087,1.507-.176,3.065-.181,4.611a31.3,31.3,0,0,0,.314,4.736,25.593,25.593,0,0,0,1.3,5.089,31.967,31.967,0,0,0,2.773,5.669,14.121,14.121,0,0,1,1.534,4.963,17.947,17.947,0,0,0,.424,2.078,5.891,5.891,0,0,0,.885,1.871c.941,1.3,2.573,2.3,5.135,3.158l.229.088a17.823,17.823,0,0,0,2.086.664,8.889,8.889,0,0,0,2.107.279,5.771,5.771,0,0,0,1.214-.124l-.155-.252c-.1-.17-.152-.272-.127-.355a.253.253,0,0,1,.151-.141.29.29,0,0,0-.014-.025l-.009-.015c-.193-.365-.373-.723-.536-1.065-.056.019-.111.033-.17.048l-.041.011a.159.159,0,0,1,.022.138.133.133,0,0,1-.1.065,3.675,3.675,0,0,1-1.2.2c-.077,0-.155,0-.232-.007l-.1-.008a4.8,4.8,0,0,1-1.21-.228l-.013,0c-.1-.016-.2-.032-.295-.053a7.142,7.142,0,0,1-2.745-1.348,9.359,9.359,0,0,1-2.714-2.354,11.449,11.449,0,0,1-1.75-3.176,14.123,14.123,0,0,1-.594-7.332,11.153,11.153,0,0,1,2.481-5.346,8.5,8.5,0,0,1,2.26-1.831,8.659,8.659,0,0,1,2.942-.984,50.578,50.578,0,0,1,.938-8.167,74.387,74.387,0,0,1,2.435-9.354A67.522,67.522,0,0,1,30.3,26.669a42.643,42.643,0,0,1,5.05-7.915c2.744-3.379,7.612-6.215,14.077-8.2a62.029,62.029,0,0,1,9.353-2.062,66.851,66.851,0,0,1,9.469-.69c1.843,0,3.626.084,5.3.25l.564.189a17.087,17.087,0,0,1,3.486.82c.777.241,1.58.49,2.387.658a14,14,0,0,0-2.269-1.373,24.53,24.53,0,0,0-2.45-1.023,26.338,26.338,0,0,0-5.278-2.434A46.928,46.928,0,0,0,64.441,3.4a10.683,10.683,0,0,0-2.324-.309c-1.442-.124-2.934-.187-4.435-.187A68,68,0,0,0,45.246,4.144C41.7,4.8,37.939,5.7,33.065,7.068l-.651.188c-.528.151-1.061.3-1.577.447-4.869,1.372-9.9,2.79-14,5.755A24.207,24.207,0,0,0,14.6,15.41a27.428,27.428,0,0,0-1.981,2.181A35.6,35.6,0,0,0,9.3,22.476c-.892,1.558-1.764,3.3-2.665,5.314C5.8,29.676,5.03,31.575,4.378,33.206a13.533,13.533,0,0,0-1.183,4.062A13.271,13.271,0,0,0,3.3,41.307a13.135,13.135,0,0,0,1.281,3.739,12.679,12.679,0,0,0,2.332,3.161A60.679,60.679,0,0,1,9.015,37.4a2.635,2.635,0,0,0,.123-.418c.054-.241.076-.34.4-.39ZM32.421,68.05c-.134,0-.444-.27-.68-.5a.285.285,0,0,1-.021.212.075.075,0,0,1-.06.025c-.112,0-.326-.163-.653-.5-.109-.112-.212-.224-.3-.313a1.491,1.491,0,0,0-.182-.186,20.775,20.775,0,0,0-3.958-2.427,13.311,13.311,0,0,0-4.385-1.278l-.1-.011c-.352-.045-.547-.126-.613-.255a.318.318,0,0,1,.035-.3.941.941,0,0,1-.353-.147c-.082-.064-.094-.123-.09-.16.01-.086.112-.148.243-.148h.014c-.156-.1-.225-.216-.194-.319a.292.292,0,0,1,.284-.172.317.317,0,0,1,.124.024.245.245,0,0,1-.006-.218.192.192,0,0,1,.168-.061,1.266,1.266,0,0,1,.223.027l.03.006a.956.956,0,0,0,.149.022.055.055,0,0,0,.039-.01c.127-.2.235-.291.331-.291a.181.181,0,0,1,.105.039l.016.012h0a.1.1,0,0,0,.049.026c.012,0,.022-.009.03-.03a.865.865,0,0,1,.37-.131.188.188,0,0,1,.1.029l.014.009a.09.09,0,0,0,.047.02.075.075,0,0,0,.041-.015c.161-.013.326-.02.49-.02a7.712,7.712,0,0,1,2.689.526,12.475,12.475,0,0,1,2.574,1.352,17.3,17.3,0,0,1,2.275,1.84,17.513,17.513,0,0,1,1.794,1.991.114.114,0,0,1-.086.035c-.179,0-.466-.307-.575-.423l0,0L32.39,66.3a.1.1,0,0,1-.036.023l.058.082c.18.258.258.415.232.465a.035.035,0,0,1-.034.017,1.91,1.91,0,0,1-.623-.417,3.257,3.257,0,0,1-.56-.574.135.135,0,0,1-.065.019l-.021,0,.088.083h0a1.958,1.958,0,0,1,.519.629l.107.09c.49.421.745.813.7.936a.055.055,0,0,1-.057.035c-.143,0-.465-.255-.863-.682a.184.184,0,0,1,.019.152l.04.026c.32.224.624.692.581.829A.049.049,0,0,1,32.421,68.05Zm-12.052-33a1.008,1.008,0,0,1-.512-.133L19.1,34.4c-1.235-.829-2.465-1.639-3.94-2.444a1.209,1.209,0,0,1-.763-.969.678.678,0,0,1,.477-.591,2.554,2.554,0,0,1,.868-.128,7.818,7.818,0,0,1,5.187,2.255,2.179,2.179,0,0,1,.6,1.786A1.284,1.284,0,0,1,20.369,35.049Zm6.417-7.917a2.921,2.921,0,0,1-1.738-.6l-.691-.451c-1.443-.947-2.534-1.7-3.334-2.3-1.092-.823-1.614-1.348-1.551-1.559.022-.073.113-.11.271-.11a20.914,20.914,0,0,1,4.963,1.654c.245.105.5.2.777.3a3.99,3.99,0,0,1,2.285,1.448,1.217,1.217,0,0,1,.086,1.176A1.194,1.194,0,0,1,26.786,27.132Zm5.57-8.057a1.977,1.977,0,0,1-1.007-.286,43.3,43.3,0,0,0-3.891-2.183c-.661-.341-1.344-.694-1.992-1.052a.32.32,0,0,1,.036-.287.683.683,0,0,1,.547-.163,15.385,15.385,0,0,1,3.6.892l.327.108.165.063.316.116.006,0a5.036,5.036,0,0,1,2.57,1.552.9.9,0,0,1,.127.888A.881.881,0,0,1,32.356,19.075Zm6.807-6.616a5.425,5.425,0,0,1-3.112-1.428c-.364-.27-.739-.548-1.119-.779-.37-.4-.52-.693-.448-.858.048-.109.194-.164.434-.164a12.815,12.815,0,0,1,4.366,1.536l.024.018a.986.986,0,0,1,.411.9.931.931,0,0,1-.5.773Zm7.5-3.633a2.251,2.251,0,0,1-.933-.244,5.887,5.887,0,0,1-1.263-.843,6.772,6.772,0,0,1-.986-.823c-.182-.2-.258-.352-.225-.454s.169-.152.405-.152a8.876,8.876,0,0,1,3.387,1.112A.932.932,0,0,1,47.4,8.4.725.725,0,0,1,46.663,8.826Z" transform="translate(-3.162 10.779)"/>
  </g>
  <g id="FACE" transform="translate(112.183 77.354)">
    <path id="_Ink-3" data-name="ðŸ– Ink" d="M28.653,39.463l-.155,0c-.718-.025-1.448-.114-2.154-.2-.681-.083-1.384-.169-2.079-.2-.881-.036-1.773-.055-2.653-.055-.571,0-1.148.008-1.717.023-.414.011-.839.042-1.249.072-.522.038-1.062.077-1.59.077a7.732,7.732,0,0,1-1.224-.088.431.431,0,0,1-.373-.34.677.677,0,0,1,.241-.674,9.4,9.4,0,0,1,3.237-1.259l.008,0,.247-.063a27.887,27.887,0,0,1,3.681-.693,36.273,36.273,0,0,1,3.785-.235H26.7c.2,0,.4.014.617.029h.011c.214.014.435.029.651.029a2.867,2.867,0,0,0,.518-.041,2.2,2.2,0,0,0,.451-.157,2.647,2.647,0,0,1,.43-.156,1.952,1.952,0,0,1,.442-.052,1.7,1.7,0,0,1,.744.167,1.672,1.672,0,0,1,.572.451,1.861,1.861,0,0,1,.363,1.556,1.949,1.949,0,0,1-.387.841,2.228,2.228,0,0,1-.683.56A3.779,3.779,0,0,1,28.653,39.463Zm-3.047-13h0a7.373,7.373,0,0,1-2.63-.53,13.282,13.282,0,0,1-3.093-1.756,1.189,1.189,0,0,1-.432-.687,1.423,1.423,0,0,1,.061-.771,1.754,1.754,0,0,1,.521-.753,1.267,1.267,0,0,1,.811-.317,1.151,1.151,0,0,1,.628.193l.21.162h0a16.743,16.743,0,0,0,1.936,1.347,4.768,4.768,0,0,0,2.321.74,2.505,2.505,0,0,0,.981-.193,2.74,2.74,0,0,0,.913-.647A2.8,2.8,0,0,0,28.365,21a4.261,4.261,0,0,0-1.13-2,8.24,8.24,0,0,0-1.711-1.381.531.531,0,0,1-.143-.61.8.8,0,0,1,.264-.38.809.809,0,0,1,.5-.167,1.075,1.075,0,0,1,.182.016,5.736,5.736,0,0,1,2.018.729,4.578,4.578,0,0,1,1.357,1.252,4.974,4.974,0,0,1,.866,3.322,5.475,5.475,0,0,1-.444,1.744,5.087,5.087,0,0,1-1,1.5A4.779,4.779,0,0,1,25.606,26.467ZM10.932,16.422a1.908,1.908,0,0,1-1.066-.3,2.312,2.312,0,0,1-.842-.834,2.431,2.431,0,0,1-.391-1.254c-.337.088-.682.187-1.015.284-.634.183-1.288.373-1.931.492a1.519,1.519,0,0,1,.106.115.045.045,0,0,1,0,.047.036.036,0,0,1-.031.023.034.034,0,0,1-.021-.008l-.493-.109c-.167.022-.316.037-.455.046l0-.013a.344.344,0,0,1-.308-.207.3.3,0,0,1,.074-.336,10.1,10.1,0,0,1,3.458-2.038l1.19-.488a23.12,23.12,0,0,1,4.741-1.464,2.057,2.057,0,0,1,.336-.029,1.428,1.428,0,0,1,1.062.429,1.492,1.492,0,0,1,.4.959,1.459,1.459,0,0,1-.316,1,1.566,1.566,0,0,1-1.092.543c-.453.046-.917.086-1.326.122a2.231,2.231,0,0,1,.087.426c.019.116.034.244.048.406a1.807,1.807,0,0,1-.284,1.09,2.341,2.341,0,0,1-.8.8A2.293,2.293,0,0,1,10.932,16.422Zm22.2-.295a1.671,1.671,0,0,1-.842-.226,1.945,1.945,0,0,1-.941-1.364,3.25,3.25,0,0,1,0-1.291.933.933,0,0,1,.177-.415c-.144-.036-.274-.067-.4-.095a13.239,13.239,0,0,0-2.071-.25c-.47-.031-.957-.064-1.438-.133a.13.13,0,0,1-.1-.118.143.143,0,0,1,.07-.154A11.275,11.275,0,0,1,31,11.331l.122-.014a16.438,16.438,0,0,1,1.875-.1c.8,0,1.613.045,2.306.087a1.494,1.494,0,0,1,1.073.467,1.342,1.342,0,0,1,.306.926,1.482,1.482,0,0,1-1.348,1.513,1.433,1.433,0,0,1-.554-.119,1.344,1.344,0,0,1,.01.369,1.742,1.742,0,0,1-.825,1.439A1.664,1.664,0,0,1,33.127,16.128ZM1.345,9.6A4.848,4.848,0,0,1,.72,9.545a4.954,4.954,0,0,0-.643-.053A.075.075,0,0,1,0,9.435a.081.081,0,0,1,.034-.091,6.6,6.6,0,0,0,.623-.463A5.325,5.325,0,0,1,1.5,8.294c.538-.287,1.114-.589,1.761-.923,1.231-.635,2.429-1.352,3.486-1.985,1.28-.766,2.44-1.521,3.546-2.306.349-.248.7-.529,1.032-.8A9.322,9.322,0,0,1,13.741.7a1.429,1.429,0,0,1,.512-.091,2.119,2.119,0,0,1,1.72,1,1.877,1.877,0,0,1,.237,1.245,2.322,2.322,0,0,1-.546,1.151A9.209,9.209,0,0,1,12.512,5.96c-.232.105-.451.2-.661.3l-.1.048c-1.317.636-2.633,1.2-3.913,1.673a34.778,34.778,0,0,1-4.018,1.19,19.3,19.3,0,0,1-2.172.4A2.471,2.471,0,0,1,1.345,9.6Zm37.614-.309a22.517,22.517,0,0,1-4.424-.4,16.643,16.643,0,0,1-4.214-1.42,11.926,11.926,0,0,1-1.97-1.185,5.834,5.834,0,0,1-1.541-1.688,4.279,4.279,0,0,1-.541-1.646,3.184,3.184,0,0,1,.219-1.664,2.1,2.1,0,0,1,.6-.787A2.462,2.462,0,0,1,28.557,0a2,2,0,0,1,1.151.347,1.825,1.825,0,0,1,.709,1,4.655,4.655,0,0,1,.15.761,1.493,1.493,0,0,0,.6,1.137,23.642,23.642,0,0,0,1.924,1.555l.974.724A28.829,28.829,0,0,0,39.633,8.95a.144.144,0,0,1,.086.17.2.2,0,0,1-.176.163C39.347,9.286,39.151,9.288,38.959,9.288Z" transform="translate(10.563 12.892)"/>
  </g>
</svg>
