<svg id="peep-33" xmlns="http://www.w3.org/2000/svg" width="240" height="324" viewBox="0 0 240 324">
  <g id="BODY" transform="translate(31.056 135.053)">
    <path id="_Skin" data-name="âœ‹ Skin" d="M1.9,158.233,0,119.85,2.113,82.4,153.48,94.424l.159,1.029c1.262,8.224,2.226,15.223,2.863,20.8a127.847,127.847,0,0,1,.98,12.832v.181a43.543,43.543,0,0,0,.336,5.033c.223,1.884.563,4.013,1.009,6.328.893,4.628,2.251,10.193,4.037,16.539l.222.785ZM84.016,72.952c-13.155,0-28.539-.135-45.725-.4.234-7.49.66-14.184,1.265-19.9.3-2.856.657-5.528,1.052-7.94s.843-4.634,1.332-6.6a46.1,46.1,0,0,1,1.611-5.264,22.864,22.864,0,0,1,1.891-3.925,10.689,10.689,0,0,1,2.17-2.587,5.834,5.834,0,0,1,2.45-1.249l.616-.136c2.6-.568,4.943-1,7.009-1.373,5.923-1.081,9.835-1.8,12.355-4.4a11.3,11.3,0,0,0,1.681-2.267,17.788,17.788,0,0,0,1.225-2.653,51.392,51.392,0,0,0,1.66-5.833h0c.321-1.323.624-2.572.984-3.758a3.557,3.557,0,0,1,1.6-1.758A14.182,14.182,0,0,1,80.511,1.42,28.585,28.585,0,0,1,85.01.387,34.441,34.441,0,0,1,90.141,0c.532,0,1.065.013,1.585.039a27.883,27.883,0,0,1,4.535.615,28.347,28.347,0,0,1,4.012,1.182,15.766,15.766,0,0,1,2.948,1.441,3.06,3.06,0,0,1,1.342,1.392c.221.777.465,2.059.774,3.682a88.27,88.27,0,0,0,2.586,10.884,23.631,23.631,0,0,0,2.146,4.872,9.7,9.7,0,0,0,1.353,1.763,5.167,5.167,0,0,0,1.566,1.111c2.1.92,5.061,1.183,8.194,1.46a43.86,43.86,0,0,1,7.62,1.114,11.567,11.567,0,0,1,3.121,1.319,7.192,7.192,0,0,1,1.236.981,6.139,6.139,0,0,1,.962,1.244c.861,1.476,2.231,4.121,3.759,7.257,1.651,3.39,3.395,7.167,4.911,10.633,1.792,4.1,3.227,7.658,4.265,10.578,1.208,3.4,1.821,5.786,1.821,7.091,0,.356-.341.694-1.014,1.006a14.335,14.335,0,0,1-3.041.872,103.079,103.079,0,0,1-12.163,1.341c-5.38.356-12.2.627-20.27.8S94.775,72.952,84.016,72.952Z" transform="translate(8.028 -8.243)" fill="#d08b5b"/>
    <path id="_Ink" data-name="ðŸ– Ink" d="M34.518,155.625a1.068,1.068,0,0,1-.9-.509,9.1,9.1,0,0,1-1.229-3.054,27.122,27.122,0,0,1-.5-3.349l-.077-.779c-.27-2.7-.471-5.079-.615-7.277-.286-4.38-.475-8.725-.562-12.912-.091-4.373-.073-8.721.053-12.925.14-4.694.59-9.272,1.012-13.131.167-1.515.322-2.851.475-4.083l0-.483c0-.125,0-.287-.005-.44l-.042-1.311c-.033-1.043-.067-2.155-.081-3.28l-.006-.656-.006-1.222a15.159,15.159,0,0,1-2.02-.384c-.368-.087-.715-.169-1.037-.229-1.406-.263-2.875-.558-4.367-.877-2.747-.591-5.573-1.305-8.639-2.183l-.608-.175a56.7,56.7,0,0,1-7.8-2.706A14.46,14.46,0,0,1,4.763,82.05c-.024.325-.054.653-.083.97-.033.361-.067.735-.092,1.1-.044.641-.092,1.291-.139,1.92v.011c-.052.7-.106,1.423-.154,2.141l-.087,1.293c-.136,2.053-.27,4.257-.329,6.468-.3,11.069-.24,20.065.2,28.312.266,5.078.629,9.7,1.109,14.127.224,2.079.5,4.528.839,6.928.131.923.307,1.86.476,2.766a41.174,41.174,0,0,1,.652,4.331,1.691,1.691,0,0,1-.426,1.317,2.061,2.061,0,0,1-1.521.614A2.209,2.209,0,0,1,4,154a1.817,1.817,0,0,1-.762-1.055,39.113,39.113,0,0,1-.959-5.676c-.084-.708-.172-1.441-.271-2.151l-.041-.287c-.368-2.509-.7-5.218-1.006-8.281-.481-4.771-.786-9.6-.9-14.342-.12-4.79-.054-9.624.2-14.369.208-3.983.684-8.335,1.5-13.7l.08-.524c.076-.49.151-.988.224-1.468.23-1.516.468-3.083.738-4.621l.136-.759c.08-.437.157-.892.231-1.332a34.329,34.329,0,0,1,.85-4.039l-.154-.142a5.643,5.643,0,0,1-.826-.913,1.642,1.642,0,0,1-1.006-.5,1.538,1.538,0,0,1-.358-1.187,25.44,25.44,0,0,1,.914-4.79c.443-1.587.985-3.155,1.509-4.671l.025-.071.138-.4a91.893,91.893,0,0,1,3.809-9.35,87.445,87.445,0,0,1,9.2-15.188,85.872,85.872,0,0,1,12.093-13,76.627,76.627,0,0,1,7.454-5.768c1.327-.895,2.674-1.731,4-2.483,1.389-.787,2.8-1.508,4.2-2.143a36.212,36.212,0,0,1,8.814-2.819,31.681,31.681,0,0,1,4.591-.518,3.006,3.006,0,0,1,1.55-.418,4.366,4.366,0,0,1,2.4.8l.066.045h0l.31.061a.072.072,0,0,1,.056.073.076.076,0,0,1-.056.079.04.04,0,0,0-.015,0,5.815,5.815,0,0,1,.562.5,1.578,1.578,0,0,1,.468.947,1.661,1.661,0,0,1-.189.936,14.139,14.139,0,0,1,2.168,2.624c.625.949,1.19,1.976,1.736,2.969l.008.014.152.276a20.44,20.44,0,0,0,2.173,3.186,20.974,20.974,0,0,0,2.732,2.723,29.829,29.829,0,0,0,4.317,2.973,31.751,31.751,0,0,0,9.962,3.61,29.74,29.74,0,0,0,5.28.481,26.033,26.033,0,0,0,7.779-1.155,21.189,21.189,0,0,0,4.839-2.223,22.043,22.043,0,0,0,4.169-3.347,20.783,20.783,0,0,0,3.2-4.243,18.384,18.384,0,0,0,1.932-4.909,1.854,1.854,0,0,1-.625.112,1.626,1.626,0,0,1-.551-.1,3.86,3.86,0,0,1-1.92-1.6,13.444,13.444,0,0,1-1.142-2.333c-.052-.126-.105-.256-.158-.382l-.034-.08a37.437,37.437,0,0,1-1.707-4.954,27.307,27.307,0,0,1-.837-5.286,18.533,18.533,0,0,1,.012-2.1l.032-.578q0-.047,0-.094V6.074a1.578,1.578,0,0,1,.452-1.3.073.073,0,0,1,.045-.018.06.06,0,0,1,.027.007,1.46,1.46,0,0,1,.689,1.007l0,.006c.017.052.035.105.053.158.153.446.325.893.49,1.325v0c.095.246.192.5.286.755.1.271.2.543.309.845v0c.4,1.091.81,2.219,1.266,3.313.478,1.148,1.124,2.659,1.893,4.161.359.705.74,1.381,1.065,1.949.086.151.169.319.256.5h0a5.476,5.476,0,0,0,.567.979,2.537,2.537,0,0,1,.1-.378,1.256,1.256,0,0,0-.127.07.09.09,0,0,1-.048.014.1.1,0,0,1-.088-.055.092.092,0,0,1,0-.095,1.663,1.663,0,0,1,.689-.64c.066-.074.257-.111.567-.111a22.479,22.479,0,0,1,4.022.633c1.927.432,4.12,1.034,6.174,1.7,3.073.991,8.586,3.005,10.976,5.367a63.287,63.287,0,0,1,5.636,6.385,68.9,68.9,0,0,1,4.713,6.981,77.419,77.419,0,0,1,3.862,7.457c1.123,2.484,2.16,5.113,3.083,7.815,1.437,4.2,2.814,8.5,4.146,12.665l0,.014c.521,1.628,1.06,3.312,1.6,4.966,1.036,3.205,2.112,6.453,3.153,9.594l0,.014c.98,2.957,1.993,6.014,2.969,9.027a2.162,2.162,0,0,1,.086.992,2.292,2.292,0,0,1-.333.882,3.018,3.018,0,0,1-1.491,1.186c-2.325.858-4.631,1.65-6.854,2.354a103.729,103.729,0,0,1,2.461,13.072c.437,3.412.734,6.909,1.022,10.29h0c.239,2.8.485,5.7.81,8.534.364,3.182.79,5.948,1.3,8.457.447,2.194,1.015,4.321,1.511,6.112l.13.467c.074.263.149.536.215.777v0c.252.915.512,1.861.832,2.77.111.315.235.636.354.946a16.947,16.947,0,0,1,.7,2.093,3.105,3.105,0,0,1-.1,1.8,2.561,2.561,0,0,1-1.17,1.36,2.195,2.195,0,0,1-1.056.265,2.154,2.154,0,0,1-.974-.227,1.778,1.778,0,0,1-.733-.684,1.63,1.63,0,0,1-.207-.613c-.086-.183-.162-.364-.226-.539-.023-.061-.046-.131-.072-.218l-.066-.22c-.161-.527-.311-1.063-.456-1.581-.242-.853-.482-1.689-.751-2.533l-.136-.42c-.672-2.046-1.269-4.106-1.775-6.121-.411-1.643-.761-3.332-1.07-5.165-.275-1.632-.51-3.341-.719-5.224-.388-3.5-.623-7.068-.851-10.522h0v0c-.037-.564-.076-1.147-.114-1.719l-.026-.392c-.276-4.073-.421-7.213-.47-10.18-.061-3.7.037-7.024.3-10.169l-.077.025-.077.023c-.782.239-1.5.454-2.206.657l-.016.006c-.017.006-.034.013-.052.017-.478.148-.965.287-1.45.414l-.3.076-.209.057-.22.063-.194.057a6.649,6.649,0,0,1-1.841.358l-.1,0a23.556,23.556,0,0,1-3.621.313c.4,6.475.823,12.4,1.306,18.125.534,6.332,1.257,12.692,1.893,18.157.373,3.213.742,6.138,1.128,8.942.231,1.683.438,3.094.7,4.506.056.3.123.621.187.926a9.655,9.655,0,0,1,.295,3.787.059.059,0,0,0-.019,0,1.733,1.733,0,0,1-.843,1.127,1.841,1.841,0,0,1-.929.246,1.971,1.971,0,0,1-.94-.238,1.765,1.765,0,0,1-.7-.682c-.042-.074-.083-.15-.12-.228a4.414,4.414,0,0,1-1.751.309l-9.283.093c-3.836.038-8.294.085-12.659.148-4.218.062-8.474.128-12.589.192h-.005c-8.9.138-18.109.28-27.164.39l-4.97.057c-2.435.026-4.912.06-7.307.093h-.017c-4.881.067-9.929.137-14.891.137h-.15c-4.16,0-7.654-.018-11.182-.1-1.706-.042-3.4-.105-5.413-.188l-.319-.014-.494-.026c-.573-.031-1.165-.063-1.75-.063a9.431,9.431,0,0,0-2.134.207A1.146,1.146,0,0,1,34.518,155.625ZM67.9,20.419a1.78,1.78,0,0,1-1.295-.617,2.676,2.676,0,0,1-.661-1.379,1.98,1.98,0,0,1,.183-1.245,1.776,1.776,0,0,1,1.085-.849,14.869,14.869,0,0,0,3.873-2.913A20.565,20.565,0,0,0,74.025,9.55a27.978,27.978,0,0,0,2.244-4.618c.273-.741.5-1.508.717-2.249h0c.255-.866.519-1.761.858-2.617A.108.108,0,0,1,77.94,0a.073.073,0,0,1,.068.044,8.21,8.21,0,0,1,.745,2.692A12.282,12.282,0,0,1,78.7,5.644a18.572,18.572,0,0,1-1.665,5.485,19.4,19.4,0,0,1-2.96,4.445,26.735,26.735,0,0,1-3.9,3.588c-.38.291-.786.588-1.206.885A1.84,1.84,0,0,1,67.9,20.419Z" transform="translate(5.705 -3.573)"/>
  </g>
  <g id="HEAD" transform="translate(78.592 38.043)">
    <path id="_Skin-2" data-name="âœ‹ Skin" d="M49.314,93.462h0a44.78,44.78,0,0,1-26.6-8.741,2.329,2.329,0,0,1-.864-1.152,1.955,1.955,0,0,1,.014-1.222A17.134,17.134,0,0,1,19.8,80.232a18.049,18.049,0,0,1-1.7-2.471,17.608,17.608,0,0,1-1.271-2.732,16.112,16.112,0,0,1-.761-2.9.883.883,0,0,0-.52-.554,3.605,3.605,0,0,0-.815-.218c-.124-.023-.241-.045-.355-.072a19.42,19.42,0,0,1-5.908-1.81A7.324,7.324,0,0,1,6.2,67.6a5.978,5.978,0,0,1-.769-1.3,6.649,6.649,0,0,1-.453-1.589,11.952,11.952,0,0,1,.007-2.69,11.422,11.422,0,0,1,.522-2.305,23,23,0,0,1,1.887-3.945c.449-.8.913-1.629,1.3-2.481a11.934,11.934,0,0,0,.892-2.724,10.391,10.391,0,0,0,.092-3.242,15.894,15.894,0,0,0-1.1-4.033,63.388,63.388,0,0,0-3.5-8.919C4.13,32.24,3.147,30.04,2.3,27.838A37.949,37.949,0,0,1,.349,21.306,19.561,19.561,0,0,1,0,18.179a13.269,13.269,0,0,1,.246-2.96,10.078,10.078,0,0,1,2.781-5.193A8.659,8.659,0,0,1,5.569,8.272a7.2,7.2,0,0,1,2.957-.656,6.36,6.36,0,0,1,1.31.136A79.872,79.872,0,0,1,44.125,0,77.007,77.007,0,0,1,62.13,2.118l.24.057A34.013,34.013,0,0,1,66.043,3.2a10.777,10.777,0,0,1,3.314,1.825,3.8,3.8,0,0,1,1.185,1.563,2.8,2.8,0,0,1,.094,1.588,10.559,10.559,0,0,1-1.687,3.3,16.492,16.492,0,0,0-1.634,2.894,5.453,5.453,0,0,0-.378,1.531,4.068,4.068,0,0,0,.172,1.6c.367.514,1.019,1.558,1.744,2.792.6,1.024,1.536,2.659,2.575,4.637a51.152,51.152,0,0,1,4.222,9.916c.686,2.862,1.134,4.375,1.3,4.375.025,0,.038-.034.046-.06,0-.011.006-.021.008-.031s.007-.029.011-.029a2.96,2.96,0,0,1,.062.469c.063.554.193,1.707.489,4.044.359,2.838.8,6.59,1.024,10.442a73.174,73.174,0,0,1-.066,10.51,49.709,49.709,0,0,1-.7,5.131,40.091,40.091,0,0,1-1.279,4.968,34.194,34.194,0,0,1-1.962,4.744,31.5,31.5,0,0,1-2.748,4.461,23.942,23.942,0,0,1-2.069,2.162,26.832,26.832,0,0,1-3.979,3.036,28.031,28.031,0,0,1-5.993,2.819A30.865,30.865,0,0,1,51.682,93.4C50.9,93.44,50.1,93.462,49.314,93.462ZM2.127,18.088a16.442,16.442,0,0,0,.364,2.706A14.113,14.113,0,0,1,3.2,18.837,1.882,1.882,0,0,1,2.127,18.088ZM8.653,8.32a6.6,6.6,0,0,0-2.174.83,8.316,8.316,0,0,0-1.847,1.5A29.368,29.368,0,0,1,8.653,8.32Z" transform="translate(9.698 10.99)" fill="#d08b5b"/>
    <path id="_Ink-2" data-name="ðŸ– Ink" d="M60.146,107.224a27.247,27.247,0,0,1-8.637-1.408,26.616,26.616,0,0,1-4.033-1.732,25.544,25.544,0,0,1-3.693-2.391,1.488,1.488,0,0,1-.49-1.745,2.29,2.29,0,0,1,.718-1.019,1.819,1.819,0,0,1,1.13-.434,1.51,1.51,0,0,1,.882.289,26.522,26.522,0,0,0,7.009,3.523,24.561,24.561,0,0,0,7.645,1.239,22.518,22.518,0,0,0,8.67-1.712A22.2,22.2,0,0,0,73.723,99.4a24.083,24.083,0,0,0,3.77-3.343A24.616,24.616,0,0,0,80.5,92a23.469,23.469,0,0,0,2.09-4.561,55.493,55.493,0,0,0,2.079-11.371c.04-.357.085-.761.13-1.155l.032-.28c.259-2.25.457-4.472.589-6.606.139-2.253.208-4.483.206-6.628s-.081-4.073-.244-5.919a49.044,49.044,0,0,0-.8-5.576,43.864,43.864,0,0,0-1.475-5.433,48.305,48.305,0,0,0-2.267-5.49,39.444,39.444,0,0,0-6.521-9.6,3.013,3.013,0,0,1-.608.057,8.163,8.163,0,0,1-1.2-.122h0c-.209-.032-.426-.064-.635-.087-.461-.05-.864-.09-1.233-.125.4.26.806.537,1.237.845l.531.384.252.18.013.009a11.788,11.788,0,0,1,2.295,1.946,3.185,3.185,0,0,1,.783,2.723,1.646,1.646,0,0,1-.486.85,1.889,1.889,0,0,1-.85.488,2.889,2.889,0,0,1-.669.08,3.4,3.4,0,0,1-1.926-.67,12.788,12.788,0,0,1-1.649-1.43c-.311-.3-.6-.587-.9-.842-1.29-1.1-2.62-2.076-3.982-3.058-.359-.257-.657-.468-.936-.664.283.331.573.684.862,1.049l.414.526.217.271a12.456,12.456,0,0,1,1.719,2.544,3.022,3.022,0,0,1,.007,2.837,1.814,1.814,0,0,1-.682.685,1.857,1.857,0,0,1-.931.26h-.031a2.941,2.941,0,0,1-2.144-1.04,11.1,11.1,0,0,1-1.426-2.124c-.213-.376-.415-.732-.626-1.055-.953-1.456-2.006-2.835-2.909-3.992-.322-.41-.592-.751-.85-1.071a88.254,88.254,0,0,0-14.045,1.87c-2.8.606-5.788,1.417-9.4,2.551l-.258.082a11.634,11.634,0,0,0-4.614,2.422,6.247,6.247,0,0,0,.125,2.5l.129.626a37.059,37.059,0,0,1,.611,3.909,20.258,20.258,0,0,1,.01,3.962A29.213,29.213,0,0,1,28.4,54.6a3.359,3.359,0,0,1-.6,1.006,2.115,2.115,0,0,0-.546,1.289,13.7,13.7,0,0,0,.039,3.015l.075.848a16.814,16.814,0,0,1,.029,3.383,5.98,5.98,0,0,1-1.2,3.091.451.451,0,0,1-.361.163.6.6,0,0,1-.507-.275,3.629,3.629,0,0,0-.2-.323,4.081,4.081,0,0,0-1.3-1.207,5.156,5.156,0,0,0-1.7-.613.1.1,0,0,1-.093-.105.156.156,0,0,1,.128-.148,4.274,4.274,0,0,1,2.854.674c-.16-.555-.772-.837-1.818-.837a11.446,11.446,0,0,0-2.651.4l-.035.009a10.331,10.331,0,0,0-3.493,1.665,8.237,8.237,0,0,0-1.408,1.326,8.02,8.02,0,0,0-1.038,1.59,7.94,7.94,0,0,0-.819,3.714,7.53,7.53,0,0,0,1,3.607,6.967,6.967,0,0,0,1.142,1.47,6.83,6.83,0,0,0,1.53,1.128,7.428,7.428,0,0,0,3.526.871h.079a8.5,8.5,0,0,0,1.748-.258,8.219,8.219,0,0,1,1.765-.255c.086,0,.171,0,.254.008a1.151,1.151,0,0,1,.936.607.955.955,0,0,1-.04.959,3.578,3.578,0,0,1-1.109,1.131,37.182,37.182,0,0,0,4.006,7,23.118,23.118,0,0,0,2.943,3.337,9.877,9.877,0,0,0,.774.622,8.718,8.718,0,0,1,1.259,1.082,1.8,1.8,0,0,1,.548,1.335,1.033,1.033,0,0,1-.717.947,1.339,1.339,0,0,1-.51.1c-1.1,0-2.315-1.259-3.117-2.093-.09-.094-.184-.191-.268-.277l-.072-.073a25.227,25.227,0,0,1-3.046-3.686,18.191,18.191,0,0,1-1.93-3.716,19.173,19.173,0,0,1-1.046-4.039,7.137,7.137,0,0,1-2.053.275,11.388,11.388,0,0,1-2.546-.306,11.88,11.88,0,0,1-2.2-.73,9.135,9.135,0,0,1-1.856-1.124,9.447,9.447,0,0,1-1.51-1.485A10.088,10.088,0,0,1,12.1,77.934a10.705,10.705,0,0,1-.769-1.965,10.962,10.962,0,0,1-.31-4.447,10.26,10.26,0,0,1,.551-2.185,9.646,9.646,0,0,1,3.45-4.492,2.282,2.282,0,0,1-.567-.437,14.989,14.989,0,0,1-2.071-3.153l-.2-.375-.08-.145c-.589-1.066-1.148-2.158-1.664-3.246l-.193-.413c-.443-.954-.86-1.7-1.263-2.412a18.382,18.382,0,0,1-1.746-3.821A53.235,53.235,0,0,1,5.4,43.08l-.108-.7a18.369,18.369,0,0,1-.286-4.714,6.253,6.253,0,0,1-2.023.393,3.336,3.336,0,0,1-1.519-.348,1.865,1.865,0,0,1-.855-.993,1.958,1.958,0,0,1-.079-1.307A3.2,3.2,0,0,1,1.449,34a3.313,3.313,0,0,1-.67-.452L.6,33.394a1.849,1.849,0,0,1-.591-1.223A2.335,2.335,0,0,1,.274,30.83c.039-.067.08-.143.124-.224a2.417,2.417,0,0,1,2.057-1.2h.032l.2,0,.2,0a3.609,3.609,0,0,1-1.134-.444,2.266,2.266,0,0,1-.907-1.073A2.517,2.517,0,0,1,.7,26.535a2.269,2.269,0,0,1,.5-1.12,2.1,2.1,0,0,1,1.113-.675,4.364,4.364,0,0,1,1.022-.115,7.141,7.141,0,0,1,1.641.212l-.018-.01-.083-.049a2.732,2.732,0,0,1-.887-.893,2.044,2.044,0,0,1-.319-1.214,2.971,2.971,0,0,1,.318-1.223,2.314,2.314,0,0,1,.888-.887,2.506,2.506,0,0,1,1.26-.335,2.185,2.185,0,0,1,1.2.335A20.708,20.708,0,0,1,9.148,21.9a6.144,6.144,0,0,1-1.305-2.35A2.48,2.48,0,0,1,8.95,16.826a2.224,2.224,0,0,1,1.137-.316,2.541,2.541,0,0,1,1.1.265,2.391,2.391,0,0,1,.457-1.6,3.106,3.106,0,0,1,.949-.857,2.4,2.4,0,0,1,1.189-.334,2.089,2.089,0,0,1,1.128.333,3.374,3.374,0,0,1,.561.469,3.16,3.16,0,0,1-.15-.933,2.49,2.49,0,0,1,.151-.88,2.264,2.264,0,0,1,1.291-1.3,2.352,2.352,0,0,1,.911-.176,2.672,2.672,0,0,1,1.7.6,2.314,2.314,0,0,1,.524-1.921,2.811,2.811,0,0,1,.924-.724,2.578,2.578,0,0,1,1.122-.269,2.173,2.173,0,0,1,1.94,1.211c.36.649.656,1.23.9,1.776l.1.23.011,0-.071-.168-.072-.168c-.074-.172-.153-.349-.23-.52l0,0a8.641,8.641,0,0,1-.78-2.283,3.4,3.4,0,0,1,.033-1.173,2.484,2.484,0,0,1,.442-.994,2.243,2.243,0,0,1,1.532-.853,2.151,2.151,0,0,1,.289-.019,2.632,2.632,0,0,1,1.959.92A2.643,2.643,0,0,1,28.1,6a2.531,2.531,0,0,1,.515-.922,2.341,2.341,0,0,1,1.751-.821A2.388,2.388,0,0,1,32,4.942a7.772,7.772,0,0,1,1.5,2.3c.11.22.223.447.338.664.139.261.282.526.421.782l0,0c.164.3.334.619.5.931.077-.092.161-.185.251-.277a38.15,38.15,0,0,1-1.1-4.159,2.766,2.766,0,0,1,.253-1.891,2.38,2.38,0,0,1,1.486-1.179,2.308,2.308,0,0,1,.616-.082,2.69,2.69,0,0,1,1.545.5,2.2,2.2,0,0,1,.9,1.328c.181.869.4,1.773.677,2.764a4.455,4.455,0,0,1,.512-.093c.015-.177.031-.351.048-.517l.066-.611.014-.129a9.845,9.845,0,0,1,1.011-4.05A2.33,2.33,0,0,1,43.067.08a2.531,2.531,0,0,1,1.665.626,2.263,2.263,0,0,1,.552.74,2.407,2.407,0,0,1,.219.987,9.146,9.146,0,0,1-.36,2.28c-.114.465-.232.946-.3,1.418-.07.494-.118,1.023-.145,1.617a48.234,48.234,0,0,1,1.345-5.316c.043-.141.088-.285.132-.424h0l0-.015.059-.187A2.622,2.622,0,0,1,47.155.489,2.459,2.459,0,0,1,48.643,0a2.724,2.724,0,0,1,.323.02A2.637,2.637,0,0,1,50.51.836a2.056,2.056,0,0,1,.613,1.63c-.024.223-.057.446-.1.662l.005,0h.005l-.028.08a4.134,4.134,0,0,1-.365,1.061c-.235.687-.458,1.37-.626,1.889.063,0,.125,0,.183,0a3.933,3.933,0,0,1,.72.065l.415-1.063.006-.016c.174-.444.353-.9.53-1.356.082-.209.156-.429.235-.661a5.081,5.081,0,0,1,1.013-2,2.829,2.829,0,0,1,2-.786,2.755,2.755,0,0,1,1.394.363A2.581,2.581,0,0,1,57.643,2a3.1,3.1,0,0,1,.125,1.734,1.948,1.948,0,0,1-1.059,1.341l-.056.029-.4.947a3.276,3.276,0,0,1,.386-.142,3.16,3.16,0,0,1,.632-.12c.507-.921,1.093-1.881,1.843-3.022a2.815,2.815,0,0,1,.964-.906,2.521,2.521,0,0,1,1.233-.33,2.389,2.389,0,0,1,1.223.338,2.692,2.692,0,0,1,1.2,1.725,2.134,2.134,0,0,1-.3,1.7c-.513.724-1.041,1.514-1.712,2.56a2.452,2.452,0,0,1,.28.065c.043-.058.088-.116.133-.171a12.709,12.709,0,0,1,1.727-1.68l.305-.262A4.867,4.867,0,0,0,64.857,5a3.431,3.431,0,0,1,1.186-1.149,2.641,2.641,0,0,1,1.174-.283,2.314,2.314,0,0,1,1.106.276,2.235,2.235,0,0,1,.855.831,2.647,2.647,0,0,1,.041,2.851,9.984,9.984,0,0,1-2.035,2.263l0,0c-.178.162-.347.315-.508.468A37.788,37.788,0,0,1,70.822,8c.973-.449,1.726-.768,2.441-1.036a3.615,3.615,0,0,1,1.268-.254,2.6,2.6,0,0,1,1,.2,3.56,3.56,0,0,1,.958.6,1.633,1.633,0,0,1,.479.818,1.612,1.612,0,0,1-.013.947,3.4,3.4,0,0,1-.805,1.289,3.049,3.049,0,0,1-1.337.723c-.364.1-.738.187-1.1.271-.415.1-.843.2-1.26.316a25.921,25.921,0,0,0-3.807,1.408,1.968,1.968,0,0,1,.251.182c.9-.291,1.838-.552,2.8-.776a36.04,36.04,0,0,1,4.741-.769l.53-.049.3-.03h.007c.592-.059,1.2-.12,1.807-.12A5.044,5.044,0,0,1,80.907,12a2.885,2.885,0,0,1,1.434,1.174,2.155,2.155,0,0,1,.305,1.1,1.854,1.854,0,0,1-.305,1.1A3.08,3.08,0,0,1,81.049,16.5a4.383,4.383,0,0,1-1.693.276c1.305.139,2.647.314,3.987.522.9.137,1.82.3,2.734.473l.454.089c.188.038.384.073.574.108h0a7.023,7.023,0,0,1,2.718.885,2.567,2.567,0,0,1,.985,1.174,2.187,2.187,0,0,1,.093,1.321,2.446,2.446,0,0,1-.77,1.267,2.783,2.783,0,0,1-1.505.667,3.408,3.408,0,0,1-.423.025,8.765,8.765,0,0,1-2.1-.36c-.317-.081-.616-.157-.911-.217-1.039-.21-2.111-.4-3.188-.566-.516-.081-1.059-.157-1.659-.232a23.067,23.067,0,0,1,3.337.718l.3.092A15.884,15.884,0,0,1,87.333,24.1a6.115,6.115,0,0,1,1.4,1.093,3.691,3.691,0,0,1,.857,1.475,1.951,1.951,0,0,1-.277,1.7,2.3,2.3,0,0,1-1.734.952c-.057,0-.115.005-.172.005a5.377,5.377,0,0,1-2.555-.9c-.185-.1-.376-.208-.564-.306a13.839,13.839,0,0,0-2.348-.939c-.823-.253-1.69-.472-2.576-.651A20.273,20.273,0,0,1,81.5,27.876l.315.234a16.906,16.906,0,0,1,2.906,2.566,5.324,5.324,0,0,1,.965,1.632,3.162,3.162,0,0,1,.092,1.827,2.069,2.069,0,0,1-.68,1.036,1.822,1.822,0,0,1-1.15.462c-.043,0-.086,0-.128-.006a3.834,3.834,0,0,1-1.97-.823,13.259,13.259,0,0,1-1.622-1.551,13.181,13.181,0,0,0-1.571-1.506c-.417-.316-.9-.648-1.429-.985a37.429,37.429,0,0,1,3.451,4.9,44.773,44.773,0,0,1,2.694,5.349,53.689,53.689,0,0,1,3.505,11.837c.337,1.928.579,3.892.739,6,.149,1.962.224,4.018.231,6.286v.268c.005,5.87-.17,10.3-.567,14.37a49.06,49.06,0,0,1-1.019,6.5,27.971,27.971,0,0,1-2.184,6.188,25.342,25.342,0,0,1-3.046,4.691,27.656,27.656,0,0,1-4,3.976,28.179,28.179,0,0,1-4.712,3.1,26.56,26.56,0,0,1-5.195,2.056A26.217,26.217,0,0,1,60.146,107.224ZM22.255,31.731h0a.58.58,0,0,0-.421.192A8.382,8.382,0,0,0,20.46,34.06a.621.621,0,0,0,.022.623.718.718,0,0,0,.584.34.532.532,0,0,0,.486-.322l.166-.332a6.619,6.619,0,0,1,.926-1.457l.085-.091a.591.591,0,0,0,.13-.664.686.686,0,0,0-.6-.425Zm-7.671-1.259a.729.729,0,0,0-.121.01c-.519.088-1.044.183-1.551.274s-1.029.186-1.545.273a.513.513,0,0,0-.455.581.7.7,0,0,0,.671.653.727.727,0,0,0,.121-.01c.517-.087,1.04-.182,1.547-.274s1.032-.187,1.55-.274a.513.513,0,0,0,.455-.581A.7.7,0,0,0,14.584,30.472Zm47.731-7.147a.59.59,0,0,0-.556.531.69.69,0,0,0,.064.428.62.62,0,0,0,.364.3A25.26,25.26,0,0,1,65.314,25.8a.66.66,0,0,0,.292.071.7.7,0,0,0,.654-.546.528.528,0,0,0-.308-.619,28,28,0,0,0-3.43-1.342A.655.655,0,0,0,62.315,23.325ZM14.387,21.669a.552.552,0,0,0-.515.489.68.68,0,0,0,.409.782l2.732,1.1a.621.621,0,0,0,.23.048.552.552,0,0,0,.515-.488.68.68,0,0,0-.409-.782l-2.732-1.1A.62.62,0,0,0,14.387,21.669Zm57.25-3.1h0a.633.633,0,0,0-.576.481.653.653,0,0,0,0,.385.618.618,0,0,0,.263.333c.159.1.334.194.5.283a4.06,4.06,0,0,1,.75.463l.076.068a.609.609,0,0,0,.421.178.7.7,0,0,0,.626-.439.559.559,0,0,0-.153-.635,4.849,4.849,0,0,0-1.02-.682c-.154-.085-.313-.173-.465-.267l-.1-.063a.6.6,0,0,0-.326-.1ZM24.773,76.017a1.064,1.064,0,0,1-.849-.535,9.021,9.021,0,0,0-5.153-4.305.059.059,0,0,1-.035-.059.038.038,0,0,1,.035-.036,6.129,6.129,0,0,1,.937-.072,6.277,6.277,0,0,1,1.763.257,7.244,7.244,0,0,1,1.627.71A9.354,9.354,0,0,1,25.773,74.4a1.1,1.1,0,0,1-.169,1.3.986.986,0,0,1-.741.313l-.016,0A.578.578,0,0,1,24.773,76.017Z" transform="translate(1.265 0.211)"/>
  </g>
  <g id="FACE" transform="translate(112.183 77.354)">
    <ellipse id="eye" cx="11.62" cy="8.982" rx="11.62" ry="8.982" transform="translate(10.986 16.697)" fill="#fff"/>
    <path id="eye-2" data-name="eye" d="M8.239,14.583c5.017,0,9.93-3.265,9.93-7.292S14.1,0,9.085,0,0,3.265,0,7.292C0,9.5.729,8.068,2.662,9.4,4.253,10.505,5.975,14.583,8.239,14.583Z" transform="translate(32.958 16.697)" fill="#fff"/>
    <path id="_Ink-3" data-name="ðŸ– Ink" d="M34.449,38.922c-.293,0-.6-.016-.888-.032-.216-.012-.44-.024-.662-.03-1.014-.026-2.055-.045-3.095-.056-1.363-.014-2.751-.021-4.127-.021-.68,0-1.372,0-2.057.005l-.843,0c-1.509,0-3.1-.02-4.739-.06l-.8-.021c-.409-.011-.83-.017-1.236-.023a25.483,25.483,0,0,1-4.548-.335l-.081-.014,0,0a.521.521,0,0,1-.332-.448.359.359,0,0,1,.223-.361,23.6,23.6,0,0,1,5.282-1.494l.716-.145c1.842-.378,3.852-.689,6.146-.952,1.83-.209,3.853-.383,6.184-.532,1.026-.066,2.106-.124,3.3-.179l.174-.009.41-.026c.331-.022.674-.045,1-.045a3.625,3.625,0,0,1,1.993.5,2.247,2.247,0,0,1,.8.844,2.214,2.214,0,0,1-.8,2.942,3.086,3.086,0,0,1-1,.4A4.812,4.812,0,0,1,34.449,38.922Zm-7.5-7.181a6.23,6.23,0,0,1-1.445-.162,4.76,4.76,0,0,1-1.322-.526,1.821,1.821,0,0,1-.8-1.056,2.427,2.427,0,0,1-.019-1.344,1.912,1.912,0,0,1,.546-.926,1.5,1.5,0,0,1,1.024-.384,1.922,1.922,0,0,1,.253.017c.3.04.6.095.892.147a9.192,9.192,0,0,0,1.641.2,3.6,3.6,0,0,0,1.455-.29.942.942,0,0,0,.525-.525,1.6,1.6,0,0,0,.074-.765,6.526,6.526,0,0,0-.469-1.59l-.028-.07a26.16,26.16,0,0,0-1.278-2.638c-.261-.492-.532-1-.776-1.506l-.123-.26c-.155-.331-.319-.662-.493-1.012-.293-.589-.6-1.2-.85-1.812a15.124,15.124,0,0,1-1.08,3.3A8.516,8.516,0,0,1,18.881,25.2a22.088,22.088,0,0,1-3.484.641,33.607,33.607,0,0,1-3.6.184c-.43,0-.871-.007-1.309-.022a14.456,14.456,0,0,1-4.1-.688A9.032,9.032,0,0,1,2.847,23.2a7.5,7.5,0,0,1-1.813-2.882A8.521,8.521,0,0,1,.59,17.015,9.8,9.8,0,0,1,1.617,13.2,9.489,9.489,0,0,1,2.689,11.53,8.749,8.749,0,0,1,4.1,10.13,14.832,14.832,0,0,1,7.95,7.956a13.57,13.57,0,0,1,2.167-.628A11.359,11.359,0,0,1,12.327,7.1a9.759,9.759,0,0,1,1.043.055,8.453,8.453,0,0,1,1.848-.191,14.731,14.731,0,0,1,3.215.4,11.976,11.976,0,0,1,3.151,1.181,9.147,9.147,0,0,1,2.581,2.081,5.979,5.979,0,0,1,.37-.768.129.129,0,0,1-.07-.094.093.093,0,0,1,.03-.085c.112-.1.228-.2.34-.293l.009-.008A7.007,7.007,0,0,1,26.66,7.652l.136-.091A10.476,10.476,0,0,1,28.69,6.556a5.77,5.77,0,0,1,2.1-.451,3.389,3.389,0,0,1,1.361.269.935.935,0,0,1,.251.161,9.89,9.89,0,0,1,1.274.108,10.888,10.888,0,0,1,4.694,1.931,10.59,10.59,0,0,1,3.309,3.833,7.65,7.65,0,0,1,.72,5.145,7.57,7.57,0,0,1-2.873,4.315,11.568,11.568,0,0,1-2.437,1.451,9.143,9.143,0,0,1-2.736.725c-.275.027-.516.04-.737.04a3.76,3.76,0,0,1-1.141-.155,7.225,7.225,0,0,1,.608,1.895,5.615,5.615,0,0,1,.045,1.622A4.355,4.355,0,0,1,32.7,28.87a4.2,4.2,0,0,1-.9,1.184,5.2,5.2,0,0,1-1.358.9A8.511,8.511,0,0,1,26.946,31.742ZM10.282,9.025l-.11.037A11.963,11.963,0,0,0,7.252,10.5a11.5,11.5,0,0,0-2.391,2.192,7.57,7.57,0,0,0-1.452,2.8,6.732,6.732,0,0,0-.144,3.03A5.371,5.371,0,0,0,6.036,22.3a10.139,10.139,0,0,0,5,1.051c.434,0,.908-.014,1.449-.042l.44-.023a26.786,26.786,0,0,0,5.7-.778,6.389,6.389,0,0,0,2.552-1.345A6.162,6.162,0,0,0,22.8,18.768l.064-.165a9.282,9.282,0,0,0,.693-3.112,4.991,4.991,0,0,0-.2-1.532,4.4,4.4,0,0,0-.749-1.436A6.439,6.439,0,0,0,21.179,11.2a8.537,8.537,0,0,0-1.8-.934A12.01,12.01,0,0,0,13.1,9.721a9.168,9.168,0,0,0-1.928.572.96.96,0,0,1-.379.082.752.752,0,0,1-.685-.42.822.822,0,0,1,.127-.876Zm22.06-.774h0a1.037,1.037,0,0,1-.187.148,4.236,4.236,0,0,1-1.531.47c-.231.04-.47.081-.7.14a9.368,9.368,0,0,0-2.047.72,25.519,25.519,0,0,0-3.039,1.817,7.736,7.736,0,0,1,.551,1.049,7.213,7.213,0,0,1,.54,3.176,13.624,13.624,0,0,1,1.323,1.386c.165.19.336.387.506.574l.525.578c.591.652,1.216,1.353,1.79,2.068.312.388.673.84,1.013,1.3a1.483,1.483,0,0,1,.19-.386,1.3,1.3,0,0,1,1.073-.6,1.364,1.364,0,0,1,.313.037,4.5,4.5,0,0,1,.5.156,2.429,2.429,0,0,0,.852.19h.028a5.8,5.8,0,0,0,1.822-.329,7.927,7.927,0,0,0,3.207-1.977,3.741,3.741,0,0,0,.944-1.649,4.239,4.239,0,0,0,.059-1.8,7.73,7.73,0,0,0-1.6-3.373A10,10,0,0,0,35.71,9.539a10.556,10.556,0,0,0-3.368-1.288ZM8.548,29.234a8.022,8.022,0,0,1-2.027-.287,14.277,14.277,0,0,1-1.93-.675A10.4,10.4,0,0,1,.036,24.742a.193.193,0,0,1-.012-.206A.257.257,0,0,1,.241,24.4a.2.2,0,0,1,.107.032A19.418,19.418,0,0,0,5.2,26.821a16.516,16.516,0,0,0,2.771.494,18.939,18.939,0,0,1,2.411.395.553.553,0,0,1,.444.517.7.7,0,0,1-.105.4.678.678,0,0,1-.338.282A5.163,5.163,0,0,1,8.548,29.234ZM15.8,19a2.374,2.374,0,0,1-1.8-.805,3.617,3.617,0,0,1-.543-3.809,2.36,2.36,0,0,1,1.495-1.264,1.451,1.451,0,0,1,.4-.054,1.859,1.859,0,0,1,.847.207,1.239,1.239,0,0,1,.586.593l.189.447,0,0c.061.147.131.313.185.483l.185.144a5.428,5.428,0,0,1,.439.556,2.469,2.469,0,0,1,.247,1.847,2.175,2.175,0,0,1-.825,1.2A2.391,2.391,0,0,1,15.818,19Zm17.333-.647a2.142,2.142,0,0,1-2.068-1.583,6.022,6.022,0,0,1-.442-2.139,2.272,2.272,0,0,1,.716-1.7,2.585,2.585,0,0,1,.777-.511,2.649,2.649,0,0,1,.926-.212l.1,0a2.067,2.067,0,0,1,.908.206,2.263,2.263,0,0,1,.709.545,2.958,2.958,0,0,1,.7,1.671,6.006,6.006,0,0,1-.287,2.183A2.127,2.127,0,0,1,33.135,18.352ZM1.953,6.139a3.822,3.822,0,0,1-1.8-.345.087.087,0,0,1-.046-.061.118.118,0,0,1,.026-.094A5.43,5.43,0,0,1,2.6,4.311c.184-.063.357-.122.522-.183L3.2,4.1c1.369-.516,2.59-.933,3.732-1.274l.64-.19A59.389,59.389,0,0,1,14.762.9a3.294,3.294,0,0,1,.523-.042,2.574,2.574,0,0,1,1.6.509,2.225,2.225,0,0,1,.831,1.5,2.222,2.222,0,0,1-.432,1.71,2.414,2.414,0,0,1-.815.659,3.077,3.077,0,0,1-1.075.311c-2.147.228-4.359.317-6.5.4h0c-.5.02-1.019.041-1.526.063-.975.042-2.035.067-3.337.079l-.556,0c-.217,0-.444.011-.685.022C2.514,6.127,2.233,6.139,1.953,6.139ZM38.19,4.975a37.818,37.818,0,0,1-4.774-.411h0c-.458-.059-.933-.12-1.39-.174-1.029-.12-2.077-.274-3.09-.422-1.58-.231-3.213-.47-4.818-.591a1.756,1.756,0,0,1-1.1-.462,1.6,1.6,0,0,1-.474-.93,1.662,1.662,0,0,1,.2-1.058A1.775,1.775,0,0,1,23.68.157,2.375,2.375,0,0,1,24.517,0,2.159,2.159,0,0,1,26,.586c1.32.368,2.685.682,4,.987h0c.653.151,1.329.306,1.988.466l.541.133c.52.13,1.062.256,1.585.378a27.842,27.842,0,0,1,5.962,1.864.2.2,0,0,1,.123.222.3.3,0,0,1-.247.239A14.512,14.512,0,0,1,38.19,4.975Z" transform="translate(9.296 9.299)"/>
  </g>
</svg>
