<svg id="peep-103" xmlns="http://www.w3.org/2000/svg" width="240" height="324" viewBox="0 0 240 324">
  <g id="BODY" transform="translate(31.056 135.053)">
    <path id="_Skin" data-name="âœ‹ Skin" d="M154.89,92.172c0-1.71-2.366-4.746-2.37-6.295,1.989-.356,3.652-3.052,3.212-4.74-.776-.594-2.812-1.762-3.653-2.308-5.128.156-3.179-6.981-3.76-10.609-.584-3.549-1.018-7.261-1.874-10.83-1.519-2.856-2.232-6.058-3.684-8.9-.648-.942-1.7-1.805-2.01-2.9-3.176-3.47-7.549-5.55-11.147-8.49,1.4-.447,1.3-2.331,1.213-3.541.325-1.579-.022-3.559-1.461-4.448a2.5,2.5,0,0,0-3.855-1.129c-.817-3.661-4.011-5.883-7.358-7.241l.009-.032a19.3,19.3,0,0,0-10.788-1.255C109.143-.359,93.973-1.086,86.274.579c-3.938.852-9.846,3.5-11.189,7.189A97.137,97.137,0,0,0,71.843,18.7c-5.879-3.356-12.694-7.781-17.794-1.025a7.231,7.231,0,0,1-3.679,2.457c-4.77,1.238-11.1,1.28-13.814,6.145-1.621,3.014-.163,5-.6,8.015C14.485,49.378-3.46,104.953.569,130.809c.969,9.253,5.7,25.63,17.382,23.588,5.958,6.519,105.956,6.519,116.267,0,8.488,2.221,17.112-1.217,20.671-9.349,4.52-11.151-.27-23.194-1.119-34.634-.516-2.888-1.283-5.181-1.693-8.137-.171-1.232.419-3.282,0-4.417C152.276,97.12,154.89,93.882,154.89,92.172Z" transform="translate(6.551 -9.511)" fill="#d08b5b"/>
    <path id="_Top" data-name="ðŸ‘• Top" d="M72.869,145.148c-6.222,0-12.322-.086-18.13-.255-5.965-.174-11.466-.432-16.35-.767-5.123-.351-9.481-.781-12.955-1.279a36.121,36.121,0,0,1-7.946-1.792l-.38-.17-2.346-1.126a17.749,17.749,0,0,0,2.611-.752c0-.019-.052-.028-.148-.028a9.479,9.479,0,0,0-.976.09,7.308,7.308,0,0,1-.913.057,8.568,8.568,0,0,1-2.443-.37,10.451,10.451,0,0,1-2.383-1.058,11.544,11.544,0,0,1-3.9-3.865l-.793-1.309-.243-.406-.135-.229c-.322-.55-.553-.974-.8-1.464a38.744,38.744,0,0,1-2.472-6.355,48.162,48.162,0,0,1-1.445-6.645,67.114,67.114,0,0,1-.655-7.36c-.088-2.323-.094-4.723-.02-7.132.074-2.386.229-4.848.461-7.317A141.735,141.735,0,0,1,12.181,51.532,129.868,129.868,0,0,1,19.04,38.345l.269-.448.293-.484.3-.494.3-.492.276-.445.278-.444.28-.443c1.316-2.069,2.528-3.81,3.7-5.322A40.779,40.779,0,0,1,28.5,25.548c2.323-2.263,4.807-4.592,7.382-6.923l-.056-.98,0-.018c-.007-.041-.029-.121-.059-.232-.209-.771-.845-3.117.014-4.992l.112-.241c.65-1.376.9-1.491,1.31-1.681a3.3,3.3,0,0,0,.561-.313l.035-.025a15.084,15.084,0,0,1,3.177-1.706,24.5,24.5,0,0,1,3.892-1.161,12.941,12.941,0,0,1,2.365-.266l.133,0L47.537,7l.746-.023a4.583,4.583,0,0,0,1.859-.416,3.952,3.952,0,0,0,1.414-1.152l.06-.077.061-.081.057-.078a12.1,12.1,0,0,0,.694-1.138l.21-.372.1-.176.1-.177a7.116,7.116,0,0,1,.952-1.329A6.633,6.633,0,0,1,58.249.029c.3-.02.6-.029.9-.029A16.433,16.433,0,0,1,63.53.635a41.273,41.273,0,0,1,5.312,1.922l.353.151,1.211.525-.254.582a42.692,42.692,0,0,1-2.4,4.7l-.166.277-.255.421.013.014c.107.119.22.246.336.378L81.009,23.932c5.595,6.009,8.59,9.215,8.9,9.529a3.14,3.14,0,0,0,2.146,1.107,2.379,2.379,0,0,0,1.631-.736l.133-.126.218-.211.149-.146c.735-.726,1.473-1.531,2.634-2.87l12.309-17.468-.777-1.738c-1.42-3.193-2.207-5.087-2.338-5.629l-.059-.267-.123-.573.562-.168a9.25,9.25,0,0,1,2.642-.37,14.691,14.691,0,0,1,4.173.677l.147.044.424.131a19.835,19.835,0,0,1,3.7,1.431,6.9,6.9,0,0,1,2.992,2.806,5.7,5.7,0,0,0,2.2,2.585l.073.042.09.051.1.051c.08.042.17.088.283.144l.39.189a4.815,4.815,0,0,1,2.282,1.715,3.116,3.116,0,0,1,.493,1.245,4.807,4.807,0,0,1-.032,1.464l-.015.1-.026.158-.1.579-.024.147a3.6,3.6,0,0,0-.029,1.086l.012.07.27,1.435-.535-.34,1.481,1.207c2.139,1.752,3.343,2.782,4.6,3.938l.357.33.07.065c1.192,1.112,2.231,2.167,3.179,3.226a36.474,36.474,0,0,1,2.62,3.274,40.765,40.765,0,0,1,4.344,7.9l.133.323.011.042c.875,3.431,1.675,6.932,2.378,10.406s1.327,7.015,1.856,10.524l.1.683.516,3.5-1.7-3.1a3.771,3.771,0,0,0-1.91-1.318l-.086-.033-.062-.023-.131-.047a4.987,4.987,0,0,0-1.64-.287,4.448,4.448,0,0,0-1.319.2l-.1.032-.287.1-.255-.163a7.947,7.947,0,0,0-1.578-.764l-.146-.051-.611-.21.222-.608a1.978,1.978,0,0,0-.583-1.747,3.45,3.45,0,0,0-2.394-.686c-.254,0-.524.011-.827.033l-.209.017-.165.015-.248.025-.782.084v0c-.01.14-.016.263-.018.376V57.5a4.54,4.54,0,0,0,.077.811l.022.106L133,59.2l-.806-.014-.351-.005c-.256,0-.519,0-.782,0-.915,0-1.924.019-3.086.057l-1.436.053-3.663.155-3.214.113-.958.032-.046-.606a1.368,1.368,0,0,0-.546-.995,3.263,3.263,0,0,0-1.409-.572l-.078-.015-1.265-.229,1.039-.943.084-.079.087-.085c.855-.851,1.107-1.614.772-2.331a1.719,1.719,0,0,0-1.645-.88,3.03,3.03,0,0,0-1.14.233l-.079.033-.081.036a6.2,6.2,0,0,0-.767.443l-.434.282-.158.1a5.71,5.71,0,0,1-.939.5,4.032,4.032,0,0,1-1.614.3,10.3,10.3,0,0,1-1.268-.094l-.114-.014-.27-.036-.69-.1-.171-.023L107.8,54.5a8.994,8.994,0,0,0-1.056-.072,3.111,3.111,0,0,0-1.766.445,3,3,0,0,0-1.087,1.5l-.185.41-.081.176a5.8,5.8,0,0,1-.675,1.163,2.951,2.951,0,0,1-.848.727,6.388,6.388,0,0,1-1.616.642l-.532.154-.189.057c-.113.035-.208.067-.309.1a7.548,7.548,0,0,0-2.24,1.262l-.107.087-.116.1a18.743,18.743,0,0,0-2.23,2.338l-.716.844-.254.3-.21.241-.038.043-.029.033-.2.223c-1.585,1.741-3.124,3.295-4.7,4.75l-.333.3-.343.309-.282.251c-.883.778-1.824,1.559-3.469,2.881L82.264,75.3l-.6.488c-1.853,1.5-2.949,2.447-4.045,3.489l-.279.268-.02.115c-.01.058-.021.126-.036.221,0,.017-.277,1.726-.425,4.087-.087,1.389-.115,2.729-.082,3.983a28.73,28.73,0,0,0,.405,4.276,16.4,16.4,0,0,0,.856,3.434c.244.527.463.592.716.668a1.308,1.308,0,0,1,.789.565l.234.314a18.406,18.406,0,0,0,1.444,1.743l.547.565.629.51.4.24a4.461,4.461,0,0,0,.86.408.673.673,0,0,0,.219.035,1,1,0,0,0,.535-.174,1.315,1.315,0,0,0,.43-.466l.024-.046.169-.34.38-.011a1.133,1.133,0,0,0,.268-.041,1.46,1.46,0,0,0,.948-.841,1.506,1.506,0,0,0-.043-1.307l-.024-.044-.227-.4-.117-.2a8.486,8.486,0,0,0-.479-.744l-.059-.079L84.8,94.863l2.2.205.18.018.247.026.792.09c.826.093,1.632.177,2.4.252l.661.063,1.156.106.237.024.514.054,1.23.133.438.045.244.024c.231.022.439.04.657.056l.233.017c.52.035.987.053,1.43.053a10.762,10.762,0,0,0,2.98-.366,14.018,14.018,0,0,0,3.091-1.323,24.922,24.922,0,0,0,3.226-2.213,27.281,27.281,0,0,0,2.933-2.649,13.432,13.432,0,0,0,1.97-2.618.1.1,0,0,0,.008-.091l-.009-.02-.376-.689.753-.222a5.5,5.5,0,0,0,1.541-.694,2.965,2.965,0,0,0,1.31-2.117,1.792,1.792,0,0,0-.505-1.48l-.042-.04-.058-.053-.809-1.212,1.17-.173a10.546,10.546,0,0,0,1.056-.212,4.349,4.349,0,0,0,1.557-.732,2.812,2.812,0,0,0,.9-1.126,2.147,2.147,0,0,0,.165-1,2.455,2.455,0,0,0-.336-1.048l-.032-.053-.382-.632.682-.282c.142-.059.294-.116.465-.176l.1-.035.1-.035.383-.127a16.933,16.933,0,0,1,2.4-.61,15.73,15.73,0,0,1,1.878-.208l.235-.01.262-.009,0-.008.153,0,.536-.018-.011.027a17.009,17.009,0,0,1,2.394.232l.189.033c.268.047.529.1.823.156l1.22.259c.228.047.422.085.608.118l.186.032,1.965.332-1.8.864-.046.023-.046.024-.2.11a5.473,5.473,0,0,0-1.45,1.118,2.683,2.683,0,0,0-.662,1.329,1.844,1.844,0,0,0,.251,1.483,3.312,3.312,0,0,0,2.376.965l.17.018.179.017.117.01,5.084.344-4.814.924a31.233,31.233,0,0,0-3.533.9c-.092.029-.193.066-.3.108l-.083.034-.489.2-.469.339a2.138,2.138,0,0,0-.784.914.964.964,0,0,0,.142.907l.028.04.255.349-.232.365a2.853,2.853,0,0,0-.439,1.72,3.323,3.323,0,0,0,.656,1.748,5.16,5.16,0,0,0,3.2,1.812l.114.025.322.069.469.074.34.047.261.031.176.018.271.025.739.062a12.924,12.924,0,0,1,2.236.324,9.5,9.5,0,0,1,2.652,1.171l.119.071.251.151.486.3.47.293.159.1.2.118a5.811,5.811,0,0,0,2.935,1.074,3.138,3.138,0,0,0,.474-.036,3.437,3.437,0,0,0,1.649-.7l.074-.06.729-.6-.021-.122.159-.218c.289-.4,1.464-2.6,1.6-2.854l0,0a12.926,12.926,0,0,1,1.26-1.874,6.38,6.38,0,0,1,1.4-1.276l.088-.057.2-.122.228-.048.115.018a.58.58,0,0,1,.529.453,1.6,1.6,0,0,1,.062.221l.018.085.018.1.028.169.029.2.033.243.036.281c.027.221.058.483.093.8l.383,3.532.105.938.1.837.02.169v0l0,.031.083.678.09.709c.24,1.842.469,3.253.7,4.312l.044.2.03.127.076.326a68.984,68.984,0,0,1,2.095,15.539,24.625,24.625,0,0,1-3.567,13.69,18.874,18.874,0,0,1-1.953,2.543,17.183,17.183,0,0,1-2.3,2.1,15.362,15.362,0,0,1-2.581,1.584,13.8,13.8,0,0,1-2.8,1,10.383,10.383,0,0,1-2.379.288,7.35,7.35,0,0,1-3.3-.722,4.213,4.213,0,0,1-.893-.622l-.128-.108a2.468,2.468,0,0,0-1-.644.973.973,0,0,0-.1-.018l-.046,0-.575-.044-.01-.577c-.011-.645-.177-1.079-.324-1.079a.094.094,0,0,0-.067.033,2.336,2.336,0,0,0-.163,1.254c0,.028.106,2.768.135,3.114l.02.229.008.081-.34,1.186a43.986,43.986,0,0,1-8.78,1.887c-3.764.524-8.435.978-13.883,1.349-5.185.353-10.981.626-17.227.81C85.6,145.057,79.274,145.148,72.869,145.148Zm29.684-79.759h0l3.809-1.915.077-.038.021-.011.146-.07.458-.213,1.127-.518,1.142-.537-.251,1.238a1.9,1.9,0,0,0-.039.343v.083l.018.564-.558.083c-.447.066-.9.137-1.343.21l-.442.074Z" transform="translate(8.114 5.27)" fill="#78e185"/>
    <path id="_Ink" data-name="ðŸ– Ink" d="M135.435,150.905h0a5.462,5.462,0,0,1-1.888-1.082l-.094-.084a18.067,18.067,0,0,1-.483-3.929l-.013-.374c-.006-.174-.011-.348-.016-.516s-.011-.365-.018-.554c-.064-1.949-.035-4.079.091-6.514l.082-1.6c.172-3.383.346-7.315.239-11.171-.1-3.725-.4-7.807-.947-12.848-.245-2.262-.523-4.511-.786-6.6-.06-.477-.132-.975-.2-1.457h0a29.375,29.375,0,0,1-.4-4.045,7.975,7.975,0,0,1-2.052-.707,4.709,4.709,0,0,1-1.641-1.374,3.963,3.963,0,0,1-.777-2.079,3.478,3.478,0,0,1,.536-2.1,1.6,1.6,0,0,1-.336-1.232,1.918,1.918,0,0,1,.4-.86,3.611,3.611,0,0,1,.776-.719,4.662,4.662,0,0,1-1.773-2.1,9.357,9.357,0,0,1-.807-2.669,11.284,11.284,0,0,1-.1-1.946,6.547,6.547,0,0,1,.369-2.049,15.123,15.123,0,0,0-2.028.209,16.326,16.326,0,0,0-2.305.588l-.383.127c-.172.058-.4.136-.627.231a2.827,2.827,0,0,1,.282,2.6,3.521,3.521,0,0,1-1.133,1.431,5.011,5.011,0,0,1-1.79.863,11.689,11.689,0,0,1-1.307.254c-.651.09-1.319.14-1.965.188h0c-.339.025-.689.051-1.029.083-.573.053-1.157.113-1.722.171h-.01c-1.3.134-2.635.273-3.951.328h-.056a.784.784,0,0,1-.756-.447s-.006-.007-.006-.01a.581.581,0,0,1-.085-.228.087.087,0,0,0,.015.011l.006,0a1.068,1.068,0,0,1,.192-.813.967.967,0,0,1,.689-.385c1.591-.179,3.22-.261,4.8-.34h0c1.134-.057,2.306-.115,3.453-.21l.176-.015a4.763,4.763,0,0,0,2.558-.757,1.456,1.456,0,0,0,.551-.848,1.551,1.551,0,0,0-.114-.915.441.441,0,0,0-.011.046.108.108,0,0,1-.115.091.143.143,0,0,1-.12-.06.951.951,0,0,1-.158-.706,2.825,2.825,0,0,0-.67-.564,9.747,9.747,0,0,0-3.521-1.009l-.034-.005-.26-.041a38.483,38.483,0,0,0-4.149-.382c-.508-.024-1.026-.036-1.541-.036a37.036,37.036,0,0,0-6.618.619l-.019,0a.092.092,0,0,1-.091-.079.084.084,0,0,1,.062-.1,30.246,30.246,0,0,1,3.2-.869l-.014,0c-.02,0-.041-.007-.062-.013a.187.187,0,0,1-.115-.093.175.175,0,0,1-.016-.139.241.241,0,0,1,.017-.042.771.771,0,0,1-.437-.66.584.584,0,0,1,.342-.549,13.893,13.893,0,0,1,2.78-1.035c1-.27,2.058-.474,2.907-.639,1.948-.375,3.891-.625,5.535-.82.876-.1,1.792-.178,2.677-.25a30.132,30.132,0,0,0,6.886-1.1l.124-.042a5.837,5.837,0,0,0,1.818-.981,2.462,2.462,0,0,0,.961-1.75,1.373,1.373,0,0,0-.337-1.066,2.969,2.969,0,0,0-2.188-.608c-.47,0-.935.035-1.345.066-.225.017-.437.033-.615.04-3.809.145-7.548.413-11.114.8-.81.086-1.55.167-2.263.247-1.2.134-2.371.271-3.467.408-.53.066-1.08.151-1.611.233l-.017,0-.338.052a4.2,4.2,0,0,1-.613.106H104.5a.058.058,0,0,1-.031-.009,18.869,18.869,0,0,1-2.549.214c-.112,0-.222,0-.329-.005a.132.132,0,0,1-.118-.108.1.1,0,0,1,.057-.114,18.5,18.5,0,0,1,3.929-1.059,17.439,17.439,0,0,1,1.973-1.212h0c.251-.139.488-.271.716-.4.305-.178.618-.375.948-.584h0a12.414,12.414,0,0,1,2.807-1.465,8.03,8.03,0,0,1,1.859-1.082,1.587,1.587,0,0,1-.207-.97,2.015,2.015,0,0,1,.691-1.348,3.068,3.068,0,0,1,1.4-.658,7.281,7.281,0,0,1,1.109-.137.739.739,0,0,1,.315-.579l.062-.047.044-.035c.469-.381,1.379-1.349,1.2-1.911-.075-.238-.338-.374-.78-.4-.04,0-.081,0-.121,0a3.477,3.477,0,0,0-1.856.785h0c-.138.092-.267.179-.4.261a5.508,5.508,0,0,1-1.533.67,6.117,6.117,0,0,1-1.574.19,11.179,11.179,0,0,1-1.518-.116l-.764-.11-.127-.017a7.61,7.61,0,0,0-1-.078,2.832,2.832,0,0,0-1.218.232,2.048,2.048,0,0,0-.941.915c-.165.3-.306.6-.442.88a4.375,4.375,0,0,1-2.034,2.42,12.588,12.588,0,0,1-1.755.665,8.416,8.416,0,0,0-2.538,1.146A16.927,16.927,0,0,0,97.036,72.2c-.274.326-.557.663-.841.984a52.286,52.286,0,0,1-4.012,4.035c-1.27,1.154-2.693,2.356-4.35,3.673l-.528.418c-1.211.957-2.654,2.081-4.182,3.161A44.626,44.626,0,0,1,78.7,87.264a.142.142,0,0,1-.061.015.118.118,0,0,1-.1-.079.1.1,0,0,1,.028-.107c1.931-1.877,4.074-3.59,6.147-5.247,1.764-1.41,3.587-2.867,5.274-4.421,1.565-1.441,3.091-2.982,4.665-4.711.391-.431.775-.885,1.146-1.325h0a21.452,21.452,0,0,1,2.825-2.943,8.172,8.172,0,0,1,2.425-1.365c.278-.1.574-.184.859-.266h0a7.019,7.019,0,0,0,1.673-.637,2.659,2.659,0,0,0,.874-.868,8.043,8.043,0,0,0,.563-1.1,4.147,4.147,0,0,1,1.422-1.992,3.774,3.774,0,0,1,2.119-.545,13.394,13.394,0,0,1,1.851.174l.315.044.171.023a10.381,10.381,0,0,0,1.346.114,3.654,3.654,0,0,0,1.419-.253,7.479,7.479,0,0,0,1.218-.694,7.422,7.422,0,0,1,1.241-.7,3.688,3.688,0,0,1,1.391-.275,2.824,2.824,0,0,1,1.29.289,2,2,0,0,1,.918.952,2.1,2.1,0,0,1,0,1.818,4.6,4.6,0,0,1-1.175,1.493,4.055,4.055,0,0,1,1.73.684,1.97,1.97,0,0,1,.822,1.474c.865-.029,1.744-.06,2.594-.089h0l.279-.01c.922-.032,1.856-.073,2.759-.112h0c2.013-.088,4.095-.179,6.139-.179.388,0,.771,0,1.139.01a5.023,5.023,0,0,1-.114-1.048c0-.181.005-.377.021-.6a.621.621,0,0,1,.179-.413.684.684,0,0,1,.413-.179l.755-.08.253-.025c.5-.047.9-.069,1.258-.069a5.839,5.839,0,0,1,1.508.172,3.2,3.2,0,0,1,1.307.67,2.692,2.692,0,0,1,.7,1.12,2.035,2.035,0,0,1,.058,1.323,8.709,8.709,0,0,1,1.859.881,5.074,5.074,0,0,1,1.617-.263,5.622,5.622,0,0,1,1.849.322l.135.048a7.368,7.368,0,0,1,1.339.643,2.977,2.977,0,0,1,1.062,1.023c-.532-3.61-1.166-7.254-1.883-10.83s-1.539-7.186-2.44-10.718a40.187,40.187,0,0,0-4.391-8.052,36.117,36.117,0,0,0-2.706-3.363c-.9-1-1.891-2-3.018-3.05-2.093-1.952-4.362-3.795-6.556-5.577-1.453-1.18-2.955-2.4-4.391-3.64-.413.455-.852.892-1.276,1.314l-.012.011-.284.283-.218.219c-.96.973-2.024,1.973-3.251,3.059-1.986,1.756-4.1,3.426-6.138,5.04l-.011.008-1.069.846a85.567,85.567,0,0,0-6.976,6.113,56.077,56.077,0,0,0-6.064,7.006.126.126,0,0,1-.195,0,.086.086,0,0,1,0-.084,23.911,23.911,0,0,1,2.291-4.164A34.417,34.417,0,0,1,102.6,40.63,89.856,89.856,0,0,1,109.527,34l.107-.095.247-.22c.658-.586,1.331-1.179,1.983-1.752l.006-.005c1.83-1.61,3.721-3.274,5.5-5,1.222-1.185,2.282-2.3,3.241-3.4l.256-.3c.082-.1.175-.213.283-.349h0c.544-.685,1.367-1.72,2.127-1.72a1.048,1.048,0,0,1,.874.614,1.19,1.19,0,0,1,0,1.189,9.427,9.427,0,0,1-1.08,1.48c1.47.8,2.91,1.647,4.282,2.518a4.082,4.082,0,0,1,.014-1.372l.025-.15.1-.586a5.167,5.167,0,0,0,.1-1.262,2.593,2.593,0,0,0-.424-1.246,4.706,4.706,0,0,0-2.08-1.515c-.311-.149-.632-.3-.926-.477a5.25,5.25,0,0,1-1.426-1.232,10.022,10.022,0,0,1-1.013-1.6,6.291,6.291,0,0,0-2.731-2.545A20.467,20.467,0,0,0,115.4,13.6l-.3-.092a14.389,14.389,0,0,0-4.26-.729,8.615,8.615,0,0,0-2.46.341,21.073,21.073,0,0,0,.807,2.806,9.664,9.664,0,0,0,.428.944,4.387,4.387,0,0,1,.658,2.163,1.309,1.309,0,0,1-.367.777,1.079,1.079,0,0,1-.758.361.855.855,0,0,1-.529-.189,4.745,4.745,0,0,1-1.438-2.988l0-.014c-.021-.094-.042-.192-.064-.287a22.577,22.577,0,0,1-.508-3.6,18.89,18.89,0,0,1,.128-3.485l.11-.849.027-.2a5.47,5.47,0,0,1,.781-2.433.115.115,0,0,1,.092-.046.088.088,0,0,1,.089.07,7.518,7.518,0,0,1,.084,2.041c-.019.382-.038.776-.023,1.149a21.58,21.58,0,0,0,.327,2.957,8.677,8.677,0,0,1,4.079-.919,13.278,13.278,0,0,1,1.943.15c2.358.351,5.637,1.167,7.86,3.063a6.6,6.6,0,0,1,1.3,1.54c.115.184.22.377.321.564a3.932,3.932,0,0,0,1.067,1.4,9.48,9.48,0,0,0,1.564.859,8.131,8.131,0,0,1,1.815,1.053,5.011,5.011,0,0,1,1.244,1.571,5.472,5.472,0,0,1,.569,1.924,6.948,6.948,0,0,1-.18,2.068,2.607,2.607,0,0,0,.1,1.48,1.2,1.2,0,0,1-.518,1.266c.91.625,1.741,1.224,2.541,1.832a44.5,44.5,0,0,1,6.656,6.2,39.38,39.38,0,0,1,5.149,7.489l.069.134.08.161a67.741,67.741,0,0,1,2.733,6.529c.184.559.331,1.028.462,1.475.377,1.289.706,2.626.978,3.972l.072.365c.048.244.1.492.158.755a11.556,11.556,0,0,1,.376,2.894c.64,3.316,1.2,6.628,1.665,9.842a1.1,1.1,0,0,1-.376,1.015c.638.1,1.261.227,1.9.356l.364.077.182.04a5.678,5.678,0,0,1,3.447,1.819,3.2,3.2,0,0,1,.7,1.949,3.145,3.145,0,0,1-.685,1.955,4.3,4.3,0,0,1-1.411,1.167,7.622,7.622,0,0,1-1.72.634c-.247.062-.487.117-.714.163a.159.159,0,0,1-.033,0,.157.157,0,0,1-.15-.119.132.132,0,0,1,.069-.155l.254-.14.347-.19a5.605,5.605,0,0,0,2.34-1.958A2.023,2.023,0,0,0,155.07,75a2.419,2.419,0,0,0-1.247-1.392,8.963,8.963,0,0,0-2.831-.761l-.431-.068-.447-.074a15.068,15.068,0,0,0-2.417-.223,9.025,9.025,0,0,0-1.011.055,6.419,6.419,0,0,0-1.481.346,5.152,5.152,0,0,0-1.337.719l-.075.059-.077.065c-.414.359-1.161,1.2-1.026,1.826a.8.8,0,0,0,.636.564,9.607,9.607,0,0,0,2.457.257c.307.006.6.012.88.028l.139.008c.33.023.671.037,1,.051h0c.574.024,1.167.05,1.741.118a8.38,8.38,0,0,1,.962.165.71.71,0,0,1,.433.27.655.655,0,0,1,.114.427.9.9,0,0,1-.22.522.822.822,0,0,1-.53.279c-.176.019-.369.031-.592.036a4.993,4.993,0,0,1-1.349.627c-.168.059-.341.12-.5.184-.671.266-1.234.485-1.77.689.521.024,1.036.067,1.532.129a.132.132,0,0,1,.124.131.128.128,0,0,1-.124.127c-1.011.1-2.343.245-3.672.431a38.824,38.824,0,0,0-5.6,1.148,36.132,36.132,0,0,0-3.953,1.4L134,83.32l-.16.07-.227.1,0,0h0a14.489,14.489,0,0,0-1.745.847,3.856,3.856,0,0,0-1.37,1.265,2.306,2.306,0,0,0-.322,1.027,1.364,1.364,0,0,0,.312,1.008,2.842,2.842,0,0,0,2.062.551c.1,0,.213,0,.315.008l.059,0c.9.044,1.823.066,2.732.066.655,0,1.319-.012,1.975-.034a62.8,62.8,0,0,0,9.812-1.108.548.548,0,0,1,.1-.01.5.5,0,0,1,.487.457.412.412,0,0,1-.338.471,54.777,54.777,0,0,1-5.749,1.021,50.755,50.755,0,0,1-5.823.373h-.428a35.351,35.351,0,0,0-4.5,1.216l-.3.1c-.156.053-.331.105-.516.161a4.084,4.084,0,0,0-2.368,1.3c-.307.518-.268.936.116,1.241a2.825,2.825,0,0,0,1.232.46,9.036,9.036,0,0,0,1.248.124c1.531.057,3.1.086,4.656.086.912,0,1.842-.01,2.763-.03,1.261-.028,2.509-.074,3.708-.135.332-.017.678-.044,1.012-.07.6-.047,1.226-.1,1.831-.1.312,0,.593.012.86.038a.532.532,0,0,1,.476.493.426.426,0,0,1-.347.46,17.7,17.7,0,0,1-3.9.372h0c-.259.006-.527.012-.786.02l-.176.006c-1.5.054-3.044.081-4.6.081h-.347c-1.408-.005-2.835-.034-4.242-.086l-1.249-.05-.221-.01a5.331,5.331,0,0,1-1.936-.387,1.979,1.979,0,0,0-.185,1.5,3.006,3.006,0,0,0,.751,1.358,5.157,5.157,0,0,0,2.561,1.239c.077.017.168.037.26.055.639.13,1.291.217,1.921.3a12.912,12.912,0,0,1,4.083,1.011c.537.264,1.068.593,1.582.911a9.508,9.508,0,0,0,3.273,1.5,3.937,3.937,0,0,0,.673.06,3.076,3.076,0,0,0,1.672-.478,4.324,4.324,0,0,0,1.273-1.315h0c.043-.067.092-.142.137-.215.306-.494.578-1.019.841-1.526a18.888,18.888,0,0,1,1.022-1.809,6.955,6.955,0,0,1,1.268-1.483c.1-.083.452-.29.828-.51h0a9.85,9.85,0,0,0,1.207-.764c.66-.678.541-1.817.427-2.918a6.374,6.374,0,0,1-.032-1.8,4.063,4.063,0,0,1,1.471-2.188,7.185,7.185,0,0,0,1.07-1.17,1.937,1.937,0,0,0,.34-.878,2.153,2.153,0,0,0-.089-.87,7.424,7.424,0,0,0-.9-1.741c-.713-1.136-1.451-2.31-.81-3.568a.164.164,0,0,1,.065-.07.187.187,0,0,1,.089-.021.213.213,0,0,1,.154.064.158.158,0,0,1,.043.122,3.182,3.182,0,0,0,.348,1.645,10.383,10.383,0,0,0,.927,1.467,8.624,8.624,0,0,1,1.043,1.735,2.916,2.916,0,0,1,.228,1.241,2.615,2.615,0,0,1-.289,1.054,7.916,7.916,0,0,1-1.479,1.838l-.026.027-.09.093c-1,1.034-.9,2.147-.8,3.326a7.484,7.484,0,0,1-.007,2.007,2.687,2.687,0,0,1-.212.676,1.1,1.1,0,0,1,.516.819c.512,4.34,1.091,8.957,2.042,13.492l.2.948.268,1.264a56.215,56.215,0,0,1,1.408,9.569,38,38,0,0,1,.3,8.225,27.076,27.076,0,0,1-1.248,6.239,24.5,24.5,0,0,1-2.732,5.769,19.734,19.734,0,0,1-4.2,4.682,16.815,16.815,0,0,1-5.647,2.98,12.913,12.913,0,0,1-3.737.567,11.527,11.527,0,0,1-2.326-.235,9.639,9.639,0,0,1-2.527-.928c.06.645.095,1.175.11,1.67a1.2,1.2,0,0,1,.253,1.212Zm-3.682-50.639a29.851,29.851,0,0,1,.776,3.689v0c.061.364.124.741.188,1.1.367,2.057.669,4.116,1.01,6.575.6,4.312,1.008,8.627,1.212,12.827.212,4.351.086,8.7-.05,12.44l-.075,2.024c-.055,1.5-.11,3.239-.08,4.947a1.56,1.56,0,0,1,.241.038,3.223,3.223,0,0,1,1.273.781,4.65,4.65,0,0,0,.889.641,6.723,6.723,0,0,0,3.02.654,9.747,9.747,0,0,0,2.234-.27,13.826,13.826,0,0,0,5.284-2.578,16.726,16.726,0,0,0,2.169-2.018,18.234,18.234,0,0,0,1.8-2.356,21.037,21.037,0,0,0,2.7-6.407,28.546,28.546,0,0,0,.763-6.936,56.966,56.966,0,0,0-.606-7.768c-.333-2.322-.814-4.819-1.47-7.631l-.076-.325a98.2,98.2,0,0,1-1.388-9.928h0a23.331,23.331,0,0,0-.5-3.666l-.008,0c-1.526.9-2.507,2.772-3.295,4.272a14.866,14.866,0,0,1-.974,1.69c.025.142.048.286.071.426.053.328.107.667.189.984a23.58,23.58,0,0,0,1.019,3.044c.517,1.267,1.14,2.511,1.742,3.713v0c.224.448.456.91.679,1.368a40.063,40.063,0,0,1,1.813,4.165.835.835,0,0,0-.148.2,1.84,1.84,0,0,1-.468.616.806.806,0,0,1-.513.165,3.633,3.633,0,0,1-.765-.127l-.237-.054v0a37.37,37.37,0,0,0-1.588-3.86c-.188-.413-.383-.84-.569-1.261l-.182-.414-.18-.414a23.977,23.977,0,0,1-1.527-4.47,15.3,15.3,0,0,1-.311-3.023,4.061,4.061,0,0,1-2.032.9,3.659,3.659,0,0,1-.544.041,4.968,4.968,0,0,1-2.059-.5,16.71,16.71,0,0,1-1.893-1.068l-.009-.006-.316-.2-.325-.2a10.331,10.331,0,0,0-2.842-1.318,14.869,14.869,0,0,0-2.388-.328h0c-.4-.033-.813-.067-1.217-.117l-.023,0h0c-.133-.018-.271-.036-.408-.057Zm-5.391-17.984-.054.275a6.644,6.644,0,0,0-.138.972,8.006,8.006,0,0,0,.281,2.526,8.817,8.817,0,0,0,.974,2.321,7.97,7.97,0,0,0,.665.883,6.89,6.89,0,0,1,.746,1.023.665.665,0,0,1,.076.22c.161-.067.3-.119.435-.161a31.841,31.841,0,0,1,3.6-.921l-.194-.013-.125-.01c-1.6-.135-2.639-.541-3.177-1.24a2.026,2.026,0,0,1-.38-.843,3.093,3.093,0,0,1,.007-1.141,4.282,4.282,0,0,1,2.425-2.89l.142-.079c.066-.037.129-.07.186-.1-.484-.082-.9-.172-1.346-.268-.5-.108-1.015-.219-1.679-.33A16.334,16.334,0,0,0,126.362,82.283Zm-16.1-11.212c-.258.121-.514.238-.762.35h0c-.339.154-.659.3-.961.446l-.071.035h0l-.052.025c.593-.1,1.2-.2,1.8-.286a2.493,2.493,0,0,1,.051-.573h0Zm23.694-2.1a1,1,0,0,0-.537.214l-.034.034a.941.941,0,0,0-.248.6l.03.225a.849.849,0,0,0,.217.373l.171.132a.848.848,0,0,0,.37.114l.057,0h.171a1.023,1.023,0,0,0,.515-.214l.034-.034a.976.976,0,0,0,.248-.548v-.049l-.03-.225a.844.844,0,0,0-.18-.333l-.038-.04-.171-.132a.843.843,0,0,0-.37-.113l-.057,0h-.148Zm-4.808,1.367a2.762,2.762,0,0,1,.959.172.649.649,0,0,0,.226.04.9.9,0,0,0,.813-.63.794.794,0,0,0-.085-.637.985.985,0,0,0-.5-.4,3.86,3.86,0,0,0-1.34-.225,5.793,5.793,0,0,0-1.056.1.719.719,0,0,0-.474.341.909.909,0,0,0-.116.7.8.8,0,0,0,.32.456.92.92,0,0,0,.522.153,1.089,1.089,0,0,0,.153-.011l.044-.007A2.993,2.993,0,0,1,129.152,70.333ZM18.977,148.19a3.728,3.728,0,0,1-.458-.027l-.079-.011c-.331.023-.665.035-.993.035a13.134,13.134,0,0,1-2.047-.157,10.882,10.882,0,0,1-1.961-.494,7.742,7.742,0,0,1-3.262-2.14.95.95,0,0,1-.548.172,1.093,1.093,0,0,1-.675-.248A11.583,11.583,0,0,1,6.336,142.3a30.908,30.908,0,0,1-1.861-3.58,43.177,43.177,0,0,1-2.645-7.607,60.727,60.727,0,0,1-1.387-7.924A77.745,77.745,0,0,1,0,115.157,130.9,130.9,0,0,1,3.628,84.319,143.236,143.236,0,0,1,14.069,55.067c1.166-2.408,2.378-4.757,3.6-6.982,1.288-2.343,2.628-4.621,3.983-6.77A55.767,55.767,0,0,1,26.22,35c.858-1.015,1.747-1.973,2.643-2.848a34.971,34.971,0,0,1,2.94-2.57,40.072,40.072,0,0,1,3.7-2.551,2.943,2.943,0,0,1-1.257-2.465,10.364,10.364,0,0,1,1.369-6.387A10.729,10.729,0,0,1,39.081,15.1a17.328,17.328,0,0,1,4.328-1.756,23.016,23.016,0,0,1,4.65-.7c.106-.005.216-.008.338-.008.245,0,.5.011.739.022h.006c.243.011.493.021.737.021a5.715,5.715,0,0,0,.621-.03A2.189,2.189,0,0,0,52.042,11.6c.279-.381.534-.77.781-1.147a9.323,9.323,0,0,1,2.415-2.788,8.358,8.358,0,0,1,4.754-1.378c.194,0,.39.006.583.017a11.28,11.28,0,0,1,3.084.655,22.723,22.723,0,0,1,2.892,1.286c1.626.836,3.249,1.777,4.96,2.877.3-.692.575-1.394.831-2.087a40.889,40.889,0,0,0,1.29-4.154c.1-.393.166-.813.236-1.257A5.4,5.4,0,0,1,75.022.514,1.832,1.832,0,0,1,76.322,0a1.933,1.933,0,0,1,1.1.339,1.611,1.611,0,0,1,.656.983c.016.073.027.144.036.2a3.127,3.127,0,0,1,.088.848,1.332,1.332,0,0,1-.022.3,6.291,6.291,0,0,1-.224,1.036c-.225.775-.488,1.558-.781,2.326a26.22,26.22,0,0,1-2.1,4.337A22.663,22.663,0,0,1,72.5,13.821a25.861,25.861,0,0,1-3.15,2.917c.325.268.649.548.963.82h0l.315.272c1.97,1.7,3.979,3.546,5.969,5.5,3.526,3.457,6.912,6.917,10.063,10.284,1.4,1.5,2.924,3.165,4.783,5.24l.052.059.056.067c.074.089.159.2.249.31h0c.552.7,1.386,1.752,2.08,1.752a.632.632,0,0,0,.188-.028,2.586,2.586,0,0,0,.926-.8l0,0c.082-.1.159-.186.227-.256l.53-.553c.213-.224.375-.4.523-.559,3.131-3.432,6.072-6.984,8.741-10.558,1.334-1.786,2.637-3.626,3.875-5.469.638-.951,1.272-1.922,1.884-2.886.126-.2.248-.4.367-.6h0a7.25,7.25,0,0,1,1.587-2.046.932.932,0,0,1,.584-.214.808.808,0,0,1,.627.29.859.859,0,0,1,.163.724,8.141,8.141,0,0,1-1.457,2.911l0,0c-.146.216-.3.438-.438.657-.724,1.123-1.474,2.25-2.229,3.348-1.428,2.076-2.966,4.178-4.569,6.247-1.291,1.667-2.678,3.349-4.239,5.144l-.4.456c-.356.406-.715.823-1.063,1.227a53.993,53.993,0,0,1-3.779,4.095,2.779,2.779,0,0,1-3.4.566,5.032,5.032,0,0,1-1.265-.951c-1.182-1.188-2.327-2.459-3.433-3.689h0c-.567-.63-1.152-1.281-1.735-1.912-3.509-3.8-7.016-7.522-10.424-11.068l-1.154-1.2c-1.206-1.26-2.624-2.751-3.99-4.259l-.168-.188c-.251-.283-.5-.569-.755-.872a26.328,26.328,0,0,0-1.993-2.163,7.757,7.757,0,0,0-2.369-1.59.131.131,0,0,1-.087-.15.124.124,0,0,1,.125-.1l.031,0a8.3,8.3,0,0,1,3.537,1.749,41.871,41.871,0,0,0,2.525-4.9l-.472-.2a46.552,46.552,0,0,0-4.918-1.868,17.674,17.674,0,0,0-5.107-.852c-.264,0-.528.008-.784.025a7,7,0,0,0-2.184.5,5.118,5.118,0,0,0-1.845,1.249,9.586,9.586,0,0,0-1.225,1.838,11.672,11.672,0,0,1-.983,1.555,4.692,4.692,0,0,1-3.75,1.807l-.747.023a13.946,13.946,0,0,0-2.556.262,24.243,24.243,0,0,0-3.56,1.041,14.7,14.7,0,0,0-3.274,1.722,5.567,5.567,0,0,0-1.808,2,6.955,6.955,0,0,0-.477,2.512,4.376,4.376,0,0,0,.021.5,2.678,2.678,0,0,1-.017.832c0-.015.007-.022.01-.022s.007.017.008.049a1.52,1.52,0,0,1,.556,1.079,61.263,61.263,0,0,1,6.1-2.746c2.368-.924,4.815-1.661,7.106-2.319a44.053,44.053,0,0,1,4.735-.988c.8-.137,1.635-.279,2.446-.442a.3.3,0,0,1,.06-.006.227.227,0,0,1,.228.19.24.24,0,0,1-.161.274c-1.087.418-2.177.876-3.23,1.32h0c-1.378.58-2.8,1.18-4.236,1.694-2.751.986-5.2,1.961-7.5,2.979a43.944,43.944,0,0,0-13.072,8.435,43.471,43.471,0,0,0-4.932,5.816c-1.608,2.234-3.067,4.6-4.158,6.407-1.3,2.154-2.56,4.4-3.749,6.678-1.162,2.227-2.287,4.545-3.344,6.89A141.136,141.136,0,0,0,2.989,103.108c-.244,2.5-.41,4.992-.491,7.4-.085,2.5-.081,4.993.009,7.4a56.048,56.048,0,0,0,2.075,13.85,38.109,38.109,0,0,0,2.431,6.251c.475.95,1.034,1.867,1.574,2.754a31.273,31.273,0,0,1,1.875,3.389,1.145,1.145,0,0,1,.106.5,7.189,7.189,0,0,0,2.5,1.409,9.115,9.115,0,0,0,2.816.417,13.89,13.89,0,0,0,2.517-.248,20.965,20.965,0,0,0,2.524-.645,36.853,36.853,0,0,0,4.667-1.9c5.489-2.626,10.463-5.16,15.208-7.75,5.2-2.835,10.138-5.76,14.691-8.691,4.479-2.885,9-6.024,13.833-9.6,4.124-3.052,8.475-6.427,13.3-10.32a21.545,21.545,0,0,1-1.8-2.187,16.849,16.849,0,0,1-2.455-4.849,15.239,15.239,0,0,1-.651-3.119,16.784,16.784,0,0,1-.021-3.187l.053-.6a46.173,46.173,0,0,1,.822-5.977.041.041,0,0,1,.044-.036.054.054,0,0,1,.051.036A42.229,42.229,0,0,1,79.86,92.85h0a37.041,37.041,0,0,0,1.42,6.143,14.772,14.772,0,0,0,2.356,4.2,12.1,12.1,0,0,0,1.445,1.463,4.572,4.572,0,0,1,.15-.689l.055-.179a3.754,3.754,0,0,1,.272-.673c-.177-.051-.337-.1-.49-.161a.167.167,0,0,1-.105-.166.127.127,0,0,1,.105-.119,7.267,7.267,0,0,1,1.3-.167.92.92,0,0,1,.141-.011l.064,0c.138,0,.279-.006.431-.006.4,0,.8.014,1.183.028h0c.28.01.569.02.846.025,1.324.02,2.735.045,4.132.108.663.029,1.331.081,2.039.136,1.059.083,2.155.168,3.227.168a12.778,12.778,0,0,0,2.942-.3,12.925,12.925,0,0,0,3.461-1.459,27.8,27.8,0,0,0,3.111-2.151,28.147,28.147,0,0,0,3.705-3.7c.192-.217.391-.442.592-.666l-.293.044-.884.121a11.841,11.841,0,0,1-1.542.125,3.405,3.405,0,0,1-1.784-.4.411.411,0,0,1-.208-.4.476.476,0,0,1,.311-.4,3.246,3.246,0,0,1,1.133-.166c.27,0,.546.017.814.034h.008c.264.017.537.034.8.034.085,0,.163,0,.239-.005A14.3,14.3,0,0,0,113.1,93.4c.251-.052.5-.112.729-.18a5.113,5.113,0,0,0,1.678-.856,3.215,3.215,0,0,0,1.109-1.431,1.964,1.964,0,0,0,.091-.952,2.382,2.382,0,0,0-.44-1.021.087.087,0,0,1-.014-.087.122.122,0,0,1,.092-.067l.023,0a.107.107,0,0,1,.07.026A2.322,2.322,0,0,1,117.3,90.8a3.38,3.38,0,0,1-.486,1.539,3.756,3.756,0,0,1-1.119,1.2,6.121,6.121,0,0,1-1.715.776.737.737,0,0,1,0,.725A14.677,14.677,0,0,1,111.7,98a28.568,28.568,0,0,1-2.791,2.494,25.974,25.974,0,0,1-3.1,2.145,15.118,15.118,0,0,1-3.443,1.5,11.568,11.568,0,0,1-3.161.39,35.33,35.33,0,0,1-3.812-.279h0c-.533-.058-1.085-.119-1.617-.166-1.423-.125-2.91-.278-4.544-.467-.312-.036-.625-.064-.956-.095l-.3-.028a11.123,11.123,0,0,1,.813,1.3l.117.207a2.126,2.126,0,0,1,.112,1.88,2.089,2.089,0,0,1-1.377,1.236,1.751,1.751,0,0,1-.418.063,2,2,0,0,1-.644.738,1.608,1.608,0,0,1-.908.3,1.321,1.321,0,0,1-.43-.071,5.091,5.091,0,0,1-.982-.465c-2.4,2.109-4.942,4.223-7.555,6.282-2.509,1.977-5.154,3.96-7.861,5.892-4.962,3.541-10.06,6.936-15.154,10.091-5.191,3.215-10.506,6.259-15.8,9.049-2.56,1.35-4.95,2.562-7.308,3.707l-2.114,1.019a45.058,45.058,0,0,1-7.219,2.946,13.68,13.68,0,0,1-1.511.331.621.621,0,0,0-.006.134A5.834,5.834,0,0,1,18.977,148.19Zm-5.325-32.849a.082.082,0,0,1-.061-.028.086.086,0,0,1-.018-.07,4.154,4.154,0,0,1,1.086-2.25,7.986,7.986,0,0,1,2.024-1.537,44.576,44.576,0,0,1,4.82-2.241c.494-.206,1-.419,1.5-.633l.288-.125c3.778-1.648,7.923-3.387,13.046-5.473a.925.925,0,0,1-.071-.337l-.013,0a4.06,4.06,0,0,1,.4-1.846c.054-.142.111-.288.162-.434l.764-2.157c.4-1.136.779-2.3,1.142-3.427.1-.3.2-.608.295-.912.391-1.2.792-2.427,1.179-3.61l.024-.072L40.279,90l.219-.668c.116-.353.219-.718.328-1.1a11.076,11.076,0,0,1,1.093-2.852.154.154,0,0,1,.134-.072.18.18,0,0,1,.136.06.124.124,0,0,1,.027.1,11.541,11.541,0,0,1-.563,3.131c-.113.409-.219.8-.307,1.181l-.144.626c-.287,1.251-.584,2.545-.882,3.826l-.31,1.329c-.235,1.008-.505,2.18-.741,3.331-.069.338-.123.713-.18,1.11v0a13.815,13.815,0,0,1-.393,2.022c2.119-.857,4.275-1.724,6.36-2.562l.009,0,.108-.043c1.475-.593,3-1.206,4.5-1.81,3.15-1.271,6.364-2.538,9.472-3.764h0l.019-.007c1.328-.524,2.7-1.065,4.05-1.6,1.427-.565,2.873-1.163,4.271-1.741h0c3.024-1.251,6.152-2.545,9.287-3.584a.934.934,0,0,1,.3-.049,1.06,1.06,0,0,1,.968.878.993.993,0,0,1-.04.591.84.84,0,0,1-.438.444c-3.2,1.485-6.582,2.769-9.851,4.009-1.485.564-3.02,1.146-4.516,1.74l-6.907,2.743c-5.745,2.281-12.428,4.923-19.035,7.429-1.172.444-2.363.9-3.515,1.341h0c-3.107,1.189-6.32,2.418-9.5,3.557-.787.282-1.59.562-2.366.833h0c-1.276.446-2.6.906-3.883,1.386a10.561,10.561,0,0,0-2.536,1.279,5.335,5.335,0,0,0-1.025.954,4.073,4.073,0,0,0-.691,1.238A.076.076,0,0,1,13.653,115.341ZM38.83,79.624a.645.645,0,0,1-.623-.395,14.074,14.074,0,0,1-.835-4.632c-.04-.592-.081-1.2-.149-1.792-.257-2.208-.614-4.456-1.061-6.681A111.737,111.737,0,0,0,32.78,53.607l-.149-.457a.233.233,0,0,1,.026-.223.333.333,0,0,1,.267-.135.245.245,0,0,1,.228.138,60.591,60.591,0,0,1,2.652,6.251c.741,2.049,1.414,4.233,2,6.49.555,2.133,1.023,4.285,1.391,6.4l.123.718.07.39q.033.183.068.368l0,.014a26.43,26.43,0,0,1,.411,2.764,7.907,7.907,0,0,1-.2,2.718A.878.878,0,0,1,38.83,79.624Zm6.9-18.073a.637.637,0,0,1-.595-.348,27.762,27.762,0,0,1-1.811-5.214l-.01-.038-.1-.381c-.51-1.847-1.05-3.718-1.572-5.526l0-.009c-.346-1.2-.69-2.418-1.023-3.6l0-.007c-.178-.632-.363-1.286-.545-1.928-.1-.36-.21-.721-.325-1.1v0a20.982,20.982,0,0,1-1.01-4.552.2.2,0,0,1,.05-.152.228.228,0,0,1,.167-.067.248.248,0,0,1,.207.1A20.36,20.36,0,0,1,41.176,43.2c.087.242.177.492.268.738l.063.17c.731,1.965,1.358,3.744,1.917,5.437.231.7.48,1.417.72,2.112a37.311,37.311,0,0,1,2.338,9.184.6.6,0,0,1-.163.466A.814.814,0,0,1,45.729,61.551Zm42.716-9.769a1.08,1.08,0,0,1-.367-.069,28.33,28.33,0,0,1-3.925-1.781,33.678,33.678,0,0,1-3.611-2.3,48.848,48.848,0,0,1-6.434-5.7c-2.217-2.3-4.181-4.713-5.81-6.769-.994-1.254-1.81-2.3-2.57-3.292l-.506-.665c-.282-.372-.586-.75-.88-1.116a18.44,18.44,0,0,1-2.265-3.274.121.121,0,0,1,.009-.116.1.1,0,0,1,.084-.052.1.1,0,0,1,.056.019,17.753,17.753,0,0,1,2.758,2.585h0c.287.31.585.631.878.932,1.15,1.181,2.318,2.407,3.473,3.644.691.741,1.388,1.5,2.063,2.231l0,0c1.194,1.3,2.428,2.637,3.667,3.932a50.416,50.416,0,0,0,6.238,5.631,31.678,31.678,0,0,0,3.511,2.284,25.54,25.54,0,0,0,3.829,1.742,1.064,1.064,0,0,1,.611.525,1.2,1.2,0,0,1,.1.735,1.159,1.159,0,0,1-.3.611A.841.841,0,0,1,88.446,51.782Z" transform="translate(6.338 -2.61)"/>
  </g>
  <g id="HEAD" transform="translate(78.592 38.043)">
    <path id="_Skin-2" data-name="âœ‹ Skin" d="M73.169,31.749A41.971,41.971,0,0,0,60.411,10.116C40.314-9.8,3.407,1.009,3.574,31.026A39.957,39.957,0,0,0,2.8,41.712c.1,1.526.757,3.654-.128,5.027C.676,49.308-.484,51.2.2,54.618a8.366,8.366,0,0,0,5.326,6.22,5.58,5.58,0,0,1,3.8,3.064c3.648,6.7,6.351,12.266,12.1,16.83,1.484,1.175,16.707,8.222,21.722,8.222,14.684,0,33.191-5.332,33.5-21.775a87.878,87.878,0,0,0-.976-10.848C74.705,48.154,75.046,39.681,73.169,31.749Z" transform="translate(11.595 15.64)" fill="#d08b5b"/>
    <path id="_Ink-2" data-name="ðŸ– Ink" d="M50.414,92.608a17.108,17.108,0,0,1-5.083-.71,12.54,12.54,0,0,1-2.346-1,11.514,11.514,0,0,1-2.131-1.523,1.793,1.793,0,0,1-.585-1.032,2.1,2.1,0,0,1,.123-1.118,2.59,2.59,0,0,1,.786-1.08,1.907,1.907,0,0,1,1.189-.449,1.7,1.7,0,0,1,1.038.365,10.924,10.924,0,0,0,1.744,1.072,11.207,11.207,0,0,0,1.838.707,13.825,13.825,0,0,0,3.867.508,22.825,22.825,0,0,0,3.939-.374c1.137-.2,2.367-.477,3.872-.875l.153-.041a40.345,40.345,0,0,0,6.567-2.317,28.158,28.158,0,0,0,3.071-1.649,22.853,22.853,0,0,0,2.808-2.054,16.811,16.811,0,0,0,4.406-5.9,19.62,19.62,0,0,0,1.647-7.216,59.262,59.262,0,0,0-.43-8.588l-.032-.317c-.125-1.231-.254-2.48-.378-3.688-.206-2-.419-4.063-.619-6.1-.352-3.589-.561-6.352-.677-8.958l-.062-1.508c-.016-.387-.034-.786-.05-1.139-.117-2.636-.237-5.361-.123-8.009a.091.091,0,0,1,.093-.087.083.083,0,0,1,.082.064c.367,1.305.632,2.65.888,3.951.125.635.254,1.292.394,1.939.494,2.279.84,4.043,1.122,5.719.53,3.145,1.039,6.6,1.6,10.875l.119.909c.137,1.058.292,2.143.442,3.193.767,5.373,1.561,10.928.56,16.3a18.942,18.942,0,0,1-3.163,7.42,24.857,24.857,0,0,1-5.711,5.736,33.4,33.4,0,0,1-6.83,3.812,44.063,44.063,0,0,1-7.47,2.349c-1.142.254-2.246.451-3.282.585A26.465,26.465,0,0,1,50.414,92.608Zm-27.256-9.78a1.073,1.073,0,0,1-.419-.087,5.368,5.368,0,0,1-1.722-1.251,19.378,19.378,0,0,1-1.429-1.713l0,0c-.178-.231-.346-.449-.516-.66L19,79.029a35.4,35.4,0,0,1-2.938-4.239l-.29-.489a46.694,46.694,0,0,1-4.2-8.445,1.566,1.566,0,0,1-.214.186,2.885,2.885,0,0,1-1.712.5,5.959,5.959,0,0,1-1.751-.3,13.081,13.081,0,0,1-1.6-.637,10.737,10.737,0,0,1-3.64-2.768,11.67,11.67,0,0,1-1.387-2.024,10.794,10.794,0,0,1-.9-2.235A10.136,10.136,0,0,1,0,56.2a9.985,9.985,0,0,1,.227-2.448,10.706,10.706,0,0,1,1.808-3.96,10.244,10.244,0,0,1,3.241-2.929,10.183,10.183,0,0,1-1.965-4.92,30.059,30.059,0,0,1-.379-6.861,35.511,35.511,0,0,1,1.005-6.76,41.079,41.079,0,0,1,2.2-6.472,36.169,36.169,0,0,1,6.6-10.134A35.759,35.759,0,0,1,17.2,7.634a34.916,34.916,0,0,1,5.117-3.271A38.624,38.624,0,0,1,46.138.467,33.4,33.4,0,0,1,51.859,1.9a34.975,34.975,0,0,1,5.37,2.388,36.365,36.365,0,0,1,4.91,3.244,37.109,37.109,0,0,1,4.341,4,38.488,38.488,0,0,1,3.636,4.559A29.235,29.235,0,0,1,72.9,21.211a27.919,27.919,0,0,1,.972,2.719,22.453,22.453,0,0,1,.65,2.814,23.2,23.2,0,0,1,.343,2.984,8.213,8.213,0,0,1-.1,1.337,8.209,8.209,0,0,0-.105,1.376.115.115,0,0,1-.032.086.138.138,0,0,1-.1.04.119.119,0,0,1-.121-.091,7.4,7.4,0,0,0-.71-1.686,11.025,11.025,0,0,1-.539-1.131c-.3-.772-.644-1.529-.943-2.177l-.285-.616c-.8-1.731-1.762-3.416-2.693-5.046l-.1-.17a37.206,37.206,0,0,0-3.352-4.908,36.8,36.8,0,0,0-4.093-4.306,33.089,33.089,0,0,0-8.736-5.621,31.907,31.907,0,0,0-4.918-1.7A30.363,30.363,0,0,0,42.9,4.266c-.883-.069-1.781-.1-2.668-.1A34.619,34.619,0,0,0,30.881,5.45a33.717,33.717,0,0,0-8.658,3.8,32.109,32.109,0,0,0-13.23,16.58,36.733,36.733,0,0,0-2.05,10.69,49.062,49.062,0,0,0,.124,5.557l.064.88a14.186,14.186,0,0,1-.03,3.136A8.2,8.2,0,0,1,9.54,45.7a6.915,6.915,0,0,1,1,.073,4.229,4.229,0,0,1,3.552,2.524.091.091,0,0,1,0,.09.089.089,0,0,1-.076.043.1.1,0,0,1-.044-.011,3.345,3.345,0,0,0-1.486-.286A9.69,9.69,0,0,0,7.2,49.843a8.76,8.76,0,0,0-2.258,2.243,7.16,7.16,0,0,0-1.2,2.942,5.816,5.816,0,0,0-.034,1.538,6.464,6.464,0,0,0,.348,1.488,7.4,7.4,0,0,0,1.619,2.59,8.763,8.763,0,0,0,1.195,1.044,7.019,7.019,0,0,0,1.38.781,9.446,9.446,0,0,0,1.3.409,5.327,5.327,0,0,1,2.1.893,1.109,1.109,0,0,1,.433.948,1.767,1.767,0,0,1-.381.99c1.115,1.226,2.184,2.531,3.218,3.793h0c1.015,1.239,2.064,2.52,3.157,3.727.928,1.024,2,2.219,3.02,3.427l.366.439c.272.33.585.659.916,1.008a8.068,8.068,0,0,1,2.07,2.919,1.416,1.416,0,0,1-.265,1.23A1.324,1.324,0,0,1,23.158,82.828ZM13.813,59.892a1.3,1.3,0,0,1-.74-.22,1.492,1.492,0,0,1-.542-.733l-.023-.064a5.325,5.325,0,0,0-1.045-1.743,1.434,1.434,0,0,1-.55.515.583.583,0,0,1-.257.058.461.461,0,0,1-.484-.36,1.634,1.634,0,0,1,.226-1.163l.03-.044A9.113,9.113,0,0,0,8.717,55.05a6.893,6.893,0,0,0-1.77-.6.109.109,0,0,1-.085-.113.111.111,0,0,1,.085-.116,10.59,10.59,0,0,1,1.969-.21,6.012,6.012,0,0,1,2.47.5,7.847,7.847,0,0,1,2.1,1.371,13.492,13.492,0,0,1,1.683,1.865,1.131,1.131,0,0,1,.154,1.235A1.745,1.745,0,0,1,13.813,59.892Z" transform="translate(9.487 13.738)"/>
  </g>
  <g id="FACE" transform="translate(112.183 77.354)">
    <path id="_Ink-3" data-name="ðŸ– Ink" d="M22.824,40.539a8.045,8.045,0,0,1-3.052-.61,8.621,8.621,0,0,1-1.992-1.145,8.487,8.487,0,0,1-1.622-1.636,1.676,1.676,0,0,1-.338-1.3,1.871,1.871,0,0,1,.728-1.172,1.793,1.793,0,0,1,1.067-.372,1.548,1.548,0,0,1,.238.018,1.648,1.648,0,0,1,1.1.73l.065.09A5.7,5.7,0,0,0,21.108,36.9a4.735,4.735,0,0,0,2.069.483,4.583,4.583,0,0,0,.513-.029,5.388,5.388,0,0,0,2.278-.8,10.668,10.668,0,0,0,1.93-1.611c.138-.141.284-.294.474-.5a.751.751,0,0,1,.394-.3.806.806,0,0,1,.256-.041.871.871,0,0,1,.714.373.8.8,0,0,1,.135.524,4.812,4.812,0,0,1-.57,1.864,6.221,6.221,0,0,1-1.22,1.567,7.841,7.841,0,0,1-1.847,1.288,7.69,7.69,0,0,1-2.05.7A7.548,7.548,0,0,1,22.824,40.539Zm2.148-12.17h0a7.373,7.373,0,0,1-2.63-.53,13.281,13.281,0,0,1-3.093-1.756,1.189,1.189,0,0,1-.432-.687,1.423,1.423,0,0,1,.061-.771,1.754,1.754,0,0,1,.521-.753,1.267,1.267,0,0,1,.812-.317,1.151,1.151,0,0,1,.628.193l.209.161,0,0a16.744,16.744,0,0,0,1.936,1.347,4.768,4.768,0,0,0,2.321.74,2.505,2.505,0,0,0,.981-.193,2.74,2.74,0,0,0,.913-.647,2.8,2.8,0,0,0,.531-2.255,4.26,4.26,0,0,0-1.13-2,8.241,8.241,0,0,0-1.711-1.381.531.531,0,0,1-.144-.61.8.8,0,0,1,.264-.38.809.809,0,0,1,.505-.167,1.076,1.076,0,0,1,.181.016,5.736,5.736,0,0,1,2.018.729,4.577,4.577,0,0,1,1.357,1.252,4.974,4.974,0,0,1,.866,3.322,5.475,5.475,0,0,1-.444,1.744,5.087,5.087,0,0,1-1,1.5A4.779,4.779,0,0,1,24.972,28.369ZM7.859,16.485a1.724,1.724,0,0,1-1.119-.439,1.744,1.744,0,0,1-.587-1.128,12.706,12.706,0,0,1,.067-3.308c.04-.321.081-.654.11-1.012a1.98,1.98,0,0,1,.75-1.415,2.31,2.31,0,0,1,1.421-.5,1.751,1.751,0,0,1,1.075.338,1.594,1.594,0,0,1,.594,1.057,8.877,8.877,0,0,1-.926,5.469,1.754,1.754,0,0,1-.619.716A1.427,1.427,0,0,1,7.859,16.485Zm25.119-.75a1.508,1.508,0,0,1-1.183-.507A4.624,4.624,0,0,1,31.074,14a5.342,5.342,0,0,1-.368-1.477,3.131,3.131,0,0,1,.853-2.687,1.772,1.772,0,0,1,.137-.208,1.933,1.933,0,0,1,1.487-.856,1.611,1.611,0,0,1,.452.067,2.175,2.175,0,0,1,1.453,1.268,4.486,4.486,0,0,1,.18,2.453,8.214,8.214,0,0,1-.744,2.314,1.5,1.5,0,0,1-.643.635A1.947,1.947,0,0,1,32.979,15.735ZM.278,7.854a.274.274,0,0,1-.229-.14.306.306,0,0,1-.018-.3A10.425,10.425,0,0,1,2.368,4.454,14.446,14.446,0,0,1,5.5,2.317a13.445,13.445,0,0,1,3.714-1.3l.4-.069A9.66,9.66,0,0,1,11.226.776a2.5,2.5,0,0,1,2,.746,1.7,1.7,0,0,1,.4,1.208,1.106,1.106,0,0,1-.4.789,3.08,3.08,0,0,1-2.112.62c-.166,0-.338,0-.5-.008H10.6c-.16,0-.341-.009-.521-.009s-.314,0-.452.012a14.274,14.274,0,0,0-3.143.536A21.357,21.357,0,0,0,.424,7.806.26.26,0,0,1,.278,7.854Zm38.247-1.6h0l-.167-.042A9.458,9.458,0,0,1,36.524,5.5l-.6-.293A16.537,16.537,0,0,0,33.8,4.3a25.089,25.089,0,0,0-4.845-1.07,1.979,1.979,0,0,1-.972-.369,1.457,1.457,0,0,1-.544-.828A1.482,1.482,0,0,1,27.609.786a1.581,1.581,0,0,1,.767-.661A1.725,1.725,0,0,1,29.03,0a1.926,1.926,0,0,1,.377.038l.3.062a21.676,21.676,0,0,1,5.232,1.7,10.579,10.579,0,0,1,2.3,1.514,6.719,6.719,0,0,1,1.627,2.1c.057.439,0,.548-.055.622L38.8,6.06l-.015.02a.421.421,0,0,1-.26.173Z" transform="translate(11.197 10.99)"/>
  </g>
  <g id="FACIAL_HAIR" data-name="FACIAL HAIR" transform="translate(104.577 109.479)">
    <path id="_Background" data-name="ðŸŽ¨ Background" d="M25.141.185c-2.963-.5-6.042.239-8.9,1.026C11.7-1.77,5.822,1.239,2.572,4.964,1.459,5.88-.877,7.1.354,8.846c-.467,1.236-.591,1.818.374.373,5.465.629,11.329-.56,16.738-1.681,1.842.62,3.468,2.068,5.492,1.572,1.914.407,3.986.787,5.714-.441,1.316-.053,4.243,2.31,4.2-.438C32.462,5.6,27.239,1.211,25.141.185Z" transform="translate(26.696 6.752)" fill="#e8e1e1"/>
    <path id="_Ink-4" data-name="ðŸ– Ink" d="M.74,12.562h0c-.474,0-.723-.223-.739-.664a2.947,2.947,0,0,1,.258-1.121A11.138,11.138,0,0,1,1,9.295,30.4,30.4,0,0,1,3.4,5.867a33.112,33.112,0,0,1,2.674-3,4.536,4.536,0,0,1,1.831-1.33A11.107,11.107,0,0,1,10.584.354,9.228,9.228,0,0,1,13.139,0,12.34,12.34,0,0,1,16.09.39a28.322,28.322,0,0,1,3.09.984,2.809,2.809,0,0,0,.34.02A6.877,6.877,0,0,0,21.715.876a9.185,9.185,0,0,1,1.649-.47,9.9,9.9,0,0,1,1.383-.1,9.665,9.665,0,0,1,4.14.945,13.114,13.114,0,0,1,3.483,2.46,20,20,0,0,1,2.791,3.412,26.458,26.458,0,0,1,2.064,3.8.8.8,0,0,1-.032.788.754.754,0,0,1-1.184.15,4.524,4.524,0,0,0-1.54-.727,6.63,6.63,0,0,0-1.7-.2,22.852,22.852,0,0,0-2.744.234l-.175.022a26.343,26.343,0,0,1-3.266.255,12.249,12.249,0,0,1-3.22-.4A11.861,11.861,0,0,1,19.9,9.463a4.642,4.642,0,0,1-1.516.8,9.993,9.993,0,0,1-1.956.414,41.429,41.429,0,0,1-4.786.178,49.161,49.161,0,0,0-5.5.21,12.71,12.71,0,0,0-4.926,1.439A2.293,2.293,0,0,1,.74,12.562ZM14.02,1.5A10.269,10.269,0,0,0,7.5,3.743a14.746,14.746,0,0,0-2.611,2.7A24.3,24.3,0,0,0,2.64,10.082,33.971,33.971,0,0,1,12.626,9.03c.689,0,1.4-.009,2.1-.022l.191,0c.146,0,.3,0,.468.006h.026c.191,0,.363.006.542.006,1.176,0,2.444-.125,2.924-1.05a.691.691,0,0,1,.632-.4.8.8,0,0,1,.087,0,.708.708,0,0,1,.322-.078.808.808,0,0,1,.463.157,11.652,11.652,0,0,0,3.5,1.636,14.1,14.1,0,0,0,3.814.5,16.978,16.978,0,0,0,1.86-.1c.286-.032.582-.069.869-.1a22.141,22.141,0,0,1,2.7-.225,7.389,7.389,0,0,1,1.722.182,18.811,18.811,0,0,0-1.777-2.948A15.747,15.747,0,0,0,30.7,4.015a11.141,11.141,0,0,0-2.858-1.827,8.244,8.244,0,0,0-3.27-.694,8.132,8.132,0,0,0-1.975.248c-.1.008-.555.159-1.079.333a13.892,13.892,0,0,1-2.117.611c-.042,0-.067-.008-.072-.024s.023-.063.093-.12A19.083,19.083,0,0,0,16.6,1.755,13.741,13.741,0,0,0,14.02,1.5Z" transform="translate(24.507 5.707)"/>
  </g>
  <g id="ACCESORIES" transform="translate(88.521 88.978)">
    <path id="_Ink-5" data-name="ðŸ– Ink" d="M39.146,24.884h0A13.261,13.261,0,0,1,32.083,22.8a9.353,9.353,0,0,1-2.925-3,8.643,8.643,0,0,1-1.165-3.494,11.388,11.388,0,0,1,.383-4.253,3.852,3.852,0,0,1-1.125.148,5.49,5.49,0,0,1-1.64-.248,2.351,2.351,0,0,1-1.183-.732c-2.291-.2-4.606-.48-6.844-.754A102.858,102.858,0,0,0,5.125,9.452c-1,0-1.977.029-2.914.088a.655.655,0,0,0-.593.4,1.719,1.719,0,0,0-.034.7,1.725,1.725,0,0,1-.033.693.649.649,0,0,1-.586.4,1.011,1.011,0,0,1-.948-.964,2.57,2.57,0,0,1,.244-1.39,1.783,1.783,0,0,1,.879-.945c.419-.3,1.7-.459,3.69-.459a83.676,83.676,0,0,1,9.582.7A81.5,81.5,0,0,1,24.53,10.493a3.572,3.572,0,0,1,2-.479,14.514,14.514,0,0,1,1.889.166c.2.027.394.052.573.073a12.677,12.677,0,0,1,1.591-2.785,15.625,15.625,0,0,1,2.441-2.6,12.519,12.519,0,0,1,3.037-1.922,8.442,8.442,0,0,1,3.378-.75,7.04,7.04,0,0,1,1.135.092,15.639,15.639,0,0,1,3.286.52,10.275,10.275,0,0,1,2.865,1.272,8.728,8.728,0,0,1,2.3,2.194A11.025,11.025,0,0,1,50.6,9.561a8.115,8.115,0,0,1,2.7-1.578,9.576,9.576,0,0,1,3.2-.561,7.057,7.057,0,0,1,3.61.906,13.526,13.526,0,0,1,3.144-4.46,12.513,12.513,0,0,1,4.721-2.751A5.715,5.715,0,0,1,71.322,0a6.2,6.2,0,0,1,2.6.6,8.835,8.835,0,0,1,2.33,1.6,11.3,11.3,0,0,1,1.866,2.3,11.131,11.131,0,0,1,1.212,2.683A2.557,2.557,0,0,1,80.441,6.7a5.865,5.865,0,0,1,1.2-.12,1.123,1.123,0,0,1,.66.354.756.756,0,0,1,.184.563c-.038.4-.426.812-1.207.812a4.063,4.063,0,0,1-1.757-.5,15.085,15.085,0,0,1,.28,6.261,10.375,10.375,0,0,1-2.044,4.583,10.251,10.251,0,0,1-1.847,1.81,11.08,11.08,0,0,1-2.194,1.294A12.174,12.174,0,0,1,68.8,22.8h0a11.736,11.736,0,0,1-2.292-.224,10.594,10.594,0,0,1-2.158-.672,9.3,9.3,0,0,1-1.92-1.122,8.381,8.381,0,0,1-1.579-1.573,8.673,8.673,0,0,1-1.668-4.051,13.681,13.681,0,0,1,.451-5.572,16.889,16.889,0,0,0-3.929-.5,10.936,10.936,0,0,0-4.917,1.083,11.3,11.3,0,0,1,.418,2.69,11.02,11.02,0,0,1-.225,2.594,11.306,11.306,0,0,1-.8,2.424,11.79,11.79,0,0,1-1.309,2.18,12.182,12.182,0,0,1-9.718,4.827ZM40.5,3.818h0a15.239,15.239,0,0,0-5.324,1.063,13.487,13.487,0,0,0-4.32,4.911,12.475,12.475,0,0,0-1.127,3.052,9.55,9.55,0,0,0-.2,3.1,7.221,7.221,0,0,0,1.475,3.715,8.845,8.845,0,0,0,3.832,2.726,10.98,10.98,0,0,0,2.059.608,11.294,11.294,0,0,0,2.122.2,11.122,11.122,0,0,0,4.668-1.02,10.19,10.19,0,0,0,2.043-1.261,9.7,9.7,0,0,0,1.7-1.748A10.3,10.3,0,0,0,49.5,13.885a10.152,10.152,0,0,0-.109-2.735A9.5,9.5,0,0,0,48.562,8.6a8.7,8.7,0,0,0-1.28-1.911A8.246,8.246,0,0,0,45.5,5.174a8.573,8.573,0,0,0-2.266-1A10.17,10.17,0,0,0,40.5,3.818Zm30.275-2.33a.118.118,0,0,0-.052.01,10.3,10.3,0,0,0-2.009.519c-.356.118-.691.229-.991.3A12.5,12.5,0,0,0,62.56,6.956,12.011,12.011,0,0,0,60.514,13.5a8.049,8.049,0,0,0,.3,2.1,6.98,6.98,0,0,0,.881,1.923,8.078,8.078,0,0,0,3.744,2.951,9.093,9.093,0,0,0,1.766.53,9.7,9.7,0,0,0,1.839.175,9.887,9.887,0,0,0,3.613-.685,9.06,9.06,0,0,0,1.628-.844A8.329,8.329,0,0,0,75.7,18.484a7.95,7.95,0,0,0,1.621-2.335,10.771,10.771,0,0,0,.858-2.871,12.957,12.957,0,0,0-.526-6.139,10.548,10.548,0,0,0-.973-2.081,8.451,8.451,0,0,0-1.392-1.73,7.047,7.047,0,0,0-1.806-1.244,6.935,6.935,0,0,0-2.215-.625.5.5,0,0,1-.234.055.9.9,0,0,1-.142-.013l-.016,0A.646.646,0,0,0,70.777,1.487ZM28.835,10.635h0l-.106.047h0L28.7,10.7l.012,0,.012,0a.27.27,0,0,1,.047.03l.021.015c.008-.022.017-.044.025-.065v0l.019-.047Z" transform="translate(2.957 1.691)"/>
  </g>
</svg>
