<svg id="peep-100" xmlns="http://www.w3.org/2000/svg" width="240" height="324" viewBox="0 0 240 324">
  <g id="BODY" transform="translate(31.056 135.053)">
    <path id="_Skin" data-name="âœ‹ Skin" d="M10.07,157.667c27.6,4.194,55.7,4.4,83.533,2.882a194.276,194.276,0,0,1,33.068.081c6.5.484,35.016,2.664,37.345-3.163-1.466-31.027-4.436-62.319-13.546-92.159-3.746-10.6-6.964-19.39-14.276-28.158-2.3-2.394-7.274-7.415-10.122-9.052-2.467-1.418-3.5-.912-4.915-3.308-1.408-2.647-2.446-7.067-4.445-8.934-2.035-1.9-5.051-1.221-8.79-.609.687-9.285-3.6-11.649-9.5-13.415C88.049-2.129,77.8-.14,75.193,12.494c-4.841,0-7.561,2.084-10.5,4.087-1.2.819-.366,2.9-1.8,3.548-2.656.946-7.349.714-9.907,1.879C41.355,27.3,31,34.979,24.2,46.192,8.946,70.131-1.529,120.558.283,148.931c-.794,1.246.3,3.032.583,4.372a2.55,2.55,0,0,0,2.684,1.808C5.213,156.9,7.783,157.3,10.07,157.667Z" transform="translate(6.338 -6.763)" fill="#d08b5b"/>
    <path id="_Top" data-name="ðŸ‘• Top" d="M67.493,2.777A9.532,9.532,0,0,1,74.385,0l.118,0,.857.038-.573,2.812-.029.133-.117.488-.156.639-.055.235-.058.26-.027.125-.026.123-.244,1.195.046.106-.013.271c-.038.981.173,1.521.639,1.694l.037.013.266.085.217.47c.5,1.076.964,2.016,1.442,2.9a65.207,65.207,0,0,0,4.971,7.755q2.731,3.7,5.689,7.049c.887,1,1.823,2.012,2.82,3.039l.858.879.273.276.184.183.229.224.33.315.239.235.078.074a1.77,1.77,0,0,0,.241.2l.025.016.075.045L96.7,36.065l1.405.773.667.37.135-.269.027-.086,1.479-3.248.9-1.989c1.853-4.093,3.295-7.349,4.613-10.449l.164-.387.486-1.154.257-.615c1.178-2.825,2.049-5.005,2.828-7.124l.111-.3.164-.453.244-.683.044-.117c.212-.542-.308-2.512-.82-3.591l-.029-.06-.133-.267-.144-.282a9.764,9.764,0,0,1-.79-2.283q-.05-.216-.094-.434l-.043-.22-.027-.144-.038-.2-.054-.289,1.146-.192.629-.1.274-.043c.355-.055.671-.1.969-.138l.111-.014.2-.024.007.039.409.04.3.031a29.571,29.571,0,0,1,3.467.526l.081.019.146.037.067.018a3.119,3.119,0,0,1,1.773,1.273,7.362,7.362,0,0,1,.834,1.654l.115.287.381.942q.067.172.207.55l.323.88,1.62,4.475,1.658.872c.771.4,1.334.694,1.612.832l.1.048.071.032.571.227-.061.178.069.039c6.824,3.927,12.087,9.969,16.185,17.989l.124.244.127.252c3.266,6.533,5.605,13.824,7.889,23.557l.141.605.111.481.6,2.6c2.238,9.807,3.775,17.121,5.048,24.3l.083.468.212,1.219q2.4,13.932,4.007,27.606l.178,1.534c.447,3.916.85,7.964,1.288,12.825l.059.653.193,2.183q.308,3.529.563,7.044l.083,1.171.171,2.546.1,1.451.012.2.041.756.011.177c.015.227.033.419.055.6l.017.13.019.127a3.134,3.134,0,0,0,.353,1l.048.087.317.567-.575.3c-3,1.58-8.9,2.275-17,2.311h-.752c-3.934,0-8.1-.154-12.454-.413l-.984-.06-.821-.052-1.055-.071-.548-.038-2.288-.167a192.825,192.825,0,0,0-32.972-.079c-31,1.7-57.758.981-82.908-2.775l-.762-.115-.561-.091-.335-.056c-2.668-.456-4.343-1.04-5.65-2.265l-.068-.065-.057-.056H3.352a3.194,3.194,0,0,1-2.968-2.137l-.023-.068-.029-.095-.02-.094c-.021-.091-.047-.19-.078-.3l-.025-.083L0,140.267l.7-.128A.3.3,0,0,0,.884,140l.058-.083.1-.14.244-.334a2.671,2.671,0,0,0,.451-.823,3,3,0,0,0,.071-.827l0-.177-.028-.642c0-.052,0-.1,0-.14v-.969l0-.994c0-.434,0-.857.007-1.272l.006-.618.006-.5q.051-4.13.242-8.251.375-8.044,1.285-16.051A242.17,242.17,0,0,1,9.1,76.164l.262-1.031a173.453,173.453,0,0,1,9-27.4c4.4-10,9.759-18.234,16.51-24.814a54.356,54.356,0,0,1,12.19-9.015,52.993,52.993,0,0,1,6.434-2.893l.328-.122.53-.194.406-.15,1.309-.489c.275-.1.575-.219.929-.358l.219-.087,2.345-.936.389-.153.433-.168.318-.122c.52-.2.991-.372,1.429-.524l.258-.089.235-.079,1-.346-.02.911A1.757,1.757,0,0,0,64.094,9.5l.012.01.012.01.011.007.061,0h.236a.412.412,0,0,0,.069-.047c.337-.286.493-.669.645-1.549l.04-.245.07-.458.028-.173a4.984,4.984,0,0,1,.361-1.333,7.848,7.848,0,0,1,.961-1.6L66.689,4l.36-.433L67.1,3.5a1.091,1.091,0,0,0,.218-.381l.006-.028.036-.182Z" transform="translate(6.338 4.851)" fill="#ffcf77"/>
    <path id="_Ink" data-name="ðŸ– Ink" d="M165.324,152.975a1.642,1.642,0,0,1-1.347-.714l-.164-.252a4.681,4.681,0,0,1-.8-1.842,13.807,13.807,0,0,1-.131-1.492c-.011-.213-.022-.433-.038-.647-.052-.724-.1-1.454-.148-2.16v-.017c-.038-.565-.076-1.149-.117-1.723-.19-2.714-.407-5.474-.645-8.2-.739-8.463-1.242-13.084-1.6-16.165-1.078-9.347-2.465-18.963-4.12-28.583-1.638-9.518-3.714-18.89-5.714-27.6l-.218-.948c-1.111-4.828-2.146-8.723-3.255-12.258A82.79,82.79,0,0,0,142.3,38.358a56.684,56.684,0,0,0-3.135-5.556,45.354,45.354,0,0,0-3.772-5.062,38.288,38.288,0,0,0-4.5-4.425,35.1,35.1,0,0,0-5.314-3.644.131.131,0,0,1-.07-.152.155.155,0,0,1,.22-.1,38.64,38.64,0,0,1,10.854,7.7,49.594,49.594,0,0,1,8.029,10.664A74.006,74.006,0,0,1,150.2,50.534c1.584,4.646,2.831,9.389,3.843,13.415l.081.323c2.186,8.727,4.237,18.193,6.271,28.938.908,4.8,1.757,9.765,2.522,14.769.736,4.813,1.419,9.807,2.028,14.846.656,5.423,1.159,10.245,1.536,14.74.206,2.459.4,4.944.562,7.385.078,1.138.137,2.077.185,2.956l.039.74c.005.106.012.214.018.318a5.523,5.523,0,0,1-.071,1.687,6.247,6.247,0,0,1-.568,1.335c-.044.085-.094.181-.142.276A1.282,1.282,0,0,1,165.324,152.975Zm-129.375-.492a1.11,1.11,0,0,1-.7-.274l-.132-.1-.093-.073,0,0a3.112,3.112,0,0,1-.992-1.069,6,6,0,0,1-.513-2.367l0-.02c-.076-.948-.056-1.921-.036-2.862.006-.3.013-.608.016-.914.025-2.5.061-5.038.1-7.551.177-10.1.526-19.149,1.066-27.675.288-4.539.674-8.918,1.148-13.016l.1-.81c.073-.615.144-1.24.212-1.843.075-.661.152-1.344.234-2.021A28.466,28.466,0,0,1,30.237,86a.181.181,0,0,1-.02-.194.167.167,0,0,1,.144-.1.16.16,0,0,1,.115.054,22.236,22.236,0,0,0,2.865,2.5,23.967,23.967,0,0,0,3.225,1.98A36.937,36.937,0,0,1,38.4,82.3a.215.215,0,0,1,.2-.134.16.16,0,0,1,.163.134,38.843,38.843,0,0,1,.676,7.144q.007.22.014.44c.072,2.192.086,4.587.043,7.538-.1,7.151-.283,14.415-.456,21.44l0,.093c-.049,2.009-.1,4.087-.149,6.13-.1,4.062-.206,8.884-.291,13.841-.029,1.7-.055,3.448-.076,5.191l-.025,2.282a27.85,27.85,0,0,1-.162,3.014,4.291,4.291,0,0,1-.62,1.864,2.639,2.639,0,0,1-.757.712c-.077.055-.156.111-.233.17l-.067.052A1.133,1.133,0,0,1,35.949,152.483ZM96.271,151a.429.429,0,0,1-.451-.34,74.624,74.624,0,0,1-.7-9.749v-.023c-.013-.46-.026-.935-.04-1.4l-.024-.745c-.139-4.042-.2-8.08-.188-12,.042-11.765.306-23.721.561-35.284v0l0-.072c.053-2.421.109-4.925.161-7.387.041-1.921.079-3.874.115-5.764v-.051c.1-5.133.2-10.441.375-15.662.129-3.892.263-7.405.411-10.739l.014-.307v0c.065-1.469.132-2.988.232-4.481l.048-.684c.016-.221.031-.443.046-.658v0c.015-.216.03-.44.046-.661a2.464,2.464,0,0,1-.848.15,5.653,5.653,0,0,1-2.589-.932c-.2-.112-.414-.228-.619-.334l-1.228-.632-.091-.047c-1.032-.532-2.1-1.081-3.164-1.628l-1.5-.766L83.848,39.26l-.335-.173h0a4.9,4.9,0,0,0-2.2-.757,2.6,2.6,0,0,0-1.29.365A73.807,73.807,0,0,0,65.766,49.53a1.8,1.8,0,0,1-1.228.454,1.761,1.761,0,0,1-1-.294,1.32,1.32,0,0,1-.557-.9,37.385,37.385,0,0,1-.414-3.966c-.067-1.248-.084-2.55-.052-3.982.059-2.657.282-5.355.5-7.963l0-.042q.036-.434.071-.867l.168-2.076c.182-2.215.411-4.83.723-7.428l.014-.113v0c.126-1.048.256-2.131.4-3.195l.112-.827c.033-.238.065-.48.1-.714v-.006a18.768,18.768,0,0,1,.595-3.138.9.9,0,0,1-.347-.205,2.482,2.482,0,0,1-.675-2.1,7.773,7.773,0,0,1,.6-2.258,10.007,10.007,0,0,1,2.338-3.421,1.278,1.278,0,0,1,.84-.359,12.6,12.6,0,0,1,2.715-1.388,8.549,8.549,0,0,1,2.863-.517,7.7,7.7,0,0,1,2.328.363c.1-.454.17-.8.242-1.121l.086-.372c.047-.2.087-.429.13-.671a9.689,9.689,0,0,1,.306-1.347A2.139,2.139,0,0,1,77.279.023.1.1,0,0,1,77.341,0a.064.064,0,0,1,.05.023A2.765,2.765,0,0,1,77.8,1.865c0,.129,0,.251,0,.372l0,.069c.031.942.043,1.941.039,3.241L77.836,8.99c0,.175-.006.356-.012.532-.009.3-.019.611,0,.911l.013.184a1.135,1.135,0,0,1,.3,1.049,1.487,1.487,0,0,1-.66,1.182l.819,1.163.82,1.162c2.047,2.9,3.644,5.1,5.179,7.106,1.755,2.3,3.7,4.608,5.78,6.865,1.064,1.155,2.055,2.193,3.028,3.171.29.292.589.583.879.864l.394.383.422.418c.058.058.117.114.18.173h0a2.583,2.583,0,0,1,.548.639,1.93,1.93,0,0,1,.117.515,1.171,1.171,0,0,0,.038.207,1.2,1.2,0,0,1-.1,1.1.8.8,0,0,1-.678.4.906.906,0,0,1-.327-.065l.04-.027c.053-.037.077-.062.073-.075s-.013-.011-.032-.011a1.7,1.7,0,0,0-.352.081,1.412,1.412,0,0,1-.654-.16l-.061-.033a2.874,2.874,0,0,1-.656-.536l-.119-.117-.058-.055c-.451-.423-.891-.874-1.316-1.31l-.235-.241c-1.126-1.151-2.145-2.244-3.115-3.342-1.967-2.227-3.892-4.613-5.724-7.092a66.179,66.179,0,0,1-5.019-7.83c-.5-.935-1-1.937-1.56-3.154a1.454,1.454,0,0,1-.938-.919,3.8,3.8,0,0,1-.172-1.547,14.28,14.28,0,0,1-.857-2.514.141.141,0,0,1,.131-.166.111.111,0,0,1,.084.041,13.833,13.833,0,0,1,.86,1.1c.094-.461.2-.9.3-1.28v0c.07-.283.13-.528.172-.728l.423-2.077c-.133-.007-.27-.011-.408-.011a9.02,9.02,0,0,0-3.386.684,8.33,8.33,0,0,0-2.847,1.9,2.158,2.158,0,0,1-.566.942h0c-.065.077-.133.157-.2.241a7.3,7.3,0,0,0-.966,1.573,6.361,6.361,0,0,0-.382,1.61,3.659,3.659,0,0,1-.931,2.374,1.054,1.054,0,0,1-.365.2,27.39,27.39,0,0,1,.3,6.029v0c-.014.576-.028,1.172-.03,1.745v.223c0,2.961-.1,5.941-.2,8.5l-.111,2.8a82.783,82.783,0,0,0,.125,11.192c1.654-1.466,3.385-2.88,5.144-4.205,1.158-.872,2.358-1.727,3.565-2.54l.984-.658.041-.028a24.084,24.084,0,0,1,3.635-2.143,5.045,5.045,0,0,1,2.063-.443,6.753,6.753,0,0,1,2.86.716c1.113.519,2.219,1.1,3.289,1.669h0c.491.259,1,.528,1.5.785,1.237.637,2.493,1.278,3.707,1.9l.174.089.982.5c.26.133.547.262.851.4a6.723,6.723,0,0,1,2.585,1.657c.052-.233.112-.458.177-.669a1.478,1.478,0,0,1,.142-1.054c2.577-4.737,4.934-9.516,7.528-14.824.6-1.233,1.2-2.493,1.779-3.712l0-.006c.6-1.269,1.224-2.582,1.854-3.866l1.2-2.451c.241-.491.427-.869.6-1.224s.357-.708.532-1.053c.129-.252.262-.513.391-.77.06-.119.128-.24.194-.358v0c.076-.135.154-.274.221-.412l.06-.13c0-.006.219-.687.134-.818a.043.043,0,0,0-.038-.021.077.077,0,0,0-.027.006l-.019.009a.116.116,0,0,1-.057.016.1.1,0,0,1-.09-.06.119.119,0,0,1,.015-.127.41.41,0,0,1,.323-.173.816.816,0,0,1,.618.492c.4.8-.1,1.949-.5,2.875-.1.235-.2.457-.268.652l-.019.053c-1.124,3.183-2.391,6.275-3.593,9.143-2.319,5.534-4.845,11.08-7.288,16.444l-.348.765-.031.1c.316-.243.645-.472.962-.694h0c.243-.17.473-.33.691-.492,1.3-.967,2.69-1.913,3.912-2.749,2.218-1.516,4.641-3.042,7.406-4.666l.5-.3a11.135,11.135,0,0,1,1.629-.812,4.854,4.854,0,0,1,1.738-.341,4.326,4.326,0,0,1,.629.046,11.228,11.228,0,0,1,3.283,1.236c.213.106.432.216.646.319l.129.062,3.871,1.841c-.379-1.514-.814-3.127-1.329-4.931-.9-3.145-1.909-6.34-3-9.5-.98-2.827-2.052-5.675-3.277-8.708l-.35-.863-.038-.1-.011-.029a8.252,8.252,0,0,0-.806-1.657A2.516,2.516,0,0,0,115.828,8.1a5.84,5.84,0,0,0-1.517-.145h-.405a4.035,4.035,0,0,1-2.22-.451.165.165,0,0,1-.073-.166.147.147,0,0,1,.111-.123l.763-.192a13.887,13.887,0,0,1,3.234-.509,5.006,5.006,0,0,1,1.234.141,4.781,4.781,0,0,1,1.989,1.11,6.966,6.966,0,0,1,1.42,1.792,29.281,29.281,0,0,1,1.612,3.666c.113.293.23.6.348.894l.1.24c.7,1.745,1.372,3.5,2,5.214,1.257,3.447,2.43,7.015,3.486,10.6.481,1.636.955,3.331,1.448,5.182.069.261.162.55.26.856v0c.091.282.184.574.27.875a5.012,5.012,0,0,1,.583.68.726.726,0,0,1,.131.561.979.979,0,0,1-.422.614,2.243,2.243,0,0,1-.341,1.191,1.871,1.871,0,0,1-1.574.829,1.666,1.666,0,0,1-1.213-.486,1.528,1.528,0,0,1-.392-1.165,1.449,1.449,0,0,1,.29-.776l0-.037-.019-.067c-.238-.114-.472-.233-.719-.359h0c-.176-.09-.358-.183-.543-.274L121.592,35.8c-.314-.155-.63-.329-.966-.514a9.492,9.492,0,0,0-2.824-1.189,2.189,2.189,0,0,0-.364-.03,5.812,5.812,0,0,0-2.625.97c-.2.111-.384.215-.566.311l-.068.035c-2.772,1.421-5.493,2.882-7.555,4-.711.384-1.429.784-2.122,1.171l-.009.005c-.5.277-1.01.563-1.517.841-.28.153-.56.322-.856.5h0a10.108,10.108,0,0,1-2.406,1.177,1.233,1.233,0,0,1-.771.271,1.469,1.469,0,0,1-.766-.23A23.857,23.857,0,0,1,98.4,46.1c.011.341.023.693.04,1.041.073,1.494.095,3.016.116,4.488,0,.308.009.627.014.94l.012.678c.074,3.83.117,7.756.133,12,.035,9.078-.018,18.307-.068,27.233-.029,5.083-.059,10.339-.072,15.511-.016,6.261-.123,12.885-.346,21.477-.082,3.169-.261,6.352-.422,9.088l-.1,1.651c-.029.495-.058,1-.085,1.484a69.959,69.959,0,0,1-.89,8.96A.447.447,0,0,1,96.271,151Zm6.5-.51a2.192,2.192,0,0,1-.569-.077,2.144,2.144,0,0,1-1.5-2.636l.052-.124a2.206,2.206,0,0,1,1.537-1.538,2.175,2.175,0,0,1,.577-.077,2.192,2.192,0,0,1,2.134,1.639,2.2,2.2,0,0,1-1.462,2.661l-.079.024-.124.052A2.195,2.195,0,0,1,102.771,150.487Zm44.492-4.65a3.718,3.718,0,0,1-.559-.048,1.589,1.589,0,0,1-1.051-.718,2.448,2.448,0,0,1-.419-1.214c-.235-4.922-.557-10.118-.986-15.883-.463-6.225-.813-12.565-1.15-18.7v-.014c-.171-3.1-.348-6.312-.537-9.466l-.2-3.282c-.194-3.231-.406-6.987-.472-10.676-.019-1.069,0-2.155.012-3.2.018-1.269.037-2.581-.005-3.87-.012-.368-.029-.75-.045-1.119a21.455,21.455,0,0,1,.233-5.561.1.1,0,0,1,.1-.072.087.087,0,0,1,.082.048,14.763,14.763,0,0,1,1.058,3.356c1.232-1.558,2.562-3.219,3.945-4.808a.137.137,0,0,1,.1-.052.167.167,0,0,1,.136.083.162.162,0,0,1,.009.161c-1.195,2.343-2.512,4.642-3.787,6.865.1.607.2,1.235.324,1.85.176.9.368,1.806.554,2.683v0c.347,1.635.706,3.326.967,5.019,1.508,9.751,2.256,19.68,2.839,28.222.63,9.229.725,18.623.818,27.708l.007.7a2.09,2.09,0,0,1-.414,1.216,1.722,1.722,0,0,1-1.056.716A2.751,2.751,0,0,1,147.264,145.836Zm-145.41-.748a.962.962,0,0,1-.766-.418l-.148-.2-.023-.031a3.485,3.485,0,0,1-.883-1.818C-.01,142.071,0,141.5.007,140.947c0-.241.007-.489.006-.733-.006-1.444.008-2.975.045-4.819.062-3.061.184-6.166.363-9.23.371-6.319.987-12.595,1.831-18.652.76-5.456,1.725-10.977,2.866-16.41,1.134-5.4,2.471-10.839,3.974-16.178,1.6-5.683,3.159-10.6,4.765-15.02a124.643,124.643,0,0,1,6.23-14.463c1.139-2.221,2.352-4.365,3.6-6.37,1.322-2.116,2.724-4.139,4.17-6.012a63.7,63.7,0,0,1,4.78-5.522,55.877,55.877,0,0,1,5.434-4.9,52.9,52.9,0,0,1,5.609-3.863A49.171,49.171,0,0,1,49.76,15.7a32.157,32.157,0,0,1,6.611-2.036,32.77,32.77,0,0,1,4.486-.406c.733-.032,1.491-.065,2.242-.124h.013a.115.115,0,0,1,.12.116.151.151,0,0,1-.132.163,27.2,27.2,0,0,0-6.275,1.8l-.006,0c-.347.13-.706.265-1.057.393l-.2.074a52.81,52.81,0,0,0-7.008,3.1A53.629,53.629,0,0,0,36.5,27.686a63.78,63.78,0,0,0-5.011,5.5,71.839,71.839,0,0,0-4.352,5.995c-1.307,2.007-2.574,4.16-3.764,6.4-1.124,2.115-2.216,4.376-3.246,6.718a138.446,138.446,0,0,0-5.223,14.046c-1.332,4.209-2.6,8.748-4,14.283C9.6,85.788,8.448,91.127,7.483,96.5c-.939,5.229-1.728,10.634-2.346,16.063-.6,5.294-1.033,10.681-1.282,16.009-.127,2.725-.208,5.493-.242,8.229-.016,1.271-.022,2.65-.021,4.217,0,.178.009.366.018.564a5.066,5.066,0,0,1-.075,1.516,4.035,4.035,0,0,1-.709,1.247c-.082.112-.16.218-.234.325A.893.893,0,0,1,1.854,145.088Zm101.018-12.279-.116,0-.068,0,.041.005-.071-.008c-.067-.006-.134-.013-.2-.022l-.058-.007-.078-.009c-.03,0-.054,0-.077,0l-.053,0c-.037,0-.076.005-.114.005a2.006,2.006,0,0,1-1.288-.586,1.936,1.936,0,0,1-.431-.644,1.6,1.6,0,0,1-.149-.758l.02-.19a2.169,2.169,0,0,1,.2-.771,2.344,2.344,0,0,1,.569-.825,2.539,2.539,0,0,1,1.732-.705h.019a2.231,2.231,0,0,1,1.17.306l.458.355c.117.151.239.308.371.48a2.047,2.047,0,0,1,.265,1.424,1.67,1.67,0,0,1-.265.83l-.349.452a2.986,2.986,0,0,1-1.021.6A1.617,1.617,0,0,1,102.872,132.809Zm-.064-24.094a2.166,2.166,0,0,1-.87-.177,2.273,2.273,0,0,1-1.047-.864l-.041-.067c-.017-.027-.033-.055-.049-.084l-.022-.043a2.332,2.332,0,0,1,.35-2.713,2.059,2.059,0,0,1,1.546-.638,2.494,2.494,0,0,1,1.167.287,2.8,2.8,0,0,1,.457.334h0l.121.1a2.264,2.264,0,0,1,.666,1.608,2.037,2.037,0,0,1-.175.869,2.3,2.3,0,0,1-.491.74l-.1.093a1.851,1.851,0,0,1-.907.492A3.384,3.384,0,0,1,102.808,108.715Zm-.96-22.851a2.112,2.112,0,0,1-.561-.075,2.153,2.153,0,0,1-1.5-1.5L99.744,84a2.563,2.563,0,0,1,.048-1.1,2.991,2.991,0,0,1,.262-.655,2.324,2.324,0,0,1,.607-.7,2.588,2.588,0,0,1,.824-.42,1.806,1.806,0,0,1,.54-.085,1.774,1.774,0,0,1,.387.043,2.279,2.279,0,0,1,1.1.458,1.172,1.172,0,0,1,.417.417,1.759,1.759,0,0,1,.416.791l.083.618-.083.618-.234.556-.195.252a2.6,2.6,0,0,1-.809.675A2.174,2.174,0,0,1,101.848,85.864ZM132.923,67.12a9.27,9.27,0,0,1-1.034-.079c-.216-.025-.439-.05-.654-.065-1.094-.073-2.214-.136-3.328-.186-2.314-.1-4.424-.158-6.451-.167l-1.031,0c-1.644,0-3.414.016-5.411.048-.61.01-1.238.033-1.845.056-.819.031-1.666.062-2.5.062a22.079,22.079,0,0,1-2.289-.105.28.28,0,0,1-.259-.245.262.262,0,0,1,.188-.28,28.591,28.591,0,0,1,5.807-1.123l.687-.085c2.146-.271,4.384-.475,6.65-.606,2.426-.139,4.672-.214,6.867-.23.341,0,.688,0,1.031,0,.538,0,1.087,0,1.631.009l.665.009c.146,0,.288,0,.426,0a3.386,3.386,0,0,1,2.52.674,1.036,1.036,0,0,1,.359.861,1.435,1.435,0,0,1-.607,1.066A2.376,2.376,0,0,1,132.923,67.12Zm-31.3-5.325h-.073a2.318,2.318,0,0,1-1.169-.317l-.469-.363a2.325,2.325,0,0,1-.6-1.023l-.083-.616a2.4,2.4,0,0,1,2.244-2.319l.073,0a2.307,2.307,0,0,1,1.1.276l.073.041.469.362a2.326,2.326,0,0,1,.6,1.023l.083.616a2.4,2.4,0,0,1-2.244,2.32ZM109.9,13.884h-.055a2.2,2.2,0,0,1-1.474-.625,3.745,3.745,0,0,1-.861-1.415,13.25,13.25,0,0,1-.606-3.391,9.657,9.657,0,0,1,.245-3A8.269,8.269,0,0,1,108.352,2.7a.657.657,0,0,1,.552-.322.771.771,0,0,1,.58.3.631.631,0,0,1,.143.527,22.909,22.909,0,0,0,.489,4.819,9.145,9.145,0,0,0,.737,2.137l.144.283a2.481,2.481,0,0,1,.191,2.673,1.723,1.723,0,0,1-.549.552A1.41,1.41,0,0,1,109.9,13.884Z" transform="translate(5.07 0.962)"/>
  </g>
  <g id="HEAD" transform="translate(78.592 38.043)">
    <path id="_Skin-2" data-name="âœ‹ Skin" d="M87.671,27.638C80.254,8.076,66.884-6.246,44.344,2.75a2.011,2.011,0,0,0-2.3-.043A58.614,58.614,0,0,0,17.094,36.8a19.075,19.075,0,0,0-6.622,2.491C6.074,42.054,3.115,46.45.341,50.732a2.544,2.544,0,0,0,1.506,3.711,13.138,13.138,0,0,0,2.027.223,8.662,8.662,0,0,1-.652,1.7,2.378,2.378,0,0,0,2.637,3.411,3.4,3.4,0,0,0,.61.252c.024,1.08.578,2.527,1.674,2.745,1.773.381,4.128-.979,3.71-2.966a5.309,5.309,0,0,0,1.589.041c.058,1.035.04,2.115.183,3.07a7.171,7.171,0,0,0,9.226,6.153c.262,1.4.57,3.372,1.948,4.132,1.61,4.529,4.391,9.7,8.945,11.76a2.347,2.347,0,0,0,1.036,3,41.1,41.1,0,0,0,27.766,4.605,27.023,27.023,0,0,0,10.959-2.9,51.307,51.307,0,0,0,7.235-4.744,36.516,36.516,0,0,0,6.613-5.68,18.408,18.408,0,0,0,3.534-8.394,72.95,72.95,0,0,0-3.216-40.834C81.447,13.612,93.892,44.047,87.671,27.638Z" transform="translate(-3.584 12.959)" fill="#d08b5b"/>
    <path id="_Hair" data-name="ðŸ’ˆ Hair" d="M10.114,2.431C17.037-1.663,25.866-.6,30.026,5.738A11.852,11.852,0,0,1,31.59,9.432l.057.232.056.244a28.264,28.264,0,0,1,.461,2.854l.179,1.463.051.4a20.8,20.8,0,0,0,.562,3.014L33,17.8l.274.944-1.033.383c-1.979.716-2.393.78-3.535.182a4.461,4.461,0,0,1-1.976-2.371l-.09-.187-.2-.416-.107-.219a5.894,5.894,0,0,0-1.183-1.982,7.811,7.811,0,0,0-3.934-.427l-.071.009-.059.012-.1.023A10.625,10.625,0,0,0,15.247,18.1a10.509,10.509,0,0,0-1.82,5.617l0,.137L13.4,24.908l-2.216-.047.022-.409-.033.073c-.7,1.475-2.452,2.458-3.92,1.481L7.2,25.97l-.053-.038a2.67,2.67,0,0,1-.371-3.889l.047-.051.046-.047-.009,0-.011,0H6.838a2.12,2.12,0,0,0-1.062.621l-.106.1-.213.231-.22.235-.095.1c-.06.061-.116.115-.168.162a1.96,1.96,0,0,1-.206.167,1.223,1.223,0,0,1-.215.121,1.079,1.079,0,0,1-1.415-.532,1.244,1.244,0,0,1-.1-.3A2.21,2.21,0,0,1,3,22.495c0-.082,0-.172,0-.27l0-.153.005-.167.006-.133.025-.493a12.357,12.357,0,0,1,1.24-4.708l.074-.15.027-.054-.076.1a4.514,4.514,0,0,1-1.571,1.408l-.082.04-.08.037A1.707,1.707,0,0,1,.4,17.5a2.415,2.415,0,0,1-.38-1.732,10.337,10.337,0,0,1,1.605-4.087l.136-.234.533-.906A22.68,22.68,0,0,1,10.114,2.431Z" transform="translate(-3.247 49.018)" fill="#e8e1e1"/>
    <path id="_Ink-2" data-name="ðŸ– Ink" d="M60.643,94.908h0a25.36,25.36,0,0,1-6.542-.831A22.33,22.33,0,0,1,47.953,91.4a1.536,1.536,0,0,1-.669-.827,1.637,1.637,0,0,1-.006-.966,1.877,1.877,0,0,1,.548-.878,1.383,1.383,0,0,1,.922-.37,1.463,1.463,0,0,1,.822.27,17.447,17.447,0,0,0,3.841,2.006A21.845,21.845,0,0,0,60.8,91.864,32.154,32.154,0,0,0,71.02,90.052a39.8,39.8,0,0,0,8.041-3.75,35.428,35.428,0,0,0,6.948-5.514,23.058,23.058,0,0,0,4.919-7.4,20.217,20.217,0,0,0,1.43-8.752,64.9,64.9,0,0,0-.894-6.956c-.221-1.335-.449-2.715-.623-4.078-.337-2.653-.569-5.362-.792-7.981v-.012c-.051-.6-.1-1.212-.156-1.817l-.1-1.177A92.18,92.18,0,0,0,88.44,32.6a38.154,38.154,0,0,0-3.16-9.555A38.728,38.728,0,0,0,74.524,9.919a36.965,36.965,0,0,0-7.643-4.605,34.473,34.473,0,0,0-8.534-2.575,23.794,23.794,0,0,0-3.8-.307,25.35,25.35,0,0,0-8.061,1.353,32.134,32.134,0,0,0-7.439,3.678,44.214,44.214,0,0,0-7.1,5.845,47.079,47.079,0,0,0-5.79,7.151c-.791,1.2-1.557,2.489-2.278,3.834C23.2,25.554,22.542,26.9,21.923,28.3c-.828,1.87-1.479,3.837-2.109,5.74-.232.7-.473,1.428-.718,2.138.165,0,.329-.007.488-.007a16.415,16.415,0,0,1,1.8.1A14.639,14.639,0,0,1,27,38.1a14.24,14.24,0,0,1,2.406,1.724,13.762,13.762,0,0,1,2,2.211,10.5,10.5,0,0,1,1.15,2.034,13.262,13.262,0,0,1,.7,2.148,34.026,34.026,0,0,1,.665,4.5,33.751,33.751,0,0,0,.707,4.7.816.816,0,0,1-.361.889,5.168,5.168,0,0,1-2.8.83,4.674,4.674,0,0,1-2.84-.932,4.418,4.418,0,0,1-1.517-2.134,4.268,4.268,0,0,1-.216-1.3,3.945,3.945,0,0,1,.208-1.308.208.208,0,0,1,.2-.147.2.2,0,0,1,.207.2,4.124,4.124,0,0,0,3.8,4.176,3.492,3.492,0,0,0,1.632-.419,28.2,28.2,0,0,1-.783-4.473,33.187,33.187,0,0,0-.6-3.779A11.016,11.016,0,0,0,30.106,43.5a11.4,11.4,0,0,0-2.052-2.357,11.259,11.259,0,0,0-2.483-1.633,12.368,12.368,0,0,0-2.785-.949,14.113,14.113,0,0,0-2.958-.307,15.94,15.94,0,0,0-4.249.587,16.379,16.379,0,0,0-3.968,1.682,19.339,19.339,0,0,0-4.205,3.4A24.633,24.633,0,0,0,4.163,48.26l-.531.9a19.811,19.811,0,0,0-1.011,1.9,6.752,6.752,0,0,0-.591,2,1.352,1.352,0,0,0,.212,1.026.541.541,0,0,0,.421.182,1.117,1.117,0,0,0,.442-.108A4.444,4.444,0,0,0,4.787,52.5a1.006,1.006,0,0,1,.848-.473,1.1,1.1,0,0,1,.925.514.941.941,0,0,1,.005.951l-.02.037a12.057,12.057,0,0,0-1.035,2.41,11,11,0,0,0-.46,2.58L5.025,59c-.026.57-.01.866.047.88h0a3.549,3.549,0,0,0,.654-.629c.075-.082.135-.147.161-.173a3.353,3.353,0,0,1,1.717-1.007,1.029,1.029,0,0,1,.185-.017,1.224,1.224,0,0,1,1.1.752.872.872,0,0,1,.048.5.918.918,0,0,1-.286.485l-.033.03a1.6,1.6,0,0,0,.106,2.436,1.226,1.226,0,0,0,.739.253,1.772,1.772,0,0,0,1.239-.611,2.426,2.426,0,0,0,.657-1.258l.005-.041a1.03,1.03,0,0,1,.345-.678.963.963,0,0,1,.625-.229.9.9,0,0,1,.907.907,3.3,3.3,0,0,1-.222,1.443,3.841,3.841,0,0,1-.774,1.224,4.2,4.2,0,0,1-1.295.944,3.692,3.692,0,0,1-1.542.353,3.155,3.155,0,0,1-1.556-.4A3.361,3.361,0,0,1,6.7,63.077a3.924,3.924,0,0,1-.589-1.468,2.587,2.587,0,0,1-.98.3c-.064.006-.128.009-.19.009a1.821,1.821,0,0,1-1.285-.509,2.254,2.254,0,0,1-.642-1.265,9.4,9.4,0,0,1,.241-3.874,2.643,2.643,0,0,1-.62.076,2.552,2.552,0,0,1-1.289-.36A2.689,2.689,0,0,1,0,53.519a7.463,7.463,0,0,1,.685-2.9,28.447,28.447,0,0,1,2.982-5.25A25.752,25.752,0,0,1,7.75,40.88a20.568,20.568,0,0,1,5.013-3.223,16.776,16.776,0,0,1,5.771-1.449,20.474,20.474,0,0,1,.5-3.786,42.227,42.227,0,0,1,3.2-9.181,45.253,45.253,0,0,1,5.2-8.337A41.933,41.933,0,0,1,42.539,2.74,31.363,31.363,0,0,1,47.372.946,25.978,25.978,0,0,1,52.446.061C53.016.02,53.6,0,54.189,0a31.636,31.636,0,0,1,9.532,1.581,38.544,38.544,0,0,1,8.235,3.74,40.3,40.3,0,0,1,7.174,5.521,38.429,38.429,0,0,1,5.833,7.2,40.227,40.227,0,0,1,3.982,8.373,45.035,45.035,0,0,1,1.309,4.664c.335,1.481.622,3.038.875,4.76.471,3.2.753,6.476,1.026,9.648h0c.086,1,.176,2.043.269,3.061.344,3.729.909,7.408,1.507,11.162l.094.587a42.3,42.3,0,0,1,.569,5.45,21.967,21.967,0,0,1-.464,5.446,23.108,23.108,0,0,1-3.745,8.277A29.966,29.966,0,0,1,87.468,83a34.644,34.644,0,0,1-3.376,3.069,43.058,43.058,0,0,1-10.956,6.322,38.016,38.016,0,0,1-6.176,1.852A31.336,31.336,0,0,1,60.643,94.908ZM37.176,89.531a5.579,5.579,0,0,1-2.853-.933,20.765,20.765,0,0,1-2.471-1.84l-.034-.028a20.985,20.985,0,0,1-4.086-4.643,27.546,27.546,0,0,1-2.72-5.317,27.918,27.918,0,0,1-1.535-5.8,7.191,7.191,0,0,1-2.052.288h-.015a6.611,6.611,0,0,1-2.248-.4,7.31,7.31,0,0,1-2-1.107,9.41,9.41,0,0,1-2.615-3.189,10.843,10.843,0,0,1-.758-1.924,12.024,12.024,0,0,1,1.559-9.973,10.957,10.957,0,0,1,1.272-1.5,11.142,11.142,0,0,1,1.517-1.25,10.652,10.652,0,0,1,3.573-1.593l.111-.025a9.306,9.306,0,0,1,1.841-.2,4.829,4.829,0,0,1,1.234.139,1.713,1.713,0,0,1,.9.515,1.263,1.263,0,0,1,.22,1.085.085.085,0,0,1-.089.071.105.105,0,0,1-.1-.071c-.128-.437-.512-.659-1.14-.659a8.249,8.249,0,0,0-2.706.713,11.316,11.316,0,0,0-3.015,1.867A10.42,10.42,0,0,0,17.65,55.14a10.119,10.119,0,0,0-1.035,1.587,9.3,9.3,0,0,0-1.056,3.629,10.257,10.257,0,0,0,.426,3.824,8.727,8.727,0,0,0,.774,1.766,7.548,7.548,0,0,0,1.169,1.531,5.592,5.592,0,0,0,1.516,1.1,4.482,4.482,0,0,0,1.808.458h.075a5.155,5.155,0,0,0,1.336-.25h.005a5.129,5.129,0,0,1,1.321-.249,1.665,1.665,0,0,1,.756.166.7.7,0,0,1,.357.624,1.565,1.565,0,0,1-.53,1.06c.506.924.994,1.879,1.465,2.8a43.839,43.839,0,0,0,4.052,6.865,23.391,23.391,0,0,0,3.9,4.034,15.719,15.719,0,0,0,2.233,1.476c.153.084.3.164.449.241h0a5.164,5.164,0,0,1,1.908,1.432,1.4,1.4,0,0,1,.089,1.37,1.367,1.367,0,0,1-1.006.892A3.626,3.626,0,0,1,37.176,89.531ZM26.6,62.824a1.394,1.394,0,0,1-.375-.053,8.423,8.423,0,0,1-2.19-1.124,9.793,9.793,0,0,0-1.961-1.058,4.965,4.965,0,0,0-1.661-.292,4.074,4.074,0,0,0-2.323.695.158.158,0,0,1-.091.029.2.2,0,0,1-.17-.109.169.169,0,0,1,0-.177A4.481,4.481,0,0,1,19.523,59.2a5.855,5.855,0,0,1,2.214-.612c.187-.016.379-.025.569-.025a7.253,7.253,0,0,1,2.481.452l.4.146a6.147,6.147,0,0,1,2.367,1.316,1.34,1.34,0,0,1,.365.735,1.423,1.423,0,0,1-.1.762,1.439,1.439,0,0,1-.474.6A1.258,1.258,0,0,1,26.6,62.824Z" transform="translate(-4.216 11.836)"/>
  </g>
  <g id="FACE" transform="translate(112.183 77.354)">
    <path id="_Ink-3" data-name="ðŸ– Ink" d="M22.824,40.539a8.045,8.045,0,0,1-3.052-.61,8.621,8.621,0,0,1-1.992-1.145,8.487,8.487,0,0,1-1.622-1.636,1.676,1.676,0,0,1-.338-1.3,1.871,1.871,0,0,1,.728-1.172,1.793,1.793,0,0,1,1.067-.372,1.548,1.548,0,0,1,.238.018,1.648,1.648,0,0,1,1.1.73l.065.09A5.7,5.7,0,0,0,21.108,36.9a4.735,4.735,0,0,0,2.069.483,4.583,4.583,0,0,0,.513-.029,5.388,5.388,0,0,0,2.278-.8,10.668,10.668,0,0,0,1.93-1.611c.138-.141.284-.294.474-.5a.751.751,0,0,1,.394-.3.806.806,0,0,1,.256-.041.871.871,0,0,1,.714.373.8.8,0,0,1,.135.524,4.812,4.812,0,0,1-.57,1.864,6.221,6.221,0,0,1-1.22,1.567,7.841,7.841,0,0,1-1.847,1.288,7.69,7.69,0,0,1-2.05.7A7.548,7.548,0,0,1,22.824,40.539Zm2.148-12.17h0a7.373,7.373,0,0,1-2.63-.53,13.281,13.281,0,0,1-3.093-1.756,1.189,1.189,0,0,1-.432-.687,1.423,1.423,0,0,1,.061-.771,1.754,1.754,0,0,1,.521-.753,1.267,1.267,0,0,1,.812-.317,1.151,1.151,0,0,1,.628.193l.209.161,0,0a16.744,16.744,0,0,0,1.936,1.347,4.768,4.768,0,0,0,2.321.74,2.505,2.505,0,0,0,.981-.193,2.74,2.74,0,0,0,.913-.647,2.8,2.8,0,0,0,.531-2.255,4.26,4.26,0,0,0-1.13-2,8.241,8.241,0,0,0-1.711-1.381.531.531,0,0,1-.144-.61.8.8,0,0,1,.264-.38.809.809,0,0,1,.505-.167,1.076,1.076,0,0,1,.181.016,5.736,5.736,0,0,1,2.018.729,4.577,4.577,0,0,1,1.357,1.252,4.974,4.974,0,0,1,.866,3.322,5.475,5.475,0,0,1-.444,1.744,5.087,5.087,0,0,1-1,1.5A4.779,4.779,0,0,1,24.972,28.369ZM7.859,16.485a1.724,1.724,0,0,1-1.119-.439,1.744,1.744,0,0,1-.587-1.128,12.706,12.706,0,0,1,.067-3.308c.04-.321.081-.654.11-1.012a1.98,1.98,0,0,1,.75-1.415,2.31,2.31,0,0,1,1.421-.5,1.751,1.751,0,0,1,1.075.338,1.594,1.594,0,0,1,.594,1.057,8.877,8.877,0,0,1-.926,5.469,1.754,1.754,0,0,1-.619.716A1.427,1.427,0,0,1,7.859,16.485Zm25.119-.75a1.508,1.508,0,0,1-1.183-.507A4.624,4.624,0,0,1,31.074,14a5.342,5.342,0,0,1-.368-1.477,3.131,3.131,0,0,1,.853-2.687,1.772,1.772,0,0,1,.137-.208,1.933,1.933,0,0,1,1.487-.856,1.611,1.611,0,0,1,.452.067,2.175,2.175,0,0,1,1.453,1.268,4.486,4.486,0,0,1,.18,2.453,8.214,8.214,0,0,1-.744,2.314,1.5,1.5,0,0,1-.643.635A1.947,1.947,0,0,1,32.979,15.735ZM.278,7.854a.274.274,0,0,1-.229-.14.306.306,0,0,1-.018-.3A10.425,10.425,0,0,1,2.368,4.454,14.446,14.446,0,0,1,5.5,2.317a13.445,13.445,0,0,1,3.714-1.3l.4-.069A9.66,9.66,0,0,1,11.226.776a2.5,2.5,0,0,1,2,.746,1.7,1.7,0,0,1,.4,1.208,1.106,1.106,0,0,1-.4.789,3.08,3.08,0,0,1-2.112.62c-.166,0-.338,0-.5-.008H10.6c-.16,0-.341-.009-.521-.009s-.314,0-.452.012a14.274,14.274,0,0,0-3.143.536A21.357,21.357,0,0,0,.424,7.806.26.26,0,0,1,.278,7.854Zm38.247-1.6h0l-.167-.042A9.458,9.458,0,0,1,36.524,5.5l-.6-.293A16.537,16.537,0,0,0,33.8,4.3a25.089,25.089,0,0,0-4.845-1.07,1.979,1.979,0,0,1-.972-.369,1.457,1.457,0,0,1-.544-.828A1.482,1.482,0,0,1,27.609.786a1.581,1.581,0,0,1,.767-.661A1.725,1.725,0,0,1,29.03,0a1.926,1.926,0,0,1,.377.038l.3.062a21.676,21.676,0,0,1,5.232,1.7,10.579,10.579,0,0,1,2.3,1.514,6.719,6.719,0,0,1,1.627,2.1c.057.439,0,.548-.055.622L38.8,6.06l-.015.02a.421.421,0,0,1-.26.173Z" transform="translate(11.197 10.99)"/>
  </g>
  <g id="FACIAL_HAIR" data-name="FACIAL HAIR" transform="translate(104.577 109.479)">
    <path id="_Background" data-name="ðŸŽ¨ Background" d="M25.141.185c-2.963-.5-6.042.239-8.9,1.026C11.7-1.77,5.822,1.239,2.572,4.964,1.459,5.88-.877,7.1.354,8.846c-.467,1.236-.591,1.818.374.373,5.465.629,11.329-.56,16.738-1.681,1.842.62,3.468,2.068,5.492,1.572,1.914.407,3.986.787,5.714-.441,1.316-.053,4.243,2.31,4.2-.438C32.462,5.6,27.239,1.211,25.141.185Z" transform="translate(26.696 6.752)" fill="#e8e1e1"/>
    <path id="_Ink-4" data-name="ðŸ– Ink" d="M.74,12.562h0c-.474,0-.723-.223-.739-.664a2.947,2.947,0,0,1,.258-1.121A11.138,11.138,0,0,1,1,9.295,30.4,30.4,0,0,1,3.4,5.867a33.112,33.112,0,0,1,2.674-3,4.536,4.536,0,0,1,1.831-1.33A11.107,11.107,0,0,1,10.584.354,9.228,9.228,0,0,1,13.139,0,12.34,12.34,0,0,1,16.09.39a28.322,28.322,0,0,1,3.09.984,2.809,2.809,0,0,0,.34.02A6.877,6.877,0,0,0,21.715.876a9.185,9.185,0,0,1,1.649-.47,9.9,9.9,0,0,1,1.383-.1,9.665,9.665,0,0,1,4.14.945,13.114,13.114,0,0,1,3.483,2.46,20,20,0,0,1,2.791,3.412,26.458,26.458,0,0,1,2.064,3.8.8.8,0,0,1-.032.788.754.754,0,0,1-1.184.15,4.524,4.524,0,0,0-1.54-.727,6.63,6.63,0,0,0-1.7-.2,22.852,22.852,0,0,0-2.744.234l-.175.022a26.343,26.343,0,0,1-3.266.255,12.249,12.249,0,0,1-3.22-.4A11.861,11.861,0,0,1,19.9,9.463a4.642,4.642,0,0,1-1.516.8,9.993,9.993,0,0,1-1.956.414,41.429,41.429,0,0,1-4.786.178,49.161,49.161,0,0,0-5.5.21,12.71,12.71,0,0,0-4.926,1.439A2.293,2.293,0,0,1,.74,12.562ZM14.02,1.5A10.269,10.269,0,0,0,7.5,3.743a14.746,14.746,0,0,0-2.611,2.7A24.3,24.3,0,0,0,2.64,10.082,33.971,33.971,0,0,1,12.626,9.03c.689,0,1.4-.009,2.1-.022l.191,0c.146,0,.3,0,.468.006h.026c.191,0,.363.006.542.006,1.176,0,2.444-.125,2.924-1.05a.691.691,0,0,1,.632-.4.8.8,0,0,1,.087,0,.708.708,0,0,1,.322-.078.808.808,0,0,1,.463.157,11.652,11.652,0,0,0,3.5,1.636,14.1,14.1,0,0,0,3.814.5,16.978,16.978,0,0,0,1.86-.1c.286-.032.582-.069.869-.1a22.141,22.141,0,0,1,2.7-.225,7.389,7.389,0,0,1,1.722.182,18.811,18.811,0,0,0-1.777-2.948A15.747,15.747,0,0,0,30.7,4.015a11.141,11.141,0,0,0-2.858-1.827,8.244,8.244,0,0,0-3.27-.694,8.132,8.132,0,0,0-1.975.248c-.1.008-.555.159-1.079.333a13.892,13.892,0,0,1-2.117.611c-.042,0-.067-.008-.072-.024s.023-.063.093-.12A19.083,19.083,0,0,0,16.6,1.755,13.741,13.741,0,0,0,14.02,1.5Z" transform="translate(24.507 5.707)"/>
  </g>
  <g id="ACCESORIES" transform="translate(88.521 88.978)">
    <path id="_Ink-5" data-name="ðŸ– Ink" d="M45.294,25.4h0a12.5,12.5,0,0,1-2.558-.268,13.039,13.039,0,0,1-4.712-2.023,12.706,12.706,0,0,1-1.971-1.678,11.914,11.914,0,0,1-2.516-3.941,12.161,12.161,0,0,1-.792-4.97,1.75,1.75,0,0,1-1.18-.643,3.434,3.434,0,0,1-.477-1.1c-.311-1.017-.664-2.17-3.024-2.562A4.587,4.587,0,0,1,26.1,6.91a53.931,53.931,0,0,0-5.73-.322,41.528,41.528,0,0,0-6.522.5A35.777,35.777,0,0,0,7.4,8.736c-.375.157-.772.3-1.157.442a13.691,13.691,0,0,0-1.961.829A2.845,2.845,0,0,0,3,11.274a3.189,3.189,0,0,0,.159,2.508,1.262,1.262,0,0,1-1.232,1.2,1.06,1.06,0,0,1-.772-.333l0,0v0A8.717,8.717,0,0,1,.04,11.6,3.963,3.963,0,0,1,.367,9.324C.981,8.062,2.36,7.1,4.585,6.367a42.331,42.331,0,0,1,6.283-1.322l.395-.063a42.37,42.37,0,0,1,8.913-.933c.311,0,.627,0,.939.01.383.016.787.022,1.214.029h0a14.174,14.174,0,0,1,3.681.355l.016,0a2.832,2.832,0,0,1,1.626-1.392A16.317,16.317,0,0,1,31.124,2a41.812,41.812,0,0,1,4.735-.671c1.747-.156,3.57-.235,5.416-.235a57.767,57.767,0,0,1,5.917.292A35.627,35.627,0,0,1,52.5,2.3a14.114,14.114,0,0,1,3.979,1.6,4.034,4.034,0,0,1,1.926,2.355c.108,0,.216,0,.322,0,.66,0,1.289.052,1.795.093l.07.006c.547.045,1.063.087,1.58.087a6.266,6.266,0,0,0,2.038-.306,4.023,4.023,0,0,1,1.753-2.68,13.328,13.328,0,0,1,3.91-1.918A30.015,30.015,0,0,1,74.948.385,37.272,37.272,0,0,1,80.188,0a21.59,21.59,0,0,1,4.573.421A8.286,8.286,0,0,1,86.025.64a1.571,1.571,0,0,1,.481.172c.167.025.343.052.522.082a1.256,1.256,0,0,1,.77.444,1.652,1.652,0,0,1,.351.816A1.546,1.546,0,0,1,87.407,3.8a2.355,2.355,0,0,0-1.036.958,1.922,1.922,0,0,0-.183,1.391,1.552,1.552,0,0,1-.07.98,1.428,1.428,0,0,1-.578.653,29.724,29.724,0,0,1-.992,7.291,15.959,15.959,0,0,1-1.389,3.4A12.2,12.2,0,0,1,80.885,21.4a12.839,12.839,0,0,1-3.13,1.533,9.811,9.811,0,0,1-3.009.49,8.433,8.433,0,0,1-3.655-.817,8.9,8.9,0,0,1-2.958-2.3,10.5,10.5,0,0,1-1.4-2.146,12.336,12.336,0,0,1-.931-2.6,14.688,14.688,0,0,1-.387-2.992,17.663,17.663,0,0,1,.23-3.323,1.081,1.081,0,0,1-.32-.344c-.052-.084-.1-.174-.156-.285a5.116,5.116,0,0,0-2.371-.472,7.235,7.235,0,0,0-.99.068,4.388,4.388,0,0,0-2.927,1.639c-.11.114-.224.232-.343.352a1.069,1.069,0,0,1-.757.564l-.047.262a41.244,41.244,0,0,1-1.372,5.987,15.5,15.5,0,0,1-1.234,2.794,11.21,11.21,0,0,1-1.871,2.44,11.512,11.512,0,0,1-7.96,3.145Zm.532-20.077a27.661,27.661,0,0,0-4.709.329,11.769,11.769,0,0,0-4.378,1.621A4.251,4.251,0,0,0,34.882,9.99a9.9,9.9,0,0,1-.535,1.319,2.845,2.845,0,0,1-.863,1.034A14.541,14.541,0,0,0,35,17.162a12.96,12.96,0,0,0,2.78,3.6,11.987,11.987,0,0,0,3.595,2.256,10.634,10.634,0,0,0,3.959.781h0a9.408,9.408,0,0,0,3.208-.554,9.174,9.174,0,0,0,2.9-1.709A10.768,10.768,0,0,0,53.787,18.6a15.337,15.337,0,0,0,1.535-4.236,29.707,29.707,0,0,0,.84-4.626c-.357-.314-.691-.625-1.013-.925a14.55,14.55,0,0,0-2.92-2.286,10.674,10.674,0,0,0-4.523-1.187l-.175,0C46.975,5.332,46.4,5.324,45.826,5.324ZM66.748,10.09a21.062,21.062,0,0,0,.439,3.617,14.193,14.193,0,0,0,1.192,3.479,8.023,8.023,0,0,0,2.144,2.706,6.209,6.209,0,0,0,3.293,1.3c.3.026.609.039.91.039a8.723,8.723,0,0,0,3.132-.547,5.442,5.442,0,0,0,2.45-1.8,13.729,13.729,0,0,0,1.5-2.64,17.406,17.406,0,0,0,.947-2.878,26.756,26.756,0,0,0,.663-5.983A5.531,5.531,0,0,1,82.243,5.4a3.91,3.91,0,0,0-.88-1.5,3.049,3.049,0,0,0-2.147-.632c-.228,0-.477.011-.74.033a19.785,19.785,0,0,0-4.61.778,9.052,9.052,0,0,0-2.781,1.377,6.2,6.2,0,0,0-1.5,1.637A10.274,10.274,0,0,0,68.8,8.649c-.378.892-.651,1.536-1.451,1.536A2.242,2.242,0,0,1,66.748,10.09Z" transform="translate(-2.746 1.902)"/>
  </g>
</svg>
