<svg id="peep-12" xmlns="http://www.w3.org/2000/svg" width="240" height="324" viewBox="0 0 240 324">
  <g id="BODY" transform="translate(31.056 135.053)">
    <path id="_Skin" data-name="âœ‹ Skin" d="M.944,130.5c-.633,5.8-2.065,12.191.666,17.664-1.72.077-.325.575.6.746a2.772,2.772,0,0,0,1.912.516c3.478.735,7.069,1,10.6,1.418,44.1,3.664,88.486,2.691,132.664,1.112a2.581,2.581,0,0,0,2.511-2.513q2.429-31.044,2.384-62.215c-.719-7.3,4.792-4.448,1.852-14.062a146.146,146.146,0,0,0-10.323-29.413c-3.084-6.12-5.989-12.559-10.689-17.634-1.485-.205-2.75-1.681-4-2.505-1.271-.248-2.213-1.327-3.5-1.66-2.455-.639-7.949-2-10.04-.364-.083-.023-.166-.042-.249-.065-.409.454-.971.113-1.277-.294-1.045-.811-5.611-.895-6.129-2.14-2.7-2.452-3.425-7.611-3.425-10.63-1.01-1.136-1.08-.925-2.452-1.525A19.752,19.752,0,0,0,97.266,2.6c-10.2-6.7-25.007.36-27.4,12.008-3.776,2.991-7.662,6.029-12.286,7.587a15.85,15.85,0,0,0-7.223-1.534c-1.785-.065-4.253-1.1-5.413.782-19.52,6.393-31.3,24.985-39.679,42.6-1.174,2.508-2.579,5.135-2.22,7.992.247,3.422,3.96,5.459,3.258,9.086-1.02,9.977-2.18,19.944-3.241,29.918Q2,120.771.944,130.5Z" transform="translate(9.084 -5.284)" fill="#d08b5b"/>
    <path id="_Top" data-name="ðŸ‘• Top" d="M41.956,1.123c1.16-1.88,3.627-.847,5.413-.782a15.85,15.85,0,0,1,7.223,1.534l.276-.095.134.3L45.176,3.462l4.955,8.989q17.5,16.379,38.908,14.559,21.193-1.8,29.13-22.643l.159-.423-6.721-1.867V1.365a.6.6,0,0,0,.731-.156c.083.023.166.043.249.065,2.091-1.634,7.585-.275,10.04.364,1.288.332,2.231,1.412,3.5,1.66,1.255.824,2.52,2.3,4,2.505,4.7,5.075,7.606,11.514,10.689,17.634A146.147,146.147,0,0,1,151.145,52.85c1.882,6.152.3,7.2-.891,9.071l-.1.015A28.511,28.511,0,0,0,145.638,63a59.477,59.477,0,0,0-8.8,3.708l-.333.174,3.651,64.906-2.28.079c-37.239,1.272-74.611,1.973-111.812-.308l3.48-61.768L.6,53.718a5.787,5.787,0,0,1-.541-2C-.3,48.86,1.1,46.234,2.277,43.725,10.654,26.109,22.435,7.516,41.956,1.123Z" transform="translate(12.077 15.035)" fill="#78e185"/>
    <path id="_Ink" data-name="ðŸ– Ink" d="M152.9,148.359h0a1.542,1.542,0,0,1-1.419-1.074l-.037.022-.009.005a7.338,7.338,0,0,1-.217-3.347c.017-.191.034-.388.048-.579.1-1.3.19-2.637.279-3.968.166-2.491.319-5.022.453-7.524.447-8.354.758-17.32.95-27.409.035-1.828.063-3.678.089-5.468.04-2.666.081-5.422.147-8.136.019-.787.04-1.587.061-2.361v-.057c.039-1.47.08-2.991.108-4.486.009-.467.013-.944.016-1.405v-.006c.008-1.019.017-2.073.078-3.106-.774.133-1.493.281-2.2.452A37.985,37.985,0,0,0,147.6,81c-.351.124-.7.276-1.071.438h0a6.884,6.884,0,0,1-2.635.761h-.012a1.841,1.841,0,0,1-1.009-.29c.86,8.511,1.468,17.19,2.055,25.583h0c.075,1.075.153,2.186.231,3.291.205,2.911.429,5.869.645,8.729.564,7.457,1.147,15.167,1.458,22.755a2.1,2.1,0,0,1-.626,1.5,2.154,2.154,0,0,1-1.514.643,2,2,0,0,1-1.492-.638,2.509,2.509,0,0,1-.647-1.5c-.055-.628-.106-1.248-.152-1.824a8.775,8.775,0,0,1-4.53.8c-.391,0-.8,0-1.188.016-1.939.069-3.991.14-6.1.212-3.927.133-7.889.262-11.774.383-12.573.39-27.452.822-42.479,1.065l-1.1.018c-6.6.107-13.418.217-20.128.217H55.52c-3.952,0-7.461-.041-10.728-.125-1.819-.047-3.588-.153-5.259-.316-.887-.086-1.782-.22-2.648-.348h0c-.528-.079-1.074-.16-1.616-.23q-.01.2-.02.4c-.009.184-.019.379-.029.57-.006.111-.012.226-.017.337v.024a6.426,6.426,0,0,1-.988,3.828,2.1,2.1,0,0,1-1.6.856,1.837,1.837,0,0,1-1.029-.331,2.838,2.838,0,0,1-1.163-1.836,9.068,9.068,0,0,1-.147-2.244c.024-.859.074-1.732.121-2.576v-.007c.022-.4.046-.811.066-1.217q.2-3.9.391-7.81c.557-11.108,1.283-22.276,1.92-31.872.054-.812.109-1.631.165-2.469.282-4.212.574-8.568.79-12.857.127-2.534.175-4.468.156-6.268-1.776-.014-3.4-.048-4.976-.106a10.675,10.675,0,0,1,3.422,2.2,1.482,1.482,0,0,1,.217,1.566,1.088,1.088,0,0,1-1.017.708,1.264,1.264,0,0,1-.138-.008,14.1,14.1,0,0,1-5-1.935c-.422-.228-.859-.464-1.291-.682-2.234-1.128-4.11-2.076-6-3.04l-3.091-1.574-.509-.259L12.915,74.22c-.469-.239-.952-.475-1.42-.7-.643-.314-1.307-.639-1.952-.979-.079,3.969-.481,7.991-.87,11.88l0,.036c-.078.779-.158,1.584-.235,2.376-.28,2.893-.579,5.833-.868,8.675v.009c-.643,6.321-1.308,12.857-1.8,19.3-.38,4.973-.627,9.6-.757,14.14-.061,2.14-.093,4.39-.1,7.08q0,.333,0,.666v0c0,1.01-.007,2.055,0,3.082,0,.18.005.363.008.525a9.34,9.34,0,0,1-.1,2.012,2.018,2.018,0,0,1-.175.632,4.06,4.06,0,0,1-.2.458l-.02-.025-.018-.024a2.68,2.68,0,0,1-2.083,1.15,1.8,1.8,0,0,1-.938-.255,2.266,2.266,0,0,1-.791-.845A7.012,7.012,0,0,1,.014,139.8c0-.28.008-.569,0-.845C0,137.424-.006,136.166.01,135c.033-2.566.111-5.228.23-7.912.2-4.6.537-9.264,1.015-14.256.432-4.5.971-9.149,1.648-14.2.635-4.737,1.382-9.494,2.219-14.139a130.762,130.762,0,0,1,2.8-12.882l-.1-.061h0c-.046-.028-.093-.057-.139-.087a10.489,10.489,0,0,1-1.68-1.318,6.067,6.067,0,0,1-1.25-1.718,5.515,5.515,0,0,1-.5-2.617,9.785,9.785,0,0,1,.514-2.641c.972-3.011,2.178-6.2,3.8-10.046,1.51-3.588,2.992-6.728,4.53-9.6a73.747,73.747,0,0,1,5.628-8.992,59.845,59.845,0,0,1,6.289-7.267,50.718,50.718,0,0,1,7.411-6.032,42.287,42.287,0,0,1,8.43-4.348,38.1,38.1,0,0,1,4.566-1.4A36.76,36.76,0,0,1,50.2,14.67H50.2a.051.051,0,0,1,.05.047.061.061,0,0,1-.041.07,48.242,48.242,0,0,0-9.471,3.85,58.621,58.621,0,0,0-8.567,5.6,54.49,54.49,0,0,0-4.638,4.085l.024,0,.1-.016c.446-.067.9-.112,1.344-.155h.01l.432-.043c.932-.1,1.884-.144,2.8-.189h0l.774-.039.8-.043c2.015-.109,4.1-.221,6.151-.3l1.723-.065c2.933-.112,5.965-.227,8.944-.227,1.307,0,2.5.022,3.66.066a1.841,1.841,0,0,1,.588.117,25.416,25.416,0,0,1-1.61-2.568,25.085,25.085,0,0,1-1.557-3.372,12.932,12.932,0,0,1-.81-3.619.511.511,0,0,1-.306-.464.5.5,0,0,1,.294-.45c0-.019,0-.037,0-.056s0-.052,0-.077a.086.086,0,0,1,.087-.086.1.1,0,0,1,.079.041l.042.059.042.059.559-.06a37.885,37.885,0,0,0,7.2-1.245,21.864,21.864,0,0,0,3.51-1.426,27.3,27.3,0,0,0,3.246-1.96,22.127,22.127,0,0,0,5.217-5.123A21.763,21.763,0,0,0,72.91,3.66c.24-.508.429-1.016.634-1.579.027-.073.053-.149.078-.223a3.892,3.892,0,0,1,.34-.795,2.648,2.648,0,0,1,1-.812l.108-.06A1.513,1.513,0,0,1,75.824,0a1.6,1.6,0,0,1,.754.183,1.237,1.237,0,0,1,.538.545A.385.385,0,0,0,77,.656a0,0,0,0,0-.005,0,1.83,1.83,0,0,0,.339.4,1.953,1.953,0,0,1,.266.985,3.7,3.7,0,0,1-.343,1.361c-.3.765-.606,1.446-.923,2.082a22.535,22.535,0,0,1-2.327,3.682,24.878,24.878,0,0,1-6.486,5.893,25.076,25.076,0,0,1-5.554,2.6,22.538,22.538,0,0,1-3.089.774,18.312,18.312,0,0,1-3.131.282,13.832,13.832,0,0,1-3.655-.467c.381.58.756,1.176,1.119,1.753a43,43,0,0,0,3.032,4.4,42.753,42.753,0,0,0,3.075,3.371,38.979,38.979,0,0,0,3.43,3.007,36.169,36.169,0,0,0,7.721,4.527A46.585,46.585,0,0,0,79,38.049a56.1,56.1,0,0,0,12.088,1.34,49.728,49.728,0,0,0,6.54-.424,34.691,34.691,0,0,0,8.329-2.139,26.566,26.566,0,0,0,7.367-4.389,28.028,28.028,0,0,0,5.09-5.707,30.073,30.073,0,0,0,3.4-6.84,28.408,28.408,0,0,1-6.045-1.582,14.529,14.529,0,0,1-5.192-3.422,11.525,11.525,0,0,1-1.9-2.677,13.948,13.948,0,0,1-1.146-3.092,17.448,17.448,0,0,1-.289-6.572.089.089,0,0,1,.094-.078.115.115,0,0,1,.12.107,12.206,12.206,0,0,0,.4,3.141,8.617,8.617,0,0,0,1.333,2.852,20.9,20.9,0,0,0,3.776,4.156,14.868,14.868,0,0,0,5.6,2.721,41.422,41.422,0,0,0,6.187,1.069,2.367,2.367,0,0,1,1.334.573,1.757,1.757,0,0,1,.566,1.328,2.091,2.091,0,0,1-.585,1.366,2.153,2.153,0,0,1-.1.765,29.412,29.412,0,0,1-3.686,7.653c.735-.116,1.491-.178,2.222-.237.223-.018.475-.039.715-.06,1.35-.121,2.731-.184,4.066-.244l.713-.033c1.2-.056,2.419-.075,3.6-.093h0c.455-.007.924-.014,1.385-.023l.238-.006c.178,0,.378-.01.583-.01a4.527,4.527,0,0,1,1.709.259,1.423,1.423,0,0,1,.608.47,1.394,1.394,0,0,1-.594,2.117,4.4,4.4,0,0,1-1.687.261c-.22,0-.434-.007-.623-.013h0l-.232-.007c-.473-.011-.948-.02-1.407-.029-1.175-.022-2.389-.045-3.58-.109l-.85-.045c-1.358-.071-2.762-.144-4.136-.274l-.6-.055H124.4a20,20,0,0,1-3.131-.447,32.8,32.8,0,0,1-3.328,3.774,33.118,33.118,0,0,1-3.85,3.214c-.252.18-.508.351-.756.516,7.677-.752,15.548-.823,23.161-.893h.015c2.233-.02,4.543-.041,6.806-.079h.028a1.213,1.213,0,0,1,.975.435c-.719-1.516-1.42-2.878-2.142-4.162a47.868,47.868,0,0,0-7.861-10.565,32.274,32.274,0,0,0-5.106-4.156,25.461,25.461,0,0,0-5.911-2.859.114.114,0,0,1-.082-.131.118.118,0,0,1,.116-.1.141.141,0,0,1,.029,0,29.334,29.334,0,0,1,6.9,2.378,31.011,31.011,0,0,1,3.158,1.791,34.1,34.1,0,0,1,2.981,2.17,32.452,32.452,0,0,1,2.665,2.43c.817.831,1.618,1.734,2.381,2.683a45.617,45.617,0,0,1,4.019,5.96,66.986,66.986,0,0,1,3.218,6.482c.856,1.964,1.72,4.148,2.642,6.679A247.858,247.858,0,0,1,160.63,76.3a2.221,2.221,0,0,1-.4,1.859,2.087,2.087,0,0,1-1.625.8,35.907,35.907,0,0,0-4.339.371c.212,1.363.32,2.769.424,4.129v.013c.039.51.08,1.038.125,1.552.223,2.528.436,5.006.591,7.533.267,4.358.426,8.875.486,13.808.051,4.2.029,8.725-.067,13.818-.087,4.62-.24,9.264-.453,13.8-.108,2.3-.232,4.62-.367,6.9-.028.476-.037.973-.047,1.5a24.553,24.553,0,0,1-.155,2.763,6.718,6.718,0,0,1-.774,2.512A1.294,1.294,0,0,1,152.9,148.359ZM35.919,128.806c-.093,2.011-.194,4.152-.3,6.281-.041.814-.082,1.653-.121,2.442l0,.048c-.067,1.36-.137,2.767-.208,4.15.654-.1,1.316-.207,1.956-.314,1.024-.171,2.082-.348,3.132-.47,1.82-.212,3.685-.312,5.487-.409l.613-.033c3.1-.169,6.254-.27,9.3-.368h0l.071,0,2.4-.078c8.17-.275,16.477-.478,24.51-.675h.021c5.884-.144,11.969-.293,17.952-.469,7.045-.207,14.19-.437,21.237-.682,3.568-.124,7.175-.255,10.723-.388,1.674-.063,3.442-.13,5.256-.2.307-.012.619-.027.921-.042.594-.029,1.208-.06,1.812-.065h.04a4.057,4.057,0,0,1,1.918.477c-.238-3.3-.429-6.663-.614-9.914l0-.063c-.063-1.113-.129-2.263-.2-3.393q-.145-2.472-.291-4.943v-.017c-.287-4.861-.583-9.888-.862-14.833a2.416,2.416,0,0,1-.753.122,2.381,2.381,0,0,1-.628-.085c-5.212.227-10.408.246-15.715.246h-3.024c-.966,0-2.237,0-3.507,0-2.159.007-4.281.011-6.3.011-12.9,0-24.212-.154-34.593-.47-7.68-.234-14.435-.514-20.651-.857-3.028-.167-6.6-.388-10.111-.759l-.144-.015c-1.706-.18-3.471-.366-5.2-.611l-.573-.079c-.821-.113-1.668-.229-2.486-.409-.016.447-.036.972-.053,1.484-.132,3.9-.285,8.043-.468,12.662,2.732-.069,5.5-.144,8.17-.216,4.217-.114,8.577-.232,12.874-.33,11.675-.267,23.534-.462,35-.651l.563-.009,5.306-.088c6.856-.114,13.8-.264,20.643-.446,3.347-.089,6.748-.187,10.109-.292l3.136-.1.126,0,2.214-.071.7-.022h.021c.591-.018,1.2-.037,1.8-.059.051,0,.115-.007.2-.015a1.248,1.248,0,0,1,.536-.732,1.689,1.689,0,0,1,.923-.254,2.208,2.208,0,0,1,.742.132,1.74,1.74,0,0,1,1.214,1.555,2.222,2.222,0,0,1-.271,1.2,2.249,2.249,0,0,1-.923.918,5.547,5.547,0,0,1-2.42.46c-.815.029-1.644.055-2.446.08h-.027l-.083,0-.813.025c-2.247.071-4.516.13-6.518.183h-.011c-16.8.439-30.844.643-44.207.643l-2.135,0c-13.128-.022-27.252-.469-44.449-1.405-.168,4.2-.331,8.009-.5,11.647,7.092-.534,14.083-.821,22.4-1.088,2.783-.089,5.612-.2,8.348-.3H66.7c4.162-.156,8.465-.317,12.7-.424,5.356-.135,10.8-.213,16.061-.289l4.575-.067c7.151-.109,14.346-.206,21.057-.294l9.35-.123,1.178-.016,3.262-.043,2.213-.029c.277,0,.561-.015.835-.026.339-.014.689-.028,1.032-.028.242,0,.458.007.659.021a3.307,3.307,0,0,1,2.019,1.012.986.986,0,0,1,.31.733,1.054,1.054,0,0,1-.31.78,3.39,3.39,0,0,1-2.441,1.045c-.589.024-1.18.026-1.735.026h-.335c-.312,0-.593,0-.877,0l-5.9.059-3.945.04-7.847.079-6.072.062h-.15c-10.649.111-21.661.226-32.491.226l-2.98,0c-4.148-.008-8.362-.073-12.437-.136-2.823-.044-5.743-.089-8.621-.114-7.78-.069-14.1-.243-19.9-.546h0Zm10.734-28.634c3.817,0,7.66.076,11.375.15,2.845.057,5.7.116,8.46.174,10.628.222,21.618.451,32.43.52,3.023.019,6.091.029,9.119.029,3.828,0,7.711-.016,11.543-.047,2.821-.023,5.69-.085,8.465-.146,3.5-.076,7.12-.155,10.679-.155.513,0,1.023,0,1.515,0,.067,0,.136,0,.205.011-.153-2.788-.283-5.261-.4-7.561-.287-5.683-.477-10.833-.582-15.742l-.019-.909-.008-.375c-3,.116-6.044.3-8.99.481h0c-1.633.1-3.321.2-4.985.293-6.372.344-12.867.443-19.149.538-2.225.034-4.525.069-6.789.114l-25.939.52-.321.006h0c-8.464.17-17.217.346-25.827.456-1.138.015-2.3.033-3.42.05h-.035c-2.4.038-4.884.076-7.332.085a56.577,56.577,0,0,1,.673,7.469c.012.6.019,1.251.022,1.98,4.489-.218,9.2-.328,14.006-.328,2.608,0,5.316.032,8.049.1,12.857.3,26.53.607,39.911.744,5.247.054,10.569.081,15.817.081,1.3,0,2.624,0,3.934,0,3.348-.009,6.741-.028,10.086-.059,1.712-.016,3.409-.034,5.043-.054.244,0,.485-.011.717-.019h0c.289-.01.563-.019.836-.019a5.381,5.381,0,0,1,1.534.179,3.284,3.284,0,0,1,1.392.814.947.947,0,0,1,.284.677,1.018,1.018,0,0,1-.284.725,3.305,3.305,0,0,1-1.074.772,3.658,3.658,0,0,1-1.308.253c-.607.025-1.212.028-1.83.028h-.16c-.312,0-.635,0-.951,0-1.865.018-3.7.032-5.463.042-3,.018-6.046.027-9.046.027l-2.3,0c-13.306-.019-26.737-.226-39.919-.615-6.272-.185-13-.417-19.686-.856-7.25-.476-13.657-1.144-19.59-2.043,0,3.831-.141,7.727-.282,11.495l-.016.428c.926-.112,1.877-.144,2.8-.176h0c.3-.01.61-.021.914-.034C42.746,100.183,44.767,100.171,46.653,100.171ZM150.189,75.877c-1.485.042-3,.067-4.456.092h0c-1.138.019-2.315.04-3.483.067.129,1.177.226,2.068.315,2.887a7.5,7.5,0,0,1,3.244-1.7c.243-.082.472-.159.689-.238a36.12,36.12,0,0,1,3.693-1.111h0ZM7.461,64.35h0c-.013.049-.026.1-.039.146v0c-.018.065-.036.131-.053.2a3.205,3.205,0,0,0,1.175,3.683A15.773,15.773,0,0,0,11.6,70.1c.269.127.548.258.818.39l3.426,1.676.07.034L22.436,75.4c.916.449,1.828.9,2.52,1.241,2.7-.3,5.593-.531,8.844-.7-.048-.946-.109-1.78-.186-2.55a13.51,13.51,0,0,1-.1-1.589,4.766,4.766,0,0,1,.263-1.552.082.082,0,0,1,.076-.057.085.085,0,0,1,.056.022,6.213,6.213,0,0,1,1.665,3.307c.2.731.38,1.507.55,2.308,3.1-.132,6.253-.211,9.3-.288h.021c1.618-.041,3.29-.083,4.931-.132,12.424-.374,25.055-.646,37.27-.908h.067c4.9-.105,9.976-.214,14.962-.329l3.3-.077h.032c6.151-.145,12.511-.3,18.77-.3,1.386,0,2.747.007,4.045.022,1.235.014,2.49.033,3.7.051,2.248.034,4.573.068,6.86.074-.026-1.73-.025-3.056,0-4.3.011-.5.013-1.015.014-1.511,0-1.133.008-2.3.115-3.443-6.786-.185-13.58-.374-20.194-.559-15.861-.446-32.926-.858-50.245-.858-1.962,0-3.927.005-5.842.016-9.991.056-19.822.265-28.121.462-2.81.067-5.661.152-8.417.235h0c-6.061.181-12.328.369-18.5.369H7.461Zm145.392,9.37h0c.753,0,1.449.008,2.129.023a.921.921,0,0,1,.732.343,1,1,0,0,1,.162.84l.045,0,.094-.008c-1.307-5.718-2.454-10.354-3.61-14.591-1.024-3.753-2.131-7.75-3.42-11.735a100.784,100.784,0,0,0-4.4-11.434,1.518,1.518,0,0,1-.267,1.249,1.248,1.248,0,0,1-1.006.462c-2.272.015-4.588.048-6.827.08-3.054.044-6.211.089-9.32.089-2.964,0-5.58-.041-8-.126-2.856-.1-5.462-.262-7.967-.492a34.219,34.219,0,0,1-7.467,2.994,43.7,43.7,0,0,1-7.953,1.375c-1.508.124-3.053.187-4.593.187a58.7,58.7,0,0,1-7.836-.53A57.958,57.958,0,0,1,75.7,40.877a45.135,45.135,0,0,1-8.607-3.342.854.854,0,0,1-.445.3,9.86,9.86,0,0,1-2.453.232c-.245,0-.5.006-.747.014l-2.948.1-5.735.2-.371.013c-4.168.143-8.318.271-12.212.389-4.919.15-10.153.3-15.311.3-2.838,0-5.436-.043-7.943-.131a83.007,83.007,0,0,0-5.477,9.828c2.2.078,4.441.209,6.6.336h0c2.409.141,4.9.287,7.353.361,2.105.063,4.3.1,6.523.1,2.525,0,5.187-.041,7.914-.123,8.076-.242,16.279-.639,24.211-1.023,9.209-.446,18.731-.907,28.108-1.127,8.654-.2,17.431-.308,26.088-.309h.159c4.619,0,8.9.025,13.1.078,2.185.027,4.379.061,6.522.1,1.225.023,2.428.047,3.576.071a6.92,6.92,0,0,1,2.889.723.883.883,0,0,1,.562.865,1.377,1.377,0,0,1-.246.727,1.305,1.305,0,0,1-.588.489l-.085.033a5.325,5.325,0,0,1-1.9.484c-.089,0-.18,0-.278,0-.276,0-.559-.011-.831-.021h0c-.177-.007-.377-.015-.57-.019-1.292-.026-2.566-.051-3.787-.072-2.3-.039-4.708-.073-7.363-.1-4.16-.047-8.377-.071-12.533-.071l-2.2,0c-8.346.016-16.968.142-26.36.385-8.046.208-16.664.5-26.347.9l-2.1.088h-.017c-6.318.264-12.85.537-19.278.537h-.007c-1.449,0-2.873-.014-4.232-.042-4.489-.092-8.856-.335-12.981-.723-2.3-.217-4.311-.465-6.137-.759a53.256,53.256,0,0,1-6.042-1.3c-.909,1.951-1.774,3.981-2.571,6.033l-.342.878-.025.064c-.909,2.327-1.848,4.732-2.541,7.15,4.663-.8,9.648-1.432,15.241-1.934,5.546-.5,11.109-.811,15.336-1.028,4.982-.256,10.069-.437,15.552-.555,4.9-.1,9.99-.156,15.57-.156,8.721,0,17.343.126,25.362.262,18.378.312,37.057.884,55.12,1.438l1.268.039a1.636,1.636,0,0,1,1.257.588,1.865,1.865,0,0,1,.406,1.215,1.763,1.763,0,0,1-.411,1.136,1.533,1.533,0,0,1-1.2.51h-.056c-2.707-.072-5.46-.147-8.122-.219h-.043l-.824-.022-1.271-.035c.063.437.116.873.171,1.334l.009.078.017.144c.085.7.178,1.409.267,2.094.1.757.2,1.54.294,2.318.128,1.076.25,2.167.369,3.222l0,.02c1.619-.015,3.266-.06,4.86-.1h.006C148.837,73.776,150.862,73.72,152.852,73.72ZM26.6,29.266c-1.337,1.38-2.643,2.868-3.884,4.423-1.2,1.5-2.365,3.1-3.47,4.767,8.371-.8,16.654-1.242,22.935-1.536,4.611-.215,8.488-.393,12.423-.562l5.9-.253c.55-.024,1.107-.07,1.7-.118.637-.053,1.3-.107,1.943-.131a37.57,37.57,0,0,1-5.355-4.044,27.735,27.735,0,0,1-2.9-3.078,1.728,1.728,0,0,1-.377,1.324,1.622,1.622,0,0,1-1.2.556c-1.372.061-2.816.091-4.415.091-2.729,0-5.5-.088-8.185-.174l-1.727-.054c-2.1-.064-4.239-.166-6.3-.265l-.859-.041-.54-.025h0c-1-.046-2.026-.093-3.038-.192-.149-.015-.3-.028-.448-.04h0c-.4-.035-.822-.071-1.225-.141a1.438,1.438,0,0,1-.786-.371C26.716,29.358,26.662,29.314,26.6,29.266Z" transform="translate(6.338 0.634)"/>
  </g>
  <g id="HEAD" transform="translate(78.592 38.043)">
    <path id="_Skin-2" data-name="âœ‹ Skin" d="M39.135,0c11.971,0,24.352,9.3,28.74,15.238,3.689,4.991,5.676,27.558,5.676,42.809,0,3.19,1.756,9.2,1.243,12.253C72.917,81.48,64.736,90.857,48.546,90.857s-27.8-6.434-39.834-23.708C2.873,67.149.043,62.66,0,55.575a10.56,10.56,0,0,1,5.636-9.662S3.614,17.957,8.712,10.678,27.165,0,39.135,0Z" transform="translate(11.892 15.906)" fill="#d08b5b"/>
    <path id="_Ink-2" data-name="ðŸ– Ink" d="M50.746,97.43a28.387,28.387,0,0,1-5.255-.478,23.111,23.111,0,0,1-4.98-1.517,18.78,18.78,0,0,1-4.405-2.682,17.106,17.106,0,0,1-3.53-3.974.1.1,0,0,1-.008-.109.131.131,0,0,1,.114-.063.125.125,0,0,1,.08.029,19.671,19.671,0,0,0,2.771,1.888A21.361,21.361,0,0,0,38.5,91.9a30.06,30.06,0,0,0,6.429,1.56,31.6,31.6,0,0,0,4.373.3,32.8,32.8,0,0,0,4.894-.369,31.785,31.785,0,0,0,4.8-1.11,29,29,0,0,0,4.529-1.857,25.545,25.545,0,0,0,4.084-2.609,17.022,17.022,0,0,0,3.807-4.22,18.15,18.15,0,0,0,1.348-2.522,17.935,17.935,0,0,0,.93-2.7,17.092,17.092,0,0,0,.482-2.865,16.332,16.332,0,0,0-.023-2.907,15.152,15.152,0,0,0-.994-3.687c-.212-.584-.432-1.187-.613-1.8a1.659,1.659,0,0,1,.392-1.621c.052-.727.139-1.47.224-2.188.09-.768.184-1.56.234-2.335.107-1.7.173-3.425.2-5.119.042-3.388-.092-6.961-.4-10.618-.327-3.885-.991-7.778-1.633-11.542-.425-2.494-.865-5.072-1.2-7.624a1.061,1.061,0,0,1-.715.286,1.118,1.118,0,0,1-.521-.135l-.049-.027-.257-.148a.392.392,0,0,0-.047,0c-.369.036-.75.054-1.132.054a13.9,13.9,0,0,1-4.14-.654,15.5,15.5,0,0,1-4.866-2.521,22.129,22.129,0,0,0-.4,4.284,1.093,1.093,0,0,1-.351.816,1.173,1.173,0,0,1-.8.3,1.242,1.242,0,0,1-.561-.135,71.479,71.479,0,0,1-9.576-5.873l-.222,1.139,0,.012c-.275,1.412-.559,2.873-.841,4.311a.918.918,0,0,1-.388.584,1.185,1.185,0,0,1-.673.207,1.067,1.067,0,0,1-.539-.14,20.27,20.27,0,0,1-5.833-5.123c-.381.731-.687,1.313-.961,1.833L37,26.061a3.922,3.922,0,0,1-2.167,2.179,1.924,1.924,0,0,1-.509.07,1.818,1.818,0,0,1-1.161-.428,2.486,2.486,0,0,1-.738-1.064c-.11-.3-.216-.623-.316-.957a55.946,55.946,0,0,1-3.217,6.292,75.45,75.45,0,0,1-5.562,7.74l-.583.744a.851.851,0,0,1-.679.356,1.337,1.337,0,0,1-1.2-1.134c-.05-.454-.094-.926-.135-1.442-1.465,2.963-2.74,5.358-4.012,7.536l.205.807c.416,1.676.789,3.389,1.149,5.046.152.7.309,1.421.468,2.135a1.941,1.941,0,0,1-.289,1.454,1.242,1.242,0,0,1-.85.556,9.017,9.017,0,0,0-.958.213,5.779,5.779,0,0,1-1.434.247,2.434,2.434,0,0,1-.8-.131,2.958,2.958,0,0,1-1.669-1.795c-.106-.213-.214-.432-.338-.648a3.972,3.972,0,0,0-.387-.549l-.036.047a.114.114,0,0,1-.093.046.175.175,0,0,1-.139-.076.12.12,0,0,1-.015-.114l.062-.154a12.055,12.055,0,0,0-1.112-1c-.164-.136-.333-.276-.5-.417a5.88,5.88,0,0,0-.976-.08,5.379,5.379,0,0,0-2.612.619,5.188,5.188,0,0,0-1.3,1.1,6.263,6.263,0,0,0-.912,1.435,8.117,8.117,0,0,0-.726,3.33,15.456,15.456,0,0,0,2.158,7.82A6.779,6.779,0,0,0,6.7,67.208a4.536,4.536,0,0,0,1.444.952,6.843,6.843,0,0,0,1.715.37,7.286,7.286,0,0,1,1.646.34,1.418,1.418,0,0,1,.848.836,1.134,1.134,0,0,1-.11.983c-.02.034-.042.067-.063.1h0l-.031.046.328.436c.207.277.45.608.68.963.35.4.716.8,1.071,1.191h0c.214.234.435.475.65.715.72.8,1.437,1.628,2.131,2.429l0,0c.323.372.656.758.986,1.136.855.979,1.836,2,3.087,3.215.427.415.906.81,1.37,1.191a15.845,15.845,0,0,1,1.828,1.667,3,3,0,0,1,.61,1.088,2.258,2.258,0,0,1,.066,1.182,1.588,1.588,0,0,1-1.014,1.131,2.161,2.161,0,0,1-.8.158c-1.2,0-2.281-1.018-3.151-1.836l-.246-.23-.046-.043a30.567,30.567,0,0,1-5.309-6.358,4.661,4.661,0,0,1-2.606.785,4.128,4.128,0,0,1-2.349-.691,4.333,4.333,0,0,1-1.614-2.33,3.4,3.4,0,0,1-.747.091H7.031c-.155.09-.283.161-.4.223a2.441,2.441,0,0,1-1.121.284,1.926,1.926,0,0,1-1.03-.286,1.833,1.833,0,0,1-.72-.876,2.887,2.887,0,0,1-.11-1.683,9.844,9.844,0,0,1,.525-1.654l.083-.214a18.778,18.778,0,0,1,.791-1.843,10.029,10.029,0,0,1-2.239-2.395A16.643,16.643,0,0,1,.492,62.812,18.568,18.568,0,0,1,.037,59.8a15.342,15.342,0,0,1,.072-2.911A10.651,10.651,0,0,1,1.1,53.573,9.561,9.561,0,0,1,2,52.079a8.17,8.17,0,0,1,1.165-1.273L3.1,50.641a24.948,24.948,0,0,1-1.206-3.757,38.9,38.9,0,0,1-.643-4.635A44.48,44.48,0,0,1,1.439,32.4,43.29,43.29,0,0,1,3.549,23.4a35.253,35.253,0,0,1,4.158-8.223,7.06,7.06,0,0,1-1.214-1.95,3.983,3.983,0,0,1-.258-1.094A3.58,3.58,0,0,1,6.793,9.91a2.814,2.814,0,0,1,.8-.816,2.47,2.47,0,0,1,.627-.266,2.881,2.881,0,0,0,.51-.2l.107-.059c.1-.056.088-.074.047-.176a1.869,1.869,0,0,1-.1-.331,4.2,4.2,0,0,1,.063-2.379,2.514,2.514,0,0,1,1.739-1.527,3.113,3.113,0,0,1,.9-.134,3.726,3.726,0,0,1,1.985.62,6.194,6.194,0,0,1,1.571,1.452,19.434,19.434,0,0,1,4.566-2.306c1.586-.586,3.218-1.044,4.89-1.5A67.554,67.554,0,0,1,35.449.329,65.9,65.9,0,0,1,42.076,0a77.428,77.428,0,0,1,7.9.417c2.508.255,5.086.622,7.883,1.123a1.224,1.224,0,0,1,1.012.928c2.1.1,4.236.229,6.3.358,1.384.086,2.816.176,4.223.253a1.769,1.769,0,0,1,.838.255,1.624,1.624,0,0,1,.777,1.356,1.785,1.785,0,0,1-.2.856c-.12.233-.243.458-.358.666L70.6,6.16a5.723,5.723,0,0,1,1.743-.315,3.1,3.1,0,0,1,1.477.347,2.922,2.922,0,0,1,1.364,1.528,3.614,3.614,0,0,1,.167,2.058,5.47,5.47,0,0,1-.339,1.027c.105-.007.209-.01.308-.01a4.226,4.226,0,0,1,.554.036,3.311,3.311,0,0,1,1.061.325,3.049,3.049,0,0,1,1.68,2.613,6.688,6.688,0,0,1-.878,3.471,11.806,11.806,0,0,1-2.306,2.968,2.977,2.977,0,0,1,.251,1.8,2.892,2.892,0,0,1-.786,1.544,4.608,4.608,0,0,1-1.431.967A11.62,11.62,0,0,1,74,28.965a1.108,1.108,0,0,1-.317.668A1.282,1.282,0,0,1,73.05,30a52.932,52.932,0,0,1,2.05,7.438c.456,2.223.843,4.639,1.217,7.6a92.192,92.192,0,0,1,.7,10.815c.013,1.636-.014,3.284-.082,4.9l-.028.612c-.018.37-.032.749-.046,1.115a30.557,30.557,0,0,1-.359,4.249,14.728,14.728,0,0,1,1.7,6.188,19.087,19.087,0,0,1-.936,7.615,21.057,21.057,0,0,1-3.326,6.234,24.724,24.724,0,0,1-5.05,4.88,29.393,29.393,0,0,1-6.2,3.441,31.39,31.39,0,0,1-6.79,1.918A31.977,31.977,0,0,1,50.746,97.43ZM12.109,61.548a1.46,1.46,0,0,1-.818-.264A7.955,7.955,0,0,1,9.23,58.879L9.049,58.6l-.066-.1c-.057-.086-.114-.175-.169-.261v0a4.514,4.514,0,0,0-.774-.991l-.086-.076a1.211,1.211,0,0,0-.441-.263.847.847,0,0,0-.23-.029,1.2,1.2,0,0,0-.5.112.645.645,0,0,0-.344.344l-.013.04a.167.167,0,0,1-.167.128.177.177,0,0,1-.183-.174,1.921,1.921,0,0,1,.56-1.4,2.268,2.268,0,0,1,1.61-.65,2.406,2.406,0,0,1,.415.036,5.2,5.2,0,0,1,2.264,1.2l.33.262.175.137.006,0a7.5,7.5,0,0,1,2.084,2.127,1.691,1.691,0,0,1-.078,1.672,1.8,1.8,0,0,1-.567.592A1.419,1.419,0,0,1,12.109,61.548Z" transform="translate(10.541 11.624)"/>
  </g>
  <g id="FACE" transform="translate(112.183 77.354)">
    <path id="_Ink-3" data-name="ðŸ– Ink" d="M22.824,40.539a8.045,8.045,0,0,1-3.052-.61,8.621,8.621,0,0,1-1.992-1.145,8.487,8.487,0,0,1-1.622-1.636,1.676,1.676,0,0,1-.338-1.3,1.871,1.871,0,0,1,.728-1.172,1.793,1.793,0,0,1,1.067-.372,1.548,1.548,0,0,1,.238.018,1.648,1.648,0,0,1,1.1.73l.065.09A5.7,5.7,0,0,0,21.108,36.9a4.735,4.735,0,0,0,2.069.483,4.583,4.583,0,0,0,.513-.029,5.388,5.388,0,0,0,2.278-.8,10.668,10.668,0,0,0,1.93-1.611c.138-.141.284-.294.474-.5a.751.751,0,0,1,.394-.3.806.806,0,0,1,.256-.041.871.871,0,0,1,.714.373.8.8,0,0,1,.135.524,4.812,4.812,0,0,1-.57,1.864,6.221,6.221,0,0,1-1.22,1.567,7.841,7.841,0,0,1-1.847,1.288,7.69,7.69,0,0,1-2.05.7A7.548,7.548,0,0,1,22.824,40.539Zm2.148-12.17h0a7.373,7.373,0,0,1-2.63-.53,13.281,13.281,0,0,1-3.093-1.756,1.189,1.189,0,0,1-.432-.687,1.423,1.423,0,0,1,.061-.771,1.754,1.754,0,0,1,.521-.753,1.267,1.267,0,0,1,.812-.317,1.151,1.151,0,0,1,.628.193l.209.161,0,0a16.744,16.744,0,0,0,1.936,1.347,4.768,4.768,0,0,0,2.321.74,2.505,2.505,0,0,0,.981-.193,2.74,2.74,0,0,0,.913-.647,2.8,2.8,0,0,0,.531-2.255,4.26,4.26,0,0,0-1.13-2,8.241,8.241,0,0,0-1.711-1.381.531.531,0,0,1-.144-.61.8.8,0,0,1,.264-.38.809.809,0,0,1,.505-.167,1.076,1.076,0,0,1,.181.016,5.736,5.736,0,0,1,2.018.729,4.577,4.577,0,0,1,1.357,1.252,4.974,4.974,0,0,1,.866,3.322,5.475,5.475,0,0,1-.444,1.744,5.087,5.087,0,0,1-1,1.5A4.779,4.779,0,0,1,24.972,28.369ZM7.859,16.485a1.724,1.724,0,0,1-1.119-.439,1.744,1.744,0,0,1-.587-1.128,12.706,12.706,0,0,1,.067-3.308c.04-.321.081-.654.11-1.012a1.98,1.98,0,0,1,.75-1.415,2.31,2.31,0,0,1,1.421-.5,1.751,1.751,0,0,1,1.075.338,1.594,1.594,0,0,1,.594,1.057,8.877,8.877,0,0,1-.926,5.469,1.754,1.754,0,0,1-.619.716A1.427,1.427,0,0,1,7.859,16.485Zm25.119-.75a1.508,1.508,0,0,1-1.183-.507A4.624,4.624,0,0,1,31.074,14a5.342,5.342,0,0,1-.368-1.477,3.131,3.131,0,0,1,.853-2.687,1.772,1.772,0,0,1,.137-.208,1.933,1.933,0,0,1,1.487-.856,1.611,1.611,0,0,1,.452.067,2.175,2.175,0,0,1,1.453,1.268,4.486,4.486,0,0,1,.18,2.453,8.214,8.214,0,0,1-.744,2.314,1.5,1.5,0,0,1-.643.635A1.947,1.947,0,0,1,32.979,15.735ZM.278,7.854a.274.274,0,0,1-.229-.14.306.306,0,0,1-.018-.3A10.425,10.425,0,0,1,2.368,4.454,14.446,14.446,0,0,1,5.5,2.317a13.445,13.445,0,0,1,3.714-1.3l.4-.069A9.66,9.66,0,0,1,11.226.776a2.5,2.5,0,0,1,2,.746,1.7,1.7,0,0,1,.4,1.208,1.106,1.106,0,0,1-.4.789,3.08,3.08,0,0,1-2.112.62c-.166,0-.338,0-.5-.008H10.6c-.16,0-.341-.009-.521-.009s-.314,0-.452.012a14.274,14.274,0,0,0-3.143.536A21.357,21.357,0,0,0,.424,7.806.26.26,0,0,1,.278,7.854Zm38.247-1.6h0l-.167-.042A9.458,9.458,0,0,1,36.524,5.5l-.6-.293A16.537,16.537,0,0,0,33.8,4.3a25.089,25.089,0,0,0-4.845-1.07,1.979,1.979,0,0,1-.972-.369,1.457,1.457,0,0,1-.544-.828A1.482,1.482,0,0,1,27.609.786a1.581,1.581,0,0,1,.767-.661A1.725,1.725,0,0,1,29.03,0a1.926,1.926,0,0,1,.377.038l.3.062a21.676,21.676,0,0,1,5.232,1.7,10.579,10.579,0,0,1,2.3,1.514,6.719,6.719,0,0,1,1.627,2.1c.057.439,0,.548-.055.622L38.8,6.06l-.015.02a.421.421,0,0,1-.26.173Z" transform="translate(11.197 10.99)"/>
  </g>
  <g id="ACCESORIES" transform="translate(88.521 88.978)">
    <path id="_Ink-4" data-name="ðŸ– Ink" d="M64.52.082a1.61,1.61,0,0,1,1.961,1.959c-.277,1.3-1.637,2.351-2.539,3.27-.946.968-1.912,1.917-2.913,2.83a72.089,72.089,0,0,1-5.983,4.922l-.639.468c-1.915,1.4-3.825,2.771-5.877,3.985q-1.667.983-3.37,1.9c-.405.218-.9.554-1.409.8a9.514,9.514,0,0,1,3.6,5.675c.769,5.077-2.5,9.781-7.116,11.652a15.06,15.06,0,0,1-7.32.921c-2.5-.286-5.037-1.025-6.661-3.075a10.98,10.98,0,0,1-2.066-6.423,11.407,11.407,0,0,1,.19-3.1c-1,.008-1.99,0-2.977.015-2.438.023-4.88.034-7.32-.034-2.516-.072-5.02-.184-7.527-.408-1.1-.1-2.2-.262-3.29-.419a12.362,12.362,0,0,1-3.228-.643c-.068-.027-.04-.125.019-.144a13.768,13.768,0,0,1,3.363-.349L4.5,23.819c.9-.053,1.79-.1,2.688-.132,2.074-.068,4.147-.085,6.22-.121l.889-.017c2.44-.049,4.88-.076,7.32-.154,1.012-.032,2.026-.091,3.042-.146a4.556,4.556,0,0,1,.458-.752A10.744,10.744,0,0,1,26.9,20.583a13.617,13.617,0,0,1,4.551-2.633,19.085,19.085,0,0,1,5.9-.828c1.772.037,4.3.287,5.109,1.736a3.783,3.783,0,0,0,2.087-.491q1.607-1.227,3.156-2.521c1.919-1.6,3.892-3.183,5.709-4.9,1.874-1.771,3.733-3.572,5.516-5.432.9-.932,1.789-1.866,2.658-2.822C62.473,1.72,63.236.519,64.52.082Z" transform="translate(6.338 -12.681)"/>
  </g>
</svg>
