<svg id="peep-70" xmlns="http://www.w3.org/2000/svg" width="240" height="324" viewBox="0 0 240 324">
  <g id="BODY" transform="translate(31.056 135.053)">
    <path id="_Skin" data-name="âœ‹ Skin" d="M157.3,142.745c-.513-4.762-.828-9.557-1.01-14.343s.056-9.619.16-14.4c.212-9.728.556-19.48-.218-29.193a130.27,130.27,0,0,0-5.062-27.116A69.133,69.133,0,0,0,146.4,44.958c-2.135-3.991-5.516-6.648-9.231-9.085-3.955-2.595-7.878-5.239-11.817-7.857-3.307-2.2-9.258-4.757-11.971-7.7-2.855-3.092-3.391-10.757-5.293-14.42C106.236,2.331,100.995,0,96.959,0c-6.68,0-11.741-.341-17.233,5.84-2.74,3.084-.56,6.2-3.432,9.162-2.641,2.722-9.395,5.519-12.8,7.1-4.077,1.891-8.256,3.561-12.5,5.049-4.325,1.517-8.76,2.648-13.109,4.081-4.169,1.373-9.613,7.031-12.85,10.025C22.031,44.041,21.284,43.729,19,47.11,13.976,54.531,8.95,62.037,4.952,70.071c-1.991,4-3.92,8.212-4.642,12.657C-.461,87.469.3,92.05,1.553,96.64c1.272,4.671,5.312,9.118,6.629,13.778.607,2.147-1.475,4.49-.518,6.514a14.9,14.9,0,0,0,1.766,2.791c.528.678,2.589.528,2.856,1.358s-1.221,2.579-1.244,3.447c-.031,1.242-.081,2.484-.122,3.726l-.241,7.343L10.2,150.074a16.48,16.48,0,0,0,.25,4.609,3.342,3.342,0,0,1-.384-.418c-.346-.452-1.081-.069-.787.46a4.9,4.9,0,0,0,2.025,1.951c.963,1.42,146.827,4.593,147.545.44.4-2.33-.33-4.825-.623-7.14C157.926,147.564,157.563,145.163,157.3,142.745Z" transform="translate(4.437 -6.341)" fill="#d08b5b"/>
    <path id="_Top" data-name="ðŸ‘• Top" d="M0,0,150.654,8.24q.162,1.565.287,3.134c.774,9.713.43,19.465.218,29.193-.028,1.29-.066,2.583-.1,3.879L136.194,46.9,30.542,49.441,4.136,46.288l-1.1-1.9-.759-3.309c.326-1.358.983-2.764.607-4.1-.11-.388-.238-.774-.382-1.16l.136-2.655Z" transform="translate(9.731 67.093)" fill="#fdea6b"/>
    <path id="_Ink" data-name="ðŸ– Ink" d="M162.183,155.6a1.57,1.57,0,0,1-1.11-.432,4.294,4.294,0,0,1-1.026-2.635v0c-.02-.135-.041-.274-.064-.412-.157-.974-.308-1.942-.45-2.877-.32-2.092-.62-4.169-.892-6.176-.529-3.9-.985-7.949-1.356-12.032a13.326,13.326,0,0,0-.416-2.734,10.338,10.338,0,0,1-.273-2.934c-.064-2.511-.07-4.43-.021-6.224.01-.358.014-.728.018-1.086.008-.709.016-1.443.069-2.162-.613.084-1.237.157-1.84.228-.46.054-.937.11-1.409.171-.444.058-.9.138-1.376.222a16.947,16.947,0,0,1-2.853.338c-.177,0-.349-.006-.512-.019.177,1.89.372,2.147.578,2.418s.423.558.664,2.38c.568,4.263,1.236,8.791,2.165,14.682.354,2.244.763,4.519,1.159,6.719v.006c.391,2.171.794,4.415,1.145,6.628v0a3.4,3.4,0,0,1,.335,1.19,3.212,3.212,0,0,1-.123,1.234,1.941,1.941,0,0,1-.8,1.064,2.242,2.242,0,0,1-1.228.367,2.12,2.12,0,0,1-.491-.057,1.151,1.151,0,0,1-.084.787,1,1,0,0,1-.643.524l-.389.108a10.042,10.042,0,0,1-2.751.5h-.095c-.706-.011-1.426-.042-2.121-.071h-.02l-.808-.034c-2-.077-4.041-.082-6.012-.088h-.307l-6.109-.018h-.035l-6.076-.018-21.318-.06-.942,0L82.6,155.027l-1.993-.006c-6.523-.019-13.268-.038-19.915-.073-3.774-.019-7.467-.042-11.165-.114-2.572-.049-5.088-.116-7.58-.4-.294.1-.565.188-.828.271a2.411,2.411,0,0,1-.726.116,2.109,2.109,0,0,1-.925-.212,2.434,2.434,0,0,1-.743-.565,3.174,3.174,0,0,1-.779-1.758A13.915,13.915,0,0,1,38.2,147c.1-.4.222-.786.351-1.152a4.52,4.52,0,0,1-.076-.569c-.029-.429-.038-.87-.047-1.3v0c0-.191-.008-.389-.014-.583-.028-.929-.051-1.873-.073-2.785-.011-.455-.022-.926-.035-1.393-.066-2.657-.1-5.33-.106-7.944-.006-3.7.051-7.4.169-11.011-.3.011-.6.016-.932.016-.877,0-1.766-.039-2.625-.076h0c-.347-.015-.706-.031-1.055-.043-2.039-.074-4.114-.205-6.167-.391a110.666,110.666,0,0,1-12.158-1.8l-.236-.048h0c-.443-.09-.9-.184-1.35-.29.048.676.039,1.364.03,2.03v0c0,.2-.006.408-.007.608q0,.424,0,.848v0c-.006,1.228-.012,2.5-.036,3.747-.038,1.868-.088,3.763-.137,5.6v.008c-.028,1.041-.056,2.117-.082,3.176-.029,1.175-.061,2.365-.093,3.515v0c-.049,1.794-.1,3.65-.138,5.475-.031,1.448-.057,2.927-.076,4.4,0,.308,0,.626.007.933a7.634,7.634,0,0,1-.548,3.725,1.54,1.54,0,0,1-.655.644,1.938,1.938,0,0,1-.9.219,1.811,1.811,0,0,1-.868-.213,1.446,1.446,0,0,1-.619-.65,5.117,5.117,0,0,1-.458-1.882,15.8,15.8,0,0,1,.032-1.957v0c.015-.268.031-.544.041-.815.064-1.721.125-3.227.188-4.605.157-3.479.323-6.337.524-9,.248-3.295.522-6.235.837-8.989.172-1.509.393-3.029.606-4.5.021-.142.042-.292.061-.424.077-.54.157-1.1.266-1.645a1.873,1.873,0,0,1,.125-.842,6.779,6.779,0,0,1-1.622-.919,5.7,5.7,0,0,1-1.958-3.3,8.7,8.7,0,0,1-.254-2.045,13.764,13.764,0,0,1,.14-2.059c.09-.657.183-1.3.332-1.938A1.3,1.3,0,0,1,8,106.6a5.145,5.145,0,0,1-1.551-1.489,15.492,15.492,0,0,1-1.082-1.88l0,0-.088-.17c-.605-1.173-1.178-2.422-1.751-3.817A46.051,46.051,0,0,1,1.1,91.485,47.313,47.313,0,0,1,3.978,62.257,51.455,51.455,0,0,1,8,55.02c1.357-2.063,2.915-4.186,4.9-6.683,1.771-2.223,3.681-4.412,5.675-6.506,1.948-2.045,4.037-4.062,6.209-6a.236.236,0,0,1,.157-.065.225.225,0,0,1,.2.132.233.233,0,0,1-.036.255c-.253.313-.523.651-.824,1.031.377-.078.747-.146,1.1-.2a22.118,22.118,0,0,1,4.285-5.062,31.559,31.559,0,0,1,5.421-3.836c1.267-.718,2.589-1.381,4.04-2.028,1.293-.576,2.66-1.126,4.179-1.681,2.822-1.03,5.755-1.921,8.591-2.783,3.657-1.111,7.437-2.259,11.024-3.719A44.016,44.016,0,0,0,68.8,14.987,31.651,31.651,0,0,0,74.069,11.1a24.28,24.28,0,0,0,4.012-4.652,21.123,21.123,0,0,0,1.51-2.746c.166-.368.309-.748.448-1.116h0A11.657,11.657,0,0,1,80.816.828,1.636,1.636,0,0,1,82.271,0a1.852,1.852,0,0,1,1.315.538A1.589,1.589,0,0,1,84.045,1.7a7.668,7.668,0,0,1-.268,1.833,12.061,12.061,0,0,1-.652,1.815,24.3,24.3,0,0,1-1.873,3.32,27.346,27.346,0,0,1-4.914,5.607,34.482,34.482,0,0,1-2.816,2.2c-.938.66-1.942,1.3-2.984,1.894a49.331,49.331,0,0,1-6.361,3.03,128.55,128.55,0,0,1-13.538,4.248l-.065.018-1.051.288a78.068,78.068,0,0,0-13.321,4.7,44.544,44.544,0,0,0-4.921,2.762,41.047,41.047,0,0,0-4.48,3.369c.234-.027.738-.04,1.542-.04,2.463,0,7.362.128,12.1.252h.023c4.746.124,9.653.253,12.124.253.422,0,.768,0,1.029-.011,7.3-.212,14.835-.314,23.031-.314,6.513,0,13.375.066,20.978.2,7.228.128,14.593.323,21.889.581,3.586.126,7.234.272,11.153.446,2.029.09,3.817.173,5.468.256.328.016.66.028.981.039.462.017.94.034,1.408.062a15.737,15.737,0,0,1,4.457-.614,18.817,18.817,0,0,1,1.9.1,39.517,39.517,0,0,0-4.46-3.608,69.826,69.826,0,0,0-9.8-5.3c-1.757-.832-3.574-1.692-5.318-2.617a43.547,43.547,0,0,1-5.058-3.089,26.114,26.114,0,0,1-6.832-7.122,18.664,18.664,0,0,1-2.076-4.463,15.109,15.109,0,0,1-.674-4.889.175.175,0,0,1,.181-.166.146.146,0,0,1,.149.121,17.522,17.522,0,0,0,2.03,5.218,17.985,17.985,0,0,0,3.543,4.333,45.366,45.366,0,0,0,8.03,5.829c2.387,1.337,4.88,2.561,7.292,3.745h0c.969.476,1.971.967,2.953,1.46a54.116,54.116,0,0,1,9.615,5.943,50.385,50.385,0,0,1,4.27,3.838c.235.234.483.47.745.719a21.675,21.675,0,0,1,1.724,1.767c.039.016.08.034.118.053a18.46,18.46,0,0,1,3.325,2.029,19.406,19.406,0,0,1,2.755,2.583,22.488,22.488,0,0,1,2.235,3.035,27.55,27.55,0,0,1,1.765,3.383,45.766,45.766,0,0,1,3.37,14.944c.073.985.12,1.993.14,3a73.454,73.454,0,0,1,1.079,14.341,61.862,61.862,0,0,1-.447,6.252,45.744,45.744,0,0,1-1.188,6.151,36.822,36.822,0,0,1-1.952,5.544,24.535,24.535,0,0,1-3,5.063,7.282,7.282,0,0,1,1.022,2.914l0,.009c.027.137.053.266.08.393.023.11.046.219.071.334v0a8.463,8.463,0,0,1,.248,3.628,2.769,2.769,0,0,1-.992,1.549,3.884,3.884,0,0,1-1.713.733l-.022,0c-.051.009-.1.018-.155.026.116.668.2,1.355.271,2.019v.008c.045.39.091.794.144,1.18.284,2.05.524,4.083.756,6.05a6.164,6.164,0,0,0,.725,2.837,6.186,6.186,0,0,1,.729,2.834c.438,3.642.954,7.537,1.578,11.905.285,2,.6,4.072.936,6.163.127.787.3,1.826.473,2.872.018.109.037.217.055.321v0a4.519,4.519,0,0,1-.151,2.974,1.244,1.244,0,0,1-.533.559A1.557,1.557,0,0,1,162.183,155.6ZM9.9,106.209a1.306,1.306,0,0,1-.283.268c-.024.239-.054.482-.083.717v0a15.182,15.182,0,0,0-.147,1.81,8.136,8.136,0,0,0,.67,3.66,4.084,4.084,0,0,0,1.394,1.532,7.046,7.046,0,0,0,1.963.871,23.1,23.1,0,0,0,3.268.614c.439.06.853.117,1.24.183,3.5.589,7.1,1.026,10.69,1.3,1.8.138,3.667.233,5.552.285.231.006.473.009.739.009.462,0,.934-.009,1.391-.018h.012c.455-.009.925-.018,1.388-.018.281,0,.535,0,.778.01.1-2.425.229-4.852.382-7.213a1.246,1.246,0,0,1-.5.1c-.037,0-.075,0-.113,0-4.29-.3-9.947-.746-15.67-1.551-2.786-.391-5.435-.853-7.872-1.372C13.208,107.076,11.512,106.717,9.9,106.209Zm137.922.285c.171,2.369.351,4.675.537,6.856a12.485,12.485,0,0,1,2.554-.311c.34-.018.692-.037,1.027-.066l3.566-.31c.237-.02.482-.037.7-.053h0c.391-.028.795-.057,1.188-.1.041,0,.084-.008.13-.012h0a.743.743,0,0,0,.588-.214,1.638,1.638,0,0,0,.039-.929v0c-.011-.083-.02-.155-.024-.213-.042-.549-.1-1.1-.184-1.644q-.018-.125-.036-.252l0-.021a13,13,0,0,0-.251-1.407,1.906,1.906,0,0,0-.075-.233,2.281,2.281,0,0,1-.479.05,2.82,2.82,0,0,1-1.8-.688c-.327-.017-.66-.032-.982-.046h0c-.373-.016-.759-.034-1.137-.055-.5-.028-1.013-.047-1.512-.066h0a35.93,35.93,0,0,1-3.846-.284ZM11.011,77.948a.837.837,0,0,0-.821.58A17.187,17.187,0,0,0,9.3,82.783a21.753,21.753,0,0,0,.1,4.339,29.518,29.518,0,0,0,.858,4.294,40.345,40.345,0,0,0,1.387,4.118.879.879,0,0,0,.846.566.888.888,0,0,0,.737-.352.68.68,0,0,0,.046-.664,32.981,32.981,0,0,1-2.172-7.963,20.3,20.3,0,0,1-.121-4.1,16.023,16.023,0,0,1,.832-4.039.726.726,0,0,0-.073-.678A.9.9,0,0,0,11.011,77.948Zm7.767,10.458a.865.865,0,0,0-.618.242.777.777,0,0,0-.212.574,10.4,10.4,0,0,0,.417,2.759,9.936,9.936,0,0,0,1.159,2.537.805.805,0,0,0,.693.393.947.947,0,0,0,.814-.47.735.735,0,0,0-.048-.776,8.339,8.339,0,0,1-1.345-4.443.793.793,0,0,0-.275-.612A.9.9,0,0,0,18.777,88.406Z" transform="translate(3.379 -2.132)"/>
  </g>
  <g id="HEAD" transform="translate(78.592 38.043)">
    <path id="_Skin-2" data-name="âœ‹ Skin" d="M21.411.07C53.365-1.5,75.046,23.758,75.979,33.833c.647,6.993.208,16.319.208,22.568,0,3.19,1.605,12.885-.208,17.534-4.037,10.347-8.6,18.453-21.233,18.453s-31.9-6.566-38.514-15.034C15.024,75.807.017,64.489.017,55.593.017,36.613-1.39,1.195,21.411.07Z" transform="translate(10.104 13.428)" fill="#d08b5b"/>
    <path id="_Ink-2" data-name="ðŸ– Ink" d="M76.587,114.453a24.906,24.906,0,0,1-6.448-.861l-.268-.073a24.956,24.956,0,0,1-3.759-1.321,13.921,13.921,0,0,1-1.765-.957,9.2,9.2,0,0,1-1.512-1.206,1.3,1.3,0,0,1-.367-.768,1.666,1.666,0,0,1,.119-.841,1.311,1.311,0,0,1,1.175-.886,1.266,1.266,0,0,1,.468.094,21.958,21.958,0,0,1,2.073,1c.611.322,1.242.654,1.892.927a22.989,22.989,0,0,0,8.723,1.737,21.887,21.887,0,0,0,2.982-.2,20.287,20.287,0,0,0,6.645-2.127,21.632,21.632,0,0,0,5.5-4.114,22.7,22.7,0,0,0,4-5.622,22.451,22.451,0,0,0,2.141-6.651,47.431,47.431,0,0,0,.368-7.829l-.03-2.864c-.021-2.168-.035-4.689.056-7.187.106-2.932.309-5.951.62-9.23l.152-1.6c.164-1.7.369-3.682.732-5.594h0c-.277,0-2.3-3.435-3.794-6.019a2.63,2.63,0,0,1-.992-1.4,2.163,2.163,0,0,1-.057-.368c-.274-.432-.564-.853-.862-1.251l-.066-.03c-.051-.023-.09-.042-.114-.056a4.141,4.141,0,0,1-.9-.7,4.433,4.433,0,0,1-.689-.908,4.3,4.3,0,0,1-.316-.692A22.39,22.39,0,0,0,90.6,45.354l-.1-.077-.077-.059a4.256,4.256,0,0,1-1.9-1.319c-.2-.124-.4-.248-.609-.368a4.956,4.956,0,0,1-1.839-.4,8.68,8.68,0,0,1-1.5-.865,8,8,0,0,0-1.6-.9,1.824,1.824,0,0,0-.652-.113,4.938,4.938,0,0,0-1.316.253l-.015,0a5.009,5.009,0,0,1-1.359.257,2.21,2.21,0,0,1-.315-.022,3.2,3.2,0,0,1-.927-.284,17.735,17.735,0,0,1-2.269,2.064,11.067,11.067,0,0,1-3.794,1.7A4.285,4.285,0,0,1,69.955,46.6a48.39,48.39,0,0,1-6.839,4.505,2.359,2.359,0,0,1-1.138.316,9.655,9.655,0,0,1-2.452,1.094,2.013,2.013,0,0,1-.562.079,2.227,2.227,0,0,1-.269-.017l-.756.617a2.688,2.688,0,0,1-1.624.648c-.313.24-.645.474-1.014.716a2.142,2.142,0,0,1-1.18.322c-.054,0-.109,0-.164-.005a2.222,2.222,0,0,1-1.579.661,2.426,2.426,0,0,1-.935-.191c-.124.073-.236.132-.353.187a3.926,3.926,0,0,1-.541.209,3.992,3.992,0,0,1-2.919,1.281,3.887,3.887,0,0,1-.389-.02,5.536,5.536,0,0,1-1.331.594,5.026,5.026,0,0,1-1.42.209c-.1,0-.2,0-.293-.009-.153.773-.286,1.566-.4,2.426l-.011.594c0,.1,0,.173,0,.221v.02c.052,1.321.093,2.665.132,3.964v.006c.038,1.262.078,2.566.128,3.849l.009.206c.009.186.022.384.035.594v0c.1,1.659.246,3.932-.8,5.053a2.057,2.057,0,0,1-.739.5,2.808,2.808,0,0,1-1.05.184h-.106a3.988,3.988,0,0,1-1.827-.583,13.294,13.294,0,0,1-1.62-1.124l-.136-.107-.227-.178c-.257-.033-.517-.078-.768-.121a10.669,10.669,0,0,0-1.4-.177c-.115,0-.232-.006-.349-.006a10.646,10.646,0,0,0-2.381.272,7.013,7.013,0,0,0-4.065,2.352c-.078.1-.157.209-.249.349a1.842,1.842,0,0,1-.356.662,6.783,6.783,0,0,0-.429,3.56,9.928,9.928,0,0,0,3.5,6.395,10.174,10.174,0,0,0,3.35,1.823l.126.04c1.7.531,2.357,1.557,3.272,2.977l.029.045A30.26,30.26,0,0,0,40.8,95.427c.65.725,1.4,1.425,2.117,2.1a15.488,15.488,0,0,1,4.094,5.079.647.647,0,0,1-.069.621.928.928,0,0,1-.74.4.7.7,0,0,1-.188-.025,8.08,8.08,0,0,1-2.7-1.395,24.576,24.576,0,0,1-2.277-2.049l0,0-.178-.174C39.72,98.868,38.719,97.8,37.8,96.715a2.192,2.192,0,0,1-.656.185,7.083,7.083,0,0,1-.866.056,3.9,3.9,0,0,1-2.106-.536c-.043,0-.087.006-.13.006a1.543,1.543,0,0,1-1.031-.4,5.154,5.154,0,0,1-.759-.872c-.177.016-.329.023-.467.023a2.9,2.9,0,0,1-.479-.036,1.21,1.21,0,0,1-.419-.116,1.837,1.837,0,0,1-.681-.47,1.946,1.946,0,0,1-.445-.8,2.318,2.318,0,0,1-.066-.92,2.175,2.175,0,0,1-.251-.068,2.261,2.261,0,0,1-1.283-1.1,4.8,4.8,0,0,1-1.29-1.066,4.64,4.64,0,0,1-.911-1.66,3.94,3.94,0,0,1-.551-.311A3.856,3.856,0,0,1,24,86.884a3.2,3.2,0,0,1-.086-2.218l.017-.047c.024-.065.07-.18.127-.311l0-.02c-.008-.1-.015-.2-.021-.3l-.017-.317-.254-.108a4.234,4.234,0,0,1-1.553-.96,2.719,2.719,0,0,1-.719-1.652,1.256,1.256,0,0,1,.263-.848V80.03c-.089-.046-.166-.09-.229-.13a2.341,2.341,0,0,1-.809-.884,2.238,2.238,0,0,1-.257-1.167,3.272,3.272,0,0,1,.919-1.891l.132-.154.025-.028.012-.014-.306-.1a2.908,2.908,0,0,1-.512-.2,2.982,2.982,0,0,1-1.2-1.159l-.019-.03c-.032-.05-.065-.1-.094-.155a2.734,2.734,0,0,1-.166-2.1,2.084,2.084,0,0,1,.094-.228,2.661,2.661,0,0,1-1.185-.785,2.673,2.673,0,0,1-.243-2.884,2.945,2.945,0,0,1-.029-.868,2.356,2.356,0,0,1-.7-1.141,2.121,2.121,0,0,1,.082-1.259,4.278,4.278,0,0,1,.683-1.176,2.57,2.57,0,0,1,.02-1.864,3.186,3.186,0,0,1-.152-.939,3.1,3.1,0,0,1,.149-.992,3.191,3.191,0,0,1,.422-.836,2.559,2.559,0,0,1-.521-1.041,1.951,1.951,0,0,1,.077-1.154,9.6,9.6,0,0,1,.729-1.5,3.062,3.062,0,0,1-.23-1.182,2.813,2.813,0,0,1,.2-1.069,3.044,3.044,0,0,1,.544-.86,2.541,2.541,0,0,1,.136-1.441,1.938,1.938,0,0,1,.936-1.048,7.359,7.359,0,0,1,1.25-.444c.192-.6.379-1.157.571-1.7.3-.855.646-1.737,1.013-2.62a6.879,6.879,0,0,1-.648.5,9.329,9.329,0,0,1-2.44,2.156,3.127,3.127,0,0,1-1.587.453,2.757,2.757,0,0,1-1.475-.425,2.99,2.99,0,0,1-1.07-1.2,3.632,3.632,0,0,1-2.166.777,3.113,3.113,0,0,1-.364-.022,2.858,2.858,0,0,1-1.439-.585,2.36,2.36,0,0,1-.845-1.293,2.192,2.192,0,0,1-.064-.49,7.36,7.36,0,0,1-1.933,1.057,1.333,1.333,0,0,1-.416.067,1.469,1.469,0,0,1-.983-.4,1.565,1.565,0,0,1-.506-.943,1.469,1.469,0,0,1,.154-.9l-.087-.034-.043-.019a1.955,1.955,0,0,1-1-1.078,2,2,0,0,1-.725.137A1.829,1.829,0,0,1,4.4,42.411a1.789,1.789,0,0,1-.674-.973A7.737,7.737,0,0,1,3.62,37.5,4.521,4.521,0,0,1,2.327,36,4.913,4.913,0,0,1,2.3,31.345a1.644,1.644,0,0,1-.945-.969,2.1,2.1,0,0,1,.07-1.684A2.257,2.257,0,0,1,.367,26.8,1.634,1.634,0,0,1,.1,26.067a1.9,1.9,0,0,1,.125-.876,3.912,3.912,0,0,1,.678-1.128,5.856,5.856,0,0,1,.989-.916,6.592,6.592,0,0,1-.7-1.773A1.639,1.639,0,0,1,.016,19.981,1.7,1.7,0,0,1,.31,18.766a1.74,1.74,0,0,1,.994-.682,5.337,5.337,0,0,1,.335-.814,3.563,3.563,0,0,1-.256-1.563,4.2,4.2,0,0,1,.431-1.63A3.541,3.541,0,0,1,2.7,12.942a4.73,4.73,0,0,1,1.213-.736,1.959,1.959,0,0,1,.833-2.143,11.112,11.112,0,0,1,3.01-1.637A3.473,3.473,0,0,1,8.093,6.6a2.406,2.406,0,0,1,1.351-1.2,3.021,3.021,0,0,1,1.022-.161h.018a3.654,3.654,0,0,1,1.248-1.422,1.739,1.739,0,0,1,1.025-.3,2.11,2.11,0,0,1,1.882,1.018l.023.049c.015.033.03.065.045.1v0l.028.059a2.505,2.505,0,0,1,.673-1.266,2.75,2.75,0,0,1,.829-.592,2.064,2.064,0,0,1,.842-.179,2.739,2.739,0,0,1,1.066.239,6.141,6.141,0,0,1,.612-1.165A2.759,2.759,0,0,1,19.718.9,2.32,2.32,0,0,1,20.837.611a2.458,2.458,0,0,1,1.35.412A4.005,4.005,0,0,1,23.63.185,3.756,3.756,0,0,1,24.747,0a3.174,3.174,0,0,1,2.7,1.708,1.268,1.268,0,0,1,.246-.025A1.309,1.309,0,0,1,28,1.722c.056.014.2.069.256.092a1.327,1.327,0,0,1,.191.1l.035-.019a2.763,2.763,0,0,1,.435-.4,1.44,1.44,0,0,1,.843-.283,1.393,1.393,0,0,1,.2.015l.158-.058A3.99,3.99,0,0,1,31.438.943a3.14,3.14,0,0,1,1.315.276,2.928,2.928,0,0,1,1.092.868,3.67,3.67,0,0,1,.442.74,2.775,2.775,0,0,1,.753.38,2.78,2.78,0,0,1,.5-.181,3.213,3.213,0,0,1,.8-.1,3.431,3.431,0,0,1,2.05.7,3.141,3.141,0,0,1,.905,1.1,2.491,2.491,0,0,1,.73.308,4.077,4.077,0,0,1,.61-.257,6.381,6.381,0,0,1,1.88-.279c.161,0,.324.006.484.018a2.824,2.824,0,0,1,1.39.512,2.95,2.95,0,0,1,.973,1.117,2.057,2.057,0,0,1-.152,2.122l-.035.051a6.142,6.142,0,0,0-.386.622,4.956,4.956,0,0,1,1.163.713,4.5,4.5,0,0,1,1.045,1.227,4.994,4.994,0,0,1,.545,1.437,8.561,8.561,0,0,1,.011,3.16l-.014.088h0a1.589,1.589,0,0,1,1.249.837,1.175,1.175,0,0,1-.05,1.167l-.027.044c-.467.723-.9,1.508-1.32,2.267-.258.467-.525.95-.8,1.418a33.569,33.569,0,0,0-5.723,2.681,26.257,26.257,0,0,0-3.144,3.2A18.314,18.314,0,0,0,36.423,29a.949.949,0,0,0,.414.1.918.918,0,0,0,.63-.261,28.445,28.445,0,0,1,10.328-5.964.93.93,0,0,0,.554-.476,41.637,41.637,0,0,1,5.14-1.121c.239-.229.489-.456.729-.676h0c.239-.219.487-.444.724-.671a1.526,1.526,0,0,1,1.938-.207c.272-.124.555-.237.865-.346l.182-.062.1-.034c.041-.015.084-.03.126-.043a8.5,8.5,0,0,1,2.527-.376,13.363,13.363,0,0,1,3.372.5l.256.067a4.424,4.424,0,0,0,1.153.169,5.075,5.075,0,0,0,1.272-.189l.1-.026a7.878,7.878,0,0,1,1.944-.3,3.894,3.894,0,0,1,1.025.129,5.106,5.106,0,0,1,2.408,1.636l.07.075a.958.958,0,0,0,.85.381h.093l.458-.013c.247-.007.45-.01.641-.01a7.757,7.757,0,0,1,2.174.247,4.154,4.154,0,0,1,1.9,1.127,7.6,7.6,0,0,1,1.3,1.836l.045.1c.015.033.029.061.039.08a2.78,2.78,0,0,0,.368-.1,2.479,2.479,0,0,1,.244-.072,5.658,5.658,0,0,1,1.076-.108,4.477,4.477,0,0,1,3.587,1.793c.137.168.312.425.483.673.16.233.324.473.458.643a3.321,3.321,0,0,1,.275.263,2.7,2.7,0,0,0,1.134.305c.166.02.323.039.472.069a7.554,7.554,0,0,1,2.043.672,4.071,4.071,0,0,1,.871.6,3.223,3.223,0,0,1,.661.852,5.9,5.9,0,0,1,.5,1.629l0,.01.025.122a3.691,3.691,0,0,1,1.115,1.229,6,6,0,0,1,.38.823,4.734,4.734,0,0,0,.509,1.02,2.887,2.887,0,0,0,.976.757l0,0,.169.1.16.094a7.207,7.207,0,0,1,1.625,1.242,4.2,4.2,0,0,1,1,1.776l.035.129c.01.032.023.073.038.119.072.224.18.562.125.638a.036.036,0,0,1-.03.015.087.087,0,0,1-.036-.01,1.7,1.7,0,0,0,.421.131c.079.017.153.034.21.053a3.493,3.493,0,0,1,2.071,1.559,4.709,4.709,0,0,1,.484,1.745v0q.014.1.028.193l.043.275c.011.07.025.147.037.219l.014.074,0,0c.156.068.311.142.46.22a2.336,2.336,0,0,1,1.2,2,1.794,1.794,0,0,1-.315,1.018,3.041,3.041,0,0,1,.356.745,4.016,4.016,0,0,1,.127,1.662,9.5,9.5,0,0,1-.438,1.89c-.029.093-.051.2-.075.309a2.207,2.207,0,0,1-.148.506,1.284,1.284,0,0,1,.3.932,2.241,2.241,0,0,1-.209.718,1.346,1.346,0,0,1-.485.563,11.508,11.508,0,0,1-1.093,2.91,1.153,1.153,0,0,1-.179.256c.035,1.919-.032,3.877-.1,5.77-.048,1.407-.1,2.861-.1,4.286-.017,3.3.043,6.871.183,10.91.037,1.059.093,2.145.146,3.194v0c.126,2.47.257,5.024.171,7.524a34.392,34.392,0,0,1-.317,3.729,24.7,24.7,0,0,1-.8,3.668,23.877,23.877,0,0,1-3.209,6.659,25.493,25.493,0,0,1-5.043,5.4,24.3,24.3,0,0,1-13.9,5.341C77.461,114.441,77.022,114.453,76.587,114.453Zm-37.4-30.579a1.117,1.117,0,0,1-.539-.145,4.205,4.205,0,0,1-1.2-1.167,8.013,8.013,0,0,0-.595-.7,9.557,9.557,0,0,0-2.007-1.511,13.1,13.1,0,0,0-4.866-1.486.135.135,0,0,1-.125-.123.218.218,0,0,1,.125-.22,6.718,6.718,0,0,1,2.463-.436,9.256,9.256,0,0,1,3.261.616l.129.05A12.336,12.336,0,0,1,38.5,80.2a3.917,3.917,0,0,1,1.73,2.3,1.207,1.207,0,0,1-.257.986A1.032,1.032,0,0,1,39.187,83.874Z" transform="translate(-13.914 -7.186)"/>
  </g>
  <g id="FACE" transform="translate(112.183 77.354)">
    <path id="_Ink-3" data-name="ðŸ– Ink" d="M26.594,37.762a11.015,11.015,0,0,1-3.84-.893l-.265-.1a7.124,7.124,0,0,1-2.454-1.434,2.737,2.737,0,0,1-.561-.732.577.577,0,0,1-.031-.471c.247-.024.48-.056.692-.095l.029-.005a1.6,1.6,0,0,1,.251-.034h.02a6.462,6.462,0,0,1,.806.068l.012,0h.009l.112.014c.222.027.448.058.648.085.611.082,1.243.167,1.884.2.116.006.237.008.369.008.348,0,.708-.02,1.056-.039l.087,0c.329-.018.669-.037,1-.037a4.9,4.9,0,0,1,1.3.145,2.713,2.713,0,0,1,1.145.616,1.078,1.078,0,0,1,.36.818,1.666,1.666,0,0,1-.383,1.014,2.186,2.186,0,0,1-.97.682,3.672,3.672,0,0,1-1.231.2ZM15.039,34.835a.874.874,0,0,1-.111-.007.611.611,0,0,1-.49-.318,4.469,4.469,0,0,1-.445-2.011,6.921,6.921,0,0,1,.361-2.071,16.859,16.859,0,0,1,1.905-3.768l.146-.226a17.314,17.314,0,0,1,2.471-3.046,6.305,6.305,0,0,1,3.308-1.844l.275.438.4-.266A2.039,2.039,0,0,1,24,21.386a2.78,2.78,0,0,1,1.132.254l.755.341A21.166,21.166,0,0,0,30.2,23.514c.11.023.222.045.332.065s.214.038.315.053c-.022-.1-.045-.2-.071-.31l0-.008c-.025-.1-.051-.213-.078-.319s-.058-.217-.09-.335c-.133-.485-.272-.915-.423-1.314a23.775,23.775,0,0,0-2.548-4.577l-.112-.17c-.133-.2-.276-.408-.428-.627l-.013-.019-.049-.071a16.439,16.439,0,0,1-1.042-1.632,4.11,4.11,0,0,1-.537-1.7,4.959,4.959,0,0,1,2.52,1.195l.021.015a19.326,19.326,0,0,1,2.762,2.481A16.023,16.023,0,0,1,34.484,22.6a5.27,5.27,0,0,1,.154,2.018A4.149,4.149,0,0,1,34,26.408a3.046,3.046,0,0,1-1.1,1.01,3.366,3.366,0,0,1-1.611.382c-.065,0-.131,0-.2,0a17.352,17.352,0,0,1-8.079-2.583,2.351,2.351,0,0,1-.706-.715,2.163,2.163,0,0,1-.32-.918l-.12-1.154-.65.961-.2.3,0,.007c-.183.268-.373.546-.549.825a37,37,0,0,0-1.872,3.323,19.3,19.3,0,0,0-.989,2.636l-.018.055a21.978,21.978,0,0,1-.8,2.22,6.339,6.339,0,0,1-1.22,1.88A.727.727,0,0,1,15.039,34.835Zm-4.353-17.6a1.812,1.812,0,0,1-1.177-.456,3.617,3.617,0,0,1-.849-1.1,6.283,6.283,0,0,1-.7-2.585v-.048A7.1,7.1,0,0,1,8.6,10.328a2.513,2.513,0,0,1,2.09-1.707c.563,0,1.062.455,1.444,1.317a8.79,8.79,0,0,1,.631,2.936l0,.088a8.33,8.33,0,0,1-.168,1.946,3.842,3.842,0,0,1-.837,1.855A1.447,1.447,0,0,1,10.686,17.238Zm23.1-.423a1.45,1.45,0,0,1-1.086-.487,3.823,3.823,0,0,1-.84-1.916,8.173,8.173,0,0,1-.148-1.96l.011-.162a8.535,8.535,0,0,1,.647-2.833c.378-.823.868-1.258,1.417-1.258A2.513,2.513,0,0,1,35.876,9.9a7.1,7.1,0,0,1,.637,2.718v.048a6.283,6.283,0,0,1-.7,2.584,3.617,3.617,0,0,1-.849,1.1A1.812,1.812,0,0,1,33.786,16.815ZM0,8.471H0A19.5,19.5,0,0,1,7.32,2.756,32.139,32.139,0,0,1,12.134.878L13.048.6A8.492,8.492,0,0,1,15.4.162a3.167,3.167,0,0,1,1.733.469,2.027,2.027,0,0,1,.92,1.328,1.9,1.9,0,0,1-.371,1.533,1.836,1.836,0,0,1-1.11.711,1.812,1.812,0,0,1-.339.032A2.219,2.219,0,0,1,15.2,3.959c-.151-.011-.268-.017-.358-.017a1.652,1.652,0,0,0-.2.012l-.147.018c-.267.031-.537.073-.768.11-.742.118-1.491.262-2.224.428-1.31.3-2.706.688-4.148,1.166C6.074,6.1,4.8,6.583,3.568,7.052l-.2.076c-.444.169-.892.361-1.326.546l-.016.007c-.659.282-1.34.573-2.025.79ZM40.122,6.489h0a9.126,9.126,0,0,0-2.543-1.429,18.75,18.75,0,0,0-2.827-.831,10.95,10.95,0,0,0-2.357-.252c-.119,0-.241,0-.362.006a9.446,9.446,0,0,0-1.226.142l-.029,0a7.9,7.9,0,0,1-1.257.134,3.548,3.548,0,0,1-.64-.055A1.543,1.543,0,0,1,28,3.668a2.242,2.242,0,0,1-.508-1.1,1.768,1.768,0,0,1,.146-1.045,2.6,2.6,0,0,1,.815-.93A3.77,3.77,0,0,1,30.767,0a14.288,14.288,0,0,1,1.822.145A10.062,10.062,0,0,1,36.158,1.3a8.6,8.6,0,0,1,2.754,2.408,8.7,8.7,0,0,1,1.2,2.747l.01.032Z" transform="translate(10.552 12.887)"/>
  </g>
</svg>
