<svg id="peep-76" xmlns="http://www.w3.org/2000/svg" width="240" height="324" viewBox="0 0 240 324">
  <g id="BODY" transform="translate(31.056 135.053)">
    <path id="_Skin" data-name="âœ‹ Skin" d="M10.07,157.667c27.6,4.194,55.7,4.4,83.533,2.882a194.276,194.276,0,0,1,33.068.081c6.5.484,35.016,2.664,37.345-3.163-1.466-31.027-4.436-62.319-13.546-92.159-3.746-10.6-6.964-19.39-14.276-28.158-2.3-2.394-7.274-7.415-10.122-9.052-2.467-1.418-3.5-.912-4.915-3.308-1.408-2.647-2.446-7.067-4.445-8.934-2.035-1.9-5.051-1.221-8.79-.609.687-9.285-3.6-11.649-9.5-13.415C88.049-2.129,77.8-.14,75.193,12.494c-4.841,0-7.561,2.084-10.5,4.087-1.2.819-.366,2.9-1.8,3.548-2.656.946-7.349.714-9.907,1.879C41.355,27.3,31,34.979,24.2,46.192,8.946,70.131-1.529,120.558.283,148.931c-.794,1.246.3,3.032.583,4.372a2.55,2.55,0,0,0,2.684,1.808C5.213,156.9,7.783,157.3,10.07,157.667Z" transform="translate(6.338 -6.763)" fill="#d08b5b"/>
    <path id="_Top" data-name="ðŸ‘• Top" d="M67.493,2.777A9.532,9.532,0,0,1,74.385,0l.118,0,.857.038-.573,2.812-.029.133-.117.488-.156.639-.055.235-.058.26-.027.125-.026.123-.244,1.195.046.106-.013.271c-.038.981.173,1.521.639,1.694l.037.013.266.085.217.47c.5,1.076.964,2.016,1.442,2.9a65.207,65.207,0,0,0,4.971,7.755q2.731,3.7,5.689,7.049c.887,1,1.823,2.012,2.82,3.039l.858.879.273.276.184.183.229.224.33.315.239.235.078.074a1.77,1.77,0,0,0,.241.2l.025.016.075.045L96.7,36.065l1.405.773.667.37.135-.269.027-.086,1.479-3.248.9-1.989c1.853-4.093,3.295-7.349,4.613-10.449l.164-.387.486-1.154.257-.615c1.178-2.825,2.049-5.005,2.828-7.124l.111-.3.164-.453.244-.683.044-.117c.212-.542-.308-2.512-.82-3.591l-.029-.06-.133-.267-.144-.282a9.764,9.764,0,0,1-.79-2.283q-.05-.216-.094-.434l-.043-.22-.027-.144-.038-.2-.054-.289,1.146-.192.629-.1.274-.043c.355-.055.671-.1.969-.138l.111-.014.2-.024.007.039.409.04.3.031a29.571,29.571,0,0,1,3.467.526l.081.019.146.037.067.018a3.119,3.119,0,0,1,1.773,1.273,7.362,7.362,0,0,1,.834,1.654l.115.287.381.942q.067.172.207.55l.323.88,1.62,4.475,1.658.872c.771.4,1.334.694,1.612.832l.1.048.071.032.571.227-.061.178.069.039c6.824,3.927,12.087,9.969,16.185,17.989l.124.244.127.252c3.266,6.533,5.605,13.824,7.889,23.557l.141.605.111.481.6,2.6c2.238,9.807,3.775,17.121,5.048,24.3l.083.468.212,1.219q2.4,13.932,4.007,27.606l.178,1.534c.447,3.916.85,7.964,1.288,12.825l.059.653.193,2.183q.308,3.529.563,7.044l.083,1.171.171,2.546.1,1.451.012.2.041.756.011.177c.015.227.033.419.055.6l.017.13.019.127a3.134,3.134,0,0,0,.353,1l.048.087.317.567-.575.3c-3,1.58-8.9,2.275-17,2.311h-.752c-3.934,0-8.1-.154-12.454-.413l-.984-.06-.821-.052-1.055-.071-.548-.038-2.288-.167a192.825,192.825,0,0,0-32.972-.079c-31,1.7-57.758.981-82.908-2.775l-.762-.115-.561-.091-.335-.056c-2.668-.456-4.343-1.04-5.65-2.265l-.068-.065-.057-.056H3.352a3.194,3.194,0,0,1-2.968-2.137l-.023-.068-.029-.095-.02-.094c-.021-.091-.047-.19-.078-.3l-.025-.083L0,140.267l.7-.128A.3.3,0,0,0,.884,140l.058-.083.1-.14.244-.334a2.671,2.671,0,0,0,.451-.823,3,3,0,0,0,.071-.827l0-.177-.028-.642c0-.052,0-.1,0-.14v-.969l0-.994c0-.434,0-.857.007-1.272l.006-.618.006-.5q.051-4.13.242-8.251.375-8.044,1.285-16.051A242.17,242.17,0,0,1,9.1,76.164l.262-1.031a173.453,173.453,0,0,1,9-27.4c4.4-10,9.759-18.234,16.51-24.814a54.356,54.356,0,0,1,12.19-9.015,52.993,52.993,0,0,1,6.434-2.893l.328-.122.53-.194.406-.15,1.309-.489c.275-.1.575-.219.929-.358l.219-.087,2.345-.936.389-.153.433-.168.318-.122c.52-.2.991-.372,1.429-.524l.258-.089.235-.079,1-.346-.02.911A1.757,1.757,0,0,0,64.094,9.5l.012.01.012.01.011.007.061,0h.236a.412.412,0,0,0,.069-.047c.337-.286.493-.669.645-1.549l.04-.245.07-.458.028-.173a4.984,4.984,0,0,1,.361-1.333,7.848,7.848,0,0,1,.961-1.6L66.689,4l.36-.433L67.1,3.5a1.091,1.091,0,0,0,.218-.381l.006-.028.036-.182Z" transform="translate(6.338 4.851)" fill="#ffcf77"/>
    <path id="_Ink" data-name="ðŸ– Ink" d="M165.324,152.975a1.642,1.642,0,0,1-1.347-.714l-.164-.252a4.681,4.681,0,0,1-.8-1.842,13.807,13.807,0,0,1-.131-1.492c-.011-.213-.022-.433-.038-.647-.052-.724-.1-1.454-.148-2.16v-.017c-.038-.565-.076-1.149-.117-1.723-.19-2.714-.407-5.474-.645-8.2-.739-8.463-1.242-13.084-1.6-16.165-1.078-9.347-2.465-18.963-4.12-28.583-1.638-9.518-3.714-18.89-5.714-27.6l-.218-.948c-1.111-4.828-2.146-8.723-3.255-12.258A82.79,82.79,0,0,0,142.3,38.358a56.684,56.684,0,0,0-3.135-5.556,45.354,45.354,0,0,0-3.772-5.062,38.288,38.288,0,0,0-4.5-4.425,35.1,35.1,0,0,0-5.314-3.644.131.131,0,0,1-.07-.152.155.155,0,0,1,.22-.1,38.64,38.64,0,0,1,10.854,7.7,49.594,49.594,0,0,1,8.029,10.664A74.006,74.006,0,0,1,150.2,50.534c1.584,4.646,2.831,9.389,3.843,13.415l.081.323c2.186,8.727,4.237,18.193,6.271,28.938.908,4.8,1.757,9.765,2.522,14.769.736,4.813,1.419,9.807,2.028,14.846.656,5.423,1.159,10.245,1.536,14.74.206,2.459.4,4.944.562,7.385.078,1.138.137,2.077.185,2.956l.039.74c.005.106.012.214.018.318a5.523,5.523,0,0,1-.071,1.687,6.247,6.247,0,0,1-.568,1.335c-.044.085-.094.181-.142.276A1.282,1.282,0,0,1,165.324,152.975Zm-129.375-.492a1.11,1.11,0,0,1-.7-.274l-.132-.1-.093-.073,0,0a3.112,3.112,0,0,1-.992-1.069,6,6,0,0,1-.513-2.367l0-.02c-.076-.948-.056-1.921-.036-2.862.006-.3.013-.608.016-.914.025-2.5.061-5.038.1-7.551.177-10.1.526-19.149,1.066-27.675.288-4.539.674-8.918,1.148-13.016l.1-.81c.073-.615.144-1.24.212-1.843.075-.661.152-1.344.234-2.021A28.466,28.466,0,0,1,30.237,86a.181.181,0,0,1-.02-.194.167.167,0,0,1,.144-.1.16.16,0,0,1,.115.054,22.236,22.236,0,0,0,2.865,2.5,23.967,23.967,0,0,0,3.225,1.98A36.937,36.937,0,0,1,38.4,82.3a.215.215,0,0,1,.2-.134.16.16,0,0,1,.163.134,38.843,38.843,0,0,1,.676,7.144q.007.22.014.44c.072,2.192.086,4.587.043,7.538-.1,7.151-.283,14.415-.456,21.44l0,.093c-.049,2.009-.1,4.087-.149,6.13-.1,4.062-.206,8.884-.291,13.841-.029,1.7-.055,3.448-.076,5.191l-.025,2.282a27.85,27.85,0,0,1-.162,3.014,4.291,4.291,0,0,1-.62,1.864,2.639,2.639,0,0,1-.757.712c-.077.055-.156.111-.233.17l-.067.052A1.133,1.133,0,0,1,35.949,152.483ZM96.271,151a.429.429,0,0,1-.451-.34,74.624,74.624,0,0,1-.7-9.749v-.023c-.013-.46-.026-.935-.04-1.4l-.024-.745c-.139-4.042-.2-8.08-.188-12,.042-11.765.306-23.721.561-35.284v0l0-.072c.053-2.421.109-4.925.161-7.387.041-1.921.079-3.874.115-5.764v-.051c.1-5.133.2-10.441.375-15.662.129-3.892.263-7.405.411-10.739l.014-.307v0c.065-1.469.132-2.988.232-4.481l.048-.684c.016-.221.031-.443.046-.658v0c.015-.216.03-.44.046-.661a2.464,2.464,0,0,1-.848.15,5.653,5.653,0,0,1-2.589-.932c-.2-.112-.414-.228-.619-.334l-1.228-.632-.091-.047c-1.032-.532-2.1-1.081-3.164-1.628l-1.5-.766L83.848,39.26l-.335-.173h0a4.9,4.9,0,0,0-2.2-.757,2.6,2.6,0,0,0-1.29.365A73.807,73.807,0,0,0,65.766,49.53a1.8,1.8,0,0,1-1.228.454,1.761,1.761,0,0,1-1-.294,1.32,1.32,0,0,1-.557-.9,37.385,37.385,0,0,1-.414-3.966c-.067-1.248-.084-2.55-.052-3.982.059-2.657.282-5.355.5-7.963l0-.042q.036-.434.071-.867l.168-2.076c.182-2.215.411-4.83.723-7.428l.014-.113v0c.126-1.048.256-2.131.4-3.195l.112-.827c.033-.238.065-.48.1-.714v-.006a18.768,18.768,0,0,1,.595-3.138.9.9,0,0,1-.347-.205,2.482,2.482,0,0,1-.675-2.1,7.773,7.773,0,0,1,.6-2.258,10.007,10.007,0,0,1,2.338-3.421,1.278,1.278,0,0,1,.84-.359,12.6,12.6,0,0,1,2.715-1.388,8.549,8.549,0,0,1,2.863-.517,7.7,7.7,0,0,1,2.328.363c.1-.454.17-.8.242-1.121l.086-.372c.047-.2.087-.429.13-.671a9.689,9.689,0,0,1,.306-1.347A2.139,2.139,0,0,1,77.279.023.1.1,0,0,1,77.341,0a.064.064,0,0,1,.05.023A2.765,2.765,0,0,1,77.8,1.865c0,.129,0,.251,0,.372l0,.069c.031.942.043,1.941.039,3.241L77.836,8.99c0,.175-.006.356-.012.532-.009.3-.019.611,0,.911l.013.184a1.135,1.135,0,0,1,.3,1.049,1.487,1.487,0,0,1-.66,1.182l.819,1.163.82,1.162c2.047,2.9,3.644,5.1,5.179,7.106,1.755,2.3,3.7,4.608,5.78,6.865,1.064,1.155,2.055,2.193,3.028,3.171.29.292.589.583.879.864l.394.383.422.418c.058.058.117.114.18.173h0a2.583,2.583,0,0,1,.548.639,1.93,1.93,0,0,1,.117.515,1.171,1.171,0,0,0,.038.207,1.2,1.2,0,0,1-.1,1.1.8.8,0,0,1-.678.4.906.906,0,0,1-.327-.065l.04-.027c.053-.037.077-.062.073-.075s-.013-.011-.032-.011a1.7,1.7,0,0,0-.352.081,1.412,1.412,0,0,1-.654-.16l-.061-.033a2.874,2.874,0,0,1-.656-.536l-.119-.117-.058-.055c-.451-.423-.891-.874-1.316-1.31l-.235-.241c-1.126-1.151-2.145-2.244-3.115-3.342-1.967-2.227-3.892-4.613-5.724-7.092a66.179,66.179,0,0,1-5.019-7.83c-.5-.935-1-1.937-1.56-3.154a1.454,1.454,0,0,1-.938-.919,3.8,3.8,0,0,1-.172-1.547,14.28,14.28,0,0,1-.857-2.514.141.141,0,0,1,.131-.166.111.111,0,0,1,.084.041,13.833,13.833,0,0,1,.86,1.1c.094-.461.2-.9.3-1.28v0c.07-.283.13-.528.172-.728l.423-2.077c-.133-.007-.27-.011-.408-.011a9.02,9.02,0,0,0-3.386.684,8.33,8.33,0,0,0-2.847,1.9,2.158,2.158,0,0,1-.566.942h0c-.065.077-.133.157-.2.241a7.3,7.3,0,0,0-.966,1.573,6.361,6.361,0,0,0-.382,1.61,3.659,3.659,0,0,1-.931,2.374,1.054,1.054,0,0,1-.365.2,27.39,27.39,0,0,1,.3,6.029v0c-.014.576-.028,1.172-.03,1.745v.223c0,2.961-.1,5.941-.2,8.5l-.111,2.8a82.783,82.783,0,0,0,.125,11.192c1.654-1.466,3.385-2.88,5.144-4.205,1.158-.872,2.358-1.727,3.565-2.54l.984-.658.041-.028a24.084,24.084,0,0,1,3.635-2.143,5.045,5.045,0,0,1,2.063-.443,6.753,6.753,0,0,1,2.86.716c1.113.519,2.219,1.1,3.289,1.669h0c.491.259,1,.528,1.5.785,1.237.637,2.493,1.278,3.707,1.9l.174.089.982.5c.26.133.547.262.851.4a6.723,6.723,0,0,1,2.585,1.657c.052-.233.112-.458.177-.669a1.478,1.478,0,0,1,.142-1.054c2.577-4.737,4.934-9.516,7.528-14.824.6-1.233,1.2-2.493,1.779-3.712l0-.006c.6-1.269,1.224-2.582,1.854-3.866l1.2-2.451c.241-.491.427-.869.6-1.224s.357-.708.532-1.053c.129-.252.262-.513.391-.77.06-.119.128-.24.194-.358v0c.076-.135.154-.274.221-.412l.06-.13c0-.006.219-.687.134-.818a.043.043,0,0,0-.038-.021.077.077,0,0,0-.027.006l-.019.009a.116.116,0,0,1-.057.016.1.1,0,0,1-.09-.06.119.119,0,0,1,.015-.127.41.41,0,0,1,.323-.173.816.816,0,0,1,.618.492c.4.8-.1,1.949-.5,2.875-.1.235-.2.457-.268.652l-.019.053c-1.124,3.183-2.391,6.275-3.593,9.143-2.319,5.534-4.845,11.08-7.288,16.444l-.348.765-.031.1c.316-.243.645-.472.962-.694h0c.243-.17.473-.33.691-.492,1.3-.967,2.69-1.913,3.912-2.749,2.218-1.516,4.641-3.042,7.406-4.666l.5-.3a11.135,11.135,0,0,1,1.629-.812,4.854,4.854,0,0,1,1.738-.341,4.326,4.326,0,0,1,.629.046,11.228,11.228,0,0,1,3.283,1.236c.213.106.432.216.646.319l.129.062,3.871,1.841c-.379-1.514-.814-3.127-1.329-4.931-.9-3.145-1.909-6.34-3-9.5-.98-2.827-2.052-5.675-3.277-8.708l-.35-.863-.038-.1-.011-.029a8.252,8.252,0,0,0-.806-1.657A2.516,2.516,0,0,0,115.828,8.1a5.84,5.84,0,0,0-1.517-.145h-.405a4.035,4.035,0,0,1-2.22-.451.165.165,0,0,1-.073-.166.147.147,0,0,1,.111-.123l.763-.192a13.887,13.887,0,0,1,3.234-.509,5.006,5.006,0,0,1,1.234.141,4.781,4.781,0,0,1,1.989,1.11,6.966,6.966,0,0,1,1.42,1.792,29.281,29.281,0,0,1,1.612,3.666c.113.293.23.6.348.894l.1.24c.7,1.745,1.372,3.5,2,5.214,1.257,3.447,2.43,7.015,3.486,10.6.481,1.636.955,3.331,1.448,5.182.069.261.162.55.26.856v0c.091.282.184.574.27.875a5.012,5.012,0,0,1,.583.68.726.726,0,0,1,.131.561.979.979,0,0,1-.422.614,2.243,2.243,0,0,1-.341,1.191,1.871,1.871,0,0,1-1.574.829,1.666,1.666,0,0,1-1.213-.486,1.528,1.528,0,0,1-.392-1.165,1.449,1.449,0,0,1,.29-.776l0-.037-.019-.067c-.238-.114-.472-.233-.719-.359h0c-.176-.09-.358-.183-.543-.274L121.592,35.8c-.314-.155-.63-.329-.966-.514a9.492,9.492,0,0,0-2.824-1.189,2.189,2.189,0,0,0-.364-.03,5.812,5.812,0,0,0-2.625.97c-.2.111-.384.215-.566.311l-.068.035c-2.772,1.421-5.493,2.882-7.555,4-.711.384-1.429.784-2.122,1.171l-.009.005c-.5.277-1.01.563-1.517.841-.28.153-.56.322-.856.5h0a10.108,10.108,0,0,1-2.406,1.177,1.233,1.233,0,0,1-.771.271,1.469,1.469,0,0,1-.766-.23A23.857,23.857,0,0,1,98.4,46.1c.011.341.023.693.04,1.041.073,1.494.095,3.016.116,4.488,0,.308.009.627.014.94l.012.678c.074,3.83.117,7.756.133,12,.035,9.078-.018,18.307-.068,27.233-.029,5.083-.059,10.339-.072,15.511-.016,6.261-.123,12.885-.346,21.477-.082,3.169-.261,6.352-.422,9.088l-.1,1.651c-.029.495-.058,1-.085,1.484a69.959,69.959,0,0,1-.89,8.96A.447.447,0,0,1,96.271,151Zm6.5-.51a2.192,2.192,0,0,1-.569-.077,2.144,2.144,0,0,1-1.5-2.636l.052-.124a2.206,2.206,0,0,1,1.537-1.538,2.175,2.175,0,0,1,.577-.077,2.192,2.192,0,0,1,2.134,1.639,2.2,2.2,0,0,1-1.462,2.661l-.079.024-.124.052A2.195,2.195,0,0,1,102.771,150.487Zm44.492-4.65a3.718,3.718,0,0,1-.559-.048,1.589,1.589,0,0,1-1.051-.718,2.448,2.448,0,0,1-.419-1.214c-.235-4.922-.557-10.118-.986-15.883-.463-6.225-.813-12.565-1.15-18.7v-.014c-.171-3.1-.348-6.312-.537-9.466l-.2-3.282c-.194-3.231-.406-6.987-.472-10.676-.019-1.069,0-2.155.012-3.2.018-1.269.037-2.581-.005-3.87-.012-.368-.029-.75-.045-1.119a21.455,21.455,0,0,1,.233-5.561.1.1,0,0,1,.1-.072.087.087,0,0,1,.082.048,14.763,14.763,0,0,1,1.058,3.356c1.232-1.558,2.562-3.219,3.945-4.808a.137.137,0,0,1,.1-.052.167.167,0,0,1,.136.083.162.162,0,0,1,.009.161c-1.195,2.343-2.512,4.642-3.787,6.865.1.607.2,1.235.324,1.85.176.9.368,1.806.554,2.683v0c.347,1.635.706,3.326.967,5.019,1.508,9.751,2.256,19.68,2.839,28.222.63,9.229.725,18.623.818,27.708l.007.7a2.09,2.09,0,0,1-.414,1.216,1.722,1.722,0,0,1-1.056.716A2.751,2.751,0,0,1,147.264,145.836Zm-145.41-.748a.962.962,0,0,1-.766-.418l-.148-.2-.023-.031a3.485,3.485,0,0,1-.883-1.818C-.01,142.071,0,141.5.007,140.947c0-.241.007-.489.006-.733-.006-1.444.008-2.975.045-4.819.062-3.061.184-6.166.363-9.23.371-6.319.987-12.595,1.831-18.652.76-5.456,1.725-10.977,2.866-16.41,1.134-5.4,2.471-10.839,3.974-16.178,1.6-5.683,3.159-10.6,4.765-15.02a124.643,124.643,0,0,1,6.23-14.463c1.139-2.221,2.352-4.365,3.6-6.37,1.322-2.116,2.724-4.139,4.17-6.012a63.7,63.7,0,0,1,4.78-5.522,55.877,55.877,0,0,1,5.434-4.9,52.9,52.9,0,0,1,5.609-3.863A49.171,49.171,0,0,1,49.76,15.7a32.157,32.157,0,0,1,6.611-2.036,32.77,32.77,0,0,1,4.486-.406c.733-.032,1.491-.065,2.242-.124h.013a.115.115,0,0,1,.12.116.151.151,0,0,1-.132.163,27.2,27.2,0,0,0-6.275,1.8l-.006,0c-.347.13-.706.265-1.057.393l-.2.074a52.81,52.81,0,0,0-7.008,3.1A53.629,53.629,0,0,0,36.5,27.686a63.78,63.78,0,0,0-5.011,5.5,71.839,71.839,0,0,0-4.352,5.995c-1.307,2.007-2.574,4.16-3.764,6.4-1.124,2.115-2.216,4.376-3.246,6.718a138.446,138.446,0,0,0-5.223,14.046c-1.332,4.209-2.6,8.748-4,14.283C9.6,85.788,8.448,91.127,7.483,96.5c-.939,5.229-1.728,10.634-2.346,16.063-.6,5.294-1.033,10.681-1.282,16.009-.127,2.725-.208,5.493-.242,8.229-.016,1.271-.022,2.65-.021,4.217,0,.178.009.366.018.564a5.066,5.066,0,0,1-.075,1.516,4.035,4.035,0,0,1-.709,1.247c-.082.112-.16.218-.234.325A.893.893,0,0,1,1.854,145.088Zm101.018-12.279-.116,0-.068,0,.041.005-.071-.008c-.067-.006-.134-.013-.2-.022l-.058-.007-.078-.009c-.03,0-.054,0-.077,0l-.053,0c-.037,0-.076.005-.114.005a2.006,2.006,0,0,1-1.288-.586,1.936,1.936,0,0,1-.431-.644,1.6,1.6,0,0,1-.149-.758l.02-.19a2.169,2.169,0,0,1,.2-.771,2.344,2.344,0,0,1,.569-.825,2.539,2.539,0,0,1,1.732-.705h.019a2.231,2.231,0,0,1,1.17.306l.458.355c.117.151.239.308.371.48a2.047,2.047,0,0,1,.265,1.424,1.67,1.67,0,0,1-.265.83l-.349.452a2.986,2.986,0,0,1-1.021.6A1.617,1.617,0,0,1,102.872,132.809Zm-.064-24.094a2.166,2.166,0,0,1-.87-.177,2.273,2.273,0,0,1-1.047-.864l-.041-.067c-.017-.027-.033-.055-.049-.084l-.022-.043a2.332,2.332,0,0,1,.35-2.713,2.059,2.059,0,0,1,1.546-.638,2.494,2.494,0,0,1,1.167.287,2.8,2.8,0,0,1,.457.334h0l.121.1a2.264,2.264,0,0,1,.666,1.608,2.037,2.037,0,0,1-.175.869,2.3,2.3,0,0,1-.491.74l-.1.093a1.851,1.851,0,0,1-.907.492A3.384,3.384,0,0,1,102.808,108.715Zm-.96-22.851a2.112,2.112,0,0,1-.561-.075,2.153,2.153,0,0,1-1.5-1.5L99.744,84a2.563,2.563,0,0,1,.048-1.1,2.991,2.991,0,0,1,.262-.655,2.324,2.324,0,0,1,.607-.7,2.588,2.588,0,0,1,.824-.42,1.806,1.806,0,0,1,.54-.085,1.774,1.774,0,0,1,.387.043,2.279,2.279,0,0,1,1.1.458,1.172,1.172,0,0,1,.417.417,1.759,1.759,0,0,1,.416.791l.083.618-.083.618-.234.556-.195.252a2.6,2.6,0,0,1-.809.675A2.174,2.174,0,0,1,101.848,85.864ZM132.923,67.12a9.27,9.27,0,0,1-1.034-.079c-.216-.025-.439-.05-.654-.065-1.094-.073-2.214-.136-3.328-.186-2.314-.1-4.424-.158-6.451-.167l-1.031,0c-1.644,0-3.414.016-5.411.048-.61.01-1.238.033-1.845.056-.819.031-1.666.062-2.5.062a22.079,22.079,0,0,1-2.289-.105.28.28,0,0,1-.259-.245.262.262,0,0,1,.188-.28,28.591,28.591,0,0,1,5.807-1.123l.687-.085c2.146-.271,4.384-.475,6.65-.606,2.426-.139,4.672-.214,6.867-.23.341,0,.688,0,1.031,0,.538,0,1.087,0,1.631.009l.665.009c.146,0,.288,0,.426,0a3.386,3.386,0,0,1,2.52.674,1.036,1.036,0,0,1,.359.861,1.435,1.435,0,0,1-.607,1.066A2.376,2.376,0,0,1,132.923,67.12Zm-31.3-5.325h-.073a2.318,2.318,0,0,1-1.169-.317l-.469-.363a2.325,2.325,0,0,1-.6-1.023l-.083-.616a2.4,2.4,0,0,1,2.244-2.319l.073,0a2.307,2.307,0,0,1,1.1.276l.073.041.469.362a2.326,2.326,0,0,1,.6,1.023l.083.616a2.4,2.4,0,0,1-2.244,2.32ZM109.9,13.884h-.055a2.2,2.2,0,0,1-1.474-.625,3.745,3.745,0,0,1-.861-1.415,13.25,13.25,0,0,1-.606-3.391,9.657,9.657,0,0,1,.245-3A8.269,8.269,0,0,1,108.352,2.7a.657.657,0,0,1,.552-.322.771.771,0,0,1,.58.3.631.631,0,0,1,.143.527,22.909,22.909,0,0,0,.489,4.819,9.145,9.145,0,0,0,.737,2.137l.144.283a2.481,2.481,0,0,1,.191,2.673,1.723,1.723,0,0,1-.549.552A1.41,1.41,0,0,1,109.9,13.884Z" transform="translate(5.07 0.962)"/>
  </g>
  <g id="HEAD" transform="translate(78.592 38.043)">
    <path id="_Skin-2" data-name="âœ‹ Skin" d="M53.294,0c9.439,0,20.764,4.587,21.727,4.679h.026q.76,0,5.938,4.536l-3.739,7.311.3.29c1.448,1.392,2.684,2.66,3.66,3.66,7.967,8.165,9.4,40.225,7.522,51.405S83.375,94,67.184,94s-34.2-9.76-36.978-12.8a7.87,7.87,0,0,0-6.234-2.912l-.282-.359-.339-.048a20.96,20.96,0,0,1-6.86-1.871c-2.7-1.531-5.666-9.579-5.666-11.352,0-1.755-4.43-14.523-4.519-15.874v-.037c0-1.13-5.787-6.322-5.787-7.971s-1.167-1.549,0-7.36l.339-1.707C2.1,25.526,4.528,15.282,13.792,10.83,23.973,5.939,43.76,0,53.294,0Z" transform="translate(-1.685 12.408)" fill="#d08b5b"/>
    <path id="_Hat" data-name="ðŸ§¢ Hat" d="M23.973,78.292l-.282-.359-.339-.048a20.962,20.962,0,0,1-6.86-1.871c-2.7-1.531-5.666-9.579-5.666-11.352,0-1.755-4.43-14.523-4.518-15.874v-.037c0-1.13-5.787-6.322-5.787-7.971s-1.167-1.549,0-7.36l.339-1.707C2.1,25.526,4.528,15.282,13.792,10.83,23.973,5.939,43.76,0,53.295,0c9.439,0,20.764,4.587,21.727,4.679h.026q.76,0,5.938,4.535l-.877,1.715c-11.4.334-30.151,1.354-38.335,4.467C29.6,20.028,26.494,50.579,26.494,50.579a52.141,52.141,0,0,0-8.5,5.314c-4.252,3.3-2.152,3.4-2.152,3.4s-.183,7.062,1.127,9.863,9.071,3.3,9.071,3.3l1.314,4.412-.182,2.045A7.044,7.044,0,0,0,23.973,78.292Z" transform="translate(-1.687 12.47)" fill="#9ddadb"/>
    <path id="_Ink-2" data-name="ðŸ– Ink" d="M66.361,98.5a22.6,22.6,0,0,1-7.727-1.364,23.032,23.032,0,0,1-7.174-4.22,8.184,8.184,0,0,0-.774-.707c-.638-.542-1.43-1.216-1.372-1.535a.2.2,0,0,1,.15-.149c.209.222.436.451.694.7a.135.135,0,0,1-.008-.078l-.222-.2c-.451-.419-.659-.686-.616-.8.015-.039.061-.058.138-.058a.789.789,0,0,1,.135.014c.016.019.032.035.05.053l.037.038a3.023,3.023,0,0,1,.306.207l.04.032L50,90.422c-.248-.265-.386-.487-.352-.565.009-.022.032-.033.067-.033a.679.679,0,0,1,.249.078l.07.034c.227.239.462.475.721.721a.14.14,0,0,1,.015-.085l-.228-.221c-.2-.2-.193-.218-.106-.355v0l.025-.039c-.114-.16-.159-.273-.13-.328a.082.082,0,0,1,.08-.037.711.711,0,0,1,.522.355.422.422,0,0,1,.1-.011c.306,0,.59.331.84.623a1.5,1.5,0,0,0,.457.424,23.591,23.591,0,0,0,6.495,3.581,20.332,20.332,0,0,0,6.816,1.194,19.533,19.533,0,0,0,7.775-1.615A22.138,22.138,0,0,0,80.406,89.3a27.9,27.9,0,0,0,4.045-5.271,35.831,35.831,0,0,0,3.128-6.834A55.149,55.149,0,0,0,90.2,58.831l-.006-.655c-.03-2.986-.119-5.624-.272-8.066-.181-2.9-.451-5.521-.824-8.026a66.4,66.4,0,0,0-1.633-7.836,50.57,50.57,0,0,0-2.7-7.495,28,28,0,0,0-1.44-2.722c-.37-.669-.765-1.317-1.174-1.927a17.434,17.434,0,0,1-3.477-.645c-.426-.108-.808-.218-1.168-.338-3.245.177-6.507.367-9.662.551h0c-2.356.137-4.793.279-7.225.416l-1.775.111a45.686,45.686,0,0,0-7.187.893,16.46,16.46,0,0,0-6.49,2.9,7.752,7.752,0,0,0-1.345,1.223,10.048,10.048,0,0,0-1.038,1.435,26.178,26.178,0,0,0-1.56,3.217,29.971,29.971,0,0,1-1.314,2.788,9.413,9.413,0,0,1-1.835,2.4,13.955,13.955,0,0,0-2.491,2.1A9.021,9.021,0,0,0,34.118,41.3a18.935,18.935,0,0,0-1.36,5.019h0c-.082.454-.166.923-.26,1.413a20.2,20.2,0,0,0,.349,2.857,13.712,13.712,0,0,1,.287,4.33,3.6,3.6,0,0,1-.756,1.739,3.382,3.382,0,0,1-.763.673,4.692,4.692,0,0,1-1.081.507c.271.388.291.541.259.6a.084.084,0,0,1-.082.041.774.774,0,0,1-.557-.461h0l-.02,0c.238.444.251.6.22.652a.054.054,0,0,1-.05.026c-.147,0-.521-.374-.573-.616a.382.382,0,0,1-.158-.106c.224.363.238.5.211.546a.062.062,0,0,1-.059.03.84.84,0,0,1-.458-.318c-.04-.055-.056-.1-.046-.13a4.183,4.183,0,0,0-1.857-1.557,5.786,5.786,0,0,0-2.324-.465,6.4,6.4,0,0,0-1.709.23.089.089,0,0,1-.089.063.122.122,0,0,1-.071-.023,5.937,5.937,0,0,0-4.148,3.477,9.858,9.858,0,0,0-.822,2.838,12.574,12.574,0,0,0-.044,3.086,10.786,10.786,0,0,0,1.913,5.256,5.266,5.266,0,0,0,4.28,2.312,5.744,5.744,0,0,0,1.1-.11A.783.783,0,0,1,25.6,73.2a.238.238,0,0,1,.213.093.1.1,0,0,0,.048.039c-.048-.127-.054-.219-.017-.273a.132.132,0,0,1,.115-.051.347.347,0,0,1,.222.089.062.062,0,0,1,.021.043l.033,0,.016,0h0l.011,0h0c-.032-.178-.029-.292.009-.338a.062.062,0,0,1,.05-.023c.188,0,.649.65.711.839.008.024.008.039,0,.044a.267.267,0,0,1,.1-.034l-.036-.1c-.065-.173-.1-.254-.126-.3a.263.263,0,0,1-.031-.172c0-.017,0-.036,0-.059a1.573,1.573,0,0,0-.1-.212c-.029-.051-.029-.051-.014-.148v-.01l0-.025a.29.29,0,0,1,.174-.071c.2,0,.323.32.419.576.054.143.1.267.148.292a.442.442,0,0,1-.094-.44.149.149,0,0,1,.134-.086.25.25,0,0,1,.152.063,40.833,40.833,0,0,0,3.217,5.638,29.773,29.773,0,0,0,4.151,4.873c.281.222.652.511,1.039.782a14.255,14.255,0,0,0,2.462,1.584,14.1,14.1,0,0,1,2.121,1.332.125.125,0,0,1-.021.059l.028.025.029.027.43.207a2.312,2.312,0,0,1,.341.361,2.377,2.377,0,0,1,.283.408.2.2,0,0,1-.017.169.1.1,0,0,1-.084.036.29.29,0,0,1-.116-.03c-.049-.017-.1-.035-.146-.054h0l-.075-.028,0,.005a.047.047,0,0,0,.007.009c.022.033.119.263.079.338a.045.045,0,0,1-.043.024.12.12,0,0,1-.037-.007l-.022-.009c-.077-.028-.154-.059-.229-.089l-.079-.032c.094.117.182.244.26.356l0,0,.064.091a.72.72,0,0,1,.192.378c0,.07-.038.105-.1.105l-.027,0c-.118-.039-.237-.08-.363-.127l.034.066c.066.13.137.3.1.354a.044.044,0,0,1-.041.02.186.186,0,0,1-.07-.019c-.167-.052-.343-.116-.538-.195a.048.048,0,0,1-.046.029.143.143,0,0,1-.058-.016,10.85,10.85,0,0,1-1.627-.736c-.276-.2-.558-.4-.83-.6l-.548-.394a10.658,10.658,0,0,1-1.248-.875A27.208,27.208,0,0,1,29.4,80.65a5.278,5.278,0,0,1-3.569,1.155,14.932,14.932,0,0,1-4.944-1.023,33.334,33.334,0,0,1-4.605-2.117,8.832,8.832,0,0,1-2.172-1.689,9.393,9.393,0,0,1-1.5-2.164,12.3,12.3,0,0,1-.93-2.515,17.569,17.569,0,0,1-.46-2.741,10.627,10.627,0,0,0-.666-2.464c-.3-.763-.665-1.491-1.051-2.261a25.233,25.233,0,0,1-2-4.931,28.325,28.325,0,0,1-.827-8.2.066.066,0,0,1-.021,0,2.149,2.149,0,0,1-.432-.18,2.155,2.155,0,0,1-.4-.245l-.154-.213a1.306,1.306,0,0,1-.206-.138l-.028.037c-.02.025-.034.037-.042.037l0,0c-.008-.011,0-.056.014-.09,0-.014.007-.026.008-.032l-.267-.365c-.357-.489-.733-1.01-1.1-1.514h0c-.283-.392-.55-.762-.8-1.1l-.018.032c-.012.023-.019.04-.014.048a22.694,22.694,0,0,1-1.857-3.155,12.489,12.489,0,0,1-1.11-3.4,9.757,9.757,0,0,1-.237-2.634,14.233,14.233,0,0,1,.347-2.538A71.332,71.332,0,0,1,5.1,24.173a53.58,53.58,0,0,1,3.908-6.668A26.354,26.354,0,0,1,13.7,12.229,12.017,12.017,0,0,1,16.285,10.3a38.058,38.058,0,0,1,4.086-2.046A93.465,93.465,0,0,1,31.713,4.277,125.987,125.987,0,0,1,45.066,1.222c2.3-.391,4.519-.693,6.6-.9C53.857.109,55.911,0,57.773,0a36.935,36.935,0,0,1,4.41.242L62.62.3a25.841,25.841,0,0,1,3.442.676A29.19,29.19,0,0,1,76.523,5.3c.509.358,1.229.755,2.063,1.215a23.09,23.09,0,0,1,4.961,3.33,6.7,6.7,0,0,1,.874,1.046,4.168,4.168,0,0,1,.54,1.139,3.241,3.241,0,0,1,.112,1.236,3.849,3.849,0,0,1-.41,1.336,7.938,7.938,0,0,1,.85,2.67,5.742,5.742,0,0,1-.243,2.652,6.268,6.268,0,0,1-.468,1.617,47.066,47.066,0,0,1,4.522,8.818,101.614,101.614,0,0,1,2.493,11.336,86.932,86.932,0,0,1,1.074,11.449,100.423,100.423,0,0,1-.078,11.181c-.132,1.967-.336,3.876-.606,5.671a54.791,54.791,0,0,1-1.12,5.558,43.167,43.167,0,0,1-1.738,5.319,34.94,34.94,0,0,1-2.457,4.954,29.954,29.954,0,0,1-3.28,4.464,28.221,28.221,0,0,1-4.2,3.849,20.281,20.281,0,0,1-6.1,3.248A21.951,21.951,0,0,1,66.361,98.5ZM50.2,90.619h0l.074.093a.629.629,0,0,0,.144.136.117.117,0,0,1,0-.047c-.043-.033-.087-.069-.131-.107ZM9.536,36.593a58.436,58.436,0,0,1-.086,7.846c-.087,1.507-.176,3.065-.181,4.611a31.3,31.3,0,0,0,.314,4.736,25.593,25.593,0,0,0,1.3,5.089,31.967,31.967,0,0,0,2.773,5.669,14.121,14.121,0,0,1,1.534,4.963,17.947,17.947,0,0,0,.424,2.078,5.891,5.891,0,0,0,.885,1.871c.941,1.3,2.573,2.3,5.135,3.158l.229.088a17.823,17.823,0,0,0,2.086.664,8.889,8.889,0,0,0,2.107.279,5.771,5.771,0,0,0,1.214-.124l-.155-.252c-.1-.17-.152-.272-.127-.355a.253.253,0,0,1,.151-.141.29.29,0,0,0-.014-.025l-.009-.015c-.193-.365-.373-.723-.536-1.065-.056.019-.111.033-.17.048l-.041.011a.159.159,0,0,1,.022.138.133.133,0,0,1-.1.065,3.675,3.675,0,0,1-1.2.2c-.077,0-.155,0-.232-.007l-.1-.008a4.8,4.8,0,0,1-1.21-.228l-.013,0c-.1-.016-.2-.032-.295-.053a7.142,7.142,0,0,1-2.745-1.348,9.359,9.359,0,0,1-2.714-2.354,11.449,11.449,0,0,1-1.75-3.176,14.123,14.123,0,0,1-.594-7.332,11.153,11.153,0,0,1,2.481-5.346,8.5,8.5,0,0,1,2.26-1.831,8.659,8.659,0,0,1,2.942-.984,50.578,50.578,0,0,1,.938-8.167,74.387,74.387,0,0,1,2.435-9.354A67.522,67.522,0,0,1,30.3,26.669a42.643,42.643,0,0,1,5.05-7.915c2.744-3.379,7.612-6.215,14.077-8.2a62.029,62.029,0,0,1,9.353-2.062,66.851,66.851,0,0,1,9.469-.69c1.843,0,3.626.084,5.3.25l.564.189a17.087,17.087,0,0,1,3.486.82c.777.241,1.58.49,2.387.658a14,14,0,0,0-2.269-1.373,24.53,24.53,0,0,0-2.45-1.023,26.338,26.338,0,0,0-5.278-2.434A46.928,46.928,0,0,0,64.441,3.4a10.683,10.683,0,0,0-2.324-.309c-1.442-.124-2.934-.187-4.435-.187A68,68,0,0,0,45.246,4.144C41.7,4.8,37.939,5.7,33.065,7.068l-.651.188c-.528.151-1.061.3-1.577.447-4.869,1.372-9.9,2.79-14,5.755A24.207,24.207,0,0,0,14.6,15.41a27.428,27.428,0,0,0-1.981,2.181A35.6,35.6,0,0,0,9.3,22.476c-.892,1.558-1.764,3.3-2.665,5.314C5.8,29.676,5.03,31.575,4.378,33.206a13.533,13.533,0,0,0-1.183,4.062A13.271,13.271,0,0,0,3.3,41.307a13.135,13.135,0,0,0,1.281,3.739,12.679,12.679,0,0,0,2.332,3.161A60.679,60.679,0,0,1,9.015,37.4a2.635,2.635,0,0,0,.123-.418c.054-.241.076-.34.4-.39ZM32.421,68.05c-.134,0-.444-.27-.68-.5a.285.285,0,0,1-.021.212.075.075,0,0,1-.06.025c-.112,0-.326-.163-.653-.5-.109-.112-.212-.224-.3-.313a1.491,1.491,0,0,0-.182-.186,20.775,20.775,0,0,0-3.958-2.427,13.311,13.311,0,0,0-4.385-1.278l-.1-.011c-.352-.045-.547-.126-.613-.255a.318.318,0,0,1,.035-.3.941.941,0,0,1-.353-.147c-.082-.064-.094-.123-.09-.16.01-.086.112-.148.243-.148h.014c-.156-.1-.225-.216-.194-.319a.292.292,0,0,1,.284-.172.317.317,0,0,1,.124.024.245.245,0,0,1-.006-.218.192.192,0,0,1,.168-.061,1.266,1.266,0,0,1,.223.027l.03.006a.956.956,0,0,0,.149.022.055.055,0,0,0,.039-.01c.127-.2.235-.291.331-.291a.181.181,0,0,1,.105.039l.016.012h0a.1.1,0,0,0,.049.026c.012,0,.022-.009.03-.03a.865.865,0,0,1,.37-.131.188.188,0,0,1,.1.029l.014.009a.09.09,0,0,0,.047.02.075.075,0,0,0,.041-.015c.161-.013.326-.02.49-.02a7.712,7.712,0,0,1,2.689.526,12.475,12.475,0,0,1,2.574,1.352,17.3,17.3,0,0,1,2.275,1.84,17.513,17.513,0,0,1,1.794,1.991.114.114,0,0,1-.086.035c-.179,0-.466-.307-.575-.423l0,0L32.39,66.3a.1.1,0,0,1-.036.023l.058.082c.18.258.258.415.232.465a.035.035,0,0,1-.034.017,1.91,1.91,0,0,1-.623-.417,3.257,3.257,0,0,1-.56-.574.135.135,0,0,1-.065.019l-.021,0,.088.083h0a1.958,1.958,0,0,1,.519.629l.107.09c.49.421.745.813.7.936a.055.055,0,0,1-.057.035c-.143,0-.465-.255-.863-.682a.184.184,0,0,1,.019.152l.04.026c.32.224.624.692.581.829A.049.049,0,0,1,32.421,68.05Zm-12.052-33a1.008,1.008,0,0,1-.512-.133L19.1,34.4c-1.235-.829-2.465-1.639-3.94-2.444a1.209,1.209,0,0,1-.763-.969.678.678,0,0,1,.477-.591,2.554,2.554,0,0,1,.868-.128,7.818,7.818,0,0,1,5.187,2.255,2.179,2.179,0,0,1,.6,1.786A1.284,1.284,0,0,1,20.369,35.049Zm6.417-7.917a2.921,2.921,0,0,1-1.738-.6l-.691-.451c-1.443-.947-2.534-1.7-3.334-2.3-1.092-.823-1.614-1.348-1.551-1.559.022-.073.113-.11.271-.11a20.914,20.914,0,0,1,4.963,1.654c.245.105.5.2.777.3a3.99,3.99,0,0,1,2.285,1.448,1.217,1.217,0,0,1,.086,1.176A1.194,1.194,0,0,1,26.786,27.132Zm5.57-8.057a1.977,1.977,0,0,1-1.007-.286,43.3,43.3,0,0,0-3.891-2.183c-.661-.341-1.344-.694-1.992-1.052a.32.32,0,0,1,.036-.287.683.683,0,0,1,.547-.163,15.385,15.385,0,0,1,3.6.892l.327.108.165.063.316.116.006,0a5.036,5.036,0,0,1,2.57,1.552.9.9,0,0,1,.127.888A.881.881,0,0,1,32.356,19.075Zm6.807-6.616a5.425,5.425,0,0,1-3.112-1.428c-.364-.27-.739-.548-1.119-.779-.37-.4-.52-.693-.448-.858.048-.109.194-.164.434-.164a12.815,12.815,0,0,1,4.366,1.536l.024.018a.986.986,0,0,1,.411.9.931.931,0,0,1-.5.773Zm7.5-3.633a2.251,2.251,0,0,1-.933-.244,5.887,5.887,0,0,1-1.263-.843,6.772,6.772,0,0,1-.986-.823c-.182-.2-.258-.352-.225-.454s.169-.152.405-.152a8.876,8.876,0,0,1,3.387,1.112A.932.932,0,0,1,47.4,8.4.725.725,0,0,1,46.663,8.826Z" transform="translate(-3.162 10.779)"/>
  </g>
  <g id="FACE" transform="translate(112.183 77.354)">
    <path id="teeth" d="M3.1.709c2.307-1.39,10.932-.371,17.707,0,5.38.295,9.223-.289,10.453.539C34.04,3.119,32.691,12.165,27.9,13.4s-22.537,2.965-25.6,0S-1.038,3.2,3.1.709Z" transform="translate(13.63 41.096)" fill="#fff"/>
    <path id="_Ink-3" data-name="ðŸ– Ink" d="M20.051,43.538c-.412,0-.86,0-1.37-.009l-.584-.008c-.309,0-.644-.007-1.054-.007l-.954,0h-.022l-1,0A27.776,27.776,0,0,1,7.1,42.682a11.035,11.035,0,0,1-1.762-.708A8.528,8.528,0,0,1,3.78,40.953a7.647,7.647,0,0,1-1.3-1.391,8.387,8.387,0,0,1-.993-1.818,8.942,8.942,0,0,1-.517-1.866,9.246,9.246,0,0,1,.866-5.65A7.343,7.343,0,0,1,3.153,28.4a8.417,8.417,0,0,1,1.758-1.352,11.169,11.169,0,0,1,4.247-1.378,14.341,14.341,0,0,1,1.72-.1,31.966,31.966,0,0,1,6.179.815c.908.181,1.848.368,2.773.514a49.93,49.93,0,0,0,5.633.6c.4.018.8.027,1.142.034a1,1,0,0,1,.629-.828,4.895,4.895,0,0,1,2.179-.516c.077,0,.156,0,.236,0a17.858,17.858,0,0,1,2.5.27,9.119,9.119,0,0,1,2.2.687,6.694,6.694,0,0,1,1.9,1.293,5.848,5.848,0,0,1,1.374,2.12,6.6,6.6,0,0,1,.406,2.425,8.032,8.032,0,0,1-.437,2.467A8.585,8.585,0,0,1,36.438,37.7,11.949,11.949,0,0,1,34.9,39.457a12.1,12.1,0,0,1-1.766,1.367,13.7,13.7,0,0,1-1.953,1.027,16.839,16.839,0,0,1-2.1.734,24.847,24.847,0,0,1-4.471.779C23.29,43.482,21.841,43.538,20.051,43.538Zm7.1-8.476-.052,0c-2.562.1-5.242.173-7.967.221.077.658.16,1.362.253,2.046.068.5.143,1.024.232,1.606.011.072.031.157.053.247a1.633,1.633,0,0,1,.072.555l-.013.089a.806.806,0,0,1,.352.305,1.206,1.206,0,0,1,.077.147v0l.706,0a33,33,0,0,0,5.679-.4l0-.046a.882.882,0,0,1,.3-.574A14.178,14.178,0,0,0,27,37.45c.011-.266.022-.541.04-.8.025-.365.051-.735.077-1.094v-.005Q27.13,35.3,27.147,35.062Zm-17.631,4.9h0l.05.008c.07.012.143.024.215.034a35.136,35.136,0,0,0,4.847.266c.464,0,.935,0,1.39-.007h0c.414,0,.843-.006,1.262-.007a10.335,10.335,0,0,1-.095-1.719c0-.215,0-.417-.005-.6l0-.1c-.038-.83-.065-1.675-.08-2.513-1.327.023-2.753.043-4.18.043-.548,0-1.059,0-1.562-.009l-.869-.014c.059.315.12.635.179.944h0c.126.658.257,1.338.369,2.012a1.333,1.333,0,0,1-.3,1.116,1.586,1.586,0,0,1-1.181.548ZM4.1,35.141h0a5.822,5.822,0,0,0,.389,1.479,4.813,4.813,0,0,0,1.9,2.233A7.941,7.941,0,0,0,9.16,39.9a1.037,1.037,0,0,1-.686-.893,27.005,27.005,0,0,1-.238-3.685c-1.254-.012-2.712-.036-4.137-.179Zm27.878-.264c-.231,0-.478,0-.719.012-.787.036-1.588.068-2.363.1L28.547,35l.027.4v.008c.033.475.066.965.1,1.448.016.215.028.437.039.652a13.378,13.378,0,0,0,.177,1.782,11.023,11.023,0,0,0,2.559-1.24,8.841,8.841,0,0,0,2.112-1.969,6.189,6.189,0,0,0,.785-1.359,8.667,8.667,0,0,1-1.949.158h-.422ZM8.742,28.908h0a7.57,7.57,0,0,0-2.311.936,4.928,4.928,0,0,0-1.708,1.769,5.283,5.283,0,0,0-.536,1.435,6.07,6.07,0,0,0-.134,1.547c1.394-.162,2.835-.224,4.191-.273.005-.278.011-.525.018-.756l.021-.644q0-.125.008-.254a14.255,14.255,0,0,1,.45-3.76Zm2.97-.3h0c-.421,0-.832.014-1.222.04-.291.02-.586.052-.878.095a13.943,13.943,0,0,1,.364,2.743c.03.455.059.885.107,1.3.052.442.12.919.209,1.456l.347-.016c1.65-.089,3.328-.154,4.95-.215l1.5-.058c0-.447,0-.843.009-1.212l.008-.4c.007-.3.007-.609.006-.934a16.639,16.639,0,0,1,.105-2.341l-.721-.081-.174-.02a40.944,40.944,0,0,0-4.606-.351Zm6.764.579h0c.035.289.06.584.083.87v0c.012.145.024.294.038.44.076.823.166,1.678.275,2.612l.09.761c2.367-.107,4.885-.229,7.924-.383l.373-.02.1-1.463c.067-.924.145-1.917.26-2.922l-.083-.03a1.345,1.345,0,0,1-.277-.158,40.7,40.7,0,0,1-6.321.413h-.027c-.723,0-1.5-.039-2.439-.122Zm9.7.072c.082.981.139,1.982.194,2.949.022.392.045.8.07,1.2l1.741-.093.87-.049c.314-.018.647-.057,1-.1a13.874,13.874,0,0,1,1.582-.124,4.031,4.031,0,0,1,1.111.134,2.9,2.9,0,0,0-1.12-2.684,4.329,4.329,0,0,0-1.672-.737,12.818,12.818,0,0,0-1.808-.228,11.625,11.625,0,0,1-1.969-.267Zm-3.606-5.049a3.387,3.387,0,0,1-2.533-.892,1.518,1.518,0,0,1-.428-.866,1.722,1.722,0,0,1,.129-.9,1.885,1.885,0,0,1,.581-.756,1.433,1.433,0,0,1,.869-.308,1.456,1.456,0,0,1,.825.27,2.051,2.051,0,0,0,1.151.272,8.386,8.386,0,0,0,2.243-.388l.056-.016a3.586,3.586,0,0,0,1-.481,2.376,2.376,0,0,0,.769-.821,1.345,1.345,0,0,0,.089-1.086,1.717,1.717,0,0,0-1.182-1.024,5.753,5.753,0,0,0-1.624-.258c-.1,0-.2-.005-.3-.005a17.5,17.5,0,0,0-2.338.21c-.5.068-1.024.139-1.54.178h-.017a.194.194,0,0,1-.187-.154.22.22,0,0,1,.094-.253,11.6,11.6,0,0,1,2.487-1.013,11.183,11.183,0,0,1,3.014-.463,4.736,4.736,0,0,1,2.688.684,3.129,3.129,0,0,1,1.321,2.455,4.138,4.138,0,0,1-.865,2.869,5.941,5.941,0,0,1-2.405,1.853l-.07.029a13.058,13.058,0,0,1-1.787.588A8.572,8.572,0,0,1,24.568,24.207Zm12.055-6.936a.9.9,0,0,1-.093,0l-.148-.014a1.335,1.335,0,0,1-.22-.036,1.46,1.46,0,0,1-.732-.5,1.226,1.226,0,0,1-.284-.835l.011-.175a5.611,5.611,0,0,0-.23-2.2,2.167,2.167,0,0,0-.571-.859,2.2,2.2,0,0,0-1.046-.5,1.99,1.99,0,0,0-.4-.041,1.732,1.732,0,0,0-1.441.8,3.125,3.125,0,0,0-.516,1.706.328.328,0,0,1-.322.318.294.294,0,0,1-.155-.044,2.153,2.153,0,0,1-.99-1.375,3.054,3.054,0,0,1,.133-1.727,3.511,3.511,0,0,1,1.3-1.691,3.892,3.892,0,0,1,2.038-.67c.073,0,.146-.005.218-.005A4.528,4.528,0,0,1,36.8,11.263a5.95,5.95,0,0,1,1.093,2.365,5.7,5.7,0,0,1-.03,2.622,1.429,1.429,0,0,1-.462.7A1.228,1.228,0,0,1,36.623,17.271ZM4.538,16.643a.441.441,0,0,1-.192-.047,1.467,1.467,0,0,1-.662-.632,2.165,2.165,0,0,1-.239-.894,4.216,4.216,0,0,1,.337-1.845,5.8,5.8,0,0,1,1.225-1.813,4.8,4.8,0,0,1,1.845-1.165A5,5,0,0,1,8.437,9.99a5.516,5.516,0,0,1,2.886.841,5.926,5.926,0,0,1,2.092,2.192.972.972,0,0,1,.809.975,2.712,2.712,0,0,1-.731,1.765,1.428,1.428,0,0,1-1.069.464,1.705,1.705,0,0,1-.956-.3,1.535,1.535,0,0,1-.609-.814l-.014-.049a2.677,2.677,0,0,0-.952-1.406A2.609,2.609,0,0,0,8.315,13.1,2.4,2.4,0,0,0,6.451,14,5.929,5.929,0,0,0,5.8,15.077a4.6,4.6,0,0,1-1,1.46A.4.4,0,0,1,4.538,16.643ZM.186,11.978a.134.134,0,0,1-.13-.126A10.288,10.288,0,0,1,.1,9.342a12.641,12.641,0,0,1,.621-2.53A12.951,12.951,0,0,1,1.838,4.456,10.906,10.906,0,0,1,3.365,2.467,8.776,8.776,0,0,1,5.874.767,7.63,7.63,0,0,1,9,0a3.653,3.653,0,0,1,1.953.5,3.234,3.234,0,0,1,1.321,1.71,1.434,1.434,0,0,1-.144,1.166,1.455,1.455,0,0,1-.937.738,3.6,3.6,0,0,1-.709.067,8.291,8.291,0,0,1-1.31-.139h0A8.322,8.322,0,0,0,7.847,3.9c-.107,0-.213,0-.315.012A5.474,5.474,0,0,0,4.63,4.97,7.147,7.147,0,0,0,2.948,6.9,21.485,21.485,0,0,0,1.777,9.172,17.557,17.557,0,0,1,.3,11.917.133.133,0,0,1,.186,11.978Zm38.9-2.5a1.947,1.947,0,0,1-.543-.076c-1.336-.387-1.686-1.325-2.092-2.411-.078-.209-.159-.424-.248-.641a5.485,5.485,0,0,0-1.747-2.233,8.121,8.121,0,0,0-4.748-1.435,7.528,7.528,0,0,0-2.133.289.123.123,0,0,1-.035.005.168.168,0,0,1-.144-.094.119.119,0,0,1,.011-.129c.1-.131.192-.256.279-.377A4.449,4.449,0,0,1,28.6,1.364,6.444,6.444,0,0,1,32.55.031a7.375,7.375,0,0,1,2.2.338,8.211,8.211,0,0,1,1.983.928,8.443,8.443,0,0,1,1.677,1.412A9.293,9.293,0,0,1,39.6,4.315a5.087,5.087,0,0,1,.276.638,6.465,6.465,0,0,0,.287.672,2.182,2.182,0,0,1,1.089,1.547,1.747,1.747,0,0,1-.063.783,1.9,1.9,0,0,1-.449.74L40.7,8.74l-.13.129A2.119,2.119,0,0,1,39.089,9.479Z" transform="translate(10.563 13.738)"/>
  </g>
  <g id="FACIAL_HAIR" data-name="FACIAL HAIR" transform="translate(104.577 109.479)">
    <path id="_Ink-4" data-name="ðŸ– Ink" d="M42.882,39.311h0c-1.731,0-3.459-.168-4.983-.316a56.53,56.53,0,0,1-12.609-2.759c-1.912-.645-3.883-1.412-6.028-2.346l-.884-.381a41.118,41.118,0,0,1-4.946-2.389,19.077,19.077,0,0,1-3.591-3.108l0,0c-.193-.2-.393-.4-.587-.6a65.614,65.614,0,0,1-5.726-6.4,20.7,20.7,0,0,1-2.081-3.166A11.613,11.613,0,0,1,.276,14.262C-.36,10.112.228,5.78.8,1.59.841,1.26.887.919.932.584A.183.183,0,0,1,1.107.436a.107.107,0,0,1,.108.078c0-.069-.008-.141-.013-.235A.257.257,0,0,1,1.27.085.292.292,0,0,1,1.482,0a.287.287,0,0,1,.284.2,25.019,25.019,0,0,0,5.528,9.84,30.424,30.424,0,0,0,2.577,2.473c.849.728,1.767,1.447,2.805,2.2,1.929,1.393,3.988,2.682,5.98,3.928h0c.414.259.842.527,1.261.791a1.071,1.071,0,0,1,.523-.279,11.792,11.792,0,0,1,1.891-4.11,18.258,18.258,0,0,1,2.987-3.312A24.96,24.96,0,0,1,41.276,5.826a21.037,21.037,0,0,1,3.954.367,18.335,18.335,0,0,1,3.759,1.141,16.3,16.3,0,0,1,4.4,2.8A16.519,16.519,0,0,1,56.7,14.177a17.309,17.309,0,0,1,1.346,2.9c.163.458,1.435,5.586.633,8.524a21.942,21.942,0,0,1-1.59,4.1,25.27,25.27,0,0,1-2.334,3.749A14.366,14.366,0,0,1,48.571,38.4a12.672,12.672,0,0,1-2.772.717A19.841,19.841,0,0,1,42.882,39.311ZM40.424,11.432a23.743,23.743,0,0,0-5.81.655A15.123,15.123,0,0,0,28.773,15a13.989,13.989,0,0,0-2.261,2.321,12.933,12.933,0,0,0-1.639,2.795,7.46,7.46,0,0,0,.067,2.638,19.623,19.623,0,0,0,5.081,2.575,17.716,17.716,0,0,0,5.606.927,16.686,16.686,0,0,0,1.925-.111c.3-.37.6-.793.921-1.24A18.746,18.746,0,0,1,40.4,22.5a4.412,4.412,0,0,1,2.438-1.382,3.359,3.359,0,0,1,.481-.035,3.645,3.645,0,0,1,2,.649,12.955,12.955,0,0,1,1.723,1.431,11.361,11.361,0,0,0,1.979,1.59c.108.062.23.125.374.194a7.765,7.765,0,0,0,3.805-1.188,3.811,3.811,0,0,0,1.253-1.37A5.4,5.4,0,0,0,55,20.668c-.058-.233-.121-.472-.189-.709a18.318,18.318,0,0,0-.874-2.425,13.449,13.449,0,0,0-1.261-2.242,8.552,8.552,0,0,0-1.45-1.611,6.573,6.573,0,0,0-1.844-1.122,17.315,17.315,0,0,0-4.708-.887l-.375-.036C42.891,11.5,41.623,11.432,40.424,11.432Z" transform="translate(-0.001 0)"/>
  </g>
  <g id="ACCESORIES" transform="translate(88.521 88.978)">
    <path id="_Ink-5" data-name="ðŸ– Ink" d="M42.408,26.145a15.918,15.918,0,0,1-2.793-.253,15.741,15.741,0,0,1-2.734-.744,10.37,10.37,0,0,1-4.358-2.879,15.2,15.2,0,0,1-2.475-6.711,23.165,23.165,0,0,1-.274-4.158A16.964,16.964,0,0,1,30.3,7.469l-.013-.005-.022-.009c-.015.148-.228.272-.614.36a6.586,6.586,0,0,1-1.372.124c-1.189,0-2.569-.221-2.974-.716a.459.459,0,0,1-.106-.395c-2.517.045-5.246.21-8.34.505-2.761.263-5.559.6-8.265.933-1.867.227-3.8.462-5.707.671-.9.084-.946.727-.989,1.348a2.628,2.628,0,0,1-.122.75.735.735,0,0,1-.525.465H1.211a1.149,1.149,0,0,1-.87-.33,1.346,1.346,0,0,1-.332-.819A3.2,3.2,0,0,1,.5,8.491a2.918,2.918,0,0,1,.65-.758A1.894,1.894,0,0,1,2,7.326c1.86-.194,3.767-.452,5.612-.7A90.487,90.487,0,0,1,19.562,5.549a34.632,34.632,0,0,1,5.839.459,1.9,1.9,0,0,1,1.605-.689,8.127,8.127,0,0,1,1.894.319c.337.085.656.165.93.206a3.682,3.682,0,0,1,1.331-2.2,8.5,8.5,0,0,1,2.788-1.472A19.718,19.718,0,0,1,37.7,1.348a33.121,33.121,0,0,1,4.229-.257c4,0,8,.634,10.183,1.615,4.014-.462,8.178-.787,12.206-1.1h.006c1.629-.127,3.313-.258,4.94-.4A23.4,23.4,0,0,1,76.369,0,14.878,14.878,0,0,1,80.65.594c.067,0,.126-.006.179-.006.349,0,.4.078.5.219.02.028.042.059.069.093a5.5,5.5,0,0,1,1.97,1.51,5.707,5.707,0,0,1,1.186,2.339,6.078,6.078,0,0,1,2.648-.527,12.754,12.754,0,0,1,1.654.121,1.842,1.842,0,0,1,.629.428.476.476,0,0,1,.127.42.84.84,0,0,1-.373.465,3.209,3.209,0,0,1-.78.381,6.548,6.548,0,0,1-2.063.352c-.847,0-1.419-.2-1.609-.571a18.68,18.68,0,0,1,0,4.537A22.044,22.044,0,0,1,83.643,15.3a16.2,16.2,0,0,1-2.406,4.465,10.412,10.412,0,0,1-3.76,3.086A9.942,9.942,0,0,1,73.083,23.9a9.19,9.19,0,0,1-3.672-.76,9.508,9.508,0,0,1-3.069-2.132,11,11,0,0,1-2.95-8.123.808.808,0,0,1-.525-.43,2.645,2.645,0,0,1-.235-1.2,9.205,9.205,0,0,1,.143-1.588,18.788,18.788,0,0,1,.761-2.961,26.2,26.2,0,0,0-3.957-.374,11.8,11.8,0,0,0-3.616.525,8.279,8.279,0,0,1-.044,4.115,26.88,26.88,0,0,1-1.794,5.435,27.509,27.509,0,0,1-2.937,5.143,14.96,14.96,0,0,1-1.708,1.958A7.435,7.435,0,0,1,47.716,24.8a7.193,7.193,0,0,1-2.373,1.016,12.279,12.279,0,0,1-2.934.332h0ZM40.583,3.13a21.694,21.694,0,0,0-4.143.3,9.253,9.253,0,0,0-3.7,1.465,4.061,4.061,0,0,0-.719,1.238,9.274,9.274,0,0,0-.469,1.736,19.685,19.685,0,0,0-.219,4.388,24.009,24.009,0,0,0,.69,4.641,12.353,12.353,0,0,0,1.539,3.733,8.235,8.235,0,0,0,2.973,2.3,13.31,13.31,0,0,0,2.562,1.009,11.179,11.179,0,0,0,2.972.419,9.226,9.226,0,0,0,3.153-.543,9.6,9.6,0,0,0,3.1-1.876,14.148,14.148,0,0,0,2.823-3.581,26.135,26.135,0,0,0,2.312-5.657A10.526,10.526,0,0,0,54.3,8.9a4.782,4.782,0,0,0-.766-2.7,4.952,4.952,0,0,0-1.465-1.4,8.393,8.393,0,0,0-2.1-.929,15.715,15.715,0,0,0-2.608-.526,27.987,27.987,0,0,0-3-.189c-.184,0-.374,0-.581,0-.51,0-1.02-.008-1.56-.016H42.2C41.674,3.138,41.131,3.13,40.583,3.13Zm36.03-.983a23.411,23.411,0,0,0-4.336.328A11.568,11.568,0,0,0,68.241,3.97a6.958,6.958,0,0,0-2.782,3.362,9.976,9.976,0,0,0-.6,2.126,12.823,12.823,0,0,0-.176,2.217,1.283,1.283,0,0,1-.142.782,1.028,1.028,0,0,1-.487.41,16.192,16.192,0,0,0,1.326,4.162,10.8,10.8,0,0,0,2.058,2.938,8.1,8.1,0,0,0,2.558,1.742,7.229,7.229,0,0,0,2.826.575h0a8.534,8.534,0,0,0,6.118-2.809,14.854,14.854,0,0,0,3.685-8.213,18.3,18.3,0,0,0,.31-4.11A7.715,7.715,0,0,0,82.6,5.27a4.556,4.556,0,0,0-.841-1.562A4.031,4.031,0,0,0,80.152,2.57a6.834,6.834,0,0,0-2.518-.42l-.251,0C77.107,2.149,76.855,2.147,76.612,2.147Zm-23.7,1h0a7.42,7.42,0,0,1,1.745,1.463,6.15,6.15,0,0,1,1.174,1.87,6.5,6.5,0,0,1,2.387-.945,13.124,13.124,0,0,1,2.6-.226c.322,0,.662.008,1.037.024.114.007.233.011.36.016a4.3,4.3,0,0,1,1.8.322,8.689,8.689,0,0,1,1.235-1.8A8.468,8.468,0,0,1,66.81,2.481c-.641.049-1.3.1-1.928.15h0c-3.377.266-6.868.54-10.263.54C54.033,3.171,53.46,3.163,52.912,3.147Z" transform="translate(-0.423 2.113)"/>
  </g>
</svg>
