<svg id="peep-31" xmlns="http://www.w3.org/2000/svg" width="240" height="324" viewBox="0 0 240 324">
  <g id="BODY" transform="translate(31.056 135.053)">
    <path id="_Skin" data-name="âœ‹ Skin" d="M158.088,123.645q-1.277-7.217-2.342-14.47c-.337-2.3-.665-4.593-.961-6.894-.207-1.612-.522-3.456.575-4.65,1.543-1.681,2.944-3.119,3.133-5.526.178-2.265-.588-4.734-1.067-6.933-1-4.611-2.254-9.165-3.635-13.675-1.4-4.583-2.941-9.122-4.5-13.653a127.35,127.35,0,0,0-4.762-12.575,36.828,36.828,0,0,0-17.249-17.24c-1.875-.949-5.7-4.335-7.66-5.093-1.8-.7-1.795,1.338-3.568.572a7.089,7.089,0,0,1-3.53-2.8c-.862-1.486-3.022-3.565-3.351-5.3-.7-3.667.058-6.789-2.558-9.549A19,19,0,0,0,97.937.833C90.831-1.15,81.354.236,77.067,6.842,75.019,10,74.3,13.81,71.54,16.385c-2.413,2.248-1.873,3.785-5,4.943-.177.066-4.974-.964-5.151-.9-3.419-.732-6.686,1.317-9.823,2.506a68.751,68.751,0,0,0-13.31,6.82A84.361,84.361,0,0,0,16.646,50.585,101.986,101.986,0,0,0,2.666,77.548Q1.457,81.044.5,84.619a7.19,7.19,0,0,0-.3,4.08,5.256,5.256,0,0,0,2.077,2.618c1.26.908,3.787,1.5,3.738,3.325a31.9,31.9,0,0,1-.738,4.222c-.274,1.634-.5,3.278-.723,4.92-1.023,7.471-1.818,14.985-2.17,22.519a194.546,194.546,0,0,0-.12,22.406,2.87,2.87,0,0,0,.415,1.317.3.3,0,0,0,.037.551l.574.122a2.525,2.525,0,0,0,1.464.5c.387.012.773.03,1.16.05,4.078.853,8.155,1.658,12.286,2.268q7.532,1.112,15.109,1.837c10.381,1.01,20.68.675,31.074.131q15.567-.815,31.14-.4c10.4.271,20.793.723,31.193.908,11.62.207,23.221-.111,34.807-1.035a2.387,2.387,0,0,0,2.258-2.969C161.9,142.535,159.769,133.142,158.088,123.645Z" transform="translate(5.493 -6.763)" fill="#d08b5b"/>
    <path id="_Top" data-name="ðŸ‘• Top" d="M51.568,2.66l.227-.087c3.067-1.2,6.259-3.133,9.6-2.418.118-.044,2.289.4,3.776.68L63.755,2.307l-2.491.479Q74.154,24.068,91.753,24.068T118.463,2.787l.829-.229a2.43,2.43,0,0,1,.328.1c1.959.758,5.784,4.144,7.66,5.093a36.829,36.829,0,0,1,17.249,17.24,122.146,122.146,0,0,1,4.616,12.152l.146.424c1.561,4.531,3.1,9.071,4.5,13.653,1.321,4.314,2.522,8.669,3.5,13.074l.132.6c.479,2.2,1.244,4.668,1.067,6.933a6.127,6.127,0,0,1-.615,2.259l-17,6.118,8.1,55.246q-11.125.477-22.272.268c-10.4-.185-20.795-.638-31.193-.908q-15.111-.393-30.2.352l-2.556.131a199.843,199.843,0,0,1-29.462-.213l-.671-.066h0v-8.081l3.458-45-17.524-3.3-17.2-8.358A4.584,4.584,0,0,1,.194,68.423a6.673,6.673,0,0,1,.225-3.784l.079-.3q.957-3.573,2.167-7.071a101.986,101.986,0,0,1,13.98-26.963A84.361,84.361,0,0,1,38.258,9.48,68.751,68.751,0,0,1,51.568,2.66Z" transform="translate(5.493 13.513)" fill="#ec7495"/>
    <path id="_Ink" data-name="ðŸ– Ink" d="M34.171,150.261a1.828,1.828,0,0,1-.215-.012,1.883,1.883,0,0,1-1.19-.633,1.93,1.93,0,0,1-.485-1.264c-.008-1.767.148-3.575.3-5.322v0c.064-.736.129-1.5.181-2.243.146-2.081.309-4.286.529-7.147.425-5.518.9-11.125,1.357-16.547v0c.263-3.116.536-6.338.8-9.516.222-2.7.478-5.638.807-9.24a45.783,45.783,0,0,1-7.046-.8,57.9,57.9,0,0,1-6.831-1.76c-2.121-.681-4.292-1.491-6.637-2.477-1.981-.833-4.1-1.8-6.462-2.947-.117,2.663-.4,5.362-.667,7.973l-.042.4c-.9,8.66-1.564,16.3-2.043,23.345-.232,3.416-.428,7.064-.633,11.827-.083,1.931-.152,3.888-.2,5.817-.018.655-.034,1.308-.047,1.94l-.029,1.481A3.058,3.058,0,0,1,4.7,145.63a2.1,2.1,0,0,1-1.361.534,1.925,1.925,0,0,1-1.318-.534,2.585,2.585,0,0,1-.8-1.481,7.834,7.834,0,0,1-.059-1.7v0c.005-.144.011-.293.014-.44.026-1.09.058-2.208.094-3.325.073-2.2.167-4.437.281-6.647.371-7.2,1.1-14.77,2.235-23.136l.406-2.965c.366-2.657.766-5.487,1.292-8.305a67.229,67.229,0,0,1,1.995-8.154c-.639-.318-1.3-.652-1.974-.991-.344-.174-.7-.348-1.038-.516h0c-.817-.4-1.661-.818-2.458-1.276A3.631,3.631,0,0,1,.092,84.42a6.489,6.489,0,0,1,.309-3.1v0c.042-.161.082-.314.12-.467l.025-.1c.265-1.093.565-2.241.891-3.414A113.014,113.014,0,0,1,6.146,63.841,110.53,110.53,0,0,1,20.469,39.124a85.491,85.491,0,0,1,8.613-9.616c1.584-1.509,3.223-2.935,4.87-4.239a62.945,62.945,0,0,1,5.259-3.745,53.769,53.769,0,0,1,5.51-3.073,48.012,48.012,0,0,1,5.849-2.361,30.028,30.028,0,0,1,5.876-1.367c.94-.105,1.952-.179,3.182-.232.119-.005.243-.008.369-.008a19.19,19.19,0,0,1,2.124.16h.007c.244.027.5.056.742.08a.1.1,0,0,1,.088.1.074.074,0,0,1-.064.08c-1.9.4-3.782.939-5.7,1.506l-.807.239c-2,.591-4.136,1.257-6.244,2.116a55.875,55.875,0,0,0-11.576,6.519A79.611,79.611,0,0,0,20.712,43.523,101.8,101.8,0,0,0,13.9,54.453,114.14,114.14,0,0,0,8.48,66.014a111.552,111.552,0,0,0-4.336,13.03c-.276,1.042-.548,2.133-.809,3.244-.016.07-.045.163-.078.271-.113.372-.284.933-.144,1.187a1.674,1.674,0,0,0,.773.487c.107.045.208.088.284.128l.964.5c1.876.967,5,2.558,5.325,2.717l.49.241a89.359,89.359,0,0,0,12.414,5.131,54.336,54.336,0,0,0,6.494,1.643,42.86,42.86,0,0,0,6.673.715l.071-.77a72.469,72.469,0,0,1,2.08-12.662.168.168,0,0,1,.163-.135.214.214,0,0,1,.207.186,56.484,56.484,0,0,1,.431,7.349c0,2.368-.1,4.737-.218,7.366-.273,6-.614,12.087-.943,17.978v.005c-.148,2.649-.3,5.388-.446,8.083-.164,3.043-.365,6.136-.559,9.127v0c-.083,1.275-.168,2.593-.251,3.9-.071,1.127-.13,2.281-.188,3.4v0c-.165,3.209-.336,6.526-.8,9.724a1.507,1.507,0,0,1-.694,1.029A2.236,2.236,0,0,1,34.171,150.261Zm129.541-3.478a1.3,1.3,0,0,1-.536-.123l-.133-.062a2.436,2.436,0,0,1-1.545-1.491,8.09,8.09,0,0,1-.233-1.1c-.029-.177-.059-.359-.094-.533-.2-1.026-.4-2.057-.579-3.065-.363-2.044-.722-4.113-1.067-6.151l-.324-1.921c-1.07-6.361-2.16-13.142-2.705-19.974-.247-3.1-.513-6.218-.742-8.9l-.191-2.225c-.038-.443-.078-.9-.116-1.334V99.9c-.209-2.366-.424-4.813-.459-7.215l-.957.34-4.671,1.652c-.289.1-.594.229-.916.364a7.466,7.466,0,0,1-2.653.75,2.555,2.555,0,0,1-.31-.018,2.36,2.36,0,0,1-1.434-.616c.446,6.3,1.048,12.409,1.788,18.166.784,6.1,1.574,11.47,2.413,16.424.374,2.21.877,5.128,1.439,8.092.252,1.327.518,2.684.791,4.033.042.209.088.421.132.627.1.454.2.924.27,1.389a2.341,2.341,0,0,1-.524,1.886,1.324,1.324,0,0,1-1.068.6,1.06,1.06,0,0,1-.571-.165,3.5,3.5,0,0,1-.893-.734,2.583,2.583,0,0,1-.49-1.029c-.141-.549-.246-1.122-.347-1.677v-.006c-.044-.242-.09-.492-.137-.736-.287-1.46-.571-2.954-.844-4.443-.586-3.2-1.111-6.341-1.558-9.327-.809-5.395-1.492-10.958-2.029-16.535-.523-5.427-.924-11.018-1.19-16.618-.248-5.2-.344-10.579-.295-16.431.026-3.053.129-5.81.314-8.426.165-2.33.483-4.664.79-6.922l0-.021c.066-.485.134-.987.2-1.481a.084.084,0,0,1,.084-.076.074.074,0,0,1,.075.076c.073,1.3.165,2.63.254,3.912v0c.126,1.813.256,3.688.335,5.536s.132,3.716.183,5.529v0c.032,1.15.066,2.339.106,3.511.138,4.043.331,8.041.572,11.885a2.067,2.067,0,0,1,1.512-.69,1.839,1.839,0,0,1,.3.024,12.626,12.626,0,0,0,1.94-.647c.363-.143.706-.278,1.04-.389l3.535-1.181c1.76-.588,3.655-1.218,5.582-1.836a141.552,141.552,0,0,1-3.785-17.086l-.435-2.6c-.413-2.452-.869-5.076-1.413-7.654-.592-2.811-1.226-5.275-1.936-7.533a49.345,49.345,0,0,0-3.068-7.526,48.523,48.523,0,0,0-4.28-6.909,60.958,60.958,0,0,0-5.262-6.129c-1.693-1.744-3.558-3.51-5.87-5.557-2.005-1.776-4.127-3.479-6.179-5.126-1.469-1.179-2.987-2.4-4.453-3.635a2.035,2.035,0,0,1,.012.65,22.312,22.312,0,0,1-.939,4.013,24.223,24.223,0,0,1-1.635,3.785,25.8,25.8,0,0,1-2.24,3.47,26.2,26.2,0,0,1-11.751,8.675,28.682,28.682,0,0,1-5.076,1.374,30.617,30.617,0,0,1-5.263.453,32.108,32.108,0,0,1-5.385-.459,32.725,32.725,0,0,1-5.269-1.36A35.689,35.689,0,0,1,76.4,34.9a36.685,36.685,0,0,1-6.27-4.936,34.156,34.156,0,0,1-5-6.185,29.978,29.978,0,0,1-3.3-7.173.133.133,0,0,1,.016-.122.153.153,0,0,1,.124-.057.161.161,0,0,1,.132.065l.449.614.066.09a.224.224,0,0,1,.152-.239A27.069,27.069,0,0,0,72.605,10.8a21.108,21.108,0,0,0,3.369-4.561,18.149,18.149,0,0,0,1.135-2.471l.079-.22c.043-.121.086-.246.124-.356A7.124,7.124,0,0,1,78.666.548,1.69,1.69,0,0,1,79.934,0a2.157,2.157,0,0,1,1.7.874,1.664,1.664,0,0,1,.231,1.538,27.053,27.053,0,0,1-2.858,6.039A21.216,21.216,0,0,1,77,11.092a19.283,19.283,0,0,1-2.453,2.3,20.446,20.446,0,0,1-4.968,2.919,14.972,14.972,0,0,1-5.582,1.118c-.386,0-.778-.016-1.163-.049a.256.256,0,0,1-.088-.023l.373.506c1.208,1.635,2.819,3.774,4.57,5.824a49.766,49.766,0,0,0,5.166,5.281,36.732,36.732,0,0,0,4.726,3.49,34.771,34.771,0,0,0,5.214,2.661,31.767,31.767,0,0,0,5.564,1.7,28.8,28.8,0,0,0,5.776.6,26.831,26.831,0,0,0,6.6-.819,23.784,23.784,0,0,0,5.646-2.244,24.429,24.429,0,0,0,4.926-3.589,22.87,22.87,0,0,0,3.837-4.7,20.4,20.4,0,0,0,2.377-5.572,1.549,1.549,0,0,1-.638.134,1.79,1.79,0,0,1-.379-.042c-1.62-.352-3.221-2.047-4.285-3.291a15.567,15.567,0,0,1-2.67-4.38,14.151,14.151,0,0,1-1.028-4.861,10.626,10.626,0,0,1,.221-2.489,8.161,8.161,0,0,1,.86-2.3.336.336,0,0,1,.3-.187.426.426,0,0,1,.406.377l.062.539a21.8,21.8,0,0,0,1.971,7.748,15.864,15.864,0,0,0,2.27,3.378,13.255,13.255,0,0,0,1.577,1.5c.22.175.462.333.7.485a6.017,6.017,0,0,1,1.021.776l.091.1,0-.017a1.756,1.756,0,0,1,.549-1.141,1.492,1.492,0,0,1,.99-.366h.065a5.665,5.665,0,0,1,1.86.489l.03.014a71.718,71.718,0,0,1,13.753,8.883A58.009,58.009,0,0,1,146.689,38.03a52.385,52.385,0,0,1,7.227,15.061,135.789,135.789,0,0,1,3.227,15.162l.01.057.2,1.14.588,3.364c.406,2.309.892,4.991,1.528,7.609a46.815,46.815,0,0,0,2.368,7.343,2.2,2.2,0,0,1,.074,1.751,2.061,2.061,0,0,1-1.23,1.092c-1.387.522-2.909,1.078-4.792,1.752.567,2.433.979,4.957,1.378,7.4v.008c.153.937.311,1.906.475,2.849.7,4.056,1.512,8.166,2.293,12.14v.007c.606,3.084,1.233,6.274,1.807,9.418.338,1.852.665,3.737.982,5.56.312,1.8.635,3.663.969,5.493.2,1.087.41,2.217.6,3.215l.017.091c.123.658.251,1.339.375,2.008.117.63.228,1.271.335,1.89.052.3.112.645.171.981l.029.159.023.116a3.1,3.1,0,0,1,.057,1.415,3.029,3.029,0,0,1-.881,1.265l0,0-.124.127A.92.92,0,0,1,163.712,146.783Z" transform="translate(4.013 -1.057)"/>
  </g>
  <g id="HEAD" transform="translate(78.592 38.043)">
    <path id="_Skin-2" data-name="âœ‹ Skin" d="M41.047,0l1.821,2.171q-1.512,1.068-2.855,2.147v0A24.82,24.82,0,0,1,53.713,0C63.269,0,82.68,8.229,87.068,14.165c2.178,2.946,6.224,11.989,8.323,21.82,1.687,7.9,4.2,30.217,1.687,38.6C93.867,85.321,83.3,95.24,72.414,95.24s-27.8-7.882-39.834-25.157c-.55-.79-6.869-1.705-11.377-4.67l1.184,13.072.9,7.6-.2.541q-4.843,13.13-7.675,13.7-2.89.582-11.772-9.5l-.757-3.184Q0,75.465,0,74.569v-.109c.028-1.374.5-9.154.51-11.248V31.835Q10.064,0,18.743,0Z" transform="translate(-8.577 12.541)" fill="#d08b5b"/>
    <path id="_Ink-2" data-name="ðŸ– Ink" d="M15.931,117.648a2.13,2.13,0,0,1-1.364-.5,1.951,1.951,0,0,1-.7-1.315,2.742,2.742,0,0,1-.83-1.053,4.912,4.912,0,0,1-.386-1.372c-.092-.637-.159-1.28-.224-1.9-.079-.76-.161-1.547-.29-2.32l-.089.084-.046.04-.015.1a2.092,2.092,0,0,1-1.03,1.468,4.581,4.581,0,0,1-.859,3.359A2.238,2.238,0,0,1,8.383,115a2.317,2.317,0,0,1-.406-.035H7.926a.715.715,0,0,1-.093-.006,2.741,2.741,0,0,1-1.127-.408,2.6,2.6,0,0,1-.789-.787,2.534,2.534,0,0,1-.3-2.1,3.666,3.666,0,0,1-.712-1.39,3.47,3.47,0,0,1-.052-1.548,2.267,2.267,0,0,1-.748-.827,3.136,3.136,0,0,1-.331-1.086A6.058,6.058,0,0,1,4.02,104.4a4.144,4.144,0,0,1-1.2-4.745A4.986,4.986,0,0,1,1.75,97a5.307,5.307,0,0,1,.5-2.809A2.847,2.847,0,0,1,1.225,92a2.918,2.918,0,0,1,1.018-2.257,7.461,7.461,0,0,1-.758-2.28,3.465,3.465,0,0,1,.323-2.189,2.918,2.918,0,0,1-.729-2.139,2.657,2.657,0,0,1,.567-1.454,3.966,3.966,0,0,1,1.2-.994l.065-.356A.777.777,0,0,0,3.57,80.1,3.484,3.484,0,0,1,4.2,79.62a.812.812,0,0,0,.6-.281,4.224,4.224,0,0,1,1.327-.2.788.788,0,0,0,.595-.253.884.884,0,0,0,.217-.553.8.8,0,0,0-.7-.876.833.833,0,0,0-.6-.253h-.18a3.117,3.117,0,0,0-1.235.2,1.386,1.386,0,0,0-.592.473,1.178,1.178,0,0,1-.547.855,1.335,1.335,0,0,1-.76.238,1.283,1.283,0,0,1-.654-.177,1.091,1.091,0,0,1-.533-.682,2.419,2.419,0,0,1-.018-.873A5.824,5.824,0,0,0,.9,75.272a5.762,5.762,0,0,1-.216-2.058,3.213,3.213,0,0,1,.618-1.57A3.7,3.7,0,0,1,.7,69.9a3.6,3.6,0,0,1,.322-1.819,3.873,3.873,0,0,1-.99-2.176,4.23,4.23,0,0,1,.389-2.36c0-.016.009-.032.013-.046s.011-.04.017-.06a3.608,3.608,0,0,1,.315-.685,3.494,3.494,0,0,1,.015-3.519,3.281,3.281,0,0,1-.755-2.042,3.5,3.5,0,0,1,.617-2.108c0-.076.011-.154.018-.229l.007-.075a3.78,3.78,0,0,1-.236-1.6,3.943,3.943,0,0,1,.437-1.55,6.237,6.237,0,0,1-.4-1.332,7.8,7.8,0,0,1,.228-3.6c.052-.178.111-.362.181-.564.01-.734.037-1.532.083-2.441a9.77,9.77,0,0,1-.19-2.142V41.1c0-.088,0-.18,0-.274-.013-1.119-.03-2.65.644-3.558a3.063,3.063,0,0,1,.506-3.241,3.452,3.452,0,0,1-.469-1.539A3.084,3.084,0,0,1,1.8,30.866a3.413,3.413,0,0,1,.3-.475,5.533,5.533,0,0,1,.667-2.907,4.819,4.819,0,0,1,1.417-1.591c-.011-.144-.016-.268-.014-.38a4.75,4.75,0,0,1,.342-1.645,2.679,2.679,0,0,1-.328-2.137,3.443,3.443,0,0,1,1.691-2.063A17.241,17.241,0,0,1,6.256,17.2a2.428,2.428,0,0,1-.206-.874,2.639,2.639,0,0,1,.111-.9A2.467,2.467,0,0,1,7.271,14,2.872,2.872,0,0,1,7.9,11.516a2.442,2.442,0,0,1,.835-.589A3.056,3.056,0,0,1,9.36,8.4a2.848,2.848,0,0,1,.9-.7,2.932,2.932,0,0,1,1.09-.3,3.255,3.255,0,0,1,3.132-2.6c.058,0,.116,0,.173.005a2.462,2.462,0,0,1,.49-.926,2.321,2.321,0,0,1,.883-.643,2.354,2.354,0,0,1,.554-.155,8.9,8.9,0,0,1,2.242-1.6A12.909,12.909,0,0,1,21.339.5,9.356,9.356,0,0,1,23.78.155a6.469,6.469,0,0,1,2.235.373l.1.039L26.23.551C26.7.5,27.2.465,27.71.452A6.643,6.643,0,0,1,30.124,0a6.485,6.485,0,0,1,3.4.957c.12-.005.241-.008.361-.008A9.529,9.529,0,0,1,38.7,2.313a10.605,10.605,0,0,1,2.022,1.546,10.149,10.149,0,0,1,1.583,1.981l.039.042c.026.028.052.057.075.084l.386.45A12.273,12.273,0,0,1,43.862,7.81a4.663,4.663,0,0,0-2.039.489,4.342,4.342,0,0,0-1.57,1.389.7.7,0,0,0-.078.748.956.956,0,0,0,.83.479.843.843,0,0,0,.682-.343l.022-.03A2.562,2.562,0,0,1,43.9,9.5a.794.794,0,0,0,.578-.243c.051.186.1.381.146.594A29.407,29.407,0,0,1,55.343,7.942c1.041,0,2.115.047,3.192.14A5.606,5.606,0,0,0,58.02,9.16a.743.743,0,0,0,.056.594.886.886,0,0,0,.533.446.843.843,0,0,0,.223.031.878.878,0,0,0,.8-.581l.015-.04A3.022,3.022,0,0,1,60.525,8.3a46.808,46.808,0,0,1,6.609,1.407,72.317,72.317,0,0,1,7.688,2.706,1.973,1.973,0,0,0-1.052.924.8.8,0,0,0,0,.813.951.951,0,0,0,.789.459.736.736,0,0,0,.647-.385l.019-.033a.784.784,0,0,1,.133-.188l.012-.011.074-.034.138-.04.053-.013a.672.672,0,0,1,.133-.014l.057,0c.147-.008.3-.008.442-.009h.05a.766.766,0,0,0,.744-.492c1.244.563,2.479,1.159,3.673,1.774l.286.149a28.692,28.692,0,0,1,5.269,3.453,18.838,18.838,0,0,1,2.224,2.209A15.539,15.539,0,0,1,90.3,23.58a1.3,1.3,0,0,1,.144.788c.424.509.848,1.052,1.263,1.615a30.228,30.228,0,0,1,3,5.491,59.192,59.192,0,0,1,3.786,11.812c.947,4.261,1.693,8.593,2.237,11.891.423,2.572.727,4.687.955,6.656.28,2.419.445,4.612.5,6.7a45.552,45.552,0,0,1-1.143,11.852,35.991,35.991,0,0,1-1.84,5.634,32.086,32.086,0,0,1-6.187,9.509,29.958,29.958,0,0,1-4.032,3.587,26.857,26.857,0,0,1-4.62,2.748,24.3,24.3,0,0,1-5.124,1.721,26.3,26.3,0,0,1-5.489.585,24.343,24.343,0,0,1-8.025-1.334A22.323,22.323,0,0,1,58.6,98.78a1.907,1.907,0,0,1-.642-1.4,2.51,2.51,0,0,1,.148-.953,2.192,2.192,0,0,1,.495-.8,2.088,2.088,0,0,1,1.5-.629,2.562,2.562,0,0,1,1.641.629,17.353,17.353,0,0,0,5.742,3.2,20.387,20.387,0,0,0,6.494,1.033,22.232,22.232,0,0,0,7.466-1.295,20.936,20.936,0,0,0,4.245-2.106,24.263,24.263,0,0,0,3.71-2.954,28.051,28.051,0,0,0,3.126-3.6,30.356,30.356,0,0,0,4.611-9.3,37.05,37.05,0,0,0,1.189-5.524,47.609,47.609,0,0,0,.428-5.66c.033-1.789-.023-3.7-.165-5.673-.288-4.037-.868-7.966-1.541-12.315l-.382-2.462C96.2,46,95.783,43.5,95.245,41.012l-.134-.615c-.425-1.94-.788-3.418-1.177-4.791a39.6,39.6,0,0,0-1.6-4.648c-.67-1.588-1.489-3.139-2.275-4.578-.164-.3-.327-.6-.487-.879a1.144,1.144,0,0,1-.379.064,1.22,1.22,0,0,1-.368-.058,30.738,30.738,0,0,0-7.081-1.361c-.664-.045-1.347-.067-2.03-.067-.416,0-.842.008-1.265.025-.361-.021-.723-.032-1.076-.032a14.743,14.743,0,0,0-4.527.666c-.179-.154-.366-.309-.53-.446a1.251,1.251,0,0,1-.144-.018,1.391,1.391,0,0,1-.972-.827c-.011-.024-.021-.047-.028-.065-.218-.168-.452-.342-.693-.519a.841.841,0,0,1-.211.027.919.919,0,0,1-.63-.266,1.277,1.277,0,0,1-.36-.607c-.092-.062-.186-.124-.277-.183l-.106-.069a1.882,1.882,0,0,1-.3.052c-.065,0-.13.007-.193.007a2.082,2.082,0,0,1-1-.241,2.2,2.2,0,0,1-.97-1.126c-.057,0-.115.005-.172.005a3.469,3.469,0,0,1-1.892-.61,6.275,6.275,0,0,1-1.3-1.273,43.669,43.669,0,0,0-7.433-2.542,44.278,44.278,0,0,0-7.754-1.181c-.515.1-1.028.218-1.526.354-.125.034-.306.1-.483.173a14.555,14.555,0,0,1,1.743-.109A12.55,12.55,0,0,1,49.4,15.4a17.043,17.043,0,0,1,7.633,3.344,46.956,46.956,0,0,1,6.233,5.737.964.964,0,0,1,.191-.019,1.177,1.177,0,0,1,1.051.737.92.92,0,0,1-.262,1.047L57.735,32.3a.884.884,0,0,1-.192.757,1.167,1.167,0,0,1-.888.449.91.91,0,0,1-.212-.025c-1.045-.252-2.163-.514-3.416-.8a3.69,3.69,0,0,1-1.6.365,3.536,3.536,0,0,1-2.16-.723c-.03-.024-.083-.056-.14-.091h0l-.113-.071a2.472,2.472,0,0,1-.226.159l-.006,0-.022.015a1.758,1.758,0,0,1-.977.284,2.05,2.05,0,0,1-.321-.026,2.641,2.641,0,0,1-1.236-.6,3.353,3.353,0,0,1-.324-.351c-.24-.281-.539-.631-.733-.668l-.015,0a.027.027,0,0,1,.023.021c.022.11-.482.58-.645.7a1.907,1.907,0,0,1-1.133.391,1.833,1.833,0,0,1-.2-.011,2.184,2.184,0,0,1-1.179-.569,4.2,4.2,0,0,1-.848-1.043l-.032-.056-.013-.035-.011.037c0,.007,0,.014-.007.022a1.427,1.427,0,0,1-.4.486,1.619,1.619,0,0,1-1.083.427,1.663,1.663,0,0,1-.286-.025,1.951,1.951,0,0,1-1.083-.651l-.045-.05c-.084-.094-.653-.862-.564-1.044l.01-.016-.028-.006a1.1,1.1,0,0,1-.263.033.9.9,0,0,1-.584-.211A32.243,32.243,0,0,1,33.3,28.42c-.094.264-.179.51-.259.75a10.469,10.469,0,0,1,1.112.837c.21.173.408.336.6.48l.013.01c.917.678,1.956,1.446,2.97,2.2l3.934,2.91.45-.121a1.078,1.078,0,0,1,.28-.038,1.1,1.1,0,0,1,1,.732l.017.044a3.846,3.846,0,0,0,.3.631l.091,0a2.063,2.063,0,0,1,2,1.436l.133,0a5.569,5.569,0,0,1,.606.033,1.2,1.2,0,0,1,.847.448,1.061,1.061,0,0,1,.178.841l-.009.048-.017.078a1.2,1.2,0,0,1,.751.992,1.871,1.871,0,0,1,.248.531,4.83,4.83,0,0,1-.392,2.688c-.064.19-.125.369-.178.541l-.023.076c-.2.681-.412,1.344-.589,1.9l-.5,1.572a48.022,48.022,0,0,0-1.743,6.718,17.112,17.112,0,0,0,.132,6.877.823.823,0,0,1-.131.72.859.859,0,0,1-.676.317.889.889,0,0,1-.732-.386,60.6,60.6,0,0,0-4.19-5.244l-.072-.011a2.765,2.765,0,0,1-1.824-1.549l-.088-.14a1.89,1.89,0,0,1-.534.078,1.787,1.787,0,0,1-.338-.032,2.146,2.146,0,0,1-1.1-.627,2.47,2.47,0,0,1-.311-.469,1.681,1.681,0,0,0-.471-.616.759.759,0,0,0-.367-.074,3.854,3.854,0,0,0-.532.053h-.006a3.807,3.807,0,0,1-.514.052,1.018,1.018,0,0,1-.149-.01,3.571,3.571,0,0,1-1.029-.335,5.731,5.731,0,0,0-1.1,2.839,2.353,2.353,0,0,1-.327,1.012c.11,0,.219-.006.322-.006a8.506,8.506,0,0,1,1.559.143,6.466,6.466,0,0,1,4.881,3.976.086.086,0,0,1-.006.083.08.08,0,0,1-.066.037.075.075,0,0,1-.064-.039,3.9,3.9,0,0,0-1.763-1.468,5.716,5.716,0,0,0-2.284-.437,7.786,7.786,0,0,0-2.5.421,5.637,5.637,0,0,0-2.728,2.006,7.011,7.011,0,0,0-.835,1.479,8.744,8.744,0,0,0-.505,1.676,9.161,9.161,0,0,0-.169,1.938,10.191,10.191,0,0,0,.224,1.94A11.034,11.034,0,0,0,28.3,72.556a5.149,5.149,0,0,0,2.686,2.3,3.092,3.092,0,0,0,.952.139,8.192,8.192,0,0,0,1.1-.1h0a8.247,8.247,0,0,1,1.113-.1,3.265,3.265,0,0,1,.914.121,1.662,1.662,0,0,1,1.036.827,2.028,2.028,0,0,1,.18,1.322,2.825,2.825,0,0,1-.371.968c.12.238.24.483.356.719l0,.006A25.4,25.4,0,0,0,37.5,81.055,23.142,23.142,0,0,0,40.77,85c1.513,1.529,2.715,2.674,3.9,3.711a23.208,23.208,0,0,0,2.419,1.778c.57.382,1.159.776,1.717,1.2a2.9,2.9,0,0,1,1.011,1.3,2.225,2.225,0,0,1-.056,1.627,2.4,2.4,0,0,1-.847,1.032,2.27,2.27,0,0,1-1.287.443,1.613,1.613,0,0,1-.62-.12,14.236,14.236,0,0,1-2.861-1.628,28.447,28.447,0,0,1-2.553-2.1,19.14,19.14,0,0,1-2.084-2.225,18.6,18.6,0,0,1-1.7-2.53,29.578,29.578,0,0,1-2.191-5.38l-.072-.227a25.172,25.172,0,0,1-.744-2.824,5.85,5.85,0,0,1-2.738.606A7.807,7.807,0,0,1,31,79.588a8.078,8.078,0,0,1-2.722-.893A8.834,8.834,0,0,1,26,76.94a12.136,12.136,0,0,1-1.633-2.222c.033.385.056.755.078,1.113l0,.026q.008.138.017.271a5.041,5.041,0,0,1,1.152,4.544,3.322,3.322,0,0,1,.875,1.7,3.407,3.407,0,0,1-.176,1.895,2.888,2.888,0,0,1,.808,1.855,5.878,5.878,0,0,1-.274,2.19,3.818,3.818,0,0,1,.692,1.12,4.188,4.188,0,0,1,.291,1.276,4.274,4.274,0,0,1-.609,2.525l-.028.108a4.149,4.149,0,0,1,.492,1.251,4.327,4.327,0,0,1,.077,1.32,4.432,4.432,0,0,1-.32,1.286,4.365,4.365,0,0,1-.7,1.147,4.179,4.179,0,0,1,.445,1.477A2.963,2.963,0,0,1,27,101.262a2.237,2.237,0,0,1-.58.811,2.652,2.652,0,0,1-1,.541,2.163,2.163,0,0,1-.625.093,2.189,2.189,0,0,1-1.348-.473,21.634,21.634,0,0,1,.452,3.646,12.652,12.652,0,0,1-.4,3.655,2.244,2.244,0,0,1-.819,1.2,2.283,2.283,0,0,1-1.367.472,2.081,2.081,0,0,1-1.075-.285,2.434,2.434,0,0,1-.767-.744,14.849,14.849,0,0,1-.285,3.682,1.837,1.837,0,0,1-.574.967,2.336,2.336,0,0,1-1.007.542.983.983,0,0,1,.116,1.182,2.186,2.186,0,0,1-.8.839A1.96,1.96,0,0,1,15.931,117.648Zm-.81-12.878a.872.872,0,0,0-.818.624.858.858,0,0,0,.589,1.04,5.519,5.519,0,0,0,1.681.213.857.857,0,0,0,.843-.845.856.856,0,0,0-.843-.845,3.814,3.814,0,0,1-1.233-.153A.735.735,0,0,0,15.121,104.77Zm-3.648-8.945h0a2.309,2.309,0,0,0-1.689.613.828.828,0,0,0-.244.609.8.8,0,0,0,.244.586.889.889,0,0,0,.6.241.848.848,0,0,0,.556-.208l.066-.059.019-.018.01-.006c.024-.016.049-.031.074-.045l-.055.036c-.007.005-.011.008-.01.009h0a.484.484,0,0,0,.065-.028h0l.052-.024.017-.007h.005l.044,0c.077,0,.158,0,.223,0h.02a.876.876,0,0,0,.618-.275.777.777,0,0,0,.226-.57.912.912,0,0,0-.252-.594.815.815,0,0,0-.59-.251Zm9.859-6.574H21.31a.776.776,0,0,0-.611.265.891.891,0,0,0-.2.582.8.8,0,0,0,.814.844h.18a4.269,4.269,0,0,0,2.25-.48.808.808,0,0,0,.357-.429.84.84,0,0,0,.008-.5.971.971,0,0,0-.29-.463.75.75,0,0,0-.5-.2.8.8,0,0,0-.4.11L22.888,89a2.3,2.3,0,0,1-1.239.251h-.316Zm-7.309-5.113a.853.853,0,0,0-.532.2,2.435,2.435,0,0,0-.671.412.707.707,0,0,0-.229.809.952.952,0,0,0,.864.6.845.845,0,0,0,.558-.218.639.639,0,0,1,.157-.1l.045-.019h.9a.791.791,0,0,0,.24-.042c.231.032.448.074.622.109h.006l.122.024a.958.958,0,0,0,.177.017.828.828,0,0,0,.612-.267,1,1,0,0,0,.264-.583.7.7,0,0,0-.6-.8,9.264,9.264,0,0,0-1.689-.193,4.625,4.625,0,0,0-.5.026l-.12.015ZM13.918,67.63h0a3.675,3.675,0,0,0-2.141.676.857.857,0,0,0-.342.465.914.914,0,0,0,.011.527.971.971,0,0,0,.28.437.7.7,0,0,0,.459.181.753.753,0,0,0,.41-.13l.032-.021a2.807,2.807,0,0,1,.336-.2,3.247,3.247,0,0,0,.9.134,2.72,2.72,0,0,0,.943-.167l.078-.03.047.018a.893.893,0,0,0,.378.087.883.883,0,0,0,.58-.227.989.989,0,0,0,.311-.516.686.686,0,0,0-.417-.8,4.415,4.415,0,0,0-1.867-.433Zm.624-11.417h0c.159,0,.326.015.5.032.426.044.846.124,1.311.216a.958.958,0,0,0,.184.018.9.9,0,0,0,.868-.84.774.774,0,0,0-.115-.505.739.739,0,0,0-.488-.3l-.471-.093c-.186-.036-.338-.065-.48-.09a.835.835,0,0,0-.31-.088l-.056,0H15.22a6.076,6.076,0,0,0-.668-.04c-.073,0-.146,0-.216.005a1.871,1.871,0,0,0-.667.16,1.194,1.194,0,0,0-.511.408.832.832,0,0,0-.068.78.846.846,0,0,0,.825.574.942.942,0,0,0,.628-.231Zm-8.7-14.845a4.521,4.521,0,0,0-1.94.379,1.769,1.769,0,0,0-1.048,1.481.719.719,0,0,0,.166.568.8.8,0,0,0,.6.24.993.993,0,0,0,.526-.15.842.842,0,0,0,.353-.449,11.063,11.063,0,0,1,1.962-.177,10.914,10.914,0,0,1,1.194.066.953.953,0,0,0,.248-.874.7.7,0,0,0-.509-.506.732.732,0,0,0-.554-.507l-.1-.013A7.056,7.056,0,0,0,5.846,41.368Zm32.928-3.241h0a.78.78,0,0,0-.574.242,2.841,2.841,0,0,0-.466.658l-.082.163c-.015.029-.029.056-.043.08s-.047.078-.069.112l-.02.031-.02.02,0,0-.027.029a.919.919,0,0,0-.242.651.768.768,0,0,0,.242.545.923.923,0,0,0,.618.243.78.78,0,0,0,.574-.243A2.845,2.845,0,0,0,39.13,40l.082-.163c.015-.029.029-.055.043-.08s.043-.072.065-.106l0,0,.021-.034.034-.034.016-.017a.919.919,0,0,0,.242-.651.768.768,0,0,0-.242-.545.925.925,0,0,0-.619-.242Zm-18.188-.481c.023.013.045.027.067.041l.012.008.049.044a.9.9,0,0,0,.617.242.769.769,0,0,0,.567-.235.911.911,0,0,0,.564-.737.853.853,0,0,0-.362-.842,3.188,3.188,0,0,0-1.835-.632,2.705,2.705,0,0,0-1.859.764.737.737,0,0,0-.209.839.942.942,0,0,0,.84.59.811.811,0,0,0,.534-.208L19.6,37.5c.031-.029.061-.053.087-.073a.809.809,0,0,0,.531.2h.162l.081,0,.043,0h.006l.038.016.032.015h0a.471.471,0,0,0,.064.027s-.018-.016-.059-.042Zm12.953-5.922a.908.908,0,0,0-.249.037,2.926,2.926,0,0,0-1.864,2.417.865.865,0,0,0,.589,1.04.786.786,0,0,0,.208.027.84.84,0,0,0,.829-.618,3.472,3.472,0,0,1,.262-.832l.073-.142c.035-.065.046-.076.161-.176a.791.791,0,0,1,.168-.079l.021-.007a.8.8,0,0,0,.585-.916.94.94,0,0,0-.248-.522A.731.731,0,0,0,33.539,31.724ZM14.681,24.693h0a2.575,2.575,0,0,0-.992.174,1.58,1.58,0,0,0-.757.647.754.754,0,0,0-.033.787.942.942,0,0,0,.8.465.781.781,0,0,0,.662-.365h.031l.019,0,.26-.021h.019a4.032,4.032,0,0,1,.93.13.935.935,0,0,0,.215.026.778.778,0,0,0,.574-.247.962.962,0,0,0,.256-.552.816.816,0,0,0-.107-.525.765.765,0,0,0-.489-.332l-.163-.037a5.742,5.742,0,0,0-1.225-.152Zm37.2-7.755h0a.788.788,0,0,0-.562.249,8.157,8.157,0,0,0-1.589,2,.93.93,0,0,0-.079.641.815.815,0,0,0,.382.516.835.835,0,0,0,.423.11.8.8,0,0,0,.731-.414A6.337,6.337,0,0,1,52.5,18.393l.011-.011a.771.771,0,0,0,.186-.87.919.919,0,0,0-.816-.574Zm-9.066-.578a3.681,3.681,0,0,0-1.549,2.052.749.749,0,0,0,.058.6.884.884,0,0,0,.531.443.841.841,0,0,0,.223.031.875.875,0,0,0,.8-.581l.015-.04a2.607,2.607,0,0,1,.365-.706,1.346,1.346,0,0,1,.5-.408.882.882,0,0,0,.614-.888,1.368,1.368,0,0,1-.448.077A1.421,1.421,0,0,1,42.811,16.36ZM18.6,13.729c.041.009.081.02.12.033l.048.017h0a.421.421,0,0,0,.077.06l.046.033.006,0a.818.818,0,0,0,.562.233.942.942,0,0,0,.84-.59.737.737,0,0,0-.209-.839,2.306,2.306,0,0,0-1.594-.635,2.667,2.667,0,0,0-1.128.259.709.709,0,0,0-.368.446.912.912,0,0,0,.066.711.792.792,0,0,0,.71.4,1.061,1.061,0,0,0,.432-.1c-.014.007-.02.011-.02.012h0a1.116,1.116,0,0,0,.121-.034h0l.075-.023a.151.151,0,0,0,.034,0h.164l.055,0H18.6ZM36.692,68.9a.9.9,0,0,1-.666-.314L36,68.556a9.52,9.52,0,0,0-2.614-2.123,8.654,8.654,0,0,0-3.205-1.019,1.075,1.075,0,0,1-.775-.445,1.263,1.263,0,0,1-.229-.8,1,1,0,0,1,.236-.614.821.821,0,0,1,.633-.266,1.209,1.209,0,0,1,.135.008,11.7,11.7,0,0,1,4.012,1.185,10.876,10.876,0,0,1,3.3,2.576,1.044,1.044,0,0,1,.171,1.156,1.245,1.245,0,0,1-.4.488A.977.977,0,0,1,36.692,68.9Z" transform="translate(-10.33 4.861)"/>
  </g>
  <g id="FACE" transform="translate(112.183 77.354)">
    <path id="_Ink-3" data-name="ðŸ– Ink" d="M23.523,37.239a5.539,5.539,0,0,1-2.3-.525A5.758,5.758,0,0,1,19.31,35.3a4.459,4.459,0,0,1-.876-1.488,3.788,3.788,0,0,1-.173-1.748.6.6,0,0,1,.646-.534.954.954,0,0,1,.748.351l.128.174a7.278,7.278,0,0,0,1.4,1.5,2.971,2.971,0,0,0,1.852.693A2.705,2.705,0,0,0,25.25,33.1a3.254,3.254,0,0,0,.492-1.188,4.013,4.013,0,0,1,.356-.987,1.716,1.716,0,0,1,1.528-.842,1.666,1.666,0,0,1,1.691,1.263,3.5,3.5,0,0,1-.066,1.754,4.725,4.725,0,0,1-.835,1.583,6.791,6.791,0,0,1-4.774,2.552Zm1.524-11.323A13.948,13.948,0,0,1,20.025,24.8a1.323,1.323,0,0,1-.679-.621,1.239,1.239,0,0,1-.094-.795,1.293,1.293,0,0,1,.4-.695,1.149,1.149,0,0,1,.78-.3,1.467,1.467,0,0,1,.461.078l.255.106h0a11.928,11.928,0,0,0,4.162,1.143,3.052,3.052,0,0,0,1.279-.249,2.2,2.2,0,0,0,.969-.873,2.236,2.236,0,0,0-.038-1.861,4.3,4.3,0,0,0-1.7-1.7,10.029,10.029,0,0,0-2.209-.985.536.536,0,0,1-.314-.6.707.707,0,0,1,.766-.541l.182,0a5.975,5.975,0,0,1,4.034,1.407,4.964,4.964,0,0,1,1.13,1.443,4.634,4.634,0,0,1,.5,1.654,4.1,4.1,0,0,1-.145,1.614,3.693,3.693,0,0,1-.8,1.419,5,5,0,0,1-3.914,1.471h0Zm-23.4-9.2a.521.521,0,0,1-.464-.339.356.356,0,0,1,.121-.413,17.8,17.8,0,0,1,2.954-1.948,20.336,20.336,0,0,1,3.3-1.4,2.123,2.123,0,0,1-.306-.861,1.8,1.8,0,0,1,.1-.89c.037-.122.082-.239.122-.338l.094-.229a1.656,1.656,0,0,1,.06-.319l0-.032,0,0a1.8,1.8,0,0,1,.431-.724A1.618,1.618,0,0,1,8.791,8.8a1.586,1.586,0,0,1,.421-.057,1.644,1.644,0,0,1,.647.134,1.925,1.925,0,0,1,.97.508,2.192,2.192,0,0,1,.583.929c.017.06.036.12.057.178l.033.088-.087-.223a1.423,1.423,0,0,0,.15.368,1.8,1.8,0,0,1,.134.3,2.407,2.407,0,0,1,.072.876c.269,0,.49.012.7.03l.224.02c1.24.115,2.625.329,3.367,1.412a1.026,1.026,0,0,1,.169.551,1.4,1.4,0,0,1-.116.593,1.077,1.077,0,0,1-.792.675,2.77,2.77,0,0,1-.418.031,5.584,5.584,0,0,1-1.621-.321,7.478,7.478,0,0,0-1.328-.313,10.3,10.3,0,0,0-1.135-.061,12.436,12.436,0,0,0-2.232.209,29.218,29.218,0,0,0-3.91,1.1c-.857.284-1.743.578-2.635.81l-.3.076v0A.378.378,0,0,1,1.647,16.717Zm35.14-1.776a.857.857,0,0,1-.807-.512l-.02-.045c-.266-.619-1-.933-2.168-.933a9.09,9.09,0,0,0-1.051.068,12.508,12.508,0,0,0-1.965.429c-.235.068-.463.14-.675.208l-.224.073c-.1.032-.489.242-.48.3,0,.009.013.013.035.013a.488.488,0,0,0,.091-.012l.02,0a.112.112,0,0,1,.1.087.082.082,0,0,1-.048.1.582.582,0,0,1-.252.059.649.649,0,0,1-.466-.214.754.754,0,0,1-.206-.56c.047-.759,1.112-1.215,1.817-1.517.094-.04.183-.078.261-.114l.039-.018c.26-.12.525-.232.789-.332a3.835,3.835,0,0,1-.386-.754,3.312,3.312,0,0,1-.2-.78.763.763,0,0,1,0-.4L31,10.04a1.243,1.243,0,0,1-.026-.272l0-.036h0a1.3,1.3,0,0,1,.35-.853,1.119,1.119,0,0,1,.8-.34,1.452,1.452,0,0,1,.861.308l.067.052A2.791,2.791,0,0,1,34.181,10a2.72,2.72,0,0,1,.453,1.385,4.082,4.082,0,0,1,3.147,1.3,1.225,1.225,0,0,1,.314,1.188L38,14.118A1.363,1.363,0,0,1,36.787,14.941Zm-36.2-6.3a.527.527,0,0,1-.476-.36A2.553,2.553,0,0,1,.162,6.656a7.129,7.129,0,0,1,.711-1.51A8,8,0,0,1,3.488,2.584a14.079,14.079,0,0,1,3.637-1.5L7.441,1c.233-.067.469-.143.7-.216A7.772,7.772,0,0,1,10.4.294,2.65,2.65,0,0,1,12.225.98a1.665,1.665,0,0,1,.509,1.044,1.724,1.724,0,0,1-.228,1.137,2.488,2.488,0,0,1-1.379,1.075,6.553,6.553,0,0,1-1.706.22c-.242.011-.493.022-.745.042A12.08,12.08,0,0,0,2.864,6.724a6.737,6.737,0,0,0-.954.88,5.789,5.789,0,0,1-1.089.966A.443.443,0,0,1,.585,8.638ZM36.66,6.4a1.945,1.945,0,0,1-1.5-.805l-.033-.043A8.87,8.87,0,0,0,33.6,3.968a8.57,8.57,0,0,0-1.878-1.149,9,9,0,0,0-2.119-.661l-.232-.04a4.58,4.58,0,0,0-.727-.077,1.61,1.61,0,0,0-.272.021,1.143,1.143,0,0,0-.436.152.164.164,0,0,1-.015.159.188.188,0,0,1-.155.089.175.175,0,0,1-.085-.022.852.852,0,0,1-.486-.632,1.171,1.171,0,0,1,.45-.951A3.311,3.311,0,0,1,29.281.149,9.725,9.725,0,0,1,31.091,0h0a8.226,8.226,0,0,1,3.963,1.057A8.976,8.976,0,0,1,38.1,3.814a1.5,1.5,0,0,1,.2,1.193,1.812,1.812,0,0,1-.819,1.162A1.616,1.616,0,0,1,36.66,6.4Z" transform="translate(11.409 12.47)"/>
  </g>
</svg>
