<svg id="peep-56" xmlns="http://www.w3.org/2000/svg" width="240" height="324" viewBox="0 0 240 324">
  <g id="BODY" transform="translate(31.056 135.053)">
    <path id="_Skin" data-name="âœ‹ Skin" d="M157.3,142.745c-.513-4.762-.828-9.557-1.01-14.343s.056-9.619.16-14.4c.212-9.728.556-19.48-.218-29.193a130.27,130.27,0,0,0-5.062-27.116A69.133,69.133,0,0,0,146.4,44.958c-2.135-3.991-5.516-6.648-9.231-9.085-3.955-2.595-7.878-5.239-11.817-7.857-3.307-2.2-9.258-4.757-11.971-7.7-2.855-3.092-3.391-10.757-5.293-14.42C106.236,2.331,100.995,0,96.959,0c-6.68,0-11.741-.341-17.233,5.84-2.74,3.084-.56,6.2-3.432,9.162-2.641,2.722-9.395,5.519-12.8,7.1-4.077,1.891-8.256,3.561-12.5,5.049-4.325,1.517-8.76,2.648-13.109,4.081-4.169,1.373-9.613,7.031-12.85,10.025C22.031,44.041,21.284,43.729,19,47.11,13.976,54.531,8.95,62.037,4.952,70.071c-1.991,4-3.92,8.212-4.642,12.657C-.461,87.469.3,92.05,1.553,96.64c1.272,4.671,5.312,9.118,6.629,13.778.607,2.147-1.475,4.49-.518,6.514a14.9,14.9,0,0,0,1.766,2.791c.528.678,2.589.528,2.856,1.358s-1.221,2.579-1.244,3.447c-.031,1.242-.081,2.484-.122,3.726l-.241,7.343L10.2,150.074a16.48,16.48,0,0,0,.25,4.609,3.342,3.342,0,0,1-.384-.418c-.346-.452-1.081-.069-.787.46a4.9,4.9,0,0,0,2.025,1.951c.963,1.42,146.827,4.593,147.545.44.4-2.33-.33-4.825-.623-7.14C157.926,147.564,157.563,145.163,157.3,142.745Z" transform="translate(4.437 -6.341)" fill="#d08b5b"/>
    <path id="_Top" data-name="ðŸ‘• Top" d="M0,0,150.654,8.24q.162,1.565.287,3.134c.774,9.713.43,19.465.218,29.193-.028,1.29-.066,2.583-.1,3.879L136.194,46.9,30.542,49.441,4.136,46.288l-1.1-1.9-.759-3.309c.326-1.358.983-2.764.607-4.1-.11-.388-.238-.774-.382-1.16l.136-2.655Z" transform="translate(9.731 67.093)" fill="#fdea6b"/>
    <path id="_Ink" data-name="ðŸ– Ink" d="M162.183,155.6a1.57,1.57,0,0,1-1.11-.432,4.294,4.294,0,0,1-1.026-2.635v0c-.02-.135-.041-.274-.064-.412-.157-.974-.308-1.942-.45-2.877-.32-2.092-.62-4.169-.892-6.176-.529-3.9-.985-7.949-1.356-12.032a13.326,13.326,0,0,0-.416-2.734,10.338,10.338,0,0,1-.273-2.934c-.064-2.511-.07-4.43-.021-6.224.01-.358.014-.728.018-1.086.008-.709.016-1.443.069-2.162-.613.084-1.237.157-1.84.228-.46.054-.937.11-1.409.171-.444.058-.9.138-1.376.222a16.947,16.947,0,0,1-2.853.338c-.177,0-.349-.006-.512-.019.177,1.89.372,2.147.578,2.418s.423.558.664,2.38c.568,4.263,1.236,8.791,2.165,14.682.354,2.244.763,4.519,1.159,6.719v.006c.391,2.171.794,4.415,1.145,6.628v0a3.4,3.4,0,0,1,.335,1.19,3.212,3.212,0,0,1-.123,1.234,1.941,1.941,0,0,1-.8,1.064,2.242,2.242,0,0,1-1.228.367,2.12,2.12,0,0,1-.491-.057,1.151,1.151,0,0,1-.084.787,1,1,0,0,1-.643.524l-.389.108a10.042,10.042,0,0,1-2.751.5h-.095c-.706-.011-1.426-.042-2.121-.071h-.02l-.808-.034c-2-.077-4.041-.082-6.012-.088h-.307l-6.109-.018h-.035l-6.076-.018-21.318-.06-.942,0L82.6,155.027l-1.993-.006c-6.523-.019-13.268-.038-19.915-.073-3.774-.019-7.467-.042-11.165-.114-2.572-.049-5.088-.116-7.58-.4-.294.1-.565.188-.828.271a2.411,2.411,0,0,1-.726.116,2.109,2.109,0,0,1-.925-.212,2.434,2.434,0,0,1-.743-.565,3.174,3.174,0,0,1-.779-1.758A13.915,13.915,0,0,1,38.2,147c.1-.4.222-.786.351-1.152a4.52,4.52,0,0,1-.076-.569c-.029-.429-.038-.87-.047-1.3v0c0-.191-.008-.389-.014-.583-.028-.929-.051-1.873-.073-2.785-.011-.455-.022-.926-.035-1.393-.066-2.657-.1-5.33-.106-7.944-.006-3.7.051-7.4.169-11.011-.3.011-.6.016-.932.016-.877,0-1.766-.039-2.625-.076h0c-.347-.015-.706-.031-1.055-.043-2.039-.074-4.114-.205-6.167-.391a110.666,110.666,0,0,1-12.158-1.8l-.236-.048h0c-.443-.09-.9-.184-1.35-.29.048.676.039,1.364.03,2.03v0c0,.2-.006.408-.007.608q0,.424,0,.848v0c-.006,1.228-.012,2.5-.036,3.747-.038,1.868-.088,3.763-.137,5.6v.008c-.028,1.041-.056,2.117-.082,3.176-.029,1.175-.061,2.365-.093,3.515v0c-.049,1.794-.1,3.65-.138,5.475-.031,1.448-.057,2.927-.076,4.4,0,.308,0,.626.007.933a7.634,7.634,0,0,1-.548,3.725,1.54,1.54,0,0,1-.655.644,1.938,1.938,0,0,1-.9.219,1.811,1.811,0,0,1-.868-.213,1.446,1.446,0,0,1-.619-.65,5.117,5.117,0,0,1-.458-1.882,15.8,15.8,0,0,1,.032-1.957v0c.015-.268.031-.544.041-.815.064-1.721.125-3.227.188-4.605.157-3.479.323-6.337.524-9,.248-3.295.522-6.235.837-8.989.172-1.509.393-3.029.606-4.5.021-.142.042-.292.061-.424.077-.54.157-1.1.266-1.645a1.873,1.873,0,0,1,.125-.842,6.779,6.779,0,0,1-1.622-.919,5.7,5.7,0,0,1-1.958-3.3,8.7,8.7,0,0,1-.254-2.045,13.764,13.764,0,0,1,.14-2.059c.09-.657.183-1.3.332-1.938A1.3,1.3,0,0,1,8,106.6a5.145,5.145,0,0,1-1.551-1.489,15.492,15.492,0,0,1-1.082-1.88l0,0-.088-.17c-.605-1.173-1.178-2.422-1.751-3.817A46.051,46.051,0,0,1,1.1,91.485,47.313,47.313,0,0,1,3.978,62.257,51.455,51.455,0,0,1,8,55.02c1.357-2.063,2.915-4.186,4.9-6.683,1.771-2.223,3.681-4.412,5.675-6.506,1.948-2.045,4.037-4.062,6.209-6a.236.236,0,0,1,.157-.065.225.225,0,0,1,.2.132.233.233,0,0,1-.036.255c-.253.313-.523.651-.824,1.031.377-.078.747-.146,1.1-.2a22.118,22.118,0,0,1,4.285-5.062,31.559,31.559,0,0,1,5.421-3.836c1.267-.718,2.589-1.381,4.04-2.028,1.293-.576,2.66-1.126,4.179-1.681,2.822-1.03,5.755-1.921,8.591-2.783,3.657-1.111,7.437-2.259,11.024-3.719A44.016,44.016,0,0,0,68.8,14.987,31.651,31.651,0,0,0,74.069,11.1a24.28,24.28,0,0,0,4.012-4.652,21.123,21.123,0,0,0,1.51-2.746c.166-.368.309-.748.448-1.116h0A11.657,11.657,0,0,1,80.816.828,1.636,1.636,0,0,1,82.271,0a1.852,1.852,0,0,1,1.315.538A1.589,1.589,0,0,1,84.045,1.7a7.668,7.668,0,0,1-.268,1.833,12.061,12.061,0,0,1-.652,1.815,24.3,24.3,0,0,1-1.873,3.32,27.346,27.346,0,0,1-4.914,5.607,34.482,34.482,0,0,1-2.816,2.2c-.938.66-1.942,1.3-2.984,1.894a49.331,49.331,0,0,1-6.361,3.03,128.55,128.55,0,0,1-13.538,4.248l-.065.018-1.051.288a78.068,78.068,0,0,0-13.321,4.7,44.544,44.544,0,0,0-4.921,2.762,41.047,41.047,0,0,0-4.48,3.369c.234-.027.738-.04,1.542-.04,2.463,0,7.362.128,12.1.252h.023c4.746.124,9.653.253,12.124.253.422,0,.768,0,1.029-.011,7.3-.212,14.835-.314,23.031-.314,6.513,0,13.375.066,20.978.2,7.228.128,14.593.323,21.889.581,3.586.126,7.234.272,11.153.446,2.029.09,3.817.173,5.468.256.328.016.66.028.981.039.462.017.94.034,1.408.062a15.737,15.737,0,0,1,4.457-.614,18.817,18.817,0,0,1,1.9.1,39.517,39.517,0,0,0-4.46-3.608,69.826,69.826,0,0,0-9.8-5.3c-1.757-.832-3.574-1.692-5.318-2.617a43.547,43.547,0,0,1-5.058-3.089,26.114,26.114,0,0,1-6.832-7.122,18.664,18.664,0,0,1-2.076-4.463,15.109,15.109,0,0,1-.674-4.889.175.175,0,0,1,.181-.166.146.146,0,0,1,.149.121,17.522,17.522,0,0,0,2.03,5.218,17.985,17.985,0,0,0,3.543,4.333,45.366,45.366,0,0,0,8.03,5.829c2.387,1.337,4.88,2.561,7.292,3.745h0c.969.476,1.971.967,2.953,1.46a54.116,54.116,0,0,1,9.615,5.943,50.385,50.385,0,0,1,4.27,3.838c.235.234.483.47.745.719a21.675,21.675,0,0,1,1.724,1.767c.039.016.08.034.118.053a18.46,18.46,0,0,1,3.325,2.029,19.406,19.406,0,0,1,2.755,2.583,22.488,22.488,0,0,1,2.235,3.035,27.55,27.55,0,0,1,1.765,3.383,45.766,45.766,0,0,1,3.37,14.944c.073.985.12,1.993.14,3a73.454,73.454,0,0,1,1.079,14.341,61.862,61.862,0,0,1-.447,6.252,45.744,45.744,0,0,1-1.188,6.151,36.822,36.822,0,0,1-1.952,5.544,24.535,24.535,0,0,1-3,5.063,7.282,7.282,0,0,1,1.022,2.914l0,.009c.027.137.053.266.08.393.023.11.046.219.071.334v0a8.463,8.463,0,0,1,.248,3.628,2.769,2.769,0,0,1-.992,1.549,3.884,3.884,0,0,1-1.713.733l-.022,0c-.051.009-.1.018-.155.026.116.668.2,1.355.271,2.019v.008c.045.39.091.794.144,1.18.284,2.05.524,4.083.756,6.05a6.164,6.164,0,0,0,.725,2.837,6.186,6.186,0,0,1,.729,2.834c.438,3.642.954,7.537,1.578,11.905.285,2,.6,4.072.936,6.163.127.787.3,1.826.473,2.872.018.109.037.217.055.321v0a4.519,4.519,0,0,1-.151,2.974,1.244,1.244,0,0,1-.533.559A1.557,1.557,0,0,1,162.183,155.6ZM9.9,106.209a1.306,1.306,0,0,1-.283.268c-.024.239-.054.482-.083.717v0a15.182,15.182,0,0,0-.147,1.81,8.136,8.136,0,0,0,.67,3.66,4.084,4.084,0,0,0,1.394,1.532,7.046,7.046,0,0,0,1.963.871,23.1,23.1,0,0,0,3.268.614c.439.06.853.117,1.24.183,3.5.589,7.1,1.026,10.69,1.3,1.8.138,3.667.233,5.552.285.231.006.473.009.739.009.462,0,.934-.009,1.391-.018h.012c.455-.009.925-.018,1.388-.018.281,0,.535,0,.778.01.1-2.425.229-4.852.382-7.213a1.246,1.246,0,0,1-.5.1c-.037,0-.075,0-.113,0-4.29-.3-9.947-.746-15.67-1.551-2.786-.391-5.435-.853-7.872-1.372C13.208,107.076,11.512,106.717,9.9,106.209Zm137.922.285c.171,2.369.351,4.675.537,6.856a12.485,12.485,0,0,1,2.554-.311c.34-.018.692-.037,1.027-.066l3.566-.31c.237-.02.482-.037.7-.053h0c.391-.028.795-.057,1.188-.1.041,0,.084-.008.13-.012h0a.743.743,0,0,0,.588-.214,1.638,1.638,0,0,0,.039-.929v0c-.011-.083-.02-.155-.024-.213-.042-.549-.1-1.1-.184-1.644q-.018-.125-.036-.252l0-.021a13,13,0,0,0-.251-1.407,1.906,1.906,0,0,0-.075-.233,2.281,2.281,0,0,1-.479.05,2.82,2.82,0,0,1-1.8-.688c-.327-.017-.66-.032-.982-.046h0c-.373-.016-.759-.034-1.137-.055-.5-.028-1.013-.047-1.512-.066h0a35.93,35.93,0,0,1-3.846-.284ZM11.011,77.948a.837.837,0,0,0-.821.58A17.187,17.187,0,0,0,9.3,82.783a21.753,21.753,0,0,0,.1,4.339,29.518,29.518,0,0,0,.858,4.294,40.345,40.345,0,0,0,1.387,4.118.879.879,0,0,0,.846.566.888.888,0,0,0,.737-.352.68.68,0,0,0,.046-.664,32.981,32.981,0,0,1-2.172-7.963,20.3,20.3,0,0,1-.121-4.1,16.023,16.023,0,0,1,.832-4.039.726.726,0,0,0-.073-.678A.9.9,0,0,0,11.011,77.948Zm7.767,10.458a.865.865,0,0,0-.618.242.777.777,0,0,0-.212.574,10.4,10.4,0,0,0,.417,2.759,9.936,9.936,0,0,0,1.159,2.537.805.805,0,0,0,.693.393.947.947,0,0,0,.814-.47.735.735,0,0,0-.048-.776,8.339,8.339,0,0,1-1.345-4.443.793.793,0,0,0-.275-.612A.9.9,0,0,0,18.777,88.406Z" transform="translate(3.379 -2.132)"/>
  </g>
  <g id="HEAD" transform="translate(78.592 38.043)">
    <path id="_Skin-2" data-name="âœ‹ Skin" d="M72.7,9.843C66.36,1.1,54.694-1.414,44.577.713,24.8,4.327,5.9,19.455,2.406,40.029-3.047,52.475.435,72.08,16.292,73.545c2.258.128,4.494-.393,6.755-.112,13.8,2.21,30.113,11.672,42.332.514a2.291,2.291,0,0,0,2.106.386c5.2-2.015,5.445-7.843,5.888-12.634q.859-9.286,1.611-18.581c.179-10.686,4.4-24.04-2.287-33.274Z" transform="translate(9.909 25.573)" fill="#d08b5b"/>
    <path id="_Ink-2" data-name="ðŸ– Ink" d="M32.634,100.7a7.884,7.884,0,0,1-.828-.044,8.894,8.894,0,0,1-3.316-1.037,7.386,7.386,0,0,1-2.541-2.248,24.166,24.166,0,0,1-5.387,2.24l-.2.055a18.544,18.544,0,0,1-4.737.772,8.33,8.33,0,0,1-1.84-.192,5.83,5.83,0,0,1-1.687-.661,5.409,5.409,0,0,1-2.336-3.01,7.392,7.392,0,0,1-.2-3.857,7.043,7.043,0,0,1,.249-.869c-.305.016-.61.024-.905.024a14.217,14.217,0,0,1-4.216-.61,8.085,8.085,0,0,1-2.378-1.162,5.485,5.485,0,0,1-1.72-1.991A6.014,6.014,0,0,1,0,85.226a9.518,9.518,0,0,1,.6-2.917,23.454,23.454,0,0,1,5-8.014,33.7,33.7,0,0,1,7.232-5.733l.442-.265A32.775,32.775,0,0,1,16.991,66.3a10.125,10.125,0,0,1,4.02-.967c.088,0,.176,0,.263.005a.991.991,0,0,1-.019-.106,63.233,63.233,0,0,1-.418-7.167v-.005c-.015-.739-.03-1.5-.054-2.254s-.049-1.518-.073-2.255c-.068-2.1-.139-4.27-.189-6.408a97.5,97.5,0,0,1,.565-14.723,49.466,49.466,0,0,1,1.239-6.393,36.7,36.7,0,0,1,2.21-6.119,27.866,27.866,0,0,1,3.636-5.769,29.612,29.612,0,0,1,4.9-4.742A40.324,40.324,0,0,1,39.2,5.536a47.614,47.614,0,0,1,6.768-2.826A53.74,53.74,0,0,1,53.089.888,56.18,56.18,0,0,1,60.28.035c.438-.023.9-.035,1.387-.035a64.621,64.621,0,0,1,15.4,2.357A74.607,74.607,0,0,1,84.9,4.873,39.128,39.128,0,0,1,91.217,7.9,24.176,24.176,0,0,1,98.2,14.437a28.391,28.391,0,0,1,3.777,7.452,31.587,31.587,0,0,1,1.467,6.555,15.1,15.1,0,0,1,.049,3.847,2.755,2.755,0,0,1-.46,1.119,1.1,1.1,0,0,1-.879.494,1.136,1.136,0,0,1-.348-.058A123.847,123.847,0,0,1,102.6,48v0c.015.921.03,1.874.051,2.9l.09,4.445c.055,2.81.108,5.833.121,8.891a.6.6,0,0,1,.208-.039.525.525,0,0,1,.5.352.055.055,0,0,1,0,.054.077.077,0,0,1-.063.03.071.071,0,0,1-.047-.016.381.381,0,0,0-.2-.116.058.058,0,0,0-.056.037,1.545,1.545,0,0,0,.286.882,4.491,4.491,0,0,0,.644.567h0c.113.088.221.172.316.254l.8.691.8.689c.834.721,1.926,1.684,2.982,2.738l.261.263c.4.4.825.814,1.24,1.21l0,0a16.53,16.53,0,0,1,3.784,4.592,5.89,5.89,0,0,1,.533,3.388,5.482,5.482,0,0,1-1.541,3.054,7.325,7.325,0,0,1-2.159,1.49,8.076,8.076,0,0,1,1.16,3.9,7.077,7.077,0,0,1-1.014,3.949,7.209,7.209,0,0,1-2.818,2.6,8.024,8.024,0,0,1-3.707.909c-.184,0-.37-.007-.553-.02a4.189,4.189,0,0,1-.388,1,3.866,3.866,0,0,1-.863,1.085,3.944,3.944,0,0,1-1.1.666,6.877,6.877,0,0,1-2.606.427c-.234,0-.475-.007-.738-.02l-.08,0a30.276,30.276,0,0,1-13.115-3.682c-.054,0-.108.005-.162.005a2.734,2.734,0,0,1-1.787-.71,3.091,3.091,0,0,1-.981-1.625c-.7-.026-1.431-.083-2.237-.175a23.251,23.251,0,0,1-3.363-.612,12.968,12.968,0,0,1-3.164-1.275.327.327,0,0,1-.156-.375.352.352,0,0,1,.331-.272c.353-.008.736-.012,1.171-.012s.857,0,1.275.007h.021c.424,0,.862.007,1.293.007a32.2,32.2,0,0,0,3.473-.153,25.6,25.6,0,0,0,6.624-1.68A18.26,18.26,0,0,0,92.7,85.287a14.428,14.428,0,0,0,3.583-4.534,16.572,16.572,0,0,0,1.13-2.982,23.911,23.911,0,0,0,.637-3.145,63.154,63.154,0,0,0,.447-6.457v0c.027-.785.056-1.6.095-2.379.237-4.739.545-9.954.969-16.413l.174-2.621a114.62,114.62,0,0,1,1.523-13.146c-.076.007-.159.01-.247.01a12.992,12.992,0,0,1-3.46-.717,32.05,32.05,0,0,1-4.9-2.054A27.223,27.223,0,0,1,87.7,27.6a14.665,14.665,0,0,1-3.632-4.291,11.2,11.2,0,0,1-1.275,2.08,13.041,13.041,0,0,1-1.681,1.783,20.037,20.037,0,0,1-4.365,2.853,44.966,44.966,0,0,1-5.34,2.19c-1.894.658-3.921,1.277-5.881,1.875-5.286,1.613-10.751,3.282-14.967,6.063a20.079,20.079,0,0,0-2.911,2.313A15.686,15.686,0,0,0,45.319,45.3a14.885,14.885,0,0,0-1.614,3.458,17.747,17.747,0,0,0-.775,4.183.118.118,0,0,1-.127.114.179.179,0,0,1-.183-.157l-.027-.488c-.012-.229-.025-.473-.033-.714l-.007-.235-.521.006a.061.061,0,0,1-.061.061.057.057,0,0,1-.055-.042,1.275,1.275,0,0,0-.711-.754,2.755,2.755,0,0,0-1.131-.2,7.047,7.047,0,0,0-2.008.342A9.139,9.139,0,0,0,35.509,52.2a8.96,8.96,0,0,0-2.017,2.007A6.861,6.861,0,0,0,32.342,56.8a7.13,7.13,0,0,0-.03,2.717,8.5,8.5,0,0,0,.907,2.553,9.881,9.881,0,0,0,1.626,2.2,9.76,9.76,0,0,0,2.128,1.655c.813.465,1.672.867,2.5,1.256A24.837,24.837,0,0,1,42.9,69.009,24.359,24.359,0,0,1,47.4,72.9a27.008,27.008,0,0,1,3.481,4.891,26.618,26.618,0,0,1,2.35,5.634,22.746,22.746,0,0,1,.9,5.985,18.692,18.692,0,0,1-.872,5.944A1.927,1.927,0,0,1,51.9,96.709a4.834,4.834,0,0,1-.685.052,2.8,2.8,0,0,1-1.2-.241,2.111,2.111,0,0,1-.927-.862,2.384,2.384,0,0,1-.329-1.338A5.489,5.489,0,0,1,47.537,96.4a5.606,5.606,0,0,1-1.858,1.385,5.476,5.476,0,0,1-2.17.444,5.737,5.737,0,0,1-3.05-.882l-.194.143a21.9,21.9,0,0,1-3.6,2.237A9.394,9.394,0,0,1,32.634,100.7ZM42.793,62.666a1.141,1.141,0,0,1-1.088-.746l-.181-.42a15.918,15.918,0,0,0-1.057-2.094,6.081,6.081,0,0,0-1.536-1.726,3.831,3.831,0,0,0-2.236-.764,2.83,2.83,0,0,0-2.154.942.094.094,0,0,1-.071.034.115.115,0,0,1-.095-.058.106.106,0,0,1,0-.107,3.262,3.262,0,0,1,1.476-1.414,4.563,4.563,0,0,1,2.014-.443,5.311,5.311,0,0,1,.891.076,5.927,5.927,0,0,1,2.995,1.585,20.27,20.27,0,0,1,2.269,2.6,1.475,1.475,0,0,1,.241,1.6,1.684,1.684,0,0,1-.617.673A1.628,1.628,0,0,1,42.793,62.666Z" transform="translate(-16.022 13.104)"/>
  </g>
  <g id="FACE" transform="translate(112.183 77.354)">
    <path id="teeth" d="M2.232,8.525h0L0,0,.36.056A28.365,28.365,0,0,1,4.344.9c.881.284,1.328.577,1.328.869l0,.04c-.047.657-1.2,2.916-3.438,6.714Zm19.759-.587h0L17.873,3.423l4.908-1.58-.791,6.1Z" transform="translate(21.294 44.824)" fill="#fff"/>
    <ellipse id="eye" cx="8.345" cy="7.609" rx="8.345" ry="7.609" transform="translate(12.465 16.274)" fill="#fff"/>
    <ellipse id="eye-2" data-name="eye" cx="7.606" cy="7.503" rx="7.606" ry="7.503" transform="translate(25.563 8.665)" fill="#fff"/>
    <path id="eye-3" data-name="eye" d="M6.127,12.992c3.384,0,6.127-3.028,6.127-6.763A6,6,0,0,0,6.127,0,6,6,0,0,0,0,6.229C0,9.964,2.743,12.992,6.127,12.992Z" transform="translate(37.394 17.02)" fill="#fff"/>
    <path id="_Ink-3" data-name="ðŸ– Ink" d="M14.193,46.515a1.831,1.831,0,0,1-.948-.284,2.46,2.46,0,0,1-1.052-1.456,9.124,9.124,0,0,1-.306-1.847v0c-.011-.112-.021-.218-.032-.323-.1-.954-.158-1.746-.187-2.492l-.012-.356c0-.155-.012-.311-.021-.476a4.737,4.737,0,0,1,.178-2.019A.217.217,0,0,1,12,37.125a.142.142,0,0,1,.111.055,6.123,6.123,0,0,1,.954,2.34c.057.222.111.432.17.634.089.307.187.615.291.941a15.663,15.663,0,0,1,.634,2.424l.045-.079c.171-.325.341-.64.485-.905l.49-.9c.4-.738.824-1.511,1.339-2.433-.548-.206-1.084-.426-1.536-.614L13.826,38.1A5.529,5.529,0,0,1,12,37a.192.192,0,0,1-.041-.188.154.154,0,0,1,.119-.11,4.551,4.551,0,0,1,.858-.076,13.63,13.63,0,0,1,2.935.455c.412.094.8.183,1.174.252l.114.021c.464.081.935.168,1.391.252,1.367.251,2.78.511,4.185.655a28.178,28.178,0,0,0,2.85.151,22.473,22.473,0,0,0,2.554-.141,17.411,17.411,0,0,0,2.545-.493c.362-.1.719-.207,1.061-.324l.04-.015c.058-.024.136-.062.226-.105a2.219,2.219,0,0,1,.639-.244.087.087,0,0,1,.064.02.061.061,0,0,1,.015.046,1.524,1.524,0,0,1,.76-.463,1.361,1.361,0,0,1,.345-.043,1.518,1.518,0,0,1,.956.331.8.8,0,0,1,.5-.17,1.2,1.2,0,0,1,.937.5,2.023,2.023,0,0,1,.354,1.025,6.272,6.272,0,0,1-.039,1.1c-.01.11-.021.223-.03.335l-.006.076c-.054.761-.137,1.549-.253,2.412l-.048.344c-.02.142-.038.294-.058.455a7.89,7.89,0,0,1-.376,1.851,1.812,1.812,0,0,1-1.218,1.225,1.438,1.438,0,0,1-.376.05c-.952,0-1.814-.93-2.532-1.84l-.4-.514a11.4,11.4,0,0,1-1.253-1.908c-.187-.368-.328-.672-.444-.955-.015-.036-.026-.068-.037-.1l0-.014a22.358,22.358,0,0,1-2.971.194,26.158,26.158,0,0,1-3.4-.229,31.926,31.926,0,0,1-3.952-.774L18.594,41.1c-.613,1.1-1.343,2.4-2.11,3.672l-.057.092A4.655,4.655,0,0,1,15.467,46,2.012,2.012,0,0,1,14.193,46.515Zm19.8-6.832h0A18.055,18.055,0,0,1,30.475,40.7l.011.011c.068.07.146.15.215.231.267.309.545.6.882.95l.181.186c.072.074.15.156.232.242a9.835,9.835,0,0,0,1.628,1.463l.038-.2c.007-.041.011-.068.014-.09l.075-.672c.011-.106.024-.22.035-.336.051-.507.094-1.023.135-1.522l.025-.3c.023-.281.031-.574.039-.857l0-.12ZM25.54,34.709h0a4.93,4.93,0,0,1-3.733-1.746,8.832,8.832,0,0,1-1.544-2.51,7.057,7.057,0,0,1-.566-2.884,2.69,2.69,0,0,1,.432-1.387,1.44,1.44,0,0,1,1.218-.67l.1,0a1.2,1.2,0,0,1,.938.479,1.288,1.288,0,0,1,.148,1.108l-.014.046a4.134,4.134,0,0,0,.139,2.541,5.125,5.125,0,0,0,1.4,2.181,2.721,2.721,0,0,0,1.817.691,3.643,3.643,0,0,0,2.039-.688,4.828,4.828,0,0,0,1.5-1.651,7.13,7.13,0,0,0,.647-1.717,10.072,10.072,0,0,0,.257-1.849,17.89,17.89,0,0,0-.252-3.708,21.111,21.111,0,0,0-.838-3.339C28.846,18.487,28.4,17.364,28,16.4c-.1.019-.2.034-.281.045a16.976,16.976,0,0,1-2.227.141,14.12,14.12,0,0,1-2.619-.224,6.384,6.384,0,0,1-2.3-.846,8.38,8.38,0,0,1-1.294,5.554,6.743,6.743,0,0,1-2.258,2.114,8.111,8.111,0,0,1-2.948.968,22.68,22.68,0,0,1-3.089.22A14.927,14.927,0,0,1,7.528,24a5.873,5.873,0,0,1-2.359-1.165,6.7,6.7,0,0,1-1.624-1.977,8.9,8.9,0,0,1-1.037-3.552,9.163,9.163,0,0,1,.427-3.659,7.121,7.121,0,0,1,.832-1.666,8.133,8.133,0,0,1,1.249-1.456A7.846,7.846,0,0,1,6.571,9.406a6.585,6.585,0,0,1,1.757-.663,6.821,6.821,0,0,1,3.708-.98c.222,0,.446.009.666.026a9.14,9.14,0,0,1,3.128.818,7.874,7.874,0,0,1,2.594,1.919,8.6,8.6,0,0,1,1.355,2.09,1.042,1.042,0,0,1,.409-.2,1.5,1.5,0,0,1,.345-.046,1.017,1.017,0,0,1,.344.059,1.5,1.5,0,0,1,.389.284l.233.274a2.593,2.593,0,0,0,1.066.82,10.44,10.44,0,0,0,3.8.625c.357,0,.711-.014,1.053-.04A2.946,2.946,0,0,0,29.8,13.049a5.714,5.714,0,0,0,.692-3.3,11.734,11.734,0,0,0-.659-3.364A6.88,6.88,0,0,0,28.8,4.507a6.995,6.995,0,0,0-3.378-2.372,6.632,6.632,0,0,0-5.229.469,7.921,7.921,0,0,0-1.746,1.259,9.608,9.608,0,0,0-1.973,3.057c-.114.24-.232.488-.356.735a.1.1,0,0,1-.092.052.1.1,0,0,1-.107-.079,4.551,4.551,0,0,1,.131-2.177,6.745,6.745,0,0,1,1.027-2.027,8.983,8.983,0,0,1,1.6-1.68A7.973,7.973,0,0,1,20.52.611,7.709,7.709,0,0,1,23.568,0,8.6,8.6,0,0,1,26.31.454a8.773,8.773,0,0,1,2.473,1.3,8.344,8.344,0,0,1,2.63,3.385,10.921,10.921,0,0,1,.661,2.059,13.1,13.1,0,0,1,.28,2.162,3.152,3.152,0,0,1,2.1-.763,5.129,5.129,0,0,1,2.207.564,7.663,7.663,0,0,1,1.89,1.319,7.912,7.912,0,0,1,2.018,3.156,7.568,7.568,0,0,1,.319,3.722,7,7,0,0,1-.566,1.8,7.123,7.123,0,0,1-1.013,1.576,6.561,6.561,0,0,1-3.087,2.058,6.437,6.437,0,0,1-1.872.273,6.533,6.533,0,0,1-1.767-.24,6.805,6.805,0,0,1-1.338-.528l.02.079c.019.076.038.155.057.231a19.916,19.916,0,0,1,.568,3.869,12.037,12.037,0,0,1-.083,1.957,9.058,9.058,0,0,1-.447,1.891,6.784,6.784,0,0,1-.952,1.768,6.908,6.908,0,0,1-1.383,1.39,6.354,6.354,0,0,1-1.671.909A5.377,5.377,0,0,1,25.54,34.709ZM7.433,10.75A6.593,6.593,0,0,0,5.4,12.862a6.665,6.665,0,0,0-.909,2.994,7.755,7.755,0,0,0,.216,2.4,6.384,6.384,0,0,0,1,2.188,3.787,3.787,0,0,0,2,1.408,8.989,8.989,0,0,0,2.469.336l.172,0c.294.006.553.009.792.009a11.567,11.567,0,0,0,4.247-.624,4.829,4.829,0,0,0,1.681-1.121A5,5,0,0,0,18.2,18.492a6.923,6.923,0,0,0-.006-4.116,6.57,6.57,0,0,0-.914-1.863,5.8,5.8,0,0,0-1.484-1.458,6.858,6.858,0,0,0-3.86-1.122H11.8a10.9,10.9,0,0,0-2.711.5c-.434.12-.883.244-1.333.338a.568.568,0,0,1-.118.012A.606.606,0,0,1,7.433,10.75Zm23.672,8.591a2.193,2.193,0,0,1,1.309.6,3.751,3.751,0,0,0,.824.515,4.287,4.287,0,0,0,1.592.306,4.218,4.218,0,0,0,.817-.079,4.049,4.049,0,0,0,2.192-1.263,5.32,5.32,0,0,0,1.366-3.681,5.752,5.752,0,0,0-.211-1.4,6.725,6.725,0,0,0-1.338-2.507l-.094-.109a7.709,7.709,0,0,0-1.817-1.548,4.36,4.36,0,0,0-2.231-.681,3.3,3.3,0,0,0-1.149.206l.006.242c0,.043,0,.083,0,.121a8.051,8.051,0,0,1-.873,3.827,5.04,5.04,0,0,1-1.155,1.436,4.778,4.778,0,0,1-1.7.919,15.781,15.781,0,0,1,1.735,3.3,1.293,1.293,0,0,1,.584-.2A1.379,1.379,0,0,1,31.105,19.341Zm-25.031,7.4a9.36,9.36,0,0,1-2.056-.261,7.4,7.4,0,0,1-3.977-2.37.182.182,0,0,1-.023-.2.157.157,0,0,1,.138-.1.156.156,0,0,1,.088.03,9.009,9.009,0,0,0,4.07,1.6,9.146,9.146,0,0,0,.989.056,7.272,7.272,0,0,0,1.1-.081c.13-.02.258-.045.383-.069a4.375,4.375,0,0,1,.827-.106,1.86,1.86,0,0,1,.5.066.377.377,0,0,1,.271.256.456.456,0,0,1-.092.423A2.788,2.788,0,0,1,6.074,26.736Zm32.639-2.143a6.865,6.865,0,0,1-1.565-.173.1.1,0,0,1-.077-.116.1.1,0,0,1,.1-.1h0l.148,0a4.69,4.69,0,0,0,1.187-.142,4.07,4.07,0,0,0,1.107-.468,4.537,4.537,0,0,0,.855-.73,4.541,4.541,0,0,1,.811-.7.644.644,0,0,1,.343-.1.735.735,0,0,1,.62.381.662.662,0,0,1,0,.682,2.764,2.764,0,0,1-1.493,1.137A6.04,6.04,0,0,1,38.713,24.594ZM11.5,18.449a2.456,2.456,0,0,1-1.086-.242,2.211,2.211,0,0,1-.868-.754,1.923,1.923,0,0,1-.312-.823,1.653,1.653,0,0,1,.033-.593l-.011.046c.037-.167.059-.265.066-.292a2.491,2.491,0,0,1,.627-1.121,1.8,1.8,0,0,1,1.145-.5,1.39,1.39,0,0,1,1.23-.682,1.642,1.642,0,0,1,1.362.708l.028.043.006-.008a2.561,2.561,0,0,1,.435,2.146,2.766,2.766,0,0,1-.467,1.024,2.422,2.422,0,0,1-.865.734A2.972,2.972,0,0,1,11.5,18.449Zm23.467-.593a1.686,1.686,0,0,1-.373-.042,1.591,1.591,0,0,1-.928-.714,1.391,1.391,0,0,1-.136-.318l-.153-.363c-.019-.057-.033-.118-.047-.177-.007-.031-.015-.062-.022-.092-.052-.2-.1-.4-.136-.6a2.467,2.467,0,0,1,.006-.99,1.774,1.774,0,0,1,.483-.86,1.9,1.9,0,0,1,2.689,0,1.611,1.611,0,0,1,.486.859,2.586,2.586,0,0,1,0,.992c-.035.2-.083.4-.134.6l-.044.181c-.008.032-.016.062-.025.089a1.467,1.467,0,0,1-.142.346,1.406,1.406,0,0,1-.579.8A1.7,1.7,0,0,1,34.971,17.856ZM23.99,10.55A2.3,2.3,0,0,1,22.4,9.918l-.05-.047A2.093,2.093,0,0,1,21.737,8.7a2.365,2.365,0,0,1,.143-1.314,2.228,2.228,0,0,1,1.777-1.359A2.3,2.3,0,0,1,23.963,6a2.274,2.274,0,0,1,1.962,1.107,2.345,2.345,0,0,1,0,2.3l-.034.058A2.175,2.175,0,0,1,23.99,10.55Z" transform="translate(9.296 7.82)"/>
  </g>
</svg>
