<svg id="peep-55" xmlns="http://www.w3.org/2000/svg" width="240" height="324" viewBox="0 0 240 324">
  <g id="BODY" transform="translate(31.056 135.053)">
    <path id="_Skin" data-name="âœ‹ Skin" d="M152.022,152.978h0c-1.055,0-2.122-.051-3.154-.1-.7-.033-1.364-.065-1.993-.079-4.036-.54-8.154-.924-12.591-1.172-3.969-.222-8.1-.331-12.613-.331-8.868,0-17.891.43-26.616.845h-.007c-2.951.141-6,.286-9,.412-2.1.138-4.255.205-6.587.205-5.787,0-11.654-.43-17.328-.845h-.006c-5.67-.415-11.532-.845-17.306-.845-2.588,0-4.969.083-7.279.255a153.721,153.721,0,0,1-16.631,1.207,62.7,62.7,0,0,1-7.441-.414c-1.1-.175-2.253-.284-3.366-.39h0c-1.316-.125-2.676-.253-3.983-.492a14.854,14.854,0,0,1-3.781-1.165,4.55,4.55,0,0,1-1.663-1.625A5,5,0,0,1,.043,146.4a16.86,16.86,0,0,1,.43-4.645,26.553,26.553,0,0,0,.4-2.68c.858-4.141,1.633-8.86,2.369-14.425.659-4.978,1.233-10.213,1.789-15.276h0c1.481-13.5,3.013-27.455,6.424-40.3.882-3.32,1.871-6.487,2.941-9.411a83.091,83.091,0,0,1,3.819-8.868,67.042,67.042,0,0,1,4.871-8.186,58.338,58.338,0,0,1,6.094-7.365A58.671,58.671,0,0,1,35.837,30.3a39.233,39.233,0,0,1,6.242-3.2c4.267-1.722,8.842-2.725,14.839-3.954a47.22,47.22,0,0,0,5.871-1.673c2.03-.712,4.692-1.8,5.848-2.909a26,26,0,0,0,2.955-3.794l.108-.157A28.974,28.974,0,0,0,74,10.084a31.7,31.7,0,0,1,2.053-4.141,12.005,12.005,0,0,1,1.373-1.815,9.369,9.369,0,0,1,1.79-1.512A24.351,24.351,0,0,1,90.591,0a21.691,21.691,0,0,1,5.5.656,11.6,11.6,0,0,1,4.422,2.115,11.317,11.317,0,0,1,2.062,2.389,14.162,14.162,0,0,1,1.356,2.724,38.1,38.1,0,0,1,1.54,6.031c.291,1.466.592,2.981,1.007,4.429a17.619,17.619,0,0,0,1.717,4.149,19.081,19.081,0,0,0,6.887,4.186,91.441,91.441,0,0,0,8.732,2.81c2.218.633,4.312,1.231,6.019,1.867,1.232.515,5.893,4.359,7.163,5.519a17.457,17.457,0,0,1,2.151,2.566,24.523,24.523,0,0,1,1.8,3.075,42.266,42.266,0,0,1,2.719,7.316A146.487,146.487,0,0,1,146.952,66.6c.728,4.655,1.416,9.052,2.365,12.686,2.2,12.746,3.933,23.29,5.451,33.183,1.84,11.994,3.341,22.89,4.587,33.311a8.812,8.812,0,0,1,.243,3.1,3.923,3.923,0,0,1-2.055,3.1,6.6,6.6,0,0,1-1.607.618A16,16,0,0,1,152.022,152.978ZM4.889,145.707c-.051.01-.1.036-.1.06s.023.036.151.036H4.98l-.055-.057Z" transform="translate(6.972 -7.609)" fill="#d08b5b"/>
    <path id="_Ink" data-name="ðŸ– Ink" d="M161.061,150.76a2.447,2.447,0,0,1-1.619-.573,2.512,2.512,0,0,1-.8-1.767,1.66,1.66,0,0,1,.49-1.365l0-.05c0-.024-.005-.043-.007-.054v-.008c-.074-.4-.112-.82-.149-1.226-.018-.2-.036-.4-.058-.6-.1-.882-.2-1.774-.3-2.637l-.012-.1q-.063-.552-.125-1.105c-.267-2.319-.555-4.812-.858-7.327-.6-5-1.234-9.992-1.886-14.839l-.659-4.886c-.991-7.319-2.177-15.944-3.458-24.411-1.356-8.967-2.688-16.921-4.072-24.314-.808-4.311-1.662-8.745-2.539-13.18-.5-2.5-.913-4.412-1.356-6.209-.553-2.244-1.134-4.239-1.775-6.1a39.887,39.887,0,0,0-4.631-9.344,33.575,33.575,0,0,0-7.046-7.655c.049.476.091.961.131,1.429v0c.029.34.06.692.093,1.038.208,2.189.434,4.415.63,6.33.436,4.249.908,7.99,1.444,11.436.634,4.077,1.358,7.776,2.215,11.309a96.109,96.109,0,0,0,3.325,10.927c.674,1.8,1.4,3.553,2.159,5.2.22.476.481.952.758,1.456a9.426,9.426,0,0,1,1.465,3.906,1.414,1.414,0,0,1-.422,1.034,1.64,1.64,0,0,1-1.15.521,1.269,1.269,0,0,1-.14-.008c.36,3.173.579,6.414.791,9.547l.058.853c.121,1.767.235,3.565.346,5.3v.026c.2,3.169.409,6.446.667,9.663.749,9.386,1.709,18.811,2.548,26.793.162,1.545.34,3.115.512,4.633v0l0,.036.071.63.167,1.484.015.129,0,.021a4.516,4.516,0,0,1-.245,2.818,14.619,14.619,0,0,1,.951,3.411,3.134,3.134,0,0,1-.056,1.24,2.647,2.647,0,0,1-.539,1.072,2.08,2.08,0,0,1-1.63.737l-.1,0c-.172-.006-.357-.02-.583-.044a21.857,21.857,0,0,1-4.817.7c-.291,0-.6,0-.92,0-1.116,0-2.251-.013-3.349-.025-.668-.008-1.359-.015-2.047-.02h-.026c-3.752-.025-8-.054-12.187-.088-5-.04-10.075-.066-14.987-.092h-.02c-9.574-.049-19.474-.1-29.211-.257l-5.9-.094c-4.915-.079-10.626-.18-16.213-.384-4.148-.151-7.633-.28-11.159-.423l-.757-.029-1.122-.039h-.021a73.242,73.242,0,0,1-8.667-.643.118.118,0,0,1-.078-.049.168.168,0,0,1-.026-.123l0-.02-.142-.032a.067.067,0,0,1-.073.053,1.868,1.868,0,0,1-.815-.574,4.276,4.276,0,0,1-.617-.783,1.633,1.633,0,0,1-.275-.824,4.033,4.033,0,0,1-.36-2.865c.023-.213.044-.414.058-.6.048-.671.1-1.351.158-2.01l0-.022c.03-.359.06-.731.089-1.1.081-1.025.157-2.068.232-3.076v-.014c.086-1.176.176-2.393.272-3.588.833-10.318,1.391-18.886,1.756-26.964.169-3.735.313-7.533.452-11.206v0q.045-1.2.091-2.394c.1-2.51.215-4.417.389-6.184l.053-.513c.053-.5.093-1.015.131-1.516v0a16.635,16.635,0,0,1,.836-4.769.03.03,0,0,1,.057,0,18.131,18.131,0,0,1,.955,5.521c.016.233.033.473.05.707.02-.006.04-.01.061-.014l.023,0c.231-.11.466-.219.694-.325a23.019,23.019,0,0,0,2.473-1.273c.09-.055.18-.114.267-.17h0l.138-.089c1.006-3.079,2.131-6.176,3.219-9.172.638-1.755,1.3-3.57,1.925-5.363,1.359-3.879,2.591-7.895,3.661-11.937,1.057-3.992,1.982-8.1,2.748-12.214A174.735,174.735,0,0,0,53.488,16.2a106.571,106.571,0,0,1-10.282,5.6c-.956.476-1.944.969-2.912,1.461l-.416.212a50.78,50.78,0,0,0-6.306,3.711,25.865,25.865,0,0,0-5.362,4.942,31.509,31.509,0,0,0-3.467,5.509c-.982,1.932-1.826,3.917-2.676,5.951C20.378,47.628,18.744,52,17.211,56.568c-1.447,4.315-2.787,8.849-3.985,13.475-1.137,4.391-2.18,9-3.1,13.708C9.254,88.2,8.482,92.8,7.83,97.415c-.632,4.476-1.171,9.106-1.6,13.762-.474,5.136-.853,9.749-1.16,14.1-.155,2.18-.3,4.519-.458,7.152-.027.47-.052.94-.076,1.4-.036.682-.073,1.387-.118,2.081-.007.1-.013.2-.019.3v.006a6.282,6.282,0,0,1-.255,1.68,5.436,5.436,0,0,1-.667,1.216l-.146.222a1.525,1.525,0,0,1-.576.515,1.606,1.606,0,0,1-.737.183,1.272,1.272,0,0,1-1.167-.7L.623,138.9a4.646,4.646,0,0,1-.613-1.834,10.916,10.916,0,0,1,.042-1.428c.012-.166.025-.337.034-.5.072-1.326.156-2.674.23-3.863.175-2.8.366-5.531.568-8.12.428-5.521.981-10.977,1.641-16.217.645-5.1,1.308-9.741,2.027-14.177.808-4.986,1.665-9.587,2.62-14.068C8.2,73.873,9.347,69.2,10.581,64.8c1.323-4.711,2.8-9.3,4.391-13.634.839-2.286,1.711-4.516,2.593-6.627.938-2.244,1.917-4.429,2.91-6.494a38.621,38.621,0,0,1,3.449-5.912A26.555,26.555,0,0,1,26.088,29.5a22.3,22.3,0,0,1,2.532-2.315,34.7,34.7,0,0,1,5.373-3.376c1.851-.962,3.782-1.821,5.763-2.689l.484-.212c.749-.327,1.5-.662,2.234-.986a103.074,103.074,0,0,1,10.987-4.372,1.488,1.488,0,0,0-.287.055.1.1,0,0,1-.03,0,.09.09,0,0,1-.082-.057.107.107,0,0,1,.015-.115,3.091,3.091,0,0,0,.283-.381,2.581,2.581,0,0,1,.379-.479c.192-.182.4-.364.636-.555l.315-.251a4.943,4.943,0,0,1,1.906-1.084,1.411,1.411,0,0,1,.3-.034.975.975,0,0,1,.834.425,1.139,1.139,0,0,1,.107,1.046.323.323,0,0,1,.262-.114.412.412,0,0,1,.387.243c1.124,2.9,2.137,5.908,3.116,8.816s1.991,5.915,3.116,8.819a69.248,69.248,0,0,0,3.892,8.492c3.8,6.885,8.446,12.048,13.813,15.346a28.542,28.542,0,0,0,5.112,2.51,19.874,19.874,0,0,0,5.549,1.212c.337.021.678.032,1.014.032a15.907,15.907,0,0,0,4.439-.632,16.718,16.718,0,0,0,4.114-1.837,22.227,22.227,0,0,0,3.854-3.041,29.254,29.254,0,0,0,3.209-3.759,47.368,47.368,0,0,0,4.816-8.62,84.9,84.9,0,0,0,3.687-10,88.81,88.81,0,0,0,2.437-10.387h-.169A13.93,13.93,0,0,1,114.9,20a13.612,13.612,0,0,1-4.631-3.313,12.757,12.757,0,0,1-2.835-5.254,8.545,8.545,0,0,1-.283-2.751,10.1,10.1,0,0,1,.587-2.687.109.109,0,0,1,.1-.071.085.085,0,0,1,.087.071,26.221,26.221,0,0,0,1.625,4.726,13.442,13.442,0,0,0,2.689,3.992,11.471,11.471,0,0,0,4.027,2.667,13.051,13.051,0,0,0,4.759.856l.08,0c.01-.07.02-.141.03-.21v0l.018-.125.023-.169a2.112,2.112,0,0,1,.665-1.347,1.777,1.777,0,0,1,1.172-.432,1.889,1.889,0,0,1,1.064.329,1.772,1.772,0,0,1,.691.949c.3.1.557.177.815.264l.054.02c.1.038.255.106.434.184a6.525,6.525,0,0,0,1.7.587.251.251,0,0,0,.146-.034.855.855,0,0,1,.506-.17,1.266,1.266,0,0,1,1.066.809,9.543,9.543,0,0,1,.512,2.55c.021.2.042.38.065.565l.017.132.019.159a19.264,19.264,0,0,1,10.509,7.437,33,33,0,0,1,3.416,5.7,45.9,45.9,0,0,1,2.372,6.117,130.653,130.653,0,0,1,3.116,13.235l.049.245c.569,2.856,1.12,5.764,1.653,8.576v.013c.369,1.947.751,3.961,1.135,5.939,2.145,11.039,3.775,20.156,5.13,28.693l.442,2.786c1.559,9.859,2.819,18.139,3.9,26.5.564,4.366,1.137,9.06,1.753,14.349.1.842.2,1.7.3,2.562l.147,1.282c.014.121.029.243.043.361v0a9.965,9.965,0,0,1,.108,1.523,3.331,3.331,0,0,1-.367,1.476,3.142,3.142,0,0,1-2.751,1.668ZM61.47,15.637a3.971,3.971,0,0,1-2.181-.521.1.1,0,0,1-.048-.084.1.1,0,0,1,.048-.087,5.14,5.14,0,0,1,1.83-.664h0c.24-.054.487-.111.719-.177a22.824,22.824,0,0,0,2.713-.941,21.413,21.413,0,0,0,4.861-2.9A20.964,20.964,0,0,0,71.55,8.336a13.647,13.647,0,0,0,1.768-2.262,26.56,26.56,0,0,0,1.331-2.521,12.194,12.194,0,0,0,.466-1.178A9.572,9.572,0,0,1,75.73.908,1.742,1.742,0,0,1,76.418.23,1.918,1.918,0,0,1,77.335,0a1.964,1.964,0,0,1,.734.141,1.669,1.669,0,0,1,.943.9,2.416,2.416,0,0,1,.141,1.31A9.5,9.5,0,0,1,77.843,5.4l-.081.141A16.707,16.707,0,0,1,75.714,8.3a23.587,23.587,0,0,1-4.741,4.238,18.751,18.751,0,0,1-5.907,2.551l-.5.116A14.535,14.535,0,0,1,61.47,15.637Z" transform="translate(4.648 0.423)"/>
  </g>
  <g id="HEAD" transform="translate(78.592 38.043)">
    <path id="_Skin-2" data-name="âœ‹ Skin" d="M83.228,76.034c-3.562-16.188-4.256-33.965-13.657-48.1-4.108-5.763-10.709-13.279-18.42-10.91q.477-5.119.9-10.243c.159-1.954.888-4.558-.761-6.06-2.724-2.2-7.232,1.169-9.338,3.054-4.561,4.378-6.361,8.63-12.369,11.554-2.408-1.72-4.755-3.526-7.2-5.2-2.49-1.706-6.053-4.476-8.637-1.327-2.19,2.669-.791,6.876.077,9.812.444,1.5.886,3.141,1.5,4.686q.078,1.761.276,3.515c-4.45.794-9.03,1.462-13.282,3.02C0,31.094.2,33.953,1.848,35.665a25.625,25.625,0,0,0,8.977,5.513,9.258,9.258,0,0,1-3.959,5.147,2.439,2.439,0,0,0-1.1,1.6A12.465,12.465,0,0,1,2.71,48.964a2.549,2.549,0,0,0-1.757,3.1c.966,3.041,4.372,1.3,6.584,1.088a15.161,15.161,0,0,0,1.063,6.3C3.459,60.811-.995,65.743.194,71.3c1.08,5.313,6.8,6.936,11.328,8.143.343.2.342.4.451.9a19.579,19.579,0,0,1-1.06,10.5,2.4,2.4,0,0,0,.864,2.541c3.687,2.354,4.91-4.814,9.114-.252-.314-.047-1.094-.438-1.054.128,5.454,9.594,21.556,10.184,31.422,10.42,1.184.577,2.547.25,3.9-.119,1.292-.07,2.583-.167,3.87-.3,2.35-.425,6.485.079,6.632-3.24a31.324,31.324,0,0,0,14.85-12.043,14.247,14.247,0,0,0,2.716-11.952Z" transform="translate(8.433 1.479)" fill="#d08b5b"/>
    <path id="_Hair" data-name="ðŸ’ˆ Hair" d="M12.442,91.133a1.619,1.619,0,0,1-1.081-.412,1.318,1.318,0,0,1-.424-.944A5.769,5.769,0,0,1,11,88.631c.02-.166.039-.323.05-.469l.019-.294.044-.62L11.127,87a7.241,7.241,0,0,0-.148-2.354.484.484,0,0,0-.213-.291c.027-.2.052-.392.072-.583l.012-.112a14.472,14.472,0,0,0,2.893,6.625c.085.108.175.22.269.336l-.105.057-.108.056A3.029,3.029,0,0,1,12.442,91.133ZM3.41,51.029a4.166,4.166,0,0,1-.985-.1,4.337,4.337,0,0,1-1.217-.488A1.749,1.749,0,0,1,1,50.278a1.736,1.736,0,0,0-.284-.212,2.992,2.992,0,0,0,.693-.754,4.618,4.618,0,0,1,.341-.424c.416-.424.858-.839,1.313-1.234.154-.134.36-.28.577-.436.611-.437,1.372-.98,1.457-1.581a.105.105,0,0,0-.046-.112.937.937,0,0,0-.329-.112,2.435,2.435,0,0,1,.727-.767L5.52,44.6A39.082,39.082,0,0,0,4.351,51c-.121,0-.244.007-.364.012C3.8,51.022,3.6,51.029,3.41,51.029ZM7.674,38.715h0c-.356-.16-.715-.329-1.065-.5a2.427,2.427,0,0,0,.864-.33l.076-.043.136-.079a.966.966,0,0,0,.45-.736.828.828,0,0,0-.264-.711c-.093-.082-.171-.158-.247-.232a1.907,1.907,0,0,0-.824-.544c-.254-.082-.52-.14-.777-.2-.2-.043-.407-.088-.607-.144a9.507,9.507,0,0,1-2.692-1.249A8.583,8.583,0,0,1,.739,32.13L.6,31.95.46,31.775C.168,31.4-.11,30.968.044,30.614c.139-.318.695-.646,1.1-.886h0c.075-.044.146-.086.205-.123l.206-.129A14.945,14.945,0,0,1,3.7,28.384a20.023,20.023,0,0,1,2.242-.771c1.52-.431,3.113-.725,4.653-1.01.935-.173,1.9-.351,2.844-.559a.116.116,0,0,0,.1-.125.156.156,0,0,0-.136-.147c-.742-.074-1.5-.121-2.253-.14l1.246-.218.011,0h0c.606-.105,1.232-.214,1.845-.324-.067-.587-.124-1.186-.17-1.778a1.378,1.378,0,0,0,.914.344,2.276,2.276,0,0,0,1.026-.288,1.4,1.4,0,0,0,.686-.856,1.646,1.646,0,0,0-.047-1.1,1.516,1.516,0,0,0-.386-.551l-.048-.041-.5-2.289-1.108-5.085-.033-.146-.037-.155-.226-.889a10.618,10.618,0,0,1-.4-2.654,3.087,3.087,0,0,1,.228-1.182,1.715,1.715,0,0,1,.749-.83,1.237,1.237,0,0,1,.606-.148,4.3,4.3,0,0,1,1.782.616l.2.1.1.05.49.237c1,.489,1.977,1.014,2.713,1.416,2.227,1.216,4.4,2.465,6.467,3.713a.184.184,0,0,0,.1.027.235.235,0,0,0,.2-.124.174.174,0,0,0-.012-.187c-.089-.128-.181-.256-.28-.393l.049.036a.92.92,0,0,1,.453.712,1.152,1.152,0,0,1-.591.834,49.232,49.232,0,0,0-6.7,6,50.665,50.665,0,0,0-8.258,11.242A27.521,27.521,0,0,0,7.674,38.715ZM44.948,17.4a5.721,5.721,0,0,1-1.9-.358,18.361,18.361,0,0,1-1.813-.788,11.52,11.52,0,0,0-2.883-1.076l-.156-.026a8.684,8.684,0,0,1-1.366-.427,3.4,3.4,0,0,1-1.55-1.058.825.825,0,0,1-.108-.679l.015-.048a1.083,1.083,0,0,0-.28-1.06,1.71,1.71,0,0,0-.42-.3,30.761,30.761,0,0,1,1.9-2.986,26.11,26.11,0,0,1,2.235-2.7,23.193,23.193,0,0,1,2.605-2.356,22,22,0,0,1,3.008-1.955l.589-.312.322-.168A9.026,9.026,0,0,1,48.265,0c.03,0,.059,0,.086,0A.513.513,0,0,1,48.8.212a1.436,1.436,0,0,1,.185.5l.035.158.08.35a22.3,22.3,0,0,1,.37,2.364A32,32,0,0,1,49.6,9.137c-.052.8-.14,1.691-.27,2.715-.052.411-.133.827-.212,1.229a14.048,14.048,0,0,0-.255,1.649c-.1.126-.2.258-.291.386a9.052,9.052,0,0,1-.566.715,4.062,4.062,0,0,1-3,1.57Z" transform="translate(9.782 3.213)" fill="#c93305"/>
    <path id="_Ink-2" data-name="ðŸ– Ink" d="M51.65,107.536a17.522,17.522,0,0,1-3.851-.4,13.249,13.249,0,0,1-3.635-1.391,1.509,1.509,0,0,1-.787-1.758,1.885,1.885,0,0,1,.61-.954,1.679,1.679,0,0,1,1.088-.407,1.806,1.806,0,0,1,.8.192,12.055,12.055,0,0,0,2.873.969,14.926,14.926,0,0,0,2.978.286,27.183,27.183,0,0,0,6.811-1.02,51.5,51.5,0,0,0,6.085-1.955,37.988,37.988,0,0,0,5.733-2.818,28.1,28.1,0,0,0,4.45-3.342,25.426,25.426,0,0,0,3.693-4.218,20.974,20.974,0,0,0,2.55-4.935,17.685,17.685,0,0,0,1.022-5.492,18.8,18.8,0,0,0-.447-4.277c-.294-1.41-.7-2.829-1.1-4.2-.383-1.326-.778-2.7-1.066-4.048-.776-3.647-1.254-7.31-1.714-11.053l-.337-2.75a108.155,108.155,0,0,0-1.974-11.831,41.08,41.08,0,0,0-4.27-11.143,27.085,27.085,0,0,0-3.132-4.341A26.674,26.674,0,0,0,64.082,23a24.565,24.565,0,0,0-4.6-2.741,22.01,22.01,0,0,0-5.1-1.613.127.127,0,0,1-.087-.054,3.57,3.57,0,0,1-.934,1.65,12.369,12.369,0,0,1-1.387,1.278,7.812,7.812,0,0,1-1.87,1.156,5.442,5.442,0,0,1-2.137.457h-.1a7.775,7.775,0,0,1-4.11-1.442,24.837,24.837,0,0,1-3.413-2.841.25.25,0,0,1-.072-.282.337.337,0,0,1,.3-.2.312.312,0,0,1,.046,0,11.007,11.007,0,0,1,3.016,1.1,18.369,18.369,0,0,0,1.813.788,5.722,5.722,0,0,0,1.9.358H47.4a4.062,4.062,0,0,0,3-1.57,9.047,9.047,0,0,0,.565-.714h0c.094-.127.192-.259.29-.385a14.051,14.051,0,0,1,.254-1.648c.079-.4.16-.818.212-1.23.13-1.023.218-1.911.27-2.715A32,32,0,0,0,51.872,6.8a22.289,22.289,0,0,0-.37-2.364l-.08-.35-.014-.061c-.1-.437-.178-.814-.657-.814-.028,0-.057,0-.086,0a10.744,10.744,0,0,0-3.713,1.415l-.008,0-.144.076a21.983,21.983,0,0,0-3.065,1.96A23.125,23.125,0,0,0,41.083,9.04a26.035,26.035,0,0,0-2.271,2.728,30.729,30.729,0,0,0-1.924,3.022,1.715,1.715,0,0,1,.42.3,1.093,1.093,0,0,1,.285.492.977.977,0,0,1-.005.568c-.34.995-1.316,1.294-2.26,1.582a8.583,8.583,0,0,0-1.05.371,21.255,21.255,0,0,0-3.616,2.165,53.807,53.807,0,0,0-6.251,5.486c-2.744,2.739-5.509,5.823-8.7,9.7l-.588,1.316c-.561,1.259-1.15,2.606-1.635,4.007a58.654,58.654,0,0,0-1.918,6.814,44.655,44.655,0,0,0-.951,7.068,34.559,34.559,0,0,0,.066,3.634c.047.886.1,1.8.092,2.7a1.666,1.666,0,0,1,.167,1.153,6.162,6.162,0,0,1,1.7.776.138.138,0,0,1,.059.159.133.133,0,0,1-.128.1.155.155,0,0,1-.037,0,5.91,5.91,0,0,0-1.416-.171c-.2,0-.409.01-.614.03a1.913,1.913,0,0,1-1.448.7H9.021l-.237-.005a2.034,2.034,0,0,1-.513-.079,8.719,8.719,0,0,0-2.534,1.8,8.627,8.627,0,0,0-1.948,3.06,9.021,9.021,0,0,0-.535,3.6,7.037,7.037,0,0,0,3.62,5.9,6.785,6.785,0,0,0,1.53.607,6.948,6.948,0,0,0,1.629.224h.094c.235,0,.481-.014.741-.029h.018c.245-.014.523-.03.793-.03a2.673,2.673,0,0,1,1.687.449.638.638,0,0,1,.2.3c.067-.284.132-.537.2-.772a.226.226,0,0,1,.222-.156.188.188,0,0,1,.2.156l.051.285c.11.621.21,1.254.308,1.865a37.383,37.383,0,0,0,1.079,5.19,14.308,14.308,0,0,0,.987,2.425,11.253,11.253,0,0,0,1.526,2.23A26.661,26.661,0,0,0,22.818,94.9l.279.195a6.724,6.724,0,0,0,2.353,1.161c.277.058.54.095.794.13a4.449,4.449,0,0,1,1.822.54,1.137,1.137,0,0,1,.513,1.264,2.551,2.551,0,0,1-1.036,1.432,2.894,2.894,0,0,1-1.579.408,8.646,8.646,0,0,1-4.117-1.368,21.146,21.146,0,0,1-3.089-2.36,7.551,7.551,0,0,1-2.715.98,5.574,5.574,0,0,1-.824.062,5.089,5.089,0,0,1-1.577-.244,4.357,4.357,0,0,1-1.407-.758A3.573,3.573,0,0,1,11.083,94.7a4.362,4.362,0,0,1-.166-2.011,14.635,14.635,0,0,1,.472-2.064l.162-.555c.036-.124.071-.249.105-.37a6.7,6.7,0,0,1,.79-1.977.548.548,0,0,1,.455-.242.481.481,0,0,1,.478.364,8.684,8.684,0,0,1,.109,2.913q-.011.157-.022.312l-.016.243c-.01.159-.031.335-.053.52a5.769,5.769,0,0,0-.061,1.145,1.318,1.318,0,0,0,.424.945,1.619,1.619,0,0,0,1.081.412,3.479,3.479,0,0,0,1.571-.516c-.1-.127-.192-.237-.269-.336a14.416,14.416,0,0,1-2.792-6.079,17.818,17.818,0,0,1-.028-6.679,2.79,2.79,0,0,1-1.5.89,6.871,6.871,0,0,1-1.815.242c-.143,0-.281,0-.408-.014A10.041,10.041,0,0,1,5,80.365a9.5,9.5,0,0,1-1.927-1.6,9.781,9.781,0,0,1-1.425-2.008A10.637,10.637,0,0,1,.413,71.963a10.794,10.794,0,0,1,1.015-4.789,9.576,9.576,0,0,1,3.1-3.757,8.358,8.358,0,0,1,2.345-1.16,17.365,17.365,0,0,1-.359-5.128,5.119,5.119,0,0,1-.689.045,6.989,6.989,0,0,1-2.208-.384l-.136-.048a7.6,7.6,0,0,1-2.073-1.1A3.074,3.074,0,0,1,.158,53.759a2.293,2.293,0,0,1,.877-2.119,10.581,10.581,0,0,1,2.1-1.385h0l.348-.191a17.252,17.252,0,0,1,1.929-.947l.2-.079c.1-.038.2-.082.307-.128a2.774,2.774,0,0,1,1.042-.3.953.953,0,0,1,.481.122.105.105,0,0,1,.046.112c-.085.6-.846,1.144-1.457,1.581-.218.155-.423.3-.577.436-.455.395-.9.81-1.313,1.234a4.61,4.61,0,0,0-.341.424,2.993,2.993,0,0,1-.693.754,1.732,1.732,0,0,1,.283.212,1.748,1.748,0,0,0,.21.163,4.343,4.343,0,0,0,1.217.488,4.166,4.166,0,0,0,.985.1c.192,0,.388-.007.577-.015.12,0,.243-.009.365-.012a38.284,38.284,0,0,1,1.5-7.532,36.654,36.654,0,0,1,2.54-6.2,26.357,26.357,0,0,1,3.824-5.55,50.671,50.671,0,0,1,8.258-11.242,50.583,50.583,0,0,1,6.7-6,21.236,21.236,0,0,1,3.413-2.041l.4-.184.173-.08h0a7.949,7.949,0,0,1,2.08-.746,19.732,19.732,0,0,1,2.476-5.626A20.728,20.728,0,0,1,43.86,3.017,21.241,21.241,0,0,1,47.467.989l.354-.155A8.047,8.047,0,0,1,50.909,0a3.813,3.813,0,0,1,.806.084,3.257,3.257,0,0,1,1.841,1.137,5.125,5.125,0,0,1,.972,1.973,28.508,28.508,0,0,1,.76,5.182,36.414,36.414,0,0,1-.057,5.351,16.691,16.691,0,0,1-.9,4.664.152.152,0,0,1,.086-.04,18.049,18.049,0,0,1,1.858-.1,13.551,13.551,0,0,1,4.41.71,23.124,23.124,0,0,1,2.847,1.178A21.594,21.594,0,0,1,66.192,21.7a23.007,23.007,0,0,1,4.843,4.581,31.651,31.651,0,0,1,3.584,5.641,40.278,40.278,0,0,1,2.28,5.6,56.27,56.27,0,0,1,1.541,5.834c.835,3.945,1.346,8.028,1.84,11.977l0,.013c.094.747.19,1.52.287,2.278l.034.264a93.9,93.9,0,0,0,2.683,13.773l.221.771A35.223,35.223,0,0,1,84.772,78.6a19.745,19.745,0,0,1-.323,6.276,22.475,22.475,0,0,1-2.164,5.82,25.524,25.524,0,0,1-3.547,5,30.355,30.355,0,0,1-4.594,4.125,34.791,34.791,0,0,1-5.306,3.192A47.967,47.967,0,0,1,56.844,107,27.754,27.754,0,0,1,51.65,107.536ZM11.327,75.346a1.635,1.635,0,0,1-1.5-.882,2.391,2.391,0,0,1-.182-1.783,3.437,3.437,0,0,1,.987-1.525A3.691,3.691,0,0,1,11.6,70.5c-.457-.042-.935-.063-1.419-.063a19.259,19.259,0,0,0-2.5.172H7.658a.091.091,0,0,1-.09-.07.14.14,0,0,1,.047-.152,9.5,9.5,0,0,1,2.7-1.247,10.738,10.738,0,0,1,2.951-.406c.312,0,.628.013.941.039a12.158,12.158,0,0,1,3.344.774l.442.175a5.539,5.539,0,0,1,1.448.768,1.787,1.787,0,0,1,.709,1.39,1.1,1.1,0,0,1-.783,1.032,1.556,1.556,0,0,1-.513.088,3.234,3.234,0,0,1-1.674-.7c-.2-.132-.413-.269-.619-.38a12.533,12.533,0,0,0-2.8-1.048c-.09-.023-.181-.045-.269-.066l-.01,0a.63.63,0,0,1,.069.335,2.7,2.7,0,0,1-.143.625c-.015.046-.031.1-.047.152-.008.026-.019.092-.033.177a1.716,1.716,0,0,1-.113.471c.017.147.021.285.025.432,0,.025,0,.049,0,.074a2.435,2.435,0,0,1-.307,1.39,1.712,1.712,0,0,1-.69.656A1.969,1.969,0,0,1,11.327,75.346ZM8.745,41.434a3.413,3.413,0,0,1-.6-.061,8.826,8.826,0,0,1-1.83-.58,12.156,12.156,0,0,1-3-1.785L3.183,38.9a13.239,13.239,0,0,1-1.978-2.025,5.219,5.219,0,0,1-1.195-2.61A2.438,2.438,0,0,1,.6,32.413a8.073,8.073,0,0,1,3.289-2.145A19.834,19.834,0,0,1,7.73,29.252a30.2,30.2,0,0,1,5.059-.423c1.009,0,2.023.05,3.014.149a.156.156,0,0,1,.136.147.116.116,0,0,1-.1.126c-.943.208-1.909.386-2.843.558-1.541.284-3.134.579-4.654,1.01a17.124,17.124,0,0,0-4.386,1.863l-.167.1c-.067.043-.15.092-.246.148-.406.239-.962.567-1.1.886-.179.41.231.927.5,1.269.035.044.07.089.1.129a8.666,8.666,0,0,0,2.078,1.935A9.508,9.508,0,0,0,7.815,38.4c.2.056.407.1.607.144.257.056.523.113.778.2a1.906,1.906,0,0,1,.824.544c.076.074.155.15.247.232a.828.828,0,0,1,.264.711.966.966,0,0,1-.45.736l-.136.079A2.233,2.233,0,0,1,8.745,41.434ZM17.4,26.861a1.361,1.361,0,0,1-.817-.267,2.226,2.226,0,0,1-.586-.682,7.4,7.4,0,0,1-.687-1.888c-.319-1.283-.641-2.563-.944-3.765l-.523-2.073c-.052-.2-.107-.414-.155-.6a20.75,20.75,0,0,1-.835-4.592,7.082,7.082,0,0,1,.27-2.232A5.7,5.7,0,0,1,14.241,8.7a4.389,4.389,0,0,1,1.495-1.175,3.853,3.853,0,0,1,1.629-.348c1.932,0,3.972,1.263,5.533,2.363a30.821,30.821,0,0,1,3.824,3.169A26.891,26.891,0,0,1,29.933,16.5a.174.174,0,0,1,.012.187.235.235,0,0,1-.2.124.183.183,0,0,1-.1-.027c-2.061-1.245-4.236-2.495-6.467-3.713-.737-.4-1.712-.927-2.713-1.416l-.491-.237c-.1-.047-.194-.1-.3-.152a4.3,4.3,0,0,0-1.782-.616,1.237,1.237,0,0,0-.606.148,1.736,1.736,0,0,0-.789.928,3.474,3.474,0,0,0-.186,1.327,13.39,13.39,0,0,0,.513,2.853v0c.056.216.108.42.15.6l.033.146,1.108,5.085.5,2.289a1.5,1.5,0,0,1,.434.592,1.647,1.647,0,0,1,.047,1.1,1.4,1.4,0,0,1-.686.856A2.276,2.276,0,0,1,17.4,26.861Z" transform="translate(7.379 0)"/>
  </g>
  <g id="FACE" transform="translate(112.183 77.354)">
    <path id="_Ink-3" data-name="ðŸ– Ink" d="M22.824,40.539a8.045,8.045,0,0,1-3.052-.61,8.621,8.621,0,0,1-1.992-1.145,8.487,8.487,0,0,1-1.622-1.636,1.676,1.676,0,0,1-.338-1.3,1.871,1.871,0,0,1,.728-1.172,1.793,1.793,0,0,1,1.067-.372,1.548,1.548,0,0,1,.238.018,1.648,1.648,0,0,1,1.1.73l.065.09A5.7,5.7,0,0,0,21.108,36.9a4.735,4.735,0,0,0,2.069.483,4.583,4.583,0,0,0,.513-.029,5.388,5.388,0,0,0,2.278-.8,10.668,10.668,0,0,0,1.93-1.611c.138-.141.284-.294.474-.5a.751.751,0,0,1,.394-.3.806.806,0,0,1,.256-.041.871.871,0,0,1,.714.373.8.8,0,0,1,.135.524,4.812,4.812,0,0,1-.57,1.864,6.221,6.221,0,0,1-1.22,1.567,7.841,7.841,0,0,1-1.847,1.288,7.69,7.69,0,0,1-2.05.7A7.548,7.548,0,0,1,22.824,40.539Zm2.148-12.17h0a7.373,7.373,0,0,1-2.63-.53,13.281,13.281,0,0,1-3.093-1.756,1.189,1.189,0,0,1-.432-.687,1.423,1.423,0,0,1,.061-.771,1.754,1.754,0,0,1,.521-.753,1.267,1.267,0,0,1,.812-.317,1.151,1.151,0,0,1,.628.193l.209.161,0,0a16.744,16.744,0,0,0,1.936,1.347,4.768,4.768,0,0,0,2.321.74,2.505,2.505,0,0,0,.981-.193,2.74,2.74,0,0,0,.913-.647,2.8,2.8,0,0,0,.531-2.255,4.26,4.26,0,0,0-1.13-2,8.241,8.241,0,0,0-1.711-1.381.531.531,0,0,1-.144-.61.8.8,0,0,1,.264-.38.809.809,0,0,1,.505-.167,1.076,1.076,0,0,1,.181.016,5.736,5.736,0,0,1,2.018.729,4.577,4.577,0,0,1,1.357,1.252,4.974,4.974,0,0,1,.866,3.322,5.475,5.475,0,0,1-.444,1.744,5.087,5.087,0,0,1-1,1.5A4.779,4.779,0,0,1,24.972,28.369ZM7.859,16.485a1.724,1.724,0,0,1-1.119-.439,1.744,1.744,0,0,1-.587-1.128,12.706,12.706,0,0,1,.067-3.308c.04-.321.081-.654.11-1.012a1.98,1.98,0,0,1,.75-1.415,2.31,2.31,0,0,1,1.421-.5,1.751,1.751,0,0,1,1.075.338,1.594,1.594,0,0,1,.594,1.057,8.877,8.877,0,0,1-.926,5.469,1.754,1.754,0,0,1-.619.716A1.427,1.427,0,0,1,7.859,16.485Zm25.119-.75a1.508,1.508,0,0,1-1.183-.507A4.624,4.624,0,0,1,31.074,14a5.342,5.342,0,0,1-.368-1.477,3.131,3.131,0,0,1,.853-2.687,1.772,1.772,0,0,1,.137-.208,1.933,1.933,0,0,1,1.487-.856,1.611,1.611,0,0,1,.452.067,2.175,2.175,0,0,1,1.453,1.268,4.486,4.486,0,0,1,.18,2.453,8.214,8.214,0,0,1-.744,2.314,1.5,1.5,0,0,1-.643.635A1.947,1.947,0,0,1,32.979,15.735ZM.278,7.854a.274.274,0,0,1-.229-.14.306.306,0,0,1-.018-.3A10.425,10.425,0,0,1,2.368,4.454,14.446,14.446,0,0,1,5.5,2.317a13.445,13.445,0,0,1,3.714-1.3l.4-.069A9.66,9.66,0,0,1,11.226.776a2.5,2.5,0,0,1,2,.746,1.7,1.7,0,0,1,.4,1.208,1.106,1.106,0,0,1-.4.789,3.08,3.08,0,0,1-2.112.62c-.166,0-.338,0-.5-.008H10.6c-.16,0-.341-.009-.521-.009s-.314,0-.452.012a14.274,14.274,0,0,0-3.143.536A21.357,21.357,0,0,0,.424,7.806.26.26,0,0,1,.278,7.854Zm38.247-1.6h0l-.167-.042A9.458,9.458,0,0,1,36.524,5.5l-.6-.293A16.537,16.537,0,0,0,33.8,4.3a25.089,25.089,0,0,0-4.845-1.07,1.979,1.979,0,0,1-.972-.369,1.457,1.457,0,0,1-.544-.828A1.482,1.482,0,0,1,27.609.786a1.581,1.581,0,0,1,.767-.661A1.725,1.725,0,0,1,29.03,0a1.926,1.926,0,0,1,.377.038l.3.062a21.676,21.676,0,0,1,5.232,1.7,10.579,10.579,0,0,1,2.3,1.514,6.719,6.719,0,0,1,1.627,2.1c.057.439,0,.548-.055.622L38.8,6.06l-.015.02a.421.421,0,0,1-.26.173Z" transform="translate(11.197 10.99)"/>
  </g>
  <g id="FACIAL_HAIR" data-name="FACIAL HAIR" transform="translate(104.577 109.479)">
    <path id="_Ink-4" data-name="ðŸ– Ink" d="M40.224,2.478c-.282-.842-1.731-.768-1.642.222a2.907,2.907,0,0,1-1.369,2.943,2.46,2.46,0,0,1-3.1-.929,16.846,16.846,0,0,0-1.774-2.539,6.582,6.582,0,0,0-2.5-1.551A5.129,5.129,0,0,0,27.616.392a5.409,5.409,0,0,0-5.09,1.954c-.074.092-.142.186-.208.282-.113-.154-.231-.306-.357-.457a1,1,0,0,0-1.086-.365,6.618,6.618,0,0,0-7.294-.353C11.705,2.563,10.153,4.2,7.846,4.325c-1.828.1-3.818-.942-3.947-2.952C3.831.324,2.4-.55,1.6.421A7.207,7.207,0,0,0,.51,7.646a9.749,9.749,0,0,0,5.528,5.521,21.559,21.559,0,0,0,8.92,1.479A9.245,9.245,0,0,0,22.384,11a8.007,8.007,0,0,0,.564-.879,9.175,9.175,0,0,0,7.205,3.2c2.89.069,6.307-.438,8.35-2.684a8.377,8.377,0,0,0,1.721-8.154" transform="translate(21.972 4.438)"/>
  </g>
</svg>
