<svg id="peep-59" xmlns="http://www.w3.org/2000/svg" width="240" height="324" viewBox="0 0 240 324">
  <g id="BODY" transform="translate(31.056 135.053)">
    <rect id="_Cup" data-name="â˜•ï¸ Cup" width="48.38" height="59.601" transform="translate(97.394 58.967)" fill="#fdea6b"/>
    <path id="_Skin" data-name="âœ‹ Skin" d="M29.188,151.522h0a1.6,1.6,0,0,1-1.255-.55,2.083,2.083,0,0,1-.422-1.656c.214-1.421.422-2.867.624-4.265v-.008c.111-.771.226-1.568.34-2.352a52.642,52.642,0,0,1-13.393,1.842,41.451,41.451,0,0,1-5.709-.388,36.947,36.947,0,0,1-5.616-1.23c-.088-.09-.121-.163-.1-.218.04-.1.242-.14.636-.14.147,0,.3.006.459.012h.037c.135.006.263.011.367.011a.852.852,0,0,0,.21-.017A11.035,11.035,0,0,1,1.754,138.5a13.468,13.468,0,0,1-.982-2.469,18.179,18.179,0,0,1-.552-2.67,31.564,31.564,0,0,1-.169-5.67c.092-1.918.291-3.817.484-5.653v0c.107-1.015.207-1.974.286-2.9.676-4.361,1.292-8.891,1.888-13.272v0C4.232,94.673,5.8,83.1,8.628,72.092c.73-2.845,1.528-5.59,2.374-8.16.906-2.754,1.9-5.418,2.963-7.918,1.122-2.648,2.356-5.209,3.667-7.612a76.159,76.159,0,0,1,4.487-7.241A52.2,52.2,0,0,1,27.808,34.7a47.7,47.7,0,0,1,6.723-5.4,41.648,41.648,0,0,1,7.6-3.986,36.627,36.627,0,0,1,8.317-2.223l.319-.044c.551-.074,1.124-.14,1.679-.2,2.906-.338,5.911-.688,8.368-2.218a18.56,18.56,0,0,0,3.213-3.657,18.283,18.283,0,0,1,2.249-2.705,5.028,5.028,0,0,1,1.262-.865,3.532,3.532,0,0,1,1.468-.336h.018a2.8,2.8,0,0,1,1.3.427c.474.26.981.61,1.518.98.5.346,1.02.7,1.553,1.017a11.893,11.893,0,0,1,.885-3.456A11.956,11.956,0,0,0,74.95,9.8l.021-.144c.051-.374.08-.745.107-1.1a5.427,5.427,0,0,1,2.077-4.5,14.5,14.5,0,0,1,2.9-1.662,25.351,25.351,0,0,1,3.679-1.279A32.771,32.771,0,0,1,87.86.29,31.975,31.975,0,0,1,92.1,0a22.733,22.733,0,0,1,4.977.5,11.416,11.416,0,0,1,3.958,1.613,13.469,13.469,0,0,1,2.557,2.316,15.607,15.607,0,0,1,1.831,2.684,39.087,39.087,0,0,1,2.479,6.055c.539,1.553,1.1,3.159,1.792,4.713a4.236,4.236,0,0,1,1.819-.373,6.8,6.8,0,0,1,3.278.9,5.394,5.394,0,0,1,1.27.987,3.215,3.215,0,0,1,.742,1.219,7.765,7.765,0,0,1,.95,3.12h0a12,12,0,0,0,.558,2.333c1.608.256,3.168.581,4.636.965a40,40,0,0,1,4.149,1.325,34.235,34.235,0,0,1,3.693,1.665,30.773,30.773,0,0,1,3.268,1.985,29.306,29.306,0,0,1,2.874,2.286,29.654,29.654,0,0,1,2.512,2.567,31.8,31.8,0,0,1,2.18,2.828,35.851,35.851,0,0,1,1.88,3.07,45.66,45.66,0,0,1,2.985,6.786,71.165,71.165,0,0,1,2.16,7.516c1.161,4.965,1.975,10.224,2.841,16.593,1.157,6.526,2.75,13.163,4.291,19.583h0c1,4.164,2.033,8.47,2.942,12.718,1.019,4.765,1.767,8.945,2.288,12.778a100.418,100.418,0,0,1,.972,12.866c.016,2.2-.056,4.377-.214,6.474-.166,2.2-.432,4.39-.791,6.506A13.766,13.766,0,0,1,162.313,147a2.378,2.378,0,0,1,.321,1.279,2.677,2.677,0,0,1-.354,1.242,2.322,2.322,0,0,1-2.009,1.224h0l-.1,0c-.686-.06-1.382-.128-2.054-.193h0c-1.708-.166-3.473-.338-5.226-.4-3.557-.124-7.388-.184-11.71-.184-2.52,0-5.259.02-8.618.062l-.924.012c-13.709.171-27.642.412-41.117.645C70.415,151.03,49.631,151.389,29.188,151.522Zm74.826-76.564h0c-.468,2.02.287,3.664,1.086,5.4a18.621,18.621,0,0,1,1.122,2.855,9.433,9.433,0,0,1,.054,2.707c-.026.385-.051.749-.054,1.044a5.27,5.27,0,0,0,.631,1.794,4.022,4.022,0,0,1,.627,2.28,20.375,20.375,0,0,1-1.927,5,23.625,23.625,0,0,0-1.742,4.234,7.471,7.471,0,0,0-.262,2.1,5.594,5.594,0,0,0,.465,2.1c1.268,2.495,5.087,3.773,7.615,4.619l.013,0a11.147,11.147,0,0,0,2.218.581,15.683,15.683,0,0,0,2.48.189,20.216,20.216,0,0,0,7.38-1.433,14.924,14.924,0,0,0,3.14-1.7,9.091,9.091,0,0,0,2.264-2.264,41.671,41.671,0,0,0,3.077-6.956c.564-1.49,1.05-2.776,1.414-3.486l.215-3.01c.251-3.535.517-7.569.5-10.717-.022-3.5-.39-5.445-1.125-5.955a17.658,17.658,0,0,0-6.965-2.5,49.862,49.862,0,0,0-8.485-.643c-3.181,0-5.973.213-7.755.392a23.513,23.513,0,0,0-3.489.5c-.254.167-.469.293-.659.4a2.912,2.912,0,0,0-1.223,1.094c-.5.067-1.018.138-1.528.21-.339.111-.516.34-.472.613a.694.694,0,0,0,.28.431,1.006,1.006,0,0,0,.614.193,1.388,1.388,0,0,0,.492-.1Z" transform="translate(6.127 -3.382)" fill="#d08b5b"/>
    <path id="_Top" data-name="ðŸ‘• Top" d="M29.184,138.45a1.6,1.6,0,0,1-1.255-.55,2.083,2.083,0,0,1-.422-1.656c.215-1.425.423-2.87.624-4.267l0-.034c.11-.762.223-1.549.336-2.324a52.643,52.643,0,0,1-13.393,1.842,41.451,41.451,0,0,1-5.709-.388,36.948,36.948,0,0,1-5.616-1.23c-.088-.09-.121-.163-.1-.218.04-.1.242-.14.636-.14.147,0,.3.006.459.012h.037c.136.006.264.011.367.011a.852.852,0,0,0,.21-.017,11.036,11.036,0,0,1-3.611-4.062,13.468,13.468,0,0,1-.982-2.469,18.177,18.177,0,0,1-.552-2.67,31.564,31.564,0,0,1-.169-5.67c.092-1.918.291-3.817.484-5.653.107-1.016.207-1.975.287-2.906C1.5,101.7,2.114,97.172,2.71,92.791v0C4.232,81.6,5.8,70.032,8.628,59.02c.73-2.845,1.528-5.59,2.374-8.16.906-2.754,1.9-5.418,2.963-7.918,1.122-2.648,2.356-5.209,3.667-7.612a76.158,76.158,0,0,1,4.487-7.241,52.2,52.2,0,0,1,5.688-6.464,47.7,47.7,0,0,1,6.723-5.4,41.648,41.648,0,0,1,7.6-3.986,36.627,36.627,0,0,1,8.317-2.223l.319-.044.321-.042c.448-.057.911-.111,1.358-.163,2.906-.338,5.911-.688,8.368-2.218a18.561,18.561,0,0,0,3.213-3.657,19.317,19.317,0,0,1,2.147-2.611A5.378,5.378,0,0,1,67.365.408,3.58,3.58,0,0,1,68.734,0l2.1,1.288L83.013,7.311A9.574,9.574,0,0,1,85.67,8.4a1.635,1.635,0,0,1,.886,1.288V19.1c0,.627.559,1.664,1.662,3.085A63.881,63.881,0,0,0,93.2,27.66L97.3,23.576l-.092-.535a34.971,34.971,0,0,1-.584-4.623c0-.208.253-.567.751-1.067a27.535,27.535,0,0,1,2.253-1.944c1.994-1.582,5.026-3.776,9.013-6.522l3.505-3.3-.374-1.137a6.521,6.521,0,0,1,1.624.293,6.878,6.878,0,0,1,1.5.671,4.1,4.1,0,0,1,1.9,2.139,7.765,7.765,0,0,1,.95,3.12h0A12,12,0,0,0,118.306,13c1.608.256,3.168.581,4.636.965a40,40,0,0,1,4.149,1.325,34.235,34.235,0,0,1,3.693,1.665,30.772,30.772,0,0,1,3.268,1.985,29.306,29.306,0,0,1,2.874,2.286,29.654,29.654,0,0,1,2.512,2.567,31.8,31.8,0,0,1,2.18,2.828,35.851,35.851,0,0,1,1.88,3.07,45.66,45.66,0,0,1,2.985,6.786A71.165,71.165,0,0,1,148.643,44c1.161,4.965,1.975,10.224,2.841,16.593,1.157,6.526,2.75,13.163,4.291,19.583h0c1,4.164,2.033,8.47,2.942,12.718,1.019,4.765,1.767,8.945,2.288,12.778a100.418,100.418,0,0,1,.972,12.866c.016,2.2-.056,4.377-.214,6.474-.166,2.2-.432,4.39-.791,6.506a13.764,13.764,0,0,1,1.342,2.413,2.378,2.378,0,0,1,.321,1.279,2.677,2.677,0,0,1-.354,1.242,2.322,2.322,0,0,1-2.009,1.224h0l-.1,0c-.684-.06-1.378-.128-2.048-.193h-.006c-1.709-.166-3.475-.338-5.229-.4-3.558-.124-7.389-.184-11.711-.184-2.52,0-5.258.02-8.618.063l-.924.012c-13.7.171-27.637.412-41.111.645h0c-20.1.348-40.883.707-61.327.84ZM63.923,82.7,62.228,95l4.076,8.784,9.233-3.111L90.582,96.7l8.633-8.762,4.87-1.635a8.966,8.966,0,0,0-.532,2.556,5.67,5.67,0,0,0,.461,2.546c1.268,2.495,5.087,3.773,7.615,4.619l.013,0a11.149,11.149,0,0,0,2.218.581,15.683,15.683,0,0,0,2.48.189,20.217,20.217,0,0,0,7.38-1.433,14.926,14.926,0,0,0,3.14-1.7,9.09,9.09,0,0,0,2.264-2.264,41.671,41.671,0,0,0,3.077-6.956c.564-1.49,1.05-2.776,1.414-3.486l.279-3.911c.247-3.552.471-7.244.43-10.184-.045-3.267-.411-5.1-1.121-5.588a17.658,17.658,0,0,0-6.965-2.5,49.862,49.862,0,0,0-8.485-.643c-3.181,0-5.973.213-7.755.392a23.513,23.513,0,0,0-3.489.5c-.254.167-.469.293-.659.4a2.912,2.912,0,0,0-1.223,1.094l-.267.036,1.5-2.039-.532-.284c-1.889-1-3.47-1.764-4.7-2.265a8.329,8.329,0,0,0-2.709-.755,5.584,5.584,0,0,0-2.731,1.392A47.673,47.673,0,0,0,90.582,60.8l-.326.151a57.943,57.943,0,0,0-5.575,2.91,16.539,16.539,0,0,0-3.311,2.5l-.052.055c-1.461,1.569-4.4,5.8-8.72,12.567L66.3,82.7Zm42.185-12.937L103.833,65.4V61.943a1.544,1.544,0,0,0,.18-.057c-.468,2.02.287,3.664,1.086,5.4a21.061,21.061,0,0,1,1.008,2.47Z" transform="translate(6.127 9.691)" fill="#9ddadb"/>
    <path id="_Ink" data-name="ðŸ– Ink" d="M30.651,145.3a1.536,1.536,0,0,1-.71-.174l-.051-.028-.086-.049a1.722,1.722,0,0,1-.692-.805,1.427,1.427,0,0,1-.063-1.053,23.68,23.68,0,0,0,.752-2.7c.186-.786.378-1.6.639-2.375l-.443.2-.584.255a57.7,57.7,0,0,1-7.33,2.687,28.165,28.165,0,0,1-7.655,1.156,19.97,19.97,0,0,1-5.216-.674A13.679,13.679,0,0,1,4.941,139.8a9.935,9.935,0,0,1-3.13-3.455A14.015,14.015,0,0,1,.386,131.89,35.226,35.226,0,0,1,.024,127.2a73.417,73.417,0,0,1,.612-11.522,70,70,0,0,1,1.382-7.672A1.9,1.9,0,0,1,1.39,106.8a22.39,22.39,0,0,1,.349-5.955v-.005c.066-.446.134-.906.194-1.355.332-2.488.675-4.78,1.048-7.008.812-4.848,1.744-9.574,2.77-14.048.934-4.073,2.041-8.21,3.29-12.3,1.221-3.995,2.611-8.045,4.13-12.04l.264-.691c1.571-4.086,3.08-7.582,4.615-10.689a74.238,74.238,0,0,1,5.9-10.029,45.25,45.25,0,0,1,3.4-4.323,25.907,25.907,0,0,1,4.063-3.684,35.178,35.178,0,0,1,9.37-4.672,50.866,50.866,0,0,1,5.04-1.43c1.652-.379,3.386-.694,5.155-.935.524-.071,1.062-.14,1.581-.206A32.217,32.217,0,0,0,61.5,15.423a1.537,1.537,0,0,1-.1-1.214,1.88,1.88,0,0,1,.739-1,52.6,52.6,0,0,0,5.814-4.714c.271-.242.551-.492.829-.738a.61.61,0,0,1,.408-.162.621.621,0,0,1,.522.3.576.576,0,0,1,0,.585,23.867,23.867,0,0,1-2.433,3.853c-.6.749-1.249,1.453-1.856,2.1a35.735,35.735,0,0,1,4.288,4.726l.081.1c.411.511.821,1.033,1.218,1.538A55,55,0,0,0,75,25.5a17.09,17.09,0,0,0,3,2.442,16.713,16.713,0,0,0,3.47,1.68l.507.176a20.113,20.113,0,0,1,3.732,1.672,8.205,8.205,0,0,1,2.907,2.8.523.523,0,0,1,0,.538.58.58,0,0,1-.489.3.508.508,0,0,1-.27-.079A18.908,18.908,0,0,0,82.77,33.09c-.985-.269-2-.547-2.977-.914a19.173,19.173,0,0,1-3.655-1.846,21.624,21.624,0,0,1-3.207-2.552A55.112,55.112,0,0,1,68.4,22.644l-.007-.009c-.289-.356-.587-.724-.883-1.084a46.823,46.823,0,0,0-5.638-5.695,21.592,21.592,0,0,1-5.023,2.435c-1.695.59-3.45,1.038-5.4,1.523l-.4.1c-2.139.53-3.876,1.013-5.466,1.521a46.308,46.308,0,0,0-5.3,2.026A43.092,43.092,0,0,0,35.824,25.8a25.554,25.554,0,0,0-4.035,2.994,40.1,40.1,0,0,0-6.536,8.5A81.883,81.883,0,0,0,19.8,47.8c-1.395,3.192-2.748,6.707-4.258,11.062-1.334,3.849-2.582,7.8-3.708,11.757-1.117,3.92-2.144,7.939-3.053,11.944-.894,3.942-1.644,7.971-2.292,12.317-.294,1.967-.56,3.982-.793,5.987-.06.517-.11,1.047-.157,1.56v0a22.853,22.853,0,0,1-.8,4.822,1.786,1.786,0,0,1-.627.925,1.508,1.508,0,0,1-.9.291l-.078,0-.135,1.686c-.172,2.162-.345,4.465-.4,6.76-.1,4.114-.03,7.8.219,11.266l.038.512a20.7,20.7,0,0,0,.681,4.187A8.129,8.129,0,0,0,5.6,136.516a9.18,9.18,0,0,0,3.865,2.149,16.39,16.39,0,0,0,4.421.619l.272,0a24.058,24.058,0,0,0,4.7-.489,34.75,34.75,0,0,0,4.589-1.274,90.944,90.944,0,0,0,8.773-3.749l.732-.344c3-1.4,6.036-2.925,9.03-4.519,2.916-1.552,5.876-3.219,8.8-4.956s5.861-3.56,8.748-5.428c1.4-.907,2.819-1.846,4.21-2.791.278-.189.555-.386.823-.578h0c.5-.356,1.014-.724,1.543-1.037a1.305,1.305,0,0,1-.4-.679,1.026,1.026,0,0,1,.153-.783,8,8,0,0,1-1.512-1.793,11.282,11.282,0,0,1-1.046-2.178,15.765,15.765,0,0,1-.882-4.651,38.6,38.6,0,0,1,.415-6.114v-.011c.039-.32.079-.651.117-.977.143-1.223.32-2.431.49-3.554.03-.2.055-.391.083-.6.037-.282.076-.574.124-.861-3.136,1.724-6.38,3.388-9.644,4.947-3.22,1.538-6.553,3.019-9.907,4.4-3.318,1.368-6.728,2.627-10.425,3.85l-.714.235c-2.02.662-3.581,1.14-5.059,1.55-1.866.518-3.548.91-5.144,1.2l-.031,0a.209.209,0,0,1-.2-.164.139.139,0,0,1,.089-.164c2.231-.985,4.551-1.882,6.793-2.749,1.136-.439,2.31-.893,3.459-1.353l.561-.228a1.123,1.123,0,0,1-.2-.029c-1.416-.342-2.843-.821-4.222-1.284h0c-.566-.19-1.151-.386-1.724-.569s-1.178-.347-1.765-.507a19.455,19.455,0,0,1-3.806-1.319.119.119,0,0,1-.066-.136.155.155,0,0,1,.136-.123c.192-.013.393-.02.6-.02a21.01,21.01,0,0,1,3.982.528c.446.088.867.171,1.288.245l.7.123c1.08.191,2.336.419,3.563.724a1.506,1.506,0,0,1,.575-1.021c2.863-2.121,3.1-6.033,3.315-9.485v0c.043-.707.084-1.375.146-2.015l.273-2.82c.463-4.761.981-9.823,1.76-14.771a.188.188,0,0,1,.2-.164.241.241,0,0,1,.251.224c.027,4.161-.183,8.379-.386,12.458-.093,1.875-.19,3.813-.262,5.723l-.036.995-.005.157c-.125,3.692-.254,7.51-2.577,10.349a.956.956,0,0,1,.475-.132.726.726,0,0,1,.567.257,1.943,1.943,0,0,1,.511,1.259c2.05-.86,4.188-1.782,6.357-2.743,3.33-1.476,6.715-3.079,10.06-4.766,3.255-1.641,6.559-3.4,9.821-5.241a1.233,1.233,0,0,1,1.7.433l.05-.007.025,0,.049,0h.006a1.952,1.952,0,0,1,.952-.233,2.992,2.992,0,0,1,1.977.818c.019.018.036.038.051.056l.012.013a10.483,10.483,0,0,0,2.748-1.8,22.079,22.079,0,0,0,2.384-2.561c.67-.834,1.339-1.763,2.047-2.841.58-.883,1.148-1.806,1.7-2.7.833-1.355,1.694-2.755,2.628-4.066A23.542,23.542,0,0,1,82.416,72.8a18.82,18.82,0,0,1,4.239-2.931,25.838,25.838,0,0,1,4.816-1.847.329.329,0,0,1,.09-.27.464.464,0,0,1,.319-.182.454.454,0,0,1,.195.053.079.079,0,0,1,.035.033l.325-.555c.236-.4.37-.618.422-.684.375-.472.766-.947,1.161-1.41a10.016,10.016,0,0,1,2.315-2.1,4.381,4.381,0,0,1,2.361-.653,11.854,11.854,0,0,1,3.565.778l.027.009c.783.256,1.577.521,2.345.778l.021.007,1.231.411.124.041.231.073a6.435,6.435,0,0,1,1.231.48,1.875,1.875,0,0,1,.987,2.075,40.439,40.439,0,0,1,9.953-1.185,51.993,51.993,0,0,1,8.269.686,60.271,60.271,0,0,1,7.981,1.867,1,1,0,0,1,.7.7,60.521,60.521,0,0,1,.988,7.377,48.144,48.144,0,0,1-.046,7.439,42.043,42.043,0,0,1-1.021,6.325,34.188,34.188,0,0,1-2.081,6.054l-.1.221a26.516,26.516,0,0,1-3.3,5.552,13.158,13.158,0,0,1-2.3,2.271,8.453,8.453,0,0,1-2.788,1.413,11.96,11.96,0,0,1-3.279.389c-.96,0-1.936-.069-2.88-.137-.5-.035-1.008-.072-1.5-.1-.546-.027-1.1-.05-1.645-.072h0a49.047,49.047,0,0,1-5.673-.45,9.041,9.041,0,0,1-2.98-1,7.553,7.553,0,0,1-2.366-2.048,14.75,14.75,0,0,1-2.237-5.13c-.26.083-.473.157-.67.235a7.372,7.372,0,0,0-2.433,1.642c-.682.66-1.3,1.4-1.906,2.109a23.77,23.77,0,0,1-2.344,2.514,17.993,17.993,0,0,1-4.8,2.995,31.417,31.417,0,0,1-4.566,1.53c-1.552.4-3.152.735-4.7,1.055l-.013,0c-.666.138-1.355.28-2.031.426l-.267.058c-1.2.264-2.78.631-4.3,1.128a20.227,20.227,0,0,0-4.05,1.778,1.731,1.731,0,0,1-.573,1.128,1.441,1.441,0,0,1,.438.779,1.294,1.294,0,0,1-.194.933,11.519,11.519,0,0,1-3.847,3.313h0c-.279.176-.567.359-.844.541l-.111.073c-1.664,1.1-3.367,2.2-5.06,3.261-3.316,2.077-6.772,4.095-10.567,6.168-2.946,1.61-5.882,3.149-8.726,4.574-3,1.5-5.991,2.926-8.9,4.233a19.785,19.785,0,0,1,.3,2.953,24.235,24.235,0,0,0,.2,2.42l.041.254a1.728,1.728,0,0,1-.5,1.645l-.048.044v-.006l-.043.039-.014.012,0,0a1.536,1.536,0,0,1-.162.131l-.07.045A1.423,1.423,0,0,1,30.651,145.3ZM64.99,92.332c0,.147,0,.3,0,.43,0,.216,0,.42.007.624.024.923.037,1.907.037,2.925,0,.737-.014,1.486-.028,2.211-.025,1.284-.05,2.611,0,3.915a17.458,17.458,0,0,0,.3,2.724,9.246,9.246,0,0,0,.895,2.58,6.947,6.947,0,0,0,1.1,1.521,10.38,10.38,0,0,0,1.384,1.194,22.49,22.49,0,0,1,3.944-1.878,38.018,38.018,0,0,1,4.219-1.261c1.128-.274,2.283-.523,3.4-.764h0a63.628,63.628,0,0,0,6.97-1.779,18.331,18.331,0,0,0,4.6-2.244,19.271,19.271,0,0,0,3.542-3.474l.012-.014.277-.323.184-.213a12.492,12.492,0,0,1,4.224-3.456,12.981,12.981,0,0,1,1.826-.587,7.965,7.965,0,0,0,2.857-1.173,2.553,2.553,0,0,0,.793-2.013l0-.045a3.932,3.932,0,0,1-.561.037,10.18,10.18,0,0,1-1.4-.131h0c-.181-.025-.367-.052-.548-.073l-.424-.05a17.216,17.216,0,0,1-2.293-.39.15.15,0,0,1,0-.287,19.074,19.074,0,0,1,2.605-.427l.111-.013.217-.027.32-.044h0a10.3,10.3,0,0,1,1.4-.13,3.675,3.675,0,0,1,.812.083,6.928,6.928,0,0,1,.657-1.629c.127-.228.285-.461.453-.708a4.38,4.38,0,0,0,.863-1.774,1.431,1.431,0,0,0-.153-.8l-.043-.079a.668.668,0,0,0-.2-.245.174.174,0,0,1-.077.039,1.238,1.238,0,0,1-1.473-.586,23.309,23.309,0,0,1-2.523.125c-.431.006-.839.011-1.231.029l-1.175.057c-.387.018-.9.038-1.405.038a11.056,11.056,0,0,1-2.343-.209.208.208,0,0,1-.15-.19.179.179,0,0,1,.1-.19,16.946,16.946,0,0,1,4.141-.964l.623-.093c.577-.089,1.167-.165,1.737-.238l.014,0c.282-.036.574-.074.86-.112.185-.025.379-.056.565-.086h0A11.681,11.681,0,0,1,106.261,82a3.475,3.475,0,0,0,.715-1.58,3.875,3.875,0,0,0-.076-1.682,3.776,3.776,0,0,0-.739-1.435,3.17,3.17,0,0,0-1.3-.941,2.307,2.307,0,0,1-.96.19,6.864,6.864,0,0,1-.821-.067h0c-.161-.019-.327-.04-.5-.054-.926-.079-1.693-.116-2.414-.116h-.088A20.715,20.715,0,0,0,98,76.47a20.433,20.433,0,0,1-2.142.154,7.77,7.77,0,0,1-.889-.047.442.442,0,0,1-.354-.3.28.28,0,0,1,.1-.309,6.254,6.254,0,0,1,2.221-1.1,16.864,16.864,0,0,1,2.477-.492l.334-.045.453-.062c.434-.06.925-.129,1.424-.174a1.07,1.07,0,0,1,.845-.584c.112-.015.225-.025.334-.034l.037,0,0-.012a.747.747,0,0,0,.622-.375,2.643,2.643,0,0,0,.069-2.04,2.323,2.323,0,0,0-1.51-1.259,6.923,6.923,0,0,0-2.156-.288c-.318,0-.647.012-1.035.038a30.852,30.852,0,0,0-5.582.892,24.433,24.433,0,0,0-5.28,1.989,16.338,16.338,0,0,0-4.34,3.362A30.554,30.554,0,0,0,80.3,80.165l-.1.147c-.326.508-.658,1.043-.979,1.56l0,0c-.829,1.336-1.686,2.718-2.657,3.982a14.848,14.848,0,0,1-3.352,3.3,15.767,15.767,0,0,1-5.341,2.491.98.98,0,0,1-.624.481l-.13.03a8.13,8.13,0,0,1-1.652.2A4.405,4.405,0,0,1,64.99,92.332ZM34.224,103.046a.83.83,0,0,1-.058.079l-.032.037.167-.068Zm79.75-36.011c-1.874,0-3.782.05-5.575.1a3.041,3.041,0,0,1-1.038,1.46,2.855,2.855,0,0,1-1.646.648,4.829,4.829,0,0,1,.758,2.316,5.1,5.1,0,0,1-.395,2.378,6.339,6.339,0,0,1,1.843,1.12,5.9,5.9,0,0,1,1.362,1.746,6.1,6.1,0,0,1,.529,1.455,5.953,5.953,0,0,1,.14,1.482,6.32,6.32,0,0,1-.785,2.829,3.827,3.827,0,0,1,.956,1.4,4.09,4.09,0,0,1,.3,1.7,6.532,6.532,0,0,1-1.217,3.04c-.074.121-.151.247-.224.369a6.644,6.644,0,0,0-.808,2.724c-.032.223-.064.452-.1.692a4.363,4.363,0,0,1-1.1,2.287,6.111,6.111,0,0,1-2.083,1.417l.086.339a17.168,17.168,0,0,0,.774,2.428,6.453,6.453,0,0,0,1.355,2.1c1.42,1.415,3.58,1.509,5.485,1.591l.456.02.1,0c1.512.076,3.049.163,4.535.248h.015l1.017.058,1.392.078c.437.024.951.049,1.457.049a9.093,9.093,0,0,0,2.336-.257,5.563,5.563,0,0,0,2.139-1.073,16.38,16.38,0,0,0,3.622-4.349,30.27,30.27,0,0,0,2.413-5.153,34.627,34.627,0,0,0,1.485-5.432,40.831,40.831,0,0,0,.65-5.589,49.515,49.515,0,0,0-.059-5.644c-.119-1.807-.335-3.69-.643-5.6a61.678,61.678,0,0,0-12.3-2.641A66.764,66.764,0,0,0,113.974,67.036Zm-14.192-.37a10.376,10.376,0,0,1,2.536.284,6.11,6.11,0,0,1,2.2,1.026l.007-.014.012-.02a5.561,5.561,0,0,1,.7-.82l.008-.009c.024-.023.048-.046.073-.073l.141-.15-.323-.112c-.492-.174-1.045-.383-1.375-.507l-.266-.1-.009,0-.45-.152h0c-.719-.243-1.463-.495-2.191-.753-.13-.046-.258-.094-.394-.145a5.288,5.288,0,0,0-1.807-.449,2.248,2.248,0,0,0-.359.028,4.268,4.268,0,0,0-1.7.749,16.628,16.628,0,0,0-1.55,1.254h0c-.271.237-.526.462-.779.667l.6-.116A26.551,26.551,0,0,1,99.782,66.665ZM140.058,145.1a.64.64,0,0,1-.4-.137.583.583,0,0,1-.216-.405l-.095-.915a15.51,15.51,0,0,0-.655-3.417,18.859,18.859,0,0,1-.833-4.042c-.244-2.164-.353-4.383-.444-6.47l-.064-1.494c-.2-4.668-.288-9.229-.256-13.558.035-4.647.207-9.206.511-13.551l.046-.644c.192-2.61.379-4.608.607-6.48.292-2.4.647-4.521,1.084-6.494a35.649,35.649,0,0,1,4.822-12.059.157.157,0,0,1,.134-.074.165.165,0,0,1,.129.062.154.154,0,0,1,.026.135c-1.1,4.492-2.209,9.319-2.922,14.181-.28,1.91-.5,3.866-.657,5.978-.144,1.882-.241,3.845-.3,6-.106,4.007-.053,8.085,0,12.029v.038c.009.666.018,1.354.026,2.031l.005.45c.047,4.161.118,9.085.282,14.053.019.571.043,1.154.066,1.717.072,1.775.147,3.611.083,5.408a16.057,16.057,0,0,1-.273,2.16c-.091.524-.185,1.066-.236,1.609a18.763,18.763,0,0,0,.012,2.779c.01.176.02.376.029.569a.513.513,0,0,1-.129.39A.523.523,0,0,1,140.058,145.1Zm23.328-.392a1.885,1.885,0,0,1-1.362-.556,1.353,1.353,0,0,1-.366-1.039,140.847,140.847,0,0,0,.351-15.6c-.234-5.151-.724-10.394-1.455-15.582-.455-3.224-1.085-6.472-1.694-9.613-.213-1.1-.433-2.229-.643-3.353l-.127-.682c-.633-3.428-1.295-6.911-1.935-10.278V88l-.138-.724-1.042-5.493c-1.423-7.5-3.1-16.2-4.952-24.628l-.107-.481a76.09,76.09,0,0,0-3.5-11.778,44.583,44.583,0,0,0-2.652-5.545,33.609,33.609,0,0,0-3.486-5.019,28.215,28.215,0,0,0-2.113-2.235c-.715-.678-1.489-1.343-2.3-1.975a39.783,39.783,0,0,0-5.048-3.316c-1.584-.888-3.366-1.773-5.448-2.707-1.909-.856-3.877-1.667-5.613-2.382a.273.273,0,0,1-.172-.31.232.232,0,0,1,.234-.2.323.323,0,0,1,.074.009l.6.144a64.124,64.124,0,0,1,12.869,4.172,27.725,27.725,0,0,1,5.7,3.645,30.066,30.066,0,0,1,4.688,4.88,41.4,41.4,0,0,1,6.059,11.486,95.6,95.6,0,0,1,3.342,12.615c.937,4.522,1.85,9.127,2.732,13.581.968,4.885,1.969,9.937,3.006,14.9l.368,1.766c1.1,5.3,1.913,9.39,2.631,13.258.9,4.831,1.62,9.193,2.212,13.336l.092.648a137.432,137.432,0,0,1,1.338,13.941c.093,2.432.09,4.789-.01,7.006a66.03,66.03,0,0,1-.671,6.953,1.3,1.3,0,0,1-.52.882A1.6,1.6,0,0,1,163.386,144.71Zm-63.653-7.757a1,1,0,0,1-.961-.687,11.644,11.644,0,0,1-.454-3.417c-.005-1.179.1-2.365.2-3.513v0c.029-.337.056-.655.081-.975l.153-1.969c.136-1.766.29-3.849.41-5.91.159-2.726.291-5.5.411-8.095.039-.834.081-1.694.13-2.63l.071-1.314c.008-.144.015-.293.022-.436a7.944,7.944,0,0,1,.49-2.886.359.359,0,0,1,.343-.2.424.424,0,0,1,.376.2,8,8,0,0,1,.677,3.076v.005c.009.109.019.223.029.332l.011.117c.157,1.664.255,2.944.317,4.151.134,2.633.2,5.286.19,7.887-.01,3.024-.078,5.669-.208,8.086l-.039.722a31.276,31.276,0,0,1-.366,3.61,11.035,11.035,0,0,1-1.1,3.389A.86.86,0,0,1,99.733,136.953ZM8.571,118.2a.111.111,0,0,1-.034-.005.991.991,0,0,1-.649-.512,1.67,1.67,0,0,1,.146-1.321,18.263,18.263,0,0,1,2.5-3.792l.016-.021.274-.35a34.892,34.892,0,0,1,3.228-3.592l.339-.328c.131-.128.265-.264.406-.407a12.851,12.851,0,0,1,1.547-1.4,3.112,3.112,0,0,1,1.81-.69c.046,0,.092,0,.137,0a.926.926,0,0,1,.878,1.154,4.078,4.078,0,0,1-1.877,2.243c-.234.173-.454.337-.662.509-1.044.868-2.013,1.782-3,2.721-.844.8-1.667,1.64-2.516,2.555l-.3.33c-.052.056-.161.164-.3.3l0,0c-.658.644-2.028,1.985-1.844,2.386l.012.022a.115.115,0,0,1,0,.121A.135.135,0,0,1,8.571,118.2Zm80.27-26.138A1.906,1.906,0,0,1,87.5,91.5a3.034,3.034,0,0,1-.777-1.36,5.628,5.628,0,0,1-.118-1.588,4.56,4.56,0,0,0-.206-1.823,5.234,5.234,0,0,0-.462-.816,5.484,5.484,0,0,1-.455-.8,5.253,5.253,0,0,1-.4-1.772,4.533,4.533,0,0,1,.276-1.5,2.8,2.8,0,0,0,.1-2.114.438.438,0,0,1,.019-.418.317.317,0,0,1,.277-.167h.008l.031,0a1.8,1.8,0,0,1,1.1.549,2.446,2.446,0,0,1,.6,1.106,10.106,10.106,0,0,1,.207,1.186,4.812,4.812,0,0,0,.7,2.254,6.556,6.556,0,0,1,1.358,3.454c.014.178.022.359.03.534v0a6.642,6.642,0,0,0,.124,1.185l.093.4a3.716,3.716,0,0,1,.131,1.284.946.946,0,0,1-.662.869A2.075,2.075,0,0,1,88.841,92.065ZM48.693,71.27a15.684,15.684,0,0,1-2.431-.17.2.2,0,0,1-.176-.2.274.274,0,0,1,.176-.282,27.952,27.952,0,0,1,4.9-.854c.375-.043.762-.087,1.141-.134,1.753-.218,4.058-.513,6.347-.871s4.347-.708,6.309-1.073c.942-.175,1.9-.361,2.839-.552.2-.041.4-.092.616-.146a6.125,6.125,0,0,1,1.465-.249,2.09,2.09,0,0,1,.777.137.786.786,0,0,1,.488.554.633.633,0,0,1-.186.589,3.6,3.6,0,0,1-2.138.81c-.148.023-.3.046-.45.072l-.081.015c-1.07.2-2.167.39-3.26.572-2.083.345-4.156.646-6.159.894-2.37.294-4.451.513-6.36.671l-.822.068C50.729,71.2,49.706,71.27,48.693,71.27Zm51.2-9.791a.741.741,0,0,1-.646-.371A17.166,17.166,0,0,1,97.586,56.6c-.206-.775-.418-1.576-.681-2.34-.342-1-.713-2-1.071-2.973h0c-.441-1.2-.9-2.431-1.3-3.662a27.629,27.629,0,0,1-1.1-4.437,17.088,17.088,0,0,1-.135-4.543l-.009-.016a.377.377,0,0,1-.02-.037l-.241-.528a11.482,11.482,0,0,0-2.492-3.821c-.3-.29-.619-.576-.924-.852a16.519,16.519,0,0,1-2.663-2.831,6.555,6.555,0,0,1-.876-1.827,7.688,7.688,0,0,1-.309-1.887,20.492,20.492,0,0,1,.328-3.884c.118-.8.24-1.622.3-2.43l.029-.419a3.04,3.04,0,0,0-.391-2.167,3.781,3.781,0,0,0-1.736-.741c-.258-.066-.5-.128-.7-.2a38.983,38.983,0,0,1-5.23-2.257,33.192,33.192,0,0,1-4.587-2.866l-.731-.55a12.873,12.873,0,0,1-3.12-3,.188.188,0,0,1,0-.194.193.193,0,0,1,.164-.109.158.158,0,0,1,.059.012,18.42,18.42,0,0,1,2.775,1.525l0,0c.293.184.6.374.9.554a1.47,1.47,0,0,1,.065-.134,15.315,15.315,0,0,0,1.583-4.246,15.937,15.937,0,0,0,.285-4.525,1.089,1.089,0,0,1,.263-.849,1.214,1.214,0,0,1,.9-.359A1.428,1.428,0,0,1,77.8.3a1.25,1.25,0,0,1,.465.905,17.869,17.869,0,0,1-2.212,10.041c-.008.015-.017.029-.026.042l-.014.021c1.233.642,2.259,1.136,3.23,1.555,1.507.651,2.909,1.182,4.286,1.625.372.12.76.217,1.171.32a7.428,7.428,0,0,1,2.872,1.152,3.767,3.767,0,0,1,1.161,1.6,6.083,6.083,0,0,1,.379,2,19.55,19.55,0,0,1-.449,4.157c-.028.151-.056.306-.083.457l-.07.395a6.585,6.585,0,0,0,.157,3.84A9.347,9.347,0,0,0,91.2,31.419l.011.01.251.225.211.191a13.954,13.954,0,0,1,2.661,3.011,18.232,18.232,0,0,1,2.051-3.106l0,0,.3-.4c.515-.68.314-1-.02-1.521-.078-.123-.167-.262-.254-.419a4.489,4.489,0,0,1-.476-1.226,3.6,3.6,0,0,1-.042-1.31,3.916,3.916,0,0,1,.376-1.166,5.075,5.075,0,0,1,.678-1.007,9.271,9.271,0,0,1,1.857-1.6,32.821,32.821,0,0,1,2.844-1.671c.691-.375,1.4-.763,2.085-1.181a67.316,67.316,0,0,0,9.478-6.964.1.1,0,0,1,.066-.025.111.111,0,0,1,.1.055.085.085,0,0,1-.007.09,36.957,36.957,0,0,1-8.325,9.106c-1.149.89-2.373,1.667-3.558,2.418l-.626.4-.409.263a3.831,3.831,0,0,0-1.543,1.5c-.2.483.081.882.351,1.268.084.121.171.245.243.37a3.9,3.9,0,0,1,.459,1.23,3.363,3.363,0,0,1,0,1.185,5.057,5.057,0,0,1-1.093,2.225l-.052.065a10.532,10.532,0,0,0-2.368,4.416,13.894,13.894,0,0,0,0,5.717,36.4,36.4,0,0,0,1.607,5.544l.05.14c.166.464.338.935.5,1.391l0,.006c.518,1.42,1.054,2.887,1.5,4.356l.164.537a8.7,8.7,0,0,1,.376,5.387A.806.806,0,0,1,99.894,61.478Zm6.756-25.607c-.166,0-.335-.006-.5-.019a6.766,6.766,0,0,1-2.839-.815,6.264,6.264,0,0,1-1-.8,3.446,3.446,0,0,0-2.031-1.179,1.323,1.323,0,0,0-.41.066.118.118,0,0,1-.036.006.151.151,0,0,1-.134-.1.116.116,0,0,1,.035-.134,1.7,1.7,0,0,1,1.1-.4,4.8,4.8,0,0,1,2.206.854,7.226,7.226,0,0,0,1.357.671,5.286,5.286,0,0,0,5.809-1.832,58.98,58.98,0,0,0,4.037-5.895,28.59,28.59,0,0,0,1.685-3.157,10.774,10.774,0,0,0,.6-1.92,13.936,13.936,0,0,1,.42-1.487,1.438,1.438,0,0,1,.594-.732,1.647,1.647,0,0,1,.864-.245,1.356,1.356,0,0,1,.99.393,1.252,1.252,0,0,1,.315.958,9.872,9.872,0,0,1-.988,3.315l-.129.3-.053.125a23.2,23.2,0,0,1-1.823,3.475,44.158,44.158,0,0,1-4.659,5.979,8.292,8.292,0,0,1-2.442,1.877A6.637,6.637,0,0,1,106.65,35.871ZM118.935,17.9a1.284,1.284,0,0,1-.886-.391,25.036,25.036,0,0,1-2.691-2.969,12.2,12.2,0,0,1-1.922-3.489.213.213,0,0,1,.034-.195.257.257,0,0,1,.2-.107.2.2,0,0,1,.113.034,17.424,17.424,0,0,1,1.891,1.5h0c.284.248.578.5.872.744,1.021.835,2.055,1.656,3.073,2.442a1.454,1.454,0,0,1,.533.739,1.269,1.269,0,0,1-.021.771A1.318,1.318,0,0,1,118.935,17.9ZM111.813,13.8a1.305,1.305,0,0,1-.821-.3A8.731,8.731,0,0,1,108.141,9.3a9.238,9.238,0,0,1-.431-2.516,9.07,9.07,0,0,1,.284-2.56,1.13,1.13,0,0,1,1.138-.894,1.411,1.411,0,0,1,1.084.505,1.153,1.153,0,0,1,.214,1.011l-.011.047a6.429,6.429,0,0,0,.143,3.715,6.832,6.832,0,0,0,2.134,3.046l.074.06a1.116,1.116,0,0,1,.4.562.971.971,0,0,1-.024.59A1.46,1.46,0,0,1,111.813,13.8Z" transform="translate(5.07 1.479)"/>
  </g>
  <g id="HEAD" transform="translate(78.592 38.043)">
    <path id="_Skin-2" data-name="âœ‹ Skin" d="M80.971,37.211c-.783-6.26-3.241-12.907-5.826-18.744C69.332,6.128,56.023,4.429,44.093,1.885,32.32.166,19.853-1.385,8.257,2.043,1.738,3.644-.808,11.427.221,17.569c.587,3.827,2.325,7.45,3.807,11a61.7,61.7,0,0,1,4.817,22.97c-.2,5.154-.928,11.037,4.98,13.22,5.622,2.8,6.1,10.4,13.137,14.711,2.847,5.78,10.6,6.289,16.181,7.63,3.527.677,7.094,1.175,10.671,1.5,10.357,1.33,18.642-1.678,24.064-10.927,3.628-5.629,6.33-12.128,5.662-18.95C82.875,51.532,81.768,44.386,80.971,37.211Z" transform="translate(5.06 16.063)" fill="#d08b5b"/>
    <path id="_Ink-2" data-name="ðŸ– Ink" d="M62.006,104.21a28.118,28.118,0,0,1-6.681-.785,22.637,22.637,0,0,1-6.147-2.461,1.35,1.35,0,0,1-.692-1.566,1.635,1.635,0,0,1,.541-.827,1.505,1.505,0,0,1,.962-.351,1.637,1.637,0,0,1,.695.161,36.156,36.156,0,0,0,4.937,1.918,23.785,23.785,0,0,0,5.2.971c.627.044,1.261.067,1.886.067a25.819,25.819,0,0,0,8.459-1.409,23.514,23.514,0,0,0,3.958-1.8A25.038,25.038,0,0,0,78.7,95.647a26.271,26.271,0,0,0,5.66-6.578,24.82,24.82,0,0,0,3.127-7.911,28.878,28.878,0,0,0,.536-5.312c.025-1.539-.034-3.188-.193-5.346l-.018-.242c-.611-8.081-1.342-14.581-2.3-20.454-.479-2.94-1.1-5.925-1.842-8.873-.726-2.878-1.59-5.8-2.569-8.685A10.451,10.451,0,0,0,78.577,30.6c-2.551-.107-5.13-.161-7.666-.161-4.121,0-8.272.143-12.34.425A166.877,166.877,0,0,0,41.631,32.9l-.6.106c-.277.049-.565.095-.845.139a12.451,12.451,0,0,0-2.946.711,2.463,2.463,0,0,0-1.113.919,4.253,4.253,0,0,0-.55,1.359,39.44,39.44,0,0,0-.831,7.791l-.01.247c-.046,1.125-.026,2.274-.007,3.384.025,1.438.05,2.924-.066,4.376a12.553,12.553,0,0,1-.627,3.181,7.879,7.879,0,0,1-.681,1.456,6.493,6.493,0,0,1-1.009,1.279A9.321,9.321,0,0,1,30.413,59.2c-.293.169-.595.344-.887.532a1.858,1.858,0,0,0-.666.648,1.484,1.484,0,0,0-.139.9,9.036,9.036,0,0,0,.327,1.442c.362,1.281.735,2.606-.315,3.6a.726.726,0,0,1-.5.194.615.615,0,0,1-.46-.194,9.542,9.542,0,0,0-1.573-1.276c-.193-.135-.391-.274-.578-.413a.292.292,0,0,1-.12-.331.282.282,0,0,1,.268-.2.345.345,0,0,1,.141.032c.213.1.433.2.646.3.236.114.479.232.723.34a6.194,6.194,0,0,0-1.784-.983,12.761,12.761,0,0,0-1.926-.531,6.647,6.647,0,0,0-1.3-.128c-.2,0-.4.009-.6.027-.495.237-1,.456-1.438.64-.556.234-1.163.468-1.857.715a7.73,7.73,0,0,0-2.355,3.338,8.229,8.229,0,0,0-.392,4.121,7.734,7.734,0,0,0,.742,2.317,4.838,4.838,0,0,0,1.567,1.832,6.573,6.573,0,0,0,2.967.844,8.255,8.255,0,0,1,2.491.566,5.549,5.549,0,0,1,2,1.6,10.792,10.792,0,0,1,1.337,2.212l.307.649a26.784,26.784,0,0,0,2.318,4.146A20.706,20.706,0,0,0,33.2,90.2a19.575,19.575,0,0,0,2.216,1.538l.211.125a2.21,2.21,0,0,1,1.391,1.866.959.959,0,0,1-.47.822,1.68,1.68,0,0,1-.924.277,4.214,4.214,0,0,1-2.165-.953l0,0-.246-.166A24.282,24.282,0,0,1,30.2,91.341a23.319,23.319,0,0,1-4.514-5.717,17.913,17.913,0,0,1-.819-1.762,9.042,9.042,0,0,0-2.029-3.376,4.615,4.615,0,0,0-2.673-.85c-.173-.018-.351-.037-.524-.06a7.863,7.863,0,0,1-2.875-.843c-3.67-2.044-4.709-6.988-3.837-10.815a11.366,11.366,0,0,1,.609-1.877,1.811,1.811,0,0,1-.3.024,2.3,2.3,0,0,1-1.833-1,1.732,1.732,0,0,1-.217-1.64c.031-.078.065-.154.1-.228v0l.038-.083a4.7,4.7,0,0,1-1.948-2.671,4.257,4.257,0,0,1-.107-1.818A2.945,2.945,0,0,1,8.245,57.43a3.636,3.636,0,0,1-1.752-1.557,3,3,0,0,1-.38-1.427,2.951,2.951,0,0,1,.321-1.3c-.056-.1-.112-.209-.164-.317a5.438,5.438,0,0,1-1.8-1.866,4.446,4.446,0,0,1-.188-4.134c-.022-.072-.04-.133-.055-.186a4.913,4.913,0,0,1-2.64-3.066,4.033,4.033,0,0,1,0-2.056,4.868,4.868,0,0,1,.926-1.812A3.715,3.715,0,0,1,.948,35.525a5.214,5.214,0,0,1,1.075-2.132.508.508,0,0,0-.009-.051v-.006l-.118-.092C.059,31.792-.446,30.195.394,28.5a4.24,4.24,0,0,1,1.765-1.877l.036-.114a5.163,5.163,0,0,1-.335-3.637,4.125,4.125,0,0,1,.709-1.429,4.5,4.5,0,0,1,1.152-1.052,5.2,5.2,0,0,1,.044-1.539,4.017,4.017,0,0,1,.454-1.294,3.774,3.774,0,0,1,.841-1.028c.023-.112.053-.231.093-.364A6.523,6.523,0,0,1,6.3,14.031a1.782,1.782,0,0,1,1.419-.691,5.139,5.139,0,0,1,.958-3.4,4.3,4.3,0,0,1,1.679-1.4,3.215,3.215,0,0,1,1.334-.284,3.492,3.492,0,0,1,.374.02A3.446,3.446,0,0,1,13.1,7.007a3.312,3.312,0,0,1,1.538-.633,4.624,4.624,0,0,1,.645-.046,4.114,4.114,0,0,1,.6.044,7.205,7.205,0,0,1,.679-.275c.153-.054.3-.1.472-.156a4.945,4.945,0,0,1,2.055-1.513,3.833,3.833,0,0,1,1.4-.266,3.981,3.981,0,0,1,1.364.245l.272-.057a3.217,3.217,0,0,1,.843-.966,3.569,3.569,0,0,1,1.306-.606,3.281,3.281,0,0,1,.789-.1,4.132,4.132,0,0,1,2.545.958h0a.035.035,0,0,0,.013,0,3.243,3.243,0,0,1,.974-1.3,2.6,2.6,0,0,1,1.608-.505l.136,0a3.015,3.015,0,0,1,1.231.324,3.883,3.883,0,0,1,1.033.761c.34-.043.674-.08,1.014-.118a8.849,8.849,0,0,1,1.2-1.167,1.642,1.642,0,0,1,1.026-.389,1.373,1.373,0,0,1,1.164.672c.114.174.221.353.325.527l.006.01.487-.034a3.443,3.443,0,0,1,1.027-.946,2.985,2.985,0,0,1,1.4-.4l.114,0a2.6,2.6,0,0,1,2.1,1.118c.4-.01.832-.018,1.307-.025A7.989,7.989,0,0,1,45.565.629a1.3,1.3,0,0,1,.7-.191,1.439,1.439,0,0,1,1.023.413,11.276,11.276,0,0,1,.8.934A4.384,4.384,0,0,1,50.506.414,1.17,1.17,0,0,1,51.4,0a1.735,1.735,0,0,1,1.156.5A4.109,4.109,0,0,1,53.6.977,11.606,11.606,0,0,1,55.08.893c.239,0,.491.005.773.015a3.928,3.928,0,0,1,.573-.264A4.443,4.443,0,0,1,57.955.36a4.133,4.133,0,0,1,2.332.742A2.615,2.615,0,0,1,62.133.343c.054,0,.11,0,.165,0a2.3,2.3,0,0,1,.977.271,3.158,3.158,0,0,1,.759.588,2.757,2.757,0,0,1,.881-.819A2.8,2.8,0,0,1,66.142.014c.1-.007.2-.01.294-.01a5.31,5.31,0,0,1,3.239,1.232A3.049,3.049,0,0,1,71.985.154a3.728,3.728,0,0,1,.666-.059A3.873,3.873,0,0,1,73.774.26,4.9,4.9,0,0,1,75.9,1.582,4.442,4.442,0,0,1,78.957.162c.082,0,.166,0,.248.009a4.011,4.011,0,0,1,2.225.907,5.029,5.029,0,0,1,1.458,1.949,9.263,9.263,0,0,1,1.613.833,7.888,7.888,0,0,1,1.42,1.183c.03.031.06.064.089.1l0,0,.046.051a4.4,4.4,0,0,1,1.3.742,3.423,3.423,0,0,1,1.162,1.821A4.2,4.2,0,0,1,88.452,9.9c.051.207.1.431.15.706a3.8,3.8,0,0,1,2.791,1.926,4.575,4.575,0,0,1,.522,2.46,5.257,5.257,0,0,1-.228,1.259,4.986,4.986,0,0,1-.522,1.151,6.518,6.518,0,0,1-1.4,1.576,3.864,3.864,0,0,1,.265,2.187,4,4,0,0,1-.932,1.988,5.4,5.4,0,0,1-.866,1.055,3.232,3.232,0,0,1-.168,2.1,3.425,3.425,0,0,1-1.416,1.594l-.111.279c-.021.053-.04.1-.057.138s-.03.108-.045.16l0,.014a2.844,2.844,0,0,1-.531,1.483,11.54,11.54,0,0,1-.76.938,6.1,6.1,0,0,0-1.213,1.788l-.045.119A1.213,1.213,0,0,1,82.8,33.6a.878.878,0,0,1-.261-.039A48.548,48.548,0,0,1,84.5,38.212c.548,1.514,1.059,3.14,1.519,4.834a95.765,95.765,0,0,1,2.064,9.9c.494,3.086.908,6.329,1.265,9.915l.324,3.3c.272,2.808.538,5.8.54,8.828a31.9,31.9,0,0,1-1.457,9.7,28.125,28.125,0,0,1-11.4,15.06,27.267,27.267,0,0,1-4.132,2.222,26.494,26.494,0,0,1-4.481,1.473A29.882,29.882,0,0,1,62.006,104.21ZM19.589,30.386a.637.637,0,0,0-.621.431,2.363,2.363,0,0,0,.016,1.7,2.233,2.233,0,0,0,1.185,1.208.839.839,0,0,0,.333.073.6.6,0,0,0,.532-.3.691.691,0,0,0,.048-.541.513.513,0,0,0-.274-.326,1.045,1.045,0,0,1-.639-1.422l.018-.053a.527.527,0,0,0-.047-.5A.672.672,0,0,0,19.589,30.386ZM9.167,28h0a.628.628,0,0,0-.419.167,2.888,2.888,0,0,0-.694.879,1.859,1.859,0,0,0-.186,1.091A2.55,2.55,0,0,0,9.24,31.9a.614.614,0,0,0,.32.1.568.568,0,0,0,.377-.148.728.728,0,0,0,.219-.349.591.591,0,0,0-.276-.693L9.8,30.756a1.263,1.263,0,0,1-.684-.79c-.054-.392.295-.7.526-.905a.536.536,0,0,0,.168-.613A.712.712,0,0,0,9.167,28Zm3.684-9.728h0a.569.569,0,0,0-.332.117,2.383,2.383,0,0,0-1.149,1.783,2.6,2.6,0,0,0,.839,1.951.574.574,0,0,0,.42.2.685.685,0,0,0,.6-.422.6.6,0,0,0-.125-.669,1.337,1.337,0,0,1-.445-.986,1.027,1.027,0,0,1,.456-.725l.043-.032a.656.656,0,0,0,.242-.753.609.609,0,0,0-.548-.459ZM24.59,72.553a1.419,1.419,0,0,1-1.151-.58c-.175-.23-.341-.464-.5-.69h0a11.19,11.19,0,0,0-1.381-1.69,7.913,7.913,0,0,0-.776-.624,3.8,3.8,0,0,1-1.322-1.359.057.057,0,0,1,.021-.08,1.809,1.809,0,0,1,.909-.225,5.62,5.62,0,0,1,2.352.75,7.7,7.7,0,0,1,3.025,2.557,1.172,1.172,0,0,1,.1,1.232A1.471,1.471,0,0,1,24.59,72.553Z" transform="translate(-1.264 2.536)"/>
  </g>
  <g id="FACE" transform="translate(112.183 77.354)">
    <path id="_Ink-3" data-name="ðŸ– Ink" d="M22.735,43.075c-.14,0-.281-.005-.42-.016a6.09,6.09,0,0,1-3.072-1.088,5.748,5.748,0,0,1-2-2.558,6.59,6.59,0,0,1-.437-2.655,2.814,2.814,0,0,1,1.114-2.308.075.075,0,0,1,.04-.011.074.074,0,0,1,.056.023,4.565,4.565,0,0,1,.765,1.607,5.609,5.609,0,0,0,.615,1.425,4.347,4.347,0,0,0,1.1,1.133,3.121,3.121,0,0,0,1.464.564,2.576,2.576,0,0,0,.265.014,1.7,1.7,0,0,0,1.652-.935,1.165,1.165,0,0,0,.086-.865l-.058-.232a2.649,2.649,0,0,1,.168-2.226,2.16,2.16,0,0,1,.678-.7,1.72,1.72,0,0,1,.933-.31,1.219,1.219,0,0,1,.141.008,2.959,2.959,0,0,1,1.361.488,2.627,2.627,0,0,1,.835.966,4.37,4.37,0,0,1,.387,2.382,6.26,6.26,0,0,1-.711,2.4,5.51,5.51,0,0,1-2.09,2.123A5.755,5.755,0,0,1,22.735,43.075Zm2.238-15.551h0a7.373,7.373,0,0,1-2.63-.53,13.282,13.282,0,0,1-3.093-1.756,1.189,1.189,0,0,1-.432-.687,1.423,1.423,0,0,1,.061-.771,1.754,1.754,0,0,1,.521-.753,1.267,1.267,0,0,1,.811-.317,1.151,1.151,0,0,1,.628.193l.212.163a16.743,16.743,0,0,0,1.936,1.347,4.768,4.768,0,0,0,2.321.74,2.505,2.505,0,0,0,.981-.193,2.741,2.741,0,0,0,.913-.647,2.8,2.8,0,0,0,.531-2.255,4.26,4.26,0,0,0-1.13-2,8.241,8.241,0,0,0-1.711-1.381.531.531,0,0,1-.143-.61.8.8,0,0,1,.264-.38.809.809,0,0,1,.505-.167,1.075,1.075,0,0,1,.181.016,5.736,5.736,0,0,1,2.018.729,4.577,4.577,0,0,1,1.357,1.252,4.974,4.974,0,0,1,.866,3.322,5.475,5.475,0,0,1-.444,1.744,5.088,5.088,0,0,1-1,1.5A4.779,4.779,0,0,1,24.972,27.524ZM7.529,20.663h0l-.112,0a4.734,4.734,0,0,1-2.552-.844,5.145,5.145,0,0,1-1.739-2.053,5.605,5.605,0,0,1-.532-2.538,8.448,8.448,0,0,1,.486-2.559.13.13,0,0,1,.119-.088.107.107,0,0,1,.079.035A14.724,14.724,0,0,1,4.964,14.9l.525.826a5.147,5.147,0,0,0,.711.91,1.39,1.39,0,0,0,.957.458l.067,0,.113-.011.068,0c.129-.008.129-.008.25-.222l.019-.034a.9.9,0,0,0,.07-.333,1.588,1.588,0,0,1,.026-.2l.013-.052-.007-.028a3.534,3.534,0,0,1-.044-.462l0-.054c-.011-.227-.032-.463-.054-.713a4.6,4.6,0,0,1,.369-2.954,2.173,2.173,0,0,1,.808-.733,2.138,2.138,0,0,1,.986-.242,2.038,2.038,0,0,1,1.182.37,2.068,2.068,0,0,1,.777,1.1,3.58,3.58,0,0,1,.009,1.687,5.948,5.948,0,0,0-.1,1.05,7.622,7.622,0,0,1-.279,2.457,4.41,4.41,0,0,1-.583,1.189,4.21,4.21,0,0,1-.888.934A3.949,3.949,0,0,1,7.529,20.663Zm26.129-1.128c-.1,0-.2,0-.292-.011a4.1,4.1,0,0,1-1.888-.634,4.023,4.023,0,0,1-1.36-1.453,7,7,0,0,1-.71-2.113,3.217,3.217,0,0,1,.256-2.148.119.119,0,0,1,.1-.058.128.128,0,0,1,.085.033,3.476,3.476,0,0,1,.825,1.553,6.567,6.567,0,0,0,.349.9A2.73,2.73,0,0,0,33,17.3a1.947,1.947,0,0,0,.247.017.818.818,0,0,0,.689-.275,1.124,1.124,0,0,0,.079-.978,6.621,6.621,0,0,0-.532-1.276A4.886,4.886,0,0,1,32.866,13a1.487,1.487,0,0,1,.363-1.173,1.978,1.978,0,0,1,2.982.267,5.987,5.987,0,0,1,.693,2.5l.047.41a4.851,4.851,0,0,1-.24,2.636,3.221,3.221,0,0,1-1.248,1.4A3.47,3.47,0,0,1,33.658,19.535ZM.176,9.973a.108.108,0,0,1-.111-.078A3.081,3.081,0,0,1,.323,7.929a9.343,9.343,0,0,1,1.07-1.744A15.4,15.4,0,0,1,4.727,2.944a16.923,16.923,0,0,1,4.03-2.1L9.189.683A8.644,8.644,0,0,1,12.073,0a3,3,0,0,1,.986.153,2.214,2.214,0,0,1,.846.528,2.227,2.227,0,0,1,.354,2.742,2.129,2.129,0,0,1-1.112.936,6.248,6.248,0,0,1-1.428.3c-.12.016-.244.032-.366.05A15.385,15.385,0,0,0,7.624,5.742,24.157,24.157,0,0,0,3.861,7.785c-.332.215-.658.465-1,.73A6.4,6.4,0,0,1,.2,9.971Zm33.215-.017a28.451,28.451,0,0,1-3.976-.291A26.634,26.634,0,0,1,26,8.991l-.513-.149L25.352,8.8a5.706,5.706,0,0,1-2.534-1.189.4.4,0,0,1-.116-.369.488.488,0,0,1,.3-.343,5.691,5.691,0,0,1,2.014-.286c.305,0,.619.01.9.019h.008c.3.01.579.019.853.019.1,0,.194,0,.283,0,1.364-.039,2.8-.138,4.384-.3,1.032-.107,2.059-.31,3.052-.505.376-.074.765-.151,1.151-.222l.132-.023a4.665,4.665,0,0,1,.764-.072,2.1,2.1,0,0,1,1.624.668,2.047,2.047,0,0,1,.521.916,1.817,1.817,0,0,1-.051,1.047,2.648,2.648,0,0,1-.545.932,1.678,1.678,0,0,1-.927.54A20.5,20.5,0,0,1,33.391,9.956Z" transform="translate(11.197 11.836)"/>
  </g>
  <g id="FACIAL_HAIR" data-name="FACIAL HAIR" transform="translate(104.577 109.479)">
    <path id="_Ink-4" data-name="ðŸ– Ink" d="M42.882,39.311h0c-1.731,0-3.459-.168-4.983-.316a56.53,56.53,0,0,1-12.609-2.759c-1.912-.645-3.883-1.412-6.028-2.346l-.884-.381a41.118,41.118,0,0,1-4.946-2.389,19.077,19.077,0,0,1-3.591-3.108l0,0c-.193-.2-.393-.4-.587-.6a65.614,65.614,0,0,1-5.726-6.4,20.7,20.7,0,0,1-2.081-3.166A11.613,11.613,0,0,1,.276,14.262C-.36,10.112.228,5.78.8,1.59.841,1.26.887.919.932.584A.183.183,0,0,1,1.107.436a.107.107,0,0,1,.108.078c0-.069-.008-.141-.013-.235A.257.257,0,0,1,1.27.085.292.292,0,0,1,1.482,0a.287.287,0,0,1,.284.2,25.019,25.019,0,0,0,5.528,9.84,30.424,30.424,0,0,0,2.577,2.473c.849.728,1.767,1.447,2.805,2.2,1.929,1.393,3.988,2.682,5.98,3.928h0c.414.259.842.527,1.261.791a1.071,1.071,0,0,1,.523-.279,11.792,11.792,0,0,1,1.891-4.11,18.258,18.258,0,0,1,2.987-3.312A24.96,24.96,0,0,1,41.276,5.826a21.037,21.037,0,0,1,3.954.367,18.335,18.335,0,0,1,3.759,1.141,16.3,16.3,0,0,1,4.4,2.8A16.519,16.519,0,0,1,56.7,14.177a17.309,17.309,0,0,1,1.346,2.9c.163.458,1.435,5.586.633,8.524a21.942,21.942,0,0,1-1.59,4.1,25.27,25.27,0,0,1-2.334,3.749A14.366,14.366,0,0,1,48.571,38.4a12.672,12.672,0,0,1-2.772.717A19.841,19.841,0,0,1,42.882,39.311ZM40.424,11.432a23.743,23.743,0,0,0-5.81.655A15.123,15.123,0,0,0,28.773,15a13.989,13.989,0,0,0-2.261,2.321,12.933,12.933,0,0,0-1.639,2.795,7.46,7.46,0,0,0,.067,2.638,19.623,19.623,0,0,0,5.081,2.575,17.716,17.716,0,0,0,5.606.927,16.686,16.686,0,0,0,1.925-.111c.3-.37.6-.793.921-1.24A18.746,18.746,0,0,1,40.4,22.5a4.412,4.412,0,0,1,2.438-1.382,3.359,3.359,0,0,1,.481-.035,3.645,3.645,0,0,1,2,.649,12.955,12.955,0,0,1,1.723,1.431,11.361,11.361,0,0,0,1.979,1.59c.108.062.23.125.374.194a7.765,7.765,0,0,0,3.805-1.188,3.811,3.811,0,0,0,1.253-1.37A5.4,5.4,0,0,0,55,20.668c-.058-.233-.121-.472-.189-.709a18.318,18.318,0,0,0-.874-2.425,13.449,13.449,0,0,0-1.261-2.242,8.552,8.552,0,0,0-1.45-1.611,6.573,6.573,0,0,0-1.844-1.122,17.315,17.315,0,0,0-4.708-.887l-.375-.036C42.891,11.5,41.623,11.432,40.424,11.432Z" transform="translate(-0.001 0)"/>
  </g>
</svg>
