<svg id="peep-8" xmlns="http://www.w3.org/2000/svg" width="240" height="324" viewBox="0 0 240 324">
  <g id="BODY" transform="translate(31.056 135.053)">
    <path id="_Skin" data-name="âœ‹ Skin" d="M164.418,158.416c4.083-.2,2.441-7.342,2.148-9.966-3.233-9.583-2.473-20.039-3.744-30.084-.792-9.377-1.81-18.725-2.666-28.1C158.474,71.25,146.4,32.53,132.623,26.3c-1.736-7.618-8.9-14.73-17.974-14.73C108.464,4.248,101.018-.907,91.468.134,87.521.313,83.694,4.5,79.913,5.309,77.8,5.6,59.005,4.849,55.241,7.086c-2.622,1.347-4.989,3.835-4.218,7,1.23,3.839-2.592-.315-10.566,3.782C24.2,27.641,33.913,40.71,34.344,41.115,24.2,55.238,15.329,66.7,11.225,83.958,8.566,96.774,8.865,110,6.637,122.887A114.079,114.079,0,0,1,3.337,136c-1.415,5.677-2.1,19.825-2.884,19.952-1.421.353.821,3.272,2.327,3.275,41.752,6.928,84.161.287,126.137-.8C140.747,158.021,152.589,157.926,164.418,158.416Z" transform="translate(2.642 -7.186)" fill="#d08b5b"/>
    <path id="_Jacket" data-name="ðŸ§¥ Jacket" d="M79.965,13.623c0,4.445,15.429,20.963,20.754,19.873q5.325-1.09,16.09-14.213v-5.66l-1.55-6.161c8.78.31,15.668,7.272,17.364,14.719,13.64,6.165,25.61,44.176,27.479,63.391l.054.576c.856,9.37,1.874,18.718,2.666,28.1,1.271,10.045.511,20.5,3.744,30.084l.019.163c.337,2.744,1.834,9.61-2.167,9.8-11.829-.49-23.671-.395-35.5.017-41.976,1.085-84.385,7.726-126.137.8-1.506,0-3.748-2.922-2.327-3.275.78-.126,1.468-14.275,2.884-19.952l.269-.9a109.048,109.048,0,0,0,3.031-12.221c2.228-12.882,1.929-26.112,4.588-38.928,4.1-17.262,12.972-28.72,23.119-42.843-.431-.4-10.147-13.474,6.113-23.243,7.974-4.1,11.8.056,10.566-3.782-.771-3.168,1.6-5.657,4.218-7C59.005.727,77.8,1.479,79.913,1.187A11.321,11.321,0,0,0,82.874,0L82.7.573Q79.965,9.749,79.965,13.623Z" transform="translate(2.642 -3.064)" fill="#9fd8e5"/>
    <path id="_Ink" data-name="ðŸ– Ink" d="M103.5,159.912a.489.489,0,0,1-.5-.478c-.614-8.906-1.013-17.776-1.4-26.354v-.008c-.274-6.1-.449-12.351-.533-19.121l-.345,0h-.017l-.51,0c-4.566.02-9.286.04-13.928.04-3.974,0-7.508-.015-10.805-.046l0,0a.206.206,0,0,1,.034.052,12.3,12.3,0,0,1,.639,4.719,23.331,23.331,0,0,1-.649,5.134,26.97,26.97,0,0,1-1.469,4.409,33.061,33.061,0,0,1-2.153,4.143,45.475,45.475,0,0,1-5.7,7.376l-.137.146c-.146.155-.3.313-.446.465l-.007.007a11.134,11.134,0,0,0-2.284,2.963,15.628,15.628,0,0,0-.963,3.509c-.058.3-.118.613-.181.912l-.036.168-1.2,5.543c-.081.376-.15.784-.222,1.217-.265,1.585-.565,3.382-1.661,4.381a2.217,2.217,0,0,1-1.5.62,2.366,2.366,0,0,1-2.133-1.58,5.029,5.029,0,0,1,.144-3.147h0c.046-.179.094-.363.136-.541l2.216-9.321a16.33,16.33,0,0,1,1.548-4.415,13.641,13.641,0,0,1,3.177-3.438l.013-.011a40.384,40.384,0,0,0,3.264-3.147,38.533,38.533,0,0,0,2.881-3.5,33.786,33.786,0,0,0,4.343-7.938A28.611,28.611,0,0,0,74.4,118.32c.138-.677.209-1.377.279-2.054a19.563,19.563,0,0,1,.309-2.192.27.27,0,0,1,.195-.191.119.119,0,0,1,.012-.1.108.108,0,0,1,.086-.048l6.743-.434c5.758-.371,11.921-.778,17.977-1.237l1.058-.076c-.075-7.759-.029-16.108.141-25.522.053-2.929.087-5.907.12-8.786v-.012c.055-4.789.111-9.741.256-14.611.119-3.989.378-7.932.641-11.6.222-3.092.553-6.218.874-9.241.089-.838.181-1.705.27-2.569a.149.149,0,0,1,.3,0l.295,2.847c.326,3.161.7,6.836.954,10.44.313,4.371.522,8.771.621,13.076.364,15.791.423,31.829.45,45.624,2-.139,4.078-.277,6.169-.412,1.237-.08,2.568-.163,4.187-.262l3.559-.216,1.465-.09c.137-.009.28-.021.418-.033h0c.265-.023.538-.047.8-.047a1.873,1.873,0,0,1,1.585.647,1.036,1.036,0,0,1,.158,1.225c-.557.9-1.385.928-2.344.962h-.011l-.192.007-2.931.116c-1.853.072-4.048.154-6.281.217-2.211.062-4.428.112-6.591.149-.022,6.409-.285,12.761-.575,19.245l-.13,2.886c-.392,8.716-.758,16.032-1.266,23.409A.489.489,0,0,1,103.5,159.912Zm-63.211-.834a1.314,1.314,0,0,1-1.168-.658l.148.1a.238.238,0,0,0,.045.025c0-.007-.15-.123-.48-.366l-.356-.46a2.879,2.879,0,0,1-.49-1.232,7.164,7.164,0,0,1,.029-1.655c.018-.189.036-.385.048-.571l.816-12.6c.235-3.618.486-7.277.73-10.817.419-6.083.852-12.374,1.205-18.57.231-4.06.45-8.864.319-13.714-.074-2.757-.172-4.871-.317-6.857-.183-2.508-.439-4.737-.784-6.816a.427.427,0,0,1,.093-.352.409.409,0,0,1,.306-.147.381.381,0,0,1,.325.193,29.516,29.516,0,0,1,1.885,3.469,31.3,31.3,0,0,1,1.392,3.614A39.469,39.469,0,0,1,45.6,99.325a62.7,62.7,0,0,1,.343,7.049c-.006,2.545-.129,5.109-.236,7.059-.272,4.963-.588,9.926-.916,15l-.5,7.664-1.245,19.214a5.876,5.876,0,0,1-.382,1.907,2.629,2.629,0,0,1-1.2,1.356,2.827,2.827,0,0,1-.488.335A1.463,1.463,0,0,1,40.294,159.078Zm-37.067-.312a2.013,2.013,0,0,1-1.251-.436,2.349,2.349,0,0,1-.772-1.113,22.616,22.616,0,0,1-1-4.862,43.2,43.2,0,0,1-.2-4.978,57.566,57.566,0,0,1,1.054-9.891c.8-4.394,1.921-8.8,3-13.055v0l0-.007c.5-1.965,1.015-4,1.494-6,.663-2.781,1.228-5.612,1.676-8.414s.8-5.66,1.037-8.517c.123-1.463.236-2.951.346-4.39v-.012c.335-4.408.681-8.966,1.37-13.414a60.69,60.69,0,0,1,1.959-8.547,58.564,58.564,0,0,1,3.2-8.162,105.241,105.241,0,0,1,8.288-13.808c1.907-2.762,3.872-5.394,5.84-7.822,2.1-2.59,4.276-5.042,6.472-7.287a2.511,2.511,0,0,1-1.212-.39,3.67,3.67,0,0,1-1.326-1.526,6.251,6.251,0,0,1-.569-1.959,26.852,26.852,0,0,1-.2-4.664,22.284,22.284,0,0,1,.689-4.613A17.18,17.18,0,0,1,36.5,18.288a14.826,14.826,0,0,1,2.7-2.527A13.606,13.606,0,0,1,42.5,14a12.034,12.034,0,0,1,3.85-.646c.115,0,.237,0,.374,0,.2,0,.4,0,.6.006h0c.2,0,.4.006.61.006a7.147,7.147,0,0,0,2.2-.27,3.988,3.988,0,0,0,2.056-1.715A14.987,14.987,0,0,0,53.43,8.87l.143-.343.033-.078a15.751,15.751,0,0,1,1.6-2.994,9.339,9.339,0,0,1,2.4-2.384A18.515,18.515,0,0,1,64.88.546L65.04.52A36.876,36.876,0,0,1,71.054,0a23.567,23.567,0,0,1,11.1,2.5.047.047,0,0,1,.022.054.047.047,0,0,1-.045.038h0l-1.678-.067c-2.026-.079-3.725-.132-5.433-.132-1.928,0-3.633.071-5.215.216a36.456,36.456,0,0,0-5.18.833l-.535.129a22.884,22.884,0,0,0-2.816.838,9.072,9.072,0,0,0-2.539,1.425A7.121,7.121,0,0,0,57.07,7.923a22.779,22.779,0,0,0-1.122,2.458l-.065.16-.092.223a13.245,13.245,0,0,1-1.25,2.378,7.067,7.067,0,0,1-1.877,1.91,6.794,6.794,0,0,1-2.592,1.019,20.6,20.6,0,0,1-2.785.269h0c-.424.022-.863.044-1.29.078a9.4,9.4,0,0,0-2.863.7,10.549,10.549,0,0,0-2.5,1.488,12.138,12.138,0,0,0-2.055,2.1,13.045,13.045,0,0,0-1.522,2.522,18.172,18.172,0,0,0-1.5,6.942,21.932,21.932,0,0,0,.111,3.646,5.741,5.741,0,0,0,.305,1.012c.107.272.307.729.45.729h.009a1.255,1.255,0,0,1,.172-.012,1.077,1.077,0,0,1,1.018.644c1.353-1.307,2.726-2.556,4.082-3.711a78.518,78.518,0,0,1,11.228-8,73.23,73.23,0,0,1,9.526-4.851H62.42a1.573,1.573,0,0,0-.733.177.109.109,0,0,1-.154-.055.1.1,0,0,1,.023-.116,3.511,3.511,0,0,1,1.191-.84,3.353,3.353,0,0,1,1.3-.25,4.7,4.7,0,0,1,1.058.129c.289-.092.553-.173.806-.247a.128.128,0,0,1,.036-.005.11.11,0,0,1,.1.083.122.122,0,0,1-.049.139l-.309.2A16.766,16.766,0,0,1,69.456,20.9l.02.013a69.546,69.546,0,0,1,7.733,6.324l.011.01.748.673.5.445a58.321,58.321,0,0,0,7.606,5.961,26.873,26.873,0,0,0,4.51,2.358c.307.121.654.231,1.022.347,1.254.4,2.675.845,3.165,1.951a1.3,1.3,0,0,1,.3,1.019,1.483,1.483,0,0,1-.636,1,2.18,2.18,0,0,1-1.693.649,8.714,8.714,0,0,1-2.968-.725,31.481,31.481,0,0,1-4.62-2.219,48.9,48.9,0,0,1-7.966-6c-1.706-1.543-3.375-3.176-4.989-4.756-.817-.8-1.661-1.626-2.5-2.434-.524-.5-1.052-1.02-1.561-1.52-.543-.532-1.1-1.083-1.664-1.618l-.545-.516c-.083-.078-.171-.162-.264-.25A10.9,10.9,0,0,0,63.74,20.04c-.61.364-1.23.726-1.831,1.077-.971.567-1.974,1.152-2.945,1.753C57,24.085,54.893,25.5,52.535,27.185a98.425,98.425,0,0,0-11.429,9.608c-1.6,1.558-3.182,3.22-4.715,4.94-1.479,1.659-2.952,3.42-4.377,5.234a132.46,132.46,0,0,0-7.841,11.174l-.369.587c-1.617,2.585-2.872,4.727-3.949,6.742a60.684,60.684,0,0,0-3.268,7.089,52.468,52.468,0,0,0-2.343,8.221,79.7,79.7,0,0,0-1.22,8.468c-.245,2.6-.419,5.24-.586,7.8-.2,3.01-.4,6.123-.724,9.175-.286,2.7-.714,5.519-1.309,8.6-.486,2.52-1.083,5.22-1.878,8.5l-.327,1.34-.2.8-.012.049v0a125.357,125.357,0,0,0-2.949,14.452,60.1,60.1,0,0,0-.5,8.361,58.9,58.9,0,0,0,.643,6.812l0,.013c.066.492.134,1,.2,1.5a1.689,1.689,0,0,1-.521,1.392,2.426,2.426,0,0,1-1.325.7A2.12,2.12,0,0,1,3.227,158.766Zm166.227-2.833a2.407,2.407,0,0,1-1.572-.561,2.271,2.271,0,0,1-.769-1.678,115.13,115.13,0,0,0-1.2-11.868c-.58-3.925-1.308-7.9-2.012-11.736v0c-.565-3.081-1.149-6.267-1.655-9.419-.613-3.819-1.1-8.018-1.486-12.839-.345-4.3-.582-8.682-.811-12.921v0c-.293-5.418-.6-11.021-1.128-16.5-.287-2.949-.615-5.628-1-8.191-.437-2.876-.938-5.532-1.532-8.12a85.652,85.652,0,0,0-3.333-11.085,74.544,74.544,0,0,0-4.906-10.479c-.99-1.739-2.017-3.377-3.053-4.87a49.273,49.273,0,0,0-3.535-4.528,60.846,60.846,0,0,0-6.994-6.912,1.511,1.511,0,0,1-1.083.424,1.98,1.98,0,0,1-1.064-.319,1.778,1.778,0,0,1-.719-.894,5.983,5.983,0,0,1-.254-1.516,8.475,8.475,0,0,0-.14-1.113,13.055,13.055,0,0,0-.733-2.33,15.313,15.313,0,0,0-2.65-4.13,16.676,16.676,0,0,0-1.877-1.8,17.754,17.754,0,0,0-2.127-1.488,13.629,13.629,0,0,0-2.941-1.2c-.6-.189-1.212-.384-1.81-.632a.065.065,0,0,1-.042-.061.058.058,0,0,1,.042-.054,5.189,5.189,0,0,1,1.7-.26,13.568,13.568,0,0,1,3.833.725,12.907,12.907,0,0,1,2.681,1.2,16.556,16.556,0,0,1,2.391,1.714,15.391,15.391,0,0,1,2.124,2.224,15.206,15.206,0,0,1,1.637,2.6l.087.177a17.4,17.4,0,0,1,1.15,2.9,6.32,6.32,0,0,1,.211,3.03c-.012.054-.026.106-.041.154a39.406,39.406,0,0,1,4.887,2.846,33.6,33.6,0,0,1,4.388,3.584,48.308,48.308,0,0,1,4.419,4.945,54.883,54.883,0,0,1,3.743,5.478,61.377,61.377,0,0,1,3.062,5.8c.886,1.918,1.708,3.951,2.443,6.041.7,1.98,1.338,4.077,1.906,6.233.533,2.022,1.021,4.168,1.45,6.378.76,3.915,1.367,8.17,1.857,13.009.454,4.488.754,8.918,1.01,13.036l.267,4.37c.324,5.255.629,9.669,1.069,14.127.514,5.2,1.154,9.792,1.959,14.03l.129.672c.4,2.042.835,4.123,1.26,6.136v0c.8,3.807,1.634,7.743,2.221,11.644.316,2.1.539,4.021.679,5.869a56.755,56.755,0,0,1,.157,5.906,2.239,2.239,0,0,1-.739,1.68A2.356,2.356,0,0,1,169.454,155.933Zm-26.106-1.754a1.718,1.718,0,0,1-1.29-.563c-1.192-1.287-1.277-3.369-1.352-5.207v0c-.021-.519-.041-1.01-.084-1.469-.163-1.741-.35-3.5-.557-5.239l-.106-.872c-.04-.321-.079-.649-.117-.966a46.365,46.365,0,0,0-.781-4.99,8.4,8.4,0,0,0-2.412-4.256c-.363-.361-.736-.721-1.1-1.068l0,0c-.887-.855-1.8-1.74-2.63-2.7a37.437,37.437,0,0,1-3.348-4.566,30.784,30.784,0,0,1-2.174-4.349l-.1-.248c-.109-.259-.228-.529-.355-.815a10.414,10.414,0,0,1-1.209-4.126.09.09,0,0,1,.152-.063,6.167,6.167,0,0,1,1.05,1.442c.115.195.234.4.357.585.516.793,1.056,1.567,1.607,2.3,1.135,1.513,2.421,2.96,3.64,4.3a52.067,52.067,0,0,0,3.724,3.684c.49.439,1.009.868,1.511,1.284a27.166,27.166,0,0,1,2.75,2.5c2.492,2.721,3.03,6.381,3.551,9.921v.008c.035.24.072.488.108.731l.062.406c.332,2.155.644,4.407.928,6.7v0c.125,1,.266,2.143.379,3.264l.034.345a7.943,7.943,0,0,1,.022,1.592,3.314,3.314,0,0,1-.511,1.491,2.136,2.136,0,0,1-.765.7A2.063,2.063,0,0,1,143.349,154.179Zm12.926-.751a2.284,2.284,0,0,1-1.849-1.058c-.7-1-.751-2.582-.8-3.978-.017-.5-.033-.969-.076-1.39-.2-1.931-.374-3.5-.551-4.926-.4-3.244-.941-6.513-1.462-9.562-.614-3.584-1.39-7.2-2.14-10.7-.634-2.958-1.29-6.016-1.845-9.039A115.632,115.632,0,0,1,145.391,92.3c-.025-4.722.312-9.516.638-14.152h0c.153-2.181.312-4.435.431-6.657.347-6.475.76-13.379,1.264-21.109a.158.158,0,0,1,.163-.153.149.149,0,0,1,.154.153c.035,1.625.07,3.264.11,5.225.066,3.206.109,6.468.15,9.623v0c.07,5.326.141,10.834.33,16.247.212,6.071.551,11.374,1.039,16.214.313,3.109.761,6.324,1.369,9.827.509,2.931,1.141,6.115,1.932,9.734.352,1.611.717,3.241,1.07,4.817l0,.015c.374,1.669.76,3.394,1.131,5.093.13.6.264,1.2.393,1.79l.015.068c.568,2.574,1.156,5.236,1.607,7.869a97.209,97.209,0,0,1,1.259,9.669l.027.423c.018.3.049.62.081.961a17.511,17.511,0,0,1,.116,2.278,4.113,4.113,0,0,1-.513,2.034A2.241,2.241,0,0,1,156.275,153.427ZM102.811,36.435a5.762,5.762,0,0,1-2.507-.61,13.7,13.7,0,0,1-2.239-1.416l-.163-.123c-1.658-1.256-3.145-2.454-4.546-3.664a71.564,71.564,0,0,1-8.4-8.437,58.5,58.5,0,0,1-3.568-4.71,31.034,31.034,0,0,1-2.858-5.164.245.245,0,0,1,.02-.232.209.209,0,0,1,.172-.1.218.218,0,0,1,.15.066c.793.755,1.539,1.54,2.164,2.209.008-.459-.023-.928-.052-1.381a11.864,11.864,0,0,1-.019-1.971c.042-.407.068-.835.093-1.249a13.238,13.238,0,0,1,.4-2.923A2.5,2.5,0,0,1,83.825,4.94a2.384,2.384,0,0,1,.631.086,2.623,2.623,0,0,1,1.565,1.329,2.066,2.066,0,0,1,.14,1.676,14.446,14.446,0,0,1-1.514,2.739h0c-.208.319-.423.65-.625.98a13.2,13.2,0,0,1-1.233,1.619,13.9,13.9,0,0,0-1.167,1.514l.774.835c.343.369.75.8,1.169,1.238l1.351,1.4c1,1.037,2.084,2.144,3.2,3.22,1.912,1.845,3.416,3.242,4.875,4.527,1.809,1.594,3.5,2.966,5.163,4.194.742.547,1.606,1.179,2.484,1.761l.315.209a3.38,3.38,0,0,0,1.768.7c.053,0,.107,0,.16-.007,1.452-.133,2.793-1.477,3.87-2.556.189-.189.368-.368.541-.535l.061-.059a65.7,65.7,0,0,0,7.932-9.022c.5-.694,1-1.413,1.517-2.2-.918-1.072-.916-2.977-.915-4.507v0c0-.363,0-.706-.011-1.013-.041-1.062-.047-2.141-.052-3.184v-.21l0-.228,0-.082a2.832,2.832,0,0,1,.43-1.956.082.082,0,0,1,.066-.028.119.119,0,0,1,.054.013,2.421,2.421,0,0,1,1.064,1.4l.009.022.056.13.029.067c.263.6.521,1.209.77,1.8v0l.009.021.209.5c.3.7.577,1.423.848,2.121l.128.331c.133.341.273.717.428,1.149.081.236.166.476.261.734l.021.019a2.193,2.193,0,0,1,.305.316,1.533,1.533,0,0,1,.787,1,3.214,3.214,0,0,1-.782,2.644l-.077.119a66.454,66.454,0,0,1-7.529,9.622c-1.376,1.451-2.848,2.863-4.377,4.2l-.266.231a15.9,15.9,0,0,1-2.168,1.621,6.86,6.86,0,0,1-2.513.945A5.2,5.2,0,0,1,102.811,36.435Z" transform="translate(0.423 -4.468)"/>
  </g>
  <g id="HEAD" transform="translate(78.592 38.043)">
    <path id="_Skin-2" data-name="âœ‹ Skin" d="M76.829,44.934c-1.322-9.562-4.346-18.846-4.78-28.552q-.387-6.23-.775-12.46A2.524,2.524,0,0,0,66.531,2.75C63.612-.494,58.387-.016,54.4.082,30.929.916,8.626,16.824.569,39.005a2.135,2.135,0,0,0,.084,1.6C-3.1,53.155,10.178,61.239,19.236,66.836a41.23,41.23,0,0,0,12.87,9.342A45.063,45.063,0,0,0,50.16,80.44a2.274,2.274,0,0,0,2.276-2.213c1.978-.461,5.361.071,6.407-1.96,11.926-5.193,19.7-18.354,17.985-31.333Z" transform="translate(11.384 26.419)" fill="#d08b5b"/>
    <path id="_Ink-2" data-name="ðŸ– Ink" d="M56.587,92.721a31.342,31.342,0,0,1-5.388-.478l-.366-.065c-.808-.147-1.478-.288-2.111-.445a19.261,19.261,0,0,1-2.14-.652,11.83,11.83,0,0,1-1.983-.944,7.452,7.452,0,0,1-1.64-1.322,1.9,1.9,0,0,1-.465-1.083,2.344,2.344,0,0,1,.174-1.189,1.5,1.5,0,0,1,1.4-.973,1.784,1.784,0,0,1,.226.015,10.375,10.375,0,0,1,2.6.609c.64.252,1.332.515,2.055.741a24.375,24.375,0,0,0,4.1.921,27.335,27.335,0,0,0,8.741-.289,31.137,31.137,0,0,0,7.553-2.527,28.164,28.164,0,0,0,6.615-4.431,23.562,23.562,0,0,0,5.4-7.079,22.7,22.7,0,0,0,2.259-8.611c.4-6.293-.229-12.759-.839-19.013V45.9c-.057-.582-.116-1.184-.172-1.773-.34-3.533-.777-7.121-1.3-10.664-.382-2.583-.654-5.21-.918-7.75-.09-.866-.183-1.761-.279-2.643a.216.216,0,0,1,.048-.173.243.243,0,0,1,.182-.073.288.288,0,0,1,.274.177c.1.277.205.559.305.831l.005.014c.644,1.749,1.31,3.558,1.828,5.386.554,1.958.966,3.99,1.363,5.954l.05.249c.7,3.455,1.3,6.955,1.8,10.4a3.226,3.226,0,0,1,2.007-.691,3.933,3.933,0,0,1,1.75.431,1.563,1.563,0,0,1,.7,1.728,14.084,14.084,0,0,1-.436,1.483,3.884,3.884,0,0,1,.914,1.2,4.137,4.137,0,0,1-.132,3.682c.037.062.08.135.12.214.779,1.516.367,2.876-.208,4.369a6.084,6.084,0,0,0-.288,1.226,3.072,3.072,0,0,1-.824,1.974,8.453,8.453,0,0,1-1.5,2.86,1.888,1.888,0,0,1-.68.7,31.544,31.544,0,0,1-.565,4.864,23.154,23.154,0,0,1-1.423,4.546,26.525,26.525,0,0,1-2.278,4.2,29.837,29.837,0,0,1-2.966,3.765,31.719,31.719,0,0,1-3.488,3.239,32.25,32.25,0,0,1-7.809,4.605,33.63,33.63,0,0,1-8.775,2.279A28.979,28.979,0,0,1,56.587,92.721ZM31.159,80.562c-1.46,0-2.914-1.109-3.975-1.919-.607-.463-1.191-.938-1.735-1.414-.059,0-.12.007-.18.007a2.516,2.516,0,0,1-1.024-.227,8.483,8.483,0,0,1-.8-.406,2.812,2.812,0,0,1-2.311-.421,6.75,6.75,0,0,1-1.614.2,5.607,5.607,0,0,1-1.2-.124,4.728,4.728,0,0,1-2.055-1.04,4.732,4.732,0,0,1-1.443.23,4.285,4.285,0,0,1-2.278-.646,4.113,4.113,0,0,1-.937-.786,3.615,3.615,0,0,1-.63-1,1.6,1.6,0,0,1-.259-.831v-.118h-.1a3.933,3.933,0,0,1-1.471-.278,3.763,3.763,0,0,1-1.3-.874,3.968,3.968,0,0,1-1.132-2.644,5.208,5.208,0,0,1-2.713-1.839A5.153,5.153,0,0,1,2.955,63.9a5.74,5.74,0,0,1,.309-2.65c-.039-.088-.075-.181-.108-.277a8.839,8.839,0,0,1-1.145-2.2,6.725,6.725,0,0,1-.39-2.413,4.237,4.237,0,0,1,.091-.75,3.058,3.058,0,0,1-1.706-2.5,3.329,3.329,0,0,1,.824-2.384,4.2,4.2,0,0,1-.314-2.1,4.081,4.081,0,0,1,.725-1.912,2.956,2.956,0,0,1,.034-.592,5.561,5.561,0,0,1-.086-.606,4.57,4.57,0,0,1,.17-1.636,5.336,5.336,0,0,1,.691-1.469,6.538,6.538,0,0,1,1.081-1.24,7.231,7.231,0,0,1,1.339-.95,10.518,10.518,0,0,1,1.579-.689,4.4,4.4,0,0,1,.455-.123,2.434,2.434,0,0,0,.873-.319c-.006,0,.017-.043.047-.091a.935.935,0,0,0,.107-.2l.008-.035,0-.013a3.127,3.127,0,0,0,.061-.319,8.584,8.584,0,0,0,.015-1.209c0-.125-.009-.254-.011-.381a57.17,57.17,0,0,1,.278-7.163,36.375,36.375,0,0,1,1.262-6.49,27.8,27.8,0,0,1,2.592-6.073,28.476,28.476,0,0,1,7.4-8.209,35.256,35.256,0,0,1,4.655-3A41.747,41.747,0,0,1,28.85,3.6,53.827,53.827,0,0,1,39.592.828l.222-.034c1.672-.255,3.32-.451,4.9-.582C46.4.071,48.061,0,49.651,0a46.752,46.752,0,0,1,8.424.731,38.446,38.446,0,0,1,4.11.989,34.975,34.975,0,0,1,4,1.471,30.2,30.2,0,0,1,4.6,2.521c.87-.091,2.013-.2,3.137-.213h.048a3.173,3.173,0,0,1,1.766.5,2.048,2.048,0,0,1,.92,1.481,5.752,5.752,0,0,1,1.72.471,3.686,3.686,0,0,1,1.344,1.032,2.927,2.927,0,0,1,.563,1.179,9.63,9.63,0,0,1,2.184.81A2.285,2.285,0,0,1,83.5,13.528c-.068.2-.148.4-.236.6l-.068.145.04.055a2.165,2.165,0,0,1,.227,1.751A2.5,2.5,0,0,1,82.41,17.5a7.849,7.849,0,0,1-2.54,1.065c.083.4.147.758.2,1.086a.156.156,0,0,1-.037.126.145.145,0,0,1-.107.052.126.126,0,0,1-.109-.07c0,.007.323,1.005.8,2.1a.393.393,0,0,1-.029.383.409.409,0,0,1-.329.19.326.326,0,0,1-.291-.193,22.352,22.352,0,0,1-.923-2.074c-.2-.488-.4-.993-.633-1.492a4.345,4.345,0,0,1-1.526-.378,1.683,1.683,0,0,1-.748-.7.167.167,0,0,0-.015.023l-.012.019a7.639,7.639,0,0,1-3.143,2.233,28.223,28.223,0,0,1-3.8,1.213l-.013,0-.473.127a57.256,57.256,0,0,1-8.232,1.511c-3.876.462-7.841.626-11.675.784h-.009c-.95.039-1.933.08-2.9.124l-.678.032h-.013l-.274.013a13.405,13.405,0,0,1-7.13,3.145,12.488,12.488,0,0,1-1.55.094,12.87,12.87,0,0,1-2.82-.309,4.416,4.416,0,0,1-1.955,1.166,8.688,8.688,0,0,1-1.177,3.924A9,9,0,0,1,27.446,34.7l.041.165a9.024,9.024,0,0,1,.243,3.566,5.042,5.042,0,0,1-.555,1.635,4.656,4.656,0,0,1-1.191,1.391,5.048,5.048,0,0,1-.91.571l.071.163A9.326,9.326,0,0,1,26,46.031a5.369,5.369,0,0,1-.363,1.846,5.121,5.121,0,0,1-1.094,1.676,1.756,1.756,0,0,1-1.276.532,1.883,1.883,0,0,1-1.586-.856l-.03-.049c-.022-.037-.046-.075-.069-.111v0h0l-.036-.058a.514.514,0,0,1-.262.259,1.623,1.623,0,0,1-.645.157,2,2,0,0,1-.9-.3h0l-.216-.108a10.78,10.78,0,0,0-2.021-.737,11.751,11.751,0,0,0-1.7-.315,9.131,9.131,0,0,0-5.368,9.572,7.631,7.631,0,0,0,1.111,3.071,6,6,0,0,0,1.051,1.238,5.2,5.2,0,0,0,1.381.886,5.7,5.7,0,0,0,2.256.47,5.07,5.07,0,0,0,.683-.045,7.038,7.038,0,0,0,1.29-.34,4.916,4.916,0,0,1,1.567-.342,2.536,2.536,0,0,1,.849.146,1.355,1.355,0,0,1,.645.45,1.3,1.3,0,0,1,.262.745,2.563,2.563,0,0,1-.818,2.1,14.147,14.147,0,0,1,1.686,1.794c.3.359.583.7.88,1.015,1.054,1.127,2.094,2.224,3.223,3.255a28.751,28.751,0,0,0,3.39,2.682l.126.083c.2.13.408.26.611.386a10.019,10.019,0,0,1,1.912,1.406,3.075,3.075,0,0,1,.94,2.105,1.573,1.573,0,0,1-.229.863,1.9,1.9,0,0,1-.626.636A2.721,2.721,0,0,1,31.159,80.562ZM18.209,59.481a.824.824,0,0,1-.743-.474,3.269,3.269,0,0,1-.4-2.127,2.38,2.38,0,0,1,.179-.614l-.08-.041c-.038-.02-.082-.043-.124-.063l-.123-.057a12,12,0,0,0-3.564-1.069.869.869,0,0,0-.632.187.467.467,0,0,0-.122.351.112.112,0,0,1-.029.083.108.108,0,0,1-.078.031.137.137,0,0,1-.126-.082.957.957,0,0,1,.033-.939,2.072,2.072,0,0,1,1.324-.7,8.468,8.468,0,0,1,1.737-.165c.254,0,.506.01.693.027l.028,0a12.016,12.016,0,0,1,3.659.974,6.962,6.962,0,0,1,1.646,1.022,3.745,3.745,0,0,1,1.064,1.418,1.052,1.052,0,0,1-.132,1,1.393,1.393,0,0,1-1.111.626,1.008,1.008,0,0,1-.328-.054,4.1,4.1,0,0,1-1.452-.982c-.17-.156-.346-.316-.536-.469-.16-.128-.334-.257-.55-.4a2,2,0,0,0,.477.826l.052.049a.8.8,0,0,1,.252.925,1.131,1.131,0,0,1-.4.506A1.073,1.073,0,0,1,18.209,59.481Z" transform="translate(2.53 14.372)"/>
  </g>
  <g id="FACE" transform="translate(112.183 77.354)">
    <path id="_Ink-3" data-name="ðŸ– Ink" d="M22.824,40.539a8.045,8.045,0,0,1-3.052-.61,8.621,8.621,0,0,1-1.992-1.145,8.487,8.487,0,0,1-1.622-1.636,1.676,1.676,0,0,1-.338-1.3,1.871,1.871,0,0,1,.728-1.172,1.793,1.793,0,0,1,1.067-.372,1.548,1.548,0,0,1,.238.018,1.648,1.648,0,0,1,1.1.73l.065.09A5.7,5.7,0,0,0,21.108,36.9a4.735,4.735,0,0,0,2.069.483,4.583,4.583,0,0,0,.513-.029,5.388,5.388,0,0,0,2.278-.8,10.668,10.668,0,0,0,1.93-1.611c.138-.141.284-.294.474-.5a.751.751,0,0,1,.394-.3.806.806,0,0,1,.256-.041.871.871,0,0,1,.714.373.8.8,0,0,1,.135.524,4.812,4.812,0,0,1-.57,1.864,6.221,6.221,0,0,1-1.22,1.567,7.841,7.841,0,0,1-1.847,1.288,7.69,7.69,0,0,1-2.05.7A7.548,7.548,0,0,1,22.824,40.539Zm2.148-12.17h0a7.373,7.373,0,0,1-2.63-.53,13.281,13.281,0,0,1-3.093-1.756,1.189,1.189,0,0,1-.432-.687,1.423,1.423,0,0,1,.061-.771,1.754,1.754,0,0,1,.521-.753,1.267,1.267,0,0,1,.812-.317,1.151,1.151,0,0,1,.628.193l.209.161,0,0a16.744,16.744,0,0,0,1.936,1.347,4.768,4.768,0,0,0,2.321.74,2.505,2.505,0,0,0,.981-.193,2.74,2.74,0,0,0,.913-.647,2.8,2.8,0,0,0,.531-2.255,4.26,4.26,0,0,0-1.13-2,8.241,8.241,0,0,0-1.711-1.381.531.531,0,0,1-.144-.61.8.8,0,0,1,.264-.38.809.809,0,0,1,.505-.167,1.076,1.076,0,0,1,.181.016,5.736,5.736,0,0,1,2.018.729,4.577,4.577,0,0,1,1.357,1.252,4.974,4.974,0,0,1,.866,3.322,5.475,5.475,0,0,1-.444,1.744,5.087,5.087,0,0,1-1,1.5A4.779,4.779,0,0,1,24.972,28.369ZM7.859,16.485a1.724,1.724,0,0,1-1.119-.439,1.744,1.744,0,0,1-.587-1.128,12.706,12.706,0,0,1,.067-3.308c.04-.321.081-.654.11-1.012a1.98,1.98,0,0,1,.75-1.415,2.31,2.31,0,0,1,1.421-.5,1.751,1.751,0,0,1,1.075.338,1.594,1.594,0,0,1,.594,1.057,8.877,8.877,0,0,1-.926,5.469,1.754,1.754,0,0,1-.619.716A1.427,1.427,0,0,1,7.859,16.485Zm25.119-.75a1.508,1.508,0,0,1-1.183-.507A4.624,4.624,0,0,1,31.074,14a5.342,5.342,0,0,1-.368-1.477,3.131,3.131,0,0,1,.853-2.687,1.772,1.772,0,0,1,.137-.208,1.933,1.933,0,0,1,1.487-.856,1.611,1.611,0,0,1,.452.067,2.175,2.175,0,0,1,1.453,1.268,4.486,4.486,0,0,1,.18,2.453,8.214,8.214,0,0,1-.744,2.314,1.5,1.5,0,0,1-.643.635A1.947,1.947,0,0,1,32.979,15.735ZM.278,7.854a.274.274,0,0,1-.229-.14.306.306,0,0,1-.018-.3A10.425,10.425,0,0,1,2.368,4.454,14.446,14.446,0,0,1,5.5,2.317a13.445,13.445,0,0,1,3.714-1.3l.4-.069A9.66,9.66,0,0,1,11.226.776a2.5,2.5,0,0,1,2,.746,1.7,1.7,0,0,1,.4,1.208,1.106,1.106,0,0,1-.4.789,3.08,3.08,0,0,1-2.112.62c-.166,0-.338,0-.5-.008H10.6c-.16,0-.341-.009-.521-.009s-.314,0-.452.012a14.274,14.274,0,0,0-3.143.536A21.357,21.357,0,0,0,.424,7.806.26.26,0,0,1,.278,7.854Zm38.247-1.6h0l-.167-.042A9.458,9.458,0,0,1,36.524,5.5l-.6-.293A16.537,16.537,0,0,0,33.8,4.3a25.089,25.089,0,0,0-4.845-1.07,1.979,1.979,0,0,1-.972-.369,1.457,1.457,0,0,1-.544-.828A1.482,1.482,0,0,1,27.609.786a1.581,1.581,0,0,1,.767-.661A1.725,1.725,0,0,1,29.03,0a1.926,1.926,0,0,1,.377.038l.3.062a21.676,21.676,0,0,1,5.232,1.7,10.579,10.579,0,0,1,2.3,1.514,6.719,6.719,0,0,1,1.627,2.1c.057.439,0,.548-.055.622L38.8,6.06l-.015.02a.421.421,0,0,1-.26.173Z" transform="translate(11.197 10.99)"/>
  </g>
  <g id="FACIAL_HAIR" data-name="FACIAL HAIR" transform="translate(104.577 109.479)">
    <path id="_Ink-4" data-name="ðŸ– Ink" d="M44.8,32.3s-9.378,1.379-13.576-.57A84.091,84.091,0,0,1,19.17,25.338a30.653,30.653,0,0,1-9.545-9.772C7.434,11.837,5.613,7.881,3.779,3.956,3.672,3.727,2.62,1.447,2.248.682,1.675-.5,0-.132,0,1.709S-.08,17.488,3.135,22.971c2.9,4.952,7.817,8.413,12.7,11.433,5.4,3.339,12.583,6.949,19.031,7.9,5.835.862,12.494-1.56,16.72-5.552,4.418-4.175,5.668-9.848,7.948-15.28a.987.987,0,0,0-1.825-.752C56.713,22.971,44.8,32.3,44.8,32.3Z" transform="translate(-0.526 -3.122)"/>
  </g>
  <g id="ACCESORIES" transform="translate(88.521 88.978)">
    <path id="_Ink-5" data-name="ðŸ– Ink" d="M39.227,24.323h0a11.823,11.823,0,0,1-3.627-.555,10,10,0,0,1-3.2-1.7,9.363,9.363,0,0,1-2.411-2.911,11.557,11.557,0,0,1-1.249-4.178h-.088a3.658,3.658,0,0,1-2.01-.664,5.031,5.031,0,0,1-1.51-1.593c-.859.055-1.772.082-2.789.082-1.767,0-3.61-.083-5.392-.163h-.031c-1.8-.081-3.655-.164-5.481-.164a40.952,40.952,0,0,0-4.4.211,23.721,23.721,0,0,0-4.212.814,1.234,1.234,0,0,1-1.159.656,2.085,2.085,0,0,1-1.091-.32A1.1,1.1,0,0,1,0,13.061a1.048,1.048,0,0,1,.556-.923,6.215,6.215,0,0,1,2.237-.82,27.981,27.981,0,0,1,4.289-.728c1.32-.127,2.756-.189,4.388-.189,1.791,0,3.616.074,5.38.145h.007c1.761.071,3.581.145,5.349.145,1.259,0,2.38-.037,3.43-.112a22.129,22.129,0,0,0,4.008-3.273c.7-.665,1.416-1.353,2.163-1.966a12.491,12.491,0,0,1,2.4-1.59,13.361,13.361,0,0,1,6.42-1.668A10.718,10.718,0,0,1,46.2,3.551,9,9,0,0,1,48.45,5.485a9.933,9.933,0,0,1,1.632,2.822,14.694,14.694,0,0,1,5.461-.964,18.806,18.806,0,0,1,3.386.307,8.265,8.265,0,0,1,1.28-2.165,10.21,10.21,0,0,1,1.724-2.2A11.906,11.906,0,0,1,66.871.411,10.123,10.123,0,0,1,69.679,0,7.92,7.92,0,0,1,75.7,2.642c.234.025.331.258.4.428a.38.38,0,0,0,.087.155,9.964,9.964,0,0,1,.69,1.018,6.517,6.517,0,0,0,1.795.978,7.021,7.021,0,0,1,1.539.791,2.274,2.274,0,0,1,.552.581,2.037,2.037,0,0,1,.3.807,1.909,1.909,0,0,1-.356,1.562A5.343,5.343,0,0,1,79.515,10a5.231,5.231,0,0,0-1.171,1.01,1.723,1.723,0,0,1-.308.569,17.053,17.053,0,0,1-1.547,4.547,12.915,12.915,0,0,1-2.428,3.333,10.031,10.031,0,0,1-3,2.051,8.17,8.17,0,0,1-3.271.7,7.573,7.573,0,0,1-3.057-.642A8.629,8.629,0,0,1,61.964,19.6a12.071,12.071,0,0,1-2.217-3.348,19.066,19.066,0,0,1-1.41-4.788,3.546,3.546,0,0,0-1.174-.677,3.9,3.9,0,0,0-1.278-.24,2.339,2.339,0,0,0-.325.021,6.671,6.671,0,0,1-1.515.475,8.81,8.81,0,0,0-3.14,3.184,10.121,10.121,0,0,1-1.2,4.291,10.278,10.278,0,0,1-2.693,3.169,12.074,12.074,0,0,1-3.669,1.963A12.968,12.968,0,0,1,39.227,24.323Zm2.33-19.248A11.444,11.444,0,0,0,36.45,6.392a15.091,15.091,0,0,0-4.673,3.734,11.3,11.3,0,0,0-1.045,4.884,7.044,7.044,0,0,0,2.528,5.26A8.19,8.19,0,0,0,35.017,21.4a9.748,9.748,0,0,0,4.176.921A9.44,9.44,0,0,0,45.256,20.2a8.652,8.652,0,0,0,2.166-2.731,10.772,10.772,0,0,0,1.086-3.916A11.543,11.543,0,0,0,48,9.638a6.853,6.853,0,0,0-1.571-2.665A6.61,6.61,0,0,0,41.557,5.075ZM69.4,2.551a6.029,6.029,0,0,0-2.266.435,6.154,6.154,0,0,0-2.059,1.377,18.156,18.156,0,0,0-3.09,4.772,8.884,8.884,0,0,0-.678,5.5,12.711,12.711,0,0,0,1.24,2.258,8.927,8.927,0,0,0,1.527,1.7,6.358,6.358,0,0,0,1.763,1.076,5.271,5.271,0,0,0,1.947.375,5.906,5.906,0,0,0,2.261-.471A9.015,9.015,0,0,0,72.4,18.1a16.8,16.8,0,0,0,2.619-4.689V13.2a13.928,13.928,0,0,0,.836-4.8,12.667,12.667,0,0,0-.181-1.583,6.416,6.416,0,0,0-1.028-1.759A6.812,6.812,0,0,0,73.16,3.712a6.948,6.948,0,0,0-1.8-.858A6.587,6.587,0,0,0,69.4,2.551Z" transform="translate(2.535 2.325)"/>
  </g>
</svg>
