<svg xmlns="http://www.w3.org/2000/svg" width="259.014" height="324" viewBox="0 0 259.014 324">
  <g id="peep-3" transform="translate(19.014)">
    <g id="BODY" transform="translate(31.056 135.053)">
      <path id="_Skin" data-name="âœ‹ Skin" d="M49.808,154.421c-1.444,0-2.856-.053-4.2-.158a12.123,12.123,0,0,1-3.56-.951,15.856,15.856,0,0,1-3.1-1.818,43.73,43.73,0,0,1-5.4-5.034h0c-.927-.966-1.885-1.965-2.849-2.869-4.456-4.556-8.791-9.3-12.883-14.109-4.135-4.856-8.128-9.894-11.867-14.976l-.157-.217c-.394-.539-.818-1.09-1.228-1.623a36.238,36.238,0,0,1-2.946-4.233,13.233,13.233,0,0,1-1.039-2.3,9.408,9.408,0,0,1-.485-2.486,2.083,2.083,0,0,1-.053-1.014,3.911,3.911,0,0,1,.368-1.078,5.653,5.653,0,0,1,1.417-1.794l.36-.519c1.528-2.2,2.964-4.166,4.389-6.014,1.612-2.091,3.166-3.972,4.75-5.749,1.712-1.922,3.458-3.715,5.192-5.329a64.351,64.351,0,0,1,5.716-4.753,2.8,2.8,0,0,1,.277-1.3,2.866,2.866,0,0,1,.9-1.079L56.874,50.783c2.762-1.9,5.508-3.944,8.163-5.919,2.824-2.1,5.744-4.273,8.7-6.284a86.033,86.033,0,0,1,9.162-5.529,41.447,41.447,0,0,1,3.993-1.665c1.272-.458,2.612-.88,4.1-1.291,2.758-.764,5.61-1.373,8.368-1.961,2.282-.487,4.64-.99,6.936-1.579a57.961,57.961,0,0,0,6.785-2.142c.093-1.24,1.305-2.012,2.306-2.441a9.15,9.15,0,0,1,3.148-.727c.223,0,.363.026.395.074a.041.041,0,0,1,0,.041,26.962,26.962,0,0,0,7.084-5.965,17.847,17.847,0,0,0,2.05-3.13,14.168,14.168,0,0,0,1.155-3.1,22.737,22.737,0,0,0,.457-3.011,10.448,10.448,0,0,1,.821-3.7A4.725,4.725,0,0,1,133.766.147C135.129.05,136.5,0,137.853,0a48.456,48.456,0,0,1,8.175.66,31.741,31.741,0,0,1,7.781,2.31A21.853,21.853,0,0,1,157.218,4.9a17.7,17.7,0,0,1,2.911,2.525,15.945,15.945,0,0,1,2.279,3.185,16.887,16.887,0,0,1,1.514,3.906,17.076,17.076,0,0,0,.954,3.091,13.04,13.04,0,0,0,1.359,2.443,27.65,27.65,0,0,0,4.074,4.313,22.719,22.719,0,0,1,2.407,3.731,13.856,13.856,0,0,1,1.223,3.42,9.012,9.012,0,0,1-.68,5.884,12.014,12.014,0,0,1-3.811,4.336,24.111,24.111,0,0,1-6.164,3.142,42.529,42.529,0,0,1-7.813,1.912,58.186,58.186,0,0,1-8.757.645c-1.921,0-3.86-.09-5.762-.267-1.932-.18-3.842-.452-5.676-.807a44.021,44.021,0,0,1-10.36-3.273,24.421,24.421,0,0,1-7.815-5.547,14.8,14.8,0,0,1-3.8-7.9,91.941,91.941,0,0,1-12.39,3.24,91,91,0,0,0-12.548,3.3A54.451,54.451,0,0,0,76.2,43.021C67.32,49.33,58.368,55.847,49.711,62.15c-6.48,4.718-13.181,9.6-19.808,14.355,4.409,2.031,11.734,8.272,13.447,14.242a7.134,7.134,0,0,1-.718,6.119,14.282,14.282,0,0,1-3.281,2.766l0,0c-.27.185-.55.377-.818.567l-.748.534c-.718.515-1.631,1.174-2.6,1.871-1.172.846-2.384,1.721-3.219,2.317l-.276.2-.341.245a258.106,258.106,0,0,0,37.467,43.392,2.075,2.075,0,0,1,.6,1.109,2.666,2.666,0,0,1-.059,1.289,2.3,2.3,0,0,1-.562.967,1.822,1.822,0,0,1-1.005.519l-2.059.3A111.553,111.553,0,0,1,49.808,154.421Zm168.75-.186h0c-6.382-.026-12.875-.3-19.155-.563-4.681-.2-9.522-.4-14.281-.5a3.53,3.53,0,0,1-2.009-1.146,2.33,2.33,0,0,1-.444-1.774,5.151,5.151,0,0,1,.944-2.233,9.96,9.96,0,0,1,2.062-2.133,11.343,11.343,0,0,1,2.807-1.6,8.781,8.781,0,0,1,3.178-.63,6.682,6.682,0,0,1,3.336.862,7.7,7.7,0,0,1,2.648,2,7.552,7.552,0,0,0,2.581,1.958,1.537,1.537,0,0,0,.317.039c.408,0,.516-.273.713-.768.024-.061.05-.125.078-.193l.043-.1c.361-.858.72-1.733,1.068-2.58l0,0c.165-.4.353-.86.539-1.309,4.187-10.316,8.667-20.714,13-30.769l.309-.718.795-1.846a3.848,3.848,0,0,0-.055-3.273,7.284,7.284,0,0,0-2.213-2.543,19.094,19.094,0,0,0-1.874-1.217c-1.183-.714-2.406-1.453-2.326-1.742.023-.084.16-.127.406-.127a11.013,11.013,0,0,1,2.017.314,10,10,0,0,1-.819-3.859,12.266,12.266,0,0,1,.59-3.778,23.709,23.709,0,0,1,3.71-6.867,22.76,22.76,0,0,1,2.22-2.862,13.435,13.435,0,0,1,2.194-1.936,8.57,8.57,0,0,1,2.156-1.1,6.694,6.694,0,0,1,2.107-.346,7.152,7.152,0,0,1,2.53.482,10.472,10.472,0,0,1,2.416,1.334,21.3,21.3,0,0,1,4.4,4.55,46.142,46.142,0,0,1,3.69,5.939c.988,1.866,1.931,3.878,2.8,5.981a22.89,22.89,0,0,1,1.181,5.159,28.164,28.164,0,0,1,.064,5.349,37.877,37.877,0,0,1-.861,5.455,52.871,52.871,0,0,1-1.6,5.476A88.55,88.55,0,0,1,235.21,131.3c-1.733,3.443-3.609,6.8-5.264,9.756l0,0v0c-.4.718-.781,1.4-1.156,2.072-.577.783-1.2,1.772-1.859,2.819a42.41,42.41,0,0,1-3.742,5.316C221.586,153.086,220.073,154.056,218.558,154.235Zm-44.7-45.762a24.77,24.77,0,0,1-5.215-.57,27.637,27.637,0,0,1-5.043-1.615,27.246,27.246,0,0,1-8.6-5.8c-3.056-4.187-1.91-9.166-.8-13.982a47.542,47.542,0,0,0,1-5.211,22.234,22.234,0,0,1-.992-3.9c-.1-.516-.192-1-.3-1.488l-.047-.208-1.489-6.5a2.934,2.934,0,0,1,.578-2.386,2.279,2.279,0,0,1,.7-.6,1.917,1.917,0,0,1,.914-.23,2.092,2.092,0,0,1,.238.014,151.9,151.9,0,0,0,17.248.986c3.124,0,6.289-.1,9.407-.293s6.276-.49,9.378-.878a1.4,1.4,0,0,1,.172-.011,2.359,2.359,0,0,1,1.436.588,2.2,2.2,0,0,1,.82,1.276c1.29,8.184-.2,16.31-1.842,23.932l-.313,1.445c-.3,1.386-.635,2.861-1.093,4.3a17.893,17.893,0,0,1-1.794,4.034,13.9,13.9,0,0,1-2.946,3.37,15.448,15.448,0,0,1-3.826,2.324A20.405,20.405,0,0,1,173.858,108.472Z" transform="translate(-47.325 -6.34)" fill="#d08b5b"/>
      <rect id="_Top" data-name="ðŸ‘• Top" width="42.042" height="42.27" transform="translate(104.366 59.812)" fill="#fdea6b"/>
      <path id="_Ink" data-name="ðŸ– Ink" d="M225.092,150.27a2.147,2.147,0,0,1-.953-.228,2.05,2.05,0,0,1-.743-.619,1.716,1.716,0,0,1-.237-1.574c.045-.141.09-.285.13-.413a10.72,10.72,0,0,1,.751-1.946c.205-.384.431-.767.65-1.137.112-.19.228-.387.341-.581.336-.584.682-1.189.986-1.722l0,0c.322-.563.654-1.144.983-1.715.636-1.106,1.3-2.221,1.939-3.3.754-1.269,1.533-2.581,2.274-3.887,2.644-4.656,4.807-8.859,6.611-12.848l.234-.518c.763-1.7,1.744-3.94,2.565-6.215a40.331,40.331,0,0,0,1.8-6.464,21.542,21.542,0,0,0,.345-3.43,22.581,22.581,0,0,0-.189-3.354,29.193,29.193,0,0,0-1.713-6.575c-.939-2.486-1.992-4.859-2.8-6.649l-.191-.419-.273-.592a28.909,28.909,0,0,1-2.2-5.847.169.169,0,0,1,.033-.145.173.173,0,0,1,.133-.066.163.163,0,0,1,.115.049,31,31,0,0,1,4.188,5.464c.338.516.688,1.05,1.039,1.568.324.477.658.957.982,1.421a36.944,36.944,0,0,1,3.425,5.6,21.456,21.456,0,0,1,1.98,7.317,29.525,29.525,0,0,1-.513,7.659,45.175,45.175,0,0,1-1.99,7.281c-.96,2.687-2.108,5.271-2.888,6.981-1.83,4.012-4.036,8.269-6.744,13.013l-.868,1.515c-1.012,1.763-2.1,3.638-3.275,5.472-.235.367-.471.742-.7,1.1l0,0a28.552,28.552,0,0,1-3.906,5.266A1.825,1.825,0,0,1,225.092,150.27ZM204.2,147.876a1.486,1.486,0,0,1-1.129-.562,1.324,1.324,0,0,1-.263-1.14,31.7,31.7,0,0,1,1.225-3.82c.21-.571.427-1.161.621-1.738.213-.632.429-1.275.638-1.9l.01-.029c.4-1.19.811-2.42,1.227-3.626,1.077-3.124,2.25-6.168,3.562-9.539l1.22-3.136c1.082-2.778,2.351-6.007,3.7-9.174l.141-.332c.1-.227.194-.46.289-.686l.013-.03c.63-1.5,1.281-3.043,2.06-4.506a16.66,16.66,0,0,1,2.814-3.975.188.188,0,0,1,.121-.055,7.875,7.875,0,0,1-1.656-1.188l-.024-.024a9.357,9.357,0,0,1-1.263-1.838c-.31.11-.641.225-1.014.351a1.648,1.648,0,0,1-.526.091,1.309,1.309,0,0,1-.9-.351l-.656.406a4.754,4.754,0,0,1-2.23.856h-.066a2.346,2.346,0,0,1-1.262-.363,3.106,3.106,0,0,1-.936-.946c-.171-.259-.318-.529-.461-.79a6.273,6.273,0,0,0-.881-1.324,13.52,13.52,0,0,0-1.95-1.657l-.814-.592a22.344,22.344,0,0,1-4.141-3.631c-.1-.119-.2-.239-.31-.366l-.006-.007a8.883,8.883,0,0,1-1.465-2.089,1.437,1.437,0,0,1-.125-.482c-.09.615-.183,1.229-.245,1.638-.642,4.274-1.137,8.051-1.512,11.548-.445,4.148-.73,7.947-.871,11.613-.176,4.624-.189,8.167-.04,11.489.083,1.89.223,3.818.416,5.73.084.847.187,1.849.311,2.86l.027.22a4.078,4.078,0,0,1,.03.841,2.915,2.915,0,0,1,1.127,1.093,8.923,8.923,0,0,1,.709,1.428,1.588,1.588,0,0,1,.081,1,1.9,1.9,0,0,1-.474.845,8.008,8.008,0,0,1,1.439,1.748.116.116,0,0,1,.008.12.139.139,0,0,1-.121.067.138.138,0,0,1-.087-.03,10,10,0,0,0-2.142-1.306,2.116,2.116,0,0,1-.752.143,1.766,1.766,0,0,1-.471-.062,2.023,2.023,0,0,1-1.071-.771,8.813,8.813,0,0,0-1.424-.117,8.425,8.425,0,0,0-2.5.376,8.569,8.569,0,0,0-2.36,1.157,8.342,8.342,0,0,0-1.1.936c-.052.052-.107.119-.159.183l-.022.027.419.161a3.512,3.512,0,0,0,.371.128,9.8,9.8,0,0,0,1.11.147l.557.046c.265.022.541.043.784.062.92.07,1.871.143,2.788.294a10.765,10.765,0,0,1,2.692.777.432.432,0,0,1,.25.449.546.546,0,0,1-.373.491,10.172,10.172,0,0,1-2.723.327c-.477,0-.986-.021-1.651-.069l-.318-.024c-.316-.024-.643-.043-.96-.061h0a15.082,15.082,0,0,1-3.231-.419,1.647,1.647,0,0,1-.128,1.4,1.571,1.571,0,0,1-.512.519,2.02,2.02,0,0,1-.818.283,37.73,37.73,0,0,1-5.02.309c-2.434,0-4.849-.183-7.1-.381-3.687-.325-7.977-.691-12.228-.913-6.8-.358-14.01-.524-22.7-.524-5.875,0-11.837.078-16.965.151l-7.472.108c-4.372.062-9.071.119-13.809.119-1.4,0-2.765-.005-4.067-.015l-2.789-.026c-1.066-.01-2.307-.024-3.535-.06l-.706-.023c-.233-.008-.481-.01-.715-.01h-.363a6.057,6.057,0,0,1-3.4-.661,2.153,2.153,0,0,1-.916-1.353,2.249,2.249,0,0,1,.293-1.6,4.437,4.437,0,0,1,.668-.805c.5-4.282.793-8.655,1.076-12.884h0l.025-.375c.256-3.867.412-7.77.463-11.6.051-3.858,0-7.751-.161-11.571-.159-3.847-.427-7.73-.8-11.542-.373-3.837-.86-7.711-1.447-11.513-3.035.928-6.127,1.989-9.452,3.245-2.912,1.1-5.941,2.326-9.258,3.749-3.543,1.519-6.756,2.965-9.822,4.419-.794.377-1.6.787-2.388,1.184a39.483,39.483,0,0,1-6.707,2.891,1.179,1.179,0,0,1-.767.306.921.921,0,0,1-.279-.043l-.046-.016h0a1.3,1.3,0,0,1-.3.034,1.436,1.436,0,0,1-.746-.218l-.215-.132-.108-.069a10.989,10.989,0,0,1-3.021-2.623c-.81.752-1.686,1.461-2.532,2.148l-.013.011-.452.367c-1.229,1-2.3,1.888-3.279,2.705-.114.1-.232.191-.346.282a8.412,8.412,0,0,0-.941.84l-.055.061-.025.03a23.032,23.032,0,0,1,4.152,3.841l.023.025.2.221c1.406,1.53,2.778,3.128,4.052,4.628l1.285,1.516,1.134,1.341.024.029c4.305,5.091,8.757,10.356,13.478,15.218,2.544,2.62,4.95,4.905,7.354,6.985a82.1,82.1,0,0,0,8.037,6.171,1.737,1.737,0,0,1,.715.936,1.839,1.839,0,0,1-.012,1.072,2.019,2.019,0,0,1-.586.923,1.465,1.465,0,0,1-.97.385,1.586,1.586,0,0,1-.906-.306,104.074,104.074,0,0,1-9.976-7.894c-2.668-2.362-5.272-4.912-7.959-7.794-2.379-2.551-4.767-5.3-7.3-8.418-2.127-2.613-4.394-5.526-6.932-8.906l-.766-1.019c-.974-1.3-2.009-2.685-3.007-4.119l-.2-.292a20.286,20.286,0,0,1-2.308-4.03,2.2,2.2,0,0,1-.8.528.878.878,0,0,1-.32.059,1.266,1.266,0,0,1-1.152-.9c-.339-1.348.763-2.172,1.736-2.9l.132-.1c1.235-.923,2.5-1.813,3.68-2.646l.442-.312.286-.2a37.781,37.781,0,0,1,4.5-2.885,1,1,0,0,1,.182-.186c.088-.07.164-.129.239-.186-1.026-1.664-2.093-3.278-3.17-4.794-1.13-1.59-2.31-3.127-3.508-4.569a80.926,80.926,0,0,0-5.894-6.374l-.934-.9A49.584,49.584,0,0,0,24.9,71.188l-.491.557c-.591.669-1.284,1.444-2.017,2.174-1.415,1.407-2.8,2.828-4.088,4.163C16.1,80.367,13.937,82.754,11.73,85.2l-1.081,1.2c-.6.661-1.212,1.329-1.808,1.976-1.67,1.811-3.4,3.684-4.9,5.65l-.1.135a6.724,6.724,0,0,0-1.048,1.9,3.641,3.641,0,0,0-.066,2.147,12.629,12.629,0,0,0,1.819,3.5l0,0c.117.177.238.36.353.539l.082.127c3.46,5.392,7.091,10.5,10.792,15.188a146.628,146.628,0,0,0,12.447,14.011c2.3,2.256,4.65,4.362,6.977,6.261a85.421,85.421,0,0,0,7.557,5.52,1.313,1.313,0,0,1,.561.707,1.384,1.384,0,0,1,0,.818,1.551,1.551,0,0,1-.457.722,1.162,1.162,0,0,1-.769.3,1.264,1.264,0,0,1-.7-.223,95.632,95.632,0,0,1-8.819-6.555c-2.681-2.234-5.409-4.732-8.108-7.426-2.272-2.266-4.5-4.7-6.815-7.428-2.031-2.4-4.084-4.978-6.277-7.891-1.952-2.595-3.856-5.29-5.658-8.012-.35-.529-.719-1.073-1.075-1.6l0-.005a42.547,42.547,0,0,1-3.968-6.69A7.867,7.867,0,0,1,.028,97.7,5.874,5.874,0,0,1,.3,95.258a11.679,11.679,0,0,1,2.517-3.886l.1-.109c2.2-2.472,4.554-5.049,7.2-7.881,2.268-2.428,4.749-4.9,7.585-7.564a54.03,54.03,0,0,1,6.45-5.182c-.208-.148-.41-.286-.619-.421a1.259,1.259,0,0,1-.573-.921,1.143,1.143,0,0,1,.334-.941,47.033,47.033,0,0,1,3.554-3.133c.454-.374.923-.76,1.377-1.145,1.591-1.35,3.239-2.749,4.658-3.955,3.188-2.7,6.471-5.489,9.368-7.947l.114-.1c4.1-3.476,8.246-7.029,12.259-10.465l.011-.009c1.458-1.248,3.11-2.663,4.71-4.031,1.893-1.618,3.832-3.247,5.708-4.823l0,0,1.4-1.179,4.22-3.552,2.064-1.733a22.533,22.533,0,0,1,3.34-2.438,31.711,31.711,0,0,1,7.659-2.679h.005c.556-.143,1.13-.291,1.684-.44l.207-.056c3.827-1.048,7.277-1.918,10.547-2.661,3.506-.8,7.093-1.535,10.661-2.2a62.13,62.13,0,0,1,9.761-1.184,4.393,4.393,0,0,1,1.521-.288,2.892,2.892,0,0,1,1.107.2,3.925,3.925,0,0,1,.98.592c.462-.162.928-.3,1.378-.437a12.461,12.461,0,0,0,3.293-1.345A16.447,16.447,0,0,0,128.8,9.78a18.89,18.89,0,0,0,2.711-4.608A30.969,30.969,0,0,0,133.108.064.089.089,0,0,1,133.2,0a.076.076,0,0,1,.081.064,13.406,13.406,0,0,1,.1,2.977A15.938,15.938,0,0,1,132.871,6a19.165,19.165,0,0,1-2.46,5.438,18.858,18.858,0,0,1-4.314,4.7l-.132.1a12.53,12.53,0,0,1-2.245,1.37,6.1,6.1,0,0,1-2.515.615,4.052,4.052,0,0,1-1.481-.274,1.391,1.391,0,0,1-.19-.089c.213.33.416.681.612,1.021l.024.041.06.1c.386.67.755,1.365,1.112,2.037.271.51.551,1.036.836,1.548a22.835,22.835,0,0,0,4.373,5.687,25.491,25.491,0,0,0,2.734,2.217,27.068,27.068,0,0,0,2.953,1.8,32.16,32.16,0,0,0,6.413,2.5,44.167,44.167,0,0,0,6.834,1.28,63.416,63.416,0,0,0,6.949.36l.63,0,.663-.006.891,0a39.09,39.09,0,0,0,6.291-.364,10.312,10.312,0,0,0,5.523-2.437A10.7,10.7,0,0,0,168.5,30.83a31.25,31.25,0,0,0,1.43-3.214c.571-1.433,1.027-2.921,1.467-4.361l0-.006c.2-.667.415-1.358.635-2.033a15.818,15.818,0,0,1-3.828-3.631,15.225,15.225,0,0,1-1.425-2.349,14.328,14.328,0,0,1-.964-2.573l-.07-.266a14.093,14.093,0,0,1-.432-2.345,4.762,4.762,0,0,1,.287-2.286.2.2,0,0,1,.191-.112.223.223,0,0,1,.2.112,5.6,5.6,0,0,1,.407,1.336c.05.235.1.477.17.712a16.931,16.931,0,0,0,.826,2.344,16.905,16.905,0,0,0,2.567,4.071,16.807,16.807,0,0,0,2.856,2.712,2.31,2.31,0,0,1,2.122-1.047,4.262,4.262,0,0,1,1.18.174,47.764,47.764,0,0,1,4.821,1.738l.315.13c.383.159.769.311,1.177.472h0a24.026,24.026,0,0,1,3.6,1.649c.4.189.789.38,1.167.565l0,0c.474.231.922.45,1.362.657,3.434,1.614,7.074,3.427,11.8,5.877l.836.434a25.1,25.1,0,0,1,4.677,2.9A20.875,20.875,0,0,1,209.5,36.88l.016.023c1.337,1.961,2.652,3.986,3.925,5.945v0l0,0c1.025,1.578,2.085,3.209,3.15,4.8l.006.009c4.734,7.056,9.629,14.353,14.485,21.531.4.586.816,1.177,1.223,1.749h0c.8,1.126,1.627,2.289,2.324,3.487a6.477,6.477,0,0,1,.844,2.642,13.8,13.8,0,0,1-.06,2.792l-.037.354c-.355,3.333-.965,6.848-3.01,9.974a20.477,20.477,0,0,1-2.657,3.255,24.134,24.134,0,0,1-3.189,2.662,30.908,30.908,0,0,1-3.58,2.151,41.512,41.512,0,0,1-3.829,1.722c.114.085.228.172.338.256a7.9,7.9,0,0,0,1.655,1.055,11.631,11.631,0,0,0,3.672.86c.276.022.553.025.787.025h.587a6.737,6.737,0,0,1,1.365.1,2.666,2.666,0,0,1,1.213.561,1.058,1.058,0,0,1,.333.821,1.024,1.024,0,0,1-.333.79,2.97,2.97,0,0,1-1.981.613,12.027,12.027,0,0,1-1.39-.11h-.007l-.3-.035-.076-.008a13.4,13.4,0,0,1-3.467-.786c-.284-.112-.557-.233-.811-.361a.17.17,0,0,1,.008.08,25.05,25.05,0,0,1-1.038,4.224l-.276.882c-.46,1.474-1.07,3.419-1.711,5.394-1.077,3.318-2.236,6.578-3.531,10.191l-1.047,2.92c-1.033,2.876-2.143,5.934-3.368,8.931-.594,1.452-1.2,2.928-1.787,4.355l0,0-.184.449-.264.643c-.23.559-.451,1.142-.665,1.705a31.493,31.493,0,0,1-1.574,3.672A1.169,1.169,0,0,1,204.2,147.876Zm-34.611-51.49a7.411,7.411,0,0,0-3.258,1c.592.257,1.236.534,1.914.824l4.246,1.813c.4.171.816.339,1.217.5a27.411,27.411,0,0,1,3,1.355.732.732,0,0,1,.228.19c.861-.551,1.766-1.074,2.642-1.579.532-.307,1.083-.625,1.616-.945l.968-.577a10.019,10.019,0,0,1-3.222.594,7.028,7.028,0,0,1-1.983-.279,15.017,15.017,0,0,1-2.919-1.33,21.988,21.988,0,0,0-2.026-1.014,6.816,6.816,0,0,0-2.143-.547C169.778,96.389,169.683,96.386,169.588,96.386Zm-.02-2a5.777,5.777,0,0,1,.735.047,12.062,12.062,0,0,1,4.149,1.62,14.934,14.934,0,0,0,3.3,1.458,5.526,5.526,0,0,0,1.389.175,12.278,12.278,0,0,0,4.561-1.24,17.414,17.414,0,0,1,3.224-1.1,8.742,8.742,0,0,1,1.534-.166h.171l.076-.044c.165-.1.349-.192.543-.292a4.263,4.263,0,0,0,1.548-1.107A4.9,4.9,0,0,0,191.4,91.7v0c.034-.235.067-.458.107-.661.015-.075.033-.163.049-.25h-.005a4.685,4.685,0,0,0-.869.07,12.9,12.9,0,0,0-2.67.869c-.374.159-.752.325-1.118.486a27.12,27.12,0,0,1-3.845,1.464,14.24,14.24,0,0,1-3.676.525,10.618,10.618,0,0,1-1.515-.107,8.534,8.534,0,0,1-2.365-.715,15.348,15.348,0,0,1-2.146-1.238l-.228-.155-.148-.1a5.737,5.737,0,0,0-2.985-1.325,2.317,2.317,0,0,0-1.057.256,7.44,7.44,0,0,0-1.047.691,8.456,8.456,0,0,1-.927.628,8.674,8.674,0,0,1-2.242.867,9.884,9.884,0,0,1-2.22.249,9.569,9.569,0,0,1-1.937-.194l.021,1.877c1.117.461,2.213.929,3.137,1.325.658-.225,1.281-.489,2.015-.815l.463-.208A8.084,8.084,0,0,1,169.569,94.387Zm.447-6a4.083,4.083,0,0,1,.726.067,9.431,9.431,0,0,1,3.552,1.782l.389.268.2.134a10.014,10.014,0,0,0,2.138,1.1,7.108,7.108,0,0,0,2.374.424h.076a11.934,11.934,0,0,0,2.7-.332,21.716,21.716,0,0,0,2.608-.8c.358-.131.714-.269,1.058-.4a17.528,17.528,0,0,1,4.091-1.2,7.387,7.387,0,0,1,.914-.058,5.724,5.724,0,0,1,.964.077c.087-.483.166-.945.241-1.412.159-.978.3-2,.429-3.035a4.852,4.852,0,0,0-1.261-.165,11.33,11.33,0,0,0-4.9,1.644,18.145,18.145,0,0,1-3.061,1.336,9.728,9.728,0,0,1-2.7.376,9.992,9.992,0,0,1-2.685-.366,13.053,13.053,0,0,1-3.7-1.912c-.172-.114-.368-.243-.558-.367l-.254-.164a3.717,3.717,0,0,0-1.919-.747,1.839,1.839,0,0,0-.345.033,4.012,4.012,0,0,0-1.413.709c-.2.138-.4.268-.595.38a10.3,10.3,0,0,1-2.218.924,11.437,11.437,0,0,1-2.37.412c-.24.016-.485.025-.728.025a11.276,11.276,0,0,1-3.284-.494l.044,4.155a6.368,6.368,0,0,0,1.473.3c.184.014.37.021.553.021a7.058,7.058,0,0,0,2-.285,6.884,6.884,0,0,0,1.838-.854l.662-.439A5.338,5.338,0,0,1,170.015,88.384ZM171.41,82.6a4.57,4.57,0,0,1,1.8.4,9.564,9.564,0,0,1,1.636.922l.379.259a9.742,9.742,0,0,0,4.635,1.991c.222.02.447.031.669.031a10.887,10.887,0,0,0,4.589-1.242l.4-.183a12.785,12.785,0,0,1,5.048-1.46,4.372,4.372,0,0,1,2.05.47c.164-1.553.29-3.167.374-4.8a2.7,2.7,0,0,0-.955-.192h-.019a7.8,7.8,0,0,0-2.5.539c-.925.327-1.83.746-2.706,1.152h0c-.75.348-1.526.708-2.311,1.007a10.757,10.757,0,0,1-3.835.762,8.092,8.092,0,0,1-1.281-.1,5.855,5.855,0,0,1-2.129-.783,8.712,8.712,0,0,1-1.76-1.447l-.16-.169-.034-.036a3.323,3.323,0,0,0-1.68-1.182,1.748,1.748,0,0,0-.33-.031,3.508,3.508,0,0,0-1.631.545c-.478.265-.941.567-1.388.859a10.63,10.63,0,0,1-3.1,1.565,7.891,7.891,0,0,1-1.967.24,12.324,12.324,0,0,1-4.771-1.081c.009,1.292.019,2.61.03,3.849a9.816,9.816,0,0,0,1.253.378,9.217,9.217,0,0,0,4.618-.137,8.887,8.887,0,0,0,2.035-1,8.109,8.109,0,0,1,2.184-1.031A3.582,3.582,0,0,1,171.41,82.6Zm1.861-6.159a3.729,3.729,0,0,1,1.9.531,7.2,7.2,0,0,1,1.556,1.27l.118.123a6.42,6.42,0,0,0,1.784,1.385,4.686,4.686,0,0,0,2.128.476c.17,0,.348-.007.529-.022a15.311,15.311,0,0,0,4.616-1.4l.606-.255.152-.063A11.6,11.6,0,0,1,190.9,77.4a5.273,5.273,0,0,1,.743.051,5.1,5.1,0,0,1,1.39.4c.064-1.494.1-3.043.106-4.736a3.625,3.625,0,0,0-2.388-.8,4.663,4.663,0,0,0-1.257.173,12.649,12.649,0,0,0-3,1.466,17.075,17.075,0,0,1-2.2,1.187,7.113,7.113,0,0,1-2.732.582,5.9,5.9,0,0,1-2.134-.4,13.71,13.71,0,0,1-2.712-1.553,19.746,19.746,0,0,0-1.841-1.154,5.068,5.068,0,0,0-2.335-.712,2.68,2.68,0,0,0-.353.023,3.253,3.253,0,0,0-2.006,1.35l-.293.349a11.717,11.717,0,0,1-1.51,1.543,5.7,5.7,0,0,1-1.9,1.038,5.882,5.882,0,0,1-1.765.27,6.49,6.49,0,0,1-2.859-.686,13.74,13.74,0,0,1-1.373-.82l-.091-.059.025,3.371a14.408,14.408,0,0,0,2.994,1.165,7.04,7.04,0,0,0,1.66.209,5.97,5.97,0,0,0,1.869-.3,7.651,7.651,0,0,0,1.8-.874l.177-.115c.148-.1.3-.2.432-.287a7.686,7.686,0,0,1,3.7-1.631C173.121,76.446,173.2,76.444,173.271,76.444Zm-12.907-6.423c.01.6.01,1.215.01,1.8v0c0,.234,0,.476,0,.713.352.2.693.423,1.022.638l.254.165.146.092a5.7,5.7,0,0,0,2.955,1.03,3.875,3.875,0,0,0,1.195-.193,5.416,5.416,0,0,0,2.452-1.981h0c.237-.284.482-.578.746-.854a5.108,5.108,0,0,1,1.523-1.108,4.283,4.283,0,0,1,1.823-.408c.059,0,.12,0,.18,0a8.132,8.132,0,0,1,4.082,1.5c.3.194.6.407.892.612h0a9.886,9.886,0,0,0,2.924,1.6,4.054,4.054,0,0,0,1.085.148,5.64,5.64,0,0,0,2.2-.507,20.442,20.442,0,0,0,2.131-1.114,11.507,11.507,0,0,1,3.535-1.545,4.979,4.979,0,0,1,.855-.074,4.9,4.9,0,0,1,1.483.226,3.966,3.966,0,0,1,1.285.672c-.01-1.633-.044-3.424-.106-5.474a15.063,15.063,0,0,0-5.094,1.471,24.071,24.071,0,0,1-3.128,1.145,8.066,8.066,0,0,1-2.053.266,9.79,9.79,0,0,1-3.052-.525,31.085,31.085,0,0,1-2.989-1.2h0l-.344-.152a9.131,9.131,0,0,0-3.584-.955,4.809,4.809,0,0,0-.766.061,11.2,11.2,0,0,0-3.754,1.624l-.019.011-.278.163-.243.14a17.729,17.729,0,0,1-3.165,1.457,10.577,10.577,0,0,1-3.379.571C160.915,70.055,160.638,70.044,160.364,70.021Zm-.277-4.489a1.606,1.606,0,0,1-.1.294,18.52,18.52,0,0,1,.3,2.3,9.341,9.341,0,0,0,1,.055,8.615,8.615,0,0,0,1.751-.177,14.17,14.17,0,0,0,4.161-1.849c.555-.322,1.129-.656,1.71-.949-.4.015-.8.032-1.181.048h0c-1.544.067-2.979.138-4.386.218-.283.015-.58.05-.893.087a11.615,11.615,0,0,1-1.333.1A3.432,3.432,0,0,1,160.087,65.532Zm22.128-.656c-1.732.012-3.524.024-5.284.062l-.642.015h-.076c.582.226,1.152.478,1.828.787l.606.278a9.753,9.753,0,0,0,4.054,1.1c.147,0,.295-.005.44-.016a15.282,15.282,0,0,0,4.1-1.087c.276-.1.561-.206.845-.306a11.75,11.75,0,0,1,3.87-.742,7.411,7.411,0,0,1,1.059.074V65.01c0-.14-.008-.284-.014-.429-3.582.247-7.241.271-10.78.3Z" transform="translate(-50.07 -1.479)"/>
    </g>
    <g id="HEAD" transform="translate(78.592 38.043)">
      <path id="_Skin-2" data-name="âœ‹ Skin" d="M73.041,35.344A101.344,101.344,0,0,0,71.7,21.386,14.083,14.083,0,0,0,69,15.3a24.583,24.583,0,0,0-4.537-4.175C61.17,8.587,58,5.776,54.317,3.812A32.884,32.884,0,0,0,42.994.279,35.317,35.317,0,0,0,20.72,4.862,38.262,38.262,0,0,0,5.927,21.33,41.384,41.384,0,0,0,2.5,31.874a72.683,72.683,0,0,0-.669,13.139c.009,1.482,0,2.962-.077,4.44a13.231,13.231,0,0,0-.185,2.222A7.121,7.121,0,0,0,.434,58.522c1.454,3.77,5.581,5.485,9.328,4.827a9.679,9.679,0,0,0,1.075,2.886,53.354,53.354,0,0,0,2.843,4.688,40.981,40.981,0,0,0,7.4,8.391,35.288,35.288,0,0,0,20.409,8.468,30.814,30.814,0,0,0,19.567-5.535,26.483,26.483,0,0,0,7.238-7.684,31.546,31.546,0,0,0,3.954-11.779c1.34-9.012,1.268-18.361.8-27.44Z" transform="translate(13.914 17.542)" fill="#d08b5b"/>
      <path id="_Ink-2" data-name="ðŸ– Ink" d="M59.49,106.657a23.683,23.683,0,0,1-6.384-.858c-4.1-1.149-7.061-2.917-8.789-5.256a1.776,1.776,0,0,1-.274-1.346,2.3,2.3,0,0,1,.608-1.247,2.028,2.028,0,0,1,1.467-.6,2.583,2.583,0,0,1,1.119.268c.717.349,1.412.764,2.083,1.166a24.569,24.569,0,0,0,2.38,1.306,19.43,19.43,0,0,0,4.435,1.341,19.906,19.906,0,0,0,3.741.348,21.219,21.219,0,0,0,5.5-.721A22.368,22.368,0,0,0,69.3,99.594a22.977,22.977,0,0,0,6.711-4.921,22.623,22.623,0,0,0,2.581-3.3,28.825,28.825,0,0,0,2.277-4.353,35.543,35.543,0,0,0,1.565-4.621,47.493,47.493,0,0,0,1-4.8c.24-1.505.434-3.1.594-4.881a103.743,103.743,0,0,0-.276-21.495c-.382-3.205-.982-6.639-1.835-10.5-.359-1.627-.756-3.273-1.139-4.865v0c-.2-.825-.4-1.678-.6-2.519-.531-.508-1.044-1.033-1.523-1.56h-.015a1.172,1.172,0,0,1-.2.032c-.564.043-1.118.065-1.646.065a15.362,15.362,0,0,1-3.6-.4,10.08,10.08,0,0,1-3.3-1.42A9.119,9.119,0,0,1,68.513,28.9,8.533,8.533,0,0,1,67.4,27.515a9,9,0,0,1-2.314-2.3c-.421-.463-.836-.964-1.232-1.489a15.9,15.9,0,0,1-2.026-4.016l-.039-.1a.587.587,0,0,1-.029-.1,1.759,1.759,0,0,1-.227-.581c-1.23-.146-2.532-.253-3.871-.317-.41-.019-.857-.037-1.366-.053a6.146,6.146,0,0,1,.208,1.386,9.947,9.947,0,0,1,1.127.121,5.463,5.463,0,0,1,2.291.9,7.7,7.7,0,0,1,1.76,1.766,19.652,19.652,0,0,1,2.545,4.757A2.1,2.1,0,0,1,64.205,29a2.937,2.937,0,0,1-.952,1.254,21.7,21.7,0,0,0-3.261.519,16.954,16.954,0,0,0-3.129,1.083.338.338,0,0,0-.157.16c-1.743.521-3.338.946-4.876,1.3a12.3,12.3,0,0,1-2.764.351,7.969,7.969,0,0,1-1.978-.237,12.863,12.863,0,0,1-2-.712,1.66,1.66,0,0,1-.2.012,1.831,1.831,0,0,1-.918-.259c-.6-.342-1.187-.712-1.755-1.1a29.851,29.851,0,0,1-3-1.627l-.005-.007a11,11,0,0,0-1.373-1.383,12.218,12.218,0,0,0-1.717-1.223,3.877,3.877,0,0,1-.351-.66,3.579,3.579,0,0,1-.212-2.015,2.843,2.843,0,0,1,1.018-1.714,1.15,1.15,0,0,1,.443-.844c.228-.186.469-.368.718-.542l-.063-.046-.092-.068c-.09-.069-.186-.148-.293-.244-.668.367-1.459.792-2.26,1.164l-.018.014h0l-.039.028c-.643.423-1.281.882-1.9,1.326-.767.551-1.559,1.121-2.367,1.627-.25.156-.5.311-.746.461l-.008.005-.289.178c-.138.189-.262.366-.379.54a5.379,5.379,0,0,1-.23.838,1.574,1.574,0,0,1,.452.591,6.649,6.649,0,0,1,1.279.655l.353.157a9.2,9.2,0,0,1,1.449-.969,5.835,5.835,0,0,1,2.442.813,11.044,11.044,0,0,1,2.151,1.612c.1.111.177.2.25.295.058.047.116.1.173.144l.061.052c.125.135.245.271.355.4a.746.746,0,0,0,.4.265,10.754,10.754,0,0,1,1.94,2.334c.777,1.333.229,2.994-.335,4.292-.091.21-.19.422-.293.63-1.093,1.476-2.133,3-3.139,4.474-.773.749-1.415,1.384-2.037,2.047a3.517,3.517,0,0,1-.345.206,3.437,3.437,0,0,1-1.612.391,8.361,8.361,0,0,1-3.091-.851c-.29-.12-.589-.245-.884-.357l-.2-.076c-.233-.084-.477-.167-.713-.246A9.046,9.046,0,0,1,25.3,42.968a2.9,2.9,0,0,1-.84-.911,2.932,2.932,0,0,1-.37-1.347,7.1,7.1,0,0,1,.03-1.023,37.349,37.349,0,0,1,1.584-3.61,2.325,2.325,0,0,1-.316-.432,3.623,3.623,0,0,1-.471-.778c-.162.31-.324.629-.481.937a26.233,26.233,0,0,1-2.344,4,2.786,2.786,0,0,1-1.024.853,2.737,2.737,0,0,1-1.173.247h-.008a1.924,1.924,0,0,1-.865.2,2.024,2.024,0,0,1-.237-.014l.039.448c.028.31.069.717.131,1.114h.067a6.284,6.284,0,0,1,2.284.5c1.512.6,3,1.369,4.446,2.114h0c.616.318,1.252.646,1.878.955.288.142.6.276.935.417a7.749,7.749,0,0,1,2.276,1.27,1.875,1.875,0,0,1,.319,2.1c-.027.085-.056.171-.083.255v0l-.044.133,0,.042A9.026,9.026,0,0,0,29.56,53.35a11.526,11.526,0,0,0-1.186,3,19.2,19.2,0,0,0-.457,2.535l-.025.234-.014.027-.007.2a26.022,26.022,0,0,0,0,4.528c.037.443.081.851.133,1.248a.873.873,0,0,1-.414.5,1.343,1.343,0,0,1-.662.162,1.4,1.4,0,0,1-.852-.271,18.38,18.38,0,0,0-2-1.357,4.14,4.14,0,0,1-1.731.377,4.291,4.291,0,0,1-1.365-.225c-.059-.019-.115-.042-.17-.064l-.049-.02a14.839,14.839,0,0,0-2.327.5l-.225.067a7.284,7.284,0,0,0-3.24,1.73,6.592,6.592,0,0,0-1.619,3.019,8.772,8.772,0,0,0-.256,1.738,8.863,8.863,0,0,0,.083,1.712,8.054,8.054,0,0,0,1.179,3.181,5.453,5.453,0,0,0,1.126,1.263,4.151,4.151,0,0,0,1.492.777,4.733,4.733,0,0,0,1.27.177,4.073,4.073,0,0,0,1.523-.286,3.968,3.968,0,0,0,.913-.547c.1-.073.19-.15.279-.224a2.864,2.864,0,0,1,.764-.506,3.586,3.586,0,0,1,1.1-.147l.117,0H23a1.147,1.147,0,0,1,.741.284,1.477,1.477,0,0,1,.447.662,2.672,2.672,0,0,1-.092,2.067,3.683,3.683,0,0,1-1.422,1.462c.22.333.436.677.645,1.009.292.463.594.942.9,1.383.9,1.305,1.906,2.653,3.072,4.121a38.4,38.4,0,0,0,3.537,3.91c.576.551,1.174,1.087,1.777,1.591l.337.279a3.844,3.844,0,0,1,.744.763,1.7,1.7,0,0,1,.3,1.029,1.08,1.08,0,0,1-.776,1.022,1.7,1.7,0,0,1-.445.059c-1.277,0-2.565-1.384-3.5-2.395h0c-.146-.157-.284-.305-.412-.438l-.083-.085a37.217,37.217,0,0,1-3.531-4.146,24.492,24.492,0,0,1-2.738-4.9,22.684,22.684,0,0,1-.967-2.639,9.866,9.866,0,0,1-3.438.651,6.282,6.282,0,0,1-.713-.038,8.269,8.269,0,0,1-2.82-.847,3.817,3.817,0,0,1-.691,1.055A5.226,5.226,0,0,1,9.89,83.957H9.8a4.014,4.014,0,0,1-2.523-.869,3.136,3.136,0,0,1-.814-1.016,3.259,3.259,0,0,1-.336-1.359A3.555,3.555,0,0,1,6.551,78.9a4.435,4.435,0,0,1,1.2-1.4,3.408,3.408,0,0,1,.8-1.2,2.768,2.768,0,0,1,1.279-.7,12.1,12.1,0,0,1-.284-6.45,10.262,10.262,0,0,1,1.213-2.956,8.662,8.662,0,0,1,2.1-2.372l.1-.072-.04.022c-.252.139-.5.288-.748.432h0c-.139.082-.282.166-.426.249l-.176.1A13.825,13.825,0,0,1,9.386,65.58a6.888,6.888,0,0,1-2.332.443,5.12,5.12,0,0,1-1.288-.162,3.866,3.866,0,0,1-1.04-.434,3.337,3.337,0,0,1-.78-.655,3.282,3.282,0,0,1-.777-1.731A3.525,3.525,0,0,1,3.5,61.026,3.788,3.788,0,0,1,5.037,59.4a8.356,8.356,0,0,1,3.158-.894,2.877,2.877,0,0,1,.6-.59,2.54,2.54,0,0,1,1.062-1.946,2.266,2.266,0,0,1,1.332-.428,2.67,2.67,0,0,1,.791.125,4.143,4.143,0,0,1,.856-.5,4.352,4.352,0,0,1,.819-.261c0-.155-.006-.313-.008-.465v-.028q0-.085,0-.17c-.044-.205-.07-.418-.1-.644v0l-.016,0c-.041-.007-.088-.015-.132-.024a4.822,4.822,0,0,1-1.92-.91,3.715,3.715,0,0,1-2.015.593A4.47,4.47,0,0,1,8.2,53.059a4.219,4.219,0,0,1-1.69-1.035A5.46,5.46,0,0,1,5.3,50.29a5.983,5.983,0,0,1-2.168-.807,3,3,0,0,1-.694.082,2.6,2.6,0,0,1-1.374-.377A2.319,2.319,0,0,1,.129,48.05a2.111,2.111,0,0,1,0-1.449,2.484,2.484,0,0,1,.855-1.184.55.55,0,0,1,.332-.115.611.611,0,0,1,.336.109,3.622,3.622,0,0,1,.167-.447c.028-.061.057-.119.085-.174a3.986,3.986,0,0,1,.337-1.758,2.961,2.961,0,0,1,1.2-1.329,3.169,3.169,0,0,1,1.616-.433,3.594,3.594,0,0,1,1.091.172,4.2,4.2,0,0,1,1.879-1,4,4,0,0,1,.967-.119,3.841,3.841,0,0,1,1.5.3,3.751,3.751,0,0,1,1.275.883,4.1,4.1,0,0,1,.645-.133,2.713,2.713,0,0,1,.675-1.54,3.257,3.257,0,0,1,1.008-.72,3.738,3.738,0,0,1,.919-1.7,3.809,3.809,0,0,1-.615-.655,4.108,4.108,0,0,1-.583-.137,3.881,3.881,0,0,1-2.2-1.773,3.609,3.609,0,0,1-.9.116,3.414,3.414,0,0,1-1.838-.55,3.553,3.553,0,0,1-1.428-1.83L6.7,32.322A2.824,2.824,0,0,1,5.79,31.8a2.561,2.561,0,0,1-.6-.757,1.386,1.386,0,0,1-.469.087,1.022,1.022,0,0,1-.641-.215,2.164,2.164,0,0,1-.9-2.233A2.845,2.845,0,0,1,4,27.265a3.337,3.337,0,0,1,1.547-.849,3.6,3.6,0,0,1,.831-.1,3.323,3.323,0,0,1,1.414.321,3.662,3.662,0,0,1,1.727-.944,3.239,3.239,0,0,1,.718-.08,3.766,3.766,0,0,1,1.614.379l.187,0a3.132,3.132,0,0,1,1.91-.629,4.019,4.019,0,0,1,.894.106,4.416,4.416,0,0,1,1.647.74,4.489,4.489,0,0,1,1.125,1.227,3.361,3.361,0,0,1,.644-.456,3.127,3.127,0,0,1,1.514-.387,3.372,3.372,0,0,1,.553.046c.24-.343.479-.67.71-.972a2.651,2.651,0,0,1-.706-.844,2.46,2.46,0,0,1-.288-1.089c-.141-.088-.278-.186-.411-.28l-.095-.067a4.372,4.372,0,0,1-1.767-2.2,4.2,4.2,0,0,1-.19-1.45c-.081-.018-.167-.038-.254-.063a4.64,4.64,0,0,1-2.177-1.388,5.248,5.248,0,0,1-1.172-2.257,4.915,4.915,0,0,1,0-2.362,4.34,4.34,0,0,1,1.246-2.1,2.616,2.616,0,0,1,1.853-.7,5.589,5.589,0,0,1,3.045,1.1,10.44,10.44,0,0,1,2.367,2.385l.042.007c.017,0,.035.005.053.009a3.6,3.6,0,0,1,1.31.615,4.63,4.63,0,0,1,1.009,1.042,4.07,4.07,0,0,1,.7-.061,3.864,3.864,0,0,1,1.194.188,4.072,4.072,0,0,1,1.152.6,3.688,3.688,0,0,1,1.365,1.835,26.941,26.941,0,0,1,2.8-1.258c.056-.136.125-.3.2-.451a2.8,2.8,0,0,1,.562-.758,4.36,4.36,0,0,1-.631-.915,4.124,4.124,0,0,1-.457-2.37,4.347,4.347,0,0,1,.84-2.088,4.518,4.518,0,0,1-.284-2.879,4.15,4.15,0,0,1,.163-.518,6.426,6.426,0,0,1-1-2.88,4.211,4.211,0,0,1,.213-1.766,4.094,4.094,0,0,1,.848-1.424A3.784,3.784,0,0,1,35.34,0a3.429,3.429,0,0,1,1.071.172,3.223,3.223,0,0,1,1.295.444,2.737,2.737,0,0,1,.7.6,2.263,2.263,0,0,1,.393.7A2.431,2.431,0,0,1,38.8,3.42a3.3,3.3,0,0,1,1.172,1.62,2.984,2.984,0,0,1-.01,1.926,3.276,3.276,0,0,1,1.5,2.259,3.426,3.426,0,0,1-.07,1.33,3.462,3.462,0,0,1,1.511.971,2.466,2.466,0,0,1,.616,1.69c.409.026.8.039,1.181.039.3,0,.6-.008.888-.024a3.169,3.169,0,0,1,.4-.81,3.1,3.1,0,0,1,1.46-1.078l.079-.029v-.155a1.63,1.63,0,0,1-.43-.821,1.287,1.287,0,0,1,.252-.958,1.269,1.269,0,0,1,.288-.292,6.6,6.6,0,0,1,.179-.864,1.363,1.363,0,0,1-.2-1.124.873.873,0,0,1,.509-.59,4.737,4.737,0,0,1,0-1.632,4.229,4.229,0,0,1,.585-1.514,4.579,4.579,0,0,1,1.07-1.178,4.9,4.9,0,0,1,3-1.037c.06,0,.121,0,.18,0a3.932,3.932,0,0,1,.821.121,7.485,7.485,0,0,1,1.629.363A.908.908,0,0,1,56.056,2.8,3.754,3.754,0,0,1,56.8,4.723a3.364,3.364,0,0,1-.077,1.057,3.568,3.568,0,0,1-.439,1.051c-.027.044-.056.086-.085.127l-.018.025a1.463,1.463,0,0,1,.427.513,1.567,1.567,0,0,1,.154.88,1.434,1.434,0,0,1-.367.812,1.065,1.065,0,0,1-.415.271l0,.045a9.386,9.386,0,0,1-.389,2.152A5.136,5.136,0,0,1,56.682,13.1a4.719,4.719,0,0,1,.5,1.732c.357.033.7.072.995.1a1.344,1.344,0,0,1,.557-.866,3.661,3.661,0,0,1,.81-.466,3.523,3.523,0,0,1,1.026-1.9,4.167,4.167,0,0,1,.675-.52,4.214,4.214,0,0,1,.574-2.232,3.279,3.279,0,0,1,1.433-1.3A3.952,3.952,0,0,1,65.589,5.71a1.954,1.954,0,0,1,.641-.107,2.756,2.756,0,0,1,1.752.712l.144.127a2.045,2.045,0,0,1,.6,1.033,2.313,2.313,0,0,1-.01,1.2,3.5,3.5,0,0,1-.523,1.088,2.517,2.517,0,0,1-.132,1.569,2.6,2.6,0,0,1-.93,1.106,6.9,6.9,0,0,1,.7,1.287A1.881,1.881,0,0,1,67.858,15a2.891,2.891,0,0,1-.677,1.149,3.526,3.526,0,0,1,.5,1.415,3.743,3.743,0,0,1,.8.139,2.8,2.8,0,0,1,.827-1.314,5.25,5.25,0,0,1,.637-.973,2.726,2.726,0,0,1,1.406-.917,1.835,1.835,0,0,1,.3-.478,3.033,3.033,0,0,1,.744-2.278,2.293,2.293,0,0,1,.716-.534,2.1,2.1,0,0,1,.9-.2,8.063,8.063,0,0,1,.392-1.022,2.2,2.2,0,0,1,1.655-1.18A2.955,2.955,0,0,1,77,7.544a3.18,3.18,0,0,1,1.673-.6c.105-.009.212-.014.317-.014a3.786,3.786,0,0,1,3.024,1.625,5.656,5.656,0,0,1,1,2.222,5.013,5.013,0,0,1-.041,2.38,3.624,3.624,0,0,1-.549,1.132,3.457,3.457,0,0,1-.906.869,2.887,2.887,0,0,1-.555.277,2.441,2.441,0,0,1-.762.684,2.241,2.241,0,0,1-.221.114,2.555,2.555,0,0,1-.539,1.59,2.658,2.658,0,0,1-1.32.917,2.629,2.629,0,0,1-.706,2.118l-.041.04-.084.076-.007.033a1.793,1.793,0,0,1-.111,1.6,4.584,4.584,0,0,0,.252,1.285,9.712,9.712,0,0,1,1.525,1.572,1.2,1.2,0,0,1,.792-.311,1,1,0,0,1,.356.064,1.493,1.493,0,0,1,.329-.072,2.827,2.827,0,0,1,.285-.014c.078,0,.16,0,.242.009a2.285,2.285,0,0,1,.275-.33,1.984,1.984,0,0,1,1.427-.577,2.6,2.6,0,0,1,1.216.317,2.575,2.575,0,0,1,.515-.29,2.158,2.158,0,0,1,.84-.181,2.577,2.577,0,0,1,2.029,1.306,5.888,5.888,0,0,1,.907,2.412,1.252,1.252,0,0,1-.277.977,1.743,1.743,0,0,1-1.229.578,1.478,1.478,0,0,1-.489.715,1.978,1.978,0,0,1-.812.395,1.506,1.506,0,0,1-.216,1,1.672,1.672,0,0,1-.768.676,1.575,1.575,0,0,1-.614.129,1.453,1.453,0,0,1-.194-.013l.012.165a1.176,1.176,0,0,1-.734,1.258,1,1,0,0,1-.578.681,54.785,54.785,0,0,1,2.567,7.569,89.906,89.906,0,0,1,2.361,12.763,101.11,101.11,0,0,1,.679,11.432,97.247,97.247,0,0,1-.645,11.434,51.632,51.632,0,0,1-.957,5.7,32.638,32.638,0,0,1-1.766,5.5,28.29,28.29,0,0,1-2.256,4.221,42.671,42.671,0,0,1-2.829,3.862A28.385,28.385,0,0,1,76.07,100.3a27.376,27.376,0,0,1-3.9,2.838,25.35,25.35,0,0,1-4.334,2.076,23.17,23.17,0,0,1-4.665,1.178A26.216,26.216,0,0,1,59.49,106.657ZM19.736,53.863a.663.663,0,0,0-.61.471.64.64,0,0,0,.408.767l.034.013a3.262,3.262,0,0,1,1.11.686l.068.064a.6.6,0,0,0,.422.182.692.692,0,0,0,.619-.435.569.569,0,0,0-.146-.644A4.725,4.725,0,0,0,19.9,53.891.5.5,0,0,0,19.736,53.863ZM34.563,30.48a.715.715,0,0,0-.568.321.643.643,0,0,0-.066.614l.015.034a2,2,0,0,1,.16,1.034,2.751,2.751,0,0,1-.31,1.005l-.032.06a.591.591,0,0,0,0,.606.712.712,0,0,0,.594.345.563.563,0,0,0,.5-.311,3.9,3.9,0,0,0,.5-1.671,3.555,3.555,0,0,0-.32-1.708A.509.509,0,0,0,34.563,30.48Zm9.109-9.29a.735.735,0,0,0-.553.26.629.629,0,0,0-.132.535,3.166,3.166,0,0,0,.853,1.653,4.062,4.062,0,0,0,1.592.981.648.648,0,0,0,.214.039.5.5,0,0,0,.367-.156.686.686,0,0,0,.179-.364.7.7,0,0,0-.061-.433.628.628,0,0,0-.362-.308,2.208,2.208,0,0,1-1.547-1.675l-.015-.073a.52.52,0,0,0-.535-.458Zm20.268-.762.164.216c.019-.084.035-.148.051-.207ZM22.265,73.182a1.025,1.025,0,0,1-.73-.329l-.033-.034a10.877,10.877,0,0,0-2.475-1.95,11.156,11.156,0,0,0-1.05-.531h0c-.126-.058-.256-.118-.385-.18a2.215,2.215,0,0,1-.454-.312,2.374,2.374,0,0,0-.4-.281.094.094,0,0,1-.047-.1.1.1,0,0,1,.07-.084,4.334,4.334,0,0,0,.458-.142,1.831,1.831,0,0,1,.7-.142c.068,0,.138,0,.216.009a9.127,9.127,0,0,1,1.518.256,9.391,9.391,0,0,1,3.234,1.646,1.266,1.266,0,0,1,.475.643,1.112,1.112,0,0,1-.015.676A1.216,1.216,0,0,1,22.265,73.182Z" transform="translate(1.687 0.634)"/>
    </g>
    <g id="FACE" transform="translate(112.183 77.354)">
      <path id="teeth" d="M0,4.724C0,.837,5.719,0,10.655,0S21.137,1.139,21.137,4.724,15.322,8.88,11.7,8.88,0,8.611,0,4.724Z" transform="translate(21.287 44.13)" fill="#fff"/>
      <ellipse id="eye" cx="8.028" cy="6.763" rx="8.028" ry="6.763" transform="translate(13.31 17.542)" fill="#fff"/>
      <ellipse id="eye-2" data-name="eye" cx="6.655" cy="6.763" rx="6.655" ry="6.763" transform="translate(38.028 17.542)" fill="#fff"/>
      <path id="_Ink-3" data-name="ðŸ– Ink" d="M20.6,45.254A33.642,33.642,0,0,1,16.558,45l-.812-.1a26.679,26.679,0,0,1-2.907-.5,9.041,9.041,0,0,1-2.694-1.073,4.686,4.686,0,0,1-1.76-1.974,3.385,3.385,0,0,1-.146-2.6,3.985,3.985,0,0,1,1.882-2.046,15.128,15.128,0,0,1,2.641-1.127l.045-.016a17.946,17.946,0,0,1,5.971-1.024c.492,0,.99.021,1.478.062a7.223,7.223,0,0,1,2.444-.413,10.476,10.476,0,0,1,3.6.706l.178.067a12.6,12.6,0,0,1,2.805,1.449,5.414,5.414,0,0,1,2,2.343A3.307,3.307,0,0,1,31.51,39.9c.26.026.5.058.726.1a.451.451,0,0,1,.361.461.5.5,0,0,1-.361.514,9.194,9.194,0,0,1-.907.149,4.444,4.444,0,0,1-.633,1.24,4.717,4.717,0,0,1-.976,1c-1.76,1.333-4.229,1.569-6.212,1.759C22.557,45.208,21.581,45.254,20.6,45.254Zm-3.688-4.526c.018.414.035.834.05,1.24l.014.363a.762.762,0,0,1-.121.44,29.482,29.482,0,0,0,3.428.2h.026a6.936,6.936,0,0,1-.234-2.03v-.019C18.924,40.861,17.889,40.8,16.915,40.728Zm4.241.24.092.345a5.825,5.825,0,0,1,.253,1.631c.549-.021,1.089-.054,1.605-.1l.68-.058.468-.042c.029-.457.079-.924.127-1.376.01-.1.021-.195.031-.291C23.207,41.045,22.142,41.009,21.157,40.968Zm4.306.134c.048.475.1.984.115,1.484a8.149,8.149,0,0,0,2.458-.721,2.924,2.924,0,0,0,.882-.667c-.329-.008-.663-.02-.985-.031-.4-.014-.808-.029-1.2-.035l-.411-.008h-.011l-.845-.02ZM10.314,39.978h0c.057,1.018,1.66,1.746,2.5,1.988a24.373,24.373,0,0,0,2.413.562.649.649,0,0,1-.017-.2l.027-.3h0c.042-.467.085-.949.13-1.423l-.437-.035-.407-.031h0a24.622,24.622,0,0,1-4.205-.561ZM20.374,36.09h0c.132,1.31.316,2.592.547,3.812l.437.009c.95.015,1.98.023,3.149.025v0c0-.047.005-.1.007-.152.035-.951.03-1.969-.015-3.2a28.306,28.306,0,0,0-4.076-.485l-.05,0Zm4.673.623c.1.956.2,1.979.3,3.22l.92,0,.46,0c.51,0,1.039-.027,1.551-.048h0c.354-.015.719-.03,1.078-.04a2.258,2.258,0,0,0-.838-1.358A8.689,8.689,0,0,0,25.047,36.713Zm-5.493-.868h0a22,22,0,0,0-3.01.536,6.161,6.161,0,0,1,.236,1.782c.007.2.014.411.028.611.021.3.04.618.062,1.036,1.214.03,2.224.053,3.18.073-.033-1.244-.013-2.527.06-3.812L20,36.063a.686.686,0,0,1-.441-.219Zm-7.631,3.794c.788,0,1.593.04,2.371.079.379.019.771.038,1.154.053.028-.267.051-.478.072-.664l.039-.332c.025-.2.042-.418.06-.625a7.059,7.059,0,0,1,.254-1.588c-.473.135-.937.284-1.378.444l-.5.18a15.38,15.38,0,0,0-1.923.82,4.152,4.152,0,0,0-1.526,1.224,1.359,1.359,0,0,0-.213.476C10.822,39.66,11.341,39.639,11.924,39.639ZM24.338,30.06h0a7.373,7.373,0,0,1-2.63-.53,13.281,13.281,0,0,1-3.093-1.756,1.189,1.189,0,0,1-.432-.687,1.423,1.423,0,0,1,.061-.771,1.754,1.754,0,0,1,.521-.753,1.267,1.267,0,0,1,.811-.317,1.151,1.151,0,0,1,.628.193l.209.161,0,0a16.743,16.743,0,0,0,1.936,1.347,4.768,4.768,0,0,0,2.321.74,2.505,2.505,0,0,0,.981-.193,2.741,2.741,0,0,0,.913-.647,2.8,2.8,0,0,0,.531-2.255,4.261,4.261,0,0,0-1.13-2,8.24,8.24,0,0,0-1.711-1.381.531.531,0,0,1-.143-.61.8.8,0,0,1,.264-.38.809.809,0,0,1,.505-.167,1.075,1.075,0,0,1,.182.016,5.736,5.736,0,0,1,2.018.729,4.577,4.577,0,0,1,1.357,1.252,4.974,4.974,0,0,1,.866,3.322,5.475,5.475,0,0,1-.444,1.744,5.087,5.087,0,0,1-1,1.5A4.779,4.779,0,0,1,24.338,30.06ZM8.55,23.441A11.947,11.947,0,0,1,5,22.909a7.015,7.015,0,0,1-2.512-1.39A7.1,7.1,0,0,1,.78,19.333,7.226,7.226,0,0,1,.4,13.7a6.553,6.553,0,0,1,1.69-2.622A7.8,7.8,0,0,1,4.7,9.45a6.087,6.087,0,0,1,1.08-1.379A6.024,6.024,0,0,1,7.14,7.1a6.952,6.952,0,0,1,3.216-.761,8.011,8.011,0,0,1,5.432,2.133,8.327,8.327,0,0,1,2.565,5.387,8.711,8.711,0,0,1-.261,3,8.289,8.289,0,0,1-1.308,2.754A8.542,8.542,0,0,1,15.146,21.3a9.454,9.454,0,0,1-2,1.195A11.411,11.411,0,0,1,8.55,23.441ZM4.461,10.976A6.756,6.756,0,0,0,2.814,12.89a5.973,5.973,0,0,0-.765,2.479,5.014,5.014,0,0,0,1.123,3.75,5.859,5.859,0,0,0,4.074,1.92c.341.027.682.041,1.013.041a10.851,10.851,0,0,0,2.119-.2,8.164,8.164,0,0,0,1.962-.647,6.22,6.22,0,0,0,2.941-2.91,5.61,5.61,0,0,0,.346-4.094A5.694,5.694,0,0,0,13.1,9.982a4.789,4.789,0,0,0-1.311-.538,5.912,5.912,0,0,0-1.432-.17,7.619,7.619,0,0,0-2.6.48,7.478,7.478,0,0,0-2.228,1.276.807.807,0,0,1-.52.207A.708.708,0,0,1,4.461,10.976Zm28.147,11.9a7.323,7.323,0,0,1-1.286-.113,6.99,6.99,0,0,1-2.547-1.01,7.831,7.831,0,0,1-2.013-1.864,7.741,7.741,0,0,1-1.254-2.437,6.847,6.847,0,0,1-.271-2.728,7.006,7.006,0,0,1,1.874-4.076.741.741,0,0,1,.031-.113A5.852,5.852,0,0,1,28.7,8.181a5.327,5.327,0,0,1,2.546-1.229,7.553,7.553,0,0,1,1.468-.142A7.473,7.473,0,0,1,39,10.085,8.759,8.759,0,0,1,40.2,12.556a8.056,8.056,0,0,1-.171,5.37A7.658,7.658,0,0,1,38.8,19.943a8.329,8.329,0,0,1-3.872,2.575A7.777,7.777,0,0,1,32.608,22.878Zm.064-13.095h0a6.649,6.649,0,0,0-3.935,1.25,6.44,6.44,0,0,0-1.3,5.337,5.784,5.784,0,0,0,1.9,2.95,5.4,5.4,0,0,0,1.513.886,4.856,4.856,0,0,0,1.735.324,4.764,4.764,0,0,0,.5-.026,5.647,5.647,0,0,0,3.238-1.5,5.358,5.358,0,0,0,1.092-1.422,4.78,4.78,0,0,0,.529-1.727,5.812,5.812,0,0,0-.713-3.421,5.43,5.43,0,0,0-1.09-1.376,4.915,4.915,0,0,0-1.507-.938,5.417,5.417,0,0,0-1.955-.34Zm1.073,7.491a1.3,1.3,0,0,1-.315-.039,1.7,1.7,0,0,1-1.136-1.9,1.914,1.914,0,0,1,.822-1.5.567.567,0,0,1,.334-.111.82.82,0,0,1,.7.533l.085.175.093.194.016.047c.017.032.037.062.056.091h0l.015.024c.016.011.136.16.181.216l.017.021A1.425,1.425,0,0,1,35,16.039a1.253,1.253,0,0,1-1.255,1.235ZM10.9,17.2A1.461,1.461,0,0,1,9.74,16.54a2.229,2.229,0,0,1,.272-2.552,1.009,1.009,0,0,1,.679-.267.909.909,0,0,1,.646.267,1.822,1.822,0,0,1,.311.454c.037.069.076.14.12.212l.069.109.035.053a1.691,1.691,0,0,1,.317.69,1.713,1.713,0,0,1-.1.938,1.232,1.232,0,0,1-.673.643A1.32,1.32,0,0,1,10.9,17.2ZM.992,8.632a.388.388,0,0,1-.3-.126,2.767,2.767,0,0,1-.054-3.02A8.676,8.676,0,0,1,2.59,2.848,11.937,11.937,0,0,1,5.543.967,8.783,8.783,0,0,1,9.055.123a4.926,4.926,0,0,1,1.516.225,2.016,2.016,0,0,1,1.018.775A2.359,2.359,0,0,1,12.02,2.33a1.627,1.627,0,0,1-.975,1.651,10.268,10.268,0,0,1-3,.7,10.3,10.3,0,0,0-3.091.732A5.877,5.877,0,0,0,2.793,6.976c-.09.11-.178.225-.272.347A4.04,4.04,0,0,1,1.233,8.575.559.559,0,0,1,.992,8.632ZM37.851,6.676a1.563,1.563,0,0,1-.789-.218,4.4,4.4,0,0,1-1.244-1.267,6.569,6.569,0,0,0-.806-.948,7.011,7.011,0,0,0-2.118-1.316A7.308,7.308,0,0,0,30.248,2.4H30.2a6.682,6.682,0,0,0-1.251.161c-.27.052-.549.106-.82.135a.029.029,0,0,1,0,.03c-.015.024-.073.037-.167.037a2.378,2.378,0,0,1-.643-.108c-.249-.106-.227-.417-.154-.588a2.624,2.624,0,0,1,1.2-1.162A7.428,7.428,0,0,1,32,0a9.759,9.759,0,0,1,1.664.147,8.166,8.166,0,0,1,3.405,1.435l.114.085A8.124,8.124,0,0,1,38.747,3.14a2.944,2.944,0,0,1,.714,1.941A1.693,1.693,0,0,1,38.95,6.22,1.575,1.575,0,0,1,37.851,6.676Z" transform="translate(11.831 8.877)"/>
    </g>
  </g>
</svg>
