<svg id="peep-17" xmlns="http://www.w3.org/2000/svg" width="240" height="324" viewBox="0 0 240 324">
  <g id="BODY" transform="translate(31.056 135.053)">
    <path id="_Top" data-name="ðŸ‘• Top" d="M72.565,0,69.98,6.392,71.4,26.655l1.06.165q16.788,2.6,22.815,2.63H95.4a49.018,49.018,0,0,0,14.547-2.713l.257-.083.652-15.172h-1.538l-2.783-6.527,0,0q.046.078.1.152c1.16,1.717,1.833.33,4.559.938,3.264.727,4.713,4.027,7.586,6.493,1.334,1.145,4.134,1.685,5.474,2.472l1.408.827c4.41,2.6,9.479,5.763,12.141,9.881a72.112,72.112,0,0,1,7.257,14.78,202.1,202.1,0,0,1,9.375,35.535c2.152,12.312,3.445,24.776,4.433,37.231q.686,8.658,1.168,17.329l.079,1.445c.169,3.145.022,6.223-2.836,8.16-2.048,1.387-4.766,1.6-7.169,1.741l-.131.008q-26.649,1.564-53.3,3.114L70.03,146.618q-6.651.39-13.3.774l-10.824.625c-5.1.29-10.209.542-15.317.512a150.4,150.4,0,0,1-19.194-1.369l-.562-.077c-4.006-.553-9.815-1.953-10.534-6.76A.881.881,0,0,1,1.31,139.3c-.168-.782-.272-1.566-.371-2.246a87.513,87.513,0,0,1-.828-8.771,121.653,121.653,0,0,1,.545-17.627c.971-9.677,2.333-19.338,3.74-28.965l.313-2.139a241.953,241.953,0,0,1,6.066-30.317C13.35,40.061,17.368,30.514,22.9,24.71A60.219,60.219,0,0,1,44.405,10.776c.7-.268,14.637-3.32,15.575-2.875l.169-.132c2.778-2.194,6.742-6.049,10.822-4.835l.009-.015c.1-.177.473-1.361.994-2.919Z" transform="translate(9.085 4.998)" fill="#8fa7df"/>
    <path id="_Skin" data-name="âœ‹ Skin" d="M5.532,5.367C8.907,1.086,12.465-.275,17.722.044a16.927,16.927,0,0,1,10.14,2.843,18.97,18.97,0,0,1,6.97,6c1.5,2.19.36,7.6,1.727,9.945q-.02.382-.02.7,0,3.04,4.229,6.785l.112.1V41.138a60.688,60.688,0,0,1-17.607,2.187,72.339,72.339,0,0,1-21.51-3.474l-.339-.106L0,23.74l1.424-4.429V15.6l.55-1.659C2.949,11.025,4.44,6.752,5.532,5.367Z" transform="translate(79.065 -8.877)" fill="#d08b5b"/>
    <path id="_Top-2" data-name="ðŸ‘• Top" d="M0,0S12.517,3.646,21.061,3.646,38.8,0,38.8,0L37.311,120.028l-24.016.294Z" transform="translate(80.489 30.869)" fill="#9fd8e5"/>
    <path id="_Ink" data-name="ðŸ– Ink" d="M32.456,154.525a1.7,1.7,0,0,1-1.632-1.2l-.014-.048-.041.032a8.839,8.839,0,0,1-.108-3.239c.03-.351.059-.683.075-1.01l.612-12.409c.161-3.267.318-6.581.47-9.787.256-5.417.521-11.017.813-16.525l.158-2.923c.2-3.695.373-7.553.517-11.794l.044-1.312a35.5,35.5,0,0,0-.178-5.766,15.819,15.819,0,0,0-1.7-5.479.163.163,0,0,1,0-.165.177.177,0,0,1,.149-.084.174.174,0,0,1,.116.045,13.3,13.3,0,0,1,2.141,2.42,16.536,16.536,0,0,1,1.582,2.872,20.5,20.5,0,0,1,1.562,6.325,68.487,68.487,0,0,1-.155,10.031c-.075,1.165-.152,2.368-.206,3.538-.054,1.193-.108,2.4-.16,3.575v0c-.165,3.722-.337,7.571-.547,11.353-.094,1.687-.192,3.4-.287,5.06v.015c-.189,3.3-.384,6.711-.556,10.068l-.584,11.358c-.015.3-.019.612-.022.943v0a8,8,0,0,1-.37,2.884A1.811,1.811,0,0,1,32.456,154.525Zm84.609-3.545a1.842,1.842,0,0,1-.785-.189,2.147,2.147,0,0,1-.673-.5,1.516,1.516,0,0,1-.414-1.18c.828-7.135,2.016-14.345,3.165-21.318l.059-.36c.993-6.028,2.153-12.265,3.446-18.536,1.228-5.955,2.619-12.144,4.133-18.394l.517-2.128a83.505,83.505,0,0,0,1.686-8.385,33.642,33.642,0,0,0,.186-8.515,22.347,22.347,0,0,0-1.924-6.888,16.641,16.641,0,0,0-1.863-3.061,13.385,13.385,0,0,0-2.525-2.509l-.117-.087a2.073,2.073,0,0,1-.866-1.482,1.611,1.611,0,0,1,.508-1.293c.531-.521,1.1-1.076,1.683-1.648l3.371-3.292.68-.665c.543-.53,1.127-1.1,1.722-1.637.082-.074.194-.162.323-.265h0c.426-.335,1.008-.794,1.063-1.2a2.234,2.234,0,0,0-.4-1.047c-.047-.083-.092-.161-.126-.227l-.761-1.536c-.35-.709-.7-1.434-1.031-2.135l-.241-.5c-.247-.515-.5-1.039-.743-1.545l0,0c-.619-1.285-1.258-2.614-1.872-3.931L120.126,25.5c-.334-.717-.666-1.456-.987-2.17v0a49.944,49.944,0,0,0-3.648-7.088l-.374-.56a6.4,6.4,0,0,1-.785-1.5,6.107,6.107,0,0,0-.778-1.637,4.513,4.513,0,0,0-1.667-1.316,7.719,7.719,0,0,0-2.036-.658.127.127,0,0,1-.114-.137.184.184,0,0,1,.156-.175c.207-.02.416-.03.621-.03a10.21,10.21,0,0,1,3.821.948l.358.139c.727.28,1.422.607,2.072.919a5.127,5.127,0,0,1,1.934,1.9l.282.414a53.427,53.427,0,0,1,4.2,7.973v0c.37.81.752,1.647,1.138,2.457.469.986.947,1.988,1.409,2.957l0,0c1.458,3.057,2.966,6.217,4.414,9.344l.941,2.028c.444.958.922,1.99,1.4,3.047l.8,1.772a10.925,10.925,0,0,1,.919,2.755,4.008,4.008,0,0,1-.541,2.8,15.527,15.527,0,0,1-3.348,3.453c-.383.322-.745.627-1.093.938l-3.737,3.336a19.845,19.845,0,0,1,3.245,4.317,23.87,23.87,0,0,1,2.075,4.995,14.582,14.582,0,0,1,3.507-.8c.416-.059.809-.116,1.192-.182a1.9,1.9,0,0,1,.325-.029,1.324,1.324,0,0,1,1.018.436,1.529,1.529,0,0,1,.374.959,1.4,1.4,0,0,1-.359,1.025,1.278,1.278,0,0,1-.949.371h-.035c-.133,0-.275,0-.433,0-.27,0-.541,0-.827.008h-.013c-.28,0-.57.008-.865.008a12.728,12.728,0,0,1-2.521-.2,29.318,29.318,0,0,1,.568,3.472,36.95,36.95,0,0,1-.315,9.153c-.45,3.08-1.165,6.137-1.859,9l-.118.485c-1.735,7.141-3.157,13.44-4.345,19.256-1.315,6.432-2.514,12.98-3.564,19.463-.911,5.623-1.608,11.369-2.281,16.925l-.006.047c-.118.977-.241,1.988-.363,2.981a2.378,2.378,0,0,1-.565,1.314A1.722,1.722,0,0,1,117.065,150.98Zm-44.181-.294a1.518,1.518,0,0,1-.842-.243,1.445,1.445,0,0,1-.575-.777c-1.84-5.567-3.593-11.264-5.288-16.774-.6-1.938-1.212-3.94-1.826-5.916-3.676-11.839-6.973-24.857-10.377-40.968-1.437-6.8-2.768-13.715-3.957-20.556-.227-1.307-.451-2.622-.665-3.907l-.317-1.917c-.217-1.366-.34-2.79.721-3.871a4.791,4.791,0,0,1,1.49-.974A17.317,17.317,0,0,1,53,54.146c.328-.106.638-.206.934-.313l.1-.036c.5-.185,1-.367,1.481-.544.352-.128.75-.273,1.132-.414-.658-.518-1.323-1.051-1.966-1.566l-.007-.005h0c-.607-.487-1.235-.99-1.855-1.48-.339-.268-.686-.538-1.021-.8-.685-.534-1.394-1.087-2.077-1.646a5.179,5.179,0,0,1-1.087-1.182,3.233,3.233,0,0,1-.523-1.5,6.541,6.541,0,0,1,.639-2.845c.049-.125.1-.267.155-.4l.038-.1c.352-.95.761-2.054,1.174-3.133l2.466-6.45c.493-1.29.986-2.6,1.463-3.867v0c1.043-2.772,2.121-5.638,3.251-8.427a43.1,43.1,0,0,1,2.2-4.715c.43-.779.859-1.481,1.311-2.144a4.489,4.489,0,0,1,.8-.922,5.317,5.317,0,0,1,1.023-.661A12.207,12.207,0,0,0,64.486,9.7a12.694,12.694,0,0,1,1.806-1.26A8.652,8.652,0,0,1,70.376,7.36a.093.093,0,0,1,.095.083.1.1,0,0,1-.069.112,12.557,12.557,0,0,0-2.3.94,10.314,10.314,0,0,0-2.035,1.415,6.714,6.714,0,0,0-1.55,1.848,3.1,3.1,0,0,0-.273.862l-.018.1a3.04,3.04,0,0,1-.5,1.276l-.047.073a29.1,29.1,0,0,0-2.048,3.8c-.647,1.424-1.209,2.89-1.626,4.008l-2.189,5.878-2.188,5.879-1.41,3.788-.705,1.894c-.378,1.015-.773,2.043-1.155,3.038l0,.012-.03.079c-.055.142-.111.286-.166.425-.12.3-.243.618-.352.931-.007.021-.02.075-.035.144a2.178,2.178,0,0,1-.108.386l.018.031a5.469,5.469,0,0,0,1.58,1.393c.26.178.5.347.706.509l2.3,1.858c.478.387.969.777,1.443,1.155l.01.008c1.147.913,2.332,1.857,3.454,2.834a1.427,1.427,0,0,1,.439.665,1.524,1.524,0,0,1,.029.745,1.873,1.873,0,0,1-.418.843,1.764,1.764,0,0,1-.786.534c-1.407.458-2.815.994-4.177,1.511-.42.16-.9.341-1.353.512-.278.1-.564.2-.841.3-.466.163-.948.332-1.407.524l-.446.193c-.12.054-.118.071-.1.18a1.72,1.72,0,0,1,.019.219,4.216,4.216,0,0,0,.1.719v0c.02.1.04.2.057.3.614,3.713,1.276,7.484,1.967,11.21,1.205,6.491,2.559,13.124,4.023,19.713,1.431,6.439,3.008,13.021,4.689,19.565.993,3.866,2.046,7.786,3.064,11.577v.006c.709,2.641,1.443,5.371,2.15,8.061,1.49,5.667,3.414,11.338,5.274,16.823l.015.044c.279.822.567,1.673.849,2.508a1.281,1.281,0,0,1-.14,1.189A1.593,1.593,0,0,1,72.884,150.686Zm36.934-2.407a1.542,1.542,0,0,1-.94-.306,2,2,0,0,1-.649-.89,1.581,1.581,0,0,1-.049-.858c-.006-.183-.021-.38-.036-.572h0c-.021-.265-.042-.539-.037-.774l.035-1.688c0-.159.009-.32.014-.477v0c0-.094.007-.2.01-.3l-.031,0c-1.652.08-3.422.116-5.739.116-.966,0-1.948-.006-2.9-.012h-.015c-.9-.006-1.837-.011-2.76-.012l-1.69,0h-.246c-1.192,0-2.6-.007-3.985-.06l-.528-.022c-.323-.015-.658-.027-.982-.039h-.014c-.74-.027-1.506-.055-2.259-.12.152,1.223.278,2.325.385,3.369a1.631,1.631,0,0,1-.451,1.258,2.131,2.131,0,0,1-1.52.714,1.8,1.8,0,0,1-1.37-.59,2.549,2.549,0,0,1-.6-1.382c-.342-2.587-.583-5.229-.816-7.785-.216-2.364-.438-4.807-.741-7.2-.507-4.013-.96-8.1-1.4-12.055l-.027-.241-.123-1.109-.166-1.49c-1.947-17.429-3.67-33.4-5.268-48.827l-.786-7.612-.082-.794C73.3,51.236,72.522,43.7,71.873,36.286c-.365-4.16-.716-8.472-1.074-13.183-.226-2.983-.389-6.145-.5-9.667a1.646,1.646,0,0,1-.418-1.613c.09-.314.2-.653.347-1.068l-.005-.232c-.006-.252-.012-.538-.018-.815a.414.414,0,0,1,.119-.3.535.535,0,0,1,.376-.151.512.512,0,0,1,.1.01c.184-.447.379-.9.567-1.337l0,0c.308-.716.626-1.456.9-2.183.184-.481.364-.98.537-1.463A25.236,25.236,0,0,1,74.628.048.093.093,0,0,1,74.71,0a.1.1,0,0,1,.1.1,25.232,25.232,0,0,1-.495,4.579h0c-.087.511-.176,1.039-.252,1.552-.114.768-.2,1.566-.282,2.338h0a36.868,36.868,0,0,1-.545,3.815,1.567,1.567,0,0,1-.052.275l-.021.068a1.816,1.816,0,0,1-1.24,1.184c.215,1.19.374,2.161.5,3.055.237,1.668.451,3.317.7,5.278l.268,2.113c.22,1.733.456,3.632.742,5.976a16.955,16.955,0,0,0,1.9.657,25.311,25.311,0,0,0,4.549.75c2.61.256,5.277.4,7.857.539h.014L90,32.365l.673.038c1.773.1,3.369.151,4.881.151a55.448,55.448,0,0,0,5.716-.275,36.859,36.859,0,0,0,5.179-.908c.425-.107.85-.241,1.262-.371.427-.135.868-.274,1.307-.382a2.865,2.865,0,0,0,.772-.372l.057-.034a.908.908,0,0,1,.539-.33l.063-.011.063-.009.021-.01,0,.007a1.982,1.982,0,0,1,.263-.018,1.784,1.784,0,0,1,.239.016c.052-1.288.125-2.982.217-4.66.048-.878.116-1.782.181-2.655v0a36.556,36.556,0,0,0-.164-10,.109.109,0,0,1,.02-.094.111.111,0,0,1,.19.037c1.448,3.816,1.492,7.973,1.535,11.992.006.584.013,1.188.023,1.778.068,3.732.045,7.529.023,11.2,0,.757-.009,1.54-.013,2.32a2.249,2.249,0,0,1,.838.585,1.62,1.62,0,0,1,.389,1.139,1.128,1.128,0,0,1-.389.795,2.619,2.619,0,0,1-.853.486c-.016,3.9-.044,7.854-.083,11.745a1.627,1.627,0,0,1,.58,1.333,1.442,1.442,0,0,1-.608,1.175c-.1,8.837-.242,17.822-.381,26.511v.009c-.06,3.77-.123,7.668-.181,11.514l-.4,26.6c-.02,1.357-.046,2.733-.071,4.064-.041,2.152-.082,4.377-.1,6.566l.025.01.089.041c.157.074.372.186.417.3a.151.151,0,0,1,.014.067,1.269,1.269,0,0,1,.7.348,1.1,1.1,0,0,1,.348.862,1.486,1.486,0,0,1-.348.869l-.11.134a1.219,1.219,0,0,1-.93.385,1.353,1.353,0,0,1-.212-.016c0,.717,0,1.446.006,2.151v.007c0,1.466.01,2.982.005,4.476,0,.7-.013,1.387-.024,2.026l-.028,1.62a5.419,5.419,0,0,1-.175,1.448,1.576,1.576,0,0,1-.871,1.066A2.163,2.163,0,0,1,109.818,148.279Zm-23.85-13.8.359,2.6c.2,1.447.366,2.664.526,3.9.815-.112,1.647-.177,2.452-.241h0c.318-.025.646-.051.967-.079,1.982-.176,4.017-.26,5.813-.334h0c1.136-.047,2.287-.1,3.4-.16,2.7-.135,5.5-.274,8.243-.274h.4c.043,0,.084,0,.119.006l.2-5.123-2.818,0c-2.391,0-4.817-.024-7.163-.045l-1.763-.013H96.7c-1.533-.01-3.119-.021-4.678-.053l-.921-.022c-.516-.014-1.038-.014-1.591-.015h0a30.791,30.791,0,0,1-3.536-.138Zm-.92-7.318c.223,1.962.418,3.567.614,5.052a22.329,22.329,0,0,1,2.925-.157c.4,0,.792,0,1.171.009h0c.376,0,.764.009,1.148.009l.375,0,.234,0c.872-.015,1.8-.022,2.922-.022.8,0,1.616,0,2.4.007h.006c.667,0,1.356.006,2.041.007,2.909,0,5.318.013,7.584.032l2.077.017,0-.1c.053-1.449.095-3.026.131-4.962-.14.016-.25.026-.356.03-.273.011-.543.013-.747.013h-.933c-1.037.009-2.263.018-3.488.018h-.126c-2.341,0-4.726.014-7.09.043l-1.819.024h-.053c-1.793.024-3.648.049-5.472.052h-.122C87.287,127.22,86.046,127.186,85.049,127.158Zm-.914-8.184c.177,1.532.349,3.091.515,4.6v.011l0,.028q.074.669.148,1.338c.15-.023.3-.043.446-.058,1.321-.138,2.488-.238,3.566-.3,2.442-.151,4.872-.228,7.134-.289,2.438-.066,4.91-.116,7.346-.151.615-.009,1.26-.013,1.972-.013.482,0,1,0,1.6.006h.75c.278,0,.606,0,.929.024.063,0,.123.011.193.019l.042-2.992c.007-.488.015-.991.023-1.5-1.119.069-2.224.078-3.157.078-.394,0-.793,0-1.179,0h-.111c-.344,0-.7,0-1.053,0h-.469l-.906,0c-1.771,0-3.684-.023-6.021-.071-2.8-.058-5.068-.147-7.136-.28-.973-.062-1.941-.146-2.877-.249l-.479-.055c-.2-.024-.406-.045-.6-.066C84.586,119.025,84.36,119,84.135,118.974Zm-.9-7.809.2,1.741c.156,1.358.334,2.9.505,4.378.32-.015.643-.021.955-.028H84.9c.236,0,.481-.01.718-.018,1.184-.043,2.361-.051,3.357-.053h.858c.9,0,1.832,0,2.657.006,1.01,0,1.851.006,2.717.006H95.9c2.446-.005,4.867-.047,7.137-.09.811-.015,1.636-.05,2.434-.084,1.074-.045,2.184-.092,3.273-.092h.1l.138-6.4c-4.041.321-8.259.493-13.274.542l-.666.006c-1.3.01-2.625.035-3.906.059-1.669.031-3.395.064-5.1.064C85.031,111.2,84.111,111.189,83.234,111.165Zm-1.022-8.905c.3,2.617.612,5.344.93,8.107,1.872-.23,3.78-.421,5.626-.606,2.016-.2,4.1-.411,6.143-.671l3.535-.452c3.39-.433,7-.887,10.611-1.267l.119-5.544a6.067,6.067,0,0,1-1.6.2h-.023l-.162.007-1.715.085c-.658.032-1.523.073-2.385.1-2.656.1-5.33.189-7.949.272-2.044.065-3.694.1-5.192.1-1.052,0-2.023-.015-2.968-.044-1.419-.045-2.72-.118-3.976-.223-.209-.018-.423-.031-.629-.045h-.014ZM81.2,93.319c.234,2.072.48,4.229.7,6.131l.176,1.543c.2-.032.409-.061.609-.09h.008c.242-.034.492-.07.73-.11,1-.169,2.062-.319,3.352-.474,2.132-.256,4.459-.471,7.323-.679,1.392-.1,2.807-.195,4.176-.285h.017l.028,0c1.085-.072,2.207-.146,3.31-.224L103.4,99c.7-.048,1.261-.086,1.778-.117.32-.02.649-.026,1-.033a11.529,11.529,0,0,0,2.2-.18,1.426,1.426,0,0,1,.552-.109,1.556,1.556,0,0,1,.324.035l.119-5.57a9.322,9.322,0,0,1-1.809.2c-.183.008-.357.015-.525.026l-.134.009c-1.191.09-2.461.149-4.117.19-2.413.06-5.055.1-8.077.116l-1.619.01c-.73,0-1.6.009-2.479.009-1.531,0-2.8-.013-4-.041-1.334-.031-2.669-.095-4.15-.169-.2-.01-.41-.019-.612-.027h-.018C81.622,93.339,81.408,93.33,81.2,93.319Zm-.97-8.716c.285,2.6.546,4.948.8,7.176.261-.028.522-.053.774-.077.207-.02.441-.042.662-.065,1.534-.162,2.813-.295,4.15-.4,2.46-.194,4.964-.318,7.386-.437h0l.5-.025c1.478-.073,2.975-.134,4.424-.192h.011c1.194-.048,2.429-.1,3.644-.155,1.579-.074,2.786-.153,3.912-.257.3-.028.613-.079.945-.133h0a9.822,9.822,0,0,1,1.557-.172,3.733,3.733,0,0,1,.442.025c.039-1.816.082-3.7.119-5.367l.01-.451q.015-.671.03-1.342a1.616,1.616,0,0,1-1.114.565c-1.76.228-3.579.319-5.338.406-.654.032-1.331.066-2,.106l-.43.027c-2.29.151-4.617.274-6.867.394l-.685.036c-2.512.134-5.124.248-7.763.34-.7.024-1.418.036-2.2.036-.352,0-.722,0-1.1-.007l-.472-.007-.484-.006C80.843,84.616,80.533,84.613,80.225,84.6Zm-.989-9.087c.288,2.669.577,5.328.859,7.9.4-.075.8-.136,1.181-.2l.361-.056.064-.01c1.211-.19,2.463-.387,3.7-.53,2.679-.309,5.15-.572,7.553-.805l.659-.064.2-.019h.009c1.835-.178,3.733-.363,5.6-.528l1.295-.112c.8-.068,1.626-.15,2.42-.231h0c1.752-.177,3.564-.359,5.339-.4h.023a1.421,1.421,0,0,1,1.127.589c.058-2.54.116-5.023.175-7.556a1.06,1.06,0,0,1-.148.183,4.49,4.49,0,0,1-3.2,1.042c-.19.011-.386.023-.583.038l-.086.007c-1.533.129-2.89.236-4.148.327-2.931.212-5.843.353-8.305.464-2.7.121-4.76.175-6.687.175-.627,0-1.245-.006-1.837-.018-.358-.007-.726-.013-1.082-.019C82.251,75.682,80.725,75.658,79.237,75.516Zm-.986-9.131.8,7.437c1.352-.2,2.747-.3,4.1-.405h0c.485-.037.987-.075,1.475-.117l.391-.034c2.16-.2,4.362-.343,6.493-.484l.055,0,1.56-.1c2.852-.193,5.667-.426,8.306-.649l.069-.006c1.336-.112,2.718-.228,4.08-.354l.171-.017c.176-.018.352-.04.522-.06a11.045,11.045,0,0,1,1.323-.108,3.179,3.179,0,0,1,1.844.512,1.2,1.2,0,0,1,.392.431q.018-.77.036-1.54v-.063c.037-1.565.075-3.184.115-4.784a9.17,9.17,0,0,1-1.089.05h-.441c-.124,0-.285,0-.442.006-1.671.054-3.336.1-4.6.142l-9.2.272c-2.2.065-4.8.131-7.406.131-.688,0-1.363,0-2.006-.014l-.79-.01h0c-1.1-.013-2.234-.026-3.349-.087l-.459-.028c-.21-.014-.437-.023-.676-.034C79.106,66.447,78.679,66.429,78.251,66.385Zm-.982-9.009c.278,2.532.56,5.113.837,7.672.466-.087.938-.14,1.395-.191h0c.187-.021.379-.043.559-.066l.133-.018c1.267-.175,2.564-.287,3.819-.4l.039,0,.534-.047c3.042-.268,6.042-.429,8.576-.551,1.948-.094,3.924-.179,5.835-.262l.115,0,2.834-.124,2.928-.131,1.464-.064,1.18-.049.071,0,.84-.035c.112,0,.227-.013.339-.021h.006c.177-.013.36-.026.539-.026.057,0,.11,0,.162,0l.1-.013.122-.014a1.384,1.384,0,0,1,.3-.175l.065-.025.136-5.476c-6.179.249-11.68.4-16.819.472-.974.013-1.989.02-3.019.02-1.984,0-4.093-.024-6.448-.073-1.389-.029-2.774-.1-4.117-.2l-.512-.041c-.261-.022-.534-.042-.8-.061h0C78.087,57.445,77.677,57.415,77.269,57.376Zm-.919-8.243c.262,2.319.522,4.643.771,6.907.525-.06,1.056-.1,1.569-.143H78.7c.263-.021.535-.043.8-.066,1.825-.164,3.3-.269,4.629-.33l3.085-.143c1.977-.091,4.092-.186,6.171-.262,6.192-.226,11.718-.464,16.895-.729.038-1.48.078-3.012.123-4.685a1.551,1.551,0,0,1-1.168.479h-.005c-1.613,0-3.253,0-4.839-.005h-.055c-4.209,0-8.562,0-12.84-.073-4.664-.077-7.189-.186-8.867-.272-1.359-.07-2.776-.209-4.334-.424-.247-.034-.5-.064-.764-.1h0C77.137,49.242,76.741,49.2,76.35,49.133Zm-.946-8.2c.271,2.3.546,4.68.819,7.076.488-.087.987-.147,1.469-.205h0c.246-.03.478-.058.706-.089,1.631-.222,3.081-.367,4.433-.443,3.07-.174,6.1-.252,8.656-.307,4.291-.091,8.654-.116,12.874-.14h.018c1.587-.009,3.229-.018,4.843-.031h.016a1.525,1.525,0,0,1,1.222.544c.039-1.382.081-2.827.129-4.418-.213-.022-.427-.049-.634-.074-.359-.044-.7-.085-1.027-.108-1.621-.113-3.246-.217-4.831-.307-3.136-.18-6.437-.345-10.091-.5-3.22-.14-6.672-.287-10.1-.414l-1.472-.054A69.147,69.147,0,0,1,75.4,40.931Zm-1.058-8.88c.29,2.4.572,4.757.858,7.165l.086.739a58.85,58.85,0,0,1,8.621-.828c3.236-.138,6.424-.208,9.475-.208h.622c3.259.01,6.654.087,10.091.229,1.676.069,3.372.15,5.041.241.3.016.625.016.972.016h.01c.188,0,.383,0,.579,0q.007-.214.013-.429v-.017c.007-.223.014-.453.022-.68L110.778,37v-.021c.034-1.013.072-2.161.11-3.261a12.7,12.7,0,0,1-3.167.944c-.2.04-.4.082-.588.123l-.13.029a43.568,43.568,0,0,1-5.734.866c-1.482.129-3.058.195-4.686.195-2.051,0-4.238-.1-6.685-.308l-.661-.057a62.674,62.674,0,0,1-9.966-1.473,17.837,17.837,0,0,1-4.485-1.731C74.627,32.221,74.484,32.135,74.346,32.05ZM2.062,147.392A1.521,1.521,0,0,1,.51,145.929c-.446-6.014-.6-12.389-.462-19.488.109-5.716.4-11.906.921-19.482.41-5.975.973-11.822,1.673-17.38.745-5.915,1.672-11.715,2.756-17.24l.2-.99c.943-4.756,2.123-10.36,3.729-15.857A80.033,80.033,0,0,1,15.28,40.384a50.043,50.043,0,0,1,8.1-11.157A57.513,57.513,0,0,1,45.732,14.912a39.528,39.528,0,0,1,12.682-2.224c.447,0,.9.009,1.34.027a.2.2,0,0,1,.184.184.166.166,0,0,1-.134.185c-2.719.607-5.085,1.209-7.233,1.838a66.833,66.833,0,0,0-7.04,2.463,54.02,54.02,0,0,0-12.819,7.6,55.057,55.057,0,0,0-9.5,9.776,57.949,57.949,0,0,0-6.884,11.777,75.628,75.628,0,0,0-2.794,7.543c-.716,2.267-1.406,4.73-2.17,7.75-.678,2.68-1.32,5.466-1.908,8.28-.564,2.7-1.1,5.509-1.58,8.35C6.966,83.773,6.2,89.367,5.6,95.088c-.556,5.318-.991,10.948-1.293,16.733-.33,6.326-.4,12.76-.471,18.982v0c-.055,4.957-.113,10.082-.3,15.122a1.5,1.5,0,0,1-.48,1.1A1.5,1.5,0,0,1,2.062,147.392Zm144.53-1.451a2.134,2.134,0,0,1-1.217-.387,1.68,1.68,0,0,1-.705-1.039c-.954-4.851-1.8-9.985-2.671-16.156-.67-4.762-1.26-9.584-1.754-14.331-.5-4.782-.912-9.622-1.231-14.385s-.522-9.65-.6-14.482c-.034-2.106.012-4.308.141-6.733l.029-.517c.021-.364.039-.738.056-1.1V76.8a20.346,20.346,0,0,1,.825-5.761.12.12,0,0,1,.114-.084.121.121,0,0,1,.115.084,23.56,23.56,0,0,1,1,6.172c.037.507.076,1.031.121,1.537l.018.2c.228,2.409.395,4.786.541,7l.057.875c.726,11.161,1.54,20.218,2.561,28.5,1.276,10.35,3.041,20.484,4.436,28.157a2.3,2.3,0,0,1-.2,1.479,1.858,1.858,0,0,1-1.641.986Zm-101.428-.75a1.7,1.7,0,0,1-1-.348,1.907,1.907,0,0,1-.646-.841,1.42,1.42,0,0,1-.068-.81,1.45,1.45,0,0,1,.48-.776c1.393-1.229,2.849-2.439,4.257-3.609h0l0,0c.811-.674,1.65-1.371,2.467-2.063l.978-.829a35.456,35.456,0,0,1,5.825-4.225.116.116,0,0,1,.056-.014.128.128,0,0,1,.11.065.108.108,0,0,1,0,.112,39.256,39.256,0,0,1-5.122,6.208l-.257.271c-.736.778-1.478,1.577-2.195,2.35h0c-1.24,1.337-2.522,2.719-3.821,4.038A1.488,1.488,0,0,1,45.164,145.191Zm95.743-.131a2.195,2.195,0,0,1-1.489-.608c-.776-.695-1.532-1.452-2.263-2.184h0l0,0c-.273-.274-.556-.557-.835-.832l-.308-.3c-1.223-1.189-2.266-2.279-3.189-3.332l-.917-1.044a34.031,34.031,0,0,1-4.645-6.266.192.192,0,0,1,0-.194.2.2,0,0,1,.175-.1.216.216,0,0,1,.137.05c.7.569,1.366,1.212,2.011,1.834h0c.448.432.911.879,1.38,1.3,1.023.909,2.14,1.82,3.517,2.865,1.258.955,2.511,1.843,3.725,2.641a33.628,33.628,0,0,0,3.023,1.707l.037.019.19.1a2.039,2.039,0,0,1,1.365.794,2.32,2.32,0,0,1,.438,1.661,1.709,1.709,0,0,1-.607,1.168l-.149.117A2.6,2.6,0,0,1,140.907,145.06Zm19.856-1.986a1.865,1.865,0,0,1-1.34-.533,1.394,1.394,0,0,1-.376-1.06,10.68,10.68,0,0,1-.071-1.912c-.015-.089-.031-.172-.047-.254a1.032,1.032,0,0,1,.09-.674c.014-.281.03-.607.035-.919.022-1.327.017-2.532-.015-3.684-.069-2.489-.163-4.893-.279-7.776-.226-5.638-.526-10.716-.917-15.524-.369-4.539-.842-9.078-1.407-13.49-.581-4.537-1.274-9.06-2.059-13.445-.808-4.506-1.735-8.987-2.757-13.317-1.049-4.448-2.226-8.858-3.5-13.106-.618-2.063-1.285-4.076-1.983-5.984-.74-2.024-1.539-3.993-2.374-5.854-.88-1.961-1.826-3.862-2.814-5.65-1.035-1.874-2.147-3.681-3.3-5.37C136.6,33,135.47,31.5,134.279,30.07c-1.175-1.41-2.441-2.8-3.764-4.12-1.491-1.492-2.858-2.77-4.18-3.908a45.261,45.261,0,0,0-4.538-3.471.231.231,0,0,1-.087-.262.2.2,0,0,1,.183-.149.222.222,0,0,1,.072.013l.446.154a30.6,30.6,0,0,1,5.478,2.366,36.276,36.276,0,0,1,5.105,3.721,40.864,40.864,0,0,1,4.621,4.682,56.036,56.036,0,0,1,3.931,5.281,59.83,59.83,0,0,1,3.29,5.656c.947,1.848,1.862,3.851,2.719,5.954a121.677,121.677,0,0,1,4.2,12.408,263.184,263.184,0,0,1,6.155,27.159c.824,4.669,1.555,9.372,2.171,13.979.629,4.7,1.155,9.433,1.564,14.06s.685,9.294.823,13.9c.075,2.512.067,5.03.049,7.163,0,.532,0,1.1.006,1.842l.023,1.842c0,.27.013.548.022.818v0a10.016,10.016,0,0,1-.147,2.707,1.508,1.508,0,0,1-.631.916A1.86,1.86,0,0,1,160.763,143.074ZM109.931,17.323a1.47,1.47,0,0,1-1.4-1.018,35.251,35.251,0,0,1-1.887-6.46,25.554,25.554,0,0,1-.43-3.265c-.009-.166-.02-.33-.031-.5a7.849,7.849,0,0,1,.082-2.4.159.159,0,0,1,.157-.114.146.146,0,0,1,.132.076,8.969,8.969,0,0,1,.634,1.8c.089.324.181.659.289.975.093.272.186.55.275.818l0,.007h0c.231.692.47,1.407.735,2.1a39.771,39.771,0,0,0,2.757,5.824,1.36,1.36,0,0,1,.061,1.4,1.49,1.49,0,0,1-.581.555A1.666,1.666,0,0,1,109.931,17.323Z" transform="translate(7.817 0.211)"/>
  </g>
  <g id="HEAD" transform="translate(78.592 38.043)">
    <path id="_Skin-2" data-name="âœ‹ Skin" d="M78.548,40.831a109.779,109.779,0,0,0-.879-14.253,21.5,21.5,0,0,0-5.82-12.056c-6.892-7.07-16.883-8.8-26.183-10.38l-15.9-2.706C24.916.612,19.741-.707,14.84.463a15.5,15.5,0,0,0-6.34,3.5A22.221,22.221,0,0,0,3.526,9.19a19.446,19.446,0,0,0-2.047,6.794Q.8,19.922.432,23.907A99.508,99.508,0,0,0,.228,39.9c.175,2.582.453,5.158.808,7.721q.264,1.907.6,3.8c.066.373.117.785.184,1.2a12.693,12.693,0,0,0-.764,4.386c.068,4.344,3.725,7.078,7.412,8.547,2.138.851,4.373,1.43,6.473,2.381a14.538,14.538,0,0,1,5.224,4.472,50.882,50.882,0,0,0,9.846,9.345C37.883,87.363,47.853,90.016,57.4,88a24.364,24.364,0,0,0,6.663-2.364,14.915,14.915,0,0,0,5.183-4.968,48.639,48.639,0,0,0,5.762-12.42,72.172,72.172,0,0,0,2.959-13.509,103.1,103.1,0,0,0,.577-13.91Z" transform="translate(9.698 19.021)" fill="#d08b5b"/>
    <path id="_Ink-2" data-name="ðŸ– Ink" d="M75.273,105.046h0a17.366,17.366,0,0,1-3.707-.391A14.852,14.852,0,0,1,62.2,98.2l-.06-.095c-.3-.481-.421-.821-.345-.959a.122.122,0,0,1,.116-.061,1.864,1.864,0,0,1,.961.722,20.427,20.427,0,0,0,6.049,3.737,17.993,17.993,0,0,0,6.588,1.258,18.207,18.207,0,0,0,6.728-1.3,21.411,21.411,0,0,0,6.319-3.946,29.776,29.776,0,0,0,8.209-12.606,49.615,49.615,0,0,0,2.125-7.987,66.678,66.678,0,0,0,.974-8.611,82,82,0,0,0-.05-8.863c-.17-2.9-.489-5.844-.947-8.741A77.608,77.608,0,0,0,94.79,35.122a73.459,73.459,0,0,0-8.008-.439,72.575,72.575,0,0,0-13.133,1.194,67.864,67.864,0,0,0-12.642,3.611,61.181,61.181,0,0,0-11.6,6.073,55.6,55.6,0,0,0-10,8.581l.937,5.653c.052.316.108.638.162.949l0,.015c.109.631.222,1.283.315,1.927a2.069,2.069,0,0,1-.33,1.736,1.455,1.455,0,0,1-1.158.554,6.541,6.541,0,0,1-3.019-1.406h0a16.3,16.3,0,0,0-1.577-.968,8.82,8.82,0,0,0-1.225-.09c-.17,0-.339.006-.5.017a6.412,6.412,0,0,0-4.8,3.185,9.072,9.072,0,0,0-1.071,2.776,11.191,11.191,0,0,0-.219,3.065,9.743,9.743,0,0,0,1.859,5.31,5.775,5.775,0,0,0,4.695,2.356,7.893,7.893,0,0,0,2.329-.377,1.822,1.822,0,0,1,.95-.317.992.992,0,0,1,.591.184,1.263,1.263,0,0,1,.413.543,22.645,22.645,0,0,1,3.08,3.9,36.749,36.749,0,0,0,5.111,6.295A34.281,34.281,0,0,0,50.334,93.3a7.275,7.275,0,0,0,1.14.839c1.144.743,2.439,1.585,1.784,2.774a1.154,1.154,0,0,1-1.119.733c-1.868,0-5.135-3.119-6.917-4.978-1.191-1.243-2.437-2.671-3.507-4.021a25.8,25.8,0,0,1-2.176-3.084,20.4,20.4,0,0,1-4.47,1.186,30.21,30.21,0,0,1-4.609.322c-2.572,0-5.17-.247-7.682-.486l-.035,0-.954-.09c-5.662-.3-10.351-1.643-13.937-4.007a17.216,17.216,0,0,1-4.284-3.982,16.948,16.948,0,0,1-2.59-5,20.231,20.231,0,0,1-.906-4.649A25.682,25.682,0,0,1,.194,63.8,33.02,33.02,0,0,1,1.3,58.466a41.488,41.488,0,0,1,2.06-5.5,53.766,53.766,0,0,1,6.82-11.023A66.409,66.409,0,0,1,20.346,31.689,70.52,70.52,0,0,1,35.821,23.1a.683.683,0,0,0,.407-.785.55.55,0,0,0-.512-.486.62.62,0,0,0-.232.048,75.578,75.578,0,0,0-10.493,5.208l-.005-1.2a33.107,33.107,0,0,1,.378-5.983,14.746,14.746,0,0,1,.925-3.681,9.862,9.862,0,0,1,1.932-3.552,29.3,29.3,0,0,1,4.823-4.889A35.558,35.558,0,0,1,50.578.162,17.985,17.985,0,0,1,53.024,0a22.361,22.361,0,0,1,4.794.537,22.927,22.927,0,0,1,4.7,1.574A18.1,18.1,0,0,1,66.6,4.667a12.476,12.476,0,0,1,2.92,3.483,84.554,84.554,0,0,1,8.735-1.591,72.776,72.776,0,0,1,9.145-.6,52.607,52.607,0,0,1,16.224,2.377,39.119,39.119,0,0,1,7.475,3.3,35.616,35.616,0,0,1,3.46,2.274,34.837,34.837,0,0,1,3.23,2.727,20.248,20.248,0,0,1,2.894,3.99,17,17,0,0,1,1.607,4.128,17.929,17.929,0,0,1-.041,8.341,25.965,25.965,0,0,1-2.942,7.2,35.858,35.858,0,0,1-4.769,6.348c-.882.944-1.819,1.853-2.787,2.7a37,37,0,0,1-2.9,2.306,30.949,30.949,0,0,1-2.909,1.848,22.589,22.589,0,0,1-2.8,1.329,33.935,33.935,0,0,1,.132,6.454,100.048,100.048,0,0,1-1.18,11.176,78.458,78.458,0,0,1-3.02,12.56,35.477,35.477,0,0,1-5.39,10.608,22.183,22.183,0,0,1-3.648,3.825,24.936,24.936,0,0,1-4.508,2.976,24.338,24.338,0,0,1-5.031,1.93A20.867,20.867,0,0,1,75.273,105.046ZM35.74,60.379l-.12.07a1.028,1.028,0,0,1-.3.117c.142.061.283.127.42.2,0-.1,0-.182,0-.255v-.127Zm3.646,11.595a1.672,1.672,0,0,1-.69-.518l-.039-.045.008.012c.1.154.139.262.113.31a.063.063,0,0,1-.06.029,1.042,1.042,0,0,1-.631-.5l-.006-.016a1.752,1.752,0,0,1-.27-.285c-.015-.019-.026-.033-.033-.041l-.006-.006A7.8,7.8,0,0,0,34.8,69.068c-.148-.028-.295-.05-.437-.065a13.234,13.234,0,0,0-1.811-.274.334.334,0,0,1-.207-.135c-.383-.013-.608-.091-.617-.214-.008-.107.158-.229.362-.266H32.1l-.076-.006c-.389-.038-.687-.142-.693-.242,0-.061.1-.116.295-.159l.076-.015c-.008-.012-.015-.025-.025-.044-.175-.019-.273-.094-.267-.206a.291.291,0,0,1,.281-.248.234.234,0,0,1,.092.019.209.209,0,0,1,.008-.186c.034-.046.1-.067.209-.067.039,0,.079,0,.117.005h.01c.033,0,.065,0,.09,0a.1.1,0,0,0,.062-.012.335.335,0,0,1,.154-.112.6.6,0,0,0,.112-.094c.012-.014.012-.014.044-.015H32.6a.7.7,0,0,1,.51-.182,2.584,2.584,0,0,1,.686.128l.064.019a2.138,2.138,0,0,0,.514.109h.016a6.773,6.773,0,0,1,2.919,1.175,7.9,7.9,0,0,1,1.213.835h0l0,0,.029.02a6.759,6.759,0,0,1,.863.851c.374.429.57.735.536.839-.009.028-.034.042-.074.042a.72.72,0,0,1-.263-.083c-.069-.09-.145-.183-.239-.3a.191.191,0,0,1-.035.038l.059.087c.207.312.3.5.269.551a.031.031,0,0,1-.03.015,3.842,3.842,0,0,1-1.122-1.014.175.175,0,0,1-.03.019l-.006,0,.308.375.1.132.065.063c.549.541.813,1.055.76,1.185a.051.051,0,0,1-.051.033c-.133,0-.448-.3-.843-.791a.472.472,0,0,1,.09.212l.071.091c.227.293.488.663.44.76A.042.042,0,0,1,39.386,71.974Z" transform="translate(-13.071 3.804)"/>
  </g>
  <g id="FACE" transform="translate(112.183 77.354)">
    <path id="_Ink-3" data-name="ðŸ– Ink" d="M22.244,39.478a8.048,8.048,0,0,1-4.461-1.32,8.5,8.5,0,0,1-1.845-1.594,6.678,6.678,0,0,1-1.125-1.8,5.1,5.1,0,0,1-.4-2.041.63.63,0,0,1,.149-.4.7.7,0,0,1,.373-.224.72.72,0,0,1,.164-.019.662.662,0,0,1,.272.057.58.58,0,0,1,.287.283c.134.176.31.406.488.629a12.266,12.266,0,0,0,2.025,2.073,6.268,6.268,0,0,0,2.519,1.185,5.392,5.392,0,0,0,1.158.126A5.665,5.665,0,0,0,23.8,36.08a6.648,6.648,0,0,0,2.736-1.923,1.469,1.469,0,0,1,1.118-.553h.01a1.719,1.719,0,0,1,1.189.527,1.856,1.856,0,0,1,.555,1.211,1.62,1.62,0,0,1-.46,1.19,9.216,9.216,0,0,1-1.939,1.581,9.384,9.384,0,0,1-2.284,1.009A8.921,8.921,0,0,1,22.244,39.478Zm2.516-11.755h0a7.374,7.374,0,0,1-2.63-.53,13.282,13.282,0,0,1-3.093-1.756,1.189,1.189,0,0,1-.432-.687,1.423,1.423,0,0,1,.061-.771,1.754,1.754,0,0,1,.521-.753A1.267,1.267,0,0,1,20,22.909a1.151,1.151,0,0,1,.628.193l.2.158.007.005a16.742,16.742,0,0,0,1.936,1.347,4.768,4.768,0,0,0,2.32.74,2.505,2.505,0,0,0,.981-.193,2.74,2.74,0,0,0,.913-.647,2.8,2.8,0,0,0,.531-2.255,4.261,4.261,0,0,0-1.13-2,8.241,8.241,0,0,0-1.711-1.381.531.531,0,0,1-.144-.61.8.8,0,0,1,.264-.38.809.809,0,0,1,.5-.167,1.075,1.075,0,0,1,.182.016,5.736,5.736,0,0,1,2.018.729,4.578,4.578,0,0,1,1.357,1.252,4.974,4.974,0,0,1,.866,3.322,5.475,5.475,0,0,1-.444,1.744,5.087,5.087,0,0,1-1,1.5A4.779,4.779,0,0,1,24.761,27.723ZM4.538,19.6a1.01,1.01,0,0,1-.293-.043.6.6,0,0,1-.4-.346,4.916,4.916,0,0,1,.246-3.7,8.676,8.676,0,0,1,1.3-2.139,5.356,5.356,0,0,1,1.4-1.257,4.694,4.694,0,0,1,2.227-.574,4.459,4.459,0,0,1,2.147.554,5.586,5.586,0,0,1,1.483,1.22A15.376,15.376,0,0,1,13.8,14.842c.151.221.308.449.468.671a1.35,1.35,0,0,1,.227,1.255,1.623,1.623,0,0,1-.921.951,1.762,1.762,0,0,1-.679.139,1.548,1.548,0,0,1-.605-.12,1.627,1.627,0,0,1-.873-.922,6.293,6.293,0,0,0-.678-1.232,3.7,3.7,0,0,0-.986-.977,1.777,1.777,0,0,0-1.784-.136,5.832,5.832,0,0,0-2.076,2.071,4.061,4.061,0,0,0-.681,2.419.549.549,0,0,1-.178.461.691.691,0,0,1-.385.171A.906.906,0,0,1,4.538,19.6Zm30.625-2.984a1.319,1.319,0,0,1-.381-.061,1.44,1.44,0,0,1-.595-.356,1.185,1.185,0,0,1-.331-.6A2.452,2.452,0,0,0,33,14.168a1.717,1.717,0,0,0-1.373-.361,2.637,2.637,0,0,0-1.477.886,3.246,3.246,0,0,0-.31.452l-.009.015a3.3,3.3,0,0,1-.613.806.6.6,0,0,1-.38.143.567.567,0,0,1-.169-.026,2.41,2.41,0,0,1-.545-.763,1.5,1.5,0,0,1-.109-.658,2.607,2.607,0,0,1,.479-1.32,5.132,5.132,0,0,1,1.324-1.294,4.411,4.411,0,0,1,1.465-.69,3.955,3.955,0,0,1,.83-.088,4.234,4.234,0,0,1,2.435.793,4.626,4.626,0,0,1,1.891,2.9,1.541,1.541,0,0,1-.077.855,1.2,1.2,0,0,1-.559.622A1.329,1.329,0,0,1,35.163,16.616ZM.725,10.978l-.046,0a.429.429,0,0,1-.223-.108A1.623,1.623,0,0,1,0,9.53,5.784,5.784,0,0,1,.588,7.284a14.358,14.358,0,0,1,1.132-1.9A9.977,9.977,0,0,1,3.17,3.733a12.553,12.553,0,0,1,4.06-2.474A8.728,8.728,0,0,1,10.125.622c.06,0,.12,0,.179,0a3.476,3.476,0,0,1,1.077.2,2.833,2.833,0,0,1,.959.6,1.781,1.781,0,0,1,.532,1.3,1.857,1.857,0,0,1-.534,1.33A2.747,2.747,0,0,1,11.2,4.72a6.6,6.6,0,0,1-1.239.221,11.267,11.267,0,0,0-1.208.178A11.345,11.345,0,0,0,5.838,6.185,10.794,10.794,0,0,0,3.1,8.124c-.178.191-.348.393-.512.589l0,.005c-.153.182-.3.354-.45.521-.171.187-.328.375-.515.6a2.556,2.556,0,0,0-.145.257c-.037.078-.073.149-.11.219-.068.128-.134.241-.195.334-.121.2-.184.253-.234.275A.524.524,0,0,1,.725,10.978Zm36.163-.464a.414.414,0,0,1-.068-.006.408.408,0,0,1-.208-.1.391.391,0,0,1-.117-.2,7.586,7.586,0,0,0-1.1-2.678,5.779,5.779,0,0,0-2.2-1.879,14.134,14.134,0,0,0-3.079-1.036c-.3-.07-.615-.117-.924-.162l-.014,0a7.8,7.8,0,0,1-1.465-.313,2.591,2.591,0,0,1-1.2-.812,2.247,2.247,0,0,1-.416-.811,2.07,2.07,0,0,1-.05-.873A1.793,1.793,0,0,1,27.014.311,2.929,2.929,0,0,1,28.373,0,8.9,8.9,0,0,1,31.64.912l.072.031h0l.239.1a10.722,10.722,0,0,1,3.739,2.5,8.084,8.084,0,0,1,1.922,3.552,4.265,4.265,0,0,1-.388,3.233.384.384,0,0,1-.175.154A.4.4,0,0,1,36.889,10.514Z" transform="translate(11.408 11.637)"/>
  </g>
  <g id="FACIAL_HAIR" data-name="FACIAL HAIR" transform="translate(104.577 109.479)">
    <path id="_Ink-4" data-name="ðŸ– Ink" d="M18.749,31.73h0a15.433,15.433,0,0,1-3.059-.3,25.114,25.114,0,0,1-4.172-.792c-1.537-.4-3.213-.931-4.847-1.526a42.336,42.336,0,0,1-4.228-1.772A7.284,7.284,0,0,1,.129,25.808a.476.476,0,0,1-.123-.373,3.322,3.322,0,0,1,.958-1.876,2.2,2.2,0,0,1,1.5-.5,9.738,9.738,0,0,1,2.72.592c.491.155,1,.314,1.468.421a38.273,38.273,0,0,0,6.52.538c2.868-.625,2.348-5.126,2.152-6.82h0c-.022-.19-.039-.34-.048-.449a4.831,4.831,0,0,1,.2-1.706,4.481,4.481,0,0,1,.894-1.669,3.221,3.221,0,0,1,2.315-1.123c.054,0,.107,0,.16,0a2.685,2.685,0,0,1,1.574.5,4.04,4.04,0,0,1,1.083,1.2,7.43,7.43,0,0,1,.949,2.616c.033.226.063.508.1.833a18.164,18.164,0,0,0,.521,3.085,3.715,3.715,0,0,0,.578,1.224,1.155,1.155,0,0,0,.92.494,1.3,1.3,0,0,0,.307-.039,14.683,14.683,0,0,0,3.416-1.978c.839-.572,1.631-1.113,2.266-1.452a4.221,4.221,0,0,1,1.138-.181,1.594,1.594,0,0,1,1.294.518,2.488,2.488,0,0,1,.31,2.057,12.093,12.093,0,0,1-1.38,2.682,21.55,21.55,0,0,1-1.864,2.671,13.47,13.47,0,0,1-2.381,2.017A15.194,15.194,0,0,1,24.9,30.546,16.672,16.672,0,0,1,18.749,31.73ZM31.733,10.465h0a5.546,5.546,0,0,1-2.555-.772,11.217,11.217,0,0,0-2.146-.857c-.908-.24-1.894-.448-2.847-.65a19.213,19.213,0,0,1-4.442-1.257A16.72,16.72,0,0,1,13.874,8.6h0l-.4.063a22.67,22.67,0,0,0-3.2.842,15.572,15.572,0,0,1-4.4.949c-.134,0-.266,0-.393-.014a.252.252,0,0,1-.1.017,2.066,2.066,0,0,1-1.406-.926,2.578,2.578,0,0,1-.437-1.28,4.48,4.48,0,0,1,.337-1.93A6.191,6.191,0,0,1,5.132,4.343a9.579,9.579,0,0,1,1.95-1.587A17.087,17.087,0,0,1,12.127.725,22.977,22.977,0,0,1,17.344,0a7.13,7.13,0,0,1,2.883.492,7.553,7.553,0,0,1,2.49-.366,14.962,14.962,0,0,1,4.3.691,12.9,12.9,0,0,1,3.972,1.971A6.246,6.246,0,0,1,32.3,4.179a8.063,8.063,0,0,1,.909,1.713,7.358,7.358,0,0,1,.449,1.758,4.149,4.149,0,0,1-.071,1.524,1.529,1.529,0,0,1-1.3,1.254A4.286,4.286,0,0,1,31.733,10.465Z" transform="translate(23.699 6.129)"/>
  </g>
  <g id="ACCESORIES" transform="translate(88.521 88.978)">
    <path id="_Ink-5" data-name="ðŸ– Ink" d="M41.577,22.794h0a11.669,11.669,0,0,1-3.909-.652A10.192,10.192,0,0,1,34.23,20.1a11.055,11.055,0,0,1-2.589-3.545,16.068,16.068,0,0,1-1.366-5.175A3.067,3.067,0,0,0,29.6,9.468a3.588,3.588,0,0,0-1.594-.7c-.264-.075-.562-.161-.891-.267l-.285-.058h0c-.316-.063-.643-.129-.965-.222a1.353,1.353,0,0,1-.43.076c-.453,0-.771-.281-1.21-.669a9.365,9.365,0,0,0-.741-.608A7.81,7.81,0,0,0,18.57,5.74a29.992,29.992,0,0,0-6.381.843A87.294,87.294,0,0,0,1.981,9.676c-.013.686-.363,1.165-.851,1.165A.926.926,0,0,1,.6,10.658,2.944,2.944,0,0,1,.019,9.352a1.93,1.93,0,0,1,.2-1.161c.459-.906,1.65-1.731,3.54-2.451A34.869,34.869,0,0,1,10,4.149,79.266,79.266,0,0,1,22.08,3.03c.286,0,.543,0,.765.012a6.041,6.041,0,0,1,1.659-.29,2.384,2.384,0,0,1,.884.153,13.773,13.773,0,0,1,5.352-2,42.048,42.048,0,0,1,8.3-.813A38.26,38.26,0,0,1,43.2.31a27.071,27.071,0,0,1,3.9.7,16.134,16.134,0,0,1,3.349,1.254,8.8,8.8,0,0,1,2.5,1.876,8.69,8.69,0,0,0,2.647.412,11.1,11.1,0,0,0,3.634-.674,35.422,35.422,0,0,0,3.474-1.488A29.981,29.981,0,0,1,66.932.657c.411-.092,1.506-.255,2.938-.4C71.089.142,72.96,0,74.951,0a22.09,22.09,0,0,1,5.911.638c1.821.528,2.8,1.378,2.9,2.526a4.8,4.8,0,0,1,.151,1.66A4.052,4.052,0,0,1,83.5,6.679a.536.536,0,0,1-.442.289.784.784,0,0,1-.482-.219,6.186,6.186,0,0,0-1.269,1.284,7.656,7.656,0,0,0-.856,1.509,20.8,20.8,0,0,0-1.029,3.41,13.615,13.615,0,0,1-2.038,5.2,6.408,6.408,0,0,1-2.514,2.081,8.027,8.027,0,0,1-3.432.755,9.162,9.162,0,0,1-6.609-2.926,12.849,12.849,0,0,1-2.544-3.969,20.8,20.8,0,0,1-1.426-5.916A5.183,5.183,0,0,0,58.9,7.808a12.058,12.058,0,0,0-2.12.251,14.942,14.942,0,0,1-1.82.249,12.372,12.372,0,0,1-.437,5.4,12.077,12.077,0,0,1-2.455,4.326,13.5,13.5,0,0,1-2.206,2.012,14.388,14.388,0,0,1-2.577,1.494A14.053,14.053,0,0,1,41.577,22.794ZM43.16,4.186a17.579,17.579,0,0,0-5.908.913,9.319,9.319,0,0,0-4.59,3.316,4.2,4.2,0,0,0-.468,3.572A19.963,19.963,0,0,0,33.481,15.3a12.679,12.679,0,0,0,1.9,2.829A7.855,7.855,0,0,0,41.4,20.838a11.3,11.3,0,0,0,3.022-.444A11.8,11.8,0,0,0,50.16,16.76a11.1,11.1,0,0,0,1.828-2.882,9.665,9.665,0,0,0,.793-3.309,7.576,7.576,0,0,0-.375-2.839,5.875,5.875,0,0,0-1.5-2.377,25.051,25.051,0,0,0-3.533-.822A26.68,26.68,0,0,0,43.16,4.186ZM72.619,2.83a7.7,7.7,0,0,0-2.005.266,9.857,9.857,0,0,0-4.426,2.552,9.4,9.4,0,0,0-1.635,2.22,10.132,10.132,0,0,0-.992,2.851,6.959,6.959,0,0,0,.135,2.7,5.233,5.233,0,0,0,.941,2.176,11.739,11.739,0,0,0,3.294,2.476,9.22,9.22,0,0,0,4.12,1.108,5.282,5.282,0,0,0,2.312-.5,6.217,6.217,0,0,0,2.094-1.88,10.527,10.527,0,0,0,1.323-2.609,29.9,29.9,0,0,0,1.233-5.669A3.957,3.957,0,0,0,78.851,6.7a4.7,4.7,0,0,0-.926-1.6,6.416,6.416,0,0,0-2.287-1.646A7.606,7.606,0,0,0,72.619,2.83Z" transform="translate(0.212 3.804)"/>
  </g>
</svg>
