<svg id="peep-105" xmlns="http://www.w3.org/2000/svg" width="240" height="324" viewBox="0 0 240 324">
  <g id="BODY" transform="translate(31.056 135.053)">
    <path id="_Skin" data-name="âœ‹ Skin" d="M145.681,58.086c-2.933-13.9-13.333-24.684-27.321-30.057-2.689-1.521-5.295-8.049-8.908-9.244-.579-.192.335,1.333,0,1.425a3.84,3.84,0,0,1-3.853-.814c-2.358-2.1-3.1-8.222-4.532-10.991C93.505-6.2,74.626-.485,72.1,15.657a59.03,59.03,0,0,1-6.176,3.09c-1.977.954-3.716,3.265-5.753,4.092-1.818.737-4.813.215-6.644.858C45.1,26.652,37.964,30.382,32.37,37.94c-1.179,1.594-2.507,3.554-3.58,5.164-5.53,6.368-9.371,13.506-12.908,21.164-9.9,22.477-12.589,47.365-15,71.582.055,4.237-2.756,15.987,1.4,18.019a.444.444,0,0,0,.3.771,170.658,170.658,0,0,1,31.434,2.672c5.007.885,9.987,2.1,15.087,2.3,10.587-.073,21.136-1.848,31.709-.168,12.71,0,28.157-.371,42.3-.914,13.215-.508,26.5.64,39.553-1.609a1.916,1.916,0,0,0,1.321-2.327,146.287,146.287,0,0,1-3.142-17.04,26.4,26.4,0,0,0-1.49-10.9Q154.04,92.087,145.681,58.086Z" transform="translate(9.718 -9.933)" fill="#d08b5b"/>
    <path id="_Jacket" data-name="ðŸ§¥ Jacket" d="M109.452,1.441c.335-.091-.579-1.616,0-1.425,3.613,1.2,6.22,7.723,8.908,9.244,13.988,5.373,24.388,16.158,27.321,30.057q8.385,33.947,13.67,68.563a26.4,26.4,0,0,1,1.49,10.9l.135.9a136.749,136.749,0,0,0,3.007,16.137,1.916,1.916,0,0,1-1.321,2.327c-12.9,2.223-26.036,1.126-39.1,1.592l-2.724.1c-13.507.5-27.992.829-40.024.829-10.573-1.679-21.122.1-31.709.168-5.1-.2-10.08-1.414-15.087-2.3a170.658,170.658,0,0,0-31.434-2.672.444.444,0,0,1-.3-.771c-4.157-2.031-1.346-13.781-1.4-18.019L1.1,114.9C3.461,91.373,6.282,67.3,15.882,45.5l.288-.62c3.459-7.423,7.24-14.348,12.621-20.544l.329-.493c1.008-1.506,2.19-3.236,3.251-4.671C37.964,11.614,45.1,7.884,53.523,4.928c1.832-.643,4.827-.12,6.644-.858,1.905-.773,3.55-2.845,5.372-3.89v7.8L91.906,33.962,106.86,11.023l1.521-9.4A5.371,5.371,0,0,0,109.452,1.441Z" transform="translate(9.718 8.919)" fill="#8fa7df"/>
    <path id="_Ink" data-name="ðŸ– Ink" d="M147.074,155.476a3.518,3.518,0,0,1-2.457-.954c-.931-.9-1.142-2.388-1.327-3.7-.045-.317-.087-.617-.138-.9l-.257-1.394c-1.1-6.015-1.936-11.037-2.617-15.8-.817-5.721-1.393-10.927-1.759-15.915-.223-3.052-.38-5.748-.48-8.243-.066-1.635-.07-3.3-.075-4.9,0-.935-.005-1.9-.02-2.855l-.013-.706c-.062-2.811-.007-5.636.061-8.27.009-.367.026-.733.04-1.01a.909.909,0,0,1-.2-.38l-.038-.173a1.384,1.384,0,0,1,.355-1.287c.037-.466.077-.94.116-1.4v0c.118-1.387.239-2.822.279-4.232a.111.111,0,0,1,.115-.114.121.121,0,0,1,.124.114c.125,1.6.378,3.229.623,4.8a9.921,9.921,0,0,0,2.083-2.414,16.4,16.4,0,0,0,1.405-2.781A.112.112,0,0,1,143,82.87a.1.1,0,0,1,.1.133A23.057,23.057,0,0,1,141.917,87,18.789,18.789,0,0,1,141,88.863c-.3.55-.6,1.119-.853,1.7a.886.886,0,0,1-.321.385l.043.333.04.333c.118,1.02.244,2.053.366,3.052.147,1.206.3,2.453.437,3.681l.123,1.124c.309,2.915.735,5.87,1.148,8.728v0c.251,1.737.51,3.534.74,5.3.528,4.061,1.161,8.868,1.851,13.734.642,4.521,1.337,9.336,2.149,14.12.334,1.969.688,3.97,1.053,5.945l.283,1.515a3.354,3.354,0,0,1,1.8,1.1,3.5,3.5,0,0,1,.79,1.831,3.22,3.22,0,0,1-.328,1.856,3.168,3.168,0,0,1-.6.811,3.665,3.665,0,0,1-.915.648A3.843,3.843,0,0,1,147.074,155.476Zm-27.422-.758h-.009l-13.836-.053c-5.7-.023-11.494-.056-17.1-.089H88.7l-7-.04c-1.836-.009-3.825-.043-6.08-.1-1.913-.053-3.787-.29-5.6-.518a3.17,3.17,0,0,1-2.954-3.889c.043-.29.09-.584.135-.868v-.008c.026-.161.054-.344.082-.522a1.364,1.364,0,0,1-.428.069,1.187,1.187,0,0,1-.837-.327l-.319-.312a5.216,5.216,0,0,1-1.118-1.451c-.2-.419-.38-.86-.552-1.287-.074-.184-.15-.373-.228-.56-.55-1.314-1.091-2.65-1.61-3.971-1.118-2.844-2.121-5.41-3.063-8.015-1.91-5.279-3.628-10.723-5.108-16.181-1.308-4.825-2.457-9.785-3.416-14.743-.95-4.909-1.737-9.939-2.339-14.951l-.288-2.388-.084-.705a72.565,72.565,0,0,1-.659-11.7,21.739,21.739,0,0,1,1.395-7.137,27.24,27.24,0,0,1,2.8-4.9c.184-.276.374-.561.559-.843l.141-.216.141-.221a15.088,15.088,0,0,0,1.372-2.63,8.429,8.429,0,0,0,.6-2.9,12.629,12.629,0,0,0-.352-3.092,28.581,28.581,0,0,0-.895-2.992l-.17-.483-.114-.32c-.123-.343-.249-.69-.371-1.027l-.007-.019a49.608,49.608,0,0,1-1.776-5.572,19.149,19.149,0,0,1-.457-2.863,14.562,14.562,0,0,1,.058-2.959A19.856,19.856,0,0,1,51.306,29.3a22.224,22.224,0,0,1,2.13-4.162,30.557,30.557,0,0,1,6.391-6.95,42.693,42.693,0,0,0-12.59,4.772A47.115,47.115,0,0,0,40.786,27.4,54.35,54.35,0,0,0,35.1,32.78a65.982,65.982,0,0,0-4.651,5.7c-1.386,1.9-2.744,3.964-4.034,6.131A113.79,113.79,0,0,0,19.8,57.736a151.912,151.912,0,0,0-5.356,14.411c-1.484,4.689-2.833,9.684-4.009,14.846-1.1,4.829-2.075,9.934-2.9,15.174-.762,4.851-1.424,10.007-1.967,15.324-.486,4.755-.9,9.768-1.272,15.327-.064.968-.123,1.952-.18,2.9v.006c-.1,1.624-.2,3.3-.326,4.953-.035.448-.067.9-.1,1.344a37.391,37.391,0,0,1-.834,6.469,1.161,1.161,0,0,1-.506.7,1.527,1.527,0,0,1-.827.24,1.315,1.315,0,0,1-.762-.229,1.057,1.057,0,0,1-.427-.707,43.143,43.143,0,0,1-.211-8.887l.012-.268c.125-2.812.3-5.78.505-8.822.426-6.182.995-12.235,1.69-17.99.658-5.455,1.445-10.738,2.337-15.7.967-5.372,2.1-10.59,3.36-15.509,1.349-5.252,2.9-10.354,4.6-15.166.891-2.513,1.845-5,2.837-7.407,1.018-2.466,2.1-4.91,3.23-7.264s2.3-4.617,3.48-6.691c1.293-2.277,2.648-4.433,4.027-6.408a64.908,64.908,0,0,1,4.662-5.937,53.27,53.27,0,0,1,5.386-5.28A44.888,44.888,0,0,1,48.511,19.8a32.631,32.631,0,0,1,6.031-1.781,33.142,33.142,0,0,1,6.218-.58h.017a48.255,48.255,0,0,1,6.68-4.257.14.14,0,0,1,.067-.017.145.145,0,0,1,.131.091.128.128,0,0,1-.031.145l-.071.07h0c-.034.033-.069.068-.1.1a1.162,1.162,0,0,1,.762.389,14.886,14.886,0,0,1,2.174,3.113c.456.57.909,1.158,1.348,1.726h0c.484.628.985,1.277,1.489,1.9,1.394,1.726,2.931,3.57,4.7,5.637,2.917,3.412,5.634,6.4,8.308,9.135l.48.489c.358.362.707.732,1.078,1.124a23.586,23.586,0,0,0,3.688,3.392l.094.063a1.839,1.839,0,0,0,.97.378,1.259,1.259,0,0,0,.936-.529,16.835,16.835,0,0,0,1.272-1.737v0c.091-.136.185-.276.278-.413l.114-.167A125.361,125.361,0,0,0,102.114,26.7c.952-1.757,1.877-3.577,2.751-5.41l.26-.548c.12-.255.243-.511.363-.758.355-.736.722-1.5,1.014-2.271.086-.229.173-.466.266-.727a7.725,7.725,0,0,1-2.736-4.242,6.411,6.411,0,0,1-.155-2.309,6.714,6.714,0,0,1,.656-2.21.311.311,0,0,1,.288-.167.343.343,0,0,1,.345.249,9.231,9.231,0,0,0,1.5,3.327,6.378,6.378,0,0,0,1.177,1.317,6.121,6.121,0,0,0,.777.517c.16.095.324.192.482.3a1.78,1.78,0,0,1,.275-.021,1.941,1.941,0,0,1,1.4.6L110.7,13.7a.151.151,0,0,1,.038-.12.209.209,0,0,1,.154-.063.171.171,0,0,1,.178.133c1.979,9.984,3.612,19.159,4.993,28.049l.64,4.148.6,3.894c.952,6.182,1.944,12.781,2.694,19.511,1.035,9.307,1.813,17.886,2.381,26.226.537,7.914.927,16.329,1.228,26.482.043,1.452.088,2.929.132,4.356v.036q.035,1.144.07,2.288l.451-2.663c.408-2.415.877-5.224,1.271-8.006.731-5.153,1.319-9.866,1.8-14.409.537-5.094.922-9.827,1.177-14.47a117.214,117.214,0,0,0,.063-13.317c-.135-2.3-.361-4.524-.67-6.622a61.468,61.468,0,0,0-1.317-6.525,53.109,53.109,0,0,0-2.1-6.376c-.452-1.126-1.006-2.225-1.541-3.287-.425-.844-.864-1.716-1.25-2.6a12.074,12.074,0,0,1-.974-3.431,10.848,10.848,0,0,1,.178-3.564c.159-.757.363-1.509.56-2.237a21.412,21.412,0,0,0,.84-4.215,17.155,17.155,0,0,0-.086-3.085,20.354,20.354,0,0,0-.593-3.012,25.507,25.507,0,0,0-1-2.914c-.372-.906-.812-1.846-1.31-2.793-.483-.919-1.017-1.874-1.587-2.839a90.4,90.4,0,0,0-5.525-8.171.118.118,0,0,1-.015-.129.175.175,0,0,1,.15-.091.134.134,0,0,1,.1.04c.475.47.972.947,1.452,1.408a51.2,51.2,0,0,1,3.9,4.026c.865,1.039,1.607,1.981,2.267,2.879a26.579,26.579,0,0,1,5.72,1.64,29.038,29.038,0,0,1,5.2,2.8,32.288,32.288,0,0,1,4.591,3.779,35.137,35.137,0,0,1,3.88,4.563,45.684,45.684,0,0,1,3.5,5.808,59.031,59.031,0,0,1,2.7,6.219,101.21,101.21,0,0,1,3.727,13.056c1.624,7.2,3.084,14.566,4.5,21.69v0c.5,2.518,1.015,5.121,1.533,7.693.616,3.053,1.241,6.158,1.846,9.161l.023.116c1.394,6.924,2.836,14.083,4.268,21.137l.092.453.026.126c.967,4.759,1.967,9.68,2.948,14.52.512,2.52,1.06,5.087,1.629,7.632.1.426.195.858.291,1.277l0,.012c.2.857.4,1.744.581,2.619a3.492,3.492,0,0,1-.976,3.5,1.025,1.025,0,0,1-.779.326,1.493,1.493,0,0,1-.626-.145l-.143-.067-.138-.067a2.78,2.78,0,0,1-1.359-1.183,5.075,5.075,0,0,1-.516-1.791h0c-.021-.129-.042-.262-.065-.393-.144-.816-.29-1.645-.43-2.447l-.012-.07q-.145-.825-.29-1.651c-.38-2.158-.787-4.268-1.17-6.227l-2.033-10.361c-.446-2.272-1.034-5.267-1.631-8.286-1.8-9.11-3.626-18.349-5.393-27.285l-.461-2.334c-.589-2.977-1.165-6.01-1.723-8.942-1.219-6.411-2.479-13.04-3.943-19.505l-.121-.531-.123-.53c-.513-2.183-1.034-4.157-1.6-6.032-.628-2.1-1.286-4.019-2.012-5.866a57.512,57.512,0,0,0-2.561-5.634,48.336,48.336,0,0,0-3.243-5.335,40.951,40.951,0,0,0-3.055-3.837,37.488,37.488,0,0,0-3.548-3.459,29.842,29.842,0,0,0-8.378-5.119c.434.625.849,1.261,1.234,1.89a28.767,28.767,0,0,1,3.007,6.522,18.634,18.634,0,0,1,.84,7.1,24.831,24.831,0,0,1-.489,2.887,17.292,17.292,0,0,0-.526,4.129,10.67,10.67,0,0,0,1.63,4.54h0c.218.4.444.824.645,1.233A55.464,55.464,0,0,1,131.6,64.635c.46,2.188.827,4.491,1.092,6.845.247,2.2.412,4.523.492,6.907a132.165,132.165,0,0,1-.34,13.855c-.335,4.7-.825,9.607-1.5,15-.562,4.511-1.235,9.254-2.119,14.925-.409,2.622-.895,5.276-1.365,7.842v0c-.441,2.408-.9,4.9-1.288,7.353-.274,1.716-.621,3.456-.956,5.139-.153.77-.312,1.566-.462,2.349l-.226,1.189c-.113.59-.251,1.285-.41,1.969l-.094.39v.07a2.148,2.148,0,0,1-.347,1.194,14.527,14.527,0,0,1-1.126,2.7,1.519,1.519,0,0,1-.987.784,2.682,2.682,0,0,1-.909,1.118A2.424,2.424,0,0,1,119.652,154.719ZM66.129,14.841c-.658.62-1.335,1.243-1.99,1.844l-.007.006c-.452.416-.92.845-1.377,1.271l-.411.384-.409.386A41.165,41.165,0,0,0,56.5,24.787a23.736,23.736,0,0,0-1.921,3.235A19.524,19.524,0,0,0,53.26,31.51a14.9,14.9,0,0,0-.171,7.4A40.814,40.814,0,0,0,54.884,44.2a31.465,31.465,0,0,1,2.105,6.89,12.111,12.111,0,0,1-.645,6.29,25.3,25.3,0,0,1-2.512,4.448l0,0c-.262.4-.532.809-.792,1.218a16.857,16.857,0,0,0-2.379,6.319,30.243,30.243,0,0,0-.272,6.8c.127,2.333.323,4.723.6,7.306.243,2.276.543,4.655.918,7.273.7,4.866,1.579,9.775,2.627,14.59s2.281,9.64,3.671,14.363c1.33,4.521,2.917,9.03,4.451,13.39l.237.673c.844,2.4,1.822,4.708,2.752,6.847.476,1.091.995,2.252,1.587,3.549-.133-1.114-.178-2.262-.221-3.372v0c-.021-.545-.043-1.108-.075-1.654-.1-1.712-.223-3.449-.341-5.128-.043-.615-.092-1.312-.138-1.98-.323-4.69-.623-9.546-.891-14.433-.525-9.618-.9-18.042-1.157-25.753-.3-9.245-.441-17.676-.417-25.774.027-8.928.219-17.6.571-25.779.145-3.378.407-6.808.661-10.126v0c.047-.619.1-1.32.152-1.994l.064-.865c.242-3.263.566-7.1,1.14-10.851a8.029,8.029,0,0,1-.41-1.124l-.038-.144.027,0A1.207,1.207,0,0,1,66.129,14.841ZM30.84,153.159a2.791,2.791,0,0,1-.373-.026,2.3,2.3,0,0,1-1.577-.879,2.52,2.52,0,0,1-.446-1.012,3.412,3.412,0,0,1-.028-1.188c.679-4.686,1.557-10.878,2.328-17.212l.8-6.549c.9-7.408,1.97-16.023,3.2-24.534.494-3.426,1-6.794,1.517-10.229l-.179-.233c-.553-.719-1.13-1.438-1.688-2.133h0l-.009-.012-.543-.677c-1.593-2-2.913-3.676-4.183-5.5a.1.1,0,0,1,0-.11.129.129,0,0,1,.108-.072.093.093,0,0,1,.058.02c1.842,1.361,3.589,2.818,5.364,4.316l1.542,1.306c.9-5.941,1.764-11.765,2.55-17.688a.131.131,0,0,1,.13-.115.107.107,0,0,1,.078.031.113.113,0,0,1,.029.084c-.057,1.8-.107,3.627-.156,5.4-.11,3.978-.224,8.091-.414,12.132l-.095,1.993a2.148,2.148,0,0,1,.476.788,1.753,1.753,0,0,1,0,1,.958.958,0,0,1-.6.649l-.09,1.853c-.391,8-.875,16.554-1.759,24.972-1.081,10.295-2.349,20.744-3.576,30.849l-.041.336a3.093,3.093,0,0,1-.756,1.731A2.218,2.218,0,0,1,30.84,153.159ZM72.013,12.982a1.111,1.111,0,0,1-.649-.185l-.178-.135-.086-.07a1.273,1.273,0,0,1-.336-1.272,6.42,6.42,0,0,1,1.144-1.745,11.724,11.724,0,0,0,.725-.945,17.576,17.576,0,0,0,1.407-2.557,27.046,27.046,0,0,0,1.471-4.939c.08-.348.162-.707.247-1.062A.09.09,0,0,1,75.85,0a.1.1,0,0,1,.1.071,12.4,12.4,0,0,1-.135,6.565,19.15,19.15,0,0,1-1.206,3.348l-.175.377a10.634,10.634,0,0,1-.721,1.348A3.847,3.847,0,0,1,72.684,12.8,1.214,1.214,0,0,1,72.013,12.982Z" transform="translate(8.028 -4.565)"/>
  </g>
  <g id="HEAD" transform="translate(78.592 38.043)">
    <path id="_Skin-2" data-name="âœ‹ Skin" d="M95.686,39.866C91.532,14.678,59.812,10.136,39.142,15.438c-.381-4.845-3.426-9.126-7.225-11.942C15.777-8.147-3.331,11.62.495,28.657c.686,5.161,4.8,11.05,10.559,10.167C3.817,52.555.989,80.242,16.934,88.8c1.538,1.1,1.794,3.327,2.978,4.756,1.922,2.305,10.134,5.241,14.576,2.888a11.434,11.434,0,0,0,4.889,2.982c9.727,7.806,23.942,9.567,35.786,6.346,7.3-1.241,14.862-4.541,18.616-11.284,3.181-5.131,1.715-11.144.257-16.575a73.018,73.018,0,0,1-1.293-9.036,4.341,4.341,0,0,0,.675-2.212c.56-2.714,1.784-5.233,2.4-7.939a45.572,45.572,0,0,0-.129-18.862" transform="translate(-5.271 1.268)" fill="#d08b5b"/>
    <path id="_Hair" data-name="ðŸ’ˆ Hair" d="M3.117,10.234A18.581,18.581,0,0,1,20.775.048c7.2.542,12.707,5.517,13.982,13.55l.037.244.077.521-.07.024.034.059.06.1c.071.117.159.249.279.423l.16.229.539.758.038.054.115.166.231-.082a51.855,51.855,0,0,1,35.069.291l.34.128.313.121.177.046a26.6,26.6,0,0,1,16.152,12.5l.114.191.115.2a40.114,40.114,0,0,1,5.076,20.579l0,.225,0,.036-.019.221a20.772,20.772,0,0,1-1.522,5.741l-.117.3-.181.465L91.2,58.573l-.138.357-1.619,4.262.3-4.277c.033-.476.052-.893.068-1.531l0-.115.036-1.81.011-.4c.006-.188.012-.358.019-.523l.012-.247.022-.384.005-.08-.01-.086a12.374,12.374,0,0,0-3.732-7.239l-.112-.114-.113-.113-.135-.134a39.463,39.463,0,0,0-6.48-4.9l-.143-.094-1.921-1.253-.719-.473C74.971,38.366,74,37.688,72.983,36.9l-.22-.171-.172-.136a21.33,21.33,0,0,1-4.211-4.27l-.1-.14-.209-.3.149-.32,0,0h0l.007-.034.01-.057.01-.069c.019-.138.035-.317.046-.52,0-.073.008-.148.01-.224l0-.115,0-.1-.039.117c-2.048,5.926-6.9,10.87-13.742,14.519l-.208.11-.235.123a51.181,51.181,0,0,1-22.141,5.563h-.458l-.176-.145a1.075,1.075,0,0,0-1.644,1.1,75.562,75.562,0,0,1,1.217,27.084l-.044.311,0,.029-.047.252c-.041.225-.08.455-.123.72l-.067.428-.259,1.734-.118.743-.051.3a13.967,13.967,0,0,1-2,5.732l-.1.14-.1.095-.1.1a2.347,2.347,0,0,0-.384.486l-.013.026-.007.016.017.007a3.018,3.018,0,0,0,1.52-.058l.068-.019.064-.02.442-.144.308.434.092.128c.169.234.345.47.566.759l.26.338.6.773-.551.382c-1.86,1.288-4.46,1.032-7.222-.176l-.108-.048-.039-.019a10.9,10.9,0,0,1-3.6-3.343l-.166-.212-.633-.813-.241-.3c-.168-.211-.312-.385-.456-.554l-.048-.056-.168-.193-.037-.075a7.678,7.678,0,0,0-3.43-3.34l-.246-.139-.157-.108C9.9,80.154,7.289,75.313,6.193,69.034A56.341,56.341,0,0,1,6.21,52.4l.038-.3.04-.308a42.542,42.542,0,0,1,4.588-14.53L11,37.039l.111-.2-.553-.439-.227-.177c-.188-.144-.325-.244-.449-.326l-.067-.043-.062-.038-.017.031L9.314,35.8a9.442,9.442,0,0,1-4.964-2.15l-.118-.1-.114-.115A15.544,15.544,0,0,1,0,22.259,25.832,25.832,0,0,1,2.921,10.6l.091-.173Z" transform="translate(-2.895 3.604)" fill="#e8e1e1"/>
    <path id="_Ink-2" data-name="ðŸ– Ink" d="M62.73,107.251h0a24.9,24.9,0,0,1-6.983-.835,12.327,12.327,0,0,1-3.136-1.381,8.851,8.851,0,0,1-2.482-2.323,1.4,1.4,0,0,1-.038-1.444,1.636,1.636,0,0,1,2.107-.63l.247.154,0,0a31.442,31.442,0,0,0,3.234,1.853,10.336,10.336,0,0,0,3.574,1.021c1.11.05,2.231.075,3.333.075a64.577,64.577,0,0,0,8.65-.555,42.551,42.551,0,0,0,8.641-2.035c6.211-2.237,10.333-5.845,12.251-10.724a11.781,11.781,0,0,0,.484-2.609,15.685,15.685,0,0,0-.035-2.61,41.652,41.652,0,0,0-.937-5.226,35.959,35.959,0,0,1-1-6.076,30.721,30.721,0,0,1-.32-5.045c.017-1.677.13-3.379.239-5.025.146-2.219.3-4.512.22-6.783a15.135,15.135,0,0,0-1.722-3.8A17.612,17.612,0,0,0,86.6,50.194a44.347,44.347,0,0,0-6.154-4.855,49.375,49.375,0,0,1-5.519-4.248,18.93,18.93,0,0,1-2.307-2.556,14.843,14.843,0,0,1-1.77-3.078,26.574,26.574,0,0,1-2.712,4.62,29.16,29.16,0,0,1-3.509,3.967A36.582,36.582,0,0,1,55.8,50.109a49.393,49.393,0,0,1-10.261,3.717,56.032,56.032,0,0,1-10.525,1.545,86.4,86.4,0,0,1,1.649,18.293,64.4,64.4,0,0,1-.856,9.157A53.355,53.355,0,0,1,33.525,91.7a15.936,15.936,0,0,0,2.206,2.4,14.918,14.918,0,0,0,2.66,1.886,8.7,8.7,0,0,0,.819.389A3.206,3.206,0,0,1,41.1,97.823a1.687,1.687,0,0,1-.264,1.332,1.109,1.109,0,0,1-.869.327c-1.709,0-4.766-2.155-5.482-3.036a8.638,8.638,0,0,1-4.059.867,18.44,18.44,0,0,1-6.313-1.238,10.855,10.855,0,0,1-4.2-2.517,9.032,9.032,0,0,1-1.16-2.072A13.259,13.259,0,0,0,18.005,90a4,4,0,0,0-1.071-1.2,19.938,19.938,0,0,1-8.664-9.489,30.4,30.4,0,0,1-2.113-6.465,42.177,42.177,0,0,1-.858-7.1,53.968,53.968,0,0,1,.229-7.338,60.528,60.528,0,0,1,1.148-7.192,57.11,57.11,0,0,1,1.9-6.659,43.446,43.446,0,0,1,2.479-5.739,7.6,7.6,0,0,1-1.147.089,7.358,7.358,0,0,1-3.555-.926,9.864,9.864,0,0,1-2.844-2.4,13.485,13.485,0,0,1-2-3.3A14.04,14.04,0,0,1,.495,28.657a20.833,20.833,0,0,1-.479-5.341,23.455,23.455,0,0,1,.823-5.29A26.665,26.665,0,0,1,5.7,8.511,25.736,25.736,0,0,1,9.036,5.044a22.876,22.876,0,0,1,3.854-2.688A19.556,19.556,0,0,1,17.135.618,17.032,17.032,0,0,1,21.64,0a16.37,16.37,0,0,1,5.147.835A18.986,18.986,0,0,1,31.917,3.5a19.715,19.715,0,0,1,4.895,5.211,16.028,16.028,0,0,1,1.575,3.218,13.8,13.8,0,0,1,.755,3.514,67.01,67.01,0,0,1,22.929-1.62,59.148,59.148,0,0,1,6.7,1.079,44.8,44.8,0,0,1,12.3,4.576,30.3,30.3,0,0,1,9.505,8.174,26.744,26.744,0,0,1,3.2,5.576,29.209,29.209,0,0,1,1.9,6.644A50.813,50.813,0,0,1,96.737,49.3a40.7,40.7,0,0,1-.922,9.426,36.074,36.074,0,0,1-1.165,3.815,33.291,33.291,0,0,0-1.231,4.124c-.023.135-.043.274-.062.408a3.406,3.406,0,0,1-.613,1.8,51.217,51.217,0,0,0,1.531,9.7,57.178,57.178,0,0,1,1.475,8.606,17.509,17.509,0,0,1-1.021,5.3,15.8,15.8,0,0,1-2.392,4.293,18.625,18.625,0,0,1-3.493,3.391,25.617,25.617,0,0,1-4.323,2.592,42.847,42.847,0,0,1-10.051,3.2,74.313,74.313,0,0,1-10.119,1.257C63.775,107.242,63.245,107.251,62.73,107.251Zm-6.9-91.1a51.954,51.954,0,0,0-8.221.658,51.4,51.4,0,0,0-7.943,1.936A49.526,49.526,0,0,0,32.21,21.9a46.743,46.743,0,0,0-6.774,4.332,43.8,43.8,0,0,0-5.883,5.45A41.287,41.287,0,0,0,9.293,54.211a75.529,75.529,0,0,0-.678,8.247,45.768,45.768,0,0,0,.549,8.629,29.953,29.953,0,0,0,.988,4.117,22.608,22.608,0,0,0,1.6,3.8,18.108,18.108,0,0,0,2.308,3.352,16.494,16.494,0,0,0,3.12,2.765,11.993,11.993,0,0,1,2.266,1.565,7.2,7.2,0,0,1,1.643,2.172c.443.5.868,1.052,1.279,1.583a12.547,12.547,0,0,0,3.8,3.689,10.677,10.677,0,0,0,4.123,1.012,4.459,4.459,0,0,0,2.59-.731c-.4-.515-.791-1.022-1.162-1.545a4.34,4.34,0,0,1-1.289.2,2.386,2.386,0,0,1-.763-.107.665.665,0,0,1-.435-.353.685.685,0,0,1,.071-.561,3.232,3.232,0,0,1,.669-.828A10.915,10.915,0,0,0,31.5,87.694a36.937,36.937,0,0,0,.718-3.9v0c.12-.812.233-1.579.376-2.327a73.343,73.343,0,0,0,.661-13.635A76.271,76.271,0,0,0,31.426,54.3a1.586,1.586,0,0,1,.289-1.376,1.857,1.857,0,0,1,1.427-.675,1.464,1.464,0,0,1,.947.323A47.957,47.957,0,0,0,45.025,51.19,52.24,52.24,0,0,0,50.7,49.476a46.884,46.884,0,0,0,5.467-2.4A38.345,38.345,0,0,0,61.161,44a29.664,29.664,0,0,0,4.248-3.756A20.861,20.861,0,0,0,70.618,30.7c.1-.137.192-.206.274-.206a.208.208,0,0,1,.167.118,5.015,5.015,0,0,1,.262,1.855,6.494,6.494,0,0,1-.144,1.686,16.933,16.933,0,0,0,1.973,2.327,26.462,26.462,0,0,0,2.381,2.084c1.693,1.326,3.6,2.565,5.442,3.763,1.379.9,2.8,1.822,4.129,2.777a30.437,30.437,0,0,1,3.673,3.047,15.582,15.582,0,0,1,2.762,3.588,11.907,11.907,0,0,1,1.4,4.4c-.058.866-.074,1.742-.089,2.589s-.031,1.726-.09,2.567c.189-.5.387-1,.578-1.483.449-1.136.913-2.311,1.279-3.488a16.59,16.59,0,0,0,.741-3.629,42.509,42.509,0,0,0-.22-5.342,41.593,41.593,0,0,0-.9-5.289,36.3,36.3,0,0,0-3.867-9.839A28.254,28.254,0,0,0,83.7,24.335a24.976,24.976,0,0,0-9.533-4.763A49.717,49.717,0,0,0,65.1,16.994a51.174,51.174,0,0,0-9.258-.843ZM21.894,2.966a16.985,16.985,0,0,0-4.549.629,17.827,17.827,0,0,0-4.36,1.872A18.23,18.23,0,0,0,9.119,8.561a19.089,19.089,0,0,0-3.065,4.3,24.345,24.345,0,0,0-1.24,2.645,26.061,26.061,0,0,0-.956,2.877,24.01,24.01,0,0,0-.848,6.085,17.7,17.7,0,0,0,.92,5.92,13.1,13.1,0,0,0,3.109,5.026,8.817,8.817,0,0,0,4.72,2.085A45.925,45.925,0,0,1,22.181,24.559a45.02,45.02,0,0,1,6.781-4.826,43.077,43.077,0,0,1,7.584-3.467,17.744,17.744,0,0,0-1.88-5.862A14.065,14.065,0,0,0,31.3,6.253,13.854,13.854,0,0,0,26.9,3.783a15.375,15.375,0,0,0-5-.817Z" transform="translate(-5.27 1.273)"/>
  </g>
  <g id="FACE" transform="translate(112.183 77.354)">
    <path id="tongue" d="M0,3S2.993,5.314,8.576,5.314A17.508,17.508,0,0,0,17.4,3.246S12.507.272,8.576.031,0,3,0,3Z" transform="translate(26.997 49.133)" fill="#ff6c6c"/>
    <path id="_Ink-3" data-name="ðŸ– Ink" d="M23.955,46.282a23.424,23.424,0,0,1-9.413-1.828,14.339,14.339,0,0,1-3.327-2.06A11.094,11.094,0,0,1,9.07,40.025a5.448,5.448,0,0,1-.981-2.992,2.328,2.328,0,0,1,.873-1.965,3.307,3.307,0,0,1,2.005-.547,6.773,6.773,0,0,1,1.077.092,70.08,70.08,0,0,0,9.788.961l.567.01a.612.612,0,0,1,.451-.256c1.324-.143,2.689-.166,4.009-.188.5-.008,1.008-.017,1.508-.031.45-.013.911-.036,1.357-.058.714-.035,1.451-.071,2.175-.071.477,0,.9.015,1.308.047l.127.011a6.313,6.313,0,0,1,1.8.432,3.562,3.562,0,0,1,1.414,1,2.684,2.684,0,0,1,.568,2.049,5.587,5.587,0,0,1-1.407,2.946,13.707,13.707,0,0,1-2.46,2.238c-.347.25-.677.466-1.008.66a.658.658,0,0,1-.448.254,13.456,13.456,0,0,1-5.18,1.542C25.735,46.241,24.841,46.282,23.955,46.282Zm-.841-5.061a13.468,13.468,0,0,0-4.159.654,11.045,11.045,0,0,0-1.781.823c-.355.19-.721.386-1.088.552a19.89,19.89,0,0,0,4.027,1.04,27.242,27.242,0,0,0,4.16.308c.694,0,1.4-.024,2.106-.072a12.435,12.435,0,0,0,4.175-1.01l-.017-.012c-.2-.142-.4-.289-.611-.417a12.406,12.406,0,0,0-2.054-1,13.551,13.551,0,0,0-4.345-.857C23.39,41.223,23.251,41.221,23.114,41.221Zm.8-11.087h0a7.367,7.367,0,0,1-2.629-.53,13.285,13.285,0,0,1-3.093-1.756,1.189,1.189,0,0,1-.432-.687,1.423,1.423,0,0,1,.061-.771,1.754,1.754,0,0,1,.521-.753,1.267,1.267,0,0,1,.811-.317,1.151,1.151,0,0,1,.628.193l.472.364a14.161,14.161,0,0,0,1.853,1.244,4.57,4.57,0,0,0,2.143.642,2.505,2.505,0,0,0,.981-.193,2.74,2.74,0,0,0,.913-.647,2.8,2.8,0,0,0,.531-2.255,4.26,4.26,0,0,0-1.13-2,8.24,8.24,0,0,0-1.711-1.381.531.531,0,0,1-.143-.61.8.8,0,0,1,.264-.38.809.809,0,0,1,.505-.167,1.075,1.075,0,0,1,.181.016,5.736,5.736,0,0,1,2.017.729,4.577,4.577,0,0,1,1.357,1.251,4.973,4.973,0,0,1,.866,3.321,5.475,5.475,0,0,1-.444,1.744,5.089,5.089,0,0,1-1,1.5A4.78,4.78,0,0,1,23.915,30.134Zm9.017-5.112a.6.6,0,0,1-.56-.322l-.143-.308-.145-.308c-.306-.653-.623-1.316-.93-1.957-.874-1.827-1.778-3.716-2.544-5.618a7.376,7.376,0,0,1-.579-3.063,3.727,3.727,0,0,1,1.293-2.741,2.762,2.762,0,0,1,1.831-.7,3.65,3.65,0,0,1,1.812.53,5.83,5.83,0,0,1,1.514,1.273l.224.266a4.675,4.675,0,0,1,.7,1.037,6.3,6.3,0,0,1,3.963-1.665,4.094,4.094,0,0,1,1.177.171,3.622,3.622,0,0,1,1.177.6,3.441,3.441,0,0,1,.839.938,3.51,3.51,0,0,1,.45,1.178,3.762,3.762,0,0,1,.01,1.322,4.978,4.978,0,0,1-.47,1.427,5.924,5.924,0,0,1-.823,1.207,10.471,10.471,0,0,1-2.292,1.89l-.476.3c-.886.565-1.925,1.244-2.915,1.993a20.878,20.878,0,0,0-2.647,2.355A.648.648,0,0,1,32.933,25.022Zm-21.516,0a.643.643,0,0,1-.473-.189A27.03,27.03,0,0,0,5.575,20.61l-.587-.373a10.673,10.673,0,0,1-2.342-1.908A5.971,5.971,0,0,1,1.8,17.107a4.967,4.967,0,0,1-.481-1.448,3.668,3.668,0,0,1,.461-2.5,3.43,3.43,0,0,1,.838-.939,3.581,3.581,0,0,1,1.177-.6,4.133,4.133,0,0,1,1.176-.169,6.3,6.3,0,0,1,3.966,1.663,4.525,4.525,0,0,1,.73-1.074l.263-.3a5.532,5.532,0,0,1,1.483-1.224,3.686,3.686,0,0,1,1.768-.5,2.793,2.793,0,0,1,1.841.695,3.7,3.7,0,0,1,1.3,2.828,7.863,7.863,0,0,1-.652,3.142C14.9,18.542,14.013,20.4,13.157,22.2c-.217.456-.442.928-.661,1.393l-.231.492c-.1.2-.191.407-.287.615A.6.6,0,0,1,11.417,25.022ZM.269,9.652a.225.225,0,0,1-.2-.1c-.121-.182-.083-.6.114-1.255.155-.512.358-1,.425-1.162L.623,7.1A13.829,13.829,0,0,1,3.108,3.121,10.811,10.811,0,0,1,5.761.986,6.73,6.73,0,0,1,9,0a3.6,3.6,0,0,1,2.978,1.487,1.309,1.309,0,0,1,.145,1.263,1.624,1.624,0,0,1-1.088,1.055,9.307,9.307,0,0,1-1.559.18,7.972,7.972,0,0,0-1.78.24,10.452,10.452,0,0,0-2.826,1.46A17.575,17.575,0,0,0,2.157,7.935a6.06,6.06,0,0,0-.442.539C1.3,9.019.829,9.636.279,9.652ZM41.735,7.686a.323.323,0,0,1-.128-.028,9.106,9.106,0,0,1-1.641-1.017,7.83,7.83,0,0,0-2-1.162l-.255-.087a14.355,14.355,0,0,0-4.246-.884l-.185,0a2.674,2.674,0,0,1-.817.128,2.116,2.116,0,0,1-1.146-.307,1.516,1.516,0,0,1-.679-1l-.012-.06L30.6,3.147a2.677,2.677,0,0,1,.089-1.324,1.65,1.65,0,0,1,.855-1A3.525,3.525,0,0,1,33.071.5,7.9,7.9,0,0,1,35.1.846l.517.144a12.28,12.28,0,0,1,3.742,1.56l.086.061.133.1A8.4,8.4,0,0,1,41.64,4.855,3.564,3.564,0,0,1,42.171,6.2a2.152,2.152,0,0,1-.238,1.37A.214.214,0,0,1,41.735,7.686Z" transform="translate(12.253 9.226)"/>
  </g>
</svg>
