<svg id="peep-81" xmlns="http://www.w3.org/2000/svg" width="240" height="324" viewBox="0 0 240 324">
  <g id="BODY" transform="translate(31.056 135.053)">
    <path id="_Skin" data-name="âœ‹ Skin" d="M145.681,58.086c-2.933-13.9-13.333-24.684-27.321-30.057-2.689-1.521-5.295-8.049-8.908-9.244-.579-.192.335,1.333,0,1.425a3.84,3.84,0,0,1-3.853-.814c-2.358-2.1-3.1-8.222-4.532-10.991C93.505-6.2,74.626-.485,72.1,15.657a59.03,59.03,0,0,1-6.176,3.09c-1.977.954-3.716,3.265-5.753,4.092-1.818.737-4.813.215-6.644.858C45.1,26.652,37.964,30.382,32.37,37.94c-1.179,1.594-2.507,3.554-3.58,5.164-5.53,6.368-9.371,13.506-12.908,21.164-9.9,22.477-12.589,47.365-15,71.582.055,4.237-2.756,15.987,1.4,18.019a.444.444,0,0,0,.3.771,170.658,170.658,0,0,1,31.434,2.672c5.007.885,9.987,2.1,15.087,2.3,10.587-.073,21.136-1.848,31.709-.168,12.71,0,28.157-.371,42.3-.914,13.215-.508,26.5.64,39.553-1.609a1.916,1.916,0,0,0,1.321-2.327,146.287,146.287,0,0,1-3.142-17.04,26.4,26.4,0,0,0-1.49-10.9Q154.04,92.087,145.681,58.086Z" transform="translate(9.718 -9.933)" fill="#d08b5b"/>
    <path id="_Jacket" data-name="ðŸ§¥ Jacket" d="M109.452,1.441c.335-.091-.579-1.616,0-1.425,3.613,1.2,6.22,7.723,8.908,9.244,13.988,5.373,24.388,16.158,27.321,30.057q8.385,33.947,13.67,68.563a26.4,26.4,0,0,1,1.49,10.9l.135.9a136.749,136.749,0,0,0,3.007,16.137,1.916,1.916,0,0,1-1.321,2.327c-12.9,2.223-26.036,1.126-39.1,1.592l-2.724.1c-13.507.5-27.992.829-40.024.829-10.573-1.679-21.122.1-31.709.168-5.1-.2-10.08-1.414-15.087-2.3a170.658,170.658,0,0,0-31.434-2.672.444.444,0,0,1-.3-.771c-4.157-2.031-1.346-13.781-1.4-18.019L1.1,114.9C3.461,91.373,6.282,67.3,15.882,45.5l.288-.62c3.459-7.423,7.24-14.348,12.621-20.544l.329-.493c1.008-1.506,2.19-3.236,3.251-4.671C37.964,11.614,45.1,7.884,53.523,4.928c1.832-.643,4.827-.12,6.644-.858,1.905-.773,3.55-2.845,5.372-3.89v7.8L91.906,33.962,106.86,11.023l1.521-9.4A5.371,5.371,0,0,0,109.452,1.441Z" transform="translate(9.718 8.919)" fill="#8fa7df"/>
    <path id="_Ink" data-name="ðŸ– Ink" d="M147.074,155.476a3.518,3.518,0,0,1-2.457-.954c-.931-.9-1.142-2.388-1.327-3.7-.045-.317-.087-.617-.138-.9l-.257-1.394c-1.1-6.015-1.936-11.037-2.617-15.8-.817-5.721-1.393-10.927-1.759-15.915-.223-3.052-.38-5.748-.48-8.243-.066-1.635-.07-3.3-.075-4.9,0-.935-.005-1.9-.02-2.855l-.013-.706c-.062-2.811-.007-5.636.061-8.27.009-.367.026-.733.04-1.01a.909.909,0,0,1-.2-.38l-.038-.173a1.384,1.384,0,0,1,.355-1.287c.037-.466.077-.94.116-1.4v0c.118-1.387.239-2.822.279-4.232a.111.111,0,0,1,.115-.114.121.121,0,0,1,.124.114c.125,1.6.378,3.229.623,4.8a9.921,9.921,0,0,0,2.083-2.414,16.4,16.4,0,0,0,1.405-2.781A.112.112,0,0,1,143,82.87a.1.1,0,0,1,.1.133A23.057,23.057,0,0,1,141.917,87,18.789,18.789,0,0,1,141,88.863c-.3.55-.6,1.119-.853,1.7a.886.886,0,0,1-.321.385l.043.333.04.333c.118,1.02.244,2.053.366,3.052.147,1.206.3,2.453.437,3.681l.123,1.124c.309,2.915.735,5.87,1.148,8.728v0c.251,1.737.51,3.534.74,5.3.528,4.061,1.161,8.868,1.851,13.734.642,4.521,1.337,9.336,2.149,14.12.334,1.969.688,3.97,1.053,5.945l.283,1.515a3.354,3.354,0,0,1,1.8,1.1,3.5,3.5,0,0,1,.79,1.831,3.22,3.22,0,0,1-.328,1.856,3.168,3.168,0,0,1-.6.811,3.665,3.665,0,0,1-.915.648A3.843,3.843,0,0,1,147.074,155.476Zm-27.422-.758h-.009l-13.836-.053c-5.7-.023-11.494-.056-17.1-.089H88.7l-7-.04c-1.836-.009-3.825-.043-6.08-.1-1.913-.053-3.787-.29-5.6-.518a3.17,3.17,0,0,1-2.954-3.889c.043-.29.09-.584.135-.868v-.008c.026-.161.054-.344.082-.522a1.364,1.364,0,0,1-.428.069,1.187,1.187,0,0,1-.837-.327l-.319-.312a5.216,5.216,0,0,1-1.118-1.451c-.2-.419-.38-.86-.552-1.287-.074-.184-.15-.373-.228-.56-.55-1.314-1.091-2.65-1.61-3.971-1.118-2.844-2.121-5.41-3.063-8.015-1.91-5.279-3.628-10.723-5.108-16.181-1.308-4.825-2.457-9.785-3.416-14.743-.95-4.909-1.737-9.939-2.339-14.951l-.288-2.388-.084-.705a72.565,72.565,0,0,1-.659-11.7,21.739,21.739,0,0,1,1.395-7.137,27.24,27.24,0,0,1,2.8-4.9c.184-.276.374-.561.559-.843l.141-.216.141-.221a15.088,15.088,0,0,0,1.372-2.63,8.429,8.429,0,0,0,.6-2.9,12.629,12.629,0,0,0-.352-3.092,28.581,28.581,0,0,0-.895-2.992l-.17-.483-.114-.32c-.123-.343-.249-.69-.371-1.027l-.007-.019a49.608,49.608,0,0,1-1.776-5.572,19.149,19.149,0,0,1-.457-2.863,14.562,14.562,0,0,1,.058-2.959A19.856,19.856,0,0,1,51.306,29.3a22.224,22.224,0,0,1,2.13-4.162,30.557,30.557,0,0,1,6.391-6.95,42.693,42.693,0,0,0-12.59,4.772A47.115,47.115,0,0,0,40.786,27.4,54.35,54.35,0,0,0,35.1,32.78a65.982,65.982,0,0,0-4.651,5.7c-1.386,1.9-2.744,3.964-4.034,6.131A113.79,113.79,0,0,0,19.8,57.736a151.912,151.912,0,0,0-5.356,14.411c-1.484,4.689-2.833,9.684-4.009,14.846-1.1,4.829-2.075,9.934-2.9,15.174-.762,4.851-1.424,10.007-1.967,15.324-.486,4.755-.9,9.768-1.272,15.327-.064.968-.123,1.952-.18,2.9v.006c-.1,1.624-.2,3.3-.326,4.953-.035.448-.067.9-.1,1.344a37.391,37.391,0,0,1-.834,6.469,1.161,1.161,0,0,1-.506.7,1.527,1.527,0,0,1-.827.24,1.315,1.315,0,0,1-.762-.229,1.057,1.057,0,0,1-.427-.707,43.143,43.143,0,0,1-.211-8.887l.012-.268c.125-2.812.3-5.78.505-8.822.426-6.182.995-12.235,1.69-17.99.658-5.455,1.445-10.738,2.337-15.7.967-5.372,2.1-10.59,3.36-15.509,1.349-5.252,2.9-10.354,4.6-15.166.891-2.513,1.845-5,2.837-7.407,1.018-2.466,2.1-4.91,3.23-7.264s2.3-4.617,3.48-6.691c1.293-2.277,2.648-4.433,4.027-6.408a64.908,64.908,0,0,1,4.662-5.937,53.27,53.27,0,0,1,5.386-5.28A44.888,44.888,0,0,1,48.511,19.8a32.631,32.631,0,0,1,6.031-1.781,33.142,33.142,0,0,1,6.218-.58h.017a48.255,48.255,0,0,1,6.68-4.257.14.14,0,0,1,.067-.017.145.145,0,0,1,.131.091.128.128,0,0,1-.031.145l-.071.07h0c-.034.033-.069.068-.1.1a1.162,1.162,0,0,1,.762.389,14.886,14.886,0,0,1,2.174,3.113c.456.57.909,1.158,1.348,1.726h0c.484.628.985,1.277,1.489,1.9,1.394,1.726,2.931,3.57,4.7,5.637,2.917,3.412,5.634,6.4,8.308,9.135l.48.489c.358.362.707.732,1.078,1.124a23.586,23.586,0,0,0,3.688,3.392l.094.063a1.839,1.839,0,0,0,.97.378,1.259,1.259,0,0,0,.936-.529,16.835,16.835,0,0,0,1.272-1.737v0c.091-.136.185-.276.278-.413l.114-.167A125.361,125.361,0,0,0,102.114,26.7c.952-1.757,1.877-3.577,2.751-5.41l.26-.548c.12-.255.243-.511.363-.758.355-.736.722-1.5,1.014-2.271.086-.229.173-.466.266-.727a7.725,7.725,0,0,1-2.736-4.242,6.411,6.411,0,0,1-.155-2.309,6.714,6.714,0,0,1,.656-2.21.311.311,0,0,1,.288-.167.343.343,0,0,1,.345.249,9.231,9.231,0,0,0,1.5,3.327,6.378,6.378,0,0,0,1.177,1.317,6.121,6.121,0,0,0,.777.517c.16.095.324.192.482.3a1.78,1.78,0,0,1,.275-.021,1.941,1.941,0,0,1,1.4.6L110.7,13.7a.151.151,0,0,1,.038-.12.209.209,0,0,1,.154-.063.171.171,0,0,1,.178.133c1.979,9.984,3.612,19.159,4.993,28.049l.64,4.148.6,3.894c.952,6.182,1.944,12.781,2.694,19.511,1.035,9.307,1.813,17.886,2.381,26.226.537,7.914.927,16.329,1.228,26.482.043,1.452.088,2.929.132,4.356v.036q.035,1.144.07,2.288l.451-2.663c.408-2.415.877-5.224,1.271-8.006.731-5.153,1.319-9.866,1.8-14.409.537-5.094.922-9.827,1.177-14.47a117.214,117.214,0,0,0,.063-13.317c-.135-2.3-.361-4.524-.67-6.622a61.468,61.468,0,0,0-1.317-6.525,53.109,53.109,0,0,0-2.1-6.376c-.452-1.126-1.006-2.225-1.541-3.287-.425-.844-.864-1.716-1.25-2.6a12.074,12.074,0,0,1-.974-3.431,10.848,10.848,0,0,1,.178-3.564c.159-.757.363-1.509.56-2.237a21.412,21.412,0,0,0,.84-4.215,17.155,17.155,0,0,0-.086-3.085,20.354,20.354,0,0,0-.593-3.012,25.507,25.507,0,0,0-1-2.914c-.372-.906-.812-1.846-1.31-2.793-.483-.919-1.017-1.874-1.587-2.839a90.4,90.4,0,0,0-5.525-8.171.118.118,0,0,1-.015-.129.175.175,0,0,1,.15-.091.134.134,0,0,1,.1.04c.475.47.972.947,1.452,1.408a51.2,51.2,0,0,1,3.9,4.026c.865,1.039,1.607,1.981,2.267,2.879a26.579,26.579,0,0,1,5.72,1.64,29.038,29.038,0,0,1,5.2,2.8,32.288,32.288,0,0,1,4.591,3.779,35.137,35.137,0,0,1,3.88,4.563,45.684,45.684,0,0,1,3.5,5.808,59.031,59.031,0,0,1,2.7,6.219,101.21,101.21,0,0,1,3.727,13.056c1.624,7.2,3.084,14.566,4.5,21.69v0c.5,2.518,1.015,5.121,1.533,7.693.616,3.053,1.241,6.158,1.846,9.161l.023.116c1.394,6.924,2.836,14.083,4.268,21.137l.092.453.026.126c.967,4.759,1.967,9.68,2.948,14.52.512,2.52,1.06,5.087,1.629,7.632.1.426.195.858.291,1.277l0,.012c.2.857.4,1.744.581,2.619a3.492,3.492,0,0,1-.976,3.5,1.025,1.025,0,0,1-.779.326,1.493,1.493,0,0,1-.626-.145l-.143-.067-.138-.067a2.78,2.78,0,0,1-1.359-1.183,5.075,5.075,0,0,1-.516-1.791h0c-.021-.129-.042-.262-.065-.393-.144-.816-.29-1.645-.43-2.447l-.012-.07q-.145-.825-.29-1.651c-.38-2.158-.787-4.268-1.17-6.227l-2.033-10.361c-.446-2.272-1.034-5.267-1.631-8.286-1.8-9.11-3.626-18.349-5.393-27.285l-.461-2.334c-.589-2.977-1.165-6.01-1.723-8.942-1.219-6.411-2.479-13.04-3.943-19.505l-.121-.531-.123-.53c-.513-2.183-1.034-4.157-1.6-6.032-.628-2.1-1.286-4.019-2.012-5.866a57.512,57.512,0,0,0-2.561-5.634,48.336,48.336,0,0,0-3.243-5.335,40.951,40.951,0,0,0-3.055-3.837,37.488,37.488,0,0,0-3.548-3.459,29.842,29.842,0,0,0-8.378-5.119c.434.625.849,1.261,1.234,1.89a28.767,28.767,0,0,1,3.007,6.522,18.634,18.634,0,0,1,.84,7.1,24.831,24.831,0,0,1-.489,2.887,17.292,17.292,0,0,0-.526,4.129,10.67,10.67,0,0,0,1.63,4.54h0c.218.4.444.824.645,1.233A55.464,55.464,0,0,1,131.6,64.635c.46,2.188.827,4.491,1.092,6.845.247,2.2.412,4.523.492,6.907a132.165,132.165,0,0,1-.34,13.855c-.335,4.7-.825,9.607-1.5,15-.562,4.511-1.235,9.254-2.119,14.925-.409,2.622-.895,5.276-1.365,7.842v0c-.441,2.408-.9,4.9-1.288,7.353-.274,1.716-.621,3.456-.956,5.139-.153.77-.312,1.566-.462,2.349l-.226,1.189c-.113.59-.251,1.285-.41,1.969l-.094.39v.07a2.148,2.148,0,0,1-.347,1.194,14.527,14.527,0,0,1-1.126,2.7,1.519,1.519,0,0,1-.987.784,2.682,2.682,0,0,1-.909,1.118A2.424,2.424,0,0,1,119.652,154.719ZM66.129,14.841c-.658.62-1.335,1.243-1.99,1.844l-.007.006c-.452.416-.92.845-1.377,1.271l-.411.384-.409.386A41.165,41.165,0,0,0,56.5,24.787a23.736,23.736,0,0,0-1.921,3.235A19.524,19.524,0,0,0,53.26,31.51a14.9,14.9,0,0,0-.171,7.4A40.814,40.814,0,0,0,54.884,44.2a31.465,31.465,0,0,1,2.105,6.89,12.111,12.111,0,0,1-.645,6.29,25.3,25.3,0,0,1-2.512,4.448l0,0c-.262.4-.532.809-.792,1.218a16.857,16.857,0,0,0-2.379,6.319,30.243,30.243,0,0,0-.272,6.8c.127,2.333.323,4.723.6,7.306.243,2.276.543,4.655.918,7.273.7,4.866,1.579,9.775,2.627,14.59s2.281,9.64,3.671,14.363c1.33,4.521,2.917,9.03,4.451,13.39l.237.673c.844,2.4,1.822,4.708,2.752,6.847.476,1.091.995,2.252,1.587,3.549-.133-1.114-.178-2.262-.221-3.372v0c-.021-.545-.043-1.108-.075-1.654-.1-1.712-.223-3.449-.341-5.128-.043-.615-.092-1.312-.138-1.98-.323-4.69-.623-9.546-.891-14.433-.525-9.618-.9-18.042-1.157-25.753-.3-9.245-.441-17.676-.417-25.774.027-8.928.219-17.6.571-25.779.145-3.378.407-6.808.661-10.126v0c.047-.619.1-1.32.152-1.994l.064-.865c.242-3.263.566-7.1,1.14-10.851a8.029,8.029,0,0,1-.41-1.124l-.038-.144.027,0A1.207,1.207,0,0,1,66.129,14.841ZM30.84,153.159a2.791,2.791,0,0,1-.373-.026,2.3,2.3,0,0,1-1.577-.879,2.52,2.52,0,0,1-.446-1.012,3.412,3.412,0,0,1-.028-1.188c.679-4.686,1.557-10.878,2.328-17.212l.8-6.549c.9-7.408,1.97-16.023,3.2-24.534.494-3.426,1-6.794,1.517-10.229l-.179-.233c-.553-.719-1.13-1.438-1.688-2.133h0l-.009-.012-.543-.677c-1.593-2-2.913-3.676-4.183-5.5a.1.1,0,0,1,0-.11.129.129,0,0,1,.108-.072.093.093,0,0,1,.058.02c1.842,1.361,3.589,2.818,5.364,4.316l1.542,1.306c.9-5.941,1.764-11.765,2.55-17.688a.131.131,0,0,1,.13-.115.107.107,0,0,1,.078.031.113.113,0,0,1,.029.084c-.057,1.8-.107,3.627-.156,5.4-.11,3.978-.224,8.091-.414,12.132l-.095,1.993a2.148,2.148,0,0,1,.476.788,1.753,1.753,0,0,1,0,1,.958.958,0,0,1-.6.649l-.09,1.853c-.391,8-.875,16.554-1.759,24.972-1.081,10.295-2.349,20.744-3.576,30.849l-.041.336a3.093,3.093,0,0,1-.756,1.731A2.218,2.218,0,0,1,30.84,153.159ZM72.013,12.982a1.111,1.111,0,0,1-.649-.185l-.178-.135-.086-.07a1.273,1.273,0,0,1-.336-1.272,6.42,6.42,0,0,1,1.144-1.745,11.724,11.724,0,0,0,.725-.945,17.576,17.576,0,0,0,1.407-2.557,27.046,27.046,0,0,0,1.471-4.939c.08-.348.162-.707.247-1.062A.09.09,0,0,1,75.85,0a.1.1,0,0,1,.1.071,12.4,12.4,0,0,1-.135,6.565,19.15,19.15,0,0,1-1.206,3.348l-.175.377a10.634,10.634,0,0,1-.721,1.348A3.847,3.847,0,0,1,72.684,12.8,1.214,1.214,0,0,1,72.013,12.982Z" transform="translate(8.028 -4.565)"/>
  </g>
  <g id="HEAD" transform="translate(78.592 38.043)">
    <path id="_Skin-2" data-name="âœ‹ Skin" d="M97.794,18.908c-.468-1.185-1.3-2.674-2.68-2.733-1.071-3.281-3.732-6.623-7.435-6.534C76.811-1.5,63.129-.975,48.825,1.383c-7.547,1.4-15.209,4.151-20.838,9.573-6.741,6.383-9.366,17.521-4.087,25.593C19.338,39,19.249,44.816,21.2,49.014c-2.345,1.626-2.488,5.572.153,6.812a2.41,2.41,0,0,0,.227,1.685A22.287,22.287,0,0,1,17.157,60.1a2.087,2.087,0,0,0-1.131,1.372C11.4,64.519-.136,71.955,0,77.873-.066,80.96,2.218,82.992,4.994,83.8c-1.652,3.31-2.906,7.177-1.324,10.748.437,1.079,3.712,4.25,3.876,4.308.288.248,4.986-1.914,7.269-3.017a4.555,4.555,0,0,0,6.177,3.41c2.517-.761,4.064-2.9,5.652-4.84,2.107,4.608,8.307,4.661,12.314,2.674a15.8,15.8,0,0,0,7.858-8.4,43.12,43.12,0,0,0,26.35,3.542,2.562,2.562,0,0,0,2.926,1.286C80.766,92.1,85.934,92.024,89.9,88.8c8.26-5.943,8.955-16.9,8.379-26.241-.511-9.313-.064-18.7-1.752-27.915a53.162,53.162,0,0,1,3.08-7.658C100.829,24.311,100.8,20.339,97.794,18.908Z" transform="translate(-11.806 11.624)" fill="#d08b5b"/>
    <path id="_Hair" data-name="ðŸ’ˆ Hair" d="M58.823,0h.321q.8.005,1.589.031A58.319,58.319,0,0,1,69.72,1.11l.5.1c.816.16,1.547.321,2.712.594l2.313.547c1.178.275,2.045.466,2.845.619l.1.02S84.358,5.947,86.349,7.9l.2.2.085.085L87.5,8.2l.008.11h.007a4.395,4.395,0,0,1,2.36,1.275l.077.075.074.075A12.446,12.446,0,0,1,91.657,11.9l.14.222.252.4.2.321q.2.315.382.624l.12.205.087.151,2.235,1.307a3.824,3.824,0,0,1,.883.724l.073.081.071.083.609.726-.123.128.059.078.106.146.1.148.1.15.043.066.066.142.032.071.025.058.076.039.155.281a10.314,10.314,0,0,1,1.269,4.813,9.62,9.62,0,0,1-.467,3.266,7.271,7.271,0,0,1-1.1,2.038l-.434.6-.089.123-.106.15-.049.071c-.706,1.025-6.74,2.966-10.449,3.059l-.112,0h-.143q-.531,0-1.026-.039a19.126,19.126,0,0,1-4.31-.913l-.322-.1-1.707-.575-.129-.042-.156-.049a5.512,5.512,0,0,0-.835-.206l-.038,0,0,.071v.121a1.886,1.886,0,0,1-1.207,1.728,6.621,6.621,0,0,1-1.841.524l-.122.019a41.128,41.128,0,0,1-5.218.332q-.142,0-.286,0a6.916,6.916,0,0,1-1.733-.34l-.369-.106-.2-.055a3.712,3.712,0,0,0-.773-.151l-.057,0h-.056a.864.864,0,0,0-.57.179l-.085.068-1.146.963c-.149.125-.283.235-.381.313l-.04.032a8.137,8.137,0,0,1-4.84,2.01l-.118,0h-.123q-.135,0-.27,0A6.328,6.328,0,0,1,55.14,35.1l-.219-.112-.153-.08-.248-.132-.787-.422-.4-.211a5.543,5.543,0,0,0-.929-.416l-.029-.008-.017.016A6.655,6.655,0,0,0,51.2,35.369l-.058.108-.084.161-.547,1.092-.1.2a7.067,7.067,0,0,1-1.148,1.735A3.311,3.311,0,0,1,47,39.742l-.091,0-.108,0a4.915,4.915,0,0,1-1.369-.2l-.114-.033-.111-.034a4,4,0,0,0-2.8.4,2.549,2.549,0,0,0-1.52,2.371,11.294,11.294,0,0,0,.174,1.659l.029.164a25.3,25.3,0,0,0,.6,2.463l.61,2.063.069.241.069.248c.1.361.178.675.243.971a4.987,4.987,0,0,1,.041,2.706c-1.1,3.193-3.01,4.889-5.185,4.96l-.075,0h-.093c-1.67-.018-3.184-1.109-3.165-2.523a1.161,1.161,0,0,1,.079-.411l.022-.053.011-.022-.017-.042a3.875,3.875,0,0,0-3.095-2.308l-.079-.009-.078-.008c-.077-.007-.153-.011-.225-.014l-.071,0h-.085c-1.858,0-3.7,1.243-5.143,3.271a11.255,11.255,0,0,0-.833,1.373l-.083.164-.4.825-.272.8c-1.5,4.392-.739,8.987,2.182,11.363l.089.071a6.96,6.96,0,0,0,3.611,1.465c.152.016.305.025.452.029l.109,0h.125a4.922,4.922,0,0,0,1.212-.159,1.645,1.645,0,0,0,.658-.307,1,1,0,0,0,.1-.093l.022-.027L32.5,71.1l2,.3a19.038,19.038,0,0,0,2.916,6.968l.1.161.175.277.178.277a30.783,30.783,0,0,0,6.273,7.2l.161.13.216.171.2.155c.385.3.705.532,1.026.74l.08.051.757.481-.351.826a17.728,17.728,0,0,1-3.346,5.173l-.132.139-.969,1-.745-.951a.078.078,0,0,0-.042-.02l-.014,0h-.018l-.012,0-.012.006a4.712,4.712,0,0,0-1.3.989l-.064.066-.074.078-.1.107A8.015,8.015,0,0,1,33.9,97.872l-.133,0h-.134l-.144,0a8,8,0,0,1-6.9-4.756c-.052-.11-.1-.146-.187-.154h-.056a.918.918,0,0,0-.631.3L25.7,93.3l-.5.67-.191.253c-1.775,2.336-3.233,3.614-5.19,4a3.272,3.272,0,0,1-.49.057l-.105,0h-.061a5.416,5.416,0,0,1-2.568-.673,2.681,2.681,0,0,1-1.54-2.531l.006-.07.014-.116c.065-.579-.4-.894-.751-.61l-.024.02-.029.027a14.316,14.316,0,0,1-4.943,3.072l-.16.056-.237.081a8.96,8.96,0,0,1-2.789.592,2.215,2.215,0,0,1-1.781-.761,3.433,3.433,0,0,1-.652-1.267l-.03-.093L3.61,95.8l-.041-.139a12.929,12.929,0,0,1-.124-6.007,32.155,32.155,0,0,1,1.62-5.41l.16-.425.33-.868c.033-.087-.165-.391-.287-.425l-.014,0-.112.012c-.078.007-.157.013-.238.016l-.123,0H4.7C2.025,82.524-.016,79.9,0,77.112.023,74.5,1.331,72.262,3.829,69.6l.217-.229.235-.244.232-.238a52.363,52.363,0,0,1,6.851-5.939l.2-.14.218-.154c.8-.56,1.569-1.067,2.64-1.734l.63-.39L17.6,57.511l.181-.1.032-1.048,2.461.051a4.941,4.941,0,0,1-1.562-1.21,3.379,3.379,0,0,1,.477-5.1l.06-.039.716-.443.586.515a3.829,3.829,0,0,0,1.616.884l.089.02.442.094.086.14.05-.072a.075.075,0,0,0,0-.021l0-.01-.009-.014-.056-.069-.061-.074a11.625,11.625,0,0,0-.817-.843L21.6,49.9l-.219-.213a8.25,8.25,0,0,1-1.2-1.4,7.318,7.318,0,0,1-1.284-3.958,7.6,7.6,0,0,1,4.4-6.846c.093-.043.161-.353.05-.557a22,22,0,0,1-1.988-15.628A22.86,22.86,0,0,1,29.824,8.736C37.172,3.04,47.365.1,58.18,0l.328,0Z" transform="translate(-10.334 12.047)" fill="#ecdcbf"/>
    <path id="_Ink-2" data-name="ðŸ– Ink" d="M20.794,102.024h-.116a6.548,6.548,0,0,1-3.093-.837,5.614,5.614,0,0,1-2.174-2.15,16.268,16.268,0,0,1-4.567,2.212l-.146.043a10.326,10.326,0,0,1-2.863.478,4.718,4.718,0,0,1-2-.4,3.857,3.857,0,0,1-1.616-1.439,8.7,8.7,0,0,1-1.239-3.707,15.916,15.916,0,0,1,.054-3.94,28.787,28.787,0,0,1,1.746-6.388A6.287,6.287,0,0,1,1.9,83.984,7.684,7.684,0,0,1,.886,82.524a7.572,7.572,0,0,1-.646-1.64,8.043,8.043,0,0,1,.354-4.951A14.848,14.848,0,0,1,3.23,71.638a32.747,32.747,0,0,1,3.88-3.825c1.266-1.07,2.688-2.146,4.349-3.289a43.007,43.007,0,0,1,4.672-2.841,23.64,23.64,0,0,1,5.081-1.977.482.482,0,0,1,.118-.015.426.426,0,0,1,.4.316.433.433,0,0,1-.187.5c-.914.583-1.854,1.153-2.762,1.7-1.7,1.031-3.454,2.1-5.105,3.282-1.167.838-2.338,1.768-3.482,2.764-1.077.938-2.164,1.967-3.231,3.056l-.23.236A20.456,20.456,0,0,0,4.05,74.828a9.406,9.406,0,0,0-.926,1.906A6.523,6.523,0,0,0,2.757,78.8a4.807,4.807,0,0,0,.351,1.806,4.67,4.67,0,0,0,1,1.54A3.255,3.255,0,0,0,6.44,83.174a3.217,3.217,0,0,0,.389-.024,1,1,0,0,1,.121-.007,1.354,1.354,0,0,1,1.076.639A1.348,1.348,0,0,1,8.239,85l-.33.867a35.087,35.087,0,0,0-1.7,5.52,12,12,0,0,0,.076,5.658l.039.132a3.586,3.586,0,0,0,.47,1.1,1.162,1.162,0,0,0,1,.474H7.82a9.12,9.12,0,0,0,2.7-.616,12.572,12.572,0,0,0,2.514-1.2,13.984,13.984,0,0,0,2.208-1.7,1.54,1.54,0,0,1,1.054-.457,1.47,1.47,0,0,1,1.085.512,1.8,1.8,0,0,1,.435,1.4l-.006.046a1.369,1.369,0,0,0,.354,1.122,3.855,3.855,0,0,0,2.68,1.046,2.421,2.421,0,0,0,.466-.041c2.217-.44,3.816-2.6,5.1-4.336l.136-.183a1.965,1.965,0,0,1,1.506-.763,1.26,1.26,0,0,1,1.194.763,7.5,7.5,0,0,0,2.408,2.922A6.417,6.417,0,0,0,35.221,98.5l.182,0a6.633,6.633,0,0,0,1.9-.28,7.215,7.215,0,0,0,1.754-.8,6.83,6.83,0,0,0,1.283-1.045l.1-.1a5.918,5.918,0,0,1,1.7-1.331,1.139,1.139,0,0,1,1.346.195,1.041,1.041,0,0,1,.3.755A3.507,3.507,0,0,1,42.7,98.541a10.238,10.238,0,0,1-4.583,2.754,9.527,9.527,0,0,1-2.6.371c-.1,0-.194,0-.289,0a9.6,9.6,0,0,1-2.14-.318,10.089,10.089,0,0,1-2.012-.774,10.257,10.257,0,0,1-3.322-2.713,14.756,14.756,0,0,1-3.068,2.9,7.9,7.9,0,0,1-1.83.924A6.342,6.342,0,0,1,20.794,102.024Zm52.825-5.01a37.762,37.762,0,0,1-4.432-.261,40.333,40.333,0,0,1-4.744-.818l-.675-.169a6.323,6.323,0,0,1-1.783-.671,2.012,2.012,0,0,1-.993-1.529,1.418,1.418,0,0,1,.188-.923,1.957,1.957,0,0,1,.706-.659,1.911,1.911,0,0,1,.995-.253,5.581,5.581,0,0,1,1.386.241l.124.032a40.6,40.6,0,0,0,4.151.87,34.544,34.544,0,0,0,5.132.375,38.732,38.732,0,0,0,3.982-.209,31.574,31.574,0,0,0,7.615-1.714,21.455,21.455,0,0,0,6.742-3.877,13.4,13.4,0,0,0,3.961-5.435,21.988,21.988,0,0,0,.83-7.878c0-.241-.008-.515-.011-.78-.037-3.19-.041-6.434-.045-9.572v0c0-3.467-.009-7.052-.058-10.58-.1-7.431.024-14.023.387-20.154a.1.1,0,0,1,.1-.088.069.069,0,0,1,.073.064c1.076,7.828,1.664,15.654,2.1,22.277.236,3.606.518,7.42.837,11.337.071.867.154,1.756.235,2.616h0a68.136,68.136,0,0,1,.441,8.36,16.7,16.7,0,0,1-2.1,7.714,18.817,18.817,0,0,1-5.359,5.943c-3.853,2.839-8.895,4.669-14.985,5.439A38.446,38.446,0,0,1,73.619,97.014Zm-24.091-5.98c-1.535,0-3.19-1.321-4.179-2.11a31.655,31.655,0,0,1-6.663-7.585l-.18-.28a21.471,21.471,0,0,1-3.348-7.814l-.079.128-.014.02a1.916,1.916,0,0,1-.3.323,2.625,2.625,0,0,1-1.07.526,5.993,5.993,0,0,1-1.563.2,7.072,7.072,0,0,1-.718-.037,8,8,0,0,1-2.2-.546,8.1,8.1,0,0,1-1.957-1.139,8.324,8.324,0,0,1-2.166-2.575,10.157,10.157,0,0,1-1.076-3.178,14.265,14.265,0,0,1,.623-6.855,2.272,2.272,0,0,1-.528.06,3.808,3.808,0,0,1-1.611-.421,8.651,8.651,0,0,1-1.417-.874,6.208,6.208,0,0,1-1.43-1.461,4.566,4.566,0,0,1-.774-1.884,3.658,3.658,0,0,1,.407-2.158,3.76,3.76,0,0,1,.655-.924,2.62,2.62,0,0,1,.874-.607,9.6,9.6,0,0,1-1.563-2.769,9.808,9.808,0,0,1-.624-2.933,8.75,8.75,0,0,1,1.04-4.487,9.484,9.484,0,0,1,3.079-3.407A23.7,23.7,0,0,1,21.3,34.2a24.1,24.1,0,0,1-.643-8.519,23.535,23.535,0,0,1,.833-4.224,22.55,22.55,0,0,1,1.556-3.892,23.529,23.529,0,0,1,2.176-3.455A28.182,28.182,0,0,1,31.05,8.449a38.717,38.717,0,0,1,7.175-4.11,49.944,49.944,0,0,1,7.763-2.686A51.448,51.448,0,0,1,52.634.4,55.848,55.848,0,0,1,59.348,0c1.534,0,3.115.061,4.7.181C65.592.3,67.08.469,68.469.69a40.3,40.3,0,0,1,4.473.961,28.839,28.839,0,0,1,4.275,1.544,20.666,20.666,0,0,1,3.829,2.258.257.257,0,0,1,.1.29.247.247,0,0,1-.241.166.332.332,0,0,1-.052,0c-1.789-.286-3.582-.712-5.316-1.125-1.31-.312-2.665-.634-4.011-.894-1.635-.316-3.121-.558-4.545-.739-1.622-.207-3.122-.331-4.586-.379-.648-.021-1.3-.032-1.953-.032a58.257,58.257,0,0,0-7.464.477,52.221,52.221,0,0,0-7.424,1.5,43.528,43.528,0,0,0-7.049,2.643,35.435,35.435,0,0,0-6.339,3.891,23.958,23.958,0,0,0-5.069,5.3,20.156,20.156,0,0,0-3.024,6.668,20.881,20.881,0,0,0-.564,3.791,21.206,21.206,0,0,0,.133,3.822,20.971,20.971,0,0,0,.82,3.733,20.269,20.269,0,0,0,1.5,3.524,1.665,1.665,0,0,1,.1,1.273,1.218,1.218,0,0,1-.632.747A6.605,6.605,0,0,0,23.9,41.121,6.77,6.77,0,0,0,22.691,42.5a6.188,6.188,0,0,0-1.044,3.484,6.269,6.269,0,0,0,1.106,3.385,9.953,9.953,0,0,0,1.435,1.592,12.864,12.864,0,0,1,1.151,1.205,1.131,1.131,0,0,1,.249.656,1.03,1.03,0,0,1-.172.633c.2.086.4.156.6.225a5.7,5.7,0,0,1,.821.33.585.585,0,0,1,.295.533.558.558,0,0,1-.295.51,1.809,1.809,0,0,1-.822.2,2.179,2.179,0,0,1-1.07-.3,3.215,3.215,0,0,1-.886-.75,3.966,3.966,0,0,1-.322-.454,4.824,4.824,0,0,1-2.182-1.144,2.071,2.071,0,0,0-1,1.454,2.677,2.677,0,0,0,.658,2.138,4.66,4.66,0,0,0,2.055,1.3l.092.033c.117.042.233.081.345.118a3.055,3.055,0,0,1,1.564.892,12.554,12.554,0,0,1,1.093-1.868,10.43,10.43,0,0,1,2.589-2.592,6.073,6.073,0,0,1,3.417-1.121c.154,0,.311.007.465.02a5.027,5.027,0,0,1,2.828,1.184,4.8,4.8,0,0,1,.992,1.166,4.612,4.612,0,0,1,.571,1.454.149.149,0,0,1-.033.126.173.173,0,0,1-.129.066.116.116,0,0,1-.109-.077,3.106,3.106,0,0,0-1.394-1.536,4.186,4.186,0,0,0-2.008-.479,5.191,5.191,0,0,0-2.751.789,8.071,8.071,0,0,0-2.651,2.968,13.19,13.19,0,0,0-1.331,3.794,10.821,10.821,0,0,0-.05,3.977,7.684,7.684,0,0,0,.6,1.9A5.965,5.965,0,0,0,28.5,69.941a5.106,5.106,0,0,0,1.334.975,4.866,4.866,0,0,0,1.576.494,3.336,3.336,0,0,0,.439.029,5.432,5.432,0,0,0,1.077-.13l.338-.071a2.773,2.773,0,0,1,.573-.072c.048,0,.1,0,.142.006l.367.049.209.1a.652.652,0,0,0,.122.048h0a.836.836,0,0,0-.173-.114c.033,0,.065,0,.093,0a.822.822,0,0,1,.642.28,1.092,1.092,0,0,1,.245.641.219.219,0,0,1,.055.046c1.061,1.3,2.014,2.713,2.937,4.078a45.951,45.951,0,0,0,3.7,4.972l.735.823C44.873,84.272,47,86.5,49.529,87.574l.305.127a3.812,3.812,0,0,1,1.041.606,1.572,1.572,0,0,1,.552,1.046,1.335,1.335,0,0,1-.335,1.036,1.879,1.879,0,0,1-.949.57A2.476,2.476,0,0,1,49.528,91.034Zm-18.273-2a.192.192,0,0,1-.157-.079.132.132,0,0,1-.011-.129,7.47,7.47,0,0,0,.339-1.273,3.835,3.835,0,0,1,1.038-2.336,1.32,1.32,0,0,1,.823-.322,1.25,1.25,0,0,1,.769.287,2.382,2.382,0,0,1,.591.7l.024.043a.849.849,0,0,0,.715.537,1.181,1.181,0,0,0,.816-.464,2.8,2.8,0,0,0,.549-.95l.03-.1c.024-.079.049-.166.075-.257a5.8,5.8,0,0,1,.428-1.167.968.968,0,0,1,.833-.614,1.166,1.166,0,0,1,.521.143,1.34,1.34,0,0,1,.619,1.557,6.574,6.574,0,0,1-.6,1.76,4.221,4.221,0,0,1-1.026,1.379,3.242,3.242,0,0,1-1.526.756,3.28,3.28,0,0,1-.622.06,2.982,2.982,0,0,1-1.113-.208,2.274,2.274,0,0,1-1.353-1.356,1.024,1.024,0,0,1-.074-.216.473.473,0,0,1-.122.211,10.735,10.735,0,0,0-1.422,1.952A.154.154,0,0,1,31.255,89.038ZM17.711,86.85a6.055,6.055,0,0,1-1.787-.283.129.129,0,0,1-.1-.141.147.147,0,0,1,.135-.132,5.731,5.731,0,0,0,4.5-3.259l.087-.195a2.608,2.608,0,0,1,1.429-1.617,1.751,1.751,0,0,1,.583-.1,2,2,0,0,1,1.465.683,2.642,2.642,0,0,1,.334.524c.2.368.383.715.772.715a.8.8,0,0,0,.207-.029c.667-.179,1.1-.873,1.487-1.484.1-.167.2-.324.3-.464l.092-.129c.693-.95,1.765-2.082,2.935-2.082a1.974,1.974,0,0,1,1.2.433.9.9,0,0,1,.388.718.859.859,0,0,1-.388.685l-.2.142-.126.089-.008.006a7.044,7.044,0,0,0-1.769,1.579c-.1.141-.2.285-.3.425a8.332,8.332,0,0,1-1.5,1.771,3.878,3.878,0,0,1-2.395.863,2.971,2.971,0,0,1-1.207-.244,2.632,2.632,0,0,1-1.007-.78l-.113-.143a4.51,4.51,0,0,1-.3-.422l-.07.1-.019.028-.016.025A6,6,0,0,1,20.521,86,5.014,5.014,0,0,1,17.711,86.85ZM13.516,75.759a.33.33,0,0,1-.259-.145.253.253,0,0,1-.037-.236l.173-.463a10.451,10.451,0,0,1,1.133-2.287,3.42,3.42,0,0,1,.842-.859,1.884,1.884,0,0,1,1.067-.341,2.142,2.142,0,0,1,.685.119,4.124,4.124,0,0,1,.84.44,2.278,2.278,0,0,0,1.14.467,1.214,1.214,0,0,0,.8-.337,3.787,3.787,0,0,0,.853-1.239,3.575,3.575,0,0,1,.964-1.333.617.617,0,0,1,.378-.125.863.863,0,0,1,.509.179.791.791,0,0,1,.3.431,3.485,3.485,0,0,1-.745,2.893A4.767,4.767,0,0,1,20.8,74.145a3.452,3.452,0,0,1-1.634.512h-.09a3.077,3.077,0,0,1-1.439-.364,3.248,3.248,0,0,1-.456-.321,2.079,2.079,0,0,0-.754-.448.546.546,0,0,0-.108-.011c-.37,0-.7.371-1,.7-.087.1-.169.187-.247.263a13.923,13.923,0,0,1-1.421,1.237A.228.228,0,0,1,13.516,75.759ZM36.018,65a1.716,1.716,0,0,1-.879-.241,3.092,3.092,0,0,1-.931-.955,6.437,6.437,0,0,0-.409-.525,4.3,4.3,0,0,0-1.165-.906,7.653,7.653,0,0,0-1.368-.566,2.7,2.7,0,0,0-.652.485.117.117,0,0,1-.084.035.149.149,0,0,1-.13-.079.1.1,0,0,1,.012-.112,2.724,2.724,0,0,1,.439-.454l-.081-.024a.31.31,0,0,1-.219-.212.359.359,0,0,1,.076-.335,3.577,3.577,0,0,1,2.767-1.138,5.3,5.3,0,0,1,2.688.747,4.29,4.29,0,0,1,1.045.867,3.252,3.252,0,0,1,.649,1.138,1.773,1.773,0,0,1-.462,1.751A1.939,1.939,0,0,1,36.018,65Zm2.812-8.859c-.025,0-.05,0-.074,0a1.345,1.345,0,0,1-1.144-.657,1.046,1.046,0,0,1-.182-.642,1.64,1.64,0,0,1,.161-.655l.021-.043a6.031,6.031,0,0,0,.624-1.973,5.657,5.657,0,0,0-.106-2.066,12.842,12.842,0,0,0-.664-1.884,12.955,12.955,0,0,1-.658-1.859A7.988,7.988,0,0,1,37.9,40.383a3.923,3.923,0,0,1-2.034-1.271h0a.391.391,0,0,1-.061-.412.294.294,0,0,1,.278-.187h.028l.374.03.085.007c.494.042.961.081,1.433.081a5.927,5.927,0,0,0,1.619-.2,5.321,5.321,0,0,0,1.51-.719l.1-.067a2.383,2.383,0,0,1,1.611-.452h.017a.949.949,0,0,1,.671.321.7.7,0,0,1,.189.541l-.016.129a2.418,2.418,0,0,1-.358,1.074,2.177,2.177,0,0,1-.928.72,7.039,7.039,0,0,1-2.354.616c-.165.015-.337.023-.511.023-.151,0-.306-.006-.46-.017l-.07.406a17.353,17.353,0,0,0-.292,2.449,9.255,9.255,0,0,0,1.123,4.132l.014.03a11.342,11.342,0,0,1,.679,1.97,9.049,9.049,0,0,1,.254,1.969,8.322,8.322,0,0,1-.206,1.968,9.124,9.124,0,0,1-.7,1.968A1.3,1.3,0,0,1,38.83,56.146Zm8.824-18.14a1.054,1.054,0,0,1-.858-.41,1.238,1.238,0,0,1-.236-.579,1.882,1.882,0,0,1,.054-.761,4.981,4.981,0,0,1,.942-1.663c.108-.143.219-.292.323-.44a18.483,18.483,0,0,0,1.207-1.944,11.661,11.661,0,0,0,.877-2.082,7.621,7.621,0,0,0,.345-2.226,7.02,7.02,0,0,0-.334-2.079,6.572,6.572,0,0,0-.951-1.9,4.89,4.89,0,0,0-1.514-1.381,4.038,4.038,0,0,0-2.024-.534h-.06a.153.153,0,0,1-.159-.156.169.169,0,0,1,.162-.18c.107-.006.215-.009.321-.009a5.853,5.853,0,0,1,3.435,1.146,7.389,7.389,0,0,1,2.329,2.847c1.321,2.8.53,5.914-.365,8.031l-.3.706a14.207,14.207,0,0,1-.949,1.88,4.32,4.32,0,0,1-1.366,1.455A1.723,1.723,0,0,1,47.654,38.006Zm13.564-3.175a2.17,2.17,0,0,1-1.255-.405,2.1,2.1,0,0,1-.786-1.08.853.853,0,0,1,.041-.608,1.1,1.1,0,0,1,.4-.467,6.456,6.456,0,0,0,2.519-2.9,9.563,9.563,0,0,0,.584-1.994A12.021,12.021,0,0,0,62.9,25.3a9.727,9.727,0,0,0-3.9-8.083.18.18,0,0,1-.062-.206.155.155,0,0,1,.142-.114.167.167,0,0,1,.09.029,12.991,12.991,0,0,1,3.942,4.056A13.269,13.269,0,0,1,65.065,26.3a12.55,12.55,0,0,1,.02,3.1,9.983,9.983,0,0,1-.822,2.979,5.273,5.273,0,0,1-1.006,1.491,3.241,3.241,0,0,1-1.525.906A2.141,2.141,0,0,1,61.218,34.831Zm37.193-2.687a1.5,1.5,0,0,1-.762-.215,1.415,1.415,0,0,1-.537-.553,1.111,1.111,0,0,1,.1-1.189c.144-.209.293-.412.436-.609a7.582,7.582,0,0,0,1.214-2.105,8.6,8.6,0,0,0,.413-2.913,9.072,9.072,0,0,0-2.279-5.925.19.19,0,0,1,.135-.32.2.2,0,0,1,.093.024,7.316,7.316,0,0,1,1.53,1.079,7.814,7.814,0,0,1,1.2,1.4,8.81,8.81,0,0,1,1.354,3.46,9.942,9.942,0,0,1,.118,1.953,10.543,10.543,0,0,1-.272,2.055,6.925,6.925,0,0,1-1.865,3.5A1.264,1.264,0,0,1,98.411,32.145Zm-26.853-.59a2.454,2.454,0,0,1-.851-.154,1.088,1.088,0,0,1-.7-.723,1.113,1.113,0,0,1,.249-1,6.194,6.194,0,0,1,1.306-1.1,5.612,5.612,0,0,0,1.428-1.257,5.36,5.36,0,0,0,.853-1.884,7.588,7.588,0,0,0,.2-2.069l-.007-.153a13.435,13.435,0,0,0-1.1-4.625,5.846,5.846,0,0,0-1.353-1.936,2.947,2.947,0,0,0-2-.794h-.088a.125.125,0,0,1-.129-.13.139.139,0,0,1,.133-.148c.077,0,.155-.006.232-.006a4.738,4.738,0,0,1,2.5.72,6.94,6.94,0,0,1,1.929,1.824,10.875,10.875,0,0,1,1.332,2.426,12.164,12.164,0,0,1,.711,2.526,8.292,8.292,0,0,1-1.033,5.867l-.066.1a7.315,7.315,0,0,1-1.513,1.7A3.3,3.3,0,0,1,71.558,31.555Zm13.664-.563a1.679,1.679,0,0,1-.637-.13c-.449-.184-.976-.71-.738-1.3a2.428,2.428,0,0,1,.943-1.129c.107-.083.218-.168.336-.267a3.676,3.676,0,0,0,.96-1.394,8.028,8.028,0,0,0,.576-2.174,12.368,12.368,0,0,0,.069-2.254l-.011-.174a11.784,11.784,0,0,0-.412-2.306,9.81,9.81,0,0,0-.956-2.3A5.607,5.607,0,0,0,83.8,15.8a3.72,3.72,0,0,0-2.193-.705h-.1a.1.1,0,0,1-.11-.1.13.13,0,0,1,.114-.138,4.37,4.37,0,0,1,.554-.036,4.256,4.256,0,0,1,2.293.685,6.754,6.754,0,0,1,1.791,1.721,11.385,11.385,0,0,1,1.28,2.259,13.624,13.624,0,0,1,1.119,5.236,9.969,9.969,0,0,1-.386,2.928l-.042.134a7.265,7.265,0,0,1-1.064,2.063,3.6,3.6,0,0,1-.838.817A1.8,1.8,0,0,1,85.222,30.992Zm8.517-1.666a2.327,2.327,0,0,1-.6-.084.74.74,0,0,1-.477-.38.949.949,0,0,1-.083-.608,2.279,2.279,0,0,1,.862-1.406c.119-.113.241-.23.373-.368a5.715,5.715,0,0,0,1.192-1.967,8.012,8.012,0,0,0,.208-4.639,15.929,15.929,0,0,0-2.156-4.792l-.2-.318-.127-.2-.008-.013c-.938-1.494-2.223-3.541-4.059-3.541a2.523,2.523,0,0,0-.3.019H88.34a.114.114,0,0,1-.117-.1.174.174,0,0,1,.1-.192,2.652,2.652,0,0,1,.948-.18,3.56,3.56,0,0,1,2.242.947,14.084,14.084,0,0,1,1.762,1.841,25.849,25.849,0,0,1,2.074,2.782,14.774,14.774,0,0,1,1.53,3.108,10.021,10.021,0,0,1,.187,6.155,8.176,8.176,0,0,1-1.421,2.72l-.082.1A2.36,2.36,0,0,1,93.739,29.326Z" transform="translate(-12.016 10.356)"/>
  </g>
  <g id="FACE" transform="translate(112.183 77.354)">
    <path id="_Ink-3" data-name="ðŸ– Ink" d="M23.523,37.239a5.539,5.539,0,0,1-2.3-.525A5.758,5.758,0,0,1,19.31,35.3a4.459,4.459,0,0,1-.876-1.488,3.788,3.788,0,0,1-.173-1.748.6.6,0,0,1,.646-.534.954.954,0,0,1,.748.351l.128.174a7.278,7.278,0,0,0,1.4,1.5,2.971,2.971,0,0,0,1.852.693A2.705,2.705,0,0,0,25.25,33.1a3.254,3.254,0,0,0,.492-1.188,4.013,4.013,0,0,1,.356-.987,1.716,1.716,0,0,1,1.528-.842,1.666,1.666,0,0,1,1.691,1.263,3.5,3.5,0,0,1-.066,1.754,4.725,4.725,0,0,1-.835,1.583,6.791,6.791,0,0,1-4.774,2.552Zm1.524-11.323A13.948,13.948,0,0,1,20.025,24.8a1.323,1.323,0,0,1-.679-.621,1.239,1.239,0,0,1-.094-.795,1.293,1.293,0,0,1,.4-.695,1.149,1.149,0,0,1,.78-.3,1.467,1.467,0,0,1,.461.078l.255.106h0a11.928,11.928,0,0,0,4.162,1.143,3.052,3.052,0,0,0,1.279-.249,2.2,2.2,0,0,0,.969-.873,2.236,2.236,0,0,0-.038-1.861,4.3,4.3,0,0,0-1.7-1.7,10.029,10.029,0,0,0-2.209-.985.536.536,0,0,1-.314-.6.707.707,0,0,1,.766-.541l.182,0a5.975,5.975,0,0,1,4.034,1.407,4.964,4.964,0,0,1,1.13,1.443,4.634,4.634,0,0,1,.5,1.654,4.1,4.1,0,0,1-.145,1.614,3.693,3.693,0,0,1-.8,1.419,5,5,0,0,1-3.914,1.471h0Zm-23.4-9.2a.521.521,0,0,1-.464-.339.356.356,0,0,1,.121-.413,17.8,17.8,0,0,1,2.954-1.948,20.336,20.336,0,0,1,3.3-1.4,2.123,2.123,0,0,1-.306-.861,1.8,1.8,0,0,1,.1-.89c.037-.122.082-.239.122-.338l.094-.229a1.656,1.656,0,0,1,.06-.319l0-.032,0,0a1.8,1.8,0,0,1,.431-.724A1.618,1.618,0,0,1,8.791,8.8a1.586,1.586,0,0,1,.421-.057,1.644,1.644,0,0,1,.647.134,1.925,1.925,0,0,1,.97.508,2.192,2.192,0,0,1,.583.929c.017.06.036.12.057.178l.033.088-.087-.223a1.423,1.423,0,0,0,.15.368,1.8,1.8,0,0,1,.134.3,2.407,2.407,0,0,1,.072.876c.269,0,.49.012.7.03l.224.02c1.24.115,2.625.329,3.367,1.412a1.026,1.026,0,0,1,.169.551,1.4,1.4,0,0,1-.116.593,1.077,1.077,0,0,1-.792.675,2.77,2.77,0,0,1-.418.031,5.584,5.584,0,0,1-1.621-.321,7.478,7.478,0,0,0-1.328-.313,10.3,10.3,0,0,0-1.135-.061,12.436,12.436,0,0,0-2.232.209,29.218,29.218,0,0,0-3.91,1.1c-.857.284-1.743.578-2.635.81l-.3.076v0A.378.378,0,0,1,1.647,16.717Zm35.14-1.776a.857.857,0,0,1-.807-.512l-.02-.045c-.266-.619-1-.933-2.168-.933a9.09,9.09,0,0,0-1.051.068,12.508,12.508,0,0,0-1.965.429c-.235.068-.463.14-.675.208l-.224.073c-.1.032-.489.242-.48.3,0,.009.013.013.035.013a.488.488,0,0,0,.091-.012l.02,0a.112.112,0,0,1,.1.087.082.082,0,0,1-.048.1.582.582,0,0,1-.252.059.649.649,0,0,1-.466-.214.754.754,0,0,1-.206-.56c.047-.759,1.112-1.215,1.817-1.517.094-.04.183-.078.261-.114l.039-.018c.26-.12.525-.232.789-.332a3.835,3.835,0,0,1-.386-.754,3.312,3.312,0,0,1-.2-.78.763.763,0,0,1,0-.4L31,10.04a1.243,1.243,0,0,1-.026-.272l0-.036h0a1.3,1.3,0,0,1,.35-.853,1.119,1.119,0,0,1,.8-.34,1.452,1.452,0,0,1,.861.308l.067.052A2.791,2.791,0,0,1,34.181,10a2.72,2.72,0,0,1,.453,1.385,4.082,4.082,0,0,1,3.147,1.3,1.225,1.225,0,0,1,.314,1.188L38,14.118A1.363,1.363,0,0,1,36.787,14.941Zm-36.2-6.3a.527.527,0,0,1-.476-.36A2.553,2.553,0,0,1,.162,6.656a7.129,7.129,0,0,1,.711-1.51A8,8,0,0,1,3.488,2.584a14.079,14.079,0,0,1,3.637-1.5L7.441,1c.233-.067.469-.143.7-.216A7.772,7.772,0,0,1,10.4.294,2.65,2.65,0,0,1,12.225.98a1.665,1.665,0,0,1,.509,1.044,1.724,1.724,0,0,1-.228,1.137,2.488,2.488,0,0,1-1.379,1.075,6.553,6.553,0,0,1-1.706.22c-.242.011-.493.022-.745.042A12.08,12.08,0,0,0,2.864,6.724a6.737,6.737,0,0,0-.954.88,5.789,5.789,0,0,1-1.089.966A.443.443,0,0,1,.585,8.638ZM36.66,6.4a1.945,1.945,0,0,1-1.5-.805l-.033-.043A8.87,8.87,0,0,0,33.6,3.968a8.57,8.57,0,0,0-1.878-1.149,9,9,0,0,0-2.119-.661l-.232-.04a4.58,4.58,0,0,0-.727-.077,1.61,1.61,0,0,0-.272.021,1.143,1.143,0,0,0-.436.152.164.164,0,0,1-.015.159.188.188,0,0,1-.155.089.175.175,0,0,1-.085-.022.852.852,0,0,1-.486-.632,1.171,1.171,0,0,1,.45-.951A3.311,3.311,0,0,1,29.281.149,9.725,9.725,0,0,1,31.091,0h0a8.226,8.226,0,0,1,3.963,1.057A8.976,8.976,0,0,1,38.1,3.814a1.5,1.5,0,0,1,.2,1.193,1.812,1.812,0,0,1-.819,1.162A1.616,1.616,0,0,1,36.66,6.4Z" transform="translate(11.409 12.47)"/>
  </g>
  <g id="FACIAL_HAIR" data-name="FACIAL HAIR" transform="translate(104.577 109.479)">
    <path id="_Ink-4" data-name="ðŸ– Ink" d="M18.749,31.73h0a15.433,15.433,0,0,1-3.059-.3,25.114,25.114,0,0,1-4.172-.792c-1.537-.4-3.213-.931-4.847-1.526a42.336,42.336,0,0,1-4.228-1.772A7.284,7.284,0,0,1,.129,25.808a.476.476,0,0,1-.123-.373,3.322,3.322,0,0,1,.958-1.876,2.2,2.2,0,0,1,1.5-.5,9.738,9.738,0,0,1,2.72.592c.491.155,1,.314,1.468.421a38.273,38.273,0,0,0,6.52.538c2.868-.625,2.348-5.126,2.152-6.82h0c-.022-.19-.039-.34-.048-.449a4.831,4.831,0,0,1,.2-1.706,4.481,4.481,0,0,1,.894-1.669,3.221,3.221,0,0,1,2.315-1.123c.054,0,.107,0,.16,0a2.685,2.685,0,0,1,1.574.5,4.04,4.04,0,0,1,1.083,1.2,7.43,7.43,0,0,1,.949,2.616c.033.226.063.508.1.833a18.164,18.164,0,0,0,.521,3.085,3.715,3.715,0,0,0,.578,1.224,1.155,1.155,0,0,0,.92.494,1.3,1.3,0,0,0,.307-.039,14.683,14.683,0,0,0,3.416-1.978c.839-.572,1.631-1.113,2.266-1.452a4.221,4.221,0,0,1,1.138-.181,1.594,1.594,0,0,1,1.294.518,2.488,2.488,0,0,1,.31,2.057,12.093,12.093,0,0,1-1.38,2.682,21.55,21.55,0,0,1-1.864,2.671,13.47,13.47,0,0,1-2.381,2.017A15.194,15.194,0,0,1,24.9,30.546,16.672,16.672,0,0,1,18.749,31.73ZM31.733,10.465h0a5.546,5.546,0,0,1-2.555-.772,11.217,11.217,0,0,0-2.146-.857c-.908-.24-1.894-.448-2.847-.65a19.213,19.213,0,0,1-4.442-1.257A16.72,16.72,0,0,1,13.874,8.6h0l-.4.063a22.67,22.67,0,0,0-3.2.842,15.572,15.572,0,0,1-4.4.949c-.134,0-.266,0-.393-.014a.252.252,0,0,1-.1.017,2.066,2.066,0,0,1-1.406-.926,2.578,2.578,0,0,1-.437-1.28,4.48,4.48,0,0,1,.337-1.93A6.191,6.191,0,0,1,5.132,4.343a9.579,9.579,0,0,1,1.95-1.587A17.087,17.087,0,0,1,12.127.725,22.977,22.977,0,0,1,17.344,0a7.13,7.13,0,0,1,2.883.492,7.553,7.553,0,0,1,2.49-.366,14.962,14.962,0,0,1,4.3.691,12.9,12.9,0,0,1,3.972,1.971A6.246,6.246,0,0,1,32.3,4.179a8.063,8.063,0,0,1,.909,1.713,7.358,7.358,0,0,1,.449,1.758,4.149,4.149,0,0,1-.071,1.524,1.529,1.529,0,0,1-1.3,1.254A4.286,4.286,0,0,1,31.733,10.465Z" transform="translate(23.699 6.129)"/>
  </g>
</svg>
