<svg id="peep-28" xmlns="http://www.w3.org/2000/svg" width="240" height="324" viewBox="0 0 240 324">
  <g id="BODY" transform="translate(31.056 135.053)">
    <path id="_Skin" data-name="âœ‹ Skin" d="M158.088,123.645q-1.277-7.217-2.342-14.47c-.337-2.3-.665-4.593-.961-6.894-.207-1.612-.522-3.456.575-4.65,1.543-1.681,2.944-3.119,3.133-5.526.178-2.265-.588-4.734-1.067-6.933-1-4.611-2.254-9.165-3.635-13.675-1.4-4.583-2.941-9.122-4.5-13.653a127.35,127.35,0,0,0-4.762-12.575,36.828,36.828,0,0,0-17.249-17.24c-1.875-.949-5.7-4.335-7.66-5.093-1.8-.7-1.795,1.338-3.568.572a7.089,7.089,0,0,1-3.53-2.8c-.862-1.486-3.022-3.565-3.351-5.3-.7-3.667.058-6.789-2.558-9.549A19,19,0,0,0,97.937.833C90.831-1.15,81.354.236,77.067,6.842,75.019,10,74.3,13.81,71.54,16.385c-2.413,2.248-1.873,3.785-5,4.943-.177.066-4.974-.964-5.151-.9-3.419-.732-6.686,1.317-9.823,2.506a68.751,68.751,0,0,0-13.31,6.82A84.361,84.361,0,0,0,16.646,50.585,101.986,101.986,0,0,0,2.666,77.548Q1.457,81.044.5,84.619a7.19,7.19,0,0,0-.3,4.08,5.256,5.256,0,0,0,2.077,2.618c1.26.908,3.787,1.5,3.738,3.325a31.9,31.9,0,0,1-.738,4.222c-.274,1.634-.5,3.278-.723,4.92-1.023,7.471-1.818,14.985-2.17,22.519a194.546,194.546,0,0,0-.12,22.406,2.87,2.87,0,0,0,.415,1.317.3.3,0,0,0,.037.551l.574.122a2.525,2.525,0,0,0,1.464.5c.387.012.773.03,1.16.05,4.078.853,8.155,1.658,12.286,2.268q7.532,1.112,15.109,1.837c10.381,1.01,20.68.675,31.074.131q15.567-.815,31.14-.4c10.4.271,20.793.723,31.193.908,11.62.207,23.221-.111,34.807-1.035a2.387,2.387,0,0,0,2.258-2.969C161.9,142.535,159.769,133.142,158.088,123.645Z" transform="translate(5.493 -6.763)" fill="#d08b5b"/>
    <path id="_Top" data-name="ðŸ‘• Top" d="M51.568,2.66l.227-.087c3.067-1.2,6.259-3.133,9.6-2.418.118-.044,2.289.4,3.776.68L63.755,2.307l-2.491.479Q74.154,24.068,91.753,24.068T118.463,2.787l.829-.229a2.43,2.43,0,0,1,.328.1c1.959.758,5.784,4.144,7.66,5.093a36.829,36.829,0,0,1,17.249,17.24,122.146,122.146,0,0,1,4.616,12.152l.146.424c1.561,4.531,3.1,9.071,4.5,13.653,1.321,4.314,2.522,8.669,3.5,13.074l.132.6c.479,2.2,1.244,4.668,1.067,6.933a6.127,6.127,0,0,1-.615,2.259l-17,6.118,8.1,55.246q-11.125.477-22.272.268c-10.4-.185-20.795-.638-31.193-.908q-15.111-.393-30.2.352l-2.556.131a199.843,199.843,0,0,1-29.462-.213l-.671-.066h0v-8.081l3.458-45-17.524-3.3-17.2-8.358A4.584,4.584,0,0,1,.194,68.423a6.673,6.673,0,0,1,.225-3.784l.079-.3q.957-3.573,2.167-7.071a101.986,101.986,0,0,1,13.98-26.963A84.361,84.361,0,0,1,38.258,9.48,68.751,68.751,0,0,1,51.568,2.66Z" transform="translate(5.493 13.513)" fill="#ec7495"/>
    <path id="_Ink" data-name="ðŸ– Ink" d="M34.171,150.261a1.828,1.828,0,0,1-.215-.012,1.883,1.883,0,0,1-1.19-.633,1.93,1.93,0,0,1-.485-1.264c-.008-1.767.148-3.575.3-5.322v0c.064-.736.129-1.5.181-2.243.146-2.081.309-4.286.529-7.147.425-5.518.9-11.125,1.357-16.547v0c.263-3.116.536-6.338.8-9.516.222-2.7.478-5.638.807-9.24a45.783,45.783,0,0,1-7.046-.8,57.9,57.9,0,0,1-6.831-1.76c-2.121-.681-4.292-1.491-6.637-2.477-1.981-.833-4.1-1.8-6.462-2.947-.117,2.663-.4,5.362-.667,7.973l-.042.4c-.9,8.66-1.564,16.3-2.043,23.345-.232,3.416-.428,7.064-.633,11.827-.083,1.931-.152,3.888-.2,5.817-.018.655-.034,1.308-.047,1.94l-.029,1.481A3.058,3.058,0,0,1,4.7,145.63a2.1,2.1,0,0,1-1.361.534,1.925,1.925,0,0,1-1.318-.534,2.585,2.585,0,0,1-.8-1.481,7.834,7.834,0,0,1-.059-1.7v0c.005-.144.011-.293.014-.44.026-1.09.058-2.208.094-3.325.073-2.2.167-4.437.281-6.647.371-7.2,1.1-14.77,2.235-23.136l.406-2.965c.366-2.657.766-5.487,1.292-8.305a67.229,67.229,0,0,1,1.995-8.154c-.639-.318-1.3-.652-1.974-.991-.344-.174-.7-.348-1.038-.516h0c-.817-.4-1.661-.818-2.458-1.276A3.631,3.631,0,0,1,.092,84.42a6.489,6.489,0,0,1,.309-3.1v0c.042-.161.082-.314.12-.467l.025-.1c.265-1.093.565-2.241.891-3.414A113.014,113.014,0,0,1,6.146,63.841,110.53,110.53,0,0,1,20.469,39.124a85.491,85.491,0,0,1,8.613-9.616c1.584-1.509,3.223-2.935,4.87-4.239a62.945,62.945,0,0,1,5.259-3.745,53.769,53.769,0,0,1,5.51-3.073,48.012,48.012,0,0,1,5.849-2.361,30.028,30.028,0,0,1,5.876-1.367c.94-.105,1.952-.179,3.182-.232.119-.005.243-.008.369-.008a19.19,19.19,0,0,1,2.124.16h.007c.244.027.5.056.742.08a.1.1,0,0,1,.088.1.074.074,0,0,1-.064.08c-1.9.4-3.782.939-5.7,1.506l-.807.239c-2,.591-4.136,1.257-6.244,2.116a55.875,55.875,0,0,0-11.576,6.519A79.611,79.611,0,0,0,20.712,43.523,101.8,101.8,0,0,0,13.9,54.453,114.14,114.14,0,0,0,8.48,66.014a111.552,111.552,0,0,0-4.336,13.03c-.276,1.042-.548,2.133-.809,3.244-.016.07-.045.163-.078.271-.113.372-.284.933-.144,1.187a1.674,1.674,0,0,0,.773.487c.107.045.208.088.284.128l.964.5c1.876.967,5,2.558,5.325,2.717l.49.241a89.359,89.359,0,0,0,12.414,5.131,54.336,54.336,0,0,0,6.494,1.643,42.86,42.86,0,0,0,6.673.715l.071-.77a72.469,72.469,0,0,1,2.08-12.662.168.168,0,0,1,.163-.135.214.214,0,0,1,.207.186,56.484,56.484,0,0,1,.431,7.349c0,2.368-.1,4.737-.218,7.366-.273,6-.614,12.087-.943,17.978v.005c-.148,2.649-.3,5.388-.446,8.083-.164,3.043-.365,6.136-.559,9.127v0c-.083,1.275-.168,2.593-.251,3.9-.071,1.127-.13,2.281-.188,3.4v0c-.165,3.209-.336,6.526-.8,9.724a1.507,1.507,0,0,1-.694,1.029A2.236,2.236,0,0,1,34.171,150.261Zm129.541-3.478a1.3,1.3,0,0,1-.536-.123l-.133-.062a2.436,2.436,0,0,1-1.545-1.491,8.09,8.09,0,0,1-.233-1.1c-.029-.177-.059-.359-.094-.533-.2-1.026-.4-2.057-.579-3.065-.363-2.044-.722-4.113-1.067-6.151l-.324-1.921c-1.07-6.361-2.16-13.142-2.705-19.974-.247-3.1-.513-6.218-.742-8.9l-.191-2.225c-.038-.443-.078-.9-.116-1.334V99.9c-.209-2.366-.424-4.813-.459-7.215l-.957.34-4.671,1.652c-.289.1-.594.229-.916.364a7.466,7.466,0,0,1-2.653.75,2.555,2.555,0,0,1-.31-.018,2.36,2.36,0,0,1-1.434-.616c.446,6.3,1.048,12.409,1.788,18.166.784,6.1,1.574,11.47,2.413,16.424.374,2.21.877,5.128,1.439,8.092.252,1.327.518,2.684.791,4.033.042.209.088.421.132.627.1.454.2.924.27,1.389a2.341,2.341,0,0,1-.524,1.886,1.324,1.324,0,0,1-1.068.6,1.06,1.06,0,0,1-.571-.165,3.5,3.5,0,0,1-.893-.734,2.583,2.583,0,0,1-.49-1.029c-.141-.549-.246-1.122-.347-1.677v-.006c-.044-.242-.09-.492-.137-.736-.287-1.46-.571-2.954-.844-4.443-.586-3.2-1.111-6.341-1.558-9.327-.809-5.395-1.492-10.958-2.029-16.535-.523-5.427-.924-11.018-1.19-16.618-.248-5.2-.344-10.579-.295-16.431.026-3.053.129-5.81.314-8.426.165-2.33.483-4.664.79-6.922l0-.021c.066-.485.134-.987.2-1.481a.084.084,0,0,1,.084-.076.074.074,0,0,1,.075.076c.073,1.3.165,2.63.254,3.912v0c.126,1.813.256,3.688.335,5.536s.132,3.716.183,5.529v0c.032,1.15.066,2.339.106,3.511.138,4.043.331,8.041.572,11.885a2.067,2.067,0,0,1,1.512-.69,1.839,1.839,0,0,1,.3.024,12.626,12.626,0,0,0,1.94-.647c.363-.143.706-.278,1.04-.389l3.535-1.181c1.76-.588,3.655-1.218,5.582-1.836a141.552,141.552,0,0,1-3.785-17.086l-.435-2.6c-.413-2.452-.869-5.076-1.413-7.654-.592-2.811-1.226-5.275-1.936-7.533a49.345,49.345,0,0,0-3.068-7.526,48.523,48.523,0,0,0-4.28-6.909,60.958,60.958,0,0,0-5.262-6.129c-1.693-1.744-3.558-3.51-5.87-5.557-2.005-1.776-4.127-3.479-6.179-5.126-1.469-1.179-2.987-2.4-4.453-3.635a2.035,2.035,0,0,1,.012.65,22.312,22.312,0,0,1-.939,4.013,24.223,24.223,0,0,1-1.635,3.785,25.8,25.8,0,0,1-2.24,3.47,26.2,26.2,0,0,1-11.751,8.675,28.682,28.682,0,0,1-5.076,1.374,30.617,30.617,0,0,1-5.263.453,32.108,32.108,0,0,1-5.385-.459,32.725,32.725,0,0,1-5.269-1.36A35.689,35.689,0,0,1,76.4,34.9a36.685,36.685,0,0,1-6.27-4.936,34.156,34.156,0,0,1-5-6.185,29.978,29.978,0,0,1-3.3-7.173.133.133,0,0,1,.016-.122.153.153,0,0,1,.124-.057.161.161,0,0,1,.132.065l.449.614.066.09a.224.224,0,0,1,.152-.239A27.069,27.069,0,0,0,72.605,10.8a21.108,21.108,0,0,0,3.369-4.561,18.149,18.149,0,0,0,1.135-2.471l.079-.22c.043-.121.086-.246.124-.356A7.124,7.124,0,0,1,78.666.548,1.69,1.69,0,0,1,79.934,0a2.157,2.157,0,0,1,1.7.874,1.664,1.664,0,0,1,.231,1.538,27.053,27.053,0,0,1-2.858,6.039A21.216,21.216,0,0,1,77,11.092a19.283,19.283,0,0,1-2.453,2.3,20.446,20.446,0,0,1-4.968,2.919,14.972,14.972,0,0,1-5.582,1.118c-.386,0-.778-.016-1.163-.049a.256.256,0,0,1-.088-.023l.373.506c1.208,1.635,2.819,3.774,4.57,5.824a49.766,49.766,0,0,0,5.166,5.281,36.732,36.732,0,0,0,4.726,3.49,34.771,34.771,0,0,0,5.214,2.661,31.767,31.767,0,0,0,5.564,1.7,28.8,28.8,0,0,0,5.776.6,26.831,26.831,0,0,0,6.6-.819,23.784,23.784,0,0,0,5.646-2.244,24.429,24.429,0,0,0,4.926-3.589,22.87,22.87,0,0,0,3.837-4.7,20.4,20.4,0,0,0,2.377-5.572,1.549,1.549,0,0,1-.638.134,1.79,1.79,0,0,1-.379-.042c-1.62-.352-3.221-2.047-4.285-3.291a15.567,15.567,0,0,1-2.67-4.38,14.151,14.151,0,0,1-1.028-4.861,10.626,10.626,0,0,1,.221-2.489,8.161,8.161,0,0,1,.86-2.3.336.336,0,0,1,.3-.187.426.426,0,0,1,.406.377l.062.539a21.8,21.8,0,0,0,1.971,7.748,15.864,15.864,0,0,0,2.27,3.378,13.255,13.255,0,0,0,1.577,1.5c.22.175.462.333.7.485a6.017,6.017,0,0,1,1.021.776l.091.1,0-.017a1.756,1.756,0,0,1,.549-1.141,1.492,1.492,0,0,1,.99-.366h.065a5.665,5.665,0,0,1,1.86.489l.03.014a71.718,71.718,0,0,1,13.753,8.883A58.009,58.009,0,0,1,146.689,38.03a52.385,52.385,0,0,1,7.227,15.061,135.789,135.789,0,0,1,3.227,15.162l.01.057.2,1.14.588,3.364c.406,2.309.892,4.991,1.528,7.609a46.815,46.815,0,0,0,2.368,7.343,2.2,2.2,0,0,1,.074,1.751,2.061,2.061,0,0,1-1.23,1.092c-1.387.522-2.909,1.078-4.792,1.752.567,2.433.979,4.957,1.378,7.4v.008c.153.937.311,1.906.475,2.849.7,4.056,1.512,8.166,2.293,12.14v.007c.606,3.084,1.233,6.274,1.807,9.418.338,1.852.665,3.737.982,5.56.312,1.8.635,3.663.969,5.493.2,1.087.41,2.217.6,3.215l.017.091c.123.658.251,1.339.375,2.008.117.63.228,1.271.335,1.89.052.3.112.645.171.981l.029.159.023.116a3.1,3.1,0,0,1,.057,1.415,3.029,3.029,0,0,1-.881,1.265l0,0-.124.127A.92.92,0,0,1,163.712,146.783Z" transform="translate(4.013 -1.057)"/>
  </g>
  <g id="HEAD" transform="translate(78.592 38.043)">
    <path id="_Skin-2" data-name="âœ‹ Skin" d="M73.041,35.344A101.344,101.344,0,0,0,71.7,21.386,14.083,14.083,0,0,0,69,15.3a24.583,24.583,0,0,0-4.537-4.175C61.17,8.587,58,5.776,54.317,3.812A32.884,32.884,0,0,0,42.994.279,35.317,35.317,0,0,0,20.72,4.862,38.262,38.262,0,0,0,5.927,21.33,41.384,41.384,0,0,0,2.5,31.874a72.683,72.683,0,0,0-.669,13.139c.009,1.482,0,2.962-.077,4.44a13.231,13.231,0,0,0-.185,2.222A7.121,7.121,0,0,0,.434,58.522c1.454,3.77,5.581,5.485,9.328,4.827a9.679,9.679,0,0,0,1.075,2.886,53.354,53.354,0,0,0,2.843,4.688,40.981,40.981,0,0,0,7.4,8.391,35.288,35.288,0,0,0,20.409,8.468,30.814,30.814,0,0,0,19.567-5.535,26.483,26.483,0,0,0,7.238-7.684,31.546,31.546,0,0,0,3.954-11.779c1.34-9.012,1.268-18.361.8-27.44Z" transform="translate(13.914 17.542)" fill="#d08b5b"/>
    <path id="_Ink-2" data-name="ðŸ– Ink" d="M59.49,106.657a23.683,23.683,0,0,1-6.384-.858c-4.1-1.149-7.061-2.917-8.789-5.256a1.776,1.776,0,0,1-.274-1.346,2.3,2.3,0,0,1,.608-1.247,2.028,2.028,0,0,1,1.467-.6,2.583,2.583,0,0,1,1.119.268c.717.349,1.412.764,2.083,1.166a24.569,24.569,0,0,0,2.38,1.306,19.43,19.43,0,0,0,4.435,1.341,19.906,19.906,0,0,0,3.741.348,21.219,21.219,0,0,0,5.5-.721A22.368,22.368,0,0,0,69.3,99.594a22.977,22.977,0,0,0,6.711-4.921,22.623,22.623,0,0,0,2.581-3.3,28.825,28.825,0,0,0,2.277-4.353,35.543,35.543,0,0,0,1.565-4.621,47.493,47.493,0,0,0,1-4.8c.24-1.505.434-3.1.594-4.881a103.743,103.743,0,0,0-.276-21.495c-.382-3.205-.982-6.639-1.835-10.5-.359-1.627-.756-3.273-1.139-4.865v0c-.2-.825-.4-1.678-.6-2.519-.531-.508-1.044-1.033-1.523-1.56h-.015a1.172,1.172,0,0,1-.2.032c-.564.043-1.118.065-1.646.065a15.362,15.362,0,0,1-3.6-.4,10.08,10.08,0,0,1-3.3-1.42A9.119,9.119,0,0,1,68.513,28.9,8.533,8.533,0,0,1,67.4,27.515a9,9,0,0,1-2.314-2.3c-.421-.463-.836-.964-1.232-1.489a15.9,15.9,0,0,1-2.026-4.016l-.039-.1a.587.587,0,0,1-.029-.1,1.759,1.759,0,0,1-.227-.581c-1.23-.146-2.532-.253-3.871-.317-.41-.019-.857-.037-1.366-.053a6.146,6.146,0,0,1,.208,1.386,9.947,9.947,0,0,1,1.127.121,5.463,5.463,0,0,1,2.291.9,7.7,7.7,0,0,1,1.76,1.766,19.652,19.652,0,0,1,2.545,4.757A2.1,2.1,0,0,1,64.205,29a2.937,2.937,0,0,1-.952,1.254,21.7,21.7,0,0,0-3.261.519,16.954,16.954,0,0,0-3.129,1.083.338.338,0,0,0-.157.16c-1.743.521-3.338.946-4.876,1.3a12.3,12.3,0,0,1-2.764.351,7.969,7.969,0,0,1-1.978-.237,12.863,12.863,0,0,1-2-.712,1.66,1.66,0,0,1-.2.012,1.831,1.831,0,0,1-.918-.259c-.6-.342-1.187-.712-1.755-1.1a29.851,29.851,0,0,1-3-1.627l-.005-.007a11,11,0,0,0-1.373-1.383,12.218,12.218,0,0,0-1.717-1.223,3.877,3.877,0,0,1-.351-.66,3.579,3.579,0,0,1-.212-2.015,2.843,2.843,0,0,1,1.018-1.714,1.15,1.15,0,0,1,.443-.844c.228-.186.469-.368.718-.542l-.063-.046-.092-.068c-.09-.069-.186-.148-.293-.244-.668.367-1.459.792-2.26,1.164l-.018.014h0l-.039.028c-.643.423-1.281.882-1.9,1.326-.767.551-1.559,1.121-2.367,1.627-.25.156-.5.311-.746.461l-.008.005-.289.178c-.138.189-.262.366-.379.54a5.379,5.379,0,0,1-.23.838,1.574,1.574,0,0,1,.452.591,6.649,6.649,0,0,1,1.279.655l.353.157a9.2,9.2,0,0,1,1.449-.969,5.835,5.835,0,0,1,2.442.813,11.044,11.044,0,0,1,2.151,1.612c.1.111.177.2.25.295.058.047.116.1.173.144l.061.052c.125.135.245.271.355.4a.746.746,0,0,0,.4.265,10.754,10.754,0,0,1,1.94,2.334c.777,1.333.229,2.994-.335,4.292-.091.21-.19.422-.293.63-1.093,1.476-2.133,3-3.139,4.474-.773.749-1.415,1.384-2.037,2.047a3.517,3.517,0,0,1-.345.206,3.437,3.437,0,0,1-1.612.391,8.361,8.361,0,0,1-3.091-.851c-.29-.12-.589-.245-.884-.357l-.2-.076c-.233-.084-.477-.167-.713-.246A9.046,9.046,0,0,1,25.3,42.968a2.9,2.9,0,0,1-.84-.911,2.932,2.932,0,0,1-.37-1.347,7.1,7.1,0,0,1,.03-1.023,37.349,37.349,0,0,1,1.584-3.61,2.325,2.325,0,0,1-.316-.432,3.623,3.623,0,0,1-.471-.778c-.162.31-.324.629-.481.937a26.233,26.233,0,0,1-2.344,4,2.786,2.786,0,0,1-1.024.853,2.737,2.737,0,0,1-1.173.247h-.008a1.924,1.924,0,0,1-.865.2,2.024,2.024,0,0,1-.237-.014l.039.448c.028.31.069.717.131,1.114h.067a6.284,6.284,0,0,1,2.284.5c1.512.6,3,1.369,4.446,2.114h0c.616.318,1.252.646,1.878.955.288.142.6.276.935.417a7.749,7.749,0,0,1,2.276,1.27,1.875,1.875,0,0,1,.319,2.1c-.027.085-.056.171-.083.255v0l-.044.133,0,.042A9.026,9.026,0,0,0,29.56,53.35a11.526,11.526,0,0,0-1.186,3,19.2,19.2,0,0,0-.457,2.535l-.025.234-.014.027-.007.2a26.022,26.022,0,0,0,0,4.528c.037.443.081.851.133,1.248a.873.873,0,0,1-.414.5,1.343,1.343,0,0,1-.662.162,1.4,1.4,0,0,1-.852-.271,18.38,18.38,0,0,0-2-1.357,4.14,4.14,0,0,1-1.731.377,4.291,4.291,0,0,1-1.365-.225c-.059-.019-.115-.042-.17-.064l-.049-.02a14.839,14.839,0,0,0-2.327.5l-.225.067a7.284,7.284,0,0,0-3.24,1.73,6.592,6.592,0,0,0-1.619,3.019,8.772,8.772,0,0,0-.256,1.738,8.863,8.863,0,0,0,.083,1.712,8.054,8.054,0,0,0,1.179,3.181,5.453,5.453,0,0,0,1.126,1.263,4.151,4.151,0,0,0,1.492.777,4.733,4.733,0,0,0,1.27.177,4.073,4.073,0,0,0,1.523-.286,3.968,3.968,0,0,0,.913-.547c.1-.073.19-.15.279-.224a2.864,2.864,0,0,1,.764-.506,3.586,3.586,0,0,1,1.1-.147l.117,0H23a1.147,1.147,0,0,1,.741.284,1.477,1.477,0,0,1,.447.662,2.672,2.672,0,0,1-.092,2.067,3.683,3.683,0,0,1-1.422,1.462c.22.333.436.677.645,1.009.292.463.594.942.9,1.383.9,1.305,1.906,2.653,3.072,4.121a38.4,38.4,0,0,0,3.537,3.91c.576.551,1.174,1.087,1.777,1.591l.337.279a3.844,3.844,0,0,1,.744.763,1.7,1.7,0,0,1,.3,1.029,1.08,1.08,0,0,1-.776,1.022,1.7,1.7,0,0,1-.445.059c-1.277,0-2.565-1.384-3.5-2.395h0c-.146-.157-.284-.305-.412-.438l-.083-.085a37.217,37.217,0,0,1-3.531-4.146,24.492,24.492,0,0,1-2.738-4.9,22.684,22.684,0,0,1-.967-2.639,9.866,9.866,0,0,1-3.438.651,6.282,6.282,0,0,1-.713-.038,8.269,8.269,0,0,1-2.82-.847,3.817,3.817,0,0,1-.691,1.055A5.226,5.226,0,0,1,9.89,83.957H9.8a4.014,4.014,0,0,1-2.523-.869,3.136,3.136,0,0,1-.814-1.016,3.259,3.259,0,0,1-.336-1.359A3.555,3.555,0,0,1,6.551,78.9a4.435,4.435,0,0,1,1.2-1.4,3.408,3.408,0,0,1,.8-1.2,2.768,2.768,0,0,1,1.279-.7,12.1,12.1,0,0,1-.284-6.45,10.262,10.262,0,0,1,1.213-2.956,8.662,8.662,0,0,1,2.1-2.372l.1-.072-.04.022c-.252.139-.5.288-.748.432h0c-.139.082-.282.166-.426.249l-.176.1A13.825,13.825,0,0,1,9.386,65.58a6.888,6.888,0,0,1-2.332.443,5.12,5.12,0,0,1-1.288-.162,3.866,3.866,0,0,1-1.04-.434,3.337,3.337,0,0,1-.78-.655,3.282,3.282,0,0,1-.777-1.731A3.525,3.525,0,0,1,3.5,61.026,3.788,3.788,0,0,1,5.037,59.4a8.356,8.356,0,0,1,3.158-.894,2.877,2.877,0,0,1,.6-.59,2.54,2.54,0,0,1,1.062-1.946,2.266,2.266,0,0,1,1.332-.428,2.67,2.67,0,0,1,.791.125,4.143,4.143,0,0,1,.856-.5,4.352,4.352,0,0,1,.819-.261c0-.155-.006-.313-.008-.465v-.028q0-.085,0-.17c-.044-.205-.07-.418-.1-.644v0l-.016,0c-.041-.007-.088-.015-.132-.024a4.822,4.822,0,0,1-1.92-.91,3.715,3.715,0,0,1-2.015.593A4.47,4.47,0,0,1,8.2,53.059a4.219,4.219,0,0,1-1.69-1.035A5.46,5.46,0,0,1,5.3,50.29a5.983,5.983,0,0,1-2.168-.807,3,3,0,0,1-.694.082,2.6,2.6,0,0,1-1.374-.377A2.319,2.319,0,0,1,.129,48.05a2.111,2.111,0,0,1,0-1.449,2.484,2.484,0,0,1,.855-1.184.55.55,0,0,1,.332-.115.611.611,0,0,1,.336.109,3.622,3.622,0,0,1,.167-.447c.028-.061.057-.119.085-.174a3.986,3.986,0,0,1,.337-1.758,2.961,2.961,0,0,1,1.2-1.329,3.169,3.169,0,0,1,1.616-.433,3.594,3.594,0,0,1,1.091.172,4.2,4.2,0,0,1,1.879-1,4,4,0,0,1,.967-.119,3.841,3.841,0,0,1,1.5.3,3.751,3.751,0,0,1,1.275.883,4.1,4.1,0,0,1,.645-.133,2.713,2.713,0,0,1,.675-1.54,3.257,3.257,0,0,1,1.008-.72,3.738,3.738,0,0,1,.919-1.7,3.809,3.809,0,0,1-.615-.655,4.108,4.108,0,0,1-.583-.137,3.881,3.881,0,0,1-2.2-1.773,3.609,3.609,0,0,1-.9.116,3.414,3.414,0,0,1-1.838-.55,3.553,3.553,0,0,1-1.428-1.83L6.7,32.322A2.824,2.824,0,0,1,5.79,31.8a2.561,2.561,0,0,1-.6-.757,1.386,1.386,0,0,1-.469.087,1.022,1.022,0,0,1-.641-.215,2.164,2.164,0,0,1-.9-2.233A2.845,2.845,0,0,1,4,27.265a3.337,3.337,0,0,1,1.547-.849,3.6,3.6,0,0,1,.831-.1,3.323,3.323,0,0,1,1.414.321,3.662,3.662,0,0,1,1.727-.944,3.239,3.239,0,0,1,.718-.08,3.766,3.766,0,0,1,1.614.379l.187,0a3.132,3.132,0,0,1,1.91-.629,4.019,4.019,0,0,1,.894.106,4.416,4.416,0,0,1,1.647.74,4.489,4.489,0,0,1,1.125,1.227,3.361,3.361,0,0,1,.644-.456,3.127,3.127,0,0,1,1.514-.387,3.372,3.372,0,0,1,.553.046c.24-.343.479-.67.71-.972a2.651,2.651,0,0,1-.706-.844,2.46,2.46,0,0,1-.288-1.089c-.141-.088-.278-.186-.411-.28l-.095-.067a4.372,4.372,0,0,1-1.767-2.2,4.2,4.2,0,0,1-.19-1.45c-.081-.018-.167-.038-.254-.063a4.64,4.64,0,0,1-2.177-1.388,5.248,5.248,0,0,1-1.172-2.257,4.915,4.915,0,0,1,0-2.362,4.34,4.34,0,0,1,1.246-2.1,2.616,2.616,0,0,1,1.853-.7,5.589,5.589,0,0,1,3.045,1.1,10.44,10.44,0,0,1,2.367,2.385l.042.007c.017,0,.035.005.053.009a3.6,3.6,0,0,1,1.31.615,4.63,4.63,0,0,1,1.009,1.042,4.07,4.07,0,0,1,.7-.061,3.864,3.864,0,0,1,1.194.188,4.072,4.072,0,0,1,1.152.6,3.688,3.688,0,0,1,1.365,1.835,26.941,26.941,0,0,1,2.8-1.258c.056-.136.125-.3.2-.451a2.8,2.8,0,0,1,.562-.758,4.36,4.36,0,0,1-.631-.915,4.124,4.124,0,0,1-.457-2.37,4.347,4.347,0,0,1,.84-2.088,4.518,4.518,0,0,1-.284-2.879,4.15,4.15,0,0,1,.163-.518,6.426,6.426,0,0,1-1-2.88,4.211,4.211,0,0,1,.213-1.766,4.094,4.094,0,0,1,.848-1.424A3.784,3.784,0,0,1,35.34,0a3.429,3.429,0,0,1,1.071.172,3.223,3.223,0,0,1,1.295.444,2.737,2.737,0,0,1,.7.6,2.263,2.263,0,0,1,.393.7A2.431,2.431,0,0,1,38.8,3.42a3.3,3.3,0,0,1,1.172,1.62,2.984,2.984,0,0,1-.01,1.926,3.276,3.276,0,0,1,1.5,2.259,3.426,3.426,0,0,1-.07,1.33,3.462,3.462,0,0,1,1.511.971,2.466,2.466,0,0,1,.616,1.69c.409.026.8.039,1.181.039.3,0,.6-.008.888-.024a3.169,3.169,0,0,1,.4-.81,3.1,3.1,0,0,1,1.46-1.078l.079-.029v-.155a1.63,1.63,0,0,1-.43-.821,1.287,1.287,0,0,1,.252-.958,1.269,1.269,0,0,1,.288-.292,6.6,6.6,0,0,1,.179-.864,1.363,1.363,0,0,1-.2-1.124.873.873,0,0,1,.509-.59,4.737,4.737,0,0,1,0-1.632,4.229,4.229,0,0,1,.585-1.514,4.579,4.579,0,0,1,1.07-1.178,4.9,4.9,0,0,1,3-1.037c.06,0,.121,0,.18,0a3.932,3.932,0,0,1,.821.121,7.485,7.485,0,0,1,1.629.363A.908.908,0,0,1,56.056,2.8,3.754,3.754,0,0,1,56.8,4.723a3.364,3.364,0,0,1-.077,1.057,3.568,3.568,0,0,1-.439,1.051c-.027.044-.056.086-.085.127l-.018.025a1.463,1.463,0,0,1,.427.513,1.567,1.567,0,0,1,.154.88,1.434,1.434,0,0,1-.367.812,1.065,1.065,0,0,1-.415.271l0,.045a9.386,9.386,0,0,1-.389,2.152A5.136,5.136,0,0,1,56.682,13.1a4.719,4.719,0,0,1,.5,1.732c.357.033.7.072.995.1a1.344,1.344,0,0,1,.557-.866,3.661,3.661,0,0,1,.81-.466,3.523,3.523,0,0,1,1.026-1.9,4.167,4.167,0,0,1,.675-.52,4.214,4.214,0,0,1,.574-2.232,3.279,3.279,0,0,1,1.433-1.3A3.952,3.952,0,0,1,65.589,5.71a1.954,1.954,0,0,1,.641-.107,2.756,2.756,0,0,1,1.752.712l.144.127a2.045,2.045,0,0,1,.6,1.033,2.313,2.313,0,0,1-.01,1.2,3.5,3.5,0,0,1-.523,1.088,2.517,2.517,0,0,1-.132,1.569,2.6,2.6,0,0,1-.93,1.106,6.9,6.9,0,0,1,.7,1.287A1.881,1.881,0,0,1,67.858,15a2.891,2.891,0,0,1-.677,1.149,3.526,3.526,0,0,1,.5,1.415,3.743,3.743,0,0,1,.8.139,2.8,2.8,0,0,1,.827-1.314,5.25,5.25,0,0,1,.637-.973,2.726,2.726,0,0,1,1.406-.917,1.835,1.835,0,0,1,.3-.478,3.033,3.033,0,0,1,.744-2.278,2.293,2.293,0,0,1,.716-.534,2.1,2.1,0,0,1,.9-.2,8.063,8.063,0,0,1,.392-1.022,2.2,2.2,0,0,1,1.655-1.18A2.955,2.955,0,0,1,77,7.544a3.18,3.18,0,0,1,1.673-.6c.105-.009.212-.014.317-.014a3.786,3.786,0,0,1,3.024,1.625,5.656,5.656,0,0,1,1,2.222,5.013,5.013,0,0,1-.041,2.38,3.624,3.624,0,0,1-.549,1.132,3.457,3.457,0,0,1-.906.869,2.887,2.887,0,0,1-.555.277,2.441,2.441,0,0,1-.762.684,2.241,2.241,0,0,1-.221.114,2.555,2.555,0,0,1-.539,1.59,2.658,2.658,0,0,1-1.32.917,2.629,2.629,0,0,1-.706,2.118l-.041.04-.084.076-.007.033a1.793,1.793,0,0,1-.111,1.6,4.584,4.584,0,0,0,.252,1.285,9.712,9.712,0,0,1,1.525,1.572,1.2,1.2,0,0,1,.792-.311,1,1,0,0,1,.356.064,1.493,1.493,0,0,1,.329-.072,2.827,2.827,0,0,1,.285-.014c.078,0,.16,0,.242.009a2.285,2.285,0,0,1,.275-.33,1.984,1.984,0,0,1,1.427-.577,2.6,2.6,0,0,1,1.216.317,2.575,2.575,0,0,1,.515-.29,2.158,2.158,0,0,1,.84-.181,2.577,2.577,0,0,1,2.029,1.306,5.888,5.888,0,0,1,.907,2.412,1.252,1.252,0,0,1-.277.977,1.743,1.743,0,0,1-1.229.578,1.478,1.478,0,0,1-.489.715,1.978,1.978,0,0,1-.812.395,1.506,1.506,0,0,1-.216,1,1.672,1.672,0,0,1-.768.676,1.575,1.575,0,0,1-.614.129,1.453,1.453,0,0,1-.194-.013l.012.165a1.176,1.176,0,0,1-.734,1.258,1,1,0,0,1-.578.681,54.785,54.785,0,0,1,2.567,7.569,89.906,89.906,0,0,1,2.361,12.763,101.11,101.11,0,0,1,.679,11.432,97.247,97.247,0,0,1-.645,11.434,51.632,51.632,0,0,1-.957,5.7,32.638,32.638,0,0,1-1.766,5.5,28.29,28.29,0,0,1-2.256,4.221,42.671,42.671,0,0,1-2.829,3.862A28.385,28.385,0,0,1,76.07,100.3a27.376,27.376,0,0,1-3.9,2.838,25.35,25.35,0,0,1-4.334,2.076,23.17,23.17,0,0,1-4.665,1.178A26.216,26.216,0,0,1,59.49,106.657ZM19.736,53.863a.663.663,0,0,0-.61.471.64.64,0,0,0,.408.767l.034.013a3.262,3.262,0,0,1,1.11.686l.068.064a.6.6,0,0,0,.422.182.692.692,0,0,0,.619-.435.569.569,0,0,0-.146-.644A4.725,4.725,0,0,0,19.9,53.891.5.5,0,0,0,19.736,53.863ZM34.563,30.48a.715.715,0,0,0-.568.321.643.643,0,0,0-.066.614l.015.034a2,2,0,0,1,.16,1.034,2.751,2.751,0,0,1-.31,1.005l-.032.06a.591.591,0,0,0,0,.606.712.712,0,0,0,.594.345.563.563,0,0,0,.5-.311,3.9,3.9,0,0,0,.5-1.671,3.555,3.555,0,0,0-.32-1.708A.509.509,0,0,0,34.563,30.48Zm9.109-9.29a.735.735,0,0,0-.553.26.629.629,0,0,0-.132.535,3.166,3.166,0,0,0,.853,1.653,4.062,4.062,0,0,0,1.592.981.648.648,0,0,0,.214.039.5.5,0,0,0,.367-.156.686.686,0,0,0,.179-.364.7.7,0,0,0-.061-.433.628.628,0,0,0-.362-.308,2.208,2.208,0,0,1-1.547-1.675l-.015-.073a.52.52,0,0,0-.535-.458Zm20.268-.762.164.216c.019-.084.035-.148.051-.207ZM22.265,73.182a1.025,1.025,0,0,1-.73-.329l-.033-.034a10.877,10.877,0,0,0-2.475-1.95,11.156,11.156,0,0,0-1.05-.531h0c-.126-.058-.256-.118-.385-.18a2.215,2.215,0,0,1-.454-.312,2.374,2.374,0,0,0-.4-.281.094.094,0,0,1-.047-.1.1.1,0,0,1,.07-.084,4.334,4.334,0,0,0,.458-.142,1.831,1.831,0,0,1,.7-.142c.068,0,.138,0,.216.009a9.127,9.127,0,0,1,1.518.256,9.391,9.391,0,0,1,3.234,1.646,1.266,1.266,0,0,1,.475.643,1.112,1.112,0,0,1-.015.676A1.216,1.216,0,0,1,22.265,73.182Z" transform="translate(1.687 0.634)"/>
  </g>
  <g id="FACE" transform="translate(112.183 77.354)">
    <path id="_Ink-3" data-name="ðŸ– Ink" d="M22.824,40.539a8.045,8.045,0,0,1-3.052-.61,8.621,8.621,0,0,1-1.992-1.145,8.487,8.487,0,0,1-1.622-1.636,1.676,1.676,0,0,1-.338-1.3,1.871,1.871,0,0,1,.728-1.172,1.793,1.793,0,0,1,1.067-.372,1.548,1.548,0,0,1,.238.018,1.648,1.648,0,0,1,1.1.73l.065.09A5.7,5.7,0,0,0,21.108,36.9a4.735,4.735,0,0,0,2.069.483,4.583,4.583,0,0,0,.513-.029,5.388,5.388,0,0,0,2.278-.8,10.668,10.668,0,0,0,1.93-1.611c.138-.141.284-.294.474-.5a.751.751,0,0,1,.394-.3.806.806,0,0,1,.256-.041.871.871,0,0,1,.714.373.8.8,0,0,1,.135.524,4.812,4.812,0,0,1-.57,1.864,6.221,6.221,0,0,1-1.22,1.567,7.841,7.841,0,0,1-1.847,1.288,7.69,7.69,0,0,1-2.05.7A7.548,7.548,0,0,1,22.824,40.539Zm2.148-12.17h0a7.373,7.373,0,0,1-2.63-.53,13.281,13.281,0,0,1-3.093-1.756,1.189,1.189,0,0,1-.432-.687,1.423,1.423,0,0,1,.061-.771,1.754,1.754,0,0,1,.521-.753,1.267,1.267,0,0,1,.812-.317,1.151,1.151,0,0,1,.628.193l.209.161,0,0a16.744,16.744,0,0,0,1.936,1.347,4.768,4.768,0,0,0,2.321.74,2.505,2.505,0,0,0,.981-.193,2.74,2.74,0,0,0,.913-.647,2.8,2.8,0,0,0,.531-2.255,4.26,4.26,0,0,0-1.13-2,8.241,8.241,0,0,0-1.711-1.381.531.531,0,0,1-.144-.61.8.8,0,0,1,.264-.38.809.809,0,0,1,.505-.167,1.076,1.076,0,0,1,.181.016,5.736,5.736,0,0,1,2.018.729,4.577,4.577,0,0,1,1.357,1.252,4.974,4.974,0,0,1,.866,3.322,5.475,5.475,0,0,1-.444,1.744,5.087,5.087,0,0,1-1,1.5A4.779,4.779,0,0,1,24.972,28.369ZM7.859,16.485a1.724,1.724,0,0,1-1.119-.439,1.744,1.744,0,0,1-.587-1.128,12.706,12.706,0,0,1,.067-3.308c.04-.321.081-.654.11-1.012a1.98,1.98,0,0,1,.75-1.415,2.31,2.31,0,0,1,1.421-.5,1.751,1.751,0,0,1,1.075.338,1.594,1.594,0,0,1,.594,1.057,8.877,8.877,0,0,1-.926,5.469,1.754,1.754,0,0,1-.619.716A1.427,1.427,0,0,1,7.859,16.485Zm25.119-.75a1.508,1.508,0,0,1-1.183-.507A4.624,4.624,0,0,1,31.074,14a5.342,5.342,0,0,1-.368-1.477,3.131,3.131,0,0,1,.853-2.687,1.772,1.772,0,0,1,.137-.208,1.933,1.933,0,0,1,1.487-.856,1.611,1.611,0,0,1,.452.067,2.175,2.175,0,0,1,1.453,1.268,4.486,4.486,0,0,1,.18,2.453,8.214,8.214,0,0,1-.744,2.314,1.5,1.5,0,0,1-.643.635A1.947,1.947,0,0,1,32.979,15.735ZM.278,7.854a.274.274,0,0,1-.229-.14.306.306,0,0,1-.018-.3A10.425,10.425,0,0,1,2.368,4.454,14.446,14.446,0,0,1,5.5,2.317a13.445,13.445,0,0,1,3.714-1.3l.4-.069A9.66,9.66,0,0,1,11.226.776a2.5,2.5,0,0,1,2,.746,1.7,1.7,0,0,1,.4,1.208,1.106,1.106,0,0,1-.4.789,3.08,3.08,0,0,1-2.112.62c-.166,0-.338,0-.5-.008H10.6c-.16,0-.341-.009-.521-.009s-.314,0-.452.012a14.274,14.274,0,0,0-3.143.536A21.357,21.357,0,0,0,.424,7.806.26.26,0,0,1,.278,7.854Zm38.247-1.6h0l-.167-.042A9.458,9.458,0,0,1,36.524,5.5l-.6-.293A16.537,16.537,0,0,0,33.8,4.3a25.089,25.089,0,0,0-4.845-1.07,1.979,1.979,0,0,1-.972-.369,1.457,1.457,0,0,1-.544-.828A1.482,1.482,0,0,1,27.609.786a1.581,1.581,0,0,1,.767-.661A1.725,1.725,0,0,1,29.03,0a1.926,1.926,0,0,1,.377.038l.3.062a21.676,21.676,0,0,1,5.232,1.7,10.579,10.579,0,0,1,2.3,1.514,6.719,6.719,0,0,1,1.627,2.1c.057.439,0,.548-.055.622L38.8,6.06l-.015.02a.421.421,0,0,1-.26.173Z" transform="translate(11.197 10.99)"/>
  </g>
  <g id="FACIAL_HAIR" data-name="FACIAL HAIR" transform="translate(104.577 109.479)">
    <path id="_Ink-4" data-name="ðŸ– Ink" d="M40.224,2.478c-.282-.842-1.731-.768-1.642.222a2.907,2.907,0,0,1-1.369,2.943,2.46,2.46,0,0,1-3.1-.929,16.846,16.846,0,0,0-1.774-2.539,6.582,6.582,0,0,0-2.5-1.551A5.129,5.129,0,0,0,27.616.392a5.409,5.409,0,0,0-5.09,1.954c-.074.092-.142.186-.208.282-.113-.154-.231-.306-.357-.457a1,1,0,0,0-1.086-.365,6.618,6.618,0,0,0-7.294-.353C11.705,2.563,10.153,4.2,7.846,4.325c-1.828.1-3.818-.942-3.947-2.952C3.831.324,2.4-.55,1.6.421A7.207,7.207,0,0,0,.51,7.646a9.749,9.749,0,0,0,5.528,5.521,21.559,21.559,0,0,0,8.92,1.479A9.245,9.245,0,0,0,22.384,11a8.007,8.007,0,0,0,.564-.879,9.175,9.175,0,0,0,7.205,3.2c2.89.069,6.307-.438,8.35-2.684a8.377,8.377,0,0,0,1.721-8.154" transform="translate(21.972 4.438)"/>
  </g>
</svg>
