<svg id="peep-90" xmlns="http://www.w3.org/2000/svg" width="240" height="324" viewBox="0 0 240 324">
  <g id="BODY" transform="translate(31.056 135.053)">
    <path id="_Skin" data-name="âœ‹ Skin" d="M84.8.039c6.155.3,15.738,2.943,16.217,4.63.748,2.634-.86,12.51,1.829,17.83,1.146,2.268,5.5,2.064,7.185,2.8,5.643,2.471,22.348,7.157,25.792,13.058,1.38,2.364,9.86,31.7,14.366,46.662a43.4,43.4,0,0,0,1.706,4.693l.229-1.123q2.756-13.567,2.756-16.427c0-2.978-2.375-15.545,0-18.741,2.351-3.164,8.018-5.751,10.567-5.8h.076a6.512,6.512,0,0,0,4.357-1.57l1.8-.908q13.772-6.913,16.093-7.585c2.469-.714,6.67.807,4.569,3.091q-2.1,2.283-10.557,8.079l-2.126,1.69.257.134q4.121,2.17,4.846,3.653.747,1.529-.717,3.617l.148.144q1.852,1.819,1.852,2.44v2.023q1.843,2.7.921,4.5a8.317,8.317,0,0,1-2.922,3.125,12.809,12.809,0,0,1-3.511,5.522q-2.037,1.643-7.04,2.735l-3.019,7.22-2.446,10.144L166.806,107l.358.259c1.659,1.209,2.721,2.1,2.721,3.03,0,1.442-6.692,35.359-17.1,36.877-2.252.328-13.93-1.282-17.764-4.4l.057.337q1.353,8.177-.573,8.493-23.668,3.882-134.44,2.4Q-.6,95.174,6.02,75.649C17.306,42.358,29.749,30.988,34.1,30.014c3.813-.853,17.036-6.118,20.733-7.515,2.413-.912,2.93-3.647,5.679-3.647h.222c2.659.027,5.017.5,6.342-.866,3.477-3.59,2.5-8.56,3.947-13.318C71.82,2.047,77.251-.334,84.8.039Z" transform="translate(11.726 -8.243)" fill="#d08b5b"/>
    <path id="_Jacket" data-name="ðŸ§¥ Jacket" d="M60.514,0h.222c.657.007,1.3.041,1.905.067L61.358,4.445l-.028.46q-1.25,22.633,22.158,21.67T106.776,11.76l0-.281V5.733l.246.047a16.95,16.95,0,0,1,3.018.669c5.643,2.471,22.348,7.157,25.792,13.058,1.38,2.364,9.86,31.7,14.366,46.662q.247.82.514,1.6v2.958l-.049.179q-2.369,8.864,6.308,14.494A34.624,34.624,0,0,0,169.6,90.583a1.564,1.564,0,0,1,.285.85c0,1.442-6.692,35.359-17.1,36.877-2.252.328-13.93-1.282-17.764-4.4l.057.337.053.324q1.262,7.859-.625,8.169-23.668,3.882-134.44,2.4Q-.6,76.322,6.02,56.8C17.306,23.506,29.749,12.136,34.1,11.162c3.813-.853,17.036-6.118,20.733-7.515C57.248,2.735,57.764,0,60.514,0Z" transform="translate(11.726 10.609)" fill="#ba98de"/>
    <path id="_Ink" data-name="ðŸ– Ink" d="M79.3,147.231a12.6,12.6,0,0,1-2.518-.216,5.937,5.937,0,0,1-2.185-.877,1.755,1.755,0,0,1-.811-.554,4.665,4.665,0,0,1-.687-1.09,16.211,16.211,0,0,1-1.059-3.37c-.586-2.636-.963-5.922-1.267-8.563a43.505,43.505,0,0,0-.711-4.91l-.342-2.3c-1.241-8.381-2.68-18.305-3.939-28.36-1.31-10.46-2.269-19.8-2.931-28.54-.371-4.9-.654-9.711-.841-14.3-.2-4.877-.3-9.691-.294-14.307,0-4.859.123-9.669.353-14.3.24-4.839.609-9.641,1.1-14.273a6.622,6.622,0,0,0-1.89.338,5.616,5.616,0,0,0-1.519.795,7.131,7.131,0,0,0-2.1,2.612,14.219,14.219,0,0,0-1.128,3.393,29.854,29.854,0,0,0-.506,3.477,34.573,34.573,0,0,1-1.44,6.609c-.67,2.153-1.5,4.3-2.295,6.381h0c-.906,2.359-1.843,4.8-2.554,7.246a35.757,35.757,0,0,0-.882,3.716,26.2,26.2,0,0,0-.409,3.831,16.612,16.612,0,0,0,1.371,6.852c.4.845.833,1.693,1.294,2.591A35.176,35.176,0,0,1,54.2,66.43a11.748,11.748,0,0,1,.362,3.781,9.344,9.344,0,0,1-.346,1.895,9.578,9.578,0,0,1-.785,1.888,21.389,21.389,0,0,0-2.14,2.948,6.687,6.687,0,0,0-.878,2.411c-.228,1.591.192,3.3.889,6.131l.027.11c.854,4.076,1.843,8.2,3.025,12.621,1.053,3.934,2.235,8.008,3.614,12.454,2.562,8.259,5.432,16.575,8.207,24.617.654,1.894,1.33,3.853,1.994,5.79-.154.8-.405,1.212-.746,1.212-.247,0-.546-.214-.889-.635a11.085,11.085,0,0,1-1.085-1.723,56.766,56.766,0,0,1-2.489-5.619c-1.712-4.349-3.377-9.326-4.372-12.3l0-.007c-.371-1.109-.639-1.91-.75-2.2a2.953,2.953,0,0,1-1.325.342,2.243,2.243,0,0,1-.976-.22,2.421,2.421,0,0,1-.761-.578,2.894,2.894,0,0,1-.716-1.749,2.284,2.284,0,0,1,.5-1.593,2.229,2.229,0,0,1,.734-.569,3.234,3.234,0,0,1,1.1-.3c-2.979-9.975-5.328-18.837-7.183-27.093l-.054-.257c-.122-.57-.258-1.14-.4-1.744a27.62,27.62,0,0,1-.95-5.777,9.388,9.388,0,0,1,.337-2.792,7.319,7.319,0,0,1,1.336-2.573c4.463-4.515,2.092-9.329-.419-14.427-1.852-3.76-3.767-7.648-3.078-11.677a2.05,2.05,0,0,1-1.23.4,2.3,2.3,0,0,1-.9-.186,2.373,2.373,0,0,1-.757-.515,2.083,2.083,0,0,1-.609-1.5,1.994,1.994,0,0,1,.575-1.481,2.4,2.4,0,0,1,1.7-.714,2.031,2.031,0,0,1,1.577.722,35.682,35.682,0,0,1,1.508-5.686c.64-1.854,1.4-3.707,2.128-5.5.716-1.753,1.456-3.567,2.086-5.379a36.422,36.422,0,0,0,1.5-5.554l.062-.361c.1-.6.191-1.213.276-1.808v0a18.4,18.4,0,0,1,1.655-6.238,36.708,36.708,0,0,1-5.736,2.974,2.952,2.952,0,0,1,.921,1.192,1.493,1.493,0,0,1,.016,1.053,1.908,1.908,0,0,1-.811.944,2.4,2.4,0,0,1-1.24.36,1.6,1.6,0,0,1-1.228-.513,1.751,1.751,0,0,1-.381-.77,3.354,3.354,0,0,1-.036-1.172c-2.464.713-4.635,1.444-6.638,2.236a45.678,45.678,0,0,0-5.432,2.538,32.7,32.7,0,0,0-4.436,2.933A29.061,29.061,0,0,0,26.9,30.2a39.764,39.764,0,0,0-5.771,8.686C19.3,42.456,17.58,46.65,16,50.65a1.576,1.576,0,0,1,1.115-.463,1.964,1.964,0,0,1,1.616.923,1.585,1.585,0,0,1,.1,1.579,1.569,1.569,0,0,1-.646.813,1.766,1.766,0,0,1-.942.26,1.979,1.979,0,0,1-1.258-.446,1.586,1.586,0,0,1-.577-1.252l-.326.778C12.508,58.978,10.595,64,9.052,68.631A116.352,116.352,0,0,0,4.8,84.967a3.384,3.384,0,0,1,.471-.035,2,2,0,0,1,1.487.569,1.885,1.885,0,0,1,.427.719,2.379,2.379,0,0,1,.116.846,2.494,2.494,0,0,1-.535,1.467,1.763,1.763,0,0,1-1.4.667,2.7,2.7,0,0,1-1.193-.313,135.415,135.415,0,0,0-1.229,14.9c-.17,5.265-.114,10.517-.037,14.961a2.462,2.462,0,0,1,1.124-.321,1.268,1.268,0,0,1,1.028.482,1.731,1.731,0,0,1,.353,1.061,1.644,1.644,0,0,1-.433,1.175,1.273,1.273,0,0,1-.928.369,2.536,2.536,0,0,1-1.112-.3c.069,4.587.157,9.252.243,13.762.066,3.509.135,7.137.195,10.725a1.242,1.242,0,0,1-.339.916,1.372,1.372,0,0,1-.979.384,1.442,1.442,0,0,1-.932-.325,1.273,1.273,0,0,1-.444-.974c-.073-2.936-.162-5.92-.248-8.8-.281-9.457-.572-19.236-.364-28.847-.031-2.679.037-5.414.2-8.127.162-2.652.422-5.359.773-8.045.342-2.622.781-5.3,1.3-7.955.509-2.589,1.112-5.233,1.792-7.857A154.459,154.459,0,0,1,9.032,60.675c1.826-4.87,3.967-9.882,6.364-14.9a55.525,55.525,0,0,1,6.523-12.992,34.169,34.169,0,0,1,3.827-4.557,32.168,32.168,0,0,1,4.291-3.589A47.023,47.023,0,0,1,40.272,19.4c3.822-1.478,8.016-2.775,12.873-4.277h0q1.384-.428,2.859-.886a11.155,11.155,0,0,1,3.075-3.021A7.471,7.471,0,0,1,63.1,9.868a4.916,4.916,0,0,1,2.344.581,36.421,36.421,0,0,0,2.935-6.556c.413-1.112.839-2.262,1.307-3.349A1.036,1.036,0,0,1,70.677,0a2.2,2.2,0,0,1,.967.245,1.969,1.969,0,0,1,.772,2.036,9.651,9.651,0,0,1-.843,2.407,12.483,12.483,0,0,0-.542,1.328,19.494,19.494,0,0,1-1.2,2.425,17.1,17.1,0,0,1-1.561,2.247,12.294,12.294,0,0,1-4.175,3.36c.044.536.091,1.1.129,1.55.227,2.7.461,5.493.555,8.25a19.661,19.661,0,0,0,7.887,5.612A57.726,57.726,0,0,0,82.1,32.3a19,19,0,0,0,5.067.682,20.237,20.237,0,0,0,6.035-.93,20.8,20.8,0,0,0,5.485-2.644,19.79,19.79,0,0,0,4.458-4.139,18.323,18.323,0,0,0,2.953-5.415,7.248,7.248,0,0,1-2.333-2.158,10.044,10.044,0,0,1-1.4-2.968,12.266,12.266,0,0,1-.494-3.3,11.013,11.013,0,0,1,.4-3.146.425.425,0,0,1,.386-.268.3.3,0,0,1,.283.179,13.428,13.428,0,0,1,.934,3.2,12.179,12.179,0,0,0,1.117,3.56,70.688,70.688,0,0,1,8.824,1.418,63.15,63.15,0,0,1,9.071,2.755,45.151,45.151,0,0,1,8.349,4.249,29.1,29.1,0,0,1,6.657,5.9c2.676,3.731,4.012,8.365,5.3,12.846h0c.266.923.541,1.878.82,2.792,1.785,5.658,3.406,11.471,4.974,17.092v0c1.425,5.109,2.9,10.392,4.49,15.54l.394-2.046c.518-2.7,1.048-5.585,1.344-8.5a37.554,37.554,0,0,0-.013-8.575l-.013-.274c-.038-.733-.108-1.573-.181-2.462-.386-4.671-.915-11.068,2.052-13.652a19.52,19.52,0,0,1,4.4-2.539,13.258,13.258,0,0,1,4.99-1.07,9.075,9.075,0,0,1,2.453.326,78.075,78.075,0,0,0,8.264-4.516c1.989-1.193,4.045-2.427,6.131-3.493,1.123-.574,2.165-1.055,3.185-1.47a29.331,29.331,0,0,1,3.331-1.14,7.483,7.483,0,0,1,1.484-.15,5.82,5.82,0,0,1,1.8.264,2.993,2.993,0,0,1,1.386.881,2.667,2.667,0,0,1,.486,2.271,8.882,8.882,0,0,1-1.377,2.857,12.262,12.262,0,0,1-2.166,2.278,35.829,35.829,0,0,1-5.519,3.52c-1.167.649-2.269,1.261-3.283,1.923a7.3,7.3,0,0,1,2.7,1.463,7,7,0,0,1,1.1,1.159,5.016,5.016,0,0,1,.729,1.34,3.331,3.331,0,0,1-.492,3.209.953.953,0,0,1-.053.125,2.864,2.864,0,0,1,1.063.794,3.021,3.021,0,0,1,.567,1.1,4.286,4.286,0,0,1,.151,1.275,5.816,5.816,0,0,1-.186,1.308c-.018.188-.049.229-.061.245s-.006.008.006.02a1.131,1.131,0,0,1,.157.207A3.077,3.077,0,0,1,189,55.236a4.611,4.611,0,0,1,.343,1.278,6,6,0,0,1-.3,2.755,4.132,4.132,0,0,1-1.01,1.608,2.553,2.553,0,0,1-1.628.719,6.2,6.2,0,0,1-.886,3.582,8.181,8.181,0,0,1-1.137,1.517,8.43,8.43,0,0,1-1.427,1.21,13.082,13.082,0,0,1-3.108,1.357,19.391,19.391,0,0,0-2.215.851,5.941,5.941,0,0,0-1.871,1.345,39.848,39.848,0,0,0-2.707,5.88,50.32,50.32,0,0,0-1.825,6.238,77.294,77.294,0,0,0-1.678,12.938,7.079,7.079,0,0,1,2.394,1.511,4.681,4.681,0,0,1,1.367,2.261,3.064,3.064,0,0,1-.038,1.554,3.8,3.8,0,0,1-.94,1.556h0c-.049.006-.1.012-.15.016a56.728,56.728,0,0,0-2.4,9.929c-.14.783-.285,1.592-.435,2.384a40.326,40.326,0,0,1-1.252,5.182,45.9,45.9,0,0,1-1.878,4.964c-.7,1.566-1.505,3.162-2.4,4.743-.847,1.489-1.8,3.01-2.831,4.52a10.465,10.465,0,0,1-2.109,2.529,11.251,11.251,0,0,1-2.691,1.728,13.814,13.814,0,0,1-3.1.99,17.3,17.3,0,0,1-3.344.316,21.107,21.107,0,0,1-6.586-1.088,18.3,18.3,0,0,1-5.587-2.95c.006.306.022.616.038.915a8.013,8.013,0,0,1-.218,2.984,1.453,1.453,0,0,1-.46.6.965.965,0,0,1-.565.186,1.154,1.154,0,0,1-.819-.371,1.667,1.667,0,0,1-.446-.983,2.45,2.45,0,0,1-1.187.355,1.505,1.505,0,0,1-1.21-.592,2.26,2.26,0,0,1-.46-1.3,1.937,1.937,0,0,1,.484-1.42,1.629,1.629,0,0,1,1.209-.473,2.952,2.952,0,0,1,.751.106c-.3-4.748-.464-9.441-.583-13.406a3.36,3.36,0,0,1-1.029.176,2.054,2.054,0,0,1-1.614-.713,2.513,2.513,0,0,1-.574-1.568,2.352,2.352,0,0,1,.611-1.706,1.974,1.974,0,0,1,1.455-.575,3.479,3.479,0,0,1,1.066.185l0-1.92c-.015-7.025.01-14.564.3-22.1.309-8.143.89-15.342,1.777-22.008.089-.544.212-1.088.33-1.614s.242-1.076.331-1.621a.082.082,0,0,1,.086-.07.1.1,0,0,1,.109.1c.113,7.664-.007,15.463-.122,23.006-.1,6.293-.2,12.8-.16,19.2.04,7.178.249,13.457.64,19.195a3.471,3.471,0,0,1,1.652,1.472,6.458,6.458,0,0,0,.83.99,10.381,10.381,0,0,0,3.285,2.008,15.189,15.189,0,0,0,3.76.911,21.674,21.674,0,0,0,3.017.232A9.435,9.435,0,0,0,155.89,135a16.341,16.341,0,0,0,4.28-5.758,1.6,1.6,0,0,1-.9.279,1.778,1.778,0,0,1-.915-.263,1.905,1.905,0,0,1-.667-.674,1.612,1.612,0,0,1-.22-.759,1.553,1.553,0,0,1,.217-.826l.027-.046a1.547,1.547,0,0,1,1.385-.815,1.873,1.873,0,0,1,.777.173,1.821,1.821,0,0,1,.635.48,1.562,1.562,0,0,1,.311.588,1.621,1.621,0,0,1,.028.726,39.226,39.226,0,0,0,3.774-8.071,70.974,70.974,0,0,0,2.309-8.622l.167-.7c.28-1.162.629-2.53,1.091-3.869a17.159,17.159,0,0,1,1.721-3.692,28.542,28.542,0,0,1-12.126-6.526A20.194,20.194,0,0,1,151.2,84.773c-1.938,6.092-4.51,12.146-7,18v0c-.366.861-.744,1.752-1.114,2.627-.321.856-.579,1.749-.827,2.613a19.683,19.683,0,0,1-1.7,4.488.627.627,0,0,1-.553.319.685.685,0,0,1-.66-.478c-.862-3.857.89-7.56,2.584-11.141.563-1.19,1.095-2.314,1.538-3.447.39-.691.983-2.057,1.67-3.639.954-2.2,2.141-4.933,3.319-7.1a17.013,17.013,0,0,1,1.739-2.7c.6-.715,1.126-1.08,1.576-1.085-1.13-4.953-2.512-10.357-4.228-16.52-1.528-5.49-3.17-11.051-4.757-16.428-.528-1.788-1.073-3.636-1.606-5.452a41.993,41.993,0,0,0-3.48-10.536,23.43,23.43,0,0,0-2.4-3.785,21.222,21.222,0,0,0-2.907-3.046,30.943,30.943,0,0,0-7.549-4.624c-2.809-1.281-5.991-2.447-10.214-3.914a45.449,45.449,0,0,0,2.127,7.2c.9,2.391,1.957,4.819,2.981,7.166v0c1.011,2.318,2.056,4.714,2.95,7.083a46.909,46.909,0,0,1,2.143,7.142,25.951,25.951,0,0,1,.523,7.245,21.676,21.676,0,0,1-.6,3.675,22.265,22.265,0,0,1-1.31,3.717l-.166.39a13.374,13.374,0,0,0-.84,2.512,5.658,5.658,0,0,0,.049,2.633,15.51,15.51,0,0,0,1.737,3.7c.226.388.459.789.676,1.187a19.85,19.85,0,0,1,1.291,2.961,21.375,21.375,0,0,1,.792,3.047,27.673,27.673,0,0,1,.379,6.271,76.674,76.674,0,0,1-2.019,12.687c-.272,1.256-.554,2.556-.8,3.807-.493,2.292-.992,4.623-1.476,6.878l-.018.082c-1.819,8.487-3.7,17.262-5.618,25.882-.14.638-.268,1.292-.392,1.925a34.907,34.907,0,0,1-1.123,4.616,1.063,1.063,0,0,1-.451.562,1.285,1.285,0,0,1-.67.187,1.051,1.051,0,0,1-.784-.315.911.911,0,0,1-.214-.72,39.807,39.807,0,0,1,.968-5.235c.157-.676.318-1.375.463-2.065,1.265-6.554,2.741-13.185,4.168-19.6v0c1.99-8.942,4.048-18.189,5.566-27.369a24.323,24.323,0,0,0,.254-4.48,17.264,17.264,0,0,0-.506-3.528,23.828,23.828,0,0,0-2.206-5.327c-1.195-2.3-2.323-4.477-2.219-7.667A30.887,30.887,0,0,1,121.688,61a36.426,36.426,0,0,0,1.236-3.515,12.309,12.309,0,0,0,.491-3.709,26.443,26.443,0,0,0-.281-5.042,35.5,35.5,0,0,0-1.095-4.858,92.358,92.358,0,0,0-3.546-9.411c-1.064-2.54-2.163-5.165-3.039-7.8-.471-1.416-.842-2.721-1.133-3.988a30.832,30.832,0,0,1-.669-4.1l-2-.712c-1.2-.431-2.126-.766-2.988-1.086A378.909,378.909,0,0,1,112.125,72.1c-.033,8.649-.278,17.733-.75,27.771-.386,8.2-.919,17-1.678,27.672a39.027,39.027,0,0,0-.313,5.2c-.081,2.624-.183,5.889-.432,8.427a19.83,19.83,0,0,1-.5,3.155,3.5,3.5,0,0,1-.367.92.583.583,0,0,1-.46.332h0a.448.448,0,0,1-.19-.046,1.976,1.976,0,0,1-.369.9,1.048,1.048,0,0,1-.855.407H106.2c-4.4.04-8.857.1-13.171.158h-.05c-2.5.033-5.077.068-7.615.1-.371-.034-.775-.051-1.235-.051-.752,0-1.526.044-2.346.09h0l-.033,0h0C80.946,147.184,80.117,147.231,79.3,147.231Zm86.866-107.1h0a8.956,8.956,0,0,0-3.412.789l-.492.184a17.963,17.963,0,0,0-2.512,1.129,6.036,6.036,0,0,0-2.031,1.738,5.741,5.741,0,0,0-.52,3.011c0,.379,0,.737-.03,1.041a38,38,0,0,0-.206,5.613c.054,1.675.2,3.507.455,5.6a51.362,51.362,0,0,1-.868,13.17A55.258,55.258,0,0,1,152.5,84.978a49.687,49.687,0,0,0,2.986,4.328,37.011,37.011,0,0,0,3.5,3.929,28.243,28.243,0,0,0,4.068,3.281,23.165,23.165,0,0,0,4.686,2.384,84.1,84.1,0,0,1,1.082-10.023c.511-3.135,1.138-6.225,1.922-9.9l.055-.287c.08-.423.156-.854.229-1.271a30.943,30.943,0,0,1,.822-3.764,11.964,11.964,0,0,1,.7-1.779,9.217,9.217,0,0,1,1.041-1.658,11.5,11.5,0,0,1,5.357-3.013,13.255,13.255,0,0,0,3.732-1.685,7.225,7.225,0,0,0,1.6-1.586,10.1,10.1,0,0,0,1.317-2.489.536.536,0,0,1-.266-.623.544.544,0,0,1,.518-.442.613.613,0,0,1,.163.023,1.721,1.721,0,0,0,.3.027,1.388,1.388,0,0,0,1.005-.42,2.421,2.421,0,0,0,.58-1.036,4.112,4.112,0,0,0,.074-1.95,2.266,2.266,0,0,0-.866-1.474,1.6,1.6,0,0,1-.521-.483,1.363,1.363,0,0,1-.209-.564,4.063,4.063,0,0,1,.1-1.274,2.816,2.816,0,0,0-.055-1.83,1.869,1.869,0,0,0-.753-.565,1.864,1.864,0,0,1-.847-.682,2.642,2.642,0,0,1,.467-2.369,5.888,5.888,0,0,0,.477-1.007,1.642,1.642,0,0,0,.023-1.039,2.441,2.441,0,0,0-.817-1.078,9.311,9.311,0,0,0-2.036-1.2,4.945,4.945,0,0,0-1.685-.245c-.351,0-.7.02-1.041.039H180.2c-.331.019-.673.038-1,.038h-.032a8.03,8.03,0,0,0-2.8.986,10.014,10.014,0,0,1-2.051.841,5.994,5.994,0,0,1,.355,1.382,5.506,5.506,0,0,1,.014,1.323,5.018,5.018,0,0,1-.831,2.274,4.237,4.237,0,0,1-1.382,1.289,3.6,3.6,0,0,1-1.8.481,3.975,3.975,0,0,1-1.547-.325,5.65,5.65,0,0,1-1.59-1.044,10.9,10.9,0,0,0-1.908,2.46,3.01,3.01,0,0,0-.56,2.249.911.911,0,0,0,.956.5,6.267,6.267,0,0,0,2.2-.577c.808-.539,1.593-1.136,2.352-1.713.856-.651,1.742-1.324,2.659-1.913a14.2,14.2,0,0,1,2.939-1.482l.064-.02c.194-.064.5-.185.876-.338a13.935,13.935,0,0,1,4.061-1.2,1,1,0,0,1,.772.249.729.729,0,0,1,.14.591,5.973,5.973,0,0,1-1.778,1.144,19.758,19.758,0,0,1-2.063.728,12.175,12.175,0,0,0-3.234,1.358,14.728,14.728,0,0,0-3.043,2.1,17.4,17.4,0,0,1-2.445,1.779,6.537,6.537,0,0,1-1.364.584,5.4,5.4,0,0,1-1.539.221h-.073a2.8,2.8,0,0,0,.316,2.264,1.609,1.609,0,0,0,1.293.5,7.283,7.283,0,0,0,2.836-.79,19.952,19.952,0,0,0,2.519-1.4l.586-.318c3.024-1.634,6.024-3.1,9.481-3.123h.006a.694.694,0,0,1,.712.729.789.789,0,0,1-.178.516.694.694,0,0,1-.54.241,11.5,11.5,0,0,0-2.647.33,15.426,15.426,0,0,0-2.487.841,40.773,40.773,0,0,0-4.685,2.52c-.717.427-1.459.869-2.191,1.275a1.61,1.61,0,0,0,.3,1.315,2.162,2.162,0,0,0,1.678.546,13.775,13.775,0,0,0,3.321-.591l.225-.06a10.2,10.2,0,0,0,2.006-.627,8.808,8.808,0,0,1,2.855-.761,1.879,1.879,0,0,1,1.059.281.844.844,0,0,1,0,.735c-.255.472-1.078.647-1.8.8a4.86,4.86,0,0,0-1.071.3c1.516.728,1.972,1.356,1.893,1.7-.041.18-.226.287-.5.287a1.75,1.75,0,0,1-1.033-.416,3.107,3.107,0,0,1-.952-1.391l-.32.109A18.742,18.742,0,0,1,173.6,64.2a3.185,3.185,0,0,1-2.529-.848,2.541,2.541,0,0,1-.393-2.136,6.166,6.166,0,0,1-2.429.554,4.1,4.1,0,0,1-.888-.094,6.659,6.659,0,0,1-1.9,1.9,3.24,3.24,0,0,1-1.6.572c-.307,0-.505-.105-.543-.288-.051-.246.181-.6.653-.983A11.662,11.662,0,0,1,166.6,61.4a2.182,2.182,0,0,1-.933-.885,3.121,3.121,0,0,1-.414-1.3,2.634,2.634,0,0,1,.14-1.141,1.828,1.828,0,0,1,.67-.883c-1.34-.082-2.152-.524-2.414-1.312-.327-.985.27-2.283.828-3.2a12.654,12.654,0,0,1,1.167-1.6,10.831,10.831,0,0,1,1.2-1.219c-.213-.215-.4-.413-.563-.605a11.154,11.154,0,0,1-1.846.688,11.306,11.306,0,0,1-1.957.352c-.033,0-.066,0-.1,0a.925.925,0,0,1-.73-.346,1.347,1.347,0,0,1-.294-.766,1,1,0,0,1,.817-1.15A10.386,10.386,0,0,0,166,46.8a1.343,1.343,0,0,1,.531-.118c.7,0,1.213.648,1.756,1.333.561.708,1.14,1.44,1.972,1.5a1.445,1.445,0,0,0,.279.028,1.392,1.392,0,0,0,1.04-.492,2.425,2.425,0,0,0,.545-1.081,17.769,17.769,0,0,0-.564-2.828,10.076,10.076,0,0,0-1.088-2.515,4.863,4.863,0,0,0-4.3-2.492Zm25.485-10.3a3.969,3.969,0,0,0-.774.084c-2.818.381-5.484,1.849-8.062,3.268-.718.4-1.4.768-2.079,1.12-2.139,1.13-4.359,2.157-6.506,3.149h0c-1.323.612-2.69,1.244-4.031,1.9a7.972,7.972,0,0,1,1.916,1.68,12.013,12.013,0,0,1,1.445,2.207,9.107,9.107,0,0,1,2.754-1.405,11.5,11.5,0,0,1,3.06-.524,14.69,14.69,0,0,1,2.7-2c.978-.58,2.033-1.106,3.054-1.614a36.564,36.564,0,0,0,3.993-2.2,13.793,13.793,0,0,0,1.769-1.383,10.242,10.242,0,0,0,1.49-1.72,3.2,3.2,0,0,0,.625-1.093,1.172,1.172,0,0,0-.025-.845,1.358,1.358,0,0,0-1.332-.623ZM29.528,143.294a1.177,1.177,0,0,1-1.057-.592,1.4,1.4,0,0,1,.387-1.619.373.373,0,0,0-.019-.041l-.013-.027c-.03-.087-.067-.173-.1-.256a2.9,2.9,0,0,1-.12-.306,5.052,5.052,0,0,1-.14-1.542c0-.115,0-.232,0-.348,0-.918.026-1.851.051-2.754h0q.008-.3.016-.591c.071-2.57.148-4.9.234-7.11.345-8.736,1.027-17.32,1.583-23.821l.23-2.675c.311-3.615.627-7.151,1.072-10.657.02-.163.042-.338.066-.507a2.345,2.345,0,0,1-.642-.473,8.57,8.57,0,0,1-1.451-2.6l-.1-.232-.093-.219a15.5,15.5,0,0,1-1.054-3.17l-.02-.1-.009-.046c-.1-.473-.258-1.264.224-1.484a.51.51,0,0,1,.207-.053c.14,0,.242.094.3.279a.123.123,0,0,1-.017.1,4.48,4.48,0,0,0,.394.491,4.765,4.765,0,0,1,.335.409l.694.993.343.5c.385.566.823,1.157,1.38,1.858a60.668,60.668,0,0,1,1.561-7.883A.231.231,0,0,1,34,78.642a.253.253,0,0,1,.258.242,90.858,90.858,0,0,1-.222,10.608c-.082,1.209-.175,2.437-.266,3.624v.009c-.071.929-.144,1.889-.211,2.831-.4,5.63-.73,11.349-.976,17a2.218,2.218,0,0,1,.268-.093,2.391,2.391,0,0,1,1.28,0,2.387,2.387,0,0,1,1,.561l.061.059A2.712,2.712,0,0,1,35.9,115.1l0,.076a2.368,2.368,0,0,1-.329,1.215,2.442,2.442,0,0,1-.862.864,2.415,2.415,0,0,1-1.215.328c-.044,0-.092.008-.139.011l-.077,0a1.769,1.769,0,0,1-.828-.2l-.042-.013c-.108,2.942-.194,5.847-.256,8.634-.024,1.077-.053,2.166-.08,3.219-.037,1.411-.075,2.87-.1,4.307l-.024,1.255-.046,2.773q0,.088,0,.176a9.293,9.293,0,0,1-.393,3.132l-.046.124c-.05.128-.1.263-.146.405a2.854,2.854,0,0,1-1.1,1.713,1.452,1.452,0,0,1-.683.172ZM63.215,140.2a1.589,1.589,0,0,1-.978-.338l-.043-.032-.041-.034a1.1,1.1,0,0,1-.364-.835,1.146,1.146,0,0,1,.328-.893l.036-.03c.025-.021.051-.042.084-.065a1.588,1.588,0,0,1,.975-.337,1.355,1.355,0,0,1,.907.326,1.344,1.344,0,0,1,0,1.911A1.351,1.351,0,0,1,63.215,140.2Zm-38.655-.319h-.075a2.152,2.152,0,0,1-1.1-.3c-.094-.071-.189-.144-.28-.215l-.005,0-.02-.015-.136-.105a2.186,2.186,0,0,1-.56-.962l-.017-.131v0c-.019-.146-.039-.3-.061-.444a1.674,1.674,0,0,1,.188-.839,1.651,1.651,0,0,1,.45-.7,1.608,1.608,0,0,1,.7-.45,1.627,1.627,0,0,1,.766-.19l.075,0a2.149,2.149,0,0,1,1.1.3c.11.083.222.17.321.247l.121.094a2.171,2.171,0,0,1,.56.962l.078.579a2.434,2.434,0,0,1-.638,1.541,1.626,1.626,0,0,1-.7.45A1.62,1.62,0,0,1,24.56,139.882Zm98.448-3.822a1.051,1.051,0,0,1-.266-.035,1.49,1.49,0,0,1-.739-.237l-.35-.271-.054-.042a5.346,5.346,0,0,1-.332-.427c-.073-.17-.141-.333-.2-.484a2.167,2.167,0,0,1,0-1.108v-.008a.982.982,0,0,1,.051-.188l.046-.123a2.205,2.205,0,0,1,.4-.71l.082-.11a1.437,1.437,0,0,1,.131-.156,2.34,2.34,0,0,1,.314-.254c.058-.042.113-.081.165-.122a2.1,2.1,0,0,1,1.05-.283l.554.074a2.074,2.074,0,0,1,1.242.958,1.554,1.554,0,0,1,.247.773,1.587,1.587,0,0,1-.038.829,1.566,1.566,0,0,1-.372.708,1.445,1.445,0,0,1-.222.271,2.379,2.379,0,0,1-.706.674,1.491,1.491,0,0,1-.742.237A1.031,1.031,0,0,1,123.008,136.06Zm-71.294-2.494h-.064a1.7,1.7,0,0,1-.862-.233l-.346-.266a1.735,1.735,0,0,1-.439-.755c-.017-.133-.035-.267-.053-.4v0l-.007-.053a1.908,1.908,0,0,1,.5-1.207,1.955,1.955,0,0,1,1.138-.5h.071a1.716,1.716,0,0,1,.86.232l.346.269a1.707,1.707,0,0,1,.439.753c.017.138.037.278.056.413v0l.006.04a1.3,1.3,0,0,1-.148.659,1.269,1.269,0,0,1-.353.55,1.306,1.306,0,0,1-.549.353A1.279,1.279,0,0,1,51.714,133.566ZM37.9,133.411a1.778,1.778,0,0,1-.6-.1,3.044,3.044,0,0,1-.566-.251,2.536,2.536,0,0,1-.731-.746l0,0a1.9,1.9,0,0,1,0-1.921,1.92,1.92,0,0,1,1.641-.941h.022a2.141,2.141,0,0,1,1.229.376,2.1,2.1,0,0,1,.788.922l.011.025c.044.1.085.2.122.3a1.678,1.678,0,0,1-.036,1.444,1.911,1.911,0,0,1-1.236.8A2.233,2.233,0,0,1,37.9,133.411Zm-22.847-.006a3.392,3.392,0,0,1-.576-.054,2.081,2.081,0,0,1-.936-.511,1.276,1.276,0,0,1-.37-1.135,1.293,1.293,0,0,1,.5-.873l0-.006-.1.078c.034-.03.068-.062.1-.094l.013-.012a.684.684,0,0,0,.032-.064l0,0a1.767,1.767,0,0,1,.632-.632,1.772,1.772,0,0,1,2.59,1.991,1.767,1.767,0,0,1-1.232,1.232A2.7,2.7,0,0,1,15.05,133.405Zm130.732-6.534a2.476,2.476,0,0,1-.928-.238,2.052,2.052,0,0,1-.619-.617,1.274,1.274,0,0,1-.205-.643.888.888,0,0,1,0-.456,1.289,1.289,0,0,1,.205-.642l.27-.349.028-.023a1.724,1.724,0,0,1,.765-.446,1.744,1.744,0,0,1,.921,0,1.29,1.29,0,0,1,.59.31,1.3,1.3,0,0,1,.412.427l.033.06a1.8,1.8,0,0,1,.175,1.335,1.62,1.62,0,0,1-.443.767,1.654,1.654,0,0,1-.768.444l-.019,0-.019.005A1.325,1.325,0,0,1,145.782,126.871Zm-21.755-10.3a1.98,1.98,0,0,1-1.557-.671,2.364,2.364,0,0,1,0-2.956,2.14,2.14,0,0,1,3.113,0,2.363,2.363,0,0,1,0,2.956A1.979,1.979,0,0,1,124.027,116.57ZM22.84,116.064a1.687,1.687,0,0,1-.507-.079l-.194-.082-.328-.138-.443-.342-.342-.444-.109-.26-.11-.262-.078-.581a1.647,1.647,0,0,1,.188-.843,2.163,2.163,0,0,1,.674-.875,1.1,1.1,0,0,1,.482-.281,1.083,1.083,0,0,1,.551-.148,1.67,1.67,0,0,1,.366-.041,1.688,1.688,0,0,1,.506.079l.144.061.377.158.444.343a.8.8,0,0,1,.139.163c.018.026.037.053.06.082l.1.124a1.45,1.45,0,0,1,.235.467l.057.149a2.144,2.144,0,0,1,0,1.129,2.009,2.009,0,0,1-.218.511,2.1,2.1,0,0,1-.308.409l-.06.061a1.659,1.659,0,0,1-.7.452,1.083,1.083,0,0,1-.551.148A1.675,1.675,0,0,1,22.84,116.064Zm136.76-3.981a1.6,1.6,0,0,1-.82-.224,1.823,1.823,0,0,1-.608-.6.871.871,0,0,1-.071-.155c-.01-.025-.019-.051-.03-.075s-.02-.047-.031-.07a1.387,1.387,0,0,1-.065-.162,1.726,1.726,0,0,1,0-.9,1.278,1.278,0,0,1,.3-.575,1.293,1.293,0,0,1,.475-.435,1.688,1.688,0,0,1,.784-.231l.076,0h.051a1.252,1.252,0,0,1,.594.147,1.44,1.44,0,0,1,.2.087,1.7,1.7,0,0,1,.608.607,1.281,1.281,0,0,1,.2.63,1.263,1.263,0,0,1-.014.613l-.018.061a1.654,1.654,0,0,1-.209.463.252.252,0,0,1-.032.048,1.655,1.655,0,0,1-.562.546,1.683,1.683,0,0,1-.835.226ZM42.96,110.148a.848.848,0,0,1-.223-.03,1.631,1.631,0,0,1-.8-.332,1.248,1.248,0,0,1-.433-.471l-.171-.4-.059-.448.059-.446.093-.22a1.782,1.782,0,0,1,1.242-1.243,1.8,1.8,0,0,1,.474-.065,1.764,1.764,0,0,1,.4.047l.073.018a1.359,1.359,0,0,1,.606.317,1.377,1.377,0,0,1,.458.5,1.778,1.778,0,0,1-.64,2.435l-.232.112a1.253,1.253,0,0,1-.626.2A.867.867,0,0,1,42.96,110.148Zm105.021-2.627a1.787,1.787,0,0,1-.538-.084l-.391-.166-.011,0-.147-.062c-.114-.087-.23-.176-.341-.262l0,0-.121-.094-.078-.1c-.092-.12-.188-.244-.283-.365a1.7,1.7,0,0,1-.273-.858,1.151,1.151,0,0,1,0-.613,1.137,1.137,0,0,1,.156-.581,1.731,1.731,0,0,1,.478-.744l.1-.074c.121-.094.246-.191.371-.285l.549-.232a1.75,1.75,0,0,1,.921-.042,2.295,2.295,0,0,1,1.09.454,1.757,1.757,0,0,1,.594.646l.232.552a2.343,2.343,0,0,1,0,1.243,1.714,1.714,0,0,1-.406.773,1.149,1.149,0,0,1-.408.408,1.719,1.719,0,0,1-.677.38l-.071.019-.025.006a.027.027,0,0,1-.013,0,.013.013,0,0,1-.009,0,1.529,1.529,0,0,1-.312.044A1.787,1.787,0,0,1,147.981,107.52ZM13.1,99.292a2.07,2.07,0,0,1-.464-.053,1.518,1.518,0,0,1-.469-.2,1.655,1.655,0,0,1-.555-.564,1.491,1.491,0,0,1-.21-.762,1.268,1.268,0,0,1,.013-.177,1.369,1.369,0,0,1-.036-.377l.063-.477,0-.013a1.788,1.788,0,0,1,1.175-1.224l.069-.021H12.7a1.793,1.793,0,0,1,.957,0l.429.18a1.346,1.346,0,0,1,.505.465,1.337,1.337,0,0,1,.323.613,2.028,2.028,0,0,1,.011,1.158,2.225,2.225,0,0,1-.553.947,1.745,1.745,0,0,1-1.273.507Zm116.773-4.523a1.7,1.7,0,0,1-1.149-.476,1.64,1.64,0,0,1-.475-1.15,1.235,1.235,0,0,1,.139-.625,1.21,1.21,0,0,1,.29-.477l.046-.045a1.627,1.627,0,0,1,2.3,0,1.63,1.63,0,0,1,.475,1.148,1.8,1.8,0,0,1-.475,1.15A1.691,1.691,0,0,1,129.868,94.769Zm13.386-9.078a2.017,2.017,0,0,1-1.02-.277,2.046,2.046,0,0,1-.725-.725,1.407,1.407,0,0,1-.237-.588,2.059,2.059,0,0,1,.475-1.946l.054-.056a2.337,2.337,0,0,1,1.383-.6h.07a2.069,2.069,0,0,1,1.037.281l.144.11h0c.089.068.181.139.272.21a2.059,2.059,0,0,1,.528,2,1.429,1.429,0,0,1-.235.588,2.069,2.069,0,0,1-.727.725A2.018,2.018,0,0,1,143.254,85.692ZM41.884,85.111h0c-.058-.008-.12-.017-.179-.023a1.3,1.3,0,0,1-.208-.023l-.069-.015-.062-.017a1.32,1.32,0,0,1-.241-.1.874.874,0,0,1-.387-.226,1.324,1.324,0,0,1-.452-.492l-.029-.068a1.226,1.226,0,0,1-.1-.226.832.832,0,0,1-.11-.408,1.235,1.235,0,0,1,.011-.579l.018-.064.163-.387a1.972,1.972,0,0,1,.287-.372c.071-.063.238-.193.331-.257l.058-.038a1.316,1.316,0,0,1,.651-.207.874.874,0,0,1,.467,0,1.316,1.316,0,0,1,.651.207c.119.093.24.187.355.275l.1.124a1.736,1.736,0,0,1,.347.606l0,0,.047.114a1.327,1.327,0,0,1,.03.685.858.858,0,0,1-.116.431.839.839,0,0,1-.222.378.865.865,0,0,1-.307.309,1.3,1.3,0,0,1-.583.306l-.454.061ZM17.573,80.684a1.57,1.57,0,0,1-1.512-1.96l.034-.136a1.516,1.516,0,0,1,.6-.876,1.722,1.722,0,0,1,.986-.309,1.6,1.6,0,0,1,1.142.464,1.581,1.581,0,0,1,.421.761,1.722,1.722,0,0,1-.019.843A1.565,1.565,0,0,1,18.106,80.6l-.137.034A1.61,1.61,0,0,1,17.573,80.684Zm149.5-7.083a5.276,5.276,0,0,1-1.952-.428,8.1,8.1,0,0,1-1.9-1.113,6.948,6.948,0,0,1-1.466-1.539,3.546,3.546,0,0,1-.655-1.707.108.108,0,0,1,.028-.084.138.138,0,0,1,.1-.041.134.134,0,0,1,.091.034,13.642,13.642,0,0,1,1.008,1.039,7.7,7.7,0,0,0,1.894,1.677,7.167,7.167,0,0,0,2.279.728,10.719,10.719,0,0,1,1.539.384.47.47,0,0,1,0,.9A2.934,2.934,0,0,1,167.074,73.6ZM46.5,72.666a1.03,1.03,0,0,1-.274-.038,1.018,1.018,0,0,1-.518-.139,1.045,1.045,0,0,1-.454-.264,1.573,1.573,0,0,1-.528-.577c-.071-.165-.14-.33-.207-.49l-.074-.547.074-.547,0-.017a2.048,2.048,0,0,1,.52-.892l.41-.317a1.929,1.929,0,0,1,.5-.209,1.619,1.619,0,0,1,.479-.074,1.558,1.558,0,0,1,.341.038,1.012,1.012,0,0,1,.517.139,1.041,1.041,0,0,1,.454.264,1.055,1.055,0,0,1,.37.37,1.551,1.551,0,0,1,.368.7l.072.547-.072.547c-.066.154-.136.319-.207.49l-.189.256a1.4,1.4,0,0,1-.4.376l-.144.106a1.524,1.524,0,0,1-.765.243A1.016,1.016,0,0,1,46.5,72.666Zm98.526-.284-.067,0a1.655,1.655,0,0,1-.824-.224l-.33-.256a1.214,1.214,0,0,1-.338-.526,1.227,1.227,0,0,1-.142-.63l0-.04a.6.6,0,0,1,.029-.239.918.918,0,0,1,.034-.241,1.721,1.721,0,0,1,1.187-1.188,1.682,1.682,0,0,1,.446-.06,1.719,1.719,0,0,1,1.21.5,1.7,1.7,0,0,1,0,2.4,1.683,1.683,0,0,1-.75.438,1.72,1.72,0,0,1-.453.065ZM18.259,66.111a1.667,1.667,0,0,1-.219-.016,1.2,1.2,0,0,1-.6-.224,1.14,1.14,0,0,1-.412-.412l-.116-.275a1.887,1.887,0,0,1-.042-.33.287.287,0,0,0,0-.042,2.2,2.2,0,0,1,.046-.366,1.4,1.4,0,0,1,.25-.478,1,1,0,0,1,.376-.344l.014-.011.016-.01.061-.042h0l.086-.06a1.358,1.358,0,0,1,.689-.186h.041a1.021,1.021,0,0,1,.485.119.983.983,0,0,1,.439.283,1.006,1.006,0,0,1,.283.44,1.033,1.033,0,0,1,.118.526,1.356,1.356,0,0,1-.186.689c-.077.1-.146.189-.215.277a1.35,1.35,0,0,1-.6.353l-.135.046A1.1,1.1,0,0,1,18.259,66.111Zm109.25-.555a1.872,1.872,0,0,1-.943-3.487,1.868,1.868,0,0,1,1.887,0l.029.013a1.866,1.866,0,0,1,.666.666,1.856,1.856,0,0,1,0,1.872,1.87,1.87,0,0,1-.666.666.121.121,0,0,1-.023.012l-.006,0A1.883,1.883,0,0,1,127.509,65.556ZM40.332,63.072H40.28a1.787,1.787,0,0,1-1.223-.492c-.025-.028-.05-.058-.074-.087l-.038-.044-.264-.3a1.62,1.62,0,0,1-.416-.717c-.02-.136-.038-.273-.055-.4l0-.029a1.627,1.627,0,0,1,1.567-1.624h.11a1.192,1.192,0,0,1,.572.143,1.235,1.235,0,0,1,.524.336l.309.258.089.073.043.037a1.688,1.688,0,0,1,.429.737c.025.164.046.323.063.486a1.618,1.618,0,0,1-.477,1.156,1.252,1.252,0,0,1-.526.338A1.233,1.233,0,0,1,40.332,63.072ZM29.109,58.328a1.569,1.569,0,0,1-1.234-.532,1.876,1.876,0,0,1,0-2.344,1.7,1.7,0,0,1,2.468,0,1.874,1.874,0,0,1,0,2.344A1.569,1.569,0,0,1,29.109,58.328Zm110.6-4.143h-.062a2.025,2.025,0,0,1-1.02-.277l-.118-.091,0,0h0c-.093-.072-.19-.147-.285-.219a2.035,2.035,0,0,1-.494-.814L137.7,52.7l-.074-.539a2.1,2.1,0,0,1,1.952-2.022h.069a2.018,2.018,0,0,1,1.019.277l.41.315a2.067,2.067,0,0,1,.52.892c.021.163.045.353.072.537a2.271,2.271,0,0,1-.592,1.431,2.318,2.318,0,0,1-1.366.593ZM129.635,46.6a1.485,1.485,0,0,1-.958-.418l-.057-.053h0c-.032-.03-.065-.06-.1-.089a1.234,1.234,0,0,1-.357-.862,1.371,1.371,0,0,1,.357-.862c.037-.032.073-.066.109-.1l.048-.044a1.53,1.53,0,0,1,1-.416h.042a1.6,1.6,0,0,1,.964.417,1.371,1.371,0,0,1,0,2.012,1.434,1.434,0,0,1-.627.366l-.378.051ZM28.287,42.521a2.2,2.2,0,0,1-1.105-.3l-.443-.342a1.661,1.661,0,0,1-.454-.706,1.643,1.643,0,0,1-.189-.77v-.075a.471.471,0,0,1,0-.055c.02-.159.042-.321.064-.477v0l.016-.115a1.692,1.692,0,0,1,.4-.763.719.719,0,0,1,.2-.252,2.248,2.248,0,0,1,.989-.577c.152-.019.307-.04.457-.061h.008l.131-.018a2.245,2.245,0,0,1,1.059.267l.071.039.452.351a1.686,1.686,0,0,1,.465.721,2.035,2.035,0,0,1,0,1.727,1.656,1.656,0,0,1-.465.721,1.316,1.316,0,0,1-.477.383c-.143.059-.289.121-.419.176l-.118.05a2.5,2.5,0,0,1-.622.081Zm98.225-6.965h-.051a1.551,1.551,0,0,1-.794-.216l-.319-.245a1.577,1.577,0,0,1-.384-.629l-.02-.066-.057-.419a1.17,1.17,0,0,1,.135-.606,1.412,1.412,0,0,1,.833-.833,1.173,1.173,0,0,1,.542-.136h.064a1.569,1.569,0,0,1,.795.213l.319.247a1.56,1.56,0,0,1,.406.7l.057.418a1.77,1.77,0,0,1-.463,1.114,1.788,1.788,0,0,1-1.062.462Zm-85.644-.784-.076,0a2.307,2.307,0,0,1-1.175-.317l-.162-.126h0c-.1-.078-.2-.158-.308-.237a2.375,2.375,0,0,1-.6-1.027l-.083-.619a2.6,2.6,0,0,1,.681-1.644,1.736,1.736,0,0,1,.75-.482,1.761,1.761,0,0,1,.822-.2h.074a2.332,2.332,0,0,1,1.175.319l.053.041c.136.1.276.213.416.323a2.335,2.335,0,0,1,.6,1.027l.082.617a2.595,2.595,0,0,1-.682,1.646,2.648,2.648,0,0,1-1.568.682ZM119.161,28.6a1.661,1.661,0,0,1-.5-.079c-.168-.073-.342-.145-.51-.215h0l0,0-.055-.032a2.131,2.131,0,0,1,0-3.68.346.346,0,0,0,.038-.02l.017-.01a1.616,1.616,0,0,1,.805-.258,1.106,1.106,0,0,1,.577,0,1.615,1.615,0,0,1,.805.258l.437.338a.162.162,0,0,1,.019.021,2.145,2.145,0,0,1,.549.943l.076.569a2.43,2.43,0,0,1-.575,1.462l-.07.068a1.624,1.624,0,0,1-.7.448,1.064,1.064,0,0,1-.547.148A1.637,1.637,0,0,1,119.161,28.6Z" transform="translate(9.93 0.653)"/>
  </g>
  <g id="HEAD" transform="translate(78.592 38.043)">
    <path id="_Skin-2" data-name="âœ‹ Skin" d="M36.094.016C67.825,1.023,69.739,16.133,69.739,41.473S53.278,82.78,47.217,85.568,25.2,100.333,10.793,94.814.561,65.978.561,55.96,4.362-.991,36.094.016Z" transform="translate(18.78 22.212)" fill="#d08b5b"/>
    <path id="_hijab" data-name="ðŸ§• hijab" d="M0,39.279Q9.841-.951,35.932.023C62.022,1,61.747,27.656,60.11,25.225q-1.6-2.382-22.461-16.643L36.789,8Z" transform="translate(24.203 23.163)" fill="#9fd8e5"/>
    <path id="_Ink-2" data-name="ðŸ– Ink" d="M54.8,132.436c-4.425,0-8.639-1.7-12.177-3.365-6.31-2.965-12.6-6.276-18.685-9.477l0,0c-1.869-.984-3.8-2-5.705-2.992-4.726-2.46-8.59-4.489-12.158-6.385-.337-.179-.779-.419-1.214-.693H4.747l-.234,0c-.271,0-.55.017-.845.034s-.608.036-.91.036a4,4,0,0,1-1.216-.155A2.15,2.15,0,0,1,.1,107.979,2.544,2.544,0,0,1,0,107.111a3.829,3.829,0,0,1,.544-1.69,12.89,12.89,0,0,1,2.861-2.992l.2-.171c1.226-1.037,2.489-1.965,3.564-2.736.5-.359,1.013-.72,1.509-1.069.9-.632,1.826-1.286,2.718-1.956l.033-.051c.064-.1.129-.2.192-.3a16.862,16.862,0,0,0,2.439-7.317,24.231,24.231,0,0,1-1.429-1.978A51.59,51.59,0,0,1,7,74.665,65.8,65.8,0,0,1,4.272,61.494a60.61,60.61,0,0,1,.08-13.348A56.114,56.114,0,0,1,12.46,24.863a57.463,57.463,0,0,1,7-9.117A54.614,54.614,0,0,1,28.141,8.26,50.086,50.086,0,0,1,38.233,2.855,41.653,41.653,0,0,1,45.462.735,38.926,38.926,0,0,1,52.933,0a36.311,36.311,0,0,1,6.813.64,34.194,34.194,0,0,1,5.573,1.574A36.858,36.858,0,0,1,70.6,4.694a37.868,37.868,0,0,1,4.834,3.274,36.8,36.8,0,0,1,4.237,3.956,41.3,41.3,0,0,1,3.106,3.849,45.059,45.059,0,0,1,2.631,4.163,53.319,53.319,0,0,1,3.962,9.047,75.982,75.982,0,0,1,3.59,19.441,74.758,74.758,0,0,1-2.6,25.1,73.221,73.221,0,0,1-4.3,11.345A80.723,80.723,0,0,1,80.007,95.42c.218.327.458.676.78,1.129,1.072,1.5,2.216,3.128,3.32,4.815a33.449,33.449,0,0,1,2.623,4.657,16.76,16.76,0,0,1,1.446,5.086,13.37,13.37,0,0,1,.076,1.75,2.53,2.53,0,0,1-.767,1.7,2.419,2.419,0,0,1-1.674.747,1.923,1.923,0,0,1-1.147-.38,5.256,5.256,0,0,0-3.188-1.018,9.474,9.474,0,0,0-2.989.562c-1.107,1.406-2.255,2.817-3.411,4.193-1.56,1.855-2.973,3.52-4.48,5.124A43.193,43.193,0,0,1,65.61,128.4a20.507,20.507,0,0,1-5.063,2.929,15.744,15.744,0,0,1-5.724,1.11Zm-31.17-30.574a.809.809,0,0,0-.538.211.972.972,0,0,0-.3.489.739.739,0,0,0,.394.868,34.029,34.029,0,0,0,6.3,2.58,53.681,53.681,0,0,0,6.647,1.523.969.969,0,0,0,.161.014.93.93,0,0,0,.894-.87.684.684,0,0,0-.607-.774,54.1,54.1,0,0,1-6.44-1.454,32.2,32.2,0,0,1-6.109-2.478A.855.855,0,0,0,23.627,101.861Zm6.21-6.929a.944.944,0,0,0-.845.593.732.732,0,0,0,.213.833,29.961,29.961,0,0,0,4.2,3.207,34.316,34.316,0,0,0,4.648,2.46,43.605,43.605,0,0,0,10.109,2.95.968.968,0,0,0,.162.014.845.845,0,0,0,.627-.274,1.007,1.007,0,0,0,.266-.595.685.685,0,0,0-.607-.776,43.029,43.029,0,0,1-9.707-2.787,32.55,32.55,0,0,1-4.47-2.332,27.945,27.945,0,0,1-4.03-3.064A.823.823,0,0,0,29.837,94.933ZM60.905,24.317l-.415.339-.027.022-.4.324c-.685.56-1.372,1.125-2.037,1.672h0c-1,.822-2.033,1.672-3.055,2.5-3.648,2.957-7.253,5.973-9.987,8.27-5.342,4.489-12.393,10.4-19.556,16.305a33.277,33.277,0,0,0-.629,6.693,40.512,40.512,0,0,0,.608,6.7,43.43,43.43,0,0,0,1.91,7.118c.9,2.54,1.971,4.979,2.8,6.82,1.412,1.324,2.612,2.4,3.774,3.379,1.382,1.166,2.7,2.185,4.018,3.116a39.263,39.263,0,0,0,10.431,5.4,26.42,26.42,0,0,0,8.217,1.363,22.243,22.243,0,0,0,5.395-.652,21,21,0,0,0,5.156-2.046,27.078,27.078,0,0,0,6.724-5.4A35.127,35.127,0,0,0,78.8,79.159c2.835-5.275,4.4-11.406,4.782-18.743a85.893,85.893,0,0,0-.106-9.855c-.217-3.475-.582-6.891-.91-9.773a.978.978,0,0,1-.138.01,1.112,1.112,0,0,1-.286-.039,4.659,4.659,0,0,1-2.071-1.6c-.185-.207-.359-.4-.539-.583-.853-.862-1.726-1.7-2.593-2.488-1.655-1.505-3.433-2.975-5.285-4.368-1.832-1.376-3.772-2.659-5.648-3.9C64.318,26.7,62.568,25.538,60.905,24.317Zm.805-3.982a20.93,20.93,0,0,0-3.238.278,21.732,21.732,0,0,0-3.113.757,25.531,25.531,0,0,0-5.847,2.788c-1.758,1.119-3.565,2.4-5.372,3.8C42.5,29.242,40.8,30.668,39.1,32.2a61.241,61.241,0,0,0-4.419,4.385,46.994,46.994,0,0,0-3.872,4.866,37.094,37.094,0,0,0-3.086,5.366A31.2,31.2,0,0,0,25.66,52.7l-.014.059c-.028.12-.058.243-.085.366C31.3,47.494,37.4,41.786,43.7,36.159c1.923-1.718,3.884-3.457,5.781-5.138l0,0,0,0c1.273-1.129,2.589-2.3,3.882-3.446,1.461-1.3,2.965-2.6,4.42-3.852l.535-.461.591-.51.005,0c.62-.535,1.26-1.088,1.892-1.629.108-.093.217-.19.323-.284h0C61.322,20.663,61.515,20.493,61.71,20.336Zm2.865.173a1.054,1.054,0,0,1-.044.184,3.235,3.235,0,0,1-.705,1.165,9.127,9.127,0,0,1-1.016.907l0,0-.19.154c-.284.23-.568.463-.812.664A28.8,28.8,0,0,1,67.7,26.106a52.337,52.337,0,0,1,5.4,3.5,65.488,65.488,0,0,1,5.673,4.645c.876.8,1.747,1.639,2.589,2.494.133.134.276.27.427.414h0c.135.128.274.26.411.4l-.023-.2,0-.024-.037-.318a1.386,1.386,0,0,1,.272-.976,21.623,21.623,0,0,0-2.582-5.731,21.909,21.909,0,0,0-4.04-4.7A21.571,21.571,0,0,0,70.6,22.248,20.857,20.857,0,0,0,64.575,20.509Z" transform="translate(0.632 7.82)"/>
  </g>
  <g id="FACE" transform="translate(112.183 77.354)">
    <path id="_Ink-3" data-name="ðŸ– Ink" d="M22.244,39.478a8.048,8.048,0,0,1-4.461-1.32,8.5,8.5,0,0,1-1.845-1.594,6.678,6.678,0,0,1-1.125-1.8,5.1,5.1,0,0,1-.4-2.041.63.63,0,0,1,.149-.4.7.7,0,0,1,.373-.224.72.72,0,0,1,.164-.019.662.662,0,0,1,.272.057.58.58,0,0,1,.287.283c.134.176.31.406.488.629a12.266,12.266,0,0,0,2.025,2.073,6.268,6.268,0,0,0,2.519,1.185,5.392,5.392,0,0,0,1.158.126A5.665,5.665,0,0,0,23.8,36.08a6.648,6.648,0,0,0,2.736-1.923,1.469,1.469,0,0,1,1.118-.553h.01a1.719,1.719,0,0,1,1.189.527,1.856,1.856,0,0,1,.555,1.211,1.62,1.62,0,0,1-.46,1.19,9.216,9.216,0,0,1-1.939,1.581,9.384,9.384,0,0,1-2.284,1.009A8.921,8.921,0,0,1,22.244,39.478Zm2.516-11.755h0a7.374,7.374,0,0,1-2.63-.53,13.282,13.282,0,0,1-3.093-1.756,1.189,1.189,0,0,1-.432-.687,1.423,1.423,0,0,1,.061-.771,1.754,1.754,0,0,1,.521-.753A1.267,1.267,0,0,1,20,22.909a1.151,1.151,0,0,1,.628.193l.2.158.007.005a16.742,16.742,0,0,0,1.936,1.347,4.768,4.768,0,0,0,2.32.74,2.505,2.505,0,0,0,.981-.193,2.74,2.74,0,0,0,.913-.647,2.8,2.8,0,0,0,.531-2.255,4.261,4.261,0,0,0-1.13-2,8.241,8.241,0,0,0-1.711-1.381.531.531,0,0,1-.144-.61.8.8,0,0,1,.264-.38.809.809,0,0,1,.5-.167,1.075,1.075,0,0,1,.182.016,5.736,5.736,0,0,1,2.018.729,4.578,4.578,0,0,1,1.357,1.252,4.974,4.974,0,0,1,.866,3.322,5.475,5.475,0,0,1-.444,1.744,5.087,5.087,0,0,1-1,1.5A4.779,4.779,0,0,1,24.761,27.723ZM4.538,19.6a1.01,1.01,0,0,1-.293-.043.6.6,0,0,1-.4-.346,4.916,4.916,0,0,1,.246-3.7,8.676,8.676,0,0,1,1.3-2.139,5.356,5.356,0,0,1,1.4-1.257,4.694,4.694,0,0,1,2.227-.574,4.459,4.459,0,0,1,2.147.554,5.586,5.586,0,0,1,1.483,1.22A15.376,15.376,0,0,1,13.8,14.842c.151.221.308.449.468.671a1.35,1.35,0,0,1,.227,1.255,1.623,1.623,0,0,1-.921.951,1.762,1.762,0,0,1-.679.139,1.548,1.548,0,0,1-.605-.12,1.627,1.627,0,0,1-.873-.922,6.293,6.293,0,0,0-.678-1.232,3.7,3.7,0,0,0-.986-.977,1.777,1.777,0,0,0-1.784-.136,5.832,5.832,0,0,0-2.076,2.071,4.061,4.061,0,0,0-.681,2.419.549.549,0,0,1-.178.461.691.691,0,0,1-.385.171A.906.906,0,0,1,4.538,19.6Zm30.625-2.984a1.319,1.319,0,0,1-.381-.061,1.44,1.44,0,0,1-.595-.356,1.185,1.185,0,0,1-.331-.6A2.452,2.452,0,0,0,33,14.168a1.717,1.717,0,0,0-1.373-.361,2.637,2.637,0,0,0-1.477.886,3.246,3.246,0,0,0-.31.452l-.009.015a3.3,3.3,0,0,1-.613.806.6.6,0,0,1-.38.143.567.567,0,0,1-.169-.026,2.41,2.41,0,0,1-.545-.763,1.5,1.5,0,0,1-.109-.658,2.607,2.607,0,0,1,.479-1.32,5.132,5.132,0,0,1,1.324-1.294,4.411,4.411,0,0,1,1.465-.69,3.955,3.955,0,0,1,.83-.088,4.234,4.234,0,0,1,2.435.793,4.626,4.626,0,0,1,1.891,2.9,1.541,1.541,0,0,1-.077.855,1.2,1.2,0,0,1-.559.622A1.329,1.329,0,0,1,35.163,16.616ZM.725,10.978l-.046,0a.429.429,0,0,1-.223-.108A1.623,1.623,0,0,1,0,9.53,5.784,5.784,0,0,1,.588,7.284a14.358,14.358,0,0,1,1.132-1.9A9.977,9.977,0,0,1,3.17,3.733a12.553,12.553,0,0,1,4.06-2.474A8.728,8.728,0,0,1,10.125.622c.06,0,.12,0,.179,0a3.476,3.476,0,0,1,1.077.2,2.833,2.833,0,0,1,.959.6,1.781,1.781,0,0,1,.532,1.3,1.857,1.857,0,0,1-.534,1.33A2.747,2.747,0,0,1,11.2,4.72a6.6,6.6,0,0,1-1.239.221,11.267,11.267,0,0,0-1.208.178A11.345,11.345,0,0,0,5.838,6.185,10.794,10.794,0,0,0,3.1,8.124c-.178.191-.348.393-.512.589l0,.005c-.153.182-.3.354-.45.521-.171.187-.328.375-.515.6a2.556,2.556,0,0,0-.145.257c-.037.078-.073.149-.11.219-.068.128-.134.241-.195.334-.121.2-.184.253-.234.275A.524.524,0,0,1,.725,10.978Zm36.163-.464a.414.414,0,0,1-.068-.006.408.408,0,0,1-.208-.1.391.391,0,0,1-.117-.2,7.586,7.586,0,0,0-1.1-2.678,5.779,5.779,0,0,0-2.2-1.879,14.134,14.134,0,0,0-3.079-1.036c-.3-.07-.615-.117-.924-.162l-.014,0a7.8,7.8,0,0,1-1.465-.313,2.591,2.591,0,0,1-1.2-.812,2.247,2.247,0,0,1-.416-.811,2.07,2.07,0,0,1-.05-.873A1.793,1.793,0,0,1,27.014.311,2.929,2.929,0,0,1,28.373,0,8.9,8.9,0,0,1,31.64.912l.072.031h0l.239.1a10.722,10.722,0,0,1,3.739,2.5,8.084,8.084,0,0,1,1.922,3.552,4.265,4.265,0,0,1-.388,3.233.384.384,0,0,1-.175.154A.4.4,0,0,1,36.889,10.514Z" transform="translate(11.408 11.637)"/>
  </g>
  <g id="ACCESORIES" transform="translate(88.521 88.978)">
    <path id="_Ink-4" data-name="ðŸ– Ink" d="M41.577,22.794h0a11.669,11.669,0,0,1-3.909-.652A10.192,10.192,0,0,1,34.23,20.1a11.055,11.055,0,0,1-2.589-3.545,16.068,16.068,0,0,1-1.366-5.175A3.067,3.067,0,0,0,29.6,9.468a3.588,3.588,0,0,0-1.594-.7c-.264-.075-.562-.161-.891-.267l-.285-.058h0c-.316-.063-.643-.129-.965-.222a1.353,1.353,0,0,1-.43.076c-.453,0-.771-.281-1.21-.669a9.365,9.365,0,0,0-.741-.608A7.81,7.81,0,0,0,18.57,5.74a29.992,29.992,0,0,0-6.381.843A87.294,87.294,0,0,0,1.981,9.676c-.013.686-.363,1.165-.851,1.165A.926.926,0,0,1,.6,10.658,2.944,2.944,0,0,1,.019,9.352a1.93,1.93,0,0,1,.2-1.161c.459-.906,1.65-1.731,3.54-2.451A34.869,34.869,0,0,1,10,4.149,79.266,79.266,0,0,1,22.08,3.03c.286,0,.543,0,.765.012a6.041,6.041,0,0,1,1.659-.29,2.384,2.384,0,0,1,.884.153,13.773,13.773,0,0,1,5.352-2,42.048,42.048,0,0,1,8.3-.813A38.26,38.26,0,0,1,43.2.31a27.071,27.071,0,0,1,3.9.7,16.134,16.134,0,0,1,3.349,1.254,8.8,8.8,0,0,1,2.5,1.876,8.69,8.69,0,0,0,2.647.412,11.1,11.1,0,0,0,3.634-.674,35.422,35.422,0,0,0,3.474-1.488A29.981,29.981,0,0,1,66.932.657c.411-.092,1.506-.255,2.938-.4C71.089.142,72.96,0,74.951,0a22.09,22.09,0,0,1,5.911.638c1.821.528,2.8,1.378,2.9,2.526a4.8,4.8,0,0,1,.151,1.66A4.052,4.052,0,0,1,83.5,6.679a.536.536,0,0,1-.442.289.784.784,0,0,1-.482-.219,6.186,6.186,0,0,0-1.269,1.284,7.656,7.656,0,0,0-.856,1.509,20.8,20.8,0,0,0-1.029,3.41,13.615,13.615,0,0,1-2.038,5.2,6.408,6.408,0,0,1-2.514,2.081,8.027,8.027,0,0,1-3.432.755,9.162,9.162,0,0,1-6.609-2.926,12.849,12.849,0,0,1-2.544-3.969,20.8,20.8,0,0,1-1.426-5.916A5.183,5.183,0,0,0,58.9,7.808a12.058,12.058,0,0,0-2.12.251,14.942,14.942,0,0,1-1.82.249,12.372,12.372,0,0,1-.437,5.4,12.077,12.077,0,0,1-2.455,4.326,13.5,13.5,0,0,1-2.206,2.012,14.388,14.388,0,0,1-2.577,1.494A14.053,14.053,0,0,1,41.577,22.794ZM43.16,4.186a17.579,17.579,0,0,0-5.908.913,9.319,9.319,0,0,0-4.59,3.316,4.2,4.2,0,0,0-.468,3.572A19.963,19.963,0,0,0,33.481,15.3a12.679,12.679,0,0,0,1.9,2.829A7.855,7.855,0,0,0,41.4,20.838a11.3,11.3,0,0,0,3.022-.444A11.8,11.8,0,0,0,50.16,16.76a11.1,11.1,0,0,0,1.828-2.882,9.665,9.665,0,0,0,.793-3.309,7.576,7.576,0,0,0-.375-2.839,5.875,5.875,0,0,0-1.5-2.377,25.051,25.051,0,0,0-3.533-.822A26.68,26.68,0,0,0,43.16,4.186ZM72.619,2.83a7.7,7.7,0,0,0-2.005.266,9.857,9.857,0,0,0-4.426,2.552,9.4,9.4,0,0,0-1.635,2.22,10.132,10.132,0,0,0-.992,2.851,6.959,6.959,0,0,0,.135,2.7,5.233,5.233,0,0,0,.941,2.176,11.739,11.739,0,0,0,3.294,2.476,9.22,9.22,0,0,0,4.12,1.108,5.282,5.282,0,0,0,2.312-.5,6.217,6.217,0,0,0,2.094-1.88,10.527,10.527,0,0,0,1.323-2.609,29.9,29.9,0,0,0,1.233-5.669A3.957,3.957,0,0,0,78.851,6.7a4.7,4.7,0,0,0-.926-1.6,6.416,6.416,0,0,0-2.287-1.646A7.606,7.606,0,0,0,72.619,2.83Z" transform="translate(0.212 3.804)"/>
  </g>
</svg>
