<svg id="peep-19" xmlns="http://www.w3.org/2000/svg" width="240" height="324" viewBox="0 0 240 324">
  <g id="BODY" transform="translate(31.056 135.053)">
    <path id="_Skin" data-name="âœ‹ Skin" d="M17.631,161.246c12.936.362,25.157.762,38.068,0,20.661-1.278,81.295,1.026,94.622,0,1.006-.077,4.465,1.026,4.537,0,.586-7.145.966-79.435-.775-84.409S143.75,47.953,132.8,36.8c-3.053-3.012-7.7-4.179-10.264-7.66-2.213-3.8-2.041-6.024-4.226-8.021-.948-.867-3.184-1.218-4.846-2.421-1.671-1.661-.089-5.317-.775-7.63C111.279,5.3,106.072,1.591,100.381.718c-7.91-1.894-16.261-.1-20.05,6.113-1.41,2.314-.66,5.126-2.394,8.834.124,2.8-3.146,3.479-5.1,4.589l-3.881,3.924C57,30.908,42.93,34.543,32.452,43.586c-8.908,9.04-17.768,19.489-21.72,31.72A72.809,72.809,0,0,0,9.308,85.488C8.34,95.44,5.644,105.1,3.324,114.794.679,127.007-1.786,139.973,1.778,152.3,2.806,154.911,15.291,161.124,17.631,161.246Z" transform="translate(2.815 -11.413)" fill="#d08b5b"/>
    <path id="Path" d="M77.951,0l1.01.108V7.89L92.172,21.638,94.586,24.4q-2.159,7.7,4.348,7.7c6.507,0,1.476-1.891,2.7-4.451l.052-.1q1.33-2.629,9.106-11.152l5.946-9.943V4.633l.2.082a4.814,4.814,0,0,1,1.375.773c2.185,2,2.013,4.225,4.226,8.021,2.566,3.481,7.211,4.648,10.264,7.66,10.948,11.15,19.54,35.06,21.28,40.034s1.361,77.264.775,84.409c-.072,1.026-3.531-.077-4.537,0-13.328,1.026-73.961-1.278-94.622,0-12.911.762-25.132.362-38.068,0-2.34-.122-14.824-6.335-15.852-8.945-3.565-12.329-1.1-25.295,1.546-37.508l.229-.953C5.78,88.991,8.285,79.8,9.259,70.344l.049-.489a72.809,72.809,0,0,1,1.424-10.183c3.952-12.231,12.813-22.68,21.72-31.72C42.825,19,56.716,15.348,68.6,8.745l.359-.2L72.836,4.62l.119-.066c1.965-1.072,5.1-1.777,4.982-4.523L77.951,0Z" transform="translate(2.747 4.225)" fill="#fdea6b"/>
    <path id="_Ink" data-name="ðŸ– Ink" d="M23.716,154.549c-1.768,0-3.338-.057-4.8-.173A35.1,35.1,0,0,1,13.7,153.6a20.615,20.615,0,0,1-4.945-1.8A14.327,14.327,0,0,1,5.042,149c.252-.147.51-.295.759-.438l.014-.008c.811-.466,1.65-.948,2.447-1.469a.838.838,0,0,0,.35-.447.874.874,0,0,0,0-.515.843.843,0,0,0-.765-.638.794.794,0,0,0-.437.141c-.793.52-1.629,1-2.437,1.463-.34.2-.691.4-1.034.6a15.679,15.679,0,0,1-2.053-3.709A27.419,27.419,0,0,1,.463,137.33,64.393,64.393,0,0,1,0,129.358,112.81,112.81,0,0,1,1.411,112.64c.827-5.573,1.942-11.115,2.924-15.8l.15-.715c.212-1.007.425-2.032.632-3.023l0-.019C5.969,89.01,6.846,84.8,7.844,80.688c1.241-5.111,2.568-9.71,4.058-14.059.6.373,1.229.733,1.835,1.08.807.463,1.641.942,2.433,1.46a.793.793,0,0,0,.437.141.843.843,0,0,0,.765-.639.874.874,0,0,0,0-.515.828.828,0,0,0-.351-.447c-.794-.52-1.629-1-2.437-1.464h0c-.7-.4-1.419-.816-2.11-1.254.907-2.537,1.882-5,2.9-7.32,1.074-2.456,2.231-4.838,3.437-7.081a75.752,75.752,0,0,1,8.8-13.014A65.6,65.6,0,0,1,33.016,31.9a59.858,59.858,0,0,1,12.855-9.134,59.365,59.365,0,0,1,7.244-3.229,54.228,54.228,0,0,1,7.719-2.189,64.151,64.151,0,0,1,7.946-1.108H68.8a.2.2,0,0,1,.144.062.274.274,0,0,1,.07.2l0,.024.211.034a3.712,3.712,0,0,1,.545-1.515,7.816,7.816,0,0,1,2.6-2.129c.167-.1.324-.2.479-.293l.25-.156a12.148,12.148,0,0,1,4.045-1.82h.011a.051.051,0,0,1,.047.029.053.053,0,0,1-.01.057,17.421,17.421,0,0,1-2.409,2.151c-.3.239-.617.486-.917.734l-.26.217c-.111.091-.224.182-.345.278-.891.712-1.9,1.52-1.932,2.656a20.878,20.878,0,0,0,.212,2.97v0c.064.54.131,1.1.171,1.638.114,1.529.191,3.053.23,4.529a141.3,141.3,0,0,1-.509,16.245l2.121-1.421c3.36-2.25,6.652-4.439,9.993-6.484a18.672,18.672,0,0,1,3.17-1.6,9.762,9.762,0,0,1,3.463-.679l.162,0a8.766,8.766,0,0,1,2.206.323c-.46-.436-.915-.894-1.354-1.336-.326-.328-.663-.667-1-.993l-.019-.018c-1.26-1.227-2.563-2.5-3.854-3.752L82.6,22.565l-3.723-3.627c-.131-.128-.267-.257-.4-.382l0,0a9.629,9.629,0,0,1-1.421-1.558,3.418,3.418,0,0,1-.441-.916A2.97,2.97,0,0,1,76.489,15a10.867,10.867,0,0,1,.91-3.15c.137-.343.278-.7.4-1.041.066-.186.129-.376.192-.583.487-1.62.877-3.3,1.255-4.915.392-1.682.8-3.421,1.31-5.1A.276.276,0,0,1,80.826,0a.32.32,0,0,1,.316.291,27.737,27.737,0,0,1,.032,4.85c-.116,1.645-.323,3.266-.524,4.834-.062.485-.116.982-.168,1.463-.114,1.048-.232,2.131-.434,3.161-.035.15-.072.313-.108.484a1.6,1.6,0,0,0,.357.358c.063.052.121.1.165.142l.6.58,1.2,1.157,3.814,3.7.022.021,3.18,3.082L92.7,27.449c.353.342.725.684,1.085,1.016a24.469,24.469,0,0,1,2.462,2.491,2.076,2.076,0,0,1,.484,1.121,1.662,1.662,0,0,1-.349,1.157,1.884,1.884,0,0,1-1.259.687,2.911,2.911,0,0,1,.439.918,1.054,1.054,0,0,1-.2.908.954.954,0,0,1-.75.405.835.835,0,0,1-.3-.058,8.2,8.2,0,0,1-1.112-.562,7,7,0,0,0-1.3-.626,5.584,5.584,0,0,0-1.731-.269,5.975,5.975,0,0,0-.988.083,8.206,8.206,0,0,0-1.215.3,35.759,35.759,0,0,0,6.569,2.282,34.614,34.614,0,0,0,6.9.943c.332.011.667.017.994.017.623,0,1.245-.021,1.85-.061A26.556,26.556,0,0,0,109,37.471a28.746,28.746,0,0,0,3.6-1.156,18.334,18.334,0,0,0,1.692-.765l.048-.029.183-.107.007,0a15.78,15.78,0,0,0,2.269-1.464.564.564,0,0,0-.035-.434.746.746,0,0,0-.282-.288,5.822,5.822,0,0,0-2.219-.591h-.021c-1.607,0-3.348,1.075-4.747,1.939l-.435.267c-1.071.652-2.1,1.389-3.1,2.1l0,0c-.511.365-1.039.743-1.567,1.105a.2.2,0,0,1-.114.036.259.259,0,0,1-.218-.14.211.211,0,0,1,.007-.222,14.789,14.789,0,0,1,1.929-2.275,23.8,23.8,0,0,1,2.274-1.938l.636-.477a22.576,22.576,0,0,1,2.329-1.573,7.468,7.468,0,0,1,2.563-.959,4.58,4.58,0,0,1,.665-.048,7.087,7.087,0,0,1,2.263.427c.749.253,1.484.586,2.194.907h0c.416.188.81.366,1.2.524l3.4,1.393c.235.1.482.188.722.277h0c.383.143.779.29,1.153.462l-1.425-4.461c-.636-1.993-1.386-4.348-2.126-6.7l-.137-.437c-.085-.274-.17-.555-.253-.827l0-.009a29.153,29.153,0,0,0-2.255-5.86c-.249-.443-.534-.869-.81-1.282l-.021-.031-.082-.123a4.782,4.782,0,0,1-.329-.606,3.162,3.162,0,0,0-.533-.857,6.807,6.807,0,0,0-3.1-1.7.217.217,0,0,1-.169-.233.261.261,0,0,1,.233-.234,5.268,5.268,0,0,1,.55-.029,6.361,6.361,0,0,1,2.721.658l.43.205.115.054a7.249,7.249,0,0,1,2.543,1.67,12.988,12.988,0,0,1,1.978,3.15,34.528,34.528,0,0,1,1.329,3.5l.211.633a.306.306,0,0,1,.091-.01,7.292,7.292,0,0,1,1.329.285,8.45,8.45,0,0,1,1.137.386,32.38,32.38,0,0,1,5.327,2.877,36.089,36.089,0,0,1,4.694,3.744,45.4,45.4,0,0,1,7.554,9.444,63,63,0,0,1,5.593,12.09c1.609,4.585,2.809,9.268,3.675,12.837.627,2.582,1.25,5.272,1.854,7.994-.918.354-1.872.653-2.795.943a25.028,25.028,0,0,0-5.121,2.036.769.769,0,0,0-.379.9.886.886,0,0,0,.811.676.836.836,0,0,0,.421-.12,23.339,23.339,0,0,1,4.834-1.911c.856-.266,1.741-.542,2.593-.866,1.394,6.419,2.584,12.693,3.538,18.648.787,4.906,1.486,9.76,2.079,14.427.625,4.922,1.152,9.8,1.567,14.51.435,4.931.76,9.83.967,14.559.216,4.931.31,9.835.28,14.574a2.783,2.783,0,0,1-.363,1.321.732.732,0,0,0,.307-.245,1.074,1.074,0,0,1,.925-.526,1.265,1.265,0,0,1,1.087.629.985.985,0,0,1-.062,1.038l-.114.178a7.773,7.773,0,0,1-.918,1.2,4.428,4.428,0,0,1-1.253.908,5.618,5.618,0,0,1-1.619.5,12.862,12.862,0,0,1-1.7.134c-3.542.093-7.377.165-11.726.218-.2-1.587-.364-3.207-.519-4.773h0c-.254-2.563-.516-5.213-.974-7.794a.686.686,0,0,0-.707-.611.99.99,0,0,0-.74.346.846.846,0,0,0-.183.714c.459,2.582.721,5.233.975,7.8h0c.141,1.424.287,2.9.465,4.342-6.664.072-13.439.087-19.992.1l-5.086.012c-4.033.012-8.282.017-13.372.017-4.224,0-8.514,0-12.664-.008H96.04l-7.892-.006-4.852,0c-13.131,0-26.331-.043-39.232-.129l-3.11-.022c-.669-3.943-1.161-7.538-1.506-10.99-.389-3.9-.582-7.522-.589-11.079a.78.78,0,0,0-.266-.612.891.891,0,0,0-.582-.2.879.879,0,0,0-.622.243.789.789,0,0,0-.221.574c.007,3.554.2,7.175.583,11.071.341,3.456.829,7.05,1.491,10.988-.69,0-1.327,0-1.948,0-2.853,0-5.186.036-7.34.112l-1.576.056C26.988,154.5,25.346,154.549,23.716,154.549ZM128.1,141.609a.921.921,0,0,0-.818.574.77.77,0,0,0,.186.87l.407.406a10.456,10.456,0,0,1,1.826,2.218l.069.127a.73.73,0,0,0,.66.423.955.955,0,0,0,.787-.456.808.808,0,0,0,.012-.82,12.686,12.686,0,0,0-2.4-2.925l-.168-.168A.79.79,0,0,0,128.1,141.609Zm-36.055-.32a19.148,19.148,0,0,0-3.632.351.736.736,0,0,0-.489.3.758.758,0,0,0-.117.5.9.9,0,0,0,.874.846.965.965,0,0,0,.18-.018,16.642,16.642,0,0,1,6.365,0,.963.963,0,0,0,.18.017.828.828,0,0,0,.611-.265,1,1,0,0,0,.264-.581.756.756,0,0,0-.117-.5.737.737,0,0,0-.489-.3A19.148,19.148,0,0,0,92.045,141.29Zm-29.7-16.722a.85.85,0,0,0-.816.783.832.832,0,0,0,.1.533.777.777,0,0,0,.49.344l.519.13a14.693,14.693,0,0,0,3.556.542,7.916,7.916,0,0,0,1.728-.185.756.756,0,0,0,.49-.321.8.8,0,0,0,.111-.518.981.981,0,0,0-.259-.562.8.8,0,0,0-.587-.253.931.931,0,0,0-.163.015l-.042.008a6.067,6.067,0,0,1-1.325.141,13.384,13.384,0,0,1-3.311-.56l-.269-.068a.928.928,0,0,0-.228-.029Zm58.448-11.2a.855.855,0,0,0-.5.168.961.961,0,0,0-.329.412.757.757,0,0,0,.2.858,5.231,5.231,0,0,0,3.518,1.709h.029a.751.751,0,0,0,.578-.242.86.86,0,0,0,.208-.544.925.925,0,0,0-.18-.595.788.788,0,0,0-.587-.308l-.048,0a2.641,2.641,0,0,1-1.27-.381,5.4,5.4,0,0,1-1.053-.832A.8.8,0,0,0,120.8,113.372Zm-99.365-5.83h0a.878.878,0,0,0-.395.1L15.2,110.561a.713.713,0,0,0-.407.837.931.931,0,0,0,.865.721.878.878,0,0,0,.4-.1l5.841-2.922a.712.712,0,0,0,.407-.836.931.931,0,0,0-.865-.721Zm115.852,1.93a.749.749,0,0,0-.586.251.867.867,0,0,0-.2.558.915.915,0,0,0,.2.6.8.8,0,0,0,.616.287,7.419,7.419,0,0,1,2.981.858.886.886,0,0,0,.389.093.938.938,0,0,0,.876-.73.7.7,0,0,0-.411-.824,12.757,12.757,0,0,0-1.862-.747,7.439,7.439,0,0,0-1.971-.342ZM82.323,99.7h0a.779.779,0,0,0-.441.147c-.673.457-1.321.968-1.949,1.462-.522.411-1.062.836-1.612,1.228l-.333.232a.849.849,0,0,0-.346.458.9.9,0,0,0,.007.522.834.834,0,0,0,.751.627.78.78,0,0,0,.441-.147c.672-.457,1.32-.967,1.946-1.46h0c.627-.494,1.275-1,1.947-1.461a.849.849,0,0,0,.346-.458.9.9,0,0,0-.007-.522.834.834,0,0,0-.751-.627Zm63.936-8.993a5.611,5.611,0,0,1,2.214.331l.1.043a.893.893,0,0,0,.382.089.879.879,0,0,0,.577-.225.974.974,0,0,0,.31-.513.691.691,0,0,0-.416-.81,8.6,8.6,0,0,0-3.834-.6.778.778,0,0,0-.612.264.889.889,0,0,0-.2.581.8.8,0,0,0,.816.845h.671Zm-94.55-4.633a.861.861,0,0,0-.291.054,12.712,12.712,0,0,0-3.133,1.838h0c-.312.226-.635.459-.962.681a.849.849,0,0,0-.346.458.9.9,0,0,0,.007.522.834.834,0,0,0,.751.627.78.78,0,0,0,.44-.147c.335-.228.67-.478.994-.72a11.277,11.277,0,0,1,2.556-1.577l.142-.053a.844.844,0,0,0,.483-.417.947.947,0,0,0,.079-.582A.761.761,0,0,0,51.709,86.075ZM114.9,81.729a.871.871,0,0,0-.4.1c-.422.217-.826.478-1.217.73-.32.207-.651.42-.989.609l-.228.122a.723.723,0,0,0-.4.849.972.972,0,0,0,.3.5.829.829,0,0,0,.551.215.871.871,0,0,0,.4-.1c.421-.217.825-.478,1.215-.73.321-.207.652-.421.991-.609l.228-.122a.723.723,0,0,0,.4-.85.972.972,0,0,0-.3-.5A.829.829,0,0,0,114.9,81.729ZM88.671,66.624a.924.924,0,0,0-.825.578.76.76,0,0,0,.193.861A34.7,34.7,0,0,0,94.6,72.811l.422.254a.823.823,0,0,0,.426.126.763.763,0,0,0,.506-.2.97.97,0,0,0,.293-.468.825.825,0,0,0-.011-.5.8.8,0,0,0-.36-.422l-.619-.372c-.991-.6-2.045-1.246-3.042-1.939a23.277,23.277,0,0,1-2.808-2.257l-.174-.168A.8.8,0,0,0,88.671,66.624ZM41.892,64.25h0a.883.883,0,0,0-.69.325l-.023.029a16.688,16.688,0,0,1-2.338,2.42l-.159.136c-.078.067-.171.149-.26.228a4.2,4.2,0,0,1-1.868,1.179.886.886,0,0,0-.81.959.715.715,0,0,0,.725.736c.027,0,.056,0,.084,0a5.581,5.581,0,0,0,2.808-1.479l.056-.045a19.144,19.144,0,0,0,3.22-3.277.662.662,0,0,0,.1-.721.96.96,0,0,0-.849-.487Zm90.032-6.383h0a.808.808,0,0,0-.535.21l-.028.025a10.175,10.175,0,0,1-4.811,2.058c-.216.051-.439.1-.658.159a.773.773,0,0,0-.49.34.828.828,0,0,0-.105.531.853.853,0,0,0,.821.788.935.935,0,0,0,.224-.028l.861-.212a20.653,20.653,0,0,0,2.844-.877,8.067,8.067,0,0,0,2.509-1.563.742.742,0,0,0,.206-.844.942.942,0,0,0-.838-.587ZM98.856,48.6a.849.849,0,0,0-.815.782.833.833,0,0,0,.1.534.778.778,0,0,0,.491.345,26.089,26.089,0,0,1,5.152,1.863.883.883,0,0,0,.391.1.935.935,0,0,0,.871-.726.707.707,0,0,0-.41-.829,28.1,28.1,0,0,0-5.556-2.033.928.928,0,0,0-.228-.03ZM48.708,30.553h0a.706.706,0,0,0-.466.184.97.97,0,0,0-.283.441.9.9,0,0,0-.008.523.852.852,0,0,0,.345.46c.592.4,1.166.846,1.722,1.274a21.579,21.579,0,0,0,3.145,2.135.867.867,0,0,0,.4.1.825.825,0,0,0,.542-.209.975.975,0,0,0,.306-.485.723.723,0,0,0-.363-.851l-.034-.018a21.615,21.615,0,0,1-3.145-2.134c-.557-.428-1.132-.87-1.723-1.274a.777.777,0,0,0-.441-.148Zm53.77,5.43h0a1.624,1.624,0,0,1-.2-.012,1.957,1.957,0,0,1-.952-.379,1.687,1.687,0,0,1-.564-.746,1.592,1.592,0,0,1,.365-1.657,12.08,12.08,0,0,1,1.516-1.34c.336-.265.683-.539.994-.822.769-.7,1.547-1.443,2.313-2.223a53.41,53.41,0,0,0,4.316-4.965c1.423-1.867,2.612-3.575,3.634-5.22l.222-.361c.182-.3.416-.631.664-.982a13.609,13.609,0,0,0,1.3-2.095,2.969,2.969,0,0,0,.264-2.19.1.1,0,0,1,.017-.093.108.108,0,0,1,.086-.047.09.09,0,0,1,.03.005,1.572,1.572,0,0,1,.937.837,2.976,2.976,0,0,1,.031,1.877,13.978,13.978,0,0,1-.65,1.919l-.019.047-.107.272a36.685,36.685,0,0,1-3.621,6.839,57.689,57.689,0,0,1-4.878,6.381c-.76.862-1.563,1.717-2.388,2.54l-.31.307c-.139.136-.283.288-.435.449a9.837,9.837,0,0,1-1.177,1.112A2.326,2.326,0,0,1,102.479,35.983Z" transform="translate(1.901 -3.8)"/>
  </g>
  <g id="HEAD" transform="translate(78.592 38.043)">
    <path id="_Skin-2" data-name="âœ‹ Skin" d="M32.04.078C63.994-1.5,78.414,21.058,79.346,31.132c.647,6.993-3.474,15.053-3.474,21.3,0,3.19,3.9,10.037,2.082,14.686C73.918,77.468,65.371,88.952,54.48,88.952S29.415,91.972,17.381,74.7C16.252,73.077,1.97,63.865.582,55.112-2.874,33.308,9.239,1.2,32.04.078Z" transform="translate(9.154 17.394)" fill="#d08b5b"/>
    <path id="_Ink-2" data-name="ðŸ– Ink" d="M69.781,106.155a33.635,33.635,0,0,1-3.366-.189,50.96,50.96,0,0,1-8.1-1.382l-.425-.113a11.863,11.863,0,0,1-3.2-1.227A3.809,3.809,0,0,1,53.457,102a5.047,5.047,0,0,1-.623-1.648,1.249,1.249,0,0,1,.236-1.019,1.012,1.012,0,0,1,.784-.386h.135c.117,0,.242,0,.392-.014l.121-.008h.006a.067.067,0,0,1,.021,0c.037-.005.074-.014.109-.022s.067-.015.1-.02a3.849,3.849,0,0,1,.638-.054,5.037,5.037,0,0,1,1.629.3l.095.032a37.558,37.558,0,0,0,3.852,1.15c1.307.3,2.692.552,4.117.752l.137.017.042.006.021,0a.025.025,0,0,1,.013,0l.407.051c.322.038.646.072.959.106h0c.586.059,1.182.106,1.771.139.342.019.687.029,1.028.029a18.337,18.337,0,0,0,6.927-1.368,20.906,20.906,0,0,0,5.937-3.708,24.729,24.729,0,0,0,7.436-12.062,25.462,25.462,0,0,0,.815-5.229,38.536,38.536,0,0,0-.094-5.224,2.5,2.5,0,0,1-.139-.843c0-.165.009-.328.019-.48-.182-1.783-.439-3.6-.688-5.353-.221-1.562-.45-3.177-.626-4.769a89.707,89.707,0,0,1-.59-11.9,49.634,49.634,0,0,1,.527-5.852l.1-.7a6.786,6.786,0,0,1-3.307-1.684,6.78,6.78,0,0,1-3.375.908,5.977,5.977,0,0,1-3.154-.87A7.494,7.494,0,0,1,75.294,43.4a6.8,6.8,0,0,1-3.548-.951,6.162,6.162,0,0,1-1.651.842,5.806,5.806,0,0,1-1.827.3,5.637,5.637,0,0,1-1.207-.131,5.4,5.4,0,0,1-2.121-1.008,6.149,6.149,0,0,1-1.067.1c-.1,0-.2,0-.3-.008l-.094.053a6.944,6.944,0,0,1-3.234.884c-.061,0-.122,0-.183,0a8.084,8.084,0,0,1-2.65-.538,7.512,7.512,0,0,1-2.954,1.055,6.815,6.815,0,0,1-.852.053,6.515,6.515,0,0,1-3.651-1.08,9.25,9.25,0,0,1-4.584,1.2,9.515,9.515,0,0,1-3.2-.549,7.2,7.2,0,0,1-2.081,2.23,4.684,4.684,0,0,1,.147,1.674,6.825,6.825,0,0,1-.687,2.469,4.428,4.428,0,0,1,.292,2.844A7.01,7.01,0,0,1,37.608,56.5,6.912,6.912,0,0,1,34.2,62.166a2.811,2.811,0,0,1-.31.155,1.532,1.532,0,0,1-.323.326,3.765,3.765,0,0,1-2.618.93,6.275,6.275,0,0,1-2.388-.5l-.035,0h0l-.058,0h-.053a1.352,1.352,0,0,1-1.165-.55,5.456,5.456,0,0,0-.712.083,9.894,9.894,0,0,0-2.608.881,5.859,5.859,0,0,0-1.332.934,5.6,5.6,0,0,0-.961,1.2,7.7,7.7,0,0,0-.974,3.018,8.252,8.252,0,0,0,.316,3.583,6.966,6.966,0,0,0,.766,1.611,6.612,6.612,0,0,0,1.193,1.381,6.221,6.221,0,0,0,1.534.981,7.283,7.283,0,0,0,1.74.537,4.987,4.987,0,0,0,.87.064c.136,0,.274,0,.408-.005h.007c.132,0,.269-.005.4-.005a3.708,3.708,0,0,1,1.071.124,1.936,1.936,0,0,1,.931.611.885.885,0,0,1,.221.839A1.925,1.925,0,0,1,28.4,79.8a47.811,47.811,0,0,0,3.873,4.172c.292.275.592.554.881.823l.011.01a47.064,47.064,0,0,1,3.527,3.523A29.081,29.081,0,0,1,38.707,90.9a17.95,17.95,0,0,1,1.615,2.841c.394.884.734,1.8,1.063,2.694v0c.1.272.2.553.309.829l.079.206c.055.139.113.279.168.415a7.447,7.447,0,0,1,.538,1.66,2.666,2.666,0,0,1,0,.841,2.487,2.487,0,0,1-.316.861,2.1,2.1,0,0,1-.625.65,1.564,1.564,0,0,1-.858.291,1.087,1.087,0,0,1-.14-.009c-1.817-.233-2.4-1.5-2.926-3.007-.178-.512-.341-1.038-.5-1.547-.208-.673-.423-1.369-.676-2.04-.077-.2-.165-.414-.269-.648a3.406,3.406,0,0,1-.917.124,4.06,4.06,0,0,1-2.156-.651,7.418,7.418,0,0,1-2.989.635h-.124a7.487,7.487,0,0,1-2.007-.305,7.033,7.033,0,0,1-1.781-.815l-.051-.014-.012,0h0c-.064-.017-.131-.034-.2-.053a5.934,5.934,0,0,1-2.134.4,5.306,5.306,0,0,1-3.024-.912,5.562,5.562,0,0,1-1.244-1.168,5.465,5.465,0,0,1-.793-1.414,5.366,5.366,0,0,1-1.854-.36,4.6,4.6,0,0,1-1.583-1.019,5.032,5.032,0,0,1-.994-1.4,5.3,5.3,0,0,1-.476-1.612,5.459,5.459,0,0,1-1.57-.566,5.165,5.165,0,0,1-1.353-1.073,4.784,4.784,0,0,1-.809-1.25,5.294,5.294,0,0,1-.409-1.43,5.64,5.64,0,0,1-1.847-.921,4.82,4.82,0,0,1-1.341-1.547,4.67,4.67,0,0,1-.541-1.743,4.774,4.774,0,0,1,.141-1.732l-.077-.112a5.094,5.094,0,0,1-1.737-1.429,3.942,3.942,0,0,1-.789-2.151A4.163,4.163,0,0,1,3.656,71a4.251,4.251,0,0,1,.116-1.5,6.444,6.444,0,0,1-1.155-1.528,6.73,6.73,0,0,1-.668-1.788,6.518,6.518,0,0,1-.134-1.9,6,6,0,0,1,.446-1.86A6.537,6.537,0,0,1,.61,58.895,6.305,6.305,0,0,1,.641,56.94,5.676,5.676,0,0,1,1.3,55.095,5.647,5.647,0,0,1,.287,53.245,5.906,5.906,0,0,1,.008,51.1a7.682,7.682,0,0,1,.64-2.639,14.014,14.014,0,0,1,1.334-2.372,4.408,4.408,0,0,1-.863-1.464A4.7,4.7,0,0,1,.848,42.94a5.331,5.331,0,0,1,.608-2.29,8.658,8.658,0,0,1,1.394-1.937,6.926,6.926,0,0,1-.347-2.19,7.1,7.1,0,0,1,.338-2.137A7.327,7.327,0,0,1,5.3,30.855,4.044,4.044,0,0,1,4.8,28.13a4.387,4.387,0,0,1,1.048-2.194,8.827,8.827,0,0,1,1.882-1.6A4.019,4.019,0,0,1,7.98,21.4a5.034,5.034,0,0,1,1.266-1.637,10.323,10.323,0,0,1,1.712-1.185,4.665,4.665,0,0,1,.5-1.636,5.215,5.215,0,0,1,1.024-1.373,4.848,4.848,0,0,1,1.388-.944,3.9,3.9,0,0,1,1.592-.351,3.51,3.51,0,0,1,1.714.448,3.016,3.016,0,0,1-.083-1.452,3.674,3.674,0,0,1,.55-1.35,4.4,4.4,0,0,1,1.293-1.282,4,4,0,0,1,1.71-.624,6.459,6.459,0,0,1,1.025-1.923A7.122,7.122,0,0,1,23.245,6.6a7.213,7.213,0,0,1,4.081-1.312,6.364,6.364,0,0,1,1.5.178A6.432,6.432,0,0,1,31.2,3.493a6.814,6.814,0,0,1,2.976-.687,6.542,6.542,0,0,1,2.289.408,10.176,10.176,0,0,1,3.022-1.6,10.46,10.46,0,0,1,3.277-.516,12.28,12.28,0,0,1,3.884.652A4.83,4.83,0,0,1,48.623.421,6.873,6.873,0,0,1,51.014,0c.139,0,.279,0,.416.012a12.811,12.811,0,0,1,3.537.9,12.443,12.443,0,0,0,3.6.9c.16.007.326.011.493.011a22.777,22.777,0,0,0,2.871-.243h.005A22.734,22.734,0,0,1,64.79,1.34a9.242,9.242,0,0,1,1.48.112,7.8,7.8,0,0,1,2.315.753,5.92,5.92,0,0,1,1.885,1.5,8.684,8.684,0,0,1,2.4-.336,8.939,8.939,0,0,1,2.06.242,9.18,9.18,0,0,1,1.95.7,9.255,9.255,0,0,1,3.237,2.659,5.371,5.371,0,0,1,.823-.063,6.293,6.293,0,0,1,3.581,1.173,5.913,5.913,0,0,1,2.258,2.992,7.311,7.311,0,0,1,2.572.567,8.012,8.012,0,0,1,2.24,1.4A7.185,7.185,0,0,1,94.041,17.6a5.669,5.669,0,0,1,3.392,2.642,7.974,7.974,0,0,1,.862,4.9,4.553,4.553,0,0,1,1.906,1.9,7.376,7.376,0,0,1,.824,2.715,4.781,4.781,0,0,1,1.621,2.258,5.814,5.814,0,0,1,.249,2.852,3.277,3.277,0,0,1,1.318,1.511,4.893,4.893,0,0,1,.44,2.042c0,.376-.033.741-.063,1.1a5.4,5.4,0,0,0,.194,2.538,6.449,6.449,0,0,1,.416,1.558,4.94,4.94,0,0,1-.075,1.6l-.024.112c-.039.177-.074.354-.107.543a3.321,3.321,0,0,1,.781,1.028,5.1,5.1,0,0,1,.514,2.319,6.844,6.844,0,0,1-.45,2.335,4.661,4.661,0,0,1-.147,2.875,5.308,5.308,0,0,1,.754,1.6,5.108,5.108,0,0,1,.17,1.8,5.563,5.563,0,0,1-1.706,3.546,6.016,6.016,0,0,1-.335,2.847,6.429,6.429,0,0,1-1.568,2.427,5.008,5.008,0,0,1-.592,3.4,4.671,4.671,0,0,1-1.72,1.735,5.592,5.592,0,0,1-.273,1.928,6.178,6.178,0,0,1-1.435,2.4,5.309,5.309,0,0,1-.049,1.878,5.6,5.6,0,0,1-.681,1.762,4.977,4.977,0,0,1-2.979,2.3,2.664,2.664,0,0,1-.629.09,27.185,27.185,0,0,1-1.7,6.985,28.835,28.835,0,0,1-2.006,4.123,28.453,28.453,0,0,1-2.635,3.745,27.364,27.364,0,0,1-3.209,3.26,25.944,25.944,0,0,1-3.727,2.665,24.113,24.113,0,0,1-4.134,1.926,23.379,23.379,0,0,1-4.421,1.1A20.7,20.7,0,0,1,69.781,106.155ZM28.82,71.668a1.138,1.138,0,0,1-1.065-.691,8.16,8.16,0,0,0-1.018-1.7c-.067.094-.127.192-.2.309l-.063.107-.012.02c-.042.072-.086.145-.123.221a1.529,1.529,0,0,1-.054.194l-.007.024A1.618,1.618,0,0,1,25.217,71.2a1.016,1.016,0,0,1-.337.058,1.128,1.128,0,0,1-.717-.275,1.5,1.5,0,0,1-.451-.64,1.354,1.354,0,0,1,.2-1.276,2.67,2.67,0,0,1,1.069-.852,2.406,2.406,0,0,0-2.18.765.115.115,0,0,1-.086.039.137.137,0,0,1-.133-.13,1.939,1.939,0,0,1,.222-1,2.421,2.421,0,0,1,.654-.77,3.511,3.511,0,0,1,1.922-.719c.066,0,.133-.005.2-.005a3.716,3.716,0,0,1,1.408.283,5.076,5.076,0,0,1,1.229.736,10.247,10.247,0,0,1,1.94,2.159,1.141,1.141,0,0,1,.1,1.227A1.7,1.7,0,0,1,28.82,71.668Z" transform="translate(-6.957 1.691)"/>
  </g>
  <g id="FACE" transform="translate(112.183 77.354)">
    <path id="_Ink-3" data-name="ðŸ– Ink" d="M22.824,40.539a8.045,8.045,0,0,1-3.052-.61,8.621,8.621,0,0,1-1.992-1.145,8.487,8.487,0,0,1-1.622-1.636,1.676,1.676,0,0,1-.338-1.3,1.871,1.871,0,0,1,.728-1.172,1.793,1.793,0,0,1,1.067-.372,1.548,1.548,0,0,1,.238.018,1.648,1.648,0,0,1,1.1.73l.065.09A5.7,5.7,0,0,0,21.108,36.9a4.735,4.735,0,0,0,2.069.483,4.583,4.583,0,0,0,.513-.029,5.388,5.388,0,0,0,2.278-.8,10.668,10.668,0,0,0,1.93-1.611c.138-.141.284-.294.474-.5a.751.751,0,0,1,.394-.3.806.806,0,0,1,.256-.041.871.871,0,0,1,.714.373.8.8,0,0,1,.135.524,4.812,4.812,0,0,1-.57,1.864,6.221,6.221,0,0,1-1.22,1.567,7.841,7.841,0,0,1-1.847,1.288,7.69,7.69,0,0,1-2.05.7A7.548,7.548,0,0,1,22.824,40.539Zm2.148-12.17h0a7.373,7.373,0,0,1-2.63-.53,13.281,13.281,0,0,1-3.093-1.756,1.189,1.189,0,0,1-.432-.687,1.423,1.423,0,0,1,.061-.771,1.754,1.754,0,0,1,.521-.753,1.267,1.267,0,0,1,.812-.317,1.151,1.151,0,0,1,.628.193l.209.161,0,0a16.744,16.744,0,0,0,1.936,1.347,4.768,4.768,0,0,0,2.321.74,2.505,2.505,0,0,0,.981-.193,2.74,2.74,0,0,0,.913-.647,2.8,2.8,0,0,0,.531-2.255,4.26,4.26,0,0,0-1.13-2,8.241,8.241,0,0,0-1.711-1.381.531.531,0,0,1-.144-.61.8.8,0,0,1,.264-.38.809.809,0,0,1,.505-.167,1.076,1.076,0,0,1,.181.016,5.736,5.736,0,0,1,2.018.729,4.577,4.577,0,0,1,1.357,1.252,4.974,4.974,0,0,1,.866,3.322,5.475,5.475,0,0,1-.444,1.744,5.087,5.087,0,0,1-1,1.5A4.779,4.779,0,0,1,24.972,28.369ZM7.859,16.485a1.724,1.724,0,0,1-1.119-.439,1.744,1.744,0,0,1-.587-1.128,12.706,12.706,0,0,1,.067-3.308c.04-.321.081-.654.11-1.012a1.98,1.98,0,0,1,.75-1.415,2.31,2.31,0,0,1,1.421-.5,1.751,1.751,0,0,1,1.075.338,1.594,1.594,0,0,1,.594,1.057,8.877,8.877,0,0,1-.926,5.469,1.754,1.754,0,0,1-.619.716A1.427,1.427,0,0,1,7.859,16.485Zm25.119-.75a1.508,1.508,0,0,1-1.183-.507A4.624,4.624,0,0,1,31.074,14a5.342,5.342,0,0,1-.368-1.477,3.131,3.131,0,0,1,.853-2.687,1.772,1.772,0,0,1,.137-.208,1.933,1.933,0,0,1,1.487-.856,1.611,1.611,0,0,1,.452.067,2.175,2.175,0,0,1,1.453,1.268,4.486,4.486,0,0,1,.18,2.453,8.214,8.214,0,0,1-.744,2.314,1.5,1.5,0,0,1-.643.635A1.947,1.947,0,0,1,32.979,15.735ZM.278,7.854a.274.274,0,0,1-.229-.14.306.306,0,0,1-.018-.3A10.425,10.425,0,0,1,2.368,4.454,14.446,14.446,0,0,1,5.5,2.317a13.445,13.445,0,0,1,3.714-1.3l.4-.069A9.66,9.66,0,0,1,11.226.776a2.5,2.5,0,0,1,2,.746,1.7,1.7,0,0,1,.4,1.208,1.106,1.106,0,0,1-.4.789,3.08,3.08,0,0,1-2.112.62c-.166,0-.338,0-.5-.008H10.6c-.16,0-.341-.009-.521-.009s-.314,0-.452.012a14.274,14.274,0,0,0-3.143.536A21.357,21.357,0,0,0,.424,7.806.26.26,0,0,1,.278,7.854Zm38.247-1.6h0l-.167-.042A9.458,9.458,0,0,1,36.524,5.5l-.6-.293A16.537,16.537,0,0,0,33.8,4.3a25.089,25.089,0,0,0-4.845-1.07,1.979,1.979,0,0,1-.972-.369,1.457,1.457,0,0,1-.544-.828A1.482,1.482,0,0,1,27.609.786a1.581,1.581,0,0,1,.767-.661A1.725,1.725,0,0,1,29.03,0a1.926,1.926,0,0,1,.377.038l.3.062a21.676,21.676,0,0,1,5.232,1.7,10.579,10.579,0,0,1,2.3,1.514,6.719,6.719,0,0,1,1.627,2.1c.057.439,0,.548-.055.622L38.8,6.06l-.015.02a.421.421,0,0,1-.26.173Z" transform="translate(11.197 10.99)"/>
  </g>
  <g id="FACIAL_HAIR" data-name="FACIAL HAIR" transform="translate(104.577 109.479)">
    <path id="_Ink-4" data-name="ðŸ– Ink" d="M40.717,48.435h0a26.413,26.413,0,0,1-4.539-.419,39.009,39.009,0,0,1-9.31-2.961,74.446,74.446,0,0,1-9.9-3.83c-1.645-.769-3.389-1.6-5.033-2.558a22.141,22.141,0,0,1-4.515-3.355,13.818,13.818,0,0,1-1.685-2.039,17.077,17.077,0,0,1-1.3-2.29,26.419,26.419,0,0,1-1.716-5c-.127-.513-.249-1.041-.361-1.57a5.735,5.735,0,0,1-.272-.915c-.229-1.059-.44-2.14-.627-3.213-.372-2.11-.674-4.266-.9-6.408S.189,9.541.125,7.347C.114,6.975.092,6.592.069,6.185.025,5.422-.02,4.632.009,3.859A6.955,6.955,0,0,1,.4,1.66,2.418,2.418,0,0,1,2.533,0h.059A2.25,2.25,0,0,1,4.048.569c.6.5,2.139,3.671,3.773,7.024a72.6,72.6,0,0,0,4.01,7.619,47.006,47.006,0,0,0,6.308,7.042c.038.022.078.047.118.074a16.972,16.972,0,0,0,8.33-4.81c.672-.71,1.313-1.47,1.933-2.205a25.493,25.493,0,0,1,4.187-4.237,9.592,9.592,0,0,1,1.9-1.1,8.175,8.175,0,0,1,2.112-.594,8.7,8.7,0,0,1,1.185-.075c.691,0,1.392.066,2.07.129h0c.678.063,1.38.129,2.072.129.226,0,.437-.007.644-.02.339-.022.679-.053,1.007-.082.63-.057,1.224-.11,1.826-.11a6.119,6.119,0,0,1,2.6.506,12.627,12.627,0,0,1,3.724,2.993l.1.1a19.521,19.521,0,0,0,2.547,2.231,17.157,17.157,0,0,0,2.858,1.689h.025a.929.929,0,0,1,.739.333c.107.043.217.087.337.132a10.672,10.672,0,0,1,1.6-1.29c.223-.16.415-.3.512-.378a1.2,1.2,0,0,1,.768-.266,1.1,1.1,0,0,1,.8.32.9.9,0,0,1,.231.693l-.408,6.34c-.04.622-.542,4.582-.721,5.954-.144,1.109-.334,2.179-.563,3.18a26.672,26.672,0,0,1-.895,3.075,21.844,21.844,0,0,1-1.291,2.914,19.047,19.047,0,0,1-1.75,2.7,16.117,16.117,0,0,1-5.33,4.4,18.58,18.58,0,0,1-4.661,2.473,16.265,16.265,0,0,1-2.974.754A19.734,19.734,0,0,1,40.717,48.435ZM44.858,19.9a22.512,22.512,0,0,0-6.2,1c-1.76.505-3.5,1.158-5.188,1.789-1.81.678-3.681,1.379-5.579,1.9a30.765,30.765,0,0,1-3.859.837c.2.239.408.505.626.812a42.78,42.78,0,0,0,5.816,2.759c.287.107.568.211.854.311.435-.121.887-.27,1.382-.455.859-.407,1.7-.916,2.518-1.409a22.508,22.508,0,0,1,3.1-1.662,13.669,13.669,0,0,1,2.585-.754,14.473,14.473,0,0,1,2.667-.246,15.366,15.366,0,0,1,6.864,1.634l.447.167c.568.213,1.156.434,1.742.626a14.558,14.558,0,0,0,1.437.4,13.282,13.282,0,0,0,2.455-3.995,8.218,8.218,0,0,1-2.747-.746c-.682-.295-1.347-.657-1.99-1.007A18.734,18.734,0,0,0,49.156,20.6a11.892,11.892,0,0,0-2.129-.538A13.966,13.966,0,0,0,44.858,19.9Z" transform="translate(-0.211 -3.593)"/>
  </g>
</svg>
