<svg id="peep-93" xmlns="http://www.w3.org/2000/svg" width="240" height="324" viewBox="0 0 240 324">
  <g id="BODY" transform="translate(31.056 135.053)">
    <path id="_Skin" data-name="âœ‹ Skin" d="M19.044,157.28q3.794.235,7.587.374c33.07,1.233,66.113-2.539,99.162-3.364a322.372,322.372,0,0,1,34.439.773,2.276,2.276,0,0,0,2.273-2.274c-2.121-18.314-4.774-36.58-6.149-54.97a8.291,8.291,0,0,1,.459-2.86c.063-.072.39-.878.68-.927-.095.07.335-.053.061-.032,1.66-.272,3.288-2.064,2.083-3.779-12.408-19.025-29.346-36.39-34.8-58.987-1.287-6.109-5.938-6.487-10.892-9.007-1.546-.92-5.325-3.467-5.941-5.238-1.469-6.383,1.118-12.637-6.442-15.22C96.578.384,87.757-.787,82.708.673c-6.16,2.051-5.7,8.994-9.271,13.772-1.848,2.763-5,6.546-7.907,6.97-1.41.205-2.448-2.648-3.856-2.451C39.733,24.294,9.84,60.66.41,80.791c-2.125,6.336,4.729,4.424,4.307,10.792-.519,12.081-1.654,27.547-.981,39.642.631,7.02.164,14.376,2.345,21.132-.587.713.256,1.434.945,1.743C7.893,155.576,16.427,157.075,19.044,157.28Z" transform="translate(5.105 -6.763)" fill="#d08b5b"/>
    <path id="_Top" data-name="ðŸ‘• Top" d="M61.674.006c1.313-.183,1.4,3.678,2.669,3.845,5.9,8.286,15.043,11.037,25.617,11.037q16.837,0,27.305-10.131l.64.27c3.3,1.4,6,2.821,6.938,7.25,5.449,22.6,22.388,39.962,34.8,58.987,1.2,1.715-.423,3.507-2.083,3.779.274-.021-.156.1-.061.032-.29.05-.617.856-.68.927a7.3,7.3,0,0,0-.348,1.363s-13.9,2.946-17.637,3.027c-37.525.812-106.147-.348-106.147-.348L3.939,69.169C2.3,66.7-1.189,66.6.41,61.835,9.84,41.7,39.733,5.337,61.674.006Z" transform="translate(5.105 12.193)" fill="#e86bbb"/>
    <path id="_Ink" data-name="ðŸ– Ink" d="M37.576,153.9c-1.532,0-2.917-.047-4.235-.143a.23.23,0,0,1-.156-.07,2.751,2.751,0,0,1-1.635-.829,2.137,2.137,0,0,1-.646-1.684l0-.022c.48-5.035,1.024-10.742,1.553-16.263.973-10.192,1.888-19.684,2.8-29.018l.136-1.4c.306-3.149.617-6.5.772-9.8-.773-.055-1.552-.125-2.315-.209-2.034-.223-4.121-.551-6.2-.976-1.987-.405-4.031-.911-6.076-1.5-1.938-.562-3.94-1.219-5.951-1.955-1.889-.691-3.85-1.475-5.829-2.33l-.312-.135c-.463-.2-.948-.4-1.462-.612l-.005,0-.762-.314c.008.878-.007,1.769-.021,2.63-.009.586-.019,1.193-.022,1.789-.007,1.7,0,3.418.007,5.085v.007c0,.719.006,1.462.008,2.192.013,4.337.153,8.962.454,15,.688,13.867,1.285,21.4,1.728,26.419.092,1.042.2,2.1.309,3.124v0c.119,1.149.243,2.338.342,3.508a3.926,3.926,0,0,1-.185,1.77A2.537,2.537,0,0,1,8.7,149.471a1.347,1.347,0,0,1-.681.2,2.237,2.237,0,0,1-.943-.274,2.337,2.337,0,0,1-1.236-1.407,7.87,7.87,0,0,1-.335-1.914c-.01-.107-.019-.2-.028-.3-.113-1.13-.215-2.255-.292-3.109-.2-2.264-.374-4.5-.509-6.643-.282-4.513-.456-8.958-.515-13.211-.063-4.492,0-8.939.183-13.219.179-4.169.437-8.333.77-12.378l.08-.95c.06-.7.116-1.431.17-2.133v-.007c.2-2.613.411-5.315.864-7.915A17.867,17.867,0,0,1,2.91,84.378,7.367,7.367,0,0,1,.531,81.684a4.586,4.586,0,0,1-.18-3.9,6.232,6.232,0,0,1,1.016-1.637,9.458,9.458,0,0,1,1.471-1.387,2.729,2.729,0,0,1,.059-.814,57.881,57.881,0,0,1,2.675-7.94C6.6,63.39,7.735,60.824,8.944,58.383a95.316,95.316,0,0,1,8.723-14.256A97.064,97.064,0,0,1,28.725,31.594a84.791,84.791,0,0,1,13.069-10.3,75.273,75.273,0,0,1,7.162-4.022l.364-.177a28.61,28.61,0,0,1,5.545-2.181c.19-.141.392-.283.6-.421a1.4,1.4,0,0,1,.776-.231,1.675,1.675,0,0,1,.818.221,1.722,1.722,0,0,1,.618.585,3.931,3.931,0,0,1,.75-.448l.282-.129a10.953,10.953,0,0,1,4.3-1.154,5.018,5.018,0,0,1,1.319.169A3.683,3.683,0,0,1,66.8,15.75a26.4,26.4,0,0,0,2.753-1.627,22.85,22.85,0,0,0,3.925-3.536,21.73,21.73,0,0,0,3.012-4.25,19.019,19.019,0,0,0,1.819-4.875A1.812,1.812,0,0,1,79.005.348,1.9,1.9,0,0,1,80.139,0a2.432,2.432,0,0,1,1.021.229,2.187,2.187,0,0,1,.816.644,1.854,1.854,0,0,1,.293,1.679A21.373,21.373,0,0,1,79.8,8.209a19.143,19.143,0,0,1-4.036,4.658,21.057,21.057,0,0,1-4.229,2.717,14.768,14.768,0,0,1-4.875,1.449c.164.159.327.328.485.491h0c.141.146.288.3.435.442a29.081,29.081,0,0,0,2.229,1.978,32.305,32.305,0,0,0,5.045,3.409,33.363,33.363,0,0,0,4.24,1.9,35.469,35.469,0,0,0,4.4,1.3,41.38,41.38,0,0,0,9.119.979,50.9,50.9,0,0,0,5.635-.323,57.022,57.022,0,0,0,5.73-.911,36.336,36.336,0,0,0,5.558-1.638,19.693,19.693,0,0,0,4.712-2.57l.374-.281a7.962,7.962,0,0,0,2.223-2.243,1.858,1.858,0,0,1-.407.044,4.039,4.039,0,0,1-2.078-.764,14.255,14.255,0,0,1-1.74-1.366,12.608,12.608,0,0,1-2.67-3.511,12.911,12.911,0,0,1-1.367-4.17,9.511,9.511,0,0,1-.056-2.2,7.437,7.437,0,0,1,.51-2.111.18.18,0,0,1,.164-.119.171.171,0,0,1,.167.164,18.092,18.092,0,0,0,.994,4.526,11.959,11.959,0,0,0,1,2.053,10.843,10.843,0,0,0,1.445,1.86,11.862,11.862,0,0,0,3.517,2.5l.185.085a2.512,2.512,0,0,1,1.383,1.116.685.685,0,0,1,.078,0,.731.731,0,0,1,.19.026c.071.019.141.041.22.07a2.216,2.216,0,0,1-.224-1.1,1.313,1.313,0,0,1,.423-.97,1.327,1.327,0,0,1,.884-.321,1.413,1.413,0,0,1,.831.266,1.3,1.3,0,0,1,.5.793c-.016-.054-.036-.086-.053-.086s-.015.008-.017.021a.115.115,0,0,0,.081.118h0a.822.822,0,0,1,.014.082l0,.037,0-.031c0-.02,0-.04-.008-.062l0-.027a.2.2,0,0,0,.085.017l.014.005.105.048h0c.072.033.154.07.188.084a4.862,4.862,0,0,0,.657.174c.176.038.358.077.53.131a3.789,3.789,0,0,1,2.09,1.412,3.9,3.9,0,0,1,.657,1.742,41.909,41.909,0,0,1,5.373,3.082,35.223,35.223,0,0,1,4.8,3.9,53.705,53.705,0,0,1,4.572,5.088,65.318,65.318,0,0,1,3.935,5.567,97.732,97.732,0,0,1,6.4,12.076c1.82,4.021,3.429,8.054,5.285,12.87l.263.683c1.4,3.653,2.021,5.685,2.4,7.047a37.822,37.822,0,0,1,1.354,7.308,1.8,1.8,0,0,1-.368,1.217,4.171,4.171,0,0,1,.125,1.12c0,.062-.007.124-.011.171h.036a2.139,2.139,0,0,1,1.709.947,1.2,1.2,0,0,1,.364-.058,1.126,1.126,0,0,1,.348.055c1.38.441,1.674,1.9,1.932,3.188q.025.124.05.245a21.428,21.428,0,0,1,.412,4.246,1.743,1.743,0,0,1-.208.794,1.269,1.269,0,0,1-.578.575c-.545.24-1.125.436-1.686.624-.4.134-.808.272-1.206.426-.744.287-1.477.553-2.178.791a6.537,6.537,0,0,1,.573,1.719v0c.06.255.117.5.183.718.328,1.11.607,2.263.854,3.525.88,4.526,1.621,9.155,2.338,13.631.567,3.541,1.153,7.2,1.8,10.788.759,4.19,1.636,8.3,2.47,12.151.445,2.053.91,4.052,1.382,5.943.263,1.057.538,2.117.816,3.151.078.291.159.59.248.915l.147.533a1.92,1.92,0,0,1,.786.814,2.783,2.783,0,0,1,.242,2.029,2.52,2.52,0,0,1-.457.893,2.815,2.815,0,0,1-.822.7,2.544,2.544,0,0,1-1.272.339,3.264,3.264,0,0,1-2.706-1.63,8.708,8.708,0,0,1-.835-2.472v0c-.062-.269-.121-.523-.187-.772-.293-1.106-.587-2.267-.9-3.551-.937-3.867-1.75-7.849-2.485-12.175-.652-3.84-1.228-7.865-1.76-12.3l-.07-.588c-.483-4.088-.981-8.438-1.3-12.736-.166-2.247-.281-4.3-.353-6.275-.038-1.085.024-2.18.085-3.238.009-.159.02-.325.03-.472h0c.021-.309.042-.629.052-.943l0-.067v-.006c0-.045.009-.106.013-.17l0-.08c-1.391.435-2.881.825-4.43,1.158a37.486,37.486,0,0,1-7.962.926c-.575,0-1.15-.017-1.71-.051.5,5.9,1.107,11.153,1.865,16.056.79,5.1,1.714,10.257,2.746,15.329.5,2.443,1.04,4.944,1.667,7.645.117.5.242,1.009.363,1.5v0c.207.839.42,1.706.6,2.566a3.4,3.4,0,0,1-.119,2.249c.28.762.536,1.528.784,2.268v0l0,.006c.081.243.165.493.247.735l.1.288c.107.314.235.634.358.943a9.062,9.062,0,0,1,.643,2.081,3.071,3.071,0,0,1-.026,1.034,2.749,2.749,0,0,1-.445,1.023,3.214,3.214,0,0,1-2.535,1.378l-.019.012h0l-.035.021a2.368,2.368,0,0,1-1.132.276,2.786,2.786,0,0,1-.57-.06c-1.019.2-1.852.354-2.624.486-2.071.358-4.2.666-6.522.943-3.769.449-7.86.748-12.507.915-3.227.116-6.669.173-10.521.173-4.889,0-9.861-.092-14.669-.181h-.026c-4.809-.089-9.781-.181-14.672-.181-2.135,0-4.1.017-6.011.052-7.1.129-14.747.442-23.368.958L54,153.146c-2.959.18-6.019.366-9.029.515l-1.2.058C41.9,153.809,39.736,153.9,37.576,153.9ZM142.535,87.655c.135,2.048.283,4.058.439,5.973l2.245-.515c2.161-.5,4.458-1.035,6.7-1.685,1.522-.441,3.133-.982,4.923-1.655.907-.341,1.733-.675,2.525-1.021a12.762,12.762,0,0,0,1.186-.614l.328-.187a18.786,18.786,0,0,0-.418-2.642c-.061-.269-.149-.548-.234-.817-.062-.2-.126-.4-.181-.6a1.277,1.277,0,0,1-.355.051,1.242,1.242,0,0,1-.148-.009c.054.007.083.018.085.035.006.046-.191.122-.364.19-.086.034-.168.065-.215.09l-.013.007c-.331.19-.645.362-.959.526-.69.363-1.446.72-2.309,1.09A27.952,27.952,0,0,1,151,87.4a25.1,25.1,0,0,1-4.923.606c-.144,0-.287,0-.422,0A11.458,11.458,0,0,1,142.535,87.655ZM3.723,76.415h0l-.059.119a4.842,4.842,0,0,0-.6,2.524,2.7,2.7,0,0,0,.388,1.18,3.562,3.562,0,0,0,1.04,1.054,19.576,19.576,0,0,0,2.738,1.547c1.37.652,2.816,1.2,4.213,1.738.346.132.7.269,1.051.4l.343.134c3.345,1.313,6.416,2.37,9.387,3.231,1.656.479,3.3.9,4.877,1.249,1.677.372,3.342.677,4.95.907,1.345.191,2.766.335,4.225.429.021-1.7.014-3.428.008-5.1v0q0-.3,0-.6l-.519-.067c-.318-.041-.647-.084-.964-.122-1.552-.181-2.985-.39-4.382-.64a66.629,66.629,0,0,1-8.97-2.253,56.644,56.644,0,0,1-7.855-3.246A55.678,55.678,0,0,1,6.337,74.5a4.06,4.06,0,0,1-.593,1.269,1.837,1.837,0,0,1-1.127.731,1.672,1.672,0,0,1-.342.037,1.241,1.241,0,0,1-.552-.124ZM63.609,15.406a7.561,7.561,0,0,0-2.826.631c-.443.189-.9.385-1.335.621l-.083.047c-.5.29-.5.467-.254,1.037a17.248,17.248,0,0,0,1.155,2.146l.03.05A30.35,30.35,0,0,0,67.2,27.809a37.138,37.138,0,0,0,5.859,3.9,41.153,41.153,0,0,0,6.516,2.8,44.164,44.164,0,0,0,6.93,1.692,45,45,0,0,0,7.1.567h0a42.649,42.649,0,0,0,9.1-.967,36.113,36.113,0,0,0,8.376-2.9,28.189,28.189,0,0,0,7.233-5.089l.388-.386a21.737,21.737,0,0,0,2.658-3.064,8.313,8.313,0,0,0,.948-1.8,4.648,4.648,0,0,0,.3-1.887,1.247,1.247,0,0,0-.575-1.067,3.745,3.745,0,0,0-1.2-.392c-.107-.023-.217-.047-.326-.072a4.452,4.452,0,0,1-1.164-.429,1.868,1.868,0,0,1-.083.986,4.808,4.808,0,0,1-.512,1.054,9.933,9.933,0,0,1-1.379,1.7,19.142,19.142,0,0,1-5.59,3.724,33.4,33.4,0,0,1-6.055,2.013,58.612,58.612,0,0,1-6.3,1.092,50.878,50.878,0,0,1-6.262.395A44.913,44.913,0,0,1,85,28.959a36.349,36.349,0,0,1-6.1-1.68,30.545,30.545,0,0,1-5.667-2.8,26.012,26.012,0,0,1-4.6-3.593l-.289-.292c-.469-.475-1.01-1.033-1.5-1.636a8.5,8.5,0,0,1-1.209-1.869h-.082c-.194,0-.391-.007-.585-.02a.183.183,0,0,1-.164-.144.147.147,0,0,1,.079-.169c.166-.088.344-.182.526-.277-.033-.108-.057-.2-.076-.29a.106.106,0,0,1,.022-.089.1.1,0,0,1,.075-.038.092.092,0,0,1,.048.014c.1.059.2.125.306.2.027-.012.054-.027.082-.042A2.969,2.969,0,0,0,63.609,15.406Z" transform="translate(2.958 -1.39)"/>
  </g>
  <g id="HEAD" transform="translate(78.592 38.043)">
    <path id="_Skin-2" data-name="âœ‹ Skin" d="M21.411.07C53.365-1.5,75.046,23.758,75.979,33.833c.647,6.993.208,16.319.208,22.568,0,3.19,1.605,12.885-.208,17.534-4.037,10.347-8.6,18.453-21.233,18.453s-31.9-6.566-38.514-15.034C15.024,75.807.017,64.489.017,55.593.017,36.613-1.39,1.195,21.411.07Z" transform="translate(10.104 13.428)" fill="#d08b5b"/>
    <path id="_Ink-2" data-name="ðŸ– Ink" d="M76.587,114.453a24.906,24.906,0,0,1-6.448-.861l-.268-.073a24.956,24.956,0,0,1-3.759-1.321,13.921,13.921,0,0,1-1.765-.957,9.2,9.2,0,0,1-1.512-1.206,1.3,1.3,0,0,1-.367-.768,1.666,1.666,0,0,1,.119-.841,1.311,1.311,0,0,1,1.175-.886,1.266,1.266,0,0,1,.468.094,21.958,21.958,0,0,1,2.073,1c.611.322,1.242.654,1.892.927a22.989,22.989,0,0,0,8.723,1.737,21.887,21.887,0,0,0,2.982-.2,20.287,20.287,0,0,0,6.645-2.127,21.632,21.632,0,0,0,5.5-4.114,22.7,22.7,0,0,0,4-5.622,22.451,22.451,0,0,0,2.141-6.651,47.431,47.431,0,0,0,.368-7.829l-.03-2.864c-.021-2.168-.035-4.689.056-7.187.106-2.932.309-5.951.62-9.23l.152-1.6c.164-1.7.369-3.682.732-5.594h0c-.277,0-2.3-3.435-3.794-6.019a2.63,2.63,0,0,1-.992-1.4,2.163,2.163,0,0,1-.057-.368c-.274-.432-.564-.853-.862-1.251l-.066-.03c-.051-.023-.09-.042-.114-.056a4.141,4.141,0,0,1-.9-.7,4.433,4.433,0,0,1-.689-.908,4.3,4.3,0,0,1-.316-.692A22.39,22.39,0,0,0,90.6,45.354l-.1-.077-.077-.059a4.256,4.256,0,0,1-1.9-1.319c-.2-.124-.4-.248-.609-.368a4.956,4.956,0,0,1-1.839-.4,8.68,8.68,0,0,1-1.5-.865,8,8,0,0,0-1.6-.9,1.824,1.824,0,0,0-.652-.113,4.938,4.938,0,0,0-1.316.253l-.015,0a5.009,5.009,0,0,1-1.359.257,2.21,2.21,0,0,1-.315-.022,3.2,3.2,0,0,1-.927-.284,17.735,17.735,0,0,1-2.269,2.064,11.067,11.067,0,0,1-3.794,1.7A4.285,4.285,0,0,1,69.955,46.6a48.39,48.39,0,0,1-6.839,4.505,2.359,2.359,0,0,1-1.138.316,9.655,9.655,0,0,1-2.452,1.094,2.013,2.013,0,0,1-.562.079,2.227,2.227,0,0,1-.269-.017l-.756.617a2.688,2.688,0,0,1-1.624.648c-.313.24-.645.474-1.014.716a2.142,2.142,0,0,1-1.18.322c-.054,0-.109,0-.164-.005a2.222,2.222,0,0,1-1.579.661,2.426,2.426,0,0,1-.935-.191c-.124.073-.236.132-.353.187a3.926,3.926,0,0,1-.541.209,3.992,3.992,0,0,1-2.919,1.281,3.887,3.887,0,0,1-.389-.02,5.536,5.536,0,0,1-1.331.594,5.026,5.026,0,0,1-1.42.209c-.1,0-.2,0-.293-.009-.153.773-.286,1.566-.4,2.426l-.011.594c0,.1,0,.173,0,.221v.02c.052,1.321.093,2.665.132,3.964v.006c.038,1.262.078,2.566.128,3.849l.009.206c.009.186.022.384.035.594v0c.1,1.659.246,3.932-.8,5.053a2.057,2.057,0,0,1-.739.5,2.808,2.808,0,0,1-1.05.184h-.106a3.988,3.988,0,0,1-1.827-.583,13.294,13.294,0,0,1-1.62-1.124l-.136-.107-.227-.178c-.257-.033-.517-.078-.768-.121a10.669,10.669,0,0,0-1.4-.177c-.115,0-.232-.006-.349-.006a10.646,10.646,0,0,0-2.381.272,7.013,7.013,0,0,0-4.065,2.352c-.078.1-.157.209-.249.349a1.842,1.842,0,0,1-.356.662,6.783,6.783,0,0,0-.429,3.56,9.928,9.928,0,0,0,3.5,6.395,10.174,10.174,0,0,0,3.35,1.823l.126.04c1.7.531,2.357,1.557,3.272,2.977l.029.045A30.26,30.26,0,0,0,40.8,95.427c.65.725,1.4,1.425,2.117,2.1a15.488,15.488,0,0,1,4.094,5.079.647.647,0,0,1-.069.621.928.928,0,0,1-.74.4.7.7,0,0,1-.188-.025,8.08,8.08,0,0,1-2.7-1.395,24.576,24.576,0,0,1-2.277-2.049l0,0-.178-.174C39.72,98.868,38.719,97.8,37.8,96.715a2.192,2.192,0,0,1-.656.185,7.083,7.083,0,0,1-.866.056,3.9,3.9,0,0,1-2.106-.536c-.043,0-.087.006-.13.006a1.543,1.543,0,0,1-1.031-.4,5.154,5.154,0,0,1-.759-.872c-.177.016-.329.023-.467.023a2.9,2.9,0,0,1-.479-.036,1.21,1.21,0,0,1-.419-.116,1.837,1.837,0,0,1-.681-.47,1.946,1.946,0,0,1-.445-.8,2.318,2.318,0,0,1-.066-.92,2.175,2.175,0,0,1-.251-.068,2.261,2.261,0,0,1-1.283-1.1,4.8,4.8,0,0,1-1.29-1.066,4.64,4.64,0,0,1-.911-1.66,3.94,3.94,0,0,1-.551-.311A3.856,3.856,0,0,1,24,86.884a3.2,3.2,0,0,1-.086-2.218l.017-.047c.024-.065.07-.18.127-.311l0-.02c-.008-.1-.015-.2-.021-.3l-.017-.317-.254-.108a4.234,4.234,0,0,1-1.553-.96,2.719,2.719,0,0,1-.719-1.652,1.256,1.256,0,0,1,.263-.848V80.03c-.089-.046-.166-.09-.229-.13a2.341,2.341,0,0,1-.809-.884,2.238,2.238,0,0,1-.257-1.167,3.272,3.272,0,0,1,.919-1.891l.132-.154.025-.028.012-.014-.306-.1a2.908,2.908,0,0,1-.512-.2,2.982,2.982,0,0,1-1.2-1.159l-.019-.03c-.032-.05-.065-.1-.094-.155a2.734,2.734,0,0,1-.166-2.1,2.084,2.084,0,0,1,.094-.228,2.661,2.661,0,0,1-1.185-.785,2.673,2.673,0,0,1-.243-2.884,2.945,2.945,0,0,1-.029-.868,2.356,2.356,0,0,1-.7-1.141,2.121,2.121,0,0,1,.082-1.259,4.278,4.278,0,0,1,.683-1.176,2.57,2.57,0,0,1,.02-1.864,3.186,3.186,0,0,1-.152-.939,3.1,3.1,0,0,1,.149-.992,3.191,3.191,0,0,1,.422-.836,2.559,2.559,0,0,1-.521-1.041,1.951,1.951,0,0,1,.077-1.154,9.6,9.6,0,0,1,.729-1.5,3.062,3.062,0,0,1-.23-1.182,2.813,2.813,0,0,1,.2-1.069,3.044,3.044,0,0,1,.544-.86,2.541,2.541,0,0,1,.136-1.441,1.938,1.938,0,0,1,.936-1.048,7.359,7.359,0,0,1,1.25-.444c.192-.6.379-1.157.571-1.7.3-.855.646-1.737,1.013-2.62a6.879,6.879,0,0,1-.648.5,9.329,9.329,0,0,1-2.44,2.156,3.127,3.127,0,0,1-1.587.453,2.757,2.757,0,0,1-1.475-.425,2.99,2.99,0,0,1-1.07-1.2,3.632,3.632,0,0,1-2.166.777,3.113,3.113,0,0,1-.364-.022,2.858,2.858,0,0,1-1.439-.585,2.36,2.36,0,0,1-.845-1.293,2.192,2.192,0,0,1-.064-.49,7.36,7.36,0,0,1-1.933,1.057,1.333,1.333,0,0,1-.416.067,1.469,1.469,0,0,1-.983-.4,1.565,1.565,0,0,1-.506-.943,1.469,1.469,0,0,1,.154-.9l-.087-.034-.043-.019a1.955,1.955,0,0,1-1-1.078,2,2,0,0,1-.725.137A1.829,1.829,0,0,1,4.4,42.411a1.789,1.789,0,0,1-.674-.973A7.737,7.737,0,0,1,3.62,37.5,4.521,4.521,0,0,1,2.327,36,4.913,4.913,0,0,1,2.3,31.345a1.644,1.644,0,0,1-.945-.969,2.1,2.1,0,0,1,.07-1.684A2.257,2.257,0,0,1,.367,26.8,1.634,1.634,0,0,1,.1,26.067a1.9,1.9,0,0,1,.125-.876,3.912,3.912,0,0,1,.678-1.128,5.856,5.856,0,0,1,.989-.916,6.592,6.592,0,0,1-.7-1.773A1.639,1.639,0,0,1,.016,19.981,1.7,1.7,0,0,1,.31,18.766a1.74,1.74,0,0,1,.994-.682,5.337,5.337,0,0,1,.335-.814,3.563,3.563,0,0,1-.256-1.563,4.2,4.2,0,0,1,.431-1.63A3.541,3.541,0,0,1,2.7,12.942a4.73,4.73,0,0,1,1.213-.736,1.959,1.959,0,0,1,.833-2.143,11.112,11.112,0,0,1,3.01-1.637A3.473,3.473,0,0,1,8.093,6.6a2.406,2.406,0,0,1,1.351-1.2,3.021,3.021,0,0,1,1.022-.161h.018a3.654,3.654,0,0,1,1.248-1.422,1.739,1.739,0,0,1,1.025-.3,2.11,2.11,0,0,1,1.882,1.018l.023.049c.015.033.03.065.045.1v0l.028.059a2.505,2.505,0,0,1,.673-1.266,2.75,2.75,0,0,1,.829-.592,2.064,2.064,0,0,1,.842-.179,2.739,2.739,0,0,1,1.066.239,6.141,6.141,0,0,1,.612-1.165A2.759,2.759,0,0,1,19.718.9,2.32,2.32,0,0,1,20.837.611a2.458,2.458,0,0,1,1.35.412A4.005,4.005,0,0,1,23.63.185,3.756,3.756,0,0,1,24.747,0a3.174,3.174,0,0,1,2.7,1.708,1.268,1.268,0,0,1,.246-.025A1.309,1.309,0,0,1,28,1.722c.056.014.2.069.256.092a1.327,1.327,0,0,1,.191.1l.035-.019a2.763,2.763,0,0,1,.435-.4,1.44,1.44,0,0,1,.843-.283,1.393,1.393,0,0,1,.2.015l.158-.058A3.99,3.99,0,0,1,31.438.943a3.14,3.14,0,0,1,1.315.276,2.928,2.928,0,0,1,1.092.868,3.67,3.67,0,0,1,.442.74,2.775,2.775,0,0,1,.753.38,2.78,2.78,0,0,1,.5-.181,3.213,3.213,0,0,1,.8-.1,3.431,3.431,0,0,1,2.05.7,3.141,3.141,0,0,1,.905,1.1,2.491,2.491,0,0,1,.73.308,4.077,4.077,0,0,1,.61-.257,6.381,6.381,0,0,1,1.88-.279c.161,0,.324.006.484.018a2.824,2.824,0,0,1,1.39.512,2.95,2.95,0,0,1,.973,1.117,2.057,2.057,0,0,1-.152,2.122l-.035.051a6.142,6.142,0,0,0-.386.622,4.956,4.956,0,0,1,1.163.713,4.5,4.5,0,0,1,1.045,1.227,4.994,4.994,0,0,1,.545,1.437,8.561,8.561,0,0,1,.011,3.16l-.014.088h0a1.589,1.589,0,0,1,1.249.837,1.175,1.175,0,0,1-.05,1.167l-.027.044c-.467.723-.9,1.508-1.32,2.267-.258.467-.525.95-.8,1.418a33.569,33.569,0,0,0-5.723,2.681,26.257,26.257,0,0,0-3.144,3.2A18.314,18.314,0,0,0,36.423,29a.949.949,0,0,0,.414.1.918.918,0,0,0,.63-.261,28.445,28.445,0,0,1,10.328-5.964.93.93,0,0,0,.554-.476,41.637,41.637,0,0,1,5.14-1.121c.239-.229.489-.456.729-.676h0c.239-.219.487-.444.724-.671a1.526,1.526,0,0,1,1.938-.207c.272-.124.555-.237.865-.346l.182-.062.1-.034c.041-.015.084-.03.126-.043a8.5,8.5,0,0,1,2.527-.376,13.363,13.363,0,0,1,3.372.5l.256.067a4.424,4.424,0,0,0,1.153.169,5.075,5.075,0,0,0,1.272-.189l.1-.026a7.878,7.878,0,0,1,1.944-.3,3.894,3.894,0,0,1,1.025.129,5.106,5.106,0,0,1,2.408,1.636l.07.075a.958.958,0,0,0,.85.381h.093l.458-.013c.247-.007.45-.01.641-.01a7.757,7.757,0,0,1,2.174.247,4.154,4.154,0,0,1,1.9,1.127,7.6,7.6,0,0,1,1.3,1.836l.045.1c.015.033.029.061.039.08a2.78,2.78,0,0,0,.368-.1,2.479,2.479,0,0,1,.244-.072,5.658,5.658,0,0,1,1.076-.108,4.477,4.477,0,0,1,3.587,1.793c.137.168.312.425.483.673.16.233.324.473.458.643a3.321,3.321,0,0,1,.275.263,2.7,2.7,0,0,0,1.134.305c.166.02.323.039.472.069a7.554,7.554,0,0,1,2.043.672,4.071,4.071,0,0,1,.871.6,3.223,3.223,0,0,1,.661.852,5.9,5.9,0,0,1,.5,1.629l0,.01.025.122a3.691,3.691,0,0,1,1.115,1.229,6,6,0,0,1,.38.823,4.734,4.734,0,0,0,.509,1.02,2.887,2.887,0,0,0,.976.757l0,0,.169.1.16.094a7.207,7.207,0,0,1,1.625,1.242,4.2,4.2,0,0,1,1,1.776l.035.129c.01.032.023.073.038.119.072.224.18.562.125.638a.036.036,0,0,1-.03.015.087.087,0,0,1-.036-.01,1.7,1.7,0,0,0,.421.131c.079.017.153.034.21.053a3.493,3.493,0,0,1,2.071,1.559,4.709,4.709,0,0,1,.484,1.745v0q.014.1.028.193l.043.275c.011.07.025.147.037.219l.014.074,0,0c.156.068.311.142.46.22a2.336,2.336,0,0,1,1.2,2,1.794,1.794,0,0,1-.315,1.018,3.041,3.041,0,0,1,.356.745,4.016,4.016,0,0,1,.127,1.662,9.5,9.5,0,0,1-.438,1.89c-.029.093-.051.2-.075.309a2.207,2.207,0,0,1-.148.506,1.284,1.284,0,0,1,.3.932,2.241,2.241,0,0,1-.209.718,1.346,1.346,0,0,1-.485.563,11.508,11.508,0,0,1-1.093,2.91,1.153,1.153,0,0,1-.179.256c.035,1.919-.032,3.877-.1,5.77-.048,1.407-.1,2.861-.1,4.286-.017,3.3.043,6.871.183,10.91.037,1.059.093,2.145.146,3.194v0c.126,2.47.257,5.024.171,7.524a34.392,34.392,0,0,1-.317,3.729,24.7,24.7,0,0,1-.8,3.668,23.877,23.877,0,0,1-3.209,6.659,25.493,25.493,0,0,1-5.043,5.4,24.3,24.3,0,0,1-13.9,5.341C77.461,114.441,77.022,114.453,76.587,114.453Zm-37.4-30.579a1.117,1.117,0,0,1-.539-.145,4.205,4.205,0,0,1-1.2-1.167,8.013,8.013,0,0,0-.595-.7,9.557,9.557,0,0,0-2.007-1.511,13.1,13.1,0,0,0-4.866-1.486.135.135,0,0,1-.125-.123.218.218,0,0,1,.125-.22,6.718,6.718,0,0,1,2.463-.436,9.256,9.256,0,0,1,3.261.616l.129.05A12.336,12.336,0,0,1,38.5,80.2a3.917,3.917,0,0,1,1.73,2.3,1.207,1.207,0,0,1-.257.986A1.032,1.032,0,0,1,39.187,83.874Z" transform="translate(-13.914 -7.186)"/>
  </g>
  <g id="FACE" transform="translate(112.183 77.354)">
    <path id="_Ink-3" data-name="ðŸ– Ink" d="M22.284,42.309a2.544,2.544,0,0,1-1.883-.854,3,3,0,0,1-.572-.911A3.117,3.117,0,0,1,19.6,39.45a5.031,5.031,0,0,1,1.89-3.595,11.016,11.016,0,0,1,2.861-2.015,6.594,6.594,0,0,1,1.465-.52,4.693,4.693,0,0,1,.744-.076,4.025,4.025,0,0,0,.847-.1.148.148,0,0,1,.039-.005.17.17,0,0,1,.153.112.139.139,0,0,1-.038.158,4.438,4.438,0,0,0-.827,1.213c-.119.221-.23.429-.349.612-.327.506-.673,1.052-.982,1.62a18.116,18.116,0,0,0-.934,1.911l-.052.134c.056.134.1.267.143.375.016.044.031.086.044.123l.013.035a1.686,1.686,0,0,1,.11.753,2.02,2.02,0,0,1-.2.724,2.516,2.516,0,0,1-1.476,1.287A2.657,2.657,0,0,1,22.284,42.309Zm1.672-4.063h0a.869.869,0,0,1,.346.4A.634.634,0,0,0,23.956,38.246Zm1.228-10.722h0a7.373,7.373,0,0,1-2.63-.53,13.281,13.281,0,0,1-3.093-1.756,1.189,1.189,0,0,1-.432-.687,1.423,1.423,0,0,1,.061-.771,1.754,1.754,0,0,1,.521-.753,1.267,1.267,0,0,1,.811-.317,1.151,1.151,0,0,1,.628.193l.212.163A16.743,16.743,0,0,0,23.2,24.413a4.768,4.768,0,0,0,2.321.74,2.505,2.505,0,0,0,.981-.193,2.741,2.741,0,0,0,.913-.647,2.8,2.8,0,0,0,.531-2.255,4.261,4.261,0,0,0-1.13-2A8.242,8.242,0,0,0,25.1,18.676a.531.531,0,0,1-.143-.61.8.8,0,0,1,.264-.38.809.809,0,0,1,.505-.167,1.076,1.076,0,0,1,.182.016,5.736,5.736,0,0,1,2.018.729,4.577,4.577,0,0,1,1.357,1.252,4.974,4.974,0,0,1,.866,3.322,5.475,5.475,0,0,1-.444,1.744,5.088,5.088,0,0,1-1,1.5A4.779,4.779,0,0,1,25.184,27.524Zm-16.349-12a1.585,1.585,0,0,1-1.208-.494,2.622,2.622,0,0,1-.741-1.69,2.3,2.3,0,0,1,.059-.519l-.745.013c-.448.007-.818.01-1.164.01a26.411,26.411,0,0,1-4.29-.284.5.5,0,0,1-.1.01.582.582,0,0,1-.408-.184.821.821,0,0,1-.223-.424A.658.658,0,0,1,.467,11.2,29,29,0,0,1,7.848,9.732l.218-.024c1.2-.133,2.429-.23,3.616-.323l.307-.024.282-.024.411-.038c.58-.054,1.18-.11,1.769-.11a6.6,6.6,0,0,1,1.486.152A1.464,1.464,0,0,1,16.8,9.9a1.606,1.606,0,0,1,.3.915,1.826,1.826,0,0,1-.284,1.032,1.556,1.556,0,0,1-.886.663,8.313,8.313,0,0,1-2.264.254c-.291,0-.585-.006-.868-.013s-.569-.013-.855-.013h-.167l-.413.007-.231,0a3.226,3.226,0,0,1-.466,1.391,6.941,6.941,0,0,1-.649.9A1.535,1.535,0,0,1,8.834,15.528Zm24.4-1.445a1.723,1.723,0,0,1-1.359-.705,1.4,1.4,0,0,1-.227-1.269l.016-.048c.035-.1.068-.2.1-.315s.061-.195.095-.293l-.377-.032a9.447,9.447,0,0,1-1.822-.3,3.019,3.019,0,0,1-.785-.346,1.349,1.349,0,0,1-.5-.549.653.653,0,0,1,.1-.748c.691-.823,2.267-.951,3.418-1.044.166-.013.322-.026.466-.04l.065-.006c.3-.031.617-.067.921-.1h0a26.449,26.449,0,0,1,2.969-.228,10,10,0,0,1,1.02.048,1.99,1.99,0,0,1,1.331.643,1.84,1.84,0,0,1,0,2.4,1.989,1.989,0,0,1-1.33.643,10.135,10.135,0,0,1-1.028.049c-.49,0-1.018-.028-1.665-.087a1.687,1.687,0,0,1-.033,1.52,1.558,1.558,0,0,1-1.177.8A1.477,1.477,0,0,1,33.235,14.083ZM3.293,6.343a6.618,6.618,0,0,1-2.266-.316l0-.006a.352.352,0,0,1-.087-.632A9.033,9.033,0,0,1,3.823,4.25c.226-.061.439-.119.651-.18,1.115-.322,2.276-.632,3.551-.948.452-.112.917-.224,1.365-.332h0a57.794,57.794,0,0,0,6.139-1.724,1.618,1.618,0,0,1,.554-.1A1.887,1.887,0,0,1,17.36,1.5a2.092,2.092,0,0,1,.656,1.222,1.871,1.871,0,0,1-.349,1.42A2.017,2.017,0,0,1,17,4.694a2.592,2.592,0,0,1-.882.275l-.058.007c-1.3.143-2.618.35-3.892.551-1.226.193-2.494.392-3.746.535-1.194.136-2.37.22-3.5.25l-.835.019C3.808,6.337,3.552,6.343,3.293,6.343ZM33.342,4.466c-.514,0-1.032-.011-1.538-.032l-.5-.023c-.167-.007-.341-.012-.525-.017a15.776,15.776,0,0,1-2.431-.2,3.086,3.086,0,0,1-1.913-.946,1.8,1.8,0,0,1-.362-.79,2.916,2.916,0,0,1,.021-1.1,1.573,1.573,0,0,1,.66-1.023A2.028,2.028,0,0,1,27.9,0a1.94,1.94,0,0,1,1.6.754c.344.118.8.241,1.2.35.227.062.442.12.618.172.808.24,1.677.5,2.557.747,1.34.382,2.678.849,3.971,1.3.413.144.84.293,1.261.438a.151.151,0,0,1,.112.16.173.173,0,0,1-.154.152A43.946,43.946,0,0,1,33.342,4.466Z" transform="translate(10.985 11.836)"/>
  </g>
</svg>
