<svg id="peep-91" xmlns="http://www.w3.org/2000/svg" width="240" height="324" viewBox="0 0 240 324">
  <g id="BODY" transform="translate(31.056 135.053)">
    <path id="_Skin" data-name="âœ‹ Skin" d="M158.088,123.645q-1.277-7.217-2.342-14.47c-.337-2.3-.665-4.593-.961-6.894-.207-1.612-.522-3.456.575-4.65,1.543-1.681,2.944-3.119,3.133-5.526.178-2.265-.588-4.734-1.067-6.933-1-4.611-2.254-9.165-3.635-13.675-1.4-4.583-2.941-9.122-4.5-13.653a127.35,127.35,0,0,0-4.762-12.575,36.828,36.828,0,0,0-17.249-17.24c-1.875-.949-5.7-4.335-7.66-5.093-1.8-.7-1.795,1.338-3.568.572a7.089,7.089,0,0,1-3.53-2.8c-.862-1.486-3.022-3.565-3.351-5.3-.7-3.667.058-6.789-2.558-9.549A19,19,0,0,0,97.937.833C90.831-1.15,81.354.236,77.067,6.842,75.019,10,74.3,13.81,71.54,16.385c-2.413,2.248-1.873,3.785-5,4.943-.177.066-4.974-.964-5.151-.9-3.419-.732-6.686,1.317-9.823,2.506a68.751,68.751,0,0,0-13.31,6.82A84.361,84.361,0,0,0,16.646,50.585,101.986,101.986,0,0,0,2.666,77.548Q1.457,81.044.5,84.619a7.19,7.19,0,0,0-.3,4.08,5.256,5.256,0,0,0,2.077,2.618c1.26.908,3.787,1.5,3.738,3.325a31.9,31.9,0,0,1-.738,4.222c-.274,1.634-.5,3.278-.723,4.92-1.023,7.471-1.818,14.985-2.17,22.519a194.546,194.546,0,0,0-.12,22.406,2.87,2.87,0,0,0,.415,1.317.3.3,0,0,0,.037.551l.574.122a2.525,2.525,0,0,0,1.464.5c.387.012.773.03,1.16.05,4.078.853,8.155,1.658,12.286,2.268q7.532,1.112,15.109,1.837c10.381,1.01,20.68.675,31.074.131q15.567-.815,31.14-.4c10.4.271,20.793.723,31.193.908,11.62.207,23.221-.111,34.807-1.035a2.387,2.387,0,0,0,2.258-2.969C161.9,142.535,159.769,133.142,158.088,123.645Z" transform="translate(5.493 -6.763)" fill="#d08b5b"/>
    <path id="_Top" data-name="ðŸ‘• Top" d="M51.568,2.66l.227-.087c3.067-1.2,6.259-3.133,9.6-2.418.118-.044,2.289.4,3.776.68L63.755,2.307l-2.491.479Q74.154,24.068,91.753,24.068T118.463,2.787l.829-.229a2.43,2.43,0,0,1,.328.1c1.959.758,5.784,4.144,7.66,5.093a36.829,36.829,0,0,1,17.249,17.24,122.146,122.146,0,0,1,4.616,12.152l.146.424c1.561,4.531,3.1,9.071,4.5,13.653,1.321,4.314,2.522,8.669,3.5,13.074l.132.6c.479,2.2,1.244,4.668,1.067,6.933a6.127,6.127,0,0,1-.615,2.259l-17,6.118,8.1,55.246q-11.125.477-22.272.268c-10.4-.185-20.795-.638-31.193-.908q-15.111-.393-30.2.352l-2.556.131a199.843,199.843,0,0,1-29.462-.213l-.671-.066h0v-8.081l3.458-45-17.524-3.3-17.2-8.358A4.584,4.584,0,0,1,.194,68.423a6.673,6.673,0,0,1,.225-3.784l.079-.3q.957-3.573,2.167-7.071a101.986,101.986,0,0,1,13.98-26.963A84.361,84.361,0,0,1,38.258,9.48,68.751,68.751,0,0,1,51.568,2.66Z" transform="translate(5.493 13.513)" fill="#ec7495"/>
    <path id="_Ink" data-name="ðŸ– Ink" d="M34.171,150.261a1.828,1.828,0,0,1-.215-.012,1.883,1.883,0,0,1-1.19-.633,1.93,1.93,0,0,1-.485-1.264c-.008-1.767.148-3.575.3-5.322v0c.064-.736.129-1.5.181-2.243.146-2.081.309-4.286.529-7.147.425-5.518.9-11.125,1.357-16.547v0c.263-3.116.536-6.338.8-9.516.222-2.7.478-5.638.807-9.24a45.783,45.783,0,0,1-7.046-.8,57.9,57.9,0,0,1-6.831-1.76c-2.121-.681-4.292-1.491-6.637-2.477-1.981-.833-4.1-1.8-6.462-2.947-.117,2.663-.4,5.362-.667,7.973l-.042.4c-.9,8.66-1.564,16.3-2.043,23.345-.232,3.416-.428,7.064-.633,11.827-.083,1.931-.152,3.888-.2,5.817-.018.655-.034,1.308-.047,1.94l-.029,1.481A3.058,3.058,0,0,1,4.7,145.63a2.1,2.1,0,0,1-1.361.534,1.925,1.925,0,0,1-1.318-.534,2.585,2.585,0,0,1-.8-1.481,7.834,7.834,0,0,1-.059-1.7v0c.005-.144.011-.293.014-.44.026-1.09.058-2.208.094-3.325.073-2.2.167-4.437.281-6.647.371-7.2,1.1-14.77,2.235-23.136l.406-2.965c.366-2.657.766-5.487,1.292-8.305a67.229,67.229,0,0,1,1.995-8.154c-.639-.318-1.3-.652-1.974-.991-.344-.174-.7-.348-1.038-.516h0c-.817-.4-1.661-.818-2.458-1.276A3.631,3.631,0,0,1,.092,84.42a6.489,6.489,0,0,1,.309-3.1v0c.042-.161.082-.314.12-.467l.025-.1c.265-1.093.565-2.241.891-3.414A113.014,113.014,0,0,1,6.146,63.841,110.53,110.53,0,0,1,20.469,39.124a85.491,85.491,0,0,1,8.613-9.616c1.584-1.509,3.223-2.935,4.87-4.239a62.945,62.945,0,0,1,5.259-3.745,53.769,53.769,0,0,1,5.51-3.073,48.012,48.012,0,0,1,5.849-2.361,30.028,30.028,0,0,1,5.876-1.367c.94-.105,1.952-.179,3.182-.232.119-.005.243-.008.369-.008a19.19,19.19,0,0,1,2.124.16h.007c.244.027.5.056.742.08a.1.1,0,0,1,.088.1.074.074,0,0,1-.064.08c-1.9.4-3.782.939-5.7,1.506l-.807.239c-2,.591-4.136,1.257-6.244,2.116a55.875,55.875,0,0,0-11.576,6.519A79.611,79.611,0,0,0,20.712,43.523,101.8,101.8,0,0,0,13.9,54.453,114.14,114.14,0,0,0,8.48,66.014a111.552,111.552,0,0,0-4.336,13.03c-.276,1.042-.548,2.133-.809,3.244-.016.07-.045.163-.078.271-.113.372-.284.933-.144,1.187a1.674,1.674,0,0,0,.773.487c.107.045.208.088.284.128l.964.5c1.876.967,5,2.558,5.325,2.717l.49.241a89.359,89.359,0,0,0,12.414,5.131,54.336,54.336,0,0,0,6.494,1.643,42.86,42.86,0,0,0,6.673.715l.071-.77a72.469,72.469,0,0,1,2.08-12.662.168.168,0,0,1,.163-.135.214.214,0,0,1,.207.186,56.484,56.484,0,0,1,.431,7.349c0,2.368-.1,4.737-.218,7.366-.273,6-.614,12.087-.943,17.978v.005c-.148,2.649-.3,5.388-.446,8.083-.164,3.043-.365,6.136-.559,9.127v0c-.083,1.275-.168,2.593-.251,3.9-.071,1.127-.13,2.281-.188,3.4v0c-.165,3.209-.336,6.526-.8,9.724a1.507,1.507,0,0,1-.694,1.029A2.236,2.236,0,0,1,34.171,150.261Zm129.541-3.478a1.3,1.3,0,0,1-.536-.123l-.133-.062a2.436,2.436,0,0,1-1.545-1.491,8.09,8.09,0,0,1-.233-1.1c-.029-.177-.059-.359-.094-.533-.2-1.026-.4-2.057-.579-3.065-.363-2.044-.722-4.113-1.067-6.151l-.324-1.921c-1.07-6.361-2.16-13.142-2.705-19.974-.247-3.1-.513-6.218-.742-8.9l-.191-2.225c-.038-.443-.078-.9-.116-1.334V99.9c-.209-2.366-.424-4.813-.459-7.215l-.957.34-4.671,1.652c-.289.1-.594.229-.916.364a7.466,7.466,0,0,1-2.653.75,2.555,2.555,0,0,1-.31-.018,2.36,2.36,0,0,1-1.434-.616c.446,6.3,1.048,12.409,1.788,18.166.784,6.1,1.574,11.47,2.413,16.424.374,2.21.877,5.128,1.439,8.092.252,1.327.518,2.684.791,4.033.042.209.088.421.132.627.1.454.2.924.27,1.389a2.341,2.341,0,0,1-.524,1.886,1.324,1.324,0,0,1-1.068.6,1.06,1.06,0,0,1-.571-.165,3.5,3.5,0,0,1-.893-.734,2.583,2.583,0,0,1-.49-1.029c-.141-.549-.246-1.122-.347-1.677v-.006c-.044-.242-.09-.492-.137-.736-.287-1.46-.571-2.954-.844-4.443-.586-3.2-1.111-6.341-1.558-9.327-.809-5.395-1.492-10.958-2.029-16.535-.523-5.427-.924-11.018-1.19-16.618-.248-5.2-.344-10.579-.295-16.431.026-3.053.129-5.81.314-8.426.165-2.33.483-4.664.79-6.922l0-.021c.066-.485.134-.987.2-1.481a.084.084,0,0,1,.084-.076.074.074,0,0,1,.075.076c.073,1.3.165,2.63.254,3.912v0c.126,1.813.256,3.688.335,5.536s.132,3.716.183,5.529v0c.032,1.15.066,2.339.106,3.511.138,4.043.331,8.041.572,11.885a2.067,2.067,0,0,1,1.512-.69,1.839,1.839,0,0,1,.3.024,12.626,12.626,0,0,0,1.94-.647c.363-.143.706-.278,1.04-.389l3.535-1.181c1.76-.588,3.655-1.218,5.582-1.836a141.552,141.552,0,0,1-3.785-17.086l-.435-2.6c-.413-2.452-.869-5.076-1.413-7.654-.592-2.811-1.226-5.275-1.936-7.533a49.345,49.345,0,0,0-3.068-7.526,48.523,48.523,0,0,0-4.28-6.909,60.958,60.958,0,0,0-5.262-6.129c-1.693-1.744-3.558-3.51-5.87-5.557-2.005-1.776-4.127-3.479-6.179-5.126-1.469-1.179-2.987-2.4-4.453-3.635a2.035,2.035,0,0,1,.012.65,22.312,22.312,0,0,1-.939,4.013,24.223,24.223,0,0,1-1.635,3.785,25.8,25.8,0,0,1-2.24,3.47,26.2,26.2,0,0,1-11.751,8.675,28.682,28.682,0,0,1-5.076,1.374,30.617,30.617,0,0,1-5.263.453,32.108,32.108,0,0,1-5.385-.459,32.725,32.725,0,0,1-5.269-1.36A35.689,35.689,0,0,1,76.4,34.9a36.685,36.685,0,0,1-6.27-4.936,34.156,34.156,0,0,1-5-6.185,29.978,29.978,0,0,1-3.3-7.173.133.133,0,0,1,.016-.122.153.153,0,0,1,.124-.057.161.161,0,0,1,.132.065l.449.614.066.09a.224.224,0,0,1,.152-.239A27.069,27.069,0,0,0,72.605,10.8a21.108,21.108,0,0,0,3.369-4.561,18.149,18.149,0,0,0,1.135-2.471l.079-.22c.043-.121.086-.246.124-.356A7.124,7.124,0,0,1,78.666.548,1.69,1.69,0,0,1,79.934,0a2.157,2.157,0,0,1,1.7.874,1.664,1.664,0,0,1,.231,1.538,27.053,27.053,0,0,1-2.858,6.039A21.216,21.216,0,0,1,77,11.092a19.283,19.283,0,0,1-2.453,2.3,20.446,20.446,0,0,1-4.968,2.919,14.972,14.972,0,0,1-5.582,1.118c-.386,0-.778-.016-1.163-.049a.256.256,0,0,1-.088-.023l.373.506c1.208,1.635,2.819,3.774,4.57,5.824a49.766,49.766,0,0,0,5.166,5.281,36.732,36.732,0,0,0,4.726,3.49,34.771,34.771,0,0,0,5.214,2.661,31.767,31.767,0,0,0,5.564,1.7,28.8,28.8,0,0,0,5.776.6,26.831,26.831,0,0,0,6.6-.819,23.784,23.784,0,0,0,5.646-2.244,24.429,24.429,0,0,0,4.926-3.589,22.87,22.87,0,0,0,3.837-4.7,20.4,20.4,0,0,0,2.377-5.572,1.549,1.549,0,0,1-.638.134,1.79,1.79,0,0,1-.379-.042c-1.62-.352-3.221-2.047-4.285-3.291a15.567,15.567,0,0,1-2.67-4.38,14.151,14.151,0,0,1-1.028-4.861,10.626,10.626,0,0,1,.221-2.489,8.161,8.161,0,0,1,.86-2.3.336.336,0,0,1,.3-.187.426.426,0,0,1,.406.377l.062.539a21.8,21.8,0,0,0,1.971,7.748,15.864,15.864,0,0,0,2.27,3.378,13.255,13.255,0,0,0,1.577,1.5c.22.175.462.333.7.485a6.017,6.017,0,0,1,1.021.776l.091.1,0-.017a1.756,1.756,0,0,1,.549-1.141,1.492,1.492,0,0,1,.99-.366h.065a5.665,5.665,0,0,1,1.86.489l.03.014a71.718,71.718,0,0,1,13.753,8.883A58.009,58.009,0,0,1,146.689,38.03a52.385,52.385,0,0,1,7.227,15.061,135.789,135.789,0,0,1,3.227,15.162l.01.057.2,1.14.588,3.364c.406,2.309.892,4.991,1.528,7.609a46.815,46.815,0,0,0,2.368,7.343,2.2,2.2,0,0,1,.074,1.751,2.061,2.061,0,0,1-1.23,1.092c-1.387.522-2.909,1.078-4.792,1.752.567,2.433.979,4.957,1.378,7.4v.008c.153.937.311,1.906.475,2.849.7,4.056,1.512,8.166,2.293,12.14v.007c.606,3.084,1.233,6.274,1.807,9.418.338,1.852.665,3.737.982,5.56.312,1.8.635,3.663.969,5.493.2,1.087.41,2.217.6,3.215l.017.091c.123.658.251,1.339.375,2.008.117.63.228,1.271.335,1.89.052.3.112.645.171.981l.029.159.023.116a3.1,3.1,0,0,1,.057,1.415,3.029,3.029,0,0,1-.881,1.265l0,0-.124.127A.92.92,0,0,1,163.712,146.783Z" transform="translate(4.013 -1.057)"/>
  </g>
  <g id="HEAD" transform="translate(78.592 38.043)">
    <path id="_Skin-2" data-name="âœ‹ Skin" d="M80.971,37.211c-.783-6.26-3.241-12.907-5.826-18.744C69.332,6.128,56.023,4.429,44.093,1.885,32.32.166,19.853-1.385,8.257,2.043,1.738,3.644-.808,11.427.221,17.569c.587,3.827,2.325,7.45,3.807,11a61.7,61.7,0,0,1,4.817,22.97c-.2,5.154-.928,11.037,4.98,13.22,5.622,2.8,6.1,10.4,13.137,14.711,2.847,5.78,10.6,6.289,16.181,7.63,3.527.677,7.094,1.175,10.671,1.5,10.357,1.33,18.642-1.678,24.064-10.927,3.628-5.629,6.33-12.128,5.662-18.95C82.875,51.532,81.768,44.386,80.971,37.211Z" transform="translate(5.06 16.063)" fill="#d08b5b"/>
    <path id="_Ink-2" data-name="ðŸ– Ink" d="M62.006,104.21a28.118,28.118,0,0,1-6.681-.785,22.637,22.637,0,0,1-6.147-2.461,1.35,1.35,0,0,1-.692-1.566,1.635,1.635,0,0,1,.541-.827,1.505,1.505,0,0,1,.962-.351,1.637,1.637,0,0,1,.695.161,36.156,36.156,0,0,0,4.937,1.918,23.785,23.785,0,0,0,5.2.971c.627.044,1.261.067,1.886.067a25.819,25.819,0,0,0,8.459-1.409,23.514,23.514,0,0,0,3.958-1.8A25.038,25.038,0,0,0,78.7,95.647a26.271,26.271,0,0,0,5.66-6.578,24.82,24.82,0,0,0,3.127-7.911,28.878,28.878,0,0,0,.536-5.312c.025-1.539-.034-3.188-.193-5.346l-.018-.242c-.611-8.081-1.342-14.581-2.3-20.454-.479-2.94-1.1-5.925-1.842-8.873-.726-2.878-1.59-5.8-2.569-8.685A10.451,10.451,0,0,0,78.577,30.6c-2.551-.107-5.13-.161-7.666-.161-4.121,0-8.272.143-12.34.425A166.877,166.877,0,0,0,41.631,32.9l-.6.106c-.277.049-.565.095-.845.139a12.451,12.451,0,0,0-2.946.711,2.463,2.463,0,0,0-1.113.919,4.253,4.253,0,0,0-.55,1.359,39.44,39.44,0,0,0-.831,7.791l-.01.247c-.046,1.125-.026,2.274-.007,3.384.025,1.438.05,2.924-.066,4.376a12.553,12.553,0,0,1-.627,3.181,7.879,7.879,0,0,1-.681,1.456,6.493,6.493,0,0,1-1.009,1.279A9.321,9.321,0,0,1,30.413,59.2c-.293.169-.595.344-.887.532a1.858,1.858,0,0,0-.666.648,1.484,1.484,0,0,0-.139.9,9.036,9.036,0,0,0,.327,1.442c.362,1.281.735,2.606-.315,3.6a.726.726,0,0,1-.5.194.615.615,0,0,1-.46-.194,9.542,9.542,0,0,0-1.573-1.276c-.193-.135-.391-.274-.578-.413a.292.292,0,0,1-.12-.331.282.282,0,0,1,.268-.2.345.345,0,0,1,.141.032c.213.1.433.2.646.3.236.114.479.232.723.34a6.194,6.194,0,0,0-1.784-.983,12.761,12.761,0,0,0-1.926-.531,6.647,6.647,0,0,0-1.3-.128c-.2,0-.4.009-.6.027-.495.237-1,.456-1.438.64-.556.234-1.163.468-1.857.715a7.73,7.73,0,0,0-2.355,3.338,8.229,8.229,0,0,0-.392,4.121,7.734,7.734,0,0,0,.742,2.317,4.838,4.838,0,0,0,1.567,1.832,6.573,6.573,0,0,0,2.967.844,8.255,8.255,0,0,1,2.491.566,5.549,5.549,0,0,1,2,1.6,10.792,10.792,0,0,1,1.337,2.212l.307.649a26.784,26.784,0,0,0,2.318,4.146A20.706,20.706,0,0,0,33.2,90.2a19.575,19.575,0,0,0,2.216,1.538l.211.125a2.21,2.21,0,0,1,1.391,1.866.959.959,0,0,1-.47.822,1.68,1.68,0,0,1-.924.277,4.214,4.214,0,0,1-2.165-.953l0,0-.246-.166A24.282,24.282,0,0,1,30.2,91.341a23.319,23.319,0,0,1-4.514-5.717,17.913,17.913,0,0,1-.819-1.762,9.042,9.042,0,0,0-2.029-3.376,4.615,4.615,0,0,0-2.673-.85c-.173-.018-.351-.037-.524-.06a7.863,7.863,0,0,1-2.875-.843c-3.67-2.044-4.709-6.988-3.837-10.815a11.366,11.366,0,0,1,.609-1.877,1.811,1.811,0,0,1-.3.024,2.3,2.3,0,0,1-1.833-1,1.732,1.732,0,0,1-.217-1.64c.031-.078.065-.154.1-.228v0l.038-.083a4.7,4.7,0,0,1-1.948-2.671,4.257,4.257,0,0,1-.107-1.818A2.945,2.945,0,0,1,8.245,57.43a3.636,3.636,0,0,1-1.752-1.557,3,3,0,0,1-.38-1.427,2.951,2.951,0,0,1,.321-1.3c-.056-.1-.112-.209-.164-.317a5.438,5.438,0,0,1-1.8-1.866,4.446,4.446,0,0,1-.188-4.134c-.022-.072-.04-.133-.055-.186a4.913,4.913,0,0,1-2.64-3.066,4.033,4.033,0,0,1,0-2.056,4.868,4.868,0,0,1,.926-1.812A3.715,3.715,0,0,1,.948,35.525a5.214,5.214,0,0,1,1.075-2.132.508.508,0,0,0-.009-.051v-.006l-.118-.092C.059,31.792-.446,30.195.394,28.5a4.24,4.24,0,0,1,1.765-1.877l.036-.114a5.163,5.163,0,0,1-.335-3.637,4.125,4.125,0,0,1,.709-1.429,4.5,4.5,0,0,1,1.152-1.052,5.2,5.2,0,0,1,.044-1.539,4.017,4.017,0,0,1,.454-1.294,3.774,3.774,0,0,1,.841-1.028c.023-.112.053-.231.093-.364A6.523,6.523,0,0,1,6.3,14.031a1.782,1.782,0,0,1,1.419-.691,5.139,5.139,0,0,1,.958-3.4,4.3,4.3,0,0,1,1.679-1.4,3.215,3.215,0,0,1,1.334-.284,3.492,3.492,0,0,1,.374.02A3.446,3.446,0,0,1,13.1,7.007a3.312,3.312,0,0,1,1.538-.633,4.624,4.624,0,0,1,.645-.046,4.114,4.114,0,0,1,.6.044,7.205,7.205,0,0,1,.679-.275c.153-.054.3-.1.472-.156a4.945,4.945,0,0,1,2.055-1.513,3.833,3.833,0,0,1,1.4-.266,3.981,3.981,0,0,1,1.364.245l.272-.057a3.217,3.217,0,0,1,.843-.966,3.569,3.569,0,0,1,1.306-.606,3.281,3.281,0,0,1,.789-.1,4.132,4.132,0,0,1,2.545.958h0a.035.035,0,0,0,.013,0,3.243,3.243,0,0,1,.974-1.3,2.6,2.6,0,0,1,1.608-.505l.136,0a3.015,3.015,0,0,1,1.231.324,3.883,3.883,0,0,1,1.033.761c.34-.043.674-.08,1.014-.118a8.849,8.849,0,0,1,1.2-1.167,1.642,1.642,0,0,1,1.026-.389,1.373,1.373,0,0,1,1.164.672c.114.174.221.353.325.527l.006.01.487-.034a3.443,3.443,0,0,1,1.027-.946,2.985,2.985,0,0,1,1.4-.4l.114,0a2.6,2.6,0,0,1,2.1,1.118c.4-.01.832-.018,1.307-.025A7.989,7.989,0,0,1,45.565.629a1.3,1.3,0,0,1,.7-.191,1.439,1.439,0,0,1,1.023.413,11.276,11.276,0,0,1,.8.934A4.384,4.384,0,0,1,50.506.414,1.17,1.17,0,0,1,51.4,0a1.735,1.735,0,0,1,1.156.5A4.109,4.109,0,0,1,53.6.977,11.606,11.606,0,0,1,55.08.893c.239,0,.491.005.773.015a3.928,3.928,0,0,1,.573-.264A4.443,4.443,0,0,1,57.955.36a4.133,4.133,0,0,1,2.332.742A2.615,2.615,0,0,1,62.133.343c.054,0,.11,0,.165,0a2.3,2.3,0,0,1,.977.271,3.158,3.158,0,0,1,.759.588,2.757,2.757,0,0,1,.881-.819A2.8,2.8,0,0,1,66.142.014c.1-.007.2-.01.294-.01a5.31,5.31,0,0,1,3.239,1.232A3.049,3.049,0,0,1,71.985.154a3.728,3.728,0,0,1,.666-.059A3.873,3.873,0,0,1,73.774.26,4.9,4.9,0,0,1,75.9,1.582,4.442,4.442,0,0,1,78.957.162c.082,0,.166,0,.248.009a4.011,4.011,0,0,1,2.225.907,5.029,5.029,0,0,1,1.458,1.949,9.263,9.263,0,0,1,1.613.833,7.888,7.888,0,0,1,1.42,1.183c.03.031.06.064.089.1l0,0,.046.051a4.4,4.4,0,0,1,1.3.742,3.423,3.423,0,0,1,1.162,1.821A4.2,4.2,0,0,1,88.452,9.9c.051.207.1.431.15.706a3.8,3.8,0,0,1,2.791,1.926,4.575,4.575,0,0,1,.522,2.46,5.257,5.257,0,0,1-.228,1.259,4.986,4.986,0,0,1-.522,1.151,6.518,6.518,0,0,1-1.4,1.576,3.864,3.864,0,0,1,.265,2.187,4,4,0,0,1-.932,1.988,5.4,5.4,0,0,1-.866,1.055,3.232,3.232,0,0,1-.168,2.1,3.425,3.425,0,0,1-1.416,1.594l-.111.279c-.021.053-.04.1-.057.138s-.03.108-.045.16l0,.014a2.844,2.844,0,0,1-.531,1.483,11.54,11.54,0,0,1-.76.938,6.1,6.1,0,0,0-1.213,1.788l-.045.119A1.213,1.213,0,0,1,82.8,33.6a.878.878,0,0,1-.261-.039A48.548,48.548,0,0,1,84.5,38.212c.548,1.514,1.059,3.14,1.519,4.834a95.765,95.765,0,0,1,2.064,9.9c.494,3.086.908,6.329,1.265,9.915l.324,3.3c.272,2.808.538,5.8.54,8.828a31.9,31.9,0,0,1-1.457,9.7,28.125,28.125,0,0,1-11.4,15.06,27.267,27.267,0,0,1-4.132,2.222,26.494,26.494,0,0,1-4.481,1.473A29.882,29.882,0,0,1,62.006,104.21ZM19.589,30.386a.637.637,0,0,0-.621.431,2.363,2.363,0,0,0,.016,1.7,2.233,2.233,0,0,0,1.185,1.208.839.839,0,0,0,.333.073.6.6,0,0,0,.532-.3.691.691,0,0,0,.048-.541.513.513,0,0,0-.274-.326,1.045,1.045,0,0,1-.639-1.422l.018-.053a.527.527,0,0,0-.047-.5A.672.672,0,0,0,19.589,30.386ZM9.167,28h0a.628.628,0,0,0-.419.167,2.888,2.888,0,0,0-.694.879,1.859,1.859,0,0,0-.186,1.091A2.55,2.55,0,0,0,9.24,31.9a.614.614,0,0,0,.32.1.568.568,0,0,0,.377-.148.728.728,0,0,0,.219-.349.591.591,0,0,0-.276-.693L9.8,30.756a1.263,1.263,0,0,1-.684-.79c-.054-.392.295-.7.526-.905a.536.536,0,0,0,.168-.613A.712.712,0,0,0,9.167,28Zm3.684-9.728h0a.569.569,0,0,0-.332.117,2.383,2.383,0,0,0-1.149,1.783,2.6,2.6,0,0,0,.839,1.951.574.574,0,0,0,.42.2.685.685,0,0,0,.6-.422.6.6,0,0,0-.125-.669,1.337,1.337,0,0,1-.445-.986,1.027,1.027,0,0,1,.456-.725l.043-.032a.656.656,0,0,0,.242-.753.609.609,0,0,0-.548-.459ZM24.59,72.553a1.419,1.419,0,0,1-1.151-.58c-.175-.23-.341-.464-.5-.69h0a11.19,11.19,0,0,0-1.381-1.69,7.913,7.913,0,0,0-.776-.624,3.8,3.8,0,0,1-1.322-1.359.057.057,0,0,1,.021-.08,1.809,1.809,0,0,1,.909-.225,5.62,5.62,0,0,1,2.352.75,7.7,7.7,0,0,1,3.025,2.557,1.172,1.172,0,0,1,.1,1.232A1.471,1.471,0,0,1,24.59,72.553Z" transform="translate(-1.264 2.536)"/>
  </g>
  <g id="FACE" transform="translate(112.183 77.354)">
    <path id="_Ink-3" data-name="ðŸ– Ink" d="M22.824,40.539a8.045,8.045,0,0,1-3.052-.61,8.621,8.621,0,0,1-1.992-1.145,8.487,8.487,0,0,1-1.622-1.636,1.676,1.676,0,0,1-.338-1.3,1.871,1.871,0,0,1,.728-1.172,1.793,1.793,0,0,1,1.067-.372,1.548,1.548,0,0,1,.238.018,1.648,1.648,0,0,1,1.1.73l.065.09A5.7,5.7,0,0,0,21.108,36.9a4.735,4.735,0,0,0,2.069.483,4.583,4.583,0,0,0,.513-.029,5.388,5.388,0,0,0,2.278-.8,10.668,10.668,0,0,0,1.93-1.611c.138-.141.284-.294.474-.5a.751.751,0,0,1,.394-.3.806.806,0,0,1,.256-.041.871.871,0,0,1,.714.373.8.8,0,0,1,.135.524,4.812,4.812,0,0,1-.57,1.864,6.221,6.221,0,0,1-1.22,1.567,7.841,7.841,0,0,1-1.847,1.288,7.69,7.69,0,0,1-2.05.7A7.548,7.548,0,0,1,22.824,40.539Zm2.148-12.17h0a7.373,7.373,0,0,1-2.63-.53,13.281,13.281,0,0,1-3.093-1.756,1.189,1.189,0,0,1-.432-.687,1.423,1.423,0,0,1,.061-.771,1.754,1.754,0,0,1,.521-.753,1.267,1.267,0,0,1,.812-.317,1.151,1.151,0,0,1,.628.193l.209.161,0,0a16.744,16.744,0,0,0,1.936,1.347,4.768,4.768,0,0,0,2.321.74,2.505,2.505,0,0,0,.981-.193,2.74,2.74,0,0,0,.913-.647,2.8,2.8,0,0,0,.531-2.255,4.26,4.26,0,0,0-1.13-2,8.241,8.241,0,0,0-1.711-1.381.531.531,0,0,1-.144-.61.8.8,0,0,1,.264-.38.809.809,0,0,1,.505-.167,1.076,1.076,0,0,1,.181.016,5.736,5.736,0,0,1,2.018.729,4.577,4.577,0,0,1,1.357,1.252,4.974,4.974,0,0,1,.866,3.322,5.475,5.475,0,0,1-.444,1.744,5.087,5.087,0,0,1-1,1.5A4.779,4.779,0,0,1,24.972,28.369ZM7.859,16.485a1.724,1.724,0,0,1-1.119-.439,1.744,1.744,0,0,1-.587-1.128,12.706,12.706,0,0,1,.067-3.308c.04-.321.081-.654.11-1.012a1.98,1.98,0,0,1,.75-1.415,2.31,2.31,0,0,1,1.421-.5,1.751,1.751,0,0,1,1.075.338,1.594,1.594,0,0,1,.594,1.057,8.877,8.877,0,0,1-.926,5.469,1.754,1.754,0,0,1-.619.716A1.427,1.427,0,0,1,7.859,16.485Zm25.119-.75a1.508,1.508,0,0,1-1.183-.507A4.624,4.624,0,0,1,31.074,14a5.342,5.342,0,0,1-.368-1.477,3.131,3.131,0,0,1,.853-2.687,1.772,1.772,0,0,1,.137-.208,1.933,1.933,0,0,1,1.487-.856,1.611,1.611,0,0,1,.452.067,2.175,2.175,0,0,1,1.453,1.268,4.486,4.486,0,0,1,.18,2.453,8.214,8.214,0,0,1-.744,2.314,1.5,1.5,0,0,1-.643.635A1.947,1.947,0,0,1,32.979,15.735ZM.278,7.854a.274.274,0,0,1-.229-.14.306.306,0,0,1-.018-.3A10.425,10.425,0,0,1,2.368,4.454,14.446,14.446,0,0,1,5.5,2.317a13.445,13.445,0,0,1,3.714-1.3l.4-.069A9.66,9.66,0,0,1,11.226.776a2.5,2.5,0,0,1,2,.746,1.7,1.7,0,0,1,.4,1.208,1.106,1.106,0,0,1-.4.789,3.08,3.08,0,0,1-2.112.62c-.166,0-.338,0-.5-.008H10.6c-.16,0-.341-.009-.521-.009s-.314,0-.452.012a14.274,14.274,0,0,0-3.143.536A21.357,21.357,0,0,0,.424,7.806.26.26,0,0,1,.278,7.854Zm38.247-1.6h0l-.167-.042A9.458,9.458,0,0,1,36.524,5.5l-.6-.293A16.537,16.537,0,0,0,33.8,4.3a25.089,25.089,0,0,0-4.845-1.07,1.979,1.979,0,0,1-.972-.369,1.457,1.457,0,0,1-.544-.828A1.482,1.482,0,0,1,27.609.786a1.581,1.581,0,0,1,.767-.661A1.725,1.725,0,0,1,29.03,0a1.926,1.926,0,0,1,.377.038l.3.062a21.676,21.676,0,0,1,5.232,1.7,10.579,10.579,0,0,1,2.3,1.514,6.719,6.719,0,0,1,1.627,2.1c.057.439,0,.548-.055.622L38.8,6.06l-.015.02a.421.421,0,0,1-.26.173Z" transform="translate(11.197 10.99)"/>
  </g>
  <g id="FACIAL_HAIR" data-name="FACIAL HAIR" transform="translate(104.577 109.479)">
    <path id="_Ink-4" data-name="ðŸ– Ink" d="M40.224,2.478c-.282-.842-1.731-.768-1.642.222a2.907,2.907,0,0,1-1.369,2.943,2.46,2.46,0,0,1-3.1-.929,16.846,16.846,0,0,0-1.774-2.539,6.582,6.582,0,0,0-2.5-1.551A5.129,5.129,0,0,0,27.616.392a5.409,5.409,0,0,0-5.09,1.954c-.074.092-.142.186-.208.282-.113-.154-.231-.306-.357-.457a1,1,0,0,0-1.086-.365,6.618,6.618,0,0,0-7.294-.353C11.705,2.563,10.153,4.2,7.846,4.325c-1.828.1-3.818-.942-3.947-2.952C3.831.324,2.4-.55,1.6.421A7.207,7.207,0,0,0,.51,7.646a9.749,9.749,0,0,0,5.528,5.521,21.559,21.559,0,0,0,8.92,1.479A9.245,9.245,0,0,0,22.384,11a8.007,8.007,0,0,0,.564-.879,9.175,9.175,0,0,0,7.205,3.2c2.89.069,6.307-.438,8.35-2.684a8.377,8.377,0,0,0,1.721-8.154" transform="translate(21.972 4.438)"/>
  </g>
</svg>
