<svg id="peep-94" xmlns="http://www.w3.org/2000/svg" width="240" height="324" viewBox="0 0 240 324">
  <g id="BODY" transform="translate(31.056 135.053)">
    <path id="_Skin" data-name="âœ‹ Skin" d="M158.088,123.645q-1.277-7.217-2.342-14.47c-.337-2.3-.665-4.593-.961-6.894-.207-1.612-.522-3.456.575-4.65,1.543-1.681,2.944-3.119,3.133-5.526.178-2.265-.588-4.734-1.067-6.933-1-4.611-2.254-9.165-3.635-13.675-1.4-4.583-2.941-9.122-4.5-13.653a127.35,127.35,0,0,0-4.762-12.575,36.828,36.828,0,0,0-17.249-17.24c-1.875-.949-5.7-4.335-7.66-5.093-1.8-.7-1.795,1.338-3.568.572a7.089,7.089,0,0,1-3.53-2.8c-.862-1.486-3.022-3.565-3.351-5.3-.7-3.667.058-6.789-2.558-9.549A19,19,0,0,0,97.937.833C90.831-1.15,81.354.236,77.067,6.842,75.019,10,74.3,13.81,71.54,16.385c-2.413,2.248-1.873,3.785-5,4.943-.177.066-4.974-.964-5.151-.9-3.419-.732-6.686,1.317-9.823,2.506a68.751,68.751,0,0,0-13.31,6.82A84.361,84.361,0,0,0,16.646,50.585,101.986,101.986,0,0,0,2.666,77.548Q1.457,81.044.5,84.619a7.19,7.19,0,0,0-.3,4.08,5.256,5.256,0,0,0,2.077,2.618c1.26.908,3.787,1.5,3.738,3.325a31.9,31.9,0,0,1-.738,4.222c-.274,1.634-.5,3.278-.723,4.92-1.023,7.471-1.818,14.985-2.17,22.519a194.546,194.546,0,0,0-.12,22.406,2.87,2.87,0,0,0,.415,1.317.3.3,0,0,0,.037.551l.574.122a2.525,2.525,0,0,0,1.464.5c.387.012.773.03,1.16.05,4.078.853,8.155,1.658,12.286,2.268q7.532,1.112,15.109,1.837c10.381,1.01,20.68.675,31.074.131q15.567-.815,31.14-.4c10.4.271,20.793.723,31.193.908,11.62.207,23.221-.111,34.807-1.035a2.387,2.387,0,0,0,2.258-2.969C161.9,142.535,159.769,133.142,158.088,123.645Z" transform="translate(5.493 -6.763)" fill="#d08b5b"/>
    <path id="_Top" data-name="ðŸ‘• Top" d="M51.568,2.66l.227-.087c3.067-1.2,6.259-3.133,9.6-2.418.118-.044,2.289.4,3.776.68L63.755,2.307l-2.491.479Q74.154,24.068,91.753,24.068T118.463,2.787l.829-.229a2.43,2.43,0,0,1,.328.1c1.959.758,5.784,4.144,7.66,5.093a36.829,36.829,0,0,1,17.249,17.24,122.146,122.146,0,0,1,4.616,12.152l.146.424c1.561,4.531,3.1,9.071,4.5,13.653,1.321,4.314,2.522,8.669,3.5,13.074l.132.6c.479,2.2,1.244,4.668,1.067,6.933a6.127,6.127,0,0,1-.615,2.259l-17,6.118,8.1,55.246q-11.125.477-22.272.268c-10.4-.185-20.795-.638-31.193-.908q-15.111-.393-30.2.352l-2.556.131a199.843,199.843,0,0,1-29.462-.213l-.671-.066h0v-8.081l3.458-45-17.524-3.3-17.2-8.358A4.584,4.584,0,0,1,.194,68.423a6.673,6.673,0,0,1,.225-3.784l.079-.3q.957-3.573,2.167-7.071a101.986,101.986,0,0,1,13.98-26.963A84.361,84.361,0,0,1,38.258,9.48,68.751,68.751,0,0,1,51.568,2.66Z" transform="translate(5.493 13.513)" fill="#ec7495"/>
    <path id="_Ink" data-name="ðŸ– Ink" d="M34.171,150.261a1.828,1.828,0,0,1-.215-.012,1.883,1.883,0,0,1-1.19-.633,1.93,1.93,0,0,1-.485-1.264c-.008-1.767.148-3.575.3-5.322v0c.064-.736.129-1.5.181-2.243.146-2.081.309-4.286.529-7.147.425-5.518.9-11.125,1.357-16.547v0c.263-3.116.536-6.338.8-9.516.222-2.7.478-5.638.807-9.24a45.783,45.783,0,0,1-7.046-.8,57.9,57.9,0,0,1-6.831-1.76c-2.121-.681-4.292-1.491-6.637-2.477-1.981-.833-4.1-1.8-6.462-2.947-.117,2.663-.4,5.362-.667,7.973l-.042.4c-.9,8.66-1.564,16.3-2.043,23.345-.232,3.416-.428,7.064-.633,11.827-.083,1.931-.152,3.888-.2,5.817-.018.655-.034,1.308-.047,1.94l-.029,1.481A3.058,3.058,0,0,1,4.7,145.63a2.1,2.1,0,0,1-1.361.534,1.925,1.925,0,0,1-1.318-.534,2.585,2.585,0,0,1-.8-1.481,7.834,7.834,0,0,1-.059-1.7v0c.005-.144.011-.293.014-.44.026-1.09.058-2.208.094-3.325.073-2.2.167-4.437.281-6.647.371-7.2,1.1-14.77,2.235-23.136l.406-2.965c.366-2.657.766-5.487,1.292-8.305a67.229,67.229,0,0,1,1.995-8.154c-.639-.318-1.3-.652-1.974-.991-.344-.174-.7-.348-1.038-.516h0c-.817-.4-1.661-.818-2.458-1.276A3.631,3.631,0,0,1,.092,84.42a6.489,6.489,0,0,1,.309-3.1v0c.042-.161.082-.314.12-.467l.025-.1c.265-1.093.565-2.241.891-3.414A113.014,113.014,0,0,1,6.146,63.841,110.53,110.53,0,0,1,20.469,39.124a85.491,85.491,0,0,1,8.613-9.616c1.584-1.509,3.223-2.935,4.87-4.239a62.945,62.945,0,0,1,5.259-3.745,53.769,53.769,0,0,1,5.51-3.073,48.012,48.012,0,0,1,5.849-2.361,30.028,30.028,0,0,1,5.876-1.367c.94-.105,1.952-.179,3.182-.232.119-.005.243-.008.369-.008a19.19,19.19,0,0,1,2.124.16h.007c.244.027.5.056.742.08a.1.1,0,0,1,.088.1.074.074,0,0,1-.064.08c-1.9.4-3.782.939-5.7,1.506l-.807.239c-2,.591-4.136,1.257-6.244,2.116a55.875,55.875,0,0,0-11.576,6.519A79.611,79.611,0,0,0,20.712,43.523,101.8,101.8,0,0,0,13.9,54.453,114.14,114.14,0,0,0,8.48,66.014a111.552,111.552,0,0,0-4.336,13.03c-.276,1.042-.548,2.133-.809,3.244-.016.07-.045.163-.078.271-.113.372-.284.933-.144,1.187a1.674,1.674,0,0,0,.773.487c.107.045.208.088.284.128l.964.5c1.876.967,5,2.558,5.325,2.717l.49.241a89.359,89.359,0,0,0,12.414,5.131,54.336,54.336,0,0,0,6.494,1.643,42.86,42.86,0,0,0,6.673.715l.071-.77a72.469,72.469,0,0,1,2.08-12.662.168.168,0,0,1,.163-.135.214.214,0,0,1,.207.186,56.484,56.484,0,0,1,.431,7.349c0,2.368-.1,4.737-.218,7.366-.273,6-.614,12.087-.943,17.978v.005c-.148,2.649-.3,5.388-.446,8.083-.164,3.043-.365,6.136-.559,9.127v0c-.083,1.275-.168,2.593-.251,3.9-.071,1.127-.13,2.281-.188,3.4v0c-.165,3.209-.336,6.526-.8,9.724a1.507,1.507,0,0,1-.694,1.029A2.236,2.236,0,0,1,34.171,150.261Zm129.541-3.478a1.3,1.3,0,0,1-.536-.123l-.133-.062a2.436,2.436,0,0,1-1.545-1.491,8.09,8.09,0,0,1-.233-1.1c-.029-.177-.059-.359-.094-.533-.2-1.026-.4-2.057-.579-3.065-.363-2.044-.722-4.113-1.067-6.151l-.324-1.921c-1.07-6.361-2.16-13.142-2.705-19.974-.247-3.1-.513-6.218-.742-8.9l-.191-2.225c-.038-.443-.078-.9-.116-1.334V99.9c-.209-2.366-.424-4.813-.459-7.215l-.957.34-4.671,1.652c-.289.1-.594.229-.916.364a7.466,7.466,0,0,1-2.653.75,2.555,2.555,0,0,1-.31-.018,2.36,2.36,0,0,1-1.434-.616c.446,6.3,1.048,12.409,1.788,18.166.784,6.1,1.574,11.47,2.413,16.424.374,2.21.877,5.128,1.439,8.092.252,1.327.518,2.684.791,4.033.042.209.088.421.132.627.1.454.2.924.27,1.389a2.341,2.341,0,0,1-.524,1.886,1.324,1.324,0,0,1-1.068.6,1.06,1.06,0,0,1-.571-.165,3.5,3.5,0,0,1-.893-.734,2.583,2.583,0,0,1-.49-1.029c-.141-.549-.246-1.122-.347-1.677v-.006c-.044-.242-.09-.492-.137-.736-.287-1.46-.571-2.954-.844-4.443-.586-3.2-1.111-6.341-1.558-9.327-.809-5.395-1.492-10.958-2.029-16.535-.523-5.427-.924-11.018-1.19-16.618-.248-5.2-.344-10.579-.295-16.431.026-3.053.129-5.81.314-8.426.165-2.33.483-4.664.79-6.922l0-.021c.066-.485.134-.987.2-1.481a.084.084,0,0,1,.084-.076.074.074,0,0,1,.075.076c.073,1.3.165,2.63.254,3.912v0c.126,1.813.256,3.688.335,5.536s.132,3.716.183,5.529v0c.032,1.15.066,2.339.106,3.511.138,4.043.331,8.041.572,11.885a2.067,2.067,0,0,1,1.512-.69,1.839,1.839,0,0,1,.3.024,12.626,12.626,0,0,0,1.94-.647c.363-.143.706-.278,1.04-.389l3.535-1.181c1.76-.588,3.655-1.218,5.582-1.836a141.552,141.552,0,0,1-3.785-17.086l-.435-2.6c-.413-2.452-.869-5.076-1.413-7.654-.592-2.811-1.226-5.275-1.936-7.533a49.345,49.345,0,0,0-3.068-7.526,48.523,48.523,0,0,0-4.28-6.909,60.958,60.958,0,0,0-5.262-6.129c-1.693-1.744-3.558-3.51-5.87-5.557-2.005-1.776-4.127-3.479-6.179-5.126-1.469-1.179-2.987-2.4-4.453-3.635a2.035,2.035,0,0,1,.012.65,22.312,22.312,0,0,1-.939,4.013,24.223,24.223,0,0,1-1.635,3.785,25.8,25.8,0,0,1-2.24,3.47,26.2,26.2,0,0,1-11.751,8.675,28.682,28.682,0,0,1-5.076,1.374,30.617,30.617,0,0,1-5.263.453,32.108,32.108,0,0,1-5.385-.459,32.725,32.725,0,0,1-5.269-1.36A35.689,35.689,0,0,1,76.4,34.9a36.685,36.685,0,0,1-6.27-4.936,34.156,34.156,0,0,1-5-6.185,29.978,29.978,0,0,1-3.3-7.173.133.133,0,0,1,.016-.122.153.153,0,0,1,.124-.057.161.161,0,0,1,.132.065l.449.614.066.09a.224.224,0,0,1,.152-.239A27.069,27.069,0,0,0,72.605,10.8a21.108,21.108,0,0,0,3.369-4.561,18.149,18.149,0,0,0,1.135-2.471l.079-.22c.043-.121.086-.246.124-.356A7.124,7.124,0,0,1,78.666.548,1.69,1.69,0,0,1,79.934,0a2.157,2.157,0,0,1,1.7.874,1.664,1.664,0,0,1,.231,1.538,27.053,27.053,0,0,1-2.858,6.039A21.216,21.216,0,0,1,77,11.092a19.283,19.283,0,0,1-2.453,2.3,20.446,20.446,0,0,1-4.968,2.919,14.972,14.972,0,0,1-5.582,1.118c-.386,0-.778-.016-1.163-.049a.256.256,0,0,1-.088-.023l.373.506c1.208,1.635,2.819,3.774,4.57,5.824a49.766,49.766,0,0,0,5.166,5.281,36.732,36.732,0,0,0,4.726,3.49,34.771,34.771,0,0,0,5.214,2.661,31.767,31.767,0,0,0,5.564,1.7,28.8,28.8,0,0,0,5.776.6,26.831,26.831,0,0,0,6.6-.819,23.784,23.784,0,0,0,5.646-2.244,24.429,24.429,0,0,0,4.926-3.589,22.87,22.87,0,0,0,3.837-4.7,20.4,20.4,0,0,0,2.377-5.572,1.549,1.549,0,0,1-.638.134,1.79,1.79,0,0,1-.379-.042c-1.62-.352-3.221-2.047-4.285-3.291a15.567,15.567,0,0,1-2.67-4.38,14.151,14.151,0,0,1-1.028-4.861,10.626,10.626,0,0,1,.221-2.489,8.161,8.161,0,0,1,.86-2.3.336.336,0,0,1,.3-.187.426.426,0,0,1,.406.377l.062.539a21.8,21.8,0,0,0,1.971,7.748,15.864,15.864,0,0,0,2.27,3.378,13.255,13.255,0,0,0,1.577,1.5c.22.175.462.333.7.485a6.017,6.017,0,0,1,1.021.776l.091.1,0-.017a1.756,1.756,0,0,1,.549-1.141,1.492,1.492,0,0,1,.99-.366h.065a5.665,5.665,0,0,1,1.86.489l.03.014a71.718,71.718,0,0,1,13.753,8.883A58.009,58.009,0,0,1,146.689,38.03a52.385,52.385,0,0,1,7.227,15.061,135.789,135.789,0,0,1,3.227,15.162l.01.057.2,1.14.588,3.364c.406,2.309.892,4.991,1.528,7.609a46.815,46.815,0,0,0,2.368,7.343,2.2,2.2,0,0,1,.074,1.751,2.061,2.061,0,0,1-1.23,1.092c-1.387.522-2.909,1.078-4.792,1.752.567,2.433.979,4.957,1.378,7.4v.008c.153.937.311,1.906.475,2.849.7,4.056,1.512,8.166,2.293,12.14v.007c.606,3.084,1.233,6.274,1.807,9.418.338,1.852.665,3.737.982,5.56.312,1.8.635,3.663.969,5.493.2,1.087.41,2.217.6,3.215l.017.091c.123.658.251,1.339.375,2.008.117.63.228,1.271.335,1.89.052.3.112.645.171.981l.029.159.023.116a3.1,3.1,0,0,1,.057,1.415,3.029,3.029,0,0,1-.881,1.265l0,0-.124.127A.92.92,0,0,1,163.712,146.783Z" transform="translate(4.013 -1.057)"/>
  </g>
  <g id="HEAD" transform="translate(78.592 38.043)">
    <path id="_Skin-2" data-name="âœ‹ Skin" d="M76,44.188c-.5-6.5.275-13.308-2.224-19.484C69.421,14.457,57.2,11.04,47.73,7.139,43.935,6.015,31.166,5.857,26.723,4.37,16.666,1,14.264-3.01,6.273,3.4A8.707,8.707,0,0,0,3.465,7.314l.025.007A2.172,2.172,0,0,0,3.9,9.192a13.092,13.092,0,0,0-3.137,13.6c5.8,12.3,5.528,18.948,3.659,32.169C1.98,67.3,7.558,71.812,16.8,78.527a2.28,2.28,0,0,0,.036,2.348C27.513,95.923,47.654,103.108,64.91,95.47c7-3.125,10.132-10.6,11.916-17.352A48.4,48.4,0,0,0,77.852,54.9,96.346,96.346,0,0,1,76,44.188Z" transform="translate(7.8 7.33)" fill="#d08b5b"/>
    <path id="bandana" d="M0,25.756,6.351,30,29.086,5.97,21.521,0S7.795,10.17,5.1,12.854,0,25.756,0,25.756Z" transform="translate(7.295 7.33)" fill="#9fd8e5"/>
    <path id="_Ink-2" data-name="ðŸ– Ink" d="M81.073,127.8a31.823,31.823,0,0,1-7.61-.956,39,39,0,0,1-5.17-1.683,3.087,3.087,0,0,1-1.322-.907,1.222,1.222,0,0,1-.274-.965,1.124,1.124,0,0,1,1.184-.847,2,2,0,0,1,.633.109,46.105,46.105,0,0,0,5.121,1.4,31.73,31.73,0,0,0,6.472.735,20.721,20.721,0,0,0,2.679-.166,30.726,30.726,0,0,0,8.753-2.317,19.92,19.92,0,0,0,3.83-2.266,18.58,18.58,0,0,0,3.314-3.253,21.74,21.74,0,0,0,2.685-4.425,30.724,30.724,0,0,0,1.943-5.784A48.279,48.279,0,0,0,104.4,99.15a78.572,78.572,0,0,0,.119-9.06c-.071-1.747-.211-3.523-.347-5.24-.158-2-.322-4.062-.376-6.092-.039-1.482-.057-2.988-.074-4.444-.026-2.174-.052-4.423-.15-6.633l-.054-1.259c-.064-1.486-.131-2.943-.241-4.422-.04-.174-.079-.352-.117-.523-.086-.392-.175-.8-.288-1.186a25.54,25.54,0,0,0-1.731-4.419,1.221,1.221,0,0,1-.527.241,8.476,8.476,0,0,1-1.513.143,6.428,6.428,0,0,1-2.674-.564,6.581,6.581,0,0,1-1.72-1.118,2.629,2.629,0,0,1-.546-.649h-.049a2.7,2.7,0,0,1-.932-.158A1.863,1.863,0,0,1,92,52.441a1.479,1.479,0,0,1,.063-.8l.019-.052-.046-.017a8.129,8.129,0,0,1-2.882,3.572,9.191,9.191,0,0,1-3.173,1.392,15.707,15.707,0,0,1-3.461.4l-.345,0a47.836,47.836,0,0,1-7.4-.759c-.8-.127-1.405-.247-1.971-.389l-.03.031c-.016.017-.032.034-.048.049a7.351,7.351,0,0,1-2.336,1.523,7.03,7.03,0,0,1-2.65.516,7.383,7.383,0,0,1-2.941-.618,10.423,10.423,0,0,1-2.193-1.3,15.208,15.208,0,0,1-1.886-1.737c-.018.7-.053,1.35-.108,1.972l-.024.259a5.169,5.169,0,0,1-1.258,3.384,3.093,3.093,0,0,1-2.219.86,5.3,5.3,0,0,1-1.592-.27,8.908,8.908,0,0,1-1.531-.663c0,.044,0,.092,0,.137.426,1.452.861,2.93,1.282,4.359l.009.03.1.333.1.336.1.34v0a15.115,15.115,0,0,1,.7,3.064,3.977,3.977,0,0,1-.909,3,2.526,2.526,0,0,1-1.906.847,3.3,3.3,0,0,1-.954-.149,7.933,7.933,0,0,1-2.855-1.929l0,0c-.167-.151-.324-.294-.484-.435l-.63-.546a71.529,71.529,0,0,1,2,8.135,52.227,52.227,0,0,1,.861,8.31.547.547,0,0,1-.54.541c-.058,0-.116,0-.175,0a5.179,5.179,0,0,1-1.891-.378,1.085,1.085,0,0,1-.116-.011,7.794,7.794,0,0,1-3.162-1.2,5.9,5.9,0,0,1,.257,2.209.2.2,0,0,1-.2.174.148.148,0,0,1-.152-.128,5.194,5.194,0,0,0-2.013-3.038,6.2,6.2,0,0,0-1.665-.907,5.421,5.421,0,0,0-1.833-.331,4.624,4.624,0,0,0-.862.08,6.652,6.652,0,0,0-3.667,2.087,7.622,7.622,0,0,0-1.205,1.763,7.75,7.75,0,0,0-.681,2.042,10.468,10.468,0,0,0,.294,4.733,11.977,11.977,0,0,0,.9,2.248,10.818,10.818,0,0,0,1.308,1.962,6.1,6.1,0,0,0,3.548,2.221,4.648,4.648,0,0,0,.725.057,4.419,4.419,0,0,0,1.243-.175,6.583,6.583,0,0,0,.644-.242l.136-.056a3.6,3.6,0,0,1,.565-.159,3.121,3.121,0,0,0,.6-.177,1.027,1.027,0,0,1,.424-.094.888.888,0,0,1,.764.415.9.9,0,0,1,.017.886,3.472,3.472,0,0,1-1.261,1.579,11.093,11.093,0,0,1,.834,1.24c.1.168.182.3.235.372a37.338,37.338,0,0,0,2.58,3.166,26.946,26.946,0,0,0,3.078,2.834l.46.364a10.855,10.855,0,0,1,2.715,2.817,1.415,1.415,0,0,1,.01,1.448,1.549,1.549,0,0,1-.517.554,1.384,1.384,0,0,1-.745.22h-.019a6.1,6.1,0,0,1-2.405-.542,8.608,8.608,0,0,1-2.074-1.344,19.265,19.265,0,0,1-3.236-3.833c-.246-.368-.486-.767-.713-1.188a2.538,2.538,0,0,1-.268.359l.2.528a1.186,1.186,0,0,1-.129,1.135,1.567,1.567,0,0,1-.592.5,1.729,1.729,0,0,1-.767.185,1.354,1.354,0,0,1-.664-.166,1.231,1.231,0,0,1-.5-.535,22.171,22.171,0,0,0-1.826-3,1.552,1.552,0,0,1-1.016-.619c-.18-.261-.37-.527-.554-.785-.39-.546-.793-1.111-1.148-1.692-.274-.261-.567-.523-.9-.8l-.045.04,0,0c-.072.064-.147.129-.218.2a11.212,11.212,0,0,1-1.446,2.433l-.126.161a12.334,12.334,0,0,1-1.947,2.018A5.724,5.724,0,0,1,29.206,109a.616.616,0,0,1-.115.011.707.707,0,0,1-.639-.442.522.522,0,0,1,.157-.6,20.109,20.109,0,0,1,1.68-1.312,14.59,14.59,0,0,0,2.266-1.892,14.229,14.229,0,0,0,1.564-2.051l.1-.168c.069-.113.143-.233.234-.376-.53-.362-1.068-.731-1.588-1.088a13.6,13.6,0,0,1-2.925,1.753,20.428,20.428,0,0,0-2.04,1.1l-.16.105a1.356,1.356,0,0,1-.761.246,1.329,1.329,0,0,1-.809-.288,1.743,1.743,0,0,1-.537-.705,1.45,1.45,0,0,1,.284-1.623,31.911,31.911,0,0,0,2.6-3.133h0c.294-.386.6-.784.9-1.169a8.448,8.448,0,0,1-.885-3.345c-.038-.342-.069-.694-.1-1v0h-.053a4.061,4.061,0,0,1-2.283-.753l-.263-.188a7.95,7.95,0,0,1-2.39.381l-.193,0a2.229,2.229,0,0,1-1.226-.388,2.149,2.149,0,0,1-.741-.907,2.323,2.323,0,0,1-.17-1.26,2.42,2.42,0,0,1,.571-1.241,4.417,4.417,0,0,1,3.376-1.451,5.1,5.1,0,0,1,1.9.367c.056-.029.116-.061.173-.093a2.053,2.053,0,0,1,.03-1.052l-.028-.189a4.892,4.892,0,0,1-.741-2,4.638,4.638,0,0,1,.071-1.7,2.891,2.891,0,0,1,.132-.386c.025-.063.05-.128.073-.193a3.746,3.746,0,0,1-.254-1.118c-.037-.044-.079-.1-.118-.15a3.03,3.03,0,0,1-.575-1.95,3.075,3.075,0,0,1,.71-1.773c0-.066.01-.13.018-.19-.048-.108-.093-.221-.135-.334a3.776,3.776,0,0,1-1.3-3.049,3.178,3.178,0,0,1,.812-1.863,1.059,1.059,0,0,1,.009-.739,8.853,8.853,0,0,1-.518-3.091,13.828,13.828,0,0,1,.407-3.261,2.884,2.884,0,0,1-.16-1.053,3.234,3.234,0,0,1,.929-2.1,3.138,3.138,0,0,1,.949-.671,2.752,2.752,0,0,1,1.143-.251h.031a2.753,2.753,0,0,1,.554.065l0-.038a4.275,4.275,0,0,1,.384-1.312.829.829,0,0,1-.257-.148,14.456,14.456,0,0,1-3.3,1.271,1,1,0,0,1-.242.03,1.159,1.159,0,0,1-.989-.607.928.928,0,0,1,.042-.975,7.12,7.12,0,0,1,.806-1.007,10.323,10.323,0,0,0-1.258.085,1.477,1.477,0,0,1-.19.012,2.056,2.056,0,0,1-1.056-.327,2.934,2.934,0,0,1-.864-.813c-.616.6-1.241,1.206-1.846,1.792l0,0a2.364,2.364,0,0,1-1.666.706,2.473,2.473,0,0,1-1.643-.645,2.664,2.664,0,0,1-.866-1.663,3.513,3.513,0,0,1-1.282-.638A21.4,21.4,0,0,1,11.13,57.4a22.5,22.5,0,0,1-4.01.527l-.1,0a2.226,2.226,0,0,1-1.2-.341A2.5,2.5,0,0,1,5,56.723a2.738,2.738,0,0,1-.368-1.276,2.5,2.5,0,0,1,.317-1.319A12.685,12.685,0,0,1,7.19,51.242,26.28,26.28,0,0,1,3,52.15a1.3,1.3,0,0,1-.171.011,2.328,2.328,0,0,1-1.179-.383A2.127,2.127,0,0,1,.821,50.9a9.407,9.407,0,0,1,.28-8.26c.042-.085.089-.168.135-.248h0l.033-.059c.143-.357.3-.708.462-1.044A5.343,5.343,0,0,1,.3,38.175a6.923,6.923,0,0,1,.509-3.434A2.206,2.206,0,0,1,.557,32.8a17.037,17.037,0,0,1,1.28-2.655,16.293,16.293,0,0,1,1.712-2.368,5.14,5.14,0,0,1-.58-2.46,6.273,6.273,0,0,1,.257-1.724,6.414,6.414,0,0,1,1.8-2.927,8.69,8.69,0,0,1,3.567-1.9,10.193,10.193,0,0,1,2.066-2.576l0-.005c.031-.068.062-.136.1-.2a7.268,7.268,0,0,1,2.584-2.786,8,8,0,0,1,1.674-.795,8.932,8.932,0,0,1,1.819-.411,2.661,2.661,0,0,1,.516-1.309,2.29,2.29,0,0,1,1.133-.822,7.754,7.754,0,0,1,1.149-2.3,3.264,3.264,0,0,1,1-.906,2.395,2.395,0,0,1,2.45,0,15.141,15.141,0,0,1,2,1.365,2.743,2.743,0,0,1,.963-.246l.091-.006,2.079-.106c.552-.245,1.112-.5,1.654-.751.3-.136.631-.289.957-.437a6.985,6.985,0,0,1,1.744-1.063,7.086,7.086,0,0,1,2.2-.531,18.845,18.845,0,0,1,1.822-.505,20.076,20.076,0,0,1,4.286-.481h.175c.031-.4.046-.794.043-1.183l0-.2a2.351,2.351,0,0,1,.63-1.652A2.652,2.652,0,0,1,43.27.029,2.578,2.578,0,0,1,43.652,0,2.263,2.263,0,0,1,45.09.505a3.123,3.123,0,0,1,.922,1.272l.024.061c.143.371.305.741.5,1.133A8.763,8.763,0,0,1,48.449,2.3,9.242,9.242,0,0,1,50.5,2.065a8.018,8.018,0,0,1,3.375.713,6.35,6.35,0,0,1,1.437.919,5.887,5.887,0,0,1,1.147,1.32,4.928,4.928,0,0,1,.658,1.6A6.483,6.483,0,0,1,57.251,8.3a18.193,18.193,0,0,1-.586,3.412c-.063.263-.127.535-.187.8l-.363,1.612a2.755,2.755,0,0,1,.874.9,2.176,2.176,0,0,1,.33,1.182l0,.064-.147,2.249a11.69,11.69,0,0,0,1.278-1.545c.269-.493.556-.971.854-1.42a2.48,2.48,0,0,1,2.09-1.2,2.67,2.67,0,0,1,2.235,1.258,2.47,2.47,0,0,1,.026,2.486,15.226,15.226,0,0,1-.949,1.6,14.258,14.258,0,0,0-.951,2.327,2.223,2.223,0,0,1,1.3,2.014A5.964,5.964,0,0,1,62.9,25.76a5.835,5.835,0,0,1-.611,1.538,6.44,6.44,0,0,1-1.011,1.324,7.532,7.532,0,0,1-1.35,1.077,2.274,2.274,0,0,1-1.223.369A2.161,2.161,0,0,1,58.183,30c-.09.121-.191.259-.287.4a12.738,12.738,0,0,1,2.133,2.209,38.478,38.478,0,0,1,5.6-.414,10.233,10.233,0,0,1,4.537-.945,17.541,17.541,0,0,1,2.941.266,29.322,29.322,0,0,1,2.951.718h0c.556.156,1.132.318,1.7.456a22.023,22.023,0,0,0,2.975.44c.653.066,1.327.134,1.99.243a8.91,8.91,0,0,1,2.891.975,6.8,6.8,0,0,1,2.188,1.878,7.529,7.529,0,0,1,3.7,1.264c1.656,1.058,3.333,2.145,4.955,3.2l.009.006c.894.579,1.818,1.177,2.731,1.766a2.63,2.63,0,0,1,1.172,2.781l-.012.072-.086.469.2.289.177.25a17.418,17.418,0,0,1,1.971,3.253,37.733,37.733,0,0,1,2.543,4.252,30.976,30.976,0,0,1,2.418,6.214c.132.507.281,1.081.375,1.644a4.317,4.317,0,0,1-.091,1.609h0c-.032.17-.065.345-.092.528-.066.454-.113.919-.159,1.369-.05.493-.1,1-.178,1.5a1.065,1.065,0,0,1-.424.71,1.381,1.381,0,0,1-.771.249c.21,1.6.36,3.2.508,4.834.222,2.49.364,4.995.464,6.9a5.458,5.458,0,0,0,2.8,1.864,4.052,4.052,0,0,0,1.05.133,8.264,8.264,0,0,0,2.743-.6.778.778,0,0,1,.265-.048.835.835,0,0,1,.712.45.915.915,0,0,1,.026.909,3.2,3.2,0,0,1-1.338,1.281,3.812,3.812,0,0,1-1.737.387,5.712,5.712,0,0,1-2.413-.567,5.155,5.155,0,0,1-2-1.612c.03.633.063,1.278.094,1.9v.008l0,.1.031.607c.063,1.178.14,2.385.214,3.553.187,2.945.381,5.99.386,8.984,0,1.613-.048,3.077-.155,4.475a39.993,39.993,0,0,1-.574,4.424,27.824,27.824,0,0,1-3.089,8.484,27.331,27.331,0,0,1-5.472,6.868,26.432,26.432,0,0,1-7.339,4.724,25.8,25.8,0,0,1-8.69,2.051C82.193,127.787,81.631,127.8,81.073,127.8Zm-39.26-25.47h0c-.213.046-.423.081-.624.106l.008.02c.059.145.119.3.179.449.173.1.345.189.51.27a4.353,4.353,0,0,1-.074-.845ZM31.131,99.477a4.714,4.714,0,0,1,.536.031v-.031l-.017-.006a.758.758,0,0,1-.1-.037,4.668,4.668,0,0,1-.572-.327l-.14.259-.06.112-.007.013C30.893,99.481,31.013,99.477,31.131,99.477ZM28.377,61.266c-.214.007-.289.108-.288.174a.052.052,0,0,0,.053.057c.023,0,.086-.014.168-.144A.646.646,0,0,1,28.377,61.266ZM52.5,32.2a15.456,15.456,0,0,0-6.23,1.667,28.816,28.816,0,0,0-5.434,3.483,36.982,36.982,0,0,0-3.868,3.591A47.464,47.464,0,0,0,33.589,45a44.2,44.2,0,0,0-1.4,4.29c-.167.613-.3,1.241-.42,1.849v0c-.069.339-.141.689-.219,1.033l-.067.3a4.652,4.652,0,0,0-.39,1.019,3,3,0,0,0,1.432.794.887.887,0,0,1,.44.255,9.323,9.323,0,0,0,1.053-2.347l.008-.038A48.569,48.569,0,0,1,36.785,48.1a57.962,57.962,0,0,1,4.341-5.137,41.709,41.709,0,0,1,5-4.484,31.565,31.565,0,0,1,4.334-2.756,30.122,30.122,0,0,1,4.721-1.993A9.889,9.889,0,0,0,52.5,32.2Zm-7.65,61.6-.067,0c-1.3-.089-2.187-1.084-3.044-2.047-.306-.344-.6-.669-.9-.957a20.287,20.287,0,0,0-4.126-3.031A.233.233,0,0,1,36.6,87.5a.236.236,0,0,1,.211-.2h.025a16.278,16.278,0,0,1,2.634.341,11.436,11.436,0,0,1,2.508.873l.146.071a11.98,11.98,0,0,1,2.525,1.589,4.251,4.251,0,0,1,.954,1.142,2.327,2.327,0,0,1,.29,1.369,1.434,1.434,0,0,1-.315.759A.937.937,0,0,1,44.853,93.8Z" transform="translate(-21.082 -20.501)"/>
  </g>
  <g id="FACE" transform="translate(112.183 77.354)">
    <path id="_Ink-3" data-name="ðŸ– Ink" d="M22.824,40.539a8.045,8.045,0,0,1-3.052-.61,8.621,8.621,0,0,1-1.992-1.145,8.487,8.487,0,0,1-1.622-1.636,1.676,1.676,0,0,1-.338-1.3,1.871,1.871,0,0,1,.728-1.172,1.793,1.793,0,0,1,1.067-.372,1.548,1.548,0,0,1,.238.018,1.648,1.648,0,0,1,1.1.73l.065.09A5.7,5.7,0,0,0,21.108,36.9a4.735,4.735,0,0,0,2.069.483,4.583,4.583,0,0,0,.513-.029,5.388,5.388,0,0,0,2.278-.8,10.668,10.668,0,0,0,1.93-1.611c.138-.141.284-.294.474-.5a.751.751,0,0,1,.394-.3.806.806,0,0,1,.256-.041.871.871,0,0,1,.714.373.8.8,0,0,1,.135.524,4.812,4.812,0,0,1-.57,1.864,6.221,6.221,0,0,1-1.22,1.567,7.841,7.841,0,0,1-1.847,1.288,7.69,7.69,0,0,1-2.05.7A7.548,7.548,0,0,1,22.824,40.539Zm2.148-12.17h0a7.373,7.373,0,0,1-2.63-.53,13.281,13.281,0,0,1-3.093-1.756,1.189,1.189,0,0,1-.432-.687,1.423,1.423,0,0,1,.061-.771,1.754,1.754,0,0,1,.521-.753,1.267,1.267,0,0,1,.812-.317,1.151,1.151,0,0,1,.628.193l.209.161,0,0a16.744,16.744,0,0,0,1.936,1.347,4.768,4.768,0,0,0,2.321.74,2.505,2.505,0,0,0,.981-.193,2.74,2.74,0,0,0,.913-.647,2.8,2.8,0,0,0,.531-2.255,4.26,4.26,0,0,0-1.13-2,8.241,8.241,0,0,0-1.711-1.381.531.531,0,0,1-.144-.61.8.8,0,0,1,.264-.38.809.809,0,0,1,.505-.167,1.076,1.076,0,0,1,.181.016,5.736,5.736,0,0,1,2.018.729,4.577,4.577,0,0,1,1.357,1.252,4.974,4.974,0,0,1,.866,3.322,5.475,5.475,0,0,1-.444,1.744,5.087,5.087,0,0,1-1,1.5A4.779,4.779,0,0,1,24.972,28.369ZM7.859,16.485a1.724,1.724,0,0,1-1.119-.439,1.744,1.744,0,0,1-.587-1.128,12.706,12.706,0,0,1,.067-3.308c.04-.321.081-.654.11-1.012a1.98,1.98,0,0,1,.75-1.415,2.31,2.31,0,0,1,1.421-.5,1.751,1.751,0,0,1,1.075.338,1.594,1.594,0,0,1,.594,1.057,8.877,8.877,0,0,1-.926,5.469,1.754,1.754,0,0,1-.619.716A1.427,1.427,0,0,1,7.859,16.485Zm25.119-.75a1.508,1.508,0,0,1-1.183-.507A4.624,4.624,0,0,1,31.074,14a5.342,5.342,0,0,1-.368-1.477,3.131,3.131,0,0,1,.853-2.687,1.772,1.772,0,0,1,.137-.208,1.933,1.933,0,0,1,1.487-.856,1.611,1.611,0,0,1,.452.067,2.175,2.175,0,0,1,1.453,1.268,4.486,4.486,0,0,1,.18,2.453,8.214,8.214,0,0,1-.744,2.314,1.5,1.5,0,0,1-.643.635A1.947,1.947,0,0,1,32.979,15.735ZM.278,7.854a.274.274,0,0,1-.229-.14.306.306,0,0,1-.018-.3A10.425,10.425,0,0,1,2.368,4.454,14.446,14.446,0,0,1,5.5,2.317a13.445,13.445,0,0,1,3.714-1.3l.4-.069A9.66,9.66,0,0,1,11.226.776a2.5,2.5,0,0,1,2,.746,1.7,1.7,0,0,1,.4,1.208,1.106,1.106,0,0,1-.4.789,3.08,3.08,0,0,1-2.112.62c-.166,0-.338,0-.5-.008H10.6c-.16,0-.341-.009-.521-.009s-.314,0-.452.012a14.274,14.274,0,0,0-3.143.536A21.357,21.357,0,0,0,.424,7.806.26.26,0,0,1,.278,7.854Zm38.247-1.6h0l-.167-.042A9.458,9.458,0,0,1,36.524,5.5l-.6-.293A16.537,16.537,0,0,0,33.8,4.3a25.089,25.089,0,0,0-4.845-1.07,1.979,1.979,0,0,1-.972-.369,1.457,1.457,0,0,1-.544-.828A1.482,1.482,0,0,1,27.609.786a1.581,1.581,0,0,1,.767-.661A1.725,1.725,0,0,1,29.03,0a1.926,1.926,0,0,1,.377.038l.3.062a21.676,21.676,0,0,1,5.232,1.7,10.579,10.579,0,0,1,2.3,1.514,6.719,6.719,0,0,1,1.627,2.1c.057.439,0,.548-.055.622L38.8,6.06l-.015.02a.421.421,0,0,1-.26.173Z" transform="translate(11.197 10.99)"/>
  </g>
  <g id="FACIAL_HAIR" data-name="FACIAL HAIR" transform="translate(104.577 109.479)">
    <path id="_Ink-4" data-name="ðŸ– Ink" d="M40.546,57.929h0a51.449,51.449,0,0,1-9.4-.884A52.034,52.034,0,0,1,22.1,54.5a43.351,43.351,0,0,1-8.031-4.03,30.631,30.631,0,0,1-6.339-5.352A14.343,14.343,0,0,1,4.8,42.566,15.8,15.8,0,0,1,2.68,39.428a20.4,20.4,0,0,1-1.419-3.587,28.4,28.4,0,0,1-.838-3.9C-.354,26.63.089,20.894.565,15.934c.12-1.062.211-2.168.3-3.238.323-3.889.656-7.91,2.382-11.373a1.1,1.1,0,0,1,.267-.9A1.184,1.184,0,0,1,4.377,0a.836.836,0,0,1,.78.552C6.276,3.08,7.545,5.946,8.966,8.625c.753,1.419,1.489,2.68,2.251,3.854a35.587,35.587,0,0,0,2.64,3.585,16.546,16.546,0,0,0,2.179,2.418,21.753,21.753,0,0,0,2.894,2.249,16.854,16.854,0,0,0,3.231,1.659,9.222,9.222,0,0,0,3.191.647,4.731,4.731,0,0,0,3.191-1.107,6.809,6.809,0,0,0,2-3.779,8.152,8.152,0,0,1,2.449-3.033,13.6,13.6,0,0,1,3.7-2,22.576,22.576,0,0,1,4.362-1.1,29.189,29.189,0,0,1,4.439-.336,25.166,25.166,0,0,1,4.013.3,7.245,7.245,0,0,1,3.778,2.188,11.638,11.638,0,0,1,1.777,3.008,8.623,8.623,0,0,0,1.573,2.606,3.566,3.566,0,0,0,1.27.816,5.262,5.262,0,0,0,1.884.3,9.442,9.442,0,0,0,.974-.054.76.76,0,0,0,.211.03l.055,0a7.783,7.783,0,0,0,.794-1.527c.094-.217.183-.422.276-.619-.01-.052-.022-.105-.034-.157a2.426,2.426,0,0,1-.056-.311,1.832,1.832,0,0,1,.569-.553,1.454,1.454,0,0,1,.757-.209,1.865,1.865,0,0,1,.658.129,1.166,1.166,0,0,1,.078.232,71.219,71.219,0,0,1,1.7,16.724,47.77,47.77,0,0,1-.942,8.376,36.3,36.3,0,0,1-2.58,7.905,25.911,25.911,0,0,1-9.755,5.357,36.666,36.666,0,0,1-5.8,1.281A44.507,44.507,0,0,1,40.546,57.929ZM45.03,18.557a14.406,14.406,0,0,0-2.2.169,12.141,12.141,0,0,0-2.132.523,8.461,8.461,0,0,0-1.868.9,5.5,5.5,0,0,0-1.413,1.31,4.3,4.3,0,0,0-.806,1.967,5.841,5.841,0,0,0,.257,2.538,4.553,4.553,0,0,0,1.086,1.518,2.618,2.618,0,0,0,1.687.763,1.739,1.739,0,0,0,.538-.085c.667-.216,1.027-.983,1.375-1.725a5.053,5.053,0,0,1,.676-1.177,4.036,4.036,0,0,1,1.1-.8,2.43,2.43,0,0,1,1.036-.24,3.359,3.359,0,0,1,1.984.785,15.68,15.68,0,0,1,1.794,1.67c.378.389.734.756,1.088,1.072a1.49,1.49,0,0,0,.828.282,1.364,1.364,0,0,0,.985-.47,3,3,0,0,0,.747-2.063,7.1,7.1,0,0,0-.356-1.739,11.479,11.479,0,0,0-.856-1.98,6.4,6.4,0,0,0-2.844-2.948A12.673,12.673,0,0,0,45.03,18.557Z" transform="translate(-1.057 -5.706)"/>
  </g>
  <g id="ACCESORIES" transform="translate(88.521 88.978)">
    <path id="_Ink-5" data-name="ðŸ– Ink" d="M45.294,25.4h0a12.5,12.5,0,0,1-2.558-.268,13.039,13.039,0,0,1-4.712-2.023,12.706,12.706,0,0,1-1.971-1.678,11.914,11.914,0,0,1-2.516-3.941,12.161,12.161,0,0,1-.792-4.97,1.75,1.75,0,0,1-1.18-.643,3.434,3.434,0,0,1-.477-1.1c-.311-1.017-.664-2.17-3.024-2.562A4.587,4.587,0,0,1,26.1,6.91a53.931,53.931,0,0,0-5.73-.322,41.528,41.528,0,0,0-6.522.5A35.777,35.777,0,0,0,7.4,8.736c-.375.157-.772.3-1.157.442a13.691,13.691,0,0,0-1.961.829A2.845,2.845,0,0,0,3,11.274a3.189,3.189,0,0,0,.159,2.508,1.262,1.262,0,0,1-1.232,1.2,1.06,1.06,0,0,1-.772-.333l0,0v0A8.717,8.717,0,0,1,.04,11.6,3.963,3.963,0,0,1,.367,9.324C.981,8.062,2.36,7.1,4.585,6.367a42.331,42.331,0,0,1,6.283-1.322l.395-.063a42.37,42.37,0,0,1,8.913-.933c.311,0,.627,0,.939.01.383.016.787.022,1.214.029h0a14.174,14.174,0,0,1,3.681.355l.016,0a2.832,2.832,0,0,1,1.626-1.392A16.317,16.317,0,0,1,31.124,2a41.812,41.812,0,0,1,4.735-.671c1.747-.156,3.57-.235,5.416-.235a57.767,57.767,0,0,1,5.917.292A35.627,35.627,0,0,1,52.5,2.3a14.114,14.114,0,0,1,3.979,1.6,4.034,4.034,0,0,1,1.926,2.355c.108,0,.216,0,.322,0,.66,0,1.289.052,1.795.093l.07.006c.547.045,1.063.087,1.58.087a6.266,6.266,0,0,0,2.038-.306,4.023,4.023,0,0,1,1.753-2.68,13.328,13.328,0,0,1,3.91-1.918A30.015,30.015,0,0,1,74.948.385,37.272,37.272,0,0,1,80.188,0a21.59,21.59,0,0,1,4.573.421A8.286,8.286,0,0,1,86.025.64a1.571,1.571,0,0,1,.481.172c.167.025.343.052.522.082a1.256,1.256,0,0,1,.77.444,1.652,1.652,0,0,1,.351.816A1.546,1.546,0,0,1,87.407,3.8a2.355,2.355,0,0,0-1.036.958,1.922,1.922,0,0,0-.183,1.391,1.552,1.552,0,0,1-.07.98,1.428,1.428,0,0,1-.578.653,29.724,29.724,0,0,1-.992,7.291,15.959,15.959,0,0,1-1.389,3.4A12.2,12.2,0,0,1,80.885,21.4a12.839,12.839,0,0,1-3.13,1.533,9.811,9.811,0,0,1-3.009.49,8.433,8.433,0,0,1-3.655-.817,8.9,8.9,0,0,1-2.958-2.3,10.5,10.5,0,0,1-1.4-2.146,12.336,12.336,0,0,1-.931-2.6,14.688,14.688,0,0,1-.387-2.992,17.663,17.663,0,0,1,.23-3.323,1.081,1.081,0,0,1-.32-.344c-.052-.084-.1-.174-.156-.285a5.116,5.116,0,0,0-2.371-.472,7.235,7.235,0,0,0-.99.068,4.388,4.388,0,0,0-2.927,1.639c-.11.114-.224.232-.343.352a1.069,1.069,0,0,1-.757.564l-.047.262a41.244,41.244,0,0,1-1.372,5.987,15.5,15.5,0,0,1-1.234,2.794,11.21,11.21,0,0,1-1.871,2.44,11.512,11.512,0,0,1-7.96,3.145Zm.532-20.077a27.661,27.661,0,0,0-4.709.329,11.769,11.769,0,0,0-4.378,1.621A4.251,4.251,0,0,0,34.882,9.99a9.9,9.9,0,0,1-.535,1.319,2.845,2.845,0,0,1-.863,1.034A14.541,14.541,0,0,0,35,17.162a12.96,12.96,0,0,0,2.78,3.6,11.987,11.987,0,0,0,3.595,2.256,10.634,10.634,0,0,0,3.959.781h0a9.408,9.408,0,0,0,3.208-.554,9.174,9.174,0,0,0,2.9-1.709A10.768,10.768,0,0,0,53.787,18.6a15.337,15.337,0,0,0,1.535-4.236,29.707,29.707,0,0,0,.84-4.626c-.357-.314-.691-.625-1.013-.925a14.55,14.55,0,0,0-2.92-2.286,10.674,10.674,0,0,0-4.523-1.187l-.175,0C46.975,5.332,46.4,5.324,45.826,5.324ZM66.748,10.09a21.062,21.062,0,0,0,.439,3.617,14.193,14.193,0,0,0,1.192,3.479,8.023,8.023,0,0,0,2.144,2.706,6.209,6.209,0,0,0,3.293,1.3c.3.026.609.039.91.039a8.723,8.723,0,0,0,3.132-.547,5.442,5.442,0,0,0,2.45-1.8,13.729,13.729,0,0,0,1.5-2.64,17.406,17.406,0,0,0,.947-2.878,26.756,26.756,0,0,0,.663-5.983A5.531,5.531,0,0,1,82.243,5.4a3.91,3.91,0,0,0-.88-1.5,3.049,3.049,0,0,0-2.147-.632c-.228,0-.477.011-.74.033a19.785,19.785,0,0,0-4.61.778,9.052,9.052,0,0,0-2.781,1.377,6.2,6.2,0,0,0-1.5,1.637A10.274,10.274,0,0,0,68.8,8.649c-.378.892-.651,1.536-1.451,1.536A2.242,2.242,0,0,1,66.748,10.09Z" transform="translate(-2.746 1.902)"/>
  </g>
</svg>
