<svg id="peep-1" xmlns="http://www.w3.org/2000/svg" width="240" height="324" viewBox="0 0 240 324">
  <g id="BODY" transform="translate(31.056 135.053)">
    <path id="_Skin" data-name="âœ‹ Skin" d="M157.3,142.745c-.513-4.762-.828-9.557-1.01-14.343s.056-9.619.16-14.4c.212-9.728.556-19.48-.218-29.193a130.27,130.27,0,0,0-5.062-27.116A69.133,69.133,0,0,0,146.4,44.958c-2.135-3.991-5.516-6.648-9.231-9.085-3.955-2.595-7.878-5.239-11.817-7.857-3.307-2.2-9.258-4.757-11.971-7.7-2.855-3.092-3.391-10.757-5.293-14.42C106.236,2.331,100.995,0,96.959,0c-6.68,0-11.741-.341-17.233,5.84-2.74,3.084-.56,6.2-3.432,9.162-2.641,2.722-9.395,5.519-12.8,7.1-4.077,1.891-8.256,3.561-12.5,5.049-4.325,1.517-8.76,2.648-13.109,4.081-4.169,1.373-9.613,7.031-12.85,10.025C22.031,44.041,21.284,43.729,19,47.11,13.976,54.531,8.95,62.037,4.952,70.071c-1.991,4-3.92,8.212-4.642,12.657C-.461,87.469.3,92.05,1.553,96.64c1.272,4.671,5.312,9.118,6.629,13.778.607,2.147-1.475,4.49-.518,6.514a14.9,14.9,0,0,0,1.766,2.791c.528.678,2.589.528,2.856,1.358s-1.221,2.579-1.244,3.447c-.031,1.242-.081,2.484-.122,3.726l-.241,7.343L10.2,150.074a16.48,16.48,0,0,0,.25,4.609,3.342,3.342,0,0,1-.384-.418c-.346-.452-1.081-.069-.787.46a4.9,4.9,0,0,0,2.025,1.951c.963,1.42,146.827,4.593,147.545.44.4-2.33-.33-4.825-.623-7.14C157.926,147.564,157.563,145.163,157.3,142.745Z" transform="translate(4.437 -6.341)" fill="#d08b5b"/>
    <path id="_Top" data-name="ðŸ‘• Top" d="M0,0,150.654,8.24q.162,1.565.287,3.134c.774,9.713.43,19.465.218,29.193-.028,1.29-.066,2.583-.1,3.879L136.194,46.9,30.542,49.441,4.136,46.288l-1.1-1.9-.759-3.309c.326-1.358.983-2.764.607-4.1-.11-.388-.238-.774-.382-1.16l.136-2.655Z" transform="translate(9.731 67.093)" fill="#fdea6b"/>
    <path id="_Ink" data-name="ðŸ– Ink" d="M162.183,155.6a1.57,1.57,0,0,1-1.11-.432,4.294,4.294,0,0,1-1.026-2.635v0c-.02-.135-.041-.274-.064-.412-.157-.974-.308-1.942-.45-2.877-.32-2.092-.62-4.169-.892-6.176-.529-3.9-.985-7.949-1.356-12.032a13.326,13.326,0,0,0-.416-2.734,10.338,10.338,0,0,1-.273-2.934c-.064-2.511-.07-4.43-.021-6.224.01-.358.014-.728.018-1.086.008-.709.016-1.443.069-2.162-.613.084-1.237.157-1.84.228-.46.054-.937.11-1.409.171-.444.058-.9.138-1.376.222a16.947,16.947,0,0,1-2.853.338c-.177,0-.349-.006-.512-.019.177,1.89.372,2.147.578,2.418s.423.558.664,2.38c.568,4.263,1.236,8.791,2.165,14.682.354,2.244.763,4.519,1.159,6.719v.006c.391,2.171.794,4.415,1.145,6.628v0a3.4,3.4,0,0,1,.335,1.19,3.212,3.212,0,0,1-.123,1.234,1.941,1.941,0,0,1-.8,1.064,2.242,2.242,0,0,1-1.228.367,2.12,2.12,0,0,1-.491-.057,1.151,1.151,0,0,1-.084.787,1,1,0,0,1-.643.524l-.389.108a10.042,10.042,0,0,1-2.751.5h-.095c-.706-.011-1.426-.042-2.121-.071h-.02l-.808-.034c-2-.077-4.041-.082-6.012-.088h-.307l-6.109-.018h-.035l-6.076-.018-21.318-.06-.942,0L82.6,155.027l-1.993-.006c-6.523-.019-13.268-.038-19.915-.073-3.774-.019-7.467-.042-11.165-.114-2.572-.049-5.088-.116-7.58-.4-.294.1-.565.188-.828.271a2.411,2.411,0,0,1-.726.116,2.109,2.109,0,0,1-.925-.212,2.434,2.434,0,0,1-.743-.565,3.174,3.174,0,0,1-.779-1.758A13.915,13.915,0,0,1,38.2,147c.1-.4.222-.786.351-1.152a4.52,4.52,0,0,1-.076-.569c-.029-.429-.038-.87-.047-1.3v0c0-.191-.008-.389-.014-.583-.028-.929-.051-1.873-.073-2.785-.011-.455-.022-.926-.035-1.393-.066-2.657-.1-5.33-.106-7.944-.006-3.7.051-7.4.169-11.011-.3.011-.6.016-.932.016-.877,0-1.766-.039-2.625-.076h0c-.347-.015-.706-.031-1.055-.043-2.039-.074-4.114-.205-6.167-.391a110.666,110.666,0,0,1-12.158-1.8l-.236-.048h0c-.443-.09-.9-.184-1.35-.29.048.676.039,1.364.03,2.03v0c0,.2-.006.408-.007.608q0,.424,0,.848v0c-.006,1.228-.012,2.5-.036,3.747-.038,1.868-.088,3.763-.137,5.6v.008c-.028,1.041-.056,2.117-.082,3.176-.029,1.175-.061,2.365-.093,3.515v0c-.049,1.794-.1,3.65-.138,5.475-.031,1.448-.057,2.927-.076,4.4,0,.308,0,.626.007.933a7.634,7.634,0,0,1-.548,3.725,1.54,1.54,0,0,1-.655.644,1.938,1.938,0,0,1-.9.219,1.811,1.811,0,0,1-.868-.213,1.446,1.446,0,0,1-.619-.65,5.117,5.117,0,0,1-.458-1.882,15.8,15.8,0,0,1,.032-1.957v0c.015-.268.031-.544.041-.815.064-1.721.125-3.227.188-4.605.157-3.479.323-6.337.524-9,.248-3.295.522-6.235.837-8.989.172-1.509.393-3.029.606-4.5.021-.142.042-.292.061-.424.077-.54.157-1.1.266-1.645a1.873,1.873,0,0,1,.125-.842,6.779,6.779,0,0,1-1.622-.919,5.7,5.7,0,0,1-1.958-3.3,8.7,8.7,0,0,1-.254-2.045,13.764,13.764,0,0,1,.14-2.059c.09-.657.183-1.3.332-1.938A1.3,1.3,0,0,1,8,106.6a5.145,5.145,0,0,1-1.551-1.489,15.492,15.492,0,0,1-1.082-1.88l0,0-.088-.17c-.605-1.173-1.178-2.422-1.751-3.817A46.051,46.051,0,0,1,1.1,91.485,47.313,47.313,0,0,1,3.978,62.257,51.455,51.455,0,0,1,8,55.02c1.357-2.063,2.915-4.186,4.9-6.683,1.771-2.223,3.681-4.412,5.675-6.506,1.948-2.045,4.037-4.062,6.209-6a.236.236,0,0,1,.157-.065.225.225,0,0,1,.2.132.233.233,0,0,1-.036.255c-.253.313-.523.651-.824,1.031.377-.078.747-.146,1.1-.2a22.118,22.118,0,0,1,4.285-5.062,31.559,31.559,0,0,1,5.421-3.836c1.267-.718,2.589-1.381,4.04-2.028,1.293-.576,2.66-1.126,4.179-1.681,2.822-1.03,5.755-1.921,8.591-2.783,3.657-1.111,7.437-2.259,11.024-3.719A44.016,44.016,0,0,0,68.8,14.987,31.651,31.651,0,0,0,74.069,11.1a24.28,24.28,0,0,0,4.012-4.652,21.123,21.123,0,0,0,1.51-2.746c.166-.368.309-.748.448-1.116h0A11.657,11.657,0,0,1,80.816.828,1.636,1.636,0,0,1,82.271,0a1.852,1.852,0,0,1,1.315.538A1.589,1.589,0,0,1,84.045,1.7a7.668,7.668,0,0,1-.268,1.833,12.061,12.061,0,0,1-.652,1.815,24.3,24.3,0,0,1-1.873,3.32,27.346,27.346,0,0,1-4.914,5.607,34.482,34.482,0,0,1-2.816,2.2c-.938.66-1.942,1.3-2.984,1.894a49.331,49.331,0,0,1-6.361,3.03,128.55,128.55,0,0,1-13.538,4.248l-.065.018-1.051.288a78.068,78.068,0,0,0-13.321,4.7,44.544,44.544,0,0,0-4.921,2.762,41.047,41.047,0,0,0-4.48,3.369c.234-.027.738-.04,1.542-.04,2.463,0,7.362.128,12.1.252h.023c4.746.124,9.653.253,12.124.253.422,0,.768,0,1.029-.011,7.3-.212,14.835-.314,23.031-.314,6.513,0,13.375.066,20.978.2,7.228.128,14.593.323,21.889.581,3.586.126,7.234.272,11.153.446,2.029.09,3.817.173,5.468.256.328.016.66.028.981.039.462.017.94.034,1.408.062a15.737,15.737,0,0,1,4.457-.614,18.817,18.817,0,0,1,1.9.1,39.517,39.517,0,0,0-4.46-3.608,69.826,69.826,0,0,0-9.8-5.3c-1.757-.832-3.574-1.692-5.318-2.617a43.547,43.547,0,0,1-5.058-3.089,26.114,26.114,0,0,1-6.832-7.122,18.664,18.664,0,0,1-2.076-4.463,15.109,15.109,0,0,1-.674-4.889.175.175,0,0,1,.181-.166.146.146,0,0,1,.149.121,17.522,17.522,0,0,0,2.03,5.218,17.985,17.985,0,0,0,3.543,4.333,45.366,45.366,0,0,0,8.03,5.829c2.387,1.337,4.88,2.561,7.292,3.745h0c.969.476,1.971.967,2.953,1.46a54.116,54.116,0,0,1,9.615,5.943,50.385,50.385,0,0,1,4.27,3.838c.235.234.483.47.745.719a21.675,21.675,0,0,1,1.724,1.767c.039.016.08.034.118.053a18.46,18.46,0,0,1,3.325,2.029,19.406,19.406,0,0,1,2.755,2.583,22.488,22.488,0,0,1,2.235,3.035,27.55,27.55,0,0,1,1.765,3.383,45.766,45.766,0,0,1,3.37,14.944c.073.985.12,1.993.14,3a73.454,73.454,0,0,1,1.079,14.341,61.862,61.862,0,0,1-.447,6.252,45.744,45.744,0,0,1-1.188,6.151,36.822,36.822,0,0,1-1.952,5.544,24.535,24.535,0,0,1-3,5.063,7.282,7.282,0,0,1,1.022,2.914l0,.009c.027.137.053.266.08.393.023.11.046.219.071.334v0a8.463,8.463,0,0,1,.248,3.628,2.769,2.769,0,0,1-.992,1.549,3.884,3.884,0,0,1-1.713.733l-.022,0c-.051.009-.1.018-.155.026.116.668.2,1.355.271,2.019v.008c.045.39.091.794.144,1.18.284,2.05.524,4.083.756,6.05a6.164,6.164,0,0,0,.725,2.837,6.186,6.186,0,0,1,.729,2.834c.438,3.642.954,7.537,1.578,11.905.285,2,.6,4.072.936,6.163.127.787.3,1.826.473,2.872.018.109.037.217.055.321v0a4.519,4.519,0,0,1-.151,2.974,1.244,1.244,0,0,1-.533.559A1.557,1.557,0,0,1,162.183,155.6ZM9.9,106.209a1.306,1.306,0,0,1-.283.268c-.024.239-.054.482-.083.717v0a15.182,15.182,0,0,0-.147,1.81,8.136,8.136,0,0,0,.67,3.66,4.084,4.084,0,0,0,1.394,1.532,7.046,7.046,0,0,0,1.963.871,23.1,23.1,0,0,0,3.268.614c.439.06.853.117,1.24.183,3.5.589,7.1,1.026,10.69,1.3,1.8.138,3.667.233,5.552.285.231.006.473.009.739.009.462,0,.934-.009,1.391-.018h.012c.455-.009.925-.018,1.388-.018.281,0,.535,0,.778.01.1-2.425.229-4.852.382-7.213a1.246,1.246,0,0,1-.5.1c-.037,0-.075,0-.113,0-4.29-.3-9.947-.746-15.67-1.551-2.786-.391-5.435-.853-7.872-1.372C13.208,107.076,11.512,106.717,9.9,106.209Zm137.922.285c.171,2.369.351,4.675.537,6.856a12.485,12.485,0,0,1,2.554-.311c.34-.018.692-.037,1.027-.066l3.566-.31c.237-.02.482-.037.7-.053h0c.391-.028.795-.057,1.188-.1.041,0,.084-.008.13-.012h0a.743.743,0,0,0,.588-.214,1.638,1.638,0,0,0,.039-.929v0c-.011-.083-.02-.155-.024-.213-.042-.549-.1-1.1-.184-1.644q-.018-.125-.036-.252l0-.021a13,13,0,0,0-.251-1.407,1.906,1.906,0,0,0-.075-.233,2.281,2.281,0,0,1-.479.05,2.82,2.82,0,0,1-1.8-.688c-.327-.017-.66-.032-.982-.046h0c-.373-.016-.759-.034-1.137-.055-.5-.028-1.013-.047-1.512-.066h0a35.93,35.93,0,0,1-3.846-.284ZM11.011,77.948a.837.837,0,0,0-.821.58A17.187,17.187,0,0,0,9.3,82.783a21.753,21.753,0,0,0,.1,4.339,29.518,29.518,0,0,0,.858,4.294,40.345,40.345,0,0,0,1.387,4.118.879.879,0,0,0,.846.566.888.888,0,0,0,.737-.352.68.68,0,0,0,.046-.664,32.981,32.981,0,0,1-2.172-7.963,20.3,20.3,0,0,1-.121-4.1,16.023,16.023,0,0,1,.832-4.039.726.726,0,0,0-.073-.678A.9.9,0,0,0,11.011,77.948Zm7.767,10.458a.865.865,0,0,0-.618.242.777.777,0,0,0-.212.574,10.4,10.4,0,0,0,.417,2.759,9.936,9.936,0,0,0,1.159,2.537.805.805,0,0,0,.693.393.947.947,0,0,0,.814-.47.735.735,0,0,0-.048-.776,8.339,8.339,0,0,1-1.345-4.443.793.793,0,0,0-.275-.612A.9.9,0,0,0,18.777,88.406Z" transform="translate(3.379 -2.132)"/>
  </g>
  <g id="HEAD" transform="translate(78.592 38.043)">
    <path id="_Skin-2" data-name="âœ‹ Skin" d="M95.213,77.955c-.836-1.239-2.848-10.23-4.133-11.613.1-5.311,1.562-23.7-2.622-31.967.88-.892,3.218-8.576,2.622-11.48C93.051,16.813,80.39,7.151,75.572,4.54,53.178-7.5,20.728,5.79,10.544,28.091c-6.12,13.43-6.233,28.467-6.925,42.918-.082,3.093-.365,6.211-.362,9.3.443,2.715,2.59,5.48.962,7.737C2.421,89.293-1.213,92.33.4,94.053c.948.792,2.463.332,3.492,1.093.524.294.851.938,1.463,1.036,5.6-.213,9.546-.231,15.159-.459,2.458-.081,6.2.961,9.021-1.113,9.853,5.494,5.732-2.477,7.724-8.152,6.067,2.057,18.154,8.615,24.621,8.827,5.256.651,10.17-2.417,15.337-1.719,6.419,2.391,13.941,2.922,19.821-1.123,1.467-1.059,3.1.168,4.949-.976C105.587,89.744,97.027,79.867,95.213,77.955Z" transform="translate(-4.216 11.836)" fill="#d08b5b"/>
    <path id="_Hair" data-name="ðŸ’ˆ Hair" d="M34.456,96.457c-1.079,0-2.687-.6-4.916-1.847a6.3,6.3,0,0,1-2.3,1.048,10.307,10.307,0,0,1-2.437.256c-.7,0-1.368-.044-2.106-.1l-.106-.008c-.637-.046-1.238-.09-1.785-.09-.1,0-.2,0-.291,0-2.93.119-5.456.182-7.9.243-2.253.056-4.583.114-7.26.216a1.76,1.76,0,0,1-.9-.577,2.839,2.839,0,0,0-.561-.459,3.592,3.592,0,0,0-1.747-.532A3.213,3.213,0,0,1,.4,94.053a1.443,1.443,0,0,1-.4-1.187,5.049,5.049,0,0,1,1.634-2.673,18.923,18.923,0,0,1,2.575-2.146,3.073,3.073,0,0,0,.53-1.193,3.867,3.867,0,0,0,.036-1.265,12.623,12.623,0,0,0-.761-2.679,14.951,14.951,0,0,1-.768-2.6c0-1.814.1-3.668.192-5.46.067-1.26.136-2.562.17-3.84l.061-1.3c.04-.873.079-1.764.117-2.625v-.01c.288-6.54.587-13.3,1.5-19.869a81.758,81.758,0,0,1,1.921-9.728c.433-1.631.923-3.228,1.456-4.745.56-1.593,1.187-3.154,1.864-4.64a42.222,42.222,0,0,1,7.742-11.357,50.279,50.279,0,0,1,5.2-4.789,54.328,54.328,0,0,1,5.888-4.093,56.077,56.077,0,0,1,13.21-5.785A52.989,52.989,0,0,1,49.6.53,48.585,48.585,0,0,1,56.685,0a42.655,42.655,0,0,1,9.739,1.1A37.352,37.352,0,0,1,75.572,4.54,42.232,42.232,0,0,1,80.3,7.654a52.779,52.779,0,0,1,5.567,4.762c2.968,2.952,6.281,7.167,5.208,10.48a13.918,13.918,0,0,1-.344,4.717A35.16,35.16,0,0,1,89.3,32.678a7.7,7.7,0,0,1-1.738.94,13.94,13.94,0,0,1-2.315.671,32.2,32.2,0,0,1-6.358.537,95.4,95.4,0,0,1-12.937-1.075c-5.057-.714-10.963-1.8-17.554-3.227l-.867-.189-7.717,4.584L36.643,46.86a22.724,22.724,0,0,0-2.886,3.516,26.5,26.5,0,0,0-2.273,4.216,10.115,10.115,0,0,0-1.943-1.552,10.58,10.58,0,0,0-2.236-1.067,9.1,9.1,0,0,0-2.907-.485c-.277,0-.557.013-.834.04a28.539,28.539,0,0,0-4,2.057,14.288,14.288,0,0,0-2.789,2.233,3.661,3.661,0,0,0-.807,1.49,8.084,8.084,0,0,0-.283,2.2,26.354,26.354,0,0,0,1,6.513l.086.326,6.794,2.121h3.153l8.662,10.612,1.265,10.917c-.036.612-.051,1.212-.064,1.793A12.788,12.788,0,0,1,36.25,95.1,1.721,1.721,0,0,1,34.456,96.457Zm52.4-1.034a25.2,25.2,0,0,1-4.895-.5,30.916,30.916,0,0,1-4.742-1.356,11.944,11.944,0,0,0-1.594-.1c-.212,0-.43.005-.649.016l-.306-.962L81.7,86.458,89.192,71.33l1.973-7.49-.044,1.127c-.021.586-.034,1.023-.041,1.377.742.8,1.722,4.118,2.587,7.047a28.318,28.318,0,0,0,1.546,4.565l.181.193a59.411,59.411,0,0,1,4.622,5.727,24.643,24.643,0,0,1,2.15,3.6,5.173,5.173,0,0,1,.661,2.907,1.449,1.449,0,0,1-.835,1.088A3.744,3.744,0,0,1,99.912,92c-.2,0-.393-.007-.581-.015h-.008c-.193-.007-.375-.014-.558-.014a2.754,2.754,0,0,0-1.721.473,16.464,16.464,0,0,1-4.9,2.283A19.578,19.578,0,0,1,86.859,95.423Z" transform="translate(-4.216 11.836)" fill="#d6b370"/>
    <path id="_Ink-2" data-name="ðŸ– Ink" d="M90.429,96.267a13.185,13.185,0,0,1-4.1-.719,14.1,14.1,0,0,1-3.612-1.771,10.368,10.368,0,0,1-1.451-1.158,19.89,19.89,0,0,1-5.338,2.017,25.981,25.981,0,0,1-5.733.614,32.09,32.09,0,0,1-5.673-.519A25.074,25.074,0,0,1,60.292,93.6a19.155,19.155,0,0,1-3.912-1.962,14.523,14.523,0,0,1-3.065-2.677,14.9,14.9,0,0,1-2.193-3.428.257.257,0,0,1,.021-.247.244.244,0,0,1,.2-.122.2.2,0,0,1,.154.081,15.447,15.447,0,0,0,3.294,2.969,20.347,20.347,0,0,0,3.988,2.068,29.457,29.457,0,0,0,8.74,1.857c.761.049,1.507.073,2.217.073a26.853,26.853,0,0,0,3.491-.218,20.483,20.483,0,0,0,3.413-.739,16.607,16.607,0,0,0,7.176-4.585,26.431,26.431,0,0,0,2.746-3.486,35.255,35.255,0,0,0,2.226-3.895,57.731,57.731,0,0,0,3.243-8.33,63.792,63.792,0,0,0,2.132-9.274A77.158,77.158,0,0,0,95.01,52.2a51.527,51.527,0,0,0-.527-9.621c-.264-1.665-.653-3.328-1.03-4.937h0c-.336-1.433-.683-2.915-.939-4.392a.464.464,0,0,1,.106-.382.473.473,0,0,1,.353-.175.374.374,0,0,1,.336.222,24.616,24.616,0,0,1,1.984,5.378c.476,1.86.8,3.73,1.126,5.642a71.044,71.044,0,0,1,1.076,11.383,51.3,51.3,0,0,1-.75,8.868l.061.21c.115.392.229.781.341,1.154l.173.577c.134.443.265.889.393,1.321v0c.194.656.394,1.335.6,2,.69,2.217,1.457,4.581,2.4,6.846a36.581,36.581,0,0,0,3.3,6.237,21.516,21.516,0,0,0,1.7,2.131,13.622,13.622,0,0,1,2.436,3.459,1.277,1.277,0,0,1-.1,1.171.891.891,0,0,1-.759.421,1.024,1.024,0,0,1-.139-.01.362.362,0,0,1-.255.126c-.188.016-.378.024-.582.024-.47,0-.943-.045-1.361-.084a.288.288,0,0,1,0-.575c.334-.032.589-.052.827-.065a9.032,9.032,0,0,1-2.461-2.3,28.233,28.233,0,0,1-1.853-2.805,37.032,37.032,0,0,1-3.283-7.369,57.475,57.475,0,0,1-1.994-7.993c-.054-.293-.107-.6-.164-.937a62.326,62.326,0,0,1-2.4,7.848l-.135.352c-.608,1.58-1.206,2.985-1.827,4.295a40.7,40.7,0,0,1-2.234,4.122A29.566,29.566,0,0,1,86.674,88.1a23,23,0,0,1-3.388,3.2c-.2.152-.418.309-.691.5l.284.163c.312.179.573.323.833.444A16.4,16.4,0,0,0,86.9,93.485a23.3,23.3,0,0,0,5.153.422h0c.562,0,1.142.009,1.709.027a.88.88,0,0,1,.795.717.682.682,0,0,1-.386.8,8.3,8.3,0,0,1-1.85.627A9.142,9.142,0,0,1,90.429,96.267ZM9.241,96.262a1.284,1.284,0,0,1-.744-.235,1.32,1.32,0,0,1-.486-.653L8,95.326a.989.989,0,0,0-.61-.627,2.607,2.607,0,0,0-.985-.161,5.788,5.788,0,0,0-1.086.114l-.224.046-.422.09-.016,0a12.052,12.052,0,0,1-2.5.358,4.958,4.958,0,0,1-1.311-.167,1.082,1.082,0,0,1-.579-.393,1.292,1.292,0,0,1-.253-.64,1.168,1.168,0,0,1,.1-.622,1.016,1.016,0,0,1,.457-.471,29.5,29.5,0,0,0,3.8-2.393c1.2-.876,2.376-1.833,3.514-2.758h0l.362-.295a23.9,23.9,0,0,1-.965-3.227v0c-.077-.31-.157-.631-.237-.938a32.477,32.477,0,0,1-.768-5.288c-.017-.191-.037-.408-.056-.617a110.948,110.948,0,0,1-.436-11.2c.032-3.221.2-6.4.493-9.439a93.345,93.345,0,0,1,1.377-9.335,80.7,80.7,0,0,1,2.383-9.112,71.478,71.478,0,0,1,3.513-8.77,56.32,56.32,0,0,1,4.153-7.2,58.4,58.4,0,0,1,5.15-6.521,43.826,43.826,0,0,1,6.031-5.481,47.141,47.141,0,0,1,6.919-4.3.259.259,0,0,1,.118-.031.212.212,0,0,1,.2.15.241.241,0,0,1-.089.274A60.553,60.553,0,0,0,23.659,19.465a71.081,71.081,0,0,0-7.773,14.4,78.108,78.108,0,0,0-4.44,15.762,87.163,87.163,0,0,0-1.092,9.621c-.184,3.028-.244,6.2-.185,9.685.041,2.426.171,4.826.352,7.683l.183,2.837a37.621,37.621,0,0,1,.1,3.96l-.015.307c-.027.475-.031.958-.035,1.426a13.255,13.255,0,0,1-.287,3.185.929.929,0,0,1-1.68.22c-.067-.114-.136-.243-.219-.406a18.9,18.9,0,0,1-3.445,4.063,6.658,6.658,0,0,1,1.416-.173,4.337,4.337,0,0,1,.515.03A4.225,4.225,0,0,1,9.693,93.3a5.006,5.006,0,0,1,2.107-.5h0a.791.791,0,0,1,.686.428.725.725,0,0,1-.016.749A6.476,6.476,0,0,1,9.885,96.1,1.361,1.361,0,0,1,9.241,96.262ZM41.086,95.3a.811.811,0,0,1-.512-.164A.791.791,0,0,1,40.3,94.6c-.191-1.386-.337-2.8-.479-4.158h0c-.173-1.661-.351-3.378-.611-5.054a32.175,32.175,0,0,0-2.374-8.368c-.459-1.065-.989-2.155-1.576-3.241a55.539,55.539,0,0,0-3.861-6.086.207.207,0,0,1-.014-.222.28.28,0,0,1,.237-.152.207.207,0,0,1,.116.035A22.328,22.328,0,0,1,37.251,72.6a29.581,29.581,0,0,1,3.73,6.664,32.813,32.813,0,0,1,1.261,3.69,25.77,25.77,0,0,1,.766,3.907,16.325,16.325,0,0,1-.825,7.747A1.205,1.205,0,0,1,41.086,95.3ZM25.769,93.665a1.232,1.232,0,0,1-.894-.357,1.093,1.093,0,0,1-.287-.826,4.036,4.036,0,0,1,.6-1.8v0c.076-.145.155-.3.232-.453.258-.526.482-1.077.668-1.547L26.4,87.9a48.512,48.512,0,0,0,1.648-4.7.078.078,0,0,1,.077-.056.082.082,0,0,1,.06.024.069.069,0,0,1,.018.053c-.022.346-.043.7-.064,1.039-.079,1.324-.161,2.693-.329,4.024-.064.505-.141,1.017-.217,1.512h0c-.046.3-.093.613-.137.921-.025.176-.044.354-.063.526a3.864,3.864,0,0,1-.521,1.859A1.322,1.322,0,0,1,25.769,93.665Zm-8.508-.247a1.041,1.041,0,0,1-.985-1.21,9.748,9.748,0,0,1,.825-2.282c.181-.4.369-.808.515-1.2.344-.928.674-1.935,1.038-3.167.626-2.116,1.185-4.41,1.66-6.819a.1.1,0,0,1,.109-.085.134.134,0,0,1,.1.039.1.1,0,0,1,.028.077,55.738,55.738,0,0,1-.8,7.089c-.168.94-.375,1.955-.651,3.2l-.1.455c-.055.242-.1.488-.156.748a9.14,9.14,0,0,1-.825,2.683A.854.854,0,0,1,17.261,93.418Zm16.944-1.325a1.264,1.264,0,0,1-.816-.334,1.282,1.282,0,0,1-.439-.808,5.741,5.741,0,0,1,.5-2.532c.074-.206.15-.42.218-.628.053-.163.1-.329.151-.49a7.352,7.352,0,0,1,.53-1.411,5.07,5.07,0,0,0-.572.146c-.077.023-.15.045-.223.064a.1.1,0,0,1-.026,0,.083.083,0,0,1-.081-.073.091.091,0,0,1,.06-.1c.073-.026.152-.052.221-.075a2.465,2.465,0,0,0,.982-.5l.05-.052a.3.3,0,0,1,.226-.105.414.414,0,0,1,.357.26,5.26,5.26,0,0,1,.2,2.344c-.014.217-.028.442-.034.657l-.005.214q0,.09,0,.18v.02a5.968,5.968,0,0,1-.453,2.647A.925.925,0,0,1,34.206,92.093Zm64.515-.376c-.026,0-.054,0-.081,0a10.731,10.731,0,0,1-3.508-.943,9.725,9.725,0,0,1-1.586-.922A8.288,8.288,0,0,1,92.2,88.641a.164.164,0,0,1-.034-.181.172.172,0,0,1,.157-.1.188.188,0,0,1,.08.018,21.68,21.68,0,0,0,3.04,1.18,16.3,16.3,0,0,0,3.2.612.814.814,0,0,1,.738.882A.649.649,0,0,1,98.72,91.717ZM26.585,70.193a6.269,6.269,0,0,1-3.344-.979,8.662,8.662,0,0,1-2.616-2.566,9.868,9.868,0,0,1-1.39-3.318,11.679,11.679,0,0,1,.718-7.173,9.251,9.251,0,0,1,1.283-2.068,10.442,10.442,0,0,1,1.819-1.757,8.959,8.959,0,0,1,2.166-1.22,6.479,6.479,0,0,1,2.325-.457,5.139,5.139,0,0,1,1.952.377,5.6,5.6,0,0,1,1.817,1.223.111.111,0,0,1,.019.122.1.1,0,0,1-.089.068.094.094,0,0,1-.036-.008,4.674,4.674,0,0,0-1.8-.348,6.542,6.542,0,0,0-2.829.7,7.818,7.818,0,0,0-2.325,1.723,8.62,8.62,0,0,0-1.559,2.411A8.807,8.807,0,0,0,22,59.711a8.368,8.368,0,0,0,.255,2.893,6.571,6.571,0,0,0,1.334,2.564,5.833,5.833,0,0,0,1.177,1.072,3.173,3.173,0,0,0,1.475.553c.062.005.125.008.187.008a4.176,4.176,0,0,0,1.646-.466,5.919,5.919,0,0,1,1.168-.417,1.426,1.426,0,0,1,.282-.029,1.089,1.089,0,0,1,.782.31,1.292,1.292,0,0,1,.362.808,2.447,2.447,0,0,1-.869,2.066,4.361,4.361,0,0,1-2.077,1.013A6.131,6.131,0,0,1,26.585,70.193Zm1.7-7.321a.787.787,0,0,1-.586-.328,1.44,1.44,0,0,1-.157-1.384,4.168,4.168,0,0,1,.736-1.27c.074-.091.155-.182.239-.27a5.567,5.567,0,0,0-.688-.445,4.135,4.135,0,0,0-1.9-.493,2.563,2.563,0,0,0-1.215.278,2.053,2.053,0,0,0-.89.935.11.11,0,0,1-.1.064.146.146,0,0,1-.094-.036.122.122,0,0,1-.044-.093,2.664,2.664,0,0,1,1.177-2.184,4.881,4.881,0,0,1,2.432-.871c.12-.01.243-.015.366-.015a7.774,7.774,0,0,1,3.144.845l.206.095c.146.068.3.135.44.2.264.119.536.242.8.372a.712.712,0,0,1,.039-.582,23.745,23.745,0,0,1,2.97-4.168c.7-.848,1.425-1.724,2.043-2.628a41.02,41.02,0,0,0,3.959-7.267A44.162,44.162,0,0,0,43.574,36a.275.275,0,0,1-.055.006.344.344,0,0,1-.246-.112.291.291,0,0,1-.083-.218,1.222,1.222,0,0,1,.668-1.081,40.383,40.383,0,0,0,.661-7.443.134.134,0,0,1,.14-.143.153.153,0,0,1,.157.143,41.6,41.6,0,0,1,.047,6.72c.405-.374.825-.746,1.23-1.105.652-.578,1.326-1.175,1.952-1.79,1.568-1.542,3.059-3.1,4.432-4.644a56.209,56.209,0,0,0,4.087-5.115l.658-.939A27.353,27.353,0,0,1,60.545,16.2a1.064,1.064,0,0,1,.747-.305,1.171,1.171,0,0,1,.913.451,1.042,1.042,0,0,1,.173.924A12.914,12.914,0,0,1,61,20.466a25.075,25.075,0,0,1-2,2.858,54.828,54.828,0,0,1-4.5,5.04,42.548,42.548,0,0,1-5.147,4.316l-.548.389a25.906,25.906,0,0,1-4.1,2.49,39.1,39.1,0,0,1-2.063,8.828,42.572,42.572,0,0,1-3.792,7.865l-.22.355a29.687,29.687,0,0,1-2.378,3.4,10.363,10.363,0,0,1-3.114,2.633.769.769,0,0,1-.214.073,3.191,3.191,0,0,1,1.255,1.453.96.96,0,0,1-.007.766,1.678,1.678,0,0,1-.9.842,2.074,2.074,0,0,1-.766.147,5.02,5.02,0,0,1-2.818-1.381c-.053.118-.1.224-.131.324-.055.156-.1.314-.147.467a2.455,2.455,0,0,1-.824,1.446A.488.488,0,0,1,28.287,62.873ZM94.5,31.041a1.135,1.135,0,0,1-.843-.444,1.214,1.214,0,0,1-.281-.979,19.314,19.314,0,0,0-.332-8.572,25.7,25.7,0,0,0-3.6-7.821,21.657,21.657,0,0,0-4.115-4.55,26.417,26.417,0,0,0-5.079-3.3,36.01,36.01,0,0,0-5.695-2.244,50.3,50.3,0,0,0-5.962-1.4,58.02,58.02,0,0,0-9.9-.861c-.652,0-1.312.011-1.961.034a43.77,43.77,0,0,0-4.564.362,22.438,22.438,0,0,0-4.448,1.049.1.1,0,0,1-.034.006.088.088,0,0,1-.083-.078.1.1,0,0,1,.065-.12A27.652,27.652,0,0,1,53.034.725,53.452,53.452,0,0,1,58.561.131C59.952.044,61.344,0,62.7,0A55.1,55.1,0,0,1,73.82,1.08,43.506,43.506,0,0,1,79.2,2.548,37.213,37.213,0,0,1,84.3,4.74a23.464,23.464,0,0,1,5.695,4.184,25.829,25.829,0,0,1,4.258,5.665,26.638,26.638,0,0,1,1.821,3.956,21.222,21.222,0,0,1,1.067,4.218,11.309,11.309,0,0,1-.115,4.184,9.026,9.026,0,0,1-.68,1.92,9.728,9.728,0,0,1-1.155,1.81A.88.88,0,0,1,94.5,31.041ZM59.458,30.016a.238.238,0,0,1-.216-.143.18.18,0,0,1,.055-.2,49.129,49.129,0,0,0,6.854-7.785,37.7,37.7,0,0,0,2.583-4.409c.148-.289.293-.6.446-.932v0a7.427,7.427,0,0,1,2.248-3.248.7.7,0,0,1,.378-.112.845.845,0,0,1,.768.58c.551,1.651-.641,3.856-1.352,5.174a29.529,29.529,0,0,1-3.1,4.473A23.85,23.85,0,0,1,64.213,27.2,22.944,22.944,0,0,1,59.548,30,.22.22,0,0,1,59.458,30.016Zm19.963-.1a.114.114,0,0,1-.1-.068.1.1,0,0,1,.022-.116,25.085,25.085,0,0,0,4.424-6.818,31.466,31.466,0,0,0,1.616-5.232c.2-.809.4-1.646.64-2.471a.879.879,0,0,1,.361-.5,1.026,1.026,0,0,1,.561-.163.97.97,0,0,1,.711.287.815.815,0,0,1,.21.625,13.762,13.762,0,0,1-.986,4.135,25.32,25.32,0,0,1-1.925,3.816A27.669,27.669,0,0,1,79.5,29.882.112.112,0,0,1,79.421,29.912Zm-9.363-.174a.1.1,0,0,1-.09-.06.078.078,0,0,1,.023-.088,25.42,25.42,0,0,0,2.858-3.2,27.115,27.115,0,0,0,2.294-3.63A25.852,25.852,0,0,0,76.864,18.7c.194-.6.344-1.22.488-1.821a20.472,20.472,0,0,1,.59-2.118.873.873,0,0,1,.369-.452,1.044,1.044,0,0,1,.542-.151.836.836,0,0,1,.622.249.745.745,0,0,1,.175.586,10.81,10.81,0,0,1-.43,2.15,16.629,16.629,0,0,1-.817,2.129,30,30,0,0,1-2.217,3.907,26.434,26.434,0,0,1-2.772,3.515,29.741,29.741,0,0,1-3.3,3.028A.1.1,0,0,1,70.058,29.738Z" transform="translate(-8.854 12.258)"/>
  </g>
  <g id="FACE" transform="translate(112.183 77.354)">
    <path id="teeth" d="M2.232,8.525h0L0,0,.36.056A28.365,28.365,0,0,1,4.344.9c.881.284,1.328.577,1.328.869l0,.04c-.047.657-1.2,2.916-3.438,6.714Zm19.759-.587h0L17.873,3.423l4.908-1.58-.791,6.1Z" transform="translate(21.294 44.824)" fill="#fff"/>
    <ellipse id="eye" cx="8.345" cy="7.609" rx="8.345" ry="7.609" transform="translate(12.465 16.274)" fill="#fff"/>
    <ellipse id="eye-2" data-name="eye" cx="7.606" cy="7.503" rx="7.606" ry="7.503" transform="translate(25.563 8.665)" fill="#fff"/>
    <path id="eye-3" data-name="eye" d="M6.127,12.992c3.384,0,6.127-3.028,6.127-6.763A6,6,0,0,0,6.127,0,6,6,0,0,0,0,6.229C0,9.964,2.743,12.992,6.127,12.992Z" transform="translate(37.394 17.02)" fill="#fff"/>
    <path id="_Ink-3" data-name="ðŸ– Ink" d="M14.193,46.515a1.831,1.831,0,0,1-.948-.284,2.46,2.46,0,0,1-1.052-1.456,9.124,9.124,0,0,1-.306-1.847v0c-.011-.112-.021-.218-.032-.323-.1-.954-.158-1.746-.187-2.492l-.012-.356c0-.155-.012-.311-.021-.476a4.737,4.737,0,0,1,.178-2.019A.217.217,0,0,1,12,37.125a.142.142,0,0,1,.111.055,6.123,6.123,0,0,1,.954,2.34c.057.222.111.432.17.634.089.307.187.615.291.941a15.663,15.663,0,0,1,.634,2.424l.045-.079c.171-.325.341-.64.485-.905l.49-.9c.4-.738.824-1.511,1.339-2.433-.548-.206-1.084-.426-1.536-.614L13.826,38.1A5.529,5.529,0,0,1,12,37a.192.192,0,0,1-.041-.188.154.154,0,0,1,.119-.11,4.551,4.551,0,0,1,.858-.076,13.63,13.63,0,0,1,2.935.455c.412.094.8.183,1.174.252l.114.021c.464.081.935.168,1.391.252,1.367.251,2.78.511,4.185.655a28.178,28.178,0,0,0,2.85.151,22.473,22.473,0,0,0,2.554-.141,17.411,17.411,0,0,0,2.545-.493c.362-.1.719-.207,1.061-.324l.04-.015c.058-.024.136-.062.226-.105a2.219,2.219,0,0,1,.639-.244.087.087,0,0,1,.064.02.061.061,0,0,1,.015.046,1.524,1.524,0,0,1,.76-.463,1.361,1.361,0,0,1,.345-.043,1.518,1.518,0,0,1,.956.331.8.8,0,0,1,.5-.17,1.2,1.2,0,0,1,.937.5,2.023,2.023,0,0,1,.354,1.025,6.272,6.272,0,0,1-.039,1.1c-.01.11-.021.223-.03.335l-.006.076c-.054.761-.137,1.549-.253,2.412l-.048.344c-.02.142-.038.294-.058.455a7.89,7.89,0,0,1-.376,1.851,1.812,1.812,0,0,1-1.218,1.225,1.438,1.438,0,0,1-.376.05c-.952,0-1.814-.93-2.532-1.84l-.4-.514a11.4,11.4,0,0,1-1.253-1.908c-.187-.368-.328-.672-.444-.955-.015-.036-.026-.068-.037-.1l0-.014a22.358,22.358,0,0,1-2.971.194,26.158,26.158,0,0,1-3.4-.229,31.926,31.926,0,0,1-3.952-.774L18.594,41.1c-.613,1.1-1.343,2.4-2.11,3.672l-.057.092A4.655,4.655,0,0,1,15.467,46,2.012,2.012,0,0,1,14.193,46.515Zm19.8-6.832h0A18.055,18.055,0,0,1,30.475,40.7l.011.011c.068.07.146.15.215.231.267.309.545.6.882.95l.181.186c.072.074.15.156.232.242a9.835,9.835,0,0,0,1.628,1.463l.038-.2c.007-.041.011-.068.014-.09l.075-.672c.011-.106.024-.22.035-.336.051-.507.094-1.023.135-1.522l.025-.3c.023-.281.031-.574.039-.857l0-.12ZM25.54,34.709h0a4.93,4.93,0,0,1-3.733-1.746,8.832,8.832,0,0,1-1.544-2.51,7.057,7.057,0,0,1-.566-2.884,2.69,2.69,0,0,1,.432-1.387,1.44,1.44,0,0,1,1.218-.67l.1,0a1.2,1.2,0,0,1,.938.479,1.288,1.288,0,0,1,.148,1.108l-.014.046a4.134,4.134,0,0,0,.139,2.541,5.125,5.125,0,0,0,1.4,2.181,2.721,2.721,0,0,0,1.817.691,3.643,3.643,0,0,0,2.039-.688,4.828,4.828,0,0,0,1.5-1.651,7.13,7.13,0,0,0,.647-1.717,10.072,10.072,0,0,0,.257-1.849,17.89,17.89,0,0,0-.252-3.708,21.111,21.111,0,0,0-.838-3.339C28.846,18.487,28.4,17.364,28,16.4c-.1.019-.2.034-.281.045a16.976,16.976,0,0,1-2.227.141,14.12,14.12,0,0,1-2.619-.224,6.384,6.384,0,0,1-2.3-.846,8.38,8.38,0,0,1-1.294,5.554,6.743,6.743,0,0,1-2.258,2.114,8.111,8.111,0,0,1-2.948.968,22.68,22.68,0,0,1-3.089.22A14.927,14.927,0,0,1,7.528,24a5.873,5.873,0,0,1-2.359-1.165,6.7,6.7,0,0,1-1.624-1.977,8.9,8.9,0,0,1-1.037-3.552,9.163,9.163,0,0,1,.427-3.659,7.121,7.121,0,0,1,.832-1.666,8.133,8.133,0,0,1,1.249-1.456A7.846,7.846,0,0,1,6.571,9.406a6.585,6.585,0,0,1,1.757-.663,6.821,6.821,0,0,1,3.708-.98c.222,0,.446.009.666.026a9.14,9.14,0,0,1,3.128.818,7.874,7.874,0,0,1,2.594,1.919,8.6,8.6,0,0,1,1.355,2.09,1.042,1.042,0,0,1,.409-.2,1.5,1.5,0,0,1,.345-.046,1.017,1.017,0,0,1,.344.059,1.5,1.5,0,0,1,.389.284l.233.274a2.593,2.593,0,0,0,1.066.82,10.44,10.44,0,0,0,3.8.625c.357,0,.711-.014,1.053-.04A2.946,2.946,0,0,0,29.8,13.049a5.714,5.714,0,0,0,.692-3.3,11.734,11.734,0,0,0-.659-3.364A6.88,6.88,0,0,0,28.8,4.507a6.995,6.995,0,0,0-3.378-2.372,6.632,6.632,0,0,0-5.229.469,7.921,7.921,0,0,0-1.746,1.259,9.608,9.608,0,0,0-1.973,3.057c-.114.24-.232.488-.356.735a.1.1,0,0,1-.092.052.1.1,0,0,1-.107-.079,4.551,4.551,0,0,1,.131-2.177,6.745,6.745,0,0,1,1.027-2.027,8.983,8.983,0,0,1,1.6-1.68A7.973,7.973,0,0,1,20.52.611,7.709,7.709,0,0,1,23.568,0,8.6,8.6,0,0,1,26.31.454a8.773,8.773,0,0,1,2.473,1.3,8.344,8.344,0,0,1,2.63,3.385,10.921,10.921,0,0,1,.661,2.059,13.1,13.1,0,0,1,.28,2.162,3.152,3.152,0,0,1,2.1-.763,5.129,5.129,0,0,1,2.207.564,7.663,7.663,0,0,1,1.89,1.319,7.912,7.912,0,0,1,2.018,3.156,7.568,7.568,0,0,1,.319,3.722,7,7,0,0,1-.566,1.8,7.123,7.123,0,0,1-1.013,1.576,6.561,6.561,0,0,1-3.087,2.058,6.437,6.437,0,0,1-1.872.273,6.533,6.533,0,0,1-1.767-.24,6.805,6.805,0,0,1-1.338-.528l.02.079c.019.076.038.155.057.231a19.916,19.916,0,0,1,.568,3.869,12.037,12.037,0,0,1-.083,1.957,9.058,9.058,0,0,1-.447,1.891,6.784,6.784,0,0,1-.952,1.768,6.908,6.908,0,0,1-1.383,1.39,6.354,6.354,0,0,1-1.671.909A5.377,5.377,0,0,1,25.54,34.709ZM7.433,10.75A6.593,6.593,0,0,0,5.4,12.862a6.665,6.665,0,0,0-.909,2.994,7.755,7.755,0,0,0,.216,2.4,6.384,6.384,0,0,0,1,2.188,3.787,3.787,0,0,0,2,1.408,8.989,8.989,0,0,0,2.469.336l.172,0c.294.006.553.009.792.009a11.567,11.567,0,0,0,4.247-.624,4.829,4.829,0,0,0,1.681-1.121A5,5,0,0,0,18.2,18.492a6.923,6.923,0,0,0-.006-4.116,6.57,6.57,0,0,0-.914-1.863,5.8,5.8,0,0,0-1.484-1.458,6.858,6.858,0,0,0-3.86-1.122H11.8a10.9,10.9,0,0,0-2.711.5c-.434.12-.883.244-1.333.338a.568.568,0,0,1-.118.012A.606.606,0,0,1,7.433,10.75Zm23.672,8.591a2.193,2.193,0,0,1,1.309.6,3.751,3.751,0,0,0,.824.515,4.287,4.287,0,0,0,1.592.306,4.218,4.218,0,0,0,.817-.079,4.049,4.049,0,0,0,2.192-1.263,5.32,5.32,0,0,0,1.366-3.681,5.752,5.752,0,0,0-.211-1.4,6.725,6.725,0,0,0-1.338-2.507l-.094-.109a7.709,7.709,0,0,0-1.817-1.548,4.36,4.36,0,0,0-2.231-.681,3.3,3.3,0,0,0-1.149.206l.006.242c0,.043,0,.083,0,.121a8.051,8.051,0,0,1-.873,3.827,5.04,5.04,0,0,1-1.155,1.436,4.778,4.778,0,0,1-1.7.919,15.781,15.781,0,0,1,1.735,3.3,1.293,1.293,0,0,1,.584-.2A1.379,1.379,0,0,1,31.105,19.341Zm-25.031,7.4a9.36,9.36,0,0,1-2.056-.261,7.4,7.4,0,0,1-3.977-2.37.182.182,0,0,1-.023-.2.157.157,0,0,1,.138-.1.156.156,0,0,1,.088.03,9.009,9.009,0,0,0,4.07,1.6,9.146,9.146,0,0,0,.989.056,7.272,7.272,0,0,0,1.1-.081c.13-.02.258-.045.383-.069a4.375,4.375,0,0,1,.827-.106,1.86,1.86,0,0,1,.5.066.377.377,0,0,1,.271.256.456.456,0,0,1-.092.423A2.788,2.788,0,0,1,6.074,26.736Zm32.639-2.143a6.865,6.865,0,0,1-1.565-.173.1.1,0,0,1-.077-.116.1.1,0,0,1,.1-.1h0l.148,0a4.69,4.69,0,0,0,1.187-.142,4.07,4.07,0,0,0,1.107-.468,4.537,4.537,0,0,0,.855-.73,4.541,4.541,0,0,1,.811-.7.644.644,0,0,1,.343-.1.735.735,0,0,1,.62.381.662.662,0,0,1,0,.682,2.764,2.764,0,0,1-1.493,1.137A6.04,6.04,0,0,1,38.713,24.594ZM11.5,18.449a2.456,2.456,0,0,1-1.086-.242,2.211,2.211,0,0,1-.868-.754,1.923,1.923,0,0,1-.312-.823,1.653,1.653,0,0,1,.033-.593l-.011.046c.037-.167.059-.265.066-.292a2.491,2.491,0,0,1,.627-1.121,1.8,1.8,0,0,1,1.145-.5,1.39,1.39,0,0,1,1.23-.682,1.642,1.642,0,0,1,1.362.708l.028.043.006-.008a2.561,2.561,0,0,1,.435,2.146,2.766,2.766,0,0,1-.467,1.024,2.422,2.422,0,0,1-.865.734A2.972,2.972,0,0,1,11.5,18.449Zm23.467-.593a1.686,1.686,0,0,1-.373-.042,1.591,1.591,0,0,1-.928-.714,1.391,1.391,0,0,1-.136-.318l-.153-.363c-.019-.057-.033-.118-.047-.177-.007-.031-.015-.062-.022-.092-.052-.2-.1-.4-.136-.6a2.467,2.467,0,0,1,.006-.99,1.774,1.774,0,0,1,.483-.86,1.9,1.9,0,0,1,2.689,0,1.611,1.611,0,0,1,.486.859,2.586,2.586,0,0,1,0,.992c-.035.2-.083.4-.134.6l-.044.181c-.008.032-.016.062-.025.089a1.467,1.467,0,0,1-.142.346,1.406,1.406,0,0,1-.579.8A1.7,1.7,0,0,1,34.971,17.856ZM23.99,10.55A2.3,2.3,0,0,1,22.4,9.918l-.05-.047A2.093,2.093,0,0,1,21.737,8.7a2.365,2.365,0,0,1,.143-1.314,2.228,2.228,0,0,1,1.777-1.359A2.3,2.3,0,0,1,23.963,6a2.274,2.274,0,0,1,1.962,1.107,2.345,2.345,0,0,1,0,2.3l-.034.058A2.175,2.175,0,0,1,23.99,10.55Z" transform="translate(9.296 7.82)"/>
  </g>
  <g id="ACCESORIES" transform="translate(88.521 88.978)">
    <path id="_Ink-4" data-name="ðŸ– Ink" d="M45.294,25.4h0a12.5,12.5,0,0,1-2.558-.268,13.039,13.039,0,0,1-4.712-2.023,12.706,12.706,0,0,1-1.971-1.678,11.914,11.914,0,0,1-2.516-3.941,12.161,12.161,0,0,1-.792-4.97,1.75,1.75,0,0,1-1.18-.643,3.434,3.434,0,0,1-.477-1.1c-.311-1.017-.664-2.17-3.024-2.562A4.587,4.587,0,0,1,26.1,6.91a53.931,53.931,0,0,0-5.73-.322,41.528,41.528,0,0,0-6.522.5A35.777,35.777,0,0,0,7.4,8.736c-.375.157-.772.3-1.157.442a13.691,13.691,0,0,0-1.961.829A2.845,2.845,0,0,0,3,11.274a3.189,3.189,0,0,0,.159,2.508,1.262,1.262,0,0,1-1.232,1.2,1.06,1.06,0,0,1-.772-.333l0,0v0A8.717,8.717,0,0,1,.04,11.6,3.963,3.963,0,0,1,.367,9.324C.981,8.062,2.36,7.1,4.585,6.367a42.331,42.331,0,0,1,6.283-1.322l.395-.063a42.37,42.37,0,0,1,8.913-.933c.311,0,.627,0,.939.01.383.016.787.022,1.214.029h0a14.174,14.174,0,0,1,3.681.355l.016,0a2.832,2.832,0,0,1,1.626-1.392A16.317,16.317,0,0,1,31.124,2a41.812,41.812,0,0,1,4.735-.671c1.747-.156,3.57-.235,5.416-.235a57.767,57.767,0,0,1,5.917.292A35.627,35.627,0,0,1,52.5,2.3a14.114,14.114,0,0,1,3.979,1.6,4.034,4.034,0,0,1,1.926,2.355c.108,0,.216,0,.322,0,.66,0,1.289.052,1.795.093l.07.006c.547.045,1.063.087,1.58.087a6.266,6.266,0,0,0,2.038-.306,4.023,4.023,0,0,1,1.753-2.68,13.328,13.328,0,0,1,3.91-1.918A30.015,30.015,0,0,1,74.948.385,37.272,37.272,0,0,1,80.188,0a21.59,21.59,0,0,1,4.573.421A8.286,8.286,0,0,1,86.025.64a1.571,1.571,0,0,1,.481.172c.167.025.343.052.522.082a1.256,1.256,0,0,1,.77.444,1.652,1.652,0,0,1,.351.816A1.546,1.546,0,0,1,87.407,3.8a2.355,2.355,0,0,0-1.036.958,1.922,1.922,0,0,0-.183,1.391,1.552,1.552,0,0,1-.07.98,1.428,1.428,0,0,1-.578.653,29.724,29.724,0,0,1-.992,7.291,15.959,15.959,0,0,1-1.389,3.4A12.2,12.2,0,0,1,80.885,21.4a12.839,12.839,0,0,1-3.13,1.533,9.811,9.811,0,0,1-3.009.49,8.433,8.433,0,0,1-3.655-.817,8.9,8.9,0,0,1-2.958-2.3,10.5,10.5,0,0,1-1.4-2.146,12.336,12.336,0,0,1-.931-2.6,14.688,14.688,0,0,1-.387-2.992,17.663,17.663,0,0,1,.23-3.323,1.081,1.081,0,0,1-.32-.344c-.052-.084-.1-.174-.156-.285a5.116,5.116,0,0,0-2.371-.472,7.235,7.235,0,0,0-.99.068,4.388,4.388,0,0,0-2.927,1.639c-.11.114-.224.232-.343.352a1.069,1.069,0,0,1-.757.564l-.047.262a41.244,41.244,0,0,1-1.372,5.987,15.5,15.5,0,0,1-1.234,2.794,11.21,11.21,0,0,1-1.871,2.44,11.512,11.512,0,0,1-7.96,3.145Zm.532-20.077a27.661,27.661,0,0,0-4.709.329,11.769,11.769,0,0,0-4.378,1.621A4.251,4.251,0,0,0,34.882,9.99a9.9,9.9,0,0,1-.535,1.319,2.845,2.845,0,0,1-.863,1.034A14.541,14.541,0,0,0,35,17.162a12.96,12.96,0,0,0,2.78,3.6,11.987,11.987,0,0,0,3.595,2.256,10.634,10.634,0,0,0,3.959.781h0a9.408,9.408,0,0,0,3.208-.554,9.174,9.174,0,0,0,2.9-1.709A10.768,10.768,0,0,0,53.787,18.6a15.337,15.337,0,0,0,1.535-4.236,29.707,29.707,0,0,0,.84-4.626c-.357-.314-.691-.625-1.013-.925a14.55,14.55,0,0,0-2.92-2.286,10.674,10.674,0,0,0-4.523-1.187l-.175,0C46.975,5.332,46.4,5.324,45.826,5.324ZM66.748,10.09a21.062,21.062,0,0,0,.439,3.617,14.193,14.193,0,0,0,1.192,3.479,8.023,8.023,0,0,0,2.144,2.706,6.209,6.209,0,0,0,3.293,1.3c.3.026.609.039.91.039a8.723,8.723,0,0,0,3.132-.547,5.442,5.442,0,0,0,2.45-1.8,13.729,13.729,0,0,0,1.5-2.64,17.406,17.406,0,0,0,.947-2.878,26.756,26.756,0,0,0,.663-5.983A5.531,5.531,0,0,1,82.243,5.4a3.91,3.91,0,0,0-.88-1.5,3.049,3.049,0,0,0-2.147-.632c-.228,0-.477.011-.74.033a19.785,19.785,0,0,0-4.61.778,9.052,9.052,0,0,0-2.781,1.377,6.2,6.2,0,0,0-1.5,1.637A10.274,10.274,0,0,0,68.8,8.649c-.378.892-.651,1.536-1.451,1.536A2.242,2.242,0,0,1,66.748,10.09Z" transform="translate(-2.746 1.902)"/>
  </g>
</svg>
