<svg id="peep-35" xmlns="http://www.w3.org/2000/svg" width="240" height="324" viewBox="0 0 240 324">
  <g id="BODY" transform="translate(31.056 135.053)">
    <path id="_Skin" data-name="âœ‹ Skin" d="M120.408,54.524A22.062,22.062,0,0,1,115.194,52c-4.644-3.458-7.673-8.663-10.534-13.594a91.18,91.18,0,0,1-8.887-22.786c-.853-3.425-1.143-7.4-3.08-10.433C88.3-1.17,75.42-.346,68.58.77,64,1.581,63.053,6.709,62.013,10.5A79.865,79.865,0,0,0,60.1,20.076a23.91,23.91,0,0,1-3.629,1.877C43.194,26.026,40.86,33.578,35.788,45.244,27.221,62.2,3.974,68.84.462,88.907c-2.262,13.248,4.171,25.712,10.8,36.726,6.177,12.03,14.8,17.8,28.536,14.962,12.882-2.891,25.262-7.727,37.918-11.464,6.13-1.508,12.249-5.429,18.7-4.062a163.977,163.977,0,0,0,40.551,4c19.116.773,19.113-17.581,17.151-31.8-1.374-22.12-12.527-36.324-33.711-42.753Z" transform="translate(19.014 -8.454)" fill="#d08b5b"/>
    <path id="_Ink" data-name="ðŸ– Ink" d="M82.563,155.5c-11.877,0-22.941-.362-32.884-1.075a209.373,209.373,0,0,1-28.274-3.665,3.482,3.482,0,0,1-2.659,1.19,3.374,3.374,0,0,1-1.547-.365,2.948,2.948,0,0,1-1.2-1.132,4.941,4.941,0,0,1-.573-1.86,19.562,19.562,0,0,1-.133-2.062v0c-.008-.295-.016-.573-.03-.835-.049-.923-.223-5.134-.406-9.593v-.013c-.191-4.639-.389-9.436-.481-11.39-.029-.623-.062-1.28-.088-1.808-.156-3.159-.317-6.426-.288-9.643.019-2.091.112-3.959.286-5.71.015-.146.027-.306.039-.476a6.327,6.327,0,0,1,.44-2.24A57.606,57.606,0,0,0,10.8,95.881a36.4,36.4,0,0,1-7.459-2.824L3.034,92.9a8.975,8.975,0,0,1-1.4-.807,2.9,2.9,0,0,1-.983-1.242,7.737,7.737,0,0,1-.65-3.275,67.5,67.5,0,0,1,.8-7.047c.083-.557.17-1.132.25-1.7.429-2.988.932-5.988,1.5-8.917,1.653-8.579,3.679-17.68,7.277-26.1,3.694-8.649,9.147-15.351,16.207-19.921A60.39,60.39,0,0,1,39.815,17.4a81.867,81.867,0,0,1,14.87-3.379c.2-.027.4-.058.588-.088a9.93,9.93,0,0,1,1.515-.159,3.551,3.551,0,0,1,1.2.192c.064.023.131.048.2.072a2.352,2.352,0,0,0,.8.2h.01a5.661,5.661,0,0,0,.976-.13c.208-.04.424-.081.628-.1,1.1-.128,2.218-.2,3.3-.273h.014l.937-.063c.173-.012.352-.023.525-.033h0a9.493,9.493,0,0,0,2.951-.487c1.9-.757,3.07-6.27,3.631-8.919.122-.576.219-1.031.286-1.263.032-.111.065-.23.1-.345A4.117,4.117,0,0,1,73.642.17a1.228,1.228,0,0,1,.64-.17,1.185,1.185,0,0,1,.9.368,2.148,2.148,0,0,1,.435,1.463,10.186,10.186,0,0,1-.21,1.716c-.053.3-.1.575-.134.826-.01.085-.022.2-.036.341-.056.565-.161,1.617-.4,2.851a19.448,19.448,0,0,1-1.207,4.042,10.4,10.4,0,0,1-2.552,3.7,7.216,7.216,0,0,1-1.949,1.242,7.6,7.6,0,0,1-2.486.581,47.618,47.618,0,0,0-5.305.569,3.181,3.181,0,0,0-1.681.631.606.606,0,0,0-.109.506c.005.053.01.108.01.161a39.382,39.382,0,0,0,3.571,5.337,43.8,43.8,0,0,0,5.292,5.335,34.964,34.964,0,0,0,4.939,3.483,35.565,35.565,0,0,0,5.469,2.591,34.867,34.867,0,0,0,5.827,1.616,33.157,33.157,0,0,0,6.015.557c.171,0,.344,0,.515,0A18.6,18.6,0,0,0,97.332,36.9a12.437,12.437,0,0,0,2.71-1.378,11.927,11.927,0,0,0,2.368-2.127,19.7,19.7,0,0,0,3.129-5.71c.835-2.162,1.48-4.406,2.05-6.386l.186-.646c-2.735-3.41-3.887-7.955-2.867-11.308.3-.972.727-1.465,1.283-1.465a1.411,1.411,0,0,1,.72.236c.669.407.821,1.886.943,3.074a9.632,9.632,0,0,0,.16,1.166,9.654,9.654,0,0,0,2.639,4.286l.365.411c.084-.007.168-.01.252-.01a3.257,3.257,0,0,1,2.349,1.04,62.446,62.446,0,0,1,9.2,2.877,31.784,31.784,0,0,1,8.271,4.877,42.194,42.194,0,0,1,5.49,5.563c1.442,1.732,2.928,3.727,4.677,6.278,2.509,3.66,4.974,7.442,7.357,11.1l.008.012c.88,1.35,1.79,2.746,2.688,4.116l1.98,3.017.1.149c3.012,4.591,6.126,9.338,9.214,14.008.934,1.413,1.87,2.825,2.781,4.2.431.649.887,1.334,1.395,2.095.105.158.219.314.338.48l0,0A5.348,5.348,0,0,1,168,78.4a3.346,3.346,0,0,1-.051,1.571c-.021.106-.043.216-.059.316a6.32,6.32,0,0,1-.539,1.884,7.464,7.464,0,0,1-1.6,2.141,30.159,30.159,0,0,1,1.282,3.417,35.793,35.793,0,0,1,.892,3.541,47.744,47.744,0,0,1,.842,7.256,52.655,52.655,0,0,1-.813,12.316,20.906,20.906,0,0,1-1.416,4.534,15.139,15.139,0,0,1-2.577,3.974,14.537,14.537,0,0,1-3.04,2.519,17.921,17.921,0,0,1-3.568,1.7,26.773,26.773,0,0,1-8.973,1.36c-1.485,0-3.075-.082-4.861-.251.072.306.135.613.2.91l0,.013c.025.122.051.247.077.368.114.538.233,2.852.37,5.532v0c.2,3.967.456,8.9.816,10.532.06.271.112.561.167.868a7.339,7.339,0,0,0,.9,2.835,4.865,4.865,0,0,1,.73,1.469,3.442,3.442,0,0,1,.066,1.633,5.464,5.464,0,0,1-1.331,2.544c-.14.139-.228.24-.292.314-.176.2-.176.2-.608.23-.339.021-.97.059-2.182.233-3.268.467-7.139.907-11.506,1.308-4.43.406-9.272.763-14.391,1.06-10.936.635-22.685.971-33.975.971h0ZM40.684,83.181a60.442,60.442,0,0,0-8.8.661c-2.714.4-5.54.971-8.641,1.742-2.51.624-5.209,1.382-8.491,2.384.1.362.215.79.337,1.214.265.922.546,1.844.836,2.741.628,1.943,1.331,3.872,2.088,5.733a74.271,74.271,0,0,0,5.45,10.759,73.523,73.523,0,0,0,5.968,8.484,48.983,48.983,0,0,0,3.522,3.847,37.563,37.563,0,0,0,3.917,3.349,14.166,14.166,0,0,0,3.962,2.066,13.958,13.958,0,0,0,4.386.694h0c.207,0,.42,0,.631-.013a44.547,44.547,0,0,0,9.5-1.807h0c.457-.122.929-.248,1.392-.369,7.455-1.948,14.9-4.262,22.142-6.877,3.148-1.137,6.457-2.415,10.73-4.142,1.933-.782,3.693-1.518,5.381-2.251.518-.225,1.043-.474,1.551-.716.326-.155.663-.315,1-.47-1.633-.982-3.267-2.019-4.848-3.022l-.006,0c-1.531-.971-3.113-1.975-4.693-2.928-1.948-1.176-3.692-2.134-5.329-2.931a40.141,40.141,0,0,0-5.638-2.267,48.258,48.258,0,0,0-6.345-1.512,50.638,50.638,0,0,0-6.489-.659c-.879-.033-1.775-.035-2.642-.037-1.233,0-2.508-.007-3.753-.1a8.144,8.144,0,0,1-2.53-.546,5.3,5.3,0,0,1-1.111-.616,4.771,4.771,0,0,1-.944-.914,12.1,12.1,0,0,1-1.794-4.193c-.092-.319-.186-.648-.283-.963-.575-1.867-1.132-3.762-1.649-5.532-.166-.029-.333-.063-.494-.1h0c-.181-.037-.369-.076-.55-.106-.814-.136-1.653-.249-2.5-.336-1.511-.157-3.082-.245-4.67-.262C41.089,83.182,40.886,83.181,40.684,83.181Zm22.334,8.513h0a53.51,53.51,0,0,1,12.668,1.544,48.256,48.256,0,0,1,6.626,2.144,53.51,53.51,0,0,1,6.27,3.036c2.249,1.273,4.461,2.692,6.6,4.064l0,0h0c1.642,1.054,3.34,2.143,5.044,3.159A94.023,94.023,0,0,0,126.1,116.21c2.264.554,4.659,1.063,7.117,1.515,2.291.421,4.709.8,7.188,1.139a56.284,56.284,0,0,0,7.592.588c.954,0,1.886-.036,2.77-.107a19.53,19.53,0,0,0,4.475-.843,10.864,10.864,0,0,0,3.95-2.2,10.4,10.4,0,0,0,2.941-4.951,27.572,27.572,0,0,0,.9-5.786,62.89,62.89,0,0,0,.1-6.893,37.56,37.56,0,0,0-.9-6.826,28.119,28.119,0,0,0-2.226-6.118c-.156-.318-.348-.656-.551-1.013v0a9.457,9.457,0,0,1-1.246-2.9c-.437-.023-.883-.035-1.325-.035a26.646,26.646,0,0,0-5.186.522,31.861,31.861,0,0,0-5,1.447l.093.006.028,0c.411.025.836.051,1.254.079,1.3.086,2.368.186,3.365.314.176.023.357.041.55.06H152a5.2,5.2,0,0,1,2.235.556,2.048,2.048,0,0,1,.939,1.552,2.5,2.5,0,0,1-.13,1.081,2.451,2.451,0,0,1-.591.937,2.563,2.563,0,0,1-1.147.619,5.477,5.477,0,0,1-1.426.161,17.957,17.957,0,0,1-2.051-.158c-.29-.034-.564-.066-.812-.087-9.744-.832-17.183-1.616-24.121-2.542-8.308-1.109-16.655-2.547-24.438-3.934-3.908-.7-8.1-1.419-12.254-1.98a121.957,121.957,0,0,0-12.358-1.094c-.935-.03-1.863-.046-2.758-.046-1.63,0-3.23.051-4.755.152-1.619.107-3.211.275-4.73.5a66.957,66.957,0,0,0-9.015,2.183l-.007,0c-.625.183-1.272.372-1.912.554.286.682.571,1.372.847,2.04.654,1.582,1.33,3.217,2.038,4.807.063.141.126.3.192.474.272.7.61,1.569,1.273,1.829a2.732,2.732,0,0,0,1,.155,10.662,10.662,0,0,0,1.3-.109c.284-.036.552-.069.793-.083C61.068,91.722,62.046,91.694,63.018,91.694Zm66.746-13.8a6.589,6.589,0,0,0-2.586.625,24.08,24.08,0,0,0-2.431,1.278c-.207.119-.4.232-.6.341-.534.305-1.1.651-1.786,1.089,4.427.607,8.963,1.153,13.482,1.624a14.439,14.439,0,0,0-4.019-4.345,3.653,3.653,0,0,0-1.013-.469A3.827,3.827,0,0,0,129.764,77.889Z" transform="translate(8.873 -0.423)"/>
  </g>
  <g id="HEAD" transform="translate(78.592 38.043)">
    <path id="_Skin-2" data-name="âœ‹ Skin" d="M18.657,5.079C31.941,4.352,43.712.61,53.063,8.985c0,0,15.128-11.326,17.652-7.012,1.691,2.89-.654,6.77-.025,10.337,4.1,7.009,3.869,18.871,4.1,21.651.584,7.007,4.265,33.374,4.265,39.636,0,3.2-2.628,11.566-4.265,16.225-3.644,10.368-10.6,15.652-22,15.652S22.765,95.917,16.794,87.432c-.523-.744-3.907,1.426-7.446-2.337C5.514,81.018,3.387,73.242,3.387,68.606c0-5.882-3.792-9.961-3.351-17.49C1.021,34.3,4.441,5.857,18.657,5.079Z" transform="translate(6.733 0.526)" fill="#d08b5b"/>
    <path id="bandana" d="M70.715,1.19c1.691,2.89-.654,6.77-.025,10.337a28.663,28.663,0,0,1,3.088,9.481l-3.1,1.65-1.147.169q-27.907,4.125-35.623,7.424-7.794,3.333-18.918,23.414l-.225.407-1.47,9.991L6.556,66.134,3.385,67.641C3.309,61.856-.4,57.784.036,50.333,1.021,33.518,4.441,5.074,18.657,4.3,31.941,3.569,43.712-.173,53.063,8.2Q68.191-3.124,70.715,1.19Z" transform="translate(6.746 1.268)" fill="#9fd8e5"/>
    <path id="_Ink-2" data-name="ðŸ– Ink" d="M64.178,121.407a21.67,21.67,0,0,1-3.678-.318,20.174,20.174,0,0,1-4.115-.991,31.025,31.025,0,0,1-3.137-1.338,12.158,12.158,0,0,1-1.529-.884,16.966,16.966,0,0,1-2.309-1.807c-.249-.214-.473-.417-.685-.621a.148.148,0,0,1-.052-.146.174.174,0,0,1,.128-.124l.038,0-.045-.041h0c-.033-.03-.067-.061-.1-.093a.171.171,0,0,1-.027-.03l-.021-.019,0,0c-.015-.014-.031-.027-.044-.041a.111.111,0,0,1-.033-.1.246.246,0,0,1,.1-.17.145.145,0,0,1,.07-.015l.034,0,0,0a.163.163,0,0,0-.02-.018c-.009-.007-.01-.025-.008-.04l-.032-.025a.15.15,0,0,1-.054-.147.175.175,0,0,1,.128-.124.29.29,0,0,1,.082-.01.919.919,0,0,1,.188.024l.04.009-.072-.068a.166.166,0,0,1-.072-.159.174.174,0,0,1,.142-.112,1.91,1.91,0,0,1,.345.051l.085.023c.036.009.071.02.108.031h0l.015,0-.077-.07c-.045-.041-.091-.082-.136-.125a.109.109,0,0,1-.027-.094.267.267,0,0,1,.094-.178.151.151,0,0,1,.074-.017.507.507,0,0,1,.259.093,1.234,1.234,0,0,1,.538.186c.232.223.49.455.786.708a1.211,1.211,0,0,1,.434.22c.275.264.583.536.942.833l.245.169.124.082.517.3.873.513.558.19,4.518,1.533.224.068,1.642.2a14.684,14.684,0,0,0,3.24-.017h.144a11.087,11.087,0,0,0,2.259-.236,22.418,22.418,0,0,0,3.942-1.033,29.2,29.2,0,0,0,4.254-2.014c.491-.276.98-.572,1.455-.881.148-.105.3-.219.462-.336.986-.742,1.968-1.562,2.918-2.437.427-.393.853-.817,1.267-1.259l.025-.027,0,0c.05-.053.1-.1.144-.157.4-.438.78-.884,1.128-1.325l.344-.389a44.346,44.346,0,0,0,3.73-5.51,34.739,34.739,0,0,0,2.728-5.969c.235-.747.438-1.5.6-2.242a12.4,12.4,0,0,0,.611-2.792c.031-.18.056-.363.08-.541l0-.018.014-.293c0-.057,0-.1,0-.146.045-.313.079-.6.105-.888.018-.316.028-.608.03-.894L90.7,87.48c-.006-.055-.013-.115-.017-.175l-.046-.4c-.051-.417-.1-.84-.14-1.249s-.09-.834-.14-1.251a.054.054,0,0,0,0-.017c-.034-.276-.075-.6-.124-.936-.017-.139-.038-.278-.058-.412l-.022-.146-.053-.325c-.1-.579-.221-1.146-.361-1.683l-.063-.238-.367-1.849-.413-1.82c-.268-1.222-.493-2.462-.668-3.686-.31-1.912-.583-3.853-.833-5.935-.014-.1-.026-.2-.036-.287-.238-1.8-.416-3.668-.531-5.542-.153-1.816-.242-3.663-.265-5.489a.217.217,0,0,1,.118-.188l-.006-.352a.758.758,0,0,0-.008-.136s0,0,0,0,0,0,0,0a1.24,1.24,0,0,1,0-.167l0-.977c0-.085,0-.138,0-.142-.353.025-.69.036-1.029.036-.512,0-.981-.026-1.525-.057h-.008l-.41-.022-.184-.01a25.113,25.113,0,0,1-2.973-.321.106.106,0,0,1-.095.1c-.065,0-.129,0-.19,0h0l-.1,0,.036.137a.121.121,0,0,1-.1.133L79.8,54.1c-.131.005-.3.012-.473.012a4.835,4.835,0,0,1-.652-.039,6.777,6.777,0,0,1-.987-.216,5.722,5.722,0,0,1-.614-.139c-.294-.085-.592-.187-.88-.286h0c-.236-.081-.481-.165-.723-.24a4.383,4.383,0,0,0-.916-.1,3.267,3.267,0,0,0-.771.09c-.148.035-.292.077-.432.118a3.309,3.309,0,0,1-.94.181,1.675,1.675,0,0,1-.41-.05,2.7,2.7,0,0,1-.377-.131l-.115-.008-.06-.007a4.225,4.225,0,0,1-1.2-.44,7.227,7.227,0,0,0-.708-.312,1.1,1.1,0,0,0-.26-.032,1.038,1.038,0,0,0-.4.082l-.054.024-.213.159c-.081.1-.164.2-.254.306l-.125.154a3.131,3.131,0,0,1-.771.727,1.929,1.929,0,0,1-1.293.539h-.054a2.608,2.608,0,0,1-.8-.142,6.039,6.039,0,0,1-1.787.281,4.949,4.949,0,0,1-1.435-.207,4.665,4.665,0,0,1-1.212-.351,4.937,4.937,0,0,1-.544-.287c-.487.206-.964.46-1.425.707h0c-.238.127-.485.259-.729.382l-.161.081a5.093,5.093,0,0,1-2.2.672c-.056,0-.112,0-.166-.005a29.093,29.093,0,0,1-3.084-.383.122.122,0,0,1-.028,0L52.4,55.2l-.51-.09-.412-.077-.21.081a16.182,16.182,0,0,1-1.908.608,8.207,8.207,0,0,1-1.946.256,5.431,5.431,0,0,1-1.385-.172,4.633,4.633,0,0,1-2.06-.765c-.022-.016-.043-.03-.063-.046a1.943,1.943,0,0,1-.274-.169l-.018-.014L43.6,54.8l-.008,0a2.316,2.316,0,0,1-1.364-2.354,2.7,2.7,0,0,1,.008-.978c-.286.338-.587.685-.921,1.061-1.374,1.658-2.39,2.968-3.294,4.246l-.237.339c-.563.8-1.1,1.636-1.587,2.5-.525.9-1.025,1.72-1.529,2.515-.687.761-1.352,1.543-1.978,2.324l-.271.341L31.5,65.993a11.332,11.332,0,0,0-1.609,2.523c-.356.664-.678,1.333-.957,1.989-.081.178-.166.375-.268.619a20.45,20.45,0,0,0-.744,2.486,13.234,13.234,0,0,0-.338,1.875l-.021.212c-.027.263-.045.508-.055.748a.839.839,0,0,1,.15.108l.154.055.124.037c.261.081.418.169.453.254a.1.1,0,0,1,0,.085l-.407.778a.114.114,0,0,1,.034.142c-.275.528-.556,1.063-.82,1.566a.111.111,0,0,1-.038.044,7.343,7.343,0,0,1,.679.355,3.96,3.96,0,0,1,1.025.89,6.469,6.469,0,0,1,.86.609,6.463,6.463,0,0,1,.871,1.152,6.715,6.715,0,0,1,.557,1.232,2.519,2.519,0,0,1,.091.7,1.2,1.2,0,0,1-.353.764.9.9,0,0,1-.611.207,2.276,2.276,0,0,1-.928-.245,1.263,1.263,0,0,1-.463-.315,6.783,6.783,0,0,0-.5-1.4,5.428,5.428,0,0,0-.836-1.191l-.019-.013c-.411-.182-.837-.369-1.275-.514-.048.009-.1.016-.146.024H26.1l-.046.007a.152.152,0,0,1,.029.149.169.169,0,0,1-.145.084,7.191,7.191,0,0,1-1.391.136c-.2,0-.413-.009-.618-.026L22.9,81.971a6.487,6.487,0,0,0-1.214.623l-.127.085-.023.017a8.207,8.207,0,0,0-2.275,3.01c-.049.108-.092.21-.133.311l-.063.158,0,.008a10.16,10.16,0,0,0-.137,4.137,13.547,13.547,0,0,0,1.311,3.949c.683,1.1,1.4,2.178,2.133,3.215l.721.945c.432.407.852.823,1.25,1.236.055.055.118.115.2.188a5.394,5.394,0,0,0,.658.372c.092.031.181.058.264.08a3.316,3.316,0,0,0,1.356.33c.113.007.226.011.338.011a4.891,4.891,0,0,0,1.484-.23l.117-.039.086-.032a4.76,4.76,0,0,0,.9-.761.208.208,0,0,1,.156-.054.634.634,0,0,1,.16.024c.087-.09.156-.167.217-.243a.129.129,0,0,1,.1-.043.155.155,0,0,1,.087.028h.023a.878.878,0,0,1,.589.338.1.1,0,0,1-.011.112.78.78,0,0,1-.048.067l-.03.041a2.632,2.632,0,0,1,.274.161,2.274,2.274,0,0,1,1.035.642.071.071,0,0,1,.008.057l-.006.011a1.509,1.509,0,0,1-.4.487l-.056.042-.124.087c.166.1.256.192.267.26a.079.079,0,0,1-.018.065,1.394,1.394,0,0,1-.112.186c.32.4.659.822,1.069,1.34a10.8,10.8,0,0,0,1.316,2.154,9.266,9.266,0,0,0,1.575,1.951c.034.035.07.069.1.1l0,0,.045.043c.43.319.894.629,1.417.95l.212.128.034.02h0c.113.066.254.147.174.293a.162.162,0,0,1-.038.051c.317.208.64.4.961.573l.031.019c.088.056.193.141.193.227a.143.143,0,0,1-.077.117.149.149,0,0,1-.084.022,1.648,1.648,0,0,1-.645-.312l-.015-.01a.448.448,0,0,1-.12-.023c.044.024.089.049.132.074l.056.032.1.053c.011.007.281.17.272.3,0,.038-.033.069-.088.092l-.045,0a.524.524,0,0,1-.3-.1c-.119-.059-.243-.125-.367-.195a.118.118,0,0,1,.023.1.134.134,0,0,1-.086.075h-.028a.656.656,0,0,1-.079-.005c.244.156.495.3.767.446l.043.027c.13.085.2.162.2.229a.119.119,0,0,1-.045.1.151.151,0,0,1-.1.035,1.229,1.229,0,0,1-.508-.222l-.037-.023-.308-.184a.235.235,0,0,1-.076.017l.112.072c.052.034.106.069.162.1l.129.07c.122.068.288.17.32.283a.128.128,0,0,1-.012.1.137.137,0,0,1-.129.068.791.791,0,0,1-.358-.136l-.171-.106,0,0-.019-.011-.007.025a.052.052,0,0,1-.006.013.14.14,0,0,1-.13.071.616.616,0,0,1-.285-.1l-.11-.067c-.2-.12-.378-.229-.556-.337l-.275-.17h0a17.23,17.23,0,0,1-2.658-1.879,16.1,16.1,0,0,1-1.4-1.4,17.436,17.436,0,0,1-2.169-3.3c-.01-.017,0-.061.029-.121-.064-.133-.131-.277-.2-.44a6,6,0,0,1-1.595.205c-.149,0-.3,0-.448-.015a5.4,5.4,0,0,1-1.065-.182,7.76,7.76,0,0,1-3.143-1.285c-.035-.023-.069-.047-.1-.071l-.066-.047a7.454,7.454,0,0,1-1.1-.761,18.25,18.25,0,0,1-1.914-1.841c-.427-.508-.832-1.039-1.206-1.579-.338-.475-.685-.958-1.021-1.424l-.139-.193a14.01,14.01,0,0,1-2.035-5.626,11.39,11.39,0,0,1-.183-2.215,9.59,9.59,0,0,1,.173-1.615l-.034-.033c-.049-.048-.1-.1-.149-.146-.032.057-.058.086-.076.086a.017.017,0,0,1-.012-.006l-.483-.485a7.794,7.794,0,0,1-.967-1.161,11.325,11.325,0,0,1-1.444-2.912,10.223,10.223,0,0,1-.483-2.394c-.021-.132-.042-.272-.059-.412a11.7,11.7,0,0,1,.156-3.242.173.173,0,0,1,.095-.139c.011-.075.023-.152.035-.227l.006-.035a9.342,9.342,0,0,1-1.714-2.459,6.444,6.444,0,0,1-.605-2.966,5.57,5.57,0,0,1,.431-1.975l.032-.071a3.436,3.436,0,0,1-1.569-.695,5.694,5.694,0,0,1-1.216-1.323c-.061-.048-.121-.1-.179-.147a9.886,9.886,0,0,1-2.693-4.16A9.746,9.746,0,0,1,4.2,58.595c-.006-.052-.01-.1-.014-.154v0l-.005-.063a18.878,18.878,0,0,1-.229-4.865,24.159,24.159,0,0,1-.686-3.05c-.069-.449-.124-.934-.168-1.484l0-.027-.006-.089-.018-.222c0-.037-.005-.074-.007-.11a23.977,23.977,0,0,1-.022-3.379,27.275,27.275,0,0,1,.424-3.334,35.337,35.337,0,0,1,1.921-6.463c.149-.387.3-.766.451-1.126L6,33.839A31.915,31.915,0,0,1,10.517,28.5c.6-.614,1.224-1.248,1.806-1.88a.808.808,0,0,0,.158-.9.91.91,0,0,0-.791-.558.755.755,0,0,0-.559.265c-.562.61-1.149,1.219-1.717,1.809h0c-.866.9-1.761,1.828-2.589,2.781-.169.012-.324.018-.474.018-.086,0-.171,0-.253-.006a5.8,5.8,0,0,1-1.227-.2A6.171,6.171,0,0,1,2.162,28.7,4.131,4.131,0,0,1,.726,27.615a2.884,2.884,0,0,1-.685-1.646,2.464,2.464,0,0,1,0-.376,3.312,3.312,0,0,1,.247-1.854,3.224,3.224,0,0,1,.173-.482,3.127,3.127,0,0,1,.972-1.23l.008,0h0l.018-.012.027-.029c.034-.036.069-.073.107-.106a2.408,2.408,0,0,1,.228-.184,11.6,11.6,0,0,1-.761-1.465A5.99,5.99,0,0,1,.633,18.5,7.066,7.066,0,0,1,.591,17.8c-.012-.1-.02-.205-.03-.328a5.783,5.783,0,0,1,.356-2.488c.015-.039.033-.077.051-.117L1,14.8a5.034,5.034,0,0,1,.2-.528,4.976,4.976,0,0,1,1.3-1.693A5.41,5.41,0,0,1,3.49,11.8a4.091,4.091,0,0,1,.711-.349,3.956,3.956,0,0,1,1.514-.477h.025l.068,0,.069,0a10.082,10.082,0,0,1,.679-3.633,5.338,5.338,0,0,1,.531-1.115,3.76,3.76,0,0,1,.793-.9,3.552,3.552,0,0,1,1.374-.893l.1-.035.038-.01a3.6,3.6,0,0,1,1.587-.34H11c.07,0,.141-.006.211-.006a3.587,3.587,0,0,1,1.672.394,3.675,3.675,0,0,1,.365.226,6.188,6.188,0,0,1,.308-.549,8.173,8.173,0,0,1,1.467-1.74c.045-.041.094-.08.141-.117l.072-.058a8.6,8.6,0,0,1,.873-.7A7.283,7.283,0,0,1,18.235.487,7.09,7.09,0,0,1,20.7.041c.08,0,.161,0,.241,0l.19.008c.04,0,.079.006.117.008h.007a8.919,8.919,0,0,1,2.673.621,8.068,8.068,0,0,1,2.348,1.5,3.875,3.875,0,0,1,.582-.647c.043-.037.088-.072.131-.106l.07-.055c.046-.046.1-.093.158-.148a5.124,5.124,0,0,1,.808-.585A3.631,3.631,0,0,1,29.073.235,4.454,4.454,0,0,1,30.23,0c.051,0,.1,0,.157,0,.111,0,.231.006.365.02a3.8,3.8,0,0,1,.576.066A4.626,4.626,0,0,1,33.85,1.52a.449.449,0,0,1,.031.035l.02.024a6.542,6.542,0,0,1,.873.8l.048-.046h0l.09-.086c.139-.123.286-.24.436-.349A5.688,5.688,0,0,1,37.531.726l.11-.03A.633.633,0,0,1,37.7.681,5.528,5.528,0,0,1,39.458.4h.017l.176,0A5.057,5.057,0,0,1,41.594.77a5.967,5.967,0,0,1,2.079,1.486,10.79,10.79,0,0,1,1.073,1.036A7.892,7.892,0,0,1,46.419,6c.047.131.091.273.135.433.924-.107,1.827-.179,2.684-.214.705-.043,1.393-.065,2.046-.065.328,0,.655.005.973.016a27.906,27.906,0,0,1,8.121,1.479,9.54,9.54,0,0,1,1.533.6,11.135,11.135,0,0,1,2.195,1.177l.587.349c.264.157.575.344.876.536a17.216,17.216,0,0,1,1.937,1.456,20.926,20.926,0,0,1,1.834,1.687c.141.144.287.3.459.489A15.694,15.694,0,0,1,73.43,16.7a25.669,25.669,0,0,1,5.936-2.513,20.76,20.76,0,0,1,2.724-.56c.381-.066.791-.124,1.252-.178l-.017.007c.276-.03.558-.057.886-.085l-.009,0,.058,0c.106-.009.216-.018.323-.025l.308-.025H84.9c.1,0,.223.214.231.285l.011.078c.043.049.083.1.119.145.02.026.041.052.058.073.056,0,.111-.009.164-.011h.012c.131,0,.279.189.376.313.023.029.045.057.063.078l.088.1a.83.83,0,0,1,.216.41c.111.906.213,1.792.3,2.635a9.032,9.032,0,0,1-.11,1.978c-.086.662-.175,1.332-.251,1.9-.133.437-.264.875-.391,1.3l-.01.033c-.041.13-.085.261-.129.387l-.04.116a27.021,27.021,0,0,1-1.2,3.253,14.868,14.868,0,0,1,.962,1.183l.019.02c.064.066.13.133.191.2a.208.208,0,0,1,.076-.072.177.177,0,0,1,.071-.016.215.215,0,0,1,.168.111,5.677,5.677,0,0,1,1.446,2.225l.187.442c.035.085.065.155.092.222a15.572,15.572,0,0,1,.573,1.97,11.916,11.916,0,0,1,.3,1.6c.476,1.6.846,3.24,1.155,4.648a1.054,1.054,0,0,1-.05.646l.2.194.339.339A10.774,10.774,0,0,1,91.7,41.949a16.309,16.309,0,0,1,.888,1.713c.075.161.153.326.231.489l.077.159.158.318a7.884,7.884,0,0,1,.4.958,8.4,8.4,0,0,1,.449,2.145,9.3,9.3,0,0,1,.016,1.659,4.716,4.716,0,0,1-.408,1.6.066.066,0,0,1-.01.021,4.373,4.373,0,0,1-.555,1.371,3.726,3.726,0,0,1-1,1.074,3.124,3.124,0,0,1-.557.425,1.671,1.671,0,0,1-.878.251,2.28,2.28,0,0,1-.554-.075l-.065-.017c-.074-.019-.129-.033-.181-.044.057.048.084.091.079.129s-.031.059-.079.082a1.072,1.072,0,0,1-.335.106.111.111,0,0,1,.029.089.129.129,0,0,1-.073.08.886.886,0,0,1-.42.122.657.657,0,0,1-.116-.01l.035.294c.12.966.234,1.589.343,2.192a27.834,27.834,0,0,1,.4,2.86c.143,2.446.374,4.906.685,7.313l.108.882c.334,2.69.726,5.565,1.334,8.366.3,1.188.56,2.41.78,3.633a14.746,14.746,0,0,1,.647,2.845,28.346,28.346,0,0,1,.365,2.98,5.362,5.362,0,0,1,.354,1.955,18.873,18.873,0,0,1-.093,2.667,17.289,17.289,0,0,1-.379,2.739,15.654,15.654,0,0,1-.974,3.6,35.081,35.081,0,0,1-1.358,3.815,37.4,37.4,0,0,1-2.907,5.482,38.574,38.574,0,0,1-3.449,4.73,32.283,32.283,0,0,1-5.616,5.148,27.366,27.366,0,0,1-3.73,2.334,27.745,27.745,0,0,1-4.939,2.067,24.834,24.834,0,0,1-3.283.694A20.143,20.143,0,0,1,64.178,121.407Zm-38.6-63.484a1.01,1.01,0,0,1,.41.165.233.233,0,0,1,.12.151.19.19,0,0,1-.061.149c-.019.022-.038.043-.057.061a2.136,2.136,0,0,1,.4.224,1.561,1.561,0,0,1,.85.506.05.05,0,0,1-.007.051c-.182.19-.374.4-.586.64.148.1.237.2.243.251a.042.042,0,0,1-.009.034,26.081,26.081,0,0,0-2.277,2.762,20.463,20.463,0,0,0-1.436,2.272,28.539,28.539,0,0,0-1.655,3.443c-.072.192-.136.368-.2.539a30.071,30.071,0,0,0-.9,3,23.9,23.9,0,0,0-.543,3.08l-.009.14c-.015.273-.027.716-.039,1.185v0c-.022.814-.046,1.736-.095,2.039a10.478,10.478,0,0,0,1.455.588c.09.026.187.052.289.076a1.607,1.607,0,0,1,.169-.059,5.916,5.916,0,0,1,1.444-.389,6.17,6.17,0,0,1,.809-.053l.19,0,.142.006c.137,0,.282.014.441.03-.006-.059-.01-.117-.013-.173,0-.026,0-.052-.005-.079a.146.146,0,0,1-.076-.116A14.083,14.083,0,0,1,24.57,75.6c.058-.458.129-.944.217-1.486.075-.372.167-.766.28-1.2a22.773,22.773,0,0,1,1.082-3.282,50.883,50.883,0,0,1,4.885-8.535c.5-.747.99-1.512,1.467-2.252.8-1.239,1.626-2.52,2.486-3.751,1.3-1.861,2.512-3.458,3.7-4.882a49.313,49.313,0,0,1,4.178-4.455c.231-.213.469-.426.729-.651a34.762,34.762,0,0,1,4.545-3.333.1.1,0,0,1,.056-.015.358.358,0,0,1,.206.1l.258-.159.13-.078a.048.048,0,0,1,.026-.008.118.118,0,0,1,.082.06c.09-.047.181-.093.269-.137l.06-.03c.046-.037.094-.074.14-.11l0,0h0l.1-.077c-1.166-.059-2.36-.148-3.55-.264-1.309.14-2.588.275-3.8.4-.823.095-1.64.177-2.427.245-.6.045-1.143.067-1.656.067a14.474,14.474,0,0,1-1.99-.128,12.028,12.028,0,0,1-1.269-.247c-.266.2-.554.39-.881.594L30.551,44.54a60.672,60.672,0,0,0-6.419,5.713,39.962,39.962,0,0,0-4.65,5.863A35.153,35.153,0,0,0,16.1,62.782a.7.7,0,0,0-.326.514,18.076,18.076,0,0,1-.786,2.838,18.617,18.617,0,0,0-.77,2.746,6.117,6.117,0,0,0,.079,2.635A6.32,6.32,0,0,0,15.5,73.857a.689.689,0,0,0,.558.245.958.958,0,0,0,.527-.158.144.144,0,0,0,.13.077c.132,0,.3-.152.374-.579a6.309,6.309,0,0,0,1.278-1.906.689.689,0,0,0-.011-.614.827.827,0,0,0-.6-.382c.192-.693.409-1.377.644-2.035a28.26,28.26,0,0,1,2.76-5.69A32.1,32.1,0,0,1,24.576,58.5a.1.1,0,0,1,.067-.029l.259-.288a.112.112,0,0,1,.088-.031.427.427,0,0,1,.1.016l.093-.1,0,0c.045-.049.092-.1.139-.148a.146.146,0,0,1,.105-.053.135.135,0,0,1,.108.062A.181.181,0,0,1,25.581,57.923ZM54.252,27.958h0a6.972,6.972,0,0,0-.7.442,7.627,7.627,0,0,0-.822.774,7.975,7.975,0,0,0-1.413,2.234,8.792,8.792,0,0,0-.289,1.357c-.011.095-.025.207-.036.321a9.421,9.421,0,0,0,.264,3.213,12.028,12.028,0,0,0,1.225,2.985h.042a19.959,19.959,0,0,1,2.993-1.317,28.04,28.04,0,0,1,2.568-1.541,26.96,26.96,0,0,1,5.905-2.282l.236-.059c.47-.12.96-.23,1.455-.327l.293-.055h0l-.032-.315a9.4,9.4,0,0,0-3.23-5.721l0,0a7.165,7.165,0,0,0-1.116-.51l-.145-.051-.67-.152a8.46,8.46,0,0,0-1.661-.167,8.342,8.342,0,0,0-1.223.091c-.417.061-.823.134-1.207.217A7.915,7.915,0,0,1,58.8,30.067a.851.851,0,0,1-.05.825,1.166,1.166,0,0,1-1.983-.263A5.174,5.174,0,0,0,54.252,27.958ZM34.778,38.57h0a6.621,6.621,0,0,0,1.267.375c.183.034.383.065.613.093l.027.018.014.011h.224c.359.035.737.052,1.123.052a20.811,20.811,0,0,0,3.625-.385c1.309-.132,2.64-.274,3.927-.412h.012c.9-.1,1.824-.2,2.74-.29h.011c.031,0,.048.016.048.045l.137-.013h.018a.369.369,0,0,1,.3.248.156.156,0,0,1-.033.185,2.036,2.036,0,0,1,.323.256l.05,0a9.245,9.245,0,0,1-.71-1.881l-.215-1.095a10.078,10.078,0,0,1-.1-1.272c-.017-.235-.025-.4-.025-.541,0-.174,0-.319.009-.456a13.257,13.257,0,0,0-1.28-.455l-.954-.118-.025,0c-.891-.11-1.812-.223-2.719-.334-.755.028-1.5.083-2.218.163-.819.072-1.661.168-2.5.283H38.45a.485.485,0,0,1-.292-.22l-.356.049h-.017c-.109,0-.214-.13-.231-.242a.154.154,0,0,1,.112-.184c.084-.033.171-.066.265-.1l.133-.047-.076.008h-.011a.258.258,0,0,1-.082-.017l-.063.008h0l-.522.065-.031,0a.121.121,0,0,1-.131-.1.269.269,0,0,1,.145-.275l.083-.031a.384.384,0,0,1-.182-.3.139.139,0,0,1,.088-.122l.024-.009c.054-.021.107-.041.158-.059l.093-.034a.129.129,0,0,1,0-.076l-.348.044s0,0,0,0a.707.707,0,0,1,.2-.26l.012-.006.167-.051a.659.659,0,0,1,.207-.245c.586-.185,1.163-.362,1.775-.5a.192.192,0,0,1,.1-.072c.339-.081.706-.152,1.122-.217.03-.045.054-.066.08-.068a14.454,14.454,0,0,1,1.818-.115c.325,0,.654.011.98.033.194.018.37.037.538.059.375.042.711.092,1.029.152a14.091,14.091,0,0,1,2.5.673l.187.071c.223.083.422.163.607.243a8.545,8.545,0,0,1,.377-1.065c.021-.063.046-.126.076-.2l-.2-.123a.212.212,0,0,1-.157.124.07.07,0,0,1-.037-.01,25.038,25.038,0,0,0-4.649-2.477,23.9,23.9,0,0,0-2.81-1.038c-.424-.137-.884-.272-1.446-.427-.269-.057-.494-.1-.732-.144a21.112,21.112,0,0,0-3.862-.666c-.946-.09-1.933-.135-2.932-.135-.974,0-2,.043-3.038.128-1.288.128-2.593.308-3.879.537a20.048,20.048,0,0,0-2.564.624l.48.973a52.567,52.567,0,0,0,2.592,4.761,23.06,23.06,0,0,0,1.632,2.259,11.333,11.333,0,0,0,1.318,1.433c.11.134.236.274.4.442a7.666,7.666,0,0,0,1.427.978,9.809,9.809,0,0,0,1.3.8l.17.085,1.581.609c.077.022.167.047.255.071l.129.033.24.051.18-.1.092-.048a.057.057,0,0,1,.027-.007c.034,0,.06.037.07.071a.087.087,0,0,1-.013.057l.23-.125ZM82.2,33.661a.074.074,0,0,1,.044.014l.143.1a11.071,11.071,0,0,1,3.28,1.488l-.018-.132c0-.022-.007-.044-.01-.066.017-.259.021-.521.013-.778a17.161,17.161,0,0,0-1.313-4.347.127.127,0,0,1,.014-.1,13.94,13.94,0,0,0-.983-1.411c-.192.333-.375.632-.559.914a21.359,21.359,0,0,1-3.392,4.031h.028c.345,0,.674.015.98.043a11.819,11.819,0,0,1,1.685.284A.152.152,0,0,1,82.2,33.661Zm-11.171-.438a28.954,28.954,0,0,1,3.4.2,19.626,19.626,0,0,0,1.908-1.3c.175-.136.355-.28.55-.442a21.086,21.086,0,0,0,5.045-6.558,21.835,21.835,0,0,0,1.282-3.494,16.757,16.757,0,0,0,.479-3.312c.027-.2.044-.392.057-.558l0-.08,0-.039c-.022-.42-.066-.841-.105-1.2a12.534,12.534,0,0,0-1.311.313,10.62,10.62,0,0,0-2.37.645c-.922.328-1.874.72-3.088,1.27A25.468,25.468,0,0,0,71.36,22.07c-.11.084-.218.173-.313.251-.407.353-.765.691-1.093,1.032l-.386.42-.005.006c-.231.252-.471.512-.705.769-.165.173-.342.343-.513.507a9.452,9.452,0,0,0-.854.894,2.611,2.611,0,0,0-.219.332l.238.082a.231.231,0,0,1,.131.261c-.011.065-.049.134-.125.134a.142.142,0,0,1-.038-.005,1.994,1.994,0,0,1-.194-.068.234.234,0,0,1,.051.1.219.219,0,0,1-.05.163.132.132,0,0,1-.1.048.142.142,0,0,1-.039-.006,1.384,1.384,0,0,1-.171-.059.783.783,0,0,0-.029.194.16.16,0,0,0,.034.011.887.887,0,0,1,.438.414.173.173,0,0,1-.031.148.151.151,0,0,1-.119.061.16.16,0,0,1-.042-.006,1.629,1.629,0,0,1-.272-.106.31.31,0,0,1,.11.171.223.223,0,0,1-.057.159.139.139,0,0,1-.1.049.128.128,0,0,1-.033,0,1.457,1.457,0,0,1-.531-.264.18.18,0,0,1-.12.08l-.017,0-.082-.025c.023.021.043.043.063.065l.03.032a10.327,10.327,0,0,1,1.5,2.078.565.565,0,0,1,.072-.064c.169-.143.359-.3.582-.469l.059-.052.061-.052-.441.146.01-.011.03-.04a2.156,2.156,0,0,1,.143-.178l.011-.01a9.848,9.848,0,0,1,1.977-1.38,8.86,8.86,0,0,1,1.455-.763,29.9,29.9,0,0,1,3.717-1.39l.224-.074h0c.107-.035.228-.076.343-.112a.1.1,0,0,1,.033-.007.026.026,0,0,1,.021.008.049.049,0,0,1,0,.041l.1-.03a.149.149,0,0,1,.046-.007.418.418,0,0,1,.317.236.158.158,0,0,1,0,.173c.066.054.138.119.206.187l.045.045.05-.015a.141.141,0,0,1,.042-.006c.116,0,.292.122.524.362l.119.126c.052.056.175.188.151.285a.14.14,0,0,1-.1.092l-.272.093c.009.062-.022.1-.1.133-.1.033-.2.069-.28.1.054.048.109.1.166.152l.081.078.014.015c.076.077.2.207.186.306a.125.125,0,0,1-.078.088L77.2,28l-.259.093a.14.14,0,0,1,.009.112.157.157,0,0,1-.1.078,41.606,41.606,0,0,0-4.436,1.807,13.814,13.814,0,0,1-3.428,1.342.1.1,0,0,1-.03,0,.582.582,0,0,1-.373-.273l-.18.053-.09.025-.03.006a9.331,9.331,0,0,1,.485,1.887c.01.055.019.115.025.174.262-.021.493-.037.706-.049C70.007,33.236,70.52,33.222,71.028,33.222ZM68.191,30.6c-.058.02-.105.036-.15.049.028.062.054.122.084.194h0l.2-.157A.707.707,0,0,1,68.191,30.6ZM30.98,92.127a.745.745,0,0,1-.394-.139c-.122-.079-.247-.157-.382-.24l-.193-.117h0l0,0A26.573,26.573,0,0,0,23.967,88.9c-.012,0-.016-.021-.011-.048a3.494,3.494,0,0,1,.513-.876c.311-.422.573-.674.7-.674a.089.089,0,0,1,.026,0c-.016-.007-.024-.013-.023-.021a2.763,2.763,0,0,1,.725-.15c.044,0,1.993.733,2.963,1.207l.048.024A15.841,15.841,0,0,1,31.384,89.9l.194.138c.032.023.137.106.137.194a4.5,4.5,0,0,1-.157,1.271C31.429,91.918,31.235,92.127,30.98,92.127ZM83.344,13.451h0a1.77,1.77,0,0,1,.595-.131.633.633,0,0,1,.264.051C83.934,13.39,83.653,13.417,83.344,13.451Z" transform="translate(-6.325 -13.949)"/>
  </g>
  <g id="FACE" transform="translate(112.183 77.354)">
    <path id="_Ink-3" data-name="ðŸ– Ink" d="M22.824,40.539a8.045,8.045,0,0,1-3.052-.61,8.621,8.621,0,0,1-1.992-1.145,8.487,8.487,0,0,1-1.622-1.636,1.676,1.676,0,0,1-.338-1.3,1.871,1.871,0,0,1,.728-1.172,1.793,1.793,0,0,1,1.067-.372,1.548,1.548,0,0,1,.238.018,1.648,1.648,0,0,1,1.1.73l.065.09A5.7,5.7,0,0,0,21.108,36.9a4.735,4.735,0,0,0,2.069.483,4.583,4.583,0,0,0,.513-.029,5.388,5.388,0,0,0,2.278-.8,10.668,10.668,0,0,0,1.93-1.611c.138-.141.284-.294.474-.5a.751.751,0,0,1,.394-.3.806.806,0,0,1,.256-.041.871.871,0,0,1,.714.373.8.8,0,0,1,.135.524,4.812,4.812,0,0,1-.57,1.864,6.221,6.221,0,0,1-1.22,1.567,7.841,7.841,0,0,1-1.847,1.288,7.69,7.69,0,0,1-2.05.7A7.548,7.548,0,0,1,22.824,40.539Zm2.148-12.17h0a7.373,7.373,0,0,1-2.63-.53,13.281,13.281,0,0,1-3.093-1.756,1.189,1.189,0,0,1-.432-.687,1.423,1.423,0,0,1,.061-.771,1.754,1.754,0,0,1,.521-.753,1.267,1.267,0,0,1,.812-.317,1.151,1.151,0,0,1,.628.193l.209.161,0,0a16.744,16.744,0,0,0,1.936,1.347,4.768,4.768,0,0,0,2.321.74,2.505,2.505,0,0,0,.981-.193,2.74,2.74,0,0,0,.913-.647,2.8,2.8,0,0,0,.531-2.255,4.26,4.26,0,0,0-1.13-2,8.241,8.241,0,0,0-1.711-1.381.531.531,0,0,1-.144-.61.8.8,0,0,1,.264-.38.809.809,0,0,1,.505-.167,1.076,1.076,0,0,1,.181.016,5.736,5.736,0,0,1,2.018.729,4.577,4.577,0,0,1,1.357,1.252,4.974,4.974,0,0,1,.866,3.322,5.475,5.475,0,0,1-.444,1.744,5.087,5.087,0,0,1-1,1.5A4.779,4.779,0,0,1,24.972,28.369ZM7.859,16.485a1.724,1.724,0,0,1-1.119-.439,1.744,1.744,0,0,1-.587-1.128,12.706,12.706,0,0,1,.067-3.308c.04-.321.081-.654.11-1.012a1.98,1.98,0,0,1,.75-1.415,2.31,2.31,0,0,1,1.421-.5,1.751,1.751,0,0,1,1.075.338,1.594,1.594,0,0,1,.594,1.057,8.877,8.877,0,0,1-.926,5.469,1.754,1.754,0,0,1-.619.716A1.427,1.427,0,0,1,7.859,16.485Zm25.119-.75a1.508,1.508,0,0,1-1.183-.507A4.624,4.624,0,0,1,31.074,14a5.342,5.342,0,0,1-.368-1.477,3.131,3.131,0,0,1,.853-2.687,1.772,1.772,0,0,1,.137-.208,1.933,1.933,0,0,1,1.487-.856,1.611,1.611,0,0,1,.452.067,2.175,2.175,0,0,1,1.453,1.268,4.486,4.486,0,0,1,.18,2.453,8.214,8.214,0,0,1-.744,2.314,1.5,1.5,0,0,1-.643.635A1.947,1.947,0,0,1,32.979,15.735ZM.278,7.854a.274.274,0,0,1-.229-.14.306.306,0,0,1-.018-.3A10.425,10.425,0,0,1,2.368,4.454,14.446,14.446,0,0,1,5.5,2.317a13.445,13.445,0,0,1,3.714-1.3l.4-.069A9.66,9.66,0,0,1,11.226.776a2.5,2.5,0,0,1,2,.746,1.7,1.7,0,0,1,.4,1.208,1.106,1.106,0,0,1-.4.789,3.08,3.08,0,0,1-2.112.62c-.166,0-.338,0-.5-.008H10.6c-.16,0-.341-.009-.521-.009s-.314,0-.452.012a14.274,14.274,0,0,0-3.143.536A21.357,21.357,0,0,0,.424,7.806.26.26,0,0,1,.278,7.854Zm38.247-1.6h0l-.167-.042A9.458,9.458,0,0,1,36.524,5.5l-.6-.293A16.537,16.537,0,0,0,33.8,4.3a25.089,25.089,0,0,0-4.845-1.07,1.979,1.979,0,0,1-.972-.369,1.457,1.457,0,0,1-.544-.828A1.482,1.482,0,0,1,27.609.786a1.581,1.581,0,0,1,.767-.661A1.725,1.725,0,0,1,29.03,0a1.926,1.926,0,0,1,.377.038l.3.062a21.676,21.676,0,0,1,5.232,1.7,10.579,10.579,0,0,1,2.3,1.514,6.719,6.719,0,0,1,1.627,2.1c.057.439,0,.548-.055.622L38.8,6.06l-.015.02a.421.421,0,0,1-.26.173Z" transform="translate(11.197 10.99)"/>
  </g>
</svg>
