<svg xmlns="http://www.w3.org/2000/svg" width="259.014" height="324" viewBox="0 0 259.014 324">
  <g id="peep-95" transform="translate(19.014)">
    <g id="BODY" transform="translate(31.056 135.053)">
      <path id="_Skin" data-name="âœ‹ Skin" d="M49.808,154.421c-1.444,0-2.856-.053-4.2-.158a12.123,12.123,0,0,1-3.56-.951,15.856,15.856,0,0,1-3.1-1.818,43.73,43.73,0,0,1-5.4-5.034h0c-.927-.966-1.885-1.965-2.849-2.869-4.456-4.556-8.791-9.3-12.883-14.109-4.135-4.856-8.128-9.894-11.867-14.976l-.157-.217c-.394-.539-.818-1.09-1.228-1.623a36.238,36.238,0,0,1-2.946-4.233,13.233,13.233,0,0,1-1.039-2.3,9.408,9.408,0,0,1-.485-2.486,2.083,2.083,0,0,1-.053-1.014,3.911,3.911,0,0,1,.368-1.078,5.653,5.653,0,0,1,1.417-1.794l.36-.519c1.528-2.2,2.964-4.166,4.389-6.014,1.612-2.091,3.166-3.972,4.75-5.749,1.712-1.922,3.458-3.715,5.192-5.329a64.351,64.351,0,0,1,5.716-4.753,2.8,2.8,0,0,1,.277-1.3,2.866,2.866,0,0,1,.9-1.079L56.874,50.783c2.762-1.9,5.508-3.944,8.163-5.919,2.824-2.1,5.744-4.273,8.7-6.284a86.033,86.033,0,0,1,9.162-5.529,41.447,41.447,0,0,1,3.993-1.665c1.272-.458,2.612-.88,4.1-1.291,2.758-.764,5.61-1.373,8.368-1.961,2.282-.487,4.64-.99,6.936-1.579a57.961,57.961,0,0,0,6.785-2.142c.093-1.24,1.305-2.012,2.306-2.441a9.15,9.15,0,0,1,3.148-.727c.223,0,.363.026.395.074a.041.041,0,0,1,0,.041,26.962,26.962,0,0,0,7.084-5.965,17.847,17.847,0,0,0,2.05-3.13,14.168,14.168,0,0,0,1.155-3.1,22.737,22.737,0,0,0,.457-3.011,10.448,10.448,0,0,1,.821-3.7A4.725,4.725,0,0,1,133.766.147C135.129.05,136.5,0,137.853,0a48.456,48.456,0,0,1,8.175.66,31.741,31.741,0,0,1,7.781,2.31A21.853,21.853,0,0,1,157.218,4.9a17.7,17.7,0,0,1,2.911,2.525,15.945,15.945,0,0,1,2.279,3.185,16.887,16.887,0,0,1,1.514,3.906,17.076,17.076,0,0,0,.954,3.091,13.04,13.04,0,0,0,1.359,2.443,27.65,27.65,0,0,0,4.074,4.313,22.719,22.719,0,0,1,2.407,3.731,13.856,13.856,0,0,1,1.223,3.42,9.012,9.012,0,0,1-.68,5.884,12.014,12.014,0,0,1-3.811,4.336,24.111,24.111,0,0,1-6.164,3.142,42.529,42.529,0,0,1-7.813,1.912,58.186,58.186,0,0,1-8.757.645c-1.921,0-3.86-.09-5.762-.267-1.932-.18-3.842-.452-5.676-.807a44.021,44.021,0,0,1-10.36-3.273,24.421,24.421,0,0,1-7.815-5.547,14.8,14.8,0,0,1-3.8-7.9,91.941,91.941,0,0,1-12.39,3.24,91,91,0,0,0-12.548,3.3A54.451,54.451,0,0,0,76.2,43.021C67.32,49.33,58.368,55.847,49.711,62.15c-6.48,4.718-13.181,9.6-19.808,14.355,4.409,2.031,11.734,8.272,13.447,14.242a7.134,7.134,0,0,1-.718,6.119,14.282,14.282,0,0,1-3.281,2.766l0,0c-.27.185-.55.377-.818.567l-.748.534c-.718.515-1.631,1.174-2.6,1.871-1.172.846-2.384,1.721-3.219,2.317l-.276.2-.341.245a258.106,258.106,0,0,0,37.467,43.392,2.075,2.075,0,0,1,.6,1.109,2.666,2.666,0,0,1-.059,1.289,2.3,2.3,0,0,1-.562.967,1.822,1.822,0,0,1-1.005.519l-2.059.3A111.553,111.553,0,0,1,49.808,154.421Zm168.75-.186h0c-6.382-.026-12.875-.3-19.155-.563-4.681-.2-9.522-.4-14.281-.5a3.53,3.53,0,0,1-2.009-1.146,2.33,2.33,0,0,1-.444-1.774,5.151,5.151,0,0,1,.944-2.233,9.96,9.96,0,0,1,2.062-2.133,11.343,11.343,0,0,1,2.807-1.6,8.781,8.781,0,0,1,3.178-.63,6.682,6.682,0,0,1,3.336.862,7.7,7.7,0,0,1,2.648,2,7.552,7.552,0,0,0,2.581,1.958,1.537,1.537,0,0,0,.317.039c.408,0,.516-.273.713-.768.024-.061.05-.125.078-.193l.043-.1c.361-.858.72-1.733,1.068-2.58l0,0c.165-.4.353-.86.539-1.309,4.187-10.316,8.667-20.714,13-30.769l.309-.718.795-1.846a3.848,3.848,0,0,0-.055-3.273,7.284,7.284,0,0,0-2.213-2.543,19.094,19.094,0,0,0-1.874-1.217c-1.183-.714-2.406-1.453-2.326-1.742.023-.084.16-.127.406-.127a11.013,11.013,0,0,1,2.017.314,10,10,0,0,1-.819-3.859,12.266,12.266,0,0,1,.59-3.778,23.709,23.709,0,0,1,3.71-6.867,22.76,22.76,0,0,1,2.22-2.862,13.435,13.435,0,0,1,2.194-1.936,8.57,8.57,0,0,1,2.156-1.1,6.694,6.694,0,0,1,2.107-.346,7.152,7.152,0,0,1,2.53.482,10.472,10.472,0,0,1,2.416,1.334,21.3,21.3,0,0,1,4.4,4.55,46.142,46.142,0,0,1,3.69,5.939c.988,1.866,1.931,3.878,2.8,5.981a22.89,22.89,0,0,1,1.181,5.159,28.164,28.164,0,0,1,.064,5.349,37.877,37.877,0,0,1-.861,5.455,52.871,52.871,0,0,1-1.6,5.476A88.55,88.55,0,0,1,235.21,131.3c-1.733,3.443-3.609,6.8-5.264,9.756l0,0v0c-.4.718-.781,1.4-1.156,2.072-.577.783-1.2,1.772-1.859,2.819a42.41,42.41,0,0,1-3.742,5.316C221.586,153.086,220.073,154.056,218.558,154.235Zm-44.7-45.762a24.77,24.77,0,0,1-5.215-.57,27.637,27.637,0,0,1-5.043-1.615,27.246,27.246,0,0,1-8.6-5.8c-3.056-4.187-1.91-9.166-.8-13.982a47.542,47.542,0,0,0,1-5.211,22.234,22.234,0,0,1-.992-3.9c-.1-.516-.192-1-.3-1.488l-.047-.208-1.489-6.5a2.934,2.934,0,0,1,.578-2.386,2.279,2.279,0,0,1,.7-.6,1.917,1.917,0,0,1,.914-.23,2.092,2.092,0,0,1,.238.014,151.9,151.9,0,0,0,17.248.986c3.124,0,6.289-.1,9.407-.293s6.276-.49,9.378-.878a1.4,1.4,0,0,1,.172-.011,2.359,2.359,0,0,1,1.436.588,2.2,2.2,0,0,1,.82,1.276c1.29,8.184-.2,16.31-1.842,23.932l-.313,1.445c-.3,1.386-.635,2.861-1.093,4.3a17.893,17.893,0,0,1-1.794,4.034,13.9,13.9,0,0,1-2.946,3.37,15.448,15.448,0,0,1-3.826,2.324A20.405,20.405,0,0,1,173.858,108.472Z" transform="translate(-47.325 -6.34)" fill="#d08b5b"/>
      <rect id="_Top" data-name="ðŸ‘• Top" width="42.042" height="42.27" transform="translate(104.366 59.812)" fill="#fdea6b"/>
      <path id="_Ink" data-name="ðŸ– Ink" d="M225.092,150.27a2.147,2.147,0,0,1-.953-.228,2.05,2.05,0,0,1-.743-.619,1.716,1.716,0,0,1-.237-1.574c.045-.141.09-.285.13-.413a10.72,10.72,0,0,1,.751-1.946c.205-.384.431-.767.65-1.137.112-.19.228-.387.341-.581.336-.584.682-1.189.986-1.722l0,0c.322-.563.654-1.144.983-1.715.636-1.106,1.3-2.221,1.939-3.3.754-1.269,1.533-2.581,2.274-3.887,2.644-4.656,4.807-8.859,6.611-12.848l.234-.518c.763-1.7,1.744-3.94,2.565-6.215a40.331,40.331,0,0,0,1.8-6.464,21.542,21.542,0,0,0,.345-3.43,22.581,22.581,0,0,0-.189-3.354,29.193,29.193,0,0,0-1.713-6.575c-.939-2.486-1.992-4.859-2.8-6.649l-.191-.419-.273-.592a28.909,28.909,0,0,1-2.2-5.847.169.169,0,0,1,.033-.145.173.173,0,0,1,.133-.066.163.163,0,0,1,.115.049,31,31,0,0,1,4.188,5.464c.338.516.688,1.05,1.039,1.568.324.477.658.957.982,1.421a36.944,36.944,0,0,1,3.425,5.6,21.456,21.456,0,0,1,1.98,7.317,29.525,29.525,0,0,1-.513,7.659,45.175,45.175,0,0,1-1.99,7.281c-.96,2.687-2.108,5.271-2.888,6.981-1.83,4.012-4.036,8.269-6.744,13.013l-.868,1.515c-1.012,1.763-2.1,3.638-3.275,5.472-.235.367-.471.742-.7,1.1l0,0a28.552,28.552,0,0,1-3.906,5.266A1.825,1.825,0,0,1,225.092,150.27ZM204.2,147.876a1.486,1.486,0,0,1-1.129-.562,1.324,1.324,0,0,1-.263-1.14,31.7,31.7,0,0,1,1.225-3.82c.21-.571.427-1.161.621-1.738.213-.632.429-1.275.638-1.9l.01-.029c.4-1.19.811-2.42,1.227-3.626,1.077-3.124,2.25-6.168,3.562-9.539l1.22-3.136c1.082-2.778,2.351-6.007,3.7-9.174l.141-.332c.1-.227.194-.46.289-.686l.013-.03c.63-1.5,1.281-3.043,2.06-4.506a16.66,16.66,0,0,1,2.814-3.975.188.188,0,0,1,.121-.055,7.875,7.875,0,0,1-1.656-1.188l-.024-.024a9.357,9.357,0,0,1-1.263-1.838c-.31.11-.641.225-1.014.351a1.648,1.648,0,0,1-.526.091,1.309,1.309,0,0,1-.9-.351l-.656.406a4.754,4.754,0,0,1-2.23.856h-.066a2.346,2.346,0,0,1-1.262-.363,3.106,3.106,0,0,1-.936-.946c-.171-.259-.318-.529-.461-.79a6.273,6.273,0,0,0-.881-1.324,13.52,13.52,0,0,0-1.95-1.657l-.814-.592a22.344,22.344,0,0,1-4.141-3.631c-.1-.119-.2-.239-.31-.366l-.006-.007a8.883,8.883,0,0,1-1.465-2.089,1.437,1.437,0,0,1-.125-.482c-.09.615-.183,1.229-.245,1.638-.642,4.274-1.137,8.051-1.512,11.548-.445,4.148-.73,7.947-.871,11.613-.176,4.624-.189,8.167-.04,11.489.083,1.89.223,3.818.416,5.73.084.847.187,1.849.311,2.86l.027.22a4.078,4.078,0,0,1,.03.841,2.915,2.915,0,0,1,1.127,1.093,8.923,8.923,0,0,1,.709,1.428,1.588,1.588,0,0,1,.081,1,1.9,1.9,0,0,1-.474.845,8.008,8.008,0,0,1,1.439,1.748.116.116,0,0,1,.008.12.139.139,0,0,1-.121.067.138.138,0,0,1-.087-.03,10,10,0,0,0-2.142-1.306,2.116,2.116,0,0,1-.752.143,1.766,1.766,0,0,1-.471-.062,2.023,2.023,0,0,1-1.071-.771,8.813,8.813,0,0,0-1.424-.117,8.425,8.425,0,0,0-2.5.376,8.569,8.569,0,0,0-2.36,1.157,8.342,8.342,0,0,0-1.1.936c-.052.052-.107.119-.159.183l-.022.027.419.161a3.512,3.512,0,0,0,.371.128,9.8,9.8,0,0,0,1.11.147l.557.046c.265.022.541.043.784.062.92.07,1.871.143,2.788.294a10.765,10.765,0,0,1,2.692.777.432.432,0,0,1,.25.449.546.546,0,0,1-.373.491,10.172,10.172,0,0,1-2.723.327c-.477,0-.986-.021-1.651-.069l-.318-.024c-.316-.024-.643-.043-.96-.061h0a15.082,15.082,0,0,1-3.231-.419,1.647,1.647,0,0,1-.128,1.4,1.571,1.571,0,0,1-.512.519,2.02,2.02,0,0,1-.818.283,37.73,37.73,0,0,1-5.02.309c-2.434,0-4.849-.183-7.1-.381-3.687-.325-7.977-.691-12.228-.913-6.8-.358-14.01-.524-22.7-.524-5.875,0-11.837.078-16.965.151l-7.472.108c-4.372.062-9.071.119-13.809.119-1.4,0-2.765-.005-4.067-.015l-2.789-.026c-1.066-.01-2.307-.024-3.535-.06l-.706-.023c-.233-.008-.481-.01-.715-.01h-.363a6.057,6.057,0,0,1-3.4-.661,2.153,2.153,0,0,1-.916-1.353,2.249,2.249,0,0,1,.293-1.6,4.437,4.437,0,0,1,.668-.805c.5-4.282.793-8.655,1.076-12.884h0l.025-.375c.256-3.867.412-7.77.463-11.6.051-3.858,0-7.751-.161-11.571-.159-3.847-.427-7.73-.8-11.542-.373-3.837-.86-7.711-1.447-11.513-3.035.928-6.127,1.989-9.452,3.245-2.912,1.1-5.941,2.326-9.258,3.749-3.543,1.519-6.756,2.965-9.822,4.419-.794.377-1.6.787-2.388,1.184a39.483,39.483,0,0,1-6.707,2.891,1.179,1.179,0,0,1-.767.306.921.921,0,0,1-.279-.043l-.046-.016h0a1.3,1.3,0,0,1-.3.034,1.436,1.436,0,0,1-.746-.218l-.215-.132-.108-.069a10.989,10.989,0,0,1-3.021-2.623c-.81.752-1.686,1.461-2.532,2.148l-.013.011-.452.367c-1.229,1-2.3,1.888-3.279,2.705-.114.1-.232.191-.346.282a8.412,8.412,0,0,0-.941.84l-.055.061-.025.03a23.032,23.032,0,0,1,4.152,3.841l.023.025.2.221c1.406,1.53,2.778,3.128,4.052,4.628l1.285,1.516,1.134,1.341.024.029c4.305,5.091,8.757,10.356,13.478,15.218,2.544,2.62,4.95,4.905,7.354,6.985a82.1,82.1,0,0,0,8.037,6.171,1.737,1.737,0,0,1,.715.936,1.839,1.839,0,0,1-.012,1.072,2.019,2.019,0,0,1-.586.923,1.465,1.465,0,0,1-.97.385,1.586,1.586,0,0,1-.906-.306,104.074,104.074,0,0,1-9.976-7.894c-2.668-2.362-5.272-4.912-7.959-7.794-2.379-2.551-4.767-5.3-7.3-8.418-2.127-2.613-4.394-5.526-6.932-8.906l-.766-1.019c-.974-1.3-2.009-2.685-3.007-4.119l-.2-.292a20.286,20.286,0,0,1-2.308-4.03,2.2,2.2,0,0,1-.8.528.878.878,0,0,1-.32.059,1.266,1.266,0,0,1-1.152-.9c-.339-1.348.763-2.172,1.736-2.9l.132-.1c1.235-.923,2.5-1.813,3.68-2.646l.442-.312.286-.2a37.781,37.781,0,0,1,4.5-2.885,1,1,0,0,1,.182-.186c.088-.07.164-.129.239-.186-1.026-1.664-2.093-3.278-3.17-4.794-1.13-1.59-2.31-3.127-3.508-4.569a80.926,80.926,0,0,0-5.894-6.374l-.934-.9A49.584,49.584,0,0,0,24.9,71.188l-.491.557c-.591.669-1.284,1.444-2.017,2.174-1.415,1.407-2.8,2.828-4.088,4.163C16.1,80.367,13.937,82.754,11.73,85.2l-1.081,1.2c-.6.661-1.212,1.329-1.808,1.976-1.67,1.811-3.4,3.684-4.9,5.65l-.1.135a6.724,6.724,0,0,0-1.048,1.9,3.641,3.641,0,0,0-.066,2.147,12.629,12.629,0,0,0,1.819,3.5l0,0c.117.177.238.36.353.539l.082.127c3.46,5.392,7.091,10.5,10.792,15.188a146.628,146.628,0,0,0,12.447,14.011c2.3,2.256,4.65,4.362,6.977,6.261a85.421,85.421,0,0,0,7.557,5.52,1.313,1.313,0,0,1,.561.707,1.384,1.384,0,0,1,0,.818,1.551,1.551,0,0,1-.457.722,1.162,1.162,0,0,1-.769.3,1.264,1.264,0,0,1-.7-.223,95.632,95.632,0,0,1-8.819-6.555c-2.681-2.234-5.409-4.732-8.108-7.426-2.272-2.266-4.5-4.7-6.815-7.428-2.031-2.4-4.084-4.978-6.277-7.891-1.952-2.595-3.856-5.29-5.658-8.012-.35-.529-.719-1.073-1.075-1.6l0-.005a42.547,42.547,0,0,1-3.968-6.69A7.867,7.867,0,0,1,.028,97.7,5.874,5.874,0,0,1,.3,95.258a11.679,11.679,0,0,1,2.517-3.886l.1-.109c2.2-2.472,4.554-5.049,7.2-7.881,2.268-2.428,4.749-4.9,7.585-7.564a54.03,54.03,0,0,1,6.45-5.182c-.208-.148-.41-.286-.619-.421a1.259,1.259,0,0,1-.573-.921,1.143,1.143,0,0,1,.334-.941,47.033,47.033,0,0,1,3.554-3.133c.454-.374.923-.76,1.377-1.145,1.591-1.35,3.239-2.749,4.658-3.955,3.188-2.7,6.471-5.489,9.368-7.947l.114-.1c4.1-3.476,8.246-7.029,12.259-10.465l.011-.009c1.458-1.248,3.11-2.663,4.71-4.031,1.893-1.618,3.832-3.247,5.708-4.823l0,0,1.4-1.179,4.22-3.552,2.064-1.733a22.533,22.533,0,0,1,3.34-2.438,31.711,31.711,0,0,1,7.659-2.679h.005c.556-.143,1.13-.291,1.684-.44l.207-.056c3.827-1.048,7.277-1.918,10.547-2.661,3.506-.8,7.093-1.535,10.661-2.2a62.13,62.13,0,0,1,9.761-1.184,4.393,4.393,0,0,1,1.521-.288,2.892,2.892,0,0,1,1.107.2,3.925,3.925,0,0,1,.98.592c.462-.162.928-.3,1.378-.437a12.461,12.461,0,0,0,3.293-1.345A16.447,16.447,0,0,0,128.8,9.78a18.89,18.89,0,0,0,2.711-4.608A30.969,30.969,0,0,0,133.108.064.089.089,0,0,1,133.2,0a.076.076,0,0,1,.081.064,13.406,13.406,0,0,1,.1,2.977A15.938,15.938,0,0,1,132.871,6a19.165,19.165,0,0,1-2.46,5.438,18.858,18.858,0,0,1-4.314,4.7l-.132.1a12.53,12.53,0,0,1-2.245,1.37,6.1,6.1,0,0,1-2.515.615,4.052,4.052,0,0,1-1.481-.274,1.391,1.391,0,0,1-.19-.089c.213.33.416.681.612,1.021l.024.041.06.1c.386.67.755,1.365,1.112,2.037.271.51.551,1.036.836,1.548a22.835,22.835,0,0,0,4.373,5.687,25.491,25.491,0,0,0,2.734,2.217,27.068,27.068,0,0,0,2.953,1.8,32.16,32.16,0,0,0,6.413,2.5,44.167,44.167,0,0,0,6.834,1.28,63.416,63.416,0,0,0,6.949.36l.63,0,.663-.006.891,0a39.09,39.09,0,0,0,6.291-.364,10.312,10.312,0,0,0,5.523-2.437A10.7,10.7,0,0,0,168.5,30.83a31.25,31.25,0,0,0,1.43-3.214c.571-1.433,1.027-2.921,1.467-4.361l0-.006c.2-.667.415-1.358.635-2.033a15.818,15.818,0,0,1-3.828-3.631,15.225,15.225,0,0,1-1.425-2.349,14.328,14.328,0,0,1-.964-2.573l-.07-.266a14.093,14.093,0,0,1-.432-2.345,4.762,4.762,0,0,1,.287-2.286.2.2,0,0,1,.191-.112.223.223,0,0,1,.2.112,5.6,5.6,0,0,1,.407,1.336c.05.235.1.477.17.712a16.931,16.931,0,0,0,.826,2.344,16.905,16.905,0,0,0,2.567,4.071,16.807,16.807,0,0,0,2.856,2.712,2.31,2.31,0,0,1,2.122-1.047,4.262,4.262,0,0,1,1.18.174,47.764,47.764,0,0,1,4.821,1.738l.315.13c.383.159.769.311,1.177.472h0a24.026,24.026,0,0,1,3.6,1.649c.4.189.789.38,1.167.565l0,0c.474.231.922.45,1.362.657,3.434,1.614,7.074,3.427,11.8,5.877l.836.434a25.1,25.1,0,0,1,4.677,2.9A20.875,20.875,0,0,1,209.5,36.88l.016.023c1.337,1.961,2.652,3.986,3.925,5.945v0l0,0c1.025,1.578,2.085,3.209,3.15,4.8l.006.009c4.734,7.056,9.629,14.353,14.485,21.531.4.586.816,1.177,1.223,1.749h0c.8,1.126,1.627,2.289,2.324,3.487a6.477,6.477,0,0,1,.844,2.642,13.8,13.8,0,0,1-.06,2.792l-.037.354c-.355,3.333-.965,6.848-3.01,9.974a20.477,20.477,0,0,1-2.657,3.255,24.134,24.134,0,0,1-3.189,2.662,30.908,30.908,0,0,1-3.58,2.151,41.512,41.512,0,0,1-3.829,1.722c.114.085.228.172.338.256a7.9,7.9,0,0,0,1.655,1.055,11.631,11.631,0,0,0,3.672.86c.276.022.553.025.787.025h.587a6.737,6.737,0,0,1,1.365.1,2.666,2.666,0,0,1,1.213.561,1.058,1.058,0,0,1,.333.821,1.024,1.024,0,0,1-.333.79,2.97,2.97,0,0,1-1.981.613,12.027,12.027,0,0,1-1.39-.11h-.007l-.3-.035-.076-.008a13.4,13.4,0,0,1-3.467-.786c-.284-.112-.557-.233-.811-.361a.17.17,0,0,1,.008.08,25.05,25.05,0,0,1-1.038,4.224l-.276.882c-.46,1.474-1.07,3.419-1.711,5.394-1.077,3.318-2.236,6.578-3.531,10.191l-1.047,2.92c-1.033,2.876-2.143,5.934-3.368,8.931-.594,1.452-1.2,2.928-1.787,4.355l0,0-.184.449-.264.643c-.23.559-.451,1.142-.665,1.705a31.493,31.493,0,0,1-1.574,3.672A1.169,1.169,0,0,1,204.2,147.876Zm-34.611-51.49a7.411,7.411,0,0,0-3.258,1c.592.257,1.236.534,1.914.824l4.246,1.813c.4.171.816.339,1.217.5a27.411,27.411,0,0,1,3,1.355.732.732,0,0,1,.228.19c.861-.551,1.766-1.074,2.642-1.579.532-.307,1.083-.625,1.616-.945l.968-.577a10.019,10.019,0,0,1-3.222.594,7.028,7.028,0,0,1-1.983-.279,15.017,15.017,0,0,1-2.919-1.33,21.988,21.988,0,0,0-2.026-1.014,6.816,6.816,0,0,0-2.143-.547C169.778,96.389,169.683,96.386,169.588,96.386Zm-.02-2a5.777,5.777,0,0,1,.735.047,12.062,12.062,0,0,1,4.149,1.62,14.934,14.934,0,0,0,3.3,1.458,5.526,5.526,0,0,0,1.389.175,12.278,12.278,0,0,0,4.561-1.24,17.414,17.414,0,0,1,3.224-1.1,8.742,8.742,0,0,1,1.534-.166h.171l.076-.044c.165-.1.349-.192.543-.292a4.263,4.263,0,0,0,1.548-1.107A4.9,4.9,0,0,0,191.4,91.7v0c.034-.235.067-.458.107-.661.015-.075.033-.163.049-.25h-.005a4.685,4.685,0,0,0-.869.07,12.9,12.9,0,0,0-2.67.869c-.374.159-.752.325-1.118.486a27.12,27.12,0,0,1-3.845,1.464,14.24,14.24,0,0,1-3.676.525,10.618,10.618,0,0,1-1.515-.107,8.534,8.534,0,0,1-2.365-.715,15.348,15.348,0,0,1-2.146-1.238l-.228-.155-.148-.1a5.737,5.737,0,0,0-2.985-1.325,2.317,2.317,0,0,0-1.057.256,7.44,7.44,0,0,0-1.047.691,8.456,8.456,0,0,1-.927.628,8.674,8.674,0,0,1-2.242.867,9.884,9.884,0,0,1-2.22.249,9.569,9.569,0,0,1-1.937-.194l.021,1.877c1.117.461,2.213.929,3.137,1.325.658-.225,1.281-.489,2.015-.815l.463-.208A8.084,8.084,0,0,1,169.569,94.387Zm.447-6a4.083,4.083,0,0,1,.726.067,9.431,9.431,0,0,1,3.552,1.782l.389.268.2.134a10.014,10.014,0,0,0,2.138,1.1,7.108,7.108,0,0,0,2.374.424h.076a11.934,11.934,0,0,0,2.7-.332,21.716,21.716,0,0,0,2.608-.8c.358-.131.714-.269,1.058-.4a17.528,17.528,0,0,1,4.091-1.2,7.387,7.387,0,0,1,.914-.058,5.724,5.724,0,0,1,.964.077c.087-.483.166-.945.241-1.412.159-.978.3-2,.429-3.035a4.852,4.852,0,0,0-1.261-.165,11.33,11.33,0,0,0-4.9,1.644,18.145,18.145,0,0,1-3.061,1.336,9.728,9.728,0,0,1-2.7.376,9.992,9.992,0,0,1-2.685-.366,13.053,13.053,0,0,1-3.7-1.912c-.172-.114-.368-.243-.558-.367l-.254-.164a3.717,3.717,0,0,0-1.919-.747,1.839,1.839,0,0,0-.345.033,4.012,4.012,0,0,0-1.413.709c-.2.138-.4.268-.595.38a10.3,10.3,0,0,1-2.218.924,11.437,11.437,0,0,1-2.37.412c-.24.016-.485.025-.728.025a11.276,11.276,0,0,1-3.284-.494l.044,4.155a6.368,6.368,0,0,0,1.473.3c.184.014.37.021.553.021a7.058,7.058,0,0,0,2-.285,6.884,6.884,0,0,0,1.838-.854l.662-.439A5.338,5.338,0,0,1,170.015,88.384ZM171.41,82.6a4.57,4.57,0,0,1,1.8.4,9.564,9.564,0,0,1,1.636.922l.379.259a9.742,9.742,0,0,0,4.635,1.991c.222.02.447.031.669.031a10.887,10.887,0,0,0,4.589-1.242l.4-.183a12.785,12.785,0,0,1,5.048-1.46,4.372,4.372,0,0,1,2.05.47c.164-1.553.29-3.167.374-4.8a2.7,2.7,0,0,0-.955-.192h-.019a7.8,7.8,0,0,0-2.5.539c-.925.327-1.83.746-2.706,1.152h0c-.75.348-1.526.708-2.311,1.007a10.757,10.757,0,0,1-3.835.762,8.092,8.092,0,0,1-1.281-.1,5.855,5.855,0,0,1-2.129-.783,8.712,8.712,0,0,1-1.76-1.447l-.16-.169-.034-.036a3.323,3.323,0,0,0-1.68-1.182,1.748,1.748,0,0,0-.33-.031,3.508,3.508,0,0,0-1.631.545c-.478.265-.941.567-1.388.859a10.63,10.63,0,0,1-3.1,1.565,7.891,7.891,0,0,1-1.967.24,12.324,12.324,0,0,1-4.771-1.081c.009,1.292.019,2.61.03,3.849a9.816,9.816,0,0,0,1.253.378,9.217,9.217,0,0,0,4.618-.137,8.887,8.887,0,0,0,2.035-1,8.109,8.109,0,0,1,2.184-1.031A3.582,3.582,0,0,1,171.41,82.6Zm1.861-6.159a3.729,3.729,0,0,1,1.9.531,7.2,7.2,0,0,1,1.556,1.27l.118.123a6.42,6.42,0,0,0,1.784,1.385,4.686,4.686,0,0,0,2.128.476c.17,0,.348-.007.529-.022a15.311,15.311,0,0,0,4.616-1.4l.606-.255.152-.063A11.6,11.6,0,0,1,190.9,77.4a5.273,5.273,0,0,1,.743.051,5.1,5.1,0,0,1,1.39.4c.064-1.494.1-3.043.106-4.736a3.625,3.625,0,0,0-2.388-.8,4.663,4.663,0,0,0-1.257.173,12.649,12.649,0,0,0-3,1.466,17.075,17.075,0,0,1-2.2,1.187,7.113,7.113,0,0,1-2.732.582,5.9,5.9,0,0,1-2.134-.4,13.71,13.71,0,0,1-2.712-1.553,19.746,19.746,0,0,0-1.841-1.154,5.068,5.068,0,0,0-2.335-.712,2.68,2.68,0,0,0-.353.023,3.253,3.253,0,0,0-2.006,1.35l-.293.349a11.717,11.717,0,0,1-1.51,1.543,5.7,5.7,0,0,1-1.9,1.038,5.882,5.882,0,0,1-1.765.27,6.49,6.49,0,0,1-2.859-.686,13.74,13.74,0,0,1-1.373-.82l-.091-.059.025,3.371a14.408,14.408,0,0,0,2.994,1.165,7.04,7.04,0,0,0,1.66.209,5.97,5.97,0,0,0,1.869-.3,7.651,7.651,0,0,0,1.8-.874l.177-.115c.148-.1.3-.2.432-.287a7.686,7.686,0,0,1,3.7-1.631C173.121,76.446,173.2,76.444,173.271,76.444Zm-12.907-6.423c.01.6.01,1.215.01,1.8v0c0,.234,0,.476,0,.713.352.2.693.423,1.022.638l.254.165.146.092a5.7,5.7,0,0,0,2.955,1.03,3.875,3.875,0,0,0,1.195-.193,5.416,5.416,0,0,0,2.452-1.981h0c.237-.284.482-.578.746-.854a5.108,5.108,0,0,1,1.523-1.108,4.283,4.283,0,0,1,1.823-.408c.059,0,.12,0,.18,0a8.132,8.132,0,0,1,4.082,1.5c.3.194.6.407.892.612h0a9.886,9.886,0,0,0,2.924,1.6,4.054,4.054,0,0,0,1.085.148,5.64,5.64,0,0,0,2.2-.507,20.442,20.442,0,0,0,2.131-1.114,11.507,11.507,0,0,1,3.535-1.545,4.979,4.979,0,0,1,.855-.074,4.9,4.9,0,0,1,1.483.226,3.966,3.966,0,0,1,1.285.672c-.01-1.633-.044-3.424-.106-5.474a15.063,15.063,0,0,0-5.094,1.471,24.071,24.071,0,0,1-3.128,1.145,8.066,8.066,0,0,1-2.053.266,9.79,9.79,0,0,1-3.052-.525,31.085,31.085,0,0,1-2.989-1.2h0l-.344-.152a9.131,9.131,0,0,0-3.584-.955,4.809,4.809,0,0,0-.766.061,11.2,11.2,0,0,0-3.754,1.624l-.019.011-.278.163-.243.14a17.729,17.729,0,0,1-3.165,1.457,10.577,10.577,0,0,1-3.379.571C160.915,70.055,160.638,70.044,160.364,70.021Zm-.277-4.489a1.606,1.606,0,0,1-.1.294,18.52,18.52,0,0,1,.3,2.3,9.341,9.341,0,0,0,1,.055,8.615,8.615,0,0,0,1.751-.177,14.17,14.17,0,0,0,4.161-1.849c.555-.322,1.129-.656,1.71-.949-.4.015-.8.032-1.181.048h0c-1.544.067-2.979.138-4.386.218-.283.015-.58.05-.893.087a11.615,11.615,0,0,1-1.333.1A3.432,3.432,0,0,1,160.087,65.532Zm22.128-.656c-1.732.012-3.524.024-5.284.062l-.642.015h-.076c.582.226,1.152.478,1.828.787l.606.278a9.753,9.753,0,0,0,4.054,1.1c.147,0,.295-.005.44-.016a15.282,15.282,0,0,0,4.1-1.087c.276-.1.561-.206.845-.306a11.75,11.75,0,0,1,3.87-.742,7.411,7.411,0,0,1,1.059.074V65.01c0-.14-.008-.284-.014-.429-3.582.247-7.241.271-10.78.3Z" transform="translate(-50.07 -1.479)"/>
    </g>
    <g id="HEAD" transform="translate(78.592 38.043)">
      <path id="_Skin-2" data-name="âœ‹ Skin" d="M70.291,19.7c-.814-4.937,1.858-5.961,0-10.654C66.163.352,54.912.727,46.657.058,37.448-.3,28.128.923,19.639,4.623a43.472,43.472,0,0,0-5.848,3.1,2.56,2.56,0,0,0-.375,4.022C6.066,22.183,10.27,36.19,4.405,47.174,3.322,49.137,1.889,50.9.947,52.941-.484,56.046-.576,60.5,2.67,62.558c4.572,2.46,7.123-2.411,9.37,4.65,11.22,24.62,33.777,26.007,55.192,13.171a18.536,18.536,0,0,0,5.143-3.824c3.176-3.583,2.8-8.621,2.872-13.095q.059-3.933.02-7.866C75.167,44.971,71.655,30.237,70.291,19.7Z" transform="translate(10.963 16.908)" fill="#d08b5b"/>
      <path id="_Ink-2" data-name="ðŸ– Ink" d="M45.011,105.99a13.39,13.39,0,0,1-3.655-.463,7.79,7.79,0,0,1-3.39-1.86,4.125,4.125,0,0,1-1-1.543,3.7,3.7,0,0,1-.121-1.951.918.918,0,0,1,.371-.589,1.113,1.113,0,0,1,.64-.193,1.161,1.161,0,0,1,.994.519l.107.172a5.322,5.322,0,0,0,2.136,2.163,6.967,6.967,0,0,0,1.808.547,12.107,12.107,0,0,0,1.887.155h.233a41.48,41.48,0,0,0,10.186-1.7,58.2,58.2,0,0,0,9.3-3.244,41.148,41.148,0,0,0,8.452-5.034,14.587,14.587,0,0,0,2.852-2.9,10.624,10.624,0,0,0,1.021-1.732A9.638,9.638,0,0,0,77.5,86.4c.622-2.761.27-5.719-.07-8.58-.074-.623-.151-1.268-.214-1.89-.619-6.1-1.375-12.571-2.452-20.991l-.179-1.4q-.092-.718-.185-1.435V52.1c-.682-5.273-1.387-10.725-1.732-16.117a1.655,1.655,0,0,1-.3-.723l-.059-.383a3.186,3.186,0,0,1-.023-.9c0-1.093.032-2.132.093-3.177.01-.191.019-.382.025-.568-1.027.227-2.114.425-3.323.607a106.078,106.078,0,0,1-15.783,1.183c-2.618,0-5.269-.1-7.879-.293-3.642-.272-7.481-.74-11.737-1.431-2.04-.33-4.034-.692-5.926-1.074-1.159-.232-2.317-.537-3.438-.832l-.011,0-.768-.2a12.033,12.033,0,0,0-1.635,3.459,11.192,11.192,0,0,0-.438,3.789,14.392,14.392,0,0,0,.826,3.54,20.6,20.6,0,0,1,.683,2.445,6.8,6.8,0,0,1,.051,2.526,4.365,4.365,0,0,1-1.926,2.949,11.839,11.839,0,0,1-3.3,1.38l-1,.289a2.877,2.877,0,0,0-.967.42,1.378,1.378,0,0,0-.5.945,15.868,15.868,0,0,0,.02,3.511c.04.507.077.985.1,1.458.023.58.048,1.165.072,1.731.055,1.288.112,2.62.143,3.931.006.26.013.525.021.781v.005c.02.7.04,1.432.038,2.147a2.949,2.949,0,0,1-.373,1.615,6.053,6.053,0,0,1,.557.839.1.1,0,0,1,0,.1.107.107,0,0,1-.089.053.089.089,0,0,1-.065-.029,5.522,5.522,0,0,0-.664-.59,5.476,5.476,0,0,1-.416.453l-.012-.017a1.336,1.336,0,0,1-.948.4,1.49,1.49,0,0,1-.973-.379l-.163-.142a2.285,2.285,0,0,1-.895-1.395h0c-.006-.033-.013-.067-.017-.1-.072,0-.146,0-.222,0a6.522,6.522,0,0,0-3.153.815,7.815,7.815,0,0,0-3.5,3.83,4.426,4.426,0,0,0,.967.849.048.048,0,0,1,.021.056.051.051,0,0,1-.048.037.054.054,0,0,1-.024-.006A4.629,4.629,0,0,1,4.671,69.2a9.358,9.358,0,0,0-.525,2.035A9.038,9.038,0,0,0,4.439,75.2a6.447,6.447,0,0,0,.868,1.777,5.051,5.051,0,0,0,1.424,1.364,6.223,6.223,0,0,0,3.3.972h.017a6.473,6.473,0,0,0,1.609-.233c.088-.022.177-.046.264-.07h0a3.374,3.374,0,0,1,.881-.158,1.833,1.833,0,0,1,.938.254l-.08.007a.456.456,0,0,0-.122.018,1.205,1.205,0,0,0,.236.009,1.1,1.1,0,0,1,.927.548,1.132,1.132,0,0,1,.011,1.092l-.051.115-.013.029-.014.029-.031.2,0,.022v0l-.005.031-.012.04a.19.19,0,0,1-.007.019L15.845,83.2a73.774,73.774,0,0,0,4.94,6.882,56.632,56.632,0,0,0,4.022,4.377,12.7,12.7,0,0,0,2.707,1.876c.506.289,1.029.587,1.535.929a1.606,1.606,0,0,1,.709,1.162,1.382,1.382,0,0,1-.414,1.129,3.119,3.119,0,0,1-2.265.956,5.007,5.007,0,0,1-2.367-.683A9.207,9.207,0,0,1,22.7,98.315a29.358,29.358,0,0,1-4.157-5.364,38.441,38.441,0,0,1-2.773-5.228,29.05,29.05,0,0,1-1.024-2.756,25.278,25.278,0,0,1-.719-2.862,3.1,3.1,0,0,1-1.09.594,8.6,8.6,0,0,1-2.5.418c-.1,0-.193,0-.29,0A10.18,10.18,0,0,1,5.8,82.092a8.6,8.6,0,0,1-3.176-2.6A10.174,10.174,0,0,1,.895,75.826a12.421,12.421,0,0,1-.178-5.149A11.409,11.409,0,0,1,2.66,65.96a28.133,28.133,0,0,1-.845-3.3c-.069-.323-.134-.627-.2-.925l-.133-.581C1.05,59.266.742,57.7.51,56.235a39.9,39.9,0,0,1-.494-4.969,23.226,23.226,0,0,1,1.615-9.788A18.806,18.806,0,0,1,2.8,39.095c.117-.2.259-.4.408-.611a4.3,4.3,0,0,0,.743-1.358c.255-1.031-.725-2.107-1.589-3.056A8.2,8.2,0,0,1,1.3,32.755a4.567,4.567,0,0,1-.623-2.26,3.423,3.423,0,0,1,1.255-2.618,6.039,6.039,0,0,1-.761-3.068A5.372,5.372,0,0,1,2.215,21.76a5.983,5.983,0,0,1,3.765-2.344,6.2,6.2,0,0,1,1.054-.086A7.36,7.36,0,0,1,9,19.6a72.4,72.4,0,0,1,8.815-7.015,67.874,67.874,0,0,1,9.816-5.5A78.426,78.426,0,0,1,43.869,1.773,82.429,82.429,0,0,1,69.33.435,79.676,79.676,0,0,1,89.7,5.214l.573.222.285.109a11.426,11.426,0,0,1,4.3,2.4,4.939,4.939,0,0,1,.872,1.228,4.775,4.775,0,0,1,.45,1.4,4.451,4.451,0,0,1-.514,2.89,6.017,6.017,0,0,1-1.6,1.812,7.859,7.859,0,0,1-2.142,1.157,12.726,12.726,0,0,1,1.52,1.477,2.45,2.45,0,0,1,.625,1.57,2.156,2.156,0,0,1-.148.819,2.267,2.267,0,0,1-.478.742,13.127,13.127,0,0,1-6.154,3.61,6.515,6.515,0,0,1-.441,3.929,5.539,5.539,0,0,1-1.42,1.933,6.767,6.767,0,0,1-2,1.188,13.216,13.216,0,0,1-4.78.763c-.457,0-.937-.015-1.427-.046l-.106-.007-.194,2.226a2.684,2.684,0,0,1-.595,1.52,2.27,2.27,0,0,1-1.419.767c-.042.006-.084.011-.127.015a179.932,179.932,0,0,1,4.111,21.068c.485,3.227.955,6.646,1.525,11.084l.157,1.233c.115.907.239,1.831.358,2.725v0c.408,3.049.83,6.2,1,9.306a20.034,20.034,0,0,1-.03,2.7,15.918,15.918,0,0,1-.425,2.6,13.579,13.579,0,0,1-.882,2.469,12.936,12.936,0,0,1-1.4,2.3,21.593,21.593,0,0,1-7.7,6.081,80.691,80.691,0,0,1-10.259,4.279c-1.774.594-3.567,1.116-5.328,1.551-1.816.449-3.654.819-5.461,1.1l-.492.076A32.812,32.812,0,0,1,45.011,105.99ZM15.685,74.77a1.347,1.347,0,0,1-.822-.282c-.362-.272-.691-.555-1.009-.828a7.43,7.43,0,0,0-2.622-1.668,11.405,11.405,0,0,0-3.394-.579,6.783,6.783,0,0,0-1.177.1l-.03,0a.21.21,0,0,1-.192-.132.147.147,0,0,1,.047-.169A7.616,7.616,0,0,1,8.58,69.857a6.066,6.066,0,0,1,2.4-.48c.2,0,.4.009.6.026a10,10,0,0,1,3.122.785,7,7,0,0,1,1.4.82A4.953,4.953,0,0,1,17.2,72.142a1.506,1.506,0,0,1,.043,1.593A1.863,1.863,0,0,1,15.685,74.77Z" transform="translate(8.011 0)"/>
    </g>
    <g id="FACE" transform="translate(112.183 77.354)">
      <path id="teeth" d="M2.232,8.525h0L0,0,.36.056A28.365,28.365,0,0,1,4.344.9c.881.284,1.328.577,1.328.869l0,.04c-.047.657-1.2,2.916-3.438,6.714Zm19.759-.587h0L17.873,3.423l4.908-1.58-.791,6.1Z" transform="translate(21.294 44.824)" fill="#fff"/>
      <ellipse id="eye" cx="8.345" cy="7.609" rx="8.345" ry="7.609" transform="translate(12.465 16.274)" fill="#fff"/>
      <ellipse id="eye-2" data-name="eye" cx="7.606" cy="7.503" rx="7.606" ry="7.503" transform="translate(25.563 8.665)" fill="#fff"/>
      <path id="eye-3" data-name="eye" d="M6.127,12.992c3.384,0,6.127-3.028,6.127-6.763A6,6,0,0,0,6.127,0,6,6,0,0,0,0,6.229C0,9.964,2.743,12.992,6.127,12.992Z" transform="translate(37.394 17.02)" fill="#fff"/>
      <path id="_Ink-3" data-name="ðŸ– Ink" d="M14.193,46.515a1.831,1.831,0,0,1-.948-.284,2.46,2.46,0,0,1-1.052-1.456,9.124,9.124,0,0,1-.306-1.847v0c-.011-.112-.021-.218-.032-.323-.1-.954-.158-1.746-.187-2.492l-.012-.356c0-.155-.012-.311-.021-.476a4.737,4.737,0,0,1,.178-2.019A.217.217,0,0,1,12,37.125a.142.142,0,0,1,.111.055,6.123,6.123,0,0,1,.954,2.34c.057.222.111.432.17.634.089.307.187.615.291.941a15.663,15.663,0,0,1,.634,2.424l.045-.079c.171-.325.341-.64.485-.905l.49-.9c.4-.738.824-1.511,1.339-2.433-.548-.206-1.084-.426-1.536-.614L13.826,38.1A5.529,5.529,0,0,1,12,37a.192.192,0,0,1-.041-.188.154.154,0,0,1,.119-.11,4.551,4.551,0,0,1,.858-.076,13.63,13.63,0,0,1,2.935.455c.412.094.8.183,1.174.252l.114.021c.464.081.935.168,1.391.252,1.367.251,2.78.511,4.185.655a28.178,28.178,0,0,0,2.85.151,22.473,22.473,0,0,0,2.554-.141,17.411,17.411,0,0,0,2.545-.493c.362-.1.719-.207,1.061-.324l.04-.015c.058-.024.136-.062.226-.105a2.219,2.219,0,0,1,.639-.244.087.087,0,0,1,.064.02.061.061,0,0,1,.015.046,1.524,1.524,0,0,1,.76-.463,1.361,1.361,0,0,1,.345-.043,1.518,1.518,0,0,1,.956.331.8.8,0,0,1,.5-.17,1.2,1.2,0,0,1,.937.5,2.023,2.023,0,0,1,.354,1.025,6.272,6.272,0,0,1-.039,1.1c-.01.11-.021.223-.03.335l-.006.076c-.054.761-.137,1.549-.253,2.412l-.048.344c-.02.142-.038.294-.058.455a7.89,7.89,0,0,1-.376,1.851,1.812,1.812,0,0,1-1.218,1.225,1.438,1.438,0,0,1-.376.05c-.952,0-1.814-.93-2.532-1.84l-.4-.514a11.4,11.4,0,0,1-1.253-1.908c-.187-.368-.328-.672-.444-.955-.015-.036-.026-.068-.037-.1l0-.014a22.358,22.358,0,0,1-2.971.194,26.158,26.158,0,0,1-3.4-.229,31.926,31.926,0,0,1-3.952-.774L18.594,41.1c-.613,1.1-1.343,2.4-2.11,3.672l-.057.092A4.655,4.655,0,0,1,15.467,46,2.012,2.012,0,0,1,14.193,46.515Zm19.8-6.832h0A18.055,18.055,0,0,1,30.475,40.7l.011.011c.068.07.146.15.215.231.267.309.545.6.882.95l.181.186c.072.074.15.156.232.242a9.835,9.835,0,0,0,1.628,1.463l.038-.2c.007-.041.011-.068.014-.09l.075-.672c.011-.106.024-.22.035-.336.051-.507.094-1.023.135-1.522l.025-.3c.023-.281.031-.574.039-.857l0-.12ZM25.54,34.709h0a4.93,4.93,0,0,1-3.733-1.746,8.832,8.832,0,0,1-1.544-2.51,7.057,7.057,0,0,1-.566-2.884,2.69,2.69,0,0,1,.432-1.387,1.44,1.44,0,0,1,1.218-.67l.1,0a1.2,1.2,0,0,1,.938.479,1.288,1.288,0,0,1,.148,1.108l-.014.046a4.134,4.134,0,0,0,.139,2.541,5.125,5.125,0,0,0,1.4,2.181,2.721,2.721,0,0,0,1.817.691,3.643,3.643,0,0,0,2.039-.688,4.828,4.828,0,0,0,1.5-1.651,7.13,7.13,0,0,0,.647-1.717,10.072,10.072,0,0,0,.257-1.849,17.89,17.89,0,0,0-.252-3.708,21.111,21.111,0,0,0-.838-3.339C28.846,18.487,28.4,17.364,28,16.4c-.1.019-.2.034-.281.045a16.976,16.976,0,0,1-2.227.141,14.12,14.12,0,0,1-2.619-.224,6.384,6.384,0,0,1-2.3-.846,8.38,8.38,0,0,1-1.294,5.554,6.743,6.743,0,0,1-2.258,2.114,8.111,8.111,0,0,1-2.948.968,22.68,22.68,0,0,1-3.089.22A14.927,14.927,0,0,1,7.528,24a5.873,5.873,0,0,1-2.359-1.165,6.7,6.7,0,0,1-1.624-1.977,8.9,8.9,0,0,1-1.037-3.552,9.163,9.163,0,0,1,.427-3.659,7.121,7.121,0,0,1,.832-1.666,8.133,8.133,0,0,1,1.249-1.456A7.846,7.846,0,0,1,6.571,9.406a6.585,6.585,0,0,1,1.757-.663,6.821,6.821,0,0,1,3.708-.98c.222,0,.446.009.666.026a9.14,9.14,0,0,1,3.128.818,7.874,7.874,0,0,1,2.594,1.919,8.6,8.6,0,0,1,1.355,2.09,1.042,1.042,0,0,1,.409-.2,1.5,1.5,0,0,1,.345-.046,1.017,1.017,0,0,1,.344.059,1.5,1.5,0,0,1,.389.284l.233.274a2.593,2.593,0,0,0,1.066.82,10.44,10.44,0,0,0,3.8.625c.357,0,.711-.014,1.053-.04A2.946,2.946,0,0,0,29.8,13.049a5.714,5.714,0,0,0,.692-3.3,11.734,11.734,0,0,0-.659-3.364A6.88,6.88,0,0,0,28.8,4.507a6.995,6.995,0,0,0-3.378-2.372,6.632,6.632,0,0,0-5.229.469,7.921,7.921,0,0,0-1.746,1.259,9.608,9.608,0,0,0-1.973,3.057c-.114.24-.232.488-.356.735a.1.1,0,0,1-.092.052.1.1,0,0,1-.107-.079,4.551,4.551,0,0,1,.131-2.177,6.745,6.745,0,0,1,1.027-2.027,8.983,8.983,0,0,1,1.6-1.68A7.973,7.973,0,0,1,20.52.611,7.709,7.709,0,0,1,23.568,0,8.6,8.6,0,0,1,26.31.454a8.773,8.773,0,0,1,2.473,1.3,8.344,8.344,0,0,1,2.63,3.385,10.921,10.921,0,0,1,.661,2.059,13.1,13.1,0,0,1,.28,2.162,3.152,3.152,0,0,1,2.1-.763,5.129,5.129,0,0,1,2.207.564,7.663,7.663,0,0,1,1.89,1.319,7.912,7.912,0,0,1,2.018,3.156,7.568,7.568,0,0,1,.319,3.722,7,7,0,0,1-.566,1.8,7.123,7.123,0,0,1-1.013,1.576,6.561,6.561,0,0,1-3.087,2.058,6.437,6.437,0,0,1-1.872.273,6.533,6.533,0,0,1-1.767-.24,6.805,6.805,0,0,1-1.338-.528l.02.079c.019.076.038.155.057.231a19.916,19.916,0,0,1,.568,3.869,12.037,12.037,0,0,1-.083,1.957,9.058,9.058,0,0,1-.447,1.891,6.784,6.784,0,0,1-.952,1.768,6.908,6.908,0,0,1-1.383,1.39,6.354,6.354,0,0,1-1.671.909A5.377,5.377,0,0,1,25.54,34.709ZM7.433,10.75A6.593,6.593,0,0,0,5.4,12.862a6.665,6.665,0,0,0-.909,2.994,7.755,7.755,0,0,0,.216,2.4,6.384,6.384,0,0,0,1,2.188,3.787,3.787,0,0,0,2,1.408,8.989,8.989,0,0,0,2.469.336l.172,0c.294.006.553.009.792.009a11.567,11.567,0,0,0,4.247-.624,4.829,4.829,0,0,0,1.681-1.121A5,5,0,0,0,18.2,18.492a6.923,6.923,0,0,0-.006-4.116,6.57,6.57,0,0,0-.914-1.863,5.8,5.8,0,0,0-1.484-1.458,6.858,6.858,0,0,0-3.86-1.122H11.8a10.9,10.9,0,0,0-2.711.5c-.434.12-.883.244-1.333.338a.568.568,0,0,1-.118.012A.606.606,0,0,1,7.433,10.75Zm23.672,8.591a2.193,2.193,0,0,1,1.309.6,3.751,3.751,0,0,0,.824.515,4.287,4.287,0,0,0,1.592.306,4.218,4.218,0,0,0,.817-.079,4.049,4.049,0,0,0,2.192-1.263,5.32,5.32,0,0,0,1.366-3.681,5.752,5.752,0,0,0-.211-1.4,6.725,6.725,0,0,0-1.338-2.507l-.094-.109a7.709,7.709,0,0,0-1.817-1.548,4.36,4.36,0,0,0-2.231-.681,3.3,3.3,0,0,0-1.149.206l.006.242c0,.043,0,.083,0,.121a8.051,8.051,0,0,1-.873,3.827,5.04,5.04,0,0,1-1.155,1.436,4.778,4.778,0,0,1-1.7.919,15.781,15.781,0,0,1,1.735,3.3,1.293,1.293,0,0,1,.584-.2A1.379,1.379,0,0,1,31.105,19.341Zm-25.031,7.4a9.36,9.36,0,0,1-2.056-.261,7.4,7.4,0,0,1-3.977-2.37.182.182,0,0,1-.023-.2.157.157,0,0,1,.138-.1.156.156,0,0,1,.088.03,9.009,9.009,0,0,0,4.07,1.6,9.146,9.146,0,0,0,.989.056,7.272,7.272,0,0,0,1.1-.081c.13-.02.258-.045.383-.069a4.375,4.375,0,0,1,.827-.106,1.86,1.86,0,0,1,.5.066.377.377,0,0,1,.271.256.456.456,0,0,1-.092.423A2.788,2.788,0,0,1,6.074,26.736Zm32.639-2.143a6.865,6.865,0,0,1-1.565-.173.1.1,0,0,1-.077-.116.1.1,0,0,1,.1-.1h0l.148,0a4.69,4.69,0,0,0,1.187-.142,4.07,4.07,0,0,0,1.107-.468,4.537,4.537,0,0,0,.855-.73,4.541,4.541,0,0,1,.811-.7.644.644,0,0,1,.343-.1.735.735,0,0,1,.62.381.662.662,0,0,1,0,.682,2.764,2.764,0,0,1-1.493,1.137A6.04,6.04,0,0,1,38.713,24.594ZM11.5,18.449a2.456,2.456,0,0,1-1.086-.242,2.211,2.211,0,0,1-.868-.754,1.923,1.923,0,0,1-.312-.823,1.653,1.653,0,0,1,.033-.593l-.011.046c.037-.167.059-.265.066-.292a2.491,2.491,0,0,1,.627-1.121,1.8,1.8,0,0,1,1.145-.5,1.39,1.39,0,0,1,1.23-.682,1.642,1.642,0,0,1,1.362.708l.028.043.006-.008a2.561,2.561,0,0,1,.435,2.146,2.766,2.766,0,0,1-.467,1.024,2.422,2.422,0,0,1-.865.734A2.972,2.972,0,0,1,11.5,18.449Zm23.467-.593a1.686,1.686,0,0,1-.373-.042,1.591,1.591,0,0,1-.928-.714,1.391,1.391,0,0,1-.136-.318l-.153-.363c-.019-.057-.033-.118-.047-.177-.007-.031-.015-.062-.022-.092-.052-.2-.1-.4-.136-.6a2.467,2.467,0,0,1,.006-.99,1.774,1.774,0,0,1,.483-.86,1.9,1.9,0,0,1,2.689,0,1.611,1.611,0,0,1,.486.859,2.586,2.586,0,0,1,0,.992c-.035.2-.083.4-.134.6l-.044.181c-.008.032-.016.062-.025.089a1.467,1.467,0,0,1-.142.346,1.406,1.406,0,0,1-.579.8A1.7,1.7,0,0,1,34.971,17.856ZM23.99,10.55A2.3,2.3,0,0,1,22.4,9.918l-.05-.047A2.093,2.093,0,0,1,21.737,8.7a2.365,2.365,0,0,1,.143-1.314,2.228,2.228,0,0,1,1.777-1.359A2.3,2.3,0,0,1,23.963,6a2.274,2.274,0,0,1,1.962,1.107,2.345,2.345,0,0,1,0,2.3l-.034.058A2.175,2.175,0,0,1,23.99,10.55Z" transform="translate(9.296 7.82)"/>
    </g>
  </g>
</svg>
