<svg id="peep-43" xmlns="http://www.w3.org/2000/svg" width="240" height="324" viewBox="0 0 240 324">
  <g id="BODY" transform="translate(31.056 135.053)">
    <path id="_Skin" data-name="âœ‹ Skin" d="M145.5,69.308c-.664-1.823.306-3.642.843-5.405,1.91-6.117-3.314-21.545-6.968-21.77-1.336-3.459-4.9-4.893-7.71-6.885-3.185-1.989-6.284-4.273-9.6-6.017-.184-1.647-2.181-2.056-3.4-.877-3.354-2.087-7.376-1.7-10.971-3.067-2.732-4.417-2.937-9.062-3.66-13.324-.315-1.858.02-3.65-1.249-5.306-4.262-6-21.1-8.6-27.313-5.043C72.135-.472,72.054,3.3,71.523,5.635a7.4,7.4,0,0,0-.811,3.878c-1.582,3.306-2.924,7.442-6.25,9.911-4.22,3.133-10.712,4.325-14.826,5.861a4.815,4.815,0,0,1-1.2-2.173,48.493,48.493,0,0,0-17.906,7.63c-6.069,1.776-10.344,6.714-13.435,12.009a2.289,2.289,0,0,0-.321,1.65C7.266,58.341,2.729,75.027,2.092,91.879c-6.112,3.67,2.905,36.636,5,43.48l.006,0c1.362,2.412,2.908,9.294,6.316,8.762,2.338,2.644,6.064,2.124,9.236,2.328a11.616,11.616,0,0,0,.352,6.211c.727,2.332,4.3,2.411,4.8-.131,31.594,6.141,64.01,1.241,95.959,2.163,9.237.066,18.474.351,27.689,1.01a2.538,2.538,0,0,0,2.525-2.526c-1.981-21.087-3.842-48.827-6.057-69.707C147.4,78.7,146.986,73.888,145.5,69.308Z" transform="translate(11.62 -6.975)" fill="#d08b5b"/>
    <path id="_Top" data-name="ðŸ‘• Top" d="M106.7,133.736c-18.485,0-39.381-.328-55.9-.878-8.25-.275-15.114-.6-19.849-.932-2.5-.177-4.438-.359-5.765-.541-1.386-.19-2.119-.383-2.179-.573a16.2,16.2,0,0,1-.6-3.731,12.978,12.978,0,0,1,.248-3.748c-.594-.038-1.22-.051-1.825-.064a20.212,20.212,0,0,1-4-.347A7.141,7.141,0,0,1,15,122.257,5.648,5.648,0,0,1,13.419,121a2.411,2.411,0,0,1-.371.029c-1.038,0-1.984-.7-2.893-2.125a26.358,26.358,0,0,1-1.975-4.214A22.813,22.813,0,0,0,7.1,112.242l-.006,0c-.557-1.816-1.513-5.177-2.527-9.165C3.308,98.12,2.281,93.488,1.515,89.315A78.966,78.966,0,0,1,0,76.145a18.819,18.819,0,0,1,.466-4.738,6.217,6.217,0,0,1,.652-1.623,2.921,2.921,0,0,1,.974-1.018A99.76,99.76,0,0,1,6.106,43.934a85.885,85.885,0,0,1,4.451-11.717,78.443,78.443,0,0,1,6.214-10.928,2.29,2.29,0,0,1,.28-1.58l.041-.07a39.783,39.783,0,0,1,2.55-3.861,28.681,28.681,0,0,1,3.051-3.464,21.347,21.347,0,0,1,3.609-2.8A17.606,17.606,0,0,1,30.526,7.63a44.007,44.007,0,0,1,8.566-4.722A54.125,54.125,0,0,1,48.433,0c.009.043.02.088.033.14l-.121.274A11.655,11.655,0,0,0,47.2,4.8,6.788,6.788,0,0,0,47.7,6.666a30.009,30.009,0,0,0,1.542,3.346,45.856,45.856,0,0,0,6.29,9,38.688,38.688,0,0,0,10.739,8.529,32.848,32.848,0,0,0,7.1,2.754,32.593,32.593,0,0,0,4,.766,34.063,34.063,0,0,0,4.3.27c1.1,0,2.224-.052,3.346-.156a58.394,58.394,0,0,0,6.2-.9A45.38,45.38,0,0,0,96.782,28.8a36.344,36.344,0,0,0,4.927-2.077A30.673,30.673,0,0,0,106,24.054a27.922,27.922,0,0,0,3.655-3.257,27.83,27.83,0,0,0,3.018-3.848,30.4,30.4,0,0,0,2.382-4.438A35.864,35.864,0,0,0,116.8,7.482l.223-3.068a10.236,10.236,0,0,1,1.647.825,2.334,2.334,0,0,1,1.62-.675,1.864,1.864,0,0,1,1.178.4,1.693,1.693,0,0,1,.6,1.155c2.184,1.149,4.306,2.555,6.358,3.914h0c1.058.7,2.152,1.425,3.237,2.1l.195.137c.594.412,1.229.808,1.843,1.191a25.451,25.451,0,0,1,3.315,2.322,9.5,9.5,0,0,1,1.362,1.449,7.363,7.363,0,0,1,1,1.787l.523.033a1.985,1.985,0,0,1,1.106.521,6.528,6.528,0,0,1,1.14,1.316,21.282,21.282,0,0,1,2.115,4.241,40.538,40.538,0,0,1,1.661,5.5,33.875,33.875,0,0,1,.823,5.6,13.366,13.366,0,0,1-.4,4.556c-.108.356-.237.72-.361,1.072-.5,1.415-1.013,2.877-.482,4.333a42.137,42.137,0,0,1,1.465,6.331c.343,2.14.58,4.335.809,6.458v0l0,.04c.047.435.1.885.144,1.327,1.285,12.109,2.456,26.6,3.589,40.613v.007c.841,10.4,1.635,20.23,2.468,29.087a2.157,2.157,0,0,1-.744,1.7,3.053,3.053,0,0,1-1.781.823c-4.243.389-10.518.686-18.653.882C125.364,133.645,116.579,133.736,106.7,133.736ZM124,43.842c-3.656,0-12.109,1.748-18.236,3.244a34.559,34.559,0,0,0-4.982,1.607,25.175,25.175,0,0,0-3.366,1.679,13.052,13.052,0,0,0-2.505,1.859L85.772,62.269l-2.313,1.5c0,.046.006,4.741.535,9.859a16.26,16.26,0,0,0,.963,3.892,28.61,28.61,0,0,0,1.6,3.52,33.784,33.784,0,0,0,2.158,3.533l.023-.007c1.267-.348,12.444-3.408,14.716-3.838,1.811-.343,3.347-2.67,4.468-4.37.381-.577.709-1.075.993-1.416a3.824,3.824,0,0,1,1.877-.988c.853-.254,1.888-.453,2.983-.664a35.587,35.587,0,0,0,3.942-.913,5.553,5.553,0,0,0,2.12-1.281,8.6,8.6,0,0,0,1.43-1.795,11.146,11.146,0,0,0,1.063-2.289c.061-.013,7.281-1.573,9.583-2.087.58-.13.92-.371,1.012-.717a1.551,1.551,0,0,0-.425-1.274,5.044,5.044,0,0,0-.587-.662l-18.1-.633.067-.015c1.818-.387,10.995-2.333,13.087-2.62a27.031,27.031,0,0,0,5.147-1.435,13.708,13.708,0,0,0,2.4-1.146c.67-.429,1.01-.824,1.01-1.175,0-.326-.474-.6-1.41-.812A24.061,24.061,0,0,0,130.622,54c-2.6-.175-5.769-.2-8.8-.2h-1.148c-4.912,0-15.876.925-15.986.934l4.227-2.025c.143-.028,14.332-2.771,16.212-2.771a1.965,1.965,0,0,0,1.227-.446,3.65,3.65,0,0,0,.84-.982,6.4,6.4,0,0,0,.636-1.428,9.446,9.446,0,0,0-.58-1.084,7.264,7.264,0,0,0-1.6-1.878A3.06,3.06,0,0,0,124,43.842Z" transform="translate(11.62 16.139)" fill="#ffcf77"/>
    <path id="_Device" data-name="ðŸ“± Device" d="M7.9,24.617,17.184,3.575S18.587,0,20.97,0,44.957.677,44.957.677s4.421.564,2.994,2.9-22.656,45.77-22.656,45.77h-9V47.15l10.024-2.8s1.824-1.936-1.02-1.936S5.9,41.777,5.9,41.777l15.78-2.316,7.806-3-1.148-1.579-6.657-.951L0,34.879l5.9-2,13.186-2.8s2.594-1.827,2.594-3.619-6.948-2.481-6.948-2.481Z" transform="translate(117.658 35.998)" fill="#fff"/>
    <path id="_Ink" data-name="ðŸ– Ink" d="M155.956,153.365a.96.96,0,0,1-.758-.357,3.712,3.712,0,0,1-.993-2.483c-.03-.488-.046-.986-.062-1.467-.011-.323-.022-.657-.037-.985-.077-1.7-.178-3.488-.3-5.308-.245-3.665-.52-7.231-.817-10.6-.641-7.256-1.637-14.6-2.6-21.7-.68-5.011-1.383-10.193-1.955-15.3-.711-6.345-1.2-12.642-1.455-18.716-.129-3.077-.179-6.232-.148-9.378.011-1.07.059-2.212.147-3.492-2.067,4.7-4.263,9.4-6.528,13.975l-.54,1.09a95.345,95.345,0,0,1-4.66,8.57l-.3.467c-.074.117-.149.239-.229.368l0,0a14.638,14.638,0,0,1-1.181,1.719,3.213,3.213,0,0,1-1.532,1.132,4.357,4.357,0,0,1-1.163.13c-.328,0-.662-.02-.985-.04h0c-.261-.016-.507-.031-.747-.035l-.793-.013c-.633-.009-1.287-.019-1.932-.045a13.357,13.357,0,0,1-2.973-.44,3.332,3.332,0,0,1-.459-.153,8.171,8.171,0,0,1-1.925,2.128,10.664,10.664,0,0,1-2.473,1.451,30.385,30.385,0,0,1-4.273,1.338l-.511.128c-.222.055-.453.108-.676.158-1.365.308-2.777.627-3.527,1.913l-.2.348a8.784,8.784,0,0,1-2.353,2.871,9.907,9.907,0,0,1-1.873,1.068,17.723,17.723,0,0,1-2.029.741c-1.132.346-2.3.63-3.437.906l-.018,0-.8.2-.388.1c-.306.077-.619.153-.921.226l-.008,0c-.622.151-1.264.307-1.892.479-.43.118-.816.226-1.195.356a4.157,4.157,0,0,0-1.151.67,2.141,2.141,0,0,1-1.03,1.24,3.306,3.306,0,0,1-1.624.438c-.067,0-.134,0-.2-.007a3.544,3.544,0,0,1-1.625-.543c-.557.475-1.158.922-1.739,1.354h0c-.305.227-.621.462-.923.7-1.3,1.006-2.5,1.924-3.67,2.806-2.716,2.048-5.225,3.9-7.671,5.647-4.375,3.135-9.093,6.307-14.022,9.43-1.769,1.121-3.865,2.441-6,3.738l.215.08.427.161a5.283,5.283,0,0,1,1.47.782,2.228,2.228,0,0,1,.86,1.383,1.457,1.457,0,0,1-.227,1.137,1.507,1.507,0,0,1-1.062.556,2.052,2.052,0,0,1-.251.016,2.345,2.345,0,0,1-1.321-.441,6.19,6.19,0,0,1-1.061-.953c-.127-.138-.262-.273-.393-.4-.18-.18-.367-.367-.534-.561a2.072,2.072,0,0,1-.288-.461c-2.2,1.3-4.18,2.4-6.048,3.369l-.512.264c-2.2,1.126-4.415,2.319-6.555,3.473h0c-2.787,1.5-5.669,3.056-8.561,4.481A28,28,0,0,1,26.3,144.92a21.533,21.533,0,0,1,.453,5.213v.216a1.231,1.231,0,0,1-.345.9,1.419,1.419,0,0,1-1.006.392,1.388,1.388,0,0,1-1-.394,1.2,1.2,0,0,1-.32-.9l.028-.829a21.253,21.253,0,0,1,.462-4.2,16.579,16.579,0,0,1-2.7.215,21.73,21.73,0,0,1-5.309-.7,13.762,13.762,0,0,1-2.9-1.03,11.938,11.938,0,0,1-2.73-2.436,18.7,18.7,0,0,1-2.153-3.08A37.56,37.56,0,0,1,7.1,134.921a68.741,68.741,0,0,1-2.828-7.552c-.758-2.433-1.444-5.059-2.038-7.805A99.234,99.234,0,0,1,.206,104.9,105.406,105.406,0,0,1,.325,90.052,108.985,108.985,0,0,1,6.632,61.139a111.463,111.463,0,0,1,5.984-13.492l.285-.538c1.34-2.524,2.508-4.548,3.675-6.371a47.863,47.863,0,0,1,4.381-5.89,36.544,36.544,0,0,1,5.58-5.112,45.092,45.092,0,0,1,6.445-3.977A63.847,63.847,0,0,1,39.77,22.8c.327-.122.684-.243,1.123-.382a23.553,23.553,0,0,1,3.865-2.045,13.762,13.762,0,0,1,2.1-.663A9.854,9.854,0,0,1,49,19.457l.168,0a.706.706,0,0,1,.481.193,3.887,3.887,0,0,1,.424.1.815.815,0,0,1,.6.785l-.015.117a.97.97,0,0,1-.037.166,1.775,1.775,0,0,1,.308.075c1.85-.523,3.7-1.237,5.5-1.928.921-.355,1.873-.722,2.806-1.055l.623-.22.163-.057.088-.031a19.247,19.247,0,0,0,6.274-3.094,16.63,16.63,0,0,0,4.3-5.849,36.951,36.951,0,0,0,1.75-5.046c.333-1.137.678-2.313,1.094-3.444A.247.247,0,0,1,73.759,0a.224.224,0,0,1,.231.23,29.742,29.742,0,0,1-1.2,9.311,19.668,19.668,0,0,1-1.9,4.328,14.141,14.141,0,0,1-2.97,3.54,22.934,22.934,0,0,1-7.323,3.617c-.422.15-.858.3-1.286.461l-.333.123-5.222,1.946c-.2.073-.4.153-.592.23l0,0a6.9,6.9,0,0,1-2.388.643,2.122,2.122,0,0,1-1.118-.294c.3.733.582,1.484.858,2.211a52.156,52.156,0,0,0,2.169,5.135,38.919,38.919,0,0,0,2.5,4.233,35.771,35.771,0,0,0,3.038,3.862,31.248,31.248,0,0,0,5.523,4.81A33.281,33.281,0,0,0,70.1,47.776a36.55,36.55,0,0,0,6.934,2,39.677,39.677,0,0,0,7.235.66,41.335,41.335,0,0,0,9.164-1.032A44.344,44.344,0,0,0,98.2,48.047a35.155,35.155,0,0,0,4.543-1.944,28.365,28.365,0,0,0,4.159-2.619,24.267,24.267,0,0,0,3.617-3.386,21.566,21.566,0,0,0,2.235-3.113,24.442,24.442,0,0,0,1.7-3.477A26.672,26.672,0,0,0,115.61,29.8a27.4,27.4,0,0,0,.613-3.815,1.137,1.137,0,0,1-.179.014,1.094,1.094,0,0,1-.234-.025,16.177,16.177,0,0,1-4.569-2.024l-.134-.08a12.992,12.992,0,0,1-3.694-2.982,10.906,10.906,0,0,1-1.335-3.117c-.363-1.147-.617-2.174-.62-2.184a39.4,39.4,0,0,1-.485-6.1c0-.09.253-.16.466-.16.137,0,.229.029.252.079a14.731,14.731,0,0,1,.74,3.137,17.84,17.84,0,0,0,.508,2.409l.093.272c.087.252.17.509.258.78v0c.2.62.409,1.261.672,1.869a6.129,6.129,0,0,0,1,1.65c1.621,1.831,3.939,2.765,6.18,3.668l.006,0c.392.158.8.321,1.186.485a1.838,1.838,0,0,1,.689-1.342,2.176,2.176,0,0,1,1.349-.447,2.082,2.082,0,0,1,1.489.585,1.848,1.848,0,0,1,.5,1.367c0,.1-.006.209-.01.31v.034l0,.068c.316.174.622.375.879.549l.269.183a35.914,35.914,0,0,0,3.134,1.942c1.348.731,2.771,1.376,4.146,2,.768.348,1.563.708,2.337,1.08a34.469,34.469,0,0,1,3.164,1.727,32.228,32.228,0,0,1,2.957,2.061,31.648,31.648,0,0,1,2.564,2.241l.221.218c.125.125.253.249.389.38a7.877,7.877,0,0,1,1.833,2.266c.1.228.583.743.848.76,4.494.295,8.5.692,12.246,1.216a1.428,1.428,0,0,1,1.126.581,1.086,1.086,0,0,1-.046.987c-1.331,3-6.6,15.128-7.967,18.3.083,1.214.066,2.559.05,3.859-.016,1.244-.032,2.528.04,3.69.208,3.359.488,6.856.832,10.394.94,9.661,2.281,19.443,3.578,28.9.363,2.648.738,5.387,1.1,8.1.852,6.358,1.645,12.89,2.321,18.513.395,3.285.7,6.353.939,9.378.1,1.327.2,2.646.276,3.92l.07,1.16c.01.152.022.3.033.453v0a5.112,5.112,0,0,1-.616,3.648A1.461,1.461,0,0,1,155.956,153.365ZM3.87,110.918c.444,3.335,1.054,6.655,1.814,9.869l.17.711c.583,2.423,1.112,4.4,1.666,6.218A58.31,58.31,0,0,0,9.7,133.763a21.415,21.415,0,0,0,3.268,5.357,15.126,15.126,0,0,0,2.2,2.106,7.894,7.894,0,0,0,2.056,1.046,10.722,10.722,0,0,0,3.572.645,11.453,11.453,0,0,0,4.757-.716l.017-.006a44.71,44.71,0,0,0,6.322-2.958c.468-.249.952-.507,1.426-.755l.26-.135c1.05-.543,2.138-1.116,3.327-1.75a4.5,4.5,0,0,1,.073-1.59,5.726,5.726,0,0,1,.619-1.526,1.123,1.123,0,0,1,1-.613,1.352,1.352,0,0,1,.867.333,1.32,1.32,0,0,1,.456.868l0,.044a5.951,5.951,0,0,0,.115.789C47,131.085,54.117,126.864,61.789,122c4.642-2.945,9.217-5.97,13.6-8.991,2.265-1.562,4.5-3.147,6.645-4.712,1.155-.842,2.309-1.7,3.432-2.536.243-.182.488-.372.724-.555s.459-.356.691-.53c-.117-.147-.231-.292-.337-.432a18.072,18.072,0,0,1-2.2-3.777,20.8,20.8,0,0,1-1.3-4.178,31.629,31.629,0,0,1-.565-5.275l-.022-.765a18.652,18.652,0,0,1,.193-3.885l-.349.19c-.208.112-.422.228-.633.348-1.308.742-2.468,1.4-3.545,2-2.091,1.173-4.576,2.555-7.153,3.905-4.928,2.583-9.09,4.59-13.1,6.317l-2.169.935a114.964,114.964,0,0,1-11.475,4.415c-2.2.677-5.483,1.511-7.758,2.038h0l0,0a7.725,7.725,0,0,1,.786.9,4.309,4.309,0,0,1,.5.852,1.589,1.589,0,0,1,.147.873,1.071,1.071,0,0,1-.695.792,1.6,1.6,0,0,1-.657.145,1.978,1.978,0,0,1-1.152-.42,4.552,4.552,0,0,1-.933-.944,6.309,6.309,0,0,1-.893-1.567c-1.024.214-3.949.733-3.978.738a27.742,27.742,0,0,0-8.017,2.981.917.917,0,0,1-.428.131.32.32,0,0,1-.33-.223c-.075-.239.07-.654.567-1a21.382,21.382,0,0,1,4.336-2.295,43.593,43.593,0,0,1,4.747-1.552l.159-.044c1.162-.318,2.361-.661,3.563-1.018a5.04,5.04,0,0,1-.191-1.5c.021-.762.072-1.537.122-2.288.029-.434.058-.881.082-1.323.129-2.436.295-4.907.505-7.553.082-1.034.167-1.987.262-2.914-.212-.114-.418-.242-.617-.366h0a5.6,5.6,0,0,0-1.275-.649l-.12-.035a.563.563,0,0,1-.461-.6.734.734,0,0,1,.632-.665,5.243,5.243,0,0,1,.642-.039,5.613,5.613,0,0,1,1.176.128c.1.021.182.043.265.068.118-.964.24-1.844.372-2.69.07-.447.137-.907.2-1.352v0a32.849,32.849,0,0,1,1.193-5.753.242.242,0,0,1,.224-.158.192.192,0,0,1,.174.106,9.987,9.987,0,0,1,.967,3.155,32.636,32.636,0,0,1,.282,3.344v0c.01.193.02.393.03.587l.016.282c.13,2.267.165,4.733.109,7.763-.046,2.5-.131,5.111-.259,7.972-.01.232-.019.468-.026.7a18.138,18.138,0,0,1-.2,2.508c3.362-1.093,6.675-2.292,9.846-3.562,3.283-1.315,6.5-2.741,9.555-4.237,4.417-2.162,8.823-4.426,13.1-6.729.971-.523,1.961-1.052,2.918-1.563l.008,0,.008,0c1.17-.625,2.38-1.271,3.567-1.913.691-.374,1.434-.778,2.271-1.234l1.135-.619.359-.2a11.784,11.784,0,0,1,1.344-.676,4.272,4.272,0,0,1,1.482-.323h.037a1.206,1.206,0,0,1,.9.423,3.838,3.838,0,0,1,2.211-.754h.028c1.428-1.973,2.612-3.552,3.727-4.967l.947-1.2a31.712,31.712,0,0,1,5.462-5.77,13.287,13.287,0,0,1,3.027-1.673,1.605,1.605,0,0,1-.717-.389,3.534,3.534,0,0,1-.921-1.626,13.593,13.593,0,0,1-.379-1.93v-.008c-.024-.162-.046-.315-.069-.466a10.513,10.513,0,0,1-.12-1.984,16.048,16.048,0,0,1,.2-1.981.613.613,0,0,1,.638-.465.558.558,0,0,1,.538.311c.151.342.307.685.457,1.017h0c.3.66.61,1.342.885,2.035l.121.314a11.878,11.878,0,0,0,.517,1.12h0a5.373,5.373,0,0,1,.8,2.551,1.635,1.635,0,0,1-.314.9c.627-.208,1.269-.4,1.89-.592h0l.813-.249c2.554-.789,5.53-1.691,8.531-2.4.769-.181,1.546-.349,2.308-.5a38.832,38.832,0,0,1,1.69-5.662,4.709,4.709,0,0,1-1.16-.935c-.156-.156-.318-.317-.492-.471a7.407,7.407,0,0,1-.937-1.067c-.132-.171-.268-.348-.411-.519a.9.9,0,0,1-.122-.946.688.688,0,0,1,.648-.408h.035l.21.009a5.248,5.248,0,0,1,2.206.473l.248.128a8.427,8.427,0,0,1,1.044.618c.386-.89.812-1.831,1.339-2.963l.591-1.265.447-.963.014-.03a79.117,79.117,0,0,1,4.523-8.779,5.292,5.292,0,0,1,1.522-1.634,4.3,4.3,0,0,1,2.105-.711c.42-.034.864-.05,1.359-.05.8,0,1.612.043,2.4.085.446.024.907.048,1.358.064,2.1.075,4.018.159,5.856.255-.226-.237-.446-.489-.659-.733h0c-.257-.3-.524-.6-.8-.876a30.287,30.287,0,0,0-2.64-2.355,32.747,32.747,0,0,0-5.94-3.663c-.54-.265-1.091-.524-1.624-.775a39.09,39.09,0,0,1-4.588-2.414,17.78,17.78,0,0,1-3.369-2.9,27.005,27.005,0,0,1-.967,5.057,28.449,28.449,0,0,1-1.879,4.77,29.969,29.969,0,0,1-2.7,4.38,31.056,31.056,0,0,1-3.417,3.887,30.637,30.637,0,0,1-9,5.887,43.65,43.65,0,0,1-10.37,3.017,46.35,46.35,0,0,1-7.582.634,42.694,42.694,0,0,1-7.041-.577,38.9,38.9,0,0,1-6.839-1.79,37.944,37.944,0,0,1-5.157-2.326A37.432,37.432,0,0,1,60.537,45.6a2.589,2.589,0,0,1-.151.583,3.993,3.993,0,0,1-.381.682l-.263.385c-.15.219-.327.473-.523.706a2.247,2.247,0,0,1-1.787.779h-.012a2,2,0,0,1-.927-.229,2.124,2.124,0,0,1-.705-.6,2.028,2.028,0,0,1-.351-1.778,2.359,2.359,0,0,1,.533-1,2.608,2.608,0,0,1,.928-.625c.24-.1.489-.188.725-.268l.183-.062a5.241,5.241,0,0,1,.745-.212,33.381,33.381,0,0,1-3.942-4.115,39.817,39.817,0,0,1-2.707-3.8,29.168,29.168,0,0,1-2.232-4.289,15.886,15.886,0,0,1-1.213-9.228.255.255,0,0,1,.219-.189,2.006,2.006,0,0,1,.618-1.133,5.462,5.462,0,0,0-.641-.128c-.645.144-1.288.27-1.777.363-.547.293-1.1.594-1.632.885-1.656.9-3.368,1.836-5.128,2.65a81.229,81.229,0,0,0-7.265,3.7,38.867,38.867,0,0,0-3.4,2.248,38.242,38.242,0,0,0-3.1,2.56,39.321,39.321,0,0,0-2.816,2.871c-.884,1-1.741,2.068-2.547,3.18a83.272,83.272,0,0,0-7.314,12.267A105.372,105.372,0,0,0,8.318,65.058c-.753,2.283-1.442,4.636-2.046,7a10.841,10.841,0,0,1,3.743-2.112,1.085,1.085,0,0,1,.374-.064,1.57,1.57,0,0,1,1.276.736,1.266,1.266,0,0,1,.2.738,1.483,1.483,0,0,1-1.073,1.41A27.121,27.121,0,0,0,7.142,73.8l-.017.006c-.254.085-.516.173-.773.257A.793.793,0,0,1,6.1,74.1a.636.636,0,0,1-.316-.082A104.8,104.8,0,0,0,3.116,92.71,99.828,99.828,0,0,0,3.6,108.737,7.568,7.568,0,0,1,5,108.226c.614-.143,1.239-.319,1.909-.539a1.489,1.489,0,0,1,.464-.078,1.241,1.241,0,0,1,.933.423,1.725,1.725,0,0,1,.426.952,1.527,1.527,0,0,1-.18.955,1.326,1.326,0,0,1-.855.608c-.729.18-1.413.315-2.089.415a4.728,4.728,0,0,1-.694.051A6.391,6.391,0,0,1,3.87,110.918Zm120.039-45.4a37.127,37.127,0,0,0-7.516.847c-2.605.537-5.166,1.271-7.328,1.918l-1.1.329c-2.25.677-4.132,1.266-6,1.939a14.179,14.179,0,0,0-5.629,3.776c-.546.575-1.093,1.161-1.622,1.728-1.228,1.316-2.5,2.676-3.809,3.961-1.068,1.048-2.241,2.169-3.585,3.428a3.739,3.739,0,0,0-.642,1.235,5.943,5.943,0,0,0-.1,2.488c.1.939.175,1.9.244,2.825.091,1.229.184,2.5.358,3.74a22.3,22.3,0,0,0,1.514,5.976,11.08,11.08,0,0,0,1.254,2.119l.4.515c.164.213.361.463.569.7a1.394,1.394,0,0,1,1.077-.55,1.309,1.309,0,0,1,.153.009,9.612,9.612,0,0,0,1.128.072,7.779,7.779,0,0,0,1.818-.222c.536-.125,1.077-.267,1.6-.4h0c.251-.066.536-.141.812-.211.442-.113.888-.224,1.32-.331,1.126-.279,2.29-.568,3.419-.9l.269-.081a14.644,14.644,0,0,0,1.724-.631,7.649,7.649,0,0,0,1.577-.927,6.083,6.083,0,0,0,1.52-1.978,10.7,10.7,0,0,1,.789-1.25,5.494,5.494,0,0,1,2.719-1.785,21.3,21.3,0,0,1,3.418-.742c.753-.121,1.463-.235,2.106-.393a16.176,16.176,0,0,0,3.2-1.1,9.064,9.064,0,0,0,2.686-1.9l.09-.1a.684.684,0,0,1,.309-.76l.058-.032a.63.63,0,0,1,.311-.08h.014a7.546,7.546,0,0,0,.4-.655.156.156,0,0,1,.139-.09.193.193,0,0,1,.144.071.188.188,0,0,1,.043.156c-.017.094-.04.188-.062.279h0l-.012.05a13.55,13.55,0,0,1,3.337-.315c.229,0,.463,0,.67,0l.62,0,1.958-.007a8.215,8.215,0,0,0,.889-.041l.046-.021.041-.017,0,0h-.018c-.009,0-.014,0-.017-.007s0-.028.023-.055c.088-.117.179-.241.277-.379.282-.395.569-.825.932-1.394a85.251,85.251,0,0,1-10.023,1.789c-1.95.253-3.721.439-5.415.569-1.927.148-3.706.221-5.439.223h0a.719.719,0,0,1-.553-.229.781.781,0,0,1-.191-.51.824.824,0,0,1,.181-.542.744.744,0,0,1,.564-.265c3.646-.139,7.559-.337,11.465-.842,1.908-.247,3.889-.565,5.885-.948.744-.142,1.5-.3,2.255-.458l.562-.123c.073-.016.178-.035.29-.054a4.547,4.547,0,0,0,1.545-.462l.048-.083.237-.409c-.016-.2-.206-.342-.564-.422a4.459,4.459,0,0,0-.952-.08l-.193,0H131.7c-.524,0-1.057,0-1.572,0l-1.035,0H128.3c-1.569,0-3.164-.013-4.706-.025h-.014l-.325,0c-.995-.008-2.007-.023-2.987-.038h-.005c-1.452-.022-2.953-.044-4.43-.044-1.587,0-2.979.026-4.254.081h-.037a1.031,1.031,0,0,1-.945-.872.845.845,0,0,1,.475-1c3.657-1.562,7.7-2.04,11.6-2.5h.006c.482-.057.98-.116,1.467-.176a55.481,55.481,0,0,0,6.881-1.187l.559-.142a12.31,12.31,0,0,0,4.181-1.675,8.97,8.97,0,0,0-2.33-.549c-.812-.095-1.639-.124-2.438-.151h0c-.389-.013-.757-.026-1.118-.046l-.143-.008c-2.595-.159-5.229-.242-7.83-.246h-.3c-4.531,0-9.38.134-15.723.436h-.006a.113.113,0,0,1-.109-.107.11.11,0,0,1,.084-.126,79.847,79.847,0,0,1,8.29-1.347c2.71-.3,5.532-.471,8.387-.516.687-.011,1.384-.016,2.071-.016,1.917,0,3.859.043,5.773.128l.959.044.339.014.039,0a23.476,23.476,0,0,1,3.23.282,7.118,7.118,0,0,1,2.955,1.169,1.022,1.022,0,0,1,.457.744c2.264-4.515,4.4-9.184,6.472-13.7l.092-.2.562-1.227c.606-1.322,1.215-2.67,1.8-3.974h0c1.161-2.571,2.361-5.23,3.6-7.818l.6-1.262c.907-1.885,1.689-3.455,2.56-4.989-3.12-.417-6.513-.753-10.372-1.025-2.467-.174-9.252-.514-12.885-.514a14.479,14.479,0,0,0-2.1.091,2.775,2.775,0,0,0-1.681,1.157,11.156,11.156,0,0,0-1.077,1.917c-.125.262-.243.509-.364.739-1.647,3.148-3.193,6.409-4.687,9.563v0l-.135.285c-.37.78-.737,1.575-1.093,2.344l-.01.022-.323.7a1.579,1.579,0,0,1-.11.237c-1.082,2.331-2.03,4.269-3.139,6.153,1.1-.206,2.186-.376,3.223-.506a6.908,6.908,0,0,1,.768-2.718c.079-.184.154-.358.217-.514l.029-.072c.069-.177.139-.369.212-.572.377-1.044.845-2.343,1.771-2.82a.571.571,0,0,1,.263-.066.513.513,0,0,1,.357.144.572.572,0,0,1,.169.375,5.223,5.223,0,0,1-1.171,2.808v0c-.186.285-.361.554-.5.8-.359.638-.7,1.268-1.02,1.871-.042.081-.082.16-.121.238-.077.155-.15.3-.234.437.65-.07,1.181-.119,1.672-.153l.364-.025c.5-.033,1.156-.071,1.814-.071a11.891,11.891,0,0,1,2.226.186,7.066,7.066,0,0,1,2.1.731,3.976,3.976,0,0,1,1.843,2.071,3.333,3.333,0,0,1,.212,1.346,3.4,3.4,0,0,1-.386,1.4,4.474,4.474,0,0,1-2.635,2.183,13.881,13.881,0,0,1-3.47.6c-2.772.223-5.584.626-8.3,1.015l-.3.043a38.558,38.558,0,0,0-4.836,1.123c-1.238.344-2.518.7-3.8.948a.281.281,0,0,1-.053.005.261.261,0,0,1-.249-.191.23.23,0,0,1,.112-.267,29.863,29.863,0,0,1,6.9-2.723l.741-.225.207-.064c.289-.089.581-.182.864-.271a24.5,24.5,0,0,1,3.325-.886c1.391-.234,2.808-.427,4.211-.571l.137-.013c.171-.014.376-.027.592-.04A17.432,17.432,0,0,0,125.7,69.4a3.521,3.521,0,0,0,2-.936,1.51,1.51,0,0,0,.366-1.145c-.048-.661-.544-1.154-1.473-1.464a8.067,8.067,0,0,0-2.236-.337C124.208,65.52,124.058,65.518,123.909,65.518ZM131.341,81.9a7.329,7.329,0,0,1,2.642.363,2.427,2.427,0,0,1,.644.372c1.046-1.861,2.077-3.791,3.151-5.9a7.613,7.613,0,0,1-2.481,1.67,23.088,23.088,0,0,1-2.847,1,46.651,46.651,0,0,1-6.732,1.366c-.6.085-1.206.168-1.788.249-1.556.214-3.165.436-4.734.7l1.592.018c1.081.012,2.2.024,3.3.044,2.156.039,3.945.08,5.63.129.14,0,.294.006.472.006s.38,0,.566,0h.011C130.951,81.9,131.146,81.9,131.341,81.9Zm-2.427,69.489a1.887,1.887,0,0,1-1.264-.477,1.811,1.811,0,0,1-.6-1.329,6.576,6.576,0,0,1,.708-3,6.7,6.7,0,0,1,1.929-2.419.748.748,0,0,1,.453-.156,1.158,1.158,0,0,1,.967.735,6.2,6.2,0,0,1,.308,2.96,6.762,6.762,0,0,1-.925,2.814A1.859,1.859,0,0,1,128.914,151.389Zm9.47-.218a.678.678,0,0,1-.644-.5,24.877,24.877,0,0,1-.979-5.322h0c-.04-.365-.081-.742-.125-1.111-.214-1.794-.355-3.627-.492-5.4q-.026-.332-.051-.664l-.048-.607c-.356-4.482-.64-8.977-.843-13.361-.2-4.363-.33-8.864-.38-13.378-.022-1.955.009-4,.09-6.086l.025-.608c.021-.479.034-.972.047-1.449a25.219,25.219,0,0,1,.446-4.887.214.214,0,0,1,.219-.163.219.219,0,0,1,.221.163,26.123,26.123,0,0,1,.506,4.645v0c.024.482.048.98.081,1.463l.016.224c.175,2.4.305,4.585.4,6.693.184,4.22.406,8.528.677,13.169.126,2.16.264,4.356.409,6.526a12.668,12.668,0,0,1,1.412-.675,5.284,5.284,0,0,1,2.038-.322h.185a1.573,1.573,0,0,1,1.547,1.785,1.479,1.479,0,0,1-.556,1,1.725,1.725,0,0,1-1.063.334,2.252,2.252,0,0,1-.346-.027c-.385-.06-.776-.134-1.155-.205-.639-.12-1.3-.245-1.952-.31.128,1.862.247,3.512.363,5.043.074.98.159,1.973.242,2.933.105,1.225.214,2.492.3,3.739.013.193.029.4.047.638a8.971,8.971,0,0,1,1.851-.644l.176-.048.194-.055.262-.076a6.236,6.236,0,0,1,1.707-.337,2.1,2.1,0,0,1,1.28.4,1.375,1.375,0,0,1,.592.942,1.291,1.291,0,0,1-.341,1,2.573,2.573,0,0,1-2.1.789c-.263,0-.533-.015-.794-.029-.117-.006-.248-.014-.373-.019l-.63-.023a7.458,7.458,0,0,1-1.69-.211,22.522,22.522,0,0,1-.024,4.333A.753.753,0,0,1,138.384,151.171Zm-91.73-2.131a2.62,2.62,0,0,1-1.083-.246,5.809,5.809,0,0,1-2.139-1.806l-.168-.214-.018-.023a3.2,3.2,0,0,1-.636-1.05,3.26,3.26,0,0,1-.023-1.138v-.014l.005-.057a.786.786,0,0,1,.163-.4.482.482,0,0,1,.374-.2.447.447,0,0,1,.057,0c.143.019.29.025.433.031a4.182,4.182,0,0,1,.511.042,2.561,2.561,0,0,1,.73.279c.125.063.253.128.386.181a10.36,10.36,0,0,0,1.173.364c.247.066.5.134.748.212a2.178,2.178,0,0,1,1.323,1.15,2.02,2.02,0,0,1,.019,1.647,1.987,1.987,0,0,1-.768.934A2.026,2.026,0,0,1,46.653,149.04Zm60.392-4.928a6.066,6.066,0,0,1-3.074-1.25h0c-.218-.138-.423-.267-.63-.391l-.07-.041c-.167-.1-.337-.2-.5-.289h0a15.4,15.4,0,0,1-1.61-1.01,5.186,5.186,0,0,1-1.307-1.376.741.741,0,0,1-.016-.68.577.577,0,0,1,.435-.351,4.965,4.965,0,0,1,.69-.048,9.291,9.291,0,0,1,3.1.712l.016.006.3.105.111.038c.258.089.535.172.828.26h0c1.278.383,2.727.818,3.308,1.979a1.71,1.71,0,0,1,.037,1.465,1.407,1.407,0,0,1-.954.791A2.731,2.731,0,0,1,107.045,144.113Zm-26.41-8.074a2.414,2.414,0,0,1-2.058-1.3,2.322,2.322,0,0,1-.289-1.09,2.01,2.01,0,0,1,.333-1.122,4.7,4.7,0,0,1,1.722-1.519,15.911,15.911,0,0,1,2.175-.937h0c.169-.063.345-.129.513-.193a28.946,28.946,0,0,0,3.791-1.886l.008,0,.489-.273a.739.739,0,0,1,.362-.1.774.774,0,0,1,.7.486.7.7,0,0,1-.159.778l-.895.9a25.128,25.128,0,0,0-2.35,2.63l-.172.233-.174.238-.009.012a15.938,15.938,0,0,1-1.474,1.823,4.606,4.606,0,0,1-1.9,1.234A2.069,2.069,0,0,1,80.635,136.038Zm-58.212-6.416a2.372,2.372,0,0,1-1.627-.65,2.071,2.071,0,0,1-.6-1.27,2.666,2.666,0,0,1,.26-1.391,6.54,6.54,0,0,1,1.855-2.025c.283-.236.551-.458.795-.688l.079-.076c.343-.333.7-.634,1.044-.925a10.883,10.883,0,0,0,1.744-1.713.776.776,0,0,1,.627-.293.726.726,0,0,1,.6.275.581.581,0,0,1,.043.552c-.238.646-.438,1.337-.649,2.069a22.429,22.429,0,0,1-1.118,3.245,6.339,6.339,0,0,1-2.015,2.582A1.761,1.761,0,0,1,22.422,129.622Zm102.066-.186a1.732,1.732,0,0,1-1.02-.332,1.953,1.953,0,0,1-.649-.82,1.917,1.917,0,0,1-.138-1.033,1.827,1.827,0,0,1,.5-1,9.859,9.859,0,0,1,3.35-1.963l.01,0c.2-.085.407-.173.606-.26l.314-.139a7.007,7.007,0,0,1,2.379-.574,1.215,1.215,0,0,1,1.008.36.436.436,0,0,1,.071.093.854.854,0,0,1,0,.867,9.89,9.89,0,0,1-2.411,2.573l-.111.083c-.2.151-.41.309-.609.462a8.314,8.314,0,0,1-2.793,1.619A1.921,1.921,0,0,1,124.488,129.436ZM60.049,113.908a1.99,1.99,0,0,1-.9-.23A10.638,10.638,0,0,1,56.4,111.71a11.936,11.936,0,0,1-2.013-2.724.635.635,0,0,1,.014-.643.649.649,0,0,1,.548-.332.605.605,0,0,1,.319.094,22.08,22.08,0,0,0,5.283,2.249,1.982,1.982,0,0,1,.962.658,1.6,1.6,0,0,1,.373,1.1l-.008.121a1.434,1.434,0,0,1-.24.8,2.425,2.425,0,0,1-.724.65A1.734,1.734,0,0,1,60.049,113.908Zm46.9-.761a3.443,3.443,0,0,1-1.9-.736,11.683,11.683,0,0,1-1.573-1.378l-.044-.044A9.139,9.139,0,0,1,102.1,109.3a5.737,5.737,0,0,1-.753-1.982.327.327,0,0,1,.066-.271.293.293,0,0,1,.228-.1.385.385,0,0,1,.071.007,8.364,8.364,0,0,1,1.961.647,14.727,14.727,0,0,1,1.817,1.02c.328.212.655.439.971.658.288.2.585.405.882.6a2.659,2.659,0,0,1,.833.765,2.48,2.48,0,0,1,.34,1.081,1.1,1.1,0,0,1-.285.835,1.672,1.672,0,0,1-.733.5A1.792,1.792,0,0,1,106.944,113.148Zm40.633-1.5a3.075,3.075,0,0,1-1.646-.58,6.928,6.928,0,0,1-1.319-1.152l-.064-.073c-.1-.12-.208-.237-.319-.362a8.985,8.985,0,0,1-1.238-1.617,12.535,12.535,0,0,1-.7-1.695v0c-.053-.148-.108-.3-.163-.449a.824.824,0,0,1,.1-.776,1.12,1.12,0,0,1,.9-.464.891.891,0,0,1,.459.122c.235.139.481.27.719.4a11.617,11.617,0,0,1,1.27.752c.37.265.724.565,1.066.856.184.157.375.319.568.475l.27.214a6.364,6.364,0,0,1,1.161,1.237,2.91,2.91,0,0,1,.621,1.594,1.391,1.391,0,0,1-.559,1.121A1.744,1.744,0,0,1,147.577,111.648Zm-21.869-10.1h-.037a1.675,1.675,0,0,1-1.308-.542,1.867,1.867,0,0,1-.476-1.8,9.326,9.326,0,0,1,1.273-2.393,6.416,6.416,0,0,1,2-1.8.761.761,0,0,1,.37-.092.709.709,0,0,1,.722.536c.019.1.043.2.065.3a3.848,3.848,0,0,1,.13.835,4.306,4.306,0,0,1-.154.962v0c-.032.136-.063.264-.087.391a8.245,8.245,0,0,1-.938,2.689A1.854,1.854,0,0,1,125.708,101.547ZM48.072,95.639a7.813,7.813,0,0,1-3.91-1.133.857.857,0,0,1-.3-1.152,5.369,5.369,0,0,1,.852-1.1,6.636,6.636,0,0,1,1.156-.931,5.234,5.234,0,0,1,2.727-.882c.088,0,.177,0,.264.01a2.663,2.663,0,0,1,1.716.757,2.6,2.6,0,0,1,.734,1.516,2.5,2.5,0,0,1-.327,1.591,2.605,2.605,0,0,1-1.449,1.113A4.639,4.639,0,0,1,48.072,95.639ZM22.506,93.394a1.867,1.867,0,0,1-.485-.064,14.564,14.564,0,0,1-4.065-2.165l-.019-.013-.257-.174-.242-.161-.1-.063a8.76,8.76,0,0,1-1.551-1.192,10.706,10.706,0,0,1-1.053-1.392c-.071-.105-.144-.214-.216-.318A.33.33,0,0,1,14.5,87.5a.457.457,0,0,1,.389-.236.378.378,0,0,1,.081.009c.266.058.543.1.812.15a10.326,10.326,0,0,1,1.3.274,11.777,11.777,0,0,1,1.152.442c.292.124.595.252.9.358.592.208,1.212.375,1.81.537a18.278,18.278,0,0,1,2.548.826,1.6,1.6,0,0,1,.7.689,1.723,1.723,0,0,1,.243.952l-.013.139a1.832,1.832,0,0,1-.246.82A1.963,1.963,0,0,1,22.506,93.394Zm48.6-6.325a2.185,2.185,0,0,1-1.345-.619,5.932,5.932,0,0,1-.988-1.1A10.614,10.614,0,0,1,67.255,82a.6.6,0,0,1,.1-.538.688.688,0,0,1,.539-.264.636.636,0,0,1,.441.175c.385.359.785.713,1.171,1.056.537.476,1.092.968,1.617,1.48l.061.06a4.51,4.51,0,0,1,.931,1.3,1.217,1.217,0,0,1-.184,1.443A1.137,1.137,0,0,1,71.1,87.068Zm-21-18.235a2,2,0,0,1-1.346-.556,2.47,2.47,0,0,1-.732-1.265,1.841,1.841,0,0,1,.089-1.142,1.743,1.743,0,0,1,.9-.881,38.136,38.136,0,0,1,4.434-1.8c.257-.082.512-.168.758-.252a9.368,9.368,0,0,1,3.029-.672,4.838,4.838,0,0,1,.495.025.621.621,0,0,1,.49.319.512.512,0,0,1-.02.5,8,8,0,0,1-2.54,2.464l0,0c-.159.114-.323.232-.485.351l-.1.075a37.127,37.127,0,0,1-3.97,2.553A2.029,2.029,0,0,1,50.1,68.833Zm35.7-5.278a1.572,1.572,0,0,1-.549-.105c-1.99-.742-4.129-1.532-6.287-2.276a.7.7,0,0,1-.438-.783.546.546,0,0,1,.559-.484H79.1l.041,0c2.253.148,4.48.246,6.551.33a1.6,1.6,0,0,1,1.2.529,1.633,1.633,0,0,1,.355,1.09A1.6,1.6,0,0,1,85.807,63.556ZM27.941,58.327h-.074a9.163,9.163,0,0,1-4.38-1.569,7.051,7.051,0,0,1-1.517-1.2,13.928,13.928,0,0,1-1.225-1.507.435.435,0,0,1-.05-.449.667.667,0,0,1,.521-.371c.282-.029.57-.072.848-.115.357-.054.726-.11,1.088-.136.073-.005.15-.008.229-.008a7.472,7.472,0,0,1,.972.086c.165.022.335.044.5.061l.6.059a11.792,11.792,0,0,1,3.593.782,1.847,1.847,0,0,1,1,.978,2.267,2.267,0,0,1,.109,1.347A2.8,2.8,0,0,1,29.4,57.7,2.057,2.057,0,0,1,27.941,58.327Zm100.936-5.606a1.4,1.4,0,0,1-.678-.175,1.72,1.72,0,0,1-.581-.533,2.694,2.694,0,0,1-.448-1.05,3.121,3.121,0,0,1,0-1.082,6.6,6.6,0,0,1,.8-2.092l.213-.383a9.962,9.962,0,0,1,1.38-1.988l.01-.059a1.827,1.827,0,0,1,.585-1.18A1.583,1.583,0,0,1,131.2,43.8a1.62,1.62,0,0,1,1.24.557,1.706,1.706,0,0,1,.345,1.436,14.209,14.209,0,0,1-.935,3.266,14.533,14.533,0,0,1-1.679,2.954A1.619,1.619,0,0,1,128.877,52.721Zm-85.4-13.5a2.028,2.028,0,0,1-1.152-.343,1.537,1.537,0,0,1-.65-1.021l-.032-.179-.028-.151a4.4,4.4,0,0,1-.073-1.959,6.25,6.25,0,0,1,.605-1.313v0l.113-.2.055-.1a8.552,8.552,0,0,1,.971-1.413,12.1,12.1,0,0,1,1.2-1.237,1.138,1.138,0,0,1,.755-.282,1.059,1.059,0,0,1,.607.184.9.9,0,0,1,.361.553,10.008,10.008,0,0,1,.236,3.511c-.02.138-.037.282-.054.421a5.453,5.453,0,0,1-.309,1.457,4.833,4.833,0,0,1-1.166,1.49l-.065.064A1.96,1.96,0,0,1,43.478,39.218ZM124.333,37a2.655,2.655,0,0,1-1.666-.846l-.082-.069a6.623,6.623,0,0,0-1.787-1.052.766.766,0,0,1-.469-.853.62.62,0,0,1,.652-.509h0l.2,0a8.822,8.822,0,0,1,2.72.446c1.05.392,1.585,1.008,1.591,1.832a1.05,1.05,0,0,1-.216.629.969.969,0,0,1-.548.374A1.749,1.749,0,0,1,124.333,37Z" transform="translate(10.142 -4.227)"/>
  </g>
  <g id="HEAD" transform="translate(78.592 38.043)">
    <path id="_Skin-2" data-name="âœ‹ Skin" d="M80.971,37.211c-.783-6.26-3.241-12.907-5.826-18.744C69.332,6.128,56.023,4.429,44.093,1.885,32.32.166,19.853-1.385,8.257,2.043,1.738,3.644-.808,11.427.221,17.569c.587,3.827,2.325,7.45,3.807,11a61.7,61.7,0,0,1,4.817,22.97c-.2,5.154-.928,11.037,4.98,13.22,5.622,2.8,6.1,10.4,13.137,14.711,2.847,5.78,10.6,6.289,16.181,7.63,3.527.677,7.094,1.175,10.671,1.5,10.357,1.33,18.642-1.678,24.064-10.927,3.628-5.629,6.33-12.128,5.662-18.95C82.875,51.532,81.768,44.386,80.971,37.211Z" transform="translate(5.06 16.063)" fill="#d08b5b"/>
    <path id="_Ink-2" data-name="ðŸ– Ink" d="M62.006,104.21a28.118,28.118,0,0,1-6.681-.785,22.637,22.637,0,0,1-6.147-2.461,1.35,1.35,0,0,1-.692-1.566,1.635,1.635,0,0,1,.541-.827,1.505,1.505,0,0,1,.962-.351,1.637,1.637,0,0,1,.695.161,36.156,36.156,0,0,0,4.937,1.918,23.785,23.785,0,0,0,5.2.971c.627.044,1.261.067,1.886.067a25.819,25.819,0,0,0,8.459-1.409,23.514,23.514,0,0,0,3.958-1.8A25.038,25.038,0,0,0,78.7,95.647a26.271,26.271,0,0,0,5.66-6.578,24.82,24.82,0,0,0,3.127-7.911,28.878,28.878,0,0,0,.536-5.312c.025-1.539-.034-3.188-.193-5.346l-.018-.242c-.611-8.081-1.342-14.581-2.3-20.454-.479-2.94-1.1-5.925-1.842-8.873-.726-2.878-1.59-5.8-2.569-8.685A10.451,10.451,0,0,0,78.577,30.6c-2.551-.107-5.13-.161-7.666-.161-4.121,0-8.272.143-12.34.425A166.877,166.877,0,0,0,41.631,32.9l-.6.106c-.277.049-.565.095-.845.139a12.451,12.451,0,0,0-2.946.711,2.463,2.463,0,0,0-1.113.919,4.253,4.253,0,0,0-.55,1.359,39.44,39.44,0,0,0-.831,7.791l-.01.247c-.046,1.125-.026,2.274-.007,3.384.025,1.438.05,2.924-.066,4.376a12.553,12.553,0,0,1-.627,3.181,7.879,7.879,0,0,1-.681,1.456,6.493,6.493,0,0,1-1.009,1.279A9.321,9.321,0,0,1,30.413,59.2c-.293.169-.595.344-.887.532a1.858,1.858,0,0,0-.666.648,1.484,1.484,0,0,0-.139.9,9.036,9.036,0,0,0,.327,1.442c.362,1.281.735,2.606-.315,3.6a.726.726,0,0,1-.5.194.615.615,0,0,1-.46-.194,9.542,9.542,0,0,0-1.573-1.276c-.193-.135-.391-.274-.578-.413a.292.292,0,0,1-.12-.331.282.282,0,0,1,.268-.2.345.345,0,0,1,.141.032c.213.1.433.2.646.3.236.114.479.232.723.34a6.194,6.194,0,0,0-1.784-.983,12.761,12.761,0,0,0-1.926-.531,6.647,6.647,0,0,0-1.3-.128c-.2,0-.4.009-.6.027-.495.237-1,.456-1.438.64-.556.234-1.163.468-1.857.715a7.73,7.73,0,0,0-2.355,3.338,8.229,8.229,0,0,0-.392,4.121,7.734,7.734,0,0,0,.742,2.317,4.838,4.838,0,0,0,1.567,1.832,6.573,6.573,0,0,0,2.967.844,8.255,8.255,0,0,1,2.491.566,5.549,5.549,0,0,1,2,1.6,10.792,10.792,0,0,1,1.337,2.212l.307.649a26.784,26.784,0,0,0,2.318,4.146A20.706,20.706,0,0,0,33.2,90.2a19.575,19.575,0,0,0,2.216,1.538l.211.125a2.21,2.21,0,0,1,1.391,1.866.959.959,0,0,1-.47.822,1.68,1.68,0,0,1-.924.277,4.214,4.214,0,0,1-2.165-.953l0,0-.246-.166A24.282,24.282,0,0,1,30.2,91.341a23.319,23.319,0,0,1-4.514-5.717,17.913,17.913,0,0,1-.819-1.762,9.042,9.042,0,0,0-2.029-3.376,4.615,4.615,0,0,0-2.673-.85c-.173-.018-.351-.037-.524-.06a7.863,7.863,0,0,1-2.875-.843c-3.67-2.044-4.709-6.988-3.837-10.815a11.366,11.366,0,0,1,.609-1.877,1.811,1.811,0,0,1-.3.024,2.3,2.3,0,0,1-1.833-1,1.732,1.732,0,0,1-.217-1.64c.031-.078.065-.154.1-.228v0l.038-.083a4.7,4.7,0,0,1-1.948-2.671,4.257,4.257,0,0,1-.107-1.818A2.945,2.945,0,0,1,8.245,57.43a3.636,3.636,0,0,1-1.752-1.557,3,3,0,0,1-.38-1.427,2.951,2.951,0,0,1,.321-1.3c-.056-.1-.112-.209-.164-.317a5.438,5.438,0,0,1-1.8-1.866,4.446,4.446,0,0,1-.188-4.134c-.022-.072-.04-.133-.055-.186a4.913,4.913,0,0,1-2.64-3.066,4.033,4.033,0,0,1,0-2.056,4.868,4.868,0,0,1,.926-1.812A3.715,3.715,0,0,1,.948,35.525a5.214,5.214,0,0,1,1.075-2.132.508.508,0,0,0-.009-.051v-.006l-.118-.092C.059,31.792-.446,30.195.394,28.5a4.24,4.24,0,0,1,1.765-1.877l.036-.114a5.163,5.163,0,0,1-.335-3.637,4.125,4.125,0,0,1,.709-1.429,4.5,4.5,0,0,1,1.152-1.052,5.2,5.2,0,0,1,.044-1.539,4.017,4.017,0,0,1,.454-1.294,3.774,3.774,0,0,1,.841-1.028c.023-.112.053-.231.093-.364A6.523,6.523,0,0,1,6.3,14.031a1.782,1.782,0,0,1,1.419-.691,5.139,5.139,0,0,1,.958-3.4,4.3,4.3,0,0,1,1.679-1.4,3.215,3.215,0,0,1,1.334-.284,3.492,3.492,0,0,1,.374.02A3.446,3.446,0,0,1,13.1,7.007a3.312,3.312,0,0,1,1.538-.633,4.624,4.624,0,0,1,.645-.046,4.114,4.114,0,0,1,.6.044,7.205,7.205,0,0,1,.679-.275c.153-.054.3-.1.472-.156a4.945,4.945,0,0,1,2.055-1.513,3.833,3.833,0,0,1,1.4-.266,3.981,3.981,0,0,1,1.364.245l.272-.057a3.217,3.217,0,0,1,.843-.966,3.569,3.569,0,0,1,1.306-.606,3.281,3.281,0,0,1,.789-.1,4.132,4.132,0,0,1,2.545.958h0a.035.035,0,0,0,.013,0,3.243,3.243,0,0,1,.974-1.3,2.6,2.6,0,0,1,1.608-.505l.136,0a3.015,3.015,0,0,1,1.231.324,3.883,3.883,0,0,1,1.033.761c.34-.043.674-.08,1.014-.118a8.849,8.849,0,0,1,1.2-1.167,1.642,1.642,0,0,1,1.026-.389,1.373,1.373,0,0,1,1.164.672c.114.174.221.353.325.527l.006.01.487-.034a3.443,3.443,0,0,1,1.027-.946,2.985,2.985,0,0,1,1.4-.4l.114,0a2.6,2.6,0,0,1,2.1,1.118c.4-.01.832-.018,1.307-.025A7.989,7.989,0,0,1,45.565.629a1.3,1.3,0,0,1,.7-.191,1.439,1.439,0,0,1,1.023.413,11.276,11.276,0,0,1,.8.934A4.384,4.384,0,0,1,50.506.414,1.17,1.17,0,0,1,51.4,0a1.735,1.735,0,0,1,1.156.5A4.109,4.109,0,0,1,53.6.977,11.606,11.606,0,0,1,55.08.893c.239,0,.491.005.773.015a3.928,3.928,0,0,1,.573-.264A4.443,4.443,0,0,1,57.955.36a4.133,4.133,0,0,1,2.332.742A2.615,2.615,0,0,1,62.133.343c.054,0,.11,0,.165,0a2.3,2.3,0,0,1,.977.271,3.158,3.158,0,0,1,.759.588,2.757,2.757,0,0,1,.881-.819A2.8,2.8,0,0,1,66.142.014c.1-.007.2-.01.294-.01a5.31,5.31,0,0,1,3.239,1.232A3.049,3.049,0,0,1,71.985.154a3.728,3.728,0,0,1,.666-.059A3.873,3.873,0,0,1,73.774.26,4.9,4.9,0,0,1,75.9,1.582,4.442,4.442,0,0,1,78.957.162c.082,0,.166,0,.248.009a4.011,4.011,0,0,1,2.225.907,5.029,5.029,0,0,1,1.458,1.949,9.263,9.263,0,0,1,1.613.833,7.888,7.888,0,0,1,1.42,1.183c.03.031.06.064.089.1l0,0,.046.051a4.4,4.4,0,0,1,1.3.742,3.423,3.423,0,0,1,1.162,1.821A4.2,4.2,0,0,1,88.452,9.9c.051.207.1.431.15.706a3.8,3.8,0,0,1,2.791,1.926,4.575,4.575,0,0,1,.522,2.46,5.257,5.257,0,0,1-.228,1.259,4.986,4.986,0,0,1-.522,1.151,6.518,6.518,0,0,1-1.4,1.576,3.864,3.864,0,0,1,.265,2.187,4,4,0,0,1-.932,1.988,5.4,5.4,0,0,1-.866,1.055,3.232,3.232,0,0,1-.168,2.1,3.425,3.425,0,0,1-1.416,1.594l-.111.279c-.021.053-.04.1-.057.138s-.03.108-.045.16l0,.014a2.844,2.844,0,0,1-.531,1.483,11.54,11.54,0,0,1-.76.938,6.1,6.1,0,0,0-1.213,1.788l-.045.119A1.213,1.213,0,0,1,82.8,33.6a.878.878,0,0,1-.261-.039A48.548,48.548,0,0,1,84.5,38.212c.548,1.514,1.059,3.14,1.519,4.834a95.765,95.765,0,0,1,2.064,9.9c.494,3.086.908,6.329,1.265,9.915l.324,3.3c.272,2.808.538,5.8.54,8.828a31.9,31.9,0,0,1-1.457,9.7,28.125,28.125,0,0,1-11.4,15.06,27.267,27.267,0,0,1-4.132,2.222,26.494,26.494,0,0,1-4.481,1.473A29.882,29.882,0,0,1,62.006,104.21ZM19.589,30.386a.637.637,0,0,0-.621.431,2.363,2.363,0,0,0,.016,1.7,2.233,2.233,0,0,0,1.185,1.208.839.839,0,0,0,.333.073.6.6,0,0,0,.532-.3.691.691,0,0,0,.048-.541.513.513,0,0,0-.274-.326,1.045,1.045,0,0,1-.639-1.422l.018-.053a.527.527,0,0,0-.047-.5A.672.672,0,0,0,19.589,30.386ZM9.167,28h0a.628.628,0,0,0-.419.167,2.888,2.888,0,0,0-.694.879,1.859,1.859,0,0,0-.186,1.091A2.55,2.55,0,0,0,9.24,31.9a.614.614,0,0,0,.32.1.568.568,0,0,0,.377-.148.728.728,0,0,0,.219-.349.591.591,0,0,0-.276-.693L9.8,30.756a1.263,1.263,0,0,1-.684-.79c-.054-.392.295-.7.526-.905a.536.536,0,0,0,.168-.613A.712.712,0,0,0,9.167,28Zm3.684-9.728h0a.569.569,0,0,0-.332.117,2.383,2.383,0,0,0-1.149,1.783,2.6,2.6,0,0,0,.839,1.951.574.574,0,0,0,.42.2.685.685,0,0,0,.6-.422.6.6,0,0,0-.125-.669,1.337,1.337,0,0,1-.445-.986,1.027,1.027,0,0,1,.456-.725l.043-.032a.656.656,0,0,0,.242-.753.609.609,0,0,0-.548-.459ZM24.59,72.553a1.419,1.419,0,0,1-1.151-.58c-.175-.23-.341-.464-.5-.69h0a11.19,11.19,0,0,0-1.381-1.69,7.913,7.913,0,0,0-.776-.624,3.8,3.8,0,0,1-1.322-1.359.057.057,0,0,1,.021-.08,1.809,1.809,0,0,1,.909-.225,5.62,5.62,0,0,1,2.352.75,7.7,7.7,0,0,1,3.025,2.557,1.172,1.172,0,0,1,.1,1.232A1.471,1.471,0,0,1,24.59,72.553Z" transform="translate(-1.264 2.536)"/>
  </g>
  <g id="FACE" transform="translate(112.183 77.354)">
    <path id="_Ink-3" data-name="ðŸ– Ink" d="M22.284,42.309a2.544,2.544,0,0,1-1.883-.854,3,3,0,0,1-.572-.911A3.117,3.117,0,0,1,19.6,39.45a5.031,5.031,0,0,1,1.89-3.595,11.016,11.016,0,0,1,2.861-2.015,6.594,6.594,0,0,1,1.465-.52,4.693,4.693,0,0,1,.744-.076,4.025,4.025,0,0,0,.847-.1.148.148,0,0,1,.039-.005.17.17,0,0,1,.153.112.139.139,0,0,1-.038.158,4.438,4.438,0,0,0-.827,1.213c-.119.221-.23.429-.349.612-.327.506-.673,1.052-.982,1.62a18.116,18.116,0,0,0-.934,1.911l-.052.134c.056.134.1.267.143.375.016.044.031.086.044.123l.013.035a1.686,1.686,0,0,1,.11.753,2.02,2.02,0,0,1-.2.724,2.516,2.516,0,0,1-1.476,1.287A2.657,2.657,0,0,1,22.284,42.309Zm1.672-4.063h0a.869.869,0,0,1,.346.4A.634.634,0,0,0,23.956,38.246Zm1.228-10.722h0a7.373,7.373,0,0,1-2.63-.53,13.281,13.281,0,0,1-3.093-1.756,1.189,1.189,0,0,1-.432-.687,1.423,1.423,0,0,1,.061-.771,1.754,1.754,0,0,1,.521-.753,1.267,1.267,0,0,1,.811-.317,1.151,1.151,0,0,1,.628.193l.212.163A16.743,16.743,0,0,0,23.2,24.413a4.768,4.768,0,0,0,2.321.74,2.505,2.505,0,0,0,.981-.193,2.741,2.741,0,0,0,.913-.647,2.8,2.8,0,0,0,.531-2.255,4.261,4.261,0,0,0-1.13-2A8.242,8.242,0,0,0,25.1,18.676a.531.531,0,0,1-.143-.61.8.8,0,0,1,.264-.38.809.809,0,0,1,.505-.167,1.076,1.076,0,0,1,.182.016,5.736,5.736,0,0,1,2.018.729,4.577,4.577,0,0,1,1.357,1.252,4.974,4.974,0,0,1,.866,3.322,5.475,5.475,0,0,1-.444,1.744,5.088,5.088,0,0,1-1,1.5A4.779,4.779,0,0,1,25.184,27.524Zm-16.349-12a1.585,1.585,0,0,1-1.208-.494,2.622,2.622,0,0,1-.741-1.69,2.3,2.3,0,0,1,.059-.519l-.745.013c-.448.007-.818.01-1.164.01a26.411,26.411,0,0,1-4.29-.284.5.5,0,0,1-.1.01.582.582,0,0,1-.408-.184.821.821,0,0,1-.223-.424A.658.658,0,0,1,.467,11.2,29,29,0,0,1,7.848,9.732l.218-.024c1.2-.133,2.429-.23,3.616-.323l.307-.024.282-.024.411-.038c.58-.054,1.18-.11,1.769-.11a6.6,6.6,0,0,1,1.486.152A1.464,1.464,0,0,1,16.8,9.9a1.606,1.606,0,0,1,.3.915,1.826,1.826,0,0,1-.284,1.032,1.556,1.556,0,0,1-.886.663,8.313,8.313,0,0,1-2.264.254c-.291,0-.585-.006-.868-.013s-.569-.013-.855-.013h-.167l-.413.007-.231,0a3.226,3.226,0,0,1-.466,1.391,6.941,6.941,0,0,1-.649.9A1.535,1.535,0,0,1,8.834,15.528Zm24.4-1.445a1.723,1.723,0,0,1-1.359-.705,1.4,1.4,0,0,1-.227-1.269l.016-.048c.035-.1.068-.2.1-.315s.061-.195.095-.293l-.377-.032a9.447,9.447,0,0,1-1.822-.3,3.019,3.019,0,0,1-.785-.346,1.349,1.349,0,0,1-.5-.549.653.653,0,0,1,.1-.748c.691-.823,2.267-.951,3.418-1.044.166-.013.322-.026.466-.04l.065-.006c.3-.031.617-.067.921-.1h0a26.449,26.449,0,0,1,2.969-.228,10,10,0,0,1,1.02.048,1.99,1.99,0,0,1,1.331.643,1.84,1.84,0,0,1,0,2.4,1.989,1.989,0,0,1-1.33.643,10.135,10.135,0,0,1-1.028.049c-.49,0-1.018-.028-1.665-.087a1.687,1.687,0,0,1-.033,1.52,1.558,1.558,0,0,1-1.177.8A1.477,1.477,0,0,1,33.235,14.083ZM3.293,6.343a6.618,6.618,0,0,1-2.266-.316l0-.006a.352.352,0,0,1-.087-.632A9.033,9.033,0,0,1,3.823,4.25c.226-.061.439-.119.651-.18,1.115-.322,2.276-.632,3.551-.948.452-.112.917-.224,1.365-.332h0a57.794,57.794,0,0,0,6.139-1.724,1.618,1.618,0,0,1,.554-.1A1.887,1.887,0,0,1,17.36,1.5a2.092,2.092,0,0,1,.656,1.222,1.871,1.871,0,0,1-.349,1.42A2.017,2.017,0,0,1,17,4.694a2.592,2.592,0,0,1-.882.275l-.058.007c-1.3.143-2.618.35-3.892.551-1.226.193-2.494.392-3.746.535-1.194.136-2.37.22-3.5.25l-.835.019C3.808,6.337,3.552,6.343,3.293,6.343ZM33.342,4.466c-.514,0-1.032-.011-1.538-.032l-.5-.023c-.167-.007-.341-.012-.525-.017a15.776,15.776,0,0,1-2.431-.2,3.086,3.086,0,0,1-1.913-.946,1.8,1.8,0,0,1-.362-.79,2.916,2.916,0,0,1,.021-1.1,1.573,1.573,0,0,1,.66-1.023A2.028,2.028,0,0,1,27.9,0a1.94,1.94,0,0,1,1.6.754c.344.118.8.241,1.2.35.227.062.442.12.618.172.808.24,1.677.5,2.557.747,1.34.382,2.678.849,3.971,1.3.413.144.84.293,1.261.438a.151.151,0,0,1,.112.16.173.173,0,0,1-.154.152A43.946,43.946,0,0,1,33.342,4.466Z" transform="translate(10.985 11.836)"/>
  </g>
  <g id="FACIAL_HAIR" data-name="FACIAL HAIR" transform="translate(104.577 109.479)">
    <path id="_Ink-4" data-name="ðŸ– Ink" d="M40.546,57.929h0a51.449,51.449,0,0,1-9.4-.884A52.034,52.034,0,0,1,22.1,54.5a43.351,43.351,0,0,1-8.031-4.03,30.631,30.631,0,0,1-6.339-5.352A14.343,14.343,0,0,1,4.8,42.566,15.8,15.8,0,0,1,2.68,39.428a20.4,20.4,0,0,1-1.419-3.587,28.4,28.4,0,0,1-.838-3.9C-.354,26.63.089,20.894.565,15.934c.12-1.062.211-2.168.3-3.238.323-3.889.656-7.91,2.382-11.373a1.1,1.1,0,0,1,.267-.9A1.184,1.184,0,0,1,4.377,0a.836.836,0,0,1,.78.552C6.276,3.08,7.545,5.946,8.966,8.625c.753,1.419,1.489,2.68,2.251,3.854a35.587,35.587,0,0,0,2.64,3.585,16.546,16.546,0,0,0,2.179,2.418,21.753,21.753,0,0,0,2.894,2.249,16.854,16.854,0,0,0,3.231,1.659,9.222,9.222,0,0,0,3.191.647,4.731,4.731,0,0,0,3.191-1.107,6.809,6.809,0,0,0,2-3.779,8.152,8.152,0,0,1,2.449-3.033,13.6,13.6,0,0,1,3.7-2,22.576,22.576,0,0,1,4.362-1.1,29.189,29.189,0,0,1,4.439-.336,25.166,25.166,0,0,1,4.013.3,7.245,7.245,0,0,1,3.778,2.188,11.638,11.638,0,0,1,1.777,3.008,8.623,8.623,0,0,0,1.573,2.606,3.566,3.566,0,0,0,1.27.816,5.262,5.262,0,0,0,1.884.3,9.442,9.442,0,0,0,.974-.054.76.76,0,0,0,.211.03l.055,0a7.783,7.783,0,0,0,.794-1.527c.094-.217.183-.422.276-.619-.01-.052-.022-.105-.034-.157a2.426,2.426,0,0,1-.056-.311,1.832,1.832,0,0,1,.569-.553,1.454,1.454,0,0,1,.757-.209,1.865,1.865,0,0,1,.658.129,1.166,1.166,0,0,1,.078.232,71.219,71.219,0,0,1,1.7,16.724,47.77,47.77,0,0,1-.942,8.376,36.3,36.3,0,0,1-2.58,7.905,25.911,25.911,0,0,1-9.755,5.357,36.666,36.666,0,0,1-5.8,1.281A44.507,44.507,0,0,1,40.546,57.929ZM45.03,18.557a14.406,14.406,0,0,0-2.2.169,12.141,12.141,0,0,0-2.132.523,8.461,8.461,0,0,0-1.868.9,5.5,5.5,0,0,0-1.413,1.31,4.3,4.3,0,0,0-.806,1.967,5.841,5.841,0,0,0,.257,2.538,4.553,4.553,0,0,0,1.086,1.518,2.618,2.618,0,0,0,1.687.763,1.739,1.739,0,0,0,.538-.085c.667-.216,1.027-.983,1.375-1.725a5.053,5.053,0,0,1,.676-1.177,4.036,4.036,0,0,1,1.1-.8,2.43,2.43,0,0,1,1.036-.24,3.359,3.359,0,0,1,1.984.785,15.68,15.68,0,0,1,1.794,1.67c.378.389.734.756,1.088,1.072a1.49,1.49,0,0,0,.828.282,1.364,1.364,0,0,0,.985-.47,3,3,0,0,0,.747-2.063,7.1,7.1,0,0,0-.356-1.739,11.479,11.479,0,0,0-.856-1.98,6.4,6.4,0,0,0-2.844-2.948A12.673,12.673,0,0,0,45.03,18.557Z" transform="translate(-1.057 -5.706)"/>
  </g>
</svg>
