<svg id="peep-86" xmlns="http://www.w3.org/2000/svg" width="240" height="324" viewBox="0 0 240 324">
  <g id="BODY" transform="translate(31.056 135.053)">
    <path id="_Skin" data-name="âœ‹ Skin" d="M152.022,152.978h0c-1.055,0-2.122-.051-3.154-.1-.7-.033-1.364-.065-1.993-.079-4.036-.54-8.154-.924-12.591-1.172-3.969-.222-8.1-.331-12.613-.331-8.868,0-17.891.43-26.616.845h-.007c-2.951.141-6,.286-9,.412-2.1.138-4.255.205-6.587.205-5.787,0-11.654-.43-17.328-.845h-.006c-5.67-.415-11.532-.845-17.306-.845-2.588,0-4.969.083-7.279.255a153.721,153.721,0,0,1-16.631,1.207,62.7,62.7,0,0,1-7.441-.414c-1.1-.175-2.253-.284-3.366-.39h0c-1.316-.125-2.676-.253-3.983-.492a14.854,14.854,0,0,1-3.781-1.165,4.55,4.55,0,0,1-1.663-1.625A5,5,0,0,1,.043,146.4a16.86,16.86,0,0,1,.43-4.645,26.553,26.553,0,0,0,.4-2.68c.858-4.141,1.633-8.86,2.369-14.425.659-4.978,1.233-10.213,1.789-15.276h0c1.481-13.5,3.013-27.455,6.424-40.3.882-3.32,1.871-6.487,2.941-9.411a83.091,83.091,0,0,1,3.819-8.868,67.042,67.042,0,0,1,4.871-8.186,58.338,58.338,0,0,1,6.094-7.365A58.671,58.671,0,0,1,35.837,30.3a39.233,39.233,0,0,1,6.242-3.2c4.267-1.722,8.842-2.725,14.839-3.954a47.22,47.22,0,0,0,5.871-1.673c2.03-.712,4.692-1.8,5.848-2.909a26,26,0,0,0,2.955-3.794l.108-.157A28.974,28.974,0,0,0,74,10.084a31.7,31.7,0,0,1,2.053-4.141,12.005,12.005,0,0,1,1.373-1.815,9.369,9.369,0,0,1,1.79-1.512A24.351,24.351,0,0,1,90.591,0a21.691,21.691,0,0,1,5.5.656,11.6,11.6,0,0,1,4.422,2.115,11.317,11.317,0,0,1,2.062,2.389,14.162,14.162,0,0,1,1.356,2.724,38.1,38.1,0,0,1,1.54,6.031c.291,1.466.592,2.981,1.007,4.429a17.619,17.619,0,0,0,1.717,4.149,19.081,19.081,0,0,0,6.887,4.186,91.441,91.441,0,0,0,8.732,2.81c2.218.633,4.312,1.231,6.019,1.867,1.232.515,5.893,4.359,7.163,5.519a17.457,17.457,0,0,1,2.151,2.566,24.523,24.523,0,0,1,1.8,3.075,42.266,42.266,0,0,1,2.719,7.316A146.487,146.487,0,0,1,146.952,66.6c.728,4.655,1.416,9.052,2.365,12.686,2.2,12.746,3.933,23.29,5.451,33.183,1.84,11.994,3.341,22.89,4.587,33.311a8.812,8.812,0,0,1,.243,3.1,3.923,3.923,0,0,1-2.055,3.1,6.6,6.6,0,0,1-1.607.618A16,16,0,0,1,152.022,152.978ZM4.889,145.707c-.051.01-.1.036-.1.06s.023.036.151.036H4.98l-.055-.057Z" transform="translate(6.972 -7.609)" fill="#d08b5b"/>
    <path id="_Ink" data-name="ðŸ– Ink" d="M161.061,150.76a2.447,2.447,0,0,1-1.619-.573,2.512,2.512,0,0,1-.8-1.767,1.66,1.66,0,0,1,.49-1.365l0-.05c0-.024-.005-.043-.007-.054v-.008c-.074-.4-.112-.82-.149-1.226-.018-.2-.036-.4-.058-.6-.1-.882-.2-1.774-.3-2.637l-.012-.1q-.063-.552-.125-1.105c-.267-2.319-.555-4.812-.858-7.327-.6-5-1.234-9.992-1.886-14.839l-.659-4.886c-.991-7.319-2.177-15.944-3.458-24.411-1.356-8.967-2.688-16.921-4.072-24.314-.808-4.311-1.662-8.745-2.539-13.18-.5-2.5-.913-4.412-1.356-6.209-.553-2.244-1.134-4.239-1.775-6.1a39.887,39.887,0,0,0-4.631-9.344,33.575,33.575,0,0,0-7.046-7.655c.049.476.091.961.131,1.429v0c.029.34.06.692.093,1.038.208,2.189.434,4.415.63,6.33.436,4.249.908,7.99,1.444,11.436.634,4.077,1.358,7.776,2.215,11.309a96.109,96.109,0,0,0,3.325,10.927c.674,1.8,1.4,3.553,2.159,5.2.22.476.481.952.758,1.456a9.426,9.426,0,0,1,1.465,3.906,1.414,1.414,0,0,1-.422,1.034,1.64,1.64,0,0,1-1.15.521,1.269,1.269,0,0,1-.14-.008c.36,3.173.579,6.414.791,9.547l.058.853c.121,1.767.235,3.565.346,5.3v.026c.2,3.169.409,6.446.667,9.663.749,9.386,1.709,18.811,2.548,26.793.162,1.545.34,3.115.512,4.633v0l0,.036.071.63.167,1.484.015.129,0,.021a4.516,4.516,0,0,1-.245,2.818,14.619,14.619,0,0,1,.951,3.411,3.134,3.134,0,0,1-.056,1.24,2.647,2.647,0,0,1-.539,1.072,2.08,2.08,0,0,1-1.63.737l-.1,0c-.172-.006-.357-.02-.583-.044a21.857,21.857,0,0,1-4.817.7c-.291,0-.6,0-.92,0-1.116,0-2.251-.013-3.349-.025-.668-.008-1.359-.015-2.047-.02h-.026c-3.752-.025-8-.054-12.187-.088-5-.04-10.075-.066-14.987-.092h-.02c-9.574-.049-19.474-.1-29.211-.257l-5.9-.094c-4.915-.079-10.626-.18-16.213-.384-4.148-.151-7.633-.28-11.159-.423l-.757-.029-1.122-.039h-.021a73.242,73.242,0,0,1-8.667-.643.118.118,0,0,1-.078-.049.168.168,0,0,1-.026-.123l0-.02-.142-.032a.067.067,0,0,1-.073.053,1.868,1.868,0,0,1-.815-.574,4.276,4.276,0,0,1-.617-.783,1.633,1.633,0,0,1-.275-.824,4.033,4.033,0,0,1-.36-2.865c.023-.213.044-.414.058-.6.048-.671.1-1.351.158-2.01l0-.022c.03-.359.06-.731.089-1.1.081-1.025.157-2.068.232-3.076v-.014c.086-1.176.176-2.393.272-3.588.833-10.318,1.391-18.886,1.756-26.964.169-3.735.313-7.533.452-11.206v0q.045-1.2.091-2.394c.1-2.51.215-4.417.389-6.184l.053-.513c.053-.5.093-1.015.131-1.516v0a16.635,16.635,0,0,1,.836-4.769.03.03,0,0,1,.057,0,18.131,18.131,0,0,1,.955,5.521c.016.233.033.473.05.707.02-.006.04-.01.061-.014l.023,0c.231-.11.466-.219.694-.325a23.019,23.019,0,0,0,2.473-1.273c.09-.055.18-.114.267-.17h0l.138-.089c1.006-3.079,2.131-6.176,3.219-9.172.638-1.755,1.3-3.57,1.925-5.363,1.359-3.879,2.591-7.895,3.661-11.937,1.057-3.992,1.982-8.1,2.748-12.214A174.735,174.735,0,0,0,53.488,16.2a106.571,106.571,0,0,1-10.282,5.6c-.956.476-1.944.969-2.912,1.461l-.416.212a50.78,50.78,0,0,0-6.306,3.711,25.865,25.865,0,0,0-5.362,4.942,31.509,31.509,0,0,0-3.467,5.509c-.982,1.932-1.826,3.917-2.676,5.951C20.378,47.628,18.744,52,17.211,56.568c-1.447,4.315-2.787,8.849-3.985,13.475-1.137,4.391-2.18,9-3.1,13.708C9.254,88.2,8.482,92.8,7.83,97.415c-.632,4.476-1.171,9.106-1.6,13.762-.474,5.136-.853,9.749-1.16,14.1-.155,2.18-.3,4.519-.458,7.152-.027.47-.052.94-.076,1.4-.036.682-.073,1.387-.118,2.081-.007.1-.013.2-.019.3v.006a6.282,6.282,0,0,1-.255,1.68,5.436,5.436,0,0,1-.667,1.216l-.146.222a1.525,1.525,0,0,1-.576.515,1.606,1.606,0,0,1-.737.183,1.272,1.272,0,0,1-1.167-.7L.623,138.9a4.646,4.646,0,0,1-.613-1.834,10.916,10.916,0,0,1,.042-1.428c.012-.166.025-.337.034-.5.072-1.326.156-2.674.23-3.863.175-2.8.366-5.531.568-8.12.428-5.521.981-10.977,1.641-16.217.645-5.1,1.308-9.741,2.027-14.177.808-4.986,1.665-9.587,2.62-14.068C8.2,73.873,9.347,69.2,10.581,64.8c1.323-4.711,2.8-9.3,4.391-13.634.839-2.286,1.711-4.516,2.593-6.627.938-2.244,1.917-4.429,2.91-6.494a38.621,38.621,0,0,1,3.449-5.912A26.555,26.555,0,0,1,26.088,29.5a22.3,22.3,0,0,1,2.532-2.315,34.7,34.7,0,0,1,5.373-3.376c1.851-.962,3.782-1.821,5.763-2.689l.484-.212c.749-.327,1.5-.662,2.234-.986a103.074,103.074,0,0,1,10.987-4.372,1.488,1.488,0,0,0-.287.055.1.1,0,0,1-.03,0,.09.09,0,0,1-.082-.057.107.107,0,0,1,.015-.115,3.091,3.091,0,0,0,.283-.381,2.581,2.581,0,0,1,.379-.479c.192-.182.4-.364.636-.555l.315-.251a4.943,4.943,0,0,1,1.906-1.084,1.411,1.411,0,0,1,.3-.034.975.975,0,0,1,.834.425,1.139,1.139,0,0,1,.107,1.046.323.323,0,0,1,.262-.114.412.412,0,0,1,.387.243c1.124,2.9,2.137,5.908,3.116,8.816s1.991,5.915,3.116,8.819a69.248,69.248,0,0,0,3.892,8.492c3.8,6.885,8.446,12.048,13.813,15.346a28.542,28.542,0,0,0,5.112,2.51,19.874,19.874,0,0,0,5.549,1.212c.337.021.678.032,1.014.032a15.907,15.907,0,0,0,4.439-.632,16.718,16.718,0,0,0,4.114-1.837,22.227,22.227,0,0,0,3.854-3.041,29.254,29.254,0,0,0,3.209-3.759,47.368,47.368,0,0,0,4.816-8.62,84.9,84.9,0,0,0,3.687-10,88.81,88.81,0,0,0,2.437-10.387h-.169A13.93,13.93,0,0,1,114.9,20a13.612,13.612,0,0,1-4.631-3.313,12.757,12.757,0,0,1-2.835-5.254,8.545,8.545,0,0,1-.283-2.751,10.1,10.1,0,0,1,.587-2.687.109.109,0,0,1,.1-.071.085.085,0,0,1,.087.071,26.221,26.221,0,0,0,1.625,4.726,13.442,13.442,0,0,0,2.689,3.992,11.471,11.471,0,0,0,4.027,2.667,13.051,13.051,0,0,0,4.759.856l.08,0c.01-.07.02-.141.03-.21v0l.018-.125.023-.169a2.112,2.112,0,0,1,.665-1.347,1.777,1.777,0,0,1,1.172-.432,1.889,1.889,0,0,1,1.064.329,1.772,1.772,0,0,1,.691.949c.3.1.557.177.815.264l.054.02c.1.038.255.106.434.184a6.525,6.525,0,0,0,1.7.587.251.251,0,0,0,.146-.034.855.855,0,0,1,.506-.17,1.266,1.266,0,0,1,1.066.809,9.543,9.543,0,0,1,.512,2.55c.021.2.042.38.065.565l.017.132.019.159a19.264,19.264,0,0,1,10.509,7.437,33,33,0,0,1,3.416,5.7,45.9,45.9,0,0,1,2.372,6.117,130.653,130.653,0,0,1,3.116,13.235l.049.245c.569,2.856,1.12,5.764,1.653,8.576v.013c.369,1.947.751,3.961,1.135,5.939,2.145,11.039,3.775,20.156,5.13,28.693l.442,2.786c1.559,9.859,2.819,18.139,3.9,26.5.564,4.366,1.137,9.06,1.753,14.349.1.842.2,1.7.3,2.562l.147,1.282c.014.121.029.243.043.361v0a9.965,9.965,0,0,1,.108,1.523,3.331,3.331,0,0,1-.367,1.476,3.142,3.142,0,0,1-2.751,1.668ZM61.47,15.637a3.971,3.971,0,0,1-2.181-.521.1.1,0,0,1-.048-.084.1.1,0,0,1,.048-.087,5.14,5.14,0,0,1,1.83-.664h0c.24-.054.487-.111.719-.177a22.824,22.824,0,0,0,2.713-.941,21.413,21.413,0,0,0,4.861-2.9A20.964,20.964,0,0,0,71.55,8.336a13.647,13.647,0,0,0,1.768-2.262,26.56,26.56,0,0,0,1.331-2.521,12.194,12.194,0,0,0,.466-1.178A9.572,9.572,0,0,1,75.73.908,1.742,1.742,0,0,1,76.418.23,1.918,1.918,0,0,1,77.335,0a1.964,1.964,0,0,1,.734.141,1.669,1.669,0,0,1,.943.9,2.416,2.416,0,0,1,.141,1.31A9.5,9.5,0,0,1,77.843,5.4l-.081.141A16.707,16.707,0,0,1,75.714,8.3a23.587,23.587,0,0,1-4.741,4.238,18.751,18.751,0,0,1-5.907,2.551l-.5.116A14.535,14.535,0,0,1,61.47,15.637Z" transform="translate(4.648 0.423)"/>
  </g>
  <g id="HEAD" transform="translate(78.592 38.043)">
    <path id="_Skin-2" data-name="âœ‹ Skin" d="M64.781,45.613C64.426,29,60.3,10.618,46.149.355a2.433,2.433,0,0,0-3,.41A2.232,2.232,0,0,0,41.6,1.942q-12.55,22.964-26.42,45.169C9.241,56.676,2.03,66.253,1.079,77.847c-.165.219-1.693,1.949-.8,1.823a6.785,6.785,0,0,1,1.221-.5,2.487,2.487,0,0,0,4.379-.472,23.926,23.926,0,0,1,6.366,1.259C17.3,81.54,22.437,83.108,27.6,84.32c17,4.522,35.262-1.232,36.62-21.1,1.824-2.577.837-14.062.564-17.61Z" transform="translate(21.082 19.444)" fill="#d08b5b"/>
    <path id="_Ink-2" data-name="ðŸ– Ink" d="M99.917,97c-2.405-11.32-3.948-22.786-5.329-34.266-.668-5.561-1.2-11.136-1.82-16.7a104.292,104.292,0,0,0-2.6-15.433,45.047,45.047,0,0,0-5.791-13.382A39.487,39.487,0,0,0,75,7.454,36.884,36.884,0,0,0,49.541.179a33.4,33.4,0,0,0-4.033.683c.424-.125.852-.241,1.284-.342.139-.034.077-.221-.059-.209C10.16,3.642,1.558,67.4.776,80.26q-.092,1.5-.145,3c-.274,2.23-.479,4.466-.576,6.708a57.99,57.99,0,0,0,.181,7.769,24.07,24.07,0,0,0,1.624,7.784c.674,1.5,32.129-.554,32.454-2.321A45.931,45.931,0,0,0,35.1,92.32a32.785,32.785,0,0,0-.647-5.17,12.639,12.639,0,0,0-.48-2.029C36.843,79.656,40,74.346,43.248,69.1,50.009,58.172,57.2,47.448,62.723,35.811c2.77-5.831,5.5-12.023,6.807-18.413l.211.042a.2.2,0,0,0,.067.224c6.006,4.161,10.021,10.468,12.622,17.221a64.7,64.7,0,0,1,4.288,24.776C86.384,73.049,81.322,89.593,67,93.825a20.867,20.867,0,0,1-10.145.533A17.21,17.21,0,0,1,52.3,92.749c-1.581-.843-2.88-2.037-4.362-3.02-1.356-.9-2.956.854-2.176,2.183,1.722,2.938,5.429,4.734,8.612,5.618a23.809,23.809,0,0,0,10.438.389c.264-.045.525-.1.784-.15a4.225,4.225,0,0,0,1.039,2.441,4.149,4.149,0,0,0,.982.822,2,2,0,0,0,1.482,1.89c4.741.989,24.432-1.6,29.167-3.019A2.416,2.416,0,0,0,99.917,97" transform="translate(-1.686 8.877)"/>
  </g>
  <g id="FACE" transform="translate(112.183 77.354)">
    <path id="_Ink-3" data-name="ðŸ– Ink" d="M15.076,38.52a.512.512,0,0,1-.391-.167,1.357,1.357,0,0,1-.283-.944,12.261,12.261,0,0,1,1.255-4.186l.015-.032.1-.218a19.349,19.349,0,0,1,2.622-4.393,13.236,13.236,0,0,1,3.854-3.33,10.664,10.664,0,0,1,5.143-1.381,9.127,9.127,0,0,1,4.166.99A7.262,7.262,0,0,1,33.612,26.4a7.839,7.839,0,0,1,1.333,2.012,11.664,11.664,0,0,1,.783,2.337,21.668,21.668,0,0,1,.409,2.517,1.68,1.68,0,0,1-.542,1.368,2.262,2.262,0,0,1-1.525.676,2.039,2.039,0,0,1-1.446-.612A2.078,2.078,0,0,1,32,33.241l0-.327a7.713,7.713,0,0,0-.511-3.115,3.834,3.834,0,0,0-1.773-1.833,5.559,5.559,0,0,0-2.637-.641,7.072,7.072,0,0,0-2.993.7A12.245,12.245,0,0,0,21.155,30a21.291,21.291,0,0,0-2.416,2.6c-.573.714-1.116,1.468-1.641,2.2l-.009.013c-.213.3-.434.6-.653.9l-.141.181h0a6.253,6.253,0,0,0-1.028,1.665,1.4,1.4,0,0,0-.069.656.943.943,0,0,0,.092.281A.859.859,0,0,1,15.076,38.52ZM25.395,21.515h0a7.373,7.373,0,0,1-2.63-.53,13.281,13.281,0,0,1-3.093-1.756,1.189,1.189,0,0,1-.432-.687,1.423,1.423,0,0,1,.061-.771,1.754,1.754,0,0,1,.521-.753,1.267,1.267,0,0,1,.811-.317,1.151,1.151,0,0,1,.628.193l.209.161,0,0A16.742,16.742,0,0,0,23.409,18.4a4.768,4.768,0,0,0,2.321.74,2.505,2.505,0,0,0,.981-.193,2.741,2.741,0,0,0,.913-.647,2.8,2.8,0,0,0,.531-2.255,4.261,4.261,0,0,0-1.13-2,8.241,8.241,0,0,0-1.711-1.382.531.531,0,0,1-.143-.61.8.8,0,0,1,.264-.38.809.809,0,0,1,.505-.167,1.076,1.076,0,0,1,.182.016,5.736,5.736,0,0,1,2.018.729,4.577,4.577,0,0,1,1.357,1.252,4.974,4.974,0,0,1,.866,3.322,5.475,5.475,0,0,1-.444,1.744,5.088,5.088,0,0,1-1,1.5A4.779,4.779,0,0,1,25.395,21.515ZM10.9,13.225a1.922,1.922,0,0,1-.392-.04,2.167,2.167,0,0,1-1.19-.735,2.951,2.951,0,0,1-.585-1A1.841,1.841,0,0,1,8.7,10.3l.069-.2A2.791,2.791,0,0,1,9.1,9.464a6.1,6.1,0,0,0,.119-.955c0-.067.008-.132.013-.2a4.207,4.207,0,0,1,.2-1.1c.022-.063.048-.129.076-.2l-.2-.071h0c-.572-.2-1.009-.361-1.416-.515A42.813,42.813,0,0,1,3.951,4.716C3.314,4.4,2.682,4.034,2.095,3.688,1.829,3.511,1.18,3.055.882,2.8L.665,2.619l-.113.261A.329.329,0,0,1,.323,3a.236.236,0,0,1-.075-.013.348.348,0,0,1-.2-.184.527.527,0,0,1,.142-.637.922.922,0,0,1,.612-.194,3.34,3.34,0,0,1,.647.087l.091.018.022,0,.162.031c.716.131,1.44.29,2.054.429l.821.187.626.143.314.072A86.223,86.223,0,0,0,16.294,4.929l.383.036a2.373,2.373,0,0,1,1.605.772,1.938,1.938,0,0,1,.444,1.574,2.063,2.063,0,0,1-2.582,1.721c-1.165-.312-2.3-.635-3.377-.96l.262.623a5.067,5.067,0,0,1,.458,1.68,2.671,2.671,0,0,1-.409,1.509,2.948,2.948,0,0,1-1.194,1.1A2.223,2.223,0,0,1,10.9,13.225ZM32.77,11.586a2.4,2.4,0,0,1-1.184-.307A2.2,2.2,0,0,1,30.554,9.96a9.3,9.3,0,0,1-.4-2.631c0-.144.008-.293.018-.442a1.511,1.511,0,0,1-.334.256,1.534,1.534,0,0,1-.765.2,1.858,1.858,0,0,1-.487-.067,2.357,2.357,0,0,1-1.214-.819,1.808,1.808,0,0,1-.41-1.2,1.794,1.794,0,0,1,.523-1.143l.324-.33a2.07,2.07,0,0,1,.927-.528,1.91,1.91,0,0,1,.5-.068,1.49,1.49,0,0,1,.482.077,4.727,4.727,0,0,0,.938-.373l0,0c.177-.088.344-.171.492-.236.714-.311,1.45-.638,2.187-.973.63-.287,1.28-.556,1.909-.816C35.907.589,36.59.307,37.258,0a9.394,9.394,0,0,1-.9,1.012l-.018.019,0,0c-.676.69-1.375,1.4-2.111,2.055-.253.224-.513.449-.764.666l-.044.038-.3.26-.158.137.135.159a1.059,1.059,0,0,1,.1.134,9.232,9.232,0,0,1,.85,2.082l.008.024a14.674,14.674,0,0,0,.523,1.473l.068.151a2.6,2.6,0,0,1,.2,1.761,2.248,2.248,0,0,1-1,1.33,1.9,1.9,0,0,1-.518.22A2.558,2.558,0,0,1,32.77,11.586Z" transform="translate(11.619 15.519)"/>
  </g>
  <g id="ACCESORIES" transform="translate(88.521 88.978)">
    <path id="_Ink-4" data-name="ðŸ– Ink" d="M41.108,22.826c-.428,0-.86-.018-1.284-.055a12.675,12.675,0,0,1-4.289-1.143,13.739,13.739,0,0,1-3.263-2.146,14.8,14.8,0,0,1-2.224-2.45,10.035,10.035,0,0,1-1.17-2.058l-.051-.131c-.077-.2-.15-.406-.228-.623a9.813,9.813,0,0,0-.973-2.16,2.749,2.749,0,0,0-1.85-1.272l-.414-.074a4.881,4.881,0,0,1-1.251-.37,2.275,2.275,0,0,1-.976-.895,2.711,2.711,0,0,1-.374-1.232l-.909.067c-1.275.27-5.86.509-9.481.662-4.047.171-7.967.28-8.539.28a6.691,6.691,0,0,1-2.147.485A1.625,1.625,0,0,1,.678,9.435a1.684,1.684,0,0,1-.63-.871A1.51,1.51,0,0,1,.172,7.5,3.387,3.387,0,0,1,2.026,6.131,13.009,13.009,0,0,1,4.3,5.453c.054,0,5.447.045,10.426.045,5.271,0,8.191-.047,8.681-.14a3.911,3.911,0,0,1,2.633-.776c.255-.016.519-.033.767-.06a11.545,11.545,0,0,1,3.441-1.484c.241-.091.454-.17.653-.241a25.461,25.461,0,0,1,6.157-1.286c.772-.073,1.573-.111,2.379-.111a30.421,30.421,0,0,1,4.11.293c.958.13,1.841.291,2.7.491a39.969,39.969,0,0,1,4.784.969l.32.083a15.494,15.494,0,0,0,3.863.63,7.659,7.659,0,0,0,1.292-.106A17.218,17.218,0,0,0,60.6,2.382l.17-.077A29.105,29.105,0,0,1,71.368,0a31.673,31.673,0,0,1,7.591.909,10.266,10.266,0,0,0,1.235.241l.031,0a3.935,3.935,0,0,1,1.224.221,2.282,2.282,0,0,1,.882.587,1.843,1.843,0,0,1,.433.809,1.866,1.866,0,0,1-.007.9,2.02,2.02,0,0,1-.444.831c-.019.63-.007,1.28.007,1.969v0a19.33,19.33,0,0,1-.26,4.507,19.03,19.03,0,0,1-1,5.23,9.382,9.382,0,0,1-1.817,3.124,7.574,7.574,0,0,1-4.121,2.274,9.913,9.913,0,0,1-2.19.258A7.068,7.068,0,0,1,71.36,21.7a11.729,11.729,0,0,1-3.1-.54,11.9,11.9,0,0,1-4.581-2.692A11.343,11.343,0,0,1,62.25,16.83a10.358,10.358,0,0,1-1.75-3.974,13.874,13.874,0,0,1-.261-4.243l.023-.194a6.793,6.793,0,0,0-2.7-.492c-.319-.011-.607-.021-.9-.021-.164,0-.313,0-.454.009-.454.051-.873.116-1.279.2a3.353,3.353,0,0,0-1.309.739l-.028.535a27.538,27.538,0,0,1-.522,3.99,14.1,14.1,0,0,1-.842,2.789,7.556,7.556,0,0,1-1.568,2.367,7.789,7.789,0,0,1-1.732,1.844,11.369,11.369,0,0,1-3.693,1.855A14.373,14.373,0,0,1,41.108,22.826ZM45.872,4.779h0a.8.8,0,0,0-.589.255.988.988,0,0,0-.26.565.8.8,0,0,0,.111.519.755.755,0,0,0,.491.321,2.838,2.838,0,0,1,1.824,1.19l.045.07a.8.8,0,0,0,.692.4A.947.947,0,0,0,49,7.627a.746.746,0,0,0-.043-.784,4.534,4.534,0,0,0-2.88-2.04.946.946,0,0,0-.2-.023ZM76.752,3.667a.913.913,0,0,0-.759.426.8.8,0,0,0-.087.621.975.975,0,0,0,.355.514l.036.026A1.6,1.6,0,0,1,76.969,6.3l0,.052a.814.814,0,0,0,.289.614.922.922,0,0,0,.59.2.846.846,0,0,0,.612-.242.766.766,0,0,0,.2-.577A2.971,2.971,0,0,0,78.212,4.9a3.8,3.8,0,0,0-1.062-1.107A.685.685,0,0,0,76.752,3.667Z" transform="translate(0 3.17)"/>
  </g>
</svg>
