<svg id="peep-32" xmlns="http://www.w3.org/2000/svg" width="240" height="324" viewBox="0 0 240 324">
  <g id="BODY" transform="translate(31.056 135.053)">
    <path id="_Skin" data-name="âœ‹ Skin" d="M76.936,48.1C75.1,40.953,73.4,37.924,70.13,35.441c-3.06-2.322-7.526-4.273-14.043-5.7-6.788-1.187-6.98-4.716-8.682-10.387a2.459,2.459,0,0,0-4.019-.93,4.878,4.878,0,0,0-.467-.443c.145-.813-1.039-3.144-1-3.922.413-8.119-2.242-12.2-8.869-13.711C31.609.021,21.821-.173,20.415.215,14.273,1.914,8.225,7.307,9.151,13.8a12.022,12.022,0,0,1-6.79,4.871C-2.272,19.264.055,84.909,8.1,124.238c3.452,16.874,86-11.846,82.267-20.3.529-1.549-.435-3.252,0-4.851.315-1.158,1.121-1.637,1.527-2.783.571-1.613-.05-3.777-.693-5.423-.263-.82.485-1.7.693-2.541.986-3.949-1.272-3.6-2.9-6.24.024-.008.448-1.893.446-1.883a7.611,7.611,0,0,0-.92-4.192,1.978,1.978,0,0,0-1.941-1.147,71.442,71.442,0,0,1,2.861-7.492c1.9-4.552,3.7-9.313,6.43-13.433,1.116-1.687.215-3.239-1.592-3.354A110.369,110.369,0,0,1,76.936,48.1Z" transform="translate(73.086 -6.552)" fill="#d08b5b"/>
    <path id="_Device" data-name="ðŸ“± Device" d="M13.348,0,0,22.6a19.273,19.273,0,0,1,4.448.932c1.281.616,7.165,8.1,7.165,8.1l.935,4.12-2.215,3.322.864,2.086a6.793,6.793,0,0,1,2.151-2.51c1.535-1.1,4.919-2.9,4.919-2.9s-1.125-.6-1.125-1.308-.991-3.721,1.125-4.859,13.046-3.8,13.046-3.8L42.39,2.4Z" transform="translate(127.546 42.096)" fill="#ec7495"/>
    <path id="_Top" data-name="ðŸ‘• Top" d="M73.418,0,115.8,7.441l19.483,9.172,3.18,2.451-18.85,33.352L90.507,57.727,83.092,76.993l1.514,21.717,47.351-5.647,20.425-2.428,4.8,19.389L156.315,118l-1.262,4.045L104.419,135.72s-25.784-2.5-30.354-2.5-38.082,3.329-38.082,3.329l-7.754-.829S11.075,117.634,8.414,111.2,0,65.635,0,65.635l.634-6.012L15.455,21.471a48.914,48.914,0,0,0,4.474-4.859C22.424,13.551,73.418,0,73.418,0Z" transform="translate(7.933 12.277)" fill="#9ddadb"/>
    <path id="_Ink" data-name="ðŸ– Ink" d="M128.4,148.694h0a46.955,46.955,0,0,1-4.837-.257c-1.814-.188-3.65-.434-5.427-.671h0c-2.054-.274-4.178-.558-6.278-.755-2.161-.2-4.417-.365-6.9-.494.162-.324.33-.649.493-.964v0c.126-.243.255-.493.381-.741a.822.822,0,0,0-.025-.828.958.958,0,0,0-.782-.454.716.716,0,0,0-.652.428c-.135.266-.274.535-.409.8-.283.547-.575,1.112-.842,1.679-3.234-.137-6.655-.2-10.459-.2-5.577,0-11.244.146-16.724.286-2.28.059-4.638.119-6.972.169-2.264.048-4.565.089-6.791.129H62.14c-4.947.089-10.063.181-15.1.348-2.088.069-4.214.154-6.271.237h-.017c-1.322.053-2.689.108-4.034.158-.2-.626-.415-1.257-.626-1.867-.085-.247-.182-.528-.274-.8a.829.829,0,0,0-.816-.583.908.908,0,0,0-.735.351.72.72,0,0,0-.078.681c.093.275.189.553.282.821v0c.164.476.334.968.493,1.454-3.6.122-6.37.176-8.981.176h-.655a.822.822,0,0,1-.258-.04l-.016.1-.006.04-.009.057a.025.025,0,0,1-.026.021.033.033,0,0,1-.021-.008.028.028,0,0,1-.01-.022c0-.072,0-.146,0-.222a.938.938,0,0,1-.539-.607,6.372,6.372,0,0,1-.1-2.64,3.4,3.4,0,0,0-.87-1.184,7.61,7.61,0,0,0-2.489-1.189,12.3,12.3,0,0,1-1.637-.643,19.415,19.415,0,0,1-2.877-1.811,24.281,24.281,0,0,1-4.859-4.975,35.106,35.106,0,0,1-2.136-3.228c-.629-1.072-1.235-2.228-1.8-3.434a59.529,59.529,0,0,1-2.793-7.231c-.779-2.435-1.475-5-2.07-7.614-.571-2.512-1.062-5.138-1.46-7.806A127.886,127.886,0,0,1,.029,89.578a105.905,105.905,0,0,1,.51-13.146,35.3,35.3,0,0,1,3.136-1.806.719.719,0,0,0,.4-.845.973.973,0,0,0-.3-.5.834.834,0,0,0-.554-.217.874.874,0,0,0-.4.1c-.666.339-1.335.711-2.045,1.137A104.46,104.46,0,0,1,3.671,59.529,101,101,0,0,1,8.7,45.336c1.2-2.728,2.339-5.074,3.47-7.172a58.308,58.308,0,0,1,4.238-6.8,14.9,14.9,0,0,1,3.41.615.89.89,0,0,0,.266.043.8.8,0,0,0,.761-.725.9.9,0,0,0-.09-.562.816.816,0,0,0-.488-.387,15.039,15.039,0,0,0-2.655-.563,38.731,38.731,0,0,1,2.949-3.294,34.863,34.863,0,0,1,3.68-3.158,40.061,40.061,0,0,1,4.046-2.643,47.5,47.5,0,0,1,4.324-2.179c1.425-.631,2.943-1.226,4.514-1.768a123.145,123.145,0,0,1,19.7-4.537c.62-.105,1.24-.2,1.84-.3a34.421,34.421,0,0,0,7.616-1.787,12.958,12.958,0,0,0,3.279-1.9A12.55,12.55,0,0,0,72.317,5.1a.9.9,0,0,1,.737-.411.693.693,0,0,1,.389.115c.134.089.312.208.494.332l.014-.04.011-.032a20.612,20.612,0,0,0,.652-2.913C74.727,1.5,74.843.829,75,.168A.209.209,0,0,1,75.215,0a.266.266,0,0,1,.247.168,7.365,7.365,0,0,1,.4,2.844,12.015,12.015,0,0,1-.552,3.08l.761.543a50.313,50.313,0,0,0,4.546,3.01c2.772,1.559,7.531,2.389,10.681,2.938l.144.025a46.843,46.843,0,0,0,7.971.752c.545,0,1.087-.013,1.612-.038a13.582,13.582,0,0,0,3.638-.617,7.452,7.452,0,0,0,1.749-.841c.116-.078.227-.157.338-.243a23.554,23.554,0,0,1-.171-4,8.258,8.258,0,0,1,.835-4,.052.052,0,0,1,.046-.029.071.071,0,0,1,.062.043,14.6,14.6,0,0,1,.829,4.424c.026.31.053.629.083.944a4.3,4.3,0,0,1,1.242-.185,4.147,4.147,0,0,1,3.394,1.764,7.906,7.906,0,0,1,1.008,2.254,13.843,13.843,0,0,0,.488,1.341,3.7,3.7,0,0,0,.352.544,2.359,2.359,0,0,1,.486.874c.088.076.13.122.124.138s-.006.006-.014.006a.552.552,0,0,1-.161-.058c-.09-.03-.146-.047-.165-.051.023.01.073.027.148.053l.023.008.17.085.012.006a3.529,3.529,0,0,1,.828.512,1.665,1.665,0,0,1,.485.757,2.24,2.24,0,0,1,.094.911c.274.13.551.266.818.4.562.276,1.143.562,1.719.8l.21.086c1.477.6,3,1.227,4.484,1.912,3.307,1.527,6.6,3.223,9.784,5.04l.493.281c.685.39,1.394.793,2.084,1.213a18.66,18.66,0,0,0-2.1,1.779.762.762,0,0,0-.192.863.923.923,0,0,0,.823.578.8.8,0,0,0,.563-.245,17.09,17.09,0,0,1,2.414-2,13.443,13.443,0,0,1,3.71,3.614,19.816,19.816,0,0,1,1.8,3.845l.008.021.125.326a19.8,19.8,0,0,0,2.146,4.155l.011.016a.66.66,0,0,1,.042.07l.183.01h.01l.192.011c2.757.158,5.549.371,8.3.634.429.041.876.081,1.27.116a54.855,54.855,0,0,1,6.786.9.761.761,0,0,1,.477.4.636.636,0,0,1,.049.53c-.089.219-.193.473-.3.729-2.849,6.939-6.157,14.068-10.111,21.795a2.455,2.455,0,0,1,1.143.3,1.777,1.777,0,0,1,.767,1,13.37,13.37,0,0,1,.694,2.825,6.543,6.543,0,0,1-.236,2.862.084.084,0,0,1-.08.063.091.091,0,0,1-.045-.012,3.841,3.841,0,0,0,1.056,2.779,7.65,7.65,0,0,0,.862.724,5.377,5.377,0,0,1,1.164,1.081c.889,1.23.281,2.218-.364,3.263-.122.2-.248.4-.363.609a1.013,1.013,0,0,0-.1.986,2.517,2.517,0,0,0,.641.721,4.4,4.4,0,0,1,.577.578,2.832,2.832,0,0,1,.527,1.129A3.645,3.645,0,0,1,159.035,86a8.225,8.225,0,0,1-1,2.733c-.125.239-.249.49-.37.734a11.768,11.768,0,0,1-1.424,2.386.5.5,0,0,1-.085.08.086.086,0,0,1,.021,0h0c.113,0,.259.182.3.277.022.049.044.1.065.148s.045.1.066.152l-.006-.017-.006-.017a.124.124,0,0,1,.015-.118.22.22,0,0,1,.169-.087h0c.13,0,.343.244.384.353a50.51,50.51,0,0,1,2,5.36l.226.875.045.175.407,1.575c.3,1.289.484,2.609.661,3.886l0,.015c.143.9.245,1.8.3,2.661.143,1.305.228,2.635.253,3.952a49.385,49.385,0,0,1-.553,6.378,25.734,25.734,0,0,1-.427,2.6,32.056,32.056,0,0,1-.906,3.859c-.155.64-.314,1.3-.454,1.882l-.119.493-.013.035-.24.649a12.184,12.184,0,0,1-.526,1.484c-.07.214-.15.439-.243.688a20.079,20.079,0,0,0-5.389-.986h-.017a.784.784,0,0,0-.8.824.9.9,0,0,0,.2.589.791.791,0,0,0,.615.277,17.8,17.8,0,0,1,4.715.848c-.242.487-.505.959-.783,1.405l-.028.055c-.76,1.494-1.546,3.04-2.448,4.5a27.631,27.631,0,0,1-1.713,2.458,18.694,18.694,0,0,1-3.647,3.663,9.68,9.68,0,0,1-2.172,1.378,16.233,16.233,0,0,1-2.77.922,15.328,15.328,0,0,1-1.61.3c-.289.036-.585.058-.871.079-.353.026-.719.053-1.077.107a8.157,8.157,0,0,0-1.722.427,4.179,4.179,0,0,0-.786.4,5.754,5.754,0,0,0-.589.6.027.027,0,0,1-.014.013,1.565,1.565,0,0,1-1.3,1.08A42.011,42.011,0,0,1,128.4,148.694ZM59.954,135.746a.875.875,0,0,0-.222.03.92.92,0,0,0-.551.474.681.681,0,0,0-.04.566,11.659,11.659,0,0,0,2.408,3.782.779.779,0,0,0,.563.254.918.918,0,0,0,.809-.569.782.782,0,0,0-.177-.881,9.505,9.505,0,0,1-1.973-3.036A.9.9,0,0,0,59.954,135.746Zm11.489-18.523a.834.834,0,0,0-.2.025,4.673,4.673,0,0,1-.536.093,2.906,2.906,0,0,0-.8.186c-.256.106-.51.229-.756.349l-.3.146-2.44,1.157c-1.538.731-3.052,1.453-4.5,2.147-2.764,1.324-5.55,2.721-8.244,4.072l0,0-1.24.621c-2.8,1.4-6.054,3.034-9.272,4.663-1.639.83-3.246,1.677-4.6,2.4l-.419.221c-.584.308-1.188.627-1.774.957-.157.088-.318.173-.488.262a5.5,5.5,0,0,0-1.617,1.105.09.09,0,0,0-.012.094.067.067,0,0,0,.063.041h.006a9.452,9.452,0,0,0,3.294-1.2c.363-.184.707-.359,1.035-.507l.991-.447,0,0c1.167-.527,2.375-1.071,3.555-1.622,3.732-1.744,6.792-3.16,9.633-4.458,1.289-.589,2.6-1.18,3.865-1.752,1.842-.831,3.746-1.691,5.611-2.554,1.56-.722,3.148-1.454,4.721-2.177L69.289,120l.374-.169.016-.007c.245-.11.5-.223.744-.342a4.377,4.377,0,0,0,.906-.612c.137-.112.279-.228.449-.35a.742.742,0,0,0,.279-.837A.632.632,0,0,0,71.443,117.223Zm53.773,14.623a.92.92,0,0,0-.813.571.777.777,0,0,0,.181.876c.233.236.459.486.678.727a10.364,10.364,0,0,0,1.684,1.6.691.691,0,0,0,.4.12.9.9,0,0,0,.758-.424.8.8,0,0,0,.081-.638.977.977,0,0,0-.385-.519,7.91,7.91,0,0,1-1.37-1.342c-.21-.241-.426-.491-.649-.717A.784.784,0,0,0,125.216,131.846ZM88.4,126.489a.785.785,0,0,0-.563.252,29.583,29.583,0,0,0-2.566,3.093.681.681,0,0,0-.109.547.946.946,0,0,0,.412.61.782.782,0,0,0,.406.117.961.961,0,0,0,.751-.42,26.537,26.537,0,0,1,2.3-2.751.776.776,0,0,0,.181-.876A.919.919,0,0,0,88.4,126.489Zm-68.391-6.305a.884.884,0,0,0-.391.095c-.527.258-1.073.5-1.6.726a24.667,24.667,0,0,0-2.537,1.222.769.769,0,0,0-.379.9.886.886,0,0,0,.81.676.835.835,0,0,0,.421-.121,24.649,24.649,0,0,1,2.537-1.222c.528-.23,1.075-.468,1.6-.725a.705.705,0,0,0,.41-.828A.935.935,0,0,0,20.006,120.184Zm128.568-13.392a.086.086,0,0,0-.062.026.07.07,0,0,0-.02.053,7.4,7.4,0,0,0,.49,1.965c.089.257.182.523.257.779.381,1.287.648,2.343.838,3.324a24.81,24.81,0,0,1,.325,2.83,18.516,18.516,0,0,0,.544,3.74.7.7,0,0,0,.685.549.89.89,0,0,0,.8-.549,6.208,6.208,0,0,0,.438-1.741,8.844,8.844,0,0,0-.006-1.822,16.7,16.7,0,0,0-.818-3.551,16.156,16.156,0,0,0-1.41-3.177,12.706,12.706,0,0,0-.874-1.337,4.063,4.063,0,0,0-1.154-1.078A.078.078,0,0,0,148.574,106.792Zm-43.629,2.716a.886.886,0,0,0-.738.352.673.673,0,0,0-.041.66c.232.574.486,1.15.731,1.707s.5,1.129.729,1.7a.935.935,0,0,0,1.589.211.674.674,0,0,0,.041-.66c-.233-.575-.486-1.15-.731-1.707h0c-.244-.555-.5-1.128-.728-1.7A.887.887,0,0,0,104.945,109.508Zm22.217-.554a.9.9,0,0,0-.257.039,34.864,34.864,0,0,0-4.085,1.6c-.306.135-.652.288-.984.431a.72.72,0,0,0-.378.336.672.672,0,0,0-.048.438.975.975,0,0,0,.916.764.912.912,0,0,0,.363-.078c.275-.119.555-.242.825-.361l.015-.007a33.035,33.035,0,0,1,3.826-1.5.807.807,0,0,0,.582-.93.934.934,0,0,0-.247-.514A.721.721,0,0,0,127.161,108.954Zm-75.69-.723a.921.921,0,0,0-.818.574.77.77,0,0,0,.186.87l2.19,2.191a.79.79,0,0,0,.563.249.921.921,0,0,0,.818-.574.77.77,0,0,0-.186-.87l-2.19-2.191A.791.791,0,0,0,51.472,108.232ZM38.393,72.3a.19.19,0,0,0-.139.055.177.177,0,0,0-.044.135c.06,1.057.155,2.127.247,3.162h0c.122,1.376.248,2.8.295,4.208.077,2.327.068,4.765-.027,7.451-.077,2.194-.222,4.507-.456,7.279-.06.716-.159,1.465-.254,2.189h0a22.537,22.537,0,0,0-.288,4.8c-2.243.588-4.176,1.182-5.908,1.816-.362.133-.74.263-1.139.4a25.741,25.741,0,0,0-3.977,1.632,6.58,6.58,0,0,0-2.929,2.816.074.074,0,0,0,.006.071.072.072,0,0,0,.058.036.057.057,0,0,0,.045-.024,4.839,4.839,0,0,1,1.843-1.354,16.1,16.1,0,0,1,2.212-.753l.43-.124c1.679-.493,3.352-.932,5.207-1.413,3.49-.906,7.081-1.652,10.553-2.374h0l.39-.081,1.711-.354c3.043-.628,6.19-1.278,9.261-2.034l.475-.116.015,0c1.564-.383,3.181-.779,4.724-1.3A20.71,20.71,0,0,0,65.817,96.1a.707.707,0,0,0,.233-.767.461.461,0,0,0-.459-.345.652.652,0,0,0-.074,0,31.3,31.3,0,0,0-4.492.977l-.011,0c-.3.081-.614.165-.918.245-.755.2-1.519.409-2.258.613h0c-1.089.3-2.214.612-3.331.885-2.6.637-5.253,1.222-7.821,1.787h0c-1.211.267-2.462.542-3.691.82-1.4.316-2.549.586-3.616.847a16.583,16.583,0,0,0,.258-2.127c.015-.2.031-.406.049-.61.03-.337.06-.679.09-1.011l0-.034c.076-.849.154-1.726.223-2.59.23-2.871.358-5.384.391-7.683a58.9,58.9,0,0,0-.335-7.45c-.122-1.087-.279-2.371-.517-3.658a22.313,22.313,0,0,0-.937-3.565A.216.216,0,0,0,38.393,72.3Zm82.989-7.536c-1,0-2.01.087-2.984.171h-.007c-.271.023-.527.045-.781.065a42.391,42.391,0,0,0-6.564,1,9.032,9.032,0,0,0-2.507.985,8.338,8.338,0,0,0-2.067,1.722,24.129,24.129,0,0,0-2.59,3.843c-.107.184-.229.392-.346.591a28.851,28.851,0,0,1-3.741,5.019,26.5,26.5,0,0,1-4.712,4.006,1.448,1.448,0,0,1-.577.638.049.049,0,0,1,.008.013c-.084.036-.154.067-.22.1l-.01,0-.01,0-.4.176a61.559,61.559,0,0,0-6.6,3.22c-.011.091-.024.183-.037.273v0c-.023.163-.045.317-.058.468-.04.471-.093.95-.144,1.412s-.1.936-.143,1.405a48.719,48.719,0,0,0-.211,5.675,28.836,28.836,0,0,0,.784,5.89c.187.768.434,1.528.673,2.264l.048.147a21.92,21.92,0,0,1,4.255-2.382,17.154,17.154,0,0,1,4.747-1.52,11.788,11.788,0,0,1,1.721-.12,24.751,24.751,0,0,1,3.413.3l.342.049.018,0a17.977,17.977,0,0,0,2.547.245,6.09,6.09,0,0,0,1.848-.256,4.767,4.767,0,0,0,2.018-1.322,15.705,15.705,0,0,0,1.517-1.98,13.264,13.264,0,0,1,1.753-2.208,5.3,5.3,0,0,1,3.1-1.5,4.89,4.89,0,0,1,.514-.023c.136,0,.275,0,.41.007h.009c.139,0,.281.007.421.007a3.118,3.118,0,0,0,1.288-.219,2.746,2.746,0,0,0,1.485-1.854,1.112,1.112,0,0,1,.585-.685,3.2,3.2,0,0,1-1.011-.664c-.1-.085-.2-.174-.314-.262-.6-.478-1.2-.928-1.787-1.338-.371-.26-.755-.516-1.125-.763-.187-.124-.38-.253-.569-.381-.1-.066-.218-.164-.358-.279A2.673,2.673,0,0,0,113.757,86a.425.425,0,0,0-.087.009h-.012a.084.084,0,0,1-.067-.033.058.058,0,0,1-.007-.055c.084-.224.3-.338.635-.338a4.826,4.826,0,0,1,1.759.5,18.443,18.443,0,0,1,2.174,1.163,10.291,10.291,0,0,1,2.917,2.327.657.657,0,0,1-.135.767,1.616,1.616,0,0,0,.4.052,1.837,1.837,0,0,0,1.328-.649,3.237,3.237,0,0,0,.729-1.373,10.227,10.227,0,0,0-.135-4q-.027-.161-.052-.319a.205.205,0,0,1,.048-.168.2.2,0,0,1,.149-.073.158.158,0,0,1,.042.006l.046-.106c-1.023-.447-2.113-.8-3.166-1.146h0c-.468-.153-.953-.311-1.423-.474l-.863-.3-.071-.025-2.016-.7-.3-.1a3.465,3.465,0,0,1-1.733-.976.893.893,0,0,1-.161-.837.658.658,0,0,1,.5-.438,2.515,2.515,0,0,1,.56-.062,5.3,5.3,0,0,1,1.82.439c.15.055.306.112.462.166.823.28,1.65.563,2.449.837l.31.106c.428.146.867.289,1.291.427l.007,0a35.537,35.537,0,0,1,3.566,1.3,7.005,7.005,0,0,1,1.8,1.134,5.109,5.109,0,0,1,1.262,1.7c.055.123.112.293.177.489.2.6.474,1.432.974,1.544a.5.5,0,0,0,.11.013c.3,0,.535-.286.712-.849a7.049,7.049,0,0,0,.241-1.25,8.479,8.479,0,0,0-.121-2.621,9.706,9.706,0,0,0-.885-2.537,8.266,8.266,0,0,0-3.634-3.717,26.433,26.433,0,0,0-4.911-1.618l-.183-.047c-1.379-.357-2.845-.66-4.358-.9-.557-.092-1.163-.179-1.851-.266a.1.1,0,0,1-.1-.108.091.091,0,0,1,.1-.089c.529-.023,1.058-.035,1.572-.035.243,0,.488,0,.728.008a14.7,14.7,0,0,1,6.335-1.384c.039,0,.079,0,.119,0a3,3,0,0,1,1.565.52,7.114,7.114,0,0,1,1.41,1.2,7.747,7.747,0,0,1,1.556,2.3,10.135,10.135,0,0,1,3.862,5.449c.041.123.078.242.114.363a5.3,5.3,0,0,1,1.031-1.578,7.767,7.767,0,0,1,1.43-1.216,25.788,25.788,0,0,1,3.577-1.985,1.182,1.182,0,0,1-.3-.167,2.247,2.247,0,0,1-.615-1.625c-.008-.075-.016-.153-.026-.229a7.205,7.205,0,0,1,.042-2.5,3.84,3.84,0,0,1,.44-1.092,4.337,4.337,0,0,1,.708-.886,7.13,7.13,0,0,1,1.93-1.281,28.308,28.308,0,0,1,5.428-1.924,30.521,30.521,0,0,1,5.7-.832.926.926,0,0,1,.089-.215c1.911-3.428,3.791-7.06,5.589-10.8,1.694-3.52,3.372-7.251,4.987-11.09-1.332-.1-2.686-.264-4-.422h0c-.971-.118-1.975-.239-2.963-.334-2.62-.252-5.272-.458-7.88-.613-.54-.033-1.084-.063-1.611-.091l-.029,0c-1.774-.093-3.6-.167-5.427-.218l-.646-.019-.067,0c-.845-.025-1.718-.051-2.578-.051l-.413,0a2.705,2.705,0,0,0-.781.092,1.3,1.3,0,0,0-.635.437,2.446,2.446,0,0,0-.233.366,1.409,1.409,0,0,1-.47.577l-.061.035-.11.062-.054.054,0,0a1.143,1.143,0,0,0-.111.119,9.244,9.244,0,0,0-.674,1.021c-.591,1.018-1.134,2.09-1.659,3.126l-.007.015c-.391.772-.77,1.564-1.137,2.329-.519,1.085-1.056,2.207-1.633,3.284-1.008,1.879-1.945,3.526-2.865,5.036-.234.381-2.052,3.155-3.084,4.553a9.609,9.609,0,0,1,2.425.378c.171-.391.37-.775.562-1.146h0c.164-.317.334-.644.485-.974.113-.247.214-.513.311-.769a6.889,6.889,0,0,1,.654-1.4.457.457,0,0,1,.382-.218.466.466,0,0,1,.353.167.481.481,0,0,1,.1.4,6.178,6.178,0,0,1-1.039,2.127l-.007.01-.058.088a10.046,10.046,0,0,1-1.43,1.82c.03.009.059.02.085.03a5.861,5.861,0,0,1,2.119,1.484,20.249,20.249,0,0,1,1.68,2.08c.2.272.389.528.582.779l.153.2,0,0c.788,1.006,3.187,4.066,3.66,6.635a3.757,3.757,0,0,1-.017,1.435,2.967,2.967,0,0,1-.544,1.223,1.822,1.822,0,0,1-1.349.735h-.035a.406.406,0,0,1-.363-.193.911.911,0,0,1-.115-.481,2.569,2.569,0,0,1,.348-1.225,1.117,1.117,0,0,1,.866-.665c-.179,0-.183-.118-.189-.268a1.032,1.032,0,0,0-.02-.2,3.577,3.577,0,0,0-.191-.533c-.021-.05-.042-.1-.062-.152a16.492,16.492,0,0,0-.858-1.778A26.116,26.116,0,0,0,128.913,70c-.674-.925-1.394-1.819-2.134-2.729l-.1-.121a5.211,5.211,0,0,0-2.588-2.071,10.148,10.148,0,0,0-2.626-.31Zm29.052,22.595a.5.5,0,0,1,.387.162.6.6,0,0,1,.142.372.733.733,0,0,1-.138.465.629.629,0,0,1-.459.253l-.151.014h0c-3.1.292-6.3.595-9.43,1.042-1.707.245-3.222.5-4.631.767-.534.1-1.079.238-1.606.369-.261.065-.53.131-.8.194a.078.078,0,0,1-.011.07,5.991,5.991,0,0,0-.954,2.326,3.049,3.049,0,0,0,.047,1.239,2.25,2.25,0,0,0,.647,1.078,2.008,2.008,0,0,0,1.456.486,8.491,8.491,0,0,0,.9-.065l.07-.008c.946-.1,1.885-.233,2.844-.368,1.566-.221,3.193-.479,4.975-.788.829-.142,1.7-.3,2.58-.473a86.624,86.624,0,0,0,9.123-3.891,15.052,15.052,0,0,1,.876-1.639c.181-.308.368-.626.535-.939l.028-.052c.478-.9,1.133-2.14.718-3.166a2.8,2.8,0,0,0-.822-.993,2.882,2.882,0,0,1-.834-1,1.911,1.911,0,0,1-.133-.981,2.581,2.581,0,0,1,.327-.943,5.051,5.051,0,0,1,.5-.675,2.649,2.649,0,0,0,.761-1.419c.032-.72-.671-1.268-1.291-1.752a6.868,6.868,0,0,1-.574-.48,3.7,3.7,0,0,1-1.061-1.983,3.615,3.615,0,0,1,.324-2.217.105.105,0,0,1,.087-.059,21.212,21.212,0,0,0-.459-2.3,10.87,10.87,0,0,0-.8-2.162,1.2,1.2,0,0,0-1.242-.679c-.135,0-.273.007-.42.014h-.008c-.092,0-.188.009-.285.012-.743.025-1.441.072-2.134.144a30.176,30.176,0,0,0-4.6.843,28.073,28.073,0,0,0-4.4,1.564,7.2,7.2,0,0,0-1.764,1.046,2.8,2.8,0,0,0-.985,1.74,7,7,0,0,0,.061,2.04l.01.074c.027.2.061.442.14.48a.158.158,0,0,0,.063.009,5.386,5.386,0,0,0,.933-.212c.1-.03.187-.053.225-.061l.435-.094.034-.007c1.378-.3,2.8-.6,4.2-.909.407-.088.831-.2,1.241-.3h0a14.751,14.751,0,0,1,3.209-.567h.012a.631.631,0,0,1,.581.533.5.5,0,0,1-.288.592,20.439,20.439,0,0,1-4.384,1.122c-.61.11-1.24.223-1.831.353l-.52.114-.52.114c-.548.255-1.108.5-1.649.746a42.526,42.526,0,0,0-4.179,2.049l-.061.035a7.513,7.513,0,0,0-2.891,2.41,2.657,2.657,0,0,0-.331,1.052,2.2,2.2,0,0,0,.145,1.081,1.422,1.422,0,0,0,1.014.849,3,3,0,0,0,.681.073,4.833,4.833,0,0,0,.664-.049,13.769,13.769,0,0,0,1.819-.428c.346-.1.673-.191.974-.259l4.081-.926,1.618-.367,6.748-1.529a.642.642,0,0,1,.141-.016.538.538,0,0,1,.4.17.666.666,0,0,1,.176.379.549.549,0,0,1-.074.354.516.516,0,0,1-.333.222c-3.693.839-7.416,1.688-11.018,2.509-.464.105-.939.225-1.4.341h0a29.022,29.022,0,0,1-3.12.664l-.026.017a15.354,15.354,0,0,0-3.7,2.955c-.069.08-.142.17-.228.281a1.255,1.255,0,0,0-.267,1.256.97.97,0,0,0,.915.486c.034,0,.068,0,.1,0a5.043,5.043,0,0,0,1.259-.237c.131-.036.266-.074.4-.106,1.107-.277,2.246-.53,3.387-.75a130.55,130.55,0,0,1,13.123-1.649l.624-.057C150.39,87.363,150.412,87.362,150.434,87.362Zm-136.2.429a.941.941,0,0,0-.834.585.746.746,0,0,0,.2.848,10.91,10.91,0,0,0,3.678,2.029l.007,0,.338.134a.833.833,0,0,0,.306.063.739.739,0,0,0,.691-.655.9.9,0,0,0-.548-1.038l-.4-.155A8.5,8.5,0,0,1,14.8,88.029.811.811,0,0,0,14.235,87.791Zm117.6-3.38a8.688,8.688,0,0,1-.074,1.6,8.748,8.748,0,0,1,1.458-.852A2.548,2.548,0,0,1,131.839,84.41ZM72.59,78.772a.779.779,0,0,0-.794.818.908.908,0,0,0,.2.592.8.8,0,0,0,.615.281,9.561,9.561,0,0,1,2.134.376h0l.317.08a.933.933,0,0,0,.225.029.853.853,0,0,0,.819-.786.829.829,0,0,0-.1-.531.775.775,0,0,0-.49-.342l-.151-.038-.041-.01a12.345,12.345,0,0,0-2.71-.469ZM49.039,65.645a.935.935,0,0,0-.871.726.706.706,0,0,0,.41.829,15.488,15.488,0,0,0,3.609,1.3.952.952,0,0,0,.2.021.889.889,0,0,0,.854-.823.79.79,0,0,0-.112-.513.751.751,0,0,0-.49-.316A13.631,13.631,0,0,1,49.43,65.74.882.882,0,0,0,49.039,65.645Zm29.62-10.466a.775.775,0,0,0-.778.6,38.106,38.106,0,0,0-.974,4.87.873.873,0,0,0,.206.717,1.013,1.013,0,0,0,.744.345.656.656,0,0,0,.681-.613,38.079,38.079,0,0,1,.974-4.87.776.776,0,0,0-.116-.7A.935.935,0,0,0,78.659,55.179ZM23.046,57.556a.832.832,0,0,0-.308.064,28.3,28.3,0,0,0-3.852,1.79.8.8,0,0,0-.362.416.815.815,0,0,0-.014.494.97.97,0,0,0,.294.472.772.772,0,0,0,.512.2.831.831,0,0,0,.423-.123,25.507,25.507,0,0,1,3.449-1.619.908.908,0,0,0,.546-1.044A.736.736,0,0,0,23.046,57.556Zm85.749-14.1a.71.71,0,0,0-.649.43,13.455,13.455,0,0,0-.748,1.738,6.312,6.312,0,0,0-.341,1.854.771.771,0,0,0,.208.573.86.86,0,0,0,.617.243.908.908,0,0,0,.586-.2.8.8,0,0,0,.279-.612,6.489,6.489,0,0,1,.858-2.739.828.828,0,0,0-.03-.831A.959.959,0,0,0,108.795,43.458ZM54.376,40.786a.918.918,0,0,0-.242.034c-1.041.286-2.118.5-3.159.7-.8.158-1.631.32-2.439.516a.769.769,0,0,0-.49.336.822.822,0,0,0-.106.528.857.857,0,0,0,.826.793.938.938,0,0,0,.22-.027c.809-.2,1.638-.359,2.44-.516,1.041-.2,2.117-.416,3.158-.7a.787.787,0,0,0,.589-.9.944.944,0,0,0-.25-.529A.744.744,0,0,0,54.376,40.786Zm-33.2-2.462a.742.742,0,0,0-.694.658.9.9,0,0,0,.549,1.034c.561.22,1.141.417,1.7.608h0c.562.191,1.142.388,1.705.609a.837.837,0,0,0,.3.062.742.742,0,0,0,.694-.658.9.9,0,0,0-.549-1.035c-.561-.22-1.141-.417-1.7-.608s-1.143-.389-1.705-.609A.836.836,0,0,0,21.179,38.324Zm52.649-6.055h0a.778.778,0,0,0-.612.264.889.889,0,0,0-.2.581.8.8,0,0,0,.816.845,18.8,18.8,0,0,1,3.426.214.965.965,0,0,0,.175.016.833.833,0,0,0,.616-.268,1,1,0,0,0,.265-.585.7.7,0,0,0-.607-.794,20.932,20.932,0,0,0-3.875-.274Zm45.525-9.524a.788.788,0,0,0-.439.144l-2.19,1.461a.844.844,0,0,0-.348.453.886.886,0,0,0,0,.519.839.839,0,0,0,.758.633.787.787,0,0,0,.439-.144l.438-.292,1.753-1.169a.844.844,0,0,0,.348-.453.886.886,0,0,0,0-.519A.839.839,0,0,0,119.353,22.744Zm-76.5-2.39a.976.976,0,0,0-.161.014,19.988,19.988,0,0,0-3.894.974.9.9,0,0,0-.551,1.03.744.744,0,0,0,.7.661.842.842,0,0,0,.3-.061A19.52,19.52,0,0,1,43.144,22a.684.684,0,0,0,.608-.775,1.006,1.006,0,0,0-.267-.6A.849.849,0,0,0,42.856,20.354Zm40.977-2.942a.9.9,0,0,0-.756.423.86.86,0,0,0,.3,1.157,12.6,12.6,0,0,1,1.746,1.542l.03.03a.791.791,0,0,0,.563.249.921.921,0,0,0,.818-.574.77.77,0,0,0-.186-.87,14.863,14.863,0,0,0-2.118-1.837A.705.705,0,0,0,83.833,17.413Z" transform="translate(7.395 1.479)"/>
  </g>
  <g id="HEAD" transform="translate(78.592 38.043)">
    <path id="_Skin-2" data-name="âœ‹ Skin" d="M73.9,34.016C72.449,16.331,68.043.668,47.339,0A72.138,72.138,0,0,0,19.867,5.755c-20.883,10.5-27.509,48.853-9.11,64.293a.2.2,0,0,0-.007.33,71.147,71.147,0,0,0,12.258,6.445c11.272,4.777,24.541,6.852,36.037,1.67C76.587,71.01,76.85,50.187,73.9,34.016Z" transform="translate(12.228 24.094)" fill="#d08b5b"/>
    <path id="_Ink-2" data-name="ðŸ– Ink" d="M152.278,75.229a5.26,5.26,0,0,0,1.531-2.462,4.828,4.828,0,0,0,0-2.7c-.283-.934-.892-1.678-.755-2.65a2.223,2.223,0,0,1,.063-.294c.527-1.83,1.824-3.151,1.36-5.18a3.518,3.518,0,0,0-.721-1.494c.038-.44.072-.883.1-1.327a7.1,7.1,0,0,0-.078-5.666,21.459,21.459,0,0,0-.46-2.669,5.142,5.142,0,0,0-.287-2.308,32.844,32.844,0,0,0-1.563-3.527,1.3,1.3,0,0,0-.136-.948,8.813,8.813,0,0,0-1.163-1.48c-.3-.542-.607-1.079-.909-1.609-.14-.244-.295-.514-.465-.8a2.755,2.755,0,0,0,.221-2.721,1.253,1.253,0,0,0-1.109-.638c-.456.027-.917.048-1.38.065a9.878,9.878,0,0,0-2.9-2.53c-1.065-.9-2.144-1.792-3.194-2.7l-.894-.774-.006-.021c-.219-.8-.466-1.591-.713-2.386-.154-.492-.2-1.008-.679-1.277a9.793,9.793,0,0,0-3.683-.744l-.342-.3a5.386,5.386,0,0,0-.228-4.261,1.044,1.044,0,0,0-1.425-.374,4.76,4.76,0,0,1-3.3.873c-1.7-1.306-8.532-7.213-9.588-7.836-.013-.022-.024-.045-.038-.067a8.587,8.587,0,0,0-2.126-2.326l-.347-.364a4.43,4.43,0,0,1,.8-2.01c.046-.068.1-.133.152-.2A1.014,1.014,0,0,0,116.8,7.941c-.076.034-.152.068-.228.1-.81.362-1.707.756-2.641,1.088-.342-.128-.69-.245-1.008-.373l-3.4-1.371c-.56-.226-1.152-.417-1.694-.682a2.609,2.609,0,0,0-2.755-2.042,2.456,2.456,0,0,1,.347-.7c.046-.066.1-.129.15-.19.673-.784-.226-2.238-1.187-1.541l-.2.146c-.267.188-.541.364-.817.535a1.856,1.856,0,0,0-1.462-.033,15.034,15.034,0,0,0-3.236,1.625c-.041.029-.084.053-.126.081a2.767,2.767,0,0,0-2.028-1.016h-.039a2.65,2.65,0,0,0-2.483-1.187,2.529,2.529,0,0,0-4.956-.556l-.315,1.026a11.087,11.087,0,0,0-3.08-1.06,15.868,15.868,0,0,0-7.2.709c-.236.068-.471.138-.707.208-.336-.391-.652-.791-.954-1.164a1,1,0,0,0-1.687.7,1.359,1.359,0,0,1-.546,1.275,8.069,8.069,0,0,1-1.4.066,4.6,4.6,0,0,1-1.973-.363,2.6,2.6,0,0,1-1.087-.9A2.609,2.609,0,0,0,66,1.9a2.676,2.676,0,0,0-3.082,1.115,3.082,3.082,0,0,1-1.815,1c-.626.176-1.267.309-1.91.425a.993.993,0,0,0-1.333-.324c-.3.222-.591.45-.879.684a12.4,12.4,0,0,1-6.533-.549c-1.789-.733-3.431,1.27-3.136,2.951-.518.27-1.08.45-1.592.733a6.317,6.317,0,0,0-2.592,2.744c-.1.206-.191.414-.277.624-.417.34-.83.69-1.232,1.059l-2.009-1.034a1,1,0,0,0-1.446.59,6.078,6.078,0,0,1-1.119,2.773,45.8,45.8,0,0,0-5.275,3.248c-1.937.609-4,.964-5.69,1.363a.963.963,0,0,0-.569,1.4q.519.8,1.035,1.6Q25.1,23.716,23.82,25.249a54.767,54.767,0,0,0-6.143,9.225l-2.112.854a1,1,0,0,0-.434,1.646,6.3,6.3,0,0,1,.7.875A11.624,11.624,0,0,1,12.012,42a2.58,2.58,0,0,0-1.075,1.306c-.171.114-.339.237-.506.361a1.015,1.015,0,0,0-.2,1.57,6.3,6.3,0,0,1,1.044,1.122c.065.239.133.48.2.719a17.782,17.782,0,0,0-3.748,4.878.837.837,0,0,0-.645.127c-1.7,1.262-1.754,3.272-1.069,5.068a18.4,18.4,0,0,0,.649,8.105,7.62,7.62,0,0,0-1.935,4.02,82.376,82.376,0,0,0-.6,9.116,9.331,9.331,0,0,0-2.41,4.075L.568,83.04A1.124,1.124,0,0,0,0,84.031,8.049,8.049,0,0,0,1.84,88.59,10.044,10.044,0,0,0,3.4,91.408a21.37,21.37,0,0,1,1.341,1.849,1.177,1.177,0,0,1,.086.169,3.757,3.757,0,0,0-.409.666,4.325,4.325,0,0,0,.394,5.235,1.305,1.305,0,0,0-.078,1.818c2.992,3.426,5.486,7.592,9.637,9.411a1.039,1.039,0,0,1,.051.1,6.149,6.149,0,0,0-.268,5.18.546.546,0,0,0,.017.055c.367,1.1,1.041,2.86,2.258,3.2a4.083,4.083,0,0,0,1.134.154q1.448,1.4,2.892,2.8a9.757,9.757,0,0,1,.154,1.4,1.25,1.25,0,0,0,1.564,1.194c.28-.082,1.832-1.594,2.117-1.585.143.144.283.287.422.433a4.68,4.68,0,0,1,1.282,1.953,2.769,2.769,0,0,0,1.933,2.5,1.061,1.061,0,0,0,1.613,0c.034-.036.067-.072.1-.1l.162-.019q.373,1.116.748,2.23a2.64,2.64,0,0,0,3.7,1.549c.215.129.426.266.637.4.32.205.645.414.978.611.019.055.038.11.055.163a1.17,1.17,0,0,0,1.659.632,4.86,4.86,0,0,0,.523.135,5.253,5.253,0,0,0,2.764-.178,8.447,8.447,0,0,1,1.948-.7c.043,0,.088,0,.132,0a5.435,5.435,0,0,0,2.869,2.5,5.318,5.318,0,0,0,3.9-.259,9.092,9.092,0,0,0,1.228,1.85.747.747,0,0,0,1.044,0q.8-.71,1.59-1.425c.382-.148.768-.325,1.171-.49a22.407,22.407,0,0,0,3.8-1.475,6.437,6.437,0,0,0,1.5-1.328,10.817,10.817,0,0,0,2.216-1.716,2.216,2.216,0,0,0,1.018-.247,4.249,4.249,0,0,0,2.218-3.677,25.969,25.969,0,0,0,2-8.511,21.221,21.221,0,0,0,0-2.906,5.106,5.106,0,0,0-.479-1.75,5.42,5.42,0,0,1-.226-.588c.015-.651.023-1.3.032-1.951a3.655,3.655,0,0,1,.921-1.486,2.388,2.388,0,0,0,.369-2.862l-1.193-1.591c.112-2.276.656-5.9-.55-6.279.048-.338.152-.672.211-1.008a6.136,6.136,0,0,0-.742-4.47c-.179-.294-.331-.554-.455-.807l-.234-1.395c-.12-.716-.238-1.439-.339-2.166-.053-.926-.1-1.851-.154-2.779q-.073-1.281-.16-2.564c.023-.383.057-.765.105-1.148.289-2.28,1.219-3.124,2.829-4.709.253-.04.5-.085.751-.135a11.425,11.425,0,0,1,3.533-.476c1.284.144,2.433.7,3.681-.011.367-.211,1.174-.795,1.244-1.258a.288.288,0,0,1,.019-.074c.086-.013.2-.023.268-.025.991-.034,1.937.357,2.937.249a4.591,4.591,0,0,0,2.937-1.433,7.315,7.315,0,0,0,2.728.2A6.054,6.054,0,0,0,87.7,73.72c.5-.271.342-.349.885-.129,1.238.5,2.357,1.167,3.751.822a3.984,3.984,0,0,0,1.872-1.095,6.391,6.391,0,0,0,.476-.48c.662.336,2.327,1.095,2.6,1.162a4.243,4.243,0,0,0,2.353-.093c.554-.186,1.233-.693,1.72-.8.63-.135,2.03.744,2.783,1.046a5.289,5.289,0,0,0,4.054.114c.46-.188,1.353-.938,1.7-.932a37.642,37.642,0,0,1,2.587,5.852c1.9,5.58,2.386,23,1.512,27.446-.034.131-.07.26-.105.391a63.306,63.306,0,0,1-3.993,11.4,18.6,18.6,0,0,1-7.41,8.3A20.978,20.978,0,0,1,90.967,128.9a39.879,39.879,0,0,1-7.459-1.312c-1.278-.332-2.545-.7-3.805-1.086-.55-.167-1.109-.323-1.649-.518a2.519,2.519,0,0,0-2.365.07,1.727,1.727,0,0,0-.611,2.333c.7,1.217,1.994,1.3,3.24,1.657,1.269.361,2.543.708,3.824,1.019a49.437,49.437,0,0,0,7.469,1.255,25.665,25.665,0,0,0,13.254-2.177c.464-.224.911-.463,1.343-.721-.16.224-.323.448-.487.67a1.469,1.469,0,0,0,.521,2c.2.106.4.207.609.306.027.066.057.131.091.2a4.467,4.467,0,0,0,3.053,2.168,18.048,18.048,0,0,0,4.642.059l4.185-.127c.329-.008.658-.019.987-.03l4.967-.15a4.949,4.949,0,0,0,2.791-.522,4.141,4.141,0,0,0,1.55-1.143,6.23,6.23,0,0,0,.769-.408,10.054,10.054,0,0,0,2.146-1.889c1.1.349,2.648.025,2.863-1.363.346-2.221,3.226-3.17,4.571-4.777a7.251,7.251,0,0,0,1.821-4.622c2.736-1.327,4.225-4.825,4.573-7.792.162-1.376.137-2.849.371-4.248a2.329,2.329,0,0,0,.274-.357,29.578,29.578,0,0,0,1.813-3.437,4.724,4.724,0,0,1,2.481-.89,1.971,1.971,0,0,0,.521-3.851l-.03-.011a5.555,5.555,0,0,0-.171-4.5c.029-.148.057-.294.084-.442A6.745,6.745,0,0,0,151,89.472a5.836,5.836,0,0,1,1.813-.862,1.167,1.167,0,0,0,.274-2.1,3.553,3.553,0,0,1-.77-.782,4.972,4.972,0,0,0-.755-4.707l2.043-2.625a1.517,1.517,0,0,0,0-2.111Q152.941,75.754,152.278,75.229Z" transform="translate(-31.623 -25.362)"/>
  </g>
  <g id="FACE" transform="translate(112.183 77.354)">
    <path id="_Ink-3" data-name="ðŸ– Ink" d="M23.523,37.239a5.539,5.539,0,0,1-2.3-.525A5.758,5.758,0,0,1,19.31,35.3a4.459,4.459,0,0,1-.876-1.488,3.788,3.788,0,0,1-.173-1.748.6.6,0,0,1,.646-.534.954.954,0,0,1,.748.351l.128.174a7.278,7.278,0,0,0,1.4,1.5,2.971,2.971,0,0,0,1.852.693A2.705,2.705,0,0,0,25.25,33.1a3.254,3.254,0,0,0,.492-1.188,4.013,4.013,0,0,1,.356-.987,1.716,1.716,0,0,1,1.528-.842,1.666,1.666,0,0,1,1.691,1.263,3.5,3.5,0,0,1-.066,1.754,4.725,4.725,0,0,1-.835,1.583,6.791,6.791,0,0,1-4.774,2.552Zm1.524-11.323A13.948,13.948,0,0,1,20.025,24.8a1.323,1.323,0,0,1-.679-.621,1.239,1.239,0,0,1-.094-.795,1.293,1.293,0,0,1,.4-.695,1.149,1.149,0,0,1,.78-.3,1.467,1.467,0,0,1,.461.078l.255.106h0a11.928,11.928,0,0,0,4.162,1.143,3.052,3.052,0,0,0,1.279-.249,2.2,2.2,0,0,0,.969-.873,2.236,2.236,0,0,0-.038-1.861,4.3,4.3,0,0,0-1.7-1.7,10.029,10.029,0,0,0-2.209-.985.536.536,0,0,1-.314-.6.707.707,0,0,1,.766-.541l.182,0a5.975,5.975,0,0,1,4.034,1.407,4.964,4.964,0,0,1,1.13,1.443,4.634,4.634,0,0,1,.5,1.654,4.1,4.1,0,0,1-.145,1.614,3.693,3.693,0,0,1-.8,1.419,5,5,0,0,1-3.914,1.471h0Zm-23.4-9.2a.521.521,0,0,1-.464-.339.356.356,0,0,1,.121-.413,17.8,17.8,0,0,1,2.954-1.948,20.336,20.336,0,0,1,3.3-1.4,2.123,2.123,0,0,1-.306-.861,1.8,1.8,0,0,1,.1-.89c.037-.122.082-.239.122-.338l.094-.229a1.656,1.656,0,0,1,.06-.319l0-.032,0,0a1.8,1.8,0,0,1,.431-.724A1.618,1.618,0,0,1,8.791,8.8a1.586,1.586,0,0,1,.421-.057,1.644,1.644,0,0,1,.647.134,1.925,1.925,0,0,1,.97.508,2.192,2.192,0,0,1,.583.929c.017.06.036.12.057.178l.033.088-.087-.223a1.423,1.423,0,0,0,.15.368,1.8,1.8,0,0,1,.134.3,2.407,2.407,0,0,1,.072.876c.269,0,.49.012.7.03l.224.02c1.24.115,2.625.329,3.367,1.412a1.026,1.026,0,0,1,.169.551,1.4,1.4,0,0,1-.116.593,1.077,1.077,0,0,1-.792.675,2.77,2.77,0,0,1-.418.031,5.584,5.584,0,0,1-1.621-.321,7.478,7.478,0,0,0-1.328-.313,10.3,10.3,0,0,0-1.135-.061,12.436,12.436,0,0,0-2.232.209,29.218,29.218,0,0,0-3.91,1.1c-.857.284-1.743.578-2.635.81l-.3.076v0A.378.378,0,0,1,1.647,16.717Zm35.14-1.776a.857.857,0,0,1-.807-.512l-.02-.045c-.266-.619-1-.933-2.168-.933a9.09,9.09,0,0,0-1.051.068,12.508,12.508,0,0,0-1.965.429c-.235.068-.463.14-.675.208l-.224.073c-.1.032-.489.242-.48.3,0,.009.013.013.035.013a.488.488,0,0,0,.091-.012l.02,0a.112.112,0,0,1,.1.087.082.082,0,0,1-.048.1.582.582,0,0,1-.252.059.649.649,0,0,1-.466-.214.754.754,0,0,1-.206-.56c.047-.759,1.112-1.215,1.817-1.517.094-.04.183-.078.261-.114l.039-.018c.26-.12.525-.232.789-.332a3.835,3.835,0,0,1-.386-.754,3.312,3.312,0,0,1-.2-.78.763.763,0,0,1,0-.4L31,10.04a1.243,1.243,0,0,1-.026-.272l0-.036h0a1.3,1.3,0,0,1,.35-.853,1.119,1.119,0,0,1,.8-.34,1.452,1.452,0,0,1,.861.308l.067.052A2.791,2.791,0,0,1,34.181,10a2.72,2.72,0,0,1,.453,1.385,4.082,4.082,0,0,1,3.147,1.3,1.225,1.225,0,0,1,.314,1.188L38,14.118A1.363,1.363,0,0,1,36.787,14.941Zm-36.2-6.3a.527.527,0,0,1-.476-.36A2.553,2.553,0,0,1,.162,6.656a7.129,7.129,0,0,1,.711-1.51A8,8,0,0,1,3.488,2.584a14.079,14.079,0,0,1,3.637-1.5L7.441,1c.233-.067.469-.143.7-.216A7.772,7.772,0,0,1,10.4.294,2.65,2.65,0,0,1,12.225.98a1.665,1.665,0,0,1,.509,1.044,1.724,1.724,0,0,1-.228,1.137,2.488,2.488,0,0,1-1.379,1.075,6.553,6.553,0,0,1-1.706.22c-.242.011-.493.022-.745.042A12.08,12.08,0,0,0,2.864,6.724a6.737,6.737,0,0,0-.954.88,5.789,5.789,0,0,1-1.089.966A.443.443,0,0,1,.585,8.638ZM36.66,6.4a1.945,1.945,0,0,1-1.5-.805l-.033-.043A8.87,8.87,0,0,0,33.6,3.968a8.57,8.57,0,0,0-1.878-1.149,9,9,0,0,0-2.119-.661l-.232-.04a4.58,4.58,0,0,0-.727-.077,1.61,1.61,0,0,0-.272.021,1.143,1.143,0,0,0-.436.152.164.164,0,0,1-.015.159.188.188,0,0,1-.155.089.175.175,0,0,1-.085-.022.852.852,0,0,1-.486-.632,1.171,1.171,0,0,1,.45-.951A3.311,3.311,0,0,1,29.281.149,9.725,9.725,0,0,1,31.091,0h0a8.226,8.226,0,0,1,3.963,1.057A8.976,8.976,0,0,1,38.1,3.814a1.5,1.5,0,0,1,.2,1.193,1.812,1.812,0,0,1-.819,1.162A1.616,1.616,0,0,1,36.66,6.4Z" transform="translate(11.409 12.47)"/>
  </g>
  <g id="FACIAL_HAIR" data-name="FACIAL HAIR" transform="translate(104.577 109.479)">
    <path id="_Ink-4" data-name="ðŸ– Ink" d="M18.749,31.73h0a15.433,15.433,0,0,1-3.059-.3,25.114,25.114,0,0,1-4.172-.792c-1.537-.4-3.213-.931-4.847-1.526a42.336,42.336,0,0,1-4.228-1.772A7.284,7.284,0,0,1,.129,25.808a.476.476,0,0,1-.123-.373,3.322,3.322,0,0,1,.958-1.876,2.2,2.2,0,0,1,1.5-.5,9.738,9.738,0,0,1,2.72.592c.491.155,1,.314,1.468.421a38.273,38.273,0,0,0,6.52.538c2.868-.625,2.348-5.126,2.152-6.82h0c-.022-.19-.039-.34-.048-.449a4.831,4.831,0,0,1,.2-1.706,4.481,4.481,0,0,1,.894-1.669,3.221,3.221,0,0,1,2.315-1.123c.054,0,.107,0,.16,0a2.685,2.685,0,0,1,1.574.5,4.04,4.04,0,0,1,1.083,1.2,7.43,7.43,0,0,1,.949,2.616c.033.226.063.508.1.833a18.164,18.164,0,0,0,.521,3.085,3.715,3.715,0,0,0,.578,1.224,1.155,1.155,0,0,0,.92.494,1.3,1.3,0,0,0,.307-.039,14.683,14.683,0,0,0,3.416-1.978c.839-.572,1.631-1.113,2.266-1.452a4.221,4.221,0,0,1,1.138-.181,1.594,1.594,0,0,1,1.294.518,2.488,2.488,0,0,1,.31,2.057,12.093,12.093,0,0,1-1.38,2.682,21.55,21.55,0,0,1-1.864,2.671,13.47,13.47,0,0,1-2.381,2.017A15.194,15.194,0,0,1,24.9,30.546,16.672,16.672,0,0,1,18.749,31.73ZM31.733,10.465h0a5.546,5.546,0,0,1-2.555-.772,11.217,11.217,0,0,0-2.146-.857c-.908-.24-1.894-.448-2.847-.65a19.213,19.213,0,0,1-4.442-1.257A16.72,16.72,0,0,1,13.874,8.6h0l-.4.063a22.67,22.67,0,0,0-3.2.842,15.572,15.572,0,0,1-4.4.949c-.134,0-.266,0-.393-.014a.252.252,0,0,1-.1.017,2.066,2.066,0,0,1-1.406-.926,2.578,2.578,0,0,1-.437-1.28,4.48,4.48,0,0,1,.337-1.93A6.191,6.191,0,0,1,5.132,4.343a9.579,9.579,0,0,1,1.95-1.587A17.087,17.087,0,0,1,12.127.725,22.977,22.977,0,0,1,17.344,0a7.13,7.13,0,0,1,2.883.492,7.553,7.553,0,0,1,2.49-.366,14.962,14.962,0,0,1,4.3.691,12.9,12.9,0,0,1,3.972,1.971A6.246,6.246,0,0,1,32.3,4.179a8.063,8.063,0,0,1,.909,1.713,7.358,7.358,0,0,1,.449,1.758,4.149,4.149,0,0,1-.071,1.524,1.529,1.529,0,0,1-1.3,1.254A4.286,4.286,0,0,1,31.733,10.465Z" transform="translate(23.699 6.129)"/>
  </g>
  <g id="ACCESORIES" transform="translate(88.521 88.978)">
    <path id="_Ink-5" data-name="ðŸ– Ink" d="M39.146,24.884h0A13.261,13.261,0,0,1,32.083,22.8a9.353,9.353,0,0,1-2.925-3,8.643,8.643,0,0,1-1.165-3.494,11.388,11.388,0,0,1,.383-4.253,3.852,3.852,0,0,1-1.125.148,5.49,5.49,0,0,1-1.64-.248,2.351,2.351,0,0,1-1.183-.732c-2.291-.2-4.606-.48-6.844-.754A102.858,102.858,0,0,0,5.125,9.452c-1,0-1.977.029-2.914.088a.655.655,0,0,0-.593.4,1.719,1.719,0,0,0-.034.7,1.725,1.725,0,0,1-.033.693.649.649,0,0,1-.586.4,1.011,1.011,0,0,1-.948-.964,2.57,2.57,0,0,1,.244-1.39,1.783,1.783,0,0,1,.879-.945c.419-.3,1.7-.459,3.69-.459a83.676,83.676,0,0,1,9.582.7A81.5,81.5,0,0,1,24.53,10.493a3.572,3.572,0,0,1,2-.479,14.514,14.514,0,0,1,1.889.166c.2.027.394.052.573.073a12.677,12.677,0,0,1,1.591-2.785,15.625,15.625,0,0,1,2.441-2.6,12.519,12.519,0,0,1,3.037-1.922,8.442,8.442,0,0,1,3.378-.75,7.04,7.04,0,0,1,1.135.092,15.639,15.639,0,0,1,3.286.52,10.275,10.275,0,0,1,2.865,1.272,8.728,8.728,0,0,1,2.3,2.194A11.025,11.025,0,0,1,50.6,9.561a8.115,8.115,0,0,1,2.7-1.578,9.576,9.576,0,0,1,3.2-.561,7.057,7.057,0,0,1,3.61.906,13.526,13.526,0,0,1,3.144-4.46,12.513,12.513,0,0,1,4.721-2.751A5.715,5.715,0,0,1,71.322,0a6.2,6.2,0,0,1,2.6.6,8.835,8.835,0,0,1,2.33,1.6,11.3,11.3,0,0,1,1.866,2.3,11.131,11.131,0,0,1,1.212,2.683A2.557,2.557,0,0,1,80.441,6.7a5.865,5.865,0,0,1,1.2-.12,1.123,1.123,0,0,1,.66.354.756.756,0,0,1,.184.563c-.038.4-.426.812-1.207.812a4.063,4.063,0,0,1-1.757-.5,15.085,15.085,0,0,1,.28,6.261,10.375,10.375,0,0,1-2.044,4.583,10.251,10.251,0,0,1-1.847,1.81,11.08,11.08,0,0,1-2.194,1.294A12.174,12.174,0,0,1,68.8,22.8h0a11.736,11.736,0,0,1-2.292-.224,10.594,10.594,0,0,1-2.158-.672,9.3,9.3,0,0,1-1.92-1.122,8.381,8.381,0,0,1-1.579-1.573,8.673,8.673,0,0,1-1.668-4.051,13.681,13.681,0,0,1,.451-5.572,16.889,16.889,0,0,0-3.929-.5,10.936,10.936,0,0,0-4.917,1.083,11.3,11.3,0,0,1,.418,2.69,11.02,11.02,0,0,1-.225,2.594,11.306,11.306,0,0,1-.8,2.424,11.79,11.79,0,0,1-1.309,2.18,12.182,12.182,0,0,1-9.718,4.827ZM40.5,3.818h0a15.239,15.239,0,0,0-5.324,1.063,13.487,13.487,0,0,0-4.32,4.911,12.475,12.475,0,0,0-1.127,3.052,9.55,9.55,0,0,0-.2,3.1,7.221,7.221,0,0,0,1.475,3.715,8.845,8.845,0,0,0,3.832,2.726,10.98,10.98,0,0,0,2.059.608,11.294,11.294,0,0,0,2.122.2,11.122,11.122,0,0,0,4.668-1.02,10.19,10.19,0,0,0,2.043-1.261,9.7,9.7,0,0,0,1.7-1.748A10.3,10.3,0,0,0,49.5,13.885a10.152,10.152,0,0,0-.109-2.735A9.5,9.5,0,0,0,48.562,8.6a8.7,8.7,0,0,0-1.28-1.911A8.246,8.246,0,0,0,45.5,5.174a8.573,8.573,0,0,0-2.266-1A10.17,10.17,0,0,0,40.5,3.818Zm30.275-2.33a.118.118,0,0,0-.052.01,10.3,10.3,0,0,0-2.009.519c-.356.118-.691.229-.991.3A12.5,12.5,0,0,0,62.56,6.956,12.011,12.011,0,0,0,60.514,13.5a8.049,8.049,0,0,0,.3,2.1,6.98,6.98,0,0,0,.881,1.923,8.078,8.078,0,0,0,3.744,2.951,9.093,9.093,0,0,0,1.766.53,9.7,9.7,0,0,0,1.839.175,9.887,9.887,0,0,0,3.613-.685,9.06,9.06,0,0,0,1.628-.844A8.329,8.329,0,0,0,75.7,18.484a7.95,7.95,0,0,0,1.621-2.335,10.771,10.771,0,0,0,.858-2.871,12.957,12.957,0,0,0-.526-6.139,10.548,10.548,0,0,0-.973-2.081,8.451,8.451,0,0,0-1.392-1.73,7.047,7.047,0,0,0-1.806-1.244,6.935,6.935,0,0,0-2.215-.625.5.5,0,0,1-.234.055.9.9,0,0,1-.142-.013l-.016,0A.646.646,0,0,0,70.777,1.487ZM28.835,10.635h0l-.106.047h0L28.7,10.7l.012,0,.012,0a.27.27,0,0,1,.047.03l.021.015c.008-.022.017-.044.025-.065v0l.019-.047Z" transform="translate(2.957 1.691)"/>
  </g>
</svg>
