<svg id="peep-89" xmlns="http://www.w3.org/2000/svg" width="240" height="324" viewBox="0 0 240 324">
  <g id="BODY" transform="translate(31.056 135.053)">
    <path id="_Skin" data-name="âœ‹ Skin" d="M70.406,2.776C84.467-3.281,94.852,1.421,98.232,8.756c2.675,5.8,2.727,18.085,7.959,22.95,25.465,18.8,31.017,51.563,36.215,80.852a354.249,354.249,0,0,1,4.41,42.748,2.537,2.537,0,0,1-2.516,2.518c-37.611-1.819-75.3-1.681-112.91-.055a18.2,18.2,0,0,1-6.565-.977c-2.952,1.157-4.821-2.4-4.746-4.869-.25-1.635-1.887-2.769-3.079-3.814a23.888,23.888,0,0,1-6.657-8.38c-2.224-4.54-2.529-9.535-4.51-14.09a47.314,47.314,0,0,1-1.667-8.105,25.524,25.524,0,0,1-1.575-8.585C-1.583,106.328.447,99.893.83,95.838c.655-4.707,1.351-9.414,2.2-14.09,4.98-32.175,27.657-50.554,58.8-57.04C68.089,20.723,68.089,3.774,70.406,2.776Z" transform="translate(15.634 -11.809)" fill="#d08b5b"/>
    <path id="_Knife" data-name="ðŸ”ª Knife" d="M80.345,62.659a24.845,24.845,0,0,1-3.274-.215c-.394-.053-.8-.119-1.218-.195l-.3-.057-.3-.061-.009-.057,0-.015a.036.036,0,0,0-.035-.022.062.062,0,0,0-.049.026l-.006.012,0,.012,0,.021-.3-.065a38.2,38.2,0,0,1-3.859-1.091,83.116,83.116,0,0,1-10.992-4.69A104.3,104.3,0,0,1,40.612,43.582c-3.519-2.9-6.883-6.078-9.42-8.517.071-.2.142-.4.21-.6v0c.153-.439.3-.853.452-1.256.446-1.162.923-2.448,1.5-4.047l.293-.812.328-.911.07-.2.307-.9a7.152,7.152,0,0,1,1.954-3.353,7.934,7.934,0,0,1,.778-.556l.135-.086.272-.169.228.268.231.267a61.264,61.264,0,0,0,5.282,5.211l.529.471.509.451,2.592,2.29,1.155,1.012c1.224,1.067,2.475,2.145,3.685,3.188l.01.008c1.075.926,2.187,1.884,3.275,2.831,5.4,4.7,11.792,10.265,18.205,15.936,3.538,3.126,6.655,5.906,9.53,8.5-.112-.006-.23-.009-.36-.009-.31,0-.627.017-.933.034-.283.015-.575.031-.863.034ZM7.056,7.5h0a2.927,2.927,0,0,0-1.148-.659l-.08-.029-.365-.129-1.28-.467L1.766,5.338l-.045-.016c-.1-.035-.244-.071-.391-.11a2.909,2.909,0,0,1-1.2-.491.643.643,0,0,1-.122-.544l.006-.043.027-.17.021-.117.025-.124a8.507,8.507,0,0,1,.942-2.412A2.546,2.546,0,0,1,2.066.288,2.843,2.843,0,0,1,3.377,0,7.908,7.908,0,0,1,5.816.513l.062.021.244.087.242.09L7.1.988l.33.127c1.25.492,2.474,1.09,3.657,1.67h0c.471.231.958.469,1.441.7l.34.159-.37.163-.248.11L12,4.028A19.533,19.533,0,0,0,9.292,5.477,8.9,8.9,0,0,0,7.056,7.5Z" transform="translate(67.183 18.599)" fill="#fdea6b"/>
    <path id="_Ink" data-name="ðŸ– Ink" d="M27.312,144.565a1.588,1.588,0,0,1-1.181-.465,1.209,1.209,0,0,1-.295-.951l.04-.444a28.348,28.348,0,0,1,1.048-6.007c-.1,0-.18,0-.258,0a3.951,3.951,0,0,1-1.261-.171,8.188,8.188,0,0,1-1.954-1.042,13.8,13.8,0,0,1-1.854-1.5,15.609,15.609,0,0,1-1.583-1.788,22.892,22.892,0,0,1-2.433-4.06,39.688,39.688,0,0,1-1.752-4.405c-1-2.983-1.971-6.121-2.955-9.593l-.982-3.484A123.33,123.33,0,0,1,8.68,97.181a.853.853,0,0,1-.336.262,5.073,5.073,0,0,1-2.076.464,4.754,4.754,0,0,1-2.133-.515,6.223,6.223,0,0,1-1.779-1.359,8.1,8.1,0,0,1-1.314-1.925A8.41,8.41,0,0,1,.3,91.9a29.873,29.873,0,0,1-.282-5.878v-.009c0-.231.008-.47.012-.7l0-.235c.006-.42.011-.858.015-1.245C.077,81.742.1,79.59.21,77.475c.1-2.079.308-4.2.6-6.294.288-2.045.671-4.128,1.14-6.19.456-2.009,1.006-4.055,1.634-6.082C4.2,56.938,4.9,54.93,5.673,52.941c1.592-4.087,3.173-7.7,4.834-11.051.924-1.862,1.883-3.658,2.85-5.337,1.029-1.786,2.1-3.5,3.19-5.092a48.384,48.384,0,0,1,3.471-4.537,32.127,32.127,0,0,1,4.1-3.974,43,43,0,0,1,10.338-5.96,118.084,118.084,0,0,1,11.584-4.022A114.011,114.011,0,0,1,59.154,9.752a1.011,1.011,0,0,1,.175-.016.724.724,0,0,1,.645.35c.141.235.282.489.443.8a4.912,4.912,0,0,1,1.5-.5c.236-.052.458-.1.649-.16.549-.17,1.227-.321,1.945-.481,1.79-.4,3.818-.85,4.892-1.806a9.353,9.353,0,0,0,2.015-2.625,23.653,23.653,0,0,0,1.3-3.057l.141-.388C73.321.577,73.815,0,74.1,0a.2.2,0,0,1,.159.081,2.277,2.277,0,0,1-.011,1.538l-.076.344c-.209.937-.447,1.941-.775,2.931a12.589,12.589,0,0,1-1.249,2.748c-1.584,2.536-5.392,3.7-8.452,4.642-.5.154-.976.3-1.425.445a.848.848,0,0,1,0,.218,12.307,12.307,0,0,1,2.934.869,19.186,19.186,0,0,1,4.819,3.02,10.827,10.827,0,0,1,1.756,1.939l4.961-2.156c.282-.122.57-.251.848-.376l.007,0a17.186,17.186,0,0,1,4.211-1.462,5.771,5.771,0,0,1,.908-.069,6.976,6.976,0,0,1,2.366.417,4.956,4.956,0,0,1,1.974,1.259,3.155,3.155,0,0,1,.831,2.5,1.1,1.1,0,0,1-.636.9c.183-.015.365-.023.541-.023.072,0,.144,0,.215,0a4.154,4.154,0,0,1,1.7.467A3.369,3.369,0,0,1,91.057,21.4a1.971,1.971,0,0,1,.3.874,2,2,0,0,1-.182,1,.385.385,0,0,1-.358.255.609.609,0,0,1-.563-.5,2.192,2.192,0,0,0-2.52-2.081,12.7,12.7,0,0,0-2.675.409,48.247,48.247,0,0,0-5.326,1.528,25.332,25.332,0,0,0-5.328,2.57c-1.731,1.122-3.319,2.465-3.213,4.679a.041.041,0,0,1-.011.032.057.057,0,0,1-.041.018.042.042,0,0,1-.039-.024,2.548,2.548,0,0,1-.221-1.421,3.721,3.721,0,0,1,.483-1.365,7.965,7.965,0,0,1,1.977-2.185,25.089,25.089,0,0,1,6.8-3.591,35.856,35.856,0,0,1,3.783-1.126l.295-.072.452-.111h0c.605-.15,1.23-.3,1.856-.406a.9.9,0,0,1-.653-.66l-.014-.053a2.867,2.867,0,0,0-1.054-1.7,2.9,2.9,0,0,0-1.723-.483,8.8,8.8,0,0,0-2.98.657c-1.017.378-2.023.861-2.831,1.249h0c-.395.19-.736.353-1.033.484-.516.227-1.043.456-1.552.676l-.019.008c-1.214.526-2.47,1.07-3.685,1.644l-.223.106a16.072,16.072,0,0,0-1.988,1.1,6.584,6.584,0,0,0-1.658,1.523,5.226,5.226,0,0,0-.9,1.954,7.044,7.044,0,0,0-.138,2.116,21.363,21.363,0,0,0,.951,4.348c.222.76.431,1.478.584,2.165a14.641,14.641,0,0,1,.423,2.9A7.156,7.156,0,0,1,67.7,39.84v0c-.032.118-.064.24-.1.36l-.114.448a.194.194,0,0,1,.146.081.15.15,0,0,1,.025.134,27.422,27.422,0,0,1-1.583,3.927c-.6,1.242-1.254,2.433-1.983,3.75-1.68,3.037-3.015,5.318-4.329,7.395-2.679,4.234-5.607,8.437-8.7,12.493-3.048,3.99-6.326,7.926-9.746,11.7-1.424,1.572-2.923,3.122-4.373,4.621-1.876,1.94-3.816,3.947-5.614,6.02A37.4,37.4,0,0,0,27.3,96.225,26.408,26.408,0,0,0,25.64,99.51l-.093.225a7.391,7.391,0,0,1-1.491,2.487.72.72,0,0,1-1.192-.315,6.111,6.111,0,0,1,.526-3.656A23.417,23.417,0,0,1,25.248,94.9l.021-.033.1-.157a47.823,47.823,0,0,1,4.7-6.169c.459-.521.941-1.053,1.475-1.625a34.947,34.947,0,0,1-4.456.815h0c-.788.109-1.6.222-2.4.362a53.264,53.264,0,0,0-6.9,1.608,30.245,30.245,0,0,0-5.932,2.589A23.1,23.1,0,0,0,9.24,94.011c-.061.046-.122.1-.181.143l-.013.011-.037.03c1.159,2.912,2.1,5.962,3.013,8.911v0c.152.491.309,1,.464,1.5.794,2.551,1.55,5.052,2.186,7.162l1.617,5.379c.216.718.43,1.463.636,2.183l0,.006a41.2,41.2,0,0,0,3.556,9.435,14.693,14.693,0,0,0,3.46,4,12.758,12.758,0,0,0,2.142,1.34,9.223,9.223,0,0,1,.972.621h0c.117.082.237.166.357.247a1.345,1.345,0,0,1,1.023-.468,1.543,1.543,0,0,1,.244.02l.06.011a5.183,5.183,0,0,0,1,.094,7.124,7.124,0,0,0,2.045-.329,12.645,12.645,0,0,0,1.926-.778,20.823,20.823,0,0,0,4.479-2.84,52.089,52.089,0,0,0,6.755-7.6l.16-.205A167.8,167.8,0,0,0,64.336,91.4c2.547-5.412,5.067-11.206,7.487-17.219,1.285-3.189,2.411-6.042,3.442-8.724l.148-.39c.184-.489.366-.994.542-1.482a28.514,28.514,0,0,1,2.959-6.466.153.153,0,0,1,.048-.05.408.408,0,0,1,.059-.186A3.414,3.414,0,0,1,80.8,55.686h0c.169-.068.343-.138.51-.212.93-.418,1.873-.841,2.786-1.25l.017-.008c.184-.082.387-.161.6-.244a4.547,4.547,0,0,0,1.762-.99,5.506,5.506,0,0,0,.909-2.079c.077-.267.149-.52.229-.749.681-1.946,1.431-3.9,2.156-5.8v0l.023-.061c.153-.4.3-.814.45-1.214a24.957,24.957,0,0,1,1.69-3.924,5.936,5.936,0,0,1,1.409-1.646A14.809,14.809,0,0,1,95.14,36.3l.281-.17a2.839,2.839,0,0,0,1.334-1.344,1.664,1.664,0,0,0-.187-1.427A3.059,3.059,0,0,0,95.5,32.326a3.1,3.1,0,0,0-1.578-.413,5.51,5.51,0,0,0-2.136.5,17.332,17.332,0,0,0-1.943,1.015c-.491.287-.986.6-1.464.893A25.5,25.5,0,0,1,84.9,36.249l-.012,0a.038.038,0,0,1-.034-.026.039.039,0,0,1,.008-.044,31.043,31.043,0,0,1,4.17-3.027l0,0,.525-.34.4-.259a9.3,9.3,0,0,1,3.554-1.562.219.219,0,0,1-.163-.233.262.262,0,0,1,.233-.231,27.584,27.584,0,0,1,3.159-.14,19.657,19.657,0,0,0,4.409-.361,10.622,10.622,0,0,0,3.112-1.294,12.7,12.7,0,0,0,2.609-2.142,21.689,21.689,0,0,0,2-2.5c.532-.766,1.061-1.6,1.713-2.706.251-.427.5-.861.748-1.28.369-.635.751-1.291,1.135-1.933.088-.148.182-.321.288-.528a5.72,5.72,0,0,1-1.676-.738,11.646,11.646,0,0,1-1.4-1.035,8.9,8.9,0,0,1-1.57-1.766,12.02,12.02,0,0,1-1.126-2.08A13.885,13.885,0,0,1,105.915,6.7a16.91,16.91,0,0,1,.2-2.728,18.531,18.531,0,0,1,.617-2.659.23.23,0,0,1,.225-.162.215.215,0,0,1,.215.162c.315,1.13.524,2.317.726,3.465a22.565,22.565,0,0,0,1.471,5.543,10.033,10.033,0,0,0,2.136,3.018,6.694,6.694,0,0,0,1.462,1.11,6.109,6.109,0,0,0,.593.275,2.861,2.861,0,0,1,1.105.68,1.014,1.014,0,0,1,.076.091,1.452,1.452,0,0,1,.193-.014.947.947,0,0,1,.511.135l.04.027.009-.013c-.861-.588-1.709-1.157-2.613-1.663a.2.2,0,0,1-.108-.234.248.248,0,0,1,.283-.183l.6.105a22,22,0,0,1,5.841,1.645,42.966,42.966,0,0,1,5.782,3.409,53.212,53.212,0,0,1,9.8,8.868A53.987,53.987,0,0,1,141.9,37.659a63,63,0,0,1,4.58,11.292c.654,2.188,1.234,4.447,1.773,6.9.48,2.188.915,4.482,1.332,7.015.773,4.7,1.357,9.509,1.921,14.158l.019.155c.07.575.142,1.17.213,1.753.581,4.766,1.113,9.628,1.581,14.449l.126,1.316c.134,1.422.277,2.866.415,4.262l0,.023c.1.976.206,2.083.309,3.148a2.411,2.411,0,0,1,.2,2.137c.2,2.224.361,4.2.48,6.028.334,5.194.55,10.45.642,15.621.064,3.618-.008,7.292-.077,10.846v.007c-.032,1.635-.065,3.326-.084,4.99a1.621,1.621,0,0,1-.541,1.249,1.777,1.777,0,0,1-1.169.416,1.8,1.8,0,0,1-1.178-.417,1.641,1.641,0,0,1-.558-1.248c-.095-4.1-.333-8.267-.564-12.3-.1-1.707-.2-3.472-.288-5.213-.06-1.163-.118-2.325-.183-3.614-.222-4.412-.452-8.974-.727-13.461-.033-.517-.064-1.048-.1-1.625a7.011,7.011,0,0,1-1.229.3c-.135.024-.262.047-.387.072l-.127.026a26.922,26.922,0,0,1-3.132.476l-.342.029c-.386.027-1.317.055-2.446.055a40.558,40.558,0,0,1-6.312-.412c.221,3.577.459,7.386.718,11.164.174,2.54.266,5.123.354,7.621.059,1.676.12,3.409.206,5.115.1,1.908.223,4.129.507,6.339.119.929.249,1.917.4,2.878l.077.478q.019.114.038.225h0a3.192,3.192,0,0,1-.083,2.033,1.717,1.717,0,0,1-.2,1.515,1.268,1.268,0,0,1-1.077.521c-.045,0-.092,0-.139-.005-7.458-.558-15.312-.849-24.011-.888-.748,0-1.513-.005-2.276-.005-10.043,0-20.249.309-30.118.608h-.025c-2.969.09-6.04.183-9.06.266l-3.736.1-.471.013c-5.617.154-11.425.313-17.14.313a189.979,189.979,0,0,1-21.243-1.026,1.106,1.106,0,0,1-.467.9A1.705,1.705,0,0,1,27.312,144.565ZM7.869,95.432a.857.857,0,0,1,.587.246c-.04-.282-.078-.575-.116-.894l-.016.015c-.258.235-.524.478-.8.706A.88.88,0,0,1,7.869,95.432Zm125.5-17.937a.038.038,0,0,1,.039.037l.008.057c.62.128,1.234.233,1.823.313a24.856,24.856,0,0,0,3.272.215h.225c.289,0,.581-.019.863-.034h0c.306-.017.622-.034.932-.034.127,0,.245,0,.36.009-2.877-2.594-5.994-5.374-9.53-8.5-6.4-5.656-12.792-11.229-18.2-15.936-1.092-.95-2.207-1.91-3.285-2.839-1.591-1.371-3.236-2.788-4.841-4.2l-2.592-2.29a66.212,66.212,0,0,1-6.55-6.4l-.228-.268a10.5,10.5,0,0,0-1.185.811,7.909,7.909,0,0,0-2.1,3.787h0c-.075.221-.152.45-.229.669l-.035.1c-.656,1.824-1.357,3.765-2.088,5.671-.155.4-.3.82-.453,1.26-.069.2-.139.4-.21.6,2.538,2.44,5.9,5.614,9.421,8.517a104.289,104.289,0,0,0,19.375,12.681,83.136,83.136,0,0,0,10.992,4.69,37.441,37.441,0,0,0,4.16,1.156l0-.021A.06.06,0,0,1,133.367,77.495ZM61.544,15.457h0a2.842,2.842,0,0,0-1.311.288A2.546,2.546,0,0,0,59.2,16.768a8.365,8.365,0,0,0-.966,2.535l-.021.117-.005.032a.808.808,0,0,0,.094.725,2.906,2.906,0,0,0,1.2.491c.176.047.327.087.436.126l2.418.878,1.207.441.239.085a3.5,3.5,0,0,1,1.426.758,9.335,9.335,0,0,1,2.638-2.278A26.7,26.7,0,0,1,71.033,19.1c-.6-.278-1.2-.572-1.778-.856h0c-1.287-.63-2.619-1.282-3.988-1.8l-.732-.277a9.025,9.025,0,0,0-2.987-.711ZM73.379,56.01h-.007a5.244,5.244,0,0,1-2.638-.816,8.086,8.086,0,0,1-2.08-1.861.233.233,0,0,1-.038-.254.225.225,0,0,1,.2-.131.245.245,0,0,1,.158.063,12.761,12.761,0,0,0,4.013,2.078l.482.181a.412.412,0,0,1,.256.46A.332.332,0,0,1,73.379,56.01ZM77.9,33.086a.086.086,0,0,1-.071-.034.065.065,0,0,1-.006-.063,8.774,8.774,0,0,1,1.614-2.725,12.935,12.935,0,0,1,2.4-2.134,29.511,29.511,0,0,1,5.735-2.95l.135-.054a8.238,8.238,0,0,1,2.931-.625,3.7,3.7,0,0,1,2.94,1.239,4.024,4.024,0,0,1,.9,2.9,2.566,2.566,0,0,1-.949,1.835.62.62,0,0,1-.824-.105.4.4,0,0,1-.021-.387,5.407,5.407,0,0,0,.393-1.528A2.76,2.76,0,0,0,92.855,27a2.109,2.109,0,0,0-1.382-1.1,3.5,3.5,0,0,0-1-.139,6.27,6.27,0,0,0-1.994.38c-.66.223-1.316.518-1.9.778l-.332.149-.442.195c-2.977,1.322-5.988,2.939-7.845,5.789A.081.081,0,0,1,77.9,33.086Z" transform="translate(8.873 3.092)"/>
  </g>
  <g id="HEAD" transform="translate(78.592 38.043)">
    <path id="_Skin-2" data-name="âœ‹ Skin" d="M21.411.07C53.365-1.5,75.046,23.758,75.979,33.833c.647,6.993.208,16.319.208,22.568,0,3.19,1.605,12.885-.208,17.534-4.037,10.347-8.6,18.453-21.233,18.453s-31.9-6.566-38.514-15.034C15.024,75.807.017,64.489.017,55.593.017,36.613-1.39,1.195,21.411.07Z" transform="translate(10.104 13.428)" fill="#d08b5b"/>
    <path id="_Ink-2" data-name="ðŸ– Ink" d="M76.587,114.453a24.906,24.906,0,0,1-6.448-.861l-.268-.073a24.956,24.956,0,0,1-3.759-1.321,13.921,13.921,0,0,1-1.765-.957,9.2,9.2,0,0,1-1.512-1.206,1.3,1.3,0,0,1-.367-.768,1.666,1.666,0,0,1,.119-.841,1.311,1.311,0,0,1,1.175-.886,1.266,1.266,0,0,1,.468.094,21.958,21.958,0,0,1,2.073,1c.611.322,1.242.654,1.892.927a22.989,22.989,0,0,0,8.723,1.737,21.887,21.887,0,0,0,2.982-.2,20.287,20.287,0,0,0,6.645-2.127,21.632,21.632,0,0,0,5.5-4.114,22.7,22.7,0,0,0,4-5.622,22.451,22.451,0,0,0,2.141-6.651,47.431,47.431,0,0,0,.368-7.829l-.03-2.864c-.021-2.168-.035-4.689.056-7.187.106-2.932.309-5.951.62-9.23l.152-1.6c.164-1.7.369-3.682.732-5.594h0c-.277,0-2.3-3.435-3.794-6.019a2.63,2.63,0,0,1-.992-1.4,2.163,2.163,0,0,1-.057-.368c-.274-.432-.564-.853-.862-1.251l-.066-.03c-.051-.023-.09-.042-.114-.056a4.141,4.141,0,0,1-.9-.7,4.433,4.433,0,0,1-.689-.908,4.3,4.3,0,0,1-.316-.692A22.39,22.39,0,0,0,90.6,45.354l-.1-.077-.077-.059a4.256,4.256,0,0,1-1.9-1.319c-.2-.124-.4-.248-.609-.368a4.956,4.956,0,0,1-1.839-.4,8.68,8.68,0,0,1-1.5-.865,8,8,0,0,0-1.6-.9,1.824,1.824,0,0,0-.652-.113,4.938,4.938,0,0,0-1.316.253l-.015,0a5.009,5.009,0,0,1-1.359.257,2.21,2.21,0,0,1-.315-.022,3.2,3.2,0,0,1-.927-.284,17.735,17.735,0,0,1-2.269,2.064,11.067,11.067,0,0,1-3.794,1.7A4.285,4.285,0,0,1,69.955,46.6a48.39,48.39,0,0,1-6.839,4.505,2.359,2.359,0,0,1-1.138.316,9.655,9.655,0,0,1-2.452,1.094,2.013,2.013,0,0,1-.562.079,2.227,2.227,0,0,1-.269-.017l-.756.617a2.688,2.688,0,0,1-1.624.648c-.313.24-.645.474-1.014.716a2.142,2.142,0,0,1-1.18.322c-.054,0-.109,0-.164-.005a2.222,2.222,0,0,1-1.579.661,2.426,2.426,0,0,1-.935-.191c-.124.073-.236.132-.353.187a3.926,3.926,0,0,1-.541.209,3.992,3.992,0,0,1-2.919,1.281,3.887,3.887,0,0,1-.389-.02,5.536,5.536,0,0,1-1.331.594,5.026,5.026,0,0,1-1.42.209c-.1,0-.2,0-.293-.009-.153.773-.286,1.566-.4,2.426l-.011.594c0,.1,0,.173,0,.221v.02c.052,1.321.093,2.665.132,3.964v.006c.038,1.262.078,2.566.128,3.849l.009.206c.009.186.022.384.035.594v0c.1,1.659.246,3.932-.8,5.053a2.057,2.057,0,0,1-.739.5,2.808,2.808,0,0,1-1.05.184h-.106a3.988,3.988,0,0,1-1.827-.583,13.294,13.294,0,0,1-1.62-1.124l-.136-.107-.227-.178c-.257-.033-.517-.078-.768-.121a10.669,10.669,0,0,0-1.4-.177c-.115,0-.232-.006-.349-.006a10.646,10.646,0,0,0-2.381.272,7.013,7.013,0,0,0-4.065,2.352c-.078.1-.157.209-.249.349a1.842,1.842,0,0,1-.356.662,6.783,6.783,0,0,0-.429,3.56,9.928,9.928,0,0,0,3.5,6.395,10.174,10.174,0,0,0,3.35,1.823l.126.04c1.7.531,2.357,1.557,3.272,2.977l.029.045A30.26,30.26,0,0,0,40.8,95.427c.65.725,1.4,1.425,2.117,2.1a15.488,15.488,0,0,1,4.094,5.079.647.647,0,0,1-.069.621.928.928,0,0,1-.74.4.7.7,0,0,1-.188-.025,8.08,8.08,0,0,1-2.7-1.395,24.576,24.576,0,0,1-2.277-2.049l0,0-.178-.174C39.72,98.868,38.719,97.8,37.8,96.715a2.192,2.192,0,0,1-.656.185,7.083,7.083,0,0,1-.866.056,3.9,3.9,0,0,1-2.106-.536c-.043,0-.087.006-.13.006a1.543,1.543,0,0,1-1.031-.4,5.154,5.154,0,0,1-.759-.872c-.177.016-.329.023-.467.023a2.9,2.9,0,0,1-.479-.036,1.21,1.21,0,0,1-.419-.116,1.837,1.837,0,0,1-.681-.47,1.946,1.946,0,0,1-.445-.8,2.318,2.318,0,0,1-.066-.92,2.175,2.175,0,0,1-.251-.068,2.261,2.261,0,0,1-1.283-1.1,4.8,4.8,0,0,1-1.29-1.066,4.64,4.64,0,0,1-.911-1.66,3.94,3.94,0,0,1-.551-.311A3.856,3.856,0,0,1,24,86.884a3.2,3.2,0,0,1-.086-2.218l.017-.047c.024-.065.07-.18.127-.311l0-.02c-.008-.1-.015-.2-.021-.3l-.017-.317-.254-.108a4.234,4.234,0,0,1-1.553-.96,2.719,2.719,0,0,1-.719-1.652,1.256,1.256,0,0,1,.263-.848V80.03c-.089-.046-.166-.09-.229-.13a2.341,2.341,0,0,1-.809-.884,2.238,2.238,0,0,1-.257-1.167,3.272,3.272,0,0,1,.919-1.891l.132-.154.025-.028.012-.014-.306-.1a2.908,2.908,0,0,1-.512-.2,2.982,2.982,0,0,1-1.2-1.159l-.019-.03c-.032-.05-.065-.1-.094-.155a2.734,2.734,0,0,1-.166-2.1,2.084,2.084,0,0,1,.094-.228,2.661,2.661,0,0,1-1.185-.785,2.673,2.673,0,0,1-.243-2.884,2.945,2.945,0,0,1-.029-.868,2.356,2.356,0,0,1-.7-1.141,2.121,2.121,0,0,1,.082-1.259,4.278,4.278,0,0,1,.683-1.176,2.57,2.57,0,0,1,.02-1.864,3.186,3.186,0,0,1-.152-.939,3.1,3.1,0,0,1,.149-.992,3.191,3.191,0,0,1,.422-.836,2.559,2.559,0,0,1-.521-1.041,1.951,1.951,0,0,1,.077-1.154,9.6,9.6,0,0,1,.729-1.5,3.062,3.062,0,0,1-.23-1.182,2.813,2.813,0,0,1,.2-1.069,3.044,3.044,0,0,1,.544-.86,2.541,2.541,0,0,1,.136-1.441,1.938,1.938,0,0,1,.936-1.048,7.359,7.359,0,0,1,1.25-.444c.192-.6.379-1.157.571-1.7.3-.855.646-1.737,1.013-2.62a6.879,6.879,0,0,1-.648.5,9.329,9.329,0,0,1-2.44,2.156,3.127,3.127,0,0,1-1.587.453,2.757,2.757,0,0,1-1.475-.425,2.99,2.99,0,0,1-1.07-1.2,3.632,3.632,0,0,1-2.166.777,3.113,3.113,0,0,1-.364-.022,2.858,2.858,0,0,1-1.439-.585,2.36,2.36,0,0,1-.845-1.293,2.192,2.192,0,0,1-.064-.49,7.36,7.36,0,0,1-1.933,1.057,1.333,1.333,0,0,1-.416.067,1.469,1.469,0,0,1-.983-.4,1.565,1.565,0,0,1-.506-.943,1.469,1.469,0,0,1,.154-.9l-.087-.034-.043-.019a1.955,1.955,0,0,1-1-1.078,2,2,0,0,1-.725.137A1.829,1.829,0,0,1,4.4,42.411a1.789,1.789,0,0,1-.674-.973A7.737,7.737,0,0,1,3.62,37.5,4.521,4.521,0,0,1,2.327,36,4.913,4.913,0,0,1,2.3,31.345a1.644,1.644,0,0,1-.945-.969,2.1,2.1,0,0,1,.07-1.684A2.257,2.257,0,0,1,.367,26.8,1.634,1.634,0,0,1,.1,26.067a1.9,1.9,0,0,1,.125-.876,3.912,3.912,0,0,1,.678-1.128,5.856,5.856,0,0,1,.989-.916,6.592,6.592,0,0,1-.7-1.773A1.639,1.639,0,0,1,.016,19.981,1.7,1.7,0,0,1,.31,18.766a1.74,1.74,0,0,1,.994-.682,5.337,5.337,0,0,1,.335-.814,3.563,3.563,0,0,1-.256-1.563,4.2,4.2,0,0,1,.431-1.63A3.541,3.541,0,0,1,2.7,12.942a4.73,4.73,0,0,1,1.213-.736,1.959,1.959,0,0,1,.833-2.143,11.112,11.112,0,0,1,3.01-1.637A3.473,3.473,0,0,1,8.093,6.6a2.406,2.406,0,0,1,1.351-1.2,3.021,3.021,0,0,1,1.022-.161h.018a3.654,3.654,0,0,1,1.248-1.422,1.739,1.739,0,0,1,1.025-.3,2.11,2.11,0,0,1,1.882,1.018l.023.049c.015.033.03.065.045.1v0l.028.059a2.505,2.505,0,0,1,.673-1.266,2.75,2.75,0,0,1,.829-.592,2.064,2.064,0,0,1,.842-.179,2.739,2.739,0,0,1,1.066.239,6.141,6.141,0,0,1,.612-1.165A2.759,2.759,0,0,1,19.718.9,2.32,2.32,0,0,1,20.837.611a2.458,2.458,0,0,1,1.35.412A4.005,4.005,0,0,1,23.63.185,3.756,3.756,0,0,1,24.747,0a3.174,3.174,0,0,1,2.7,1.708,1.268,1.268,0,0,1,.246-.025A1.309,1.309,0,0,1,28,1.722c.056.014.2.069.256.092a1.327,1.327,0,0,1,.191.1l.035-.019a2.763,2.763,0,0,1,.435-.4,1.44,1.44,0,0,1,.843-.283,1.393,1.393,0,0,1,.2.015l.158-.058A3.99,3.99,0,0,1,31.438.943a3.14,3.14,0,0,1,1.315.276,2.928,2.928,0,0,1,1.092.868,3.67,3.67,0,0,1,.442.74,2.775,2.775,0,0,1,.753.38,2.78,2.78,0,0,1,.5-.181,3.213,3.213,0,0,1,.8-.1,3.431,3.431,0,0,1,2.05.7,3.141,3.141,0,0,1,.905,1.1,2.491,2.491,0,0,1,.73.308,4.077,4.077,0,0,1,.61-.257,6.381,6.381,0,0,1,1.88-.279c.161,0,.324.006.484.018a2.824,2.824,0,0,1,1.39.512,2.95,2.95,0,0,1,.973,1.117,2.057,2.057,0,0,1-.152,2.122l-.035.051a6.142,6.142,0,0,0-.386.622,4.956,4.956,0,0,1,1.163.713,4.5,4.5,0,0,1,1.045,1.227,4.994,4.994,0,0,1,.545,1.437,8.561,8.561,0,0,1,.011,3.16l-.014.088h0a1.589,1.589,0,0,1,1.249.837,1.175,1.175,0,0,1-.05,1.167l-.027.044c-.467.723-.9,1.508-1.32,2.267-.258.467-.525.95-.8,1.418a33.569,33.569,0,0,0-5.723,2.681,26.257,26.257,0,0,0-3.144,3.2A18.314,18.314,0,0,0,36.423,29a.949.949,0,0,0,.414.1.918.918,0,0,0,.63-.261,28.445,28.445,0,0,1,10.328-5.964.93.93,0,0,0,.554-.476,41.637,41.637,0,0,1,5.14-1.121c.239-.229.489-.456.729-.676h0c.239-.219.487-.444.724-.671a1.526,1.526,0,0,1,1.938-.207c.272-.124.555-.237.865-.346l.182-.062.1-.034c.041-.015.084-.03.126-.043a8.5,8.5,0,0,1,2.527-.376,13.363,13.363,0,0,1,3.372.5l.256.067a4.424,4.424,0,0,0,1.153.169,5.075,5.075,0,0,0,1.272-.189l.1-.026a7.878,7.878,0,0,1,1.944-.3,3.894,3.894,0,0,1,1.025.129,5.106,5.106,0,0,1,2.408,1.636l.07.075a.958.958,0,0,0,.85.381h.093l.458-.013c.247-.007.45-.01.641-.01a7.757,7.757,0,0,1,2.174.247,4.154,4.154,0,0,1,1.9,1.127,7.6,7.6,0,0,1,1.3,1.836l.045.1c.015.033.029.061.039.08a2.78,2.78,0,0,0,.368-.1,2.479,2.479,0,0,1,.244-.072,5.658,5.658,0,0,1,1.076-.108,4.477,4.477,0,0,1,3.587,1.793c.137.168.312.425.483.673.16.233.324.473.458.643a3.321,3.321,0,0,1,.275.263,2.7,2.7,0,0,0,1.134.305c.166.02.323.039.472.069a7.554,7.554,0,0,1,2.043.672,4.071,4.071,0,0,1,.871.6,3.223,3.223,0,0,1,.661.852,5.9,5.9,0,0,1,.5,1.629l0,.01.025.122a3.691,3.691,0,0,1,1.115,1.229,6,6,0,0,1,.38.823,4.734,4.734,0,0,0,.509,1.02,2.887,2.887,0,0,0,.976.757l0,0,.169.1.16.094a7.207,7.207,0,0,1,1.625,1.242,4.2,4.2,0,0,1,1,1.776l.035.129c.01.032.023.073.038.119.072.224.18.562.125.638a.036.036,0,0,1-.03.015.087.087,0,0,1-.036-.01,1.7,1.7,0,0,0,.421.131c.079.017.153.034.21.053a3.493,3.493,0,0,1,2.071,1.559,4.709,4.709,0,0,1,.484,1.745v0q.014.1.028.193l.043.275c.011.07.025.147.037.219l.014.074,0,0c.156.068.311.142.46.22a2.336,2.336,0,0,1,1.2,2,1.794,1.794,0,0,1-.315,1.018,3.041,3.041,0,0,1,.356.745,4.016,4.016,0,0,1,.127,1.662,9.5,9.5,0,0,1-.438,1.89c-.029.093-.051.2-.075.309a2.207,2.207,0,0,1-.148.506,1.284,1.284,0,0,1,.3.932,2.241,2.241,0,0,1-.209.718,1.346,1.346,0,0,1-.485.563,11.508,11.508,0,0,1-1.093,2.91,1.153,1.153,0,0,1-.179.256c.035,1.919-.032,3.877-.1,5.77-.048,1.407-.1,2.861-.1,4.286-.017,3.3.043,6.871.183,10.91.037,1.059.093,2.145.146,3.194v0c.126,2.47.257,5.024.171,7.524a34.392,34.392,0,0,1-.317,3.729,24.7,24.7,0,0,1-.8,3.668,23.877,23.877,0,0,1-3.209,6.659,25.493,25.493,0,0,1-5.043,5.4,24.3,24.3,0,0,1-13.9,5.341C77.461,114.441,77.022,114.453,76.587,114.453Zm-37.4-30.579a1.117,1.117,0,0,1-.539-.145,4.205,4.205,0,0,1-1.2-1.167,8.013,8.013,0,0,0-.595-.7,9.557,9.557,0,0,0-2.007-1.511,13.1,13.1,0,0,0-4.866-1.486.135.135,0,0,1-.125-.123.218.218,0,0,1,.125-.22,6.718,6.718,0,0,1,2.463-.436,9.256,9.256,0,0,1,3.261.616l.129.05A12.336,12.336,0,0,1,38.5,80.2a3.917,3.917,0,0,1,1.73,2.3,1.207,1.207,0,0,1-.257.986A1.032,1.032,0,0,1,39.187,83.874Z" transform="translate(-13.914 -7.186)"/>
  </g>
  <g id="FACE" transform="translate(112.183 77.354)">
    <path id="_Ink-3" data-name="ðŸ– Ink" d="M22.824,40.539a8.045,8.045,0,0,1-3.052-.61,8.621,8.621,0,0,1-1.992-1.145,8.487,8.487,0,0,1-1.622-1.636,1.676,1.676,0,0,1-.338-1.3,1.871,1.871,0,0,1,.728-1.172,1.793,1.793,0,0,1,1.067-.372,1.548,1.548,0,0,1,.238.018,1.648,1.648,0,0,1,1.1.73l.065.09A5.7,5.7,0,0,0,21.108,36.9a4.735,4.735,0,0,0,2.069.483,4.583,4.583,0,0,0,.513-.029,5.388,5.388,0,0,0,2.278-.8,10.668,10.668,0,0,0,1.93-1.611c.138-.141.284-.294.474-.5a.751.751,0,0,1,.394-.3.806.806,0,0,1,.256-.041.871.871,0,0,1,.714.373.8.8,0,0,1,.135.524,4.812,4.812,0,0,1-.57,1.864,6.221,6.221,0,0,1-1.22,1.567,7.841,7.841,0,0,1-1.847,1.288,7.69,7.69,0,0,1-2.05.7A7.548,7.548,0,0,1,22.824,40.539Zm2.148-12.17h0a7.373,7.373,0,0,1-2.63-.53,13.281,13.281,0,0,1-3.093-1.756,1.189,1.189,0,0,1-.432-.687,1.423,1.423,0,0,1,.061-.771,1.754,1.754,0,0,1,.521-.753,1.267,1.267,0,0,1,.812-.317,1.151,1.151,0,0,1,.628.193l.209.161,0,0a16.744,16.744,0,0,0,1.936,1.347,4.768,4.768,0,0,0,2.321.74,2.505,2.505,0,0,0,.981-.193,2.74,2.74,0,0,0,.913-.647,2.8,2.8,0,0,0,.531-2.255,4.26,4.26,0,0,0-1.13-2,8.241,8.241,0,0,0-1.711-1.381.531.531,0,0,1-.144-.61.8.8,0,0,1,.264-.38.809.809,0,0,1,.505-.167,1.076,1.076,0,0,1,.181.016,5.736,5.736,0,0,1,2.018.729,4.577,4.577,0,0,1,1.357,1.252,4.974,4.974,0,0,1,.866,3.322,5.475,5.475,0,0,1-.444,1.744,5.087,5.087,0,0,1-1,1.5A4.779,4.779,0,0,1,24.972,28.369ZM7.859,16.485a1.724,1.724,0,0,1-1.119-.439,1.744,1.744,0,0,1-.587-1.128,12.706,12.706,0,0,1,.067-3.308c.04-.321.081-.654.11-1.012a1.98,1.98,0,0,1,.75-1.415,2.31,2.31,0,0,1,1.421-.5,1.751,1.751,0,0,1,1.075.338,1.594,1.594,0,0,1,.594,1.057,8.877,8.877,0,0,1-.926,5.469,1.754,1.754,0,0,1-.619.716A1.427,1.427,0,0,1,7.859,16.485Zm25.119-.75a1.508,1.508,0,0,1-1.183-.507A4.624,4.624,0,0,1,31.074,14a5.342,5.342,0,0,1-.368-1.477,3.131,3.131,0,0,1,.853-2.687,1.772,1.772,0,0,1,.137-.208,1.933,1.933,0,0,1,1.487-.856,1.611,1.611,0,0,1,.452.067,2.175,2.175,0,0,1,1.453,1.268,4.486,4.486,0,0,1,.18,2.453,8.214,8.214,0,0,1-.744,2.314,1.5,1.5,0,0,1-.643.635A1.947,1.947,0,0,1,32.979,15.735ZM.278,7.854a.274.274,0,0,1-.229-.14.306.306,0,0,1-.018-.3A10.425,10.425,0,0,1,2.368,4.454,14.446,14.446,0,0,1,5.5,2.317a13.445,13.445,0,0,1,3.714-1.3l.4-.069A9.66,9.66,0,0,1,11.226.776a2.5,2.5,0,0,1,2,.746,1.7,1.7,0,0,1,.4,1.208,1.106,1.106,0,0,1-.4.789,3.08,3.08,0,0,1-2.112.62c-.166,0-.338,0-.5-.008H10.6c-.16,0-.341-.009-.521-.009s-.314,0-.452.012a14.274,14.274,0,0,0-3.143.536A21.357,21.357,0,0,0,.424,7.806.26.26,0,0,1,.278,7.854Zm38.247-1.6h0l-.167-.042A9.458,9.458,0,0,1,36.524,5.5l-.6-.293A16.537,16.537,0,0,0,33.8,4.3a25.089,25.089,0,0,0-4.845-1.07,1.979,1.979,0,0,1-.972-.369,1.457,1.457,0,0,1-.544-.828A1.482,1.482,0,0,1,27.609.786a1.581,1.581,0,0,1,.767-.661A1.725,1.725,0,0,1,29.03,0a1.926,1.926,0,0,1,.377.038l.3.062a21.676,21.676,0,0,1,5.232,1.7,10.579,10.579,0,0,1,2.3,1.514,6.719,6.719,0,0,1,1.627,2.1c.057.439,0,.548-.055.622L38.8,6.06l-.015.02a.421.421,0,0,1-.26.173Z" transform="translate(11.197 10.99)"/>
  </g>
</svg>
