<svg id="peep-7" xmlns="http://www.w3.org/2000/svg" width="258.395" height="324" viewBox="0 0 258.395 324">
  <g id="BODY" transform="translate(31.056 135.053)">
    <path id="_Skin" data-name="âœ‹ Skin" d="M233.026,64.537c2.164-1.13,4.277-2.358,6.356-3.636a1.324,1.324,0,0,0-1.334-2.286c-.768.408-1.533.82-2.3,1.226a13.479,13.479,0,0,0,1.666-1.705l-.035-.035c1.936-1.735-.551-5.01-2.753-3.584a30.941,30.941,0,0,1-6.13,3.772c-4.617,1.958-9.709,2.282-14.664,2.339a19.443,19.443,0,0,0-5.3.528c.69-2.768,2.416-4.859,3.332-7.54.676-2.707-3.23-4.551-4.615-1.949-.34.639-.664,1.285-.98,1.935-2.992,2.722-7.988,2.483-11.006,5.406a9.377,9.377,0,0,0-2.892,5.675c-.226,1.411.125,2.826-.728,4.076-4.124,5.835-10.64,15.058-13.949,21.479-2.343-15.259-8.6-34.133-15.062-48.085a57.891,57.891,0,0,0-7.792-12.6c.364-1.261-.92-3.5-1.737-2.811-2.513-3.072-6.956-3.867-10.529-5.394a20.92,20.92,0,0,1-10.791-11.225C129.254.838,123.033-.341,114.4.069,106.148.059,100.039,3.592,98.237,12c-3.66,6.382-12.3,5.327-18.52,7.016a61.579,61.579,0,0,0-13.181,4.7c-4.675-4.436-21.419,14.182-22.941,18.974.9.174,1.786.383,2.669.638a.636.636,0,0,1-.337,1.225,24.573,24.573,0,0,0-2.977-.513c-.03.1-.057.19-.077.284l-.336-.025a4,4,0,0,1,.72.473c.563.468-.17,1.37-.768,1a4.686,4.686,0,0,0-1.977-.5c-.04,1.39-5-.165-5.77-.626-3.424-.428-6.946.031-10.142-1.62-4.253-.9-8.537-1.887-12.742-3.028-1.113.434-2.159,1.988-1.275,3.128a.637.637,0,0,1-.768,1,16.344,16.344,0,0,1-5.1-5.247c-.648-.654-1.8-.513-2.67-.785a1.394,1.394,0,0,0-.184.682c-3.694.608-1.059,4.644.8,5.9-.985.642-1.023,1.9-.936,2.948a1.42,1.42,0,0,0-.1,1.256c.695,1.6,2.2,2.95,3.339,4.247a27.466,27.466,0,0,0,3.92,4.035,42.351,42.351,0,0,0,20.15,7.93c2.571.4,6.27,1,7.862,3.175a75.3,75.3,0,0,1-1.759,7.575c-.91,3.341-.848,6.839-.86,10.246a.251.251,0,0,0-.408.114,8.826,8.826,0,0,1-1.227,4.043,34.3,34.3,0,0,0-1.534,6.878c-1.126,10.989-1.4,22.3,1.144,33.121A39.2,39.2,0,0,0,37,141.576a2.394,2.394,0,0,0,2.624,1.149,18.591,18.591,0,0,0,10.443,1.734c11.5-3.256,7.491,4.585,23.612,2.184,27.825-3.546,55.946,3.422,83.712-.669.684,5.284,9.636,3.768,12.746,1.534,9.324-6.934,13.954-28.888,18.633-40.026,3.217-8.778,8.6-24.326,15.656-30.216a20.109,20.109,0,0,1,7.23-3.229c9.547-2.461,19.13-4.788,28.7-7.181,1.622-.4,1.331-3.167-.4-2.99C237.646,64.1,235.336,64.315,233.026,64.537Z" transform="translate(-18.222 -4.65)" fill="#d08b5b"/>
    <path id="_Ink" data-name="ðŸ– Ink" d="M162.651,143.393a1.226,1.226,0,0,1-.914-.423c-8.575-.345-17.009-.6-25.067-.75-6.717-.129-13.677-.194-20.689-.194-7.8,0-15.939.081-24.2.241-7.238.141-14.823.344-22.544.6-1.081.036-2.181.077-3.244.116H65.98c-2.573.1-5.234.194-7.851.23h-.108a9.22,9.22,0,0,1-1.632-.15,7.233,7.233,0,0,1-1.653-.5,3.817,3.817,0,0,1-1.308-.909,2.3,2.3,0,0,1-.6-1.391l0-.069a6.921,6.921,0,0,1-.771.163.925.925,0,0,1-.14.011.859.859,0,0,1-.2-.022l-.052-.014a7.842,7.842,0,0,1-2.28.311,23.984,23.984,0,0,1-6.2-1.153c-.378-.106-.736-.205-1.086-.3l-.234-.062a15.134,15.134,0,0,1-3.665-1.4,9.93,9.93,0,0,1-2.968-2.547,17.212,17.212,0,0,1-1.963-3.161,23.388,23.388,0,0,1-1.342-3.5,42.043,42.043,0,0,1-1.4-7.359,55.435,55.435,0,0,1,.083-13.759,53.334,53.334,0,0,1,.412-11.225c.22-1.937.463-3.723.742-5.459.163-1.012.374-2,.594-3.014.029-.134.056-.267.084-.409v0c.055-.274.111-.557.185-.833l.05-.177a1.493,1.493,0,0,1-.193.012,1.826,1.826,0,0,1-.872-.238,1.954,1.954,0,0,1-.869-.994,3.6,3.6,0,0,1-.243-1.322,62.906,62.906,0,0,1,.5-7.659l0-.041.058-.541c.3-2.79.7-5.512,1.206-8.093l.134-.689a30.714,30.714,0,0,1,1.638-5.939,65.134,65.134,0,0,1-8.846-1.963,26.935,26.935,0,0,1-4.128-1.693,8.786,8.786,0,0,1-1.464-.358h0c-.146-.045-.3-.091-.445-.134-.952-.278-1.9-.609-2.831-.983a32.927,32.927,0,0,1-5.512-2.783,26.207,26.207,0,0,1-3.937-3.066,23.117,23.117,0,0,1-3.233-3.8l-.129-.193a15.017,15.017,0,0,1-1.337-2.494,4.709,4.709,0,0,1-.428-2.775A1.856,1.856,0,0,1,2.7,39.33,8.783,8.783,0,0,1,.789,37.01a6.793,6.793,0,0,1-.6-1.357A3.9,3.9,0,0,1,0,34.344a1.885,1.885,0,0,1,.731-1.5,2.562,2.562,0,0,1,1.55-.45,4.053,4.053,0,0,1,2.173.639A11.287,11.287,0,0,1,6.817,35.4l.065.08c.764.94,1.6,1.873,2.565,2.851.24.244.483.482.722.71l.246.231c-.039-.092-.073-.186-.1-.279a3.884,3.884,0,0,1,.055-2.439,3.074,3.074,0,0,1,1.581-1.813A2.468,2.468,0,0,1,13,34.517a4.944,4.944,0,0,1,1.784.422l.14.057a33.68,33.68,0,0,0,3.754,1.321A46.773,46.773,0,0,0,24.341,37.5c1.907.291,3.86.507,5.749.717,1.51.167,3.071.34,4.6.55A54.621,54.621,0,0,1,40.9,39.945a19.581,19.581,0,0,1,1.9-4.824,30.111,30.111,0,0,1,2.875-4.3,38.162,38.162,0,0,1,4.021-4.318,41.69,41.69,0,0,1,4.534-3.613A48.571,48.571,0,0,1,59.184,19.9c1.65-.868,3.428-1.691,5.286-2.446a84.432,84.432,0,0,1,11.191-3.589c3.3-.832,6.919-1.592,11.4-2.392a1.475,1.475,0,0,1,.257-.023,2.9,2.9,0,0,1,1.535.615l.139.093.01.007a2.315,2.315,0,0,0,1.093.516.547.547,0,0,0,.266-.066,15.7,15.7,0,0,0,4.006-3.21,45.568,45.568,0,0,0,4.586-6.179c.561-.852,1.14-1.734,1.738-2.59A1.419,1.419,0,0,1,101.877,0a1.564,1.564,0,0,1,.764.2,1.43,1.43,0,0,1,.55.538,1.265,1.265,0,0,1-.066,1.318l-.466.77c-.869,1.429-1.916,3.1-3.083,4.688a26.626,26.626,0,0,1-3.708,4.157A16.179,16.179,0,0,1,93.546,13.4a13.587,13.587,0,0,1-2.617,1.235,11.009,11.009,0,0,1-3.379.63,5.281,5.281,0,0,1-1.535-.207l-.185-.269.185.269a66.136,66.136,0,0,0,6.694,8.134c2.164,2.267,4.6,4.573,7.664,7.256a206.792,206.792,0,0,0,16.949,12.992l.484.342A81.092,81.092,0,0,0,130.8,31.941a78.792,78.792,0,0,0,10.1-14.383,8.268,8.268,0,0,1-2.915-1.213l-.01-.006c-.146-.084-.284-.163-.421-.24a10.99,10.99,0,0,1-3.237-2.574,6.573,6.573,0,0,1-.907-1.459,8.346,8.346,0,0,1-.528-1.577,22.119,22.119,0,0,1-.426-3.354c-.046-.614-.094-1.248-.169-1.863a.146.146,0,0,1,.034-.117.2.2,0,0,1,.152-.06.216.216,0,0,1,.136.044,6.371,6.371,0,0,1,1.677,3.021c.057.168.116.341.175.509a7.455,7.455,0,0,0,2.132,3.424,15.606,15.606,0,0,0,3.5,2.122c.19.09.616.226,1.109.382h0c1.159.369,2.747.874,2.995,1.317a13.636,13.636,0,0,1,3.113-.361,15.009,15.009,0,0,1,6.156,1.371,20,20,0,0,1,5.37,3.6,35.639,35.639,0,0,1,5.107,6.009,74.734,74.734,0,0,1,4.088,6.767,107.094,107.094,0,0,1,6.739,15.2c.984,2.735,1.826,5.446,2.5,8.057a76.481,76.481,0,0,1,1.675,8.266c.618,4.287,1.065,8.951,1.366,14.26l.033.6c3.863-6.065,7.984-12.323,12.249-18.6a5.741,5.741,0,0,1-.083-3.755A8.879,8.879,0,0,1,194.468,54a11.8,11.8,0,0,1,2.938-2.284A35.758,35.758,0,0,1,200.77,50.1c.327-.144.665-.292,1-.441l.342-.155a17.245,17.245,0,0,0,3.591-2.062,12.827,12.827,0,0,0,1.306-1.256,10.637,10.637,0,0,1,1.6-1.477,3.746,3.746,0,0,1,2.1-.637,2.748,2.748,0,0,1,1.691.521,1.946,1.946,0,0,1,.553.681,2.4,2.4,0,0,1,.229.988,6.53,6.53,0,0,1-.318,2.048,17.49,17.49,0,0,1-.74,1.946,14.332,14.332,0,0,1-1.039,1.941,16.648,16.648,0,0,1-1.307,1.771.67.67,0,0,1-.141.127l-.037.023a33.5,33.5,0,0,0,3.989.454c.514.024,1.035.036,1.546.036a31.358,31.358,0,0,0,6.6-.686,29.357,29.357,0,0,0,7.83-2.874c.493-.267.985-.557,1.461-.838.773-.456,1.573-.927,2.389-1.307a9.237,9.237,0,0,1,2.575-.81c.208-.032.427-.054.67-.068h.026a.648.648,0,0,1,.51.3.542.542,0,0,1,.075.508c-.087.22-.174.422-.264.62a14.622,14.622,0,0,1-1.55,2.636,13.475,13.475,0,0,1-2.114,2.277l-.122.1c.565-.2,1.118-.414,1.642-.651,1.143-.515,2.266-1.135,3.353-1.735a26.308,26.308,0,0,1,6.082-2.714c.143-.038.3-.075.486-.116a1.256,1.256,0,0,1,.264-.029.95.95,0,0,1,.876.541,1.119,1.119,0,0,1-.153,1.185c-.115.147-.211.267-.3.376a38.715,38.715,0,0,1-5.028,5.195c-.632.537-1.287,1.06-1.946,1.554,1.977-.6,4.041-1.34,6.133-2.2a.955.955,0,0,1,.364-.075,1.023,1.023,0,0,1,.772.4,1.647,1.647,0,0,1,.364.819,2.85,2.85,0,0,1-.238,1.533,4.752,4.752,0,0,1-.916,1.316,14.917,14.917,0,0,1-2.568,2.007l-.068.045a23.839,23.839,0,0,1-5.2,2.545A53.239,53.239,0,0,1,226.319,66.8l-1.777.248c-1.7.237-3.5.5-5.294.838a40.968,40.968,0,0,0-5.166,1.3,23.926,23.926,0,0,0-4.793,2.138,19.161,19.161,0,0,0-2.181,1.5,18.1,18.1,0,0,0-2,1.86,28.591,28.591,0,0,0-3.651,5.06c-1.072,1.842-2,3.767-2.843,5.572-1.519,3.255-2.982,6.79-4.743,11.462-1.058,2.8-2.036,5.69-2.982,8.481-.4,1.194-.823,2.429-1.243,3.642-1.289,3.726-2.839,7.426-4.338,11l-.24.573a102.491,102.491,0,0,1-5.421,11.182c-1.044,1.835-2.144,3.6-3.272,5.251-1.19,1.74-2.454,3.414-3.757,4.977a.9.9,0,0,1-.7.363.921.921,0,0,1-.535-.183,1.237,1.237,0,0,1-.387-.463,1.184,1.184,0,0,1-.122-.6,1.117,1.117,0,0,1,.241-.62,65.11,65.11,0,0,0,3.909-5.658c1.152-1.865,2.284-3.891,3.364-6.022,1-1.966,1.95-4.014,2.916-6.263.849-1.977,1.688-4.064,2.563-6.379.833-2.2,1.6-4.472,2.346-6.667v0c.566-1.672,1.152-3.4,1.762-5.087l.84-2.318c1.066-2.938,2.22-6.091,3.432-9.241a122.611,122.611,0,0,1,5.013-11.417l.2-.39a46.812,46.812,0,0,1,3.077-5.23,25.786,25.786,0,0,1,3.953-4.577,20.519,20.519,0,0,1,2.109-1.661,22.162,22.162,0,0,1,2.253-1.354,27.65,27.65,0,0,1,4.844-1.95,65.634,65.634,0,0,1,10.37-2l2.19-.289a65.759,65.759,0,0,0,8.759-1.611,23.456,23.456,0,0,0,4.783-1.83,19.577,19.577,0,0,0,1.764-1.046,48.635,48.635,0,0,1-4.956,1.175c-.806.147-1.629.262-2.447.34-1.118.111-2.271.165-3.525.165-.863,0-1.771-.026-2.777-.078a.184.184,0,0,1-.167-.177.14.14,0,0,1,.12-.155c1.332-.237,2.752-.541,4.469-.956l.446-.109a1.281,1.281,0,0,1,.309-.759,6.334,6.334,0,0,1,2.029-1.391,12.423,12.423,0,0,0,1.089-.607,34.4,34.4,0,0,0,2.951-2.154c.84-.685,1.676-1.434,2.487-2.225l.022-.022-.011.011-.011.011c-.78.36-1.558.764-2.311,1.155a32.163,32.163,0,0,1-4.125,1.9,22.024,22.024,0,0,1-5.546,1.2l-.117.009-.117.008c-.575.041-1.158.066-1.722.09a24.2,24.2,0,0,0-4.174.421.216.216,0,0,1-.047.005.153.153,0,0,1-.155-.128.179.179,0,0,1,.111-.2,22.109,22.109,0,0,1,4.672-1.2l.014,0,.558-.1a.537.537,0,0,1,.3-.345l.456-.218a14.186,14.186,0,0,0,3.754-2.371,11.905,11.905,0,0,0,2.451-3.244,15.317,15.317,0,0,0-4.488,2.116,26.571,26.571,0,0,1-2.467,1.386,30.946,30.946,0,0,1-7.775,2.467l-.306.053a33.292,33.292,0,0,1-5.458.466,24.918,24.918,0,0,1-5.277-.532,16.634,16.634,0,0,1-4.825-1.815.124.124,0,0,1-.064-.144.155.155,0,0,1,.148-.112l.024,0c.758.124,1.524.264,2.265.4h.01c.5.092,1.019.186,1.528.275a.745.745,0,0,1-.236-.441.638.638,0,0,1,.164-.516,13.582,13.582,0,0,0,2.606-4.415l.11-.318.036-.1,0-.005a8.006,8.006,0,0,0,.371-1.29,1.642,1.642,0,0,0-.154-1.21,1.27,1.27,0,0,0-1.1-.493,2.467,2.467,0,0,0-.974.208,6.713,6.713,0,0,0-2.031,1.718,11.071,11.071,0,0,1-1.164,1.158,18.378,18.378,0,0,1-3.864,2.276l-.288.131c-.372.168-.755.334-1.126.495a17.182,17.182,0,0,0-5.6,3.331,9.234,9.234,0,0,0-1.337,1.685,6.238,6.238,0,0,0-.8,1.988,4.217,4.217,0,0,0,.042,1.953,3.455,3.455,0,0,0,.148.409,1.2,1.2,0,0,1,.112.91,5.436,5.436,0,0,1-.908,1.413c-.173.22-.337.428-.464.616-.457.678-.919,1.367-1.365,2.033-.765,1.146-1.54,2.314-2.29,3.443l-.014.021-.407.613c-1.729,2.609-3.483,5.291-5.36,8.2-.577.894-1.156,1.8-1.723,2.683l-.857,1.343-.369.576-.084.132-.067.106-.35.551-.355.558a.6.6,0,0,1-.011.334,1.524,1.524,0,0,1-.685.818l-.055.032c-2.78,4.4-5.577,8.881-8.283,13.218l-.021.034c-1.677,2.688-3.41,5.468-5.122,8.2-.267,2.442-.482,4.583-.657,6.547-.474,5.3-.749,10.163-.841,14.856-.034,1.753.061,3.541.153,5.27v.008c.034.636.069,1.293.1,1.938.052,1.162.122,2.316.211,3.431l.067.81a7.42,7.42,0,0,1-.26,3.28,1.363,1.363,0,0,1-.48.636A1.178,1.178,0,0,1,162.651,143.393ZM37.464,60.64a5.064,5.064,0,0,1,2.31.628A4.657,4.657,0,0,1,41.35,62.7a1.442,1.442,0,0,1,.452.814,5.425,5.425,0,0,1,.4,1.469.867.867,0,0,1-.182.7,37.971,37.971,0,0,1-.77,9.892,87.834,87.834,0,0,1-2.609,9.645l-.2.622-.129.394c-.4,1.234-.821,2.483-1.225,3.691v0c-.9,2.68-1.827,5.452-2.627,8.209a69.646,69.646,0,0,0-1.94,8.389,51.729,51.729,0,0,0-.176,14.152l.039.323a39.773,39.773,0,0,0,1.342,6.795,22.353,22.353,0,0,0,1.25,3.246,15.771,15.771,0,0,0,1.8,2.9,8.146,8.146,0,0,0,2.375,2.066,12.129,12.129,0,0,0,2.929,1.142l.119.032c.547.144,1.11.308,1.654.467h0a26.049,26.049,0,0,0,4.363,1.006,6.207,6.207,0,0,0,.67.036,11.06,11.06,0,0,0,4.072-1.027l.407-.159,0,0a17.012,17.012,0,0,0,4.077-5.638,37.585,37.585,0,0,0,2.3-6.749,70.758,70.758,0,0,0,1.7-9.074,84.054,84.054,0,0,0,.6-9.176A118.467,118.467,0,0,0,60.7,88.486c-.908-6.3-2.158-12.642-3.367-18.778l-.038-.194c-.185-.94-.378-1.895-.564-2.818v0h0c-.438-2.172-.891-4.417-1.281-6.634l-.33-1.861c-.163-.924-.351-2.017-.509-3.108-.194-1.334-.257-2.623-.324-3.987l-.009-.189a19.9,19.9,0,0,0-7.056-6.833,26.126,26.126,0,0,0-6.478-2.631A70.843,70.843,0,0,0,29.631,39.7c-2.909-.3-5.917-.61-8.767-1.2a39.114,39.114,0,0,1-6.29-1.9l-.281-.109a3.573,3.573,0,0,0-1.215-.293,1.189,1.189,0,0,0-1.161.834,2.064,2.064,0,0,0-.13,1.189,2.625,2.625,0,0,0,.5,1.094,6.446,6.446,0,0,0,2.485,1.854,23.63,23.63,0,0,0,2.965,1.09l.1.032a27.536,27.536,0,0,0,3.412.846c.349.063.7.113,1.046.161a11.352,11.352,0,0,1,2.372.509.558.558,0,0,1,.352.549.431.431,0,0,1-.352.406,5.89,5.89,0,0,1-1.355.148,14.863,14.863,0,0,1-2.818-.367l-.035-.007a29.412,29.412,0,0,1-4.506-1.274c-.317-.117-.583-.218-.835-.317l-.215-.085c.2.148.423.3.668.478a.076.076,0,0,1,.025.085.06.06,0,0,1-.057.046.072.072,0,0,1-.024,0,21.207,21.207,0,0,1-4.889-2.63A24.645,24.645,0,0,1,6.5,37.109l-.121-.138c-.131-.15-.284-.343-.462-.566A15.739,15.739,0,0,0,4.37,34.659a2.887,2.887,0,0,0-1.84-.953,1.328,1.328,0,0,0-.6.144.8.8,0,0,0-.453.565,1.736,1.736,0,0,0,.139.948,6.3,6.3,0,0,0,.594,1.118,22.807,22.807,0,0,0,1.585,2.083l.222.27.116.143a4.086,4.086,0,0,1,1.6.424,13.852,13.852,0,0,1,1.457.822l.1.061a47.967,47.967,0,0,0,4.973,2.644c1.559.733,3.189,1.377,4.766,2,1.846.729,3.755,1.484,5.561,2.385a.034.034,0,0,1,.02.04.048.048,0,0,1-.045.035h-.006a41.427,41.427,0,0,1-6.3-1.558l-.092-.029-.092-.031c-1.21-.4-2.455-.859-3.805-1.41a39.745,39.745,0,0,1-4.06-1.923c-.353-.193-.711-.427-1.09-.675a7.142,7.142,0,0,0-2.806-1.322,1.991,1.991,0,0,0-.252-.017c-.049,0-.1,0-.141.006a.753.753,0,0,0-.654.38c-.444.84.608,2.787.823,3.169a18.993,18.993,0,0,0,2.6,3.572,25.308,25.308,0,0,0,7.168,5.326c.849.434,1.761.843,2.789,1.251-.159-.14-.316-.287-.435-.4a15.962,15.962,0,0,1-1.586-1.735,13.907,13.907,0,0,1-1.293-1.962l-.2-.372a6.3,6.3,0,0,1-.723-1.965,1.875,1.875,0,0,1,.1-.952,1.608,1.608,0,0,1,.7-.767,2.553,2.553,0,0,1,1.324-.341,4.861,4.861,0,0,1,1.494.269c.051.016.1.034.153.051l.031.011c.357.125.748.287,1.194.495A23.91,23.91,0,0,1,20.664,48.4c.383.256.778.521,1.173.773a14.951,14.951,0,0,0,2.39,1.252A14.382,14.382,0,0,0,26.8,51.2l.172.035c.175.035.352.068.523.1,1.556.294,3.164.6,4.237,1.863a.575.575,0,0,1,.069.6.436.436,0,0,1-.4.27.518.518,0,0,1-.166-.029c-1.157-.39-2.355-.678-3.514-.957-1.069-.257-2.174-.523-3.233-.866a14.64,14.64,0,0,1-3.075-1.364c-.529-.319-1.054-.663-1.562-1h0c-.7-.457-1.419-.93-2.161-1.345a10.733,10.733,0,0,0-2.131-.942l-.409-.121a2.01,2.01,0,0,0-.529-.1.564.564,0,0,0-.189.028.363.363,0,0,0-.227.16c-.049.1,0,.233.055.4v0c.011.032.023.066.034.1l.011.035c1.008,3.12,4.05,5.461,5.774,6.579.517.337,1.073.663,1.652.97a31.412,31.412,0,0,0,5.114,2.115c1.76.571,3.592,1.05,5.363,1.513l.009,0c.575.15,1.171.306,1.754.462.024.007,2.431.679,3.218.929C37.281,60.644,37.372,60.64,37.464,60.64Zm139.21,24.866c-.043.01-.085.022-.125.033h0l-.009,0c-.846.237-1.711.452-2.548.66-.325.081-.693.172-1.048.262a32.961,32.961,0,0,0-6.032,2.012c-.351,4.432-.857,8.924-1.347,13.27h0c-.07.619-.149,1.32-.225,2l-.114,1.018c.966-1.792,1.851-3.371,2.706-4.825C170.746,95.153,173.687,90.3,176.674,85.506Zm-143.259.505a8.761,8.761,0,0,1-.119,1.3c-.025.179-.049.347-.069.515-.052.449-.1.907-.147,1.35v.005c-.051.489-.1.994-.163,1.49-.247,2.061-.432,3.931-.564,5.717-.093,1.247-.152,2.5-.2,3.667,1.007-3.764,2.308-7.516,3.566-11.146l.005-.015c.237-.684.482-1.391.722-2.087a5.19,5.19,0,0,1-.776-.159l-.448-.121-.09-.023h0C34.8,86.426,34.034,86.23,33.415,86.011ZM237.6,58.721l-.1.068Zm.626-.454-.178.131Zm-58.68,24.992h0l.016-.026.017-.026.35-.551.116-.182.036-.056.369-.576.009.2a1.2,1.2,0,0,1-.25.837,1.131,1.131,0,0,1-.662.38ZM49.113,51.172a4.044,4.044,0,0,1-1.85-.757,7.039,7.039,0,0,0-.986-.528,13.793,13.793,0,0,0-7.551-.731,13.446,13.446,0,0,0-2.423.683.109.109,0,0,1-.04.008.116.116,0,0,1-.105-.094.112.112,0,0,1,.052-.13,13.218,13.218,0,0,1,2.953-1.178,12.339,12.339,0,0,1,3.135-.408c.358,0,.721.016,1.078.048a13.183,13.183,0,0,1,3.676.845l.114.045.19.072a8.255,8.255,0,0,1,1.343.607,1.87,1.87,0,0,1,.9,1.011.355.355,0,0,1-.045.311.455.455,0,0,1-.337.192C49.182,51.17,49.148,51.172,49.113,51.172Z" transform="translate(-18.803 1.11)"/>
  </g>
  <g id="HEAD" transform="translate(78.592 38.043)">
    <path id="_Skin-2" data-name="âœ‹ Skin" d="M37.552,0c11.971,0,29.492,8.014,30.81,15.724,1.553,9.086,5,43.251,3.124,54.432S62.286,89.6,46.1,89.6,17.82,80.745,15.045,77.706s-6.137-12.5-6.137-12.5S.044,63.7,0,56.618s4.453-9.273,4.453-9.273S2.03,17.957,7.128,10.678,25.581,0,37.552,0Z" transform="translate(13.476 15.906)" fill="#d08b5b"/>
    <path id="_Ink-2" data-name="ðŸ– Ink" d="M42.4,107.376c-1.714-.18-3.487-.161-4.74-1.463a.85.85,0,0,1,.169-1.323,4.215,4.215,0,0,1,2.684-.342c.879.12,1.76.216,2.646.277a38.933,38.933,0,0,0,5.705-.009,29.67,29.67,0,0,0,10.22-2.752A23.524,23.524,0,0,0,70.615,90.51c2.675-5.865,2.5-12.66,2.378-18.962-.137-6.911-.392-13.8-.991-20.689-.291-3.339-.74-6.655-1.145-9.98q-.32-2.65-.837-5.271c-.181-.924-.417-1.835-.611-2.752a3.6,3.6,0,0,1-.432.042,3.438,3.438,0,0,1-2.5-.814,1.825,1.825,0,0,1-.953.3c-3.624.179-7.3-.042-10.935-.044s-7.288,0-10.933.01-7.292.045-10.931-.053a65.915,65.915,0,0,1-10.233-.638c-1.124,4-1.084,8.4,1.259,11.977a2.1,2.1,0,0,1-.738,2.826,8.63,8.63,0,0,1-3.821,1.729c-.131.3-.266.59-.394.883A30.459,30.459,0,0,0,17.16,53.6c-.21.807-.391,1.626-.543,2.451.012.144.025.289.041.432a.383.383,0,0,0,0,.046c.009.059.019.127.025.165.078.414.154.829.236,1.241q.294,1.506.455,3.033c.2,1.86.177,4.278-1.632,5.379a3.543,3.543,0,0,1-3.15.133,13.241,13.241,0,0,1-1.9-1.012c-.375-.22-.768-.4-1.134-.628a2.251,2.251,0,0,1-.289-.22,7.892,7.892,0,0,0-1.729.6A9,9,0,0,0,4.9,67.287a8.58,8.58,0,0,0-1.851,6.59,9.251,9.251,0,0,0,2.755,6.072,4.024,4.024,0,0,0,2.64.981A5.53,5.53,0,0,0,9.833,80.7a13.245,13.245,0,0,0,1.444-.254.934.934,0,0,1,1.143,1.145,7.35,7.35,0,0,1-.542,1.262,95.866,95.866,0,0,0,5.692,8.283c1.834,2.393,3.993,4.4,6.034,6.6.9.968,1.276,2.874-.354,3.288s-2.84-1.333-3.774-2.4a35.678,35.678,0,0,1-8.161-15.192,4.611,4.611,0,0,1-2.073.782,6.712,6.712,0,0,1-4.292-.843C.017,80.517-1.176,72.8,1.134,67.965a8.709,8.709,0,0,1,2.384-3.011.709.709,0,0,1-.059-.52c.089-.334.187-.664.29-.993a.289.289,0,0,1-.179-.307q.139-1.427.274-2.853c-.032-1.437-.1-2.872-.085-4.318.026-2.3.165-4.605.173-6.909.027-8.035.354-16.063.377-24.1.013-3.929.021-7.864-.082-11.791,0-.053,0-.1,0-.157-.085-3.143-.915-7.349,2.15-9.382A1.82,1.82,0,0,1,8.054,3.5,13.2,13.2,0,0,1,13.5,1.565C17.1.982,20.737.7,24.365.331A47.716,47.716,0,0,1,30.156.107c.992.022,1.991-.014,2.991-.05C34.09.023,35.034-.011,35.975,0c2.2.036,4.419.118,6.628.3l.312-.03A90.143,90.143,0,0,1,55.379.409c3.959.167,8.14.577,11.694,2.477a5.472,5.472,0,0,1,1.175.83,3.721,3.721,0,0,1,1.3.418,2.17,2.17,0,0,1,2.693,1.613,18.545,18.545,0,0,1,.308,5.9c-.006.046-.011.1-.017.146a12.329,12.329,0,0,1,.049,5.65q.251,3.431.276,6.871c.009,1.584.08,3.2-.067,4.776a6.168,6.168,0,0,1-1.6,3.542.715.715,0,0,1-.692.184.9.9,0,0,1-.164-.049c.541,1.162.968,2.4,1.407,3.573a52.926,52.926,0,0,1,1.849,5.717,80.138,80.138,0,0,1,1.98,11.912c.656,7.141.9,14.344,1.029,21.513.122,6.793-.474,13.877-4.335,19.685a28.082,28.082,0,0,1-14.239,10.76,34.861,34.861,0,0,1-10.3,1.659q-.556.017-1.113.016A40.745,40.745,0,0,1,42.4,107.376ZM12.915,76.21c-1.174-.772-1.746-2.185-2.756-3.153a11.89,11.89,0,0,0-1.6-1.27,6.32,6.32,0,0,0-.79-.5c-.028-.013-1.183-.389-.959.108.076.165-.122.349-.264.2-.4-.408-.177-.9.2-1.262a2.851,2.851,0,0,1,2.564-.349,9.027,9.027,0,0,1,3.31,1.395c1.067.712,2.384,1.7,2.6,3.05a1.743,1.743,0,0,1-1.515,2.031A1.435,1.435,0,0,1,12.915,76.21Z" transform="translate(11.595 -0.634)"/>
  </g>
  <g id="FACE" transform="translate(112.183 77.354)">
    <path id="_Ink-3" data-name="ðŸ– Ink" d="M22.735,43.075c-.14,0-.281-.005-.42-.016a6.09,6.09,0,0,1-3.072-1.088,5.748,5.748,0,0,1-2-2.558,6.59,6.59,0,0,1-.437-2.655,2.814,2.814,0,0,1,1.114-2.308.075.075,0,0,1,.04-.011.074.074,0,0,1,.056.023,4.565,4.565,0,0,1,.765,1.607,5.609,5.609,0,0,0,.615,1.425,4.347,4.347,0,0,0,1.1,1.133,3.121,3.121,0,0,0,1.464.564,2.576,2.576,0,0,0,.265.014,1.7,1.7,0,0,0,1.652-.935,1.165,1.165,0,0,0,.086-.865l-.058-.232a2.649,2.649,0,0,1,.168-2.226,2.16,2.16,0,0,1,.678-.7,1.72,1.72,0,0,1,.933-.31,1.219,1.219,0,0,1,.141.008,2.959,2.959,0,0,1,1.361.488,2.627,2.627,0,0,1,.835.966,4.37,4.37,0,0,1,.387,2.382,6.26,6.26,0,0,1-.711,2.4,5.51,5.51,0,0,1-2.09,2.123A5.755,5.755,0,0,1,22.735,43.075Zm2.238-15.551h0a7.373,7.373,0,0,1-2.63-.53,13.282,13.282,0,0,1-3.093-1.756,1.189,1.189,0,0,1-.432-.687,1.423,1.423,0,0,1,.061-.771,1.754,1.754,0,0,1,.521-.753,1.267,1.267,0,0,1,.811-.317,1.151,1.151,0,0,1,.628.193l.212.163a16.743,16.743,0,0,0,1.936,1.347,4.768,4.768,0,0,0,2.321.74,2.505,2.505,0,0,0,.981-.193,2.741,2.741,0,0,0,.913-.647,2.8,2.8,0,0,0,.531-2.255,4.26,4.26,0,0,0-1.13-2,8.241,8.241,0,0,0-1.711-1.381.531.531,0,0,1-.143-.61.8.8,0,0,1,.264-.38.809.809,0,0,1,.505-.167,1.075,1.075,0,0,1,.181.016,5.736,5.736,0,0,1,2.018.729,4.577,4.577,0,0,1,1.357,1.252,4.974,4.974,0,0,1,.866,3.322,5.475,5.475,0,0,1-.444,1.744,5.088,5.088,0,0,1-1,1.5A4.779,4.779,0,0,1,24.972,27.524ZM7.529,20.663h0l-.112,0a4.734,4.734,0,0,1-2.552-.844,5.145,5.145,0,0,1-1.739-2.053,5.605,5.605,0,0,1-.532-2.538,8.448,8.448,0,0,1,.486-2.559.13.13,0,0,1,.119-.088.107.107,0,0,1,.079.035A14.724,14.724,0,0,1,4.964,14.9l.525.826a5.147,5.147,0,0,0,.711.91,1.39,1.39,0,0,0,.957.458l.067,0,.113-.011.068,0c.129-.008.129-.008.25-.222l.019-.034a.9.9,0,0,0,.07-.333,1.588,1.588,0,0,1,.026-.2l.013-.052-.007-.028a3.534,3.534,0,0,1-.044-.462l0-.054c-.011-.227-.032-.463-.054-.713a4.6,4.6,0,0,1,.369-2.954,2.173,2.173,0,0,1,.808-.733,2.138,2.138,0,0,1,.986-.242,2.038,2.038,0,0,1,1.182.37,2.068,2.068,0,0,1,.777,1.1,3.58,3.58,0,0,1,.009,1.687,5.948,5.948,0,0,0-.1,1.05,7.622,7.622,0,0,1-.279,2.457,4.41,4.41,0,0,1-.583,1.189,4.21,4.21,0,0,1-.888.934A3.949,3.949,0,0,1,7.529,20.663Zm26.129-1.128c-.1,0-.2,0-.292-.011a4.1,4.1,0,0,1-1.888-.634,4.023,4.023,0,0,1-1.36-1.453,7,7,0,0,1-.71-2.113,3.217,3.217,0,0,1,.256-2.148.119.119,0,0,1,.1-.058.128.128,0,0,1,.085.033,3.476,3.476,0,0,1,.825,1.553,6.567,6.567,0,0,0,.349.9A2.73,2.73,0,0,0,33,17.3a1.947,1.947,0,0,0,.247.017.818.818,0,0,0,.689-.275,1.124,1.124,0,0,0,.079-.978,6.621,6.621,0,0,0-.532-1.276A4.886,4.886,0,0,1,32.866,13a1.487,1.487,0,0,1,.363-1.173,1.978,1.978,0,0,1,2.982.267,5.987,5.987,0,0,1,.693,2.5l.047.41a4.851,4.851,0,0,1-.24,2.636,3.221,3.221,0,0,1-1.248,1.4A3.47,3.47,0,0,1,33.658,19.535ZM.176,9.973a.108.108,0,0,1-.111-.078A3.081,3.081,0,0,1,.323,7.929a9.343,9.343,0,0,1,1.07-1.744A15.4,15.4,0,0,1,4.727,2.944a16.923,16.923,0,0,1,4.03-2.1L9.189.683A8.644,8.644,0,0,1,12.073,0a3,3,0,0,1,.986.153,2.214,2.214,0,0,1,.846.528,2.227,2.227,0,0,1,.354,2.742,2.129,2.129,0,0,1-1.112.936,6.248,6.248,0,0,1-1.428.3c-.12.016-.244.032-.366.05A15.385,15.385,0,0,0,7.624,5.742,24.157,24.157,0,0,0,3.861,7.785c-.332.215-.658.465-1,.73A6.4,6.4,0,0,1,.2,9.971Zm33.215-.017a28.451,28.451,0,0,1-3.976-.291A26.634,26.634,0,0,1,26,8.991l-.513-.149L25.352,8.8a5.706,5.706,0,0,1-2.534-1.189.4.4,0,0,1-.116-.369.488.488,0,0,1,.3-.343,5.691,5.691,0,0,1,2.014-.286c.305,0,.619.01.9.019h.008c.3.01.579.019.853.019.1,0,.194,0,.283,0,1.364-.039,2.8-.138,4.384-.3,1.032-.107,2.059-.31,3.052-.505.376-.074.765-.151,1.151-.222l.132-.023a4.665,4.665,0,0,1,.764-.072,2.1,2.1,0,0,1,1.624.668,2.047,2.047,0,0,1,.521.916,1.817,1.817,0,0,1-.051,1.047,2.648,2.648,0,0,1-.545.932,1.678,1.678,0,0,1-.927.54A20.5,20.5,0,0,1,33.391,9.956Z" transform="translate(11.197 11.836)"/>
  </g>
  <g id="FACIAL_HAIR" data-name="FACIAL HAIR" transform="translate(104.577 109.479)">
    <path id="_Ink-4" data-name="ðŸ– Ink" d="M44.212,2.115c-.7-.94-1.959-2.174-3.232-2.108a.181.181,0,0,0-.126.3c.416.509.985.871,1.4,1.39a6.393,6.393,0,0,1,1.082,2.105,6.28,6.28,0,0,1,.13,3.429,6.537,6.537,0,0,1-4.027,4.114,6.38,6.38,0,0,1-5.688-.089C31.232,9.7,29.093,7.44,25.924,7.4a1.757,1.757,0,0,0-1.575.814A1.813,1.813,0,0,0,22.8,7.4c-3.553-.04-6.2,2.407-9.187,3.932-2.015,1.031-4.623.711-6.7.03-1.961-.642-4.09-1.932-4.83-3.969a5.225,5.225,0,0,1,.1-3.547A6.3,6.3,0,0,1,3.409,1.843C3.955,1.248,4.673.875,5.233.311a.181.181,0,0,0-.126-.3C2.731-.155.585,2.683.137,4.742a6.46,6.46,0,0,0,1.55,5.6C4.4,13.485,9.418,14.523,13.325,13.6c3.162-.748,6.166-2.471,9.472-2.224a1.647,1.647,0,0,0,1.559-.706,1.6,1.6,0,0,0,1.568.709c3.081-.3,5.831,1.884,8.822,2.417a10.083,10.083,0,0,0,6.994-1.431,7.557,7.557,0,0,0,3.733-6.059,6.67,6.67,0,0,0-1.261-4.191" transform="translate(20.282 0.634)"/>
  </g>
  <g id="ACCESORIES" transform="translate(88.521 88.978)">
    <path id="_Ink-5" data-name="ðŸ– Ink" d="M41.577,22.794h0a11.669,11.669,0,0,1-3.909-.652A10.192,10.192,0,0,1,34.23,20.1a11.055,11.055,0,0,1-2.589-3.545,16.068,16.068,0,0,1-1.366-5.175A3.067,3.067,0,0,0,29.6,9.468a3.588,3.588,0,0,0-1.594-.7c-.264-.075-.562-.161-.891-.267l-.285-.058h0c-.316-.063-.643-.129-.965-.222a1.353,1.353,0,0,1-.43.076c-.453,0-.771-.281-1.21-.669a9.365,9.365,0,0,0-.741-.608A7.81,7.81,0,0,0,18.57,5.74a29.992,29.992,0,0,0-6.381.843A87.294,87.294,0,0,0,1.981,9.676c-.013.686-.363,1.165-.851,1.165A.926.926,0,0,1,.6,10.658,2.944,2.944,0,0,1,.019,9.352a1.93,1.93,0,0,1,.2-1.161c.459-.906,1.65-1.731,3.54-2.451A34.869,34.869,0,0,1,10,4.149,79.266,79.266,0,0,1,22.08,3.03c.286,0,.543,0,.765.012a6.041,6.041,0,0,1,1.659-.29,2.384,2.384,0,0,1,.884.153,13.773,13.773,0,0,1,5.352-2,42.048,42.048,0,0,1,8.3-.813A38.26,38.26,0,0,1,43.2.31a27.071,27.071,0,0,1,3.9.7,16.134,16.134,0,0,1,3.349,1.254,8.8,8.8,0,0,1,2.5,1.876,8.69,8.69,0,0,0,2.647.412,11.1,11.1,0,0,0,3.634-.674,35.422,35.422,0,0,0,3.474-1.488A29.981,29.981,0,0,1,66.932.657c.411-.092,1.506-.255,2.938-.4C71.089.142,72.96,0,74.951,0a22.09,22.09,0,0,1,5.911.638c1.821.528,2.8,1.378,2.9,2.526a4.8,4.8,0,0,1,.151,1.66A4.052,4.052,0,0,1,83.5,6.679a.536.536,0,0,1-.442.289.784.784,0,0,1-.482-.219,6.186,6.186,0,0,0-1.269,1.284,7.656,7.656,0,0,0-.856,1.509,20.8,20.8,0,0,0-1.029,3.41,13.615,13.615,0,0,1-2.038,5.2,6.408,6.408,0,0,1-2.514,2.081,8.027,8.027,0,0,1-3.432.755,9.162,9.162,0,0,1-6.609-2.926,12.849,12.849,0,0,1-2.544-3.969,20.8,20.8,0,0,1-1.426-5.916A5.183,5.183,0,0,0,58.9,7.808a12.058,12.058,0,0,0-2.12.251,14.942,14.942,0,0,1-1.82.249,12.372,12.372,0,0,1-.437,5.4,12.077,12.077,0,0,1-2.455,4.326,13.5,13.5,0,0,1-2.206,2.012,14.388,14.388,0,0,1-2.577,1.494A14.053,14.053,0,0,1,41.577,22.794ZM43.16,4.186a17.579,17.579,0,0,0-5.908.913,9.319,9.319,0,0,0-4.59,3.316,4.2,4.2,0,0,0-.468,3.572A19.963,19.963,0,0,0,33.481,15.3a12.679,12.679,0,0,0,1.9,2.829A7.855,7.855,0,0,0,41.4,20.838a11.3,11.3,0,0,0,3.022-.444A11.8,11.8,0,0,0,50.16,16.76a11.1,11.1,0,0,0,1.828-2.882,9.665,9.665,0,0,0,.793-3.309,7.576,7.576,0,0,0-.375-2.839,5.875,5.875,0,0,0-1.5-2.377,25.051,25.051,0,0,0-3.533-.822A26.68,26.68,0,0,0,43.16,4.186ZM72.619,2.83a7.7,7.7,0,0,0-2.005.266,9.857,9.857,0,0,0-4.426,2.552,9.4,9.4,0,0,0-1.635,2.22,10.132,10.132,0,0,0-.992,2.851,6.959,6.959,0,0,0,.135,2.7,5.233,5.233,0,0,0,.941,2.176,11.739,11.739,0,0,0,3.294,2.476,9.22,9.22,0,0,0,4.12,1.108,5.282,5.282,0,0,0,2.312-.5,6.217,6.217,0,0,0,2.094-1.88,10.527,10.527,0,0,0,1.323-2.609,29.9,29.9,0,0,0,1.233-5.669A3.957,3.957,0,0,0,78.851,6.7a4.7,4.7,0,0,0-.926-1.6,6.416,6.416,0,0,0-2.287-1.646A7.606,7.606,0,0,0,72.619,2.83Z" transform="translate(0.212 3.804)"/>
  </g>
</svg>
