<svg id="peep-53" xmlns="http://www.w3.org/2000/svg" width="240" height="324" viewBox="0 0 240 324">
  <g id="BODY" transform="translate(31.056 135.053)">
    <path id="_Skin" data-name="âœ‹ Skin" d="M1.9,158.233,0,119.85,2.113,82.4,153.48,94.424l.159,1.029c1.262,8.224,2.226,15.223,2.863,20.8a127.847,127.847,0,0,1,.98,12.832v.181a43.543,43.543,0,0,0,.336,5.033c.223,1.884.563,4.013,1.009,6.328.893,4.628,2.251,10.193,4.037,16.539l.222.785ZM84.016,72.952c-13.155,0-28.539-.135-45.725-.4.234-7.49.66-14.184,1.265-19.9.3-2.856.657-5.528,1.052-7.94s.843-4.634,1.332-6.6a46.1,46.1,0,0,1,1.611-5.264,22.864,22.864,0,0,1,1.891-3.925,10.689,10.689,0,0,1,2.17-2.587,5.834,5.834,0,0,1,2.45-1.249l.616-.136c2.6-.568,4.943-1,7.009-1.373,5.923-1.081,9.835-1.8,12.355-4.4a11.3,11.3,0,0,0,1.681-2.267,17.788,17.788,0,0,0,1.225-2.653,51.392,51.392,0,0,0,1.66-5.833h0c.321-1.323.624-2.572.984-3.758a3.557,3.557,0,0,1,1.6-1.758A14.182,14.182,0,0,1,80.511,1.42,28.585,28.585,0,0,1,85.01.387,34.441,34.441,0,0,1,90.141,0c.532,0,1.065.013,1.585.039a27.883,27.883,0,0,1,4.535.615,28.347,28.347,0,0,1,4.012,1.182,15.766,15.766,0,0,1,2.948,1.441,3.06,3.06,0,0,1,1.342,1.392c.221.777.465,2.059.774,3.682a88.27,88.27,0,0,0,2.586,10.884,23.631,23.631,0,0,0,2.146,4.872,9.7,9.7,0,0,0,1.353,1.763,5.167,5.167,0,0,0,1.566,1.111c2.1.92,5.061,1.183,8.194,1.46a43.86,43.86,0,0,1,7.62,1.114,11.567,11.567,0,0,1,3.121,1.319,7.192,7.192,0,0,1,1.236.981,6.139,6.139,0,0,1,.962,1.244c.861,1.476,2.231,4.121,3.759,7.257,1.651,3.39,3.395,7.167,4.911,10.633,1.792,4.1,3.227,7.658,4.265,10.578,1.208,3.4,1.821,5.786,1.821,7.091,0,.356-.341.694-1.014,1.006a14.335,14.335,0,0,1-3.041.872,103.079,103.079,0,0,1-12.163,1.341c-5.38.356-12.2.627-20.27.8S94.775,72.952,84.016,72.952Z" transform="translate(8.028 -8.243)" fill="#d08b5b"/>
    <path id="_Ink" data-name="ðŸ– Ink" d="M34.518,155.625a1.068,1.068,0,0,1-.9-.509,9.1,9.1,0,0,1-1.229-3.054,27.122,27.122,0,0,1-.5-3.349l-.077-.779c-.27-2.7-.471-5.079-.615-7.277-.286-4.38-.475-8.725-.562-12.912-.091-4.373-.073-8.721.053-12.925.14-4.694.59-9.272,1.012-13.131.167-1.515.322-2.851.475-4.083l0-.483c0-.125,0-.287-.005-.44l-.042-1.311c-.033-1.043-.067-2.155-.081-3.28l-.006-.656-.006-1.222a15.159,15.159,0,0,1-2.02-.384c-.368-.087-.715-.169-1.037-.229-1.406-.263-2.875-.558-4.367-.877-2.747-.591-5.573-1.305-8.639-2.183l-.608-.175a56.7,56.7,0,0,1-7.8-2.706A14.46,14.46,0,0,1,4.763,82.05c-.024.325-.054.653-.083.97-.033.361-.067.735-.092,1.1-.044.641-.092,1.291-.139,1.92v.011c-.052.7-.106,1.423-.154,2.141l-.087,1.293c-.136,2.053-.27,4.257-.329,6.468-.3,11.069-.24,20.065.2,28.312.266,5.078.629,9.7,1.109,14.127.224,2.079.5,4.528.839,6.928.131.923.307,1.86.476,2.766a41.174,41.174,0,0,1,.652,4.331,1.691,1.691,0,0,1-.426,1.317,2.061,2.061,0,0,1-1.521.614A2.209,2.209,0,0,1,4,154a1.817,1.817,0,0,1-.762-1.055,39.113,39.113,0,0,1-.959-5.676c-.084-.708-.172-1.441-.271-2.151l-.041-.287c-.368-2.509-.7-5.218-1.006-8.281-.481-4.771-.786-9.6-.9-14.342-.12-4.79-.054-9.624.2-14.369.208-3.983.684-8.335,1.5-13.7l.08-.524c.076-.49.151-.988.224-1.468.23-1.516.468-3.083.738-4.621l.136-.759c.08-.437.157-.892.231-1.332a34.329,34.329,0,0,1,.85-4.039l-.154-.142a5.643,5.643,0,0,1-.826-.913,1.642,1.642,0,0,1-1.006-.5,1.538,1.538,0,0,1-.358-1.187,25.44,25.44,0,0,1,.914-4.79c.443-1.587.985-3.155,1.509-4.671l.025-.071.138-.4a91.893,91.893,0,0,1,3.809-9.35,87.445,87.445,0,0,1,9.2-15.188,85.872,85.872,0,0,1,12.093-13,76.627,76.627,0,0,1,7.454-5.768c1.327-.895,2.674-1.731,4-2.483,1.389-.787,2.8-1.508,4.2-2.143a36.212,36.212,0,0,1,8.814-2.819,31.681,31.681,0,0,1,4.591-.518,3.006,3.006,0,0,1,1.55-.418,4.366,4.366,0,0,1,2.4.8l.066.045h0l.31.061a.072.072,0,0,1,.056.073.076.076,0,0,1-.056.079.04.04,0,0,0-.015,0,5.815,5.815,0,0,1,.562.5,1.578,1.578,0,0,1,.468.947,1.661,1.661,0,0,1-.189.936,14.139,14.139,0,0,1,2.168,2.624c.625.949,1.19,1.976,1.736,2.969l.008.014.152.276a20.44,20.44,0,0,0,2.173,3.186,20.974,20.974,0,0,0,2.732,2.723,29.829,29.829,0,0,0,4.317,2.973,31.751,31.751,0,0,0,9.962,3.61,29.74,29.74,0,0,0,5.28.481,26.033,26.033,0,0,0,7.779-1.155,21.189,21.189,0,0,0,4.839-2.223,22.043,22.043,0,0,0,4.169-3.347,20.783,20.783,0,0,0,3.2-4.243,18.384,18.384,0,0,0,1.932-4.909,1.854,1.854,0,0,1-.625.112,1.626,1.626,0,0,1-.551-.1,3.86,3.86,0,0,1-1.92-1.6,13.444,13.444,0,0,1-1.142-2.333c-.052-.126-.105-.256-.158-.382l-.034-.08a37.437,37.437,0,0,1-1.707-4.954,27.307,27.307,0,0,1-.837-5.286,18.533,18.533,0,0,1,.012-2.1l.032-.578q0-.047,0-.094V6.074a1.578,1.578,0,0,1,.452-1.3.073.073,0,0,1,.045-.018.06.06,0,0,1,.027.007,1.46,1.46,0,0,1,.689,1.007l0,.006c.017.052.035.105.053.158.153.446.325.893.49,1.325v0c.095.246.192.5.286.755.1.271.2.543.309.845v0c.4,1.091.81,2.219,1.266,3.313.478,1.148,1.124,2.659,1.893,4.161.359.705.74,1.381,1.065,1.949.086.151.169.319.256.5h0a5.476,5.476,0,0,0,.567.979,2.537,2.537,0,0,1,.1-.378,1.256,1.256,0,0,0-.127.07.09.09,0,0,1-.048.014.1.1,0,0,1-.088-.055.092.092,0,0,1,0-.095,1.663,1.663,0,0,1,.689-.64c.066-.074.257-.111.567-.111a22.479,22.479,0,0,1,4.022.633c1.927.432,4.12,1.034,6.174,1.7,3.073.991,8.586,3.005,10.976,5.367a63.287,63.287,0,0,1,5.636,6.385,68.9,68.9,0,0,1,4.713,6.981,77.419,77.419,0,0,1,3.862,7.457c1.123,2.484,2.16,5.113,3.083,7.815,1.437,4.2,2.814,8.5,4.146,12.665l0,.014c.521,1.628,1.06,3.312,1.6,4.966,1.036,3.205,2.112,6.453,3.153,9.594l0,.014c.98,2.957,1.993,6.014,2.969,9.027a2.162,2.162,0,0,1,.086.992,2.292,2.292,0,0,1-.333.882,3.018,3.018,0,0,1-1.491,1.186c-2.325.858-4.631,1.65-6.854,2.354a103.729,103.729,0,0,1,2.461,13.072c.437,3.412.734,6.909,1.022,10.29h0c.239,2.8.485,5.7.81,8.534.364,3.182.79,5.948,1.3,8.457.447,2.194,1.015,4.321,1.511,6.112l.13.467c.074.263.149.536.215.777v0c.252.915.512,1.861.832,2.77.111.315.235.636.354.946a16.947,16.947,0,0,1,.7,2.093,3.105,3.105,0,0,1-.1,1.8,2.561,2.561,0,0,1-1.17,1.36,2.195,2.195,0,0,1-1.056.265,2.154,2.154,0,0,1-.974-.227,1.778,1.778,0,0,1-.733-.684,1.63,1.63,0,0,1-.207-.613c-.086-.183-.162-.364-.226-.539-.023-.061-.046-.131-.072-.218l-.066-.22c-.161-.527-.311-1.063-.456-1.581-.242-.853-.482-1.689-.751-2.533l-.136-.42c-.672-2.046-1.269-4.106-1.775-6.121-.411-1.643-.761-3.332-1.07-5.165-.275-1.632-.51-3.341-.719-5.224-.388-3.5-.623-7.068-.851-10.522h0v0c-.037-.564-.076-1.147-.114-1.719l-.026-.392c-.276-4.073-.421-7.213-.47-10.18-.061-3.7.037-7.024.3-10.169l-.077.025-.077.023c-.782.239-1.5.454-2.206.657l-.016.006c-.017.006-.034.013-.052.017-.478.148-.965.287-1.45.414l-.3.076-.209.057-.22.063-.194.057a6.649,6.649,0,0,1-1.841.358l-.1,0a23.556,23.556,0,0,1-3.621.313c.4,6.475.823,12.4,1.306,18.125.534,6.332,1.257,12.692,1.893,18.157.373,3.213.742,6.138,1.128,8.942.231,1.683.438,3.094.7,4.506.056.3.123.621.187.926a9.655,9.655,0,0,1,.295,3.787.059.059,0,0,0-.019,0,1.733,1.733,0,0,1-.843,1.127,1.841,1.841,0,0,1-.929.246,1.971,1.971,0,0,1-.94-.238,1.765,1.765,0,0,1-.7-.682c-.042-.074-.083-.15-.12-.228a4.414,4.414,0,0,1-1.751.309l-9.283.093c-3.836.038-8.294.085-12.659.148-4.218.062-8.474.128-12.589.192h-.005c-8.9.138-18.109.28-27.164.39l-4.97.057c-2.435.026-4.912.06-7.307.093h-.017c-4.881.067-9.929.137-14.891.137h-.15c-4.16,0-7.654-.018-11.182-.1-1.706-.042-3.4-.105-5.413-.188l-.319-.014-.494-.026c-.573-.031-1.165-.063-1.75-.063a9.431,9.431,0,0,0-2.134.207A1.146,1.146,0,0,1,34.518,155.625ZM67.9,20.419a1.78,1.78,0,0,1-1.295-.617,2.676,2.676,0,0,1-.661-1.379,1.98,1.98,0,0,1,.183-1.245,1.776,1.776,0,0,1,1.085-.849,14.869,14.869,0,0,0,3.873-2.913A20.565,20.565,0,0,0,74.025,9.55a27.978,27.978,0,0,0,2.244-4.618c.273-.741.5-1.508.717-2.249h0c.255-.866.519-1.761.858-2.617A.108.108,0,0,1,77.94,0a.073.073,0,0,1,.068.044,8.21,8.21,0,0,1,.745,2.692A12.282,12.282,0,0,1,78.7,5.644a18.572,18.572,0,0,1-1.665,5.485,19.4,19.4,0,0,1-2.96,4.445,26.735,26.735,0,0,1-3.9,3.588c-.38.291-.786.588-1.206.885A1.84,1.84,0,0,1,67.9,20.419Z" transform="translate(5.705 -3.573)"/>
  </g>
  <g id="HEAD" transform="translate(78.592 38.043)">
    <path id="_Skin-2" data-name="âœ‹ Skin" d="M73.185,52.954c.108-5.3-.382-10.738-2.953-15.479a51.206,51.206,0,0,0-8.944-11.9c-1.418-1.5-3.313-3.007-3.135-5.278.186-2.383,1.616-7.544,1.836-9.948.434-4.727-2.941-6.028-6.886-8.274C48.345-.629,42.659-.316,37.5.9,27.883,3.2,16.454,7.02,12.82,17.237c-.874,2.52-.656,5.172-.83,7.786a22.393,22.393,0,0,1-2.077,7.013C4.963,43.087,5.007,55.287,5.906,67.148A7.627,7.627,0,0,0,.124,72.579c-.977,4.811,4.056,7.035,7.029,9.635,3.625,3.171,6.264,7.275,9.56,10.759,21.385,23.638,68.571,12.759,58.762-24.06C74.143,63.681,72.987,58.389,73.185,52.954Z" transform="translate(9.698 -1.691)" fill="#d08b5b"/>
    <path id="_Hair" data-name="ðŸ’ˆ Hair" d="M25.554.9C30.66-.3,36.284-.623,41.013,2l.5.28c3.791,2.128,6.954,3.489,6.533,8.074-.221,2.4-1.65,7.565-1.836,9.948q-.009.113-.011.223L44,30.385H32.07q-8.616-9.252-15.4-9.252-6.7,0-14.193,4.136l-.2.111L0,25.51q.027-.243.043-.487C.217,22.41,0,19.757.873,17.237,4.507,7.02,15.936,3.2,25.554.9Z" transform="translate(21.645 -1.691)" fill="#ec7495"/>
    <path id="_Ink-2" data-name="ðŸ– Ink" d="M49.436,109.164c-.141,0-.284,0-.425,0a26.837,26.837,0,0,1-5.928-.725,16.43,16.43,0,0,1-5.46-2.339,2.185,2.185,0,0,1-.86-1.066,1.823,1.823,0,0,1-.017-1.153,2.059,2.059,0,0,1,.715-1.016,2.035,2.035,0,0,1,1.245-.419,2.384,2.384,0,0,1,.932.2l.633.267a26.967,26.967,0,0,0,4.952,1.667,21.014,21.014,0,0,0,4.264.417c.531,0,1.081-.018,1.633-.052a24.429,24.429,0,0,0,10.748-3.431A32.736,32.736,0,0,0,66.1,98.568a40.8,40.8,0,0,0,3.772-3.515l.264-.279a42.058,42.058,0,0,0,3.249-3.826,20.551,20.551,0,0,0,2.513-4.313A10.86,10.86,0,0,0,76.6,84.2a7.821,7.821,0,0,0,.011-2.528,21.409,21.409,0,0,0-.973-3.419c-.254-.734-.516-1.493-.717-2.25a38.458,38.458,0,0,1-1.011-5.5c-.192-1.663-.315-3.49-.377-5.584l-.008-.286c-.039-1.469-.049-2.966-.059-4.413-.021-3.037-.043-6.177-.331-9.23a41.629,41.629,0,0,0-.666-4.548,30.648,30.648,0,0,0-1.266-4.468A27.551,27.551,0,0,0,69.6,38.439a37.86,37.86,0,0,0-2.011-3.295c-1.444-2.133-3.093-4.19-4.687-6.179-1.1-1.369-2.232-2.785-3.287-4.21l-.1.465c-.165.752-.336,1.53-.506,2.295-.082.367-.162.74-.239,1.1-.155.722-.316,1.468-.494,2.2l-.02.08a.581.581,0,0,1-.162.672l-.049.036-.022.016a1.912,1.912,0,0,1-.441.656,1.676,1.676,0,0,1-.763.4,1.446,1.446,0,0,1-.348.044,1.187,1.187,0,0,1-1.038-.607l-3.236.017c-.52,0-1.065.02-1.591.037-.594.019-1.208.039-1.813.039a14.341,14.341,0,0,1-2.927-.248.264.264,0,0,1-.218-.259.332.332,0,0,1,.218-.334,19.915,19.915,0,0,1,4.572-.653c.539-.035,1.047-.069,1.55-.116l3.125-.292c.146-.013.292-.031.416-.047l.209-.026L56.82,25.38c.113-.5.228-1.01.339-1.5.317-1.4.646-2.844.937-4.272.7-3.451,1.488-6.945,2.247-10.323v0l.019-.085a26.756,26.756,0,0,0-6.376-.785c-.361,0-.726.008-1.087.023l-.291.013a9.545,9.545,0,0,0-1.484.161,3.642,3.642,0,0,0-1.364.553,3.893,3.893,0,0,0-1.211,2.716c-.034.2-.066.388-.1.571-.677,3.378-1.128,6.75-1.446,9.31-.122.986-.227,1.989-.328,2.959v0c-.054.514-.109,1.045-.166,1.567-.026.238-.049.482-.072.718-.042.443-.085.9-.152,1.345a9.67,9.67,0,0,1-.256,1.1c-.073.267-.148.543-.2.816a1.073,1.073,0,0,1-.227.906,1.228,1.228,0,0,1-.928.477.943.943,0,0,1-.725-.345c-.292-.336-.576-.682-.851-1.016a23,23,0,0,0-1.94-2.161,20,20,0,0,0-3.418-2.587,25.555,25.555,0,0,0-3.838-1.874,41.183,41.183,0,0,0-4.057-1.333.244.244,0,0,1-.171-.15,39.176,39.176,0,0,0-8.044,3.249,25.875,25.875,0,0,0-7.66,6.378,24.813,24.813,0,0,0-2.748,4.178A23.244,23.244,0,0,0,9.39,40.662a36.943,36.943,0,0,0-1.072,6.177c-.175,1.846-.26,3.839-.269,6.273a36.231,36.231,0,0,0,.339,5.8A27.68,27.68,0,0,0,9.578,63.3c.182.55.37,1.118.543,1.689a2.023,2.023,0,0,1-.05,1.409l.158.024a10.808,10.808,0,0,1,2.383.628c.963.4,1.5.915,1.6,1.52a.644.644,0,0,1-.109.505.606.606,0,0,1-.443.222c-.038,0-.076,0-.113,0a2.038,2.038,0,0,1-1.206-.534c-.129-.095-.263-.193-.4-.28-.091-.057-.186-.11-.278-.162l-.033-.019a.089.089,0,0,1-.051.016.1.1,0,0,1-.05-.014,4.524,4.524,0,0,0-2.269-.606A5.838,5.838,0,0,0,5.5,69.219a7.008,7.008,0,0,0-1.371,1.6,6.057,6.057,0,0,0-.789,1.9,8.38,8.38,0,0,0-.17,2.427A7.979,7.979,0,0,0,3.7,77.5,6.7,6.7,0,0,0,4.94,79.519a5.847,5.847,0,0,0,1.94,1.424c.508.23,1.035.436,1.545.634a15.2,15.2,0,0,1,3.038,1.452,15.133,15.133,0,0,1,3.158,2.884,46.374,46.374,0,0,1,3.3,4.717c.541.845,1.1,1.719,1.68,2.558a16.015,16.015,0,0,0,2.518,2.925,8.485,8.485,0,0,0,1.106.787,3.711,3.711,0,0,1,1.881,2,1.321,1.321,0,0,1-.057.883,1.362,1.362,0,0,1-.575.672,2.413,2.413,0,0,1-1.2.319,3.238,3.238,0,0,1-1.148-.23,5.807,5.807,0,0,1-1.105-.581,13.69,13.69,0,0,1-1.883-1.56,24.483,24.483,0,0,1-3.473-4.431c-.378-.585-.751-1.2-1.111-1.793a21.185,21.185,0,0,0-4.528-5.822A12.824,12.824,0,0,0,6.76,84.637c-.588-.24-1.2-.487-1.774-.777a8.324,8.324,0,0,1-2.478-1.891A9.237,9.237,0,0,1,.864,79.314a11.588,11.588,0,0,1-.764-5.9,9.29,9.29,0,0,1,2.511-5.336,6.357,6.357,0,0,1,1.553-1.16,6.445,6.445,0,0,1,1.779-.633,20.628,20.628,0,0,1-2.06-7.526,41.854,41.854,0,0,1-.222-7.542l.026-.489A44.252,44.252,0,0,1,6.069,37.415a27.169,27.169,0,0,1,2.573-5.061,24.646,24.646,0,0,1,3.614-4.373c.269-.257.554-.518.872-.8a1.719,1.719,0,0,1-.224-.2,2.272,2.272,0,0,1-.571-1.348,7.4,7.4,0,0,1,.05-1.5v-.008q.008-.084.017-.167a24.8,24.8,0,0,1,.576-3.456,23.729,23.729,0,0,1,2.169-5.627A24.372,24.372,0,0,1,28.523,3.458a33.762,33.762,0,0,1,3.416-.991A36.9,36.9,0,0,1,38.194.64,33.588,33.588,0,0,1,44.66,0a31.41,31.41,0,0,1,4.009.256A29.733,29.733,0,0,1,57.48,2.782a24.692,24.692,0,0,1,3.853,2.242l.111.079a6.647,6.647,0,0,1,1.315,1.18,2.077,2.077,0,0,1,.511,1.524,1.51,1.51,0,0,1,.028.771c-.737,3.315-1.514,6.676-2.266,9.926l0,.009c-.214.924-.435,1.879-.651,2.819s-.427,1.887-.6,2.684a57.257,57.257,0,0,1,4.873,4.114,47.345,47.345,0,0,1,4.4,4.756,32.714,32.714,0,0,1,6.047,11.229,34.776,34.776,0,0,1,.885,3.9c.21,1.235.372,2.528.494,3.954.228,2.649.283,5.364.337,7.99.059,2.89.12,5.879.411,8.788a34.606,34.606,0,0,0,1.04,5.751c.249.907.578,1.806.9,2.675a27.778,27.778,0,0,1,1.054,3.3,12.132,12.132,0,0,1,.3,3.063,13.905,13.905,0,0,1-.427,2.991,19.965,19.965,0,0,1-2.46,5.585,38.972,38.972,0,0,1-7.425,8.747,36.776,36.776,0,0,1-4.616,3.442,33.568,33.568,0,0,1-5.086,2.628A29.4,29.4,0,0,1,49.436,109.164ZM28.411,20.771a17.1,17.1,0,0,1,3.721.407.2.2,0,0,1,0,.382c-.254.057-.511.12-.76.181l-.146.036a16.909,16.909,0,0,1,7.49,2.081,23.685,23.685,0,0,1,3.335,2.173,16.65,16.65,0,0,1,2.873,2.825,7.012,7.012,0,0,1-.09-.917c-.02-.907.007-1.8.032-2.475.059-1.6.166-3.3.334-5.349l.065-.776a80.4,80.4,0,0,1,1.212-9.353,5.092,5.092,0,0,1,.974-2.173A4.773,4.773,0,0,1,49.137,6.5a12.364,12.364,0,0,0-4.143-1.613A24.129,24.129,0,0,0,40.6,4.406c-.242-.006-.488-.009-.732-.009a29.854,29.854,0,0,0-4.742.381A28.48,28.48,0,0,0,30.449,5.94a24.764,24.764,0,0,0-4.364,1.971,19.974,19.974,0,0,0-6.723,6.248,32.8,32.8,0,0,0-2.25,3.911,17.567,17.567,0,0,0-1.375,4.158,18.176,18.176,0,0,0-.363,2.348c0,.057-.008.116-.01.174a2.728,2.728,0,0,1-.024.291c-.016.1-.036.155-.06.155h-.006a.938.938,0,0,0,.116.179,25.9,25.9,0,0,1,6.2-3.334A19.8,19.8,0,0,1,28.411,20.771ZM44.15,2.159c-.18,0-.364,0-.545,0a13.123,13.123,0,0,1,3.174,1.245A9.063,9.063,0,0,1,49.8,6.224a9.809,9.809,0,0,1,2.517-.479c.6-.042,1.211-.064,1.821-.064a28.153,28.153,0,0,1,4.4.355c-.39-.241-.783-.47-1.17-.681a25.1,25.1,0,0,0-4.789-1.983A29.27,29.27,0,0,0,44.15,2.159Zm-31,75.191a1.4,1.4,0,0,1-1.137-.526c-.209-.274-.394-.544-.574-.8-.234-.34-.454-.661-.709-.968a1.586,1.586,0,0,0-.161.18l-.035.049a1.106,1.106,0,0,1-.83.532.64.64,0,0,1-.085-.006l-.1-.013a1.008,1.008,0,0,1-.9-.646l-.01-.047-.014-.074a1.309,1.309,0,0,1,.047-.682.953.953,0,0,1,.44-.518l.054-.027h0l.033-.017a9.686,9.686,0,0,0-1.926-.7c-.351-.1-.713-.2-1.079-.33a.135.135,0,0,1-.091-.112.127.127,0,0,1,.061-.123,3.509,3.509,0,0,1,1.9-.48,7.088,7.088,0,0,1,2.521.51,8.333,8.333,0,0,1,2.215,1.291,4.936,4.936,0,0,1,1.523,2.02,1.041,1.041,0,0,1-.066.993A1.309,1.309,0,0,1,13.148,77.35Z" transform="translate(8.643 -2.747)"/>
  </g>
  <g id="FACE" transform="translate(112.183 77.354)">
    <path id="_Ink-3" data-name="ðŸ– Ink" d="M23.822,50.42a12.453,12.453,0,0,1-1.425-.079l-.227-.028a11.56,11.56,0,0,1-2.378-.537,6.485,6.485,0,0,1-2.109-1.186.425.425,0,0,1-.117-.433.433.433,0,0,1,.318-.328,20.719,20.719,0,0,1,2.656-.321c.6-.047,1.226-.095,1.831-.179a12.991,12.991,0,0,0,1.415-.31,8.7,8.7,0,0,1,2.108-.365,2.967,2.967,0,0,1,1.317.283,1.5,1.5,0,0,1,.743,1.009,1.391,1.391,0,0,1-.174,1.163,2.738,2.738,0,0,1-1.174.968,4.965,4.965,0,0,1-1.518.291C24.65,50.4,24.224,50.42,23.822,50.42ZM21.27,46.205a.009.009,0,0,1-.008,0,5.293,5.293,0,0,1-.772-2.551.009.009,0,0,1,0-.007.01.01,0,0,1,.007,0,.01.01,0,0,1,.01.01,5.27,5.27,0,0,0,.769,2.541.009.009,0,0,1,0,.01A.011.011,0,0,1,21.27,46.205Zm4.336-12.552h0a7.372,7.372,0,0,1-2.629-.53,13.282,13.282,0,0,1-3.093-1.756,1.189,1.189,0,0,1-.432-.687,1.423,1.423,0,0,1,.061-.771,1.754,1.754,0,0,1,.521-.753,1.267,1.267,0,0,1,.811-.317,1.151,1.151,0,0,1,.628.193l.212.163a16.74,16.74,0,0,0,1.936,1.347,4.768,4.768,0,0,0,2.321.74,2.505,2.505,0,0,0,.981-.193,2.741,2.741,0,0,0,.913-.647,2.8,2.8,0,0,0,.531-2.255,4.26,4.26,0,0,0-1.13-2,8.24,8.24,0,0,0-1.711-1.381.531.531,0,0,1-.143-.61.8.8,0,0,1,.264-.38.809.809,0,0,1,.5-.167,1.075,1.075,0,0,1,.182.016,5.736,5.736,0,0,1,2.018.729,4.578,4.578,0,0,1,1.357,1.252,4.974,4.974,0,0,1,.866,3.322,5.475,5.475,0,0,1-.444,1.744,5.088,5.088,0,0,1-1,1.5A4.779,4.779,0,0,1,25.606,33.653ZM33.69,22.894a1.79,1.79,0,0,1-1.059-.363,3.109,3.109,0,0,1-.854-.991,6.366,6.366,0,0,1-.745-3.118,6.366,6.366,0,0,1,.745-3.118,3.107,3.107,0,0,1,.854-.991,1.728,1.728,0,0,1,2.118,0,3.112,3.112,0,0,1,.854.991,6.366,6.366,0,0,1,.745,3.118A6.366,6.366,0,0,1,35.6,21.54a3.114,3.114,0,0,1-.854.991A1.79,1.79,0,0,1,33.69,22.894ZM9.857,22.865a2,2,0,0,1-1.7-1.289,4.852,4.852,0,0,1-.2-2.482,2.665,2.665,0,0,1,.338-.907l.048-.075-.008-.107c0-.016,0-.031,0-.046s0-.021,0-.032c-1.276-.078-2.61-.206-4.077-.392l-.452-.059c-.2-.026-.412-.049-.637-.074a6.417,6.417,0,0,1-3.157-.882A.051.051,0,0,1,0,16.476a.061.061,0,0,1,.029-.048,3.044,3.044,0,0,1,1.41-.279l.2-.008.083,0c.632-.033,1.263-.06,1.877-.081l.626-.02c1.677-.048,3.37-.132,4.805-.209.242-.013.487-.028.725-.043l.11-.007a2.678,2.678,0,0,1,.907-.209l.094,0a2.08,2.08,0,0,1,.632.1c.572-.044,1.162-.094,1.753-.147l.584-.054c.221-.021.449-.039.67-.057a16.366,16.366,0,0,0,1.833-.215l.141-.027a3.662,3.662,0,0,1,.655-.072,1.969,1.969,0,0,1,1.3.534.911.911,0,0,1,.343.649,1.464,1.464,0,0,1-.343,1.047,2.041,2.041,0,0,1-1.835.659c-.13,0-.264,0-.405.006l-.064,0c-.768.031-1.54.053-2.294.064-.138,0-.277,0-.412,0h-.216a4.753,4.753,0,0,1-.722,2.571,7.354,7.354,0,0,1-1.841,1.96A1.281,1.281,0,0,1,9.857,22.865ZM24.532,9.044l-.022,0a2.035,2.035,0,0,1-1.373-1.736,6.142,6.142,0,0,1,.02-2.378,6.357,6.357,0,0,1,1.18-2.488A6.122,6.122,0,0,1,26.454.681,6.868,6.868,0,0,1,29.47,0a7.412,7.412,0,0,1,2.7.51l.12.049a7.5,7.5,0,0,1,2.646,1.817,4,4,0,0,1,.817,1.336,2.823,2.823,0,0,1,.1,1.551,1.644,1.644,0,0,1-.669,1.025,1.946,1.946,0,0,1-1.116.329A2.169,2.169,0,0,1,32.774,6.2a1.594,1.594,0,0,1-.661-1.172,3.076,3.076,0,0,0-1.248-.989,3.943,3.943,0,0,0-1.6-.334,3.562,3.562,0,0,0-1.868.5,5.15,5.15,0,0,0-1.868,2.374,7.118,7.118,0,0,0-.313.943,4.243,4.243,0,0,1-.631,1.491A.069.069,0,0,1,24.532,9.044Z" transform="translate(10.563 5.706)"/>
  </g>
</svg>
