<svg id="peep-72" xmlns="http://www.w3.org/2000/svg" width="240" height="324" viewBox="0 0 240 324">
  <g id="BODY" transform="translate(31.056 135.053)">
    <path id="_Skin" data-name="âœ‹ Skin" d="M19.044,157.28q3.794.235,7.587.374c33.07,1.233,66.113-2.539,99.162-3.364a322.372,322.372,0,0,1,34.439.773,2.276,2.276,0,0,0,2.273-2.274c-2.121-18.314-4.774-36.58-6.149-54.97a8.291,8.291,0,0,1,.459-2.86c.063-.072.39-.878.68-.927-.095.07.335-.053.061-.032,1.66-.272,3.288-2.064,2.083-3.779-12.408-19.025-29.346-36.39-34.8-58.987-1.287-6.109-5.938-6.487-10.892-9.007-1.546-.92-5.325-3.467-5.941-5.238-1.469-6.383,1.118-12.637-6.442-15.22C96.578.384,87.757-.787,82.708.673c-6.16,2.051-5.7,8.994-9.271,13.772-1.848,2.763-5,6.546-7.907,6.97-1.41.205-2.448-2.648-3.856-2.451C39.733,24.294,9.84,60.66.41,80.791c-2.125,6.336,4.729,4.424,4.307,10.792-.519,12.081-1.654,27.547-.981,39.642.631,7.02.164,14.376,2.345,21.132-.587.713.256,1.434.945,1.743C7.893,155.576,16.427,157.075,19.044,157.28Z" transform="translate(5.105 -6.763)" fill="#d08b5b"/>
    <path id="_Top" data-name="ðŸ‘• Top" d="M61.674.006c1.313-.183,1.4,3.678,2.669,3.845,5.9,8.286,15.043,11.037,25.617,11.037q16.837,0,27.305-10.131l.64.27c3.3,1.4,6,2.821,6.938,7.25,5.449,22.6,22.388,39.962,34.8,58.987,1.2,1.715-.423,3.507-2.083,3.779.274-.021-.156.1-.061.032-.29.05-.617.856-.68.927a7.3,7.3,0,0,0-.348,1.363s-13.9,2.946-17.637,3.027c-37.525.812-106.147-.348-106.147-.348L3.939,69.169C2.3,66.7-1.189,66.6.41,61.835,9.84,41.7,39.733,5.337,61.674.006Z" transform="translate(5.105 12.193)" fill="#e86bbb"/>
    <path id="_Ink" data-name="ðŸ– Ink" d="M37.576,153.9c-1.532,0-2.917-.047-4.235-.143a.23.23,0,0,1-.156-.07,2.751,2.751,0,0,1-1.635-.829,2.137,2.137,0,0,1-.646-1.684l0-.022c.48-5.035,1.024-10.742,1.553-16.263.973-10.192,1.888-19.684,2.8-29.018l.136-1.4c.306-3.149.617-6.5.772-9.8-.773-.055-1.552-.125-2.315-.209-2.034-.223-4.121-.551-6.2-.976-1.987-.405-4.031-.911-6.076-1.5-1.938-.562-3.94-1.219-5.951-1.955-1.889-.691-3.85-1.475-5.829-2.33l-.312-.135c-.463-.2-.948-.4-1.462-.612l-.005,0-.762-.314c.008.878-.007,1.769-.021,2.63-.009.586-.019,1.193-.022,1.789-.007,1.7,0,3.418.007,5.085v.007c0,.719.006,1.462.008,2.192.013,4.337.153,8.962.454,15,.688,13.867,1.285,21.4,1.728,26.419.092,1.042.2,2.1.309,3.124v0c.119,1.149.243,2.338.342,3.508a3.926,3.926,0,0,1-.185,1.77A2.537,2.537,0,0,1,8.7,149.471a1.347,1.347,0,0,1-.681.2,2.237,2.237,0,0,1-.943-.274,2.337,2.337,0,0,1-1.236-1.407,7.87,7.87,0,0,1-.335-1.914c-.01-.107-.019-.2-.028-.3-.113-1.13-.215-2.255-.292-3.109-.2-2.264-.374-4.5-.509-6.643-.282-4.513-.456-8.958-.515-13.211-.063-4.492,0-8.939.183-13.219.179-4.169.437-8.333.77-12.378l.08-.95c.06-.7.116-1.431.17-2.133v-.007c.2-2.613.411-5.315.864-7.915A17.867,17.867,0,0,1,2.91,84.378,7.367,7.367,0,0,1,.531,81.684a4.586,4.586,0,0,1-.18-3.9,6.232,6.232,0,0,1,1.016-1.637,9.458,9.458,0,0,1,1.471-1.387,2.729,2.729,0,0,1,.059-.814,57.881,57.881,0,0,1,2.675-7.94C6.6,63.39,7.735,60.824,8.944,58.383a95.316,95.316,0,0,1,8.723-14.256A97.064,97.064,0,0,1,28.725,31.594a84.791,84.791,0,0,1,13.069-10.3,75.273,75.273,0,0,1,7.162-4.022l.364-.177a28.61,28.61,0,0,1,5.545-2.181c.19-.141.392-.283.6-.421a1.4,1.4,0,0,1,.776-.231,1.675,1.675,0,0,1,.818.221,1.722,1.722,0,0,1,.618.585,3.931,3.931,0,0,1,.75-.448l.282-.129a10.953,10.953,0,0,1,4.3-1.154,5.018,5.018,0,0,1,1.319.169A3.683,3.683,0,0,1,66.8,15.75a26.4,26.4,0,0,0,2.753-1.627,22.85,22.85,0,0,0,3.925-3.536,21.73,21.73,0,0,0,3.012-4.25,19.019,19.019,0,0,0,1.819-4.875A1.812,1.812,0,0,1,79.005.348,1.9,1.9,0,0,1,80.139,0a2.432,2.432,0,0,1,1.021.229,2.187,2.187,0,0,1,.816.644,1.854,1.854,0,0,1,.293,1.679A21.373,21.373,0,0,1,79.8,8.209a19.143,19.143,0,0,1-4.036,4.658,21.057,21.057,0,0,1-4.229,2.717,14.768,14.768,0,0,1-4.875,1.449c.164.159.327.328.485.491h0c.141.146.288.3.435.442a29.081,29.081,0,0,0,2.229,1.978,32.305,32.305,0,0,0,5.045,3.409,33.363,33.363,0,0,0,4.24,1.9,35.469,35.469,0,0,0,4.4,1.3,41.38,41.38,0,0,0,9.119.979,50.9,50.9,0,0,0,5.635-.323,57.022,57.022,0,0,0,5.73-.911,36.336,36.336,0,0,0,5.558-1.638,19.693,19.693,0,0,0,4.712-2.57l.374-.281a7.962,7.962,0,0,0,2.223-2.243,1.858,1.858,0,0,1-.407.044,4.039,4.039,0,0,1-2.078-.764,14.255,14.255,0,0,1-1.74-1.366,12.608,12.608,0,0,1-2.67-3.511,12.911,12.911,0,0,1-1.367-4.17,9.511,9.511,0,0,1-.056-2.2,7.437,7.437,0,0,1,.51-2.111.18.18,0,0,1,.164-.119.171.171,0,0,1,.167.164,18.092,18.092,0,0,0,.994,4.526,11.959,11.959,0,0,0,1,2.053,10.843,10.843,0,0,0,1.445,1.86,11.862,11.862,0,0,0,3.517,2.5l.185.085a2.512,2.512,0,0,1,1.383,1.116.685.685,0,0,1,.078,0,.731.731,0,0,1,.19.026c.071.019.141.041.22.07a2.216,2.216,0,0,1-.224-1.1,1.313,1.313,0,0,1,.423-.97,1.327,1.327,0,0,1,.884-.321,1.413,1.413,0,0,1,.831.266,1.3,1.3,0,0,1,.5.793c-.016-.054-.036-.086-.053-.086s-.015.008-.017.021a.115.115,0,0,0,.081.118h0a.822.822,0,0,1,.014.082l0,.037,0-.031c0-.02,0-.04-.008-.062l0-.027a.2.2,0,0,0,.085.017l.014.005.105.048h0c.072.033.154.07.188.084a4.862,4.862,0,0,0,.657.174c.176.038.358.077.53.131a3.789,3.789,0,0,1,2.09,1.412,3.9,3.9,0,0,1,.657,1.742,41.909,41.909,0,0,1,5.373,3.082,35.223,35.223,0,0,1,4.8,3.9,53.705,53.705,0,0,1,4.572,5.088,65.318,65.318,0,0,1,3.935,5.567,97.732,97.732,0,0,1,6.4,12.076c1.82,4.021,3.429,8.054,5.285,12.87l.263.683c1.4,3.653,2.021,5.685,2.4,7.047a37.822,37.822,0,0,1,1.354,7.308,1.8,1.8,0,0,1-.368,1.217,4.171,4.171,0,0,1,.125,1.12c0,.062-.007.124-.011.171h.036a2.139,2.139,0,0,1,1.709.947,1.2,1.2,0,0,1,.364-.058,1.126,1.126,0,0,1,.348.055c1.38.441,1.674,1.9,1.932,3.188q.025.124.05.245a21.428,21.428,0,0,1,.412,4.246,1.743,1.743,0,0,1-.208.794,1.269,1.269,0,0,1-.578.575c-.545.24-1.125.436-1.686.624-.4.134-.808.272-1.206.426-.744.287-1.477.553-2.178.791a6.537,6.537,0,0,1,.573,1.719v0c.06.255.117.5.183.718.328,1.11.607,2.263.854,3.525.88,4.526,1.621,9.155,2.338,13.631.567,3.541,1.153,7.2,1.8,10.788.759,4.19,1.636,8.3,2.47,12.151.445,2.053.91,4.052,1.382,5.943.263,1.057.538,2.117.816,3.151.078.291.159.59.248.915l.147.533a1.92,1.92,0,0,1,.786.814,2.783,2.783,0,0,1,.242,2.029,2.52,2.52,0,0,1-.457.893,2.815,2.815,0,0,1-.822.7,2.544,2.544,0,0,1-1.272.339,3.264,3.264,0,0,1-2.706-1.63,8.708,8.708,0,0,1-.835-2.472v0c-.062-.269-.121-.523-.187-.772-.293-1.106-.587-2.267-.9-3.551-.937-3.867-1.75-7.849-2.485-12.175-.652-3.84-1.228-7.865-1.76-12.3l-.07-.588c-.483-4.088-.981-8.438-1.3-12.736-.166-2.247-.281-4.3-.353-6.275-.038-1.085.024-2.18.085-3.238.009-.159.02-.325.03-.472h0c.021-.309.042-.629.052-.943l0-.067v-.006c0-.045.009-.106.013-.17l0-.08c-1.391.435-2.881.825-4.43,1.158a37.486,37.486,0,0,1-7.962.926c-.575,0-1.15-.017-1.71-.051.5,5.9,1.107,11.153,1.865,16.056.79,5.1,1.714,10.257,2.746,15.329.5,2.443,1.04,4.944,1.667,7.645.117.5.242,1.009.363,1.5v0c.207.839.42,1.706.6,2.566a3.4,3.4,0,0,1-.119,2.249c.28.762.536,1.528.784,2.268v0l0,.006c.081.243.165.493.247.735l.1.288c.107.314.235.634.358.943a9.062,9.062,0,0,1,.643,2.081,3.071,3.071,0,0,1-.026,1.034,2.749,2.749,0,0,1-.445,1.023,3.214,3.214,0,0,1-2.535,1.378l-.019.012h0l-.035.021a2.368,2.368,0,0,1-1.132.276,2.786,2.786,0,0,1-.57-.06c-1.019.2-1.852.354-2.624.486-2.071.358-4.2.666-6.522.943-3.769.449-7.86.748-12.507.915-3.227.116-6.669.173-10.521.173-4.889,0-9.861-.092-14.669-.181h-.026c-4.809-.089-9.781-.181-14.672-.181-2.135,0-4.1.017-6.011.052-7.1.129-14.747.442-23.368.958L54,153.146c-2.959.18-6.019.366-9.029.515l-1.2.058C41.9,153.809,39.736,153.9,37.576,153.9ZM142.535,87.655c.135,2.048.283,4.058.439,5.973l2.245-.515c2.161-.5,4.458-1.035,6.7-1.685,1.522-.441,3.133-.982,4.923-1.655.907-.341,1.733-.675,2.525-1.021a12.762,12.762,0,0,0,1.186-.614l.328-.187a18.786,18.786,0,0,0-.418-2.642c-.061-.269-.149-.548-.234-.817-.062-.2-.126-.4-.181-.6a1.277,1.277,0,0,1-.355.051,1.242,1.242,0,0,1-.148-.009c.054.007.083.018.085.035.006.046-.191.122-.364.19-.086.034-.168.065-.215.09l-.013.007c-.331.19-.645.362-.959.526-.69.363-1.446.72-2.309,1.09A27.952,27.952,0,0,1,151,87.4a25.1,25.1,0,0,1-4.923.606c-.144,0-.287,0-.422,0A11.458,11.458,0,0,1,142.535,87.655ZM3.723,76.415h0l-.059.119a4.842,4.842,0,0,0-.6,2.524,2.7,2.7,0,0,0,.388,1.18,3.562,3.562,0,0,0,1.04,1.054,19.576,19.576,0,0,0,2.738,1.547c1.37.652,2.816,1.2,4.213,1.738.346.132.7.269,1.051.4l.343.134c3.345,1.313,6.416,2.37,9.387,3.231,1.656.479,3.3.9,4.877,1.249,1.677.372,3.342.677,4.95.907,1.345.191,2.766.335,4.225.429.021-1.7.014-3.428.008-5.1v0q0-.3,0-.6l-.519-.067c-.318-.041-.647-.084-.964-.122-1.552-.181-2.985-.39-4.382-.64a66.629,66.629,0,0,1-8.97-2.253,56.644,56.644,0,0,1-7.855-3.246A55.678,55.678,0,0,1,6.337,74.5a4.06,4.06,0,0,1-.593,1.269,1.837,1.837,0,0,1-1.127.731,1.672,1.672,0,0,1-.342.037,1.241,1.241,0,0,1-.552-.124ZM63.609,15.406a7.561,7.561,0,0,0-2.826.631c-.443.189-.9.385-1.335.621l-.083.047c-.5.29-.5.467-.254,1.037a17.248,17.248,0,0,0,1.155,2.146l.03.05A30.35,30.35,0,0,0,67.2,27.809a37.138,37.138,0,0,0,5.859,3.9,41.153,41.153,0,0,0,6.516,2.8,44.164,44.164,0,0,0,6.93,1.692,45,45,0,0,0,7.1.567h0a42.649,42.649,0,0,0,9.1-.967,36.113,36.113,0,0,0,8.376-2.9,28.189,28.189,0,0,0,7.233-5.089l.388-.386a21.737,21.737,0,0,0,2.658-3.064,8.313,8.313,0,0,0,.948-1.8,4.648,4.648,0,0,0,.3-1.887,1.247,1.247,0,0,0-.575-1.067,3.745,3.745,0,0,0-1.2-.392c-.107-.023-.217-.047-.326-.072a4.452,4.452,0,0,1-1.164-.429,1.868,1.868,0,0,1-.083.986,4.808,4.808,0,0,1-.512,1.054,9.933,9.933,0,0,1-1.379,1.7,19.142,19.142,0,0,1-5.59,3.724,33.4,33.4,0,0,1-6.055,2.013,58.612,58.612,0,0,1-6.3,1.092,50.878,50.878,0,0,1-6.262.395A44.913,44.913,0,0,1,85,28.959a36.349,36.349,0,0,1-6.1-1.68,30.545,30.545,0,0,1-5.667-2.8,26.012,26.012,0,0,1-4.6-3.593l-.289-.292c-.469-.475-1.01-1.033-1.5-1.636a8.5,8.5,0,0,1-1.209-1.869h-.082c-.194,0-.391-.007-.585-.02a.183.183,0,0,1-.164-.144.147.147,0,0,1,.079-.169c.166-.088.344-.182.526-.277-.033-.108-.057-.2-.076-.29a.106.106,0,0,1,.022-.089.1.1,0,0,1,.075-.038.092.092,0,0,1,.048.014c.1.059.2.125.306.2.027-.012.054-.027.082-.042A2.969,2.969,0,0,0,63.609,15.406Z" transform="translate(2.958 -1.39)"/>
  </g>
  <g id="HEAD" transform="translate(78.592 38.043)">
    <path id="_Skin-2" data-name="âœ‹ Skin" d="M36.094.016C67.825,1.023,69.739,16.133,69.739,41.473S53.278,82.78,47.217,85.568,25.2,100.333,10.793,94.814.561,65.978.561,55.96,4.362-.991,36.094.016Z" transform="translate(18.78 22.212)" fill="#d08b5b"/>
    <path id="_hijab" data-name="ðŸ§• hijab" d="M0,39.279Q9.841-.951,35.932.023C62.022,1,61.747,27.656,60.11,25.225q-1.6-2.382-22.461-16.643L36.789,8Z" transform="translate(24.203 23.163)" fill="#9fd8e5"/>
    <path id="_Ink-2" data-name="ðŸ– Ink" d="M54.8,132.436c-4.425,0-8.639-1.7-12.177-3.365-6.31-2.965-12.6-6.276-18.685-9.477l0,0c-1.869-.984-3.8-2-5.705-2.992-4.726-2.46-8.59-4.489-12.158-6.385-.337-.179-.779-.419-1.214-.693H4.747l-.234,0c-.271,0-.55.017-.845.034s-.608.036-.91.036a4,4,0,0,1-1.216-.155A2.15,2.15,0,0,1,.1,107.979,2.544,2.544,0,0,1,0,107.111a3.829,3.829,0,0,1,.544-1.69,12.89,12.89,0,0,1,2.861-2.992l.2-.171c1.226-1.037,2.489-1.965,3.564-2.736.5-.359,1.013-.72,1.509-1.069.9-.632,1.826-1.286,2.718-1.956l.033-.051c.064-.1.129-.2.192-.3a16.862,16.862,0,0,0,2.439-7.317,24.231,24.231,0,0,1-1.429-1.978A51.59,51.59,0,0,1,7,74.665,65.8,65.8,0,0,1,4.272,61.494a60.61,60.61,0,0,1,.08-13.348A56.114,56.114,0,0,1,12.46,24.863a57.463,57.463,0,0,1,7-9.117A54.614,54.614,0,0,1,28.141,8.26,50.086,50.086,0,0,1,38.233,2.855,41.653,41.653,0,0,1,45.462.735,38.926,38.926,0,0,1,52.933,0a36.311,36.311,0,0,1,6.813.64,34.194,34.194,0,0,1,5.573,1.574A36.858,36.858,0,0,1,70.6,4.694a37.868,37.868,0,0,1,4.834,3.274,36.8,36.8,0,0,1,4.237,3.956,41.3,41.3,0,0,1,3.106,3.849,45.059,45.059,0,0,1,2.631,4.163,53.319,53.319,0,0,1,3.962,9.047,75.982,75.982,0,0,1,3.59,19.441,74.758,74.758,0,0,1-2.6,25.1,73.221,73.221,0,0,1-4.3,11.345A80.723,80.723,0,0,1,80.007,95.42c.218.327.458.676.78,1.129,1.072,1.5,2.216,3.128,3.32,4.815a33.449,33.449,0,0,1,2.623,4.657,16.76,16.76,0,0,1,1.446,5.086,13.37,13.37,0,0,1,.076,1.75,2.53,2.53,0,0,1-.767,1.7,2.419,2.419,0,0,1-1.674.747,1.923,1.923,0,0,1-1.147-.38,5.256,5.256,0,0,0-3.188-1.018,9.474,9.474,0,0,0-2.989.562c-1.107,1.406-2.255,2.817-3.411,4.193-1.56,1.855-2.973,3.52-4.48,5.124A43.193,43.193,0,0,1,65.61,128.4a20.507,20.507,0,0,1-5.063,2.929,15.744,15.744,0,0,1-5.724,1.11Zm-31.17-30.574a.809.809,0,0,0-.538.211.972.972,0,0,0-.3.489.739.739,0,0,0,.394.868,34.029,34.029,0,0,0,6.3,2.58,53.681,53.681,0,0,0,6.647,1.523.969.969,0,0,0,.161.014.93.93,0,0,0,.894-.87.684.684,0,0,0-.607-.774,54.1,54.1,0,0,1-6.44-1.454,32.2,32.2,0,0,1-6.109-2.478A.855.855,0,0,0,23.627,101.861Zm6.21-6.929a.944.944,0,0,0-.845.593.732.732,0,0,0,.213.833,29.961,29.961,0,0,0,4.2,3.207,34.316,34.316,0,0,0,4.648,2.46,43.605,43.605,0,0,0,10.109,2.95.968.968,0,0,0,.162.014.845.845,0,0,0,.627-.274,1.007,1.007,0,0,0,.266-.595.685.685,0,0,0-.607-.776,43.029,43.029,0,0,1-9.707-2.787,32.55,32.55,0,0,1-4.47-2.332,27.945,27.945,0,0,1-4.03-3.064A.823.823,0,0,0,29.837,94.933ZM60.905,24.317l-.415.339-.027.022-.4.324c-.685.56-1.372,1.125-2.037,1.672h0c-1,.822-2.033,1.672-3.055,2.5-3.648,2.957-7.253,5.973-9.987,8.27-5.342,4.489-12.393,10.4-19.556,16.305a33.277,33.277,0,0,0-.629,6.693,40.512,40.512,0,0,0,.608,6.7,43.43,43.43,0,0,0,1.91,7.118c.9,2.54,1.971,4.979,2.8,6.82,1.412,1.324,2.612,2.4,3.774,3.379,1.382,1.166,2.7,2.185,4.018,3.116a39.263,39.263,0,0,0,10.431,5.4,26.42,26.42,0,0,0,8.217,1.363,22.243,22.243,0,0,0,5.395-.652,21,21,0,0,0,5.156-2.046,27.078,27.078,0,0,0,6.724-5.4A35.127,35.127,0,0,0,78.8,79.159c2.835-5.275,4.4-11.406,4.782-18.743a85.893,85.893,0,0,0-.106-9.855c-.217-3.475-.582-6.891-.91-9.773a.978.978,0,0,1-.138.01,1.112,1.112,0,0,1-.286-.039,4.659,4.659,0,0,1-2.071-1.6c-.185-.207-.359-.4-.539-.583-.853-.862-1.726-1.7-2.593-2.488-1.655-1.505-3.433-2.975-5.285-4.368-1.832-1.376-3.772-2.659-5.648-3.9C64.318,26.7,62.568,25.538,60.905,24.317Zm.805-3.982a20.93,20.93,0,0,0-3.238.278,21.732,21.732,0,0,0-3.113.757,25.531,25.531,0,0,0-5.847,2.788c-1.758,1.119-3.565,2.4-5.372,3.8C42.5,29.242,40.8,30.668,39.1,32.2a61.241,61.241,0,0,0-4.419,4.385,46.994,46.994,0,0,0-3.872,4.866,37.094,37.094,0,0,0-3.086,5.366A31.2,31.2,0,0,0,25.66,52.7l-.014.059c-.028.12-.058.243-.085.366C31.3,47.494,37.4,41.786,43.7,36.159c1.923-1.718,3.884-3.457,5.781-5.138l0,0,0,0c1.273-1.129,2.589-2.3,3.882-3.446,1.461-1.3,2.965-2.6,4.42-3.852l.535-.461.591-.51.005,0c.62-.535,1.26-1.088,1.892-1.629.108-.093.217-.19.323-.284h0C61.322,20.663,61.515,20.493,61.71,20.336Zm2.865.173a1.054,1.054,0,0,1-.044.184,3.235,3.235,0,0,1-.705,1.165,9.127,9.127,0,0,1-1.016.907l0,0-.19.154c-.284.23-.568.463-.812.664A28.8,28.8,0,0,1,67.7,26.106a52.337,52.337,0,0,1,5.4,3.5,65.488,65.488,0,0,1,5.673,4.645c.876.8,1.747,1.639,2.589,2.494.133.134.276.27.427.414h0c.135.128.274.26.411.4l-.023-.2,0-.024-.037-.318a1.386,1.386,0,0,1,.272-.976,21.623,21.623,0,0,0-2.582-5.731,21.909,21.909,0,0,0-4.04-4.7A21.571,21.571,0,0,0,70.6,22.248,20.857,20.857,0,0,0,64.575,20.509Z" transform="translate(0.632 7.82)"/>
  </g>
  <g id="FACE" transform="translate(112.183 77.354)">
    <path id="_Ink-3" data-name="ðŸ– Ink" d="M22.824,40.539a8.045,8.045,0,0,1-3.052-.61,8.621,8.621,0,0,1-1.992-1.145,8.487,8.487,0,0,1-1.622-1.636,1.676,1.676,0,0,1-.338-1.3,1.871,1.871,0,0,1,.728-1.172,1.793,1.793,0,0,1,1.067-.372,1.548,1.548,0,0,1,.238.018,1.648,1.648,0,0,1,1.1.73l.065.09A5.7,5.7,0,0,0,21.108,36.9a4.735,4.735,0,0,0,2.069.483,4.583,4.583,0,0,0,.513-.029,5.388,5.388,0,0,0,2.278-.8,10.668,10.668,0,0,0,1.93-1.611c.138-.141.284-.294.474-.5a.751.751,0,0,1,.394-.3.806.806,0,0,1,.256-.041.871.871,0,0,1,.714.373.8.8,0,0,1,.135.524,4.812,4.812,0,0,1-.57,1.864,6.221,6.221,0,0,1-1.22,1.567,7.841,7.841,0,0,1-1.847,1.288,7.69,7.69,0,0,1-2.05.7A7.548,7.548,0,0,1,22.824,40.539Zm2.148-12.17h0a7.373,7.373,0,0,1-2.63-.53,13.281,13.281,0,0,1-3.093-1.756,1.189,1.189,0,0,1-.432-.687,1.423,1.423,0,0,1,.061-.771,1.754,1.754,0,0,1,.521-.753,1.267,1.267,0,0,1,.812-.317,1.151,1.151,0,0,1,.628.193l.209.161,0,0a16.744,16.744,0,0,0,1.936,1.347,4.768,4.768,0,0,0,2.321.74,2.505,2.505,0,0,0,.981-.193,2.74,2.74,0,0,0,.913-.647,2.8,2.8,0,0,0,.531-2.255,4.26,4.26,0,0,0-1.13-2,8.241,8.241,0,0,0-1.711-1.381.531.531,0,0,1-.144-.61.8.8,0,0,1,.264-.38.809.809,0,0,1,.505-.167,1.076,1.076,0,0,1,.181.016,5.736,5.736,0,0,1,2.018.729,4.577,4.577,0,0,1,1.357,1.252,4.974,4.974,0,0,1,.866,3.322,5.475,5.475,0,0,1-.444,1.744,5.087,5.087,0,0,1-1,1.5A4.779,4.779,0,0,1,24.972,28.369ZM7.859,16.485a1.724,1.724,0,0,1-1.119-.439,1.744,1.744,0,0,1-.587-1.128,12.706,12.706,0,0,1,.067-3.308c.04-.321.081-.654.11-1.012a1.98,1.98,0,0,1,.75-1.415,2.31,2.31,0,0,1,1.421-.5,1.751,1.751,0,0,1,1.075.338,1.594,1.594,0,0,1,.594,1.057,8.877,8.877,0,0,1-.926,5.469,1.754,1.754,0,0,1-.619.716A1.427,1.427,0,0,1,7.859,16.485Zm25.119-.75a1.508,1.508,0,0,1-1.183-.507A4.624,4.624,0,0,1,31.074,14a5.342,5.342,0,0,1-.368-1.477,3.131,3.131,0,0,1,.853-2.687,1.772,1.772,0,0,1,.137-.208,1.933,1.933,0,0,1,1.487-.856,1.611,1.611,0,0,1,.452.067,2.175,2.175,0,0,1,1.453,1.268,4.486,4.486,0,0,1,.18,2.453,8.214,8.214,0,0,1-.744,2.314,1.5,1.5,0,0,1-.643.635A1.947,1.947,0,0,1,32.979,15.735ZM.278,7.854a.274.274,0,0,1-.229-.14.306.306,0,0,1-.018-.3A10.425,10.425,0,0,1,2.368,4.454,14.446,14.446,0,0,1,5.5,2.317a13.445,13.445,0,0,1,3.714-1.3l.4-.069A9.66,9.66,0,0,1,11.226.776a2.5,2.5,0,0,1,2,.746,1.7,1.7,0,0,1,.4,1.208,1.106,1.106,0,0,1-.4.789,3.08,3.08,0,0,1-2.112.62c-.166,0-.338,0-.5-.008H10.6c-.16,0-.341-.009-.521-.009s-.314,0-.452.012a14.274,14.274,0,0,0-3.143.536A21.357,21.357,0,0,0,.424,7.806.26.26,0,0,1,.278,7.854Zm38.247-1.6h0l-.167-.042A9.458,9.458,0,0,1,36.524,5.5l-.6-.293A16.537,16.537,0,0,0,33.8,4.3a25.089,25.089,0,0,0-4.845-1.07,1.979,1.979,0,0,1-.972-.369,1.457,1.457,0,0,1-.544-.828A1.482,1.482,0,0,1,27.609.786a1.581,1.581,0,0,1,.767-.661A1.725,1.725,0,0,1,29.03,0a1.926,1.926,0,0,1,.377.038l.3.062a21.676,21.676,0,0,1,5.232,1.7,10.579,10.579,0,0,1,2.3,1.514,6.719,6.719,0,0,1,1.627,2.1c.057.439,0,.548-.055.622L38.8,6.06l-.015.02a.421.421,0,0,1-.26.173Z" transform="translate(11.197 10.99)"/>
  </g>
  <g id="ACCESORIES" transform="translate(88.521 88.978)">
    <path id="_Ink-4" data-name="ðŸ– Ink" d="M39.146,24.884h0A13.261,13.261,0,0,1,32.083,22.8a9.353,9.353,0,0,1-2.925-3,8.643,8.643,0,0,1-1.165-3.494,11.388,11.388,0,0,1,.383-4.253,3.852,3.852,0,0,1-1.125.148,5.49,5.49,0,0,1-1.64-.248,2.351,2.351,0,0,1-1.183-.732c-2.291-.2-4.606-.48-6.844-.754A102.858,102.858,0,0,0,5.125,9.452c-1,0-1.977.029-2.914.088a.655.655,0,0,0-.593.4,1.719,1.719,0,0,0-.034.7,1.725,1.725,0,0,1-.033.693.649.649,0,0,1-.586.4,1.011,1.011,0,0,1-.948-.964,2.57,2.57,0,0,1,.244-1.39,1.783,1.783,0,0,1,.879-.945c.419-.3,1.7-.459,3.69-.459a83.676,83.676,0,0,1,9.582.7A81.5,81.5,0,0,1,24.53,10.493a3.572,3.572,0,0,1,2-.479,14.514,14.514,0,0,1,1.889.166c.2.027.394.052.573.073a12.677,12.677,0,0,1,1.591-2.785,15.625,15.625,0,0,1,2.441-2.6,12.519,12.519,0,0,1,3.037-1.922,8.442,8.442,0,0,1,3.378-.75,7.04,7.04,0,0,1,1.135.092,15.639,15.639,0,0,1,3.286.52,10.275,10.275,0,0,1,2.865,1.272,8.728,8.728,0,0,1,2.3,2.194A11.025,11.025,0,0,1,50.6,9.561a8.115,8.115,0,0,1,2.7-1.578,9.576,9.576,0,0,1,3.2-.561,7.057,7.057,0,0,1,3.61.906,13.526,13.526,0,0,1,3.144-4.46,12.513,12.513,0,0,1,4.721-2.751A5.715,5.715,0,0,1,71.322,0a6.2,6.2,0,0,1,2.6.6,8.835,8.835,0,0,1,2.33,1.6,11.3,11.3,0,0,1,1.866,2.3,11.131,11.131,0,0,1,1.212,2.683A2.557,2.557,0,0,1,80.441,6.7a5.865,5.865,0,0,1,1.2-.12,1.123,1.123,0,0,1,.66.354.756.756,0,0,1,.184.563c-.038.4-.426.812-1.207.812a4.063,4.063,0,0,1-1.757-.5,15.085,15.085,0,0,1,.28,6.261,10.375,10.375,0,0,1-2.044,4.583,10.251,10.251,0,0,1-1.847,1.81,11.08,11.08,0,0,1-2.194,1.294A12.174,12.174,0,0,1,68.8,22.8h0a11.736,11.736,0,0,1-2.292-.224,10.594,10.594,0,0,1-2.158-.672,9.3,9.3,0,0,1-1.92-1.122,8.381,8.381,0,0,1-1.579-1.573,8.673,8.673,0,0,1-1.668-4.051,13.681,13.681,0,0,1,.451-5.572,16.889,16.889,0,0,0-3.929-.5,10.936,10.936,0,0,0-4.917,1.083,11.3,11.3,0,0,1,.418,2.69,11.02,11.02,0,0,1-.225,2.594,11.306,11.306,0,0,1-.8,2.424,11.79,11.79,0,0,1-1.309,2.18,12.182,12.182,0,0,1-9.718,4.827ZM40.5,3.818h0a15.239,15.239,0,0,0-5.324,1.063,13.487,13.487,0,0,0-4.32,4.911,12.475,12.475,0,0,0-1.127,3.052,9.55,9.55,0,0,0-.2,3.1,7.221,7.221,0,0,0,1.475,3.715,8.845,8.845,0,0,0,3.832,2.726,10.98,10.98,0,0,0,2.059.608,11.294,11.294,0,0,0,2.122.2,11.122,11.122,0,0,0,4.668-1.02,10.19,10.19,0,0,0,2.043-1.261,9.7,9.7,0,0,0,1.7-1.748A10.3,10.3,0,0,0,49.5,13.885a10.152,10.152,0,0,0-.109-2.735A9.5,9.5,0,0,0,48.562,8.6a8.7,8.7,0,0,0-1.28-1.911A8.246,8.246,0,0,0,45.5,5.174a8.573,8.573,0,0,0-2.266-1A10.17,10.17,0,0,0,40.5,3.818Zm30.275-2.33a.118.118,0,0,0-.052.01,10.3,10.3,0,0,0-2.009.519c-.356.118-.691.229-.991.3A12.5,12.5,0,0,0,62.56,6.956,12.011,12.011,0,0,0,60.514,13.5a8.049,8.049,0,0,0,.3,2.1,6.98,6.98,0,0,0,.881,1.923,8.078,8.078,0,0,0,3.744,2.951,9.093,9.093,0,0,0,1.766.53,9.7,9.7,0,0,0,1.839.175,9.887,9.887,0,0,0,3.613-.685,9.06,9.06,0,0,0,1.628-.844A8.329,8.329,0,0,0,75.7,18.484a7.95,7.95,0,0,0,1.621-2.335,10.771,10.771,0,0,0,.858-2.871,12.957,12.957,0,0,0-.526-6.139,10.548,10.548,0,0,0-.973-2.081,8.451,8.451,0,0,0-1.392-1.73,7.047,7.047,0,0,0-1.806-1.244,6.935,6.935,0,0,0-2.215-.625.5.5,0,0,1-.234.055.9.9,0,0,1-.142-.013l-.016,0A.646.646,0,0,0,70.777,1.487ZM28.835,10.635h0l-.106.047h0L28.7,10.7l.012,0,.012,0a.27.27,0,0,1,.047.03l.021.015c.008-.022.017-.044.025-.065v0l.019-.047Z" transform="translate(2.957 1.691)"/>
  </g>
</svg>
