<svg id="peep-82" xmlns="http://www.w3.org/2000/svg" width="240" height="324" viewBox="0 0 240 324">
  <g id="BODY" transform="translate(31.056 135.053)">
    <path id="_Skin" data-name="âœ‹ Skin" d="M158.088,123.645q-1.277-7.217-2.342-14.47c-.337-2.3-.665-4.593-.961-6.894-.207-1.612-.522-3.456.575-4.65,1.543-1.681,2.944-3.119,3.133-5.526.178-2.265-.588-4.734-1.067-6.933-1-4.611-2.254-9.165-3.635-13.675-1.4-4.583-2.941-9.122-4.5-13.653a127.35,127.35,0,0,0-4.762-12.575,36.828,36.828,0,0,0-17.249-17.24c-1.875-.949-5.7-4.335-7.66-5.093-1.8-.7-1.795,1.338-3.568.572a7.089,7.089,0,0,1-3.53-2.8c-.862-1.486-3.022-3.565-3.351-5.3-.7-3.667.058-6.789-2.558-9.549A19,19,0,0,0,97.937.833C90.831-1.15,81.354.236,77.067,6.842,75.019,10,74.3,13.81,71.54,16.385c-2.413,2.248-1.873,3.785-5,4.943-.177.066-4.974-.964-5.151-.9-3.419-.732-6.686,1.317-9.823,2.506a68.751,68.751,0,0,0-13.31,6.82A84.361,84.361,0,0,0,16.646,50.585,101.986,101.986,0,0,0,2.666,77.548Q1.457,81.044.5,84.619a7.19,7.19,0,0,0-.3,4.08,5.256,5.256,0,0,0,2.077,2.618c1.26.908,3.787,1.5,3.738,3.325a31.9,31.9,0,0,1-.738,4.222c-.274,1.634-.5,3.278-.723,4.92-1.023,7.471-1.818,14.985-2.17,22.519a194.546,194.546,0,0,0-.12,22.406,2.87,2.87,0,0,0,.415,1.317.3.3,0,0,0,.037.551l.574.122a2.525,2.525,0,0,0,1.464.5c.387.012.773.03,1.16.05,4.078.853,8.155,1.658,12.286,2.268q7.532,1.112,15.109,1.837c10.381,1.01,20.68.675,31.074.131q15.567-.815,31.14-.4c10.4.271,20.793.723,31.193.908,11.62.207,23.221-.111,34.807-1.035a2.387,2.387,0,0,0,2.258-2.969C161.9,142.535,159.769,133.142,158.088,123.645Z" transform="translate(5.493 -6.763)" fill="#d08b5b"/>
    <path id="_Top" data-name="ðŸ‘• Top" d="M51.568,2.66l.227-.087c3.067-1.2,6.259-3.133,9.6-2.418.118-.044,2.289.4,3.776.68L63.755,2.307l-2.491.479Q74.154,24.068,91.753,24.068T118.463,2.787l.829-.229a2.43,2.43,0,0,1,.328.1c1.959.758,5.784,4.144,7.66,5.093a36.829,36.829,0,0,1,17.249,17.24,122.146,122.146,0,0,1,4.616,12.152l.146.424c1.561,4.531,3.1,9.071,4.5,13.653,1.321,4.314,2.522,8.669,3.5,13.074l.132.6c.479,2.2,1.244,4.668,1.067,6.933a6.127,6.127,0,0,1-.615,2.259l-17,6.118,8.1,55.246q-11.125.477-22.272.268c-10.4-.185-20.795-.638-31.193-.908q-15.111-.393-30.2.352l-2.556.131a199.843,199.843,0,0,1-29.462-.213l-.671-.066h0v-8.081l3.458-45-17.524-3.3-17.2-8.358A4.584,4.584,0,0,1,.194,68.423a6.673,6.673,0,0,1,.225-3.784l.079-.3q.957-3.573,2.167-7.071a101.986,101.986,0,0,1,13.98-26.963A84.361,84.361,0,0,1,38.258,9.48,68.751,68.751,0,0,1,51.568,2.66Z" transform="translate(5.493 13.513)" fill="#ec7495"/>
    <path id="_Ink" data-name="ðŸ– Ink" d="M34.171,150.261a1.828,1.828,0,0,1-.215-.012,1.883,1.883,0,0,1-1.19-.633,1.93,1.93,0,0,1-.485-1.264c-.008-1.767.148-3.575.3-5.322v0c.064-.736.129-1.5.181-2.243.146-2.081.309-4.286.529-7.147.425-5.518.9-11.125,1.357-16.547v0c.263-3.116.536-6.338.8-9.516.222-2.7.478-5.638.807-9.24a45.783,45.783,0,0,1-7.046-.8,57.9,57.9,0,0,1-6.831-1.76c-2.121-.681-4.292-1.491-6.637-2.477-1.981-.833-4.1-1.8-6.462-2.947-.117,2.663-.4,5.362-.667,7.973l-.042.4c-.9,8.66-1.564,16.3-2.043,23.345-.232,3.416-.428,7.064-.633,11.827-.083,1.931-.152,3.888-.2,5.817-.018.655-.034,1.308-.047,1.94l-.029,1.481A3.058,3.058,0,0,1,4.7,145.63a2.1,2.1,0,0,1-1.361.534,1.925,1.925,0,0,1-1.318-.534,2.585,2.585,0,0,1-.8-1.481,7.834,7.834,0,0,1-.059-1.7v0c.005-.144.011-.293.014-.44.026-1.09.058-2.208.094-3.325.073-2.2.167-4.437.281-6.647.371-7.2,1.1-14.77,2.235-23.136l.406-2.965c.366-2.657.766-5.487,1.292-8.305a67.229,67.229,0,0,1,1.995-8.154c-.639-.318-1.3-.652-1.974-.991-.344-.174-.7-.348-1.038-.516h0c-.817-.4-1.661-.818-2.458-1.276A3.631,3.631,0,0,1,.092,84.42a6.489,6.489,0,0,1,.309-3.1v0c.042-.161.082-.314.12-.467l.025-.1c.265-1.093.565-2.241.891-3.414A113.014,113.014,0,0,1,6.146,63.841,110.53,110.53,0,0,1,20.469,39.124a85.491,85.491,0,0,1,8.613-9.616c1.584-1.509,3.223-2.935,4.87-4.239a62.945,62.945,0,0,1,5.259-3.745,53.769,53.769,0,0,1,5.51-3.073,48.012,48.012,0,0,1,5.849-2.361,30.028,30.028,0,0,1,5.876-1.367c.94-.105,1.952-.179,3.182-.232.119-.005.243-.008.369-.008a19.19,19.19,0,0,1,2.124.16h.007c.244.027.5.056.742.08a.1.1,0,0,1,.088.1.074.074,0,0,1-.064.08c-1.9.4-3.782.939-5.7,1.506l-.807.239c-2,.591-4.136,1.257-6.244,2.116a55.875,55.875,0,0,0-11.576,6.519A79.611,79.611,0,0,0,20.712,43.523,101.8,101.8,0,0,0,13.9,54.453,114.14,114.14,0,0,0,8.48,66.014a111.552,111.552,0,0,0-4.336,13.03c-.276,1.042-.548,2.133-.809,3.244-.016.07-.045.163-.078.271-.113.372-.284.933-.144,1.187a1.674,1.674,0,0,0,.773.487c.107.045.208.088.284.128l.964.5c1.876.967,5,2.558,5.325,2.717l.49.241a89.359,89.359,0,0,0,12.414,5.131,54.336,54.336,0,0,0,6.494,1.643,42.86,42.86,0,0,0,6.673.715l.071-.77a72.469,72.469,0,0,1,2.08-12.662.168.168,0,0,1,.163-.135.214.214,0,0,1,.207.186,56.484,56.484,0,0,1,.431,7.349c0,2.368-.1,4.737-.218,7.366-.273,6-.614,12.087-.943,17.978v.005c-.148,2.649-.3,5.388-.446,8.083-.164,3.043-.365,6.136-.559,9.127v0c-.083,1.275-.168,2.593-.251,3.9-.071,1.127-.13,2.281-.188,3.4v0c-.165,3.209-.336,6.526-.8,9.724a1.507,1.507,0,0,1-.694,1.029A2.236,2.236,0,0,1,34.171,150.261Zm129.541-3.478a1.3,1.3,0,0,1-.536-.123l-.133-.062a2.436,2.436,0,0,1-1.545-1.491,8.09,8.09,0,0,1-.233-1.1c-.029-.177-.059-.359-.094-.533-.2-1.026-.4-2.057-.579-3.065-.363-2.044-.722-4.113-1.067-6.151l-.324-1.921c-1.07-6.361-2.16-13.142-2.705-19.974-.247-3.1-.513-6.218-.742-8.9l-.191-2.225c-.038-.443-.078-.9-.116-1.334V99.9c-.209-2.366-.424-4.813-.459-7.215l-.957.34-4.671,1.652c-.289.1-.594.229-.916.364a7.466,7.466,0,0,1-2.653.75,2.555,2.555,0,0,1-.31-.018,2.36,2.36,0,0,1-1.434-.616c.446,6.3,1.048,12.409,1.788,18.166.784,6.1,1.574,11.47,2.413,16.424.374,2.21.877,5.128,1.439,8.092.252,1.327.518,2.684.791,4.033.042.209.088.421.132.627.1.454.2.924.27,1.389a2.341,2.341,0,0,1-.524,1.886,1.324,1.324,0,0,1-1.068.6,1.06,1.06,0,0,1-.571-.165,3.5,3.5,0,0,1-.893-.734,2.583,2.583,0,0,1-.49-1.029c-.141-.549-.246-1.122-.347-1.677v-.006c-.044-.242-.09-.492-.137-.736-.287-1.46-.571-2.954-.844-4.443-.586-3.2-1.111-6.341-1.558-9.327-.809-5.395-1.492-10.958-2.029-16.535-.523-5.427-.924-11.018-1.19-16.618-.248-5.2-.344-10.579-.295-16.431.026-3.053.129-5.81.314-8.426.165-2.33.483-4.664.79-6.922l0-.021c.066-.485.134-.987.2-1.481a.084.084,0,0,1,.084-.076.074.074,0,0,1,.075.076c.073,1.3.165,2.63.254,3.912v0c.126,1.813.256,3.688.335,5.536s.132,3.716.183,5.529v0c.032,1.15.066,2.339.106,3.511.138,4.043.331,8.041.572,11.885a2.067,2.067,0,0,1,1.512-.69,1.839,1.839,0,0,1,.3.024,12.626,12.626,0,0,0,1.94-.647c.363-.143.706-.278,1.04-.389l3.535-1.181c1.76-.588,3.655-1.218,5.582-1.836a141.552,141.552,0,0,1-3.785-17.086l-.435-2.6c-.413-2.452-.869-5.076-1.413-7.654-.592-2.811-1.226-5.275-1.936-7.533a49.345,49.345,0,0,0-3.068-7.526,48.523,48.523,0,0,0-4.28-6.909,60.958,60.958,0,0,0-5.262-6.129c-1.693-1.744-3.558-3.51-5.87-5.557-2.005-1.776-4.127-3.479-6.179-5.126-1.469-1.179-2.987-2.4-4.453-3.635a2.035,2.035,0,0,1,.012.65,22.312,22.312,0,0,1-.939,4.013,24.223,24.223,0,0,1-1.635,3.785,25.8,25.8,0,0,1-2.24,3.47,26.2,26.2,0,0,1-11.751,8.675,28.682,28.682,0,0,1-5.076,1.374,30.617,30.617,0,0,1-5.263.453,32.108,32.108,0,0,1-5.385-.459,32.725,32.725,0,0,1-5.269-1.36A35.689,35.689,0,0,1,76.4,34.9a36.685,36.685,0,0,1-6.27-4.936,34.156,34.156,0,0,1-5-6.185,29.978,29.978,0,0,1-3.3-7.173.133.133,0,0,1,.016-.122.153.153,0,0,1,.124-.057.161.161,0,0,1,.132.065l.449.614.066.09a.224.224,0,0,1,.152-.239A27.069,27.069,0,0,0,72.605,10.8a21.108,21.108,0,0,0,3.369-4.561,18.149,18.149,0,0,0,1.135-2.471l.079-.22c.043-.121.086-.246.124-.356A7.124,7.124,0,0,1,78.666.548,1.69,1.69,0,0,1,79.934,0a2.157,2.157,0,0,1,1.7.874,1.664,1.664,0,0,1,.231,1.538,27.053,27.053,0,0,1-2.858,6.039A21.216,21.216,0,0,1,77,11.092a19.283,19.283,0,0,1-2.453,2.3,20.446,20.446,0,0,1-4.968,2.919,14.972,14.972,0,0,1-5.582,1.118c-.386,0-.778-.016-1.163-.049a.256.256,0,0,1-.088-.023l.373.506c1.208,1.635,2.819,3.774,4.57,5.824a49.766,49.766,0,0,0,5.166,5.281,36.732,36.732,0,0,0,4.726,3.49,34.771,34.771,0,0,0,5.214,2.661,31.767,31.767,0,0,0,5.564,1.7,28.8,28.8,0,0,0,5.776.6,26.831,26.831,0,0,0,6.6-.819,23.784,23.784,0,0,0,5.646-2.244,24.429,24.429,0,0,0,4.926-3.589,22.87,22.87,0,0,0,3.837-4.7,20.4,20.4,0,0,0,2.377-5.572,1.549,1.549,0,0,1-.638.134,1.79,1.79,0,0,1-.379-.042c-1.62-.352-3.221-2.047-4.285-3.291a15.567,15.567,0,0,1-2.67-4.38,14.151,14.151,0,0,1-1.028-4.861,10.626,10.626,0,0,1,.221-2.489,8.161,8.161,0,0,1,.86-2.3.336.336,0,0,1,.3-.187.426.426,0,0,1,.406.377l.062.539a21.8,21.8,0,0,0,1.971,7.748,15.864,15.864,0,0,0,2.27,3.378,13.255,13.255,0,0,0,1.577,1.5c.22.175.462.333.7.485a6.017,6.017,0,0,1,1.021.776l.091.1,0-.017a1.756,1.756,0,0,1,.549-1.141,1.492,1.492,0,0,1,.99-.366h.065a5.665,5.665,0,0,1,1.86.489l.03.014a71.718,71.718,0,0,1,13.753,8.883A58.009,58.009,0,0,1,146.689,38.03a52.385,52.385,0,0,1,7.227,15.061,135.789,135.789,0,0,1,3.227,15.162l.01.057.2,1.14.588,3.364c.406,2.309.892,4.991,1.528,7.609a46.815,46.815,0,0,0,2.368,7.343,2.2,2.2,0,0,1,.074,1.751,2.061,2.061,0,0,1-1.23,1.092c-1.387.522-2.909,1.078-4.792,1.752.567,2.433.979,4.957,1.378,7.4v.008c.153.937.311,1.906.475,2.849.7,4.056,1.512,8.166,2.293,12.14v.007c.606,3.084,1.233,6.274,1.807,9.418.338,1.852.665,3.737.982,5.56.312,1.8.635,3.663.969,5.493.2,1.087.41,2.217.6,3.215l.017.091c.123.658.251,1.339.375,2.008.117.63.228,1.271.335,1.89.052.3.112.645.171.981l.029.159.023.116a3.1,3.1,0,0,1,.057,1.415,3.029,3.029,0,0,1-.881,1.265l0,0-.124.127A.92.92,0,0,1,163.712,146.783Z" transform="translate(4.013 -1.057)"/>
  </g>
  <g id="HEAD" transform="translate(78.592 38.043)">
    <path id="_Skin-2" data-name="âœ‹ Skin" d="M48.4.124c11.971,0,26.963,13.689,31.351,19.515,3.689,4.9,3.167,30.129,3.167,45.1,0,3.13-1.411,9.055-1.924,12.049C79.122,87.756,70.942,96.958,54.751,96.958c-13.183,0-23.328-4.186-33.139-14.893-2.238-2.443-13.169,6.3-15.4,3.153-5.839,0-10.721-54.693.743-71.1S36.434.124,48.4.124Z" transform="translate(5.687 8.114)" fill="#d08b5b"/>
    <path id="_Ink-2" data-name="ðŸ– Ink" d="M28.439,114.067a2.425,2.425,0,0,1-1.334-.4,1.765,1.765,0,0,1-.782-1.1c-.1-.489-.218-.979-.342-1.456-.229-.894-.494-1.782-.786-2.642l-.112-.325c-.118-.339-.235-.684-.347-1.018v0c-.126-.374-.256-.761-.39-1.14l-.025-.082c-.01-.035-.021-.073-.032-.112l-.428.936-1.3,2.826a1.2,1.2,0,0,1-.461.537,1.177,1.177,0,0,1-.615.166,1.619,1.619,0,0,1-1.023-.388,1.393,1.393,0,0,1-.515-.984l0-.044c-.007-.275-.017-.5-.029-.7a22.709,22.709,0,0,0-.862-5.047l-.17.212a26.044,26.044,0,0,1-4.219,4.316,13.948,13.948,0,0,1-2.514,1.572,11.173,11.173,0,0,1-2.866.929,1.337,1.337,0,0,1-.233.02,1.554,1.554,0,0,1-1.332-.783,1.093,1.093,0,0,1,.085-1.167c.293-.432.575-.875.837-1.315-.23-.108-.448-.22-.647-.334a12.912,12.912,0,0,1-3.907-3.525,13.8,13.8,0,0,1-1.437-2.373,16.7,16.7,0,0,1-.971-2.583,24.442,24.442,0,0,1-.861-5.476A36.522,36.522,0,0,1,2.006,80.836a29.724,29.724,0,0,1,1.8-4.692c-.047-.124-.092-.251-.136-.373h0l-.011-.031A62.128,62.128,0,0,1,1.717,69.11a64.69,64.69,0,0,1-1.71-13.85,67,67,0,0,1,.984-12.5A63.5,63.5,0,0,1,4.336,30.689a64.75,64.75,0,0,1,5.875-11.6,50.455,50.455,0,0,1,8.324-9.957,33.656,33.656,0,0,1,5.38-4,35.267,35.267,0,0,1,6-2.853A37.34,37.34,0,0,1,36.337.57,39.147,39.147,0,0,1,43.005,0c.318,0,.64,0,.958.012A45.348,45.348,0,0,1,51.145.77a48.583,48.583,0,0,1,6.98,1.852A42.509,42.509,0,0,1,64.709,5.61a16.441,16.441,0,0,1,2.132,1.433l.168.131h0a14.416,14.416,0,0,1,4.883,3.187c.672-.054,1.347-.081,2.006-.081A22.025,22.025,0,0,1,80.617,11.3a22.53,22.53,0,0,1,5.6,2.674,19.325,19.325,0,0,1,4.565,4.191,17.023,17.023,0,0,1,3.067,6.267,21.587,21.587,0,0,1,.56,6.991l-.065.814a35.944,35.944,0,0,1-1.054,6.773,14.233,14.233,0,0,1-1.283,3.16A8.775,8.775,0,0,1,89.9,44.691a2.69,2.69,0,0,1-.856.469,52.149,52.149,0,0,1,3.007,6.02,45.657,45.657,0,0,1,2.154,6.369,60.7,60.7,0,0,1,1.233,6.186c.3,2.023.5,4.118.6,6.229.1,2.029.116,4.131.042,6.248-.071,2.027-.224,4.128-.456,6.244-.221,2.016-.519,4.107-.888,6.216-.349,2-.771,4.07-1.254,6.165-.884,3.827-1.978,7.779-3.347,12.081A2.173,2.173,0,0,1,89.325,108a2.239,2.239,0,0,1-1.286.44,1.576,1.576,0,0,1-1.278-.625,12.806,12.806,0,0,0-1.485-1.594,11.882,11.882,0,0,0-1.743-1.309,9.858,9.858,0,0,0-4.079-1.438,17.35,17.35,0,0,0-1.74-.077,16.009,16.009,0,0,1-1.8-.087,5.589,5.589,0,0,1-1.759-.494,4.821,4.821,0,0,1-1.777-1.494,23.137,23.137,0,0,1-4,1.119,22.78,22.78,0,0,1-4.132.381c-.3,0-.612-.006-.914-.019a24.707,24.707,0,0,1-3.81-.453,22.17,22.17,0,0,1-3.728-1.083A18.437,18.437,0,0,1,52.36,99.5a15.27,15.27,0,0,1-2.926-2.5,2.355,2.355,0,0,1-.542-.963,2.074,2.074,0,0,1-.028-.968,7.426,7.426,0,0,1,1.341-.344,34.189,34.189,0,0,0,6.923,3.155,27.819,27.819,0,0,0,3.694.913,25.562,25.562,0,0,0,3.838.375c.187,0,.372.006.551.006a16.371,16.371,0,0,0,4.115-.461,10.909,10.909,0,0,0,1.926-.69,9.77,9.77,0,0,0,1.8-1.1,11.985,11.985,0,0,0,1.463-1.345,21.58,21.58,0,0,0,3.539-2.87,24.964,24.964,0,0,0,2.939-3.554,28.22,28.22,0,0,0,2.3-4.059,30.1,30.1,0,0,0,1.631-4.387,34.252,34.252,0,0,0,1.228-8.509,68.519,68.519,0,0,0-.378-8.617l-.289-3.022c-.406-4.267-.811-8.813-.922-13.34l.033,0a.866.866,0,0,0,.811-.932.732.732,0,0,0-.746-.761l-.065,0c-.451.029-.922.044-1.441.044-.9,0-1.815-.044-2.7-.087s-1.8-.087-2.7-.087c-.563,0-1.074.017-1.559.052a14.357,14.357,0,0,0-.508-3.927.806.806,0,0,0-.349-.445,1.027,1.027,0,0,0-.545-.159.7.7,0,0,0-.732.6,25.673,25.673,0,0,0-.265,3.511c-1.565-.021-3.156-.084-4.694-.146h0c-1.886-.075-3.837-.153-5.755-.153-.748,0-1.439.011-2.114.035a6.2,6.2,0,0,1-1.114-2.458c-.089-.3-.173-.592-.266-.853-.057-.161-.109-.307-.16-.448a24.093,24.093,0,0,1-1.36,4.276l-1.027,0c-2.61.012-5.7.053-8.788.263a61.437,61.437,0,0,0-8.685,1.153,2.035,2.035,0,0,1-.695-1.318c-.226-1.722-.484-3.243-.787-4.65a37.758,37.758,0,0,0-1.26-4.539l-.149-.422-.039-.111a22.889,22.889,0,0,1-2.69,3.487c-.545.588-1.148,1.19-1.844,1.839-.3.337-.616.678-.919,1.007l0,0c-.313.341-.637.693-.952,1.043.025.129.046.258.062.382a19.017,19.017,0,0,1,.07,4.315,20.7,20.7,0,0,1-2.155,7.408l-.037.231A12.358,12.358,0,0,1,28.084,57a4.756,4.756,0,0,1-.667,1.41,7.841,7.841,0,0,1,.973,1.36,7.669,7.669,0,0,1,.666,1.564.968.968,0,0,1-.163.871,1.163,1.163,0,0,1-.91.476.894.894,0,0,1-.689-.319,8.216,8.216,0,0,0-1.858-1.586.149.149,0,0,1-.12.063.179.179,0,0,1-.088-.025,6.185,6.185,0,0,0-2.978-.654,9.09,9.09,0,0,0-4.03.912,5.468,5.468,0,0,0-1.5,1.15,5.6,5.6,0,0,0-.986,1.518,7.257,7.257,0,0,0-.525,3.668,11.759,11.759,0,0,0,1.015,3.738,7.9,7.9,0,0,0,1.012,1.628,5.408,5.408,0,0,0,1.372,1.213,3.06,3.06,0,0,0,1.643.512,3.991,3.991,0,0,0,1.064-.164,3.1,3.1,0,0,0,.9-.492l.169-.136a5.041,5.041,0,0,1,.987-.642,2.6,2.6,0,0,1,1.077-.258,1.7,1.7,0,0,1,.508-.08,1.452,1.452,0,0,1,.842.261,1.57,1.57,0,0,1,.562.758l.019.054c.026.077.054.155.085.239a3.15,3.15,0,0,1,.263,1.384,3.1,3.1,0,0,1-.858,1.854c-.085.092-.173.18-.261.26a29.082,29.082,0,0,1,7.213,16.2,36.8,36.8,0,0,1,.011,9.089,37.669,37.669,0,0,1-2.15,8.779c-.174.464-.365.94-.584,1.454a1.576,1.576,0,0,1-.681.766A1.972,1.972,0,0,1,28.439,114.067ZM13.958,81.6h0a.948.948,0,0,0-.8.457.732.732,0,0,0,.02.758l.02.033A16.278,16.278,0,0,1,14.8,86.724c.078.246.165.524.252.789a.816.816,0,0,0,.807.586.909.909,0,0,0,.733-.35.732.732,0,0,0,.085-.686l-.112-.347c-.051-.16-.1-.324-.149-.468a17.93,17.93,0,0,0-1.767-4.255.8.8,0,0,0-.691-.394ZM20.2,19.269a.839.839,0,0,0-.56.222c-2.866,2.538-4.293,6.2-5.674,9.733-.4,1.03-.818,2.095-1.258,3.1a.873.873,0,0,0,.068.851.955.955,0,0,0,.767.445.665.665,0,0,0,.622-.442c.44-1,.853-2.073,1.252-3.11,1.3-3.368,2.64-6.85,5.294-9.269l.123-.11a.716.716,0,0,0,.224-.818A.95.95,0,0,0,20.2,19.269Zm44.778.006h0a.894.894,0,0,0-.581.225.981.981,0,0,0-.316.511.673.673,0,0,0,.382.791l.035.017A7.78,7.78,0,0,1,66.6,22.225a10.285,10.285,0,0,1,1.585,1.9,28.338,28.338,0,0,1,2.258,4.519l.064.151a.657.657,0,0,0,.616.444.956.956,0,0,0,.765-.442.88.88,0,0,0,.076-.853l-.241-.561a25.73,25.73,0,0,0-2.453-4.648,9.685,9.685,0,0,0-3.923-3.375.9.9,0,0,0-.372-.083Zm5.23-2a.675.675,0,0,0-.491.209.915.915,0,0,0-.239.486.935.935,0,0,0,.081.577.838.838,0,0,0,.484.411,10.2,10.2,0,0,1,3.588,2.194,17.848,17.848,0,0,1,2.709,3.261.824.824,0,0,0,.7.382.956.956,0,0,0,.821-.475.715.715,0,0,0-.064-.761,19.864,19.864,0,0,0-3.145-3.736,12.1,12.1,0,0,0-4.157-2.5.867.867,0,0,0-.284-.051ZM24.644,69.89a2.359,2.359,0,0,1-.479-.05c-1.121-.233-1.6-1.057-2.1-1.929-.148-.256-.3-.52-.471-.77l-.127-.183-.1-.144-.007-.01a4.047,4.047,0,0,0-1.666-1.659.258.258,0,0,1-.166-.226.19.19,0,0,1,.111-.19l.381-.185a5.593,5.593,0,0,1,2.4-.695,3.774,3.774,0,0,1,1.274.231,5.426,5.426,0,0,1,1.744,1.035,4.006,4.006,0,0,1,1.157,1.63,2.535,2.535,0,0,1,.141,1.082,2.586,2.586,0,0,1-.392,1.124,1.948,1.948,0,0,1-.735.7A2,2,0,0,1,24.644,69.89Z" transform="translate(-0.421 2.959)"/>
  </g>
  <g id="FACE" transform="translate(112.183 77.354)">
    <path id="_Ink-3" data-name="ðŸ– Ink" d="M22.824,40.539a8.045,8.045,0,0,1-3.052-.61,8.621,8.621,0,0,1-1.992-1.145,8.487,8.487,0,0,1-1.622-1.636,1.676,1.676,0,0,1-.338-1.3,1.871,1.871,0,0,1,.728-1.172,1.793,1.793,0,0,1,1.067-.372,1.548,1.548,0,0,1,.238.018,1.648,1.648,0,0,1,1.1.73l.065.09A5.7,5.7,0,0,0,21.108,36.9a4.735,4.735,0,0,0,2.069.483,4.583,4.583,0,0,0,.513-.029,5.388,5.388,0,0,0,2.278-.8,10.668,10.668,0,0,0,1.93-1.611c.138-.141.284-.294.474-.5a.751.751,0,0,1,.394-.3.806.806,0,0,1,.256-.041.871.871,0,0,1,.714.373.8.8,0,0,1,.135.524,4.812,4.812,0,0,1-.57,1.864,6.221,6.221,0,0,1-1.22,1.567,7.841,7.841,0,0,1-1.847,1.288,7.69,7.69,0,0,1-2.05.7A7.548,7.548,0,0,1,22.824,40.539Zm2.148-12.17h0a7.373,7.373,0,0,1-2.63-.53,13.281,13.281,0,0,1-3.093-1.756,1.189,1.189,0,0,1-.432-.687,1.423,1.423,0,0,1,.061-.771,1.754,1.754,0,0,1,.521-.753,1.267,1.267,0,0,1,.812-.317,1.151,1.151,0,0,1,.628.193l.209.161,0,0a16.744,16.744,0,0,0,1.936,1.347,4.768,4.768,0,0,0,2.321.74,2.505,2.505,0,0,0,.981-.193,2.74,2.74,0,0,0,.913-.647,2.8,2.8,0,0,0,.531-2.255,4.26,4.26,0,0,0-1.13-2,8.241,8.241,0,0,0-1.711-1.381.531.531,0,0,1-.144-.61.8.8,0,0,1,.264-.38.809.809,0,0,1,.505-.167,1.076,1.076,0,0,1,.181.016,5.736,5.736,0,0,1,2.018.729,4.577,4.577,0,0,1,1.357,1.252,4.974,4.974,0,0,1,.866,3.322,5.475,5.475,0,0,1-.444,1.744,5.087,5.087,0,0,1-1,1.5A4.779,4.779,0,0,1,24.972,28.369ZM7.859,16.485a1.724,1.724,0,0,1-1.119-.439,1.744,1.744,0,0,1-.587-1.128,12.706,12.706,0,0,1,.067-3.308c.04-.321.081-.654.11-1.012a1.98,1.98,0,0,1,.75-1.415,2.31,2.31,0,0,1,1.421-.5,1.751,1.751,0,0,1,1.075.338,1.594,1.594,0,0,1,.594,1.057,8.877,8.877,0,0,1-.926,5.469,1.754,1.754,0,0,1-.619.716A1.427,1.427,0,0,1,7.859,16.485Zm25.119-.75a1.508,1.508,0,0,1-1.183-.507A4.624,4.624,0,0,1,31.074,14a5.342,5.342,0,0,1-.368-1.477,3.131,3.131,0,0,1,.853-2.687,1.772,1.772,0,0,1,.137-.208,1.933,1.933,0,0,1,1.487-.856,1.611,1.611,0,0,1,.452.067,2.175,2.175,0,0,1,1.453,1.268,4.486,4.486,0,0,1,.18,2.453,8.214,8.214,0,0,1-.744,2.314,1.5,1.5,0,0,1-.643.635A1.947,1.947,0,0,1,32.979,15.735ZM.278,7.854a.274.274,0,0,1-.229-.14.306.306,0,0,1-.018-.3A10.425,10.425,0,0,1,2.368,4.454,14.446,14.446,0,0,1,5.5,2.317a13.445,13.445,0,0,1,3.714-1.3l.4-.069A9.66,9.66,0,0,1,11.226.776a2.5,2.5,0,0,1,2,.746,1.7,1.7,0,0,1,.4,1.208,1.106,1.106,0,0,1-.4.789,3.08,3.08,0,0,1-2.112.62c-.166,0-.338,0-.5-.008H10.6c-.16,0-.341-.009-.521-.009s-.314,0-.452.012a14.274,14.274,0,0,0-3.143.536A21.357,21.357,0,0,0,.424,7.806.26.26,0,0,1,.278,7.854Zm38.247-1.6h0l-.167-.042A9.458,9.458,0,0,1,36.524,5.5l-.6-.293A16.537,16.537,0,0,0,33.8,4.3a25.089,25.089,0,0,0-4.845-1.07,1.979,1.979,0,0,1-.972-.369,1.457,1.457,0,0,1-.544-.828A1.482,1.482,0,0,1,27.609.786a1.581,1.581,0,0,1,.767-.661A1.725,1.725,0,0,1,29.03,0a1.926,1.926,0,0,1,.377.038l.3.062a21.676,21.676,0,0,1,5.232,1.7,10.579,10.579,0,0,1,2.3,1.514,6.719,6.719,0,0,1,1.627,2.1c.057.439,0,.548-.055.622L38.8,6.06l-.015.02a.421.421,0,0,1-.26.173Z" transform="translate(11.197 10.99)"/>
  </g>
</svg>
