<svg id="peep-80" xmlns="http://www.w3.org/2000/svg" width="240" height="324" viewBox="0 0 240 324">
  <g id="BODY" transform="translate(31.056 135.053)">
    <path id="_Skin" data-name="âœ‹ Skin" d="M1.9,158.233,0,119.85,2.113,82.4,153.48,94.424l.159,1.029c1.262,8.224,2.226,15.223,2.863,20.8a127.847,127.847,0,0,1,.98,12.832v.181a43.543,43.543,0,0,0,.336,5.033c.223,1.884.563,4.013,1.009,6.328.893,4.628,2.251,10.193,4.037,16.539l.222.785ZM84.016,72.952c-13.155,0-28.539-.135-45.725-.4.234-7.49.66-14.184,1.265-19.9.3-2.856.657-5.528,1.052-7.94s.843-4.634,1.332-6.6a46.1,46.1,0,0,1,1.611-5.264,22.864,22.864,0,0,1,1.891-3.925,10.689,10.689,0,0,1,2.17-2.587,5.834,5.834,0,0,1,2.45-1.249l.616-.136c2.6-.568,4.943-1,7.009-1.373,5.923-1.081,9.835-1.8,12.355-4.4a11.3,11.3,0,0,0,1.681-2.267,17.788,17.788,0,0,0,1.225-2.653,51.392,51.392,0,0,0,1.66-5.833h0c.321-1.323.624-2.572.984-3.758a3.557,3.557,0,0,1,1.6-1.758A14.182,14.182,0,0,1,80.511,1.42,28.585,28.585,0,0,1,85.01.387,34.441,34.441,0,0,1,90.141,0c.532,0,1.065.013,1.585.039a27.883,27.883,0,0,1,4.535.615,28.347,28.347,0,0,1,4.012,1.182,15.766,15.766,0,0,1,2.948,1.441,3.06,3.06,0,0,1,1.342,1.392c.221.777.465,2.059.774,3.682a88.27,88.27,0,0,0,2.586,10.884,23.631,23.631,0,0,0,2.146,4.872,9.7,9.7,0,0,0,1.353,1.763,5.167,5.167,0,0,0,1.566,1.111c2.1.92,5.061,1.183,8.194,1.46a43.86,43.86,0,0,1,7.62,1.114,11.567,11.567,0,0,1,3.121,1.319,7.192,7.192,0,0,1,1.236.981,6.139,6.139,0,0,1,.962,1.244c.861,1.476,2.231,4.121,3.759,7.257,1.651,3.39,3.395,7.167,4.911,10.633,1.792,4.1,3.227,7.658,4.265,10.578,1.208,3.4,1.821,5.786,1.821,7.091,0,.356-.341.694-1.014,1.006a14.335,14.335,0,0,1-3.041.872,103.079,103.079,0,0,1-12.163,1.341c-5.38.356-12.2.627-20.27.8S94.775,72.952,84.016,72.952Z" transform="translate(8.028 -8.243)" fill="#d08b5b"/>
    <path id="_Ink" data-name="ðŸ– Ink" d="M34.518,155.625a1.068,1.068,0,0,1-.9-.509,9.1,9.1,0,0,1-1.229-3.054,27.122,27.122,0,0,1-.5-3.349l-.077-.779c-.27-2.7-.471-5.079-.615-7.277-.286-4.38-.475-8.725-.562-12.912-.091-4.373-.073-8.721.053-12.925.14-4.694.59-9.272,1.012-13.131.167-1.515.322-2.851.475-4.083l0-.483c0-.125,0-.287-.005-.44l-.042-1.311c-.033-1.043-.067-2.155-.081-3.28l-.006-.656-.006-1.222a15.159,15.159,0,0,1-2.02-.384c-.368-.087-.715-.169-1.037-.229-1.406-.263-2.875-.558-4.367-.877-2.747-.591-5.573-1.305-8.639-2.183l-.608-.175a56.7,56.7,0,0,1-7.8-2.706A14.46,14.46,0,0,1,4.763,82.05c-.024.325-.054.653-.083.97-.033.361-.067.735-.092,1.1-.044.641-.092,1.291-.139,1.92v.011c-.052.7-.106,1.423-.154,2.141l-.087,1.293c-.136,2.053-.27,4.257-.329,6.468-.3,11.069-.24,20.065.2,28.312.266,5.078.629,9.7,1.109,14.127.224,2.079.5,4.528.839,6.928.131.923.307,1.86.476,2.766a41.174,41.174,0,0,1,.652,4.331,1.691,1.691,0,0,1-.426,1.317,2.061,2.061,0,0,1-1.521.614A2.209,2.209,0,0,1,4,154a1.817,1.817,0,0,1-.762-1.055,39.113,39.113,0,0,1-.959-5.676c-.084-.708-.172-1.441-.271-2.151l-.041-.287c-.368-2.509-.7-5.218-1.006-8.281-.481-4.771-.786-9.6-.9-14.342-.12-4.79-.054-9.624.2-14.369.208-3.983.684-8.335,1.5-13.7l.08-.524c.076-.49.151-.988.224-1.468.23-1.516.468-3.083.738-4.621l.136-.759c.08-.437.157-.892.231-1.332a34.329,34.329,0,0,1,.85-4.039l-.154-.142a5.643,5.643,0,0,1-.826-.913,1.642,1.642,0,0,1-1.006-.5,1.538,1.538,0,0,1-.358-1.187,25.44,25.44,0,0,1,.914-4.79c.443-1.587.985-3.155,1.509-4.671l.025-.071.138-.4a91.893,91.893,0,0,1,3.809-9.35,87.445,87.445,0,0,1,9.2-15.188,85.872,85.872,0,0,1,12.093-13,76.627,76.627,0,0,1,7.454-5.768c1.327-.895,2.674-1.731,4-2.483,1.389-.787,2.8-1.508,4.2-2.143a36.212,36.212,0,0,1,8.814-2.819,31.681,31.681,0,0,1,4.591-.518,3.006,3.006,0,0,1,1.55-.418,4.366,4.366,0,0,1,2.4.8l.066.045h0l.31.061a.072.072,0,0,1,.056.073.076.076,0,0,1-.056.079.04.04,0,0,0-.015,0,5.815,5.815,0,0,1,.562.5,1.578,1.578,0,0,1,.468.947,1.661,1.661,0,0,1-.189.936,14.139,14.139,0,0,1,2.168,2.624c.625.949,1.19,1.976,1.736,2.969l.008.014.152.276a20.44,20.44,0,0,0,2.173,3.186,20.974,20.974,0,0,0,2.732,2.723,29.829,29.829,0,0,0,4.317,2.973,31.751,31.751,0,0,0,9.962,3.61,29.74,29.74,0,0,0,5.28.481,26.033,26.033,0,0,0,7.779-1.155,21.189,21.189,0,0,0,4.839-2.223,22.043,22.043,0,0,0,4.169-3.347,20.783,20.783,0,0,0,3.2-4.243,18.384,18.384,0,0,0,1.932-4.909,1.854,1.854,0,0,1-.625.112,1.626,1.626,0,0,1-.551-.1,3.86,3.86,0,0,1-1.92-1.6,13.444,13.444,0,0,1-1.142-2.333c-.052-.126-.105-.256-.158-.382l-.034-.08a37.437,37.437,0,0,1-1.707-4.954,27.307,27.307,0,0,1-.837-5.286,18.533,18.533,0,0,1,.012-2.1l.032-.578q0-.047,0-.094V6.074a1.578,1.578,0,0,1,.452-1.3.073.073,0,0,1,.045-.018.06.06,0,0,1,.027.007,1.46,1.46,0,0,1,.689,1.007l0,.006c.017.052.035.105.053.158.153.446.325.893.49,1.325v0c.095.246.192.5.286.755.1.271.2.543.309.845v0c.4,1.091.81,2.219,1.266,3.313.478,1.148,1.124,2.659,1.893,4.161.359.705.74,1.381,1.065,1.949.086.151.169.319.256.5h0a5.476,5.476,0,0,0,.567.979,2.537,2.537,0,0,1,.1-.378,1.256,1.256,0,0,0-.127.07.09.09,0,0,1-.048.014.1.1,0,0,1-.088-.055.092.092,0,0,1,0-.095,1.663,1.663,0,0,1,.689-.64c.066-.074.257-.111.567-.111a22.479,22.479,0,0,1,4.022.633c1.927.432,4.12,1.034,6.174,1.7,3.073.991,8.586,3.005,10.976,5.367a63.287,63.287,0,0,1,5.636,6.385,68.9,68.9,0,0,1,4.713,6.981,77.419,77.419,0,0,1,3.862,7.457c1.123,2.484,2.16,5.113,3.083,7.815,1.437,4.2,2.814,8.5,4.146,12.665l0,.014c.521,1.628,1.06,3.312,1.6,4.966,1.036,3.205,2.112,6.453,3.153,9.594l0,.014c.98,2.957,1.993,6.014,2.969,9.027a2.162,2.162,0,0,1,.086.992,2.292,2.292,0,0,1-.333.882,3.018,3.018,0,0,1-1.491,1.186c-2.325.858-4.631,1.65-6.854,2.354a103.729,103.729,0,0,1,2.461,13.072c.437,3.412.734,6.909,1.022,10.29h0c.239,2.8.485,5.7.81,8.534.364,3.182.79,5.948,1.3,8.457.447,2.194,1.015,4.321,1.511,6.112l.13.467c.074.263.149.536.215.777v0c.252.915.512,1.861.832,2.77.111.315.235.636.354.946a16.947,16.947,0,0,1,.7,2.093,3.105,3.105,0,0,1-.1,1.8,2.561,2.561,0,0,1-1.17,1.36,2.195,2.195,0,0,1-1.056.265,2.154,2.154,0,0,1-.974-.227,1.778,1.778,0,0,1-.733-.684,1.63,1.63,0,0,1-.207-.613c-.086-.183-.162-.364-.226-.539-.023-.061-.046-.131-.072-.218l-.066-.22c-.161-.527-.311-1.063-.456-1.581-.242-.853-.482-1.689-.751-2.533l-.136-.42c-.672-2.046-1.269-4.106-1.775-6.121-.411-1.643-.761-3.332-1.07-5.165-.275-1.632-.51-3.341-.719-5.224-.388-3.5-.623-7.068-.851-10.522h0v0c-.037-.564-.076-1.147-.114-1.719l-.026-.392c-.276-4.073-.421-7.213-.47-10.18-.061-3.7.037-7.024.3-10.169l-.077.025-.077.023c-.782.239-1.5.454-2.206.657l-.016.006c-.017.006-.034.013-.052.017-.478.148-.965.287-1.45.414l-.3.076-.209.057-.22.063-.194.057a6.649,6.649,0,0,1-1.841.358l-.1,0a23.556,23.556,0,0,1-3.621.313c.4,6.475.823,12.4,1.306,18.125.534,6.332,1.257,12.692,1.893,18.157.373,3.213.742,6.138,1.128,8.942.231,1.683.438,3.094.7,4.506.056.3.123.621.187.926a9.655,9.655,0,0,1,.295,3.787.059.059,0,0,0-.019,0,1.733,1.733,0,0,1-.843,1.127,1.841,1.841,0,0,1-.929.246,1.971,1.971,0,0,1-.94-.238,1.765,1.765,0,0,1-.7-.682c-.042-.074-.083-.15-.12-.228a4.414,4.414,0,0,1-1.751.309l-9.283.093c-3.836.038-8.294.085-12.659.148-4.218.062-8.474.128-12.589.192h-.005c-8.9.138-18.109.28-27.164.39l-4.97.057c-2.435.026-4.912.06-7.307.093h-.017c-4.881.067-9.929.137-14.891.137h-.15c-4.16,0-7.654-.018-11.182-.1-1.706-.042-3.4-.105-5.413-.188l-.319-.014-.494-.026c-.573-.031-1.165-.063-1.75-.063a9.431,9.431,0,0,0-2.134.207A1.146,1.146,0,0,1,34.518,155.625ZM67.9,20.419a1.78,1.78,0,0,1-1.295-.617,2.676,2.676,0,0,1-.661-1.379,1.98,1.98,0,0,1,.183-1.245,1.776,1.776,0,0,1,1.085-.849,14.869,14.869,0,0,0,3.873-2.913A20.565,20.565,0,0,0,74.025,9.55a27.978,27.978,0,0,0,2.244-4.618c.273-.741.5-1.508.717-2.249h0c.255-.866.519-1.761.858-2.617A.108.108,0,0,1,77.94,0a.073.073,0,0,1,.068.044,8.21,8.21,0,0,1,.745,2.692A12.282,12.282,0,0,1,78.7,5.644a18.572,18.572,0,0,1-1.665,5.485,19.4,19.4,0,0,1-2.96,4.445,26.735,26.735,0,0,1-3.9,3.588c-.38.291-.786.588-1.206.885A1.84,1.84,0,0,1,67.9,20.419Z" transform="translate(5.705 -3.573)"/>
  </g>
  <g id="HEAD" transform="translate(78.592 38.043)">
    <path id="_Skin-2" data-name="âœ‹ Skin" d="M92.455,60.628c1.306-9.448-1.483-18.566-5.1-27.2a3.031,3.031,0,0,0-.918-1.305c-10.2-20.6-25.178-22.467-46.078-21.049a2,2,0,0,1-1.123-.213C39.163,2.491,29.629-1.942,22.373.82-9.8,15.81.313,58.014,6.717,85.567q3.427,16,6.854,32a2.152,2.152,0,0,0,.453.925c-.332.126-.664.245-.99.356a.615.615,0,0,0,.326,1.185,20.267,20.267,0,0,0,2.212-.671c1.127.245,2.072-.493,2.957-1.082C28.89,114.168,33.24,100.669,35.9,90.725c10.8,7.642,28.07,13.366,40.424,6.494C87.9,90.23,92.066,75.652,91.243,62.785a2.254,2.254,0,0,0,1.208-2.125h.005c0-.011,0-.022,0-.032Z" transform="translate(-1.687 6.341)" fill="#d08b5b"/>
    <path id="_Hair" data-name="ðŸ’ˆ Hair" d="M13.035,118.844c.326-.111.658-.23.989-.356a2.154,2.154,0,0,1-.453-.925q-3.427-16-6.854-32C.313,58.014-9.805,15.81,22.373.82A13.09,13.09,0,0,1,28.639.107c1.051.539,5.808,2.969,7.855,3.869a10.514,10.514,0,0,1,1.25,1.635c.492,2.669-.43,7.994-.43,7.994S27.593,20.639,24.4,23.755,17,44.624,17,44.624l1.4,14.419s-1.981-.392-1.981,7.159,7.588,8.718,7.588,8.718l9.1,12.8L35.1,92.334a177.354,177.354,0,0,0-6.682,17.239c-2.506,3.863-5.707,7.047-9.886,8.7-.885.589-1.83,1.327-2.957,1.082a20.25,20.25,0,0,1-2.212.671.724.724,0,0,1-.164.02A.617.617,0,0,1,13.035,118.844ZM18.4,59.043Z" transform="translate(-1.687 6.34)" fill="#a55728"/>
    <path id="_Ink-2" data-name="ðŸ– Ink" d="M18.554,122.135a2.489,2.489,0,0,1-2.268-1.2A2.422,2.422,0,0,1,16,120.16a1.989,1.989,0,0,1-.716-.358c-.041.454-.084.854-.132,1.223a1.068,1.068,0,0,1-.361.684,1,1,0,0,1-.65.248.891.891,0,0,1-.852-.679,99.3,99.3,0,0,1-2.551-10.635c-.229-1.137-.465-2.312-.711-3.463C9.443,104.447,8.81,101.676,8.2,99V98.99c-.438-1.916-.891-3.9-1.322-5.847l-1.309-5.91c-1.533-6.945-3.121-14.354-4.2-21.853C.8,61.453.42,57.842.2,54.339.089,52.457.022,50.59,0,48.789c-.018-1.883.018-3.758.108-5.571.1-2.07.275-4.116.514-6.081.25-2.055.579-4.08.978-6.019.416-2.022.921-4.008,1.5-5.9A58.606,58.606,0,0,1,5.183,19.48a34.207,34.207,0,0,1,5.461-9.146,18.417,18.417,0,0,1,3.974-3.479,14.225,14.225,0,0,1,2.336-1.2,13.194,13.194,0,0,1,2.584-.736.293.293,0,0,1,.051,0,.337.337,0,0,1,.085.011,12.5,12.5,0,0,1,3.1-2.9A12.14,12.14,0,0,1,26.411.48,16.052,16.052,0,0,1,30.363,0c.227,0,.457,0,.684.014a11.114,11.114,0,0,1,2.187.311,14.667,14.667,0,0,1,2.1.688A20.794,20.794,0,0,1,37.4,2.036c.517.281,1.051.571,1.6.822a.056.056,0,0,1,.034.066.08.08,0,0,1-.074.063h-.013a8.847,8.847,0,0,0-1.762-.158,21.453,21.453,0,0,0-2.953.253l-.149.022c-.459.067-.929.125-1.383.18a28.739,28.739,0,0,0-3.043.486,10.388,10.388,0,0,0-6.634,4.37,14.9,14.9,0,0,0-1.9,5.172,23.368,23.368,0,0,0-.306,5.53,21.453,21.453,0,0,0,1.015,5.322,9.866,9.866,0,0,0,.725,1.566,10.7,10.7,0,0,1,.744,1.6c.282-.527.569-1.041.853-1.528-1.091-.516-1.692-1.855-1.785-3.98a1.126,1.126,0,0,1-.344-.755,4.243,4.243,0,0,1,.441-1.952,19.154,19.154,0,0,1,1.1-4.916,18.927,18.927,0,0,1,5.616-7.81,15.7,15.7,0,0,1,4.153-2.475,12.8,12.8,0,0,1,4.725-.924c.317,0,.638.013.954.038a7.063,7.063,0,0,1,2.733.757,4.984,4.984,0,0,1,2.038,1.944,5.387,5.387,0,0,1,.252,4.553,5.479,5.479,0,0,1-.623,1.2c.777-.2,1.546-.384,2.261-.557a59.407,59.407,0,0,1,7.916-1.4,21.52,21.52,0,0,1,6.542.332,21.049,21.049,0,0,1,4.16,1.319c.909.234,1.828.49,2.733.761a45.525,45.525,0,0,1,5.936,2.161A22.947,22.947,0,0,1,78.321,17.4a13.171,13.171,0,0,1,1.934,2.023A16.309,16.309,0,0,1,81.723,21.7a54.312,54.312,0,0,1,4.633,4.621c.746.848,1.438,1.7,2.058,2.547a30.485,30.485,0,0,1,1.79,2.715,34.751,34.751,0,0,1,2.762,6.074,46.826,46.826,0,0,1,1.719,6.515,65.822,65.822,0,0,1,.913,6.713c.18,2.06.293,4.241.344,6.667A115.929,115.929,0,0,1,93.9,81.614a29.392,29.392,0,0,1-1.427,5.17,19.008,19.008,0,0,1-2.589,4.686,24.432,24.432,0,0,1-4.3,4.37,26.258,26.258,0,0,1-5.221,3.213,30.292,30.292,0,0,1-6.027,2.065,28.574,28.574,0,0,1-6.347.729,24.953,24.953,0,0,1-6.157-.752,21.868,21.868,0,0,1-5.765-2.371,1.844,1.844,0,0,1-.889-2.156,2.278,2.278,0,0,1,.7-1.11,1.839,1.839,0,0,1,1.214-.471,1.993,1.993,0,0,1,.995.281,19.867,19.867,0,0,0,5.016,2.013,21.818,21.818,0,0,0,5.323.648,24.27,24.27,0,0,0,6.847-1,25.23,25.23,0,0,0,6.337-2.858,19.825,19.825,0,0,0,7.113-7.522,25.313,25.313,0,0,0,2.125-7.428l.233-1.359A112.526,112.526,0,0,0,92.727,54a65.874,65.874,0,0,0-1.469-12.044,39.293,39.293,0,0,0-1.792-5.806A29.538,29.538,0,0,0,86.682,30.8a41.04,41.04,0,0,0-3.96-5.011c-1.323-1.445-2.814-2.909-4.56-4.476-.2-.183-.422-.377-.666-.595a33.486,33.486,0,0,0-3.771-1.946l-.268-.116c-.851-.363-1.851-.748-2.675-1.029-1.268-.431-2.64-.845-4.077-1.228-.649-.173-1.336-.344-2.163-.536.306.282.537.5.749.706a24.716,24.716,0,0,1,1.846,2.093c.432.529.88,1.077,1.352,1.586a.152.152,0,0,1,.032.169.164.164,0,0,1-.147.1A.167.167,0,0,1,68.3,20.5a31.172,31.172,0,0,0-3.555-1.468c-.577-.211-1.174-.429-1.749-.659-1.251-.5-2.5-1.065-3.7-1.612-.394-.179-.8-.364-1.205-.545-.366-.164-.736-.341-1.094-.512l-.128-.061c-1.877.019-3.4.065-4.809.146a27.872,27.872,0,0,1,2.76,2.248,25.708,25.708,0,0,1,2.406,2.554.219.219,0,0,1,.03.231.181.181,0,0,1-.166.107.227.227,0,0,1-.056-.007,65.8,65.8,0,0,1-8.89-3.154l-1.393-.581c-.87-.044-1.676-.066-2.466-.066-.2,0-.41,0-.61,0l-.5.008a24.4,24.4,0,0,0-3.219.227c-.291.044-.53.079-.75.109A18.927,18.927,0,0,0,34.957,19.8l.339-.02c.4-.023.808-.035,1.207-.035a19.134,19.134,0,0,1,4.937.627,16.523,16.523,0,0,1,5.337,2.548,19.639,19.639,0,0,1,4.237,4.154.1.1,0,0,1,.008.1.135.135,0,0,1-.115.075.1.1,0,0,1-.055-.017A18.971,18.971,0,0,0,48.5,25.866a22.062,22.062,0,0,0-2.5-1.037,30.427,30.427,0,0,0-5.273-1.278,23.525,23.525,0,0,0-3.66-.294c-.545,0-1.089.021-1.617.062-.5.039-1.008.126-1.5.21a12.473,12.473,0,0,1-2.059.234,4.866,4.866,0,0,1-.834-.067c-.38.475-.762.984-1.135,1.515.227-.014.41-.025.577-.033.422-.02.844-.03,1.256-.03a21.6,21.6,0,0,1,4.955.544,19.129,19.129,0,0,1,5.615,2.388,37.147,37.147,0,0,1,4.9,3.675.058.058,0,0,1,.018.067.078.078,0,0,1-.07.05.064.064,0,0,1-.032-.009,19.145,19.145,0,0,0-5.357-2.031,43.513,43.513,0,0,0-5.691-.839c-1.346-.124-2.537-.184-3.642-.184-.734,0-1.448.027-2.122.081-.508.04-1.02.107-1.516.172-.362.047-.736.1-1.105.134-.055.006-.114.008-.17.011l-.048,0c-.609,1.151-1.19,2.375-1.729,3.638a15.775,15.775,0,0,1,4.084-.567c.285,0,.569.009.844.028a15.469,15.469,0,0,1,4.886,1.2,21.09,21.09,0,0,1,4.383,2.5.114.114,0,0,1,.036.127.081.081,0,0,1-.077.062.1.1,0,0,1-.036-.007,14.936,14.936,0,0,0-5.381-.939,24.294,24.294,0,0,0-3.379.258,26.333,26.333,0,0,0-4.175.887,15.721,15.721,0,0,0-2.015.747c-.21.1-.419.209-.622.316l0,0-.249.131c-.224.763-.436,1.569-.628,2.4a19.465,19.465,0,0,1,3.635.567,24.907,24.907,0,0,1,3.5,1.176,38.85,38.85,0,0,1,6.467,3.54.117.117,0,0,1,.043.132.1.1,0,0,1-.089.074.106.106,0,0,1-.038-.007,22.951,22.951,0,0,0-3.739-1.039c-1.145-.224-2.4-.4-3.849-.539-.867-.083-1.81-.124-2.884-.124-.94,0-1.894.03-2.817.059h-.01l-.94.029c-.121.86-.217,1.717-.285,2.546.283.08.563.164.834.246l.013,0,.2.06a20.208,20.208,0,0,1,3.25,1.3,18.423,18.423,0,0,1,2.9,1.841c.781.6,1.587,1.287,2.613,2.24a.125.125,0,0,1,.025.139.123.123,0,0,1-.109.085.109.109,0,0,1-.041-.008,39.006,39.006,0,0,0-6.255-1.779c-1.09-.238-2.186-.458-3.258-.655-.106-.02-.217-.036-.32-.052a44.938,44.938,0,0,0,.34,5.8l.047.361a4.244,4.244,0,0,1-.019,1.407,2.365,2.365,0,0,1-.6,1.181,7.242,7.242,0,0,1,3.035-1.161,8.438,8.438,0,0,1,1.162-.081,7.928,7.928,0,0,1,3.55.83A8.65,8.65,0,0,1,32.671,60.5a.112.112,0,0,1,.017.122.108.108,0,0,1-.1.063.113.113,0,0,1-.075-.031,6.54,6.54,0,0,0-4.384-1.545,7.828,7.828,0,0,0-2.479.4,6.61,6.61,0,0,0-2.688,1.722,6.93,6.93,0,0,0-1.595,2.774,8.321,8.321,0,0,0-.319,1.712,8.423,8.423,0,0,0,.434,3.42,8.144,8.144,0,0,0,.741,1.575,6.442,6.442,0,0,0,1.106,1.369,4.772,4.772,0,0,0,1.474.951,4.04,4.04,0,0,0,.412.138,2.207,2.207,0,0,1,.762-.132,3.16,3.16,0,0,1,1.293.307l.088.042c.171,0,.343,0,.508-.006.2,0,.417-.006.622-.006h.156a.968.968,0,0,1,.844.477,1.079,1.079,0,0,1,.024,1.049c.114.209.21.434.3.653.069.16.133.311.2.457.32.654.649,1.292.957,1.884a7.392,7.392,0,0,1,1.2,1.715,6.677,6.677,0,0,1,.326.83c.269.405.524.782.781,1.15a36.309,36.309,0,0,0,2.771,3.517c.375.417.791.813,1.194,1.2h0c.246.234.5.476.743.72a.543.543,0,0,1,.444.348l.052.182a7.827,7.827,0,0,1,.581.728,1.266,1.266,0,0,1,.247.834,1.285,1.285,0,0,1-.307.72,28.118,28.118,0,0,1-.558,10.4,51.626,51.626,0,0,1-1.77,6.364,12.889,12.889,0,0,1-1.467,2.989,9.955,9.955,0,0,1-1.3,1.579,14.1,14.1,0,0,1-.32,1.664,10.057,10.057,0,0,1-.87,2.221,9.773,9.773,0,0,1-1.288,1.838,12.307,12.307,0,0,1-3.528,2.687,21.063,21.063,0,0,1-4.3,1.629,37.54,37.54,0,0,1-4.475.886A4.136,4.136,0,0,1,18.554,122.135ZM27.139,80.7a33.758,33.758,0,0,1,1.226,5.955,62.529,62.529,0,0,1,.043,9.892l-.017.341a63.6,63.6,0,0,1-1.118,9.313,36.238,36.238,0,0,1-1.14,4.342,29.954,29.954,0,0,1-1.723,4.143c-.211.414-.442.828-.706,1.265A11.571,11.571,0,0,0,25.847,115,6.29,6.29,0,0,0,28,113.133a6.085,6.085,0,0,0,.76-1.762,10.734,10.734,0,0,0,.3-1.923c.2-2.58.326-5.209.445-7.751.039-.827.079-1.681.121-2.525l.038-.746c.023-.445.048-.918.068-1.3a97.439,97.439,0,0,0,.03-14.9,5.816,5.816,0,0,1-2.093-1.094C27.5,81,27.323,80.855,27.139,80.7Zm-5.822-6.482c.184,1.859.328,3.412.454,4.886.278,3.253.458,6.1.55,8.7.111,3.13.1,5.98-.031,8.711a75.078,75.078,0,0,1-.948,9.039c-.217,1.274-.491,2.627-.815,4.021l-.1.443c-.051.214-.1.432-.148.663h0a13.622,13.622,0,0,1-.465,1.768,3.789,3.789,0,0,1-.907,1.492l.008.2a21.34,21.34,0,0,0,1.826-3.4A28.142,28.142,0,0,0,22,106.91a39.267,39.267,0,0,0,.79-3.935c.4-2.65.594-5.373.78-8.006l0-.033c.089-1.259.17-2.54.249-3.779V91.15c.127-2,.258-4.058.423-6.086l.13-1.582c.142-1.747.279-3.612.261-5.508a7.388,7.388,0,0,1-.93-1.877,2.065,2.065,0,0,1-.07-.315,9.741,9.741,0,0,1-2.322-1.565Zm11.4,11.456h0a35.938,35.938,0,0,1,1,4.229,55.058,55.058,0,0,1,.722,6.815l.214-.806c.511-1.915,1.085-3.967,1.819-5.991a13.991,13.991,0,0,1-2.711-2.85l-.162-.206C33.305,86.487,33.007,86.086,32.718,85.674ZM16.659,23.592c-.349,1.13-.668,2.289-.976,3.409v0c-.072.261-.146.531-.22.8A68.542,68.542,0,0,0,13.542,37.9a116.944,116.944,0,0,0-.53,20.375c.382,7.2,1.249,14.306,2.046,20.309.268,2.019.549,4.071.821,6.055v0c.48,3.505.977,7.13,1.419,10.7.02-.6.035-1.138.044-1.646.061-3.452-.061-7.213-.374-11.5-.279-3.822-.68-7.7-1.069-11.449-.422-4.074-.858-8.286-1.139-12.442l-.048-.72c-.286-4.362-.335-6.745-.345-8.333a66.322,66.322,0,0,1,.417-8.318,51.933,51.933,0,0,1,1.72-8.34l.47-1.607c.361-1.227.678-2.252,1.056-3.267-.056-.107-.107-.212-.152-.311A18.565,18.565,0,0,1,16.659,23.592Zm-6.044,63.16c.438,1.967.891,4,1.325,6-.348-2.694-.723-5.43-1.085-8.075C10.174,79.709,9.469,74.568,8.916,69.5c-.621-5.687-.981-10.678-1.1-15.259-.1-3.691-.036-7.254.182-10.589A89.2,89.2,0,0,1,9.29,33.142l.077-.409a30.706,30.706,0,0,1,2.654-8.687A27.542,27.542,0,0,1,14.633,20a8.024,8.024,0,0,1,1.4-1.369,27.115,27.115,0,0,1,.35-5.643,20.448,20.448,0,0,1,1.666-5.392,70.179,70.179,0,0,0-5.619,8.336c-.843,1.486-1.607,2.993-2.27,4.478a46.883,46.883,0,0,0-1.822,4.749c-.588,1.83-1.1,3.732-1.535,5.653-.416,1.856-.763,3.784-1.033,5.729-.26,1.874-.455,3.821-.579,5.785-.12,1.885-.178,3.843-.174,5.819A111.7,111.7,0,0,0,5.686,59.8c.392,3.644.949,7.42,1.7,11.545.944,5.164,2.1,10.371,3.225,15.407v0ZM19.792,59.18c.039.421.08.85.12,1.264v.006l.02.206a8.324,8.324,0,0,1,1.452-1.583,1.909,1.909,0,0,1-.894.226,2.225,2.225,0,0,1-.537-.069l-.055-.016Zm-.457-29.8c-.177,1.482-.3,3.028-.364,4.6-.055,1.351-.086,2.823-.094,4.5l0,.644,0-.012a48.9,48.9,0,0,1,2.987-8.857,2,2,0,0,1-.327.026,2.78,2.78,0,0,1-.336-.022,3.61,3.61,0,0,1-1.418-.547A3.783,3.783,0,0,1,19.335,29.381Zm21-17.687c-.411.186-.822.388-1.219.584-.454.224-.923.455-1.393.662a39.533,39.533,0,0,0-5.084,2.691,34.8,34.8,0,0,0-4.672,3.406c-.16.141-.32.286-.474.426l-.033.03c-.036.356-.059.685-.07,1-.005.16-.007.34,0,.565a29.449,29.449,0,0,1,2.168-2.414,25.74,25.74,0,0,1,2.413-2.119,23.742,23.742,0,0,1,5.679-3.247c.674-.271,1.4-.531,2.217-.8A5.172,5.172,0,0,0,40.331,11.694Zm-1.769-3.81a6.915,6.915,0,0,0-1.089.092,10.436,10.436,0,0,0-2.038.547,12.3,12.3,0,0,0-3.9,2.421,12.372,12.372,0,0,0-1.665,1.887c.494-.279.99-.538,1.475-.769l.344-.163a21.284,21.284,0,0,1,6.035-2.018l.417-.058h0a14.154,14.154,0,0,1,1.942-.182,5.7,5.7,0,0,1,.605.031,2.487,2.487,0,0,0-.434-1.244C40.067,8.18,39.622,7.884,38.562,7.884ZM29.57,68.678a1.315,1.315,0,0,1-.833-.305c-.515-.417-1.018-.864-1.505-1.3A27.428,27.428,0,0,0,24.684,65a.252.252,0,0,1-.093-.281.2.2,0,0,1,.2-.144H24.8a11.067,11.067,0,0,1,3.032.526,8.29,8.29,0,0,1,2.7,1.471,1.152,1.152,0,0,1,.4.581,1,1,0,0,1-.03.6,1.4,1.4,0,0,1-.511.653A1.439,1.439,0,0,1,29.57,68.678Z" transform="translate(-5.06 5.918)"/>
  </g>
  <g id="FACE" transform="translate(112.183 77.354)">
    <path id="_Ink-3" data-name="ðŸ– Ink" d="M15.9,38.246h0a7.806,7.806,0,0,1,1.026-2.861,17.423,17.423,0,0,1,1.732-2.475,12.428,12.428,0,0,1,2.524-2.324,11.482,11.482,0,0,1,3.067-1.527,7.788,7.788,0,0,1,7.815,1.877,7.557,7.557,0,0,1,1.039,1.278,7.4,7.4,0,0,1,1.14,3.2,1.6,1.6,0,0,1-.523,1.3,2.231,2.231,0,0,1-1.5.671,1.958,1.958,0,0,1-1.374-.565,2.161,2.161,0,0,1-.645-1.417,2.692,2.692,0,0,0-.649-1.713,4.783,4.783,0,0,0-1.507-1.15,5.137,5.137,0,0,0-2.247-.49,7.006,7.006,0,0,0-2.031.316,9.719,9.719,0,0,0-2.356,1.107,18.092,18.092,0,0,0-2.091,1.566c-.516.44-1.009.94-1.486,1.424L17.8,36.5A17.2,17.2,0,0,1,15.9,38.246Zm9.828-12.406h0a7.373,7.373,0,0,1-2.63-.53,13.281,13.281,0,0,1-3.093-1.756,1.189,1.189,0,0,1-.432-.687,1.423,1.423,0,0,1,.061-.771,1.754,1.754,0,0,1,.521-.753,1.267,1.267,0,0,1,.811-.317,1.151,1.151,0,0,1,.628.193l.21.162h0a16.743,16.743,0,0,0,1.936,1.347,4.768,4.768,0,0,0,2.321.74,2.505,2.505,0,0,0,.981-.193,2.741,2.741,0,0,0,.913-.647,2.8,2.8,0,0,0,.531-2.255,4.261,4.261,0,0,0-1.13-2,8.241,8.241,0,0,0-1.711-1.382.531.531,0,0,1-.143-.61A.8.8,0,0,1,25.77,16a.809.809,0,0,1,.505-.167,1.076,1.076,0,0,1,.182.016,5.736,5.736,0,0,1,2.018.729,4.578,4.578,0,0,1,1.357,1.252,4.974,4.974,0,0,1,.866,3.322,5.475,5.475,0,0,1-.444,1.744,5.088,5.088,0,0,1-1,1.5A4.779,4.779,0,0,1,25.731,25.839Zm10.73-8.583a1.475,1.475,0,0,1-.913-.308,2.4,2.4,0,0,1-.725-1.007,4.518,4.518,0,0,1-.249-1.575l0-.067a9.064,9.064,0,0,0-.095-1.15,2.392,2.392,0,0,0-.587-1.3,1.065,1.065,0,0,0-.6-.137,5.277,5.277,0,0,0-1.565.306l-.266.1a2.412,2.412,0,0,0-1.39,1.225A1.135,1.135,0,0,0,30,13.7a2.486,2.486,0,0,1-.226-1.23,2.755,2.755,0,0,1,.853-1.759,6.39,6.39,0,0,1,1.627-1.17,4.174,4.174,0,0,1,1.2-.414l1.425-.254-1.338-.553a13.289,13.289,0,0,1-3.423-2.069,10.159,10.159,0,0,1-1.386-1.393,7.756,7.756,0,0,1-1.048-1.655,8.532,8.532,0,0,1-.564-1.6l-.036-.157a2.523,2.523,0,0,0-.217-.624l0,0a2.68,2.68,0,0,1-.152-.379A.357.357,0,0,1,26.692.2a.259.259,0,0,1,.161-.114A1.561,1.561,0,0,1,27.4,0a2.7,2.7,0,0,1,.894.15,6.44,6.44,0,0,1,1.9,1.442l.069.067c.289.279.587.566.88.809a11.879,11.879,0,0,0,6.418,2.621l.136.012a2.451,2.451,0,0,1,1.543.677,1.935,1.935,0,0,1,.567,1.4,2.126,2.126,0,0,1-.639,1.482,1.927,1.927,0,0,1-1.358.594h-.061c-.365-.013-.749-.046-1.141-.1l-1.4-.188,1.073.927a3.908,3.908,0,0,1,.593.64,6.952,6.952,0,0,1,1.061,2.384,10.008,10.008,0,0,1,.3,2.607,1.942,1.942,0,0,1-.251.908,1.46,1.46,0,0,1-.584.58,1.892,1.892,0,0,1-.9.246ZM7.136,16.526h0a2.44,2.44,0,0,1-.585-1.266,4.392,4.392,0,0,1,.213-2.214A6.17,6.17,0,0,1,8.12,10.851,5.944,5.944,0,0,1,10.233,9.4,6.077,6.077,0,0,1,12.459,9a6.729,6.729,0,0,1,3.421.925,7.007,7.007,0,0,1,2.292,2.234,1.929,1.929,0,0,1,.141,1.709,2.316,2.316,0,0,1-1.376,1.27,1.389,1.389,0,0,1-.477.083,1.712,1.712,0,0,1-.436-.059,2.7,2.7,0,0,1-1.041-.574,6.689,6.689,0,0,1-.634-.652l-.016-.018A3.985,3.985,0,0,0,12.817,12.7a3.877,3.877,0,0,0-1.423-.262,3.987,3.987,0,0,0-1.1.151,3.641,3.641,0,0,0-1.23.63,4.569,4.569,0,0,0-.946,1.015,6.72,6.72,0,0,0-.981,2.291ZM4.869,9.235a12.363,12.363,0,0,1-1.751-.123L2.75,9.059H2.743A6.338,6.338,0,0,1,0,8.218a2.911,2.911,0,0,1,.778-.1l.074,0c.17-.008.363-.016.547-.033a14.018,14.018,0,0,0,2.5-.447,17.75,17.75,0,0,0,2.3-.8A16.2,16.2,0,0,0,8.365,5.7a14.52,14.52,0,0,0,3.672-3.312l.122-.155.126-.164.028-.036.042-.056A4.36,4.36,0,0,1,13.751.63,2.375,2.375,0,0,1,15.275.362a3.333,3.333,0,0,1,1.608.787,1.626,1.626,0,0,1,.551,1.176,2.287,2.287,0,0,1-.426,1.465,1.912,1.912,0,0,1-1.472.769l-.1,0h-.076l-.074.085-.05.058-.016.019c-.1.116-.17.193-.241.269-.266.284-.553.562-.852.826a12.323,12.323,0,0,1-2.143,1.527A14.27,14.27,0,0,1,7.637,8.966,15.134,15.134,0,0,1,4.869,9.235Z" transform="translate(10.438 13.52)"/>
  </g>
</svg>
