<svg id="peep-54" xmlns="http://www.w3.org/2000/svg" width="240" height="324" viewBox="0 0 240 324">
  <g id="BODY" transform="translate(31.056 135.053)">
    <path id="_Skin" data-name="âœ‹ Skin" d="M158.088,123.645q-1.277-7.217-2.342-14.47c-.337-2.3-.665-4.593-.961-6.894-.207-1.612-.522-3.456.575-4.65,1.543-1.681,2.944-3.119,3.133-5.526.178-2.265-.588-4.734-1.067-6.933-1-4.611-2.254-9.165-3.635-13.675-1.4-4.583-2.941-9.122-4.5-13.653a127.35,127.35,0,0,0-4.762-12.575,36.828,36.828,0,0,0-17.249-17.24c-1.875-.949-5.7-4.335-7.66-5.093-1.8-.7-1.795,1.338-3.568.572a7.089,7.089,0,0,1-3.53-2.8c-.862-1.486-3.022-3.565-3.351-5.3-.7-3.667.058-6.789-2.558-9.549A19,19,0,0,0,97.937.833C90.831-1.15,81.354.236,77.067,6.842,75.019,10,74.3,13.81,71.54,16.385c-2.413,2.248-1.873,3.785-5,4.943-.177.066-4.974-.964-5.151-.9-3.419-.732-6.686,1.317-9.823,2.506a68.751,68.751,0,0,0-13.31,6.82A84.361,84.361,0,0,0,16.646,50.585,101.986,101.986,0,0,0,2.666,77.548Q1.457,81.044.5,84.619a7.19,7.19,0,0,0-.3,4.08,5.256,5.256,0,0,0,2.077,2.618c1.26.908,3.787,1.5,3.738,3.325a31.9,31.9,0,0,1-.738,4.222c-.274,1.634-.5,3.278-.723,4.92-1.023,7.471-1.818,14.985-2.17,22.519a194.546,194.546,0,0,0-.12,22.406,2.87,2.87,0,0,0,.415,1.317.3.3,0,0,0,.037.551l.574.122a2.525,2.525,0,0,0,1.464.5c.387.012.773.03,1.16.05,4.078.853,8.155,1.658,12.286,2.268q7.532,1.112,15.109,1.837c10.381,1.01,20.68.675,31.074.131q15.567-.815,31.14-.4c10.4.271,20.793.723,31.193.908,11.62.207,23.221-.111,34.807-1.035a2.387,2.387,0,0,0,2.258-2.969C161.9,142.535,159.769,133.142,158.088,123.645Z" transform="translate(5.493 -6.763)" fill="#d08b5b"/>
    <path id="_Top" data-name="ðŸ‘• Top" d="M51.568,2.66l.227-.087c3.067-1.2,6.259-3.133,9.6-2.418.118-.044,2.289.4,3.776.68L63.755,2.307l-2.491.479Q74.154,24.068,91.753,24.068T118.463,2.787l.829-.229a2.43,2.43,0,0,1,.328.1c1.959.758,5.784,4.144,7.66,5.093a36.829,36.829,0,0,1,17.249,17.24,122.146,122.146,0,0,1,4.616,12.152l.146.424c1.561,4.531,3.1,9.071,4.5,13.653,1.321,4.314,2.522,8.669,3.5,13.074l.132.6c.479,2.2,1.244,4.668,1.067,6.933a6.127,6.127,0,0,1-.615,2.259l-17,6.118,8.1,55.246q-11.125.477-22.272.268c-10.4-.185-20.795-.638-31.193-.908q-15.111-.393-30.2.352l-2.556.131a199.843,199.843,0,0,1-29.462-.213l-.671-.066h0v-8.081l3.458-45-17.524-3.3-17.2-8.358A4.584,4.584,0,0,1,.194,68.423a6.673,6.673,0,0,1,.225-3.784l.079-.3q.957-3.573,2.167-7.071a101.986,101.986,0,0,1,13.98-26.963A84.361,84.361,0,0,1,38.258,9.48,68.751,68.751,0,0,1,51.568,2.66Z" transform="translate(5.493 13.513)" fill="#ec7495"/>
    <path id="_Ink" data-name="ðŸ– Ink" d="M34.171,150.261a1.828,1.828,0,0,1-.215-.012,1.883,1.883,0,0,1-1.19-.633,1.93,1.93,0,0,1-.485-1.264c-.008-1.767.148-3.575.3-5.322v0c.064-.736.129-1.5.181-2.243.146-2.081.309-4.286.529-7.147.425-5.518.9-11.125,1.357-16.547v0c.263-3.116.536-6.338.8-9.516.222-2.7.478-5.638.807-9.24a45.783,45.783,0,0,1-7.046-.8,57.9,57.9,0,0,1-6.831-1.76c-2.121-.681-4.292-1.491-6.637-2.477-1.981-.833-4.1-1.8-6.462-2.947-.117,2.663-.4,5.362-.667,7.973l-.042.4c-.9,8.66-1.564,16.3-2.043,23.345-.232,3.416-.428,7.064-.633,11.827-.083,1.931-.152,3.888-.2,5.817-.018.655-.034,1.308-.047,1.94l-.029,1.481A3.058,3.058,0,0,1,4.7,145.63a2.1,2.1,0,0,1-1.361.534,1.925,1.925,0,0,1-1.318-.534,2.585,2.585,0,0,1-.8-1.481,7.834,7.834,0,0,1-.059-1.7v0c.005-.144.011-.293.014-.44.026-1.09.058-2.208.094-3.325.073-2.2.167-4.437.281-6.647.371-7.2,1.1-14.77,2.235-23.136l.406-2.965c.366-2.657.766-5.487,1.292-8.305a67.229,67.229,0,0,1,1.995-8.154c-.639-.318-1.3-.652-1.974-.991-.344-.174-.7-.348-1.038-.516h0c-.817-.4-1.661-.818-2.458-1.276A3.631,3.631,0,0,1,.092,84.42a6.489,6.489,0,0,1,.309-3.1v0c.042-.161.082-.314.12-.467l.025-.1c.265-1.093.565-2.241.891-3.414A113.014,113.014,0,0,1,6.146,63.841,110.53,110.53,0,0,1,20.469,39.124a85.491,85.491,0,0,1,8.613-9.616c1.584-1.509,3.223-2.935,4.87-4.239a62.945,62.945,0,0,1,5.259-3.745,53.769,53.769,0,0,1,5.51-3.073,48.012,48.012,0,0,1,5.849-2.361,30.028,30.028,0,0,1,5.876-1.367c.94-.105,1.952-.179,3.182-.232.119-.005.243-.008.369-.008a19.19,19.19,0,0,1,2.124.16h.007c.244.027.5.056.742.08a.1.1,0,0,1,.088.1.074.074,0,0,1-.064.08c-1.9.4-3.782.939-5.7,1.506l-.807.239c-2,.591-4.136,1.257-6.244,2.116a55.875,55.875,0,0,0-11.576,6.519A79.611,79.611,0,0,0,20.712,43.523,101.8,101.8,0,0,0,13.9,54.453,114.14,114.14,0,0,0,8.48,66.014a111.552,111.552,0,0,0-4.336,13.03c-.276,1.042-.548,2.133-.809,3.244-.016.07-.045.163-.078.271-.113.372-.284.933-.144,1.187a1.674,1.674,0,0,0,.773.487c.107.045.208.088.284.128l.964.5c1.876.967,5,2.558,5.325,2.717l.49.241a89.359,89.359,0,0,0,12.414,5.131,54.336,54.336,0,0,0,6.494,1.643,42.86,42.86,0,0,0,6.673.715l.071-.77a72.469,72.469,0,0,1,2.08-12.662.168.168,0,0,1,.163-.135.214.214,0,0,1,.207.186,56.484,56.484,0,0,1,.431,7.349c0,2.368-.1,4.737-.218,7.366-.273,6-.614,12.087-.943,17.978v.005c-.148,2.649-.3,5.388-.446,8.083-.164,3.043-.365,6.136-.559,9.127v0c-.083,1.275-.168,2.593-.251,3.9-.071,1.127-.13,2.281-.188,3.4v0c-.165,3.209-.336,6.526-.8,9.724a1.507,1.507,0,0,1-.694,1.029A2.236,2.236,0,0,1,34.171,150.261Zm129.541-3.478a1.3,1.3,0,0,1-.536-.123l-.133-.062a2.436,2.436,0,0,1-1.545-1.491,8.09,8.09,0,0,1-.233-1.1c-.029-.177-.059-.359-.094-.533-.2-1.026-.4-2.057-.579-3.065-.363-2.044-.722-4.113-1.067-6.151l-.324-1.921c-1.07-6.361-2.16-13.142-2.705-19.974-.247-3.1-.513-6.218-.742-8.9l-.191-2.225c-.038-.443-.078-.9-.116-1.334V99.9c-.209-2.366-.424-4.813-.459-7.215l-.957.34-4.671,1.652c-.289.1-.594.229-.916.364a7.466,7.466,0,0,1-2.653.75,2.555,2.555,0,0,1-.31-.018,2.36,2.36,0,0,1-1.434-.616c.446,6.3,1.048,12.409,1.788,18.166.784,6.1,1.574,11.47,2.413,16.424.374,2.21.877,5.128,1.439,8.092.252,1.327.518,2.684.791,4.033.042.209.088.421.132.627.1.454.2.924.27,1.389a2.341,2.341,0,0,1-.524,1.886,1.324,1.324,0,0,1-1.068.6,1.06,1.06,0,0,1-.571-.165,3.5,3.5,0,0,1-.893-.734,2.583,2.583,0,0,1-.49-1.029c-.141-.549-.246-1.122-.347-1.677v-.006c-.044-.242-.09-.492-.137-.736-.287-1.46-.571-2.954-.844-4.443-.586-3.2-1.111-6.341-1.558-9.327-.809-5.395-1.492-10.958-2.029-16.535-.523-5.427-.924-11.018-1.19-16.618-.248-5.2-.344-10.579-.295-16.431.026-3.053.129-5.81.314-8.426.165-2.33.483-4.664.79-6.922l0-.021c.066-.485.134-.987.2-1.481a.084.084,0,0,1,.084-.076.074.074,0,0,1,.075.076c.073,1.3.165,2.63.254,3.912v0c.126,1.813.256,3.688.335,5.536s.132,3.716.183,5.529v0c.032,1.15.066,2.339.106,3.511.138,4.043.331,8.041.572,11.885a2.067,2.067,0,0,1,1.512-.69,1.839,1.839,0,0,1,.3.024,12.626,12.626,0,0,0,1.94-.647c.363-.143.706-.278,1.04-.389l3.535-1.181c1.76-.588,3.655-1.218,5.582-1.836a141.552,141.552,0,0,1-3.785-17.086l-.435-2.6c-.413-2.452-.869-5.076-1.413-7.654-.592-2.811-1.226-5.275-1.936-7.533a49.345,49.345,0,0,0-3.068-7.526,48.523,48.523,0,0,0-4.28-6.909,60.958,60.958,0,0,0-5.262-6.129c-1.693-1.744-3.558-3.51-5.87-5.557-2.005-1.776-4.127-3.479-6.179-5.126-1.469-1.179-2.987-2.4-4.453-3.635a2.035,2.035,0,0,1,.012.65,22.312,22.312,0,0,1-.939,4.013,24.223,24.223,0,0,1-1.635,3.785,25.8,25.8,0,0,1-2.24,3.47,26.2,26.2,0,0,1-11.751,8.675,28.682,28.682,0,0,1-5.076,1.374,30.617,30.617,0,0,1-5.263.453,32.108,32.108,0,0,1-5.385-.459,32.725,32.725,0,0,1-5.269-1.36A35.689,35.689,0,0,1,76.4,34.9a36.685,36.685,0,0,1-6.27-4.936,34.156,34.156,0,0,1-5-6.185,29.978,29.978,0,0,1-3.3-7.173.133.133,0,0,1,.016-.122.153.153,0,0,1,.124-.057.161.161,0,0,1,.132.065l.449.614.066.09a.224.224,0,0,1,.152-.239A27.069,27.069,0,0,0,72.605,10.8a21.108,21.108,0,0,0,3.369-4.561,18.149,18.149,0,0,0,1.135-2.471l.079-.22c.043-.121.086-.246.124-.356A7.124,7.124,0,0,1,78.666.548,1.69,1.69,0,0,1,79.934,0a2.157,2.157,0,0,1,1.7.874,1.664,1.664,0,0,1,.231,1.538,27.053,27.053,0,0,1-2.858,6.039A21.216,21.216,0,0,1,77,11.092a19.283,19.283,0,0,1-2.453,2.3,20.446,20.446,0,0,1-4.968,2.919,14.972,14.972,0,0,1-5.582,1.118c-.386,0-.778-.016-1.163-.049a.256.256,0,0,1-.088-.023l.373.506c1.208,1.635,2.819,3.774,4.57,5.824a49.766,49.766,0,0,0,5.166,5.281,36.732,36.732,0,0,0,4.726,3.49,34.771,34.771,0,0,0,5.214,2.661,31.767,31.767,0,0,0,5.564,1.7,28.8,28.8,0,0,0,5.776.6,26.831,26.831,0,0,0,6.6-.819,23.784,23.784,0,0,0,5.646-2.244,24.429,24.429,0,0,0,4.926-3.589,22.87,22.87,0,0,0,3.837-4.7,20.4,20.4,0,0,0,2.377-5.572,1.549,1.549,0,0,1-.638.134,1.79,1.79,0,0,1-.379-.042c-1.62-.352-3.221-2.047-4.285-3.291a15.567,15.567,0,0,1-2.67-4.38,14.151,14.151,0,0,1-1.028-4.861,10.626,10.626,0,0,1,.221-2.489,8.161,8.161,0,0,1,.86-2.3.336.336,0,0,1,.3-.187.426.426,0,0,1,.406.377l.062.539a21.8,21.8,0,0,0,1.971,7.748,15.864,15.864,0,0,0,2.27,3.378,13.255,13.255,0,0,0,1.577,1.5c.22.175.462.333.7.485a6.017,6.017,0,0,1,1.021.776l.091.1,0-.017a1.756,1.756,0,0,1,.549-1.141,1.492,1.492,0,0,1,.99-.366h.065a5.665,5.665,0,0,1,1.86.489l.03.014a71.718,71.718,0,0,1,13.753,8.883A58.009,58.009,0,0,1,146.689,38.03a52.385,52.385,0,0,1,7.227,15.061,135.789,135.789,0,0,1,3.227,15.162l.01.057.2,1.14.588,3.364c.406,2.309.892,4.991,1.528,7.609a46.815,46.815,0,0,0,2.368,7.343,2.2,2.2,0,0,1,.074,1.751,2.061,2.061,0,0,1-1.23,1.092c-1.387.522-2.909,1.078-4.792,1.752.567,2.433.979,4.957,1.378,7.4v.008c.153.937.311,1.906.475,2.849.7,4.056,1.512,8.166,2.293,12.14v.007c.606,3.084,1.233,6.274,1.807,9.418.338,1.852.665,3.737.982,5.56.312,1.8.635,3.663.969,5.493.2,1.087.41,2.217.6,3.215l.017.091c.123.658.251,1.339.375,2.008.117.63.228,1.271.335,1.89.052.3.112.645.171.981l.029.159.023.116a3.1,3.1,0,0,1,.057,1.415,3.029,3.029,0,0,1-.881,1.265l0,0-.124.127A.92.92,0,0,1,163.712,146.783Z" transform="translate(4.013 -1.057)"/>
  </g>
  <g id="HEAD" transform="translate(78.592 38.043)">
    <path id="_Skin-2" data-name="âœ‹ Skin" d="M49.314,93.462h0a44.78,44.78,0,0,1-26.6-8.741,2.329,2.329,0,0,1-.864-1.152,1.955,1.955,0,0,1,.014-1.222A17.134,17.134,0,0,1,19.8,80.232a18.049,18.049,0,0,1-1.7-2.471,17.608,17.608,0,0,1-1.271-2.732,16.112,16.112,0,0,1-.761-2.9.883.883,0,0,0-.52-.554,3.605,3.605,0,0,0-.815-.218c-.124-.023-.241-.045-.355-.072a19.42,19.42,0,0,1-5.908-1.81A7.324,7.324,0,0,1,6.2,67.6a5.978,5.978,0,0,1-.769-1.3,6.649,6.649,0,0,1-.453-1.589,11.952,11.952,0,0,1,.007-2.69,11.422,11.422,0,0,1,.522-2.305,23,23,0,0,1,1.887-3.945c.449-.8.913-1.629,1.3-2.481a11.934,11.934,0,0,0,.892-2.724,10.391,10.391,0,0,0,.092-3.242,15.894,15.894,0,0,0-1.1-4.033,63.388,63.388,0,0,0-3.5-8.919C4.13,32.24,3.147,30.04,2.3,27.838A37.949,37.949,0,0,1,.349,21.306,19.561,19.561,0,0,1,0,18.179a13.269,13.269,0,0,1,.246-2.96,10.078,10.078,0,0,1,2.781-5.193A8.659,8.659,0,0,1,5.569,8.272a7.2,7.2,0,0,1,2.957-.656,6.36,6.36,0,0,1,1.31.136A79.872,79.872,0,0,1,44.125,0,77.007,77.007,0,0,1,62.13,2.118l.24.057A34.013,34.013,0,0,1,66.043,3.2a10.777,10.777,0,0,1,3.314,1.825,3.8,3.8,0,0,1,1.185,1.563,2.8,2.8,0,0,1,.094,1.588,10.559,10.559,0,0,1-1.687,3.3,16.492,16.492,0,0,0-1.634,2.894,5.453,5.453,0,0,0-.378,1.531,4.068,4.068,0,0,0,.172,1.6c.367.514,1.019,1.558,1.744,2.792.6,1.024,1.536,2.659,2.575,4.637a51.152,51.152,0,0,1,4.222,9.916c.686,2.862,1.134,4.375,1.3,4.375.025,0,.038-.034.046-.06,0-.011.006-.021.008-.031s.007-.029.011-.029a2.96,2.96,0,0,1,.062.469c.063.554.193,1.707.489,4.044.359,2.838.8,6.59,1.024,10.442a73.174,73.174,0,0,1-.066,10.51,49.709,49.709,0,0,1-.7,5.131,40.091,40.091,0,0,1-1.279,4.968,34.194,34.194,0,0,1-1.962,4.744,31.5,31.5,0,0,1-2.748,4.461,23.942,23.942,0,0,1-2.069,2.162,26.832,26.832,0,0,1-3.979,3.036,28.031,28.031,0,0,1-5.993,2.819A30.865,30.865,0,0,1,51.682,93.4C50.9,93.44,50.1,93.462,49.314,93.462ZM2.127,18.088a16.442,16.442,0,0,0,.364,2.706A14.113,14.113,0,0,1,3.2,18.837,1.882,1.882,0,0,1,2.127,18.088ZM8.653,8.32a6.6,6.6,0,0,0-2.174.83,8.316,8.316,0,0,0-1.847,1.5A29.368,29.368,0,0,1,8.653,8.32Z" transform="translate(9.698 10.99)" fill="#d08b5b"/>
    <path id="_Ink-2" data-name="ðŸ– Ink" d="M60.146,107.224a27.247,27.247,0,0,1-8.637-1.408,26.616,26.616,0,0,1-4.033-1.732,25.544,25.544,0,0,1-3.693-2.391,1.488,1.488,0,0,1-.49-1.745,2.29,2.29,0,0,1,.718-1.019,1.819,1.819,0,0,1,1.13-.434,1.51,1.51,0,0,1,.882.289,26.522,26.522,0,0,0,7.009,3.523,24.561,24.561,0,0,0,7.645,1.239,22.518,22.518,0,0,0,8.67-1.712A22.2,22.2,0,0,0,73.723,99.4a24.083,24.083,0,0,0,3.77-3.343A24.616,24.616,0,0,0,80.5,92a23.469,23.469,0,0,0,2.09-4.561,55.493,55.493,0,0,0,2.079-11.371c.04-.357.085-.761.13-1.155l.032-.28c.259-2.25.457-4.472.589-6.606.139-2.253.208-4.483.206-6.628s-.081-4.073-.244-5.919a49.044,49.044,0,0,0-.8-5.576,43.864,43.864,0,0,0-1.475-5.433,48.305,48.305,0,0,0-2.267-5.49,39.444,39.444,0,0,0-6.521-9.6,3.013,3.013,0,0,1-.608.057,8.163,8.163,0,0,1-1.2-.122h0c-.209-.032-.426-.064-.635-.087-.461-.05-.864-.09-1.233-.125.4.26.806.537,1.237.845l.531.384.252.18.013.009a11.788,11.788,0,0,1,2.295,1.946,3.185,3.185,0,0,1,.783,2.723,1.646,1.646,0,0,1-.486.85,1.889,1.889,0,0,1-.85.488,2.889,2.889,0,0,1-.669.08,3.4,3.4,0,0,1-1.926-.67,12.788,12.788,0,0,1-1.649-1.43c-.311-.3-.6-.587-.9-.842-1.29-1.1-2.62-2.076-3.982-3.058-.359-.257-.657-.468-.936-.664.283.331.573.684.862,1.049l.414.526.217.271a12.456,12.456,0,0,1,1.719,2.544,3.022,3.022,0,0,1,.007,2.837,1.814,1.814,0,0,1-.682.685,1.857,1.857,0,0,1-.931.26h-.031a2.941,2.941,0,0,1-2.144-1.04,11.1,11.1,0,0,1-1.426-2.124c-.213-.376-.415-.732-.626-1.055-.953-1.456-2.006-2.835-2.909-3.992-.322-.41-.592-.751-.85-1.071a88.254,88.254,0,0,0-14.045,1.87c-2.8.606-5.788,1.417-9.4,2.551l-.258.082a11.634,11.634,0,0,0-4.614,2.422,6.247,6.247,0,0,0,.125,2.5l.129.626a37.059,37.059,0,0,1,.611,3.909,20.258,20.258,0,0,1,.01,3.962A29.213,29.213,0,0,1,28.4,54.6a3.359,3.359,0,0,1-.6,1.006,2.115,2.115,0,0,0-.546,1.289,13.7,13.7,0,0,0,.039,3.015l.075.848a16.814,16.814,0,0,1,.029,3.383,5.98,5.98,0,0,1-1.2,3.091.451.451,0,0,1-.361.163.6.6,0,0,1-.507-.275,3.629,3.629,0,0,0-.2-.323,4.081,4.081,0,0,0-1.3-1.207,5.156,5.156,0,0,0-1.7-.613.1.1,0,0,1-.093-.105.156.156,0,0,1,.128-.148,4.274,4.274,0,0,1,2.854.674c-.16-.555-.772-.837-1.818-.837a11.446,11.446,0,0,0-2.651.4l-.035.009a10.331,10.331,0,0,0-3.493,1.665,8.237,8.237,0,0,0-1.408,1.326,8.02,8.02,0,0,0-1.038,1.59,7.94,7.94,0,0,0-.819,3.714,7.53,7.53,0,0,0,1,3.607,6.967,6.967,0,0,0,1.142,1.47,6.83,6.83,0,0,0,1.53,1.128,7.428,7.428,0,0,0,3.526.871h.079a8.5,8.5,0,0,0,1.748-.258,8.219,8.219,0,0,1,1.765-.255c.086,0,.171,0,.254.008a1.151,1.151,0,0,1,.936.607.955.955,0,0,1-.04.959,3.578,3.578,0,0,1-1.109,1.131,37.182,37.182,0,0,0,4.006,7,23.118,23.118,0,0,0,2.943,3.337,9.877,9.877,0,0,0,.774.622,8.718,8.718,0,0,1,1.259,1.082,1.8,1.8,0,0,1,.548,1.335,1.033,1.033,0,0,1-.717.947,1.339,1.339,0,0,1-.51.1c-1.1,0-2.315-1.259-3.117-2.093-.09-.094-.184-.191-.268-.277l-.072-.073a25.227,25.227,0,0,1-3.046-3.686,18.191,18.191,0,0,1-1.93-3.716,19.173,19.173,0,0,1-1.046-4.039,7.137,7.137,0,0,1-2.053.275,11.388,11.388,0,0,1-2.546-.306,11.88,11.88,0,0,1-2.2-.73,9.135,9.135,0,0,1-1.856-1.124,9.447,9.447,0,0,1-1.51-1.485A10.088,10.088,0,0,1,12.1,77.934a10.705,10.705,0,0,1-.769-1.965,10.962,10.962,0,0,1-.31-4.447,10.26,10.26,0,0,1,.551-2.185,9.646,9.646,0,0,1,3.45-4.492,2.282,2.282,0,0,1-.567-.437,14.989,14.989,0,0,1-2.071-3.153l-.2-.375-.08-.145c-.589-1.066-1.148-2.158-1.664-3.246l-.193-.413c-.443-.954-.86-1.7-1.263-2.412a18.382,18.382,0,0,1-1.746-3.821A53.235,53.235,0,0,1,5.4,43.08l-.108-.7a18.369,18.369,0,0,1-.286-4.714,6.253,6.253,0,0,1-2.023.393,3.336,3.336,0,0,1-1.519-.348,1.865,1.865,0,0,1-.855-.993,1.958,1.958,0,0,1-.079-1.307A3.2,3.2,0,0,1,1.449,34a3.313,3.313,0,0,1-.67-.452L.6,33.394a1.849,1.849,0,0,1-.591-1.223A2.335,2.335,0,0,1,.274,30.83c.039-.067.08-.143.124-.224a2.417,2.417,0,0,1,2.057-1.2h.032l.2,0,.2,0a3.609,3.609,0,0,1-1.134-.444,2.266,2.266,0,0,1-.907-1.073A2.517,2.517,0,0,1,.7,26.535a2.269,2.269,0,0,1,.5-1.12,2.1,2.1,0,0,1,1.113-.675,4.364,4.364,0,0,1,1.022-.115,7.141,7.141,0,0,1,1.641.212l-.018-.01-.083-.049a2.732,2.732,0,0,1-.887-.893,2.044,2.044,0,0,1-.319-1.214,2.971,2.971,0,0,1,.318-1.223,2.314,2.314,0,0,1,.888-.887,2.506,2.506,0,0,1,1.26-.335,2.185,2.185,0,0,1,1.2.335A20.708,20.708,0,0,1,9.148,21.9a6.144,6.144,0,0,1-1.305-2.35A2.48,2.48,0,0,1,8.95,16.826a2.224,2.224,0,0,1,1.137-.316,2.541,2.541,0,0,1,1.1.265,2.391,2.391,0,0,1,.457-1.6,3.106,3.106,0,0,1,.949-.857,2.4,2.4,0,0,1,1.189-.334,2.089,2.089,0,0,1,1.128.333,3.374,3.374,0,0,1,.561.469,3.16,3.16,0,0,1-.15-.933,2.49,2.49,0,0,1,.151-.88,2.264,2.264,0,0,1,1.291-1.3,2.352,2.352,0,0,1,.911-.176,2.672,2.672,0,0,1,1.7.6,2.314,2.314,0,0,1,.524-1.921,2.811,2.811,0,0,1,.924-.724,2.578,2.578,0,0,1,1.122-.269,2.173,2.173,0,0,1,1.94,1.211c.36.649.656,1.23.9,1.776l.1.23.011,0-.071-.168-.072-.168c-.074-.172-.153-.349-.23-.52l0,0a8.641,8.641,0,0,1-.78-2.283,3.4,3.4,0,0,1,.033-1.173,2.484,2.484,0,0,1,.442-.994,2.243,2.243,0,0,1,1.532-.853,2.151,2.151,0,0,1,.289-.019,2.632,2.632,0,0,1,1.959.92A2.643,2.643,0,0,1,28.1,6a2.531,2.531,0,0,1,.515-.922,2.341,2.341,0,0,1,1.751-.821A2.388,2.388,0,0,1,32,4.942a7.772,7.772,0,0,1,1.5,2.3c.11.22.223.447.338.664.139.261.282.526.421.782l0,0c.164.3.334.619.5.931.077-.092.161-.185.251-.277a38.15,38.15,0,0,1-1.1-4.159,2.766,2.766,0,0,1,.253-1.891,2.38,2.38,0,0,1,1.486-1.179,2.308,2.308,0,0,1,.616-.082,2.69,2.69,0,0,1,1.545.5,2.2,2.2,0,0,1,.9,1.328c.181.869.4,1.773.677,2.764a4.455,4.455,0,0,1,.512-.093c.015-.177.031-.351.048-.517l.066-.611.014-.129a9.845,9.845,0,0,1,1.011-4.05A2.33,2.33,0,0,1,43.067.08a2.531,2.531,0,0,1,1.665.626,2.263,2.263,0,0,1,.552.74,2.407,2.407,0,0,1,.219.987,9.146,9.146,0,0,1-.36,2.28c-.114.465-.232.946-.3,1.418-.07.494-.118,1.023-.145,1.617a48.234,48.234,0,0,1,1.345-5.316c.043-.141.088-.285.132-.424h0l0-.015.059-.187A2.622,2.622,0,0,1,47.155.489,2.459,2.459,0,0,1,48.643,0a2.724,2.724,0,0,1,.323.02A2.637,2.637,0,0,1,50.51.836a2.056,2.056,0,0,1,.613,1.63c-.024.223-.057.446-.1.662l.005,0h.005l-.028.08a4.134,4.134,0,0,1-.365,1.061c-.235.687-.458,1.37-.626,1.889.063,0,.125,0,.183,0a3.933,3.933,0,0,1,.72.065l.415-1.063.006-.016c.174-.444.353-.9.53-1.356.082-.209.156-.429.235-.661a5.081,5.081,0,0,1,1.013-2,2.829,2.829,0,0,1,2-.786,2.755,2.755,0,0,1,1.394.363A2.581,2.581,0,0,1,57.643,2a3.1,3.1,0,0,1,.125,1.734,1.948,1.948,0,0,1-1.059,1.341l-.056.029-.4.947a3.276,3.276,0,0,1,.386-.142,3.16,3.16,0,0,1,.632-.12c.507-.921,1.093-1.881,1.843-3.022a2.815,2.815,0,0,1,.964-.906,2.521,2.521,0,0,1,1.233-.33,2.389,2.389,0,0,1,1.223.338,2.692,2.692,0,0,1,1.2,1.725,2.134,2.134,0,0,1-.3,1.7c-.513.724-1.041,1.514-1.712,2.56a2.452,2.452,0,0,1,.28.065c.043-.058.088-.116.133-.171a12.709,12.709,0,0,1,1.727-1.68l.305-.262A4.867,4.867,0,0,0,64.857,5a3.431,3.431,0,0,1,1.186-1.149,2.641,2.641,0,0,1,1.174-.283,2.314,2.314,0,0,1,1.106.276,2.235,2.235,0,0,1,.855.831,2.647,2.647,0,0,1,.041,2.851,9.984,9.984,0,0,1-2.035,2.263l0,0c-.178.162-.347.315-.508.468A37.788,37.788,0,0,1,70.822,8c.973-.449,1.726-.768,2.441-1.036a3.615,3.615,0,0,1,1.268-.254,2.6,2.6,0,0,1,1,.2,3.56,3.56,0,0,1,.958.6,1.633,1.633,0,0,1,.479.818,1.612,1.612,0,0,1-.013.947,3.4,3.4,0,0,1-.805,1.289,3.049,3.049,0,0,1-1.337.723c-.364.1-.738.187-1.1.271-.415.1-.843.2-1.26.316a25.921,25.921,0,0,0-3.807,1.408,1.968,1.968,0,0,1,.251.182c.9-.291,1.838-.552,2.8-.776a36.04,36.04,0,0,1,4.741-.769l.53-.049.3-.03h.007c.592-.059,1.2-.12,1.807-.12A5.044,5.044,0,0,1,80.907,12a2.885,2.885,0,0,1,1.434,1.174,2.155,2.155,0,0,1,.305,1.1,1.854,1.854,0,0,1-.305,1.1A3.08,3.08,0,0,1,81.049,16.5a4.383,4.383,0,0,1-1.693.276c1.305.139,2.647.314,3.987.522.9.137,1.82.3,2.734.473l.454.089c.188.038.384.073.574.108h0a7.023,7.023,0,0,1,2.718.885,2.567,2.567,0,0,1,.985,1.174,2.187,2.187,0,0,1,.093,1.321,2.446,2.446,0,0,1-.77,1.267,2.783,2.783,0,0,1-1.505.667,3.408,3.408,0,0,1-.423.025,8.765,8.765,0,0,1-2.1-.36c-.317-.081-.616-.157-.911-.217-1.039-.21-2.111-.4-3.188-.566-.516-.081-1.059-.157-1.659-.232a23.067,23.067,0,0,1,3.337.718l.3.092A15.884,15.884,0,0,1,87.333,24.1a6.115,6.115,0,0,1,1.4,1.093,3.691,3.691,0,0,1,.857,1.475,1.951,1.951,0,0,1-.277,1.7,2.3,2.3,0,0,1-1.734.952c-.057,0-.115.005-.172.005a5.377,5.377,0,0,1-2.555-.9c-.185-.1-.376-.208-.564-.306a13.839,13.839,0,0,0-2.348-.939c-.823-.253-1.69-.472-2.576-.651A20.273,20.273,0,0,1,81.5,27.876l.315.234a16.906,16.906,0,0,1,2.906,2.566,5.324,5.324,0,0,1,.965,1.632,3.162,3.162,0,0,1,.092,1.827,2.069,2.069,0,0,1-.68,1.036,1.822,1.822,0,0,1-1.15.462c-.043,0-.086,0-.128-.006a3.834,3.834,0,0,1-1.97-.823,13.259,13.259,0,0,1-1.622-1.551,13.181,13.181,0,0,0-1.571-1.506c-.417-.316-.9-.648-1.429-.985a37.429,37.429,0,0,1,3.451,4.9,44.773,44.773,0,0,1,2.694,5.349,53.689,53.689,0,0,1,3.505,11.837c.337,1.928.579,3.892.739,6,.149,1.962.224,4.018.231,6.286v.268c.005,5.87-.17,10.3-.567,14.37a49.06,49.06,0,0,1-1.019,6.5,27.971,27.971,0,0,1-2.184,6.188,25.342,25.342,0,0,1-3.046,4.691,27.656,27.656,0,0,1-4,3.976,28.179,28.179,0,0,1-4.712,3.1,26.56,26.56,0,0,1-5.195,2.056A26.217,26.217,0,0,1,60.146,107.224ZM22.255,31.731h0a.58.58,0,0,0-.421.192A8.382,8.382,0,0,0,20.46,34.06a.621.621,0,0,0,.022.623.718.718,0,0,0,.584.34.532.532,0,0,0,.486-.322l.166-.332a6.619,6.619,0,0,1,.926-1.457l.085-.091a.591.591,0,0,0,.13-.664.686.686,0,0,0-.6-.425Zm-7.671-1.259a.729.729,0,0,0-.121.01c-.519.088-1.044.183-1.551.274s-1.029.186-1.545.273a.513.513,0,0,0-.455.581.7.7,0,0,0,.671.653.727.727,0,0,0,.121-.01c.517-.087,1.04-.182,1.547-.274s1.032-.187,1.55-.274a.513.513,0,0,0,.455-.581A.7.7,0,0,0,14.584,30.472Zm47.731-7.147a.59.59,0,0,0-.556.531.69.69,0,0,0,.064.428.62.62,0,0,0,.364.3A25.26,25.26,0,0,1,65.314,25.8a.66.66,0,0,0,.292.071.7.7,0,0,0,.654-.546.528.528,0,0,0-.308-.619,28,28,0,0,0-3.43-1.342A.655.655,0,0,0,62.315,23.325ZM14.387,21.669a.552.552,0,0,0-.515.489.68.68,0,0,0,.409.782l2.732,1.1a.621.621,0,0,0,.23.048.552.552,0,0,0,.515-.488.68.68,0,0,0-.409-.782l-2.732-1.1A.62.62,0,0,0,14.387,21.669Zm57.25-3.1h0a.633.633,0,0,0-.576.481.653.653,0,0,0,0,.385.618.618,0,0,0,.263.333c.159.1.334.194.5.283a4.06,4.06,0,0,1,.75.463l.076.068a.609.609,0,0,0,.421.178.7.7,0,0,0,.626-.439.559.559,0,0,0-.153-.635,4.849,4.849,0,0,0-1.02-.682c-.154-.085-.313-.173-.465-.267l-.1-.063a.6.6,0,0,0-.326-.1ZM24.773,76.017a1.064,1.064,0,0,1-.849-.535,9.021,9.021,0,0,0-5.153-4.305.059.059,0,0,1-.035-.059.038.038,0,0,1,.035-.036,6.129,6.129,0,0,1,.937-.072,6.277,6.277,0,0,1,1.763.257,7.244,7.244,0,0,1,1.627.71A9.354,9.354,0,0,1,25.773,74.4a1.1,1.1,0,0,1-.169,1.3.986.986,0,0,1-.741.313l-.016,0A.578.578,0,0,1,24.773,76.017Z" transform="translate(1.265 0.211)"/>
  </g>
  <g id="FACE" transform="translate(112.183 77.354)">
    <path id="teeth" d="M.41,2.821C2.1-.561,17.6.959,17.6.959l1.31,10.749s-7.481,2.406-11.934,1.9S-1.281,6.2.41,2.821Z" transform="translate(19.414 44.682)" fill="#fff"/>
    <path id="tongue" d="M.019,2.865C-.517,1.719,10.568-1.407,14,.729s2.359,5.05,2.359,5.05S1.924,9.072.019,2.865Z" transform="translate(20.897 50.283)" fill="#ff8181"/>
    <path id="_Ink-3" data-name="ðŸ– Ink" d="M15.572,47.1a15.123,15.123,0,0,1-5.254-.9A9.879,9.879,0,0,1,6,43.187a8.61,8.61,0,0,1-1.9-4.961,7.4,7.4,0,0,1,.338-2.618,6.8,6.8,0,0,1,1.325-2.364,7.672,7.672,0,0,1,3.242-2.2,11.363,11.363,0,0,1,3.892-.631,16.832,16.832,0,0,1,3.42.368c.9.187,1.8.427,2.679.659a32.867,32.867,0,0,0,4.245.926,22.028,22.028,0,0,0,2.791.165c.172,0,.348,0,.525,0,.472-.009.952-.056,1.416-.1.515-.05,1.046-.1,1.568-.1.094,0,.187,0,.275.005a.169.169,0,0,1,.16.128.165.165,0,0,1-.075.186,8.378,8.378,0,0,1-2.521.968,22.346,22.346,0,0,1-2.723.417,3.164,3.164,0,0,0,.031.364c.055.33.1.6.127.86.076.622.162,1.253.246,1.863l.012.088c.057.415.1.841.145,1.254a19.591,19.591,0,0,0,.393,2.6l.054.209a1.932,1.932,0,0,1,.064.717l.071-.032.226-.109.148-.07a3.329,3.329,0,0,1,1.445-.383c.08,0,.162,0,.244.012a1.059,1.059,0,0,1,.626.27.84.84,0,0,1,.266.622,2.281,2.281,0,0,1-.5,1.447,3.886,3.886,0,0,1-1.238.987,13.544,13.544,0,0,1-3.089,1.053l-.068.017-.523.129a37.656,37.656,0,0,1-6.925,1.156C16.136,47.09,15.852,47.1,15.572,47.1Zm-1.242-7.01h0a12,12,0,0,0-3.516.626A4.186,4.186,0,0,0,8.854,41.72a.11.11,0,0,0,.024.13,7.641,7.641,0,0,0,3.086,1.786,12.045,12.045,0,0,0,3.573.5,18.488,18.488,0,0,0,2.5-.18,40.886,40.886,0,0,0,4.748-.981,3.23,3.23,0,0,0-1.135-2.207,3.282,3.282,0,0,0-2.072-.708,3.419,3.419,0,0,0-1.565.371A2.709,2.709,0,0,0,16.879,41.5a1.475,1.475,0,0,0-.858-1.1,3.868,3.868,0,0,0-1.69-.314Zm-.806-6.705h0a9.988,9.988,0,0,0-2.562.3,6.312,6.312,0,0,0-2.293,1.111,3.79,3.79,0,0,0-1.42,2.315c1.889-.28,3.934-.522,6.25-.738l.57-.052c1.3-.117,2.621-.243,3.921-.373l.929-.094.928-.1c.253-.027,1.584-.1,2.378-.1a3.913,3.913,0,0,1,.564.026c.012-.1.024-.227.039-.374a9.747,9.747,0,0,1,.156-1.165c-.253.009-.51.013-.765.013a29.552,29.552,0,0,1-3.911-.283l-.274-.037-1.077-.155-.424-.058a23.074,23.074,0,0,0-3.009-.239ZM23.071,27.1h0a7.374,7.374,0,0,1-2.63-.53,13.282,13.282,0,0,1-3.093-1.756,1.189,1.189,0,0,1-.432-.687,1.423,1.423,0,0,1,.061-.771A1.754,1.754,0,0,1,17.5,22.6a1.267,1.267,0,0,1,.811-.317,1.151,1.151,0,0,1,.628.193l.21.162h0a16.743,16.743,0,0,0,1.936,1.347,4.768,4.768,0,0,0,2.321.74,2.505,2.505,0,0,0,.981-.193,2.741,2.741,0,0,0,.913-.647,2.956,2.956,0,0,0,.585-1.572l-.04.021-.033.019-.027.015V22.32l.076-.028.024-.008c0,.008,0,.016,0,.024v.01l.037-.02.026-.016c.014-.009.021-.015.021-.018l0,0a.373.373,0,0,0-.077.021,3.555,3.555,0,0,0-.961-2.395,8.039,8.039,0,0,0-1.935-1.636.531.531,0,0,1-.143-.61.8.8,0,0,1,.264-.38.809.809,0,0,1,.505-.167,1.076,1.076,0,0,1,.182.016,5.736,5.736,0,0,1,2.018.729,4.577,4.577,0,0,1,1.357,1.252,4.974,4.974,0,0,1,.866,3.322,5.475,5.475,0,0,1-.444,1.744,5.087,5.087,0,0,1-1,1.5A4.779,4.779,0,0,1,23.071,27.1ZM8.139,17.866a1.812,1.812,0,0,1-1.177-.456,3.617,3.617,0,0,1-.849-1.1,6.283,6.283,0,0,1-.7-2.585v-.048a7.1,7.1,0,0,1,.637-2.718,2.513,2.513,0,0,1,2.09-1.707c.563,0,1.062.455,1.444,1.317a8.791,8.791,0,0,1,.631,2.936l0,.088a8.33,8.33,0,0,1-.168,1.946,3.842,3.842,0,0,1-.837,1.855A1.447,1.447,0,0,1,8.139,17.866Zm23.1-.423a1.45,1.45,0,0,1-1.086-.487,3.823,3.823,0,0,1-.84-1.916,8.173,8.173,0,0,1-.148-1.96l.011-.162a8.534,8.534,0,0,1,.647-2.833c.378-.823.868-1.258,1.417-1.258a2.513,2.513,0,0,1,2.09,1.707,7.1,7.1,0,0,1,.637,2.718V13.3a6.283,6.283,0,0,1-.7,2.585,3.617,3.617,0,0,1-.849,1.1A1.812,1.812,0,0,1,31.239,17.444ZM1.188,9.159H1.177a1.037,1.037,0,0,1-.8-.391A2.665,2.665,0,0,1,.052,6.8,8.461,8.461,0,0,1,.824,4.48a9.332,9.332,0,0,1,1.37-2.023A7.516,7.516,0,0,1,4.147.876,7,7,0,0,1,6.519.06,5.406,5.406,0,0,1,7.329,0a4.988,4.988,0,0,1,2.1.438,3.367,3.367,0,0,1,.877.585,2.751,2.751,0,0,1,.624.863,1.142,1.142,0,0,1-.034,1.07,1.02,1.02,0,0,1-.856.481c-.212.01-.441.015-.7.015-.234,0-.465,0-.689-.008H8.649c-.219,0-.446-.007-.667-.007A7.943,7.943,0,0,0,6.207,3.6a4.532,4.532,0,0,0-1.718.792A8.778,8.778,0,0,0,2.562,6.5l-.2.295-.167.243A2.828,2.828,0,0,0,1.541,8.8a.322.322,0,0,1-.091.24A.366.366,0,0,1,1.188,9.159ZM36.747,7.712a1.309,1.309,0,0,1-.739-.214,3.616,3.616,0,0,1-1.077-1.307,6.108,6.108,0,0,0-.587-.881A6.3,6.3,0,0,0,30.356,3.27l-.126-.012c-.086-.007-.218-.012-.362-.012a6.883,6.883,0,0,0-1.145.091,1.35,1.35,0,0,0-.876.391.366.366,0,0,0-.028.358.145.145,0,0,1-.015.138.208.208,0,0,1-.166.086.153.153,0,0,1-.117-.05.982.982,0,0,1-.263-.818,2.31,2.31,0,0,1,1.061-1.426,6.039,6.039,0,0,1,3.235-.889c.177,0,.356.007.531.021A8.688,8.688,0,0,1,35,1.991,7.216,7.216,0,0,1,37.565,3.95a3.742,3.742,0,0,1,.642,1.229,3.026,3.026,0,0,1,.072,1.4A1.539,1.539,0,0,1,36.747,7.712Z" transform="translate(13.098 12.258)"/>
  </g>
</svg>
