<svg id="peep-13" xmlns="http://www.w3.org/2000/svg" width="240" height="324" viewBox="0 0 240 324">
  <g id="BODY" transform="translate(31.056 135.053)">
    <path id="_Skin" data-name="âœ‹ Skin" d="M10.07,157.667c27.6,4.194,55.7,4.4,83.533,2.882a194.276,194.276,0,0,1,33.068.081c6.5.484,35.016,2.664,37.345-3.163-1.466-31.027-4.436-62.319-13.546-92.159-3.746-10.6-6.964-19.39-14.276-28.158-2.3-2.394-7.274-7.415-10.122-9.052-2.467-1.418-3.5-.912-4.915-3.308-1.408-2.647-2.446-7.067-4.445-8.934-2.035-1.9-5.051-1.221-8.79-.609.687-9.285-3.6-11.649-9.5-13.415C88.049-2.129,77.8-.14,75.193,12.494c-4.841,0-7.561,2.084-10.5,4.087-1.2.819-.366,2.9-1.8,3.548-2.656.946-7.349.714-9.907,1.879C41.355,27.3,31,34.979,24.2,46.192,8.946,70.131-1.529,120.558.283,148.931c-.794,1.246.3,3.032.583,4.372a2.55,2.55,0,0,0,2.684,1.808C5.213,156.9,7.783,157.3,10.07,157.667Z" transform="translate(6.338 -6.763)" fill="#d08b5b"/>
    <path id="_Top" data-name="ðŸ‘• Top" d="M67.493,2.777A9.532,9.532,0,0,1,74.385,0l.118,0,.857.038-.573,2.812-.029.133-.117.488-.156.639-.055.235-.058.26-.027.125-.026.123-.244,1.195.046.106-.013.271c-.038.981.173,1.521.639,1.694l.037.013.266.085.217.47c.5,1.076.964,2.016,1.442,2.9a65.207,65.207,0,0,0,4.971,7.755q2.731,3.7,5.689,7.049c.887,1,1.823,2.012,2.82,3.039l.858.879.273.276.184.183.229.224.33.315.239.235.078.074a1.77,1.77,0,0,0,.241.2l.025.016.075.045L96.7,36.065l1.405.773.667.37.135-.269.027-.086,1.479-3.248.9-1.989c1.853-4.093,3.295-7.349,4.613-10.449l.164-.387.486-1.154.257-.615c1.178-2.825,2.049-5.005,2.828-7.124l.111-.3.164-.453.244-.683.044-.117c.212-.542-.308-2.512-.82-3.591l-.029-.06-.133-.267-.144-.282a9.764,9.764,0,0,1-.79-2.283q-.05-.216-.094-.434l-.043-.22-.027-.144-.038-.2-.054-.289,1.146-.192.629-.1.274-.043c.355-.055.671-.1.969-.138l.111-.014.2-.024.007.039.409.04.3.031a29.571,29.571,0,0,1,3.467.526l.081.019.146.037.067.018a3.119,3.119,0,0,1,1.773,1.273,7.362,7.362,0,0,1,.834,1.654l.115.287.381.942q.067.172.207.55l.323.88,1.62,4.475,1.658.872c.771.4,1.334.694,1.612.832l.1.048.071.032.571.227-.061.178.069.039c6.824,3.927,12.087,9.969,16.185,17.989l.124.244.127.252c3.266,6.533,5.605,13.824,7.889,23.557l.141.605.111.481.6,2.6c2.238,9.807,3.775,17.121,5.048,24.3l.083.468.212,1.219q2.4,13.932,4.007,27.606l.178,1.534c.447,3.916.85,7.964,1.288,12.825l.059.653.193,2.183q.308,3.529.563,7.044l.083,1.171.171,2.546.1,1.451.012.2.041.756.011.177c.015.227.033.419.055.6l.017.13.019.127a3.134,3.134,0,0,0,.353,1l.048.087.317.567-.575.3c-3,1.58-8.9,2.275-17,2.311h-.752c-3.934,0-8.1-.154-12.454-.413l-.984-.06-.821-.052-1.055-.071-.548-.038-2.288-.167a192.825,192.825,0,0,0-32.972-.079c-31,1.7-57.758.981-82.908-2.775l-.762-.115-.561-.091-.335-.056c-2.668-.456-4.343-1.04-5.65-2.265l-.068-.065-.057-.056H3.352a3.194,3.194,0,0,1-2.968-2.137l-.023-.068-.029-.095-.02-.094c-.021-.091-.047-.19-.078-.3l-.025-.083L0,140.267l.7-.128A.3.3,0,0,0,.884,140l.058-.083.1-.14.244-.334a2.671,2.671,0,0,0,.451-.823,3,3,0,0,0,.071-.827l0-.177-.028-.642c0-.052,0-.1,0-.14v-.969l0-.994c0-.434,0-.857.007-1.272l.006-.618.006-.5q.051-4.13.242-8.251.375-8.044,1.285-16.051A242.17,242.17,0,0,1,9.1,76.164l.262-1.031a173.453,173.453,0,0,1,9-27.4c4.4-10,9.759-18.234,16.51-24.814a54.356,54.356,0,0,1,12.19-9.015,52.993,52.993,0,0,1,6.434-2.893l.328-.122.53-.194.406-.15,1.309-.489c.275-.1.575-.219.929-.358l.219-.087,2.345-.936.389-.153.433-.168.318-.122c.52-.2.991-.372,1.429-.524l.258-.089.235-.079,1-.346-.02.911A1.757,1.757,0,0,0,64.094,9.5l.012.01.012.01.011.007.061,0h.236a.412.412,0,0,0,.069-.047c.337-.286.493-.669.645-1.549l.04-.245.07-.458.028-.173a4.984,4.984,0,0,1,.361-1.333,7.848,7.848,0,0,1,.961-1.6L66.689,4l.36-.433L67.1,3.5a1.091,1.091,0,0,0,.218-.381l.006-.028.036-.182Z" transform="translate(6.338 4.851)" fill="#ffcf77"/>
    <path id="_Ink" data-name="ðŸ– Ink" d="M165.324,152.975a1.642,1.642,0,0,1-1.347-.714l-.164-.252a4.681,4.681,0,0,1-.8-1.842,13.807,13.807,0,0,1-.131-1.492c-.011-.213-.022-.433-.038-.647-.052-.724-.1-1.454-.148-2.16v-.017c-.038-.565-.076-1.149-.117-1.723-.19-2.714-.407-5.474-.645-8.2-.739-8.463-1.242-13.084-1.6-16.165-1.078-9.347-2.465-18.963-4.12-28.583-1.638-9.518-3.714-18.89-5.714-27.6l-.218-.948c-1.111-4.828-2.146-8.723-3.255-12.258A82.79,82.79,0,0,0,142.3,38.358a56.684,56.684,0,0,0-3.135-5.556,45.354,45.354,0,0,0-3.772-5.062,38.288,38.288,0,0,0-4.5-4.425,35.1,35.1,0,0,0-5.314-3.644.131.131,0,0,1-.07-.152.155.155,0,0,1,.22-.1,38.64,38.64,0,0,1,10.854,7.7,49.594,49.594,0,0,1,8.029,10.664A74.006,74.006,0,0,1,150.2,50.534c1.584,4.646,2.831,9.389,3.843,13.415l.081.323c2.186,8.727,4.237,18.193,6.271,28.938.908,4.8,1.757,9.765,2.522,14.769.736,4.813,1.419,9.807,2.028,14.846.656,5.423,1.159,10.245,1.536,14.74.206,2.459.4,4.944.562,7.385.078,1.138.137,2.077.185,2.956l.039.74c.005.106.012.214.018.318a5.523,5.523,0,0,1-.071,1.687,6.247,6.247,0,0,1-.568,1.335c-.044.085-.094.181-.142.276A1.282,1.282,0,0,1,165.324,152.975Zm-129.375-.492a1.11,1.11,0,0,1-.7-.274l-.132-.1-.093-.073,0,0a3.112,3.112,0,0,1-.992-1.069,6,6,0,0,1-.513-2.367l0-.02c-.076-.948-.056-1.921-.036-2.862.006-.3.013-.608.016-.914.025-2.5.061-5.038.1-7.551.177-10.1.526-19.149,1.066-27.675.288-4.539.674-8.918,1.148-13.016l.1-.81c.073-.615.144-1.24.212-1.843.075-.661.152-1.344.234-2.021A28.466,28.466,0,0,1,30.237,86a.181.181,0,0,1-.02-.194.167.167,0,0,1,.144-.1.16.16,0,0,1,.115.054,22.236,22.236,0,0,0,2.865,2.5,23.967,23.967,0,0,0,3.225,1.98A36.937,36.937,0,0,1,38.4,82.3a.215.215,0,0,1,.2-.134.16.16,0,0,1,.163.134,38.843,38.843,0,0,1,.676,7.144q.007.22.014.44c.072,2.192.086,4.587.043,7.538-.1,7.151-.283,14.415-.456,21.44l0,.093c-.049,2.009-.1,4.087-.149,6.13-.1,4.062-.206,8.884-.291,13.841-.029,1.7-.055,3.448-.076,5.191l-.025,2.282a27.85,27.85,0,0,1-.162,3.014,4.291,4.291,0,0,1-.62,1.864,2.639,2.639,0,0,1-.757.712c-.077.055-.156.111-.233.17l-.067.052A1.133,1.133,0,0,1,35.949,152.483ZM96.271,151a.429.429,0,0,1-.451-.34,74.624,74.624,0,0,1-.7-9.749v-.023c-.013-.46-.026-.935-.04-1.4l-.024-.745c-.139-4.042-.2-8.08-.188-12,.042-11.765.306-23.721.561-35.284v0l0-.072c.053-2.421.109-4.925.161-7.387.041-1.921.079-3.874.115-5.764v-.051c.1-5.133.2-10.441.375-15.662.129-3.892.263-7.405.411-10.739l.014-.307v0c.065-1.469.132-2.988.232-4.481l.048-.684c.016-.221.031-.443.046-.658v0c.015-.216.03-.44.046-.661a2.464,2.464,0,0,1-.848.15,5.653,5.653,0,0,1-2.589-.932c-.2-.112-.414-.228-.619-.334l-1.228-.632-.091-.047c-1.032-.532-2.1-1.081-3.164-1.628l-1.5-.766L83.848,39.26l-.335-.173h0a4.9,4.9,0,0,0-2.2-.757,2.6,2.6,0,0,0-1.29.365A73.807,73.807,0,0,0,65.766,49.53a1.8,1.8,0,0,1-1.228.454,1.761,1.761,0,0,1-1-.294,1.32,1.32,0,0,1-.557-.9,37.385,37.385,0,0,1-.414-3.966c-.067-1.248-.084-2.55-.052-3.982.059-2.657.282-5.355.5-7.963l0-.042q.036-.434.071-.867l.168-2.076c.182-2.215.411-4.83.723-7.428l.014-.113v0c.126-1.048.256-2.131.4-3.195l.112-.827c.033-.238.065-.48.1-.714v-.006a18.768,18.768,0,0,1,.595-3.138.9.9,0,0,1-.347-.205,2.482,2.482,0,0,1-.675-2.1,7.773,7.773,0,0,1,.6-2.258,10.007,10.007,0,0,1,2.338-3.421,1.278,1.278,0,0,1,.84-.359,12.6,12.6,0,0,1,2.715-1.388,8.549,8.549,0,0,1,2.863-.517,7.7,7.7,0,0,1,2.328.363c.1-.454.17-.8.242-1.121l.086-.372c.047-.2.087-.429.13-.671a9.689,9.689,0,0,1,.306-1.347A2.139,2.139,0,0,1,77.279.023.1.1,0,0,1,77.341,0a.064.064,0,0,1,.05.023A2.765,2.765,0,0,1,77.8,1.865c0,.129,0,.251,0,.372l0,.069c.031.942.043,1.941.039,3.241L77.836,8.99c0,.175-.006.356-.012.532-.009.3-.019.611,0,.911l.013.184a1.135,1.135,0,0,1,.3,1.049,1.487,1.487,0,0,1-.66,1.182l.819,1.163.82,1.162c2.047,2.9,3.644,5.1,5.179,7.106,1.755,2.3,3.7,4.608,5.78,6.865,1.064,1.155,2.055,2.193,3.028,3.171.29.292.589.583.879.864l.394.383.422.418c.058.058.117.114.18.173h0a2.583,2.583,0,0,1,.548.639,1.93,1.93,0,0,1,.117.515,1.171,1.171,0,0,0,.038.207,1.2,1.2,0,0,1-.1,1.1.8.8,0,0,1-.678.4.906.906,0,0,1-.327-.065l.04-.027c.053-.037.077-.062.073-.075s-.013-.011-.032-.011a1.7,1.7,0,0,0-.352.081,1.412,1.412,0,0,1-.654-.16l-.061-.033a2.874,2.874,0,0,1-.656-.536l-.119-.117-.058-.055c-.451-.423-.891-.874-1.316-1.31l-.235-.241c-1.126-1.151-2.145-2.244-3.115-3.342-1.967-2.227-3.892-4.613-5.724-7.092a66.179,66.179,0,0,1-5.019-7.83c-.5-.935-1-1.937-1.56-3.154a1.454,1.454,0,0,1-.938-.919,3.8,3.8,0,0,1-.172-1.547,14.28,14.28,0,0,1-.857-2.514.141.141,0,0,1,.131-.166.111.111,0,0,1,.084.041,13.833,13.833,0,0,1,.86,1.1c.094-.461.2-.9.3-1.28v0c.07-.283.13-.528.172-.728l.423-2.077c-.133-.007-.27-.011-.408-.011a9.02,9.02,0,0,0-3.386.684,8.33,8.33,0,0,0-2.847,1.9,2.158,2.158,0,0,1-.566.942h0c-.065.077-.133.157-.2.241a7.3,7.3,0,0,0-.966,1.573,6.361,6.361,0,0,0-.382,1.61,3.659,3.659,0,0,1-.931,2.374,1.054,1.054,0,0,1-.365.2,27.39,27.39,0,0,1,.3,6.029v0c-.014.576-.028,1.172-.03,1.745v.223c0,2.961-.1,5.941-.2,8.5l-.111,2.8a82.783,82.783,0,0,0,.125,11.192c1.654-1.466,3.385-2.88,5.144-4.205,1.158-.872,2.358-1.727,3.565-2.54l.984-.658.041-.028a24.084,24.084,0,0,1,3.635-2.143,5.045,5.045,0,0,1,2.063-.443,6.753,6.753,0,0,1,2.86.716c1.113.519,2.219,1.1,3.289,1.669h0c.491.259,1,.528,1.5.785,1.237.637,2.493,1.278,3.707,1.9l.174.089.982.5c.26.133.547.262.851.4a6.723,6.723,0,0,1,2.585,1.657c.052-.233.112-.458.177-.669a1.478,1.478,0,0,1,.142-1.054c2.577-4.737,4.934-9.516,7.528-14.824.6-1.233,1.2-2.493,1.779-3.712l0-.006c.6-1.269,1.224-2.582,1.854-3.866l1.2-2.451c.241-.491.427-.869.6-1.224s.357-.708.532-1.053c.129-.252.262-.513.391-.77.06-.119.128-.24.194-.358v0c.076-.135.154-.274.221-.412l.06-.13c0-.006.219-.687.134-.818a.043.043,0,0,0-.038-.021.077.077,0,0,0-.027.006l-.019.009a.116.116,0,0,1-.057.016.1.1,0,0,1-.09-.06.119.119,0,0,1,.015-.127.41.41,0,0,1,.323-.173.816.816,0,0,1,.618.492c.4.8-.1,1.949-.5,2.875-.1.235-.2.457-.268.652l-.019.053c-1.124,3.183-2.391,6.275-3.593,9.143-2.319,5.534-4.845,11.08-7.288,16.444l-.348.765-.031.1c.316-.243.645-.472.962-.694h0c.243-.17.473-.33.691-.492,1.3-.967,2.69-1.913,3.912-2.749,2.218-1.516,4.641-3.042,7.406-4.666l.5-.3a11.135,11.135,0,0,1,1.629-.812,4.854,4.854,0,0,1,1.738-.341,4.326,4.326,0,0,1,.629.046,11.228,11.228,0,0,1,3.283,1.236c.213.106.432.216.646.319l.129.062,3.871,1.841c-.379-1.514-.814-3.127-1.329-4.931-.9-3.145-1.909-6.34-3-9.5-.98-2.827-2.052-5.675-3.277-8.708l-.35-.863-.038-.1-.011-.029a8.252,8.252,0,0,0-.806-1.657A2.516,2.516,0,0,0,115.828,8.1a5.84,5.84,0,0,0-1.517-.145h-.405a4.035,4.035,0,0,1-2.22-.451.165.165,0,0,1-.073-.166.147.147,0,0,1,.111-.123l.763-.192a13.887,13.887,0,0,1,3.234-.509,5.006,5.006,0,0,1,1.234.141,4.781,4.781,0,0,1,1.989,1.11,6.966,6.966,0,0,1,1.42,1.792,29.281,29.281,0,0,1,1.612,3.666c.113.293.23.6.348.894l.1.24c.7,1.745,1.372,3.5,2,5.214,1.257,3.447,2.43,7.015,3.486,10.6.481,1.636.955,3.331,1.448,5.182.069.261.162.55.26.856v0c.091.282.184.574.27.875a5.012,5.012,0,0,1,.583.68.726.726,0,0,1,.131.561.979.979,0,0,1-.422.614,2.243,2.243,0,0,1-.341,1.191,1.871,1.871,0,0,1-1.574.829,1.666,1.666,0,0,1-1.213-.486,1.528,1.528,0,0,1-.392-1.165,1.449,1.449,0,0,1,.29-.776l0-.037-.019-.067c-.238-.114-.472-.233-.719-.359h0c-.176-.09-.358-.183-.543-.274L121.592,35.8c-.314-.155-.63-.329-.966-.514a9.492,9.492,0,0,0-2.824-1.189,2.189,2.189,0,0,0-.364-.03,5.812,5.812,0,0,0-2.625.97c-.2.111-.384.215-.566.311l-.068.035c-2.772,1.421-5.493,2.882-7.555,4-.711.384-1.429.784-2.122,1.171l-.009.005c-.5.277-1.01.563-1.517.841-.28.153-.56.322-.856.5h0a10.108,10.108,0,0,1-2.406,1.177,1.233,1.233,0,0,1-.771.271,1.469,1.469,0,0,1-.766-.23A23.857,23.857,0,0,1,98.4,46.1c.011.341.023.693.04,1.041.073,1.494.095,3.016.116,4.488,0,.308.009.627.014.94l.012.678c.074,3.83.117,7.756.133,12,.035,9.078-.018,18.307-.068,27.233-.029,5.083-.059,10.339-.072,15.511-.016,6.261-.123,12.885-.346,21.477-.082,3.169-.261,6.352-.422,9.088l-.1,1.651c-.029.495-.058,1-.085,1.484a69.959,69.959,0,0,1-.89,8.96A.447.447,0,0,1,96.271,151Zm6.5-.51a2.192,2.192,0,0,1-.569-.077,2.144,2.144,0,0,1-1.5-2.636l.052-.124a2.206,2.206,0,0,1,1.537-1.538,2.175,2.175,0,0,1,.577-.077,2.192,2.192,0,0,1,2.134,1.639,2.2,2.2,0,0,1-1.462,2.661l-.079.024-.124.052A2.195,2.195,0,0,1,102.771,150.487Zm44.492-4.65a3.718,3.718,0,0,1-.559-.048,1.589,1.589,0,0,1-1.051-.718,2.448,2.448,0,0,1-.419-1.214c-.235-4.922-.557-10.118-.986-15.883-.463-6.225-.813-12.565-1.15-18.7v-.014c-.171-3.1-.348-6.312-.537-9.466l-.2-3.282c-.194-3.231-.406-6.987-.472-10.676-.019-1.069,0-2.155.012-3.2.018-1.269.037-2.581-.005-3.87-.012-.368-.029-.75-.045-1.119a21.455,21.455,0,0,1,.233-5.561.1.1,0,0,1,.1-.072.087.087,0,0,1,.082.048,14.763,14.763,0,0,1,1.058,3.356c1.232-1.558,2.562-3.219,3.945-4.808a.137.137,0,0,1,.1-.052.167.167,0,0,1,.136.083.162.162,0,0,1,.009.161c-1.195,2.343-2.512,4.642-3.787,6.865.1.607.2,1.235.324,1.85.176.9.368,1.806.554,2.683v0c.347,1.635.706,3.326.967,5.019,1.508,9.751,2.256,19.68,2.839,28.222.63,9.229.725,18.623.818,27.708l.007.7a2.09,2.09,0,0,1-.414,1.216,1.722,1.722,0,0,1-1.056.716A2.751,2.751,0,0,1,147.264,145.836Zm-145.41-.748a.962.962,0,0,1-.766-.418l-.148-.2-.023-.031a3.485,3.485,0,0,1-.883-1.818C-.01,142.071,0,141.5.007,140.947c0-.241.007-.489.006-.733-.006-1.444.008-2.975.045-4.819.062-3.061.184-6.166.363-9.23.371-6.319.987-12.595,1.831-18.652.76-5.456,1.725-10.977,2.866-16.41,1.134-5.4,2.471-10.839,3.974-16.178,1.6-5.683,3.159-10.6,4.765-15.02a124.643,124.643,0,0,1,6.23-14.463c1.139-2.221,2.352-4.365,3.6-6.37,1.322-2.116,2.724-4.139,4.17-6.012a63.7,63.7,0,0,1,4.78-5.522,55.877,55.877,0,0,1,5.434-4.9,52.9,52.9,0,0,1,5.609-3.863A49.171,49.171,0,0,1,49.76,15.7a32.157,32.157,0,0,1,6.611-2.036,32.77,32.77,0,0,1,4.486-.406c.733-.032,1.491-.065,2.242-.124h.013a.115.115,0,0,1,.12.116.151.151,0,0,1-.132.163,27.2,27.2,0,0,0-6.275,1.8l-.006,0c-.347.13-.706.265-1.057.393l-.2.074a52.81,52.81,0,0,0-7.008,3.1A53.629,53.629,0,0,0,36.5,27.686a63.78,63.78,0,0,0-5.011,5.5,71.839,71.839,0,0,0-4.352,5.995c-1.307,2.007-2.574,4.16-3.764,6.4-1.124,2.115-2.216,4.376-3.246,6.718a138.446,138.446,0,0,0-5.223,14.046c-1.332,4.209-2.6,8.748-4,14.283C9.6,85.788,8.448,91.127,7.483,96.5c-.939,5.229-1.728,10.634-2.346,16.063-.6,5.294-1.033,10.681-1.282,16.009-.127,2.725-.208,5.493-.242,8.229-.016,1.271-.022,2.65-.021,4.217,0,.178.009.366.018.564a5.066,5.066,0,0,1-.075,1.516,4.035,4.035,0,0,1-.709,1.247c-.082.112-.16.218-.234.325A.893.893,0,0,1,1.854,145.088Zm101.018-12.279-.116,0-.068,0,.041.005-.071-.008c-.067-.006-.134-.013-.2-.022l-.058-.007-.078-.009c-.03,0-.054,0-.077,0l-.053,0c-.037,0-.076.005-.114.005a2.006,2.006,0,0,1-1.288-.586,1.936,1.936,0,0,1-.431-.644,1.6,1.6,0,0,1-.149-.758l.02-.19a2.169,2.169,0,0,1,.2-.771,2.344,2.344,0,0,1,.569-.825,2.539,2.539,0,0,1,1.732-.705h.019a2.231,2.231,0,0,1,1.17.306l.458.355c.117.151.239.308.371.48a2.047,2.047,0,0,1,.265,1.424,1.67,1.67,0,0,1-.265.83l-.349.452a2.986,2.986,0,0,1-1.021.6A1.617,1.617,0,0,1,102.872,132.809Zm-.064-24.094a2.166,2.166,0,0,1-.87-.177,2.273,2.273,0,0,1-1.047-.864l-.041-.067c-.017-.027-.033-.055-.049-.084l-.022-.043a2.332,2.332,0,0,1,.35-2.713,2.059,2.059,0,0,1,1.546-.638,2.494,2.494,0,0,1,1.167.287,2.8,2.8,0,0,1,.457.334h0l.121.1a2.264,2.264,0,0,1,.666,1.608,2.037,2.037,0,0,1-.175.869,2.3,2.3,0,0,1-.491.74l-.1.093a1.851,1.851,0,0,1-.907.492A3.384,3.384,0,0,1,102.808,108.715Zm-.96-22.851a2.112,2.112,0,0,1-.561-.075,2.153,2.153,0,0,1-1.5-1.5L99.744,84a2.563,2.563,0,0,1,.048-1.1,2.991,2.991,0,0,1,.262-.655,2.324,2.324,0,0,1,.607-.7,2.588,2.588,0,0,1,.824-.42,1.806,1.806,0,0,1,.54-.085,1.774,1.774,0,0,1,.387.043,2.279,2.279,0,0,1,1.1.458,1.172,1.172,0,0,1,.417.417,1.759,1.759,0,0,1,.416.791l.083.618-.083.618-.234.556-.195.252a2.6,2.6,0,0,1-.809.675A2.174,2.174,0,0,1,101.848,85.864ZM132.923,67.12a9.27,9.27,0,0,1-1.034-.079c-.216-.025-.439-.05-.654-.065-1.094-.073-2.214-.136-3.328-.186-2.314-.1-4.424-.158-6.451-.167l-1.031,0c-1.644,0-3.414.016-5.411.048-.61.01-1.238.033-1.845.056-.819.031-1.666.062-2.5.062a22.079,22.079,0,0,1-2.289-.105.28.28,0,0,1-.259-.245.262.262,0,0,1,.188-.28,28.591,28.591,0,0,1,5.807-1.123l.687-.085c2.146-.271,4.384-.475,6.65-.606,2.426-.139,4.672-.214,6.867-.23.341,0,.688,0,1.031,0,.538,0,1.087,0,1.631.009l.665.009c.146,0,.288,0,.426,0a3.386,3.386,0,0,1,2.52.674,1.036,1.036,0,0,1,.359.861,1.435,1.435,0,0,1-.607,1.066A2.376,2.376,0,0,1,132.923,67.12Zm-31.3-5.325h-.073a2.318,2.318,0,0,1-1.169-.317l-.469-.363a2.325,2.325,0,0,1-.6-1.023l-.083-.616a2.4,2.4,0,0,1,2.244-2.319l.073,0a2.307,2.307,0,0,1,1.1.276l.073.041.469.362a2.326,2.326,0,0,1,.6,1.023l.083.616a2.4,2.4,0,0,1-2.244,2.32ZM109.9,13.884h-.055a2.2,2.2,0,0,1-1.474-.625,3.745,3.745,0,0,1-.861-1.415,13.25,13.25,0,0,1-.606-3.391,9.657,9.657,0,0,1,.245-3A8.269,8.269,0,0,1,108.352,2.7a.657.657,0,0,1,.552-.322.771.771,0,0,1,.58.3.631.631,0,0,1,.143.527,22.909,22.909,0,0,0,.489,4.819,9.145,9.145,0,0,0,.737,2.137l.144.283a2.481,2.481,0,0,1,.191,2.673,1.723,1.723,0,0,1-.549.552A1.41,1.41,0,0,1,109.9,13.884Z" transform="translate(5.07 0.962)"/>
  </g>
  <g id="HEAD" transform="translate(78.592 38.043)">
    <path id="_Skin-2" data-name="âœ‹ Skin" d="M72.7,9.843C66.36,1.1,54.694-1.414,44.577.713,24.8,4.327,5.9,19.455,2.406,40.029-3.047,52.475.435,72.08,16.292,73.545c2.258.128,4.494-.393,6.755-.112,13.8,2.21,30.113,11.672,42.332.514a2.291,2.291,0,0,0,2.106.386c5.2-2.015,5.445-7.843,5.888-12.634q.859-9.286,1.611-18.581c.179-10.686,4.4-24.04-2.287-33.274Z" transform="translate(9.909 25.573)" fill="#d08b5b"/>
    <path id="_Ink-2" data-name="ðŸ– Ink" d="M32.634,100.7a7.884,7.884,0,0,1-.828-.044,8.894,8.894,0,0,1-3.316-1.037,7.386,7.386,0,0,1-2.541-2.248,24.166,24.166,0,0,1-5.387,2.24l-.2.055a18.544,18.544,0,0,1-4.737.772,8.33,8.33,0,0,1-1.84-.192,5.83,5.83,0,0,1-1.687-.661,5.409,5.409,0,0,1-2.336-3.01,7.392,7.392,0,0,1-.2-3.857,7.043,7.043,0,0,1,.249-.869c-.305.016-.61.024-.905.024a14.217,14.217,0,0,1-4.216-.61,8.085,8.085,0,0,1-2.378-1.162,5.485,5.485,0,0,1-1.72-1.991A6.014,6.014,0,0,1,0,85.226a9.518,9.518,0,0,1,.6-2.917,23.454,23.454,0,0,1,5-8.014,33.7,33.7,0,0,1,7.232-5.733l.442-.265A32.775,32.775,0,0,1,16.991,66.3a10.125,10.125,0,0,1,4.02-.967c.088,0,.176,0,.263.005a.991.991,0,0,1-.019-.106,63.233,63.233,0,0,1-.418-7.167v-.005c-.015-.739-.03-1.5-.054-2.254s-.049-1.518-.073-2.255c-.068-2.1-.139-4.27-.189-6.408a97.5,97.5,0,0,1,.565-14.723,49.466,49.466,0,0,1,1.239-6.393,36.7,36.7,0,0,1,2.21-6.119,27.866,27.866,0,0,1,3.636-5.769,29.612,29.612,0,0,1,4.9-4.742A40.324,40.324,0,0,1,39.2,5.536a47.614,47.614,0,0,1,6.768-2.826A53.74,53.74,0,0,1,53.089.888,56.18,56.18,0,0,1,60.28.035c.438-.023.9-.035,1.387-.035a64.621,64.621,0,0,1,15.4,2.357A74.607,74.607,0,0,1,84.9,4.873,39.128,39.128,0,0,1,91.217,7.9,24.176,24.176,0,0,1,98.2,14.437a28.391,28.391,0,0,1,3.777,7.452,31.587,31.587,0,0,1,1.467,6.555,15.1,15.1,0,0,1,.049,3.847,2.755,2.755,0,0,1-.46,1.119,1.1,1.1,0,0,1-.879.494,1.136,1.136,0,0,1-.348-.058A123.847,123.847,0,0,1,102.6,48v0c.015.921.03,1.874.051,2.9l.09,4.445c.055,2.81.108,5.833.121,8.891a.6.6,0,0,1,.208-.039.525.525,0,0,1,.5.352.055.055,0,0,1,0,.054.077.077,0,0,1-.063.03.071.071,0,0,1-.047-.016.381.381,0,0,0-.2-.116.058.058,0,0,0-.056.037,1.545,1.545,0,0,0,.286.882,4.491,4.491,0,0,0,.644.567h0c.113.088.221.172.316.254l.8.691.8.689c.834.721,1.926,1.684,2.982,2.738l.261.263c.4.4.825.814,1.24,1.21l0,0a16.53,16.53,0,0,1,3.784,4.592,5.89,5.89,0,0,1,.533,3.388,5.482,5.482,0,0,1-1.541,3.054,7.325,7.325,0,0,1-2.159,1.49,8.076,8.076,0,0,1,1.16,3.9,7.077,7.077,0,0,1-1.014,3.949,7.209,7.209,0,0,1-2.818,2.6,8.024,8.024,0,0,1-3.707.909c-.184,0-.37-.007-.553-.02a4.189,4.189,0,0,1-.388,1,3.866,3.866,0,0,1-.863,1.085,3.944,3.944,0,0,1-1.1.666,6.877,6.877,0,0,1-2.606.427c-.234,0-.475-.007-.738-.02l-.08,0a30.276,30.276,0,0,1-13.115-3.682c-.054,0-.108.005-.162.005a2.734,2.734,0,0,1-1.787-.71,3.091,3.091,0,0,1-.981-1.625c-.7-.026-1.431-.083-2.237-.175a23.251,23.251,0,0,1-3.363-.612,12.968,12.968,0,0,1-3.164-1.275.327.327,0,0,1-.156-.375.352.352,0,0,1,.331-.272c.353-.008.736-.012,1.171-.012s.857,0,1.275.007h.021c.424,0,.862.007,1.293.007a32.2,32.2,0,0,0,3.473-.153,25.6,25.6,0,0,0,6.624-1.68A18.26,18.26,0,0,0,92.7,85.287a14.428,14.428,0,0,0,3.583-4.534,16.572,16.572,0,0,0,1.13-2.982,23.911,23.911,0,0,0,.637-3.145,63.154,63.154,0,0,0,.447-6.457v0c.027-.785.056-1.6.095-2.379.237-4.739.545-9.954.969-16.413l.174-2.621a114.62,114.62,0,0,1,1.523-13.146c-.076.007-.159.01-.247.01a12.992,12.992,0,0,1-3.46-.717,32.05,32.05,0,0,1-4.9-2.054A27.223,27.223,0,0,1,87.7,27.6a14.665,14.665,0,0,1-3.632-4.291,11.2,11.2,0,0,1-1.275,2.08,13.041,13.041,0,0,1-1.681,1.783,20.037,20.037,0,0,1-4.365,2.853,44.966,44.966,0,0,1-5.34,2.19c-1.894.658-3.921,1.277-5.881,1.875-5.286,1.613-10.751,3.282-14.967,6.063a20.079,20.079,0,0,0-2.911,2.313A15.686,15.686,0,0,0,45.319,45.3a14.885,14.885,0,0,0-1.614,3.458,17.747,17.747,0,0,0-.775,4.183.118.118,0,0,1-.127.114.179.179,0,0,1-.183-.157l-.027-.488c-.012-.229-.025-.473-.033-.714l-.007-.235-.521.006a.061.061,0,0,1-.061.061.057.057,0,0,1-.055-.042,1.275,1.275,0,0,0-.711-.754,2.755,2.755,0,0,0-1.131-.2,7.047,7.047,0,0,0-2.008.342A9.139,9.139,0,0,0,35.509,52.2a8.96,8.96,0,0,0-2.017,2.007A6.861,6.861,0,0,0,32.342,56.8a7.13,7.13,0,0,0-.03,2.717,8.5,8.5,0,0,0,.907,2.553,9.881,9.881,0,0,0,1.626,2.2,9.76,9.76,0,0,0,2.128,1.655c.813.465,1.672.867,2.5,1.256A24.837,24.837,0,0,1,42.9,69.009,24.359,24.359,0,0,1,47.4,72.9a27.008,27.008,0,0,1,3.481,4.891,26.618,26.618,0,0,1,2.35,5.634,22.746,22.746,0,0,1,.9,5.985,18.692,18.692,0,0,1-.872,5.944A1.927,1.927,0,0,1,51.9,96.709a4.834,4.834,0,0,1-.685.052,2.8,2.8,0,0,1-1.2-.241,2.111,2.111,0,0,1-.927-.862,2.384,2.384,0,0,1-.329-1.338A5.489,5.489,0,0,1,47.537,96.4a5.606,5.606,0,0,1-1.858,1.385,5.476,5.476,0,0,1-2.17.444,5.737,5.737,0,0,1-3.05-.882l-.194.143a21.9,21.9,0,0,1-3.6,2.237A9.394,9.394,0,0,1,32.634,100.7ZM42.793,62.666a1.141,1.141,0,0,1-1.088-.746l-.181-.42a15.918,15.918,0,0,0-1.057-2.094,6.081,6.081,0,0,0-1.536-1.726,3.831,3.831,0,0,0-2.236-.764,2.83,2.83,0,0,0-2.154.942.094.094,0,0,1-.071.034.115.115,0,0,1-.095-.058.106.106,0,0,1,0-.107,3.262,3.262,0,0,1,1.476-1.414,4.563,4.563,0,0,1,2.014-.443,5.311,5.311,0,0,1,.891.076,5.927,5.927,0,0,1,2.995,1.585,20.27,20.27,0,0,1,2.269,2.6,1.475,1.475,0,0,1,.241,1.6,1.684,1.684,0,0,1-.617.673A1.628,1.628,0,0,1,42.793,62.666Z" transform="translate(-16.022 13.104)"/>
  </g>
  <g id="FACE" transform="translate(112.183 77.354)">
    <path id="_Ink-3" data-name="ðŸ– Ink" d="M22.824,40.539a8.045,8.045,0,0,1-3.052-.61,8.621,8.621,0,0,1-1.992-1.145,8.487,8.487,0,0,1-1.622-1.636,1.676,1.676,0,0,1-.338-1.3,1.871,1.871,0,0,1,.728-1.172,1.793,1.793,0,0,1,1.067-.372,1.548,1.548,0,0,1,.238.018,1.648,1.648,0,0,1,1.1.73l.065.09A5.7,5.7,0,0,0,21.108,36.9a4.735,4.735,0,0,0,2.069.483,4.583,4.583,0,0,0,.513-.029,5.388,5.388,0,0,0,2.278-.8,10.668,10.668,0,0,0,1.93-1.611c.138-.141.284-.294.474-.5a.751.751,0,0,1,.394-.3.806.806,0,0,1,.256-.041.871.871,0,0,1,.714.373.8.8,0,0,1,.135.524,4.812,4.812,0,0,1-.57,1.864,6.221,6.221,0,0,1-1.22,1.567,7.841,7.841,0,0,1-1.847,1.288,7.69,7.69,0,0,1-2.05.7A7.548,7.548,0,0,1,22.824,40.539Zm2.148-12.17h0a7.373,7.373,0,0,1-2.63-.53,13.281,13.281,0,0,1-3.093-1.756,1.189,1.189,0,0,1-.432-.687,1.423,1.423,0,0,1,.061-.771,1.754,1.754,0,0,1,.521-.753,1.267,1.267,0,0,1,.812-.317,1.151,1.151,0,0,1,.628.193l.209.161,0,0a16.744,16.744,0,0,0,1.936,1.347,4.768,4.768,0,0,0,2.321.74,2.505,2.505,0,0,0,.981-.193,2.74,2.74,0,0,0,.913-.647,2.8,2.8,0,0,0,.531-2.255,4.26,4.26,0,0,0-1.13-2,8.241,8.241,0,0,0-1.711-1.381.531.531,0,0,1-.144-.61.8.8,0,0,1,.264-.38.809.809,0,0,1,.505-.167,1.076,1.076,0,0,1,.181.016,5.736,5.736,0,0,1,2.018.729,4.577,4.577,0,0,1,1.357,1.252,4.974,4.974,0,0,1,.866,3.322,5.475,5.475,0,0,1-.444,1.744,5.087,5.087,0,0,1-1,1.5A4.779,4.779,0,0,1,24.972,28.369ZM7.859,16.485a1.724,1.724,0,0,1-1.119-.439,1.744,1.744,0,0,1-.587-1.128,12.706,12.706,0,0,1,.067-3.308c.04-.321.081-.654.11-1.012a1.98,1.98,0,0,1,.75-1.415,2.31,2.31,0,0,1,1.421-.5,1.751,1.751,0,0,1,1.075.338,1.594,1.594,0,0,1,.594,1.057,8.877,8.877,0,0,1-.926,5.469,1.754,1.754,0,0,1-.619.716A1.427,1.427,0,0,1,7.859,16.485Zm25.119-.75a1.508,1.508,0,0,1-1.183-.507A4.624,4.624,0,0,1,31.074,14a5.342,5.342,0,0,1-.368-1.477,3.131,3.131,0,0,1,.853-2.687,1.772,1.772,0,0,1,.137-.208,1.933,1.933,0,0,1,1.487-.856,1.611,1.611,0,0,1,.452.067,2.175,2.175,0,0,1,1.453,1.268,4.486,4.486,0,0,1,.18,2.453,8.214,8.214,0,0,1-.744,2.314,1.5,1.5,0,0,1-.643.635A1.947,1.947,0,0,1,32.979,15.735ZM.278,7.854a.274.274,0,0,1-.229-.14.306.306,0,0,1-.018-.3A10.425,10.425,0,0,1,2.368,4.454,14.446,14.446,0,0,1,5.5,2.317a13.445,13.445,0,0,1,3.714-1.3l.4-.069A9.66,9.66,0,0,1,11.226.776a2.5,2.5,0,0,1,2,.746,1.7,1.7,0,0,1,.4,1.208,1.106,1.106,0,0,1-.4.789,3.08,3.08,0,0,1-2.112.62c-.166,0-.338,0-.5-.008H10.6c-.16,0-.341-.009-.521-.009s-.314,0-.452.012a14.274,14.274,0,0,0-3.143.536A21.357,21.357,0,0,0,.424,7.806.26.26,0,0,1,.278,7.854Zm38.247-1.6h0l-.167-.042A9.458,9.458,0,0,1,36.524,5.5l-.6-.293A16.537,16.537,0,0,0,33.8,4.3a25.089,25.089,0,0,0-4.845-1.07,1.979,1.979,0,0,1-.972-.369,1.457,1.457,0,0,1-.544-.828A1.482,1.482,0,0,1,27.609.786a1.581,1.581,0,0,1,.767-.661A1.725,1.725,0,0,1,29.03,0a1.926,1.926,0,0,1,.377.038l.3.062a21.676,21.676,0,0,1,5.232,1.7,10.579,10.579,0,0,1,2.3,1.514,6.719,6.719,0,0,1,1.627,2.1c.057.439,0,.548-.055.622L38.8,6.06l-.015.02a.421.421,0,0,1-.26.173Z" transform="translate(11.197 10.99)"/>
  </g>
</svg>
