<svg id="peep-4" xmlns="http://www.w3.org/2000/svg" width="240" height="324" viewBox="0 0 240 324">
  <g id="BODY" transform="translate(31.056 135.053)">
    <path id="_Skin" data-name="âœ‹ Skin" d="M147.947,95.18c-1.413-4.342.27-9.357-.83-14.038-.377-1.851-1.093-8.73-1.812-12.753-.4-2.25,2-2.949,2.374-3.847,2.6-8.067-16.387-27.046-17.546-27.745-1.737-1-3.274-1.869-4.971-2.895-4.951-1.74-10.889-6.58-15.377-3.471-7.777-11.582-4.7-25.851-8.921-27.547S84.182-2.239,77.057,2.138c-4.271,3.161-3.956,8.6-5.9,13.09-1.144,2.112-1.706,5.173-3.037,6.55-4.524,4.681-10.165,5.488-16.472,6.283-.48.061-.986-1.246-1.452-1.085-10.639,3.678-23.018,4.752-35.066,25.349C13.424,55.27,8.833,60,10.368,63.4.255,86.926-9.7,139.877,18.053,153.082c.887.568,6.9-2.476,7.885-2.448,1.634.047-1.5,4.017,0,3.31,10.992.834,71.475-1.318,94.659.834,15.943-.119,26.041,2.677,29.722-.119-1.472-3.558-1.4-7.369-.938-11.13,3.388-2.522-.8-20.3-.446-25.5C152.107,114.223,149.582,99.958,147.947,95.18Z" transform="translate(10.441 -10.356)" fill="#d08b5b"/>
    <path id="_Top" data-name="ðŸ‘• Top" d="M37.334.7l-.1.066L37.182.8a.155.155,0,0,0,.037.279,3.476,3.476,0,0,0,.533.157c.559.812,1,1.815,1.3,2.324.877,1.461,8.405,10.649,9.53,11.829a128.245,128.245,0,0,0,10.953,8.987,37.026,37.026,0,0,0,4.507,2.3C73.267,30.6,85.1,30.952,93.024,24.439c.591.162,6.194-7.91,7.061-10.8.422.117.946-2.981.653-2.934.255-1.752-2.814-8.044-3.106-8.345l.132-.039a.132.132,0,0,0,.153.079,6.5,6.5,0,0,1,1.771-.221,32.894,32.894,0,0,1,3.795,1.536l.231.111c25.749,12.383,29.718,32.507,30.609,32.461-.375.475-10.549,14.866-11.1,16.138-.114-2.75,1.766,70.563,1.9,72.094.054.631.058,2.122.147,2.722-.646.035-23.29-1.511-65.4-1.258-13.446.081-46.678,1.544-46.678,1.544l-.011-.091c-.1-.9-.012-2.639-.026-3.533,1.276-.737,2.529-1.521,3.767-2.291,2.819-1.754,20.212-17.692,32.995-31.951C57.5,81.2,66.953,75.515,67.465,74.961a.246.246,0,0,0,.022-.035.135.135,0,0,0,.1.032c5.888-.842,14.673.97,21.141-2.38,2.887-1.5,12.685-11.675,15.573-14.488a.939.939,0,0,0,.193-.265,102.718,102.718,0,0,0,9.96-7.858l.158-.221c.587-.831,1.469-1.706.446-2.5-1.077-.841-3.142.169-4.278.653l-.158.066c-.553.227-1.1.474-1.629.737-.674-1.889-2.318-1.929-4.09-1.668a33.582,33.582,0,0,0-3.72.947q-2.344.626-4.707,1.18c-2.836.664-6.115,1.879-8.984,2.382a.608.608,0,0,0-.322-.193,11.962,11.962,0,0,0-3.074-.039q-1.3.024-2.59.005l-.518-.009c-1.851-.038-4.334-.9-6.184-.931l-.111-.068-.109-.069A2.486,2.486,0,0,1,73.449,49c-.018-.065,1.874-4.421,1.9-7.946a22.492,22.492,0,0,0-.818-4.766c-.391-2.373-1.268-.845-2.535,1.479a51.259,51.259,0,0,1-4.225,6.129c-1.634,2.179-3.236,2.838-4.069,4.1q-.212.321-.415.662c-.326-.325-3.072,6.148-2.592,7.395-.334-.111-13.839,17.221-43.2,29.69.187-1.166,5.282-31.914,4.014-36.986S3.474,24.935,1.73,24.519c.175-.284-6.634,4.369,5.62-7.678S27.769,2.754,33.869.515q.512-.159,1.019-.322a.164.164,0,0,0,.257.2A1.429,1.429,0,0,1,37.334.7Z" transform="translate(24.129 16.975)" fill="#9ddadb"/>
    <path id="_Ink" data-name="ðŸ– Ink" d="M151.2,147.487h0a.963.963,0,0,1-.551-.173,1.08,1.08,0,0,1-.391-.516,10.093,10.093,0,0,1-.353-3.92c.014-.362.028-.735.031-1.094.014-1.715,0-3.457-.022-5.142v-.03q-.012-1.156-.024-2.311c-.026-2.5-.053-5.081-.088-7.621-.183-13.242-.521-24.869-1.034-35.546-.24-4.994-.623-10.256-1.171-16.085-.437-4.646-.988-9.741-1.733-16.034-.967,1.322-1.928,2.715-2.938,4.257-1.133,1.731-2.2,3.46-3.181,5.071-.328.537-.652,1.083-.965,1.611l-.005.009c-.184.31-.374.631-.563.945-.156.259-.319.519-.472.763.131,2.6.239,5.3.321,8.013.339,11.171.8,22.229,1.377,32.866.331,6.137.621,11.294.958,16.517.167,2.585.347,5.25.552,8.146.1,1.37.2,2.775.313,4.175.012.153.027.309.04.446a6.3,6.3,0,0,1,.019,1.623,1.6,1.6,0,0,1,.134.793,1.71,1.71,0,0,1-.259.788,1.473,1.473,0,0,1-1.288.68,2.108,2.108,0,0,1-.283-.02,98.758,98.758,0,0,0-10.34-.676c-.749-.023-1.523-.046-2.3-.073l-8.1-.286-4.3-.152c-3.715-.131-7.5-.3-11.152-.458-8.227-.362-16.733-.736-25.1-.736-2.827,0-5.454.041-8.031.125-4.456.146-8.981.4-13.358.652h0c-2.777.158-5.648.321-8.476.455-4.257.2-7.757.3-11.014.321-.409,0-.9,0-1.4,0a49.376,49.376,0,0,1-8.5-.566,1.134,1.134,0,0,1-.477.614,1.357,1.357,0,0,1-.722.206,1.152,1.152,0,0,1-.841-.334,1.059,1.059,0,0,1-.267-.809,10.776,10.776,0,0,1,.3-2.114c-.4.2-.725.366-1.035.512a11.968,11.968,0,0,1-4.784,1.371,4.577,4.577,0,0,1-1.378-.2,3.7,3.7,0,0,1-1.244-.674.5.5,0,0,1-.038-.037l-.014-.014a9.254,9.254,0,0,1-3.652-1.188,12.722,12.722,0,0,1-2.983-2.417,20.551,20.551,0,0,1-2.373-3.159,32.328,32.328,0,0,1-1.823-3.412,60.185,60.185,0,0,1-2.945-7.734,69.826,69.826,0,0,1-1.931-8.05C.918,114.4.58,111.835.354,109.239.138,106.75.02,104.164,0,101.551c-.017-2.494.058-5.084.222-7.7.156-2.483.4-5.061.717-7.665a149.508,149.508,0,0,1,2.6-14.91A138.709,138.709,0,0,1,7.692,56.724c.874-2.524,1.816-4.932,2.8-7.157A72.2,72.2,0,0,1,13.949,42.7a57.289,57.289,0,0,1,4.246-6.376,47.783,47.783,0,0,1,5.157-5.7c.929-.869,1.906-1.723,2.9-2.537a.731.731,0,0,1,.294-.472,5.028,5.028,0,0,1,.967-.528A58.8,58.8,0,0,1,38.264,20.51a55.123,55.123,0,0,1,11.883-4.068,1.506,1.506,0,0,1,.409-.086l.174-.037h0l.231-.048.021,0a.083.083,0,0,1,.074.043.09.09,0,0,1,0,.089,3.334,3.334,0,0,1,1.364.789,13.376,13.376,0,0,1,1.975-.652c.242-.066.47-.129.692-.195l.357-.106h0c1.171-.348,2.381-.708,3.56-1.092l.507-.165a30.8,30.8,0,0,0,6.376-2.613c2.286-1.37,3.452-2.283,4.267-4.734.22-.663.423-1.231.619-1.781A23.648,23.648,0,0,0,72.083,1.11,1.235,1.235,0,0,1,72.6.268,1.63,1.63,0,0,1,73.524,0a1.976,1.976,0,0,1,.73.14,1.575,1.575,0,0,1,.592.4,1.218,1.218,0,0,1,.3.979,23.584,23.584,0,0,1-.75,3.83,15.468,15.468,0,0,1-1.382,3.33,13.851,13.851,0,0,1-2.176,2.891,17.484,17.484,0,0,1-3.13,2.514,20.564,20.564,0,0,1-3.741,1.845,35.959,35.959,0,0,1-3.991,1.24,35.6,35.6,0,0,1-4.269.832l-.244.032a17.3,17.3,0,0,1-2.053.183c.472.568.9,1.181,1.251,1.675.228.324.426.6.586.8,1.791,2.237,3.776,4.384,5.7,6.461.549.593,1.115,1.206,1.673,1.816a68.873,68.873,0,0,0,6.9,6.671,45.47,45.47,0,0,0,3.841,2.861,37.181,37.181,0,0,0,4.165,2.4,32.76,32.76,0,0,0,14.29,3.424c.883,0,1.769-.041,2.634-.122a22.931,22.931,0,0,0,4.129-.771,21.474,21.474,0,0,0,3.886-1.523,19.689,19.689,0,0,0,3.487-2.27,18.333,18.333,0,0,0,2.931-3.01A19.45,19.45,0,0,0,111,33.168a19.208,19.208,0,0,0,1.359-3.831,18.642,18.642,0,0,0,.321-6.089,9.7,9.7,0,0,1-3.419-3.1,19.547,19.547,0,0,1-2.9-5.378,29.451,29.451,0,0,1-1.481-6.24c-.142-1.06-.2-2.108-.24-3.083-.007-.159-.015-.318-.025-.487v-.01a8.644,8.644,0,0,1,.086-2.389.187.187,0,0,1,.338-.044,7.8,7.8,0,0,1,.64,1.869l0,.007c.045.178.091.361.139.537.11.4.224.808.335,1.2v0c.143.509.291,1.035.431,1.553a47.88,47.88,0,0,0,1.707,5.452,23.449,23.449,0,0,0,1.22,2.579,19.192,19.192,0,0,0,1.553,2.392,11.749,11.749,0,0,0,1.89,1.977c.046.037.093.072.14.106h0l.032.024a1.252,1.252,0,0,1,.619-.169,1.006,1.006,0,0,1,.617.2,1.209,1.209,0,0,1,.416.652c.114.4.211.817.295,1.266v0a16.529,16.529,0,0,1,.066,5.413,19,19,0,0,1,2.343-.18c.324-.012.659-.023.985-.042,1.089-.063,2.2-.086,3.269-.108.44-.009.9-.018,1.349-.03,2.147-.057,4.239-.139,6.219-.244a64.829,64.829,0,0,0-6.229-3.841c-.721-.392-1.483-.736-2.221-1.07a27.173,27.173,0,0,1-2.739-1.365c-.232-.138-.459-.286-.679-.429a7.263,7.263,0,0,0-1.992-1.019,5.406,5.406,0,0,0-1.471-.2,6.582,6.582,0,0,0-1.655.222.128.128,0,0,1-.032,0,.142.142,0,0,1-.131-.114.109.109,0,0,1,.063-.129,5.9,5.9,0,0,1,2.516-.591,5.829,5.829,0,0,1,2.333.509c.454.2.9.422,1.339.638h0c.525.261,1.069.532,1.626.759l.5.2.021.009c.769.311,1.563.633,2.326,1a55.521,55.521,0,0,1,9.19,5.561,51.677,51.677,0,0,1,7.9,7.278,47.636,47.636,0,0,1,3.242,4.136,1.987,1.987,0,0,1,1,1.493c.55.86,1.056,1.709,1.5,2.525a43.439,43.439,0,0,1,2.089,4.395c.169.413,1.79,4.572,1.677,4.637a.861.861,0,0,1,.433-.123.917.917,0,0,1,.84.7.786.786,0,0,1-.394.925c-.038.022-.078.043-.13.068a.854.854,0,0,1-.147.511c-.619.848-1.3,1.672-1.959,2.469-.592.717-1.205,1.458-1.771,2.215l-.021.029,0,0-.027.036c1.089,5.12,2,10.707,2.8,17.079.714,5.735,1.317,11.689,1.791,17.7.453,5.738.8,11.712,1.041,17.756.24,6.1.307,12.149.372,18h0c.031,2.852.053,5.846.063,8.9.005,1.549.022,3.08.051,4.551.006.284.018.573.029.853v0a9.147,9.147,0,0,1-.313,3.536A.986.986,0,0,1,151.2,147.487ZM45.959,127.4c-.673.618-1.27,1.151-1.826,1.63-2.028,1.751-4.121,3.426-6.219,4.979-2.15,1.592-4.366,3.1-6.586,4.48l-.259.161h0c-1.14.71-2.319,1.443-3.506,2.129,0,.314,0,.633-.01.941a12.306,12.306,0,0,0,.059,1.939c2.429-.174,4.913-.177,7.315-.181,1.445,0,2.939,0,4.4-.044,4.452-.12,8.892-.386,12.263-.6,1.785-.116,3.6-.241,5.353-.361h0c5.467-.376,11.121-.765,16.693-.939,2.131-.066,4.341-.1,6.754-.1,4.905,0,9.892.138,14.714.271h0l.557.015c6.416.177,13.43.388,22.074.663l3.478.111,1.916.061,5.748.183,1.951.062.373.012,3.353.107c.353.011.721.017,1.093.017.83,0,1.7-.027,2.75-.084-.056-.38-.079-.787-.1-1.18-.013-.228-.026-.464-.046-.7q-.058-.672-.116-1.344l-.012-.137,0-.044c-.087-1.006-.176-2.045-.263-3.068-.172-2.036-.338-4.183-.539-6.96l-.508.065-.03,0h0c-1.137.147-2.312.3-3.465.361-1.248.067-2.521.091-3.751.114h0c-.386.007-.824.015-1.246.025-.944.021-1.928.032-3.007.032-2.033,0-4.1-.038-6.1-.075h0l-.871-.016c-8.428-.152-18.383-.307-28.317-.307-2.454,0-4.869.009-7.178.028-5.857.048-11.794.121-17.647.219-3,.05-6.04.108-9.033.172-1.509.032-3.063.067-4.621.1-.262.006-.526.016-.781.026-.406.016-.825.032-1.234.032a7.78,7.78,0,0,1-2.458-.326,1.808,1.808,0,0,1-1.138-.983A1.829,1.829,0,0,1,45.959,127.4ZM16.448,42.276c-.822,1.392-1.621,2.88-2.375,4.421-.71,1.451-1.4,3-2.058,4.589-1.185,2.882-2.273,5.966-3.326,9.427A150.686,150.686,0,0,0,2.948,88.961c-.259,2.5-.444,4.967-.551,7.331-.114,2.512-.142,4.99-.085,7.365.06,2.506.218,4.977.468,7.344.263,2.483.636,4.929,1.109,7.267a65.559,65.559,0,0,0,1.785,6.918,53.55,53.55,0,0,0,2.609,6.648,26.906,26.906,0,0,0,1.629,2.958,20.636,20.636,0,0,0,2.013,2.663,16.5,16.5,0,0,0,2.446,2.238,14.545,14.545,0,0,0,2.928,1.683.771.771,0,0,1,.241-.1,12.731,12.731,0,0,1,1.859-.2,10.046,10.046,0,0,0,2.38-.338,21.64,21.64,0,0,0,4.135-1.939c2.218-1.243,4.514-2.693,7.226-4.565,2.2-1.52,4.323-3.081,6.3-4.64,2.091-1.647,4.1-3.35,5.966-5.062,3.7-3.392,7.155-7.138,10.5-10.76l.063-.068.609-.66c1.912-2.073,3.874-4.089,5.83-5.992,2.012-1.958,4.084-3.86,6.158-5.654,1.863-1.611,4.039-3.478,6.3-5.242A63.861,63.861,0,0,1,81.6,91.5a.212.212,0,0,1,.109-.032.207.207,0,0,1,.159.08.171.171,0,0,1,.074-.051,17.946,17.946,0,0,1,2.539-.649,19.16,19.16,0,0,1,2.61-.275c.573-.023,1.193-.034,1.9-.034s1.406.011,2.092.021h0c.384.006.781.012,1.175.016.235,0,.465,0,.684,0a29.116,29.116,0,0,0,4.806-.331,14.41,14.41,0,0,0,4.556-1.5,30.279,30.279,0,0,0,6.513-5.3l0,0c.521-.511,1.06-1.039,1.6-1.542l3.894-3.666.535-.5c-.944.438-1.92.868-2.983,1.317-1.431.6-2.892,1.2-4.305,1.77l-.024.01c-.515.209-1.04.434-1.547.651l0,0c-1.173.5-2.384,1.02-3.6,1.406a1.188,1.188,0,0,1-.358.057,1.128,1.128,0,0,1-.782-.324,1.488,1.488,0,0,1-.422-.744,1.232,1.232,0,0,1,.045-.736,1.068,1.068,0,0,1,.543-.564c2.025-.979,4.195-1.777,6.292-2.549l.006,0c1.26-.464,2.564-.943,3.818-1.456a70.292,70.292,0,0,0,8.738-4.129,34.241,34.241,0,0,0,3.943-2.659,27.944,27.944,0,0,0,3.482-3.236c.041-.046.1-.107.168-.179h0a9.131,9.131,0,0,0,.767-.88c.274-.378.347-.637.218-.768a.343.343,0,0,0-.234-.057,9.958,9.958,0,0,0-1.978.442c-.167.049-.3.087-.373.105-.827.2-1.671.453-2.51.748a.861.861,0,0,1-.309.3c-4.746,2.636-8.745,4.644-12.584,6.321-2.236.977-4.442,1.846-6.555,2.583-2.283.8-4.552,1.472-6.746,2.009a.991.991,0,0,1-.234.029.839.839,0,0,1-.818-.745.824.824,0,0,1,.6-.944c4.975-1.555,8.971-2.96,12.575-4.42a86.642,86.642,0,0,0,11.957-5.86,2.075,2.075,0,0,0-.832-.144,5.893,5.893,0,0,0-1.213.149c-.869.185-1.743.441-2.588.688-.539.158-1.1.321-1.647.464-3,.778-6.047,1.473-9.068,2.067-2.37.466-5.166.988-7.93,1.333a24.882,24.882,0,0,1-3.116.218,13.8,13.8,0,0,1-3.295-.364,9.787,9.787,0,0,1-2.962-1.244,5.7,5.7,0,0,1-1.232-1.059,3.659,3.659,0,0,1-.753-1.367,4.438,4.438,0,0,1,.673-3.207l.01-.02.093-.19a11.482,11.482,0,0,0,1.1-3.663,9.354,9.354,0,0,0-.19-3.741,2.747,2.747,0,0,0-.356-.786.613.613,0,0,0-.476-.311c-.237,0-.481.21-.725.623-.227.385-.431.784-.627,1.171h0a13.946,13.946,0,0,1-1.012,1.768A25.819,25.819,0,0,1,83.362,60.2c-.53.575-1.088,1.143-1.627,1.693l0,0a34.92,34.92,0,0,0-3.418,3.845,13.038,13.038,0,0,0-1.808,3.4,12.749,12.749,0,0,0-.69,3.79.323.323,0,0,1-.226.32,1.133,1.133,0,0,1,.313.7,1.023,1.023,0,0,1-.315.781c-2.034,2.075-4.149,4.091-6.288,5.992-2.17,1.928-4.422,3.791-6.694,5.535-2.051,1.575-4.129,3.071-6.174,4.446-2.139,1.438-4.312,2.791-6.458,4.02C45.7,97.178,41.223,99.321,37,101.3l-.211.1c-4.208,1.978-8.559,4.024-12.663,6.35-2.212,1.254-4.169,2.482-5.985,3.756a52.3,52.3,0,0,0-5.526,4.432.111.111,0,0,1-.075.032.107.107,0,0,1-.094-.063.115.115,0,0,1,.016-.124,35.254,35.254,0,0,1,2.622-2.949c.892-.9,1.868-1.789,2.9-2.649a56.906,56.906,0,0,1,6.419-4.569c1.832-1.137,3.874-2.3,6.243-3.546a1.473,1.473,0,0,1-.306-1.22C31.5,94.3,32.428,88.32,33.189,82.572c.248-1.876.491-3.781.726-5.624l.006-.044c.151-1.184.307-2.408.463-3.611.172-1.331.4-2.749.689-4.334.045-.243.08-.518.116-.809a9.427,9.427,0,0,1,.35-1.811c-1.39-2.446-2.865-4.849-4.385-7.142-1.555-2.345-3.2-4.637-4.882-6.812-1.386-1.79-2.877-3.686-4.516-5.456a30.206,30.206,0,0,0-5.308-4.653ZM84.38,125.685c7.178,0,13.081.083,18.576.261,4.17.135,8.408.442,12.506.74h0c1.623.118,3.3.24,4.956.35,3.573.237,6.331.441,8.942.662,2.712.229,5.39.556,7.9.871-.015-.211-.031-.433-.045-.612v-.013c-.018-.248-.037-.5-.055-.757-.25-3.59-.473-7.309-.664-11.054a2.058,2.058,0,0,1-1.012.271l-.1,0c-5.647-.284-11.3-.546-16.792-.776-4.261-.179-8.592-.382-12.781-.577h-.039c-5.433-.254-11.052-.517-16.579-.731-4.742-.185-9.689-.435-14.706-.744-.809-.05-1.637-.091-2.438-.131a44.643,44.643,0,0,1-11.37-1.548c-1.205,1.305-2.416,2.643-3.587,3.938-3.212,3.55-6.532,7.219-10.067,10.57l.021-.009.022-.01a9.734,9.734,0,0,1,3.354-.445c.227,0,.456,0,.677,0h.035c.216,0,.439,0,.658,0l.379,0c1.615-.023,3.311-.046,5.041-.067,3.384-.041,6.777-.074,10.083-.1l2.911-.021C74.854,125.72,79.655,125.685,84.38,125.685Zm-4.012-16.059h.005c7.5,0,15.133.254,22.511.5l3.115.1c10.433.34,20.711.908,29.389,1.419a2.724,2.724,0,0,1,.908.211c-.2-4.728-.347-9.384-.423-13.84a1.928,1.928,0,0,1-1.193.516c-1.876.167-3.881.242-6.5.242-1.151,0-2.321-.014-3.453-.028-1.024-.012-2.083-.025-3.128-.027l-2.015,0c-1.789,0-3.662,0-5.313.008h-.04c-1.746,0-3.552.008-5.329.008-4.145,0-7.322-.024-10.3-.077-1.018-.018-2.048-.032-3.045-.046h0c-3.183-.044-6.473-.089-9.7-.267a77.587,77.587,0,0,1-9.634-1.073c-1.061.939-2.151,1.878-3.206,2.786-1.809,1.557-3.679,3.168-5.443,4.817-1.713,1.6-3.473,3.37-5.54,5.567a46.524,46.524,0,0,1,9.913-.795c.518,0,1.041,0,1.547,0h.067c.469,0,1,0,1.509,0,.573,0,1.071,0,1.523-.008C77.814,109.633,79.085,109.625,80.368,109.625ZM34.348,93.91c-.314,2.261-.656,4.542-1.015,6.782,1.292-.655,2.612-1.311,3.888-1.945,2.786-1.384,5.667-2.816,8.443-4.333l-.39-.006h-.028l-.563-.008-3.793-.056-.451-.007-.367-.005c-1.56-.023-3.071-.164-4.611-.319-.111-.011-.235-.021-.366-.031h-.006C34.862,93.964,34.6,93.944,34.348,93.91ZM81.889,91.8l-.006.011h0a.112.112,0,0,1-.015.023c-1.224,1.324-2.63,2.706-4.3,4.224a78.007,78.007,0,0,1,11.114-.988c7.262-.138,14.784-.219,23-.247l4.58-.015,1.133,0,5.68-.019c.854,0,1.713-.013,2.544-.022h.006c1-.011,2.031-.023,3.046-.023,2.427,0,4.279.068,6.008.22a1.942,1.942,0,0,1,1.158.48c0-.185,0-.374-.008-.557v-.03c0-.212-.007-.476-.01-.727v0c-.023-2.485-.05-5.3-.053-8.062a1.5,1.5,0,0,1-.511.17,15.875,15.875,0,0,1-2.268.144c-.806,0-1.629-.041-2.424-.08h0c-.554-.028-1.127-.056-1.684-.07-.591-.015-1.192-.026-1.773-.038-1.481-.028-3.011-.058-4.512-.143-1.39-.079-2.8-.165-4.169-.249h-.008l-2.108-.128c-1.081-.065-1.977-.152-2.818-.275-.2-.029-.408-.053-.609-.076h0a6.466,6.466,0,0,1-1.865-.4.584.584,0,0,1-.28-.488c0-.011,0-.022,0-.033v-.017l-.118.116a32.715,32.715,0,0,1-7.482,6.014,15.825,15.825,0,0,1-4.446,1.494A25.5,25.5,0,0,1,94,92.392c-1.9,0-3.819-.143-5.678-.282l-.038,0c-1.839-.137-3.741-.279-5.553-.279-.253,0-.5,0-.74.008h0A.161.161,0,0,1,81.889,91.8Zm-35.025-1.02h0a4.664,4.664,0,0,1,1.062.106,2.272,2.272,0,0,1,.89.4,2.1,2.1,0,0,1,.674.926l.092-.055.011-.007.125-.075c2.665-1.63,5.284-3.348,7.783-5.108,2.548-1.794,5.042-3.68,7.414-5.606-1.024.04-2.089.084-3.029.123h0c-3.719.153-7.566.312-11.348.375-.889.015-1.794.04-2.67.064h0c-1.395.038-2.837.078-4.256.078-.37,0-.731,0-1.073-.008-.886-.014-1.788-.067-2.66-.118h0c-.439-.026-.892-.052-1.338-.074a10.305,10.305,0,0,1-2.685-.421c-.051.52-.115,1.168-.183,1.8-.3,2.834-.649,5.719-1.027,8.575a34.069,34.069,0,0,1,4.8-.54l4.273-.209.3-.015.245-.012c.3-.015.631-.05.982-.088A15.318,15.318,0,0,1,46.863,90.784ZM126.034,70.7a35.85,35.85,0,0,1-5.447,4.007.94.94,0,0,1-.193.265c-.948.923-1.911,1.864-2.843,2.773l-.1.1c-1.872,1.828-3.808,3.717-5.721,5.571a8.107,8.107,0,0,1,1.43-.2c.26-.02.506-.039.733-.07.875-.119,1.766-.166,2.627-.21l.206-.011,2.068-.109c1.313-.07,2.672-.143,4.009-.206,1.419-.067,2.866-.082,4.266-.1h0c.593-.006,1.205-.012,1.809-.022.557-.009,1.134-.034,1.692-.057.734-.031,1.492-.063,2.236-.063a16.03,16.03,0,0,1,2.449.161,1.493,1.493,0,0,1,.522.182c.014-1.973.042-3.717.084-5.332.052-1.968.121-3.9.207-5.729a1.8,1.8,0,0,1-.348.034c-1.781,0-3.575-.146-5.309-.286h0l-.131-.011-.471-.037a13.345,13.345,0,0,1-3.775-.654ZM36.513,67.275h0c.041.86.063,1.612.067,2.3.009,1.681-.033,3.167-.128,4.543C36.322,76,36.17,77.893,36,79.746a12.542,12.542,0,0,1,2.742-.581c.4-.052.811-.11,1.206-.165h.009c.912-.128,1.854-.26,2.784-.342,1.725-.151,3.484-.254,5.184-.354h.007c.852-.05,1.734-.1,2.6-.159,3.789-.25,7.649-.409,11.382-.564h.015c1.509-.062,3.07-.127,4.6-.2l.108,0A1.674,1.674,0,0,1,68.3,78.525c1.985-1.729,3.92-3.522,5.75-5.331a1.028,1.028,0,0,1,.727-.318,1.017,1.017,0,0,1,.321.053,6.491,6.491,0,0,1-.17-3.857c-2.361-.063-4.753-.12-7.066-.176-4.041-.1-8.219-.2-12.331-.331-1.085-.035-2.187-.058-3.252-.079h0c-2.172-.044-4.419-.09-6.615-.246-.767-.055-1.554-.113-2.249-.164-.776-.057-1.578-.116-2.371-.173a13.431,13.431,0,0,1-3.912-.679,2.814,2.814,0,0,1-.381.065.574.574,0,0,1-.07,0,.824.824,0,0,1-.165-.018Zm100.424-6.424h0a.237.237,0,0,1,.232.194c.247,2.092.32,4.252.39,6.341.021.627.043,1.275.069,1.915.521-1.211,1.128-2.469,1.806-3.741a71.827,71.827,0,0,1,4.182-6.861l.345-.5.008-.011c.5-.725,1.011-1.475,1.536-2.209v-.008c0-.029-.007-.058-.01-.087a.094.094,0,0,1,.022-.076.127.127,0,0,1,.1-.039.145.145,0,0,1,.042.006c.377-.522.735-1,1.095-1.453-4.443.227-8.876.275-13.8.311-4.015.029-8.088.044-12.108.044-4.085,0-8.23-.015-12.32-.046-3.851-.028-7.763-.156-11.546-.28l-.668-.022c-1.976-.065-3.961-.206-6.067-.431a5.548,5.548,0,0,1,.479,1.483,13.2,13.2,0,0,1,.049,4.01,13.639,13.639,0,0,1-1.136,3.847c-.067.146-.152.3-.242.464h0a2.534,2.534,0,0,0-.486,1.752,2.813,2.813,0,0,0,1.356,1.377c.783.014,1.579.024,2.349.035h.024c1.04.014,2.115.029,3.178.05.552.011,1.108.017,1.653.017.484,0,.974,0,1.455-.013.28-.005.572-.024.855-.042.342-.022.7-.044,1.042-.044a4.784,4.784,0,0,1,1.178.125.609.609,0,0,1,.322.193c2.9-.508,5.778-1.1,8.561-1.748,1.573-.369,3.156-.765,4.707-1.18.356-.1.718-.2,1.068-.3a19.978,19.978,0,0,1,2.651-.644,7.77,7.77,0,0,1,1.126-.086,3.274,3.274,0,0,1,3.386,1.965c.555-.273,1.1-.521,1.629-.737.132-.054.282-.119.441-.188l0,0a8.151,8.151,0,0,1,2.913-.853,1.708,1.708,0,0,1,1.078.323,1.348,1.348,0,0,1,.486,1.451,4.205,4.205,0,0,1-.721,1.476,24.884,24.884,0,0,1-1.868,2.335c.678-.106,1.372-.159,2.044-.211h0l.02,0,.434-.034.139-.011c1.732-.141,3.524-.286,5.3-.286a1.754,1.754,0,0,1,.513.075c.028-.511.052-1.033.076-1.538v0c.093-1.964.189-3.994.471-5.955A.148.148,0,0,1,136.936,60.851Zm-86.993,3.7c.949,0,1.913.01,2.845.019.9.009,1.83.018,2.743.019,6.774,0,13.63.2,19.525.385a1.978,1.978,0,0,1,1.367.56c.134-.225.274-.448.415-.662A32.24,32.24,0,0,1,80.431,60.6l0,0c.764-.808,1.554-1.644,2.274-2.512a17.381,17.381,0,0,0,2.282-3.514l.037-.076,0-.01,0-.006.038-.078c-.1,0-.2,0-.31,0-.254,0-.509-.007-.769-.015-1.033-.031-2.136-.063-3.372-.1-2.2-.062-4.4-.118-6.534-.169C71.066,54.05,68,54,65.025,53.945h-.017c-4.831-.084-9.827-.171-14.742-.338-1.806-.061-3.65-.1-5.432-.14h-.008c-5.138-.112-10.451-.227-15.619-.861a121.265,121.265,0,0,1,8.415,12.767,14.924,14.924,0,0,1,3.42-.469L42,64.848h.012c1.264-.072,2.57-.147,3.856-.211C47.063,64.578,48.357,64.55,49.943,64.55Zm-32.434-24c-.178.278-.356.563-.531.848A12.6,12.6,0,0,1,22.62,44.72a45.585,45.585,0,0,1,4.433,5.1l.007.009.508.646c.186.236.373.479.553.713l.234.3a99.267,99.267,0,0,1,11.791-.98c5.8-.2,13.45-.435,21.194-.435.883,0,1.767,0,2.628.009,3.989.027,8.031.071,12.015.13,2.06.031,4.117.065,6.113.1.169,0,.351,0,.591,0h.631a7.831,7.831,0,0,1,4.033.748c.139-.02.265-.037.394-.058.872-.142,1.773-.2,2.644-.255.284-.018.579-.037.869-.059,2.052-.153,4.135-.167,6.15-.18h0l.584,0c4.669-.033,9.415-.036,14.005-.039h.03c3.406,0,6.928,0,10.392-.019,2.832-.012,5.713-.049,8.5-.084,3.4-.043,6.916-.088,10.374-.088,2,0,3.816.015,5.553.045a2.4,2.4,0,0,1,.365.036,38.7,38.7,0,0,0-1.976-5.04c-.519-1.09-1.106-2.191-1.743-3.273a1.928,1.928,0,0,1-1.245.414h-.024c-1.989-.018-4.012-.034-5.968-.049h-.029c-4.122-.033-8.383-.066-12.583-.118-2.11-.026-4.255-.1-6.329-.178h0c-.935-.034-1.9-.069-2.852-.1-1.6-.05-3.19-.2-4.681-.351l-.174-.017-.019,0a13.3,13.3,0,0,1-2.162-.338A23.885,23.885,0,0,1,92.019,46.38a33.717,33.717,0,0,1-6.961-.745,35.968,35.968,0,0,1-6.612-2.081,37.2,37.2,0,0,1-4.507-2.3,1.287,1.287,0,0,1-.456.348c-.169.076-.339.156-.5.235h0a11.168,11.168,0,0,1-1.1.476,4.187,4.187,0,0,1-1.446.2l-.313,0c-.667-.01-1.344-.022-2-.034h-.06L66.8,42.449c-2.006-.033-4.075-.067-6.152-.1-6.836-.1-14.585-.222-22.161-.408-3.9-.1-7.545-.237-11.132-.43-.654-.035-1.332-.062-1.988-.088h-.005a36.817,36.817,0,0,1-7.856-.875h0Zm96.978-10.033h0a23.347,23.347,0,0,1-4.123,7.836c-.133.166-.282.343-.469.559l.026,0,.065-.006c1.423-.135,2.951-.266,4.475-.3.939-.024,1.893-.053,2.817-.081h.011c2.084-.064,4.239-.129,6.357-.144,4.1-.027,8.263-.038,12.289-.047l5.082-.014a49.346,49.346,0,0,0-8.372-8.8l-.047-.038h0l-.032-.026a2.127,2.127,0,0,1-.629,1.115,2,2,0,0,1-1.314.5c-1.9.052-3.857.078-5.977.078-.566,0-1.153,0-1.743-.006-1.62-.011-3.208-.03-4.83-.153l-.439-.032a15.808,15.808,0,0,1-3.145-.436ZM27.558,29.106a53.326,53.326,0,0,0-5.384,5.239,47.76,47.76,0,0,0-3.507,4.464c.232-.037.447-.066.656-.088l1.038-.112h.016c.741-.081,1.507-.164,2.261-.238,1.456-.143,2.947-.206,4.389-.267.576-.024,1.171-.05,1.757-.08,5.708-.293,11.826-.423,19.836-.423.751,0,1.51,0,2.32,0,3.7.01,7.445.025,11.138.046,1.646.009,3.409.02,5.55.034h.313c.245,0,.5,0,.737,0h.16a60.614,60.614,0,0,1-5.852-5.416c-1.3-1.36-2.353-2.507-3.324-3.608a1.7,1.7,0,0,1-.606.526,1.929,1.929,0,0,1-.892.2h-.021c-2.83-.025-5.708-.037-8.8-.037-2.32,0-4.691.007-7.248.021-1.441.008-2.9.037-4.32.065h-.008c-1.153.023-2.345.046-3.517.058l-.445,0c-.7,0-1.4-.016-2.089-.031h0c-.506-.011-1.029-.023-1.543-.028a9.348,9.348,0,0,1-2.615-.328Zm21.785-12.1h0a71.9,71.9,0,0,0-18.306,9.378l.066-.008c1.031-.129,2.1-.263,3.148-.342,2.275-.171,4.6-.257,6.841-.341l.046,0,.958-.036c3.726-.141,7.718-.2,12.942-.2l1.956,0c-.2-.258-.418-.534-.627-.812a48.858,48.858,0,0,1-2.911-4.212c-.109-.182-.233-.423-.377-.7a14.929,14.929,0,0,0-.925-1.621,3.462,3.462,0,0,1-.534-.157.159.159,0,0,1-.107-.125.165.165,0,0,1,.07-.153c.029-.022.061-.042.092-.062h0l.058-.037a1.734,1.734,0,0,0-1.251-.7,1.481,1.481,0,0,0-.937.389.175.175,0,0,1-.112.043.17.17,0,0,1-.153-.1.157.157,0,0,1,.034-.174l.013-.014.014-.014Z" transform="translate(9.718 0.088)"/>
  </g>
  <g id="HEAD" transform="translate(78.592 38.043)">
    <path id="_Skin-2" data-name="âœ‹ Skin" d="M38.328,0C48.612,0,68.457,11.948,68.457,11.948s9.318,39.147,7.44,50.327S64.241,87.152,48.05,87.152s-20.589-5.727-24.484-8.329S11.822,64.375,11.822,64.375s-5.326,1.663-6.89.7c-2.22-1.366-1.951-4.96-2.652-8.435C1.763,54.08,0,51.567,0,50.141c0-5.173,3.666-4.8,5.513-6.042-4.047-4-2.982-17.855,2.116-25.134S28.044,0,38.328,0Z" transform="translate(11.521 18.351)" fill="#d08b5b"/>
    <path id="_Ink-2" data-name="ðŸ– Ink" d="M50.187,96.626a31.227,31.227,0,0,1-4.553-.337,27.313,27.313,0,0,1-4.145-.943l-.5-.156a11.258,11.258,0,0,1-1.652-.626,2.707,2.707,0,0,1-1.321-1.75,1.178,1.178,0,0,1,.046-.78,1.031,1.031,0,0,1,.507-.585l.149-.064a3.453,3.453,0,0,1,1.341-.331,2.6,2.6,0,0,1,.929.182c.682.258,1.387.491,2.1.692a24.645,24.645,0,0,0,4.3.839c.95.094,1.909.141,2.85.141a26.921,26.921,0,0,0,13.247-3.452,24.835,24.835,0,0,0,6.143-4.881,25.509,25.509,0,0,0,4.263-6.441,28.44,28.44,0,0,0,2.268-7.4A26.816,26.816,0,0,0,76.268,63a25.043,25.043,0,0,0-.852-3.909c-.118-.392-.256-.784-.39-1.163-.112-.317-.228-.645-.331-.971a9.534,9.534,0,0,1-.311-1.643c-.016-.124-.032-.251-.05-.375l-.022-.156a26.622,26.622,0,0,1-.173-4.162c0-.342.008-.7.008-1.045,0-.514,0-1.038,0-1.543V48.02c0-1.205,0-2.452.01-3.678l.017-1.972c.005-.581.012-1.269.025-1.972a.427.427,0,0,1-.067.005.494.494,0,0,1-.494-.43c-.05-.626-.156-1.251-.258-1.856-.071-.421-.144-.855-.2-1.287l-.035-.277a9.813,9.813,0,0,0-.68-2.814c-.45-1-.833-2.044-1.2-3.055-.3-.832-.62-1.692-.971-2.521a29.835,29.835,0,0,0-2.857-5.221A29.441,29.441,0,0,0,63.6,18.4a28.241,28.241,0,0,0-5.679-4.226,30.928,30.928,0,0,0-6.52-2.754l-.177.073h0c-.083.034-.169.07-.253.106a49.975,49.975,0,0,0-8.2,4.6,43.447,43.447,0,0,0-3.849,2.935l-.107.092c-.552.473-1.124.961-1.673,1.457-.248.223-.5.454-.742.685-.15.141-.309.294-.485.466a.609.609,0,0,0-.277.4.97.97,0,0,0,.253.7.1.1,0,0,1,.04-.008.116.116,0,0,1,.1.095.113.113,0,0,1-.052.131.753.753,0,0,1-.354.1.7.7,0,0,1-.542-.283,1.1,1.1,0,0,1-.2-.9,3.09,3.09,0,0,1,.757-1.2c.065-.076.127-.147.185-.217l.045-.056c.468-.58,1.03-1.261,1.647-1.922a42.02,42.02,0,0,1,10.481-8.063,32.621,32.621,0,0,0-4.933-.5c-.286-.007-.577-.011-.863-.011-.655,0-1.32.019-1.977.055-1.586.864-3.007,1.688-4.343,2.519-1.2.743-2.376,1.517-3.508,2.3-.521.36-1.07.751-1.781,1.266-.085.062-.182.126-.285.195l0,0a3.765,3.765,0,0,0-.7.546L29.579,17c-.135.176-.432.756-.3,1.017a.258.258,0,0,0,.256.131h.028a.055.055,0,0,1,.054.052.056.056,0,0,1-.042.065.677.677,0,0,1-.159.021.365.365,0,0,1-.3-.136,1.009,1.009,0,0,1-.09-.783c.2-.89,1.194-1.652,2-2.264.2-.156.4-.3.564-.442l.053-.045c1.665-1.418,3.42-2.8,5.216-4.111a35.2,35.2,0,0,0-8.109,2.27,35.686,35.686,0,0,0-7.386,4.154,38.433,38.433,0,0,0-7.785,7.677,46.623,46.623,0,0,0-5.565,9.437,44.8,44.8,0,0,0-1.871,4.9A29.093,29.093,0,0,0,5.01,44.06c-.322,2.662-.161,6.331,2.436,8.691l.031,0c.119-.012.242-.024.363-.032l.2-.013c.258-.014.518-.021.774-.021a10.081,10.081,0,0,1,2.15.2,3.445,3.445,0,0,1,1.784.867A1.753,1.753,0,0,1,13.23,55.1a.123.123,0,0,1-.12.11.087.087,0,0,1-.082-.055,1.873,1.873,0,0,0-1.92-.964,9.119,9.119,0,0,0-1.461.152l-.66.109a11.413,11.413,0,0,0-3.974,1.236,5.744,5.744,0,0,0-1.545,1.319,3.933,3.933,0,0,0-.846,1.834C2.417,60.1,3.173,61.062,3.9,62l0,0,.162.208a9.8,9.8,0,0,1,1.127,1.753,5.259,5.259,0,0,1,.534,2.005,8.367,8.367,0,0,1-.23,2.058,7.131,7.131,0,0,0-.2,2.357c.216,1.508,1.375,2.273,3.446,2.273a16.449,16.449,0,0,0,3.777-.566,1.581,1.581,0,0,1,.377-.044,1.763,1.763,0,0,1,.793.187,1.2,1.2,0,0,1,.559.562A27.185,27.185,0,0,0,19.726,80.8a25.879,25.879,0,0,0,3.7,3.108c.182.125.364.247.54.366A9.988,9.988,0,0,1,27,86.99a.68.68,0,0,1,.051.693.924.924,0,0,1-.733.5c-.135.011-.272.017-.407.017a5.4,5.4,0,0,1-2.28-.536,13.205,13.205,0,0,1-2.048-1.238,30.356,30.356,0,0,1-4.057-3.416,29.266,29.266,0,0,1-3.045-3.622,28.9,28.9,0,0,1-2.416-4.068l-.191.036a16.2,16.2,0,0,1-2.938.3,9.742,9.742,0,0,1-1.609-.126A7.045,7.045,0,0,1,5.811,75.1a5.784,5.784,0,0,1-1.37-.8,5.928,5.928,0,0,1-1.168-1.237,4.719,4.719,0,0,1-.809-2.045A7.268,7.268,0,0,1,2.5,68.809c.044-.281.1-.562.153-.834a4.377,4.377,0,0,0-.216-3.356c-.253-.419-.546-.819-.83-1.206a8.293,8.293,0,0,1-1.4-2.47A5.093,5.093,0,0,1,.04,58.857a6.361,6.361,0,0,1,.6-2.009A6.573,6.573,0,0,1,3.2,54.076a9.672,9.672,0,0,1,3.583-1.243A7.8,7.8,0,0,1,3.6,48.9a14.133,14.133,0,0,1-.9-5.139,20.84,20.84,0,0,1,.261-3.243A27.874,27.874,0,0,1,3.668,37.3a45.9,45.9,0,0,1,2.273-6.137A42.925,42.925,0,0,1,21.412,12.912a37.473,37.473,0,0,1,4.816-2.678A38.574,38.574,0,0,1,36.783,7.079a37.689,37.689,0,0,1,5.5-.407h.326c1.845-1.108,3.825-2.188,5.885-3.209l.428-.21a43.82,43.82,0,0,1,4.636-1.977A27.683,27.683,0,0,1,58.439.011.9.9,0,0,1,58.581,0,.966.966,0,0,1,59.2.235a1.026,1.026,0,0,1,.338.536.708.708,0,0,1-.04.461.794.794,0,0,1-.389.373c-2.469,1.219-5.055,2.272-7.557,3.29-1.606.654-3.267,1.33-4.881,2.043a38.24,38.24,0,0,1,6.336,1.275,45.383,45.383,0,0,1,7.374-2.347l.8-.178A23.768,23.768,0,0,1,66.174,5a8.979,8.979,0,0,1,2.98.456.952.952,0,0,1,.466.333.836.836,0,0,1,.159.477.943.943,0,0,1-.625.89,16.83,16.83,0,0,1-4.229.853l-.019,0-.343.039c-1.8.209-3.265.437-4.6.72-1.108.234-2.222.51-3.311.818a21.578,21.578,0,0,1,2,1.064,44.953,44.953,0,0,1,4.961,3.431,31.664,31.664,0,0,1,4.339,4.192,33.718,33.718,0,0,1,5.976,10.181,14.89,14.89,0,0,1,.742,3.044,10.438,10.438,0,0,1,.066,1.649c0,.262-.007.532,0,.8a.144.144,0,0,1,.093.1,28.556,28.556,0,0,1,.631,4.977v0c.025.372.051.758.08,1.131l.064.83c.138,1.785.281,3.63.4,5.448.039.588.066,1.194.091,1.781a32.149,32.149,0,0,0,.414,4.531,14.9,14.9,0,0,0,1.14,3.211,22.712,22.712,0,0,1,.855,2.116,28.245,28.245,0,0,1,1.374,8.407,30.852,30.852,0,0,1-1.08,8.5,30.5,30.5,0,0,1-3.362,7.868,27.532,27.532,0,0,1-5.47,6.522,29.263,29.263,0,0,1-7.235,4.6,30.373,30.373,0,0,1-8.241,2.36A31.485,31.485,0,0,1,50.187,96.626ZM15.039,63.676c-.022,0-.044,0-.066,0A3.733,3.733,0,0,1,12.982,63l-.321-.23a15,15,0,0,0-1.649-1.057,11.161,11.161,0,0,0-2.237-.881l-.261-.074-.009,0h0c-.227-.065-.461-.132-.692-.193-.213-.056-.429-.106-.642-.149a.411.411,0,0,0-.209-.072c-.136,0-.232.122-.284.362a.11.11,0,0,1,.067.123.081.081,0,0,1-.082.073H6.649a.679.679,0,0,1-.508-.341.783.783,0,0,1-.059-.693,1.369,1.369,0,0,1,.982-.729,5.179,5.179,0,0,1,1.372-.155c.131,0,.268,0,.42.009L9,59a12.99,12.99,0,0,1,1.97.262,10.65,10.65,0,0,1,2.084.654,5.77,5.77,0,0,1,1.734,1.123,3.115,3.115,0,0,1,.921,1.671.935.935,0,0,1-.189.738A.608.608,0,0,1,15.039,63.676Zm-1.5-6.639a.011.011,0,0,1-.008,0l0-.007v-.974a.01.01,0,0,1,.011-.01.011.011,0,0,1,.008,0l0,.006v.974A.01.01,0,0,1,13.54,57.036Z" transform="translate(9.908 9.511)"/>
  </g>
  <g id="FACE" transform="translate(112.183 77.354)">
    <path id="_Ink-3" data-name="ðŸ– Ink" d="M22.824,40.539a8.045,8.045,0,0,1-3.052-.61,8.621,8.621,0,0,1-1.992-1.145,8.487,8.487,0,0,1-1.622-1.636,1.676,1.676,0,0,1-.338-1.3,1.871,1.871,0,0,1,.728-1.172,1.793,1.793,0,0,1,1.067-.372,1.548,1.548,0,0,1,.238.018,1.648,1.648,0,0,1,1.1.73l.065.09A5.7,5.7,0,0,0,21.108,36.9a4.735,4.735,0,0,0,2.069.483,4.583,4.583,0,0,0,.513-.029,5.388,5.388,0,0,0,2.278-.8,10.668,10.668,0,0,0,1.93-1.611c.138-.141.284-.294.474-.5a.751.751,0,0,1,.394-.3.806.806,0,0,1,.256-.041.871.871,0,0,1,.714.373.8.8,0,0,1,.135.524,4.812,4.812,0,0,1-.57,1.864,6.221,6.221,0,0,1-1.22,1.567,7.841,7.841,0,0,1-1.847,1.288,7.69,7.69,0,0,1-2.05.7A7.548,7.548,0,0,1,22.824,40.539Zm2.148-12.17h0a7.373,7.373,0,0,1-2.63-.53,13.281,13.281,0,0,1-3.093-1.756,1.189,1.189,0,0,1-.432-.687,1.423,1.423,0,0,1,.061-.771,1.754,1.754,0,0,1,.521-.753,1.267,1.267,0,0,1,.812-.317,1.151,1.151,0,0,1,.628.193l.209.161,0,0a16.744,16.744,0,0,0,1.936,1.347,4.768,4.768,0,0,0,2.321.74,2.505,2.505,0,0,0,.981-.193,2.74,2.74,0,0,0,.913-.647,2.8,2.8,0,0,0,.531-2.255,4.26,4.26,0,0,0-1.13-2,8.241,8.241,0,0,0-1.711-1.381.531.531,0,0,1-.144-.61.8.8,0,0,1,.264-.38.809.809,0,0,1,.505-.167,1.076,1.076,0,0,1,.181.016,5.736,5.736,0,0,1,2.018.729,4.577,4.577,0,0,1,1.357,1.252,4.974,4.974,0,0,1,.866,3.322,5.475,5.475,0,0,1-.444,1.744,5.087,5.087,0,0,1-1,1.5A4.779,4.779,0,0,1,24.972,28.369ZM7.859,16.485a1.724,1.724,0,0,1-1.119-.439,1.744,1.744,0,0,1-.587-1.128,12.706,12.706,0,0,1,.067-3.308c.04-.321.081-.654.11-1.012a1.98,1.98,0,0,1,.75-1.415,2.31,2.31,0,0,1,1.421-.5,1.751,1.751,0,0,1,1.075.338,1.594,1.594,0,0,1,.594,1.057,8.877,8.877,0,0,1-.926,5.469,1.754,1.754,0,0,1-.619.716A1.427,1.427,0,0,1,7.859,16.485Zm25.119-.75a1.508,1.508,0,0,1-1.183-.507A4.624,4.624,0,0,1,31.074,14a5.342,5.342,0,0,1-.368-1.477,3.131,3.131,0,0,1,.853-2.687,1.772,1.772,0,0,1,.137-.208,1.933,1.933,0,0,1,1.487-.856,1.611,1.611,0,0,1,.452.067,2.175,2.175,0,0,1,1.453,1.268,4.486,4.486,0,0,1,.18,2.453,8.214,8.214,0,0,1-.744,2.314,1.5,1.5,0,0,1-.643.635A1.947,1.947,0,0,1,32.979,15.735ZM.278,7.854a.274.274,0,0,1-.229-.14.306.306,0,0,1-.018-.3A10.425,10.425,0,0,1,2.368,4.454,14.446,14.446,0,0,1,5.5,2.317a13.445,13.445,0,0,1,3.714-1.3l.4-.069A9.66,9.66,0,0,1,11.226.776a2.5,2.5,0,0,1,2,.746,1.7,1.7,0,0,1,.4,1.208,1.106,1.106,0,0,1-.4.789,3.08,3.08,0,0,1-2.112.62c-.166,0-.338,0-.5-.008H10.6c-.16,0-.341-.009-.521-.009s-.314,0-.452.012a14.274,14.274,0,0,0-3.143.536A21.357,21.357,0,0,0,.424,7.806.26.26,0,0,1,.278,7.854Zm38.247-1.6h0l-.167-.042A9.458,9.458,0,0,1,36.524,5.5l-.6-.293A16.537,16.537,0,0,0,33.8,4.3a25.089,25.089,0,0,0-4.845-1.07,1.979,1.979,0,0,1-.972-.369,1.457,1.457,0,0,1-.544-.828A1.482,1.482,0,0,1,27.609.786a1.581,1.581,0,0,1,.767-.661A1.725,1.725,0,0,1,29.03,0a1.926,1.926,0,0,1,.377.038l.3.062a21.676,21.676,0,0,1,5.232,1.7,10.579,10.579,0,0,1,2.3,1.514,6.719,6.719,0,0,1,1.627,2.1c.057.439,0,.548-.055.622L38.8,6.06l-.015.02a.421.421,0,0,1-.26.173Z" transform="translate(11.197 10.99)"/>
  </g>
  <g id="FACIAL_HAIR" data-name="FACIAL HAIR" transform="translate(104.577 109.479)">
    <path id="_Ink-4" data-name="ðŸ– Ink" d="M18.749,31.73h0a15.433,15.433,0,0,1-3.059-.3,25.114,25.114,0,0,1-4.172-.792c-1.537-.4-3.213-.931-4.847-1.526a42.336,42.336,0,0,1-4.228-1.772A7.284,7.284,0,0,1,.129,25.808a.476.476,0,0,1-.123-.373,3.322,3.322,0,0,1,.958-1.876,2.2,2.2,0,0,1,1.5-.5,9.738,9.738,0,0,1,2.72.592c.491.155,1,.314,1.468.421a38.273,38.273,0,0,0,6.52.538c2.868-.625,2.348-5.126,2.152-6.82h0c-.022-.19-.039-.34-.048-.449a4.831,4.831,0,0,1,.2-1.706,4.481,4.481,0,0,1,.894-1.669,3.221,3.221,0,0,1,2.315-1.123c.054,0,.107,0,.16,0a2.685,2.685,0,0,1,1.574.5,4.04,4.04,0,0,1,1.083,1.2,7.43,7.43,0,0,1,.949,2.616c.033.226.063.508.1.833a18.164,18.164,0,0,0,.521,3.085,3.715,3.715,0,0,0,.578,1.224,1.155,1.155,0,0,0,.92.494,1.3,1.3,0,0,0,.307-.039,14.683,14.683,0,0,0,3.416-1.978c.839-.572,1.631-1.113,2.266-1.452a4.221,4.221,0,0,1,1.138-.181,1.594,1.594,0,0,1,1.294.518,2.488,2.488,0,0,1,.31,2.057,12.093,12.093,0,0,1-1.38,2.682,21.55,21.55,0,0,1-1.864,2.671,13.47,13.47,0,0,1-2.381,2.017A15.194,15.194,0,0,1,24.9,30.546,16.672,16.672,0,0,1,18.749,31.73ZM31.733,10.465h0a5.546,5.546,0,0,1-2.555-.772,11.217,11.217,0,0,0-2.146-.857c-.908-.24-1.894-.448-2.847-.65a19.213,19.213,0,0,1-4.442-1.257A16.72,16.72,0,0,1,13.874,8.6h0l-.4.063a22.67,22.67,0,0,0-3.2.842,15.572,15.572,0,0,1-4.4.949c-.134,0-.266,0-.393-.014a.252.252,0,0,1-.1.017,2.066,2.066,0,0,1-1.406-.926,2.578,2.578,0,0,1-.437-1.28,4.48,4.48,0,0,1,.337-1.93A6.191,6.191,0,0,1,5.132,4.343a9.579,9.579,0,0,1,1.95-1.587A17.087,17.087,0,0,1,12.127.725,22.977,22.977,0,0,1,17.344,0a7.13,7.13,0,0,1,2.883.492,7.553,7.553,0,0,1,2.49-.366,14.962,14.962,0,0,1,4.3.691,12.9,12.9,0,0,1,3.972,1.971A6.246,6.246,0,0,1,32.3,4.179a8.063,8.063,0,0,1,.909,1.713,7.358,7.358,0,0,1,.449,1.758,4.149,4.149,0,0,1-.071,1.524,1.529,1.529,0,0,1-1.3,1.254A4.286,4.286,0,0,1,31.733,10.465Z" transform="translate(23.699 6.129)"/>
  </g>
</svg>
