<svg id="peep-48" xmlns="http://www.w3.org/2000/svg" width="240" height="324" viewBox="0 0 240 324">
  <g id="BODY" transform="translate(31.056 135.053)">
    <path id="_Skin" data-name="âœ‹ Skin" d="M19.044,157.28q3.794.235,7.587.374c33.07,1.233,66.113-2.539,99.162-3.364a322.372,322.372,0,0,1,34.439.773,2.276,2.276,0,0,0,2.273-2.274c-2.121-18.314-4.774-36.58-6.149-54.97a8.291,8.291,0,0,1,.459-2.86c.063-.072.39-.878.68-.927-.095.07.335-.053.061-.032,1.66-.272,3.288-2.064,2.083-3.779-12.408-19.025-29.346-36.39-34.8-58.987-1.287-6.109-5.938-6.487-10.892-9.007-1.546-.92-5.325-3.467-5.941-5.238-1.469-6.383,1.118-12.637-6.442-15.22C96.578.384,87.757-.787,82.708.673c-6.16,2.051-5.7,8.994-9.271,13.772-1.848,2.763-5,6.546-7.907,6.97-1.41.205-2.448-2.648-3.856-2.451C39.733,24.294,9.84,60.66.41,80.791c-2.125,6.336,4.729,4.424,4.307,10.792-.519,12.081-1.654,27.547-.981,39.642.631,7.02.164,14.376,2.345,21.132-.587.713.256,1.434.945,1.743C7.893,155.576,16.427,157.075,19.044,157.28Z" transform="translate(5.105 -6.763)" fill="#d08b5b"/>
    <path id="_Top" data-name="ðŸ‘• Top" d="M61.674.006c1.313-.183,1.4,3.678,2.669,3.845,5.9,8.286,15.043,11.037,25.617,11.037q16.837,0,27.305-10.131l.64.27c3.3,1.4,6,2.821,6.938,7.25,5.449,22.6,22.388,39.962,34.8,58.987,1.2,1.715-.423,3.507-2.083,3.779.274-.021-.156.1-.061.032-.29.05-.617.856-.68.927a7.3,7.3,0,0,0-.348,1.363s-13.9,2.946-17.637,3.027c-37.525.812-106.147-.348-106.147-.348L3.939,69.169C2.3,66.7-1.189,66.6.41,61.835,9.84,41.7,39.733,5.337,61.674.006Z" transform="translate(5.105 12.193)" fill="#e86bbb"/>
    <path id="_Ink" data-name="ðŸ– Ink" d="M37.576,153.9c-1.532,0-2.917-.047-4.235-.143a.23.23,0,0,1-.156-.07,2.751,2.751,0,0,1-1.635-.829,2.137,2.137,0,0,1-.646-1.684l0-.022c.48-5.035,1.024-10.742,1.553-16.263.973-10.192,1.888-19.684,2.8-29.018l.136-1.4c.306-3.149.617-6.5.772-9.8-.773-.055-1.552-.125-2.315-.209-2.034-.223-4.121-.551-6.2-.976-1.987-.405-4.031-.911-6.076-1.5-1.938-.562-3.94-1.219-5.951-1.955-1.889-.691-3.85-1.475-5.829-2.33l-.312-.135c-.463-.2-.948-.4-1.462-.612l-.005,0-.762-.314c.008.878-.007,1.769-.021,2.63-.009.586-.019,1.193-.022,1.789-.007,1.7,0,3.418.007,5.085v.007c0,.719.006,1.462.008,2.192.013,4.337.153,8.962.454,15,.688,13.867,1.285,21.4,1.728,26.419.092,1.042.2,2.1.309,3.124v0c.119,1.149.243,2.338.342,3.508a3.926,3.926,0,0,1-.185,1.77A2.537,2.537,0,0,1,8.7,149.471a1.347,1.347,0,0,1-.681.2,2.237,2.237,0,0,1-.943-.274,2.337,2.337,0,0,1-1.236-1.407,7.87,7.87,0,0,1-.335-1.914c-.01-.107-.019-.2-.028-.3-.113-1.13-.215-2.255-.292-3.109-.2-2.264-.374-4.5-.509-6.643-.282-4.513-.456-8.958-.515-13.211-.063-4.492,0-8.939.183-13.219.179-4.169.437-8.333.77-12.378l.08-.95c.06-.7.116-1.431.17-2.133v-.007c.2-2.613.411-5.315.864-7.915A17.867,17.867,0,0,1,2.91,84.378,7.367,7.367,0,0,1,.531,81.684a4.586,4.586,0,0,1-.18-3.9,6.232,6.232,0,0,1,1.016-1.637,9.458,9.458,0,0,1,1.471-1.387,2.729,2.729,0,0,1,.059-.814,57.881,57.881,0,0,1,2.675-7.94C6.6,63.39,7.735,60.824,8.944,58.383a95.316,95.316,0,0,1,8.723-14.256A97.064,97.064,0,0,1,28.725,31.594a84.791,84.791,0,0,1,13.069-10.3,75.273,75.273,0,0,1,7.162-4.022l.364-.177a28.61,28.61,0,0,1,5.545-2.181c.19-.141.392-.283.6-.421a1.4,1.4,0,0,1,.776-.231,1.675,1.675,0,0,1,.818.221,1.722,1.722,0,0,1,.618.585,3.931,3.931,0,0,1,.75-.448l.282-.129a10.953,10.953,0,0,1,4.3-1.154,5.018,5.018,0,0,1,1.319.169A3.683,3.683,0,0,1,66.8,15.75a26.4,26.4,0,0,0,2.753-1.627,22.85,22.85,0,0,0,3.925-3.536,21.73,21.73,0,0,0,3.012-4.25,19.019,19.019,0,0,0,1.819-4.875A1.812,1.812,0,0,1,79.005.348,1.9,1.9,0,0,1,80.139,0a2.432,2.432,0,0,1,1.021.229,2.187,2.187,0,0,1,.816.644,1.854,1.854,0,0,1,.293,1.679A21.373,21.373,0,0,1,79.8,8.209a19.143,19.143,0,0,1-4.036,4.658,21.057,21.057,0,0,1-4.229,2.717,14.768,14.768,0,0,1-4.875,1.449c.164.159.327.328.485.491h0c.141.146.288.3.435.442a29.081,29.081,0,0,0,2.229,1.978,32.305,32.305,0,0,0,5.045,3.409,33.363,33.363,0,0,0,4.24,1.9,35.469,35.469,0,0,0,4.4,1.3,41.38,41.38,0,0,0,9.119.979,50.9,50.9,0,0,0,5.635-.323,57.022,57.022,0,0,0,5.73-.911,36.336,36.336,0,0,0,5.558-1.638,19.693,19.693,0,0,0,4.712-2.57l.374-.281a7.962,7.962,0,0,0,2.223-2.243,1.858,1.858,0,0,1-.407.044,4.039,4.039,0,0,1-2.078-.764,14.255,14.255,0,0,1-1.74-1.366,12.608,12.608,0,0,1-2.67-3.511,12.911,12.911,0,0,1-1.367-4.17,9.511,9.511,0,0,1-.056-2.2,7.437,7.437,0,0,1,.51-2.111.18.18,0,0,1,.164-.119.171.171,0,0,1,.167.164,18.092,18.092,0,0,0,.994,4.526,11.959,11.959,0,0,0,1,2.053,10.843,10.843,0,0,0,1.445,1.86,11.862,11.862,0,0,0,3.517,2.5l.185.085a2.512,2.512,0,0,1,1.383,1.116.685.685,0,0,1,.078,0,.731.731,0,0,1,.19.026c.071.019.141.041.22.07a2.216,2.216,0,0,1-.224-1.1,1.313,1.313,0,0,1,.423-.97,1.327,1.327,0,0,1,.884-.321,1.413,1.413,0,0,1,.831.266,1.3,1.3,0,0,1,.5.793c-.016-.054-.036-.086-.053-.086s-.015.008-.017.021a.115.115,0,0,0,.081.118h0a.822.822,0,0,1,.014.082l0,.037,0-.031c0-.02,0-.04-.008-.062l0-.027a.2.2,0,0,0,.085.017l.014.005.105.048h0c.072.033.154.07.188.084a4.862,4.862,0,0,0,.657.174c.176.038.358.077.53.131a3.789,3.789,0,0,1,2.09,1.412,3.9,3.9,0,0,1,.657,1.742,41.909,41.909,0,0,1,5.373,3.082,35.223,35.223,0,0,1,4.8,3.9,53.705,53.705,0,0,1,4.572,5.088,65.318,65.318,0,0,1,3.935,5.567,97.732,97.732,0,0,1,6.4,12.076c1.82,4.021,3.429,8.054,5.285,12.87l.263.683c1.4,3.653,2.021,5.685,2.4,7.047a37.822,37.822,0,0,1,1.354,7.308,1.8,1.8,0,0,1-.368,1.217,4.171,4.171,0,0,1,.125,1.12c0,.062-.007.124-.011.171h.036a2.139,2.139,0,0,1,1.709.947,1.2,1.2,0,0,1,.364-.058,1.126,1.126,0,0,1,.348.055c1.38.441,1.674,1.9,1.932,3.188q.025.124.05.245a21.428,21.428,0,0,1,.412,4.246,1.743,1.743,0,0,1-.208.794,1.269,1.269,0,0,1-.578.575c-.545.24-1.125.436-1.686.624-.4.134-.808.272-1.206.426-.744.287-1.477.553-2.178.791a6.537,6.537,0,0,1,.573,1.719v0c.06.255.117.5.183.718.328,1.11.607,2.263.854,3.525.88,4.526,1.621,9.155,2.338,13.631.567,3.541,1.153,7.2,1.8,10.788.759,4.19,1.636,8.3,2.47,12.151.445,2.053.91,4.052,1.382,5.943.263,1.057.538,2.117.816,3.151.078.291.159.59.248.915l.147.533a1.92,1.92,0,0,1,.786.814,2.783,2.783,0,0,1,.242,2.029,2.52,2.52,0,0,1-.457.893,2.815,2.815,0,0,1-.822.7,2.544,2.544,0,0,1-1.272.339,3.264,3.264,0,0,1-2.706-1.63,8.708,8.708,0,0,1-.835-2.472v0c-.062-.269-.121-.523-.187-.772-.293-1.106-.587-2.267-.9-3.551-.937-3.867-1.75-7.849-2.485-12.175-.652-3.84-1.228-7.865-1.76-12.3l-.07-.588c-.483-4.088-.981-8.438-1.3-12.736-.166-2.247-.281-4.3-.353-6.275-.038-1.085.024-2.18.085-3.238.009-.159.02-.325.03-.472h0c.021-.309.042-.629.052-.943l0-.067v-.006c0-.045.009-.106.013-.17l0-.08c-1.391.435-2.881.825-4.43,1.158a37.486,37.486,0,0,1-7.962.926c-.575,0-1.15-.017-1.71-.051.5,5.9,1.107,11.153,1.865,16.056.79,5.1,1.714,10.257,2.746,15.329.5,2.443,1.04,4.944,1.667,7.645.117.5.242,1.009.363,1.5v0c.207.839.42,1.706.6,2.566a3.4,3.4,0,0,1-.119,2.249c.28.762.536,1.528.784,2.268v0l0,.006c.081.243.165.493.247.735l.1.288c.107.314.235.634.358.943a9.062,9.062,0,0,1,.643,2.081,3.071,3.071,0,0,1-.026,1.034,2.749,2.749,0,0,1-.445,1.023,3.214,3.214,0,0,1-2.535,1.378l-.019.012h0l-.035.021a2.368,2.368,0,0,1-1.132.276,2.786,2.786,0,0,1-.57-.06c-1.019.2-1.852.354-2.624.486-2.071.358-4.2.666-6.522.943-3.769.449-7.86.748-12.507.915-3.227.116-6.669.173-10.521.173-4.889,0-9.861-.092-14.669-.181h-.026c-4.809-.089-9.781-.181-14.672-.181-2.135,0-4.1.017-6.011.052-7.1.129-14.747.442-23.368.958L54,153.146c-2.959.18-6.019.366-9.029.515l-1.2.058C41.9,153.809,39.736,153.9,37.576,153.9ZM142.535,87.655c.135,2.048.283,4.058.439,5.973l2.245-.515c2.161-.5,4.458-1.035,6.7-1.685,1.522-.441,3.133-.982,4.923-1.655.907-.341,1.733-.675,2.525-1.021a12.762,12.762,0,0,0,1.186-.614l.328-.187a18.786,18.786,0,0,0-.418-2.642c-.061-.269-.149-.548-.234-.817-.062-.2-.126-.4-.181-.6a1.277,1.277,0,0,1-.355.051,1.242,1.242,0,0,1-.148-.009c.054.007.083.018.085.035.006.046-.191.122-.364.19-.086.034-.168.065-.215.09l-.013.007c-.331.19-.645.362-.959.526-.69.363-1.446.72-2.309,1.09A27.952,27.952,0,0,1,151,87.4a25.1,25.1,0,0,1-4.923.606c-.144,0-.287,0-.422,0A11.458,11.458,0,0,1,142.535,87.655ZM3.723,76.415h0l-.059.119a4.842,4.842,0,0,0-.6,2.524,2.7,2.7,0,0,0,.388,1.18,3.562,3.562,0,0,0,1.04,1.054,19.576,19.576,0,0,0,2.738,1.547c1.37.652,2.816,1.2,4.213,1.738.346.132.7.269,1.051.4l.343.134c3.345,1.313,6.416,2.37,9.387,3.231,1.656.479,3.3.9,4.877,1.249,1.677.372,3.342.677,4.95.907,1.345.191,2.766.335,4.225.429.021-1.7.014-3.428.008-5.1v0q0-.3,0-.6l-.519-.067c-.318-.041-.647-.084-.964-.122-1.552-.181-2.985-.39-4.382-.64a66.629,66.629,0,0,1-8.97-2.253,56.644,56.644,0,0,1-7.855-3.246A55.678,55.678,0,0,1,6.337,74.5a4.06,4.06,0,0,1-.593,1.269,1.837,1.837,0,0,1-1.127.731,1.672,1.672,0,0,1-.342.037,1.241,1.241,0,0,1-.552-.124ZM63.609,15.406a7.561,7.561,0,0,0-2.826.631c-.443.189-.9.385-1.335.621l-.083.047c-.5.29-.5.467-.254,1.037a17.248,17.248,0,0,0,1.155,2.146l.03.05A30.35,30.35,0,0,0,67.2,27.809a37.138,37.138,0,0,0,5.859,3.9,41.153,41.153,0,0,0,6.516,2.8,44.164,44.164,0,0,0,6.93,1.692,45,45,0,0,0,7.1.567h0a42.649,42.649,0,0,0,9.1-.967,36.113,36.113,0,0,0,8.376-2.9,28.189,28.189,0,0,0,7.233-5.089l.388-.386a21.737,21.737,0,0,0,2.658-3.064,8.313,8.313,0,0,0,.948-1.8,4.648,4.648,0,0,0,.3-1.887,1.247,1.247,0,0,0-.575-1.067,3.745,3.745,0,0,0-1.2-.392c-.107-.023-.217-.047-.326-.072a4.452,4.452,0,0,1-1.164-.429,1.868,1.868,0,0,1-.083.986,4.808,4.808,0,0,1-.512,1.054,9.933,9.933,0,0,1-1.379,1.7,19.142,19.142,0,0,1-5.59,3.724,33.4,33.4,0,0,1-6.055,2.013,58.612,58.612,0,0,1-6.3,1.092,50.878,50.878,0,0,1-6.262.395A44.913,44.913,0,0,1,85,28.959a36.349,36.349,0,0,1-6.1-1.68,30.545,30.545,0,0,1-5.667-2.8,26.012,26.012,0,0,1-4.6-3.593l-.289-.292c-.469-.475-1.01-1.033-1.5-1.636a8.5,8.5,0,0,1-1.209-1.869h-.082c-.194,0-.391-.007-.585-.02a.183.183,0,0,1-.164-.144.147.147,0,0,1,.079-.169c.166-.088.344-.182.526-.277-.033-.108-.057-.2-.076-.29a.106.106,0,0,1,.022-.089.1.1,0,0,1,.075-.038.092.092,0,0,1,.048.014c.1.059.2.125.306.2.027-.012.054-.027.082-.042A2.969,2.969,0,0,0,63.609,15.406Z" transform="translate(2.958 -1.39)"/>
  </g>
  <g id="HEAD" transform="translate(78.592 38.043)">
    <path id="_Skin-2" data-name="âœ‹ Skin" d="M76,44.188c-.5-6.5.275-13.308-2.224-19.484C69.421,14.457,57.2,11.04,47.73,7.139,43.935,6.015,31.166,5.857,26.723,4.37,16.666,1,14.264-3.01,6.273,3.4A8.707,8.707,0,0,0,3.465,7.314l.025.007A2.172,2.172,0,0,0,3.9,9.192a13.092,13.092,0,0,0-3.137,13.6c5.8,12.3,5.528,18.948,3.659,32.169C1.98,67.3,7.558,71.812,16.8,78.527a2.28,2.28,0,0,0,.036,2.348C27.513,95.923,47.654,103.108,64.91,95.47c7-3.125,10.132-10.6,11.916-17.352A48.4,48.4,0,0,0,77.852,54.9,96.346,96.346,0,0,1,76,44.188Z" transform="translate(7.8 7.33)" fill="#d08b5b"/>
    <path id="bandana" d="M0,25.756,6.351,30,29.086,5.97,21.521,0S7.795,10.17,5.1,12.854,0,25.756,0,25.756Z" transform="translate(7.295 7.33)" fill="#9fd8e5"/>
    <path id="_Ink-2" data-name="ðŸ– Ink" d="M81.073,127.8a31.823,31.823,0,0,1-7.61-.956,39,39,0,0,1-5.17-1.683,3.087,3.087,0,0,1-1.322-.907,1.222,1.222,0,0,1-.274-.965,1.124,1.124,0,0,1,1.184-.847,2,2,0,0,1,.633.109,46.105,46.105,0,0,0,5.121,1.4,31.73,31.73,0,0,0,6.472.735,20.721,20.721,0,0,0,2.679-.166,30.726,30.726,0,0,0,8.753-2.317,19.92,19.92,0,0,0,3.83-2.266,18.58,18.58,0,0,0,3.314-3.253,21.74,21.74,0,0,0,2.685-4.425,30.724,30.724,0,0,0,1.943-5.784A48.279,48.279,0,0,0,104.4,99.15a78.572,78.572,0,0,0,.119-9.06c-.071-1.747-.211-3.523-.347-5.24-.158-2-.322-4.062-.376-6.092-.039-1.482-.057-2.988-.074-4.444-.026-2.174-.052-4.423-.15-6.633l-.054-1.259c-.064-1.486-.131-2.943-.241-4.422-.04-.174-.079-.352-.117-.523-.086-.392-.175-.8-.288-1.186a25.54,25.54,0,0,0-1.731-4.419,1.221,1.221,0,0,1-.527.241,8.476,8.476,0,0,1-1.513.143,6.428,6.428,0,0,1-2.674-.564,6.581,6.581,0,0,1-1.72-1.118,2.629,2.629,0,0,1-.546-.649h-.049a2.7,2.7,0,0,1-.932-.158A1.863,1.863,0,0,1,92,52.441a1.479,1.479,0,0,1,.063-.8l.019-.052-.046-.017a8.129,8.129,0,0,1-2.882,3.572,9.191,9.191,0,0,1-3.173,1.392,15.707,15.707,0,0,1-3.461.4l-.345,0a47.836,47.836,0,0,1-7.4-.759c-.8-.127-1.405-.247-1.971-.389l-.03.031c-.016.017-.032.034-.048.049a7.351,7.351,0,0,1-2.336,1.523,7.03,7.03,0,0,1-2.65.516,7.383,7.383,0,0,1-2.941-.618,10.423,10.423,0,0,1-2.193-1.3,15.208,15.208,0,0,1-1.886-1.737c-.018.7-.053,1.35-.108,1.972l-.024.259a5.169,5.169,0,0,1-1.258,3.384,3.093,3.093,0,0,1-2.219.86,5.3,5.3,0,0,1-1.592-.27,8.908,8.908,0,0,1-1.531-.663c0,.044,0,.092,0,.137.426,1.452.861,2.93,1.282,4.359l.009.03.1.333.1.336.1.34v0a15.115,15.115,0,0,1,.7,3.064,3.977,3.977,0,0,1-.909,3,2.526,2.526,0,0,1-1.906.847,3.3,3.3,0,0,1-.954-.149,7.933,7.933,0,0,1-2.855-1.929l0,0c-.167-.151-.324-.294-.484-.435l-.63-.546a71.529,71.529,0,0,1,2,8.135,52.227,52.227,0,0,1,.861,8.31.547.547,0,0,1-.54.541c-.058,0-.116,0-.175,0a5.179,5.179,0,0,1-1.891-.378,1.085,1.085,0,0,1-.116-.011,7.794,7.794,0,0,1-3.162-1.2,5.9,5.9,0,0,1,.257,2.209.2.2,0,0,1-.2.174.148.148,0,0,1-.152-.128,5.194,5.194,0,0,0-2.013-3.038,6.2,6.2,0,0,0-1.665-.907,5.421,5.421,0,0,0-1.833-.331,4.624,4.624,0,0,0-.862.08,6.652,6.652,0,0,0-3.667,2.087,7.622,7.622,0,0,0-1.205,1.763,7.75,7.75,0,0,0-.681,2.042,10.468,10.468,0,0,0,.294,4.733,11.977,11.977,0,0,0,.9,2.248,10.818,10.818,0,0,0,1.308,1.962,6.1,6.1,0,0,0,3.548,2.221,4.648,4.648,0,0,0,.725.057,4.419,4.419,0,0,0,1.243-.175,6.583,6.583,0,0,0,.644-.242l.136-.056a3.6,3.6,0,0,1,.565-.159,3.121,3.121,0,0,0,.6-.177,1.027,1.027,0,0,1,.424-.094.888.888,0,0,1,.764.415.9.9,0,0,1,.017.886,3.472,3.472,0,0,1-1.261,1.579,11.093,11.093,0,0,1,.834,1.24c.1.168.182.3.235.372a37.338,37.338,0,0,0,2.58,3.166,26.946,26.946,0,0,0,3.078,2.834l.46.364a10.855,10.855,0,0,1,2.715,2.817,1.415,1.415,0,0,1,.01,1.448,1.549,1.549,0,0,1-.517.554,1.384,1.384,0,0,1-.745.22h-.019a6.1,6.1,0,0,1-2.405-.542,8.608,8.608,0,0,1-2.074-1.344,19.265,19.265,0,0,1-3.236-3.833c-.246-.368-.486-.767-.713-1.188a2.538,2.538,0,0,1-.268.359l.2.528a1.186,1.186,0,0,1-.129,1.135,1.567,1.567,0,0,1-.592.5,1.729,1.729,0,0,1-.767.185,1.354,1.354,0,0,1-.664-.166,1.231,1.231,0,0,1-.5-.535,22.171,22.171,0,0,0-1.826-3,1.552,1.552,0,0,1-1.016-.619c-.18-.261-.37-.527-.554-.785-.39-.546-.793-1.111-1.148-1.692-.274-.261-.567-.523-.9-.8l-.045.04,0,0c-.072.064-.147.129-.218.2a11.212,11.212,0,0,1-1.446,2.433l-.126.161a12.334,12.334,0,0,1-1.947,2.018A5.724,5.724,0,0,1,29.206,109a.616.616,0,0,1-.115.011.707.707,0,0,1-.639-.442.522.522,0,0,1,.157-.6,20.109,20.109,0,0,1,1.68-1.312,14.59,14.59,0,0,0,2.266-1.892,14.229,14.229,0,0,0,1.564-2.051l.1-.168c.069-.113.143-.233.234-.376-.53-.362-1.068-.731-1.588-1.088a13.6,13.6,0,0,1-2.925,1.753,20.428,20.428,0,0,0-2.04,1.1l-.16.105a1.356,1.356,0,0,1-.761.246,1.329,1.329,0,0,1-.809-.288,1.743,1.743,0,0,1-.537-.705,1.45,1.45,0,0,1,.284-1.623,31.911,31.911,0,0,0,2.6-3.133h0c.294-.386.6-.784.9-1.169a8.448,8.448,0,0,1-.885-3.345c-.038-.342-.069-.694-.1-1v0h-.053a4.061,4.061,0,0,1-2.283-.753l-.263-.188a7.95,7.95,0,0,1-2.39.381l-.193,0a2.229,2.229,0,0,1-1.226-.388,2.149,2.149,0,0,1-.741-.907,2.323,2.323,0,0,1-.17-1.26,2.42,2.42,0,0,1,.571-1.241,4.417,4.417,0,0,1,3.376-1.451,5.1,5.1,0,0,1,1.9.367c.056-.029.116-.061.173-.093a2.053,2.053,0,0,1,.03-1.052l-.028-.189a4.892,4.892,0,0,1-.741-2,4.638,4.638,0,0,1,.071-1.7,2.891,2.891,0,0,1,.132-.386c.025-.063.05-.128.073-.193a3.746,3.746,0,0,1-.254-1.118c-.037-.044-.079-.1-.118-.15a3.03,3.03,0,0,1-.575-1.95,3.075,3.075,0,0,1,.71-1.773c0-.066.01-.13.018-.19-.048-.108-.093-.221-.135-.334a3.776,3.776,0,0,1-1.3-3.049,3.178,3.178,0,0,1,.812-1.863,1.059,1.059,0,0,1,.009-.739,8.853,8.853,0,0,1-.518-3.091,13.828,13.828,0,0,1,.407-3.261,2.884,2.884,0,0,1-.16-1.053,3.234,3.234,0,0,1,.929-2.1,3.138,3.138,0,0,1,.949-.671,2.752,2.752,0,0,1,1.143-.251h.031a2.753,2.753,0,0,1,.554.065l0-.038a4.275,4.275,0,0,1,.384-1.312.829.829,0,0,1-.257-.148,14.456,14.456,0,0,1-3.3,1.271,1,1,0,0,1-.242.03,1.159,1.159,0,0,1-.989-.607.928.928,0,0,1,.042-.975,7.12,7.12,0,0,1,.806-1.007,10.323,10.323,0,0,0-1.258.085,1.477,1.477,0,0,1-.19.012,2.056,2.056,0,0,1-1.056-.327,2.934,2.934,0,0,1-.864-.813c-.616.6-1.241,1.206-1.846,1.792l0,0a2.364,2.364,0,0,1-1.666.706,2.473,2.473,0,0,1-1.643-.645,2.664,2.664,0,0,1-.866-1.663,3.513,3.513,0,0,1-1.282-.638A21.4,21.4,0,0,1,11.13,57.4a22.5,22.5,0,0,1-4.01.527l-.1,0a2.226,2.226,0,0,1-1.2-.341A2.5,2.5,0,0,1,5,56.723a2.738,2.738,0,0,1-.368-1.276,2.5,2.5,0,0,1,.317-1.319A12.685,12.685,0,0,1,7.19,51.242,26.28,26.28,0,0,1,3,52.15a1.3,1.3,0,0,1-.171.011,2.328,2.328,0,0,1-1.179-.383A2.127,2.127,0,0,1,.821,50.9a9.407,9.407,0,0,1,.28-8.26c.042-.085.089-.168.135-.248h0l.033-.059c.143-.357.3-.708.462-1.044A5.343,5.343,0,0,1,.3,38.175a6.923,6.923,0,0,1,.509-3.434A2.206,2.206,0,0,1,.557,32.8a17.037,17.037,0,0,1,1.28-2.655,16.293,16.293,0,0,1,1.712-2.368,5.14,5.14,0,0,1-.58-2.46,6.273,6.273,0,0,1,.257-1.724,6.414,6.414,0,0,1,1.8-2.927,8.69,8.69,0,0,1,3.567-1.9,10.193,10.193,0,0,1,2.066-2.576l0-.005c.031-.068.062-.136.1-.2a7.268,7.268,0,0,1,2.584-2.786,8,8,0,0,1,1.674-.795,8.932,8.932,0,0,1,1.819-.411,2.661,2.661,0,0,1,.516-1.309,2.29,2.29,0,0,1,1.133-.822,7.754,7.754,0,0,1,1.149-2.3,3.264,3.264,0,0,1,1-.906,2.395,2.395,0,0,1,2.45,0,15.141,15.141,0,0,1,2,1.365,2.743,2.743,0,0,1,.963-.246l.091-.006,2.079-.106c.552-.245,1.112-.5,1.654-.751.3-.136.631-.289.957-.437a6.985,6.985,0,0,1,1.744-1.063,7.086,7.086,0,0,1,2.2-.531,18.845,18.845,0,0,1,1.822-.505,20.076,20.076,0,0,1,4.286-.481h.175c.031-.4.046-.794.043-1.183l0-.2a2.351,2.351,0,0,1,.63-1.652A2.652,2.652,0,0,1,43.27.029,2.578,2.578,0,0,1,43.652,0,2.263,2.263,0,0,1,45.09.505a3.123,3.123,0,0,1,.922,1.272l.024.061c.143.371.305.741.5,1.133A8.763,8.763,0,0,1,48.449,2.3,9.242,9.242,0,0,1,50.5,2.065a8.018,8.018,0,0,1,3.375.713,6.35,6.35,0,0,1,1.437.919,5.887,5.887,0,0,1,1.147,1.32,4.928,4.928,0,0,1,.658,1.6A6.483,6.483,0,0,1,57.251,8.3a18.193,18.193,0,0,1-.586,3.412c-.063.263-.127.535-.187.8l-.363,1.612a2.755,2.755,0,0,1,.874.9,2.176,2.176,0,0,1,.33,1.182l0,.064-.147,2.249a11.69,11.69,0,0,0,1.278-1.545c.269-.493.556-.971.854-1.42a2.48,2.48,0,0,1,2.09-1.2,2.67,2.67,0,0,1,2.235,1.258,2.47,2.47,0,0,1,.026,2.486,15.226,15.226,0,0,1-.949,1.6,14.258,14.258,0,0,0-.951,2.327,2.223,2.223,0,0,1,1.3,2.014A5.964,5.964,0,0,1,62.9,25.76a5.835,5.835,0,0,1-.611,1.538,6.44,6.44,0,0,1-1.011,1.324,7.532,7.532,0,0,1-1.35,1.077,2.274,2.274,0,0,1-1.223.369A2.161,2.161,0,0,1,58.183,30c-.09.121-.191.259-.287.4a12.738,12.738,0,0,1,2.133,2.209,38.478,38.478,0,0,1,5.6-.414,10.233,10.233,0,0,1,4.537-.945,17.541,17.541,0,0,1,2.941.266,29.322,29.322,0,0,1,2.951.718h0c.556.156,1.132.318,1.7.456a22.023,22.023,0,0,0,2.975.44c.653.066,1.327.134,1.99.243a8.91,8.91,0,0,1,2.891.975,6.8,6.8,0,0,1,2.188,1.878,7.529,7.529,0,0,1,3.7,1.264c1.656,1.058,3.333,2.145,4.955,3.2l.009.006c.894.579,1.818,1.177,2.731,1.766a2.63,2.63,0,0,1,1.172,2.781l-.012.072-.086.469.2.289.177.25a17.418,17.418,0,0,1,1.971,3.253,37.733,37.733,0,0,1,2.543,4.252,30.976,30.976,0,0,1,2.418,6.214c.132.507.281,1.081.375,1.644a4.317,4.317,0,0,1-.091,1.609h0c-.032.17-.065.345-.092.528-.066.454-.113.919-.159,1.369-.05.493-.1,1-.178,1.5a1.065,1.065,0,0,1-.424.71,1.381,1.381,0,0,1-.771.249c.21,1.6.36,3.2.508,4.834.222,2.49.364,4.995.464,6.9a5.458,5.458,0,0,0,2.8,1.864,4.052,4.052,0,0,0,1.05.133,8.264,8.264,0,0,0,2.743-.6.778.778,0,0,1,.265-.048.835.835,0,0,1,.712.45.915.915,0,0,1,.026.909,3.2,3.2,0,0,1-1.338,1.281,3.812,3.812,0,0,1-1.737.387,5.712,5.712,0,0,1-2.413-.567,5.155,5.155,0,0,1-2-1.612c.03.633.063,1.278.094,1.9v.008l0,.1.031.607c.063,1.178.14,2.385.214,3.553.187,2.945.381,5.99.386,8.984,0,1.613-.048,3.077-.155,4.475a39.993,39.993,0,0,1-.574,4.424,27.824,27.824,0,0,1-3.089,8.484,27.331,27.331,0,0,1-5.472,6.868,26.432,26.432,0,0,1-7.339,4.724,25.8,25.8,0,0,1-8.69,2.051C82.193,127.787,81.631,127.8,81.073,127.8Zm-39.26-25.47h0c-.213.046-.423.081-.624.106l.008.02c.059.145.119.3.179.449.173.1.345.189.51.27a4.353,4.353,0,0,1-.074-.845ZM31.131,99.477a4.714,4.714,0,0,1,.536.031v-.031l-.017-.006a.758.758,0,0,1-.1-.037,4.668,4.668,0,0,1-.572-.327l-.14.259-.06.112-.007.013C30.893,99.481,31.013,99.477,31.131,99.477ZM28.377,61.266c-.214.007-.289.108-.288.174a.052.052,0,0,0,.053.057c.023,0,.086-.014.168-.144A.646.646,0,0,1,28.377,61.266ZM52.5,32.2a15.456,15.456,0,0,0-6.23,1.667,28.816,28.816,0,0,0-5.434,3.483,36.982,36.982,0,0,0-3.868,3.591A47.464,47.464,0,0,0,33.589,45a44.2,44.2,0,0,0-1.4,4.29c-.167.613-.3,1.241-.42,1.849v0c-.069.339-.141.689-.219,1.033l-.067.3a4.652,4.652,0,0,0-.39,1.019,3,3,0,0,0,1.432.794.887.887,0,0,1,.44.255,9.323,9.323,0,0,0,1.053-2.347l.008-.038A48.569,48.569,0,0,1,36.785,48.1a57.962,57.962,0,0,1,4.341-5.137,41.709,41.709,0,0,1,5-4.484,31.565,31.565,0,0,1,4.334-2.756,30.122,30.122,0,0,1,4.721-1.993A9.889,9.889,0,0,0,52.5,32.2Zm-7.65,61.6-.067,0c-1.3-.089-2.187-1.084-3.044-2.047-.306-.344-.6-.669-.9-.957a20.287,20.287,0,0,0-4.126-3.031A.233.233,0,0,1,36.6,87.5a.236.236,0,0,1,.211-.2h.025a16.278,16.278,0,0,1,2.634.341,11.436,11.436,0,0,1,2.508.873l.146.071a11.98,11.98,0,0,1,2.525,1.589,4.251,4.251,0,0,1,.954,1.142,2.327,2.327,0,0,1,.29,1.369,1.434,1.434,0,0,1-.315.759A.937.937,0,0,1,44.853,93.8Z" transform="translate(-21.082 -20.501)"/>
  </g>
  <g id="FACE" transform="translate(112.183 77.354)">
    <path id="_Ink-3" data-name="ðŸ– Ink" d="M22.824,40.539a8.045,8.045,0,0,1-3.052-.61,8.621,8.621,0,0,1-1.992-1.145,8.487,8.487,0,0,1-1.622-1.636,1.676,1.676,0,0,1-.338-1.3,1.871,1.871,0,0,1,.728-1.172,1.793,1.793,0,0,1,1.067-.372,1.548,1.548,0,0,1,.238.018,1.648,1.648,0,0,1,1.1.73l.065.09A5.7,5.7,0,0,0,21.108,36.9a4.735,4.735,0,0,0,2.069.483,4.583,4.583,0,0,0,.513-.029,5.388,5.388,0,0,0,2.278-.8,10.668,10.668,0,0,0,1.93-1.611c.138-.141.284-.294.474-.5a.751.751,0,0,1,.394-.3.806.806,0,0,1,.256-.041.871.871,0,0,1,.714.373.8.8,0,0,1,.135.524,4.812,4.812,0,0,1-.57,1.864,6.221,6.221,0,0,1-1.22,1.567,7.841,7.841,0,0,1-1.847,1.288,7.69,7.69,0,0,1-2.05.7A7.548,7.548,0,0,1,22.824,40.539Zm2.148-12.17h0a7.373,7.373,0,0,1-2.63-.53,13.281,13.281,0,0,1-3.093-1.756,1.189,1.189,0,0,1-.432-.687,1.423,1.423,0,0,1,.061-.771,1.754,1.754,0,0,1,.521-.753,1.267,1.267,0,0,1,.812-.317,1.151,1.151,0,0,1,.628.193l.209.161,0,0a16.744,16.744,0,0,0,1.936,1.347,4.768,4.768,0,0,0,2.321.74,2.505,2.505,0,0,0,.981-.193,2.74,2.74,0,0,0,.913-.647,2.8,2.8,0,0,0,.531-2.255,4.26,4.26,0,0,0-1.13-2,8.241,8.241,0,0,0-1.711-1.381.531.531,0,0,1-.144-.61.8.8,0,0,1,.264-.38.809.809,0,0,1,.505-.167,1.076,1.076,0,0,1,.181.016,5.736,5.736,0,0,1,2.018.729,4.577,4.577,0,0,1,1.357,1.252,4.974,4.974,0,0,1,.866,3.322,5.475,5.475,0,0,1-.444,1.744,5.087,5.087,0,0,1-1,1.5A4.779,4.779,0,0,1,24.972,28.369ZM7.859,16.485a1.724,1.724,0,0,1-1.119-.439,1.744,1.744,0,0,1-.587-1.128,12.706,12.706,0,0,1,.067-3.308c.04-.321.081-.654.11-1.012a1.98,1.98,0,0,1,.75-1.415,2.31,2.31,0,0,1,1.421-.5,1.751,1.751,0,0,1,1.075.338,1.594,1.594,0,0,1,.594,1.057,8.877,8.877,0,0,1-.926,5.469,1.754,1.754,0,0,1-.619.716A1.427,1.427,0,0,1,7.859,16.485Zm25.119-.75a1.508,1.508,0,0,1-1.183-.507A4.624,4.624,0,0,1,31.074,14a5.342,5.342,0,0,1-.368-1.477,3.131,3.131,0,0,1,.853-2.687,1.772,1.772,0,0,1,.137-.208,1.933,1.933,0,0,1,1.487-.856,1.611,1.611,0,0,1,.452.067,2.175,2.175,0,0,1,1.453,1.268,4.486,4.486,0,0,1,.18,2.453,8.214,8.214,0,0,1-.744,2.314,1.5,1.5,0,0,1-.643.635A1.947,1.947,0,0,1,32.979,15.735ZM.278,7.854a.274.274,0,0,1-.229-.14.306.306,0,0,1-.018-.3A10.425,10.425,0,0,1,2.368,4.454,14.446,14.446,0,0,1,5.5,2.317a13.445,13.445,0,0,1,3.714-1.3l.4-.069A9.66,9.66,0,0,1,11.226.776a2.5,2.5,0,0,1,2,.746,1.7,1.7,0,0,1,.4,1.208,1.106,1.106,0,0,1-.4.789,3.08,3.08,0,0,1-2.112.62c-.166,0-.338,0-.5-.008H10.6c-.16,0-.341-.009-.521-.009s-.314,0-.452.012a14.274,14.274,0,0,0-3.143.536A21.357,21.357,0,0,0,.424,7.806.26.26,0,0,1,.278,7.854Zm38.247-1.6h0l-.167-.042A9.458,9.458,0,0,1,36.524,5.5l-.6-.293A16.537,16.537,0,0,0,33.8,4.3a25.089,25.089,0,0,0-4.845-1.07,1.979,1.979,0,0,1-.972-.369,1.457,1.457,0,0,1-.544-.828A1.482,1.482,0,0,1,27.609.786a1.581,1.581,0,0,1,.767-.661A1.725,1.725,0,0,1,29.03,0a1.926,1.926,0,0,1,.377.038l.3.062a21.676,21.676,0,0,1,5.232,1.7,10.579,10.579,0,0,1,2.3,1.514,6.719,6.719,0,0,1,1.627,2.1c.057.439,0,.548-.055.622L38.8,6.06l-.015.02a.421.421,0,0,1-.26.173Z" transform="translate(11.197 10.99)"/>
  </g>
  <g id="ACCESORIES" transform="translate(88.521 88.978)">
    <path id="_Ink-4" data-name="ðŸ– Ink" d="M45.294,25.4h0a12.5,12.5,0,0,1-2.558-.268,13.039,13.039,0,0,1-4.712-2.023,12.706,12.706,0,0,1-1.971-1.678,11.914,11.914,0,0,1-2.516-3.941,12.161,12.161,0,0,1-.792-4.97,1.75,1.75,0,0,1-1.18-.643,3.434,3.434,0,0,1-.477-1.1c-.311-1.017-.664-2.17-3.024-2.562A4.587,4.587,0,0,1,26.1,6.91a53.931,53.931,0,0,0-5.73-.322,41.528,41.528,0,0,0-6.522.5A35.776,35.776,0,0,0,7.4,8.736c-.375.157-.772.3-1.157.442a13.693,13.693,0,0,0-1.961.829A2.845,2.845,0,0,0,3,11.274a3.189,3.189,0,0,0,.159,2.508,1.262,1.262,0,0,1-1.232,1.2,1.06,1.06,0,0,1-.772-.333l0,0v0A8.717,8.717,0,0,1,.04,11.6,3.963,3.963,0,0,1,.367,9.324C.981,8.062,2.361,7.1,4.585,6.367a42.331,42.331,0,0,1,6.283-1.322l.061-.01.334-.053a42.37,42.37,0,0,1,8.913-.933c.311,0,.627,0,.939.01.383.016.787.022,1.214.029h0a14.174,14.174,0,0,1,3.681.355l.016,0a2.832,2.832,0,0,1,1.626-1.392A16.317,16.317,0,0,1,31.124,2a41.812,41.812,0,0,1,4.735-.671c1.747-.156,3.57-.235,5.416-.235a57.767,57.767,0,0,1,5.917.292A35.627,35.627,0,0,1,52.5,2.3a14.114,14.114,0,0,1,3.979,1.6,4.034,4.034,0,0,1,1.926,2.355c.108,0,.216,0,.322,0,.66,0,1.289.052,1.795.093l.07.006c.547.045,1.063.087,1.58.087a6.266,6.266,0,0,0,2.038-.306,4.023,4.023,0,0,1,1.753-2.68,13.328,13.328,0,0,1,3.91-1.918A30.015,30.015,0,0,1,74.948.385,37.272,37.272,0,0,1,80.188,0a21.59,21.59,0,0,1,4.573.421A8.286,8.286,0,0,1,86.025.64a1.571,1.571,0,0,1,.481.172c.167.025.343.052.522.082a1.256,1.256,0,0,1,.77.444,1.652,1.652,0,0,1,.351.816A1.546,1.546,0,0,1,87.407,3.8a2.355,2.355,0,0,0-1.036.958,1.922,1.922,0,0,0-.183,1.391,1.552,1.552,0,0,1-.07.98,1.428,1.428,0,0,1-.578.653,29.724,29.724,0,0,1-.992,7.291,15.959,15.959,0,0,1-1.389,3.4A12.2,12.2,0,0,1,80.885,21.4a12.839,12.839,0,0,1-3.13,1.533,9.811,9.811,0,0,1-3.009.49,8.433,8.433,0,0,1-3.655-.817,8.9,8.9,0,0,1-2.958-2.3,10.5,10.5,0,0,1-1.4-2.146,12.336,12.336,0,0,1-.931-2.6,14.688,14.688,0,0,1-.387-2.992,17.663,17.663,0,0,1,.23-3.323,1.081,1.081,0,0,1-.32-.344c-.052-.084-.1-.174-.156-.285a5.116,5.116,0,0,0-2.371-.472,7.235,7.235,0,0,0-.99.068,4.388,4.388,0,0,0-2.927,1.639c-.11.114-.224.232-.343.352a1.069,1.069,0,0,1-.757.564l-.047.262a41.244,41.244,0,0,1-1.372,5.987,15.5,15.5,0,0,1-1.234,2.794,11.21,11.21,0,0,1-1.871,2.44,11.512,11.512,0,0,1-7.96,3.145ZM50.1,6.048h0a.8.8,0,0,0-.589.255.988.988,0,0,0-.26.565.8.8,0,0,0,.111.519.755.755,0,0,0,.491.321A2.838,2.838,0,0,1,51.674,8.9l.045.07a.8.8,0,0,0,.692.4.948.948,0,0,0,.811-.47.745.745,0,0,0-.043-.784,4.534,4.534,0,0,0-2.88-2.04.947.947,0,0,0-.2-.023ZM80.976,4.935a.913.913,0,0,0-.759.426.8.8,0,0,0-.087.621.976.976,0,0,0,.355.514l.036.026a1.6,1.6,0,0,1,.673,1.049l0,.052a.814.814,0,0,0,.289.614.922.922,0,0,0,.59.2.846.846,0,0,0,.612-.242.766.766,0,0,0,.2-.577,2.971,2.971,0,0,0-.453-1.459,3.8,3.8,0,0,0-1.062-1.107.685.685,0,0,0-.4-.121Z" transform="translate(-2.746 1.902)"/>
  </g>
</svg>
