<svg id="peep-101" xmlns="http://www.w3.org/2000/svg" width="240" height="324" viewBox="0 0 240 324">
  <g id="BODY" transform="translate(31.056 135.053)">
    <path id="_Skin" data-name="âœ‹ Skin" d="M145.681,58.086c-2.933-13.9-13.333-24.684-27.321-30.057-2.689-1.521-5.295-8.049-8.908-9.244-.579-.192.335,1.333,0,1.425a3.84,3.84,0,0,1-3.853-.814c-2.358-2.1-3.1-8.222-4.532-10.991C93.505-6.2,74.626-.485,72.1,15.657a59.03,59.03,0,0,1-6.176,3.09c-1.977.954-3.716,3.265-5.753,4.092-1.818.737-4.813.215-6.644.858C45.1,26.652,37.964,30.382,32.37,37.94c-1.179,1.594-2.507,3.554-3.58,5.164-5.53,6.368-9.371,13.506-12.908,21.164-9.9,22.477-12.589,47.365-15,71.582.055,4.237-2.756,15.987,1.4,18.019a.444.444,0,0,0,.3.771,170.658,170.658,0,0,1,31.434,2.672c5.007.885,9.987,2.1,15.087,2.3,10.587-.073,21.136-1.848,31.709-.168,12.71,0,28.157-.371,42.3-.914,13.215-.508,26.5.64,39.553-1.609a1.916,1.916,0,0,0,1.321-2.327,146.287,146.287,0,0,1-3.142-17.04,26.4,26.4,0,0,0-1.49-10.9Q154.04,92.087,145.681,58.086Z" transform="translate(9.718 -9.933)" fill="#d08b5b"/>
    <path id="_Jacket" data-name="ðŸ§¥ Jacket" d="M109.452,1.441c.335-.091-.579-1.616,0-1.425,3.613,1.2,6.22,7.723,8.908,9.244,13.988,5.373,24.388,16.158,27.321,30.057q8.385,33.947,13.67,68.563a26.4,26.4,0,0,1,1.49,10.9l.135.9a136.749,136.749,0,0,0,3.007,16.137,1.916,1.916,0,0,1-1.321,2.327c-12.9,2.223-26.036,1.126-39.1,1.592l-2.724.1c-13.507.5-27.992.829-40.024.829-10.573-1.679-21.122.1-31.709.168-5.1-.2-10.08-1.414-15.087-2.3a170.658,170.658,0,0,0-31.434-2.672.444.444,0,0,1-.3-.771c-4.157-2.031-1.346-13.781-1.4-18.019L1.1,114.9C3.461,91.373,6.282,67.3,15.882,45.5l.288-.62c3.459-7.423,7.24-14.348,12.621-20.544l.329-.493c1.008-1.506,2.19-3.236,3.251-4.671C37.964,11.614,45.1,7.884,53.523,4.928c1.832-.643,4.827-.12,6.644-.858,1.905-.773,3.55-2.845,5.372-3.89v7.8L91.906,33.962,106.86,11.023l1.521-9.4A5.371,5.371,0,0,0,109.452,1.441Z" transform="translate(9.718 8.919)" fill="#8fa7df"/>
    <path id="_Ink" data-name="ðŸ– Ink" d="M147.074,155.476a3.518,3.518,0,0,1-2.457-.954c-.931-.9-1.142-2.388-1.327-3.7-.045-.317-.087-.617-.138-.9l-.257-1.394c-1.1-6.015-1.936-11.037-2.617-15.8-.817-5.721-1.393-10.927-1.759-15.915-.223-3.052-.38-5.748-.48-8.243-.066-1.635-.07-3.3-.075-4.9,0-.935-.005-1.9-.02-2.855l-.013-.706c-.062-2.811-.007-5.636.061-8.27.009-.367.026-.733.04-1.01a.909.909,0,0,1-.2-.38l-.038-.173a1.384,1.384,0,0,1,.355-1.287c.037-.466.077-.94.116-1.4v0c.118-1.387.239-2.822.279-4.232a.111.111,0,0,1,.115-.114.121.121,0,0,1,.124.114c.125,1.6.378,3.229.623,4.8a9.921,9.921,0,0,0,2.083-2.414,16.4,16.4,0,0,0,1.405-2.781A.112.112,0,0,1,143,82.87a.1.1,0,0,1,.1.133A23.057,23.057,0,0,1,141.917,87,18.789,18.789,0,0,1,141,88.863c-.3.55-.6,1.119-.853,1.7a.886.886,0,0,1-.321.385l.043.333.04.333c.118,1.02.244,2.053.366,3.052.147,1.206.3,2.453.437,3.681l.123,1.124c.309,2.915.735,5.87,1.148,8.728v0c.251,1.737.51,3.534.74,5.3.528,4.061,1.161,8.868,1.851,13.734.642,4.521,1.337,9.336,2.149,14.12.334,1.969.688,3.97,1.053,5.945l.283,1.515a3.354,3.354,0,0,1,1.8,1.1,3.5,3.5,0,0,1,.79,1.831,3.22,3.22,0,0,1-.328,1.856,3.168,3.168,0,0,1-.6.811,3.665,3.665,0,0,1-.915.648A3.843,3.843,0,0,1,147.074,155.476Zm-27.422-.758h-.009l-13.836-.053c-5.7-.023-11.494-.056-17.1-.089H88.7l-7-.04c-1.836-.009-3.825-.043-6.08-.1-1.913-.053-3.787-.29-5.6-.518a3.17,3.17,0,0,1-2.954-3.889c.043-.29.09-.584.135-.868v-.008c.026-.161.054-.344.082-.522a1.364,1.364,0,0,1-.428.069,1.187,1.187,0,0,1-.837-.327l-.319-.312a5.216,5.216,0,0,1-1.118-1.451c-.2-.419-.38-.86-.552-1.287-.074-.184-.15-.373-.228-.56-.55-1.314-1.091-2.65-1.61-3.971-1.118-2.844-2.121-5.41-3.063-8.015-1.91-5.279-3.628-10.723-5.108-16.181-1.308-4.825-2.457-9.785-3.416-14.743-.95-4.909-1.737-9.939-2.339-14.951l-.288-2.388-.084-.705a72.565,72.565,0,0,1-.659-11.7,21.739,21.739,0,0,1,1.395-7.137,27.24,27.24,0,0,1,2.8-4.9c.184-.276.374-.561.559-.843l.141-.216.141-.221a15.088,15.088,0,0,0,1.372-2.63,8.429,8.429,0,0,0,.6-2.9,12.629,12.629,0,0,0-.352-3.092,28.581,28.581,0,0,0-.895-2.992l-.17-.483-.114-.32c-.123-.343-.249-.69-.371-1.027l-.007-.019a49.608,49.608,0,0,1-1.776-5.572,19.149,19.149,0,0,1-.457-2.863,14.562,14.562,0,0,1,.058-2.959A19.856,19.856,0,0,1,51.306,29.3a22.224,22.224,0,0,1,2.13-4.162,30.557,30.557,0,0,1,6.391-6.95,42.693,42.693,0,0,0-12.59,4.772A47.115,47.115,0,0,0,40.786,27.4,54.35,54.35,0,0,0,35.1,32.78a65.982,65.982,0,0,0-4.651,5.7c-1.386,1.9-2.744,3.964-4.034,6.131A113.79,113.79,0,0,0,19.8,57.736a151.912,151.912,0,0,0-5.356,14.411c-1.484,4.689-2.833,9.684-4.009,14.846-1.1,4.829-2.075,9.934-2.9,15.174-.762,4.851-1.424,10.007-1.967,15.324-.486,4.755-.9,9.768-1.272,15.327-.064.968-.123,1.952-.18,2.9v.006c-.1,1.624-.2,3.3-.326,4.953-.035.448-.067.9-.1,1.344a37.391,37.391,0,0,1-.834,6.469,1.161,1.161,0,0,1-.506.7,1.527,1.527,0,0,1-.827.24,1.315,1.315,0,0,1-.762-.229,1.057,1.057,0,0,1-.427-.707,43.143,43.143,0,0,1-.211-8.887l.012-.268c.125-2.812.3-5.78.505-8.822.426-6.182.995-12.235,1.69-17.99.658-5.455,1.445-10.738,2.337-15.7.967-5.372,2.1-10.59,3.36-15.509,1.349-5.252,2.9-10.354,4.6-15.166.891-2.513,1.845-5,2.837-7.407,1.018-2.466,2.1-4.91,3.23-7.264s2.3-4.617,3.48-6.691c1.293-2.277,2.648-4.433,4.027-6.408a64.908,64.908,0,0,1,4.662-5.937,53.27,53.27,0,0,1,5.386-5.28A44.888,44.888,0,0,1,48.511,19.8a32.631,32.631,0,0,1,6.031-1.781,33.142,33.142,0,0,1,6.218-.58h.017a48.255,48.255,0,0,1,6.68-4.257.14.14,0,0,1,.067-.017.145.145,0,0,1,.131.091.128.128,0,0,1-.031.145l-.071.07h0c-.034.033-.069.068-.1.1a1.162,1.162,0,0,1,.762.389,14.886,14.886,0,0,1,2.174,3.113c.456.57.909,1.158,1.348,1.726h0c.484.628.985,1.277,1.489,1.9,1.394,1.726,2.931,3.57,4.7,5.637,2.917,3.412,5.634,6.4,8.308,9.135l.48.489c.358.362.707.732,1.078,1.124a23.586,23.586,0,0,0,3.688,3.392l.094.063a1.839,1.839,0,0,0,.97.378,1.259,1.259,0,0,0,.936-.529,16.835,16.835,0,0,0,1.272-1.737v0c.091-.136.185-.276.278-.413l.114-.167A125.361,125.361,0,0,0,102.114,26.7c.952-1.757,1.877-3.577,2.751-5.41l.26-.548c.12-.255.243-.511.363-.758.355-.736.722-1.5,1.014-2.271.086-.229.173-.466.266-.727a7.725,7.725,0,0,1-2.736-4.242,6.411,6.411,0,0,1-.155-2.309,6.714,6.714,0,0,1,.656-2.21.311.311,0,0,1,.288-.167.343.343,0,0,1,.345.249,9.231,9.231,0,0,0,1.5,3.327,6.378,6.378,0,0,0,1.177,1.317,6.121,6.121,0,0,0,.777.517c.16.095.324.192.482.3a1.78,1.78,0,0,1,.275-.021,1.941,1.941,0,0,1,1.4.6L110.7,13.7a.151.151,0,0,1,.038-.12.209.209,0,0,1,.154-.063.171.171,0,0,1,.178.133c1.979,9.984,3.612,19.159,4.993,28.049l.64,4.148.6,3.894c.952,6.182,1.944,12.781,2.694,19.511,1.035,9.307,1.813,17.886,2.381,26.226.537,7.914.927,16.329,1.228,26.482.043,1.452.088,2.929.132,4.356v.036q.035,1.144.07,2.288l.451-2.663c.408-2.415.877-5.224,1.271-8.006.731-5.153,1.319-9.866,1.8-14.409.537-5.094.922-9.827,1.177-14.47a117.214,117.214,0,0,0,.063-13.317c-.135-2.3-.361-4.524-.67-6.622a61.468,61.468,0,0,0-1.317-6.525,53.109,53.109,0,0,0-2.1-6.376c-.452-1.126-1.006-2.225-1.541-3.287-.425-.844-.864-1.716-1.25-2.6a12.074,12.074,0,0,1-.974-3.431,10.848,10.848,0,0,1,.178-3.564c.159-.757.363-1.509.56-2.237a21.412,21.412,0,0,0,.84-4.215,17.155,17.155,0,0,0-.086-3.085,20.354,20.354,0,0,0-.593-3.012,25.507,25.507,0,0,0-1-2.914c-.372-.906-.812-1.846-1.31-2.793-.483-.919-1.017-1.874-1.587-2.839a90.4,90.4,0,0,0-5.525-8.171.118.118,0,0,1-.015-.129.175.175,0,0,1,.15-.091.134.134,0,0,1,.1.04c.475.47.972.947,1.452,1.408a51.2,51.2,0,0,1,3.9,4.026c.865,1.039,1.607,1.981,2.267,2.879a26.579,26.579,0,0,1,5.72,1.64,29.038,29.038,0,0,1,5.2,2.8,32.288,32.288,0,0,1,4.591,3.779,35.137,35.137,0,0,1,3.88,4.563,45.684,45.684,0,0,1,3.5,5.808,59.031,59.031,0,0,1,2.7,6.219,101.21,101.21,0,0,1,3.727,13.056c1.624,7.2,3.084,14.566,4.5,21.69v0c.5,2.518,1.015,5.121,1.533,7.693.616,3.053,1.241,6.158,1.846,9.161l.023.116c1.394,6.924,2.836,14.083,4.268,21.137l.092.453.026.126c.967,4.759,1.967,9.68,2.948,14.52.512,2.52,1.06,5.087,1.629,7.632.1.426.195.858.291,1.277l0,.012c.2.857.4,1.744.581,2.619a3.492,3.492,0,0,1-.976,3.5,1.025,1.025,0,0,1-.779.326,1.493,1.493,0,0,1-.626-.145l-.143-.067-.138-.067a2.78,2.78,0,0,1-1.359-1.183,5.075,5.075,0,0,1-.516-1.791h0c-.021-.129-.042-.262-.065-.393-.144-.816-.29-1.645-.43-2.447l-.012-.07q-.145-.825-.29-1.651c-.38-2.158-.787-4.268-1.17-6.227l-2.033-10.361c-.446-2.272-1.034-5.267-1.631-8.286-1.8-9.11-3.626-18.349-5.393-27.285l-.461-2.334c-.589-2.977-1.165-6.01-1.723-8.942-1.219-6.411-2.479-13.04-3.943-19.505l-.121-.531-.123-.53c-.513-2.183-1.034-4.157-1.6-6.032-.628-2.1-1.286-4.019-2.012-5.866a57.512,57.512,0,0,0-2.561-5.634,48.336,48.336,0,0,0-3.243-5.335,40.951,40.951,0,0,0-3.055-3.837,37.488,37.488,0,0,0-3.548-3.459,29.842,29.842,0,0,0-8.378-5.119c.434.625.849,1.261,1.234,1.89a28.767,28.767,0,0,1,3.007,6.522,18.634,18.634,0,0,1,.84,7.1,24.831,24.831,0,0,1-.489,2.887,17.292,17.292,0,0,0-.526,4.129,10.67,10.67,0,0,0,1.63,4.54h0c.218.4.444.824.645,1.233A55.464,55.464,0,0,1,131.6,64.635c.46,2.188.827,4.491,1.092,6.845.247,2.2.412,4.523.492,6.907a132.165,132.165,0,0,1-.34,13.855c-.335,4.7-.825,9.607-1.5,15-.562,4.511-1.235,9.254-2.119,14.925-.409,2.622-.895,5.276-1.365,7.842v0c-.441,2.408-.9,4.9-1.288,7.353-.274,1.716-.621,3.456-.956,5.139-.153.77-.312,1.566-.462,2.349l-.226,1.189c-.113.59-.251,1.285-.41,1.969l-.094.39v.07a2.148,2.148,0,0,1-.347,1.194,14.527,14.527,0,0,1-1.126,2.7,1.519,1.519,0,0,1-.987.784,2.682,2.682,0,0,1-.909,1.118A2.424,2.424,0,0,1,119.652,154.719ZM66.129,14.841c-.658.62-1.335,1.243-1.99,1.844l-.007.006c-.452.416-.92.845-1.377,1.271l-.411.384-.409.386A41.165,41.165,0,0,0,56.5,24.787a23.736,23.736,0,0,0-1.921,3.235A19.524,19.524,0,0,0,53.26,31.51a14.9,14.9,0,0,0-.171,7.4A40.814,40.814,0,0,0,54.884,44.2a31.465,31.465,0,0,1,2.105,6.89,12.111,12.111,0,0,1-.645,6.29,25.3,25.3,0,0,1-2.512,4.448l0,0c-.262.4-.532.809-.792,1.218a16.857,16.857,0,0,0-2.379,6.319,30.243,30.243,0,0,0-.272,6.8c.127,2.333.323,4.723.6,7.306.243,2.276.543,4.655.918,7.273.7,4.866,1.579,9.775,2.627,14.59s2.281,9.64,3.671,14.363c1.33,4.521,2.917,9.03,4.451,13.39l.237.673c.844,2.4,1.822,4.708,2.752,6.847.476,1.091.995,2.252,1.587,3.549-.133-1.114-.178-2.262-.221-3.372v0c-.021-.545-.043-1.108-.075-1.654-.1-1.712-.223-3.449-.341-5.128-.043-.615-.092-1.312-.138-1.98-.323-4.69-.623-9.546-.891-14.433-.525-9.618-.9-18.042-1.157-25.753-.3-9.245-.441-17.676-.417-25.774.027-8.928.219-17.6.571-25.779.145-3.378.407-6.808.661-10.126v0c.047-.619.1-1.32.152-1.994l.064-.865c.242-3.263.566-7.1,1.14-10.851a8.029,8.029,0,0,1-.41-1.124l-.038-.144.027,0A1.207,1.207,0,0,1,66.129,14.841ZM30.84,153.159a2.791,2.791,0,0,1-.373-.026,2.3,2.3,0,0,1-1.577-.879,2.52,2.52,0,0,1-.446-1.012,3.412,3.412,0,0,1-.028-1.188c.679-4.686,1.557-10.878,2.328-17.212l.8-6.549c.9-7.408,1.97-16.023,3.2-24.534.494-3.426,1-6.794,1.517-10.229l-.179-.233c-.553-.719-1.13-1.438-1.688-2.133h0l-.009-.012-.543-.677c-1.593-2-2.913-3.676-4.183-5.5a.1.1,0,0,1,0-.11.129.129,0,0,1,.108-.072.093.093,0,0,1,.058.02c1.842,1.361,3.589,2.818,5.364,4.316l1.542,1.306c.9-5.941,1.764-11.765,2.55-17.688a.131.131,0,0,1,.13-.115.107.107,0,0,1,.078.031.113.113,0,0,1,.029.084c-.057,1.8-.107,3.627-.156,5.4-.11,3.978-.224,8.091-.414,12.132l-.095,1.993a2.148,2.148,0,0,1,.476.788,1.753,1.753,0,0,1,0,1,.958.958,0,0,1-.6.649l-.09,1.853c-.391,8-.875,16.554-1.759,24.972-1.081,10.295-2.349,20.744-3.576,30.849l-.041.336a3.093,3.093,0,0,1-.756,1.731A2.218,2.218,0,0,1,30.84,153.159ZM72.013,12.982a1.111,1.111,0,0,1-.649-.185l-.178-.135-.086-.07a1.273,1.273,0,0,1-.336-1.272,6.42,6.42,0,0,1,1.144-1.745,11.724,11.724,0,0,0,.725-.945,17.576,17.576,0,0,0,1.407-2.557,27.046,27.046,0,0,0,1.471-4.939c.08-.348.162-.707.247-1.062A.09.09,0,0,1,75.85,0a.1.1,0,0,1,.1.071,12.4,12.4,0,0,1-.135,6.565,19.15,19.15,0,0,1-1.206,3.348l-.175.377a10.634,10.634,0,0,1-.721,1.348A3.847,3.847,0,0,1,72.684,12.8,1.214,1.214,0,0,1,72.013,12.982Z" transform="translate(8.028 -4.565)"/>
  </g>
  <g id="HEAD" transform="translate(78.592 38.043)">
    <path id="_Skin-2" data-name="âœ‹ Skin" d="M62.237,94.777a27.067,27.067,0,0,1-12.148-2.731c-4.576-1.5-9.573-2.312-13.287-5.626-1.808.384-3.662-1.477-5.162-2.585-2.447,9.025-15.18,7.524-20.561,1.691-3.291-2.786-4.615-9.68,1.1-11.5C2.815,67.647-.567,56.632.076,44.713.754,24.72,16.086,3.934,35.792.466a30.953,30.953,0,0,1,11.751.2c2.162.47,4.251,1.381,6.564,1.34C63.08.587,72.934.75,80.345,6.507c11.845,7.944,13.491,23.84,12.107,36.62l.056.12c-.689,4.691-1.833,8.988-4,11.816-.168,4.066-1.578,12.746-1.682,16.177.253,15.968-8.794,23.055-24.591,23.537" transform="translate(-1.457 12.67)" fill="#d08b5b"/>
    <path id="_Hair" data-name="ðŸ’ˆ Hair" d="M29.736,1.555C37.819-1.186,42.919.23,50.462,1.744l.465.093.732.143c7.569-.509,14.088-2.174,21.4,1.46,15.205,6.409,18.019,24.1,16.972,38.875l-.062.275a14.038,14.038,0,0,1-2.656,6.1C84.849,36.555,76.946,28.547,67.227,20.9l-.347-.421a19.166,19.166,0,0,0-4.114-4,11.017,11.017,0,0,0,.07-1.41c-.012-.644-.929-1.185-1.407-.626l-.091.113c-.624.759-3.9,4.41-5.561,6.283l-.207.234-.5.571-.845,1.014C45.1,33.587,35.483,44.561,21.88,49.807c-3.26-2.067-7.214-.247-9.251,2.664-5.788,6.764.922,19.517,9.818,16.058A25.9,25.9,0,0,0,28.49,82.008c-3.471,4.855-9.024,5.731-14.219,2.983C9.2,82.72,5.919,77.953,9.032,72.68q.1-.057.2-.111a16.811,16.811,0,0,0,8.044,2.854l.218.015c1.8.085,1.768-2.751-.055-2.9C5.381,71,.028,57.2.016,46.374-.5,27.317,11.354,7.71,29.736,1.555Z" transform="translate(0.39 14.583)" fill="#c93305"/>
    <path id="_Ink-2" data-name="ðŸ– Ink" d="M64.077,96.837a35.7,35.7,0,0,1-4.821-.326A32.672,32.672,0,0,1,54.7,95.56l-.451-.148c-2.161-.72-4.331-1.613-5.573-3.255a.963.963,0,0,1-.093-1.054,1.425,1.425,0,0,1,.5-.549,1.3,1.3,0,0,1,.705-.221,1.038,1.038,0,0,1,.262.033,9.6,9.6,0,0,1,2.179.975c.365.2.741.409,1.128.589a24,24,0,0,0,9.783,1.964,34.921,34.921,0,0,0,13.323-2.833l.218-.092a14.136,14.136,0,0,0,3.226-1.823,13.484,13.484,0,0,0,2.459-2.431,15.946,15.946,0,0,0,1.8-2.931,21.794,21.794,0,0,0,1.251-3.323,39.32,39.32,0,0,0,1.291-7.39c.234-2.557.318-5.154.4-7.665a75.892,75.892,0,0,1,.625-8.972,23.337,23.337,0,0,0-.263-4.228A24.16,24.16,0,0,0,86.5,48.25a27.932,27.932,0,0,0-1.562-3.717,35.218,35.218,0,0,0-2.049-3.507c-3.008-4.55-7.015-8.614-10.89-12.544-1.25-1.268-2.431-2.465-3.587-3.685l-.253-.283a5.616,5.616,0,0,0-3-2.116,6.946,6.946,0,0,1-1.9,2.6L61.554,26.85c-1.51,1.634-3.3,3.567-5.159,5.515-1.329,1.354-2.634,2.754-4.016,4.236A91.136,91.136,0,0,1,40.767,47.68,37.1,37.1,0,0,1,37.5,49.87a29.163,29.163,0,0,1-3.468,1.764,24.7,24.7,0,0,1-3.7,1.24,23.044,23.044,0,0,1-3.965.62c.333.3.654.627.965.942a17.577,17.577,0,0,0,1.373,1.294.469.469,0,0,1,.1.525.491.491,0,0,1-.584.3,3.629,3.629,0,0,1-1.735-1.379c-.1-.12-.2-.233-.294-.344a5.923,5.923,0,0,0-6.4,1.075,8.6,8.6,0,0,0-2.478,3.744,7.627,7.627,0,0,0-.262,4.116,6.124,6.124,0,0,0,.794,1.918,6.257,6.257,0,0,0,1.511,1.631,4.12,4.12,0,0,0,2.007,1.058,17.643,17.643,0,0,0,2.463.4c1.35.156,2.515.291,2.831.886a1.182,1.182,0,0,1-.137,1.1c.43,1.353.9,2.636,1.4,3.816a33.057,33.057,0,0,0,1.808,3.662,24.987,24.987,0,0,0,2.3,3.345,19.913,19.913,0,0,0,2.867,2.863,10.626,10.626,0,0,0,1.518.894,5.841,5.841,0,0,1,2.5,1.911.819.819,0,0,1,.063.638.661.661,0,0,1-.34.419,2.718,2.718,0,0,1-1.159.256,4.418,4.418,0,0,1-2.11-.633,14.624,14.624,0,0,1-1.848-1.263,10.135,10.135,0,0,1-4.154,4.393A10.412,10.412,0,0,1,26.7,92.077a12.626,12.626,0,0,1-2.867.318A16.356,16.356,0,0,1,19.1,91.66a19.145,19.145,0,0,1-4.431-1.989,16.628,16.628,0,0,1-3.6-2.92,10.855,10.855,0,0,1-2.236-3.527,6.824,6.824,0,0,1-.245-4.234A8.5,8.5,0,0,1,11.4,74.849a33.723,33.723,0,0,1-4.2-4.463,32.707,32.707,0,0,1-3.191-4.946A34.94,34.94,0,0,1,.459,54.488,42.5,42.5,0,0,1,.352,42.781,51.055,51.055,0,0,1,3.277,31.1,55.161,55.161,0,0,1,9.588,19.116a50.585,50.585,0,0,1,8.99-9.9A41.115,41.115,0,0,1,29.685,2.484,33.451,33.451,0,0,1,49.043.68a25.494,25.494,0,0,0,3.562.927,20.328,20.328,0,0,0,3.6.332,18.158,18.158,0,0,0,4.235-.5,30.057,30.057,0,0,1,4.634-.364A28.421,28.421,0,0,1,76.7,3.549a29.431,29.431,0,0,1,5.047,2.888,30.729,30.729,0,0,1,4.395,3.807,31.912,31.912,0,0,1,3.916,5.027A32.705,32.705,0,0,1,94.655,27.4a33.048,33.048,0,0,1,.4,6.753,65.679,65.679,0,0,1-.243,9.834,34.1,34.1,0,0,1-1.214,6.5,21.037,21.037,0,0,1-2.759,5.959c-.014,1.167-.36,3.94-.726,6.876h0c-.385,3.084-.821,6.579-.937,8.753l-.043.884c-.22,4.256-.689,8.746-2.617,12.755a18.569,18.569,0,0,1-4.066,5.028A22.189,22.189,0,0,1,77.024,94.2,31.46,31.46,0,0,1,64.077,96.837ZM12.267,75.46h0a8.653,8.653,0,0,0-1.245,3.28,6.881,6.881,0,0,0,.232,3.035,7.776,7.776,0,0,0,.885,1.894,9.682,9.682,0,0,0,1.378,1.685A12.14,12.14,0,0,0,15.3,86.793a14.483,14.483,0,0,0,2.1,1.154A13.84,13.84,0,0,0,20.324,89.1a11.378,11.378,0,0,0,2.9.388,9.728,9.728,0,0,0,4.586-1.121,11.014,11.014,0,0,0,3.808-3.406,24.478,24.478,0,0,1-4.007-6.309,24.9,24.9,0,0,1-2.036-7.17,8.24,8.24,0,0,1-2.989.584h0a7.425,7.425,0,0,1-2.513-.439,8.28,8.28,0,0,1-2.207-1.209,10.7,10.7,0,0,1-3.2-4.081A11.906,11.906,0,0,1,13.8,63.6a11.02,11.02,0,0,1-.172-2.863,9.588,9.588,0,0,1,.623-2.792,8.789,8.789,0,0,1,1.511-2.521A8.85,8.85,0,0,1,18.5,52.885a6.924,6.924,0,0,1,3.482-1.009,5.574,5.574,0,0,1,3.028.886,48.643,48.643,0,0,0,5.068-2.3,53.672,53.672,0,0,0,4.716-2.8,68.01,68.01,0,0,0,8.554-6.789c2.427-2.239,4.94-4.819,7.683-7.886,2.453-2.743,4.79-5.534,7.168-8.391l.5-.571c.539-.611,1.3-1.465,2.107-2.369,1.615-1.812,3.446-3.865,3.727-4.23a.645.645,0,0,1,.525-.265.929.929,0,0,1,.615.259.858.858,0,0,1,.292.6,11.057,11.057,0,0,1-.07,1.41,20.958,20.958,0,0,1,4.462,4.424c2.7,2.124,4.954,4.041,6.892,5.861a56.17,56.17,0,0,1,5.871,6.35,42.2,42.2,0,0,1,2.446,3.468,37.4,37.4,0,0,1,2.063,3.722,35.479,35.479,0,0,1,1.638,4.021,36.216,36.216,0,0,1,1.17,4.363,10.372,10.372,0,0,0,1.745-3.015,23.051,23.051,0,0,0,.974-3.356,70.494,70.494,0,0,0-.072-11.406A47.04,47.04,0,0,0,90.764,22.7C88,14.792,83.094,9.308,76.184,6.4a21.03,21.03,0,0,0-5.233-1.807,25.384,25.384,0,0,0-5.112-.477c-2.248,0-4.479.22-6.84.454-1.364.135-2.773.274-4.211.371l-.732-.143c-.751-.149-1.479-.3-2.183-.442h0A50.116,50.116,0,0,0,41.735,2.955a24.9,24.9,0,0,0-4.2.353,30.032,30.032,0,0,0-4.673,1.2A39.7,39.7,0,0,0,20.4,11.43a44.223,44.223,0,0,0-5.146,4.941,47.153,47.153,0,0,0-4.329,5.71A48.426,48.426,0,0,0,3.146,49.329,35.24,35.24,0,0,0,3.4,53.5a36.71,36.71,0,0,0,.774,4.27,34.167,34.167,0,0,0,1.307,4.192A29.179,29.179,0,0,0,7.34,65.9a21.029,21.029,0,0,0,5.421,6.386A16.045,16.045,0,0,0,20.569,75.5a1.506,1.506,0,0,1,1.384,1.626,1.415,1.415,0,0,1-.332.884,1.185,1.185,0,0,1-.918.388l-.078,0-.055,0a15.807,15.807,0,0,1-4.346-.911,17.733,17.733,0,0,1-3.956-2.018Zm14.168-10.83c-.653,0-1.293-.713-2.033-1.539a13.021,13.021,0,0,0-1.751-1.716,4.336,4.336,0,0,0-2.345-.954c-.056-.05-.076-.1-.059-.144.088-.232,1.12-.337,2.042-.337a4.242,4.242,0,0,1,1.962.289l.09.031c1.087.383,2.833,1.387,3.19,2.584a1.52,1.52,0,0,1-.3,1.412A1.162,1.162,0,0,1,26.435,64.631Z" transform="translate(-2.74 11.624)"/>
  </g>
  <g id="FACE" transform="translate(112.183 77.354)">
    <path id="_Ink-3" data-name="ðŸ– Ink" d="M22.824,40.539a8.045,8.045,0,0,1-3.052-.61,8.621,8.621,0,0,1-1.992-1.145,8.487,8.487,0,0,1-1.622-1.636,1.676,1.676,0,0,1-.338-1.3,1.871,1.871,0,0,1,.728-1.172,1.793,1.793,0,0,1,1.067-.372,1.548,1.548,0,0,1,.238.018,1.648,1.648,0,0,1,1.1.73l.065.09A5.7,5.7,0,0,0,21.108,36.9a4.735,4.735,0,0,0,2.069.483,4.583,4.583,0,0,0,.513-.029,5.388,5.388,0,0,0,2.278-.8,10.668,10.668,0,0,0,1.93-1.611c.138-.141.284-.294.474-.5a.751.751,0,0,1,.394-.3.806.806,0,0,1,.256-.041.871.871,0,0,1,.714.373.8.8,0,0,1,.135.524,4.812,4.812,0,0,1-.57,1.864,6.221,6.221,0,0,1-1.22,1.567,7.841,7.841,0,0,1-1.847,1.288,7.69,7.69,0,0,1-2.05.7A7.548,7.548,0,0,1,22.824,40.539Zm2.148-12.17h0a7.373,7.373,0,0,1-2.63-.53,13.281,13.281,0,0,1-3.093-1.756,1.189,1.189,0,0,1-.432-.687,1.423,1.423,0,0,1,.061-.771,1.754,1.754,0,0,1,.521-.753,1.267,1.267,0,0,1,.812-.317,1.151,1.151,0,0,1,.628.193l.209.161,0,0a16.744,16.744,0,0,0,1.936,1.347,4.768,4.768,0,0,0,2.321.74,2.505,2.505,0,0,0,.981-.193,2.74,2.74,0,0,0,.913-.647,2.8,2.8,0,0,0,.531-2.255,4.26,4.26,0,0,0-1.13-2,8.241,8.241,0,0,0-1.711-1.381.531.531,0,0,1-.144-.61.8.8,0,0,1,.264-.38.809.809,0,0,1,.505-.167,1.076,1.076,0,0,1,.181.016,5.736,5.736,0,0,1,2.018.729,4.577,4.577,0,0,1,1.357,1.252,4.974,4.974,0,0,1,.866,3.322,5.475,5.475,0,0,1-.444,1.744,5.087,5.087,0,0,1-1,1.5A4.779,4.779,0,0,1,24.972,28.369ZM7.859,16.485a1.724,1.724,0,0,1-1.119-.439,1.744,1.744,0,0,1-.587-1.128,12.706,12.706,0,0,1,.067-3.308c.04-.321.081-.654.11-1.012a1.98,1.98,0,0,1,.75-1.415,2.31,2.31,0,0,1,1.421-.5,1.751,1.751,0,0,1,1.075.338,1.594,1.594,0,0,1,.594,1.057,8.877,8.877,0,0,1-.926,5.469,1.754,1.754,0,0,1-.619.716A1.427,1.427,0,0,1,7.859,16.485Zm25.119-.75a1.508,1.508,0,0,1-1.183-.507A4.624,4.624,0,0,1,31.074,14a5.342,5.342,0,0,1-.368-1.477,3.131,3.131,0,0,1,.853-2.687,1.772,1.772,0,0,1,.137-.208,1.933,1.933,0,0,1,1.487-.856,1.611,1.611,0,0,1,.452.067,2.175,2.175,0,0,1,1.453,1.268,4.486,4.486,0,0,1,.18,2.453,8.214,8.214,0,0,1-.744,2.314,1.5,1.5,0,0,1-.643.635A1.947,1.947,0,0,1,32.979,15.735ZM.278,7.854a.274.274,0,0,1-.229-.14.306.306,0,0,1-.018-.3A10.425,10.425,0,0,1,2.368,4.454,14.446,14.446,0,0,1,5.5,2.317a13.445,13.445,0,0,1,3.714-1.3l.4-.069A9.66,9.66,0,0,1,11.226.776a2.5,2.5,0,0,1,2,.746,1.7,1.7,0,0,1,.4,1.208,1.106,1.106,0,0,1-.4.789,3.08,3.08,0,0,1-2.112.62c-.166,0-.338,0-.5-.008H10.6c-.16,0-.341-.009-.521-.009s-.314,0-.452.012a14.274,14.274,0,0,0-3.143.536A21.357,21.357,0,0,0,.424,7.806.26.26,0,0,1,.278,7.854Zm38.247-1.6h0l-.167-.042A9.458,9.458,0,0,1,36.524,5.5l-.6-.293A16.537,16.537,0,0,0,33.8,4.3a25.089,25.089,0,0,0-4.845-1.07,1.979,1.979,0,0,1-.972-.369,1.457,1.457,0,0,1-.544-.828A1.482,1.482,0,0,1,27.609.786a1.581,1.581,0,0,1,.767-.661A1.725,1.725,0,0,1,29.03,0a1.926,1.926,0,0,1,.377.038l.3.062a21.676,21.676,0,0,1,5.232,1.7,10.579,10.579,0,0,1,2.3,1.514,6.719,6.719,0,0,1,1.627,2.1c.057.439,0,.548-.055.622L38.8,6.06l-.015.02a.421.421,0,0,1-.26.173Z" transform="translate(11.197 10.99)"/>
  </g>
</svg>
