<svg id="peep-47" xmlns="http://www.w3.org/2000/svg" width="240" height="324" viewBox="0 0 240 324">
  <g id="BODY" transform="translate(31.056 135.053)">
    <path id="_Skin" data-name="âœ‹ Skin" d="M120.408,54.524A22.062,22.062,0,0,1,115.194,52c-4.644-3.458-7.673-8.663-10.534-13.594a91.18,91.18,0,0,1-8.887-22.786c-.853-3.425-1.143-7.4-3.08-10.433C88.3-1.17,75.42-.346,68.58.77,64,1.581,63.053,6.709,62.013,10.5A79.865,79.865,0,0,0,60.1,20.076a23.91,23.91,0,0,1-3.629,1.877C43.194,26.026,40.86,33.578,35.788,45.244,27.221,62.2,3.974,68.84.462,88.907c-2.262,13.248,4.171,25.712,10.8,36.726,6.177,12.03,14.8,17.8,28.536,14.962,12.882-2.891,25.262-7.727,37.918-11.464,6.13-1.508,12.249-5.429,18.7-4.062a163.977,163.977,0,0,0,40.551,4c19.116.773,19.113-17.581,17.151-31.8-1.374-22.12-12.527-36.324-33.711-42.753Z" transform="translate(19.014 -8.454)" fill="#d08b5b"/>
    <path id="_Ink" data-name="ðŸ– Ink" d="M82.563,155.5c-11.877,0-22.941-.362-32.884-1.075a209.373,209.373,0,0,1-28.274-3.665,3.482,3.482,0,0,1-2.659,1.19,3.374,3.374,0,0,1-1.547-.365,2.948,2.948,0,0,1-1.2-1.132,4.941,4.941,0,0,1-.573-1.86,19.562,19.562,0,0,1-.133-2.062v0c-.008-.295-.016-.573-.03-.835-.049-.923-.223-5.134-.406-9.593v-.013c-.191-4.639-.389-9.436-.481-11.39-.029-.623-.062-1.28-.088-1.808-.156-3.159-.317-6.426-.288-9.643.019-2.091.112-3.959.286-5.71.015-.146.027-.306.039-.476a6.327,6.327,0,0,1,.44-2.24A57.606,57.606,0,0,0,10.8,95.881a36.4,36.4,0,0,1-7.459-2.824L3.034,92.9a8.975,8.975,0,0,1-1.4-.807,2.9,2.9,0,0,1-.983-1.242,7.737,7.737,0,0,1-.65-3.275,67.5,67.5,0,0,1,.8-7.047c.083-.557.17-1.132.25-1.7.429-2.988.932-5.988,1.5-8.917,1.653-8.579,3.679-17.68,7.277-26.1,3.694-8.649,9.147-15.351,16.207-19.921A60.39,60.39,0,0,1,39.815,17.4a81.867,81.867,0,0,1,14.87-3.379c.2-.027.4-.058.588-.088a9.93,9.93,0,0,1,1.515-.159,3.551,3.551,0,0,1,1.2.192c.064.023.131.048.2.072a2.352,2.352,0,0,0,.8.2h.01a5.661,5.661,0,0,0,.976-.13c.208-.04.424-.081.628-.1,1.1-.128,2.218-.2,3.3-.273h.014l.937-.063c.173-.012.352-.023.525-.033h0a9.493,9.493,0,0,0,2.951-.487c1.9-.757,3.07-6.27,3.631-8.919.122-.576.219-1.031.286-1.263.032-.111.065-.23.1-.345A4.117,4.117,0,0,1,73.642.17a1.228,1.228,0,0,1,.64-.17,1.185,1.185,0,0,1,.9.368,2.148,2.148,0,0,1,.435,1.463,10.186,10.186,0,0,1-.21,1.716c-.053.3-.1.575-.134.826-.01.085-.022.2-.036.341-.056.565-.161,1.617-.4,2.851a19.448,19.448,0,0,1-1.207,4.042,10.4,10.4,0,0,1-2.552,3.7,7.216,7.216,0,0,1-1.949,1.242,7.6,7.6,0,0,1-2.486.581,47.618,47.618,0,0,0-5.305.569,3.181,3.181,0,0,0-1.681.631.606.606,0,0,0-.109.506c.005.053.01.108.01.161a39.382,39.382,0,0,0,3.571,5.337,43.8,43.8,0,0,0,5.292,5.335,34.964,34.964,0,0,0,4.939,3.483,35.565,35.565,0,0,0,5.469,2.591,34.867,34.867,0,0,0,5.827,1.616,33.157,33.157,0,0,0,6.015.557c.171,0,.344,0,.515,0A18.6,18.6,0,0,0,97.332,36.9a12.437,12.437,0,0,0,2.71-1.378,11.927,11.927,0,0,0,2.368-2.127,19.7,19.7,0,0,0,3.129-5.71c.835-2.162,1.48-4.406,2.05-6.386l.186-.646c-2.735-3.41-3.887-7.955-2.867-11.308.3-.972.727-1.465,1.283-1.465a1.411,1.411,0,0,1,.72.236c.669.407.821,1.886.943,3.074a9.632,9.632,0,0,0,.16,1.166,9.654,9.654,0,0,0,2.639,4.286l.365.411c.084-.007.168-.01.252-.01a3.257,3.257,0,0,1,2.349,1.04,62.446,62.446,0,0,1,9.2,2.877,31.784,31.784,0,0,1,8.271,4.877,42.194,42.194,0,0,1,5.49,5.563c1.442,1.732,2.928,3.727,4.677,6.278,2.509,3.66,4.974,7.442,7.357,11.1l.008.012c.88,1.35,1.79,2.746,2.688,4.116l1.98,3.017.1.149c3.012,4.591,6.126,9.338,9.214,14.008.934,1.413,1.87,2.825,2.781,4.2.431.649.887,1.334,1.395,2.095.105.158.219.314.338.48l0,0A5.348,5.348,0,0,1,168,78.4a3.346,3.346,0,0,1-.051,1.571c-.021.106-.043.216-.059.316a6.32,6.32,0,0,1-.539,1.884,7.464,7.464,0,0,1-1.6,2.141,30.159,30.159,0,0,1,1.282,3.417,35.793,35.793,0,0,1,.892,3.541,47.744,47.744,0,0,1,.842,7.256,52.655,52.655,0,0,1-.813,12.316,20.906,20.906,0,0,1-1.416,4.534,15.139,15.139,0,0,1-2.577,3.974,14.537,14.537,0,0,1-3.04,2.519,17.921,17.921,0,0,1-3.568,1.7,26.773,26.773,0,0,1-8.973,1.36c-1.485,0-3.075-.082-4.861-.251.072.306.135.613.2.91l0,.013c.025.122.051.247.077.368.114.538.233,2.852.37,5.532v0c.2,3.967.456,8.9.816,10.532.06.271.112.561.167.868a7.339,7.339,0,0,0,.9,2.835,4.865,4.865,0,0,1,.73,1.469,3.442,3.442,0,0,1,.066,1.633,5.464,5.464,0,0,1-1.331,2.544c-.14.139-.228.24-.292.314-.176.2-.176.2-.608.23-.339.021-.97.059-2.182.233-3.268.467-7.139.907-11.506,1.308-4.43.406-9.272.763-14.391,1.06-10.936.635-22.685.971-33.975.971h0ZM40.684,83.181a60.442,60.442,0,0,0-8.8.661c-2.714.4-5.54.971-8.641,1.742-2.51.624-5.209,1.382-8.491,2.384.1.362.215.79.337,1.214.265.922.546,1.844.836,2.741.628,1.943,1.331,3.872,2.088,5.733a74.271,74.271,0,0,0,5.45,10.759,73.523,73.523,0,0,0,5.968,8.484,48.983,48.983,0,0,0,3.522,3.847,37.563,37.563,0,0,0,3.917,3.349,14.166,14.166,0,0,0,3.962,2.066,13.958,13.958,0,0,0,4.386.694h0c.207,0,.42,0,.631-.013a44.547,44.547,0,0,0,9.5-1.807h0c.457-.122.929-.248,1.392-.369,7.455-1.948,14.9-4.262,22.142-6.877,3.148-1.137,6.457-2.415,10.73-4.142,1.933-.782,3.693-1.518,5.381-2.251.518-.225,1.043-.474,1.551-.716.326-.155.663-.315,1-.47-1.633-.982-3.267-2.019-4.848-3.022l-.006,0c-1.531-.971-3.113-1.975-4.693-2.928-1.948-1.176-3.692-2.134-5.329-2.931a40.141,40.141,0,0,0-5.638-2.267,48.258,48.258,0,0,0-6.345-1.512,50.638,50.638,0,0,0-6.489-.659c-.879-.033-1.775-.035-2.642-.037-1.233,0-2.508-.007-3.753-.1a8.144,8.144,0,0,1-2.53-.546,5.3,5.3,0,0,1-1.111-.616,4.771,4.771,0,0,1-.944-.914,12.1,12.1,0,0,1-1.794-4.193c-.092-.319-.186-.648-.283-.963-.575-1.867-1.132-3.762-1.649-5.532-.166-.029-.333-.063-.494-.1h0c-.181-.037-.369-.076-.55-.106-.814-.136-1.653-.249-2.5-.336-1.511-.157-3.082-.245-4.67-.262C41.089,83.182,40.886,83.181,40.684,83.181Zm22.334,8.513h0a53.51,53.51,0,0,1,12.668,1.544,48.256,48.256,0,0,1,6.626,2.144,53.51,53.51,0,0,1,6.27,3.036c2.249,1.273,4.461,2.692,6.6,4.064l0,0h0c1.642,1.054,3.34,2.143,5.044,3.159A94.023,94.023,0,0,0,126.1,116.21c2.264.554,4.659,1.063,7.117,1.515,2.291.421,4.709.8,7.188,1.139a56.284,56.284,0,0,0,7.592.588c.954,0,1.886-.036,2.77-.107a19.53,19.53,0,0,0,4.475-.843,10.864,10.864,0,0,0,3.95-2.2,10.4,10.4,0,0,0,2.941-4.951,27.572,27.572,0,0,0,.9-5.786,62.89,62.89,0,0,0,.1-6.893,37.56,37.56,0,0,0-.9-6.826,28.119,28.119,0,0,0-2.226-6.118c-.156-.318-.348-.656-.551-1.013v0a9.457,9.457,0,0,1-1.246-2.9c-.437-.023-.883-.035-1.325-.035a26.646,26.646,0,0,0-5.186.522,31.861,31.861,0,0,0-5,1.447l.093.006.028,0c.411.025.836.051,1.254.079,1.3.086,2.368.186,3.365.314.176.023.357.041.55.06H152a5.2,5.2,0,0,1,2.235.556,2.048,2.048,0,0,1,.939,1.552,2.5,2.5,0,0,1-.13,1.081,2.451,2.451,0,0,1-.591.937,2.563,2.563,0,0,1-1.147.619,5.477,5.477,0,0,1-1.426.161,17.957,17.957,0,0,1-2.051-.158c-.29-.034-.564-.066-.812-.087-9.744-.832-17.183-1.616-24.121-2.542-8.308-1.109-16.655-2.547-24.438-3.934-3.908-.7-8.1-1.419-12.254-1.98a121.957,121.957,0,0,0-12.358-1.094c-.935-.03-1.863-.046-2.758-.046-1.63,0-3.23.051-4.755.152-1.619.107-3.211.275-4.73.5a66.957,66.957,0,0,0-9.015,2.183l-.007,0c-.625.183-1.272.372-1.912.554.286.682.571,1.372.847,2.04.654,1.582,1.33,3.217,2.038,4.807.063.141.126.3.192.474.272.7.61,1.569,1.273,1.829a2.732,2.732,0,0,0,1,.155,10.662,10.662,0,0,0,1.3-.109c.284-.036.552-.069.793-.083C61.068,91.722,62.046,91.694,63.018,91.694Zm66.746-13.8a6.589,6.589,0,0,0-2.586.625,24.08,24.08,0,0,0-2.431,1.278c-.207.119-.4.232-.6.341-.534.305-1.1.651-1.786,1.089,4.427.607,8.963,1.153,13.482,1.624a14.439,14.439,0,0,0-4.019-4.345,3.653,3.653,0,0,0-1.013-.469A3.827,3.827,0,0,0,129.764,77.889Z" transform="translate(8.873 -0.423)"/>
  </g>
  <g id="HEAD" transform="translate(78.592 38.043)">
    <path id="_Skin-2" data-name="âœ‹ Skin" d="M49.314,93.462h0a44.78,44.78,0,0,1-26.6-8.741,2.329,2.329,0,0,1-.864-1.152,1.955,1.955,0,0,1,.014-1.222A17.134,17.134,0,0,1,19.8,80.232a18.049,18.049,0,0,1-1.7-2.471,17.608,17.608,0,0,1-1.271-2.732,16.112,16.112,0,0,1-.761-2.9.883.883,0,0,0-.52-.554,3.605,3.605,0,0,0-.815-.218c-.124-.023-.241-.045-.355-.072a19.42,19.42,0,0,1-5.908-1.81A7.324,7.324,0,0,1,6.2,67.6a5.978,5.978,0,0,1-.769-1.3,6.649,6.649,0,0,1-.453-1.589,11.952,11.952,0,0,1,.007-2.69,11.422,11.422,0,0,1,.522-2.305,23,23,0,0,1,1.887-3.945c.449-.8.913-1.629,1.3-2.481a11.934,11.934,0,0,0,.892-2.724,10.391,10.391,0,0,0,.092-3.242,15.894,15.894,0,0,0-1.1-4.033,63.388,63.388,0,0,0-3.5-8.919C4.13,32.24,3.147,30.04,2.3,27.838A37.949,37.949,0,0,1,.349,21.306,19.561,19.561,0,0,1,0,18.179a13.269,13.269,0,0,1,.246-2.96,10.078,10.078,0,0,1,2.781-5.193A8.659,8.659,0,0,1,5.569,8.272a7.2,7.2,0,0,1,2.957-.656,6.36,6.36,0,0,1,1.31.136A79.872,79.872,0,0,1,44.125,0,77.007,77.007,0,0,1,62.13,2.118l.24.057A34.013,34.013,0,0,1,66.043,3.2a10.777,10.777,0,0,1,3.314,1.825,3.8,3.8,0,0,1,1.185,1.563,2.8,2.8,0,0,1,.094,1.588,10.559,10.559,0,0,1-1.687,3.3,16.492,16.492,0,0,0-1.634,2.894,5.453,5.453,0,0,0-.378,1.531,4.068,4.068,0,0,0,.172,1.6c.367.514,1.019,1.558,1.744,2.792.6,1.024,1.536,2.659,2.575,4.637a51.152,51.152,0,0,1,4.222,9.916c.686,2.862,1.134,4.375,1.3,4.375.025,0,.038-.034.046-.06,0-.011.006-.021.008-.031s.007-.029.011-.029a2.96,2.96,0,0,1,.062.469c.063.554.193,1.707.489,4.044.359,2.838.8,6.59,1.024,10.442a73.174,73.174,0,0,1-.066,10.51,49.709,49.709,0,0,1-.7,5.131,40.091,40.091,0,0,1-1.279,4.968,34.194,34.194,0,0,1-1.962,4.744,31.5,31.5,0,0,1-2.748,4.461,23.942,23.942,0,0,1-2.069,2.162,26.832,26.832,0,0,1-3.979,3.036,28.031,28.031,0,0,1-5.993,2.819A30.865,30.865,0,0,1,51.682,93.4C50.9,93.44,50.1,93.462,49.314,93.462ZM2.127,18.088a16.442,16.442,0,0,0,.364,2.706A14.113,14.113,0,0,1,3.2,18.837,1.882,1.882,0,0,1,2.127,18.088ZM8.653,8.32a6.6,6.6,0,0,0-2.174.83,8.316,8.316,0,0,0-1.847,1.5A29.368,29.368,0,0,1,8.653,8.32Z" transform="translate(9.698 10.99)" fill="#d08b5b"/>
    <path id="_Ink-2" data-name="ðŸ– Ink" d="M60.146,107.224a27.247,27.247,0,0,1-8.637-1.408,26.616,26.616,0,0,1-4.033-1.732,25.544,25.544,0,0,1-3.693-2.391,1.488,1.488,0,0,1-.49-1.745,2.29,2.29,0,0,1,.718-1.019,1.819,1.819,0,0,1,1.13-.434,1.51,1.51,0,0,1,.882.289,26.522,26.522,0,0,0,7.009,3.523,24.561,24.561,0,0,0,7.645,1.239,22.518,22.518,0,0,0,8.67-1.712A22.2,22.2,0,0,0,73.723,99.4a24.083,24.083,0,0,0,3.77-3.343A24.616,24.616,0,0,0,80.5,92a23.469,23.469,0,0,0,2.09-4.561,55.493,55.493,0,0,0,2.079-11.371c.04-.357.085-.761.13-1.155l.032-.28c.259-2.25.457-4.472.589-6.606.139-2.253.208-4.483.206-6.628s-.081-4.073-.244-5.919a49.044,49.044,0,0,0-.8-5.576,43.864,43.864,0,0,0-1.475-5.433,48.305,48.305,0,0,0-2.267-5.49,39.444,39.444,0,0,0-6.521-9.6,3.013,3.013,0,0,1-.608.057,8.163,8.163,0,0,1-1.2-.122h0c-.209-.032-.426-.064-.635-.087-.461-.05-.864-.09-1.233-.125.4.26.806.537,1.237.845l.531.384.252.18.013.009a11.788,11.788,0,0,1,2.295,1.946,3.185,3.185,0,0,1,.783,2.723,1.646,1.646,0,0,1-.486.85,1.889,1.889,0,0,1-.85.488,2.889,2.889,0,0,1-.669.08,3.4,3.4,0,0,1-1.926-.67,12.788,12.788,0,0,1-1.649-1.43c-.311-.3-.6-.587-.9-.842-1.29-1.1-2.62-2.076-3.982-3.058-.359-.257-.657-.468-.936-.664.283.331.573.684.862,1.049l.414.526.217.271a12.456,12.456,0,0,1,1.719,2.544,3.022,3.022,0,0,1,.007,2.837,1.814,1.814,0,0,1-.682.685,1.857,1.857,0,0,1-.931.26h-.031a2.941,2.941,0,0,1-2.144-1.04,11.1,11.1,0,0,1-1.426-2.124c-.213-.376-.415-.732-.626-1.055-.953-1.456-2.006-2.835-2.909-3.992-.322-.41-.592-.751-.85-1.071a88.254,88.254,0,0,0-14.045,1.87c-2.8.606-5.788,1.417-9.4,2.551l-.258.082a11.634,11.634,0,0,0-4.614,2.422,6.247,6.247,0,0,0,.125,2.5l.129.626a37.059,37.059,0,0,1,.611,3.909,20.258,20.258,0,0,1,.01,3.962A29.213,29.213,0,0,1,28.4,54.6a3.359,3.359,0,0,1-.6,1.006,2.115,2.115,0,0,0-.546,1.289,13.7,13.7,0,0,0,.039,3.015l.075.848a16.814,16.814,0,0,1,.029,3.383,5.98,5.98,0,0,1-1.2,3.091.451.451,0,0,1-.361.163.6.6,0,0,1-.507-.275,3.629,3.629,0,0,0-.2-.323,4.081,4.081,0,0,0-1.3-1.207,5.156,5.156,0,0,0-1.7-.613.1.1,0,0,1-.093-.105.156.156,0,0,1,.128-.148,4.274,4.274,0,0,1,2.854.674c-.16-.555-.772-.837-1.818-.837a11.446,11.446,0,0,0-2.651.4l-.035.009a10.331,10.331,0,0,0-3.493,1.665,8.237,8.237,0,0,0-1.408,1.326,8.02,8.02,0,0,0-1.038,1.59,7.94,7.94,0,0,0-.819,3.714,7.53,7.53,0,0,0,1,3.607,6.967,6.967,0,0,0,1.142,1.47,6.83,6.83,0,0,0,1.53,1.128,7.428,7.428,0,0,0,3.526.871h.079a8.5,8.5,0,0,0,1.748-.258,8.219,8.219,0,0,1,1.765-.255c.086,0,.171,0,.254.008a1.151,1.151,0,0,1,.936.607.955.955,0,0,1-.04.959,3.578,3.578,0,0,1-1.109,1.131,37.182,37.182,0,0,0,4.006,7,23.118,23.118,0,0,0,2.943,3.337,9.877,9.877,0,0,0,.774.622,8.718,8.718,0,0,1,1.259,1.082,1.8,1.8,0,0,1,.548,1.335,1.033,1.033,0,0,1-.717.947,1.339,1.339,0,0,1-.51.1c-1.1,0-2.315-1.259-3.117-2.093-.09-.094-.184-.191-.268-.277l-.072-.073a25.227,25.227,0,0,1-3.046-3.686,18.191,18.191,0,0,1-1.93-3.716,19.173,19.173,0,0,1-1.046-4.039,7.137,7.137,0,0,1-2.053.275,11.388,11.388,0,0,1-2.546-.306,11.88,11.88,0,0,1-2.2-.73,9.135,9.135,0,0,1-1.856-1.124,9.447,9.447,0,0,1-1.51-1.485A10.088,10.088,0,0,1,12.1,77.934a10.705,10.705,0,0,1-.769-1.965,10.962,10.962,0,0,1-.31-4.447,10.26,10.26,0,0,1,.551-2.185,9.646,9.646,0,0,1,3.45-4.492,2.282,2.282,0,0,1-.567-.437,14.989,14.989,0,0,1-2.071-3.153l-.2-.375-.08-.145c-.589-1.066-1.148-2.158-1.664-3.246l-.193-.413c-.443-.954-.86-1.7-1.263-2.412a18.382,18.382,0,0,1-1.746-3.821A53.235,53.235,0,0,1,5.4,43.08l-.108-.7a18.369,18.369,0,0,1-.286-4.714,6.253,6.253,0,0,1-2.023.393,3.336,3.336,0,0,1-1.519-.348,1.865,1.865,0,0,1-.855-.993,1.958,1.958,0,0,1-.079-1.307A3.2,3.2,0,0,1,1.449,34a3.313,3.313,0,0,1-.67-.452L.6,33.394a1.849,1.849,0,0,1-.591-1.223A2.335,2.335,0,0,1,.274,30.83c.039-.067.08-.143.124-.224a2.417,2.417,0,0,1,2.057-1.2h.032l.2,0,.2,0a3.609,3.609,0,0,1-1.134-.444,2.266,2.266,0,0,1-.907-1.073A2.517,2.517,0,0,1,.7,26.535a2.269,2.269,0,0,1,.5-1.12,2.1,2.1,0,0,1,1.113-.675,4.364,4.364,0,0,1,1.022-.115,7.141,7.141,0,0,1,1.641.212l-.018-.01-.083-.049a2.732,2.732,0,0,1-.887-.893,2.044,2.044,0,0,1-.319-1.214,2.971,2.971,0,0,1,.318-1.223,2.314,2.314,0,0,1,.888-.887,2.506,2.506,0,0,1,1.26-.335,2.185,2.185,0,0,1,1.2.335A20.708,20.708,0,0,1,9.148,21.9a6.144,6.144,0,0,1-1.305-2.35A2.48,2.48,0,0,1,8.95,16.826a2.224,2.224,0,0,1,1.137-.316,2.541,2.541,0,0,1,1.1.265,2.391,2.391,0,0,1,.457-1.6,3.106,3.106,0,0,1,.949-.857,2.4,2.4,0,0,1,1.189-.334,2.089,2.089,0,0,1,1.128.333,3.374,3.374,0,0,1,.561.469,3.16,3.16,0,0,1-.15-.933,2.49,2.49,0,0,1,.151-.88,2.264,2.264,0,0,1,1.291-1.3,2.352,2.352,0,0,1,.911-.176,2.672,2.672,0,0,1,1.7.6,2.314,2.314,0,0,1,.524-1.921,2.811,2.811,0,0,1,.924-.724,2.578,2.578,0,0,1,1.122-.269,2.173,2.173,0,0,1,1.94,1.211c.36.649.656,1.23.9,1.776l.1.23.011,0-.071-.168-.072-.168c-.074-.172-.153-.349-.23-.52l0,0a8.641,8.641,0,0,1-.78-2.283,3.4,3.4,0,0,1,.033-1.173,2.484,2.484,0,0,1,.442-.994,2.243,2.243,0,0,1,1.532-.853,2.151,2.151,0,0,1,.289-.019,2.632,2.632,0,0,1,1.959.92A2.643,2.643,0,0,1,28.1,6a2.531,2.531,0,0,1,.515-.922,2.341,2.341,0,0,1,1.751-.821A2.388,2.388,0,0,1,32,4.942a7.772,7.772,0,0,1,1.5,2.3c.11.22.223.447.338.664.139.261.282.526.421.782l0,0c.164.3.334.619.5.931.077-.092.161-.185.251-.277a38.15,38.15,0,0,1-1.1-4.159,2.766,2.766,0,0,1,.253-1.891,2.38,2.38,0,0,1,1.486-1.179,2.308,2.308,0,0,1,.616-.082,2.69,2.69,0,0,1,1.545.5,2.2,2.2,0,0,1,.9,1.328c.181.869.4,1.773.677,2.764a4.455,4.455,0,0,1,.512-.093c.015-.177.031-.351.048-.517l.066-.611.014-.129a9.845,9.845,0,0,1,1.011-4.05A2.33,2.33,0,0,1,43.067.08a2.531,2.531,0,0,1,1.665.626,2.263,2.263,0,0,1,.552.74,2.407,2.407,0,0,1,.219.987,9.146,9.146,0,0,1-.36,2.28c-.114.465-.232.946-.3,1.418-.07.494-.118,1.023-.145,1.617a48.234,48.234,0,0,1,1.345-5.316c.043-.141.088-.285.132-.424h0l0-.015.059-.187A2.622,2.622,0,0,1,47.155.489,2.459,2.459,0,0,1,48.643,0a2.724,2.724,0,0,1,.323.02A2.637,2.637,0,0,1,50.51.836a2.056,2.056,0,0,1,.613,1.63c-.024.223-.057.446-.1.662l.005,0h.005l-.028.08a4.134,4.134,0,0,1-.365,1.061c-.235.687-.458,1.37-.626,1.889.063,0,.125,0,.183,0a3.933,3.933,0,0,1,.72.065l.415-1.063.006-.016c.174-.444.353-.9.53-1.356.082-.209.156-.429.235-.661a5.081,5.081,0,0,1,1.013-2,2.829,2.829,0,0,1,2-.786,2.755,2.755,0,0,1,1.394.363A2.581,2.581,0,0,1,57.643,2a3.1,3.1,0,0,1,.125,1.734,1.948,1.948,0,0,1-1.059,1.341l-.056.029-.4.947a3.276,3.276,0,0,1,.386-.142,3.16,3.16,0,0,1,.632-.12c.507-.921,1.093-1.881,1.843-3.022a2.815,2.815,0,0,1,.964-.906,2.521,2.521,0,0,1,1.233-.33,2.389,2.389,0,0,1,1.223.338,2.692,2.692,0,0,1,1.2,1.725,2.134,2.134,0,0,1-.3,1.7c-.513.724-1.041,1.514-1.712,2.56a2.452,2.452,0,0,1,.28.065c.043-.058.088-.116.133-.171a12.709,12.709,0,0,1,1.727-1.68l.305-.262A4.867,4.867,0,0,0,64.857,5a3.431,3.431,0,0,1,1.186-1.149,2.641,2.641,0,0,1,1.174-.283,2.314,2.314,0,0,1,1.106.276,2.235,2.235,0,0,1,.855.831,2.647,2.647,0,0,1,.041,2.851,9.984,9.984,0,0,1-2.035,2.263l0,0c-.178.162-.347.315-.508.468A37.788,37.788,0,0,1,70.822,8c.973-.449,1.726-.768,2.441-1.036a3.615,3.615,0,0,1,1.268-.254,2.6,2.6,0,0,1,1,.2,3.56,3.56,0,0,1,.958.6,1.633,1.633,0,0,1,.479.818,1.612,1.612,0,0,1-.013.947,3.4,3.4,0,0,1-.805,1.289,3.049,3.049,0,0,1-1.337.723c-.364.1-.738.187-1.1.271-.415.1-.843.2-1.26.316a25.921,25.921,0,0,0-3.807,1.408,1.968,1.968,0,0,1,.251.182c.9-.291,1.838-.552,2.8-.776a36.04,36.04,0,0,1,4.741-.769l.53-.049.3-.03h.007c.592-.059,1.2-.12,1.807-.12A5.044,5.044,0,0,1,80.907,12a2.885,2.885,0,0,1,1.434,1.174,2.155,2.155,0,0,1,.305,1.1,1.854,1.854,0,0,1-.305,1.1A3.08,3.08,0,0,1,81.049,16.5a4.383,4.383,0,0,1-1.693.276c1.305.139,2.647.314,3.987.522.9.137,1.82.3,2.734.473l.454.089c.188.038.384.073.574.108h0a7.023,7.023,0,0,1,2.718.885,2.567,2.567,0,0,1,.985,1.174,2.187,2.187,0,0,1,.093,1.321,2.446,2.446,0,0,1-.77,1.267,2.783,2.783,0,0,1-1.505.667,3.408,3.408,0,0,1-.423.025,8.765,8.765,0,0,1-2.1-.36c-.317-.081-.616-.157-.911-.217-1.039-.21-2.111-.4-3.188-.566-.516-.081-1.059-.157-1.659-.232a23.067,23.067,0,0,1,3.337.718l.3.092A15.884,15.884,0,0,1,87.333,24.1a6.115,6.115,0,0,1,1.4,1.093,3.691,3.691,0,0,1,.857,1.475,1.951,1.951,0,0,1-.277,1.7,2.3,2.3,0,0,1-1.734.952c-.057,0-.115.005-.172.005a5.377,5.377,0,0,1-2.555-.9c-.185-.1-.376-.208-.564-.306a13.839,13.839,0,0,0-2.348-.939c-.823-.253-1.69-.472-2.576-.651A20.273,20.273,0,0,1,81.5,27.876l.315.234a16.906,16.906,0,0,1,2.906,2.566,5.324,5.324,0,0,1,.965,1.632,3.162,3.162,0,0,1,.092,1.827,2.069,2.069,0,0,1-.68,1.036,1.822,1.822,0,0,1-1.15.462c-.043,0-.086,0-.128-.006a3.834,3.834,0,0,1-1.97-.823,13.259,13.259,0,0,1-1.622-1.551,13.181,13.181,0,0,0-1.571-1.506c-.417-.316-.9-.648-1.429-.985a37.429,37.429,0,0,1,3.451,4.9,44.773,44.773,0,0,1,2.694,5.349,53.689,53.689,0,0,1,3.505,11.837c.337,1.928.579,3.892.739,6,.149,1.962.224,4.018.231,6.286v.268c.005,5.87-.17,10.3-.567,14.37a49.06,49.06,0,0,1-1.019,6.5,27.971,27.971,0,0,1-2.184,6.188,25.342,25.342,0,0,1-3.046,4.691,27.656,27.656,0,0,1-4,3.976,28.179,28.179,0,0,1-4.712,3.1,26.56,26.56,0,0,1-5.195,2.056A26.217,26.217,0,0,1,60.146,107.224ZM22.255,31.731h0a.58.58,0,0,0-.421.192A8.382,8.382,0,0,0,20.46,34.06a.621.621,0,0,0,.022.623.718.718,0,0,0,.584.34.532.532,0,0,0,.486-.322l.166-.332a6.619,6.619,0,0,1,.926-1.457l.085-.091a.591.591,0,0,0,.13-.664.686.686,0,0,0-.6-.425Zm-7.671-1.259a.729.729,0,0,0-.121.01c-.519.088-1.044.183-1.551.274s-1.029.186-1.545.273a.513.513,0,0,0-.455.581.7.7,0,0,0,.671.653.727.727,0,0,0,.121-.01c.517-.087,1.04-.182,1.547-.274s1.032-.187,1.55-.274a.513.513,0,0,0,.455-.581A.7.7,0,0,0,14.584,30.472Zm47.731-7.147a.59.59,0,0,0-.556.531.69.69,0,0,0,.064.428.62.62,0,0,0,.364.3A25.26,25.26,0,0,1,65.314,25.8a.66.66,0,0,0,.292.071.7.7,0,0,0,.654-.546.528.528,0,0,0-.308-.619,28,28,0,0,0-3.43-1.342A.655.655,0,0,0,62.315,23.325ZM14.387,21.669a.552.552,0,0,0-.515.489.68.68,0,0,0,.409.782l2.732,1.1a.621.621,0,0,0,.23.048.552.552,0,0,0,.515-.488.68.68,0,0,0-.409-.782l-2.732-1.1A.62.62,0,0,0,14.387,21.669Zm57.25-3.1h0a.633.633,0,0,0-.576.481.653.653,0,0,0,0,.385.618.618,0,0,0,.263.333c.159.1.334.194.5.283a4.06,4.06,0,0,1,.75.463l.076.068a.609.609,0,0,0,.421.178.7.7,0,0,0,.626-.439.559.559,0,0,0-.153-.635,4.849,4.849,0,0,0-1.02-.682c-.154-.085-.313-.173-.465-.267l-.1-.063a.6.6,0,0,0-.326-.1ZM24.773,76.017a1.064,1.064,0,0,1-.849-.535,9.021,9.021,0,0,0-5.153-4.305.059.059,0,0,1-.035-.059.038.038,0,0,1,.035-.036,6.129,6.129,0,0,1,.937-.072,6.277,6.277,0,0,1,1.763.257,7.244,7.244,0,0,1,1.627.71A9.354,9.354,0,0,1,25.773,74.4a1.1,1.1,0,0,1-.169,1.3.986.986,0,0,1-.741.313l-.016,0A.578.578,0,0,1,24.773,76.017Z" transform="translate(1.265 0.211)"/>
  </g>
  <g id="FACE" transform="translate(112.183 77.354)">
    <path id="teeth" d="M.41,2.821C2.1-.561,17.6.959,17.6.959l1.31,10.749s-7.481,2.406-11.934,1.9S-1.281,6.2.41,2.821Z" transform="translate(19.414 44.682)" fill="#fff"/>
    <path id="tongue" d="M.019,2.865C-.517,1.719,10.568-1.407,14,.729s2.359,5.05,2.359,5.05S1.924,9.072.019,2.865Z" transform="translate(20.897 50.283)" fill="#ff8181"/>
    <path id="_Ink-3" data-name="ðŸ– Ink" d="M15.572,47.1a15.123,15.123,0,0,1-5.254-.9A9.879,9.879,0,0,1,6,43.187a8.61,8.61,0,0,1-1.9-4.961,7.4,7.4,0,0,1,.338-2.618,6.8,6.8,0,0,1,1.325-2.364,7.672,7.672,0,0,1,3.242-2.2,11.363,11.363,0,0,1,3.892-.631,16.832,16.832,0,0,1,3.42.368c.9.187,1.8.427,2.679.659a32.867,32.867,0,0,0,4.245.926,22.028,22.028,0,0,0,2.791.165c.172,0,.348,0,.525,0,.472-.009.952-.056,1.416-.1.515-.05,1.046-.1,1.568-.1.094,0,.187,0,.275.005a.169.169,0,0,1,.16.128.165.165,0,0,1-.075.186,8.378,8.378,0,0,1-2.521.968,22.346,22.346,0,0,1-2.723.417,3.164,3.164,0,0,0,.031.364c.055.33.1.6.127.86.076.622.162,1.253.246,1.863l.012.088c.057.415.1.841.145,1.254a19.591,19.591,0,0,0,.393,2.6l.054.209a1.932,1.932,0,0,1,.064.717l.071-.032.226-.109.148-.07a3.329,3.329,0,0,1,1.445-.383c.08,0,.162,0,.244.012a1.059,1.059,0,0,1,.626.27.84.84,0,0,1,.266.622,2.281,2.281,0,0,1-.5,1.447,3.886,3.886,0,0,1-1.238.987,13.544,13.544,0,0,1-3.089,1.053l-.068.017-.523.129a37.656,37.656,0,0,1-6.925,1.156C16.136,47.09,15.852,47.1,15.572,47.1Zm-1.242-7.01h0a12,12,0,0,0-3.516.626A4.186,4.186,0,0,0,8.854,41.72a.11.11,0,0,0,.024.13,7.641,7.641,0,0,0,3.086,1.786,12.045,12.045,0,0,0,3.573.5,18.488,18.488,0,0,0,2.5-.18,40.886,40.886,0,0,0,4.748-.981,3.23,3.23,0,0,0-1.135-2.207,3.282,3.282,0,0,0-2.072-.708,3.419,3.419,0,0,0-1.565.371A2.709,2.709,0,0,0,16.879,41.5a1.475,1.475,0,0,0-.858-1.1,3.868,3.868,0,0,0-1.69-.314Zm-.806-6.705h0a9.988,9.988,0,0,0-2.562.3,6.312,6.312,0,0,0-2.293,1.111,3.79,3.79,0,0,0-1.42,2.315c1.889-.28,3.934-.522,6.25-.738l.57-.052c1.3-.117,2.621-.243,3.921-.373l.929-.094.928-.1c.253-.027,1.584-.1,2.378-.1a3.913,3.913,0,0,1,.564.026c.012-.1.024-.227.039-.374a9.747,9.747,0,0,1,.156-1.165c-.253.009-.51.013-.765.013a29.552,29.552,0,0,1-3.911-.283l-.274-.037-1.077-.155-.424-.058a23.074,23.074,0,0,0-3.009-.239ZM23.071,27.1h0a7.374,7.374,0,0,1-2.63-.53,13.282,13.282,0,0,1-3.093-1.756,1.189,1.189,0,0,1-.432-.687,1.423,1.423,0,0,1,.061-.771A1.754,1.754,0,0,1,17.5,22.6a1.267,1.267,0,0,1,.811-.317,1.151,1.151,0,0,1,.628.193l.21.162h0a16.743,16.743,0,0,0,1.936,1.347,4.768,4.768,0,0,0,2.321.74,2.505,2.505,0,0,0,.981-.193,2.741,2.741,0,0,0,.913-.647,2.956,2.956,0,0,0,.585-1.572l-.04.021-.033.019-.027.015V22.32l.076-.028.024-.008c0,.008,0,.016,0,.024v.01l.037-.02.026-.016c.014-.009.021-.015.021-.018l0,0a.373.373,0,0,0-.077.021,3.555,3.555,0,0,0-.961-2.395,8.039,8.039,0,0,0-1.935-1.636.531.531,0,0,1-.143-.61.8.8,0,0,1,.264-.38.809.809,0,0,1,.505-.167,1.076,1.076,0,0,1,.182.016,5.736,5.736,0,0,1,2.018.729,4.577,4.577,0,0,1,1.357,1.252,4.974,4.974,0,0,1,.866,3.322,5.475,5.475,0,0,1-.444,1.744,5.087,5.087,0,0,1-1,1.5A4.779,4.779,0,0,1,23.071,27.1ZM8.139,17.866a1.812,1.812,0,0,1-1.177-.456,3.617,3.617,0,0,1-.849-1.1,6.283,6.283,0,0,1-.7-2.585v-.048a7.1,7.1,0,0,1,.637-2.718,2.513,2.513,0,0,1,2.09-1.707c.563,0,1.062.455,1.444,1.317a8.791,8.791,0,0,1,.631,2.936l0,.088a8.33,8.33,0,0,1-.168,1.946,3.842,3.842,0,0,1-.837,1.855A1.447,1.447,0,0,1,8.139,17.866Zm23.1-.423a1.45,1.45,0,0,1-1.086-.487,3.823,3.823,0,0,1-.84-1.916,8.173,8.173,0,0,1-.148-1.96l.011-.162a8.534,8.534,0,0,1,.647-2.833c.378-.823.868-1.258,1.417-1.258a2.513,2.513,0,0,1,2.09,1.707,7.1,7.1,0,0,1,.637,2.718V13.3a6.283,6.283,0,0,1-.7,2.585,3.617,3.617,0,0,1-.849,1.1A1.812,1.812,0,0,1,31.239,17.444ZM1.188,9.159H1.177a1.037,1.037,0,0,1-.8-.391A2.665,2.665,0,0,1,.052,6.8,8.461,8.461,0,0,1,.824,4.48a9.332,9.332,0,0,1,1.37-2.023A7.516,7.516,0,0,1,4.147.876,7,7,0,0,1,6.519.06,5.406,5.406,0,0,1,7.329,0a4.988,4.988,0,0,1,2.1.438,3.367,3.367,0,0,1,.877.585,2.751,2.751,0,0,1,.624.863,1.142,1.142,0,0,1-.034,1.07,1.02,1.02,0,0,1-.856.481c-.212.01-.441.015-.7.015-.234,0-.465,0-.689-.008H8.649c-.219,0-.446-.007-.667-.007A7.943,7.943,0,0,0,6.207,3.6a4.532,4.532,0,0,0-1.718.792A8.778,8.778,0,0,0,2.562,6.5l-.2.295-.167.243A2.828,2.828,0,0,0,1.541,8.8a.322.322,0,0,1-.091.24A.366.366,0,0,1,1.188,9.159ZM36.747,7.712a1.309,1.309,0,0,1-.739-.214,3.616,3.616,0,0,1-1.077-1.307,6.108,6.108,0,0,0-.587-.881A6.3,6.3,0,0,0,30.356,3.27l-.126-.012c-.086-.007-.218-.012-.362-.012a6.883,6.883,0,0,0-1.145.091,1.35,1.35,0,0,0-.876.391.366.366,0,0,0-.028.358.145.145,0,0,1-.015.138.208.208,0,0,1-.166.086.153.153,0,0,1-.117-.05.982.982,0,0,1-.263-.818,2.31,2.31,0,0,1,1.061-1.426,6.039,6.039,0,0,1,3.235-.889c.177,0,.356.007.531.021A8.688,8.688,0,0,1,35,1.991,7.216,7.216,0,0,1,37.565,3.95a3.742,3.742,0,0,1,.642,1.229,3.026,3.026,0,0,1,.072,1.4A1.539,1.539,0,0,1,36.747,7.712Z" transform="translate(13.098 12.258)"/>
  </g>
</svg>
