<svg id="peep-104" xmlns="http://www.w3.org/2000/svg" width="240" height="324" viewBox="0 0 240 324">
  <g id="BODY" transform="translate(31.056 135.053)">
    <path id="_Skin" data-name="âœ‹ Skin" d="M27.8,162.868c-.073,0-.153,0-.238-.007a90.249,90.249,0,0,1-12.994-1.689c-3.754-.747-7.676-1.712-12.716-3.126a2.574,2.574,0,0,1-1.329-.913A2.471,2.471,0,0,1,0,155.61c.158-12.222.508-24.534,1.04-36.595.477-10.808,1.114-21.762,1.895-32.557.34-4.7.712-9.453,1.108-14.133l.172-2.018c.046-.531.088-1.07.129-1.592a53.413,53.413,0,0,1,.736-6.226,14.114,14.114,0,0,1,1.225-3.567A15.954,15.954,0,0,1,8.4,55.785a47.088,47.088,0,0,1,3.569-3.219C13.8,51,16.183,49.03,18.669,47.01c4.475-3.636,10.03-8.018,12.2-9.413,2.568-1.649,5.266-3.153,7.875-4.608,1.353-.754,2.752-1.534,4.118-2.326a7.426,7.426,0,0,1,2.208-.767,5.4,5.4,0,0,0,2.478-1.035c.424-.353,4.135-1.871,7.723-3.339,2.737-1.12,5.566-2.277,6.842-2.881L62.2,22.6A26.6,26.6,0,0,0,65.4,20.837a12.22,12.22,0,0,0,2.673-2.351,10.455,10.455,0,0,0,.966-2.673,15.885,15.885,0,0,0,.577-3.148c0-.381,0-.772-.008-1.151a18.27,18.27,0,0,1,.519-5.641,8.163,8.163,0,0,1,.815-1.814,7.577,7.577,0,0,1,2.743-2.665A8.1,8.1,0,0,1,75.524.633,20.657,20.657,0,0,1,81.032,0c1.331,0,2.639.08,3.508.14,1.246.086,2.885.22,4.522.492A21.183,21.183,0,0,1,93.448,1.8a11.912,11.912,0,0,1,3.284,1.938,10.066,10.066,0,0,1,2.4,2.953A14.345,14.345,0,0,1,100.3,9.663a24.545,24.545,0,0,1,.629,3.136c.13.917.236,1.832.323,2.607l.2,1.811c.079.691.147,1.212.285,1.984a17.842,17.842,0,0,0,.747,2.956,9.316,9.316,0,0,0,1.349,2.52,11.835,11.835,0,0,0,2.089,2.116,15.92,15.92,0,0,0,2.461,1.588,42.586,42.586,0,0,0,5.5,2.28c.581.21,1.181.427,1.763.646a9.788,9.788,0,0,1,3.539,2.2,7.083,7.083,0,0,1,1.944,3.653c.133.66,1.411,2.492,3.8,5.446,1.981,2.45,4.658,5.592,7.957,9.338,5.808,6.595,11.854,13.133,12.941,14.155l.059.055c1.342,1.209,1.481,3.28,1.6,5.107.031.458.06.89.106,1.3.249,2.2.489,4.435.716,6.654.458,4.492.872,9.048,1.23,13.54.7,8.794,1.216,17.723,1.533,26.539s.444,17.763.376,26.581l-.009,1c-.005.549-.008,1.1-.011,1.64-.009,1.679-.018,3.414-.094,5.116-.119,2.654-1.045,4.487-2.751,5.449a7.385,7.385,0,0,1-2.565.818,24.372,24.372,0,0,1-2.745.2c-.316.011-.642.023-.957.039l-.124.006c-2.118.116-4.362.218-6.67.3-6.321.234-13.158.343-21.514.343-1.748,0-3.585,0-5.617-.014-3.263-.015-6.582-.041-9.792-.066h-.022c-5.038-.039-10.248-.08-15.371-.08-5.332,0-10.018.045-14.327.136-5.131.109-9.814.285-14.318.537-.34.019-.75.029-1.221.029-2.314,0-5.843-.224-9.579-.461l-.346-.022c-3.569-.226-7.614-.483-10.386-.483-.888,0-1.615.027-2.16.08a3.132,3.132,0,0,0-2.111.716,1.116,1.116,0,0,0-.141.915c.034.242.064.451-.062.6S28.2,162.868,27.8,162.868ZM80.337,58.584,62.953,92.453h11.3l-8.1,18.818H83.949l-6.313,26.358,36.1-45.176H100.189l13.546-17.787h-9.4l9.4-15.063Z" transform="translate(10.985 -11.624)" fill="#d08b5b"/>
    <path id="_Top" data-name="ðŸ‘• Top" d="M63.017,3.774,56.262,80.728,0,82.122V0Z" transform="translate(68.458 41.199)" fill="#fdea6b"/>
    <path id="_Ink" data-name="ðŸ– Ink" d="M29.583,156.751h0a2.2,2.2,0,0,1-.291-.02,2.3,2.3,0,0,1-1.5-.927,1.9,1.9,0,0,1-.385-1.438c-.233-5.3-.136-10.7-.041-15.931v-.025q.012-.668.024-1.336c.088-4.892.269-9.877.551-15.239.252-4.786.58-9.763,1-15.217.482-6.2.957-10.953,1.54-15.4.07-.537.138-1.085.2-1.615a57.425,57.425,0,0,1,.944-5.943c.153-.657.289-1.35.421-2.021.109-.557.222-1.132.346-1.7l-.068-.108c-.256-.4-.52-.823-.792-1.219-.94-1.371-1.9-2.68-2.85-3.891A95.14,95.14,0,0,0,7.354,55.192a1.661,1.661,0,0,1,.108,1.131,1.349,1.349,0,0,1-.651.89c-.106,4.327-.418,8.718-.718,12.964v0c-.064.905-.131,1.841-.194,2.763-.68,9.9-.948,15.27-1.106,18.844-.305,6.9-.433,13.076-.39,18.871.048,6.422.2,12.775.439,18.882.141,3.485.286,6.6.442,9.539.064,1.2.138,2.411.21,3.587v.006c.025.4.055.9.084,1.38q.009.143.018.286a9.384,9.384,0,0,1-.019,2.111,2.96,2.96,0,0,1-.308.93,2.4,2.4,0,0,1-.667.773l0,.014v0l0,.023a1.268,1.268,0,0,1-.437.8,1.236,1.236,0,0,1-.784.3.956.956,0,0,1-.584-.191,1.135,1.135,0,0,1-.393-.612c-.01-.035-.02-.071-.03-.1h0c-.01-.033-.02-.068-.029-.1C.973,147.458.89,145.825.81,144.246c-.01-.2-.021-.407-.034-.608-.107-1.662-.209-3.424-.311-5.387-.177-3.422-.306-7.05-.382-10.783-.127-6.174-.109-12.6.053-19.1.154-6.16.442-12.579.858-19.079.442-6.938,1-13.165,1.7-19.036A125.148,125.148,0,0,1,4.86,57.229a3.122,3.122,0,0,1-1.29-.743A3.662,3.662,0,0,1,2.7,55.146a4.257,4.257,0,0,1-.287-1.381,4.34,4.34,0,0,1,.168-1.352,5.593,5.593,0,0,0-.289.873.111.111,0,0,1-.111.093.145.145,0,0,1-.108-.051.137.137,0,0,1-.03-.112,7.239,7.239,0,0,1,.907-2.422,24.011,24.011,0,0,1,1.463-2.2h0c.133-.184.27-.375.4-.559A57.756,57.756,0,0,1,8.448,43.4c1.1-1.255,2.272-2.5,3.493-3.688,1.177-1.15,2.433-2.289,3.733-3.387a84.225,84.225,0,0,1,8.066-5.99c2.656-1.745,5.491-3.427,8.67-5.141,2.708-1.46,5.664-2.942,9.037-4.529.8-.375,1.627-.762,2.544-1.182a1.283,1.283,0,0,1,.532-.12,1.17,1.17,0,0,1,.25.027h0a1.576,1.576,0,0,1,.446-.063,2.2,2.2,0,0,1,1.326.492l.034.027a6.084,6.084,0,0,1,1.2,1.133,1.361,1.361,0,0,1,.207,1.04c1.385-.373,2.824-.842,4.4-1.433,3.367-1.262,6.582-2.775,9.587-4.216l.578-.275a29.7,29.7,0,0,0,3.541-1.883,8.883,8.883,0,0,0,2.817-2.745,12.546,12.546,0,0,0,1.372-4.388l0-.013.047-.258c.108-.584.209-1.181.308-1.758.212-1.248.432-2.537.728-3.783a1.618,1.618,0,0,1,.621-.906A1.76,1.76,0,0,1,73.024,0a2.062,2.062,0,0,1,.87.235,1.321,1.321,0,0,1,.711.837,2.46,2.46,0,0,1,.079,1.11c-.213,1.425-.525,2.865-.828,4.259h0c-.115.529-.234,1.076-.345,1.614a15,15,0,0,1-1.777,5.062,11.834,11.834,0,0,1-3.489,3.442,31.111,31.111,0,0,1-4.356,2.331,74.651,74.651,0,0,1-10.789,4.3,31.477,31.477,0,0,1-5.55,1.05c-.059.006-.136.013-.211.017.847.464,1.712.923,2.527,1.353,3,1.586,5.683,2.9,8.2,4.009a76.073,76.073,0,0,0,14.884,4.816A74.755,74.755,0,0,0,88.5,36.092c.4,0,.8,0,1.195-.01a72.037,72.037,0,0,0,8.071-.584,67.612,67.612,0,0,0,7.949-1.519,51.616,51.616,0,0,0,8.273-2.794A41.135,41.135,0,0,0,118.239,29c.354-.211.693-.43,1.008-.636-2.445-.827-4.89-1.775-7.254-2.691h0l-.232-.09a22.923,22.923,0,0,1-4.284-2.107,13.412,13.412,0,0,1-3.493-3.217,13.315,13.315,0,0,1-1.943-3.736,19.451,19.451,0,0,1-.882-4.131,28.967,28.967,0,0,1,.2-8.331.2.2,0,0,1,.206-.163.236.236,0,0,1,.231.163c.338,1.185.59,2.411.833,3.6.278,1.352.565,2.75.981,4.1a29.83,29.83,0,0,0,1.269,3.427,16.009,16.009,0,0,0,1.833,3.15,10,10,0,0,0,3.091,2.625,24.612,24.612,0,0,0,3.739,1.648c1.576.581,3.192,1.127,4.756,1.655l.006,0c1.038.351,2.11.713,3.16,1.082a16.714,16.714,0,0,1,4.02.9c-.545-.367-1.007-.7-1.413-1.023a.087.087,0,0,1-.029-.1.126.126,0,0,1,.112-.083.1.1,0,0,1,.024,0,27.415,27.415,0,0,1,4.93,2.016l.109.053c1.743.851,3.287,1.689,4.722,2.56,1.772,1.077,3.3,2.088,4.669,3.089A40.541,40.541,0,0,1,142.9,36.34a51.111,51.111,0,0,1,6.822,8.367c.895,1.326,1.813,2.769,2.806,4.409.4.655.824,1.368,1.339,2.245.111.189.232.383.349.57a7.448,7.448,0,0,1,1.035,2.129,5.14,5.14,0,0,1-.228,1.331c-.168.694-.412,1.581-.687,2.5a26.842,26.842,0,0,1-1.616,4.4c-.069.109-.136.212-.2.315a1.454,1.454,0,0,1-1.215.694,1.525,1.525,0,0,1-1.1-.492,1.407,1.407,0,0,1-.373-1.081c-.117.1-.227.2-.326.289v.007c.825,4.945,1.678,10.058,2.285,15.181,1.282,10.842,2.144,21.9,2.979,32.6h0l0,.041c.1,1.263.2,2.568.3,3.852.471,6.007.82,11.966,1.166,18.049.188,3.335.345,6.357.482,9.238.075,1.553.148,3.125.212,4.511l.005.109c.017.378.047.758.078,1.162a11.473,11.473,0,0,1-.1,3.676,2.259,2.259,0,0,1-.839,1.292,2.229,2.229,0,0,1-1.324.414,2.678,2.678,0,0,1-1.46-.442,2.507,2.507,0,0,1-.991-1.264,7.4,7.4,0,0,1-.295-2.3c0-.213-.01-.433-.02-.645l-.064-1.373-.063-1.355c-.082-1.721-.166-3.417-.247-5.041-.084-1.684-.166-3.388-.246-5.035l0-.041c-.079-1.639-.161-3.334-.244-5-.311-6.267-.635-12.638-.947-18.8l0-.067c-.286-5.64-.582-11.471-.869-17.223-.044-.884-.09-1.788-.13-2.586v0c-.258-5.128-.525-10.43-.667-15.65-.1-3.68-.105-7.421-.112-11.04q0-.625,0-1.251c-.072.065-.145.133-.216.2h0l-.119.11c-1.611,1.514-2.9,2.782-4.058,3.993-.559.585-1.291,1.359-2,2.158-.139.157-.277.32-.411.478a7.384,7.384,0,0,1-1.556,1.511,1.359,1.359,0,0,1-.791.238,2.033,2.033,0,0,1-1.3-.508c-.047-.043-.094-.083-.139-.122a1.2,1.2,0,0,1-.159-.168c-.006,1.024-.012,2.235-.017,3.456-.02,7.022.061,13.342.245,19.322.212,6.855.556,13.165,1.052,19.292.472,5.84,1.086,12.019,1.935,19.444.352,3.087.748,6.277,1.175,9.483.206,1.543.425,3.109.67,4.789.041.282.1.576.148.861v0a11.221,11.221,0,0,1,.23,1.75,2.531,2.531,0,0,1-.258,1.192,4.9,4.9,0,0,1-.693,1,1.26,1.26,0,0,1-.96.394,1.472,1.472,0,0,1-.356-.043,2.865,2.865,0,0,1-.608.884,4.565,4.565,0,0,1-3.354,1.049c-.378,0-.755-.015-1.12-.03h-.019c-.372-.015-.724-.029-1.07-.029-.11,0-.211,0-.309,0l-5.116.151h-.041l-7.715.228-1.336.04c-14.773.438-30.05.891-45.086,1.334-7.6.226-15.414.428-23.212.6-2.345.05-4.827.074-7.587.074-1.258,0-2.572,0-4.018-.015a75.613,75.613,0,0,1-8.727-.545,2.157,2.157,0,0,1-1.908,1.153Zm63.3-57.3h0a1.256,1.256,0,0,1,1.086.6,1.219,1.219,0,0,1,.018,1.219l-.09.172c-.1.186-.2.378-.295.568-1.659,3.189-3.324,6.443-4.934,9.589l0,0c-.778,1.52-1.582,3.092-2.38,4.647L84.3,120.132l-.1.191-1.755,3.419-.009.017-.008.015c1.39-1.706,2.805-3.488,4.206-5.3.726-.937,1.48-1.909,2.145-2.767C93.474,109.659,98.328,103.4,102.794,97c1.343-1.925,2.638-3.887,3.849-5.732.636-.97,1.286-1.972,1.933-2.98.02-.03.068-.119.129-.232.114-.21.286-.527.42-.732-.1-.005-.2-.013-.3-.021-.176-.014-.357-.029-.538-.029a2.512,2.512,0,0,0-.477.042c-.745.145-1.5.352-2.223.553-.344.1-.7.193-1.05.284-1.721.44-3.471.889-5.162,1.323l-.007,0-.711.182c-.263.066-.528.134-.785.2l-.051.013a2.913,2.913,0,0,1-.721.1,1.014,1.014,0,0,1-.967-.428c-.148-.3-.031-.713.338-1.195l.015-.02c.25-.325.508-.661.768-.992,1.526-1.963,3.023-4.1,4.471-6.164a101.122,101.122,0,0,1,7.195-9.459c-2.208.167-4.2.314-6.2.421l-.063,0a1.44,1.44,0,0,1-1.231-.822,1.282,1.282,0,0,1,.049-1.352c.227-.315.437-.6.642-.877a32.29,32.29,0,0,0,2.27-3.907A30.449,30.449,0,0,1,106.85,61l.259-.33c1.565-2,3.182-4.065,4.837-6.046l-.2-.169a1.736,1.736,0,0,1-1.438.532c-.232,0-.461-.017-.682-.033h0l-.262-.018c-.919-.05-1.893-.111-2.894-.182-1.679-.117-5.537-.2-9.622-.282-5.415-.113-11.014-.229-11.735-.441l-.146.4c-.386,1.068-.75,2.076-1.208,3.1-.574,1.285-1.179,2.638-1.906,4.259-1.232,2.747-2.544,5.492-3.78,8.048l-1.9,3.928-.222.46-1.836,3.8c-.208.43-.423.862-.631,1.281-.44.886-.895,1.8-1.3,2.718a4.214,4.214,0,0,0-.4,1.507,60.53,60.53,0,0,1,7.5-1.612,63.537,63.537,0,0,1,7.638-.666c.141,0,.285-.007.423-.009h.031l.112,0a101.832,101.832,0,0,0-6.434,10.278,93.564,93.564,0,0,0-5.084,10.925.678.678,0,0,0,.173.8l-.083.169,0,0c-.033.067-.067.136-.1.2l.35-.1.255-.075a1.029,1.029,0,0,0,.2.019.886.886,0,0,0,.656-.272c4.988-1.463,10.1-2.714,15.2-3.719A1.412,1.412,0,0,1,92.888,99.449Zm47.748-28.661a1.851,1.851,0,0,1-.122.2c.029-.031.059-.06.086-.087l.036-.036ZM43.962,22.1h0l-.235.107c.229.138.477.286.758.45-.078-.076-.155-.157-.23-.236h0c-.05-.052-.1-.107-.152-.158a1.4,1.4,0,0,1-.139-.163Z" transform="translate(9.085 -4.861)"/>
  </g>
  <g id="HEAD" transform="translate(78.592 38.043)">
    <path id="_Skin-2" data-name="âœ‹ Skin" d="M50.825,95.093a19.467,19.467,0,0,1-11.691-3.505C35.347,90.233,30.779,88.146,28,85.954c-1.082.277-2.377-.876-3.205-1.484-5.149-3.855-9.191-9.5-10.389-15.149-1.849,2.34-4.48,2.437-7,1.274-5.283-3-5.086-9.328-3.184-14.054-4-8.994-6.77-32.739-.666-42.322,1.248-1.434,3.081-2.291,4.4-3.762a27.125,27.125,0,0,1,3.656-3.614c4.167-3.18,11.344-4.872,15.838-5.669C46.214-2.891,60.628,4.417,77.62,10.581a30.035,30.035,0,0,1-3.881,6.772c4.219,1.579,2.281,5.128-.992,6.927L70.8,23.331c3.037,10.894,10.027,37.986,7.011,46.685C75.405,83.59,64.85,95.191,50.825,95.093" transform="translate(9.767 12.584)" fill="#d08b5b"/>
    <path id="_Hair" data-name="ðŸ’ˆ Hair" d="M3.784,55.473c-3.751-9.68-6.1-32.028-.223-41.253,1.248-1.434,3.081-2.292,4.4-3.762a27.113,27.113,0,0,1,3.656-3.614c4.167-3.18,11.344-4.873,15.838-5.669C46.214-2.891,60.628,4.417,77.62,10.582a30.026,30.026,0,0,1-3.881,6.772c4.219,1.579,2.281,5.128-.992,6.927l-1.438-.7c-.379-2.034-1.391-6.013-3.531-6.227C64.9,17.066,58.52,22.47,55.743,22.47S38.859,16.426,31.11,16.426,16.764,22.843,14.142,27.493s3.9,10.426,3.9,10.426-3.9,5.013-3.9,7.205.912,9.062.912,9.062a28.822,28.822,0,0,0-6.6-1.382c-2.4,0-4.171,2.667-4.171,2.667Zm11.27-1.285Z" transform="translate(9.698 12.681)" fill="#ecdcbf"/>
    <path id="_Ink-2" data-name="ðŸ– Ink" d="M52.184,97.992a25.336,25.336,0,0,1-4.083-.326,21.488,21.488,0,0,1-3.973-1.036,17.014,17.014,0,0,1-3.61-1.83,13.9,13.9,0,0,1-2.993-2.709.772.772,0,0,1-.177-.478.781.781,0,0,1,.161-.489.716.716,0,0,1,.572-.285.751.751,0,0,1,.371.1l.372.208a38.281,38.281,0,0,0,4.249,2.063A22.594,22.594,0,0,0,47.6,94.546a24.778,24.778,0,0,0,4.337.386,24.171,24.171,0,0,0,5.376-.606A23.443,23.443,0,0,0,65.2,90.9a26.475,26.475,0,0,0,6.124-5.782,32.244,32.244,0,0,0,4.627-8.336,35.847,35.847,0,0,0,2.166-9.345,41.939,41.939,0,0,0,.128-5.754c-.078-1.81-.257-3.682-.548-5.722-.539-3.778-1.373-7.5-2.252-11.293-2.021-8.724-4.014-16.342-6.093-23.291a1.667,1.667,0,0,1-.068-.648,2.5,2.5,0,0,0-.917-.169,3.734,3.734,0,0,0-1.2.219,14.2,14.2,0,0,0-3.654,2.23l-.059.045c-.371.282-.755.573-1.093.8a8.871,8.871,0,0,1-4.486,1.7c-.148.009-.3.014-.451.014a8.9,8.9,0,0,1-2.311-.326,16.167,16.167,0,0,1-2.207-.785c-.8-.343-1.589-.7-2.352-1.046l-.028-.013a44.809,44.809,0,0,0-6.767-2.627,36.472,36.472,0,0,0-9.5-1.262l-.334,0a30.067,30.067,0,0,0-4.409.349,21.248,21.248,0,0,0-4.2,1.091,15.909,15.909,0,0,0-3.768,2.022,14.216,14.216,0,0,0-3.12,3.143,10.562,10.562,0,0,0-1.673,3.263,6.762,6.762,0,0,0-.268,1.772,6.2,6.2,0,0,0,.259,1.849,9.671,9.671,0,0,0,.845,1.958,17.1,17.1,0,0,0,1.168,1.789l.287.388a4.919,4.919,0,0,1,.979,1.913,2.462,2.462,0,0,1-.374,1.789,8.557,8.557,0,0,1-.886,1.133l-.01.012a9.711,9.711,0,0,0-.649.792A10.33,10.33,0,0,0,17.077,44.6a10.653,10.653,0,0,0-.823,3.94,27.214,27.214,0,0,0,.392,4.787l.006.039c.158,1.113.321,2.265.386,3.417a.669.669,0,0,1-.135.46.653.653,0,0,1-.432.244.732.732,0,0,1-.1.006l-.066,0c.027.109.051.221.072.333-.108-.139-.226-.278-.35-.412l-.023-.012a.725.725,0,0,1-.3-.314,6.717,6.717,0,0,0-.554-.463,6.369,6.369,0,0,0-1.622-.887,5.288,5.288,0,0,0-1.752-.332h-.06a4.517,4.517,0,0,0-3.1,1.2A6.763,6.763,0,0,0,6.82,59.652,12.69,12.69,0,0,0,6.33,63.2a11.529,11.529,0,0,0,.508,3.633A5.717,5.717,0,0,0,8.886,69.8a5,5,0,0,0,2.817.943h.035a6.954,6.954,0,0,0,2.31-.544l.069-.025c.237-.085.481-.173.723-.251a1.307,1.307,0,0,1,.405-.067,1.157,1.157,0,0,1,.333.049,1.2,1.2,0,0,1,.607.427,1.48,1.48,0,0,1,.287.717,1.434,1.434,0,0,1-.113.76c-.025.057-.053.115-.085.176l.448.738a46.64,46.64,0,0,0,5.744,8.005,33.791,33.791,0,0,0,4.229,3.85l.22.164c.137.1.294.23.434.344l.141.117a2.652,2.652,0,0,0,1.335.757h.057a2.361,2.361,0,0,0,.317-.027l.021,0a2.619,2.619,0,0,1,.343-.027,1.057,1.057,0,0,1,.413.075,1.308,1.308,0,0,1,.584.517,1.275,1.275,0,0,1,.205.708,1.378,1.378,0,0,1-.2.716,2.028,2.028,0,0,1-.913.828,1.919,1.919,0,0,1-.769.153,2.544,2.544,0,0,1-.465-.045A8.292,8.292,0,0,1,25.4,87.179l-.146-.112a32.1,32.1,0,0,1-4.66-4.285,26.549,26.549,0,0,1-5.61-9.359,4.549,4.549,0,0,1-1.279.571,6.27,6.27,0,0,1-1.448.218c-.094,0-.191.005-.287.005a9.334,9.334,0,0,1-3.842-.865,8.18,8.18,0,0,1-3.037-2.488A10.4,10.4,0,0,1,3.4,67.329a14.6,14.6,0,0,1-.458-4.691,14.973,14.973,0,0,1,.947-4.462c.033-.085.066-.167.094-.236a52.2,52.2,0,0,1-2.013-6.287A61.415,61.415,0,0,1,.7,45.145,77.75,77.75,0,0,1,.044,31.938,62.048,62.048,0,0,1,1.412,19.576a11.687,11.687,0,0,1,2.376-4.9,13.618,13.618,0,0,1,2.359-2.049l.033-.025a13.878,13.878,0,0,0,2.04-1.726l.291-.32.087-.1.1-.112a24.107,24.107,0,0,1,3.384-3.274,23.015,23.015,0,0,1,4.857-2.714,43.059,43.059,0,0,1,5.708-1.925c1.748-.467,3.619-.879,5.887-1.3A66.623,66.623,0,0,1,40.566,0a56.5,56.5,0,0,1,6.841.41A51.382,51.382,0,0,1,54.171,1.7C58.084,2.725,61.93,4.148,65.65,5.525l.246.091.007,0,.8.3c2.811,1.038,5.668,2.087,8.432,3.1l.392.144,4.1,1.507a1.492,1.492,0,0,1,.752.636,1.072,1.072,0,0,1,.079.948,29.739,29.739,0,0,1-3.186,6,3.873,3.873,0,0,1,1.117,1.187,4.143,4.143,0,0,1,.6,2.067,4.084,4.084,0,0,1-.36,1.749,5.722,5.722,0,0,1-.982,1.475,14.033,14.033,0,0,1-2.807,2.257,1.44,1.44,0,0,1-.523.215c1.519,5.823,3.472,13.508,5.111,21.318l.1.5A84.057,84.057,0,0,1,81.2,60.328a43.779,43.779,0,0,1-.587,11.39,38.159,38.159,0,0,1-3.135,9.474,33.169,33.169,0,0,1-5.618,8.224,27.286,27.286,0,0,1-7.735,5.756,26.959,26.959,0,0,1-9.253,2.682A26.338,26.338,0,0,1,52.184,97.992ZM40.693,2.49h0a60.773,60.773,0,0,0-6.884.4C31.591,3.148,29.3,3.527,27,4.02l-.491.107c-2.078.454-3.653.855-5.106,1.3a31.3,31.3,0,0,0-4.9,1.917,17.557,17.557,0,0,0-4.254,2.889c-.548.517-1.053,1.092-1.541,1.647L10.7,11.9A18.563,18.563,0,0,1,8.46,14.172l-.775.622A8.906,8.906,0,0,0,4.84,18.078a19.263,19.263,0,0,0-1.27,4.805c-.324,1.984-.564,4.064-.714,6.183-.141,2-.206,4.093-.193,6.222a85.7,85.7,0,0,0,.732,10.357c.386,3.037.927,6.289,1.7,10.233A6.564,6.564,0,0,1,9.6,52.9a6.1,6.1,0,0,1,5.265,1.9,19.143,19.143,0,0,1-.913-7.851,12.44,12.44,0,0,1,1.463-4.587,14.151,14.151,0,0,1,1.6-2.278l.207-.239.024-.028a.856.856,0,0,0,.217-.346.428.428,0,0,0-.05-.277,2.986,2.986,0,0,0-.459-.634l-.007-.008-.038-.044c-.111-.13-.237-.277-.339-.414a15.2,15.2,0,0,1-2.123-3.854,10,10,0,0,1-.512-2.118,8.426,8.426,0,0,1,.014-2.212,11.223,11.223,0,0,1,1.572-4.183,18.925,18.925,0,0,1,2.791-3.53,15.406,15.406,0,0,1,3.407-2.575,19.414,19.414,0,0,1,3.938-1.647,29.859,29.859,0,0,1,8.529-1.131c.545,0,1.1.012,1.662.034a39.134,39.134,0,0,1,10.466,1.867A40.328,40.328,0,0,1,51.189,20.7l.35.169.567.278.041.02A19.033,19.033,0,0,0,55.929,22.7a5.514,5.514,0,0,0,1.315.165,4.993,4.993,0,0,0,1.343-.184,6.36,6.36,0,0,0,1.224-.487,17.228,17.228,0,0,0,2.274-1.5l.116-.085c.631-.463,1.284-.942,1.983-1.365l.142-.084a8.332,8.332,0,0,1,4.08-1.192H68.5a5.316,5.316,0,0,1,1.812.334,4.744,4.744,0,0,1,1.612,1.026,1.3,1.3,0,0,1,.371.615,1.685,1.685,0,0,1,.253.548c.34,1.28.692,2.611,1.047,3.956l.284-.184a5.436,5.436,0,0,0,2.171-2.092,1.839,1.839,0,0,0-.064-1.374.846.846,0,0,0-.291-.369.509.509,0,0,0-.283-.081l-.053,0a1.786,1.786,0,0,1-.227.015,1.6,1.6,0,0,1-.629-.125,1.414,1.414,0,0,1-.66-.559,1.275,1.275,0,0,1-.183-.832,1.45,1.45,0,0,1,.36-.777A23.419,23.419,0,0,0,77.585,12.6L71.5,10.34C69.721,9.679,67.37,8.808,65,7.933L63.809,7.5a98.117,98.117,0,0,0-12.017-3.8,47.642,47.642,0,0,0-5.521-.913,53.04,53.04,0,0,0-5.578-.29ZM16.743,65.054H16.7a2.921,2.921,0,0,1-1.848-.8c-.071-.055-.141-.109-.214-.164a7.6,7.6,0,0,0-1.8-1.016,8.325,8.325,0,0,0-3.022-.583,7.864,7.864,0,0,0-1.357.119.63.63,0,0,1-.43-.078.684.684,0,0,1-.281-.32.606.606,0,0,1-.011-.454.591.591,0,0,1,.308-.326,9.869,9.869,0,0,1,1.975-.7,8.985,8.985,0,0,1,2.071-.246,8.5,8.5,0,0,1,1.142.077l.176.025a9.284,9.284,0,0,1,3.15.981,3.483,3.483,0,0,1,.953.788,2.267,2.267,0,0,1,.49,1.053,1.514,1.514,0,0,1-.268,1.157A1.222,1.222,0,0,1,16.743,65.054Z" transform="translate(8.433 10.99)"/>
  </g>
  <g id="FACE" transform="translate(112.183 77.354)">
    <path id="teeth" d="M2.232,8.525h0L0,0,.36.056A28.365,28.365,0,0,1,4.344.9c.881.284,1.328.577,1.328.869l0,.04c-.047.657-1.2,2.916-3.438,6.714Zm19.759-.587h0L17.873,3.423l4.908-1.58-.791,6.1Z" transform="translate(21.294 44.824)" fill="#fff"/>
    <ellipse id="eye" cx="8.345" cy="7.609" rx="8.345" ry="7.609" transform="translate(12.465 16.274)" fill="#fff"/>
    <ellipse id="eye-2" data-name="eye" cx="7.606" cy="7.503" rx="7.606" ry="7.503" transform="translate(25.563 8.665)" fill="#fff"/>
    <path id="eye-3" data-name="eye" d="M6.127,12.992c3.384,0,6.127-3.028,6.127-6.763A6,6,0,0,0,6.127,0,6,6,0,0,0,0,6.229C0,9.964,2.743,12.992,6.127,12.992Z" transform="translate(37.394 17.02)" fill="#fff"/>
    <path id="_Ink-3" data-name="ðŸ– Ink" d="M14.193,46.515a1.831,1.831,0,0,1-.948-.284,2.46,2.46,0,0,1-1.052-1.456,9.124,9.124,0,0,1-.306-1.847v0c-.011-.112-.021-.218-.032-.323-.1-.954-.158-1.746-.187-2.492l-.012-.356c0-.155-.012-.311-.021-.476a4.737,4.737,0,0,1,.178-2.019A.217.217,0,0,1,12,37.125a.142.142,0,0,1,.111.055,6.123,6.123,0,0,1,.954,2.34c.057.222.111.432.17.634.089.307.187.615.291.941a15.663,15.663,0,0,1,.634,2.424l.045-.079c.171-.325.341-.64.485-.905l.49-.9c.4-.738.824-1.511,1.339-2.433-.548-.206-1.084-.426-1.536-.614L13.826,38.1A5.529,5.529,0,0,1,12,37a.192.192,0,0,1-.041-.188.154.154,0,0,1,.119-.11,4.551,4.551,0,0,1,.858-.076,13.63,13.63,0,0,1,2.935.455c.412.094.8.183,1.174.252l.114.021c.464.081.935.168,1.391.252,1.367.251,2.78.511,4.185.655a28.178,28.178,0,0,0,2.85.151,22.473,22.473,0,0,0,2.554-.141,17.411,17.411,0,0,0,2.545-.493c.362-.1.719-.207,1.061-.324l.04-.015c.058-.024.136-.062.226-.105a2.219,2.219,0,0,1,.639-.244.087.087,0,0,1,.064.02.061.061,0,0,1,.015.046,1.524,1.524,0,0,1,.76-.463,1.361,1.361,0,0,1,.345-.043,1.518,1.518,0,0,1,.956.331.8.8,0,0,1,.5-.17,1.2,1.2,0,0,1,.937.5,2.023,2.023,0,0,1,.354,1.025,6.272,6.272,0,0,1-.039,1.1c-.01.11-.021.223-.03.335l-.006.076c-.054.761-.137,1.549-.253,2.412l-.048.344c-.02.142-.038.294-.058.455a7.89,7.89,0,0,1-.376,1.851,1.812,1.812,0,0,1-1.218,1.225,1.438,1.438,0,0,1-.376.05c-.952,0-1.814-.93-2.532-1.84l-.4-.514a11.4,11.4,0,0,1-1.253-1.908c-.187-.368-.328-.672-.444-.955-.015-.036-.026-.068-.037-.1l0-.014a22.358,22.358,0,0,1-2.971.194,26.158,26.158,0,0,1-3.4-.229,31.926,31.926,0,0,1-3.952-.774L18.594,41.1c-.613,1.1-1.343,2.4-2.11,3.672l-.057.092A4.655,4.655,0,0,1,15.467,46,2.012,2.012,0,0,1,14.193,46.515Zm19.8-6.832h0A18.055,18.055,0,0,1,30.475,40.7l.011.011c.068.07.146.15.215.231.267.309.545.6.882.95l.181.186c.072.074.15.156.232.242a9.835,9.835,0,0,0,1.628,1.463l.038-.2c.007-.041.011-.068.014-.09l.075-.672c.011-.106.024-.22.035-.336.051-.507.094-1.023.135-1.522l.025-.3c.023-.281.031-.574.039-.857l0-.12ZM25.54,34.709h0a4.93,4.93,0,0,1-3.733-1.746,8.832,8.832,0,0,1-1.544-2.51,7.057,7.057,0,0,1-.566-2.884,2.69,2.69,0,0,1,.432-1.387,1.44,1.44,0,0,1,1.218-.67l.1,0a1.2,1.2,0,0,1,.938.479,1.288,1.288,0,0,1,.148,1.108l-.014.046a4.134,4.134,0,0,0,.139,2.541,5.125,5.125,0,0,0,1.4,2.181,2.721,2.721,0,0,0,1.817.691,3.643,3.643,0,0,0,2.039-.688,4.828,4.828,0,0,0,1.5-1.651,7.13,7.13,0,0,0,.647-1.717,10.072,10.072,0,0,0,.257-1.849,17.89,17.89,0,0,0-.252-3.708,21.111,21.111,0,0,0-.838-3.339C28.846,18.487,28.4,17.364,28,16.4c-.1.019-.2.034-.281.045a16.976,16.976,0,0,1-2.227.141,14.12,14.12,0,0,1-2.619-.224,6.384,6.384,0,0,1-2.3-.846,8.38,8.38,0,0,1-1.294,5.554,6.743,6.743,0,0,1-2.258,2.114,8.111,8.111,0,0,1-2.948.968,22.68,22.68,0,0,1-3.089.22A14.927,14.927,0,0,1,7.528,24a5.873,5.873,0,0,1-2.359-1.165,6.7,6.7,0,0,1-1.624-1.977,8.9,8.9,0,0,1-1.037-3.552,9.163,9.163,0,0,1,.427-3.659,7.121,7.121,0,0,1,.832-1.666,8.133,8.133,0,0,1,1.249-1.456A7.846,7.846,0,0,1,6.571,9.406a6.585,6.585,0,0,1,1.757-.663,6.821,6.821,0,0,1,3.708-.98c.222,0,.446.009.666.026a9.14,9.14,0,0,1,3.128.818,7.874,7.874,0,0,1,2.594,1.919,8.6,8.6,0,0,1,1.355,2.09,1.042,1.042,0,0,1,.409-.2,1.5,1.5,0,0,1,.345-.046,1.017,1.017,0,0,1,.344.059,1.5,1.5,0,0,1,.389.284l.233.274a2.593,2.593,0,0,0,1.066.82,10.44,10.44,0,0,0,3.8.625c.357,0,.711-.014,1.053-.04A2.946,2.946,0,0,0,29.8,13.049a5.714,5.714,0,0,0,.692-3.3,11.734,11.734,0,0,0-.659-3.364A6.88,6.88,0,0,0,28.8,4.507a6.995,6.995,0,0,0-3.378-2.372,6.632,6.632,0,0,0-5.229.469,7.921,7.921,0,0,0-1.746,1.259,9.608,9.608,0,0,0-1.973,3.057c-.114.24-.232.488-.356.735a.1.1,0,0,1-.092.052.1.1,0,0,1-.107-.079,4.551,4.551,0,0,1,.131-2.177,6.745,6.745,0,0,1,1.027-2.027,8.983,8.983,0,0,1,1.6-1.68A7.973,7.973,0,0,1,20.52.611,7.709,7.709,0,0,1,23.568,0,8.6,8.6,0,0,1,26.31.454a8.773,8.773,0,0,1,2.473,1.3,8.344,8.344,0,0,1,2.63,3.385,10.921,10.921,0,0,1,.661,2.059,13.1,13.1,0,0,1,.28,2.162,3.152,3.152,0,0,1,2.1-.763,5.129,5.129,0,0,1,2.207.564,7.663,7.663,0,0,1,1.89,1.319,7.912,7.912,0,0,1,2.018,3.156,7.568,7.568,0,0,1,.319,3.722,7,7,0,0,1-.566,1.8,7.123,7.123,0,0,1-1.013,1.576,6.561,6.561,0,0,1-3.087,2.058,6.437,6.437,0,0,1-1.872.273,6.533,6.533,0,0,1-1.767-.24,6.805,6.805,0,0,1-1.338-.528l.02.079c.019.076.038.155.057.231a19.916,19.916,0,0,1,.568,3.869,12.037,12.037,0,0,1-.083,1.957,9.058,9.058,0,0,1-.447,1.891,6.784,6.784,0,0,1-.952,1.768,6.908,6.908,0,0,1-1.383,1.39,6.354,6.354,0,0,1-1.671.909A5.377,5.377,0,0,1,25.54,34.709ZM7.433,10.75A6.593,6.593,0,0,0,5.4,12.862a6.665,6.665,0,0,0-.909,2.994,7.755,7.755,0,0,0,.216,2.4,6.384,6.384,0,0,0,1,2.188,3.787,3.787,0,0,0,2,1.408,8.989,8.989,0,0,0,2.469.336l.172,0c.294.006.553.009.792.009a11.567,11.567,0,0,0,4.247-.624,4.829,4.829,0,0,0,1.681-1.121A5,5,0,0,0,18.2,18.492a6.923,6.923,0,0,0-.006-4.116,6.57,6.57,0,0,0-.914-1.863,5.8,5.8,0,0,0-1.484-1.458,6.858,6.858,0,0,0-3.86-1.122H11.8a10.9,10.9,0,0,0-2.711.5c-.434.12-.883.244-1.333.338a.568.568,0,0,1-.118.012A.606.606,0,0,1,7.433,10.75Zm23.672,8.591a2.193,2.193,0,0,1,1.309.6,3.751,3.751,0,0,0,.824.515,4.287,4.287,0,0,0,1.592.306,4.218,4.218,0,0,0,.817-.079,4.049,4.049,0,0,0,2.192-1.263,5.32,5.32,0,0,0,1.366-3.681,5.752,5.752,0,0,0-.211-1.4,6.725,6.725,0,0,0-1.338-2.507l-.094-.109a7.709,7.709,0,0,0-1.817-1.548,4.36,4.36,0,0,0-2.231-.681,3.3,3.3,0,0,0-1.149.206l.006.242c0,.043,0,.083,0,.121a8.051,8.051,0,0,1-.873,3.827,5.04,5.04,0,0,1-1.155,1.436,4.778,4.778,0,0,1-1.7.919,15.781,15.781,0,0,1,1.735,3.3,1.293,1.293,0,0,1,.584-.2A1.379,1.379,0,0,1,31.105,19.341Zm-25.031,7.4a9.36,9.36,0,0,1-2.056-.261,7.4,7.4,0,0,1-3.977-2.37.182.182,0,0,1-.023-.2.157.157,0,0,1,.138-.1.156.156,0,0,1,.088.03,9.009,9.009,0,0,0,4.07,1.6,9.146,9.146,0,0,0,.989.056,7.272,7.272,0,0,0,1.1-.081c.13-.02.258-.045.383-.069a4.375,4.375,0,0,1,.827-.106,1.86,1.86,0,0,1,.5.066.377.377,0,0,1,.271.256.456.456,0,0,1-.092.423A2.788,2.788,0,0,1,6.074,26.736Zm32.639-2.143a6.865,6.865,0,0,1-1.565-.173.1.1,0,0,1-.077-.116.1.1,0,0,1,.1-.1h0l.148,0a4.69,4.69,0,0,0,1.187-.142,4.07,4.07,0,0,0,1.107-.468,4.537,4.537,0,0,0,.855-.73,4.541,4.541,0,0,1,.811-.7.644.644,0,0,1,.343-.1.735.735,0,0,1,.62.381.662.662,0,0,1,0,.682,2.764,2.764,0,0,1-1.493,1.137A6.04,6.04,0,0,1,38.713,24.594ZM11.5,18.449a2.456,2.456,0,0,1-1.086-.242,2.211,2.211,0,0,1-.868-.754,1.923,1.923,0,0,1-.312-.823,1.653,1.653,0,0,1,.033-.593l-.011.046c.037-.167.059-.265.066-.292a2.491,2.491,0,0,1,.627-1.121,1.8,1.8,0,0,1,1.145-.5,1.39,1.39,0,0,1,1.23-.682,1.642,1.642,0,0,1,1.362.708l.028.043.006-.008a2.561,2.561,0,0,1,.435,2.146,2.766,2.766,0,0,1-.467,1.024,2.422,2.422,0,0,1-.865.734A2.972,2.972,0,0,1,11.5,18.449Zm23.467-.593a1.686,1.686,0,0,1-.373-.042,1.591,1.591,0,0,1-.928-.714,1.391,1.391,0,0,1-.136-.318l-.153-.363c-.019-.057-.033-.118-.047-.177-.007-.031-.015-.062-.022-.092-.052-.2-.1-.4-.136-.6a2.467,2.467,0,0,1,.006-.99,1.774,1.774,0,0,1,.483-.86,1.9,1.9,0,0,1,2.689,0,1.611,1.611,0,0,1,.486.859,2.586,2.586,0,0,1,0,.992c-.035.2-.083.4-.134.6l-.044.181c-.008.032-.016.062-.025.089a1.467,1.467,0,0,1-.142.346,1.406,1.406,0,0,1-.579.8A1.7,1.7,0,0,1,34.971,17.856ZM23.99,10.55A2.3,2.3,0,0,1,22.4,9.918l-.05-.047A2.093,2.093,0,0,1,21.737,8.7a2.365,2.365,0,0,1,.143-1.314,2.228,2.228,0,0,1,1.777-1.359A2.3,2.3,0,0,1,23.963,6a2.274,2.274,0,0,1,1.962,1.107,2.345,2.345,0,0,1,0,2.3l-.034.058A2.175,2.175,0,0,1,23.99,10.55Z" transform="translate(9.296 7.82)"/>
  </g>
  <g id="ACCESORIES" transform="translate(88.521 88.978)">
    <path id="_Ink-4" data-name="ðŸ– Ink" d="M39.146,24.884h0A13.261,13.261,0,0,1,32.083,22.8a9.353,9.353,0,0,1-2.925-3,8.643,8.643,0,0,1-1.165-3.494,11.388,11.388,0,0,1,.383-4.253,3.852,3.852,0,0,1-1.125.148,5.49,5.49,0,0,1-1.64-.248,2.351,2.351,0,0,1-1.183-.732c-2.291-.2-4.606-.48-6.844-.754A102.858,102.858,0,0,0,5.125,9.452c-1,0-1.977.029-2.914.088a.655.655,0,0,0-.593.4,1.719,1.719,0,0,0-.034.7,1.725,1.725,0,0,1-.033.693.649.649,0,0,1-.586.4,1.011,1.011,0,0,1-.948-.964,2.57,2.57,0,0,1,.244-1.39,1.783,1.783,0,0,1,.879-.945c.419-.3,1.7-.459,3.69-.459a83.676,83.676,0,0,1,9.582.7A81.5,81.5,0,0,1,24.53,10.493a3.572,3.572,0,0,1,2-.479,14.514,14.514,0,0,1,1.889.166c.2.027.394.052.573.073a12.677,12.677,0,0,1,1.591-2.785,15.625,15.625,0,0,1,2.441-2.6,12.519,12.519,0,0,1,3.037-1.922,8.442,8.442,0,0,1,3.378-.75,7.04,7.04,0,0,1,1.135.092,15.639,15.639,0,0,1,3.286.52,10.275,10.275,0,0,1,2.865,1.272,8.728,8.728,0,0,1,2.3,2.194A11.025,11.025,0,0,1,50.6,9.561a8.115,8.115,0,0,1,2.7-1.578,9.576,9.576,0,0,1,3.2-.561,7.057,7.057,0,0,1,3.61.906,13.526,13.526,0,0,1,3.144-4.46,12.513,12.513,0,0,1,4.721-2.751A5.715,5.715,0,0,1,71.322,0a6.2,6.2,0,0,1,2.6.6,8.835,8.835,0,0,1,2.33,1.6,11.3,11.3,0,0,1,1.866,2.3,11.131,11.131,0,0,1,1.212,2.683A2.557,2.557,0,0,1,80.441,6.7a5.865,5.865,0,0,1,1.2-.12,1.123,1.123,0,0,1,.66.354.756.756,0,0,1,.184.563c-.038.4-.426.812-1.207.812a4.063,4.063,0,0,1-1.757-.5,15.085,15.085,0,0,1,.28,6.261,10.375,10.375,0,0,1-2.044,4.583,10.251,10.251,0,0,1-1.847,1.81,11.08,11.08,0,0,1-2.194,1.294A12.174,12.174,0,0,1,68.8,22.8h0a11.736,11.736,0,0,1-2.292-.224,10.594,10.594,0,0,1-2.158-.672,9.3,9.3,0,0,1-1.92-1.122,8.381,8.381,0,0,1-1.579-1.573,8.673,8.673,0,0,1-1.668-4.051,13.681,13.681,0,0,1,.451-5.572,16.889,16.889,0,0,0-3.929-.5,10.936,10.936,0,0,0-4.917,1.083,11.3,11.3,0,0,1,.418,2.69,11.02,11.02,0,0,1-.225,2.594,11.306,11.306,0,0,1-.8,2.424,11.79,11.79,0,0,1-1.309,2.18,12.182,12.182,0,0,1-9.718,4.827ZM40.5,3.818h0a15.239,15.239,0,0,0-5.324,1.063,13.487,13.487,0,0,0-4.32,4.911,12.475,12.475,0,0,0-1.127,3.052,9.55,9.55,0,0,0-.2,3.1,7.221,7.221,0,0,0,1.475,3.715,8.845,8.845,0,0,0,3.832,2.726,10.98,10.98,0,0,0,2.059.608,11.294,11.294,0,0,0,2.122.2,11.122,11.122,0,0,0,4.668-1.02,10.19,10.19,0,0,0,2.043-1.261,9.7,9.7,0,0,0,1.7-1.748A10.3,10.3,0,0,0,49.5,13.885a10.152,10.152,0,0,0-.109-2.735A9.5,9.5,0,0,0,48.562,8.6a8.7,8.7,0,0,0-1.28-1.911A8.246,8.246,0,0,0,45.5,5.174a8.573,8.573,0,0,0-2.266-1A10.17,10.17,0,0,0,40.5,3.818Zm30.275-2.33a.118.118,0,0,0-.052.01,10.3,10.3,0,0,0-2.009.519c-.356.118-.691.229-.991.3A12.5,12.5,0,0,0,62.56,6.956,12.011,12.011,0,0,0,60.514,13.5a8.049,8.049,0,0,0,.3,2.1,6.98,6.98,0,0,0,.881,1.923,8.078,8.078,0,0,0,3.744,2.951,9.093,9.093,0,0,0,1.766.53,9.7,9.7,0,0,0,1.839.175,9.887,9.887,0,0,0,3.613-.685,9.06,9.06,0,0,0,1.628-.844A8.329,8.329,0,0,0,75.7,18.484a7.95,7.95,0,0,0,1.621-2.335,10.771,10.771,0,0,0,.858-2.871,12.957,12.957,0,0,0-.526-6.139,10.548,10.548,0,0,0-.973-2.081,8.451,8.451,0,0,0-1.392-1.73,7.047,7.047,0,0,0-1.806-1.244,6.935,6.935,0,0,0-2.215-.625.5.5,0,0,1-.234.055.9.9,0,0,1-.142-.013l-.016,0A.646.646,0,0,0,70.777,1.487ZM28.835,10.635h0l-.106.047h0L28.7,10.7l.012,0,.012,0a.27.27,0,0,1,.047.03l.021.015c.008-.022.017-.044.025-.065v0l.019-.047Z" transform="translate(2.957 1.691)"/>
  </g>
</svg>
