<svg id="peep-42" xmlns="http://www.w3.org/2000/svg" width="240" height="324" viewBox="0 0 240 324">
  <g id="BODY" transform="translate(31.056 135.053)">
    <path id="_Skin" data-name="âœ‹ Skin" d="M24.836,160.808c-2.92,0-5.548-.113-8.034-.346a59.074,59.074,0,0,1-7.971-1.27,2.544,2.544,0,0,1-.928.785,2.664,2.664,0,0,1-1.185.282,2.486,2.486,0,0,1-1.157-.284,2.646,2.646,0,0,1-.975-.9,3.745,3.745,0,0,1-.489-.812c-.254-.516-.494-1-1.044-1.157-.062-.049-.087-.1-.072-.142.025-.071.139-.11.235-.11a.275.275,0,0,1,.126.027,53.6,53.6,0,0,1-2.2-9A90.138,90.138,0,0,1,.121,137.543a162.187,162.187,0,0,1,.8-22.919C1.648,107.275,2.785,99.53,4.3,91.6c1.31-6.849,2.872-13.638,4.518-19.634a110.877,110.877,0,0,1,4.365-13.41c1.241-3.326,2.524-6.765,3.521-10.2.537-1.851.95-3.554,1.264-5.207a40.6,40.6,0,0,0,.669-5.336,27.067,27.067,0,0,0-.716-5.432,24.338,24.338,0,0,1-.7-6.136,8.045,8.045,0,0,1,.671-2.831,7.087,7.087,0,0,1,.771-1.31,8.047,8.047,0,0,1,1.13-1.221,5.642,5.642,0,0,1,.113-2.543,6.371,6.371,0,0,1,1.127-2.2,8.348,8.348,0,0,1,5.856-3.1,13.764,13.764,0,0,1,1.36-3.325A8.07,8.07,0,0,1,30.1,7.517a6.825,6.825,0,0,1,2.279-1.209,8.929,8.929,0,0,1,2.638-.37,15.571,15.571,0,0,1,3.546.455,31.448,31.448,0,0,1,3.852,1.2c2.644.989,5.448,2.318,8.16,3.6,2.549,1.208,5.184,2.458,7.609,3.381a30.192,30.192,0,0,0,3.5,1.124,14.329,14.329,0,0,0,3.174.458A51.826,51.826,0,0,0,67.136,11.2h0c.816-1.916,1.741-4.088,2.625-5.867a10.861,10.861,0,0,1,2.456-3.7A9.056,9.056,0,0,1,75.813.359,30.33,30.33,0,0,1,80.85,0,121.579,121.579,0,0,1,96.118,1.368h0c.713.1,1.386.187,1.969.262,1.551.2,2.868,1.273,4.025,3.284a33.042,33.042,0,0,1,2.865,7.79c2.815-.69,5.137-1.176,7.305-1.527a48.546,48.546,0,0,1,7.789-.686,33.13,33.13,0,0,1,3.7.2,26.219,26.219,0,0,1,3.6.657,21.663,21.663,0,0,1,3.443,1.2,19.317,19.317,0,0,1,3.215,1.828,6.519,6.519,0,0,1,1.637,2.162,5.352,5.352,0,0,1,.506,2.474,4.514,4.514,0,0,1-.546,1.966,5.03,5.03,0,0,1-1.51,1.673,11.143,11.143,0,0,1-1.489.769,4.2,4.2,0,0,0-1.668,1.021,43.44,43.44,0,0,0-1.7,5.123,17.311,17.311,0,0,0-.636,5.27c.583,5.215,1.265,10.541,2.085,16.282.73,5.113,1.554,10.441,2.517,16.286,1.79,10.858,3.8,21.884,5.75,32.547v.005c2.253,12.34,4.582,25.1,6.565,37.6l.143,1.289a45.725,45.725,0,0,1,.319,9.066,14.22,14.22,0,0,1-3.108,8.18,7.044,7.044,0,0,1-1.539.989,9.535,9.535,0,0,1-1.7.611,25.945,25.945,0,0,1-3.65.591c-.917.1-1.864.212-2.753.39-5.291.709-10.766,1.206-16.738,1.519-5.125.269-10.614.4-16.78.4-7.429,0-14.99-.191-22.3-.375h-.009c-7.312-.184-14.872-.375-22.309-.375-4.985,0-9.476.084-13.731.257-1.04.059-2.092.121-3.109.182-4.124.246-8.388.5-12.578.531l0-.048,0,.048C25.4,160.807,25.11,160.808,24.836,160.808ZM18.973,96.073h0a.842.842,0,0,0-.764.638.875.875,0,0,0,0,.515.839.839,0,0,0,.35.448c.42.276.854.544,1.273.8a19.686,19.686,0,0,1,3.424,2.474.909.909,0,0,0,.175.131c.023,12.454.659,25.108,1.275,37.345v.009c.23,4.577.468,9.31.671,13.963.112,2.581.213,5.135.3,7.591l.025.755c.549,0,1.119-.012,1.692-.024-.25-7.36-.62-14.838-.979-22.069v0c-.471-9.5-.958-19.328-1.177-29-.133-5.859-.149-11.129-.051-16.113a.775.775,0,0,0-.211-.573.864.864,0,0,0-.618-.243.9.9,0,0,0-.585.2.8.8,0,0,0-.276.612c-.031,1.572-.05,3.27-.058,5.346a31.208,31.208,0,0,0-2.746-1.855l-.005,0c-.419-.262-.852-.533-1.273-.808a.793.793,0,0,0-.437-.141ZM136.778,115.6h0a.887.887,0,0,0-.58.2.779.779,0,0,0-.263.613c.005,5.534.242,11.926.685,18.485.422,6.249,1.027,12.616,1.748,18.413a.876.876,0,0,0,.341.6,1.008,1.008,0,0,0,.609.2.781.781,0,0,0,.591-.239.7.7,0,0,0,.15-.565c-.722-5.8-1.326-12.164-1.748-18.413-.443-6.558-.68-12.951-.685-18.485a.779.779,0,0,0-.265-.612.89.89,0,0,0-.581-.2ZM57.906,129.7h0a.86.86,0,0,0-.408.108c-3.385,1.814-6.737,3.83-10.246,6.165-3.127,2.08-6.3,4.364-9.711,6.983a.909.909,0,0,0-.3,1.039.8.8,0,0,0,.705.589.731.731,0,0,0,.447-.168c3.408-2.618,6.584-4.9,9.711-6.983,3.509-2.335,6.86-4.351,10.246-6.165a.738.738,0,0,0,.395-.868.972.972,0,0,0-.3-.49.813.813,0,0,0-.539-.211Zm60.88-.915h0a.96.96,0,0,0-.85.486.662.662,0,0,0,.1.72,16.72,16.72,0,0,0,5.658,4.686.871.871,0,0,0,.4.1.831.831,0,0,0,.546-.21.975.975,0,0,0,.307-.487.718.718,0,0,0-.365-.845l-.034-.018a14.9,14.9,0,0,1-4.947-3.946l-.128-.163a.884.884,0,0,0-.69-.324ZM34,78.582a.725.725,0,0,0-.739.606,11.383,11.383,0,0,0-.19,3.421,23.032,23.032,0,0,0,.571,3.405l.035.147.071.293a.862.862,0,0,0,.815.621c.575.043,1.17.064,1.768.064,4.608,0,9.2-1.264,13.641-2.487.959-.264,1.95-.537,2.918-.79l.441-.115.44-.112a.775.775,0,0,0,.49-.343.833.833,0,0,0,.1-.533.85.85,0,0,0-.816-.783.934.934,0,0,0-.227.029l-.471.12c-1.092.282-2.212.591-3.3.89h-.005c-4.32,1.194-8.788,2.428-13.272,2.428-.349,0-.7-.008-1.039-.022l-.063-.275a19.478,19.478,0,0,1-.438-2.687,9.516,9.516,0,0,1,.122-2.686l.029-.138a.817.817,0,0,0-.153-.708A.964.964,0,0,0,34,78.582Zm86.632,1.411a.622.622,0,0,0-.45.191.892.892,0,0,0-.229.453.915.915,0,0,0,.542,1.052l.249.1a18.16,18.16,0,0,0,2.156.73,8.99,8.99,0,0,0,2.285.328,5.591,5.591,0,0,0,1.344-.156,4.472,4.472,0,0,0,1.258-.522,4.292,4.292,0,0,0,1.264-1.191,5.825,5.825,0,0,0,.76-1.551,12.175,12.175,0,0,0,.508-3.486l0-.173,0-.25a.785.785,0,0,0-.218-.574.875.875,0,0,0-.621-.243.8.8,0,0,0-.851.817l0,.213a11.9,11.9,0,0,1-.3,2.833,4.454,4.454,0,0,1-.55,1.3,2.745,2.745,0,0,1-.994.933,3.5,3.5,0,0,1-1.683.389,9.815,9.815,0,0,1-3.38-.806l-.322-.128-.464-.189a.823.823,0,0,0-.311-.066Z" transform="translate(13.521 -8.665)" fill="#d08b5b"/>
    <path id="_Jacket" data-name="ðŸ§¥ Jacket" d="M87.649,146.689l-1.543-4.342c-.107-.3-.213-.613-.334-.984l-.15-.465-.072-.233c-.063-.209-.125-.426-.2-.724l-.273-1.033L85,138.659c-.069-.251-.129-.449-.2-.663l-.082-.245-.06-.171c-.1-.287-.227-.6-.443-1.129l-.314-.762-.063-.155v-.124l.01-.41c.021-.948.017-1.983-.012-3.163l-.026-.905-.028-.776q0-.12-.01-.247l-.145-3.49-.28-7.751-.044-1.309c-.032-.98-.057-1.868-.079-2.714l-.019-.785-.006-.267c-.084-3.806-.112-7.747-.082-11.713.03-3.922.117-8,.259-12.117l.028-.8.029-.785c.242-6.48.573-12.433,1.073-19.3.475-6.515,1.127-14.224,2.182-25.779l.325-3.544.487-5.245.112-1.231c.235-2.6.392-4.508.526-6.376l.06-.853c.225-3.313.368-6.832.437-10.756l.011-.694-.3,1.06-.264-3.525a21.626,21.626,0,0,0-.413-2.973l-.044-.2-.086-.375-.067-.248a9.164,9.164,0,0,1,.6-2.351l.4-.1.487-.115a60.584,60.584,0,0,1,13.716-1.888,31.479,31.479,0,0,1,5.626.481l.173.032,4.782.89-4.851.366c-.226.017-.453.038-.676.063-.464.051-.926.116-1.373.193l-.291.052.125-.006c.321-.015.646-.022.967-.022a21.086,21.086,0,0,1,4.327.452,19.572,19.572,0,0,1,4.623,1.524l.164.081.211.108.1.049.081.037a1.468,1.468,0,0,1,.686.477.814.814,0,0,1,.157.659,1.162,1.162,0,0,1-.382.614,2.208,2.208,0,0,1-1.21.488c-.075.011-.152.021-.238.031l-.455.045a1.9,1.9,0,0,0-1.032.4,1.305,1.305,0,0,0-.46.864,1.474,1.474,0,0,0,.912,1.58l.043.012.055.013a1.691,1.691,0,0,1,.208.059l.048.019.106.043h0l0,0,.1.041.026.051.016.012a.423.423,0,0,1,.124.158l.034.067.028.1.008.031,0,.026v.008l.028.177.008.06,0,.039v2.711l-.695-1.391-.024.02a5.015,5.015,0,0,1-1.318.71l-.111.043-.29.107-.572.2-.132.049-.117.045c-.094.037-.173.071-.244.1a1.584,1.584,0,0,0-.289.17l-.049.038-.275.228-.678-.236-.221-.079-.658-.245-.563-.207c-.742-.271-1.4-.505-2.027-.715l-.776-.259-.566-.184-.633-.2-3.2-1.011-.616-.2c-.334-.108-.645-.21-.978-.321l-.6-.2-.579-.2c-1.792-.623-3.467-1.267-6.893-2.652l.7.4.517.292c.588.331,1.261.706,2.057,1.147l3.452,1.908.691.387,1.547.87.817.456c1.508.838,2.52,1.371,3.608,1.9.853.417,1.72.813,2.651,1.21l.345.146.529.22.417.181.283.124.186.08a4.308,4.308,0,0,0,1.654.434,2.273,2.273,0,0,0,.581-.077l.046-.013.044-.016,1.268-.486-.441,1.284c-.055.16-.1.3-.149.444l-.089.272-.072.143c-.421.836-.835,1.7-1.266,2.626l-.226.492-.131.1a.452.452,0,0,0-.128.158c-.169.33-.333.66-.488.982l-.165.347-.171.368c-.719,1.548-1.386,3.158-2.3,5.558L107,35.387l-.173.458c-1.418,3.741-2.769,7.535-4.018,11.279-2.473,7.4-4.69,15-6.588,22.609-1.9,7.633-3.512,15.423-4.778,23.153s-2.226,15.611-2.848,23.4c-.235,2.942-.407,5.909-.51,8.818l-.025.76-.081.672c-.066.553-.124,1.06-.178,1.549l-.033.3a80.914,80.914,0,0,0-.581,9.471c.01,1.42.054,2.709.132,3.943l.019.288.314,4.6ZM52.414,81.13H51.151c-.165-1.865-.368-3.78-.621-5.854a166.072,166.072,0,0,0-3.372-18.647l-.139-.569-.06-.245.125-.219a.641.641,0,0,0,.084-.41,13.784,13.784,0,0,0-.973-3.151l-.548-1.325-.123-.3-.009-.032c-.579-2.032-1.2-4.067-1.858-6.047l-.221-.663-.01-.031a75.651,75.651,0,0,0-3-8.875A61.944,61.944,0,0,0,37.493,28.7l-.207-.37-.019-.036a91.67,91.67,0,0,0-4.425-8.159l-.251-.407-.023-.066a1.156,1.156,0,0,0-.241-.408l-.041-.043-.052-.052-.115-.18-.916-.229a18.563,18.563,0,0,0-4.563-.545,24.834,24.834,0,0,0-3.693.29l-.2.03-.2.032a53.547,53.547,0,0,0-7.52,1.888L11.65,21.476l-.48.143-.454.134c-1.7.5-3.126.849-4.486,1.113L6.04,22.9l-.518.1-.256.047a13.857,13.857,0,0,1-2.428.264,6.389,6.389,0,0,1-1.214-.11l-.093-.018-.114-.025-.1-.025a1.731,1.731,0,0,1-1.193-.858,1.382,1.382,0,0,1-.12-.69,2.432,2.432,0,0,1,.23-.837,3.487,3.487,0,0,1,1.07-1.3,8.107,8.107,0,0,1,1.814-1.019l.21-.088.052-.021.055-.012a3.192,3.192,0,0,0,.988-.4,1.514,1.514,0,0,0,.65-.815,1.42,1.42,0,0,0-.039-1.019,1.593,1.593,0,0,0-1.344-.947.863.863,0,0,0-.324.06l-.425.169-.465.183-.287-.41c-.017-.025-.032-.048-.046-.072l-.022-.041-.014-.029-.035-.03-.035-.035a.641.641,0,0,1-.158-.3.7.7,0,0,1-.016-.112V14.47a2.71,2.71,0,0,1,.028-.345,2.651,2.651,0,0,1,.517-1.273,6.7,6.7,0,0,1,1.216-1.224l.167-.135.05-.04A8.847,8.847,0,0,1,9.152,9.429a5.78,5.78,0,0,1,1.305.145c.107.024.209.051.311.081l.105.032L11,9.729a1.329,1.329,0,0,0,.433.078,1.033,1.033,0,0,0,.973-.754,1.574,1.574,0,0,0,.066-.944,1.311,1.311,0,0,0-.5-.753l-.046-.032-.155-.1L11.592,7.1l-.2-.142L11.3,6.888l-.133-.1a4.718,4.718,0,0,1-1.153-1.143,1.589,1.589,0,0,1-.265-1.2l.011-.055.015-.064.027-.06.086-.184L9.977,3.9,10,3.847l.033-.045a4.033,4.033,0,0,1,1.783-1.181l.1-.04c.237-.1.767-.286,1.118-.412l.005,0c.174-.063.312-.112.36-.13l.011,0A27.56,27.56,0,0,1,17.939.64,28.33,28.33,0,0,1,22.67.029C23.117.01,23.57,0,24.016,0a30.125,30.125,0,0,1,7.872,1.034l.234.064.148.042a30.148,30.148,0,0,1,3.9,1.468l.416.187c.092.042.418.173.734.3l.008,0c.341.138.728.294.944.386l.073.031c1.716.754,2.529,1.5,2.721,2.489l.013.073a11.854,11.854,0,0,0,1.6,1.271l.153.1.145.093c.647.412,1.27.781,1.849,1.1l.157.085.109.057,1.046.359,1.293.448.259.089c1.368.466,2.148.7,3.094.934l.534.131c2.089.507,3.852.88,5.549,1.175,1.736.3,3.566.57,5.437.8l.631.077c.6.071,1.189.126,2.183.2l1.537.119,1.039.084-.553.884a29.923,29.923,0,0,0-1.983,3.773c-.6,1.344-1.179,2.861-1.835,4.773l-.14.41a125.3,125.3,0,0,0-3.307,12.176c-1.035,4.38-1.992,8.84-2.845,13.257s-1.623,8.912-2.29,13.357c-.921,6.142-1.676,12.339-2.243,18.419l-.08.874Z" transform="translate(30.847 -2.526)" fill="#fff"/>
    <path id="_Top" data-name="ðŸ‘• Top" d="M33.965,0l-.038.287-.036.287c-1.035,8.243-1.908,18.616-2.668,26.886C29.705,43.948,28.776,60.5,28.9,77.064c.034,4.283.189,8.552.386,12.828l.043.916a62.02,62.02,0,0,0,1.859,14.08,1.211,1.211,0,0,0,.83.886c.015.524.045,1.05.081,1.57l.027.389c.15,2.1.579,6.472,1.5,8.378a8.427,8.427,0,0,0,4.282,4.147,8.529,8.529,0,0,0,1.623.5C28,121,12.851,120.625,1.3,120.346A2.488,2.488,0,0,0,3.337,118a10.358,10.358,0,0,0-1.627-6.987,2.767,2.767,0,0,0-.488-.56l.032-1.345c.023-1.009.033-2.018-.024-3.026-.123-2.223-.306-4.447-.467-6.668C.439,94.962.187,90.5.088,86.045q-.3-13.378.45-26.753A357.81,357.81,0,0,1,7.761,4.3c.281-1.268.564-2.536.858-3.8,3,1.558,8.335,2.118,11.611,2.139A36.822,36.822,0,0,0,33.965,0Z" transform="translate(83.324 31.079)" fill="#e86bbb"/>
    <path id="_Ink" data-name="ðŸ– Ink" d="M15.144,159.695a24.248,24.248,0,0,1-4.717-.391,9.41,9.41,0,0,1-3.291-1.309,8.6,8.6,0,0,1-2.518-2.476,7.144,7.144,0,0,1-1.181-3.189,1.192,1.192,0,0,1-.283.034,1.26,1.26,0,0,1-.663-.188,1.093,1.093,0,0,1-.453-.562c-.12-.333-.243-.667-.362-.989l0-.005a22.289,22.289,0,0,1-1.606-6.075,25.426,25.426,0,0,1,0-3.724c.073-1.083.2-2.225.411-3.7A92.8,92.8,0,0,1,3.36,124.979c.194-.679.395-1.382.59-2.076.321-1.142.656-2.3.98-3.422h0c.86-2.972,1.749-6.045,2.453-9.112a62.934,62.934,0,0,0,1.147-6.642c.257-2.173.41-4.436.454-6.728.039-2.042.029-4.117.018-6.125-.014-2.629-.028-5.346.071-8.019A117.454,117.454,0,0,1,10.2,70.507a83.546,83.546,0,0,1,6.853-23.593,73.466,73.466,0,0,1,5.905-10.532,44.884,44.884,0,0,1,3.718-4.7c.565-.624,1.179-1.289,1.832-1.927a6.6,6.6,0,0,1-1.751-.844,5.252,5.252,0,0,1-1.327-1.3,4.663,4.663,0,0,1-.751-1.71,5.451,5.451,0,0,1-.023-2.087,6.525,6.525,0,0,1,2.366-3.893c.047-.039.1-.079.157-.12a4.392,4.392,0,0,1-.593-1.614,4.942,4.942,0,0,1,.033-1.663,6.4,6.4,0,0,1,.535-1.608,7.766,7.766,0,0,1,.912-1.45,11.42,11.42,0,0,1,1.437-1.5,11.954,11.954,0,0,1,1.69-1.232,11.826,11.826,0,0,1,1.877-.916,11.1,11.1,0,0,1,2-.558l-.025-.074-.006-.019,0-.012-.028-.081a4.371,4.371,0,0,1,0-2.736A4.782,4.782,0,0,1,36.592,4.1c2.044-1.628,4.948-2.79,8.88-3.553A30.273,30.273,0,0,1,51.216,0a32.315,32.315,0,0,1,4.365.3A27.027,27.027,0,0,1,60.189,1.36l.108.035A23.237,23.237,0,0,1,64.812,3.2a15.891,15.891,0,0,1,3.453,2.456A4.845,4.845,0,0,1,69.386,7.37a3.374,3.374,0,0,1,.058,2.08.3.3,0,0,1-.289.236.362.362,0,0,1-.354-.322c-.142-1.3-2-2.033-3.355-2.569-.289-.114-.561-.222-.784-.322a30.638,30.638,0,0,0-4.371-1.664,29.446,29.446,0,0,0-7.935-1.075c-.438,0-.881.01-1.318.029a27.7,27.7,0,0,0-4.608.593A26.924,26.924,0,0,0,41.99,5.72c-.149.06-.341.128-.564.206-.952.333-2.389.836-2.677,1.6a1.156,1.156,0,0,0,.366,1.15,6.009,6.009,0,0,0,1.122.955c.138.1.267.184.384.262a1.919,1.919,0,0,1,.781,1.071,2.246,2.246,0,0,1-.015,1.266,1.978,1.978,0,0,1-.584.927,1.549,1.549,0,0,1-1.026.383,1.975,1.975,0,0,1-.645-.115,4.308,4.308,0,0,0-.473-.135,5.16,5.16,0,0,0-1.165-.13,7.023,7.023,0,0,0-2.623.548,9.436,9.436,0,0,0-2.3,1.34A4.01,4.01,0,0,0,30.861,17.3c-.025.224-.03.282-.017.3s.011,0,.019,0h0c.023,0,.072,0,.137.176a.382.382,0,0,0,.047.093l.02-.008.008,0,.392-.156a1.515,1.515,0,0,1,.569-.109,2,2,0,0,1,1.147.4,2.334,2.334,0,0,1,.769.928,2.052,2.052,0,0,1,.061,1.473,2.151,2.151,0,0,1-.923,1.158,3.825,3.825,0,0,1-1.183.474,8.631,8.631,0,0,0-1.611.835,3.186,3.186,0,0,0-1.146,1.25,1.169,1.169,0,0,0-.1,1.01c.133.262.439.435.962.543a5.714,5.714,0,0,0,1.172.11,16.575,16.575,0,0,0,2.987-.375l.1-.018a50.535,50.535,0,0,0,5.066-1.268c.829-.246,1.676-.507,2.5-.76,2.129-.657,4.33-1.336,6.522-1.841,1.181-.272,2.261-.472,3.3-.611a24.885,24.885,0,0,1,3.326-.232,19.212,19.212,0,0,1,4.723.564c-.078-.189-.156-.384-.224-.556a.287.287,0,0,1,.02-.278.392.392,0,0,1,.321-.153.364.364,0,0,1,.31.156c.316.471.634.961.947,1.454a1.78,1.78,0,0,1,.437.7,91.9,91.9,0,0,1,4.671,8.566,62.625,62.625,0,0,1,3.177,6.5,76.294,76.294,0,0,1,3.021,8.948c.738,2.2,1.44,4.468,2.087,6.738.125.313.256.626.382.929a17.35,17.35,0,0,1,1.287,3.955,1.266,1.266,0,0,1-.158.824c.77,3.138,1.459,6.365,2.047,9.593.579,3.18,1.076,6.442,1.477,9.7.254,2.081.458,4,.623,5.876.578-6.383,1.361-12.887,2.328-19.33.669-4.455,1.441-8.959,2.295-13.387s1.812-8.893,2.85-13.279,2.012-8.357,3.323-12.233c.64-1.891,1.178-3.329,1.747-4.661a31.877,31.877,0,0,1,2.273-4.428c-.322-.026-.649-.051-.966-.075-.967-.074-1.967-.15-2.943-.269-2.052-.249-4.049-.541-5.937-.867-1.845-.32-3.792-.738-6.127-1.315-1.471-.361-2.925-.868-4.332-1.359h0c-.477-.166-.971-.338-1.458-.5a.227.227,0,0,1-.166-.256A.243.243,0,0,1,73.254,12a.305.305,0,0,1,.049,0c3.889.647,7.7,1.053,12.283,1.518l.316.032.136.014c2.87.29,5.839.59,8.757.59.621,0,1.228-.014,1.8-.041.373-.017.749-.04,1.118-.07.041,0,.081,0,.122,0a1.3,1.3,0,0,1,1.133.649,1.806,1.806,0,0,1,.089,1.7c-.27.536-.549,1.08-.82,1.605l0,.008c-.781,1.518-1.588,3.087-2.261,4.685A61.372,61.372,0,0,0,93.7,29.245c-.718,2.444-1.42,5.113-2.146,8.158l.3.06.066.013c1.1.223,2.239.452,3.374.582a33.685,33.685,0,0,0,3.872.228c.62,0,1.248-.018,1.866-.054a27.7,27.7,0,0,0,5.66-.923,25.676,25.676,0,0,0,5.328-2.107,1.823,1.823,0,0,1,.865-.229,1.638,1.638,0,0,1,.487.074c.368-2.616.775-5.212,1.209-7.716v-.055c.063-1.584.214-3.187.36-4.738h0c.13-1.39.265-2.827.337-4.245.047-.919.067-1.863.086-2.776v0c.032-1.483.064-3.016.212-4.5a.2.2,0,0,1,.013-.12c.045-.444.1-.848.156-1.236a.093.093,0,0,1,.1-.085.143.143,0,0,1,.131.085,13.912,13.912,0,0,1,.463,1.425c1.278.5,2.571,1.023,3.822,1.53h0c2.783,1.128,5.661,2.294,8.559,3.265,1.122.376,2.269.737,3.379,1.086h0c1.083.341,2.2.693,3.3,1.059.992.33,2.045.706,3.416,1.22.2.074.394.143.584.209l.1.034a2.173,2.173,0,0,1,.478-.3c.247-.114.539-.217.848-.327a3.948,3.948,0,0,0,2.273-1.41.516.516,0,0,0,.01-.131.225.225,0,0,1,0-.074s0,0,.008.024l-.019-.1c-.007-.034-.013-.067-.017-.089a.717.717,0,0,0,.025.108c0-.012-.011-.088-.034-.226h0a.052.052,0,0,1-.005.035.008.008,0,0,1-.006,0c-.015,0-.038-.033-.054-.063a.989.989,0,0,0-.156-.047,1.839,1.839,0,0,1-1.182-.866,2.278,2.278,0,0,1-.318-1.432,1.915,1.915,0,0,1,.69-1.281,2.554,2.554,0,0,1,1.366-.535l.168-.016h0a2.54,2.54,0,0,0,1.373-.387c.137-.124.2-.231.182-.328-.025-.164-.258-.272-.506-.386h0c-.074-.034-.15-.069-.22-.106a18.467,18.467,0,0,0-4.8-1.638,20.453,20.453,0,0,0-4.2-.438c-.311,0-.626.007-.937.022a15.98,15.98,0,0,0-2.3.339,13.877,13.877,0,0,1-2.593.344.144.144,0,0,1-.131-.1.121.121,0,0,1,.034-.139,7.206,7.206,0,0,1,2.8-1.239l.1-.029A21.431,21.431,0,0,1,136,7.992a20.632,20.632,0,0,1,7.086.448l.141.034c2.037.489,4.827,1.158,5.058,3.608a3.533,3.533,0,0,1-.259,1.757,3.981,3.981,0,0,1-.975,1.333,5.473,5.473,0,0,1,.416,1.431,5.021,5.021,0,0,1,.01,1.454,4.751,4.751,0,0,1-.5,1.525,5.818,5.818,0,0,1-.941,1.3,8.243,8.243,0,0,1-2.711,1.847c0,.037-.011.075-.017.109v.008l-.007.039A50.036,50.036,0,0,1,141.8,28.5c-.324,1.042-.663,2.1-1.008,3.153a50.3,50.3,0,0,1,6.17,8.589,63.142,63.142,0,0,1,4.454,9.607,72.317,72.317,0,0,1,2.347,7.715c.605,2.448,1.126,5.02,1.591,7.861.865,5.279,1.4,10.714,1.923,15.97.585,5.911,1.19,12.022,2.262,17.947.925,5.11,2.349,10.18,3.725,15.084.883,3.146,1.8,6.4,2.57,9.634.555,2.32.994,4.381,1.341,6.3.411,2.265.7,4.351.883,6.378a49.629,49.629,0,0,1,.188,6.123q-.005.156-.01.315a11.516,11.516,0,0,1-.4,3.2.4.4,0,0,1-.017.046,3.254,3.254,0,0,1,.391.862,4.5,4.5,0,0,1,.086,1.584,10.284,10.284,0,0,1-.381,1.943,5.185,5.185,0,0,1-1.691,2.9,8.887,8.887,0,0,1-3.9.9l-.1.008c-1.033.081-2.085.161-3.1.239H159.1l-1.509.115c-3.6.276-7.253.569-10.79.853h-.012c-7.347.589-14.944,1.2-22.42,1.686l-.674.046c-.883.061-1.8.124-2.69.124a10.466,10.466,0,0,1-4.206-.738,8.235,8.235,0,0,1-2.518-1.68,8.668,8.668,0,0,1-1.764-2.467,15.761,15.761,0,0,1-1.036-4.115c-.258-1.706-.4-3.4-.46-4.263-.044-.619-.088-1.285-.108-1.959a1.215,1.215,0,0,1-.83-.886,42.85,42.85,0,0,1-1.333-6.978c-.281-2.428-.419-4.848-.526-7.1-.341-7.177-.408-11.115-.429-13.744-.118-15.148.64-31.374,2.318-49.6.815-8.864,1.688-16.967,2.668-24.772.021-.178.046-.361.067-.523l.007-.051a28.972,28.972,0,0,1-5.69,1.955,26.838,26.838,0,0,1-5.982.683h-.161a26.962,26.962,0,0,1-5.065-.493A18.265,18.265,0,0,1,91.1,39.307c-.3,1.291-.589,2.59-.858,3.8-.955,4.309-1.834,8.717-2.613,13.1-.771,4.34-1.466,8.778-2.065,13.19-.593,4.367-1.108,8.829-1.532,13.263-.419,4.389-.76,8.871-1.013,13.321-.251,4.426-.416,8.925-.49,13.372s-.061,8.935.04,13.381c.089,3.988.31,8.36.676,13.366.044.614.092,1.253.135,1.817v0c.119,1.589.243,3.233.332,4.849.069,1.22.038,2.462.008,3.663-.006.231-.012.47-.017.707a2.768,2.768,0,0,1,.488.56,10.338,10.338,0,0,1,1.438,3.348,10.158,10.158,0,0,1,.189,3.639,2.977,2.977,0,0,1-.726,1.667,2.183,2.183,0,0,1-.712.507,2.539,2.539,0,0,1-.944.208l-20.212.735c-7.929.29-15.986.634-23.778.967l-1.069.046c-.25-7.725-.639-15.573-1.015-23.163v0c-.471-9.5-.958-19.328-1.177-29-.133-5.863-.149-11.133-.051-16.113a.775.775,0,0,0-.211-.573.864.864,0,0,0-.618-.243.9.9,0,0,0-.585.2.8.8,0,0,0-.276.612c-.031,1.574-.05,3.272-.058,5.346a31.224,31.224,0,0,0-2.745-1.854l0,0c-.42-.262-.854-.534-1.276-.811a.793.793,0,0,0-.437-.141.843.843,0,0,0-.765.638.875.875,0,0,0,0,.515.839.839,0,0,0,.35.448c.419.275.853.543,1.272.8a19.7,19.7,0,0,1,3.425,2.474.91.91,0,0,0,.175.131c.023,12.455.659,25.108,1.275,37.345v.006c.23,4.578.468,9.311.671,13.966.142,3.263.263,6.455.361,9.489-2.78.119-6.017.257-9.256.39-2.123.088-4.279.163-6.364.236l-2.479.087-.294.011h-.017C17.254,159.656,16.192,159.695,15.144,159.695Zm132.591-47.082a.886.886,0,0,0-.58.2.779.779,0,0,0-.263.612c.005,5.534.242,11.926.685,18.485.422,6.249,1.027,12.616,1.748,18.413a.875.875,0,0,0,.341.6,1.008,1.008,0,0,0,.609.2.781.781,0,0,0,.591-.239.7.7,0,0,0,.15-.565c-.722-5.8-1.326-12.164-1.748-18.413-.443-6.559-.68-12.951-.685-18.485a.78.78,0,0,0-.265-.612A.89.89,0,0,0,147.735,112.612Zm-30.4-97.829a.344.344,0,0,1,.24.1.281.281,0,0,1,.082.2c-.041,5.3-.193,9.719-.477,13.906-.255,3.73-.608,7.514-.949,11.174v0c-.085.908-.161,1.726-.236,2.542-.7,7.61-1.494,16.235-2.148,24.662-.715,9.207-1.192,17.291-1.459,24.712-.151,4.18-.246,8.316-.282,12.294-.038,4.17-.012,8.307.077,12.3.065,2.923.174,5.892.28,8.763v.036c.042,1.143.086,2.324.126,3.487.027.789.062,1.6.1,2.376v.013c.1,2.348.205,4.777.134,7.156v0c.073.18.15.367.218.531.243.587.494,1.194.7,1.813.164.5.3,1.021.431,1.523h0c.123.471.251.957.4,1.428.135.421.3.921.477,1.429-.091-1.332-.141-2.728-.152-4.269a83.784,83.784,0,0,1,.585-9.544c.087-.795.181-1.613.289-2.5.1-3.163.281-6.386.537-9.581.312-3.913.712-7.875,1.187-11.777s1.037-7.833,1.673-11.71c1.269-7.736,2.878-15.532,4.784-23.171,1.9-7.619,4.123-15.242,6.6-22.657,1.251-3.751,2.606-7.554,4.027-11.3.189-.5.379-1.005.563-1.494v0c.951-2.531,1.934-5.149,3.087-7.63-.075-.088-.148-.173-.211-.245a.186.186,0,0,1-.033-.206.194.194,0,0,1,.171-.115.186.186,0,0,1,.128.055l.127.12c.207-.438.427-.885.653-1.327a1.09,1.09,0,0,1,.315-.378c.487-1.061.956-2.039,1.434-2.99.129-.259.266-.519.4-.771v0l.044-.084a1.474,1.474,0,0,1-.325.127,2.9,2.9,0,0,1-.733.094,6.018,6.018,0,0,1-2.363-.678c-.187-.082-.38-.167-.572-.246-1.213-.5-2.33-1-3.416-1.532-1.8-.877-3.57-1.874-5.284-2.839l-.72-.4c-.962-.54-1.945-1.081-2.894-1.6-2.776-1.53-5.646-3.112-8.36-4.843a21.9,21.9,0,0,1,.471,3.263A.276.276,0,0,1,117.334,14.784ZM68.862,126.712a.86.86,0,0,0-.408.108c-3.386,1.814-6.737,3.831-10.246,6.165-3.127,2.08-6.3,4.364-9.711,6.983a.909.909,0,0,0-.3,1.039.8.8,0,0,0,.705.589.731.731,0,0,0,.447-.168c3.408-2.619,6.585-4.9,9.711-6.983,3.509-2.335,6.86-4.351,10.246-6.165a.738.738,0,0,0,.395-.868.971.971,0,0,0-.3-.489A.812.812,0,0,0,68.862,126.712Zm60.88-.916a.96.96,0,0,0-.85.487.661.661,0,0,0,.1.72,16.718,16.718,0,0,0,5.657,4.686.871.871,0,0,0,.4.1.832.832,0,0,0,.552-.216.972.972,0,0,0,.3-.5.721.721,0,0,0-.4-.847,14.825,14.825,0,0,1-5.051-4.079A.885.885,0,0,0,129.742,125.8ZM44.954,75.59a.725.725,0,0,0-.74.607,16.329,16.329,0,0,0,.487,7.267.862.862,0,0,0,.815.62c.575.043,1.17.064,1.768.064,4.608,0,9.2-1.264,13.64-2.486,1.25-.344,2.542-.7,3.8-1.017a.775.775,0,0,0,.49-.343.833.833,0,0,0,.1-.533.85.85,0,0,0-.816-.783.932.932,0,0,0-.227.029c-1.249.315-2.531.669-3.771,1.012-4.321,1.194-8.788,2.428-13.272,2.428-.349,0-.7-.008-1.039-.023a13.354,13.354,0,0,1-.349-5.786.817.817,0,0,0-.153-.708A.963.963,0,0,0,44.954,75.59ZM131.586,77a.623.623,0,0,0-.451.191.893.893,0,0,0-.229.453.914.914,0,0,0,.542,1.052,13.005,13.005,0,0,0,4.69,1.159,5.588,5.588,0,0,0,1.344-.156,4.471,4.471,0,0,0,1.258-.522,4.313,4.313,0,0,0,1.326-1.281,6.08,6.08,0,0,0,.765-1.675,13.753,13.753,0,0,0,.448-3.7.785.785,0,0,0-.218-.574.875.875,0,0,0-.621-.243.8.8,0,0,0-.851.817,12.973,12.973,0,0,1-.27,2.927,4.635,4.635,0,0,1-.549,1.366,2.762,2.762,0,0,1-1.025.982,3.5,3.5,0,0,1-1.682.389,11.77,11.77,0,0,1-4.144-1.114l-.022-.009A.822.822,0,0,0,131.586,77Z" transform="translate(2.535 -5.612)"/>
  </g>
  <g id="HEAD" transform="translate(78.592 38.043)">
    <path id="_Skin-2" data-name="âœ‹ Skin" d="M87.671,27.638C80.254,8.076,66.884-6.246,44.344,2.75a2.011,2.011,0,0,0-2.3-.043A58.614,58.614,0,0,0,17.094,36.8a19.075,19.075,0,0,0-6.622,2.491C6.074,42.054,3.115,46.45.341,50.732a2.544,2.544,0,0,0,1.506,3.711,13.138,13.138,0,0,0,2.027.223,8.662,8.662,0,0,1-.652,1.7,2.378,2.378,0,0,0,2.637,3.411,3.4,3.4,0,0,0,.61.252c.024,1.08.578,2.527,1.674,2.745,1.773.381,4.128-.979,3.71-2.966a5.309,5.309,0,0,0,1.589.041c.058,1.035.04,2.115.183,3.07a7.171,7.171,0,0,0,9.226,6.153c.262,1.4.57,3.372,1.948,4.132,1.61,4.529,4.391,9.7,8.945,11.76a2.347,2.347,0,0,0,1.036,3,41.1,41.1,0,0,0,27.766,4.605,27.023,27.023,0,0,0,10.959-2.9,51.307,51.307,0,0,0,7.235-4.744,36.516,36.516,0,0,0,6.613-5.68,18.408,18.408,0,0,0,3.534-8.394,72.95,72.95,0,0,0-3.216-40.834C81.447,13.612,93.892,44.047,87.671,27.638Z" transform="translate(-3.584 12.959)" fill="#d08b5b"/>
    <path id="_Hair" data-name="ðŸ’ˆ Hair" d="M10.114,2.431C17.037-1.663,25.866-.6,30.026,5.738A11.852,11.852,0,0,1,31.59,9.432l.057.232.056.244a28.264,28.264,0,0,1,.461,2.854l.179,1.463.051.4a20.8,20.8,0,0,0,.562,3.014L33,17.8l.274.944-1.033.383c-1.979.716-2.393.78-3.535.182a4.461,4.461,0,0,1-1.976-2.371l-.09-.187-.2-.416-.107-.219a5.894,5.894,0,0,0-1.183-1.982,7.811,7.811,0,0,0-3.934-.427l-.071.009-.059.012-.1.023A10.625,10.625,0,0,0,15.247,18.1a10.509,10.509,0,0,0-1.82,5.617l0,.137L13.4,24.908l-2.216-.047.022-.409-.033.073c-.7,1.475-2.452,2.458-3.92,1.481L7.2,25.97l-.053-.038a2.67,2.67,0,0,1-.371-3.889l.047-.051.046-.047-.009,0-.011,0H6.838a2.12,2.12,0,0,0-1.062.621l-.106.1-.213.231-.22.235-.095.1c-.06.061-.116.115-.168.162a1.96,1.96,0,0,1-.206.167,1.223,1.223,0,0,1-.215.121,1.079,1.079,0,0,1-1.415-.532,1.244,1.244,0,0,1-.1-.3A2.21,2.21,0,0,1,3,22.495c0-.082,0-.172,0-.27l0-.153.005-.167.006-.133.025-.493a12.357,12.357,0,0,1,1.24-4.708l.074-.15.027-.054-.076.1a4.514,4.514,0,0,1-1.571,1.408l-.082.04-.08.037A1.707,1.707,0,0,1,.4,17.5a2.415,2.415,0,0,1-.38-1.732,10.337,10.337,0,0,1,1.605-4.087l.136-.234.533-.906A22.68,22.68,0,0,1,10.114,2.431Z" transform="translate(-3.247 49.018)" fill="#e8e1e1"/>
    <path id="_Ink-2" data-name="ðŸ– Ink" d="M60.643,94.908h0a25.36,25.36,0,0,1-6.542-.831A22.33,22.33,0,0,1,47.953,91.4a1.536,1.536,0,0,1-.669-.827,1.637,1.637,0,0,1-.006-.966,1.877,1.877,0,0,1,.548-.878,1.383,1.383,0,0,1,.922-.37,1.463,1.463,0,0,1,.822.27,17.447,17.447,0,0,0,3.841,2.006A21.845,21.845,0,0,0,60.8,91.864,32.154,32.154,0,0,0,71.02,90.052a39.8,39.8,0,0,0,8.041-3.75,35.428,35.428,0,0,0,6.948-5.514,23.058,23.058,0,0,0,4.919-7.4,20.217,20.217,0,0,0,1.43-8.752,64.9,64.9,0,0,0-.894-6.956c-.221-1.335-.449-2.715-.623-4.078-.337-2.653-.569-5.362-.792-7.981v-.012c-.051-.6-.1-1.212-.156-1.817l-.1-1.177A92.18,92.18,0,0,0,88.44,32.6a38.154,38.154,0,0,0-3.16-9.555A38.728,38.728,0,0,0,74.524,9.919a36.965,36.965,0,0,0-7.643-4.605,34.473,34.473,0,0,0-8.534-2.575,23.794,23.794,0,0,0-3.8-.307,25.35,25.35,0,0,0-8.061,1.353,32.134,32.134,0,0,0-7.439,3.678,44.214,44.214,0,0,0-7.1,5.845,47.079,47.079,0,0,0-5.79,7.151c-.791,1.2-1.557,2.489-2.278,3.834C23.2,25.554,22.542,26.9,21.923,28.3c-.828,1.87-1.479,3.837-2.109,5.74-.232.7-.473,1.428-.718,2.138.165,0,.329-.007.488-.007a16.415,16.415,0,0,1,1.8.1A14.639,14.639,0,0,1,27,38.1a14.24,14.24,0,0,1,2.406,1.724,13.762,13.762,0,0,1,2,2.211,10.5,10.5,0,0,1,1.15,2.034,13.262,13.262,0,0,1,.7,2.148,34.026,34.026,0,0,1,.665,4.5,33.751,33.751,0,0,0,.707,4.7.816.816,0,0,1-.361.889,5.168,5.168,0,0,1-2.8.83,4.674,4.674,0,0,1-2.84-.932,4.418,4.418,0,0,1-1.517-2.134,4.268,4.268,0,0,1-.216-1.3,3.945,3.945,0,0,1,.208-1.308.208.208,0,0,1,.2-.147.2.2,0,0,1,.207.2,4.124,4.124,0,0,0,3.8,4.176,3.492,3.492,0,0,0,1.632-.419,28.2,28.2,0,0,1-.783-4.473,33.187,33.187,0,0,0-.6-3.779A11.016,11.016,0,0,0,30.106,43.5a11.4,11.4,0,0,0-2.052-2.357,11.259,11.259,0,0,0-2.483-1.633,12.368,12.368,0,0,0-2.785-.949,14.113,14.113,0,0,0-2.958-.307,15.94,15.94,0,0,0-4.249.587,16.379,16.379,0,0,0-3.968,1.682,19.339,19.339,0,0,0-4.205,3.4A24.633,24.633,0,0,0,4.163,48.26l-.531.9a19.811,19.811,0,0,0-1.011,1.9,6.752,6.752,0,0,0-.591,2,1.352,1.352,0,0,0,.212,1.026.541.541,0,0,0,.421.182,1.117,1.117,0,0,0,.442-.108A4.444,4.444,0,0,0,4.787,52.5a1.006,1.006,0,0,1,.848-.473,1.1,1.1,0,0,1,.925.514.941.941,0,0,1,.005.951l-.02.037a12.057,12.057,0,0,0-1.035,2.41,11,11,0,0,0-.46,2.58L5.025,59c-.026.57-.01.866.047.88h0a3.549,3.549,0,0,0,.654-.629c.075-.082.135-.147.161-.173a3.353,3.353,0,0,1,1.717-1.007,1.029,1.029,0,0,1,.185-.017,1.224,1.224,0,0,1,1.1.752.872.872,0,0,1,.048.5.918.918,0,0,1-.286.485l-.033.03a1.6,1.6,0,0,0,.106,2.436,1.226,1.226,0,0,0,.739.253,1.772,1.772,0,0,0,1.239-.611,2.426,2.426,0,0,0,.657-1.258l.005-.041a1.03,1.03,0,0,1,.345-.678.963.963,0,0,1,.625-.229.9.9,0,0,1,.907.907,3.3,3.3,0,0,1-.222,1.443,3.841,3.841,0,0,1-.774,1.224,4.2,4.2,0,0,1-1.295.944,3.692,3.692,0,0,1-1.542.353,3.155,3.155,0,0,1-1.556-.4A3.361,3.361,0,0,1,6.7,63.077a3.924,3.924,0,0,1-.589-1.468,2.587,2.587,0,0,1-.98.3c-.064.006-.128.009-.19.009a1.821,1.821,0,0,1-1.285-.509,2.254,2.254,0,0,1-.642-1.265,9.4,9.4,0,0,1,.241-3.874,2.643,2.643,0,0,1-.62.076,2.552,2.552,0,0,1-1.289-.36A2.689,2.689,0,0,1,0,53.519a7.463,7.463,0,0,1,.685-2.9,28.447,28.447,0,0,1,2.982-5.25A25.752,25.752,0,0,1,7.75,40.88a20.568,20.568,0,0,1,5.013-3.223,16.776,16.776,0,0,1,5.771-1.449,20.474,20.474,0,0,1,.5-3.786,42.227,42.227,0,0,1,3.2-9.181,45.253,45.253,0,0,1,5.2-8.337A41.933,41.933,0,0,1,42.539,2.74,31.363,31.363,0,0,1,47.372.946,25.978,25.978,0,0,1,52.446.061C53.016.02,53.6,0,54.189,0a31.636,31.636,0,0,1,9.532,1.581,38.544,38.544,0,0,1,8.235,3.74,40.3,40.3,0,0,1,7.174,5.521,38.429,38.429,0,0,1,5.833,7.2,40.227,40.227,0,0,1,3.982,8.373,45.035,45.035,0,0,1,1.309,4.664c.335,1.481.622,3.038.875,4.76.471,3.2.753,6.476,1.026,9.648h0c.086,1,.176,2.043.269,3.061.344,3.729.909,7.408,1.507,11.162l.094.587a42.3,42.3,0,0,1,.569,5.45,21.967,21.967,0,0,1-.464,5.446,23.108,23.108,0,0,1-3.745,8.277A29.966,29.966,0,0,1,87.468,83a34.644,34.644,0,0,1-3.376,3.069,43.058,43.058,0,0,1-10.956,6.322,38.016,38.016,0,0,1-6.176,1.852A31.336,31.336,0,0,1,60.643,94.908ZM37.176,89.531a5.579,5.579,0,0,1-2.853-.933,20.765,20.765,0,0,1-2.471-1.84l-.034-.028a20.985,20.985,0,0,1-4.086-4.643,27.546,27.546,0,0,1-2.72-5.317,27.918,27.918,0,0,1-1.535-5.8,7.191,7.191,0,0,1-2.052.288h-.015a6.611,6.611,0,0,1-2.248-.4,7.31,7.31,0,0,1-2-1.107,9.41,9.41,0,0,1-2.615-3.189,10.843,10.843,0,0,1-.758-1.924,12.024,12.024,0,0,1,1.559-9.973,10.957,10.957,0,0,1,1.272-1.5,11.142,11.142,0,0,1,1.517-1.25,10.652,10.652,0,0,1,3.573-1.593l.111-.025a9.306,9.306,0,0,1,1.841-.2,4.829,4.829,0,0,1,1.234.139,1.713,1.713,0,0,1,.9.515,1.263,1.263,0,0,1,.22,1.085.085.085,0,0,1-.089.071.105.105,0,0,1-.1-.071c-.128-.437-.512-.659-1.14-.659a8.249,8.249,0,0,0-2.706.713,11.316,11.316,0,0,0-3.015,1.867A10.42,10.42,0,0,0,17.65,55.14a10.119,10.119,0,0,0-1.035,1.587,9.3,9.3,0,0,0-1.056,3.629,10.257,10.257,0,0,0,.426,3.824,8.727,8.727,0,0,0,.774,1.766,7.548,7.548,0,0,0,1.169,1.531,5.592,5.592,0,0,0,1.516,1.1,4.482,4.482,0,0,0,1.808.458h.075a5.155,5.155,0,0,0,1.336-.25h.005a5.129,5.129,0,0,1,1.321-.249,1.665,1.665,0,0,1,.756.166.7.7,0,0,1,.357.624,1.565,1.565,0,0,1-.53,1.06c.506.924.994,1.879,1.465,2.8a43.839,43.839,0,0,0,4.052,6.865,23.391,23.391,0,0,0,3.9,4.034,15.719,15.719,0,0,0,2.233,1.476c.153.084.3.164.449.241h0a5.164,5.164,0,0,1,1.908,1.432,1.4,1.4,0,0,1,.089,1.37,1.367,1.367,0,0,1-1.006.892A3.626,3.626,0,0,1,37.176,89.531ZM26.6,62.824a1.394,1.394,0,0,1-.375-.053,8.423,8.423,0,0,1-2.19-1.124,9.793,9.793,0,0,0-1.961-1.058,4.965,4.965,0,0,0-1.661-.292,4.074,4.074,0,0,0-2.323.695.158.158,0,0,1-.091.029.2.2,0,0,1-.17-.109.169.169,0,0,1,0-.177A4.481,4.481,0,0,1,19.523,59.2a5.855,5.855,0,0,1,2.214-.612c.187-.016.379-.025.569-.025a7.253,7.253,0,0,1,2.481.452l.4.146a6.147,6.147,0,0,1,2.367,1.316,1.34,1.34,0,0,1,.365.735,1.423,1.423,0,0,1-.1.762,1.439,1.439,0,0,1-.474.6A1.258,1.258,0,0,1,26.6,62.824Z" transform="translate(-4.216 11.836)"/>
  </g>
  <g id="FACE" transform="translate(112.183 77.354)">
    <path id="_Ink-3" data-name="ðŸ– Ink" d="M17.52,40.789a1.857,1.857,0,0,1-1.647-1.264,1.789,1.789,0,0,1-.083-1,1.7,1.7,0,0,1,.576-.939l.052-.044a2.45,2.45,0,0,0,.641-.865,5.407,5.407,0,0,0,.384-1.17,9.6,9.6,0,0,0,.2-2.338,9.122,9.122,0,0,0-.444-2.423l-.053-.155c-.074-.21-.824-2.063-1.17-2.063a.09.09,0,0,0-.06.023l-.015.015a.145.145,0,0,1-.111.057.15.15,0,0,1-.127-.079.158.158,0,0,1,.005-.163.811.811,0,0,1,.688-.463c.377,0,1.035.311,2.034,1.795a12.547,12.547,0,0,1,1.246,2.307,10.829,10.829,0,0,1,.473,2.221,6.606,6.606,0,0,0,1.443.158,7.266,7.266,0,0,0,1.364-.132,7.225,7.225,0,0,0,2.489-1.1c.308-.187.626-.38.972-.564a1.414,1.414,0,0,1,.671-.164,2.032,2.032,0,0,1,1.658.98,1.682,1.682,0,0,1,.2,1.293,2.382,2.382,0,0,1-.689,1.127,4.454,4.454,0,0,1-1.848,1,7.963,7.963,0,0,1-2.232.31,7.331,7.331,0,0,1-1.381-.125,7.055,7.055,0,0,1-2.605-1.067q0,.042,0,.085c0,.068-.007.138-.012.207l-.015.168a9.517,9.517,0,0,1-.432,2.16,3.967,3.967,0,0,1-1.129,1.8A1.6,1.6,0,0,1,17.52,40.789Zm7.663-14.533h0a7.373,7.373,0,0,1-2.63-.53A13.282,13.282,0,0,1,19.46,23.97a1.189,1.189,0,0,1-.432-.687,1.423,1.423,0,0,1,.061-.771,1.754,1.754,0,0,1,.521-.753,1.267,1.267,0,0,1,.811-.317,1.151,1.151,0,0,1,.628.193l.206.159.005,0A16.744,16.744,0,0,0,23.2,23.145a4.768,4.768,0,0,0,2.321.74,2.505,2.505,0,0,0,.981-.193,2.74,2.74,0,0,0,.913-.647,2.8,2.8,0,0,0,.531-2.255,4.261,4.261,0,0,0-1.13-2A8.24,8.24,0,0,0,25.1,17.408a.531.531,0,0,1-.144-.61.8.8,0,0,1,.264-.38.809.809,0,0,1,.505-.167,1.075,1.075,0,0,1,.182.016A5.736,5.736,0,0,1,27.926,17a4.577,4.577,0,0,1,1.357,1.252,4.974,4.974,0,0,1,.866,3.322,5.475,5.475,0,0,1-.444,1.744,5.088,5.088,0,0,1-1,1.5A4.779,4.779,0,0,1,25.183,26.256ZM4.4,15.061a.249.249,0,0,1-.227-.14,3.521,3.521,0,0,1-.423-1.763,4.141,4.141,0,0,1,.434-1.715A5.608,5.608,0,0,1,5.8,9.485a5.245,5.245,0,0,1,2.27-1.044,5.728,5.728,0,0,1,1-.088,5.857,5.857,0,0,1,1.8.286,6.092,6.092,0,0,1,1.645.825l.1.07a6.242,6.242,0,0,1,1.694,1.79,2.979,2.979,0,0,1,.4,1.114,2.128,2.128,0,0,1-.176,1.17.947.947,0,0,1-.431.451,1.309,1.309,0,0,1-.611.144,1.412,1.412,0,0,1-.645-.152,2.817,2.817,0,0,1-1.048-1.2,3.733,3.733,0,0,0-.83-1.087,3.525,3.525,0,0,0-2.153-.786c-.086,0-.172,0-.256.011a3.67,3.67,0,0,0-2.449,1.362,8.158,8.158,0,0,0-1.412,2.5A.327.327,0,0,1,4.4,15.061Zm32.851-.532a1.684,1.684,0,0,1-.939-.282,1.46,1.46,0,0,1-.593-.837c-.059-.216-.1-.425-.14-.628a3.074,3.074,0,0,0-.639-1.568,2.458,2.458,0,0,0-.789-.61,2.19,2.19,0,0,0-.96-.222c-.049,0-.1,0-.148,0a3.358,3.358,0,0,0-2.122,1.027,5.334,5.334,0,0,0-.622.813,4.361,4.361,0,0,1-.727.905.344.344,0,0,1-.221.086.311.311,0,0,1-.213-.086,1.92,1.92,0,0,1-.452-1.723,4.606,4.606,0,0,1,.666-1.75,5.2,5.2,0,0,1,1.588-1.552,4.752,4.752,0,0,1,2.1-.7c.111-.009.225-.014.338-.014A5.913,5.913,0,0,1,37.809,9.7a4.3,4.3,0,0,1,.927,3.709,1.425,1.425,0,0,1-.569.841A1.618,1.618,0,0,1,37.248,14.529ZM.781,8.632a.388.388,0,0,1-.3-.126,2.766,2.766,0,0,1-.054-3.02A8.677,8.677,0,0,1,2.378,2.848,11.939,11.939,0,0,1,5.331.967,8.783,8.783,0,0,1,8.843.123a4.927,4.927,0,0,1,1.516.225,2.016,2.016,0,0,1,1.018.775,2.359,2.359,0,0,1,.431,1.207,1.627,1.627,0,0,1-.975,1.651,10.267,10.267,0,0,1-3,.7,10.3,10.3,0,0,0-3.091.732A5.878,5.878,0,0,0,2.581,6.976c-.09.11-.178.225-.272.347A4.042,4.042,0,0,1,1.022,8.575.559.559,0,0,1,.781,8.632ZM37.639,6.676a1.563,1.563,0,0,1-.789-.218,4.4,4.4,0,0,1-1.244-1.268,6.569,6.569,0,0,0-.806-.948,7.01,7.01,0,0,0-2.119-1.316A7.307,7.307,0,0,0,30.036,2.4h-.052a6.681,6.681,0,0,0-1.251.161c-.27.052-.549.106-.82.135a.029.029,0,0,1,0,.03c-.015.024-.073.037-.167.037a2.38,2.38,0,0,1-.643-.108c-.248-.106-.226-.417-.154-.588a2.625,2.625,0,0,1,1.2-1.162A7.428,7.428,0,0,1,31.784,0a9.756,9.756,0,0,1,1.663.147,8.166,8.166,0,0,1,3.405,1.435l.114.085A8.125,8.125,0,0,1,38.535,3.14a2.943,2.943,0,0,1,.713,1.941,1.693,1.693,0,0,1-.511,1.138A1.575,1.575,0,0,1,37.639,6.676Z" transform="translate(10.986 13.104)"/>
  </g>
  <g id="FACIAL_HAIR" data-name="FACIAL HAIR" transform="translate(104.577 109.479)">
    <path id="_Ink-4" data-name="ðŸ– Ink" d="M40.224,2.478c-.282-.842-1.731-.768-1.642.222a2.907,2.907,0,0,1-1.369,2.943,2.46,2.46,0,0,1-3.1-.929,16.846,16.846,0,0,0-1.774-2.539,6.582,6.582,0,0,0-2.5-1.551A5.129,5.129,0,0,0,27.616.392a5.409,5.409,0,0,0-5.09,1.954c-.074.092-.142.186-.208.282-.113-.154-.231-.306-.357-.457a1,1,0,0,0-1.086-.365,6.618,6.618,0,0,0-7.294-.353C11.705,2.563,10.153,4.2,7.846,4.325c-1.828.1-3.818-.942-3.947-2.952C3.831.324,2.4-.55,1.6.421A7.207,7.207,0,0,0,.51,7.646a9.749,9.749,0,0,0,5.528,5.521,21.559,21.559,0,0,0,8.92,1.479A9.245,9.245,0,0,0,22.384,11a8.007,8.007,0,0,0,.564-.879,9.175,9.175,0,0,0,7.205,3.2c2.89.069,6.307-.438,8.35-2.684a8.377,8.377,0,0,0,1.721-8.154" transform="translate(21.972 4.438)"/>
  </g>
  <g id="ACCESORIES" transform="translate(88.521 88.978)">
    <path id="_Ink-5" data-name="ðŸ– Ink" d="M41.577,22.794h0a11.669,11.669,0,0,1-3.909-.652A10.192,10.192,0,0,1,34.23,20.1a11.055,11.055,0,0,1-2.589-3.545,16.068,16.068,0,0,1-1.366-5.175A3.067,3.067,0,0,0,29.6,9.468a3.588,3.588,0,0,0-1.594-.7c-.264-.075-.562-.161-.891-.267l-.285-.058h0c-.316-.063-.643-.129-.965-.222a1.353,1.353,0,0,1-.43.076c-.453,0-.771-.281-1.21-.669a9.365,9.365,0,0,0-.741-.608A7.81,7.81,0,0,0,18.57,5.74a29.992,29.992,0,0,0-6.381.843A87.294,87.294,0,0,0,1.981,9.676c-.013.686-.363,1.165-.851,1.165A.926.926,0,0,1,.6,10.658,2.944,2.944,0,0,1,.019,9.352a1.93,1.93,0,0,1,.2-1.161c.459-.906,1.65-1.731,3.54-2.451A34.869,34.869,0,0,1,10,4.149,79.266,79.266,0,0,1,22.08,3.03c.286,0,.543,0,.765.012a6.041,6.041,0,0,1,1.659-.29,2.384,2.384,0,0,1,.884.153,13.773,13.773,0,0,1,5.352-2,42.048,42.048,0,0,1,8.3-.813A38.26,38.26,0,0,1,43.2.31a27.071,27.071,0,0,1,3.9.7,16.134,16.134,0,0,1,3.349,1.254,8.8,8.8,0,0,1,2.5,1.876,8.69,8.69,0,0,0,2.647.412,11.1,11.1,0,0,0,3.634-.674,35.422,35.422,0,0,0,3.474-1.488A29.981,29.981,0,0,1,66.932.657c.411-.092,1.506-.255,2.938-.4C71.089.142,72.96,0,74.951,0a22.09,22.09,0,0,1,5.911.638c1.821.528,2.8,1.378,2.9,2.526a4.8,4.8,0,0,1,.151,1.66A4.052,4.052,0,0,1,83.5,6.679a.536.536,0,0,1-.442.289.784.784,0,0,1-.482-.219,6.186,6.186,0,0,0-1.269,1.284,7.656,7.656,0,0,0-.856,1.509,20.8,20.8,0,0,0-1.029,3.41,13.615,13.615,0,0,1-2.038,5.2,6.408,6.408,0,0,1-2.514,2.081,8.027,8.027,0,0,1-3.432.755,9.162,9.162,0,0,1-6.609-2.926,12.849,12.849,0,0,1-2.544-3.969,20.8,20.8,0,0,1-1.426-5.916A5.183,5.183,0,0,0,58.9,7.808a12.058,12.058,0,0,0-2.12.251,14.942,14.942,0,0,1-1.82.249,12.372,12.372,0,0,1-.437,5.4,12.077,12.077,0,0,1-2.455,4.326,13.5,13.5,0,0,1-2.206,2.012,14.388,14.388,0,0,1-2.577,1.494A14.053,14.053,0,0,1,41.577,22.794ZM43.16,4.186a17.579,17.579,0,0,0-5.908.913,9.319,9.319,0,0,0-4.59,3.316,4.2,4.2,0,0,0-.468,3.572A19.963,19.963,0,0,0,33.481,15.3a12.679,12.679,0,0,0,1.9,2.829A7.855,7.855,0,0,0,41.4,20.838a11.3,11.3,0,0,0,3.022-.444A11.8,11.8,0,0,0,50.16,16.76a11.1,11.1,0,0,0,1.828-2.882,9.665,9.665,0,0,0,.793-3.309,7.576,7.576,0,0,0-.375-2.839,5.875,5.875,0,0,0-1.5-2.377,25.051,25.051,0,0,0-3.533-.822A26.68,26.68,0,0,0,43.16,4.186ZM72.619,2.83a7.7,7.7,0,0,0-2.005.266,9.857,9.857,0,0,0-4.426,2.552,9.4,9.4,0,0,0-1.635,2.22,10.132,10.132,0,0,0-.992,2.851,6.959,6.959,0,0,0,.135,2.7,5.233,5.233,0,0,0,.941,2.176,11.739,11.739,0,0,0,3.294,2.476,9.22,9.22,0,0,0,4.12,1.108,5.282,5.282,0,0,0,2.312-.5,6.217,6.217,0,0,0,2.094-1.88,10.527,10.527,0,0,0,1.323-2.609,29.9,29.9,0,0,0,1.233-5.669A3.957,3.957,0,0,0,78.851,6.7a4.7,4.7,0,0,0-.926-1.6,6.416,6.416,0,0,0-2.287-1.646A7.606,7.606,0,0,0,72.619,2.83Z" transform="translate(0.212 3.804)"/>
  </g>
</svg>
