<svg id="peep-44" xmlns="http://www.w3.org/2000/svg" width="258.395" height="324" viewBox="0 0 258.395 324">
  <g id="BODY" transform="translate(31.056 135.053)">
    <path id="_Skin" data-name="âœ‹ Skin" d="M233.026,64.537c2.164-1.13,4.277-2.358,6.356-3.636a1.324,1.324,0,0,0-1.334-2.286c-.768.408-1.533.82-2.3,1.226a13.479,13.479,0,0,0,1.666-1.705l-.035-.035c1.936-1.735-.551-5.01-2.753-3.584a30.941,30.941,0,0,1-6.13,3.772c-4.617,1.958-9.709,2.282-14.664,2.339a19.443,19.443,0,0,0-5.3.528c.69-2.768,2.416-4.859,3.332-7.54.676-2.707-3.23-4.551-4.615-1.949-.34.639-.664,1.285-.98,1.935-2.992,2.722-7.988,2.483-11.006,5.406a9.377,9.377,0,0,0-2.892,5.675c-.226,1.411.125,2.826-.728,4.076-4.124,5.835-10.64,15.058-13.949,21.479-2.343-15.259-8.6-34.133-15.062-48.085a57.891,57.891,0,0,0-7.792-12.6c.364-1.261-.92-3.5-1.737-2.811-2.513-3.072-6.956-3.867-10.529-5.394a20.92,20.92,0,0,1-10.791-11.225C129.254.838,123.033-.341,114.4.069,106.148.059,100.039,3.592,98.237,12c-3.66,6.382-12.3,5.327-18.52,7.016a61.579,61.579,0,0,0-13.181,4.7c-4.675-4.436-21.419,14.182-22.941,18.974.9.174,1.786.383,2.669.638a.636.636,0,0,1-.337,1.225,24.573,24.573,0,0,0-2.977-.513c-.03.1-.057.19-.077.284l-.336-.025a4,4,0,0,1,.72.473c.563.468-.17,1.37-.768,1a4.686,4.686,0,0,0-1.977-.5c-.04,1.39-5-.165-5.77-.626-3.424-.428-6.946.031-10.142-1.62-4.253-.9-8.537-1.887-12.742-3.028-1.113.434-2.159,1.988-1.275,3.128a.637.637,0,0,1-.768,1,16.344,16.344,0,0,1-5.1-5.247c-.648-.654-1.8-.513-2.67-.785a1.394,1.394,0,0,0-.184.682c-3.694.608-1.059,4.644.8,5.9-.985.642-1.023,1.9-.936,2.948a1.42,1.42,0,0,0-.1,1.256c.695,1.6,2.2,2.95,3.339,4.247a27.466,27.466,0,0,0,3.92,4.035,42.351,42.351,0,0,0,20.15,7.93c2.571.4,6.27,1,7.862,3.175a75.3,75.3,0,0,1-1.759,7.575c-.91,3.341-.848,6.839-.86,10.246a.251.251,0,0,0-.408.114,8.826,8.826,0,0,1-1.227,4.043,34.3,34.3,0,0,0-1.534,6.878c-1.126,10.989-1.4,22.3,1.144,33.121A39.2,39.2,0,0,0,37,141.576a2.394,2.394,0,0,0,2.624,1.149,18.591,18.591,0,0,0,10.443,1.734c11.5-3.256,7.491,4.585,23.612,2.184,27.825-3.546,55.946,3.422,83.712-.669.684,5.284,9.636,3.768,12.746,1.534,9.324-6.934,13.954-28.888,18.633-40.026,3.217-8.778,8.6-24.326,15.656-30.216a20.109,20.109,0,0,1,7.23-3.229c9.547-2.461,19.13-4.788,28.7-7.181,1.622-.4,1.331-3.167-.4-2.99C237.646,64.1,235.336,64.315,233.026,64.537Z" transform="translate(-18.222 -4.65)" fill="#d08b5b"/>
    <path id="_Ink" data-name="ðŸ– Ink" d="M162.651,143.393a1.226,1.226,0,0,1-.914-.423c-8.575-.345-17.009-.6-25.067-.75-6.717-.129-13.677-.194-20.689-.194-7.8,0-15.939.081-24.2.241-7.238.141-14.823.344-22.544.6-1.081.036-2.181.077-3.244.116H65.98c-2.573.1-5.234.194-7.851.23h-.108a9.22,9.22,0,0,1-1.632-.15,7.233,7.233,0,0,1-1.653-.5,3.817,3.817,0,0,1-1.308-.909,2.3,2.3,0,0,1-.6-1.391l0-.069a6.921,6.921,0,0,1-.771.163.925.925,0,0,1-.14.011.859.859,0,0,1-.2-.022l-.052-.014a7.842,7.842,0,0,1-2.28.311,23.984,23.984,0,0,1-6.2-1.153c-.378-.106-.736-.205-1.086-.3l-.234-.062a15.134,15.134,0,0,1-3.665-1.4,9.93,9.93,0,0,1-2.968-2.547,17.212,17.212,0,0,1-1.963-3.161,23.388,23.388,0,0,1-1.342-3.5,42.043,42.043,0,0,1-1.4-7.359,55.435,55.435,0,0,1,.083-13.759,53.334,53.334,0,0,1,.412-11.225c.22-1.937.463-3.723.742-5.459.163-1.012.374-2,.594-3.014.029-.134.056-.267.084-.409v0c.055-.274.111-.557.185-.833l.05-.177a1.493,1.493,0,0,1-.193.012,1.826,1.826,0,0,1-.872-.238,1.954,1.954,0,0,1-.869-.994,3.6,3.6,0,0,1-.243-1.322,62.906,62.906,0,0,1,.5-7.659l0-.041.058-.541c.3-2.79.7-5.512,1.206-8.093l.134-.689a30.714,30.714,0,0,1,1.638-5.939,65.134,65.134,0,0,1-8.846-1.963,26.935,26.935,0,0,1-4.128-1.693,8.786,8.786,0,0,1-1.464-.358h0c-.146-.045-.3-.091-.445-.134-.952-.278-1.9-.609-2.831-.983a32.927,32.927,0,0,1-5.512-2.783,26.207,26.207,0,0,1-3.937-3.066,23.117,23.117,0,0,1-3.233-3.8l-.129-.193a15.017,15.017,0,0,1-1.337-2.494,4.709,4.709,0,0,1-.428-2.775A1.856,1.856,0,0,1,2.7,39.33,8.783,8.783,0,0,1,.789,37.01a6.793,6.793,0,0,1-.6-1.357A3.9,3.9,0,0,1,0,34.344a1.885,1.885,0,0,1,.731-1.5,2.562,2.562,0,0,1,1.55-.45,4.053,4.053,0,0,1,2.173.639A11.287,11.287,0,0,1,6.817,35.4l.065.08c.764.94,1.6,1.873,2.565,2.851.24.244.483.482.722.71l.246.231c-.039-.092-.073-.186-.1-.279a3.884,3.884,0,0,1,.055-2.439,3.074,3.074,0,0,1,1.581-1.813A2.468,2.468,0,0,1,13,34.517a4.944,4.944,0,0,1,1.784.422l.14.057a33.68,33.68,0,0,0,3.754,1.321A46.773,46.773,0,0,0,24.341,37.5c1.907.291,3.86.507,5.749.717,1.51.167,3.071.34,4.6.55A54.621,54.621,0,0,1,40.9,39.945a19.581,19.581,0,0,1,1.9-4.824,30.111,30.111,0,0,1,2.875-4.3,38.162,38.162,0,0,1,4.021-4.318,41.69,41.69,0,0,1,4.534-3.613A48.571,48.571,0,0,1,59.184,19.9c1.65-.868,3.428-1.691,5.286-2.446a84.432,84.432,0,0,1,11.191-3.589c3.3-.832,6.919-1.592,11.4-2.392a1.475,1.475,0,0,1,.257-.023,2.9,2.9,0,0,1,1.535.615l.139.093.01.007a2.315,2.315,0,0,0,1.093.516.547.547,0,0,0,.266-.066,15.7,15.7,0,0,0,4.006-3.21,45.568,45.568,0,0,0,4.586-6.179c.561-.852,1.14-1.734,1.738-2.59A1.419,1.419,0,0,1,101.877,0a1.564,1.564,0,0,1,.764.2,1.43,1.43,0,0,1,.55.538,1.265,1.265,0,0,1-.066,1.318l-.466.77c-.869,1.429-1.916,3.1-3.083,4.688a26.626,26.626,0,0,1-3.708,4.157A16.179,16.179,0,0,1,93.546,13.4a13.587,13.587,0,0,1-2.617,1.235,11.009,11.009,0,0,1-3.379.63,5.281,5.281,0,0,1-1.535-.207l-.185-.269.185.269a66.136,66.136,0,0,0,6.694,8.134c2.164,2.267,4.6,4.573,7.664,7.256a206.792,206.792,0,0,0,16.949,12.992l.484.342A81.092,81.092,0,0,0,130.8,31.941a78.792,78.792,0,0,0,10.1-14.383,8.268,8.268,0,0,1-2.915-1.213l-.01-.006c-.146-.084-.284-.163-.421-.24a10.99,10.99,0,0,1-3.237-2.574,6.573,6.573,0,0,1-.907-1.459,8.346,8.346,0,0,1-.528-1.577,22.119,22.119,0,0,1-.426-3.354c-.046-.614-.094-1.248-.169-1.863a.146.146,0,0,1,.034-.117.2.2,0,0,1,.152-.06.216.216,0,0,1,.136.044,6.371,6.371,0,0,1,1.677,3.021c.057.168.116.341.175.509a7.455,7.455,0,0,0,2.132,3.424,15.606,15.606,0,0,0,3.5,2.122c.19.09.616.226,1.109.382h0c1.159.369,2.747.874,2.995,1.317a13.636,13.636,0,0,1,3.113-.361,15.009,15.009,0,0,1,6.156,1.371,20,20,0,0,1,5.37,3.6,35.639,35.639,0,0,1,5.107,6.009,74.734,74.734,0,0,1,4.088,6.767,107.094,107.094,0,0,1,6.739,15.2c.984,2.735,1.826,5.446,2.5,8.057a76.481,76.481,0,0,1,1.675,8.266c.618,4.287,1.065,8.951,1.366,14.26l.033.6c3.863-6.065,7.984-12.323,12.249-18.6a5.741,5.741,0,0,1-.083-3.755A8.879,8.879,0,0,1,194.468,54a11.8,11.8,0,0,1,2.938-2.284A35.758,35.758,0,0,1,200.77,50.1c.327-.144.665-.292,1-.441l.342-.155a17.245,17.245,0,0,0,3.591-2.062,12.827,12.827,0,0,0,1.306-1.256,10.637,10.637,0,0,1,1.6-1.477,3.746,3.746,0,0,1,2.1-.637,2.748,2.748,0,0,1,1.691.521,1.946,1.946,0,0,1,.553.681,2.4,2.4,0,0,1,.229.988,6.53,6.53,0,0,1-.318,2.048,17.49,17.49,0,0,1-.74,1.946,14.332,14.332,0,0,1-1.039,1.941,16.648,16.648,0,0,1-1.307,1.771.67.67,0,0,1-.141.127l-.037.023a33.5,33.5,0,0,0,3.989.454c.514.024,1.035.036,1.546.036a31.358,31.358,0,0,0,6.6-.686,29.357,29.357,0,0,0,7.83-2.874c.493-.267.985-.557,1.461-.838.773-.456,1.573-.927,2.389-1.307a9.237,9.237,0,0,1,2.575-.81c.208-.032.427-.054.67-.068h.026a.648.648,0,0,1,.51.3.542.542,0,0,1,.075.508c-.087.22-.174.422-.264.62a14.622,14.622,0,0,1-1.55,2.636,13.475,13.475,0,0,1-2.114,2.277l-.122.1c.565-.2,1.118-.414,1.642-.651,1.143-.515,2.266-1.135,3.353-1.735a26.308,26.308,0,0,1,6.082-2.714c.143-.038.3-.075.486-.116a1.256,1.256,0,0,1,.264-.029.95.95,0,0,1,.876.541,1.119,1.119,0,0,1-.153,1.185c-.115.147-.211.267-.3.376a38.715,38.715,0,0,1-5.028,5.195c-.632.537-1.287,1.06-1.946,1.554,1.977-.6,4.041-1.34,6.133-2.2a.955.955,0,0,1,.364-.075,1.023,1.023,0,0,1,.772.4,1.647,1.647,0,0,1,.364.819,2.85,2.85,0,0,1-.238,1.533,4.752,4.752,0,0,1-.916,1.316,14.917,14.917,0,0,1-2.568,2.007l-.068.045a23.839,23.839,0,0,1-5.2,2.545A53.239,53.239,0,0,1,226.319,66.8l-1.777.248c-1.7.237-3.5.5-5.294.838a40.968,40.968,0,0,0-5.166,1.3,23.926,23.926,0,0,0-4.793,2.138,19.161,19.161,0,0,0-2.181,1.5,18.1,18.1,0,0,0-2,1.86,28.591,28.591,0,0,0-3.651,5.06c-1.072,1.842-2,3.767-2.843,5.572-1.519,3.255-2.982,6.79-4.743,11.462-1.058,2.8-2.036,5.69-2.982,8.481-.4,1.194-.823,2.429-1.243,3.642-1.289,3.726-2.839,7.426-4.338,11l-.24.573a102.491,102.491,0,0,1-5.421,11.182c-1.044,1.835-2.144,3.6-3.272,5.251-1.19,1.74-2.454,3.414-3.757,4.977a.9.9,0,0,1-.7.363.921.921,0,0,1-.535-.183,1.237,1.237,0,0,1-.387-.463,1.184,1.184,0,0,1-.122-.6,1.117,1.117,0,0,1,.241-.62,65.11,65.11,0,0,0,3.909-5.658c1.152-1.865,2.284-3.891,3.364-6.022,1-1.966,1.95-4.014,2.916-6.263.849-1.977,1.688-4.064,2.563-6.379.833-2.2,1.6-4.472,2.346-6.667v0c.566-1.672,1.152-3.4,1.762-5.087l.84-2.318c1.066-2.938,2.22-6.091,3.432-9.241a122.611,122.611,0,0,1,5.013-11.417l.2-.39a46.812,46.812,0,0,1,3.077-5.23,25.786,25.786,0,0,1,3.953-4.577,20.519,20.519,0,0,1,2.109-1.661,22.162,22.162,0,0,1,2.253-1.354,27.65,27.65,0,0,1,4.844-1.95,65.634,65.634,0,0,1,10.37-2l2.19-.289a65.759,65.759,0,0,0,8.759-1.611,23.456,23.456,0,0,0,4.783-1.83,19.577,19.577,0,0,0,1.764-1.046,48.635,48.635,0,0,1-4.956,1.175c-.806.147-1.629.262-2.447.34-1.118.111-2.271.165-3.525.165-.863,0-1.771-.026-2.777-.078a.184.184,0,0,1-.167-.177.14.14,0,0,1,.12-.155c1.332-.237,2.752-.541,4.469-.956l.446-.109a1.281,1.281,0,0,1,.309-.759,6.334,6.334,0,0,1,2.029-1.391,12.423,12.423,0,0,0,1.089-.607,34.4,34.4,0,0,0,2.951-2.154c.84-.685,1.676-1.434,2.487-2.225l.022-.022-.011.011-.011.011c-.78.36-1.558.764-2.311,1.155a32.163,32.163,0,0,1-4.125,1.9,22.024,22.024,0,0,1-5.546,1.2l-.117.009-.117.008c-.575.041-1.158.066-1.722.09a24.2,24.2,0,0,0-4.174.421.216.216,0,0,1-.047.005.153.153,0,0,1-.155-.128.179.179,0,0,1,.111-.2,22.109,22.109,0,0,1,4.672-1.2l.014,0,.558-.1a.537.537,0,0,1,.3-.345l.456-.218a14.186,14.186,0,0,0,3.754-2.371,11.905,11.905,0,0,0,2.451-3.244,15.317,15.317,0,0,0-4.488,2.116,26.571,26.571,0,0,1-2.467,1.386,30.946,30.946,0,0,1-7.775,2.467l-.306.053a33.292,33.292,0,0,1-5.458.466,24.918,24.918,0,0,1-5.277-.532,16.634,16.634,0,0,1-4.825-1.815.124.124,0,0,1-.064-.144.155.155,0,0,1,.148-.112l.024,0c.758.124,1.524.264,2.265.4h.01c.5.092,1.019.186,1.528.275a.745.745,0,0,1-.236-.441.638.638,0,0,1,.164-.516,13.582,13.582,0,0,0,2.606-4.415l.11-.318.036-.1,0-.005a8.006,8.006,0,0,0,.371-1.29,1.642,1.642,0,0,0-.154-1.21,1.27,1.27,0,0,0-1.1-.493,2.467,2.467,0,0,0-.974.208,6.713,6.713,0,0,0-2.031,1.718,11.071,11.071,0,0,1-1.164,1.158,18.378,18.378,0,0,1-3.864,2.276l-.288.131c-.372.168-.755.334-1.126.495a17.182,17.182,0,0,0-5.6,3.331,9.234,9.234,0,0,0-1.337,1.685,6.238,6.238,0,0,0-.8,1.988,4.217,4.217,0,0,0,.042,1.953,3.455,3.455,0,0,0,.148.409,1.2,1.2,0,0,1,.112.91,5.436,5.436,0,0,1-.908,1.413c-.173.22-.337.428-.464.616-.457.678-.919,1.367-1.365,2.033-.765,1.146-1.54,2.314-2.29,3.443l-.014.021-.407.613c-1.729,2.609-3.483,5.291-5.36,8.2-.577.894-1.156,1.8-1.723,2.683l-.857,1.343-.369.576-.084.132-.067.106-.35.551-.355.558a.6.6,0,0,1-.011.334,1.524,1.524,0,0,1-.685.818l-.055.032c-2.78,4.4-5.577,8.881-8.283,13.218l-.021.034c-1.677,2.688-3.41,5.468-5.122,8.2-.267,2.442-.482,4.583-.657,6.547-.474,5.3-.749,10.163-.841,14.856-.034,1.753.061,3.541.153,5.27v.008c.034.636.069,1.293.1,1.938.052,1.162.122,2.316.211,3.431l.067.81a7.42,7.42,0,0,1-.26,3.28,1.363,1.363,0,0,1-.48.636A1.178,1.178,0,0,1,162.651,143.393ZM37.464,60.64a5.064,5.064,0,0,1,2.31.628A4.657,4.657,0,0,1,41.35,62.7a1.442,1.442,0,0,1,.452.814,5.425,5.425,0,0,1,.4,1.469.867.867,0,0,1-.182.7,37.971,37.971,0,0,1-.77,9.892,87.834,87.834,0,0,1-2.609,9.645l-.2.622-.129.394c-.4,1.234-.821,2.483-1.225,3.691v0c-.9,2.68-1.827,5.452-2.627,8.209a69.646,69.646,0,0,0-1.94,8.389,51.729,51.729,0,0,0-.176,14.152l.039.323a39.773,39.773,0,0,0,1.342,6.795,22.353,22.353,0,0,0,1.25,3.246,15.771,15.771,0,0,0,1.8,2.9,8.146,8.146,0,0,0,2.375,2.066,12.129,12.129,0,0,0,2.929,1.142l.119.032c.547.144,1.11.308,1.654.467h0a26.049,26.049,0,0,0,4.363,1.006,6.207,6.207,0,0,0,.67.036,11.06,11.06,0,0,0,4.072-1.027l.407-.159,0,0a17.012,17.012,0,0,0,4.077-5.638,37.585,37.585,0,0,0,2.3-6.749,70.758,70.758,0,0,0,1.7-9.074,84.054,84.054,0,0,0,.6-9.176A118.467,118.467,0,0,0,60.7,88.486c-.908-6.3-2.158-12.642-3.367-18.778l-.038-.194c-.185-.94-.378-1.895-.564-2.818v0h0c-.438-2.172-.891-4.417-1.281-6.634l-.33-1.861c-.163-.924-.351-2.017-.509-3.108-.194-1.334-.257-2.623-.324-3.987l-.009-.189a19.9,19.9,0,0,0-7.056-6.833,26.126,26.126,0,0,0-6.478-2.631A70.843,70.843,0,0,0,29.631,39.7c-2.909-.3-5.917-.61-8.767-1.2a39.114,39.114,0,0,1-6.29-1.9l-.281-.109a3.573,3.573,0,0,0-1.215-.293,1.189,1.189,0,0,0-1.161.834,2.064,2.064,0,0,0-.13,1.189,2.625,2.625,0,0,0,.5,1.094,6.446,6.446,0,0,0,2.485,1.854,23.63,23.63,0,0,0,2.965,1.09l.1.032a27.536,27.536,0,0,0,3.412.846c.349.063.7.113,1.046.161a11.352,11.352,0,0,1,2.372.509.558.558,0,0,1,.352.549.431.431,0,0,1-.352.406,5.89,5.89,0,0,1-1.355.148,14.863,14.863,0,0,1-2.818-.367l-.035-.007a29.412,29.412,0,0,1-4.506-1.274c-.317-.117-.583-.218-.835-.317l-.215-.085c.2.148.423.3.668.478a.076.076,0,0,1,.025.085.06.06,0,0,1-.057.046.072.072,0,0,1-.024,0,21.207,21.207,0,0,1-4.889-2.63A24.645,24.645,0,0,1,6.5,37.109l-.121-.138c-.131-.15-.284-.343-.462-.566A15.739,15.739,0,0,0,4.37,34.659a2.887,2.887,0,0,0-1.84-.953,1.328,1.328,0,0,0-.6.144.8.8,0,0,0-.453.565,1.736,1.736,0,0,0,.139.948,6.3,6.3,0,0,0,.594,1.118,22.807,22.807,0,0,0,1.585,2.083l.222.27.116.143a4.086,4.086,0,0,1,1.6.424,13.852,13.852,0,0,1,1.457.822l.1.061a47.967,47.967,0,0,0,4.973,2.644c1.559.733,3.189,1.377,4.766,2,1.846.729,3.755,1.484,5.561,2.385a.034.034,0,0,1,.02.04.048.048,0,0,1-.045.035h-.006a41.427,41.427,0,0,1-6.3-1.558l-.092-.029-.092-.031c-1.21-.4-2.455-.859-3.805-1.41a39.745,39.745,0,0,1-4.06-1.923c-.353-.193-.711-.427-1.09-.675a7.142,7.142,0,0,0-2.806-1.322,1.991,1.991,0,0,0-.252-.017c-.049,0-.1,0-.141.006a.753.753,0,0,0-.654.38c-.444.84.608,2.787.823,3.169a18.993,18.993,0,0,0,2.6,3.572,25.308,25.308,0,0,0,7.168,5.326c.849.434,1.761.843,2.789,1.251-.159-.14-.316-.287-.435-.4a15.962,15.962,0,0,1-1.586-1.735,13.907,13.907,0,0,1-1.293-1.962l-.2-.372a6.3,6.3,0,0,1-.723-1.965,1.875,1.875,0,0,1,.1-.952,1.608,1.608,0,0,1,.7-.767,2.553,2.553,0,0,1,1.324-.341,4.861,4.861,0,0,1,1.494.269c.051.016.1.034.153.051l.031.011c.357.125.748.287,1.194.495A23.91,23.91,0,0,1,20.664,48.4c.383.256.778.521,1.173.773a14.951,14.951,0,0,0,2.39,1.252A14.382,14.382,0,0,0,26.8,51.2l.172.035c.175.035.352.068.523.1,1.556.294,3.164.6,4.237,1.863a.575.575,0,0,1,.069.6.436.436,0,0,1-.4.27.518.518,0,0,1-.166-.029c-1.157-.39-2.355-.678-3.514-.957-1.069-.257-2.174-.523-3.233-.866a14.64,14.64,0,0,1-3.075-1.364c-.529-.319-1.054-.663-1.562-1h0c-.7-.457-1.419-.93-2.161-1.345a10.733,10.733,0,0,0-2.131-.942l-.409-.121a2.01,2.01,0,0,0-.529-.1.564.564,0,0,0-.189.028.363.363,0,0,0-.227.16c-.049.1,0,.233.055.4v0c.011.032.023.066.034.1l.011.035c1.008,3.12,4.05,5.461,5.774,6.579.517.337,1.073.663,1.652.97a31.412,31.412,0,0,0,5.114,2.115c1.76.571,3.592,1.05,5.363,1.513l.009,0c.575.15,1.171.306,1.754.462.024.007,2.431.679,3.218.929C37.281,60.644,37.372,60.64,37.464,60.64Zm139.21,24.866c-.043.01-.085.022-.125.033h0l-.009,0c-.846.237-1.711.452-2.548.66-.325.081-.693.172-1.048.262a32.961,32.961,0,0,0-6.032,2.012c-.351,4.432-.857,8.924-1.347,13.27h0c-.07.619-.149,1.32-.225,2l-.114,1.018c.966-1.792,1.851-3.371,2.706-4.825C170.746,95.153,173.687,90.3,176.674,85.506Zm-143.259.505a8.761,8.761,0,0,1-.119,1.3c-.025.179-.049.347-.069.515-.052.449-.1.907-.147,1.35v.005c-.051.489-.1.994-.163,1.49-.247,2.061-.432,3.931-.564,5.717-.093,1.247-.152,2.5-.2,3.667,1.007-3.764,2.308-7.516,3.566-11.146l.005-.015c.237-.684.482-1.391.722-2.087a5.19,5.19,0,0,1-.776-.159l-.448-.121-.09-.023h0C34.8,86.426,34.034,86.23,33.415,86.011ZM237.6,58.721l-.1.068Zm.626-.454-.178.131Zm-58.68,24.992h0l.016-.026.017-.026.35-.551.116-.182.036-.056.369-.576.009.2a1.2,1.2,0,0,1-.25.837,1.131,1.131,0,0,1-.662.38ZM49.113,51.172a4.044,4.044,0,0,1-1.85-.757,7.039,7.039,0,0,0-.986-.528,13.793,13.793,0,0,0-7.551-.731,13.446,13.446,0,0,0-2.423.683.109.109,0,0,1-.04.008.116.116,0,0,1-.105-.094.112.112,0,0,1,.052-.13,13.218,13.218,0,0,1,2.953-1.178,12.339,12.339,0,0,1,3.135-.408c.358,0,.721.016,1.078.048a13.183,13.183,0,0,1,3.676.845l.114.045.19.072a8.255,8.255,0,0,1,1.343.607,1.87,1.87,0,0,1,.9,1.011.355.355,0,0,1-.045.311.455.455,0,0,1-.337.192C49.182,51.17,49.148,51.172,49.113,51.172Z" transform="translate(-18.803 1.11)"/>
  </g>
  <g id="HEAD" transform="translate(78.592 38.043)">
    <path id="_Skin-2" data-name="âœ‹ Skin" d="M69.448,20.14c-1.492-5.389-1.279-5.971-3.5-11.118C58.571-5.931,9.29-.924,4.26,14c-2.729,8.1-2.088,19.5-2.8,26.524Q1.136,46.11.81,51.694.7,53.623.578,55.551.348,59.3.136,63.059c-.927,7.711,2.939,8.5,9.57,8.267a27.329,27.329,0,0,0,8.1,10.659c-.846,2.308,2.223,3.5,3.879,4.426,9.009,5.043,20.075,8.119,30.054,5.283,2.932-.833,15.04-3.719,18.763-12.652,1.828-4.387,5.545-27.1.644-47.539Z" transform="translate(12.438 11.944)" fill="#d08b5b"/>
    <path id="_Ink-2" data-name="ðŸ– Ink" d="M49.525,109.322a34.865,34.865,0,0,1-7.15-.746,23.5,23.5,0,0,1-3.928-1.2,14.837,14.837,0,0,1-3.675-2.28.9.9,0,0,1-.279-.949,1.191,1.191,0,0,1,.262-.509.864.864,0,0,1,.475-.282l.515-.106c.332-.069.675-.141,1.014-.2a.632.632,0,0,1,.115-.01.828.828,0,0,1,.626.318.611.611,0,0,1,.141.508l.987.255c.271.07.628.163.986.259l.491.135a39.77,39.77,0,0,0,4.261.956,29.774,29.774,0,0,0,4.774.377,33,33,0,0,0,4.112-.261,30.4,30.4,0,0,0,7.312-1.829,22.976,22.976,0,0,0,6.49-3.8,18.768,18.768,0,0,0,4.583-5.673,17.74,17.74,0,0,0,1.527-4.371,45.911,45.911,0,0,0,.716-4.593,103.272,103.272,0,0,0,.654-13.363c-.047-4.035-.289-8.407-.742-13.364-.425-4.65-1.018-9.314-1.543-13.262-.084-.632-.172-1.276-.257-1.9l0-.012v0c-.218-1.6-.443-3.254-.635-4.884a4.843,4.843,0,0,1-1.676-.814,1.686,1.686,0,0,1-.637-.877,2.211,2.211,0,0,1-1.365-.86l-.046-.064a8.371,8.371,0,0,0-4.044-2.695c-.788-.3-1.6-.566-2.387-.825l-.362-.119c-.264-.088-.538-.19-.8-.288a9.861,9.861,0,0,0-2.172-.625,4.878,4.878,0,0,0-.58-.032c-.384,0-.776.037-1.155.072h0c-.381.036-.775.073-1.163.073a5.037,5.037,0,0,1-.538-.027,4.353,4.353,0,0,1-2.72-1.243,4,4,0,0,1-.673-.89,14.936,14.936,0,0,1-3.141.3c-1.061,0-2.152-.076-3.207-.149h-.017c-1.063-.074-2.161-.15-3.248-.15-.437,0-.84.012-1.232.036a12.57,12.57,0,0,0-3.238.8,11.231,11.231,0,0,1-3.606.8h-.1a2.783,2.783,0,0,1-1.769-.651,45.066,45.066,0,0,0-5.913,1.713l-.008,0-.843.285c-1.228.413-2.45.917-3.631,1.4-.862.355-1.753.723-2.639,1.052,0,0,0,0,0,0a1.606,1.606,0,0,1-.611.861,1.7,1.7,0,0,1-.977.291,2.125,2.125,0,0,1-.374-.034,18.074,18.074,0,0,1-4.3-1.546A20.4,20.4,0,0,0,8.46,32.913c-.146.532-.3,1.07-.44,1.591-.614,2.208-1.25,4.49-1.7,6.792a84,84,0,0,0-1.229,8.686c-.258,2.836-.392,5.8-.4,8.809,0,1.287.025,2.673.087,4.493.009.263.026.536.044.825A8.154,8.154,0,0,1,4.6,67.328l-.04.1h0a.293.293,0,0,1-.269.2.221.221,0,0,1-.172-.081,7.17,7.17,0,0,1-1.21-3.383c-.027-.147-.052-.285-.078-.424-.249-1.312-.44-2.718-.618-4.561-.147-1.522-.238-3.068-.272-4.6s-.011-3.068.067-4.6A75.672,75.672,0,0,1,3.02,40.761a53.957,53.957,0,0,1,2.335-8.972l-.057,0c-.183,0-.446-.089-.662-.514a2.587,2.587,0,0,1-.245-.9,13.772,13.772,0,0,1,.266-3.267L4.847,26a18.785,18.785,0,0,1,.723-3.079,26.051,26.051,0,0,1,3.6-6.812,26.73,26.73,0,0,1,5.5-5.554A27.568,27.568,0,0,1,21.516,6.8a1.335,1.335,0,0,1,.472-.09,1.177,1.177,0,0,1,.384.064,66.291,66.291,0,0,1,14.161-5.6C37.882.81,39.481.4,41.111.107A6.5,6.5,0,0,1,42.236,0a2.8,2.8,0,0,1,2.625,1.327,2.707,2.707,0,0,1,.335.888,30.954,30.954,0,0,1,6.794-.742,34.065,34.065,0,0,1,4.856.354,1.409,1.409,0,0,1,1.071.83A1.974,1.974,0,0,1,57.9,4.427c-.049.085-.1.177-.162.266a20.338,20.338,0,0,1,3.641.636,2.015,2.015,0,0,1,1.2,1.048,1.46,1.46,0,0,1,.078,1.211c-.032.076-.066.153-.1.228h0l-.005.012a12.3,12.3,0,0,1,2.762.8A11.79,11.79,0,0,1,67.843,10.1a2.335,2.335,0,0,1,.51.535,17.023,17.023,0,0,1,1.9-.107A17.787,17.787,0,0,1,78.7,12.68a2,2,0,0,1,.935,1.3A1.775,1.775,0,0,1,79.41,15.4c-.193.276-.388.528-.595.771A7.463,7.463,0,0,1,80.729,17.2a5.955,5.955,0,0,1,1.5,1.65,6.351,6.351,0,0,1,.858,2.412,5.96,5.96,0,0,1-.17,2.521,4.538,4.538,0,0,1,1.166,4.153,4.1,4.1,0,0,1-2.321,2.885,2.05,2.05,0,0,1-.472,2.029,7.978,7.978,0,0,1-2.775,1.877,1.773,1.773,0,0,1-.2.8,5.719,5.719,0,0,1-2.075,2.185,6.635,6.635,0,0,1-2.908.976c.7,2.926,1.271,5.92,1.8,8.735.5,2.64.93,5.266,1.287,7.8.374,2.656.677,5.3.9,7.858l.056.65a130.8,130.8,0,0,1,.517,13.527c-.046,2.352-.178,4.632-.393,6.775a65.982,65.982,0,0,1-1,6.662,20.032,20.032,0,0,1-1.281,4.012,21.1,21.1,0,0,1-2.047,3.623,22.725,22.725,0,0,1-2.7,3.174,24.338,24.338,0,0,1-3.248,2.665,28.245,28.245,0,0,1-7.73,3.675,34.085,34.085,0,0,1-8.446,1.435C50.535,109.311,50.028,109.322,49.525,109.322Zm-25.378-7.737a4.308,4.308,0,0,1-2.081-.685,16.948,16.948,0,0,1-1.819-1.257l-.172-.131a24.7,24.7,0,0,1-4.09-3.766A20.449,20.449,0,0,1,12.921,91a11.464,11.464,0,0,1-.911-3,8.16,8.16,0,0,1-3.232.65,8.683,8.683,0,0,1-4.861-1.459,8.313,8.313,0,0,1-3.1-4.173A15.6,15.6,0,0,1,0,77.787V77.58a18.279,18.279,0,0,1,.2-2.618,13.545,13.545,0,0,1,.648-2.6,7.848,7.848,0,0,1,3.128-4.113,6.163,6.163,0,0,1,1.639-.694,7.493,7.493,0,0,1,1.939-.264,5.111,5.111,0,0,1,2.255.473,3.062,3.062,0,0,1,1.519,1.595.116.116,0,0,1-.011.112.171.171,0,0,1-.138.074.128.128,0,0,1-.033,0l-.277-.07a6.846,6.846,0,0,0-1.662-.255,3.727,3.727,0,0,0-1.413.277,6,6,0,0,0-2.526,1.815,6.66,6.66,0,0,0-.89,1.586,8.885,8.885,0,0,0-.486,1.756,15.884,15.884,0,0,0-.146,3.655l.007.115a10.576,10.576,0,0,0,.635,3.224,5.308,5.308,0,0,0,.8,1.408,3.887,3.887,0,0,0,1.262,1.026,5.771,5.771,0,0,0,2.66.48l.434,0h.279a12.046,12.046,0,0,1,3.689.525,1.075,1.075,0,0,1,.7.778.9.9,0,0,1-.266.877,5.852,5.852,0,0,1-.59.488c.742.793,1.3,1.419,1.813,2.031,1,1.2,2.065,2.355,3.164,3.44a28.642,28.642,0,0,0,3.428,2.95c.471.336.984.64,1.481.935A11.958,11.958,0,0,1,25.7,98.332a1.648,1.648,0,0,1,.5,1.243,2.134,2.134,0,0,1-.5,1.249A1.93,1.93,0,0,1,24.147,101.585Zm-10.167-22.8a3.023,3.023,0,0,1-1.757-.6,6.889,6.889,0,0,1-1.018-.987,7.125,7.125,0,0,0-.968-.949,4.152,4.152,0,0,0-2.5-.777,4.763,4.763,0,0,0-2.515.7.088.088,0,0,1-.127-.03.109.109,0,0,1-.008-.105A5.185,5.185,0,0,1,5.9,74.819a4.917,4.917,0,0,1,1.085-.9,5.285,5.285,0,0,1,2.756-.749h.114a6.31,6.31,0,0,1,3.095.994l.1.059c.22.131.459.255.712.385h0a9.337,9.337,0,0,1,1.185.686,2.58,2.58,0,0,1,.864.97,1.593,1.593,0,0,1-.24,1.866A2.185,2.185,0,0,1,13.981,78.789Z" transform="translate(9.276 -3.17)"/>
  </g>
  <g id="FACE" transform="translate(112.183 77.354)">
    <path id="_Ink-3" data-name="ðŸ– Ink" d="M29.547,34.493c-.866,0-1.621-.03-2.309-.091-.88-.078-1.784-.2-2.686-.375l-.524-.1a1.723,1.723,0,0,1-1.339-.768.341.341,0,0,1-.011-.314c.125-.276.6-.56,1.421-.843.672-.232,1.424-.412,1.829-.508.139-.033.239-.057.292-.072.961-.275,1.954-.5,2.915-.717l.284-.064.146-.034.319-.077a6.969,6.969,0,0,1,1.634-.269,2.491,2.491,0,0,1,1.425.419,1.917,1.917,0,0,1,.875,1.337,1.964,1.964,0,0,1-.5,1.557,3.419,3.419,0,0,1-2.881.914h0l-.212,0h-.073C29.939,34.492,29.737,34.493,29.547,34.493Zm-2.863-13.17a12.031,12.031,0,0,1-4.024-.686,1.746,1.746,0,0,1-.89-.746,1.229,1.229,0,0,1-.1-1.05c.038-.106.086-.213.132-.313a1.278,1.278,0,0,1,.692-.62,1.593,1.593,0,0,1,.594-.118,1.238,1.238,0,0,1,.371.054l.119.038.03.01a14.07,14.07,0,0,0,3.975.814c.135,0,.267,0,.392-.014a3.128,3.128,0,0,0,1.23-.319,1.976,1.976,0,0,0,.863-.885,1.362,1.362,0,0,0-.035-1.253,4.391,4.391,0,0,0-1.348-1.459,6.225,6.225,0,0,0-2.138-.9l-.029-.008c-.281-.078-.571-.159-.863-.256a.512.512,0,0,1-.243-.174.579.579,0,0,1-.116-.275.478.478,0,0,1,.05-.289.448.448,0,0,1,.217-.2,3.75,3.75,0,0,1,1.545-.314,5.778,5.778,0,0,1,3.281,1.13,5.389,5.389,0,0,1,1.691,1.935,3.891,3.891,0,0,1,.357,1.083,3.4,3.4,0,0,1,0,1.145A3.908,3.908,0,0,1,31.4,19.739a4.89,4.89,0,0,1-2.169,1.247A8.97,8.97,0,0,1,26.684,21.323ZM10.865,12.029a3.5,3.5,0,0,1-.744-.079,4.49,4.49,0,0,1-2.114-1.14A5.088,5.088,0,0,1,6.7,8.785L6.671,8.7a6.37,6.37,0,0,1-.291-2.031,2.842,2.842,0,0,1,.2-1.03,1.23,1.23,0,0,1,.626-.665.287.287,0,0,1,.116-.025c.346,0,.622.651.724.932l.176.484A5.508,5.508,0,0,0,9.453,8.522a2,2,0,0,0,1.24.6.934.934,0,0,0,.667-.275,1.407,1.407,0,0,0,.358-1.224,3.563,3.563,0,0,1,.01-.581A2,2,0,0,1,12.336,5.9a1.706,1.706,0,0,1,1.147-.522,1.259,1.259,0,0,1,1,.529,3.167,3.167,0,0,1,.7,1.778,3.553,3.553,0,0,1-.372,1.768,4.759,4.759,0,0,1-1.619,1.834A4.193,4.193,0,0,1,10.865,12.029Zm24.309-.4a3.46,3.46,0,0,1-1.493-.325,3.619,3.619,0,0,1-1.144-.868,5.591,5.591,0,0,1-1.181-2.306,7.334,7.334,0,0,1-.2-2.6.421.421,0,0,1,.411-.4.444.444,0,0,1,.406.293l.038.1c.088.225.176.485.269.76a9.566,9.566,0,0,0,.907,2.113,2.01,2.01,0,0,0,1.723,1.075h0a.92.92,0,0,0,.815-.413A1.862,1.862,0,0,0,35.966,8a3.069,3.069,0,0,0-.215-1.062L35.735,6.9a1.686,1.686,0,0,1,.057-1.639,1.9,1.9,0,0,1,1.57-.811,1.467,1.467,0,0,1,.9.281,1.335,1.335,0,0,1,.5.893l.02.145a8.152,8.152,0,0,1-.048,2.463,4.812,4.812,0,0,1-.931,2.2,3.156,3.156,0,0,1-2.289,1.176C35.4,11.624,35.285,11.629,35.175,11.629ZM12.263,3.35C8.757,3.35,4.6,3.3.342,2.943A.349.349,0,0,1,0,2.569a.339.339,0,0,1,.328-.347H.353C5.85,1.44,11.493,1.145,16.95.86h.014L19.028.75c4.963-.267,10.015-.438,14.9-.6,1.378-.047,2.8-.1,4.2-.145H38.2A1.283,1.283,0,0,1,39.2.435a1.509,1.509,0,0,1,.344.969A1.6,1.6,0,0,1,39.2,2.439a1.377,1.377,0,0,1-1.067.495c-1.451.034-2.927.071-4.355.108h-.005c-4.764.121-9.691.245-14.535.271l-1.145.007-1.18.008C15.389,3.339,13.813,3.35,12.263,3.35Z" transform="translate(9.085 17.119)"/>
  </g>
  <g id="ACCESORIES" transform="translate(88.521 88.978)">
    <path id="_Ink-4" data-name="ðŸ– Ink" d="M64.52.082a1.61,1.61,0,0,1,1.961,1.959c-.277,1.3-1.637,2.351-2.539,3.27-.946.968-1.912,1.917-2.913,2.83a72.089,72.089,0,0,1-5.983,4.922l-.639.468c-1.915,1.4-3.825,2.771-5.877,3.985q-1.667.983-3.37,1.9c-.405.218-.9.554-1.409.8a9.514,9.514,0,0,1,3.6,5.675c.769,5.077-2.5,9.781-7.116,11.652a15.06,15.06,0,0,1-7.32.921c-2.5-.286-5.037-1.025-6.661-3.075a10.98,10.98,0,0,1-2.066-6.423,11.407,11.407,0,0,1,.19-3.1c-1,.008-1.99,0-2.977.015-2.438.023-4.88.034-7.32-.034-2.516-.072-5.02-.184-7.527-.408-1.1-.1-2.2-.262-3.29-.419a12.362,12.362,0,0,1-3.228-.643c-.068-.027-.04-.125.019-.144a13.768,13.768,0,0,1,3.363-.349L4.5,23.819c.9-.053,1.79-.1,2.688-.132,2.074-.068,4.147-.085,6.22-.121l.889-.017c2.44-.049,4.88-.076,7.32-.154,1.012-.032,2.026-.091,3.042-.146a4.556,4.556,0,0,1,.458-.752A10.744,10.744,0,0,1,26.9,20.583a13.617,13.617,0,0,1,4.551-2.633,19.085,19.085,0,0,1,5.9-.828c1.772.037,4.3.287,5.109,1.736a3.783,3.783,0,0,0,2.087-.491q1.607-1.227,3.156-2.521c1.919-1.6,3.892-3.183,5.709-4.9,1.874-1.771,3.733-3.572,5.516-5.432.9-.932,1.789-1.866,2.658-2.822C62.473,1.72,63.236.519,64.52.082Z" transform="translate(6.338 -12.681)"/>
  </g>
</svg>
