<svg id="peep-87" xmlns="http://www.w3.org/2000/svg" width="240" height="324" viewBox="0 0 240 324">
  <g id="BODY" transform="translate(31.056 135.053)">
    <path id="_Skin" data-name="âœ‹ Skin" d="M157.3,142.745c-.513-4.762-.828-9.557-1.01-14.343s.056-9.619.16-14.4c.212-9.728.556-19.48-.218-29.193a130.27,130.27,0,0,0-5.062-27.116A69.133,69.133,0,0,0,146.4,44.958c-2.135-3.991-5.516-6.648-9.231-9.085-3.955-2.595-7.878-5.239-11.817-7.857-3.307-2.2-9.258-4.757-11.971-7.7-2.855-3.092-3.391-10.757-5.293-14.42C106.236,2.331,100.995,0,96.959,0c-6.68,0-11.741-.341-17.233,5.84-2.74,3.084-.56,6.2-3.432,9.162-2.641,2.722-9.395,5.519-12.8,7.1-4.077,1.891-8.256,3.561-12.5,5.049-4.325,1.517-8.76,2.648-13.109,4.081-4.169,1.373-9.613,7.031-12.85,10.025C22.031,44.041,21.284,43.729,19,47.11,13.976,54.531,8.95,62.037,4.952,70.071c-1.991,4-3.92,8.212-4.642,12.657C-.461,87.469.3,92.05,1.553,96.64c1.272,4.671,5.312,9.118,6.629,13.778.607,2.147-1.475,4.49-.518,6.514a14.9,14.9,0,0,0,1.766,2.791c.528.678,2.589.528,2.856,1.358s-1.221,2.579-1.244,3.447c-.031,1.242-.081,2.484-.122,3.726l-.241,7.343L10.2,150.074a16.48,16.48,0,0,0,.25,4.609,3.342,3.342,0,0,1-.384-.418c-.346-.452-1.081-.069-.787.46a4.9,4.9,0,0,0,2.025,1.951c.963,1.42,146.827,4.593,147.545.44.4-2.33-.33-4.825-.623-7.14C157.926,147.564,157.563,145.163,157.3,142.745Z" transform="translate(4.437 -6.341)" fill="#d08b5b"/>
    <path id="_Top" data-name="ðŸ‘• Top" d="M0,0,150.654,8.24q.162,1.565.287,3.134c.774,9.713.43,19.465.218,29.193-.028,1.29-.066,2.583-.1,3.879L136.194,46.9,30.542,49.441,4.136,46.288l-1.1-1.9-.759-3.309c.326-1.358.983-2.764.607-4.1-.11-.388-.238-.774-.382-1.16l.136-2.655Z" transform="translate(9.731 67.093)" fill="#fdea6b"/>
    <path id="_Ink" data-name="ðŸ– Ink" d="M162.183,155.6a1.57,1.57,0,0,1-1.11-.432,4.294,4.294,0,0,1-1.026-2.635v0c-.02-.135-.041-.274-.064-.412-.157-.974-.308-1.942-.45-2.877-.32-2.092-.62-4.169-.892-6.176-.529-3.9-.985-7.949-1.356-12.032a13.326,13.326,0,0,0-.416-2.734,10.338,10.338,0,0,1-.273-2.934c-.064-2.511-.07-4.43-.021-6.224.01-.358.014-.728.018-1.086.008-.709.016-1.443.069-2.162-.613.084-1.237.157-1.84.228-.46.054-.937.11-1.409.171-.444.058-.9.138-1.376.222a16.947,16.947,0,0,1-2.853.338c-.177,0-.349-.006-.512-.019.177,1.89.372,2.147.578,2.418s.423.558.664,2.38c.568,4.263,1.236,8.791,2.165,14.682.354,2.244.763,4.519,1.159,6.719v.006c.391,2.171.794,4.415,1.145,6.628v0a3.4,3.4,0,0,1,.335,1.19,3.212,3.212,0,0,1-.123,1.234,1.941,1.941,0,0,1-.8,1.064,2.242,2.242,0,0,1-1.228.367,2.12,2.12,0,0,1-.491-.057,1.151,1.151,0,0,1-.084.787,1,1,0,0,1-.643.524l-.389.108a10.042,10.042,0,0,1-2.751.5h-.095c-.706-.011-1.426-.042-2.121-.071h-.02l-.808-.034c-2-.077-4.041-.082-6.012-.088h-.307l-6.109-.018h-.035l-6.076-.018-21.318-.06-.942,0L82.6,155.027l-1.993-.006c-6.523-.019-13.268-.038-19.915-.073-3.774-.019-7.467-.042-11.165-.114-2.572-.049-5.088-.116-7.58-.4-.294.1-.565.188-.828.271a2.411,2.411,0,0,1-.726.116,2.109,2.109,0,0,1-.925-.212,2.434,2.434,0,0,1-.743-.565,3.174,3.174,0,0,1-.779-1.758A13.915,13.915,0,0,1,38.2,147c.1-.4.222-.786.351-1.152a4.52,4.52,0,0,1-.076-.569c-.029-.429-.038-.87-.047-1.3v0c0-.191-.008-.389-.014-.583-.028-.929-.051-1.873-.073-2.785-.011-.455-.022-.926-.035-1.393-.066-2.657-.1-5.33-.106-7.944-.006-3.7.051-7.4.169-11.011-.3.011-.6.016-.932.016-.877,0-1.766-.039-2.625-.076h0c-.347-.015-.706-.031-1.055-.043-2.039-.074-4.114-.205-6.167-.391a110.666,110.666,0,0,1-12.158-1.8l-.236-.048h0c-.443-.09-.9-.184-1.35-.29.048.676.039,1.364.03,2.03v0c0,.2-.006.408-.007.608q0,.424,0,.848v0c-.006,1.228-.012,2.5-.036,3.747-.038,1.868-.088,3.763-.137,5.6v.008c-.028,1.041-.056,2.117-.082,3.176-.029,1.175-.061,2.365-.093,3.515v0c-.049,1.794-.1,3.65-.138,5.475-.031,1.448-.057,2.927-.076,4.4,0,.308,0,.626.007.933a7.634,7.634,0,0,1-.548,3.725,1.54,1.54,0,0,1-.655.644,1.938,1.938,0,0,1-.9.219,1.811,1.811,0,0,1-.868-.213,1.446,1.446,0,0,1-.619-.65,5.117,5.117,0,0,1-.458-1.882,15.8,15.8,0,0,1,.032-1.957v0c.015-.268.031-.544.041-.815.064-1.721.125-3.227.188-4.605.157-3.479.323-6.337.524-9,.248-3.295.522-6.235.837-8.989.172-1.509.393-3.029.606-4.5.021-.142.042-.292.061-.424.077-.54.157-1.1.266-1.645a1.873,1.873,0,0,1,.125-.842,6.779,6.779,0,0,1-1.622-.919,5.7,5.7,0,0,1-1.958-3.3,8.7,8.7,0,0,1-.254-2.045,13.764,13.764,0,0,1,.14-2.059c.09-.657.183-1.3.332-1.938A1.3,1.3,0,0,1,8,106.6a5.145,5.145,0,0,1-1.551-1.489,15.492,15.492,0,0,1-1.082-1.88l0,0-.088-.17c-.605-1.173-1.178-2.422-1.751-3.817A46.051,46.051,0,0,1,1.1,91.485,47.313,47.313,0,0,1,3.978,62.257,51.455,51.455,0,0,1,8,55.02c1.357-2.063,2.915-4.186,4.9-6.683,1.771-2.223,3.681-4.412,5.675-6.506,1.948-2.045,4.037-4.062,6.209-6a.236.236,0,0,1,.157-.065.225.225,0,0,1,.2.132.233.233,0,0,1-.036.255c-.253.313-.523.651-.824,1.031.377-.078.747-.146,1.1-.2a22.118,22.118,0,0,1,4.285-5.062,31.559,31.559,0,0,1,5.421-3.836c1.267-.718,2.589-1.381,4.04-2.028,1.293-.576,2.66-1.126,4.179-1.681,2.822-1.03,5.755-1.921,8.591-2.783,3.657-1.111,7.437-2.259,11.024-3.719A44.016,44.016,0,0,0,68.8,14.987,31.651,31.651,0,0,0,74.069,11.1a24.28,24.28,0,0,0,4.012-4.652,21.123,21.123,0,0,0,1.51-2.746c.166-.368.309-.748.448-1.116h0A11.657,11.657,0,0,1,80.816.828,1.636,1.636,0,0,1,82.271,0a1.852,1.852,0,0,1,1.315.538A1.589,1.589,0,0,1,84.045,1.7a7.668,7.668,0,0,1-.268,1.833,12.061,12.061,0,0,1-.652,1.815,24.3,24.3,0,0,1-1.873,3.32,27.346,27.346,0,0,1-4.914,5.607,34.482,34.482,0,0,1-2.816,2.2c-.938.66-1.942,1.3-2.984,1.894a49.331,49.331,0,0,1-6.361,3.03,128.55,128.55,0,0,1-13.538,4.248l-.065.018-1.051.288a78.068,78.068,0,0,0-13.321,4.7,44.544,44.544,0,0,0-4.921,2.762,41.047,41.047,0,0,0-4.48,3.369c.234-.027.738-.04,1.542-.04,2.463,0,7.362.128,12.1.252h.023c4.746.124,9.653.253,12.124.253.422,0,.768,0,1.029-.011,7.3-.212,14.835-.314,23.031-.314,6.513,0,13.375.066,20.978.2,7.228.128,14.593.323,21.889.581,3.586.126,7.234.272,11.153.446,2.029.09,3.817.173,5.468.256.328.016.66.028.981.039.462.017.94.034,1.408.062a15.737,15.737,0,0,1,4.457-.614,18.817,18.817,0,0,1,1.9.1,39.517,39.517,0,0,0-4.46-3.608,69.826,69.826,0,0,0-9.8-5.3c-1.757-.832-3.574-1.692-5.318-2.617a43.547,43.547,0,0,1-5.058-3.089,26.114,26.114,0,0,1-6.832-7.122,18.664,18.664,0,0,1-2.076-4.463,15.109,15.109,0,0,1-.674-4.889.175.175,0,0,1,.181-.166.146.146,0,0,1,.149.121,17.522,17.522,0,0,0,2.03,5.218,17.985,17.985,0,0,0,3.543,4.333,45.366,45.366,0,0,0,8.03,5.829c2.387,1.337,4.88,2.561,7.292,3.745h0c.969.476,1.971.967,2.953,1.46a54.116,54.116,0,0,1,9.615,5.943,50.385,50.385,0,0,1,4.27,3.838c.235.234.483.47.745.719a21.675,21.675,0,0,1,1.724,1.767c.039.016.08.034.118.053a18.46,18.46,0,0,1,3.325,2.029,19.406,19.406,0,0,1,2.755,2.583,22.488,22.488,0,0,1,2.235,3.035,27.55,27.55,0,0,1,1.765,3.383,45.766,45.766,0,0,1,3.37,14.944c.073.985.12,1.993.14,3a73.454,73.454,0,0,1,1.079,14.341,61.862,61.862,0,0,1-.447,6.252,45.744,45.744,0,0,1-1.188,6.151,36.822,36.822,0,0,1-1.952,5.544,24.535,24.535,0,0,1-3,5.063,7.282,7.282,0,0,1,1.022,2.914l0,.009c.027.137.053.266.08.393.023.11.046.219.071.334v0a8.463,8.463,0,0,1,.248,3.628,2.769,2.769,0,0,1-.992,1.549,3.884,3.884,0,0,1-1.713.733l-.022,0c-.051.009-.1.018-.155.026.116.668.2,1.355.271,2.019v.008c.045.39.091.794.144,1.18.284,2.05.524,4.083.756,6.05a6.164,6.164,0,0,0,.725,2.837,6.186,6.186,0,0,1,.729,2.834c.438,3.642.954,7.537,1.578,11.905.285,2,.6,4.072.936,6.163.127.787.3,1.826.473,2.872.018.109.037.217.055.321v0a4.519,4.519,0,0,1-.151,2.974,1.244,1.244,0,0,1-.533.559A1.557,1.557,0,0,1,162.183,155.6ZM9.9,106.209a1.306,1.306,0,0,1-.283.268c-.024.239-.054.482-.083.717v0a15.182,15.182,0,0,0-.147,1.81,8.136,8.136,0,0,0,.67,3.66,4.084,4.084,0,0,0,1.394,1.532,7.046,7.046,0,0,0,1.963.871,23.1,23.1,0,0,0,3.268.614c.439.06.853.117,1.24.183,3.5.589,7.1,1.026,10.69,1.3,1.8.138,3.667.233,5.552.285.231.006.473.009.739.009.462,0,.934-.009,1.391-.018h.012c.455-.009.925-.018,1.388-.018.281,0,.535,0,.778.01.1-2.425.229-4.852.382-7.213a1.246,1.246,0,0,1-.5.1c-.037,0-.075,0-.113,0-4.29-.3-9.947-.746-15.67-1.551-2.786-.391-5.435-.853-7.872-1.372C13.208,107.076,11.512,106.717,9.9,106.209Zm137.922.285c.171,2.369.351,4.675.537,6.856a12.485,12.485,0,0,1,2.554-.311c.34-.018.692-.037,1.027-.066l3.566-.31c.237-.02.482-.037.7-.053h0c.391-.028.795-.057,1.188-.1.041,0,.084-.008.13-.012h0a.743.743,0,0,0,.588-.214,1.638,1.638,0,0,0,.039-.929v0c-.011-.083-.02-.155-.024-.213-.042-.549-.1-1.1-.184-1.644q-.018-.125-.036-.252l0-.021a13,13,0,0,0-.251-1.407,1.906,1.906,0,0,0-.075-.233,2.281,2.281,0,0,1-.479.05,2.82,2.82,0,0,1-1.8-.688c-.327-.017-.66-.032-.982-.046h0c-.373-.016-.759-.034-1.137-.055-.5-.028-1.013-.047-1.512-.066h0a35.93,35.93,0,0,1-3.846-.284ZM11.011,77.948a.837.837,0,0,0-.821.58A17.187,17.187,0,0,0,9.3,82.783a21.753,21.753,0,0,0,.1,4.339,29.518,29.518,0,0,0,.858,4.294,40.345,40.345,0,0,0,1.387,4.118.879.879,0,0,0,.846.566.888.888,0,0,0,.737-.352.68.68,0,0,0,.046-.664,32.981,32.981,0,0,1-2.172-7.963,20.3,20.3,0,0,1-.121-4.1,16.023,16.023,0,0,1,.832-4.039.726.726,0,0,0-.073-.678A.9.9,0,0,0,11.011,77.948Zm7.767,10.458a.865.865,0,0,0-.618.242.777.777,0,0,0-.212.574,10.4,10.4,0,0,0,.417,2.759,9.936,9.936,0,0,0,1.159,2.537.805.805,0,0,0,.693.393.947.947,0,0,0,.814-.47.735.735,0,0,0-.048-.776,8.339,8.339,0,0,1-1.345-4.443.793.793,0,0,0-.275-.612A.9.9,0,0,0,18.777,88.406Z" transform="translate(3.379 -2.132)"/>
  </g>
  <g id="HEAD" transform="translate(78.592 38.043)">
    <path id="_Skin-2" data-name="âœ‹ Skin" d="M48.4.124c11.971,0,26.963,13.689,31.351,19.515,3.689,4.9,3.167,30.129,3.167,45.1,0,3.13-1.411,9.055-1.924,12.049C79.122,87.756,70.942,96.958,54.751,96.958c-13.183,0-23.328-4.186-33.139-14.893-2.238-2.443-13.169,6.3-15.4,3.153-5.839,0-10.721-54.693.743-71.1S36.434.124,48.4.124Z" transform="translate(5.687 8.114)" fill="#d08b5b"/>
    <path id="_Ink-2" data-name="ðŸ– Ink" d="M28.439,114.067a2.425,2.425,0,0,1-1.334-.4,1.765,1.765,0,0,1-.782-1.1c-.1-.489-.218-.979-.342-1.456-.229-.894-.494-1.782-.786-2.642l-.112-.325c-.118-.339-.235-.684-.347-1.018v0c-.126-.374-.256-.761-.39-1.14l-.025-.082c-.01-.035-.021-.073-.032-.112l-.428.936-1.3,2.826a1.2,1.2,0,0,1-.461.537,1.177,1.177,0,0,1-.615.166,1.619,1.619,0,0,1-1.023-.388,1.393,1.393,0,0,1-.515-.984l0-.044c-.007-.275-.017-.5-.029-.7a22.709,22.709,0,0,0-.862-5.047l-.17.212a26.044,26.044,0,0,1-4.219,4.316,13.948,13.948,0,0,1-2.514,1.572,11.173,11.173,0,0,1-2.866.929,1.337,1.337,0,0,1-.233.02,1.554,1.554,0,0,1-1.332-.783,1.093,1.093,0,0,1,.085-1.167c.293-.432.575-.875.837-1.315-.23-.108-.448-.22-.647-.334a12.912,12.912,0,0,1-3.907-3.525,13.8,13.8,0,0,1-1.437-2.373,16.7,16.7,0,0,1-.971-2.583,24.442,24.442,0,0,1-.861-5.476A36.522,36.522,0,0,1,2.006,80.836a29.724,29.724,0,0,1,1.8-4.692c-.047-.124-.092-.251-.136-.373h0l-.011-.031A62.128,62.128,0,0,1,1.717,69.11a64.69,64.69,0,0,1-1.71-13.85,67,67,0,0,1,.984-12.5A63.5,63.5,0,0,1,4.336,30.689a64.75,64.75,0,0,1,5.875-11.6,50.455,50.455,0,0,1,8.324-9.957,33.656,33.656,0,0,1,5.38-4,35.267,35.267,0,0,1,6-2.853A37.34,37.34,0,0,1,36.337.57,39.147,39.147,0,0,1,43.005,0c.318,0,.64,0,.958.012A45.348,45.348,0,0,1,51.145.77a48.583,48.583,0,0,1,6.98,1.852A42.509,42.509,0,0,1,64.709,5.61a16.441,16.441,0,0,1,2.132,1.433l.168.131h0a14.416,14.416,0,0,1,4.883,3.187c.672-.054,1.347-.081,2.006-.081A22.025,22.025,0,0,1,80.617,11.3a22.53,22.53,0,0,1,5.6,2.674,19.325,19.325,0,0,1,4.565,4.191,17.023,17.023,0,0,1,3.067,6.267,21.587,21.587,0,0,1,.56,6.991l-.065.814a35.944,35.944,0,0,1-1.054,6.773,14.233,14.233,0,0,1-1.283,3.16A8.775,8.775,0,0,1,89.9,44.691a2.69,2.69,0,0,1-.856.469,52.149,52.149,0,0,1,3.007,6.02,45.657,45.657,0,0,1,2.154,6.369,60.7,60.7,0,0,1,1.233,6.186c.3,2.023.5,4.118.6,6.229.1,2.029.116,4.131.042,6.248-.071,2.027-.224,4.128-.456,6.244-.221,2.016-.519,4.107-.888,6.216-.349,2-.771,4.07-1.254,6.165-.884,3.827-1.978,7.779-3.347,12.081A2.173,2.173,0,0,1,89.325,108a2.239,2.239,0,0,1-1.286.44,1.576,1.576,0,0,1-1.278-.625,12.806,12.806,0,0,0-1.485-1.594,11.882,11.882,0,0,0-1.743-1.309,9.858,9.858,0,0,0-4.079-1.438,17.35,17.35,0,0,0-1.74-.077,16.009,16.009,0,0,1-1.8-.087,5.589,5.589,0,0,1-1.759-.494,4.821,4.821,0,0,1-1.777-1.494,23.137,23.137,0,0,1-4,1.119,22.78,22.78,0,0,1-4.132.381c-.3,0-.612-.006-.914-.019a24.707,24.707,0,0,1-3.81-.453,22.17,22.17,0,0,1-3.728-1.083A18.437,18.437,0,0,1,52.36,99.5a15.27,15.27,0,0,1-2.926-2.5,2.355,2.355,0,0,1-.542-.963,2.074,2.074,0,0,1-.028-.968,7.426,7.426,0,0,1,1.341-.344,34.189,34.189,0,0,0,6.923,3.155,27.819,27.819,0,0,0,3.694.913,25.562,25.562,0,0,0,3.838.375c.187,0,.372.006.551.006a16.371,16.371,0,0,0,4.115-.461,10.909,10.909,0,0,0,1.926-.69,9.77,9.77,0,0,0,1.8-1.1,11.985,11.985,0,0,0,1.463-1.345,21.58,21.58,0,0,0,3.539-2.87,24.964,24.964,0,0,0,2.939-3.554,28.22,28.22,0,0,0,2.3-4.059,30.1,30.1,0,0,0,1.631-4.387,34.252,34.252,0,0,0,1.228-8.509,68.519,68.519,0,0,0-.378-8.617l-.289-3.022c-.406-4.267-.811-8.813-.922-13.34l.033,0a.866.866,0,0,0,.811-.932.732.732,0,0,0-.746-.761l-.065,0c-.451.029-.922.044-1.441.044-.9,0-1.815-.044-2.7-.087s-1.8-.087-2.7-.087c-.563,0-1.074.017-1.559.052a14.357,14.357,0,0,0-.508-3.927.806.806,0,0,0-.349-.445,1.027,1.027,0,0,0-.545-.159.7.7,0,0,0-.732.6,25.673,25.673,0,0,0-.265,3.511c-1.565-.021-3.156-.084-4.694-.146h0c-1.886-.075-3.837-.153-5.755-.153-.748,0-1.439.011-2.114.035a6.2,6.2,0,0,1-1.114-2.458c-.089-.3-.173-.592-.266-.853-.057-.161-.109-.307-.16-.448a24.093,24.093,0,0,1-1.36,4.276l-1.027,0c-2.61.012-5.7.053-8.788.263a61.437,61.437,0,0,0-8.685,1.153,2.035,2.035,0,0,1-.695-1.318c-.226-1.722-.484-3.243-.787-4.65a37.758,37.758,0,0,0-1.26-4.539l-.149-.422-.039-.111a22.889,22.889,0,0,1-2.69,3.487c-.545.588-1.148,1.19-1.844,1.839-.3.337-.616.678-.919,1.007l0,0c-.313.341-.637.693-.952,1.043.025.129.046.258.062.382a19.017,19.017,0,0,1,.07,4.315,20.7,20.7,0,0,1-2.155,7.408l-.037.231A12.358,12.358,0,0,1,28.084,57a4.756,4.756,0,0,1-.667,1.41,7.841,7.841,0,0,1,.973,1.36,7.669,7.669,0,0,1,.666,1.564.968.968,0,0,1-.163.871,1.163,1.163,0,0,1-.91.476.894.894,0,0,1-.689-.319,8.216,8.216,0,0,0-1.858-1.586.149.149,0,0,1-.12.063.179.179,0,0,1-.088-.025,6.185,6.185,0,0,0-2.978-.654,9.09,9.09,0,0,0-4.03.912,5.468,5.468,0,0,0-1.5,1.15,5.6,5.6,0,0,0-.986,1.518,7.257,7.257,0,0,0-.525,3.668,11.759,11.759,0,0,0,1.015,3.738,7.9,7.9,0,0,0,1.012,1.628,5.408,5.408,0,0,0,1.372,1.213,3.06,3.06,0,0,0,1.643.512,3.991,3.991,0,0,0,1.064-.164,3.1,3.1,0,0,0,.9-.492l.169-.136a5.041,5.041,0,0,1,.987-.642,2.6,2.6,0,0,1,1.077-.258,1.7,1.7,0,0,1,.508-.08,1.452,1.452,0,0,1,.842.261,1.57,1.57,0,0,1,.562.758l.019.054c.026.077.054.155.085.239a3.15,3.15,0,0,1,.263,1.384,3.1,3.1,0,0,1-.858,1.854c-.085.092-.173.18-.261.26a29.082,29.082,0,0,1,7.213,16.2,36.8,36.8,0,0,1,.011,9.089,37.669,37.669,0,0,1-2.15,8.779c-.174.464-.365.94-.584,1.454a1.576,1.576,0,0,1-.681.766A1.972,1.972,0,0,1,28.439,114.067ZM13.958,81.6h0a.948.948,0,0,0-.8.457.732.732,0,0,0,.02.758l.02.033A16.278,16.278,0,0,1,14.8,86.724c.078.246.165.524.252.789a.816.816,0,0,0,.807.586.909.909,0,0,0,.733-.35.732.732,0,0,0,.085-.686l-.112-.347c-.051-.16-.1-.324-.149-.468a17.93,17.93,0,0,0-1.767-4.255.8.8,0,0,0-.691-.394ZM20.2,19.269a.839.839,0,0,0-.56.222c-2.866,2.538-4.293,6.2-5.674,9.733-.4,1.03-.818,2.095-1.258,3.1a.873.873,0,0,0,.068.851.955.955,0,0,0,.767.445.665.665,0,0,0,.622-.442c.44-1,.853-2.073,1.252-3.11,1.3-3.368,2.64-6.85,5.294-9.269l.123-.11a.716.716,0,0,0,.224-.818A.95.95,0,0,0,20.2,19.269Zm44.778.006h0a.894.894,0,0,0-.581.225.981.981,0,0,0-.316.511.673.673,0,0,0,.382.791l.035.017A7.78,7.78,0,0,1,66.6,22.225a10.285,10.285,0,0,1,1.585,1.9,28.338,28.338,0,0,1,2.258,4.519l.064.151a.657.657,0,0,0,.616.444.956.956,0,0,0,.765-.442.88.88,0,0,0,.076-.853l-.241-.561a25.73,25.73,0,0,0-2.453-4.648,9.685,9.685,0,0,0-3.923-3.375.9.9,0,0,0-.372-.083Zm5.23-2a.675.675,0,0,0-.491.209.915.915,0,0,0-.239.486.935.935,0,0,0,.081.577.838.838,0,0,0,.484.411,10.2,10.2,0,0,1,3.588,2.194,17.848,17.848,0,0,1,2.709,3.261.824.824,0,0,0,.7.382.956.956,0,0,0,.821-.475.715.715,0,0,0-.064-.761,19.864,19.864,0,0,0-3.145-3.736,12.1,12.1,0,0,0-4.157-2.5.867.867,0,0,0-.284-.051ZM24.644,69.89a2.359,2.359,0,0,1-.479-.05c-1.121-.233-1.6-1.057-2.1-1.929-.148-.256-.3-.52-.471-.77l-.127-.183-.1-.144-.007-.01a4.047,4.047,0,0,0-1.666-1.659.258.258,0,0,1-.166-.226.19.19,0,0,1,.111-.19l.381-.185a5.593,5.593,0,0,1,2.4-.695,3.774,3.774,0,0,1,1.274.231,5.426,5.426,0,0,1,1.744,1.035,4.006,4.006,0,0,1,1.157,1.63,2.535,2.535,0,0,1,.141,1.082,2.586,2.586,0,0,1-.392,1.124,1.948,1.948,0,0,1-.735.7A2,2,0,0,1,24.644,69.89Z" transform="translate(-0.421 2.959)"/>
  </g>
  <g id="FACE" transform="translate(112.183 77.354)">
    <path id="_Ink-3" data-name="ðŸ– Ink" d="M22.824,40.539a8.045,8.045,0,0,1-3.052-.61,8.621,8.621,0,0,1-1.992-1.145,8.487,8.487,0,0,1-1.622-1.636,1.676,1.676,0,0,1-.338-1.3,1.871,1.871,0,0,1,.728-1.172,1.793,1.793,0,0,1,1.067-.372,1.548,1.548,0,0,1,.238.018,1.648,1.648,0,0,1,1.1.73l.065.09A5.7,5.7,0,0,0,21.108,36.9a4.735,4.735,0,0,0,2.069.483,4.583,4.583,0,0,0,.513-.029,5.388,5.388,0,0,0,2.278-.8,10.668,10.668,0,0,0,1.93-1.611c.138-.141.284-.294.474-.5a.751.751,0,0,1,.394-.3.806.806,0,0,1,.256-.041.871.871,0,0,1,.714.373.8.8,0,0,1,.135.524,4.812,4.812,0,0,1-.57,1.864,6.221,6.221,0,0,1-1.22,1.567,7.841,7.841,0,0,1-1.847,1.288,7.69,7.69,0,0,1-2.05.7A7.548,7.548,0,0,1,22.824,40.539Zm2.148-12.17h0a7.373,7.373,0,0,1-2.63-.53,13.281,13.281,0,0,1-3.093-1.756,1.189,1.189,0,0,1-.432-.687,1.423,1.423,0,0,1,.061-.771,1.754,1.754,0,0,1,.521-.753,1.267,1.267,0,0,1,.812-.317,1.151,1.151,0,0,1,.628.193l.209.161,0,0a16.744,16.744,0,0,0,1.936,1.347,4.768,4.768,0,0,0,2.321.74,2.505,2.505,0,0,0,.981-.193,2.74,2.74,0,0,0,.913-.647,2.8,2.8,0,0,0,.531-2.255,4.26,4.26,0,0,0-1.13-2,8.241,8.241,0,0,0-1.711-1.381.531.531,0,0,1-.144-.61.8.8,0,0,1,.264-.38.809.809,0,0,1,.505-.167,1.076,1.076,0,0,1,.181.016,5.736,5.736,0,0,1,2.018.729,4.577,4.577,0,0,1,1.357,1.252,4.974,4.974,0,0,1,.866,3.322,5.475,5.475,0,0,1-.444,1.744,5.087,5.087,0,0,1-1,1.5A4.779,4.779,0,0,1,24.972,28.369ZM7.859,16.485a1.724,1.724,0,0,1-1.119-.439,1.744,1.744,0,0,1-.587-1.128,12.706,12.706,0,0,1,.067-3.308c.04-.321.081-.654.11-1.012a1.98,1.98,0,0,1,.75-1.415,2.31,2.31,0,0,1,1.421-.5,1.751,1.751,0,0,1,1.075.338,1.594,1.594,0,0,1,.594,1.057,8.877,8.877,0,0,1-.926,5.469,1.754,1.754,0,0,1-.619.716A1.427,1.427,0,0,1,7.859,16.485Zm25.119-.75a1.508,1.508,0,0,1-1.183-.507A4.624,4.624,0,0,1,31.074,14a5.342,5.342,0,0,1-.368-1.477,3.131,3.131,0,0,1,.853-2.687,1.772,1.772,0,0,1,.137-.208,1.933,1.933,0,0,1,1.487-.856,1.611,1.611,0,0,1,.452.067,2.175,2.175,0,0,1,1.453,1.268,4.486,4.486,0,0,1,.18,2.453,8.214,8.214,0,0,1-.744,2.314,1.5,1.5,0,0,1-.643.635A1.947,1.947,0,0,1,32.979,15.735ZM.278,7.854a.274.274,0,0,1-.229-.14.306.306,0,0,1-.018-.3A10.425,10.425,0,0,1,2.368,4.454,14.446,14.446,0,0,1,5.5,2.317a13.445,13.445,0,0,1,3.714-1.3l.4-.069A9.66,9.66,0,0,1,11.226.776a2.5,2.5,0,0,1,2,.746,1.7,1.7,0,0,1,.4,1.208,1.106,1.106,0,0,1-.4.789,3.08,3.08,0,0,1-2.112.62c-.166,0-.338,0-.5-.008H10.6c-.16,0-.341-.009-.521-.009s-.314,0-.452.012a14.274,14.274,0,0,0-3.143.536A21.357,21.357,0,0,0,.424,7.806.26.26,0,0,1,.278,7.854Zm38.247-1.6h0l-.167-.042A9.458,9.458,0,0,1,36.524,5.5l-.6-.293A16.537,16.537,0,0,0,33.8,4.3a25.089,25.089,0,0,0-4.845-1.07,1.979,1.979,0,0,1-.972-.369,1.457,1.457,0,0,1-.544-.828A1.482,1.482,0,0,1,27.609.786a1.581,1.581,0,0,1,.767-.661A1.725,1.725,0,0,1,29.03,0a1.926,1.926,0,0,1,.377.038l.3.062a21.676,21.676,0,0,1,5.232,1.7,10.579,10.579,0,0,1,2.3,1.514,6.719,6.719,0,0,1,1.627,2.1c.057.439,0,.548-.055.622L38.8,6.06l-.015.02a.421.421,0,0,1-.26.173Z" transform="translate(11.197 10.99)"/>
  </g>
  <g id="ACCESORIES" transform="translate(88.521 88.978)">
    <path id="_Ink-4" data-name="ðŸ– Ink" d="M45.294,25.4h0a12.5,12.5,0,0,1-2.558-.268,13.039,13.039,0,0,1-4.712-2.023,12.706,12.706,0,0,1-1.971-1.678,11.914,11.914,0,0,1-2.516-3.941,12.161,12.161,0,0,1-.792-4.97,1.75,1.75,0,0,1-1.18-.643,3.434,3.434,0,0,1-.477-1.1c-.311-1.017-.664-2.17-3.024-2.562A4.587,4.587,0,0,1,26.1,6.91a53.931,53.931,0,0,0-5.73-.322,41.528,41.528,0,0,0-6.522.5A35.777,35.777,0,0,0,7.4,8.736c-.375.157-.772.3-1.157.442a13.691,13.691,0,0,0-1.961.829A2.845,2.845,0,0,0,3,11.274a3.189,3.189,0,0,0,.159,2.508,1.262,1.262,0,0,1-1.232,1.2,1.06,1.06,0,0,1-.772-.333l0,0v0A8.717,8.717,0,0,1,.04,11.6,3.963,3.963,0,0,1,.367,9.324C.981,8.062,2.36,7.1,4.585,6.367a42.331,42.331,0,0,1,6.283-1.322l.395-.063a42.37,42.37,0,0,1,8.913-.933c.311,0,.627,0,.939.01.383.016.787.022,1.214.029h0a14.174,14.174,0,0,1,3.681.355l.016,0a2.832,2.832,0,0,1,1.626-1.392A16.317,16.317,0,0,1,31.124,2a41.812,41.812,0,0,1,4.735-.671c1.747-.156,3.57-.235,5.416-.235a57.767,57.767,0,0,1,5.917.292A35.627,35.627,0,0,1,52.5,2.3a14.114,14.114,0,0,1,3.979,1.6,4.034,4.034,0,0,1,1.926,2.355c.108,0,.216,0,.322,0,.66,0,1.289.052,1.795.093l.07.006c.547.045,1.063.087,1.58.087a6.266,6.266,0,0,0,2.038-.306,4.023,4.023,0,0,1,1.753-2.68,13.328,13.328,0,0,1,3.91-1.918A30.015,30.015,0,0,1,74.948.385,37.272,37.272,0,0,1,80.188,0a21.59,21.59,0,0,1,4.573.421A8.286,8.286,0,0,1,86.025.64a1.571,1.571,0,0,1,.481.172c.167.025.343.052.522.082a1.256,1.256,0,0,1,.77.444,1.652,1.652,0,0,1,.351.816A1.546,1.546,0,0,1,87.407,3.8a2.355,2.355,0,0,0-1.036.958,1.922,1.922,0,0,0-.183,1.391,1.552,1.552,0,0,1-.07.98,1.428,1.428,0,0,1-.578.653,29.724,29.724,0,0,1-.992,7.291,15.959,15.959,0,0,1-1.389,3.4A12.2,12.2,0,0,1,80.885,21.4a12.839,12.839,0,0,1-3.13,1.533,9.811,9.811,0,0,1-3.009.49,8.433,8.433,0,0,1-3.655-.817,8.9,8.9,0,0,1-2.958-2.3,10.5,10.5,0,0,1-1.4-2.146,12.336,12.336,0,0,1-.931-2.6,14.688,14.688,0,0,1-.387-2.992,17.663,17.663,0,0,1,.23-3.323,1.081,1.081,0,0,1-.32-.344c-.052-.084-.1-.174-.156-.285a5.116,5.116,0,0,0-2.371-.472,7.235,7.235,0,0,0-.99.068,4.388,4.388,0,0,0-2.927,1.639c-.11.114-.224.232-.343.352a1.069,1.069,0,0,1-.757.564l-.047.262a41.244,41.244,0,0,1-1.372,5.987,15.5,15.5,0,0,1-1.234,2.794,11.21,11.21,0,0,1-1.871,2.44,11.512,11.512,0,0,1-7.96,3.145Zm.532-20.077a27.661,27.661,0,0,0-4.709.329,11.769,11.769,0,0,0-4.378,1.621A4.251,4.251,0,0,0,34.882,9.99a9.9,9.9,0,0,1-.535,1.319,2.845,2.845,0,0,1-.863,1.034A14.541,14.541,0,0,0,35,17.162a12.96,12.96,0,0,0,2.78,3.6,11.987,11.987,0,0,0,3.595,2.256,10.634,10.634,0,0,0,3.959.781h0a9.408,9.408,0,0,0,3.208-.554,9.174,9.174,0,0,0,2.9-1.709A10.768,10.768,0,0,0,53.787,18.6a15.337,15.337,0,0,0,1.535-4.236,29.707,29.707,0,0,0,.84-4.626c-.357-.314-.691-.625-1.013-.925a14.55,14.55,0,0,0-2.92-2.286,10.674,10.674,0,0,0-4.523-1.187l-.175,0C46.975,5.332,46.4,5.324,45.826,5.324ZM66.748,10.09a21.062,21.062,0,0,0,.439,3.617,14.193,14.193,0,0,0,1.192,3.479,8.023,8.023,0,0,0,2.144,2.706,6.209,6.209,0,0,0,3.293,1.3c.3.026.609.039.91.039a8.723,8.723,0,0,0,3.132-.547,5.442,5.442,0,0,0,2.45-1.8,13.729,13.729,0,0,0,1.5-2.64,17.406,17.406,0,0,0,.947-2.878,26.756,26.756,0,0,0,.663-5.983A5.531,5.531,0,0,1,82.243,5.4a3.91,3.91,0,0,0-.88-1.5,3.049,3.049,0,0,0-2.147-.632c-.228,0-.477.011-.74.033a19.785,19.785,0,0,0-4.61.778,9.052,9.052,0,0,0-2.781,1.377,6.2,6.2,0,0,0-1.5,1.637A10.274,10.274,0,0,0,68.8,8.649c-.378.892-.651,1.536-1.451,1.536A2.242,2.242,0,0,1,66.748,10.09Z" transform="translate(-2.746 1.902)"/>
  </g>
</svg>
