<svg id="peep-62" xmlns="http://www.w3.org/2000/svg" width="240" height="324" viewBox="0 0 240 324">
  <g id="BODY" transform="translate(31.056 135.053)">
    <path id="_Skin" data-name="âœ‹ Skin" d="M147.947,95.18c-1.413-4.342.27-9.357-.83-14.038-.377-1.851-1.093-8.73-1.812-12.753-.4-2.25,2-2.949,2.374-3.847,2.6-8.067-16.387-27.046-17.546-27.745-1.737-1-3.274-1.869-4.971-2.895-4.951-1.74-10.889-6.58-15.377-3.471-7.777-11.582-4.7-25.851-8.921-27.547S84.182-2.239,77.057,2.138c-4.271,3.161-3.956,8.6-5.9,13.09-1.144,2.112-1.706,5.173-3.037,6.55-4.524,4.681-10.165,5.488-16.472,6.283-.48.061-.986-1.246-1.452-1.085-10.639,3.678-23.018,4.752-35.066,25.349C13.424,55.27,8.833,60,10.368,63.4.255,86.926-9.7,139.877,18.053,153.082c.887.568,6.9-2.476,7.885-2.448,1.634.047-1.5,4.017,0,3.31,10.992.834,71.475-1.318,94.659.834,15.943-.119,26.041,2.677,29.722-.119-1.472-3.558-1.4-7.369-.938-11.13,3.388-2.522-.8-20.3-.446-25.5C152.107,114.223,149.582,99.958,147.947,95.18Z" transform="translate(10.441 -10.356)" fill="#d08b5b"/>
    <path id="_Top" data-name="ðŸ‘• Top" d="M37.334.7l-.1.066L37.182.8a.155.155,0,0,0,.037.279,3.476,3.476,0,0,0,.533.157c.559.812,1,1.815,1.3,2.324.877,1.461,8.405,10.649,9.53,11.829a128.245,128.245,0,0,0,10.953,8.987,37.026,37.026,0,0,0,4.507,2.3C73.267,30.6,85.1,30.952,93.024,24.439c.591.162,6.194-7.91,7.061-10.8.422.117.946-2.981.653-2.934.255-1.752-2.814-8.044-3.106-8.345l.132-.039a.132.132,0,0,0,.153.079,6.5,6.5,0,0,1,1.771-.221,32.894,32.894,0,0,1,3.795,1.536l.231.111c25.749,12.383,29.718,32.507,30.609,32.461-.375.475-10.549,14.866-11.1,16.138-.114-2.75,1.766,70.563,1.9,72.094.054.631.058,2.122.147,2.722-.646.035-23.29-1.511-65.4-1.258-13.446.081-46.678,1.544-46.678,1.544l-.011-.091c-.1-.9-.012-2.639-.026-3.533,1.276-.737,2.529-1.521,3.767-2.291,2.819-1.754,20.212-17.692,32.995-31.951C57.5,81.2,66.953,75.515,67.465,74.961a.246.246,0,0,0,.022-.035.135.135,0,0,0,.1.032c5.888-.842,14.673.97,21.141-2.38,2.887-1.5,12.685-11.675,15.573-14.488a.939.939,0,0,0,.193-.265,102.718,102.718,0,0,0,9.96-7.858l.158-.221c.587-.831,1.469-1.706.446-2.5-1.077-.841-3.142.169-4.278.653l-.158.066c-.553.227-1.1.474-1.629.737-.674-1.889-2.318-1.929-4.09-1.668a33.582,33.582,0,0,0-3.72.947q-2.344.626-4.707,1.18c-2.836.664-6.115,1.879-8.984,2.382a.608.608,0,0,0-.322-.193,11.962,11.962,0,0,0-3.074-.039q-1.3.024-2.59.005l-.518-.009c-1.851-.038-4.334-.9-6.184-.931l-.111-.068-.109-.069A2.486,2.486,0,0,1,73.449,49c-.018-.065,1.874-4.421,1.9-7.946a22.492,22.492,0,0,0-.818-4.766c-.391-2.373-1.268-.845-2.535,1.479a51.259,51.259,0,0,1-4.225,6.129c-1.634,2.179-3.236,2.838-4.069,4.1q-.212.321-.415.662c-.326-.325-3.072,6.148-2.592,7.395-.334-.111-13.839,17.221-43.2,29.69.187-1.166,5.282-31.914,4.014-36.986S3.474,24.935,1.73,24.519c.175-.284-6.634,4.369,5.62-7.678S27.769,2.754,33.869.515q.512-.159,1.019-.322a.164.164,0,0,0,.257.2A1.429,1.429,0,0,1,37.334.7Z" transform="translate(24.129 16.975)" fill="#9ddadb"/>
    <path id="_Ink" data-name="ðŸ– Ink" d="M151.2,147.487h0a.963.963,0,0,1-.551-.173,1.08,1.08,0,0,1-.391-.516,10.093,10.093,0,0,1-.353-3.92c.014-.362.028-.735.031-1.094.014-1.715,0-3.457-.022-5.142v-.03q-.012-1.156-.024-2.311c-.026-2.5-.053-5.081-.088-7.621-.183-13.242-.521-24.869-1.034-35.546-.24-4.994-.623-10.256-1.171-16.085-.437-4.646-.988-9.741-1.733-16.034-.967,1.322-1.928,2.715-2.938,4.257-1.133,1.731-2.2,3.46-3.181,5.071-.328.537-.652,1.083-.965,1.611l-.005.009c-.184.31-.374.631-.563.945-.156.259-.319.519-.472.763.131,2.6.239,5.3.321,8.013.339,11.171.8,22.229,1.377,32.866.331,6.137.621,11.294.958,16.517.167,2.585.347,5.25.552,8.146.1,1.37.2,2.775.313,4.175.012.153.027.309.04.446a6.3,6.3,0,0,1,.019,1.623,1.6,1.6,0,0,1,.134.793,1.71,1.71,0,0,1-.259.788,1.473,1.473,0,0,1-1.288.68,2.108,2.108,0,0,1-.283-.02,98.758,98.758,0,0,0-10.34-.676c-.749-.023-1.523-.046-2.3-.073l-8.1-.286-4.3-.152c-3.715-.131-7.5-.3-11.152-.458-8.227-.362-16.733-.736-25.1-.736-2.827,0-5.454.041-8.031.125-4.456.146-8.981.4-13.358.652h0c-2.777.158-5.648.321-8.476.455-4.257.2-7.757.3-11.014.321-.409,0-.9,0-1.4,0a49.376,49.376,0,0,1-8.5-.566,1.134,1.134,0,0,1-.477.614,1.357,1.357,0,0,1-.722.206,1.152,1.152,0,0,1-.841-.334,1.059,1.059,0,0,1-.267-.809,10.776,10.776,0,0,1,.3-2.114c-.4.2-.725.366-1.035.512a11.968,11.968,0,0,1-4.784,1.371,4.577,4.577,0,0,1-1.378-.2,3.7,3.7,0,0,1-1.244-.674.5.5,0,0,1-.038-.037l-.014-.014a9.254,9.254,0,0,1-3.652-1.188,12.722,12.722,0,0,1-2.983-2.417,20.551,20.551,0,0,1-2.373-3.159,32.328,32.328,0,0,1-1.823-3.412,60.185,60.185,0,0,1-2.945-7.734,69.826,69.826,0,0,1-1.931-8.05C.918,114.4.58,111.835.354,109.239.138,106.75.02,104.164,0,101.551c-.017-2.494.058-5.084.222-7.7.156-2.483.4-5.061.717-7.665a149.508,149.508,0,0,1,2.6-14.91A138.709,138.709,0,0,1,7.692,56.724c.874-2.524,1.816-4.932,2.8-7.157A72.2,72.2,0,0,1,13.949,42.7a57.289,57.289,0,0,1,4.246-6.376,47.783,47.783,0,0,1,5.157-5.7c.929-.869,1.906-1.723,2.9-2.537a.731.731,0,0,1,.294-.472,5.028,5.028,0,0,1,.967-.528A58.8,58.8,0,0,1,38.264,20.51a55.123,55.123,0,0,1,11.883-4.068,1.506,1.506,0,0,1,.409-.086l.174-.037h0l.231-.048.021,0a.083.083,0,0,1,.074.043.09.09,0,0,1,0,.089,3.334,3.334,0,0,1,1.364.789,13.376,13.376,0,0,1,1.975-.652c.242-.066.47-.129.692-.195l.357-.106h0c1.171-.348,2.381-.708,3.56-1.092l.507-.165a30.8,30.8,0,0,0,6.376-2.613c2.286-1.37,3.452-2.283,4.267-4.734.22-.663.423-1.231.619-1.781A23.648,23.648,0,0,0,72.083,1.11,1.235,1.235,0,0,1,72.6.268,1.63,1.63,0,0,1,73.524,0a1.976,1.976,0,0,1,.73.14,1.575,1.575,0,0,1,.592.4,1.218,1.218,0,0,1,.3.979,23.584,23.584,0,0,1-.75,3.83,15.468,15.468,0,0,1-1.382,3.33,13.851,13.851,0,0,1-2.176,2.891,17.484,17.484,0,0,1-3.13,2.514,20.564,20.564,0,0,1-3.741,1.845,35.959,35.959,0,0,1-3.991,1.24,35.6,35.6,0,0,1-4.269.832l-.244.032a17.3,17.3,0,0,1-2.053.183c.472.568.9,1.181,1.251,1.675.228.324.426.6.586.8,1.791,2.237,3.776,4.384,5.7,6.461.549.593,1.115,1.206,1.673,1.816a68.873,68.873,0,0,0,6.9,6.671,45.47,45.47,0,0,0,3.841,2.861,37.181,37.181,0,0,0,4.165,2.4,32.76,32.76,0,0,0,14.29,3.424c.883,0,1.769-.041,2.634-.122a22.931,22.931,0,0,0,4.129-.771,21.474,21.474,0,0,0,3.886-1.523,19.689,19.689,0,0,0,3.487-2.27,18.333,18.333,0,0,0,2.931-3.01A19.45,19.45,0,0,0,111,33.168a19.208,19.208,0,0,0,1.359-3.831,18.642,18.642,0,0,0,.321-6.089,9.7,9.7,0,0,1-3.419-3.1,19.547,19.547,0,0,1-2.9-5.378,29.451,29.451,0,0,1-1.481-6.24c-.142-1.06-.2-2.108-.24-3.083-.007-.159-.015-.318-.025-.487v-.01a8.644,8.644,0,0,1,.086-2.389.187.187,0,0,1,.338-.044,7.8,7.8,0,0,1,.64,1.869l0,.007c.045.178.091.361.139.537.11.4.224.808.335,1.2v0c.143.509.291,1.035.431,1.553a47.88,47.88,0,0,0,1.707,5.452,23.449,23.449,0,0,0,1.22,2.579,19.192,19.192,0,0,0,1.553,2.392,11.749,11.749,0,0,0,1.89,1.977c.046.037.093.072.14.106h0l.032.024a1.252,1.252,0,0,1,.619-.169,1.006,1.006,0,0,1,.617.2,1.209,1.209,0,0,1,.416.652c.114.4.211.817.295,1.266v0a16.529,16.529,0,0,1,.066,5.413,19,19,0,0,1,2.343-.18c.324-.012.659-.023.985-.042,1.089-.063,2.2-.086,3.269-.108.44-.009.9-.018,1.349-.03,2.147-.057,4.239-.139,6.219-.244a64.829,64.829,0,0,0-6.229-3.841c-.721-.392-1.483-.736-2.221-1.07a27.173,27.173,0,0,1-2.739-1.365c-.232-.138-.459-.286-.679-.429a7.263,7.263,0,0,0-1.992-1.019,5.406,5.406,0,0,0-1.471-.2,6.582,6.582,0,0,0-1.655.222.128.128,0,0,1-.032,0,.142.142,0,0,1-.131-.114.109.109,0,0,1,.063-.129,5.9,5.9,0,0,1,2.516-.591,5.829,5.829,0,0,1,2.333.509c.454.2.9.422,1.339.638h0c.525.261,1.069.532,1.626.759l.5.2.021.009c.769.311,1.563.633,2.326,1a55.521,55.521,0,0,1,9.19,5.561,51.677,51.677,0,0,1,7.9,7.278,47.636,47.636,0,0,1,3.242,4.136,1.987,1.987,0,0,1,1,1.493c.55.86,1.056,1.709,1.5,2.525a43.439,43.439,0,0,1,2.089,4.395c.169.413,1.79,4.572,1.677,4.637a.861.861,0,0,1,.433-.123.917.917,0,0,1,.84.7.786.786,0,0,1-.394.925c-.038.022-.078.043-.13.068a.854.854,0,0,1-.147.511c-.619.848-1.3,1.672-1.959,2.469-.592.717-1.205,1.458-1.771,2.215l-.021.029,0,0-.027.036c1.089,5.12,2,10.707,2.8,17.079.714,5.735,1.317,11.689,1.791,17.7.453,5.738.8,11.712,1.041,17.756.24,6.1.307,12.149.372,18h0c.031,2.852.053,5.846.063,8.9.005,1.549.022,3.08.051,4.551.006.284.018.573.029.853v0a9.147,9.147,0,0,1-.313,3.536A.986.986,0,0,1,151.2,147.487ZM45.959,127.4c-.673.618-1.27,1.151-1.826,1.63-2.028,1.751-4.121,3.426-6.219,4.979-2.15,1.592-4.366,3.1-6.586,4.48l-.259.161h0c-1.14.71-2.319,1.443-3.506,2.129,0,.314,0,.633-.01.941a12.306,12.306,0,0,0,.059,1.939c2.429-.174,4.913-.177,7.315-.181,1.445,0,2.939,0,4.4-.044,4.452-.12,8.892-.386,12.263-.6,1.785-.116,3.6-.241,5.353-.361h0c5.467-.376,11.121-.765,16.693-.939,2.131-.066,4.341-.1,6.754-.1,4.905,0,9.892.138,14.714.271h0l.557.015c6.416.177,13.43.388,22.074.663l3.478.111,1.916.061,5.748.183,1.951.062.373.012,3.353.107c.353.011.721.017,1.093.017.83,0,1.7-.027,2.75-.084-.056-.38-.079-.787-.1-1.18-.013-.228-.026-.464-.046-.7q-.058-.672-.116-1.344l-.012-.137,0-.044c-.087-1.006-.176-2.045-.263-3.068-.172-2.036-.338-4.183-.539-6.96l-.508.065-.03,0h0c-1.137.147-2.312.3-3.465.361-1.248.067-2.521.091-3.751.114h0c-.386.007-.824.015-1.246.025-.944.021-1.928.032-3.007.032-2.033,0-4.1-.038-6.1-.075h0l-.871-.016c-8.428-.152-18.383-.307-28.317-.307-2.454,0-4.869.009-7.178.028-5.857.048-11.794.121-17.647.219-3,.05-6.04.108-9.033.172-1.509.032-3.063.067-4.621.1-.262.006-.526.016-.781.026-.406.016-.825.032-1.234.032a7.78,7.78,0,0,1-2.458-.326,1.808,1.808,0,0,1-1.138-.983A1.829,1.829,0,0,1,45.959,127.4ZM16.448,42.276c-.822,1.392-1.621,2.88-2.375,4.421-.71,1.451-1.4,3-2.058,4.589-1.185,2.882-2.273,5.966-3.326,9.427A150.686,150.686,0,0,0,2.948,88.961c-.259,2.5-.444,4.967-.551,7.331-.114,2.512-.142,4.99-.085,7.365.06,2.506.218,4.977.468,7.344.263,2.483.636,4.929,1.109,7.267a65.559,65.559,0,0,0,1.785,6.918,53.55,53.55,0,0,0,2.609,6.648,26.906,26.906,0,0,0,1.629,2.958,20.636,20.636,0,0,0,2.013,2.663,16.5,16.5,0,0,0,2.446,2.238,14.545,14.545,0,0,0,2.928,1.683.771.771,0,0,1,.241-.1,12.731,12.731,0,0,1,1.859-.2,10.046,10.046,0,0,0,2.38-.338,21.64,21.64,0,0,0,4.135-1.939c2.218-1.243,4.514-2.693,7.226-4.565,2.2-1.52,4.323-3.081,6.3-4.64,2.091-1.647,4.1-3.35,5.966-5.062,3.7-3.392,7.155-7.138,10.5-10.76l.063-.068.609-.66c1.912-2.073,3.874-4.089,5.83-5.992,2.012-1.958,4.084-3.86,6.158-5.654,1.863-1.611,4.039-3.478,6.3-5.242A63.861,63.861,0,0,1,81.6,91.5a.212.212,0,0,1,.109-.032.207.207,0,0,1,.159.08.171.171,0,0,1,.074-.051,17.946,17.946,0,0,1,2.539-.649,19.16,19.16,0,0,1,2.61-.275c.573-.023,1.193-.034,1.9-.034s1.406.011,2.092.021h0c.384.006.781.012,1.175.016.235,0,.465,0,.684,0a29.116,29.116,0,0,0,4.806-.331,14.41,14.41,0,0,0,4.556-1.5,30.279,30.279,0,0,0,6.513-5.3l0,0c.521-.511,1.06-1.039,1.6-1.542l3.894-3.666.535-.5c-.944.438-1.92.868-2.983,1.317-1.431.6-2.892,1.2-4.305,1.77l-.024.01c-.515.209-1.04.434-1.547.651l0,0c-1.173.5-2.384,1.02-3.6,1.406a1.188,1.188,0,0,1-.358.057,1.128,1.128,0,0,1-.782-.324,1.488,1.488,0,0,1-.422-.744,1.232,1.232,0,0,1,.045-.736,1.068,1.068,0,0,1,.543-.564c2.025-.979,4.195-1.777,6.292-2.549l.006,0c1.26-.464,2.564-.943,3.818-1.456a70.292,70.292,0,0,0,8.738-4.129,34.241,34.241,0,0,0,3.943-2.659,27.944,27.944,0,0,0,3.482-3.236c.041-.046.1-.107.168-.179h0a9.131,9.131,0,0,0,.767-.88c.274-.378.347-.637.218-.768a.343.343,0,0,0-.234-.057,9.958,9.958,0,0,0-1.978.442c-.167.049-.3.087-.373.105-.827.2-1.671.453-2.51.748a.861.861,0,0,1-.309.3c-4.746,2.636-8.745,4.644-12.584,6.321-2.236.977-4.442,1.846-6.555,2.583-2.283.8-4.552,1.472-6.746,2.009a.991.991,0,0,1-.234.029.839.839,0,0,1-.818-.745.824.824,0,0,1,.6-.944c4.975-1.555,8.971-2.96,12.575-4.42a86.642,86.642,0,0,0,11.957-5.86,2.075,2.075,0,0,0-.832-.144,5.893,5.893,0,0,0-1.213.149c-.869.185-1.743.441-2.588.688-.539.158-1.1.321-1.647.464-3,.778-6.047,1.473-9.068,2.067-2.37.466-5.166.988-7.93,1.333a24.882,24.882,0,0,1-3.116.218,13.8,13.8,0,0,1-3.295-.364,9.787,9.787,0,0,1-2.962-1.244,5.7,5.7,0,0,1-1.232-1.059,3.659,3.659,0,0,1-.753-1.367,4.438,4.438,0,0,1,.673-3.207l.01-.02.093-.19a11.482,11.482,0,0,0,1.1-3.663,9.354,9.354,0,0,0-.19-3.741,2.747,2.747,0,0,0-.356-.786.613.613,0,0,0-.476-.311c-.237,0-.481.21-.725.623-.227.385-.431.784-.627,1.171h0a13.946,13.946,0,0,1-1.012,1.768A25.819,25.819,0,0,1,83.362,60.2c-.53.575-1.088,1.143-1.627,1.693l0,0a34.92,34.92,0,0,0-3.418,3.845,13.038,13.038,0,0,0-1.808,3.4,12.749,12.749,0,0,0-.69,3.79.323.323,0,0,1-.226.32,1.133,1.133,0,0,1,.313.7,1.023,1.023,0,0,1-.315.781c-2.034,2.075-4.149,4.091-6.288,5.992-2.17,1.928-4.422,3.791-6.694,5.535-2.051,1.575-4.129,3.071-6.174,4.446-2.139,1.438-4.312,2.791-6.458,4.02C45.7,97.178,41.223,99.321,37,101.3l-.211.1c-4.208,1.978-8.559,4.024-12.663,6.35-2.212,1.254-4.169,2.482-5.985,3.756a52.3,52.3,0,0,0-5.526,4.432.111.111,0,0,1-.075.032.107.107,0,0,1-.094-.063.115.115,0,0,1,.016-.124,35.254,35.254,0,0,1,2.622-2.949c.892-.9,1.868-1.789,2.9-2.649a56.906,56.906,0,0,1,6.419-4.569c1.832-1.137,3.874-2.3,6.243-3.546a1.473,1.473,0,0,1-.306-1.22C31.5,94.3,32.428,88.32,33.189,82.572c.248-1.876.491-3.781.726-5.624l.006-.044c.151-1.184.307-2.408.463-3.611.172-1.331.4-2.749.689-4.334.045-.243.08-.518.116-.809a9.427,9.427,0,0,1,.35-1.811c-1.39-2.446-2.865-4.849-4.385-7.142-1.555-2.345-3.2-4.637-4.882-6.812-1.386-1.79-2.877-3.686-4.516-5.456a30.206,30.206,0,0,0-5.308-4.653ZM84.38,125.685c7.178,0,13.081.083,18.576.261,4.17.135,8.408.442,12.506.74h0c1.623.118,3.3.24,4.956.35,3.573.237,6.331.441,8.942.662,2.712.229,5.39.556,7.9.871-.015-.211-.031-.433-.045-.612v-.013c-.018-.248-.037-.5-.055-.757-.25-3.59-.473-7.309-.664-11.054a2.058,2.058,0,0,1-1.012.271l-.1,0c-5.647-.284-11.3-.546-16.792-.776-4.261-.179-8.592-.382-12.781-.577h-.039c-5.433-.254-11.052-.517-16.579-.731-4.742-.185-9.689-.435-14.706-.744-.809-.05-1.637-.091-2.438-.131a44.643,44.643,0,0,1-11.37-1.548c-1.205,1.305-2.416,2.643-3.587,3.938-3.212,3.55-6.532,7.219-10.067,10.57l.021-.009.022-.01a9.734,9.734,0,0,1,3.354-.445c.227,0,.456,0,.677,0h.035c.216,0,.439,0,.658,0l.379,0c1.615-.023,3.311-.046,5.041-.067,3.384-.041,6.777-.074,10.083-.1l2.911-.021C74.854,125.72,79.655,125.685,84.38,125.685Zm-4.012-16.059h.005c7.5,0,15.133.254,22.511.5l3.115.1c10.433.34,20.711.908,29.389,1.419a2.724,2.724,0,0,1,.908.211c-.2-4.728-.347-9.384-.423-13.84a1.928,1.928,0,0,1-1.193.516c-1.876.167-3.881.242-6.5.242-1.151,0-2.321-.014-3.453-.028-1.024-.012-2.083-.025-3.128-.027l-2.015,0c-1.789,0-3.662,0-5.313.008h-.04c-1.746,0-3.552.008-5.329.008-4.145,0-7.322-.024-10.3-.077-1.018-.018-2.048-.032-3.045-.046h0c-3.183-.044-6.473-.089-9.7-.267a77.587,77.587,0,0,1-9.634-1.073c-1.061.939-2.151,1.878-3.206,2.786-1.809,1.557-3.679,3.168-5.443,4.817-1.713,1.6-3.473,3.37-5.54,5.567a46.524,46.524,0,0,1,9.913-.795c.518,0,1.041,0,1.547,0h.067c.469,0,1,0,1.509,0,.573,0,1.071,0,1.523-.008C77.814,109.633,79.085,109.625,80.368,109.625ZM34.348,93.91c-.314,2.261-.656,4.542-1.015,6.782,1.292-.655,2.612-1.311,3.888-1.945,2.786-1.384,5.667-2.816,8.443-4.333l-.39-.006h-.028l-.563-.008-3.793-.056-.451-.007-.367-.005c-1.56-.023-3.071-.164-4.611-.319-.111-.011-.235-.021-.366-.031h-.006C34.862,93.964,34.6,93.944,34.348,93.91ZM81.889,91.8l-.006.011h0a.112.112,0,0,1-.015.023c-1.224,1.324-2.63,2.706-4.3,4.224a78.007,78.007,0,0,1,11.114-.988c7.262-.138,14.784-.219,23-.247l4.58-.015,1.133,0,5.68-.019c.854,0,1.713-.013,2.544-.022h.006c1-.011,2.031-.023,3.046-.023,2.427,0,4.279.068,6.008.22a1.942,1.942,0,0,1,1.158.48c0-.185,0-.374-.008-.557v-.03c0-.212-.007-.476-.01-.727v0c-.023-2.485-.05-5.3-.053-8.062a1.5,1.5,0,0,1-.511.17,15.875,15.875,0,0,1-2.268.144c-.806,0-1.629-.041-2.424-.08h0c-.554-.028-1.127-.056-1.684-.07-.591-.015-1.192-.026-1.773-.038-1.481-.028-3.011-.058-4.512-.143-1.39-.079-2.8-.165-4.169-.249h-.008l-2.108-.128c-1.081-.065-1.977-.152-2.818-.275-.2-.029-.408-.053-.609-.076h0a6.466,6.466,0,0,1-1.865-.4.584.584,0,0,1-.28-.488c0-.011,0-.022,0-.033v-.017l-.118.116a32.715,32.715,0,0,1-7.482,6.014,15.825,15.825,0,0,1-4.446,1.494A25.5,25.5,0,0,1,94,92.392c-1.9,0-3.819-.143-5.678-.282l-.038,0c-1.839-.137-3.741-.279-5.553-.279-.253,0-.5,0-.74.008h0A.161.161,0,0,1,81.889,91.8Zm-35.025-1.02h0a4.664,4.664,0,0,1,1.062.106,2.272,2.272,0,0,1,.89.4,2.1,2.1,0,0,1,.674.926l.092-.055.011-.007.125-.075c2.665-1.63,5.284-3.348,7.783-5.108,2.548-1.794,5.042-3.68,7.414-5.606-1.024.04-2.089.084-3.029.123h0c-3.719.153-7.566.312-11.348.375-.889.015-1.794.04-2.67.064h0c-1.395.038-2.837.078-4.256.078-.37,0-.731,0-1.073-.008-.886-.014-1.788-.067-2.66-.118h0c-.439-.026-.892-.052-1.338-.074a10.305,10.305,0,0,1-2.685-.421c-.051.52-.115,1.168-.183,1.8-.3,2.834-.649,5.719-1.027,8.575a34.069,34.069,0,0,1,4.8-.54l4.273-.209.3-.015.245-.012c.3-.015.631-.05.982-.088A15.318,15.318,0,0,1,46.863,90.784ZM126.034,70.7a35.85,35.85,0,0,1-5.447,4.007.94.94,0,0,1-.193.265c-.948.923-1.911,1.864-2.843,2.773l-.1.1c-1.872,1.828-3.808,3.717-5.721,5.571a8.107,8.107,0,0,1,1.43-.2c.26-.02.506-.039.733-.07.875-.119,1.766-.166,2.627-.21l.206-.011,2.068-.109c1.313-.07,2.672-.143,4.009-.206,1.419-.067,2.866-.082,4.266-.1h0c.593-.006,1.205-.012,1.809-.022.557-.009,1.134-.034,1.692-.057.734-.031,1.492-.063,2.236-.063a16.03,16.03,0,0,1,2.449.161,1.493,1.493,0,0,1,.522.182c.014-1.973.042-3.717.084-5.332.052-1.968.121-3.9.207-5.729a1.8,1.8,0,0,1-.348.034c-1.781,0-3.575-.146-5.309-.286h0l-.131-.011-.471-.037a13.345,13.345,0,0,1-3.775-.654ZM36.513,67.275h0c.041.86.063,1.612.067,2.3.009,1.681-.033,3.167-.128,4.543C36.322,76,36.17,77.893,36,79.746a12.542,12.542,0,0,1,2.742-.581c.4-.052.811-.11,1.206-.165h.009c.912-.128,1.854-.26,2.784-.342,1.725-.151,3.484-.254,5.184-.354h.007c.852-.05,1.734-.1,2.6-.159,3.789-.25,7.649-.409,11.382-.564h.015c1.509-.062,3.07-.127,4.6-.2l.108,0A1.674,1.674,0,0,1,68.3,78.525c1.985-1.729,3.92-3.522,5.75-5.331a1.028,1.028,0,0,1,.727-.318,1.017,1.017,0,0,1,.321.053,6.491,6.491,0,0,1-.17-3.857c-2.361-.063-4.753-.12-7.066-.176-4.041-.1-8.219-.2-12.331-.331-1.085-.035-2.187-.058-3.252-.079h0c-2.172-.044-4.419-.09-6.615-.246-.767-.055-1.554-.113-2.249-.164-.776-.057-1.578-.116-2.371-.173a13.431,13.431,0,0,1-3.912-.679,2.814,2.814,0,0,1-.381.065.574.574,0,0,1-.07,0,.824.824,0,0,1-.165-.018Zm100.424-6.424h0a.237.237,0,0,1,.232.194c.247,2.092.32,4.252.39,6.341.021.627.043,1.275.069,1.915.521-1.211,1.128-2.469,1.806-3.741a71.827,71.827,0,0,1,4.182-6.861l.345-.5.008-.011c.5-.725,1.011-1.475,1.536-2.209v-.008c0-.029-.007-.058-.01-.087a.094.094,0,0,1,.022-.076.127.127,0,0,1,.1-.039.145.145,0,0,1,.042.006c.377-.522.735-1,1.095-1.453-4.443.227-8.876.275-13.8.311-4.015.029-8.088.044-12.108.044-4.085,0-8.23-.015-12.32-.046-3.851-.028-7.763-.156-11.546-.28l-.668-.022c-1.976-.065-3.961-.206-6.067-.431a5.548,5.548,0,0,1,.479,1.483,13.2,13.2,0,0,1,.049,4.01,13.639,13.639,0,0,1-1.136,3.847c-.067.146-.152.3-.242.464h0a2.534,2.534,0,0,0-.486,1.752,2.813,2.813,0,0,0,1.356,1.377c.783.014,1.579.024,2.349.035h.024c1.04.014,2.115.029,3.178.05.552.011,1.108.017,1.653.017.484,0,.974,0,1.455-.013.28-.005.572-.024.855-.042.342-.022.7-.044,1.042-.044a4.784,4.784,0,0,1,1.178.125.609.609,0,0,1,.322.193c2.9-.508,5.778-1.1,8.561-1.748,1.573-.369,3.156-.765,4.707-1.18.356-.1.718-.2,1.068-.3a19.978,19.978,0,0,1,2.651-.644,7.77,7.77,0,0,1,1.126-.086,3.274,3.274,0,0,1,3.386,1.965c.555-.273,1.1-.521,1.629-.737.132-.054.282-.119.441-.188l0,0a8.151,8.151,0,0,1,2.913-.853,1.708,1.708,0,0,1,1.078.323,1.348,1.348,0,0,1,.486,1.451,4.205,4.205,0,0,1-.721,1.476,24.884,24.884,0,0,1-1.868,2.335c.678-.106,1.372-.159,2.044-.211h0l.02,0,.434-.034.139-.011c1.732-.141,3.524-.286,5.3-.286a1.754,1.754,0,0,1,.513.075c.028-.511.052-1.033.076-1.538v0c.093-1.964.189-3.994.471-5.955A.148.148,0,0,1,136.936,60.851Zm-86.993,3.7c.949,0,1.913.01,2.845.019.9.009,1.83.018,2.743.019,6.774,0,13.63.2,19.525.385a1.978,1.978,0,0,1,1.367.56c.134-.225.274-.448.415-.662A32.24,32.24,0,0,1,80.431,60.6l0,0c.764-.808,1.554-1.644,2.274-2.512a17.381,17.381,0,0,0,2.282-3.514l.037-.076,0-.01,0-.006.038-.078c-.1,0-.2,0-.31,0-.254,0-.509-.007-.769-.015-1.033-.031-2.136-.063-3.372-.1-2.2-.062-4.4-.118-6.534-.169C71.066,54.05,68,54,65.025,53.945h-.017c-4.831-.084-9.827-.171-14.742-.338-1.806-.061-3.65-.1-5.432-.14h-.008c-5.138-.112-10.451-.227-15.619-.861a121.265,121.265,0,0,1,8.415,12.767,14.924,14.924,0,0,1,3.42-.469L42,64.848h.012c1.264-.072,2.57-.147,3.856-.211C47.063,64.578,48.357,64.55,49.943,64.55Zm-32.434-24c-.178.278-.356.563-.531.848A12.6,12.6,0,0,1,22.62,44.72a45.585,45.585,0,0,1,4.433,5.1l.007.009.508.646c.186.236.373.479.553.713l.234.3a99.267,99.267,0,0,1,11.791-.98c5.8-.2,13.45-.435,21.194-.435.883,0,1.767,0,2.628.009,3.989.027,8.031.071,12.015.13,2.06.031,4.117.065,6.113.1.169,0,.351,0,.591,0h.631a7.831,7.831,0,0,1,4.033.748c.139-.02.265-.037.394-.058.872-.142,1.773-.2,2.644-.255.284-.018.579-.037.869-.059,2.052-.153,4.135-.167,6.15-.18h0l.584,0c4.669-.033,9.415-.036,14.005-.039h.03c3.406,0,6.928,0,10.392-.019,2.832-.012,5.713-.049,8.5-.084,3.4-.043,6.916-.088,10.374-.088,2,0,3.816.015,5.553.045a2.4,2.4,0,0,1,.365.036,38.7,38.7,0,0,0-1.976-5.04c-.519-1.09-1.106-2.191-1.743-3.273a1.928,1.928,0,0,1-1.245.414h-.024c-1.989-.018-4.012-.034-5.968-.049h-.029c-4.122-.033-8.383-.066-12.583-.118-2.11-.026-4.255-.1-6.329-.178h0c-.935-.034-1.9-.069-2.852-.1-1.6-.05-3.19-.2-4.681-.351l-.174-.017-.019,0a13.3,13.3,0,0,1-2.162-.338A23.885,23.885,0,0,1,92.019,46.38a33.717,33.717,0,0,1-6.961-.745,35.968,35.968,0,0,1-6.612-2.081,37.2,37.2,0,0,1-4.507-2.3,1.287,1.287,0,0,1-.456.348c-.169.076-.339.156-.5.235h0a11.168,11.168,0,0,1-1.1.476,4.187,4.187,0,0,1-1.446.2l-.313,0c-.667-.01-1.344-.022-2-.034h-.06L66.8,42.449c-2.006-.033-4.075-.067-6.152-.1-6.836-.1-14.585-.222-22.161-.408-3.9-.1-7.545-.237-11.132-.43-.654-.035-1.332-.062-1.988-.088h-.005a36.817,36.817,0,0,1-7.856-.875h0Zm96.978-10.033h0a23.347,23.347,0,0,1-4.123,7.836c-.133.166-.282.343-.469.559l.026,0,.065-.006c1.423-.135,2.951-.266,4.475-.3.939-.024,1.893-.053,2.817-.081h.011c2.084-.064,4.239-.129,6.357-.144,4.1-.027,8.263-.038,12.289-.047l5.082-.014a49.346,49.346,0,0,0-8.372-8.8l-.047-.038h0l-.032-.026a2.127,2.127,0,0,1-.629,1.115,2,2,0,0,1-1.314.5c-1.9.052-3.857.078-5.977.078-.566,0-1.153,0-1.743-.006-1.62-.011-3.208-.03-4.83-.153l-.439-.032a15.808,15.808,0,0,1-3.145-.436ZM27.558,29.106a53.326,53.326,0,0,0-5.384,5.239,47.76,47.76,0,0,0-3.507,4.464c.232-.037.447-.066.656-.088l1.038-.112h.016c.741-.081,1.507-.164,2.261-.238,1.456-.143,2.947-.206,4.389-.267.576-.024,1.171-.05,1.757-.08,5.708-.293,11.826-.423,19.836-.423.751,0,1.51,0,2.32,0,3.7.01,7.445.025,11.138.046,1.646.009,3.409.02,5.55.034h.313c.245,0,.5,0,.737,0h.16a60.614,60.614,0,0,1-5.852-5.416c-1.3-1.36-2.353-2.507-3.324-3.608a1.7,1.7,0,0,1-.606.526,1.929,1.929,0,0,1-.892.2h-.021c-2.83-.025-5.708-.037-8.8-.037-2.32,0-4.691.007-7.248.021-1.441.008-2.9.037-4.32.065h-.008c-1.153.023-2.345.046-3.517.058l-.445,0c-.7,0-1.4-.016-2.089-.031h0c-.506-.011-1.029-.023-1.543-.028a9.348,9.348,0,0,1-2.615-.328Zm21.785-12.1h0a71.9,71.9,0,0,0-18.306,9.378l.066-.008c1.031-.129,2.1-.263,3.148-.342,2.275-.171,4.6-.257,6.841-.341l.046,0,.958-.036c3.726-.141,7.718-.2,12.942-.2l1.956,0c-.2-.258-.418-.534-.627-.812a48.858,48.858,0,0,1-2.911-4.212c-.109-.182-.233-.423-.377-.7a14.929,14.929,0,0,0-.925-1.621,3.462,3.462,0,0,1-.534-.157.159.159,0,0,1-.107-.125.165.165,0,0,1,.07-.153c.029-.022.061-.042.092-.062h0l.058-.037a1.734,1.734,0,0,0-1.251-.7,1.481,1.481,0,0,0-.937.389.175.175,0,0,1-.112.043.17.17,0,0,1-.153-.1.157.157,0,0,1,.034-.174l.013-.014.014-.014Z" transform="translate(9.718 0.088)"/>
  </g>
  <g id="HEAD" transform="translate(78.592 38.043)">
    <path id="_Skin-2" data-name="âœ‹ Skin" d="M72.7,9.843C66.36,1.1,54.694-1.414,44.577.713,24.8,4.327,5.9,19.455,2.406,40.029-3.047,52.475.435,72.08,16.292,73.545c2.258.128,4.494-.393,6.755-.112,13.8,2.21,30.113,11.672,42.332.514a2.291,2.291,0,0,0,2.106.386c5.2-2.015,5.445-7.843,5.888-12.634q.859-9.286,1.611-18.581c.179-10.686,4.4-24.04-2.287-33.274Z" transform="translate(9.909 25.573)" fill="#d08b5b"/>
    <path id="_Ink-2" data-name="ðŸ– Ink" d="M32.634,100.7a7.884,7.884,0,0,1-.828-.044,8.894,8.894,0,0,1-3.316-1.037,7.386,7.386,0,0,1-2.541-2.248,24.166,24.166,0,0,1-5.387,2.24l-.2.055a18.544,18.544,0,0,1-4.737.772,8.33,8.33,0,0,1-1.84-.192,5.83,5.83,0,0,1-1.687-.661,5.409,5.409,0,0,1-2.336-3.01,7.392,7.392,0,0,1-.2-3.857,7.043,7.043,0,0,1,.249-.869c-.305.016-.61.024-.905.024a14.217,14.217,0,0,1-4.216-.61,8.085,8.085,0,0,1-2.378-1.162,5.485,5.485,0,0,1-1.72-1.991A6.014,6.014,0,0,1,0,85.226a9.518,9.518,0,0,1,.6-2.917,23.454,23.454,0,0,1,5-8.014,33.7,33.7,0,0,1,7.232-5.733l.442-.265A32.775,32.775,0,0,1,16.991,66.3a10.125,10.125,0,0,1,4.02-.967c.088,0,.176,0,.263.005a.991.991,0,0,1-.019-.106,63.233,63.233,0,0,1-.418-7.167v-.005c-.015-.739-.03-1.5-.054-2.254s-.049-1.518-.073-2.255c-.068-2.1-.139-4.27-.189-6.408a97.5,97.5,0,0,1,.565-14.723,49.466,49.466,0,0,1,1.239-6.393,36.7,36.7,0,0,1,2.21-6.119,27.866,27.866,0,0,1,3.636-5.769,29.612,29.612,0,0,1,4.9-4.742A40.324,40.324,0,0,1,39.2,5.536a47.614,47.614,0,0,1,6.768-2.826A53.74,53.74,0,0,1,53.089.888,56.18,56.18,0,0,1,60.28.035c.438-.023.9-.035,1.387-.035a64.621,64.621,0,0,1,15.4,2.357A74.607,74.607,0,0,1,84.9,4.873,39.128,39.128,0,0,1,91.217,7.9,24.176,24.176,0,0,1,98.2,14.437a28.391,28.391,0,0,1,3.777,7.452,31.587,31.587,0,0,1,1.467,6.555,15.1,15.1,0,0,1,.049,3.847,2.755,2.755,0,0,1-.46,1.119,1.1,1.1,0,0,1-.879.494,1.136,1.136,0,0,1-.348-.058A123.847,123.847,0,0,1,102.6,48v0c.015.921.03,1.874.051,2.9l.09,4.445c.055,2.81.108,5.833.121,8.891a.6.6,0,0,1,.208-.039.525.525,0,0,1,.5.352.055.055,0,0,1,0,.054.077.077,0,0,1-.063.03.071.071,0,0,1-.047-.016.381.381,0,0,0-.2-.116.058.058,0,0,0-.056.037,1.545,1.545,0,0,0,.286.882,4.491,4.491,0,0,0,.644.567h0c.113.088.221.172.316.254l.8.691.8.689c.834.721,1.926,1.684,2.982,2.738l.261.263c.4.4.825.814,1.24,1.21l0,0a16.53,16.53,0,0,1,3.784,4.592,5.89,5.89,0,0,1,.533,3.388,5.482,5.482,0,0,1-1.541,3.054,7.325,7.325,0,0,1-2.159,1.49,8.076,8.076,0,0,1,1.16,3.9,7.077,7.077,0,0,1-1.014,3.949,7.209,7.209,0,0,1-2.818,2.6,8.024,8.024,0,0,1-3.707.909c-.184,0-.37-.007-.553-.02a4.189,4.189,0,0,1-.388,1,3.866,3.866,0,0,1-.863,1.085,3.944,3.944,0,0,1-1.1.666,6.877,6.877,0,0,1-2.606.427c-.234,0-.475-.007-.738-.02l-.08,0a30.276,30.276,0,0,1-13.115-3.682c-.054,0-.108.005-.162.005a2.734,2.734,0,0,1-1.787-.71,3.091,3.091,0,0,1-.981-1.625c-.7-.026-1.431-.083-2.237-.175a23.251,23.251,0,0,1-3.363-.612,12.968,12.968,0,0,1-3.164-1.275.327.327,0,0,1-.156-.375.352.352,0,0,1,.331-.272c.353-.008.736-.012,1.171-.012s.857,0,1.275.007h.021c.424,0,.862.007,1.293.007a32.2,32.2,0,0,0,3.473-.153,25.6,25.6,0,0,0,6.624-1.68A18.26,18.26,0,0,0,92.7,85.287a14.428,14.428,0,0,0,3.583-4.534,16.572,16.572,0,0,0,1.13-2.982,23.911,23.911,0,0,0,.637-3.145,63.154,63.154,0,0,0,.447-6.457v0c.027-.785.056-1.6.095-2.379.237-4.739.545-9.954.969-16.413l.174-2.621a114.62,114.62,0,0,1,1.523-13.146c-.076.007-.159.01-.247.01a12.992,12.992,0,0,1-3.46-.717,32.05,32.05,0,0,1-4.9-2.054A27.223,27.223,0,0,1,87.7,27.6a14.665,14.665,0,0,1-3.632-4.291,11.2,11.2,0,0,1-1.275,2.08,13.041,13.041,0,0,1-1.681,1.783,20.037,20.037,0,0,1-4.365,2.853,44.966,44.966,0,0,1-5.34,2.19c-1.894.658-3.921,1.277-5.881,1.875-5.286,1.613-10.751,3.282-14.967,6.063a20.079,20.079,0,0,0-2.911,2.313A15.686,15.686,0,0,0,45.319,45.3a14.885,14.885,0,0,0-1.614,3.458,17.747,17.747,0,0,0-.775,4.183.118.118,0,0,1-.127.114.179.179,0,0,1-.183-.157l-.027-.488c-.012-.229-.025-.473-.033-.714l-.007-.235-.521.006a.061.061,0,0,1-.061.061.057.057,0,0,1-.055-.042,1.275,1.275,0,0,0-.711-.754,2.755,2.755,0,0,0-1.131-.2,7.047,7.047,0,0,0-2.008.342A9.139,9.139,0,0,0,35.509,52.2a8.96,8.96,0,0,0-2.017,2.007A6.861,6.861,0,0,0,32.342,56.8a7.13,7.13,0,0,0-.03,2.717,8.5,8.5,0,0,0,.907,2.553,9.881,9.881,0,0,0,1.626,2.2,9.76,9.76,0,0,0,2.128,1.655c.813.465,1.672.867,2.5,1.256A24.837,24.837,0,0,1,42.9,69.009,24.359,24.359,0,0,1,47.4,72.9a27.008,27.008,0,0,1,3.481,4.891,26.618,26.618,0,0,1,2.35,5.634,22.746,22.746,0,0,1,.9,5.985,18.692,18.692,0,0,1-.872,5.944A1.927,1.927,0,0,1,51.9,96.709a4.834,4.834,0,0,1-.685.052,2.8,2.8,0,0,1-1.2-.241,2.111,2.111,0,0,1-.927-.862,2.384,2.384,0,0,1-.329-1.338A5.489,5.489,0,0,1,47.537,96.4a5.606,5.606,0,0,1-1.858,1.385,5.476,5.476,0,0,1-2.17.444,5.737,5.737,0,0,1-3.05-.882l-.194.143a21.9,21.9,0,0,1-3.6,2.237A9.394,9.394,0,0,1,32.634,100.7ZM42.793,62.666a1.141,1.141,0,0,1-1.088-.746l-.181-.42a15.918,15.918,0,0,0-1.057-2.094,6.081,6.081,0,0,0-1.536-1.726,3.831,3.831,0,0,0-2.236-.764,2.83,2.83,0,0,0-2.154.942.094.094,0,0,1-.071.034.115.115,0,0,1-.095-.058.106.106,0,0,1,0-.107,3.262,3.262,0,0,1,1.476-1.414,4.563,4.563,0,0,1,2.014-.443,5.311,5.311,0,0,1,.891.076,5.927,5.927,0,0,1,2.995,1.585,20.27,20.27,0,0,1,2.269,2.6,1.475,1.475,0,0,1,.241,1.6,1.684,1.684,0,0,1-.617.673A1.628,1.628,0,0,1,42.793,62.666Z" transform="translate(-16.022 13.104)"/>
  </g>
  <g id="FACE" transform="translate(112.183 77.354)">
    <path id="teeth" d="M3.1.709c2.307-1.39,10.932-.371,17.707,0,5.38.295,9.223-.289,10.453.539C34.04,3.119,32.691,12.165,27.9,13.4s-22.537,2.965-25.6,0S-1.038,3.2,3.1.709Z" transform="translate(13.63 41.096)" fill="#fff"/>
    <path id="_Ink-3" data-name="ðŸ– Ink" d="M20.051,43.538c-.412,0-.86,0-1.37-.009l-.584-.008c-.309,0-.644-.007-1.054-.007l-.954,0h-.022l-1,0A27.776,27.776,0,0,1,7.1,42.682a11.035,11.035,0,0,1-1.762-.708A8.528,8.528,0,0,1,3.78,40.953a7.647,7.647,0,0,1-1.3-1.391,8.387,8.387,0,0,1-.993-1.818,8.942,8.942,0,0,1-.517-1.866,9.246,9.246,0,0,1,.866-5.65A7.343,7.343,0,0,1,3.153,28.4a8.417,8.417,0,0,1,1.758-1.352,11.169,11.169,0,0,1,4.247-1.378,14.341,14.341,0,0,1,1.72-.1,31.966,31.966,0,0,1,6.179.815c.908.181,1.848.368,2.773.514a49.93,49.93,0,0,0,5.633.6c.4.018.8.027,1.142.034a1,1,0,0,1,.629-.828,4.895,4.895,0,0,1,2.179-.516c.077,0,.156,0,.236,0a17.858,17.858,0,0,1,2.5.27,9.119,9.119,0,0,1,2.2.687,6.694,6.694,0,0,1,1.9,1.293,5.848,5.848,0,0,1,1.374,2.12,6.6,6.6,0,0,1,.406,2.425,8.032,8.032,0,0,1-.437,2.467A8.585,8.585,0,0,1,36.438,37.7,11.949,11.949,0,0,1,34.9,39.457a12.1,12.1,0,0,1-1.766,1.367,13.7,13.7,0,0,1-1.953,1.027,16.839,16.839,0,0,1-2.1.734,24.847,24.847,0,0,1-4.471.779C23.29,43.482,21.841,43.538,20.051,43.538Zm7.1-8.476-.052,0c-2.562.1-5.242.173-7.967.221.077.658.16,1.362.253,2.046.068.5.143,1.024.232,1.606.011.072.031.157.053.247a1.633,1.633,0,0,1,.072.555l-.013.089a.806.806,0,0,1,.352.305,1.206,1.206,0,0,1,.077.147v0l.706,0a33,33,0,0,0,5.679-.4l0-.046a.882.882,0,0,1,.3-.574A14.178,14.178,0,0,0,27,37.45c.011-.266.022-.541.04-.8.025-.365.051-.735.077-1.094v-.005Q27.13,35.3,27.147,35.062Zm-17.631,4.9h0l.05.008c.07.012.143.024.215.034a35.136,35.136,0,0,0,4.847.266c.464,0,.935,0,1.39-.007h0c.414,0,.843-.006,1.262-.007a10.335,10.335,0,0,1-.095-1.719c0-.215,0-.417-.005-.6l0-.1c-.038-.83-.065-1.675-.08-2.513-1.327.023-2.753.043-4.18.043-.548,0-1.059,0-1.562-.009l-.869-.014c.059.315.12.635.179.944h0c.126.658.257,1.338.369,2.012a1.333,1.333,0,0,1-.3,1.116,1.586,1.586,0,0,1-1.181.548ZM4.1,35.141h0a5.822,5.822,0,0,0,.389,1.479,4.813,4.813,0,0,0,1.9,2.233A7.941,7.941,0,0,0,9.16,39.9a1.037,1.037,0,0,1-.686-.893,27.005,27.005,0,0,1-.238-3.685c-1.254-.012-2.712-.036-4.137-.179Zm27.878-.264c-.231,0-.478,0-.719.012-.787.036-1.588.068-2.363.1L28.547,35l.027.4v.008c.033.475.066.965.1,1.448.016.215.028.437.039.652a13.378,13.378,0,0,0,.177,1.782,11.023,11.023,0,0,0,2.559-1.24,8.841,8.841,0,0,0,2.112-1.969,6.189,6.189,0,0,0,.785-1.359,8.667,8.667,0,0,1-1.949.158h-.422ZM8.742,28.908h0a7.57,7.57,0,0,0-2.311.936,4.928,4.928,0,0,0-1.708,1.769,5.283,5.283,0,0,0-.536,1.435,6.07,6.07,0,0,0-.134,1.547c1.394-.162,2.835-.224,4.191-.273.005-.278.011-.525.018-.756l.021-.644q0-.125.008-.254a14.255,14.255,0,0,1,.45-3.76Zm2.97-.3h0c-.421,0-.832.014-1.222.04-.291.02-.586.052-.878.095a13.943,13.943,0,0,1,.364,2.743c.03.455.059.885.107,1.3.052.442.12.919.209,1.456l.347-.016c1.65-.089,3.328-.154,4.95-.215l1.5-.058c0-.447,0-.843.009-1.212l.008-.4c.007-.3.007-.609.006-.934a16.639,16.639,0,0,1,.105-2.341l-.721-.081-.174-.02a40.944,40.944,0,0,0-4.606-.351Zm6.764.579h0c.035.289.06.584.083.87v0c.012.145.024.294.038.44.076.823.166,1.678.275,2.612l.09.761c2.367-.107,4.885-.229,7.924-.383l.373-.02.1-1.463c.067-.924.145-1.917.26-2.922l-.083-.03a1.345,1.345,0,0,1-.277-.158,40.7,40.7,0,0,1-6.321.413h-.027c-.723,0-1.5-.039-2.439-.122Zm9.7.072c.082.981.139,1.982.194,2.949.022.392.045.8.07,1.2l1.741-.093.87-.049c.314-.018.647-.057,1-.1a13.874,13.874,0,0,1,1.582-.124,4.031,4.031,0,0,1,1.111.134,2.9,2.9,0,0,0-1.12-2.684,4.329,4.329,0,0,0-1.672-.737,12.818,12.818,0,0,0-1.808-.228,11.625,11.625,0,0,1-1.969-.267Zm-3.606-5.049a3.387,3.387,0,0,1-2.533-.892,1.518,1.518,0,0,1-.428-.866,1.722,1.722,0,0,1,.129-.9,1.885,1.885,0,0,1,.581-.756,1.433,1.433,0,0,1,.869-.308,1.456,1.456,0,0,1,.825.27,2.051,2.051,0,0,0,1.151.272,8.386,8.386,0,0,0,2.243-.388l.056-.016a3.586,3.586,0,0,0,1-.481,2.376,2.376,0,0,0,.769-.821,1.345,1.345,0,0,0,.089-1.086,1.717,1.717,0,0,0-1.182-1.024,5.753,5.753,0,0,0-1.624-.258c-.1,0-.2-.005-.3-.005a17.5,17.5,0,0,0-2.338.21c-.5.068-1.024.139-1.54.178h-.017a.194.194,0,0,1-.187-.154.22.22,0,0,1,.094-.253,11.6,11.6,0,0,1,2.487-1.013,11.183,11.183,0,0,1,3.014-.463,4.736,4.736,0,0,1,2.688.684,3.129,3.129,0,0,1,1.321,2.455,4.138,4.138,0,0,1-.865,2.869,5.941,5.941,0,0,1-2.405,1.853l-.07.029a13.058,13.058,0,0,1-1.787.588A8.572,8.572,0,0,1,24.568,24.207Zm12.055-6.936a.9.9,0,0,1-.093,0l-.148-.014a1.335,1.335,0,0,1-.22-.036,1.46,1.46,0,0,1-.732-.5,1.226,1.226,0,0,1-.284-.835l.011-.175a5.611,5.611,0,0,0-.23-2.2,2.167,2.167,0,0,0-.571-.859,2.2,2.2,0,0,0-1.046-.5,1.99,1.99,0,0,0-.4-.041,1.732,1.732,0,0,0-1.441.8,3.125,3.125,0,0,0-.516,1.706.328.328,0,0,1-.322.318.294.294,0,0,1-.155-.044,2.153,2.153,0,0,1-.99-1.375,3.054,3.054,0,0,1,.133-1.727,3.511,3.511,0,0,1,1.3-1.691,3.892,3.892,0,0,1,2.038-.67c.073,0,.146-.005.218-.005A4.528,4.528,0,0,1,36.8,11.263a5.95,5.95,0,0,1,1.093,2.365,5.7,5.7,0,0,1-.03,2.622,1.429,1.429,0,0,1-.462.7A1.228,1.228,0,0,1,36.623,17.271ZM4.538,16.643a.441.441,0,0,1-.192-.047,1.467,1.467,0,0,1-.662-.632,2.165,2.165,0,0,1-.239-.894,4.216,4.216,0,0,1,.337-1.845,5.8,5.8,0,0,1,1.225-1.813,4.8,4.8,0,0,1,1.845-1.165A5,5,0,0,1,8.437,9.99a5.516,5.516,0,0,1,2.886.841,5.926,5.926,0,0,1,2.092,2.192.972.972,0,0,1,.809.975,2.712,2.712,0,0,1-.731,1.765,1.428,1.428,0,0,1-1.069.464,1.705,1.705,0,0,1-.956-.3,1.535,1.535,0,0,1-.609-.814l-.014-.049a2.677,2.677,0,0,0-.952-1.406A2.609,2.609,0,0,0,8.315,13.1,2.4,2.4,0,0,0,6.451,14,5.929,5.929,0,0,0,5.8,15.077a4.6,4.6,0,0,1-1,1.46A.4.4,0,0,1,4.538,16.643ZM.186,11.978a.134.134,0,0,1-.13-.126A10.288,10.288,0,0,1,.1,9.342a12.641,12.641,0,0,1,.621-2.53A12.951,12.951,0,0,1,1.838,4.456,10.906,10.906,0,0,1,3.365,2.467,8.776,8.776,0,0,1,5.874.767,7.63,7.63,0,0,1,9,0a3.653,3.653,0,0,1,1.953.5,3.234,3.234,0,0,1,1.321,1.71,1.434,1.434,0,0,1-.144,1.166,1.455,1.455,0,0,1-.937.738,3.6,3.6,0,0,1-.709.067,8.291,8.291,0,0,1-1.31-.139h0A8.322,8.322,0,0,0,7.847,3.9c-.107,0-.213,0-.315.012A5.474,5.474,0,0,0,4.63,4.97,7.147,7.147,0,0,0,2.948,6.9,21.485,21.485,0,0,0,1.777,9.172,17.557,17.557,0,0,1,.3,11.917.133.133,0,0,1,.186,11.978Zm38.9-2.5a1.947,1.947,0,0,1-.543-.076c-1.336-.387-1.686-1.325-2.092-2.411-.078-.209-.159-.424-.248-.641a5.485,5.485,0,0,0-1.747-2.233,8.121,8.121,0,0,0-4.748-1.435,7.528,7.528,0,0,0-2.133.289.123.123,0,0,1-.035.005.168.168,0,0,1-.144-.094.119.119,0,0,1,.011-.129c.1-.131.192-.256.279-.377A4.449,4.449,0,0,1,28.6,1.364,6.444,6.444,0,0,1,32.55.031a7.375,7.375,0,0,1,2.2.338,8.211,8.211,0,0,1,1.983.928,8.443,8.443,0,0,1,1.677,1.412A9.293,9.293,0,0,1,39.6,4.315a5.087,5.087,0,0,1,.276.638,6.465,6.465,0,0,0,.287.672,2.182,2.182,0,0,1,1.089,1.547,1.747,1.747,0,0,1-.063.783,1.9,1.9,0,0,1-.449.74L40.7,8.74l-.13.129A2.119,2.119,0,0,1,39.089,9.479Z" transform="translate(10.563 13.738)"/>
  </g>
  <g id="ACCESORIES" transform="translate(88.521 88.978)">
    <path id="_Ink-4" data-name="ðŸ– Ink" d="M41.108,22.826c-.428,0-.86-.018-1.284-.055a12.675,12.675,0,0,1-4.289-1.143,13.739,13.739,0,0,1-3.263-2.146,14.8,14.8,0,0,1-2.224-2.45,10.035,10.035,0,0,1-1.17-2.058l-.051-.131c-.077-.2-.15-.406-.228-.623a9.813,9.813,0,0,0-.973-2.16,2.749,2.749,0,0,0-1.85-1.272l-.414-.074a4.881,4.881,0,0,1-1.251-.37,2.275,2.275,0,0,1-.976-.895,2.711,2.711,0,0,1-.374-1.232l-.909.067c-1.275.27-5.86.509-9.481.662-4.047.171-7.967.28-8.539.28a6.691,6.691,0,0,1-2.147.485A1.625,1.625,0,0,1,.678,9.435a1.684,1.684,0,0,1-.63-.871A1.51,1.51,0,0,1,.172,7.5,3.387,3.387,0,0,1,2.026,6.131,13.009,13.009,0,0,1,4.3,5.453c.054,0,5.447.045,10.426.045,5.271,0,8.191-.047,8.681-.14a3.911,3.911,0,0,1,2.633-.776c.255-.016.519-.033.767-.06a11.545,11.545,0,0,1,3.441-1.484c.241-.091.454-.17.653-.241a25.461,25.461,0,0,1,6.157-1.286c.772-.073,1.573-.111,2.379-.111a30.421,30.421,0,0,1,4.11.293c.958.13,1.841.291,2.7.491a39.969,39.969,0,0,1,4.784.969l.32.083a15.494,15.494,0,0,0,3.863.63,7.659,7.659,0,0,0,1.292-.106A17.218,17.218,0,0,0,60.6,2.382l.17-.077A29.105,29.105,0,0,1,71.368,0a31.673,31.673,0,0,1,7.591.909,10.266,10.266,0,0,0,1.235.241l.031,0a3.935,3.935,0,0,1,1.224.221,2.282,2.282,0,0,1,.882.587,1.843,1.843,0,0,1,.433.809,1.866,1.866,0,0,1-.007.9,2.02,2.02,0,0,1-.444.831c-.019.63-.007,1.28.007,1.969v0a19.33,19.33,0,0,1-.26,4.507,19.03,19.03,0,0,1-1,5.23,9.382,9.382,0,0,1-1.817,3.124,7.574,7.574,0,0,1-4.121,2.274,9.913,9.913,0,0,1-2.19.258A7.068,7.068,0,0,1,71.36,21.7a11.729,11.729,0,0,1-3.1-.54,11.9,11.9,0,0,1-4.581-2.692A11.343,11.343,0,0,1,62.25,16.83a10.358,10.358,0,0,1-1.75-3.974,13.874,13.874,0,0,1-.261-4.243l.023-.194a6.793,6.793,0,0,0-2.7-.492c-.319-.011-.607-.021-.9-.021-.164,0-.313,0-.454.009-.454.051-.873.116-1.279.2a3.353,3.353,0,0,0-1.309.739l-.028.535a27.538,27.538,0,0,1-.522,3.99,14.1,14.1,0,0,1-.842,2.789,7.556,7.556,0,0,1-1.568,2.367,7.789,7.789,0,0,1-1.732,1.844,11.369,11.369,0,0,1-3.693,1.855A14.373,14.373,0,0,1,41.108,22.826ZM45.872,4.779h0a.8.8,0,0,0-.589.255.988.988,0,0,0-.26.565.8.8,0,0,0,.111.519.755.755,0,0,0,.491.321,2.838,2.838,0,0,1,1.824,1.19l.045.07a.8.8,0,0,0,.692.4A.947.947,0,0,0,49,7.627a.746.746,0,0,0-.043-.784,4.534,4.534,0,0,0-2.88-2.04.946.946,0,0,0-.2-.023ZM76.752,3.667a.913.913,0,0,0-.759.426.8.8,0,0,0-.087.621.975.975,0,0,0,.355.514l.036.026A1.6,1.6,0,0,1,76.969,6.3l0,.052a.814.814,0,0,0,.289.614.922.922,0,0,0,.59.2.846.846,0,0,0,.612-.242.766.766,0,0,0,.2-.577A2.971,2.971,0,0,0,78.212,4.9a3.8,3.8,0,0,0-1.062-1.107A.685.685,0,0,0,76.752,3.667Z" transform="translate(0 3.17)"/>
  </g>
</svg>
