<svg id="peep-79" xmlns="http://www.w3.org/2000/svg" width="240" height="324" viewBox="0 0 240 324">
  <g id="BODY" transform="translate(31.056 135.053)">
    <path id="_Skin" data-name="âœ‹ Skin" d="M164.418,158.416c4.083-.2,2.441-7.342,2.148-9.966-3.233-9.583-2.473-20.039-3.744-30.084-.792-9.377-1.81-18.725-2.666-28.1C158.474,71.25,146.4,32.53,132.623,26.3c-1.736-7.618-8.9-14.73-17.974-14.73C108.464,4.248,101.018-.907,91.468.134,87.521.313,83.694,4.5,79.913,5.309,77.8,5.6,59.005,4.849,55.241,7.086c-2.622,1.347-4.989,3.835-4.218,7,1.23,3.839-2.592-.315-10.566,3.782C24.2,27.641,33.913,40.71,34.344,41.115,24.2,55.238,15.329,66.7,11.225,83.958,8.566,96.774,8.865,110,6.637,122.887A114.079,114.079,0,0,1,3.337,136c-1.415,5.677-2.1,19.825-2.884,19.952-1.421.353.821,3.272,2.327,3.275,41.752,6.928,84.161.287,126.137-.8C140.747,158.021,152.589,157.926,164.418,158.416Z" transform="translate(2.642 -7.186)" fill="#d08b5b"/>
    <path id="_Jacket" data-name="ðŸ§¥ Jacket" d="M79.965,13.623c0,4.445,15.429,20.963,20.754,19.873q5.325-1.09,16.09-14.213v-5.66l-1.55-6.161c8.78.31,15.668,7.272,17.364,14.719,13.64,6.165,25.61,44.176,27.479,63.391l.054.576c.856,9.37,1.874,18.718,2.666,28.1,1.271,10.045.511,20.5,3.744,30.084l.019.163c.337,2.744,1.834,9.61-2.167,9.8-11.829-.49-23.671-.395-35.5.017-41.976,1.085-84.385,7.726-126.137.8-1.506,0-3.748-2.922-2.327-3.275.78-.126,1.468-14.275,2.884-19.952l.269-.9a109.048,109.048,0,0,0,3.031-12.221c2.228-12.882,1.929-26.112,4.588-38.928,4.1-17.262,12.972-28.72,23.119-42.843-.431-.4-10.147-13.474,6.113-23.243,7.974-4.1,11.8.056,10.566-3.782-.771-3.168,1.6-5.657,4.218-7C59.005.727,77.8,1.479,79.913,1.187A11.321,11.321,0,0,0,82.874,0L82.7.573Q79.965,9.749,79.965,13.623Z" transform="translate(2.642 -3.064)" fill="#9fd8e5"/>
    <path id="_Ink" data-name="ðŸ– Ink" d="M103.5,159.912a.489.489,0,0,1-.5-.478c-.614-8.906-1.013-17.776-1.4-26.354v-.008c-.274-6.1-.449-12.351-.533-19.121l-.345,0h-.017l-.51,0c-4.566.02-9.286.04-13.928.04-3.974,0-7.508-.015-10.805-.046l0,0a.206.206,0,0,1,.034.052,12.3,12.3,0,0,1,.639,4.719,23.331,23.331,0,0,1-.649,5.134,26.97,26.97,0,0,1-1.469,4.409,33.061,33.061,0,0,1-2.153,4.143,45.475,45.475,0,0,1-5.7,7.376l-.137.146c-.146.155-.3.313-.446.465l-.007.007a11.134,11.134,0,0,0-2.284,2.963,15.628,15.628,0,0,0-.963,3.509c-.058.3-.118.613-.181.912l-.036.168-1.2,5.543c-.081.376-.15.784-.222,1.217-.265,1.585-.565,3.382-1.661,4.381a2.217,2.217,0,0,1-1.5.62,2.366,2.366,0,0,1-2.133-1.58,5.029,5.029,0,0,1,.144-3.147h0c.046-.179.094-.363.136-.541l2.216-9.321a16.33,16.33,0,0,1,1.548-4.415,13.641,13.641,0,0,1,3.177-3.438l.013-.011a40.384,40.384,0,0,0,3.264-3.147,38.533,38.533,0,0,0,2.881-3.5,33.786,33.786,0,0,0,4.343-7.938A28.611,28.611,0,0,0,74.4,118.32c.138-.677.209-1.377.279-2.054a19.563,19.563,0,0,1,.309-2.192.27.27,0,0,1,.195-.191.119.119,0,0,1,.012-.1.108.108,0,0,1,.086-.048l6.743-.434c5.758-.371,11.921-.778,17.977-1.237l1.058-.076c-.075-7.759-.029-16.108.141-25.522.053-2.929.087-5.907.12-8.786v-.012c.055-4.789.111-9.741.256-14.611.119-3.989.378-7.932.641-11.6.222-3.092.553-6.218.874-9.241.089-.838.181-1.705.27-2.569a.149.149,0,0,1,.3,0l.295,2.847c.326,3.161.7,6.836.954,10.44.313,4.371.522,8.771.621,13.076.364,15.791.423,31.829.45,45.624,2-.139,4.078-.277,6.169-.412,1.237-.08,2.568-.163,4.187-.262l3.559-.216,1.465-.09c.137-.009.28-.021.418-.033h0c.265-.023.538-.047.8-.047a1.873,1.873,0,0,1,1.585.647,1.036,1.036,0,0,1,.158,1.225c-.557.9-1.385.928-2.344.962h-.011l-.192.007-2.931.116c-1.853.072-4.048.154-6.281.217-2.211.062-4.428.112-6.591.149-.022,6.409-.285,12.761-.575,19.245l-.13,2.886c-.392,8.716-.758,16.032-1.266,23.409A.489.489,0,0,1,103.5,159.912Zm-63.211-.834a1.314,1.314,0,0,1-1.168-.658l.148.1a.238.238,0,0,0,.045.025c0-.007-.15-.123-.48-.366l-.356-.46a2.879,2.879,0,0,1-.49-1.232,7.164,7.164,0,0,1,.029-1.655c.018-.189.036-.385.048-.571l.816-12.6c.235-3.618.486-7.277.73-10.817.419-6.083.852-12.374,1.205-18.57.231-4.06.45-8.864.319-13.714-.074-2.757-.172-4.871-.317-6.857-.183-2.508-.439-4.737-.784-6.816a.427.427,0,0,1,.093-.352.409.409,0,0,1,.306-.147.381.381,0,0,1,.325.193,29.516,29.516,0,0,1,1.885,3.469,31.3,31.3,0,0,1,1.392,3.614A39.469,39.469,0,0,1,45.6,99.325a62.7,62.7,0,0,1,.343,7.049c-.006,2.545-.129,5.109-.236,7.059-.272,4.963-.588,9.926-.916,15l-.5,7.664-1.245,19.214a5.876,5.876,0,0,1-.382,1.907,2.629,2.629,0,0,1-1.2,1.356,2.827,2.827,0,0,1-.488.335A1.463,1.463,0,0,1,40.294,159.078Zm-37.067-.312a2.013,2.013,0,0,1-1.251-.436,2.349,2.349,0,0,1-.772-1.113,22.616,22.616,0,0,1-1-4.862,43.2,43.2,0,0,1-.2-4.978,57.566,57.566,0,0,1,1.054-9.891c.8-4.394,1.921-8.8,3-13.055v0l0-.007c.5-1.965,1.015-4,1.494-6,.663-2.781,1.228-5.612,1.676-8.414s.8-5.66,1.037-8.517c.123-1.463.236-2.951.346-4.39v-.012c.335-4.408.681-8.966,1.37-13.414a60.69,60.69,0,0,1,1.959-8.547,58.564,58.564,0,0,1,3.2-8.162,105.241,105.241,0,0,1,8.288-13.808c1.907-2.762,3.872-5.394,5.84-7.822,2.1-2.59,4.276-5.042,6.472-7.287a2.511,2.511,0,0,1-1.212-.39,3.67,3.67,0,0,1-1.326-1.526,6.251,6.251,0,0,1-.569-1.959,26.852,26.852,0,0,1-.2-4.664,22.284,22.284,0,0,1,.689-4.613A17.18,17.18,0,0,1,36.5,18.288a14.826,14.826,0,0,1,2.7-2.527A13.606,13.606,0,0,1,42.5,14a12.034,12.034,0,0,1,3.85-.646c.115,0,.237,0,.374,0,.2,0,.4,0,.6.006h0c.2,0,.4.006.61.006a7.147,7.147,0,0,0,2.2-.27,3.988,3.988,0,0,0,2.056-1.715A14.987,14.987,0,0,0,53.43,8.87l.143-.343.033-.078a15.751,15.751,0,0,1,1.6-2.994,9.339,9.339,0,0,1,2.4-2.384A18.515,18.515,0,0,1,64.88.546L65.04.52A36.876,36.876,0,0,1,71.054,0a23.567,23.567,0,0,1,11.1,2.5.047.047,0,0,1,.022.054.047.047,0,0,1-.045.038h0l-1.678-.067c-2.026-.079-3.725-.132-5.433-.132-1.928,0-3.633.071-5.215.216a36.456,36.456,0,0,0-5.18.833l-.535.129a22.884,22.884,0,0,0-2.816.838,9.072,9.072,0,0,0-2.539,1.425A7.121,7.121,0,0,0,57.07,7.923a22.779,22.779,0,0,0-1.122,2.458l-.065.16-.092.223a13.245,13.245,0,0,1-1.25,2.378,7.067,7.067,0,0,1-1.877,1.91,6.794,6.794,0,0,1-2.592,1.019,20.6,20.6,0,0,1-2.785.269h0c-.424.022-.863.044-1.29.078a9.4,9.4,0,0,0-2.863.7,10.549,10.549,0,0,0-2.5,1.488,12.138,12.138,0,0,0-2.055,2.1,13.045,13.045,0,0,0-1.522,2.522,18.172,18.172,0,0,0-1.5,6.942,21.932,21.932,0,0,0,.111,3.646,5.741,5.741,0,0,0,.305,1.012c.107.272.307.729.45.729h.009a1.255,1.255,0,0,1,.172-.012,1.077,1.077,0,0,1,1.018.644c1.353-1.307,2.726-2.556,4.082-3.711a78.518,78.518,0,0,1,11.228-8,73.23,73.23,0,0,1,9.526-4.851H62.42a1.573,1.573,0,0,0-.733.177.109.109,0,0,1-.154-.055.1.1,0,0,1,.023-.116,3.511,3.511,0,0,1,1.191-.84,3.353,3.353,0,0,1,1.3-.25,4.7,4.7,0,0,1,1.058.129c.289-.092.553-.173.806-.247a.128.128,0,0,1,.036-.005.11.11,0,0,1,.1.083.122.122,0,0,1-.049.139l-.309.2A16.766,16.766,0,0,1,69.456,20.9l.02.013a69.546,69.546,0,0,1,7.733,6.324l.011.01.748.673.5.445a58.321,58.321,0,0,0,7.606,5.961,26.873,26.873,0,0,0,4.51,2.358c.307.121.654.231,1.022.347,1.254.4,2.675.845,3.165,1.951a1.3,1.3,0,0,1,.3,1.019,1.483,1.483,0,0,1-.636,1,2.18,2.18,0,0,1-1.693.649,8.714,8.714,0,0,1-2.968-.725,31.481,31.481,0,0,1-4.62-2.219,48.9,48.9,0,0,1-7.966-6c-1.706-1.543-3.375-3.176-4.989-4.756-.817-.8-1.661-1.626-2.5-2.434-.524-.5-1.052-1.02-1.561-1.52-.543-.532-1.1-1.083-1.664-1.618l-.545-.516c-.083-.078-.171-.162-.264-.25A10.9,10.9,0,0,0,63.74,20.04c-.61.364-1.23.726-1.831,1.077-.971.567-1.974,1.152-2.945,1.753C57,24.085,54.893,25.5,52.535,27.185a98.425,98.425,0,0,0-11.429,9.608c-1.6,1.558-3.182,3.22-4.715,4.94-1.479,1.659-2.952,3.42-4.377,5.234a132.46,132.46,0,0,0-7.841,11.174l-.369.587c-1.617,2.585-2.872,4.727-3.949,6.742a60.684,60.684,0,0,0-3.268,7.089,52.468,52.468,0,0,0-2.343,8.221,79.7,79.7,0,0,0-1.22,8.468c-.245,2.6-.419,5.24-.586,7.8-.2,3.01-.4,6.123-.724,9.175-.286,2.7-.714,5.519-1.309,8.6-.486,2.52-1.083,5.22-1.878,8.5l-.327,1.34-.2.8-.012.049v0a125.357,125.357,0,0,0-2.949,14.452,60.1,60.1,0,0,0-.5,8.361,58.9,58.9,0,0,0,.643,6.812l0,.013c.066.492.134,1,.2,1.5a1.689,1.689,0,0,1-.521,1.392,2.426,2.426,0,0,1-1.325.7A2.12,2.12,0,0,1,3.227,158.766Zm166.227-2.833a2.407,2.407,0,0,1-1.572-.561,2.271,2.271,0,0,1-.769-1.678,115.13,115.13,0,0,0-1.2-11.868c-.58-3.925-1.308-7.9-2.012-11.736v0c-.565-3.081-1.149-6.267-1.655-9.419-.613-3.819-1.1-8.018-1.486-12.839-.345-4.3-.582-8.682-.811-12.921v0c-.293-5.418-.6-11.021-1.128-16.5-.287-2.949-.615-5.628-1-8.191-.437-2.876-.938-5.532-1.532-8.12a85.652,85.652,0,0,0-3.333-11.085,74.544,74.544,0,0,0-4.906-10.479c-.99-1.739-2.017-3.377-3.053-4.87a49.273,49.273,0,0,0-3.535-4.528,60.846,60.846,0,0,0-6.994-6.912,1.511,1.511,0,0,1-1.083.424,1.98,1.98,0,0,1-1.064-.319,1.778,1.778,0,0,1-.719-.894,5.983,5.983,0,0,1-.254-1.516,8.475,8.475,0,0,0-.14-1.113,13.055,13.055,0,0,0-.733-2.33,15.313,15.313,0,0,0-2.65-4.13,16.676,16.676,0,0,0-1.877-1.8,17.754,17.754,0,0,0-2.127-1.488,13.629,13.629,0,0,0-2.941-1.2c-.6-.189-1.212-.384-1.81-.632a.065.065,0,0,1-.042-.061.058.058,0,0,1,.042-.054,5.189,5.189,0,0,1,1.7-.26,13.568,13.568,0,0,1,3.833.725,12.907,12.907,0,0,1,2.681,1.2,16.556,16.556,0,0,1,2.391,1.714,15.391,15.391,0,0,1,2.124,2.224,15.206,15.206,0,0,1,1.637,2.6l.087.177a17.4,17.4,0,0,1,1.15,2.9,6.32,6.32,0,0,1,.211,3.03c-.012.054-.026.106-.041.154a39.406,39.406,0,0,1,4.887,2.846,33.6,33.6,0,0,1,4.388,3.584,48.308,48.308,0,0,1,4.419,4.945,54.883,54.883,0,0,1,3.743,5.478,61.377,61.377,0,0,1,3.062,5.8c.886,1.918,1.708,3.951,2.443,6.041.7,1.98,1.338,4.077,1.906,6.233.533,2.022,1.021,4.168,1.45,6.378.76,3.915,1.367,8.17,1.857,13.009.454,4.488.754,8.918,1.01,13.036l.267,4.37c.324,5.255.629,9.669,1.069,14.127.514,5.2,1.154,9.792,1.959,14.03l.129.672c.4,2.042.835,4.123,1.26,6.136v0c.8,3.807,1.634,7.743,2.221,11.644.316,2.1.539,4.021.679,5.869a56.755,56.755,0,0,1,.157,5.906,2.239,2.239,0,0,1-.739,1.68A2.356,2.356,0,0,1,169.454,155.933Zm-26.106-1.754a1.718,1.718,0,0,1-1.29-.563c-1.192-1.287-1.277-3.369-1.352-5.207v0c-.021-.519-.041-1.01-.084-1.469-.163-1.741-.35-3.5-.557-5.239l-.106-.872c-.04-.321-.079-.649-.117-.966a46.365,46.365,0,0,0-.781-4.99,8.4,8.4,0,0,0-2.412-4.256c-.363-.361-.736-.721-1.1-1.068l0,0c-.887-.855-1.8-1.74-2.63-2.7a37.437,37.437,0,0,1-3.348-4.566,30.784,30.784,0,0,1-2.174-4.349l-.1-.248c-.109-.259-.228-.529-.355-.815a10.414,10.414,0,0,1-1.209-4.126.09.09,0,0,1,.152-.063,6.167,6.167,0,0,1,1.05,1.442c.115.195.234.4.357.585.516.793,1.056,1.567,1.607,2.3,1.135,1.513,2.421,2.96,3.64,4.3a52.067,52.067,0,0,0,3.724,3.684c.49.439,1.009.868,1.511,1.284a27.166,27.166,0,0,1,2.75,2.5c2.492,2.721,3.03,6.381,3.551,9.921v.008c.035.24.072.488.108.731l.062.406c.332,2.155.644,4.407.928,6.7v0c.125,1,.266,2.143.379,3.264l.034.345a7.943,7.943,0,0,1,.022,1.592,3.314,3.314,0,0,1-.511,1.491,2.136,2.136,0,0,1-.765.7A2.063,2.063,0,0,1,143.349,154.179Zm12.926-.751a2.284,2.284,0,0,1-1.849-1.058c-.7-1-.751-2.582-.8-3.978-.017-.5-.033-.969-.076-1.39-.2-1.931-.374-3.5-.551-4.926-.4-3.244-.941-6.513-1.462-9.562-.614-3.584-1.39-7.2-2.14-10.7-.634-2.958-1.29-6.016-1.845-9.039A115.632,115.632,0,0,1,145.391,92.3c-.025-4.722.312-9.516.638-14.152h0c.153-2.181.312-4.435.431-6.657.347-6.475.76-13.379,1.264-21.109a.158.158,0,0,1,.163-.153.149.149,0,0,1,.154.153c.035,1.625.07,3.264.11,5.225.066,3.206.109,6.468.15,9.623v0c.07,5.326.141,10.834.33,16.247.212,6.071.551,11.374,1.039,16.214.313,3.109.761,6.324,1.369,9.827.509,2.931,1.141,6.115,1.932,9.734.352,1.611.717,3.241,1.07,4.817l0,.015c.374,1.669.76,3.394,1.131,5.093.13.6.264,1.2.393,1.79l.015.068c.568,2.574,1.156,5.236,1.607,7.869a97.209,97.209,0,0,1,1.259,9.669l.027.423c.018.3.049.62.081.961a17.511,17.511,0,0,1,.116,2.278,4.113,4.113,0,0,1-.513,2.034A2.241,2.241,0,0,1,156.275,153.427ZM102.811,36.435a5.762,5.762,0,0,1-2.507-.61,13.7,13.7,0,0,1-2.239-1.416l-.163-.123c-1.658-1.256-3.145-2.454-4.546-3.664a71.564,71.564,0,0,1-8.4-8.437,58.5,58.5,0,0,1-3.568-4.71,31.034,31.034,0,0,1-2.858-5.164.245.245,0,0,1,.02-.232.209.209,0,0,1,.172-.1.218.218,0,0,1,.15.066c.793.755,1.539,1.54,2.164,2.209.008-.459-.023-.928-.052-1.381a11.864,11.864,0,0,1-.019-1.971c.042-.407.068-.835.093-1.249a13.238,13.238,0,0,1,.4-2.923A2.5,2.5,0,0,1,83.825,4.94a2.384,2.384,0,0,1,.631.086,2.623,2.623,0,0,1,1.565,1.329,2.066,2.066,0,0,1,.14,1.676,14.446,14.446,0,0,1-1.514,2.739h0c-.208.319-.423.65-.625.98a13.2,13.2,0,0,1-1.233,1.619,13.9,13.9,0,0,0-1.167,1.514l.774.835c.343.369.75.8,1.169,1.238l1.351,1.4c1,1.037,2.084,2.144,3.2,3.22,1.912,1.845,3.416,3.242,4.875,4.527,1.809,1.594,3.5,2.966,5.163,4.194.742.547,1.606,1.179,2.484,1.761l.315.209a3.38,3.38,0,0,0,1.768.7c.053,0,.107,0,.16-.007,1.452-.133,2.793-1.477,3.87-2.556.189-.189.368-.368.541-.535l.061-.059a65.7,65.7,0,0,0,7.932-9.022c.5-.694,1-1.413,1.517-2.2-.918-1.072-.916-2.977-.915-4.507v0c0-.363,0-.706-.011-1.013-.041-1.062-.047-2.141-.052-3.184v-.21l0-.228,0-.082a2.832,2.832,0,0,1,.43-1.956.082.082,0,0,1,.066-.028.119.119,0,0,1,.054.013,2.421,2.421,0,0,1,1.064,1.4l.009.022.056.13.029.067c.263.6.521,1.209.77,1.8v0l.009.021.209.5c.3.7.577,1.423.848,2.121l.128.331c.133.341.273.717.428,1.149.081.236.166.476.261.734l.021.019a2.193,2.193,0,0,1,.305.316,1.533,1.533,0,0,1,.787,1,3.214,3.214,0,0,1-.782,2.644l-.077.119a66.454,66.454,0,0,1-7.529,9.622c-1.376,1.451-2.848,2.863-4.377,4.2l-.266.231a15.9,15.9,0,0,1-2.168,1.621,6.86,6.86,0,0,1-2.513.945A5.2,5.2,0,0,1,102.811,36.435Z" transform="translate(0.423 -4.468)"/>
  </g>
  <g id="HEAD" transform="translate(78.592 38.043)">
    <path id="_Skin-2" data-name="âœ‹ Skin" d="M76,44.188c-.5-6.5.275-13.308-2.224-19.484C69.421,14.457,57.2,11.04,47.73,7.139,43.935,6.015,31.166,5.857,26.723,4.37,16.666,1,14.264-3.01,6.273,3.4A8.707,8.707,0,0,0,3.465,7.314l.025.007A2.172,2.172,0,0,0,3.9,9.192a13.092,13.092,0,0,0-3.137,13.6c5.8,12.3,5.528,18.948,3.659,32.169C1.98,67.3,7.558,71.812,16.8,78.527a2.28,2.28,0,0,0,.036,2.348C27.513,95.923,47.654,103.108,64.91,95.47c7-3.125,10.132-10.6,11.916-17.352A48.4,48.4,0,0,0,77.852,54.9,96.346,96.346,0,0,1,76,44.188Z" transform="translate(7.8 7.33)" fill="#d08b5b"/>
    <path id="bandana" d="M0,25.756,6.351,30,29.086,5.97,21.521,0S7.795,10.17,5.1,12.854,0,25.756,0,25.756Z" transform="translate(7.295 7.33)" fill="#9fd8e5"/>
    <path id="_Ink-2" data-name="ðŸ– Ink" d="M81.073,127.8a31.823,31.823,0,0,1-7.61-.956,39,39,0,0,1-5.17-1.683,3.087,3.087,0,0,1-1.322-.907,1.222,1.222,0,0,1-.274-.965,1.124,1.124,0,0,1,1.184-.847,2,2,0,0,1,.633.109,46.105,46.105,0,0,0,5.121,1.4,31.73,31.73,0,0,0,6.472.735,20.721,20.721,0,0,0,2.679-.166,30.726,30.726,0,0,0,8.753-2.317,19.92,19.92,0,0,0,3.83-2.266,18.58,18.58,0,0,0,3.314-3.253,21.74,21.74,0,0,0,2.685-4.425,30.724,30.724,0,0,0,1.943-5.784A48.279,48.279,0,0,0,104.4,99.15a78.572,78.572,0,0,0,.119-9.06c-.071-1.747-.211-3.523-.347-5.24-.158-2-.322-4.062-.376-6.092-.039-1.482-.057-2.988-.074-4.444-.026-2.174-.052-4.423-.15-6.633l-.054-1.259c-.064-1.486-.131-2.943-.241-4.422-.04-.174-.079-.352-.117-.523-.086-.392-.175-.8-.288-1.186a25.54,25.54,0,0,0-1.731-4.419,1.221,1.221,0,0,1-.527.241,8.476,8.476,0,0,1-1.513.143,6.428,6.428,0,0,1-2.674-.564,6.581,6.581,0,0,1-1.72-1.118,2.629,2.629,0,0,1-.546-.649h-.049a2.7,2.7,0,0,1-.932-.158A1.863,1.863,0,0,1,92,52.441a1.479,1.479,0,0,1,.063-.8l.019-.052-.046-.017a8.129,8.129,0,0,1-2.882,3.572,9.191,9.191,0,0,1-3.173,1.392,15.707,15.707,0,0,1-3.461.4l-.345,0a47.836,47.836,0,0,1-7.4-.759c-.8-.127-1.405-.247-1.971-.389l-.03.031c-.016.017-.032.034-.048.049a7.351,7.351,0,0,1-2.336,1.523,7.03,7.03,0,0,1-2.65.516,7.383,7.383,0,0,1-2.941-.618,10.423,10.423,0,0,1-2.193-1.3,15.208,15.208,0,0,1-1.886-1.737c-.018.7-.053,1.35-.108,1.972l-.024.259a5.169,5.169,0,0,1-1.258,3.384,3.093,3.093,0,0,1-2.219.86,5.3,5.3,0,0,1-1.592-.27,8.908,8.908,0,0,1-1.531-.663c0,.044,0,.092,0,.137.426,1.452.861,2.93,1.282,4.359l.009.03.1.333.1.336.1.34v0a15.115,15.115,0,0,1,.7,3.064,3.977,3.977,0,0,1-.909,3,2.526,2.526,0,0,1-1.906.847,3.3,3.3,0,0,1-.954-.149,7.933,7.933,0,0,1-2.855-1.929l0,0c-.167-.151-.324-.294-.484-.435l-.63-.546a71.529,71.529,0,0,1,2,8.135,52.227,52.227,0,0,1,.861,8.31.547.547,0,0,1-.54.541c-.058,0-.116,0-.175,0a5.179,5.179,0,0,1-1.891-.378,1.085,1.085,0,0,1-.116-.011,7.794,7.794,0,0,1-3.162-1.2,5.9,5.9,0,0,1,.257,2.209.2.2,0,0,1-.2.174.148.148,0,0,1-.152-.128,5.194,5.194,0,0,0-2.013-3.038,6.2,6.2,0,0,0-1.665-.907,5.421,5.421,0,0,0-1.833-.331,4.624,4.624,0,0,0-.862.08,6.652,6.652,0,0,0-3.667,2.087,7.622,7.622,0,0,0-1.205,1.763,7.75,7.75,0,0,0-.681,2.042,10.468,10.468,0,0,0,.294,4.733,11.977,11.977,0,0,0,.9,2.248,10.818,10.818,0,0,0,1.308,1.962,6.1,6.1,0,0,0,3.548,2.221,4.648,4.648,0,0,0,.725.057,4.419,4.419,0,0,0,1.243-.175,6.583,6.583,0,0,0,.644-.242l.136-.056a3.6,3.6,0,0,1,.565-.159,3.121,3.121,0,0,0,.6-.177,1.027,1.027,0,0,1,.424-.094.888.888,0,0,1,.764.415.9.9,0,0,1,.017.886,3.472,3.472,0,0,1-1.261,1.579,11.093,11.093,0,0,1,.834,1.24c.1.168.182.3.235.372a37.338,37.338,0,0,0,2.58,3.166,26.946,26.946,0,0,0,3.078,2.834l.46.364a10.855,10.855,0,0,1,2.715,2.817,1.415,1.415,0,0,1,.01,1.448,1.549,1.549,0,0,1-.517.554,1.384,1.384,0,0,1-.745.22h-.019a6.1,6.1,0,0,1-2.405-.542,8.608,8.608,0,0,1-2.074-1.344,19.265,19.265,0,0,1-3.236-3.833c-.246-.368-.486-.767-.713-1.188a2.538,2.538,0,0,1-.268.359l.2.528a1.186,1.186,0,0,1-.129,1.135,1.567,1.567,0,0,1-.592.5,1.729,1.729,0,0,1-.767.185,1.354,1.354,0,0,1-.664-.166,1.231,1.231,0,0,1-.5-.535,22.171,22.171,0,0,0-1.826-3,1.552,1.552,0,0,1-1.016-.619c-.18-.261-.37-.527-.554-.785-.39-.546-.793-1.111-1.148-1.692-.274-.261-.567-.523-.9-.8l-.045.04,0,0c-.072.064-.147.129-.218.2a11.212,11.212,0,0,1-1.446,2.433l-.126.161a12.334,12.334,0,0,1-1.947,2.018A5.724,5.724,0,0,1,29.206,109a.616.616,0,0,1-.115.011.707.707,0,0,1-.639-.442.522.522,0,0,1,.157-.6,20.109,20.109,0,0,1,1.68-1.312,14.59,14.59,0,0,0,2.266-1.892,14.229,14.229,0,0,0,1.564-2.051l.1-.168c.069-.113.143-.233.234-.376-.53-.362-1.068-.731-1.588-1.088a13.6,13.6,0,0,1-2.925,1.753,20.428,20.428,0,0,0-2.04,1.1l-.16.105a1.356,1.356,0,0,1-.761.246,1.329,1.329,0,0,1-.809-.288,1.743,1.743,0,0,1-.537-.705,1.45,1.45,0,0,1,.284-1.623,31.911,31.911,0,0,0,2.6-3.133h0c.294-.386.6-.784.9-1.169a8.448,8.448,0,0,1-.885-3.345c-.038-.342-.069-.694-.1-1v0h-.053a4.061,4.061,0,0,1-2.283-.753l-.263-.188a7.95,7.95,0,0,1-2.39.381l-.193,0a2.229,2.229,0,0,1-1.226-.388,2.149,2.149,0,0,1-.741-.907,2.323,2.323,0,0,1-.17-1.26,2.42,2.42,0,0,1,.571-1.241,4.417,4.417,0,0,1,3.376-1.451,5.1,5.1,0,0,1,1.9.367c.056-.029.116-.061.173-.093a2.053,2.053,0,0,1,.03-1.052l-.028-.189a4.892,4.892,0,0,1-.741-2,4.638,4.638,0,0,1,.071-1.7,2.891,2.891,0,0,1,.132-.386c.025-.063.05-.128.073-.193a3.746,3.746,0,0,1-.254-1.118c-.037-.044-.079-.1-.118-.15a3.03,3.03,0,0,1-.575-1.95,3.075,3.075,0,0,1,.71-1.773c0-.066.01-.13.018-.19-.048-.108-.093-.221-.135-.334a3.776,3.776,0,0,1-1.3-3.049,3.178,3.178,0,0,1,.812-1.863,1.059,1.059,0,0,1,.009-.739,8.853,8.853,0,0,1-.518-3.091,13.828,13.828,0,0,1,.407-3.261,2.884,2.884,0,0,1-.16-1.053,3.234,3.234,0,0,1,.929-2.1,3.138,3.138,0,0,1,.949-.671,2.752,2.752,0,0,1,1.143-.251h.031a2.753,2.753,0,0,1,.554.065l0-.038a4.275,4.275,0,0,1,.384-1.312.829.829,0,0,1-.257-.148,14.456,14.456,0,0,1-3.3,1.271,1,1,0,0,1-.242.03,1.159,1.159,0,0,1-.989-.607.928.928,0,0,1,.042-.975,7.12,7.12,0,0,1,.806-1.007,10.323,10.323,0,0,0-1.258.085,1.477,1.477,0,0,1-.19.012,2.056,2.056,0,0,1-1.056-.327,2.934,2.934,0,0,1-.864-.813c-.616.6-1.241,1.206-1.846,1.792l0,0a2.364,2.364,0,0,1-1.666.706,2.473,2.473,0,0,1-1.643-.645,2.664,2.664,0,0,1-.866-1.663,3.513,3.513,0,0,1-1.282-.638A21.4,21.4,0,0,1,11.13,57.4a22.5,22.5,0,0,1-4.01.527l-.1,0a2.226,2.226,0,0,1-1.2-.341A2.5,2.5,0,0,1,5,56.723a2.738,2.738,0,0,1-.368-1.276,2.5,2.5,0,0,1,.317-1.319A12.685,12.685,0,0,1,7.19,51.242,26.28,26.28,0,0,1,3,52.15a1.3,1.3,0,0,1-.171.011,2.328,2.328,0,0,1-1.179-.383A2.127,2.127,0,0,1,.821,50.9a9.407,9.407,0,0,1,.28-8.26c.042-.085.089-.168.135-.248h0l.033-.059c.143-.357.3-.708.462-1.044A5.343,5.343,0,0,1,.3,38.175a6.923,6.923,0,0,1,.509-3.434A2.206,2.206,0,0,1,.557,32.8a17.037,17.037,0,0,1,1.28-2.655,16.293,16.293,0,0,1,1.712-2.368,5.14,5.14,0,0,1-.58-2.46,6.273,6.273,0,0,1,.257-1.724,6.414,6.414,0,0,1,1.8-2.927,8.69,8.69,0,0,1,3.567-1.9,10.193,10.193,0,0,1,2.066-2.576l0-.005c.031-.068.062-.136.1-.2a7.268,7.268,0,0,1,2.584-2.786,8,8,0,0,1,1.674-.795,8.932,8.932,0,0,1,1.819-.411,2.661,2.661,0,0,1,.516-1.309,2.29,2.29,0,0,1,1.133-.822,7.754,7.754,0,0,1,1.149-2.3,3.264,3.264,0,0,1,1-.906,2.395,2.395,0,0,1,2.45,0,15.141,15.141,0,0,1,2,1.365,2.743,2.743,0,0,1,.963-.246l.091-.006,2.079-.106c.552-.245,1.112-.5,1.654-.751.3-.136.631-.289.957-.437a6.985,6.985,0,0,1,1.744-1.063,7.086,7.086,0,0,1,2.2-.531,18.845,18.845,0,0,1,1.822-.505,20.076,20.076,0,0,1,4.286-.481h.175c.031-.4.046-.794.043-1.183l0-.2a2.351,2.351,0,0,1,.63-1.652A2.652,2.652,0,0,1,43.27.029,2.578,2.578,0,0,1,43.652,0,2.263,2.263,0,0,1,45.09.505a3.123,3.123,0,0,1,.922,1.272l.024.061c.143.371.305.741.5,1.133A8.763,8.763,0,0,1,48.449,2.3,9.242,9.242,0,0,1,50.5,2.065a8.018,8.018,0,0,1,3.375.713,6.35,6.35,0,0,1,1.437.919,5.887,5.887,0,0,1,1.147,1.32,4.928,4.928,0,0,1,.658,1.6A6.483,6.483,0,0,1,57.251,8.3a18.193,18.193,0,0,1-.586,3.412c-.063.263-.127.535-.187.8l-.363,1.612a2.755,2.755,0,0,1,.874.9,2.176,2.176,0,0,1,.33,1.182l0,.064-.147,2.249a11.69,11.69,0,0,0,1.278-1.545c.269-.493.556-.971.854-1.42a2.48,2.48,0,0,1,2.09-1.2,2.67,2.67,0,0,1,2.235,1.258,2.47,2.47,0,0,1,.026,2.486,15.226,15.226,0,0,1-.949,1.6,14.258,14.258,0,0,0-.951,2.327,2.223,2.223,0,0,1,1.3,2.014A5.964,5.964,0,0,1,62.9,25.76a5.835,5.835,0,0,1-.611,1.538,6.44,6.44,0,0,1-1.011,1.324,7.532,7.532,0,0,1-1.35,1.077,2.274,2.274,0,0,1-1.223.369A2.161,2.161,0,0,1,58.183,30c-.09.121-.191.259-.287.4a12.738,12.738,0,0,1,2.133,2.209,38.478,38.478,0,0,1,5.6-.414,10.233,10.233,0,0,1,4.537-.945,17.541,17.541,0,0,1,2.941.266,29.322,29.322,0,0,1,2.951.718h0c.556.156,1.132.318,1.7.456a22.023,22.023,0,0,0,2.975.44c.653.066,1.327.134,1.99.243a8.91,8.91,0,0,1,2.891.975,6.8,6.8,0,0,1,2.188,1.878,7.529,7.529,0,0,1,3.7,1.264c1.656,1.058,3.333,2.145,4.955,3.2l.009.006c.894.579,1.818,1.177,2.731,1.766a2.63,2.63,0,0,1,1.172,2.781l-.012.072-.086.469.2.289.177.25a17.418,17.418,0,0,1,1.971,3.253,37.733,37.733,0,0,1,2.543,4.252,30.976,30.976,0,0,1,2.418,6.214c.132.507.281,1.081.375,1.644a4.317,4.317,0,0,1-.091,1.609h0c-.032.17-.065.345-.092.528-.066.454-.113.919-.159,1.369-.05.493-.1,1-.178,1.5a1.065,1.065,0,0,1-.424.71,1.381,1.381,0,0,1-.771.249c.21,1.6.36,3.2.508,4.834.222,2.49.364,4.995.464,6.9a5.458,5.458,0,0,0,2.8,1.864,4.052,4.052,0,0,0,1.05.133,8.264,8.264,0,0,0,2.743-.6.778.778,0,0,1,.265-.048.835.835,0,0,1,.712.45.915.915,0,0,1,.026.909,3.2,3.2,0,0,1-1.338,1.281,3.812,3.812,0,0,1-1.737.387,5.712,5.712,0,0,1-2.413-.567,5.155,5.155,0,0,1-2-1.612c.03.633.063,1.278.094,1.9v.008l0,.1.031.607c.063,1.178.14,2.385.214,3.553.187,2.945.381,5.99.386,8.984,0,1.613-.048,3.077-.155,4.475a39.993,39.993,0,0,1-.574,4.424,27.824,27.824,0,0,1-3.089,8.484,27.331,27.331,0,0,1-5.472,6.868,26.432,26.432,0,0,1-7.339,4.724,25.8,25.8,0,0,1-8.69,2.051C82.193,127.787,81.631,127.8,81.073,127.8Zm-39.26-25.47h0c-.213.046-.423.081-.624.106l.008.02c.059.145.119.3.179.449.173.1.345.189.51.27a4.353,4.353,0,0,1-.074-.845ZM31.131,99.477a4.714,4.714,0,0,1,.536.031v-.031l-.017-.006a.758.758,0,0,1-.1-.037,4.668,4.668,0,0,1-.572-.327l-.14.259-.06.112-.007.013C30.893,99.481,31.013,99.477,31.131,99.477ZM28.377,61.266c-.214.007-.289.108-.288.174a.052.052,0,0,0,.053.057c.023,0,.086-.014.168-.144A.646.646,0,0,1,28.377,61.266ZM52.5,32.2a15.456,15.456,0,0,0-6.23,1.667,28.816,28.816,0,0,0-5.434,3.483,36.982,36.982,0,0,0-3.868,3.591A47.464,47.464,0,0,0,33.589,45a44.2,44.2,0,0,0-1.4,4.29c-.167.613-.3,1.241-.42,1.849v0c-.069.339-.141.689-.219,1.033l-.067.3a4.652,4.652,0,0,0-.39,1.019,3,3,0,0,0,1.432.794.887.887,0,0,1,.44.255,9.323,9.323,0,0,0,1.053-2.347l.008-.038A48.569,48.569,0,0,1,36.785,48.1a57.962,57.962,0,0,1,4.341-5.137,41.709,41.709,0,0,1,5-4.484,31.565,31.565,0,0,1,4.334-2.756,30.122,30.122,0,0,1,4.721-1.993A9.889,9.889,0,0,0,52.5,32.2Zm-7.65,61.6-.067,0c-1.3-.089-2.187-1.084-3.044-2.047-.306-.344-.6-.669-.9-.957a20.287,20.287,0,0,0-4.126-3.031A.233.233,0,0,1,36.6,87.5a.236.236,0,0,1,.211-.2h.025a16.278,16.278,0,0,1,2.634.341,11.436,11.436,0,0,1,2.508.873l.146.071a11.98,11.98,0,0,1,2.525,1.589,4.251,4.251,0,0,1,.954,1.142,2.327,2.327,0,0,1,.29,1.369,1.434,1.434,0,0,1-.315.759A.937.937,0,0,1,44.853,93.8Z" transform="translate(-21.082 -20.501)"/>
  </g>
  <g id="FACE" transform="translate(112.183 77.354)">
    <path id="_Ink-3" data-name="ðŸ– Ink" d="M22.824,40.539a8.045,8.045,0,0,1-3.052-.61,8.621,8.621,0,0,1-1.992-1.145,8.487,8.487,0,0,1-1.622-1.636,1.676,1.676,0,0,1-.338-1.3,1.871,1.871,0,0,1,.728-1.172,1.793,1.793,0,0,1,1.067-.372,1.548,1.548,0,0,1,.238.018,1.648,1.648,0,0,1,1.1.73l.065.09A5.7,5.7,0,0,0,21.108,36.9a4.735,4.735,0,0,0,2.069.483,4.583,4.583,0,0,0,.513-.029,5.388,5.388,0,0,0,2.278-.8,10.668,10.668,0,0,0,1.93-1.611c.138-.141.284-.294.474-.5a.751.751,0,0,1,.394-.3.806.806,0,0,1,.256-.041.871.871,0,0,1,.714.373.8.8,0,0,1,.135.524,4.812,4.812,0,0,1-.57,1.864,6.221,6.221,0,0,1-1.22,1.567,7.841,7.841,0,0,1-1.847,1.288,7.69,7.69,0,0,1-2.05.7A7.548,7.548,0,0,1,22.824,40.539Zm2.148-12.17h0a7.373,7.373,0,0,1-2.63-.53,13.281,13.281,0,0,1-3.093-1.756,1.189,1.189,0,0,1-.432-.687,1.423,1.423,0,0,1,.061-.771,1.754,1.754,0,0,1,.521-.753,1.267,1.267,0,0,1,.812-.317,1.151,1.151,0,0,1,.628.193l.209.161,0,0a16.744,16.744,0,0,0,1.936,1.347,4.768,4.768,0,0,0,2.321.74,2.505,2.505,0,0,0,.981-.193,2.74,2.74,0,0,0,.913-.647,2.8,2.8,0,0,0,.531-2.255,4.26,4.26,0,0,0-1.13-2,8.241,8.241,0,0,0-1.711-1.381.531.531,0,0,1-.144-.61.8.8,0,0,1,.264-.38.809.809,0,0,1,.505-.167,1.076,1.076,0,0,1,.181.016,5.736,5.736,0,0,1,2.018.729,4.577,4.577,0,0,1,1.357,1.252,4.974,4.974,0,0,1,.866,3.322,5.475,5.475,0,0,1-.444,1.744,5.087,5.087,0,0,1-1,1.5A4.779,4.779,0,0,1,24.972,28.369ZM7.859,16.485a1.724,1.724,0,0,1-1.119-.439,1.744,1.744,0,0,1-.587-1.128,12.706,12.706,0,0,1,.067-3.308c.04-.321.081-.654.11-1.012a1.98,1.98,0,0,1,.75-1.415,2.31,2.31,0,0,1,1.421-.5,1.751,1.751,0,0,1,1.075.338,1.594,1.594,0,0,1,.594,1.057,8.877,8.877,0,0,1-.926,5.469,1.754,1.754,0,0,1-.619.716A1.427,1.427,0,0,1,7.859,16.485Zm25.119-.75a1.508,1.508,0,0,1-1.183-.507A4.624,4.624,0,0,1,31.074,14a5.342,5.342,0,0,1-.368-1.477,3.131,3.131,0,0,1,.853-2.687,1.772,1.772,0,0,1,.137-.208,1.933,1.933,0,0,1,1.487-.856,1.611,1.611,0,0,1,.452.067,2.175,2.175,0,0,1,1.453,1.268,4.486,4.486,0,0,1,.18,2.453,8.214,8.214,0,0,1-.744,2.314,1.5,1.5,0,0,1-.643.635A1.947,1.947,0,0,1,32.979,15.735ZM.278,7.854a.274.274,0,0,1-.229-.14.306.306,0,0,1-.018-.3A10.425,10.425,0,0,1,2.368,4.454,14.446,14.446,0,0,1,5.5,2.317a13.445,13.445,0,0,1,3.714-1.3l.4-.069A9.66,9.66,0,0,1,11.226.776a2.5,2.5,0,0,1,2,.746,1.7,1.7,0,0,1,.4,1.208,1.106,1.106,0,0,1-.4.789,3.08,3.08,0,0,1-2.112.62c-.166,0-.338,0-.5-.008H10.6c-.16,0-.341-.009-.521-.009s-.314,0-.452.012a14.274,14.274,0,0,0-3.143.536A21.357,21.357,0,0,0,.424,7.806.26.26,0,0,1,.278,7.854Zm38.247-1.6h0l-.167-.042A9.458,9.458,0,0,1,36.524,5.5l-.6-.293A16.537,16.537,0,0,0,33.8,4.3a25.089,25.089,0,0,0-4.845-1.07,1.979,1.979,0,0,1-.972-.369,1.457,1.457,0,0,1-.544-.828A1.482,1.482,0,0,1,27.609.786a1.581,1.581,0,0,1,.767-.661A1.725,1.725,0,0,1,29.03,0a1.926,1.926,0,0,1,.377.038l.3.062a21.676,21.676,0,0,1,5.232,1.7,10.579,10.579,0,0,1,2.3,1.514,6.719,6.719,0,0,1,1.627,2.1c.057.439,0,.548-.055.622L38.8,6.06l-.015.02a.421.421,0,0,1-.26.173Z" transform="translate(11.197 10.99)"/>
  </g>
  <g id="FACIAL_HAIR" data-name="FACIAL HAIR" transform="translate(104.577 109.479)">
    <path id="_Ink-4" data-name="ðŸ– Ink" d="M42.882,39.311h0c-1.731,0-3.459-.168-4.983-.316a56.53,56.53,0,0,1-12.609-2.759c-1.912-.645-3.883-1.412-6.028-2.346l-.884-.381a41.118,41.118,0,0,1-4.946-2.389,19.077,19.077,0,0,1-3.591-3.108l0,0c-.193-.2-.393-.4-.587-.6a65.614,65.614,0,0,1-5.726-6.4,20.7,20.7,0,0,1-2.081-3.166A11.613,11.613,0,0,1,.276,14.262C-.36,10.112.228,5.78.8,1.59.841,1.26.887.919.932.584A.183.183,0,0,1,1.107.436a.107.107,0,0,1,.108.078c0-.069-.008-.141-.013-.235A.257.257,0,0,1,1.27.085.292.292,0,0,1,1.482,0a.287.287,0,0,1,.284.2,25.019,25.019,0,0,0,5.528,9.84,30.424,30.424,0,0,0,2.577,2.473c.849.728,1.767,1.447,2.805,2.2,1.929,1.393,3.988,2.682,5.98,3.928h0c.414.259.842.527,1.261.791a1.071,1.071,0,0,1,.523-.279,11.792,11.792,0,0,1,1.891-4.11,18.258,18.258,0,0,1,2.987-3.312A24.96,24.96,0,0,1,41.276,5.826a21.037,21.037,0,0,1,3.954.367,18.335,18.335,0,0,1,3.759,1.141,16.3,16.3,0,0,1,4.4,2.8A16.519,16.519,0,0,1,56.7,14.177a17.309,17.309,0,0,1,1.346,2.9c.163.458,1.435,5.586.633,8.524a21.942,21.942,0,0,1-1.59,4.1,25.27,25.27,0,0,1-2.334,3.749A14.366,14.366,0,0,1,48.571,38.4a12.672,12.672,0,0,1-2.772.717A19.841,19.841,0,0,1,42.882,39.311ZM40.424,11.432a23.743,23.743,0,0,0-5.81.655A15.123,15.123,0,0,0,28.773,15a13.989,13.989,0,0,0-2.261,2.321,12.933,12.933,0,0,0-1.639,2.795,7.46,7.46,0,0,0,.067,2.638,19.623,19.623,0,0,0,5.081,2.575,17.716,17.716,0,0,0,5.606.927,16.686,16.686,0,0,0,1.925-.111c.3-.37.6-.793.921-1.24A18.746,18.746,0,0,1,40.4,22.5a4.412,4.412,0,0,1,2.438-1.382,3.359,3.359,0,0,1,.481-.035,3.645,3.645,0,0,1,2,.649,12.955,12.955,0,0,1,1.723,1.431,11.361,11.361,0,0,0,1.979,1.59c.108.062.23.125.374.194a7.765,7.765,0,0,0,3.805-1.188,3.811,3.811,0,0,0,1.253-1.37A5.4,5.4,0,0,0,55,20.668c-.058-.233-.121-.472-.189-.709a18.318,18.318,0,0,0-.874-2.425,13.449,13.449,0,0,0-1.261-2.242,8.552,8.552,0,0,0-1.45-1.611,6.573,6.573,0,0,0-1.844-1.122,17.315,17.315,0,0,0-4.708-.887l-.375-.036C42.891,11.5,41.623,11.432,40.424,11.432Z" transform="translate(-0.001 0)"/>
  </g>
</svg>
