<svg id="peep-99" xmlns="http://www.w3.org/2000/svg" width="240" height="324" viewBox="0 0 240 324">
  <g id="BODY" transform="translate(31.056 135.053)">
    <path id="_Skin" data-name="âœ‹ Skin" d="M17.631,161.246c12.936.362,25.157.762,38.068,0,20.661-1.278,81.295,1.026,94.622,0,1.006-.077,4.465,1.026,4.537,0,.586-7.145.966-79.435-.775-84.409S143.75,47.953,132.8,36.8c-3.053-3.012-7.7-4.179-10.264-7.66-2.213-3.8-2.041-6.024-4.226-8.021-.948-.867-3.184-1.218-4.846-2.421-1.671-1.661-.089-5.317-.775-7.63C111.279,5.3,106.072,1.591,100.381.718c-7.91-1.894-16.261-.1-20.05,6.113-1.41,2.314-.66,5.126-2.394,8.834.124,2.8-3.146,3.479-5.1,4.589l-3.881,3.924C57,30.908,42.93,34.543,32.452,43.586c-8.908,9.04-17.768,19.489-21.72,31.72A72.809,72.809,0,0,0,9.308,85.488C8.34,95.44,5.644,105.1,3.324,114.794.679,127.007-1.786,139.973,1.778,152.3,2.806,154.911,15.291,161.124,17.631,161.246Z" transform="translate(2.815 -11.413)" fill="#d08b5b"/>
    <path id="Path" d="M77.951,0l1.01.108V7.89L92.172,21.638,94.586,24.4q-2.159,7.7,4.348,7.7c6.507,0,1.476-1.891,2.7-4.451l.052-.1q1.33-2.629,9.106-11.152l5.946-9.943V4.633l.2.082a4.814,4.814,0,0,1,1.375.773c2.185,2,2.013,4.225,4.226,8.021,2.566,3.481,7.211,4.648,10.264,7.66,10.948,11.15,19.54,35.06,21.28,40.034s1.361,77.264.775,84.409c-.072,1.026-3.531-.077-4.537,0-13.328,1.026-73.961-1.278-94.622,0-12.911.762-25.132.362-38.068,0-2.34-.122-14.824-6.335-15.852-8.945-3.565-12.329-1.1-25.295,1.546-37.508l.229-.953C5.78,88.991,8.285,79.8,9.259,70.344l.049-.489a72.809,72.809,0,0,1,1.424-10.183c3.952-12.231,12.813-22.68,21.72-31.72C42.825,19,56.716,15.348,68.6,8.745l.359-.2L72.836,4.62l.119-.066c1.965-1.072,5.1-1.777,4.982-4.523L77.951,0Z" transform="translate(2.747 4.225)" fill="#fdea6b"/>
    <path id="_Ink" data-name="ðŸ– Ink" d="M23.716,154.549c-1.768,0-3.338-.057-4.8-.173A35.1,35.1,0,0,1,13.7,153.6a20.615,20.615,0,0,1-4.945-1.8A14.327,14.327,0,0,1,5.042,149c.252-.147.51-.295.759-.438l.014-.008c.811-.466,1.65-.948,2.447-1.469a.838.838,0,0,0,.35-.447.874.874,0,0,0,0-.515.843.843,0,0,0-.765-.638.794.794,0,0,0-.437.141c-.793.52-1.629,1-2.437,1.463-.34.2-.691.4-1.034.6a15.679,15.679,0,0,1-2.053-3.709A27.419,27.419,0,0,1,.463,137.33,64.393,64.393,0,0,1,0,129.358,112.81,112.81,0,0,1,1.411,112.64c.827-5.573,1.942-11.115,2.924-15.8l.15-.715c.212-1.007.425-2.032.632-3.023l0-.019C5.969,89.01,6.846,84.8,7.844,80.688c1.241-5.111,2.568-9.71,4.058-14.059.6.373,1.229.733,1.835,1.08.807.463,1.641.942,2.433,1.46a.793.793,0,0,0,.437.141.843.843,0,0,0,.765-.639.874.874,0,0,0,0-.515.828.828,0,0,0-.351-.447c-.794-.52-1.629-1-2.437-1.464h0c-.7-.4-1.419-.816-2.11-1.254.907-2.537,1.882-5,2.9-7.32,1.074-2.456,2.231-4.838,3.437-7.081a75.752,75.752,0,0,1,8.8-13.014A65.6,65.6,0,0,1,33.016,31.9a59.858,59.858,0,0,1,12.855-9.134,59.365,59.365,0,0,1,7.244-3.229,54.228,54.228,0,0,1,7.719-2.189,64.151,64.151,0,0,1,7.946-1.108H68.8a.2.2,0,0,1,.144.062.274.274,0,0,1,.07.2l0,.024.211.034a3.712,3.712,0,0,1,.545-1.515,7.816,7.816,0,0,1,2.6-2.129c.167-.1.324-.2.479-.293l.25-.156a12.148,12.148,0,0,1,4.045-1.82h.011a.051.051,0,0,1,.047.029.053.053,0,0,1-.01.057,17.421,17.421,0,0,1-2.409,2.151c-.3.239-.617.486-.917.734l-.26.217c-.111.091-.224.182-.345.278-.891.712-1.9,1.52-1.932,2.656a20.878,20.878,0,0,0,.212,2.97v0c.064.54.131,1.1.171,1.638.114,1.529.191,3.053.23,4.529a141.3,141.3,0,0,1-.509,16.245l2.121-1.421c3.36-2.25,6.652-4.439,9.993-6.484a18.672,18.672,0,0,1,3.17-1.6,9.762,9.762,0,0,1,3.463-.679l.162,0a8.766,8.766,0,0,1,2.206.323c-.46-.436-.915-.894-1.354-1.336-.326-.328-.663-.667-1-.993l-.019-.018c-1.26-1.227-2.563-2.5-3.854-3.752L82.6,22.565l-3.723-3.627c-.131-.128-.267-.257-.4-.382l0,0a9.629,9.629,0,0,1-1.421-1.558,3.418,3.418,0,0,1-.441-.916A2.97,2.97,0,0,1,76.489,15a10.867,10.867,0,0,1,.91-3.15c.137-.343.278-.7.4-1.041.066-.186.129-.376.192-.583.487-1.62.877-3.3,1.255-4.915.392-1.682.8-3.421,1.31-5.1A.276.276,0,0,1,80.826,0a.32.32,0,0,1,.316.291,27.737,27.737,0,0,1,.032,4.85c-.116,1.645-.323,3.266-.524,4.834-.062.485-.116.982-.168,1.463-.114,1.048-.232,2.131-.434,3.161-.035.15-.072.313-.108.484a1.6,1.6,0,0,0,.357.358c.063.052.121.1.165.142l.6.58,1.2,1.157,3.814,3.7.022.021,3.18,3.082L92.7,27.449c.353.342.725.684,1.085,1.016a24.469,24.469,0,0,1,2.462,2.491,2.076,2.076,0,0,1,.484,1.121,1.662,1.662,0,0,1-.349,1.157,1.884,1.884,0,0,1-1.259.687,2.911,2.911,0,0,1,.439.918,1.054,1.054,0,0,1-.2.908.954.954,0,0,1-.75.405.835.835,0,0,1-.3-.058,8.2,8.2,0,0,1-1.112-.562,7,7,0,0,0-1.3-.626,5.584,5.584,0,0,0-1.731-.269,5.975,5.975,0,0,0-.988.083,8.206,8.206,0,0,0-1.215.3,35.759,35.759,0,0,0,6.569,2.282,34.614,34.614,0,0,0,6.9.943c.332.011.667.017.994.017.623,0,1.245-.021,1.85-.061A26.556,26.556,0,0,0,109,37.471a28.746,28.746,0,0,0,3.6-1.156,18.334,18.334,0,0,0,1.692-.765l.048-.029.183-.107.007,0a15.78,15.78,0,0,0,2.269-1.464.564.564,0,0,0-.035-.434.746.746,0,0,0-.282-.288,5.822,5.822,0,0,0-2.219-.591h-.021c-1.607,0-3.348,1.075-4.747,1.939l-.435.267c-1.071.652-2.1,1.389-3.1,2.1l0,0c-.511.365-1.039.743-1.567,1.105a.2.2,0,0,1-.114.036.259.259,0,0,1-.218-.14.211.211,0,0,1,.007-.222,14.789,14.789,0,0,1,1.929-2.275,23.8,23.8,0,0,1,2.274-1.938l.636-.477a22.576,22.576,0,0,1,2.329-1.573,7.468,7.468,0,0,1,2.563-.959,4.58,4.58,0,0,1,.665-.048,7.087,7.087,0,0,1,2.263.427c.749.253,1.484.586,2.194.907h0c.416.188.81.366,1.2.524l3.4,1.393c.235.1.482.188.722.277h0c.383.143.779.29,1.153.462l-1.425-4.461c-.636-1.993-1.386-4.348-2.126-6.7l-.137-.437c-.085-.274-.17-.555-.253-.827l0-.009a29.153,29.153,0,0,0-2.255-5.86c-.249-.443-.534-.869-.81-1.282l-.021-.031-.082-.123a4.782,4.782,0,0,1-.329-.606,3.162,3.162,0,0,0-.533-.857,6.807,6.807,0,0,0-3.1-1.7.217.217,0,0,1-.169-.233.261.261,0,0,1,.233-.234,5.268,5.268,0,0,1,.55-.029,6.361,6.361,0,0,1,2.721.658l.43.205.115.054a7.249,7.249,0,0,1,2.543,1.67,12.988,12.988,0,0,1,1.978,3.15,34.528,34.528,0,0,1,1.329,3.5l.211.633a.306.306,0,0,1,.091-.01,7.292,7.292,0,0,1,1.329.285,8.45,8.45,0,0,1,1.137.386,32.38,32.38,0,0,1,5.327,2.877,36.089,36.089,0,0,1,4.694,3.744,45.4,45.4,0,0,1,7.554,9.444,63,63,0,0,1,5.593,12.09c1.609,4.585,2.809,9.268,3.675,12.837.627,2.582,1.25,5.272,1.854,7.994-.918.354-1.872.653-2.795.943a25.028,25.028,0,0,0-5.121,2.036.769.769,0,0,0-.379.9.886.886,0,0,0,.811.676.836.836,0,0,0,.421-.12,23.339,23.339,0,0,1,4.834-1.911c.856-.266,1.741-.542,2.593-.866,1.394,6.419,2.584,12.693,3.538,18.648.787,4.906,1.486,9.76,2.079,14.427.625,4.922,1.152,9.8,1.567,14.51.435,4.931.76,9.83.967,14.559.216,4.931.31,9.835.28,14.574a2.783,2.783,0,0,1-.363,1.321.732.732,0,0,0,.307-.245,1.074,1.074,0,0,1,.925-.526,1.265,1.265,0,0,1,1.087.629.985.985,0,0,1-.062,1.038l-.114.178a7.773,7.773,0,0,1-.918,1.2,4.428,4.428,0,0,1-1.253.908,5.618,5.618,0,0,1-1.619.5,12.862,12.862,0,0,1-1.7.134c-3.542.093-7.377.165-11.726.218-.2-1.587-.364-3.207-.519-4.773h0c-.254-2.563-.516-5.213-.974-7.794a.686.686,0,0,0-.707-.611.99.99,0,0,0-.74.346.846.846,0,0,0-.183.714c.459,2.582.721,5.233.975,7.8h0c.141,1.424.287,2.9.465,4.342-6.664.072-13.439.087-19.992.1l-5.086.012c-4.033.012-8.282.017-13.372.017-4.224,0-8.514,0-12.664-.008H96.04l-7.892-.006-4.852,0c-13.131,0-26.331-.043-39.232-.129l-3.11-.022c-.669-3.943-1.161-7.538-1.506-10.99-.389-3.9-.582-7.522-.589-11.079a.78.78,0,0,0-.266-.612.891.891,0,0,0-.582-.2.879.879,0,0,0-.622.243.789.789,0,0,0-.221.574c.007,3.554.2,7.175.583,11.071.341,3.456.829,7.05,1.491,10.988-.69,0-1.327,0-1.948,0-2.853,0-5.186.036-7.34.112l-1.576.056C26.988,154.5,25.346,154.549,23.716,154.549ZM128.1,141.609a.921.921,0,0,0-.818.574.77.77,0,0,0,.186.87l.407.406a10.456,10.456,0,0,1,1.826,2.218l.069.127a.73.73,0,0,0,.66.423.955.955,0,0,0,.787-.456.808.808,0,0,0,.012-.82,12.686,12.686,0,0,0-2.4-2.925l-.168-.168A.79.79,0,0,0,128.1,141.609Zm-36.055-.32a19.148,19.148,0,0,0-3.632.351.736.736,0,0,0-.489.3.758.758,0,0,0-.117.5.9.9,0,0,0,.874.846.965.965,0,0,0,.18-.018,16.642,16.642,0,0,1,6.365,0,.963.963,0,0,0,.18.017.828.828,0,0,0,.611-.265,1,1,0,0,0,.264-.581.756.756,0,0,0-.117-.5.737.737,0,0,0-.489-.3A19.148,19.148,0,0,0,92.045,141.29Zm-29.7-16.722a.85.85,0,0,0-.816.783.832.832,0,0,0,.1.533.777.777,0,0,0,.49.344l.519.13a14.693,14.693,0,0,0,3.556.542,7.916,7.916,0,0,0,1.728-.185.756.756,0,0,0,.49-.321.8.8,0,0,0,.111-.518.981.981,0,0,0-.259-.562.8.8,0,0,0-.587-.253.931.931,0,0,0-.163.015l-.042.008a6.067,6.067,0,0,1-1.325.141,13.384,13.384,0,0,1-3.311-.56l-.269-.068a.928.928,0,0,0-.228-.029Zm58.448-11.2a.855.855,0,0,0-.5.168.961.961,0,0,0-.329.412.757.757,0,0,0,.2.858,5.231,5.231,0,0,0,3.518,1.709h.029a.751.751,0,0,0,.578-.242.86.86,0,0,0,.208-.544.925.925,0,0,0-.18-.595.788.788,0,0,0-.587-.308l-.048,0a2.641,2.641,0,0,1-1.27-.381,5.4,5.4,0,0,1-1.053-.832A.8.8,0,0,0,120.8,113.372Zm-99.365-5.83h0a.878.878,0,0,0-.395.1L15.2,110.561a.713.713,0,0,0-.407.837.931.931,0,0,0,.865.721.878.878,0,0,0,.4-.1l5.841-2.922a.712.712,0,0,0,.407-.836.931.931,0,0,0-.865-.721Zm115.852,1.93a.749.749,0,0,0-.586.251.867.867,0,0,0-.2.558.915.915,0,0,0,.2.6.8.8,0,0,0,.616.287,7.419,7.419,0,0,1,2.981.858.886.886,0,0,0,.389.093.938.938,0,0,0,.876-.73.7.7,0,0,0-.411-.824,12.757,12.757,0,0,0-1.862-.747,7.439,7.439,0,0,0-1.971-.342ZM82.323,99.7h0a.779.779,0,0,0-.441.147c-.673.457-1.321.968-1.949,1.462-.522.411-1.062.836-1.612,1.228l-.333.232a.849.849,0,0,0-.346.458.9.9,0,0,0,.007.522.834.834,0,0,0,.751.627.78.78,0,0,0,.441-.147c.672-.457,1.32-.967,1.946-1.46h0c.627-.494,1.275-1,1.947-1.461a.849.849,0,0,0,.346-.458.9.9,0,0,0-.007-.522.834.834,0,0,0-.751-.627Zm63.936-8.993a5.611,5.611,0,0,1,2.214.331l.1.043a.893.893,0,0,0,.382.089.879.879,0,0,0,.577-.225.974.974,0,0,0,.31-.513.691.691,0,0,0-.416-.81,8.6,8.6,0,0,0-3.834-.6.778.778,0,0,0-.612.264.889.889,0,0,0-.2.581.8.8,0,0,0,.816.845h.671Zm-94.55-4.633a.861.861,0,0,0-.291.054,12.712,12.712,0,0,0-3.133,1.838h0c-.312.226-.635.459-.962.681a.849.849,0,0,0-.346.458.9.9,0,0,0,.007.522.834.834,0,0,0,.751.627.78.78,0,0,0,.44-.147c.335-.228.67-.478.994-.72a11.277,11.277,0,0,1,2.556-1.577l.142-.053a.844.844,0,0,0,.483-.417.947.947,0,0,0,.079-.582A.761.761,0,0,0,51.709,86.075ZM114.9,81.729a.871.871,0,0,0-.4.1c-.422.217-.826.478-1.217.73-.32.207-.651.42-.989.609l-.228.122a.723.723,0,0,0-.4.849.972.972,0,0,0,.3.5.829.829,0,0,0,.551.215.871.871,0,0,0,.4-.1c.421-.217.825-.478,1.215-.73.321-.207.652-.421.991-.609l.228-.122a.723.723,0,0,0,.4-.85.972.972,0,0,0-.3-.5A.829.829,0,0,0,114.9,81.729ZM88.671,66.624a.924.924,0,0,0-.825.578.76.76,0,0,0,.193.861A34.7,34.7,0,0,0,94.6,72.811l.422.254a.823.823,0,0,0,.426.126.763.763,0,0,0,.506-.2.97.97,0,0,0,.293-.468.825.825,0,0,0-.011-.5.8.8,0,0,0-.36-.422l-.619-.372c-.991-.6-2.045-1.246-3.042-1.939a23.277,23.277,0,0,1-2.808-2.257l-.174-.168A.8.8,0,0,0,88.671,66.624ZM41.892,64.25h0a.883.883,0,0,0-.69.325l-.023.029a16.688,16.688,0,0,1-2.338,2.42l-.159.136c-.078.067-.171.149-.26.228a4.2,4.2,0,0,1-1.868,1.179.886.886,0,0,0-.81.959.715.715,0,0,0,.725.736c.027,0,.056,0,.084,0a5.581,5.581,0,0,0,2.808-1.479l.056-.045a19.144,19.144,0,0,0,3.22-3.277.662.662,0,0,0,.1-.721.96.96,0,0,0-.849-.487Zm90.032-6.383h0a.808.808,0,0,0-.535.21l-.028.025a10.175,10.175,0,0,1-4.811,2.058c-.216.051-.439.1-.658.159a.773.773,0,0,0-.49.34.828.828,0,0,0-.105.531.853.853,0,0,0,.821.788.935.935,0,0,0,.224-.028l.861-.212a20.653,20.653,0,0,0,2.844-.877,8.067,8.067,0,0,0,2.509-1.563.742.742,0,0,0,.206-.844.942.942,0,0,0-.838-.587ZM98.856,48.6a.849.849,0,0,0-.815.782.833.833,0,0,0,.1.534.778.778,0,0,0,.491.345,26.089,26.089,0,0,1,5.152,1.863.883.883,0,0,0,.391.1.935.935,0,0,0,.871-.726.707.707,0,0,0-.41-.829,28.1,28.1,0,0,0-5.556-2.033.928.928,0,0,0-.228-.03ZM48.708,30.553h0a.706.706,0,0,0-.466.184.97.97,0,0,0-.283.441.9.9,0,0,0-.008.523.852.852,0,0,0,.345.46c.592.4,1.166.846,1.722,1.274a21.579,21.579,0,0,0,3.145,2.135.867.867,0,0,0,.4.1.825.825,0,0,0,.542-.209.975.975,0,0,0,.306-.485.723.723,0,0,0-.363-.851l-.034-.018a21.615,21.615,0,0,1-3.145-2.134c-.557-.428-1.132-.87-1.723-1.274a.777.777,0,0,0-.441-.148Zm53.77,5.43h0a1.624,1.624,0,0,1-.2-.012,1.957,1.957,0,0,1-.952-.379,1.687,1.687,0,0,1-.564-.746,1.592,1.592,0,0,1,.365-1.657,12.08,12.08,0,0,1,1.516-1.34c.336-.265.683-.539.994-.822.769-.7,1.547-1.443,2.313-2.223a53.41,53.41,0,0,0,4.316-4.965c1.423-1.867,2.612-3.575,3.634-5.22l.222-.361c.182-.3.416-.631.664-.982a13.609,13.609,0,0,0,1.3-2.095,2.969,2.969,0,0,0,.264-2.19.1.1,0,0,1,.017-.093.108.108,0,0,1,.086-.047.09.09,0,0,1,.03.005,1.572,1.572,0,0,1,.937.837,2.976,2.976,0,0,1,.031,1.877,13.978,13.978,0,0,1-.65,1.919l-.019.047-.107.272a36.685,36.685,0,0,1-3.621,6.839,57.689,57.689,0,0,1-4.878,6.381c-.76.862-1.563,1.717-2.388,2.54l-.31.307c-.139.136-.283.288-.435.449a9.837,9.837,0,0,1-1.177,1.112A2.326,2.326,0,0,1,102.479,35.983Z" transform="translate(1.901 -3.8)"/>
  </g>
  <g id="HEAD" transform="translate(78.592 38.043)">
    <path id="_Skin-2" data-name="âœ‹ Skin" d="M50.825,95.093a19.467,19.467,0,0,1-11.691-3.505C35.347,90.233,30.779,88.146,28,85.954c-1.082.277-2.377-.876-3.205-1.484-5.149-3.855-9.191-9.5-10.389-15.149-1.849,2.34-4.48,2.437-7,1.274-5.283-3-5.086-9.328-3.184-14.054-4-8.994-6.77-32.739-.666-42.322,1.248-1.434,3.081-2.291,4.4-3.762a27.125,27.125,0,0,1,3.656-3.614c4.167-3.18,11.344-4.872,15.838-5.669C46.214-2.891,60.628,4.417,77.62,10.581a30.035,30.035,0,0,1-3.881,6.772c4.219,1.579,2.281,5.128-.992,6.927L70.8,23.331c3.037,10.894,10.027,37.986,7.011,46.685C75.405,83.59,64.85,95.191,50.825,95.093" transform="translate(9.767 12.584)" fill="#d08b5b"/>
    <path id="_Hair" data-name="ðŸ’ˆ Hair" d="M3.784,55.473c-3.751-9.68-6.1-32.028-.223-41.253,1.248-1.434,3.081-2.292,4.4-3.762a27.113,27.113,0,0,1,3.656-3.614c4.167-3.18,11.344-4.873,15.838-5.669C46.214-2.891,60.628,4.417,77.62,10.582a30.026,30.026,0,0,1-3.881,6.772c4.219,1.579,2.281,5.128-.992,6.927l-1.438-.7c-.379-2.034-1.391-6.013-3.531-6.227C64.9,17.066,58.52,22.47,55.743,22.47S38.859,16.426,31.11,16.426,16.764,22.843,14.142,27.493s3.9,10.426,3.9,10.426-3.9,5.013-3.9,7.205.912,9.062.912,9.062a28.822,28.822,0,0,0-6.6-1.382c-2.4,0-4.171,2.667-4.171,2.667Zm11.27-1.285Z" transform="translate(9.698 12.681)" fill="#ecdcbf"/>
    <path id="_Ink-2" data-name="ðŸ– Ink" d="M52.184,97.992a25.336,25.336,0,0,1-4.083-.326,21.488,21.488,0,0,1-3.973-1.036,17.014,17.014,0,0,1-3.61-1.83,13.9,13.9,0,0,1-2.993-2.709.772.772,0,0,1-.177-.478.781.781,0,0,1,.161-.489.716.716,0,0,1,.572-.285.751.751,0,0,1,.371.1l.372.208a38.281,38.281,0,0,0,4.249,2.063A22.594,22.594,0,0,0,47.6,94.546a24.778,24.778,0,0,0,4.337.386,24.171,24.171,0,0,0,5.376-.606A23.443,23.443,0,0,0,65.2,90.9a26.475,26.475,0,0,0,6.124-5.782,32.244,32.244,0,0,0,4.627-8.336,35.847,35.847,0,0,0,2.166-9.345,41.939,41.939,0,0,0,.128-5.754c-.078-1.81-.257-3.682-.548-5.722-.539-3.778-1.373-7.5-2.252-11.293-2.021-8.724-4.014-16.342-6.093-23.291a1.667,1.667,0,0,1-.068-.648,2.5,2.5,0,0,0-.917-.169,3.734,3.734,0,0,0-1.2.219,14.2,14.2,0,0,0-3.654,2.23l-.059.045c-.371.282-.755.573-1.093.8a8.871,8.871,0,0,1-4.486,1.7c-.148.009-.3.014-.451.014a8.9,8.9,0,0,1-2.311-.326,16.167,16.167,0,0,1-2.207-.785c-.8-.343-1.589-.7-2.352-1.046l-.028-.013a44.809,44.809,0,0,0-6.767-2.627,36.472,36.472,0,0,0-9.5-1.262l-.334,0a30.067,30.067,0,0,0-4.409.349,21.248,21.248,0,0,0-4.2,1.091,15.909,15.909,0,0,0-3.768,2.022,14.216,14.216,0,0,0-3.12,3.143,10.562,10.562,0,0,0-1.673,3.263,6.762,6.762,0,0,0-.268,1.772,6.2,6.2,0,0,0,.259,1.849,9.671,9.671,0,0,0,.845,1.958,17.1,17.1,0,0,0,1.168,1.789l.287.388a4.919,4.919,0,0,1,.979,1.913,2.462,2.462,0,0,1-.374,1.789,8.557,8.557,0,0,1-.886,1.133l-.01.012a9.711,9.711,0,0,0-.649.792A10.33,10.33,0,0,0,17.077,44.6a10.653,10.653,0,0,0-.823,3.94,27.214,27.214,0,0,0,.392,4.787l.006.039c.158,1.113.321,2.265.386,3.417a.669.669,0,0,1-.135.46.653.653,0,0,1-.432.244.732.732,0,0,1-.1.006l-.066,0c.027.109.051.221.072.333-.108-.139-.226-.278-.35-.412l-.023-.012a.725.725,0,0,1-.3-.314,6.717,6.717,0,0,0-.554-.463,6.369,6.369,0,0,0-1.622-.887,5.288,5.288,0,0,0-1.752-.332h-.06a4.517,4.517,0,0,0-3.1,1.2A6.763,6.763,0,0,0,6.82,59.652,12.69,12.69,0,0,0,6.33,63.2a11.529,11.529,0,0,0,.508,3.633A5.717,5.717,0,0,0,8.886,69.8a5,5,0,0,0,2.817.943h.035a6.954,6.954,0,0,0,2.31-.544l.069-.025c.237-.085.481-.173.723-.251a1.307,1.307,0,0,1,.405-.067,1.157,1.157,0,0,1,.333.049,1.2,1.2,0,0,1,.607.427,1.48,1.48,0,0,1,.287.717,1.434,1.434,0,0,1-.113.76c-.025.057-.053.115-.085.176l.448.738a46.64,46.64,0,0,0,5.744,8.005,33.791,33.791,0,0,0,4.229,3.85l.22.164c.137.1.294.23.434.344l.141.117a2.652,2.652,0,0,0,1.335.757h.057a2.361,2.361,0,0,0,.317-.027l.021,0a2.619,2.619,0,0,1,.343-.027,1.057,1.057,0,0,1,.413.075,1.308,1.308,0,0,1,.584.517,1.275,1.275,0,0,1,.205.708,1.378,1.378,0,0,1-.2.716,2.028,2.028,0,0,1-.913.828,1.919,1.919,0,0,1-.769.153,2.544,2.544,0,0,1-.465-.045A8.292,8.292,0,0,1,25.4,87.179l-.146-.112a32.1,32.1,0,0,1-4.66-4.285,26.549,26.549,0,0,1-5.61-9.359,4.549,4.549,0,0,1-1.279.571,6.27,6.27,0,0,1-1.448.218c-.094,0-.191.005-.287.005a9.334,9.334,0,0,1-3.842-.865,8.18,8.18,0,0,1-3.037-2.488A10.4,10.4,0,0,1,3.4,67.329a14.6,14.6,0,0,1-.458-4.691,14.973,14.973,0,0,1,.947-4.462c.033-.085.066-.167.094-.236a52.2,52.2,0,0,1-2.013-6.287A61.415,61.415,0,0,1,.7,45.145,77.75,77.75,0,0,1,.044,31.938,62.048,62.048,0,0,1,1.412,19.576a11.687,11.687,0,0,1,2.376-4.9,13.618,13.618,0,0,1,2.359-2.049l.033-.025a13.878,13.878,0,0,0,2.04-1.726l.291-.32.087-.1.1-.112a24.107,24.107,0,0,1,3.384-3.274,23.015,23.015,0,0,1,4.857-2.714,43.059,43.059,0,0,1,5.708-1.925c1.748-.467,3.619-.879,5.887-1.3A66.623,66.623,0,0,1,40.566,0a56.5,56.5,0,0,1,6.841.41A51.382,51.382,0,0,1,54.171,1.7C58.084,2.725,61.93,4.148,65.65,5.525l.246.091.007,0,.8.3c2.811,1.038,5.668,2.087,8.432,3.1l.392.144,4.1,1.507a1.492,1.492,0,0,1,.752.636,1.072,1.072,0,0,1,.079.948,29.739,29.739,0,0,1-3.186,6,3.873,3.873,0,0,1,1.117,1.187,4.143,4.143,0,0,1,.6,2.067,4.084,4.084,0,0,1-.36,1.749,5.722,5.722,0,0,1-.982,1.475,14.033,14.033,0,0,1-2.807,2.257,1.44,1.44,0,0,1-.523.215c1.519,5.823,3.472,13.508,5.111,21.318l.1.5A84.057,84.057,0,0,1,81.2,60.328a43.779,43.779,0,0,1-.587,11.39,38.159,38.159,0,0,1-3.135,9.474,33.169,33.169,0,0,1-5.618,8.224,27.286,27.286,0,0,1-7.735,5.756,26.959,26.959,0,0,1-9.253,2.682A26.338,26.338,0,0,1,52.184,97.992ZM40.693,2.49h0a60.773,60.773,0,0,0-6.884.4C31.591,3.148,29.3,3.527,27,4.02l-.491.107c-2.078.454-3.653.855-5.106,1.3a31.3,31.3,0,0,0-4.9,1.917,17.557,17.557,0,0,0-4.254,2.889c-.548.517-1.053,1.092-1.541,1.647L10.7,11.9A18.563,18.563,0,0,1,8.46,14.172l-.775.622A8.906,8.906,0,0,0,4.84,18.078a19.263,19.263,0,0,0-1.27,4.805c-.324,1.984-.564,4.064-.714,6.183-.141,2-.206,4.093-.193,6.222a85.7,85.7,0,0,0,.732,10.357c.386,3.037.927,6.289,1.7,10.233A6.564,6.564,0,0,1,9.6,52.9a6.1,6.1,0,0,1,5.265,1.9,19.143,19.143,0,0,1-.913-7.851,12.44,12.44,0,0,1,1.463-4.587,14.151,14.151,0,0,1,1.6-2.278l.207-.239.024-.028a.856.856,0,0,0,.217-.346.428.428,0,0,0-.05-.277,2.986,2.986,0,0,0-.459-.634l-.007-.008-.038-.044c-.111-.13-.237-.277-.339-.414a15.2,15.2,0,0,1-2.123-3.854,10,10,0,0,1-.512-2.118,8.426,8.426,0,0,1,.014-2.212,11.223,11.223,0,0,1,1.572-4.183,18.925,18.925,0,0,1,2.791-3.53,15.406,15.406,0,0,1,3.407-2.575,19.414,19.414,0,0,1,3.938-1.647,29.859,29.859,0,0,1,8.529-1.131c.545,0,1.1.012,1.662.034a39.134,39.134,0,0,1,10.466,1.867A40.328,40.328,0,0,1,51.189,20.7l.35.169.567.278.041.02A19.033,19.033,0,0,0,55.929,22.7a5.514,5.514,0,0,0,1.315.165,4.993,4.993,0,0,0,1.343-.184,6.36,6.36,0,0,0,1.224-.487,17.228,17.228,0,0,0,2.274-1.5l.116-.085c.631-.463,1.284-.942,1.983-1.365l.142-.084a8.332,8.332,0,0,1,4.08-1.192H68.5a5.316,5.316,0,0,1,1.812.334,4.744,4.744,0,0,1,1.612,1.026,1.3,1.3,0,0,1,.371.615,1.685,1.685,0,0,1,.253.548c.34,1.28.692,2.611,1.047,3.956l.284-.184a5.436,5.436,0,0,0,2.171-2.092,1.839,1.839,0,0,0-.064-1.374.846.846,0,0,0-.291-.369.509.509,0,0,0-.283-.081l-.053,0a1.786,1.786,0,0,1-.227.015,1.6,1.6,0,0,1-.629-.125,1.414,1.414,0,0,1-.66-.559,1.275,1.275,0,0,1-.183-.832,1.45,1.45,0,0,1,.36-.777A23.419,23.419,0,0,0,77.585,12.6L71.5,10.34C69.721,9.679,67.37,8.808,65,7.933L63.809,7.5a98.117,98.117,0,0,0-12.017-3.8,47.642,47.642,0,0,0-5.521-.913,53.04,53.04,0,0,0-5.578-.29ZM16.743,65.054H16.7a2.921,2.921,0,0,1-1.848-.8c-.071-.055-.141-.109-.214-.164a7.6,7.6,0,0,0-1.8-1.016,8.325,8.325,0,0,0-3.022-.583,7.864,7.864,0,0,0-1.357.119.63.63,0,0,1-.43-.078.684.684,0,0,1-.281-.32.606.606,0,0,1-.011-.454.591.591,0,0,1,.308-.326,9.869,9.869,0,0,1,1.975-.7,8.985,8.985,0,0,1,2.071-.246,8.5,8.5,0,0,1,1.142.077l.176.025a9.284,9.284,0,0,1,3.15.981,3.483,3.483,0,0,1,.953.788,2.267,2.267,0,0,1,.49,1.053,1.514,1.514,0,0,1-.268,1.157A1.222,1.222,0,0,1,16.743,65.054Z" transform="translate(8.433 10.99)"/>
  </g>
  <g id="FACE" transform="translate(112.183 77.354)">
    <path id="_Ink-3" data-name="ðŸ– Ink" d="M22.824,40.539a8.045,8.045,0,0,1-3.052-.61,8.621,8.621,0,0,1-1.992-1.145,8.487,8.487,0,0,1-1.622-1.636,1.676,1.676,0,0,1-.338-1.3,1.871,1.871,0,0,1,.728-1.172,1.793,1.793,0,0,1,1.067-.372,1.548,1.548,0,0,1,.238.018,1.648,1.648,0,0,1,1.1.73l.065.09A5.7,5.7,0,0,0,21.108,36.9a4.735,4.735,0,0,0,2.069.483,4.583,4.583,0,0,0,.513-.029,5.388,5.388,0,0,0,2.278-.8,10.668,10.668,0,0,0,1.93-1.611c.138-.141.284-.294.474-.5a.751.751,0,0,1,.394-.3.806.806,0,0,1,.256-.041.871.871,0,0,1,.714.373.8.8,0,0,1,.135.524,4.812,4.812,0,0,1-.57,1.864,6.221,6.221,0,0,1-1.22,1.567,7.841,7.841,0,0,1-1.847,1.288,7.69,7.69,0,0,1-2.05.7A7.548,7.548,0,0,1,22.824,40.539Zm2.148-12.17h0a7.373,7.373,0,0,1-2.63-.53,13.281,13.281,0,0,1-3.093-1.756,1.189,1.189,0,0,1-.432-.687,1.423,1.423,0,0,1,.061-.771,1.754,1.754,0,0,1,.521-.753,1.267,1.267,0,0,1,.812-.317,1.151,1.151,0,0,1,.628.193l.209.161,0,0a16.744,16.744,0,0,0,1.936,1.347,4.768,4.768,0,0,0,2.321.74,2.505,2.505,0,0,0,.981-.193,2.74,2.74,0,0,0,.913-.647,2.8,2.8,0,0,0,.531-2.255,4.26,4.26,0,0,0-1.13-2,8.241,8.241,0,0,0-1.711-1.381.531.531,0,0,1-.144-.61.8.8,0,0,1,.264-.38.809.809,0,0,1,.505-.167,1.076,1.076,0,0,1,.181.016,5.736,5.736,0,0,1,2.018.729,4.577,4.577,0,0,1,1.357,1.252,4.974,4.974,0,0,1,.866,3.322,5.475,5.475,0,0,1-.444,1.744,5.087,5.087,0,0,1-1,1.5A4.779,4.779,0,0,1,24.972,28.369ZM7.859,16.485a1.724,1.724,0,0,1-1.119-.439,1.744,1.744,0,0,1-.587-1.128,12.706,12.706,0,0,1,.067-3.308c.04-.321.081-.654.11-1.012a1.98,1.98,0,0,1,.75-1.415,2.31,2.31,0,0,1,1.421-.5,1.751,1.751,0,0,1,1.075.338,1.594,1.594,0,0,1,.594,1.057,8.877,8.877,0,0,1-.926,5.469,1.754,1.754,0,0,1-.619.716A1.427,1.427,0,0,1,7.859,16.485Zm25.119-.75a1.508,1.508,0,0,1-1.183-.507A4.624,4.624,0,0,1,31.074,14a5.342,5.342,0,0,1-.368-1.477,3.131,3.131,0,0,1,.853-2.687,1.772,1.772,0,0,1,.137-.208,1.933,1.933,0,0,1,1.487-.856,1.611,1.611,0,0,1,.452.067,2.175,2.175,0,0,1,1.453,1.268,4.486,4.486,0,0,1,.18,2.453,8.214,8.214,0,0,1-.744,2.314,1.5,1.5,0,0,1-.643.635A1.947,1.947,0,0,1,32.979,15.735ZM.278,7.854a.274.274,0,0,1-.229-.14.306.306,0,0,1-.018-.3A10.425,10.425,0,0,1,2.368,4.454,14.446,14.446,0,0,1,5.5,2.317a13.445,13.445,0,0,1,3.714-1.3l.4-.069A9.66,9.66,0,0,1,11.226.776a2.5,2.5,0,0,1,2,.746,1.7,1.7,0,0,1,.4,1.208,1.106,1.106,0,0,1-.4.789,3.08,3.08,0,0,1-2.112.62c-.166,0-.338,0-.5-.008H10.6c-.16,0-.341-.009-.521-.009s-.314,0-.452.012a14.274,14.274,0,0,0-3.143.536A21.357,21.357,0,0,0,.424,7.806.26.26,0,0,1,.278,7.854Zm38.247-1.6h0l-.167-.042A9.458,9.458,0,0,1,36.524,5.5l-.6-.293A16.537,16.537,0,0,0,33.8,4.3a25.089,25.089,0,0,0-4.845-1.07,1.979,1.979,0,0,1-.972-.369,1.457,1.457,0,0,1-.544-.828A1.482,1.482,0,0,1,27.609.786a1.581,1.581,0,0,1,.767-.661A1.725,1.725,0,0,1,29.03,0a1.926,1.926,0,0,1,.377.038l.3.062a21.676,21.676,0,0,1,5.232,1.7,10.579,10.579,0,0,1,2.3,1.514,6.719,6.719,0,0,1,1.627,2.1c.057.439,0,.548-.055.622L38.8,6.06l-.015.02a.421.421,0,0,1-.26.173Z" transform="translate(11.197 10.99)"/>
  </g>
  <g id="FACIAL_HAIR" data-name="FACIAL HAIR" transform="translate(104.577 109.479)">
    <path id="_Background" data-name="ðŸŽ¨ Background" d="M41.85,42.978a46.6,46.6,0,0,1-10.782-1.229,37.909,37.909,0,0,1-9.993-3.884c-2.305-.6-4.166-2.152-5.966-3.654-.545-.455-1.108-.925-1.668-1.353-1.224-1.073-2.831-2.5-4.407-4.07a45.649,45.649,0,0,1-4.08-4.573,30.017,30.017,0,0,1-1.716-2.472,23.019,23.019,0,0,1-1.392-2.6A18.3,18.3,0,0,1,.86,16.43a15.539,15.539,0,0,1-.5-2.839C.089,10.243-.035,6.916.008,4.224.046,1.888.212.282.441.034A.089.089,0,0,1,.5,0a1.259,1.259,0,0,1,.959.543,4.46,4.46,0,0,1,.654,1.2,10.419,10.419,0,0,1,.492,1.739l.358.619a96.919,96.919,0,0,0,5.817,9.227,38.214,38.214,0,0,0,3.524,4.143,29.722,29.722,0,0,0,4.276,3.6c2.156.864,4.348,1.932,6.468,2.965,2.529,1.232,5.144,2.506,7.817,3.5a34.774,34.774,0,0,0,4.08,1.263,25.166,25.166,0,0,0,4.248.658A8.406,8.406,0,0,0,42.842,28a12.883,12.883,0,0,1,1.78-.96,5.461,5.461,0,0,1,2.145-.432,7.209,7.209,0,0,1,1.833.254c.45.109.919.238,1.372.362A16.481,16.481,0,0,0,54.205,28a5.344,5.344,0,0,0,3.326-1.052,21.605,21.605,0,0,0,3.864-3.537c.645-.695,1.312-1.413,2.013-2.064,0-.015.01-.022.017-.022a.022.022,0,0,1,.015.009,14,14,0,0,1,.527,4.354l-.153.67-.142.631c-1.186,5.273-2.53,11.248-7.791,14.1a13.972,13.972,0,0,1-2.234.951,8.075,8.075,0,0,1-2.434.427,4.608,4.608,0,0,1-1.189-.147A52.045,52.045,0,0,1,41.85,42.978ZM32.6,23.648a14.884,14.884,0,0,1-4.136-.581,16.239,16.239,0,0,1-3.981-1.783,4.06,4.06,0,0,1-1.253-.561c-.578-.359-.941-.71-.994-.963a.286.286,0,0,1,.169-.325.5.5,0,0,0,.129.015,11.1,11.1,0,0,0,3.572-1.538,25.939,25.939,0,0,0,3.935-2.645,8.084,8.084,0,0,1,3.31-3.058,9.4,9.4,0,0,1,4.182-.9,15.237,15.237,0,0,1,3.855.536,21.65,21.65,0,0,1,3.736,1.378A7.557,7.557,0,0,1,47.355,12.2a9.006,9.006,0,0,1,2.414-.317A12.642,12.642,0,0,1,54.8,13.009v0a16.929,16.929,0,0,1,3.808,2.941,45.582,45.582,0,0,1,3.161,3.606,1.752,1.752,0,0,1,.408,1.351.717.717,0,0,1-.412.489,5.757,5.757,0,0,1-2.142,1.072,9.737,9.737,0,0,1-2.6.323,16.119,16.119,0,0,1-4.451-.678,14.167,14.167,0,0,1-3.626-1.586,2.36,2.36,0,0,1-1.72-1.117c-.318-.4-.592-.744-1.039-.744a2.467,2.467,0,0,0-1.436.763,11.812,11.812,0,0,1-2.8,1.933,15.992,15.992,0,0,1-3.252,1.188,21.209,21.209,0,0,1-3.1.819A16.967,16.967,0,0,1,32.6,23.648Z" transform="translate(-2.949 -3.433)" fill="#e8e1e1"/>
    <path id="_Ink-4" data-name="ðŸ– Ink" d="M40.432,47.131h0A40.839,40.839,0,0,1,31.5,46.124a44.106,44.106,0,0,1-8.519-2.861,44.634,44.634,0,0,1-7.719-4.474,41.684,41.684,0,0,1-6.535-5.846,37.149,37.149,0,0,1-4.012-5.332,32.916,32.916,0,0,1-2.886-5.9A28.87,28.87,0,0,1,.154,8.655a.246.246,0,0,1,.253-.216.215.215,0,0,1,.227.216,35.056,35.056,0,0,0,.485,4.718,38.5,38.5,0,0,0,1.125,4.747A37.7,37.7,0,0,0,3.968,22.7a33.211,33.211,0,0,0,2.286,4.218,35.313,35.313,0,0,0,6.454,7.751,38.868,38.868,0,0,0,8.308,5.714,43.744,43.744,0,0,0,19.917,4.744,44.5,44.5,0,0,0,6.284-.446A18.648,18.648,0,0,0,53.9,43.549a10.365,10.365,0,0,0,4.167-2.97,16.261,16.261,0,0,0,2.589-4.513c.7-1.728,1.307-3.686,1.946-5.758l0-.005c.174-.565.354-1.15.54-1.742a2.615,2.615,0,0,1,1.421-.726.454.454,0,0,1,.391.18,1.449,1.449,0,0,1-.022,1.206c-.193.6-.38,1.185-.561,1.753v0c-1.595,5.007-2.854,8.962-5.361,11.652a11.471,11.471,0,0,1-4.9,3.073,25.231,25.231,0,0,1-7.965,1.055l-.4,0A37.758,37.758,0,0,1,40.432,47.131ZM38.245,33.342a10.684,10.684,0,0,1-3.838-.829l-.306-.1a29.239,29.239,0,0,1-4.108-1.681,14.2,14.2,0,0,1-3.562-2.469.091.091,0,0,1-.018-.1A.09.09,0,0,1,26.5,28.1a.1.1,0,0,1,.031.005,33.134,33.134,0,0,1,3.823,1.541c1.226.551,2.494,1.121,3.761,1.552a11.78,11.78,0,0,0,3.765.724,6.751,6.751,0,0,0,1.8-.234,6.148,6.148,0,0,0,1.719-.779c.367-.246.728-.514,1.077-.772a13.442,13.442,0,0,1,2.415-1.534,7.664,7.664,0,0,1,2.467-.417,10.635,10.635,0,0,1,4.368,1.141l.272.12a8.94,8.94,0,0,0,3.486,1.022,4.414,4.414,0,0,0,2.707-.993,14.1,14.1,0,0,0,3.153-3.719,22.382,22.382,0,0,1-3.832.333,20.851,20.851,0,0,1-3.091-.227,18.261,18.261,0,0,1-2.988-.7A14.332,14.332,0,0,1,46.2,22.178a13.372,13.372,0,0,1-5.414,3.9,17.8,17.8,0,0,1-6.614,1.19,23.061,23.061,0,0,1-3.334-.248,25.361,25.361,0,0,1-3.281-.709,25.712,25.712,0,0,1-3.12-1.114,23.7,23.7,0,0,1-2.851-1.464,1.422,1.422,0,0,1-.2.014,2.037,2.037,0,0,1-.946-.254,1.389,1.389,0,0,1-.633-.634.8.8,0,0,1,.228-.906,4.163,4.163,0,0,1,2.231-.637,6.893,6.893,0,0,0,1.592-.28,7.3,7.3,0,0,0,2.5-1.551,20.435,20.435,0,0,0,1.933-2.144,21.133,21.133,0,0,1,1.9-2.114,7.635,7.635,0,0,1,2.452-1.579,12.538,12.538,0,0,1,5.073-1.088,11.3,11.3,0,0,1,3.321.487A9.788,9.788,0,0,1,44,14.52l.221.05a5.79,5.79,0,0,0,1.3.173,3.935,3.935,0,0,0,.4-.02,11.834,11.834,0,0,1,2.489-.987,9.143,9.143,0,0,1,2.322-.308c2.506,0,4.932,1.092,7.417,3.337a46.276,46.276,0,0,1,5.7,6.7l.154.207a.559.559,0,0,1,.437.216.386.386,0,0,1,.059.341l.136.146A8.263,8.263,0,0,1,63.5,26.44,6.839,6.839,0,0,1,61.8,28.076a11.57,11.57,0,0,1-3.064,3,5.549,5.549,0,0,1-2.979.859,9.34,9.34,0,0,1-2.932-.554c-1.037-.342-2.172-.824-3.373-1.335l-.884-.375a6.765,6.765,0,0,0-1-.077,5.624,5.624,0,0,0-2.462.565,13.478,13.478,0,0,0-2,1.254l-.079.056a12.669,12.669,0,0,1-2.094,1.289A6.322,6.322,0,0,1,38.245,33.342Zm.03-19.141h0a11.108,11.108,0,0,0-3.627.588,9.553,9.553,0,0,0-3.207,1.85,27.907,27.907,0,0,0-1.88,2.174,20.381,20.381,0,0,1-2.631,2.868,7.968,7.968,0,0,1-1.616,1.069,6.981,6.981,0,0,1-1.977.63,20.988,20.988,0,0,0,10.315,2.757,18.349,18.349,0,0,0,3.307-.295,15.967,15.967,0,0,0,3.142-.911,13.5,13.5,0,0,0,5.3-3.827.438.438,0,0,1,.451-.314.791.791,0,0,1,.427.134.575.575,0,0,1,.255.344,19.674,19.674,0,0,0,5.045,2.54,17.754,17.754,0,0,0,5.614.933,16.068,16.068,0,0,0,2.713-.229,16.67,16.67,0,0,0,2.247-.531l-.7-.959a34.518,34.518,0,0,0-4.773-5.564A9.211,9.211,0,0,0,50.571,14.8a7.921,7.921,0,0,0-2.242.335A10.866,10.866,0,0,0,45.9,16.21a.154.154,0,0,1-.069.018c-.122,0-.168-.192-.179-.251l-.087.064a1.018,1.018,0,0,0,.13.164c.111.125.249.281.216.356-.013.03-.053.045-.118.045A13.183,13.183,0,0,0,38.276,14.2ZM63.242,25.315c-.129.037-.269.072-.415.105a.557.557,0,0,1,.088.1c.112-.058.234-.121.361-.181Zm-45.084-.206a.909.909,0,0,1-.224-.028,11.5,11.5,0,0,1-2.99-1.44c-.183-.11-.355-.215-.531-.318a15.265,15.265,0,0,1-3.5-2.481,19.387,19.387,0,0,1-2.678-3.155A50.6,50.6,0,0,1,4.3,10.352c-.366-.78-.744-1.587-1.124-2.362A20.717,20.717,0,0,0,2.16,5.781C1.368,4.212.55,2.59.689.979l0-.2C.688.254.723,0,.8,0c.107,0,.279.564.431,1.062a6.965,6.965,0,0,0,.256.753c.417.751.813,1.51,1.2,2.243.585,1.122,1.191,2.283,1.87,3.41.673,1.211,1.248,2.3,1.8,3.344a35.572,35.572,0,0,0,4.495,7.149,19.408,19.408,0,0,0,3.2,2.875A35.349,35.349,0,0,0,18.8,23.682a.71.71,0,0,1,.219.82A.94.94,0,0,1,18.158,25.109Z" transform="translate(-3.377 -6.341)"/>
  </g>
  <g id="ACCESORIES" transform="translate(88.521 88.978)">
    <path id="_Ink-5" data-name="ðŸ– Ink" d="M42.408,26.145a15.918,15.918,0,0,1-2.793-.253,15.741,15.741,0,0,1-2.734-.744,10.37,10.37,0,0,1-4.358-2.879,15.2,15.2,0,0,1-2.475-6.711,23.165,23.165,0,0,1-.274-4.158A16.964,16.964,0,0,1,30.3,7.469l-.013-.005-.022-.009c-.015.148-.228.272-.614.36a6.586,6.586,0,0,1-1.372.124c-1.189,0-2.569-.221-2.974-.716a.459.459,0,0,1-.106-.395c-2.517.045-5.246.21-8.34.505-2.761.263-5.559.6-8.265.933-1.867.227-3.8.462-5.707.671-.9.084-.946.727-.989,1.348a2.628,2.628,0,0,1-.122.75.735.735,0,0,1-.525.465H1.211a1.149,1.149,0,0,1-.87-.33,1.346,1.346,0,0,1-.332-.819A3.2,3.2,0,0,1,.5,8.491a2.918,2.918,0,0,1,.65-.758A1.894,1.894,0,0,1,2,7.326c1.86-.194,3.767-.452,5.612-.7A90.487,90.487,0,0,1,19.562,5.549a34.632,34.632,0,0,1,5.839.459,1.9,1.9,0,0,1,1.605-.689,8.127,8.127,0,0,1,1.894.319c.337.085.656.165.93.206a3.682,3.682,0,0,1,1.331-2.2,8.5,8.5,0,0,1,2.788-1.472A19.718,19.718,0,0,1,37.7,1.348a33.121,33.121,0,0,1,4.229-.257c4,0,8,.634,10.183,1.615,4.014-.462,8.178-.787,12.206-1.1h.006c1.629-.127,3.313-.258,4.94-.4A23.4,23.4,0,0,1,76.369,0,14.878,14.878,0,0,1,80.65.594c.067,0,.126-.006.179-.006.349,0,.4.078.5.219.02.028.042.059.069.093a5.5,5.5,0,0,1,1.97,1.51,5.707,5.707,0,0,1,1.186,2.339,6.078,6.078,0,0,1,2.648-.527,12.754,12.754,0,0,1,1.654.121,1.842,1.842,0,0,1,.629.428.476.476,0,0,1,.127.42.84.84,0,0,1-.373.465,3.209,3.209,0,0,1-.78.381,6.548,6.548,0,0,1-2.063.352c-.847,0-1.419-.2-1.609-.571a18.68,18.68,0,0,1,0,4.537A22.044,22.044,0,0,1,83.643,15.3a16.2,16.2,0,0,1-2.406,4.465,10.412,10.412,0,0,1-3.76,3.086A9.942,9.942,0,0,1,73.083,23.9a9.19,9.19,0,0,1-3.672-.76,9.508,9.508,0,0,1-3.069-2.132,11,11,0,0,1-2.95-8.123.808.808,0,0,1-.525-.43,2.645,2.645,0,0,1-.235-1.2,9.205,9.205,0,0,1,.143-1.588,18.788,18.788,0,0,1,.761-2.961,26.2,26.2,0,0,0-3.957-.374,11.8,11.8,0,0,0-3.616.525,8.279,8.279,0,0,1-.044,4.115,26.88,26.88,0,0,1-1.794,5.435,27.509,27.509,0,0,1-2.937,5.143,14.96,14.96,0,0,1-1.708,1.958A7.435,7.435,0,0,1,47.716,24.8a7.193,7.193,0,0,1-2.373,1.016,12.279,12.279,0,0,1-2.934.332h0ZM40.583,3.13a21.694,21.694,0,0,0-4.143.3,9.253,9.253,0,0,0-3.7,1.465,4.061,4.061,0,0,0-.719,1.238,9.274,9.274,0,0,0-.469,1.736,19.685,19.685,0,0,0-.219,4.388,24.009,24.009,0,0,0,.69,4.641,12.353,12.353,0,0,0,1.539,3.733,8.235,8.235,0,0,0,2.973,2.3,13.31,13.31,0,0,0,2.562,1.009,11.179,11.179,0,0,0,2.972.419,9.226,9.226,0,0,0,3.153-.543,9.6,9.6,0,0,0,3.1-1.876,14.148,14.148,0,0,0,2.823-3.581,26.135,26.135,0,0,0,2.312-5.657A10.526,10.526,0,0,0,54.3,8.9a4.782,4.782,0,0,0-.766-2.7,4.952,4.952,0,0,0-1.465-1.4,8.393,8.393,0,0,0-2.1-.929,15.715,15.715,0,0,0-2.608-.526,27.987,27.987,0,0,0-3-.189c-.184,0-.374,0-.581,0-.51,0-1.02-.008-1.56-.016H42.2C41.674,3.138,41.131,3.13,40.583,3.13Zm36.03-.983a23.411,23.411,0,0,0-4.336.328A11.568,11.568,0,0,0,68.241,3.97a6.958,6.958,0,0,0-2.782,3.362,9.976,9.976,0,0,0-.6,2.126,12.823,12.823,0,0,0-.176,2.217,1.283,1.283,0,0,1-.142.782,1.028,1.028,0,0,1-.487.41,16.192,16.192,0,0,0,1.326,4.162,10.8,10.8,0,0,0,2.058,2.938,8.1,8.1,0,0,0,2.558,1.742,7.229,7.229,0,0,0,2.826.575h0a8.534,8.534,0,0,0,6.118-2.809,14.854,14.854,0,0,0,3.685-8.213,18.3,18.3,0,0,0,.31-4.11A7.715,7.715,0,0,0,82.6,5.27a4.556,4.556,0,0,0-.841-1.562A4.031,4.031,0,0,0,80.152,2.57a6.834,6.834,0,0,0-2.518-.42l-.251,0C77.107,2.149,76.855,2.147,76.612,2.147Zm-23.7,1h0a7.42,7.42,0,0,1,1.745,1.463,6.15,6.15,0,0,1,1.174,1.87,6.5,6.5,0,0,1,2.387-.945,13.124,13.124,0,0,1,2.6-.226c.322,0,.662.008,1.037.024.114.007.233.011.36.016a4.3,4.3,0,0,1,1.8.322,8.689,8.689,0,0,1,1.235-1.8A8.468,8.468,0,0,1,66.81,2.481c-.641.049-1.3.1-1.928.15h0c-3.377.266-6.868.54-10.263.54C54.033,3.171,53.46,3.163,52.912,3.147Z" transform="translate(-0.423 2.113)"/>
  </g>
</svg>
