<svg id="peep-66" xmlns="http://www.w3.org/2000/svg" width="240" height="324" viewBox="0 0 240 324">
  <g id="BODY" transform="translate(31.056 135.053)">
    <path id="_Skin" data-name="âœ‹ Skin" d="M120.408,54.524A22.062,22.062,0,0,1,115.194,52c-4.644-3.458-7.673-8.663-10.534-13.594a91.18,91.18,0,0,1-8.887-22.786c-.853-3.425-1.143-7.4-3.08-10.433C88.3-1.17,75.42-.346,68.58.77,64,1.581,63.053,6.709,62.013,10.5A79.865,79.865,0,0,0,60.1,20.076a23.91,23.91,0,0,1-3.629,1.877C43.194,26.026,40.86,33.578,35.788,45.244,27.221,62.2,3.974,68.84.462,88.907c-2.262,13.248,4.171,25.712,10.8,36.726,6.177,12.03,14.8,17.8,28.536,14.962,12.882-2.891,25.262-7.727,37.918-11.464,6.13-1.508,12.249-5.429,18.7-4.062a163.977,163.977,0,0,0,40.551,4c19.116.773,19.113-17.581,17.151-31.8-1.374-22.12-12.527-36.324-33.711-42.753Z" transform="translate(19.014 -8.454)" fill="#d08b5b"/>
    <path id="_Ink" data-name="ðŸ– Ink" d="M82.563,155.5c-11.877,0-22.941-.362-32.884-1.075a209.373,209.373,0,0,1-28.274-3.665,3.482,3.482,0,0,1-2.659,1.19,3.374,3.374,0,0,1-1.547-.365,2.948,2.948,0,0,1-1.2-1.132,4.941,4.941,0,0,1-.573-1.86,19.562,19.562,0,0,1-.133-2.062v0c-.008-.295-.016-.573-.03-.835-.049-.923-.223-5.134-.406-9.593v-.013c-.191-4.639-.389-9.436-.481-11.39-.029-.623-.062-1.28-.088-1.808-.156-3.159-.317-6.426-.288-9.643.019-2.091.112-3.959.286-5.71.015-.146.027-.306.039-.476a6.327,6.327,0,0,1,.44-2.24A57.606,57.606,0,0,0,10.8,95.881a36.4,36.4,0,0,1-7.459-2.824L3.034,92.9a8.975,8.975,0,0,1-1.4-.807,2.9,2.9,0,0,1-.983-1.242,7.737,7.737,0,0,1-.65-3.275,67.5,67.5,0,0,1,.8-7.047c.083-.557.17-1.132.25-1.7.429-2.988.932-5.988,1.5-8.917,1.653-8.579,3.679-17.68,7.277-26.1,3.694-8.649,9.147-15.351,16.207-19.921A60.39,60.39,0,0,1,39.815,17.4a81.867,81.867,0,0,1,14.87-3.379c.2-.027.4-.058.588-.088a9.93,9.93,0,0,1,1.515-.159,3.551,3.551,0,0,1,1.2.192c.064.023.131.048.2.072a2.352,2.352,0,0,0,.8.2h.01a5.661,5.661,0,0,0,.976-.13c.208-.04.424-.081.628-.1,1.1-.128,2.218-.2,3.3-.273h.014l.937-.063c.173-.012.352-.023.525-.033h0a9.493,9.493,0,0,0,2.951-.487c1.9-.757,3.07-6.27,3.631-8.919.122-.576.219-1.031.286-1.263.032-.111.065-.23.1-.345A4.117,4.117,0,0,1,73.642.17a1.228,1.228,0,0,1,.64-.17,1.185,1.185,0,0,1,.9.368,2.148,2.148,0,0,1,.435,1.463,10.186,10.186,0,0,1-.21,1.716c-.053.3-.1.575-.134.826-.01.085-.022.2-.036.341-.056.565-.161,1.617-.4,2.851a19.448,19.448,0,0,1-1.207,4.042,10.4,10.4,0,0,1-2.552,3.7,7.216,7.216,0,0,1-1.949,1.242,7.6,7.6,0,0,1-2.486.581,47.618,47.618,0,0,0-5.305.569,3.181,3.181,0,0,0-1.681.631.606.606,0,0,0-.109.506c.005.053.01.108.01.161a39.382,39.382,0,0,0,3.571,5.337,43.8,43.8,0,0,0,5.292,5.335,34.964,34.964,0,0,0,4.939,3.483,35.565,35.565,0,0,0,5.469,2.591,34.867,34.867,0,0,0,5.827,1.616,33.157,33.157,0,0,0,6.015.557c.171,0,.344,0,.515,0A18.6,18.6,0,0,0,97.332,36.9a12.437,12.437,0,0,0,2.71-1.378,11.927,11.927,0,0,0,2.368-2.127,19.7,19.7,0,0,0,3.129-5.71c.835-2.162,1.48-4.406,2.05-6.386l.186-.646c-2.735-3.41-3.887-7.955-2.867-11.308.3-.972.727-1.465,1.283-1.465a1.411,1.411,0,0,1,.72.236c.669.407.821,1.886.943,3.074a9.632,9.632,0,0,0,.16,1.166,9.654,9.654,0,0,0,2.639,4.286l.365.411c.084-.007.168-.01.252-.01a3.257,3.257,0,0,1,2.349,1.04,62.446,62.446,0,0,1,9.2,2.877,31.784,31.784,0,0,1,8.271,4.877,42.194,42.194,0,0,1,5.49,5.563c1.442,1.732,2.928,3.727,4.677,6.278,2.509,3.66,4.974,7.442,7.357,11.1l.008.012c.88,1.35,1.79,2.746,2.688,4.116l1.98,3.017.1.149c3.012,4.591,6.126,9.338,9.214,14.008.934,1.413,1.87,2.825,2.781,4.2.431.649.887,1.334,1.395,2.095.105.158.219.314.338.48l0,0A5.348,5.348,0,0,1,168,78.4a3.346,3.346,0,0,1-.051,1.571c-.021.106-.043.216-.059.316a6.32,6.32,0,0,1-.539,1.884,7.464,7.464,0,0,1-1.6,2.141,30.159,30.159,0,0,1,1.282,3.417,35.793,35.793,0,0,1,.892,3.541,47.744,47.744,0,0,1,.842,7.256,52.655,52.655,0,0,1-.813,12.316,20.906,20.906,0,0,1-1.416,4.534,15.139,15.139,0,0,1-2.577,3.974,14.537,14.537,0,0,1-3.04,2.519,17.921,17.921,0,0,1-3.568,1.7,26.773,26.773,0,0,1-8.973,1.36c-1.485,0-3.075-.082-4.861-.251.072.306.135.613.2.91l0,.013c.025.122.051.247.077.368.114.538.233,2.852.37,5.532v0c.2,3.967.456,8.9.816,10.532.06.271.112.561.167.868a7.339,7.339,0,0,0,.9,2.835,4.865,4.865,0,0,1,.73,1.469,3.442,3.442,0,0,1,.066,1.633,5.464,5.464,0,0,1-1.331,2.544c-.14.139-.228.24-.292.314-.176.2-.176.2-.608.23-.339.021-.97.059-2.182.233-3.268.467-7.139.907-11.506,1.308-4.43.406-9.272.763-14.391,1.06-10.936.635-22.685.971-33.975.971h0ZM40.684,83.181a60.442,60.442,0,0,0-8.8.661c-2.714.4-5.54.971-8.641,1.742-2.51.624-5.209,1.382-8.491,2.384.1.362.215.79.337,1.214.265.922.546,1.844.836,2.741.628,1.943,1.331,3.872,2.088,5.733a74.271,74.271,0,0,0,5.45,10.759,73.523,73.523,0,0,0,5.968,8.484,48.983,48.983,0,0,0,3.522,3.847,37.563,37.563,0,0,0,3.917,3.349,14.166,14.166,0,0,0,3.962,2.066,13.958,13.958,0,0,0,4.386.694h0c.207,0,.42,0,.631-.013a44.547,44.547,0,0,0,9.5-1.807h0c.457-.122.929-.248,1.392-.369,7.455-1.948,14.9-4.262,22.142-6.877,3.148-1.137,6.457-2.415,10.73-4.142,1.933-.782,3.693-1.518,5.381-2.251.518-.225,1.043-.474,1.551-.716.326-.155.663-.315,1-.47-1.633-.982-3.267-2.019-4.848-3.022l-.006,0c-1.531-.971-3.113-1.975-4.693-2.928-1.948-1.176-3.692-2.134-5.329-2.931a40.141,40.141,0,0,0-5.638-2.267,48.258,48.258,0,0,0-6.345-1.512,50.638,50.638,0,0,0-6.489-.659c-.879-.033-1.775-.035-2.642-.037-1.233,0-2.508-.007-3.753-.1a8.144,8.144,0,0,1-2.53-.546,5.3,5.3,0,0,1-1.111-.616,4.771,4.771,0,0,1-.944-.914,12.1,12.1,0,0,1-1.794-4.193c-.092-.319-.186-.648-.283-.963-.575-1.867-1.132-3.762-1.649-5.532-.166-.029-.333-.063-.494-.1h0c-.181-.037-.369-.076-.55-.106-.814-.136-1.653-.249-2.5-.336-1.511-.157-3.082-.245-4.67-.262C41.089,83.182,40.886,83.181,40.684,83.181Zm22.334,8.513h0a53.51,53.51,0,0,1,12.668,1.544,48.256,48.256,0,0,1,6.626,2.144,53.51,53.51,0,0,1,6.27,3.036c2.249,1.273,4.461,2.692,6.6,4.064l0,0h0c1.642,1.054,3.34,2.143,5.044,3.159A94.023,94.023,0,0,0,126.1,116.21c2.264.554,4.659,1.063,7.117,1.515,2.291.421,4.709.8,7.188,1.139a56.284,56.284,0,0,0,7.592.588c.954,0,1.886-.036,2.77-.107a19.53,19.53,0,0,0,4.475-.843,10.864,10.864,0,0,0,3.95-2.2,10.4,10.4,0,0,0,2.941-4.951,27.572,27.572,0,0,0,.9-5.786,62.89,62.89,0,0,0,.1-6.893,37.56,37.56,0,0,0-.9-6.826,28.119,28.119,0,0,0-2.226-6.118c-.156-.318-.348-.656-.551-1.013v0a9.457,9.457,0,0,1-1.246-2.9c-.437-.023-.883-.035-1.325-.035a26.646,26.646,0,0,0-5.186.522,31.861,31.861,0,0,0-5,1.447l.093.006.028,0c.411.025.836.051,1.254.079,1.3.086,2.368.186,3.365.314.176.023.357.041.55.06H152a5.2,5.2,0,0,1,2.235.556,2.048,2.048,0,0,1,.939,1.552,2.5,2.5,0,0,1-.13,1.081,2.451,2.451,0,0,1-.591.937,2.563,2.563,0,0,1-1.147.619,5.477,5.477,0,0,1-1.426.161,17.957,17.957,0,0,1-2.051-.158c-.29-.034-.564-.066-.812-.087-9.744-.832-17.183-1.616-24.121-2.542-8.308-1.109-16.655-2.547-24.438-3.934-3.908-.7-8.1-1.419-12.254-1.98a121.957,121.957,0,0,0-12.358-1.094c-.935-.03-1.863-.046-2.758-.046-1.63,0-3.23.051-4.755.152-1.619.107-3.211.275-4.73.5a66.957,66.957,0,0,0-9.015,2.183l-.007,0c-.625.183-1.272.372-1.912.554.286.682.571,1.372.847,2.04.654,1.582,1.33,3.217,2.038,4.807.063.141.126.3.192.474.272.7.61,1.569,1.273,1.829a2.732,2.732,0,0,0,1,.155,10.662,10.662,0,0,0,1.3-.109c.284-.036.552-.069.793-.083C61.068,91.722,62.046,91.694,63.018,91.694Zm66.746-13.8a6.589,6.589,0,0,0-2.586.625,24.08,24.08,0,0,0-2.431,1.278c-.207.119-.4.232-.6.341-.534.305-1.1.651-1.786,1.089,4.427.607,8.963,1.153,13.482,1.624a14.439,14.439,0,0,0-4.019-4.345,3.653,3.653,0,0,0-1.013-.469A3.827,3.827,0,0,0,129.764,77.889Z" transform="translate(8.873 -0.423)"/>
  </g>
  <g id="HEAD" transform="translate(78.592 38.043)">
    <path id="_Skin-2" data-name="âœ‹ Skin" d="M70.879,10.923C63.928,1.052,46.459-.06,35.418,0,13.615-.18,9.049,24.945,7.911,42.55a9.817,9.817,0,0,0-6.122,3.042c-1.869,2.231-2.514,6.061-.762,8.556a5.989,5.989,0,0,0,4.923,2.3c6.365-.609,7.67,5.079,10.8,9.343C24.8,76.688,38.734,80.222,51.515,80.276c4.341.116,9.571.442,12.351-3.652,8.781-15.259,8.972-35.5,9.514-52.787.074-4.427.056-9.113-2.5-12.913Z" transform="translate(12.86 25.785)" fill="#d08b5b"/>
    <path id="_Ink-2" data-name="ðŸ– Ink" d="M70.245,114.015a22.754,22.754,0,0,1-3.356-.4c-.835-.137-1.68-.321-2.517-.537-.742-.173-1.476-.374-2.2-.609a11.375,11.375,0,0,1-2.5-.991l-1.408-.531a13.618,13.618,0,0,1-1.714-.788l-1.531-.717a21.074,21.074,0,0,1-1.855-1.012.371.371,0,0,1-.162-.154c-.156-.087-.314-.169-.47-.258-.025-.013-.006-.087.028-.158a.133.133,0,0,1,.053-.177.274.274,0,0,1,.242,0,.212.212,0,0,1-.021-.019c-.105-.057-.209-.112-.312-.169a.169.169,0,0,1-.023-.283.166.166,0,0,1,.091-.034l-.006,0c-.019-.013,0-.072.023-.137a.142.142,0,0,1,.023-.222c.137-.108.457.091.573.156.133.074.268.144.4.216a.125.125,0,0,1,.053-.053c-.2-.1-.39-.209-.584-.315-.12-.063-.276-.2-.118-.321.127-.1.453.072.609.161a.139.139,0,0,1,.065-.025c-.068-.038-.139-.074-.207-.114-.19-.106-.061-.435.135-.325l.07.042a.917.917,0,0,1,.43.154,15.6,15.6,0,0,0,2.06,1.093c.481.228.963.454,1.448.674a12.293,12.293,0,0,0,1.472.615q1.9.742,3.839,1.382a30.861,30.861,0,0,0,5.566,1.052c.244.019.489.036.734.044l1.6-.01q1.559-.162,3.116-.319c.363-.051.717-.114,1.067-.188.183-.044.367-.091.548-.144.063-.008.127-.021.19-.032a13.614,13.614,0,0,0,1.318-.425q.411-.168.816-.355a14.353,14.353,0,0,0,2.6-1.6l3.105-3.1.947-1.293a28.665,28.665,0,0,0,2.994-5.7l1.278-3.69q.2-.666.379-1.334l.727-2.991q.12-.548.234-1.093a64.75,64.75,0,0,0,.944-6.858c.4-4.181.515-8.374.544-12.571q.028-3.763-.053-7.524c-.029-1.454-.05-2.908-.072-4.362-.028-1.543-.057-3.088-.1-4.631a.144.144,0,0,1,.028-.089c0-.182-.006-.364-.009-.547,0-.12.044-.173.112-.184q-.019-1.652-.023-3.3a.162.162,0,0,1,.078-.146V48.5a12.491,12.491,0,0,0-.755-2.23,8.257,8.257,0,0,0-.367-.755,4.139,4.139,0,0,0-.649-1.008,4.522,4.522,0,0,0-.81-1l-.388-.279a2.632,2.632,0,0,1-.4-.27c-.251-.154-.5-.311-.75-.465-.146-.076-.051-.266.053-.317v-.006a.3.3,0,0,1-.076-.046,12.339,12.339,0,0,0-.949-.812.179.179,0,0,1-.181-.03q-.291-.272-.594-.526a12.713,12.713,0,0,0-1.423-.812,21.147,21.147,0,0,0-2.443-.974c-.18-.059-.361-.112-.542-.166-.257-.012-.513-.026-.77-.037a230.2,230.2,0,0,0-28.662.527q-3.522.285-7.035.679c-2.06.231-4.529.223-6.423,1.169-.08.04-.156.083-.231.126a14.375,14.375,0,0,0,.871,2.773,11.228,11.228,0,0,1,.938,4.285,10.734,10.734,0,0,1-.578,3.027,19.449,19.449,0,0,1-1.061,4.074,57.618,57.618,0,0,0-3.379,20.133.979.979,0,0,1-.113.485c.042.3.083.606.132.908.189,1.167-1.346,1.748-1.876.974a.222.222,0,0,1-.131.063c-.135.013-.356-.209-.42-.311-.082-.152-.169-.3-.261-.442l-.034-.015.171.353c.093.186-.264.277-.369.106q-.142-.225-.285-.431c-.055.04-.116.051-.156-.015a6.99,6.99,0,0,0-1.162-1.454,5.394,5.394,0,0,0-2.258-1.086,7.8,7.8,0,0,0-2-.023,6.753,6.753,0,0,0-2.226.621q-.832.574-1.668,1.148c-.137.144-.268.294-.39.45a7.928,7.928,0,0,0-.951,1.6c-.01.036-.021.072-.031.106a6.57,6.57,0,0,0-.3,1.471c-.006.636-.011,1.27-.017,1.906a8.3,8.3,0,0,0,.618,2.393,3.389,3.389,0,0,0,.713,1.207,5.306,5.306,0,0,0,.588.826,7.433,7.433,0,0,0,1.446.746c.127.034.253.068.382.093a6.158,6.158,0,0,0,2.062.412,8.36,8.36,0,0,0,2.637-.235,7.055,7.055,0,0,0,1.543-.463,7.615,7.615,0,0,0,1.345-.869c.046-.03.116-.013.192.025.093-.068.186-.133.276-.207.042-.029.08.006.1.045l.025-.019c.167-.114.624.243.417.454a2.211,2.211,0,0,1,.257.188c.367.015,1.107.691.968.8a8.073,8.073,0,0,1-.645.5c.2.146.453.372.333.463a4.14,4.14,0,0,1-.7.535c-.169.129-.342.251-.523.364a6,6,0,0,1-.6.309c.361.7.7,1.405,1.025,2.124a19.405,19.405,0,0,0,2.049,3.5,10.775,10.775,0,0,0,1.453,1.923,23.023,23.023,0,0,0,2.2,2.2c.312.222.63.437.961.636a15.722,15.722,0,0,0,2.7,1.642c.112.061.2.2.07.3,0,0-.009,0-.013.006q.468.266.942.526c.124.068.379.2.19.353-.122.1-.5-.08-.725-.2l.1.055c.069.038.47.241.224.37a.541.541,0,0,1-.356-.061c-.118-.044-.236-.093-.352-.144,0,.038-.017.074-.078.1a.535.535,0,0,1-.141,0q.386.219.774.431c.076.04.434.239.2.361a.481.481,0,0,1-.335-.055,5.868,5.868,0,0,1-.578-.256l-.133-.074a.555.555,0,0,1-.1-.01c.207.112.415.22.626.325.124.068.333.205.154.344-.124.1-.46-.076-.658-.188a.355.355,0,0,1-.049.049c-.147.112-.527-.135-.647-.2A32.7,32.7,0,0,1,38.5,101.8c-.595-.383-1.174-.784-1.741-1.222a21.607,21.607,0,0,1-2.977-2.851,19.271,19.271,0,0,1-1.552-1.959,27.18,27.18,0,0,1-2.384-4.339c-.011-.023.01-.082.042-.142-.143-.353-.283-.71-.422-1.08-.363.049-.727.082-1.088.1a9.056,9.056,0,0,1-2.473-.2,8.571,8.571,0,0,1-2.772-.83,14.711,14.711,0,0,1-1.461-.833,8.557,8.557,0,0,1-1.2-.772,7.473,7.473,0,0,1-2.739-5.21,9.1,9.1,0,0,1-.1-2.682,8.91,8.91,0,0,1,.424-1.885A7.605,7.605,0,0,1,20.2,74.338a6.713,6.713,0,0,1,.554-.511,7.345,7.345,0,0,1,1.938-1.137c.135-.066.272-.127.409-.184l-.167-.385c-.059.017-.264-.017-.289-.089-.067-.184-.131-.372-.2-.556a.29.29,0,0,1-.139.038v.213c0,.061-.114.442-.177.243-.065-.182-.124-.368-.188-.552a.241.241,0,0,1-.107-.12c-.006-.019-.013-.038-.021-.057,0,0-.01,0-.015,0V71.3c0,.04-.1.344-.122.285a24.8,24.8,0,0,1-.894-3.077,16.4,16.4,0,0,1-.377-1.746q-.155-.8-.272-1.6l-.019-.133L20.114,65c-.006-.057-.013-.116-.021-.173q-.126-.91-.206-1.828c-.112-1.26-.156-2.525-.143-3.789-.027.011-.053.025-.08.038a12.091,12.091,0,0,1-1.715.577,5.88,5.88,0,0,1-4.568,2.565,6.012,6.012,0,0,1-1.981-.23q-.1.023-.205.037a4.693,4.693,0,0,1-1.366-.208,3.382,3.382,0,0,1-1.939-.606,1.428,1.428,0,0,1-.445-.061,2.69,2.69,0,0,1-3.22-1.867,4.992,4.992,0,0,1-1.866-1.976A11.535,11.535,0,0,1,.461,53.75l-.02-.039A3.539,3.539,0,0,1,.126,52.29,8.3,8.3,0,0,1,.384,48.3,4.544,4.544,0,0,1,.8,46.331,5.582,5.582,0,0,1,2.351,44.2a3.929,3.929,0,0,1,.77-2.208,4.663,4.663,0,0,1,3.5-1.855c.694-1.784,2.8-2.2,4.611-1.607a3.55,3.55,0,0,1,2.959-1.009,4.222,4.222,0,0,1,2.387,1.173q.261.075.52.155a2.9,2.9,0,0,1,1.866-.152A3.623,3.623,0,0,1,21.2,40.713c.154.106.3.216.45.33a1.824,1.824,0,0,1,.44.282,1,1,0,0,1,.456.518,7.478,7.478,0,0,1,.749.9q.251-.583.519-1.158a.63.63,0,0,0,.789-.415c.928-2.467,2.616-6.989,4.207-9.072a10.832,10.832,0,0,1-6.376,1.868q-.145,0-.292-.012a9.816,9.816,0,0,1-3.569,0,18.656,18.656,0,0,1-2.219-.979c-.175-.091-.348-.186-.52-.283-.075-.064-.145-.135-.217-.2a1.412,1.412,0,0,1-.469-.045,2.788,2.788,0,0,1-1.557-1.112,2.213,2.213,0,0,1-.169-.3,4.848,4.848,0,0,1-.979-1.326,4.71,4.71,0,0,1-.491-1.93,3.705,3.705,0,0,1,.114-1.955c.025-.068.055-.133.082-.2.013-.042.021-.087.036-.129a3.112,3.112,0,0,1,.254-.61,2.448,2.448,0,0,1,.189-.572c.01-.09.022-.181.037-.27a3.465,3.465,0,0,1,.57-3.954,2.55,2.55,0,0,1,.407-1.962,3.144,3.144,0,0,1,1.177-1.015,3.224,3.224,0,0,1,.332-.116,4.472,4.472,0,0,1,.555-.426c.05-1.3,1.4-2.021,2.5-2.661.713-.415,1.025-1.2,1.759-1.6a7.672,7.672,0,0,1,2.719-.568,28.71,28.71,0,0,1,6.425-.22,2.971,2.971,0,0,1,2.535,1.618,4.637,4.637,0,0,1,2.608,1.593,6.7,6.7,0,0,1,1.9,3.151,2.386,2.386,0,0,1,.472.338,9.289,9.289,0,0,1-.355,2.539,2.107,2.107,0,0,1-.323,1.372,3.88,3.88,0,0,1-.072,1.182A2.971,2.971,0,0,1,35.23,26.3l-.005.478a.6.6,0,0,0,.116-.077c3.055-2.606,6.2-2.235,9.907-3.726a68.065,68.065,0,0,1,10.193-1.2c-.045-.007-.091-.012-.136-.019a11.528,11.528,0,0,1-4.815-2.02,2.468,2.468,0,0,1-1.057-.553,2.311,2.311,0,0,1-.651-.942q-.085-.091-.168-.184a2.214,2.214,0,0,1-1.751-2.415,3.207,3.207,0,0,1-.7-2.834,2.411,2.411,0,0,1-.129-2.129,2.282,2.282,0,0,1-.175-2.576,1.79,1.79,0,0,1,.973-2.79,2.016,2.016,0,0,1,.659-1.036,2.21,2.21,0,0,1,.542-.331,1.649,1.649,0,0,1,.736-1.089,1.825,1.825,0,0,1,.605-.274,2.331,2.331,0,0,1,1-1.163,2.36,2.36,0,0,1,1.83-.2A2.655,2.655,0,0,1,55.91.46a2.673,2.673,0,0,1,3.142.264,2.649,2.649,0,0,1,3.274.511,2.877,2.877,0,0,1,3.882,1.216A2.854,2.854,0,0,1,69.239,4.5c.065.053.129.107.193.161A2.426,2.426,0,0,1,71.5,5.792a2.323,2.323,0,0,1,.321,1.273,2.156,2.156,0,0,1,1.058,1.269,2.125,2.125,0,0,1-.11,1.514,2.445,2.445,0,0,1,.38,2.784,2.171,2.171,0,0,1,.289,1.176,2.431,2.431,0,0,1-.709,1.565,2.113,2.113,0,0,1-.5,2.68,5.092,5.092,0,0,1-3.435,3.416,18.1,18.1,0,0,1-2.81.789,52.032,52.032,0,0,1,11.284,2.8.523.523,0,0,0,.495-.041c.079.042.161.081.24.125q1.505.827,2.943,1.79c0-.106,0-.211.006-.319a8.776,8.776,0,0,1,.3-2.552,4,4,0,0,1-.65-1.366c-.306-1.208.276-2.926,1.323-3.339A3.29,3.29,0,0,1,84.143,17.3a2.516,2.516,0,0,1,.264-.211,2.084,2.084,0,0,1,.693-.308,2.338,2.338,0,0,1,.944-1.418,2.488,2.488,0,0,1,2.32-.284q.213-.072.432-.126a2.986,2.986,0,0,1,4.141.25,2.468,2.468,0,0,1,2.329.1,2.443,2.443,0,0,1,1.112,1.573,2.674,2.674,0,0,1,2.485,1.9,2.4,2.4,0,0,1,2.07,1.96,2.2,2.2,0,0,1,1.648,1.026,2.088,2.088,0,0,1,.29.916,2.258,2.258,0,0,1,.863.724,2.205,2.205,0,0,1,.328,1.825c.034.068.07.134.1.2a5.622,5.622,0,0,1,.272.729,2.81,2.81,0,0,1,.479,1.744c.074.262.146.526.206.79a8.654,8.654,0,0,1,.162,3.2,9.116,9.116,0,0,1-.361,1.5,1.45,1.45,0,0,1-.076.262,8.029,8.029,0,0,1-.354,1.133q-.531.707-1.115,1.374a8.652,8.652,0,0,1-1.128,1.37,8.1,8.1,0,0,1-1,.837,7.742,7.742,0,0,1-2.343,1.3c-.151-.032-.3-.056-.454-.081a7.7,7.7,0,0,1-3.39.585,5.112,5.112,0,0,1-2.722-.748l.269.538a.555.555,0,0,0-.066.039,2.647,2.647,0,0,0-.574-.7.641.641,0,0,0-.993.128l-.011.021a.6.6,0,0,0-.011.574l.093.134c.011.013.021.026.033.038h-.005a4.537,4.537,0,0,1,.84,1.354q.273.485.517.985a.734.734,0,0,0,.442.3.726.726,0,0,0,.288.678,2.192,2.192,0,0,1,.2-.328,3.533,3.533,0,0,1,4.027-1.2c.267-.045.536-.083.807-.1a9.8,9.8,0,0,1,2.656.195,5.492,5.492,0,0,1,.772.556,7.142,7.142,0,0,1,.571.556c.137.1.272.212.4.326a3.644,3.644,0,0,1,1.26,1.395,7.969,7.969,0,0,1,.69,1.185c.919,1.577,1.98,3.534,1.151,5.084a1.905,1.905,0,0,1,.189.554,2.118,2.118,0,0,1-.429,1.6c.041.331.063.652.081.934.1,1.584-.264,3.756-1.657,4.4q-.032.039-.067.078a1.208,1.208,0,0,1-.487.438,1.9,1.9,0,0,1-.162.1c-.025.021-.053.039-.078.059l.086-.094a4.566,4.566,0,0,1-2.31.278,14.053,14.053,0,0,1-1.4.414,7.043,7.043,0,0,1-4.233.031,2.616,2.616,0,0,1-.9-.622q.028,1.471.09,2.942c.086,2.479.082,4.956.063,7.437-.021,2.792-.1,5.586-.249,8.376q-.1,2.1-.331,4.2-.19,2.038-.445,4.069a57.533,57.533,0,0,1-1.876,8.272c-.352,1.167-.738,2.348-1.176,3.5-.186.531-.382,1.055-.594,1.575a29.17,29.17,0,0,1-4.415,7.623,19.74,19.74,0,0,1-3.447,3.289,15.53,15.53,0,0,1-3.346,2.008,19.372,19.372,0,0,1-7.8,1.365Q70.526,114.019,70.245,114.015ZM31.926,84.4a2.21,2.21,0,0,1-.394-.279c-.019-.015-.036-.032-.053-.046.055.137-.048.222-.186.194a1.411,1.411,0,0,1-.647-.539c-.006-.01-.01-.021-.017-.032a1.754,1.754,0,0,1-.3-.26c-.068.1-.2.169-.257.051a3.141,3.141,0,0,0-.831-1.247,3.262,3.262,0,0,0-.782-.805c-.165-.139-.335-.273-.51-.4a4.658,4.658,0,0,0-.97-.321c-.067-.021-.137-.034-.2-.053-.15-.027-.3-.055-.447-.076a8.055,8.055,0,0,0-1.832-.044.3.3,0,0,1-.261-.177c-.137.006-.272.013-.409.025-.226.008-.177-.311-.006-.342.215-.04.43-.07.641-.1a.133.133,0,0,1,0-.057,7.574,7.574,0,0,0-1.157.029c-.169.009.032-.3.124-.321.042-.009.084-.013.129-.021a.058.058,0,0,1-.009-.017h-.01c-.232.01-.39-.359-.112-.41.069-.013.137-.021.2-.034a.131.131,0,0,1,0-.1c-.12,0-.238,0-.358,0,.065,0,.114-.287.192-.3l.185-.025a.468.468,0,0,1,.173-.27A9.2,9.2,0,0,1,25,78.3c.038-.089.093-.207.145-.207a10.79,10.79,0,0,1,1.286.042.069.069,0,0,1,.049-.017l.2.049a5.077,5.077,0,0,1,.706.152A5.994,5.994,0,0,1,29,79.081,9.58,9.58,0,0,1,30.316,80.1a4.97,4.97,0,0,1,.4.387c.2.169.4.342.592.514.232.213.457.433.673.661a4.549,4.549,0,0,1,.79,1.306c.076.154-.017.247-.173.22a.726.726,0,0,1-.261-.129c.015.036.032.068.046.1.082.163.013.279-.175.218l-.03-.019a4.852,4.852,0,0,1,.261.537c.082.165.008.279-.177.216a2.206,2.206,0,0,1-.278-.188c.04.089.082.176.118.266.071.141.013.225-.105.225A.321.321,0,0,1,31.926,84.4Z" transform="translate(-6.957 -5.918)"/>
  </g>
  <g id="FACE" transform="translate(112.183 77.354)">
    <path id="_Ink-3" data-name="ðŸ– Ink" d="M22.244,39.478a8.048,8.048,0,0,1-4.461-1.32,8.5,8.5,0,0,1-1.845-1.594,6.678,6.678,0,0,1-1.125-1.8,5.1,5.1,0,0,1-.4-2.041.63.63,0,0,1,.149-.4.7.7,0,0,1,.373-.224.72.72,0,0,1,.164-.019.662.662,0,0,1,.272.057.58.58,0,0,1,.287.283c.134.176.31.406.488.629a12.266,12.266,0,0,0,2.025,2.073,6.268,6.268,0,0,0,2.519,1.185,5.392,5.392,0,0,0,1.158.126A5.665,5.665,0,0,0,23.8,36.08a6.648,6.648,0,0,0,2.736-1.923,1.469,1.469,0,0,1,1.118-.553h.01a1.719,1.719,0,0,1,1.189.527,1.856,1.856,0,0,1,.555,1.211,1.62,1.62,0,0,1-.46,1.19,9.216,9.216,0,0,1-1.939,1.581,9.384,9.384,0,0,1-2.284,1.009A8.921,8.921,0,0,1,22.244,39.478Zm2.516-11.755h0a7.374,7.374,0,0,1-2.63-.53,13.282,13.282,0,0,1-3.093-1.756,1.189,1.189,0,0,1-.432-.687,1.423,1.423,0,0,1,.061-.771,1.754,1.754,0,0,1,.521-.753A1.267,1.267,0,0,1,20,22.909a1.151,1.151,0,0,1,.628.193l.2.158.007.005a16.742,16.742,0,0,0,1.936,1.347,4.768,4.768,0,0,0,2.32.74,2.505,2.505,0,0,0,.981-.193,2.74,2.74,0,0,0,.913-.647,2.8,2.8,0,0,0,.531-2.255,4.261,4.261,0,0,0-1.13-2,8.241,8.241,0,0,0-1.711-1.381.531.531,0,0,1-.144-.61.8.8,0,0,1,.264-.38.809.809,0,0,1,.5-.167,1.075,1.075,0,0,1,.182.016,5.736,5.736,0,0,1,2.018.729,4.578,4.578,0,0,1,1.357,1.252,4.974,4.974,0,0,1,.866,3.322,5.475,5.475,0,0,1-.444,1.744,5.087,5.087,0,0,1-1,1.5A4.779,4.779,0,0,1,24.761,27.723ZM4.538,19.6a1.01,1.01,0,0,1-.293-.043.6.6,0,0,1-.4-.346,4.916,4.916,0,0,1,.246-3.7,8.676,8.676,0,0,1,1.3-2.139,5.356,5.356,0,0,1,1.4-1.257,4.694,4.694,0,0,1,2.227-.574,4.459,4.459,0,0,1,2.147.554,5.586,5.586,0,0,1,1.483,1.22A15.376,15.376,0,0,1,13.8,14.842c.151.221.308.449.468.671a1.35,1.35,0,0,1,.227,1.255,1.623,1.623,0,0,1-.921.951,1.762,1.762,0,0,1-.679.139,1.548,1.548,0,0,1-.605-.12,1.627,1.627,0,0,1-.873-.922,6.293,6.293,0,0,0-.678-1.232,3.7,3.7,0,0,0-.986-.977,1.777,1.777,0,0,0-1.784-.136,5.832,5.832,0,0,0-2.076,2.071,4.061,4.061,0,0,0-.681,2.419.549.549,0,0,1-.178.461.691.691,0,0,1-.385.171A.906.906,0,0,1,4.538,19.6Zm30.625-2.984a1.319,1.319,0,0,1-.381-.061,1.44,1.44,0,0,1-.595-.356,1.185,1.185,0,0,1-.331-.6A2.452,2.452,0,0,0,33,14.168a1.717,1.717,0,0,0-1.373-.361,2.637,2.637,0,0,0-1.477.886,3.246,3.246,0,0,0-.31.452l-.009.015a3.3,3.3,0,0,1-.613.806.6.6,0,0,1-.38.143.567.567,0,0,1-.169-.026,2.41,2.41,0,0,1-.545-.763,1.5,1.5,0,0,1-.109-.658,2.607,2.607,0,0,1,.479-1.32,5.132,5.132,0,0,1,1.324-1.294,4.411,4.411,0,0,1,1.465-.69,3.955,3.955,0,0,1,.83-.088,4.234,4.234,0,0,1,2.435.793,4.626,4.626,0,0,1,1.891,2.9,1.541,1.541,0,0,1-.077.855,1.2,1.2,0,0,1-.559.622A1.329,1.329,0,0,1,35.163,16.616ZM.725,10.978l-.046,0a.429.429,0,0,1-.223-.108A1.623,1.623,0,0,1,0,9.53,5.784,5.784,0,0,1,.588,7.284a14.358,14.358,0,0,1,1.132-1.9A9.977,9.977,0,0,1,3.17,3.733a12.553,12.553,0,0,1,4.06-2.474A8.728,8.728,0,0,1,10.125.622c.06,0,.12,0,.179,0a3.476,3.476,0,0,1,1.077.2,2.833,2.833,0,0,1,.959.6,1.781,1.781,0,0,1,.532,1.3,1.857,1.857,0,0,1-.534,1.33A2.747,2.747,0,0,1,11.2,4.72a6.6,6.6,0,0,1-1.239.221,11.267,11.267,0,0,0-1.208.178A11.345,11.345,0,0,0,5.838,6.185,10.794,10.794,0,0,0,3.1,8.124c-.178.191-.348.393-.512.589l0,.005c-.153.182-.3.354-.45.521-.171.187-.328.375-.515.6a2.556,2.556,0,0,0-.145.257c-.037.078-.073.149-.11.219-.068.128-.134.241-.195.334-.121.2-.184.253-.234.275A.524.524,0,0,1,.725,10.978Zm36.163-.464a.414.414,0,0,1-.068-.006.408.408,0,0,1-.208-.1.391.391,0,0,1-.117-.2,7.586,7.586,0,0,0-1.1-2.678,5.779,5.779,0,0,0-2.2-1.879,14.134,14.134,0,0,0-3.079-1.036c-.3-.07-.615-.117-.924-.162l-.014,0a7.8,7.8,0,0,1-1.465-.313,2.591,2.591,0,0,1-1.2-.812,2.247,2.247,0,0,1-.416-.811,2.07,2.07,0,0,1-.05-.873A1.793,1.793,0,0,1,27.014.311,2.929,2.929,0,0,1,28.373,0,8.9,8.9,0,0,1,31.64.912l.072.031h0l.239.1a10.722,10.722,0,0,1,3.739,2.5,8.084,8.084,0,0,1,1.922,3.552,4.265,4.265,0,0,1-.388,3.233.384.384,0,0,1-.175.154A.4.4,0,0,1,36.889,10.514Z" transform="translate(11.408 11.637)"/>
  </g>
  <g id="ACCESORIES" transform="translate(88.521 88.978)">
    <path id="_Ink-4" data-name="ðŸ– Ink" d="M45.294,25.4h0a12.5,12.5,0,0,1-2.558-.268,13.039,13.039,0,0,1-4.712-2.023,12.706,12.706,0,0,1-1.971-1.678,11.914,11.914,0,0,1-2.516-3.941,12.161,12.161,0,0,1-.792-4.97,1.75,1.75,0,0,1-1.18-.643,3.434,3.434,0,0,1-.477-1.1c-.311-1.017-.664-2.17-3.024-2.562A4.587,4.587,0,0,1,26.1,6.91a53.931,53.931,0,0,0-5.73-.322,41.528,41.528,0,0,0-6.522.5A35.777,35.777,0,0,0,7.4,8.736c-.375.157-.772.3-1.157.442a13.691,13.691,0,0,0-1.961.829A2.845,2.845,0,0,0,3,11.274a3.189,3.189,0,0,0,.159,2.508,1.262,1.262,0,0,1-1.232,1.2,1.06,1.06,0,0,1-.772-.333l0,0v0A8.717,8.717,0,0,1,.04,11.6,3.963,3.963,0,0,1,.367,9.324C.981,8.062,2.36,7.1,4.585,6.367a42.331,42.331,0,0,1,6.283-1.322l.395-.063a42.37,42.37,0,0,1,8.913-.933c.311,0,.627,0,.939.01.383.016.787.022,1.214.029h0a14.174,14.174,0,0,1,3.681.355l.016,0a2.832,2.832,0,0,1,1.626-1.392A16.317,16.317,0,0,1,31.124,2a41.812,41.812,0,0,1,4.735-.671c1.747-.156,3.57-.235,5.416-.235a57.767,57.767,0,0,1,5.917.292A35.627,35.627,0,0,1,52.5,2.3a14.114,14.114,0,0,1,3.979,1.6,4.034,4.034,0,0,1,1.926,2.355c.108,0,.216,0,.322,0,.66,0,1.289.052,1.795.093l.07.006c.547.045,1.063.087,1.58.087a6.266,6.266,0,0,0,2.038-.306,4.023,4.023,0,0,1,1.753-2.68,13.328,13.328,0,0,1,3.91-1.918A30.015,30.015,0,0,1,74.948.385,37.272,37.272,0,0,1,80.188,0a21.59,21.59,0,0,1,4.573.421A8.286,8.286,0,0,1,86.025.64a1.571,1.571,0,0,1,.481.172c.167.025.343.052.522.082a1.256,1.256,0,0,1,.77.444,1.652,1.652,0,0,1,.351.816A1.546,1.546,0,0,1,87.407,3.8a2.355,2.355,0,0,0-1.036.958,1.922,1.922,0,0,0-.183,1.391,1.552,1.552,0,0,1-.07.98,1.428,1.428,0,0,1-.578.653,29.724,29.724,0,0,1-.992,7.291,15.959,15.959,0,0,1-1.389,3.4A12.2,12.2,0,0,1,80.885,21.4a12.839,12.839,0,0,1-3.13,1.533,9.811,9.811,0,0,1-3.009.49,8.433,8.433,0,0,1-3.655-.817,8.9,8.9,0,0,1-2.958-2.3,10.5,10.5,0,0,1-1.4-2.146,12.336,12.336,0,0,1-.931-2.6,14.688,14.688,0,0,1-.387-2.992,17.663,17.663,0,0,1,.23-3.323,1.081,1.081,0,0,1-.32-.344c-.052-.084-.1-.174-.156-.285a5.116,5.116,0,0,0-2.371-.472,7.235,7.235,0,0,0-.99.068,4.388,4.388,0,0,0-2.927,1.639c-.11.114-.224.232-.343.352a1.069,1.069,0,0,1-.757.564l-.047.262a41.244,41.244,0,0,1-1.372,5.987,15.5,15.5,0,0,1-1.234,2.794,11.21,11.21,0,0,1-1.871,2.44,11.512,11.512,0,0,1-7.96,3.145Zm.532-20.077a27.661,27.661,0,0,0-4.709.329,11.769,11.769,0,0,0-4.378,1.621A4.251,4.251,0,0,0,34.882,9.99a9.9,9.9,0,0,1-.535,1.319,2.845,2.845,0,0,1-.863,1.034A14.541,14.541,0,0,0,35,17.162a12.96,12.96,0,0,0,2.78,3.6,11.987,11.987,0,0,0,3.595,2.256,10.634,10.634,0,0,0,3.959.781h0a9.408,9.408,0,0,0,3.208-.554,9.174,9.174,0,0,0,2.9-1.709A10.768,10.768,0,0,0,53.787,18.6a15.337,15.337,0,0,0,1.535-4.236,29.707,29.707,0,0,0,.84-4.626c-.357-.314-.691-.625-1.013-.925a14.55,14.55,0,0,0-2.92-2.286,10.674,10.674,0,0,0-4.523-1.187l-.175,0C46.975,5.332,46.4,5.324,45.826,5.324ZM66.748,10.09a21.062,21.062,0,0,0,.439,3.617,14.193,14.193,0,0,0,1.192,3.479,8.023,8.023,0,0,0,2.144,2.706,6.209,6.209,0,0,0,3.293,1.3c.3.026.609.039.91.039a8.723,8.723,0,0,0,3.132-.547,5.442,5.442,0,0,0,2.45-1.8,13.729,13.729,0,0,0,1.5-2.64,17.406,17.406,0,0,0,.947-2.878,26.756,26.756,0,0,0,.663-5.983A5.531,5.531,0,0,1,82.243,5.4a3.91,3.91,0,0,0-.88-1.5,3.049,3.049,0,0,0-2.147-.632c-.228,0-.477.011-.74.033a19.785,19.785,0,0,0-4.61.778,9.052,9.052,0,0,0-2.781,1.377,6.2,6.2,0,0,0-1.5,1.637A10.274,10.274,0,0,0,68.8,8.649c-.378.892-.651,1.536-1.451,1.536A2.242,2.242,0,0,1,66.748,10.09Z" transform="translate(-2.746 1.902)"/>
  </g>
</svg>
