<svg id="peep-69" xmlns="http://www.w3.org/2000/svg" width="240" height="324" viewBox="0 0 240 324">
  <g id="BODY" transform="translate(31.056 135.053)">
    <path id="_Skin" data-name="âœ‹ Skin" d="M19.044,157.28q3.794.235,7.587.374c33.07,1.233,66.113-2.539,99.162-3.364a322.372,322.372,0,0,1,34.439.773,2.276,2.276,0,0,0,2.273-2.274c-2.121-18.314-4.774-36.58-6.149-54.97a8.291,8.291,0,0,1,.459-2.86c.063-.072.39-.878.68-.927-.095.07.335-.053.061-.032,1.66-.272,3.288-2.064,2.083-3.779-12.408-19.025-29.346-36.39-34.8-58.987-1.287-6.109-5.938-6.487-10.892-9.007-1.546-.92-5.325-3.467-5.941-5.238-1.469-6.383,1.118-12.637-6.442-15.22C96.578.384,87.757-.787,82.708.673c-6.16,2.051-5.7,8.994-9.271,13.772-1.848,2.763-5,6.546-7.907,6.97-1.41.205-2.448-2.648-3.856-2.451C39.733,24.294,9.84,60.66.41,80.791c-2.125,6.336,4.729,4.424,4.307,10.792-.519,12.081-1.654,27.547-.981,39.642.631,7.02.164,14.376,2.345,21.132-.587.713.256,1.434.945,1.743C7.893,155.576,16.427,157.075,19.044,157.28Z" transform="translate(5.105 -6.763)" fill="#d08b5b"/>
    <path id="_Top" data-name="ðŸ‘• Top" d="M61.674.006c1.313-.183,1.4,3.678,2.669,3.845,5.9,8.286,15.043,11.037,25.617,11.037q16.837,0,27.305-10.131l.64.27c3.3,1.4,6,2.821,6.938,7.25,5.449,22.6,22.388,39.962,34.8,58.987,1.2,1.715-.423,3.507-2.083,3.779.274-.021-.156.1-.061.032-.29.05-.617.856-.68.927a7.3,7.3,0,0,0-.348,1.363s-13.9,2.946-17.637,3.027c-37.525.812-106.147-.348-106.147-.348L3.939,69.169C2.3,66.7-1.189,66.6.41,61.835,9.84,41.7,39.733,5.337,61.674.006Z" transform="translate(5.105 12.193)" fill="#e86bbb"/>
    <path id="_Ink" data-name="ðŸ– Ink" d="M37.576,153.9c-1.532,0-2.917-.047-4.235-.143a.23.23,0,0,1-.156-.07,2.751,2.751,0,0,1-1.635-.829,2.137,2.137,0,0,1-.646-1.684l0-.022c.48-5.035,1.024-10.742,1.553-16.263.973-10.192,1.888-19.684,2.8-29.018l.136-1.4c.306-3.149.617-6.5.772-9.8-.773-.055-1.552-.125-2.315-.209-2.034-.223-4.121-.551-6.2-.976-1.987-.405-4.031-.911-6.076-1.5-1.938-.562-3.94-1.219-5.951-1.955-1.889-.691-3.85-1.475-5.829-2.33l-.312-.135c-.463-.2-.948-.4-1.462-.612l-.005,0-.762-.314c.008.878-.007,1.769-.021,2.63-.009.586-.019,1.193-.022,1.789-.007,1.7,0,3.418.007,5.085v.007c0,.719.006,1.462.008,2.192.013,4.337.153,8.962.454,15,.688,13.867,1.285,21.4,1.728,26.419.092,1.042.2,2.1.309,3.124v0c.119,1.149.243,2.338.342,3.508a3.926,3.926,0,0,1-.185,1.77A2.537,2.537,0,0,1,8.7,149.471a1.347,1.347,0,0,1-.681.2,2.237,2.237,0,0,1-.943-.274,2.337,2.337,0,0,1-1.236-1.407,7.87,7.87,0,0,1-.335-1.914c-.01-.107-.019-.2-.028-.3-.113-1.13-.215-2.255-.292-3.109-.2-2.264-.374-4.5-.509-6.643-.282-4.513-.456-8.958-.515-13.211-.063-4.492,0-8.939.183-13.219.179-4.169.437-8.333.77-12.378l.08-.95c.06-.7.116-1.431.17-2.133v-.007c.2-2.613.411-5.315.864-7.915A17.867,17.867,0,0,1,2.91,84.378,7.367,7.367,0,0,1,.531,81.684a4.586,4.586,0,0,1-.18-3.9,6.232,6.232,0,0,1,1.016-1.637,9.458,9.458,0,0,1,1.471-1.387,2.729,2.729,0,0,1,.059-.814,57.881,57.881,0,0,1,2.675-7.94C6.6,63.39,7.735,60.824,8.944,58.383a95.316,95.316,0,0,1,8.723-14.256A97.064,97.064,0,0,1,28.725,31.594a84.791,84.791,0,0,1,13.069-10.3,75.273,75.273,0,0,1,7.162-4.022l.364-.177a28.61,28.61,0,0,1,5.545-2.181c.19-.141.392-.283.6-.421a1.4,1.4,0,0,1,.776-.231,1.675,1.675,0,0,1,.818.221,1.722,1.722,0,0,1,.618.585,3.931,3.931,0,0,1,.75-.448l.282-.129a10.953,10.953,0,0,1,4.3-1.154,5.018,5.018,0,0,1,1.319.169A3.683,3.683,0,0,1,66.8,15.75a26.4,26.4,0,0,0,2.753-1.627,22.85,22.85,0,0,0,3.925-3.536,21.73,21.73,0,0,0,3.012-4.25,19.019,19.019,0,0,0,1.819-4.875A1.812,1.812,0,0,1,79.005.348,1.9,1.9,0,0,1,80.139,0a2.432,2.432,0,0,1,1.021.229,2.187,2.187,0,0,1,.816.644,1.854,1.854,0,0,1,.293,1.679A21.373,21.373,0,0,1,79.8,8.209a19.143,19.143,0,0,1-4.036,4.658,21.057,21.057,0,0,1-4.229,2.717,14.768,14.768,0,0,1-4.875,1.449c.164.159.327.328.485.491h0c.141.146.288.3.435.442a29.081,29.081,0,0,0,2.229,1.978,32.305,32.305,0,0,0,5.045,3.409,33.363,33.363,0,0,0,4.24,1.9,35.469,35.469,0,0,0,4.4,1.3,41.38,41.38,0,0,0,9.119.979,50.9,50.9,0,0,0,5.635-.323,57.022,57.022,0,0,0,5.73-.911,36.336,36.336,0,0,0,5.558-1.638,19.693,19.693,0,0,0,4.712-2.57l.374-.281a7.962,7.962,0,0,0,2.223-2.243,1.858,1.858,0,0,1-.407.044,4.039,4.039,0,0,1-2.078-.764,14.255,14.255,0,0,1-1.74-1.366,12.608,12.608,0,0,1-2.67-3.511,12.911,12.911,0,0,1-1.367-4.17,9.511,9.511,0,0,1-.056-2.2,7.437,7.437,0,0,1,.51-2.111.18.18,0,0,1,.164-.119.171.171,0,0,1,.167.164,18.092,18.092,0,0,0,.994,4.526,11.959,11.959,0,0,0,1,2.053,10.843,10.843,0,0,0,1.445,1.86,11.862,11.862,0,0,0,3.517,2.5l.185.085a2.512,2.512,0,0,1,1.383,1.116.685.685,0,0,1,.078,0,.731.731,0,0,1,.19.026c.071.019.141.041.22.07a2.216,2.216,0,0,1-.224-1.1,1.313,1.313,0,0,1,.423-.97,1.327,1.327,0,0,1,.884-.321,1.413,1.413,0,0,1,.831.266,1.3,1.3,0,0,1,.5.793c-.016-.054-.036-.086-.053-.086s-.015.008-.017.021a.115.115,0,0,0,.081.118h0a.822.822,0,0,1,.014.082l0,.037,0-.031c0-.02,0-.04-.008-.062l0-.027a.2.2,0,0,0,.085.017l.014.005.105.048h0c.072.033.154.07.188.084a4.862,4.862,0,0,0,.657.174c.176.038.358.077.53.131a3.789,3.789,0,0,1,2.09,1.412,3.9,3.9,0,0,1,.657,1.742,41.909,41.909,0,0,1,5.373,3.082,35.223,35.223,0,0,1,4.8,3.9,53.705,53.705,0,0,1,4.572,5.088,65.318,65.318,0,0,1,3.935,5.567,97.732,97.732,0,0,1,6.4,12.076c1.82,4.021,3.429,8.054,5.285,12.87l.263.683c1.4,3.653,2.021,5.685,2.4,7.047a37.822,37.822,0,0,1,1.354,7.308,1.8,1.8,0,0,1-.368,1.217,4.171,4.171,0,0,1,.125,1.12c0,.062-.007.124-.011.171h.036a2.139,2.139,0,0,1,1.709.947,1.2,1.2,0,0,1,.364-.058,1.126,1.126,0,0,1,.348.055c1.38.441,1.674,1.9,1.932,3.188q.025.124.05.245a21.428,21.428,0,0,1,.412,4.246,1.743,1.743,0,0,1-.208.794,1.269,1.269,0,0,1-.578.575c-.545.24-1.125.436-1.686.624-.4.134-.808.272-1.206.426-.744.287-1.477.553-2.178.791a6.537,6.537,0,0,1,.573,1.719v0c.06.255.117.5.183.718.328,1.11.607,2.263.854,3.525.88,4.526,1.621,9.155,2.338,13.631.567,3.541,1.153,7.2,1.8,10.788.759,4.19,1.636,8.3,2.47,12.151.445,2.053.91,4.052,1.382,5.943.263,1.057.538,2.117.816,3.151.078.291.159.59.248.915l.147.533a1.92,1.92,0,0,1,.786.814,2.783,2.783,0,0,1,.242,2.029,2.52,2.52,0,0,1-.457.893,2.815,2.815,0,0,1-.822.7,2.544,2.544,0,0,1-1.272.339,3.264,3.264,0,0,1-2.706-1.63,8.708,8.708,0,0,1-.835-2.472v0c-.062-.269-.121-.523-.187-.772-.293-1.106-.587-2.267-.9-3.551-.937-3.867-1.75-7.849-2.485-12.175-.652-3.84-1.228-7.865-1.76-12.3l-.07-.588c-.483-4.088-.981-8.438-1.3-12.736-.166-2.247-.281-4.3-.353-6.275-.038-1.085.024-2.18.085-3.238.009-.159.02-.325.03-.472h0c.021-.309.042-.629.052-.943l0-.067v-.006c0-.045.009-.106.013-.17l0-.08c-1.391.435-2.881.825-4.43,1.158a37.486,37.486,0,0,1-7.962.926c-.575,0-1.15-.017-1.71-.051.5,5.9,1.107,11.153,1.865,16.056.79,5.1,1.714,10.257,2.746,15.329.5,2.443,1.04,4.944,1.667,7.645.117.5.242,1.009.363,1.5v0c.207.839.42,1.706.6,2.566a3.4,3.4,0,0,1-.119,2.249c.28.762.536,1.528.784,2.268v0l0,.006c.081.243.165.493.247.735l.1.288c.107.314.235.634.358.943a9.062,9.062,0,0,1,.643,2.081,3.071,3.071,0,0,1-.026,1.034,2.749,2.749,0,0,1-.445,1.023,3.214,3.214,0,0,1-2.535,1.378l-.019.012h0l-.035.021a2.368,2.368,0,0,1-1.132.276,2.786,2.786,0,0,1-.57-.06c-1.019.2-1.852.354-2.624.486-2.071.358-4.2.666-6.522.943-3.769.449-7.86.748-12.507.915-3.227.116-6.669.173-10.521.173-4.889,0-9.861-.092-14.669-.181h-.026c-4.809-.089-9.781-.181-14.672-.181-2.135,0-4.1.017-6.011.052-7.1.129-14.747.442-23.368.958L54,153.146c-2.959.18-6.019.366-9.029.515l-1.2.058C41.9,153.809,39.736,153.9,37.576,153.9ZM142.535,87.655c.135,2.048.283,4.058.439,5.973l2.245-.515c2.161-.5,4.458-1.035,6.7-1.685,1.522-.441,3.133-.982,4.923-1.655.907-.341,1.733-.675,2.525-1.021a12.762,12.762,0,0,0,1.186-.614l.328-.187a18.786,18.786,0,0,0-.418-2.642c-.061-.269-.149-.548-.234-.817-.062-.2-.126-.4-.181-.6a1.277,1.277,0,0,1-.355.051,1.242,1.242,0,0,1-.148-.009c.054.007.083.018.085.035.006.046-.191.122-.364.19-.086.034-.168.065-.215.09l-.013.007c-.331.19-.645.362-.959.526-.69.363-1.446.72-2.309,1.09A27.952,27.952,0,0,1,151,87.4a25.1,25.1,0,0,1-4.923.606c-.144,0-.287,0-.422,0A11.458,11.458,0,0,1,142.535,87.655ZM3.723,76.415h0l-.059.119a4.842,4.842,0,0,0-.6,2.524,2.7,2.7,0,0,0,.388,1.18,3.562,3.562,0,0,0,1.04,1.054,19.576,19.576,0,0,0,2.738,1.547c1.37.652,2.816,1.2,4.213,1.738.346.132.7.269,1.051.4l.343.134c3.345,1.313,6.416,2.37,9.387,3.231,1.656.479,3.3.9,4.877,1.249,1.677.372,3.342.677,4.95.907,1.345.191,2.766.335,4.225.429.021-1.7.014-3.428.008-5.1v0q0-.3,0-.6l-.519-.067c-.318-.041-.647-.084-.964-.122-1.552-.181-2.985-.39-4.382-.64a66.629,66.629,0,0,1-8.97-2.253,56.644,56.644,0,0,1-7.855-3.246A55.678,55.678,0,0,1,6.337,74.5a4.06,4.06,0,0,1-.593,1.269,1.837,1.837,0,0,1-1.127.731,1.672,1.672,0,0,1-.342.037,1.241,1.241,0,0,1-.552-.124ZM63.609,15.406a7.561,7.561,0,0,0-2.826.631c-.443.189-.9.385-1.335.621l-.083.047c-.5.29-.5.467-.254,1.037a17.248,17.248,0,0,0,1.155,2.146l.03.05A30.35,30.35,0,0,0,67.2,27.809a37.138,37.138,0,0,0,5.859,3.9,41.153,41.153,0,0,0,6.516,2.8,44.164,44.164,0,0,0,6.93,1.692,45,45,0,0,0,7.1.567h0a42.649,42.649,0,0,0,9.1-.967,36.113,36.113,0,0,0,8.376-2.9,28.189,28.189,0,0,0,7.233-5.089l.388-.386a21.737,21.737,0,0,0,2.658-3.064,8.313,8.313,0,0,0,.948-1.8,4.648,4.648,0,0,0,.3-1.887,1.247,1.247,0,0,0-.575-1.067,3.745,3.745,0,0,0-1.2-.392c-.107-.023-.217-.047-.326-.072a4.452,4.452,0,0,1-1.164-.429,1.868,1.868,0,0,1-.083.986,4.808,4.808,0,0,1-.512,1.054,9.933,9.933,0,0,1-1.379,1.7,19.142,19.142,0,0,1-5.59,3.724,33.4,33.4,0,0,1-6.055,2.013,58.612,58.612,0,0,1-6.3,1.092,50.878,50.878,0,0,1-6.262.395A44.913,44.913,0,0,1,85,28.959a36.349,36.349,0,0,1-6.1-1.68,30.545,30.545,0,0,1-5.667-2.8,26.012,26.012,0,0,1-4.6-3.593l-.289-.292c-.469-.475-1.01-1.033-1.5-1.636a8.5,8.5,0,0,1-1.209-1.869h-.082c-.194,0-.391-.007-.585-.02a.183.183,0,0,1-.164-.144.147.147,0,0,1,.079-.169c.166-.088.344-.182.526-.277-.033-.108-.057-.2-.076-.29a.106.106,0,0,1,.022-.089.1.1,0,0,1,.075-.038.092.092,0,0,1,.048.014c.1.059.2.125.306.2.027-.012.054-.027.082-.042A2.969,2.969,0,0,0,63.609,15.406Z" transform="translate(2.958 -1.39)"/>
  </g>
  <g id="HEAD" transform="translate(78.592 38.043)">
    <path id="_Skin-2" data-name="âœ‹ Skin" d="M41.047,0l1.821,2.171q-1.512,1.068-2.855,2.147v0A24.82,24.82,0,0,1,53.713,0C63.269,0,82.68,8.229,87.068,14.165c2.178,2.946,6.224,11.989,8.323,21.82,1.687,7.9,4.2,30.217,1.687,38.6C93.867,85.321,83.3,95.24,72.414,95.24s-27.8-7.882-39.834-25.157c-.55-.79-6.869-1.705-11.377-4.67l1.184,13.072.9,7.6-.2.541q-4.843,13.13-7.675,13.7-2.89.582-11.772-9.5l-.757-3.184Q0,75.465,0,74.569v-.109c.028-1.374.5-9.154.51-11.248V31.835Q10.064,0,18.743,0Z" transform="translate(-8.577 12.541)" fill="#d08b5b"/>
    <path id="_Ink-2" data-name="ðŸ– Ink" d="M15.931,117.648a2.13,2.13,0,0,1-1.364-.5,1.951,1.951,0,0,1-.7-1.315,2.742,2.742,0,0,1-.83-1.053,4.912,4.912,0,0,1-.386-1.372c-.092-.637-.159-1.28-.224-1.9-.079-.76-.161-1.547-.29-2.32l-.089.084-.046.04-.015.1a2.092,2.092,0,0,1-1.03,1.468,4.581,4.581,0,0,1-.859,3.359A2.238,2.238,0,0,1,8.383,115a2.317,2.317,0,0,1-.406-.035H7.926a.715.715,0,0,1-.093-.006,2.741,2.741,0,0,1-1.127-.408,2.6,2.6,0,0,1-.789-.787,2.534,2.534,0,0,1-.3-2.1,3.666,3.666,0,0,1-.712-1.39,3.47,3.47,0,0,1-.052-1.548,2.267,2.267,0,0,1-.748-.827,3.136,3.136,0,0,1-.331-1.086A6.058,6.058,0,0,1,4.02,104.4a4.144,4.144,0,0,1-1.2-4.745A4.986,4.986,0,0,1,1.75,97a5.307,5.307,0,0,1,.5-2.809A2.847,2.847,0,0,1,1.225,92a2.918,2.918,0,0,1,1.018-2.257,7.461,7.461,0,0,1-.758-2.28,3.465,3.465,0,0,1,.323-2.189,2.918,2.918,0,0,1-.729-2.139,2.657,2.657,0,0,1,.567-1.454,3.966,3.966,0,0,1,1.2-.994l.065-.356A.777.777,0,0,0,3.57,80.1,3.484,3.484,0,0,1,4.2,79.62a.812.812,0,0,0,.6-.281,4.224,4.224,0,0,1,1.327-.2.788.788,0,0,0,.595-.253.884.884,0,0,0,.217-.553.8.8,0,0,0-.7-.876.833.833,0,0,0-.6-.253h-.18a3.117,3.117,0,0,0-1.235.2,1.386,1.386,0,0,0-.592.473,1.178,1.178,0,0,1-.547.855,1.335,1.335,0,0,1-.76.238,1.283,1.283,0,0,1-.654-.177,1.091,1.091,0,0,1-.533-.682,2.419,2.419,0,0,1-.018-.873A5.824,5.824,0,0,0,.9,75.272a5.762,5.762,0,0,1-.216-2.058,3.213,3.213,0,0,1,.618-1.57A3.7,3.7,0,0,1,.7,69.9a3.6,3.6,0,0,1,.322-1.819,3.873,3.873,0,0,1-.99-2.176,4.23,4.23,0,0,1,.389-2.36c0-.016.009-.032.013-.046s.011-.04.017-.06a3.608,3.608,0,0,1,.315-.685,3.494,3.494,0,0,1,.015-3.519,3.281,3.281,0,0,1-.755-2.042,3.5,3.5,0,0,1,.617-2.108c0-.076.011-.154.018-.229l.007-.075a3.78,3.78,0,0,1-.236-1.6,3.943,3.943,0,0,1,.437-1.55,6.237,6.237,0,0,1-.4-1.332,7.8,7.8,0,0,1,.228-3.6c.052-.178.111-.362.181-.564.01-.734.037-1.532.083-2.441a9.77,9.77,0,0,1-.19-2.142V41.1c0-.088,0-.18,0-.274-.013-1.119-.03-2.65.644-3.558a3.063,3.063,0,0,1,.506-3.241,3.452,3.452,0,0,1-.469-1.539A3.084,3.084,0,0,1,1.8,30.866a3.413,3.413,0,0,1,.3-.475,5.533,5.533,0,0,1,.667-2.907,4.819,4.819,0,0,1,1.417-1.591c-.011-.144-.016-.268-.014-.38a4.75,4.75,0,0,1,.342-1.645,2.679,2.679,0,0,1-.328-2.137,3.443,3.443,0,0,1,1.691-2.063A17.241,17.241,0,0,1,6.256,17.2a2.428,2.428,0,0,1-.206-.874,2.639,2.639,0,0,1,.111-.9A2.467,2.467,0,0,1,7.271,14,2.872,2.872,0,0,1,7.9,11.516a2.442,2.442,0,0,1,.835-.589A3.056,3.056,0,0,1,9.36,8.4a2.848,2.848,0,0,1,.9-.7,2.932,2.932,0,0,1,1.09-.3,3.255,3.255,0,0,1,3.132-2.6c.058,0,.116,0,.173.005a2.462,2.462,0,0,1,.49-.926,2.321,2.321,0,0,1,.883-.643,2.354,2.354,0,0,1,.554-.155,8.9,8.9,0,0,1,2.242-1.6A12.909,12.909,0,0,1,21.339.5,9.356,9.356,0,0,1,23.78.155a6.469,6.469,0,0,1,2.235.373l.1.039L26.23.551C26.7.5,27.2.465,27.71.452A6.643,6.643,0,0,1,30.124,0a6.485,6.485,0,0,1,3.4.957c.12-.005.241-.008.361-.008A9.529,9.529,0,0,1,38.7,2.313a10.605,10.605,0,0,1,2.022,1.546,10.149,10.149,0,0,1,1.583,1.981l.039.042c.026.028.052.057.075.084l.386.45A12.273,12.273,0,0,1,43.862,7.81a4.663,4.663,0,0,0-2.039.489,4.342,4.342,0,0,0-1.57,1.389.7.7,0,0,0-.078.748.956.956,0,0,0,.83.479.843.843,0,0,0,.682-.343l.022-.03A2.562,2.562,0,0,1,43.9,9.5a.794.794,0,0,0,.578-.243c.051.186.1.381.146.594A29.407,29.407,0,0,1,55.343,7.942c1.041,0,2.115.047,3.192.14A5.606,5.606,0,0,0,58.02,9.16a.743.743,0,0,0,.056.594.886.886,0,0,0,.533.446.843.843,0,0,0,.223.031.878.878,0,0,0,.8-.581l.015-.04A3.022,3.022,0,0,1,60.525,8.3a46.808,46.808,0,0,1,6.609,1.407,72.317,72.317,0,0,1,7.688,2.706,1.973,1.973,0,0,0-1.052.924.8.8,0,0,0,0,.813.951.951,0,0,0,.789.459.736.736,0,0,0,.647-.385l.019-.033a.784.784,0,0,1,.133-.188l.012-.011.074-.034.138-.04.053-.013a.672.672,0,0,1,.133-.014l.057,0c.147-.008.3-.008.442-.009h.05a.766.766,0,0,0,.744-.492c1.244.563,2.479,1.159,3.673,1.774l.286.149a28.692,28.692,0,0,1,5.269,3.453,18.838,18.838,0,0,1,2.224,2.209A15.539,15.539,0,0,1,90.3,23.58a1.3,1.3,0,0,1,.144.788c.424.509.848,1.052,1.263,1.615a30.228,30.228,0,0,1,3,5.491,59.192,59.192,0,0,1,3.786,11.812c.947,4.261,1.693,8.593,2.237,11.891.423,2.572.727,4.687.955,6.656.28,2.419.445,4.612.5,6.7a45.552,45.552,0,0,1-1.143,11.852,35.991,35.991,0,0,1-1.84,5.634,32.086,32.086,0,0,1-6.187,9.509,29.958,29.958,0,0,1-4.032,3.587,26.857,26.857,0,0,1-4.62,2.748,24.3,24.3,0,0,1-5.124,1.721,26.3,26.3,0,0,1-5.489.585,24.343,24.343,0,0,1-8.025-1.334A22.323,22.323,0,0,1,58.6,98.78a1.907,1.907,0,0,1-.642-1.4,2.51,2.51,0,0,1,.148-.953,2.192,2.192,0,0,1,.495-.8,2.088,2.088,0,0,1,1.5-.629,2.562,2.562,0,0,1,1.641.629,17.353,17.353,0,0,0,5.742,3.2,20.387,20.387,0,0,0,6.494,1.033,22.232,22.232,0,0,0,7.466-1.295,20.936,20.936,0,0,0,4.245-2.106,24.263,24.263,0,0,0,3.71-2.954,28.051,28.051,0,0,0,3.126-3.6,30.356,30.356,0,0,0,4.611-9.3,37.05,37.05,0,0,0,1.189-5.524,47.609,47.609,0,0,0,.428-5.66c.033-1.789-.023-3.7-.165-5.673-.288-4.037-.868-7.966-1.541-12.315l-.382-2.462C96.2,46,95.783,43.5,95.245,41.012l-.134-.615c-.425-1.94-.788-3.418-1.177-4.791a39.6,39.6,0,0,0-1.6-4.648c-.67-1.588-1.489-3.139-2.275-4.578-.164-.3-.327-.6-.487-.879a1.144,1.144,0,0,1-.379.064,1.22,1.22,0,0,1-.368-.058,30.738,30.738,0,0,0-7.081-1.361c-.664-.045-1.347-.067-2.03-.067-.416,0-.842.008-1.265.025-.361-.021-.723-.032-1.076-.032a14.743,14.743,0,0,0-4.527.666c-.179-.154-.366-.309-.53-.446a1.251,1.251,0,0,1-.144-.018,1.391,1.391,0,0,1-.972-.827c-.011-.024-.021-.047-.028-.065-.218-.168-.452-.342-.693-.519a.841.841,0,0,1-.211.027.919.919,0,0,1-.63-.266,1.277,1.277,0,0,1-.36-.607c-.092-.062-.186-.124-.277-.183l-.106-.069a1.882,1.882,0,0,1-.3.052c-.065,0-.13.007-.193.007a2.082,2.082,0,0,1-1-.241,2.2,2.2,0,0,1-.97-1.126c-.057,0-.115.005-.172.005a3.469,3.469,0,0,1-1.892-.61,6.275,6.275,0,0,1-1.3-1.273,43.669,43.669,0,0,0-7.433-2.542,44.278,44.278,0,0,0-7.754-1.181c-.515.1-1.028.218-1.526.354-.125.034-.306.1-.483.173a14.555,14.555,0,0,1,1.743-.109A12.55,12.55,0,0,1,49.4,15.4a17.043,17.043,0,0,1,7.633,3.344,46.956,46.956,0,0,1,6.233,5.737.964.964,0,0,1,.191-.019,1.177,1.177,0,0,1,1.051.737.92.92,0,0,1-.262,1.047L57.735,32.3a.884.884,0,0,1-.192.757,1.167,1.167,0,0,1-.888.449.91.91,0,0,1-.212-.025c-1.045-.252-2.163-.514-3.416-.8a3.69,3.69,0,0,1-1.6.365,3.536,3.536,0,0,1-2.16-.723c-.03-.024-.083-.056-.14-.091h0l-.113-.071a2.472,2.472,0,0,1-.226.159l-.006,0-.022.015a1.758,1.758,0,0,1-.977.284,2.05,2.05,0,0,1-.321-.026,2.641,2.641,0,0,1-1.236-.6,3.353,3.353,0,0,1-.324-.351c-.24-.281-.539-.631-.733-.668l-.015,0a.027.027,0,0,1,.023.021c.022.11-.482.58-.645.7a1.907,1.907,0,0,1-1.133.391,1.833,1.833,0,0,1-.2-.011,2.184,2.184,0,0,1-1.179-.569,4.2,4.2,0,0,1-.848-1.043l-.032-.056-.013-.035-.011.037c0,.007,0,.014-.007.022a1.427,1.427,0,0,1-.4.486,1.619,1.619,0,0,1-1.083.427,1.663,1.663,0,0,1-.286-.025,1.951,1.951,0,0,1-1.083-.651l-.045-.05c-.084-.094-.653-.862-.564-1.044l.01-.016-.028-.006a1.1,1.1,0,0,1-.263.033.9.9,0,0,1-.584-.211A32.243,32.243,0,0,1,33.3,28.42c-.094.264-.179.51-.259.75a10.469,10.469,0,0,1,1.112.837c.21.173.408.336.6.48l.013.01c.917.678,1.956,1.446,2.97,2.2l3.934,2.91.45-.121a1.078,1.078,0,0,1,.28-.038,1.1,1.1,0,0,1,1,.732l.017.044a3.846,3.846,0,0,0,.3.631l.091,0a2.063,2.063,0,0,1,2,1.436l.133,0a5.569,5.569,0,0,1,.606.033,1.2,1.2,0,0,1,.847.448,1.061,1.061,0,0,1,.178.841l-.009.048-.017.078a1.2,1.2,0,0,1,.751.992,1.871,1.871,0,0,1,.248.531,4.83,4.83,0,0,1-.392,2.688c-.064.19-.125.369-.178.541l-.023.076c-.2.681-.412,1.344-.589,1.9l-.5,1.572a48.022,48.022,0,0,0-1.743,6.718,17.112,17.112,0,0,0,.132,6.877.823.823,0,0,1-.131.72.859.859,0,0,1-.676.317.889.889,0,0,1-.732-.386,60.6,60.6,0,0,0-4.19-5.244l-.072-.011a2.765,2.765,0,0,1-1.824-1.549l-.088-.14a1.89,1.89,0,0,1-.534.078,1.787,1.787,0,0,1-.338-.032,2.146,2.146,0,0,1-1.1-.627,2.47,2.47,0,0,1-.311-.469,1.681,1.681,0,0,0-.471-.616.759.759,0,0,0-.367-.074,3.854,3.854,0,0,0-.532.053h-.006a3.807,3.807,0,0,1-.514.052,1.018,1.018,0,0,1-.149-.01,3.571,3.571,0,0,1-1.029-.335,5.731,5.731,0,0,0-1.1,2.839,2.353,2.353,0,0,1-.327,1.012c.11,0,.219-.006.322-.006a8.506,8.506,0,0,1,1.559.143,6.466,6.466,0,0,1,4.881,3.976.086.086,0,0,1-.006.083.08.08,0,0,1-.066.037.075.075,0,0,1-.064-.039,3.9,3.9,0,0,0-1.763-1.468,5.716,5.716,0,0,0-2.284-.437,7.786,7.786,0,0,0-2.5.421,5.637,5.637,0,0,0-2.728,2.006,7.011,7.011,0,0,0-.835,1.479,8.744,8.744,0,0,0-.505,1.676,9.161,9.161,0,0,0-.169,1.938,10.191,10.191,0,0,0,.224,1.94A11.034,11.034,0,0,0,28.3,72.556a5.149,5.149,0,0,0,2.686,2.3,3.092,3.092,0,0,0,.952.139,8.192,8.192,0,0,0,1.1-.1h0a8.247,8.247,0,0,1,1.113-.1,3.265,3.265,0,0,1,.914.121,1.662,1.662,0,0,1,1.036.827,2.028,2.028,0,0,1,.18,1.322,2.825,2.825,0,0,1-.371.968c.12.238.24.483.356.719l0,.006A25.4,25.4,0,0,0,37.5,81.055,23.142,23.142,0,0,0,40.77,85c1.513,1.529,2.715,2.674,3.9,3.711a23.208,23.208,0,0,0,2.419,1.778c.57.382,1.159.776,1.717,1.2a2.9,2.9,0,0,1,1.011,1.3,2.225,2.225,0,0,1-.056,1.627,2.4,2.4,0,0,1-.847,1.032,2.27,2.27,0,0,1-1.287.443,1.613,1.613,0,0,1-.62-.12,14.236,14.236,0,0,1-2.861-1.628,28.447,28.447,0,0,1-2.553-2.1,19.14,19.14,0,0,1-2.084-2.225,18.6,18.6,0,0,1-1.7-2.53,29.578,29.578,0,0,1-2.191-5.38l-.072-.227a25.172,25.172,0,0,1-.744-2.824,5.85,5.85,0,0,1-2.738.606A7.807,7.807,0,0,1,31,79.588a8.078,8.078,0,0,1-2.722-.893A8.834,8.834,0,0,1,26,76.94a12.136,12.136,0,0,1-1.633-2.222c.033.385.056.755.078,1.113l0,.026q.008.138.017.271a5.041,5.041,0,0,1,1.152,4.544,3.322,3.322,0,0,1,.875,1.7,3.407,3.407,0,0,1-.176,1.895,2.888,2.888,0,0,1,.808,1.855,5.878,5.878,0,0,1-.274,2.19,3.818,3.818,0,0,1,.692,1.12,4.188,4.188,0,0,1,.291,1.276,4.274,4.274,0,0,1-.609,2.525l-.028.108a4.149,4.149,0,0,1,.492,1.251,4.327,4.327,0,0,1,.077,1.32,4.432,4.432,0,0,1-.32,1.286,4.365,4.365,0,0,1-.7,1.147,4.179,4.179,0,0,1,.445,1.477A2.963,2.963,0,0,1,27,101.262a2.237,2.237,0,0,1-.58.811,2.652,2.652,0,0,1-1,.541,2.163,2.163,0,0,1-.625.093,2.189,2.189,0,0,1-1.348-.473,21.634,21.634,0,0,1,.452,3.646,12.652,12.652,0,0,1-.4,3.655,2.244,2.244,0,0,1-.819,1.2,2.283,2.283,0,0,1-1.367.472,2.081,2.081,0,0,1-1.075-.285,2.434,2.434,0,0,1-.767-.744,14.849,14.849,0,0,1-.285,3.682,1.837,1.837,0,0,1-.574.967,2.336,2.336,0,0,1-1.007.542.983.983,0,0,1,.116,1.182,2.186,2.186,0,0,1-.8.839A1.96,1.96,0,0,1,15.931,117.648Zm-.81-12.878a.872.872,0,0,0-.818.624.858.858,0,0,0,.589,1.04,5.519,5.519,0,0,0,1.681.213.857.857,0,0,0,.843-.845.856.856,0,0,0-.843-.845,3.814,3.814,0,0,1-1.233-.153A.735.735,0,0,0,15.121,104.77Zm-3.648-8.945h0a2.309,2.309,0,0,0-1.689.613.828.828,0,0,0-.244.609.8.8,0,0,0,.244.586.889.889,0,0,0,.6.241.848.848,0,0,0,.556-.208l.066-.059.019-.018.01-.006c.024-.016.049-.031.074-.045l-.055.036c-.007.005-.011.008-.01.009h0a.484.484,0,0,0,.065-.028h0l.052-.024.017-.007h.005l.044,0c.077,0,.158,0,.223,0h.02a.876.876,0,0,0,.618-.275.777.777,0,0,0,.226-.57.912.912,0,0,0-.252-.594.815.815,0,0,0-.59-.251Zm9.859-6.574H21.31a.776.776,0,0,0-.611.265.891.891,0,0,0-.2.582.8.8,0,0,0,.814.844h.18a4.269,4.269,0,0,0,2.25-.48.808.808,0,0,0,.357-.429.84.84,0,0,0,.008-.5.971.971,0,0,0-.29-.463.75.75,0,0,0-.5-.2.8.8,0,0,0-.4.11L22.888,89a2.3,2.3,0,0,1-1.239.251h-.316Zm-7.309-5.113a.853.853,0,0,0-.532.2,2.435,2.435,0,0,0-.671.412.707.707,0,0,0-.229.809.952.952,0,0,0,.864.6.845.845,0,0,0,.558-.218.639.639,0,0,1,.157-.1l.045-.019h.9a.791.791,0,0,0,.24-.042c.231.032.448.074.622.109h.006l.122.024a.958.958,0,0,0,.177.017.828.828,0,0,0,.612-.267,1,1,0,0,0,.264-.583.7.7,0,0,0-.6-.8,9.264,9.264,0,0,0-1.689-.193,4.625,4.625,0,0,0-.5.026l-.12.015ZM13.918,67.63h0a3.675,3.675,0,0,0-2.141.676.857.857,0,0,0-.342.465.914.914,0,0,0,.011.527.971.971,0,0,0,.28.437.7.7,0,0,0,.459.181.753.753,0,0,0,.41-.13l.032-.021a2.807,2.807,0,0,1,.336-.2,3.247,3.247,0,0,0,.9.134,2.72,2.72,0,0,0,.943-.167l.078-.03.047.018a.893.893,0,0,0,.378.087.883.883,0,0,0,.58-.227.989.989,0,0,0,.311-.516.686.686,0,0,0-.417-.8,4.415,4.415,0,0,0-1.867-.433Zm.624-11.417h0c.159,0,.326.015.5.032.426.044.846.124,1.311.216a.958.958,0,0,0,.184.018.9.9,0,0,0,.868-.84.774.774,0,0,0-.115-.505.739.739,0,0,0-.488-.3l-.471-.093c-.186-.036-.338-.065-.48-.09a.835.835,0,0,0-.31-.088l-.056,0H15.22a6.076,6.076,0,0,0-.668-.04c-.073,0-.146,0-.216.005a1.871,1.871,0,0,0-.667.16,1.194,1.194,0,0,0-.511.408.832.832,0,0,0-.068.78.846.846,0,0,0,.825.574.942.942,0,0,0,.628-.231Zm-8.7-14.845a4.521,4.521,0,0,0-1.94.379,1.769,1.769,0,0,0-1.048,1.481.719.719,0,0,0,.166.568.8.8,0,0,0,.6.24.993.993,0,0,0,.526-.15.842.842,0,0,0,.353-.449,11.063,11.063,0,0,1,1.962-.177,10.914,10.914,0,0,1,1.194.066.953.953,0,0,0,.248-.874.7.7,0,0,0-.509-.506.732.732,0,0,0-.554-.507l-.1-.013A7.056,7.056,0,0,0,5.846,41.368Zm32.928-3.241h0a.78.78,0,0,0-.574.242,2.841,2.841,0,0,0-.466.658l-.082.163c-.015.029-.029.056-.043.08s-.047.078-.069.112l-.02.031-.02.02,0,0-.027.029a.919.919,0,0,0-.242.651.768.768,0,0,0,.242.545.923.923,0,0,0,.618.243.78.78,0,0,0,.574-.243A2.845,2.845,0,0,0,39.13,40l.082-.163c.015-.029.029-.055.043-.08s.043-.072.065-.106l0,0,.021-.034.034-.034.016-.017a.919.919,0,0,0,.242-.651.768.768,0,0,0-.242-.545.925.925,0,0,0-.619-.242Zm-18.188-.481c.023.013.045.027.067.041l.012.008.049.044a.9.9,0,0,0,.617.242.769.769,0,0,0,.567-.235.911.911,0,0,0,.564-.737.853.853,0,0,0-.362-.842,3.188,3.188,0,0,0-1.835-.632,2.705,2.705,0,0,0-1.859.764.737.737,0,0,0-.209.839.942.942,0,0,0,.84.59.811.811,0,0,0,.534-.208L19.6,37.5c.031-.029.061-.053.087-.073a.809.809,0,0,0,.531.2h.162l.081,0,.043,0h.006l.038.016.032.015h0a.471.471,0,0,0,.064.027s-.018-.016-.059-.042Zm12.953-5.922a.908.908,0,0,0-.249.037,2.926,2.926,0,0,0-1.864,2.417.865.865,0,0,0,.589,1.04.786.786,0,0,0,.208.027.84.84,0,0,0,.829-.618,3.472,3.472,0,0,1,.262-.832l.073-.142c.035-.065.046-.076.161-.176a.791.791,0,0,1,.168-.079l.021-.007a.8.8,0,0,0,.585-.916.94.94,0,0,0-.248-.522A.731.731,0,0,0,33.539,31.724ZM14.681,24.693h0a2.575,2.575,0,0,0-.992.174,1.58,1.58,0,0,0-.757.647.754.754,0,0,0-.033.787.942.942,0,0,0,.8.465.781.781,0,0,0,.662-.365h.031l.019,0,.26-.021h.019a4.032,4.032,0,0,1,.93.13.935.935,0,0,0,.215.026.778.778,0,0,0,.574-.247.962.962,0,0,0,.256-.552.816.816,0,0,0-.107-.525.765.765,0,0,0-.489-.332l-.163-.037a5.742,5.742,0,0,0-1.225-.152Zm37.2-7.755h0a.788.788,0,0,0-.562.249,8.157,8.157,0,0,0-1.589,2,.93.93,0,0,0-.079.641.815.815,0,0,0,.382.516.835.835,0,0,0,.423.11.8.8,0,0,0,.731-.414A6.337,6.337,0,0,1,52.5,18.393l.011-.011a.771.771,0,0,0,.186-.87.919.919,0,0,0-.816-.574Zm-9.066-.578a3.681,3.681,0,0,0-1.549,2.052.749.749,0,0,0,.058.6.884.884,0,0,0,.531.443.841.841,0,0,0,.223.031.875.875,0,0,0,.8-.581l.015-.04a2.607,2.607,0,0,1,.365-.706,1.346,1.346,0,0,1,.5-.408.882.882,0,0,0,.614-.888,1.368,1.368,0,0,1-.448.077A1.421,1.421,0,0,1,42.811,16.36ZM18.6,13.729c.041.009.081.02.12.033l.048.017h0a.421.421,0,0,0,.077.06l.046.033.006,0a.818.818,0,0,0,.562.233.942.942,0,0,0,.84-.59.737.737,0,0,0-.209-.839,2.306,2.306,0,0,0-1.594-.635,2.667,2.667,0,0,0-1.128.259.709.709,0,0,0-.368.446.912.912,0,0,0,.066.711.792.792,0,0,0,.71.4,1.061,1.061,0,0,0,.432-.1c-.014.007-.02.011-.02.012h0a1.116,1.116,0,0,0,.121-.034h0l.075-.023a.151.151,0,0,0,.034,0h.164l.055,0H18.6ZM36.692,68.9a.9.9,0,0,1-.666-.314L36,68.556a9.52,9.52,0,0,0-2.614-2.123,8.654,8.654,0,0,0-3.205-1.019,1.075,1.075,0,0,1-.775-.445,1.263,1.263,0,0,1-.229-.8,1,1,0,0,1,.236-.614.821.821,0,0,1,.633-.266,1.209,1.209,0,0,1,.135.008,11.7,11.7,0,0,1,4.012,1.185,10.876,10.876,0,0,1,3.3,2.576,1.044,1.044,0,0,1,.171,1.156,1.245,1.245,0,0,1-.4.488A.977.977,0,0,1,36.692,68.9Z" transform="translate(-10.33 4.861)"/>
  </g>
  <g id="FACE" transform="translate(112.183 77.354)">
    <ellipse id="eye" cx="10.775" cy="10.99" rx="10.775" ry="10.99" transform="translate(25.352 14.16)" fill="#fff"/>
    <path id="_Ink-3" data-name="ðŸ– Ink" d="M1.7,38.724a1.855,1.855,0,0,1-1.046-.34,1.434,1.434,0,0,1-.607-.9,3.931,3.931,0,0,1,.265-2.055c.049-.153.1-.311.148-.478.171-.584.318-1.187.459-1.769.052-.215.106-.437.161-.655.181-.724.346-1.508.521-2.465a6.051,6.051,0,0,0,.072-.738A3.814,3.814,0,0,1,1.849,28.2a.1.1,0,0,1,.086-.066.085.085,0,0,1,.024,0A1.638,1.638,0,0,1,2.988,29.47a7.612,7.612,0,0,1,.171,1.821v.049c0,.2,0,.388,0,.6l.435.1a29.045,29.045,0,0,0,6.176.8c.352,0,.705-.01,1.051-.03a17.377,17.377,0,0,0,3.061-.474c.992-.237,1.983-.539,2.942-.831.76-.232,1.546-.471,2.338-.68a8.55,8.55,0,0,1,.091-4.015.17.17,0,0,1,.325,0c.137.428.259.858.377,1.275a15.726,15.726,0,0,0,1.053,2.952,1.476,1.476,0,0,1,.36.639A12.274,12.274,0,0,0,22.458,33.2a1.982,1.982,0,0,1,.608,2.011.975.975,0,0,1-.907.691l-.081,0a1.766,1.766,0,0,1-1.372-.7,4.969,4.969,0,0,1-.828-1.562,27.483,27.483,0,0,1-3.827.978,22.556,22.556,0,0,1-3.94.363c-.5,0-.993-.019-1.472-.057a21.33,21.33,0,0,1-3.829-.645,15.344,15.344,0,0,1-3.632-1.455c.01.379.024.765.037,1.138,0,.1.007.207.011.31.012.341.055.7.1,1.051a7.764,7.764,0,0,1,.081,1.7,2.055,2.055,0,0,1-.439,1.115,1.632,1.632,0,0,1-1.042.563A1.5,1.5,0,0,1,1.7,38.724ZM13.13,24.481a15.809,15.809,0,0,1-3.25-.348,16.948,16.948,0,0,1-3.069-.957A10.649,10.649,0,0,1,3.4,20.9,10.522,10.522,0,0,1,1.2,17.68a11.774,11.774,0,0,1-.952-3.828,13.29,13.29,0,0,1,.322-4.1A14.98,14.98,0,0,1,1.716,6.593,14.048,14.048,0,0,1,3.638,3.657,9.693,9.693,0,0,1,6.232,1.482,6.643,6.643,0,0,1,9.393.6,11.221,11.221,0,0,1,12.986,0c.169,0,.339,0,.506.012a10.9,10.9,0,0,1,7.694,3.734,11.544,11.544,0,0,1,2.092,3.53,11.421,11.421,0,0,1,.713,4.043,19.164,19.164,0,0,1-.568,4.453A16.907,16.907,0,0,1,21.8,19.957a8.364,8.364,0,0,1-3.721,3.484,10.194,10.194,0,0,1-2.386.792A12.863,12.863,0,0,1,13.13,24.481ZM5.275,4.309a10.917,10.917,0,0,0-1.017,1.77,13.36,13.36,0,0,0-.716,1.958A14.956,14.956,0,0,0,2.988,12.1,11.369,11.369,0,0,0,3.366,15a8.628,8.628,0,0,0,1.205,2.662,8.7,8.7,0,0,0,5.346,3.243,14.582,14.582,0,0,0,3.44.443,9.967,9.967,0,0,0,2.655-.341,5.588,5.588,0,0,0,2.551-1.517,7.542,7.542,0,0,0,1.578-2.547,14.147,14.147,0,0,0,1.024-6.563,8.8,8.8,0,0,0-.9-3.083,8.072,8.072,0,0,0-2.147-2.608,7.7,7.7,0,0,0-2.343-1.286,8.123,8.123,0,0,0-2.628-.431c-.2,0-.406.007-.608.022a8.329,8.329,0,0,0-2.92.76,8.224,8.224,0,0,0-.737.411c-.21.127-.427.257-.65.368a7.107,7.107,0,0,1-.81.322c-.167.059-.341.119-.508.187l-.163.069a1.159,1.159,0,0,1-.475.1,1.023,1.023,0,0,1-.689-.261A.939.939,0,0,1,5.275,4.309Zm7.537,11.865a2.131,2.131,0,0,1-.251-.015,1.747,1.747,0,0,1-.779-.291,1.865,1.865,0,0,1-.557-.595l-.01.006a6.333,6.333,0,0,1-.559-2.43l-.045-.626a3.272,3.272,0,0,1,.464-2.312,2.153,2.153,0,0,1,1.72-.941,1.851,1.851,0,0,1,.9.232,2.233,2.233,0,0,1,.764.709,3.421,3.421,0,0,1,.439,2.34q0,.09-.009.183l-.008.21q0,.11-.007.22a5.738,5.738,0,0,1-.292,1.976A1.892,1.892,0,0,1,12.812,16.174Z" transform="translate(23.662 12.892)"/>
  </g>
</svg>
