<svg id="peep-36" xmlns="http://www.w3.org/2000/svg" width="240" height="324" viewBox="0 0 240 324">
  <g id="BODY" transform="translate(31.056 135.053)">
    <path id="_Skin" data-name="âœ‹ Skin" d="M145.681,58.086c-2.933-13.9-13.333-24.684-27.321-30.057-2.689-1.521-5.295-8.049-8.908-9.244-.579-.192.335,1.333,0,1.425a3.84,3.84,0,0,1-3.853-.814c-2.358-2.1-3.1-8.222-4.532-10.991C93.505-6.2,74.626-.485,72.1,15.657a59.03,59.03,0,0,1-6.176,3.09c-1.977.954-3.716,3.265-5.753,4.092-1.818.737-4.813.215-6.644.858C45.1,26.652,37.964,30.382,32.37,37.94c-1.179,1.594-2.507,3.554-3.58,5.164-5.53,6.368-9.371,13.506-12.908,21.164-9.9,22.477-12.589,47.365-15,71.582.055,4.237-2.756,15.987,1.4,18.019a.444.444,0,0,0,.3.771,170.658,170.658,0,0,1,31.434,2.672c5.007.885,9.987,2.1,15.087,2.3,10.587-.073,21.136-1.848,31.709-.168,12.71,0,28.157-.371,42.3-.914,13.215-.508,26.5.64,39.553-1.609a1.916,1.916,0,0,0,1.321-2.327,146.287,146.287,0,0,1-3.142-17.04,26.4,26.4,0,0,0-1.49-10.9Q154.04,92.087,145.681,58.086Z" transform="translate(9.718 -9.933)" fill="#d08b5b"/>
    <path id="_Jacket" data-name="ðŸ§¥ Jacket" d="M109.452,1.441c.335-.091-.579-1.616,0-1.425,3.613,1.2,6.22,7.723,8.908,9.244,13.988,5.373,24.388,16.158,27.321,30.057q8.385,33.947,13.67,68.563a26.4,26.4,0,0,1,1.49,10.9l.135.9a136.749,136.749,0,0,0,3.007,16.137,1.916,1.916,0,0,1-1.321,2.327c-12.9,2.223-26.036,1.126-39.1,1.592l-2.724.1c-13.507.5-27.992.829-40.024.829-10.573-1.679-21.122.1-31.709.168-5.1-.2-10.08-1.414-15.087-2.3a170.658,170.658,0,0,0-31.434-2.672.444.444,0,0,1-.3-.771c-4.157-2.031-1.346-13.781-1.4-18.019L1.1,114.9C3.461,91.373,6.282,67.3,15.882,45.5l.288-.62c3.459-7.423,7.24-14.348,12.621-20.544l.329-.493c1.008-1.506,2.19-3.236,3.251-4.671C37.964,11.614,45.1,7.884,53.523,4.928c1.832-.643,4.827-.12,6.644-.858,1.905-.773,3.55-2.845,5.372-3.89v7.8L91.906,33.962,106.86,11.023l1.521-9.4A5.371,5.371,0,0,0,109.452,1.441Z" transform="translate(9.718 8.919)" fill="#8fa7df"/>
    <path id="_Ink" data-name="ðŸ– Ink" d="M147.074,155.476a3.518,3.518,0,0,1-2.457-.954c-.931-.9-1.142-2.388-1.327-3.7-.045-.317-.087-.617-.138-.9l-.257-1.394c-1.1-6.015-1.936-11.037-2.617-15.8-.817-5.721-1.393-10.927-1.759-15.915-.223-3.052-.38-5.748-.48-8.243-.066-1.635-.07-3.3-.075-4.9,0-.935-.005-1.9-.02-2.855l-.013-.706c-.062-2.811-.007-5.636.061-8.27.009-.367.026-.733.04-1.01a.909.909,0,0,1-.2-.38l-.038-.173a1.384,1.384,0,0,1,.355-1.287c.037-.466.077-.94.116-1.4v0c.118-1.387.239-2.822.279-4.232a.111.111,0,0,1,.115-.114.121.121,0,0,1,.124.114c.125,1.6.378,3.229.623,4.8a9.921,9.921,0,0,0,2.083-2.414,16.4,16.4,0,0,0,1.405-2.781A.112.112,0,0,1,143,82.87a.1.1,0,0,1,.1.133A23.057,23.057,0,0,1,141.917,87,18.789,18.789,0,0,1,141,88.863c-.3.55-.6,1.119-.853,1.7a.886.886,0,0,1-.321.385l.043.333.04.333c.118,1.02.244,2.053.366,3.052.147,1.206.3,2.453.437,3.681l.123,1.124c.309,2.915.735,5.87,1.148,8.728v0c.251,1.737.51,3.534.74,5.3.528,4.061,1.161,8.868,1.851,13.734.642,4.521,1.337,9.336,2.149,14.12.334,1.969.688,3.97,1.053,5.945l.283,1.515a3.354,3.354,0,0,1,1.8,1.1,3.5,3.5,0,0,1,.79,1.831,3.22,3.22,0,0,1-.328,1.856,3.168,3.168,0,0,1-.6.811,3.665,3.665,0,0,1-.915.648A3.843,3.843,0,0,1,147.074,155.476Zm-27.422-.758h-.009l-13.836-.053c-5.7-.023-11.494-.056-17.1-.089H88.7l-7-.04c-1.836-.009-3.825-.043-6.08-.1-1.913-.053-3.787-.29-5.6-.518a3.17,3.17,0,0,1-2.954-3.889c.043-.29.09-.584.135-.868v-.008c.026-.161.054-.344.082-.522a1.364,1.364,0,0,1-.428.069,1.187,1.187,0,0,1-.837-.327l-.319-.312a5.216,5.216,0,0,1-1.118-1.451c-.2-.419-.38-.86-.552-1.287-.074-.184-.15-.373-.228-.56-.55-1.314-1.091-2.65-1.61-3.971-1.118-2.844-2.121-5.41-3.063-8.015-1.91-5.279-3.628-10.723-5.108-16.181-1.308-4.825-2.457-9.785-3.416-14.743-.95-4.909-1.737-9.939-2.339-14.951l-.288-2.388-.084-.705a72.565,72.565,0,0,1-.659-11.7,21.739,21.739,0,0,1,1.395-7.137,27.24,27.24,0,0,1,2.8-4.9c.184-.276.374-.561.559-.843l.141-.216.141-.221a15.088,15.088,0,0,0,1.372-2.63,8.429,8.429,0,0,0,.6-2.9,12.629,12.629,0,0,0-.352-3.092,28.581,28.581,0,0,0-.895-2.992l-.17-.483-.114-.32c-.123-.343-.249-.69-.371-1.027l-.007-.019a49.608,49.608,0,0,1-1.776-5.572,19.149,19.149,0,0,1-.457-2.863,14.562,14.562,0,0,1,.058-2.959A19.856,19.856,0,0,1,51.306,29.3a22.224,22.224,0,0,1,2.13-4.162,30.557,30.557,0,0,1,6.391-6.95,42.693,42.693,0,0,0-12.59,4.772A47.115,47.115,0,0,0,40.786,27.4,54.35,54.35,0,0,0,35.1,32.78a65.982,65.982,0,0,0-4.651,5.7c-1.386,1.9-2.744,3.964-4.034,6.131A113.79,113.79,0,0,0,19.8,57.736a151.912,151.912,0,0,0-5.356,14.411c-1.484,4.689-2.833,9.684-4.009,14.846-1.1,4.829-2.075,9.934-2.9,15.174-.762,4.851-1.424,10.007-1.967,15.324-.486,4.755-.9,9.768-1.272,15.327-.064.968-.123,1.952-.18,2.9v.006c-.1,1.624-.2,3.3-.326,4.953-.035.448-.067.9-.1,1.344a37.391,37.391,0,0,1-.834,6.469,1.161,1.161,0,0,1-.506.7,1.527,1.527,0,0,1-.827.24,1.315,1.315,0,0,1-.762-.229,1.057,1.057,0,0,1-.427-.707,43.143,43.143,0,0,1-.211-8.887l.012-.268c.125-2.812.3-5.78.505-8.822.426-6.182.995-12.235,1.69-17.99.658-5.455,1.445-10.738,2.337-15.7.967-5.372,2.1-10.59,3.36-15.509,1.349-5.252,2.9-10.354,4.6-15.166.891-2.513,1.845-5,2.837-7.407,1.018-2.466,2.1-4.91,3.23-7.264s2.3-4.617,3.48-6.691c1.293-2.277,2.648-4.433,4.027-6.408a64.908,64.908,0,0,1,4.662-5.937,53.27,53.27,0,0,1,5.386-5.28A44.888,44.888,0,0,1,48.511,19.8a32.631,32.631,0,0,1,6.031-1.781,33.142,33.142,0,0,1,6.218-.58h.017a48.255,48.255,0,0,1,6.68-4.257.14.14,0,0,1,.067-.017.145.145,0,0,1,.131.091.128.128,0,0,1-.031.145l-.071.07h0c-.034.033-.069.068-.1.1a1.162,1.162,0,0,1,.762.389,14.886,14.886,0,0,1,2.174,3.113c.456.57.909,1.158,1.348,1.726h0c.484.628.985,1.277,1.489,1.9,1.394,1.726,2.931,3.57,4.7,5.637,2.917,3.412,5.634,6.4,8.308,9.135l.48.489c.358.362.707.732,1.078,1.124a23.586,23.586,0,0,0,3.688,3.392l.094.063a1.839,1.839,0,0,0,.97.378,1.259,1.259,0,0,0,.936-.529,16.835,16.835,0,0,0,1.272-1.737v0c.091-.136.185-.276.278-.413l.114-.167A125.361,125.361,0,0,0,102.114,26.7c.952-1.757,1.877-3.577,2.751-5.41l.26-.548c.12-.255.243-.511.363-.758.355-.736.722-1.5,1.014-2.271.086-.229.173-.466.266-.727a7.725,7.725,0,0,1-2.736-4.242,6.411,6.411,0,0,1-.155-2.309,6.714,6.714,0,0,1,.656-2.21.311.311,0,0,1,.288-.167.343.343,0,0,1,.345.249,9.231,9.231,0,0,0,1.5,3.327,6.378,6.378,0,0,0,1.177,1.317,6.121,6.121,0,0,0,.777.517c.16.095.324.192.482.3a1.78,1.78,0,0,1,.275-.021,1.941,1.941,0,0,1,1.4.6L110.7,13.7a.151.151,0,0,1,.038-.12.209.209,0,0,1,.154-.063.171.171,0,0,1,.178.133c1.979,9.984,3.612,19.159,4.993,28.049l.64,4.148.6,3.894c.952,6.182,1.944,12.781,2.694,19.511,1.035,9.307,1.813,17.886,2.381,26.226.537,7.914.927,16.329,1.228,26.482.043,1.452.088,2.929.132,4.356v.036q.035,1.144.07,2.288l.451-2.663c.408-2.415.877-5.224,1.271-8.006.731-5.153,1.319-9.866,1.8-14.409.537-5.094.922-9.827,1.177-14.47a117.214,117.214,0,0,0,.063-13.317c-.135-2.3-.361-4.524-.67-6.622a61.468,61.468,0,0,0-1.317-6.525,53.109,53.109,0,0,0-2.1-6.376c-.452-1.126-1.006-2.225-1.541-3.287-.425-.844-.864-1.716-1.25-2.6a12.074,12.074,0,0,1-.974-3.431,10.848,10.848,0,0,1,.178-3.564c.159-.757.363-1.509.56-2.237a21.412,21.412,0,0,0,.84-4.215,17.155,17.155,0,0,0-.086-3.085,20.354,20.354,0,0,0-.593-3.012,25.507,25.507,0,0,0-1-2.914c-.372-.906-.812-1.846-1.31-2.793-.483-.919-1.017-1.874-1.587-2.839a90.4,90.4,0,0,0-5.525-8.171.118.118,0,0,1-.015-.129.175.175,0,0,1,.15-.091.134.134,0,0,1,.1.04c.475.47.972.947,1.452,1.408a51.2,51.2,0,0,1,3.9,4.026c.865,1.039,1.607,1.981,2.267,2.879a26.579,26.579,0,0,1,5.72,1.64,29.038,29.038,0,0,1,5.2,2.8,32.288,32.288,0,0,1,4.591,3.779,35.137,35.137,0,0,1,3.88,4.563,45.684,45.684,0,0,1,3.5,5.808,59.031,59.031,0,0,1,2.7,6.219,101.21,101.21,0,0,1,3.727,13.056c1.624,7.2,3.084,14.566,4.5,21.69v0c.5,2.518,1.015,5.121,1.533,7.693.616,3.053,1.241,6.158,1.846,9.161l.023.116c1.394,6.924,2.836,14.083,4.268,21.137l.092.453.026.126c.967,4.759,1.967,9.68,2.948,14.52.512,2.52,1.06,5.087,1.629,7.632.1.426.195.858.291,1.277l0,.012c.2.857.4,1.744.581,2.619a3.492,3.492,0,0,1-.976,3.5,1.025,1.025,0,0,1-.779.326,1.493,1.493,0,0,1-.626-.145l-.143-.067-.138-.067a2.78,2.78,0,0,1-1.359-1.183,5.075,5.075,0,0,1-.516-1.791h0c-.021-.129-.042-.262-.065-.393-.144-.816-.29-1.645-.43-2.447l-.012-.07q-.145-.825-.29-1.651c-.38-2.158-.787-4.268-1.17-6.227l-2.033-10.361c-.446-2.272-1.034-5.267-1.631-8.286-1.8-9.11-3.626-18.349-5.393-27.285l-.461-2.334c-.589-2.977-1.165-6.01-1.723-8.942-1.219-6.411-2.479-13.04-3.943-19.505l-.121-.531-.123-.53c-.513-2.183-1.034-4.157-1.6-6.032-.628-2.1-1.286-4.019-2.012-5.866a57.512,57.512,0,0,0-2.561-5.634,48.336,48.336,0,0,0-3.243-5.335,40.951,40.951,0,0,0-3.055-3.837,37.488,37.488,0,0,0-3.548-3.459,29.842,29.842,0,0,0-8.378-5.119c.434.625.849,1.261,1.234,1.89a28.767,28.767,0,0,1,3.007,6.522,18.634,18.634,0,0,1,.84,7.1,24.831,24.831,0,0,1-.489,2.887,17.292,17.292,0,0,0-.526,4.129,10.67,10.67,0,0,0,1.63,4.54h0c.218.4.444.824.645,1.233A55.464,55.464,0,0,1,131.6,64.635c.46,2.188.827,4.491,1.092,6.845.247,2.2.412,4.523.492,6.907a132.165,132.165,0,0,1-.34,13.855c-.335,4.7-.825,9.607-1.5,15-.562,4.511-1.235,9.254-2.119,14.925-.409,2.622-.895,5.276-1.365,7.842v0c-.441,2.408-.9,4.9-1.288,7.353-.274,1.716-.621,3.456-.956,5.139-.153.77-.312,1.566-.462,2.349l-.226,1.189c-.113.59-.251,1.285-.41,1.969l-.094.39v.07a2.148,2.148,0,0,1-.347,1.194,14.527,14.527,0,0,1-1.126,2.7,1.519,1.519,0,0,1-.987.784,2.682,2.682,0,0,1-.909,1.118A2.424,2.424,0,0,1,119.652,154.719ZM66.129,14.841c-.658.62-1.335,1.243-1.99,1.844l-.007.006c-.452.416-.92.845-1.377,1.271l-.411.384-.409.386A41.165,41.165,0,0,0,56.5,24.787a23.736,23.736,0,0,0-1.921,3.235A19.524,19.524,0,0,0,53.26,31.51a14.9,14.9,0,0,0-.171,7.4A40.814,40.814,0,0,0,54.884,44.2a31.465,31.465,0,0,1,2.105,6.89,12.111,12.111,0,0,1-.645,6.29,25.3,25.3,0,0,1-2.512,4.448l0,0c-.262.4-.532.809-.792,1.218a16.857,16.857,0,0,0-2.379,6.319,30.243,30.243,0,0,0-.272,6.8c.127,2.333.323,4.723.6,7.306.243,2.276.543,4.655.918,7.273.7,4.866,1.579,9.775,2.627,14.59s2.281,9.64,3.671,14.363c1.33,4.521,2.917,9.03,4.451,13.39l.237.673c.844,2.4,1.822,4.708,2.752,6.847.476,1.091.995,2.252,1.587,3.549-.133-1.114-.178-2.262-.221-3.372v0c-.021-.545-.043-1.108-.075-1.654-.1-1.712-.223-3.449-.341-5.128-.043-.615-.092-1.312-.138-1.98-.323-4.69-.623-9.546-.891-14.433-.525-9.618-.9-18.042-1.157-25.753-.3-9.245-.441-17.676-.417-25.774.027-8.928.219-17.6.571-25.779.145-3.378.407-6.808.661-10.126v0c.047-.619.1-1.32.152-1.994l.064-.865c.242-3.263.566-7.1,1.14-10.851a8.029,8.029,0,0,1-.41-1.124l-.038-.144.027,0A1.207,1.207,0,0,1,66.129,14.841ZM30.84,153.159a2.791,2.791,0,0,1-.373-.026,2.3,2.3,0,0,1-1.577-.879,2.52,2.52,0,0,1-.446-1.012,3.412,3.412,0,0,1-.028-1.188c.679-4.686,1.557-10.878,2.328-17.212l.8-6.549c.9-7.408,1.97-16.023,3.2-24.534.494-3.426,1-6.794,1.517-10.229l-.179-.233c-.553-.719-1.13-1.438-1.688-2.133h0l-.009-.012-.543-.677c-1.593-2-2.913-3.676-4.183-5.5a.1.1,0,0,1,0-.11.129.129,0,0,1,.108-.072.093.093,0,0,1,.058.02c1.842,1.361,3.589,2.818,5.364,4.316l1.542,1.306c.9-5.941,1.764-11.765,2.55-17.688a.131.131,0,0,1,.13-.115.107.107,0,0,1,.078.031.113.113,0,0,1,.029.084c-.057,1.8-.107,3.627-.156,5.4-.11,3.978-.224,8.091-.414,12.132l-.095,1.993a2.148,2.148,0,0,1,.476.788,1.753,1.753,0,0,1,0,1,.958.958,0,0,1-.6.649l-.09,1.853c-.391,8-.875,16.554-1.759,24.972-1.081,10.295-2.349,20.744-3.576,30.849l-.041.336a3.093,3.093,0,0,1-.756,1.731A2.218,2.218,0,0,1,30.84,153.159ZM72.013,12.982a1.111,1.111,0,0,1-.649-.185l-.178-.135-.086-.07a1.273,1.273,0,0,1-.336-1.272,6.42,6.42,0,0,1,1.144-1.745,11.724,11.724,0,0,0,.725-.945,17.576,17.576,0,0,0,1.407-2.557,27.046,27.046,0,0,0,1.471-4.939c.08-.348.162-.707.247-1.062A.09.09,0,0,1,75.85,0a.1.1,0,0,1,.1.071,12.4,12.4,0,0,1-.135,6.565,19.15,19.15,0,0,1-1.206,3.348l-.175.377a10.634,10.634,0,0,1-.721,1.348A3.847,3.847,0,0,1,72.684,12.8,1.214,1.214,0,0,1,72.013,12.982Z" transform="translate(8.028 -4.565)"/>
  </g>
  <g id="HEAD" transform="translate(78.592 38.043)">
    <path id="_Skin-2" data-name="âœ‹ Skin" d="M87.671,27.638C80.254,8.076,66.884-6.246,44.344,2.75a2.011,2.011,0,0,0-2.3-.043A58.614,58.614,0,0,0,17.094,36.8a19.075,19.075,0,0,0-6.622,2.491C6.074,42.054,3.115,46.45.341,50.732a2.544,2.544,0,0,0,1.506,3.711,13.138,13.138,0,0,0,2.027.223,8.662,8.662,0,0,1-.652,1.7,2.378,2.378,0,0,0,2.637,3.411,3.4,3.4,0,0,0,.61.252c.024,1.08.578,2.527,1.674,2.745,1.773.381,4.128-.979,3.71-2.966a5.309,5.309,0,0,0,1.589.041c.058,1.035.04,2.115.183,3.07a7.171,7.171,0,0,0,9.226,6.153c.262,1.4.57,3.372,1.948,4.132,1.61,4.529,4.391,9.7,8.945,11.76a2.347,2.347,0,0,0,1.036,3,41.1,41.1,0,0,0,27.766,4.605,27.023,27.023,0,0,0,10.959-2.9,51.307,51.307,0,0,0,7.235-4.744,36.516,36.516,0,0,0,6.613-5.68,18.408,18.408,0,0,0,3.534-8.394,72.95,72.95,0,0,0-3.216-40.834C81.447,13.612,93.892,44.047,87.671,27.638Z" transform="translate(-3.584 12.959)" fill="#d08b5b"/>
    <path id="_Hair" data-name="ðŸ’ˆ Hair" d="M10.114,2.431C17.037-1.663,25.866-.6,30.026,5.738A11.852,11.852,0,0,1,31.59,9.432l.057.232.056.244a28.264,28.264,0,0,1,.461,2.854l.179,1.463.051.4a20.8,20.8,0,0,0,.562,3.014L33,17.8l.274.944-1.033.383c-1.979.716-2.393.78-3.535.182a4.461,4.461,0,0,1-1.976-2.371l-.09-.187-.2-.416-.107-.219a5.894,5.894,0,0,0-1.183-1.982,7.811,7.811,0,0,0-3.934-.427l-.071.009-.059.012-.1.023A10.625,10.625,0,0,0,15.247,18.1a10.509,10.509,0,0,0-1.82,5.617l0,.137L13.4,24.908l-2.216-.047.022-.409-.033.073c-.7,1.475-2.452,2.458-3.92,1.481L7.2,25.97l-.053-.038a2.67,2.67,0,0,1-.371-3.889l.047-.051.046-.047-.009,0-.011,0H6.838a2.12,2.12,0,0,0-1.062.621l-.106.1-.213.231-.22.235-.095.1c-.06.061-.116.115-.168.162a1.96,1.96,0,0,1-.206.167,1.223,1.223,0,0,1-.215.121,1.079,1.079,0,0,1-1.415-.532,1.244,1.244,0,0,1-.1-.3A2.21,2.21,0,0,1,3,22.495c0-.082,0-.172,0-.27l0-.153.005-.167.006-.133.025-.493a12.357,12.357,0,0,1,1.24-4.708l.074-.15.027-.054-.076.1a4.514,4.514,0,0,1-1.571,1.408l-.082.04-.08.037A1.707,1.707,0,0,1,.4,17.5a2.415,2.415,0,0,1-.38-1.732,10.337,10.337,0,0,1,1.605-4.087l.136-.234.533-.906A22.68,22.68,0,0,1,10.114,2.431Z" transform="translate(-3.247 49.018)" fill="#e8e1e1"/>
    <path id="_Ink-2" data-name="ðŸ– Ink" d="M60.643,94.908h0a25.36,25.36,0,0,1-6.542-.831A22.33,22.33,0,0,1,47.953,91.4a1.536,1.536,0,0,1-.669-.827,1.637,1.637,0,0,1-.006-.966,1.877,1.877,0,0,1,.548-.878,1.383,1.383,0,0,1,.922-.37,1.463,1.463,0,0,1,.822.27,17.447,17.447,0,0,0,3.841,2.006A21.845,21.845,0,0,0,60.8,91.864,32.154,32.154,0,0,0,71.02,90.052a39.8,39.8,0,0,0,8.041-3.75,35.428,35.428,0,0,0,6.948-5.514,23.058,23.058,0,0,0,4.919-7.4,20.217,20.217,0,0,0,1.43-8.752,64.9,64.9,0,0,0-.894-6.956c-.221-1.335-.449-2.715-.623-4.078-.337-2.653-.569-5.362-.792-7.981v-.012c-.051-.6-.1-1.212-.156-1.817l-.1-1.177A92.18,92.18,0,0,0,88.44,32.6a38.154,38.154,0,0,0-3.16-9.555A38.728,38.728,0,0,0,74.524,9.919a36.965,36.965,0,0,0-7.643-4.605,34.473,34.473,0,0,0-8.534-2.575,23.794,23.794,0,0,0-3.8-.307,25.35,25.35,0,0,0-8.061,1.353,32.134,32.134,0,0,0-7.439,3.678,44.214,44.214,0,0,0-7.1,5.845,47.079,47.079,0,0,0-5.79,7.151c-.791,1.2-1.557,2.489-2.278,3.834C23.2,25.554,22.542,26.9,21.923,28.3c-.828,1.87-1.479,3.837-2.109,5.74-.232.7-.473,1.428-.718,2.138.165,0,.329-.007.488-.007a16.415,16.415,0,0,1,1.8.1A14.639,14.639,0,0,1,27,38.1a14.24,14.24,0,0,1,2.406,1.724,13.762,13.762,0,0,1,2,2.211,10.5,10.5,0,0,1,1.15,2.034,13.262,13.262,0,0,1,.7,2.148,34.026,34.026,0,0,1,.665,4.5,33.751,33.751,0,0,0,.707,4.7.816.816,0,0,1-.361.889,5.168,5.168,0,0,1-2.8.83,4.674,4.674,0,0,1-2.84-.932,4.418,4.418,0,0,1-1.517-2.134,4.268,4.268,0,0,1-.216-1.3,3.945,3.945,0,0,1,.208-1.308.208.208,0,0,1,.2-.147.2.2,0,0,1,.207.2,4.124,4.124,0,0,0,3.8,4.176,3.492,3.492,0,0,0,1.632-.419,28.2,28.2,0,0,1-.783-4.473,33.187,33.187,0,0,0-.6-3.779A11.016,11.016,0,0,0,30.106,43.5a11.4,11.4,0,0,0-2.052-2.357,11.259,11.259,0,0,0-2.483-1.633,12.368,12.368,0,0,0-2.785-.949,14.113,14.113,0,0,0-2.958-.307,15.94,15.94,0,0,0-4.249.587,16.379,16.379,0,0,0-3.968,1.682,19.339,19.339,0,0,0-4.205,3.4A24.633,24.633,0,0,0,4.163,48.26l-.531.9a19.811,19.811,0,0,0-1.011,1.9,6.752,6.752,0,0,0-.591,2,1.352,1.352,0,0,0,.212,1.026.541.541,0,0,0,.421.182,1.117,1.117,0,0,0,.442-.108A4.444,4.444,0,0,0,4.787,52.5a1.006,1.006,0,0,1,.848-.473,1.1,1.1,0,0,1,.925.514.941.941,0,0,1,.005.951l-.02.037a12.057,12.057,0,0,0-1.035,2.41,11,11,0,0,0-.46,2.58L5.025,59c-.026.57-.01.866.047.88h0a3.549,3.549,0,0,0,.654-.629c.075-.082.135-.147.161-.173a3.353,3.353,0,0,1,1.717-1.007,1.029,1.029,0,0,1,.185-.017,1.224,1.224,0,0,1,1.1.752.872.872,0,0,1,.048.5.918.918,0,0,1-.286.485l-.033.03a1.6,1.6,0,0,0,.106,2.436,1.226,1.226,0,0,0,.739.253,1.772,1.772,0,0,0,1.239-.611,2.426,2.426,0,0,0,.657-1.258l.005-.041a1.03,1.03,0,0,1,.345-.678.963.963,0,0,1,.625-.229.9.9,0,0,1,.907.907,3.3,3.3,0,0,1-.222,1.443,3.841,3.841,0,0,1-.774,1.224,4.2,4.2,0,0,1-1.295.944,3.692,3.692,0,0,1-1.542.353,3.155,3.155,0,0,1-1.556-.4A3.361,3.361,0,0,1,6.7,63.077a3.924,3.924,0,0,1-.589-1.468,2.587,2.587,0,0,1-.98.3c-.064.006-.128.009-.19.009a1.821,1.821,0,0,1-1.285-.509,2.254,2.254,0,0,1-.642-1.265,9.4,9.4,0,0,1,.241-3.874,2.643,2.643,0,0,1-.62.076,2.552,2.552,0,0,1-1.289-.36A2.689,2.689,0,0,1,0,53.519a7.463,7.463,0,0,1,.685-2.9,28.447,28.447,0,0,1,2.982-5.25A25.752,25.752,0,0,1,7.75,40.88a20.568,20.568,0,0,1,5.013-3.223,16.776,16.776,0,0,1,5.771-1.449,20.474,20.474,0,0,1,.5-3.786,42.227,42.227,0,0,1,3.2-9.181,45.253,45.253,0,0,1,5.2-8.337A41.933,41.933,0,0,1,42.539,2.74,31.363,31.363,0,0,1,47.372.946,25.978,25.978,0,0,1,52.446.061C53.016.02,53.6,0,54.189,0a31.636,31.636,0,0,1,9.532,1.581,38.544,38.544,0,0,1,8.235,3.74,40.3,40.3,0,0,1,7.174,5.521,38.429,38.429,0,0,1,5.833,7.2,40.227,40.227,0,0,1,3.982,8.373,45.035,45.035,0,0,1,1.309,4.664c.335,1.481.622,3.038.875,4.76.471,3.2.753,6.476,1.026,9.648h0c.086,1,.176,2.043.269,3.061.344,3.729.909,7.408,1.507,11.162l.094.587a42.3,42.3,0,0,1,.569,5.45,21.967,21.967,0,0,1-.464,5.446,23.108,23.108,0,0,1-3.745,8.277A29.966,29.966,0,0,1,87.468,83a34.644,34.644,0,0,1-3.376,3.069,43.058,43.058,0,0,1-10.956,6.322,38.016,38.016,0,0,1-6.176,1.852A31.336,31.336,0,0,1,60.643,94.908ZM37.176,89.531a5.579,5.579,0,0,1-2.853-.933,20.765,20.765,0,0,1-2.471-1.84l-.034-.028a20.985,20.985,0,0,1-4.086-4.643,27.546,27.546,0,0,1-2.72-5.317,27.918,27.918,0,0,1-1.535-5.8,7.191,7.191,0,0,1-2.052.288h-.015a6.611,6.611,0,0,1-2.248-.4,7.31,7.31,0,0,1-2-1.107,9.41,9.41,0,0,1-2.615-3.189,10.843,10.843,0,0,1-.758-1.924,12.024,12.024,0,0,1,1.559-9.973,10.957,10.957,0,0,1,1.272-1.5,11.142,11.142,0,0,1,1.517-1.25,10.652,10.652,0,0,1,3.573-1.593l.111-.025a9.306,9.306,0,0,1,1.841-.2,4.829,4.829,0,0,1,1.234.139,1.713,1.713,0,0,1,.9.515,1.263,1.263,0,0,1,.22,1.085.085.085,0,0,1-.089.071.105.105,0,0,1-.1-.071c-.128-.437-.512-.659-1.14-.659a8.249,8.249,0,0,0-2.706.713,11.316,11.316,0,0,0-3.015,1.867A10.42,10.42,0,0,0,17.65,55.14a10.119,10.119,0,0,0-1.035,1.587,9.3,9.3,0,0,0-1.056,3.629,10.257,10.257,0,0,0,.426,3.824,8.727,8.727,0,0,0,.774,1.766,7.548,7.548,0,0,0,1.169,1.531,5.592,5.592,0,0,0,1.516,1.1,4.482,4.482,0,0,0,1.808.458h.075a5.155,5.155,0,0,0,1.336-.25h.005a5.129,5.129,0,0,1,1.321-.249,1.665,1.665,0,0,1,.756.166.7.7,0,0,1,.357.624,1.565,1.565,0,0,1-.53,1.06c.506.924.994,1.879,1.465,2.8a43.839,43.839,0,0,0,4.052,6.865,23.391,23.391,0,0,0,3.9,4.034,15.719,15.719,0,0,0,2.233,1.476c.153.084.3.164.449.241h0a5.164,5.164,0,0,1,1.908,1.432,1.4,1.4,0,0,1,.089,1.37,1.367,1.367,0,0,1-1.006.892A3.626,3.626,0,0,1,37.176,89.531ZM26.6,62.824a1.394,1.394,0,0,1-.375-.053,8.423,8.423,0,0,1-2.19-1.124,9.793,9.793,0,0,0-1.961-1.058,4.965,4.965,0,0,0-1.661-.292,4.074,4.074,0,0,0-2.323.695.158.158,0,0,1-.091.029.2.2,0,0,1-.17-.109.169.169,0,0,1,0-.177A4.481,4.481,0,0,1,19.523,59.2a5.855,5.855,0,0,1,2.214-.612c.187-.016.379-.025.569-.025a7.253,7.253,0,0,1,2.481.452l.4.146a6.147,6.147,0,0,1,2.367,1.316,1.34,1.34,0,0,1,.365.735,1.423,1.423,0,0,1-.1.762,1.439,1.439,0,0,1-.474.6A1.258,1.258,0,0,1,26.6,62.824Z" transform="translate(-4.216 11.836)"/>
  </g>
  <g id="FACE" transform="translate(112.183 77.354)">
    <path id="teeth" d="M3.1.709c2.307-1.39,10.932-.371,17.707,0,5.38.295,9.223-.289,10.453.539C34.04,3.119,32.691,12.165,27.9,13.4s-22.537,2.965-25.6,0S-1.038,3.2,3.1.709Z" transform="translate(13.63 41.096)" fill="#fff"/>
    <path id="_Ink-3" data-name="ðŸ– Ink" d="M20.051,43.538c-.412,0-.86,0-1.37-.009l-.584-.008c-.309,0-.644-.007-1.054-.007l-.954,0h-.022l-1,0A27.776,27.776,0,0,1,7.1,42.682a11.035,11.035,0,0,1-1.762-.708A8.528,8.528,0,0,1,3.78,40.953a7.647,7.647,0,0,1-1.3-1.391,8.387,8.387,0,0,1-.993-1.818,8.942,8.942,0,0,1-.517-1.866,9.246,9.246,0,0,1,.866-5.65A7.343,7.343,0,0,1,3.153,28.4a8.417,8.417,0,0,1,1.758-1.352,11.169,11.169,0,0,1,4.247-1.378,14.341,14.341,0,0,1,1.72-.1,31.966,31.966,0,0,1,6.179.815c.908.181,1.848.368,2.773.514a49.93,49.93,0,0,0,5.633.6c.4.018.8.027,1.142.034a1,1,0,0,1,.629-.828,4.895,4.895,0,0,1,2.179-.516c.077,0,.156,0,.236,0a17.858,17.858,0,0,1,2.5.27,9.119,9.119,0,0,1,2.2.687,6.694,6.694,0,0,1,1.9,1.293,5.848,5.848,0,0,1,1.374,2.12,6.6,6.6,0,0,1,.406,2.425,8.032,8.032,0,0,1-.437,2.467A8.585,8.585,0,0,1,36.438,37.7,11.949,11.949,0,0,1,34.9,39.457a12.1,12.1,0,0,1-1.766,1.367,13.7,13.7,0,0,1-1.953,1.027,16.839,16.839,0,0,1-2.1.734,24.847,24.847,0,0,1-4.471.779C23.29,43.482,21.841,43.538,20.051,43.538Zm7.1-8.476-.052,0c-2.562.1-5.242.173-7.967.221.077.658.16,1.362.253,2.046.068.5.143,1.024.232,1.606.011.072.031.157.053.247a1.633,1.633,0,0,1,.072.555l-.013.089a.806.806,0,0,1,.352.305,1.206,1.206,0,0,1,.077.147v0l.706,0a33,33,0,0,0,5.679-.4l0-.046a.882.882,0,0,1,.3-.574A14.178,14.178,0,0,0,27,37.45c.011-.266.022-.541.04-.8.025-.365.051-.735.077-1.094v-.005Q27.13,35.3,27.147,35.062Zm-17.631,4.9h0l.05.008c.07.012.143.024.215.034a35.136,35.136,0,0,0,4.847.266c.464,0,.935,0,1.39-.007h0c.414,0,.843-.006,1.262-.007a10.335,10.335,0,0,1-.095-1.719c0-.215,0-.417-.005-.6l0-.1c-.038-.83-.065-1.675-.08-2.513-1.327.023-2.753.043-4.18.043-.548,0-1.059,0-1.562-.009l-.869-.014c.059.315.12.635.179.944h0c.126.658.257,1.338.369,2.012a1.333,1.333,0,0,1-.3,1.116,1.586,1.586,0,0,1-1.181.548ZM4.1,35.141h0a5.822,5.822,0,0,0,.389,1.479,4.813,4.813,0,0,0,1.9,2.233A7.941,7.941,0,0,0,9.16,39.9a1.037,1.037,0,0,1-.686-.893,27.005,27.005,0,0,1-.238-3.685c-1.254-.012-2.712-.036-4.137-.179Zm27.878-.264c-.231,0-.478,0-.719.012-.787.036-1.588.068-2.363.1L28.547,35l.027.4v.008c.033.475.066.965.1,1.448.016.215.028.437.039.652a13.378,13.378,0,0,0,.177,1.782,11.023,11.023,0,0,0,2.559-1.24,8.841,8.841,0,0,0,2.112-1.969,6.189,6.189,0,0,0,.785-1.359,8.667,8.667,0,0,1-1.949.158h-.422ZM8.742,28.908h0a7.57,7.57,0,0,0-2.311.936,4.928,4.928,0,0,0-1.708,1.769,5.283,5.283,0,0,0-.536,1.435,6.07,6.07,0,0,0-.134,1.547c1.394-.162,2.835-.224,4.191-.273.005-.278.011-.525.018-.756l.021-.644q0-.125.008-.254a14.255,14.255,0,0,1,.45-3.76Zm2.97-.3h0c-.421,0-.832.014-1.222.04-.291.02-.586.052-.878.095a13.943,13.943,0,0,1,.364,2.743c.03.455.059.885.107,1.3.052.442.12.919.209,1.456l.347-.016c1.65-.089,3.328-.154,4.95-.215l1.5-.058c0-.447,0-.843.009-1.212l.008-.4c.007-.3.007-.609.006-.934a16.639,16.639,0,0,1,.105-2.341l-.721-.081-.174-.02a40.944,40.944,0,0,0-4.606-.351Zm6.764.579h0c.035.289.06.584.083.87v0c.012.145.024.294.038.44.076.823.166,1.678.275,2.612l.09.761c2.367-.107,4.885-.229,7.924-.383l.373-.02.1-1.463c.067-.924.145-1.917.26-2.922l-.083-.03a1.345,1.345,0,0,1-.277-.158,40.7,40.7,0,0,1-6.321.413h-.027c-.723,0-1.5-.039-2.439-.122Zm9.7.072c.082.981.139,1.982.194,2.949.022.392.045.8.07,1.2l1.741-.093.87-.049c.314-.018.647-.057,1-.1a13.874,13.874,0,0,1,1.582-.124,4.031,4.031,0,0,1,1.111.134,2.9,2.9,0,0,0-1.12-2.684,4.329,4.329,0,0,0-1.672-.737,12.818,12.818,0,0,0-1.808-.228,11.625,11.625,0,0,1-1.969-.267Zm-3.606-5.049a3.387,3.387,0,0,1-2.533-.892,1.518,1.518,0,0,1-.428-.866,1.722,1.722,0,0,1,.129-.9,1.885,1.885,0,0,1,.581-.756,1.433,1.433,0,0,1,.869-.308,1.456,1.456,0,0,1,.825.27,2.051,2.051,0,0,0,1.151.272,8.386,8.386,0,0,0,2.243-.388l.056-.016a3.586,3.586,0,0,0,1-.481,2.376,2.376,0,0,0,.769-.821,1.345,1.345,0,0,0,.089-1.086,1.717,1.717,0,0,0-1.182-1.024,5.753,5.753,0,0,0-1.624-.258c-.1,0-.2-.005-.3-.005a17.5,17.5,0,0,0-2.338.21c-.5.068-1.024.139-1.54.178h-.017a.194.194,0,0,1-.187-.154.22.22,0,0,1,.094-.253,11.6,11.6,0,0,1,2.487-1.013,11.183,11.183,0,0,1,3.014-.463,4.736,4.736,0,0,1,2.688.684,3.129,3.129,0,0,1,1.321,2.455,4.138,4.138,0,0,1-.865,2.869,5.941,5.941,0,0,1-2.405,1.853l-.07.029a13.058,13.058,0,0,1-1.787.588A8.572,8.572,0,0,1,24.568,24.207Zm12.055-6.936a.9.9,0,0,1-.093,0l-.148-.014a1.335,1.335,0,0,1-.22-.036,1.46,1.46,0,0,1-.732-.5,1.226,1.226,0,0,1-.284-.835l.011-.175a5.611,5.611,0,0,0-.23-2.2,2.167,2.167,0,0,0-.571-.859,2.2,2.2,0,0,0-1.046-.5,1.99,1.99,0,0,0-.4-.041,1.732,1.732,0,0,0-1.441.8,3.125,3.125,0,0,0-.516,1.706.328.328,0,0,1-.322.318.294.294,0,0,1-.155-.044,2.153,2.153,0,0,1-.99-1.375,3.054,3.054,0,0,1,.133-1.727,3.511,3.511,0,0,1,1.3-1.691,3.892,3.892,0,0,1,2.038-.67c.073,0,.146-.005.218-.005A4.528,4.528,0,0,1,36.8,11.263a5.95,5.95,0,0,1,1.093,2.365,5.7,5.7,0,0,1-.03,2.622,1.429,1.429,0,0,1-.462.7A1.228,1.228,0,0,1,36.623,17.271ZM4.538,16.643a.441.441,0,0,1-.192-.047,1.467,1.467,0,0,1-.662-.632,2.165,2.165,0,0,1-.239-.894,4.216,4.216,0,0,1,.337-1.845,5.8,5.8,0,0,1,1.225-1.813,4.8,4.8,0,0,1,1.845-1.165A5,5,0,0,1,8.437,9.99a5.516,5.516,0,0,1,2.886.841,5.926,5.926,0,0,1,2.092,2.192.972.972,0,0,1,.809.975,2.712,2.712,0,0,1-.731,1.765,1.428,1.428,0,0,1-1.069.464,1.705,1.705,0,0,1-.956-.3,1.535,1.535,0,0,1-.609-.814l-.014-.049a2.677,2.677,0,0,0-.952-1.406A2.609,2.609,0,0,0,8.315,13.1,2.4,2.4,0,0,0,6.451,14,5.929,5.929,0,0,0,5.8,15.077a4.6,4.6,0,0,1-1,1.46A.4.4,0,0,1,4.538,16.643ZM.186,11.978a.134.134,0,0,1-.13-.126A10.288,10.288,0,0,1,.1,9.342a12.641,12.641,0,0,1,.621-2.53A12.951,12.951,0,0,1,1.838,4.456,10.906,10.906,0,0,1,3.365,2.467,8.776,8.776,0,0,1,5.874.767,7.63,7.63,0,0,1,9,0a3.653,3.653,0,0,1,1.953.5,3.234,3.234,0,0,1,1.321,1.71,1.434,1.434,0,0,1-.144,1.166,1.455,1.455,0,0,1-.937.738,3.6,3.6,0,0,1-.709.067,8.291,8.291,0,0,1-1.31-.139h0A8.322,8.322,0,0,0,7.847,3.9c-.107,0-.213,0-.315.012A5.474,5.474,0,0,0,4.63,4.97,7.147,7.147,0,0,0,2.948,6.9,21.485,21.485,0,0,0,1.777,9.172,17.557,17.557,0,0,1,.3,11.917.133.133,0,0,1,.186,11.978Zm38.9-2.5a1.947,1.947,0,0,1-.543-.076c-1.336-.387-1.686-1.325-2.092-2.411-.078-.209-.159-.424-.248-.641a5.485,5.485,0,0,0-1.747-2.233,8.121,8.121,0,0,0-4.748-1.435,7.528,7.528,0,0,0-2.133.289.123.123,0,0,1-.035.005.168.168,0,0,1-.144-.094.119.119,0,0,1,.011-.129c.1-.131.192-.256.279-.377A4.449,4.449,0,0,1,28.6,1.364,6.444,6.444,0,0,1,32.55.031a7.375,7.375,0,0,1,2.2.338,8.211,8.211,0,0,1,1.983.928,8.443,8.443,0,0,1,1.677,1.412A9.293,9.293,0,0,1,39.6,4.315a5.087,5.087,0,0,1,.276.638,6.465,6.465,0,0,0,.287.672,2.182,2.182,0,0,1,1.089,1.547,1.747,1.747,0,0,1-.063.783,1.9,1.9,0,0,1-.449.74L40.7,8.74l-.13.129A2.119,2.119,0,0,1,39.089,9.479Z" transform="translate(10.563 13.738)"/>
  </g>
  <g id="ACCESORIES" transform="translate(88.521 88.978)">
    <path id="_Ink-4" data-name="ðŸ– Ink" d="M64.52.082a1.61,1.61,0,0,1,1.961,1.959c-.277,1.3-1.637,2.351-2.539,3.27-.946.968-1.912,1.917-2.913,2.83a72.089,72.089,0,0,1-5.983,4.922l-.639.468c-1.915,1.4-3.825,2.771-5.877,3.985q-1.667.983-3.37,1.9c-.405.218-.9.554-1.409.8a9.514,9.514,0,0,1,3.6,5.675c.769,5.077-2.5,9.781-7.116,11.652a15.06,15.06,0,0,1-7.32.921c-2.5-.286-5.037-1.025-6.661-3.075a10.98,10.98,0,0,1-2.066-6.423,11.407,11.407,0,0,1,.19-3.1c-1,.008-1.99,0-2.977.015-2.438.023-4.88.034-7.32-.034-2.516-.072-5.02-.184-7.527-.408-1.1-.1-2.2-.262-3.29-.419a12.362,12.362,0,0,1-3.228-.643c-.068-.027-.04-.125.019-.144a13.768,13.768,0,0,1,3.363-.349L4.5,23.819c.9-.053,1.79-.1,2.688-.132,2.074-.068,4.147-.085,6.22-.121l.889-.017c2.44-.049,4.88-.076,7.32-.154,1.012-.032,2.026-.091,3.042-.146a4.556,4.556,0,0,1,.458-.752A10.744,10.744,0,0,1,26.9,20.583a13.617,13.617,0,0,1,4.551-2.633,19.085,19.085,0,0,1,5.9-.828c1.772.037,4.3.287,5.109,1.736a3.783,3.783,0,0,0,2.087-.491q1.607-1.227,3.156-2.521c1.919-1.6,3.892-3.183,5.709-4.9,1.874-1.771,3.733-3.572,5.516-5.432.9-.932,1.789-1.866,2.658-2.822C62.473,1.72,63.236.519,64.52.082Z" transform="translate(6.338 -12.681)"/>
  </g>
</svg>
