<svg id="peep-60" xmlns="http://www.w3.org/2000/svg" width="240" height="324" viewBox="0 0 240 324">
  <g id="BODY" transform="translate(31.056 135.053)">
    <path id="_Skin" data-name="âœ‹ Skin" d="M165.688,20.737c-2.18-6.006-.542-13.61-5.035-18.58-1.329-.808-2.034-.358-2.581,1.05-.33,1.854-1.1,8.237,1.679,8.234a39.5,39.5,0,0,1-.726,11.915c-2.053-.33-3.55.726-5.048,1.511a4.543,4.543,0,0,1-3.583.619c-5.569-.982-7.156,4.868-7.223,9.643-.082,2.33-.3,7.761-1.327,10.022-4.643-9.62-14.395-14-23.687-16.162a7.911,7.911,0,0,1-3.634-1.9c-7.829-3.092-4.068-13.224-7.669-19.046C101.217,1.127,94.446-.865,85.917.322c-7.463.826-12.535,8.409-12.075,15.567.138,1.461-.738,3-1.254,4.5-5.151,6.166-13.166,8.925-20.06,12.651C29.534,44.282,21.565,52.874,12.63,76.8c-4.18,9-9.183,17.736-10.844,27.649C-.167,116.127-.173,128.085.507,139.881c-1.269.152.112,9.221,1.225,12.362a2.577,2.577,0,0,0,2.434,1.835c2.29,1.114,7.667,5.6,10.062,5.452,7.739-.477,15.262.26,22.719-.121C45.013,159,53,157.491,61.1,157.687c14.128.341,4.013,1.18,18.63,1.843,9.227.426,42.89-4.616,52.091-3.793,7.484,1.575,10.9-1.08,9.757-8.9-.422-3-1.77-9.666,2.664-9.949,2.1.243,3.834,2.34,5.405,3.565,13.88,10.338,28.06,2.894,29.177-14.1,2.1-14.254,5.053-17.621-1.359-31.855-20.286-52.989,10.277-45.789-10.358-70.609C165.5,25.291,165.909,21.545,165.688,20.737Z" transform="translate(8.235 -14.16)" fill="#d08b5b"/>
    <path id="_Top" data-name="ðŸ‘• Top" d="M66.84,0Q86.671,10.119,98.206,10.119t40.632,4.712l9.579,21.059,21.136,4.131.094.55a119.018,119.018,0,0,0,6.373,21.88c6.412,14.234,3.462,17.6,1.359,31.855-1.117,16.995-15.3,24.438-29.177,14.1-1.572-1.225-3.308-3.322-5.405-3.565-4.345.278-3.138,6.687-2.69,9.765l.026.184c1.142,7.821-2.273,10.477-9.757,8.9-9.2-.823-42.864,4.218-52.091,3.793-14.617-.664-4.5-1.5-18.63-1.843-8.1-.2-16.09,1.31-24.157,1.723-7.064.361-14.188-.282-21.5.055L2.717,122.033Q-3.542,77.2,4.618,63.24q8.12-13.89,21.745-45.666.209-.223.421-.443Z" transform="translate(9.684 17.885)" fill="#78e185"/>
    <path id="_Ink" data-name="ðŸ– Ink" d="M131.795,160.538c-5.481,0-11.422-.14-18.7-.441l-.787-.033c-2.96-.125-6.068-.267-9.073-.4l-.051,0c-6.909-.315-14.054-.641-20.757-.836l.02-.162c.119-.892.681-4.743.743-5.036l0-.01a26.572,26.572,0,0,0,.47-2.831,10.515,10.515,0,0,0,.055-2.858,3.126,3.126,0,0,0-.5-1.115,2.453,2.453,0,0,0-.778-.689,4.21,4.21,0,0,0-2.1-.447,17.432,17.432,0,0,0-2.408.23l-.448.063-.479.063c-.362.05-1.253.18-1.256.191-.224-.233.256-.867.436-1.106l0,0,.036-.048.114-.157a4.5,4.5,0,0,0,1.1-2.848A2.2,2.2,0,0,0,76,140.072a7,7,0,0,0-2.78-.46c-.509,0-1.053.029-1.664.09a.147.147,0,0,0-.127.139.106.106,0,0,0,.093.114l.373.078a15.4,15.4,0,0,1,2.375.678c.975.386,1.456.8,1.43,1.23a1.865,1.865,0,0,1-.779,1.132c-.079.071-.154.138-.222.2a7.075,7.075,0,0,0-1.105,1.3,3.348,3.348,0,0,0-.5,1.556,2.772,2.772,0,0,0,.36,1.585,2.178,2.178,0,0,0,1.041.93,3.365,3.365,0,0,0,1.347.239c.185,0,.38-.009.6-.028l.066-.006.769-.074,1.538-.151c.1-.009.248-.037.422-.069a6.967,6.967,0,0,1,1.13-.145.817.817,0,0,1,.409.077c.179.111.236.362.175.767a6.66,6.66,0,0,1-.279,1.029c-.049.147-.091.274-.113.365l-.006.033c-.08.54-.134,5.228-.157,7.229v.015c-.005.445-.008.74-.01.824-3.172-.074-6.4-.419-9.517-.752a101.97,101.97,0,0,0-10.756-.767c-.811,0-1.607.02-2.367.06-4.565.239-9.2.616-13.676.98h-.007c-1.395.114-2.837.231-4.274.344l-.151-1.285c-.18-1.516-.367-3.054-.565-4.682-.795-6.534-1.7-13.941-2.244-21.145a125.931,125.931,0,0,1-.2-20.468.722.722,0,0,0-.17-.569.807.807,0,0,0-.6-.241.97.97,0,0,0-.6.2.85.85,0,0,0-.32.607,125.7,125.7,0,0,0,.2,20.419c.547,7.187,1.446,14.585,2.239,21.113.263,2.164.511,4.208.74,6.178-2.973.226-5.4.385-7.647.5l-.65.033c-3.256.163-5.96.239-8.509.239-3.23,0-6.137-.124-8.887-.381a63.923,63.923,0,0,1-8.741-1.39.384.384,0,0,1-.247-.176.487.487,0,0,1-.049-.365.175.175,0,0,1-.087.023.163.163,0,0,1-.16-.12c-.705-2.325-1.163-7.207-1.53-11.129h0c-.151-1.613-.282-3.006-.411-4.04l-.03-.235c-.4-3.024-.689-6.374-.915-10.542-.193-3.527-.276-7.077-.248-10.551.029-3.528.173-7.076.43-10.544A136.337,136.337,0,0,1,6.9,76.9c.9-2.7,1.9-5.362,2.976-7.919,1.1-2.619,2.3-5.195,3.574-7.656,1.3-2.521,2.716-4.989,4.2-7.335,1.518-2.4,3.149-4.744,4.85-6.958a60.672,60.672,0,0,1,5.4-6.184c.991-.983,2.01-1.911,3.029-2.759a41.1,41.1,0,0,1,3.286-2.47,49.177,49.177,0,0,1,7.068-3.925,78.029,78.029,0,0,1,7.532-2.955c3.405-1.156,6.867-2.143,10.215-3.1.13-.065.261-.129.389-.192l.2-.094c.377-.179.759-.366,1.128-.547h0c.822-.4,1.671-.82,2.531-1.174l.275-.112a22.112,22.112,0,0,1,2.827-.94,12.155,12.155,0,0,1,2.941-.405h.1a15.549,15.549,0,0,0,2.242-1.36,9.765,9.765,0,0,0,1.826-1.726,6.7,6.7,0,0,0,1.5-4.79,1.081,1.081,0,0,1,.269-.834,1.22,1.22,0,0,1,.9-.357,1.384,1.384,0,0,1,.872.3,1.2,1.2,0,0,1,.439.893,8.633,8.633,0,0,1-1.511,5.444,13.221,13.221,0,0,1-4.172,3.784l.016.016.016.018a16.207,16.207,0,0,0,1.669,1.64,42.609,42.609,0,0,0,12.632,7.243,32.023,32.023,0,0,0,4.836,1.379,25.206,25.206,0,0,0,4.865.489A23.047,23.047,0,0,0,99,34.092a23.411,23.411,0,0,0,3.219-.687,29.332,29.332,0,0,0,8.072-3.75,25.826,25.826,0,0,0,2.189-1.619,14.689,14.689,0,0,1-1.633-2.912,14.439,14.439,0,0,1-1.035-3.5,6.766,6.766,0,0,1,.317-3.59.985.985,0,0,1,.852-.574.608.608,0,0,1,.572.388,24.527,24.527,0,0,1,.933,2.535,19.241,19.241,0,0,0,1.277,3.231,14.431,14.431,0,0,0,1.308,1.995c0,.033,3.591.648,3.744.674h.008a19,19,0,0,1,3.342.306,23.633,23.633,0,0,1,3.244.835,38.432,38.432,0,0,1,6.2,2.769c2.3,1.251,4.538,2.56,7.011,4.019l4.532,2.675c.23.135.473.265.731.4l.351.188a28.212,28.212,0,0,1-.471-3.264,22.313,22.313,0,0,1-.036-3.282,12.146,12.146,0,0,1,1.254-4.828,6.451,6.451,0,0,1,3.634-3.239,6.37,6.37,0,0,1,2.09-.336,8.025,8.025,0,0,1,2.925.569,9.16,9.16,0,0,1,2.168,1.169,3.7,3.7,0,0,1,1.135-1.878,5.594,5.594,0,0,1,1.92-1.148,5.954,5.954,0,0,1,1.358-.3c-.012-.206-.015-.426-.012-.713l0-.184c.019-.971.016-2.028-.011-3.232-.047-2.285-.157-4.214-.346-6.07-.108-1.047-.267-2.1-.421-3.127h0c-.094-.621-.19-1.262-.275-1.9l-.092-.721q-.015-.115-.031-.232l0-.011a10.563,10.563,0,0,1-.142-2.147A2.823,2.823,0,0,1,159.666.7a2.466,2.466,0,0,1,1.768-.7,3.2,3.2,0,0,1,1.16.227,3.422,3.422,0,0,1,1.018.627,10.792,10.792,0,0,1,2.324,3.859,22.363,22.363,0,0,1,.978,2.849c.247.906.455,1.859.634,2.913.334,1.959.518,3.982.7,5.938a65.1,65.1,0,0,0,.913,7.108,19.545,19.545,0,0,1,3.295,2.212,14.283,14.283,0,0,1,2.661,2.93,15.661,15.661,0,0,1,2.388,5.422,12.017,12.017,0,0,1-.174,5.891A31.689,31.689,0,0,1,176,43.529c-.337.8-.685,1.631-.979,2.465a28.4,28.4,0,0,0-1.454,6.679,53.4,53.4,0,0,0-.186,6.729c.034,1.171.1,2.346.157,3.483.012.237.032.48.051.715a7.7,7.7,0,0,1-.06,2.429l-.031.117c.084-.013.176-.03.287-.055.184-.041.365-.088.54-.133h0a5.71,5.71,0,0,1,1.449-.245,2.98,2.98,0,0,1,.393.025.934.934,0,0,1,.726.446.9.9,0,0,1,0,.82,2.269,2.269,0,0,1-.482.7c.951,7.034,2.319,14.122,3.641,20.976,1.058,5.483,2.152,11.153,3.026,16.761.49,3.145.821,5.959,1.013,8.606a68.613,68.613,0,0,1,.115,8.659l-.032.575a55.312,55.312,0,0,1-.995,8.172,30.934,30.934,0,0,1-1.1,3.98,22.044,22.044,0,0,1-1.688,3.691,16.542,16.542,0,0,1-5.1,5.506,9.261,9.261,0,0,1-3.118,1.386,19.522,19.522,0,0,1-12.471.728,22,22,0,0,1-4.974-2.042,42.107,42.107,0,0,1-3.639-2.255,25.108,25.108,0,0,1-3.3-2.716,13.017,13.017,0,0,1-1.4-1.631,10.17,10.17,0,0,1-1.1-1.915c0,.1,0,.2-.01.3a2.4,2.4,0,0,0,.019.609l.122.589c.174.832.444,2.109.757,3.588,1.363,6.438,3.645,17.214,3.682,18.313a.158.158,0,0,1-.05.114,6.271,6.271,0,0,1-2.782.5c-1.323.084-2.751.1-3.518.113h0c-.208,0-.373,0-.454.008h-.019C139.446,160.465,135.769,160.538,131.795,160.538ZM11.284,141.923a3.823,3.823,0,0,0-1.663.369,3.1,3.1,0,0,0-1.283,1.133,4.623,4.623,0,0,0-.416,3.6l.019.085a7.082,7.082,0,0,0,.455,1.314,2.781,2.781,0,0,0,.423.671.74.74,0,0,0,.532.289.532.532,0,0,0,.172-.029c.862-.295.962-1.463,1.022-2.161l0-.072c0-.091.006-.2.007-.316a4.974,4.974,0,0,1,.076-.985.7.7,0,0,1,.726-.7,4.984,4.984,0,0,1,2.054.9,8.034,8.034,0,0,0,.723.414,4.335,4.335,0,0,0,1.782.447,2.4,2.4,0,0,0,1.838-.819,5.654,5.654,0,0,0,1.105-3.047c.036-.222.072-.452.113-.671l.061-.318a4.426,4.426,0,0,1,.312-1.059c.188-.387.436-.583.737-.583h.026a2.7,2.7,0,0,1,1.272.622c.151.107.293.209.423.287a10.965,10.965,0,0,0,1.649.8,8.944,8.944,0,0,0,3.227.591,9.5,9.5,0,0,0,1.02-.055,2.014,2.014,0,0,0,1.026-.372,1.9,1.9,0,0,0,.626-.886,3.759,3.759,0,0,0,.226-.705,1.57,1.57,0,0,0-.283-1.387,1.932,1.932,0,0,0-.661-.542,1.825,1.825,0,0,0-.814-.2,1.4,1.4,0,0,0-1.234.708,6.3,6.3,0,0,1-3.052-.912l-.378-.224a6.416,6.416,0,0,0-3.209-1.156,3.646,3.646,0,0,0-.8.09,3.739,3.739,0,0,0-1.822,1.025,5.311,5.311,0,0,0-1.15,1.763,7.886,7.886,0,0,0-.48,1.9c-.021.143-.04.289-.058.43v0c-.028.221-.058.45-.1.674l-.022.114c-.027.132-.069.329-.115.526a6.633,6.633,0,0,1-.682-.369c-.149-.088-.289-.171-.418-.237l-.257-.129a8.1,8.1,0,0,0-1.889-.726,4.228,4.228,0,0,0-.872-.091Zm150.634-11.305h0a4.679,4.679,0,0,0-3.76,1.906,4.236,4.236,0,0,0-.819,2.433,4.559,4.559,0,0,0,.269,1.5,3.8,3.8,0,0,0,.828,1.408,1.769,1.769,0,0,0,1.281.583c.054,0,.11,0,.165-.008a.867.867,0,0,0,.821-.626,3.823,3.823,0,0,0-.086-1.149,4.291,4.291,0,0,1-.1-1.056,1.352,1.352,0,0,1,.446-.928,1.292,1.292,0,0,1,.895-.377,3.268,3.268,0,0,1,1.681.771l.062.044.582.408a6.146,6.146,0,0,0,3.114,1.329c.075,0,.15.007.223.007a3.861,3.861,0,0,0,1.988-.561,4.255,4.255,0,0,0,1.461-1.48,7.391,7.391,0,0,0,.732-2.06,9.324,9.324,0,0,1,.5-1.619,1.633,1.633,0,0,1,.187-.291c.1-.139.194-.259.133-.332a4.16,4.16,0,0,1,.793.647h0a3.842,3.842,0,0,0,.394.348,3.589,3.589,0,0,0,.935.452,3.334,3.334,0,0,0,1,.155,3,3,0,0,0,1.134-.218,2.94,2.94,0,0,0,1-.674,6.056,6.056,0,0,0,.844-1.192v0c.067-.113.136-.229.206-.343.05-.082.107-.162.161-.239h0a1.6,1.6,0,0,0,.37-.909l.082-.382.009-.062a1.374,1.374,0,0,0-.619-1.379,1.9,1.9,0,0,0-1.109-.352,2.083,2.083,0,0,0-1.393.539l-.041.038a7.788,7.788,0,0,0-.9,1.085l-.087-.068-.041-.032-.038-.031a5.027,5.027,0,0,0-1.895-1.118,3.3,3.3,0,0,0-.858-.115,3.6,3.6,0,0,0-2.126.738,5.037,5.037,0,0,0-1.488,1.779,9.474,9.474,0,0,0-.715,2.221l-.007.03-.039.166-.017.077c-.01.049-.02.1-.031.164v0c-.077.414-.194,1.04-.493,1.208a.17.17,0,0,1-.084.019,1.611,1.611,0,0,1-.609-.251c-.357-.206-.7-.448-1.031-.681-.266-.187-.54-.381-.821-.556a5.87,5.87,0,0,0-3.1-.97Zm-47.665-1.279a5.044,5.044,0,0,0-2.238.477,3.828,3.828,0,0,0-1.644,1.549,5.338,5.338,0,0,0-.665,2.184,9.314,9.314,0,0,0,.085,2.387,5.642,5.642,0,0,0,.814,2.208.16.16,0,0,0,.133.076.173.173,0,0,0,.157-.114,9.4,9.4,0,0,0,.506-2.311,11.405,11.405,0,0,1,.378-1.966,1.957,1.957,0,0,1,1.965-1.56,3.8,3.8,0,0,1,1.027.159,18.274,18.274,0,0,1,1.81.654,13.24,13.24,0,0,0,2.516.82,6.368,6.368,0,0,0,1.147.107,5.354,5.354,0,0,0,1.755-.287,4.973,4.973,0,0,0,1.575-.895,7.547,7.547,0,0,0,2.153-3.5,13.058,13.058,0,0,0,.334-1.294,6.158,6.158,0,0,1,1.069-2.724,1.747,1.747,0,0,1,1-.62c.031,0,.061,0,.091,0a1.089,1.089,0,0,1,.763.392,3.4,3.4,0,0,0,.34.284,3.141,3.141,0,0,0,1.769.566,2.381,2.381,0,0,0,1.149-.279,2.023,2.023,0,0,0,.846-.9,2.136,2.136,0,0,0,.22-.814,1.2,1.2,0,0,0-.22-.807,1.468,1.468,0,0,0-1.234-.731,3.406,3.406,0,0,0-.7.1.741.741,0,0,1-.087-.088l-.025-.03a3.3,3.3,0,0,0-.943-.7,3.872,3.872,0,0,0-1.821-.437,4.793,4.793,0,0,0-2.735.889,5.852,5.852,0,0,0-1.706,1.915,10.757,10.757,0,0,0-.973,2.4c-.079.271-.147.56-.22.867a5.47,5.47,0,0,1-1.332,2.939,1.848,1.848,0,0,1-1.266.431,7.292,7.292,0,0,1-2.432-.627c-.269-.1-.524-.2-.754-.275A8.622,8.622,0,0,0,114.254,129.339ZM55.1,119.417h0a3.695,3.695,0,0,0-2.812,1.2,4.26,4.26,0,0,0-1.021,1.746,4.648,4.648,0,0,0-.137,1.924,6.547,6.547,0,0,0,2.977,4.552.139.139,0,0,0,.074.022.145.145,0,0,0,.112-.056.158.158,0,0,0,.033-.133,13.079,13.079,0,0,0-.495-1.605,6.3,6.3,0,0,1-.544-3.351,2.1,2.1,0,0,1,.636-1.209,1.765,1.765,0,0,1,1.2-.417,2.785,2.785,0,0,1,.44.037,12.841,12.841,0,0,1,2.376.713,9.222,9.222,0,0,0,3.116.767,3.92,3.92,0,0,0,1.974-.524,4.289,4.289,0,0,0,1.526-1.5,6.534,6.534,0,0,0,.8-2,13.378,13.378,0,0,0,.22-1.448,7.834,7.834,0,0,1,.543-2.428.962.962,0,0,1,.891-.678,3.039,3.039,0,0,1,.958.239,5.011,5.011,0,0,0,.885.258,3.784,3.784,0,0,0,3.095-.914,2.014,2.014,0,0,0,.575-1.534A1.768,1.768,0,0,0,72,111.949a1.6,1.6,0,0,0-1.114-.508,1.278,1.278,0,0,0-.77.262c-.172.125-.338.252-.495.377l-.066.072a1.888,1.888,0,0,1-.565-.112l-.334-.107a6.364,6.364,0,0,0-1.913-.377,3.43,3.43,0,0,0-.744.08,3.74,3.74,0,0,0-1.986,1.189,6.059,6.059,0,0,0-1.172,2.031,9.274,9.274,0,0,0-.41,2.609,15.549,15.549,0,0,1-.148,1.58,2.3,2.3,0,0,1-.516,1.237,1.357,1.357,0,0,1-1.049.412,2.933,2.933,0,0,1-.629-.076l-.066-.015c-.523-.125-1.073-.3-1.605-.47h0a11.393,11.393,0,0,0-3.317-.712ZM156.262,73.328a.8.8,0,0,0-.848.816,49.516,49.516,0,0,1-.353,5.6c-.2,1.742-.5,3.544-.889,5.509-.732,3.65-1.719,7.324-2.674,10.876-.793,2.95-1.612,6-2.283,9.025a69.518,69.518,0,0,0-1.468,9.168.726.726,0,0,0,.173.569.811.811,0,0,0,.6.241.965.965,0,0,0,.6-.2.846.846,0,0,0,.316-.608,69.445,69.445,0,0,1,1.467-9.164c.67-3.022,1.489-6.069,2.281-9.015v0c.955-3.552,1.942-7.224,2.674-10.875.394-1.966.685-3.769.89-5.512a49.617,49.617,0,0,0,.353-5.6.786.786,0,0,0-.22-.573.878.878,0,0,0-.622-.243ZM21.882,105h0l-.043.209a4.033,4.033,0,0,1-.232.829l-.067.153c-.063.142-.128.287-.191.426l0,.009a10.56,10.56,0,0,0-.79,2.145,3.831,3.831,0,0,0-.076,1.108,3.345,3.345,0,0,0,.309,1.147,3.219,3.219,0,0,0,1.222,1.384,3.3,3.3,0,0,0,1.744.491,3.492,3.492,0,0,0,.9-.12A2.863,2.863,0,0,0,26.5,111.2a2.2,2.2,0,0,0-.056-1.943,1.279,1.279,0,0,0-1.107-.62,1.02,1.02,0,0,0-.55.151l-.143.1-.01.007h0a3.011,3.011,0,0,0-.451.324l-.124.031c.042-.123.077-.277.112-.426a2.835,2.835,0,0,1,.117-.423l.289-.657a9.553,9.553,0,0,0,.652-1.881,4.006,4.006,0,0,0-.059-1.993,2.689,2.689,0,0,0-2.732-2.248,6.981,6.981,0,0,0-2.09.392c-.727.233-1.466.538-2.18.833h0c-.383.158-.745.307-1.1.443.043-.169.086-.334.121-.495.112-.508.236-1.022.355-1.519l.047-.2.281-1.179c.25-1.074.452-2.3-.337-3.188a1.913,1.913,0,0,0-1.495-.664,4.194,4.194,0,0,0-1.757.473,34.962,34.962,0,0,0-4.571,2.6.377.377,0,0,0,.2.7.458.458,0,0,0,.086-.008,26.68,26.68,0,0,0,3.15-.77c.235-.075.478-.163.713-.248h0a9.51,9.51,0,0,1,1.691-.5,4.893,4.893,0,0,1-.186.551c-.063.175-.133.352-.2.522l0,0c-.074.188-.15.381-.219.576-.278.782-.523,1.569-.727,2.236l-.114.375a9.062,9.062,0,0,0-.379,1.775,2.8,2.8,0,0,0,.279,1.667,1.974,1.974,0,0,0,1.357.9,2.133,2.133,0,0,0,.458.048,4.959,4.959,0,0,0,1.7-.421l.022-.008.2-.074.156-.056,2.763-.98c.11-.039.252-.074.4-.111h0a2.529,2.529,0,0,0,.807-.29Zm156.809,1.086c.554,0,.9.136,1.056.416a1.516,1.516,0,0,0,1.359.807,1.848,1.848,0,0,0,1.448-.712,1.548,1.548,0,0,0,.247-1.384,3.163,3.163,0,0,0-.948-1.524,3.924,3.924,0,0,0-1.6-.847,4.139,4.139,0,0,0-1.105-.136,7.938,7.938,0,0,0-.879.055c-.124.014-.249.03-.371.046h0c-.125.016-.266.035-.4.05l-.191.018s-.083-.005-.253-.011h-.007c-.175-.006-.393-.014-.516-.022l.05-.135c.008-.02.015-.037.02-.049a3.883,3.883,0,0,0,.442-1.751,2.924,2.924,0,0,0-.512-1.554,3.6,3.6,0,0,0-1.213-1.113,4.886,4.886,0,0,0-2.407-.622,4.975,4.975,0,0,0-.548.03,7.59,7.59,0,0,0-1.255.305,6.611,6.611,0,0,1-1.8.368,1.827,1.827,0,0,1-.726-.134,1.709,1.709,0,0,1-.86-1.014,4.055,4.055,0,0,1-.253-1.35,8.481,8.481,0,0,1,.249-1.866,9.475,9.475,0,0,0,.248-1.671.121.121,0,0,0-.036-.088.137.137,0,0,0-.1-.042.109.109,0,0,0-.062.019,5.8,5.8,0,0,0-1.272,1.178,6.348,6.348,0,0,0-.913,1.528,5.621,5.621,0,0,0-.428,1.713,4.519,4.519,0,0,0,.182,1.732,4.6,4.6,0,0,0,.793,1.5,4.044,4.044,0,0,0,1.3,1.079,3.941,3.941,0,0,0,1.853.417,10.685,10.685,0,0,0,2.163-.291l.568-.122a3.6,3.6,0,0,1,.732-.095,1.746,1.746,0,0,1,.471.061,1.155,1.155,0,0,1,.207.091.954.954,0,0,0,.228.1,1.992,1.992,0,0,0-.1.222c-.015.037-.03.072-.041.094l-.1.195a3.781,3.781,0,0,0-.252.611,2.894,2.894,0,0,0,.173,2.094,3.475,3.475,0,0,0,1.325,1.415,4.341,4.341,0,0,0,1.86.594c.038,0,.08.005.125.005a6.859,6.859,0,0,0,.868-.091l.085-.012A8,8,0,0,1,178.691,106.086ZM101.67,93.852a1.814,1.814,0,0,1,.886.181.754.754,0,0,1,.393.682,2.713,2.713,0,0,1-.559,1.313,5.381,5.381,0,0,0-.347.6,5.447,5.447,0,0,0-.554,2.311,3.311,3.311,0,0,0,.722,2.094,2.315,2.315,0,0,0,1.8.886,2.665,2.665,0,0,0,1.178-.292,1.388,1.388,0,0,0,.7-.864,1.7,1.7,0,0,0-.129-1.318c-.113-.2-.211-.349-.3-.484-.344-.537-.425-.664-.1-1.5l.115-.293a8.574,8.574,0,0,0,.557-1.91A3.627,3.627,0,0,0,105.8,93.3a3.8,3.8,0,0,0-1.773-1.93,5.5,5.5,0,0,0-2.562-.584,7.142,7.142,0,0,0-2.444.434l-.086.033c-.173.067-.384.157-.628.26a10.837,10.837,0,0,1-3.573,1.057,1.392,1.392,0,0,1-1.076-.381,1.669,1.669,0,0,1-.3-1.312c.035-.371.093-.744.15-1.1a7.341,7.341,0,0,0,.086-2.678A3.838,3.838,0,0,0,91.4,84.4a4.417,4.417,0,0,0-1.816-.4,4.531,4.531,0,0,0-1.622.312,6.6,6.6,0,0,0-1.483.819,12.9,12.9,0,0,0-2.476,2.452.155.155,0,0,0-.016.165.125.125,0,0,0,.111.076.14.14,0,0,0,.074-.023l.236-.147.184-.115a16.8,16.8,0,0,1,1.924-1.1,5.047,5.047,0,0,1,2.105-.517,3.762,3.762,0,0,1,.638.054,2.16,2.16,0,0,1,1.51.837,2.49,2.49,0,0,1,.195,1.957l-.095.408a10.13,10.13,0,0,0-.326,2.253,4,4,0,0,0,.574,2.174A3.758,3.758,0,0,0,92.8,95.048a5.6,5.6,0,0,0,2.182.481h.125a9.7,9.7,0,0,0,3.549-.9c.345-.137.7-.278,1.059-.4l.123-.043A6.332,6.332,0,0,1,101.67,93.852ZM58.759,81.687a3.715,3.715,0,0,0-.65.057,3.411,3.411,0,0,0-1.786,1.013,4.162,4.162,0,0,0-1.06,1.85A2.717,2.717,0,0,0,55.252,86a2.275,2.275,0,0,0,.807,1.2.7.7,0,0,0,.434.148.608.608,0,0,0,.437-.171.533.533,0,0,0,.143-.4l0-.107a4.075,4.075,0,0,1,.266-1.585,1.572,1.572,0,0,1,1.153-1,1.874,1.874,0,0,1,.377-.037,5.31,5.31,0,0,1,2.164.709,8.074,8.074,0,0,0,1.261.533,4.52,4.52,0,0,0,1.226.181,3.343,3.343,0,0,0,1.5-.344,3.672,3.672,0,0,0,1.16-.927,6.465,6.465,0,0,0,1.312-2.977l.019-.1c.021-.122.042-.261.063-.4a9.065,9.065,0,0,1,.337-1.565,1.769,1.769,0,0,1,.864-1.131.625.625,0,0,1,.257-.055,1.8,1.8,0,0,1,.906.406,3.916,3.916,0,0,0,.345.219,5.486,5.486,0,0,0,2.162.644c.1.007.194.011.293.011A4.914,4.914,0,0,0,76.8,76.914a3.375,3.375,0,0,0,.477-1.591,3.25,3.25,0,0,0-.446-1.733,1.179,1.179,0,0,0-1.055-.561,1.3,1.3,0,0,0-.972.4.952.952,0,0,0-.224.77l.049.384a3.025,3.025,0,0,1,.016.766,1.474,1.474,0,0,1-.3.722,1.649,1.649,0,0,1-.692.515,2.281,2.281,0,0,1-.853.158,2.669,2.669,0,0,1-.335-.021,4.659,4.659,0,0,1-1.626-.631,3.914,3.914,0,0,0-1.867-.631,2.471,2.471,0,0,0-.477.047,4.055,4.055,0,0,0-2.707,2.471,9.127,9.127,0,0,0-.575,2.171,12.228,12.228,0,0,1-.37,1.64,1.921,1.921,0,0,1-.571.934,1.248,1.248,0,0,1-.82.271,3.658,3.658,0,0,1-1.335-.329l-.27-.111-.166-.069-.047-.02A7.577,7.577,0,0,0,58.759,81.687Zm77.659-7.643a4.219,4.219,0,0,0-1.358.218,4,4,0,0,0-1.151.617,5.075,5.075,0,0,0-1.589,2.2l-.067.175a13.481,13.481,0,0,0-.791,3.189,3.535,3.535,0,0,0,.691,2.955.776.776,0,0,0,.522.206.525.525,0,0,0,.318-.1,3.86,3.86,0,0,0,1.188-2.2c.028-.1.06-.208.091-.315l.024-.079c.055-.182.11-.371.162-.555v0a9.53,9.53,0,0,1,.895-2.331,1.313,1.313,0,0,1,.526-.5,1.483,1.483,0,0,1,.676-.147,6.764,6.764,0,0,1,2.575.862,10.141,10.141,0,0,0,.988.442,5.873,5.873,0,0,0,1.92.331,5.26,5.26,0,0,0,1.987-.384,5.471,5.471,0,0,0,1.75-1.15,6.544,6.544,0,0,0,1.191-1.58,9.906,9.906,0,0,0,.757-1.82,3.983,3.983,0,0,0,.8.321,3.913,3.913,0,0,0,1.023.137,3.01,3.01,0,0,0,2.153-.815,2.633,2.633,0,0,0,.73-1.344,2.4,2.4,0,0,0-.119-1.378,1.833,1.833,0,0,0-1.763-1.163,2.655,2.655,0,0,0-.492.048.939.939,0,0,0-.563.354,1.27,1.27,0,0,0-.258.627l-.031.071a4.42,4.42,0,0,1-1.015-.578,4.741,4.741,0,0,0-.717-.437,2.291,2.291,0,0,0-.9-.184,1.865,1.865,0,0,0-1.04.289,1.4,1.4,0,0,0-.6.93l-.138.764a9.94,9.94,0,0,1-.633,2.281,2.734,2.734,0,0,1-1.518,1.573,1.688,1.688,0,0,1-.583.1A4.765,4.765,0,0,1,140.2,75.1l-.005,0c-.109-.05-.213-.1-.314-.141a9.831,9.831,0,0,0-3-.895c-.154-.015-.308-.022-.458-.022ZM47.012,63.571a.419.419,0,0,1,.345.136c.164.2-.205,1.053-.327,1.333L47,65.1c-.149.349-.319.695-.483,1.029-.214.437-.435.888-.614,1.352a5.885,5.885,0,0,0-.412,2.248,4.606,4.606,0,0,0,.59,2.2,4.046,4.046,0,0,0,1.115,1.26,2.591,2.591,0,0,0,1.5.537,2.1,2.1,0,0,0,1.228-.406,1.319,1.319,0,0,0,0-2.241c-.08-.056-.16-.11-.237-.161a1.779,1.779,0,0,1-.825-.876,2.751,2.751,0,0,1,.363-2.03l.353-.748a10.8,10.8,0,0,0,.938-2.637,3.6,3.6,0,0,0-.467-2.665A3.117,3.117,0,0,0,48.741,60.8a3.908,3.908,0,0,0-1.676-.35A5.6,5.6,0,0,0,44.9,60.9c-.379.16-.749.344-1.107.521a12.747,12.747,0,0,1-1.816.785,11.323,11.323,0,0,1-2.16.457,6.513,6.513,0,0,1,.007-1.756c.032-.343.062-.666.063-.982a5.053,5.053,0,0,0-1.2-3.706,3.938,3.938,0,0,0-2.895-1.193,5.658,5.658,0,0,0-4.605,2.554.609.609,0,0,0-.011.634.7.7,0,0,0,.594.364.628.628,0,0,0,.167-.023,8.879,8.879,0,0,0,1.195-.474,6.076,6.076,0,0,1,2.3-.7,1.831,1.831,0,0,1,1.034.3,1.45,1.45,0,0,1,.6,1.213,7.074,7.074,0,0,1-.136,1.539c-.038.232-.074.452-.092.641l-.013.146a9.784,9.784,0,0,0,.012,2.2,3.275,3.275,0,0,0,.878,1.948,1.965,1.965,0,0,0,1.446.471,8.232,8.232,0,0,0,.852-.057l.25-.026A13.187,13.187,0,0,0,43,65.214a17.457,17.457,0,0,0,2.357-1l.192-.095.137-.071,0,0A3.564,3.564,0,0,1,47.012,63.571Zm104-38.811a4.21,4.21,0,0,0-2.081.524,4.666,4.666,0,0,0-1.5,1.376,8.274,8.274,0,0,0-1.382,4.117,21.132,21.132,0,0,0,.125,4.337,33.349,33.349,0,0,0,.847,4.277c.249.946.545,1.957.906,3.09a50.072,50.072,0,0,0,1.77,4.825c.193.438.413.934.657,1.406a13.2,13.2,0,0,1,2.135,2.421l.414.568.111.153a25.908,25.908,0,0,1,2.734,4.644,27.984,27.984,0,0,1,1.654,4.9l.1.419c.026.106.052.211.08.322l0,.011c.306,1.219.654,2.6.136,3.7a21.278,21.278,0,0,0,3.391.818,24.586,24.586,0,0,0,3.425.213c.482,0,.984-.01,1.535-.029,1.5-.055,3.055-.17,4.75-.35l1.138-.125.353-.042a.732.732,0,0,1-.11-.184,7.2,7.2,0,0,1-.38-2.583c0-.185-.01-.376-.018-.563l-.005-.116c-.058-1.137-.095-2.308-.11-3.483a53.67,53.67,0,0,1,.27-6.539,35.993,35.993,0,0,1,1.035-5.645,38.471,38.471,0,0,1,1.585-4.386c.131-.321.28-.686.42-1.037a20.31,20.31,0,0,0,.906-2.707,9.945,9.945,0,0,0-.443-6.385.119.119,0,0,1-.074.028h-.007a16.477,16.477,0,0,1-3.528-.649l-.01,0c-.214-.056-.435-.113-.654-.169a35.5,35.5,0,0,0-4.494-.862l-.321-.037a13.854,13.854,0,0,0-1.526-.1,5.305,5.305,0,0,0-2.263.43,4.162,4.162,0,0,0-1.556,1.32,7.511,7.511,0,0,0-.971,1.817l-.053.144a7.8,7.8,0,0,0-.419,1.88,6.213,6.213,0,0,0,.1,1.912,3.859,3.859,0,0,0,2.286,2.857,3.975,3.975,0,0,0,1.471.281,2.418,2.418,0,0,0,.984-.18,1.139,1.139,0,0,0,.634-.643,2.2,2.2,0,0,0-.218-1.366c-.048-.128-.093-.249-.126-.356a5.384,5.384,0,0,1-.271-1.716.97.97,0,0,1,.911-.953l.046,0a4.684,4.684,0,0,0,.878-.177,5.035,5.035,0,0,1,1.193-.217.959.959,0,0,1,.609.173.91.91,0,0,1,.311.647.854.854,0,0,1-.429.75,5.064,5.064,0,0,1-1.509.592c.069.306.168.61.263.9l.01.032a.541.541,0,0,1,.194-.055c.149-.012.3-.018.474-.018.319,0,.644.022.957.043h0c.289.019.589.04.884.043l.424,0a3.417,3.417,0,0,1,1.71.35.67.67,0,0,1,.368.569.869.869,0,0,1-.368.748,2.607,2.607,0,0,1-1.513.418,5.358,5.358,0,0,1-2.835-.9,2.532,2.532,0,0,1-.15,1.287,2.99,2.99,0,0,1-1.377,1.495,4.587,4.587,0,0,1-1.992.545c-.071,0-.143,0-.215,0a5.4,5.4,0,0,1-3.073-.989c-.077.275-.174.55-.267.816a8.68,8.68,0,0,0-.375,1.268,7.49,7.49,0,0,0-.087,1.245,5.192,5.192,0,0,1-.209,1.7,1.642,1.642,0,0,1-.576.744,1.506,1.506,0,0,1-.872.3,1.14,1.14,0,0,1-.893-.43,2.794,2.794,0,0,1-.557-1.081,3.582,3.582,0,0,1-.1-1.223,4.693,4.693,0,0,1,.863-2.318,4.828,4.828,0,0,1,1.017-1.014,3.012,3.012,0,0,1,1.339-.59,6.119,6.119,0,0,1-1.5-2.2.107.107,0,0,1-.045.009.13.13,0,0,1-.036-.005,6.214,6.214,0,0,1-3.5-2.464,7.054,7.054,0,0,1-.93-1.895,7.839,7.839,0,0,1-.364-2.113,6.072,6.072,0,0,1-.7.433,1.083,1.083,0,0,1-.512.129,1.014,1.014,0,0,1-.995-.74,1.086,1.086,0,0,1,.2-.922.918.918,0,0,1,.725-.38l.065,0c.176.015.337.022.492.022a4,4,0,0,0,.662-.051c.05-.008.1-.018.142-.027l.015,0c.034-.222.079-.445.133-.664a6.955,6.955,0,0,1-.785.043,12.771,12.771,0,0,1-2.671-.345.792.792,0,0,1-.608-.907.827.827,0,0,1,.8-.787h.033l.154.007.4.021h.008c.383.022.817.046,1.249.046a4.22,4.22,0,0,0,2.552-.6,7,7,0,0,1,.63-.78,1.726,1.726,0,0,0,.078-.194,1.279,1.279,0,0,0-.119-1.129,3.212,3.212,0,0,0-1.521-1.156,7.221,7.221,0,0,0-1.772-.525,5.413,5.413,0,0,0-.782-.059ZM106.757,53.57c-.059,0-.119,0-.178,0A5.752,5.752,0,0,0,102.7,55.3a4.88,4.88,0,0,0-1.123,1.865,4.755,4.755,0,0,0-.184,2.165l.014.09a4.862,4.862,0,0,0,.523,1.342c.241.423.621.927,1.066.927a.785.785,0,0,0,.563-.288,1.819,1.819,0,0,0,.428-1.2c.015-.152.03-.308.058-.47a3.878,3.878,0,0,1,.7-1.676,2.546,2.546,0,0,1,.894-.747,2.443,2.443,0,0,1,1.1-.257,2.65,2.65,0,0,1,.751.111,13.261,13.261,0,0,1,1.385.525,7.055,7.055,0,0,0,2.646.727h.058a4.121,4.121,0,0,0,2.077-.553,4.761,4.761,0,0,0,1.569-1.484,9.164,9.164,0,0,0,.969-2.135c.137-.387.278-.787.446-1.171l.047-.105a3.15,3.15,0,0,1,.415-.736.659.659,0,0,1,.524-.256,1.664,1.664,0,0,1,.673.19l.325.156a6.736,6.736,0,0,0,2.77.813,2.907,2.907,0,0,0,1.629-.479,2.975,2.975,0,0,0,1.361-2.032,2.256,2.256,0,0,0-.578-1.845,1.472,1.472,0,0,0-1.112-.452,1.688,1.688,0,0,0-.8.193,1.23,1.23,0,0,0-.552.576c-.067.147-.129.294-.2.468a1.762,1.762,0,0,1-.357-.147c-.272-.123-.534-.266-.788-.4a6.569,6.569,0,0,0-1.438-.64,3.715,3.715,0,0,0-.96-.126,4.069,4.069,0,0,0-2.989,1.354,8.628,8.628,0,0,0-1.649,3.187l-.22.661c-.255.744-.546,1.412-1.3,1.412a1.816,1.816,0,0,1-.533-.091c-.435-.136-.859-.3-1.268-.465A7.7,7.7,0,0,0,106.757,53.57ZM66.88,48.828a4.032,4.032,0,0,0-2.617.774,3.793,3.793,0,0,0-1.2,1.686,4.527,4.527,0,0,0-.247,2.066,5.513,5.513,0,0,0,.689,2.07,2.427,2.427,0,0,0,1.64,1.285.549.549,0,0,0,.075.005.317.317,0,0,0,.295-.156,3.055,3.055,0,0,0,.034-2.1,4.949,4.949,0,0,1-.168-1.4,1.479,1.479,0,0,1,.513-1.141,1.831,1.831,0,0,1,1.14-.293c.122,0,.252.005.4.016.233.017.471.042.7.065h.005a12.809,12.809,0,0,0,1.305.09,4.327,4.327,0,0,0,1.265-.17,3.214,3.214,0,0,0,1.485-.964,3.457,3.457,0,0,0,.785-1.59,6.507,6.507,0,0,0-.351-3.083v0c-.064-.227-.13-.462-.189-.694a2.96,2.96,0,0,1-.084-1.254.462.462,0,0,1,.11-.2l.014-.017a.509.509,0,0,1,.093-.008,1.814,1.814,0,0,1,.338.046c.065.013.125.025.174.03l.219.022c.277.025.52.037.741.037a3.837,3.837,0,0,0,1.316-.2,2.656,2.656,0,0,0,1.132-.785,2.368,2.368,0,0,0,.553-1.771l-.022-.263a1.407,1.407,0,0,0-.2-.725l0-.007c.047-.063.088-.123.124-.183l.037-.064a1.35,1.35,0,0,0,.127-1.048,1.281,1.281,0,0,0-.609-.795,1.861,1.861,0,0,0-.886-.24,1.728,1.728,0,0,0-1.318.655,2.548,2.548,0,0,0-.55,2.015l.013.069c.008.04.03.143.06.27a1.981,1.981,0,0,1-.25-.046l-.382-.047a7.033,7.033,0,0,0-.8-.056,3.164,3.164,0,0,0-.98.143,2.9,2.9,0,0,0-1.594,1.264,3.963,3.963,0,0,0-.556,1.983,6.707,6.707,0,0,0,.478,2.321,9.766,9.766,0,0,1,.43,1.569.907.907,0,0,1-.131.758.971.971,0,0,1-.775.254,6.44,6.44,0,0,1-.856-.081c-.132-.018-.255-.035-.373-.048l-.037,0a10.924,10.924,0,0,0-1.11-.064Zm94.9-21.451a6.8,6.8,0,0,0-1.96.3,6.4,6.4,0,0,0-1.6.736,5.9,5.9,0,0,0-1.321,1.149,5.528,5.528,0,0,0-.661.977,5.764,5.764,0,0,0-.621,2.191,8.016,8.016,0,0,0,.16,2.365,9.486,9.486,0,0,0,2.067,4.2,8.067,8.067,0,0,1-.1-4,9.924,9.924,0,0,1,.632-1.939,9.6,9.6,0,0,1,.991-1.73A6.3,6.3,0,0,1,160.52,30.4a5.723,5.723,0,0,1,1.329-.795,7.61,7.61,0,0,1,3.038-.555,14.407,14.407,0,0,1,1.962.146l.1.013a26.789,26.789,0,0,1,4.45.949,12.609,12.609,0,0,1,2.122.892,8.006,8.006,0,0,1,1.8,1.305,11.954,11.954,0,0,0-.721-1.382,18.091,18.091,0,0,0-6.957-6.114c-.436-.235-.9-.466-1.382-.687a13.6,13.6,0,0,0-5.543-1.482,6.028,6.028,0,0,0-2.361.449,5.531,5.531,0,0,0-2.061,1.542,3.71,3.71,0,0,1,.989,1.482,9.065,9.065,0,0,1,1.906-.776,9.634,9.634,0,0,1,2.556-.349,7.653,7.653,0,0,1,2.081.27,4.944,4.944,0,0,1,1.8.9.863.863,0,0,1,.29,1,1.251,1.251,0,0,1-.427.57,1.146,1.146,0,0,1-.68.239.971.971,0,0,1-.221-.025c-.3-.07-.591-.163-.872-.252a6.142,6.142,0,0,0-1.612-.357C161.989,27.38,161.882,27.377,161.776,27.377Zm-.169-24.659-.006.03v.005l0,.011a8.044,8.044,0,0,0,.154,2.089c.035.217.067.421.094.624l.016.123c.064.516.135,1.042.2,1.549v0c.193,1.435.393,2.918.47,4.385a33.6,33.6,0,0,1-.167,5.8l-.034.271c-.028.218-.054.437-.08.668a13.457,13.457,0,0,1-.486,2.652,15.737,15.737,0,0,1,3.921,1.023c.448.17.889.347,1.312.528-.25-1.327-.449-2.685-.643-4-.229-1.555-.465-3.162-.786-4.728l-.117-.575-.072-.357c-.3-1.515-.618-3.08-1.05-4.58a18.994,18.994,0,0,0-1.787-4.336,8.522,8.522,0,0,0-.731-1.04A.407.407,0,0,0,161.607,2.718Z" transform="translate(6.549 -13.104)"/>
  </g>
  <g id="HEAD" transform="translate(78.592 38.043)">
    <path id="_Skin-2" data-name="âœ‹ Skin" d="M76,44.188c-.5-6.5.275-13.308-2.224-19.484C69.421,14.457,57.2,11.04,47.73,7.139,43.935,6.015,31.166,5.857,26.723,4.37,16.666,1,14.264-3.01,6.273,3.4A8.707,8.707,0,0,0,3.465,7.314l.025.007A2.172,2.172,0,0,0,3.9,9.192a13.092,13.092,0,0,0-3.137,13.6c5.8,12.3,5.528,18.948,3.659,32.169C1.98,67.3,7.558,71.812,16.8,78.527a2.28,2.28,0,0,0,.036,2.348C27.513,95.923,47.654,103.108,64.91,95.47c7-3.125,10.132-10.6,11.916-17.352A48.4,48.4,0,0,0,77.852,54.9,96.346,96.346,0,0,1,76,44.188Z" transform="translate(7.8 7.33)" fill="#d08b5b"/>
    <path id="bandana" d="M0,25.756,6.351,30,29.086,5.97,21.521,0S7.795,10.17,5.1,12.854,0,25.756,0,25.756Z" transform="translate(7.295 7.33)" fill="#9fd8e5"/>
    <path id="_Ink-2" data-name="ðŸ– Ink" d="M81.073,127.8a31.823,31.823,0,0,1-7.61-.956,39,39,0,0,1-5.17-1.683,3.087,3.087,0,0,1-1.322-.907,1.222,1.222,0,0,1-.274-.965,1.124,1.124,0,0,1,1.184-.847,2,2,0,0,1,.633.109,46.105,46.105,0,0,0,5.121,1.4,31.73,31.73,0,0,0,6.472.735,20.721,20.721,0,0,0,2.679-.166,30.726,30.726,0,0,0,8.753-2.317,19.92,19.92,0,0,0,3.83-2.266,18.58,18.58,0,0,0,3.314-3.253,21.74,21.74,0,0,0,2.685-4.425,30.724,30.724,0,0,0,1.943-5.784A48.279,48.279,0,0,0,104.4,99.15a78.572,78.572,0,0,0,.119-9.06c-.071-1.747-.211-3.523-.347-5.24-.158-2-.322-4.062-.376-6.092-.039-1.482-.057-2.988-.074-4.444-.026-2.174-.052-4.423-.15-6.633l-.054-1.259c-.064-1.486-.131-2.943-.241-4.422-.04-.174-.079-.352-.117-.523-.086-.392-.175-.8-.288-1.186a25.54,25.54,0,0,0-1.731-4.419,1.221,1.221,0,0,1-.527.241,8.476,8.476,0,0,1-1.513.143,6.428,6.428,0,0,1-2.674-.564,6.581,6.581,0,0,1-1.72-1.118,2.629,2.629,0,0,1-.546-.649h-.049a2.7,2.7,0,0,1-.932-.158A1.863,1.863,0,0,1,92,52.441a1.479,1.479,0,0,1,.063-.8l.019-.052-.046-.017a8.129,8.129,0,0,1-2.882,3.572,9.191,9.191,0,0,1-3.173,1.392,15.707,15.707,0,0,1-3.461.4l-.345,0a47.836,47.836,0,0,1-7.4-.759c-.8-.127-1.405-.247-1.971-.389l-.03.031c-.016.017-.032.034-.048.049a7.351,7.351,0,0,1-2.336,1.523,7.03,7.03,0,0,1-2.65.516,7.383,7.383,0,0,1-2.941-.618,10.423,10.423,0,0,1-2.193-1.3,15.208,15.208,0,0,1-1.886-1.737c-.018.7-.053,1.35-.108,1.972l-.024.259a5.169,5.169,0,0,1-1.258,3.384,3.093,3.093,0,0,1-2.219.86,5.3,5.3,0,0,1-1.592-.27,8.908,8.908,0,0,1-1.531-.663c0,.044,0,.092,0,.137.426,1.452.861,2.93,1.282,4.359l.009.03.1.333.1.336.1.34v0a15.115,15.115,0,0,1,.7,3.064,3.977,3.977,0,0,1-.909,3,2.526,2.526,0,0,1-1.906.847,3.3,3.3,0,0,1-.954-.149,7.933,7.933,0,0,1-2.855-1.929l0,0c-.167-.151-.324-.294-.484-.435l-.63-.546a71.529,71.529,0,0,1,2,8.135,52.227,52.227,0,0,1,.861,8.31.547.547,0,0,1-.54.541c-.058,0-.116,0-.175,0a5.179,5.179,0,0,1-1.891-.378,1.085,1.085,0,0,1-.116-.011,7.794,7.794,0,0,1-3.162-1.2,5.9,5.9,0,0,1,.257,2.209.2.2,0,0,1-.2.174.148.148,0,0,1-.152-.128,5.194,5.194,0,0,0-2.013-3.038,6.2,6.2,0,0,0-1.665-.907,5.421,5.421,0,0,0-1.833-.331,4.624,4.624,0,0,0-.862.08,6.652,6.652,0,0,0-3.667,2.087,7.622,7.622,0,0,0-1.205,1.763,7.75,7.75,0,0,0-.681,2.042,10.468,10.468,0,0,0,.294,4.733,11.977,11.977,0,0,0,.9,2.248,10.818,10.818,0,0,0,1.308,1.962,6.1,6.1,0,0,0,3.548,2.221,4.648,4.648,0,0,0,.725.057,4.419,4.419,0,0,0,1.243-.175,6.583,6.583,0,0,0,.644-.242l.136-.056a3.6,3.6,0,0,1,.565-.159,3.121,3.121,0,0,0,.6-.177,1.027,1.027,0,0,1,.424-.094.888.888,0,0,1,.764.415.9.9,0,0,1,.017.886,3.472,3.472,0,0,1-1.261,1.579,11.093,11.093,0,0,1,.834,1.24c.1.168.182.3.235.372a37.338,37.338,0,0,0,2.58,3.166,26.946,26.946,0,0,0,3.078,2.834l.46.364a10.855,10.855,0,0,1,2.715,2.817,1.415,1.415,0,0,1,.01,1.448,1.549,1.549,0,0,1-.517.554,1.384,1.384,0,0,1-.745.22h-.019a6.1,6.1,0,0,1-2.405-.542,8.608,8.608,0,0,1-2.074-1.344,19.265,19.265,0,0,1-3.236-3.833c-.246-.368-.486-.767-.713-1.188a2.538,2.538,0,0,1-.268.359l.2.528a1.186,1.186,0,0,1-.129,1.135,1.567,1.567,0,0,1-.592.5,1.729,1.729,0,0,1-.767.185,1.354,1.354,0,0,1-.664-.166,1.231,1.231,0,0,1-.5-.535,22.171,22.171,0,0,0-1.826-3,1.552,1.552,0,0,1-1.016-.619c-.18-.261-.37-.527-.554-.785-.39-.546-.793-1.111-1.148-1.692-.274-.261-.567-.523-.9-.8l-.045.04,0,0c-.072.064-.147.129-.218.2a11.212,11.212,0,0,1-1.446,2.433l-.126.161a12.334,12.334,0,0,1-1.947,2.018A5.724,5.724,0,0,1,29.206,109a.616.616,0,0,1-.115.011.707.707,0,0,1-.639-.442.522.522,0,0,1,.157-.6,20.109,20.109,0,0,1,1.68-1.312,14.59,14.59,0,0,0,2.266-1.892,14.229,14.229,0,0,0,1.564-2.051l.1-.168c.069-.113.143-.233.234-.376-.53-.362-1.068-.731-1.588-1.088a13.6,13.6,0,0,1-2.925,1.753,20.428,20.428,0,0,0-2.04,1.1l-.16.105a1.356,1.356,0,0,1-.761.246,1.329,1.329,0,0,1-.809-.288,1.743,1.743,0,0,1-.537-.705,1.45,1.45,0,0,1,.284-1.623,31.911,31.911,0,0,0,2.6-3.133h0c.294-.386.6-.784.9-1.169a8.448,8.448,0,0,1-.885-3.345c-.038-.342-.069-.694-.1-1v0h-.053a4.061,4.061,0,0,1-2.283-.753l-.263-.188a7.95,7.95,0,0,1-2.39.381l-.193,0a2.229,2.229,0,0,1-1.226-.388,2.149,2.149,0,0,1-.741-.907,2.323,2.323,0,0,1-.17-1.26,2.42,2.42,0,0,1,.571-1.241,4.417,4.417,0,0,1,3.376-1.451,5.1,5.1,0,0,1,1.9.367c.056-.029.116-.061.173-.093a2.053,2.053,0,0,1,.03-1.052l-.028-.189a4.892,4.892,0,0,1-.741-2,4.638,4.638,0,0,1,.071-1.7,2.891,2.891,0,0,1,.132-.386c.025-.063.05-.128.073-.193a3.746,3.746,0,0,1-.254-1.118c-.037-.044-.079-.1-.118-.15a3.03,3.03,0,0,1-.575-1.95,3.075,3.075,0,0,1,.71-1.773c0-.066.01-.13.018-.19-.048-.108-.093-.221-.135-.334a3.776,3.776,0,0,1-1.3-3.049,3.178,3.178,0,0,1,.812-1.863,1.059,1.059,0,0,1,.009-.739,8.853,8.853,0,0,1-.518-3.091,13.828,13.828,0,0,1,.407-3.261,2.884,2.884,0,0,1-.16-1.053,3.234,3.234,0,0,1,.929-2.1,3.138,3.138,0,0,1,.949-.671,2.752,2.752,0,0,1,1.143-.251h.031a2.753,2.753,0,0,1,.554.065l0-.038a4.275,4.275,0,0,1,.384-1.312.829.829,0,0,1-.257-.148,14.456,14.456,0,0,1-3.3,1.271,1,1,0,0,1-.242.03,1.159,1.159,0,0,1-.989-.607.928.928,0,0,1,.042-.975,7.12,7.12,0,0,1,.806-1.007,10.323,10.323,0,0,0-1.258.085,1.477,1.477,0,0,1-.19.012,2.056,2.056,0,0,1-1.056-.327,2.934,2.934,0,0,1-.864-.813c-.616.6-1.241,1.206-1.846,1.792l0,0a2.364,2.364,0,0,1-1.666.706,2.473,2.473,0,0,1-1.643-.645,2.664,2.664,0,0,1-.866-1.663,3.513,3.513,0,0,1-1.282-.638A21.4,21.4,0,0,1,11.13,57.4a22.5,22.5,0,0,1-4.01.527l-.1,0a2.226,2.226,0,0,1-1.2-.341A2.5,2.5,0,0,1,5,56.723a2.738,2.738,0,0,1-.368-1.276,2.5,2.5,0,0,1,.317-1.319A12.685,12.685,0,0,1,7.19,51.242,26.28,26.28,0,0,1,3,52.15a1.3,1.3,0,0,1-.171.011,2.328,2.328,0,0,1-1.179-.383A2.127,2.127,0,0,1,.821,50.9a9.407,9.407,0,0,1,.28-8.26c.042-.085.089-.168.135-.248h0l.033-.059c.143-.357.3-.708.462-1.044A5.343,5.343,0,0,1,.3,38.175a6.923,6.923,0,0,1,.509-3.434A2.206,2.206,0,0,1,.557,32.8a17.037,17.037,0,0,1,1.28-2.655,16.293,16.293,0,0,1,1.712-2.368,5.14,5.14,0,0,1-.58-2.46,6.273,6.273,0,0,1,.257-1.724,6.414,6.414,0,0,1,1.8-2.927,8.69,8.69,0,0,1,3.567-1.9,10.193,10.193,0,0,1,2.066-2.576l0-.005c.031-.068.062-.136.1-.2a7.268,7.268,0,0,1,2.584-2.786,8,8,0,0,1,1.674-.795,8.932,8.932,0,0,1,1.819-.411,2.661,2.661,0,0,1,.516-1.309,2.29,2.29,0,0,1,1.133-.822,7.754,7.754,0,0,1,1.149-2.3,3.264,3.264,0,0,1,1-.906,2.395,2.395,0,0,1,2.45,0,15.141,15.141,0,0,1,2,1.365,2.743,2.743,0,0,1,.963-.246l.091-.006,2.079-.106c.552-.245,1.112-.5,1.654-.751.3-.136.631-.289.957-.437a6.985,6.985,0,0,1,1.744-1.063,7.086,7.086,0,0,1,2.2-.531,18.845,18.845,0,0,1,1.822-.505,20.076,20.076,0,0,1,4.286-.481h.175c.031-.4.046-.794.043-1.183l0-.2a2.351,2.351,0,0,1,.63-1.652A2.652,2.652,0,0,1,43.27.029,2.578,2.578,0,0,1,43.652,0,2.263,2.263,0,0,1,45.09.505a3.123,3.123,0,0,1,.922,1.272l.024.061c.143.371.305.741.5,1.133A8.763,8.763,0,0,1,48.449,2.3,9.242,9.242,0,0,1,50.5,2.065a8.018,8.018,0,0,1,3.375.713,6.35,6.35,0,0,1,1.437.919,5.887,5.887,0,0,1,1.147,1.32,4.928,4.928,0,0,1,.658,1.6A6.483,6.483,0,0,1,57.251,8.3a18.193,18.193,0,0,1-.586,3.412c-.063.263-.127.535-.187.8l-.363,1.612a2.755,2.755,0,0,1,.874.9,2.176,2.176,0,0,1,.33,1.182l0,.064-.147,2.249a11.69,11.69,0,0,0,1.278-1.545c.269-.493.556-.971.854-1.42a2.48,2.48,0,0,1,2.09-1.2,2.67,2.67,0,0,1,2.235,1.258,2.47,2.47,0,0,1,.026,2.486,15.226,15.226,0,0,1-.949,1.6,14.258,14.258,0,0,0-.951,2.327,2.223,2.223,0,0,1,1.3,2.014A5.964,5.964,0,0,1,62.9,25.76a5.835,5.835,0,0,1-.611,1.538,6.44,6.44,0,0,1-1.011,1.324,7.532,7.532,0,0,1-1.35,1.077,2.274,2.274,0,0,1-1.223.369A2.161,2.161,0,0,1,58.183,30c-.09.121-.191.259-.287.4a12.738,12.738,0,0,1,2.133,2.209,38.478,38.478,0,0,1,5.6-.414,10.233,10.233,0,0,1,4.537-.945,17.541,17.541,0,0,1,2.941.266,29.322,29.322,0,0,1,2.951.718h0c.556.156,1.132.318,1.7.456a22.023,22.023,0,0,0,2.975.44c.653.066,1.327.134,1.99.243a8.91,8.91,0,0,1,2.891.975,6.8,6.8,0,0,1,2.188,1.878,7.529,7.529,0,0,1,3.7,1.264c1.656,1.058,3.333,2.145,4.955,3.2l.009.006c.894.579,1.818,1.177,2.731,1.766a2.63,2.63,0,0,1,1.172,2.781l-.012.072-.086.469.2.289.177.25a17.418,17.418,0,0,1,1.971,3.253,37.733,37.733,0,0,1,2.543,4.252,30.976,30.976,0,0,1,2.418,6.214c.132.507.281,1.081.375,1.644a4.317,4.317,0,0,1-.091,1.609h0c-.032.17-.065.345-.092.528-.066.454-.113.919-.159,1.369-.05.493-.1,1-.178,1.5a1.065,1.065,0,0,1-.424.71,1.381,1.381,0,0,1-.771.249c.21,1.6.36,3.2.508,4.834.222,2.49.364,4.995.464,6.9a5.458,5.458,0,0,0,2.8,1.864,4.052,4.052,0,0,0,1.05.133,8.264,8.264,0,0,0,2.743-.6.778.778,0,0,1,.265-.048.835.835,0,0,1,.712.45.915.915,0,0,1,.026.909,3.2,3.2,0,0,1-1.338,1.281,3.812,3.812,0,0,1-1.737.387,5.712,5.712,0,0,1-2.413-.567,5.155,5.155,0,0,1-2-1.612c.03.633.063,1.278.094,1.9v.008l0,.1.031.607c.063,1.178.14,2.385.214,3.553.187,2.945.381,5.99.386,8.984,0,1.613-.048,3.077-.155,4.475a39.993,39.993,0,0,1-.574,4.424,27.824,27.824,0,0,1-3.089,8.484,27.331,27.331,0,0,1-5.472,6.868,26.432,26.432,0,0,1-7.339,4.724,25.8,25.8,0,0,1-8.69,2.051C82.193,127.787,81.631,127.8,81.073,127.8Zm-39.26-25.47h0c-.213.046-.423.081-.624.106l.008.02c.059.145.119.3.179.449.173.1.345.189.51.27a4.353,4.353,0,0,1-.074-.845ZM31.131,99.477a4.714,4.714,0,0,1,.536.031v-.031l-.017-.006a.758.758,0,0,1-.1-.037,4.668,4.668,0,0,1-.572-.327l-.14.259-.06.112-.007.013C30.893,99.481,31.013,99.477,31.131,99.477ZM28.377,61.266c-.214.007-.289.108-.288.174a.052.052,0,0,0,.053.057c.023,0,.086-.014.168-.144A.646.646,0,0,1,28.377,61.266ZM52.5,32.2a15.456,15.456,0,0,0-6.23,1.667,28.816,28.816,0,0,0-5.434,3.483,36.982,36.982,0,0,0-3.868,3.591A47.464,47.464,0,0,0,33.589,45a44.2,44.2,0,0,0-1.4,4.29c-.167.613-.3,1.241-.42,1.849v0c-.069.339-.141.689-.219,1.033l-.067.3a4.652,4.652,0,0,0-.39,1.019,3,3,0,0,0,1.432.794.887.887,0,0,1,.44.255,9.323,9.323,0,0,0,1.053-2.347l.008-.038A48.569,48.569,0,0,1,36.785,48.1a57.962,57.962,0,0,1,4.341-5.137,41.709,41.709,0,0,1,5-4.484,31.565,31.565,0,0,1,4.334-2.756,30.122,30.122,0,0,1,4.721-1.993A9.889,9.889,0,0,0,52.5,32.2Zm-7.65,61.6-.067,0c-1.3-.089-2.187-1.084-3.044-2.047-.306-.344-.6-.669-.9-.957a20.287,20.287,0,0,0-4.126-3.031A.233.233,0,0,1,36.6,87.5a.236.236,0,0,1,.211-.2h.025a16.278,16.278,0,0,1,2.634.341,11.436,11.436,0,0,1,2.508.873l.146.071a11.98,11.98,0,0,1,2.525,1.589,4.251,4.251,0,0,1,.954,1.142,2.327,2.327,0,0,1,.29,1.369,1.434,1.434,0,0,1-.315.759A.937.937,0,0,1,44.853,93.8Z" transform="translate(-21.082 -20.501)"/>
  </g>
  <g id="FACE" transform="translate(112.183 77.354)">
    <ellipse id="eye" cx="10.775" cy="10.99" rx="10.775" ry="10.99" transform="translate(25.352 14.16)" fill="#fff"/>
    <path id="_Ink-3" data-name="ðŸ– Ink" d="M1.7,38.724a1.855,1.855,0,0,1-1.046-.34,1.434,1.434,0,0,1-.607-.9,3.931,3.931,0,0,1,.265-2.055c.049-.153.1-.311.148-.478.171-.584.318-1.187.459-1.769.052-.215.106-.437.161-.655.181-.724.346-1.508.521-2.465a6.051,6.051,0,0,0,.072-.738A3.814,3.814,0,0,1,1.849,28.2a.1.1,0,0,1,.086-.066.085.085,0,0,1,.024,0A1.638,1.638,0,0,1,2.988,29.47a7.612,7.612,0,0,1,.171,1.821v.049c0,.2,0,.388,0,.6l.435.1a29.045,29.045,0,0,0,6.176.8c.352,0,.705-.01,1.051-.03a17.377,17.377,0,0,0,3.061-.474c.992-.237,1.983-.539,2.942-.831.76-.232,1.546-.471,2.338-.68a8.55,8.55,0,0,1,.091-4.015.17.17,0,0,1,.325,0c.137.428.259.858.377,1.275a15.726,15.726,0,0,0,1.053,2.952,1.476,1.476,0,0,1,.36.639A12.274,12.274,0,0,0,22.458,33.2a1.982,1.982,0,0,1,.608,2.011.975.975,0,0,1-.907.691l-.081,0a1.766,1.766,0,0,1-1.372-.7,4.969,4.969,0,0,1-.828-1.562,27.483,27.483,0,0,1-3.827.978,22.556,22.556,0,0,1-3.94.363c-.5,0-.993-.019-1.472-.057a21.33,21.33,0,0,1-3.829-.645,15.344,15.344,0,0,1-3.632-1.455c.01.379.024.765.037,1.138,0,.1.007.207.011.31.012.341.055.7.1,1.051a7.764,7.764,0,0,1,.081,1.7,2.055,2.055,0,0,1-.439,1.115,1.632,1.632,0,0,1-1.042.563A1.5,1.5,0,0,1,1.7,38.724ZM13.13,24.481a15.809,15.809,0,0,1-3.25-.348,16.948,16.948,0,0,1-3.069-.957A10.649,10.649,0,0,1,3.4,20.9,10.522,10.522,0,0,1,1.2,17.68a11.774,11.774,0,0,1-.952-3.828,13.29,13.29,0,0,1,.322-4.1A14.98,14.98,0,0,1,1.716,6.593,14.048,14.048,0,0,1,3.638,3.657,9.693,9.693,0,0,1,6.232,1.482,6.643,6.643,0,0,1,9.393.6,11.221,11.221,0,0,1,12.986,0c.169,0,.339,0,.506.012a10.9,10.9,0,0,1,7.694,3.734,11.544,11.544,0,0,1,2.092,3.53,11.421,11.421,0,0,1,.713,4.043,19.164,19.164,0,0,1-.568,4.453A16.907,16.907,0,0,1,21.8,19.957a8.364,8.364,0,0,1-3.721,3.484,10.194,10.194,0,0,1-2.386.792A12.863,12.863,0,0,1,13.13,24.481ZM5.275,4.309a10.917,10.917,0,0,0-1.017,1.77,13.36,13.36,0,0,0-.716,1.958A14.956,14.956,0,0,0,2.988,12.1,11.369,11.369,0,0,0,3.366,15a8.628,8.628,0,0,0,1.205,2.662,8.7,8.7,0,0,0,5.346,3.243,14.582,14.582,0,0,0,3.44.443,9.967,9.967,0,0,0,2.655-.341,5.588,5.588,0,0,0,2.551-1.517,7.542,7.542,0,0,0,1.578-2.547,14.147,14.147,0,0,0,1.024-6.563,8.8,8.8,0,0,0-.9-3.083,8.072,8.072,0,0,0-2.147-2.608,7.7,7.7,0,0,0-2.343-1.286,8.123,8.123,0,0,0-2.628-.431c-.2,0-.406.007-.608.022a8.329,8.329,0,0,0-2.92.76,8.224,8.224,0,0,0-.737.411c-.21.127-.427.257-.65.368a7.107,7.107,0,0,1-.81.322c-.167.059-.341.119-.508.187l-.163.069a1.159,1.159,0,0,1-.475.1,1.023,1.023,0,0,1-.689-.261A.939.939,0,0,1,5.275,4.309Zm7.537,11.865a2.131,2.131,0,0,1-.251-.015,1.747,1.747,0,0,1-.779-.291,1.865,1.865,0,0,1-.557-.595l-.01.006a6.333,6.333,0,0,1-.559-2.43l-.045-.626a3.272,3.272,0,0,1,.464-2.312,2.153,2.153,0,0,1,1.72-.941,1.851,1.851,0,0,1,.9.232,2.233,2.233,0,0,1,.764.709,3.421,3.421,0,0,1,.439,2.34q0,.09-.009.183l-.008.21q0,.11-.007.22a5.738,5.738,0,0,1-.292,1.976A1.892,1.892,0,0,1,12.812,16.174Z" transform="translate(23.662 12.892)"/>
  </g>
</svg>
