<svg id="peep-77" xmlns="http://www.w3.org/2000/svg" width="240" height="324" viewBox="0 0 240 324">
  <g id="BODY" transform="translate(31.056 135.053)">
    <path id="_Skin" data-name="âœ‹ Skin" d="M70.406,2.776C84.467-3.281,94.852,1.421,98.232,8.756c2.675,5.8,2.727,18.085,7.959,22.95,25.465,18.8,31.017,51.563,36.215,80.852a354.249,354.249,0,0,1,4.41,42.748,2.537,2.537,0,0,1-2.516,2.518c-37.611-1.819-75.3-1.681-112.91-.055a18.2,18.2,0,0,1-6.565-.977c-2.952,1.157-4.821-2.4-4.746-4.869-.25-1.635-1.887-2.769-3.079-3.814a23.888,23.888,0,0,1-6.657-8.38c-2.224-4.54-2.529-9.535-4.51-14.09a47.314,47.314,0,0,1-1.667-8.105,25.524,25.524,0,0,1-1.575-8.585C-1.583,106.328.447,99.893.83,95.838c.655-4.707,1.351-9.414,2.2-14.09,4.98-32.175,27.657-50.554,58.8-57.04C68.089,20.723,68.089,3.774,70.406,2.776Z" transform="translate(15.634 -11.809)" fill="#d08b5b"/>
    <path id="_Knife" data-name="ðŸ”ª Knife" d="M80.345,62.659a24.845,24.845,0,0,1-3.274-.215c-.394-.053-.8-.119-1.218-.195l-.3-.057-.3-.061-.009-.057,0-.015a.036.036,0,0,0-.035-.022.062.062,0,0,0-.049.026l-.006.012,0,.012,0,.021-.3-.065a38.2,38.2,0,0,1-3.859-1.091,83.116,83.116,0,0,1-10.992-4.69A104.3,104.3,0,0,1,40.612,43.582c-3.519-2.9-6.883-6.078-9.42-8.517.071-.2.142-.4.21-.6v0c.153-.439.3-.853.452-1.256.446-1.162.923-2.448,1.5-4.047l.293-.812.328-.911.07-.2.307-.9a7.152,7.152,0,0,1,1.954-3.353,7.934,7.934,0,0,1,.778-.556l.135-.086.272-.169.228.268.231.267a61.264,61.264,0,0,0,5.282,5.211l.529.471.509.451,2.592,2.29,1.155,1.012c1.224,1.067,2.475,2.145,3.685,3.188l.01.008c1.075.926,2.187,1.884,3.275,2.831,5.4,4.7,11.792,10.265,18.205,15.936,3.538,3.126,6.655,5.906,9.53,8.5-.112-.006-.23-.009-.36-.009-.31,0-.627.017-.933.034-.283.015-.575.031-.863.034ZM7.056,7.5h0a2.927,2.927,0,0,0-1.148-.659l-.08-.029-.365-.129-1.28-.467L1.766,5.338l-.045-.016c-.1-.035-.244-.071-.391-.11a2.909,2.909,0,0,1-1.2-.491.643.643,0,0,1-.122-.544l.006-.043.027-.17.021-.117.025-.124a8.507,8.507,0,0,1,.942-2.412A2.546,2.546,0,0,1,2.066.288,2.843,2.843,0,0,1,3.377,0,7.908,7.908,0,0,1,5.816.513l.062.021.244.087.242.09L7.1.988l.33.127c1.25.492,2.474,1.09,3.657,1.67h0c.471.231.958.469,1.441.7l.34.159-.37.163-.248.11L12,4.028A19.533,19.533,0,0,0,9.292,5.477,8.9,8.9,0,0,0,7.056,7.5Z" transform="translate(67.183 18.599)" fill="#fdea6b"/>
    <path id="_Ink" data-name="ðŸ– Ink" d="M27.312,144.565a1.588,1.588,0,0,1-1.181-.465,1.209,1.209,0,0,1-.295-.951l.04-.444a28.348,28.348,0,0,1,1.048-6.007c-.1,0-.18,0-.258,0a3.951,3.951,0,0,1-1.261-.171,8.188,8.188,0,0,1-1.954-1.042,13.8,13.8,0,0,1-1.854-1.5,15.609,15.609,0,0,1-1.583-1.788,22.892,22.892,0,0,1-2.433-4.06,39.688,39.688,0,0,1-1.752-4.405c-1-2.983-1.971-6.121-2.955-9.593l-.982-3.484A123.33,123.33,0,0,1,8.68,97.181a.853.853,0,0,1-.336.262,5.073,5.073,0,0,1-2.076.464,4.754,4.754,0,0,1-2.133-.515,6.223,6.223,0,0,1-1.779-1.359,8.1,8.1,0,0,1-1.314-1.925A8.41,8.41,0,0,1,.3,91.9a29.873,29.873,0,0,1-.282-5.878v-.009c0-.231.008-.47.012-.7l0-.235c.006-.42.011-.858.015-1.245C.077,81.742.1,79.59.21,77.475c.1-2.079.308-4.2.6-6.294.288-2.045.671-4.128,1.14-6.19.456-2.009,1.006-4.055,1.634-6.082C4.2,56.938,4.9,54.93,5.673,52.941c1.592-4.087,3.173-7.7,4.834-11.051.924-1.862,1.883-3.658,2.85-5.337,1.029-1.786,2.1-3.5,3.19-5.092a48.384,48.384,0,0,1,3.471-4.537,32.127,32.127,0,0,1,4.1-3.974,43,43,0,0,1,10.338-5.96,118.084,118.084,0,0,1,11.584-4.022A114.011,114.011,0,0,1,59.154,9.752a1.011,1.011,0,0,1,.175-.016.724.724,0,0,1,.645.35c.141.235.282.489.443.8a4.912,4.912,0,0,1,1.5-.5c.236-.052.458-.1.649-.16.549-.17,1.227-.321,1.945-.481,1.79-.4,3.818-.85,4.892-1.806a9.353,9.353,0,0,0,2.015-2.625,23.653,23.653,0,0,0,1.3-3.057l.141-.388C73.321.577,73.815,0,74.1,0a.2.2,0,0,1,.159.081,2.277,2.277,0,0,1-.011,1.538l-.076.344c-.209.937-.447,1.941-.775,2.931a12.589,12.589,0,0,1-1.249,2.748c-1.584,2.536-5.392,3.7-8.452,4.642-.5.154-.976.3-1.425.445a.848.848,0,0,1,0,.218,12.307,12.307,0,0,1,2.934.869,19.186,19.186,0,0,1,4.819,3.02,10.827,10.827,0,0,1,1.756,1.939l4.961-2.156c.282-.122.57-.251.848-.376l.007,0a17.186,17.186,0,0,1,4.211-1.462,5.771,5.771,0,0,1,.908-.069,6.976,6.976,0,0,1,2.366.417,4.956,4.956,0,0,1,1.974,1.259,3.155,3.155,0,0,1,.831,2.5,1.1,1.1,0,0,1-.636.9c.183-.015.365-.023.541-.023.072,0,.144,0,.215,0a4.154,4.154,0,0,1,1.7.467A3.369,3.369,0,0,1,91.057,21.4a1.971,1.971,0,0,1,.3.874,2,2,0,0,1-.182,1,.385.385,0,0,1-.358.255.609.609,0,0,1-.563-.5,2.192,2.192,0,0,0-2.52-2.081,12.7,12.7,0,0,0-2.675.409,48.247,48.247,0,0,0-5.326,1.528,25.332,25.332,0,0,0-5.328,2.57c-1.731,1.122-3.319,2.465-3.213,4.679a.041.041,0,0,1-.011.032.057.057,0,0,1-.041.018.042.042,0,0,1-.039-.024,2.548,2.548,0,0,1-.221-1.421,3.721,3.721,0,0,1,.483-1.365,7.965,7.965,0,0,1,1.977-2.185,25.089,25.089,0,0,1,6.8-3.591,35.856,35.856,0,0,1,3.783-1.126l.295-.072.452-.111h0c.605-.15,1.23-.3,1.856-.406a.9.9,0,0,1-.653-.66l-.014-.053a2.867,2.867,0,0,0-1.054-1.7,2.9,2.9,0,0,0-1.723-.483,8.8,8.8,0,0,0-2.98.657c-1.017.378-2.023.861-2.831,1.249h0c-.395.19-.736.353-1.033.484-.516.227-1.043.456-1.552.676l-.019.008c-1.214.526-2.47,1.07-3.685,1.644l-.223.106a16.072,16.072,0,0,0-1.988,1.1,6.584,6.584,0,0,0-1.658,1.523,5.226,5.226,0,0,0-.9,1.954,7.044,7.044,0,0,0-.138,2.116,21.363,21.363,0,0,0,.951,4.348c.222.76.431,1.478.584,2.165a14.641,14.641,0,0,1,.423,2.9A7.156,7.156,0,0,1,67.7,39.84v0c-.032.118-.064.24-.1.36l-.114.448a.194.194,0,0,1,.146.081.15.15,0,0,1,.025.134,27.422,27.422,0,0,1-1.583,3.927c-.6,1.242-1.254,2.433-1.983,3.75-1.68,3.037-3.015,5.318-4.329,7.395-2.679,4.234-5.607,8.437-8.7,12.493-3.048,3.99-6.326,7.926-9.746,11.7-1.424,1.572-2.923,3.122-4.373,4.621-1.876,1.94-3.816,3.947-5.614,6.02A37.4,37.4,0,0,0,27.3,96.225,26.408,26.408,0,0,0,25.64,99.51l-.093.225a7.391,7.391,0,0,1-1.491,2.487.72.72,0,0,1-1.192-.315,6.111,6.111,0,0,1,.526-3.656A23.417,23.417,0,0,1,25.248,94.9l.021-.033.1-.157a47.823,47.823,0,0,1,4.7-6.169c.459-.521.941-1.053,1.475-1.625a34.947,34.947,0,0,1-4.456.815h0c-.788.109-1.6.222-2.4.362a53.264,53.264,0,0,0-6.9,1.608,30.245,30.245,0,0,0-5.932,2.589A23.1,23.1,0,0,0,9.24,94.011c-.061.046-.122.1-.181.143l-.013.011-.037.03c1.159,2.912,2.1,5.962,3.013,8.911v0c.152.491.309,1,.464,1.5.794,2.551,1.55,5.052,2.186,7.162l1.617,5.379c.216.718.43,1.463.636,2.183l0,.006a41.2,41.2,0,0,0,3.556,9.435,14.693,14.693,0,0,0,3.46,4,12.758,12.758,0,0,0,2.142,1.34,9.223,9.223,0,0,1,.972.621h0c.117.082.237.166.357.247a1.345,1.345,0,0,1,1.023-.468,1.543,1.543,0,0,1,.244.02l.06.011a5.183,5.183,0,0,0,1,.094,7.124,7.124,0,0,0,2.045-.329,12.645,12.645,0,0,0,1.926-.778,20.823,20.823,0,0,0,4.479-2.84,52.089,52.089,0,0,0,6.755-7.6l.16-.205A167.8,167.8,0,0,0,64.336,91.4c2.547-5.412,5.067-11.206,7.487-17.219,1.285-3.189,2.411-6.042,3.442-8.724l.148-.39c.184-.489.366-.994.542-1.482a28.514,28.514,0,0,1,2.959-6.466.153.153,0,0,1,.048-.05.408.408,0,0,1,.059-.186A3.414,3.414,0,0,1,80.8,55.686h0c.169-.068.343-.138.51-.212.93-.418,1.873-.841,2.786-1.25l.017-.008c.184-.082.387-.161.6-.244a4.547,4.547,0,0,0,1.762-.99,5.506,5.506,0,0,0,.909-2.079c.077-.267.149-.52.229-.749.681-1.946,1.431-3.9,2.156-5.8v0l.023-.061c.153-.4.3-.814.45-1.214a24.957,24.957,0,0,1,1.69-3.924,5.936,5.936,0,0,1,1.409-1.646A14.809,14.809,0,0,1,95.14,36.3l.281-.17a2.839,2.839,0,0,0,1.334-1.344,1.664,1.664,0,0,0-.187-1.427A3.059,3.059,0,0,0,95.5,32.326a3.1,3.1,0,0,0-1.578-.413,5.51,5.51,0,0,0-2.136.5,17.332,17.332,0,0,0-1.943,1.015c-.491.287-.986.6-1.464.893A25.5,25.5,0,0,1,84.9,36.249l-.012,0a.038.038,0,0,1-.034-.026.039.039,0,0,1,.008-.044,31.043,31.043,0,0,1,4.17-3.027l0,0,.525-.34.4-.259a9.3,9.3,0,0,1,3.554-1.562.219.219,0,0,1-.163-.233.262.262,0,0,1,.233-.231,27.584,27.584,0,0,1,3.159-.14,19.657,19.657,0,0,0,4.409-.361,10.622,10.622,0,0,0,3.112-1.294,12.7,12.7,0,0,0,2.609-2.142,21.689,21.689,0,0,0,2-2.5c.532-.766,1.061-1.6,1.713-2.706.251-.427.5-.861.748-1.28.369-.635.751-1.291,1.135-1.933.088-.148.182-.321.288-.528a5.72,5.72,0,0,1-1.676-.738,11.646,11.646,0,0,1-1.4-1.035,8.9,8.9,0,0,1-1.57-1.766,12.02,12.02,0,0,1-1.126-2.08A13.885,13.885,0,0,1,105.915,6.7a16.91,16.91,0,0,1,.2-2.728,18.531,18.531,0,0,1,.617-2.659.23.23,0,0,1,.225-.162.215.215,0,0,1,.215.162c.315,1.13.524,2.317.726,3.465a22.565,22.565,0,0,0,1.471,5.543,10.033,10.033,0,0,0,2.136,3.018,6.694,6.694,0,0,0,1.462,1.11,6.109,6.109,0,0,0,.593.275,2.861,2.861,0,0,1,1.105.68,1.014,1.014,0,0,1,.076.091,1.452,1.452,0,0,1,.193-.014.947.947,0,0,1,.511.135l.04.027.009-.013c-.861-.588-1.709-1.157-2.613-1.663a.2.2,0,0,1-.108-.234.248.248,0,0,1,.283-.183l.6.105a22,22,0,0,1,5.841,1.645,42.966,42.966,0,0,1,5.782,3.409,53.212,53.212,0,0,1,9.8,8.868A53.987,53.987,0,0,1,141.9,37.659a63,63,0,0,1,4.58,11.292c.654,2.188,1.234,4.447,1.773,6.9.48,2.188.915,4.482,1.332,7.015.773,4.7,1.357,9.509,1.921,14.158l.019.155c.07.575.142,1.17.213,1.753.581,4.766,1.113,9.628,1.581,14.449l.126,1.316c.134,1.422.277,2.866.415,4.262l0,.023c.1.976.206,2.083.309,3.148a2.411,2.411,0,0,1,.2,2.137c.2,2.224.361,4.2.48,6.028.334,5.194.55,10.45.642,15.621.064,3.618-.008,7.292-.077,10.846v.007c-.032,1.635-.065,3.326-.084,4.99a1.621,1.621,0,0,1-.541,1.249,1.777,1.777,0,0,1-1.169.416,1.8,1.8,0,0,1-1.178-.417,1.641,1.641,0,0,1-.558-1.248c-.095-4.1-.333-8.267-.564-12.3-.1-1.707-.2-3.472-.288-5.213-.06-1.163-.118-2.325-.183-3.614-.222-4.412-.452-8.974-.727-13.461-.033-.517-.064-1.048-.1-1.625a7.011,7.011,0,0,1-1.229.3c-.135.024-.262.047-.387.072l-.127.026a26.922,26.922,0,0,1-3.132.476l-.342.029c-.386.027-1.317.055-2.446.055a40.558,40.558,0,0,1-6.312-.412c.221,3.577.459,7.386.718,11.164.174,2.54.266,5.123.354,7.621.059,1.676.12,3.409.206,5.115.1,1.908.223,4.129.507,6.339.119.929.249,1.917.4,2.878l.077.478q.019.114.038.225h0a3.192,3.192,0,0,1-.083,2.033,1.717,1.717,0,0,1-.2,1.515,1.268,1.268,0,0,1-1.077.521c-.045,0-.092,0-.139-.005-7.458-.558-15.312-.849-24.011-.888-.748,0-1.513-.005-2.276-.005-10.043,0-20.249.309-30.118.608h-.025c-2.969.09-6.04.183-9.06.266l-3.736.1-.471.013c-5.617.154-11.425.313-17.14.313a189.979,189.979,0,0,1-21.243-1.026,1.106,1.106,0,0,1-.467.9A1.705,1.705,0,0,1,27.312,144.565ZM7.869,95.432a.857.857,0,0,1,.587.246c-.04-.282-.078-.575-.116-.894l-.016.015c-.258.235-.524.478-.8.706A.88.88,0,0,1,7.869,95.432Zm125.5-17.937a.038.038,0,0,1,.039.037l.008.057c.62.128,1.234.233,1.823.313a24.856,24.856,0,0,0,3.272.215h.225c.289,0,.581-.019.863-.034h0c.306-.017.622-.034.932-.034.127,0,.245,0,.36.009-2.877-2.594-5.994-5.374-9.53-8.5-6.4-5.656-12.792-11.229-18.2-15.936-1.092-.95-2.207-1.91-3.285-2.839-1.591-1.371-3.236-2.788-4.841-4.2l-2.592-2.29a66.212,66.212,0,0,1-6.55-6.4l-.228-.268a10.5,10.5,0,0,0-1.185.811,7.909,7.909,0,0,0-2.1,3.787h0c-.075.221-.152.45-.229.669l-.035.1c-.656,1.824-1.357,3.765-2.088,5.671-.155.4-.3.82-.453,1.26-.069.2-.139.4-.21.6,2.538,2.44,5.9,5.614,9.421,8.517a104.289,104.289,0,0,0,19.375,12.681,83.136,83.136,0,0,0,10.992,4.69,37.441,37.441,0,0,0,4.16,1.156l0-.021A.06.06,0,0,1,133.367,77.495ZM61.544,15.457h0a2.842,2.842,0,0,0-1.311.288A2.546,2.546,0,0,0,59.2,16.768a8.365,8.365,0,0,0-.966,2.535l-.021.117-.005.032a.808.808,0,0,0,.094.725,2.906,2.906,0,0,0,1.2.491c.176.047.327.087.436.126l2.418.878,1.207.441.239.085a3.5,3.5,0,0,1,1.426.758,9.335,9.335,0,0,1,2.638-2.278A26.7,26.7,0,0,1,71.033,19.1c-.6-.278-1.2-.572-1.778-.856h0c-1.287-.63-2.619-1.282-3.988-1.8l-.732-.277a9.025,9.025,0,0,0-2.987-.711ZM73.379,56.01h-.007a5.244,5.244,0,0,1-2.638-.816,8.086,8.086,0,0,1-2.08-1.861.233.233,0,0,1-.038-.254.225.225,0,0,1,.2-.131.245.245,0,0,1,.158.063,12.761,12.761,0,0,0,4.013,2.078l.482.181a.412.412,0,0,1,.256.46A.332.332,0,0,1,73.379,56.01ZM77.9,33.086a.086.086,0,0,1-.071-.034.065.065,0,0,1-.006-.063,8.774,8.774,0,0,1,1.614-2.725,12.935,12.935,0,0,1,2.4-2.134,29.511,29.511,0,0,1,5.735-2.95l.135-.054a8.238,8.238,0,0,1,2.931-.625,3.7,3.7,0,0,1,2.94,1.239,4.024,4.024,0,0,1,.9,2.9,2.566,2.566,0,0,1-.949,1.835.62.62,0,0,1-.824-.105.4.4,0,0,1-.021-.387,5.407,5.407,0,0,0,.393-1.528A2.76,2.76,0,0,0,92.855,27a2.109,2.109,0,0,0-1.382-1.1,3.5,3.5,0,0,0-1-.139,6.27,6.27,0,0,0-1.994.38c-.66.223-1.316.518-1.9.778l-.332.149-.442.195c-2.977,1.322-5.988,2.939-7.845,5.789A.081.081,0,0,1,77.9,33.086Z" transform="translate(8.873 3.092)"/>
  </g>
  <g id="HEAD" transform="translate(78.592 38.043)">
    <path id="_Skin-2" data-name="âœ‹ Skin" d="M32.04.078C63.994-1.5,78.414,21.058,79.346,31.132c.647,6.993-3.474,15.053-3.474,21.3,0,3.19,3.9,10.037,2.082,14.686C73.918,77.468,65.371,88.952,54.48,88.952S29.415,91.972,17.381,74.7C16.252,73.077,1.97,63.865.582,55.112-2.874,33.308,9.239,1.2,32.04.078Z" transform="translate(9.154 17.394)" fill="#d08b5b"/>
    <path id="_Ink-2" data-name="ðŸ– Ink" d="M69.781,106.155a33.635,33.635,0,0,1-3.366-.189,50.96,50.96,0,0,1-8.1-1.382l-.425-.113a11.863,11.863,0,0,1-3.2-1.227A3.809,3.809,0,0,1,53.457,102a5.047,5.047,0,0,1-.623-1.648,1.249,1.249,0,0,1,.236-1.019,1.012,1.012,0,0,1,.784-.386h.135c.117,0,.242,0,.392-.014l.121-.008h.006a.067.067,0,0,1,.021,0c.037-.005.074-.014.109-.022s.067-.015.1-.02a3.849,3.849,0,0,1,.638-.054,5.037,5.037,0,0,1,1.629.3l.095.032a37.558,37.558,0,0,0,3.852,1.15c1.307.3,2.692.552,4.117.752l.137.017.042.006.021,0a.025.025,0,0,1,.013,0l.407.051c.322.038.646.072.959.106h0c.586.059,1.182.106,1.771.139.342.019.687.029,1.028.029a18.337,18.337,0,0,0,6.927-1.368,20.906,20.906,0,0,0,5.937-3.708,24.729,24.729,0,0,0,7.436-12.062,25.462,25.462,0,0,0,.815-5.229,38.536,38.536,0,0,0-.094-5.224,2.5,2.5,0,0,1-.139-.843c0-.165.009-.328.019-.48-.182-1.783-.439-3.6-.688-5.353-.221-1.562-.45-3.177-.626-4.769a89.707,89.707,0,0,1-.59-11.9,49.634,49.634,0,0,1,.527-5.852l.1-.7a6.786,6.786,0,0,1-3.307-1.684,6.78,6.78,0,0,1-3.375.908,5.977,5.977,0,0,1-3.154-.87A7.494,7.494,0,0,1,75.294,43.4a6.8,6.8,0,0,1-3.548-.951,6.162,6.162,0,0,1-1.651.842,5.806,5.806,0,0,1-1.827.3,5.637,5.637,0,0,1-1.207-.131,5.4,5.4,0,0,1-2.121-1.008,6.149,6.149,0,0,1-1.067.1c-.1,0-.2,0-.3-.008l-.094.053a6.944,6.944,0,0,1-3.234.884c-.061,0-.122,0-.183,0a8.084,8.084,0,0,1-2.65-.538,7.512,7.512,0,0,1-2.954,1.055,6.815,6.815,0,0,1-.852.053,6.515,6.515,0,0,1-3.651-1.08,9.25,9.25,0,0,1-4.584,1.2,9.515,9.515,0,0,1-3.2-.549,7.2,7.2,0,0,1-2.081,2.23,4.684,4.684,0,0,1,.147,1.674,6.825,6.825,0,0,1-.687,2.469,4.428,4.428,0,0,1,.292,2.844A7.01,7.01,0,0,1,37.608,56.5,6.912,6.912,0,0,1,34.2,62.166a2.811,2.811,0,0,1-.31.155,1.532,1.532,0,0,1-.323.326,3.765,3.765,0,0,1-2.618.93,6.275,6.275,0,0,1-2.388-.5l-.035,0h0l-.058,0h-.053a1.352,1.352,0,0,1-1.165-.55,5.456,5.456,0,0,0-.712.083,9.894,9.894,0,0,0-2.608.881,5.859,5.859,0,0,0-1.332.934,5.6,5.6,0,0,0-.961,1.2,7.7,7.7,0,0,0-.974,3.018,8.252,8.252,0,0,0,.316,3.583,6.966,6.966,0,0,0,.766,1.611,6.612,6.612,0,0,0,1.193,1.381,6.221,6.221,0,0,0,1.534.981,7.283,7.283,0,0,0,1.74.537,4.987,4.987,0,0,0,.87.064c.136,0,.274,0,.408-.005h.007c.132,0,.269-.005.4-.005a3.708,3.708,0,0,1,1.071.124,1.936,1.936,0,0,1,.931.611.885.885,0,0,1,.221.839A1.925,1.925,0,0,1,28.4,79.8a47.811,47.811,0,0,0,3.873,4.172c.292.275.592.554.881.823l.011.01a47.064,47.064,0,0,1,3.527,3.523A29.081,29.081,0,0,1,38.707,90.9a17.95,17.95,0,0,1,1.615,2.841c.394.884.734,1.8,1.063,2.694v0c.1.272.2.553.309.829l.079.206c.055.139.113.279.168.415a7.447,7.447,0,0,1,.538,1.66,2.666,2.666,0,0,1,0,.841,2.487,2.487,0,0,1-.316.861,2.1,2.1,0,0,1-.625.65,1.564,1.564,0,0,1-.858.291,1.087,1.087,0,0,1-.14-.009c-1.817-.233-2.4-1.5-2.926-3.007-.178-.512-.341-1.038-.5-1.547-.208-.673-.423-1.369-.676-2.04-.077-.2-.165-.414-.269-.648a3.406,3.406,0,0,1-.917.124,4.06,4.06,0,0,1-2.156-.651,7.418,7.418,0,0,1-2.989.635h-.124a7.487,7.487,0,0,1-2.007-.305,7.033,7.033,0,0,1-1.781-.815l-.051-.014-.012,0h0c-.064-.017-.131-.034-.2-.053a5.934,5.934,0,0,1-2.134.4,5.306,5.306,0,0,1-3.024-.912,5.562,5.562,0,0,1-1.244-1.168,5.465,5.465,0,0,1-.793-1.414,5.366,5.366,0,0,1-1.854-.36,4.6,4.6,0,0,1-1.583-1.019,5.032,5.032,0,0,1-.994-1.4,5.3,5.3,0,0,1-.476-1.612,5.459,5.459,0,0,1-1.57-.566,5.165,5.165,0,0,1-1.353-1.073,4.784,4.784,0,0,1-.809-1.25,5.294,5.294,0,0,1-.409-1.43,5.64,5.64,0,0,1-1.847-.921,4.82,4.82,0,0,1-1.341-1.547,4.67,4.67,0,0,1-.541-1.743,4.774,4.774,0,0,1,.141-1.732l-.077-.112a5.094,5.094,0,0,1-1.737-1.429,3.942,3.942,0,0,1-.789-2.151A4.163,4.163,0,0,1,3.656,71a4.251,4.251,0,0,1,.116-1.5,6.444,6.444,0,0,1-1.155-1.528,6.73,6.73,0,0,1-.668-1.788,6.518,6.518,0,0,1-.134-1.9,6,6,0,0,1,.446-1.86A6.537,6.537,0,0,1,.61,58.895,6.305,6.305,0,0,1,.641,56.94,5.676,5.676,0,0,1,1.3,55.095,5.647,5.647,0,0,1,.287,53.245,5.906,5.906,0,0,1,.008,51.1a7.682,7.682,0,0,1,.64-2.639,14.014,14.014,0,0,1,1.334-2.372,4.408,4.408,0,0,1-.863-1.464A4.7,4.7,0,0,1,.848,42.94a5.331,5.331,0,0,1,.608-2.29,8.658,8.658,0,0,1,1.394-1.937,6.926,6.926,0,0,1-.347-2.19,7.1,7.1,0,0,1,.338-2.137A7.327,7.327,0,0,1,5.3,30.855,4.044,4.044,0,0,1,4.8,28.13a4.387,4.387,0,0,1,1.048-2.194,8.827,8.827,0,0,1,1.882-1.6A4.019,4.019,0,0,1,7.98,21.4a5.034,5.034,0,0,1,1.266-1.637,10.323,10.323,0,0,1,1.712-1.185,4.665,4.665,0,0,1,.5-1.636,5.215,5.215,0,0,1,1.024-1.373,4.848,4.848,0,0,1,1.388-.944,3.9,3.9,0,0,1,1.592-.351,3.51,3.51,0,0,1,1.714.448,3.016,3.016,0,0,1-.083-1.452,3.674,3.674,0,0,1,.55-1.35,4.4,4.4,0,0,1,1.293-1.282,4,4,0,0,1,1.71-.624,6.459,6.459,0,0,1,1.025-1.923A7.122,7.122,0,0,1,23.245,6.6a7.213,7.213,0,0,1,4.081-1.312,6.364,6.364,0,0,1,1.5.178A6.432,6.432,0,0,1,31.2,3.493a6.814,6.814,0,0,1,2.976-.687,6.542,6.542,0,0,1,2.289.408,10.176,10.176,0,0,1,3.022-1.6,10.46,10.46,0,0,1,3.277-.516,12.28,12.28,0,0,1,3.884.652A4.83,4.83,0,0,1,48.623.421,6.873,6.873,0,0,1,51.014,0c.139,0,.279,0,.416.012a12.811,12.811,0,0,1,3.537.9,12.443,12.443,0,0,0,3.6.9c.16.007.326.011.493.011a22.777,22.777,0,0,0,2.871-.243h.005A22.734,22.734,0,0,1,64.79,1.34a9.242,9.242,0,0,1,1.48.112,7.8,7.8,0,0,1,2.315.753,5.92,5.92,0,0,1,1.885,1.5,8.684,8.684,0,0,1,2.4-.336,8.939,8.939,0,0,1,2.06.242,9.18,9.18,0,0,1,1.95.7,9.255,9.255,0,0,1,3.237,2.659,5.371,5.371,0,0,1,.823-.063,6.293,6.293,0,0,1,3.581,1.173,5.913,5.913,0,0,1,2.258,2.992,7.311,7.311,0,0,1,2.572.567,8.012,8.012,0,0,1,2.24,1.4A7.185,7.185,0,0,1,94.041,17.6a5.669,5.669,0,0,1,3.392,2.642,7.974,7.974,0,0,1,.862,4.9,4.553,4.553,0,0,1,1.906,1.9,7.376,7.376,0,0,1,.824,2.715,4.781,4.781,0,0,1,1.621,2.258,5.814,5.814,0,0,1,.249,2.852,3.277,3.277,0,0,1,1.318,1.511,4.893,4.893,0,0,1,.44,2.042c0,.376-.033.741-.063,1.1a5.4,5.4,0,0,0,.194,2.538,6.449,6.449,0,0,1,.416,1.558,4.94,4.94,0,0,1-.075,1.6l-.024.112c-.039.177-.074.354-.107.543a3.321,3.321,0,0,1,.781,1.028,5.1,5.1,0,0,1,.514,2.319,6.844,6.844,0,0,1-.45,2.335,4.661,4.661,0,0,1-.147,2.875,5.308,5.308,0,0,1,.754,1.6,5.108,5.108,0,0,1,.17,1.8,5.563,5.563,0,0,1-1.706,3.546,6.016,6.016,0,0,1-.335,2.847,6.429,6.429,0,0,1-1.568,2.427,5.008,5.008,0,0,1-.592,3.4,4.671,4.671,0,0,1-1.72,1.735,5.592,5.592,0,0,1-.273,1.928,6.178,6.178,0,0,1-1.435,2.4,5.309,5.309,0,0,1-.049,1.878,5.6,5.6,0,0,1-.681,1.762,4.977,4.977,0,0,1-2.979,2.3,2.664,2.664,0,0,1-.629.09,27.185,27.185,0,0,1-1.7,6.985,28.835,28.835,0,0,1-2.006,4.123,28.453,28.453,0,0,1-2.635,3.745,27.364,27.364,0,0,1-3.209,3.26,25.944,25.944,0,0,1-3.727,2.665,24.113,24.113,0,0,1-4.134,1.926,23.379,23.379,0,0,1-4.421,1.1A20.7,20.7,0,0,1,69.781,106.155ZM28.82,71.668a1.138,1.138,0,0,1-1.065-.691,8.16,8.16,0,0,0-1.018-1.7c-.067.094-.127.192-.2.309l-.063.107-.012.02c-.042.072-.086.145-.123.221a1.529,1.529,0,0,1-.054.194l-.007.024A1.618,1.618,0,0,1,25.217,71.2a1.016,1.016,0,0,1-.337.058,1.128,1.128,0,0,1-.717-.275,1.5,1.5,0,0,1-.451-.64,1.354,1.354,0,0,1,.2-1.276,2.67,2.67,0,0,1,1.069-.852,2.406,2.406,0,0,0-2.18.765.115.115,0,0,1-.086.039.137.137,0,0,1-.133-.13,1.939,1.939,0,0,1,.222-1,2.421,2.421,0,0,1,.654-.77,3.511,3.511,0,0,1,1.922-.719c.066,0,.133-.005.2-.005a3.716,3.716,0,0,1,1.408.283,5.076,5.076,0,0,1,1.229.736,10.247,10.247,0,0,1,1.94,2.159,1.141,1.141,0,0,1,.1,1.227A1.7,1.7,0,0,1,28.82,71.668Z" transform="translate(-6.957 1.691)"/>
  </g>
  <g id="FACE" transform="translate(112.183 77.354)">
    <path id="eye" d="M11.662,17.753c5.6,0,10.141-3.974,10.141-8.877S17.262,0,11.662,0,0,3.813,0,8.715a14.066,14.066,0,0,0,3.007,7.228C4.865,18,8.438,17.753,11.662,17.753Z" transform="translate(8.409 16.697)" fill="#fff"/>
    <path id="eye-2" data-name="eye" d="M8.927,16.055A7.9,7.9,0,0,0,16.69,8.027,7.9,7.9,0,0,0,8.927,0C4.64,0,0,3.448,0,7.881a14.03,14.03,0,0,0,2.3,6.537C3.724,16.275,6.459,16.055,8.927,16.055Z" transform="translate(35.282 16.697)" fill="#fff"/>
    <path id="_Ink-3" data-name="ðŸ– Ink" d="M10.559,42.681a1.834,1.834,0,0,1-.715-.149,1.679,1.679,0,0,1-1.022-1.116,2.134,2.134,0,0,1,.4-1.8l.035-.046a13.725,13.725,0,0,0,1.873-3.8c.251-.7.472-1.392.658-2.051.034-.122.061-.246.086-.365a1.723,1.723,0,0,1,.451-1,.151.151,0,0,1,.1-.041.125.125,0,0,1,.066.019,2.4,2.4,0,0,1,.855,1.619,10.767,10.767,0,0,1,.177,2.027c.129.034.259.069.384.1h0c.25.069.486.133.718.184.545.121,1.1.232,1.64.339h.007l.611.123.564.116a44.369,44.369,0,0,0,5.729.839c1.064.081,2,.121,2.85.121a21.651,21.651,0,0,0,2.794-.166,15.065,15.065,0,0,0,2.364-.506,10.244,10.244,0,0,0,1.745-.753c.239-.121.486-.247.742-.366a2.054,2.054,0,0,1,.87-.2,1.837,1.837,0,0,1,1.163.416,1.985,1.985,0,0,1,.66.99,1.672,1.672,0,0,1-.033,1.053,1.869,1.869,0,0,1-.8.927,10.119,10.119,0,0,1-2.986,1.174,21.329,21.329,0,0,1-3.189.481c-.518.043-1.059.065-1.607.065a28.563,28.563,0,0,1-4.571-.41c-1.127-.181-2.23-.41-3.28-.681a31.419,31.419,0,0,1-3.194-1.007,22.519,22.519,0,0,1-2.583-1.18l-.228-.122-.3-.159-.006,0-.123-.065a14.653,14.653,0,0,1-1.156,4.054l-.013-.023a1.911,1.911,0,0,1-.654.976A1.741,1.741,0,0,1,10.559,42.681ZM28.232,31.693a14.371,14.371,0,0,1-3.116-.356,1.455,1.455,0,0,1-1.006-.713,2.046,2.046,0,0,1,.7-2.545,1.337,1.337,0,0,1,.689-.186,1.709,1.709,0,0,1,.538.092,9.78,9.78,0,0,0,2.905.552c.092,0,.185,0,.276,0,.341,0,.679-.015,1-.045.235-.022.477-.052.719-.091-.137-.182-.271-.369-.41-.571-.169-.244-.319-.471-.458-.693a14.764,14.764,0,0,1-1.087-2.114c-.09-.213-.182-.446-.28-.711v0l-.037-.1-.081-.069a5.662,5.662,0,0,1-1.475-1.973,8.721,8.721,0,0,1-.7-3.527,14.02,14.02,0,0,1,.475-3.589A9.182,9.182,0,0,1,28,12.5a8.485,8.485,0,0,1,1.79-2.054,4.663,4.663,0,0,1,.6-.84,7.163,7.163,0,0,1,2.982-1.722,7.509,7.509,0,0,1,2.25-.341,8.139,8.139,0,0,1,2.53.409,8.7,8.7,0,0,1,2.309,1.16,11.127,11.127,0,0,1,2.493,2.441,11.923,11.923,0,0,1,1.675,3.108,10.884,10.884,0,0,1,.648,3.26,9.261,9.261,0,0,1-.449,3.283,7.651,7.651,0,0,1-1.753,2.943,7.157,7.157,0,0,1-2.9,1.822,9.915,9.915,0,0,1-3.2.477,22.361,22.361,0,0,1-3.85-.406c-.568-.1-1.066-.2-1.523-.3a5.67,5.67,0,0,1,1.137,1.006A4.14,4.14,0,0,1,33.87,28.62a1.718,1.718,0,0,1-.49,1.648,5.042,5.042,0,0,1-2.5,1.145A12.547,12.547,0,0,1,28.232,31.693Zm1.452-17.975a10.641,10.641,0,0,0-.59,3.6v.161l0,.165a9,9,0,0,0,.291,2.263,3.771,3.771,0,0,0,1.121,1.906,4.543,4.543,0,0,0,1.861.892,13.51,13.51,0,0,0,2.134.323l1.077.09.286.021c.391.027.734.04,1.049.04a7.619,7.619,0,0,0,1.715-.172,4.32,4.32,0,0,0,1.556-.673A3.758,3.758,0,0,0,41.4,20.868a5.58,5.58,0,0,0,.5-1.853,7.932,7.932,0,0,0-.1-2.273,8.508,8.508,0,0,0-.724-2.181,8.06,8.06,0,0,0-1.284-1.9,7.046,7.046,0,0,0-1.782-1.417,4.839,4.839,0,0,0-2.37-.622,4.926,4.926,0,0,0-1.6.271,5.731,5.731,0,0,0-1.549.874l-.191.145c-.179.137-.354.254-.524.367a3.738,3.738,0,0,0-1.061.928l-.057.082a1,1,0,0,1-.837.431,1.081,1.081,0,0,1-.133-.008ZM13.379,28.14a36.98,36.98,0,0,1-4.519-.319l-.841-.106a16.054,16.054,0,0,1-3.428-.725A6.461,6.461,0,0,1,2.218,25.5a6.887,6.887,0,0,1-1.47-2.2,10.62,10.62,0,0,1-.725-4.748,13.95,13.95,0,0,1,.363-2.437,13.142,13.142,0,0,1,.752-2.242A11.136,11.136,0,0,1,2.549,11.54a12,12,0,0,1,2-2.019A9.78,9.78,0,0,1,6.946,8.1a6.989,6.989,0,0,1,2.62-.537,6,6,0,0,1,.623.032,13.537,13.537,0,0,1,1.753-.128h.121a13.656,13.656,0,0,1,8,2.521,11.776,11.776,0,0,1,1.562,1.358,9.754,9.754,0,0,1,1.263,1.618,7.339,7.339,0,0,1,1.152,3.9,10.09,10.09,0,0,1-.951,4.069,18.063,18.063,0,0,1-2.185,3.6,10.024,10.024,0,0,1-1.494,1.58A8.449,8.449,0,0,1,17.7,27.231a8.6,8.6,0,0,1-1.935.673,10.492,10.492,0,0,1-2.163.235ZM11.961,9.7h0a14.539,14.539,0,0,0-3.412.416,15.47,15.47,0,0,0-3.21,1.164,12.418,12.418,0,0,0-1.765,2.488,11,11,0,0,0-1.035,2.665,10.459,10.459,0,0,0-.268,2.858A9.486,9.486,0,0,0,2.823,22.1a3.967,3.967,0,0,0,1.953,2.243,9.693,9.693,0,0,0,2.948.845l.826.13.346.052a28.4,28.4,0,0,0,4.072.366,12.048,12.048,0,0,0,2.313-.2,5.543,5.543,0,0,0,2.81-1.518,12.188,12.188,0,0,0,1.97-2.582l.052-.087a11.469,11.469,0,0,0,1.381-3.161,6,6,0,0,0,.172-1.686,4.775,4.775,0,0,0-.393-1.687,7.106,7.106,0,0,0-1.861-2.464,10.562,10.562,0,0,0-2.622-1.665,11.052,11.052,0,0,0-2.358-.749A12.638,12.638,0,0,0,11.961,9.7Zm-.08,13.388a5.562,5.562,0,0,1-2.954-.842l.009-.012v0a.283.283,0,0,0,.018-.023,1.014,1.014,0,0,0,.179.016.887.887,0,0,0,.87-.584,2.809,2.809,0,0,0,.135-1.015,2.337,2.337,0,0,0-.252-.948,1.9,1.9,0,0,0-1.164-.952,2.145,2.145,0,0,0-.617-.091,2.234,2.234,0,0,0-.875.181,2.48,2.48,0,0,0-.749.5,6.437,6.437,0,0,1-.391-3.524,5.255,5.255,0,0,1,2.951-3.993,3.578,3.578,0,0,1,1.46-.344,2.776,2.776,0,0,1,.652.078,5.757,5.757,0,0,1,6.035.51,1.688,1.688,0,0,0-.442.14,1.407,1.407,0,0,0-.707.98.9.9,0,0,0,.087.638.877.877,0,0,0,.5.4,2.084,2.084,0,0,0,.626.109,1.06,1.06,0,0,0,1.017-.665l.012-.031.016-.023.006-.01h0a.085.085,0,0,0-.017.022c.011-.025.02-.049.031-.075v0a1.006,1.006,0,0,0,.042-.1c.019-.017.038-.036.055-.054l.005-.005a5.37,5.37,0,0,1,.7,1.588,4.875,4.875,0,0,1,.007,2.366,6.546,6.546,0,0,1-1.007,2.2,8.77,8.77,0,0,1-2.508,2.39,7.357,7.357,0,0,1-3.084,1.144A5.953,5.953,0,0,1,11.881,23.086Zm23.8-1.078a4.408,4.408,0,0,1-2.726-.941.687.687,0,0,0,.194-.151,2.04,2.04,0,0,0,.365-.546c.026-.058.047-.11.066-.158l.031-.08c.016-.047.043-.126.042-.129l0,0,0,.006.017-.039a1.031,1.031,0,0,0,.059-.6.781.781,0,0,0-.339-.49l-.041-.026a.853.853,0,0,0-.427-.105,1.321,1.321,0,0,0-1.058-.493,1.714,1.714,0,0,0-.425.055l-.019-.151c0-.029-.005-.053-.007-.076a5.078,5.078,0,0,1-.161-2.14A5.387,5.387,0,0,1,32,13.86l.06-.095a5.292,5.292,0,0,1,1.094-1.229,2.406,2.406,0,0,1,1.481-.6,1.647,1.647,0,0,1,.417.054,1.8,1.8,0,0,1,.488.21,2.853,2.853,0,0,1,.382-.026,3,3,0,0,1,1.554.439l-.015.04a.15.15,0,0,0-.006.02.928.928,0,0,0,.085.651,1.371,1.371,0,0,0,.505.575.992.992,0,0,0,.492.133h.019a1.019,1.019,0,0,0,.676-.294.808.808,0,0,0,.213-.376,2.589,2.589,0,0,1,.268.3,4.521,4.521,0,0,1,.756,1.559,5.39,5.39,0,0,1-.232,3.462,4.516,4.516,0,0,1-.961,1.446c-.056.055-.115.107-.173.157l0,0-.032.028a4.094,4.094,0,0,1-2.94,1.674A4.424,4.424,0,0,1,35.683,22.009ZM1.695,9a.094.094,0,0,1-.067-.03A.08.08,0,0,1,1.6,8.914a3.876,3.876,0,0,1,.736-1.9,14.288,14.288,0,0,1,1.32-1.609l0,0a16.17,16.17,0,0,1,3.476-2.85A18.8,18.8,0,0,1,11.315.636,17.324,17.324,0,0,1,13.666.069L13.8.048a4.208,4.208,0,0,1,.6-.048,2.1,2.1,0,0,1,1.814.957,1.465,1.465,0,0,1,0,1.492A1.976,1.976,0,0,1,15,3.423a7.657,7.657,0,0,1-1.678.271,9.913,9.913,0,0,0-1.123.14A18.965,18.965,0,0,0,8.387,5.007,24.768,24.768,0,0,0,4.848,6.939c-.347.226-.69.5-1.021.756A7.3,7.3,0,0,1,1.718,9,.074.074,0,0,1,1.695,9Zm39.662-1.45h0A1.846,1.846,0,0,1,40.173,7.1l-.453-.375-.29-.238A18.326,18.326,0,0,0,35.252,3.75,28.02,28.02,0,0,0,29.8,2.128h0l-.255-.057a.126.126,0,0,1-.086-.079.119.119,0,0,1,.009-.111A3.049,3.049,0,0,1,30.989.749a5.955,5.955,0,0,1,2.02-.31A11.731,11.731,0,0,1,35.93.848a16.378,16.378,0,0,1,3.613,1.441,11.624,11.624,0,0,1,3.075,2.365,1.665,1.665,0,0,1,.356,1.841A1.8,1.8,0,0,1,41.356,7.553Z" transform="translate(7.606 7.609)"/>
  </g>
</svg>
