<svg id="peep-84" xmlns="http://www.w3.org/2000/svg" width="240" height="324" viewBox="0 0 240 324">
  <g id="BODY" transform="translate(31.056 135.053)">
    <path id="_Skin" data-name="âœ‹ Skin" d="M17.631,161.246c12.936.362,25.157.762,38.068,0,20.661-1.278,81.295,1.026,94.622,0,1.006-.077,4.465,1.026,4.537,0,.586-7.145.966-79.435-.775-84.409S143.75,47.953,132.8,36.8c-3.053-3.012-7.7-4.179-10.264-7.66-2.213-3.8-2.041-6.024-4.226-8.021-.948-.867-3.184-1.218-4.846-2.421-1.671-1.661-.089-5.317-.775-7.63C111.279,5.3,106.072,1.591,100.381.718c-7.91-1.894-16.261-.1-20.05,6.113-1.41,2.314-.66,5.126-2.394,8.834.124,2.8-3.146,3.479-5.1,4.589l-3.881,3.924C57,30.908,42.93,34.543,32.452,43.586c-8.908,9.04-17.768,19.489-21.72,31.72A72.809,72.809,0,0,0,9.308,85.488C8.34,95.44,5.644,105.1,3.324,114.794.679,127.007-1.786,139.973,1.778,152.3,2.806,154.911,15.291,161.124,17.631,161.246Z" transform="translate(2.815 -11.413)" fill="#d08b5b"/>
    <path id="Path" d="M77.951,0l1.01.108V7.89L92.172,21.638,94.586,24.4q-2.159,7.7,4.348,7.7c6.507,0,1.476-1.891,2.7-4.451l.052-.1q1.33-2.629,9.106-11.152l5.946-9.943V4.633l.2.082a4.814,4.814,0,0,1,1.375.773c2.185,2,2.013,4.225,4.226,8.021,2.566,3.481,7.211,4.648,10.264,7.66,10.948,11.15,19.54,35.06,21.28,40.034s1.361,77.264.775,84.409c-.072,1.026-3.531-.077-4.537,0-13.328,1.026-73.961-1.278-94.622,0-12.911.762-25.132.362-38.068,0-2.34-.122-14.824-6.335-15.852-8.945-3.565-12.329-1.1-25.295,1.546-37.508l.229-.953C5.78,88.991,8.285,79.8,9.259,70.344l.049-.489a72.809,72.809,0,0,1,1.424-10.183c3.952-12.231,12.813-22.68,21.72-31.72C42.825,19,56.716,15.348,68.6,8.745l.359-.2L72.836,4.62l.119-.066c1.965-1.072,5.1-1.777,4.982-4.523L77.951,0Z" transform="translate(2.747 4.225)" fill="#fdea6b"/>
    <path id="_Ink" data-name="ðŸ– Ink" d="M23.716,154.549c-1.768,0-3.338-.057-4.8-.173A35.1,35.1,0,0,1,13.7,153.6a20.615,20.615,0,0,1-4.945-1.8A14.327,14.327,0,0,1,5.042,149c.252-.147.51-.295.759-.438l.014-.008c.811-.466,1.65-.948,2.447-1.469a.838.838,0,0,0,.35-.447.874.874,0,0,0,0-.515.843.843,0,0,0-.765-.638.794.794,0,0,0-.437.141c-.793.52-1.629,1-2.437,1.463-.34.2-.691.4-1.034.6a15.679,15.679,0,0,1-2.053-3.709A27.419,27.419,0,0,1,.463,137.33,64.393,64.393,0,0,1,0,129.358,112.81,112.81,0,0,1,1.411,112.64c.827-5.573,1.942-11.115,2.924-15.8l.15-.715c.212-1.007.425-2.032.632-3.023l0-.019C5.969,89.01,6.846,84.8,7.844,80.688c1.241-5.111,2.568-9.71,4.058-14.059.6.373,1.229.733,1.835,1.08.807.463,1.641.942,2.433,1.46a.793.793,0,0,0,.437.141.843.843,0,0,0,.765-.639.874.874,0,0,0,0-.515.828.828,0,0,0-.351-.447c-.794-.52-1.629-1-2.437-1.464h0c-.7-.4-1.419-.816-2.11-1.254.907-2.537,1.882-5,2.9-7.32,1.074-2.456,2.231-4.838,3.437-7.081a75.752,75.752,0,0,1,8.8-13.014A65.6,65.6,0,0,1,33.016,31.9a59.858,59.858,0,0,1,12.855-9.134,59.365,59.365,0,0,1,7.244-3.229,54.228,54.228,0,0,1,7.719-2.189,64.151,64.151,0,0,1,7.946-1.108H68.8a.2.2,0,0,1,.144.062.274.274,0,0,1,.07.2l0,.024.211.034a3.712,3.712,0,0,1,.545-1.515,7.816,7.816,0,0,1,2.6-2.129c.167-.1.324-.2.479-.293l.25-.156a12.148,12.148,0,0,1,4.045-1.82h.011a.051.051,0,0,1,.047.029.053.053,0,0,1-.01.057,17.421,17.421,0,0,1-2.409,2.151c-.3.239-.617.486-.917.734l-.26.217c-.111.091-.224.182-.345.278-.891.712-1.9,1.52-1.932,2.656a20.878,20.878,0,0,0,.212,2.97v0c.064.54.131,1.1.171,1.638.114,1.529.191,3.053.23,4.529a141.3,141.3,0,0,1-.509,16.245l2.121-1.421c3.36-2.25,6.652-4.439,9.993-6.484a18.672,18.672,0,0,1,3.17-1.6,9.762,9.762,0,0,1,3.463-.679l.162,0a8.766,8.766,0,0,1,2.206.323c-.46-.436-.915-.894-1.354-1.336-.326-.328-.663-.667-1-.993l-.019-.018c-1.26-1.227-2.563-2.5-3.854-3.752L82.6,22.565l-3.723-3.627c-.131-.128-.267-.257-.4-.382l0,0a9.629,9.629,0,0,1-1.421-1.558,3.418,3.418,0,0,1-.441-.916A2.97,2.97,0,0,1,76.489,15a10.867,10.867,0,0,1,.91-3.15c.137-.343.278-.7.4-1.041.066-.186.129-.376.192-.583.487-1.62.877-3.3,1.255-4.915.392-1.682.8-3.421,1.31-5.1A.276.276,0,0,1,80.826,0a.32.32,0,0,1,.316.291,27.737,27.737,0,0,1,.032,4.85c-.116,1.645-.323,3.266-.524,4.834-.062.485-.116.982-.168,1.463-.114,1.048-.232,2.131-.434,3.161-.035.15-.072.313-.108.484a1.6,1.6,0,0,0,.357.358c.063.052.121.1.165.142l.6.58,1.2,1.157,3.814,3.7.022.021,3.18,3.082L92.7,27.449c.353.342.725.684,1.085,1.016a24.469,24.469,0,0,1,2.462,2.491,2.076,2.076,0,0,1,.484,1.121,1.662,1.662,0,0,1-.349,1.157,1.884,1.884,0,0,1-1.259.687,2.911,2.911,0,0,1,.439.918,1.054,1.054,0,0,1-.2.908.954.954,0,0,1-.75.405.835.835,0,0,1-.3-.058,8.2,8.2,0,0,1-1.112-.562,7,7,0,0,0-1.3-.626,5.584,5.584,0,0,0-1.731-.269,5.975,5.975,0,0,0-.988.083,8.206,8.206,0,0,0-1.215.3,35.759,35.759,0,0,0,6.569,2.282,34.614,34.614,0,0,0,6.9.943c.332.011.667.017.994.017.623,0,1.245-.021,1.85-.061A26.556,26.556,0,0,0,109,37.471a28.746,28.746,0,0,0,3.6-1.156,18.334,18.334,0,0,0,1.692-.765l.048-.029.183-.107.007,0a15.78,15.78,0,0,0,2.269-1.464.564.564,0,0,0-.035-.434.746.746,0,0,0-.282-.288,5.822,5.822,0,0,0-2.219-.591h-.021c-1.607,0-3.348,1.075-4.747,1.939l-.435.267c-1.071.652-2.1,1.389-3.1,2.1l0,0c-.511.365-1.039.743-1.567,1.105a.2.2,0,0,1-.114.036.259.259,0,0,1-.218-.14.211.211,0,0,1,.007-.222,14.789,14.789,0,0,1,1.929-2.275,23.8,23.8,0,0,1,2.274-1.938l.636-.477a22.576,22.576,0,0,1,2.329-1.573,7.468,7.468,0,0,1,2.563-.959,4.58,4.58,0,0,1,.665-.048,7.087,7.087,0,0,1,2.263.427c.749.253,1.484.586,2.194.907h0c.416.188.81.366,1.2.524l3.4,1.393c.235.1.482.188.722.277h0c.383.143.779.29,1.153.462l-1.425-4.461c-.636-1.993-1.386-4.348-2.126-6.7l-.137-.437c-.085-.274-.17-.555-.253-.827l0-.009a29.153,29.153,0,0,0-2.255-5.86c-.249-.443-.534-.869-.81-1.282l-.021-.031-.082-.123a4.782,4.782,0,0,1-.329-.606,3.162,3.162,0,0,0-.533-.857,6.807,6.807,0,0,0-3.1-1.7.217.217,0,0,1-.169-.233.261.261,0,0,1,.233-.234,5.268,5.268,0,0,1,.55-.029,6.361,6.361,0,0,1,2.721.658l.43.205.115.054a7.249,7.249,0,0,1,2.543,1.67,12.988,12.988,0,0,1,1.978,3.15,34.528,34.528,0,0,1,1.329,3.5l.211.633a.306.306,0,0,1,.091-.01,7.292,7.292,0,0,1,1.329.285,8.45,8.45,0,0,1,1.137.386,32.38,32.38,0,0,1,5.327,2.877,36.089,36.089,0,0,1,4.694,3.744,45.4,45.4,0,0,1,7.554,9.444,63,63,0,0,1,5.593,12.09c1.609,4.585,2.809,9.268,3.675,12.837.627,2.582,1.25,5.272,1.854,7.994-.918.354-1.872.653-2.795.943a25.028,25.028,0,0,0-5.121,2.036.769.769,0,0,0-.379.9.886.886,0,0,0,.811.676.836.836,0,0,0,.421-.12,23.339,23.339,0,0,1,4.834-1.911c.856-.266,1.741-.542,2.593-.866,1.394,6.419,2.584,12.693,3.538,18.648.787,4.906,1.486,9.76,2.079,14.427.625,4.922,1.152,9.8,1.567,14.51.435,4.931.76,9.83.967,14.559.216,4.931.31,9.835.28,14.574a2.783,2.783,0,0,1-.363,1.321.732.732,0,0,0,.307-.245,1.074,1.074,0,0,1,.925-.526,1.265,1.265,0,0,1,1.087.629.985.985,0,0,1-.062,1.038l-.114.178a7.773,7.773,0,0,1-.918,1.2,4.428,4.428,0,0,1-1.253.908,5.618,5.618,0,0,1-1.619.5,12.862,12.862,0,0,1-1.7.134c-3.542.093-7.377.165-11.726.218-.2-1.587-.364-3.207-.519-4.773h0c-.254-2.563-.516-5.213-.974-7.794a.686.686,0,0,0-.707-.611.99.99,0,0,0-.74.346.846.846,0,0,0-.183.714c.459,2.582.721,5.233.975,7.8h0c.141,1.424.287,2.9.465,4.342-6.664.072-13.439.087-19.992.1l-5.086.012c-4.033.012-8.282.017-13.372.017-4.224,0-8.514,0-12.664-.008H96.04l-7.892-.006-4.852,0c-13.131,0-26.331-.043-39.232-.129l-3.11-.022c-.669-3.943-1.161-7.538-1.506-10.99-.389-3.9-.582-7.522-.589-11.079a.78.78,0,0,0-.266-.612.891.891,0,0,0-.582-.2.879.879,0,0,0-.622.243.789.789,0,0,0-.221.574c.007,3.554.2,7.175.583,11.071.341,3.456.829,7.05,1.491,10.988-.69,0-1.327,0-1.948,0-2.853,0-5.186.036-7.34.112l-1.576.056C26.988,154.5,25.346,154.549,23.716,154.549ZM128.1,141.609a.921.921,0,0,0-.818.574.77.77,0,0,0,.186.87l.407.406a10.456,10.456,0,0,1,1.826,2.218l.069.127a.73.73,0,0,0,.66.423.955.955,0,0,0,.787-.456.808.808,0,0,0,.012-.82,12.686,12.686,0,0,0-2.4-2.925l-.168-.168A.79.79,0,0,0,128.1,141.609Zm-36.055-.32a19.148,19.148,0,0,0-3.632.351.736.736,0,0,0-.489.3.758.758,0,0,0-.117.5.9.9,0,0,0,.874.846.965.965,0,0,0,.18-.018,16.642,16.642,0,0,1,6.365,0,.963.963,0,0,0,.18.017.828.828,0,0,0,.611-.265,1,1,0,0,0,.264-.581.756.756,0,0,0-.117-.5.737.737,0,0,0-.489-.3A19.148,19.148,0,0,0,92.045,141.29Zm-29.7-16.722a.85.85,0,0,0-.816.783.832.832,0,0,0,.1.533.777.777,0,0,0,.49.344l.519.13a14.693,14.693,0,0,0,3.556.542,7.916,7.916,0,0,0,1.728-.185.756.756,0,0,0,.49-.321.8.8,0,0,0,.111-.518.981.981,0,0,0-.259-.562.8.8,0,0,0-.587-.253.931.931,0,0,0-.163.015l-.042.008a6.067,6.067,0,0,1-1.325.141,13.384,13.384,0,0,1-3.311-.56l-.269-.068a.928.928,0,0,0-.228-.029Zm58.448-11.2a.855.855,0,0,0-.5.168.961.961,0,0,0-.329.412.757.757,0,0,0,.2.858,5.231,5.231,0,0,0,3.518,1.709h.029a.751.751,0,0,0,.578-.242.86.86,0,0,0,.208-.544.925.925,0,0,0-.18-.595.788.788,0,0,0-.587-.308l-.048,0a2.641,2.641,0,0,1-1.27-.381,5.4,5.4,0,0,1-1.053-.832A.8.8,0,0,0,120.8,113.372Zm-99.365-5.83h0a.878.878,0,0,0-.395.1L15.2,110.561a.713.713,0,0,0-.407.837.931.931,0,0,0,.865.721.878.878,0,0,0,.4-.1l5.841-2.922a.712.712,0,0,0,.407-.836.931.931,0,0,0-.865-.721Zm115.852,1.93a.749.749,0,0,0-.586.251.867.867,0,0,0-.2.558.915.915,0,0,0,.2.6.8.8,0,0,0,.616.287,7.419,7.419,0,0,1,2.981.858.886.886,0,0,0,.389.093.938.938,0,0,0,.876-.73.7.7,0,0,0-.411-.824,12.757,12.757,0,0,0-1.862-.747,7.439,7.439,0,0,0-1.971-.342ZM82.323,99.7h0a.779.779,0,0,0-.441.147c-.673.457-1.321.968-1.949,1.462-.522.411-1.062.836-1.612,1.228l-.333.232a.849.849,0,0,0-.346.458.9.9,0,0,0,.007.522.834.834,0,0,0,.751.627.78.78,0,0,0,.441-.147c.672-.457,1.32-.967,1.946-1.46h0c.627-.494,1.275-1,1.947-1.461a.849.849,0,0,0,.346-.458.9.9,0,0,0-.007-.522.834.834,0,0,0-.751-.627Zm63.936-8.993a5.611,5.611,0,0,1,2.214.331l.1.043a.893.893,0,0,0,.382.089.879.879,0,0,0,.577-.225.974.974,0,0,0,.31-.513.691.691,0,0,0-.416-.81,8.6,8.6,0,0,0-3.834-.6.778.778,0,0,0-.612.264.889.889,0,0,0-.2.581.8.8,0,0,0,.816.845h.671Zm-94.55-4.633a.861.861,0,0,0-.291.054,12.712,12.712,0,0,0-3.133,1.838h0c-.312.226-.635.459-.962.681a.849.849,0,0,0-.346.458.9.9,0,0,0,.007.522.834.834,0,0,0,.751.627.78.78,0,0,0,.44-.147c.335-.228.67-.478.994-.72a11.277,11.277,0,0,1,2.556-1.577l.142-.053a.844.844,0,0,0,.483-.417.947.947,0,0,0,.079-.582A.761.761,0,0,0,51.709,86.075ZM114.9,81.729a.871.871,0,0,0-.4.1c-.422.217-.826.478-1.217.73-.32.207-.651.42-.989.609l-.228.122a.723.723,0,0,0-.4.849.972.972,0,0,0,.3.5.829.829,0,0,0,.551.215.871.871,0,0,0,.4-.1c.421-.217.825-.478,1.215-.73.321-.207.652-.421.991-.609l.228-.122a.723.723,0,0,0,.4-.85.972.972,0,0,0-.3-.5A.829.829,0,0,0,114.9,81.729ZM88.671,66.624a.924.924,0,0,0-.825.578.76.76,0,0,0,.193.861A34.7,34.7,0,0,0,94.6,72.811l.422.254a.823.823,0,0,0,.426.126.763.763,0,0,0,.506-.2.97.97,0,0,0,.293-.468.825.825,0,0,0-.011-.5.8.8,0,0,0-.36-.422l-.619-.372c-.991-.6-2.045-1.246-3.042-1.939a23.277,23.277,0,0,1-2.808-2.257l-.174-.168A.8.8,0,0,0,88.671,66.624ZM41.892,64.25h0a.883.883,0,0,0-.69.325l-.023.029a16.688,16.688,0,0,1-2.338,2.42l-.159.136c-.078.067-.171.149-.26.228a4.2,4.2,0,0,1-1.868,1.179.886.886,0,0,0-.81.959.715.715,0,0,0,.725.736c.027,0,.056,0,.084,0a5.581,5.581,0,0,0,2.808-1.479l.056-.045a19.144,19.144,0,0,0,3.22-3.277.662.662,0,0,0,.1-.721.96.96,0,0,0-.849-.487Zm90.032-6.383h0a.808.808,0,0,0-.535.21l-.028.025a10.175,10.175,0,0,1-4.811,2.058c-.216.051-.439.1-.658.159a.773.773,0,0,0-.49.34.828.828,0,0,0-.105.531.853.853,0,0,0,.821.788.935.935,0,0,0,.224-.028l.861-.212a20.653,20.653,0,0,0,2.844-.877,8.067,8.067,0,0,0,2.509-1.563.742.742,0,0,0,.206-.844.942.942,0,0,0-.838-.587ZM98.856,48.6a.849.849,0,0,0-.815.782.833.833,0,0,0,.1.534.778.778,0,0,0,.491.345,26.089,26.089,0,0,1,5.152,1.863.883.883,0,0,0,.391.1.935.935,0,0,0,.871-.726.707.707,0,0,0-.41-.829,28.1,28.1,0,0,0-5.556-2.033.928.928,0,0,0-.228-.03ZM48.708,30.553h0a.706.706,0,0,0-.466.184.97.97,0,0,0-.283.441.9.9,0,0,0-.008.523.852.852,0,0,0,.345.46c.592.4,1.166.846,1.722,1.274a21.579,21.579,0,0,0,3.145,2.135.867.867,0,0,0,.4.1.825.825,0,0,0,.542-.209.975.975,0,0,0,.306-.485.723.723,0,0,0-.363-.851l-.034-.018a21.615,21.615,0,0,1-3.145-2.134c-.557-.428-1.132-.87-1.723-1.274a.777.777,0,0,0-.441-.148Zm53.77,5.43h0a1.624,1.624,0,0,1-.2-.012,1.957,1.957,0,0,1-.952-.379,1.687,1.687,0,0,1-.564-.746,1.592,1.592,0,0,1,.365-1.657,12.08,12.08,0,0,1,1.516-1.34c.336-.265.683-.539.994-.822.769-.7,1.547-1.443,2.313-2.223a53.41,53.41,0,0,0,4.316-4.965c1.423-1.867,2.612-3.575,3.634-5.22l.222-.361c.182-.3.416-.631.664-.982a13.609,13.609,0,0,0,1.3-2.095,2.969,2.969,0,0,0,.264-2.19.1.1,0,0,1,.017-.093.108.108,0,0,1,.086-.047.09.09,0,0,1,.03.005,1.572,1.572,0,0,1,.937.837,2.976,2.976,0,0,1,.031,1.877,13.978,13.978,0,0,1-.65,1.919l-.019.047-.107.272a36.685,36.685,0,0,1-3.621,6.839,57.689,57.689,0,0,1-4.878,6.381c-.76.862-1.563,1.717-2.388,2.54l-.31.307c-.139.136-.283.288-.435.449a9.837,9.837,0,0,1-1.177,1.112A2.326,2.326,0,0,1,102.479,35.983Z" transform="translate(1.901 -3.8)"/>
  </g>
  <g id="HEAD" transform="translate(78.592 38.043)">
    <path id="_Skin-2" data-name="âœ‹ Skin" d="M73.9,6.274c-12.677-8.412-38.074-7.5-52.03-2.345C8.253,8.258,3.486,20.321,1.225,33.354-1.523,48-1.153,69.115,18.608,68.86c2.778,1.347,5.856,1.931,8.731,3.047,3.934,1.364,7.792,2.947,11.784,4.141a32.1,32.1,0,0,0,24.072-1.4c4.121-2,5.827-5.1,8.522-8.415C79.557,56.6,83.5,42.813,83.149,30.562,82.529,21.936,81.106,11.95,73.9,6.274Z" transform="translate(8.222 27.898)" fill="#d08b5b"/>
    <path id="_Ink-2" data-name="ðŸ– Ink" d="M103.434,59.114c-1.3-8.095-1.661-16.327-3.365-24.358-1.6-7.558-4.6-14.7-9.833-20.461A43.623,43.623,0,0,0,72.994,2.956C60.328-1.717,45.76-.661,33.507,4.795A52.839,52.839,0,0,0,7.559,30.674,69.652,69.652,0,0,0,1.58,53.946C.722,62.922.629,71.991.279,81c-.042,1.112-.1,2.223-.118,3.335a9.832,9.832,0,0,0,.875,3.417.971.971,0,0,0,.116.228c-.3.038-.6.082-.9.131-.337.053-.323.6,0,.668a54.993,54.993,0,0,0,8.313.774c2.878.144,5.76.222,8.642.319l8.431.285q2.214.076,4.427.15l2.108.072,1.052.036c.285.008.748.19.778-.019a.785.785,0,0,0,.171.078,1.612,1.612,0,0,1,.2.125,1.187,1.187,0,0,0,1.212,0l.1-.061a1.284,1.284,0,0,0,.542-.632,1.631,1.631,0,1,0,2.519-2.063c-.793-.993-8.677-25.347-5.414-43.9l13.088-1.737c2.393-.243,6.845-.727,6.845-.727s1.09-3.565,1.4-4.713c.023-.085.046-.171.072-.256q.468.828.942,1.651l1.615,3.291s23.836-.4,29.68-.361a79.232,79.232,0,0,1,.356,10.259c-.43,6.3-.888,12.592-1.524,18.874A44.056,44.056,0,0,1,82.954,81.9c-2.3,5.856-9,11.422-15.522,11.422-4.062,0-13.24-3.3-14.576-3.964a1.046,1.046,0,1,0-.915,1.879c2.467,1.473,9.269,4.6,15.491,4.6,9.036,0,15.858-8.6,16.695-9.828a162.574,162.574,0,0,1,24.862.575,1.111,1.111,0,0,0,1.063-1.4A152.9,152.9,0,0,1,103.434,59.114Z" transform="translate(-5.271 10.568)"/>
  </g>
  <g id="FACE" transform="translate(112.183 77.354)">
    <path id="_Ink-3" data-name="ðŸ– Ink" d="M15.766,30.485a.1.1,0,0,1-.091-.078.092.092,0,0,1,.045-.107A25.859,25.859,0,0,1,20.6,28.584l.148-.041c2.109-.588,3.86-1.029,5.511-1.388,1.806-.393,3.622-.675,5-.876-.01-.024-.024-.061-.036-.1A7.787,7.787,0,0,1,31,24.343c-.007-.147-.014-.3-.023-.445l-.026-.4a4.974,4.974,0,0,1,.223-2.382.136.136,0,0,1,.109-.061c.265,0,.685.819.935,1.308.083.163.149.291.184.34l.007.01a6.063,6.063,0,0,1,1.308,3.126c0,.032,0,.063,0,.092,1.206-.166,2.222-.309,3.255-.467a1.011,1.011,0,0,1,.623-.2,2.152,2.152,0,0,1,.952.265,1.219,1.219,0,0,1,.6.654,1.431,1.431,0,0,1,.045.849,1.581,1.581,0,0,1-.459.8,1.271,1.271,0,0,1-.871.342h-.032c-.3-.007-.6-.011-.907-.011a83.036,83.036,0,0,0-9.569.748l-.644.075c-1.782.208-3.7.443-5.634.75-.448.071-.908.151-1.352.229h0a31.093,31.093,0,0,1-3.956.518Zm10.052-9.3h0a7.374,7.374,0,0,1-2.63-.53A13.281,13.281,0,0,1,20.094,18.9a1.189,1.189,0,0,1-.432-.687,1.423,1.423,0,0,1,.061-.771,1.754,1.754,0,0,1,.521-.753,1.267,1.267,0,0,1,.811-.317,1.151,1.151,0,0,1,.628.193l.209.161,0,0a16.743,16.743,0,0,0,1.936,1.347,4.768,4.768,0,0,0,2.321.74,2.505,2.505,0,0,0,.981-.193,2.74,2.74,0,0,0,.913-.647,2.8,2.8,0,0,0,.531-2.255,4.26,4.26,0,0,0-1.13-2,8.241,8.241,0,0,0-1.711-1.381.531.531,0,0,1-.143-.61.8.8,0,0,1,.264-.38.809.809,0,0,1,.5-.167,1.076,1.076,0,0,1,.182.016,5.736,5.736,0,0,1,2.018.729,4.578,4.578,0,0,1,1.357,1.252,4.974,4.974,0,0,1,.866,3.322,5.475,5.475,0,0,1-.444,1.744,5.087,5.087,0,0,1-1,1.5A4.779,4.779,0,0,1,25.817,21.183ZM11.387,10.412a1.776,1.776,0,0,1-.882-.222,1.25,1.25,0,0,1-.576-.682,2.872,2.872,0,0,1-.226-1.6,9.4,9.4,0,0,1,.339-1.626l.021-.075c-1.592-.379-3.223-.717-4.8-1.045C3.559,4.809,1.8,4.443.085,4.027A.122.122,0,0,1,0,3.9a.1.1,0,0,1,.085-.1,35.985,35.985,0,0,1,5.469-.385c.822,0,1.693.023,2.587.067,1.388.069,2.793.174,4.177.311.735.073,1.467.155,2.174.243.164.021.356.064.558.11a4.6,4.6,0,0,0,.959.152,1.114,1.114,0,0,0,.3-.035,2.013,2.013,0,0,1,.532-.072,2.084,2.084,0,0,1,1.641.831,2.011,2.011,0,0,1,.349,1.764,1.965,1.965,0,0,1-.752,1.1,2.045,2.045,0,0,1-1.2.374,2.212,2.212,0,0,1-1.367-.477c-.548-.193-1.095-.374-1.626-.538a2.21,2.21,0,0,1-.189.506c-.1.2-.2.38-.278.557v0s-.067.175-.12.3l-.012.029-.117.3a2.131,2.131,0,0,1-.984,1.3A1.818,1.818,0,0,1,11.387,10.412Zm20.672-.363h0a1.54,1.54,0,0,1-1.091-.524,1.109,1.109,0,0,1-.3-.868c.012-.1.022-.192.034-.293.02-.177.04-.359.066-.541a2.158,2.158,0,0,1-.683.107,2.526,2.526,0,0,1-1.065-.241,2.3,2.3,0,0,1-.846-.665,2.386,2.386,0,0,1-.416-1.948,2.083,2.083,0,0,1,1.062-1.436,8.215,8.215,0,0,1,2.1-.664c.255-.056.518-.114.777-.18.959-.246,1.928-.532,2.881-.852.818-.275,1.646-.571,2.446-.857l.351-.126c.488-.175.941-.324,1.383-.456.076-.022.163-.058.256-.1a1.82,1.82,0,0,1,.477-.149A.43.43,0,0,1,39.868,0a.521.521,0,0,1,.412.24A.7.7,0,0,1,40.4.779a1.553,1.553,0,0,1-.244.575,6.173,6.173,0,0,1-.88,1l0,0-.116.114-.048.048a19.446,19.446,0,0,1-3.724,2.794c-.3.184-.6.357-.836.487a2.906,2.906,0,0,1,.138.32,2.936,2.936,0,0,1,.024,1.8,3.275,3.275,0,0,1-.983,1.508A2.561,2.561,0,0,1,32.059,10.049Z" transform="translate(10.352 18.176)"/>
  </g>
</svg>
