<svg id="peep-10" xmlns="http://www.w3.org/2000/svg" width="240" height="324" viewBox="0 0 240 324">
  <g id="BODY" transform="translate(31.056 135.053)">
    <path id="_Skin" data-name="âœ‹ Skin" d="M76.936,48.1C75.1,40.953,73.4,37.924,70.13,35.441c-3.06-2.322-7.526-4.273-14.043-5.7-6.788-1.187-6.98-4.716-8.682-10.387a2.459,2.459,0,0,0-4.019-.93,4.878,4.878,0,0,0-.467-.443c.145-.813-1.039-3.144-1-3.922.413-8.119-2.242-12.2-8.869-13.711C31.609.021,21.821-.173,20.415.215,14.273,1.914,8.225,7.307,9.151,13.8a12.022,12.022,0,0,1-6.79,4.871C-2.272,19.264.055,84.909,8.1,124.238c3.452,16.874,86-11.846,82.267-20.3.529-1.549-.435-3.252,0-4.851.315-1.158,1.121-1.637,1.527-2.783.571-1.613-.05-3.777-.693-5.423-.263-.82.485-1.7.693-2.541.986-3.949-1.272-3.6-2.9-6.24.024-.008.448-1.893.446-1.883a7.611,7.611,0,0,0-.92-4.192,1.978,1.978,0,0,0-1.941-1.147,71.442,71.442,0,0,1,2.861-7.492c1.9-4.552,3.7-9.313,6.43-13.433,1.116-1.687.215-3.239-1.592-3.354A110.369,110.369,0,0,1,76.936,48.1Z" transform="translate(73.086 -6.552)" fill="#d08b5b"/>
    <path id="_Device" data-name="ðŸ“± Device" d="M13.348,0,0,22.6a19.273,19.273,0,0,1,4.448.932c1.281.616,7.165,8.1,7.165,8.1l.935,4.12-2.215,3.322.864,2.086a6.793,6.793,0,0,1,2.151-2.51c1.535-1.1,4.919-2.9,4.919-2.9s-1.125-.6-1.125-1.308-.991-3.721,1.125-4.859,13.046-3.8,13.046-3.8L42.39,2.4Z" transform="translate(127.546 42.096)" fill="#ec7495"/>
    <path id="_Top" data-name="ðŸ‘• Top" d="M73.418,0,115.8,7.441l19.483,9.172,3.18,2.451-18.85,33.352L90.507,57.727,83.092,76.993l1.514,21.717,47.351-5.647,20.425-2.428,4.8,19.389L156.315,118l-1.262,4.045L104.419,135.72s-25.784-2.5-30.354-2.5-38.082,3.329-38.082,3.329l-7.754-.829S11.075,117.634,8.414,111.2,0,65.635,0,65.635l.634-6.012L15.455,21.471a48.914,48.914,0,0,0,4.474-4.859C22.424,13.551,73.418,0,73.418,0Z" transform="translate(7.933 12.277)" fill="#9ddadb"/>
    <path id="_Ink" data-name="ðŸ– Ink" d="M128.4,148.694h0a46.955,46.955,0,0,1-4.837-.257c-1.814-.188-3.65-.434-5.427-.671h0c-2.054-.274-4.178-.558-6.278-.755-2.161-.2-4.417-.365-6.9-.494.162-.324.33-.649.493-.964v0c.126-.243.255-.493.381-.741a.822.822,0,0,0-.025-.828.958.958,0,0,0-.782-.454.716.716,0,0,0-.652.428c-.135.266-.274.535-.409.8-.283.547-.575,1.112-.842,1.679-3.234-.137-6.655-.2-10.459-.2-5.577,0-11.244.146-16.724.286-2.28.059-4.638.119-6.972.169-2.264.048-4.565.089-6.791.129H62.14c-4.947.089-10.063.181-15.1.348-2.088.069-4.214.154-6.271.237h-.017c-1.322.053-2.689.108-4.034.158-.2-.626-.415-1.257-.626-1.867-.085-.247-.182-.528-.274-.8a.829.829,0,0,0-.816-.583.908.908,0,0,0-.735.351.72.72,0,0,0-.078.681c.093.275.189.553.282.821v0c.164.476.334.968.493,1.454-3.6.122-6.37.176-8.981.176h-.655a.822.822,0,0,1-.258-.04l-.016.1-.006.04-.009.057a.025.025,0,0,1-.026.021.033.033,0,0,1-.021-.008.028.028,0,0,1-.01-.022c0-.072,0-.146,0-.222a.938.938,0,0,1-.539-.607,6.372,6.372,0,0,1-.1-2.64,3.4,3.4,0,0,0-.87-1.184,7.61,7.61,0,0,0-2.489-1.189,12.3,12.3,0,0,1-1.637-.643,19.415,19.415,0,0,1-2.877-1.811,24.281,24.281,0,0,1-4.859-4.975,35.106,35.106,0,0,1-2.136-3.228c-.629-1.072-1.235-2.228-1.8-3.434a59.529,59.529,0,0,1-2.793-7.231c-.779-2.435-1.475-5-2.07-7.614-.571-2.512-1.062-5.138-1.46-7.806A127.886,127.886,0,0,1,.029,89.578a105.905,105.905,0,0,1,.51-13.146,35.3,35.3,0,0,1,3.136-1.806.719.719,0,0,0,.4-.845.973.973,0,0,0-.3-.5.834.834,0,0,0-.554-.217.874.874,0,0,0-.4.1c-.666.339-1.335.711-2.045,1.137A104.46,104.46,0,0,1,3.671,59.529,101,101,0,0,1,8.7,45.336c1.2-2.728,2.339-5.074,3.47-7.172a58.308,58.308,0,0,1,4.238-6.8,14.9,14.9,0,0,1,3.41.615.89.89,0,0,0,.266.043.8.8,0,0,0,.761-.725.9.9,0,0,0-.09-.562.816.816,0,0,0-.488-.387,15.039,15.039,0,0,0-2.655-.563,38.731,38.731,0,0,1,2.949-3.294,34.863,34.863,0,0,1,3.68-3.158,40.061,40.061,0,0,1,4.046-2.643,47.5,47.5,0,0,1,4.324-2.179c1.425-.631,2.943-1.226,4.514-1.768a123.145,123.145,0,0,1,19.7-4.537c.62-.105,1.24-.2,1.84-.3a34.421,34.421,0,0,0,7.616-1.787,12.958,12.958,0,0,0,3.279-1.9A12.55,12.55,0,0,0,72.317,5.1a.9.9,0,0,1,.737-.411.693.693,0,0,1,.389.115c.134.089.312.208.494.332l.014-.04.011-.032a20.612,20.612,0,0,0,.652-2.913C74.727,1.5,74.843.829,75,.168A.209.209,0,0,1,75.215,0a.266.266,0,0,1,.247.168,7.365,7.365,0,0,1,.4,2.844,12.015,12.015,0,0,1-.552,3.08l.761.543a50.313,50.313,0,0,0,4.546,3.01c2.772,1.559,7.531,2.389,10.681,2.938l.144.025a46.843,46.843,0,0,0,7.971.752c.545,0,1.087-.013,1.612-.038a13.582,13.582,0,0,0,3.638-.617,7.452,7.452,0,0,0,1.749-.841c.116-.078.227-.157.338-.243a23.554,23.554,0,0,1-.171-4,8.258,8.258,0,0,1,.835-4,.052.052,0,0,1,.046-.029.071.071,0,0,1,.062.043,14.6,14.6,0,0,1,.829,4.424c.026.31.053.629.083.944a4.3,4.3,0,0,1,1.242-.185,4.147,4.147,0,0,1,3.394,1.764,7.906,7.906,0,0,1,1.008,2.254,13.843,13.843,0,0,0,.488,1.341,3.7,3.7,0,0,0,.352.544,2.359,2.359,0,0,1,.486.874c.088.076.13.122.124.138s-.006.006-.014.006a.552.552,0,0,1-.161-.058c-.09-.03-.146-.047-.165-.051.023.01.073.027.148.053l.023.008.17.085.012.006a3.529,3.529,0,0,1,.828.512,1.665,1.665,0,0,1,.485.757,2.24,2.24,0,0,1,.094.911c.274.13.551.266.818.4.562.276,1.143.562,1.719.8l.21.086c1.477.6,3,1.227,4.484,1.912,3.307,1.527,6.6,3.223,9.784,5.04l.493.281c.685.39,1.394.793,2.084,1.213a18.66,18.66,0,0,0-2.1,1.779.762.762,0,0,0-.192.863.923.923,0,0,0,.823.578.8.8,0,0,0,.563-.245,17.09,17.09,0,0,1,2.414-2,13.443,13.443,0,0,1,3.71,3.614,19.816,19.816,0,0,1,1.8,3.845l.008.021.125.326a19.8,19.8,0,0,0,2.146,4.155l.011.016a.66.66,0,0,1,.042.07l.183.01h.01l.192.011c2.757.158,5.549.371,8.3.634.429.041.876.081,1.27.116a54.855,54.855,0,0,1,6.786.9.761.761,0,0,1,.477.4.636.636,0,0,1,.049.53c-.089.219-.193.473-.3.729-2.849,6.939-6.157,14.068-10.111,21.795a2.455,2.455,0,0,1,1.143.3,1.777,1.777,0,0,1,.767,1,13.37,13.37,0,0,1,.694,2.825,6.543,6.543,0,0,1-.236,2.862.084.084,0,0,1-.08.063.091.091,0,0,1-.045-.012,3.841,3.841,0,0,0,1.056,2.779,7.65,7.65,0,0,0,.862.724,5.377,5.377,0,0,1,1.164,1.081c.889,1.23.281,2.218-.364,3.263-.122.2-.248.4-.363.609a1.013,1.013,0,0,0-.1.986,2.517,2.517,0,0,0,.641.721,4.4,4.4,0,0,1,.577.578,2.832,2.832,0,0,1,.527,1.129A3.645,3.645,0,0,1,159.035,86a8.225,8.225,0,0,1-1,2.733c-.125.239-.249.49-.37.734a11.768,11.768,0,0,1-1.424,2.386.5.5,0,0,1-.085.08.086.086,0,0,1,.021,0h0c.113,0,.259.182.3.277.022.049.044.1.065.148s.045.1.066.152l-.006-.017-.006-.017a.124.124,0,0,1,.015-.118.22.22,0,0,1,.169-.087h0c.13,0,.343.244.384.353a50.51,50.51,0,0,1,2,5.36l.226.875.045.175.407,1.575c.3,1.289.484,2.609.661,3.886l0,.015c.143.9.245,1.8.3,2.661.143,1.305.228,2.635.253,3.952a49.385,49.385,0,0,1-.553,6.378,25.734,25.734,0,0,1-.427,2.6,32.056,32.056,0,0,1-.906,3.859c-.155.64-.314,1.3-.454,1.882l-.119.493-.013.035-.24.649a12.184,12.184,0,0,1-.526,1.484c-.07.214-.15.439-.243.688a20.079,20.079,0,0,0-5.389-.986h-.017a.784.784,0,0,0-.8.824.9.9,0,0,0,.2.589.791.791,0,0,0,.615.277,17.8,17.8,0,0,1,4.715.848c-.242.487-.505.959-.783,1.405l-.028.055c-.76,1.494-1.546,3.04-2.448,4.5a27.631,27.631,0,0,1-1.713,2.458,18.694,18.694,0,0,1-3.647,3.663,9.68,9.68,0,0,1-2.172,1.378,16.233,16.233,0,0,1-2.77.922,15.328,15.328,0,0,1-1.61.3c-.289.036-.585.058-.871.079-.353.026-.719.053-1.077.107a8.157,8.157,0,0,0-1.722.427,4.179,4.179,0,0,0-.786.4,5.754,5.754,0,0,0-.589.6.027.027,0,0,1-.014.013,1.565,1.565,0,0,1-1.3,1.08A42.011,42.011,0,0,1,128.4,148.694ZM59.954,135.746a.875.875,0,0,0-.222.03.92.92,0,0,0-.551.474.681.681,0,0,0-.04.566,11.659,11.659,0,0,0,2.408,3.782.779.779,0,0,0,.563.254.918.918,0,0,0,.809-.569.782.782,0,0,0-.177-.881,9.505,9.505,0,0,1-1.973-3.036A.9.9,0,0,0,59.954,135.746Zm11.489-18.523a.834.834,0,0,0-.2.025,4.673,4.673,0,0,1-.536.093,2.906,2.906,0,0,0-.8.186c-.256.106-.51.229-.756.349l-.3.146-2.44,1.157c-1.538.731-3.052,1.453-4.5,2.147-2.764,1.324-5.55,2.721-8.244,4.072l0,0-1.24.621c-2.8,1.4-6.054,3.034-9.272,4.663-1.639.83-3.246,1.677-4.6,2.4l-.419.221c-.584.308-1.188.627-1.774.957-.157.088-.318.173-.488.262a5.5,5.5,0,0,0-1.617,1.105.09.09,0,0,0-.012.094.067.067,0,0,0,.063.041h.006a9.452,9.452,0,0,0,3.294-1.2c.363-.184.707-.359,1.035-.507l.991-.447,0,0c1.167-.527,2.375-1.071,3.555-1.622,3.732-1.744,6.792-3.16,9.633-4.458,1.289-.589,2.6-1.18,3.865-1.752,1.842-.831,3.746-1.691,5.611-2.554,1.56-.722,3.148-1.454,4.721-2.177L69.289,120l.374-.169.016-.007c.245-.11.5-.223.744-.342a4.377,4.377,0,0,0,.906-.612c.137-.112.279-.228.449-.35a.742.742,0,0,0,.279-.837A.632.632,0,0,0,71.443,117.223Zm53.773,14.623a.92.92,0,0,0-.813.571.777.777,0,0,0,.181.876c.233.236.459.486.678.727a10.364,10.364,0,0,0,1.684,1.6.691.691,0,0,0,.4.12.9.9,0,0,0,.758-.424.8.8,0,0,0,.081-.638.977.977,0,0,0-.385-.519,7.91,7.91,0,0,1-1.37-1.342c-.21-.241-.426-.491-.649-.717A.784.784,0,0,0,125.216,131.846ZM88.4,126.489a.785.785,0,0,0-.563.252,29.583,29.583,0,0,0-2.566,3.093.681.681,0,0,0-.109.547.946.946,0,0,0,.412.61.782.782,0,0,0,.406.117.961.961,0,0,0,.751-.42,26.537,26.537,0,0,1,2.3-2.751.776.776,0,0,0,.181-.876A.919.919,0,0,0,88.4,126.489Zm-68.391-6.305a.884.884,0,0,0-.391.095c-.527.258-1.073.5-1.6.726a24.667,24.667,0,0,0-2.537,1.222.769.769,0,0,0-.379.9.886.886,0,0,0,.81.676.835.835,0,0,0,.421-.121,24.649,24.649,0,0,1,2.537-1.222c.528-.23,1.075-.468,1.6-.725a.705.705,0,0,0,.41-.828A.935.935,0,0,0,20.006,120.184Zm128.568-13.392a.086.086,0,0,0-.062.026.07.07,0,0,0-.02.053,7.4,7.4,0,0,0,.49,1.965c.089.257.182.523.257.779.381,1.287.648,2.343.838,3.324a24.81,24.81,0,0,1,.325,2.83,18.516,18.516,0,0,0,.544,3.74.7.7,0,0,0,.685.549.89.89,0,0,0,.8-.549,6.208,6.208,0,0,0,.438-1.741,8.844,8.844,0,0,0-.006-1.822,16.7,16.7,0,0,0-.818-3.551,16.156,16.156,0,0,0-1.41-3.177,12.706,12.706,0,0,0-.874-1.337,4.063,4.063,0,0,0-1.154-1.078A.078.078,0,0,0,148.574,106.792Zm-43.629,2.716a.886.886,0,0,0-.738.352.673.673,0,0,0-.041.66c.232.574.486,1.15.731,1.707s.5,1.129.729,1.7a.935.935,0,0,0,1.589.211.674.674,0,0,0,.041-.66c-.233-.575-.486-1.15-.731-1.707h0c-.244-.555-.5-1.128-.728-1.7A.887.887,0,0,0,104.945,109.508Zm22.217-.554a.9.9,0,0,0-.257.039,34.864,34.864,0,0,0-4.085,1.6c-.306.135-.652.288-.984.431a.72.72,0,0,0-.378.336.672.672,0,0,0-.048.438.975.975,0,0,0,.916.764.912.912,0,0,0,.363-.078c.275-.119.555-.242.825-.361l.015-.007a33.035,33.035,0,0,1,3.826-1.5.807.807,0,0,0,.582-.93.934.934,0,0,0-.247-.514A.721.721,0,0,0,127.161,108.954Zm-75.69-.723a.921.921,0,0,0-.818.574.77.77,0,0,0,.186.87l2.19,2.191a.79.79,0,0,0,.563.249.921.921,0,0,0,.818-.574.77.77,0,0,0-.186-.87l-2.19-2.191A.791.791,0,0,0,51.472,108.232ZM38.393,72.3a.19.19,0,0,0-.139.055.177.177,0,0,0-.044.135c.06,1.057.155,2.127.247,3.162h0c.122,1.376.248,2.8.295,4.208.077,2.327.068,4.765-.027,7.451-.077,2.194-.222,4.507-.456,7.279-.06.716-.159,1.465-.254,2.189h0a22.537,22.537,0,0,0-.288,4.8c-2.243.588-4.176,1.182-5.908,1.816-.362.133-.74.263-1.139.4a25.741,25.741,0,0,0-3.977,1.632,6.58,6.58,0,0,0-2.929,2.816.074.074,0,0,0,.006.071.072.072,0,0,0,.058.036.057.057,0,0,0,.045-.024,4.839,4.839,0,0,1,1.843-1.354,16.1,16.1,0,0,1,2.212-.753l.43-.124c1.679-.493,3.352-.932,5.207-1.413,3.49-.906,7.081-1.652,10.553-2.374h0l.39-.081,1.711-.354c3.043-.628,6.19-1.278,9.261-2.034l.475-.116.015,0c1.564-.383,3.181-.779,4.724-1.3A20.71,20.71,0,0,0,65.817,96.1a.707.707,0,0,0,.233-.767.461.461,0,0,0-.459-.345.652.652,0,0,0-.074,0,31.3,31.3,0,0,0-4.492.977l-.011,0c-.3.081-.614.165-.918.245-.755.2-1.519.409-2.258.613h0c-1.089.3-2.214.612-3.331.885-2.6.637-5.253,1.222-7.821,1.787h0c-1.211.267-2.462.542-3.691.82-1.4.316-2.549.586-3.616.847a16.583,16.583,0,0,0,.258-2.127c.015-.2.031-.406.049-.61.03-.337.06-.679.09-1.011l0-.034c.076-.849.154-1.726.223-2.59.23-2.871.358-5.384.391-7.683a58.9,58.9,0,0,0-.335-7.45c-.122-1.087-.279-2.371-.517-3.658a22.313,22.313,0,0,0-.937-3.565A.216.216,0,0,0,38.393,72.3Zm82.989-7.536c-1,0-2.01.087-2.984.171h-.007c-.271.023-.527.045-.781.065a42.391,42.391,0,0,0-6.564,1,9.032,9.032,0,0,0-2.507.985,8.338,8.338,0,0,0-2.067,1.722,24.129,24.129,0,0,0-2.59,3.843c-.107.184-.229.392-.346.591a28.851,28.851,0,0,1-3.741,5.019,26.5,26.5,0,0,1-4.712,4.006,1.448,1.448,0,0,1-.577.638.049.049,0,0,1,.008.013c-.084.036-.154.067-.22.1l-.01,0-.01,0-.4.176a61.559,61.559,0,0,0-6.6,3.22c-.011.091-.024.183-.037.273v0c-.023.163-.045.317-.058.468-.04.471-.093.95-.144,1.412s-.1.936-.143,1.405a48.719,48.719,0,0,0-.211,5.675,28.836,28.836,0,0,0,.784,5.89c.187.768.434,1.528.673,2.264l.048.147a21.92,21.92,0,0,1,4.255-2.382,17.154,17.154,0,0,1,4.747-1.52,11.788,11.788,0,0,1,1.721-.12,24.751,24.751,0,0,1,3.413.3l.342.049.018,0a17.977,17.977,0,0,0,2.547.245,6.09,6.09,0,0,0,1.848-.256,4.767,4.767,0,0,0,2.018-1.322,15.705,15.705,0,0,0,1.517-1.98,13.264,13.264,0,0,1,1.753-2.208,5.3,5.3,0,0,1,3.1-1.5,4.89,4.89,0,0,1,.514-.023c.136,0,.275,0,.41.007h.009c.139,0,.281.007.421.007a3.118,3.118,0,0,0,1.288-.219,2.746,2.746,0,0,0,1.485-1.854,1.112,1.112,0,0,1,.585-.685,3.2,3.2,0,0,1-1.011-.664c-.1-.085-.2-.174-.314-.262-.6-.478-1.2-.928-1.787-1.338-.371-.26-.755-.516-1.125-.763-.187-.124-.38-.253-.569-.381-.1-.066-.218-.164-.358-.279A2.673,2.673,0,0,0,113.757,86a.425.425,0,0,0-.087.009h-.012a.084.084,0,0,1-.067-.033.058.058,0,0,1-.007-.055c.084-.224.3-.338.635-.338a4.826,4.826,0,0,1,1.759.5,18.443,18.443,0,0,1,2.174,1.163,10.291,10.291,0,0,1,2.917,2.327.657.657,0,0,1-.135.767,1.616,1.616,0,0,0,.4.052,1.837,1.837,0,0,0,1.328-.649,3.237,3.237,0,0,0,.729-1.373,10.227,10.227,0,0,0-.135-4q-.027-.161-.052-.319a.205.205,0,0,1,.048-.168.2.2,0,0,1,.149-.073.158.158,0,0,1,.042.006l.046-.106c-1.023-.447-2.113-.8-3.166-1.146h0c-.468-.153-.953-.311-1.423-.474l-.863-.3-.071-.025-2.016-.7-.3-.1a3.465,3.465,0,0,1-1.733-.976.893.893,0,0,1-.161-.837.658.658,0,0,1,.5-.438,2.515,2.515,0,0,1,.56-.062,5.3,5.3,0,0,1,1.82.439c.15.055.306.112.462.166.823.28,1.65.563,2.449.837l.31.106c.428.146.867.289,1.291.427l.007,0a35.537,35.537,0,0,1,3.566,1.3,7.005,7.005,0,0,1,1.8,1.134,5.109,5.109,0,0,1,1.262,1.7c.055.123.112.293.177.489.2.6.474,1.432.974,1.544a.5.5,0,0,0,.11.013c.3,0,.535-.286.712-.849a7.049,7.049,0,0,0,.241-1.25,8.479,8.479,0,0,0-.121-2.621,9.706,9.706,0,0,0-.885-2.537,8.266,8.266,0,0,0-3.634-3.717,26.433,26.433,0,0,0-4.911-1.618l-.183-.047c-1.379-.357-2.845-.66-4.358-.9-.557-.092-1.163-.179-1.851-.266a.1.1,0,0,1-.1-.108.091.091,0,0,1,.1-.089c.529-.023,1.058-.035,1.572-.035.243,0,.488,0,.728.008a14.7,14.7,0,0,1,6.335-1.384c.039,0,.079,0,.119,0a3,3,0,0,1,1.565.52,7.114,7.114,0,0,1,1.41,1.2,7.747,7.747,0,0,1,1.556,2.3,10.135,10.135,0,0,1,3.862,5.449c.041.123.078.242.114.363a5.3,5.3,0,0,1,1.031-1.578,7.767,7.767,0,0,1,1.43-1.216,25.788,25.788,0,0,1,3.577-1.985,1.182,1.182,0,0,1-.3-.167,2.247,2.247,0,0,1-.615-1.625c-.008-.075-.016-.153-.026-.229a7.205,7.205,0,0,1,.042-2.5,3.84,3.84,0,0,1,.44-1.092,4.337,4.337,0,0,1,.708-.886,7.13,7.13,0,0,1,1.93-1.281,28.308,28.308,0,0,1,5.428-1.924,30.521,30.521,0,0,1,5.7-.832.926.926,0,0,1,.089-.215c1.911-3.428,3.791-7.06,5.589-10.8,1.694-3.52,3.372-7.251,4.987-11.09-1.332-.1-2.686-.264-4-.422h0c-.971-.118-1.975-.239-2.963-.334-2.62-.252-5.272-.458-7.88-.613-.54-.033-1.084-.063-1.611-.091l-.029,0c-1.774-.093-3.6-.167-5.427-.218l-.646-.019-.067,0c-.845-.025-1.718-.051-2.578-.051l-.413,0a2.705,2.705,0,0,0-.781.092,1.3,1.3,0,0,0-.635.437,2.446,2.446,0,0,0-.233.366,1.409,1.409,0,0,1-.47.577l-.061.035-.11.062-.054.054,0,0a1.143,1.143,0,0,0-.111.119,9.244,9.244,0,0,0-.674,1.021c-.591,1.018-1.134,2.09-1.659,3.126l-.007.015c-.391.772-.77,1.564-1.137,2.329-.519,1.085-1.056,2.207-1.633,3.284-1.008,1.879-1.945,3.526-2.865,5.036-.234.381-2.052,3.155-3.084,4.553a9.609,9.609,0,0,1,2.425.378c.171-.391.37-.775.562-1.146h0c.164-.317.334-.644.485-.974.113-.247.214-.513.311-.769a6.889,6.889,0,0,1,.654-1.4.457.457,0,0,1,.382-.218.466.466,0,0,1,.353.167.481.481,0,0,1,.1.4,6.178,6.178,0,0,1-1.039,2.127l-.007.01-.058.088a10.046,10.046,0,0,1-1.43,1.82c.03.009.059.02.085.03a5.861,5.861,0,0,1,2.119,1.484,20.249,20.249,0,0,1,1.68,2.08c.2.272.389.528.582.779l.153.2,0,0c.788,1.006,3.187,4.066,3.66,6.635a3.757,3.757,0,0,1-.017,1.435,2.967,2.967,0,0,1-.544,1.223,1.822,1.822,0,0,1-1.349.735h-.035a.406.406,0,0,1-.363-.193.911.911,0,0,1-.115-.481,2.569,2.569,0,0,1,.348-1.225,1.117,1.117,0,0,1,.866-.665c-.179,0-.183-.118-.189-.268a1.032,1.032,0,0,0-.02-.2,3.577,3.577,0,0,0-.191-.533c-.021-.05-.042-.1-.062-.152a16.492,16.492,0,0,0-.858-1.778A26.116,26.116,0,0,0,128.913,70c-.674-.925-1.394-1.819-2.134-2.729l-.1-.121a5.211,5.211,0,0,0-2.588-2.071,10.148,10.148,0,0,0-2.626-.31Zm29.052,22.595a.5.5,0,0,1,.387.162.6.6,0,0,1,.142.372.733.733,0,0,1-.138.465.629.629,0,0,1-.459.253l-.151.014h0c-3.1.292-6.3.595-9.43,1.042-1.707.245-3.222.5-4.631.767-.534.1-1.079.238-1.606.369-.261.065-.53.131-.8.194a.078.078,0,0,1-.011.07,5.991,5.991,0,0,0-.954,2.326,3.049,3.049,0,0,0,.047,1.239,2.25,2.25,0,0,0,.647,1.078,2.008,2.008,0,0,0,1.456.486,8.491,8.491,0,0,0,.9-.065l.07-.008c.946-.1,1.885-.233,2.844-.368,1.566-.221,3.193-.479,4.975-.788.829-.142,1.7-.3,2.58-.473a86.624,86.624,0,0,0,9.123-3.891,15.052,15.052,0,0,1,.876-1.639c.181-.308.368-.626.535-.939l.028-.052c.478-.9,1.133-2.14.718-3.166a2.8,2.8,0,0,0-.822-.993,2.882,2.882,0,0,1-.834-1,1.911,1.911,0,0,1-.133-.981,2.581,2.581,0,0,1,.327-.943,5.051,5.051,0,0,1,.5-.675,2.649,2.649,0,0,0,.761-1.419c.032-.72-.671-1.268-1.291-1.752a6.868,6.868,0,0,1-.574-.48,3.7,3.7,0,0,1-1.061-1.983,3.615,3.615,0,0,1,.324-2.217.105.105,0,0,1,.087-.059,21.212,21.212,0,0,0-.459-2.3,10.87,10.87,0,0,0-.8-2.162,1.2,1.2,0,0,0-1.242-.679c-.135,0-.273.007-.42.014h-.008c-.092,0-.188.009-.285.012-.743.025-1.441.072-2.134.144a30.176,30.176,0,0,0-4.6.843,28.073,28.073,0,0,0-4.4,1.564,7.2,7.2,0,0,0-1.764,1.046,2.8,2.8,0,0,0-.985,1.74,7,7,0,0,0,.061,2.04l.01.074c.027.2.061.442.14.48a.158.158,0,0,0,.063.009,5.386,5.386,0,0,0,.933-.212c.1-.03.187-.053.225-.061l.435-.094.034-.007c1.378-.3,2.8-.6,4.2-.909.407-.088.831-.2,1.241-.3h0a14.751,14.751,0,0,1,3.209-.567h.012a.631.631,0,0,1,.581.533.5.5,0,0,1-.288.592,20.439,20.439,0,0,1-4.384,1.122c-.61.11-1.24.223-1.831.353l-.52.114-.52.114c-.548.255-1.108.5-1.649.746a42.526,42.526,0,0,0-4.179,2.049l-.061.035a7.513,7.513,0,0,0-2.891,2.41,2.657,2.657,0,0,0-.331,1.052,2.2,2.2,0,0,0,.145,1.081,1.422,1.422,0,0,0,1.014.849,3,3,0,0,0,.681.073,4.833,4.833,0,0,0,.664-.049,13.769,13.769,0,0,0,1.819-.428c.346-.1.673-.191.974-.259l4.081-.926,1.618-.367,6.748-1.529a.642.642,0,0,1,.141-.016.538.538,0,0,1,.4.17.666.666,0,0,1,.176.379.549.549,0,0,1-.074.354.516.516,0,0,1-.333.222c-3.693.839-7.416,1.688-11.018,2.509-.464.105-.939.225-1.4.341h0a29.022,29.022,0,0,1-3.12.664l-.026.017a15.354,15.354,0,0,0-3.7,2.955c-.069.08-.142.17-.228.281a1.255,1.255,0,0,0-.267,1.256.97.97,0,0,0,.915.486c.034,0,.068,0,.1,0a5.043,5.043,0,0,0,1.259-.237c.131-.036.266-.074.4-.106,1.107-.277,2.246-.53,3.387-.75a130.55,130.55,0,0,1,13.123-1.649l.624-.057C150.39,87.363,150.412,87.362,150.434,87.362Zm-136.2.429a.941.941,0,0,0-.834.585.746.746,0,0,0,.2.848,10.91,10.91,0,0,0,3.678,2.029l.007,0,.338.134a.833.833,0,0,0,.306.063.739.739,0,0,0,.691-.655.9.9,0,0,0-.548-1.038l-.4-.155A8.5,8.5,0,0,1,14.8,88.029.811.811,0,0,0,14.235,87.791Zm117.6-3.38a8.688,8.688,0,0,1-.074,1.6,8.748,8.748,0,0,1,1.458-.852A2.548,2.548,0,0,1,131.839,84.41ZM72.59,78.772a.779.779,0,0,0-.794.818.908.908,0,0,0,.2.592.8.8,0,0,0,.615.281,9.561,9.561,0,0,1,2.134.376h0l.317.08a.933.933,0,0,0,.225.029.853.853,0,0,0,.819-.786.829.829,0,0,0-.1-.531.775.775,0,0,0-.49-.342l-.151-.038-.041-.01a12.345,12.345,0,0,0-2.71-.469ZM49.039,65.645a.935.935,0,0,0-.871.726.706.706,0,0,0,.41.829,15.488,15.488,0,0,0,3.609,1.3.952.952,0,0,0,.2.021.889.889,0,0,0,.854-.823.79.79,0,0,0-.112-.513.751.751,0,0,0-.49-.316A13.631,13.631,0,0,1,49.43,65.74.882.882,0,0,0,49.039,65.645Zm29.62-10.466a.775.775,0,0,0-.778.6,38.106,38.106,0,0,0-.974,4.87.873.873,0,0,0,.206.717,1.013,1.013,0,0,0,.744.345.656.656,0,0,0,.681-.613,38.079,38.079,0,0,1,.974-4.87.776.776,0,0,0-.116-.7A.935.935,0,0,0,78.659,55.179ZM23.046,57.556a.832.832,0,0,0-.308.064,28.3,28.3,0,0,0-3.852,1.79.8.8,0,0,0-.362.416.815.815,0,0,0-.014.494.97.97,0,0,0,.294.472.772.772,0,0,0,.512.2.831.831,0,0,0,.423-.123,25.507,25.507,0,0,1,3.449-1.619.908.908,0,0,0,.546-1.044A.736.736,0,0,0,23.046,57.556Zm85.749-14.1a.71.71,0,0,0-.649.43,13.455,13.455,0,0,0-.748,1.738,6.312,6.312,0,0,0-.341,1.854.771.771,0,0,0,.208.573.86.86,0,0,0,.617.243.908.908,0,0,0,.586-.2.8.8,0,0,0,.279-.612,6.489,6.489,0,0,1,.858-2.739.828.828,0,0,0-.03-.831A.959.959,0,0,0,108.795,43.458ZM54.376,40.786a.918.918,0,0,0-.242.034c-1.041.286-2.118.5-3.159.7-.8.158-1.631.32-2.439.516a.769.769,0,0,0-.49.336.822.822,0,0,0-.106.528.857.857,0,0,0,.826.793.938.938,0,0,0,.22-.027c.809-.2,1.638-.359,2.44-.516,1.041-.2,2.117-.416,3.158-.7a.787.787,0,0,0,.589-.9.944.944,0,0,0-.25-.529A.744.744,0,0,0,54.376,40.786Zm-33.2-2.462a.742.742,0,0,0-.694.658.9.9,0,0,0,.549,1.034c.561.22,1.141.417,1.7.608h0c.562.191,1.142.388,1.705.609a.837.837,0,0,0,.3.062.742.742,0,0,0,.694-.658.9.9,0,0,0-.549-1.035c-.561-.22-1.141-.417-1.7-.608s-1.143-.389-1.705-.609A.836.836,0,0,0,21.179,38.324Zm52.649-6.055h0a.778.778,0,0,0-.612.264.889.889,0,0,0-.2.581.8.8,0,0,0,.816.845,18.8,18.8,0,0,1,3.426.214.965.965,0,0,0,.175.016.833.833,0,0,0,.616-.268,1,1,0,0,0,.265-.585.7.7,0,0,0-.607-.794,20.932,20.932,0,0,0-3.875-.274Zm45.525-9.524a.788.788,0,0,0-.439.144l-2.19,1.461a.844.844,0,0,0-.348.453.886.886,0,0,0,0,.519.839.839,0,0,0,.758.633.787.787,0,0,0,.439-.144l.438-.292,1.753-1.169a.844.844,0,0,0,.348-.453.886.886,0,0,0,0-.519A.839.839,0,0,0,119.353,22.744Zm-76.5-2.39a.976.976,0,0,0-.161.014,19.988,19.988,0,0,0-3.894.974.9.9,0,0,0-.551,1.03.744.744,0,0,0,.7.661.842.842,0,0,0,.3-.061A19.52,19.52,0,0,1,43.144,22a.684.684,0,0,0,.608-.775,1.006,1.006,0,0,0-.267-.6A.849.849,0,0,0,42.856,20.354Zm40.977-2.942a.9.9,0,0,0-.756.423.86.86,0,0,0,.3,1.157,12.6,12.6,0,0,1,1.746,1.542l.03.03a.791.791,0,0,0,.563.249.921.921,0,0,0,.818-.574.77.77,0,0,0-.186-.87,14.863,14.863,0,0,0-2.118-1.837A.705.705,0,0,0,83.833,17.413Z" transform="translate(7.395 1.479)"/>
  </g>
  <g id="HEAD" transform="translate(78.592 38.043)">
    <path id="_Skin-2" data-name="âœ‹ Skin" d="M73.169,31.749A41.971,41.971,0,0,0,60.411,10.116C40.314-9.8,3.407,1.009,3.574,31.026A39.957,39.957,0,0,0,2.8,41.712c.1,1.526.757,3.654-.128,5.027C.676,49.308-.484,51.2.2,54.618a8.366,8.366,0,0,0,5.326,6.22,5.58,5.58,0,0,1,3.8,3.064c3.648,6.7,6.351,12.266,12.1,16.83,1.484,1.175,16.707,8.222,21.722,8.222,14.684,0,33.191-5.332,33.5-21.775a87.878,87.878,0,0,0-.976-10.848C74.705,48.154,75.046,39.681,73.169,31.749Z" transform="translate(11.595 15.64)" fill="#d08b5b"/>
    <path id="_Ink-2" data-name="ðŸ– Ink" d="M50.414,92.608a17.108,17.108,0,0,1-5.083-.71,12.54,12.54,0,0,1-2.346-1,11.514,11.514,0,0,1-2.131-1.523,1.793,1.793,0,0,1-.585-1.032,2.1,2.1,0,0,1,.123-1.118,2.59,2.59,0,0,1,.786-1.08,1.907,1.907,0,0,1,1.189-.449,1.7,1.7,0,0,1,1.038.365,10.924,10.924,0,0,0,1.744,1.072,11.207,11.207,0,0,0,1.838.707,13.825,13.825,0,0,0,3.867.508,22.825,22.825,0,0,0,3.939-.374c1.137-.2,2.367-.477,3.872-.875l.153-.041a40.345,40.345,0,0,0,6.567-2.317,28.158,28.158,0,0,0,3.071-1.649,22.853,22.853,0,0,0,2.808-2.054,16.811,16.811,0,0,0,4.406-5.9,19.62,19.62,0,0,0,1.647-7.216,59.262,59.262,0,0,0-.43-8.588l-.032-.317c-.125-1.231-.254-2.48-.378-3.688-.206-2-.419-4.063-.619-6.1-.352-3.589-.561-6.352-.677-8.958l-.062-1.508c-.016-.387-.034-.786-.05-1.139-.117-2.636-.237-5.361-.123-8.009a.091.091,0,0,1,.093-.087.083.083,0,0,1,.082.064c.367,1.305.632,2.65.888,3.951.125.635.254,1.292.394,1.939.494,2.279.84,4.043,1.122,5.719.53,3.145,1.039,6.6,1.6,10.875l.119.909c.137,1.058.292,2.143.442,3.193.767,5.373,1.561,10.928.56,16.3a18.942,18.942,0,0,1-3.163,7.42,24.857,24.857,0,0,1-5.711,5.736,33.4,33.4,0,0,1-6.83,3.812,44.063,44.063,0,0,1-7.47,2.349c-1.142.254-2.246.451-3.282.585A26.465,26.465,0,0,1,50.414,92.608Zm-27.256-9.78a1.073,1.073,0,0,1-.419-.087,5.368,5.368,0,0,1-1.722-1.251,19.378,19.378,0,0,1-1.429-1.713l0,0c-.178-.231-.346-.449-.516-.66L19,79.029a35.4,35.4,0,0,1-2.938-4.239l-.29-.489a46.694,46.694,0,0,1-4.2-8.445,1.566,1.566,0,0,1-.214.186,2.885,2.885,0,0,1-1.712.5,5.959,5.959,0,0,1-1.751-.3,13.081,13.081,0,0,1-1.6-.637,10.737,10.737,0,0,1-3.64-2.768,11.67,11.67,0,0,1-1.387-2.024,10.794,10.794,0,0,1-.9-2.235A10.136,10.136,0,0,1,0,56.2a9.985,9.985,0,0,1,.227-2.448,10.706,10.706,0,0,1,1.808-3.96,10.244,10.244,0,0,1,3.241-2.929,10.183,10.183,0,0,1-1.965-4.92,30.059,30.059,0,0,1-.379-6.861,35.511,35.511,0,0,1,1.005-6.76,41.079,41.079,0,0,1,2.2-6.472,36.169,36.169,0,0,1,6.6-10.134A35.759,35.759,0,0,1,17.2,7.634a34.916,34.916,0,0,1,5.117-3.271A38.624,38.624,0,0,1,46.138.467,33.4,33.4,0,0,1,51.859,1.9a34.975,34.975,0,0,1,5.37,2.388,36.365,36.365,0,0,1,4.91,3.244,37.109,37.109,0,0,1,4.341,4,38.488,38.488,0,0,1,3.636,4.559A29.235,29.235,0,0,1,72.9,21.211a27.919,27.919,0,0,1,.972,2.719,22.453,22.453,0,0,1,.65,2.814,23.2,23.2,0,0,1,.343,2.984,8.213,8.213,0,0,1-.1,1.337,8.209,8.209,0,0,0-.105,1.376.115.115,0,0,1-.032.086.138.138,0,0,1-.1.04.119.119,0,0,1-.121-.091,7.4,7.4,0,0,0-.71-1.686,11.025,11.025,0,0,1-.539-1.131c-.3-.772-.644-1.529-.943-2.177l-.285-.616c-.8-1.731-1.762-3.416-2.693-5.046l-.1-.17a37.206,37.206,0,0,0-3.352-4.908,36.8,36.8,0,0,0-4.093-4.306,33.089,33.089,0,0,0-8.736-5.621,31.907,31.907,0,0,0-4.918-1.7A30.363,30.363,0,0,0,42.9,4.266c-.883-.069-1.781-.1-2.668-.1A34.619,34.619,0,0,0,30.881,5.45a33.717,33.717,0,0,0-8.658,3.8,32.109,32.109,0,0,0-13.23,16.58,36.733,36.733,0,0,0-2.05,10.69,49.062,49.062,0,0,0,.124,5.557l.064.88a14.186,14.186,0,0,1-.03,3.136A8.2,8.2,0,0,1,9.54,45.7a6.915,6.915,0,0,1,1,.073,4.229,4.229,0,0,1,3.552,2.524.091.091,0,0,1,0,.09.089.089,0,0,1-.076.043.1.1,0,0,1-.044-.011,3.345,3.345,0,0,0-1.486-.286A9.69,9.69,0,0,0,7.2,49.843a8.76,8.76,0,0,0-2.258,2.243,7.16,7.16,0,0,0-1.2,2.942,5.816,5.816,0,0,0-.034,1.538,6.464,6.464,0,0,0,.348,1.488,7.4,7.4,0,0,0,1.619,2.59,8.763,8.763,0,0,0,1.195,1.044,7.019,7.019,0,0,0,1.38.781,9.446,9.446,0,0,0,1.3.409,5.327,5.327,0,0,1,2.1.893,1.109,1.109,0,0,1,.433.948,1.767,1.767,0,0,1-.381.99c1.115,1.226,2.184,2.531,3.218,3.793h0c1.015,1.239,2.064,2.52,3.157,3.727.928,1.024,2,2.219,3.02,3.427l.366.439c.272.33.585.659.916,1.008a8.068,8.068,0,0,1,2.07,2.919,1.416,1.416,0,0,1-.265,1.23A1.324,1.324,0,0,1,23.158,82.828ZM13.813,59.892a1.3,1.3,0,0,1-.74-.22,1.492,1.492,0,0,1-.542-.733l-.023-.064a5.325,5.325,0,0,0-1.045-1.743,1.434,1.434,0,0,1-.55.515.583.583,0,0,1-.257.058.461.461,0,0,1-.484-.36,1.634,1.634,0,0,1,.226-1.163l.03-.044A9.113,9.113,0,0,0,8.717,55.05a6.893,6.893,0,0,0-1.77-.6.109.109,0,0,1-.085-.113.111.111,0,0,1,.085-.116,10.59,10.59,0,0,1,1.969-.21,6.012,6.012,0,0,1,2.47.5,7.847,7.847,0,0,1,2.1,1.371,13.492,13.492,0,0,1,1.683,1.865,1.131,1.131,0,0,1,.154,1.235A1.745,1.745,0,0,1,13.813,59.892Z" transform="translate(9.487 13.738)"/>
  </g>
  <g id="FACE" transform="translate(112.183 77.354)">
    <path id="eye" d="M11.662,17.753c5.6,0,10.141-3.974,10.141-8.877S17.262,0,11.662,0,0,3.813,0,8.715a14.066,14.066,0,0,0,3.007,7.228C4.865,18,8.438,17.753,11.662,17.753Z" transform="translate(8.409 16.697)" fill="#fff"/>
    <path id="eye-2" data-name="eye" d="M8.927,16.055A7.9,7.9,0,0,0,16.69,8.027,7.9,7.9,0,0,0,8.927,0C4.64,0,0,3.448,0,7.881a14.03,14.03,0,0,0,2.3,6.537C3.724,16.275,6.459,16.055,8.927,16.055Z" transform="translate(35.282 16.697)" fill="#fff"/>
    <path id="_Ink-3" data-name="ðŸ– Ink" d="M10.559,42.681a1.834,1.834,0,0,1-.715-.149,1.679,1.679,0,0,1-1.022-1.116,2.134,2.134,0,0,1,.4-1.8l.035-.046a13.725,13.725,0,0,0,1.873-3.8c.251-.7.472-1.392.658-2.051.034-.122.061-.246.086-.365a1.723,1.723,0,0,1,.451-1,.151.151,0,0,1,.1-.041.125.125,0,0,1,.066.019,2.4,2.4,0,0,1,.855,1.619,10.767,10.767,0,0,1,.177,2.027c.129.034.259.069.384.1h0c.25.069.486.133.718.184.545.121,1.1.232,1.64.339h.007l.611.123.564.116a44.369,44.369,0,0,0,5.729.839c1.064.081,2,.121,2.85.121a21.651,21.651,0,0,0,2.794-.166,15.065,15.065,0,0,0,2.364-.506,10.244,10.244,0,0,0,1.745-.753c.239-.121.486-.247.742-.366a2.054,2.054,0,0,1,.87-.2,1.837,1.837,0,0,1,1.163.416,1.985,1.985,0,0,1,.66.99,1.672,1.672,0,0,1-.033,1.053,1.869,1.869,0,0,1-.8.927,10.119,10.119,0,0,1-2.986,1.174,21.329,21.329,0,0,1-3.189.481c-.518.043-1.059.065-1.607.065a28.563,28.563,0,0,1-4.571-.41c-1.127-.181-2.23-.41-3.28-.681a31.419,31.419,0,0,1-3.194-1.007,22.519,22.519,0,0,1-2.583-1.18l-.228-.122-.3-.159-.006,0-.123-.065a14.653,14.653,0,0,1-1.156,4.054l-.013-.023a1.911,1.911,0,0,1-.654.976A1.741,1.741,0,0,1,10.559,42.681ZM28.232,31.693a14.371,14.371,0,0,1-3.116-.356,1.455,1.455,0,0,1-1.006-.713,2.046,2.046,0,0,1,.7-2.545,1.337,1.337,0,0,1,.689-.186,1.709,1.709,0,0,1,.538.092,9.78,9.78,0,0,0,2.905.552c.092,0,.185,0,.276,0,.341,0,.679-.015,1-.045.235-.022.477-.052.719-.091-.137-.182-.271-.369-.41-.571-.169-.244-.319-.471-.458-.693a14.764,14.764,0,0,1-1.087-2.114c-.09-.213-.182-.446-.28-.711v0l-.037-.1-.081-.069a5.662,5.662,0,0,1-1.475-1.973,8.721,8.721,0,0,1-.7-3.527,14.02,14.02,0,0,1,.475-3.589A9.182,9.182,0,0,1,28,12.5a8.485,8.485,0,0,1,1.79-2.054,4.663,4.663,0,0,1,.6-.84,7.163,7.163,0,0,1,2.982-1.722,7.509,7.509,0,0,1,2.25-.341,8.139,8.139,0,0,1,2.53.409,8.7,8.7,0,0,1,2.309,1.16,11.127,11.127,0,0,1,2.493,2.441,11.923,11.923,0,0,1,1.675,3.108,10.884,10.884,0,0,1,.648,3.26,9.261,9.261,0,0,1-.449,3.283,7.651,7.651,0,0,1-1.753,2.943,7.157,7.157,0,0,1-2.9,1.822,9.915,9.915,0,0,1-3.2.477,22.361,22.361,0,0,1-3.85-.406c-.568-.1-1.066-.2-1.523-.3a5.67,5.67,0,0,1,1.137,1.006A4.14,4.14,0,0,1,33.87,28.62a1.718,1.718,0,0,1-.49,1.648,5.042,5.042,0,0,1-2.5,1.145A12.547,12.547,0,0,1,28.232,31.693Zm1.452-17.975a10.641,10.641,0,0,0-.59,3.6v.161l0,.165a9,9,0,0,0,.291,2.263,3.771,3.771,0,0,0,1.121,1.906,4.543,4.543,0,0,0,1.861.892,13.51,13.51,0,0,0,2.134.323l1.077.09.286.021c.391.027.734.04,1.049.04a7.619,7.619,0,0,0,1.715-.172,4.32,4.32,0,0,0,1.556-.673A3.758,3.758,0,0,0,41.4,20.868a5.58,5.58,0,0,0,.5-1.853,7.932,7.932,0,0,0-.1-2.273,8.508,8.508,0,0,0-.724-2.181,8.06,8.06,0,0,0-1.284-1.9,7.046,7.046,0,0,0-1.782-1.417,4.839,4.839,0,0,0-2.37-.622,4.926,4.926,0,0,0-1.6.271,5.731,5.731,0,0,0-1.549.874l-.191.145c-.179.137-.354.254-.524.367a3.738,3.738,0,0,0-1.061.928l-.057.082a1,1,0,0,1-.837.431,1.081,1.081,0,0,1-.133-.008ZM13.379,28.14a36.98,36.98,0,0,1-4.519-.319l-.841-.106a16.054,16.054,0,0,1-3.428-.725A6.461,6.461,0,0,1,2.218,25.5a6.887,6.887,0,0,1-1.47-2.2,10.62,10.62,0,0,1-.725-4.748,13.95,13.95,0,0,1,.363-2.437,13.142,13.142,0,0,1,.752-2.242A11.136,11.136,0,0,1,2.549,11.54a12,12,0,0,1,2-2.019A9.78,9.78,0,0,1,6.946,8.1a6.989,6.989,0,0,1,2.62-.537,6,6,0,0,1,.623.032,13.537,13.537,0,0,1,1.753-.128h.121a13.656,13.656,0,0,1,8,2.521,11.776,11.776,0,0,1,1.562,1.358,9.754,9.754,0,0,1,1.263,1.618,7.339,7.339,0,0,1,1.152,3.9,10.09,10.09,0,0,1-.951,4.069,18.063,18.063,0,0,1-2.185,3.6,10.024,10.024,0,0,1-1.494,1.58A8.449,8.449,0,0,1,17.7,27.231a8.6,8.6,0,0,1-1.935.673,10.492,10.492,0,0,1-2.163.235ZM11.961,9.7h0a14.539,14.539,0,0,0-3.412.416,15.47,15.47,0,0,0-3.21,1.164,12.418,12.418,0,0,0-1.765,2.488,11,11,0,0,0-1.035,2.665,10.459,10.459,0,0,0-.268,2.858A9.486,9.486,0,0,0,2.823,22.1a3.967,3.967,0,0,0,1.953,2.243,9.693,9.693,0,0,0,2.948.845l.826.13.346.052a28.4,28.4,0,0,0,4.072.366,12.048,12.048,0,0,0,2.313-.2,5.543,5.543,0,0,0,2.81-1.518,12.188,12.188,0,0,0,1.97-2.582l.052-.087a11.469,11.469,0,0,0,1.381-3.161,6,6,0,0,0,.172-1.686,4.775,4.775,0,0,0-.393-1.687,7.106,7.106,0,0,0-1.861-2.464,10.562,10.562,0,0,0-2.622-1.665,11.052,11.052,0,0,0-2.358-.749A12.638,12.638,0,0,0,11.961,9.7Zm-.08,13.388a5.562,5.562,0,0,1-2.954-.842l.009-.012v0a.283.283,0,0,0,.018-.023,1.014,1.014,0,0,0,.179.016.887.887,0,0,0,.87-.584,2.809,2.809,0,0,0,.135-1.015,2.337,2.337,0,0,0-.252-.948,1.9,1.9,0,0,0-1.164-.952,2.145,2.145,0,0,0-.617-.091,2.234,2.234,0,0,0-.875.181,2.48,2.48,0,0,0-.749.5,6.437,6.437,0,0,1-.391-3.524,5.255,5.255,0,0,1,2.951-3.993,3.578,3.578,0,0,1,1.46-.344,2.776,2.776,0,0,1,.652.078,5.757,5.757,0,0,1,6.035.51,1.688,1.688,0,0,0-.442.14,1.407,1.407,0,0,0-.707.98.9.9,0,0,0,.087.638.877.877,0,0,0,.5.4,2.084,2.084,0,0,0,.626.109,1.06,1.06,0,0,0,1.017-.665l.012-.031.016-.023.006-.01h0a.085.085,0,0,0-.017.022c.011-.025.02-.049.031-.075v0a1.006,1.006,0,0,0,.042-.1c.019-.017.038-.036.055-.054l.005-.005a5.37,5.37,0,0,1,.7,1.588,4.875,4.875,0,0,1,.007,2.366,6.546,6.546,0,0,1-1.007,2.2,8.77,8.77,0,0,1-2.508,2.39,7.357,7.357,0,0,1-3.084,1.144A5.953,5.953,0,0,1,11.881,23.086Zm23.8-1.078a4.408,4.408,0,0,1-2.726-.941.687.687,0,0,0,.194-.151,2.04,2.04,0,0,0,.365-.546c.026-.058.047-.11.066-.158l.031-.08c.016-.047.043-.126.042-.129l0,0,0,.006.017-.039a1.031,1.031,0,0,0,.059-.6.781.781,0,0,0-.339-.49l-.041-.026a.853.853,0,0,0-.427-.105,1.321,1.321,0,0,0-1.058-.493,1.714,1.714,0,0,0-.425.055l-.019-.151c0-.029-.005-.053-.007-.076a5.078,5.078,0,0,1-.161-2.14A5.387,5.387,0,0,1,32,13.86l.06-.095a5.292,5.292,0,0,1,1.094-1.229,2.406,2.406,0,0,1,1.481-.6,1.647,1.647,0,0,1,.417.054,1.8,1.8,0,0,1,.488.21,2.853,2.853,0,0,1,.382-.026,3,3,0,0,1,1.554.439l-.015.04a.15.15,0,0,0-.006.02.928.928,0,0,0,.085.651,1.371,1.371,0,0,0,.505.575.992.992,0,0,0,.492.133h.019a1.019,1.019,0,0,0,.676-.294.808.808,0,0,0,.213-.376,2.589,2.589,0,0,1,.268.3,4.521,4.521,0,0,1,.756,1.559,5.39,5.39,0,0,1-.232,3.462,4.516,4.516,0,0,1-.961,1.446c-.056.055-.115.107-.173.157l0,0-.032.028a4.094,4.094,0,0,1-2.94,1.674A4.424,4.424,0,0,1,35.683,22.009ZM1.695,9a.094.094,0,0,1-.067-.03A.08.08,0,0,1,1.6,8.914a3.876,3.876,0,0,1,.736-1.9,14.288,14.288,0,0,1,1.32-1.609l0,0a16.17,16.17,0,0,1,3.476-2.85A18.8,18.8,0,0,1,11.315.636,17.324,17.324,0,0,1,13.666.069L13.8.048a4.208,4.208,0,0,1,.6-.048,2.1,2.1,0,0,1,1.814.957,1.465,1.465,0,0,1,0,1.492A1.976,1.976,0,0,1,15,3.423a7.657,7.657,0,0,1-1.678.271,9.913,9.913,0,0,0-1.123.14A18.965,18.965,0,0,0,8.387,5.007,24.768,24.768,0,0,0,4.848,6.939c-.347.226-.69.5-1.021.756A7.3,7.3,0,0,1,1.718,9,.074.074,0,0,1,1.695,9Zm39.662-1.45h0A1.846,1.846,0,0,1,40.173,7.1l-.453-.375-.29-.238A18.326,18.326,0,0,0,35.252,3.75,28.02,28.02,0,0,0,29.8,2.128h0l-.255-.057a.126.126,0,0,1-.086-.079.119.119,0,0,1,.009-.111A3.049,3.049,0,0,1,30.989.749a5.955,5.955,0,0,1,2.02-.31A11.731,11.731,0,0,1,35.93.848a16.378,16.378,0,0,1,3.613,1.441,11.624,11.624,0,0,1,3.075,2.365,1.665,1.665,0,0,1,.356,1.841A1.8,1.8,0,0,1,41.356,7.553Z" transform="translate(7.606 7.609)"/>
  </g>
  <g id="FACIAL_HAIR" data-name="FACIAL HAIR" transform="translate(104.577 109.479)">
    <path id="_Ink-4" data-name="ðŸ– Ink" d="M42.882,39.311h0c-1.731,0-3.459-.168-4.983-.316a56.53,56.53,0,0,1-12.609-2.759c-1.912-.645-3.883-1.412-6.028-2.346l-.884-.381a41.118,41.118,0,0,1-4.946-2.389,19.077,19.077,0,0,1-3.591-3.108l0,0c-.193-.2-.393-.4-.587-.6a65.614,65.614,0,0,1-5.726-6.4,20.7,20.7,0,0,1-2.081-3.166A11.613,11.613,0,0,1,.276,14.262C-.36,10.112.228,5.78.8,1.59.841,1.26.887.919.932.584A.183.183,0,0,1,1.107.436a.107.107,0,0,1,.108.078c0-.069-.008-.141-.013-.235A.257.257,0,0,1,1.27.085.292.292,0,0,1,1.482,0a.287.287,0,0,1,.284.2,25.019,25.019,0,0,0,5.528,9.84,30.424,30.424,0,0,0,2.577,2.473c.849.728,1.767,1.447,2.805,2.2,1.929,1.393,3.988,2.682,5.98,3.928h0c.414.259.842.527,1.261.791a1.071,1.071,0,0,1,.523-.279,11.792,11.792,0,0,1,1.891-4.11,18.258,18.258,0,0,1,2.987-3.312A24.96,24.96,0,0,1,41.276,5.826a21.037,21.037,0,0,1,3.954.367,18.335,18.335,0,0,1,3.759,1.141,16.3,16.3,0,0,1,4.4,2.8A16.519,16.519,0,0,1,56.7,14.177a17.309,17.309,0,0,1,1.346,2.9c.163.458,1.435,5.586.633,8.524a21.942,21.942,0,0,1-1.59,4.1,25.27,25.27,0,0,1-2.334,3.749A14.366,14.366,0,0,1,48.571,38.4a12.672,12.672,0,0,1-2.772.717A19.841,19.841,0,0,1,42.882,39.311ZM40.424,11.432a23.743,23.743,0,0,0-5.81.655A15.123,15.123,0,0,0,28.773,15a13.989,13.989,0,0,0-2.261,2.321,12.933,12.933,0,0,0-1.639,2.795,7.46,7.46,0,0,0,.067,2.638,19.623,19.623,0,0,0,5.081,2.575,17.716,17.716,0,0,0,5.606.927,16.686,16.686,0,0,0,1.925-.111c.3-.37.6-.793.921-1.24A18.746,18.746,0,0,1,40.4,22.5a4.412,4.412,0,0,1,2.438-1.382,3.359,3.359,0,0,1,.481-.035,3.645,3.645,0,0,1,2,.649,12.955,12.955,0,0,1,1.723,1.431,11.361,11.361,0,0,0,1.979,1.59c.108.062.23.125.374.194a7.765,7.765,0,0,0,3.805-1.188,3.811,3.811,0,0,0,1.253-1.37A5.4,5.4,0,0,0,55,20.668c-.058-.233-.121-.472-.189-.709a18.318,18.318,0,0,0-.874-2.425,13.449,13.449,0,0,0-1.261-2.242,8.552,8.552,0,0,0-1.45-1.611,6.573,6.573,0,0,0-1.844-1.122,17.315,17.315,0,0,0-4.708-.887l-.375-.036C42.891,11.5,41.623,11.432,40.424,11.432Z" transform="translate(-0.001 0)"/>
  </g>
</svg>
