<svg id="peep-15" xmlns="http://www.w3.org/2000/svg" width="240" height="324" viewBox="0 0 240 324">
  <g id="BODY" transform="translate(31.056 135.053)">
    <path id="_Skin" data-name="âœ‹ Skin" d="M152.022,152.978h0c-1.055,0-2.122-.051-3.154-.1-.7-.033-1.364-.065-1.993-.079-4.036-.54-8.154-.924-12.591-1.172-3.969-.222-8.1-.331-12.613-.331-8.868,0-17.891.43-26.616.845h-.007c-2.951.141-6,.286-9,.412-2.1.138-4.255.205-6.587.205-5.787,0-11.654-.43-17.328-.845h-.006c-5.67-.415-11.532-.845-17.306-.845-2.588,0-4.969.083-7.279.255a153.721,153.721,0,0,1-16.631,1.207,62.7,62.7,0,0,1-7.441-.414c-1.1-.175-2.253-.284-3.366-.39h0c-1.316-.125-2.676-.253-3.983-.492a14.854,14.854,0,0,1-3.781-1.165,4.55,4.55,0,0,1-1.663-1.625A5,5,0,0,1,.043,146.4a16.86,16.86,0,0,1,.43-4.645,26.553,26.553,0,0,0,.4-2.68c.858-4.141,1.633-8.86,2.369-14.425.659-4.978,1.233-10.213,1.789-15.276h0c1.481-13.5,3.013-27.455,6.424-40.3.882-3.32,1.871-6.487,2.941-9.411a83.091,83.091,0,0,1,3.819-8.868,67.042,67.042,0,0,1,4.871-8.186,58.338,58.338,0,0,1,6.094-7.365A58.671,58.671,0,0,1,35.837,30.3a39.233,39.233,0,0,1,6.242-3.2c4.267-1.722,8.842-2.725,14.839-3.954a47.22,47.22,0,0,0,5.871-1.673c2.03-.712,4.692-1.8,5.848-2.909a26,26,0,0,0,2.955-3.794l.108-.157A28.974,28.974,0,0,0,74,10.084a31.7,31.7,0,0,1,2.053-4.141,12.005,12.005,0,0,1,1.373-1.815,9.369,9.369,0,0,1,1.79-1.512A24.351,24.351,0,0,1,90.591,0a21.691,21.691,0,0,1,5.5.656,11.6,11.6,0,0,1,4.422,2.115,11.317,11.317,0,0,1,2.062,2.389,14.162,14.162,0,0,1,1.356,2.724,38.1,38.1,0,0,1,1.54,6.031c.291,1.466.592,2.981,1.007,4.429a17.619,17.619,0,0,0,1.717,4.149,19.081,19.081,0,0,0,6.887,4.186,91.441,91.441,0,0,0,8.732,2.81c2.218.633,4.312,1.231,6.019,1.867,1.232.515,5.893,4.359,7.163,5.519a17.457,17.457,0,0,1,2.151,2.566,24.523,24.523,0,0,1,1.8,3.075,42.266,42.266,0,0,1,2.719,7.316A146.487,146.487,0,0,1,146.952,66.6c.728,4.655,1.416,9.052,2.365,12.686,2.2,12.746,3.933,23.29,5.451,33.183,1.84,11.994,3.341,22.89,4.587,33.311a8.812,8.812,0,0,1,.243,3.1,3.923,3.923,0,0,1-2.055,3.1,6.6,6.6,0,0,1-1.607.618A16,16,0,0,1,152.022,152.978ZM4.889,145.707c-.051.01-.1.036-.1.06s.023.036.151.036H4.98l-.055-.057Z" transform="translate(6.972 -7.609)" fill="#d08b5b"/>
    <path id="_Ink" data-name="ðŸ– Ink" d="M161.061,150.76a2.447,2.447,0,0,1-1.619-.573,2.512,2.512,0,0,1-.8-1.767,1.66,1.66,0,0,1,.49-1.365l0-.05c0-.024-.005-.043-.007-.054v-.008c-.074-.4-.112-.82-.149-1.226-.018-.2-.036-.4-.058-.6-.1-.882-.2-1.774-.3-2.637l-.012-.1q-.063-.552-.125-1.105c-.267-2.319-.555-4.812-.858-7.327-.6-5-1.234-9.992-1.886-14.839l-.659-4.886c-.991-7.319-2.177-15.944-3.458-24.411-1.356-8.967-2.688-16.921-4.072-24.314-.808-4.311-1.662-8.745-2.539-13.18-.5-2.5-.913-4.412-1.356-6.209-.553-2.244-1.134-4.239-1.775-6.1a39.887,39.887,0,0,0-4.631-9.344,33.575,33.575,0,0,0-7.046-7.655c.049.476.091.961.131,1.429v0c.029.34.06.692.093,1.038.208,2.189.434,4.415.63,6.33.436,4.249.908,7.99,1.444,11.436.634,4.077,1.358,7.776,2.215,11.309a96.109,96.109,0,0,0,3.325,10.927c.674,1.8,1.4,3.553,2.159,5.2.22.476.481.952.758,1.456a9.426,9.426,0,0,1,1.465,3.906,1.414,1.414,0,0,1-.422,1.034,1.64,1.64,0,0,1-1.15.521,1.269,1.269,0,0,1-.14-.008c.36,3.173.579,6.414.791,9.547l.058.853c.121,1.767.235,3.565.346,5.3v.026c.2,3.169.409,6.446.667,9.663.749,9.386,1.709,18.811,2.548,26.793.162,1.545.34,3.115.512,4.633v0l0,.036.071.63.167,1.484.015.129,0,.021a4.516,4.516,0,0,1-.245,2.818,14.619,14.619,0,0,1,.951,3.411,3.134,3.134,0,0,1-.056,1.24,2.647,2.647,0,0,1-.539,1.072,2.08,2.08,0,0,1-1.63.737l-.1,0c-.172-.006-.357-.02-.583-.044a21.857,21.857,0,0,1-4.817.7c-.291,0-.6,0-.92,0-1.116,0-2.251-.013-3.349-.025-.668-.008-1.359-.015-2.047-.02h-.026c-3.752-.025-8-.054-12.187-.088-5-.04-10.075-.066-14.987-.092h-.02c-9.574-.049-19.474-.1-29.211-.257l-5.9-.094c-4.915-.079-10.626-.18-16.213-.384-4.148-.151-7.633-.28-11.159-.423l-.757-.029-1.122-.039h-.021a73.242,73.242,0,0,1-8.667-.643.118.118,0,0,1-.078-.049.168.168,0,0,1-.026-.123l0-.02-.142-.032a.067.067,0,0,1-.073.053,1.868,1.868,0,0,1-.815-.574,4.276,4.276,0,0,1-.617-.783,1.633,1.633,0,0,1-.275-.824,4.033,4.033,0,0,1-.36-2.865c.023-.213.044-.414.058-.6.048-.671.1-1.351.158-2.01l0-.022c.03-.359.06-.731.089-1.1.081-1.025.157-2.068.232-3.076v-.014c.086-1.176.176-2.393.272-3.588.833-10.318,1.391-18.886,1.756-26.964.169-3.735.313-7.533.452-11.206v0q.045-1.2.091-2.394c.1-2.51.215-4.417.389-6.184l.053-.513c.053-.5.093-1.015.131-1.516v0a16.635,16.635,0,0,1,.836-4.769.03.03,0,0,1,.057,0,18.131,18.131,0,0,1,.955,5.521c.016.233.033.473.05.707.02-.006.04-.01.061-.014l.023,0c.231-.11.466-.219.694-.325a23.019,23.019,0,0,0,2.473-1.273c.09-.055.18-.114.267-.17h0l.138-.089c1.006-3.079,2.131-6.176,3.219-9.172.638-1.755,1.3-3.57,1.925-5.363,1.359-3.879,2.591-7.895,3.661-11.937,1.057-3.992,1.982-8.1,2.748-12.214A174.735,174.735,0,0,0,53.488,16.2a106.571,106.571,0,0,1-10.282,5.6c-.956.476-1.944.969-2.912,1.461l-.416.212a50.78,50.78,0,0,0-6.306,3.711,25.865,25.865,0,0,0-5.362,4.942,31.509,31.509,0,0,0-3.467,5.509c-.982,1.932-1.826,3.917-2.676,5.951C20.378,47.628,18.744,52,17.211,56.568c-1.447,4.315-2.787,8.849-3.985,13.475-1.137,4.391-2.18,9-3.1,13.708C9.254,88.2,8.482,92.8,7.83,97.415c-.632,4.476-1.171,9.106-1.6,13.762-.474,5.136-.853,9.749-1.16,14.1-.155,2.18-.3,4.519-.458,7.152-.027.47-.052.94-.076,1.4-.036.682-.073,1.387-.118,2.081-.007.1-.013.2-.019.3v.006a6.282,6.282,0,0,1-.255,1.68,5.436,5.436,0,0,1-.667,1.216l-.146.222a1.525,1.525,0,0,1-.576.515,1.606,1.606,0,0,1-.737.183,1.272,1.272,0,0,1-1.167-.7L.623,138.9a4.646,4.646,0,0,1-.613-1.834,10.916,10.916,0,0,1,.042-1.428c.012-.166.025-.337.034-.5.072-1.326.156-2.674.23-3.863.175-2.8.366-5.531.568-8.12.428-5.521.981-10.977,1.641-16.217.645-5.1,1.308-9.741,2.027-14.177.808-4.986,1.665-9.587,2.62-14.068C8.2,73.873,9.347,69.2,10.581,64.8c1.323-4.711,2.8-9.3,4.391-13.634.839-2.286,1.711-4.516,2.593-6.627.938-2.244,1.917-4.429,2.91-6.494a38.621,38.621,0,0,1,3.449-5.912A26.555,26.555,0,0,1,26.088,29.5a22.3,22.3,0,0,1,2.532-2.315,34.7,34.7,0,0,1,5.373-3.376c1.851-.962,3.782-1.821,5.763-2.689l.484-.212c.749-.327,1.5-.662,2.234-.986a103.074,103.074,0,0,1,10.987-4.372,1.488,1.488,0,0,0-.287.055.1.1,0,0,1-.03,0,.09.09,0,0,1-.082-.057.107.107,0,0,1,.015-.115,3.091,3.091,0,0,0,.283-.381,2.581,2.581,0,0,1,.379-.479c.192-.182.4-.364.636-.555l.315-.251a4.943,4.943,0,0,1,1.906-1.084,1.411,1.411,0,0,1,.3-.034.975.975,0,0,1,.834.425,1.139,1.139,0,0,1,.107,1.046.323.323,0,0,1,.262-.114.412.412,0,0,1,.387.243c1.124,2.9,2.137,5.908,3.116,8.816s1.991,5.915,3.116,8.819a69.248,69.248,0,0,0,3.892,8.492c3.8,6.885,8.446,12.048,13.813,15.346a28.542,28.542,0,0,0,5.112,2.51,19.874,19.874,0,0,0,5.549,1.212c.337.021.678.032,1.014.032a15.907,15.907,0,0,0,4.439-.632,16.718,16.718,0,0,0,4.114-1.837,22.227,22.227,0,0,0,3.854-3.041,29.254,29.254,0,0,0,3.209-3.759,47.368,47.368,0,0,0,4.816-8.62,84.9,84.9,0,0,0,3.687-10,88.81,88.81,0,0,0,2.437-10.387h-.169A13.93,13.93,0,0,1,114.9,20a13.612,13.612,0,0,1-4.631-3.313,12.757,12.757,0,0,1-2.835-5.254,8.545,8.545,0,0,1-.283-2.751,10.1,10.1,0,0,1,.587-2.687.109.109,0,0,1,.1-.071.085.085,0,0,1,.087.071,26.221,26.221,0,0,0,1.625,4.726,13.442,13.442,0,0,0,2.689,3.992,11.471,11.471,0,0,0,4.027,2.667,13.051,13.051,0,0,0,4.759.856l.08,0c.01-.07.02-.141.03-.21v0l.018-.125.023-.169a2.112,2.112,0,0,1,.665-1.347,1.777,1.777,0,0,1,1.172-.432,1.889,1.889,0,0,1,1.064.329,1.772,1.772,0,0,1,.691.949c.3.1.557.177.815.264l.054.02c.1.038.255.106.434.184a6.525,6.525,0,0,0,1.7.587.251.251,0,0,0,.146-.034.855.855,0,0,1,.506-.17,1.266,1.266,0,0,1,1.066.809,9.543,9.543,0,0,1,.512,2.55c.021.2.042.38.065.565l.017.132.019.159a19.264,19.264,0,0,1,10.509,7.437,33,33,0,0,1,3.416,5.7,45.9,45.9,0,0,1,2.372,6.117,130.653,130.653,0,0,1,3.116,13.235l.049.245c.569,2.856,1.12,5.764,1.653,8.576v.013c.369,1.947.751,3.961,1.135,5.939,2.145,11.039,3.775,20.156,5.13,28.693l.442,2.786c1.559,9.859,2.819,18.139,3.9,26.5.564,4.366,1.137,9.06,1.753,14.349.1.842.2,1.7.3,2.562l.147,1.282c.014.121.029.243.043.361v0a9.965,9.965,0,0,1,.108,1.523,3.331,3.331,0,0,1-.367,1.476,3.142,3.142,0,0,1-2.751,1.668ZM61.47,15.637a3.971,3.971,0,0,1-2.181-.521.1.1,0,0,1-.048-.084.1.1,0,0,1,.048-.087,5.14,5.14,0,0,1,1.83-.664h0c.24-.054.487-.111.719-.177a22.824,22.824,0,0,0,2.713-.941,21.413,21.413,0,0,0,4.861-2.9A20.964,20.964,0,0,0,71.55,8.336a13.647,13.647,0,0,0,1.768-2.262,26.56,26.56,0,0,0,1.331-2.521,12.194,12.194,0,0,0,.466-1.178A9.572,9.572,0,0,1,75.73.908,1.742,1.742,0,0,1,76.418.23,1.918,1.918,0,0,1,77.335,0a1.964,1.964,0,0,1,.734.141,1.669,1.669,0,0,1,.943.9,2.416,2.416,0,0,1,.141,1.31A9.5,9.5,0,0,1,77.843,5.4l-.081.141A16.707,16.707,0,0,1,75.714,8.3a23.587,23.587,0,0,1-4.741,4.238,18.751,18.751,0,0,1-5.907,2.551l-.5.116A14.535,14.535,0,0,1,61.47,15.637Z" transform="translate(4.648 0.423)"/>
  </g>
  <g id="HEAD" transform="translate(78.592 38.043)">
    <path id="_Skin-2" data-name="âœ‹ Skin" d="M92.455,60.628c1.306-9.448-1.483-18.566-5.1-27.2a3.031,3.031,0,0,0-.918-1.305c-10.2-20.6-25.178-22.467-46.078-21.049a2,2,0,0,1-1.123-.213C39.163,2.491,29.629-1.942,22.373.82-9.8,15.81.313,58.014,6.717,85.567q3.427,16,6.854,32a2.152,2.152,0,0,0,.453.925c-.332.126-.664.245-.99.356a.615.615,0,0,0,.326,1.185,20.267,20.267,0,0,0,2.212-.671c1.127.245,2.072-.493,2.957-1.082C28.89,114.168,33.24,100.669,35.9,90.725c10.8,7.642,28.07,13.366,40.424,6.494C87.9,90.23,92.066,75.652,91.243,62.785a2.254,2.254,0,0,0,1.208-2.125h.005c0-.011,0-.022,0-.032Z" transform="translate(-1.687 6.341)" fill="#d08b5b"/>
    <path id="_Hair" data-name="ðŸ’ˆ Hair" d="M13.035,118.844c.326-.111.658-.23.989-.356a2.154,2.154,0,0,1-.453-.925q-3.427-16-6.854-32C.313,58.014-9.805,15.81,22.373.82A13.09,13.09,0,0,1,28.639.107c1.051.539,5.808,2.969,7.855,3.869a10.514,10.514,0,0,1,1.25,1.635c.492,2.669-.43,7.994-.43,7.994S27.593,20.639,24.4,23.755,17,44.624,17,44.624l1.4,14.419s-1.981-.392-1.981,7.159,7.588,8.718,7.588,8.718l9.1,12.8L35.1,92.334a177.354,177.354,0,0,0-6.682,17.239c-2.506,3.863-5.707,7.047-9.886,8.7-.885.589-1.83,1.327-2.957,1.082a20.25,20.25,0,0,1-2.212.671.724.724,0,0,1-.164.02A.617.617,0,0,1,13.035,118.844ZM18.4,59.043Z" transform="translate(-1.687 6.34)" fill="#a55728"/>
    <path id="_Ink-2" data-name="ðŸ– Ink" d="M18.554,122.135a2.489,2.489,0,0,1-2.268-1.2A2.422,2.422,0,0,1,16,120.16a1.989,1.989,0,0,1-.716-.358c-.041.454-.084.854-.132,1.223a1.068,1.068,0,0,1-.361.684,1,1,0,0,1-.65.248.891.891,0,0,1-.852-.679,99.3,99.3,0,0,1-2.551-10.635c-.229-1.137-.465-2.312-.711-3.463C9.443,104.447,8.81,101.676,8.2,99V98.99c-.438-1.916-.891-3.9-1.322-5.847l-1.309-5.91c-1.533-6.945-3.121-14.354-4.2-21.853C.8,61.453.42,57.842.2,54.339.089,52.457.022,50.59,0,48.789c-.018-1.883.018-3.758.108-5.571.1-2.07.275-4.116.514-6.081.25-2.055.579-4.08.978-6.019.416-2.022.921-4.008,1.5-5.9A58.606,58.606,0,0,1,5.183,19.48a34.207,34.207,0,0,1,5.461-9.146,18.417,18.417,0,0,1,3.974-3.479,14.225,14.225,0,0,1,2.336-1.2,13.194,13.194,0,0,1,2.584-.736.293.293,0,0,1,.051,0,.337.337,0,0,1,.085.011,12.5,12.5,0,0,1,3.1-2.9A12.14,12.14,0,0,1,26.411.48,16.052,16.052,0,0,1,30.363,0c.227,0,.457,0,.684.014a11.114,11.114,0,0,1,2.187.311,14.667,14.667,0,0,1,2.1.688A20.794,20.794,0,0,1,37.4,2.036c.517.281,1.051.571,1.6.822a.056.056,0,0,1,.034.066.08.08,0,0,1-.074.063h-.013a8.847,8.847,0,0,0-1.762-.158,21.453,21.453,0,0,0-2.953.253l-.149.022c-.459.067-.929.125-1.383.18a28.739,28.739,0,0,0-3.043.486,10.388,10.388,0,0,0-6.634,4.37,14.9,14.9,0,0,0-1.9,5.172,23.368,23.368,0,0,0-.306,5.53,21.453,21.453,0,0,0,1.015,5.322,9.866,9.866,0,0,0,.725,1.566,10.7,10.7,0,0,1,.744,1.6c.282-.527.569-1.041.853-1.528-1.091-.516-1.692-1.855-1.785-3.98a1.126,1.126,0,0,1-.344-.755,4.243,4.243,0,0,1,.441-1.952,19.154,19.154,0,0,1,1.1-4.916,18.927,18.927,0,0,1,5.616-7.81,15.7,15.7,0,0,1,4.153-2.475,12.8,12.8,0,0,1,4.725-.924c.317,0,.638.013.954.038a7.063,7.063,0,0,1,2.733.757,4.984,4.984,0,0,1,2.038,1.944,5.387,5.387,0,0,1,.252,4.553,5.479,5.479,0,0,1-.623,1.2c.777-.2,1.546-.384,2.261-.557a59.407,59.407,0,0,1,7.916-1.4,21.52,21.52,0,0,1,6.542.332,21.049,21.049,0,0,1,4.16,1.319c.909.234,1.828.49,2.733.761a45.525,45.525,0,0,1,5.936,2.161A22.947,22.947,0,0,1,78.321,17.4a13.171,13.171,0,0,1,1.934,2.023A16.309,16.309,0,0,1,81.723,21.7a54.312,54.312,0,0,1,4.633,4.621c.746.848,1.438,1.7,2.058,2.547a30.485,30.485,0,0,1,1.79,2.715,34.751,34.751,0,0,1,2.762,6.074,46.826,46.826,0,0,1,1.719,6.515,65.822,65.822,0,0,1,.913,6.713c.18,2.06.293,4.241.344,6.667A115.929,115.929,0,0,1,93.9,81.614a29.392,29.392,0,0,1-1.427,5.17,19.008,19.008,0,0,1-2.589,4.686,24.432,24.432,0,0,1-4.3,4.37,26.258,26.258,0,0,1-5.221,3.213,30.292,30.292,0,0,1-6.027,2.065,28.574,28.574,0,0,1-6.347.729,24.953,24.953,0,0,1-6.157-.752,21.868,21.868,0,0,1-5.765-2.371,1.844,1.844,0,0,1-.889-2.156,2.278,2.278,0,0,1,.7-1.11,1.839,1.839,0,0,1,1.214-.471,1.993,1.993,0,0,1,.995.281,19.867,19.867,0,0,0,5.016,2.013,21.818,21.818,0,0,0,5.323.648,24.27,24.27,0,0,0,6.847-1,25.23,25.23,0,0,0,6.337-2.858,19.825,19.825,0,0,0,7.113-7.522,25.313,25.313,0,0,0,2.125-7.428l.233-1.359A112.526,112.526,0,0,0,92.727,54a65.874,65.874,0,0,0-1.469-12.044,39.293,39.293,0,0,0-1.792-5.806A29.538,29.538,0,0,0,86.682,30.8a41.04,41.04,0,0,0-3.96-5.011c-1.323-1.445-2.814-2.909-4.56-4.476-.2-.183-.422-.377-.666-.595a33.486,33.486,0,0,0-3.771-1.946l-.268-.116c-.851-.363-1.851-.748-2.675-1.029-1.268-.431-2.64-.845-4.077-1.228-.649-.173-1.336-.344-2.163-.536.306.282.537.5.749.706a24.716,24.716,0,0,1,1.846,2.093c.432.529.88,1.077,1.352,1.586a.152.152,0,0,1,.032.169.164.164,0,0,1-.147.1A.167.167,0,0,1,68.3,20.5a31.172,31.172,0,0,0-3.555-1.468c-.577-.211-1.174-.429-1.749-.659-1.251-.5-2.5-1.065-3.7-1.612-.394-.179-.8-.364-1.205-.545-.366-.164-.736-.341-1.094-.512l-.128-.061c-1.877.019-3.4.065-4.809.146a27.872,27.872,0,0,1,2.76,2.248,25.708,25.708,0,0,1,2.406,2.554.219.219,0,0,1,.03.231.181.181,0,0,1-.166.107.227.227,0,0,1-.056-.007,65.8,65.8,0,0,1-8.89-3.154l-1.393-.581c-.87-.044-1.676-.066-2.466-.066-.2,0-.41,0-.61,0l-.5.008a24.4,24.4,0,0,0-3.219.227c-.291.044-.53.079-.75.109A18.927,18.927,0,0,0,34.957,19.8l.339-.02c.4-.023.808-.035,1.207-.035a19.134,19.134,0,0,1,4.937.627,16.523,16.523,0,0,1,5.337,2.548,19.639,19.639,0,0,1,4.237,4.154.1.1,0,0,1,.008.1.135.135,0,0,1-.115.075.1.1,0,0,1-.055-.017A18.971,18.971,0,0,0,48.5,25.866a22.062,22.062,0,0,0-2.5-1.037,30.427,30.427,0,0,0-5.273-1.278,23.525,23.525,0,0,0-3.66-.294c-.545,0-1.089.021-1.617.062-.5.039-1.008.126-1.5.21a12.473,12.473,0,0,1-2.059.234,4.866,4.866,0,0,1-.834-.067c-.38.475-.762.984-1.135,1.515.227-.014.41-.025.577-.033.422-.02.844-.03,1.256-.03a21.6,21.6,0,0,1,4.955.544,19.129,19.129,0,0,1,5.615,2.388,37.147,37.147,0,0,1,4.9,3.675.058.058,0,0,1,.018.067.078.078,0,0,1-.07.05.064.064,0,0,1-.032-.009,19.145,19.145,0,0,0-5.357-2.031,43.513,43.513,0,0,0-5.691-.839c-1.346-.124-2.537-.184-3.642-.184-.734,0-1.448.027-2.122.081-.508.04-1.02.107-1.516.172-.362.047-.736.1-1.105.134-.055.006-.114.008-.17.011l-.048,0c-.609,1.151-1.19,2.375-1.729,3.638a15.775,15.775,0,0,1,4.084-.567c.285,0,.569.009.844.028a15.469,15.469,0,0,1,4.886,1.2,21.09,21.09,0,0,1,4.383,2.5.114.114,0,0,1,.036.127.081.081,0,0,1-.077.062.1.1,0,0,1-.036-.007,14.936,14.936,0,0,0-5.381-.939,24.294,24.294,0,0,0-3.379.258,26.333,26.333,0,0,0-4.175.887,15.721,15.721,0,0,0-2.015.747c-.21.1-.419.209-.622.316l0,0-.249.131c-.224.763-.436,1.569-.628,2.4a19.465,19.465,0,0,1,3.635.567,24.907,24.907,0,0,1,3.5,1.176,38.85,38.85,0,0,1,6.467,3.54.117.117,0,0,1,.043.132.1.1,0,0,1-.089.074.106.106,0,0,1-.038-.007,22.951,22.951,0,0,0-3.739-1.039c-1.145-.224-2.4-.4-3.849-.539-.867-.083-1.81-.124-2.884-.124-.94,0-1.894.03-2.817.059h-.01l-.94.029c-.121.86-.217,1.717-.285,2.546.283.08.563.164.834.246l.013,0,.2.06a20.208,20.208,0,0,1,3.25,1.3,18.423,18.423,0,0,1,2.9,1.841c.781.6,1.587,1.287,2.613,2.24a.125.125,0,0,1,.025.139.123.123,0,0,1-.109.085.109.109,0,0,1-.041-.008,39.006,39.006,0,0,0-6.255-1.779c-1.09-.238-2.186-.458-3.258-.655-.106-.02-.217-.036-.32-.052a44.938,44.938,0,0,0,.34,5.8l.047.361a4.244,4.244,0,0,1-.019,1.407,2.365,2.365,0,0,1-.6,1.181,7.242,7.242,0,0,1,3.035-1.161,8.438,8.438,0,0,1,1.162-.081,7.928,7.928,0,0,1,3.55.83A8.65,8.65,0,0,1,32.671,60.5a.112.112,0,0,1,.017.122.108.108,0,0,1-.1.063.113.113,0,0,1-.075-.031,6.54,6.54,0,0,0-4.384-1.545,7.828,7.828,0,0,0-2.479.4,6.61,6.61,0,0,0-2.688,1.722,6.93,6.93,0,0,0-1.595,2.774,8.321,8.321,0,0,0-.319,1.712,8.423,8.423,0,0,0,.434,3.42,8.144,8.144,0,0,0,.741,1.575,6.442,6.442,0,0,0,1.106,1.369,4.772,4.772,0,0,0,1.474.951,4.04,4.04,0,0,0,.412.138,2.207,2.207,0,0,1,.762-.132,3.16,3.16,0,0,1,1.293.307l.088.042c.171,0,.343,0,.508-.006.2,0,.417-.006.622-.006h.156a.968.968,0,0,1,.844.477,1.079,1.079,0,0,1,.024,1.049c.114.209.21.434.3.653.069.16.133.311.2.457.32.654.649,1.292.957,1.884a7.392,7.392,0,0,1,1.2,1.715,6.677,6.677,0,0,1,.326.83c.269.405.524.782.781,1.15a36.309,36.309,0,0,0,2.771,3.517c.375.417.791.813,1.194,1.2h0c.246.234.5.476.743.72a.543.543,0,0,1,.444.348l.052.182a7.827,7.827,0,0,1,.581.728,1.266,1.266,0,0,1,.247.834,1.285,1.285,0,0,1-.307.72,28.118,28.118,0,0,1-.558,10.4,51.626,51.626,0,0,1-1.77,6.364,12.889,12.889,0,0,1-1.467,2.989,9.955,9.955,0,0,1-1.3,1.579,14.1,14.1,0,0,1-.32,1.664,10.057,10.057,0,0,1-.87,2.221,9.773,9.773,0,0,1-1.288,1.838,12.307,12.307,0,0,1-3.528,2.687,21.063,21.063,0,0,1-4.3,1.629,37.54,37.54,0,0,1-4.475.886A4.136,4.136,0,0,1,18.554,122.135ZM27.139,80.7a33.758,33.758,0,0,1,1.226,5.955,62.529,62.529,0,0,1,.043,9.892l-.017.341a63.6,63.6,0,0,1-1.118,9.313,36.238,36.238,0,0,1-1.14,4.342,29.954,29.954,0,0,1-1.723,4.143c-.211.414-.442.828-.706,1.265A11.571,11.571,0,0,0,25.847,115,6.29,6.29,0,0,0,28,113.133a6.085,6.085,0,0,0,.76-1.762,10.734,10.734,0,0,0,.3-1.923c.2-2.58.326-5.209.445-7.751.039-.827.079-1.681.121-2.525l.038-.746c.023-.445.048-.918.068-1.3a97.439,97.439,0,0,0,.03-14.9,5.816,5.816,0,0,1-2.093-1.094C27.5,81,27.323,80.855,27.139,80.7Zm-5.822-6.482c.184,1.859.328,3.412.454,4.886.278,3.253.458,6.1.55,8.7.111,3.13.1,5.98-.031,8.711a75.078,75.078,0,0,1-.948,9.039c-.217,1.274-.491,2.627-.815,4.021l-.1.443c-.051.214-.1.432-.148.663h0a13.622,13.622,0,0,1-.465,1.768,3.789,3.789,0,0,1-.907,1.492l.008.2a21.34,21.34,0,0,0,1.826-3.4A28.142,28.142,0,0,0,22,106.91a39.267,39.267,0,0,0,.79-3.935c.4-2.65.594-5.373.78-8.006l0-.033c.089-1.259.17-2.54.249-3.779V91.15c.127-2,.258-4.058.423-6.086l.13-1.582c.142-1.747.279-3.612.261-5.508a7.388,7.388,0,0,1-.93-1.877,2.065,2.065,0,0,1-.07-.315,9.741,9.741,0,0,1-2.322-1.565Zm11.4,11.456h0a35.938,35.938,0,0,1,1,4.229,55.058,55.058,0,0,1,.722,6.815l.214-.806c.511-1.915,1.085-3.967,1.819-5.991a13.991,13.991,0,0,1-2.711-2.85l-.162-.206C33.305,86.487,33.007,86.086,32.718,85.674ZM16.659,23.592c-.349,1.13-.668,2.289-.976,3.409v0c-.072.261-.146.531-.22.8A68.542,68.542,0,0,0,13.542,37.9a116.944,116.944,0,0,0-.53,20.375c.382,7.2,1.249,14.306,2.046,20.309.268,2.019.549,4.071.821,6.055v0c.48,3.505.977,7.13,1.419,10.7.02-.6.035-1.138.044-1.646.061-3.452-.061-7.213-.374-11.5-.279-3.822-.68-7.7-1.069-11.449-.422-4.074-.858-8.286-1.139-12.442l-.048-.72c-.286-4.362-.335-6.745-.345-8.333a66.322,66.322,0,0,1,.417-8.318,51.933,51.933,0,0,1,1.72-8.34l.47-1.607c.361-1.227.678-2.252,1.056-3.267-.056-.107-.107-.212-.152-.311A18.565,18.565,0,0,1,16.659,23.592Zm-6.044,63.16c.438,1.967.891,4,1.325,6-.348-2.694-.723-5.43-1.085-8.075C10.174,79.709,9.469,74.568,8.916,69.5c-.621-5.687-.981-10.678-1.1-15.259-.1-3.691-.036-7.254.182-10.589A89.2,89.2,0,0,1,9.29,33.142l.077-.409a30.706,30.706,0,0,1,2.654-8.687A27.542,27.542,0,0,1,14.633,20a8.024,8.024,0,0,1,1.4-1.369,27.115,27.115,0,0,1,.35-5.643,20.448,20.448,0,0,1,1.666-5.392,70.179,70.179,0,0,0-5.619,8.336c-.843,1.486-1.607,2.993-2.27,4.478a46.883,46.883,0,0,0-1.822,4.749c-.588,1.83-1.1,3.732-1.535,5.653-.416,1.856-.763,3.784-1.033,5.729-.26,1.874-.455,3.821-.579,5.785-.12,1.885-.178,3.843-.174,5.819A111.7,111.7,0,0,0,5.686,59.8c.392,3.644.949,7.42,1.7,11.545.944,5.164,2.1,10.371,3.225,15.407v0ZM19.792,59.18c.039.421.08.85.12,1.264v.006l.02.206a8.324,8.324,0,0,1,1.452-1.583,1.909,1.909,0,0,1-.894.226,2.225,2.225,0,0,1-.537-.069l-.055-.016Zm-.457-29.8c-.177,1.482-.3,3.028-.364,4.6-.055,1.351-.086,2.823-.094,4.5l0,.644,0-.012a48.9,48.9,0,0,1,2.987-8.857,2,2,0,0,1-.327.026,2.78,2.78,0,0,1-.336-.022,3.61,3.61,0,0,1-1.418-.547A3.783,3.783,0,0,1,19.335,29.381Zm21-17.687c-.411.186-.822.388-1.219.584-.454.224-.923.455-1.393.662a39.533,39.533,0,0,0-5.084,2.691,34.8,34.8,0,0,0-4.672,3.406c-.16.141-.32.286-.474.426l-.033.03c-.036.356-.059.685-.07,1-.005.16-.007.34,0,.565a29.449,29.449,0,0,1,2.168-2.414,25.74,25.74,0,0,1,2.413-2.119,23.742,23.742,0,0,1,5.679-3.247c.674-.271,1.4-.531,2.217-.8A5.172,5.172,0,0,0,40.331,11.694Zm-1.769-3.81a6.915,6.915,0,0,0-1.089.092,10.436,10.436,0,0,0-2.038.547,12.3,12.3,0,0,0-3.9,2.421,12.372,12.372,0,0,0-1.665,1.887c.494-.279.99-.538,1.475-.769l.344-.163a21.284,21.284,0,0,1,6.035-2.018l.417-.058h0a14.154,14.154,0,0,1,1.942-.182,5.7,5.7,0,0,1,.605.031,2.487,2.487,0,0,0-.434-1.244C40.067,8.18,39.622,7.884,38.562,7.884ZM29.57,68.678a1.315,1.315,0,0,1-.833-.305c-.515-.417-1.018-.864-1.505-1.3A27.428,27.428,0,0,0,24.684,65a.252.252,0,0,1-.093-.281.2.2,0,0,1,.2-.144H24.8a11.067,11.067,0,0,1,3.032.526,8.29,8.29,0,0,1,2.7,1.471,1.152,1.152,0,0,1,.4.581,1,1,0,0,1-.03.6,1.4,1.4,0,0,1-.511.653A1.439,1.439,0,0,1,29.57,68.678Z" transform="translate(-5.06 5.918)"/>
  </g>
  <g id="FACE" transform="translate(112.183 77.354)">
    <path id="_Ink-3" data-name="ðŸ– Ink" d="M22.824,40.539a8.045,8.045,0,0,1-3.052-.61,8.621,8.621,0,0,1-1.992-1.145,8.487,8.487,0,0,1-1.622-1.636,1.676,1.676,0,0,1-.338-1.3,1.871,1.871,0,0,1,.728-1.172,1.793,1.793,0,0,1,1.067-.372,1.548,1.548,0,0,1,.238.018,1.648,1.648,0,0,1,1.1.73l.065.09A5.7,5.7,0,0,0,21.108,36.9a4.735,4.735,0,0,0,2.069.483,4.583,4.583,0,0,0,.513-.029,5.388,5.388,0,0,0,2.278-.8,10.668,10.668,0,0,0,1.93-1.611c.138-.141.284-.294.474-.5a.751.751,0,0,1,.394-.3.806.806,0,0,1,.256-.041.871.871,0,0,1,.714.373.8.8,0,0,1,.135.524,4.812,4.812,0,0,1-.57,1.864,6.221,6.221,0,0,1-1.22,1.567,7.841,7.841,0,0,1-1.847,1.288,7.69,7.69,0,0,1-2.05.7A7.548,7.548,0,0,1,22.824,40.539Zm2.148-12.17h0a7.373,7.373,0,0,1-2.63-.53,13.281,13.281,0,0,1-3.093-1.756,1.189,1.189,0,0,1-.432-.687,1.423,1.423,0,0,1,.061-.771,1.754,1.754,0,0,1,.521-.753,1.267,1.267,0,0,1,.812-.317,1.151,1.151,0,0,1,.628.193l.209.161,0,0a16.744,16.744,0,0,0,1.936,1.347,4.768,4.768,0,0,0,2.321.74,2.505,2.505,0,0,0,.981-.193,2.74,2.74,0,0,0,.913-.647,2.8,2.8,0,0,0,.531-2.255,4.26,4.26,0,0,0-1.13-2,8.241,8.241,0,0,0-1.711-1.381.531.531,0,0,1-.144-.61.8.8,0,0,1,.264-.38.809.809,0,0,1,.505-.167,1.076,1.076,0,0,1,.181.016,5.736,5.736,0,0,1,2.018.729,4.577,4.577,0,0,1,1.357,1.252,4.974,4.974,0,0,1,.866,3.322,5.475,5.475,0,0,1-.444,1.744,5.087,5.087,0,0,1-1,1.5A4.779,4.779,0,0,1,24.972,28.369ZM7.859,16.485a1.724,1.724,0,0,1-1.119-.439,1.744,1.744,0,0,1-.587-1.128,12.706,12.706,0,0,1,.067-3.308c.04-.321.081-.654.11-1.012a1.98,1.98,0,0,1,.75-1.415,2.31,2.31,0,0,1,1.421-.5,1.751,1.751,0,0,1,1.075.338,1.594,1.594,0,0,1,.594,1.057,8.877,8.877,0,0,1-.926,5.469,1.754,1.754,0,0,1-.619.716A1.427,1.427,0,0,1,7.859,16.485Zm25.119-.75a1.508,1.508,0,0,1-1.183-.507A4.624,4.624,0,0,1,31.074,14a5.342,5.342,0,0,1-.368-1.477,3.131,3.131,0,0,1,.853-2.687,1.772,1.772,0,0,1,.137-.208,1.933,1.933,0,0,1,1.487-.856,1.611,1.611,0,0,1,.452.067,2.175,2.175,0,0,1,1.453,1.268,4.486,4.486,0,0,1,.18,2.453,8.214,8.214,0,0,1-.744,2.314,1.5,1.5,0,0,1-.643.635A1.947,1.947,0,0,1,32.979,15.735ZM.278,7.854a.274.274,0,0,1-.229-.14.306.306,0,0,1-.018-.3A10.425,10.425,0,0,1,2.368,4.454,14.446,14.446,0,0,1,5.5,2.317a13.445,13.445,0,0,1,3.714-1.3l.4-.069A9.66,9.66,0,0,1,11.226.776a2.5,2.5,0,0,1,2,.746,1.7,1.7,0,0,1,.4,1.208,1.106,1.106,0,0,1-.4.789,3.08,3.08,0,0,1-2.112.62c-.166,0-.338,0-.5-.008H10.6c-.16,0-.341-.009-.521-.009s-.314,0-.452.012a14.274,14.274,0,0,0-3.143.536A21.357,21.357,0,0,0,.424,7.806.26.26,0,0,1,.278,7.854Zm38.247-1.6h0l-.167-.042A9.458,9.458,0,0,1,36.524,5.5l-.6-.293A16.537,16.537,0,0,0,33.8,4.3a25.089,25.089,0,0,0-4.845-1.07,1.979,1.979,0,0,1-.972-.369,1.457,1.457,0,0,1-.544-.828A1.482,1.482,0,0,1,27.609.786a1.581,1.581,0,0,1,.767-.661A1.725,1.725,0,0,1,29.03,0a1.926,1.926,0,0,1,.377.038l.3.062a21.676,21.676,0,0,1,5.232,1.7,10.579,10.579,0,0,1,2.3,1.514,6.719,6.719,0,0,1,1.627,2.1c.057.439,0,.548-.055.622L38.8,6.06l-.015.02a.421.421,0,0,1-.26.173Z" transform="translate(11.197 10.99)"/>
  </g>
  <g id="FACIAL_HAIR" data-name="FACIAL HAIR" transform="translate(104.577 109.479)">
    <path id="_Ink-4" data-name="ðŸ– Ink" d="M44.212,2.115c-.7-.94-1.959-2.174-3.232-2.108a.181.181,0,0,0-.126.3c.416.509.985.871,1.4,1.39a6.393,6.393,0,0,1,1.082,2.105,6.28,6.28,0,0,1,.13,3.429,6.537,6.537,0,0,1-4.027,4.114,6.38,6.38,0,0,1-5.688-.089C31.232,9.7,29.093,7.44,25.924,7.4a1.757,1.757,0,0,0-1.575.814A1.813,1.813,0,0,0,22.8,7.4c-3.553-.04-6.2,2.407-9.187,3.932-2.015,1.031-4.623.711-6.7.03-1.961-.642-4.09-1.932-4.83-3.969a5.225,5.225,0,0,1,.1-3.547A6.3,6.3,0,0,1,3.409,1.843C3.955,1.248,4.673.875,5.233.311a.181.181,0,0,0-.126-.3C2.731-.155.585,2.683.137,4.742a6.46,6.46,0,0,0,1.55,5.6C4.4,13.485,9.418,14.523,13.325,13.6c3.162-.748,6.166-2.471,9.472-2.224a1.647,1.647,0,0,0,1.559-.706,1.6,1.6,0,0,0,1.568.709c3.081-.3,5.831,1.884,8.822,2.417a10.083,10.083,0,0,0,6.994-1.431,7.557,7.557,0,0,0,3.733-6.059,6.67,6.67,0,0,0-1.261-4.191" transform="translate(20.282 0.634)"/>
  </g>
  <g id="ACCESORIES" transform="translate(88.521 88.978)">
    <path id="_Ink-5" data-name="ðŸ– Ink" d="M41.108,22.826c-.428,0-.86-.018-1.284-.055a12.675,12.675,0,0,1-4.289-1.143,13.739,13.739,0,0,1-3.263-2.146,14.8,14.8,0,0,1-2.224-2.45,10.035,10.035,0,0,1-1.17-2.058l-.051-.131c-.077-.2-.15-.406-.228-.623a9.813,9.813,0,0,0-.973-2.16,2.749,2.749,0,0,0-1.85-1.272l-.414-.074a4.881,4.881,0,0,1-1.251-.37,2.275,2.275,0,0,1-.976-.895,2.711,2.711,0,0,1-.374-1.232l-.909.067c-1.275.27-5.86.509-9.481.662-4.047.171-7.967.28-8.539.28a6.691,6.691,0,0,1-2.147.485A1.625,1.625,0,0,1,.678,9.435a1.684,1.684,0,0,1-.63-.871A1.51,1.51,0,0,1,.172,7.5,3.387,3.387,0,0,1,2.026,6.131,13.009,13.009,0,0,1,4.3,5.453c.054,0,5.447.045,10.426.045,5.271,0,8.191-.047,8.681-.14a3.911,3.911,0,0,1,2.633-.776c.255-.016.519-.033.767-.06a11.545,11.545,0,0,1,3.441-1.484c.241-.091.454-.17.653-.241a25.461,25.461,0,0,1,6.157-1.286c.772-.073,1.573-.111,2.379-.111a30.421,30.421,0,0,1,4.11.293c.958.13,1.841.291,2.7.491a39.969,39.969,0,0,1,4.784.969l.32.083a15.494,15.494,0,0,0,3.863.63,7.659,7.659,0,0,0,1.292-.106A17.218,17.218,0,0,0,60.6,2.382l.17-.077A29.105,29.105,0,0,1,71.368,0a31.673,31.673,0,0,1,7.591.909,10.266,10.266,0,0,0,1.235.241l.031,0a3.935,3.935,0,0,1,1.224.221,2.282,2.282,0,0,1,.882.587,1.843,1.843,0,0,1,.433.809,1.866,1.866,0,0,1-.007.9,2.02,2.02,0,0,1-.444.831c-.019.63-.007,1.28.007,1.969v0a19.33,19.33,0,0,1-.26,4.507,19.03,19.03,0,0,1-1,5.23,9.382,9.382,0,0,1-1.817,3.124,7.574,7.574,0,0,1-4.121,2.274,9.913,9.913,0,0,1-2.19.258A7.068,7.068,0,0,1,71.36,21.7a11.729,11.729,0,0,1-3.1-.54,11.9,11.9,0,0,1-4.581-2.692A11.343,11.343,0,0,1,62.25,16.83a10.358,10.358,0,0,1-1.75-3.974,13.874,13.874,0,0,1-.261-4.243l.023-.194a6.793,6.793,0,0,0-2.7-.492c-.319-.011-.607-.021-.9-.021-.164,0-.313,0-.454.009-.454.051-.873.116-1.279.2a3.353,3.353,0,0,0-1.309.739l-.028.535a27.538,27.538,0,0,1-.522,3.99,14.1,14.1,0,0,1-.842,2.789,7.556,7.556,0,0,1-1.568,2.367,7.789,7.789,0,0,1-1.732,1.844,11.369,11.369,0,0,1-3.693,1.855A14.373,14.373,0,0,1,41.108,22.826ZM45.872,4.779h0a.8.8,0,0,0-.589.255.988.988,0,0,0-.26.565.8.8,0,0,0,.111.519.755.755,0,0,0,.491.321,2.838,2.838,0,0,1,1.824,1.19l.045.07a.8.8,0,0,0,.692.4A.947.947,0,0,0,49,7.627a.746.746,0,0,0-.043-.784,4.534,4.534,0,0,0-2.88-2.04.946.946,0,0,0-.2-.023ZM76.752,3.667a.913.913,0,0,0-.759.426.8.8,0,0,0-.087.621.975.975,0,0,0,.355.514l.036.026A1.6,1.6,0,0,1,76.969,6.3l0,.052a.814.814,0,0,0,.289.614.922.922,0,0,0,.59.2.846.846,0,0,0,.612-.242.766.766,0,0,0,.2-.577A2.971,2.971,0,0,0,78.212,4.9a3.8,3.8,0,0,0-1.062-1.107A.685.685,0,0,0,76.752,3.667Z" transform="translate(0 3.17)"/>
  </g>
</svg>
