<svg id="peep-18" xmlns="http://www.w3.org/2000/svg" width="240" height="324" viewBox="0 0 240 324">
  <g id="BODY" transform="translate(31.056 135.053)">
    <path id="_Skin" data-name="âœ‹ Skin" d="M24.836,160.808c-2.92,0-5.548-.113-8.034-.346a59.074,59.074,0,0,1-7.971-1.27,2.544,2.544,0,0,1-.928.785,2.664,2.664,0,0,1-1.185.282,2.486,2.486,0,0,1-1.157-.284,2.646,2.646,0,0,1-.975-.9,3.745,3.745,0,0,1-.489-.812c-.254-.516-.494-1-1.044-1.157-.062-.049-.087-.1-.072-.142.025-.071.139-.11.235-.11a.275.275,0,0,1,.126.027,53.6,53.6,0,0,1-2.2-9A90.138,90.138,0,0,1,.121,137.543a162.187,162.187,0,0,1,.8-22.919C1.648,107.275,2.785,99.53,4.3,91.6c1.31-6.849,2.872-13.638,4.518-19.634a110.877,110.877,0,0,1,4.365-13.41c1.241-3.326,2.524-6.765,3.521-10.2.537-1.851.95-3.554,1.264-5.207a40.6,40.6,0,0,0,.669-5.336,27.067,27.067,0,0,0-.716-5.432,24.338,24.338,0,0,1-.7-6.136,8.045,8.045,0,0,1,.671-2.831,7.087,7.087,0,0,1,.771-1.31,8.047,8.047,0,0,1,1.13-1.221,5.642,5.642,0,0,1,.113-2.543,6.371,6.371,0,0,1,1.127-2.2,8.348,8.348,0,0,1,5.856-3.1,13.764,13.764,0,0,1,1.36-3.325A8.07,8.07,0,0,1,30.1,7.517a6.825,6.825,0,0,1,2.279-1.209,8.929,8.929,0,0,1,2.638-.37,15.571,15.571,0,0,1,3.546.455,31.448,31.448,0,0,1,3.852,1.2c2.644.989,5.448,2.318,8.16,3.6,2.549,1.208,5.184,2.458,7.609,3.381a30.192,30.192,0,0,0,3.5,1.124,14.329,14.329,0,0,0,3.174.458A51.826,51.826,0,0,0,67.136,11.2h0c.816-1.916,1.741-4.088,2.625-5.867a10.861,10.861,0,0,1,2.456-3.7A9.056,9.056,0,0,1,75.813.359,30.33,30.33,0,0,1,80.85,0,121.579,121.579,0,0,1,96.118,1.368h0c.713.1,1.386.187,1.969.262,1.551.2,2.868,1.273,4.025,3.284a33.042,33.042,0,0,1,2.865,7.79c2.815-.69,5.137-1.176,7.305-1.527a48.546,48.546,0,0,1,7.789-.686,33.13,33.13,0,0,1,3.7.2,26.219,26.219,0,0,1,3.6.657,21.663,21.663,0,0,1,3.443,1.2,19.317,19.317,0,0,1,3.215,1.828,6.519,6.519,0,0,1,1.637,2.162,5.352,5.352,0,0,1,.506,2.474,4.514,4.514,0,0,1-.546,1.966,5.03,5.03,0,0,1-1.51,1.673,11.143,11.143,0,0,1-1.489.769,4.2,4.2,0,0,0-1.668,1.021,43.44,43.44,0,0,0-1.7,5.123,17.311,17.311,0,0,0-.636,5.27c.583,5.215,1.265,10.541,2.085,16.282.73,5.113,1.554,10.441,2.517,16.286,1.79,10.858,3.8,21.884,5.75,32.547v.005c2.253,12.34,4.582,25.1,6.565,37.6l.143,1.289a45.725,45.725,0,0,1,.319,9.066,14.22,14.22,0,0,1-3.108,8.18,7.044,7.044,0,0,1-1.539.989,9.535,9.535,0,0,1-1.7.611,25.945,25.945,0,0,1-3.65.591c-.917.1-1.864.212-2.753.39-5.291.709-10.766,1.206-16.738,1.519-5.125.269-10.614.4-16.78.4-7.429,0-14.99-.191-22.3-.375h-.009c-7.312-.184-14.872-.375-22.309-.375-4.985,0-9.476.084-13.731.257-1.04.059-2.092.121-3.109.182-4.124.246-8.388.5-12.578.531l0-.048,0,.048C25.4,160.807,25.11,160.808,24.836,160.808ZM18.973,96.073h0a.842.842,0,0,0-.764.638.875.875,0,0,0,0,.515.839.839,0,0,0,.35.448c.42.276.854.544,1.273.8a19.686,19.686,0,0,1,3.424,2.474.909.909,0,0,0,.175.131c.023,12.454.659,25.108,1.275,37.345v.009c.23,4.577.468,9.31.671,13.963.112,2.581.213,5.135.3,7.591l.025.755c.549,0,1.119-.012,1.692-.024-.25-7.36-.62-14.838-.979-22.069v0c-.471-9.5-.958-19.328-1.177-29-.133-5.859-.149-11.129-.051-16.113a.775.775,0,0,0-.211-.573.864.864,0,0,0-.618-.243.9.9,0,0,0-.585.2.8.8,0,0,0-.276.612c-.031,1.572-.05,3.27-.058,5.346a31.208,31.208,0,0,0-2.746-1.855l-.005,0c-.419-.262-.852-.533-1.273-.808a.793.793,0,0,0-.437-.141ZM136.778,115.6h0a.887.887,0,0,0-.58.2.779.779,0,0,0-.263.613c.005,5.534.242,11.926.685,18.485.422,6.249,1.027,12.616,1.748,18.413a.876.876,0,0,0,.341.6,1.008,1.008,0,0,0,.609.2.781.781,0,0,0,.591-.239.7.7,0,0,0,.15-.565c-.722-5.8-1.326-12.164-1.748-18.413-.443-6.558-.68-12.951-.685-18.485a.779.779,0,0,0-.265-.612.89.89,0,0,0-.581-.2ZM57.906,129.7h0a.86.86,0,0,0-.408.108c-3.385,1.814-6.737,3.83-10.246,6.165-3.127,2.08-6.3,4.364-9.711,6.983a.909.909,0,0,0-.3,1.039.8.8,0,0,0,.705.589.731.731,0,0,0,.447-.168c3.408-2.618,6.584-4.9,9.711-6.983,3.509-2.335,6.86-4.351,10.246-6.165a.738.738,0,0,0,.395-.868.972.972,0,0,0-.3-.49.813.813,0,0,0-.539-.211Zm60.88-.915h0a.96.96,0,0,0-.85.486.662.662,0,0,0,.1.72,16.72,16.72,0,0,0,5.658,4.686.871.871,0,0,0,.4.1.831.831,0,0,0,.546-.21.975.975,0,0,0,.307-.487.718.718,0,0,0-.365-.845l-.034-.018a14.9,14.9,0,0,1-4.947-3.946l-.128-.163a.884.884,0,0,0-.69-.324ZM34,78.582a.725.725,0,0,0-.739.606,11.383,11.383,0,0,0-.19,3.421,23.032,23.032,0,0,0,.571,3.405l.035.147.071.293a.862.862,0,0,0,.815.621c.575.043,1.17.064,1.768.064,4.608,0,9.2-1.264,13.641-2.487.959-.264,1.95-.537,2.918-.79l.441-.115.44-.112a.775.775,0,0,0,.49-.343.833.833,0,0,0,.1-.533.85.85,0,0,0-.816-.783.934.934,0,0,0-.227.029l-.471.12c-1.092.282-2.212.591-3.3.89h-.005c-4.32,1.194-8.788,2.428-13.272,2.428-.349,0-.7-.008-1.039-.022l-.063-.275a19.478,19.478,0,0,1-.438-2.687,9.516,9.516,0,0,1,.122-2.686l.029-.138a.817.817,0,0,0-.153-.708A.964.964,0,0,0,34,78.582Zm86.632,1.411a.622.622,0,0,0-.45.191.892.892,0,0,0-.229.453.915.915,0,0,0,.542,1.052l.249.1a18.16,18.16,0,0,0,2.156.73,8.99,8.99,0,0,0,2.285.328,5.591,5.591,0,0,0,1.344-.156,4.472,4.472,0,0,0,1.258-.522,4.292,4.292,0,0,0,1.264-1.191,5.825,5.825,0,0,0,.76-1.551,12.175,12.175,0,0,0,.508-3.486l0-.173,0-.25a.785.785,0,0,0-.218-.574.875.875,0,0,0-.621-.243.8.8,0,0,0-.851.817l0,.213a11.9,11.9,0,0,1-.3,2.833,4.454,4.454,0,0,1-.55,1.3,2.745,2.745,0,0,1-.994.933,3.5,3.5,0,0,1-1.683.389,9.815,9.815,0,0,1-3.38-.806l-.322-.128-.464-.189a.823.823,0,0,0-.311-.066Z" transform="translate(13.521 -8.665)" fill="#d08b5b"/>
    <path id="_Jacket" data-name="ðŸ§¥ Jacket" d="M87.649,146.689l-1.543-4.342c-.107-.3-.213-.613-.334-.984l-.15-.465-.072-.233c-.063-.209-.125-.426-.2-.724l-.273-1.033L85,138.659c-.069-.251-.129-.449-.2-.663l-.082-.245-.06-.171c-.1-.287-.227-.6-.443-1.129l-.314-.762-.063-.155v-.124l.01-.41c.021-.948.017-1.983-.012-3.163l-.026-.905-.028-.776q0-.12-.01-.247l-.145-3.49-.28-7.751-.044-1.309c-.032-.98-.057-1.868-.079-2.714l-.019-.785-.006-.267c-.084-3.806-.112-7.747-.082-11.713.03-3.922.117-8,.259-12.117l.028-.8.029-.785c.242-6.48.573-12.433,1.073-19.3.475-6.515,1.127-14.224,2.182-25.779l.325-3.544.487-5.245.112-1.231c.235-2.6.392-4.508.526-6.376l.06-.853c.225-3.313.368-6.832.437-10.756l.011-.694-.3,1.06-.264-3.525a21.626,21.626,0,0,0-.413-2.973l-.044-.2-.086-.375-.067-.248a9.164,9.164,0,0,1,.6-2.351l.4-.1.487-.115a60.584,60.584,0,0,1,13.716-1.888,31.479,31.479,0,0,1,5.626.481l.173.032,4.782.89-4.851.366c-.226.017-.453.038-.676.063-.464.051-.926.116-1.373.193l-.291.052.125-.006c.321-.015.646-.022.967-.022a21.086,21.086,0,0,1,4.327.452,19.572,19.572,0,0,1,4.623,1.524l.164.081.211.108.1.049.081.037a1.468,1.468,0,0,1,.686.477.814.814,0,0,1,.157.659,1.162,1.162,0,0,1-.382.614,2.208,2.208,0,0,1-1.21.488c-.075.011-.152.021-.238.031l-.455.045a1.9,1.9,0,0,0-1.032.4,1.305,1.305,0,0,0-.46.864,1.474,1.474,0,0,0,.912,1.58l.043.012.055.013a1.691,1.691,0,0,1,.208.059l.048.019.106.043h0l0,0,.1.041.026.051.016.012a.423.423,0,0,1,.124.158l.034.067.028.1.008.031,0,.026v.008l.028.177.008.06,0,.039v2.711l-.695-1.391-.024.02a5.015,5.015,0,0,1-1.318.71l-.111.043-.29.107-.572.2-.132.049-.117.045c-.094.037-.173.071-.244.1a1.584,1.584,0,0,0-.289.17l-.049.038-.275.228-.678-.236-.221-.079-.658-.245-.563-.207c-.742-.271-1.4-.505-2.027-.715l-.776-.259-.566-.184-.633-.2-3.2-1.011-.616-.2c-.334-.108-.645-.21-.978-.321l-.6-.2-.579-.2c-1.792-.623-3.467-1.267-6.893-2.652l.7.4.517.292c.588.331,1.261.706,2.057,1.147l3.452,1.908.691.387,1.547.87.817.456c1.508.838,2.52,1.371,3.608,1.9.853.417,1.72.813,2.651,1.21l.345.146.529.22.417.181.283.124.186.08a4.308,4.308,0,0,0,1.654.434,2.273,2.273,0,0,0,.581-.077l.046-.013.044-.016,1.268-.486-.441,1.284c-.055.16-.1.3-.149.444l-.089.272-.072.143c-.421.836-.835,1.7-1.266,2.626l-.226.492-.131.1a.452.452,0,0,0-.128.158c-.169.33-.333.66-.488.982l-.165.347-.171.368c-.719,1.548-1.386,3.158-2.3,5.558L107,35.387l-.173.458c-1.418,3.741-2.769,7.535-4.018,11.279-2.473,7.4-4.69,15-6.588,22.609-1.9,7.633-3.512,15.423-4.778,23.153s-2.226,15.611-2.848,23.4c-.235,2.942-.407,5.909-.51,8.818l-.025.76-.081.672c-.066.553-.124,1.06-.178,1.549l-.033.3a80.914,80.914,0,0,0-.581,9.471c.01,1.42.054,2.709.132,3.943l.019.288.314,4.6ZM52.414,81.13H51.151c-.165-1.865-.368-3.78-.621-5.854a166.072,166.072,0,0,0-3.372-18.647l-.139-.569-.06-.245.125-.219a.641.641,0,0,0,.084-.41,13.784,13.784,0,0,0-.973-3.151l-.548-1.325-.123-.3-.009-.032c-.579-2.032-1.2-4.067-1.858-6.047l-.221-.663-.01-.031a75.651,75.651,0,0,0-3-8.875A61.944,61.944,0,0,0,37.493,28.7l-.207-.37-.019-.036a91.67,91.67,0,0,0-4.425-8.159l-.251-.407-.023-.066a1.156,1.156,0,0,0-.241-.408l-.041-.043-.052-.052-.115-.18-.916-.229a18.563,18.563,0,0,0-4.563-.545,24.834,24.834,0,0,0-3.693.29l-.2.03-.2.032a53.547,53.547,0,0,0-7.52,1.888L11.65,21.476l-.48.143-.454.134c-1.7.5-3.126.849-4.486,1.113L6.04,22.9l-.518.1-.256.047a13.857,13.857,0,0,1-2.428.264,6.389,6.389,0,0,1-1.214-.11l-.093-.018-.114-.025-.1-.025a1.731,1.731,0,0,1-1.193-.858,1.382,1.382,0,0,1-.12-.69,2.432,2.432,0,0,1,.23-.837,3.487,3.487,0,0,1,1.07-1.3,8.107,8.107,0,0,1,1.814-1.019l.21-.088.052-.021.055-.012a3.192,3.192,0,0,0,.988-.4,1.514,1.514,0,0,0,.65-.815,1.42,1.42,0,0,0-.039-1.019,1.593,1.593,0,0,0-1.344-.947.863.863,0,0,0-.324.06l-.425.169-.465.183-.287-.41c-.017-.025-.032-.048-.046-.072l-.022-.041-.014-.029-.035-.03-.035-.035a.641.641,0,0,1-.158-.3.7.7,0,0,1-.016-.112V14.47a2.71,2.71,0,0,1,.028-.345,2.651,2.651,0,0,1,.517-1.273,6.7,6.7,0,0,1,1.216-1.224l.167-.135.05-.04A8.847,8.847,0,0,1,9.152,9.429a5.78,5.78,0,0,1,1.305.145c.107.024.209.051.311.081l.105.032L11,9.729a1.329,1.329,0,0,0,.433.078,1.033,1.033,0,0,0,.973-.754,1.574,1.574,0,0,0,.066-.944,1.311,1.311,0,0,0-.5-.753l-.046-.032-.155-.1L11.592,7.1l-.2-.142L11.3,6.888l-.133-.1a4.718,4.718,0,0,1-1.153-1.143,1.589,1.589,0,0,1-.265-1.2l.011-.055.015-.064.027-.06.086-.184L9.977,3.9,10,3.847l.033-.045a4.033,4.033,0,0,1,1.783-1.181l.1-.04c.237-.1.767-.286,1.118-.412l.005,0c.174-.063.312-.112.36-.13l.011,0A27.56,27.56,0,0,1,17.939.64,28.33,28.33,0,0,1,22.67.029C23.117.01,23.57,0,24.016,0a30.125,30.125,0,0,1,7.872,1.034l.234.064.148.042a30.148,30.148,0,0,1,3.9,1.468l.416.187c.092.042.418.173.734.3l.008,0c.341.138.728.294.944.386l.073.031c1.716.754,2.529,1.5,2.721,2.489l.013.073a11.854,11.854,0,0,0,1.6,1.271l.153.1.145.093c.647.412,1.27.781,1.849,1.1l.157.085.109.057,1.046.359,1.293.448.259.089c1.368.466,2.148.7,3.094.934l.534.131c2.089.507,3.852.88,5.549,1.175,1.736.3,3.566.57,5.437.8l.631.077c.6.071,1.189.126,2.183.2l1.537.119,1.039.084-.553.884a29.923,29.923,0,0,0-1.983,3.773c-.6,1.344-1.179,2.861-1.835,4.773l-.14.41a125.3,125.3,0,0,0-3.307,12.176c-1.035,4.38-1.992,8.84-2.845,13.257s-1.623,8.912-2.29,13.357c-.921,6.142-1.676,12.339-2.243,18.419l-.08.874Z" transform="translate(30.847 -2.526)" fill="#fff"/>
    <path id="_Top" data-name="ðŸ‘• Top" d="M33.965,0l-.038.287-.036.287c-1.035,8.243-1.908,18.616-2.668,26.886C29.705,43.948,28.776,60.5,28.9,77.064c.034,4.283.189,8.552.386,12.828l.043.916a62.02,62.02,0,0,0,1.859,14.08,1.211,1.211,0,0,0,.83.886c.015.524.045,1.05.081,1.57l.027.389c.15,2.1.579,6.472,1.5,8.378a8.427,8.427,0,0,0,4.282,4.147,8.529,8.529,0,0,0,1.623.5C28,121,12.851,120.625,1.3,120.346A2.488,2.488,0,0,0,3.337,118a10.358,10.358,0,0,0-1.627-6.987,2.767,2.767,0,0,0-.488-.56l.032-1.345c.023-1.009.033-2.018-.024-3.026-.123-2.223-.306-4.447-.467-6.668C.439,94.962.187,90.5.088,86.045q-.3-13.378.45-26.753A357.81,357.81,0,0,1,7.761,4.3c.281-1.268.564-2.536.858-3.8,3,1.558,8.335,2.118,11.611,2.139A36.822,36.822,0,0,0,33.965,0Z" transform="translate(83.324 31.079)" fill="#e86bbb"/>
    <path id="_Ink" data-name="ðŸ– Ink" d="M15.144,159.695a24.248,24.248,0,0,1-4.717-.391,9.41,9.41,0,0,1-3.291-1.309,8.6,8.6,0,0,1-2.518-2.476,7.144,7.144,0,0,1-1.181-3.189,1.192,1.192,0,0,1-.283.034,1.26,1.26,0,0,1-.663-.188,1.093,1.093,0,0,1-.453-.562c-.12-.333-.243-.667-.362-.989l0-.005a22.289,22.289,0,0,1-1.606-6.075,25.426,25.426,0,0,1,0-3.724c.073-1.083.2-2.225.411-3.7A92.8,92.8,0,0,1,3.36,124.979c.194-.679.395-1.382.59-2.076.321-1.142.656-2.3.98-3.422h0c.86-2.972,1.749-6.045,2.453-9.112a62.934,62.934,0,0,0,1.147-6.642c.257-2.173.41-4.436.454-6.728.039-2.042.029-4.117.018-6.125-.014-2.629-.028-5.346.071-8.019A117.454,117.454,0,0,1,10.2,70.507a83.546,83.546,0,0,1,6.853-23.593,73.466,73.466,0,0,1,5.905-10.532,44.884,44.884,0,0,1,3.718-4.7c.565-.624,1.179-1.289,1.832-1.927a6.6,6.6,0,0,1-1.751-.844,5.252,5.252,0,0,1-1.327-1.3,4.663,4.663,0,0,1-.751-1.71,5.451,5.451,0,0,1-.023-2.087,6.525,6.525,0,0,1,2.366-3.893c.047-.039.1-.079.157-.12a4.392,4.392,0,0,1-.593-1.614,4.942,4.942,0,0,1,.033-1.663,6.4,6.4,0,0,1,.535-1.608,7.766,7.766,0,0,1,.912-1.45,11.42,11.42,0,0,1,1.437-1.5,11.954,11.954,0,0,1,1.69-1.232,11.826,11.826,0,0,1,1.877-.916,11.1,11.1,0,0,1,2-.558l-.025-.074-.006-.019,0-.012-.028-.081a4.371,4.371,0,0,1,0-2.736A4.782,4.782,0,0,1,36.592,4.1c2.044-1.628,4.948-2.79,8.88-3.553A30.273,30.273,0,0,1,51.216,0a32.315,32.315,0,0,1,4.365.3A27.027,27.027,0,0,1,60.189,1.36l.108.035A23.237,23.237,0,0,1,64.812,3.2a15.891,15.891,0,0,1,3.453,2.456A4.845,4.845,0,0,1,69.386,7.37a3.374,3.374,0,0,1,.058,2.08.3.3,0,0,1-.289.236.362.362,0,0,1-.354-.322c-.142-1.3-2-2.033-3.355-2.569-.289-.114-.561-.222-.784-.322a30.638,30.638,0,0,0-4.371-1.664,29.446,29.446,0,0,0-7.935-1.075c-.438,0-.881.01-1.318.029a27.7,27.7,0,0,0-4.608.593A26.924,26.924,0,0,0,41.99,5.72c-.149.06-.341.128-.564.206-.952.333-2.389.836-2.677,1.6a1.156,1.156,0,0,0,.366,1.15,6.009,6.009,0,0,0,1.122.955c.138.1.267.184.384.262a1.919,1.919,0,0,1,.781,1.071,2.246,2.246,0,0,1-.015,1.266,1.978,1.978,0,0,1-.584.927,1.549,1.549,0,0,1-1.026.383,1.975,1.975,0,0,1-.645-.115,4.308,4.308,0,0,0-.473-.135,5.16,5.16,0,0,0-1.165-.13,7.023,7.023,0,0,0-2.623.548,9.436,9.436,0,0,0-2.3,1.34A4.01,4.01,0,0,0,30.861,17.3c-.025.224-.03.282-.017.3s.011,0,.019,0h0c.023,0,.072,0,.137.176a.382.382,0,0,0,.047.093l.02-.008.008,0,.392-.156a1.515,1.515,0,0,1,.569-.109,2,2,0,0,1,1.147.4,2.334,2.334,0,0,1,.769.928,2.052,2.052,0,0,1,.061,1.473,2.151,2.151,0,0,1-.923,1.158,3.825,3.825,0,0,1-1.183.474,8.631,8.631,0,0,0-1.611.835,3.186,3.186,0,0,0-1.146,1.25,1.169,1.169,0,0,0-.1,1.01c.133.262.439.435.962.543a5.714,5.714,0,0,0,1.172.11,16.575,16.575,0,0,0,2.987-.375l.1-.018a50.535,50.535,0,0,0,5.066-1.268c.829-.246,1.676-.507,2.5-.76,2.129-.657,4.33-1.336,6.522-1.841,1.181-.272,2.261-.472,3.3-.611a24.885,24.885,0,0,1,3.326-.232,19.212,19.212,0,0,1,4.723.564c-.078-.189-.156-.384-.224-.556a.287.287,0,0,1,.02-.278.392.392,0,0,1,.321-.153.364.364,0,0,1,.31.156c.316.471.634.961.947,1.454a1.78,1.78,0,0,1,.437.7,91.9,91.9,0,0,1,4.671,8.566,62.625,62.625,0,0,1,3.177,6.5,76.294,76.294,0,0,1,3.021,8.948c.738,2.2,1.44,4.468,2.087,6.738.125.313.256.626.382.929a17.35,17.35,0,0,1,1.287,3.955,1.266,1.266,0,0,1-.158.824c.77,3.138,1.459,6.365,2.047,9.593.579,3.18,1.076,6.442,1.477,9.7.254,2.081.458,4,.623,5.876.578-6.383,1.361-12.887,2.328-19.33.669-4.455,1.441-8.959,2.295-13.387s1.812-8.893,2.85-13.279,2.012-8.357,3.323-12.233c.64-1.891,1.178-3.329,1.747-4.661a31.877,31.877,0,0,1,2.273-4.428c-.322-.026-.649-.051-.966-.075-.967-.074-1.967-.15-2.943-.269-2.052-.249-4.049-.541-5.937-.867-1.845-.32-3.792-.738-6.127-1.315-1.471-.361-2.925-.868-4.332-1.359h0c-.477-.166-.971-.338-1.458-.5a.227.227,0,0,1-.166-.256A.243.243,0,0,1,73.254,12a.305.305,0,0,1,.049,0c3.889.647,7.7,1.053,12.283,1.518l.316.032.136.014c2.87.29,5.839.59,8.757.59.621,0,1.228-.014,1.8-.041.373-.017.749-.04,1.118-.07.041,0,.081,0,.122,0a1.3,1.3,0,0,1,1.133.649,1.806,1.806,0,0,1,.089,1.7c-.27.536-.549,1.08-.82,1.605l0,.008c-.781,1.518-1.588,3.087-2.261,4.685A61.372,61.372,0,0,0,93.7,29.245c-.718,2.444-1.42,5.113-2.146,8.158l.3.06.066.013c1.1.223,2.239.452,3.374.582a33.685,33.685,0,0,0,3.872.228c.62,0,1.248-.018,1.866-.054a27.7,27.7,0,0,0,5.66-.923,25.676,25.676,0,0,0,5.328-2.107,1.823,1.823,0,0,1,.865-.229,1.638,1.638,0,0,1,.487.074c.368-2.616.775-5.212,1.209-7.716v-.055c.063-1.584.214-3.187.36-4.738h0c.13-1.39.265-2.827.337-4.245.047-.919.067-1.863.086-2.776v0c.032-1.483.064-3.016.212-4.5a.2.2,0,0,1,.013-.12c.045-.444.1-.848.156-1.236a.093.093,0,0,1,.1-.085.143.143,0,0,1,.131.085,13.912,13.912,0,0,1,.463,1.425c1.278.5,2.571,1.023,3.822,1.53h0c2.783,1.128,5.661,2.294,8.559,3.265,1.122.376,2.269.737,3.379,1.086h0c1.083.341,2.2.693,3.3,1.059.992.33,2.045.706,3.416,1.22.2.074.394.143.584.209l.1.034a2.173,2.173,0,0,1,.478-.3c.247-.114.539-.217.848-.327a3.948,3.948,0,0,0,2.273-1.41.516.516,0,0,0,.01-.131.225.225,0,0,1,0-.074s0,0,.008.024l-.019-.1c-.007-.034-.013-.067-.017-.089a.717.717,0,0,0,.025.108c0-.012-.011-.088-.034-.226h0a.052.052,0,0,1-.005.035.008.008,0,0,1-.006,0c-.015,0-.038-.033-.054-.063a.989.989,0,0,0-.156-.047,1.839,1.839,0,0,1-1.182-.866,2.278,2.278,0,0,1-.318-1.432,1.915,1.915,0,0,1,.69-1.281,2.554,2.554,0,0,1,1.366-.535l.168-.016h0a2.54,2.54,0,0,0,1.373-.387c.137-.124.2-.231.182-.328-.025-.164-.258-.272-.506-.386h0c-.074-.034-.15-.069-.22-.106a18.467,18.467,0,0,0-4.8-1.638,20.453,20.453,0,0,0-4.2-.438c-.311,0-.626.007-.937.022a15.98,15.98,0,0,0-2.3.339,13.877,13.877,0,0,1-2.593.344.144.144,0,0,1-.131-.1.121.121,0,0,1,.034-.139,7.206,7.206,0,0,1,2.8-1.239l.1-.029A21.431,21.431,0,0,1,136,7.992a20.632,20.632,0,0,1,7.086.448l.141.034c2.037.489,4.827,1.158,5.058,3.608a3.533,3.533,0,0,1-.259,1.757,3.981,3.981,0,0,1-.975,1.333,5.473,5.473,0,0,1,.416,1.431,5.021,5.021,0,0,1,.01,1.454,4.751,4.751,0,0,1-.5,1.525,5.818,5.818,0,0,1-.941,1.3,8.243,8.243,0,0,1-2.711,1.847c0,.037-.011.075-.017.109v.008l-.007.039A50.036,50.036,0,0,1,141.8,28.5c-.324,1.042-.663,2.1-1.008,3.153a50.3,50.3,0,0,1,6.17,8.589,63.142,63.142,0,0,1,4.454,9.607,72.317,72.317,0,0,1,2.347,7.715c.605,2.448,1.126,5.02,1.591,7.861.865,5.279,1.4,10.714,1.923,15.97.585,5.911,1.19,12.022,2.262,17.947.925,5.11,2.349,10.18,3.725,15.084.883,3.146,1.8,6.4,2.57,9.634.555,2.32.994,4.381,1.341,6.3.411,2.265.7,4.351.883,6.378a49.629,49.629,0,0,1,.188,6.123q-.005.156-.01.315a11.516,11.516,0,0,1-.4,3.2.4.4,0,0,1-.017.046,3.254,3.254,0,0,1,.391.862,4.5,4.5,0,0,1,.086,1.584,10.284,10.284,0,0,1-.381,1.943,5.185,5.185,0,0,1-1.691,2.9,8.887,8.887,0,0,1-3.9.9l-.1.008c-1.033.081-2.085.161-3.1.239H159.1l-1.509.115c-3.6.276-7.253.569-10.79.853h-.012c-7.347.589-14.944,1.2-22.42,1.686l-.674.046c-.883.061-1.8.124-2.69.124a10.466,10.466,0,0,1-4.206-.738,8.235,8.235,0,0,1-2.518-1.68,8.668,8.668,0,0,1-1.764-2.467,15.761,15.761,0,0,1-1.036-4.115c-.258-1.706-.4-3.4-.46-4.263-.044-.619-.088-1.285-.108-1.959a1.215,1.215,0,0,1-.83-.886,42.85,42.85,0,0,1-1.333-6.978c-.281-2.428-.419-4.848-.526-7.1-.341-7.177-.408-11.115-.429-13.744-.118-15.148.64-31.374,2.318-49.6.815-8.864,1.688-16.967,2.668-24.772.021-.178.046-.361.067-.523l.007-.051a28.972,28.972,0,0,1-5.69,1.955,26.838,26.838,0,0,1-5.982.683h-.161a26.962,26.962,0,0,1-5.065-.493A18.265,18.265,0,0,1,91.1,39.307c-.3,1.291-.589,2.59-.858,3.8-.955,4.309-1.834,8.717-2.613,13.1-.771,4.34-1.466,8.778-2.065,13.19-.593,4.367-1.108,8.829-1.532,13.263-.419,4.389-.76,8.871-1.013,13.321-.251,4.426-.416,8.925-.49,13.372s-.061,8.935.04,13.381c.089,3.988.31,8.36.676,13.366.044.614.092,1.253.135,1.817v0c.119,1.589.243,3.233.332,4.849.069,1.22.038,2.462.008,3.663-.006.231-.012.47-.017.707a2.768,2.768,0,0,1,.488.56,10.338,10.338,0,0,1,1.438,3.348,10.158,10.158,0,0,1,.189,3.639,2.977,2.977,0,0,1-.726,1.667,2.183,2.183,0,0,1-.712.507,2.539,2.539,0,0,1-.944.208l-20.212.735c-7.929.29-15.986.634-23.778.967l-1.069.046c-.25-7.725-.639-15.573-1.015-23.163v0c-.471-9.5-.958-19.328-1.177-29-.133-5.863-.149-11.133-.051-16.113a.775.775,0,0,0-.211-.573.864.864,0,0,0-.618-.243.9.9,0,0,0-.585.2.8.8,0,0,0-.276.612c-.031,1.574-.05,3.272-.058,5.346a31.224,31.224,0,0,0-2.745-1.854l0,0c-.42-.262-.854-.534-1.276-.811a.793.793,0,0,0-.437-.141.843.843,0,0,0-.765.638.875.875,0,0,0,0,.515.839.839,0,0,0,.35.448c.419.275.853.543,1.272.8a19.7,19.7,0,0,1,3.425,2.474.91.91,0,0,0,.175.131c.023,12.455.659,25.108,1.275,37.345v.006c.23,4.578.468,9.311.671,13.966.142,3.263.263,6.455.361,9.489-2.78.119-6.017.257-9.256.39-2.123.088-4.279.163-6.364.236l-2.479.087-.294.011h-.017C17.254,159.656,16.192,159.695,15.144,159.695Zm132.591-47.082a.886.886,0,0,0-.58.2.779.779,0,0,0-.263.612c.005,5.534.242,11.926.685,18.485.422,6.249,1.027,12.616,1.748,18.413a.875.875,0,0,0,.341.6,1.008,1.008,0,0,0,.609.2.781.781,0,0,0,.591-.239.7.7,0,0,0,.15-.565c-.722-5.8-1.326-12.164-1.748-18.413-.443-6.559-.68-12.951-.685-18.485a.78.78,0,0,0-.265-.612A.89.89,0,0,0,147.735,112.612Zm-30.4-97.829a.344.344,0,0,1,.24.1.281.281,0,0,1,.082.2c-.041,5.3-.193,9.719-.477,13.906-.255,3.73-.608,7.514-.949,11.174v0c-.085.908-.161,1.726-.236,2.542-.7,7.61-1.494,16.235-2.148,24.662-.715,9.207-1.192,17.291-1.459,24.712-.151,4.18-.246,8.316-.282,12.294-.038,4.17-.012,8.307.077,12.3.065,2.923.174,5.892.28,8.763v.036c.042,1.143.086,2.324.126,3.487.027.789.062,1.6.1,2.376v.013c.1,2.348.205,4.777.134,7.156v0c.073.18.15.367.218.531.243.587.494,1.194.7,1.813.164.5.3,1.021.431,1.523h0c.123.471.251.957.4,1.428.135.421.3.921.477,1.429-.091-1.332-.141-2.728-.152-4.269a83.784,83.784,0,0,1,.585-9.544c.087-.795.181-1.613.289-2.5.1-3.163.281-6.386.537-9.581.312-3.913.712-7.875,1.187-11.777s1.037-7.833,1.673-11.71c1.269-7.736,2.878-15.532,4.784-23.171,1.9-7.619,4.123-15.242,6.6-22.657,1.251-3.751,2.606-7.554,4.027-11.3.189-.5.379-1.005.563-1.494v0c.951-2.531,1.934-5.149,3.087-7.63-.075-.088-.148-.173-.211-.245a.186.186,0,0,1-.033-.206.194.194,0,0,1,.171-.115.186.186,0,0,1,.128.055l.127.12c.207-.438.427-.885.653-1.327a1.09,1.09,0,0,1,.315-.378c.487-1.061.956-2.039,1.434-2.99.129-.259.266-.519.4-.771v0l.044-.084a1.474,1.474,0,0,1-.325.127,2.9,2.9,0,0,1-.733.094,6.018,6.018,0,0,1-2.363-.678c-.187-.082-.38-.167-.572-.246-1.213-.5-2.33-1-3.416-1.532-1.8-.877-3.57-1.874-5.284-2.839l-.72-.4c-.962-.54-1.945-1.081-2.894-1.6-2.776-1.53-5.646-3.112-8.36-4.843a21.9,21.9,0,0,1,.471,3.263A.276.276,0,0,1,117.334,14.784ZM68.862,126.712a.86.86,0,0,0-.408.108c-3.386,1.814-6.737,3.831-10.246,6.165-3.127,2.08-6.3,4.364-9.711,6.983a.909.909,0,0,0-.3,1.039.8.8,0,0,0,.705.589.731.731,0,0,0,.447-.168c3.408-2.619,6.585-4.9,9.711-6.983,3.509-2.335,6.86-4.351,10.246-6.165a.738.738,0,0,0,.395-.868.971.971,0,0,0-.3-.489A.812.812,0,0,0,68.862,126.712Zm60.88-.916a.96.96,0,0,0-.85.487.661.661,0,0,0,.1.72,16.718,16.718,0,0,0,5.657,4.686.871.871,0,0,0,.4.1.832.832,0,0,0,.552-.216.972.972,0,0,0,.3-.5.721.721,0,0,0-.4-.847,14.825,14.825,0,0,1-5.051-4.079A.885.885,0,0,0,129.742,125.8ZM44.954,75.59a.725.725,0,0,0-.74.607,16.329,16.329,0,0,0,.487,7.267.862.862,0,0,0,.815.62c.575.043,1.17.064,1.768.064,4.608,0,9.2-1.264,13.64-2.486,1.25-.344,2.542-.7,3.8-1.017a.775.775,0,0,0,.49-.343.833.833,0,0,0,.1-.533.85.85,0,0,0-.816-.783.932.932,0,0,0-.227.029c-1.249.315-2.531.669-3.771,1.012-4.321,1.194-8.788,2.428-13.272,2.428-.349,0-.7-.008-1.039-.023a13.354,13.354,0,0,1-.349-5.786.817.817,0,0,0-.153-.708A.963.963,0,0,0,44.954,75.59ZM131.586,77a.623.623,0,0,0-.451.191.893.893,0,0,0-.229.453.914.914,0,0,0,.542,1.052,13.005,13.005,0,0,0,4.69,1.159,5.588,5.588,0,0,0,1.344-.156,4.471,4.471,0,0,0,1.258-.522,4.313,4.313,0,0,0,1.326-1.281,6.08,6.08,0,0,0,.765-1.675,13.753,13.753,0,0,0,.448-3.7.785.785,0,0,0-.218-.574.875.875,0,0,0-.621-.243.8.8,0,0,0-.851.817,12.973,12.973,0,0,1-.27,2.927,4.635,4.635,0,0,1-.549,1.366,2.762,2.762,0,0,1-1.025.982,3.5,3.5,0,0,1-1.682.389,11.77,11.77,0,0,1-4.144-1.114l-.022-.009A.822.822,0,0,0,131.586,77Z" transform="translate(2.535 -5.612)"/>
  </g>
  <g id="HEAD" transform="translate(78.592 38.043)">
    <path id="_Skin-2" data-name="âœ‹ Skin" d="M76.192,25.329c-.071-2.527-3.738-3.577-4.8-1.074-.066.067-.137.131-.2.189.332-.285-.362.187-.475.245-.1.05-.2.095-.294.141-.681-6.4-2.995-13.3-8.972-16.519C53.114,4.26,43.481,3.469,34.335,3.871c-4.633.276-9.983,1.018-14.1-1.332C18.953,1.808,17.924.655,16.475.2,11.9-1.038,9.824,3.672,10.447,7.545a5.291,5.291,0,0,0-4.73,2.882c-.495,1.055-.486,2.194-.912,3.254C3.5,16.367,1.624,18.3,2.683,21.555c-1.862,2.124-.8,5.339.7,7.373a21.756,21.756,0,0,1,2.169,3.257c.527,1.133-.269,2.478-.712,3.552C1.566,43.524,1.753,52.1,3.516,60.225A6.282,6.282,0,0,0,1.223,69.6a8.364,8.364,0,0,0,2.86,2.127c1.39.767.255,3.838.7,5.321.6,3.621,3.893,5.851,7.145,3.5,2.064-.313,3.728,5.706,5.226,7.217a24.163,24.163,0,0,0,3.063,3.319c3.32,8.565,20.335,12.908,28.747,12.412,8.809-.925,14.752-8.425,19.7-15.081A26.414,26.414,0,0,0,73.46,76.572a56.437,56.437,0,0,0-.069-13.067c-.857-9.256-2.21-22.592-3.083-31.948a6.351,6.351,0,0,0,5.884-6.228Z" transform="translate(14.547 5.072)" fill="#d08b5b"/>
    <path id="_Hair" data-name="ðŸ’ˆ Hair" d="M8.857,61.432a.122.122,0,0,1-.107-.061c-.021-.036-.028-.058-.021-.07s.018-.013.041-.013a.859.859,0,0,1,.109.013l.051.007.06.008A.13.13,0,0,1,8.857,61.432Zm.328-.1a1.651,1.651,0,0,1-.2-.012.134.134,0,0,0,0-.043,6.94,6.94,0,0,0-1.724-3.019,6.7,6.7,0,0,0-2.92-1.744,2.379,2.379,0,0,0-.424-1.71l-.141-.66-.13-.618a41.327,41.327,0,0,1-.713-4.362,41.772,41.772,0,0,1-.082-6.683,37.855,37.855,0,0,1,.546-4.32c.269-1.5.607-2.982.9-4.238l.071-.3.52-2.19a21.29,21.29,0,0,0,3.926.72c.719.064,1.463.1,2.21.1s1.5-.032,2.272-.094l.049.135a1.078,1.078,0,0,0,.037.73,4.778,4.778,0,0,0,.444.908,15.166,15.166,0,0,0-.481-1.639.673.673,0,0,1,.251-.309,31.75,31.75,0,0,1,7.715-3.109,53.5,53.5,0,0,1,5.245-1.254,27.573,27.573,0,0,1,4.827-.509c.189,0,.376,0,.554.01.66.025,1.365.085,2.1.179-.285.05-.582.106-.883.167l-.283.059-.282.06c-2.347.512-4.728,1.206-7.031,1.876a66.613,66.613,0,0,1-11.513,2.625,16.814,16.814,0,0,1,2.036,10.4,15.124,15.124,0,0,1-.918,3.5,30.152,30.152,0,0,1-1.54,3.272l-.22.413-.133.253a17.758,17.758,0,0,0-1.211,2.776,9.827,9.827,0,0,0-.5,3v.067a1.873,1.873,0,0,1-.34,1.037c0-.177,0-.355,0-.543V56.25c0-1.022,0-2.181.1-3.209a5.633,5.633,0,0,1,.722-2.554l.081-.122c1.082-1.679,1.385-3.925,1.707-6.3a21.276,21.276,0,0,1,1.577-6.489c.335-.689-.37-1.771-1.052-2.818-.181-.277-.367-.563-.527-.833a14.5,14.5,0,0,1-.89,9.364A27.391,27.391,0,0,1,10.7,46.974c-1.931,2.849-3.927,5.795-3.036,9.25a1.843,1.843,0,0,0,.716,1.07,1.953,1.953,0,0,0,1.133.344,2.218,2.218,0,0,0,.952-.215,1.952,1.952,0,0,0,.752-.624,10.249,10.249,0,0,1-.2,2.536C10.592,60.657,9.975,61.327,9.185,61.327Zm58.76-30.308-.047-.2-.049-.2.019,0,.041,0,.037.394Zm-64.83-.07h0l-.031-.066-.046-.093.148.06-.071.1Zm46.808-.2c-.425,0-.872-.014-1.33-.041a31.564,31.564,0,0,1-5.742-1.346,59.589,59.589,0,0,0-8.817-2.068,27.375,27.375,0,0,1,4.7-.438,18.608,18.608,0,0,1,4.173.448,14.035,14.035,0,0,1,3.912,1.528.072.072,0,0,0,.036.011.066.066,0,0,0,.061-.049.071.071,0,0,0-.028-.082,16.3,16.3,0,0,0-2.659-1.56A17.606,17.606,0,0,0,41.4,26.122a20.706,20.706,0,0,0-2.951-.565,25.7,25.7,0,0,0-3.028-.173,42.168,42.168,0,0,0-9.11,1.14l-.395.089-.388.089c-.841.195-1.7.405-2.537.609a49.066,49.066,0,0,1-11.455,1.861,19.2,19.2,0,0,1-5.473-.746,13.433,13.433,0,0,1-2.456-.984A10.863,10.863,0,0,1,1.43,25.948l-.11-.1a3.538,3.538,0,0,1-1.3-1.924.8.8,0,0,1,.133-.668.705.705,0,0,1,.257-.2c.049-.025.081-.042.081-.061s-.016-.026-.05-.043a1.856,1.856,0,0,0,.811.195,1.69,1.69,0,0,0,1.074-.389,1.881,1.881,0,0,0,.616-.923,1.564,1.564,0,0,0-.017-.963,1.658,1.658,0,0,0-.7-.844l-.129-.08a2.664,2.664,0,0,1-1.11-1.34,2.512,2.512,0,0,1-.04-1.555,2.706,2.706,0,0,1,.923-1.369,2.753,2.753,0,0,1,1.717-.574H3.6l.137,0h.006a1.532,1.532,0,0,0,.85-.238,1.5,1.5,0,0,0,.524-.6,1.947,1.947,0,0,0-.215-2l-.078-.1a2.074,2.074,0,0,1-.45-1.089,1.946,1.946,0,0,1,.2-1.027,2.456,2.456,0,0,1,.888-.975A2.421,2.421,0,0,1,6.754,8.7a2.188,2.188,0,0,1,1.077.282l.108.062a1.492,1.492,0,0,0,.729.2,1.736,1.736,0,0,0,1.549-1.173,7.268,7.268,0,0,0,.453-2.3,21.509,21.509,0,0,0-.058-2.333c-.028-.463-.058-.941-.068-1.413l0-.133,0-.222V1.493l0-.116a1.765,1.765,0,0,1,.3-1.126A.86.86,0,0,1,11.464,0,3.265,3.265,0,0,1,13.12.754l.147.11.421.321c.279.216.557.44.826.657a20.473,20.473,0,0,0,2.054,1.521,19.438,19.438,0,0,0,3.589,1.705,22.071,22.071,0,0,0,3.721.984,30.663,30.663,0,0,0,3.829.417c.463.023.947.034,1.44.034a71.873,71.873,0,0,0,9.316-.845l.067-.009A72.567,72.567,0,0,1,48.038,4.8a24.443,24.443,0,0,1,6.073.688,18.073,18.073,0,0,1,2.9,1,17.133,17.133,0,0,1,2.775,1.563,11.465,11.465,0,0,1,2.841,2.826,12.731,12.731,0,0,1,1.756,3.611,22.6,22.6,0,0,1,.755,4.783,25.966,25.966,0,0,0,.577,4.14,1.277,1.277,0,0,0,.567.767,1.729,1.729,0,0,0,.927.267,1.418,1.418,0,0,0,.819-.239,1.12,1.12,0,0,0,.461-.744l.016-.109.193-.122.076-.045a.3.3,0,0,1,.079-.038h0s-.01.018-.036.042L68.8,23.2l.03-.026.069-.063.067-.066a2.321,2.321,0,0,1,.9-1.09,2.283,2.283,0,0,1,1.222-.341,2.624,2.624,0,0,1,.294.017l-.027.066-.284.735-.091.231a7.636,7.636,0,0,1-1.34,2.361,8.887,8.887,0,0,1-3.283,2.366.257.257,0,0,0-.171.276.251.251,0,0,0,.237.21c.2.02.406.03.613.03a7.1,7.1,0,0,0,1.995-.3,8.128,8.128,0,0,0,1.893-.832,7.982,7.982,0,0,0,1.626-1.285,6.862,6.862,0,0,0,1.194-1.655,2.494,2.494,0,0,1,.024.282,5.508,5.508,0,0,1-.052.933,1.555,1.555,0,0,0-.45.263,6.562,6.562,0,0,0-1.211,1.516,7.913,7.913,0,0,1-1.015,1.344,10.941,10.941,0,0,1-1.494,1.246,7.245,7.245,0,0,1-1.719.888.165.165,0,0,0-.048.027c-.106-.4-.2-.729-.3-1.026a.113.113,0,0,0-.109-.085.125.125,0,0,0-.124.116c0,.011-.009.016-.025.016a3.124,3.124,0,0,1-.66-.3c-.329-.17-.739-.382-1.214-.6a8.432,8.432,0,0,0-3.4-.9,3.969,3.969,0,0,0-.584.042,15.655,15.655,0,0,0-4.5,1.483,19.819,19.819,0,0,1-2.909,1.143A14.57,14.57,0,0,1,49.923,30.748ZM44.4,19.54a.161.161,0,0,0-.147.13.123.123,0,0,0,.071.147,19.872,19.872,0,0,1,2.737,1.527,20.293,20.293,0,0,1,2.414,1.892,22.4,22.4,0,0,1,2.117,2.226,26.292,26.292,0,0,1,1.847,2.527.818.818,0,0,0,.726.393,1.29,1.29,0,0,0,.2-.016.578.578,0,0,0,.389-.243l.025-.032.075-.1a.8.8,0,0,0,0-.828,16.235,16.235,0,0,0-2.022-2.6A17.9,17.9,0,0,0,50.34,22.4a19.194,19.194,0,0,0-5.9-2.858.138.138,0,0,0-.038-.005Zm9.269-1.159a.2.2,0,0,0-.177.142.206.206,0,0,0,.046.232A15.13,15.13,0,0,1,56.53,22a9.1,9.1,0,0,1,.937,1.924c.095.277.167.562.236.838a6.251,6.251,0,0,0,.46,1.367,1.059,1.059,0,0,0,.964.618A1.386,1.386,0,0,0,60.475,25.5a4.724,4.724,0,0,0-.754-2.629,11.608,11.608,0,0,0-1.7-2.216,8.128,8.128,0,0,0-1.926-1.487,6.817,6.817,0,0,0-2.287-.772l-.115-.016ZM10.8,17.013a.529.529,0,0,0-.481.339.462.462,0,0,0,.113.521,11.037,11.037,0,0,0,3.529,2.22,17.614,17.614,0,0,0,4.061,1.047l.141.02a21.573,21.573,0,0,0,2.936.224,10.663,10.663,0,0,0,2.951-.367,5.184,5.184,0,0,0,2.412-1.41.944.944,0,0,0,.192-.916.751.751,0,0,0-.572-.525,6,6,0,0,0-1.234-.118,12.691,12.691,0,0,0-1.526.112l-.263.033-.653.087a25.68,25.68,0,0,1-3.337.242c-.184,0-.369,0-.549-.008a28.458,28.458,0,0,1-6.36-1.165c-.405-.107-.824-.217-1.237-.322a.5.5,0,0,0-.123-.016ZM56,10.771a.362.362,0,0,0-.3.207.3.3,0,0,0,.011.321c.419.582.889,1.134,1.344,1.668.4.47.814.955,1.191,1.459.242.323.475.655.7.977a16.321,16.321,0,0,0,1.74,2.2.675.675,0,0,0,.486.208.771.771,0,0,0,.6-.3.7.7,0,0,0,.123-.612,7.192,7.192,0,0,0-.844-1.928,10.044,10.044,0,0,0-1.374-1.75A10.4,10.4,0,0,0,56.1,10.79.268.268,0,0,0,56,10.771ZM15.081,11.96h0a.278.278,0,0,0-.251.185.3.3,0,0,0,.055.328,10.749,10.749,0,0,0,3.494,2.281,11.131,11.131,0,0,0,4.192.861,8.026,8.026,0,0,0,3.23-.636.629.629,0,0,0,.394-.728.932.932,0,0,0-.8-.767c-.393-.024-.81-.035-1.351-.035-.249,0-.5,0-.747,0h-.006c-.242,0-.493,0-.74,0a16.092,16.092,0,0,1-2.419-.146,27.485,27.485,0,0,1-4.961-1.336.273.273,0,0,0-.091-.016ZM19.5,8.4a.269.269,0,0,0-.253.207.4.4,0,0,0,.12.437,6.5,6.5,0,0,0,3.881,1.331,6.051,6.051,0,0,0,1.287-.139.5.5,0,0,0,.383-.576.519.519,0,0,0-.5-.495h-.023c-.231.009-.458.014-.675.014a10.3,10.3,0,0,1-4.091-.751A.329.329,0,0,0,19.5,8.4Zm9.875-4.945h-.156a27.108,27.108,0,0,1-5.3-.5c.519.031,1.057.047,1.644.047,1.55,0,3.115-.11,4.629-.217h0c.594-.042,1.156-.081,1.72-.115,1.412-.062,2.8-.094,4.126-.094.929,0,1.853.015,2.745.046l-1.021.136-.681.089A60.588,60.588,0,0,1,29.371,3.453Z" transform="translate(16.971 6.256)" fill="#ecdcbf"/>
    <path id="Fill_4" data-name="Fill 4" d="M.483.412a.081.081,0,0,0,0,.037s0-.006,0-.011L.483.412" transform="translate(21.447 24.424)" fill="#4f66af"/>
    <path id="Fill_6" data-name="Fill 6" d="M.438.454A.354.354,0,0,0,.393.421h0L.438.454" transform="translate(21.491 24.517)" fill="#4f66af"/>
    <path id="_Ink-2" data-name="ðŸ– Ink" d="M49.622,107.723a18.054,18.054,0,0,1-6.461-1.161l-.176-.069c-3.859-1.528-6.095-3.494-6.645-5.845a2.112,2.112,0,0,1,.39-1.827,2.168,2.168,0,0,1,.737-.6,2.132,2.132,0,0,1,.938-.22,2.186,2.186,0,0,1,1.027.26,8.922,8.922,0,0,1,1.96,1.434l.111.1a6.872,6.872,0,0,0,1.3.994,10.712,10.712,0,0,0,3.49,1.47,14.136,14.136,0,0,0,3.453.421,15.554,15.554,0,0,0,4.385-.638A18.845,18.845,0,0,0,58,100.4a25.075,25.075,0,0,0,3.473-2.374,37.048,37.048,0,0,0,3.13-2.86c.88-.893,1.81-1.909,2.844-3.1a42.545,42.545,0,0,0,5.282-7.324,17.846,17.846,0,0,0,1.668-4.3,18.41,18.41,0,0,0,.5-4.585c-.035-2.6-.309-5.25-.574-7.811v0c-.1-.956-.2-1.945-.29-2.915-.355-3.9-.65-7.466-.9-10.892-.2-2.665-.256-5.383-.312-8.012h0c-.016-.734-.032-1.492-.051-2.238l-.017-.641c-.039-1.362-.069-2.739-.1-4.072q-.015-.687-.031-1.375c-.01-.428-.025-.864-.04-1.285a30.277,30.277,0,0,1,.043-4.161.125.125,0,0,1,.124-.116.113.113,0,0,1,.109.085c.1.293.189.619.3,1.026a.169.169,0,0,1,.048-.027,7.247,7.247,0,0,0,1.719-.888,10.941,10.941,0,0,0,1.494-1.246,7.912,7.912,0,0,0,1.015-1.344,6.562,6.562,0,0,1,1.211-1.516,1.508,1.508,0,0,1,.975-.358,1.428,1.428,0,0,1,1.125.53,1.351,1.351,0,0,1,.22,1.181,3.84,3.84,0,0,1-1.333,1.963,9.2,9.2,0,0,1-2.071,1.279,8.119,8.119,0,0,1-3.588.727c-.23,0-.466-.006-.723-.018l-.019,0c.288,1.156.494,2.359.693,3.522h0v0c.1.556.194,1.13.3,1.689.408,2.155.819,4.362,1.221,6.561.133.728.282,1.469.425,2.186v0c.273,1.365.555,2.776.75,4.169S77,54.644,77.187,56v0l0,.022c.1.746.207,1.518.311,2.276.4,2.918.744,5.893,1.077,8.77.071.619.153,1.321.233,2.009l.2,1.7c.191,1.639.4,3.543.437,5.4a22.507,22.507,0,0,1-.475,5.389,22.108,22.108,0,0,1-1.736,4.856,33.336,33.336,0,0,1-2.638,4.44,60.257,60.257,0,0,1-6.38,7.773c-5.245,5.352-10.832,8.373-16.605,8.978A19.188,19.188,0,0,1,49.622,107.723ZM26.917,96.5c-1.114,0-2.337-1.139-3.23-1.971-.141-.131-.274-.255-.4-.365l-.083-.074a30.122,30.122,0,0,1-3.429-3.575,26.118,26.118,0,0,1-2.726-4.009A18.378,18.378,0,0,1,15.29,82a2.629,2.629,0,0,1-.73,1.6,4.45,4.45,0,0,1-2.339,1.348,5.416,5.416,0,0,1-1.156.127,4.881,4.881,0,0,1-2.257-.54A4.986,4.986,0,0,1,7.02,82.972,6.449,6.449,0,0,1,6,80.563a9.222,9.222,0,0,1-.162-2.632l.016-.207c0-.034,0-.072.007-.112a4.8,4.8,0,0,1,.106-.889l-.637-.351A10.474,10.474,0,0,1,3.173,74.81a10.054,10.054,0,0,1-2.79-4.5,8.568,8.568,0,0,1,.063-5.264,9.157,9.157,0,0,1,1.689-2.933,8.6,8.6,0,0,1,1.217-1.165A7.857,7.857,0,0,1,4.77,60.06a9.283,9.283,0,0,1-.533-2.245q-.021-.139-.042-.274l-.021-.135a34.521,34.521,0,0,1-.038-11.652A34.2,34.2,0,0,1,5.674,39.61a22.946,22.946,0,0,1,2.89-5.652A12.784,12.784,0,0,1,3.65,30.644a6.749,6.749,0,0,1-1.521-2.733,4.477,4.477,0,0,1-.137-1.528,3.921,3.921,0,0,1,.46-1.52,4.255,4.255,0,0,1,1.038-1.268,6.206,6.206,0,0,1-.681-2.159,5.729,5.729,0,0,1,.18-2.29,6.036,6.036,0,0,1,3.66-3.89,5.766,5.766,0,0,1-.035-2.607,5.319,5.319,0,0,1,1.233-2.393A4.938,4.938,0,0,1,9.666,8.971a5.711,5.711,0,0,1,2.169-.423,5.994,5.994,0,0,1,1.053.094,15.7,15.7,0,0,0-.1-2.225,10.333,10.333,0,0,1,.059-3.351,4.239,4.239,0,0,1,.579-1.35,3.694,3.694,0,0,1,.919-.957A4.188,4.188,0,0,1,16.82,0a5.283,5.283,0,0,1,2.7.759,14.805,14.805,0,0,1,2,1.523c.42.359.854.731,1.307,1.062A14.4,14.4,0,0,0,26.5,5.289a24.2,24.2,0,0,0,8.095,1.273h.154a71.214,71.214,0,0,0,9.363-.831h0A71.2,71.2,0,0,1,53.478,4.9c.358,0,.715.006,1.062.016a28.249,28.249,0,0,1,3.917.393A24.052,24.052,0,0,1,62.3,6.3a17.553,17.553,0,0,1,6.691,4.077A14.418,14.418,0,0,1,71.5,13.791a17.622,17.622,0,0,1,1.519,3.972,38.6,38.6,0,0,1,.764,3.933l.047.33c.03.214.065.435.1.649a12.71,12.71,0,0,1,.2,1.718,8.3,8.3,0,0,1-.162,1.523v0c-.033.2-.068.4-.1.6a1.13,1.13,0,0,1-.452.783,1.427,1.427,0,0,1-.836.251,1.729,1.729,0,0,1-.927-.267,1.277,1.277,0,0,1-.567-.767,25.965,25.965,0,0,1-.577-4.141,22.6,22.6,0,0,0-.755-4.783A12.734,12.734,0,0,0,68,13.984a11.464,11.464,0,0,0-2.841-2.826A17.132,17.132,0,0,0,62.386,9.6a18.076,18.076,0,0,0-2.9-1,24.442,24.442,0,0,0-6.073-.688,72.569,72.569,0,0,0-9.507.853l-.068.009a71.874,71.874,0,0,1-9.317.845c-.493,0-.977-.011-1.439-.034a30.668,30.668,0,0,1-3.829-.417,22.072,22.072,0,0,1-3.721-.984,19.45,19.45,0,0,1-3.589-1.705,20.491,20.491,0,0,1-2.054-1.521h0c-.268-.217-.546-.441-.824-.656l-.421-.321a3.529,3.529,0,0,0-1.8-.863.86.86,0,0,0-.626.251,2.15,2.15,0,0,0-.3,1.418l0,.222c.007.516.039,1.04.07,1.546a21.512,21.512,0,0,1,.058,2.333,7.27,7.27,0,0,1-.453,2.3,1.737,1.737,0,0,1-1.549,1.173,1.491,1.491,0,0,1-.729-.2l-.049-.028a2.191,2.191,0,0,0-1.137-.316,2.422,2.422,0,0,0-1.295.386,2.455,2.455,0,0,0-.888.975,1.945,1.945,0,0,0-.2,1.027,2.074,2.074,0,0,0,.45,1.089l.047.06a1.946,1.946,0,0,1,.256,2.018,1.5,1.5,0,0,1-.524.617,1.529,1.529,0,0,1-.86.245H9.06l-.1,0a2.753,2.753,0,0,0-1.717.574,2.706,2.706,0,0,0-.923,1.368,2.512,2.512,0,0,0,.04,1.556,2.664,2.664,0,0,0,1.11,1.34l.072.045a1.692,1.692,0,0,1,.745.843,1.554,1.554,0,0,1,.037.974,1.877,1.877,0,0,1-.613.94,1.69,1.69,0,0,1-1.084.4,1.855,1.855,0,0,1-.811-.195c.034.016.05.03.05.043s-.032.035-.081.061a.705.705,0,0,0-.257.2.8.8,0,0,0-.133.668,2.365,2.365,0,0,0,.531,1.124,7.132,7.132,0,0,0,.881.9A10.865,10.865,0,0,0,8.99,30.553a13.434,13.434,0,0,0,2.456.984,19.2,19.2,0,0,0,5.473.746,49.041,49.041,0,0,0,11.452-1.861c1.093-.267,2.223-.543,3.322-.787a42.167,42.167,0,0,1,9.11-1.14,25.7,25.7,0,0,1,3.028.173,20.7,20.7,0,0,1,2.951.565,17.6,17.6,0,0,1,2.828,1.028,16.3,16.3,0,0,1,2.659,1.56.071.071,0,0,1,.027.082.066.066,0,0,1-.061.049.072.072,0,0,1-.036-.011,14.036,14.036,0,0,0-3.912-1.528,18.607,18.607,0,0,0-4.173-.448,29.084,29.084,0,0,0-6.149.724c-2.347.512-4.728,1.206-7.031,1.876A66.614,66.614,0,0,1,19.42,35.189a16.814,16.814,0,0,1,2.036,10.4,15.119,15.119,0,0,1-.918,3.5A30.131,30.131,0,0,1,19,52.36l-.22.413a19.569,19.569,0,0,0-1.3,2.9,9.9,9.9,0,0,0-.539,3.132,2.045,2.045,0,0,1-3.177,1.6,1.843,1.843,0,0,1-.716-1.07c-.891-3.456,1.106-6.4,3.037-9.251A27.4,27.4,0,0,0,18.316,46.4a14.638,14.638,0,0,0,.359-11.137c-.773.062-1.537.094-2.272.094s-1.491-.033-2.21-.1a21.287,21.287,0,0,1-3.926-.72l-.52,2.19a53.582,53.582,0,0,0-1.519,8.86,41.772,41.772,0,0,0,.082,6.683,49.972,49.972,0,0,0,.984,5.639,2.381,2.381,0,0,1,.424,1.711,6.7,6.7,0,0,1,2.92,1.744,6.939,6.939,0,0,1,1.723,3.019.121.121,0,0,1-.019.107.139.139,0,0,1-.109.053.123.123,0,0,1-.107-.061,5.277,5.277,0,0,0-2.143-1.945,6.346,6.346,0,0,0-2.88-.7,5.193,5.193,0,0,0-2.922.845,5.791,5.791,0,0,0-1.5,1.471,5.955,5.955,0,0,0-.88,1.867,5.549,5.549,0,0,0,.411,4.057,6.6,6.6,0,0,0,3.107,2.943l.272.128a4.173,4.173,0,0,1,1.814,1.377,3.25,3.25,0,0,1,.52,1.354,6.99,6.99,0,0,1,.035,1.447l-.024.405a5.73,5.73,0,0,0,.154,2.006l.045.143a1.964,1.964,0,0,0,.2.456c.018.028.125.137.228.243l0,0c.062.064.121.124.154.16l.111.033.124.005h.007a.992.992,0,0,0,.152-.015l.026,0h.008a.54.54,0,0,1,.067-.01c.005,0,.008,0,.009,0s0,.006-.011.012l.016-.009c.045-.028.092-.061.14-.1l.076-.06a2.165,2.165,0,0,1,.679-.637l.263-.117a1.23,1.23,0,0,1,.917-.388,1.8,1.8,0,0,1,1.425.765,2.941,2.941,0,0,1,.557,1.564.186.186,0,0,1,.15-.093.132.132,0,0,1,.105.055l.464.593.458.588a72.148,72.148,0,0,0,5.08,6.049,37.077,37.077,0,0,0,3.557,3.205c.26.206.575.408.909.623,1.027.66,2.19,1.409,2.214,2.572a1.093,1.093,0,0,1-.776,1.022A1.472,1.472,0,0,1,26.917,96.5ZM14.94,73.933a2.213,2.213,0,0,1-.988-.235,2.982,2.982,0,0,1-1.314-1.577c-.087-.178-.177-.361-.278-.543a6.764,6.764,0,0,0-1.2-1.519,11.686,11.686,0,0,0-3.4-2.326.252.252,0,0,1-.136-.233.266.266,0,0,1,.136-.246,5.548,5.548,0,0,1,2.466-.556,6.771,6.771,0,0,1,2.834.643l.113.054a8.986,8.986,0,0,1,1.416.867,7.731,7.731,0,0,1,1.3,1.211,4.539,4.539,0,0,1,.854,1.456,2.763,2.763,0,0,1,.07,1.6,1.829,1.829,0,0,1-.713,1.045A1.994,1.994,0,0,1,14.94,73.933Zm44.6-42.441a.818.818,0,0,1-.726-.393,26.3,26.3,0,0,0-1.848-2.527,22.4,22.4,0,0,0-2.117-2.226,20.294,20.294,0,0,0-2.414-1.892A19.875,19.875,0,0,0,49.7,22.927a.123.123,0,0,1-.071-.146.161.161,0,0,1,.147-.131.139.139,0,0,1,.038.005,19.194,19.194,0,0,1,5.9,2.858,17.9,17.9,0,0,1,2.49,2.163,16.234,16.234,0,0,1,2.022,2.6.8.8,0,0,1,0,.828l-.076.1a.6.6,0,0,1-.413.274A1.289,1.289,0,0,1,59.543,31.492Zm12.869-.474c-.206,0-.412-.01-.612-.03a.251.251,0,0,1-.237-.21.26.26,0,0,1,.171-.276,8.887,8.887,0,0,0,3.283-2.366,8.933,8.933,0,0,0,1.546-2.89c.055-.143.112-.29.169-.437a1.65,1.65,0,0,1,.839-.951,1.363,1.363,0,0,0,.133-.227.792.792,0,0,1,.692-.389.805.805,0,0,1,.79.583l.027.059c.048.108.063.177.045.2a.032.032,0,0,1-.029.014.331.331,0,0,1-.149-.071,1.534,1.534,0,0,1,.535,1.575,6.789,6.789,0,0,1-2.7,3.878,8.184,8.184,0,0,1-2.16,1.128A7.2,7.2,0,0,1,72.412,31.018Zm-7.905-1.16a1.059,1.059,0,0,1-.965-.618,6.246,6.246,0,0,1-.46-1.366c-.07-.276-.142-.561-.237-.839a9.079,9.079,0,0,0-.937-1.924,15.126,15.126,0,0,0-2.992-3.247.207.207,0,0,1-.046-.232.2.2,0,0,1,.177-.142l.023,0a6.8,6.8,0,0,1,2.352.761A8.1,8.1,0,0,1,63.4,23.766a11.61,11.61,0,0,1,1.7,2.216,4.724,4.724,0,0,1,.754,2.629A1.387,1.387,0,0,1,64.506,29.858ZM26.478,24.494a21.572,21.572,0,0,1-2.936-.224,17.85,17.85,0,0,1-4.136-1.041,11.072,11.072,0,0,1-3.595-2.246.462.462,0,0,1-.113-.521.529.529,0,0,1,.481-.339.5.5,0,0,1,.123.016c.413.1.832.215,1.237.322h0A28.456,28.456,0,0,0,23.9,21.626c.18.005.365.008.549.008a25.683,25.683,0,0,0,3.337-.242l.653-.087a13.662,13.662,0,0,1,1.789-.145,6,6,0,0,1,1.234.118.751.751,0,0,1,.572.525.944.944,0,0,1-.192.916,5.185,5.185,0,0,1-2.412,1.41A10.663,10.663,0,0,1,26.478,24.494ZM66.548,20.92a.676.676,0,0,1-.486-.208,16.31,16.31,0,0,1-1.739-2.2h0c-.225-.322-.459-.654-.7-.977-.377-.5-.79-.989-1.19-1.458-.456-.535-.926-1.087-1.345-1.669a.3.3,0,0,1-.012-.321.362.362,0,0,1,.3-.207.268.268,0,0,1,.1.018,10.4,10.4,0,0,1,3.572,2.43,10.044,10.044,0,0,1,1.374,1.75,7.193,7.193,0,0,1,.844,1.928.7.7,0,0,1-.123.612A.771.771,0,0,1,66.548,20.92Zm-38.6-2.194a11.128,11.128,0,0,1-4.192-.861,10.749,10.749,0,0,1-3.494-2.282.3.3,0,0,1-.055-.328.278.278,0,0,1,.251-.185.273.273,0,0,1,.091.016,27.483,27.483,0,0,0,4.961,1.336,16.056,16.056,0,0,0,2.415.146c.249,0,.5,0,.747,0h.013c.24,0,.488,0,.732,0,.544,0,.962.011,1.356.035a.932.932,0,0,1,.8.767.629.629,0,0,1-.394.728A8.027,8.027,0,0,1,27.948,18.726Zm.675-5.245a6.5,6.5,0,0,1-3.881-1.331.4.4,0,0,1-.12-.437.269.269,0,0,1,.253-.207.33.33,0,0,1,.126.028,10.3,10.3,0,0,0,4.091.751c.217,0,.443,0,.674-.014h.023a.519.519,0,0,1,.5.495.5.5,0,0,1-.383.576A6.051,6.051,0,0,1,28.622,13.481Z" transform="translate(11.594 3.17)"/>
  </g>
  <g id="FACE" transform="translate(112.183 77.354)">
    <path id="tongue" d="M0,3S2.993,5.314,8.576,5.314A17.508,17.508,0,0,0,17.4,3.246S12.507.272,8.576.031,0,3,0,3Z" transform="translate(26.997 49.133)" fill="#ff6c6c"/>
    <path id="_Ink-3" data-name="ðŸ– Ink" d="M23.955,46.282a23.424,23.424,0,0,1-9.413-1.828,14.339,14.339,0,0,1-3.327-2.06A11.094,11.094,0,0,1,9.07,40.025a5.448,5.448,0,0,1-.981-2.992,2.328,2.328,0,0,1,.873-1.965,3.307,3.307,0,0,1,2.005-.547,6.773,6.773,0,0,1,1.077.092,70.08,70.08,0,0,0,9.788.961l.567.01a.612.612,0,0,1,.451-.256c1.324-.143,2.689-.166,4.009-.188.5-.008,1.008-.017,1.508-.031.45-.013.911-.036,1.357-.058.714-.035,1.451-.071,2.175-.071.477,0,.9.015,1.308.047l.127.011a6.313,6.313,0,0,1,1.8.432,3.562,3.562,0,0,1,1.414,1,2.684,2.684,0,0,1,.568,2.049,5.587,5.587,0,0,1-1.407,2.946,13.707,13.707,0,0,1-2.46,2.238c-.347.25-.677.466-1.008.66a.658.658,0,0,1-.448.254,13.456,13.456,0,0,1-5.18,1.542C25.735,46.241,24.841,46.282,23.955,46.282Zm-.841-5.061a13.468,13.468,0,0,0-4.159.654,11.045,11.045,0,0,0-1.781.823c-.355.19-.721.386-1.088.552a19.89,19.89,0,0,0,4.027,1.04,27.242,27.242,0,0,0,4.16.308c.694,0,1.4-.024,2.106-.072a12.435,12.435,0,0,0,4.175-1.01l-.017-.012c-.2-.142-.4-.289-.611-.417a12.406,12.406,0,0,0-2.054-1,13.551,13.551,0,0,0-4.345-.857C23.39,41.223,23.251,41.221,23.114,41.221Zm.8-11.087h0a7.367,7.367,0,0,1-2.629-.53,13.285,13.285,0,0,1-3.093-1.756,1.189,1.189,0,0,1-.432-.687,1.423,1.423,0,0,1,.061-.771,1.754,1.754,0,0,1,.521-.753,1.267,1.267,0,0,1,.811-.317,1.151,1.151,0,0,1,.628.193l.472.364a14.161,14.161,0,0,0,1.853,1.244,4.57,4.57,0,0,0,2.143.642,2.505,2.505,0,0,0,.981-.193,2.74,2.74,0,0,0,.913-.647,2.8,2.8,0,0,0,.531-2.255,4.26,4.26,0,0,0-1.13-2,8.24,8.24,0,0,0-1.711-1.381.531.531,0,0,1-.143-.61.8.8,0,0,1,.264-.38.809.809,0,0,1,.505-.167,1.075,1.075,0,0,1,.181.016,5.736,5.736,0,0,1,2.017.729,4.577,4.577,0,0,1,1.357,1.251,4.973,4.973,0,0,1,.866,3.321,5.475,5.475,0,0,1-.444,1.744,5.089,5.089,0,0,1-1,1.5A4.78,4.78,0,0,1,23.915,30.134Zm9.017-5.112a.6.6,0,0,1-.56-.322l-.143-.308-.145-.308c-.306-.653-.623-1.316-.93-1.957-.874-1.827-1.778-3.716-2.544-5.618a7.376,7.376,0,0,1-.579-3.063,3.727,3.727,0,0,1,1.293-2.741,2.762,2.762,0,0,1,1.831-.7,3.65,3.65,0,0,1,1.812.53,5.83,5.83,0,0,1,1.514,1.273l.224.266a4.675,4.675,0,0,1,.7,1.037,6.3,6.3,0,0,1,3.963-1.665,4.094,4.094,0,0,1,1.177.171,3.622,3.622,0,0,1,1.177.6,3.441,3.441,0,0,1,.839.938,3.51,3.51,0,0,1,.45,1.178,3.762,3.762,0,0,1,.01,1.322,4.978,4.978,0,0,1-.47,1.427,5.924,5.924,0,0,1-.823,1.207,10.471,10.471,0,0,1-2.292,1.89l-.476.3c-.886.565-1.925,1.244-2.915,1.993a20.878,20.878,0,0,0-2.647,2.355A.648.648,0,0,1,32.933,25.022Zm-21.516,0a.643.643,0,0,1-.473-.189A27.03,27.03,0,0,0,5.575,20.61l-.587-.373a10.673,10.673,0,0,1-2.342-1.908A5.971,5.971,0,0,1,1.8,17.107a4.967,4.967,0,0,1-.481-1.448,3.668,3.668,0,0,1,.461-2.5,3.43,3.43,0,0,1,.838-.939,3.581,3.581,0,0,1,1.177-.6,4.133,4.133,0,0,1,1.176-.169,6.3,6.3,0,0,1,3.966,1.663,4.525,4.525,0,0,1,.73-1.074l.263-.3a5.532,5.532,0,0,1,1.483-1.224,3.686,3.686,0,0,1,1.768-.5,2.793,2.793,0,0,1,1.841.695,3.7,3.7,0,0,1,1.3,2.828,7.863,7.863,0,0,1-.652,3.142C14.9,18.542,14.013,20.4,13.157,22.2c-.217.456-.442.928-.661,1.393l-.231.492c-.1.2-.191.407-.287.615A.6.6,0,0,1,11.417,25.022ZM.269,9.652a.225.225,0,0,1-.2-.1c-.121-.182-.083-.6.114-1.255.155-.512.358-1,.425-1.162L.623,7.1A13.829,13.829,0,0,1,3.108,3.121,10.811,10.811,0,0,1,5.761.986,6.73,6.73,0,0,1,9,0a3.6,3.6,0,0,1,2.978,1.487,1.309,1.309,0,0,1,.145,1.263,1.624,1.624,0,0,1-1.088,1.055,9.307,9.307,0,0,1-1.559.18,7.972,7.972,0,0,0-1.78.24,10.452,10.452,0,0,0-2.826,1.46A17.575,17.575,0,0,0,2.157,7.935a6.06,6.06,0,0,0-.442.539C1.3,9.019.829,9.636.279,9.652ZM41.735,7.686a.323.323,0,0,1-.128-.028,9.106,9.106,0,0,1-1.641-1.017,7.83,7.83,0,0,0-2-1.162l-.255-.087a14.355,14.355,0,0,0-4.246-.884l-.185,0a2.674,2.674,0,0,1-.817.128,2.116,2.116,0,0,1-1.146-.307,1.516,1.516,0,0,1-.679-1l-.012-.06L30.6,3.147a2.677,2.677,0,0,1,.089-1.324,1.65,1.65,0,0,1,.855-1A3.525,3.525,0,0,1,33.071.5,7.9,7.9,0,0,1,35.1.846l.517.144a12.28,12.28,0,0,1,3.742,1.56l.086.061.133.1A8.4,8.4,0,0,1,41.64,4.855,3.564,3.564,0,0,1,42.171,6.2a2.152,2.152,0,0,1-.238,1.37A.214.214,0,0,1,41.735,7.686Z" transform="translate(12.253 9.226)"/>
  </g>
  <g id="FACIAL_HAIR" data-name="FACIAL HAIR" transform="translate(104.577 109.479)">
    <path id="_Ink-4" data-name="ðŸ– Ink" d="M42.882,39.311h0c-1.731,0-3.459-.168-4.983-.316a56.53,56.53,0,0,1-12.609-2.759c-1.912-.645-3.883-1.412-6.028-2.346l-.884-.381a41.118,41.118,0,0,1-4.946-2.389,19.077,19.077,0,0,1-3.591-3.108l0,0c-.193-.2-.393-.4-.587-.6a65.614,65.614,0,0,1-5.726-6.4,20.7,20.7,0,0,1-2.081-3.166A11.613,11.613,0,0,1,.276,14.262C-.36,10.112.228,5.78.8,1.59.841,1.26.887.919.932.584A.183.183,0,0,1,1.107.436a.107.107,0,0,1,.108.078c0-.069-.008-.141-.013-.235A.257.257,0,0,1,1.27.085.292.292,0,0,1,1.482,0a.287.287,0,0,1,.284.2,25.019,25.019,0,0,0,5.528,9.84,30.424,30.424,0,0,0,2.577,2.473c.849.728,1.767,1.447,2.805,2.2,1.929,1.393,3.988,2.682,5.98,3.928h0c.414.259.842.527,1.261.791a1.071,1.071,0,0,1,.523-.279,11.792,11.792,0,0,1,1.891-4.11,18.258,18.258,0,0,1,2.987-3.312A24.96,24.96,0,0,1,41.276,5.826a21.037,21.037,0,0,1,3.954.367,18.335,18.335,0,0,1,3.759,1.141,16.3,16.3,0,0,1,4.4,2.8A16.519,16.519,0,0,1,56.7,14.177a17.309,17.309,0,0,1,1.346,2.9c.163.458,1.435,5.586.633,8.524a21.942,21.942,0,0,1-1.59,4.1,25.27,25.27,0,0,1-2.334,3.749A14.366,14.366,0,0,1,48.571,38.4a12.672,12.672,0,0,1-2.772.717A19.841,19.841,0,0,1,42.882,39.311ZM40.424,11.432a23.743,23.743,0,0,0-5.81.655A15.123,15.123,0,0,0,28.773,15a13.989,13.989,0,0,0-2.261,2.321,12.933,12.933,0,0,0-1.639,2.795,7.46,7.46,0,0,0,.067,2.638,19.623,19.623,0,0,0,5.081,2.575,17.716,17.716,0,0,0,5.606.927,16.686,16.686,0,0,0,1.925-.111c.3-.37.6-.793.921-1.24A18.746,18.746,0,0,1,40.4,22.5a4.412,4.412,0,0,1,2.438-1.382,3.359,3.359,0,0,1,.481-.035,3.645,3.645,0,0,1,2,.649,12.955,12.955,0,0,1,1.723,1.431,11.361,11.361,0,0,0,1.979,1.59c.108.062.23.125.374.194a7.765,7.765,0,0,0,3.805-1.188,3.811,3.811,0,0,0,1.253-1.37A5.4,5.4,0,0,0,55,20.668c-.058-.233-.121-.472-.189-.709a18.318,18.318,0,0,0-.874-2.425,13.449,13.449,0,0,0-1.261-2.242,8.552,8.552,0,0,0-1.45-1.611,6.573,6.573,0,0,0-1.844-1.122,17.315,17.315,0,0,0-4.708-.887l-.375-.036C42.891,11.5,41.623,11.432,40.424,11.432Z" transform="translate(-0.001 0)"/>
  </g>
</svg>
