<svg xmlns="http://www.w3.org/2000/svg" width="390.67" height="780" viewBox="0 0 390.67 780">
  <g id="peep-standing-25" transform="translate(28.736)">
    <g id="BODY" transform="translate(-28.736 150.264)">
      <path id="_Skin" data-name="âœ‹ Skin" d="M240.633,571.1c1.671-7.764-5.973-10.389-10.792-12.116-3.452-2.234-16.241-9.972-26.137-19.525-8.1-7.817-13.61-17.835-15.9-18.79,0,0-2.362-1.367-2.607-2.383-1.437-5.952-.239-11.5,0-15.108,4.607-1.207,8.3-2.713,11.059-4.818.805.268,2.012.611,2.372-.565,2.5-16.613,3.572-33.03,5.6-49.657,7.684-63.325,8.551-137.3-4.669-195.141a50.676,50.676,0,0,1,.368-7.919c1.788-.193,2.868-1.92,4.328-2.952,2.265-1.8,4.948-3.178,4.837-6.318.538-.407.475-.635.21-1.154,1.728-7.416-5.98-15.231-8.16-21.345,3.963-38.679-1.429-75.229,1.579-113.917,3.8-1.587,1.245-11.5.985-15.593-2.1-26.349-15.829-52.4-40.545-61.009-1.413-.286-3.536-1.9-4.706-.815-2.259-.893-5.266.868-7.014-1.16l.018-.013a17.938,17.938,0,0,1-2.616-7.077,16.411,16.411,0,0,0,.383,2.044C144.962,3.781,143.889.576,130.172.012c-6.179-.082-14.324.1-17.926,5.984-1.476,2.734-1.025,5.873-1.941,8.751-1.682,5.281-8.942,2.729-12.753,5.471C67.046,29.982,42.024,49.913,33.8,81.9c-1.681,3.856-3.588,7.693-4.994,11.672-.218.591-.816,2.589.621,3.509l.7.445c-9.156,42.709-9.764,78.7,21,107.171,2.308,12.235-3.63,28.943-1.347,40.822-1.3,1.842.349,3.325,2.012,3.443.16.089.808.372.985.453-2.646,37.284,8.464,87.532,13.362,107.364.667,11.907-3.406,21.689-11.783,28.178-9.256,5.689-27.554,31.384-24.162,58.337-3.964.776-7.9,1.2-11.7,2.689C1.841,443.054,2.006,475.072.945,486.329c-1.8,18.849-2.912,46.17,15.031,58.236,4.727,3.422,14.312,7.429,19.223,1.951a5.738,5.738,0,0,0,1.379-5.764c8.11-11.435,5.925-26.393,6.67-39.806,2.352-.141,4.812.959,7.087.558,2.335-2.053-6.183-1.494-7.067-1.614.09-2.068.257-4.246.472-6.332a32.524,32.524,0,0,0,4.333.956.893.893,0,0,0,.839-1.4c-1-.954-3.559-.807-5-.942.243-1.746.54-3.581.87-5.269,1.76-.063,3.578,1.056,5.244.827-1.261-.84-3.629-.584-5.166-1.139,1-5.437,3.037-10.6,4.931-15.684a24.3,24.3,0,0,0,13.193,1.415c1.856.285,2.761-.094,3.061-2.411l-.119-.146c3.6-21.474,15.2-41.945,36.752-65.16,4.257-4.755,9.068-10.353,12.273-16.613,6.441-13.027,7.541-27.4,12.5-40.929,4.633-13.6,10.969-26.6,16.917-39.495.872,6.606,2.044,13.383,3.262,19.861,5.361,22.955,4.841,47.447.9,70.529-5.837,32.329-3.024,64.811-4.322,97.369a34.9,34.9,0,0,1-.025,5.539c-.037.151.035.329.213.324l.337.009c2.806,2.05,6.681,2.421,9.977,3.533,1.385,1.094.995,2.826,1.121,4.177.362,5.824.825,11.669.251,17.672-2.544,4.865-5.7,3.86-6.35,10.717-.566,7.829-1.566,16.154,2.254,23.125l-1.445.249c-2.145,4.492-.835,7.409,4.206,9.309,24.888,9.739,59.91,18.581,85.881,11.23.472.467,1.159-.018,1.7-.752a3.625,3.625,0,0,0,.809-2.185C242.693,575.889,243.3,571.536,240.633,571.1Z" transform="translate(47.26 -8.532)" fill="#d08b5b"/>
      <path id="_Shoes" data-name="ðŸ‘Ÿ Shoes" d="M220.752,139.5c-4.484,0-9.352-.2-14.078-.573-4.081-.324-7.875-.771-10.41-1.227-2.242-.4-9.738-2.051-18.6-4.568-4.972-1.413-9.579-2.874-13.691-4.344a105.768,105.768,0,0,1-12.6-5.309A3.856,3.856,0,0,1,149.24,120a10.053,10.053,0,0,1,.851-4.1,5.972,5.972,0,0,1,.9-1.4c.287-.36.494-.62.383-.731-3.714-3.706-2.3-12.2-1.548-16.763h0a22.3,22.3,0,0,0,.36-2.671c0-1.792,1.491-3.922,2.807-5.8a18.972,18.972,0,0,0,1.8-2.882,28.75,28.75,0,0,0,1.189,3.891,20.484,20.484,0,0,0,2.043,4.082,8.961,8.961,0,0,0,1.764,1.933,8.691,8.691,0,0,0,1.86,1.155,7.1,7.1,0,0,0,2.791.706.957.957,0,0,0,.306-.034l.069-.03.05-.026a25.319,25.319,0,0,0,2.282-2.707A144.458,144.458,0,0,1,176.7,83.549a40.916,40.916,0,0,1,5.566-4.849,14.725,14.725,0,0,1,2.592-1.473,6.063,6.063,0,0,1,2.316-.54,3.242,3.242,0,0,1,1.492.342c1.629.833,2.863,3.145,4.17,5.593,1.211,2.269,2.464,4.615,4.143,6.021a57.16,57.16,0,0,1,5.607,5.674c1.469,1.626,2.989,3.307,4.853,5.149a74.645,74.645,0,0,0,6.716,5.89,94.578,94.578,0,0,0,9.742,6.6c1.993,1.187,4.136,2.382,6.369,3.552,2.368,1.24,4.912,2.49,7.561,3.715a4.57,4.57,0,0,1,2.67,3.114,6.4,6.4,0,0,1,.162,1.94,9.759,9.759,0,0,1-.315,1.9.327.327,0,0,0,.037.263c.194.318.91.479,1.542.62.481.108.9.2.937.34a.116.116,0,0,1-.045.115c-.229.229-.311.671-.256,1.39a21.575,21.575,0,0,0,.358,2.253c.446,2.319.951,4.947-.577,5.6C237.028,139.026,227.669,139.5,220.752,139.5ZM28.463,104.9a22.07,22.07,0,0,1-6.991-1.322,16.163,16.163,0,0,1-3.219-1.669,33.979,33.979,0,0,1-4.489-3.486A38.929,38.929,0,0,1,4.61,85.8a34.9,34.9,0,0,1-2.041-6.126A63.94,63.94,0,0,1,1.33,72.734C.713,67.921.458,62.837.211,57.921.176,57.23.137,56.447.1,55.7a125.91,125.91,0,0,1,.948-20.2c.424-3.59.947-7.055,1.555-10.3A87.661,87.661,0,0,1,4.61,16.591,34.179,34.179,0,0,1,9.235,6.363a12.057,12.057,0,0,1,3.22-3.193c.077-.052.143-.1.2-.135.084-.061,1.3-.331,3.25-.724,1.674-.337,3.262-.636,3.54-.667l.1-.011.08-.008.044-.017A20.5,20.5,0,0,1,23.527.566,41.047,41.047,0,0,1,28.281.054L28.5.042,29.314,0h0c.045.056.447.566.839,1.175a3.847,3.847,0,0,1,.817,1.905A79.207,79.207,0,0,1,29.56,14.832a41.763,41.763,0,0,0-.809,6.1l0,.266.007.1a7.294,7.294,0,0,0,.533,1.9,14.465,14.465,0,0,0,1.461,2.727,10.369,10.369,0,0,0,5.924,4.413,4.558,4.558,0,0,0,1.061.107,16.1,16.1,0,0,0,3.224-.424c1.048-.225,2.241-.539,3.547-.933,2.215-.668,4.025-1.35,4.043-1.357-.011.031-1.289,3.577-2.638,8.544-.8,2.938-1.471,5.809-2,8.534a79.2,79.2,0,0,0-1.3,9.467c-.279,3.983-.356,8.234-.43,12.345-.055,3.033-.112,6.168-.25,9.123-.155,3.307-.4,6.053-.745,8.4a27.586,27.586,0,0,1-2.258,7.282,31.949,31.949,0,0,1-3.917,6.465c-.367.463.27,1.134.887,1.782.582.612,1.131,1.19.776,1.536-.1.094-.2.2-.319.325l0,0a10.94,10.94,0,0,1-2.621,2.113,9.5,9.5,0,0,1-2.234.888A12.093,12.093,0,0,1,28.463,104.9ZM154.8,85.646h0a4.353,4.353,0,0,1-.2-1.878.051.051,0,0,1,.04-.021c.067,0,.169.132.3.393a1.78,1.78,0,0,1-.144,1.506Z" transform="translate(47.162 435.15)" fill="#fff"/>
      <path id="_Pants" data-name="ðŸ‘– Pants" d="M100.458,0c3.341-.166,34.355,9.079,40.493,9.6l.434.035c7.957.608,15.636-.825,24.442-4.621l.267-.116.28-.122,2.347-1.032.306,2.541c10.283,85.423,9.719,169.883-1.791,250.565l-.352,2.444-.479,3.256-.635.469c-5.717,4.219-12.787,6.757-21.441,7.8a103.781,103.781,0,0,1-20.048.185l-.637-.045-.621-.046-.685-.052-.87-.069-.7-.215-.552-.172-.559-.176-.284-.091-.579-.186-.6-.194-.6-.2-.841-.28-.02-.005-.292-.069-.121-.031a2.672,2.672,0,0,1-1.733-1.168l-.042-.07-.053-.095-.449-.845.415-.862a31.266,31.266,0,0,0,2.81-10.551l.026-.258.032-.349.027-.313c.226-2.717-.917-42.648-.264-52.768l.067-1.016.037-.545.11-1.542c.425-5.825.918-11.018,1.869-19.643l.233-2.1.4-3.548.809-7.113.334-2.976.247-2.231c1.484-13.517,2.129-21.286,2.455-29.72l.021-.545.022-.612.022-.638,0-.3a102.632,102.632,0,0,0-1.573-16.356l-.065-.383-.067-.385-.071-.4-.211-1.166-.151-.812c-.63-3.342-1.33-6.55-2.518-11.571l-.539-2.266-1.468-6.107c-1.471-6.153-2.253-9.66-2.942-13.255l-.1-.508-.148-.795-.2-1.1-.146.128-.161.144a9.854,9.854,0,0,0-1.405,1.507l-.033.05-.031.05a182.651,182.651,0,0,0-15.134,32.863l-.158.444-.258.729-.365,1.04c-2.833,8.109-5.046,15.382-9.154,29.988l-.265.942-.557,1.985-1.442,5.157-.135.336c-2.237,5.517-5.664,10.8-10.837,16.84l-.2.236-.214.248-.027.03-.655.709-.634.688-.617.674c-10.031,10.978-17.468,20.5-23.365,30-7.6,12.244-12.365,24.152-14.4,36.179l-.061.364-.061.376-.264,1.652-1.675-.056c-8.471-.282-14.744-2.868-19.651-8.039a37.471,37.471,0,0,1-5.412-7.572l-.127-.227-.248-.449c-1.014-1.852-7.119-19.246-5.766-26.115l.085-.423.09-.435.047-.222.105-.482c.928-4.181,14.8-33.674,21.469-40.271l.23-.227.233-.227.044-.041.8-.711.311-.278.31-.279.367-.332.361-.33c5.777-5.3,8.638-9.059,10.154-13.459l.046-.136.071-.2c1.512-4.305-4.066-43.529-5.062-49.96-3.984-25.717-6.384-53.432-5.987-72.262l.016-.709.039-1.386.425-.506A19.851,19.851,0,0,1,33,6.443l.194-.07.3-.1a43.859,43.859,0,0,1,8.285-1.86L42,4.376l.423-.06.447-.062.453-.061,3.894-.5.924-.122c1.011-.136,1.8-.252,2.515-.371l.5-.085.386-.07.48-.092,1.241-.248,1.018.967.147.142c.162.157.321.314.5.488l.107.107.352.355.978,1c2.379,2.418,3.559,3.4,5.052,4.172l.071.037.144.072.344.168.682.638.412.388.393.372A60.535,60.535,0,0,1,72.487,21.87l.1.153.2.3.154.238.165.313A40.566,40.566,0,0,0,84.743,36.94l.188.138.214.156.023.017.71.558.329.255.243.186.236.178c3.35,2.5,5.506,3.261,7.409,2.67l.066-.021.207-.07.122-.044a6.362,6.362,0,0,0,1.8-1.123l.176-.143.266-.221.191-.161.631-.54.211-.178.227-.189a10.1,10.1,0,0,1,3.172-1.951l.1-.035.2-.071,1.308-.264.321-.067.236-.051c2.231-.493,3.105-1,4.091-2.4l.051-.073.1-.149.491-.746.894-.181.129-.028c1.889-.42,2.424-.951,2.231-1.871l-.01-.046-.014-.06-.851-3.374,3.3,1.114,1.214.406.146.05-.5-1.157-.19-.442-.128-.3a20.741,20.741,0,0,1-1.585-5.024l-.017-.106-.032-.209-.016-.429c-.4-9.831-2.416-12.686-12.215-17.031l-.3-.132-.316-.138L92.376.4Z" transform="translate(77.054 224.95)" fill="#ffcf77"/>
      <path id="_Ink" data-name="ðŸ– Ink" d="M223.19,578.615h0A122.23,122.23,0,0,1,205.4,577.15c-5.738-.855-11.938-2.088-18.429-3.663-5.606-1.361-11.384-2.965-17.174-4.767-4.872-1.517-9.72-3.168-14.019-4.776l-.333-.134h0a16.489,16.489,0,0,1-3.784-1.9,5.24,5.24,0,0,1-1.337-1.441,4.825,4.825,0,0,1-.673-2.029,10.283,10.283,0,0,1,.268-3.29c.205-.91.677-2.464,1.525-2.657a20.809,20.809,0,0,1-1.582-4.663,30.074,30.074,0,0,1-.627-4.92,82.137,82.137,0,0,1,.328-10.113l0-.027c.061-.829.124-1.686.179-2.519.593-4.787,1.823-6.023,3.525-7.735a21.446,21.446,0,0,0,2.825-3.332,57.826,57.826,0,0,0,.259-6.623c-.032-2.071-.156-4.093-.3-6.331h-.007c-.025-.416-.052-.84-.077-1.249v-.025c-.036-.572-.076-1.22-.113-1.848a7.165,7.165,0,0,1-.045-1.056v0a7.364,7.364,0,0,0-.074-1.335,1.58,1.58,0,0,0-.551-1.023c-.434-.106-.89-.213-1.292-.307-2.89-.68-5.878-1.383-8.333-2.992a1.424,1.424,0,0,1-1.05-.5,1.444,1.444,0,0,1-.307-1.178,19.318,19.318,0,0,0,.068-3.7v0c-.025-.554-.052-1.128-.056-1.7.307-4.909.473-10.284.507-16.432.03-5.483-.044-11.06-.117-16.453-.1-7.4-.2-15.054-.034-22.577.09-4.05.249-7.739.486-11.277.266-3.973.623-7.657,1.091-11.263.618-6.506,1.524-13.106,2.4-19.489v-.007c.89-6.477,1.81-13.175,2.429-19.781.333-3.555.555-6.8.679-9.922.138-3.5.15-6.761.035-9.959-.074-2.475-.237-4.99-.5-7.689-.233-2.406-.539-4.9-.935-7.632-.737-5.072-1.683-10.2-2.6-15.166v0c-.961-5.211-1.955-10.6-2.709-15.933l-.683,1.47-.412.887,0,.008c-2.506,5.394-5.1,10.971-7.5,16.515-2.691,6.222-4.846,11.738-6.589,16.863a157.18,157.18,0,0,0-4.856,17.206c-.967,4-1.966,8.141-3.175,12.14-.651,2.153-1.308,4.1-2.011,5.938-.788,2.068-1.612,3.959-2.519,5.781a58.334,58.334,0,0,1-5.663,8.805c-2.231,2.921-4.684,5.718-6.789,8.07A182.906,182.906,0,0,0,81.78,429.078c-1.639,2.712-3.158,5.451-4.514,8.141-1.415,2.806-2.7,5.646-3.809,8.44-1.157,2.9-2.165,5.847-3,8.743a85.314,85.314,0,0,0-2.079,9.052,1.65,1.65,0,0,1,.112.161,8.472,8.472,0,0,1-.65,2.429,2.786,2.786,0,0,1-1.841,1.6,13.758,13.758,0,0,0-1.825-.118,15.724,15.724,0,0,0-3.222.336c-.443.036-.9.055-1.36.055a20.684,20.684,0,0,1-4.017-.418,29.609,29.609,0,0,1-3.885-1.072l-.206.553-.134.358a83.989,83.989,0,0,0-3.9,12.378,12.813,12.813,0,0,0,1.477.214h0a5.191,5.191,0,0,1,3.2,1.046,1.136,1.136,0,0,1,.306,1.03,1.294,1.294,0,0,1-.833.868,2.905,2.905,0,0,1-.871.125,7.842,7.842,0,0,1-2.105-.407,9.83,9.83,0,0,0-1.686-.382c-.172.922-.328,1.86-.475,2.868,1.433.078,3.6.2,4.535,1.281a2.011,2.011,0,0,1,.447,1.565,2.013,2.013,0,0,1-2.186,1.8,10.4,10.4,0,0,1-2.537-.47l-.009,0c-.257-.069-.5-.135-.734-.192-.119,1.244-.212,2.493-.276,3.711.178.006.371.009.59.009.32,0,.64-.006.979-.013h.043c.321-.007.685-.014,1.043-.014a12.567,12.567,0,0,1,2.043.134,5.519,5.519,0,0,1,1.86.617,1.776,1.776,0,0,1,.708.787,1.754,1.754,0,0,1,.139.976,1.686,1.686,0,0,1-.39.865,1.758,1.758,0,0,1-.891.543,5.386,5.386,0,0,1-1.311.149,15.119,15.119,0,0,1-2.633-.319,16.609,16.609,0,0,0-2.314-.308c-.117,2.6-.137,5.328-.155,7.964v0a111.685,111.685,0,0,1-.883,16.023,41.573,41.573,0,0,1-1.878,7.673,32.53,32.53,0,0,1-1.55,3.652A29.855,29.855,0,0,1,39.053,535a6.075,6.075,0,0,1-.082,3.349,8.629,8.629,0,0,1-1.685,2.967,9.135,9.135,0,0,1-3.46,2.4,11.048,11.048,0,0,1-4.046.715,16.6,16.6,0,0,1-3.568-.415,23.489,23.489,0,0,1-3.539-1.1,29.224,29.224,0,0,1-3.311-1.561,29.61,29.61,0,0,1-2.886-1.8,34.715,34.715,0,0,1-5.491-4.846A35.1,35.1,0,0,1,6.815,529.1a40.065,40.065,0,0,1-3.014-6.21,49.693,49.693,0,0,1-2.02-6.657A64.649,64.649,0,0,1,.59,509.281c-.262-2.224-.439-4.607-.525-7.082-.144-4.132-.051-8.562.292-13.942.24-1.993.4-4.766.594-7.977.235-3.962.5-8.452.992-13.094A92.081,92.081,0,0,1,4.261,453.57a41.79,41.79,0,0,1,2-5.927A21.9,21.9,0,0,1,9,442.876a11.848,11.848,0,0,1,3.616-3.176,9.355,9.355,0,0,1,2.18-.857,9.984,9.984,0,0,1,2.45-.3,12.425,12.425,0,0,1,2.323.23,45.264,45.264,0,0,1,8.428-2.051c.635-.112,1.29-.227,1.949-.349a16.585,16.585,0,0,1-.447-6.008,107.346,107.346,0,0,1,2.455-14.7,84.009,84.009,0,0,1,4.758-14.2,68.913,68.913,0,0,1,3.375-6.641,60.922,60.922,0,0,1,4.109-6.194A55.3,55.3,0,0,1,49.09,383a52.258,52.258,0,0,1,5.737-4.975,29.226,29.226,0,0,0,5.5-5.565,28.05,28.05,0,0,0,3.616-6.489,35.47,35.47,0,0,0,2.2-15c-2.046-8.3-3.935-16.788-5.616-25.241C58.631,316.2,57.034,306.873,55.778,298c-1.406-9.929-2.388-19.33-2.921-27.944-.287-4.646-.448-9.134-.476-13.34-.03-4.414.085-8.633.34-12.539a4.083,4.083,0,0,1-1.625-1.352,7.6,7.6,0,0,1-1.066-2.222,16.394,16.394,0,0,1-.593-2.923,32.407,32.407,0,0,1-.206-3.455,121.558,121.558,0,0,1,1.343-15.775,72.987,72.987,0,0,0,.881-9.5c.006-.875.047-1.775.087-2.646a25.827,25.827,0,0,0-.306-6.958c-1.953-1.775-3.822-3.636-5.555-5.53-1.7-1.857-3.315-3.8-4.8-5.774-1.458-1.934-2.836-3.952-4.093-6-1.231-2-2.382-4.091-3.423-6.206-1.017-2.067-1.956-4.218-2.792-6.394-.816-2.123-1.557-4.331-2.2-6.562-.629-2.175-1.185-4.433-1.652-6.712-.455-2.219-.839-4.521-1.142-6.844a113.9,113.9,0,0,1-.915-14.006c-.026-4.53.19-9.343.643-14.306A236.3,236.3,0,0,1,29.976,92.1a3.1,3.1,0,0,1-.986-.994,3.343,3.343,0,0,1-.443-1.239,4.709,4.709,0,0,1,0-1.352,6.3,6.3,0,0,1,.335-1.331c1.114-3.124,2.528-6.224,3.9-9.223v0l.005-.012c.349-.766.71-1.557,1.059-2.334A85.235,85.235,0,0,1,72.129,24.7,86.494,86.494,0,0,1,92.391,15.78a23.123,23.123,0,0,0,2.855-1.243h0c1.184-.566,2.525-1.207,3.807-1.71a10.121,10.121,0,0,1,3.413-.866,2.128,2.128,0,0,1,.89.165,1.143,1.143,0,0,1,.561.541c1.984-.447,4.038-.872,6.277-1.3a17.012,17.012,0,0,0,1.354-3.259,18.524,18.524,0,0,0,.681-3.462,8.409,8.409,0,0,0,.078-1.75,4.849,4.849,0,0,1,.437-2.711.18.18,0,0,1,.017-.156A.059.059,0,0,1,112.809,0c.03,0,.059.032.082.09A2.947,2.947,0,0,1,113.4.04a1.135,1.135,0,0,1,.952.388c.448.576.235,1.7,0,2.618a15.947,15.947,0,0,1,.232,3.081,17.355,17.355,0,0,1-.344,3.074,18.439,18.439,0,0,1-.87,2.974,18.738,18.738,0,0,1-1.347,2.781,6.156,6.156,0,0,1-1.824,2.412,3.365,3.365,0,0,1-1.971.773,1.222,1.222,0,0,1-1.194-.667,1.96,1.96,0,0,1,.087-1.482,7.676,7.676,0,0,1,1.506-2.253A14.137,14.137,0,0,0,104.262,15a5.135,5.135,0,0,0-2.441,2.315c-.735,1.575-.364,3.569,1.1,5.926a10.245,10.245,0,0,0,3.858,5.055,26.8,26.8,0,0,0,7.315,3.728,53.128,53.128,0,0,0,9.521,2.306,69.407,69.407,0,0,0,10.475.79,53.268,53.268,0,0,0,15.22-2,25.017,25.017,0,0,0,5.878-2.566,12.525,12.525,0,0,0,3.943-3.67c1.8-2.74,1.894-6,.283-9.691-.16-.084-.732-.269-1.457-.5h0a22.118,22.118,0,0,1-4.809-1.914c.209.466.4,1.006.594,1.578.622,1.8,1.326,3.836,3.045,4.326a.948.948,0,0,1,.549.273.985.985,0,0,1,.284.523.681.681,0,0,1-.41.756,3.793,3.793,0,0,1-1.461.324,2.917,2.917,0,0,1-1.971-.79,6.489,6.489,0,0,1-1.413-1.969,26.284,26.284,0,0,1-1.681-5.062c-.131-.51-.254-.991-.37-1.385a23.407,23.407,0,0,1-1.44-5.37,12.614,12.614,0,0,1-.062-2.716,9.429,9.429,0,0,1,.619-2.629.256.256,0,0,1,.127-.036c.67,0,1.255,2.952,1.821,5.806a20.517,20.517,0,0,0,1.275,4.885,1.358,1.358,0,0,0,.262.036h.016a.807.807,0,0,0,.366.5,10.89,10.89,0,0,0,3.34,1.083,12.137,12.137,0,0,1,1.956.533,2.113,2.113,0,0,1,1.957-1,6.274,6.274,0,0,1,2.581.688c.519.2,1.066.378,1.6.553a13.047,13.047,0,0,1,4.41,2.089,49.457,49.457,0,0,1,8.291,4.44,51.9,51.9,0,0,1,7.158,5.754,61.814,61.814,0,0,1,11.084,14.565A81.7,81.7,0,0,1,202.72,59.7a96.918,96.918,0,0,1,3.358,18.008c.058.609.172,1.422.3,2.364.651,4.657,1.741,12.451-1.337,14.077-.327,4.322-.558,8.718-.708,13.44-.133,4.206-.2,8.573-.2,13.351,0,8.875.23,17.851.452,26.531v0c.249,9.729.507,19.79.44,29.716-.036,5.34-.161,10.22-.381,14.919-.247,5.27-.608,10.179-1.1,15.007,1.577,3.342,3.46,6.832,5.925,10.983a16.645,16.645,0,0,1,2.1,5.025,13.5,13.5,0,0,1,.153,5.4,1.821,1.821,0,0,1,.15.976,1.445,1.445,0,0,1-.437.864c-.188,2.9-1.915,4.189-3.914,5.68-.446.332-.906.675-1.365,1.049a11.006,11.006,0,0,0-1.379,1.187,6.179,6.179,0,0,1-2.564,1.749,46.355,46.355,0,0,0-.285,6.826c1.668,7.357,3.155,15.155,4.419,23.178,1.219,7.735,2.263,15.871,3.1,24.183.808,8.007,1.445,16.372,1.894,24.864.432,8.174.7,16.66.8,25.222.184,16.2-.236,33.1-1.248,50.224-.939,15.884-2.385,31.957-4.3,47.773-.807,6.607-1.479,13.348-2.129,19.867-.977,9.8-1.988,19.942-3.48,29.841a2.059,2.059,0,0,1-.857,1.372,2.65,2.65,0,0,1-1.517.436,3.367,3.367,0,0,1-.949-.137,24.435,24.435,0,0,1-4.846,2.647,44.208,44.208,0,0,1-5.3,1.788c-.191,3.189-.258,5.767-.212,8.115l.059.005a42.782,42.782,0,0,0,.9,6.185,3.294,3.294,0,0,1,1.028-.181,1.494,1.494,0,0,1,.746.167.827.827,0,0,1,.411.592,8.3,8.3,0,0,1,2.073,1.284,10.6,10.6,0,0,1,1.62,1.725,29.133,29.133,0,0,1,2.486,4.184h0a26.609,26.609,0,0,0,2.755,4.527c.4-.074.82-.171,1.269-.273h0a16.6,16.6,0,0,1,3.522-.543,3.453,3.453,0,0,1,2.966,1.25,1.64,1.64,0,0,1-.133,1.489,2.83,2.83,0,0,1-1.855.929,16.907,16.907,0,0,1-2.432.222h-.007c-.356.015-.664.028-.919.051,1.153,1.444,2.2,2.707,3.2,3.861.5-.119,1.066-.3,1.665-.492a13.774,13.774,0,0,1,3.906-.857,2.949,2.949,0,0,1,2.214.809,1.474,1.474,0,0,1,.381.743,1.224,1.224,0,0,1-.165.84,3.184,3.184,0,0,1-1.745,1.384,10.828,10.828,0,0,1-2.274.463c-.41.054-.8.1-1.173.177,1.369,1.356,2.875,2.7,4.6,4.121.819-.307,1.641-.66,2.436-1a23.348,23.348,0,0,1,6.049-1.964,1.593,1.593,0,0,1,.217-.015,1.548,1.548,0,0,1,1.467,1.273,1.725,1.725,0,0,1-.065,1.018,1.471,1.471,0,0,1-.739.783,18.709,18.709,0,0,1-3.257,1.2c-1.224.338-2.488.589-3.452.77a39.923,39.923,0,0,0,4.967,3.341c1.731,1,3.547,1.94,5.3,2.845h0c2.114,1.089,4.3,2.216,6.345,3.465a26.564,26.564,0,0,1,4.626,1.935,16.8,16.8,0,0,1,3.886,2.831,10.082,10.082,0,0,1,3.048,8.729c1.937.586,2.011,2.674,2.071,4.352l0,.137c.034.458.105.917.174,1.36v0a12.9,12.9,0,0,1,.192,1.757,4.556,4.556,0,0,1-.3,1.773,4.362,4.362,0,0,1-1.1,1.621,3.359,3.359,0,0,1-.824.573,2.114,2.114,0,0,1-.914.223,1.758,1.758,0,0,1-.873-.234,37.363,37.363,0,0,1-8.51,2.264A66.266,66.266,0,0,1,223.19,578.615Zm-71.254-25.193a15.483,15.483,0,0,0-.563,3.923,3.938,3.938,0,0,0,.726,2.378c.919,1.221,2.712,1.863,5.424,2.835l.651.233c3.614,1.2,8.447,2.791,13.79,4.4,5.793,1.749,11.091,3.2,16.2,4.441,6.118,1.485,11.914,2.639,17.225,3.432,2.965.442,5.847.782,8.568,1.011,2.9.243,5.691.366,8.308.366a66.763,66.763,0,0,0,11.132-.864,45.916,45.916,0,0,0,5.073-1.152,35.981,35.981,0,0,0,4.659-1.7,3.876,3.876,0,0,0,.206-1.886,13.32,13.32,0,0,1-.1-1.947,7.983,7.983,0,0,0-.38-3.021,6.8,6.8,0,0,1-1.152,2.258,7.98,7.98,0,0,1-1.824,1.7,11.744,11.744,0,0,1-4.785,1.812c-2.108.4-4.284.708-6.468.9-2.084.187-4.242.282-6.415.282a85.548,85.548,0,0,1-9.971-.6c-3.112-.362-6.337-.882-9.859-1.59-6.537-1.314-13.092-3.083-19.431-4.795h0c-4.869-1.315-9.9-2.674-14.823-3.793a42.9,42.9,0,0,1-9.329-2.52,15.583,15.583,0,0,1-3.919-2.4,12.247,12.247,0,0,1-2.94-3.7Zm4.078-29.783a18.716,18.716,0,0,0-2.379,5.731,43.445,43.445,0,0,0-.963,6.082,62.982,62.982,0,0,0-.087,6.3,29.672,29.672,0,0,0,.588,4.98,15.712,15.712,0,0,0,1.319,3.853,11.313,11.313,0,0,0,2.108,2.923,16.864,16.864,0,0,0,6.811,3.844,82.035,82.035,0,0,0,10.652,2.489c1.688.459,3.4.933,5.064,1.392,6.006,1.66,12.217,3.377,18.427,4.715,3.343.72,6.413,1.274,9.384,1.695,3.338.472,6.467.764,9.566.893,1.82.152,3.655.229,5.456.229h0a62.341,62.341,0,0,0,8.73-.61,27.056,27.056,0,0,0,4.515-.684,5.506,5.506,0,0,0,3.23-1.956,3.846,3.846,0,0,0,.655-1.85,7.427,7.427,0,0,0-.285-2.623,7.972,7.972,0,0,0-1.565-2.736,10.4,10.4,0,0,0-2.359-1.975,32.047,32.047,0,0,0-6-2.663,37.525,37.525,0,0,1-4.971-2.089,52.535,52.535,0,0,1-7.251-4.374,63.6,63.6,0,0,1-6.478-5.35l-.587.1-.018,0a23.922,23.922,0,0,0-3.765.877,6.881,6.881,0,0,0-3.122,2.03.1.1,0,0,1-.077.038.117.117,0,0,1-.1-.058.094.094,0,0,1,0-.1,7.6,7.6,0,0,1,2.685-2.658,23.2,23.2,0,0,1,3.494-1.683c-.765-.763-1.51-1.567-2.23-2.343l0,0,0,0c-.758-.817-1.542-1.663-2.35-2.463a39.878,39.878,0,0,0-4.958,1.452,34.951,34.951,0,0,1-5.546,1.555c-.01-.38.334-.877,1.021-1.477a18.209,18.209,0,0,1,2.409-1.7,46.108,46.108,0,0,1,4.678-2.476c-1.244-1.443-2.433-2.943-3.534-4.459a26.9,26.9,0,0,0-5.828,2.209,38.045,38.045,0,0,1-4.016,1.705,4.455,4.455,0,0,1,1.075-2.048,12.147,12.147,0,0,1,2.089-1.88,27.671,27.671,0,0,1,4.79-2.727,21.241,21.241,0,0,1-2.32-3.947v0a28.3,28.3,0,0,0-2.3-4.031,7.225,7.225,0,0,0-1.391-1.467,3.72,3.72,0,0,0-1.651-.754,57.828,57.828,0,0,0-17.109,15.082c-.3.405-.605.838-.9,1.257a11.668,11.668,0,0,1-3.83,4,7.346,7.346,0,0,1-2.887.647,5.485,5.485,0,0,1-2.369-.531,6.673,6.673,0,0,1-1.94-1.432,12.836,12.836,0,0,1-2.808-5.188,18.9,18.9,0,0,1-.637-2.972A16.061,16.061,0,0,1,156.014,523.639ZM15.53,441.049a14.658,14.658,0,0,0-3.358,2.986,21.165,21.165,0,0,0-2.6,4.022,33.455,33.455,0,0,0-1.956,4.838A52.828,52.828,0,0,0,6.2,458.328,99.021,99.021,0,0,0,4.6,470.1c-.334,3.981-.517,7.986-.678,11.52v.005c-.151,3.312-.294,6.441-.535,8.981-.2,2.508-.307,5.029-.31,7.494,0,2.67.113,5.3.345,7.813a59.44,59.44,0,0,0,3.3,15.257,39.035,39.035,0,0,0,3.271,6.781,30.232,30.232,0,0,0,4.567,5.775,26.614,26.614,0,0,0,6.023,4.438,27.617,27.617,0,0,0,3.607,1.614,30.48,30.48,0,0,0,4.032,1.155,9.984,9.984,0,0,0,1.413.1h0a11.963,11.963,0,0,0,2.09-.184,9.657,9.657,0,0,0,2.034-.583,5.775,5.775,0,0,0,1.669-1.026,3.453,3.453,0,0,0,1-1.513,21.433,21.433,0,0,1-4.09,1.532,15.35,15.35,0,0,1-3.771.494,12.937,12.937,0,0,1-2.752-.292,12.782,12.782,0,0,1-2.56-.852,15.7,15.7,0,0,1-4.558-3.235,33.169,33.169,0,0,1-6.954-11.535,73.37,73.37,0,0,1-3.1-10.434,113.634,113.634,0,0,1-1.965-11.821A153.17,153.17,0,0,1,5.918,476.6,112.777,112.777,0,0,1,9.03,454.54a46.844,46.844,0,0,1,2.856-8.17A17.1,17.1,0,0,1,15.53,441.049Zm15.005-2.411a30.239,30.239,0,0,0-8.544,1.425,12.133,12.133,0,0,0-3.624,2.009,9.042,9.042,0,0,0-2.537,3.361A114.932,114.932,0,0,0,9.984,476.5a145.291,145.291,0,0,0,1.867,31.628,77.224,77.224,0,0,0,1.862,8.036,55.158,55.158,0,0,0,3.439,9.065,25.921,25.921,0,0,0,5.294,7.513,13.514,13.514,0,0,0,3.429,2.368,10.668,10.668,0,0,0,4,1.011,8.3,8.3,0,0,0,3.607-1.378,10.571,10.571,0,0,0,2.735-2.823,18.715,18.715,0,0,0,1.986-3.956,34.158,34.158,0,0,0,1.36-4.775,72.5,72.5,0,0,0,1.335-10.753c.219-3.642.267-7.163.309-10.269v0c.034-2.482.063-4.625.174-6.233-.673-.065-1.39-.1-2.255-.1-.709,0-1.424.021-2.114.041h0c-.692.02-1.407.041-2.105.041a20.791,20.791,0,0,1-2.761-.156c-.007-1.255,7.981-2.58,9.374-2.728.1-1.71.22-3.275.377-4.783a31.141,31.141,0,0,0-5.515-.422h0a34.877,34.877,0,0,1-4.865-.31,7.493,7.493,0,0,1,4.1-1.785,46.184,46.184,0,0,1,5.245-.616h.013c.514-.04,1-.077,1.424-.118.153-1.072.347-2.212.591-3.484-2.92-.413-5.952-.685-9.011-.811-.149-.007-.31-.01-.49-.01-.317,0-.64.01-.981.02h-.017c-.319.01-.681.021-1.032.021a6.519,6.519,0,0,1-2.462-.373c.359-.468,1.485-.814,3.347-1.03a50.6,50.6,0,0,1,5.616-.257c2.232,0,4.417.09,5.5.173a67.516,67.516,0,0,1,3.377-10.85,11.1,11.1,0,0,1-3.166,1.635,10.693,10.693,0,0,1-3.29.515,11.761,11.761,0,0,1-4.465-.9,13.027,13.027,0,0,1-2.041-1.055,13.355,13.355,0,0,1-1.832-1.4,13.132,13.132,0,0,1-1.562-1.693,12.47,12.47,0,0,1-1.232-1.943,11.24,11.24,0,0,1-1.229-4.451c.079-7.087,1.152-12.872,3.28-17.686C30.964,440.517,30.759,439.626,30.535,438.639ZM159.1,505.753c.125,2.938.154,5.927.181,8.819v0c.042,4.424.086,9,.469,13.65a8.545,8.545,0,0,0,1.693,3.561,4.8,4.8,0,0,0,1.279,1.1,2.768,2.768,0,0,0,3.237-.253,6.843,6.843,0,0,0,1.742-2.177,53.468,53.468,0,0,1,7.936-9.128,103.839,103.839,0,0,1,9.425-7.707,7.435,7.435,0,0,1-.92-4.121c0-.14-.009-.266-.014-.393a14.8,14.8,0,0,1,.2-2.018h0c.046-.306.089-.6.117-.861h-.02a55.916,55.916,0,0,1,1.272-7.639,76.232,76.232,0,0,1-18.2,2.28,65.528,65.528,0,0,1-8.8-.585c.159,1.662.28,3.453.371,5.474l.028,0h0Zm-1.713-5.667c.049.2.08.4.111.6v0c.012.08.025.164.039.246l.029-.21,0-.028c.024-.174.052-.371.08-.561l-.129-.022h0Zm-1.016-220.912a.258.258,0,0,1,.211.1.159.159,0,0,1,.009.157c-3.589,8.623-6.674,15.654-9.706,22.13,1.114,6.152,2.611,12.357,4.06,18.357l0,.007v0c1.451,6.013,2.952,12.23,4.066,18.394.6,3.318,1.043,6.357,1.355,9.29a92.211,92.211,0,0,1,.541,9.4c-.2,6.091-.645,12.74-1.357,20.326-.634,6.76-1.418,13.626-2.176,20.265l0,.014c-1.107,9.7-2.252,19.727-2.953,29.619-.377,5.325-.6,10.185-.68,14.86-.09,5.247,0,10.127.277,14.918-.074,3.5.139,7.162.346,10.7A110.65,110.65,0,0,1,150.6,481.3a41.292,41.292,0,0,1-.935,6.609,32.147,32.147,0,0,1-.916,3.214,29.041,29.041,0,0,1-1.285,3.137c.147.277.529.365.866.443.11.025.213.049.3.078,1.665.559,3.133,1.031,4.486,1.443,4.831.388,8.757.569,12.356.569a70.707,70.707,0,0,0,16.065-1.619,43.994,43.994,0,0,0,7.53-2.451,35.09,35.09,0,0,0,6.864-3.926c1.55-10.438,2.935-21.1,4.116-31.677,1.172-10.495,2.175-21.2,2.983-31.818.8-10.534,1.431-21.272,1.873-31.916.438-10.561.7-21.318.786-31.972.083-10.574-.011-21.335-.278-31.985-.265-10.574-.708-21.326-1.318-31.957-.605-10.559-1.391-21.287-2.334-31.886-.937-10.528-2.057-21.218-3.327-31.772-2.056.9-4.087,1.7-6.036,2.352a57.791,57.791,0,0,1-5.662,1.6,47.232,47.232,0,0,1-10.548,1.2,57.71,57.71,0,0,1-15.284-2.247c-5.058-1.364-10.306-3.242-16.641-5.554-1.657-.472-3.615-1.007-5.58-1.392a29.625,29.625,0,0,0-5.717-.608c-.375,0-.751.009-1.118.027a48.275,48.275,0,0,1,6.595,3.341,18.941,18.941,0,0,1,2.374,1.754,13.079,13.079,0,0,1,1.838,1.963,12.2,12.2,0,0,1,1.361,2.286,15.647,15.647,0,0,1,.943,2.724,34.653,34.653,0,0,1,.87,7.22,25.009,25.009,0,0,0,2.074,6.137c.161.368.344.785.516,1.191a1.479,1.479,0,0,1-.231,1.355,1.806,1.806,0,0,1-1.434.781,1.481,1.481,0,0,1-.486-.082c-.393-.136-.8-.271-1.188-.4l-.008,0-.647-.217a2.976,2.976,0,0,1-.282,2.4,3.659,3.659,0,0,1-1.514,1.268,8.541,8.541,0,0,1-2.123.68,7.177,7.177,0,0,1-2.923,2.715,15.717,15.717,0,0,1-3.782,1.062l-.548.11a10.987,10.987,0,0,0-3.5,2.311,10.815,10.815,0,0,1-3.612,2.353,5.978,5.978,0,0,1-1.957.325c-3.279,0-6.493-2.535-8.84-4.386l-.037-.03a37.7,37.7,0,0,1-3.9-3.239,39.758,39.758,0,0,1-3.37-3.643,49.263,49.263,0,0,1-5.443-8.352,46.106,46.106,0,0,0-4.829-6.166c-1.932-2.11-4-4.08-5.595-5.562a15.49,15.49,0,0,1-3.312-2.24c-1.01-.868-1.965-1.845-2.888-2.789-.651-.666-1.324-1.354-2.013-2-2.18.439-4.442.722-6.836,1.022h0a63.3,63.3,0,0,0-10.946,2.023,22.2,22.2,0,0,0-4.919,2.165,17.3,17.3,0,0,0-2.193,1.569,16.379,16.379,0,0,0-1.966,1.969c-.358,12.168.474,28.15,2.4,46.218.857,8.019,1.9,16.173,3.1,24.236,1.15,7.721,2.387,14.98,3.677,21.575.259,1.289.542,2.625.816,3.916v0a110.919,110.919,0,0,1,2.39,14.335,41.042,41.042,0,0,1-.023,7.168,30.873,30.873,0,0,1-.544,3.519,26.984,26.984,0,0,1-6.3,12.355,77.239,77.239,0,0,1-7.548,7.4,68.92,68.92,0,0,0-5,5.413c-1.532,1.846-3.008,3.82-4.388,5.865-1.337,1.981-2.618,4.082-3.808,6.244-1.152,2.092-2.248,4.3-3.259,6.55-.659,1.733-1.645,4.37-2.588,7.252a90.289,90.289,0,0,0-2.421,8.721,42.615,42.615,0,0,0-1.1,8.658,20.256,20.256,0,0,0,.311,3.827,11.588,11.588,0,0,0,1.077,3.237l.007-.006.006,0c.05-.041.1-.083.151-.122a5.225,5.225,0,0,0,.485,1.2l-.05.149c1.628,3.6,3,6.579,4.53,9.361a46.079,46.079,0,0,0,2.508,4.081,29.97,29.97,0,0,0,2.879,3.568,22.218,22.218,0,0,0,7.491,5.258,25.666,25.666,0,0,0,4.925,1.521,35.394,35.394,0,0,0,5.919.669,86.582,86.582,0,0,1,2.211-9.957,95.586,95.586,0,0,1,3.293-9.578c1.228-3.045,2.654-6.145,4.237-9.215,1.507-2.921,3.2-5.9,5.043-8.869,1.738-2.8,3.66-5.673,5.712-8.539,1.919-2.68,4.019-5.448,6.242-8.226,3.916-4.894,8.339-9.989,13.522-15.577a81.046,81.046,0,0,0,6.249-8.089c.971-1.456,1.853-2.918,2.622-4.347a44.446,44.446,0,0,0,2.153-4.594c.3-1.088.614-2.194.913-3.264l.013-.046c1.825-6.53,3.712-13.281,5.7-19.873,2.225-7.387,4.342-13.786,6.471-19.562a202.625,202.625,0,0,1,8.025-18.961c1.542-3.158,3.17-6.242,4.839-9.165,1.751-3.066,3.608-6.062,5.52-8.906,3.258-5.538,6.614-10.73,10.663-16.941A.211.211,0,0,1,156.368,279.174ZM32.786,446.425h0c-.054.395-.1.724-.133,1.036-.071,1.1-.21,2.244-.356,3.455a31.946,31.946,0,0,0-.316,7.755,10.4,10.4,0,0,0,1.052,3.524,8.447,8.447,0,0,0,1.047,1.56,9.027,9.027,0,0,0,1.477,1.382,6.977,6.977,0,0,0,4.321,1.446,8.04,8.04,0,0,0,3.389-.763,7.781,7.781,0,0,0,2.756-2.148,29.017,29.017,0,0,1-8.081-7.547,38.943,38.943,0,0,1-5.157-9.7ZM34.372,91.9c-1.829,9.894-3.427,18.794-4.447,27.528-.56,4.793-.9,9.131-1.037,13.261-.074,2.223-.089,4.41-.043,6.5.048,2.186.163,4.344.342,6.414.186,2.151.448,4.279.778,6.326.342,2.118.767,4.217,1.265,6.238.513,2.084,1.12,4.153,1.8,6.149.7,2.052,1.507,4.09,2.392,6.058.908,2.019,1.928,4.026,3.032,5.967,1.13,1.986,2.383,3.963,3.724,5.875,1.37,1.954,2.872,3.9,4.466,5.782,1.626,1.921,3.4,3.835,5.259,5.689,4.054,4.4,8.6,9.11,13.894,14.4,4.722,4.721,9.592,9.461,14.3,14.045l.013.012c6.314,6.145,12.843,12.5,19.1,18.893a26.476,26.476,0,0,1,4.134,4.776c1.214,1.751,2.3,3.627,3.3,5.4,1.615,2.841,5.528,7.1,8.117,9.915a19.8,19.8,0,0,1,2.346,2.727,34.527,34.527,0,0,0,3.742,2.6,8.122,8.122,0,0,0,1.483.669,4.418,4.418,0,0,0,1.362.227,5.138,5.138,0,0,0,2.737-.912,24.018,24.018,0,0,0,3.472-2.82,11.269,11.269,0,0,1,4.039-1.551c.409-.1.831-.2,1.258-.319a4.128,4.128,0,0,0,2.217-1.667,5.152,5.152,0,0,1,3.694-2.164,4.392,4.392,0,0,1,.421-1.809,12.822,12.822,0,0,1-3.2-2.18,11.359,11.359,0,0,1-2.322-3.02.861.861,0,0,1,.017-.874,1.085,1.085,0,0,1,.9-.51.817.817,0,0,1,.74.462,10.425,10.425,0,0,0,2.5,3.015A8.1,8.1,0,0,0,143.8,254.8a27.719,27.719,0,0,1-1.624-5.019c-.339-1.524-.526-2.938-.691-4.185a30.075,30.075,0,0,0-.621-3.6,9.434,9.434,0,0,0-1.426-3.161,11.806,11.806,0,0,0-3.122-2.927,31.237,31.237,0,0,0-5.71-2.9,50.743,50.743,0,0,1-13.564-7.333,56.707,56.707,0,0,1-5.579-4.833,68.672,68.672,0,0,1-4.947-5.449c-1.5-1.832-2.951-3.776-4.442-5.942-1.329-1.932-2.658-4-4.064-6.314-2.612-4.308-5.1-8.857-7.5-13.256l0-.006c-1.763-3.226-3.586-6.562-5.447-9.783-2.089-3.615-4.006-6.7-5.859-9.418A86.3,86.3,0,0,0,72.534,162c-1.226-1.388-2.492-2.71-3.762-3.929-1.333-1.278-2.717-2.488-4.115-3.6a2.767,2.767,0,0,1-.82.136,1.838,1.838,0,0,1-1.489-.731,4.481,4.481,0,0,1-.8-2.2,7.314,7.314,0,0,1,.094-2.368c.41-4.5.73-8.914,1.039-13.181v-.008c.435-6.005.846-11.677,1.484-17.5.343-3.127.719-6,1.15-8.79.483-3.118,1.022-6.055,1.65-8.979a80.879,80.879,0,0,0-7.777-3.291c-2.576-.938-5.3-1.79-8.1-2.533-2.657-.7-5.453-1.33-8.312-1.859C40.08,92.675,37.252,92.248,34.372,91.9ZM54.193,243.876a2.055,2.055,0,0,1-.418.19c.141,3.262.329,6.536.558,9.732C54.208,250.39,54.161,247.052,54.193,243.876ZM200.544,93.623l-.16.022a63.976,63.976,0,0,0-11.439,2.293c.459,8.754.549,17.733.637,26.416v.019c.064,6.328.13,12.872.338,19.289.233,7.2.624,13.474,1.2,19.174a167.354,167.354,0,0,0,2.912,18.9c.69,3.183,1.487,6.312,2.368,9.3.924,3.133,1.973,6.219,3.118,9.173.23-6.6.35-13.628.367-21.5.017-7.792-.072-15.583-.151-21.5q-.025-1.577-.05-3.137c-.16-10.069-.31-19.58-.239-29.159.081-10.745.431-20.052,1.1-29.289ZM152.967,14.248c.01.034.022.07.033.1h0a.226.226,0,0,1,.054-.048l-.031-.019-.006,0Zm-43.045-2.4h0l-.417.121-.023.007-.022.006c-.206.059-.418.121-.627.183.321-.036.64-.064.95-.085.055-.087.1-.163.14-.232Z" transform="translate(45.835 -2.37)"/>
    </g>
    <g id="Head" transform="translate(95.946 42.662)">
      <g id="HEAD-2" data-name="HEAD">
        <path id="_Skin-2" data-name="âœ‹ Skin" d="M83.068,38.146C81.441,18.314,76.488.749,53.214,0A81.259,81.259,0,0,0,22.332,6.454C-1.143,18.225-8.591,61.238,12.091,78.553a.22.22,0,0,0-.007.37A80.045,80.045,0,0,0,25.863,86.15c12.671,5.357,27.587,7.684,40.509,1.873,19.721-8.392,20.016-31.743,16.7-49.878Z" transform="translate(13.745 27.019)" fill="#d08b5b"/>
        <path id="_Ink-2" data-name="ðŸ– Ink" d="M171.178,84.362A5.9,5.9,0,0,0,172.9,81.6a5.4,5.4,0,0,0,0-3.024c-.318-1.048-1-1.882-.848-2.972a2.488,2.488,0,0,1,.071-.329c.592-2.053,2.05-3.534,1.529-5.809a3.942,3.942,0,0,0-.81-1.676c.043-.493.081-.991.111-1.488a7.945,7.945,0,0,0-.088-6.354,24.011,24.011,0,0,0-.517-2.993,5.753,5.753,0,0,0-.322-2.588,36.786,36.786,0,0,0-1.757-3.955,1.457,1.457,0,0,0-.153-1.063,9.885,9.885,0,0,0-1.307-1.66c-.34-.607-.683-1.21-1.022-1.8-.157-.273-.331-.576-.523-.9a3.083,3.083,0,0,0,.249-3.051,1.409,1.409,0,0,0-1.247-.715c-.513.031-1.031.054-1.552.073a11.1,11.1,0,0,0-3.257-2.837c-1.2-1.014-2.41-2.01-3.59-3.027l-1-.867-.007-.024c-.246-.9-.524-1.785-.8-2.676-.173-.552-.225-1.131-.763-1.432a11.032,11.032,0,0,0-4.14-.834l-.384-.339a6.027,6.027,0,0,0-.256-4.778,1.175,1.175,0,0,0-1.6-.42,5.361,5.361,0,0,1-3.711.979c-1.905-1.465-9.591-8.088-10.778-8.787-.015-.025-.027-.05-.042-.075a9.638,9.638,0,0,0-2.39-2.609l-.39-.408a4.961,4.961,0,0,1,.9-2.254c.052-.076.111-.149.171-.22a1.138,1.138,0,0,0-1.372-1.78c-.085.038-.171.076-.256.116-.911.406-1.919.848-2.969,1.22-.384-.144-.776-.274-1.133-.418l-3.824-1.537c-.629-.253-1.295-.468-1.9-.765a2.932,2.932,0,0,0-3.1-2.29,2.752,2.752,0,0,1,.39-.784c.052-.073.109-.145.168-.213.756-.879-.254-2.51-1.334-1.728l-.23.164c-.3.211-.608.408-.918.6a2.091,2.091,0,0,0-1.644-.037,16.916,16.916,0,0,0-3.638,1.822c-.046.032-.095.06-.141.09a3.113,3.113,0,0,0-2.279-1.139h-.044a2.981,2.981,0,0,0-2.792-1.331,2.844,2.844,0,0,0-5.572-.624L99.724,3.2a12.483,12.483,0,0,0-3.462-1.189,17.879,17.879,0,0,0-8.1.8c-.265.076-.53.155-.794.233-.378-.438-.733-.887-1.072-1.306a1.12,1.12,0,0,0-1.9.785,1.522,1.522,0,0,1-.614,1.43,9.092,9.092,0,0,1-1.577.074A5.183,5.183,0,0,1,80,3.617a2.926,2.926,0,0,1-1.222-1.008c-.966-1.523-3.419-1.934-4.587-.481a3.012,3.012,0,0,0-3.464,1.251,3.466,3.466,0,0,1-2.04,1.116c-.7.2-1.424.347-2.147.477a1.118,1.118,0,0,0-1.5-.364c-.337.249-.665.5-.988.767A13.965,13.965,0,0,1,56.7,4.759c-2.011-.822-3.857,1.424-3.525,3.309-.582.3-1.214.5-1.789.822a7.092,7.092,0,0,0-2.913,3.078c-.113.231-.214.465-.311.7-.469.382-.933.774-1.385,1.187L44.522,12.7a1.119,1.119,0,0,0-1.626.661,6.807,6.807,0,0,1-1.258,3.11,51.5,51.5,0,0,0-5.929,3.643c-2.178.683-4.493,1.081-6.4,1.529a1.079,1.079,0,0,0-.64,1.571q.583.9,1.164,1.8-1.625,1.586-3.06,3.3A61.4,61.4,0,0,0,19.871,38.66l-2.375.958a1.121,1.121,0,0,0-.488,1.846,7.065,7.065,0,0,1,.782.981A13.047,13.047,0,0,1,13.5,47.1a2.9,2.9,0,0,0-1.209,1.465c-.192.128-.382.265-.569.405a1.136,1.136,0,0,0-.225,1.761,7.069,7.069,0,0,1,1.173,1.259c.073.268.149.538.225.806a19.946,19.946,0,0,0-4.214,5.47.942.942,0,0,0-.725.142c-1.915,1.415-1.972,3.669-1.2,5.683a20.582,20.582,0,0,0,.73,9.089A8.537,8.537,0,0,0,5.312,77.69a92.158,92.158,0,0,0-.678,10.222,10.458,10.458,0,0,0-2.709,4.57l-1.287.64A1.259,1.259,0,0,0,0,94.234a9.014,9.014,0,0,0,2.067,5.112,11.255,11.255,0,0,0,1.749,3.159,23.965,23.965,0,0,1,1.507,2.074,1.319,1.319,0,0,1,.1.19,4.211,4.211,0,0,0-.46.747,4.841,4.841,0,0,0,.443,5.871,1.461,1.461,0,0,0-.088,2.038c3.363,3.842,6.166,8.513,10.833,10.554a1.165,1.165,0,0,1,.057.107,6.881,6.881,0,0,0-.3,5.809.609.609,0,0,0,.019.062c.412,1.232,1.171,3.207,2.538,3.591a4.6,4.6,0,0,0,1.275.173q1.628,1.568,3.251,3.14a10.916,10.916,0,0,1,.173,1.571,1.4,1.4,0,0,0,1.758,1.339c.315-.092,2.059-1.787,2.379-1.778.161.161.318.322.474.486a5.247,5.247,0,0,1,1.441,2.19,3.106,3.106,0,0,0,2.173,2.8,1.2,1.2,0,0,0,1.813,0c.038-.04.076-.081.116-.116l.182-.021q.419,1.251.841,2.5c.552,1.64,2.661,2.695,4.159,1.737.242.145.479.3.716.453.36.23.725.465,1.1.685.021.062.043.123.062.182a1.316,1.316,0,0,0,1.865.709,5.479,5.479,0,0,0,.588.152,5.918,5.918,0,0,0,3.107-.2,9.511,9.511,0,0,1,2.19-.782c.049,0,.1,0,.148,0a6.105,6.105,0,0,0,3.225,2.8,5.992,5.992,0,0,0,4.389-.29,10.194,10.194,0,0,0,1.381,2.074.841.841,0,0,0,1.173,0q.9-.8,1.787-1.6c.43-.166.864-.365,1.316-.549a25.226,25.226,0,0,0,4.277-1.654,7.231,7.231,0,0,0,1.688-1.49A12.155,12.155,0,0,0,70,146.132a2.5,2.5,0,0,0,1.145-.277,4.763,4.763,0,0,0,2.493-4.124,29.064,29.064,0,0,0,2.251-9.544,23.739,23.739,0,0,0,0-3.259,5.716,5.716,0,0,0-.538-1.962,6.07,6.07,0,0,1-.254-.659c.017-.73.026-1.46.036-2.188a4.1,4.1,0,0,1,1.036-1.666,2.673,2.673,0,0,0,.415-3.209q-.672-.892-1.341-1.785c.126-2.553.737-6.615-.619-7.042.055-.379.171-.754.237-1.131a6.867,6.867,0,0,0-.834-5.013c-.2-.329-.372-.621-.512-.905L73.25,101.8c-.135-.8-.268-1.614-.382-2.429-.059-1.038-.114-2.076-.173-3.117q-.082-1.436-.18-2.875c.026-.429.064-.858.118-1.287.325-2.557,1.37-3.5,3.18-5.281.284-.045.566-.095.844-.152a12.872,12.872,0,0,1,3.972-.533c1.443.161,2.735.785,4.138-.012.412-.237,1.32-.891,1.4-1.41a.323.323,0,0,1,.021-.083c.1-.014.223-.026.3-.028,1.114-.038,2.178.4,3.3.28a5.166,5.166,0,0,0,3.3-1.607,8.242,8.242,0,0,0,3.067.22,6.817,6.817,0,0,0,2.427-.82c.562-.3.384-.391,1-.145,1.391.564,2.65,1.308,4.216.922a4.481,4.481,0,0,0,2.1-1.228,7.173,7.173,0,0,0,.536-.538c.744.377,2.616,1.228,2.924,1.3a4.78,4.78,0,0,0,2.645-.1c.623-.209,1.386-.777,1.934-.894.709-.152,2.282.834,3.128,1.173a5.958,5.958,0,0,0,4.557.128c.517-.211,1.521-1.052,1.908-1.045a42.161,42.161,0,0,1,2.908,6.563c2.131,6.257,2.683,25.794,1.7,30.778-.038.147-.078.292-.118.438a70.877,70.877,0,0,1-4.489,12.782,20.877,20.877,0,0,1-8.33,9.312,23.631,23.631,0,0,1-12.944,2.432,44.926,44.926,0,0,1-8.385-1.472c-1.436-.372-2.86-.787-4.278-1.218-.619-.187-1.247-.363-1.853-.581a2.838,2.838,0,0,0-2.659.078,1.934,1.934,0,0,0-.687,2.617c.792,1.365,2.242,1.46,3.643,1.858,1.427.405,2.858.794,4.3,1.142a55.693,55.693,0,0,0,8.4,1.408,28.913,28.913,0,0,0,14.9-2.441c.521-.251,1.024-.519,1.51-.808-.18.251-.363.5-.547.751a1.646,1.646,0,0,0,.585,2.24c.228.118.455.232.685.344.031.073.064.147.1.22a5.021,5.021,0,0,0,3.432,2.432,20.338,20.338,0,0,0,5.218.066l4.7-.142c.37-.009.739-.021,1.109-.033l5.583-.168a5.575,5.575,0,0,0,3.138-.585,4.654,4.654,0,0,0,1.742-1.282,7.008,7.008,0,0,0,.865-.457,11.294,11.294,0,0,0,2.413-2.119c1.239.391,2.977.028,3.218-1.529.389-2.491,3.626-3.555,5.138-5.356a8.12,8.12,0,0,0,2.048-5.183c3.076-1.488,4.749-5.411,5.14-8.739.182-1.543.154-3.195.417-4.764a2.613,2.613,0,0,0,.308-.4,33.14,33.14,0,0,0,2.038-3.854,5.318,5.318,0,0,1,2.789-1,2.209,2.209,0,0,0,.585-4.318l-.033-.012a6.216,6.216,0,0,0-.192-5.046c.033-.166.064-.329.095-.5a7.553,7.553,0,0,0,2.014-5.368,6.567,6.567,0,0,1,2.038-.967,1.307,1.307,0,0,0,.308-2.356,3.989,3.989,0,0,1-.865-.877,5.565,5.565,0,0,0-.848-5.278l2.3-2.944a1.7,1.7,0,0,0,0-2.368Q171.923,84.951,171.178,84.362Z" transform="translate(-35.548 -28.441)"/>
      </g>
      <g id="FACE" transform="translate(37.761 44.084)">
        <path id="_Ink-3" data-name="ðŸ– Ink" d="M25.657,45.461a9.063,9.063,0,0,1-3.431-.684,9.7,9.7,0,0,1-2.239-1.284,9.528,9.528,0,0,1-1.823-1.835,1.877,1.877,0,0,1-.38-1.455,2.1,2.1,0,0,1,.818-1.315,2.018,2.018,0,0,1,1.2-.417,1.744,1.744,0,0,1,.268.021,1.853,1.853,0,0,1,1.24.818l.073.1a6.4,6.4,0,0,0,2.345,1.964,5.334,5.334,0,0,0,2.326.542,5.164,5.164,0,0,0,.576-.032,6.066,6.066,0,0,0,2.561-.9,11.986,11.986,0,0,0,2.169-1.807c.155-.158.32-.33.533-.557a.844.844,0,0,1,.442-.34.908.908,0,0,1,.288-.046.978.978,0,0,1,.322.055.967.967,0,0,1,.48.363.892.892,0,0,1,.152.588,5.387,5.387,0,0,1-.641,2.09,6.979,6.979,0,0,1-1.371,1.757,8.815,8.815,0,0,1-2.077,1.445,8.659,8.659,0,0,1-2.3.789A8.505,8.505,0,0,1,25.657,45.461Zm2.415-13.648h0a8.305,8.305,0,0,1-2.956-.595,14.94,14.94,0,0,1-3.477-1.969,1.333,1.333,0,0,1-.485-.77,1.592,1.592,0,0,1,.069-.865,1.967,1.967,0,0,1,.585-.844,1.427,1.427,0,0,1,.912-.355,1.3,1.3,0,0,1,.706.216l.235.181,0,0a18.824,18.824,0,0,0,2.176,1.51,5.369,5.369,0,0,0,2.609.83,2.822,2.822,0,0,0,1.1-.216,3.08,3.08,0,0,0,1.026-.726,3.137,3.137,0,0,0,.6-2.529,4.774,4.774,0,0,0-1.27-2.243,9.26,9.26,0,0,0-1.923-1.549.594.594,0,0,1-.161-.684.893.893,0,0,1,.3-.426.911.911,0,0,1,.568-.187,1.212,1.212,0,0,1,.2.018,6.458,6.458,0,0,1,2.268.818,5.141,5.141,0,0,1,1.525,1.4,5.568,5.568,0,0,1,.974,3.725,6.128,6.128,0,0,1-.5,1.955,5.7,5.7,0,0,1-1.124,1.68A5.379,5.379,0,0,1,28.072,31.813ZM8.835,18.486A1.979,1.979,0,0,1,6.917,16.73a14.215,14.215,0,0,1,.076-3.709c.045-.36.091-.733.124-1.135A2.219,2.219,0,0,1,7.959,10.3a2.6,2.6,0,0,1,1.6-.561,1.972,1.972,0,0,1,1.208.379,1.787,1.787,0,0,1,.667,1.185,9.934,9.934,0,0,1-1.041,6.133,1.969,1.969,0,0,1-.7.8A1.607,1.607,0,0,1,8.835,18.486Zm28.237-.841a1.7,1.7,0,0,1-1.33-.569,5.182,5.182,0,0,1-.812-1.375,5.978,5.978,0,0,1-.413-1.656,3.506,3.506,0,0,1,.959-3.013,1.987,1.987,0,0,1,.154-.234,2.174,2.174,0,0,1,1.672-.96,1.815,1.815,0,0,1,.508.075,2.443,2.443,0,0,1,1.633,1.422,5.02,5.02,0,0,1,.2,2.751,9.2,9.2,0,0,1-.836,2.6,1.686,1.686,0,0,1-.722.712A2.193,2.193,0,0,1,37.072,17.645ZM.312,8.807A.308.308,0,0,1,.056,8.65a.343.343,0,0,1-.021-.337A11.7,11.7,0,0,1,2.662,4.995,16.241,16.241,0,0,1,6.177,2.6a15.138,15.138,0,0,1,4.175-1.453l.446-.078A10.884,10.884,0,0,1,12.62.87a2.818,2.818,0,0,1,2.248.837,1.9,1.9,0,0,1,.452,1.354,1.24,1.24,0,0,1-.452.885,3.468,3.468,0,0,1-2.374.695c-.187,0-.381,0-.568-.009H11.92c-.18,0-.384-.01-.586-.01-.186,0-.353,0-.508.013a16.081,16.081,0,0,0-3.534.6A24.028,24.028,0,0,0,.477,8.754.293.293,0,0,1,.312,8.807ZM43.306,7.012h0l-.188-.047a10.648,10.648,0,0,1-2.061-.8l-.669-.329A18.614,18.614,0,0,0,38,4.817a28.262,28.262,0,0,0-5.446-1.2A2.228,2.228,0,0,1,31.458,3.2a1.634,1.634,0,0,1-.611-.929A1.659,1.659,0,0,1,31.035.882,1.776,1.776,0,0,1,31.9.14,1.943,1.943,0,0,1,32.633,0a2.169,2.169,0,0,1,.424.042l.341.07A24.407,24.407,0,0,1,39.28,2.019a11.9,11.9,0,0,1,2.587,1.7A7.537,7.537,0,0,1,43.7,6.075c.064.493,0,.615-.062.7l-.019.024-.017.023a.473.473,0,0,1-.292.194Z" transform="translate(12.587 12.325)"/>
      </g>
    </g>
  </g>
</svg>
