<svg xmlns="http://www.w3.org/2000/svg" width="390.67" height="780" viewBox="0 0 390.67 780">
  <g id="peep-standing-30" transform="translate(28.736)">
    <g id="BODY" transform="translate(-28.736 150.264)">
      <path id="_Skin" data-name="âœ‹ Skin" d="M31,609.551h-.019a64.579,64.579,0,0,1-25.109-4.9c-2.295-.806-5.151-1.808-5.549-3.432-.654-4.441-.2-8.806.278-13.427h0c.194-2.031.334-3.954.47-5.814v0a90.891,90.891,0,0,1,2.356-16.808l.217-.749.01-.034c.55-1.894,1.069-3.684,1.508-5.439a44.413,44.413,0,0,0,1.018-5.191,27.026,27.026,0,0,0-.742-10.906c-.143-1.943,1.031-3.9,2.166-5.787.294-.489.571-.951.83-1.418a47.123,47.123,0,0,0,2.7-6.474c.441-1.228.9-2.5,1.414-3.741a69.208,69.208,0,0,1-8.367-1.982l-.45,1.616a.737.737,0,0,1-.809.535c-.262,0-.964-.127-1.065-.708.421-6.253,1.03-12.458,1.669-18.793.833-7.663,1.727-15.208,2.657-22.424.946-7.339,1.961-14.587,3.017-21.543,1.071-7.054,2.221-14.047,3.417-20.785,1.21-6.813,2.508-13.593,3.858-20.152A648.685,648.685,0,0,1,37.114,344.43c1.039-3.013,2.05-5.962,2.993-8.913,1.074-3.36,1.934-6.336,2.631-9.1a91.9,91.9,0,0,0,1.876-9.289,66.251,66.251,0,0,0,.728-9.485,24.589,24.589,0,0,0-5.1-.591,15.654,15.654,0,0,0-2.128.139,12.011,12.011,0,0,1-2.772-1.009,12.261,12.261,0,0,1-2.377-1.6,14.587,14.587,0,0,1-2.011-2.126,19.051,19.051,0,0,1-1.673-2.579,29.991,29.991,0,0,1-2.446-6.236,53.373,53.373,0,0,1-1.435-7.2c-.313-2.334-.532-4.893-.651-7.608-.1-2.323-.134-4.829-.095-7.45.072-4.788.36-9.056.571-12.172v0c.042-.619.085-1.259.12-1.815a12.77,12.77,0,0,1-3.482-1.526l-.4.193c-.968-2.4-1.882-4.955-2.716-7.6-.811-2.572-1.57-5.3-2.254-8.107a173.038,173.038,0,0,1-3.256-17.485c-.8-5.826-1.4-12.141-1.806-18.771-.372-6.117-.581-12.7-.622-19.564-.07-11.755.338-24.687,1.249-39.535.794-12.943,1.863-25.614,2.806-36.793.2-2.365.406-4.811.6-7.195.642-4.235.886-9.34,1.145-14.746v0c.187-3.9.379-7.934.734-11.9a84.4,84.4,0,0,1,1.7-11.454,43.712,43.712,0,0,1,1.5-5.14,28.408,28.408,0,0,1,2.095-4.525,19.5,19.5,0,0,1,2.8-3.744A15.607,15.607,0,0,1,29.079,46.7c2.464-.871,4.975-1.681,7.677-2.478,2.415-.712,4.934-1.4,7.7-2.1,5.15-1.3,10.24-2.424,15.628-3.609l.013,0c1.591-.35,3.237-.712,4.87-1.076a31.519,31.519,0,0,1,6.077-2.395l.016-.005c.515-.164,1.048-.333,1.559-.5L71.3,32.686a8.013,8.013,0,0,1-.553-7.115,4.206,4.206,0,0,1,1.315-1.75,9.4,9.4,0,0,1,3.442,1.451c.439.251.854.489,1.223.671,1.1-2.27,1.962-4.208,2.711-6.1a60.3,60.3,0,0,0,2.231-6.692l.456.163a13.457,13.457,0,0,1,2.047-6.031,13.812,13.812,0,0,1,4.235-4.14A19.31,19.31,0,0,1,94.073.765,25.823,25.823,0,0,1,100.407,0a25.227,25.227,0,0,1,10.246,2.072,13.886,13.886,0,0,1,2.179,1.468,11.982,11.982,0,0,1,1.681,1.7A12.957,12.957,0,0,1,116.666,9.2a23.249,23.249,0,0,1,1.017,4.525c.213,1.576.335,3.24.452,4.85.3,4.165.619,8.472,2.512,12.2l1.764-2.346h.058a7.579,7.579,0,0,1,2.5.571,23.678,23.678,0,0,1,2.922,1.356,24,24,0,0,1,4.394,2.924c.671.312.561,1.832.463,3.174A10.261,10.261,0,0,0,132.7,38.1c2.251.509,4.589.951,7.065,1.42,3.262.618,6.636,1.256,9.9,2.075a51.567,51.567,0,0,1,9.316,3.167,29.3,29.3,0,0,1,4.08,2.3,22.081,22.081,0,0,1,3.5,2.944,19.218,19.218,0,0,1,2.785,3.71,20.4,20.4,0,0,1,1.922,4.6c.861,3.431,1.632,6.943,2.356,10.736.645,3.378,1.238,6.906,1.814,10.784,1.068,7.2,1.909,14.544,2.722,21.644.909,7.941,1.85,16.152,3.112,24.2.679,4.331,1.4,8.27,2.188,12.041.89,4.234,1.854,8.15,2.947,11.973,1.552,4.2,3.2,8.488,4.941,13.025,4.158,10.823,8.458,22.015,11.775,32.932a157.8,157.8,0,0,1,4.056,15.984c.509,2.64.9,5.186,1.166,7.57a68.451,68.451,0,0,1,.437,7.173c.112,1.83.3,7.833.131,13.751-.1,3.3-.286,6.038-.567,8.143-.34,2.543-.812,4.151-1.4,4.779a.845.845,0,0,1-.614.306.758.758,0,0,1-.2-.028l-2.3,2.285a8.969,8.969,0,0,1,.811,1.655,10.715,10.715,0,0,1,.484,1.792,16.137,16.137,0,0,1,.185,3.88,51.487,51.487,0,0,1-1.406,8.152v0c-.226.993-.44,1.931-.626,2.848a73.868,73.868,0,0,1-2.238,7.741,37.916,37.916,0,0,1-3.168,6.892,20.911,20.911,0,0,1-2,2.784,13.828,13.828,0,0,1-2.3,2.159,10.03,10.03,0,0,1-2.637,1.4,9.17,9.17,0,0,1-2.995.5,11.066,11.066,0,0,1-2.716-.355,15.688,15.688,0,0,1-2.983-1.115c-.975,5.372-2.075,10.855-3.363,16.764-1.149,5.27-2.422,10.762-3.893,16.789-2.734,11.2-5.757,22.622-8.681,33.664v0c-3.323,12.551-6.76,25.529-9.813,38.342-1.644,6.9-3.047,13.195-4.29,19.246-1.4,6.8-2.554,13.109-3.541,19.3-1.061,6.652-1.915,13.166-2.538,19.36-.668,6.63-1.1,13.165-1.282,19.423-.194,6.621-.118,13.178.227,19.489.179,3.277.434,6.564.759,9.771.332,3.28.746,6.573,1.231,9.789a.691.691,0,0,1-.079.6.4.4,0,0,1-.328.169.545.545,0,0,1-.205-.044l-.559-.257a22.035,22.035,0,0,1-2.867.591h0c-.646.1-1.313.213-1.915.347a110.122,110.122,0,0,1,2.639,14.852c.6.359.546,1.159.5,1.864h0a5.534,5.534,0,0,0-.023.658c.267-.013.535-.019.8-.019a16.049,16.049,0,0,1,2.94.271,16.591,16.591,0,0,1,2.74.765,21.369,21.369,0,0,1,4.988,2.724,64.16,64.16,0,0,1,8.776,8.213v0a74.864,74.864,0,0,0,7.214,6.992A144.813,144.813,0,0,0,191,568a44.173,44.173,0,0,1,4.159,2.621,19.373,19.373,0,0,1,3.352,2.99,9.419,9.419,0,0,1,2.433,7.833l.662-.1c.642-.1,1.273-.194,1.325-.2a9.982,9.982,0,0,1,.47,3.731,6.086,6.086,0,0,1-.966,2.834c-1.081,1.646-3.042,2.892-5.993,3.811a52.324,52.324,0,0,1-9,1.674c-3.576.359-7.17.541-10.682.541-2.254,0-4.548-.075-6.819-.222-2.228-.145-4.509-.365-6.78-.654a131.664,131.664,0,0,1-13.723-2.525c-4.467-1.054-9.18-2.369-14.408-4.019-4.6-1.452-9.723-3.2-15.655-5.358a3.081,3.081,0,0,1-.361.021,3.6,3.6,0,0,1-2.124-.755,7.351,7.351,0,0,1-1.746-1.895,12.377,12.377,0,0,1-1.255-2.477,11.583,11.583,0,0,1-.649-2.5,8.779,8.779,0,0,1,.059-2.827,7.508,7.508,0,0,0-.2-3.864,29.846,29.846,0,0,1-2.011-6.758,60.493,60.493,0,0,1-1.014-8.941c-.064-1.6-.063-3.174,0-4.681a44.125,44.125,0,0,1,.41-4.5,21.963,21.963,0,0,1,2.265-7.464c.215-.248.44-.5.658-.735,1.411-1.55,2.869-3.152,2.645-5.835-.021-.887-.06-1.787-.1-2.657a51.57,51.57,0,0,1,0-6.625,63.212,63.212,0,0,1-7.906-1.259,49.6,49.6,0,0,1-7.394-2.27,1.577,1.577,0,0,1-.567.107,1.211,1.211,0,0,1-1.254-1.213c-.092-1.465-.186-2.935-.289-4.567-.836-13.157-1.7-26.763-1.908-39.791-.109-3.222-.134-6.557-.075-9.913.057-3.2.192-6.516.4-9.866.388-6.181,1.03-12.6,1.962-19.61,1.73-13.023,4.22-26.146,6.629-38.837l0-.014c.944-4.976,1.92-10.121,2.834-15.173.206-5.27.833-10.535,1.44-15.626v0c.53-4.446,1.078-9.043,1.346-13.641.336-5.09.525-10.2.708-15.145v-.016c.154-4.154.312-8.449.558-12.713l-3.21-.7c-6.627,17.051-12.984,34.346-18.893,51.4s-11.517,34.3-16.68,51.28-10.018,34.15-14.423,51.014c-2.2,8.435-4.34,16.968-6.351,25.362s-3.953,16.894-5.769,25.242a2.87,2.87,0,0,0,.384.249c.39.227.874.51.845.922v.033c-.01.277-.01.294-.212.323-3.29.66-6.73,1.194-10.517,1.631a23.664,23.664,0,0,1-.01,4.968c-.158,1.688-.438,3.434-.708,5.121v0a49.5,49.5,0,0,0-.852,8.154,17.518,17.518,0,0,0,.45,3.926,13.228,13.228,0,0,0,1.5,3.735,5.789,5.789,0,0,1,1.014,2.015,2.357,2.357,0,0,1-.482,1.572A171.586,171.586,0,0,1,46.9,572.845a121.335,121.335,0,0,1,5.332,16.667l1.755-1.481c2.544,1.844,2.6,5.324,2.652,9.009a11.529,11.529,0,0,0,.076,2.062,10.15,10.15,0,0,1,.057,2.157,3.772,3.772,0,0,1-.262,1.02,3.407,3.407,0,0,1-.61.959,11.833,11.833,0,0,1-4.462,2.887,37.7,37.7,0,0,1-6.609,1.953,69.3,69.3,0,0,1-7.3,1.112C35.245,609.419,32.988,609.544,31,609.551ZM49.809,124.435c-.907,3.6-1.708,7.342-2.381,11.111-.641,3.593-1.187,7.336-1.622,11.123-.8,6.989-1.262,14.276-1.4,22.277-.117,6.667-.009,13.964.331,22.31.3,7.444.758,15.013,1.2,22.333.4,6.738.824,13.7,1.123,20.565.336,7.689.483,14.417.449,20.569l.317.283-.515.269a31.046,31.046,0,0,1-.9,3.352c1.491,1.432,3.533,3.3,5.173,4.8l0,0,.182.167.593.543a27.444,27.444,0,0,1-.286-6.15,36.96,36.96,0,0,1,.9-6.011,98.7,98.7,0,0,1,3.779-11.79c.825-2.247,1.678-4.57,2.412-6.868a10.668,10.668,0,0,0-2.4-1.871c-1.491-.974-3.032-1.982-2.949-3.036.35-6.841.859-14.132,1.514-21.67.634-6.733,1.2-12.813,1.651-19.036.523-7.161.818-13.456.9-19.245.1-6.927-.093-13.227-.591-19.259-.27-3.269-.636-6.49-1.088-9.574-.475-3.239-1.06-6.436-1.74-9.5a10.231,10.231,0,0,0-1.085-3.85A3.908,3.908,0,0,0,49.809,124.435Z" transform="translate(77.659 -14.694)" fill="#d08b5b"/>
      <path id="_Shoes" data-name="ðŸ‘Ÿ Shoes" d="M33.165,77.891c-2.22,0-4.571-.107-6.987-.319-2.162-.19-4.444-.469-6.785-.831A63.141,63.141,0,0,1,4.861,72.225a13.881,13.881,0,0,1-2.291-.963,5.055,5.055,0,0,1-1.577-1.29,3.934,3.934,0,0,1-.723-1.55A7.061,7.061,0,0,1,.14,66.316,39.627,39.627,0,0,1,.3,58.342l.113-1.222a46.934,46.934,0,0,0,.268-6.64,63.045,63.045,0,0,1,1.249-9.8c.646-3.254,1.474-6.539,2.274-9.715.5-2,1.025-4.067,1.491-6.091l2.082-3.321A15.272,15.272,0,0,1,9.992,19.1a11.276,11.276,0,0,1,2.424-1.687,6.692,6.692,0,0,1,3-.767h.018a34.734,34.734,0,0,1,3.753-1.585,31.235,31.235,0,0,1,3.722-1.09,19.068,19.068,0,0,1,4.09-.5,12.149,12.149,0,0,1,1.5.089A15.469,15.469,0,0,1,32.871,14.9a31.765,31.765,0,0,1,4.06,2.248A42.111,42.111,0,0,1,41.086,20.2c.072.294-.536.507-1.123.713-.57.2-1.108.388-1.039.641a12.472,12.472,0,0,0,1.65,3.421,31.676,31.676,0,0,0,2.231,2.828,19.582,19.582,0,0,1,3.678,5.51l.887,2.233a123.575,123.575,0,0,1,6.14,18.493l.239,1.067A27.78,27.78,0,0,1,56.077,57.7,16.872,16.872,0,0,1,57.7,60.132a5.959,5.959,0,0,1,.8,2.46c0,.08.122,1.988.06,4.034a20.691,20.691,0,0,1-.273,3.011A3.121,3.121,0,0,1,57.5,71.5a32.521,32.521,0,0,1-5.56,3.02,38.633,38.633,0,0,1-6.011,1.971,48.5,48.5,0,0,1-6.31,1.072A62.116,62.116,0,0,1,33.165,77.891ZM178.127,62.065a114.156,114.156,0,0,1-14.507-.96,141.678,141.678,0,0,1-14.364-2.641c-4.527-1.068-9.269-2.4-14.094-3.962-4.369-1.414-8.977-3.07-13.7-4.923l-.82-.323c-.057.01-.117.019-.176.027a3.963,3.963,0,0,1-.515.034,4.177,4.177,0,0,1-2.067-.571,6.856,6.856,0,0,1-1.735-1.451,11.974,11.974,0,0,1-1.949-3.14,12.4,12.4,0,0,1-.937-3.305,16.061,16.061,0,0,1,.016-2.532,16.973,16.973,0,0,0-.055-3.823,33.008,33.008,0,0,1-1.754-5.1,39.8,39.8,0,0,1-.96-5.255,61.119,61.119,0,0,1-.192-10.686,27.883,27.883,0,0,1,1.015-8.89A11.673,11.673,0,0,1,113.631.493L114.042,0h3.774a34.218,34.218,0,0,0,2.044,5.348,17.323,17.323,0,0,0,2.489,3.82,9.5,9.5,0,0,0,2.934,2.292,7.687,7.687,0,0,0,3.379.764,7.079,7.079,0,0,0,2.561-.456,7.657,7.657,0,0,0,2.055-1.192,19.952,19.952,0,0,0,3.2-3.528c1.713-2.217,3.332-4.311,5.983-4.311.046,0,4.646-.237,9.484-.614a22.931,22.931,0,0,1,6.75,4,66.276,66.276,0,0,1,5.987,5.731l2.073,2.186a68.753,68.753,0,0,0,6.515,6.244c2.905,2.587,6.034,5.126,9.3,7.547,3.114,2.308,6.445,4.578,9.9,6.745l.534.315c1.217.722,2.643,1.593,3.989,2.581a19.512,19.512,0,0,1,3.5,3.2,10.871,10.871,0,0,1,1.741,2.84,8.678,8.678,0,0,1,.64,3.37l-.009.838,0,0c.061.058.608.586,1.145,1.2a9.585,9.585,0,0,1,.793,1.022,1.9,1.9,0,0,1,.37.873l.007.311a18.4,18.4,0,0,1-.859,3.022c-.5,1.364-1.314,3.134-2.356,3.823-2.7,1.785-12.348,3.364-13.439,3.538l-.011,0A98.189,98.189,0,0,1,178.127,62.065Z" transform="translate(76.471 517.572)" fill="#fff"/>
      <path id="_Top" data-name="ðŸ‘• Top" d="M62.655.029l.066.01,41.464,23.844L114.8,8.123l2.967-1.938.279.142a24.807,24.807,0,0,1,4.854,3.2,2.06,2.06,0,0,1,.923,1.122,4.773,4.773,0,0,1,.128,1.722l-.031.48c-.023.345-.045.688-.049,1.024,0,.2,0,.4.008.6l.569.111q.92.178,1.857.354l3.8.708c8.522,1.6,17.532,3.487,24.091,8.12,4.932,3.483,8.447,8.538,9.269,16.222,2.606,11.105,3.989,22.325,5.271,33.55L169,75.764l.687,5.982c1.938,16.764,4.1,33.564,9.319,49.671l.468,1.142c.232.566.463,1.126.692,1.683l1.464,3.554c8.048,19.55,15.966,39.4,17.9,60.632a116.112,116.112,0,0,1-.887,31.726,1.645,1.645,0,0,1-1.065,1.169,1.945,1.945,0,0,1-1.738-.068l-.982.983c3.294,5.174,1.019,13.958-.946,20.768l-.8,2.741c-.191.661-.371,1.292-.533,1.886-1.558,5.157-4.079,10.772-8.039,13.751a9.847,9.847,0,0,1-5.15,2.032,12.455,12.455,0,0,1-5.958-1.117c-.275-.117-.541-.239-.8-.362l-.18.872q-.382,1.851-.769,3.7L150.83,249.054,128.72,228.411l-28.061,16.623L45.994,207.7l-.271,1.151-.221-.144a7.256,7.256,0,0,1-1.993-1.722,2.525,2.525,0,0,1-.426-1.949q.514-9.275,1.272-18.536l.737-8.14c1.965-21.876,3.609-43.952-.322-65.692-.154-.878-.328-1.748-.507-2.617l-.107-.521c-.144-.7-.289-1.4-.424-2.1l-.026-.151-.089-.554a10.636,10.636,0,0,0-.679-2.545,2.239,2.239,0,0,0-1.55-1.418,1.641,1.641,0,0,0-.691.031l-.083.333-.041.168c-6.934,28.5-5.28,57.563-3.534,86.58l.24,3.991c.745,12.445,1.433,24.875,1.386,37.241l0,.395a.622.622,0,0,1,.236.134.614.614,0,0,1,.161.23q-4.876,3.816-12.7,4.328l-.469.029q-7.327.436-11.364-.708l.026-.348q-.264-.073-.527-.161a8.6,8.6,0,0,1-1.667-.743l-.421-.25-.384.3a.529.529,0,0,1-.416-.231,9.456,9.456,0,0,1-1.475-2.654l-.1-.252a96.466,96.466,0,0,1-3.6-12.566l-.063-.275C-3.067,177.788-.009,136.015,3.344,94.889l.312-3.814q.371-4.54.737-9.067c.719-5.38,1.01-10.883,1.286-16.4l.136-2.722c.561-11.011,1.328-22.014,5.679-32.13,2.968-7.546,11.119-9.53,18.315-11.14l1.5-.335c3.212-.955,6.44-1.728,9.666-2.471l3.671-.841a110.288,110.288,0,0,0,15.767-4.535q.459-.18.914-.368a6.14,6.14,0,0,1-.6-.708,7.78,7.78,0,0,1-1.279-4.974A9.132,9.132,0,0,1,61.284.3a1.763,1.763,0,0,1,1.3-.283Z" transform="translate(87.237 7.834)" fill="#9ddadb"/>
      <path id="_Ink" data-name="ðŸ– Ink" d="M33.551,600.211a71.116,71.116,0,0,1-12.157-1.091,83.6,83.6,0,0,1-11.584-2.9c-.791-.339-1.631-.654-2.443-.958h0a22.173,22.173,0,0,1-6.148-3.057c-.965-.978-1.035-2.5-1.1-3.845-.009-.2-.018-.4-.03-.594l-.028-.757C0,585.128-.049,582.9.088,580.664a30.173,30.173,0,0,1,1-6.3,55.566,55.566,0,0,1,.327-9.033c.3-2.67.755-5.509,1.445-8.935a48.69,48.69,0,0,1,1.508-6.044,36.464,36.464,0,0,0,1.724-7.991,8.6,8.6,0,0,0,.456-3.482,24.587,24.587,0,0,0-.529-3.423h0a15.158,15.158,0,0,1-.421-5.663,16.763,16.763,0,0,1,2.162-4.6A28.3,28.3,0,0,0,9.24,522.5l.078-.174c.667-1.465,1.218-2.992,1.752-4.469v0c.271-.752.552-1.529.846-2.292-1.681-.32-3.344-.716-4.942-1.178a2.3,2.3,0,0,1-.931,1.326,2.612,2.612,0,0,1-1.464.422,2.957,2.957,0,0,1-2.109-.861,2.3,2.3,0,0,1-.637-1.736c.924-11.558,2.088-23.2,3.46-34.6,1.386-11.517,3.022-23.1,4.863-34.433,1.86-11.451,3.98-22.957,6.3-34.2,2.346-11.362,4.961-22.765,7.774-33.893.535-2.683,1.165-5.406,1.925-8.323.677-2.6,1.443-5.291,2.341-8.233,1.668-5.466,3.552-10.979,5.373-16.311v0c2.512-7.354,5.11-14.959,7.175-22.531,1.112-4.077,1.985-7.821,2.67-11.446A105.367,105.367,0,0,0,45.284,297.9a18.278,18.278,0,0,0-3.309-.3,15.961,15.961,0,0,0-1.814.1l-.192.023-.23.029a9.983,9.983,0,0,1-1.265.108,3.683,3.683,0,0,1-1.624-.348,18.671,18.671,0,0,1-4.605-4.056,25.056,25.056,0,0,1-3.33-5.391,38.046,38.046,0,0,1-2.242-6.373,58.131,58.131,0,0,1-1.341-7c-.3-2.259-.51-4.708-.627-7.279-.1-2.253-.137-4.677-.1-7.2.065-4.6.34-8.855.627-12.768a9.36,9.36,0,0,1-1.8-.806,1.252,1.252,0,0,1-.726.252.831.831,0,0,1-.8-.539c-.292-.684-.622-1.374-.942-2.04l0,0c-.474-.989-.965-2.011-1.341-3.042-1.578-5.417-2.961-11.064-4.11-16.785-1.095-5.45-2.013-11.147-2.73-16.934-.677-5.467-1.2-11.205-1.548-17.054-.327-5.464-.516-11.232-.563-17.146-.044-5.5.029-11.134.224-17.208.173-5.409.439-11.049.812-17.241.694-11.5,1.663-23.169,2.6-34.458v-.011c.984-11.854,2-24.111,2.69-36.07.151-1.379.281-2.789.419-4.282v0c.259-2.793.526-5.681.947-8.564a52.519,52.519,0,0,1,1.857-8.445,31.091,31.091,0,0,1,1.532-3.9,23.366,23.366,0,0,1,2.074-3.537,19.358,19.358,0,0,1,2.721-3.064,18.582,18.582,0,0,1,3.473-2.479,49.855,49.855,0,0,1,9.776-3.05c.918-.219,1.867-.445,2.795-.682,3.823-1.138,7.775-2.041,11.6-2.914h0c2.9-.662,5.893-1.346,8.8-2.126a80.14,80.14,0,0,0,8.6-2.774,8.154,8.154,0,0,1-1.414-5.2,11.348,11.348,0,0,1,1.568-5.216,2.373,2.373,0,0,1,.891-.83,2.31,2.31,0,0,1,1.065-.241,5.015,5.015,0,0,1,1.9.453,18.493,18.493,0,0,1,1.773.89l.026.014.235.129a57.774,57.774,0,0,0,2.552-6.17C80.941,4.2,81.608,2.032,82.225,0c.433.35.684,1.22.745,2.584a25.23,25.23,0,0,1-.277,4.392,38.157,38.157,0,0,1-.9,4.524,11.268,11.268,0,0,1-1.134,2.981C92.428,22.049,102.171,28,111.32,33.225l1.076.612-.033-.009a3.682,3.682,0,0,0,1.333.3,1.343,1.343,0,0,0,.258-.022l.294-.1a.425.425,0,0,1,.079-.021h0s0,0,0,.005a5.4,5.4,0,0,0,.506-.3c2.119-1.929,3.825-4.815,5.476-7.606.673-1.138,1.309-2.213,1.972-3.228-3.082-2.713-2.566-7.423-2.111-11.579.13-1.184.252-2.3.287-3.325h.009c.238,0,.429.241.585.736a10.625,10.625,0,0,1,.293,1.44v0a7.243,7.243,0,0,0,.163.858l.12.655a22.776,22.776,0,0,0,1.2,4.523,1.7,1.7,0,0,1,1.406-.525c1.79,0,4.483,1.282,5.929,2.046,1,.528,1.988,1.114,2.862,1.695a12.534,12.534,0,0,1,1.794,1.375,2.656,2.656,0,0,1,.818.789,2.745,2.745,0,0,1,.384.952,8.106,8.106,0,0,1,.047,2.161h0c-.021.324-.043.659-.047.979,1.252.243,2.489.473,3.8.717,3.931.731,8,1.487,11.928,2.51,2.126.553,4.009,1.13,5.757,1.763a40.862,40.862,0,0,1,5.333,2.34,28.506,28.506,0,0,1,4.692,3.095,22.264,22.264,0,0,1,3.837,4.029,21.421,21.421,0,0,1,2.766,5.141,26.336,26.336,0,0,1,1.48,6.432c2.589,11.005,3.97,22.147,5.27,33.544l.209,1.8c.13,1.123.262,2.267.389,3.373l.007.057c1.034,8.989,2.1,18.285,3.64,27.347.828,4.88,1.72,9.3,2.727,13.5,1.131,4.722,2.378,9.056,3.811,13.249l2.421,5.764c2.932,7,5.339,12.887,7.557,18.884a192.938,192.938,0,0,1,6.136,19.374,49.78,49.78,0,0,1,2.068,9.3c.808,5.017,1.506,10.821,1.967,16.344.258,3.1.439,6.061.536,8.811.107,3.006.113,5.754.02,8.169-.214,5.527-.942,9.3-2.165,11.205a3.593,3.593,0,0,1-1,1.076,2.188,2.188,0,0,1-1.226.376,2.945,2.945,0,0,1-1.085-.227,11.218,11.218,0,0,1,.922,1.88,12.43,12.43,0,0,1,.564,1.978,16.986,16.986,0,0,1,.267,4.161,49.5,49.5,0,0,1-1.426,8.505l0,.007c-.242,1.062-.47,2.066-.667,3.051-.5,1.982-1.19,4.6-2.11,7.3a42.544,42.544,0,0,1-3.226,7.4,23.718,23.718,0,0,1-2.151,3.183,15.611,15.611,0,0,1-2.574,2.546,11.281,11.281,0,0,1-3.044,1.689,10.479,10.479,0,0,1-3.563.612,14.1,14.1,0,0,1-4.713-.882c-.992,5.3-2.1,10.68-3.373,16.461-1.139,5.154-2.39,10.509-3.827,16.37-2.67,10.894-5.588,21.922-8.41,32.587-2.126,8.036-4.325,16.346-6.4,24.543-2.329,9.188-4.253,17.248-5.883,24.641-1.956,8.873-3.541,17-4.845,24.841-.707,4.251-1.336,8.466-1.871,12.527-.561,4.262-1.038,8.506-1.417,12.616-.429,4.654-.739,9.272-.923,13.727-.192,4.66-.251,9.289-.175,13.757.079,4.653.307,9.275.677,13.736.384,4.631.933,9.227,1.632,13.663a2.232,2.232,0,0,1-.431,1.9,2.078,2.078,0,0,1-1.622.793,2.189,2.189,0,0,1-.9-.2,13.405,13.405,0,0,1-1.687.328c-.3.046-.619.093-.926.151A109.92,109.92,0,0,1,146.9,519.8l.059.456,0,0a2.385,2.385,0,0,1,.6,1.7,15.32,15.32,0,0,1,4.51.711,19.61,19.61,0,0,1,4.122,1.865,34.661,34.661,0,0,1,7.062,5.78c4.07,4.252,7.749,7.841,11.246,10.972a120.621,120.621,0,0,0,12.315,9.752,49.792,49.792,0,0,0,5.919,3.89h0a40.965,40.965,0,0,1,7.733,5.421,13.178,13.178,0,0,1,2.656,3.541,10.69,10.69,0,0,1,.79,2.11,11.282,11.282,0,0,1,.341,2.386,2.027,2.027,0,0,1,.336-.029,1.5,1.5,0,0,1,1.251.654,6.956,6.956,0,0,1,.762,3.891,15.6,15.6,0,0,1-.5,3.686,5.394,5.394,0,0,1-1.761,2.493,13.387,13.387,0,0,1-2.643,1.642c-1.907.638-3.88,1.2-5.864,1.672-1.931.459-3.928.844-5.935,1.145a81.342,81.342,0,0,1-12.02.869c-2.354,0-4.795-.094-7.253-.281-2.356-.179-4.8-.448-7.259-.8-2.348-.335-4.783-.755-7.237-1.248-2.329-.468-4.747-1.016-7.189-1.629-4.476-1.124-9.1-2.476-14.122-4.131-4.143-1.364-8.592-2.947-13.6-4.84a4.668,4.668,0,0,1-.61.04,5.015,5.015,0,0,1-2.81-.907,8.79,8.79,0,0,1-2.246-2.271,13.864,13.864,0,0,1-1.566-2.954,12.651,12.651,0,0,1-.771-2.959,8.286,8.286,0,0,1,.04-2.977,7.293,7.293,0,0,0-.05-3.247l-.216-.565a39.878,39.878,0,0,1-1.984-6.284l-.066-.457c-.306-2.171-.538-4.351-.689-6.481a72.07,72.07,0,0,1-.169-7.35,40.6,40.6,0,0,1,.794-7.118,17.57,17.57,0,0,1,2.2-5.785,7.781,7.781,0,0,0,2.771-4.286,15.406,15.406,0,0,0,.077-4.6,25.83,25.83,0,0,1-.087-4.463,55.788,55.788,0,0,1-13.689-3.273,2.64,2.64,0,0,1-2.47-.762,3.049,3.049,0,0,1-.878-1.938l-.169-2.674q-.065-1.027-.131-2.055c-.828-13.016-1.685-26.475-1.9-39.733-.111-3.26-.137-6.634-.077-10.027.057-3.235.195-6.6.409-9.986.395-6.259,1.048-12.757,2-19.867.791-5.923,1.806-12.385,3.1-19.755,1.157-6.565,2.425-13.225,3.652-19.664l0-.015,0-.022c.885-4.644,1.8-9.446,2.663-14.166.26-5.573.908-11.207,1.534-16.654.713-6.2,1.45-12.609,1.62-18.966.241-7.233.544-14.486.9-21.556-6.437,16.559-12.611,33.319-18.351,49.815-5.839,16.784-11.391,33.761-16.5,50.459-2.589,8.46-5.118,17.025-7.517,25.456-2.42,8.5-4.778,17.116-7.007,25.6-2.248,8.552-4.429,17.211-6.482,25.737-2.07,8.6-4.069,17.3-5.94,25.869a2.488,2.488,0,0,1,.994,2.465,1.819,1.819,0,0,1-.474.917,1.965,1.965,0,0,1-1.047.538c-3.057.608-6.129,1.1-9.131,1.467a25.335,25.335,0,0,1-.138,4.253c-.154,1.477-.393,3.034-.625,4.539v0a53.083,53.083,0,0,0-.83,8.009,16.288,16.288,0,0,0,.392,3.689,10.138,10.138,0,0,0,1.365,3.272l.164.251a7.4,7.4,0,0,1,.962,1.92,2.582,2.582,0,0,1-.218,2.066c2.9,5.442,5.3,10.452,7.325,15.315,1.115,2.678,2.129,5.348,3.014,7.936.935,2.735,1.758,5.473,2.448,8.139a2.229,2.229,0,0,1,.844-.176,2.447,2.447,0,0,1,1.759.863,6.457,6.457,0,0,1,1.061,1.558,12.2,12.2,0,0,1,.764,1.926,11.552,11.552,0,0,1,.572,3.465,21.265,21.265,0,0,0,.146,3.159h0a22.017,22.017,0,0,1,.128,4.149,4.422,4.422,0,0,1-1.493,3.2,38.184,38.184,0,0,1-5.781,3.044,42.825,42.825,0,0,1-6.18,2.06A53.632,53.632,0,0,1,33.551,600.211Zm-31.51-19.5h0l.012.2c.033.639.032,1.415.031,2.237v0c0,2.681-.006,6.019,1.126,7.553a62.626,62.626,0,0,0,14.279,5.3,65.175,65.175,0,0,0,15.15,1.787h0a64.388,64.388,0,0,0,7.285-.414l.45-.06c1-.138,2.583-.384,4.4-.775a46.664,46.664,0,0,0,5.009-1.35,23.6,23.6,0,0,0,4.535-2,8.332,8.332,0,0,0,2.982-2.726,27.726,27.726,0,0,1-.139-4.057v0a29.658,29.658,0,0,0-.177-4.576,9.388,9.388,0,0,0-.527-2.074,5.9,5.9,0,0,0-1.053-1.766l.087.4c.207.971.437,2.121.572,3.292a15.111,15.111,0,0,1,.054,3.32,3.01,3.01,0,0,1,.777,1.107,1.347,1.347,0,0,1-.013.98,3.009,3.009,0,0,1-1.45,1.343,13.84,13.84,0,0,1-2.837,1.057,54.622,54.622,0,0,1-8.074,1.388c-5.983.66-12.1.8-13.415.8h-.085a70.191,70.191,0,0,1-7.376-.544,70.352,70.352,0,0,1-9.389-1.767,29.636,29.636,0,0,1-8.252-3.353,10.779,10.779,0,0,1-2.716-2.386,5.9,5.9,0,0,1-1.251-2.919ZM26.46,535.955a19.374,19.374,0,0,0-4.352.539,31.273,31.273,0,0,0-4.354,1.384,61.817,61.817,0,0,0-7.889,3.913,8.938,8.938,0,0,1-1.319,3.738,14.123,14.123,0,0,0-.891,1.843,7.014,7.014,0,0,0-.444,2.292c-.285,1.932-.631,3.868-1,5.917v.005a96.423,96.423,0,0,0-1.756,13.428,35,35,0,0,0,.345,6.619,26.406,26.406,0,0,0,.7,3.217,23.516,23.516,0,0,0,1.14,3.13,45.248,45.248,0,0,0,5.993,2.656,49.648,49.648,0,0,0,6.241,1.783,56.728,56.728,0,0,0,6.416,1c2.1.208,4.292.314,6.518.314h0a81.46,81.46,0,0,0,9.513-.584c3-.355,6.151-.881,9.354-1.562a2.55,2.55,0,0,1,1.551-.832,21.9,21.9,0,0,0-.7-7.544c-.108-.512-.22-1.04-.32-1.557-.979-4.193-2.169-8.4-3.321-12.472-.563-1.989-1.144-4.045-1.695-6.077a8.934,8.934,0,0,1-2.722-2.947,31.3,31.3,0,0,1-1.855-3.76h0c-.365-.831-.71-1.616-1.089-2.359-.5-1.014-.919-1.831-1.316-2.574A4.2,4.2,0,0,1,37,543.655a15,15,0,0,1-1.288-2.728c-.178-.452-.345-.878-.528-1.284a11.726,11.726,0,0,0-1.951-1.707,10.779,10.779,0,0,0-2.128-1.142A12.456,12.456,0,0,0,26.46,535.955Zm88.983,24.209a9.627,9.627,0,0,0,.084,2.608,8.208,8.208,0,0,0,.729,2.224,8.927,8.927,0,0,0,1.263,1.879,11.631,11.631,0,0,0,1.687,1.573,28.062,28.062,0,0,0,8.76,4.009c6.207,2.2,12.873,4.176,20.379,6.032a133.38,133.38,0,0,0,14.574,2.921c2.484.349,4.967.616,7.381.794,2.5.184,4.989.277,7.41.277,2.331,0,4.66-.086,6.922-.256,2.327-.175,4.65-.443,6.905-.8l.251-.044c.317-.056.658-.113.987-.168,4.264-.718,10.708-1.8,11.584-6.255l.01-.11a18.774,18.774,0,0,0-.11-4.516.754.754,0,0,1-.318-.076,7.55,7.55,0,0,1-1.451,2.6,10.3,10.3,0,0,1-2.333,2.014,14.116,14.116,0,0,1-2.9,1.406,16.343,16.343,0,0,1-3.155.775,4.5,4.5,0,0,1-2.2,1.163,11.346,11.346,0,0,1-2.673.255c-.492,0-.992-.015-1.434-.028h-.022c-.472-.014-.918-.028-1.354-.028-.244,0-.46,0-.661.013-2.025-.02-4.115-.112-6.213-.273-2-.154-4.072-.375-6.16-.659-3.851-.523-7.835-1.259-12.18-2.251-8.063-1.84-16.123-4.291-23.917-6.662l-.1-.031-2.574-.782c-1.439-.5-3.281-.964-5.23-1.456a73.615,73.615,0,0,1-8.045-2.358C118.442,562.848,116.514,561.608,115.443,560.164Zm1-38.711c-2.18,0-2.913,5.381-3.306,8.271-.076.559-.142,1.041-.2,1.364a62.54,62.54,0,0,0,.044,15.358c.9,6.136,2.961,10.657,6.14,13.436a71.819,71.819,0,0,0,7.108,2.56c2.409.742,4.885,1.411,7.28,2.058,2.9.784,5.9,1.594,8.8,2.54l1.82.534c2.812.822,6.516,1.891,10.226,2.87,3.772,1,7.158,1.8,10.351,2.455a104.314,104.314,0,0,0,21.049,2.355c1.083,0,2.168-.022,3.227-.066.5-.994,2.157-1.2,4.079-1.448a20.881,20.881,0,0,0,3.959-.769,6.037,6.037,0,0,0,3.237-2.278,6.424,6.424,0,0,0,.778-2.051,4.967,4.967,0,0,0-.022-1.893,5.867,5.867,0,0,0-.681-1.741,9.069,9.069,0,0,0-1.2-1.6,31.314,31.314,0,0,0-7.143-5.081l-.014-.008c-.69-.4-1.343-.777-1.912-1.13a144.612,144.612,0,0,1-23.875-19.113c-.938-.932-1.872-1.919-2.774-2.873l-.007-.008a48.922,48.922,0,0,0-7.739-7.092l-.209-.14a18.257,18.257,0,0,0-3.981-2.007,13.123,13.123,0,0,0-4.357-.793,10.08,10.08,0,0,0-3.511.615,8.218,8.218,0,0,0-2.88,1.887,25.382,25.382,0,0,0-2.264,2.649,17.311,17.311,0,0,1-3.5,3.688,8.727,8.727,0,0,1-4.786,1.49,9.237,9.237,0,0,1-4.034-.977,13.983,13.983,0,0,1-3.572-2.547,19.9,19.9,0,0,1-4.814-7.494l-.071-.205a.2.2,0,0,1,.013-.189.271.271,0,0,1,.222-.106.285.285,0,0,1,.088.014c-.011-.042-.019-.086-.029-.135l-.014-.067a1.212,1.212,0,0,1-.853-.892,4.632,4.632,0,0,1-.164-1.35A1.548,1.548,0,0,0,116.441,521.452Zm-103.66-5.73a13.245,13.245,0,0,1,.155,3.4,17.45,17.45,0,0,1-.594,3.271,46.181,46.181,0,0,1-2.414,6.285l-.006.013c-.3.674-.6,1.37-.891,2.052a7.829,7.829,0,0,0-.005,2.386c.107.791.3,1.592.484,2.367a12.49,12.49,0,0,1,.51,4.668,38.327,38.327,0,0,1,8-4.861,22.691,22.691,0,0,1,9.1-2.13,15.182,15.182,0,0,1,3.78.464,13.874,13.874,0,0,1,3.621,1.5c.039-4.11,1.328-8.129,2.575-12.016.125-.388.265-.827.4-1.254l.554-1.707c.413-1.27.863-2.628,1.356-3.95a117,117,0,0,1-12.216.671c-2.462,0-4.89-.092-7.217-.275C17.518,516.415,15.1,516.117,12.781,515.722Zm106.2-6.62.886,13.417a1.2,1.2,0,0,1-.541,1.149,12.885,12.885,0,0,0,1.3,3.141,13.463,13.463,0,0,0,2.075,2.731,12.521,12.521,0,0,0,2.7,2.091,10.942,10.942,0,0,0,3.176,1.22,7.276,7.276,0,0,0,.925.061,5.806,5.806,0,0,0,2.224-.424,6.768,6.768,0,0,0,1.817-1.121,20.355,20.355,0,0,0,2.977-3.431,25.732,25.732,0,0,1,2.533-3.051,9.2,9.2,0,0,1,1.5-1.2,6.769,6.769,0,0,1,1.769-.8c-.767-1.72-.637-3.813-.512-5.836a27.446,27.446,0,0,0,.082-2.76,60.048,60.048,0,0,1,.454-6.43c-3.25.447-6.225.776-9.093,1.006-3.216.257-6.2.382-9.129.382C122.379,509.241,120.649,509.194,118.981,509.1ZM116.851,520a6.527,6.527,0,0,1-.518.872,1.377,1.377,0,0,1,.587.192C116.9,520.7,116.873,520.325,116.851,520ZM42.151,292.6c.553,0,1.1.026,1.616.078.879.087,1.764.225,2.621.358l.331.051a9.7,9.7,0,0,0,1.165.069c.154,0,.292,0,.408-.012l.08-.006c-.062,0-.11.006-.133.006h-.02a.256.256,0,0,1,.062-.006l.2-.01.1-.008a9.385,9.385,0,0,0,3.865-1.723,19.391,19.391,0,0,1,2-1.157,4.742,4.742,0,0,1,2.013-.523,3.29,3.29,0,0,1,1.9.619,6.253,6.253,0,0,1,1.049-1.132,9,9,0,0,0,.756-.748,7.925,7.925,0,0,0,.77-1.875,10.794,10.794,0,0,0,.334-1.982,29.876,29.876,0,0,0-.058-4.144c-.069-1.154-.141-2.348-.1-3.5a10.942,10.942,0,0,1,.59-3.339,1.935,1.935,0,0,1-.33-1.514,2.3,2.3,0,0,1,.907-1.42,5.018,5.018,0,0,1,2.747-.925,8.282,8.282,0,0,0,1.814-.39,2.428,2.428,0,0,0,.721-.423,1.923,1.923,0,0,0,.507-.7c-.016.029-.03.044-.039.044a.011.011,0,0,1-.009-.005.2.2,0,0,1,.006-.124l.006-.014-.159-.131a106.909,106.909,0,0,1-9.985-9.209,66.067,66.067,0,0,1-4.411-5.188,52.279,52.279,0,0,1-3.782-5.686l-.152-.269a1.3,1.3,0,0,1-.921.381,1.471,1.471,0,0,1-.986-.393,1.618,1.618,0,0,1-.517-1.037,38.97,38.97,0,0,1-6.147,1.58,37.542,37.542,0,0,1-6.312.54,35.2,35.2,0,0,1-8.692-1.077c.218,1.632.431,3.537.678,5.744v.007c.367,3.279.783,6.995,1.336,10.862.641,4.479,1.343,8.28,2.146,11.622.472,1.964.986,3.79,1.528,5.428a40.775,40.775,0,0,0,1.913,4.816,22.786,22.786,0,0,0,2.358,3.937,12.488,12.488,0,0,0,2.863,2.79A23.518,23.518,0,0,1,42.151,292.6Zm163.263-49.87h0a54.679,54.679,0,0,1-15.245,5.589c-.612,5.849-1.2,10.982-1.8,15.693-.716,5.617-1.458,10.729-2.268,15.628l.407.073.368.068.035.007a17.7,17.7,0,0,0,3.165.394,6.061,6.061,0,0,0,1.747-.234,4.74,4.74,0,0,0,1.631-.853c2.464-2.39,4.569-5.866,6.438-10.626a123.9,123.9,0,0,0,3.964-12.806v-.005c.5-1.87.981-3.637,1.468-5.272l.1-.406a20.173,20.173,0,0,0,.658-3.683,8.351,8.351,0,0,0-.079-1.884,4.832,4.832,0,0,0-.593-1.682ZM116.73,39.794a9.271,9.271,0,0,0,.254,4.089,7.112,7.112,0,0,1,.117,4.064c3.208,16.048,6.156,32.008,8.764,47.437,2.724,16.119,5.164,32.177,7.252,47.73,2.171,16.174,4.03,32.307,5.525,47.951.768,8.036,1.457,16.123,2.048,24.036.6,8.048,1.117,16.145,1.535,24.064a82.45,82.45,0,0,1,7.912,6.381c2.563,2.313,5.035,4.756,7.326,7.05a14.517,14.517,0,0,1,1.522,1.6,8.032,8.032,0,0,0,2.9,2.467c4.5-5.079,9.5-9.832,14.335-14.429,3.246-3.085,6.6-6.276,9.777-9.537-.075-.569-.16-1.13-.252-1.666a2.144,2.144,0,0,1,.474-1.8,2.515,2.515,0,0,1,1.871-.871,1.728,1.728,0,0,1,1.378.615,30.186,30.186,0,0,0,1.412-4.732,39.563,39.563,0,0,0,.724-4.973,58.094,58.094,0,0,0-.108-10.038c-.2-1.9-.493-3.819-.891-5.876-.354-1.833-.785-3.73-1.317-5.8-.988-3.846-2.183-7.715-3.338-11.457v0c-.9-2.9-1.823-5.9-2.643-8.861a398.892,398.892,0,0,1-9.954-49.409c-.551-4.239-1.005-8.46-1.352-12.545-.36-4.244-.615-8.475-.757-12.575-.147-4.244-.178-8.477-.091-12.58.089-4.237.306-8.464.645-12.562a.25.25,0,0,1,.248-.235.245.245,0,0,1,.242.235c.659,10.154,1.31,18.575,2.05,26.5.89,9.54,1.9,18.173,3.073,26.391A327.544,327.544,0,0,0,188.8,182.311l.254.84c.327,1.081.663,2.172.987,3.228a154.741,154.741,0,0,1,5.08,19.54,58.188,58.188,0,0,1,.87,9.948,44.886,44.886,0,0,1-.294,4.987,40.283,40.283,0,0,1-.9,4.983,5.27,5.27,0,0,1-.384,2.836,7.508,7.508,0,0,1-1.661,2.428,35.777,35.777,0,0,1-2.154,4.428,45.154,45.154,0,0,1,.145,4.92c-.032,1.486-.126,3.092-.287,4.908a47.237,47.237,0,0,0,7.95-2.477,69.468,69.468,0,0,0,7.506-3.623c.314-1.785.557-3.4.741-4.951a99.3,99.3,0,0,0,.731-11.479,111.474,111.474,0,0,0-.527-11.387c-.353-3.651-.894-7.446-1.606-11.281-.668-3.594-1.511-7.349-2.505-11.161-3.887-14.9-9.749-29.5-15.419-43.184-1.421-4.193-2.659-8.519-3.783-13.225-1-4.191-1.89-8.59-2.716-13.449-1.534-9.026-2.611-18.3-3.653-27.273v-.007c-.9-7.736-1.827-15.736-3.045-23.54-.656-4.2-1.341-8.014-2.094-11.653-.845-4.085-1.754-7.85-2.779-11.509-4.3-9.465-14.092-12.491-23.563-15.418h0A98.045,98.045,0,0,1,136,26.379a71.486,71.486,0,0,0,.108,8.469h0c.383,9.864.962,24.77-1.65,27.48a1.254,1.254,0,0,1-.913.429A2.342,2.342,0,0,1,132.06,62c-2.629-4.122-5.51-8.166-8.3-12.076C121.418,46.631,118.993,43.227,116.73,39.794ZM52.984,114.71c.739,0,1.481.705,2.2,2.1a20.522,20.522,0,0,1,1.2,3.005l.012.036.028.085c.962,2.917,1.812,5.961,2.525,9.049.68,2.942,1.258,6.019,1.719,9.147a148.247,148.247,0,0,1,1.479,18.517c.121,5.571,0,11.687-.362,18.7-.325,6.243-.809,12.588-1.278,18.724v.008c-.56,7.332-1.139,14.912-1.441,22.289,10.216,7.415,18.709,13.467,26.73,19.044,9.723,6.762,18.637,12.745,27.251,18.289,3.651-2.368,7.192-5.1,10.617-7.747l0,0,0,0c2.205-1.7,4.485-3.463,6.77-5.107a81.1,81.1,0,0,1,7.034-4.587c-.192-5.185-.461-10.559-.8-15.974-.323-5.162-.718-10.528-1.177-15.949-.846-10.009-1.915-20.42-3.268-31.828-2.513-21.191-5.647-42.665-8.678-63.431l0-.017c-1.667-11.424-3.392-23.236-4.989-34.842-1.792-13.021-3.232-24.41-4.4-34.817-2.621,3.251-5.332,6.519-7.954,9.68l0,0-.315.38c-2.229,2.731-4.447,5.552-6.592,8.28-1.284,1.633-2.612,3.322-3.933,4.98a1.464,1.464,0,0,1-1.179.533,2.068,2.068,0,0,1-.956-.242,1.7,1.7,0,0,1-.693-.654c-3.017-5.443-5.6-11.228-8.093-16.823l0,0c-1.614-3.618-3.282-7.359-5.052-10.969A110.667,110.667,0,0,0,73.562,24l-.379.132c-.309.109-.624.221-.928.33l-.03.011a23.565,23.565,0,0,1-7.19,1.753c-6.886,2.288-14.022,4.195-20.923,6.039l-.031.008c-2.006.536-4.08,1.091-6.116,1.646l-.875.239a35.045,35.045,0,0,0-5.654,1.937,12.939,12.939,0,0,0-4.712,3.571,17.817,17.817,0,0,0-2.811,5.193,44.079,44.079,0,0,0-1.549,5.728c-1.751,15.27-3.28,31.7-4.675,50.239-1.32,17.549-2.39,35.319-3.263,50.389-.265,7.755-.38,14.631-.354,21.02.031,7.534.255,14.416.686,21.037.232,3.57.53,7.095.883,10.476.371,3.543.816,7.049,1.323,10.421.529,3.512,1.142,6.993,1.823,10.346.707,3.479,1.509,6.928,2.383,10.251.211.779.435,1.568.651,2.331a56.969,56.969,0,0,1,2.023,8.96c.475.006.988.037,1.567.095a.165.165,0,0,1,.172-.169.2.2,0,0,1,.147.063.176.176,0,0,1,.041.141,41.467,41.467,0,0,0,6.433.507,39.025,39.025,0,0,0,7.266-.675,36.022,36.022,0,0,0,7-2.076c-.327-9.939-1.034-20.255-1.717-30.232V213.7c-.675-9.859-1.373-20.053-1.727-30.091-.19-5.409-.268-10.326-.236-15.031.036-5.287.207-10.169.524-14.924.34-5.112.858-10.073,1.538-14.746.729-5.005,1.674-9.883,2.808-14.5A131.288,131.288,0,0,1,52,110.23c.87-2.35,1.818-4.687,2.819-6.949,1.024-2.313,2.133-4.615,3.3-6.843a.163.163,0,0,1,.146-.084.2.2,0,0,1,.161.08.15.15,0,0,1,.018.141l-.585,1.684a169.309,169.309,0,0,0-5.044,16.461A1.175,1.175,0,0,1,52.984,114.71Zm-.29.511c-.85,3.493-1.6,7.124-2.227,10.794-.6,3.5-1.106,7.145-1.509,10.841-.744,6.822-1.161,13.95-1.275,21.794-.1,6.535.024,13.7.365,21.892.3,7.305.751,14.738,1.184,21.925v0c.4,6.635.813,13.5,1.111,20.232.334,7.553.486,14.148.463,20.164a1.332,1.332,0,0,1,.428,1.182,1.61,1.61,0,0,1-.837,1.221c-.131.587-.288,1.175-.466,1.747.77.73,1.475,1.387,2.154,2.01a27,27,0,0,1,.174-4.969,36.969,36.969,0,0,1,.95-4.841,96.975,96.975,0,0,1,3.191-9.461v0c.865-2.3,1.759-4.68,2.494-7.039a15.034,15.034,0,0,0-1.826-1.308c-1.781-1.152-3.622-2.342-3.268-4.648.372-6.81.856-13.731,1.436-20.57l.359-3.834c.544-5.836,1.1-12.091,1.526-18.284.46-6.77.706-12.767.751-18.333.053-6.55-.167-12.53-.671-18.283-.272-3.1-.632-6.155-1.071-9.091-.46-3.073-1.022-6.115-1.67-9.041l-.032-.182c-.01-.06-.02-.125-.031-.194l-.007-.046a13.5,13.5,0,0,0-.489-2.2C53.594,115.8,53.187,115.306,52.694,115.22ZM205.872,242.485h0l-.083.045.185.156a1.956,1.956,0,0,1-.1-.2ZM73.774,12.806h0a1.181,1.181,0,0,0-1.044.7,6.488,6.488,0,0,0-.628,2.383A9.254,9.254,0,0,0,71.97,17.6a7.332,7.332,0,0,0,.228,1.73,5.119,5.119,0,0,0,.689,1.563A4.08,4.08,0,0,0,74.139,22.1a43.972,43.972,0,0,1,4.71,5.511,60.53,60.53,0,0,1,3.86,6.084C85.061,37.9,87.065,42.42,89,46.8v0c1.684,3.8,3.425,7.733,5.381,11.417,3.831-4.631,7.549-9.467,11.145-14.144l0,0c1.868-2.43,3.8-4.943,5.725-7.4-1.487-.9-2.99-1.815-4.443-2.7h0c-6.2-3.756-12.605-7.641-18.8-11.625-1.085-.72-2.215-1.434-3.308-2.124h0a74.5,74.5,0,0,1-7.669-5.3l-.223-.206a14.342,14.342,0,0,0-1.659-1.361,2.626,2.626,0,0,0-1.377-.545ZM116.6,36.413a1.453,1.453,0,0,1,1.058.459.947.947,0,0,1,.252.754,86.031,86.031,0,0,1,7.716,8.913c2.551,3.346,4.868,6.756,6.8,9.651a146.3,146.3,0,0,0-.019-17.024c-.2-5.083-.415-10.339-.121-15.5a13.084,13.084,0,0,0-2.306-1.676,21.246,21.246,0,0,0-2.572-1.249c-.671,1.093-1.343,2.228-1.993,3.324a72.457,72.457,0,0,1-7.632,11.221,7.081,7.081,0,0,1-1.522,1.176A1.23,1.23,0,0,1,116.6,36.413Zm29.9,192.54a2.388,2.388,0,0,1-1.717-.769,2.313,2.313,0,0,1-.582-2.627,2.939,2.939,0,0,1,.993-1.249,2.557,2.557,0,0,1,1.5-.508,2.392,2.392,0,0,1,1.717.767,2.318,2.318,0,0,1,.579,2.631,2.942,2.942,0,0,1-.993,1.248A2.555,2.555,0,0,1,146.5,228.953Zm-1.473-26.873c-.708,0-1.431-.743-1.8-1.434a2.268,2.268,0,0,1,.344-2.013,1.733,1.733,0,0,1,1.381-.835,1.453,1.453,0,0,1,.745.216l.048.029.021-.028a1.725,1.725,0,0,1,.876,1.208,2.571,2.571,0,0,1-.144,1.3,4.092,4.092,0,0,1-.668,1.184A1.1,1.1,0,0,1,145.024,202.08Zm-3.156-32.188c-.33,0-.75-.165-.872-.951a5.293,5.293,0,0,1-1.067-2.183,2.6,2.6,0,0,1,.188-1.644,2.247,2.247,0,0,1,2-1.237,1.972,1.972,0,0,1,1.561.738c.416.513.829,1.512.433,3.361a2.73,2.73,0,0,1-.877,1.269A2.267,2.267,0,0,1,141.868,169.892Zm-5.4-30.2a2.032,2.032,0,0,1-1.561-.748,1.953,1.953,0,0,1-.41-2.129,2.241,2.241,0,0,1,1.987-1.2,1.887,1.887,0,0,1,1.129.36,2.25,2.25,0,0,1,.79,1.188,1.959,1.959,0,0,1-.316,1.737A2.055,2.055,0,0,1,136.468,139.691Zm20.579-20.5a2.179,2.179,0,0,1-1.186-.361c-1.821-1.533-3.86-2.941-5.831-4.3h0c-1.884-1.3-3.833-2.647-5.6-4.11a31.07,31.07,0,0,1-2.53-2.314,21.961,21.961,0,0,1-2.2-2.62,13.907,13.907,0,0,1-.826-4.316,43.873,43.873,0,0,1,.094-4.465v0a36.1,36.1,0,0,0,.029-5.373c-.1-3-.4-6.031-.7-8.965V82.35c-.289-2.859-.587-5.816-.692-8.735a.291.291,0,0,1,.078-.218.323.323,0,0,1,.232-.092.352.352,0,0,1,.186.052c4.272-.339,8.628-.394,12.84-.447h0c1.912-.024,3.889-.049,5.832-.1a2.565,2.565,0,0,0,.378.022c.352,0,.824-.033,1.37-.072l.226-.016c.608-.043,1.311-.088,1.963-.088a7.023,7.023,0,0,1,1.523.131,1.289,1.289,0,0,1,.887.512c.153.273.087.642-.194,1.1.508,2.536,1.182,5.13,1.9,7.876h0c1.469,5.656,2.988,11.5,3.08,17.123a28.522,28.522,0,0,1-.222,4.159,22.351,22.351,0,0,1-.9,4.019,19.874,19.874,0,0,1-1.716,3.833,20.764,20.764,0,0,1-2.673,3.6l-.094.093c-.275.274-.582.618-.907.982C160.157,117.467,158.622,119.188,157.047,119.189ZM138.311,73.772a55.31,55.31,0,0,1,1.633,6.949c.378,2.22.656,4.542.848,7.1.359,4.786.354,9.687.317,14.3a4.994,4.994,0,0,0,.726,2.669,31.118,31.118,0,0,0,4.324,4.11c1.559,1.248,3.234,2.423,4.853,3.559h0c1.785,1.253,3.631,2.548,5.326,3.943a21.566,21.566,0,0,0,6.628-7.534,18.364,18.364,0,0,0,1.2-2.95,22.135,22.135,0,0,0,.932-6.153,40.246,40.246,0,0,0-.445-6.383c-.3-2.15-.722-4.35-1.13-6.478v0c-.385-2.011-.783-4.089-1.076-6.108a41.537,41.537,0,0,1-.486-5.972l-1.074,0h-.9c-3.192,0-6.979-.021-10.861-.179C145.147,74.478,141.608,74.194,138.311,73.772Zm-6.25,38.17a2.087,2.087,0,0,1-.5-.063,1.917,1.917,0,0,1-1.241-.895,2.317,2.317,0,0,1-.291-1.432,1.992,1.992,0,0,1,1.958-1.885h.072a1.771,1.771,0,0,1,1.422.624,2.185,2.185,0,0,1,.45,1.389,2.631,2.631,0,0,1-.491,1.547A1.691,1.691,0,0,1,132.061,111.942ZM127.673,84.06a1.353,1.353,0,0,1-.894-.293,1.378,1.378,0,0,1-.441-.972,2.032,2.032,0,0,1-.156-2.072,2.522,2.522,0,0,1,2.168-1.12,1.954,1.954,0,0,1,1.537.634,1.673,1.673,0,0,1,.35.733,2.7,2.7,0,0,1,0,1.038l.015-.161c0-.031.006-.059.009-.083l-.05.368a1.708,1.708,0,0,1-.309.747,2.637,2.637,0,0,1-.616.614A2.886,2.886,0,0,1,127.673,84.06Zm-5.257-25.734a2.017,2.017,0,0,1-1.8-1.867,1.548,1.548,0,0,1,1.3-1.78,1.772,1.772,0,0,1,.452-.06,1.724,1.724,0,0,1,1.1.4,2.09,2.09,0,0,1,.655.958,1.8,1.8,0,0,1,.041,1.029,1.649,1.649,0,0,1-.635.9A1.844,1.844,0,0,1,122.416,58.327Z" transform="translate(75.996 -3.555)"/>
    </g>
    <g id="Head" transform="translate(95.946 42.662)">
      <g id="HEAD-2" data-name="HEAD">
        <path id="_Skin-2" data-name="âœ‹ Skin" d="M85.649,28.4c-.08-2.834-4.2-4.011-5.392-1.2-.074.075-.154.147-.23.212.373-.32-.407.209-.533.275-.109.056-.219.106-.33.159C78.4,20.666,75.8,12.926,69.078,9.322,59.707,4.777,48.878,3.89,38.6,4.341c-5.208.309-11.223,1.142-15.85-1.493C21.3,2.027,20.149.735,18.52.227c-5.143-1.391-7.476,3.891-6.776,8.234a5.949,5.949,0,0,0-5.317,3.232c-.556,1.184-.546,2.461-1.026,3.649-1.471,3.012-3.576,5.178-2.386,8.83-2.093,2.382-.9,5.987.789,8.268a24.392,24.392,0,0,1,2.438,3.652c.593,1.271-.3,2.778-.8,3.983C1.76,48.809,1.97,58.427,3.952,67.537A7.036,7.036,0,0,0,1.375,78.053,9.4,9.4,0,0,0,4.59,80.438c1.562.86.286,4.3.787,5.967.68,4.061,4.377,6.561,8.032,3.924,2.32-.351,4.191,6.4,5.875,8.093a27.122,27.122,0,0,0,3.443,3.722c3.733,9.6,22.859,14.475,32.315,13.919,9.9-1.037,16.583-9.447,22.146-16.912a29.581,29.581,0,0,0,5.39-13.284A63.137,63.137,0,0,0,82.5,71.215c-.964-10.38-2.484-25.334-3.466-35.827A7.13,7.13,0,0,0,85.649,28.4Z" transform="translate(16.352 5.688)" fill="#d08b5b"/>
        <path id="_Hair" data-name="ðŸ’ˆ Hair" d="M9.956,68.89a.138.138,0,0,1-.12-.069c-.024-.04-.032-.065-.024-.079s.02-.015.046-.015a.968.968,0,0,1,.123.014l.057.008.068.009A.146.146,0,0,1,9.956,68.89Zm.369-.118a1.862,1.862,0,0,1-.22-.014.15.15,0,0,0-.005-.049,7.778,7.778,0,0,0-1.937-3.385A7.534,7.534,0,0,0,4.88,63.368,2.663,2.663,0,0,0,4.4,61.451l-.159-.74L4.1,60.018a46.242,46.242,0,0,1-.8-4.891,46.732,46.732,0,0,1-.092-7.495,42.354,42.354,0,0,1,.614-4.845c.3-1.677.682-3.344,1.014-4.753l.08-.338L5.5,35.24a23.984,23.984,0,0,0,4.414.808c.808.072,1.644.109,2.484.109s1.686-.035,2.554-.105L15,36.2a1.206,1.206,0,0,0,.042.819,5.352,5.352,0,0,0,.5,1.019A16.977,16.977,0,0,0,15,36.2a.755.755,0,0,1,.282-.346,35.738,35.738,0,0,1,8.673-3.487,60.266,60.266,0,0,1,5.9-1.406,31.068,31.068,0,0,1,5.427-.57c.213,0,.422,0,.623.012.742.028,1.534.1,2.356.2-.321.056-.654.119-.993.187l-.318.066-.317.068c-2.638.575-5.315,1.352-7.9,2.1a75.034,75.034,0,0,1-12.942,2.944,18.817,18.817,0,0,1,2.289,11.667,16.928,16.928,0,0,1-1.032,3.92A33.776,33.776,0,0,1,15.31,55.23l-.248.463-.15.284a19.89,19.89,0,0,0-1.361,3.113,11,11,0,0,0-.558,3.368v.075a2.1,2.1,0,0,1-.382,1.162c0-.2,0-.4,0-.609v-.006c0-1.146,0-2.446.116-3.6a6.306,6.306,0,0,1,.812-2.864l.091-.137c1.216-1.883,1.557-4.4,1.919-7.068a23.812,23.812,0,0,1,1.772-7.277c.377-.772-.416-1.986-1.183-3.16-.2-.311-.413-.632-.593-.934a16.22,16.22,0,0,1-1,10.5,30.7,30.7,0,0,1-2.514,4.136c-2.17,3.195-4.415,6.5-3.413,10.373a2.067,2.067,0,0,0,.8,1.2,2.2,2.2,0,0,0,1.273.385,2.5,2.5,0,0,0,1.07-.241,2.193,2.193,0,0,0,.845-.7,11.466,11.466,0,0,1-.225,2.844C11.906,68.021,11.213,68.772,10.325,68.772ZM76.378,34.784l-.053-.223-.055-.226.021,0,.046,0,.041.442ZM3.5,34.706h0l-.035-.074-.051-.1.166.067-.08.112Zm52.618-.225c-.477,0-.98-.016-1.495-.047a35.553,35.553,0,0,1-6.455-1.51,67.121,67.121,0,0,0-9.912-2.319,30.845,30.845,0,0,1,5.284-.491,20.966,20.966,0,0,1,4.691.5,15.8,15.8,0,0,1,4.4,1.713.081.081,0,0,0,.041.012.074.074,0,0,0,.069-.055.08.08,0,0,0-.031-.092,18.332,18.332,0,0,0-2.988-1.75,19.822,19.822,0,0,0-3.179-1.152,23.326,23.326,0,0,0-3.317-.634,28.957,28.957,0,0,0-3.4-.194,47.51,47.51,0,0,0-10.241,1.279l-.444.1-.436.1c-.945.218-1.915.455-2.852.683-4.209,1.026-8.562,2.087-12.876,2.087a21.627,21.627,0,0,1-6.152-.836,15.121,15.121,0,0,1-2.761-1.1A12.213,12.213,0,0,1,1.607,29.1l-.124-.111A3.967,3.967,0,0,1,.02,26.83a.891.891,0,0,1,.149-.749.792.792,0,0,1,.289-.222c.055-.028.091-.047.091-.068s-.017-.029-.056-.048a2.09,2.09,0,0,0,.911.218,1.9,1.9,0,0,0,1.207-.436A2.109,2.109,0,0,0,3.3,24.489a1.749,1.749,0,0,0-.019-1.08,1.86,1.86,0,0,0-.789-.947l-.145-.089a2.989,2.989,0,0,1-1.248-1.5,2.81,2.81,0,0,1-.045-1.744A3.034,3.034,0,0,1,2.1,17.592a3.1,3.1,0,0,1,1.93-.643h.021l.154,0h.006a1.725,1.725,0,0,0,.956-.267,1.679,1.679,0,0,0,.589-.676,2.179,2.179,0,0,0-.242-2.243l-.088-.11a2.323,2.323,0,0,1-.506-1.221,2.177,2.177,0,0,1,.221-1.152,2.756,2.756,0,0,1,1-1.094,2.726,2.726,0,0,1,1.455-.433,2.464,2.464,0,0,1,1.21.316l.122.07a1.681,1.681,0,0,0,.82.22,1.951,1.951,0,0,0,1.742-1.315,8.134,8.134,0,0,0,.509-2.576,24.063,24.063,0,0,0-.065-2.616c-.032-.519-.065-1.055-.076-1.585l0-.149,0-.249v-.2l0-.13A1.975,1.975,0,0,1,12.183.281a.968.968,0,0,1,.7-.281,3.674,3.674,0,0,1,1.861.845l.165.123.474.36c.313.242.626.493.928.737A23.01,23.01,0,0,0,18.624,3.77a21.874,21.874,0,0,0,4.035,1.913,24.858,24.858,0,0,0,4.182,1.1,34.548,34.548,0,0,0,4.3.468c.52.025,1.065.038,1.618.038a80.983,80.983,0,0,0,10.472-.947l.076-.01A81.765,81.765,0,0,1,54,5.379a27.54,27.54,0,0,1,6.827.772,20.35,20.35,0,0,1,3.257,1.122A19.272,19.272,0,0,1,67.2,9.025,12.872,12.872,0,0,1,70.4,12.195a14.262,14.262,0,0,1,1.974,4.05,25.29,25.29,0,0,1,.849,5.364,29.054,29.054,0,0,0,.648,4.643,1.433,1.433,0,0,0,.637.86,1.947,1.947,0,0,0,1.042.3,1.6,1.6,0,0,0,.921-.268,1.256,1.256,0,0,0,.519-.834l.018-.122.217-.136L77.309,26a.333.333,0,0,1,.089-.043l0,0s-.012.021-.04.047l-.017.015.034-.029.077-.071.075-.074a2.6,2.6,0,0,1,1.006-1.222,2.571,2.571,0,0,1,1.374-.383,2.957,2.957,0,0,1,.331.019l-.031.074-.32.824-.1.259a8.558,8.558,0,0,1-1.506,2.647,9.99,9.99,0,0,1-3.691,2.653.288.288,0,0,0-.192.31.282.282,0,0,0,.266.236c.225.022.457.034.689.034a8,8,0,0,0,2.242-.332,9.148,9.148,0,0,0,2.128-.933,8.969,8.969,0,0,0,1.828-1.441A7.7,7.7,0,0,0,82.9,26.734a2.789,2.789,0,0,1,.026.316,6.162,6.162,0,0,1-.058,1.046,1.75,1.75,0,0,0-.506.295A7.361,7.361,0,0,0,81,30.092,8.876,8.876,0,0,1,79.856,31.6,12.292,12.292,0,0,1,78.177,33a8.152,8.152,0,0,1-1.932,1,.186.186,0,0,0-.054.03c-.119-.452-.225-.818-.333-1.15a.127.127,0,0,0-.122-.095.14.14,0,0,0-.139.13c0,.012-.011.018-.028.018a3.517,3.517,0,0,1-.742-.339c-.37-.191-.83-.429-1.365-.671a9.5,9.5,0,0,0-3.817-1.01,4.472,4.472,0,0,0-.657.047,17.628,17.628,0,0,0-5.058,1.663A22.311,22.311,0,0,1,60.658,33.9,16.415,16.415,0,0,1,56.12,34.481ZM49.911,21.912a.181.181,0,0,0-.165.146.138.138,0,0,0,.08.164A22.354,22.354,0,0,1,52.9,23.935a22.8,22.8,0,0,1,2.713,2.122,25.141,25.141,0,0,1,2.38,2.5,29.487,29.487,0,0,1,2.077,2.834.92.92,0,0,0,.817.44,1.453,1.453,0,0,0,.222-.018.65.65,0,0,0,.437-.272l.028-.035.085-.115a.9.9,0,0,0,0-.928,18.212,18.212,0,0,0-2.273-2.911,20.1,20.1,0,0,0-2.8-2.425,21.6,21.6,0,0,0-6.634-3.205.156.156,0,0,0-.043-.006Zm10.42-1.3a.223.223,0,0,0-.2.159.231.231,0,0,0,.052.26,16.983,16.983,0,0,1,3.363,3.641A10.194,10.194,0,0,1,64.6,26.829c.107.311.188.631.266.94a7,7,0,0,0,.517,1.532A1.19,1.19,0,0,0,66.468,30a1.557,1.557,0,0,0,1.514-1.4,5.288,5.288,0,0,0-.848-2.948,13.021,13.021,0,0,0-1.913-2.486A9.135,9.135,0,0,0,63.055,21.5a7.675,7.675,0,0,0-2.571-.865l-.129-.018Zm-48.19-1.533a.6.6,0,0,0-.541.38.518.518,0,0,0,.127.584,12.411,12.411,0,0,0,3.967,2.49,19.839,19.839,0,0,0,4.565,1.174l.158.022a24.308,24.308,0,0,0,3.3.252,12.013,12.013,0,0,0,3.317-.411,5.831,5.831,0,0,0,2.711-1.581,1.057,1.057,0,0,0,.216-1.027.844.844,0,0,0-.642-.589,6.765,6.765,0,0,0-1.388-.132,14.3,14.3,0,0,0-1.715.126l-.3.038-.734.1a28.936,28.936,0,0,1-3.751.271c-.207,0-.415,0-.617-.009a32.059,32.059,0,0,1-7.149-1.307c-.456-.12-.927-.243-1.391-.361a.564.564,0,0,0-.138-.017Zm50.813-7a.407.407,0,0,0-.342.232.341.341,0,0,0,.013.36c.47.652,1,1.271,1.511,1.87.45.527.915,1.071,1.339,1.636.272.362.534.735.787,1.1a18.309,18.309,0,0,0,1.956,2.467.76.76,0,0,0,.547.233.867.867,0,0,0,.67-.335.778.778,0,0,0,.138-.687,8.055,8.055,0,0,0-.948-2.162,11.268,11.268,0,0,0-1.545-1.963A11.7,11.7,0,0,0,63.064,12.1.3.3,0,0,0,62.954,12.079Zm-46,1.333h0a.312.312,0,0,0-.283.208.333.333,0,0,0,.061.368,12.086,12.086,0,0,0,3.928,2.558,12.538,12.538,0,0,0,4.712.966A9.041,9.041,0,0,0,29,16.8a.706.706,0,0,0,.443-.816,1.046,1.046,0,0,0-.9-.86c-.442-.027-.91-.039-1.518-.039-.28,0-.565,0-.84.005h-.006c-.273,0-.554,0-.831,0a18.132,18.132,0,0,1-2.719-.164,30.955,30.955,0,0,1-5.577-1.5.308.308,0,0,0-.1-.018Zm4.963-3.995a.3.3,0,0,0-.284.232.442.442,0,0,0,.135.49,7.322,7.322,0,0,0,4.363,1.492,6.817,6.817,0,0,0,1.447-.156.563.563,0,0,0,.431-.646.583.583,0,0,0-.567-.555h-.026c-.26.01-.515.016-.758.016a11.6,11.6,0,0,1-4.6-.842A.371.371,0,0,0,21.916,9.417Zm11.1-5.545h-.175a30.544,30.544,0,0,1-5.959-.565c.583.035,1.188.053,1.848.053,1.742,0,3.5-.124,5.2-.243h0c.668-.047,1.3-.091,1.933-.129,1.587-.07,3.147-.105,4.638-.105,1.044,0,2.083.017,3.086.051l-1.148.153-.766.1A68.269,68.269,0,0,1,33.016,3.872Z" transform="translate(19.078 7.015)" fill="#ecdcbf"/>
        <path id="Fill_4" data-name="Fill 4" d="M.483.412a.091.091,0,0,0,0,.041s0-.007,0-.012L.483.412" transform="translate(24.168 27.44)" fill="#4f66af"/>
        <path id="Fill_6" data-name="Fill 6" d="M.443.458A.4.4,0,0,0,.393.421h0L.443.458" transform="translate(24.207 27.545)" fill="#4f66af"/>
        <path id="_Ink-2" data-name="ðŸ– Ink" d="M55.78,120.8a20.338,20.338,0,0,1-7.262-1.3l-.2-.077c-4.338-1.713-6.851-3.918-7.47-6.555a2.364,2.364,0,0,1,.439-2.049,2.436,2.436,0,0,1,.829-.668,2.4,2.4,0,0,1,1.054-.247,2.462,2.462,0,0,1,1.154.292,10.028,10.028,0,0,1,2.2,1.608l.125.115a7.724,7.724,0,0,0,1.458,1.115,12.057,12.057,0,0,0,3.923,1.649,15.927,15.927,0,0,0,3.881.472,17.524,17.524,0,0,0,4.929-.716,21.212,21.212,0,0,0,4.355-1.846,28.19,28.19,0,0,0,3.9-2.662,41.611,41.611,0,0,0,3.518-3.207c.989-1,2.035-2.14,3.2-3.482a47.715,47.715,0,0,0,5.937-8.213,19.984,19.984,0,0,0,1.875-4.819,20.6,20.6,0,0,0,.564-5.142c-.039-2.918-.347-5.887-.645-8.759v0c-.111-1.072-.227-2.181-.326-3.268-.4-4.377-.731-8.373-1.015-12.215-.221-2.988-.287-6.037-.351-8.985h0c-.018-.823-.036-1.673-.058-2.509l-.019-.719c-.043-1.527-.077-3.072-.11-4.566q-.017-.771-.034-1.542c-.011-.48-.028-.969-.045-1.441a33.871,33.871,0,0,1,.048-4.666.14.14,0,0,1,.139-.13.127.127,0,0,1,.123.095c.107.328.213.694.333,1.15a.19.19,0,0,1,.054-.03,8.153,8.153,0,0,0,1.932-1,12.293,12.293,0,0,0,1.679-1.4,8.874,8.874,0,0,0,1.141-1.507,7.362,7.362,0,0,1,1.362-1.7,1.7,1.7,0,0,1,1.1-.4,1.607,1.607,0,0,1,1.264.595A1.513,1.513,0,0,1,91.01,33.4a4.306,4.306,0,0,1-1.5,2.2,10.341,10.341,0,0,1-2.328,1.435,9.146,9.146,0,0,1-4.034.815c-.258,0-.524-.007-.813-.02l-.021,0c.323,1.3.555,2.646.779,3.95h0v0c.107.623.218,1.268.337,1.894.458,2.417.92,4.892,1.373,7.357.15.817.317,1.648.478,2.451v0c.307,1.531.624,3.113.843,4.675.217,1.546.432,3.119.64,4.64v0l0,.025c.114.837.233,1.7.35,2.552.451,3.272.837,6.609,1.21,9.835.08.695.171,1.482.262,2.253l.225,1.908c.215,1.838.448,3.973.491,6.058a25.182,25.182,0,0,1-.534,6.043,24.753,24.753,0,0,1-1.951,5.446,37.364,37.364,0,0,1-2.965,4.979,67.607,67.607,0,0,1-7.172,8.717c-5.9,6-12.176,9.39-18.666,10.068A21.621,21.621,0,0,1,55.78,120.8ZM30.258,108.218c-1.252,0-2.627-1.278-3.631-2.211-.158-.147-.308-.286-.445-.409l-.093-.083a33.815,33.815,0,0,1-3.854-4.01,29.285,29.285,0,0,1-3.065-4.5,20.58,20.58,0,0,1-1.981-5.053,2.945,2.945,0,0,1-.82,1.793,5.005,5.005,0,0,1-2.63,1.512,6.1,6.1,0,0,1-1.3.142A5.5,5.5,0,0,1,9.9,94.8a5.6,5.6,0,0,1-2.01-1.753,7.223,7.223,0,0,1-1.15-2.7,10.317,10.317,0,0,1-.182-2.951l.018-.232c0-.038.005-.08.008-.125a5.367,5.367,0,0,1,.12-1l-.716-.393a11.773,11.773,0,0,1-2.421-1.753A11.271,11.271,0,0,1,.43,78.846a9.587,9.587,0,0,1,.071-5.9,10.262,10.262,0,0,1,1.9-3.29,9.654,9.654,0,0,1,1.368-1.306,8.835,8.835,0,0,1,1.594-.994,10.389,10.389,0,0,1-.6-2.517q-.024-.156-.047-.308l-.024-.151a38.621,38.621,0,0,1-.043-13.067,38.272,38.272,0,0,1,1.729-6.889,25.709,25.709,0,0,1,3.249-6.338A14.373,14.373,0,0,1,4.1,34.364,7.563,7.563,0,0,1,2.394,31.3a5.009,5.009,0,0,1-.154-1.714,4.389,4.389,0,0,1,.517-1.705,4.774,4.774,0,0,1,1.167-1.422,6.948,6.948,0,0,1-.766-2.421,6.41,6.41,0,0,1,.2-2.568,6.776,6.776,0,0,1,4.115-4.362,6.451,6.451,0,0,1-.04-2.924A5.96,5.96,0,0,1,8.821,11.5a5.551,5.551,0,0,1,2.044-1.441A6.433,6.433,0,0,1,13.3,9.586a6.754,6.754,0,0,1,1.184.1A17.566,17.566,0,0,0,14.379,7.2a11.56,11.56,0,0,1,.066-3.758A4.748,4.748,0,0,1,15.1,1.924,4.147,4.147,0,0,1,16.129.85,4.716,4.716,0,0,1,18.908,0a5.95,5.95,0,0,1,3.033.851,16.639,16.639,0,0,1,2.248,1.708c.472.4.96.82,1.469,1.191a16.2,16.2,0,0,0,4.129,2.182,27.266,27.266,0,0,0,9.1,1.428h.173a80.241,80.241,0,0,0,10.525-.931h0A80.222,80.222,0,0,1,60.116,5.5c.4,0,.8.006,1.194.018a31.83,31.83,0,0,1,4.4.44,27.091,27.091,0,0,1,4.32,1.107,19.74,19.74,0,0,1,7.522,4.572,16.171,16.171,0,0,1,2.825,3.833,19.731,19.731,0,0,1,1.707,4.454,43.194,43.194,0,0,1,.858,4.411L83,24.7c.034.24.074.488.112.728a14.22,14.22,0,0,1,.221,1.926,9.281,9.281,0,0,1-.182,1.708v0c-.038.222-.076.452-.107.674a1.267,1.267,0,0,1-.508.878,1.607,1.607,0,0,1-.94.282,1.947,1.947,0,0,1-1.042-.3,1.432,1.432,0,0,1-.637-.86,29.051,29.051,0,0,1-.648-4.644,25.292,25.292,0,0,0-.848-5.363,14.266,14.266,0,0,0-1.974-4.05,12.872,12.872,0,0,0-3.194-3.169,19.271,19.271,0,0,0-3.119-1.753,20.352,20.352,0,0,0-3.257-1.122,27.539,27.539,0,0,0-6.827-.772,81.767,81.767,0,0,0-10.687.957l-.076.01a80.985,80.985,0,0,1-10.473.947c-.554,0-1.1-.013-1.618-.038a34.555,34.555,0,0,1-4.3-.468A24.86,24.86,0,0,1,28.7,9.17a21.887,21.887,0,0,1-4.035-1.913A23.031,23.031,0,0,1,22.36,5.552h0c-.3-.243-.614-.495-.927-.736l-.474-.36a3.971,3.971,0,0,0-2.026-.968.968.968,0,0,0-.7.281,2.406,2.406,0,0,0-.337,1.59l0,.249c.008.579.044,1.166.079,1.734a24.066,24.066,0,0,1,.065,2.616,8.135,8.135,0,0,1-.509,2.576,1.952,1.952,0,0,1-1.742,1.315,1.68,1.68,0,0,1-.82-.22l-.055-.031a2.467,2.467,0,0,0-1.278-.355,2.727,2.727,0,0,0-1.455.433,2.756,2.756,0,0,0-1,1.094,2.177,2.177,0,0,0-.221,1.152,2.323,2.323,0,0,0,.506,1.221l.053.067a2.178,2.178,0,0,1,.287,2.263,1.685,1.685,0,0,1-.589.692,1.722,1.722,0,0,1-.967.274h-.069l-.113,0a3.1,3.1,0,0,0-1.93.643A3.034,3.034,0,0,0,7.1,22.614a2.811,2.811,0,0,0,.045,1.744,2.989,2.989,0,0,0,1.248,1.5l.081.05a1.9,1.9,0,0,1,.837.945,1.738,1.738,0,0,1,.042,1.093A2.1,2.1,0,0,1,8.668,29a1.9,1.9,0,0,1-1.219.446,2.089,2.089,0,0,1-.911-.218c.038.018.056.034.056.048s-.036.04-.091.068a.793.793,0,0,0-.289.222.891.891,0,0,0-.149.749,2.649,2.649,0,0,0,.6,1.26,8.007,8.007,0,0,0,.99,1.008,12.214,12.214,0,0,0,2.453,1.676,15.122,15.122,0,0,0,2.761,1.1,21.631,21.631,0,0,0,6.152.836c4.314,0,8.666-1.061,12.874-2.087,1.229-.3,2.5-.609,3.734-.883a47.509,47.509,0,0,1,10.241-1.279,28.962,28.962,0,0,1,3.4.194,23.322,23.322,0,0,1,3.317.634,19.82,19.82,0,0,1,3.179,1.152,18.336,18.336,0,0,1,2.989,1.75.08.08,0,0,1,.031.092.074.074,0,0,1-.069.054.081.081,0,0,1-.041-.012,15.8,15.8,0,0,0-4.4-1.713,20.965,20.965,0,0,0-4.691-.5,32.769,32.769,0,0,0-6.912.812c-2.638.575-5.315,1.352-7.9,2.1A75.035,75.035,0,0,1,21.83,39.461a18.817,18.817,0,0,1,2.289,11.667,16.922,16.922,0,0,1-1.032,3.92,33.754,33.754,0,0,1-1.732,3.669l-.248.463a21.919,21.919,0,0,0-1.463,3.253,11.072,11.072,0,0,0-.606,3.512,2.3,2.3,0,0,1-3.571,1.793,2.067,2.067,0,0,1-.8-1.2c-1-3.875,1.243-7.179,3.413-10.374a30.71,30.71,0,0,0,2.514-4.136,16.378,16.378,0,0,0,.4-12.489c-.869.07-1.728.105-2.554.105s-1.676-.037-2.484-.109a23.982,23.982,0,0,1-4.413-.808l-.584,2.455A59.956,59.956,0,0,0,9.25,51.119a46.731,46.731,0,0,0,.092,7.495,55.916,55.916,0,0,0,1.106,6.324,2.665,2.665,0,0,1,.477,1.918,7.534,7.534,0,0,1,3.282,1.956A7.777,7.777,0,0,1,16.145,72.2a.135.135,0,0,1-.021.12.157.157,0,0,1-.123.06.138.138,0,0,1-.12-.069,5.927,5.927,0,0,0-2.409-2.181,7.148,7.148,0,0,0-3.237-.78,5.847,5.847,0,0,0-3.284.947,6.5,6.5,0,0,0-1.684,1.65,6.671,6.671,0,0,0-.989,2.094,6.209,6.209,0,0,0,.462,4.55,7.412,7.412,0,0,0,3.493,3.3l.305.144a4.69,4.69,0,0,1,2.039,1.544,3.639,3.639,0,0,1,.585,1.518,7.819,7.819,0,0,1,.039,1.623l-.027.455a6.411,6.411,0,0,0,.173,2.249l.051.161a2.2,2.2,0,0,0,.229.512c.02.032.14.154.256.273l0,0c.07.071.136.139.173.179l.124.037.139.006h.008a1.117,1.117,0,0,0,.171-.017l.029-.005.009,0a.609.609,0,0,1,.075-.011c.006,0,.009,0,.01,0s0,.007-.013.014l.018-.01c.051-.032.1-.068.157-.109l.086-.067a2.431,2.431,0,0,1,.763-.714l.3-.132a1.384,1.384,0,0,1,1.031-.435,2.024,2.024,0,0,1,1.6.858,3.293,3.293,0,0,1,.627,1.753.21.21,0,0,1,.168-.1.148.148,0,0,1,.118.062L18,92.34l.515.659a80.955,80.955,0,0,0,5.711,6.784,41.644,41.644,0,0,0,4,3.594c.293.231.647.458,1.021.7,1.154.741,2.462,1.58,2.489,2.884a1.226,1.226,0,0,1-.873,1.147A1.658,1.658,0,0,1,30.258,108.218ZM16.795,82.909a2.493,2.493,0,0,1-1.111-.264,3.346,3.346,0,0,1-1.478-1.769c-.1-.2-.2-.4-.313-.609a7.588,7.588,0,0,0-1.354-1.7A13.137,13.137,0,0,0,8.72,75.955a.282.282,0,0,1-.152-.261.3.3,0,0,1,.152-.276,6.249,6.249,0,0,1,2.772-.623,7.627,7.627,0,0,1,3.186.721l.127.06a10.106,10.106,0,0,1,1.592.972,8.682,8.682,0,0,1,1.464,1.358,5.087,5.087,0,0,1,.96,1.633,3.091,3.091,0,0,1,.079,1.8,2.051,2.051,0,0,1-.8,1.172A2.245,2.245,0,0,1,16.795,82.909ZM66.934,35.315a.92.92,0,0,1-.816-.44,29.493,29.493,0,0,0-2.077-2.834,25.14,25.14,0,0,0-2.38-2.5,22.805,22.805,0,0,0-2.713-2.122A22.358,22.358,0,0,0,55.87,25.71a.138.138,0,0,1-.08-.164.181.181,0,0,1,.166-.146.156.156,0,0,1,.043.006,21.6,21.6,0,0,1,6.634,3.205,20.1,20.1,0,0,1,2.8,2.425A18.211,18.211,0,0,1,67.7,33.947a.9.9,0,0,1,0,.928l-.085.115a.671.671,0,0,1-.465.308A1.452,1.452,0,0,1,66.934,35.315ZM81.4,34.784c-.231,0-.463-.011-.688-.034a.281.281,0,0,1-.266-.236.292.292,0,0,1,.193-.31,9.989,9.989,0,0,0,3.691-2.653,10.01,10.01,0,0,0,1.737-3.241c.062-.16.126-.326.19-.49a1.852,1.852,0,0,1,.943-1.066,1.528,1.528,0,0,0,.15-.255.891.891,0,0,1,.777-.436.905.905,0,0,1,.888.654l.03.066c.054.122.071.2.051.229a.036.036,0,0,1-.033.016.373.373,0,0,1-.168-.08,1.718,1.718,0,0,1,.6,1.767,7.613,7.613,0,0,1-3.037,4.349,9.208,9.208,0,0,1-2.428,1.265A8.105,8.105,0,0,1,81.4,34.784Zm-8.887-1.3a1.19,1.19,0,0,1-1.084-.693,6.992,6.992,0,0,1-.517-1.532c-.078-.31-.159-.63-.266-.941a10.171,10.171,0,0,0-1.054-2.158,16.978,16.978,0,0,0-3.363-3.641.231.231,0,0,1-.052-.26.222.222,0,0,1,.2-.159l.026,0a7.659,7.659,0,0,1,2.644.853,9.108,9.108,0,0,1,2.221,1.7,13.023,13.023,0,0,1,1.913,2.486,5.288,5.288,0,0,1,.848,2.948A1.557,1.557,0,0,1,72.513,33.482ZM29.764,27.468a24.307,24.307,0,0,1-3.3-.252,20.1,20.1,0,0,1-4.649-1.167,12.45,12.45,0,0,1-4.041-2.519.518.518,0,0,1-.127-.584.594.594,0,0,1,.54-.38.564.564,0,0,1,.138.017c.464.117.935.241,1.39.361h0a32.057,32.057,0,0,0,7.148,1.307c.2.006.41.009.617.009a28.939,28.939,0,0,0,3.752-.271l.734-.1a15.394,15.394,0,0,1,2.011-.163,6.762,6.762,0,0,1,1.388.132.844.844,0,0,1,.643.589,1.056,1.056,0,0,1-.216,1.027,5.831,5.831,0,0,1-2.711,1.581A12.014,12.014,0,0,1,29.764,27.468Zm45.044-4.009a.76.76,0,0,1-.547-.233,18.3,18.3,0,0,1-1.955-2.465h0c-.253-.361-.515-.734-.787-1.1-.423-.565-.888-1.109-1.337-1.635-.512-.6-1.041-1.219-1.512-1.872a.341.341,0,0,1-.013-.36A.407.407,0,0,1,69,15.566a.3.3,0,0,1,.109.021,11.694,11.694,0,0,1,4.015,2.725,11.267,11.267,0,0,1,1.545,1.963,8.056,8.056,0,0,1,.949,2.162.778.778,0,0,1-.138.686A.867.867,0,0,1,74.808,23.459ZM31.416,21a12.535,12.535,0,0,1-4.712-.966,12.086,12.086,0,0,1-3.928-2.559.333.333,0,0,1-.061-.368A.312.312,0,0,1,23,16.9a.308.308,0,0,1,.1.018,30.953,30.953,0,0,0,5.577,1.5,18.092,18.092,0,0,0,2.714.164c.28,0,.565,0,.84-.005h.015c.27,0,.548,0,.822,0,.611,0,1.081.012,1.524.039a1.046,1.046,0,0,1,.9.86.706.706,0,0,1-.443.816A9.042,9.042,0,0,1,31.416,21Zm.758-5.881a7.322,7.322,0,0,1-4.363-1.492.442.442,0,0,1-.135-.49.3.3,0,0,1,.284-.232.371.371,0,0,1,.142.031,11.6,11.6,0,0,0,4.6.842c.243,0,.5-.005.758-.016h.026a.583.583,0,0,1,.567.555.563.563,0,0,1-.431.646A6.818,6.818,0,0,1,32.175,15.118Z" transform="translate(13.033 3.555)"/>
      </g>
      <g id="FACIAL_HAIR" data-name="FACIAL HAIR" transform="translate(29.211 80.109)">
        <path id="_Ink-3" data-name="ðŸ– Ink" d="M36.724,2.528c-1.566-.294-3.185-.211-4.741-.553C30.466,1.641,29.261.649,27.794.187a4.287,4.287,0,0,0-3.807.657A5.521,5.521,0,0,0,20.93.462a14.282,14.282,0,0,0-4.548,1.632c-.166.085-.333.167-.5.249a33.6,33.6,0,0,0-7.97.506A9.5,9.5,0,0,0,2.059,6.472C.522,8.658.244,11.441.007,14.023c-.151,1.639,2.131,1.972,2.9.785a19.138,19.138,0,0,1,2.7-3.484A6.587,6.587,0,0,1,9.957,9.6c3.65-.233,7.324-.038,10.977-.2,2.118-.094,4.475-.906,5.329-2.744a6.365,6.365,0,0,0,4.673,2.4c1.794.136,3.616-.189,5.392.184,1.7.356,3.714,1.618,3.337,3.635a1.083,1.083,0,0,0,1.97.829c2.821-4.31.041-10.253-4.912-11.182" transform="translate(24.699 6.636)"/>
      </g>
      <g id="FACE" transform="translate(37.761 44.084)">
        <path id="_Ink-4" data-name="ðŸ– Ink" d="M29.9,42.347a12.407,12.407,0,0,1-4.317-1l-.3-.118a8.012,8.012,0,0,1-2.759-1.609,3.071,3.071,0,0,1-.63-.821.645.645,0,0,1-.034-.528c.277-.027.539-.063.778-.106l.033-.006a1.8,1.8,0,0,1,.282-.038h.022a7.282,7.282,0,0,1,.906.076l.014,0h.01l.126.016c.249.031.5.065.728.095.687.092,1.4.188,2.118.222.131.006.266.009.414.009.392,0,.8-.022,1.187-.043l.1-.005c.37-.02.753-.041,1.125-.041a5.515,5.515,0,0,1,1.457.163,3.052,3.052,0,0,1,1.287.691,1.207,1.207,0,0,1,.4.917,1.866,1.866,0,0,1-.43,1.137,2.457,2.457,0,0,1-1.09.764,4.137,4.137,0,0,1-1.384.223ZM16.906,39.064a.984.984,0,0,1-.125-.008.687.687,0,0,1-.551-.356,5,5,0,0,1-.5-2.255,7.744,7.744,0,0,1,.406-2.323A18.889,18.889,0,0,1,18.277,29.9l.165-.253a19.426,19.426,0,0,1,2.777-3.415,7.093,7.093,0,0,1,3.719-2.068l.309.492.449-.3a2.3,2.3,0,0,1,1.28-.369,3.132,3.132,0,0,1,1.273.285l.849.382a23.831,23.831,0,0,0,4.848,1.718c.124.026.25.05.373.073s.241.042.354.06c-.024-.112-.051-.223-.08-.347l0-.009c-.028-.117-.057-.239-.087-.358s-.065-.243-.1-.376c-.15-.544-.305-1.026-.475-1.474A26.643,26.643,0,0,0,31.062,18.8l-.126-.19c-.15-.226-.311-.458-.481-.7l-.015-.021-.055-.079a18.429,18.429,0,0,1-1.171-1.83,4.6,4.6,0,0,1-.6-1.906,5.58,5.58,0,0,1,2.833,1.34l.024.017a21.707,21.707,0,0,1,3.105,2.782,17.958,17.958,0,0,1,4.192,7.13,5.9,5.9,0,0,1,.173,2.263,4.645,4.645,0,0,1-.716,2.007,3.421,3.421,0,0,1-1.236,1.133,3.791,3.791,0,0,1-1.811.428c-.073,0-.147,0-.222-.005a19.539,19.539,0,0,1-9.082-2.9,2.64,2.64,0,0,1-.793-.8,2.422,2.422,0,0,1-.36-1.029l-.135-1.294-.731,1.078-.23.336-.005.008c-.206.3-.419.612-.617.926a41.463,41.463,0,0,0-2.1,3.726,21.614,21.614,0,0,0-1.112,2.956l-.02.062a24.608,24.608,0,0,1-.9,2.49,7.107,7.107,0,0,1-1.371,2.108A.819.819,0,0,1,16.906,39.064ZM12.012,19.33a2.039,2.039,0,0,1-1.323-.511,4.058,4.058,0,0,1-.955-1.239,7.033,7.033,0,0,1-.788-2.9v-.053a7.945,7.945,0,0,1,.717-3.048,2.824,2.824,0,0,1,2.349-1.914c.633,0,1.194.511,1.623,1.477a9.837,9.837,0,0,1,.709,3.293l.005.1a9.32,9.32,0,0,1-.189,2.182,4.3,4.3,0,0,1-.941,2.08A1.628,1.628,0,0,1,12.012,19.33Zm25.967-.474a1.632,1.632,0,0,1-1.221-.547,4.282,4.282,0,0,1-.945-2.149,9.144,9.144,0,0,1-.167-2.2l.012-.181a9.552,9.552,0,0,1,.727-3.177c.425-.923.976-1.411,1.593-1.411a2.824,2.824,0,0,1,2.349,1.914,7.945,7.945,0,0,1,.716,3.048v.054a7.032,7.032,0,0,1-.788,2.9,4.057,4.057,0,0,1-.955,1.239A2.039,2.039,0,0,1,37.98,18.856ZM0,9.5H0A21.914,21.914,0,0,1,8.228,3.091,36.18,36.18,0,0,1,13.64.985L14.668.677A9.566,9.566,0,0,1,17.311.182a3.566,3.566,0,0,1,1.948.526A2.273,2.273,0,0,1,20.294,2.2a2.124,2.124,0,0,1-.417,1.719,2.064,2.064,0,0,1-1.248.8,2.041,2.041,0,0,1-.381.035,2.5,2.5,0,0,1-1.166-.308c-.17-.013-.3-.019-.4-.019a1.861,1.861,0,0,0-.226.013l-.165.02c-.3.035-.6.082-.864.124-.834.133-1.676.294-2.5.48-1.473.332-3.042.772-4.663,1.307C6.828,6.839,5.4,7.382,4.011,7.908l-.226.086c-.5.189-1,.4-1.49.612l-.018.008C1.536,8.93.771,9.257,0,9.5ZM45.1,7.277h0a10.265,10.265,0,0,0-2.859-1.6,21.115,21.115,0,0,0-3.178-.932,12.338,12.338,0,0,0-2.649-.283c-.134,0-.271,0-.407.006a10.643,10.643,0,0,0-1.378.16L34.6,4.63a8.9,8.9,0,0,1-1.413.15,4,4,0,0,1-.72-.062,1.735,1.735,0,0,1-.994-.6A2.511,2.511,0,0,1,30.9,2.881a1.979,1.979,0,0,1,.164-1.172A2.92,2.92,0,0,1,31.979.666,4.246,4.246,0,0,1,34.586,0a16.1,16.1,0,0,1,2.048.163,11.33,11.33,0,0,1,4.011,1.3,9.662,9.662,0,0,1,3.1,2.7A9.745,9.745,0,0,1,45.09,7.241l.011.036Z" transform="translate(11.861 14.451)"/>
      </g>
    </g>
  </g>
</svg>
