<svg xmlns="http://www.w3.org/2000/svg" width="390.67" height="780" viewBox="0 0 390.67 780">
  <g id="peep-standing-13" transform="translate(28.736)">
    <g id="BODY" transform="translate(-28.736 150.264)">
      <path id="_Skin" data-name="âœ‹ Skin" d="M246.732,246.639c6.255.14,3.573-58.218-.6-68.972a28.23,28.23,0,0,1-.971-7.832c5.166.516,4.61-3.019,4.343-7.283.088-3.385.323-10.37-4.858-7.651C229.109,123.8,245.9,43.415,205.006,35.844c-4.928-1.2-10.022-2.436-14.171-5.852-4.39-8.116-6.627-9.152-13.9-9.677-1.347-7.31-3.865-15.12-11.369-17.965C158.693-.343,150.7-.558,143.534.879c-5.929,1.934-6.472,12.956-7.789,18.39-7.986-2.118-17.828-6.572-22.127,3.525a9.865,9.865,0,0,0-6.128.474C89.754,26.125,72.546,34.149,65.968,50.89c-4.063,10.046-1.18,20.982.344,31.386C67.734,93.605,63.986,104.1,62.249,115c-2.587,15.006-3.054,27.043-1.366,38.2-4.462,1.015-4.791,5.073-2.986,9.32.53,1.437,1.064,2.952,2.236,3.764,2.384,1.5,5.466-.229,8.057-.493A113.021,113.021,0,0,0,71.5,184.34c-.5,2-1.074,4.234-1.589,6.243l-.174-.189c-5.916,24.78-23.511,48.85-18.042,75.186.322.877.932.694,1.4.679,2.715,1.032,5.208.377,7.945.482a150.052,150.052,0,0,1,18.586,1.56c1.064,6.949,4.522,18.326,10.69,20.976.1.035,1.932-.346,2.085-.357C75.982,355.5,46.44,417.059,34.7,484.977c-.07.829,1.279.39,1.722.491-.061,1.885,1.157,2.338,2.862,3.008-2.2,4.594-4.177,9.181-6.364,13.787-1.014,2.28-2.667,4.531-2.968,6.968a9.023,9.023,0,0,0-4.009,7.4c-6.53,2.76-4.755,16.392-6.245,23.145C18.2,549.831,11.03,556.855,6.117,565.1A12.789,12.789,0,0,0,4,571.006c-3.046,1.428-4.181,4.547-3.98,9.8-.011,6.143,1.722,8.482,6.394,8.63,12.69,1.268,27.5.751,40.261-.691,9.548-1.214,18.009-.207,15.874-11.68-.439-2.778.4-6.517-1.239-8.765a42.861,42.861,0,0,1,1.762-20.046c1.329-5.566,3.573-17.063,2.643-24.533-.43-3.455-7.483-5.356-8.724-5.524.395-2.6.221-7.145-1.178-8.953,2.569-.358,3.215-1.038,3.75-3.891,1.279-4.622,1.449-9.64,4.616-13.534,5.7.073,11.373-1.372,17.065-1.548l.283-.654a30,30,0,0,0,9.911-1.8c.709.335,1.615.623,2.014-.45l1.9-5.945c22.13-70.427,46.661-141.023,70.579-210.934a49.429,49.429,0,0,1,5.259-10.04c.74,42.775,9.7,85.505,10.47,128.26,1.04,29.412.772,58.516,3.539,88.033.712,6.247,1.469,6.039,2.4,5.656.374.058,1.253.246,1.635.326-.624,6.208-1.341,16.284-4,22.634-5.884.908-4.83,5.423-3.525,9.166-1.4,1.2-1.2,3.994-.788,5.541-5.536.006-6.744,4.509-6.363,7.351.527,4.753.232,12.149,3.4,16.207,1.868,5.176,4.907,10.061,6.095,15.637.746,4.1.458,10.079,1.178,14.149-1.811.836-1.043,2.148-1.349,4.684-1.567,11.613,3.95,9.639,13.7,10.438,5.847,1.291,50.358,3.86,48.434-3.866.328-3.146-1.135-4.528-1.762-7.626-.281-.822-5.827-10.337-9.134-13.94-11.094-10.423-10.609-24.417-10.258-40.536-.652-4.369-4.013-8.552-8.3-8.082,1.231-4.666-1.051-8.723-5.82-10.072.476-5.283.978-12.461,2.722-17.031l-1.643-1.672,2.2.263.73-1.838.8,2.014c3.775,0,8.034-.837,11.649-1.231.578.033.32-.752.415-1.055,3.415-.707,3.788-2.521,3.185-6.845.8-70.195.45-139.731-.637-210.056,5.336.238,10.54-1.708,15.784-3.006,1.863,1.169,2.391-2.995,2.173-3.893C247.826,255.4,247.25,250.863,246.732,246.639Z" transform="translate(23.274 -8.295)" fill="#d08b5b"/>
      <path id="_Jacket" data-name="ðŸ§¥ Jacket" d="M.335,249.919h0A47.151,47.151,0,0,1,0,244.653c-.015-1.716.057-3.516.214-5.353a80.829,80.829,0,0,1,1.743-10.869c1.636-7.286,4.078-14.618,6.44-21.71,1.959-5.881,3.809-11.436,5.164-16.793.275-1.053.6-2.3.916-3.6,1.355-3.81,3.978-13.3,4.884-16.995l.125-.516.174.189.394-1.535c.421,1.487.857,3.228,1.318,5.072l0,.006c.737,2.946,1.5,5.993,2.29,8.344A296.845,296.845,0,0,1,28.843,213c.142,1.343.273,2.7.4,4v.011c.215,2.222.438,4.52.712,6.772a29.7,29.7,0,0,0-.011,5.391h0a28.636,28.636,0,0,1-.055,5.881,42.615,42.615,0,0,0-7.474,2.224,79.594,79.594,0,0,0-7.99,3.659,94.537,94.537,0,0,0-14.09,8.973Zm195.881-8.414h0a37.314,37.314,0,0,1-5.4-1.7l-.674-.292c-5.572-2.424-11.534-4.986-17.769-7.327-3.508-1.317-6.742-2.422-9.612-3.284a69.824,69.824,0,0,0-8.789-2.111c-1.918-11.675-3.525-21.962-4.913-31.45-1.678-11.47-3.064-21.943-4.238-32.017-1.309-11.23-2.355-22.058-3.109-32.182-.405-5.445-.738-10.837-.989-16.027-.261-5.4-.441-10.759-.536-15.918l-.033-1.95c-.108-5.865-.5-11.973-1.208-18.673-.587-5.576-1.375-11.471-2.48-18.55l-.106-.867c-.48-3.955-1-8.552-1.1-13.051a50.624,50.624,0,0,1,1.2-12.97.13.13,0,0,0,.038.006.074.074,0,0,0,.061-.03,7.455,7.455,0,0,0-.51-2.59,65.695,65.695,0,0,1-1.661-7.582,21.036,21.036,0,0,1-.059-4.015c.117-2.482.239-5.047-1.129-7.362a4.57,4.57,0,0,0-1.335-1.512,2.441,2.441,0,0,0-1.37-.426,4.319,4.319,0,0,0-2.545,1.071c-.295.225-.557.452-.768.635-.293.253-.5.436-.6.436a.044.044,0,0,1-.036-.016c-.021-.027-.021-.088,0-.187a15.82,15.82,0,0,0-1.1-3.2c-.867-2.2-1.849-4.7-1.572-5.1a.123.123,0,0,1,.107-.056.394.394,0,0,1,.187.066,12.367,12.367,0,0,0,3.284.844c2.421.438,5.434.983,6.928,2.474a32.564,32.564,0,0,1,3.766,4.455,16.619,16.619,0,0,1,1.62,2.785,23.619,23.619,0,0,0,3.011,1.545,30.776,30.776,0,0,0,5.051,2.244c1.825.652,3.806,1.246,5.721,1.821a65.5,65.5,0,0,1,10.574,3.836,21.044,21.044,0,0,1,4.408,2.9,15.246,15.246,0,0,1,1.8,1.854,13.855,13.855,0,0,1,1.459,2.186c1.04,2.162,2.039,4.523,2.97,7.017.887,2.375,1.741,4.948,2.538,7.649,1.47,4.977,2.786,10.47,4.022,16.793,2.293,11.726,3.933,24.454,5.519,36.764v0h0c.9,7.018,1.839,14.274,2.871,21.115.555,3.68,1.095,6.964,1.65,10.038.623,3.447,1.249,6.55,1.916,9.487.173.76.941.865,1.745.865.212,0,.434-.008.649-.016h0c.216-.008.438-.016.651-.016.782,0,1.53.1,1.7.826a27.139,27.139,0,0,1,.526,6.261,21.994,21.994,0,0,0,.662,6.46,105.518,105.518,0,0,1-10.9,1.631h0a103.734,103.734,0,0,0-11.181,1.687c.144.5.463,1.438.906,2.74,1.642,4.833,5.06,14.889,8.637,28.979a381.572,381.572,0,0,1,9.54,53.014Zm-139.647-9.82H56.5a59.75,59.75,0,0,1-3.712-9.758,130.481,130.481,0,0,1-3.169-13.261c-.452-2.423-.843-4.868-1.163-7.266-.333-2.5-.59-4.964-.765-7.328a82.212,82.212,0,0,1,.013-13.759c.211-2.19.441-4.544.663-6.82l.011-.111c1.07-10.961,2.176-22.295,2.176-24.828,0-1.271-1.672-1.888-5.111-1.888-4.368,0-10.977.991-17.368,1.949l-.151.023c-3.165.474-6.438.965-9.366,1.325a65.93,65.93,0,0,1-7.659.6,17.671,17.671,0,0,1-2.143-.113,2.938,2.938,0,0,1-1.808-.844,4.45,4.45,0,0,1-1.016-1.9,33.037,33.037,0,0,1-.775-6.658l-.02-.342c-.049-.817.812-1.4,1.723-2.027s1.873-1.279,1.9-2.207c.184-7.3.257-16.041.311-22.426v-.007c.045-5.339.077-9.2.149-9.667.558-4.308,1.493-8.634,2.4-12.817.64-2.959,1.3-6.02,1.823-9.047a72.824,72.824,0,0,0,1.052-9.151,48.978,48.978,0,0,0-.417-6.731c-.276-2.235-.662-4.5-1.035-6.693v0c-.505-2.968-1.027-6.035-1.284-9.061a42.77,42.77,0,0,1-.16-4.549,31.159,31.159,0,0,1,4.3-15.272,37.357,37.357,0,0,1,7.092-8.726,45.843,45.843,0,0,1,9.292-6.56,50.272,50.272,0,0,1,10.487-4.2,61.318,61.318,0,0,1,6.7-1.51c.591-.11,1.2-.224,1.808-.341.711-.139,1.853-.457,3.176-.825h0a37.815,37.815,0,0,1,7.3-1.59,11.907,11.907,0,0,1,1.924-3.436A9.417,9.417,0,0,1,71.124,0a10.986,10.986,0,0,1,2.938.423c.057.016.278.056.614.117,1.123.2,3.752.679,6.044,1.32,2.847.8,4.283,1.589,4.267,2.356-.014.682-2.825,1.424-5.8,2.209C76.1,7.24,72.9,8.083,72.4,8.955c-.618,1.079-.343,3.319-.078,5.484.235,1.919.457,3.732.078,4.707A21.857,21.857,0,0,0,70.982,24.2a3.879,3.879,0,0,0,.212,2.213.435.435,0,0,0,.351.22.458.458,0,0,0,.3-.135,7.049,7.049,0,0,1,.755,3.1V29.6q.013.136.026.27l.133,1.294c.963,9.176,2.416,18.44,3.82,27.4v.006c.861,5.492,1.751,11.172,2.519,16.772.862,6.282,1.476,11.8,1.876,16.861.385,3.764.583,7.6.606,11.724.021,3.675-.1,7.5-.367,11.686-.5,7.78-1.442,15.674-2.356,23.307v0c-.847,7.078-1.724,14.4-2.24,21.61-.331,5.1-.5,10.762-.506,17.321-.008,5.846.1,11.832.215,17.621.176,9.3.358,18.92.034,28.072a10.072,10.072,0,0,1-.354,1.893,5.947,5.947,0,0,1-.818,1.791l-.071.1-.007,0-.284.057c-1.876.378-4.069,1.041-6.392,1.742h0c-2.039.616-4.148,1.253-6.18,1.738A25.175,25.175,0,0,1,56.569,231.685Z" transform="translate(73.893 7.398)" fill="#9fd8e5"/>
      <path id="_Top" data-name="ðŸ‘• Top" d="M-325.426,8.686l.042.322.04.322C-324.2,18.574-317,72.8-316.159,82.076c1.677,18.489-2.63,39.275-2.773,57.847-.037,4.8,1.129,39.429.115,41.566-.3.64-4.464,7.882,3.447,5.836,17.869-4.623,58.376-21.812,67.229-22.028a2.777,2.777,0,0,1-2.256-2.635c-.167-1.3-3.324-30.834-4.631-61.588-1.439-33.86-6.738-92.9-6.908-93.639-3.314,1.747-7.837,24.412-20.9,24.412S-312.995,16.2-322.732.561C-324.735-2.658-324.685,9.034-325.426,8.686Z" transform="translate(470.213 22.903)" fill="#8fa7df"/>
      <path id="_Shoes" data-name="ðŸ‘Ÿ Shoes" d="M221.8,89.543h-.418c-1.648-.01-3.4-.072-5.217-.184a151.176,151.176,0,0,1-15.474-1.847l-.948-.16-1-.176c-2.467-.44-5.629-1.046-7.721-1.446h0c-.9-.173-1.552-.3-1.83-.348l-.087-.016h-.036a3.808,3.808,0,0,1-2.577-1.029,4.363,4.363,0,0,1-.845-1.125,6.106,6.106,0,0,1-.538-1.454l-.022-.095-.02-.093a15.953,15.953,0,0,1,.154-5.929c.336-1.877,1.15-12.589,1.158-12.7l-3.059-10.18c-.067-.3-1.654-7.529-3.1-15.141-.864-4.538-1.51-8.319-1.919-11.238-.511-3.649-.653-5.953-.42-6.849l.023-.085a16.055,16.055,0,0,1,2.731-2.039h0a19.283,19.283,0,0,0,3.48-2.642,31.871,31.871,0,0,0-.059-4.968,33.748,33.748,0,0,1-.062-5.142l.031-.08.029-.071.013-.029a3.12,3.12,0,0,1,.791-.9,9.965,9.965,0,0,1,2.052-1.3,17.471,17.471,0,0,1,3.552-1.244,28.58,28.58,0,0,1,5.29-.722c.388-.019.826-.043,1.289-.068h.015C198.9.138,201.436,0,203.869,0a35.257,35.257,0,0,1,5.175.307,12.944,12.944,0,0,1,3.541,1.035,13.484,13.484,0,0,1,2.027,1.183h0a7.057,7.057,0,0,0,.595.381l.2.109.05.032c1.1.692,1.814,1.938,2.754,3.994l.555,1.246.951.257A11.3,11.3,0,0,1,222.3,9.58a10.644,10.644,0,0,1,2.3,1.727,19.709,19.709,0,0,1,3.981,6.205l.075.17.075.174a12.7,12.7,0,0,1,.873,3.069,18.691,18.691,0,0,1,.195,3.508l-.006.189-.011.268a45.5,45.5,0,0,1-.62,5.364l-.3,1.885-.085.549a39.381,39.381,0,0,0-.637,7.318,18.051,18.051,0,0,0,.662,4.606,47.817,47.817,0,0,0,3.63,8.867,72.841,72.841,0,0,0,5.542,8.874c1.446,2,8.1,13.274,8.158,13.507l.116.475.11.46.029.123.007.028.017.073.137.589.085.373c.3,1.332.5,2.414.632,3.307l.018.125c.228,1.672.239,2.738-.357,3.582l-.039.054-.1.129-.118.11-.072.065-.074.063-.22.182-.266.1a67.857,67.857,0,0,1-7.622,2.013A80.713,80.713,0,0,1,221.8,89.543ZM21.782,87.631c-6.189,0-11.972-.217-16.724-.629l-.609-.054-.455-.015a3.07,3.07,0,0,1-2.033-.823,4.7,4.7,0,0,1-1.2-2.028L.737,84,.71,83.908a15.99,15.99,0,0,1-.526-3.851l-.026-.662c0-.132-.009-.268-.013-.429L.1,77.276l-.012-.37c-.008-.233-.017-.419-.027-.586l-.013-.2L0,75.819c-.185-1.207,6.157-10.178,11.752-18.093,4.12-5.829,7.679-10.862,8.119-12.044a41.47,41.47,0,0,0,1.117-6.462c.4-3.14.823-6.975,1.23-10.684.748-6.823,1.455-13.267,1.884-13.775l.029-.034,2.709-3.056.395,4.029,0-.005a2.054,2.054,0,0,0,.141-.4l.013-.06.009-.058,0-.028,0-.028a9.383,9.383,0,0,1,1.474-3.777,9.133,9.133,0,0,1,2.9-2.688A13,13,0,0,1,35.165,7.28,21.37,21.37,0,0,1,39.3,6.661c.609-.036,1.242-.054,1.882-.054A57.389,57.389,0,0,1,54.026,8.349l.409.095.086-.048a3.832,3.832,0,0,1,1.952-.576c.06,0,.12,0,.18,0a3.258,3.258,0,0,1,1.483.442,4.477,4.477,0,0,1,1.269,1.139c.269.344.357,2.267.247,5.413v.01c0,.06,0,.1,0,.117v.2l.02.014a5.423,5.423,0,0,0,2.291.414l.3.016.625.028a13.138,13.138,0,0,1,2.277.239l.067.015a5.419,5.419,0,0,1,1.576.584A3.79,3.79,0,0,1,67.986,17.5a5.484,5.484,0,0,1,.97,2.536,13.047,13.047,0,0,1-.033,3.371c-.056.47-2.062,8.1-4,15.474l0,.008v0c-1.7,6.457-3.3,12.556-3.531,13.592a26.026,26.026,0,0,0-.2,4.766c.028,1.946.124,4.41.285,7.324.278,5.032.672,9.939.753,10.806a26.788,26.788,0,0,1,.061,5.24,7.881,7.881,0,0,1-.664,2.617A3.194,3.194,0,0,1,60.1,84.794l-.074.034-.16.071-.432.1-.273.059a69.669,69.669,0,0,1-9.982,1.239l-3.422.244-.75.056c-1.051.08-1.835.148-2.622.228l-.7.073-.027,0C35.436,87.377,28.565,87.631,21.782,87.631Z" transform="translate(21.083 495.518)" fill="#fff"/>
      <path id="_Ink" data-name="ðŸ– Ink" d="M227.638,584.848c-4.469,0-9.635-.207-15.355-.616-4.794-.343-9.045-.758-11.857-1.033h-.006l-.034,0c-.945-.093-1.761-.172-2.377-.228-.961-.151-1.966-.237-2.937-.32a34.307,34.307,0,0,1-3.717-.455,10.975,10.975,0,0,1-3.479-1.256,7.548,7.548,0,0,1-2.222-2.269,9.621,9.621,0,0,1-1.2-2.9,16.841,16.841,0,0,1-.139-6.389l.053-.384a11.319,11.319,0,0,1,.634-2.689,4.136,4.136,0,0,1,1.742-2.084c-.274-1.775-.371-3.6-.466-5.364a47.834,47.834,0,0,0-.588-6.089,26.148,26.148,0,0,0-1.358-4.5c-.572-1.459-1.243-2.911-1.892-4.314a54.2,54.2,0,0,1-2.6-6.309,9.235,9.235,0,0,1-1.958-3.879,32.211,32.211,0,0,1-.754-4.451c-.075-.614-.145-1.194-.229-1.768-.441-3.839-.7-6.964-.808-9.835a8.906,8.906,0,0,1,1.212-5.66,6.04,6.04,0,0,1,1.966-1.874,7.506,7.506,0,0,1,2.929-.955,1.526,1.526,0,0,1,.177-1.141,3.707,3.707,0,0,1,.768-.919,21.228,21.228,0,0,1-.838-5.229,9.559,9.559,0,0,1,1.038-4.9,6,6,0,0,1,1.548-1.806,6.966,6.966,0,0,1,2.42-1.182,42.554,42.554,0,0,0,2.357-8.6c.5-2.853.807-5.707,1.126-8.873-.069-.014-.141-.027-.2-.038h-.008a2.006,2.006,0,0,1-.767.168c-.909,0-1.635-.789-2.159-2.347a18.875,18.875,0,0,1-.767-4.063l-.056-.607c-.468-4.952-.863-10.012-1.206-15.471-.305-4.861-.563-9.93-.787-15.494-.416-10.338-.649-20.855-.875-31.027v-.011c-.193-8.71-.393-17.716-.706-26.566l-.1-2.134c-.106-2.248-.209-4.538-.308-6.752l-.006-.131c-.379-8.46-.771-17.207-1.433-25.792-.356-4.622-.759-8.823-1.232-12.843-.531-4.515-1.136-8.687-1.849-12.756-.733-4.628-1.367-9.368-1.938-14.493-.509-4.565-.956-9.33-1.368-14.566-.764-9.726-1.281-19.635-1.782-29.218v-.007c-.1-1.991-.222-4.247-.341-6.469a26.921,26.921,0,0,0-2.082,4.268c-.35.84-.711,1.708-1.118,2.539-5.872,17.251-11.9,34.763-17.738,51.7-8.392,24.364-17.071,49.557-25.42,74.4-9.586,28.493-18.925,57.6-27.957,85.757l0,.008-1.929,6.012a2.262,2.262,0,0,1-.885,1.226,2.312,2.312,0,0,1-1.3.383,2.661,2.661,0,0,1-1.051-.218,30.919,30.919,0,0,1-9.143,1.7,1.067,1.067,0,0,1-1,.692,1.274,1.274,0,0,1-.138-.008,6.818,6.818,0,0,0-.739-.038,18.263,18.263,0,0,0-2.949.335h-.006c-.539.091-1.048.176-1.546.234-1.1.109-2.2.236-3.265.359a80.508,80.508,0,0,1-8.075.656,11.424,11.424,0,0,0-1.814,3.483,36.029,36.029,0,0,0-.993,3.866c-.24,1.1-.488,2.24-.817,3.315a13.568,13.568,0,0,0-.424,1.932,14.9,14.9,0,0,1-.679,2.822,2.423,2.423,0,0,1-1.61,1.676,4.892,4.892,0,0,1,.719,1.962,9.2,9.2,0,0,1,.038,2.176,10.4,10.4,0,0,1,2,.744,3.876,3.876,0,0,0,.68.242h0a1.944,1.944,0,0,1,1.189.678,7.418,7.418,0,0,1,2.869,1.126,6.547,6.547,0,0,1,1.913,2.033,9.33,9.33,0,0,1,1.041,2.564,15.79,15.79,0,0,1,.433,3.06,33.366,33.366,0,0,1-.524,7.039,109.526,109.526,0,0,1-3.555,13.773v0c-.407,1.318-.758,2.457-1.013,3.38a43.175,43.175,0,0,0-2.025,9.552,41.151,41.151,0,0,0,.245,9.759c1.06,1.464,1.085,3.434,1.109,5.34.009.707.017,1.375.077,2.011.034.612.076,1.238.118,1.843v.015c.1,1.487.206,3.025.193,4.528a8.465,8.465,0,0,1-.366,2.319,6.23,6.23,0,0,1-.9,1.8,6.35,6.35,0,0,1-1.342,1.345,8.567,8.567,0,0,1-1.7.969,16.867,16.867,0,0,1-4.106,1.1c-1.468.232-2.992.36-4.465.484-1.58.133-3.073.258-4.366.5-3.442.4-7.211.727-11.524,1-4.759.3-9.172.44-13.491.44-2.69,0-5.354-.059-7.916-.174-2.682-.121-5.339-.308-7.9-.556-2.953-.094-4.974-1.051-6.176-2.926a8.634,8.634,0,0,1-1.149-3.1,20.743,20.743,0,0,1-.3-3.887l-.01-.232A17.658,17.658,0,0,1,.653,568.1a8.816,8.816,0,0,1,1.269-2.584,6.663,6.663,0,0,1,2.184-1.922,10.145,10.145,0,0,1,.8-3,22.352,22.352,0,0,1,1.445-2.8c1.4-2.358,3.037-4.672,4.619-6.91v0a87.617,87.617,0,0,0,5.564-8.564,33.6,33.6,0,0,0,2.1-4.6,25.15,25.15,0,0,0,1.269-4.979,50.981,50.981,0,0,0,.726-6.891v0a60.373,60.373,0,0,1,1.211-10.059,14.9,14.9,0,0,1,1.6-4.15,8.1,8.1,0,0,1,1.219-1.578,6.288,6.288,0,0,1,1.56-1.141,9.556,9.556,0,0,1,1.291-4.184,10.751,10.751,0,0,1,1.276-1.787,9.149,9.149,0,0,1,1.546-1.4,16.255,16.255,0,0,1,1.918-4.67c.377-.7.767-1.431,1.085-2.142,1.042-2.182,2.059-4.415,3.041-6.574l0-.008c.916-2.011,1.862-4.09,2.826-6.121-.636-.269-2.133-1.043-2.306-2.415h-.028a1.962,1.962,0,0,1-1.464-.6,1.593,1.593,0,0,1-.385-1.266,90.189,90.189,0,0,1,1.669-9.6q.1-.468.2-.935l.092-.436c1.739-8.407,3.755-16.918,6.162-26.022,2.145-8.11,4.554-16.506,7.364-25.668,5.222-17.023,11.072-34.166,16.73-50.744l0-.012c4.55-13.332,9.255-27.118,13.6-40.759,2.343-7.348,4.4-14.066,6.283-20.538,2.117-7.269,3.967-14.047,5.657-20.722a2.561,2.561,0,0,1-.454.041,3.2,3.2,0,0,1-1.423-.366,6.182,6.182,0,0,1-1.313-.916,15.754,15.754,0,0,1-2.091-2.382,35.747,35.747,0,0,1-4.56-8.337,44.292,44.292,0,0,1-2.455-9.209l-1.782-.221c-2.371-.291-5.168-.62-7.938-.855-2.926-.249-5.532-.369-7.968-.369-.676,0-1.35.009-2,.028l-1.444.048c-.4.012-.73.018-1.024.018a10.483,10.483,0,0,1-3.713-.559c-.078.007-.157.011-.235.011A2.4,2.4,0,0,1,53,258.816a2.05,2.05,0,0,1-.821-1.254,52.694,52.694,0,0,1-.92-7.053,57.667,57.667,0,0,1,0-6.976,67.56,67.56,0,0,1,.779-6.9c.359-2.192.838-4.488,1.425-6.826,2.271-9.053,5.928-17.962,9.464-26.578l.006-.014c1.181-2.877,2.4-5.853,3.534-8.747a133.112,133.112,0,0,0,4.4-14.988.139.139,0,0,1,.141-.107.158.158,0,0,1,.114.046.133.133,0,0,1,.036.1A55.845,55.845,0,0,1,70.066,188c-.58,2.92-1.325,5.831-1.978,8.331-1.363,5.39-3.19,10.845-4.956,16.12a188.13,188.13,0,0,0-5.815,19.736,71.829,71.829,0,0,0-1.49,10.065c-.124,1.729-.171,3.448-.14,5.108a51.04,51.04,0,0,0,.36,5.169,59.34,59.34,0,0,1,12.033-7.344,57.554,57.554,0,0,1,13.409-4.254c.152-.661.315-1.346.458-1.95.388-1.632.788-3.32,1.107-5-.274-2.256-.5-4.557-.713-6.783l0-.034c-.126-1.3-.257-2.647-.4-3.97a296.956,296.956,0,0,0-5.179-32.1c-2.111-6.273-3.65-11.394-4.841-16.119a113.257,113.257,0,0,1-2.992-16.553l-.2.04c-.424.086-.865.192-1.291.294a15.01,15.01,0,0,1-3.407.547,4.834,4.834,0,0,1-2.831-.824c-1.487-1.031-2.125-2.773-2.688-4.311a13.751,13.751,0,0,1-1.075-3.968,7.429,7.429,0,0,1,.488-3.8,5.394,5.394,0,0,1,3.366-2.935,88.1,88.1,0,0,1-.816-9.42c-.1-3.035-.069-6.235.1-9.512a157.6,157.6,0,0,1,2.24-18.845c.489-3.067,1.154-6.17,1.8-9.17.813-3.792,1.654-7.713,2.147-11.6a54.6,54.6,0,0,0,.448-5.849,39.964,39.964,0,0,0-.3-5.91c-.242-1.636-.519-3.306-.788-4.921A102.458,102.458,0,0,1,64.467,54.5a38.656,38.656,0,0,1,.366-6.822,30.5,30.5,0,0,1,.693-3.369,28.031,28.031,0,0,1,1.115-3.328A38.534,38.534,0,0,1,73.693,29.61,42.126,42.126,0,0,1,78.4,25.1a47.637,47.637,0,0,1,5.321-3.775,59.057,59.057,0,0,1,11.972-5.521,76.741,76.741,0,0,1,12.89-3.093l.281-.083.443-.132a15.144,15.144,0,0,1,4.335-.855,7.307,7.307,0,0,1,1.557.164,15.2,15.2,0,0,1,2.091-3.018,9.736,9.736,0,0,1,7.673-3.282,21.711,21.711,0,0,1,4.606.574c1.577.345,3.218.814,4.806,1.269.982.281,2,.571,3,.833.6-1.768,1.083-3.546,1.475-5.052a6.557,6.557,0,0,0,.181-.962v0A7.7,7.7,0,0,1,139.3.818,1.131,1.131,0,0,1,139.992,0a1.976,1.976,0,0,1,.607,1.21,10.442,10.442,0,0,1,.15,1.554c.009.205.018.4.032.569l.005.064a26.67,26.67,0,0,1-.8,8.734l-.111.435-.066.267-.007.027a6.9,6.9,0,0,1-1.679,3.634A2.018,2.018,0,0,1,136.8,17a1.878,1.878,0,0,1-1.277-.488,1.853,1.853,0,0,1-.588-1.354,5.336,5.336,0,0,1,.579-2.307c-2.784,1.074-5.032,1.927-7.073,2.683a17.575,17.575,0,0,0,2.011,9.693,41.93,41.93,0,0,0,6.654,9.549,70.907,70.907,0,0,0,8.831,8.211c1.485,1.166,2.986,2.253,4.461,3.231,1.428.946,2.8,1.77,4.081,2.448a19.044,19.044,0,0,0,9.24,2.577,15.91,15.91,0,0,0,7.258-1.759,19.836,19.836,0,0,0,5.951-4.73,24.994,24.994,0,0,0,2.371-3.222,28.06,28.06,0,0,0,1.908-3.655,30.147,30.147,0,0,0,1.4-3.987,30.877,30.877,0,0,0,.844-4.215,42.824,42.824,0,0,0,.57-5.923l0-.19c0-.274-.005-.561-.012-.864-.034-1.491-.072-3.18.813-4.309l-.172,0a13.022,13.022,0,0,0-2.057.211l-.016,0,.037.064A3.112,3.112,0,0,1,183,21.074a.854.854,0,0,1-.72.448c-2.852-.3-4.24-5.118-4.985-7.706l-.009-.031-.08-.277-.028-.108a27.733,27.733,0,0,1-.53-5.134,15.516,15.516,0,0,1,.162-2.781c.146-.847.386-1.372.713-1.561a14.786,14.786,0,0,1,.343,2.4h0a13.052,13.052,0,0,0,.446,2.773,14.73,14.73,0,0,0,3.383.629h.005c.277.029.5.052.619.073a11.238,11.238,0,0,1,4.153.814,11.44,11.44,0,0,1,3.308,2.111A16.58,16.58,0,0,1,192.4,15.8a28.994,28.994,0,0,1,2.089,3.69,19.213,19.213,0,0,0,3.14,2.089,25.892,25.892,0,0,0,3.406,1.507,67.99,67.99,0,0,0,7.262,2.047h0c2.05.5,4.171,1.011,6.19,1.674a31.273,31.273,0,0,1,2.97,1.133,22.424,22.424,0,0,1,2.816,1.487,23.81,23.81,0,0,1,2.63,2.222,27.792,27.792,0,0,1,2.368,2.633,37.636,37.636,0,0,1,4.018,6.384,59.653,59.653,0,0,1,3.176,7.674c.894,2.63,1.726,5.565,2.472,8.725,2.888,12.228,4.273,26.672,5.611,40.64v0c.879,9.171,1.709,17.832,2.93,25.842.656,4.3,1.363,8,2.161,11.311.432,1.79.9,3.483,1.382,5.032.509,1.625,1.058,3.15,1.631,4.533a3.386,3.386,0,0,1,1.3-.263,3.73,3.73,0,0,1,2.577,1.1,4.5,4.5,0,0,1,.875,1.181,4.353,4.353,0,0,1,.449,1.424,25.835,25.835,0,0,1,.255,4.489c0,.429,0,.873.005,1.3l.011.238c.015.29.033.592.048.859.141,2.392.287,4.865-1.029,6.282a3.429,3.429,0,0,1-1.336.87,6.267,6.267,0,0,1-2.07.342,20.783,20.783,0,0,0,.277,3.215c.15.943.362,1.947.665,3.159.711,3.1,1.345,6.325,1.886,9.587.519,3.133.968,6.393,1.332,9.688.349,3.152.631,6.432.84,9.748.2,3.154.336,6.44.41,9.766l.014.956c.09,6.507-.033,12.186-.367,16.881a62.419,62.419,0,0,1-1.128,8.767,16.566,16.566,0,0,1-.965,3.112,3.934,3.934,0,0,1-1.294,1.749l.183,1.491c.413,3.385.875,7.322,1.124,11.213a6.243,6.243,0,0,1-.131,2.391,5.886,5.886,0,0,1-1.068,2.384,1.919,1.919,0,0,1-1.484.8,1.988,1.988,0,0,1-.845-.2c-1.17.289-2.355.617-3.5.935-1.783.494-3.627,1-5.463,1.382a27.846,27.846,0,0,1-5.577.635c.38,12.625.614,26.434.716,42.216.091,14.083.071,28.392.052,42.229v.014c-.017,11.92-.034,24.246.02,36.366-.154,11.822.011,23.88.171,35.542.12,8.812.245,17.924.231,26.872-.015,10.033-.207,18.791-.586,26.776l.051.417a22.4,22.4,0,0,1,.188,2.389,6.813,6.813,0,0,1-.261,2.1,3.771,3.771,0,0,1-1.055,1.693,5.423,5.423,0,0,1-2.194,1.16,1.315,1.315,0,0,1-.454.94,1.819,1.819,0,0,1-.968.4c-1.991.268-4.057.533-6.314.81-.621.046-1.268.128-1.894.207a24.311,24.311,0,0,1-3.011.256,9.337,9.337,0,0,1-1.112-.062c.037.037.049.07.037.1s-.094.07-.193.07-.2-.027-.224-.087a34.323,34.323,0,0,0-1.874,6.949c-.409,2.386-.653,4.851-.868,7.173a10.676,10.676,0,0,1,2.86,1.606,8.667,8.667,0,0,1,2.019,2.274,8.355,8.355,0,0,1,1.075,2.836,9.925,9.925,0,0,1,.028,3.294,6.448,6.448,0,0,1,3.032.924,9.267,9.267,0,0,1,2.459,2.167,12.651,12.651,0,0,1,1.755,2.9,12.52,12.52,0,0,1,.92,3.125,33.934,33.934,0,0,1,.048,6.663c-.034.583-.07,1.186-.1,1.786a52.609,52.609,0,0,0,.96,14.617,35.4,35.4,0,0,0,2.273,6.92,28.726,28.726,0,0,0,3.817,6.23c.963,1.15,2.015,2.3,3.033,3.4l0,0h0a64.133,64.133,0,0,1,4.765,5.607,24.341,24.341,0,0,1,1.925,3.086,17.738,17.738,0,0,1,1.358,3.406,1.93,1.93,0,0,1,1.047,1.334l1.12,4.4.557,2.2a22.7,22.7,0,0,1,.511,2.43,9.115,9.115,0,0,1,.041,2.472l-.023.161a3.776,3.776,0,0,1-.66,1.766,5.678,5.678,0,0,1-1.5,1.441,15.664,15.664,0,0,1-5.118,2.016,48.768,48.768,0,0,1-7.217,1.047C233.6,584.747,230.758,584.848,227.638,584.848Zm-33.628-6.977c3.7.4,7.69.812,11.731,1.177l1.468.13c7.453.665,13.529.974,19.119.974h0a118.343,118.343,0,0,0,15.85-.987l.483-.066c.215-.031.473-.053.747-.077a5.091,5.091,0,0,0,2.784-.75,2.462,2.462,0,0,0,.351-1.737,12.7,12.7,0,0,0-.423-2.039h0c-.123-.467-.24-.908-.3-1.285-6.106-.071-12.309-.2-18.309-.317h-.005c-9.237-.186-18.789-.378-28.183-.378-2.7,0-5.333.016-7.818.048h-.017a2.469,2.469,0,0,1-1.907-.8,2.961,2.961,0,0,1-.665-2.3,4,4,0,0,1-.6-.495l-.022.427a21.48,21.48,0,0,0,.086,4.028,5.35,5.35,0,0,0,1.294,3.021,5.606,5.606,0,0,0,4.263,1.427ZM4.625,566.672a16.357,16.357,0,0,0-.606,4.607,29.421,29.421,0,0,0,.438,4.61c.12,1.567.537,2.488,1.353,2.985a6.9,6.9,0,0,0,3.283.582c4.892.451,10.083.68,15.428.68,5.586,0,11.385-.239,17.728-.729,1.964-.212,3.98-.353,5.929-.489h0a79.252,79.252,0,0,0,11.85-1.431,2.559,2.559,0,0,0,1.115-.907,3.062,3.062,0,0,0,.465-1.282,11.586,11.586,0,0,0-.14-3.088,13.509,13.509,0,0,1-.176-2.171,37.288,37.288,0,0,1-11.461,4.768,54.962,54.962,0,0,1-12.905,1.451,71.328,71.328,0,0,1-22.566-3.747l-.227-.1c-.674-.283-1.371-.54-2.109-.812h0A27.137,27.137,0,0,1,7.8,569.772,9.588,9.588,0,0,1,6,568.454,6.964,6.964,0,0,1,4.625,566.672ZM26.2,510.189A7.388,7.388,0,0,0,24.92,513.9a36.4,36.4,0,0,0-.294,3.989v.044c0,.15-.009.28-.014.4l-.008.183c-.088,1.807-.124,3.647-.158,5.427v0c-.031,1.6-.062,3.261-.133,4.894a33.013,33.013,0,0,1-.71,7.22,32.881,32.881,0,0,1-2,6.208,73.635,73.635,0,0,1-6.345,11.044l0,0c-1.818,2.784-3.7,5.663-5.411,8.877a2.575,2.575,0,0,0-.494,2.088c.277.826,1.3,1.24,2.383,1.679.28.113.6.242.894.377a56.349,56.349,0,0,0,11.744,3.948,57.93,57.93,0,0,0,12.33,1.33h0a56.951,56.951,0,0,0,9.091-.729,54.544,54.544,0,0,0,8.846-2.2c2.778-.807,4.361-2.089,4.983-4.035a8.563,8.563,0,0,0,.323-2.911c-.033-1.052-.173-2.177-.321-3.367v0c-.077-.615-.156-1.25-.222-1.9a32.955,32.955,0,0,1,.16-5.171,44.857,44.857,0,0,1,.849-5.053c.744-3.338,1.813-6.68,2.846-9.912a89.435,89.435,0,0,0,3.414-12.844l.048-.288a29.97,29.97,0,0,0,.423-4.807c-.014-2.139-.386-3.652-1.1-4.5A2.195,2.195,0,0,0,64.3,513.1a4.111,4.111,0,0,0-1.32.248,1.556,1.556,0,0,1-.819.25,1.415,1.415,0,0,1-1.012-.447,1.831,1.831,0,0,1-.5-1.049,2.793,2.793,0,0,1-.407.037c-.279,1.725-.568,3.478-.847,5.173l-.009.053c-.319,1.936-.648,3.937-.968,5.921a8.373,8.373,0,0,1,1.395,1.1.912.912,0,0,1,.161.991.766.766,0,0,1-.708.511l-.066,0a11.624,11.624,0,0,1-1.171-.167,1.9,1.9,0,0,1-.624,1.329,1.834,1.834,0,0,1-1.2.4,2.591,2.591,0,0,1-2.175-1.165,1.654,1.654,0,0,1,.045-1.74,35.757,35.757,0,0,0-11.7-1.886,44.836,44.836,0,0,0-11.3,1.494l-.031.013c-.125.05-.415.127-.781.224-1.067.284-2.85.76-2.893,1.2-.01.1.079.2.264.292.093.011.143.043.141.088-.006.091-.214.207-.44.207-.192,0-.53-.081-.638-.627-.023-.458.292-.879.964-1.29a12.733,12.733,0,0,1,1.986-.894h0a9.172,9.172,0,0,0,1.212-.523,25.018,25.018,0,0,1-1.723-2.868,28.284,28.284,0,0,1-2.371-6.448,25.712,25.712,0,0,1-.557-3.338Zm158.016.7h0a15.531,15.531,0,0,0-1.524.982,45.981,45.981,0,0,0-1.786,9.984,35.794,35.794,0,0,0,.758,10.083l.054.234a33.27,33.27,0,0,0,1.651,5.127c.671,1.662,1.445,3.314,2.193,4.912.986,2.106,2.006,4.284,2.8,6.5a29.5,29.5,0,0,1,1,3.385,22.217,22.217,0,0,1,.524,3.554c.108,1.02.178,2.062.246,3.07a33.594,33.594,0,0,0,1.035,7.309,1.859,1.859,0,0,1,1.283,1.068l3.25,0c9.256.016,16.743.071,23.562.175,8.558.13,16.262.34,23.554.64-.465-4.06-3.792-7.692-6.464-10.61-.224-.245-.456-.5-.682-.747a36.993,36.993,0,0,1-5.415-7.107,39.613,39.613,0,0,1-3.6-8.124,42.092,42.092,0,0,1-1.761-8.746,43.125,43.125,0,0,1,.1-8.972c.12-.979.307-2.039.506-3.161.254-1.435.517-2.919.666-4.392a16.621,16.621,0,0,0-.029-4.252,8.472,8.472,0,0,0-.517-1.892,6.273,6.273,0,0,0-.98-1.639,6.185,6.185,0,0,0-1.54-1.313,8.494,8.494,0,0,0-2.2-.915c-.218,1.785-.469,3.6-.712,5.35v.008c-.419,3.026-.851,6.155-1.133,9.248a1.975,1.975,0,0,1,.882.8,1.341,1.341,0,0,1,.16.95,1.072,1.072,0,0,1-.442.648,1.69,1.69,0,0,1-.983.266h-.054a2.722,2.722,0,0,1-.719,1.259,1.4,1.4,0,0,1-.953.392,1.527,1.527,0,0,1-1.133-.547,2.267,2.267,0,0,1-.474-.88,3.087,3.087,0,0,1-.088-1.211c-2.231-.824-4.84-1.751-7.278-2.374a25.4,25.4,0,0,0-6.4-.895,20.228,20.228,0,0,0-5.981.917,33.023,33.023,0,0,0-6.709,3.007.05.05,0,0,1-.044-.031c-.052-.138.409-.686.714-1.049.114-.136.2-.243.238-.294a14.183,14.183,0,0,1,2.678-2.239,16.75,16.75,0,0,1,3.13-1.581,20.109,20.109,0,0,1,6.861-1.288,23.358,23.358,0,0,1,5.486.721c1.8.432,3.593,1.017,5.33,1.582.753.245,1.533.5,2.306.738.471-3.37.836-6.812,1.189-10.14.13-1.223.264-2.487.4-3.738l.111-.991a9.156,9.156,0,0,0-.091-3.3,4,4,0,0,0-.661-1.37,4.71,4.71,0,0,0-1.291-1.158,18.556,18.556,0,0,0-2.773-1.215,21.667,21.667,0,0,0-2.9-.773,31.3,31.3,0,0,0-6.041-.526c-2.924,0-5.882.289-8.742.569h-.005l-.018,0c-.843.082-1.715.168-2.556.242l-.317.036-.42.044h0a13.6,13.6,0,0,0-2.919.516,3.308,3.308,0,0,0-2.133,1.75,10.891,10.891,0,0,0-.218,5.164c.26,2.027.744,4.169,1.172,6.059.212.94.413,1.827.549,2.549l.226.924A43.081,43.081,0,0,1,189.413,521a.107.107,0,0,1-.031.082.144.144,0,0,1-.1.044c-2.493-2.664-3.694-6.2-4.855-9.627l-.207-.61ZM41.826,502.672a24.307,24.307,0,0,0-4.161.328,13.226,13.226,0,0,0-3.615,1.132,7.764,7.764,0,0,0-2.707,2.16A7.493,7.493,0,0,0,29.9,509.7a15.119,15.119,0,0,0-.009,3.6c.124,1.193.348,2.4.564,3.57a27.607,27.607,0,0,1,.657,5.869,33.956,33.956,0,0,1,12.86-2.423,43.028,43.028,0,0,1,10.758,1.418c.277-1.809.553-3.649.82-5.429l.007-.044c.4-2.648.809-5.385,1.23-8.082l.114-.54a3.059,3.059,0,0,0-.083-2.282,2.176,2.176,0,0,0-1.524-.77l-.432-.1A58.007,58.007,0,0,0,41.826,502.672Zm.764-4.077a51.137,51.137,0,0,1,15.118,2.466,15.938,15.938,0,0,1,1.152-4.54l0-.007c.142-.4.276-.768.4-1.142a77.592,77.592,0,0,1,4.24-9.965l.206-.4c.122-.237.245-.481.364-.716l.006-.012c.459-.907.933-1.844,1.482-2.708-2.428-.332-4.9-.658-7.284-.974l-.023,0c-5-.661-10.167-1.344-15.244-2.113a2.171,2.171,0,0,1-.7,1.8c-.646,2.651-1.489,5.476-2.576,8.638-.972,2.826-2.052,5.677-3.1,8.435-.218.574-.449,1.186-.677,1.788A40.651,40.651,0,0,1,42.59,498.594Zm160.276-6.132a38.818,38.818,0,0,1,9.707,1.1,30.228,30.228,0,0,1,.092-8.059,53.379,53.379,0,0,1,1.761-7.835c-1.832-.042-3.69-.069-5.486-.1h-.007c-4.722-.069-9.6-.141-14.439-.49l-.2.909c-.08.365-.158.723-.244,1.119a100.939,100.939,0,0,1-2.723,10.626l-.018.079c-.043.211-.1.584-.159,1.015h0a7.155,7.155,0,0,1-.521,2.377c-.092,0-.172-.374-.237-1.112-.218.483-.449.957-.687,1.408l1.863-.222A97.816,97.816,0,0,1,202.866,492.462ZM68.394,483.9c-.274.258-.506.489-.709.707.353-.091.647-.163.9-.222a.734.734,0,0,0-.1-.291A1.109,1.109,0,0,1,68.394,483.9Zm150.057-5.025-.217.51a3.121,3.121,0,0,1,.37-.187A1.635,1.635,0,0,1,218.451,478.872ZM38.9,477.754c-.017.062-.033.127-.049.19a3.035,3.035,0,0,1-.231.689c.12.021.235.044.341.067.145-.293.29-.562.443-.822l-.014,0h0C39.223,477.835,39.058,477.8,38.9,477.754Zm59.723-217.4h0a11.487,11.487,0,0,1,.844,4.241,22.034,22.034,0,0,0,.3,2.568l.018.122c.178,1.192,1.016,5.692,2.031,9.752a49.173,49.173,0,0,0,1.695,5.636c.644,1.651,1.223,2.488,1.722,2.489a.581.581,0,0,0,.422-.217,4.205,4.205,0,0,0,.35-2.224V282.7c0-.163,0-.316,0-.455l0-.076c.031-1.029.026-2.131-.017-3.368-.049-1.361-.132-2.75-.213-4.092-.157-2.609-.318-5.305-.238-7.941a34.3,34.3,0,0,1,.33-3.933,24.9,24.9,0,0,1,.87-3.876,1.211,1.211,0,0,1,.512-.658,1.472,1.472,0,0,1,.791-.234,1.136,1.136,0,0,1,.689.215,1.045,1.045,0,0,1,.392.678c.878,5.115,1.732,10.315,2.556,15.343l.024.148c.159.813.278,1.668.392,2.494.336,2.418.682,4.919,2.077,6.94.019-5.264-.241-10.6-.493-15.77v0l0-.04c-.032-.651-.065-1.324-.1-1.986l-.076-.247a2.6,2.6,0,0,1,.069-2.358,1.084,1.084,0,0,1,.388-.7,1.117,1.117,0,0,1,.693-.23,1.269,1.269,0,0,1,1.271,1.154c.028.229.051.464.073.692v.009q.009.1.019.193c.123.155.247.312.355.451a15.388,15.388,0,0,0,1.683,1.917,9.45,9.45,0,0,0,.819-2.573,12.334,12.334,0,0,0,.132-2.808,22.669,22.669,0,0,0-1.393-6.168,97.008,97.008,0,0,0-6.591-13.468c-1.592-2.882-3.1-5.6-4.356-8.256-.678-1.426-1.218-2.69-1.651-3.865a23.406,23.406,0,0,1-1.041-3.591c-.711-2.4-1.331-4.906-1.842-7.443-.486-2.417-.89-4.942-1.2-7.506a124.63,124.63,0,0,1-.84-15.15c0-4.548.208-9.535.623-15.245.37-5.085.868-10.244,1.349-15.233h0c.337-3.5.686-7.111.986-10.654a61.267,61.267,0,0,0-6.236-.342,5.637,5.637,0,0,1-2.333.453c-3.836.159-7.68.465-11.425.908-3.813.452-7.622,1.058-11.322,1.8a51.188,51.188,0,0,0,1.419,8.625c.691,2.838,1.555,5.679,2.39,8.426l.207.682.364,1.268c1.721,6.012,3.063,11,4.224,15.708,1.416,5.74,2.538,10.964,3.428,15.972A144.416,144.416,0,0,1,86.186,240.9a1.529,1.529,0,0,1,.145.067l.023.012c-.046.13-.087.264-.126.393s-.083.273-.132.408l-.061.157-.356.885c-.187.466-.383.969-.554,1.49a5.313,5.313,0,0,1-.991.231,55,55,0,0,0-.622,8.788,47.1,47.1,0,0,0,.906,8.814,37.773,37.773,0,0,0,2.694,8.345,31.162,31.162,0,0,0,4.743,7.38,33.992,33.992,0,0,1-2.905-8.865,45.944,45.944,0,0,1-.726-9.331l.022-.951a12.5,12.5,0,0,1,.461-3.465.05.05,0,0,1,.051-.041.067.067,0,0,1,.061.041,54.489,54.489,0,0,1,1.717,7.972,56.082,56.082,0,0,0,1.667,7.826l.124.395a34.006,34.006,0,0,0,2.662,6.382,16.619,16.619,0,0,0,1.983,2.844,9.741,9.741,0,0,0,2.509,2.078,3.568,3.568,0,0,0,.7.1h0c.566.049,1.151.1,1.4.649l.024.057.022-.007a73.875,73.875,0,0,1-3.1-16.771L98.5,266.4c-.017-.288-.037-.585-.057-.872l0-.033a16.43,16.43,0,0,1,.179-5.143Zm93.55-220.811a44.217,44.217,0,0,0-1.032,6.655,61.408,61.408,0,0,0-.152,6.757c.128,4.464.64,8.922,1.2,13.476,1.105,7.081,1.893,12.975,2.48,18.55.7,6.7,1.1,12.809,1.208,18.674l.011.67a624.4,624.4,0,0,0,4.58,63.825c1.164,9.83,2.56,20.194,4.267,31.685,1.354,9.113,2.93,19.113,4.96,31.47a62.424,62.424,0,0,1,6.894,1.527c2.131.593,4.322,1.306,6.7,2.18,4.413,1.621,8.8,3.559,13.041,5.433h0c1.473.651,3,1.323,4.507,1.977a37.315,37.315,0,0,0,5.4,1.7c-.63-5.875-1.487-11.83-2.62-18.206-1.009-5.679-2.215-11.562-3.687-17.985-2.735-11.933-6-23.966-9.154-35.6v0c-2.959-10.912-6.019-22.195-8.637-33.373-1.41-6.018-2.583-11.527-3.586-16.841-1.126-5.965-2.011-11.533-2.706-17.024-.4-3.113-.7-6.221-.89-9.238-.2-3.126-.284-6.243-.256-9.267.029-3.125.18-6.238.449-9.253.278-3.111.69-6.206,1.225-9.2a.156.156,0,0,1,.161-.143.22.22,0,0,1,.221.195c.153,3.2.565,6.433.963,9.557v.007c.225,1.764.457,3.588.641,5.387a58.341,58.341,0,0,1,1.376-6.757c.137-.561.28-1.141.413-1.707.2-.663.36-1.42.533-2.221.525-2.423,1.12-5.17,2.859-6.479l.146-.5a.158.158,0,0,1,.157-.124.188.188,0,0,1,.145.068.166.166,0,0,1,.029.147l-.014.061v0c-.019.08-.038.162-.056.244a.848.848,0,0,1,.612.453c.222.52-.223,1.323-.581,1.969-.118.213-.23.415-.3.579a80.4,80.4,0,0,0-3.214,12.791C220,84,219.529,86.433,218.95,88.78c.574,5.018,1.282,10.2,2.1,15.393.787,4.972,1.705,10.116,2.727,15.29.972,4.919,2.07,10.027,3.265,15.181,1.126,4.86,2.377,9.929,3.718,15.068,3.442-.909,6.942-1.806,10.327-2.674,1.341-.344,2.727-.7,4.092-1.051-1.113-3.633-2.071-7.383-2.929-11.464-.764-3.637-1.431-7.455-2.037-11.675-1.127-7.837-1.87-15.894-2.588-23.687h0c-.472-5.124-.96-10.423-1.553-15.6-.665-5.809-1.394-10.854-2.229-15.421a136.864,136.864,0,0,0-3.581-15.072c-.763-2.525-1.607-5-2.509-7.353-.946-2.469-1.989-4.893-3.1-7.2a16.99,16.99,0,0,0-1.438-2.24,16.81,16.81,0,0,0-1.679-1.891,19.9,19.9,0,0,0-3.948-2.935,53.817,53.817,0,0,0-9.3-3.881c-2.319-.8-4.716-1.634-6.938-2.661a28.309,28.309,0,0,1-3.213-1.723,20.022,20.022,0,0,1-2.9-2.191,99.015,99.015,0,0,1,4.721,11.187,110.6,110.6,0,0,1,3.388,11.672,2.227,2.227,0,0,1-.416,1.929,2.413,2.413,0,0,1-.826.659,2.332,2.332,0,0,1-1.014.239,2.039,2.039,0,0,1-1.773-1.027l-.04-.066a15.58,15.58,0,0,0-3.018-3.688A11.077,11.077,0,0,0,192.169,39.538ZM104.776,155.256c-.219,5.671-.684,11.535-1.133,17.205-.418,5.269-.849,10.717-1.092,16.075-.131,2.885-.2,5.508-.2,8.019-.007,2.821.062,5.426.21,7.966.159,2.73.416,5.382.762,7.883.371,2.678.86,5.292,1.453,7.768a70.2,70.2,0,0,0,2.283,7.623,64.627,64.627,0,0,0,3.252,7.447h.128a30.36,30.36,0,0,0,5.525-.562c1.825-.337,3.664-.794,5.444-1.235,1.515-.376,3.081-.765,4.626-1.076l.284-.056.007,0a7.855,7.855,0,0,0,1.242-3.779c.331-9.319.036-18.8-.249-27.976h0c-.171-5.51-.348-11.207-.388-16.811-.044-6.284.093-11.78.419-16.8.517-7.213,1.393-14.533,2.241-21.612v0c.914-7.633,1.859-15.526,2.355-23.306.267-4.188.387-8.01.367-11.686-.023-4.125-.222-7.96-.606-11.724-.4-5.064-1.014-10.579-1.876-16.861-.769-5.606-1.659-11.285-2.52-16.777-1.4-8.96-2.857-18.225-3.82-27.4l-.109-1.057c-.018-.167-.034-.34-.05-.507V36a7.049,7.049,0,0,0-.755-3.1,40.927,40.927,0,0,0-4.956,5.408,38.092,38.092,0,0,0-3.873,6.246,2.244,2.244,0,0,1-1.993,1.187,2.557,2.557,0,0,1-1.69-.65,2.376,2.376,0,0,1-.566-.76,2.462,2.462,0,0,1-.229-1c-.237-2.2-.365-4.377-.381-6.465A55.947,55.947,0,0,1,109.2,30.4l.043-.38a44.569,44.569,0,0,1,1.608-7.9,54.6,54.6,0,0,1,2.891-7.531c-.1-.005-.208-.008-.315-.008a13.755,13.755,0,0,0-4.043.863,21.723,21.723,0,0,1-2.4.669c-.6.116-1.2.229-1.791.338l-.019,0a61.291,61.291,0,0,0-6.7,1.51,50.272,50.272,0,0,0-10.487,4.2,45.839,45.839,0,0,0-9.293,6.56A37.36,37.36,0,0,0,71.6,37.447a31.159,31.159,0,0,0-4.3,15.272,42.8,42.8,0,0,0,.16,4.549c.257,3.027.779,6.095,1.284,9.061.373,2.192.759,4.459,1.035,6.7a48.971,48.971,0,0,1,.417,6.731,72.8,72.8,0,0,1-1.052,9.151c-.522,3.027-1.183,6.088-1.823,9.047-.9,4.184-1.839,8.51-2.4,12.817A136.15,136.15,0,0,0,63.4,126.983c-.086,2.778-.071,5.525.044,8.165.12,2.762.353,5.483.691,8.087a81.722,81.722,0,0,1,11.76-2.407,92.855,92.855,0,0,1,11.937-.755c2.576,0,5.232.1,7.9.3,2.573.193,5.223.484,7.876.864-.211-3.112-.335-6.29-.38-9.715-.04-3.052-.015-6.233.076-9.726.169-6.487.546-13.078.911-19.452.184-3.208.373-6.524.534-9.785.135-2.44.294-4.914.448-7.307.253-3.923.514-7.98.674-11.978.179-4.48.208-8.4.088-11.979a.182.182,0,0,1,.052-.136.238.238,0,0,1,.169-.068.173.173,0,0,1,.183.148c.728,3.917,1.264,7.925,1.639,12.256.334,3.859.532,7.884.6,12.307.134,8.217-.2,16.591-.516,24.689v0c-.2,4.947-.4,10.062-.491,15.085-.126,2.688-.023,5.432.077,8.086v0c.1,2.695.206,5.482.069,8.2a5.878,5.878,0,0,1,4.159,3.016,7.679,7.679,0,0,1,.767,2.3,11.461,11.461,0,0,1,.138,2.56,16.315,16.315,0,0,1-1.12,5.038,1.194,1.194,0,0,1-1.32.888,6.379,6.379,0,0,1-.942-.1l-.058-.009a1.386,1.386,0,0,1-1.063.384,7.427,7.427,0,0,1-1.822-.347l-.067-.019A6.777,6.777,0,0,0,104.776,155.256Zm129.5,7.873.47,1.768c.721,2.705,1.48,5.529,2.149,8.019v0c2.449,9.114,4.982,18.539,7.238,27.865,1.215,5.02,2.255,9.612,3.18,14.037,1.038,4.966,1.9,9.6,2.65,14.153l.129-2.035c.117-1.85.248-4,.331-6.112.242-4.7.346-9.478.317-14.621-.026-4.609-.16-9.387-.407-14.609-.453-9.571-1.2-18.874-2.062-29.173-1.488.079-3,.187-4.454.291-2.875.206-5.847.418-8.773.418C234.788,163.135,234.529,163.133,234.275,163.13ZM126.948,27.074h0c.02.879.064,1.766.132,2.637,1.661,2.5,1.927,5.62,2.183,8.64.078.913.151,1.775.261,2.628.877,6.529,1.906,13.16,2.9,19.573v.011c1.036,6.675,2.107,13.578,3.011,20.388,1.014,7.642,1.7,14.35,2.111,20.508.3,3.911.421,7.9.371,12.184-.045,3.83-.228,7.807-.558,12.158-.635,8.369-1.724,16.789-2.685,24.217v0a233.006,233.006,0,0,0-2.038,27.765c-.185,9.565.052,19.042.336,27.859a33.424,33.424,0,0,1,3.252-2.6,37.26,37.26,0,0,1,3.489-2.163,48.24,48.24,0,0,1,7.528-3.273,128.6,128.6,0,0,1,16.126-4.022l.008,0c1.965-.4,4-.816,5.947-1.251l.592-.121c2.609-.535,4.949-1.081,7.156-1.669,2.525-.672,4.82-1.384,7.017-2.175a64.446,64.446,0,0,0,6.747-2.856,51.805,51.805,0,0,0,6.346-3.712c-.7-4.994-1.308-10.1-1.869-15.609-.5-4.91-.948-10.027-1.37-15.646-.784-10.442-1.356-21.071-1.908-31.351-.563-10.468-1.145-21.292-1.952-31.923-.434-5.721-.9-10.931-1.415-15.926-.581-5.606-1.216-10.8-1.942-15.884-.1-1.787-.147-3.41-.146-4.959,0-1.756.066-3.377.2-4.957-.229-3.114-.34-6.527-.348-10.739a30.544,30.544,0,0,1-1.241,3.867,31.464,31.464,0,0,1-1.762,3.72,29,29,0,0,1-4.933,6.547,22.906,22.906,0,0,1-6.556,4.6,18.845,18.845,0,0,1-7.872,1.735h-.008c-.179,0-.356,0-.541-.008a25.2,25.2,0,0,1-4.5-.687,29.466,29.466,0,0,1-4.324-1.435,36.657,36.657,0,0,1-4.137-2.058c-1.294-.745-2.621-1.6-3.944-2.554a70.025,70.025,0,0,1-7.282-6.092c-2.541-2.4-4.887-4.9-6.431-6.563a46.049,46.049,0,0,1-5.948-8.809ZM234.083,162.418l.034.121c.12-.024.242-.046.345-.064l.173-.03Zm15.5-14.32c-.047,0-.1,0-.162,0a2.03,2.03,0,0,1-1.281,1.157l-4.672,1.265c-4.35,1.177-8,2.159-11.691,3.124.627,2.424,1.278,4.907,1.991,7.59a43.75,43.75,0,0,1,9.7-1.575,61.286,61.286,0,0,0,6.935-.865c-.031-1.344-.081-2.7-.13-4.015v-.014c-.058-1.559-.118-3.171-.145-4.755,0-.11,0-.237,0-.37v-.008a2.719,2.719,0,0,0-.162-1.3c-.078-.14-.077-.182-.076-.2s0-.007-.01-.008a.381.381,0,0,1-.063-.015A.874.874,0,0,0,249.585,148.1ZM71.109,157.955l-.146.032c.047.127.091.259.134.4v-.025C71.1,158.23,71.1,158.093,71.109,157.955Zm13.354-15.821c-3.118,0-6.161.144-9.045.429-5.167.7-9.473,1.335-13.7,2.135a4.527,4.527,0,0,0-.6,2.334,11.4,11.4,0,0,0,.342,2.928,10.693,10.693,0,0,0,2.365,4.847,1.1,1.1,0,0,0,.39.062,4.771,4.771,0,0,0,1.27-.263h0c.175-.053.341-.1.478-.133,4.088-.928,8.346-1.706,12.654-2.312a.6.6,0,0,0,.479.244l.061,0,.975-.09c3.877-.355,8.465-.718,13.1-.718,1.562,0,3.086.042,4.528.124l.044.034c2.621.192,5.276.537,7.844.871h.01c1.31.17,2.664.346,3.995.5a12.107,12.107,0,0,0,.828-3.818,5.744,5.744,0,0,0-.764-3.306,4.878,4.878,0,0,0-3.982-2.1A145.7,145.7,0,0,0,84.463,142.134ZM191.6,34.909a11.2,11.2,0,0,1,5.28,1.879c-1.346-4.5-2.99-9.164-4.889-13.851l-.348-.884c-1.5-3.793-3.1-7.406-6.129-9.916-.855-.225-1.711-.384-2.538-.539a19.649,19.649,0,0,1-4.294-1.143,27.269,27.269,0,0,0,1.432,3.845,2.085,2.085,0,0,1,.558-.071,2.11,2.11,0,0,1,1.324.421l.189-.034c.247-.047.511-.1.744-.155h0c.255-.055.475-.1.561-.113a7.212,7.212,0,0,1,.99-.072,4.973,4.973,0,0,1,1.874.34,4.23,4.23,0,0,1,1.407.939,6.331,6.331,0,0,1,1.381,2.258,13.6,13.6,0,0,1,.7,2.9,42.906,42.906,0,0,1,.285,6.059V26.8c0,.363,0,.7,0,1.028.042,2.32.091,4.809.165,7.285A4.013,4.013,0,0,1,191.6,34.909ZM123.741,7.459h0a6.073,6.073,0,0,0-1.579.2,5.712,5.712,0,0,0-1.375.574,7.518,7.518,0,0,0-2.223,2.047,15.317,15.317,0,0,0-1.667,2.892c-.421.924-.83,1.976-1.286,3.313a41.6,41.6,0,0,0-2.156,9.348,56.427,56.427,0,0,0-.252,9.69l.224-.3c.192-.258.389-.526.6-.809l.015-.02a34.11,34.11,0,0,1,3.9-4.682c1.725-1.624,3.354-2.414,4.979-2.414a5.025,5.025,0,0,1,.96.093,39.6,39.6,0,0,1,.521-7.814,18.193,18.193,0,0,1-.156-5.042,1.67,1.67,0,0,1,.966-1.556,5.9,5.9,0,0,1,1.917-.4c.362-.037.7-.071,1.018-.134a5.132,5.132,0,0,1,2.841-.92,4.5,4.5,0,0,1,1.632.31c1.243-.166,2.492-.325,3.594-.465.171-.378.308-.749.454-1.142l.033-.089c-2.471-.513-4.982-1.048-7.411-1.564l-.067-.014-.08-.017-2.384-.507a8.993,8.993,0,0,0-3.009-.579ZM35.862,562.852a8.648,8.648,0,0,1-1.057-.042,64.441,64.441,0,0,1-7.172-.6A50.322,50.322,0,0,1,20.6,560.7l-.322-.1c-.468-.13-1.383-.395-2.263-.7-1.3-.46-1.987-.826-2.028-1.088a.189.189,0,0,1,.108-.187c1.826.162,3.667.378,5.448.586a95.988,95.988,0,0,0,11.137.864c.726,0,1.443-.016,2.13-.049a72.96,72.96,0,0,0,9.5-.768c1.585-.243,3.15-.538,4.653-.877.285-.063.578-.136.836-.2a10.555,10.555,0,0,1,2.545-.418,4.787,4.787,0,0,1,1.065.116c.692.52.963,1.018.808,1.482-.2.591-1.09,1.137-2.65,1.621a34.939,34.939,0,0,1-5.305,1.079A86.681,86.681,0,0,1,35.862,562.852Zm184.12-3.764c-2.207-.007-4.357-.107-6.389-.3a56.467,56.467,0,0,1-6.382-.951,44.314,44.314,0,0,1-6.182-1.763,35.669,35.669,0,0,1-5.787-2.731c-.124-.186-.162-.326-.112-.418s.183-.136.4-.136a13.215,13.215,0,0,1,2.88.7h0a8.6,8.6,0,0,0,1.3.357A74.051,74.051,0,0,0,211.9,555.9c1.709.13,3.433.2,5.124.2,1.061,0,2.13-.026,3.178-.077,1.453-.051,2.919-.22,4.336-.385.576-.067,1.17-.136,1.763-.2l.073,0,.1,0c.855,0,2.185.358,2.458,1.031.137.338,0,.713-.421,1.114-1.72,1.334-4.035,1.376-6.275,1.418C221.445,559.005,220.7,559.019,219.982,559.087ZM49.613,547.016a2.326,2.326,0,0,1-.362-.029c-2.582-.628-4.931-1.092-7.18-1.418a51.326,51.326,0,0,0-7.313-.56,38.1,38.1,0,0,0-5.551.393,31.594,31.594,0,0,0-5.442,1.295.111.111,0,0,1-.037.006.13.13,0,0,1-.118-.109.109.109,0,0,1,.06-.128,41.406,41.406,0,0,1,6.293-2.55,34.342,34.342,0,0,1,6.644-1.369,26.27,26.27,0,0,1,3.8-.214,37.444,37.444,0,0,1,6.188.466,13.411,13.411,0,0,1,2.636.7,3.716,3.716,0,0,1,1.65,1.118,1.54,1.54,0,0,1,.21,1.454A1.5,1.5,0,0,1,49.613,547.016Zm148.913-3.941a1.283,1.283,0,0,1-1.059-.611.258.258,0,0,1,.09-.35,31.351,31.351,0,0,1,6.24-2.45,34.932,34.932,0,0,1,6.606-1.137c.867-.066,1.786-.1,2.73-.1,1.19,0,2.447.051,3.843.156l.9.07a13.1,13.1,0,0,1,2.746.437l.175.056a5.31,5.31,0,0,1,1.6.949,2.448,2.448,0,0,1,1,1.486c.029.417-.222.756-.745,1.009a5.57,5.57,0,0,1-1.741.273,11.837,11.837,0,0,1-3.3-.631c-.377-.109-.766-.222-1.162-.324a32.636,32.636,0,0,0-7.509-.843,44.578,44.578,0,0,0-10.535,1.351l.828.266a.045.045,0,0,1,.027-.009.063.063,0,0,1,.055.043.049.049,0,0,1-.013.057A1.163,1.163,0,0,1,198.526,543.076ZM52.267,540.13a10.59,10.59,0,0,1-3.647-.951c-.6-.233-1.167-.453-1.71-.607a40.3,40.3,0,0,0-10.642-1.4,42.947,42.947,0,0,0-7.837.725.065.065,0,0,1-.014.055c-.075.093-.412.1-.709.111a2.091,2.091,0,0,0-.462.041h-.012a3.208,3.208,0,0,0-.459.082l-.056.012-.1.021a4.335,4.335,0,0,1-.784.116c-.148,0-.235-.028-.264-.085s0-.135.077-.242A36.816,36.816,0,0,1,40.6,535.156a56.606,56.606,0,0,1,6.693.414l.512.062c.2.024.406.046.621.069h.009a16.89,16.89,0,0,1,3.271.576,4.381,4.381,0,0,1,2.546,1.826,1.133,1.133,0,0,1,.109.982,1.4,1.4,0,0,1-.839.832A3.6,3.6,0,0,1,52.267,540.13Zm168.041-2.286a9.431,9.431,0,0,1-4.085-1.347c-.6-.3-1.216-.614-1.823-.85a35.039,35.039,0,0,0-5.956-1.654,34.121,34.121,0,0,0-6.173-.57,30.848,30.848,0,0,0-7.966,1.023c-.04.234-.086.507-.134.773a.1.1,0,0,1,.058-.019.117.117,0,0,1,.1.076.112.112,0,0,1-.022.125.859.859,0,0,1-.489.168.689.689,0,0,1-.674-.585c-.088-.483.244-1.16,1.443-1.611a27.7,27.7,0,0,1,6.021-2.1,28.965,28.965,0,0,1,12.89.051l.262.075c.264.074.539.148.831.227l.024.007a25.219,25.219,0,0,1,4.425,1.5,5.357,5.357,0,0,1,3.019,2.94,1.37,1.37,0,0,1-.159,1.1,1.229,1.229,0,0,1-.8.608A4.258,4.258,0,0,1,220.307,537.844ZM57.087,533.953a10.018,10.018,0,0,1-3.441-1.044h0a11.542,11.542,0,0,0-2.491-.87,40.609,40.609,0,0,0-11.693-1.67,47.3,47.3,0,0,0-10.448,1.194l-.248.057.175,1.248c.017.06.017.1,0,.125a.053.053,0,0,1-.045.019c-.165,0-.636-.432-.827-.875a.643.643,0,0,1,.054-.72A25.5,25.5,0,0,1,34.25,529.3a48.1,48.1,0,0,1,6.457-.921c.822-.055,1.664-.082,2.5-.082A43.962,43.962,0,0,1,54.77,529.91l.858.237a8.023,8.023,0,0,1,1.923.75,2.761,2.761,0,0,1,.746.628,1.76,1.76,0,0,1,.377.871,1.185,1.185,0,0,1-.5,1.238A1.752,1.752,0,0,1,57.087,533.953Zm132-3.053a.432.432,0,0,1-.407-.23,1.084,1.084,0,0,1,.128-1.008,2.841,2.841,0,0,1,1.394-.879c.114-.044.222-.086.327-.131a34.758,34.758,0,0,1,4.184-1.5,42.611,42.611,0,0,1,4.331-1.006,42.167,42.167,0,0,1,7.47-.655c1.347,0,2.719.062,4.078.184l.453.042.518.042h.016a29.527,29.527,0,0,1,4.109.541,9.169,9.169,0,0,1,2.015.672,3.05,3.05,0,0,1,1.319,1.1,2.1,2.1,0,0,1-.017,2.012,1.094,1.094,0,0,1-1.045.6,1.478,1.478,0,0,1-.657-.152,19.135,19.135,0,0,0-5.931-1.59,55.474,55.474,0,0,0-7.62-.53A52.83,52.83,0,0,0,189.7,530.3a.251.251,0,0,1,.015.244.678.678,0,0,1-.478.339A.824.824,0,0,1,189.09,530.9ZM40.921,519.8a7.632,7.632,0,0,1-2.839-.531,7.154,7.154,0,0,1-2.231-1.411,7.268,7.268,0,0,1-1.526-2.02,7.014,7.014,0,0,1-.727-2.356,6.3,6.3,0,0,1,.112-2.2,5.827,5.827,0,0,1,.918-2.047,6.432,6.432,0,0,1,1.8-1.694,9.039,9.039,0,0,1,2.744-1.139,4.016,4.016,0,0,1,1.306-.742,4.6,4.6,0,0,1,3.08.033,4,4,0,0,1,1.373.852,2.982,2.982,0,0,1,1.741,1.173,3.4,3.4,0,0,1,.7,1.917,5.961,5.961,0,0,1,.774,2.924,7.2,7.2,0,0,1-.623,2.944,7.61,7.61,0,0,1-1.885,2.6,6.445,6.445,0,0,1-2.82,1.485A9.2,9.2,0,0,1,40.921,519.8Zm159.787-6.091a6.144,6.144,0,0,1-2.443-.5,6.426,6.426,0,0,1-1.97-1.333,7.2,7.2,0,0,1-2.07-4.181,6.453,6.453,0,0,1,.1-2.233,5.969,5.969,0,0,1,.923-2.106,6.658,6.658,0,0,1,1.845-1.769,9.575,9.575,0,0,1,2.863-1.221,8.256,8.256,0,0,1,1.449-.133,6.615,6.615,0,0,1,2.17.352,5.859,5.859,0,0,1,1.748.962,6.029,6.029,0,0,1,1.291,1.431,6.575,6.575,0,0,1,.8,1.759,6.982,6.982,0,0,1,.269,2.153,7.052,7.052,0,0,1-.42,2.193,7.4,7.4,0,0,1-3.093,3.746A7.707,7.707,0,0,1,200.707,513.706Z" transform="translate(20.424 1.185)"/>
    </g>
    <g id="Head" transform="translate(95.946 42.662)">
      <g id="HEAD-2" data-name="HEAD">
        <path id="_Skin-2" data-name="âœ‹ Skin" d="M82.251,35.6A47.043,47.043,0,0,0,67.909,11.345C45.317-10.993,3.829,1.132,4.017,34.792a44.7,44.7,0,0,0-.871,11.983c.111,1.711.851,4.1-.143,5.638-2.244,2.88-3.547,5-2.784,8.835a9.388,9.388,0,0,0,5.987,6.975,6.269,6.269,0,0,1,4.273,3.436c4.1,7.509,7.14,13.756,13.606,18.873,1.668,1.318,18.78,9.22,24.419,9.22,16.507,0,37.311-5.98,37.656-24.419a98.317,98.317,0,0,0-1.1-12.165C83.978,54,84.36,44.5,82.251,35.6Z" transform="translate(13.034 17.539)" fill="#d08b5b"/>
        <path id="_Ink-2" data-name="ðŸ– Ink" d="M56.672,103.852a19.275,19.275,0,0,1-5.714-.8,14.115,14.115,0,0,1-2.637-1.118,12.943,12.943,0,0,1-2.4-1.707,2.01,2.01,0,0,1-.657-1.158,2.354,2.354,0,0,1,.138-1.254,2.9,2.9,0,0,1,.884-1.211,2.146,2.146,0,0,1,1.337-.5,1.917,1.917,0,0,1,1.166.41,12.286,12.286,0,0,0,1.961,1.2,12.617,12.617,0,0,0,2.066.792,15.577,15.577,0,0,0,4.347.57,25.717,25.717,0,0,0,4.428-.42c1.278-.223,2.661-.535,4.352-.982l.172-.046a45.425,45.425,0,0,0,7.382-2.6,31.678,31.678,0,0,0,3.453-1.849,25.687,25.687,0,0,0,3.157-2.3,18.856,18.856,0,0,0,4.952-6.619,21.958,21.958,0,0,0,1.851-8.092,66.3,66.3,0,0,0-.483-9.63l-.036-.355c-.14-1.381-.285-2.781-.425-4.136-.232-2.24-.471-4.557-.7-6.838-.4-4.025-.63-7.123-.761-10.045l-.07-1.691c-.018-.433-.038-.882-.056-1.277-.131-2.956-.267-6.012-.139-8.982a.1.1,0,0,1,.1-.1.093.093,0,0,1,.092.071c.413,1.464.71,2.972,1,4.431.141.713.286,1.449.443,2.174.555,2.556.944,4.534,1.261,6.413.6,3.527,1.168,7.4,1.8,12.2l.134,1.019c.154,1.186.329,2.4.5,3.58.863,6.025,1.755,12.255.63,18.275a21.215,21.215,0,0,1-3.555,8.32,27.907,27.907,0,0,1-6.42,6.432,37.567,37.567,0,0,1-7.678,4.275,49.62,49.62,0,0,1-8.4,2.635c-1.284.285-2.525.506-3.689.656A29.82,29.82,0,0,1,56.672,103.852ZM26.032,92.884a1.209,1.209,0,0,1-.471-.1,6.034,6.034,0,0,1-1.936-1.4,21.743,21.743,0,0,1-1.606-1.921l0,0c-.2-.259-.389-.5-.58-.741l-.076-.094a39.7,39.7,0,0,1-3.3-4.753l-.327-.548a52.313,52.313,0,0,1-4.721-9.47,1.759,1.759,0,0,1-.24.209,3.249,3.249,0,0,1-1.924.564,6.713,6.713,0,0,1-1.969-.341,14.725,14.725,0,0,1-1.8-.714,12.067,12.067,0,0,1-4.092-3.1A13.085,13.085,0,0,1,1.425,68.2,12.087,12.087,0,0,1,.413,65.69a11.342,11.342,0,0,1-.408-2.665A11.171,11.171,0,0,1,.26,60.28a11.992,11.992,0,0,1,2.032-4.44,11.505,11.505,0,0,1,3.644-3.285,11.4,11.4,0,0,1-2.209-5.517A33.628,33.628,0,0,1,3.3,39.343a39.733,39.733,0,0,1,1.13-7.581A45.99,45.99,0,0,1,6.9,24.505a40.55,40.55,0,0,1,7.416-11.364,40.162,40.162,0,0,1,5.018-4.58,39.262,39.262,0,0,1,5.752-3.668A43.514,43.514,0,0,1,51.865.524,37.616,37.616,0,0,1,58.3,2.131a39.364,39.364,0,0,1,6.037,2.678,40.887,40.887,0,0,1,5.52,3.638,41.676,41.676,0,0,1,4.879,4.487,43.179,43.179,0,0,1,4.088,5.113,32.76,32.76,0,0,1,3.133,5.74,31.261,31.261,0,0,1,1.093,3.049,25.128,25.128,0,0,1,.73,3.155,25.954,25.954,0,0,1,.386,3.346,9.188,9.188,0,0,1-.118,1.5,9.183,9.183,0,0,0-.118,1.543.129.129,0,0,1-.036.1.155.155,0,0,1-.112.045.133.133,0,0,1-.136-.1,8.287,8.287,0,0,0-.8-1.89,12.35,12.35,0,0,1-.606-1.269c-.337-.865-.724-1.714-1.06-2.442l-.32-.69c-.9-1.941-1.98-3.831-3.027-5.658l-.109-.19a41.492,41.492,0,0,0-8.369-10.333,37.207,37.207,0,0,0-9.82-6.3A35.926,35.926,0,0,0,54,5.739a34.208,34.208,0,0,0-5.775-.955c-.993-.077-2-.116-3-.116A39,39,0,0,0,34.713,6.111a37.949,37.949,0,0,0-9.733,4.257A36.023,36.023,0,0,0,10.108,28.961,41.105,41.105,0,0,0,7.8,40.949a54.886,54.886,0,0,0,.139,6.232l.072.987a15.87,15.87,0,0,1-.034,3.516,9.235,9.235,0,0,1,2.743-.439,7.792,7.792,0,0,1,1.127.081,4.753,4.753,0,0,1,3.993,2.83.1.1,0,0,1,0,.1.1.1,0,0,1-.085.048.109.109,0,0,1-.049-.012,3.768,3.768,0,0,0-1.671-.32,10.911,10.911,0,0,0-5.943,1.922A9.836,9.836,0,0,0,5.556,58.41a8.019,8.019,0,0,0-1.347,3.3,6.507,6.507,0,0,0-.039,1.725A7.235,7.235,0,0,0,4.561,65.1a8.3,8.3,0,0,0,1.82,2.9,9.843,9.843,0,0,0,1.343,1.171,7.9,7.9,0,0,0,1.551.876,10.638,10.638,0,0,0,1.463.459,6,6,0,0,1,2.361,1,1.243,1.243,0,0,1,.487,1.063,1.979,1.979,0,0,1-.429,1.11c1.253,1.374,2.455,2.838,3.617,4.254h0c1.141,1.389,2.32,2.826,3.549,4.18,1.043,1.149,2.252,2.488,3.4,3.843l.412.492c.306.37.657.739,1.029,1.131a9.047,9.047,0,0,1,2.327,3.273,1.585,1.585,0,0,1-.3,1.379A1.489,1.489,0,0,1,26.032,92.884Zm-10.5-25.721a1.466,1.466,0,0,1-.832-.247,1.674,1.674,0,0,1-.609-.822l-.025-.071a5.968,5.968,0,0,0-1.175-1.955,1.61,1.61,0,0,1-.618.577.656.656,0,0,1-.289.065.519.519,0,0,1-.544-.4A1.829,1.829,0,0,1,11.69,63l.034-.049A10.247,10.247,0,0,0,9.8,61.733a7.762,7.762,0,0,0-1.989-.669.122.122,0,0,1-.1-.127.124.124,0,0,1,.1-.13,11.932,11.932,0,0,1,2.214-.236,6.772,6.772,0,0,1,2.777.564,8.823,8.823,0,0,1,2.359,1.537,15.142,15.142,0,0,1,1.891,2.091,1.266,1.266,0,0,1,.173,1.385A1.962,1.962,0,0,1,15.527,67.164Z" transform="translate(10.664 15.406)"/>
      </g>
      <g id="FACE" transform="translate(37.761 44.084)">
        <path id="_Ink-3" data-name="ðŸ– Ink" d="M25.657,45.461a9.063,9.063,0,0,1-3.431-.684,9.7,9.7,0,0,1-2.239-1.284,9.528,9.528,0,0,1-1.823-1.835,1.877,1.877,0,0,1-.38-1.455,2.1,2.1,0,0,1,.818-1.315,2.018,2.018,0,0,1,1.2-.417,1.744,1.744,0,0,1,.268.021,1.853,1.853,0,0,1,1.24.818l.073.1a6.4,6.4,0,0,0,2.345,1.964,5.334,5.334,0,0,0,2.326.542,5.164,5.164,0,0,0,.576-.032,6.066,6.066,0,0,0,2.561-.9,11.986,11.986,0,0,0,2.169-1.807c.155-.158.32-.33.533-.557a.844.844,0,0,1,.442-.34.908.908,0,0,1,.288-.046.978.978,0,0,1,.322.055.967.967,0,0,1,.48.363.892.892,0,0,1,.152.588,5.387,5.387,0,0,1-.641,2.09,6.979,6.979,0,0,1-1.371,1.757,8.815,8.815,0,0,1-2.077,1.445,8.659,8.659,0,0,1-2.3.789A8.505,8.505,0,0,1,25.657,45.461Zm2.415-13.648h0a8.305,8.305,0,0,1-2.956-.595,14.94,14.94,0,0,1-3.477-1.969,1.333,1.333,0,0,1-.485-.77,1.592,1.592,0,0,1,.069-.865,1.967,1.967,0,0,1,.585-.844,1.427,1.427,0,0,1,.912-.355,1.3,1.3,0,0,1,.706.216l.235.181,0,0a18.824,18.824,0,0,0,2.176,1.51,5.369,5.369,0,0,0,2.609.83,2.822,2.822,0,0,0,1.1-.216,3.08,3.08,0,0,0,1.026-.726,3.137,3.137,0,0,0,.6-2.529,4.774,4.774,0,0,0-1.27-2.243,9.26,9.26,0,0,0-1.923-1.549.594.594,0,0,1-.161-.684.893.893,0,0,1,.3-.426.911.911,0,0,1,.568-.187,1.212,1.212,0,0,1,.2.018,6.458,6.458,0,0,1,2.268.818,5.141,5.141,0,0,1,1.525,1.4,5.568,5.568,0,0,1,.974,3.725,6.128,6.128,0,0,1-.5,1.955,5.7,5.7,0,0,1-1.124,1.68A5.379,5.379,0,0,1,28.072,31.813ZM8.835,18.486A1.979,1.979,0,0,1,6.917,16.73a14.215,14.215,0,0,1,.076-3.709c.045-.36.091-.733.124-1.135A2.219,2.219,0,0,1,7.959,10.3a2.6,2.6,0,0,1,1.6-.561,1.972,1.972,0,0,1,1.208.379,1.787,1.787,0,0,1,.667,1.185,9.934,9.934,0,0,1-1.041,6.133,1.969,1.969,0,0,1-.7.8A1.607,1.607,0,0,1,8.835,18.486Zm28.237-.841a1.7,1.7,0,0,1-1.33-.569,5.182,5.182,0,0,1-.812-1.375,5.978,5.978,0,0,1-.413-1.656,3.506,3.506,0,0,1,.959-3.013,1.987,1.987,0,0,1,.154-.234,2.174,2.174,0,0,1,1.672-.96,1.815,1.815,0,0,1,.508.075,2.443,2.443,0,0,1,1.633,1.422,5.02,5.02,0,0,1,.2,2.751,9.2,9.2,0,0,1-.836,2.6,1.686,1.686,0,0,1-.722.712A2.193,2.193,0,0,1,37.072,17.645ZM.312,8.807A.308.308,0,0,1,.056,8.65a.343.343,0,0,1-.021-.337A11.7,11.7,0,0,1,2.662,4.995,16.241,16.241,0,0,1,6.177,2.6a15.138,15.138,0,0,1,4.175-1.453l.446-.078A10.884,10.884,0,0,1,12.62.87a2.818,2.818,0,0,1,2.248.837,1.9,1.9,0,0,1,.452,1.354,1.24,1.24,0,0,1-.452.885,3.468,3.468,0,0,1-2.374.695c-.187,0-.381,0-.568-.009H11.92c-.18,0-.384-.01-.586-.01-.186,0-.353,0-.508.013a16.081,16.081,0,0,0-3.534.6A24.028,24.028,0,0,0,.477,8.754.293.293,0,0,1,.312,8.807ZM43.306,7.012h0l-.188-.047a10.648,10.648,0,0,1-2.061-.8l-.669-.329A18.614,18.614,0,0,0,38,4.817a28.262,28.262,0,0,0-5.446-1.2A2.228,2.228,0,0,1,31.458,3.2a1.634,1.634,0,0,1-.611-.929A1.659,1.659,0,0,1,31.035.882,1.776,1.776,0,0,1,31.9.14,1.943,1.943,0,0,1,32.633,0a2.169,2.169,0,0,1,.424.042l.341.07A24.407,24.407,0,0,1,39.28,2.019a11.9,11.9,0,0,1,2.587,1.7A7.537,7.537,0,0,1,43.7,6.075c.064.493,0,.615-.062.7l-.019.024-.017.023a.473.473,0,0,1-.292.194Z" transform="translate(12.587 12.325)"/>
      </g>
    </g>
  </g>
</svg>
