<svg xmlns="http://www.w3.org/2000/svg" width="390.67" height="780" viewBox="0 0 390.67 780">
  <g id="peep-standing-9" transform="translate(28.736)">
    <g id="BODY" transform="translate(-28.736 150.264)">
      <path id="_Skin" data-name="âœ‹ Skin" d="M42.739,583.372h0a16.947,16.947,0,0,1-2.339-.167c-.644-.062-1.93-.088-3.559-.12-3.434-.069-8.622-.172-13.1-.726a30.424,30.424,0,0,1-5.93-1.222,8.748,8.748,0,0,1-2.04-.963,3.008,3.008,0,0,1-1.131-1.25,2.053,2.053,0,0,1-.036-1.478,5.135,5.135,0,0,1,1.156-1.8A5.285,5.285,0,0,1,15.3,574.1a4.965,4.965,0,0,1,.041-1.5,7.382,7.382,0,0,1,1.257-2.856,31.005,31.005,0,0,1,5.1-5.24l0,0c.793-.7,1.542-1.361,2.232-2.023a147.51,147.51,0,0,0,11.3-12.149c3.584-4.261,7.627-9.3,10.241-15.182a5.817,5.817,0,0,1,1.748-1.919l.336-.2.209-.332c1.5-2.391,2.842-4.878,4.141-7.283v0c.613-1.134,1.246-2.307,1.889-3.456-5.094-1.84-9.553-3.636-14.907-6.006,1.7-10.018,3.75-20.919,6.262-33.326,2.241-11.065,4.635-22.278,6.95-33.122,2.467-11.552,5.017-23.5,7.39-35.3,2.66-13.23,4.806-24.865,6.563-35.569.971-8.459,1.862-17.073,2.723-25.4,1.621-15.678,3.3-31.89,5.58-47.773,1.228-8.551,2.529-16.323,3.975-23.761.784-4.029,1.622-8.006,2.491-11.821.912-4,1.889-7.961,2.905-11.771l1.353.1.754-2.6c-1.153-.03-3.39-.105-4.474-.147l.261,1.329a91.264,91.264,0,0,1-12.062-2.522l-.027-.007c-.916-.235-1.862-.478-2.791-.709a6.417,6.417,0,0,1-2.161-.692,4.36,4.36,0,0,1-1.611-1.432,3.242,3.242,0,0,1-.495-1.344,3.915,3.915,0,0,1,.158-1.642c.162-2.42.519-4.847.865-7.193v0c.272-1.85.554-3.763.739-5.666-1.519-1.037-3.139-2.25-4.816-3.6a26.389,26.389,0,0,0-4.341,2.917h0a38.171,38.171,0,0,1-3.931,2.756,11.252,11.252,0,0,1-1.985.927,6.062,6.062,0,0,1-1.969.354,4.577,4.577,0,0,1-1.533-.26C42.1,233.878,38.4,228.329,34.36,221.7c-3.558-5.839-6.9-11.714-10.134-17.4h0c-2.164-3.8-4.209-7.4-6.23-10.826-2.626-4.267-4.81-7.994-6.674-11.392-2.1-3.825-3.823-7.283-5.272-10.572a81.558,81.558,0,0,1-3.717-10.046c-.484-1.656-.9-3.311-1.228-4.918-.337-1.64-.6-3.287-.782-4.9a52.081,52.081,0,0,1,1.713-20.114c1.955-7.038,5.347-14.472,10.372-22.726,3.077-4.9,6.167-10.254,9.439-15.926l0-.006c3.8-6.585,7.727-13.394,11.972-20.063,2.3-3.607,4.457-6.817,6.607-9.815,2.395-3.339,4.8-6.436,7.149-9.2a101.146,101.146,0,0,1,7.788-8.245,73.822,73.822,0,0,1,8.523-6.936c1.5-1.038,3.039-2,4.567-2.868,1.573-.89,3.183-1.7,4.787-2.409a50.472,50.472,0,0,1,5.02-1.907,48.538,48.538,0,0,1,5.264-1.361c1.127-.21,2.289-.365,3.413-.515,1.4-.186,2.842-.379,4.249-.681a18.764,18.764,0,0,0,4.133-1.352,7.339,7.339,0,0,1,.326-1.71,5.136,5.136,0,0,1,.6-1.268,2.087,2.087,0,0,1,1.483-1.074c.585-.128,1.2-.28,1.789-.426l.01,0a23.552,23.552,0,0,1,5.2-.894,2.2,2.2,0,0,1,.862-.155,6.717,6.717,0,0,1,1.344.186l.287.059a29.167,29.167,0,0,0,2.088-6.961h0c.275-1.3.56-2.641.93-3.9A15.982,15.982,0,0,1,111.712,7.8a8.535,8.535,0,0,1,.357-2.406,5.094,5.094,0,0,1,1.437-2.23,6.885,6.885,0,0,1,1.357-.954,10.942,10.942,0,0,1,1.908-.8A25.015,25.015,0,0,1,122.612.44c2.609-.218,5.7-.44,8.861-.44a43.9,43.9,0,0,1,6.9.473,23.344,23.344,0,0,1,3.1.7,14.261,14.261,0,0,1,2.679,1.1,7.853,7.853,0,0,1,2.164,2.873,14.219,14.219,0,0,1,1.074,3.738,31.745,31.745,0,0,1,.077,7.918,17.616,17.616,0,0,0,.006,5.6,15.17,15.17,0,0,0,.836,3,16.289,16.289,0,0,0,1.611,3.063,12.606,12.606,0,0,1,3.7-.594,10.187,10.187,0,0,1,4.167.882,12.027,12.027,0,0,1,1.913,1.071,15.436,15.436,0,0,1,1.815,1.464,33.946,33.946,0,0,1,6.529,9.355,121.438,121.438,0,0,1,12.634,2.172,32.3,32.3,0,0,1,4.635,1.5A19.88,19.88,0,0,1,189.13,46.4a22.006,22.006,0,0,1,6.107,6.859,78.024,78.024,0,0,1,5.595,12A273.863,273.863,0,0,1,211.5,93.031a83.485,83.485,0,0,1,2.431,9.055c.655,3.041,1.2,6.152,1.732,9.162v.006c.512,2.911,1.042,5.921,1.669,8.873a87.087,87.087,0,0,0,2.3,8.794c2.534,6.339,5.072,12.116,7.527,17.7v0c3.8,8.654,7.392,16.828,10.334,25.679a142.023,142.023,0,0,1,3.885,13.96c.561,2.509,1.062,5.088,1.489,7.665.446,2.688.829,5.473,1.137,8.276.39,3.209.65,6.177.772,8.822a60.84,60.84,0,0,1-.008,6.486,24.587,24.587,0,0,1-.6,4.35,6.724,6.724,0,0,1-1.017,2.413c-2.075-.6-4.524-1.162-7.278-1.671-2.419-.447-4.993-.835-7.444-1.122l4.953,3.767a52.463,52.463,0,0,0-.954,9.222c-.126,3.551-.109,7.477-.09,11.633.018,4.076.037,8.292-.079,12.5a119.423,119.423,0,0,1-.887,12.307c-.27,2.038-.606,3.954-1,5.694a41.775,41.775,0,0,1-1.507,5.18,27.327,27.327,0,0,1-2.115,4.511,18.859,18.859,0,0,1-2.825,3.686,15.465,15.465,0,0,1-2.363,1.946,14.991,14.991,0,0,1-2.765,1.45,16.628,16.628,0,0,1-3.2.906,20.785,20.785,0,0,1-3.664.313h0a27.348,27.348,0,0,1-3.43-.227c-.223-.543.042-2.993.236-4.782.061-.567.115-1.057.148-1.437-.5.035-1.312.073-2.07.073a11.629,11.629,0,0,1-1.365-.062c-.738,2.13-1.667,4.192-2.565,6.186a67.768,67.768,0,0,0-2.826,6.961c-.714,2.722-1.62,5.492-2.563,8.326-2.561,8.624-4.907,17.356-6.971,25.952-2.054,8.552-3.889,17.223-5.457,25.772-1.558,8.5-2.9,17.131-3.981,25.657-1.076,8.466-1.932,17.081-2.544,25.606-.607,8.456-.992,17.076-1.145,25.619-.151,8.467-.078,17.113.217,25.7.292,8.5.81,17.19,1.539,25.837.721,8.548,1.672,17.31,2.824,26.041l-.416.151-.169.3-.253.095a1.991,1.991,0,0,1-1.213.778,8.348,8.348,0,0,1-1.828.129c-3.922.138-7.585.291-11.127.438h-.025c-4.625.193-8.994.374-13.165.49.7,3.508.368,7.2.045,10.772-.034.377-.073.8-.109,1.218.322-.023.649-.034.972-.034a17.032,17.032,0,0,1,5.685,1.055,40.475,40.475,0,0,1,5.466,2.5c8.689,4.265,15.732,7.995,22.165,11.74,1.316.842,2.81,1.678,4.256,2.487,4.6,2.577,9.366,5.242,10.21,8.912a5.383,5.383,0,0,1-.041,2.53,8.834,8.834,0,0,1-1.382,2.869l1.669.655a.692.692,0,0,1,.113.055c.1.374-.471,1.313-1,2-.575.757-1.361,1.572-1.726,1.572H200.1c-1.349.063-2.72.095-4.076.095a107.686,107.686,0,0,1-16.48-1.371c-5.573-.849-11.239-2-17.8-3.327h0c-3.532-.716-7.184-1.457-11.148-2.215a75.6,75.6,0,0,0-7.811-1.785h-.008c-4.132-.828-9.274-1.858-13.262-3.045a25.8,25.8,0,0,1-4.964-1.916,5.966,5.966,0,0,1-1.457-1.062,1.741,1.741,0,0,1-.541-1.133,1.183,1.183,0,0,1,.67-1.081,4.045,4.045,0,0,1,1.3-.3c.18-.022.349-.042.511-.071a25.54,25.54,0,0,1-.54-5.643,17.248,17.248,0,0,1,.669-4.42,27.576,27.576,0,0,1,3.465-6.983,41.845,41.845,0,0,0,3.007-5.446,23.7,23.7,0,0,0,1.172-3.33,25.377,25.377,0,0,0,.736-4,20.494,20.494,0,0,1-3.779.444,8.955,8.955,0,0,1-2.395-.3c-.349-5.67-.55-11.9-.615-19.037-.058-6.369-.005-12.871.046-19.159v-.006c.067-8.183.136-16.644-.037-24.97-.093-4.482-.247-8.563-.471-12.477-.251-4.4-.583-8.467-1.013-12.447l-3.227-.357-1.383,4.066-.273.8v0c-5.1,15.006-10.383,30.523-15.337,46-2.67,8.343-5.022,15.972-7.191,23.322-2.438,8.263-4.581,15.953-6.55,23.509a.41.41,0,0,1-.414.375,1.907,1.907,0,0,1-.926-.41,116.273,116.273,0,0,1-16.831-1.687c-.137,3.344-.282,6.794-.41,9.838l.853.458c.551.766.318,4.359.219,5.893l-.014.213a18.89,18.89,0,0,0-.03,3.577,3.191,3.191,0,0,1,.319,1.4,6.181,6.181,0,0,1-.232,1.668,16.828,16.828,0,0,1-1.693,3.847,72.021,72.021,0,0,1-5.349,7.679l-.574.751c-1.346,1.742-2.678,3.689-3.966,5.571-2.546,3.721-5.178,7.567-8.288,10.457a19.252,19.252,0,0,1-5.089,3.506,14.58,14.58,0,0,1-6.154,1.339ZM66.916,94.156h0c-3.769,7.351-7.529,14.06-11.495,20.512-4.212,6.851-8.733,13.543-13.823,20.46a33.673,33.673,0,0,0-3.537,4.741,9.109,9.109,0,0,0-1.325,3.741,7.625,7.625,0,0,0,.047,1.812,12.029,12.029,0,0,0,.456,1.942,46.318,46.318,0,0,0,1.948,4.782,224.327,224.327,0,0,0,13.445,26.126A280.96,280.96,0,0,0,69.6,203.447c-.152-6.849-.3-13.825-.448-20.572l-.005-.24v-.011c-.625-28.947-1.271-58.88-2.233-88.468Z" transform="translate(49.555 -14.221)" fill="#d08b5b"/>
      <path id="_Pants" data-name="ðŸ‘– Pants" d="M141.024,5.692s30.474,46.472,28.068,72.2c-.143,1.524-2.6,25.143-2.612,26.782-.083,10.608,4.373,1.146,1.187,9.717-2.6,7-20.388,48.522-26.6,109.025-3.493,34.026,1.187,119.69,1.187,119.69L88.821,346.42l-4.75-91.96c-.7,1.119-33.011,99.307-33.011,99.307L25.886,351.16,0,341.206S12.924,287.24,25.886,212.273C32.023,176.779,41.415,79.235,41.415,79.235,40.984,73.084,98.8,74.57,98.8,74.57S79.05,11.87,93.333,3.23C102.385-2.246,141.024,5.692,141.024,5.692Z" transform="translate(88.821 159.596)" fill="#9ddadb"/>
      <path id="_Shoes" data-name="ðŸ‘Ÿ Shoes" d="M24.722,51.329a110.285,110.285,0,0,1-19.187-2L4.9,49.219l-.771-.138-1.68-.307-.393-.4A6.6,6.6,0,0,1,.059,44.7a6.339,6.339,0,0,1,.79-3.942A12.453,12.453,0,0,1,2.686,38.2,35.8,35.8,0,0,1,5.741,35.3L7.73,33.578a14.314,14.314,0,0,0,2.588-2.523L10.5,30.8l.088-.092a169.088,169.088,0,0,0,11.3-12.857A98.95,98.95,0,0,0,31,4.127l.206-.379.31-.574.609-.238a19.138,19.138,0,0,1,6.953-1.313,18.635,18.635,0,0,1,4.256.49,17.97,17.97,0,0,1,4.031,1.471l.154.079.149.079.154.084a18.972,18.972,0,0,1,2.587,1.815l.641.506.3.233A10.319,10.319,0,0,0,53.612,7.82a4.833,4.833,0,0,0,1.9.4,2.258,2.258,0,0,0,1.6-.487l.029-.033.026-.033.716-2,1.279,13.664-.276.423c-.37.57-.685,1.075-.993,1.589l-.185.311-.626.933-.406.613c-.547.829-1.146,1.75-2,3.081L52.407,29.8l-.946,1.462c-2.413,3.712-3.962,5.948-5.717,8.25l-.466.607-.243.3-.242.3a44.327,44.327,0,0,1-3.28,3.6,32.866,32.866,0,0,1-3.435,2.939A25.621,25.621,0,0,1,34.463,49.5a21.747,21.747,0,0,1-3.822,1.506l-.175.049L30.3,51.1l-.169.014C28.333,51.258,26.562,51.329,24.722,51.329Zm158.033-15.5h0l-.579-.042c-4.922-.354-9.873-.884-15.135-1.621-5.135-.719-10.415-1.614-16.14-2.735l-1.1-.217c-8.1-1.61-16.065-3.437-28.418-6.513l-2.32-.58-3.779-.95-.1-.009a7.538,7.538,0,0,1-2.74-.8,6.3,6.3,0,0,1-2.009-1.655,8.41,8.41,0,0,1-1.655-5.329l0-.242v-.2a19.4,19.4,0,0,1,1.177-6.4,46.66,46.66,0,0,1,2.425-5.546l.087-.172.088-.171L115.6.324a5.17,5.17,0,0,1-.086,1.628,16.185,16.185,0,0,0-.166,1.688,2.378,2.378,0,0,0,.241,1.319,1.451,1.451,0,0,0,.938.554,6.271,6.271,0,0,0,1.426.126c.334,0,.672-.012,1-.023h0c.256-.009.5-.017.728-.02l.292,0,.3-.008c.454-.015.936-.042,1.613-.09l1.9-.139.159-.01.154-.008.3-.014.187-.007.071-.005a14.844,14.844,0,0,0,4.878-1.6c.915-.409,1.952-.873,3.182-1.356l1.757-.7C136.3.942,137.255.6,138.418.239l.172-.053.091-.018A9.571,9.571,0,0,1,140.5,0,16.644,16.644,0,0,1,145.6.931a46.882,46.882,0,0,1,6.354,2.7l.361.181.388.2c.88.449,1.845.96,2.951,1.562l1.671.919.868.479.015.008c.905.5,1.842,1.017,2.225,1.226l.483.262.44.236c1.116.6,1.982,1.032,2.726,1.371l.25.113.06.032c6.679,3.617,12.626,7.091,18.181,10.619l.443.282.149.082a11.874,11.874,0,0,1,3.818,3.165A6.447,6.447,0,0,1,188.342,28c.1,2.615-1.566,5.194-4.695,7.262l-.2.127-.2.129-.492.307Z" transform="translate(64.667 516.7)" fill="#fff"/>
      <path id="_Jacket" data-name="ðŸ§¥ Jacket" d="M82.4,233.616l-.407-.012-.012-.093-.335-.023c-.763-.052-1.677-.093-2.689-.139-5.4-.243-13.453-.671-16.359-3.389q-.066-.062-.131-.128-.009-.087-.017-.174a33.662,33.662,0,0,1,.669-8.494c.237-1.443.474-2.881.609-4.305q.038-.4.067-.812.328.233.671.464c8.4,5.65,15.389,4.739,22.586,3.824,4.891-.622,9.876-1.247,15.439.046a35.528,35.528,0,0,1,4.9,1.712c3.762,1.517,7.753,3.2,11.239,1.424a5.131,5.131,0,0,0,1.634-1.976,2.009,2.009,0,0,0-.1-1.735c-.892-1.714-3.684-2.969-5.836-3.859l-.229-.094-3.956-1.6c1.26.148,2.512.306,3.747.509,1.645.27,3.3.626,4.95.984a45.86,45.86,0,0,0,10.75,1.456,1.571,1.571,0,0,0,.767-.452,1.6,1.6,0,0,0,.367-.867,4.579,4.579,0,0,0-.786-2.876,10.443,10.443,0,0,0-5.586-4.026l.192-.921a22.484,22.484,0,0,1,2.47.4,13.542,13.542,0,0,0,3.626.4,2.7,2.7,0,0,0,1.422-1.019,1.683,1.683,0,0,0,.073-1.44c-.577-1.74-2.806-3.611-4.2-4.427-4.8-3.176-10.334-4.716-15.838-6.257a93.374,93.374,0,0,1-9.728-3.108q-.334-.134-.666-.274a5.672,5.672,0,0,1,.534-.525c2.2-1.885,6.341-2.242,10.5-2.553,3.165-.237,6.327-.459,8.519-1.462a4.09,4.09,0,0,0,2.656-3.381,4.848,4.848,0,0,0-.913-2.466,4.9,4.9,0,0,0-2.175-1.563c-2.564-1.008-6.127-.713-8.928-.43l-1.215.124-.431.043a70.5,70.5,0,0,0-31.669,11.95l-.359.248-.278-.337q-4.363-5.3-8.512-10.778c-.031-.04-.061-.081-.091-.122,0-.05,0-.1,0-.149-.346-11.988-.53-24.029-.713-36.078-.358-23.469-.715-46.969-2.28-70.172l.458-.94q.487-1,.891-1.833l-.348.571-.668,1.106-.961,1.6L65.7,74.8l-.017.032a.633.633,0,0,0-.211,0,.683.683,0,0,0-.489.383,1.65,1.65,0,0,0-.128,1q.012.074.028.147l-.077.146q-.231.44-.464.878c-6,9.72-12.269,19.261-18.963,28.486a47.768,47.768,0,0,1-4.2,5.555c-3.343,4.034-7.1,8.456-6.685,12.48,8.483,24.909,23.693,47.274,40.037,67.749.074.092.148.185.218.279l-.2.288a78.7,78.7,0,0,1-23.9,22.374c-.34.185-.682.4-1.037.631a7.8,7.8,0,0,1-2.962,1.363,2.268,2.268,0,0,1-2.182-.967A673.15,673.15,0,0,1,5.51,148.2C-4.458,129.944.3,108.964,10.246,91.793l.867-1.564q1.008-1.82,2.019-3.648C26.722,62,40.79,36.579,62,17.869l.367-.292c5.553-4.4,11.79-8.411,18.868-9.652a39.526,39.526,0,0,1,4.217-.382,21.971,21.971,0,0,0,6.934-1.117q.335-.132.659-.282.008.384-.01.747c-.173,3.445-.081,6.311.667,1.349a19.377,19.377,0,0,1,.391-3.232,4.848,4.848,0,0,1,1.621-2.846A9.618,9.618,0,0,1,99.39.683l1.7-.423L102.122,0C106,34.057,114.446,67.364,122.9,100.677c10.331,40.728,20.662,81.464,22.661,123.585l.023.174a7.323,7.323,0,0,1-.347,3.841A2.956,2.956,0,0,1,142.809,230a52.761,52.761,0,0,1-6.036.967c-.535.065-1.069.129-1.6.2l-1.067.14a313.553,313.553,0,0,1-40.394,2.474Q88.053,233.782,82.4,233.616Zm92.776-5.525-.394-.058q-.008-.2-.013-.4a84.569,84.569,0,0,1,1.112-13.806,77.61,77.61,0,0,0,1.06-14.814l.02-3.657c.3-59.479-.478-120.323-18.055-177.611-.049-2.289-6.565-7.769-6.716-7.939a24.291,24.291,0,0,1-2.059-2.642q-.315-.469-.608-.953c.335.076.7.151,1.088.223a28.306,28.306,0,0,0,3.65.424c2.618.166,3.326.158,6.794,4.6a35.449,35.449,0,0,0,7.95,8.7q.478.053.96.111c6.52.779,12.34,2.011,17,4.982a21.935,21.935,0,0,1,8.9,11.589l1.03,2.4C203.453,54.6,209.863,70.191,212.8,86.691a110.656,110.656,0,0,0,11.49,37.82c10.3,22.553,19.1,46.954,17.68,72.075q-.129,2.067-.366,4.125-.031.271-.065.542l-.526-.138c-7.412-1.919-15.146-3.011-22.794-2.124l-.478.057c-.016-.159,1.044,9.958-10.387,27.1a27.438,27.438,0,0,1-2.1,2.4l-.29.031a123.776,123.776,0,0,1-13.059.7A117.483,117.483,0,0,1,175.173,228.091Z" transform="translate(50.659 8.272)" fill="#e86bbb"/>
      <path id="_Ink" data-name="ðŸ– Ink" d="M42.408,577.471a140.606,140.606,0,0,1-19.973-1.422l-.941-.153a15.757,15.757,0,0,1-3.309-.836,5.373,5.373,0,0,1-2.607-2.03,4.467,4.467,0,0,1-.72-2.712,3.7,3.7,0,0,1,1.086-2.415,7.625,7.625,0,0,1-.278-1.8,6.941,6.941,0,0,1,.155-1.671,8.608,8.608,0,0,1,1.342-3.007,28.008,28.008,0,0,1,4.945-5.076c.965-.84,1.877-1.633,2.671-2.439,3.561-3.431,6.962-7.044,10.11-10.737a142.277,142.277,0,0,0,8.974-11.7l.32-.757c1.086-2.56,2.3-5.154,4.185-6.294,1.371-2.175,2.614-4.472,3.815-6.694.382-.706.814-1.505,1.236-2.272-4.092-1.5-8.463-3.285-13.364-5.456a1.717,1.717,0,0,1-.886-1.015,2.683,2.683,0,0,1-.115-1.357l.011-.057c3.672-19.05,7.722-38.353,11.639-57.019,2.621-12.494,5.332-25.413,7.906-38.147,2.885-14.273,5.288-26.784,7.344-38.249,1.323-10.643,2.463-21.5,3.565-32v0c1.58-15.047,3.213-30.606,5.415-45.816,1.185-8.186,2.435-15.621,3.822-22.728.751-3.85,1.554-7.647,2.385-11.286.872-3.817,1.806-7.593,2.775-11.222a90.082,90.082,0,0,1-12.888-2.647c-.819-.21-1.748-.449-2.638-.671a7.52,7.52,0,0,1-4.527-2.348,4.628,4.628,0,0,1-.922-2.1,8.051,8.051,0,0,1,.08-2.849c.162-2.247.5-4.509.822-6.7.233-1.571.474-3.2.648-4.8-1.031-.721-2.107-1.525-3.2-2.392-1.921,1.432-3.922,2.793-5.949,4.045a18.5,18.5,0,0,1-3.255,1.938,7.2,7.2,0,0,1-2.915.7,4.642,4.642,0,0,1-1.513-.248,5.006,5.006,0,0,1-1.418-.775,7.5,7.5,0,0,1-1.328-1.349,13.189,13.189,0,0,1-1.243-1.97c-4.5-7.1-8.826-14.116-12.856-20.848-4.3-7.175-8.423-14.307-12.266-21.2-1.286-2.384-2.649-4.809-3.967-7.154-3.15-5.6-6.407-11.4-9.024-17.338a77.875,77.875,0,0,1-3.393-9.081c-.474-1.579-.88-3.158-1.208-4.693-.344-1.612-.614-3.231-.8-4.813a37.422,37.422,0,0,1-.106-5.4,50.091,50.091,0,0,1,.634-5.73c.319-1.916.757-3.936,1.3-6,.525-1.995,1.163-4.089,1.9-6.226a130.7,130.7,0,0,1,5.284-12.9c1.939-4.137,4.223-8.552,6.787-13.124,4.33-7.719,9.482-15.959,15.751-25.191,5.345-7.872,10.567-15.081,14.764-20.874l.936-1.293c2.641-3.186,5.027-5.884,7.295-8.249a86.193,86.193,0,0,1,8.174-7.572c1.481-1.192,2.98-2.3,4.456-3.283a51.847,51.847,0,0,1,4.724-2.814,44.325,44.325,0,0,1,5.008-2.246,39.749,39.749,0,0,1,5.307-1.577c1.231-.182,2.5-.324,3.735-.461a39.667,39.667,0,0,0,9.74-1.916,6.866,6.866,0,0,1,1.066-2.833,4.03,4.03,0,0,1,2.458-1.658c.594-.131,1.2-.282,1.8-.428a25.6,25.6,0,0,1,5.339-.932,4.49,4.49,0,0,1,1.207-.183,2.785,2.785,0,0,1,.5.043,41.436,41.436,0,0,0,1.628-5.941A35.138,35.138,0,0,1,111.873.1a.506.506,0,0,1,.272-.1.254.254,0,0,1,.2.1c.274.33.279,1.446.017,3.411-.222,1.661-.589,3.583-.883,5.128v0c-.234,1.225-.419,2.193-.42,2.472l-.048.235a17.009,17.009,0,0,1-1.077,3.514,9.008,9.008,0,0,1-.914,1.6,6.21,6.21,0,0,1-1.255,1.3c.913,7.46,2.044,14.772,3.363,21.732l.8.105c1.774.235,3.58.487,5.327.731h0c3.86.539,7.851,1.1,11.791,1.508a114.06,114.06,0,0,0,11.859.687c2.454,0,4.745-.1,7.005-.313h.112a12.558,12.558,0,0,0,8.119-2.9,19.973,19.973,0,0,0,5.236-7.026c-.179-.654-.355-1.3-.539-1.953a26.767,26.767,0,0,1-3-2.132,27.446,27.446,0,0,1-2.713-2.553,25.033,25.033,0,0,1-4.206-6.1,19.573,19.573,0,0,1-1.954-6.967,16.493,16.493,0,0,1,1.048-7.293.546.546,0,0,1,.528-.36.593.593,0,0,1,.379.133.081.081,0,0,1,.076.083l-.132,2.052a36.159,36.159,0,0,0,.012,6.139,14.05,14.05,0,0,0,1.861,5.831,13.346,13.346,0,0,1,2.955-.344,11.7,11.7,0,0,1,2.625.3,12.012,12.012,0,0,1,2.4.834,15.679,15.679,0,0,1,4.177,2.958,26.909,26.909,0,0,1,3.432,4.137,47.879,47.879,0,0,1,2.79,4.668l2.706.4c2.466.366,5.087.771,7.626,1.338a37.3,37.3,0,0,1,7.065,2.24,24.114,24.114,0,0,1,3.19,1.707,20.581,20.581,0,0,1,2.892,2.231,20.151,20.151,0,0,1,2.541,2.854,22.833,22.833,0,0,1,2.137,3.577l.7,1.488c1.988,4.235,3.7,8,5.231,11.5,1.815,4.15,3.4,7.974,4.835,11.691a184.91,184.91,0,0,1,7.631,24.069c.717,3.188,1.276,6.464,1.817,9.633v.005c.469,2.747.953,5.588,1.539,8.357a72.018,72.018,0,0,0,2.193,8.213c2.318,6.126,5.049,12.208,7.689,18.09l0,0c2.083,4.64,4.237,9.439,6.176,14.229,1.044,2.579,1.943,4.95,2.75,7.249.906,2.58,1.673,5,2.344,7.408a51.892,51.892,0,0,1,2.458,8.909c.988,4.611,1.906,9.928,2.584,14.971a129.608,129.608,0,0,1,1.269,15.364c.048,4.975-.452,8.369-1.486,10.089a3.075,3.075,0,0,1-.835.945,1.94,1.94,0,0,1-1.051.361,71.025,71.025,0,0,0-8.621-2.017,1.341,1.341,0,0,1,.464.663,1.881,1.881,0,0,1,.063.851,150.794,150.794,0,0,0-1.088,21.5c.125,4.036.141,7.47.051,10.807a112.387,112.387,0,0,1-.974,12.464c-.307,2.188-.688,4.269-1.132,6.186a49.442,49.442,0,0,1-1.7,5.8,32.671,32.671,0,0,1-2.373,5.146,21.61,21.61,0,0,1-3.149,4.226,16.6,16.6,0,0,1-2.338,2.006,15,15,0,0,1-2.687,1.507,15.278,15.278,0,0,1-3.059.948,17.709,17.709,0,0,1-3.454.329,24.077,24.077,0,0,1-5.342-.645,1.448,1.448,0,0,1-.741-.573,2.091,2.091,0,0,1-.3-.9,10.1,10.1,0,0,1,.132-2.371,13.155,13.155,0,0,0,.163-2.061c-.058,0-.117,0-.175,0-.088,0-.182,0-.279-.009-.659,1.777-1.446,3.519-2.207,5.2a63.913,63.913,0,0,0-2.73,6.716c-.353,1.114-.678,2.277-.993,3.4v0a49.289,49.289,0,0,1-2.473,7.337c-2.07,7.35-4,14.811-5.744,22.176-1.759,7.439-3.371,14.98-4.791,22.414-1.435,7.514-2.712,15.119-3.8,22.605-1.1,7.57-2.024,15.224-2.759,22.749-.743,7.611-1.308,15.3-1.679,22.846-.376,7.637-.564,15.339-.558,22.895.005,7.647.209,15.351.6,22.9.4,7.64,1.01,15.328,1.81,22.852.364,3.655.777,7.327,1.228,10.912a24.3,24.3,0,0,0,.477,3.562,46.671,46.671,0,0,1,.743,5.584c.082,1.973-.246,3.042-1,3.268a1.311,1.311,0,0,1-.615.46,3.378,3.378,0,0,1-1.82.988,10.187,10.187,0,0,1-2.153.164h-.465a13.453,13.453,0,0,0-1.411.055c-7.981.354-14.513.613-20.557.813a34.857,34.857,0,0,1-.087,7.857c-.024.277-.051.591-.077.9,3.914.032,7.573,1.9,11.11,3.7.956.488,1.943.991,2.9,1.44,6.515,3.21,13.03,6.695,19.363,10.359a51.548,51.548,0,0,0,4.53,2.673h0c1.543.846,3.138,1.72,4.628,2.681a20.234,20.234,0,0,1,3.941,3.168,9.826,9.826,0,0,1,1.361,1.844,6.952,6.952,0,0,1,.768,2.058,6.655,6.655,0,0,1,.034,2.3,9.194,9.194,0,0,1-.84,2.58,1.754,1.754,0,0,1,1.125,2.137,6.819,6.819,0,0,1-1.969,3.27,5.1,5.1,0,0,1-3.01,1.7c-3.592-.018-7.255-.2-11.2-.569-3.51-.325-7.159-.785-11.154-1.405-7.419-1.152-14.9-2.692-22.131-4.182-1.571-.323-3.194-.658-4.789-.982-2.942-.776-6.021-1.41-9-2.022-3.185-.655-6.479-1.332-9.64-2.19-1.7-.462-3.23-.937-4.667-1.453a42.65,42.65,0,0,1-4.471-1.88,2.537,2.537,0,0,1-1.288-1.344,3.611,3.611,0,0,1-.234-1.9,3.482,3.482,0,0,1,.709-1.7,2.469,2.469,0,0,1,1.562-.91,28.716,28.716,0,0,1-.274-5.524,17.2,17.2,0,0,1,.718-4.135,23.3,23.3,0,0,1,3.217-6.151h0a37.749,37.749,0,0,0,2.638-4.44,23.986,23.986,0,0,0,2-6.16,8.974,8.974,0,0,1-1.439.11,13.378,13.378,0,0,1-2.639-.283.774.774,0,0,1-.5.247c-.209,0-.4-.149-.57-.443a4.7,4.7,0,0,1-.428-1.226,27.547,27.547,0,0,1-.513-4.161c-.216-3.32-.217-7.41-.217-10.7v0c0-2.591,0-4.637-.112-5.219-.021-5.666.032-11.417.082-16.978v-.006c.076-8.389.155-17.065-.014-25.589-.091-4.591-.245-8.772-.47-12.782-.253-4.5-.588-8.676-1.025-12.762l-4.118,12.108c-4.347,12.8-9.377,27.688-14.069,42.5-5,15.793-9.094,29.851-12.513,42.978a2.032,2.032,0,0,1-2.048,1.61,2.613,2.613,0,0,1-1.408-.418,113.71,113.71,0,0,1-14.741-1.4c-.095,2.305-.191,4.595-.289,6.933,1.458.785,1.219,4.473,1.027,7.436a22.238,22.238,0,0,0-.08,3.239,4.518,4.518,0,0,1,.359,1.743,7.684,7.684,0,0,1-.253,1.984,18.46,18.46,0,0,1-1.881,4.412,74.957,74.957,0,0,1-6.06,8.655l0,0c-.859,1.108-1.6,2.065-2.145,2.841-.8,1.114-1.58,2.27-2.408,3.494h0a58.786,58.786,0,0,1-7.833,9.973,19.607,19.607,0,0,1-4.955,3.5,14.918,14.918,0,0,1-6.044,1.487l-.318.008C44.711,577.457,43.552,577.471,42.408,577.471Zm-19.767-6.292h0a11.73,11.73,0,0,0,1.235.519c.562.077,1.071.141,1.555.2C24.469,571.679,23.53,571.438,22.641,571.179ZM56.36,524.648h0a17.185,17.185,0,0,0-3.094.3,24.226,24.226,0,0,0-3.6.974,130.489,130.489,0,0,1-22.2,29.624,26.127,26.127,0,0,1-3.276,3.105,33.9,33.9,0,0,0-3.6,3.38,9.472,9.472,0,0,0-1.277,1.822,4.975,4.975,0,0,0-.58,1.922A4.1,4.1,0,0,0,19,567.53a6.158,6.158,0,0,0,1.157,1.848l.756.138c4.15.754,7.347,1.252,10.367,1.615a87.3,87.3,0,0,0,10.455.678c1.767,0,3.507-.068,5.174-.2a20.1,20.1,0,0,0,4.65-1.96,26.43,26.43,0,0,0,4.1-2.938,47.1,47.1,0,0,0,6.8-7.53c1.332-2.359,2.855-4.808,4.655-7.488,1.779-2.648,3.648-5.245,5.077-7.211a8.935,8.935,0,0,0,1.757-3.936,22.027,22.027,0,0,0,.326-4.345c.07-1.936.136-3.67.2-5.3a6.117,6.117,0,0,1-2.111.393,6.439,6.439,0,0,1-3.019-.814,24.358,24.358,0,0,1-2.9-1.886h0l-.043-.031c-.269-.193-.548-.393-.829-.59a15.242,15.242,0,0,0-9.208-3.321Zm73.871,2.607h0a18.121,18.121,0,0,0-2.309,5.96,19.228,19.228,0,0,0-.12,6.4l0,.2a5.145,5.145,0,0,0,.427,2.312,1.825,1.825,0,0,0,.727.733,2.975,2.975,0,0,0,1.291.328l6.087,1.53c9.875,2.477,20.4,5.071,30.977,7.176,5.565,1.107,10.684,1.991,15.648,2.7,5.523.79,10.685,1.341,15.78,1.687a11.2,11.2,0,0,0,3.236-2.869,4.946,4.946,0,0,0,1.027-3.05,4.8,4.8,0,0,0-1.153-2.866,10.672,10.672,0,0,0-3.307-2.582l-1.534-.939c-5.307-3.244-11.586-7.026-17.922-10.483a183.081,183.081,0,0,0-18.676-8.987,8.347,8.347,0,0,0-2.881-.5,11.49,11.49,0,0,0-3.407.559,22,22,0,0,0-3.247,1.331A38.641,38.641,0,0,1,144.531,528a33.07,33.07,0,0,1-7.577,1.008,15.893,15.893,0,0,1-3.744-.4,7.933,7.933,0,0,1-2.979-1.35Zm74.857,27.178h0l-.047.081-.016.027,0,.008c-.033.057-.067.115-.1.172a1.1,1.1,0,0,1,.244.17A1.346,1.346,0,0,0,205.088,554.432ZM57.277,522.945a15.961,15.961,0,0,1,9.126,3.062c.469.31.913.618,1.342.916a24.686,24.686,0,0,0,2.35,1.512,4.534,4.534,0,0,0,2.123.634,2.9,2.9,0,0,0,1.321-.319l.141-.074v0a6.2,6.2,0,0,1-.276-3.407,24.875,24.875,0,0,1,.858-3.484l0-.008c.048-.16.093-.312.137-.461-3.263-.59-6.639-1.367-10.034-2.309-3.179-.882-6.479-1.937-9.808-3.138a6.941,6.941,0,0,1-.319,2.23c-.215.751-.509,1.5-.769,2.166-.056.143-.116.3-.174.446-.1.255-.2.542-.3.846v0h0a15.187,15.187,0,0,1-.876,2.18A18.323,18.323,0,0,1,57.277,522.945Zm77.917-10.064a18.272,18.272,0,0,1,.123,3.516,26.074,26.074,0,0,1-.521,3.934,16.024,16.024,0,0,1-2.865,6.757h-.006l-.006,0a20.382,20.382,0,0,0,3.04.225,24.014,24.014,0,0,0,4.417-.425,34.547,34.547,0,0,0,4.32-1.113c2.846-.916,5.638-2.134,8.339-3.312l0,0,.106-.046c.44-.192.9-.39,1.34-.583a22.688,22.688,0,0,1,1.023-4.772c.507-1.611,1.147-3.228,1.708-4.618l-3.709.114c-5.1.155-11.032.32-16.873.32Zm-3.8,12.2c-.205.384-.419.781-.608,1.132l-.087.162a2.238,2.238,0,0,0,.337.3A3.007,3.007,0,0,1,131.4,525.079ZM86.2,249.836c-1.732,8.568-3.352,17.436-4.813,26.357-1.409,8.6-2.715,17.515-3.881,26.494-1.119,8.62-2.145,17.572-3.049,26.6-.863,8.625-1.642,17.6-2.315,26.689-.953,8.453-2.122,17.053-3.574,26.289-1.293,8.227-2.782,16.776-4.552,26.134-3.288,17.381-7.073,34.979-10.733,52v.006c-3.273,15.22-6.658,30.958-9.675,46.48,3.911,1.71,7.768,3.247,11.464,4.57,3.964,1.418,7.9,2.646,11.706,3.65a120.474,120.474,0,0,0,11.978,2.531,106.289,106.289,0,0,0,12.281,1.214c1.808-6.677,3.772-13.521,6-20.92,1.989-6.6,4.148-13.489,6.6-21.075,4.556-14.1,9.471-28.535,14.224-42.5,5.059-14.864,10.291-30.233,15.159-45.385,2.621-8.156,4.926-15.587,7.046-22.717,2.382-8.007,4.471-15.428,6.386-22.687,2.058-7.8,3.908-15.408,5.5-22.621,1.7-7.72,3.176-15.3,4.38-22.52,1.275-7.644,2.3-15.175,3.035-22.383.775-7.566,1.267-15.039,1.46-22.212a.282.282,0,0,1,.208-.084.239.239,0,0,1,.253.189,63.957,63.957,0,0,1,.341,12.728l0,.042c-.022.564-.045,1.146-.066,1.716-.318,7.2-.886,14.625-1.691,22.06-.775,7.172-1.79,14.545-3.016,21.915-.748,4.4-1.6,8.935-2.536,13.481-.894,4.35-1.892,8.852-2.966,13.381-2,8.434-4.286,17.1-6.99,26.506-2.311,8.036-4.934,16.618-8.017,26.234-2.9,9.038-5.837,17.859-8.582,26.046a8.241,8.241,0,0,0,.045,3.09h0a14.574,14.574,0,0,1,.174,1.782c.468,5.114.867,10.339,1.22,15.973.314,5.022.584,10.255.825,16,.447,10.665.723,21.516.991,32.011v.016c.131,5.143.266,10.461.42,15.694a25.837,25.837,0,0,0,.1,3.259v0a13.886,13.886,0,0,1-.362,5.762c7.395-.991,14.947-1.607,22.251-2.2h.008c1.4-.114,2.77-.226,4.145-.341l.066-.043a1.628,1.628,0,0,1,.8-.286.592.592,0,0,1,.481.222c7.109-.559,14.422-1.089,22.357-1.622-1.319-9.437-2.368-19.022-3.119-28.487-.755-9.521-1.227-19.164-1.4-28.658-.177-9.563-.059-19.22.353-28.7.415-9.562,1.138-19.19,2.148-28.616a415.993,415.993,0,0,1,27.352-111.028,3.893,3.893,0,0,1-1.1-2.273,17.813,17.813,0,0,1-.187-2.88v0a15.966,15.966,0,0,0-.153-2.506c-.227-5.591-.256-10.11-.092-14.222a89.862,89.862,0,0,1,1.584-14.112l-.471.028c-.994.057-6.257.339-12.266.339-8.5,0-18.729-.565-19.165-3.259a31.8,31.8,0,0,1-.081-6.9c.2-2.3.563-4.623.919-6.874h0c.4-2.526.812-5.138.981-7.708.348-6.653.548-13.939.611-22.277.056-7.437,0-14.991-.053-22.3l0-.494c-.008-1.14-.017-2.306-.025-3.456a28.729,28.729,0,0,1-3.834.238c-2.065,0-4.148-.178-6.162-.35-1.508-.129-3.067-.262-4.617-.321-1.026-.009-2.109-.013-3.312-.013-1.515,0-3.055.007-4.544.014h-.08c-1.513.007-3.077.014-4.624.014-3.091,0-5.589-.03-7.861-.1,2.32,11.717,4.127,22.274,5.524,32.273.775,5.548,1.434,11.018,1.958,16.259.555,5.548.979,11.042,1.26,16.328l.01.216c.011.224.025.456.039.68v.006a17.362,17.362,0,0,1,.006,3.049,5.29,5.29,0,0,1-1.079,2.775c-1.432,1.788-3.622,2.118-5.739,2.436l-.024,0-.419.064c-7.611,1.157-15.476,2.033-23.379,2.6-7.675.555-15.585.836-23.512.836C93.255,250,89.711,249.943,86.2,249.836ZM53.731,515.572h0c-.115.5-.253,1.029-.437,1.671a8.226,8.226,0,0,1,.762-1.4l.09-.125Zm81.065-2.688-.406,0,0,.232a.443.443,0,0,1-.008.509c-.015.762-.047,1.466-.1,2.152l0-.016C134.436,514.822,134.595,513.844,134.8,512.884Zm-5.16-.237.021.36c.246-.009.5-.009.721-.009h.009c.274,0,.557,0,.833-.014a7.032,7.032,0,0,0,.836-.112,17.781,17.781,0,0,1-2.42-.225ZM216.5,258.3a.33.33,0,0,1,.345.254,27.457,27.457,0,0,1-.321,10.767,62.315,62.315,0,0,1-3.369,10.354,3.276,3.276,0,0,0-1.188,2.1,15.609,15.609,0,0,0-.241,2.728v0c-.016.531-.03,1.033-.077,1.466a21.04,21.04,0,0,0,3.013.228h0a16.133,16.133,0,0,0,3.24-.316,13.47,13.47,0,0,0,2.841-.916,13.025,13.025,0,0,0,2.465-1.467,14.582,14.582,0,0,0,2.117-1.968,18.188,18.188,0,0,0,1.794-2.419,24.108,24.108,0,0,0,1.5-2.82,37.944,37.944,0,0,0,2.219-6.643,88.781,88.781,0,0,0,2.073-15.906c.309-5.619.329-11.272.349-16.74v0c.015-4,.029-7.786.161-11.131a50.959,50.959,0,0,1,.868-8.5,1.273,1.273,0,0,1,.926-.96,94.379,94.379,0,0,0-12.031-.792l-.245-.006-.879-.021a1.826,1.826,0,0,1-.822.576,45.993,45.993,0,0,1-.274,5.1,38.191,38.191,0,0,1-.889,4.992,33.084,33.084,0,0,1-1.6,4.82,30.593,30.593,0,0,1-2.406,4.584,21.911,21.911,0,0,0-3.228,6.942,67.405,67.405,0,0,0-2.409,8.643,74.049,74.049,0,0,0-1.285,8.851,86.9,86.9,0,0,0,.4,17.894c3.977-5.83,5.523-12.791,6.6-19.444A.326.326,0,0,1,216.5,258.3ZM85.407,249.8h0c.038.193.068.372.09.547.055-.187.11-.376.157-.538h-.035c-.064,0-.138,0-.212-.008ZM67.135,230.714c-.144,1.14-.316,2.294-.483,3.411-.3,2.006-.609,4.08-.764,6.136l-.031.181a4.652,4.652,0,0,0,.175,3.154c.428.683,1.3,1.1,2.908,1.381a49.97,49.97,0,0,0,11.734,1.72c5.532.292,11.15.44,16.7.44,6.717,0,13.517-.217,20.213-.645s13.479-1.081,20.122-1.937a19.8,19.8,0,0,1,3.131-.406,24.77,24.77,0,0,0,4.337-.611,3.7,3.7,0,0,0,2.768-2.013c-.146-5.266-.44-10.706-.876-16.17-.415-5.207-.971-10.608-1.654-16.052-1.26-10.048-2.96-20.456-5.2-31.818-1.865-9.469-4.147-19.789-6.978-31.549-2.523-10.485-5.239-21.123-7.866-31.411v0c-4.079-15.975-8.3-32.493-11.891-48.827-1.934-8.792-3.539-16.829-4.905-24.573-.74-4.195-1.417-8.351-2.011-12.354-.623-4.2-1.177-8.374-1.646-12.409a3.487,3.487,0,0,1,.1-2.053l-.508.133c-.471.121-.909.229-1.331.334h0c-2.173.536-3.609.89-4.55,1.851a4.409,4.409,0,0,0-1.059,1.993A16.123,16.123,0,0,0,97.11,22.1a41.625,41.625,0,0,1-1.849,7.283c-.809,2.367-1.777,4.726-2.713,7.007A82.829,82.829,0,0,0,88.74,47.032a8.891,8.891,0,0,0-.244,3.333,8.033,8.033,0,0,0,.371,1.708,5.223,5.223,0,0,0,.745,1.453,3.308,3.308,0,0,0,1.072.944,3.051,3.051,0,0,0,1.461.354,4.153,4.153,0,0,0,.793-.081,1.333,1.333,0,0,1,.391-.06,1.29,1.29,0,0,1,.785.272,1.575,1.575,0,0,1,.5.662,1.429,1.429,0,0,1,.089.768,1.276,1.276,0,0,1-.389.716c-2.5,2.363-4.977,4.824-7.372,7.2l-.006.006-1.476,1.466c2.932,9.888,6.125,19.843,9.491,29.589s7,19.558,10.794,29.142,7.864,19.231,12.08,28.634c4.225,9.422,8.716,18.865,13.349,28.067a1.245,1.245,0,0,1-.042,1.253,1.456,1.456,0,0,1-1.186.686,1.074,1.074,0,0,1-.983-.647c-4.616-9.251-9.093-18.717-13.306-28.133-4.224-9.439-8.3-19.084-12.106-28.666-3.821-9.611-7.479-19.42-10.874-29.153-3.407-9.767-6.641-19.725-9.612-29.595l-.361-1.2c-.153-.423.29-1.2,1.354-2.374.927-1.022,2.2-2.212,3.329-3.261l0,0a27.333,27.333,0,0,0,2.769-2.778,8.385,8.385,0,0,1-2.468-1.752,6.8,6.8,0,0,1-1.424-2.269,8.771,8.771,0,0,1-.534-2.7,14.73,14.73,0,0,1,.2-3.047c.69-4.255,2.917-9.178,5.07-13.938h0c2.236-4.943,4.348-9.611,4.508-13.037a13.361,13.361,0,0,1-3.513.95c-1.2.172-2.449.237-3.655.3h0a36.475,36.475,0,0,0-4.09.368,29.089,29.089,0,0,0-5.2,1.44,37.56,37.56,0,0,0-4.892,2.279,63.39,63.39,0,0,0-8.916,6.121C44.077,50.719,30.05,76.089,16.484,100.624c-.946,1.71-1.923,3.478-2.887,5.215A83.833,83.833,0,0,0,7.3,119.22a65.273,65.273,0,0,0-3.482,14.193,53.408,53.408,0,0,0-.407,7.211,47.737,47.737,0,0,0,.632,7.186A44.065,44.065,0,0,0,8.873,161.8c2.794,5.648,5.8,11.457,8.946,17.265,2.991,5.529,6.2,11.237,9.535,16.968C33.5,206.6,40.187,217.428,47.786,229.148a1.829,1.829,0,0,0,1.508.8,6.275,6.275,0,0,0,2.959-1.286c.389-.25.756-.486,1.093-.66a77.271,77.271,0,0,0,13.047-9.872,78.918,78.918,0,0,0,10.7-12.366c-3.861-4.733-7.551-9.531-10.969-14.26-3.574-4.945-6.958-9.964-10.057-14.916-3.229-5.159-6.246-10.4-8.966-15.58-2.825-5.377-5.414-10.846-7.7-16.253l-.129-.256a28.485,28.485,0,0,1-1.415-3.289,15.116,15.116,0,0,1-.809-3.432,9.143,9.143,0,0,1,.239-3.386,7.929,7.929,0,0,1,1.729-3.151c3.012-3.855,6.06-7.921,9.059-12.084,2.844-3.948,5.742-8.119,8.612-12.4,5.221-7.78,10.505-16.124,16.154-25.51a.146.146,0,0,1,.125-.076.162.162,0,0,1,.132.075.164.164,0,0,1,.011.16c-1.041,2.356-2.172,4.771-3.36,7.179.7,10.386,1.22,21.805,1.589,34.911.329,11.682.51,23.59.685,35.106v.019c.18,11.852.367,24.108.714,36.1,2.673,3.536,5.532,7.157,8.5,10.763a71.393,71.393,0,0,1,15.209-7.957,69.72,69.72,0,0,1,16.679-4.074l.736-.074.255-.026h0a48.6,48.6,0,0,1,4.988-.335,12.007,12.007,0,0,1,5.418,1,5.044,5.044,0,0,1,1.879,1.587,5.444,5.444,0,0,1,.911,2.615,4.618,4.618,0,0,1-.4,1.5,4.132,4.132,0,0,1-.82,1.164,6.616,6.616,0,0,1-2.662,1.519,34.41,34.41,0,0,1-7.735,1.134,53.184,53.184,0,0,0-5.826.645,14.016,14.016,0,0,0-2.469.682,6.63,6.63,0,0,0-1.933,1.113,93.48,93.48,0,0,0,9.678,3.091h0c2.732.765,5.556,1.556,8.246,2.539,1.448.529,2.742,1.07,3.955,1.653a31.32,31.32,0,0,1,3.746,2.112,13.551,13.551,0,0,1,3.006,2.473,4.913,4.913,0,0,1,1.551,3.246c-.078.9-.745,1.584-1.983,2.043-.2.017-.4.025-.607.025a16.669,16.669,0,0,1-3.217-.432h0a22.1,22.1,0,0,0-2.412-.392,13.011,13.011,0,0,1,3.259,1.6,9.4,9.4,0,0,1,2.54,2.568,5.628,5.628,0,0,1,.79,1.808,3.48,3.48,0,0,1-.028,1.96,1.913,1.913,0,0,1-1.406,1.2c-.214.006-.434.009-.655.009a49.357,49.357,0,0,1-10.266-1.474c-1.617-.349-3.29-.71-4.927-.979l.465.189a25.533,25.533,0,0,1,4.155,2.057A7.851,7.851,0,0,1,123,232.649a3.162,3.162,0,0,1,.8,1.6,2.628,2.628,0,0,1-.331,1.646,6.359,6.359,0,0,1-1.647,1.838,7.526,7.526,0,0,1-3.543.825c-2.654,0-5.439-1.123-8.134-2.21h0a34.872,34.872,0,0,0-4.826-1.689,29.591,29.591,0,0,0-6.78-.745,65.816,65.816,0,0,0-8.4.7l-.087.011a64.708,64.708,0,0,1-8.126.686,25.715,25.715,0,0,1-7.124-.941,24.784,24.784,0,0,1-3.746-1.407,29.607,29.607,0,0,1-3.919-2.238h0ZM158.616,22.5c2.019,4.917,3.9,10.133,5.594,15.5,1.609,5.1,3.1,10.51,4.425,16.067,1.251,5.238,2.4,10.789,3.42,16.5.949,5.32,1.817,10.974,2.58,16.8,2.953,22.551,4.1,45.493,5.209,67.68l.051,1.01c.433,13.25.657,23.956.705,33.693.061,12.253-.154,23.27-.658,33.682-.2,1.942-.5,3.926-.8,5.844v0c-.308,1.986-.627,4.041-.826,6.065a35.742,35.742,0,0,0-.137,6.078,117.41,117.41,0,0,0,16.67,1.182h0a123.733,123.733,0,0,0,13.007-.694,23.874,23.874,0,0,1,1-2.259,37.081,37.081,0,0,0,4.527-6.954,35.661,35.661,0,0,0,2.681-7.292,40.331,40.331,0,0,0,1.107-7.541,51.5,51.5,0,0,0-.192-7.7,84.462,84.462,0,0,0-3.19-15.522c-1.482-5.065-3.262-10.027-5.108-15.089-1.01.043-2.094.063-3.314.063-1.4,0-2.825-.027-4.2-.054h-.028c-1.379-.026-2.806-.054-4.211-.054-.409,0-.807,0-1.184.007a55.447,55.447,0,0,1,1.86,9.257v0c.162,1.141.33,2.321.522,3.474.458,2.882,1.048,5.836,1.8,9.032l.19.8q.033.138.068.278a5.422,5.422,0,0,1,.165,3.107,1.628,1.628,0,0,1-1.51,1.115,1.5,1.5,0,0,1-1.051-.44c-1.122-1.279-1.356-3.018-1.582-4.7v0c-.088-.656-.179-1.333-.323-1.961l-.093-.7c-.069-.506-.139-1.015-.218-1.58-.812-5.849-1.651-11.9-.2-17.684a3.743,3.743,0,0,0-.763-.062c-.378,0-.808.027-1.262.056l-.065,0c-.519.033-.985.06-1.437.06a4.453,4.453,0,0,1-1.67-.239,1.175,1.175,0,0,1-.8-1.013,26.6,26.6,0,0,0-.427-3.97,34.764,34.764,0,0,1-.538-5.305c.021-1.9.451-3.161,1.313-3.864a7.039,7.039,0,0,1,4.23-.94c.276,0,.558,0,.785.006h.022c.227,0,.483.006.726.006.259,0,.469,0,.661-.011,2.1-.085,4.152-.16,6.19-.16l.516,0a220.152,220.152,0,0,1-8.462-23.715c-.983-3.451-1.781-6.7-2.438-9.944-.632-3.115-1.115-6.126-1.477-9.207a130.142,130.142,0,0,1-.778-17.818c.107-6.076.5-12.4.949-19.717.355-5.753.758-12.274,1.064-19.534l.054-1.318a.228.228,0,0,1,.067-.168.3.3,0,0,1,.208-.084.218.218,0,0,1,.229.183c.358,2.308.618,4.667.793,7.213.157,2.269.242,4.634.263,7.232.037,4.828-.165,9.743-.36,14.5v.005c-.164,4-.334,8.142-.361,12.208a117.385,117.385,0,0,0,.485,12.19c.19,2.08.458,4.218.8,6.355.323,2.037.721,4.142,1.182,6.255.852,3.9,1.932,7.912,3.3,12.264,2.544,8.087,5.727,16.152,8.8,23.952v0c2.993,7.583,6.087,15.423,8.589,23.274,1.347,4.226,2.42,8.119,3.281,11.9a104.371,104.371,0,0,1,2.064,12.214,48.728,48.728,0,0,1,5.591-.315,69.134,69.134,0,0,1,17.377,2.451c.156-1.356.278-2.735.363-4.1.173-3.058.2-6.205.07-9.356-.122-3.029-.386-6.149-.784-9.275-.382-2.992-.9-6.081-1.536-9.181-.607-2.948-1.342-6-2.186-9.073-.8-2.9-1.716-5.912-2.733-8.952-.95-2.841-2.02-5.808-3.178-8.817-2.033-5.282-4.415-10.9-7.28-17.178-1.524-2.956-2.927-6.014-4.172-9.089-1.235-3.053-2.347-6.205-3.3-9.369-.951-3.142-1.775-6.382-2.45-9.629-.671-3.225-1.212-6.545-1.609-9.867-.742-4.167-1.716-8.361-2.975-12.821-1.124-3.981-2.45-8.075-4.054-12.518-3.08-8.533-6.7-16.971-9.893-24.415a26.986,26.986,0,0,0-1.87-4.1,21.624,21.624,0,0,0-2.312-3.327,19.909,19.909,0,0,0-2.722-2.646,21.347,21.347,0,0,0-3.1-2.056,30.054,30.054,0,0,0-7.2-2.707,66.478,66.478,0,0,0-8.309-1.44c4.342,7.2,8.58,14.285,11.787,19.658a1.992,1.992,0,0,1-.279,2.056,9.228,9.228,0,0,1-1.7,1.68,12.511,12.511,0,0,0-.993.885,14.267,14.267,0,0,1,5.827,5.835,18.713,18.713,0,0,1,1.542,3.852,27.4,27.4,0,0,1,.824,4.306,52.681,52.681,0,0,1,.088,9.464c-.219,3.259-.619,6.561-1.007,9.754h0a93.665,93.665,0,0,0-.994,12.4c-.331,3.864-.6,7.8-.865,11.606v0c-.292,4.234-.594,8.612-.979,12.911-.432,4.819-.925,9.024-1.507,12.855a.615.615,0,0,1-.642.536.794.794,0,0,1-.824-.733c.048-5.171.262-10.82.654-17.272.349-5.75.8-11.593,1.244-17.243v-.013c.536-6.881,1.09-14,1.457-21l.118-1.35c.182-2.108.377-4.568.389-7.081a31.878,31.878,0,0,0-.674-7.213,17.12,17.12,0,0,0-1.065-3.242,11.907,11.907,0,0,0-1.727-2.778A10.091,10.091,0,0,0,181,62.28a11.746,11.746,0,0,0-3.447-1.355,1.379,1.379,0,0,1-1.138-1.2,1.7,1.7,0,0,1,.748-1.782,17.223,17.223,0,0,0,4.044-3.109c-3.855-6.468-7.981-13.4-12.033-20.3l-.187-.315c-.417-.708-.835-1.441-1.239-2.15a60.343,60.343,0,0,0-3.9-6.236,22.423,22.423,0,0,0-2.376-2.735,15.674,15.674,0,0,0-2.853-2.213,24.066,24.066,0,0,0-2.644.3c-.582.088-1.183.18-1.792.241a11.363,11.363,0,0,0,2.785,2.837h0c.6.5,1.164.966,1.554,1.368.437.45.6.756.5.963.306.237.632.477.969.713-.455-1.6-.911-3.184-1.378-4.8ZM99.523,231.058a35.358,35.358,0,0,1,4.453.27,37.542,37.542,0,0,1,6.257,2.061c1.421.562,2.89,1.143,4.359,1.582a17.265,17.265,0,0,0,4.5.784c1.154-.262,1.75-.612,1.774-1.038.019-.353-.346-.751-1.087-1.183a12.445,12.445,0,0,0-2.034-.9c-4.242-2.024-8.655-3.9-12.459-5.5l-3.349-1.4a1.516,1.516,0,0,1-.943-1.721,1.378,1.378,0,0,1,.42-.754,1.277,1.277,0,0,1,.868-.318,1.8,1.8,0,0,1,.413.05c3.531.832,7.025,1.606,9.675,2.188,1.529.312,3.1.652,4.611.98l.028.006a126.328,126.328,0,0,0,14.209,2.522,3.445,3.445,0,0,0-.851-1.224,9.931,9.931,0,0,0-1.567-1.224,31.538,31.538,0,0,0-4.626-2.366c-3.527-1.514-7.626-2.858-10.619-3.839h0c-1.146-.376-2.135-.7-2.84-.952a9.707,9.707,0,0,0-1.981-.526c-1.4-.282-2.994-.6-3.57-1.472a1.459,1.459,0,0,1-.182-1.143,1.051,1.051,0,0,1,.472-.742,1.742,1.742,0,0,1,.924-.213,12.831,12.831,0,0,1,3.619.9h0a11.643,11.643,0,0,0,1.99.584c6.638,1.684,13.519,2.728,20.173,3.737l.236.036a22.7,22.7,0,0,0-4.2-3.3,31.237,31.237,0,0,0-4.745-2.372,84.541,84.541,0,0,0-10.357-3.181h0c-2.955-.771-6.01-1.569-8.826-2.6l-.205-.046c-1.22-.281-2.663-.716-2.994-1.589a1.534,1.534,0,0,1,.343-1.44c2.642-3.894,9.542-4.576,15.087-5.125h.006c1.824-.18,3.546-.351,4.893-.618a4.6,4.6,0,0,0,2.782-1.212,1.208,1.208,0,0,0,.221-.995,1.885,1.885,0,0,0-.68-.9,3.9,3.9,0,0,0-1.222-.579,12.837,12.837,0,0,0-3.558-.4,60.408,60.408,0,0,0-8.454.835c-.622.093-1.158.174-1.55.222a70.56,70.56,0,0,0-8.3,2.1,68.641,68.641,0,0,0-8.067,3.14A62.77,62.77,0,0,0,85,206.339a55.02,55.02,0,0,0-6.813,5.177,1.409,1.409,0,0,1-.945.378,1.486,1.486,0,0,1-.682-.172A80.423,80.423,0,0,1,63.6,224.806c.9.712,1.816,1.387,2.71,2.005a1.208,1.208,0,0,1,1.026.69,29.373,29.373,0,0,0,3.966,2.437,23.842,23.842,0,0,0,3.794,1.53,22.776,22.776,0,0,0,3.671.793,27.085,27.085,0,0,0,3.6.226,64.436,64.436,0,0,0,8.117-.685l.228-.029h0A69.461,69.461,0,0,1,99.523,231.058ZM67.46,93.1c-2.592,4.947-5.421,9.885-8.647,15.094-2.875,4.643-6,9.395-9.556,14.527-1.306,1.879-2.727,3.855-4.346,6.041l-.273.35c-.233.3-.467.588-.693.871a18.5,18.5,0,0,0-3.244,5.026,6.312,6.312,0,0,0-.358,2.761,8.02,8.02,0,0,0,1.068,3.171c1.8,4.36,3.79,8.768,5.929,13.1,2.085,4.224,4.363,8.492,6.771,12.685,2.344,4.082,4.877,8.207,7.527,12.258,2.577,3.94,5.334,7.916,8.195,11.82-.128-5.821-.255-11.691-.377-17.368v-.02C68.887,147.091,68.3,119.866,67.46,93.1Zm135.588,71.515a55.725,55.725,0,0,1-8.055,1.061,21.771,21.771,0,0,0-2.627.279,2.338,2.338,0,0,0-1.448.741,4.023,4.023,0,0,0-.458,2.767c.087,1.4.385,3.365.8,6.089.074.489.158,1.043.247,1.631.708,0,1.447.007,2.259.007,1.6,0,3.216-.009,4.78-.019h.057c1.541-.009,3.135-.018,4.7-.018,1.674,0,3.147.011,4.5.032-1.257-3.4-2.573-6.845-3.845-10.175l-.915-2.4Zm-61.2,6.7h0v0c.007.038.014.075.023.113.041-.012.086-.021.13-.03h0c.044-.009.086-.018.125-.029-.112-.02-.2-.038-.28-.057ZM81.6,193.367a1.5,1.5,0,0,1-1.282-.7c-1.979-4.656-.62-10.669.784-15.387a7.034,7.034,0,0,1-2.631-1.016A5.472,5.472,0,0,1,76.8,174.52a7.26,7.26,0,0,1-.96-3.6,12.686,12.686,0,0,1,.617-4.064l-.015-.241a7.473,7.473,0,0,1,.542-3.959,2.826,2.826,0,0,1,1.331-.868,5.411,5.411,0,0,1,1.664-.221,19.608,19.608,0,0,1,2,.14h0l.053.006h.007a18.277,18.277,0,0,0,1.848.134c.139,0,.274,0,.4-.012,2.255-.232,4.562-.413,6.793-.588h0a134.837,134.837,0,0,0,14.031-1.6c.62-.16,1.256-.382,1.87-.6a12.928,12.928,0,0,1,3.537-.874,2.833,2.833,0,0,1,1.756-.752,2.155,2.155,0,0,1,1.592.787,6.677,6.677,0,0,1,1.353,2.7,8.968,8.968,0,0,1,.338,2.9c.049.67.1,1.36.145,1.968v.006c.114,1.541.232,3.135.335,4.7a12.705,12.705,0,0,0,.187,2.46h0c.252,1.962.565,4.4-.218,5.312a1.053,1.053,0,0,1-.808.368c-5.055-.257-10.181-.365-15.138-.47-5.695-.121-11.583-.245-17.382-.594,0,.65-.017,1.311-.029,1.95-.029,1.511-.059,3.074.02,4.613a22.57,22.57,0,0,0,.255,3.3,14.922,14.922,0,0,1,.082,4.882,1.389,1.389,0,0,1-.546.785A1.523,1.523,0,0,1,81.6,193.367Zm-1.827-30.343a2.725,2.725,0,0,0-1.335.263,1.128,1.128,0,0,0-.435.425,1.447,1.447,0,0,0-.168.708,11.731,11.731,0,0,1-.2,3.48,19.076,19.076,0,0,0-.261,2.253,5.859,5.859,0,0,0,.294,2.187,3.672,3.672,0,0,0,1.343,1.772,6.066,6.066,0,0,0,2.115.921,21.328,21.328,0,0,0,4.844.418c.337,0,.656,0,.95.012,5.045.114,9.671.226,14.143.344,1.5.039,3.018.092,4.491.143h.024c2.689.093,5.47.189,8.207.209-.261-2.061-.395-4.186-.523-6.24-.059-.946-.121-1.925-.193-2.877a21.05,21.05,0,0,1-.134-2.16,9.632,9.632,0,0,0-.84-4.514,33.132,33.132,0,0,1-4.355,1.178c-1.381.279-2.832.495-4.435.658-2.976.3-6.035.378-8.994.449h-.017c-1.372.033-2.79.067-4.181.124a.445.445,0,0,1-.137.327,3.4,3.4,0,0,1-2.152.42c-1.053,0-2.335-.113-3.455-.218l-.236-.022-.176-.017c-1.007-.1-1.877-.179-2.441-.179a2.789,2.789,0,0,0-.4.023l-.558-.048C80.341,163.045,80.057,163.025,79.772,163.025Z" transform="translate(47.736 -6.424)"/>
    </g>
    <g id="Head" transform="translate(95.946 42.662)">
      <g id="HEAD-2" data-name="HEAD">
        <path id="_Skin-2" data-name="âœ‹ Skin" d="M93.824,41.489c-.9-14.742-5.682-31.457-19.76-38.695C43.028-9.662,2.223,21.707.062,53.754-.691,64.724,5.4,76.711,16.529,79.76c2.474,3.279,6.216,5.281,9.91,7.019C70.43,109.6,98.847,91.05,93.824,41.489Z" transform="translate(8.532 22.516)" fill="#d08b5b"/>
        <path id="_Ink-2" data-name="ðŸ– Ink" d="M132.521,47.288q-2.332-6.477-4.925-12.855A132.67,132.67,0,0,0,122.3,22.124C109.825-1.42,87.131-1.42,75.4,1.656,69.316-.965,57.922-.226,51.587,2.14,41.332,5.969,28.832,21.033,24.557,27.8,15.121,42.744,9.232,62.633,15.5,79.9a38.9,38.9,0,0,0,3.041,6.361A24.81,24.81,0,0,1,16,89.153a88.623,88.623,0,0,0-8.041,8.6,42.754,42.754,0,0,0-5.9,10.077c-2.8,6.886-2.94,14.682.768,21.252,3.226,5.717,8.942,9.974,15.381,10.38.331.046.662.088.994.122a18.616,18.616,0,0,0,3.081,3.828c3.638,3.46,12.309,5.236,17.255,5.349.254.2.51.408.765.609a55.261,55.261,0,0,0,9.676,6.48c2.353,1.15,5.439,2.109,7.894,1.28a4.285,4.285,0,0,0,4.045-.021,10.7,10.7,0,0,0,4.19-4.645c2.178-4.477,1.654-9.376,1.095-14.159-.616-5.283-1.209-10.568-1.811-15.851a65.437,65.437,0,0,0-2.221-12.31,28.287,28.287,0,0,0-2.6-5.906.97.97,0,0,0-.021-.46,5.63,5.63,0,0,0-1.986-2.581c-.114-.1-.228-.206-.339-.313a10.671,10.671,0,0,0-1.417-1.365c-.194-.2-.386-.4-.578-.595A48.214,48.214,0,0,1,51.8,93.611c-1.3-1.825-2.472-3.731-3.588-5.672-1.135-1.974-1.886-4.152-3.019-6.112a.311.311,0,0,0-.481-.062,1.542,1.542,0,0,0-.533,1.19L44,82.981a1.192,1.192,0,0,0-1.457-1.022,5.774,5.774,0,0,1-3.223-.111c.182-1.211.351-2.425.517-3.64.3-2.237.585-4.482.827-6.726a9.76,9.76,0,0,1,1.735.6,8.361,8.361,0,0,1,2.23,1.451c.645.593,1.09,1.391,1.877,1.8A1.194,1.194,0,0,0,48.236,74c-.538-2.069-3.583-3.254-5.467-3.645a8.718,8.718,0,0,0-1.969-.178q.224-2.162.391-4.325.078-1.024.145-2.05a10.77,10.77,0,0,1,4.557-.367c.5.4,1,.8,1.491,1.2,1.543,1.275,3.078,2.557,4.6,3.863.137.116.273.232.41.351a1.131,1.131,0,0,0,1.872-1.09c-1.237-8.992,4.271-16.145,10.719-21.686,7.138-6.136,20.116-6.851,28.6-17.479,3.91.8,12.639,3.159,16.241,8.9,5.043,8.044,4.384,15.252,4.768,24.376s1.36,18.657-.713,27.661c-1.912,8.3-7.091,15.4-15.125,18.657-.2.081-.4.159-.6.235A24.316,24.316,0,0,1,85.1,109.6c-4.837-.915-8.875-3.129-12.9-5.852-.232-.154-.571.164-.4.4,5.3,7.03,15.722,9.378,23.986,7.523q.579-.132,1.152-.287a21.739,21.739,0,0,0,.931,16.328,21.982,21.982,0,0,0,6.347,7.935c2.965,2.342,6.643,4.233,8.7,7.52,1.884,3.012,1.325,6.4-1.9,8.137a1.6,1.6,0,0,0-.32,2.491c.308.237.616.479.931.716a37.147,37.147,0,0,0,7.569,4.017c7.133.846,11.93-4.392,15-10.571,3.609-7.253,2.671-16.091-1.306-23-3.19-5.541-9.472-11-6.975-18.015a20.266,20.266,0,0,1,4.484-6.57c2.019-2.2,4.19-4.254,6.126-6.53a23.239,23.239,0,0,0,4.583-7.551c1.391-4.143.7-8.622-.346-12.758C138.527,64.658,135.619,55.9,132.521,47.288Z" transform="translate(-20.144 7.547)"/>
      </g>
      <g id="FACE" transform="translate(37.761 44.084)">
        <path id="_Ink-3" data-name="ðŸ– Ink" d="M25.657,45.461a9.063,9.063,0,0,1-3.431-.684,9.7,9.7,0,0,1-2.239-1.284,9.528,9.528,0,0,1-1.823-1.835,1.877,1.877,0,0,1-.38-1.455,2.1,2.1,0,0,1,.818-1.315,2.018,2.018,0,0,1,1.2-.417,1.744,1.744,0,0,1,.268.021,1.853,1.853,0,0,1,1.24.818l.073.1a6.4,6.4,0,0,0,2.345,1.964,5.334,5.334,0,0,0,2.326.542,5.164,5.164,0,0,0,.576-.032,6.066,6.066,0,0,0,2.561-.9,11.986,11.986,0,0,0,2.169-1.807c.155-.158.32-.33.533-.557a.844.844,0,0,1,.442-.34.908.908,0,0,1,.288-.046.978.978,0,0,1,.322.055.967.967,0,0,1,.48.363.892.892,0,0,1,.152.588,5.387,5.387,0,0,1-.641,2.09,6.979,6.979,0,0,1-1.371,1.757,8.815,8.815,0,0,1-2.077,1.445,8.659,8.659,0,0,1-2.3.789A8.505,8.505,0,0,1,25.657,45.461Zm2.415-13.648h0a8.305,8.305,0,0,1-2.956-.595,14.94,14.94,0,0,1-3.477-1.969,1.333,1.333,0,0,1-.485-.77,1.592,1.592,0,0,1,.069-.865,1.967,1.967,0,0,1,.585-.844,1.427,1.427,0,0,1,.912-.355,1.3,1.3,0,0,1,.706.216l.235.181,0,0a18.824,18.824,0,0,0,2.176,1.51,5.369,5.369,0,0,0,2.609.83,2.822,2.822,0,0,0,1.1-.216,3.08,3.08,0,0,0,1.026-.726,3.137,3.137,0,0,0,.6-2.529,4.774,4.774,0,0,0-1.27-2.243,9.26,9.26,0,0,0-1.923-1.549.594.594,0,0,1-.161-.684.893.893,0,0,1,.3-.426.911.911,0,0,1,.568-.187,1.212,1.212,0,0,1,.2.018,6.458,6.458,0,0,1,2.268.818,5.141,5.141,0,0,1,1.525,1.4,5.568,5.568,0,0,1,.974,3.725,6.128,6.128,0,0,1-.5,1.955,5.7,5.7,0,0,1-1.124,1.68A5.379,5.379,0,0,1,28.072,31.813ZM8.835,18.486A1.979,1.979,0,0,1,6.917,16.73a14.215,14.215,0,0,1,.076-3.709c.045-.36.091-.733.124-1.135A2.219,2.219,0,0,1,7.959,10.3a2.6,2.6,0,0,1,1.6-.561,1.972,1.972,0,0,1,1.208.379,1.787,1.787,0,0,1,.667,1.185,9.934,9.934,0,0,1-1.041,6.133,1.969,1.969,0,0,1-.7.8A1.607,1.607,0,0,1,8.835,18.486Zm28.237-.841a1.7,1.7,0,0,1-1.33-.569,5.182,5.182,0,0,1-.812-1.375,5.978,5.978,0,0,1-.413-1.656,3.506,3.506,0,0,1,.959-3.013,1.987,1.987,0,0,1,.154-.234,2.174,2.174,0,0,1,1.672-.96,1.815,1.815,0,0,1,.508.075,2.443,2.443,0,0,1,1.633,1.422,5.02,5.02,0,0,1,.2,2.751,9.2,9.2,0,0,1-.836,2.6,1.686,1.686,0,0,1-.722.712A2.193,2.193,0,0,1,37.072,17.645ZM.312,8.807A.308.308,0,0,1,.056,8.65a.343.343,0,0,1-.021-.337A11.7,11.7,0,0,1,2.662,4.995,16.241,16.241,0,0,1,6.177,2.6a15.138,15.138,0,0,1,4.175-1.453l.446-.078A10.884,10.884,0,0,1,12.62.87a2.818,2.818,0,0,1,2.248.837,1.9,1.9,0,0,1,.452,1.354,1.24,1.24,0,0,1-.452.885,3.468,3.468,0,0,1-2.374.695c-.187,0-.381,0-.568-.009H11.92c-.18,0-.384-.01-.586-.01-.186,0-.353,0-.508.013a16.081,16.081,0,0,0-3.534.6A24.028,24.028,0,0,0,.477,8.754.293.293,0,0,1,.312,8.807ZM43.306,7.012h0l-.188-.047a10.648,10.648,0,0,1-2.061-.8l-.669-.329A18.614,18.614,0,0,0,38,4.817a28.262,28.262,0,0,0-5.446-1.2A2.228,2.228,0,0,1,31.458,3.2a1.634,1.634,0,0,1-.611-.929A1.659,1.659,0,0,1,31.035.882,1.776,1.776,0,0,1,31.9.14,1.943,1.943,0,0,1,32.633,0a2.169,2.169,0,0,1,.424.042l.341.07A24.407,24.407,0,0,1,39.28,2.019a11.9,11.9,0,0,1,2.587,1.7A7.537,7.537,0,0,1,43.7,6.075c.064.493,0,.615-.062.7l-.019.024-.017.023a.473.473,0,0,1-.292.194Z" transform="translate(12.587 12.325)"/>
      </g>
    </g>
  </g>
</svg>
