<svg xmlns="http://www.w3.org/2000/svg" width="390.67" height="780" viewBox="0 0 390.67 780">
  <g id="peep-standing-11" transform="translate(28.736)">
    <g id="BODY" transform="translate(-28.736 150.264)">
      <path id="_Skin" data-name="âœ‹ Skin" d="M253.507,578.466c.561-2.263-.353-5.2-.879-8.142-.819-4.575-2.754-11.2-6.441-13.278-.654-1.726-22.749-15.638-32.209-22.585-4.859-3.568-4.88-10.21-5.864-10.131-1.873-4.6-2.114-9.138-3.264-14.462,4.274-.56,11.574.447,14.942-1.981.6.04.595-6.54.683-7.469-2.538-6.861-8.775-174.737-2.538-254.7.66-8.9,2.381-18.859.681-28.04a7.548,7.548,0,0,0,4.462-3.6c6.656-13.042-3.555-57.39-9.955-69.668,5.082-.132,11.776-.822,14.923-5.057a5.153,5.153,0,0,0,3.151-2.711,43.64,43.64,0,0,0,2.3-4.076c3.386-7.021,5.475-14.816,4.346-22.551.215-.068,1.324-.075,1.379-.385a14.411,14.411,0,0,0-.813-5.373C232.6,84.021,225.6,64.1,216.344,45.059c-4.637-10.194-14.229-13.913-24.169-17.74-4.782-1.875-9.565-4.039-14.556-5.267-.063-.348.235-1.409-.419-1.322-.808.168-.648,1.464-.948,2.192-11.539-9.428-4.222-14.286-11.18-19.449C157.873-.259,153.605-.41,145.667.4c-2.928.085-5.272,1.4-5.962,4.344a20.9,20.9,0,0,1-14.851,11.941c-.532-.945-1.994-3.654-2.813-2.8-9.294.317-27.253,7.644-35.952,10.191-8.732,2.226-8.622,4.6-10.906,14.068-4.145,16.875-3.369,80.254,7.449,93.61,0,0,5.883,3.922,8.837,4.884-.066,6.244.981,15.546,0,21.652-2.209,11.074-4.9,22.195-7.363,33.328-.011,1.24-9.86,19.627-5.243,16.223.953.468,2.628,2.432,3.654,2.869-4.9,11.156-4,24.85-3.654,38.632.087,8.207-1.834,17.2-3.679,25.605-13.647,71.212-22.9,152.07-27.971,223.4-.207,2.921-.342,5.15-.44,7.227-.1.711.862.7,1.22.337l.493-.479c.549.157,1.427.4,1.984.546a43.455,43.455,0,0,1-.444,6.891c-.26,2.035-3.574,10.925-2.813,12.912-2.526-.134-7.269,4-9.531,8.48-1.16,1.036-.731,2.87-1.582,4.463-1.723,1.656-19.712,12.088-19.712,12.088C11.981,554.332-.314,564.666.842,567.5c0,0-.13.887-.174,1.182C-1.764,582.811,2.287,582.22,15.394,584.3c19.147,3.371,37.256-6.853,53.438-15.518,5.377-3.619,10.615-2.659,10.03-7.03-1.061-5.4-1.25-24.717-7.388-24.28,1.009-1.106.756-11.246,0-13.141-.48-4.881,3.945-9.438,3.709-14.462,2.571.19,7.823,1.393,8.922-1.468-.049-.289-1.263-.283-1.473-.352l.022-.162-.138-.033C93.22,470.2,119.3,297.281,147.608,284.009c.175,1.419,3.29-.265,5.177,0,8.757,68.189,18.784,132.464,24.132,205.4.535,2.163,1.772,17.25,2.294,19.753a10.534,10.534,0,0,0,2.606,1.619c.292,7.7-.7,23.753-.732,23.77l-.512,1.25c-2.982,6.712-5.2,15.694-1.362,22.272-2.851-.207-4.1,2.219-4.224,4.739-1.68,11.05,42.743,20.856,53.06,21.488C231.437,584.889,255.6,580.587,253.507,578.466Z" transform="translate(26.124 -11.143)" fill="#d08b5b"/>
      <path id="_Pants" data-name="ðŸ‘– Pants" d="M35.6,0l1.8.706C77.84,16.592,124.189,19.951,169.48,11.08l1.372-.273,2.336-.47-.35,3.97c-4.634,52.747-7.266,97.4-7.907,140.138-.749,49.91,1.3,96.106,6.594,140.275l.161,1.338.165,1.362-1.279.5a44.4,44.4,0,0,1-11.391,2.565l-.9.107a144.235,144.235,0,0,1-21.14.756l-.453-.014-.624-.021-.022.041-.874-.073-.528-.019-.011-.026-.373-.03-.129-.009-.176-.01-2.38-.1.7-2.214a11.467,11.467,0,0,0,.364-5.083l-.036-.246-.005-.072c-.364-5.212-24.4-196.052-24.4-196.052-.435-3.34-4.368-21.52-6.173-23.986l-.064-.086h0l-.036-.01a1.275,1.275,0,0,0-.429.007,7.262,7.262,0,0,0-2.287.916,22.5,22.5,0,0,0-3.939,2.9l-.1.1-.126.181A109.431,109.431,0,0,0,83.793,98.5l-.166.4-.163.4c-2.615,6.412-10.894,32.683-10.894,32.683C70.951,137.3,37.983,273.9,37.983,273.9c-1.518,6.986-2.7,12.372-3.839,17.526l-.553,2.489L32.119,300.5l-2.064-.1c-1.85-.092-3.65-.214-6.15-.412l-1.025-.082-4.192-.344A137.874,137.874,0,0,0,4.327,298.9l-.264,0-2.126.046.028-1.8-.622-.173-.237-.15L0,296.3l.088-1.213A2068.447,2068.447,0,0,1,29.5,64.629l.406-2.168.03-.378c.342-4.428.968-34.511,1.39-39.576l.049-.572A97.65,97.65,0,0,1,34.941,2.181l.1-.337Z" transform="translate(72.826 199.075)" fill="#ba98de"/>
      <path id="_Shoes" data-name="ðŸ‘Ÿ Shoes" d="M233.771,60.711a4.025,4.025,0,0,1-.673-.048,45.675,45.675,0,0,1-5.392-.79c-2.224-.428-4.852-1.011-7.811-1.731-5.906-1.438-12.693-3.321-19.111-5.3-6.99-2.157-13.034-4.268-17.481-6.107a49.834,49.834,0,0,1-5.774-2.739c-1.49-.867-2.345-1.608-2.54-2.2l.01-.235c.012-.338.017-.718.022-1.121a21.131,21.131,0,0,1,.334-4.22,3.88,3.88,0,0,1,.689-1.588A1.625,1.625,0,0,1,177.355,34c.051,0,.1,0,.155.006a11.2,11.2,0,0,1-.97-2.141,10.774,10.774,0,0,1-.47-2.16,13.464,13.464,0,0,1,.274-4.363,42.554,42.554,0,0,1,3.379-8.78c.364-.774.74-1.574,1.093-2.356l.18-.4.09.205c.01,0,.071-.063.157-.143h0a3.5,3.5,0,0,1,.567-.481.008.008,0,0,1,.007,0,3.028,3.028,0,0,1,.265-.281h.034a5.633,5.633,0,0,0-.215,1.977,2.815,2.815,0,0,0,.552,1.469,3.362,3.362,0,0,0,1.668,1.091,9.034,9.034,0,0,0,2.767.364A7.864,7.864,0,0,0,192,15.8a32.911,32.911,0,0,0,4.051-4.461C197.484,9.547,198.722,8,199.844,7.6l12.234-6.487a.543.543,0,0,1,.187-.034c.663,0,1.413,1.209,2.547,3.038A51.319,51.319,0,0,0,218.437,9.4a31.766,31.766,0,0,0,2.643,2.919,27.8,27.8,0,0,0,3.347,2.781l2.916,2.051.037.026h0c8.769,6.163,18.709,13.148,19.176,14.382a18.264,18.264,0,0,1,3.809,2.78,11.48,11.48,0,0,1,2.366,3.23,10.073,10.073,0,0,1,.962,3.675,13.315,13.315,0,0,1-.4,4.118,16.212,16.212,0,0,1,2.689,4.145,12.339,12.339,0,0,1,.886,2.539,4.316,4.316,0,0,1,.015,2.155,1.87,1.87,0,0,1-1.569,1.319c-.721.171-2.157.583-3.976,1.1-2.648.759-6.275,1.8-9.574,2.626A39.645,39.645,0,0,1,233.771,60.711Zm-208.246-1.5h0c-1.632,0-3.3-.074-4.954-.221-1.7-.15-3.438-.381-5.173-.687l-1.155-.182-.707-.11a63.808,63.808,0,0,1-7.818-1.505A11.455,11.455,0,0,1,3.1,55.415,5.869,5.869,0,0,1,1.3,53.8,6.07,6.07,0,0,1,.41,51.945a10.557,10.557,0,0,1-.388-2.469,33.825,33.825,0,0,1,.647-7.259l.016-.126c.052-.435.156-1.52.157-1.53-.267-.654.6-2.424,2.218-4.508A38.394,38.394,0,0,1,10.4,28.993C15.11,25.506,23.155,20.26,29.03,16.43l0,0c3.9-2.54,6.71-4.375,7.086-4.737.807-1.512,3.155-3.6,4.417-4.727l.189-.169a20.714,20.714,0,0,0,1.611-4.333C42.724,1.019,42.919.3,44.164,0A13,13,0,0,1,47.3,1.053a27.173,27.173,0,0,1,3.425,1.9A21.408,21.408,0,0,1,53.6,5.143,5.138,5.138,0,0,1,55.06,7.068l.041.14c.091.314.2.73.333,1.212A59.839,59.839,0,0,0,57.3,14.429a12.653,12.653,0,0,0,1.268,2.536c.483.691.961,1.042,1.42,1.042a6.8,6.8,0,0,1,2.042.621,10.376,10.376,0,0,0,3.626.971,2.877,2.877,0,0,0,1.936-.658l.261-.24a25.079,25.079,0,0,1,4.809-3.673,6.085,6.085,0,0,1,1.807.319,1.889,1.889,0,0,1,.988.736,2.167,2.167,0,0,1-.121,2.043l.074.544a41.557,41.557,0,0,1,.19,8.175,8.727,8.727,0,0,0-.034.968,21.823,21.823,0,0,0,1.689,3.618,26.307,26.307,0,0,1,1.762,3.718,6.172,6.172,0,0,1,.358,1.7,2.866,2.866,0,0,1-.29,1.477,9.184,9.184,0,0,1-3.83,3.47,47.7,47.7,0,0,1-5.507,2.514h0a28.988,28.988,0,0,0-4.713,2.213c-3.95,2.115-6.949,3.646-9.724,4.964a102.068,102.068,0,0,1-9.6,4.03,65.8,65.8,0,0,1-9.814,2.7c-1.7.323-3.41.57-5.095.733C29.055,59.126,27.28,59.212,25.525,59.212Z" transform="translate(25.174 513.432)" fill="#fff"/>
      <path id="_Ink" data-name="ðŸ– Ink" d="M234.641,584.617c-.325,0-.649-.011-.963-.033a109.622,109.622,0,0,1-14.368-2.078,149.447,149.447,0,0,1-15.2-4.024,141.5,141.5,0,0,1-14.542-5.536,93.272,93.272,0,0,1-12.406-6.613,7.172,7.172,0,0,1-2.276-3.05,7.805,7.805,0,0,1-.493-1.857,7.179,7.179,0,0,1-.011-1.892,5.856,5.856,0,0,1,1.046-2.71,5.665,5.665,0,0,1,2.476-1.918c-2.273-4.13-1.181-9.153-.218-13.584l.017-.077a46.268,46.268,0,0,1,1.377-4.665c.629-1.79,1.522-3.924,2.2-3.924a.329.329,0,0,1,.179.054l.206-.071c-.064-.14-.224-.646-.128-.795a.085.085,0,0,1,.076-.041.37.37,0,0,1,.195.09,4.666,4.666,0,0,0,1.477,1.983,9.51,9.51,0,0,0,2.221,1.36,5.836,5.836,0,0,0,2.117.424,5.128,5.128,0,0,0,2.056-.44,7.571,7.571,0,0,0,1.806-1.145,24.177,24.177,0,0,0,3.107-3.358,17.939,17.939,0,0,1,4.93-4.594,30.071,30.071,0,0,1,2.846-1.668,43.247,43.247,0,0,1,6.167-2.557,31.59,31.59,0,0,1-1.8-6,23.647,23.647,0,0,1-.451-6.551c-1.676.077-3.341.116-4.95.116-2.788,0-5.525-.117-8.136-.347a78.354,78.354,0,0,1-8.058-1.125c.551,3.558.98,7.577,1.275,11.946.241,3.581.393,7.406.452,11.37a1.735,1.735,0,0,1-.286,1.593,2.727,2.727,0,0,1-1.033.817,3.1,3.1,0,0,1-1.29.3,1.878,1.878,0,0,1-1.063-.293,1.435,1.435,0,0,1-.6-.948,41.286,41.286,0,0,1,.064-7.335c.087-1.287.178-2.618.2-3.909,0-.534-.013-1.12-.022-1.74-.055-3.682-.131-8.725.658-12.217l-.21-.051-.019,0a6.594,6.594,0,0,1-1.641-.551,2.506,2.506,0,0,1-.285.017,2,2,0,0,1-.994-.253,2.475,2.475,0,0,1-.767-.7,6.571,6.571,0,0,1-.982-2.429,38.659,38.659,0,0,1-.637-6.633v0a25.806,25.806,0,0,0-.327-3.978c-.941-13.117-2.092-26.486-3.517-40.872-1.27-12.817-2.73-26.151-4.464-40.765-3.221-27.142-6.923-54.69-10.5-81.33l0-.018c-1.842-13.708-3.748-27.883-5.566-41.846-.2-.789-.42-1.588-.631-2.36l0-.008c-.2-.736-.41-1.5-.6-2.249-.02-.078-.041-.158-.062-.235v0l-.014-.054-.021-.08a5.409,5.409,0,0,1-.908-2.668l-.013-.083c-8.461,5.716-11.868,15.676-15.163,25.309-1.148,3.357-2.233,6.527-3.525,9.549-1.867,5.173-3.714,10.564-5.491,16.021-1.694,5.2-3.379,10.638-5.009,16.154-3.009,10.183-5.9,20.856-8.848,32.63-2.454,9.813-4.988,20.584-7.747,32.931-2.459,11.008-4.866,22.225-7.194,33.073v.011c-4.149,19.336-8.44,39.331-13.178,58.847.083.02.123.033.122.04s-.012.005-.035.005-.055,0-.1,0v0a1.579,1.579,0,0,1,1.2.855,1.21,1.21,0,0,1-.086,1.192,3.823,3.823,0,0,1-.873,1.2,3.963,3.963,0,0,1-1.176.735,7.619,7.619,0,0,1-2.9.467c-.9,0-1.8-.083-2.671-.164H78.65c-.374-.035-.728-.067-1.067-.092-.125,1.885-.382,4.119-.655,6.484v0c-.261,2.267-.531,4.611-.7,6.8a36.284,36.284,0,0,0-.09,5.819,3.464,3.464,0,0,1,.185,1.57,1.822,1.822,0,0,1-.829,1.318,3.709,3.709,0,0,1,3.358,2.112,13.2,13.2,0,0,1,1.113,3.92l0,.018c.045.259.088.5.133.738.136.928.375,2.114.629,3.37a68.5,68.5,0,0,1,1.149,6.9c.249,2.637.063,4.492-.569,5.67a4.935,4.935,0,0,1,1.073,1.9,5.169,5.169,0,0,1,.166,2.051,7.293,7.293,0,0,1-1.131,3.058,8.718,8.718,0,0,1-2.278,2.41,38.767,38.767,0,0,1-7.048,3.514h0c-1.095.457-2.227.929-3.3,1.432-3.833,1.468-7.741,3.257-11.52,4.987A159.461,159.461,0,0,1,42,579.607a60.1,60.1,0,0,1-7.879,2.113c-1.36.261-2.713.461-4.024.594a40.731,40.731,0,0,1-4.089.21,37.682,37.682,0,0,1-4.562-.276,37.139,37.139,0,0,1-4.657-.877l-1.731-.377-.065-.014c-7.078-1.535-11.753-2.549-13.806-5.784a8.541,8.541,0,0,1-1.182-4.433,27.635,27.635,0,0,1,.886-6.873,10.269,10.269,0,0,1-.617-2.04A8.719,8.719,0,0,1,.128,559.8,7.565,7.565,0,0,1,.495,557.8a7.2,7.2,0,0,1,.925-1.851,14.4,14.4,0,0,1,4.563-3.671h0l.051-.031c.192-.116.39-.236.582-.354,4.139-2.557,8.4-5.085,12.528-7.53l.008,0,.834-.494.417-.247a86.736,86.736,0,0,1,11.1,3c.644-.116.973-.28.976-.486,0-.262-.515-.6-1.543-1-.831-.324-2-.691-3.462-1.091-2.729-.744-5.5-1.333-5.532-1.339.472-.277.962-.567,1.393-.822,1.175-.695,2.39-1.413,3.61-2.1a58.306,58.306,0,0,1,11.264,3.657c.465-.13.7-.3.692-.515-.038-1.339-9.507-3.868-10.341-4.051a35.3,35.3,0,0,0,4.173-2.666.144.144,0,0,1-.072-.111.1.1,0,0,1,.035-.09c1.6.3,3.286.7,5.29,1.252v0c1.431.395,2.87.827,4.262,1.245l1.145.343a.937.937,0,0,0,.267.041.63.63,0,0,0,.632-.465.572.572,0,0,0-.317-.659c-2.7-.855-6.264-1.939-9.882-2.728a10.7,10.7,0,0,0,2.149-3.05,30.809,30.809,0,0,0,1.345-3.432v0a18.68,18.68,0,0,1,2.7-5.643,2.4,2.4,0,0,1,.825-1.081,4.96,4.96,0,0,1,1.409-.729,11.24,11.24,0,0,1,3.586-.542,11.554,11.554,0,0,1,1.575.1c-.456-1.431.543-4.473,1.424-7.156a27.959,27.959,0,0,0,1.044-3.643,42.68,42.68,0,0,0,.338-5.052l-.118-.032-.022-.006-.329-.091a2.121,2.121,0,0,1-1.48.587,1.822,1.822,0,0,1-1.32-.522,1.718,1.718,0,0,1-.439-1.3c.636-10.288,1.406-20.887,2.289-31.5.853-10.254,1.836-20.835,2.924-31.45,1.047-10.215,2.222-20.777,3.493-31.393,1.218-10.171,2.562-20.713,4-31.332,1.222-10.306,2.807-21.542,4.845-34.35,1.818-11.423,3.82-23.009,5.756-34.213v-.009C72.8,293.5,75.6,277.279,77.938,261.274c.009-.894.017-1.805.025-2.687v-.129c.04-4.617.082-9.392.256-14.093.195-5.281.538-9.875,1.049-14.045.015-1.16.062-2.323.1-3.208.013-.29.025-.585.038-.873l.006-.142a74.873,74.873,0,0,1,.6-7.713,30.864,30.864,0,0,1,2.424-7.942c.383-.876.74-1.651,1.094-2.37l-.117-.054c-.136-.063-.278-.129-.416-.2a3.424,3.424,0,0,1-1.28.3,1.555,1.555,0,0,1-1.269-.592,4.192,4.192,0,0,1-.7-2.282,18.272,18.272,0,0,1,.124-3.376c.281-2.466.874-5.179,1.351-7.358v0c.325-1.485.582-2.659.631-3.269.927-4.951,1.917-9.984,2.875-14.851,2.345-11.921,4.77-24.247,6.479-36.434a21.481,21.481,0,0,1-3.6-1.67,16.852,16.852,0,0,1-3.169-2.393c-1.412-1.148-2.811-3.335-4.158-6.5a78.762,78.762,0,0,1-3.624-11.325A253.05,253.05,0,0,1,71.3,87C70,75.982,69.167,64.549,68.942,54.806c-.113-4.873-.07-9.156.127-12.729a43.465,43.465,0,0,1,1.092-8.463,17.593,17.593,0,0,1,2.9-6.431,21.179,21.179,0,0,1,4.887-4.79,31.259,31.259,0,0,1,6.156-3.372,45.73,45.73,0,0,1,6.709-2.178c4.972-1.409,10.334-2.875,15.855-4.056a108.123,108.123,0,0,1,16.19-2.322,1.339,1.339,0,0,1,.792-.226,1.176,1.176,0,0,1,.825.267,6.271,6.271,0,0,1,1.8,1.974c3.977-.455,6.919-1.533,8.993-3.3a13.97,13.97,0,0,0,3.465-4.948,13.305,13.305,0,0,1,1.559-2.679A4.4,4.4,0,0,1,142.834,0h.057a1.289,1.289,0,0,1,.805.255,1.263,1.263,0,0,1,.427.624,1.615,1.615,0,0,1,0,.95,1.519,1.519,0,0,1-.576.81A4.823,4.823,0,0,0,141.8,4.791a13.024,13.024,0,0,1-2.025,3.543,13.281,13.281,0,0,1-2.93,2.695,13.524,13.524,0,0,1-3.576,1.714,13.4,13.4,0,0,1-3.963.6,13.316,13.316,0,0,1-2.661-.269c1.07,2,1.984,3.991,2.867,5.917.931,2.031,1.895,4.131,3.03,6.209a31.573,31.573,0,0,0,5.134,7.509,34.136,34.136,0,0,0,6.843,5.732,32.837,32.837,0,0,0,7.821,3.657,27.087,27.087,0,0,0,8.067,1.285,20.788,20.788,0,0,0,6.8-1.093,17.489,17.489,0,0,0,5.9-3.418,19.179,19.179,0,0,0,4.479-5.953,28.49,28.49,0,0,0,2.547-8.7,5.364,5.364,0,0,1-2.076-.922,8.846,8.846,0,0,1-1.811-1.768,16.623,16.623,0,0,1-2.623-5.169A18.946,18.946,0,0,1,172.681,10,7.317,7.317,0,0,1,174.3,5.2c.14.652.276,1.321.408,1.968.8,3.94,1.63,8.014,3.894,11.324a3.944,3.944,0,0,1,2.691-1.058,2.77,2.77,0,0,1,.635.069c.06.014.119.033.176.052h0l.012,0a1.748,1.748,0,0,1,.785-.183,1.673,1.673,0,0,1,1.2.485,1.5,1.5,0,0,1,.405,1.126c3.365,1.024,6.988,2.322,11.078,3.968,3.641,1.465,7.3,3.059,10.831,4.6l.007,0,.031.013,1.837.8a29.624,29.624,0,0,1,8.7,5.795,29.174,29.174,0,0,1,3.428,3.943,28.752,28.752,0,0,1,2.677,4.53c2.046,4.225,4.063,8.695,5.994,13.285,1.811,4.305,3.612,8.871,5.353,13.571,3.072,8.294,6.089,17.345,9.225,27.668a24.793,24.793,0,0,0,.838,2.969c.972,3.054,2.3,7.236,1.333,9a1.527,1.527,0,0,1-.979.769,32.537,32.537,0,0,1,.1,5.765,38.709,38.709,0,0,1-.846,5.707,51.539,51.539,0,0,1-3.846,10.885c-.349.589-.667,1.218-1,1.883a20.957,20.957,0,0,1-1.869,3.209,7.243,7.243,0,0,1-1.234,1.292,5.277,5.277,0,0,1-1.574.882A11.032,11.032,0,0,1,231.766,142a15.859,15.859,0,0,1-3.483,1.575,30.413,30.413,0,0,1-7.565,1.268c.817,1.921,1.666,4.2,2.524,6.777.867,2.6,1.722,5.443,2.543,8.444,1.748,6.4,3.246,13.195,4.333,19.659.589,3.506,1.056,6.9,1.386,10.1.353,3.411.554,6.62.6,9.539.1,6.477-.57,11.579-1.981,15.165a1.481,1.481,0,0,1-.52,1.4,5.993,5.993,0,0,1-1.776,1.093,30.644,30.644,0,0,1-4.626,1.427h0c-.535.133-1,.249-1.309.345a83.989,83.989,0,0,1,1.063,13.485c.028,4.97-.273,9.842-.538,13.532-.757,9.608-1.439,19.255-2.025,28.673-.6,9.614-1.115,19.271-1.537,28.7-.43,9.619-.772,19.283-1.018,28.723-.251,9.617-.409,19.285-.469,28.734-.062,9.614-.025,19.282.11,28.735.137,9.611.379,19.276.719,28.726.346,9.606.8,19.264,1.359,28.708.565,9.592,1.248,19.241,2.03,28.68.371,4.716.775,9.523,1.2,14.289q.052.585.105,1.168v0a116.5,116.5,0,0,1,.686,13.1,2.124,2.124,0,0,1-.715,1.57,2.547,2.547,0,0,1-1.52.626,14.89,14.89,0,0,1-4.927,1.894,50.327,50.327,0,0,1-5.394.758c-.923.1-1.8.186-2.663.3a42.184,42.184,0,0,0,1.351,6.184,32.433,32.433,0,0,0,2.181,5.623,5.888,5.888,0,0,1,.91-.077,2.7,2.7,0,0,1,1.949.671,1.379,1.379,0,0,1,.985.846,2.325,2.325,0,0,1,.191,1.307,9.683,9.683,0,0,0,.935,1.573,4.687,4.687,0,0,1,1.2,3.088c.864,1.04,1.757,2.115,2.714,3.157-3.066,1.016-6.3,2.246-10.162,3.871a.72.72,0,0,0-.472.8.541.541,0,0,0,.541.455.8.8,0,0,0,.311-.068c2.415-1.015,4.541-1.86,6.5-2.585h0a28.984,28.984,0,0,0,2.9-1.021c.96-.374,1.952-.761,2.932-1.055a10.037,10.037,0,0,1,2.843-.5,4.893,4.893,0,0,1,1.213.143c.616.414.856.867.714,1.345-.317,1.07-2.505,1.975-3.766,2a60.709,60.709,0,0,0,5.025,3.766,44.3,44.3,0,0,0-4.873,1.528,24.976,24.976,0,0,0-2.931,1.261c-.868.462-1.315.85-1.328,1.154-.011.242.257.432.8.566,4.207-2.412,9.135-3.491,13.9-4.534l.063-.014c.46-.1.935-.2,1.4-.308a2.093,2.093,0,0,1,.627.833,1.1,1.1,0,0,1,0,.763,2.322,2.322,0,0,1-1.248,1.16,5.032,5.032,0,0,1-1.984.479c1.14.727,2.247,1.426,3.375,2.138a21.536,21.536,0,0,1-2.391.983h0c-1.871.7-3.991,1.485-4.387,2.275.044.419.234.623.58.623a4.082,4.082,0,0,0,1.513-.565,4.661,4.661,0,0,1,.963-.421,91.9,91.9,0,0,1,9.737-3.739,1.485,1.485,0,0,1,.506,1.609,2.14,2.14,0,0,1-1.062,1.06,4.531,4.531,0,0,1-1.8.486,27.235,27.235,0,0,0,2.656,1.666,27.462,27.462,0,0,1,2.671,1.675,7.794,7.794,0,0,1,2.068,2.156,10.958,10.958,0,0,1,3.718,2.543,12.851,12.851,0,0,1,2.482,3.7,14.049,14.049,0,0,1,1.154,4.29,12.558,12.558,0,0,1-.266,4.3,11.162,11.162,0,0,1,2.483,3.247,10.055,10.055,0,0,1,1.094,3.9,4.772,4.772,0,0,1-.19,2.1,5.527,5.527,0,0,1-1.024,1.845,6.634,6.634,0,0,1-1.676,1.435,7.244,7.244,0,0,1-2.145.868c-3.193,1.012-6.668,2.017-10.623,3.072-1.141.377-2.653.854-4.226,1.206A19.923,19.923,0,0,1,234.641,584.617Zm-56.354-29.083a6.472,6.472,0,0,0-.3,5.126,7.393,7.393,0,0,0,2.063,2.844,13.127,13.127,0,0,0,3.455,2.134c4.107,1.941,8.2,3.717,12.177,5.28,4.3,1.693,8.587,3.186,12.737,4.44,4.45,1.343,8.874,2.45,13.152,3.288a113.269,113.269,0,0,0,13.421,1.827c2.776-.628,5.586-1.491,8.3-2.325h0l.006,0c2.7-.829,5.494-1.686,8.279-2.323a5.557,5.557,0,0,0,2.345-.708,2.1,2.1,0,0,0,.627-2.039q.019-.217.038-.435h0a30.259,30.259,0,0,0,.171-4.741,8.5,8.5,0,0,1-1.88,2.7,12.721,12.721,0,0,1-2.779,2.034,21.829,21.829,0,0,1-6.744,2.264,15.5,15.5,0,0,1-6.584,1.347c-3.711,0-7.5-1.016-11.155-2-1.55-.416-3.014-.809-4.473-1.129-2.026-.636-4.53-1.355-7.181-2.117-6.134-1.762-13.767-3.955-20.443-6.525-1.738-.669-3.357-1.343-4.81-2-1.577-.716-3.016-1.441-4.28-2.155A30.527,30.527,0,0,1,180.89,558,15.519,15.519,0,0,1,178.287,555.533ZM2.106,566.1h0c.232,1.218.367,2.265.486,3.188.269,2.088.447,3.466,1.456,4.5A5.953,5.953,0,0,0,6.3,575.12a26.443,26.443,0,0,0,4.189,1.073,53.321,53.321,0,0,0,7.605,1.858,44.915,44.915,0,0,0,7.264.6,43.166,43.166,0,0,0,5.8-.394,46.3,46.3,0,0,0,5.711-1.156,54.313,54.313,0,0,0,5.69-1.879c1.855-.725,3.784-1.587,5.734-2.564,5.5-2.309,11.346-4.743,18.4-7.659.795-.37,1.75-.733,2.761-1.119h0a27.381,27.381,0,0,0,6.112-2.912c1.946-1.414,2.68-3.03,2.244-4.94-.211.064-.441.129-.745.211a15.335,15.335,0,0,1-4.32.818,7.187,7.187,0,0,1-1.764-.211c-11.582,3.6-22.6,7.705-30.9,10.879a71.145,71.145,0,0,1-10.4,3.84,43.386,43.386,0,0,1-11.5,1.743c-7.094,0-12.5-2.428-16.068-7.217Zm50.743-60.681a11.688,11.688,0,0,1,.254,5.512,59.49,59.49,0,0,1-1.208,5.978v0c-.209.87-.389,1.621-.51,2.238q0,.09.006.18a6.142,6.142,0,0,1-.025,1.088,2.062,2.062,0,0,1-.412,1,14.87,14.87,0,0,1,2.824,1.139,13.406,13.406,0,0,1,2.311,1.558,14.125,14.125,0,0,1,1.868,1.9,17.01,17.01,0,0,1,1.494,2.173,26.627,26.627,0,0,1,2.142,4.855c.572,1.682,1.032,3.387,1.476,5.035l.027.1c.113.033.236.063.355.092.55.135,1.173.288,1.426.766a12.307,12.307,0,0,0,3.3-3.458h0a17.859,17.859,0,0,1,2.08-2.506,7.214,7.214,0,0,1,1.307-.989,6.41,6.41,0,0,1,1.628-.673,2.275,2.275,0,0,1-1.538-1.234,2.042,2.042,0,0,1,.088-1.8c.708-2.5,1.382-5.831,2.1-9.361v0c.711-3.513,1.446-7.145,2.24-10.024-2.249-.327-4.526-.622-6.728-.907-5.443-.7-11.071-1.433-16.506-2.669Zm131.453.478h0a.435.435,0,0,1,.4.272c2.372.086,4.684.129,6.87.129h0a130.583,130.583,0,0,0,15.738-.874,45.438,45.438,0,0,0,11.469-2.515c-1.4-11.531-2.6-23.434-3.57-35.38-.936-11.537-1.685-23.465-2.225-35.451-.52-11.529-.863-23.472-1.019-35.5-.15-11.509-.134-23.461.047-35.523.172-11.469.5-23.421.973-35.524.446-11.407,1.038-23.352,1.76-35.5,1.291-21.748,3.032-44.921,5.322-70.843a258.354,258.354,0,0,1-50.89,5.115c-7.147,0-14.333-.311-21.357-.925-7.122-.622-14.244-1.57-21.168-2.817-7.034-1.267-14.031-2.872-20.8-4.772a213.3,213.3,0,0,1-20.245-6.79A83.462,83.462,0,0,0,83.256,219c-.552,3.162-.969,6.472-1.276,10.118-.57,6.773-.659,13.709-.746,20.416v.007c-.084,6.5-.171,13.216-.694,19.783-3.571,18.992-6.922,38.434-9.959,57.786-3,19.085-5.769,38.616-8.244,58.05-2.44,19.16-4.659,38.762-6.594,58.263-1.907,19.219-3.592,38.876-5.008,58.423a2.8,2.8,0,0,1,.948.8,5.138,5.138,0,0,1,.68,1.127c.693-.017,1.411-.026,2.133-.026,5.034,0,10.141.424,15.08.833h.007c3.275.272,6.661.553,9.995.708,2.958-13.2,5.867-26.642,8.68-39.646,4.051-18.727,8.239-38.092,12.656-57.076,2.377-10.216,4.628-19.507,6.882-28.405,2.53-9.986,5-19.22,7.543-28.23,1.925-5.668,3.721-11.6,5.459-17.331v0c2.71-8.944,5.513-18.192,8.944-26.976a140.049,140.049,0,0,1,5.723-12.859c1.086-2.125,2.224-4.188,3.384-6.131,1.218-2.04,2.5-4.018,3.812-5.879a22.172,22.172,0,0,1,5.951-4.37,18.242,18.242,0,0,1,3.485-1.327,14.225,14.225,0,0,1,3.611-.487,11.218,11.218,0,0,1,5.734,1.522.192.192,0,0,1,.106.224.25.25,0,0,1-.235.186.235.235,0,0,1-.043,0,12.5,12.5,0,0,0-1.953-.15,15.61,15.61,0,0,0-2.758.259,6.454,6.454,0,0,1-.582.553,3.449,3.449,0,0,0-1.053,1.289c-.044.11-.086.228-.123.351l.01.009,0,0,.009.008a1.758,1.758,0,0,1,.4,1.836,45.9,45.9,0,0,1,1.085,5.61c.09.686.2,1.37.314,2.094a29.514,29.514,0,0,1,.544,6.15c.182.976.369,2.015.608,3.371.221,1.261.439,2.539.65,3.776.42,2.465.855,5.013,1.332,7.512.259,1.356.564,2.728.859,4.054v0c.514,2.311,1.045,4.7,1.351,7.09a.379.379,0,0,1-.171.368c4.43,24.467,8.3,50.646,11.833,80.03,3.522,29.3,6.284,58.4,8.3,80.472.543,6.414.961,11.753,1.313,16.8a13.289,13.289,0,0,1-.4,6.06c.293.012.591.038.853.06l.042,0,.176.015A.444.444,0,0,1,184.3,505.892ZM151.426,117.809a54.1,54.1,0,0,1-.8,7.865c-.125.826-.255,1.68-.369,2.521,1.673-.33,3.37-.633,5.012-.927h0c3.628-.649,7.379-1.32,11.025-2.305-2.646-1-5.2-2.083-7.6-3.229a81.964,81.964,0,0,1-7.268-3.924h0Zm-33.89-15.865a96.893,96.893,0,0,1,13.561,2.308,71.366,71.366,0,0,1,8.211,2.323c2.519.922,4,1.8,4.4,2.6a.925.925,0,0,1-.109,1.038c1.672.943,3.361,1.931,4.994,2.887h0c2.942,1.722,5.984,3.5,9.058,5.092,1.655.856,3.185,1.589,4.678,2.242,1.678.733,3.265,1.347,4.853,1.875-.768-1.7-1.762-3.952-2.64-6.291a49.471,49.471,0,0,1-2.008-6.568,33.973,33.973,0,0,1-.583-3.349,27.6,27.6,0,0,1-.2-3.371A23.664,23.664,0,0,1,162,99.36a21.767,21.767,0,0,1,.773-3.367,6.029,6.029,0,0,1-2.176.381,11.827,11.827,0,0,1-3.632-.677c-1.228-.4-2.451-.925-3.633-1.431l-.007,0c-1.06-.454-2.061-.883-2.989-1.191a54.428,54.428,0,0,0-10.62-3.2,58.054,58.054,0,0,0-11.029-1.05,60.621,60.621,0,0,0-12.323,1.274c-.116.022-.239.052-.357.081a3.416,3.416,0,0,1-.793.131,1.087,1.087,0,0,1-.385-.063c.367,1.7.763,3.427,1.146,5.095.5,2.163,1.01,4.4,1.466,6.609ZM174.8,94.328h0l-.267.532a89.443,89.443,0,0,1,11.378,3.581c3.045,1.108,6.193,2.254,9.344,3.1a44.333,44.333,0,0,0,4.76,1.029,31.236,31.236,0,0,0,4.839.391c.895,0,1.788-.044,2.655-.131.09,0,.185,0,.281,0a8.517,8.517,0,0,0,2.978-.528,4.621,4.621,0,0,0,1.852-1.162.892.892,0,0,0,.26-.953,1.138,1.138,0,0,0-.725-.529,5.473,5.473,0,0,0-1.67-.207,15.951,15.951,0,0,0-2,.146,33.386,33.386,0,0,1-4.226.262,41.41,41.41,0,0,1-4.47-.251c-1.4-.151-2.855-.367-4.449-.662-2.959-.548-5.951-1.289-8.845-2.006h0a113.646,113.646,0,0,0-11.564-2.443A.319.319,0,0,0,174.8,94.328Zm6.042-73.992a2.614,2.614,0,0,0-.641.1l.059.06c.045.046.1.1.157.158a1.278,1.278,0,0,0,.346.045c.019-.091.039-.183.061-.278l.019-.085Z" transform="translate(23.986 -7.585)"/>
    </g>
    <g id="Head" transform="translate(95.946 42.662)">
      <g id="HEAD-2" data-name="HEAD">
        <path id="_Skin-2" data-name="âœ‹ Skin" d="M59.909,0C70.519,0,83.25,5.144,84.332,5.247l.029,0q.854,0,6.675,5.086l-4.2,8.2.34.325c1.628,1.561,3.017,2.983,4.114,4.1,8.956,9.157,10.566,45.109,8.455,57.646s-6.02,24.806-24.22,24.806S37.074,94.471,33.955,91.063A8.856,8.856,0,0,0,26.948,87.8l-.317-.4-.381-.054a23.6,23.6,0,0,1-7.711-2.1C15.5,83.527,12.169,74.5,12.169,72.513c0-1.968-4.98-16.287-5.079-17.8l0-.042C7.088,53.4.583,47.58.583,45.731s-1.311-1.737,0-8.253l.381-1.914c1.4-6.938,4.127-18.426,14.54-23.418C26.948,6.66,49.192,0,59.909,0Z" transform="translate(-1.894 13.914)" fill="#d08b5b"/>
        <path id="_Hat" data-name="ðŸ§¢ Hat" d="M26.948,87.8l-.317-.4-.381-.054a23.607,23.607,0,0,1-7.711-2.1C15.5,83.527,12.169,74.5,12.169,72.513c0-1.968-4.98-16.287-5.079-17.8V54.67c0-1.267-6.506-7.09-6.506-8.939s-1.311-1.737,0-8.253l.381-1.914c1.4-6.938,4.127-18.426,14.54-23.418C26.948,6.66,49.192,0,59.909,0,70.52,0,83.25,5.144,84.332,5.247h.029q.854,0,6.675,5.086l-.986,1.923c-12.817.374-33.893,1.518-43.093,5.01C33.278,22.46,29.782,56.72,29.782,56.72a58.64,58.64,0,0,0-9.559,5.959c-4.779,3.7-2.42,3.817-2.42,3.817s-.206,7.919,1.267,11.061,10.2,3.7,10.2,3.7L30.744,86.2l-.2,2.293A7.935,7.935,0,0,0,26.948,87.8Z" transform="translate(-1.896 13.984)" fill="#9ddadb"/>
        <path id="_Ink-2" data-name="ðŸ– Ink" d="M74.6,110.459a25.46,25.46,0,0,1-8.686-1.53,25.9,25.9,0,0,1-8.064-4.732,9.192,9.192,0,0,0-.87-.792c-.717-.608-1.608-1.364-1.543-1.721a.228.228,0,0,1,.169-.167c.235.249.49.505.78.785a.151.151,0,0,1-.009-.088l-.25-.226c-.507-.469-.74-.77-.692-.893.017-.043.069-.065.155-.065a.889.889,0,0,1,.152.016c.018.021.036.039.056.059l.041.043a3.4,3.4,0,0,1,.344.232l.045.036-.014-.014c-.279-.3-.434-.546-.4-.634.011-.024.036-.037.075-.037a.765.765,0,0,1,.279.088l.079.038c.255.268.52.533.811.808a.156.156,0,0,1,.017-.095l-.256-.248c-.229-.224-.216-.244-.119-.4v0l.028-.044c-.128-.179-.178-.306-.147-.368a.092.092,0,0,1,.09-.042.8.8,0,0,1,.587.4.476.476,0,0,1,.109-.013c.344,0,.663.371.944.7a1.682,1.682,0,0,0,.514.475,26.538,26.538,0,0,0,7.3,4.016,22.9,22.9,0,0,0,7.662,1.339,22,22,0,0,0,8.74-1.811,24.887,24.887,0,0,0,7.856-5.434,31.3,31.3,0,0,0,4.547-5.911,40.136,40.136,0,0,0,3.517-7.663A61.707,61.707,0,0,0,101.4,65.974l-.006-.735c-.034-3.349-.133-6.307-.305-9.045-.2-3.248-.507-6.192-.927-9a74.3,74.3,0,0,0-1.836-8.787A56.619,56.619,0,0,0,95.294,30a31.368,31.368,0,0,0-1.618-3.053c-.416-.75-.86-1.477-1.32-2.161a19.64,19.64,0,0,1-3.908-.723c-.479-.121-.908-.245-1.313-.379-3.648.2-7.315.412-10.861.618h0c-2.649.154-5.388.313-8.121.466l-2,.124a51.475,51.475,0,0,0-8.079,1,18.525,18.525,0,0,0-7.3,3.251,8.706,8.706,0,0,0-1.512,1.371A11.269,11.269,0,0,0,48.1,32.126a29.325,29.325,0,0,0-1.754,3.607,33.574,33.574,0,0,1-1.477,3.127,10.559,10.559,0,0,1-2.062,2.688,15.678,15.678,0,0,0-2.8,2.357,10.115,10.115,0,0,0-1.655,2.412,21.194,21.194,0,0,0-1.529,5.628v0c-.092.509-.187,1.035-.292,1.584a22.6,22.6,0,0,0,.392,3.2,15.34,15.34,0,0,1,.322,4.856,4.027,4.027,0,0,1-.85,1.95,3.8,3.8,0,0,1-.858.755,5.281,5.281,0,0,1-1.215.569c.3.435.327.607.292.675a.094.094,0,0,1-.092.046.869.869,0,0,1-.626-.517h0a.106.106,0,0,1-.022,0c.268.5.282.672.247.731a.06.06,0,0,1-.056.029c-.166,0-.585-.42-.644-.691a.429.429,0,0,1-.178-.119c.252.407.268.558.238.613a.07.07,0,0,1-.067.034.944.944,0,0,1-.515-.356c-.045-.062-.063-.112-.052-.145a4.7,4.7,0,0,0-2.088-1.746,6.518,6.518,0,0,0-2.613-.522,7.2,7.2,0,0,0-1.921.258.1.1,0,0,1-.1.071.137.137,0,0,1-.08-.026,6.67,6.67,0,0,0-4.663,3.9,11.035,11.035,0,0,0-.924,3.183,14.067,14.067,0,0,0-.05,3.461,12.078,12.078,0,0,0,2.15,5.894,5.924,5.924,0,0,0,4.812,2.593,6.473,6.473,0,0,0,1.237-.123.882.882,0,0,1,.173-.02.268.268,0,0,1,.24.1.111.111,0,0,0,.054.044c-.054-.143-.061-.246-.019-.306a.148.148,0,0,1,.129-.057.39.39,0,0,1,.25.1.07.07,0,0,1,.024.048l.037,0,.018,0h.005l.012,0h0c-.036-.2-.033-.327.01-.378a.07.07,0,0,1,.056-.026c.211,0,.729.729.8.941.009.027.01.043,0,.049a.3.3,0,0,1,.112-.038l-.04-.109c-.073-.194-.116-.284-.141-.338a.294.294,0,0,1-.035-.193c0-.019,0-.04,0-.066a1.762,1.762,0,0,0-.111-.238c-.032-.057-.032-.057-.016-.166l0-.011,0-.028a.326.326,0,0,1,.2-.08c.228,0,.363.358.471.646.061.161.113.3.166.327a.5.5,0,0,1-.106-.494.167.167,0,0,1,.151-.1.281.281,0,0,1,.171.071,45.763,45.763,0,0,0,3.616,6.322A33.409,33.409,0,0,0,39.5,93.582c.315.249.733.573,1.168.877a16.029,16.029,0,0,0,2.768,1.777,15.854,15.854,0,0,1,2.385,1.494.139.139,0,0,1-.023.067l.032.029.032.031.483.232a2.6,2.6,0,0,1,.384.405,2.665,2.665,0,0,1,.318.458.226.226,0,0,1-.019.19.115.115,0,0,1-.095.04.327.327,0,0,1-.13-.033c-.055-.019-.11-.04-.164-.06h0l-.084-.032,0,.006a.052.052,0,0,0,.008.01c.024.037.134.3.089.379a.051.051,0,0,1-.049.027.135.135,0,0,1-.041-.008l-.025-.01c-.087-.032-.173-.066-.257-.1l-.089-.035c.105.131.2.273.293.4l0,0,.072.1a.807.807,0,0,1,.216.424c0,.078-.043.118-.114.118l-.03,0c-.133-.043-.266-.09-.408-.142l.038.074c.074.146.154.333.115.4a.05.05,0,0,1-.046.022.21.21,0,0,1-.079-.021c-.188-.058-.386-.13-.6-.218a.054.054,0,0,1-.051.032.161.161,0,0,1-.065-.018,12.212,12.212,0,0,1-1.829-.825c-.31-.226-.627-.452-.934-.672l-.616-.442a11.981,11.981,0,0,1-1.4-.981,30.557,30.557,0,0,1-7.7-7.134,5.943,5.943,0,0,1-4.012,1.3A16.821,16.821,0,0,1,23.48,90.59,37.514,37.514,0,0,1,18.3,88.216a9.924,9.924,0,0,1-2.441-1.895,10.533,10.533,0,0,1-1.687-2.427,13.772,13.772,0,0,1-1.046-2.82A19.659,19.659,0,0,1,12.611,78a11.894,11.894,0,0,0-.749-2.763c-.339-.856-.748-1.672-1.181-2.536a28.258,28.258,0,0,1-2.249-5.53,31.691,31.691,0,0,1-.93-9.193.074.074,0,0,1-.024,0,2.419,2.419,0,0,1-.486-.2,2.423,2.423,0,0,1-.448-.275l-.173-.239a1.469,1.469,0,0,1-.232-.154l-.032.041c-.023.027-.039.041-.047.041a.006.006,0,0,1-.005,0c-.009-.012.005-.063.016-.1,0-.015.008-.029.009-.036l-.3-.409c-.4-.548-.824-1.133-1.233-1.7h0c-.318-.439-.618-.855-.9-1.238l-.02.035c-.014.026-.021.044-.016.054A25.435,25.435,0,0,1,1.525,50.26,13.982,13.982,0,0,1,.277,46.445,10.916,10.916,0,0,1,.01,43.491,15.925,15.925,0,0,1,.4,40.646,79.876,79.876,0,0,1,5.734,27.108a60.052,60.052,0,0,1,4.393-7.477A29.577,29.577,0,0,1,15.4,13.714a13.505,13.505,0,0,1,2.908-2.167A42.822,42.822,0,0,1,22.9,9.253,105.235,105.235,0,0,1,35.649,4.8,141.915,141.915,0,0,1,50.659,1.37C53.242.932,55.738.593,58.078.364,60.541.122,62.851,0,64.943,0A41.618,41.618,0,0,1,69.9.271l.492.064a29.111,29.111,0,0,1,3.87.758A32.855,32.855,0,0,1,86.021,5.938c.572.4,1.382.847,2.319,1.363a25.96,25.96,0,0,1,5.577,3.735,7.52,7.52,0,0,1,.982,1.173,4.668,4.668,0,0,1,.607,1.278,3.627,3.627,0,0,1,.126,1.386,4.309,4.309,0,0,1-.461,1.5,8.887,8.887,0,0,1,.956,2.994,6.424,6.424,0,0,1-.274,2.973,7.016,7.016,0,0,1-.526,1.813,52.734,52.734,0,0,1,5.083,9.888,113.715,113.715,0,0,1,2.8,12.713,97.258,97.258,0,0,1,1.207,12.84,112.341,112.341,0,0,1-.087,12.538c-.149,2.206-.378,4.346-.681,6.36a61.315,61.315,0,0,1-1.26,6.233,48.327,48.327,0,0,1-1.953,5.965,39.145,39.145,0,0,1-2.762,5.556,33.6,33.6,0,0,1-3.687,5.006,31.7,31.7,0,0,1-4.726,4.316,22.816,22.816,0,0,1-6.854,3.642A24.73,24.73,0,0,1,74.6,110.459Zm-18.165-8.838h0l.084.1a.706.706,0,0,0,.161.152.131.131,0,0,1,0-.052c-.048-.037-.1-.077-.148-.12ZM10.72,41.036a65.373,65.373,0,0,1-.1,8.8c-.1,1.69-.2,3.437-.2,5.17a35.015,35.015,0,0,0,.353,5.311,28.645,28.645,0,0,0,1.46,5.707,35.812,35.812,0,0,0,3.117,6.357,15.807,15.807,0,0,1,1.725,5.566,20.084,20.084,0,0,0,.477,2.33,6.6,6.6,0,0,0,.995,2.1c1.058,1.459,2.892,2.585,5.772,3.541l.257.1a20.069,20.069,0,0,0,2.345.744,10.015,10.015,0,0,0,2.368.313,6.5,6.5,0,0,0,1.365-.139l-.174-.282c-.116-.191-.17-.305-.143-.4.018-.061.072-.111.17-.158,0-.009-.01-.019-.016-.028l-.01-.017c-.217-.409-.419-.811-.6-1.195-.063.021-.125.037-.191.054l-.046.012a.177.177,0,0,1,.025.154.15.15,0,0,1-.113.073,4.14,4.14,0,0,1-1.347.225c-.086,0-.174,0-.261-.008l-.118-.009a5.407,5.407,0,0,1-1.361-.256l-.015,0c-.109-.018-.222-.036-.331-.059a8.036,8.036,0,0,1-3.085-1.512,10.513,10.513,0,0,1-3.051-2.64,12.83,12.83,0,0,1-1.967-3.561,15.8,15.8,0,0,1-.667-8.222,12.494,12.494,0,0,1,2.789-6,9.551,9.551,0,0,1,2.54-2.054,9.75,9.75,0,0,1,3.307-1.1,56.587,56.587,0,0,1,1.055-9.159A83.256,83.256,0,0,1,29.779,40.3a75.617,75.617,0,0,1,4.278-10.395,47.806,47.806,0,0,1,5.677-8.876c3.085-3.79,8.557-6.97,15.824-9.2A69.873,69.873,0,0,1,66.072,9.523,75.326,75.326,0,0,1,76.716,8.75c2.072,0,4.077.094,5.959.28l.633.212a19.246,19.246,0,0,1,3.919.92c.874.27,1.776.55,2.684.737A15.747,15.747,0,0,0,87.36,9.36a27.612,27.612,0,0,0-2.754-1.148,29.641,29.641,0,0,0-5.933-2.729,52.854,52.854,0,0,0-6.234-1.668,12.036,12.036,0,0,0-2.612-.346c-1.621-.139-3.3-.21-4.986-.21a76.616,76.616,0,0,0-13.98,1.389c-3.99.737-8.213,1.748-13.693,3.279l-.732.211c-.593.169-1.193.338-1.773.5C29.19,10.176,23.53,11.766,18.93,15.091a27.192,27.192,0,0,0-2.515,2.189,30.785,30.785,0,0,0-2.227,2.446,39.913,39.913,0,0,0-3.729,5.479c-1,1.748-1.983,3.7-3,5.959-.947,2.115-1.809,4.244-2.541,6.074a15.149,15.149,0,0,0-1.33,4.555,14.813,14.813,0,0,0,1.562,8.722A14.221,14.221,0,0,0,7.774,54.06a67.9,67.9,0,0,1,2.359-12.119,2.949,2.949,0,0,0,.138-.469c.061-.27.086-.382.448-.437ZM36.444,76.311c-.15,0-.5-.3-.764-.557a.319.319,0,0,1-.024.238.084.084,0,0,1-.067.028c-.126,0-.366-.183-.735-.56-.123-.126-.239-.251-.332-.352a1.674,1.674,0,0,0-.2-.208,23.363,23.363,0,0,0-4.449-2.721,14.991,14.991,0,0,0-4.929-1.433l-.109-.012c-.4-.051-.615-.142-.689-.286a.356.356,0,0,1,.039-.339,1.059,1.059,0,0,1-.4-.164c-.093-.072-.106-.137-.1-.18.011-.1.126-.166.273-.166h.016c-.175-.115-.253-.242-.218-.358a.328.328,0,0,1,.32-.193.357.357,0,0,1,.14.027.274.274,0,0,1-.007-.245.216.216,0,0,1,.189-.068,1.426,1.426,0,0,1,.25.031l.034.006a1.078,1.078,0,0,0,.167.024.062.062,0,0,0,.044-.011c.142-.22.264-.327.372-.327a.2.2,0,0,1,.118.044l.018.013h0a.115.115,0,0,0,.056.03c.014,0,.025-.011.034-.033a.974.974,0,0,1,.416-.147.212.212,0,0,1,.118.032l.016.01a.1.1,0,0,0,.053.022.084.084,0,0,0,.046-.017c.181-.015.366-.022.551-.022a8.687,8.687,0,0,1,3.023.589,14.035,14.035,0,0,1,2.893,1.516,19.442,19.442,0,0,1,2.558,2.064,19.656,19.656,0,0,1,2.017,2.233.129.129,0,0,1-.1.039c-.2,0-.524-.344-.646-.474l0,0-.028-.029a.108.108,0,0,1-.04.026l.065.092c.2.29.29.465.261.521a.039.039,0,0,1-.038.019,2.148,2.148,0,0,1-.7-.467,3.656,3.656,0,0,1-.63-.643.152.152,0,0,1-.073.021l-.024,0c.025.025.059.056.1.093h0a2.2,2.2,0,0,1,.583.705l.121.1c.551.472.837.912.786,1.049a.061.061,0,0,1-.065.039c-.16,0-.523-.286-.97-.765a.206.206,0,0,1,.021.171l.045.03c.359.251.7.776.653.929A.055.055,0,0,1,36.444,76.311ZM22.9,39.3a1.135,1.135,0,0,1-.576-.149l-.855-.574c-1.388-.929-2.771-1.838-4.429-2.74a1.356,1.356,0,0,1-.857-1.087.76.76,0,0,1,.536-.663,2.878,2.878,0,0,1,.976-.143,8.8,8.8,0,0,1,5.83,2.529,2.439,2.439,0,0,1,.669,2A1.443,1.443,0,0,1,22.9,39.3Zm7.214-8.879a3.289,3.289,0,0,1-1.954-.676l-.777-.505c-1.622-1.062-2.848-1.907-3.748-2.583-1.228-.923-1.815-1.511-1.744-1.748.024-.082.127-.123.305-.123.694,0,2.571.624,5.579,1.855.276.118.566.223.873.334A4.487,4.487,0,0,1,31.214,28.6a1.362,1.362,0,0,1,.1,1.319A1.344,1.344,0,0,1,30.11,30.426Zm6.262-9.035a2.226,2.226,0,0,1-1.132-.321,48.707,48.707,0,0,0-4.373-2.448c-.743-.383-1.511-.778-2.239-1.18a.358.358,0,0,1,.04-.322.769.769,0,0,1,.615-.183,17.329,17.329,0,0,1,4.044,1l.367.121.186.07.355.131.007,0A5.664,5.664,0,0,1,37.131,20a1,1,0,0,1,.143,1A.991.991,0,0,1,36.372,21.391Zm7.652-7.419a6.1,6.1,0,0,1-3.5-1.6c-.409-.3-.831-.615-1.258-.874-.415-.454-.585-.777-.5-.962.054-.122.218-.184.487-.184a14.429,14.429,0,0,1,4.908,1.722l.027.02A1.105,1.105,0,0,1,44.65,13.1a1.044,1.044,0,0,1-.562.867ZM52.455,9.9a2.535,2.535,0,0,1-1.048-.274,6.619,6.619,0,0,1-1.42-.945,7.608,7.608,0,0,1-1.109-.923c-.2-.223-.29-.395-.253-.51s.19-.171.455-.171a9.995,9.995,0,0,1,3.808,1.247,1.043,1.043,0,0,1,.4,1.1A.815.815,0,0,1,52.455,9.9Z" transform="translate(-3.555 12.087)"/>
      </g>
      <g id="FACE" transform="translate(37.761 44.084)">
        <path id="tongue" d="M0,3.364S3.365,5.957,9.64,5.957a19.717,19.717,0,0,0,9.92-2.319S14.06.3,9.64.033,0,3.364,0,3.364Z" transform="translate(30.348 55.101)" fill="#ff6c6c"/>
        <path id="_Ink-3" data-name="ðŸ– Ink" d="M26.928,51.9a26.387,26.387,0,0,1-10.582-2.05,16.125,16.125,0,0,1-3.74-2.31A12.452,12.452,0,0,1,10.2,44.884a6.1,6.1,0,0,1-1.1-3.355,2.608,2.608,0,0,1,.982-2.2,3.724,3.724,0,0,1,2.254-.613,7.632,7.632,0,0,1,1.211.1,78.961,78.961,0,0,0,11,1.078l.637.011a.689.689,0,0,1,.507-.288c1.489-.16,3.023-.186,4.506-.21.557-.009,1.133-.019,1.7-.035.505-.015,1.024-.04,1.525-.065.8-.039,1.631-.08,2.445-.08.536,0,1.017.017,1.471.053l.143.013a7.11,7.11,0,0,1,2.02.484,4,4,0,0,1,1.59,1.121,3,3,0,0,1,.639,2.3,6.259,6.259,0,0,1-1.582,3.3,15.394,15.394,0,0,1-2.765,2.51c-.39.281-.761.523-1.133.74a.74.74,0,0,1-.5.285,15.153,15.153,0,0,1-5.823,1.73C28.929,51.855,27.924,51.9,26.928,51.9Zm-.945-5.676a15.174,15.174,0,0,0-4.675.734,12.43,12.43,0,0,0-2,.923c-.4.213-.811.433-1.223.619a22.4,22.4,0,0,0,4.527,1.167,30.7,30.7,0,0,0,4.677.345c.78,0,1.576-.027,2.367-.08A14.006,14.006,0,0,0,34.346,48.8l-.019-.014c-.221-.159-.45-.324-.687-.467a13.96,13.96,0,0,0-2.309-1.125,15.265,15.265,0,0,0-4.884-.962C26.293,46.228,26.137,46.226,25.983,46.226Zm.9-12.433h0a8.3,8.3,0,0,1-2.955-.594,14.944,14.944,0,0,1-3.476-1.969,1.333,1.333,0,0,1-.485-.77,1.592,1.592,0,0,1,.069-.865,1.967,1.967,0,0,1,.585-.844,1.426,1.426,0,0,1,.912-.355,1.3,1.3,0,0,1,.706.216l.531.408a15.921,15.921,0,0,0,2.083,1.4,5.146,5.146,0,0,0,2.409.72,2.822,2.822,0,0,0,1.1-.216,3.08,3.08,0,0,0,1.026-.726,3.137,3.137,0,0,0,.6-2.529,4.775,4.775,0,0,0-1.271-2.243,9.259,9.259,0,0,0-1.923-1.549.594.594,0,0,1-.161-.684.893.893,0,0,1,.3-.426.911.911,0,0,1,.568-.187,1.212,1.212,0,0,1,.2.018,6.457,6.457,0,0,1,2.268.817,5.14,5.14,0,0,1,1.525,1.4,5.567,5.567,0,0,1,.974,3.725,6.128,6.128,0,0,1-.5,1.956,5.705,5.705,0,0,1-1.124,1.68A5.38,5.38,0,0,1,26.884,33.792ZM37.02,28.06a.671.671,0,0,1-.629-.361l-.161-.345-.162-.345c-.344-.732-.7-1.475-1.045-2.194-.982-2.049-2-4.168-2.86-6.3a8.254,8.254,0,0,1-.651-3.435,4.176,4.176,0,0,1,1.454-3.074,3.109,3.109,0,0,1,2.058-.784,4.111,4.111,0,0,1,2.037.594,6.549,6.549,0,0,1,1.7,1.428l.252.3a5.242,5.242,0,0,1,.791,1.163,7.093,7.093,0,0,1,4.455-1.867,4.612,4.612,0,0,1,1.323.191,4.075,4.075,0,0,1,1.323.673,3.862,3.862,0,0,1,.944,1.052,3.93,3.93,0,0,1,.506,1.321,4.209,4.209,0,0,1,.011,1.482,5.573,5.573,0,0,1-.528,1.6,6.642,6.642,0,0,1-.925,1.354,11.765,11.765,0,0,1-2.576,2.12l-.535.339c-1,.634-2.164,1.395-3.276,2.235a23.451,23.451,0,0,0-2.975,2.641A.729.729,0,0,1,37.02,28.06Zm-24.187,0a.724.724,0,0,1-.531-.212,30.374,30.374,0,0,0-6.035-4.736l-.659-.419a11.992,11.992,0,0,1-2.632-2.139,6.7,6.7,0,0,1-.95-1.37,5.561,5.561,0,0,1-.541-1.624A4.1,4.1,0,0,1,2,14.755,3.85,3.85,0,0,1,2.945,13.7a4.029,4.029,0,0,1,1.323-.671,4.656,4.656,0,0,1,1.322-.189,7.093,7.093,0,0,1,4.458,1.865,5.073,5.073,0,0,1,.821-1.2l.3-.341a6.216,6.216,0,0,1,1.667-1.373,4.151,4.151,0,0,1,1.987-.56,3.144,3.144,0,0,1,2.07.779,4.149,4.149,0,0,1,1.457,3.172,8.8,8.8,0,0,1-.733,3.524c-.864,2.09-1.86,4.177-2.823,6.194-.244.512-.5,1.041-.743,1.562l-.26.551c-.109.229-.215.457-.323.69A.672.672,0,0,1,12.834,28.06ZM.3,10.823a.253.253,0,0,1-.224-.113c-.136-.2-.093-.677.128-1.407C.38,8.729.609,8.18.684,8L.7,7.961A15.5,15.5,0,0,1,3.494,3.5,12.148,12.148,0,0,1,6.476,1.105,7.579,7.579,0,0,1,10.12,0a4.054,4.054,0,0,1,3.348,1.667,1.465,1.465,0,0,1,.163,1.417,1.824,1.824,0,0,1-1.223,1.183,10.487,10.487,0,0,1-1.752.2,8.982,8.982,0,0,0-2,.269A11.759,11.759,0,0,0,5.478,6.374,19.746,19.746,0,0,0,2.425,8.9a6.8,6.8,0,0,0-.5.6c-.467.611-1,1.3-1.615,1.32Zm46.613-2.2a.364.364,0,0,1-.144-.031,10.241,10.241,0,0,1-1.844-1.141,8.807,8.807,0,0,0-2.249-1.3l-.286-.1a16.17,16.17,0,0,0-4.773-.991c-.07,0-.14,0-.208,0a3.013,3.013,0,0,1-.918.144,2.383,2.383,0,0,1-1.288-.345,1.7,1.7,0,0,1-.764-1.118l-.013-.068L34.4,3.529a3,3,0,0,1,.1-1.485A1.851,1.851,0,0,1,35.464.926,3.971,3.971,0,0,1,37.175.557a8.9,8.9,0,0,1,2.286.391l.581.161a13.822,13.822,0,0,1,4.206,1.749l.1.068.149.109a9.424,9.424,0,0,1,2.313,2.408,3.991,3.991,0,0,1,.6,1.512,2.408,2.408,0,0,1-.268,1.537A.241.241,0,0,1,46.915,8.619Z" transform="translate(13.774 10.346)"/>
      </g>
    </g>
  </g>
</svg>
