<svg xmlns="http://www.w3.org/2000/svg" width="390.67" height="780" viewBox="0 0 390.67 780">
  <g id="peep-standing-18" transform="translate(28.736)">
    <g id="BODY" transform="translate(-28.736 150.264)">
      <path id="_Skin" data-name="âœ‹ Skin" d="M42.739,583.372h0a16.947,16.947,0,0,1-2.339-.167c-.644-.062-1.93-.088-3.559-.12-3.434-.069-8.622-.172-13.1-.726a30.424,30.424,0,0,1-5.93-1.222,8.748,8.748,0,0,1-2.04-.963,3.008,3.008,0,0,1-1.131-1.25,2.053,2.053,0,0,1-.036-1.478,5.135,5.135,0,0,1,1.156-1.8A5.285,5.285,0,0,1,15.3,574.1a4.965,4.965,0,0,1,.041-1.5,7.382,7.382,0,0,1,1.257-2.856,31.005,31.005,0,0,1,5.1-5.24l0,0c.793-.7,1.542-1.361,2.232-2.023a147.51,147.51,0,0,0,11.3-12.149c3.584-4.261,7.627-9.3,10.241-15.182a5.817,5.817,0,0,1,1.748-1.919l.336-.2.209-.332c1.5-2.391,2.842-4.878,4.141-7.283v0c.613-1.134,1.246-2.307,1.889-3.456-5.094-1.84-9.553-3.636-14.907-6.006,1.7-10.018,3.75-20.919,6.262-33.326,2.241-11.065,4.635-22.278,6.95-33.122,2.467-11.552,5.017-23.5,7.39-35.3,2.66-13.23,4.806-24.865,6.563-35.569.971-8.459,1.862-17.073,2.723-25.4,1.621-15.678,3.3-31.89,5.58-47.773,1.228-8.551,2.529-16.323,3.975-23.761.784-4.029,1.622-8.006,2.491-11.821.912-4,1.889-7.961,2.905-11.771l1.353.1.754-2.6c-1.153-.03-3.39-.105-4.474-.147l.261,1.329a91.264,91.264,0,0,1-12.062-2.522l-.027-.007c-.916-.235-1.862-.478-2.791-.709a6.417,6.417,0,0,1-2.161-.692,4.36,4.36,0,0,1-1.611-1.432,3.242,3.242,0,0,1-.495-1.344,3.915,3.915,0,0,1,.158-1.642c.162-2.42.519-4.847.865-7.193v0c.272-1.85.554-3.763.739-5.666-1.519-1.037-3.139-2.25-4.816-3.6a26.389,26.389,0,0,0-4.341,2.917h0a38.171,38.171,0,0,1-3.931,2.756,11.252,11.252,0,0,1-1.985.927,6.062,6.062,0,0,1-1.969.354,4.577,4.577,0,0,1-1.533-.26C42.1,233.878,38.4,228.329,34.36,221.7c-3.558-5.839-6.9-11.714-10.134-17.4h0c-2.164-3.8-4.209-7.4-6.23-10.826-2.626-4.267-4.81-7.994-6.674-11.392-2.1-3.825-3.823-7.283-5.272-10.572a81.558,81.558,0,0,1-3.717-10.046c-.484-1.656-.9-3.311-1.228-4.918-.337-1.64-.6-3.287-.782-4.9a52.081,52.081,0,0,1,1.713-20.114c1.955-7.038,5.347-14.472,10.372-22.726,3.077-4.9,6.167-10.254,9.439-15.926l0-.006c3.8-6.585,7.727-13.394,11.972-20.063,2.3-3.607,4.457-6.817,6.607-9.815,2.395-3.339,4.8-6.436,7.149-9.2a101.146,101.146,0,0,1,7.788-8.245,73.822,73.822,0,0,1,8.523-6.936c1.5-1.038,3.039-2,4.567-2.868,1.573-.89,3.183-1.7,4.787-2.409a50.472,50.472,0,0,1,5.02-1.907,48.538,48.538,0,0,1,5.264-1.361c1.127-.21,2.289-.365,3.413-.515,1.4-.186,2.842-.379,4.249-.681a18.764,18.764,0,0,0,4.133-1.352,7.339,7.339,0,0,1,.326-1.71,5.136,5.136,0,0,1,.6-1.268,2.087,2.087,0,0,1,1.483-1.074c.585-.128,1.2-.28,1.789-.426l.01,0a23.552,23.552,0,0,1,5.2-.894,2.2,2.2,0,0,1,.862-.155,6.717,6.717,0,0,1,1.344.186l.287.059a29.167,29.167,0,0,0,2.088-6.961h0c.275-1.3.56-2.641.93-3.9A15.982,15.982,0,0,1,111.712,7.8a8.535,8.535,0,0,1,.357-2.406,5.094,5.094,0,0,1,1.437-2.23,6.885,6.885,0,0,1,1.357-.954,10.942,10.942,0,0,1,1.908-.8A25.015,25.015,0,0,1,122.612.44c2.609-.218,5.7-.44,8.861-.44a43.9,43.9,0,0,1,6.9.473,23.344,23.344,0,0,1,3.1.7,14.261,14.261,0,0,1,2.679,1.1,7.853,7.853,0,0,1,2.164,2.873,14.219,14.219,0,0,1,1.074,3.738,31.745,31.745,0,0,1,.077,7.918,17.616,17.616,0,0,0,.006,5.6,15.17,15.17,0,0,0,.836,3,16.289,16.289,0,0,0,1.611,3.063,12.606,12.606,0,0,1,3.7-.594,10.187,10.187,0,0,1,4.167.882,12.027,12.027,0,0,1,1.913,1.071,15.436,15.436,0,0,1,1.815,1.464,33.946,33.946,0,0,1,6.529,9.355,121.438,121.438,0,0,1,12.634,2.172,32.3,32.3,0,0,1,4.635,1.5A19.88,19.88,0,0,1,189.13,46.4a22.006,22.006,0,0,1,6.107,6.859,78.024,78.024,0,0,1,5.595,12A273.863,273.863,0,0,1,211.5,93.031a83.485,83.485,0,0,1,2.431,9.055c.655,3.041,1.2,6.152,1.732,9.162v.006c.512,2.911,1.042,5.921,1.669,8.873a87.087,87.087,0,0,0,2.3,8.794c2.534,6.339,5.072,12.116,7.527,17.7v0c3.8,8.654,7.392,16.828,10.334,25.679a142.023,142.023,0,0,1,3.885,13.96c.561,2.509,1.062,5.088,1.489,7.665.446,2.688.829,5.473,1.137,8.276.39,3.209.65,6.177.772,8.822a60.84,60.84,0,0,1-.008,6.486,24.587,24.587,0,0,1-.6,4.35,6.724,6.724,0,0,1-1.017,2.413c-2.075-.6-4.524-1.162-7.278-1.671-2.419-.447-4.993-.835-7.444-1.122l4.953,3.767a52.463,52.463,0,0,0-.954,9.222c-.126,3.551-.109,7.477-.09,11.633.018,4.076.037,8.292-.079,12.5a119.423,119.423,0,0,1-.887,12.307c-.27,2.038-.606,3.954-1,5.694a41.775,41.775,0,0,1-1.507,5.18,27.327,27.327,0,0,1-2.115,4.511,18.859,18.859,0,0,1-2.825,3.686,15.465,15.465,0,0,1-2.363,1.946,14.991,14.991,0,0,1-2.765,1.45,16.628,16.628,0,0,1-3.2.906,20.785,20.785,0,0,1-3.664.313h0a27.348,27.348,0,0,1-3.43-.227c-.223-.543.042-2.993.236-4.782.061-.567.115-1.057.148-1.437-.5.035-1.312.073-2.07.073a11.629,11.629,0,0,1-1.365-.062c-.738,2.13-1.667,4.192-2.565,6.186a67.768,67.768,0,0,0-2.826,6.961c-.714,2.722-1.62,5.492-2.563,8.326-2.561,8.624-4.907,17.356-6.971,25.952-2.054,8.552-3.889,17.223-5.457,25.772-1.558,8.5-2.9,17.131-3.981,25.657-1.076,8.466-1.932,17.081-2.544,25.606-.607,8.456-.992,17.076-1.145,25.619-.151,8.467-.078,17.113.217,25.7.292,8.5.81,17.19,1.539,25.837.721,8.548,1.672,17.31,2.824,26.041l-.416.151-.169.3-.253.095a1.991,1.991,0,0,1-1.213.778,8.348,8.348,0,0,1-1.828.129c-3.922.138-7.585.291-11.127.438h-.025c-4.625.193-8.994.374-13.165.49.7,3.508.368,7.2.045,10.772-.034.377-.073.8-.109,1.218.322-.023.649-.034.972-.034a17.032,17.032,0,0,1,5.685,1.055,40.475,40.475,0,0,1,5.466,2.5c8.689,4.265,15.732,7.995,22.165,11.74,1.316.842,2.81,1.678,4.256,2.487,4.6,2.577,9.366,5.242,10.21,8.912a5.383,5.383,0,0,1-.041,2.53,8.834,8.834,0,0,1-1.382,2.869l1.669.655a.692.692,0,0,1,.113.055c.1.374-.471,1.313-1,2-.575.757-1.361,1.572-1.726,1.572H200.1c-1.349.063-2.72.095-4.076.095a107.686,107.686,0,0,1-16.48-1.371c-5.573-.849-11.239-2-17.8-3.327h0c-3.532-.716-7.184-1.457-11.148-2.215a75.6,75.6,0,0,0-7.811-1.785h-.008c-4.132-.828-9.274-1.858-13.262-3.045a25.8,25.8,0,0,1-4.964-1.916,5.966,5.966,0,0,1-1.457-1.062,1.741,1.741,0,0,1-.541-1.133,1.183,1.183,0,0,1,.67-1.081,4.045,4.045,0,0,1,1.3-.3c.18-.022.349-.042.511-.071a25.54,25.54,0,0,1-.54-5.643,17.248,17.248,0,0,1,.669-4.42,27.576,27.576,0,0,1,3.465-6.983,41.845,41.845,0,0,0,3.007-5.446,23.7,23.7,0,0,0,1.172-3.33,25.377,25.377,0,0,0,.736-4,20.494,20.494,0,0,1-3.779.444,8.955,8.955,0,0,1-2.395-.3c-.349-5.67-.55-11.9-.615-19.037-.058-6.369-.005-12.871.046-19.159v-.006c.067-8.183.136-16.644-.037-24.97-.093-4.482-.247-8.563-.471-12.477-.251-4.4-.583-8.467-1.013-12.447l-3.227-.357-1.383,4.066-.273.8v0c-5.1,15.006-10.383,30.523-15.337,46-2.67,8.343-5.022,15.972-7.191,23.322-2.438,8.263-4.581,15.953-6.55,23.509a.41.41,0,0,1-.414.375,1.907,1.907,0,0,1-.926-.41,116.273,116.273,0,0,1-16.831-1.687c-.137,3.344-.282,6.794-.41,9.838l.853.458c.551.766.318,4.359.219,5.893l-.014.213a18.89,18.89,0,0,0-.03,3.577,3.191,3.191,0,0,1,.319,1.4,6.181,6.181,0,0,1-.232,1.668,16.828,16.828,0,0,1-1.693,3.847,72.021,72.021,0,0,1-5.349,7.679l-.574.751c-1.346,1.742-2.678,3.689-3.966,5.571-2.546,3.721-5.178,7.567-8.288,10.457a19.252,19.252,0,0,1-5.089,3.506,14.58,14.58,0,0,1-6.154,1.339ZM66.916,94.156h0c-3.769,7.351-7.529,14.06-11.495,20.512-4.212,6.851-8.733,13.543-13.823,20.46a33.673,33.673,0,0,0-3.537,4.741,9.109,9.109,0,0,0-1.325,3.741,7.625,7.625,0,0,0,.047,1.812,12.029,12.029,0,0,0,.456,1.942,46.318,46.318,0,0,0,1.948,4.782,224.327,224.327,0,0,0,13.445,26.126A280.96,280.96,0,0,0,69.6,203.447c-.152-6.849-.3-13.825-.448-20.572l-.005-.24v-.011c-.625-28.947-1.271-58.88-2.233-88.468Z" transform="translate(49.555 -14.221)" fill="#d08b5b"/>
      <path id="_Shoes" data-name="ðŸ‘Ÿ Shoes" d="M24.722,51.329a110.286,110.286,0,0,1-19.187-2L4.9,49.219l-.771-.138-1.68-.307-.393-.4A6.6,6.6,0,0,1,.059,44.7a6.339,6.339,0,0,1,.79-3.942A12.453,12.453,0,0,1,2.686,38.2,35.8,35.8,0,0,1,5.741,35.3L7.73,33.578a14.315,14.315,0,0,0,2.588-2.523L10.5,30.8l.088-.092a169.091,169.091,0,0,0,11.3-12.857A98.953,98.953,0,0,0,31,4.127l.206-.379.31-.574.609-.238a19.138,19.138,0,0,1,6.953-1.313,18.635,18.635,0,0,1,4.256.49,17.972,17.972,0,0,1,4.031,1.471l.154.079.149.079.154.084a18.972,18.972,0,0,1,2.587,1.815l.641.506.3.233A10.319,10.319,0,0,0,53.612,7.82a4.833,4.833,0,0,0,1.9.4,2.258,2.258,0,0,0,1.6-.487l.029-.033.026-.033.716-2,1.279,13.664-.276.423c-.37.57-.685,1.075-.993,1.589l-.185.311-.626.933-.406.613c-.548.83-1.147,1.752-2,3.081L52.407,29.8l-.946,1.462c-2.413,3.712-3.962,5.948-5.717,8.25l-.466.607-.243.3-.242.3a44.32,44.32,0,0,1-3.28,3.6,32.867,32.867,0,0,1-3.435,2.939A25.621,25.621,0,0,1,34.463,49.5a21.746,21.746,0,0,1-3.822,1.506l-.175.049L30.3,51.1l-.169.014C28.333,51.258,26.562,51.329,24.722,51.329Zm157.558-15.5h0l-.579-.042c-4.922-.354-9.873-.884-15.135-1.621-5.135-.719-10.415-1.614-16.14-2.735l-1.1-.217c-8.1-1.61-16.064-3.436-28.418-6.513l-2.319-.58-3.78-.95-.1-.009a7.538,7.538,0,0,1-2.74-.8,6.3,6.3,0,0,1-2.009-1.655,8.41,8.41,0,0,1-1.655-5.329l0-.242v-.2a19.4,19.4,0,0,1,1.177-6.4,46.641,46.641,0,0,1,2.425-5.546L112,2.82l.088-.171L115.124.324a5.167,5.167,0,0,1-.086,1.628,16.185,16.185,0,0,0-.166,1.688,2.378,2.378,0,0,0,.241,1.319,1.451,1.451,0,0,0,.938.554,6.271,6.271,0,0,0,1.426.126c.334,0,.672-.012,1-.023h0c.256-.009.5-.017.728-.02l.292,0,.3-.008c.454-.015.936-.042,1.613-.09l1.9-.139.159-.01.154-.008.3-.014.187-.007.071-.005a14.844,14.844,0,0,0,4.878-1.6c.915-.409,1.952-.872,3.182-1.356l1.758-.7C135.821.942,136.78.6,137.942.239l.172-.053.091-.018A9.57,9.57,0,0,1,140.028,0a16.644,16.644,0,0,1,5.092.931,46.88,46.88,0,0,1,6.354,2.7l.361.181.388.2c.88.449,1.845.96,2.951,1.562l1.671.919.868.479c.912.5,1.855,1.025,2.24,1.235l.483.262.439.236c1.116.6,1.982,1.032,2.726,1.371l.25.113.06.032c6.679,3.617,12.626,7.091,18.18,10.619l.443.282.149.082a11.874,11.874,0,0,1,3.818,3.165A6.446,6.446,0,0,1,187.867,28c.1,2.615-1.566,5.194-4.695,7.262l-.2.127-.2.129-.492.307Z" transform="translate(64.667 516.7)" fill="#fff"/>
      <path id="_Jacket" data-name="ðŸ§¥ Jacket" d="M93.715,233.782c-3.688,0-7.5-.056-11.318-.166l-.27-.008-.137,0-.012-.093-.335-.023c-.749-.052-1.665-.093-2.635-.137H79l-.046,0a84.761,84.761,0,0,1-9.114-.766,25.507,25.507,0,0,1-4.222-.981,8.4,8.4,0,0,1-3.023-1.642c-.042-.04-.085-.081-.131-.128-.006-.061-.012-.118-.017-.175a33.7,33.7,0,0,1,.669-8.494l0-.025c.231-1.408.471-2.864.6-4.28.024-.254.046-.52.067-.813.221.157.446.313.671.464a29.07,29.07,0,0,0,3.851,2.2A24.367,24.367,0,0,0,72,220.09a25.288,25.288,0,0,0,7,.924,63.5,63.5,0,0,0,7.978-.673l.074-.009a67.126,67.126,0,0,1,8.554-.711,30.046,30.046,0,0,1,6.885.757,35.734,35.734,0,0,1,4.9,1.712l.246.1c2.542,1.026,5.17,2.087,7.676,2.087a7.139,7.139,0,0,0,3.317-.762,5.114,5.114,0,0,0,1.635-1.976,2.017,2.017,0,0,0-.1-1.735,6.179,6.179,0,0,0-2.446-2.238,27.14,27.14,0,0,0-3.391-1.621l-.229-.094-3.956-1.6c1.123.132,2.447.3,3.747.509,1.645.271,3.326.633,4.95.984l.057.012A48.594,48.594,0,0,0,129,217.2c.2,0,.4,0,.59-.008a1.579,1.579,0,0,0,.767-.452,1.6,1.6,0,0,0,.367-.867,4.584,4.584,0,0,0-.786-2.876,10.374,10.374,0,0,0-5.586-4.026l.192-.921a22.491,22.491,0,0,1,2.47.4l.067.014a15.778,15.778,0,0,0,3.047.409c.175,0,.347-.006.512-.019a2.689,2.689,0,0,0,1.422-1.019,1.663,1.663,0,0,0,.073-1.44,6.715,6.715,0,0,0-1.794-2.56,13.156,13.156,0,0,0-2.41-1.866,31.146,31.146,0,0,0-3.711-2.093c-1.2-.577-2.479-1.113-3.911-1.636-2.659-.972-5.447-1.753-8.144-2.508l-.072-.02a93.782,93.782,0,0,1-9.728-3.108c-.22-.088-.444-.181-.666-.274a5.691,5.691,0,0,1,.534-.525,6.923,6.923,0,0,1,1.983-1.15,14.444,14.444,0,0,1,2.532-.716,51.045,51.045,0,0,1,5.987-.686l.148-.011c1.529-.114,3.111-.232,4.545-.443a14.28,14.28,0,0,0,3.827-1.008,4.956,4.956,0,0,0,1.8-1.309,3.841,3.841,0,0,0,.851-2.072,4.88,4.88,0,0,0-.913-2.466,4.345,4.345,0,0,0-.965-.923,5.774,5.774,0,0,0-1.21-.64,12.713,12.713,0,0,0-4.626-.7c-1.5,0-3.006.14-4.3.27l-1.215.124-.431.043a69.251,69.251,0,0,0-16.565,4.047,70.906,70.906,0,0,0-15.1,7.9l-.208.143-.035.024-.116.08-.141-.17-.137-.167c-2.969-3.608-5.833-7.234-8.512-10.778-.027-.035-.059-.078-.091-.122v-.015c0-.045,0-.09,0-.134-.346-11.984-.533-24.223-.713-36.058v-.035c-.176-11.539-.358-23.471-.687-35.178-.37-13.131-.891-24.573-1.592-34.979l.459-.94.117-.241.773-1.591-.042.068-.012.019-.294.484-.668,1.106-.961,1.6L65.7,74.8l-.012.023,0,.009a.62.62,0,0,0-.1-.008.649.649,0,0,0-.113.01.683.683,0,0,0-.489.383,1.635,1.635,0,0,0-.128,1c.008.049.017.1.028.147l-.077.146c-.158.3-.314.6-.464.878-6.563,10.627-12.766,19.945-18.963,28.486a48.263,48.263,0,0,1-4.2,5.555l-.239.289a54.023,54.023,0,0,0-4.606,6.106,14.66,14.66,0,0,0-1.466,3.08,7.34,7.34,0,0,0-.374,3.006c1.038,3.048,2.211,6.151,3.485,9.223,1.231,2.967,2.594,5.993,4.051,8.992,1.4,2.888,2.933,5.838,4.55,8.769,1.55,2.81,3.227,5.687,4.984,8.553,1.676,2.733,3.477,5.541,5.353,8.345,1.777,2.657,3.68,5.4,5.656,8.145,3.6,5.01,7.513,10.152,11.958,15.721l0,.006c.067.084.144.18.213.273l-.2.282,0,.006a79.4,79.4,0,0,1-10.77,12.441A77.754,77.754,0,0,1,50.654,214.6c-.333.182-.665.394-1.017.618l-.02.013a7.74,7.74,0,0,1-2.962,1.363,2.82,2.82,0,0,1-.313.018,2.264,2.264,0,0,1-1.869-.985c-7.613-11.739-14.308-22.587-20.466-33.164-3.339-5.734-6.55-11.448-9.544-16.983-3.144-5.813-6.156-11.626-8.953-17.278A44.528,44.528,0,0,1,.646,134.1,48.2,48.2,0,0,1,0,126.857a53.868,53.868,0,0,1,.4-7.268,65.725,65.725,0,0,1,3.5-14.306,84.212,84.212,0,0,1,6.339-13.49l.867-1.564c.669-1.208,1.337-2.415,2.019-3.648C19.864,74.4,26.825,61.815,34.708,50.024A196.476,196.476,0,0,1,47.327,33.042c2.306-2.758,4.674-5.4,7.04-7.857,2.486-2.58,5.053-5.042,7.632-7.316l.367-.292c1.526-1.209,2.931-2.252,4.3-3.189a51.584,51.584,0,0,1,4.567-2.821,37.658,37.658,0,0,1,4.853-2.229,29.448,29.448,0,0,1,5.153-1.413,39.61,39.61,0,0,1,4.217-.382l.075,0c1.148-.063,2.335-.127,3.485-.282a14.447,14.447,0,0,0,3.374-.83c.215-.084.437-.179.659-.282.005.259,0,.51-.01.747a17.588,17.588,0,0,0,.047,4,.034.034,0,0,0,.025.012c.129,0,.329-.9.6-2.664a19.214,19.214,0,0,1,.391-3.232,4.858,4.858,0,0,1,1.621-2.846A9.579,9.579,0,0,1,99.39.683l1.7-.423L102.122,0c.471,4.139,1.028,8.423,1.658,12.733.6,4.106,1.283,8.37,2.033,12.672,1.383,7.941,3.011,16.182,4.977,25.195,3.652,16.744,7.946,33.671,12.1,50.042l.009.035h0c2.538,10,5.162,20.348,7.618,30.568,2.75,11.443,4.987,21.486,6.837,30.7,2.22,11.057,3.945,21.185,5.275,30.962.72,5.3,1.328,10.553,1.807,15.62.5,5.316.881,10.609,1.124,15.733l.023.174a7.129,7.129,0,0,1-.347,3.841,3,3,0,0,1-.894,1.127,3.247,3.247,0,0,1-1.53.6,52.793,52.793,0,0,1-6.036.967l-.061.007c-.478.058-1.019.123-1.537.19l-1.067.14c-6.5.844-13.279,1.48-20.155,1.889C107.437,233.585,100.627,233.782,93.715,233.782Zm98.2-4.5a117.9,117.9,0,0,1-16.738-1.187l-.013,0-.381-.056c-.005-.137-.01-.271-.014-.4a84.947,84.947,0,0,1,1.112-13.806l.006-.042c.328-2.411.666-4.9.882-7.364a51.645,51.645,0,0,0,.173-7.409l.02-3.657c.072-14.1.1-29.284-.221-44.788-.338-16.548-1.025-31.215-2.1-44.839-.606-7.666-1.351-15.167-2.216-22.294-.92-7.582-2.009-15.029-3.238-22.134-1.295-7.488-2.79-14.861-4.444-21.916-1.731-7.383-3.694-14.663-5.835-21.64-.018-.861-.95-2.272-2.768-4.193-1.448-1.53-3.067-2.962-3.676-3.5h0c-.158-.139-.253-.224-.27-.242a24.38,24.38,0,0,1-2.059-2.642c-.208-.309-.412-.629-.608-.953.351.079.717.154,1.088.223a28.217,28.217,0,0,0,3.647.424h0l.095.006a5.786,5.786,0,0,1,3.018.712,16.684,16.684,0,0,1,3.681,3.882,42.715,42.715,0,0,0,5.259,6.367A17.988,17.988,0,0,0,169,20.179l0,0s0-.007,0-.014c.313.035.627.071.96.111a63.536,63.536,0,0,1,9.2,1.669,27.959,27.959,0,0,1,7.8,3.313,20.975,20.975,0,0,1,2.726,2.067,20.459,20.459,0,0,1,2.408,2.575,22.6,22.6,0,0,1,2.065,3.151,27.828,27.828,0,0,1,1.7,3.8l1.03,2.4c3.145,7.349,6.454,15.2,9.319,23.29,1.494,4.217,2.735,8.121,3.794,11.937,1.178,4.241,2.095,8.236,2.8,12.215.4,3.315.936,6.625,1.6,9.841.673,3.237,1.494,6.465,2.441,9.6.954,3.152,2.061,6.292,3.291,9.333,1.239,3.062,2.636,6.107,4.154,9.051,2.876,6.3,5.266,11.938,7.307,17.244,1.162,3.019,2.234,6,3.188,8.849,1.019,3.05,1.941,6.072,2.74,8.982.846,3.081,1.583,6.143,2.191,9.1.639,3.11,1.157,6.208,1.539,9.21.4,3.137.664,6.267.785,9.3.127,3.159.1,6.317-.071,9.384-.086,1.376-.209,2.764-.366,4.125-.024.212-.045.384-.065.542l-.526-.138a68.674,68.674,0,0,0-17.255-2.436,48.279,48.279,0,0,0-5.538.313l-.329.039-.03,0-.118.014a12.964,12.964,0,0,1-.035,1.939,31.412,31.412,0,0,1-.918,5.281,52.145,52.145,0,0,1-3.042,8.506,80.283,80.283,0,0,1-6.392,11.377,14.741,14.741,0,0,1-1.65,1.914c-.253.265-.435.457-.446.485l-.29.031A124.256,124.256,0,0,1,191.911,229.278Z" transform="translate(50.659 8.272)" fill="#78e185"/>
      <path id="_Top" data-name="ðŸ‘• Top" d="M52.5,0C63.716,41.016,67.569,87.607,68.858,129.954l.078,2.592.159,5.4c-5.117.766-12.222.214-17.375.289-6.292.385-14.128-.048-20.269.975l-.383.066-.249.05-.3-1.432C21.342,94.477,8.059,49.331,0,5.667A18.154,18.154,0,0,0,4.788,7.224C15.239,9.765,27.532,9.285,38.257,8.67,44.37,8.621,49.446,5.25,52.5,0Z" transform="translate(157.622 28.844)" fill="#9ddadb"/>
      <path id="_Ink" data-name="ðŸ– Ink" d="M42.408,577.471a140.542,140.542,0,0,1-19.973-1.422l-.835-.136a16.356,16.356,0,0,1-3.364-.834,5.4,5.4,0,0,1-2.657-2.05,4.466,4.466,0,0,1-.72-2.712,3.7,3.7,0,0,1,1.086-2.415,7.627,7.627,0,0,1-.278-1.8,6.939,6.939,0,0,1,.155-1.671,8.607,8.607,0,0,1,1.342-3.007,28.006,28.006,0,0,1,4.945-5.076c.965-.839,1.876-1.632,2.671-2.439,3.56-3.431,6.962-7.043,10.111-10.737a142.212,142.212,0,0,0,8.974-11.7l.32-.757c1.086-2.56,2.3-5.154,4.185-6.294,1.363-2.162,2.6-4.446,3.793-6.654l0,0c.408-.755.831-1.535,1.256-2.308-4.1-1.5-8.467-3.287-13.364-5.456a1.717,1.717,0,0,1-.886-1.015,2.686,2.686,0,0,1-.115-1.357l.011-.057c3.672-19.048,7.723-38.354,11.64-57.023l.005-.024c2.62-12.489,5.33-25.4,7.9-38.12,2.885-14.271,5.287-26.782,7.344-38.247,1.323-10.647,2.463-21.5,3.565-32,1.58-15.047,3.213-30.607,5.415-45.818,1.185-8.188,2.436-15.623,3.823-22.728.751-3.849,1.554-7.646,2.385-11.286.872-3.817,1.806-7.593,2.775-11.222a90.074,90.074,0,0,1-12.885-2.646h0c-.819-.21-1.748-.449-2.639-.671a7.521,7.521,0,0,1-4.528-2.348,4.628,4.628,0,0,1-.922-2.1,8.051,8.051,0,0,1,.08-2.849c.162-2.247.5-4.508.821-6.7.233-1.572.474-3.2.649-4.8-1.042-.728-2.088-1.511-3.2-2.392-1.923,1.433-3.924,2.794-5.949,4.045a18.5,18.5,0,0,1-3.255,1.938,7.2,7.2,0,0,1-2.915.7,4.641,4.641,0,0,1-1.513-.248,5.009,5.009,0,0,1-1.418-.775,7.5,7.5,0,0,1-1.328-1.349,13.183,13.183,0,0,1-1.243-1.97c-4.5-7.1-8.826-14.117-12.855-20.847-4.294-7.172-8.421-14.3-12.267-21.2-1.285-2.383-2.649-4.809-3.967-7.155-3.15-5.6-6.407-11.4-9.024-17.338a77.848,77.848,0,0,1-3.393-9.081c-.474-1.579-.88-3.158-1.208-4.693-.344-1.611-.614-3.231-.8-4.813a37.417,37.417,0,0,1-.106-5.4,50.081,50.081,0,0,1,.634-5.729c.319-1.916.757-3.936,1.3-6,.525-1.994,1.162-4.089,1.9-6.225a130.661,130.661,0,0,1,5.284-12.895c1.939-4.137,4.222-8.552,6.787-13.124,4.33-7.719,9.482-15.959,15.75-25.19,5.344-7.869,10.565-15.078,14.761-20.871l0,0,.939-1.3c2.64-3.185,5.026-5.883,7.295-8.249a86.219,86.219,0,0,1,8.174-7.572c1.481-1.192,2.98-2.3,4.456-3.283a51.814,51.814,0,0,1,4.724-2.814,44.29,44.29,0,0,1,5.008-2.246,39.728,39.728,0,0,1,5.307-1.577c1.234-.183,2.505-.324,3.735-.461h0a39.664,39.664,0,0,0,9.738-1.916,6.867,6.867,0,0,1,1.067-2.833,4.03,4.03,0,0,1,2.458-1.658c.585-.129,1.194-.28,1.782-.425l.014,0a25.613,25.613,0,0,1,5.338-.932,4.5,4.5,0,0,1,1.207-.183,2.79,2.79,0,0,1,.5.043,41.421,41.421,0,0,0,1.628-5.941A35.133,35.133,0,0,1,111.873.1a.506.506,0,0,1,.272-.1.253.253,0,0,1,.2.1c.274.33.279,1.446.017,3.412-.222,1.663-.589,3.585-.884,5.129v.007c-.233,1.222-.418,2.188-.419,2.466l-.048.235a17.013,17.013,0,0,1-1.078,3.514,9,9,0,0,1-.914,1.6,6.21,6.21,0,0,1-1.255,1.3c.913,7.458,2.044,14.77,3.363,21.732l.8.105c1.774.235,3.58.487,5.326.731,3.86.539,7.851,1.1,11.8,1.508a114.069,114.069,0,0,0,11.86.687c2.454,0,4.745-.1,7.005-.313h.112a12.557,12.557,0,0,0,8.119-2.9,19.975,19.975,0,0,0,5.235-7.026c-.178-.651-.353-1.29-.539-1.953a26.768,26.768,0,0,1-3-2.132,27.448,27.448,0,0,1-2.713-2.553,25.03,25.03,0,0,1-4.206-6.1,19.572,19.572,0,0,1-1.954-6.967,16.494,16.494,0,0,1,1.048-7.293.547.547,0,0,1,.528-.36.593.593,0,0,1,.379.133.081.081,0,0,1,.076.083l-.122,1.893a37.491,37.491,0,0,0-.006,6.219,14.1,14.1,0,0,0,1.869,5.91,13.348,13.348,0,0,1,2.955-.344,11.7,11.7,0,0,1,2.625.3,12.008,12.008,0,0,1,2.4.834,15.679,15.679,0,0,1,4.177,2.958,26.9,26.9,0,0,1,3.432,4.137,47.882,47.882,0,0,1,2.79,4.668l2.706.4c2.465.366,5.084.77,7.626,1.338a37.3,37.3,0,0,1,7.065,2.239,24.114,24.114,0,0,1,3.191,1.707,20.588,20.588,0,0,1,2.892,2.231,20.168,20.168,0,0,1,2.541,2.854,22.837,22.837,0,0,1,2.137,3.577l.7,1.488c1.989,4.238,3.7,8,5.231,11.5,1.815,4.151,3.4,7.975,4.835,11.691a184.9,184.9,0,0,1,7.631,24.069c.718,3.19,1.276,6.466,1.817,9.634v0c.469,2.748.954,5.589,1.539,8.358a72.016,72.016,0,0,0,2.193,8.213c2.318,6.126,5.049,12.208,7.69,18.09l0,.006c2.083,4.64,4.237,9.437,6.175,14.227,1.043,2.578,1.943,4.949,2.75,7.249.906,2.58,1.673,5,2.344,7.408a51.908,51.908,0,0,1,2.458,8.909c.988,4.611,1.906,9.928,2.584,14.971a129.6,129.6,0,0,1,1.269,15.364c.048,4.975-.452,8.369-1.486,10.089a3.077,3.077,0,0,1-.835.945,1.94,1.94,0,0,1-1.051.361,71.018,71.018,0,0,0-8.621-2.017,1.341,1.341,0,0,1,.464.663,1.88,1.88,0,0,1,.063.851,150.8,150.8,0,0,0-1.088,21.5c.125,4.036.141,7.47.051,10.807a112.413,112.413,0,0,1-.974,12.464c-.307,2.188-.688,4.269-1.132,6.186a49.418,49.418,0,0,1-1.7,5.8,32.671,32.671,0,0,1-2.373,5.146,21.609,21.609,0,0,1-3.149,4.226,16.6,16.6,0,0,1-2.338,2.005,14.994,14.994,0,0,1-2.687,1.507,15.288,15.288,0,0,1-3.059.948,17.716,17.716,0,0,1-3.454.329,24.076,24.076,0,0,1-5.343-.645,1.448,1.448,0,0,1-.741-.573,2.092,2.092,0,0,1-.3-.9,10.1,10.1,0,0,1,.132-2.371,13.148,13.148,0,0,0,.163-2.061c-.058,0-.118,0-.176,0-.087,0-.181,0-.278-.009-.659,1.776-1.446,3.519-2.208,5.2a63.932,63.932,0,0,0-2.73,6.715c-.353,1.115-.678,2.278-.993,3.4v0a49.309,49.309,0,0,1-2.473,7.336c-2.07,7.35-4,14.812-5.744,22.176-1.759,7.44-3.371,14.982-4.791,22.414-1.435,7.514-2.712,15.119-3.8,22.605-1.1,7.57-2.024,15.224-2.759,22.749-.743,7.611-1.308,15.3-1.679,22.845-.376,7.638-.564,15.341-.558,22.895.005,7.646.209,15.35.6,22.9.4,7.64,1.01,15.328,1.81,22.852.366,3.667.779,7.338,1.228,10.912a24.675,24.675,0,0,0,.468,3.5,48,48,0,0,1,.746,5.647c.084,2-.242,3.068-1,3.268a1.31,1.31,0,0,1-.615.46,3.378,3.378,0,0,1-1.82.988,10.18,10.18,0,0,1-2.153.164h-.467a13.433,13.433,0,0,0-1.409.055c-7.963.354-14.5.612-20.557.813a34.828,34.828,0,0,1-.087,7.855c-.028.322-.053.611-.077.9,3.915.032,7.573,1.9,11.11,3.7.956.488,1.944.992,2.9,1.44,6.515,3.209,13.03,6.695,19.363,10.359a51.506,51.506,0,0,0,4.529,2.672l0,0c1.542.845,3.136,1.719,4.628,2.681a20.223,20.223,0,0,1,3.941,3.168,9.819,9.819,0,0,1,1.361,1.844,6.955,6.955,0,0,1,.768,2.058,6.654,6.654,0,0,1,.034,2.3,9.2,9.2,0,0,1-.84,2.58,1.754,1.754,0,0,1,1.125,2.137,6.817,6.817,0,0,1-1.969,3.27,5.106,5.106,0,0,1-3.01,1.7c-3.593-.018-7.256-.2-11.2-.569-3.508-.325-7.157-.784-11.155-1.405-7.417-1.152-14.9-2.692-22.127-4.181H157c-1.475-.3-3.146-.648-4.786-.982-2.939-.776-6.019-1.409-9-2.022h0c-3.184-.655-6.477-1.332-9.637-2.19-1.7-.462-3.229-.937-4.667-1.453a42.647,42.647,0,0,1-4.471-1.879,2.537,2.537,0,0,1-1.288-1.344,3.613,3.613,0,0,1-.234-1.9,3.48,3.48,0,0,1,.709-1.7,2.468,2.468,0,0,1,1.562-.91,28.717,28.717,0,0,1-.274-5.525,17.2,17.2,0,0,1,.718-4.136,23.3,23.3,0,0,1,3.218-6.152v0a37.742,37.742,0,0,0,2.638-4.439,23.964,23.964,0,0,0,2-6.16,8.945,8.945,0,0,1-1.439.11,13.372,13.372,0,0,1-2.639-.283.773.773,0,0,1-.5.247c-.209,0-.4-.149-.57-.444a4.7,4.7,0,0,1-.428-1.226,27.544,27.544,0,0,1-.513-4.162c-.216-3.321-.217-7.411-.217-10.7v0c0-2.589,0-4.635-.112-5.217-.021-5.653.032-11.4.082-16.967v-.012c.076-8.39.155-17.067-.014-25.592-.091-4.59-.245-8.771-.47-12.783-.253-4.5-.588-8.678-1.026-12.763l-4.118,12.108c-4.348,12.8-9.379,27.7-14.069,42.5-5,15.793-9.094,29.852-12.514,42.978a2.031,2.031,0,0,1-2.047,1.61,2.615,2.615,0,0,1-1.408-.418,113.709,113.709,0,0,1-14.741-1.4c-.092,2.242-.186,4.466-.29,6.932,1.458.785,1.219,4.473,1.027,7.436a22.245,22.245,0,0,0-.08,3.239c1.861,4.281-3.96,11.793-7.813,16.763-.868,1.12-1.617,2.086-2.171,2.875-.8,1.116-1.582,2.273-2.41,3.5a58.771,58.771,0,0,1-7.833,9.972,19.6,19.6,0,0,1-4.954,3.5,14.92,14.92,0,0,1-6.044,1.488l-.319.007C44.7,577.457,43.545,577.471,42.408,577.471ZM22.641,571.18h0a11.755,11.755,0,0,0,1.235.518c.565.077,1.074.142,1.556.2C24.469,571.679,23.53,571.438,22.641,571.18Zm33.718-46.532h0a17.176,17.176,0,0,0-3.094.3,24.2,24.2,0,0,0-3.595.974,130.5,130.5,0,0,1-22.2,29.624,26.119,26.119,0,0,1-3.274,3.1l0,0h0a33.886,33.886,0,0,0-3.6,3.379,9.465,9.465,0,0,0-1.277,1.822,4.974,4.974,0,0,0-.58,1.922A4.1,4.1,0,0,0,19,567.53a6.16,6.16,0,0,0,1.157,1.848l.756.138c4.147.754,7.344,1.252,10.367,1.615a87.284,87.284,0,0,0,10.455.678c1.767,0,3.508-.068,5.174-.2a20.11,20.11,0,0,0,4.65-1.96,26.442,26.442,0,0,0,4.1-2.938,47.1,47.1,0,0,0,6.8-7.53c1.332-2.359,2.855-4.808,4.655-7.488,1.777-2.644,3.646-5.243,5.077-7.211a8.935,8.935,0,0,0,1.757-3.936,22.026,22.026,0,0,0,.326-4.345c.069-1.913.135-3.646.2-5.3a6.115,6.115,0,0,1-2.111.393,6.439,6.439,0,0,1-3.019-.814,24.373,24.373,0,0,1-2.9-1.886c-.252-.181-.566-.406-.872-.621a20.966,20.966,0,0,0-3.964-2.283,13.4,13.4,0,0,0-5.244-1.038Zm73.872,2.607h0a18.125,18.125,0,0,0-2.309,5.96,19.228,19.228,0,0,0-.12,6.4l.007.27a4.926,4.926,0,0,0,.438,2.267,1.822,1.822,0,0,0,.727.718,2.984,2.984,0,0,0,1.279.321l6.087,1.53c9.877,2.477,20.4,5.072,30.977,7.175,5.564,1.107,10.683,1.99,15.649,2.7,5.523.79,10.685,1.341,15.78,1.687a11.206,11.206,0,0,0,3.236-2.868,4.946,4.946,0,0,0,1.027-3.05,4.8,4.8,0,0,0-1.153-2.866,10.675,10.675,0,0,0-3.307-2.582l-1.534-.939c-5.306-3.243-11.584-7.025-17.922-10.483a183.047,183.047,0,0,0-18.676-8.987,8.346,8.346,0,0,0-2.881-.5,11.485,11.485,0,0,0-3.407.559,22,22,0,0,0-3.247,1.331,38.644,38.644,0,0,1-6.35,2.105,33.079,33.079,0,0,1-7.577,1.008,15.884,15.884,0,0,1-3.744-.4,7.932,7.932,0,0,1-2.979-1.35Zm74.857,27.178-.05.087-.008.014,0,0c-.035.061-.072.124-.108.185a1.108,1.108,0,0,1,.245.171A1.347,1.347,0,0,0,205.087,554.432ZM57.278,522.945a15.956,15.956,0,0,1,9.125,3.062c.473.313.915.62,1.342.917a24.688,24.688,0,0,0,2.349,1.512,4.533,4.533,0,0,0,2.123.633,2.9,2.9,0,0,0,1.321-.319l.141-.074v0a6.2,6.2,0,0,1-.276-3.407,24.876,24.876,0,0,1,.858-3.483c.051-.17.1-.321.14-.47-3.262-.589-6.638-1.366-10.034-2.309-3.178-.882-6.477-1.937-9.808-3.138a6.946,6.946,0,0,1-.319,2.231c-.215.75-.509,1.5-.769,2.166l-.006.016c-.058.149-.113.289-.167.429-.1.255-.2.542-.3.846l0,.005a15.178,15.178,0,0,1-.876,2.18A18.324,18.324,0,0,1,57.278,522.945Zm77.916-10.064a18.272,18.272,0,0,1,.123,3.516,26.078,26.078,0,0,1-.521,3.934,16.024,16.024,0,0,1-2.865,6.757l-.006,0-.006,0a20.4,20.4,0,0,0,3.04.225,24.021,24.021,0,0,0,4.417-.425,34.571,34.571,0,0,0,4.32-1.113c2.848-.917,5.641-2.135,8.343-3.313l.035-.015c.463-.2.943-.411,1.41-.613a22.693,22.693,0,0,1,1.024-4.773c.507-1.609,1.147-3.227,1.708-4.618l-3.709.114c-5.1.155-11.034.32-16.873.32h-.441Zm-3.8,12.2-.694,1.294a2.118,2.118,0,0,0,.335.3,3.009,3.009,0,0,1,.359-1.6Zm-77.669-9.506c-.115.5-.254,1.03-.437,1.671a7.911,7.911,0,0,1,.852-1.522Zm81.065-2.688-.406,0,0,.232a.443.443,0,0,1-.007.509c-.015.763-.048,1.467-.1,2.152l.135-.829C134.51,514.383,134.639,513.631,134.8,512.884Zm-5.161-.237.021.36c.234-.009.473-.009.7-.009h.018c.261,0,.558,0,.841-.014a7.075,7.075,0,0,0,.836-.112,17.778,17.778,0,0,1-2.42-.225ZM216.5,258.3a.331.331,0,0,1,.346.254,27.456,27.456,0,0,1-.321,10.767,62.308,62.308,0,0,1-3.369,10.354,3.276,3.276,0,0,0-1.187,2.1,15.6,15.6,0,0,0-.241,2.728v0c-.016.532-.03,1.034-.078,1.467a21.048,21.048,0,0,0,3.013.228h0a16.141,16.141,0,0,0,3.24-.316,13.471,13.471,0,0,0,2.841-.917,13.023,13.023,0,0,0,2.465-1.467,14.573,14.573,0,0,0,2.117-1.968,18.174,18.174,0,0,0,1.794-2.419,24.1,24.1,0,0,0,1.5-2.82,37.949,37.949,0,0,0,2.219-6.643,88.779,88.779,0,0,0,2.073-15.906c.309-5.619.329-11.272.349-16.74.015-4,.029-7.786.161-11.132a50.973,50.973,0,0,1,.868-8.5,1.273,1.273,0,0,1,.926-.96,94.385,94.385,0,0,0-12.032-.792l-.244-.006-.879-.021a1.827,1.827,0,0,1-.822.576,45.969,45.969,0,0,1-.274,5.1,38.187,38.187,0,0,1-.889,4.993,33.083,33.083,0,0,1-1.6,4.82,30.586,30.586,0,0,1-2.406,4.584,21.921,21.921,0,0,0-3.228,6.942,67.4,67.4,0,0,0-2.409,8.643,74.074,74.074,0,0,0-1.285,8.851A86.891,86.891,0,0,0,209.557,278c3.977-5.829,5.522-12.79,6.6-19.444A.325.325,0,0,1,216.5,258.3ZM85.407,249.8h0c.037.191.068.375.09.547l.157-.538h-.046c-.066,0-.134,0-.2-.008ZM67.135,230.714c-.144,1.141-.316,2.3-.483,3.414-.3,2-.608,4.078-.763,6.133l-.031.181a4.65,4.65,0,0,0,.175,3.154c.428.683,1.3,1.1,2.908,1.381a49.97,49.97,0,0,0,11.734,1.72c5.534.292,11.152.44,16.7.44,6.716,0,13.516-.217,20.213-.645s13.479-1.081,20.122-1.937a19.8,19.8,0,0,1,3.13-.406,24.774,24.774,0,0,0,4.338-.611,3.7,3.7,0,0,0,2.768-2.013c-.146-5.266-.44-10.706-.876-16.17-.415-5.207-.971-10.608-1.654-16.052-1.26-10.048-2.96-20.456-5.2-31.818-1.865-9.47-4.148-19.79-6.978-31.549-2.524-10.489-5.241-21.127-7.867-31.415-4.079-15.975-8.3-32.493-11.891-48.826-1.935-8.792-3.539-16.829-4.905-24.572-.74-4.2-1.417-8.353-2.011-12.354-.623-4.2-1.177-8.374-1.646-12.409a3.49,3.49,0,0,1,.1-2.053l-.508.133c-.467.12-.9.227-1.318.33l-.016,0c-2.173.536-3.608.89-4.55,1.851a4.408,4.408,0,0,0-1.059,1.993A16.119,16.119,0,0,0,97.11,22.1a41.628,41.628,0,0,1-1.849,7.283c-.809,2.368-1.777,4.727-2.713,7.007a82.833,82.833,0,0,0-3.809,10.639,8.894,8.894,0,0,0-.244,3.334,8.026,8.026,0,0,0,.371,1.708,5.219,5.219,0,0,0,.745,1.453,3.309,3.309,0,0,0,1.072.944,3.051,3.051,0,0,0,1.461.354,4.155,4.155,0,0,0,.793-.081,1.333,1.333,0,0,1,.391-.06,1.29,1.29,0,0,1,.785.272,1.574,1.574,0,0,1,.5.662,1.43,1.43,0,0,1,.089.768,1.275,1.275,0,0,1-.389.716c-2.507,2.37-4.988,4.835-7.387,7.218l0,0-1.464,1.454c2.932,9.887,6.125,19.842,9.491,29.589s7,19.558,10.794,29.142,7.864,19.231,12.08,28.634c4.225,9.422,8.716,18.865,13.349,28.067a1.245,1.245,0,0,1-.042,1.253,1.456,1.456,0,0,1-1.186.686,1.073,1.073,0,0,1-.983-.647c-4.616-9.252-9.093-18.717-13.306-28.133-4.223-9.439-8.3-19.084-12.106-28.666-3.82-9.61-7.479-19.419-10.874-29.153-3.407-9.767-6.641-19.724-9.612-29.595l-.361-1.2c-.153-.424.29-1.2,1.354-2.375.929-1.024,2.206-2.214,3.332-3.264a27.34,27.34,0,0,0,2.768-2.777,8.387,8.387,0,0,1-2.469-1.752,6.8,6.8,0,0,1-1.424-2.269,8.775,8.775,0,0,1-.534-2.7,14.74,14.74,0,0,1,.2-3.047c.69-4.255,2.917-9.178,5.07-13.938h0c2.236-4.943,4.348-9.611,4.508-13.037a13.361,13.361,0,0,1-3.513.95c-1.2.172-2.451.238-3.657.3a36.482,36.482,0,0,0-4.089.368,29.1,29.1,0,0,0-5.2,1.44,37.555,37.555,0,0,0-4.892,2.279,63.36,63.36,0,0,0-8.916,6.121C44.078,50.719,30.05,76.088,16.484,100.622l-.016.029c-.942,1.7-1.915,3.464-2.872,5.187A83.823,83.823,0,0,0,7.3,119.22a65.273,65.273,0,0,0-3.482,14.193,53.421,53.421,0,0,0-.407,7.211,47.751,47.751,0,0,0,.632,7.186A44.067,44.067,0,0,0,8.873,161.8c2.794,5.648,5.8,11.457,8.946,17.265,2.991,5.529,6.2,11.238,9.535,16.968C33.5,206.6,40.188,217.43,47.786,229.148a1.829,1.829,0,0,0,1.508.8,6.276,6.276,0,0,0,2.959-1.285c.389-.25.756-.486,1.093-.66a77.275,77.275,0,0,0,13.046-9.872,78.926,78.926,0,0,0,10.7-12.366c-3.861-4.735-7.552-9.532-10.969-14.26-3.574-4.945-6.958-9.963-10.057-14.916-3.229-5.16-6.246-10.4-8.966-15.58-2.825-5.378-5.415-10.846-7.7-16.253l-.129-.256a28.478,28.478,0,0,1-1.415-3.289,15.121,15.121,0,0,1-.809-3.432,9.144,9.144,0,0,1,.239-3.386,7.929,7.929,0,0,1,1.729-3.151c3.011-3.854,6.059-7.919,9.059-12.084,2.844-3.948,5.742-8.119,8.612-12.4C61.916,98.98,67.2,90.636,72.848,81.251a.146.146,0,0,1,.125-.076.162.162,0,0,1,.133.075.164.164,0,0,1,.011.16c-1.04,2.353-2.171,4.768-3.36,7.179.7,10.387,1.22,21.808,1.589,34.914.329,11.689.51,23.6.685,35.114.18,11.854.367,24.112.714,36.112,2.676,3.54,5.536,7.161,8.5,10.763a71.393,71.393,0,0,1,15.209-7.957,69.725,69.725,0,0,1,16.679-4.074l.736-.074.256-.026a48.609,48.609,0,0,1,4.989-.335,12.008,12.008,0,0,1,5.418,1,5.043,5.043,0,0,1,1.879,1.587,5.443,5.443,0,0,1,.912,2.615,4.619,4.619,0,0,1-.4,1.5,4.133,4.133,0,0,1-.82,1.164,6.617,6.617,0,0,1-2.662,1.519,34.4,34.4,0,0,1-7.735,1.134,53.236,53.236,0,0,0-5.826.645,14.013,14.013,0,0,0-2.469.682,6.63,6.63,0,0,0-1.933,1.113,93.483,93.483,0,0,0,9.678,3.091c2.732.765,5.557,1.556,8.248,2.539,1.449.529,2.743,1.07,3.955,1.653a31.324,31.324,0,0,1,3.746,2.112,13.55,13.55,0,0,1,3.006,2.473,4.913,4.913,0,0,1,1.551,3.246c-.078.9-.745,1.584-1.982,2.043-.2.017-.4.025-.607.025a16.69,16.69,0,0,1-3.217-.431,22.1,22.1,0,0,0-2.417-.393,13.009,13.009,0,0,1,3.26,1.6,9.4,9.4,0,0,1,2.54,2.568,5.627,5.627,0,0,1,.791,1.808,3.478,3.478,0,0,1-.028,1.96,1.913,1.913,0,0,1-1.406,1.2c-.214.006-.434.009-.655.009a49.357,49.357,0,0,1-10.266-1.474h0c-1.617-.349-3.289-.71-4.925-.979l.465.189a25.536,25.536,0,0,1,4.155,2.057A7.847,7.847,0,0,1,123,232.649a3.162,3.162,0,0,1,.8,1.6,2.627,2.627,0,0,1-.331,1.646,6.362,6.362,0,0,1-1.647,1.838,7.528,7.528,0,0,1-3.543.825c-2.654,0-5.44-1.123-8.134-2.21h0a34.879,34.879,0,0,0-4.826-1.69,29.592,29.592,0,0,0-6.78-.745,65.784,65.784,0,0,0-8.4.7l-.088.011a64.684,64.684,0,0,1-8.125.685,25.712,25.712,0,0,1-7.124-.941,24.79,24.79,0,0,1-3.746-1.407,29.607,29.607,0,0,1-3.919-2.238h0ZM158.616,22.5c2.019,4.917,3.9,10.133,5.594,15.5,1.608,5.1,3.1,10.509,4.425,16.068,1.252,5.239,2.4,10.791,3.42,16.5.948,5.319,1.816,10.973,2.58,16.8,2.953,22.552,4.1,45.495,5.209,67.682l.05,1c.433,13.25.657,23.956.705,33.693.061,12.252-.154,23.269-.658,33.682-.2,1.942-.5,3.926-.8,5.844v0c-.308,1.986-.627,4.039-.826,6.065a35.742,35.742,0,0,0-.137,6.078,117.405,117.405,0,0,0,16.67,1.182h0a123.726,123.726,0,0,0,13.007-.694,23.862,23.862,0,0,1,1-2.259,37.082,37.082,0,0,0,4.527-6.954,35.658,35.658,0,0,0,2.681-7.292,40.334,40.334,0,0,0,1.107-7.541,51.5,51.5,0,0,0-.192-7.7,84.468,84.468,0,0,0-3.19-15.522c-1.482-5.065-3.262-10.027-5.108-15.089-1.011.043-2.1.063-3.316.063-1.4,0-2.825-.027-4.2-.054h-.021c-1.382-.027-2.811-.054-4.217-.054-.414,0-.8,0-1.185.007a55.435,55.435,0,0,1,1.86,9.256h0c.162,1.14.33,2.319.522,3.475.458,2.884,1.049,5.839,1.8,9.033l.215.9.044.177a5.42,5.42,0,0,1,.165,3.107,1.628,1.628,0,0,1-1.509,1.115,1.494,1.494,0,0,1-1.051-.44c-1.122-1.279-1.356-3.018-1.582-4.7-.088-.656-.179-1.334-.323-1.963l-.093-.7c-.071-.525-.146-1.06-.217-1.578-.812-5.85-1.651-11.9-.2-17.687a3.741,3.741,0,0,0-.763-.062c-.382,0-.81.027-1.264.056l-.064,0c-.518.033-.984.06-1.437.06a4.454,4.454,0,0,1-1.67-.239,1.174,1.174,0,0,1-.8-1.013,26.6,26.6,0,0,0-.427-3.971,34.756,34.756,0,0,1-.538-5.305c.021-1.9.451-3.161,1.313-3.864a7.039,7.039,0,0,1,4.23-.94c.276,0,.558,0,.785.006h.026c.252,0,.489.006.723.006.258,0,.467,0,.66-.011,2.1-.084,4.154-.16,6.191-.16l.516,0a220.147,220.147,0,0,1-8.462-23.715c-.983-3.451-1.781-6.7-2.438-9.944-.632-3.114-1.115-6.126-1.477-9.207a130.144,130.144,0,0,1-.778-17.819c.107-6.076.5-12.4.949-19.717.355-5.751.757-12.269,1.064-19.534l.054-1.318a.228.228,0,0,1,.067-.168.3.3,0,0,1,.208-.084.218.218,0,0,1,.229.183c.358,2.308.618,4.668.793,7.213.157,2.268.242,4.633.262,7.231.037,4.826-.165,9.742-.36,14.5-.165,4-.335,8.143-.361,12.214a117.36,117.36,0,0,0,.485,12.19c.19,2.079.458,4.217.8,6.355.323,2.037.721,4.141,1.182,6.254.852,3.9,1.932,7.911,3.3,12.264,2.544,8.088,5.727,16.153,8.8,23.952v0c2.993,7.583,6.087,15.424,8.59,23.275,1.347,4.227,2.421,8.119,3.281,11.9a104.356,104.356,0,0,1,2.064,12.214,48.723,48.723,0,0,1,5.591-.316,69.142,69.142,0,0,1,17.376,2.451c.156-1.351.278-2.73.363-4.1.173-3.058.2-6.206.07-9.356-.122-3.028-.385-6.149-.784-9.275-.382-2.992-.9-6.081-1.536-9.181-.607-2.95-1.342-6-2.186-9.073-.8-2.9-1.716-5.912-2.733-8.952-.95-2.841-2.02-5.808-3.178-8.817-2.033-5.282-4.414-10.9-7.28-17.178-1.524-2.956-2.928-6.014-4.172-9.089-1.235-3.053-2.347-6.205-3.3-9.369-.951-3.142-1.775-6.382-2.45-9.629-.671-3.226-1.212-6.546-1.609-9.867-.742-4.167-1.716-8.361-2.975-12.821-1.124-3.98-2.45-8.075-4.054-12.518-3.08-8.534-6.7-16.971-9.892-24.414h0a26.983,26.983,0,0,0-1.869-4.1,21.629,21.629,0,0,0-2.312-3.327,19.909,19.909,0,0,0-2.722-2.646,21.344,21.344,0,0,0-3.1-2.056,30.057,30.057,0,0,0-7.2-2.707,66.5,66.5,0,0,0-8.308-1.44c4.327,7.172,8.572,14.273,11.787,19.658a1.992,1.992,0,0,1-.279,2.056,9.234,9.234,0,0,1-1.7,1.68l0,0a12.5,12.5,0,0,0-.989.882,14.268,14.268,0,0,1,5.827,5.835,18.72,18.72,0,0,1,1.542,3.852,27.418,27.418,0,0,1,.824,4.306,52.673,52.673,0,0,1,.088,9.464c-.219,3.258-.619,6.559-1.007,9.752v0a93.662,93.662,0,0,0-.994,12.4c-.331,3.864-.6,7.8-.865,11.607v0c-.292,4.234-.594,8.612-.979,12.908-.432,4.82-.925,9.025-1.507,12.855a.615.615,0,0,1-.642.536.794.794,0,0,1-.823-.733c.048-5.171.262-10.82.654-17.271.349-5.75.8-11.592,1.244-17.242V107.1c.536-6.882,1.09-14,1.457-21l.118-1.35c.182-2.108.377-4.567.389-7.081a31.883,31.883,0,0,0-.674-7.213,17.109,17.109,0,0,0-1.065-3.242,11.911,11.911,0,0,0-1.727-2.778,10.1,10.1,0,0,0-2.521-2.149,11.744,11.744,0,0,0-3.447-1.355,1.379,1.379,0,0,1-1.137-1.2,1.7,1.7,0,0,1,.748-1.782,17.219,17.219,0,0,0,4.044-3.109c-3.856-6.47-7.983-13.407-12.033-20.3l-.187-.315c-.413-.7-.83-1.433-1.234-2.141l-.005-.009h0a60.324,60.324,0,0,0-3.9-6.234,22.427,22.427,0,0,0-2.376-2.735,15.678,15.678,0,0,0-2.853-2.213,24.127,24.127,0,0,0-2.643.3h0c-.582.088-1.183.18-1.792.241a11.367,11.367,0,0,0,2.784,2.837c.6.5,1.165.967,1.556,1.369.437.45.6.756.5.964.306.237.632.477.969.713-.452-1.586-.909-3.176-1.377-4.8ZM99.523,231.058a35.368,35.368,0,0,1,4.453.27,37.541,37.541,0,0,1,6.256,2.061h0c1.42.562,2.889,1.143,4.359,1.582a17.265,17.265,0,0,0,4.5.784c1.154-.262,1.75-.612,1.774-1.038.019-.352-.346-.751-1.087-1.183a12.448,12.448,0,0,0-2.034-.9c-4.24-2.024-8.654-3.9-12.459-5.5l-3.349-1.4a1.516,1.516,0,0,1-.944-1.721,1.378,1.378,0,0,1,.42-.754,1.277,1.277,0,0,1,.868-.318,1.8,1.8,0,0,1,.413.05c3.515.828,7.017,1.6,9.675,2.188,1.541.314,3.115.656,4.638.986a126.317,126.317,0,0,0,14.209,2.522,3.447,3.447,0,0,0-.851-1.224,9.925,9.925,0,0,0-1.567-1.224,31.528,31.528,0,0,0-4.626-2.366c-3.53-1.515-7.628-2.859-10.62-3.84l-.014,0c-1.141-.374-2.127-.7-2.826-.948a9.693,9.693,0,0,0-1.978-.525h0c-1.4-.282-2.994-.6-3.57-1.472a1.459,1.459,0,0,1-.182-1.143,1.052,1.052,0,0,1,.472-.742,1.742,1.742,0,0,1,.924-.213,12.836,12.836,0,0,1,3.618.9h0a11.632,11.632,0,0,0,1.989.583c6.639,1.684,13.521,2.728,20.177,3.738l.233.035a22.708,22.708,0,0,0-4.2-3.3,31.242,31.242,0,0,0-4.745-2.372,84.531,84.531,0,0,0-10.357-3.181c-2.955-.771-6.01-1.569-8.827-2.6l-.258-.059a9.852,9.852,0,0,1-1.781-.562,2.062,2.062,0,0,1-1.161-1.016,1.535,1.535,0,0,1,.343-1.439c2.641-3.893,9.541-4.576,15.086-5.125,1.826-.181,3.551-.351,4.9-.619a4.6,4.6,0,0,0,2.782-1.212,1.208,1.208,0,0,0,.221-.994,1.885,1.885,0,0,0-.68-.9,3.9,3.9,0,0,0-1.222-.579,12.837,12.837,0,0,0-3.558-.4,60.419,60.419,0,0,0-8.454.835h-.009c-.618.093-1.152.173-1.541.221a70.555,70.555,0,0,0-8.3,2.1,68.607,68.607,0,0,0-8.067,3.14A62.727,62.727,0,0,0,85,206.339a55.021,55.021,0,0,0-6.813,5.177,1.408,1.408,0,0,1-.945.378,1.487,1.487,0,0,1-.682-.172A80.42,80.42,0,0,1,63.6,224.806c.9.711,1.814,1.386,2.709,2.005a1.208,1.208,0,0,1,1.026.69,29.358,29.358,0,0,0,3.966,2.437,23.848,23.848,0,0,0,3.794,1.53,22.794,22.794,0,0,0,3.671.793,27.085,27.085,0,0,0,3.6.226,64.425,64.425,0,0,0,8.117-.685l.229-.029h0A69.5,69.5,0,0,1,99.523,231.058ZM67.46,93.1c-2.592,4.947-5.42,9.884-8.647,15.094-2.874,4.641-6,9.393-9.557,14.527-1.306,1.879-2.728,3.856-4.346,6.041l-.182.234c-.263.336-.528.667-.785.987a18.5,18.5,0,0,0-3.244,5.026,6.313,6.313,0,0,0-.358,2.761,8.02,8.02,0,0,0,1.068,3.171c1.8,4.36,3.79,8.768,5.929,13.1,2.085,4.223,4.363,8.491,6.771,12.685,2.345,4.084,4.878,8.208,7.527,12.258,2.577,3.94,5.334,7.917,8.2,11.82-.128-5.822-.255-11.685-.377-17.354C68.887,147.113,68.3,119.877,67.46,93.1Zm135.588,71.515a55.738,55.738,0,0,1-8.055,1.061h0a21.75,21.75,0,0,0-2.622.278,2.337,2.337,0,0,0-1.448.741,4.023,4.023,0,0,0-.458,2.767c.087,1.4.385,3.365.8,6.089l.011.072c.076.5.154,1.012.236,1.559.71,0,1.451.007,2.265.007,1.627,0,3.3-.01,4.775-.019h.124c1.52-.009,3.091-.018,4.636-.018,1.671,0,3.144.011,4.5.033-1.258-3.4-2.574-6.848-3.847-10.181Zm-61.2,6.7h0c.008.04.014.077.024.116.057-.015.114-.028.169-.039l.087-.017v0c-.113-.02-.2-.039-.28-.057ZM111.3,40.415c1.094,5.924,2.3,11.951,3.685,18.426,1.234,5.766,2.585,11.76,4.13,18.325,2.869,12.191,5.987,24.54,9,36.483v0c2.331,9.233,4.742,18.781,7.022,28.192,2.557,10.556,4.674,19.819,6.474,28.32,3.4.3,6.947.446,10.828.446h0c2.8,0,5.792-.077,9.148-.235.345-.005.706-.008,1.073-.008,1.312,0,2.647.033,3.939.064h.007c1.3.032,2.634.064,3.952.064a43.658,43.658,0,0,0,6.5-.41l-.159-5.4c-.311-10.392-.672-21.515-1.206-32.452-.586-12-1.323-22.607-2.253-32.424-.525-5.548-1.127-10.975-1.787-16.132-.7-5.492-1.5-10.889-2.37-16.041-.917-5.434-1.946-10.791-3.06-15.923-1.166-5.373-2.464-10.681-3.858-15.777a19.255,19.255,0,0,1-2.658,3.559,16.961,16.961,0,0,1-3.321,2.721,15.715,15.715,0,0,1-3.893,1.746,16.021,16.021,0,0,1-4.373.637c-2.415.139-4.836.21-7.2.21a113.244,113.244,0,0,1-12.513-.681,98.966,98.966,0,0,1-12.334-2.16c-.256-.064-.514-.125-.787-.189A14.515,14.515,0,0,1,111.3,40.415ZM81.6,193.368a1.5,1.5,0,0,1-1.282-.7c-1.979-4.655-.621-10.668.784-15.387a7.034,7.034,0,0,1-2.631-1.016A5.472,5.472,0,0,1,76.8,174.52a7.26,7.26,0,0,1-.96-3.6,12.686,12.686,0,0,1,.617-4.064l-.015-.241a7.474,7.474,0,0,1,.541-3.959,2.828,2.828,0,0,1,1.331-.868,5.412,5.412,0,0,1,1.664-.221,19.638,19.638,0,0,1,2,.139h0l.054.006h0a18.3,18.3,0,0,0,1.85.134c.139,0,.274,0,.4-.012,2.255-.232,4.562-.413,6.793-.588h.006a134.863,134.863,0,0,0,14.029-1.595c.617-.16,1.251-.38,1.864-.593l.006,0h0a12.933,12.933,0,0,1,3.536-.873,2.832,2.832,0,0,1,1.756-.752,2.155,2.155,0,0,1,1.592.787,6.679,6.679,0,0,1,1.353,2.7,8.97,8.97,0,0,1,.338,2.9c.047.641.094,1.282.147,1.994v.015c.113,1.53.231,3.112.332,4.667a12.7,12.7,0,0,0,.187,2.464c.251,1.962.564,4.4-.219,5.311a1.052,1.052,0,0,1-.807.367c-5.05-.256-10.179-.365-15.138-.47-5.693-.12-11.579-.245-17.381-.594,0,.651-.017,1.313-.029,1.954v0c-.029,1.509-.059,3.069.02,4.605a22.568,22.568,0,0,0,.255,3.3,14.928,14.928,0,0,1,.082,4.882,1.388,1.388,0,0,1-.546.785A1.524,1.524,0,0,1,81.6,193.368Zm-1.827-30.343a2.725,2.725,0,0,0-1.335.263,1.128,1.128,0,0,0-.435.425,1.447,1.447,0,0,0-.168.708,11.732,11.732,0,0,1-.2,3.48,19.082,19.082,0,0,0-.261,2.253,5.859,5.859,0,0,0,.294,2.187,3.673,3.673,0,0,0,1.343,1.772,6.067,6.067,0,0,0,2.115.921,21.336,21.336,0,0,0,4.844.417c.364,0,.665.005.95.012,5.024.114,9.65.226,14.143.344,1.5.04,3.035.093,4.516.144h0c2.689.093,5.469.189,8.2.209-.259-2.058-.392-4.178-.521-6.229v-.015c-.059-.945-.12-1.922-.193-2.873a21.083,21.083,0,0,1-.134-2.161,9.629,9.629,0,0,0-.841-4.514,33.126,33.126,0,0,1-4.355,1.178c-1.381.279-2.832.495-4.435.658-2.976.3-6.035.378-8.994.449h-.018c-1.372.033-2.79.067-4.18.124a.445.445,0,0,1-.137.327,3.4,3.4,0,0,1-2.152.42c-1.052,0-2.335-.113-3.454-.218l-.415-.04c-1.006-.1-1.874-.179-2.439-.179a2.786,2.786,0,0,0-.4.023l-.5-.043C80.361,163.046,80.068,163.025,79.771,163.025Z" transform="translate(47.736 -6.161)"/>
    </g>
    <g id="Head" transform="translate(95.946 42.662)">
      <g id="HEAD-2" data-name="HEAD">
        <path id="_Skin-2" data-name="âœ‹ Skin" d="M55.435,104.809h0a50.419,50.419,0,0,1-29.9-9.8,2.612,2.612,0,0,1-.971-1.292,2.187,2.187,0,0,1,.015-1.37,19.237,19.237,0,0,1-2.319-2.372A20.239,20.239,0,0,1,20.342,87.2a19.723,19.723,0,0,1-1.428-3.063,18.033,18.033,0,0,1-.856-3.248.991.991,0,0,0-.584-.621,4.06,4.06,0,0,0-.916-.245c-.139-.026-.271-.051-.4-.081a21.868,21.868,0,0,1-6.642-2.03,8.229,8.229,0,0,1-2.548-2.107,6.7,6.7,0,0,1-.864-1.46A7.443,7.443,0,0,1,5.6,72.565,13.371,13.371,0,0,1,5.6,69.548a12.783,12.783,0,0,1,.586-2.585,25.764,25.764,0,0,1,2.122-4.424c.5-.9,1.026-1.826,1.461-2.782a13.36,13.36,0,0,0,1-3.055,11.625,11.625,0,0,0,.1-3.635,17.789,17.789,0,0,0-1.235-4.523,70.981,70.981,0,0,0-3.933-10c-1.068-2.387-2.173-4.854-3.124-7.324A42.479,42.479,0,0,1,.393,23.892,21.885,21.885,0,0,1,0,20.386a14.846,14.846,0,0,1,.277-3.319,11.293,11.293,0,0,1,3.126-5.824A9.734,9.734,0,0,1,6.26,9.276a8.116,8.116,0,0,1,3.324-.735,7.166,7.166,0,0,1,1.473.152A89.966,89.966,0,0,1,49.6,0a86.764,86.764,0,0,1,20.24,2.375l.27.064a38.306,38.306,0,0,1,4.13,1.152,12.123,12.123,0,0,1,3.725,2.047A4.258,4.258,0,0,1,79.3,7.392a3.138,3.138,0,0,1,.106,1.78,11.83,11.83,0,0,1-1.9,3.7,18.483,18.483,0,0,0-1.837,3.246,6.1,6.1,0,0,0-.425,1.716,4.551,4.551,0,0,0,.193,1.79c.413.577,1.146,1.747,1.961,3.131.676,1.148,1.727,2.982,2.895,5.2,1.741,3.307,3.977,7.921,4.746,11.12s1.275,4.906,1.458,4.906c.028,0,.043-.039.051-.068,0-.012.007-.024.009-.035s.008-.033.012-.033a3.311,3.311,0,0,1,.07.526c.071.621.218,1.914.55,4.535.4,3.183.9,7.39,1.152,11.71a81.862,81.862,0,0,1-.074,11.786,55.618,55.618,0,0,1-.785,5.754,44.868,44.868,0,0,1-1.438,5.571,38.293,38.293,0,0,1-2.206,5.32,35.312,35.312,0,0,1-3.09,5,26.876,26.876,0,0,1-2.326,2.425,30.155,30.155,0,0,1-4.473,3.4,31.546,31.546,0,0,1-6.737,3.161,34.771,34.771,0,0,1-9.118,1.7C57.215,104.785,56.32,104.809,55.435,104.809ZM2.391,20.284A18.4,18.4,0,0,0,2.8,23.318a15.8,15.8,0,0,1,.8-2.194A2.116,2.116,0,0,1,2.391,20.284ZM9.727,9.33a7.434,7.434,0,0,0-2.443.931,9.343,9.343,0,0,0-2.076,1.685A33.032,33.032,0,0,1,9.727,9.33Z" transform="translate(10.902 12.324)" fill="#d08b5b"/>
        <path id="_Ink-2" data-name="ðŸ– Ink" d="M67.611,120.242a30.7,30.7,0,0,1-9.709-1.579,29.959,29.959,0,0,1-4.534-1.942,28.722,28.722,0,0,1-4.151-2.681,1.666,1.666,0,0,1-.551-1.957,2.568,2.568,0,0,1,.807-1.142,2.048,2.048,0,0,1,1.27-.486,1.7,1.7,0,0,1,.991.324,29.842,29.842,0,0,0,7.879,3.95,27.67,27.67,0,0,0,8.593,1.389,25.366,25.366,0,0,0,9.746-1.919,24.971,24.971,0,0,0,4.92-2.733,27.051,27.051,0,0,0,4.238-3.749,27.609,27.609,0,0,0,3.382-4.543,26.288,26.288,0,0,0,2.35-5.115A62.1,62.1,0,0,0,95.18,85.307c.045-.4.1-.853.146-1.3l.036-.314c.291-2.523.514-5.015.662-7.408.156-2.526.234-5.027.232-7.433s-.092-4.567-.274-6.638a54.873,54.873,0,0,0-.9-6.253,49.1,49.1,0,0,0-1.658-6.092,54.1,54.1,0,0,0-2.548-6.157,44.228,44.228,0,0,0-7.33-10.765,3.4,3.4,0,0,1-.684.064,9.2,9.2,0,0,1-1.354-.137h0c-.235-.036-.479-.072-.714-.1-.518-.056-.972-.1-1.386-.14.451.292.906.6,1.39.948l.6.43.283.2.014.01a13.242,13.242,0,0,1,2.58,2.182,3.566,3.566,0,0,1,.88,3.054,1.845,1.845,0,0,1-.547.953,2.125,2.125,0,0,1-.956.547,3.256,3.256,0,0,1-.752.09,3.829,3.829,0,0,1-2.165-.751,14.366,14.366,0,0,1-1.854-1.6c-.349-.339-.679-.658-1.014-.944-1.45-1.237-2.945-2.328-4.477-3.43-.4-.289-.738-.525-1.052-.744.318.371.644.767.969,1.176l.465.59.244.3a13.967,13.967,0,0,1,1.932,2.852,3.382,3.382,0,0,1,.008,3.181,2.037,2.037,0,0,1-.767.768,2.091,2.091,0,0,1-1.047.292H74.1a3.309,3.309,0,0,1-2.41-1.166,12.444,12.444,0,0,1-1.6-2.382c-.24-.422-.466-.821-.7-1.183-1.071-1.632-2.254-3.179-3.27-4.477-.362-.46-.665-.842-.955-1.2a99.434,99.434,0,0,0-15.788,2.1c-3.15.68-6.506,1.589-10.563,2.861l-.29.092A13.089,13.089,0,0,0,33.335,40.1a6.989,6.989,0,0,0,.141,2.8l.145.7a41.465,41.465,0,0,1,.687,4.384,22.662,22.662,0,0,1,.012,4.443,32.7,32.7,0,0,1-2.394,8.788,3.765,3.765,0,0,1-.678,1.128,2.369,2.369,0,0,0-.614,1.445,15.323,15.323,0,0,0,.044,3.382l.084.951a18.81,18.81,0,0,1,.033,3.793,6.7,6.7,0,0,1-1.349,3.467.507.507,0,0,1-.406.183.675.675,0,0,1-.57-.308,4.07,4.07,0,0,0-.23-.363,4.583,4.583,0,0,0-1.464-1.354,5.8,5.8,0,0,0-1.908-.687.114.114,0,0,1-.1-.118.175.175,0,0,1,.144-.166,4.814,4.814,0,0,1,3.209.756c-.18-.623-.867-.938-2.043-.938a12.9,12.9,0,0,0-2.98.447l-.039.01a11.625,11.625,0,0,0-3.927,1.868,9.251,9.251,0,0,0-1.583,1.487,8.992,8.992,0,0,0-1.167,1.783,8.886,8.886,0,0,0-.921,4.165A8.429,8.429,0,0,0,16.586,86.2a7.815,7.815,0,0,0,1.284,1.648,7.676,7.676,0,0,0,1.72,1.265,8.367,8.367,0,0,0,3.963.977h.089a9.578,9.578,0,0,0,1.965-.289,9.261,9.261,0,0,1,1.985-.286c.1,0,.192,0,.286.009a1.294,1.294,0,0,1,1.052.681,1.069,1.069,0,0,1-.045,1.076,4.017,4.017,0,0,1-1.246,1.268,41.67,41.67,0,0,0,4.5,7.852,25.944,25.944,0,0,0,3.308,3.743,11.1,11.1,0,0,0,.87.7,9.794,9.794,0,0,1,1.415,1.213,2.01,2.01,0,0,1,.616,1.5,1.158,1.158,0,0,1-.806,1.062,1.508,1.508,0,0,1-.574.111c-1.24,0-2.6-1.412-3.5-2.347-.1-.105-.206-.214-.3-.311l-.081-.082a28.3,28.3,0,0,1-3.425-4.133,20.382,20.382,0,0,1-2.17-4.167,21.459,21.459,0,0,1-1.176-4.529,8.041,8.041,0,0,1-2.308.309,12.83,12.83,0,0,1-2.863-.343A13.377,13.377,0,0,1,18.67,92.3a10.274,10.274,0,0,1-2.087-1.261,10.608,10.608,0,0,1-1.7-1.666A11.31,11.31,0,0,1,13.6,87.4a11.988,11.988,0,0,1-.864-2.2,12.264,12.264,0,0,1-.348-4.987,11.483,11.483,0,0,1,.62-2.45,10.819,10.819,0,0,1,3.878-5.037,2.564,2.564,0,0,1-.637-.491,16.8,16.8,0,0,1-2.328-3.536l-.23-.421-.09-.162c-.662-1.195-1.291-2.42-1.87-3.64L11.511,64c-.5-1.07-.966-1.9-1.42-2.7a20.59,20.59,0,0,1-1.962-4.285A59.578,59.578,0,0,1,6.07,48.31l-.121-.782a20.551,20.551,0,0,1-.322-5.286,7.044,7.044,0,0,1-2.274.44,3.757,3.757,0,0,1-1.707-.391,2.093,2.093,0,0,1-.961-1.113A2.19,2.19,0,0,1,.6,39.714a3.588,3.588,0,0,1,1.033-1.588,3.724,3.724,0,0,1-.754-.507l-.2-.17a2.071,2.071,0,0,1-.665-1.372,2.613,2.613,0,0,1,.3-1.5c.043-.075.09-.16.14-.251a2.718,2.718,0,0,1,2.313-1.347H2.8l.228,0,.23,0a4.062,4.062,0,0,1-1.275-.5,2.543,2.543,0,0,1-1.019-1.2,2.816,2.816,0,0,1-.178-1.518A2.542,2.542,0,0,1,1.346,28.5,2.358,2.358,0,0,1,2.6,27.742a4.917,4.917,0,0,1,1.149-.128,8.046,8.046,0,0,1,1.844.237L5.57,27.84c-.031-.018-.062-.036-.093-.055a3.067,3.067,0,0,1-1-1,2.288,2.288,0,0,1-.359-1.361,3.325,3.325,0,0,1,.358-1.371,2.6,2.6,0,0,1,1-.994,2.822,2.822,0,0,1,1.416-.376,2.46,2.46,0,0,1,1.347.376,23.274,23.274,0,0,1,2.043,1.505,6.885,6.885,0,0,1-1.467-2.636,2.778,2.778,0,0,1,1.244-3.057,2.5,2.5,0,0,1,1.278-.355,2.862,2.862,0,0,1,1.239.3,2.677,2.677,0,0,1,.514-1.794,3.489,3.489,0,0,1,1.067-.961,2.708,2.708,0,0,1,1.336-.375,2.353,2.353,0,0,1,1.268.373,3.79,3.79,0,0,1,.63.526,3.535,3.535,0,0,1-.168-1.046,2.787,2.787,0,0,1,.169-.987,2.542,2.542,0,0,1,1.451-1.459,2.65,2.65,0,0,1,1.024-.2,3.009,3.009,0,0,1,1.915.671,2.59,2.59,0,0,1,.589-2.154,3.159,3.159,0,0,1,1.039-.811,2.9,2.9,0,0,1,1.261-.3,2.443,2.443,0,0,1,2.181,1.358c.4.728.738,1.379,1.017,1.991l.116.258.012,0-.08-.188-.081-.188c-.083-.193-.172-.391-.259-.583l0,0a9.674,9.674,0,0,1-.877-2.56,3.8,3.8,0,0,1,.038-1.315,2.783,2.783,0,0,1,.5-1.115,2.523,2.523,0,0,1,1.722-.957,2.424,2.424,0,0,1,.325-.022A2.961,2.961,0,0,1,31.482,8a2.957,2.957,0,0,1,.1-1.274,2.837,2.837,0,0,1,.579-1.033,2.634,2.634,0,0,1,1.968-.921,2.688,2.688,0,0,1,1.837.77,8.714,8.714,0,0,1,1.691,2.576c.123.247.251.5.38.745.157.293.317.59.473.877l0,.005c.185.341.375.694.562,1.044.086-.1.181-.207.282-.31a42.7,42.7,0,0,1-1.239-4.664,3.1,3.1,0,0,1,.284-2.121,2.674,2.674,0,0,1,1.671-1.323,2.6,2.6,0,0,1,.692-.092,3.029,3.029,0,0,1,1.737.557,2.465,2.465,0,0,1,1.015,1.489c.2.974.453,1.988.761,3.1a5.019,5.019,0,0,1,.576-.1c.016-.2.034-.394.054-.579l.075-.686L45,5.912A11.019,11.019,0,0,1,46.137,1.37,2.621,2.621,0,0,1,48.413.09a2.849,2.849,0,0,1,1.871.7,2.538,2.538,0,0,1,.62.83,2.694,2.694,0,0,1,.246,1.107,10.233,10.233,0,0,1-.405,2.557c-.128.522-.261,1.061-.337,1.591-.079.554-.132,1.147-.163,1.813a53.982,53.982,0,0,1,1.512-5.961c.048-.159.1-.32.149-.476h0l.005-.017.066-.21A2.941,2.941,0,0,1,53.008.548,2.768,2.768,0,0,1,54.68,0a3.07,3.07,0,0,1,.363.022,2.967,2.967,0,0,1,1.736.916,2.3,2.3,0,0,1,.689,1.828c-.027.25-.064.5-.111.742l.006,0h.006l-.031.09a4.629,4.629,0,0,1-.41,1.19c-.264.77-.515,1.537-.7,2.119.071,0,.14,0,.205,0a4.431,4.431,0,0,1,.809.073c.155-.4.313-.8.467-1.192l.007-.018c.2-.5.4-1.012.6-1.521.092-.235.176-.481.264-.741a5.692,5.692,0,0,1,1.139-2.238A3.185,3.185,0,0,1,61.956.387a3.1,3.1,0,0,1,1.567.407A2.9,2.9,0,0,1,64.8,2.246a3.469,3.469,0,0,1,.14,1.944,2.186,2.186,0,0,1-1.191,1.5l-.063.032-.448,1.062a3.688,3.688,0,0,1,.434-.159,3.56,3.56,0,0,1,.711-.135c.57-1.032,1.228-2.109,2.071-3.389A3.161,3.161,0,0,1,67.535,2.09a2.839,2.839,0,0,1,1.386-.37A2.69,2.69,0,0,1,70.3,2.1a3.019,3.019,0,0,1,1.346,1.934,2.389,2.389,0,0,1-.339,1.91c-.577.812-1.17,1.7-1.924,2.87a2.762,2.762,0,0,1,.315.073c.049-.066.1-.13.149-.192A14.27,14.27,0,0,1,71.785,6.81l.343-.294a5.462,5.462,0,0,0,.778-.906,3.853,3.853,0,0,1,1.333-1.289A2.975,2.975,0,0,1,75.559,4a2.606,2.606,0,0,1,1.243.31,2.51,2.51,0,0,1,.961.932,2.962,2.962,0,0,1,.046,3.2,11.2,11.2,0,0,1-2.287,2.538l0,0c-.2.182-.39.354-.571.525a42.511,42.511,0,0,1,4.664-2.531c1.094-.5,1.94-.862,2.744-1.161a4.072,4.072,0,0,1,1.425-.285,2.928,2.928,0,0,1,1.119.219,4,4,0,0,1,1.076.671,1.831,1.831,0,0,1,.538.917A1.8,1.8,0,0,1,86.5,10.4a3.807,3.807,0,0,1-.905,1.446,3.429,3.429,0,0,1-1.5.811c-.409.113-.829.21-1.236.3-.466.108-.948.219-1.416.355a29.184,29.184,0,0,0-4.28,1.578,2.213,2.213,0,0,1,.282.2c1.008-.326,2.066-.619,3.142-.87a40.6,40.6,0,0,1,5.329-.862l.6-.055.342-.034h.007c.666-.066,1.354-.134,2.031-.134a5.683,5.683,0,0,1,2.058.322,3.242,3.242,0,0,1,1.612,1.317,2.412,2.412,0,0,1,.343,1.236,2.076,2.076,0,0,1-.343,1.231A3.459,3.459,0,0,1,91.109,18.5a4.938,4.938,0,0,1-1.9.31c1.468.155,2.975.353,4.481.585,1.012.154,2.046.333,3.073.531l.51.1c.212.042.432.082.645.121h0a7.908,7.908,0,0,1,3.055.992,2.88,2.88,0,0,1,1.107,1.316,2.448,2.448,0,0,1,.1,1.481,2.742,2.742,0,0,1-.866,1.421,3.132,3.132,0,0,1-1.692.748,3.841,3.841,0,0,1-.475.028,9.874,9.874,0,0,1-2.361-.4c-.356-.091-.693-.176-1.024-.243-1.168-.235-2.373-.449-3.583-.635-.58-.091-1.19-.176-1.865-.261a25.984,25.984,0,0,1,3.752.806l.34.1a17.879,17.879,0,0,1,3.763,1.523,6.871,6.871,0,0,1,1.578,1.226,4.137,4.137,0,0,1,.964,1.654,2.183,2.183,0,0,1-.311,1.9,2.585,2.585,0,0,1-1.95,1.067c-.064,0-.129.006-.194.006a6.054,6.054,0,0,1-2.872-1.009c-.208-.115-.422-.234-.634-.343a15.578,15.578,0,0,0-2.64-1.052c-.925-.284-1.9-.529-2.9-.73a22.8,22.8,0,0,1,2.4,1.513l.354.262A18.99,18.99,0,0,1,95.239,34.4a5.967,5.967,0,0,1,1.085,1.83,3.537,3.537,0,0,1,.1,2.049,2.32,2.32,0,0,1-.765,1.162,2.051,2.051,0,0,1-1.293.518c-.048,0-.1,0-.144-.007a4.315,4.315,0,0,1-2.215-.923,14.889,14.889,0,0,1-1.824-1.739A14.8,14.8,0,0,0,88.421,35.6c-.469-.355-1.009-.726-1.607-1.1a41.973,41.973,0,0,1,3.88,5.5,50.162,50.162,0,0,1,3.028,6,60.1,60.1,0,0,1,3.94,13.275c.379,2.162.651,4.365.831,6.734.167,2.2.252,4.506.26,7.05v.3c.006,6.583-.191,11.553-.638,16.114a54.893,54.893,0,0,1-1.145,7.287,31.317,31.317,0,0,1-2.455,6.939,28.412,28.412,0,0,1-3.424,5.261,31.052,31.052,0,0,1-4.491,4.458,31.684,31.684,0,0,1-5.3,3.473,29.9,29.9,0,0,1-5.84,2.305A29.537,29.537,0,0,1,67.611,120.242ZM25.018,35.583h0a.653.653,0,0,0-.473.216A9.4,9.4,0,0,0,23,38.2a.7.7,0,0,0,.024.7.807.807,0,0,0,.657.381.6.6,0,0,0,.547-.361l.187-.372a7.42,7.42,0,0,1,1.04-1.634l.1-.1a.661.661,0,0,0,.146-.744.771.771,0,0,0-.678-.477Zm-8.624-1.412a.821.821,0,0,0-.136.012c-.584.1-1.173.2-1.744.308s-1.157.209-1.737.307a.575.575,0,0,0-.511.651.783.783,0,0,0,.754.732.819.819,0,0,0,.136-.012c.581-.1,1.169-.2,1.739-.307s1.16-.209,1.742-.308a.575.575,0,0,0,.512-.651A.783.783,0,0,0,16.394,34.171ZM70.05,26.156a.663.663,0,0,0-.625.6.772.772,0,0,0,.072.48.7.7,0,0,0,.409.336,28.436,28.436,0,0,1,3.516,1.362.744.744,0,0,0,.328.079.788.788,0,0,0,.735-.612.592.592,0,0,0-.346-.695A31.521,31.521,0,0,0,70.283,26.2.738.738,0,0,0,70.05,26.156ZM16.173,24.3a.62.62,0,0,0-.579.548.762.762,0,0,0,.459.877l3.071,1.228a.7.7,0,0,0,.259.054.62.62,0,0,0,.579-.548.762.762,0,0,0-.459-.877l-3.071-1.229A.7.7,0,0,0,16.173,24.3Zm64.356-3.473h0a.711.711,0,0,0-.647.54.73.73,0,0,0,0,.432.694.694,0,0,0,.3.374c.178.115.375.218.566.317a4.566,4.566,0,0,1,.843.519l.086.077a.685.685,0,0,0,.474.2.792.792,0,0,0,.7-.493.626.626,0,0,0-.172-.712,5.452,5.452,0,0,0-1.147-.765c-.173-.1-.352-.194-.523-.3l-.112-.071a.671.671,0,0,0-.367-.117ZM27.848,85.246a1.2,1.2,0,0,1-.954-.6A10.134,10.134,0,0,0,21.1,79.818a.067.067,0,0,1-.039-.066.043.043,0,0,1,.039-.04,6.907,6.907,0,0,1,1.053-.081,7.072,7.072,0,0,1,1.982.288,8.153,8.153,0,0,1,1.829.8,10.506,10.506,0,0,1,3.007,2.716,1.228,1.228,0,0,1-.19,1.458,1.109,1.109,0,0,1-.833.351l-.018,0A.652.652,0,0,1,27.848,85.246Z" transform="translate(1.422 0.237)"/>
      </g>
      <g id="FACE" transform="translate(37.761 44.084)">
        <path id="_Ink-3" data-name="ðŸ– Ink" d="M25.657,45.461a9.063,9.063,0,0,1-3.431-.684,9.7,9.7,0,0,1-2.239-1.284,9.528,9.528,0,0,1-1.823-1.835,1.877,1.877,0,0,1-.38-1.455,2.1,2.1,0,0,1,.818-1.315,2.018,2.018,0,0,1,1.2-.417,1.744,1.744,0,0,1,.268.021,1.853,1.853,0,0,1,1.24.818l.073.1a6.4,6.4,0,0,0,2.345,1.964,5.334,5.334,0,0,0,2.326.542,5.164,5.164,0,0,0,.576-.032,6.066,6.066,0,0,0,2.561-.9,11.986,11.986,0,0,0,2.169-1.807c.155-.158.32-.33.533-.557a.844.844,0,0,1,.442-.34.908.908,0,0,1,.288-.046.978.978,0,0,1,.322.055.967.967,0,0,1,.48.363.892.892,0,0,1,.152.588,5.387,5.387,0,0,1-.641,2.09,6.979,6.979,0,0,1-1.371,1.757,8.815,8.815,0,0,1-2.077,1.445,8.659,8.659,0,0,1-2.3.789A8.505,8.505,0,0,1,25.657,45.461Zm2.415-13.648h0a8.305,8.305,0,0,1-2.956-.595,14.94,14.94,0,0,1-3.477-1.969,1.333,1.333,0,0,1-.485-.77,1.592,1.592,0,0,1,.069-.865,1.967,1.967,0,0,1,.585-.844,1.427,1.427,0,0,1,.912-.355,1.3,1.3,0,0,1,.706.216l.235.181,0,0a18.824,18.824,0,0,0,2.176,1.51,5.369,5.369,0,0,0,2.609.83,2.822,2.822,0,0,0,1.1-.216,3.08,3.08,0,0,0,1.026-.726,3.137,3.137,0,0,0,.6-2.529,4.774,4.774,0,0,0-1.27-2.243,9.26,9.26,0,0,0-1.923-1.549.594.594,0,0,1-.161-.684.893.893,0,0,1,.3-.426.911.911,0,0,1,.568-.187,1.212,1.212,0,0,1,.2.018,6.458,6.458,0,0,1,2.268.818,5.141,5.141,0,0,1,1.525,1.4,5.568,5.568,0,0,1,.974,3.725,6.128,6.128,0,0,1-.5,1.955,5.7,5.7,0,0,1-1.124,1.68A5.379,5.379,0,0,1,28.072,31.813ZM8.835,18.486A1.979,1.979,0,0,1,6.917,16.73a14.215,14.215,0,0,1,.076-3.709c.045-.36.091-.733.124-1.135A2.219,2.219,0,0,1,7.959,10.3a2.6,2.6,0,0,1,1.6-.561,1.972,1.972,0,0,1,1.208.379,1.787,1.787,0,0,1,.667,1.185,9.934,9.934,0,0,1-1.041,6.133,1.969,1.969,0,0,1-.7.8A1.607,1.607,0,0,1,8.835,18.486Zm28.237-.841a1.7,1.7,0,0,1-1.33-.569,5.182,5.182,0,0,1-.812-1.375,5.978,5.978,0,0,1-.413-1.656,3.506,3.506,0,0,1,.959-3.013,1.987,1.987,0,0,1,.154-.234,2.174,2.174,0,0,1,1.672-.96,1.815,1.815,0,0,1,.508.075,2.443,2.443,0,0,1,1.633,1.422,5.02,5.02,0,0,1,.2,2.751,9.2,9.2,0,0,1-.836,2.6,1.686,1.686,0,0,1-.722.712A2.193,2.193,0,0,1,37.072,17.645ZM.312,8.807A.308.308,0,0,1,.056,8.65a.343.343,0,0,1-.021-.337A11.7,11.7,0,0,1,2.662,4.995,16.241,16.241,0,0,1,6.177,2.6a15.138,15.138,0,0,1,4.175-1.453l.446-.078A10.884,10.884,0,0,1,12.62.87a2.818,2.818,0,0,1,2.248.837,1.9,1.9,0,0,1,.452,1.354,1.24,1.24,0,0,1-.452.885,3.468,3.468,0,0,1-2.374.695c-.187,0-.381,0-.568-.009H11.92c-.18,0-.384-.01-.586-.01-.186,0-.353,0-.508.013a16.081,16.081,0,0,0-3.534.6A24.028,24.028,0,0,0,.477,8.754.293.293,0,0,1,.312,8.807ZM43.306,7.012h0l-.188-.047a10.648,10.648,0,0,1-2.061-.8l-.669-.329A18.614,18.614,0,0,0,38,4.817a28.262,28.262,0,0,0-5.446-1.2A2.228,2.228,0,0,1,31.458,3.2a1.634,1.634,0,0,1-.611-.929A1.659,1.659,0,0,1,31.035.882,1.776,1.776,0,0,1,31.9.14,1.943,1.943,0,0,1,32.633,0a2.169,2.169,0,0,1,.424.042l.341.07A24.407,24.407,0,0,1,39.28,2.019a11.9,11.9,0,0,1,2.587,1.7A7.537,7.537,0,0,1,43.7,6.075c.064.493,0,.615-.062.7l-.019.024-.017.023a.473.473,0,0,1-.292.194Z" transform="translate(12.587 12.325)"/>
      </g>
      <g id="ACCESORIES" transform="translate(11.162 57.119)">
        <path id="_Ink-4" data-name="ðŸ– Ink" d="M44.1,27.276h0a13.32,13.32,0,0,1-4.077-.622,11.245,11.245,0,0,1-3.6-1.91,10.505,10.505,0,0,1-2.71-3.265,12.937,12.937,0,0,1-1.4-4.685l-.1,0a4.119,4.119,0,0,1-2.26-.744,5.647,5.647,0,0,1-1.7-1.786c-.966.062-1.992.092-3.135.092-1.986,0-4.058-.093-6.062-.183l-.035,0c-2.02-.091-4.109-.184-6.161-.184a46.144,46.144,0,0,0-4.95.237,26.722,26.722,0,0,0-4.735.913,1.388,1.388,0,0,1-1.3.735,2.347,2.347,0,0,1-1.227-.359A1.235,1.235,0,0,1,0,14.647a1.174,1.174,0,0,1,.625-1.035,7,7,0,0,1,2.515-.92,31.523,31.523,0,0,1,4.821-.816c1.484-.142,3.1-.211,4.932-.211,2.014,0,4.064.083,6.048.163h.008c1.979.08,4.025.162,6.013.162,1.415,0,2.676-.041,3.855-.126a24.864,24.864,0,0,0,4.506-3.67c.782-.746,1.592-1.518,2.431-2.205a14.044,14.044,0,0,1,2.7-1.784,15.048,15.048,0,0,1,7.217-1.87,12.07,12.07,0,0,1,6.261,1.647,10.106,10.106,0,0,1,2.529,2.169A11.132,11.132,0,0,1,56.3,9.316a16.553,16.553,0,0,1,6.139-1.082,21.19,21.19,0,0,1,3.806.345,9.264,9.264,0,0,1,1.439-2.428A11.454,11.454,0,0,1,69.62,3.688,13.391,13.391,0,0,1,75.171.461,11.4,11.4,0,0,1,78.328,0,8.912,8.912,0,0,1,85.1,2.963c.263.028.372.289.451.48a.426.426,0,0,0,.1.174,11.171,11.171,0,0,1,.775,1.142,7.331,7.331,0,0,0,2.018,1.1,7.9,7.9,0,0,1,1.73.887,2.553,2.553,0,0,1,.62.651,2.281,2.281,0,0,1,.337.905,2.137,2.137,0,0,1-.4,1.751,6,6,0,0,1-1.346,1.16,5.876,5.876,0,0,0-1.316,1.133,1.931,1.931,0,0,1-.346.638,19.092,19.092,0,0,1-1.739,5.1,14.484,14.484,0,0,1-2.73,3.738,11.277,11.277,0,0,1-3.376,2.3A9.2,9.2,0,0,1,76.2,24.9a8.531,8.531,0,0,1-3.437-.72,9.7,9.7,0,0,1-3.109-2.2,13.534,13.534,0,0,1-2.492-3.754,21.343,21.343,0,0,1-1.585-5.369,3.989,3.989,0,0,0-1.32-.759,4.392,4.392,0,0,0-1.437-.269,2.636,2.636,0,0,0-.365.024,7.512,7.512,0,0,1-1.7.532,9.891,9.891,0,0,0-3.529,3.571,11.329,11.329,0,0,1-1.344,4.812,11.533,11.533,0,0,1-3.027,3.554,13.583,13.583,0,0,1-4.124,2.2A14.61,14.61,0,0,1,44.1,27.276Zm2.62-21.585a12.889,12.889,0,0,0-5.741,1.477,16.957,16.957,0,0,0-5.254,4.187,12.645,12.645,0,0,0-1.174,5.477,7.894,7.894,0,0,0,2.842,5.9,9.209,9.209,0,0,0,1.975,1.263,10.98,10.98,0,0,0,4.694,1.033,10.627,10.627,0,0,0,6.815-2.378,9.706,9.706,0,0,0,2.435-3.062,12.057,12.057,0,0,0,1.22-4.391,12.915,12.915,0,0,0-.568-4.388,7.681,7.681,0,0,0-1.766-2.989A7.44,7.44,0,0,0,46.715,5.691Zm31.3-2.83a6.792,6.792,0,0,0-2.548.488,6.919,6.919,0,0,0-2.314,1.544,20.356,20.356,0,0,0-3.474,5.351,9.941,9.941,0,0,0-.762,6.163,14.244,14.244,0,0,0,1.394,2.532,10.019,10.019,0,0,0,1.717,1.91,7.15,7.15,0,0,0,1.982,1.207,5.938,5.938,0,0,0,2.189.421,6.652,6.652,0,0,0,2.542-.529,10.138,10.138,0,0,0,2.643-1.656,18.827,18.827,0,0,0,2.944-5.258V14.8a15.585,15.585,0,0,0,.94-5.379,14.17,14.17,0,0,0-.2-1.776A7.191,7.191,0,0,0,83.911,5.67,7.65,7.65,0,0,0,82.24,4.162,7.819,7.819,0,0,0,80.221,3.2,7.421,7.421,0,0,0,78.019,2.861Z" transform="translate(2.85 2.607)"/>
      </g>
    </g>
  </g>
</svg>
