<svg xmlns="http://www.w3.org/2000/svg" width="390.67" height="780" viewBox="0 0 390.67 780">
  <g id="peep-standing-10" transform="translate(28.736)">
    <g id="BODY" transform="translate(-28.736 150.264)">
      <path id="_Skin" data-name="âœ‹ Skin" d="M248.541,569.935c1.434-5.783-.676-10.4-6.732-13.8-.521-1.376-12.227-5.838-21.528-12.388a69.212,69.212,0,0,1-14.671-14.411A34.129,34.129,0,0,1,203.516,523c-1.027-9.443-.433-15.633-1.067-18.57,4.274-.56,14.781-277.573,13.082-286.754a27.728,27.728,0,0,0,8.388-2.821c.212-.054-.136-.668-.126-.784,6.656-13.042-3.555-57.39-9.955-69.668,5.082-.132,11.776-.822,14.923-5.057a5.153,5.153,0,0,0,3.151-2.711,43.64,43.64,0,0,0,2.3-4.076c3.386-7.021,5.475-14.816,4.346-22.551.215-.068,1.324-.075,1.379-.385a14.412,14.412,0,0,0-.813-5.373c-5.815-20.23-12.815-40.147-22.067-59.192-4.637-10.194-14.229-13.913-24.169-17.74-4.782-1.875-9.565-4.039-14.556-5.267-.063-.348.235-1.409-.419-1.322-.808.168-.648,1.464-.948,2.192-11.539-9.428-4.222-14.286-11.18-19.449C158.586-.259,149.805-.41,141.867.4c-2.928.085-5.272,1.4-5.962,4.344a20.9,20.9,0,0,1-14.851,11.941c-.532-.945-1.994-3.654-2.813-2.8-9.294.317-23.385,3.722-32.083,6.269-8.732,2.226-17.567,6.29-19.851,15.76-4.145,16.875,2.45,86.226,13.267,99.582l.352.006a18.3,18.3,0,0,0,7.478,4.357c-.066,6.244-2.038,12.34-3.019,18.446-2.209,11.074-3.907,22.161-6.369,33.294-.011,1.24-4.694,18.215-.077,14.811.953.468,2.12.977,3.146,1.414-4.9,11.156-7.149,29.156-6.8,42.938a100.153,100.153,0,0,1-2.1,23.8C58.54,345.775,46.508,505.055,46.225,507.184c-.26,2.035,1.467,13.082,0,16-1.3,2.587-6.854,1.059-7.916,2.057-2.758,4.484-1.5,7.341-3.758,11.817-1.16,1.036-3.755,3.3-4.606,4.9C28.221,543.607-.314,562.3.842,565.131c0,0-.13,1.361-.174,1.656-2.433,14.128,1.618,14.01,14.725,16.089,19.147,3.371,33.457-3.115,49.638-11.779,5.377-3.619,13.02-10.529,10.532-18.713-.069-.5-1.544-9.108-2.129-13.48,0,0,1.586-3.5-4.552-3.064,1.009-1.106,3.227-15.431,2.47-17.326-.48-4.881.266-9.312.029-14.335,2.571.19,47.71-213.393,76.023-226.666.175,1.419-.165,4.059,1.722,4.324,8.757,68.189,29.813,220.947,30.78,221.215-1.451,7.787-1.407,25.839-1.434,33.569-.222.207-1.241,1.115-1.405,1.336-.034-.058-.7.6-.732.621l-.09-.205c-2.982,6.712-7.329,13.625-3.487,20.2-2.851-.207-2.394,5.269-2.521,7.789,1.624,4.931,47.792,18.237,58.109,18.869,3.39.59,19.176-4.421,22.214-5.141C254.5,579.358,250.637,572.056,248.541,569.935Z" transform="translate(25.412 -1.659)" fill="#d08b5b"/>
      <path id="_Shoes" data-name="ðŸ‘Ÿ Shoes" d="M229.021,60.711a4.017,4.017,0,0,1-.673-.048,45.675,45.675,0,0,1-5.392-.79c-2.224-.428-4.852-1.011-7.811-1.731-5.906-1.438-12.693-3.32-19.111-5.3-6.99-2.157-13.035-4.268-17.481-6.107a49.82,49.82,0,0,1-5.774-2.739c-1.49-.867-2.345-1.608-2.54-2.2l.01-.235c.012-.338.017-.718.022-1.121a21.132,21.132,0,0,1,.334-4.22,3.88,3.88,0,0,1,.689-1.588A1.625,1.625,0,0,1,172.6,34c.051,0,.1,0,.155.006a11.193,11.193,0,0,1-.97-2.141,10.768,10.768,0,0,1-.47-2.16,13.462,13.462,0,0,1,.273-4.363,42.55,42.55,0,0,1,3.379-8.78c.364-.774.74-1.574,1.093-2.356l.18-.4.09.205c.01,0,.072-.063.158-.144a3.5,3.5,0,0,1,.567-.481.008.008,0,0,1,.007,0,3.025,3.025,0,0,1,.265-.281h.034a5.634,5.634,0,0,0-.215,1.977,2.815,2.815,0,0,0,.552,1.469,3.362,3.362,0,0,0,1.668,1.091,9.034,9.034,0,0,0,2.767.364,7.864,7.864,0,0,0,5.11-2.21,32.917,32.917,0,0,0,4.051-4.461C192.735,9.547,193.972,8,195.095,7.6l1.17-.424c1.746-.639,4.759-1.765,8.954-3.344.119.288.251.6.391.926a52.994,52.994,0,0,0,4.3,5.167c1.487,1.613,3.032,3.152,4.592,4.573a59.675,59.675,0,0,0,5.782,4.671,124.714,124.714,0,0,0,15.591,8.909c3.315,1.671,5.71,2.879,5.937,3.479a18.266,18.266,0,0,1,3.809,2.78,11.481,11.481,0,0,1,2.366,3.23,10.074,10.074,0,0,1,.962,3.675,13.315,13.315,0,0,1-.4,4.118,16.212,16.212,0,0,1,2.689,4.145,12.341,12.341,0,0,1,.886,2.539,4.316,4.316,0,0,1,.015,2.155,1.87,1.87,0,0,1-1.569,1.319c-.719.171-2.154.582-3.97,1.1h0c-2.648.759-6.275,1.8-9.574,2.626A39.642,39.642,0,0,1,229.021,60.711Zm-203.5-1.5c-1.633,0-3.3-.074-4.958-.221-1.7-.15-3.438-.381-5.173-.687l-1.155-.182-.707-.11a63.8,63.8,0,0,1-7.817-1.505A11.458,11.458,0,0,1,3.1,55.415,5.869,5.869,0,0,1,1.3,53.8,6.068,6.068,0,0,1,.41,51.945a10.562,10.562,0,0,1-.388-2.469,33.823,33.823,0,0,1,.647-7.259l.016-.126c.053-.435.156-1.52.157-1.53-.1-.253.03-.646.4-1.168a13.522,13.522,0,0,1,1.652-1.825,76.862,76.862,0,0,1,6-5c4.839-3.724,10.864-7.94,15.263-11.019h0c3.1-2.17,5.341-3.738,5.789-4.169.808-1.512,3.156-3.6,4.418-4.728l0,0,.186-.166a17.627,17.627,0,0,0,1.628-5.517,24.219,24.219,0,0,1,.635-2.987,13.743,13.743,0,0,1,1.5-3.313c.406-.382,1.469-.394,2.7-.408A15.021,15.021,0,0,0,44.164,0,13,13,0,0,1,47.3,1.053a27.176,27.176,0,0,1,3.425,1.9A21.409,21.409,0,0,1,53.6,5.143,5.138,5.138,0,0,1,55.06,7.068l.041.14c.091.314.2.73.333,1.212A59.828,59.828,0,0,0,57.3,14.429a12.654,12.654,0,0,0,1.268,2.536c.483.692.961,1.042,1.42,1.042a5.881,5.881,0,0,0,2.582-.715,16.463,16.463,0,0,0,3.122-2.144l.261-.24a25.08,25.08,0,0,1,4.809-3.673,6.084,6.084,0,0,1,1.807.319,1.889,1.889,0,0,1,.988.736,2.166,2.166,0,0,1-.121,2.043l.074.544c.468,3.363,1.36,8.732,1.789,11.312v0c.15.9.249,1.5.266,1.622,1.1,3.624.322,7.348-2.317,11.068a32.554,32.554,0,0,1-8.215,7.645c-3.95,2.115-6.949,3.646-9.724,4.964a102.074,102.074,0,0,1-9.6,4.03,65.8,65.8,0,0,1-9.814,2.7c-1.7.323-3.41.57-5.095.733C29.055,59.127,27.28,59.212,25.525,59.213Z" transform="translate(25.411 522.912)" fill="#fff"/>
      <path id="_Top" data-name="ðŸ‘• Top" d="M12.841,220.921h0c.2-1.943.347-3.74.494-5.478v0c.3-3.512.554-6.544,1.053-9.461a35.535,35.535,0,0,1,2.489-8.523l-3.8-1.422c-.465-.2-.289-.973-.12-1.72a6.027,6.027,0,0,0,.173-1.009c.012-.326-.069-.528-.248-.616a1.892,1.892,0,0,1-1.038.45.69.69,0,0,1-.557-.274c-1.2-1.488.357-8.684,1.2-12.549.275-1.268.474-2.183.476-2.437,1.464-6.625,2.678-13.339,3.851-19.832.8-4.414,1.623-8.978,2.517-13.463.333-2.07.787-4.174,1.226-6.21.429-1.99.874-4.048,1.208-6.087a40.687,40.687,0,0,0,.586-6.15,22.044,22.044,0,0,1-4.049-1.76,15.587,15.587,0,0,1-3.309-2.475l-.121-.122-.352-.006a27.582,27.582,0,0,1-3.846-7.421,97.862,97.862,0,0,1-3.374-11.4A262.486,262.486,0,0,1,2.274,73.3C1.659,68.07,1.155,62.785.775,57.6.4,52.445.157,47.532.055,42.994-.049,38.37,0,34.257.188,30.769a49.355,49.355,0,0,1,1.064-8.576,17.548,17.548,0,0,1,1.151-3.3,16.794,16.794,0,0,1,1.687-2.84,18.1,18.1,0,0,1,2.145-2.417A21.384,21.384,0,0,1,8.759,11.6,30.187,30.187,0,0,1,14.638,8.5,50.86,50.86,0,0,1,21.1,6.434l.528-.154c2.936-.85,8.871-2.486,15.637-3.89C40.275,1.766,43.093,1.263,45.641.9A70.716,70.716,0,0,1,53.186.165.486.486,0,0,1,53.544,0c.307,0,.693.295,1.146.876a14.041,14.041,0,0,1,1.036,1.6L56,2.963c.815,2.374,1.708,4.642,2.653,6.741A61.183,61.183,0,0,0,61.7,15.62a48.148,48.148,0,0,0,3.438,5.089,39.141,39.141,0,0,0,3.831,4.263A33.586,33.586,0,0,0,73.19,28.41a31.026,31.026,0,0,0,4.616,2.611,31.268,31.268,0,0,0,5.008,1.785,34.325,34.325,0,0,0,5.4.959c1.735.169,3.4.255,4.934.255a35.327,35.327,0,0,0,4.12-.228,24.579,24.579,0,0,0,3.592-.684,17.578,17.578,0,0,0,3.063-1.14,13.544,13.544,0,0,0,2.535-1.6,11.921,11.921,0,0,0,2.006-2.051,12.436,12.436,0,0,0,1.478-2.507,15.176,15.176,0,0,0,.95-2.963,20.574,20.574,0,0,0,.421-3.419l1.659-12.427c.36.036.33.533.305.933a1.928,1.928,0,0,0,0,.392,84.668,84.668,0,0,1,11.392,4l0,0c1.036.42,2.107.854,3.16,1.267l1.488.574c2.245.87,4.634,1.818,6.89,2.856a46.244,46.244,0,0,1,6.324,3.461,27.927,27.927,0,0,1,5.387,4.594,24.284,24.284,0,0,1,2.227,2.887A25,25,0,0,1,152,31.34c2.251,4.634,4.45,9.492,6.534,14.439,1.987,4.716,3.935,9.666,5.789,14.713,1.755,4.775,3.485,9.8,5.145,14.935,1.553,4.808,3.1,9.89,4.6,15.105a14.3,14.3,0,0,1,.813,5.373c-.04.224-.64.291-1.037.335a2.441,2.441,0,0,0-.342.05c1.007,6.9-.455,14.485-4.346,22.551a43.745,43.745,0,0,1-2.3,4.077,5.73,5.73,0,0,1-1.288,1.686,5.279,5.279,0,0,1-1.863,1.025,9.57,9.57,0,0,1-2.944,2.558,15.675,15.675,0,0,1-3.791,1.509,36.572,36.572,0,0,1-8.187.99,84.372,84.372,0,0,1,5.192,14.232c.892,3.1,1.742,6.385,2.526,9.769.816,3.523,1.541,7.071,2.156,10.547.651,3.682,1.171,7.242,1.544,10.583.4,3.572.631,6.895.69,9.876a54.517,54.517,0,0,1-.407,8.427,19.99,19.99,0,0,1-1.746,6.234c0,.023,0,.182.008.4a14.078,14.078,0,0,1-.086,3.1,19.179,19.179,0,0,1-4.46,1.736c-1.666.468-3.4.841-4.8,1.14q-.5.108-.952.205l-4.987.711c.051.349.662.673,1.507,1.122a13.15,13.15,0,0,1,3.639,2.567,7.341,7.341,0,0,1,1.445,2.273,8.382,8.382,0,0,1,.555,3.227L12.841,220.921ZM47.946,91.828h0a34.225,34.225,0,0,1,6.05.556,42.082,42.082,0,0,1,6.293,1.669l.259.091c5.506,1.945,9.5,3.46,11.863,4.5l8.614,7.238-2.762,12.924.666.031c2.536.114,4.842.172,6.854.172a52.326,52.326,0,0,0,7.735-.448A12.292,12.292,0,0,0,95.836,118a3.109,3.109,0,0,0,1.283-.785A8.185,8.185,0,0,0,98.6,114.8a5.448,5.448,0,0,0,.339-2.439l-.265-.631a118.309,118.309,0,0,1-4.61-12.612,32.5,32.5,0,0,1-.95-4.25,9.385,9.385,0,0,1-.047-2.88A22.4,22.4,0,0,0,93.477,88a9.886,9.886,0,0,0-.413-3.026l-.6-.312c-2.43-1.254-4.8-2.367-7.059-3.307a68.314,68.314,0,0,0-6.533-2.362,47.91,47.91,0,0,0-6.006-1.417,33.941,33.941,0,0,0-5.479-.472,100.148,100.148,0,0,0-10.979.627c-3.753.416-7.672,1.049-11.647,1.881l-1.255,1.763,1.255,10.62a30.825,30.825,0,0,1,3.183-.164h0Z" transform="translate(90.467 12.06)" fill="#9ddadb"/>
      <path id="_Ink" data-name="ðŸ– Ink" d="M229.788,584.485c-.261,0-.521-.007-.771-.021a107.951,107.951,0,0,1-14.313-1.907,146.107,146.107,0,0,1-15.1-3.841,138.244,138.244,0,0,1-14.427-5.354,91.3,91.3,0,0,1-12.3-6.447,7.026,7.026,0,0,1-2.249-2.989,7.831,7.831,0,0,1-.5-1.842,7.255,7.255,0,0,1-.028-1.889,5.937,5.937,0,0,1,1.022-2.746,5.739,5.739,0,0,1,2.476-1.973,9.921,9.921,0,0,1-1.343-5.025,23.862,23.862,0,0,1,.794-5.067l0-.02c.105-.464.214-.944.321-1.442a28.883,28.883,0,0,1,3.215-8.6.3.3,0,0,1,.257-.148.245.245,0,0,1,.258.216,57.738,57.738,0,0,1-.23,8.335l0,.041q-.033.433-.065.864l-.025.341c-.05.691-.115,1.281-.173,1.8a10.3,10.3,0,0,0,.279,4.754,5.544,5.544,0,0,0,.922,1.844,9.6,9.6,0,0,0,1.635,1.676,22.839,22.839,0,0,0,4.876,2.9,102.042,102.042,0,0,0,12.421,4.415h.005c2.687.827,5.008,1.542,6.729,2.237,5.479,1.694,11.093,3.223,16.685,4.545l.414.089c.811.178,1.642.376,2.445.567l.017,0a40.7,40.7,0,0,0,9.317,1.465,17.785,17.785,0,0,0,2.9-.228,7.436,7.436,0,0,1,2.04-1.005c.73-.244,1.512-.423,2.268-.6a10.823,10.823,0,0,0,4.754-1.916c1.716-1.849,2.227-4.256,1.52-7.153a21.208,21.208,0,0,0-3.4-6.869,3.805,3.805,0,0,1-1.156.181,5.1,5.1,0,0,1-2.319-.632,17.733,17.733,0,0,1-2.1-1.333c-.414-.291-.806-.567-1.194-.806l-.071-.043a6.228,6.228,0,0,0-2.945-.805,6.249,6.249,0,0,1-2.944-.8l-.444.084c-1.4.267-2.732.539-3.907.779l-.008,0a36.861,36.861,0,0,1-3.847.695c-.091,0-.139-.013-.144-.038-.029-.167,1.886-.923,6.61-2.609-1.941-1.211-3.834-2.4-5.645-3.634a34.39,34.39,0,0,0-5.447,1.3h0a27.027,27.027,0,0,1-6,1.318c2.256-2.1,5.282-3.3,8.209-4.46l.431-.171a41.139,41.139,0,0,1-4.966-4.36l-1.441.359a53.52,53.52,0,0,1-7.675,1.613c-.239,0-.368-.039-.385-.116-.039-.182.527-.58,1.731-1.216,1.249-.66,3.183-1.577,5.914-2.8a15.562,15.562,0,0,1-2.443-4.23c-.368-.827-.749-1.682-1.2-2.474a9.259,9.259,0,0,0-1.658-2.18,30.945,30.945,0,0,0-11.325,5.033,19.153,19.153,0,0,0-3.2,3.1l-.032.036-.246.279a17.045,17.045,0,0,1-2.041,2.2,13.8,13.8,0,0,1-2.208,1.631,10.5,10.5,0,0,1-2.277,1.013,7.786,7.786,0,0,1-2.247.348,6.182,6.182,0,0,1-2.109-.36,6,6,0,0,1-1.885-1.112,9.384,9.384,0,0,1-2.712-4.662.147.147,0,0,1,.029-.129.21.21,0,0,1,.159-.077.13.13,0,0,1,.122.069l.009.021a6.256,6.256,0,0,0,2.255,2.586,6.712,6.712,0,0,0,1.635.8,5.766,5.766,0,0,0,1.8.3,5,5,0,0,0,2.336-.569l.094-.05A9.606,9.606,0,0,0,188,535.7a28.342,28.342,0,0,0,1.97-2.343l0,0a22.854,22.854,0,0,1,2.46-2.819,24.713,24.713,0,0,1,2.579-2.022,30.277,30.277,0,0,1,2.823-1.7,43.353,43.353,0,0,1,6.117-2.636A41.645,41.645,0,0,1,202.91,517c-.187-2.544-.26-5.335-.2-7.656-1.68.079-3.353.119-4.971.119-2.772,0-5.5-.117-8.122-.349A79.542,79.542,0,0,1,181.573,508a123.521,123.521,0,0,1,.678,15.891v0c0,3.63.009,7.059.215,9.969a1.757,1.757,0,0,1-.292,1.613,2.771,2.771,0,0,1-1.037.826,3.057,3.057,0,0,1-1.287.306,1.817,1.817,0,0,1-1.036-.288,1.418,1.418,0,0,1-.585-.933c-.127-3.739-.023-8.429.3-13.564.3-4.845.8-9.9,1.393-14.244l-.5-.121a5.545,5.545,0,0,1-1.37-.486,2.515,2.515,0,0,1-.283.016,2,2,0,0,1-.994-.253,2.475,2.475,0,0,1-.767-.7,6.565,6.565,0,0,1-.982-2.428,38.607,38.607,0,0,1-.637-6.628v0a25.8,25.8,0,0,0-.328-3.986c-.941-13.111-2.09-26.472-3.514-40.847-1.269-12.808-2.728-26.134-4.461-40.739-3.219-27.132-6.92-54.667-10.5-81.3V330.1c-2.044-15.206-4.157-30.93-6.157-46.4a2.147,2.147,0,0,1-1.214-1.3,8.981,8.981,0,0,1-.45-1.9l-.013-.081c-8.459,5.714-11.866,15.674-15.161,25.3-1.149,3.359-2.234,6.532-3.527,9.554-1.866,5.173-3.713,10.562-5.489,16.019-1.693,5.2-3.378,10.635-5.008,16.151-3.008,10.18-5.9,20.851-8.846,32.623-2.454,9.81-4.987,20.58-7.745,32.924-2.457,11-4.863,22.207-7.188,33.046l-.006.026c-4.152,19.347-8.445,39.352-13.186,58.88l.085.022c.027.008.04.014.039.017s-.01,0-.028,0l-.076,0-.029,0v0a1.578,1.578,0,0,1,1.2.853,1.213,1.213,0,0,1-.084,1.2,3.937,3.937,0,0,1-2.068,1.942,7.427,7.427,0,0,1-2.889.48,28.192,28.192,0,0,1-3.114-.232c-.545-.061-1.107-.124-1.615-.16.132,2.3,0,5.71-.147,9.317-.189,4.764-.385,9.69.032,12.421a3.648,3.648,0,0,1,3.367,2.049,12.993,12.993,0,0,1,1.118,3.9h0c.059.334.115.649.174.943l.04.261c.149.942.377,2.075.619,3.274.442,2.2.944,4.688,1.166,6.98.258,2.65.09,4.532-.511,5.755a5.385,5.385,0,0,1,1.074,1.986,5.5,5.5,0,0,1,.173,2.1,7.592,7.592,0,0,1-1.09,3.1,9.206,9.206,0,0,1-2.179,2.465,37.178,37.178,0,0,1-6.822,3.662c-1.058.477-2.152.971-3.2,1.5-3.863,1.557-7.778,3.51-11.564,5.4l0,0h0a139.413,139.413,0,0,1-14.525,6.563,53.771,53.771,0,0,1-7.619,2.183c-1.325.27-2.65.476-3.939.614a38.278,38.278,0,0,1-4.041.218,36.6,36.6,0,0,1-4.3-.253,37.271,37.271,0,0,1-4.433-.8l-.843-.177a85.312,85.312,0,0,1-8.408-2.062,18.421,18.421,0,0,1-2.935-1.209A8.772,8.772,0,0,1,2.089,577.7a6.469,6.469,0,0,1-1.375-2.036,8.9,8.9,0,0,1-.649-2.691A28.158,28.158,0,0,1,.8,564.987a10.9,10.9,0,0,1-.616-2.078,9.36,9.36,0,0,1-.161-2.1,7.7,7.7,0,0,1,1.22-3.938,16.736,16.736,0,0,1,3.34-3.136c1.254-.922,2.635-1.765,3.971-2.58l0,0h0c1.291-.788,2.626-1.6,3.836-2.483,2.692-1.806,5.5-3.539,8.214-5.215h0c3.632-2.243,7.387-4.562,10.9-7.072-.066-.057-.091-.107-.075-.149.025-.066.146-.1.256-.1a.552.552,0,0,1,.094.008,9.208,9.208,0,0,0,1.616-1.623,11.317,11.317,0,0,0,1.165-1.861,29.1,29.1,0,0,0,1.581-4.129,20.552,20.552,0,0,1,2.588-5.814,2.589,2.589,0,0,1,.83-1.141,4.791,4.791,0,0,1,1.39-.761,10.494,10.494,0,0,1,3.514-.557,11.507,11.507,0,0,1,1.353.077,13.048,13.048,0,0,1-.036-3.1c.1-1.272.281-2.738.538-4.239s.557-2.879.872-4a7.6,7.6,0,0,1,.963-2.391.445.445,0,0,1,.313-.2c.224,0,.411.351.558,1.043a22.712,22.712,0,0,1,.331,3.5v.185c0,.408.017,1.014.035,1.716.036,1.418.08,3.182.059,4.767a11.587,11.587,0,0,1-.345,3.469,14.569,14.569,0,0,1,2.711,1.128,13.2,13.2,0,0,1,2.221,1.521,14.891,14.891,0,0,1,3.237,3.936,25.853,25.853,0,0,1,2.07,4.659c.554,1.611,1,3.24,1.43,4.816l.005.02c.083.3.17.62.254.925l.115.031.2.05.006,0c.543.131,1.158.28,1.409.772a7.5,7.5,0,0,0,1.747-1.58,22.179,22.179,0,0,0,1.365-1.906h0A11.741,11.741,0,0,1,68.8,532.1a1.662,1.662,0,0,1-.61-1.146,2.621,2.621,0,0,1,.215-1.351,78.461,78.461,0,0,0,1.385-8.219c.316-2.294.644-4.667,1.027-6.846a33.888,33.888,0,0,1,1.352-5.581c-2.35-.351-4.753-.661-7.076-.96l-.018,0h0c-3.082-.4-6.269-.807-9.383-1.321a88.125,88.125,0,0,1-9.25-1.985,2.125,2.125,0,0,1-1.481.587,1.821,1.821,0,0,1-1.319-.522,1.719,1.719,0,0,1-.439-1.3c.636-10.292,1.406-20.891,2.288-31.5.852-10.252,1.836-20.833,2.923-31.449,1.046-10.214,2.221-20.776,3.493-31.393,1.218-10.169,2.562-20.711,4-31.332,1.222-10.305,2.807-21.542,4.846-34.352,1.817-11.419,3.819-23.005,5.755-34.21v0c2.711-15.692,5.515-31.919,7.853-47.926l.048-5.334c.037-3.866.093-8,.249-12.048.172-4.455.45-8.382.848-12a104.746,104.746,0,0,1,1.943-11.829c.451-1.988.968-3.942,1.537-5.807.595-1.953,1.267-3.875,2-5.713-.575-.25-1.087-.485-1.565-.716a3.424,3.424,0,0,1-1.28.3,1.555,1.555,0,0,1-1.269-.592,4.191,4.191,0,0,1-.7-2.282,18.271,18.271,0,0,1,.124-3.376c.281-2.466.874-5.179,1.351-7.359h0c.325-1.486.582-2.66.631-3.27.932-4.979,1.925-10.027,2.886-14.909v0c2.342-11.9,4.764-24.208,6.463-36.375a21.52,21.52,0,0,1-3.6-1.671,16.89,16.89,0,0,1-3.168-2.393c-1.412-1.147-2.811-3.332-4.158-6.5a78.743,78.743,0,0,1-3.623-11.324A253.088,253.088,0,0,1,67.715,87c-1.294-11.019-2.131-22.453-2.356-32.2-.113-4.873-.07-9.156.127-12.729a43.413,43.413,0,0,1,1.093-8.461,17.587,17.587,0,0,1,2.9-6.43,21.181,21.181,0,0,1,4.888-4.79,31.274,31.274,0,0,1,6.156-3.373,45.749,45.749,0,0,1,6.708-2.178l1.328-.375c4.447-1.249,9.732-2.679,15.2-3.823a106.816,106.816,0,0,1,15.514-2.179,1.2,1.2,0,0,1,.78-.214c.406,0,.756.107.831.255a6.23,6.23,0,0,1,1.8,1.974c3.978-.456,6.92-1.534,8.993-3.3a13.954,13.954,0,0,0,3.463-4.946,13.323,13.323,0,0,1,1.559-2.679A4.413,4.413,0,0,1,139.251,0h.054a1.3,1.3,0,0,1,.8.248,1.259,1.259,0,0,1,.431.609,1.608,1.608,0,0,1,.02.938,1.526,1.526,0,0,1-.545.814l-.042.031a4.836,4.836,0,0,0-1.752,2.151,13.018,13.018,0,0,1-2.026,3.546,13.272,13.272,0,0,1-2.931,2.695,13.526,13.526,0,0,1-3.578,1.712,13.424,13.424,0,0,1-3.965.6,13.354,13.354,0,0,1-2.658-.268c1.076,2,1.992,4,2.879,5.937v0c.928,2.024,1.887,4.118,3.02,6.188a31.586,31.586,0,0,0,5.134,7.509,34.134,34.134,0,0,0,6.843,5.731,32.825,32.825,0,0,0,7.82,3.657,27.08,27.08,0,0,0,8.066,1.285,20.787,20.787,0,0,0,6.8-1.093,17.5,17.5,0,0,0,5.9-3.418,19.19,19.19,0,0,0,4.481-5.953,28.5,28.5,0,0,0,2.55-8.7,5.361,5.361,0,0,1-2.076-.921,8.84,8.84,0,0,1-1.812-1.768,16.626,16.626,0,0,1-2.623-5.169A18.952,18.952,0,0,1,169.1,10a7.312,7.312,0,0,1,1.622-4.8l.106.5c.11.523.217,1.047.32,1.555v0a50.1,50.1,0,0,0,1.824,7.149,19.01,19.01,0,0,0,1.545,3.291,14.9,14.9,0,0,0,2.306,2.955,1.26,1.26,0,0,0,.361.047c.173-.818.356-1.532.559-2.18a1.589,1.589,0,0,1,.633-.863,1.7,1.7,0,0,1,.951-.28,1.672,1.672,0,0,1,1.206.487,1.493,1.493,0,0,1,.4,1.126c3.361,1.022,6.98,2.317,11.064,3.96,3.637,1.462,7.287,3.055,10.818,4.594l.007,0,1.9.828a29.64,29.64,0,0,1,8.7,5.794,29.14,29.14,0,0,1,3.428,3.943,28.686,28.686,0,0,1,2.676,4.53c2.047,4.227,4.063,8.7,5.994,13.287,1.811,4.3,3.612,8.87,5.353,13.57,3.077,8.306,6.094,17.357,9.224,27.669a24.848,24.848,0,0,0,.836,2.962c.973,3.056,2.3,7.242,1.334,9a1.525,1.525,0,0,1-.979.768,32.53,32.53,0,0,1,.1,5.765,38.7,38.7,0,0,1-.846,5.708,51.437,51.437,0,0,1-3.847,10.885c-.346.587-.663,1.213-1,1.875h0a20.991,20.991,0,0,1-1.871,3.214,7.261,7.261,0,0,1-1.235,1.295,5.287,5.287,0,0,1-1.576.884,11.024,11.024,0,0,1-2.832,2.479,15.854,15.854,0,0,1-3.484,1.575,30.424,30.424,0,0,1-7.565,1.266c.817,1.92,1.667,4.2,2.526,6.775.867,2.6,1.723,5.441,2.544,8.443,1.748,6.4,3.247,13.195,4.334,19.661.589,3.506,1.056,6.905,1.386,10.1.353,3.411.554,6.62.6,9.54.1,6.477-.57,11.579-1.981,15.164a1.48,1.48,0,0,1-.519,1.395,5.984,5.984,0,0,1-1.774,1.092,30.629,30.629,0,0,1-4.622,1.427h-.007c-.536.134-1,.249-1.311.346a83.867,83.867,0,0,1,1.062,13.484c.027,4.963-.274,9.839-.539,13.532-.757,9.606-1.438,19.253-2.025,28.674-.6,9.612-1.115,19.27-1.537,28.7-.43,9.618-.772,19.282-1.018,28.723-.251,9.619-.409,19.286-.47,28.734-.062,9.616-.025,19.284.11,28.735.137,9.613.379,19.278.72,28.726.346,9.6.8,19.264,1.36,28.708.565,9.593,1.248,19.243,2.031,28.68.358,4.578.762,9.386,1.2,14.289l.257,2.855a102.4,102.4,0,0,1,.536,11.42,2.12,2.12,0,0,1-.715,1.571,2.554,2.554,0,0,1-1.522.626,14.912,14.912,0,0,1-4.932,1.894,50.422,50.422,0,0,1-5.4.757h0c-.918.1-1.786.185-2.645.3.25,1.364.462,2.964.686,4.658v.011c.225,1.7.458,3.459.746,5.086a24.268,24.268,0,0,0,1.075,4.288,3.72,3.72,0,0,1,.938-.125,2.685,2.685,0,0,1,1.456.393,1.634,1.634,0,0,1,.732.958,1.4,1.4,0,0,1-.177,1.063,2.843,2.843,0,0,1-1.16,1.01,12.045,12.045,0,0,1,2.766,2.168c.814.832,1.56,1.761,2.281,2.66v0a29.268,29.268,0,0,0,2.793,3.158,12.16,12.16,0,0,1,4.349-1.025,3.452,3.452,0,0,1,1.616.326,1.024,1.024,0,0,1,.6.8,1.093,1.093,0,0,1-.192.678,2.5,2.5,0,0,1-.693.687,7.345,7.345,0,0,1-2.931,1.056,60.544,60.544,0,0,0,5.228,3.861l.129-.018c.479-.072,1.055-.218,1.665-.372l.008,0a14.53,14.53,0,0,1,3.3-.574,2.16,2.16,0,0,1,2.241,1.2,1.4,1.4,0,0,1-.156,1.182c-.416.624-1.429,1.049-3.012,1.263,1.361.857,2.7,1.69,4.062,2.54.416-.183.836-.384,1.243-.579a22.482,22.482,0,0,1,2.329-1.01,3.029,3.029,0,0,1,.653-.076,1.71,1.71,0,0,1,1.172.4,1.3,1.3,0,0,1,.426.936,1.8,1.8,0,0,1-.68,1.385,3.7,3.7,0,0,1-2.221.768,8.308,8.308,0,0,0,3.471,1.261c1.542.308,3,.6,3.879,2.032a10.747,10.747,0,0,1,3.691,2.5,12.656,12.656,0,0,1,2.47,3.668,14,14,0,0,1,1.153,4.276,12.742,12.742,0,0,1-.259,4.319,11.014,11.014,0,0,1,2.471,3.216,10.017,10.017,0,0,1,1.093,3.889,5.171,5.171,0,0,1-1.191,3.946,7.026,7.026,0,0,1-3.8,2.364c-3.154,1.048-6.6,2.1-10.541,3.206l-.369.127a40.669,40.669,0,0,1-4.115,1.2A19.008,19.008,0,0,1,229.788,584.485Zm-55.814-28.392a6.529,6.529,0,0,0-.276,5.173,7.312,7.312,0,0,0,2.059,2.8,12.875,12.875,0,0,0,3.412,2.073c4.082,1.889,8.146,3.612,12.078,5.122,4.27,1.639,8.521,3.079,12.635,4.279a133.832,133.832,0,0,0,13.064,3.128,111.794,111.794,0,0,0,13.366,1.668c2.75-.664,5.537-1.561,8.232-2.429h0c2.686-.865,5.462-1.759,8.229-2.432l.24-.043a4.61,4.61,0,0,0,2.149-.747,2.183,2.183,0,0,0,.557-2l.071-.819a27.965,27.965,0,0,0,.13-4.366,8.6,8.6,0,0,1-1.857,2.721,12.845,12.845,0,0,1-2.756,2.072,19.1,19.1,0,0,1-3.277,1.461,23.86,23.86,0,0,1-3.418.89,15.556,15.556,0,0,1-6.8,1.435,44.008,44.008,0,0,1-10.778-1.854h-.006c-1.552-.4-3.018-.779-4.471-1.079-2.032-.617-4.537-1.31-7.188-2.044h0c-6.088-1.685-13.664-3.782-20.279-6.264-1.72-.645-3.324-1.3-4.766-1.94-1.563-.7-2.991-1.4-4.242-2.1a29.8,29.8,0,0,1-3.517-2.265A15.3,15.3,0,0,1,173.974,556.093ZM2,567.23H2c.264,1.284.4,2.393.521,3.373.239,1.945.411,3.351,1.4,4.417A5.865,5.865,0,0,0,6.136,576.4a22.806,22.806,0,0,0,4.106,1.064,50.172,50.172,0,0,0,7.254,1.8,41.8,41.8,0,0,0,6.833.576,39.715,39.715,0,0,0,5.841-.434,42.763,42.763,0,0,0,5.666-1.253,57.886,57.886,0,0,0,11.118-4.67c3.5-1.7,7.165-3.277,10.71-4.8l0,0c5.047-2.174,10.265-4.422,15.083-7.047l.111-.078a8.6,8.6,0,0,0,2.269-2.319,3.969,3.969,0,0,0,.57-1.474,2.8,2.8,0,0,0-.208-1.568l-.235.072-.505.158-.016.005a14.183,14.183,0,0,1-4.221.866,6.727,6.727,0,0,1-1.643-.2c-8.807,2.979-18.043,6.5-29.947,11.427-1.654.79-3.277,1.509-4.822,2.136-1.839.746-3.639,1.391-5.351,1.917a47.424,47.424,0,0,1-5.64,1.382,32.857,32.857,0,0,1-5.689.531,23.707,23.707,0,0,1-4.311-.379,18.8,18.8,0,0,1-4.082-1.236,16.949,16.949,0,0,1-3.741-2.243A18.434,18.434,0,0,1,2,567.23Zm14.831,3.145.278,0h0a27.788,27.788,0,0,0,4.776-.421,36.4,36.4,0,0,0,4.553-1.108,90.874,90.874,0,0,0,8.7-3.347c2.141-.91,4.356-1.851,6.559-2.631a86.185,86.185,0,0,0,8.251-3.247l0,0c3.46-1.463,7.382-3.122,10.916-4.426,4.094-1.511,6.864-2.245,8.467-2.245a1.727,1.727,0,0,1,1.479.5,12.489,12.489,0,0,1,1.446-.544h0a5.956,5.956,0,0,0,2.575-1.321,61.694,61.694,0,0,0-1.39-13h0c-.075-.42-.168-.944-.255-1.438-.063-.308-.157-.633-.257-.977h0a8.017,8.017,0,0,1-.367-1.7A6.492,6.492,0,0,0,70.55,535.7a20.3,20.3,0,0,0-1.679,1.716l0,0a14.56,14.56,0,0,1-2.344,2.237,5.649,5.649,0,0,1-1.429.736,5.325,5.325,0,0,1-1.74.279c-.19,0-.387-.009-.585-.027a1.738,1.738,0,0,1-1.541.7,4.351,4.351,0,0,1-2.7-1.026,5.642,5.642,0,0,1-1.5-3.389c-.032-.164-.067-.349-.1-.526l-.13-.616c-.238-1.118-.536-2.433-.94-3.713a18.206,18.206,0,0,0-1.527-3.582,10.487,10.487,0,0,0-2.046-2.619,13.181,13.181,0,0,0-2.8-2,14.691,14.691,0,0,0-3.269-1.277,13.783,13.783,0,0,0-3.445-.449,11.125,11.125,0,0,0-3.578.564,36.115,36.115,0,0,0-.133,4.446,31.916,31.916,0,0,1-.209,5.043,11.781,11.781,0,0,1-.6,2.392,9.123,9.123,0,0,1-1.2,2.233c2.84.5,5.619,1.066,7.962,1.557l2.424.511a6.206,6.206,0,0,1,1.773.608,1.665,1.665,0,0,1,.591.555,1.17,1.17,0,0,1,.14.8,1.028,1.028,0,0,1-.47.757,1.712,1.712,0,0,1-.9.206,7.287,7.287,0,0,1-1.9-.347l-.472-.138c-3.824-1.124-7.024-2.094-10.213-3.179a20.287,20.287,0,0,1-3.042,2.663c-1.126.825-2.358,1.612-3.444,2.307h0l.961.109.739.082.265.03h0c3,.332,6.093.676,9.09,1.289a1.322,1.322,0,0,1,.765.549,1.156,1.156,0,0,1,.166.783,1.08,1.08,0,0,1-.339.648,1.13,1.13,0,0,1-.773.278,1.613,1.613,0,0,1-.166-.009c-.943-.246-1.887-.5-2.8-.744h0c-2.991-.8-6.083-1.633-9.173-2.2-.712.47-1.435.948-2.134,1.411l-.054.036-.084.056c-1.194.791-2.429,1.609-3.649,2.408,2.513.363,5.073.515,7.548.662h.011c1.357.081,2.761.164,4.139.282a1.931,1.931,0,0,1,1.888,1.978,1.559,1.559,0,0,1-.448,1.045,1.708,1.708,0,0,1-1.234.457h0c-.065,0-.134,0-.2-.008a57.135,57.135,0,0,1-13.42-3.284l-2.281,1.5c-2.406,1.578-5.208,3.41-8.027,5.192-.381.242-.777.475-1.2.722a12.381,12.381,0,0,0-3.654,2.784,5.084,5.084,0,0,0-.819,2.712,5.225,5.225,0,0,0,.709,2.544,11.358,11.358,0,0,0,4.86,4.248,15.063,15.063,0,0,0,6.509,1.688ZM82.072,206.46a.511.511,0,0,1,.392.2c6.8,2.112,13.7,4,20.484,5.616,6.943,1.651,13.952,3.056,20.832,4.174,7.042,1.145,14.13,2.02,21.069,2.6,7.1.595,14.235.9,21.195.9h0c5.092,0,10.211-.162,15.214-.48,5.089-.324,10.2-.82,15.185-1.474,6.3-.784,12.827-1.894,19.966-3.392a.454.454,0,0,1,.113-.36.562.562,0,0,1,.412-.173.475.475,0,0,1,.476.346l.935-.165h0c1.134-.2,2.307-.409,3.455-.558a2.194,2.194,0,0,1-.026-1.514,32.144,32.144,0,0,0,1.367-6.1,47.82,47.82,0,0,0,.37-6.327,126.625,126.625,0,0,0-.891-12.721v0c-.065-.628-.133-1.278-.2-1.916-.389-4.609-1.014-9.619-1.912-15.317-.8-5.083-1.739-10.228-2.647-15.2l-.005-.03c-.579-3.177-1.178-6.462-1.735-9.7-4.259-.193-8.579-.588-12.758-.971h0c-5.9-.539-11.995-1.1-18.027-1.1-.648,0-1.294.006-1.92.019a6.309,6.309,0,0,1-.967,1.655A7.549,7.549,0,0,1,181,145.86a6.4,6.4,0,0,1-3.7,1.3,4.6,4.6,0,0,1-2.216-.555,5.5,5.5,0,0,1-2.1-2.115,17.856,17.856,0,0,1-1.249-2.78c-.137-.358-.278-.728-.424-1.079-1.775-4.294-3.6-8.607-5.368-12.778l0-.006-.606.153a66.771,66.771,0,0,1-16.243,2.328c-.92,0-1.836-.029-2.72-.087a34.354,34.354,0,0,0-.673,4.488,40.643,40.643,0,0,1-1.135,6.794c-.7,2.37-1.743,3.768-3.175,4.273a3.958,3.958,0,0,1-1.378.236,4.242,4.242,0,0,1-1.859-.418,2.653,2.653,0,0,1-1.277-1.263c-6.523-.116-13.182-.568-19.621-1.006-2.659-.181-5.409-.368-8.107-.528-1.472-.116-2.982-.207-4.443-.3H104.7c-2.723-.165-5.539-.336-8.285-.67a44.884,44.884,0,0,1-8.087-1.66,43.382,43.382,0,0,1,.791,6.078,36.962,36.962,0,0,1-.156,6.147c-.358,4.079-.942,8.515-1.784,13.563-.75,4.5-1.632,9.056-2.485,13.463v0c-.812,4.194-1.651,8.532-2.375,12.809-.812,4.795-1.389,9.005-1.765,12.872l-.079.842-.05-.029c0,.033,0,.066,0,.1.449.13.926.273,1.5.45A.344.344,0,0,1,82.072,206.46ZM119.729,10.871h0c-4.806,1.417-9.742,2.685-14.516,3.911-6.6,1.7-13.432,3.45-20.02,5.625a27.869,27.869,0,0,0-6.465,2.436,19.619,19.619,0,0,0-5.057,3.828A18.114,18.114,0,0,0,68.926,38.73c-.188,5.221-.2,10.67-.024,16.194.162,5.2.49,10.645.975,16.185.867,9.913,2.247,20.427,4.218,32.144l.187.96c.2,1.045.406,2.11.6,3.14l0,.024c.869,4.541,1.767,9.237,2.853,13.809.585,2.463,1.175,4.689,1.8,6.8.706,2.377,1.442,4.557,2.25,6.663a34.961,34.961,0,0,0,8.643,2.62,70.372,70.372,0,0,0,9.029.936c8.428.428,17.393.894,26.2,1.47l6.844.443c.4.026.828.033,1.279.04,1.766.028,3.768.06,4.96,1.29a.552.552,0,0,0,.35.217.988.988,0,0,1,.255.107l.04.029a1.578,1.578,0,0,1,.191.165.762.762,0,0,0,.481.281.369.369,0,0,0,.08-.009c.465-.144.67-1,.792-1.519.012-.051.023-.1.034-.141l.011-.044c.386-1.506.715-3.055,1.033-4.554v-.006c.23-1.083.468-2.2.726-3.3.482-1.769.876-3.6,1.257-5.378v0a53.683,53.683,0,0,1,2.871-10.1,42.6,42.6,0,0,1-8.371-6.786l-2.965-1.042A164.465,164.465,0,0,0,113.88,103a1.936,1.936,0,0,1-.686,1.256,2.024,2.024,0,0,1-1.285.5,1.536,1.536,0,0,1-1.4-.9,51.568,51.568,0,0,1-1.772-8.276h0c-.269-1.709-.547-3.476-.927-5.179-.617-3.636-1.277-7.329-1.915-10.9v-.008c-1.692-9.471-3.442-19.265-4.573-28.98a124.915,124.915,0,0,1,3.637,12.243c1.065,4.263,2.033,8.721,2.969,13.033v.009c1.007,4.639,2.048,9.435,3.2,13.927a.3.3,0,0,1,.151-.041.207.207,0,0,1,.219.214,49.471,49.471,0,0,1,36.014.447c1.238.5,2.506.977,3.731,1.443l.021.008c1.611.612,3.277,1.245,4.9,1.919a5.534,5.534,0,0,0,1.213.426c.894.243,1.819.5,2.037,1.294a5.466,5.466,0,0,1,1.45-2.1,3.021,3.021,0,0,1,1.918-.684c.406,0,.654.124.718.359a136.851,136.851,0,0,1,14.313,3.026h0c3.525.878,7.171,1.785,10.784,2.455,1.945.361,3.726.626,5.444.81a51.188,51.188,0,0,0,5.5.307c1.041,0,2.078-.036,3.082-.108-1.36-4.956-1.417-10.277-1.472-15.424-.009-.8-.018-1.715-.034-2.579l.032-.672c.017-.372.034-.741.052-1.131l0-.091c.125-2.761.267-5.891.607-8.818a30.383,30.383,0,0,1,1.812-7.969,122.445,122.445,0,0,0-.46,18.281c.24,5.451.77,11.233,1.67,18.2a19.661,19.661,0,0,1,2.468-.179,6.747,6.747,0,0,1,2.059.255,1.4,1.4,0,0,1,.893.652,1.1,1.1,0,0,1-.32,1.175,5.7,5.7,0,0,1-2.282,1.431,10.493,10.493,0,0,1-3.668.651c-.115,0-.232,0-.347-.006-.913.066-1.85.1-2.783.1a44.206,44.206,0,0,1-6.957-.568,61.743,61.743,0,0,1-6.8-1.5c-4.492-1.236-8.965-2.9-13.291-4.516h0c-2.073-.773-4.217-1.572-6.322-2.308a11.971,11.971,0,0,0-4.11-1.052,2.375,2.375,0,0,0-1.817.665c-.945.988-1.047,3.051-.905,6.059.006,7.427,3.183,14.255,6.255,20.858l.03.065c.179.385.365.784.546,1.175l1.458,3.271c2.276,5.112,4.718,10.632,7.165,16.357a37.256,37.256,0,0,1,7.042-1.562,56.975,56.975,0,0,1,7.28-.424c4.06,0,8.193.325,12.19.639,1.979.156,4.025.316,6,.431a51.516,51.516,0,0,0,6.432.467,28.03,28.03,0,0,0,3.7-.23,22.553,22.553,0,0,0,3.56-.759,25.728,25.728,0,0,0,7.145-3.512c.676-1.289,1.423-2.582,2.146-3.833.969-1.677,1.971-3.41,2.829-5.179a27.214,27.214,0,0,0,2.051-5.537,50.272,50.272,0,0,0,1.6-7.472c.367-2.552.6-5.156.81-7.6l-.389-1.418c-2.935-10.653-5.511-19.275-8.106-27.133-3.221-9.754-6.5-18.417-10.031-26.484l-.41-.955-.027-.064-.16-.373c-2.516-5.881-5.118-11.962-10.191-16.063a56.292,56.292,0,0,0-7.677-4.671c-2.668-1.374-5.46-2.629-8.16-3.843h0a107.17,107.17,0,0,1-12.844-6.484l-.059.419a56.586,56.586,0,0,1-2.144,9.8,32.484,32.484,0,0,1-1.9,4.623,25.043,25.043,0,0,1-2.7,4.217,20.083,20.083,0,0,1-3.656,3.477,21.1,21.1,0,0,1-4.281,2.426,23.5,23.5,0,0,1-4.712,1.421,26.288,26.288,0,0,1-4.949.464,28.377,28.377,0,0,1-14.807-4.18,36.449,36.449,0,0,1-12.54-11.7,48.364,48.364,0,0,1-4.164-7.58,58.023,58.023,0,0,1-2.879-8.177l-.035-.122-.042-.149h0a16.168,16.168,0,0,0-.811-2.341c-.465-1-.963-1.519-1.48-1.532Zm28.11,106.937a53.491,53.491,0,0,1-.794,7.855v0c-.125.829-.255,1.686-.369,2.529,1.667-.328,3.36-.631,5-.923h.008c3.63-.649,7.385-1.319,11.035-2.307-2.652-1-5.21-2.087-7.6-3.231A81.591,81.591,0,0,1,147.84,117.808Zm-33.862-15.861a96.689,96.689,0,0,1,13.6,2.326,71.491,71.491,0,0,1,8.2,2.329c2.511.921,3.98,1.794,4.367,2.592a.907.907,0,0,1-.13,1.026c2.065,1.1,4.1,2.325,6.075,3.508,1.748,1.049,3.555,2.134,5.375,3.13a84,84,0,0,0,12.134,5.457l-.221-.49a65.676,65.676,0,0,1-4.486-12.638c-.243-1.121-.427-2.226-.547-3.284a27.341,27.341,0,0,1-.179-3.3,23.551,23.551,0,0,1,.258-3.309,21.744,21.744,0,0,1,.764-3.3,5.8,5.8,0,0,1-2.163.389,11.9,11.9,0,0,1-3.654-.685c-1.242-.406-2.476-.934-3.67-1.444h0c-1.052-.45-2.044-.874-2.949-1.175-1.985-.8-3.951-1.481-5.843-2.038a53.169,53.169,0,0,0-6.025-1.409,45.721,45.721,0,0,0-8.848-.8,70.991,70.991,0,0,0-7.434.421c-2.13.223-4.468.541-7.357,1,.365,1.695.76,3.411,1.141,5.071l0,.007c.5,2.168,1.013,4.409,1.469,6.626ZM94.428,76.994c-.528,0-1.429-.772-2.754-2.36-1.134-1.358-2.4-3.1-3.41-4.5a22.534,22.534,0,0,0-2.15-2.766c-1.207-1.55-2.568-3.021-3.884-4.444v0c-1.3-1.4-2.644-2.858-3.836-4.383,0-.2.1-.309.278-.309a4.743,4.743,0,0,1,1.974,1.1c.813.611,1.681,1.354,2.255,1.845.312.267.538.46.644.538l.358.323a70.329,70.329,0,0,1,6.257,6.29,30.828,30.828,0,0,1,4.813,7.389,1.671,1.671,0,0,1-.237,1.156A.407.407,0,0,1,94.428,76.994Zm109.25-5.922a.11.11,0,0,1-.112-.06c-.09-.2.349-.91,1.046-1.685.758-.843,1.81-1.744,2.489-1.744a.641.641,0,0,1,.145.016.519.519,0,0,1,.073-.005.625.625,0,0,1,.581.475.4.4,0,0,1-.259.464l-.286.126-.344.147a12.836,12.836,0,0,0-1.772.866,4.351,4.351,0,0,0-1.419,1.372A.47.47,0,0,1,203.679,71.072Z" transform="translate(23.986 1.424)"/>
    </g>
    <g id="Head" transform="translate(95.946 42.662)">
      <g id="HEAD-2" data-name="HEAD">
        <path id="_Skin-2" data-name="âœ‹ Skin" d="M103.931,67.989c1.468-10.6-1.667-20.82-5.728-30.5a3.4,3.4,0,0,0-1.032-1.464c-11.461-23.1-28.3-25.2-51.8-23.6a2.257,2.257,0,0,1-1.262-.239C44.024,2.794,33.306-2.177,25.15.919-11.022,17.73.352,65.057,7.55,95.955Q11.4,113.9,15.255,131.836a2.411,2.411,0,0,0,.51,1.037c-.373.141-.746.274-1.112.4a.689.689,0,0,0,.366,1.328,22.82,22.82,0,0,0,2.486-.752c1.267.275,2.329-.553,3.324-1.213,11.647-4.606,16.537-19.744,19.524-30.9,12.146,8.57,31.554,14.989,45.441,7.282,13.013-7.837,17.7-24.185,16.774-38.614a2.526,2.526,0,0,0,1.358-2.383h.006c0-.012,0-.024,0-.036Z" transform="translate(-1.896 7.11)" fill="#d08b5b"/>
        <path id="_Hair" data-name="ðŸ’ˆ Hair" d="M14.653,133.272c.366-.125.739-.257,1.112-.4a2.414,2.414,0,0,1-.51-1.037Q11.4,113.9,7.55,95.955C.352,65.058-11.022,17.73,25.15.919a14.747,14.747,0,0,1,7.044-.8c1.182.6,6.528,3.329,8.83,4.339a11.793,11.793,0,0,1,1.406,1.833c.553,2.993-.484,8.965-.484,8.965S31.018,23.145,27.428,26.639s-8.322,23.4-8.322,23.4l1.577,16.169s-2.227-.44-2.227,8.028,8.53,9.776,8.53,9.776L37.212,98.373l2.242,5.17s-5.322,11.858-7.512,19.332c-2.818,4.332-6.415,7.9-11.113,9.76-.995.66-2.057,1.488-3.324,1.213a22.807,22.807,0,0,1-2.487.752.816.816,0,0,1-.185.022A.692.692,0,0,1,14.653,133.272ZM20.683,66.211Z" transform="translate(-1.896 7.11)" fill="#a55728"/>
        <path id="_Ink-2" data-name="ðŸ– Ink" d="M20.857,136.963a2.8,2.8,0,0,1-2.549-1.349,2.712,2.712,0,0,1-.323-.865,2.238,2.238,0,0,1-.8-.4c-.046.51-.095.958-.148,1.371a1.2,1.2,0,0,1-.406.767,1.124,1.124,0,0,1-.731.278,1,1,0,0,1-.958-.762,111.127,111.127,0,0,1-2.867-11.926c-.257-1.275-.523-2.593-.8-3.883-.656-3.066-1.368-6.174-2.057-9.179l0-.007c-.492-2.148-1-4.369-1.486-6.557L6.256,97.823c-1.724-7.789-3.508-16.1-4.721-24.506C.9,68.914.473,64.864.23,60.936c-.13-2.111-.206-4.2-.225-6.224-.02-2.112.02-4.214.121-6.248.115-2.322.309-4.616.578-6.819.281-2.3.651-4.575,1.1-6.75.468-2.267,1.035-4.495,1.686-6.62a65.619,65.619,0,0,1,2.337-6.43,38.342,38.342,0,0,1,6.139-10.257,20.689,20.689,0,0,1,4.468-3.9,16,16,0,0,1,2.626-1.344,14.859,14.859,0,0,1,2.9-.826.331.331,0,0,1,.057,0,.379.379,0,0,1,.1.013A14.036,14.036,0,0,1,25.6,2.276,13.664,13.664,0,0,1,29.689.538,18.086,18.086,0,0,1,34.131,0c.255,0,.514.005.769.015a12.522,12.522,0,0,1,2.459.348,16.515,16.515,0,0,1,2.36.772,23.4,23.4,0,0,1,2.319,1.147c.581.315,1.181.64,1.8.922a.063.063,0,0,1,.039.074.09.09,0,0,1-.083.07l-.015,0a9.969,9.969,0,0,0-1.981-.177,24.173,24.173,0,0,0-3.319.284l-.168.024c-.516.075-1.044.14-1.555.2a32.378,32.378,0,0,0-3.421.544,11.68,11.68,0,0,0-7.458,4.9,16.688,16.688,0,0,0-2.134,5.8,26.143,26.143,0,0,0-.344,6.2A24.006,24.006,0,0,0,24.537,27.1a11.052,11.052,0,0,0,.815,1.757,11.981,11.981,0,0,1,.836,1.8c.317-.591.639-1.168.959-1.714-1.227-.578-1.9-2.08-2.006-4.463a1.262,1.262,0,0,1-.386-.847,4.748,4.748,0,0,1,.5-2.189,21.436,21.436,0,0,1,1.238-5.513A21.226,21.226,0,0,1,32.8,7.164,17.655,17.655,0,0,1,37.47,4.388a14.415,14.415,0,0,1,5.312-1.037c.356,0,.717.014,1.073.042a7.955,7.955,0,0,1,3.072.848,5.6,5.6,0,0,1,2.291,2.18,6.028,6.028,0,0,1,.283,5.106,6.139,6.139,0,0,1-.7,1.344c.873-.221,1.738-.431,2.542-.625a66.927,66.927,0,0,1,8.9-1.572,24.248,24.248,0,0,1,7.354.372,23.7,23.7,0,0,1,4.676,1.479c1.022.263,2.055.55,3.072.853A51.256,51.256,0,0,1,82.016,15.8a25.805,25.805,0,0,1,6.026,3.709,14.785,14.785,0,0,1,2.174,2.268,18.283,18.283,0,0,1,1.65,2.56,60.98,60.98,0,0,1,5.209,5.182c.838.951,1.617,1.912,2.313,2.856a34.181,34.181,0,0,1,2.012,3.045,38.925,38.925,0,0,1,3.1,6.812,52.409,52.409,0,0,1,1.932,7.306,73.647,73.647,0,0,1,1.026,7.528c.2,2.31.329,4.756.386,7.476a129.7,129.7,0,0,1-2.291,26.979,32.9,32.9,0,0,1-1.6,5.8,21.3,21.3,0,0,1-2.91,5.255,27.43,27.43,0,0,1-4.828,4.9,29.529,29.529,0,0,1-5.869,3.6,34.107,34.107,0,0,1-6.775,2.316,32.2,32.2,0,0,1-7.135.817,28.115,28.115,0,0,1-6.921-.844,24.616,24.616,0,0,1-6.481-2.658,2.066,2.066,0,0,1-1-2.418,2.553,2.553,0,0,1,.782-1.245,2.07,2.07,0,0,1,1.364-.528,2.244,2.244,0,0,1,1.118.315,22.364,22.364,0,0,0,5.639,2.257,24.583,24.583,0,0,0,5.984.727,27.344,27.344,0,0,0,7.7-1.123,28.4,28.4,0,0,0,7.124-3.206,22.255,22.255,0,0,0,8-8.435,28.334,28.334,0,0,0,2.389-8.33l.262-1.525a125.889,125.889,0,0,0,1.844-26.645,73.7,73.7,0,0,0-1.651-13.506,43.984,43.984,0,0,0-2.015-6.511,33.1,33.1,0,0,0-3.13-6A46.039,46.039,0,0,0,92.99,28.92C91.5,27.3,89.826,25.658,87.864,23.9c-.229-.205-.474-.423-.749-.667a37.675,37.675,0,0,0-4.239-2.183l-.3-.13c-.956-.408-2.08-.839-3.007-1.153-1.426-.484-2.967-.947-4.583-1.377-.73-.194-1.5-.385-2.431-.6.344.316.6.56.842.791a27.739,27.739,0,0,1,2.075,2.347c.486.594.989,1.207,1.52,1.778a.17.17,0,0,1,.036.19.184.184,0,0,1-.166.111.188.188,0,0,1-.086-.022,35.09,35.09,0,0,0-4-1.646c-.649-.237-1.32-.481-1.966-.739-1.407-.56-2.806-1.194-4.16-1.808-.443-.2-.9-.409-1.355-.611-.412-.184-.828-.383-1.23-.574l-.144-.068c-2.11.021-3.827.073-5.406.163a31.317,31.317,0,0,1,3.1,2.521,28.858,28.858,0,0,1,2.7,2.864.245.245,0,0,1,.034.259.2.2,0,0,1-.187.12.255.255,0,0,1-.063-.008,74.084,74.084,0,0,1-9.994-3.537l-1.566-.652c-.978-.049-1.884-.073-2.772-.073-.23,0-.461,0-.686.005l-.559.009a27.5,27.5,0,0,0-3.619.254c-.328.05-.6.089-.843.122A21.291,21.291,0,0,0,39.3,22.2l.381-.022c.452-.026.909-.039,1.357-.039a21.558,21.558,0,0,1,5.55.7,18.593,18.593,0,0,1,6,2.857,22.051,22.051,0,0,1,4.763,4.659.107.107,0,0,1,.009.117.152.152,0,0,1-.13.085.108.108,0,0,1-.062-.019,21.338,21.338,0,0,0-2.643-1.538,24.834,24.834,0,0,0-2.8-1.163,34.272,34.272,0,0,0-5.928-1.433,26.507,26.507,0,0,0-4.115-.33c-.613,0-1.224.023-1.817.07-.558.043-1.133.141-1.69.235a14.053,14.053,0,0,1-2.315.263,5.483,5.483,0,0,1-.938-.075c-.427.532-.857,1.1-1.276,1.7.255-.016.461-.028.648-.036.474-.022.949-.034,1.412-.034a24.341,24.341,0,0,1,5.569.61,21.531,21.531,0,0,1,6.312,2.678,41.75,41.75,0,0,1,5.509,4.121.065.065,0,0,1,.02.076.087.087,0,0,1-.078.057.072.072,0,0,1-.036-.01,21.553,21.553,0,0,0-6.022-2.277,49.023,49.023,0,0,0-6.4-.94c-1.513-.139-2.852-.207-4.094-.207-.825,0-1.628.031-2.385.091-.571.045-1.147.12-1.7.192-.407.053-.828.107-1.243.15-.062.007-.128.009-.191.012l-.054,0c-.684,1.29-1.338,2.663-1.944,4.08a17.773,17.773,0,0,1,4.591-.636c.32,0,.64.011.949.031a17.424,17.424,0,0,1,5.492,1.35,23.723,23.723,0,0,1,4.927,2.8.128.128,0,0,1,.041.142.091.091,0,0,1-.086.069.114.114,0,0,1-.04-.008,16.826,16.826,0,0,0-6.049-1.053,27.374,27.374,0,0,0-3.8.29,29.664,29.664,0,0,0-4.693.995,17.7,17.7,0,0,0-2.265.838c-.236.11-.471.234-.7.355l0,0-.28.147c-.252.856-.49,1.76-.706,2.687a21.93,21.93,0,0,1,4.086.636A28.044,28.044,0,0,1,34.357,46.8a43.705,43.705,0,0,1,7.27,3.969.131.131,0,0,1,.048.148.108.108,0,0,1-.1.084A.12.12,0,0,1,41.532,51a25.848,25.848,0,0,0-4.2-1.165c-1.287-.252-2.7-.449-4.326-.6-.974-.093-2.035-.139-3.242-.139-1.056,0-2.129.034-3.167.067h-.011l-1.056.032c-.136.965-.244,1.925-.321,2.855.319.089.633.184.937.276l.015,0,.222.067a22.748,22.748,0,0,1,3.653,1.463A20.716,20.716,0,0,1,33.3,55.916c.878.669,1.784,1.443,2.938,2.512a.139.139,0,0,1,.028.156.138.138,0,0,1-.123.1.122.122,0,0,1-.046-.009,43.929,43.929,0,0,0-7.032-1.995c-1.226-.267-2.458-.514-3.663-.734-.12-.022-.243-.041-.36-.058a50.273,50.273,0,0,0,.382,6.508l.053.4a4.748,4.748,0,0,1-.022,1.578,2.65,2.65,0,0,1-.674,1.325,8.152,8.152,0,0,1,3.412-1.3A9.508,9.508,0,0,1,29.5,64.3a8.93,8.93,0,0,1,3.991.931,9.719,9.719,0,0,1,3.236,2.611.125.125,0,0,1,.02.137.122.122,0,0,1-.108.071.127.127,0,0,1-.085-.035,7.363,7.363,0,0,0-4.928-1.733,8.819,8.819,0,0,0-2.786.452,7.432,7.432,0,0,0-3.021,1.932,7.767,7.767,0,0,0-1.793,3.11,9.311,9.311,0,0,0-.359,1.92,9.425,9.425,0,0,0,.488,3.835,9.123,9.123,0,0,0,.834,1.766,7.227,7.227,0,0,0,1.244,1.535A5.365,5.365,0,0,0,27.887,81.9a4.546,4.546,0,0,0,.464.155,2.486,2.486,0,0,1,.856-.148,3.559,3.559,0,0,1,1.454.344l.1.047c.192,0,.385,0,.571-.007.23,0,.469-.007.7-.007h.176a1.088,1.088,0,0,1,.948.535A1.207,1.207,0,0,1,33.182,84c.128.234.236.487.341.732.077.18.15.349.23.512.36.734.73,1.449,1.076,2.112a8.29,8.29,0,0,1,1.346,1.923,7.477,7.477,0,0,1,.367.931c.3.455.589.876.878,1.289a40.732,40.732,0,0,0,3.114,3.944c.421.468.89.912,1.342,1.341h0c.277.262.563.533.835.807a.61.61,0,0,1,.5.391l.059.2a8.782,8.782,0,0,1,.653.816,1.418,1.418,0,0,1,.278.936,1.439,1.439,0,0,1-.346.808,31.457,31.457,0,0,1-.628,11.659,57.785,57.785,0,0,1-1.99,7.137,14.44,14.44,0,0,1-1.649,3.352,11.17,11.17,0,0,1-1.465,1.771,15.777,15.777,0,0,1-.36,1.866,11.262,11.262,0,0,1-.978,2.49,10.959,10.959,0,0,1-1.447,2.061,13.83,13.83,0,0,1-3.966,3.013,23.712,23.712,0,0,1-4.835,1.827,42.29,42.29,0,0,1-5.031.994A4.659,4.659,0,0,1,20.857,136.963ZM30.508,90.5a37.777,37.777,0,0,1,1.378,6.678,69.952,69.952,0,0,1,.048,11.093l-.019.382a71.16,71.16,0,0,1-1.256,10.444,40.56,40.56,0,0,1-1.281,4.869,33.546,33.546,0,0,1-1.937,4.646c-.237.464-.5.928-.793,1.419a13.022,13.022,0,0,0,2.407-1.066,7.065,7.065,0,0,0,2.421-2.093,6.815,6.815,0,0,0,.855-1.976,12.01,12.01,0,0,0,.339-2.156c.228-2.893.367-5.841.5-8.692.043-.927.088-1.885.136-2.831l.043-.837c.026-.5.054-1.029.077-1.455a109.007,109.007,0,0,0,.033-16.712A6.543,6.543,0,0,1,31.1,90.982C30.916,90.835,30.715,90.672,30.508,90.5Zm-6.545-7.269c.207,2.085.369,3.826.511,5.48.312,3.648.515,6.838.618,9.752.125,3.51.113,6.706-.035,9.769a84,84,0,0,1-1.066,10.136c-.244,1.429-.552,2.946-.916,4.509l-.117.5c-.057.24-.11.484-.166.743h0a15.246,15.246,0,0,1-.522,1.983,4.247,4.247,0,0,1-1.019,1.673l.009.223a23.912,23.912,0,0,0,2.052-3.818,31.5,31.5,0,0,0,1.425-4.286,43.941,43.941,0,0,0,.888-4.413c.453-2.972.668-6.025.877-8.978l0-.037c.1-1.412.191-2.849.28-4.238v-.008c.142-2.237.289-4.551.475-6.825l.147-1.774c.16-1.959.314-4.05.293-6.177a8.276,8.276,0,0,1-1.045-2.105,2.311,2.311,0,0,1-.079-.353,10.952,10.952,0,0,1-2.61-1.755ZM36.779,96.075h0a40.221,40.221,0,0,1,1.128,4.743,61.6,61.6,0,0,1,.812,7.643l.24-.9c.575-2.148,1.22-4.448,2.045-6.719a15.706,15.706,0,0,1-3.048-3.2l-.182-.231C37.439,96.987,37.1,96.538,36.779,96.075ZM18.727,26.456c-.392,1.267-.751,2.567-1.1,3.823v0c-.081.293-.164.6-.247.894A76.7,76.7,0,0,0,15.223,42.5a130.828,130.828,0,0,0-.6,22.849c.43,8.074,1.4,16.043,2.3,22.774.3,2.264.618,4.565.923,6.79v0c.54,3.931,1.1,8,1.6,12,.023-.672.039-1.276.049-1.846.069-3.871-.069-8.089-.42-12.895-.314-4.286-.765-8.634-1.2-12.839-.474-4.569-.964-9.292-1.28-13.952l-.054-.807c-.321-4.892-.376-7.563-.388-9.344a74.2,74.2,0,0,1,.469-9.327,58.115,58.115,0,0,1,1.934-9.353l.529-1.8c.405-1.376.763-2.525,1.188-3.663-.062-.12-.12-.238-.171-.349A20.783,20.783,0,0,1,18.727,26.456ZM11.933,97.285c.492,2.206,1,4.487,1.489,6.733-.391-3.021-.812-6.089-1.22-9.056-.766-5.576-1.558-11.341-2.18-17.027-.7-6.377-1.1-11.974-1.238-17.112-.109-4.139-.04-8.134.2-11.875a99.794,99.794,0,0,1,1.454-11.783l.086-.458a34.373,34.373,0,0,1,2.983-9.741,30.878,30.878,0,0,1,2.936-4.542,9.009,9.009,0,0,1,1.574-1.535,30.335,30.335,0,0,1,.393-6.329,22.89,22.89,0,0,1,1.872-6.047,78.688,78.688,0,0,0-6.316,9.349c-.948,1.667-1.806,3.356-2.551,5.021A52.5,52.5,0,0,0,9.373,28.21c-.661,2.052-1.242,4.185-1.726,6.339-.467,2.081-.858,4.243-1.161,6.425-.292,2.1-.511,4.284-.651,6.487-.135,2.114-.2,4.309-.2,6.526a124.958,124.958,0,0,0,.753,13.073c.441,4.086,1.067,8.321,1.915,12.946,1.061,5.791,2.365,11.63,3.625,17.277v0ZM22.248,66.365c.044.473.09.953.135,1.418v.006l.022.231a9.343,9.343,0,0,1,1.632-1.775,2.15,2.15,0,0,1-1.005.253,2.507,2.507,0,0,1-.6-.077l-.062-.017Zm-.514-33.417c-.2,1.662-.337,3.4-.409,5.153-.062,1.516-.1,3.165-.106,5.044l0,.722,0-.014a54.745,54.745,0,0,1,3.358-9.932,2.252,2.252,0,0,1-.368.029,3.132,3.132,0,0,1-.378-.024,4.064,4.064,0,0,1-1.594-.613A4.253,4.253,0,0,1,21.734,32.948Zm23.6-19.834c-.462.209-.924.436-1.37.655-.51.251-1.037.51-1.566.743a44.476,44.476,0,0,0-5.716,3.017,39.111,39.111,0,0,0-5.252,3.819c-.179.159-.359.321-.533.478l-.037.034c-.041.4-.067.768-.078,1.126-.006.179-.007.381,0,.634a33.052,33.052,0,0,1,2.438-2.707,28.913,28.913,0,0,1,2.713-2.376,26.705,26.705,0,0,1,6.384-3.641c.758-.3,1.573-.6,2.492-.892A5.8,5.8,0,0,0,45.337,13.114ZM43.349,8.841a7.792,7.792,0,0,0-1.225.1,11.754,11.754,0,0,0-2.291.614,13.59,13.59,0,0,0-2.119,1.028,13.454,13.454,0,0,0-2.269,1.687,13.885,13.885,0,0,0-1.871,2.116c.555-.313,1.113-.6,1.658-.862l.386-.182A23.965,23.965,0,0,1,42.4,11.081l.469-.065h0a15.948,15.948,0,0,1,2.183-.2,6.417,6.417,0,0,1,.68.034,2.785,2.785,0,0,0-.488-1.4C45.039,9.173,44.539,8.841,43.349,8.841ZM33.24,77.016a1.481,1.481,0,0,1-.937-.342c-.579-.468-1.145-.968-1.692-1.452a30.817,30.817,0,0,0-2.863-2.333.282.282,0,0,1-.1-.315.222.222,0,0,1,.221-.161h.012a12.468,12.468,0,0,1,3.408.59,9.325,9.325,0,0,1,3.04,1.65,1.292,1.292,0,0,1,.447.652,1.12,1.12,0,0,1-.033.676,1.565,1.565,0,0,1-.575.732A1.621,1.621,0,0,1,33.24,77.016Z" transform="translate(-5.688 6.636)"/>
      </g>
      <g id="FACE" transform="translate(37.761 44.084)">
        <path id="teeth" d="M3.487.795c2.594-1.559,12.289-.416,19.9,0,6.048.33,10.367-.324,11.75.6,3.124,2.1,1.606,12.243-3.776,13.631s-25.334,3.325-28.775,0S-1.167,3.591,3.487.795Z" transform="translate(15.322 46.086)" fill="#fff"/>
        <path id="_Ink-3" data-name="ðŸ– Ink" d="M22.54,48.824c-.463,0-.967,0-1.54-.01l-.656-.009c-.347,0-.724-.007-1.185-.007l-1.072,0h-.025l-1.128,0a31.3,31.3,0,0,1-8.95-.94A12.422,12.422,0,0,1,6,47.07a9.589,9.589,0,0,1-1.755-1.145,8.584,8.584,0,0,1-1.466-1.56,9.4,9.4,0,0,1-1.116-2.039,10.009,10.009,0,0,1-.581-2.093A10.345,10.345,0,0,1,2.06,33.9a8.235,8.235,0,0,1,1.485-2.046,9.459,9.459,0,0,1,1.976-1.516,12.576,12.576,0,0,1,4.774-1.545,16.159,16.159,0,0,1,1.934-.113,36.015,36.015,0,0,1,6.946.914c1.021.2,2.077.412,3.117.576a56.258,56.258,0,0,0,6.332.67c.449.02.9.03,1.284.038a1.117,1.117,0,0,1,.707-.928,5.513,5.513,0,0,1,2.449-.579c.086,0,.175,0,.265.005a20.122,20.122,0,0,1,2.813.3,10.268,10.268,0,0,1,2.472.77,7.526,7.526,0,0,1,2.133,1.45,6.556,6.556,0,0,1,1.545,2.377A7.385,7.385,0,0,1,42.747,37a8.987,8.987,0,0,1-.491,2.767,9.618,9.618,0,0,1-1.3,2.518,13.41,13.41,0,0,1-1.728,1.967,13.6,13.6,0,0,1-1.985,1.532,15.414,15.414,0,0,1-2.2,1.151,18.96,18.96,0,0,1-2.36.823,27.991,27.991,0,0,1-5.026.873C26.18,48.762,24.551,48.824,22.54,48.824Zm7.976-9.505-.058,0c-2.88.111-5.893.194-8.956.248.086.738.18,1.527.285,2.295.076.56.161,1.149.261,1.8.012.081.035.176.059.277a1.828,1.828,0,0,1,.081.622l-.015.1a.906.906,0,0,1,.4.342,1.351,1.351,0,0,1,.087.165v0c.279,0,.539,0,.794,0a37.182,37.182,0,0,0,6.384-.451l0-.051a.988.988,0,0,1,.335-.643A15.862,15.862,0,0,0,30.346,42c.012-.3.025-.606.045-.9.028-.409.057-.825.086-1.227v-.006Q30.5,39.591,30.516,39.319ZM10.7,44.814h0l.056.009c.079.013.16.026.241.038a39.591,39.591,0,0,0,5.448.3c.521,0,1.051,0,1.562-.007h0c.466,0,.947-.007,1.419-.007a11.562,11.562,0,0,1-.107-1.928c0-.241,0-.468-.006-.675l0-.114c-.043-.93-.073-1.878-.09-2.818-1.492.025-3.094.049-4.7.049-.616,0-1.191,0-1.756-.01l-.977-.015c.066.353.135.712.2,1.058h0c.142.738.289,1.5.415,2.256a1.492,1.492,0,0,1-.332,1.252,1.785,1.785,0,0,1-1.328.614ZM4.609,39.407h0a6.517,6.517,0,0,0,.437,1.659,5.4,5.4,0,0,0,2.135,2.5A8.94,8.94,0,0,0,10.3,44.742a1.164,1.164,0,0,1-.771-1,30.212,30.212,0,0,1-.268-4.132c-1.41-.013-3.049-.041-4.65-.2Zm31.338-.3c-.26,0-.538,0-.809.014-.885.04-1.785.076-2.656.111l-.393.016.031.443v.009c.037.532.075,1.083.114,1.624.018.241.031.49.044.731a14.967,14.967,0,0,0,.2,2,12.4,12.4,0,0,0,2.877-1.391,9.929,9.929,0,0,0,2.374-2.208,6.936,6.936,0,0,0,.883-1.523,9.766,9.766,0,0,1-2.191.177h-.474ZM9.827,32.417h0a8.522,8.522,0,0,0-2.6,1.05A5.533,5.533,0,0,0,5.31,35.451a5.915,5.915,0,0,0-.6,1.609,6.79,6.79,0,0,0-.15,1.734c1.567-.182,3.187-.251,4.711-.306.006-.311.013-.589.021-.847l.024-.723q0-.14.009-.284a15.949,15.949,0,0,1,.506-4.216Zm3.339-.339h0c-.473,0-.935.015-1.374.045-.327.022-.659.058-.987.106a15.6,15.6,0,0,1,.409,3.076c.034.511.067.993.121,1.456.058.5.135,1.03.235,1.633l.39-.018c1.855-.1,3.741-.172,5.565-.242l1.682-.065c0-.5,0-.945.01-1.359l.009-.453c.008-.339.007-.683.007-1.047a18.614,18.614,0,0,1,.118-2.626l-.81-.091-.2-.022a46.133,46.133,0,0,0-5.178-.393Zm7.6.649h0c.04.324.067.655.094.975v0c.013.162.027.33.043.493.086.923.187,1.882.309,2.93l.1.854c2.661-.12,5.492-.257,8.908-.43l.419-.022.117-1.64c.076-1.036.163-2.15.292-3.276l-.093-.034a1.513,1.513,0,0,1-.312-.177,45.864,45.864,0,0,1-7.106.463h-.031c-.813,0-1.684-.044-2.741-.137Zm10.9.081c.092,1.1.157,2.222.219,3.307.025.44.051.895.079,1.341l1.957-.1L34.9,37.3c.352-.02.728-.064,1.125-.11a15.634,15.634,0,0,1,1.778-.139,4.542,4.542,0,0,1,1.248.15A3.243,3.243,0,0,0,37.8,34.19a4.872,4.872,0,0,0-1.88-.826,14.441,14.441,0,0,0-2.033-.255,13.1,13.1,0,0,1-2.213-.3Zm-4.054-5.662a3.813,3.813,0,0,1-2.848-1,1.7,1.7,0,0,1-.481-.971,1.927,1.927,0,0,1,.145-1.011,2.114,2.114,0,0,1,.653-.848,1.613,1.613,0,0,1,.977-.345,1.639,1.639,0,0,1,.928.3,2.31,2.31,0,0,0,1.293.3,9.447,9.447,0,0,0,2.522-.435l.063-.018a4.035,4.035,0,0,0,1.125-.539,2.667,2.667,0,0,0,.864-.921,1.505,1.505,0,0,0,.1-1.218A1.929,1.929,0,0,0,31.629,19.3a6.482,6.482,0,0,0-1.826-.29c-.11,0-.223-.006-.336-.006a19.719,19.719,0,0,0-2.629.236c-.566.077-1.151.156-1.731.2h-.019a.217.217,0,0,1-.211-.173.247.247,0,0,1,.106-.283,13.052,13.052,0,0,1,2.8-1.136,12.6,12.6,0,0,1,3.388-.519,5.334,5.334,0,0,1,3.022.767,3.507,3.507,0,0,1,1.484,2.754,4.632,4.632,0,0,1-.973,3.217A6.676,6.676,0,0,1,32,26.144l-.079.033a14.7,14.7,0,0,1-2.009.66A9.657,9.657,0,0,1,27.617,27.146Zm13.551-7.779a1.013,1.013,0,0,1-.1-.005l-.166-.015a1.5,1.5,0,0,1-.247-.04,1.642,1.642,0,0,1-.823-.561,1.373,1.373,0,0,1-.319-.936l.012-.2a6.278,6.278,0,0,0-.258-2.471,2.43,2.43,0,0,0-.642-.963,2.475,2.475,0,0,0-1.175-.56A2.242,2.242,0,0,0,37,13.573a1.947,1.947,0,0,0-1.62.9,3.5,3.5,0,0,0-.58,1.913.368.368,0,0,1-.362.356.332.332,0,0,1-.174-.049,2.415,2.415,0,0,1-1.113-1.542,3.417,3.417,0,0,1,.149-1.937,3.939,3.939,0,0,1,1.465-1.9,4.382,4.382,0,0,1,2.291-.751c.082,0,.164-.006.245-.006a5.094,5.094,0,0,1,4.066,2.07A6.665,6.665,0,0,1,42.6,15.283a6.382,6.382,0,0,1-.034,2.94,1.6,1.6,0,0,1-.519.789A1.382,1.382,0,0,1,41.168,19.368ZM5.1,18.664a.5.5,0,0,1-.216-.053,1.647,1.647,0,0,1-.745-.709,2.424,2.424,0,0,1-.268-1,4.718,4.718,0,0,1,.379-2.069A6.506,6.506,0,0,1,5.628,12.8,5.4,5.4,0,0,1,7.7,11.491,5.631,5.631,0,0,1,9.485,11.2a6.212,6.212,0,0,1,3.244.943A6.652,6.652,0,0,1,15.08,14.6,1.09,1.09,0,0,1,15.99,15.7a3.037,3.037,0,0,1-.822,1.979,1.607,1.607,0,0,1-1.2.52,1.92,1.92,0,0,1-1.075-.337,1.722,1.722,0,0,1-.685-.913l-.016-.055a3,3,0,0,0-1.07-1.577,2.938,2.938,0,0,0-1.775-.62,2.7,2.7,0,0,0-2.1,1,6.646,6.646,0,0,0-.727,1.209A5.161,5.161,0,0,1,5.4,18.545.445.445,0,0,1,5.1,18.664ZM.209,13.433a.15.15,0,0,1-.146-.141,11.509,11.509,0,0,1,.052-2.815,14.147,14.147,0,0,1,.7-2.837A14.508,14.508,0,0,1,2.066,5a12.234,12.234,0,0,1,1.716-2.23A9.866,9.866,0,0,1,6.6.86,8.594,8.594,0,0,1,10.112,0a4.114,4.114,0,0,1,2.2.562,3.628,3.628,0,0,1,1.485,1.917,1.605,1.605,0,0,1-.162,1.308,1.635,1.635,0,0,1-1.053.828,4.054,4.054,0,0,1-.8.075,9.341,9.341,0,0,1-1.472-.156h0a9.377,9.377,0,0,0-1.484-.156c-.121,0-.24,0-.354.014A6.162,6.162,0,0,0,5.2,5.573a8.021,8.021,0,0,0-1.89,2.159A24.072,24.072,0,0,0,2,10.286,19.674,19.674,0,0,1,.333,13.364.15.15,0,0,1,.209,13.433Zm43.731-2.8a2.194,2.194,0,0,1-.61-.086c-1.5-.434-1.9-1.486-2.352-2.7-.088-.234-.178-.476-.279-.719a6.153,6.153,0,0,0-1.964-2.5A9.145,9.145,0,0,0,33.4,3.009a8.481,8.481,0,0,0-2.4.324.138.138,0,0,1-.039.006.189.189,0,0,1-.162-.106.133.133,0,0,1,.012-.145c.114-.147.215-.287.314-.423a4.994,4.994,0,0,1,1.024-1.136A7.256,7.256,0,0,1,36.591.035a8.309,8.309,0,0,1,2.47.379,9.241,9.241,0,0,1,2.23,1.041,9.485,9.485,0,0,1,1.885,1.583,10.423,10.423,0,0,1,1.342,1.8,5.7,5.7,0,0,1,.31.715,7.242,7.242,0,0,0,.322.754,2.447,2.447,0,0,1,1.224,1.735,1.955,1.955,0,0,1-.071.878,2.135,2.135,0,0,1-.5.83l-.049.05-.146.145A2.385,2.385,0,0,1,43.94,10.63Z" transform="translate(11.875 15.406)"/>
      </g>
    </g>
  </g>
</svg>
