<svg xmlns="http://www.w3.org/2000/svg" width="390.67" height="780" viewBox="0 0 390.67 780">
  <g id="peep-standing-26" transform="translate(28.736)">
    <g id="BODY" transform="translate(-28.736 150.264)">
      <path id="_Skin" data-name="âœ‹ Skin" d="M240.633,571.1c1.671-7.764-5.973-10.389-10.792-12.116-3.452-2.234-16.241-9.972-26.137-19.525-8.1-7.817-13.61-17.835-15.9-18.79,0,0-2.362-1.367-2.607-2.383-1.437-5.952-.239-11.5,0-15.108,4.607-1.207,8.3-2.713,11.059-4.818.805.268,2.012.611,2.372-.565,2.5-16.613,3.572-33.03,5.6-49.657,7.684-63.325,8.551-137.3-4.669-195.141a50.676,50.676,0,0,1,.368-7.919c1.788-.193,2.868-1.92,4.328-2.952,2.265-1.8,4.948-3.178,4.837-6.318.538-.407.475-.635.21-1.154,1.728-7.416-5.98-15.231-8.16-21.345,3.963-38.679-1.429-75.229,1.579-113.917,3.8-1.587,1.245-11.5.985-15.593-2.1-26.349-15.829-52.4-40.545-61.009-1.413-.286-3.536-1.9-4.706-.815-2.259-.893-5.266.868-7.014-1.16l.018-.013a17.938,17.938,0,0,1-2.616-7.077,16.411,16.411,0,0,0,.383,2.044C144.962,3.781,143.889.576,130.172.012c-6.179-.082-14.324.1-17.926,5.984-1.476,2.734-1.025,5.873-1.941,8.751-1.682,5.281-8.942,2.729-12.753,5.471C67.046,29.982,42.024,49.913,33.8,81.9c-1.681,3.856-3.588,7.693-4.994,11.672-.218.591-.816,2.589.621,3.509l.7.445c-9.156,42.709-9.764,78.7,21,107.171,2.308,12.235-3.63,28.943-1.347,40.822-1.3,1.842.349,3.325,2.012,3.443.16.089.808.372.985.453-2.646,37.284,8.464,87.532,13.362,107.364.667,11.907-3.406,21.689-11.783,28.178-9.256,5.689-27.554,31.384-24.162,58.337-3.964.776-7.9,1.2-11.7,2.689C1.841,443.054,2.006,475.072.945,486.329c-1.8,18.849-2.912,46.17,15.031,58.236,4.727,3.422,14.312,7.429,19.223,1.951a5.738,5.738,0,0,0,1.379-5.764c8.11-11.435,5.925-26.393,6.67-39.806,2.352-.141,4.812.959,7.087.558,2.335-2.053-6.183-1.494-7.067-1.614.09-2.068.257-4.246.472-6.332a32.524,32.524,0,0,0,4.333.956.893.893,0,0,0,.839-1.4c-1-.954-3.559-.807-5-.942.243-1.746.54-3.581.87-5.269,1.76-.063,3.578,1.056,5.244.827-1.261-.84-3.629-.584-5.166-1.139,1-5.437,3.037-10.6,4.931-15.684a24.3,24.3,0,0,0,13.193,1.415c1.856.285,2.761-.094,3.061-2.411l-.119-.146c3.6-21.474,15.2-41.945,36.752-65.16,4.257-4.755,9.068-10.353,12.273-16.613,6.441-13.027,7.541-27.4,12.5-40.929,4.633-13.6,10.969-26.6,16.917-39.495.872,6.606,2.044,13.383,3.262,19.861,5.361,22.955,4.841,47.447.9,70.529-5.837,32.329-3.024,64.811-4.322,97.369a34.9,34.9,0,0,1-.025,5.539c-.037.151.035.329.213.324l.337.009c2.806,2.05,6.681,2.421,9.977,3.533,1.385,1.094.995,2.826,1.121,4.177.362,5.824.825,11.669.251,17.672-2.544,4.865-5.7,3.86-6.35,10.717-.566,7.829-1.566,16.154,2.254,23.125l-1.445.249c-2.145,4.492-.835,7.409,4.206,9.309,24.888,9.739,59.91,18.581,85.881,11.23.472.467,1.159-.018,1.7-.752a3.625,3.625,0,0,0,.809-2.185C242.693,575.889,243.3,571.536,240.633,571.1Z" transform="translate(47.26 -8.532)" fill="#d08b5b"/>
      <path id="_Shoes" data-name="ðŸ‘Ÿ Shoes" d="M220.752,139.5c-4.484,0-9.352-.2-14.078-.573-4.081-.324-7.875-.771-10.41-1.227-2.242-.4-9.738-2.051-18.6-4.568-4.972-1.413-9.579-2.874-13.691-4.344a105.768,105.768,0,0,1-12.6-5.309A3.856,3.856,0,0,1,149.24,120a10.053,10.053,0,0,1,.851-4.1,5.972,5.972,0,0,1,.9-1.4c.287-.36.494-.62.383-.731-3.714-3.706-2.3-12.2-1.548-16.763h0a22.3,22.3,0,0,0,.36-2.671c0-1.792,1.491-3.922,2.807-5.8a18.972,18.972,0,0,0,1.8-2.882,28.75,28.75,0,0,0,1.189,3.891,20.484,20.484,0,0,0,2.043,4.082,8.961,8.961,0,0,0,1.764,1.933,8.691,8.691,0,0,0,1.86,1.155,7.1,7.1,0,0,0,2.791.706.957.957,0,0,0,.306-.034l.069-.03.05-.026a25.319,25.319,0,0,0,2.282-2.707A144.458,144.458,0,0,1,176.7,83.549a40.916,40.916,0,0,1,5.566-4.849,14.725,14.725,0,0,1,2.592-1.473,6.063,6.063,0,0,1,2.316-.54,3.242,3.242,0,0,1,1.492.342c1.629.833,2.863,3.145,4.17,5.593,1.211,2.269,2.464,4.615,4.143,6.021a57.16,57.16,0,0,1,5.607,5.674c1.469,1.626,2.989,3.307,4.853,5.149a74.645,74.645,0,0,0,6.716,5.89,94.578,94.578,0,0,0,9.742,6.6c1.993,1.187,4.136,2.382,6.369,3.552,2.368,1.24,4.912,2.49,7.561,3.715a4.57,4.57,0,0,1,2.67,3.114,6.4,6.4,0,0,1,.162,1.94,9.759,9.759,0,0,1-.315,1.9.327.327,0,0,0,.037.263c.194.318.91.479,1.542.62.481.108.9.2.937.34a.116.116,0,0,1-.045.115c-.229.229-.311.671-.256,1.39a21.575,21.575,0,0,0,.358,2.253c.446,2.319.951,4.947-.577,5.6C237.028,139.026,227.669,139.5,220.752,139.5ZM28.463,104.9a22.07,22.07,0,0,1-6.991-1.322,16.163,16.163,0,0,1-3.219-1.669,33.979,33.979,0,0,1-4.489-3.486A38.929,38.929,0,0,1,4.61,85.8a34.9,34.9,0,0,1-2.041-6.126A63.94,63.94,0,0,1,1.33,72.734C.713,67.921.458,62.837.211,57.921.176,57.23.137,56.447.1,55.7a125.91,125.91,0,0,1,.948-20.2c.424-3.59.947-7.055,1.555-10.3A87.661,87.661,0,0,1,4.61,16.591,34.179,34.179,0,0,1,9.235,6.363a12.057,12.057,0,0,1,3.22-3.193c.077-.052.143-.1.2-.135.084-.061,1.3-.331,3.25-.724,1.674-.337,3.262-.636,3.54-.667l.1-.011.08-.008.044-.017A20.5,20.5,0,0,1,23.527.566,41.047,41.047,0,0,1,28.281.054L28.5.042,29.314,0h0c.045.056.447.566.839,1.175a3.847,3.847,0,0,1,.817,1.905A79.207,79.207,0,0,1,29.56,14.832a41.763,41.763,0,0,0-.809,6.1l0,.266.007.1a7.294,7.294,0,0,0,.533,1.9,14.465,14.465,0,0,0,1.461,2.727,10.369,10.369,0,0,0,5.924,4.413,4.558,4.558,0,0,0,1.061.107,16.1,16.1,0,0,0,3.224-.424c1.048-.225,2.241-.539,3.547-.933,2.215-.668,4.025-1.35,4.043-1.357-.011.031-1.289,3.577-2.638,8.544-.8,2.938-1.471,5.809-2,8.534a79.2,79.2,0,0,0-1.3,9.467c-.279,3.983-.356,8.234-.43,12.345-.055,3.033-.112,6.168-.25,9.123-.155,3.307-.4,6.053-.745,8.4a27.586,27.586,0,0,1-2.258,7.282,31.949,31.949,0,0,1-3.917,6.465c-.367.463.27,1.134.887,1.782.582.612,1.131,1.19.776,1.536-.1.094-.2.2-.319.325l0,0a10.94,10.94,0,0,1-2.621,2.113,9.5,9.5,0,0,1-2.234.888A12.093,12.093,0,0,1,28.463,104.9ZM154.8,85.646h0a4.353,4.353,0,0,1-.2-1.878.051.051,0,0,1,.04-.021c.067,0,.169.132.3.393a1.78,1.78,0,0,1-.144,1.506Z" transform="translate(47.162 435.15)" fill="#fff"/>
      <path id="_Ink" data-name="ðŸ– Ink" d="M223.19,578.615h0A122.23,122.23,0,0,1,205.4,577.15c-5.738-.855-11.938-2.088-18.429-3.663-5.606-1.361-11.384-2.965-17.174-4.767-4.872-1.517-9.72-3.168-14.019-4.776l-.333-.134h0a16.489,16.489,0,0,1-3.784-1.9,5.24,5.24,0,0,1-1.337-1.441,4.825,4.825,0,0,1-.673-2.029,10.283,10.283,0,0,1,.268-3.29c.205-.91.677-2.464,1.525-2.657a20.808,20.808,0,0,1-1.582-4.663,30.074,30.074,0,0,1-.627-4.92,82.13,82.13,0,0,1,.328-10.112l0-.049c.06-.822.123-1.671.177-2.5.593-4.787,1.823-6.023,3.525-7.735a21.436,21.436,0,0,0,2.825-3.333,77.543,77.543,0,0,0-.076-13.47h0c-.052-.8-.111-1.7-.166-2.605a7.165,7.165,0,0,1-.045-1.056v0a7.364,7.364,0,0,0-.074-1.335,1.58,1.58,0,0,0-.551-1.023c-.434-.106-.89-.213-1.292-.307-2.89-.68-5.878-1.383-8.333-2.992a1.424,1.424,0,0,1-1.05-.5,1.444,1.444,0,0,1-.307-1.178,19.318,19.318,0,0,0,.068-3.7v0c-.025-.554-.052-1.128-.056-1.7.307-4.909.473-10.284.507-16.432.03-5.483-.044-11.06-.117-16.453-.1-7.4-.2-15.054-.034-22.577.09-4.05.249-7.739.486-11.277.266-3.973.623-7.657,1.091-11.263.618-6.506,1.524-13.106,2.4-19.489v-.007c.89-6.477,1.81-13.175,2.429-19.781.333-3.555.555-6.8.679-9.922.138-3.5.15-6.761.035-9.959-.074-2.475-.237-4.99-.5-7.689-.233-2.406-.539-4.9-.935-7.632-.737-5.072-1.683-10.2-2.6-15.166v0c-.961-5.211-1.955-10.6-2.709-15.933l-.683,1.47-.412.887,0,.008c-2.506,5.394-5.1,10.971-7.5,16.515-2.691,6.222-4.846,11.738-6.589,16.863a157.18,157.18,0,0,0-4.856,17.206c-.967,4-1.966,8.141-3.175,12.14-.651,2.153-1.308,4.1-2.011,5.938-.788,2.068-1.612,3.959-2.519,5.781a58.334,58.334,0,0,1-5.663,8.805c-2.231,2.921-4.684,5.718-6.789,8.07A182.906,182.906,0,0,0,81.78,429.078c-1.639,2.712-3.158,5.451-4.514,8.141-1.415,2.806-2.7,5.646-3.809,8.44-1.157,2.9-2.165,5.847-3,8.743a85.314,85.314,0,0,0-2.079,9.052,1.65,1.65,0,0,1,.112.161,8.472,8.472,0,0,1-.65,2.429,2.786,2.786,0,0,1-1.841,1.6,13.758,13.758,0,0,0-1.825-.118,15.724,15.724,0,0,0-3.222.336c-.443.036-.9.055-1.36.055a20.684,20.684,0,0,1-4.017-.418,29.609,29.609,0,0,1-3.885-1.072l-.206.553-.134.358a83.989,83.989,0,0,0-3.9,12.378,12.813,12.813,0,0,0,1.477.214h0a5.191,5.191,0,0,1,3.2,1.046,1.136,1.136,0,0,1,.306,1.03,1.294,1.294,0,0,1-.833.868,2.905,2.905,0,0,1-.871.125,7.842,7.842,0,0,1-2.105-.407,9.83,9.83,0,0,0-1.686-.382c-.172.922-.328,1.86-.475,2.868,1.433.078,3.6.2,4.535,1.281a2.011,2.011,0,0,1,.447,1.565,2.013,2.013,0,0,1-2.186,1.8,10.4,10.4,0,0,1-2.537-.47l-.009,0c-.257-.069-.5-.135-.734-.192-.119,1.244-.212,2.493-.276,3.711.178.006.371.009.59.009.32,0,.64-.006.979-.013h.043c.321-.007.685-.014,1.043-.014a12.567,12.567,0,0,1,2.043.134,5.519,5.519,0,0,1,1.86.617,1.776,1.776,0,0,1,.708.787,1.754,1.754,0,0,1,.139.976,1.686,1.686,0,0,1-.39.865,1.758,1.758,0,0,1-.891.543,5.386,5.386,0,0,1-1.311.149,15.119,15.119,0,0,1-2.633-.319,16.609,16.609,0,0,0-2.314-.308c-.117,2.6-.137,5.328-.155,7.964v0a111.685,111.685,0,0,1-.883,16.023,41.573,41.573,0,0,1-1.878,7.673,32.53,32.53,0,0,1-1.55,3.652A29.855,29.855,0,0,1,39.053,535a6.075,6.075,0,0,1-.082,3.349,8.629,8.629,0,0,1-1.685,2.967,9.135,9.135,0,0,1-3.46,2.4,11.048,11.048,0,0,1-4.046.715,16.6,16.6,0,0,1-3.568-.415,23.489,23.489,0,0,1-3.539-1.1,29.224,29.224,0,0,1-3.311-1.561,29.61,29.61,0,0,1-2.886-1.8,34.715,34.715,0,0,1-5.491-4.846A35.1,35.1,0,0,1,6.815,529.1a40.065,40.065,0,0,1-3.014-6.21,49.693,49.693,0,0,1-2.02-6.657A64.649,64.649,0,0,1,.59,509.281c-.262-2.224-.439-4.607-.525-7.082-.144-4.132-.051-8.562.292-13.942.24-1.993.4-4.766.594-7.977.235-3.962.5-8.452.992-13.094A92.081,92.081,0,0,1,4.261,453.57a41.79,41.79,0,0,1,2-5.927A21.9,21.9,0,0,1,9,442.876a11.848,11.848,0,0,1,3.616-3.176,9.355,9.355,0,0,1,2.18-.857,9.984,9.984,0,0,1,2.45-.3,12.425,12.425,0,0,1,2.323.23,45.264,45.264,0,0,1,8.428-2.051c.635-.112,1.29-.227,1.949-.349a16.585,16.585,0,0,1-.447-6.008,107.346,107.346,0,0,1,2.455-14.7,84.009,84.009,0,0,1,4.758-14.2,68.913,68.913,0,0,1,3.375-6.641,60.922,60.922,0,0,1,4.109-6.194A55.3,55.3,0,0,1,49.09,383a52.258,52.258,0,0,1,5.737-4.975,29.226,29.226,0,0,0,5.5-5.565,28.05,28.05,0,0,0,3.616-6.489,35.47,35.47,0,0,0,2.2-15c-2.046-8.3-3.935-16.788-5.616-25.241C58.631,316.2,57.034,306.873,55.778,298c-1.406-9.929-2.388-19.33-2.921-27.944-.287-4.646-.448-9.134-.476-13.34-.03-4.414.085-8.633.34-12.539-.026-.011-.05-.024-.077-.038l-.042-.022-.061-.011-.1-.018a4.317,4.317,0,0,1-2.308-1.156,2.8,2.8,0,0,1-.8-2.384,3.5,3.5,0,0,1,.383-1.185,37.636,37.636,0,0,1-.329-9.851c.245-3.686.748-7.606,1.191-11.064a72.984,72.984,0,0,0,.88-9.5c.006-.875.047-1.775.087-2.646a25.827,25.827,0,0,0-.306-6.958c-1.953-1.775-3.822-3.636-5.555-5.53-1.7-1.857-3.315-3.8-4.8-5.774-1.458-1.934-2.836-3.952-4.093-6-1.231-2-2.382-4.091-3.423-6.206-1.017-2.067-1.956-4.218-2.792-6.394-.816-2.123-1.557-4.331-2.2-6.562-.629-2.175-1.185-4.433-1.652-6.712-.455-2.219-.839-4.521-1.142-6.844a113.9,113.9,0,0,1-.915-14.006c-.026-4.53.19-9.343.643-14.306A236.3,236.3,0,0,1,29.976,92.1a3.1,3.1,0,0,1-.986-.994,3.343,3.343,0,0,1-.443-1.239,4.709,4.709,0,0,1,0-1.352,6.3,6.3,0,0,1,.335-1.331c1.114-3.124,2.528-6.224,3.9-9.223v0l.005-.012c.349-.766.71-1.557,1.059-2.334A85.235,85.235,0,0,1,72.129,24.7,86.494,86.494,0,0,1,92.391,15.78a23.123,23.123,0,0,0,2.855-1.243h0c1.184-.566,2.525-1.207,3.807-1.71a10.121,10.121,0,0,1,3.413-.866,2.128,2.128,0,0,1,.89.165,1.143,1.143,0,0,1,.561.541c1.984-.447,4.038-.872,6.277-1.3a17.012,17.012,0,0,0,1.354-3.259,18.524,18.524,0,0,0,.681-3.462,8.409,8.409,0,0,0,.078-1.75,4.849,4.849,0,0,1,.437-2.711.18.18,0,0,1,.017-.156A.059.059,0,0,1,112.809,0c.03,0,.059.032.082.09A2.947,2.947,0,0,1,113.4.04a1.135,1.135,0,0,1,.952.388c.448.576.235,1.7,0,2.618a15.947,15.947,0,0,1,.232,3.081,17.355,17.355,0,0,1-.344,3.074,18.439,18.439,0,0,1-.87,2.974,18.738,18.738,0,0,1-1.347,2.781,6.156,6.156,0,0,1-1.824,2.412,3.365,3.365,0,0,1-1.971.773,1.222,1.222,0,0,1-1.194-.667,1.96,1.96,0,0,1,.087-1.482,7.676,7.676,0,0,1,1.506-2.253A14.137,14.137,0,0,0,104.262,15a5.135,5.135,0,0,0-2.441,2.315c-.735,1.575-.364,3.569,1.1,5.926a10.245,10.245,0,0,0,3.858,5.055,26.8,26.8,0,0,0,7.315,3.728,53.128,53.128,0,0,0,9.521,2.306,69.407,69.407,0,0,0,10.475.79,53.268,53.268,0,0,0,15.22-2,25.017,25.017,0,0,0,5.878-2.566,12.525,12.525,0,0,0,3.943-3.67c1.8-2.74,1.894-6,.283-9.691-.16-.084-.732-.269-1.457-.5h0a22.118,22.118,0,0,1-4.809-1.914c.209.466.4,1.006.594,1.578.622,1.8,1.326,3.836,3.045,4.326a.948.948,0,0,1,.549.273.985.985,0,0,1,.284.523.681.681,0,0,1-.41.756,3.793,3.793,0,0,1-1.461.324,2.917,2.917,0,0,1-1.971-.79,6.489,6.489,0,0,1-1.413-1.969,26.284,26.284,0,0,1-1.681-5.062c-.131-.51-.254-.991-.37-1.385a23.407,23.407,0,0,1-1.44-5.37,12.614,12.614,0,0,1-.062-2.716,9.429,9.429,0,0,1,.619-2.629.256.256,0,0,1,.127-.036c.67,0,1.255,2.952,1.821,5.806a20.517,20.517,0,0,0,1.275,4.885,1.358,1.358,0,0,0,.262.036h.016a.807.807,0,0,0,.366.5,10.89,10.89,0,0,0,3.34,1.083,12.137,12.137,0,0,1,1.956.533,2.113,2.113,0,0,1,1.957-1,6.274,6.274,0,0,1,2.581.688c.519.2,1.066.378,1.6.553a13.047,13.047,0,0,1,4.41,2.089,49.457,49.457,0,0,1,8.291,4.44,51.9,51.9,0,0,1,7.158,5.754,61.814,61.814,0,0,1,11.084,14.565A81.7,81.7,0,0,1,202.72,59.7a96.918,96.918,0,0,1,3.358,18.008c.058.609.172,1.422.3,2.364.651,4.657,1.741,12.451-1.337,14.077-.327,4.322-.558,8.718-.708,13.44-.133,4.206-.2,8.573-.2,13.351,0,8.875.23,17.851.452,26.531v0c.249,9.729.507,19.79.44,29.716-.036,5.34-.161,10.22-.381,14.919-.247,5.27-.608,10.179-1.1,15.007,1.577,3.342,3.46,6.832,5.925,10.983a16.645,16.645,0,0,1,2.1,5.025,13.5,13.5,0,0,1,.153,5.4,1.821,1.821,0,0,1,.15.976,1.445,1.445,0,0,1-.437.864c-.188,2.9-1.915,4.189-3.914,5.68-.446.332-.906.675-1.365,1.049a11.006,11.006,0,0,0-1.379,1.187,6.179,6.179,0,0,1-2.564,1.749,46.355,46.355,0,0,0-.285,6.826c1.668,7.357,3.155,15.155,4.419,23.178,1.219,7.735,2.263,15.871,3.1,24.183.808,8.007,1.445,16.372,1.894,24.864.432,8.174.7,16.66.8,25.222.184,16.2-.236,33.1-1.248,50.224-.939,15.884-2.385,31.957-4.3,47.773-.807,6.607-1.479,13.348-2.129,19.867-.977,9.8-1.988,19.942-3.48,29.841a2.059,2.059,0,0,1-.857,1.372,2.65,2.65,0,0,1-1.517.436,3.367,3.367,0,0,1-.949-.137,24.435,24.435,0,0,1-4.846,2.647,44.208,44.208,0,0,1-5.3,1.788c-.17,2.84-.284,5.019-.2,7.205a40.83,40.83,0,0,0,.948,7.1,3.294,3.294,0,0,1,1.028-.181,1.494,1.494,0,0,1,.746.167.827.827,0,0,1,.411.592,8.3,8.3,0,0,1,2.073,1.284,10.606,10.606,0,0,1,1.62,1.725,29.154,29.154,0,0,1,2.487,4.185,26.607,26.607,0,0,0,2.755,4.527c.4-.074.82-.171,1.269-.273h0a16.6,16.6,0,0,1,3.522-.543,3.453,3.453,0,0,1,2.966,1.25,1.64,1.64,0,0,1-.133,1.489,2.83,2.83,0,0,1-1.855.929,16.907,16.907,0,0,1-2.432.222h-.007c-.356.015-.664.028-.919.051,1.153,1.444,2.2,2.707,3.2,3.861.5-.119,1.066-.3,1.664-.492a13.772,13.772,0,0,1,3.907-.857,2.95,2.95,0,0,1,2.214.809,1.474,1.474,0,0,1,.381.743,1.224,1.224,0,0,1-.165.84,3.184,3.184,0,0,1-1.745,1.384,10.828,10.828,0,0,1-2.274.463c-.41.054-.8.1-1.173.177,1.369,1.356,2.875,2.7,4.6,4.121.819-.307,1.641-.66,2.436-1a23.348,23.348,0,0,1,6.049-1.964,1.593,1.593,0,0,1,.217-.015,1.548,1.548,0,0,1,1.467,1.273,1.725,1.725,0,0,1-.065,1.018,1.471,1.471,0,0,1-.739.783,18.709,18.709,0,0,1-3.257,1.2c-1.224.338-2.488.589-3.452.77a39.923,39.923,0,0,0,4.967,3.341c1.731,1,3.547,1.94,5.3,2.845h0c2.114,1.089,4.3,2.216,6.345,3.465a26.564,26.564,0,0,1,4.626,1.935,16.8,16.8,0,0,1,3.886,2.831,10.082,10.082,0,0,1,3.048,8.729c1.937.586,2.011,2.674,2.071,4.352l0,.137c.034.458.105.917.174,1.36v0a12.9,12.9,0,0,1,.192,1.757,4.556,4.556,0,0,1-.3,1.773,4.362,4.362,0,0,1-1.1,1.621,3.359,3.359,0,0,1-.824.573,2.114,2.114,0,0,1-.914.223,1.758,1.758,0,0,1-.873-.234,37.363,37.363,0,0,1-8.51,2.264A66.266,66.266,0,0,1,223.19,578.615Zm-71.254-25.193a15.483,15.483,0,0,0-.563,3.923,3.938,3.938,0,0,0,.726,2.378c.919,1.221,2.712,1.863,5.424,2.835l.651.233c3.614,1.2,8.447,2.791,13.79,4.4,5.793,1.749,11.091,3.2,16.2,4.441,6.118,1.485,11.914,2.639,17.225,3.432,2.965.442,5.847.782,8.568,1.011,2.9.243,5.691.366,8.308.366a66.763,66.763,0,0,0,11.132-.864,45.916,45.916,0,0,0,5.073-1.152,35.981,35.981,0,0,0,4.659-1.7,3.876,3.876,0,0,0,.206-1.886,13.32,13.32,0,0,1-.1-1.947,7.983,7.983,0,0,0-.38-3.021,6.8,6.8,0,0,1-1.152,2.258,7.98,7.98,0,0,1-1.824,1.7,11.744,11.744,0,0,1-4.785,1.812c-2.108.4-4.284.708-6.468.9-2.084.187-4.242.282-6.415.282a85.548,85.548,0,0,1-9.971-.6c-3.112-.362-6.337-.882-9.859-1.59-6.537-1.314-13.092-3.083-19.431-4.795h0c-4.869-1.315-9.9-2.674-14.823-3.793a42.9,42.9,0,0,1-9.329-2.52,15.579,15.579,0,0,1-3.919-2.4,12.249,12.249,0,0,1-2.94-3.7Zm4.078-29.783a18.716,18.716,0,0,0-2.379,5.731,43.445,43.445,0,0,0-.963,6.082,62.982,62.982,0,0,0-.087,6.3,29.672,29.672,0,0,0,.588,4.98,15.712,15.712,0,0,0,1.319,3.853,11.313,11.313,0,0,0,2.108,2.923,16.864,16.864,0,0,0,6.811,3.844,82.02,82.02,0,0,0,10.652,2.489c1.674.455,3.378.926,5.025,1.381l.041.011c6.007,1.66,12.219,3.377,18.426,4.714,3.341.72,6.411,1.274,9.384,1.695,3.338.472,6.467.764,9.566.893,1.82.152,3.655.229,5.456.229h0a62.341,62.341,0,0,0,8.73-.61,27.059,27.059,0,0,0,4.515-.684,5.506,5.506,0,0,0,3.23-1.956,3.846,3.846,0,0,0,.655-1.85,7.428,7.428,0,0,0-.285-2.623,7.972,7.972,0,0,0-1.565-2.736,10.391,10.391,0,0,0-2.359-1.975,32.042,32.042,0,0,0-6-2.663,37.538,37.538,0,0,1-4.971-2.089,52.535,52.535,0,0,1-7.251-4.374,63.6,63.6,0,0,1-6.478-5.35l-.587.1-.018,0a23.922,23.922,0,0,0-3.765.877,6.881,6.881,0,0,0-3.122,2.03.1.1,0,0,1-.077.038.117.117,0,0,1-.1-.058.094.094,0,0,1,0-.1,7.6,7.6,0,0,1,2.685-2.658,23.2,23.2,0,0,1,3.494-1.683c-.765-.763-1.51-1.567-2.23-2.343l0,0,0,0c-.758-.817-1.542-1.663-2.35-2.463a39.878,39.878,0,0,0-4.958,1.452,34.951,34.951,0,0,1-5.546,1.555c-.01-.38.334-.877,1.021-1.477a18.209,18.209,0,0,1,2.409-1.7,46.108,46.108,0,0,1,4.678-2.476c-1.245-1.444-2.434-2.944-3.534-4.459a26.9,26.9,0,0,0-5.828,2.209h0a38.016,38.016,0,0,1-4.012,1.7,4.455,4.455,0,0,1,1.075-2.048,12.147,12.147,0,0,1,2.089-1.88,27.671,27.671,0,0,1,4.79-2.727,21.237,21.237,0,0,1-2.32-3.947v0a28.291,28.291,0,0,0-2.3-4.029,7.225,7.225,0,0,0-1.391-1.467,3.721,3.721,0,0,0-1.651-.753,57.828,57.828,0,0,0-17.109,15.082c-.3.405-.605.838-.9,1.257a11.668,11.668,0,0,1-3.83,4,7.346,7.346,0,0,1-2.887.647,5.485,5.485,0,0,1-2.369-.531,6.673,6.673,0,0,1-1.94-1.432,12.836,12.836,0,0,1-2.808-5.188,18.9,18.9,0,0,1-.637-2.972A16.061,16.061,0,0,1,156.014,523.639ZM15.53,441.049a14.658,14.658,0,0,0-3.358,2.986,21.165,21.165,0,0,0-2.6,4.022,33.455,33.455,0,0,0-1.956,4.838A52.828,52.828,0,0,0,6.2,458.328,99.021,99.021,0,0,0,4.6,470.1c-.334,3.981-.517,7.986-.678,11.52v.005c-.151,3.312-.294,6.441-.535,8.981-.2,2.508-.307,5.029-.31,7.494,0,2.67.113,5.3.345,7.813a59.44,59.44,0,0,0,3.3,15.257,39.035,39.035,0,0,0,3.271,6.781,30.232,30.232,0,0,0,4.567,5.775,26.614,26.614,0,0,0,6.023,4.438,27.617,27.617,0,0,0,3.607,1.614,30.48,30.48,0,0,0,4.032,1.155,9.984,9.984,0,0,0,1.413.1h0a11.963,11.963,0,0,0,2.09-.184,9.657,9.657,0,0,0,2.034-.583,5.775,5.775,0,0,0,1.669-1.026,3.453,3.453,0,0,0,1-1.513,21.433,21.433,0,0,1-4.09,1.532,15.35,15.35,0,0,1-3.771.494,12.937,12.937,0,0,1-2.752-.292,12.782,12.782,0,0,1-2.56-.852,15.7,15.7,0,0,1-4.558-3.235,33.169,33.169,0,0,1-6.954-11.535,73.37,73.37,0,0,1-3.1-10.434,113.634,113.634,0,0,1-1.965-11.821A153.17,153.17,0,0,1,5.918,476.6,112.777,112.777,0,0,1,9.03,454.54a46.844,46.844,0,0,1,2.856-8.17A17.1,17.1,0,0,1,15.53,441.049Zm15.005-2.411a30.239,30.239,0,0,0-8.544,1.425,12.133,12.133,0,0,0-3.624,2.009,9.042,9.042,0,0,0-2.537,3.361A114.932,114.932,0,0,0,9.984,476.5a145.291,145.291,0,0,0,1.867,31.628,77.224,77.224,0,0,0,1.862,8.036,55.158,55.158,0,0,0,3.439,9.065,25.921,25.921,0,0,0,5.294,7.513,13.514,13.514,0,0,0,3.429,2.368,10.668,10.668,0,0,0,4,1.011,8.3,8.3,0,0,0,3.607-1.378,10.571,10.571,0,0,0,2.735-2.823,18.715,18.715,0,0,0,1.986-3.956,34.158,34.158,0,0,0,1.36-4.775,72.5,72.5,0,0,0,1.335-10.753c.219-3.642.267-7.163.309-10.269v0c.034-2.482.063-4.625.174-6.233-.673-.065-1.39-.1-2.255-.1-.709,0-1.424.021-2.114.041h0c-.692.02-1.407.041-2.105.041a20.791,20.791,0,0,1-2.761-.156c-.007-1.255,7.981-2.58,9.374-2.728.1-1.71.22-3.275.377-4.783a31.141,31.141,0,0,0-5.515-.422h0a34.877,34.877,0,0,1-4.865-.31,7.493,7.493,0,0,1,4.1-1.785,46.184,46.184,0,0,1,5.245-.616h.013c.514-.04,1-.077,1.424-.118.153-1.072.347-2.212.591-3.484-2.92-.413-5.952-.685-9.011-.811-.149-.007-.31-.01-.49-.01-.317,0-.64.01-.981.02h-.017c-.319.01-.681.021-1.032.021a6.519,6.519,0,0,1-2.462-.373c.359-.468,1.485-.814,3.347-1.03a50.6,50.6,0,0,1,5.616-.257c2.232,0,4.417.09,5.5.173a67.516,67.516,0,0,1,3.377-10.85,11.1,11.1,0,0,1-3.166,1.635,10.693,10.693,0,0,1-3.29.515,11.761,11.761,0,0,1-4.465-.9,13.027,13.027,0,0,1-2.041-1.055,13.355,13.355,0,0,1-1.832-1.4,13.132,13.132,0,0,1-1.562-1.693,12.47,12.47,0,0,1-1.232-1.943,11.24,11.24,0,0,1-1.229-4.451c.079-7.087,1.152-12.872,3.28-17.686C30.964,440.517,30.759,439.626,30.535,438.639ZM158.7,500.283c.49,5.115.537,9.935.582,14.6.042,4.273.085,8.691.467,13.346a8.545,8.545,0,0,0,1.693,3.561,4.8,4.8,0,0,0,1.279,1.1,2.768,2.768,0,0,0,3.237-.253,6.843,6.843,0,0,0,1.742-2.177,53.468,53.468,0,0,1,7.936-9.128,103.839,103.839,0,0,1,9.425-7.707,7.435,7.435,0,0,1-.92-4.121c0-.14-.009-.266-.014-.393a34.012,34.012,0,0,1,1.357-9.623c.07-.286.142-.585.217-.9a76.232,76.232,0,0,1-18.2,2.28,65.528,65.528,0,0,1-8.8-.585ZM32.786,446.425h0c-.054.395-.1.724-.133,1.036-.071,1.1-.21,2.244-.356,3.455a31.946,31.946,0,0,0-.316,7.755,10.4,10.4,0,0,0,1.052,3.524,8.447,8.447,0,0,0,1.047,1.56,9.027,9.027,0,0,0,1.477,1.382,6.977,6.977,0,0,0,4.321,1.446,8.04,8.04,0,0,0,3.389-.763,7.781,7.781,0,0,0,2.756-2.148,29.017,29.017,0,0,1-8.081-7.547,38.943,38.943,0,0,1-5.157-9.7ZM34.372,91.9c-1.829,9.894-3.427,18.794-4.447,27.528-.56,4.793-.9,9.131-1.037,13.261-.074,2.223-.089,4.41-.043,6.5.048,2.186.163,4.344.342,6.414.186,2.151.448,4.279.778,6.326.342,2.118.767,4.217,1.265,6.238.513,2.084,1.12,4.153,1.8,6.149.7,2.052,1.507,4.09,2.392,6.058.908,2.019,1.928,4.026,3.032,5.967,1.13,1.986,2.383,3.963,3.724,5.875,1.37,1.954,2.872,3.9,4.466,5.782,1.626,1.921,3.4,3.835,5.259,5.689,4.054,4.4,8.6,9.11,13.894,14.4,4.722,4.721,9.592,9.461,14.3,14.045l.013.012c6.314,6.145,12.843,12.5,19.1,18.893a26.476,26.476,0,0,1,4.134,4.776c1.214,1.751,2.3,3.627,3.3,5.4,1.615,2.841,5.528,7.1,8.117,9.915a19.8,19.8,0,0,1,2.346,2.727,34.527,34.527,0,0,0,3.742,2.6,8.122,8.122,0,0,0,1.483.669,4.418,4.418,0,0,0,1.362.227,5.138,5.138,0,0,0,2.737-.912,24.018,24.018,0,0,0,3.472-2.82,11.269,11.269,0,0,1,4.039-1.551c.409-.1.831-.2,1.258-.319a4.128,4.128,0,0,0,2.217-1.667,5.152,5.152,0,0,1,3.694-2.164,4.392,4.392,0,0,1,.421-1.809,12.822,12.822,0,0,1-3.2-2.18,11.359,11.359,0,0,1-2.322-3.02.861.861,0,0,1,.017-.874,1.085,1.085,0,0,1,.9-.51.817.817,0,0,1,.74.462,10.425,10.425,0,0,0,2.5,3.015A8.1,8.1,0,0,0,143.8,254.8a27.719,27.719,0,0,1-1.624-5.019c-.339-1.524-.526-2.938-.691-4.185a30.075,30.075,0,0,0-.621-3.6,9.434,9.434,0,0,0-1.426-3.161,11.806,11.806,0,0,0-3.122-2.927,31.237,31.237,0,0,0-5.71-2.9,50.743,50.743,0,0,1-13.564-7.333,56.707,56.707,0,0,1-5.579-4.833,68.672,68.672,0,0,1-4.947-5.449c-1.5-1.832-2.951-3.776-4.442-5.942-1.329-1.932-2.658-4-4.064-6.314-2.612-4.308-5.1-8.857-7.5-13.256l0-.006c-1.763-3.226-3.586-6.562-5.447-9.783-2.089-3.615-4.006-6.7-5.859-9.418A86.3,86.3,0,0,0,72.534,162c-1.226-1.388-2.492-2.71-3.762-3.929-1.333-1.278-2.717-2.488-4.115-3.6a2.767,2.767,0,0,1-.82.136,1.838,1.838,0,0,1-1.489-.731,4.481,4.481,0,0,1-.8-2.2,7.314,7.314,0,0,1,.094-2.368c.41-4.5.73-8.914,1.039-13.181v-.008c.435-6.005.846-11.677,1.484-17.5.343-3.127.719-6,1.15-8.79.483-3.118,1.022-6.055,1.65-8.979a80.879,80.879,0,0,0-7.777-3.291c-2.576-.938-5.3-1.79-8.1-2.533-2.657-.7-5.453-1.33-8.312-1.859C40.08,92.675,37.252,92.248,34.372,91.9Zm19.475,149.03h0c0,.025,0,.051,0,.073v.008c0,.034,0,.07,0,.1.123.008.253.015.385.021l.087,0H54.4l.033-.012.013,0,.109-.037.072-.024a.679.679,0,0,0,.147.016.715.715,0,0,0,.336-.087c.153-.081.318-.165.537-.272.612-.2,1.235-.41,1.837-.609l.039-.013h0c1.413-.466,2.875-.949,4.3-1.453,1.28-.28,2.634-.507,4.141-.695a.743.743,0,0,0,.382-.161c.978-.079,1.8-.152,2.627-.248a.73.73,0,0,0,.524-.3.852.852,0,0,0,.154-.539.574.574,0,0,0-.583-.586.835.835,0,0,0-.095.006c-1.172.137-2.363.233-3.515.326-1.607.13-3.269.264-4.894.509-2.446.368-5.224.988-7.279,2.786a.6.6,0,0,0-.191.683.8.8,0,0,0,.727.505h.02Zm147.321-11.092h0l.2.024.026,0h.01l.267.032a.834.834,0,0,0,.091.005.577.577,0,0,0,.587-.591.847.847,0,0,0-.155-.536.728.728,0,0,0-.524-.3c-.724-.081-1.49-.173-2.276-.272-1.923-.335-3.87-.72-5.753-1.093l-.023,0c-1.748-.346-3.556-.7-5.345-1.022-3.463-.616-7.19-1.078-11.729-1.456-3.356-.279-5.925-.4-8.329-.4a50.317,50.317,0,0,0-7.015.448c-1.186.166-2.341.383-3.433.644a30.861,30.861,0,0,0-3.344,1,.71.71,0,0,0-.412.371c-.688.208-1.252.394-1.776.585a.736.736,0,0,0-.472.846.638.638,0,0,0,.6.572.723.723,0,0,0,.247-.047,35.288,35.288,0,0,1,3.806-1.141c1.242-.3,2.552-.546,3.9-.736a56.433,56.433,0,0,1,7.926-.511c1.017,0,2.049.02,3.155.062a187.845,187.845,0,0,1,20.066,2.2h0l.343.05c2.373.347,4.827.707,7.256,1.017.618.108,1.185.2,1.733.289a.775.775,0,0,0,.12.01A.75.75,0,0,0,201.169,229.843Zm-.625-136.219-.16.022a63.976,63.976,0,0,0-11.439,2.293c.459,8.754.549,17.733.637,26.416v.019c.064,6.328.13,12.872.338,19.289.233,7.2.624,13.474,1.2,19.174a167.354,167.354,0,0,0,2.912,18.9c.69,3.183,1.487,6.312,2.368,9.3.924,3.133,1.973,6.219,3.118,9.173.23-6.6.35-13.628.367-21.5.017-7.792-.072-15.583-.151-21.5q-.025-1.577-.05-3.137c-.16-10.069-.31-19.58-.239-29.159.081-10.745.431-20.052,1.1-29.289ZM109.922,11.85h0l-.417.121-.023.007-.022.006c-.206.059-.418.121-.627.183.321-.036.64-.064.95-.085.055-.087.1-.163.14-.232Z" transform="translate(45.835 -2.37)"/>
    </g>
    <g id="Head" transform="translate(95.946 42.662)">
      <g id="HEAD-2" data-name="HEAD">
        <path id="_Skin-2" data-name="âœ‹ Skin" d="M93.824,41.489c-.9-14.742-5.682-31.457-19.76-38.695C43.028-9.662,2.223,21.707.062,53.754-.691,64.724,5.4,76.711,16.529,79.76c2.474,3.279,6.216,5.281,9.91,7.019C70.43,109.6,98.847,91.05,93.824,41.489Z" transform="translate(8.532 22.516)" fill="#d08b5b"/>
        <path id="_Ink-2" data-name="ðŸ– Ink" d="M132.521,47.288q-2.332-6.477-4.925-12.855A132.67,132.67,0,0,0,122.3,22.124C109.825-1.42,87.131-1.42,75.4,1.656,69.316-.965,57.922-.226,51.587,2.14,41.332,5.969,28.832,21.033,24.557,27.8,15.121,42.744,9.232,62.633,15.5,79.9a38.9,38.9,0,0,0,3.041,6.361A24.81,24.81,0,0,1,16,89.153a88.623,88.623,0,0,0-8.041,8.6,42.754,42.754,0,0,0-5.9,10.077c-2.8,6.886-2.94,14.682.768,21.252,3.226,5.717,8.942,9.974,15.381,10.38.331.046.662.088.994.122a18.616,18.616,0,0,0,3.081,3.828c3.638,3.46,12.309,5.236,17.255,5.349.254.2.51.408.765.609a55.261,55.261,0,0,0,9.676,6.48c2.353,1.15,5.439,2.109,7.894,1.28a4.285,4.285,0,0,0,4.045-.021,10.7,10.7,0,0,0,4.19-4.645c2.178-4.477,1.654-9.376,1.095-14.159-.616-5.283-1.209-10.568-1.811-15.851a65.437,65.437,0,0,0-2.221-12.31,28.287,28.287,0,0,0-2.6-5.906.97.97,0,0,0-.021-.46,5.63,5.63,0,0,0-1.986-2.581c-.114-.1-.228-.206-.339-.313a10.671,10.671,0,0,0-1.417-1.365c-.194-.2-.386-.4-.578-.595A48.214,48.214,0,0,1,51.8,93.611c-1.3-1.825-2.472-3.731-3.588-5.672-1.135-1.974-1.886-4.152-3.019-6.112a.311.311,0,0,0-.481-.062,1.542,1.542,0,0,0-.533,1.19L44,82.981a1.192,1.192,0,0,0-1.457-1.022,5.774,5.774,0,0,1-3.223-.111c.182-1.211.351-2.425.517-3.64.3-2.237.585-4.482.827-6.726a9.76,9.76,0,0,1,1.735.6,8.361,8.361,0,0,1,2.23,1.451c.645.593,1.09,1.391,1.877,1.8A1.194,1.194,0,0,0,48.236,74c-.538-2.069-3.583-3.254-5.467-3.645a8.718,8.718,0,0,0-1.969-.178q.224-2.162.391-4.325.078-1.024.145-2.05a10.77,10.77,0,0,1,4.557-.367c.5.4,1,.8,1.491,1.2,1.543,1.275,3.078,2.557,4.6,3.863.137.116.273.232.41.351a1.131,1.131,0,0,0,1.872-1.09c-1.237-8.992,4.271-16.145,10.719-21.686,7.138-6.136,20.116-6.851,28.6-17.479,3.91.8,12.639,3.159,16.241,8.9,5.043,8.044,4.384,15.252,4.768,24.376s1.36,18.657-.713,27.661c-1.912,8.3-7.091,15.4-15.125,18.657-.2.081-.4.159-.6.235A24.316,24.316,0,0,1,85.1,109.6c-4.837-.915-8.875-3.129-12.9-5.852-.232-.154-.571.164-.4.4,5.3,7.03,15.722,9.378,23.986,7.523q.579-.132,1.152-.287a21.739,21.739,0,0,0,.931,16.328,21.982,21.982,0,0,0,6.347,7.935c2.965,2.342,6.643,4.233,8.7,7.52,1.884,3.012,1.325,6.4-1.9,8.137a1.6,1.6,0,0,0-.32,2.491c.308.237.616.479.931.716a37.147,37.147,0,0,0,7.569,4.017c7.133.846,11.93-4.392,15-10.571,3.609-7.253,2.671-16.091-1.306-23-3.19-5.541-9.472-11-6.975-18.015a20.266,20.266,0,0,1,4.484-6.57c2.019-2.2,4.19-4.254,6.126-6.53a23.239,23.239,0,0,0,4.583-7.551c1.391-4.143.7-8.622-.346-12.758C138.527,64.658,135.619,55.9,132.521,47.288Z" transform="translate(-20.144 7.547)"/>
      </g>
      <g id="FACE" transform="translate(37.761 44.084)">
        <path id="tongue" d="M0,3.364S3.365,5.957,9.64,5.957a19.717,19.717,0,0,0,9.92-2.319S14.06.3,9.64.033,0,3.364,0,3.364Z" transform="translate(30.348 55.101)" fill="#ff6c6c"/>
        <path id="_Ink-3" data-name="ðŸ– Ink" d="M26.928,51.9a26.387,26.387,0,0,1-10.582-2.05,16.125,16.125,0,0,1-3.74-2.31A12.452,12.452,0,0,1,10.2,44.884a6.1,6.1,0,0,1-1.1-3.355,2.608,2.608,0,0,1,.982-2.2,3.724,3.724,0,0,1,2.254-.613,7.632,7.632,0,0,1,1.211.1,78.961,78.961,0,0,0,11,1.078l.637.011a.689.689,0,0,1,.507-.288c1.489-.16,3.023-.186,4.506-.21.557-.009,1.133-.019,1.7-.035.505-.015,1.024-.04,1.525-.065.8-.039,1.631-.08,2.445-.08.536,0,1.017.017,1.471.053l.143.013a7.11,7.11,0,0,1,2.02.484,4,4,0,0,1,1.59,1.121,3,3,0,0,1,.639,2.3,6.259,6.259,0,0,1-1.582,3.3,15.394,15.394,0,0,1-2.765,2.51c-.39.281-.761.523-1.133.74a.74.74,0,0,1-.5.285,15.153,15.153,0,0,1-5.823,1.73C28.929,51.855,27.924,51.9,26.928,51.9Zm-.945-5.676a15.174,15.174,0,0,0-4.675.734,12.43,12.43,0,0,0-2,.923c-.4.213-.811.433-1.223.619a22.4,22.4,0,0,0,4.527,1.167,30.7,30.7,0,0,0,4.677.345c.78,0,1.576-.027,2.367-.08A14.006,14.006,0,0,0,34.346,48.8l-.019-.014c-.221-.159-.45-.324-.687-.467a13.96,13.96,0,0,0-2.309-1.125,15.265,15.265,0,0,0-4.884-.962C26.293,46.228,26.137,46.226,25.983,46.226Zm.9-12.433h0a8.3,8.3,0,0,1-2.955-.594,14.944,14.944,0,0,1-3.476-1.969,1.333,1.333,0,0,1-.485-.77,1.592,1.592,0,0,1,.069-.865,1.967,1.967,0,0,1,.585-.844,1.426,1.426,0,0,1,.912-.355,1.3,1.3,0,0,1,.706.216l.531.408a15.921,15.921,0,0,0,2.083,1.4,5.146,5.146,0,0,0,2.409.72,2.822,2.822,0,0,0,1.1-.216,3.08,3.08,0,0,0,1.026-.726,3.137,3.137,0,0,0,.6-2.529,4.775,4.775,0,0,0-1.271-2.243,9.259,9.259,0,0,0-1.923-1.549.594.594,0,0,1-.161-.684.893.893,0,0,1,.3-.426.911.911,0,0,1,.568-.187,1.212,1.212,0,0,1,.2.018,6.457,6.457,0,0,1,2.268.817,5.14,5.14,0,0,1,1.525,1.4,5.567,5.567,0,0,1,.974,3.725,6.128,6.128,0,0,1-.5,1.956,5.705,5.705,0,0,1-1.124,1.68A5.38,5.38,0,0,1,26.884,33.792ZM37.02,28.06a.671.671,0,0,1-.629-.361l-.161-.345-.162-.345c-.344-.732-.7-1.475-1.045-2.194-.982-2.049-2-4.168-2.86-6.3a8.254,8.254,0,0,1-.651-3.435,4.176,4.176,0,0,1,1.454-3.074,3.109,3.109,0,0,1,2.058-.784,4.111,4.111,0,0,1,2.037.594,6.549,6.549,0,0,1,1.7,1.428l.252.3a5.242,5.242,0,0,1,.791,1.163,7.093,7.093,0,0,1,4.455-1.867,4.612,4.612,0,0,1,1.323.191,4.075,4.075,0,0,1,1.323.673,3.862,3.862,0,0,1,.944,1.052,3.93,3.93,0,0,1,.506,1.321,4.209,4.209,0,0,1,.011,1.482,5.573,5.573,0,0,1-.528,1.6,6.642,6.642,0,0,1-.925,1.354,11.765,11.765,0,0,1-2.576,2.12l-.535.339c-1,.634-2.164,1.395-3.276,2.235a23.451,23.451,0,0,0-2.975,2.641A.729.729,0,0,1,37.02,28.06Zm-24.187,0a.724.724,0,0,1-.531-.212,30.374,30.374,0,0,0-6.035-4.736l-.659-.419a11.992,11.992,0,0,1-2.632-2.139,6.7,6.7,0,0,1-.95-1.37,5.561,5.561,0,0,1-.541-1.624A4.1,4.1,0,0,1,2,14.755,3.85,3.85,0,0,1,2.945,13.7a4.029,4.029,0,0,1,1.323-.671,4.656,4.656,0,0,1,1.322-.189,7.093,7.093,0,0,1,4.458,1.865,5.073,5.073,0,0,1,.821-1.2l.3-.341a6.216,6.216,0,0,1,1.667-1.373,4.151,4.151,0,0,1,1.987-.56,3.144,3.144,0,0,1,2.07.779,4.149,4.149,0,0,1,1.457,3.172,8.8,8.8,0,0,1-.733,3.524c-.864,2.09-1.86,4.177-2.823,6.194-.244.512-.5,1.041-.743,1.562l-.26.551c-.109.229-.215.457-.323.69A.672.672,0,0,1,12.834,28.06ZM.3,10.823a.253.253,0,0,1-.224-.113c-.136-.2-.093-.677.128-1.407C.38,8.729.609,8.18.684,8L.7,7.961A15.5,15.5,0,0,1,3.494,3.5,12.148,12.148,0,0,1,6.476,1.105,7.579,7.579,0,0,1,10.12,0a4.054,4.054,0,0,1,3.348,1.667,1.465,1.465,0,0,1,.163,1.417,1.824,1.824,0,0,1-1.223,1.183,10.487,10.487,0,0,1-1.752.2,8.982,8.982,0,0,0-2,.269A11.759,11.759,0,0,0,5.478,6.374,19.746,19.746,0,0,0,2.425,8.9a6.8,6.8,0,0,0-.5.6c-.467.611-1,1.3-1.615,1.32Zm46.613-2.2a.364.364,0,0,1-.144-.031,10.241,10.241,0,0,1-1.844-1.141,8.807,8.807,0,0,0-2.249-1.3l-.286-.1a16.17,16.17,0,0,0-4.773-.991c-.07,0-.14,0-.208,0a3.013,3.013,0,0,1-.918.144,2.383,2.383,0,0,1-1.288-.345,1.7,1.7,0,0,1-.764-1.118l-.013-.068L34.4,3.529a3,3,0,0,1,.1-1.485A1.851,1.851,0,0,1,35.464.926,3.971,3.971,0,0,1,37.175.557a8.9,8.9,0,0,1,2.286.391l.581.161a13.822,13.822,0,0,1,4.206,1.749l.1.068.149.109a9.424,9.424,0,0,1,2.313,2.408,3.991,3.991,0,0,1,.6,1.512,2.408,2.408,0,0,1-.268,1.537A.241.241,0,0,1,46.915,8.619Z" transform="translate(13.774 10.346)"/>
      </g>
    </g>
  </g>
</svg>
