<svg xmlns="http://www.w3.org/2000/svg" width="390.67" height="780" viewBox="0 0 390.67 780">
  <g id="peep-standing-22" transform="translate(28.736)">
    <g id="BODY" transform="translate(-28.736 150.264)">
      <path id="_Skin" data-name="âœ‹ Skin" d="M253.852,597.739h0c-6.318,0-12.479-.171-18.2-.355l-2.771-.091h-.011c-4.276-.142-7.97-.264-10.588-.264-.547,0-1.042.005-1.472.016-2.832-.354-6.907-.454-11.625-.57a183.6,183.6,0,0,1-19.65-1.181c-1.6-.221-3.082-.482-4.4-.775a30.918,30.918,0,0,1-3.826-1.089,15.859,15.859,0,0,1-3.069-1.464,7.92,7.92,0,0,1-2.126-1.9,4.679,4.679,0,0,1-1.068-2.129,5.533,5.533,0,0,1,0-2.419,4.665,4.665,0,0,1,.811-1.78,3.645,3.645,0,0,1,1.537-1.19c-1.321-1-.757-3.842-.259-6.354a18.155,18.155,0,0,0,.447-3.027c.13-.871.962-5.682,2.012-10.382.589-2.636,1.134-4.733,1.621-6.231.6-1.838,1.105-2.77,1.51-2.77a.293.293,0,0,1,.175.062,3.386,3.386,0,0,1,2.349-1.748c.522-3.1.929-6.325,1.245-9.856.269-3.006.472-6.247.619-9.908l-.451-.062-.03,0c-.8-.11-1.636-.224-2.439-.412a1.45,1.45,0,0,1-.895.353c-.68,0-1.354-.6-2.063-1.828a27.492,27.492,0,0,1-1.562-3.481v0c-.28-.71-.521-1.324-.725-1.711-1.117-3.142-2.17-6.446-3.129-9.819-.914-3.216-1.774-6.6-2.554-10.063-1.441-6.391-2.655-13.171-3.712-20.728-.881-6.3-1.666-13.27-2.4-21.309-.653-7.166-1.207-14.51-1.743-21.613v-.013c-.721-9.561-1.467-19.447-2.468-29.089-.539-5.191-1.107-9.9-1.736-14.38-.706-5.036-1.47-9.669-2.336-14.164-.93-4.827-1.985-9.493-3.137-13.867-1.232-4.681-2.624-9.22-4.136-13.491-1.6-4.518-3.4-8.9-5.336-13.035a127.279,127.279,0,0,0-6.735-12.5c-3.1,6.178-6.832,14.351-11.1,24.295-3.677,8.563-7.874,18.728-12.475,30.212-8.452,21.1-17.019,43.529-23.275,59.908l0,.005c-1.6,4.181-3.105,8.131-4.449,11.632a122.2,122.2,0,0,0-5.07,16.552v0c-1.046,4.125-2.034,8.022-3.41,11.976a62.084,62.084,0,0,1-2.388,5.919,52.546,52.546,0,0,1-3.229,5.914c-1.068,1.7-3.858,5.616-6.5,8.962-1.526,1.932-2.839,3.473-3.9,4.581-1.256,1.309-2.13,1.973-2.595,1.973a.329.329,0,0,1-.289-.147,199.182,199.182,0,0,1-4.466,20.938c-.218.869-.443,1.767-.665,2.658a2.411,2.411,0,0,0,.406,1.558,2.964,2.964,0,0,0,.965.808,7.6,7.6,0,0,0,1.878.69,8.991,8.991,0,0,1,2.976,1.639,28.766,28.766,0,0,1,2.527,2.375h0a28.71,28.71,0,0,0,2.445,2.3,3.18,3.18,0,0,1,1.261-.359c.245,0,.4.071.438.2.065.228-.242.577-.821.933a51.631,51.631,0,0,0,6.342,4.664,12.712,12.712,0,0,1,2.485-.716c.081,0,.127.017.136.049.036.135-.541.547-1.715,1.225A32.09,32.09,0,0,0,78.6,554.01c1.172.61,2.436,1.194,3.865,1.784,2.653,1.1,5.48,2.048,8.214,2.968h0c2.438.821,4.96,1.669,7.339,2.615a43.524,43.524,0,0,1,6.746,3.287,23.582,23.582,0,0,1,5.576,4.636,19.946,19.946,0,0,1,2.17,3.035,21.145,21.145,0,0,1,1.662,3.627,1.879,1.879,0,0,1-.044,1.33,1.983,1.983,0,0,1-.808.9,7.684,7.684,0,0,1,1.7,2.465,4.883,4.883,0,0,1,.529,3.035,1.728,1.728,0,0,1-1.45,1.3c-11.765,1.088-22.919,1.616-34.1,1.616-11.627,0-23.634-.557-37.785-1.754-1.916-.358-4.877-.577-8.3-.83a129.8,129.8,0,0,1-14.6-1.629,26.8,26.8,0,0,1-5.929-1.746A9.615,9.615,0,0,1,11.31,579.4a4.639,4.639,0,0,1-1.279-1.549,6.452,6.452,0,0,1-.648-3.024,4.33,4.33,0,0,1,.314-1.5,2.875,2.875,0,0,1,.882-1.177,3.787,3.787,0,0,1,.725-1.193,4.729,4.729,0,0,1-1.386-2.932,20.2,20.2,0,0,1-.087-3.615,22.192,22.192,0,0,0,0-2.58c.058-1.219.2-3.2.568-5.693a57.394,57.394,0,0,1,1.351-6.651,30.993,30.993,0,0,1,2.284-6.139,11.042,11.042,0,0,1,3.367-4.157,3.9,3.9,0,0,1,1.827-.478,3.433,3.433,0,0,1,.545.044,92.291,92.291,0,0,0,4.09-12.464v0c.8-2.883,1.618-5.864,2.632-8.72.546-1.537,1.1-2.919,1.705-4.227a37.745,37.745,0,0,1,2.177-4.082c-.388-.185-1.008-.456-1.793-.8-2.314-1.012-5.811-2.541-8.917-4.264a29.109,29.109,0,0,1-4.093-2.654,5.569,5.569,0,0,1-2.07-2.588,1.58,1.58,0,0,1,.311-1.426c2.608-4.4,5.266-9.223,7.9-14.329,2.506-4.856,5.072-10.127,7.626-15.666,4.7-10.193,9.452-21.449,14.526-34.411,9.395-24,18.267-49.739,26.847-74.631,5.4-15.673,10.505-30.477,15.67-44.694,2.773-7.633,5.3-14.367,7.723-20.587,2.712-6.959,5.234-13.118,7.711-18.83-1.223-1.874-2.541-3.777-3.816-5.618v0a113.162,113.162,0,0,1-7.9-12.54c-7.606-4.807-14.408-8.823-20.8-12.277-.249.012-.511.019-.777.019a24.992,24.992,0,0,1-5.959-.813,21.994,21.994,0,0,1-5.4-2.092,6.455,6.455,0,0,1-1.126,2.821,2.153,2.153,0,0,1-1.72.856c-1.1,0-2.467-.747-4.069-2.221a35.055,35.055,0,0,1-4.417-5.149,63.812,63.812,0,0,1-3.732-5.8,25.473,25.473,0,0,1-2.013-4.18,5.131,5.131,0,0,0-2.017,3.683,19.571,19.571,0,0,0,.362,6.564,51.379,51.379,0,0,0,2.134,7.506c1.861,5.165,4.123,9.488,5.4,11.088.281.407.944,1.18,1.712,2.076,1.9,2.212,4.5,5.241,4,5.823a5.324,5.324,0,0,1-1.429.933,3.535,3.535,0,0,1-1.385.291c-1.469,0-2.986-.958-4.636-2.93a47.166,47.166,0,0,1-3.945-5.923h0a33.914,33.914,0,0,0-2.718-4.147,130.138,130.138,0,0,1-9.1-15.259,123.162,123.162,0,0,1-6.9-16.441,111.466,111.466,0,0,1-4.307-17.228c-.483-2.929-.84-5.885-1.062-8.786-.226-2.955-.317-5.928-.271-8.834-.915-.3-1.86-.571-2.86-.857-2.805-.8-5.706-1.635-7.891-3.134a7.979,7.979,0,0,1-2.622-2.826,7.354,7.354,0,0,1-.7-1.934,9.594,9.594,0,0,1-.185-2.36c-.149-2.924-.488-5.656-.817-8.3v0C.487,163.5.115,160.506,0,157.292a.55.55,0,0,1,.157-.42,2.968,2.968,0,0,1,1.993-.448,23.177,23.177,0,0,1,3.188.293l.082.012c-.232-2.588-.365-5.227-.4-7.844-.031-2.573.036-5.193.2-7.789a111.873,111.873,0,0,1,2.06-15.362,125.181,125.181,0,0,1,4.072-14.985,142.379,142.379,0,0,1,5.839-14.5c2.166-4.64,4.642-9.322,7.361-13.917,2.623-4.433,5.529-8.883,8.638-13.225A207.234,207.234,0,0,1,53.319,45.152c1.825-2.01,3.788-4.012,5.836-5.95,2.107-2,4.324-3.943,6.59-5.79A111.247,111.247,0,0,1,80.691,23.1a84.49,84.49,0,0,1,16.475-7.334,63.252,63.252,0,0,1,8.5-2.061,51.717,51.717,0,0,1,8.511-.73,44.543,44.543,0,0,1,6.5.469,2.617,2.617,0,0,1,1.368.525,2.386,2.386,0,0,1,.565.826h0a3.151,3.151,0,0,0,.568.876,3.3,3.3,0,0,0,1.346.778,26.652,26.652,0,0,0,3.6-8.182,10.356,10.356,0,0,1,.7-3.213,6.648,6.648,0,0,1,1.88-2.687A13.922,13.922,0,0,1,135.22.52,23.393,23.393,0,0,1,140.355,0a42.833,42.833,0,0,1,6.165.5c2.038.3,4.037.693,5.724,1.042a33.247,33.247,0,0,1,3.835,1.109,18.931,18.931,0,0,1,3.617,1.72,11.092,11.092,0,0,1,2.887,2.545,8.607,8.607,0,0,1,1.646,3.581.282.282,0,0,1,.051,0c.66,0,1.013,2.391,1.3,4.312a14.064,14.064,0,0,0,.4,2.15c.356,1.566.567,2.742.771,3.878h0c.263,1.464.511,2.847,1.038,4.866a11.4,11.4,0,0,1,3.066,1.339,17.455,17.455,0,0,1,2.726,2.1,52.669,52.669,0,0,1,4.847,5.434c1.037,1.275,2.108,2.592,3.194,3.76a20.085,20.085,0,0,0,3.409,3.023A65.427,65.427,0,0,1,195.348,49.1a51.315,51.315,0,0,1,8.042,9.422A42.666,42.666,0,0,1,210.5,82.246a119.927,119.927,0,0,0,1.251,16.739,122.366,122.366,0,0,0,3.562,16.418c.655,2.75,1.573,5.5,2.544,8.416a76.042,76.042,0,0,1,3.348,12.265,27.284,27.284,0,0,1,.3,6.174,21.376,21.376,0,0,1-.448,3.074,20.115,20.115,0,0,1-.941,3.056,4.87,4.87,0,0,1,.753-.06,4.353,4.353,0,0,1,1.922.442,6.322,6.322,0,0,1,1.621,1.157,21.449,21.449,0,0,1,2.7,3.437h0a15.319,15.319,0,0,0,2.921,3.536,119.481,119.481,0,0,0,13.732,2.785c1.2.141,2.281.2,3.328.247a17.767,17.767,0,0,1,7.441,1.515c1.158.806,1.243,2.256,1.318,3.535.01.162.019.329.031.49,9.8-3.929,20.138-9.5,28.959-14.435l.368-.131h.006c1.02-.362,2.175-.772,3.375-1.095a14.061,14.061,0,0,1,3.613-.554,6.717,6.717,0,0,1,2.062.3,4.669,4.669,0,0,1,1.76,1.021,2.165,2.165,0,0,1,.716,1.518c-.054.565-.575.972-1.233,1.488-.224.175-.455.356-.691.562-.778.676-1.649,1.441-2.492,2.182l-.008.007c-2.161,1.9-4.61,4.05-6.578,5.662,3.455.283,7.084.432,10.493.432,2.468,0,4.85-.077,7.079-.227,2.413-.163,4.667-.416,6.7-.75.51-.081,1.041-.217,1.553-.348a10.708,10.708,0,0,1,2.588-.443,3.906,3.906,0,0,1,1.36.227A4.8,4.8,0,0,1,316.949,162a1.751,1.751,0,0,1,.429,1.126c-.01.86-.729,1.783-2.2,2.823a36.892,36.892,0,0,1-4.23,2.428h0c-.739.382-1.436.742-1.951,1.049,2.753-.225,6.484-.6,8.7-.969a1.971,1.971,0,0,1,.324-.028,1.365,1.365,0,0,1,1.405,1.319,3.209,3.209,0,0,1-.638,1.991,5.36,5.36,0,0,1-1.7,1.425,23.491,23.491,0,0,1-4.912,1.828,19.954,19.954,0,0,0-3.687,1.317,16.435,16.435,0,0,1,3.528-.44,6.332,6.332,0,0,1,2.4.388,2.171,2.171,0,0,1,1.377,1.475,3.262,3.262,0,0,1,.041,1.466,1.748,1.748,0,0,1-.55.916,5.636,5.636,0,0,1-2.184.945c-.421.12-.855.245-1.274.4a116.861,116.861,0,0,1-18.351,4.4,122.671,122.671,0,0,1-33.3.611,17.6,17.6,0,0,1-2.5,5.29,48.955,48.955,0,0,1-4.718,6.09,47.3,47.3,0,0,1-5.59,5.325,24.569,24.569,0,0,1-2.7,1.887,11.015,11.015,0,0,1-2.418,1.109,11.231,11.231,0,0,1-2.66.307,20.354,20.354,0,0,1-6.829-1.4c-2.3-.828-4.554-1.9-6.735-2.936-1.478-.7-2.875-1.366-4.191-1.908a79.784,79.784,0,0,1-11.266-6.846,75.185,75.185,0,0,1-10.191-8.875,60.581,60.581,0,0,1-8.14-10.575,45.843,45.843,0,0,1-5.113-11.948c-.694,4.9-1.492,10.684-2.14,16.39-.671,5.91-1.117,11.166-1.364,16.068-.286,5.674-.311,10.916-.078,16.027.124,2.728.327,5.448.6,8.086.287,2.746.662,5.5,1.115,8.182.648,3.834,2.235,9.477,3.636,14.455.8,2.838,1.553,5.518,2.075,7.647a.157.157,0,0,1,.022-.112.044.044,0,0,1,.034-.014c.288,0,1.659,2.026,2.984,3.986h0c.847,1.253,1.723,2.547,2.287,3.268a9.755,9.755,0,0,1,2.882,8.4,12.886,12.886,0,0,1-1.5,4.256,20.975,20.975,0,0,1-2.855,3.941,32.119,32.119,0,0,1-7.7,6.135c1.473,2.354,2.9,4.793,4.237,7.249,1.309,2.4,2.574,4.9,3.758,7.406,1.156,2.451,2.271,4.992,3.311,7.552,1.014,2.5,1.989,5.081,2.9,7.687,1.737,4.987,3.309,10.282,4.675,15.739,1.276,5.1,2.419,10.534,3.4,16.154.912,5.234,1.689,10.626,2.376,16.484.613,5.22,1.139,10.692,1.61,16.731.875,11.22,1.418,22.73,1.942,33.862v.017c.422,8.942.858,18.188,1.463,27.219.326,4.863.674,9.28,1.063,13.5.437,4.739.915,9.111,1.461,13.365.586,4.569,1.256,9.005,1.992,13.185.787,4.472,1.68,8.833,2.655,12.961,1.031,4.367,2.192,8.638,3.451,12.694,1.32,4.254,2.794,8.42,4.38,12.382a26.058,26.058,0,0,0,1.17,2.825v0a33.059,33.059,0,0,1,1.675,4.167,5.483,5.483,0,0,1,.114,3.685,2.612,2.612,0,0,1-.7.942,3.594,3.594,0,0,1-1.216.663c-.528,1.168-1.878,2.15-4.128,3a47.767,47.767,0,0,1-6.182,1.7h0c-1.224.277-2.281.517-3.095.769.52,1.477,1.045,3.121,1.6,4.863v0c1.429,4.484,3.05,9.566,5.083,13.154l.08-.035h0c.209-.093.763-.342,1.456-.593a8.721,8.721,0,0,1,2.777-.628,1.471,1.471,0,0,1,1.118.364,1.128,1.128,0,0,1,.241.893c1.194.7,3.786,2.079,6.788,3.679,5.678,3.028,12.744,6.8,12.819,7.274a.034.034,0,0,1-.009.031c3.1,1.051,6.374,1.95,9.544,2.818h0A114.142,114.142,0,0,1,275,566.989a42.1,42.1,0,0,1,6.416,3.323,32.742,32.742,0,0,1,2.936,2.112,29.766,29.766,0,0,1,2.71,2.482c.151.168.306.338.471.517a15.743,15.743,0,0,1,2.233,2.848,3.57,3.57,0,0,1,.348,3.269,4.812,4.812,0,0,1,1.735,1.247,6.343,6.343,0,0,1,1.159,1.883,7.189,7.189,0,0,1,.32,4.452,5.642,5.642,0,0,1-1.574,2.423,11.563,11.563,0,0,1-2.94,1.94,25.549,25.549,0,0,1-4.1,1.506,50.255,50.255,0,0,1-5.064,1.121C273.3,597.207,264.864,597.739,253.852,597.739ZM36.519,189.174h0a8.714,8.714,0,0,1-2.308.505h0c-.467.069-.87.128-1.055.178a37.155,37.155,0,0,0,.773,4.331,43.908,43.908,0,0,0,1.252,4.242,60.2,60.2,0,0,0,3.638,8.226,164.4,164.4,0,0,0,9.707,15.5c1.93,2.84,3.753,5.523,5.427,8.2a36.592,36.592,0,0,1-.741-5.775c-.159-2.24-.237-4.485-.257-5.84-.014-3.705.15-7.467.5-11.5.312-3.595.767-7.324,1.39-11.4C56,188.261,57.577,180.6,59.1,173.2c1.29-6.257,2.623-12.727,3.7-19.122.578-3.442,1.037-6.587,1.4-9.616.411-3.4.7-6.568.869-9.681a97.557,97.557,0,0,0-.478-19.824c-1.93,5.277-3.984,10.527-6.1,15.6-2.164,5.183-4.46,10.335-6.824,15.314-1.073,1.954-2.039,4.062-2.973,6.1v0c-.958,2.09-1.948,4.251-3.067,6.279a30.092,30.092,0,0,1-3.916,5.663,28.522,28.522,0,0,1,3.232.362c1.186.205,2.622.559,2.722,1.079.055.285-.3.592-1.041.914a58.356,58.356,0,0,1-3.259,8.6,63.47,63.47,0,0,0-3.063,7.893,17.169,17.169,0,0,0-.264,2.145,14.311,14.311,0,0,1-.485,3.131,2.62,2.62,0,0,1-.616,1.076,1.466,1.466,0,0,1-1.057.415,3.332,3.332,0,0,1-1.361-.359Z" transform="translate(31.349 -4.503)" fill="#d08b5b"/>
      <path id="_Pants" data-name="ðŸ‘– Pants" d="M74.484,0l3.094,2.1,1.1.741c7.134,4.811,13.258,8.668,19.312,12.07l.615.344.615.341a129.8,129.8,0,0,0,23.965,10.564c17.955,5.6,34.1,4.771,48.712-3.776l.442-.261.7-.415.6,1.374.566,1.307c3.108,7.2,5.358,12.832,7.294,18.406l.086.25.163.473c5.63,15.586,9.335,32.294,11.733,51.437l.16,1.294c1.646,13.471,2.505,25.832,3.552,47.862l.1,2.139.484,10.417c.418,8.838.706,14.3,1.069,19.925l.092,1.412.151,2.24.077,1.1c.7,9.858,1.551,18.618,2.667,26.944l.149,1.095c2.839,20.647,7.345,38.532,14.3,55.1l.211.5.205.484-.4.338a1,1,0,0,0-.317.659l0,.053-.02.625-.624.06a27.578,27.578,0,0,0-5.5,1.24l-1.471.445-.567.169c-1.443.427-2.368.668-3.341.858l-.183.035-.309.056-.566.13-.573.128c-9.274,2.05-18.877,2.842-32.3,3.026l-.993.012-.108-.044-.009,0-.037-.006a2.146,2.146,0,0,0-.377.008l-.11.009-.986.092-.256-1c-.611-2.35-1.238-4.5-2.291-7.908l-.187-.6-1.286-4.124a130.138,130.138,0,0,1-3.861-14.345l-.078-.4-.082-.434,0-.025c-2.139-14.258-3.894-27.747-5.562-42.285l-.219-1.926c-.532-4.72-1.471-13.417-2.266-20.828l-1.382-12.938-.108-.983c-2.9-26.277-5.411-41-10.157-56.38a188.753,188.753,0,0,0-15.173-35.371l-.249-.454-.083-.15-.218.177a22.69,22.69,0,0,0-3.691,3.4l-.014.024-.369.7-.312.584-1.87,3.457c-.2.364-.366.683-.524.982l-.291.555-.417.808-.3.591-.207.41-.234.468-.486.726-.216.325-.411.621-.2.314c-3.172,4.93-5.655,10.241-8.924,18.639l-.422,1.089-.669,1.751-2,5.288-.962,2.528-.461,1.2c-.451,1.166-.875,2.246-1.294,3.294l-.209.521-.342.845-.534,1.31-.372.916c-4.278,10.567-8.7,22.267-13.431,35.447l-.907,2.532-.66,1.851c-2.643,7.429-5.338,15.177-8.456,24.281l-.789,2.3L73.3,194.507l-7.839,23.036-1.3,3.818-1.169,3.407-.339.73-.331.707a135.525,135.525,0,0,1-11.862,21.045l-.148.208-.084.154-.078.136a11.447,11.447,0,0,1-1.242,1.654l-.082.1-.666.767-.15.176c-1.117,1.324-1.525,2.051-1.578,2.942l-.015.339-1.166,1.142-.46-.24-.1-.051a17.858,17.858,0,0,0-5.022-1.083l-.294-.036-.681-.081-2.212-.25a25.164,25.164,0,0,1-3.89-.639l-.105-.032-.108-.034-.337-.066A103.389,103.389,0,0,1,1.242,240.9l-.336-.192-.336-.193L0,240.186l.608-1.27q2.432-5.092,4.923-10.559C16.11,205.142,27.123,177.841,40.3,142.836l.4-1.063,1.012-2.695.827-2.214c6.688-17.945,24.013-65.22,30.147-81.755l1.071-2.879.292-.781L78.572,40.3l.272-.66c.139-.337.285-.686.438-1.054l.4-.965,1.47-3.485.609-1.454c1.17-2.81,1.916-4.7,2.623-6.669l.086-.242.258-.733a16.807,16.807,0,0,0-.189-5.773l-.042-.247-.045-.251a21.381,21.381,0,0,0-3.713-9.092L80.679,9.6l-.023-.02-.677-.985c-1.457-2.128-2.537-3.767-3.536-5.383l-.083-.135Z" transform="translate(47.094 253.532)" fill="#78e185"/>
      <path id="_Shoes" data-name="ðŸ‘Ÿ Shoes" d="M237.555,58.023c-5.412,0-11.285-.1-17.457-.3-5.076-.164-10.344-.393-15.658-.681-9.6-.521-16.261-1.066-17.474-1.2-.736-.067-1.674-.115-2.76-.17a67.116,67.116,0,0,1-9.125-.9,18.935,18.935,0,0,1-4.2-1.252,8.639,8.639,0,0,1-1.63-.951,5.146,5.146,0,0,1-1.176-1.215,3.946,3.946,0,0,1-.663-1.887,5.773,5.773,0,0,1,.364-2.4.209.209,0,0,0,.063.01c.209,0,.4-.343.591-1.05.166-.625.308-1.447.446-2.242a7.817,7.817,0,0,1,.686-2.662L170.1,36.8c1.53-12.288,2.439-18.994,2.7-19.932.056-.088.131-.2.218-.314a3.475,3.475,0,0,1,1.553-1.118,5.4,5.4,0,0,1,1.909-.32c.14,0,.284,0,.427.013.1.006.215.019.349.039a3.443,3.443,0,0,1,.558.361l.149.02h.01l.066.01a.672.672,0,0,1,.14.039c.034-.055.063-.116.092-.175l.006-.013c.2.06.4.126.592.19a8.117,8.117,0,0,0,2.051.485l.623.274.806.359,2.328,1.045.52.231a39.084,39.084,0,0,0,14.545,3.378,21.625,21.625,0,0,0,2.912-.19,14.214,14.214,0,0,0,3.984-1.2,22.361,22.361,0,0,0,3.581-2.1,46.686,46.686,0,0,0,5.431-4.686c.565-.547,1.052-1.019,1.419-1.329a13.332,13.332,0,0,1,2.408-1.627A11.66,11.66,0,0,0,222.1,8.4a57.442,57.442,0,0,0,6.379,4.7,116.5,116.5,0,0,0,13.837,7.856,91.425,91.425,0,0,0,11.127,4.131A98.676,98.676,0,0,1,264.17,29.01a59.638,59.638,0,0,1,10.046,5.932,68.453,68.453,0,0,1,7.229,6.046L285.271,51.2c-.14.89-1.252,1.736-3.307,2.515a45.17,45.17,0,0,1-8.062,1.97,193.534,193.534,0,0,1-24.476,2.158C245.763,57.961,241.769,58.023,237.555,58.023Zm-167.22-11.4c-12.445,0-24.488-.375-35.8-1.114C22.2,44.706,10.682,43.46.319,41.809c-.312-.09-.409-3.744-.231-8.688.094-2.615.257-5.364.47-7.951.246-2.978.549-5.653.9-7.951l.046-.3c.567-3.6,1.17-6.3,1.576-7.937.447-1.8.775-2.8.818-2.895l.085-.142a8.228,8.228,0,0,1,2.45-2.432A7.675,7.675,0,0,1,8.061,2.7a5.042,5.042,0,0,1,1.68-.313,3.261,3.261,0,0,1,1.855.542l.023.019.458.413A49,49,0,0,0,18.3,8.116a27.968,27.968,0,0,0,4.6,2.409,13.013,13.013,0,0,0,4.729,1.036,7.358,7.358,0,0,0,2.117-.3A18.479,18.479,0,0,0,34.28,8.789l.009-.006c.349-.236.71-.479,1.068-.712,1.013-.653,1.948-1.279,2.852-1.885A43.362,43.362,0,0,1,48.914.434,11.422,11.422,0,0,1,51.26,1.768a29.841,29.841,0,0,1,3.734,3c.818.781,1.571,1.62,2.368,2.509a33.42,33.42,0,0,0,5.417,5.142c2.33,1.694,7.658,4.08,13.828,6.843,7.379,3.305,15.743,7.051,21.547,10.745a14.064,14.064,0,0,1,3.755,3.843,33.922,33.922,0,0,1,2.868,5.058,45.069,45.069,0,0,1,2.538,6.655C95,46.269,82.556,46.627,70.336,46.627ZM51.164.956A7.772,7.772,0,0,0,49.456.183c.13-.048.26-.1.386-.163L49.885,0a12.216,12.216,0,0,1,1.28.956Z" transform="translate(40.529 534.126)" fill="#fff"/>
      <path id="_Ink" data-name="ðŸ– Ink" d="M255.253,594.677h0c-6.7,0-13.424-.183-19.12-.362l-2.79-.089-.254-.008h0c-4.384-.142-8.171-.264-10.8-.264-.555,0-1.053.005-1.481.016-2.833-.361-6.907-.462-11.625-.58a180.269,180.269,0,0,1-19.649-1.2c-1.6-.225-3.081-.491-4.4-.789a30.473,30.473,0,0,1-3.826-1.109,15.736,15.736,0,0,1-3.069-1.491,7.974,7.974,0,0,1-2.126-1.936,4.8,4.8,0,0,1-1.071-2.183,5.736,5.736,0,0,1,.014-2.478,4.779,4.779,0,0,1,.813-1.8,3.653,3.653,0,0,1,1.529-1.2c-1.321-1.014-.757-3.914-.259-6.472a18.83,18.83,0,0,0,.447-3.083c.189-1.295,1.563-9.219,2.961-14.57.024-.357.07-.748.145-1.229a10.014,10.014,0,0,1,1.767-4.856,4.76,4.76,0,0,1,1.328-1.138,5.034,5.034,0,0,1,1.613-.591c.285-1.821.537-3.733.769-5.845.148-2.241.209-4.56.183-6.894-.014-1.253-.048-2.392-.1-3.482-.011-.221-.016-.448-.02-.689v0a9.445,9.445,0,0,0-.189-2.049.538.538,0,0,1-.581.148,5.781,5.781,0,0,1-1.051-.531l-.008,0c-.109-.065-.222-.132-.332-.194a.306.306,0,0,1-.033-.023l0,0-.007-.005a1.326,1.326,0,0,1-.722.234c-.68,0-1.355-.609-2.064-1.862a28.247,28.247,0,0,1-1.563-3.544v0c-.279-.722-.521-1.346-.725-1.741-1.115-3.193-2.166-6.531-3.123-9.922-.913-3.231-1.771-6.615-2.55-10.059-1.439-6.356-2.652-13.046-3.709-20.451-.881-6.17-1.665-12.96-2.4-20.759-.654-6.955-1.207-14.046-1.743-20.9v-.007c-.721-9.241-1.467-18.8-2.467-28.119-.539-5.021-1.106-9.576-1.734-13.927-.705-4.885-1.469-9.389-2.335-13.77-.93-4.705-1.985-9.268-3.137-13.563-1.232-4.6-2.624-9.073-4.138-13.306-1.6-4.478-3.4-8.852-5.341-13a137.137,137.137,0,0,0-6.744-12.644c-3.738,8.011-7.041,15.449-10.539,23.323v0c-.988,2.226-2.01,4.527-3.053,6.864-4.746,10.642-10.272,24.866-16.892,43.486-5.783,16.265-11.677,33.848-16.877,49.362-3.807,11.357-7.4,22.084-10.573,31.174-1.677,3.613-3.474,7.088-5.34,10.328a110.736,110.736,0,0,1-6.312,9.764,18.275,18.275,0,0,0-1.288,1.723l0,0a8.177,8.177,0,0,1-3.253,3.237l-.185.028c-.687,1.282-1.489,1.906-2.449,1.906h-.057a6.138,6.138,0,0,1-.869-.09c-1.142,7.93-2.465,14.926-4.046,21.389a8.873,8.873,0,0,1,3.322-.871c.128,0,.255.006.378.016,1.057.267,1.66.812,1.7,1.535a2.009,2.009,0,0,1-.569,1.384,3.893,3.893,0,0,1-1.579,1.049,8.945,8.945,0,0,1,2.978,1.67,28.973,28.973,0,0,1,2.529,2.42c.381.4.775.8,1.173,1.194a10.079,10.079,0,0,1,4.812-1.259c.311,0,.626.016.938.046a1.093,1.093,0,0,1,.728.36,2.225,2.225,0,0,1,.344.026l-.123.074-.1.062a1.111,1.111,0,0,1,.03,1.1.96.96,0,0,1-.876.469,12.327,12.327,0,0,0-2.163.2c-.431.252-.939.552-1.439.865a50.718,50.718,0,0,0,5.058,3.9,18.685,18.685,0,0,1,2.925-1.187,1.118,1.118,0,0,1,.332-.053.9.9,0,0,1,.664.288,1.194,1.194,0,0,1,.31.656,1.011,1.011,0,0,1-.738,1.166c-.264.076-.537.162-.834.265-.167.1-.321.194-.469.281a31.511,31.511,0,0,0,3.593,2.189c1.184.624,2.463,1.22,3.909,1.822,2.687,1.119,5.561,2.09,8.341,3.03h0c2.47.835,5.024,1.7,7.436,2.661a44,44,0,0,1,6.837,3.346,23.814,23.814,0,0,1,5.643,4.717,20.1,20.1,0,0,1,2.188,3.087,21.316,21.316,0,0,1,1.667,3.688,1.91,1.91,0,0,1-.175,1.605,5.075,5.075,0,0,1,1.344,2.224,5.523,5.523,0,0,1,.2,2.549,3.08,3.08,0,0,1-.092,1.8,1.759,1.759,0,0,1-1.35,1.023c-4.638.432-9.256.78-13.723,1.037-4.623.265-9.251.441-13.753.523-.661.006-1.8.014-3.463.014-5.725,0-25.834-.1-44.257-1.435a190.25,190.25,0,0,1-22.368-2.667,39.755,39.755,0,0,1-7.388-2.076,10.275,10.275,0,0,1-2.263-1.255,3.175,3.175,0,0,1-1.126-1.412c-.778-1.577-1-4,.119-5.385a3.993,3.993,0,0,1,.847-1.969,4.724,4.724,0,0,1-1.107-2.864,25.637,25.637,0,0,1-.056-3.623,21.434,21.434,0,0,0-.007-2.479c.108-2.113.3-4.137.563-6.017a49.8,49.8,0,0,1,1.206-5.99,36.81,36.81,0,0,1,2.04-5.719,28.542,28.542,0,0,1,3.065-5.207.558.558,0,0,1,.274-.2,4.9,4.9,0,0,1,3.236-1.461l.011-.027c.035-.087.073-.18.108-.27.935-2.2,1.822-4.429,2.865-7.094.655-2.559,1.329-5.091,2.141-8.106.716-2.657,1.431-5.373,2.126-8.074.111-.431.216-.863.327-1.321v0a28.782,28.782,0,0,1,1.654-5.3l-.014-.049c-.021-.073-.042-.144-.065-.214-3.282-1.322-6.726-2.755-9.678-4.28a29,29,0,0,1-4.1-2.479,5.224,5.224,0,0,1-2.039-2.388,1.422,1.422,0,0,1,.262-1.3c14.317-29.714,28.5-67,42.212-103.063l0-.005c4.623-12.157,9.4-24.728,14.031-36.572C73.516,340.264,78,329.2,82.054,319.7c.381-1.122.746-2.114,1.115-3.035,1.205-3.008,2.41-5.96,3.581-8.774l3.188-7.662,3.188-7.662,2.229-5.357,1.05-2.523c.259-.622.531-1.254.794-1.865l.01-.024c.763-1.773,1.552-3.606,2.143-5.465a10.853,10.853,0,0,0,.592-3.593A6.692,6.692,0,0,0,99.667,272a6.438,6.438,0,0,0-.8-1.685,27.214,27.214,0,0,0-2.717-3.283v0l0,0c-.64-.7-1.3-1.416-1.894-2.16a46.324,46.324,0,0,1-3.168-4.462,30.322,30.322,0,0,1-1.8-2.776l-.006-.011c-.163-.273-.317-.53-.469-.777-.223-.363-.454-.727-.7-1.112l0,0a26.34,26.34,0,0,1-2.46-4.488c-1.087-.684-2.058-1.29-2.969-1.852-1.892-1.06-3.542-2.058-5.043-3.052-2.13-1.265-4.238-2.485-6.264-3.624-.729-.361-1.474-.729-2.28-1.125-.076.007-.158.01-.243.01a8.87,8.87,0,0,1-2.381-.448,26.947,26.947,0,0,1-3-1.122,21.775,21.775,0,0,1-5.1-2.946c-.236-.047-.475-.1-.732-.166a5.432,5.432,0,0,1-.4,1.711,3.938,3.938,0,0,1-1.019,1.413,4.124,4.124,0,0,1-1.845.435,7.337,7.337,0,0,1-4.4-1.882,25.016,25.016,0,0,1-4.186-4.453,52.369,52.369,0,0,1-3.467-5.232c-.844-1.444-1.662-2.981-2.242-4.219-.994.97-1.273,2.9-.829,5.721a32.4,32.4,0,0,0,1,4.217c.428,1.424.969,2.973,1.607,4.606a92.826,92.826,0,0,0,4.031,8.832,42.784,42.784,0,0,0,3.444,5.747c.136.2.269.4.41.614l0,.006a13.533,13.533,0,0,0,2.955,3.526,1.757,1.757,0,0,1,.748,1.184,1.668,1.668,0,0,1-.43,1.279,5.7,5.7,0,0,1-1.614,1.052,4.2,4.2,0,0,1-1.614.326,5.591,5.591,0,0,1-2.813-.862,13.312,13.312,0,0,1-2.688-2.182,49.3,49.3,0,0,1-4.681-5.883l0,0c-.785-1.1-1.464-2.047-2.057-2.754a133.115,133.115,0,0,1-9.1-15.543,126.76,126.76,0,0,1-6.9-16.746,115.27,115.27,0,0,1-4.307-17.548c-.483-2.983-.84-5.994-1.062-8.949-.226-3.01-.317-6.038-.271-9-.912-.3-1.857-.581-2.858-.873h0c-2.805-.819-5.706-1.665-7.89-3.192a8.073,8.073,0,0,1-2.622-2.878,7.58,7.58,0,0,1-.7-1.97,9.95,9.95,0,0,1-.185-2.4c-.148-2.956-.484-5.947-.81-8.839v0c-.362-3.219-.737-6.548-.853-9.841a.567.567,0,0,1,.162-.432,2.949,2.949,0,0,1,1.989-.452,22.8,22.8,0,0,1,3.187.3l.084.013a89.778,89.778,0,0,1-.446-10.8,104.606,104.606,0,0,1,.77-10.791c.424-3.466,1.03-7.061,1.8-10.686.724-3.406,1.614-6.934,2.646-10.487a121.433,121.433,0,0,1,5.42-14.4c2.306-5.2,5.033-10.582,8.1-16.011,3.174-5.61,6.672-11.183,10.4-16.565,3.909-5.649,8.046-11.055,12.3-16.068a169.1,169.1,0,0,1,13.8-14.52A121.308,121.308,0,0,1,75.127,19.5c10.921-7.31,21.554-11.291,31.6-11.832a.14.14,0,0,1-.008-.121.12.12,0,0,1,.084-.067,15.962,15.962,0,0,1,3.9-.4c.683,0,1.364.022,2.023.043l.128,0c.37.012.749.022,1.115.032l.076,0c1.656.044,3.368.09,5.028.279a11.865,11.865,0,0,1,3.169.8A7.441,7.441,0,0,1,124.89,10l.212-.381a26.26,26.26,0,0,0,1.832-3.757,17.81,17.81,0,0,0,.529-1.792c.044-.224.08-.454.115-.675a6.055,6.055,0,0,1,.51-1.886.36.36,0,0,1,.022-.035l0,0,.013-.019A11.544,11.544,0,0,1,128.653,0c.252.1.436.473.548,1.1a.87.87,0,0,1,.618.631,6.064,6.064,0,0,1-.178,2.626l0,.021c-.026.119-.052.243-.077.363a27.656,27.656,0,0,1-.7,2.733,22.764,22.764,0,0,1-1.326,4.781,6.143,6.143,0,0,1-.907,1.56,1.412,1.412,0,0,1-1.027.589.966.966,0,0,1-.347-.067,171.363,171.363,0,0,0,14.37,22.46,62.944,62.944,0,0,0,10.061,10.615,25.077,25.077,0,0,0,5.209,3.279,14.76,14.76,0,0,0,2.582.9,10.886,10.886,0,0,0,2.54.314,9.174,9.174,0,0,0,2.728-.41,10.381,10.381,0,0,0,2.609-1.5,10.259,10.259,0,0,0,1.944-2.052,12.567,12.567,0,0,0,1.369-2.48,17.3,17.3,0,0,0,.881-2.788,40.241,40.241,0,0,0,.427-11.825,1.973,1.973,0,0,1-1.025.324,2.282,2.282,0,0,1-1.795-1.217,17.105,17.105,0,0,1-2.032-5.835,67.938,67.938,0,0,1-1.087-8.168c-.208-2.663-.3-5.4-.267-7.7a17.19,17.19,0,0,1,.429-4.427.25.25,0,0,1,.147-.055c.255,0,.495.5.732,1.522.2.882.372,2,.52,2.982v0a14.848,14.848,0,0,0,.381,2.063c.585,2.611,1.281,5.241,1.954,7.784v0c.212.8.452,1.707.679,2.58a14.281,14.281,0,0,1,5.277,2.212l.094.052h0c.044.024.089.049.132.075a9.086,9.086,0,0,1,2.357,2.133,20.723,20.723,0,0,1,1.993,2.692c.782.887,1.555,1.808,2.3,2.7l0,.006.012.014c.517.617,1.052,1.254,1.585,1.875.6.7,1.245,1.411,1.907,2.107l.136.115.015.013c.2.165.4.336.6.5a65.519,65.519,0,0,1,10.316,7.893,52.036,52.036,0,0,1,8.042,9.6,44.033,44.033,0,0,1,7.107,24.159A124.365,124.365,0,0,0,211.741,93.9a126.639,126.639,0,0,0,3.562,16.723,75.006,75.006,0,0,0,3.331,9.855,67.2,67.2,0,0,1,3.692,11.423,23.8,23.8,0,0,1,.446,5.776,19.037,19.037,0,0,1-.376,2.9,18.459,18.459,0,0,1-.87,2.915,5.194,5.194,0,0,1,.816-.068,3.819,3.819,0,0,1,1.694.374,4.5,4.5,0,0,1,1.313.987,15,15,0,0,1,2,3.01,11.737,11.737,0,0,0,2.668,3.645,119.006,119.006,0,0,0,13.731,3.078c1.244.149,2.517.2,3.865.258,3.012.125,6.127.254,8.8,1.537.993.7.965,1.843.937,2.944-.009.348-.018.708.007,1.043a120.626,120.626,0,0,0,11.288-5.382c3.662-1.959,7.312-4.08,10.842-6.131,1.743-1.013,3.546-2.06,5.334-3.079.91-.328,2.295-.807,3.807-1.188a18.346,18.346,0,0,1,4.38-.627,8.138,8.138,0,0,1,2.319.3,4.583,4.583,0,0,1,1.865,1.04,2.6,2.6,0,0,1,.654,1.376,2.349,2.349,0,0,1-.237,1.279,7.526,7.526,0,0,1-1.862,2.187c-1.688,1.494-3.468,2.932-5.189,4.323-1.024.828-2.083,1.684-3.113,2.544,2.13.178,4.334.268,6.55.268,2.61,0,5.323-.125,8.063-.372,2.591-.234,5.288-.583,8.015-1.04.375-.061.758-.138,1.162-.22h0a14.641,14.641,0,0,1,2.847-.385,4.809,4.809,0,0,1,1.7.276,5.742,5.742,0,0,1,1.741,1.38,2.323,2.323,0,0,1,.537,1.4,2.93,2.93,0,0,1-.586,1.682,8.217,8.217,0,0,1-1.5,1.586,30.257,30.257,0,0,1-3.832,2.6h0l-.378.228c2.4-.2,4.794-.5,7.106-.9a1.937,1.937,0,0,1,.324-.028,1.376,1.376,0,0,1,1.406,1.343,3.9,3.9,0,0,1-.5,2.051,4.458,4.458,0,0,1-1.353,1.424,16.139,16.139,0,0,1-4.03,1.77,18.511,18.511,0,0,0-3.063,1.229,12.316,12.316,0,0,1,2.76-.4,3.751,3.751,0,0,1,1.859.409,2.37,2.37,0,0,1,1.127,1.558,2.677,2.677,0,0,1-.221,1.83,4,4,0,0,1-1.237,1.358,15.025,15.025,0,0,1-3.561,1.7c-.189.07-.385.143-.566.213a115.059,115.059,0,0,1-18.351,4.48,120.439,120.439,0,0,1-33.3.623,18.078,18.078,0,0,1-2.5,5.388,49.771,49.771,0,0,1-4.718,6.2,47.677,47.677,0,0,1-5.59,5.424,24.545,24.545,0,0,1-2.7,1.922,8.38,8.38,0,0,1-5.077,1.442,20.029,20.029,0,0,1-6.829-1.425c-2.3-.844-4.554-1.935-6.735-2.99l-.007,0c-1.476-.714-2.871-1.389-4.185-1.94a84.375,84.375,0,0,1-11.13-6.762,71.2,71.2,0,0,1-9.894-8.575,56.576,56.576,0,0,1-7.843-10.307,48.363,48.363,0,0,1-2.9-5.778,44.974,44.974,0,0,1-2.08-6.181c-.9,6.5-1.51,13.162-1.8,19.809-.287,6.514-.279,13.178.023,19.809.3,6.5.882,13.139,1.743,19.729.844,6.463,1.974,13.047,3.357,19.57,1.025,2.327,1.944,4.22,2.89,5.956a.754.754,0,0,1,.653.7c.029.207.071.427.134.693.574.974,1.189,1.943,1.783,2.881l.005.008c.494.779,1,1.584,1.492,2.392.252.418.462.79.64,1.138a11,11,0,0,1,2.326,4.362,10.7,10.7,0,0,1,.154,4.523,15.28,15.28,0,0,1-1.555,4.447,22.9,22.9,0,0,1-2.8,4.124,29.3,29.3,0,0,1-7.467,6.309c1.474,2.4,2.9,4.876,4.237,7.367,1.309,2.437,2.573,4.957,3.757,7.49a161.346,161.346,0,0,1,6.2,15.319c1.735,5,3.305,10.284,4.667,15.716,1.273,5.078,2.413,10.478,3.388,16.049.908,5.188,1.681,10.526,2.364,16.317.608,5.159,1.131,10.563,1.6,16.521.866,11.068,1.4,22.417,1.914,33.393v0c.415,8.825.843,17.95,1.443,26.886.323,4.813.667,9.186,1.054,13.37.434,4.7.909,9.04,1.453,13.275.584,4.547,1.252,8.971,1.985,13.147.784,4.468,1.676,8.837,2.65,12.985,1.03,4.388,2.19,8.691,3.447,12.79,1.32,4.3,2.793,8.528,4.378,12.561.154.516.37,1.134.6,1.788v0c.994,2.844,2.355,6.738,1.192,9.123a3.3,3.3,0,0,1-.81,1.059,3.938,3.938,0,0,1-1.316.732c-.509,1.148-1.732,2.064-3.74,2.8a39.179,39.179,0,0,1-5.661,1.417h0c-1.3.259-2.535.5-3.448.791,1.09,3.154,2.058,5.725,3.046,8.092a76.635,76.635,0,0,0,3.741,7.793l.048.021h0a6.517,6.517,0,0,1,1.522-.794,5.245,5.245,0,0,1,1.772-.365,1.763,1.763,0,0,1,1.216.383,2.234,2.234,0,0,1,.716.214,12.563,12.563,0,0,1,2.4,1.725,16.491,16.491,0,0,0,1.838,1.41,22.6,22.6,0,0,0,2.469,1.339c.195.09.4.174.59.255a5.435,5.435,0,0,1,1.687.956.666.666,0,0,1,.205.655c.631.327,1.1.573,1.526.8,2.611-1.642,4.668-2.7,5.239-2.7.087,0,.141.025.158.073.108.3-1.121,1.516-3.554,3.515,2.063.953,4.335,1.877,7.15,2.908a14.909,14.909,0,0,1,5.807-1.611.156.156,0,0,1,.031.122c-.05.388-1.122,1.18-1.984,1.816h0a9.9,9.9,0,0,0-.912.716c1.77.612,3.6,1.217,5.372,1.8l.014,0a140.615,140.615,0,0,1,15.862,5.954,53.269,53.269,0,0,1,7.3,4.114,41.429,41.429,0,0,1,3.351,2.53,37.253,37.253,0,0,1,3.1,2.917c.154.175.322.361.47.525a16.007,16.007,0,0,1,2.234,2.9,3.7,3.7,0,0,1,.349,3.331,4.814,4.814,0,0,1,1.735,1.27,6.48,6.48,0,0,1,1.159,1.918,7.448,7.448,0,0,1,.319,4.534,5.587,5.587,0,0,1-1.625,2.468,12.028,12.028,0,0,1-3.085,1.976,27.385,27.385,0,0,1-4.326,1.534,54.61,54.61,0,0,1-5.348,1.142,120.228,120.228,0,0,1-12.888,1.31C265.335,594.564,260.641,594.677,255.253,594.677Zm-76.838-14.911h0a5.772,5.772,0,0,0-.364,2.4,3.948,3.948,0,0,0,.663,1.887,5.147,5.147,0,0,0,1.176,1.214,8.644,8.644,0,0,0,1.63.951,18.935,18.935,0,0,0,4.2,1.252,67.1,67.1,0,0,0,9.124.9h0c1.085.055,2.022.1,2.759.17,1.421.151,8.594.574,17.844.942,8.3.33,20.853.724,33.561.725h0c12.346,0,22.275-.372,29.51-1.106a60.556,60.556,0,0,0,9.883-1.65,13.047,13.047,0,0,0,2.977-1.177,2.873,2.873,0,0,0,1.384-1.442,1.727,1.727,0,0,0-.244-1.464,6.321,6.321,0,0,0-1.708-1.69c-4.807,1.83-12.43,3.358-22.045,4.421-4.6.508-9.569.9-14.77,1.167s-10.552.4-15.9.4a254,254,0,0,1-33.586-2.031,112.127,112.127,0,0,1-13.67-2.642,40.07,40.07,0,0,1-9.824-3.817,2.578,2.578,0,0,1-1.812.713,2.622,2.622,0,0,1-.791-.12Zm9.18-28.874a5.4,5.4,0,0,0-1.909.32,3.477,3.477,0,0,0-1.553,1.118c-.068.087-.135.184-.218.314a12.083,12.083,0,0,0-.286,4.8,1.2,1.2,0,0,1-.418,1.106c-.187,4.5-.6,9.075-1,13.5-.182,2.019-.37,4.105-.533,6.146a46.024,46.024,0,0,0,7.96,2.083c7.726.949,15.432,1.675,22.9,2.158,7.766.5,15.5.757,23,.757h.007c3.364,0,6.752-.052,10.067-.153,5.592-.2,11.2-.556,16.664-1.054,5.574-.507,11.151-1.177,16.578-1.99,1.241-.117,2.514-.364,3.745-.6a27.977,27.977,0,0,1,5.249-.681,11.324,11.324,0,0,1,1.764.13,1.626,1.626,0,0,1,.716-.7,34.2,34.2,0,0,0-2.929-3.487,36.665,36.665,0,0,0-3.268-3.006,46.029,46.029,0,0,0-7.348-4.839,123,123,0,0,0-16.507-6.885h0c-2.724-.984-5.54-2-8.227-3.083a13.2,13.2,0,0,0-2.568,2.412,20.379,20.379,0,0,1-1.643,1.7,5.885,5.885,0,0,1-1.912,1.188,2.076,2.076,0,0,1-.306.022,2.112,2.112,0,0,1-1.547-.625,1.309,1.309,0,0,1-.324-1.052c.307-1.919,1.953-3.035,3.545-4.114.5-.341.978-.663,1.413-1.01-2.088-.974-3.978-1.963-5.778-3.023-.8.722-1.682,1.379-2.532,2.015a27.1,27.1,0,0,0-3.235,2.69,1.283,1.283,0,0,1,0,1.223,1.21,1.21,0,0,1-1.039.459,2.23,2.23,0,0,1-1.405-.516,1.975,1.975,0,0,1-.718-1.528,3.629,3.629,0,0,1,1.5-2.413,18.1,18.1,0,0,1,2.845-1.768h0a15.806,15.806,0,0,0,2.418-1.485,38.772,38.772,0,0,1-4.454-3.179c-1.311-1.073-2.634-2.274-4.046-3.67a11.654,11.654,0,0,1-2.621,1.843h0a13.327,13.327,0,0,0-2.408,1.627c-1.1.932-2.169,1.98-3.2,2.994h0a40.654,40.654,0,0,1-4.676,4.151,15.324,15.324,0,0,1-2.658,1.551,12.019,12.019,0,0,1-3.039.917,18.805,18.805,0,0,1-3.435.314,21.564,21.564,0,0,1-4.051-.4,30.547,30.547,0,0,1-3.946-1.043,81.637,81.637,0,0,1-7.675-3.144l-.005,0h0c-.823-.37-1.674-.753-2.509-1.117a8.113,8.113,0,0,1-2.053-.485l-.026-.009c-.185-.061-.376-.123-.564-.18l0,0c-.028.058-.06.124-.1.182a.667.667,0,0,0-.14-.039c-.048-.008-.094-.014-.139-.02l-.012,0-.074-.01a3.451,3.451,0,0,0-.559-.362c-.135-.02-.246-.033-.349-.039C187.878,550.9,187.735,550.893,187.595,550.893ZM12.028,568.849h0a1.363,1.363,0,0,1-.55.562c-.381.22-.291,1.225-.237,1.826.012.136.023.254.025.334.024.805.073,1.631.151,2.523a7.293,7.293,0,0,0,2.847,1.537c5.343.851,10.861,1.6,16.4,2.225,5.367.605,10.911,1.112,16.479,1.507,5.377.381,10.939.669,16.531.856,5.382.179,10.953.27,16.559.27,5.654,0,11.524-.093,17.447-.275,5.631-.174,11.491-.434,17.42-.773a4.988,4.988,0,0,0-1.181-2.109l0,0-.2-.257c-5.8.492-11.814.731-18.4.731-6.624,0-13.888-.251-22.21-.767-7.4-.459-14.89-1.078-22.13-1.676l-1.561-.129c-2.81-.369-5.695-.694-8.485-1.008-4.823-.544-9.809-1.106-14.66-1.916-2.612-.437-4.971-.908-7.212-1.44-2.517-.6-4.817-1.257-7.032-2.014ZM19.1,537.995a4.286,4.286,0,0,0-2.454.84,6.633,6.633,0,0,0-1.867,2.077c-.065.112-.623,3.192-1.144,6.87a85.765,85.765,0,0,0-1,11.082,12.682,12.682,0,0,0,.078,3.362,12.637,12.637,0,0,1,.015,4.022,3.8,3.8,0,0,0,.681.6h0a3.51,3.51,0,0,1,.731.663.444.444,0,0,1-.021.567c7.276.6,14.659,1.41,21.8,2.2h.005c5.959.656,12.122,1.334,18.2,1.884,6.81.617,12.782,1,18.257,1.184,6.736.356,13.972.522,22.771.522,5.773,0,11.64-.071,17.313-.14h.018a14.187,14.187,0,0,0-1.229-2.668,14.541,14.541,0,0,0-1.667-2.263,18.915,18.915,0,0,0-4.355-3.525A55.93,55.93,0,0,0,94.5,560.7h0c-1.159-.4-2.254-.781-3.33-1.18a52.619,52.619,0,0,1-8.584-3.985,53.252,53.252,0,0,1-7.733-5.457A16.871,16.871,0,0,0,72,552.659a34.5,34.5,0,0,0-2.391,3.028,2.853,2.853,0,0,1-.776.666,1.909,1.909,0,0,1-.939.282A1.23,1.23,0,0,1,66.825,556a1.333,1.333,0,0,1-.175-.96,2.649,2.649,0,0,1,.475-1.032,10.173,10.173,0,0,1,2.206-2.089,14.105,14.105,0,0,1,3.508-3.568,58.988,58.988,0,0,1-4.346-4.252c-2.8,1.894-4.876,4.62-6.883,7.257l-.079.1a1.115,1.115,0,0,1-.837.378,1.356,1.356,0,0,1-.714-.214,1.481,1.481,0,0,1-.517-.544,1.092,1.092,0,0,1,.057-1.168,19,19,0,0,1,2.148-2.313,17.2,17.2,0,0,1,2.124-3.126,14.6,14.6,0,0,1,2.78-2.529c-.349-.438-.693-.9-1.026-1.357a21.537,21.537,0,0,0-2.2-2.671,7.6,7.6,0,0,0-1.3-1.036,5.621,5.621,0,0,0-1.547-.671,65.934,65.934,0,0,0-7.962,3.35,78.94,78.94,0,0,0-7.494,4.287c-.357.232-.718.475-1.066.71l-.012.008a18.478,18.478,0,0,1-4.531,2.475,7.358,7.358,0,0,1-2.117.3,13.361,13.361,0,0,1-5.057-1.169,29.717,29.717,0,0,1-4.861-2.656,49.81,49.81,0,0,1-5.957-4.668l0,0c-.09-.082-.144-.131-.155-.138A3.877,3.877,0,0,0,19.1,537.995Zm-6.942,29.456c-.049.06-.1.115-.149.167a1.587,1.587,0,0,1,.11.3l.236.019h0l.259.021A2.645,2.645,0,0,1,12.154,567.451Zm175.959-39.24c.656,3.653,1.1,6.914,1.365,9.971a69.5,69.5,0,0,1,.18,10.048c3.14.9,5.945,1.949,8.421,2.869l.007,0c2.124.79,4.13,1.536,6.009,2.071a19.7,19.7,0,0,0,5.439.87,12.871,12.871,0,0,0,3.393-.443,14.565,14.565,0,0,0,3.486-1.468,31.36,31.36,0,0,0,7.765-6.846,12.467,12.467,0,0,1-1.171-2.607v0c-.07-.194-.143-.4-.216-.592-.986-2.695-1.751-5.1-2.336-7.357a48.135,48.135,0,0,1-1.377-7.586c-3.29.62-6.523,1.1-9.609,1.417a94.594,94.594,0,0,1-9.7.519A76.738,76.738,0,0,1,188.113,528.211Zm-155.971-22.8h0a1.264,1.264,0,0,1-.784.7c-.154.681-.288,1.246-.421,1.777a20.722,20.722,0,0,1-.944,4.536c-.495,1.572-1.113,3.085-1.652,4.358-.066.158-.133.318-.2.473l-.014.034-.031.076c-.6,1.789-1.236,3.606-1.849,5.363l0,.01-.051.146c-.172.492-.349,1-.523,1.5-.46,1.814-.886,3.67-1.3,5.465v0l-.03.13c-.13.566-.265,1.152-.4,1.726a32.535,32.535,0,0,1-.707,4.923,1.578,1.578,0,0,1-.065.213,17.942,17.942,0,0,1,1.636.843,51.4,51.4,0,0,0,7.063,4.649,10.3,10.3,0,0,0,4.637,1.369,6.716,6.716,0,0,0,3.17-.848,29.341,29.341,0,0,0,3.336-2.183,49.4,49.4,0,0,1,9.647-5.656,2.9,2.9,0,0,1,.345-1.5v0c.058-.138.118-.281.174-.427l.028-.075.012-.033.006-.016a2.458,2.458,0,0,1,.056-.8c1.262-5.153,2.959-10.3,4.6-15.28.311-.942.662-2.009,1-3.045.328-.947.717-1.887,1.056-2.693a62.3,62.3,0,0,1-7.09-.513c-2.244-.288-4.606-.705-7.019-1.241-2.221-.493-4.482-1.081-6.914-1.8-2.13-.628-4.346-1.342-6.776-2.183ZM90.976,254.628h0c8.586,10.69,15.945,20.2,22.5,29.086,3.272,4.435,6.373,8.759,9.217,12.851s5.535,8.1,8,11.918c2.453,3.8,4.768,7.546,6.881,11.132,2.1,3.558,4.069,7.088,5.865,10.493,1.773,3.363,3.439,6.728,4.951,10,1.486,3.217,2.878,6.465,4.139,9.656a175.312,175.312,0,0,1,6.248,18.863c1.618,5.986,3,12.281,4.22,19.244,2.318,13.217,3.844,27.635,5.611,44.329v0c.941,8.894,2.008,18.976,3.306,29.861,1.483,12.446,3.059,24.191,4.816,35.906a149.568,149.568,0,0,0,4.59,16.99h0c1.143,3.651,2.324,7.427,3.289,11.188l.2-.019h0c.213-.021.413-.041.6-.041a1.364,1.364,0,0,1,.41.051h0l.006,0c6.954-.081,12.251-.3,17.174-.713a117.477,117.477,0,0,0,16.976-2.568,43.34,43.34,0,0,0,5.041-1.315h0a33.512,33.512,0,0,1,6.4-1.5,1.714,1.714,0,0,1,.575-1.234c-1.88-4.439-3.623-9.083-5.181-13.8-1.485-4.5-2.852-9.219-4.062-14.026-1.144-4.545-2.188-9.328-3.1-14.217-.855-4.57-1.63-9.407-2.3-14.378-.627-4.631-1.172-9.376-1.664-14.507-.439-4.572-.826-9.35-1.185-14.605-.666-9.766-1.126-19.738-1.57-29.382-.41-8.89-.834-18.084-1.419-27.1-.655-10.112-1.447-18.92-2.421-26.927-.56-4.606-1.2-9.093-1.9-13.337-.749-4.541-1.6-8.989-2.525-13.22-.98-4.477-2.082-8.878-3.276-13.079-1.253-4.41-2.65-8.754-4.152-12.914-2.568-7.5-5.67-14.834-8.366-21.025a55.946,55.946,0,0,1-6.888,3.5,52.762,52.762,0,0,1-14.006,3.755,56.876,56.876,0,0,1-7.067.436,64.692,64.692,0,0,1-9.305-.7,78.725,78.725,0,0,1-9.261-1.95c-2.967-.808-6.048-1.818-9.158-3-2.91-1.109-5.938-2.4-9-3.852-12.074-5.713-23.565-13.24-33.212-19.851ZM28.039,508.418c-.116.512-.24,1.023-.359,1.517l-.006.024c-.1.422-.2.82-.29,1.219-.028.12-.056.242-.084.361l-.006.027q-.045.189-.088.378A18.939,18.939,0,0,0,28.039,508.418ZM102.527,273.6a14.554,14.554,0,0,1-.951,5.224c-1.278,3.671-2.826,7.332-4.323,10.872-.679,1.6-1.38,3.264-2.048,4.9-.654,1.607-1.316,3.242-1.957,4.823l-.023.058c-.767,1.895-1.561,3.854-2.348,5.784-4.769,12.72-9.725,26.255-14.972,40.586l0,.009v0c-9.211,25.155-18.735,51.167-28.638,76.586-5.365,13.772-10.274,25.915-15.007,37.124-2.58,6.11-5.129,11.984-7.575,17.459-2.578,5.772-5.13,11.295-7.584,16.416a102.226,102.226,0,0,0,15.323,7.223,103.28,103.28,0,0,0,16.309,4.606,30.79,30.79,0,0,0,5.11.812h.012c1.427.159,2.9.324,4.218.548a11.564,11.564,0,0,1,3.224.9l.423-.415.081-.079.045-.044.045-.044a4.24,4.24,0,0,1,.736-2.1,16.143,16.143,0,0,1,1.5-1.894h0a12.553,12.553,0,0,0,1.747-2.327,110.753,110.753,0,0,0,6.833-11c1.858-3.385,3.752-7.175,5.793-11.586,2.036-5.9,4.186-12.234,6.462-18.937,4.289-12.633,9.15-26.951,14.2-41.154,5.79-16.283,10.953-29.948,15.782-41.776,1.524-3.732,2.905-7.39,4.241-10.928l0-.011v0c1.755-4.647,3.413-9.037,5.248-13.231.983-2.247,1.933-4.246,2.9-6.109,1.082-2.078,2.169-3.948,3.321-5.716.335-.508.693-1.045,1.094-1.643.3-.6.57-1.136.822-1.627.668-1.3,1.377-2.606,2.063-3.869l0-.005c.53-.976,1.079-1.986,1.611-3a13.453,13.453,0,0,0,1.3-3.22c-1.993-3.495-4.1-7.022-6.437-10.783-2.084-3.351-4.3-6.808-6.788-10.57-4.613-6.987-9.459-13.991-14.146-20.764l-.008-.011-.008-.011C107.653,281.063,105.056,277.309,102.527,273.6ZM89.283,253.542h0a.522.522,0,0,1-.093.091c.743,1.054,1.475,2.142,2.183,3.194l.012.017c.514.765,1.046,1.555,1.576,2.322-1.142-1.863-2.079-3.533-2.867-5.107-.18-.116-.364-.233-.542-.346l-.026-.017-.029-.019-.213-.135Zm-71.9-70.764c1.455,7.886,2.8,14.263,4.24,20.068a176.07,176.07,0,0,0,6.008,19.7c1.235,3.289,2.572,6.462,3.972,9.433,1.484,3.148,3.093,6.178,4.781,9.007a90.951,90.951,0,0,0,5.712,8.47,82.549,82.549,0,0,0,6.765,7.822A76.442,76.442,0,0,1,41,243.487a57.056,57.056,0,0,1-4.331-15.216,9.652,9.652,0,0,1,.176-2.093,6.546,6.546,0,0,1,.676-1.9,4.37,4.37,0,0,1,1.27-1.45,4.309,4.309,0,0,1,1.958-.748.8.8,0,0,1,.106-.007,1.281,1.281,0,0,1,1.037.875,39.539,39.539,0,0,0,4.7,8.233c.541.71,5.344,6.939,7.522,6.939.491,0,.815-.322.965-.956a25.479,25.479,0,0,0-.938-6.071A30.114,30.114,0,0,0,52,225.647a79.412,79.412,0,0,0-6.516-10.177,94.034,94.034,0,0,1-7.805-12.3,49.783,49.783,0,0,1-3.079-7.518c-.44-1.391-.822-2.826-1.136-4.264-.331-1.515-.6-3.084-.792-4.664a57.456,57.456,0,0,1-10.907-2.629C20.329,183.643,18.847,183.182,17.383,182.778Zm40.253,52.779c.021.3.03.579.026.842a5.965,5.965,0,0,1,.856-.278c-.278-.171-.566-.356-.882-.564Zm-.278-1.949h0c.116.583.2,1.094.243,1.563.483.153.988.327,1.589.548a11.03,11.03,0,0,1-.906-.91A11.64,11.64,0,0,1,57.358,233.608Zm-20.84-47.845h0a4.3,4.3,0,0,1-1.465.7,41.39,41.39,0,0,0,.7,4.176c.288,1.309.647,2.632,1.068,3.931a49.327,49.327,0,0,0,3.053,7.287c1.067,2.09,2.356,4.309,3.943,6.783,1.418,2.212,2.95,4.44,4.431,6.6l0,0c1.944,2.828,3.955,5.753,5.824,8.8-1.795-6.907-1.146-14.159-.519-21.171l.021-.236.032-.355c.5-4.889,1.267-10.223,2.339-16.307.957-5.426,2.063-10.934,3.134-16.261l0-.014c.973-4.84,1.978-9.844,2.868-14.773,1-5.534,1.743-10.384,2.275-14.827A148.608,148.608,0,0,0,65.3,125.183c.049-2.544.017-5.065-.093-7.493-.116-2.546-.323-5.078-.616-7.527-1.929,5.374-3.983,10.722-6.1,15.894-2.164,5.279-4.46,10.527-6.824,15.6-1.057,1.976-2.015,4.1-2.942,6.148l0,0c-.953,2.109-1.939,4.29-3.043,6.343a32.552,32.552,0,0,1-3.838,5.768c-.042.041-.087.08-.132.117a28.11,28.11,0,0,1,3.229.369c1.186.209,2.621.569,2.724,1.1.057.29-.293.6-1.04.933-.849,3.34-1.87,6.689-2.858,9.927-.685,2.247-1.394,4.571-2.04,6.874-.057.258-.115.546-.176.852l0,.011a19.2,19.2,0,0,1-1.085,3.922,4.543,4.543,0,0,1-1.011,1.506,2.173,2.173,0,0,1-1.5.6,3.4,3.4,0,0,1-1.433-.366Zm201.8-3.119h-.013c-.118.306-.25.645-.416,1.066l.084-.035,0,0,.014-.006c.066-.067.143-.145.219-.225a2.04,2.04,0,0,1,.108-.8Zm6.517-3.164a8.762,8.762,0,0,1,2.494.366c5.044.055,10.173.388,15.133.709h0c5.439.352,11.063.716,16.589.716a98.336,98.336,0,0,0,9.862-.456,69.729,69.729,0,0,0,9.848-1.67c.486-.089,4.873-.9,9.1-2.1a36.883,36.883,0,0,0,4.989-1.73c1.485-.674,2.32-1.318,2.484-1.913-.051-.305-.355-.46-.9-.46a11.268,11.268,0,0,0-2.584.5h0c-.236.066-.423.118-.531.139-4.7.924-9.547,1.394-14.235,1.849h0l-.689.067c-.041,0-.082.006-.122.006a.867.867,0,0,1-.666-.278,1.029,1.029,0,0,1-.245-.638,1.271,1.271,0,0,1,.238-.807,1.1,1.1,0,0,1,.8-.442,41.761,41.761,0,0,0,8.794-1.941c2.885-.937,5.753-2.116,8.423-3.25.139-.061.333-.139.557-.229a16.153,16.153,0,0,0,2.656-1.265,69.821,69.821,0,0,1-11.749.9c-1.2,0-2.461-.023-3.751-.069a1.57,1.57,0,0,1-1.375-1.674,1.29,1.29,0,0,1,.356-.832,1.321,1.321,0,0,1,.964-.361h.055a9.122,9.122,0,0,0,1,.054,11.88,11.88,0,0,0,4.53-.984,26.073,26.073,0,0,0,4.119-2.211c2.7-1.746,3.974-2.636,3.875-2.972-.032-.107-.205-.16-.531-.16a31.168,31.168,0,0,0-4.306.662,89,89,0,0,1-16.021,1.326c-3.215,0-6.667-.13-10.556-.4a1.5,1.5,0,0,1-.9-.332,1.763,1.763,0,0,1-.559-.771,1.348,1.348,0,0,1,.37-1.533c1.843-1.588,3.777-3.124,5.648-4.609h0c2.28-1.81,4.637-3.681,6.846-5.661a13.7,13.7,0,0,0-2.222-.183,14.524,14.524,0,0,0-3.517.441,20.183,20.183,0,0,0-3.337,1.163,55.608,55.608,0,0,0-6.36,3.517h0A53.862,53.862,0,0,1,273,155.5c-.564.242-1.241.545-2.024.9h0c-2.1.942-4.977,2.231-7.809,3.261a41.088,41.088,0,0,1-4.162,1.3,15.745,15.745,0,0,1-3.64.524,5.127,5.127,0,0,1-2.111-.378,68.634,68.634,0,0,0-7.76,8.826,60.515,60.515,0,0,0-6.022,10.094c.879-.052,1.8-.094,2.734-.123A8.613,8.613,0,0,1,244.836,179.48Zm9.682-19.614c-.182.171-.34.33-.455.446l-.008.008c-.059.059-.105.106-.136.135-.076.071-.152.146-.22.211l-.007.007-.146.141a3.251,3.251,0,0,0,1.032.157,4.836,4.836,0,0,0,.735-.06A1.945,1.945,0,0,1,254.518,159.866Zm-21.687-5.793c.074.092.149.193.222.3l.053-.033.062-.038a.486.486,0,0,1,.133-.053l-.312-.117Z" transform="translate(30.874 0)"/>
    </g>
    <g id="Head" transform="translate(95.946 42.662)">
      <g id="HEAD-2" data-name="HEAD">
        <path id="_Skin-2" data-name="âœ‹ Skin" d="M62.234.039C34.959-.957,8.9,17.376.121,43.288A2.927,2.927,0,0,0,3.47,46.875C1.423,57.187,5.9,71.066,17.555,72.529c2.388.3,4.788.128,7.179.347,2.131.2,13.733,6.723,18.078,8.252,9.147,3.2,32.163,2.61,41.319,0,.333.758,7.444-28.4,9.063-37.447.59-3.918-4.805-6.818-4.407-10.855C89.3,27.64,95.363,21.317,93.5,16.38,88.607,3.815,74.392.309,62.234.039Z" transform="translate(8.295 34.366)" fill="#d08b5b"/>
        <path id="_Ink-2" data-name="ðŸ– Ink" d="M114.163,116.806a19.736,19.736,0,0,1-4.931-.621l-.266-.07a11.918,11.918,0,0,1-3.914-1.674,7.924,7.924,0,0,1-3.1-2.017,8.08,8.08,0,0,1-1.328-2.039,4.217,4.217,0,0,1-.414-2.377c-1.2.1-2.51.145-4.014.145h-.254a47.011,47.011,0,0,1-5.21-.27,28.66,28.66,0,0,1-5.111-1.022,22.259,22.259,0,0,1-4.566-1.88,12.66,12.66,0,0,1-2.044-1.422,8.679,8.679,0,0,1-1.609-1.82.167.167,0,0,1,0-.173.18.18,0,0,1,.152-.1.15.15,0,0,1,.049.008c.539.189,1.073.407,1.589.617a21.057,21.057,0,0,0,2.637.94,29.843,29.843,0,0,0,4.382.882,46.36,46.36,0,0,0,4.778.226c1.2,0,2.518-.036,4.019-.11l1-.052A29,29,0,0,0,105.3,102.4a12.95,12.95,0,0,0,3.18-1.862l.152-.121a15.136,15.136,0,0,1,1.6-1.114c.076-.1.156-.2.235-.3.363-.465.74-.934,1.1-1.387.882-1.1,1.794-2.229,2.583-3.417a18.085,18.085,0,0,0,2.383-5.148,22.859,22.859,0,0,0,.807-5.629c.091-3.148.122-6.352.153-9.45v-.006c.01-1.031.02-2.1.033-3.145l.018-1.4c.008-.623.016-1.256.023-1.869v-.026c.049-4.107.1-8.355.42-12.514.188-2.46.445-4.632.786-6.639l.082-.471.6-3.392c.055-.31.1-.629.148-.938.075-.506.152-1.03.267-1.535a6.773,6.773,0,0,0-.728-.983c-.261-.293-.528-.579-.779-.846l-.188-.166a6.152,6.152,0,0,1-1.144-1.276l-.084-.13a11.5,11.5,0,0,1-1.031-1.432l-.057-.1-.022-.027c-.069-.087-.14-.176-.212-.262-.236-.284-.49-.562-.777-.85a11.461,11.461,0,0,1-1.729,2.508,8.957,8.957,0,0,1-2.438,1.881,1.294,1.294,0,0,1-.6.149,1.177,1.177,0,0,1-1.144-.857,18.112,18.112,0,0,0-2.559-5.314,15.832,15.832,0,0,1-3.606,4.147,15.662,15.662,0,0,1-4.842,2.683,1.063,1.063,0,0,1-.342.058,1.115,1.115,0,0,1-.873-.452A1.253,1.253,0,0,1,96.48,39.7a19.764,19.764,0,0,0,.391-7.708c-1.352.966-2.743,1.872-4.134,2.691a58.378,58.378,0,0,1-4.888,3.426,39.117,39.117,0,0,1-5.279,2.779,1.43,1.43,0,0,1-1.641-.414.977.977,0,0,1-.1-.924,17.734,17.734,0,0,0,.763-2.81l.038-.222s0-.009,0-.014V36.5a51.8,51.8,0,0,1-8.169,8.556,103.976,103.976,0,0,1-9.793,7.386c-2.841,1.907-5.858,3.755-8.494,5.205A21.551,21.551,0,0,1,50.9,59.66H50.86a9.569,9.569,0,0,1,2.31,3.454.981.981,0,0,1-.069.933,1.249,1.249,0,0,1-1.033.493A1.226,1.226,0,0,1,50.9,63.79l-.018-.045A7.153,7.153,0,0,0,45.4,59.432a7.105,7.105,0,0,0-2.067.711,5.94,5.94,0,0,0-1.682,1.308,5.577,5.577,0,0,0-1.459,3.375,6.721,6.721,0,0,0,.859,3.59l.184.345.164.305a17.7,17.7,0,0,1,1.612,3.621,10.979,10.979,0,0,1,.272,2.852,13.5,13.5,0,0,0,.147,2.289l.017.09a2.909,2.909,0,0,0,.335.977.874.874,0,0,0,.766.467,1.167,1.167,0,0,0,.26-.031c.072-.017.141-.039.2-.061a2.009,2.009,0,0,0,.7.36,3.083,3.083,0,0,0,.862.114,5.684,5.684,0,0,0,1.3-.174,10.217,10.217,0,0,0,1.952-.7,1.519,1.519,0,0,1,.117.523,3.014,3.014,0,0,1-.905,2.2c.508.642.982,1.332,1.439,2,.35.51.711,1.036,1.084,1.537,1.421,1.9,2.647,3.445,3.856,4.854a54.819,54.819,0,0,0,4.517,4.648c.311.287.677.577,1.064.884a8.67,8.67,0,0,1,2.581,2.721,2.51,2.51,0,0,1,1.072.651,2.627,2.627,0,0,1,.658,1.221,21.428,21.428,0,0,1,.418,3.977,20.984,20.984,0,0,1-.188,4,4.763,4.763,0,0,1-1.168,2.31,9.667,9.667,0,0,1-2.019,1.656,1.168,1.168,0,0,1-.65.2,1.306,1.306,0,0,1-.609-.157,6.626,6.626,0,0,1-1.142.889,12.6,12.6,0,0,1-5.278,1.548,16.13,16.13,0,0,1-4.916.772,15.682,15.682,0,0,1-2.872-.265c-.951.112-1.8.2-2.59.27-2.374.207-4.787.312-7.173.312a81.478,81.478,0,0,1-19.3-2.3,33.23,33.23,0,0,1-5.77-2.007,41.184,41.184,0,0,1-5.413-2.975,10.949,10.949,0,0,1-2.084-1.774,13.976,13.976,0,0,1-1.73-2.345,17.913,17.913,0,0,1-1.345-2.828,22.133,22.133,0,0,1-.93-3.223,27.241,27.241,0,0,1-.5-7.279,30.642,30.642,0,0,1,1.523-7.8l.276-.823A94.9,94.9,0,0,1,7.389,68.6l.271-.518c1.274-2.423,2.308-4.234,3.354-5.869a38.364,38.364,0,0,1,4.075-5.376,19.951,19.951,0,0,1,5.3-4.214,15.017,15.017,0,0,1,1.968-.8h0c.179-.063.363-.128.544-.193l.018-.217.019-.217c.061-.737.134-1.418.224-2.082a56.5,56.5,0,0,1,1.547-7.662,57.8,57.8,0,0,1,2.608-7.408,63.914,63.914,0,0,1,6.43-11.386c.2-.406.377-.766.549-1.1a43.343,43.343,0,0,1,3.672-5.986A31.7,31.7,0,0,1,42.709,10.4a29.517,29.517,0,0,1,3.2-2.4,34.284,34.284,0,0,1,3.45-1.96,46.887,46.887,0,0,1,7.431-2.869A74.445,74.445,0,0,1,73.143.139C74.544.047,75.935,0,77.279,0c1.556,0,3.1.063,4.588.187a36.217,36.217,0,0,1,3.669.5,17.779,17.779,0,0,1,2.86-.226,22.784,22.784,0,0,1,4.142.4,32.4,32.4,0,0,1,4.057,1.048,60.02,60.02,0,0,1,12.124,5.5A56.405,56.405,0,0,1,119.3,15.491a35.323,35.323,0,0,1,4.367,5.125,28.338,28.338,0,0,1,3.16,5.932,22.382,22.382,0,0,1,1.431,6.75l.015.279a17.62,17.62,0,0,1-.036,2.586,38.125,38.125,0,0,1,.571,5.529,19.44,19.44,0,0,1-.151,2.565l.036.081c-.147.986-.327,2.006-.537,3.033l-.051.067c-.02.144-.042.288-.063.427l0,.02-.025.165c-.12.553-.235,1.059-.353,1.547-.258,1.069-.556,2.186-.885,3.318a.423.423,0,0,0,.1.445c-.243.871-.5,1.708-.77,2.488.155.8.286,1.474.427,2.154.267,1.282.523,2.588.772,3.851v.007c.473,2.406.962,4.894,1.54,7.322.569,2.392,1.243,4.814,1.895,7.155h0c.7,2.511,1.422,5.107,2.019,7.682a60.147,60.147,0,0,1,1.335,7.806,32.724,32.724,0,0,1,.127,4.566,28.077,28.077,0,0,1-.567,4.568,20.621,20.621,0,0,1-3.67,8.31,18.383,18.383,0,0,1-5.877,5.02,20.26,20.26,0,0,1-3.56,1.515,21.694,21.694,0,0,1-3.82.839A20.241,20.241,0,0,1,114.163,116.806ZM49.3,71.3a1.342,1.342,0,0,1-.807-.253,1.4,1.4,0,0,1-.514-.818,4.242,4.242,0,0,0-1.563-2.32,4.4,4.4,0,0,0-2.645-.924,3.869,3.869,0,0,0-.57.042l-.026,0a.141.141,0,0,1-.136-.1.125.125,0,0,1,.06-.144,4.985,4.985,0,0,1,2.738-.813,5.476,5.476,0,0,1,4.9,3.1,1.712,1.712,0,0,1,.181.815,1.348,1.348,0,0,1-.21.666A1.689,1.689,0,0,1,49.3,71.3Z" transform="translate(-24.884 11.376)"/>
      </g>
      <g id="FACE" transform="translate(37.761 44.084)">
        <path id="teeth" d="M3.487.795c2.594-1.559,12.289-.416,19.9,0,6.048.33,10.367-.324,11.75.6,3.124,2.1,1.606,12.243-3.776,13.631s-25.334,3.325-28.775,0S-1.167,3.591,3.487.795Z" transform="translate(15.322 46.086)" fill="#fff"/>
        <path id="_Ink-3" data-name="ðŸ– Ink" d="M22.54,48.824c-.463,0-.967,0-1.54-.01l-.656-.009c-.347,0-.724-.007-1.185-.007l-1.072,0h-.025l-1.128,0a31.3,31.3,0,0,1-8.95-.94A12.422,12.422,0,0,1,6,47.07a9.589,9.589,0,0,1-1.755-1.145,8.584,8.584,0,0,1-1.466-1.56,9.4,9.4,0,0,1-1.116-2.039,10.009,10.009,0,0,1-.581-2.093A10.345,10.345,0,0,1,2.06,33.9a8.235,8.235,0,0,1,1.485-2.046,9.459,9.459,0,0,1,1.976-1.516,12.576,12.576,0,0,1,4.774-1.545,16.159,16.159,0,0,1,1.934-.113,36.015,36.015,0,0,1,6.946.914c1.021.2,2.077.412,3.117.576a56.258,56.258,0,0,0,6.332.67c.449.02.9.03,1.284.038a1.117,1.117,0,0,1,.707-.928,5.513,5.513,0,0,1,2.449-.579c.086,0,.175,0,.265.005a20.122,20.122,0,0,1,2.813.3,10.268,10.268,0,0,1,2.472.77,7.526,7.526,0,0,1,2.133,1.45,6.556,6.556,0,0,1,1.545,2.377A7.385,7.385,0,0,1,42.747,37a8.987,8.987,0,0,1-.491,2.767,9.618,9.618,0,0,1-1.3,2.518,13.41,13.41,0,0,1-1.728,1.967,13.6,13.6,0,0,1-1.985,1.532,15.414,15.414,0,0,1-2.2,1.151,18.96,18.96,0,0,1-2.36.823,27.991,27.991,0,0,1-5.026.873C26.18,48.762,24.551,48.824,22.54,48.824Zm7.976-9.505-.058,0c-2.88.111-5.893.194-8.956.248.086.738.18,1.527.285,2.295.076.56.161,1.149.261,1.8.012.081.035.176.059.277a1.828,1.828,0,0,1,.081.622l-.015.1a.906.906,0,0,1,.4.342,1.351,1.351,0,0,1,.087.165v0c.279,0,.539,0,.794,0a37.182,37.182,0,0,0,6.384-.451l0-.051a.988.988,0,0,1,.335-.643A15.862,15.862,0,0,0,30.346,42c.012-.3.025-.606.045-.9.028-.409.057-.825.086-1.227v-.006Q30.5,39.591,30.516,39.319ZM10.7,44.814h0l.056.009c.079.013.16.026.241.038a39.591,39.591,0,0,0,5.448.3c.521,0,1.051,0,1.562-.007h0c.466,0,.947-.007,1.419-.007a11.562,11.562,0,0,1-.107-1.928c0-.241,0-.468-.006-.675l0-.114c-.043-.93-.073-1.878-.09-2.818-1.492.025-3.094.049-4.7.049-.616,0-1.191,0-1.756-.01l-.977-.015c.066.353.135.712.2,1.058h0c.142.738.289,1.5.415,2.256a1.492,1.492,0,0,1-.332,1.252,1.785,1.785,0,0,1-1.328.614ZM4.609,39.407h0a6.517,6.517,0,0,0,.437,1.659,5.4,5.4,0,0,0,2.135,2.5A8.94,8.94,0,0,0,10.3,44.742a1.164,1.164,0,0,1-.771-1,30.212,30.212,0,0,1-.268-4.132c-1.41-.013-3.049-.041-4.65-.2Zm31.338-.3c-.26,0-.538,0-.809.014-.885.04-1.785.076-2.656.111l-.393.016.031.443v.009c.037.532.075,1.083.114,1.624.018.241.031.49.044.731a14.967,14.967,0,0,0,.2,2,12.4,12.4,0,0,0,2.877-1.391,9.929,9.929,0,0,0,2.374-2.208,6.936,6.936,0,0,0,.883-1.523,9.766,9.766,0,0,1-2.191.177h-.474ZM9.827,32.417h0a8.522,8.522,0,0,0-2.6,1.05A5.533,5.533,0,0,0,5.31,35.451a5.915,5.915,0,0,0-.6,1.609,6.79,6.79,0,0,0-.15,1.734c1.567-.182,3.187-.251,4.711-.306.006-.311.013-.589.021-.847l.024-.723q0-.14.009-.284a15.949,15.949,0,0,1,.506-4.216Zm3.339-.339h0c-.473,0-.935.015-1.374.045-.327.022-.659.058-.987.106a15.6,15.6,0,0,1,.409,3.076c.034.511.067.993.121,1.456.058.5.135,1.03.235,1.633l.39-.018c1.855-.1,3.741-.172,5.565-.242l1.682-.065c0-.5,0-.945.01-1.359l.009-.453c.008-.339.007-.683.007-1.047a18.614,18.614,0,0,1,.118-2.626l-.81-.091-.2-.022a46.133,46.133,0,0,0-5.178-.393Zm7.6.649h0c.04.324.067.655.094.975v0c.013.162.027.33.043.493.086.923.187,1.882.309,2.93l.1.854c2.661-.12,5.492-.257,8.908-.43l.419-.022.117-1.64c.076-1.036.163-2.15.292-3.276l-.093-.034a1.513,1.513,0,0,1-.312-.177,45.864,45.864,0,0,1-7.106.463h-.031c-.813,0-1.684-.044-2.741-.137Zm10.9.081c.092,1.1.157,2.222.219,3.307.025.44.051.895.079,1.341l1.957-.1L34.9,37.3c.352-.02.728-.064,1.125-.11a15.634,15.634,0,0,1,1.778-.139,4.542,4.542,0,0,1,1.248.15A3.243,3.243,0,0,0,37.8,34.19a4.872,4.872,0,0,0-1.88-.826,14.441,14.441,0,0,0-2.033-.255,13.1,13.1,0,0,1-2.213-.3Zm-4.054-5.662a3.813,3.813,0,0,1-2.848-1,1.7,1.7,0,0,1-.481-.971,1.927,1.927,0,0,1,.145-1.011,2.114,2.114,0,0,1,.653-.848,1.613,1.613,0,0,1,.977-.345,1.639,1.639,0,0,1,.928.3,2.31,2.31,0,0,0,1.293.3,9.447,9.447,0,0,0,2.522-.435l.063-.018a4.035,4.035,0,0,0,1.125-.539,2.667,2.667,0,0,0,.864-.921,1.505,1.505,0,0,0,.1-1.218A1.929,1.929,0,0,0,31.629,19.3a6.482,6.482,0,0,0-1.826-.29c-.11,0-.223-.006-.336-.006a19.719,19.719,0,0,0-2.629.236c-.566.077-1.151.156-1.731.2h-.019a.217.217,0,0,1-.211-.173.247.247,0,0,1,.106-.283,13.052,13.052,0,0,1,2.8-1.136,12.6,12.6,0,0,1,3.388-.519,5.334,5.334,0,0,1,3.022.767,3.507,3.507,0,0,1,1.484,2.754,4.632,4.632,0,0,1-.973,3.217A6.676,6.676,0,0,1,32,26.144l-.079.033a14.7,14.7,0,0,1-2.009.66A9.657,9.657,0,0,1,27.617,27.146Zm13.551-7.779a1.013,1.013,0,0,1-.1-.005l-.166-.015a1.5,1.5,0,0,1-.247-.04,1.642,1.642,0,0,1-.823-.561,1.373,1.373,0,0,1-.319-.936l.012-.2a6.278,6.278,0,0,0-.258-2.471,2.43,2.43,0,0,0-.642-.963,2.475,2.475,0,0,0-1.175-.56A2.242,2.242,0,0,0,37,13.573a1.947,1.947,0,0,0-1.62.9,3.5,3.5,0,0,0-.58,1.913.368.368,0,0,1-.362.356.332.332,0,0,1-.174-.049,2.415,2.415,0,0,1-1.113-1.542,3.417,3.417,0,0,1,.149-1.937,3.939,3.939,0,0,1,1.465-1.9,4.382,4.382,0,0,1,2.291-.751c.082,0,.164-.006.245-.006a5.094,5.094,0,0,1,4.066,2.07A6.665,6.665,0,0,1,42.6,15.283a6.382,6.382,0,0,1-.034,2.94,1.6,1.6,0,0,1-.519.789A1.382,1.382,0,0,1,41.168,19.368ZM5.1,18.664a.5.5,0,0,1-.216-.053,1.647,1.647,0,0,1-.745-.709,2.424,2.424,0,0,1-.268-1,4.718,4.718,0,0,1,.379-2.069A6.506,6.506,0,0,1,5.628,12.8,5.4,5.4,0,0,1,7.7,11.491,5.631,5.631,0,0,1,9.485,11.2a6.212,6.212,0,0,1,3.244.943A6.652,6.652,0,0,1,15.08,14.6,1.09,1.09,0,0,1,15.99,15.7a3.037,3.037,0,0,1-.822,1.979,1.607,1.607,0,0,1-1.2.52,1.92,1.92,0,0,1-1.075-.337,1.722,1.722,0,0,1-.685-.913l-.016-.055a3,3,0,0,0-1.07-1.577,2.938,2.938,0,0,0-1.775-.62,2.7,2.7,0,0,0-2.1,1,6.646,6.646,0,0,0-.727,1.209A5.161,5.161,0,0,1,5.4,18.545.445.445,0,0,1,5.1,18.664ZM.209,13.433a.15.15,0,0,1-.146-.141,11.509,11.509,0,0,1,.052-2.815,14.147,14.147,0,0,1,.7-2.837A14.508,14.508,0,0,1,2.066,5a12.234,12.234,0,0,1,1.716-2.23A9.866,9.866,0,0,1,6.6.86,8.594,8.594,0,0,1,10.112,0a4.114,4.114,0,0,1,2.2.562,3.628,3.628,0,0,1,1.485,1.917,1.605,1.605,0,0,1-.162,1.308,1.635,1.635,0,0,1-1.053.828,4.054,4.054,0,0,1-.8.075,9.341,9.341,0,0,1-1.472-.156h0a9.377,9.377,0,0,0-1.484-.156c-.121,0-.24,0-.354.014A6.162,6.162,0,0,0,5.2,5.573a8.021,8.021,0,0,0-1.89,2.159A24.072,24.072,0,0,0,2,10.286,19.674,19.674,0,0,1,.333,13.364.15.15,0,0,1,.209,13.433Zm43.731-2.8a2.194,2.194,0,0,1-.61-.086c-1.5-.434-1.9-1.486-2.352-2.7-.088-.234-.178-.476-.279-.719a6.153,6.153,0,0,0-1.964-2.5A9.145,9.145,0,0,0,33.4,3.009a8.481,8.481,0,0,0-2.4.324.138.138,0,0,1-.039.006.189.189,0,0,1-.162-.106.133.133,0,0,1,.012-.145c.114-.147.215-.287.314-.423a4.994,4.994,0,0,1,1.024-1.136A7.256,7.256,0,0,1,36.591.035a8.309,8.309,0,0,1,2.47.379,9.241,9.241,0,0,1,2.23,1.041,9.485,9.485,0,0,1,1.885,1.583,10.423,10.423,0,0,1,1.342,1.8,5.7,5.7,0,0,1,.31.715,7.242,7.242,0,0,0,.322.754,2.447,2.447,0,0,1,1.224,1.735,1.955,1.955,0,0,1-.071.878,2.135,2.135,0,0,1-.5.83l-.049.05-.146.145A2.385,2.385,0,0,1,43.94,10.63Z" transform="translate(11.875 15.406)"/>
      </g>
      <g id="ACCESORIES" transform="translate(11.162 57.119)">
        <path id="_Ink-4" data-name="ðŸ– Ink" d="M44.1,27.276h0a13.32,13.32,0,0,1-4.077-.622,11.245,11.245,0,0,1-3.6-1.91,10.505,10.505,0,0,1-2.71-3.265,12.937,12.937,0,0,1-1.4-4.685l-.1,0a4.119,4.119,0,0,1-2.26-.744,5.647,5.647,0,0,1-1.7-1.786c-.966.062-1.992.092-3.135.092-1.986,0-4.058-.093-6.062-.183l-.035,0c-2.02-.091-4.109-.184-6.161-.184a46.144,46.144,0,0,0-4.95.237,26.722,26.722,0,0,0-4.735.913,1.388,1.388,0,0,1-1.3.735,2.347,2.347,0,0,1-1.227-.359A1.235,1.235,0,0,1,0,14.647a1.174,1.174,0,0,1,.625-1.035,7,7,0,0,1,2.515-.92,31.523,31.523,0,0,1,4.821-.816c1.484-.142,3.1-.211,4.932-.211,2.014,0,4.064.083,6.048.163h.008c1.979.08,4.025.162,6.013.162,1.415,0,2.676-.041,3.855-.126a24.864,24.864,0,0,0,4.506-3.67c.782-.746,1.592-1.518,2.431-2.205a14.044,14.044,0,0,1,2.7-1.784,15.048,15.048,0,0,1,7.217-1.87,12.07,12.07,0,0,1,6.261,1.647,10.106,10.106,0,0,1,2.529,2.169A11.132,11.132,0,0,1,56.3,9.316a16.553,16.553,0,0,1,6.139-1.082,21.19,21.19,0,0,1,3.806.345,9.264,9.264,0,0,1,1.439-2.428A11.454,11.454,0,0,1,69.62,3.688,13.391,13.391,0,0,1,75.171.461,11.4,11.4,0,0,1,78.328,0,8.912,8.912,0,0,1,85.1,2.963c.263.028.372.289.451.48a.426.426,0,0,0,.1.174,11.171,11.171,0,0,1,.775,1.142,7.331,7.331,0,0,0,2.018,1.1,7.9,7.9,0,0,1,1.73.887,2.553,2.553,0,0,1,.62.651,2.281,2.281,0,0,1,.337.905,2.137,2.137,0,0,1-.4,1.751,6,6,0,0,1-1.346,1.16,5.876,5.876,0,0,0-1.316,1.133,1.931,1.931,0,0,1-.346.638,19.092,19.092,0,0,1-1.739,5.1,14.484,14.484,0,0,1-2.73,3.738,11.277,11.277,0,0,1-3.376,2.3A9.2,9.2,0,0,1,76.2,24.9a8.531,8.531,0,0,1-3.437-.72,9.7,9.7,0,0,1-3.109-2.2,13.534,13.534,0,0,1-2.492-3.754,21.343,21.343,0,0,1-1.585-5.369,3.989,3.989,0,0,0-1.32-.759,4.392,4.392,0,0,0-1.437-.269,2.636,2.636,0,0,0-.365.024,7.512,7.512,0,0,1-1.7.532,9.891,9.891,0,0,0-3.529,3.571,11.329,11.329,0,0,1-1.344,4.812,11.533,11.533,0,0,1-3.027,3.554,13.583,13.583,0,0,1-4.124,2.2A14.61,14.61,0,0,1,44.1,27.276Zm2.62-21.585a12.889,12.889,0,0,0-5.741,1.477,16.957,16.957,0,0,0-5.254,4.187,12.645,12.645,0,0,0-1.174,5.477,7.894,7.894,0,0,0,2.842,5.9,9.209,9.209,0,0,0,1.975,1.263,10.98,10.98,0,0,0,4.694,1.033,10.627,10.627,0,0,0,6.815-2.378,9.706,9.706,0,0,0,2.435-3.062,12.057,12.057,0,0,0,1.22-4.391,12.915,12.915,0,0,0-.568-4.388,7.681,7.681,0,0,0-1.766-2.989A7.44,7.44,0,0,0,46.715,5.691Zm31.3-2.83a6.792,6.792,0,0,0-2.548.488,6.919,6.919,0,0,0-2.314,1.544,20.356,20.356,0,0,0-3.474,5.351,9.941,9.941,0,0,0-.762,6.163,14.244,14.244,0,0,0,1.394,2.532,10.019,10.019,0,0,0,1.717,1.91,7.15,7.15,0,0,0,1.982,1.207,5.938,5.938,0,0,0,2.189.421,6.652,6.652,0,0,0,2.542-.529,10.138,10.138,0,0,0,2.643-1.656,18.827,18.827,0,0,0,2.944-5.258V14.8a15.585,15.585,0,0,0,.94-5.379,14.17,14.17,0,0,0-.2-1.776A7.191,7.191,0,0,0,83.911,5.67,7.65,7.65,0,0,0,82.24,4.162,7.819,7.819,0,0,0,80.221,3.2,7.421,7.421,0,0,0,78.019,2.861Z" transform="translate(2.85 2.607)"/>
      </g>
    </g>
  </g>
</svg>
