<svg xmlns="http://www.w3.org/2000/svg" width="390.67" height="780" viewBox="0 0 390.67 780">
  <g id="peep-standing-23" transform="translate(28.736)">
    <g id="BODY" transform="translate(-28.736 150.264)">
      <path id="_Skin" data-name="âœ‹ Skin" d="M253.852,597.739h0c-6.318,0-12.479-.171-18.2-.355l-2.771-.091h-.011c-4.276-.142-7.97-.264-10.588-.264-.547,0-1.042.005-1.472.016-2.832-.354-6.907-.454-11.625-.57a183.6,183.6,0,0,1-19.65-1.181c-1.6-.221-3.082-.482-4.4-.775a30.918,30.918,0,0,1-3.826-1.089,15.859,15.859,0,0,1-3.069-1.464,7.92,7.92,0,0,1-2.126-1.9,4.679,4.679,0,0,1-1.068-2.129,5.533,5.533,0,0,1,0-2.419,4.665,4.665,0,0,1,.811-1.78,3.645,3.645,0,0,1,1.537-1.19c-1.321-1-.757-3.842-.259-6.354a18.155,18.155,0,0,0,.447-3.027c.13-.871.962-5.682,2.012-10.382.589-2.636,1.134-4.733,1.621-6.231.6-1.838,1.105-2.77,1.51-2.77a.293.293,0,0,1,.175.062,3.386,3.386,0,0,1,2.349-1.748c.522-3.1.929-6.325,1.245-9.856.269-3.006.472-6.247.619-9.908l-.451-.062-.03,0c-.8-.11-1.636-.224-2.439-.412a1.45,1.45,0,0,1-.895.353c-.68,0-1.354-.6-2.063-1.828a27.492,27.492,0,0,1-1.562-3.481v0c-.28-.71-.521-1.324-.725-1.711-1.117-3.142-2.17-6.446-3.129-9.819-.914-3.216-1.774-6.6-2.554-10.063-1.441-6.391-2.655-13.171-3.712-20.728-.881-6.3-1.666-13.27-2.4-21.309-.653-7.166-1.207-14.51-1.743-21.613v-.013c-.721-9.561-1.467-19.447-2.468-29.089-.539-5.191-1.107-9.9-1.736-14.38-.706-5.036-1.47-9.669-2.336-14.164-.93-4.827-1.985-9.493-3.137-13.867-1.232-4.681-2.624-9.22-4.136-13.491-1.6-4.518-3.4-8.9-5.336-13.035a127.279,127.279,0,0,0-6.735-12.5c-3.1,6.178-6.832,14.351-11.1,24.295-3.677,8.563-7.874,18.728-12.475,30.212-8.452,21.1-17.019,43.529-23.275,59.908l0,.005c-1.6,4.181-3.105,8.131-4.449,11.632a122.2,122.2,0,0,0-5.07,16.552v0c-1.046,4.125-2.034,8.022-3.41,11.976a62.084,62.084,0,0,1-2.388,5.919,52.546,52.546,0,0,1-3.229,5.914c-1.068,1.7-3.858,5.616-6.5,8.962-1.526,1.932-2.839,3.473-3.9,4.581-1.256,1.309-2.13,1.973-2.595,1.973a.329.329,0,0,1-.289-.147,199.182,199.182,0,0,1-4.466,20.938c-.218.869-.443,1.767-.665,2.658a2.411,2.411,0,0,0,.406,1.558,2.964,2.964,0,0,0,.965.808,7.6,7.6,0,0,0,1.878.69,8.991,8.991,0,0,1,2.976,1.639,28.766,28.766,0,0,1,2.527,2.375h0a28.71,28.71,0,0,0,2.445,2.3,3.18,3.18,0,0,1,1.261-.359c.245,0,.4.071.438.2.065.228-.242.577-.821.933a51.631,51.631,0,0,0,6.342,4.664,12.712,12.712,0,0,1,2.485-.716c.081,0,.127.017.136.049.036.135-.541.547-1.715,1.225A32.09,32.09,0,0,0,78.6,554.01c1.172.61,2.436,1.194,3.865,1.784,2.653,1.1,5.48,2.048,8.214,2.968h0c2.438.821,4.96,1.669,7.339,2.615a43.524,43.524,0,0,1,6.746,3.287,23.582,23.582,0,0,1,5.576,4.636,19.946,19.946,0,0,1,2.17,3.035,21.145,21.145,0,0,1,1.662,3.627,1.879,1.879,0,0,1-.044,1.33,1.983,1.983,0,0,1-.808.9,7.684,7.684,0,0,1,1.7,2.465,4.883,4.883,0,0,1,.529,3.035,1.728,1.728,0,0,1-1.45,1.3c-11.765,1.088-22.919,1.616-34.1,1.616-11.627,0-23.634-.557-37.785-1.754-1.916-.358-4.877-.577-8.3-.83a129.8,129.8,0,0,1-14.6-1.629,26.8,26.8,0,0,1-5.929-1.746A9.615,9.615,0,0,1,11.31,579.4a4.639,4.639,0,0,1-1.279-1.549,6.452,6.452,0,0,1-.648-3.024,4.33,4.33,0,0,1,.314-1.5,2.875,2.875,0,0,1,.882-1.177,3.787,3.787,0,0,1,.725-1.193,4.729,4.729,0,0,1-1.386-2.932,20.2,20.2,0,0,1-.087-3.615,22.192,22.192,0,0,0,0-2.58c.058-1.219.2-3.2.568-5.693a57.394,57.394,0,0,1,1.351-6.651,30.993,30.993,0,0,1,2.284-6.139,11.042,11.042,0,0,1,3.367-4.157,3.9,3.9,0,0,1,1.827-.478,3.433,3.433,0,0,1,.545.044,92.291,92.291,0,0,0,4.09-12.464v0c.8-2.883,1.618-5.864,2.632-8.72.546-1.537,1.1-2.919,1.705-4.227a37.745,37.745,0,0,1,2.177-4.082c-.388-.185-1.008-.456-1.793-.8-2.314-1.012-5.811-2.541-8.917-4.264a29.109,29.109,0,0,1-4.093-2.654,5.569,5.569,0,0,1-2.07-2.588,1.58,1.58,0,0,1,.311-1.426c2.608-4.4,5.266-9.223,7.9-14.329,2.506-4.856,5.072-10.127,7.626-15.666,4.7-10.193,9.452-21.449,14.526-34.411,9.395-24,18.267-49.739,26.847-74.631,5.4-15.673,10.505-30.477,15.67-44.694,2.773-7.633,5.3-14.367,7.723-20.587,2.712-6.959,5.234-13.118,7.711-18.83-1.223-1.874-2.541-3.777-3.816-5.618v0a113.162,113.162,0,0,1-7.9-12.54c-7.606-4.807-14.408-8.823-20.8-12.277-.249.012-.511.019-.777.019a24.992,24.992,0,0,1-5.959-.813,21.994,21.994,0,0,1-5.4-2.092,6.455,6.455,0,0,1-1.126,2.821,2.153,2.153,0,0,1-1.72.856c-1.1,0-2.467-.747-4.069-2.221a35.055,35.055,0,0,1-4.417-5.149,63.812,63.812,0,0,1-3.732-5.8,25.473,25.473,0,0,1-2.013-4.18,5.131,5.131,0,0,0-2.017,3.683,19.571,19.571,0,0,0,.362,6.564,51.379,51.379,0,0,0,2.134,7.506c1.861,5.165,4.123,9.488,5.4,11.088.281.407.944,1.18,1.712,2.076,1.9,2.212,4.5,5.241,4,5.823a5.324,5.324,0,0,1-1.429.933,3.535,3.535,0,0,1-1.385.291c-1.469,0-2.986-.958-4.636-2.93a47.166,47.166,0,0,1-3.945-5.923h0a33.914,33.914,0,0,0-2.718-4.147,130.138,130.138,0,0,1-9.1-15.259,123.162,123.162,0,0,1-6.9-16.441,111.466,111.466,0,0,1-4.307-17.228c-.483-2.929-.84-5.885-1.062-8.786-.226-2.955-.317-5.928-.271-8.834-.915-.3-1.86-.571-2.86-.857-2.805-.8-5.706-1.635-7.891-3.134a7.979,7.979,0,0,1-2.622-2.826,7.354,7.354,0,0,1-.7-1.934,9.594,9.594,0,0,1-.185-2.36c-.149-2.924-.488-5.656-.817-8.3v0C.487,163.5.115,160.506,0,157.292a.55.55,0,0,1,.157-.42,2.968,2.968,0,0,1,1.993-.448,23.177,23.177,0,0,1,3.188.293l.082.012c-.232-2.588-.365-5.227-.4-7.844-.031-2.573.036-5.193.2-7.789a111.873,111.873,0,0,1,2.06-15.362,125.181,125.181,0,0,1,4.072-14.985,142.379,142.379,0,0,1,5.839-14.5c2.166-4.64,4.642-9.322,7.361-13.917,2.623-4.433,5.529-8.883,8.638-13.225A207.234,207.234,0,0,1,53.319,45.152c1.825-2.01,3.788-4.012,5.836-5.95,2.107-2,4.324-3.943,6.59-5.79A111.247,111.247,0,0,1,80.691,23.1a84.49,84.49,0,0,1,16.475-7.334,63.252,63.252,0,0,1,8.5-2.061,51.717,51.717,0,0,1,8.511-.73,44.543,44.543,0,0,1,6.5.469,2.617,2.617,0,0,1,1.368.525,2.386,2.386,0,0,1,.565.826h0a3.151,3.151,0,0,0,.568.876,3.3,3.3,0,0,0,1.346.778,26.652,26.652,0,0,0,3.6-8.182,10.356,10.356,0,0,1,.7-3.213,6.648,6.648,0,0,1,1.88-2.687A13.922,13.922,0,0,1,135.22.52,23.393,23.393,0,0,1,140.355,0a42.833,42.833,0,0,1,6.165.5c2.038.3,4.037.693,5.724,1.042a33.247,33.247,0,0,1,3.835,1.109,18.931,18.931,0,0,1,3.617,1.72,11.092,11.092,0,0,1,2.887,2.545,8.607,8.607,0,0,1,1.646,3.581.282.282,0,0,1,.051,0c.66,0,1.013,2.391,1.3,4.312a14.064,14.064,0,0,0,.4,2.15c.356,1.566.567,2.742.771,3.878h0c.263,1.464.511,2.847,1.038,4.866a11.4,11.4,0,0,1,3.066,1.339,17.455,17.455,0,0,1,2.726,2.1,52.669,52.669,0,0,1,4.847,5.434c1.037,1.275,2.108,2.592,3.194,3.76a20.085,20.085,0,0,0,3.409,3.023A65.427,65.427,0,0,1,195.348,49.1a51.315,51.315,0,0,1,8.042,9.422A42.666,42.666,0,0,1,210.5,82.246a119.927,119.927,0,0,0,1.251,16.739,122.366,122.366,0,0,0,3.562,16.418c.655,2.75,1.573,5.5,2.544,8.416a76.042,76.042,0,0,1,3.348,12.265,27.284,27.284,0,0,1,.3,6.174,21.376,21.376,0,0,1-.448,3.074,20.115,20.115,0,0,1-.941,3.056,4.87,4.87,0,0,1,.753-.06,4.353,4.353,0,0,1,1.922.442,6.322,6.322,0,0,1,1.621,1.157,21.449,21.449,0,0,1,2.7,3.437h0a15.319,15.319,0,0,0,2.921,3.536,119.481,119.481,0,0,0,13.732,2.785c1.2.141,2.281.2,3.328.247a17.767,17.767,0,0,1,7.441,1.515c1.158.806,1.243,2.256,1.318,3.535.01.162.019.329.031.49,9.8-3.929,20.138-9.5,28.959-14.435l.368-.131h.006c1.02-.362,2.175-.772,3.375-1.095a14.061,14.061,0,0,1,3.613-.554,6.717,6.717,0,0,1,2.062.3,4.669,4.669,0,0,1,1.76,1.021,2.165,2.165,0,0,1,.716,1.518c-.054.565-.575.972-1.233,1.488-.224.175-.455.356-.691.562-.778.676-1.649,1.441-2.492,2.182l-.008.007c-2.161,1.9-4.61,4.05-6.578,5.662,3.455.283,7.084.432,10.493.432,2.468,0,4.85-.077,7.079-.227,2.413-.163,4.667-.416,6.7-.75.51-.081,1.041-.217,1.553-.348a10.708,10.708,0,0,1,2.588-.443,3.906,3.906,0,0,1,1.36.227A4.8,4.8,0,0,1,316.949,162a1.751,1.751,0,0,1,.429,1.126c-.01.86-.729,1.783-2.2,2.823a36.892,36.892,0,0,1-4.23,2.428h0c-.739.382-1.436.742-1.951,1.049,2.753-.225,6.484-.6,8.7-.969a1.971,1.971,0,0,1,.324-.028,1.365,1.365,0,0,1,1.405,1.319,3.209,3.209,0,0,1-.638,1.991,5.36,5.36,0,0,1-1.7,1.425,23.491,23.491,0,0,1-4.912,1.828,19.954,19.954,0,0,0-3.687,1.317,16.435,16.435,0,0,1,3.528-.44,6.332,6.332,0,0,1,2.4.388,2.171,2.171,0,0,1,1.377,1.475,3.262,3.262,0,0,1,.041,1.466,1.748,1.748,0,0,1-.55.916,5.636,5.636,0,0,1-2.184.945c-.421.12-.855.245-1.274.4a116.861,116.861,0,0,1-18.351,4.4,122.671,122.671,0,0,1-33.3.611,17.6,17.6,0,0,1-2.5,5.29,48.955,48.955,0,0,1-4.718,6.09,47.3,47.3,0,0,1-5.59,5.325,24.569,24.569,0,0,1-2.7,1.887,11.015,11.015,0,0,1-2.418,1.109,11.231,11.231,0,0,1-2.66.307,20.354,20.354,0,0,1-6.829-1.4c-2.3-.828-4.554-1.9-6.735-2.936-1.478-.7-2.875-1.366-4.191-1.908a79.784,79.784,0,0,1-11.266-6.846,75.185,75.185,0,0,1-10.191-8.875,60.581,60.581,0,0,1-8.14-10.575,45.843,45.843,0,0,1-5.113-11.948c-.694,4.9-1.492,10.684-2.14,16.39-.671,5.91-1.117,11.166-1.364,16.068-.286,5.674-.311,10.916-.078,16.027.124,2.728.327,5.448.6,8.086.287,2.746.662,5.5,1.115,8.182.648,3.834,2.235,9.477,3.636,14.455.8,2.838,1.553,5.518,2.075,7.647a.157.157,0,0,1,.022-.112.044.044,0,0,1,.034-.014c.288,0,1.659,2.026,2.984,3.986h0c.847,1.253,1.723,2.547,2.287,3.268a9.755,9.755,0,0,1,2.882,8.4,12.886,12.886,0,0,1-1.5,4.256,20.975,20.975,0,0,1-2.855,3.941,32.119,32.119,0,0,1-7.7,6.135c1.473,2.354,2.9,4.793,4.237,7.249,1.309,2.4,2.574,4.9,3.758,7.406,1.156,2.451,2.271,4.992,3.311,7.552,1.014,2.5,1.989,5.081,2.9,7.687,1.737,4.987,3.309,10.282,4.675,15.739,1.276,5.1,2.419,10.534,3.4,16.154.912,5.234,1.689,10.626,2.376,16.484.613,5.22,1.139,10.692,1.61,16.731.875,11.22,1.418,22.73,1.942,33.862v.017c.422,8.942.858,18.188,1.463,27.219.326,4.863.674,9.28,1.063,13.5.437,4.739.915,9.111,1.461,13.365.586,4.569,1.256,9.005,1.992,13.185.787,4.472,1.68,8.833,2.655,12.961,1.031,4.367,2.192,8.638,3.451,12.694,1.32,4.254,2.794,8.42,4.38,12.382a26.058,26.058,0,0,0,1.17,2.825v0a33.059,33.059,0,0,1,1.675,4.167,5.483,5.483,0,0,1,.114,3.685,2.612,2.612,0,0,1-.7.942,3.594,3.594,0,0,1-1.216.663c-.528,1.168-1.878,2.15-4.128,3a47.767,47.767,0,0,1-6.182,1.7h0c-1.224.277-2.281.517-3.095.769.52,1.477,1.045,3.121,1.6,4.863v0c1.429,4.484,3.05,9.566,5.083,13.154l.08-.035h0c.209-.093.763-.342,1.456-.593a8.721,8.721,0,0,1,2.777-.628,1.471,1.471,0,0,1,1.118.364,1.128,1.128,0,0,1,.241.893c1.194.7,3.786,2.079,6.788,3.679,5.678,3.028,12.744,6.8,12.819,7.274a.034.034,0,0,1-.009.031c3.1,1.051,6.374,1.95,9.544,2.818h0A114.142,114.142,0,0,1,275,566.989a42.1,42.1,0,0,1,6.416,3.323,32.742,32.742,0,0,1,2.936,2.112,29.766,29.766,0,0,1,2.71,2.482c.151.168.306.338.471.517a15.743,15.743,0,0,1,2.233,2.848,3.57,3.57,0,0,1,.348,3.269,4.812,4.812,0,0,1,1.735,1.247,6.343,6.343,0,0,1,1.159,1.883,7.189,7.189,0,0,1,.32,4.452,5.642,5.642,0,0,1-1.574,2.423,11.563,11.563,0,0,1-2.94,1.94,25.549,25.549,0,0,1-4.1,1.506,50.255,50.255,0,0,1-5.064,1.121C273.3,597.207,264.864,597.739,253.852,597.739ZM36.519,189.174h0a8.714,8.714,0,0,1-2.308.505h0c-.467.069-.87.128-1.055.178a37.155,37.155,0,0,0,.773,4.331,43.908,43.908,0,0,0,1.252,4.242,60.2,60.2,0,0,0,3.638,8.226,164.4,164.4,0,0,0,9.707,15.5c1.93,2.84,3.753,5.523,5.427,8.2a36.592,36.592,0,0,1-.741-5.775c-.159-2.24-.237-4.485-.257-5.84-.014-3.705.15-7.467.5-11.5.312-3.595.767-7.324,1.39-11.4C56,188.261,57.577,180.6,59.1,173.2c1.29-6.257,2.623-12.727,3.7-19.122.578-3.442,1.037-6.587,1.4-9.616.411-3.4.7-6.568.869-9.681a97.557,97.557,0,0,0-.478-19.824c-1.93,5.277-3.984,10.527-6.1,15.6-2.164,5.183-4.46,10.335-6.824,15.314-1.073,1.954-2.039,4.062-2.973,6.1v0c-.958,2.09-1.948,4.251-3.067,6.279a30.092,30.092,0,0,1-3.916,5.663,28.522,28.522,0,0,1,3.232.362c1.186.205,2.622.559,2.722,1.079.055.285-.3.592-1.041.914a58.356,58.356,0,0,1-3.259,8.6,63.47,63.47,0,0,0-3.063,7.893,17.169,17.169,0,0,0-.264,2.145,14.311,14.311,0,0,1-.485,3.131,2.62,2.62,0,0,1-.616,1.076,1.466,1.466,0,0,1-1.057.415,3.332,3.332,0,0,1-1.361-.359Z" transform="translate(31.349 -4.503)" fill="#d08b5b"/>
      <path id="_Pants" data-name="ðŸ‘– Pants" d="M74.484,0l3.094,2.1,1.1.741c7.134,4.811,13.258,8.668,19.312,12.07l.615.344.615.341a129.8,129.8,0,0,0,23.965,10.564c17.955,5.6,34.1,4.771,48.712-3.776l.442-.261.7-.415.6,1.374.566,1.307c3.108,7.2,5.358,12.832,7.294,18.406l.086.25.163.473c5.63,15.586,9.335,32.294,11.733,51.437l.16,1.294c1.646,13.471,2.505,25.832,3.552,47.862l.1,2.139.484,10.417c.418,8.838.706,14.3,1.069,19.925l.092,1.412.151,2.24.077,1.1c.7,9.858,1.551,18.618,2.667,26.944l.149,1.095c2.839,20.647,7.345,38.532,14.3,55.1l.211.5.205.484-.4.338a1,1,0,0,0-.317.659l0,.053-.02.625-.624.06a27.578,27.578,0,0,0-5.5,1.24l-1.471.445-.567.169c-1.443.427-2.368.668-3.341.858l-.183.035-.309.056-.566.13-.573.128c-9.274,2.05-18.877,2.842-32.3,3.026l-.993.012-.108-.044-.009,0-.037-.006a2.146,2.146,0,0,0-.377.008l-.11.009-.986.092-.256-1c-.611-2.35-1.238-4.5-2.291-7.908l-.187-.6-1.286-4.124a130.138,130.138,0,0,1-3.861-14.345l-.078-.4-.082-.434,0-.025c-2.139-14.258-3.894-27.747-5.562-42.285l-.219-1.926c-.532-4.72-1.471-13.417-2.266-20.828l-1.382-12.938-.108-.983c-2.9-26.277-5.411-41-10.157-56.38a188.753,188.753,0,0,0-15.173-35.371l-.249-.454-.083-.15-.218.177a22.69,22.69,0,0,0-3.691,3.4l-.014.024-.369.7-.312.584-1.87,3.457c-.2.364-.366.683-.524.982l-.291.555-.417.808-.3.591-.207.41-.234.468-.486.726-.216.325-.411.621-.2.314c-3.172,4.93-5.655,10.241-8.924,18.639l-.422,1.089-.669,1.751-2,5.288-.962,2.528-.461,1.2c-.451,1.166-.875,2.246-1.294,3.294l-.209.521-.342.845-.534,1.31-.372.916c-4.278,10.567-8.7,22.267-13.431,35.447l-.907,2.532-.66,1.851c-2.643,7.429-5.338,15.177-8.456,24.281l-.789,2.3L73.3,194.507l-7.839,23.036-1.3,3.818-1.169,3.407-.339.73-.331.707a135.525,135.525,0,0,1-11.862,21.045l-.148.208-.084.154-.078.136a11.447,11.447,0,0,1-1.242,1.654l-.082.1-.666.767-.15.176c-1.117,1.324-1.525,2.051-1.578,2.942l-.015.339-1.166,1.142-.46-.24-.1-.051a17.858,17.858,0,0,0-5.022-1.083l-.294-.036-.681-.081-2.212-.25a25.164,25.164,0,0,1-3.89-.639l-.105-.032-.108-.034-.337-.066A103.389,103.389,0,0,1,1.242,240.9l-.336-.192-.336-.193L0,240.186l.608-1.27q2.432-5.092,4.923-10.559C16.11,205.142,27.123,177.841,40.3,142.836l.4-1.063,1.012-2.695.827-2.214c6.688-17.945,24.013-65.22,30.147-81.755l1.071-2.879.292-.781L78.572,40.3l.272-.66c.139-.337.285-.686.438-1.054l.4-.965,1.47-3.485.609-1.454c1.17-2.81,1.916-4.7,2.623-6.669l.086-.242.258-.733a16.807,16.807,0,0,0-.189-5.773l-.042-.247-.045-.251a21.381,21.381,0,0,0-3.713-9.092L80.679,9.6l-.023-.02-.677-.985c-1.457-2.128-2.537-3.767-3.536-5.383l-.083-.135Z" transform="translate(47.094 253.532)" fill="#ffcf77"/>
      <path id="_Shoes" data-name="ðŸ‘Ÿ Shoes" d="M237.555,58.023c-5.412,0-11.285-.1-17.457-.3-5.076-.164-10.344-.393-15.658-.681-9.6-.521-16.261-1.066-17.474-1.2-.736-.067-1.674-.115-2.76-.17a67.116,67.116,0,0,1-9.125-.9,18.935,18.935,0,0,1-4.2-1.252,8.639,8.639,0,0,1-1.63-.951,5.146,5.146,0,0,1-1.176-1.215,3.946,3.946,0,0,1-.663-1.887,5.773,5.773,0,0,1,.364-2.4.209.209,0,0,0,.063.01c.209,0,.4-.343.591-1.05.166-.625.308-1.447.446-2.242a7.817,7.817,0,0,1,.686-2.662L170.1,36.8c1.53-12.288,2.439-18.994,2.7-19.932.056-.088.131-.2.218-.314a3.475,3.475,0,0,1,1.553-1.118,5.4,5.4,0,0,1,1.909-.32c.14,0,.284,0,.427.013.1.006.215.019.349.039a3.443,3.443,0,0,1,.558.361l.149.02h.01l.066.01a.672.672,0,0,1,.14.039c.034-.055.063-.116.092-.175l.006-.013c.2.06.4.126.592.19a8.117,8.117,0,0,0,2.051.485l.623.274.806.359,2.328,1.045.52.231a39.084,39.084,0,0,0,14.545,3.378,21.625,21.625,0,0,0,2.912-.19,14.214,14.214,0,0,0,3.984-1.2,22.361,22.361,0,0,0,3.581-2.1,46.686,46.686,0,0,0,5.431-4.686c.565-.547,1.052-1.019,1.419-1.329a13.332,13.332,0,0,1,2.408-1.627A11.66,11.66,0,0,0,222.1,8.4a57.442,57.442,0,0,0,6.379,4.7,116.5,116.5,0,0,0,13.837,7.856,91.425,91.425,0,0,0,11.127,4.131A98.676,98.676,0,0,1,264.17,29.01a59.638,59.638,0,0,1,10.046,5.932,68.453,68.453,0,0,1,7.229,6.046L285.271,51.2c-.14.89-1.252,1.736-3.307,2.515a45.17,45.17,0,0,1-8.062,1.97,193.534,193.534,0,0,1-24.476,2.158C245.763,57.961,241.769,58.023,237.555,58.023Zm-167.22-11.4c-12.445,0-24.488-.375-35.8-1.114C22.2,44.706,10.682,43.46.319,41.809c-.312-.09-.409-3.744-.231-8.688.094-2.615.257-5.364.47-7.951.246-2.978.549-5.653.9-7.951l.046-.3c.567-3.6,1.17-6.3,1.576-7.937.447-1.8.775-2.8.818-2.895l.085-.142a8.228,8.228,0,0,1,2.45-2.432A7.675,7.675,0,0,1,8.061,2.7a5.042,5.042,0,0,1,1.68-.313,3.261,3.261,0,0,1,1.855.542l.023.019.458.413A49,49,0,0,0,18.3,8.116a27.968,27.968,0,0,0,4.6,2.409,13.013,13.013,0,0,0,4.729,1.036,7.358,7.358,0,0,0,2.117-.3A18.479,18.479,0,0,0,34.28,8.789l.009-.006c.349-.236.71-.479,1.068-.712,1.013-.653,1.948-1.279,2.852-1.885A43.362,43.362,0,0,1,48.914.434,11.422,11.422,0,0,1,51.26,1.768a29.841,29.841,0,0,1,3.734,3c.818.781,1.571,1.62,2.368,2.509a33.42,33.42,0,0,0,5.417,5.142c2.33,1.694,7.658,4.08,13.828,6.843,7.379,3.305,15.743,7.051,21.547,10.745a14.064,14.064,0,0,1,3.755,3.843,33.922,33.922,0,0,1,2.868,5.058,45.069,45.069,0,0,1,2.538,6.655C95,46.269,82.556,46.627,70.336,46.627ZM51.164.956A7.772,7.772,0,0,0,49.456.183c.13-.048.26-.1.386-.163L49.885,0a12.216,12.216,0,0,1,1.28.956Z" transform="translate(40.529 534.126)" fill="#fff"/>
      <path id="_Top" data-name="ðŸ‘• Top" d="M117.939,0l.385.048A11.823,11.823,0,0,1,122.143,1.1l.122.063.488.256.119.537a43.9,43.9,0,0,0,2.5,6.981l.039.078.025.049.088.162.185.424a99.206,99.206,0,0,0,14.5,23.33l.294.353.186.25c5.436,7.241,12.349,12.442,18.1,12.581l.174,0,.306,0c3.288-.075,6.219-1.8,8.749-5.462a20.042,20.042,0,0,0,3.087-9.5,52.088,52.088,0,0,0-.2-10.293l-.027-.265-.065-.628-.046-.424c-.02-.18-.053-.22-.119-.226h-.07l-.026,0-1.217.489-.457-1.386-.1-.287-.108-.313-.439-1.253-.139-.4-.111-.33c-.157-.477-.288-.9-.4-1.329l-.043-.159-.631-2.475,2.11.764q.167.06.33.126l.163.066.154.064.13.1a12.319,12.319,0,0,0,1.691,1.1l.1.058,1.044.588.232.2.158.137a25.666,25.666,0,0,1,3.032,3.293l.1.126.906,1.126.429.527.248.408.186.312.1.177.59,1.008.277.469a20.1,20.1,0,0,0,1.712,2.545l.106.129.076.091a19.659,19.659,0,0,0,3.78,3.28l.3.211.446.311.165.139a10.237,10.237,0,0,0,1.162.846l.108.065.131.047.57.406.437.314a56.9,56.9,0,0,1,7.517,6.3,55.381,55.381,0,0,1,4.1,4.662l.25.322c.209.271.4.528.625.834l.235.325,1.124,1.573.3.419c.431.589.76,1.015,1.107,1.431l.058.069.159.186.158.131.11.208a32.792,32.792,0,0,1,2.741,7.016l.059.229.069.2a37.413,37.413,0,0,1,1.747,8.079l.033.3.056.539c.181,1.828.271,3.437.345,6.059l.024.893.083,3.561.022.821a70.077,70.077,0,0,0,.555,7.8l.019.136.037.262,0,.035a127.877,127.877,0,0,0,7.234,30.158l.171.454.127.335.927,2.415.212.56a48.114,48.114,0,0,1,2.019,6.345,20.248,20.248,0,0,1,.475,7.39l-.027.185-.015.122a19.3,19.3,0,0,0-.119,3.887l.013.132.341,0a3.863,3.863,0,0,1,2.754,1.06l.07.068.069.07a7.322,7.322,0,0,1,1.4,2.373l.107.267c.131.333.463,1.175.707,1.771l.174.418.113.258a8.019,8.019,0,0,0,3.486,2.736,29.325,29.325,0,0,0,4.541,1.094l.214.087c2.994,1.2,5.678,1.77,10.956,2.483l.971.129,2.186.283c2.2.289,3.584.5,5.008.766l.408.079,2.875.573-2.211,1.59c-3.8,2.733-17.6,17.487-18.3,22.542-.83,6,11.962,2.038,13.74.087l.2-.22.194-.217.594-.674.585.04.578.041c1.164.087,2.372.2,3.664.335l2.248.243-1.592,2.438-.416.633-.284.429-.29.435-.3.44c-4.1,6.086-7.571,10.064-11.869,13.013l-.145.1-.081.059a6.62,6.62,0,0,1-3.579,1.218l-.131.005-.132,0h-.1a10.167,10.167,0,0,1-2.26-.274l-.183-.042a22.483,22.483,0,0,1-2.43-.752l-.26-.093-.846-.308-.654-.234-.2-.069q-4.309-1.539-8.4-3.48c-17.53-8.226-30.889-20.679-36.423-35.857l-.165-.461-.18-.521-2.866.624-.076.657c-3.464,30.241-2.777,54.293,3.42,76.7l.189.679.177.623.3.716c.894,2.142,1.869,4.353,3.1,7.049l.509,1.112.354.108.225.476a16.024,16.024,0,0,0,.982,1.776l.09.14a19.387,19.387,0,0,0,1.431,1.887l.166.2.988,1.173.215.259.13.159.125.156.209.264c.1.123.187.241.274.356l.127.171.132.232a14.514,14.514,0,0,1,1.217,2.692l.051.164.026.084.013.087c.757,5.111-1.451,9.678-5.945,13.653A45.1,45.1,0,0,1,179.934,270l-.291.117a57.487,57.487,0,0,1-19.206,3.735l-.323.006-.818.006c-9.721,0-19.518-2.418-30.163-7.077l-.473-.208c-7.549-3.337-14.476-7.194-25.626-14.011l-.7-.43-1.5-.921-4.111-2.534-.089-.2-.194-.156-.13-.1a20.933,20.933,0,0,0-3.191-1.92l-.252-.131-.741-.382-.85-.442-.6-.366-.908-.548c-3.292-1.979-6.163-3.646-8.905-5.159l-.249-.137-.688-.376-.039-.022q-2.474-1.472-4.883-2.851l-.647-.369-.548-.379-.488-.335-.491-.334-.371-.249a37.621,37.621,0,0,0-5.9-3.354,21.052,21.052,0,0,0-4.968-1.6l-.154-.024-.241-.036-.207-.128a15.518,15.518,0,0,1-2.353-1.76,9.941,9.941,0,0,1-3.067-5.543l-.029-.145-.093-.472.263-.4a2.632,2.632,0,0,0,.1-.861l0-.138.01-.417.006-.181a4.1,4.1,0,0,1,.162-1.152l.026-.077.023-.185c.316-2.583.494-4.852.705-8.781l.043-.823.224-4.451c.119-2.284.224-3.957.356-5.562l.045-.533.068-.754.063-.751c.681-7.887,1.769-14.531,4.41-28.18l1.381-7.119c.728-3.787,1.214-6.419,1.661-9.032l.182-1.071.267-1.613.133-.828a147.244,147.244,0,0,0,2.1-22.985,82.432,82.432,0,0,0-2.966-22.941l-.1-.355-.039-.134-2.136,2.043s-13.511,28.006-20,40.593l-.308.595-.06.149a13.155,13.155,0,0,0-.137,4.682l.026.228.029.232.035.254a12.161,12.161,0,0,0,.621,2.6,3.23,3.23,0,0,0,.232.482l.026.042.017.025h.132q.321,0,.641-.006l.319-.005.476-.011,2.825-.083-1.473,1.966a59.313,59.313,0,0,0-9.469,19.272l-.086.307-.346,1.263-1.111-.1-.2-.016L34,176.293l-.731-.068-.234-.366-.438.273-.8-.152-.642-.126a155,155,0,0,1-17.219-4.717l-.754-.24-2.854-.913L8.806,169.5l-.222-.076-.2-.07-.188-.069c-2.163-.8-3.4-1.872-4-3.856l-.045-.154-.044-.23L2.045,154.228,1.709,152.5c-.363-1.855-.7-3.511-1.027-5.108L.434,146.2,0,144.16l2.13-.182.251-.023a13.6,13.6,0,0,0,1.577-.224l.094-.021.02-.495.019-.438c.023-.517.051-1.057.084-1.627l.029-.5.045-.711c.25-3.817.663-8.022,1.287-12.567A167.092,167.092,0,0,1,15.3,88.936c3.652-9.262,9.315-18.853,16.638-28.7A247.693,247.693,0,0,1,51.586,37.2c9.451-10.06,16.954-17.011,25.043-22.679C86.647,7.5,96.764,3.2,107.532,1.86l.277-.034.447-.087c.627-.12,1.244-.228,2.085-.365l.151-.024L113.3.9l.765-.125c1.009-.168,1.775-.31,2.524-.47l.321-.07L117.26.16Z" transform="translate(31.096 7.804)" fill="#9ddadb"/>
      <path id="_Ink" data-name="ðŸ– Ink" d="M255.252,594.677c-6.7,0-13.423-.183-19.121-.362l-2.775-.089-.283-.009c-4.378-.142-8.16-.264-10.786-.264-.56,0-1.045.005-1.481.016-2.832-.361-6.906-.462-11.624-.58a180.24,180.24,0,0,1-19.649-1.2c-1.6-.225-3.081-.491-4.4-.789a30.463,30.463,0,0,1-3.826-1.109,15.733,15.733,0,0,1-3.069-1.491,7.974,7.974,0,0,1-2.126-1.936,4.8,4.8,0,0,1-1.071-2.183,5.736,5.736,0,0,1,.014-2.478,4.78,4.78,0,0,1,.813-1.8,3.655,3.655,0,0,1,1.529-1.2c-1.321-1.014-.757-3.914-.259-6.473v0a18.808,18.808,0,0,0,.446-3.08l.044-.289c.267-1.682,1.546-9.036,2.916-14.281.024-.358.071-.748.145-1.23l.042-.264a14.6,14.6,0,0,1,.567-2.415,7.029,7.029,0,0,1,1.158-2.177,4.761,4.761,0,0,1,1.328-1.138,5.032,5.032,0,0,1,1.613-.591c.285-1.821.537-3.733.769-5.845.148-2.238.209-4.557.183-6.894-.015-1.255-.048-2.394-.1-3.482-.011-.217-.015-.441-.02-.678v-.011a9.453,9.453,0,0,0-.19-2.052.538.538,0,0,1-.581.148,5.791,5.791,0,0,1-1.051-.531c-.106-.063-.225-.133-.34-.2a.306.306,0,0,1-.033-.023l0,0-.007-.005a1.325,1.325,0,0,1-.722.234c-.68,0-1.355-.609-2.064-1.862a28.26,28.26,0,0,1-1.563-3.544v0c-.279-.722-.521-1.346-.724-1.741-1.115-3.193-2.166-6.531-3.123-9.922-.913-3.231-1.771-6.616-2.55-10.059-1.439-6.356-2.652-13.046-3.709-20.451-.881-6.17-1.665-12.96-2.4-20.759-.654-6.955-1.207-14.046-1.743-20.9v-.008c-.721-9.24-1.467-18.8-2.467-28.119-.539-5.021-1.106-9.576-1.734-13.927-.705-4.885-1.469-9.389-2.335-13.77-.93-4.7-1.985-9.268-3.137-13.563-1.232-4.6-2.624-9.072-4.138-13.306-1.6-4.478-3.4-8.852-5.341-13a137.136,137.136,0,0,0-6.744-12.644c-3.738,8.012-7.042,15.45-10.539,23.325l-.011.026c-.987,2.222-2.007,4.519-3.041,6.838-4.746,10.642-10.272,24.866-16.892,43.486-5.782,16.263-11.676,33.847-16.877,49.362-3.807,11.356-7.4,22.083-10.573,31.175-1.677,3.614-3.474,7.089-5.34,10.328a110.727,110.727,0,0,1-6.312,9.764,18.284,18.284,0,0,0-1.288,1.723l0,0a8.177,8.177,0,0,1-3.253,3.237l-.185.028c-.687,1.283-1.489,1.906-2.449,1.906h-.057a6.146,6.146,0,0,1-.869-.09c-1.142,7.93-2.465,14.927-4.046,21.39l.232-.1a8.4,8.4,0,0,1,3.089-.774c.127,0,.254.006.378.017,1.057.267,1.66.812,1.7,1.535a2.01,2.01,0,0,1-.569,1.384,3.894,3.894,0,0,1-1.579,1.049,8.942,8.942,0,0,1,2.978,1.67,28.942,28.942,0,0,1,2.529,2.419c.382.4.777.805,1.173,1.194a10.079,10.079,0,0,1,4.812-1.259c.311,0,.626.015.938.046a1.093,1.093,0,0,1,.728.36,2.219,2.219,0,0,1,.344.026l-.226.136a1.11,1.11,0,0,1,.03,1.1.961.961,0,0,1-.877.469,12.324,12.324,0,0,0-2.163.2c-.433.253-.942.554-1.439.865a50.711,50.711,0,0,0,5.058,3.9,18.693,18.693,0,0,1,2.925-1.187,1.116,1.116,0,0,1,.332-.053.9.9,0,0,1,.664.288,1.194,1.194,0,0,1,.31.657,1.011,1.011,0,0,1-.738,1.165c-.269.077-.542.164-.834.266l-.271.164-.2.118a31.511,31.511,0,0,0,3.593,2.189c1.184.624,2.463,1.22,3.909,1.822,2.689,1.12,5.564,2.091,8.344,3.031,2.469.835,5.023,1.7,7.436,2.661a44,44,0,0,1,6.837,3.346,23.811,23.811,0,0,1,5.643,4.717,20.1,20.1,0,0,1,2.188,3.087,21.316,21.316,0,0,1,1.667,3.688,1.911,1.911,0,0,1-.175,1.605,5.074,5.074,0,0,1,1.344,2.224,5.526,5.526,0,0,1,.2,2.549l.024.132a2.914,2.914,0,0,1-.138,1.712,1.769,1.769,0,0,1-1.327.974c-4.639.431-9.256.78-13.723,1.037-4.626.266-9.254.442-13.753.523l-.742.006c-.8.005-1.715.008-2.724.008-5.725,0-25.835-.1-44.256-1.435a190.235,190.235,0,0,1-22.367-2.667,39.759,39.759,0,0,1-7.388-2.076,10.279,10.279,0,0,1-2.263-1.255,3.176,3.176,0,0,1-1.126-1.412c-.777-1.578-1-4,.119-5.385a3.989,3.989,0,0,1,.847-1.968,4.724,4.724,0,0,1-1.107-2.864,25.637,25.637,0,0,1-.056-3.623,21.434,21.434,0,0,0-.007-2.479c.108-2.113.3-4.137.563-6.017a49.793,49.793,0,0,1,1.206-5.99,36.825,36.825,0,0,1,2.04-5.719,28.544,28.544,0,0,1,3.065-5.207.558.558,0,0,1,.274-.2,4.9,4.9,0,0,1,3.236-1.461l.028-.069,0-.012c.028-.071.058-.144.086-.216.934-2.2,1.821-4.427,2.865-7.094.657-2.57,1.331-5.1,2.141-8.106.718-2.663,1.433-5.38,2.126-8.074.111-.431.216-.863.327-1.321v0a28.782,28.782,0,0,1,1.654-5.3l-.014-.049c-.022-.076-.043-.145-.065-.214l-.994-.4c-2.757-1.119-6.3-2.6-9.226-4.162a25.952,25.952,0,0,1-3.744-2.34,4.926,4.926,0,0,1-1.853-2.246,1.422,1.422,0,0,1,.262-1.3c14.317-29.714,28.5-67,42.212-103.061l.014-.036c4.62-12.147,9.4-24.708,14.019-36.542C73.517,340.263,78,329.2,82.055,319.7c.382-1.124.747-2.117,1.114-3.035,1-2.5,2-4.964,2.976-7.315l.6-1.459,9.656-23.2c.259-.622.531-1.254.794-1.865l.01-.024c.763-1.773,1.552-3.606,2.143-5.465a10.852,10.852,0,0,0,.592-3.593A6.692,6.692,0,0,0,99.667,272a6.437,6.437,0,0,0-.8-1.685,27.232,27.232,0,0,0-2.718-3.284c-.641-.7-1.3-1.417-1.9-2.162a46.273,46.273,0,0,1-3.168-4.462,30.231,30.231,0,0,1-1.8-2.776l-.014-.024c-.16-.268-.312-.521-.461-.764-.223-.363-.454-.727-.7-1.112l0,0a26.327,26.327,0,0,1-2.46-4.488c-1.087-.684-2.058-1.29-2.969-1.852-1.892-1.059-3.541-2.057-5.043-3.052-2.133-1.267-4.241-2.487-6.264-3.624-.721-.357-1.466-.725-2.28-1.125-.075.007-.157.01-.243.01a8.866,8.866,0,0,1-2.381-.448,26.941,26.941,0,0,1-3-1.122,21.779,21.779,0,0,1-5.1-2.946c-.236-.047-.475-.1-.732-.166a5.433,5.433,0,0,1-.4,1.711,3.938,3.938,0,0,1-1.019,1.413,4.122,4.122,0,0,1-1.845.435,7.336,7.336,0,0,1-4.4-1.882,25.018,25.018,0,0,1-4.186-4.453,52.368,52.368,0,0,1-3.467-5.232c-.845-1.444-1.662-2.982-2.242-4.219-.994.97-1.273,2.895-.829,5.721a32.411,32.411,0,0,0,1,4.217c.428,1.424.969,2.973,1.607,4.606a92.836,92.836,0,0,0,4.031,8.832,42.781,42.781,0,0,0,3.444,5.748l.177.262.239.359a14.108,14.108,0,0,0,2.827,3.429l.127.1a1.757,1.757,0,0,1,.748,1.184,1.667,1.667,0,0,1-.43,1.278,5.7,5.7,0,0,1-1.614,1.052,4.2,4.2,0,0,1-1.614.326,5.592,5.592,0,0,1-2.813-.862,13.311,13.311,0,0,1-2.688-2.182,49.315,49.315,0,0,1-4.681-5.883l0,0c-.785-1.1-1.464-2.047-2.057-2.754a133.125,133.125,0,0,1-9.1-15.543,126.751,126.751,0,0,1-6.9-16.746,115.271,115.271,0,0,1-4.307-17.548c-.483-2.984-.84-5.995-1.062-8.949-.226-3.01-.317-6.037-.271-9-.911-.3-1.854-.58-2.852-.871l-.009,0c-2.805-.819-5.706-1.665-7.89-3.192a8.073,8.073,0,0,1-2.622-2.878,7.581,7.581,0,0,1-.7-1.97,9.951,9.951,0,0,1-.185-2.4c-.148-2.958-.485-5.95-.81-8.843-.363-3.22-.737-6.548-.853-9.841a.567.567,0,0,1,.162-.432,2.95,2.95,0,0,1,1.989-.452,22.767,22.767,0,0,1,3.188.3l.084.013a89.777,89.777,0,0,1-.446-10.8,104.574,104.574,0,0,1,.77-10.791c.424-3.466,1.03-7.062,1.8-10.686.724-3.406,1.614-6.934,2.646-10.487a121.427,121.427,0,0,1,5.42-14.4c2.306-5.2,5.033-10.582,8.1-16.011C26.892,72.96,30.39,67.387,34.114,62c3.909-5.649,8.046-11.055,12.3-16.068a169.025,169.025,0,0,1,13.8-14.52A121.287,121.287,0,0,1,75.128,19.5c10.921-7.31,21.554-11.291,31.6-11.832a.14.14,0,0,1-.008-.121.119.119,0,0,1,.084-.067,15.959,15.959,0,0,1,3.9-.4c.678,0,1.357.021,2.014.042h.009l.128,0c.4.013.8.023,1.192.034,1.656.044,3.368.09,5.028.279a11.865,11.865,0,0,1,3.17.8A7.439,7.439,0,0,1,124.891,10l.5-.893a23.22,23.22,0,0,0,1.548-3.246,17.881,17.881,0,0,0,.53-1.792c.044-.223.08-.452.115-.673a6.057,6.057,0,0,1,.511-1.888.385.385,0,0,1,.022-.035l0,0,.013-.019A11.572,11.572,0,0,1,128.654,0c.252.1.436.473.548,1.1a.871.871,0,0,1,.618.631,6.07,6.07,0,0,1-.179,2.628q-.029.137-.058.272l-.023.11a27.687,27.687,0,0,1-.7,2.733l-.041.227a22.033,22.033,0,0,1-1.321,4.637,5.891,5.891,0,0,1-.892,1.5,1.391,1.391,0,0,1-1.006.565.964.964,0,0,1-.347-.067l.359.653c2.007,3.637,3.948,6.949,5.935,10.125a139.411,139.411,0,0,0,8.484,12.2,60.891,60.891,0,0,0,9.875,10.269,24.514,24.514,0,0,0,5.1,3.153,12.476,12.476,0,0,0,5.011,1.163,9.175,9.175,0,0,0,2.728-.41,10.379,10.379,0,0,0,2.609-1.5,10.254,10.254,0,0,0,1.944-2.052,12.561,12.561,0,0,0,1.369-2.48,17.3,17.3,0,0,0,.881-2.788,40.243,40.243,0,0,0,.427-11.825,1.972,1.972,0,0,1-1.025.324,2.282,2.282,0,0,1-1.795-1.217,17.1,17.1,0,0,1-2.032-5.835,67.931,67.931,0,0,1-1.087-8.168c-.208-2.661-.3-5.4-.267-7.7a17.191,17.191,0,0,1,.429-4.427.249.249,0,0,1,.147-.055c.255,0,.495.5.732,1.522.2.882.372,2,.52,2.981a14.863,14.863,0,0,0,.382,2.065c.585,2.611,1.281,5.241,1.954,7.784v0c.212.8.452,1.707.679,2.58a14.278,14.278,0,0,1,5.277,2.212l.094.052h0c.041.023.088.048.132.075a9.087,9.087,0,0,1,2.357,2.133,20.709,20.709,0,0,1,1.993,2.692c.782.887,1.555,1.808,2.3,2.7l0,.006c.52.62,1.058,1.262,1.6,1.888.6.7,1.244,1.41,1.907,2.107l.5.421.252.208a65.514,65.514,0,0,1,10.316,7.893,52.04,52.04,0,0,1,8.042,9.6,44.034,44.034,0,0,1,7.107,24.159A124.367,124.367,0,0,0,211.742,93.9a126.645,126.645,0,0,0,3.562,16.723,75.025,75.025,0,0,0,3.331,9.855,67.2,67.2,0,0,1,3.692,11.423,23.8,23.8,0,0,1,.446,5.776,19.035,19.035,0,0,1-.376,2.9,18.46,18.46,0,0,1-.87,2.915,5.194,5.194,0,0,1,.816-.068,3.819,3.819,0,0,1,1.694.374,4.5,4.5,0,0,1,1.313.987,15,15,0,0,1,2,3.01,11.737,11.737,0,0,0,2.668,3.645l.971.262a113.352,113.352,0,0,0,12.761,2.816c1.245.149,2.518.2,3.865.258,3.012.125,6.127.254,8.8,1.537.993.7.964,1.843.937,2.944-.009.348-.018.707.007,1.043a120.563,120.563,0,0,0,11.287-5.382c3.663-1.96,7.313-4.08,10.842-6.13l.006,0c1.742-1.012,3.543-2.058,5.329-3.076l.3-.108a38.15,38.15,0,0,1,3.708-1.13,18,18,0,0,1,4.176-.577,8.139,8.139,0,0,1,2.319.3,4.583,4.583,0,0,1,1.865,1.04,2.6,2.6,0,0,1,.654,1.376,2.349,2.349,0,0,1-.237,1.279,7.527,7.527,0,0,1-1.862,2.187c-1.689,1.494-3.468,2.932-5.189,4.323-1.024.828-2.083,1.684-3.113,2.544,2.13.178,4.334.268,6.55.268,2.547,0,5.191-.119,7.861-.354,2.528-.223,5.158-.556,7.816-.991l.4-.066c.377-.061.76-.139,1.165-.221a14.642,14.642,0,0,1,2.847-.385,4.808,4.808,0,0,1,1.7.276,5.742,5.742,0,0,1,1.741,1.38,2.323,2.323,0,0,1,.537,1.4,2.93,2.93,0,0,1-.586,1.682,8.216,8.216,0,0,1-1.5,1.586,30.248,30.248,0,0,1-3.832,2.6h0l-.378.228c2.4-.2,4.8-.5,7.106-.9a1.935,1.935,0,0,1,.324-.028,1.377,1.377,0,0,1,1.406,1.343,3.905,3.905,0,0,1-.5,2.051,4.458,4.458,0,0,1-1.353,1.424,16.141,16.141,0,0,1-4.031,1.77,18.517,18.517,0,0,0-3.062,1.229l.245-.058a11.677,11.677,0,0,1,2.516-.347,3.75,3.75,0,0,1,1.858.409,2.37,2.37,0,0,1,1.127,1.558,2.678,2.678,0,0,1-.221,1.83,4.006,4.006,0,0,1-1.237,1.358,15.026,15.026,0,0,1-3.561,1.7c-.216.08-.4.147-.566.213a115.058,115.058,0,0,1-18.35,4.48,120.444,120.444,0,0,1-33.3.623,18.076,18.076,0,0,1-2.5,5.388,49.769,49.769,0,0,1-4.718,6.2,47.674,47.674,0,0,1-5.59,5.424,24.547,24.547,0,0,1-2.7,1.922,10.921,10.921,0,0,1-2.418,1.13,11.032,11.032,0,0,1-2.66.312,20.026,20.026,0,0,1-6.829-1.425c-2.3-.843-4.553-1.935-6.735-2.99-1.478-.715-2.873-1.39-4.191-1.943a84.386,84.386,0,0,1-11.13-6.762,71.2,71.2,0,0,1-9.894-8.575,56.572,56.572,0,0,1-7.843-10.307,48.346,48.346,0,0,1-2.9-5.778,44.977,44.977,0,0,1-2.08-6.181c-.9,6.5-1.51,13.162-1.8,19.808-.287,6.514-.279,13.178.023,19.809.3,6.5.882,13.139,1.743,19.729.844,6.463,1.974,13.047,3.357,19.57,1.026,2.328,1.944,4.22,2.89,5.956a.755.755,0,0,1,.652.7c.029.207.071.427.134.693.577.978,1.193,1.951,1.79,2.891l0,0c.493.778,1,1.583,1.488,2.386.254.421.464.794.64,1.138a11,11,0,0,1,2.326,4.361,10.7,10.7,0,0,1,.154,4.523,15.281,15.281,0,0,1-1.555,4.447,22.9,22.9,0,0,1-2.8,4.124,29.294,29.294,0,0,1-7.467,6.309c1.474,2.4,2.9,4.876,4.237,7.367,1.309,2.437,2.573,4.957,3.757,7.49a161.341,161.341,0,0,1,6.2,15.319c1.735,5,3.305,10.284,4.667,15.716,1.273,5.079,2.413,10.478,3.388,16.049.908,5.188,1.681,10.526,2.364,16.317.608,5.159,1.131,10.563,1.6,16.52.866,11.068,1.4,22.417,1.914,33.393v0c.415,8.825.843,17.95,1.443,26.886.323,4.813.667,9.186,1.054,13.37.434,4.7.909,9.04,1.453,13.275.584,4.547,1.252,8.97,1.985,13.147.784,4.468,1.676,8.837,2.65,12.985,1.03,4.388,2.19,8.691,3.447,12.79,1.32,4.3,2.793,8.528,4.378,12.561l.065.212c.148.471.336,1.009.535,1.579.994,2.844,2.355,6.738,1.192,9.124a3.3,3.3,0,0,1-.81,1.059,3.94,3.94,0,0,1-1.316.732c-.509,1.148-1.733,2.064-3.74,2.8a39.227,39.227,0,0,1-5.662,1.417c-1.3.259-2.536.5-3.45.791,1.091,3.156,2.059,5.727,3.046,8.092a76.621,76.621,0,0,0,3.741,7.793l.051.023a6.514,6.514,0,0,1,1.522-.794,5.246,5.246,0,0,1,1.772-.364,1.763,1.763,0,0,1,1.216.383,2.226,2.226,0,0,1,.716.215,12.561,12.561,0,0,1,2.4,1.726,16.485,16.485,0,0,0,1.836,1.408,22.555,22.555,0,0,0,2.469,1.339c.2.091.4.175.593.256a5.425,5.425,0,0,1,1.685.955.666.666,0,0,1,.205.655h0c.464.241.989.514,1.524.794l.276-.172c1.174-.73,2.255-1.354,3.126-1.8a5.837,5.837,0,0,1,1.837-.727c.087,0,.141.025.158.073.108.3-1.121,1.516-3.554,3.515,2.066.954,4.338,1.878,7.15,2.908a14.9,14.9,0,0,1,5.807-1.611.156.156,0,0,1,.031.123c-.05.388-1.122,1.179-1.984,1.815a9.887,9.887,0,0,0-.914.717c1.774.613,3.608,1.219,5.381,1.8l0,0a140.585,140.585,0,0,1,15.862,5.955,53.274,53.274,0,0,1,7.3,4.114,41.455,41.455,0,0,1,3.351,2.53,37.231,37.231,0,0,1,3.1,2.917l.1.116c.109.123.22.246.338.377l.03.033a16,16,0,0,1,2.234,2.9,3.7,3.7,0,0,1,.349,3.331,4.815,4.815,0,0,1,1.735,1.27,6.48,6.48,0,0,1,1.159,1.919,7.448,7.448,0,0,1,.319,4.534,5.586,5.586,0,0,1-1.625,2.468,12.023,12.023,0,0,1-3.085,1.976,27.372,27.372,0,0,1-4.326,1.534,54.575,54.575,0,0,1-5.349,1.142,120.2,120.2,0,0,1-12.889,1.31C265.335,594.564,260.64,594.677,255.252,594.677Zm-76.837-14.91a5.773,5.773,0,0,0-.364,2.4,3.949,3.949,0,0,0,.663,1.887,5.149,5.149,0,0,0,1.176,1.214,8.645,8.645,0,0,0,1.63.951,18.927,18.927,0,0,0,4.2,1.252,67.079,67.079,0,0,0,9.125.9h.01c1.082.055,2.017.1,2.75.17,1.422.151,8.594.574,17.844.942,8.294.33,20.85.724,33.561.724h0c12.346,0,22.275-.372,29.51-1.106a60.554,60.554,0,0,0,9.883-1.65,13.045,13.045,0,0,0,2.977-1.177,2.873,2.873,0,0,0,1.384-1.442,1.727,1.727,0,0,0-.244-1.464,6.324,6.324,0,0,0-1.708-1.69c-4.806,1.83-12.429,3.358-22.045,4.421-4.6.508-9.568.9-14.77,1.167s-10.551.4-15.9.4a254,254,0,0,1-33.586-2.031,112.139,112.139,0,0,1-13.67-2.642,40.071,40.071,0,0,1-9.824-3.817,2.578,2.578,0,0,1-1.812.713,2.622,2.622,0,0,1-.791-.12h0Zm9.18-28.874a5.4,5.4,0,0,0-1.909.32,3.474,3.474,0,0,0-1.553,1.118c-.068.088-.136.185-.218.314a12.083,12.083,0,0,0-.286,4.8,1.2,1.2,0,0,1-.418,1.106c-.187,4.5-.6,9.073-1,13.5v.006c-.182,2.017-.37,4.1-.533,6.143a46.016,46.016,0,0,0,7.96,2.083c7.727.949,15.432,1.675,22.9,2.158,7.766.5,15.5.757,23,.757,3.368,0,6.758-.052,10.076-.153,5.593-.2,11.2-.556,16.664-1.054,5.574-.507,11.152-1.177,16.578-1.99,1.241-.117,2.514-.364,3.745-.6a27.952,27.952,0,0,1,5.249-.681,11.329,11.329,0,0,1,1.763.13,1.627,1.627,0,0,1,.716-.7,34.183,34.183,0,0,0-2.929-3.487,36.666,36.666,0,0,0-3.268-3.006,46.047,46.047,0,0,0-7.348-4.84,123.025,123.025,0,0,0-16.51-6.885c-2.723-.984-5.539-2-8.226-3.082a13.2,13.2,0,0,0-2.569,2.413,20.412,20.412,0,0,1-1.642,1.7,5.884,5.884,0,0,1-1.912,1.188,2.07,2.07,0,0,1-.307.022,2.112,2.112,0,0,1-1.547-.625,1.31,1.31,0,0,1-.324-1.052c.308-1.919,1.954-3.035,3.545-4.114.5-.341.977-.663,1.412-1.009-2.092-.976-3.982-1.964-5.778-3.023-.8.722-1.682,1.379-2.532,2.014a27.11,27.11,0,0,0-3.235,2.69,1.283,1.283,0,0,1,0,1.223,1.21,1.21,0,0,1-1.039.459,2.23,2.23,0,0,1-1.405-.516,1.974,1.974,0,0,1-.718-1.528,3.628,3.628,0,0,1,1.5-2.412,18.106,18.106,0,0,1,2.845-1.768,15.826,15.826,0,0,0,2.42-1.487,38.779,38.779,0,0,1-4.454-3.18c-1.311-1.073-2.634-2.274-4.046-3.67a11.654,11.654,0,0,1-2.621,1.843h0a13.327,13.327,0,0,0-2.406,1.626c-1.1.933-2.17,1.981-3.2,3a40.662,40.662,0,0,1-4.676,4.151,15.333,15.333,0,0,1-2.658,1.551,12.026,12.026,0,0,1-3.039.917,18.811,18.811,0,0,1-3.435.314,21.564,21.564,0,0,1-4.051-.4,30.546,30.546,0,0,1-3.946-1.043,81.644,81.644,0,0,1-7.68-3.146l0,0c-.823-.37-1.674-.753-2.509-1.117a8.1,8.1,0,0,1-2.048-.484l-.017-.006c-.19-.062-.386-.126-.578-.185l0,.007c-.028.057-.06.123-.095.18a.663.663,0,0,0-.14-.039l-.133-.019h0l-.087-.012a3.444,3.444,0,0,0-.559-.362c-.134-.02-.245-.033-.349-.039C187.876,550.9,187.733,550.893,187.6,550.893ZM12.029,568.849h0a1.36,1.36,0,0,1-.55.562c-.38.22-.291,1.225-.238,1.825v0c.011.118.02.22.023.3v.034c.024.805.073,1.631.151,2.522a7.289,7.289,0,0,0,2.847,1.537c5.341.851,10.859,1.6,16.4,2.225,5.367.605,10.911,1.112,16.479,1.507,5.377.381,10.939.669,16.531.856,5.38.179,10.951.271,16.558.271h.007c5.649,0,11.518-.093,17.441-.275,5.625-.173,11.486-.434,17.421-.773a4.993,4.993,0,0,0-1.181-2.11l-.028-.036-.177-.225c-5.8.492-11.815.731-18.4.731-6.627,0-13.891-.251-22.207-.767-7.4-.459-14.882-1.077-22.118-1.675h-.01l-.194-.016-1.371-.113c-2.81-.369-5.695-.694-8.485-1.009-4.823-.544-9.81-1.106-14.66-1.916-2.612-.437-4.971-.908-7.211-1.44-2.516-.6-4.817-1.257-7.032-2.014Zm.678-6.624a12.639,12.639,0,0,1,.015,4.022,3.8,3.8,0,0,0,.68.6,3.514,3.514,0,0,1,.732.664.445.445,0,0,1-.021.567c7.279.6,14.664,1.411,21.806,2.2,5.957.656,12.117,1.333,18.194,1.884,6.811.617,12.783,1,18.256,1.184,6.736.356,13.973.521,22.774.521,5.78,0,11.648-.071,17.324-.14h0a14.183,14.183,0,0,0-1.229-2.668,14.531,14.531,0,0,0-1.667-2.263,18.917,18.917,0,0,0-4.355-3.525A55.93,55.93,0,0,0,94.5,560.7l-.013,0c-1.156-.4-2.247-.779-3.316-1.175a52.634,52.634,0,0,1-8.584-3.986,53.262,53.262,0,0,1-7.733-5.457A16.876,16.876,0,0,0,72,552.659a34.511,34.511,0,0,0-2.391,3.027,2.852,2.852,0,0,1-.776.667,1.909,1.909,0,0,1-.939.282A1.23,1.23,0,0,1,66.825,556a1.333,1.333,0,0,1-.175-.96,2.648,2.648,0,0,1,.475-1.032,10.171,10.171,0,0,1,2.206-2.089,14.109,14.109,0,0,1,3.508-3.568,59.031,59.031,0,0,1-4.346-4.252c-2.8,1.9-4.877,4.622-6.885,7.258l-.078.1a1.115,1.115,0,0,1-.837.378,1.356,1.356,0,0,1-.714-.214,1.48,1.48,0,0,1-.517-.544,1.092,1.092,0,0,1,.058-1.168,19.015,19.015,0,0,1,2.148-2.313,17.214,17.214,0,0,1,2.124-3.126,14.6,14.6,0,0,1,2.78-2.529l-.156-.2c-.294-.377-.587-.775-.87-1.159v0a21.53,21.53,0,0,0-2.194-2.669,7.6,7.6,0,0,0-1.3-1.036,5.621,5.621,0,0,0-1.547-.671,65.968,65.968,0,0,0-7.962,3.35,78.891,78.891,0,0,0-7.494,4.287c-.36.234-.723.479-1.075.716l0,0a18.478,18.478,0,0,1-4.531,2.475,7.358,7.358,0,0,1-2.117.3,13.363,13.363,0,0,1-5.058-1.169,29.721,29.721,0,0,1-4.862-2.657,49.748,49.748,0,0,1-5.956-4.668c-.089-.081-.148-.134-.159-.141a3.877,3.877,0,0,0-2.185-.7,4.285,4.285,0,0,0-2.454.84,6.632,6.632,0,0,0-1.867,2.077c-.065.112-.623,3.192-1.144,6.87a85.787,85.787,0,0,0-1,11.082,12.686,12.686,0,0,0,.078,3.361v0Zm-.553,5.225c-.05.062-.1.116-.149.167a1.6,1.6,0,0,1,.11.3l.5.04A2.642,2.642,0,0,1,12.155,567.451Zm175.96-39.24c.656,3.654,1.1,6.916,1.365,9.971a69.5,69.5,0,0,1,.18,10.048c3.14.905,5.945,1.949,8.421,2.869h0c2.126.791,4.134,1.538,6.015,2.073a19.7,19.7,0,0,0,5.439.87,12.871,12.871,0,0,0,3.393-.443,14.567,14.567,0,0,0,3.486-1.468,31.362,31.362,0,0,0,7.765-6.846,12.448,12.448,0,0,1-1.171-2.607l0-.01c-.07-.192-.142-.391-.214-.586-.986-2.695-1.751-5.1-2.336-7.357a48.132,48.132,0,0,1-1.377-7.586c-3.291.62-6.524,1.1-9.609,1.417a94.581,94.581,0,0,1-9.7.519A76.732,76.732,0,0,1,188.114,528.211Zm-155.971-22.8a1.264,1.264,0,0,1-.784.7c-.152.671-.29,1.252-.421,1.777a20.714,20.714,0,0,1-.944,4.536c-.495,1.572-1.113,3.085-1.652,4.358-.061.143-.12.286-.186.445l-.058.139c-.6,1.791-1.233,3.6-1.844,5.349-.207.594-.394,1.13-.582,1.67-.461,1.816-.887,3.673-1.3,5.47l0,.011c-.131.569-.279,1.214-.425,1.843a32.576,32.576,0,0,1-.707,4.923,1.588,1.588,0,0,1-.064.212,18.059,18.059,0,0,1,1.636.844,51.4,51.4,0,0,0,7.063,4.649,10.3,10.3,0,0,0,4.637,1.369,6.716,6.716,0,0,0,3.17-.848,29.342,29.342,0,0,0,3.336-2.183,49.4,49.4,0,0,1,9.647-5.656,2.9,2.9,0,0,1,.345-1.5c.047-.111.1-.226.141-.342l.033-.085.016-.042.008-.02,0-.006.021-.055a2.458,2.458,0,0,1,.056-.8c1.262-5.152,2.959-10.3,4.6-15.281l.007-.02c.327-.992.665-2.017.993-3.024.33-.951.718-1.889,1.056-2.693a62.309,62.309,0,0,1-7.09-.513c-2.245-.288-4.607-.706-7.019-1.241-2.221-.493-4.483-1.081-6.914-1.8C36.79,506.966,34.574,506.252,32.143,505.411ZM90.977,254.628h0c8.586,10.69,15.945,20.2,22.5,29.086,3.272,4.435,6.373,8.759,9.217,12.851s5.535,8.1,8,11.918c2.453,3.8,4.768,7.546,6.881,11.132,2.1,3.557,4.069,7.088,5.865,10.493,1.773,3.362,3.439,6.727,4.951,10,1.485,3.216,2.878,6.465,4.139,9.656a175.3,175.3,0,0,1,6.248,18.863c1.618,5.986,3,12.281,4.22,19.244,2.318,13.218,3.844,27.635,5.611,44.329.941,8.895,2.008,18.976,3.306,29.861,1.483,12.446,3.059,24.191,4.816,35.906a149.576,149.576,0,0,0,4.59,16.992c1.143,3.651,2.324,7.426,3.289,11.188l.334-.033c.153-.015.316-.028.469-.028a1.37,1.37,0,0,1,.411.051l.009,0,.954-.012c6.7-.092,11.848-.321,16.7-.741a116.639,116.639,0,0,0,16.5-2.528,43.36,43.36,0,0,0,5.037-1.314h0a33.482,33.482,0,0,1,6.4-1.5,1.714,1.714,0,0,1,.575-1.234c-1.88-4.438-3.623-9.083-5.181-13.8-1.485-4.5-2.852-9.219-4.062-14.026-1.144-4.545-2.188-9.328-3.1-14.217-.855-4.57-1.63-9.407-2.3-14.378-.627-4.629-1.171-9.374-1.664-14.507-.439-4.576-.827-9.353-1.185-14.605-.665-9.759-1.125-19.729-1.57-29.371V403.9c-.41-8.893-.834-18.087-1.419-27.1-.655-10.112-1.447-18.92-2.421-26.927-.56-4.606-1.2-9.093-1.9-13.337-.749-4.541-1.6-8.989-2.525-13.22-.98-4.476-2.082-8.877-3.276-13.079-1.252-4.409-2.649-8.754-4.152-12.914-2.568-7.5-5.67-14.835-8.366-21.025a55.934,55.934,0,0,1-6.888,3.5,52.768,52.768,0,0,1-14.006,3.755,56.9,56.9,0,0,1-7.067.436,64.7,64.7,0,0,1-9.305-.7,78.718,78.718,0,0,1-9.261-1.95c-2.968-.808-6.049-1.818-9.158-3-2.91-1.108-5.937-2.4-9-3.852-12.074-5.712-23.565-13.24-33.212-19.851ZM28.039,508.418c-.117.514-.24,1.022-.358,1.513-.075.31-.142.59-.207.864l-.269,1.15A18.916,18.916,0,0,0,28.039,508.418Zm74.488-234.812a14.551,14.551,0,0,1-.951,5.224c-1.277,3.669-2.825,7.329-4.321,10.869-.679,1.605-1.38,3.265-2.049,4.909s-1.351,3.328-2.009,4.951l-.007.017-.009.022c-.754,1.861-1.533,3.784-2.3,5.675-4.768,12.719-9.724,26.254-14.971,40.583l-.006.017c-9.211,25.155-18.735,51.167-28.638,76.587C41.9,436.229,36.989,448.372,32.256,459.58c-2.58,6.11-5.129,11.984-7.575,17.459-2.579,5.773-5.13,11.3-7.583,16.416a102.229,102.229,0,0,0,15.323,7.223,103.286,103.286,0,0,0,16.309,4.606,30.793,30.793,0,0,0,5.11.812h.007c1.428.159,2.9.324,4.222.549a11.563,11.563,0,0,1,3.224.9l.594-.582a4.241,4.241,0,0,1,.736-2.1,16.168,16.168,0,0,1,1.5-1.894,12.556,12.556,0,0,0,1.748-2.329,110.759,110.759,0,0,0,6.833-11c1.858-3.386,3.753-7.176,5.793-11.586l.592-1.719q2.783-8.092,5.869-17.217v0c4.233-12.467,9.031-26.6,14.009-40.613,5.709-16.073,10.8-29.584,15.564-41.307l.41-1.006c1.525-3.734,2.907-7.394,4.244-10.934v0c1.755-4.648,3.413-9.038,5.249-13.233.983-2.247,1.933-4.245,2.9-6.109,1.082-2.078,2.169-3.948,3.321-5.716.343-.52.7-1.057,1.094-1.643.3-.6.57-1.137.822-1.627.669-1.3,1.379-2.61,2.065-3.874.531-.979,1.081-1.991,1.611-3a13.454,13.454,0,0,0,1.3-3.22c-1.993-3.495-4.1-7.022-6.437-10.783-2.082-3.349-4.3-6.806-6.788-10.57-4.616-6.992-9.465-14-14.153-20.774C107.661,281.073,105.062,277.318,102.527,273.605ZM89.543,91.354a.737.737,0,0,1,.627.243,1.263,1.263,0,0,1,.017,1.088A181.184,181.184,0,0,1,75.162,102.86l-.005,0c-3.089,1.944-6.282,3.954-9.333,6.038a75.9,75.9,0,0,1,1.944,8.1c.48,2.62.838,5.349,1.066,8.112a104.894,104.894,0,0,1,0,16.257c-.35,4.867-1.006,10.192-2.006,16.281-.891,5.429-1.967,10.946-3.006,16.281v0c-.991,5.087-2.016,10.346-2.878,15.511-.966,5.792-1.621,10.852-2,15.47-.285,3.06-.438,6.177-.586,9.191-.2,3.971-.4,8.078-.9,12.092a4.247,4.247,0,0,0-.175,1.423,3.623,3.623,0,0,1-.3,1.759,9.821,9.821,0,0,0,.907,2.676,8.467,8.467,0,0,0,1.828,2.368,14.3,14.3,0,0,0,2.175,1.625,22.445,22.445,0,0,1,5.422,1.714,51.736,51.736,0,0,1,8.579,5.163l.1.07c.324.225.66.458.989.685l.083.056c5.544,2.844,10.971,6.067,15.079,8.557l.225.118c.31.162.636.33.9.465a24.143,24.143,0,0,1,4.523,2.764.562.562,0,0,1,.156.208L101,257.732c4.5,2.775,9.3,5.712,14.113,8.438,5.288,3,10,5.4,14.391,7.34,2.5,1.106,4.97,2.091,7.335,2.927,2.524.893,5.03,1.651,7.447,2.255a67.927,67.927,0,0,0,7.572,1.45,59.437,59.437,0,0,0,7.712.513,55.687,55.687,0,0,0,9.834-.875c1.67-.3,3.358-.685,5.015-1.142,1.694-.467,3.4-1.024,5.085-1.654a57.3,57.3,0,0,0,6.477-3.063,35.677,35.677,0,0,0,6.266-4.337c4.355-3.853,6.225-8.09,5.558-12.593a13.509,13.509,0,0,0-1.26-2.783c-.127-.172-.269-.356-.435-.565-.364-.459-.748-.912-1.119-1.351l0-.005a26.768,26.768,0,0,1-2.2-2.854,17.288,17.288,0,0,1-1.054-1.907.857.857,0,0,1-.534-.486c-1.222-2.661-2.653-5.823-4-9.092a143.7,143.7,0,0,1-3.351-14.519c-.838-4.72-1.477-9.659-1.9-14.68-.4-4.744-.623-9.726-.661-14.808-.035-4.746.09-9.761.371-14.9.262-4.786.653-9.681,1.195-14.965.482-4.7,1.074-9.608,1.809-14.994,1.365-10,3.023-20.137,4.627-29.941l0-.013c1.225-7.487,2.492-15.229,3.6-22.783,1.248-8.467,2.173-15.83,2.826-22.51.086-.73.184-1.474.279-2.194v-.008a54.615,54.615,0,0,0,.619-7.075.1.1,0,0,1,.106-.107.114.114,0,0,1,.117.107,111.849,111.849,0,0,1,.7,20.611c-.351,7.092-1.174,14.075-2.012,20.565-.976,7.385-2.1,14.875-3.191,22.118v0c-1.429,9.506-2.907,19.335-4.062,29.036a46.86,46.86,0,0,0,2.468,6.238,50.52,50.52,0,0,0,3.276,5.787,59.462,59.462,0,0,0,8.556,10.213,75.561,75.561,0,0,0,10.525,8.382,90.867,90.867,0,0,0,11.652,6.532c2.68,1.271,5.472,2.427,8.3,3.436l.189.066c.334.117.681.243,1.016.365h0a15.821,15.821,0,0,0,5.218,1.272,5.482,5.482,0,0,0,3.359-1.074,35.583,35.583,0,0,0,7.516-7.087,95.634,95.634,0,0,0,6-8.457c-1.651-.179-3.13-.312-4.521-.407a50.99,50.99,0,0,1-6.109,5.863,63.083,63.083,0,0,1-6.923,4.891,4.185,4.185,0,0,1-2.06.583,3.123,3.123,0,0,1-1.761-.527,3.481,3.481,0,0,1-1.25-1.6,5.161,5.161,0,0,1-.176-3.035,19.061,19.061,0,0,1,.968-3.02c.05-.129.1-.266.155-.4l.109-.29a61.306,61.306,0,0,1,3.387-7.523,58.863,58.863,0,0,1,4.4-7,52.345,52.345,0,0,1,11.637-11.64c-2.291-.457-4.65-.76-6.932-1.052h0c-2.225-.285-4.525-.58-6.757-1.018a34.791,34.791,0,0,1-6.578-1.9c.294.308.028.641-.206.934-.045.056-.091.113-.129.167a1,1,0,0,1-.22.777,1.408,1.408,0,0,1-.689.442,55.334,55.334,0,0,0-6.74,11.221,40.861,40.861,0,0,0-3.4,12.609,5.244,5.244,0,0,1-.265,2.033,4.607,4.607,0,0,1-.958,1.673,2.31,2.31,0,0,1-1.68.826,2.117,2.117,0,0,1-1.041-.29,3.925,3.925,0,0,1-1.079-.948,16.607,16.607,0,0,1,.182-7.25,29.8,29.8,0,0,1,1.169-3.929,38.691,38.691,0,0,1,1.717-3.927,44.462,44.462,0,0,1,4.568-7.231,30.719,30.719,0,0,1,5.231-5.373,13.566,13.566,0,0,1-3.886-4,21.833,21.833,0,0,1-1.859-3.912h0a11.153,11.153,0,0,0-1.323-2.718,2.754,2.754,0,0,0-.933-.794,2.924,2.924,0,0,0-1.328-.293,19.745,19.745,0,0,1-4.473,5.86,15.3,15.3,0,0,1-1.731,1.156c-.346.209-.7.425-1.037.649a.886.886,0,0,1-.5.162.991.991,0,0,1-.869-.638.945.945,0,0,1,.18-1.06l.2-.238c.373-.445.762-.9,1.138-1.335l0-.005c2.55-2.966,5.188-6.033,5.7-10.047a16.578,16.578,0,0,0,.1-3.839,23.948,23.948,0,0,0-.658-3.818,63.986,63.986,0,0,0-2.507-7.4h0c-.2-.522-.409-1.062-.608-1.588a128.874,128.874,0,0,1-4.692-15.218,130.441,130.441,0,0,1-2.782-15.679,90.318,90.318,0,0,1-.687-10.97v0c-.063-2.911-.129-5.921-.428-8.848a43.589,43.589,0,0,0-.654-4.361,31.935,31.935,0,0,0-1.182-4.289,31.384,31.384,0,0,0-1.172-3.667,32.5,32.5,0,0,0-1.541-3.37.664.664,0,0,1-.078-.074c-.826-.954-1.563-1.991-2.276-2.994h0c-.454-.639-.924-1.3-1.414-1.936a54.2,54.2,0,0,0-4.26-4.877,60.487,60.487,0,0,0-8.232-6.787.975.975,0,0,1-.163-.077,11.358,11.358,0,0,1-1.574-1.141l-.049-.034a23.356,23.356,0,0,1-4.741-4.044,27.253,27.253,0,0,1-2.439-3.7c-.271-.464-.551-.945-.839-1.413-.284-.346-.578-.712-.837-1.035a28.667,28.667,0,0,0-3.735-4.084c-.169-.1-.339-.191-.527-.3a17.349,17.349,0,0,1-2.369-1.5c-.146-.061-.294-.119-.44-.171.258,1.049.6,2.026.965,3.061.154.437.328.932.49,1.426a1.416,1.416,0,0,1,.545-.109,1.319,1.319,0,0,1,.864.313,1.457,1.457,0,0,1,.472.97l.046.426c.225,2.106.36,3.838.425,5.452a43.989,43.989,0,0,1-.1,5.639,27.008,27.008,0,0,1-1.01,5.463,18.047,18.047,0,0,1-2.308,4.925c-2.743,3.97-6.093,5.983-9.957,5.984a14.1,14.1,0,0,1-5.456-1.2,25.16,25.16,0,0,1-5.276-3.115,40.086,40.086,0,0,1-4.778-4.277,48.794,48.794,0,0,1-3.963-4.691,104.516,104.516,0,0,1-8.431-11.622,97,97,0,0,1-6.685-12.7l-.063-.116a33.853,33.853,0,0,1-1.445-3.474,34.768,34.768,0,0,1-1.238-3.944,10.787,10.787,0,0,0-3.706-1.013c-1.927.468-3.913.779-5.835,1.081-1.371.215-2.788.437-4.171.714A57.867,57.867,0,0,0,99.941,12.6a62.594,62.594,0,0,0-7.871,2.731A72.124,72.124,0,0,0,84.631,19c-2.325,1.316-4.694,2.818-7.041,4.462A123.231,123.231,0,0,0,64.568,34.11c-3.58,3.317-7.342,7.09-11.837,11.875-3.58,3.754-7,7.65-10.164,11.579-3.2,3.968-6.214,8.074-8.972,12.2-2.788,4.174-5.382,8.481-7.711,12.8-2.356,4.371-4.5,8.871-6.381,13.377a143.567,143.567,0,0,0-4.981,13.927,139.832,139.832,0,0,0-5.485,29.4A144.85,144.85,0,0,0,8.671,154.7c2.942.535,5.925,1.152,8.809,1.748h0c3.571.738,7.263,1.5,10.915,2.118a100.836,100.836,0,0,0,11.035,1.31,3.164,3.164,0,0,1-.3-2.725,13.833,13.833,0,0,1,1.291-2.816,17.038,17.038,0,0,0,.907-1.8c3.634-7.009,7.226-14.51,10.677-22.294,3.222-7.268,6.42-15.008,9.506-23,2.846-7.375,5.69-15.212,8.452-23.292,2.5-7.316,5.03-15.107,7.515-23.158l-.257,1.335C75.49,71.074,73.907,78.36,72.237,85.05c-2.058,8.242-4.254,15.594-6.713,22.474.669-.657,5.648-4.678,11-8.567C81.292,95.489,87.424,91.355,89.543,91.354Zm-.259,162.188h0a.526.526,0,0,1-.093.091c.742,1.052,1.475,2.141,2.183,3.194l.006.009c.516.767,1.05,1.561,1.582,2.331-1.141-1.862-2.079-3.533-2.867-5.107-.183-.118-.371-.237-.552-.352l-.011-.007-.084-.054-.163-.1Zm-71.9-70.764c1.455,7.886,2.8,14.263,4.24,20.068a176.037,176.037,0,0,0,6.008,19.7c1.235,3.289,2.572,6.462,3.972,9.433,1.485,3.149,3.093,6.179,4.781,9.007a90.949,90.949,0,0,0,5.712,8.47,82.548,82.548,0,0,0,6.764,7.822A76.441,76.441,0,0,1,41,243.487a57.053,57.053,0,0,1-4.331-15.216,9.647,9.647,0,0,1,.176-2.093,6.543,6.543,0,0,1,.676-1.9,4.37,4.37,0,0,1,1.27-1.45,4.309,4.309,0,0,1,1.958-.748.8.8,0,0,1,.106-.007,1.252,1.252,0,0,1,1.018.833l.018.042a39.535,39.535,0,0,0,4.7,8.233l.185.24a50.4,50.4,0,0,0,3.355,3.908,18.338,18.338,0,0,0,2.158,1.953,3.455,3.455,0,0,0,1.824.837c.491,0,.815-.322.965-.956a25.479,25.479,0,0,0-.938-6.071A30.115,30.115,0,0,0,52,225.647a79.413,79.413,0,0,0-6.516-10.178,94.035,94.035,0,0,1-7.805-12.3,49.786,49.786,0,0,1-3.079-7.518c-.44-1.392-.822-2.826-1.136-4.264-.331-1.515-.6-3.084-.792-4.664a57.458,57.458,0,0,1-10.907-2.629h0C20.327,183.643,18.846,183.182,17.384,182.778Zm40.253,52.779c.021.3.03.579.026.842a5.953,5.953,0,0,1,.856-.278C58.241,235.949,57.952,235.764,57.636,235.557Zm-.278-1.949h0c.115.583.2,1.094.243,1.563.482.153.987.327,1.589.548a11.021,11.021,0,0,1-.906-.91A11.625,11.625,0,0,1,57.359,233.608Zm-20.84-47.845h0a4.3,4.3,0,0,1-1.465.7,41.405,41.405,0,0,0,.7,4.176c.288,1.309.647,2.632,1.068,3.931a49.325,49.325,0,0,0,3.053,7.287c1.067,2.09,2.356,4.308,3.943,6.783,1.418,2.212,2.95,4.44,4.431,6.6l0,0c1.944,2.828,3.955,5.753,5.824,8.8a40.193,40.193,0,0,1-1.169-10c-.014-3.381.267-6.848.556-10.108l.147-1.649c.5-4.889,1.267-10.223,2.339-16.307.957-5.426,2.063-10.934,3.134-16.261l0-.019c.972-4.838,1.978-9.841,2.867-14.769,1-5.534,1.743-10.384,2.275-14.827A148.6,148.6,0,0,0,65.3,125.183c.049-2.544.017-5.065-.093-7.493-.116-2.546-.323-5.078-.616-7.527-1.929,5.374-3.983,10.722-6.1,15.894-2.164,5.279-4.46,10.528-6.824,15.6-1.056,1.975-2.015,4.1-2.942,6.148l0,0c-.953,2.109-1.939,4.29-3.043,6.343a32.551,32.551,0,0,1-3.838,5.768c-.043.041-.087.08-.132.117l.074,0a28.477,28.477,0,0,1,3.262.385,10.671,10.671,0,0,1,1.769.447c.522.2.807.409.85.634.054.29-.3.6-1.041.93-.849,3.339-1.87,6.687-2.857,9.926v0c-.685,2.247-1.393,4.57-2.038,6.871l-.035.163c-.046.217-.093.451-.143.7a19.2,19.2,0,0,1-1.084,3.923,4.541,4.541,0,0,1-1.011,1.506,2.172,2.172,0,0,1-1.5.6,3.4,3.4,0,0,1-1.433-.366Zm201.8-3.119-.013,0-.2.527c-.063.162-.134.344-.211.539l.084-.035,0,0,.014-.006c.074-.074.146-.148.219-.225A2.041,2.041,0,0,1,238.32,182.644Zm-204.9-.188a.971.971,0,0,1,.853.443c.171.016.348.029.518.042h.01c.2.015.378.028.56.045a60.579,60.579,0,0,1,9.832-20.277c-.7.022-1.408.034-2.109.034A86.931,86.931,0,0,1,25.3,160.733c-6.4-1.332-12.628-3.175-17.339-4.633a1.081,1.081,0,0,1-.468.107.885.885,0,0,1-.859-.575l-.184-.053a12.185,12.185,0,0,1-1.831-.711c-.578-.286-.885-.521-.864-.662.014-.1.184-.147.5-.147a11.188,11.188,0,0,1,1.74.206,7.32,7.32,0,0,1-.489-1.872A12.492,12.492,0,0,1,2.076,153H2.07l-.322.027C2.8,157.991,3.766,163.063,4.7,167.968c.3,1.576.608,3.206.919,4.828A4.081,4.081,0,0,0,7.051,175a8.164,8.164,0,0,0,2.424,1.168l1.528.488.7.225.3.1h0c3.35,1.072,6.814,2.181,10.252,3.168,3.861,1.108,7.267,1.938,10.412,2.536A1.383,1.383,0,0,1,33.416,182.456Zm211.42-2.976a8.764,8.764,0,0,1,2.494.366c5.042.055,10.17.387,15.128.708h.006c5.439.352,11.062.716,16.589.716a98.352,98.352,0,0,0,9.862-.456,69.728,69.728,0,0,0,9.848-1.67l.393-.073c1.172-.222,5.294-1.033,9.152-2.156a34.009,34.009,0,0,0,4.708-1.678c1.383-.647,2.165-1.265,2.323-1.839-.051-.305-.355-.46-.9-.46a11.269,11.269,0,0,0-2.584.5h0c-.236.066-.423.118-.531.139-4.7.924-9.544,1.394-14.23,1.848h-.007l-.689.067c-.041,0-.082.006-.122.006a.866.866,0,0,1-.666-.278,1.028,1.028,0,0,1-.245-.638,1.272,1.272,0,0,1,.238-.807,1.1,1.1,0,0,1,.8-.442,41.743,41.743,0,0,0,8.794-1.941c2.885-.937,5.753-2.116,8.423-3.25.136-.06.327-.137.548-.225l.009,0a16.147,16.147,0,0,0,2.656-1.266,69.826,69.826,0,0,1-11.749.9c-1.2,0-2.461-.023-3.751-.069a1.57,1.57,0,0,1-1.375-1.674,1.29,1.29,0,0,1,.356-.832,1.322,1.322,0,0,1,.964-.361h.055a9.118,9.118,0,0,0,1,.054,11.881,11.881,0,0,0,4.53-.984,26.082,26.082,0,0,0,4.119-2.211l.618-.4c2.185-1.422,3.351-2.253,3.256-2.572-.032-.107-.205-.159-.531-.159a31.17,31.17,0,0,0-4.306.662,88.984,88.984,0,0,1-16.02,1.326c-3.215,0-6.668-.13-10.556-.4a1.5,1.5,0,0,1-.9-.332,1.765,1.765,0,0,1-.559-.771,1.348,1.348,0,0,1,.37-1.533c1.844-1.589,3.779-3.125,5.65-4.611,2.279-1.809,4.636-3.681,6.845-5.661a13.7,13.7,0,0,0-2.222-.183,14.529,14.529,0,0,0-3.517.441,20.192,20.192,0,0,0-3.337,1.163,55.6,55.6,0,0,0-6.36,3.518A53.868,53.868,0,0,1,273,155.5c-.561.24-1.237.543-2.019.894l0,0h0c-2.1.942-4.977,2.231-7.809,3.261a41.1,41.1,0,0,1-4.162,1.3,15.749,15.749,0,0,1-3.64.524,5.127,5.127,0,0,1-2.111-.378,68.621,68.621,0,0,0-7.76,8.826,60.508,60.508,0,0,0-6.022,10.094c.879-.052,1.8-.094,2.734-.123A8.614,8.614,0,0,1,244.836,179.48Zm9.682-19.614-.1.091c-.134.128-.256.251-.345.34l-.009.009-.112.112-.038.037c-.073.069-.147.14-.217.209l0,0-.006.006-.144.139a3.25,3.25,0,0,0,1.032.157,4.835,4.835,0,0,0,.735-.06A1.945,1.945,0,0,1,254.519,159.866Zm-21.687-5.793c.05.062.1.127.15.2l.072.1.115-.071a.492.492,0,0,1,.133-.053l-.285-.107-.027-.01ZM107.295,218.44a1.069,1.069,0,0,1-.6-.194,32.929,32.929,0,0,1-5.567-4.7,39.925,39.925,0,0,1-4.5-5.736,27.931,27.931,0,0,1-2.36-3.893c-.924-1.735-2.028-3.965-3.283-6.626-2.861-6.069-5.8-12.88-7.767-17.526-2.547-6.023-5.01-12.1-6.759-16.683-1.845-4.83-2.775-7.667-2.62-7.99a.048.048,0,0,1,.044-.032c.3,0,1.85,2.573,7.559,14.83,1.424,2.994,2.822,6.074,4.174,9.053,2.987,6.579,6.075,13.381,9.651,19.748a100.541,100.541,0,0,0,5.829,9.252c1.082,1.516,2.2,2.98,3.336,4.352,1.188,1.44,2.427,2.828,3.682,4.124a1.129,1.129,0,0,1,.3.635,1.258,1.258,0,0,1-.1.654A1.152,1.152,0,0,1,107.295,218.44Zm10.8-25.082a.676.676,0,0,1-.446-.177,99.17,99.17,0,0,1-7.792-8.055c-2.358-2.726-4.664-5.683-6.854-8.788-2.065-2.927-4.1-6.086-6.041-9.389-1.811-3.079-3.612-6.4-5.351-9.86-6.731-13.4-11.95-27.7-17-41.519l-.118-.324a.113.113,0,0,1,.022-.1.115.115,0,0,1,.089-.042.11.11,0,0,1,.093.053c3.4,6.7,6.449,13.711,9.4,20.5,2.133,4.9,4.339,9.977,6.66,14.893,2.6,5.513,5.079,10.239,7.568,14.448a146.382,146.382,0,0,0,20.252,27.255.615.615,0,0,1,.141.687A.692.692,0,0,1,118.1,193.357Zm-5.248-38.11c-.521,0-1.792-1.618-3.884-4.947-1.822-2.9-4.018-6.7-5.956-10.049h0c-2.3-3.982-4.29-7.421-5.181-8.568l-.02-.026.047.051a75.238,75.238,0,0,1,7.3,9.675c2.382,3.622,4.721,7.535,6.784,10.988.4.671.78,1.3,1.159,1.937a1.285,1.285,0,0,1-.1.874A.2.2,0,0,1,112.849,155.248Zm81.05-8.2a.263.263,0,0,1-.216-.082.4.4,0,0,1-.03-.341,56.448,56.448,0,0,1,6.536-7.189,31.191,31.191,0,0,1,3.888-3.028,19.794,19.794,0,0,1,4.209-2.112c.78.122,1.218.391,1.3.8.355,1.689-5.343,5.327-7.215,6.522l-.025.016c-.176.112-.315.2-.41.264a21.016,21.016,0,0,0-2.138,1.481C197.686,144.925,194.79,147.047,193.9,147.048ZM27.379,129.032a.16.16,0,0,1-.04-.005l-.174-.037a16.209,16.209,0,0,1-4.148-1.669,8.754,8.754,0,0,1-3.429-3.105,2.791,2.791,0,0,1-.138-2.464,2.046,2.046,0,0,1,1.126-.825,5.612,5.612,0,0,1,1.782-.242,36.366,36.366,0,0,1,8.3,1.609c1.389.378,2.588.7,3.364.819.6.157,1.2.326,1.781.49l.011,0h0c1.1.311,2.247.632,3.386.881a9.577,9.577,0,0,0,1.874.264c1.62.143,3.636.321,3.975,1.158.138.341-.017.773-.46,1.284a5.769,5.769,0,0,1-2.791.633,18.729,18.729,0,0,1-4.894-.912l-.423-.118c-1-.273-2.024-.561-3.011-.839l-.041-.011a96.972,96.972,0,0,0-11.969-2.831.265.265,0,0,0-.1-.034.022.022,0,0,0-.021.01c-.011.022.02.082.091.179a10.147,10.147,0,0,0,1.031,1.769,11.059,11.059,0,0,0,1.4,1.587,9.165,9.165,0,0,0,3.551,2.123.136.136,0,0,1,.1.156A.142.142,0,0,1,27.379,129.032Z" transform="translate(30.874 0)"/>
    </g>
    <g id="Head" transform="translate(95.946 42.662)">
      <g id="HEAD-2" data-name="HEAD">
        <path id="_Skin-2" data-name="âœ‹ Skin" d="M88.3,45.789a122.815,122.815,0,0,0-.988-15.983,24.082,24.082,0,0,0-6.542-13.519C73.02,8.358,61.789,6.421,51.335,4.646L33.461,1.612C28.008.686,22.191-.793,16.682.519A17.434,17.434,0,0,0,9.555,4.447a24.944,24.944,0,0,0-5.591,5.859,21.769,21.769,0,0,0-2.3,7.619Q.9,22.34.486,26.809a111.321,111.321,0,0,0-.23,17.932c.2,2.9.509,5.784.908,8.659q.3,2.138.674,4.265c.074.418.131.88.207,1.348a14.2,14.2,0,0,0-.858,4.918c.076,4.871,4.187,7.938,8.332,9.584,2.4.955,4.915,1.6,7.276,2.67A16.332,16.332,0,0,1,22.668,81.2,57.139,57.139,0,0,0,33.736,91.68c8.849,6.29,20.056,9.266,30.793,7.007a27.431,27.431,0,0,0,7.49-2.651,16.748,16.748,0,0,0,5.827-5.571,54.483,54.483,0,0,0,6.477-13.928,80.767,80.767,0,0,0,3.326-15.149,115.336,115.336,0,0,0,.648-15.6Z" transform="translate(10.901 21.331)" fill="#d08b5b"/>
        <path id="_Ink-2" data-name="ðŸ– Ink" d="M84.616,117.8h0a19.566,19.566,0,0,1-4.167-.438,16.7,16.7,0,0,1-10.525-7.24l-.067-.106c-.336-.539-.473-.921-.387-1.075a.137.137,0,0,1,.13-.068,2.1,2.1,0,0,1,1.08.81,22.971,22.971,0,0,0,6.8,4.191,20.269,20.269,0,0,0,7.406,1.411,20.51,20.51,0,0,0,7.563-1.461,24.077,24.077,0,0,0,7.1-4.426,33.385,33.385,0,0,0,9.227-14.136,55.533,55.533,0,0,0,2.389-8.956,74.6,74.6,0,0,0,1.1-9.657,91.731,91.731,0,0,0-.056-9.939c-.191-3.256-.549-6.554-1.064-9.8a86.862,86.862,0,0,0-4.585-17.52,82.773,82.773,0,0,0-9-.492,81.774,81.774,0,0,0-14.763,1.338,76.43,76.43,0,0,0-14.211,4.049,68.833,68.833,0,0,0-13.037,6.811A62.456,62.456,0,0,0,44.3,60.715l1.053,6.34c.059.355.122.716.182,1.065l0,.017c.123.707.25,1.439.354,2.161a2.316,2.316,0,0,1-.37,1.947,1.637,1.637,0,0,1-1.3.621c-1.016,0-2.225-.8-3.393-1.577h0A18.33,18.33,0,0,0,39.053,70.2a9.938,9.938,0,0,0-1.377-.1c-.191,0-.381.007-.564.019a7.209,7.209,0,0,0-5.4,3.572,10.159,10.159,0,0,0-1.2,3.113,12.52,12.52,0,0,0-.247,3.437,10.909,10.909,0,0,0,2.09,5.955,6.5,6.5,0,0,0,5.278,2.642,8.892,8.892,0,0,0,2.618-.423,2.051,2.051,0,0,1,1.068-.356,1.117,1.117,0,0,1,.665.207,1.416,1.416,0,0,1,.464.609A25.4,25.4,0,0,1,45.9,93.252a41.229,41.229,0,0,0,5.745,7.059,38.507,38.507,0,0,0,4.933,4.319,8.176,8.176,0,0,0,1.282.941c1.285.833,2.742,1.777,2,3.111a1.3,1.3,0,0,1-1.258.822c-2.1,0-5.773-3.5-7.775-5.583-1.339-1.394-2.739-3-3.943-4.509a28.938,28.938,0,0,1-2.446-3.458,22.981,22.981,0,0,1-5.024,1.33,34.04,34.04,0,0,1-5.181.361c-2.891,0-5.811-.277-8.635-.545l-.039,0L24.5,97C18.131,96.664,12.86,95.153,8.828,92.5a19.334,19.334,0,0,1-4.816-4.465A18.99,18.99,0,0,1,1.1,82.428,22.639,22.639,0,0,1,.082,77.215a28.731,28.731,0,0,1,.136-5.666,36.951,36.951,0,0,1,1.248-5.985,46.454,46.454,0,0,1,2.316-6.17,60.269,60.269,0,0,1,7.666-12.361,74.559,74.559,0,0,1,11.424-11.5,79.328,79.328,0,0,1,17.4-9.629.765.765,0,0,0,.458-.88.618.618,0,0,0-.576-.545.7.7,0,0,0-.26.054,85.042,85.042,0,0,0-11.8,5.841l-.006-1.348a37.038,37.038,0,0,1,.424-6.71,16.5,16.5,0,0,1,1.039-4.128,11.051,11.051,0,0,1,2.172-3.983,32.888,32.888,0,0,1,5.422-5.483A40.018,40.018,0,0,1,56.856.181,20.265,20.265,0,0,1,59.605,0a25.2,25.2,0,0,1,5.389.6,25.816,25.816,0,0,1,5.285,1.765,20.349,20.349,0,0,1,4.583,2.866,14,14,0,0,1,3.283,3.906,95.255,95.255,0,0,1,9.819-1.785,82,82,0,0,1,10.28-.671,59.268,59.268,0,0,1,18.238,2.666,44.028,44.028,0,0,1,8.4,3.7,40.045,40.045,0,0,1,3.89,2.551,39.139,39.139,0,0,1,3.631,3.058,22.708,22.708,0,0,1,3.253,4.475,19.033,19.033,0,0,1,1.806,4.63,20.058,20.058,0,0,1-.046,9.354,29.078,29.078,0,0,1-3.307,8.072,40.221,40.221,0,0,1-5.361,7.119c-.991,1.059-2.045,2.078-3.132,3.03a41.579,41.579,0,0,1-3.265,2.586A34.8,34.8,0,0,1,119.084,60a25.421,25.421,0,0,1-3.147,1.49,37.963,37.963,0,0,1,.149,7.238,111.932,111.932,0,0,1-1.326,12.533,87.806,87.806,0,0,1-3.4,14.085,39.749,39.749,0,0,1-6.059,11.9,24.9,24.9,0,0,1-4.1,4.289,28.038,28.038,0,0,1-5.068,3.337,27.4,27.4,0,0,1-5.656,2.164A23.51,23.51,0,0,1,84.616,117.8Zm-44.44-50.09-.135.079a1.157,1.157,0,0,1-.334.131c.159.068.318.142.472.219,0-.114,0-.2,0-.286l0-.143Zm4.1,13a1.88,1.88,0,0,1-.775-.581l-.044-.05.009.014c.112.173.156.293.127.348a.07.07,0,0,1-.068.032,1.171,1.171,0,0,1-.71-.558l-.007-.018a1.967,1.967,0,0,1-.3-.32c-.017-.022-.029-.037-.037-.046l-.007-.007a8.771,8.771,0,0,0-3.338-2.073c-.166-.032-.331-.056-.491-.073a14.908,14.908,0,0,0-2.036-.308.376.376,0,0,1-.233-.151c-.43-.015-.683-.1-.693-.24-.009-.12.177-.257.407-.3h.008L36,76.374c-.437-.043-.772-.159-.779-.272,0-.069.111-.13.331-.179l.085-.017c-.009-.014-.017-.028-.029-.049-.2-.022-.306-.106-.3-.231a.327.327,0,0,1,.316-.278.264.264,0,0,1,.1.021.234.234,0,0,1,.009-.209c.038-.052.113-.076.235-.076.044,0,.089,0,.131.006h.011c.037,0,.073.005.1.005a.116.116,0,0,0,.069-.013.376.376,0,0,1,.173-.125.673.673,0,0,0,.126-.106c.014-.016.014-.016.049-.017h.016a.791.791,0,0,1,.573-.2,2.911,2.911,0,0,1,.771.143l.072.021a2.408,2.408,0,0,0,.578.123h.018a7.623,7.623,0,0,1,3.281,1.317,8.875,8.875,0,0,1,1.364.937h0l0,0,.033.022a7.589,7.589,0,0,1,.97.955c.421.481.64.824.6.941-.01.031-.038.047-.083.047a.81.81,0,0,1-.3-.093c-.077-.1-.163-.206-.268-.331a.215.215,0,0,1-.039.043l.066.1c.233.35.335.558.3.618a.035.035,0,0,1-.034.017A4.316,4.316,0,0,1,43.3,78.354a.2.2,0,0,1-.034.021l-.007,0,.346.421.118.148.073.071c.618.607.914,1.183.854,1.329a.057.057,0,0,1-.058.037c-.15,0-.5-.331-.948-.887a.528.528,0,0,1,.1.237l.08.1c.255.329.548.744.495.852A.047.047,0,0,1,44.275,80.712Z" transform="translate(-14.693 4.266)"/>
      </g>
      <g id="FACIAL_HAIR" data-name="FACIAL HAIR" transform="translate(29.211 80.109)">
        <path id="_Ink-3" data-name="ðŸ– Ink" d="M48.2,44.084h0c-1.946,0-3.888-.188-5.6-.354A63.678,63.678,0,0,1,28.43,40.636c-2.149-.723-4.365-1.584-6.776-2.631-.329-.143-.667-.287-.993-.427A46.269,46.269,0,0,1,15.1,34.9a21.43,21.43,0,0,1-4.036-3.486l0,0c-.217-.221-.442-.45-.66-.669a73.639,73.639,0,0,1-6.437-7.177,23.209,23.209,0,0,1-2.339-3.55A13,13,0,0,1,.31,15.994C-.405,11.34.256,6.481.895,1.783c.05-.37.1-.752.153-1.128a.205.205,0,0,1,.2-.166.12.12,0,0,1,.121.087c0-.077-.008-.158-.014-.263A.288.288,0,0,1,1.428.1.329.329,0,0,1,1.666,0a.322.322,0,0,1,.319.227A28.039,28.039,0,0,0,8.2,11.263a34.164,34.164,0,0,0,2.9,2.773c.954.817,1.986,1.623,3.153,2.464,2.168,1.562,4.483,3.007,6.722,4.405l0,0c.465.29.946.591,1.418.887a1.2,1.2,0,0,1,.588-.313,13.208,13.208,0,0,1,2.125-4.61,20.492,20.492,0,0,1,3.358-3.714A28.1,28.1,0,0,1,46.4,6.534a23.7,23.7,0,0,1,4.445.412,20.648,20.648,0,0,1,4.226,1.28,18.328,18.328,0,0,1,4.949,3.141A18.533,18.533,0,0,1,63.74,15.9a19.389,19.389,0,0,1,1.513,3.253c.183.514,1.613,6.264.712,9.559a24.57,24.57,0,0,1-1.788,4.6,28.326,28.326,0,0,1-2.624,4.2A16.143,16.143,0,0,1,54.6,43.061a14.272,14.272,0,0,1-3.116.8A22.357,22.357,0,0,1,48.2,44.084ZM45.441,12.82a26.751,26.751,0,0,0-6.531.734,17.016,17.016,0,0,0-6.566,3.271,15.705,15.705,0,0,0-2.542,2.6,14.5,14.5,0,0,0-1.843,3.134,8.346,8.346,0,0,0,.075,2.958,22.079,22.079,0,0,0,5.711,2.887,19.959,19.959,0,0,0,6.3,1.039,18.8,18.8,0,0,0,2.164-.125c.335-.415.676-.889,1.036-1.391a21.031,21.031,0,0,1,2.172-2.7,4.963,4.963,0,0,1,2.741-1.55,3.785,3.785,0,0,1,.54-.04,4.1,4.1,0,0,1,2.25.728,14.555,14.555,0,0,1,1.937,1.6,12.766,12.766,0,0,0,2.225,1.783c.121.069.259.14.421.218A8.743,8.743,0,0,0,59.81,26.64,4.278,4.278,0,0,0,61.218,25.1a6.041,6.041,0,0,0,.609-1.926c-.065-.262-.136-.529-.212-.795a20.51,20.51,0,0,0-.982-2.719,15.072,15.072,0,0,0-1.418-2.515,9.6,9.6,0,0,0-1.63-1.807,7.392,7.392,0,0,0-2.073-1.259,19.506,19.506,0,0,0-5.292-.994l-.422-.04C48.214,12.9,46.789,12.82,45.441,12.82Z" transform="translate(-0.001 0)"/>
      </g>
      <g id="FACE" transform="translate(37.761 44.084)">
        <path id="_Ink-4" data-name="ðŸ– Ink" d="M25.005,44.271a9.063,9.063,0,0,1-5.014-1.48A9.549,9.549,0,0,1,17.917,41a7.486,7.486,0,0,1-1.264-2.016A5.705,5.705,0,0,1,16.2,36.7a.706.706,0,0,1,.168-.451A.789.789,0,0,1,16.789,36a.812.812,0,0,1,.185-.021.745.745,0,0,1,.306.064.652.652,0,0,1,.323.317c.151.2.349.456.548.706a13.771,13.771,0,0,0,2.276,2.324,7.053,7.053,0,0,0,2.832,1.329,6.076,6.076,0,0,0,1.3.141,6.381,6.381,0,0,0,2.2-.4A7.474,7.474,0,0,0,29.832,38.3a1.653,1.653,0,0,1,1.257-.62H31.1a1.934,1.934,0,0,1,1.337.591,2.079,2.079,0,0,1,.624,1.358,1.815,1.815,0,0,1-.517,1.334,10.355,10.355,0,0,1-2.18,1.773A10.562,10.562,0,0,1,27.8,43.87,10.051,10.051,0,0,1,25.005,44.271Zm2.829-13.182h0a8.306,8.306,0,0,1-2.956-.595A14.94,14.94,0,0,1,21.4,28.525a1.333,1.333,0,0,1-.485-.77,1.592,1.592,0,0,1,.069-.865,1.967,1.967,0,0,1,.585-.844,1.426,1.426,0,0,1,.912-.355,1.3,1.3,0,0,1,.705.216l.23.177.008.006A18.822,18.822,0,0,0,25.6,27.6a5.369,5.369,0,0,0,2.608.83,2.822,2.822,0,0,0,1.1-.216,3.08,3.08,0,0,0,1.026-.726,3.137,3.137,0,0,0,.6-2.529,4.775,4.775,0,0,0-1.27-2.243,9.26,9.26,0,0,0-1.923-1.549.594.594,0,0,1-.161-.684.893.893,0,0,1,.3-.426.911.911,0,0,1,.568-.187,1.211,1.211,0,0,1,.2.018,6.458,6.458,0,0,1,2.268.818,5.141,5.141,0,0,1,1.525,1.4,5.567,5.567,0,0,1,.974,3.725,6.128,6.128,0,0,1-.5,1.955,5.7,5.7,0,0,1-1.124,1.68A5.379,5.379,0,0,1,27.834,31.088ZM5.1,21.98a1.138,1.138,0,0,1-.329-.048.668.668,0,0,1-.451-.388A5.5,5.5,0,0,1,4.6,17.39a9.726,9.726,0,0,1,1.466-2.4,6.016,6.016,0,0,1,1.574-1.41,5.286,5.286,0,0,1,2.5-.644,5.022,5.022,0,0,1,2.413.621,6.276,6.276,0,0,1,1.667,1.368,17.247,17.247,0,0,1,1.293,1.718c.17.248.346.5.526.752A1.511,1.511,0,0,1,16.3,18.8a1.822,1.822,0,0,1-1.035,1.067,1.985,1.985,0,0,1-.763.156,1.744,1.744,0,0,1-.68-.135,1.827,1.827,0,0,1-.981-1.034,7.052,7.052,0,0,0-.762-1.381,4.154,4.154,0,0,0-1.109-1.1,2,2,0,0,0-2.006-.153A6.548,6.548,0,0,0,6.626,18.55a4.546,4.546,0,0,0-.766,2.713.615.615,0,0,1-.2.517.778.778,0,0,1-.433.192A1.021,1.021,0,0,1,5.1,21.98Zm34.426-3.346a1.486,1.486,0,0,1-.428-.069,1.62,1.62,0,0,1-.669-.4,1.328,1.328,0,0,1-.372-.671,2.748,2.748,0,0,0-.967-1.607,1.967,1.967,0,0,0-1.217-.432,1.987,1.987,0,0,0-.326.027,2.965,2.965,0,0,0-1.661.994,3.639,3.639,0,0,0-.349.507l-.01.017a3.7,3.7,0,0,1-.69.9.673.673,0,0,1-.427.16.639.639,0,0,1-.19-.03,2.7,2.7,0,0,1-.613-.856,1.679,1.679,0,0,1-.122-.738,2.92,2.92,0,0,1,.539-1.481,5.762,5.762,0,0,1,1.488-1.452,4.963,4.963,0,0,1,1.646-.774,4.456,4.456,0,0,1,.933-.1,4.767,4.767,0,0,1,2.738.889,5.187,5.187,0,0,1,2.126,3.247,1.724,1.724,0,0,1-.087.959,1.346,1.346,0,0,1-.629.7A1.5,1.5,0,0,1,39.527,18.634ZM.816,12.31a.4.4,0,0,1-.051,0,.482.482,0,0,1-.251-.122A1.818,1.818,0,0,1,0,10.687a6.474,6.474,0,0,1,.66-2.519A16.093,16.093,0,0,1,1.933,6.041,11.2,11.2,0,0,1,3.564,4.187,14.118,14.118,0,0,1,8.128,1.412,9.831,9.831,0,0,1,11.381.7c.067,0,.135,0,.2,0a3.916,3.916,0,0,1,1.21.23,3.185,3.185,0,0,1,1.078.669,1.994,1.994,0,0,1,.6,1.458,2.079,2.079,0,0,1-.6,1.491,3.089,3.089,0,0,1-1.276.744,7.435,7.435,0,0,1-1.393.248,12.694,12.694,0,0,0-1.357.2A12.772,12.772,0,0,0,6.562,6.936,12.134,12.134,0,0,0,3.489,9.11c-.2.214-.391.441-.576.661l0,.006c-.172.2-.333.4-.506.585-.192.209-.368.42-.579.674a2.864,2.864,0,0,0-.164.288c-.042.087-.082.167-.124.246-.077.144-.15.27-.219.375-.136.229-.207.284-.263.308A.59.59,0,0,1,.816,12.31Zm40.652-.52a.466.466,0,0,1-.077-.006.459.459,0,0,1-.234-.113.439.439,0,0,1-.131-.227,8.5,8.5,0,0,0-1.239-3A6.492,6.492,0,0,0,37.31,6.334a15.915,15.915,0,0,0-3.461-1.162c-.333-.079-.692-.131-1.039-.182l-.016,0a8.788,8.788,0,0,1-1.646-.352A2.912,2.912,0,0,1,29.8,3.726a2.517,2.517,0,0,1-.467-.91,2.316,2.316,0,0,1-.056-.98A2.012,2.012,0,0,1,30.366.349,3.3,3.3,0,0,1,31.895,0a10.021,10.021,0,0,1,3.672,1.023l.081.034,0,0,.268.114a12.055,12.055,0,0,1,4.2,2.8,9.058,9.058,0,0,1,2.16,3.984,4.772,4.772,0,0,1-.436,3.625.431.431,0,0,1-.2.173A.455.455,0,0,1,41.467,11.79Z" transform="translate(12.824 13.05)"/>
      </g>
    </g>
  </g>
</svg>
