<svg xmlns="http://www.w3.org/2000/svg" width="390.67" height="780" viewBox="0 0 390.67 780">
  <g id="peep-standing-20" transform="translate(28.736)">
    <g id="BODY" transform="translate(-28.736 150.264)">
      <path id="_Skin" data-name="âœ‹ Skin" d="M31,609.551h-.019a64.579,64.579,0,0,1-25.109-4.9c-2.295-.806-5.151-1.808-5.549-3.432-.654-4.441-.2-8.806.278-13.427h0c.194-2.031.334-3.954.47-5.814v0a90.891,90.891,0,0,1,2.356-16.808l.217-.749.01-.034c.55-1.894,1.069-3.684,1.508-5.439a44.413,44.413,0,0,0,1.018-5.191,27.026,27.026,0,0,0-.742-10.906c-.143-1.943,1.031-3.9,2.166-5.787.294-.489.571-.951.83-1.418a47.123,47.123,0,0,0,2.7-6.474c.441-1.228.9-2.5,1.414-3.741a69.208,69.208,0,0,1-8.367-1.982l-.45,1.616a.737.737,0,0,1-.809.535c-.262,0-.964-.127-1.065-.708.421-6.253,1.03-12.458,1.669-18.793.833-7.663,1.727-15.208,2.657-22.424.946-7.339,1.961-14.587,3.017-21.543,1.071-7.054,2.221-14.047,3.417-20.785,1.21-6.813,2.508-13.593,3.858-20.152A648.685,648.685,0,0,1,37.114,344.43c1.039-3.013,2.05-5.962,2.993-8.913,1.074-3.36,1.934-6.336,2.631-9.1a91.9,91.9,0,0,0,1.876-9.289,66.251,66.251,0,0,0,.728-9.485,24.589,24.589,0,0,0-5.1-.591,15.654,15.654,0,0,0-2.128.139,12.011,12.011,0,0,1-2.772-1.009,12.261,12.261,0,0,1-2.377-1.6,14.587,14.587,0,0,1-2.011-2.126,19.051,19.051,0,0,1-1.673-2.579,29.991,29.991,0,0,1-2.446-6.236,53.373,53.373,0,0,1-1.435-7.2c-.313-2.334-.532-4.893-.651-7.608-.1-2.323-.134-4.829-.095-7.45.072-4.788.36-9.056.571-12.172v0c.042-.619.085-1.259.12-1.815a12.77,12.77,0,0,1-3.482-1.526l-.4.193c-.968-2.4-1.882-4.955-2.716-7.6-.811-2.572-1.57-5.3-2.254-8.107a173.038,173.038,0,0,1-3.256-17.485c-.8-5.826-1.4-12.141-1.806-18.771-.372-6.117-.581-12.7-.622-19.564-.07-11.755.338-24.687,1.249-39.535.794-12.943,1.863-25.614,2.806-36.793.2-2.365.406-4.811.6-7.195.642-4.235.886-9.34,1.145-14.746v0c.187-3.9.379-7.934.734-11.9a84.4,84.4,0,0,1,1.7-11.454,43.712,43.712,0,0,1,1.5-5.14,28.408,28.408,0,0,1,2.095-4.525,19.5,19.5,0,0,1,2.8-3.744A15.607,15.607,0,0,1,29.079,46.7c2.464-.871,4.975-1.681,7.677-2.478,2.415-.712,4.934-1.4,7.7-2.1,5.15-1.3,10.24-2.424,15.628-3.609l.013,0c1.591-.35,3.237-.712,4.87-1.076a31.519,31.519,0,0,1,6.077-2.395l.016-.005c.515-.164,1.048-.333,1.559-.5L71.3,32.686a8.013,8.013,0,0,1-.553-7.115,4.206,4.206,0,0,1,1.315-1.75,9.4,9.4,0,0,1,3.442,1.451c.439.251.854.489,1.223.671,1.1-2.27,1.962-4.208,2.711-6.1a60.3,60.3,0,0,0,2.231-6.692l.456.163a13.457,13.457,0,0,1,2.047-6.031,13.812,13.812,0,0,1,4.235-4.14A19.31,19.31,0,0,1,94.073.765,25.823,25.823,0,0,1,100.407,0a25.227,25.227,0,0,1,10.246,2.072,13.886,13.886,0,0,1,2.179,1.468,11.982,11.982,0,0,1,1.681,1.7A12.957,12.957,0,0,1,116.666,9.2a23.249,23.249,0,0,1,1.017,4.525c.213,1.576.335,3.24.452,4.85.3,4.165.619,8.472,2.512,12.2l1.764-2.346h.058a7.579,7.579,0,0,1,2.5.571,23.678,23.678,0,0,1,2.922,1.356,24,24,0,0,1,4.394,2.924c.671.312.561,1.832.463,3.174A10.261,10.261,0,0,0,132.7,38.1c2.251.509,4.589.951,7.065,1.42,3.262.618,6.636,1.256,9.9,2.075a51.567,51.567,0,0,1,9.316,3.167,29.3,29.3,0,0,1,4.08,2.3,22.081,22.081,0,0,1,3.5,2.944,19.218,19.218,0,0,1,2.785,3.71,20.4,20.4,0,0,1,1.922,4.6c.861,3.431,1.632,6.943,2.356,10.736.645,3.378,1.238,6.906,1.814,10.784,1.068,7.2,1.909,14.544,2.722,21.644.909,7.941,1.85,16.152,3.112,24.2.679,4.331,1.4,8.27,2.188,12.041.89,4.234,1.854,8.15,2.947,11.973,1.552,4.2,3.2,8.488,4.941,13.025,4.158,10.823,8.458,22.015,11.775,32.932a157.8,157.8,0,0,1,4.056,15.984c.509,2.64.9,5.186,1.166,7.57a68.451,68.451,0,0,1,.437,7.173c.112,1.83.3,7.833.131,13.751-.1,3.3-.286,6.038-.567,8.143-.34,2.543-.812,4.151-1.4,4.779a.845.845,0,0,1-.614.306.758.758,0,0,1-.2-.028l-2.3,2.285a8.969,8.969,0,0,1,.811,1.655,10.715,10.715,0,0,1,.484,1.792,16.137,16.137,0,0,1,.185,3.88,51.487,51.487,0,0,1-1.406,8.152v0c-.226.993-.44,1.931-.626,2.848a73.868,73.868,0,0,1-2.238,7.741,37.916,37.916,0,0,1-3.168,6.892,20.911,20.911,0,0,1-2,2.784,13.828,13.828,0,0,1-2.3,2.159,10.03,10.03,0,0,1-2.637,1.4,9.17,9.17,0,0,1-2.995.5,11.066,11.066,0,0,1-2.716-.355,15.688,15.688,0,0,1-2.983-1.115c-.975,5.372-2.075,10.855-3.363,16.764-1.149,5.27-2.422,10.762-3.893,16.789-2.734,11.2-5.757,22.622-8.681,33.664v0c-3.323,12.551-6.76,25.529-9.813,38.342-1.644,6.9-3.047,13.195-4.29,19.246-1.4,6.8-2.554,13.109-3.541,19.3-1.061,6.652-1.915,13.166-2.538,19.36-.668,6.63-1.1,13.165-1.282,19.423-.194,6.621-.118,13.178.227,19.489.179,3.277.434,6.564.759,9.771.332,3.28.746,6.573,1.231,9.789a.691.691,0,0,1-.079.6.4.4,0,0,1-.328.169.545.545,0,0,1-.205-.044l-.559-.257a22.035,22.035,0,0,1-2.867.591h0c-.646.1-1.313.213-1.915.347a110.122,110.122,0,0,1,2.639,14.852c.6.359.546,1.159.5,1.864h0a5.534,5.534,0,0,0-.023.658c.267-.013.535-.019.8-.019a16.049,16.049,0,0,1,2.94.271,16.591,16.591,0,0,1,2.74.765,21.369,21.369,0,0,1,4.988,2.724,64.16,64.16,0,0,1,8.776,8.213v0a74.864,74.864,0,0,0,7.214,6.992A144.813,144.813,0,0,0,191,568a44.173,44.173,0,0,1,4.159,2.621,19.373,19.373,0,0,1,3.352,2.99,9.419,9.419,0,0,1,2.433,7.833l.662-.1c.642-.1,1.273-.194,1.325-.2a9.982,9.982,0,0,1,.47,3.731,6.086,6.086,0,0,1-.966,2.834c-1.081,1.646-3.042,2.892-5.993,3.811a52.324,52.324,0,0,1-9,1.674c-3.576.359-7.17.541-10.682.541-2.254,0-4.548-.075-6.819-.222-2.228-.145-4.509-.365-6.78-.654a131.664,131.664,0,0,1-13.723-2.525c-4.467-1.054-9.18-2.369-14.408-4.019-4.6-1.452-9.723-3.2-15.655-5.358a3.081,3.081,0,0,1-.361.021,3.6,3.6,0,0,1-2.124-.755,7.351,7.351,0,0,1-1.746-1.895,12.377,12.377,0,0,1-1.255-2.477,11.583,11.583,0,0,1-.649-2.5,8.779,8.779,0,0,1,.059-2.827,7.508,7.508,0,0,0-.2-3.864,29.846,29.846,0,0,1-2.011-6.758,60.493,60.493,0,0,1-1.014-8.941c-.064-1.6-.063-3.174,0-4.681a44.125,44.125,0,0,1,.41-4.5,21.963,21.963,0,0,1,2.265-7.464c.215-.248.44-.5.658-.735,1.411-1.55,2.869-3.152,2.645-5.835-.021-.887-.06-1.787-.1-2.657a51.57,51.57,0,0,1,0-6.625,63.212,63.212,0,0,1-7.906-1.259,49.6,49.6,0,0,1-7.394-2.27,1.577,1.577,0,0,1-.567.107,1.211,1.211,0,0,1-1.254-1.213c-.092-1.465-.186-2.935-.289-4.567-.836-13.157-1.7-26.763-1.908-39.791-.109-3.222-.134-6.557-.075-9.913.057-3.2.192-6.516.4-9.866.388-6.181,1.03-12.6,1.962-19.61,1.73-13.023,4.22-26.146,6.629-38.837l0-.014c.944-4.976,1.92-10.121,2.834-15.173.206-5.27.833-10.535,1.44-15.626v0c.53-4.446,1.078-9.043,1.346-13.641.336-5.09.525-10.2.708-15.145v-.016c.154-4.154.312-8.449.558-12.713l-3.21-.7c-6.627,17.051-12.984,34.346-18.893,51.4s-11.517,34.3-16.68,51.28-10.018,34.15-14.423,51.014c-2.2,8.435-4.34,16.968-6.351,25.362s-3.953,16.894-5.769,25.242a2.87,2.87,0,0,0,.384.249c.39.227.874.51.845.922v.033c-.01.277-.01.294-.212.323-3.29.66-6.73,1.194-10.517,1.631a23.664,23.664,0,0,1-.01,4.968c-.158,1.688-.438,3.434-.708,5.121v0a49.5,49.5,0,0,0-.852,8.154,17.518,17.518,0,0,0,.45,3.926,13.228,13.228,0,0,0,1.5,3.735,5.789,5.789,0,0,1,1.014,2.015,2.357,2.357,0,0,1-.482,1.572A171.586,171.586,0,0,1,46.9,572.845a121.335,121.335,0,0,1,5.332,16.667l1.755-1.481c2.544,1.844,2.6,5.324,2.652,9.009a11.529,11.529,0,0,0,.076,2.062,10.15,10.15,0,0,1,.057,2.157,3.772,3.772,0,0,1-.262,1.02,3.407,3.407,0,0,1-.61.959,11.833,11.833,0,0,1-4.462,2.887,37.7,37.7,0,0,1-6.609,1.953,69.3,69.3,0,0,1-7.3,1.112C35.245,609.419,32.988,609.544,31,609.551ZM49.809,124.435c-.907,3.6-1.708,7.342-2.381,11.111-.641,3.593-1.187,7.336-1.622,11.123-.8,6.989-1.262,14.276-1.4,22.277-.117,6.667-.009,13.964.331,22.31.3,7.444.758,15.013,1.2,22.333.4,6.738.824,13.7,1.123,20.565.336,7.689.483,14.417.449,20.569l.317.283-.515.269a31.046,31.046,0,0,1-.9,3.352c1.491,1.432,3.533,3.3,5.173,4.8l0,0,.182.167.593.543a27.444,27.444,0,0,1-.286-6.15,36.96,36.96,0,0,1,.9-6.011,98.7,98.7,0,0,1,3.779-11.79c.825-2.247,1.678-4.57,2.412-6.868a10.668,10.668,0,0,0-2.4-1.871c-1.491-.974-3.032-1.982-2.949-3.036.35-6.841.859-14.132,1.514-21.67.634-6.733,1.2-12.813,1.651-19.036.523-7.161.818-13.456.9-19.245.1-6.927-.093-13.227-.591-19.259-.27-3.269-.636-6.49-1.088-9.574-.475-3.239-1.06-6.436-1.74-9.5a10.231,10.231,0,0,0-1.085-3.85A3.908,3.908,0,0,0,49.809,124.435Z" transform="translate(77.659 -14.695)" fill="#d08b5b"/>
      <path id="_Shoes" data-name="ðŸ‘Ÿ Shoes" d="M33.165,77.891c-2.22,0-4.571-.107-6.987-.319-2.162-.19-4.444-.469-6.785-.831A63.141,63.141,0,0,1,4.861,72.225a13.881,13.881,0,0,1-2.291-.963,5.055,5.055,0,0,1-1.577-1.29,3.934,3.934,0,0,1-.723-1.55A7.061,7.061,0,0,1,.14,66.316,39.627,39.627,0,0,1,.3,58.342l.113-1.222a46.934,46.934,0,0,0,.268-6.64,63.045,63.045,0,0,1,1.249-9.8c.646-3.254,1.474-6.539,2.274-9.715.5-2,1.025-4.067,1.491-6.091l2.082-3.321c.031-.023,3.13-2.356,6.729-4.666a59.385,59.385,0,0,1,5.535-3.208,11.43,11.43,0,0,1,4.425-1.458h.455a13.552,13.552,0,0,1,3.97.838,49.48,49.48,0,0,1,4.614,1.845c2.921,1.318,5.391,2.67,5.415,2.683a12.318,12.318,0,0,1,0,2.008,11.582,11.582,0,0,0,0,1.959,12.472,12.472,0,0,0,1.65,3.421,31.676,31.676,0,0,0,2.231,2.828,19.582,19.582,0,0,1,3.678,5.51l.887,2.233a123.575,123.575,0,0,1,6.14,18.493l.239,1.067A27.78,27.78,0,0,1,56.077,57.7,16.872,16.872,0,0,1,57.7,60.132a5.959,5.959,0,0,1,.8,2.46c0,.08.122,1.988.06,4.034a20.691,20.691,0,0,1-.273,3.011A3.121,3.121,0,0,1,57.5,71.5a32.521,32.521,0,0,1-5.56,3.02,38.633,38.633,0,0,1-6.011,1.971,48.5,48.5,0,0,1-6.31,1.072A62.116,62.116,0,0,1,33.165,77.891ZM178.127,62.065a114.156,114.156,0,0,1-14.507-.96,141.678,141.678,0,0,1-14.364-2.641c-4.527-1.068-9.269-2.4-14.094-3.962-4.369-1.414-8.977-3.07-13.7-4.923l-.82-.323c-.057.01-.117.019-.176.027a3.963,3.963,0,0,1-.515.034,4.177,4.177,0,0,1-2.067-.571,6.856,6.856,0,0,1-1.735-1.451,11.974,11.974,0,0,1-1.949-3.14,12.4,12.4,0,0,1-.937-3.305,16.061,16.061,0,0,1,.016-2.532,16.973,16.973,0,0,0-.055-3.823,33.008,33.008,0,0,1-1.754-5.1,39.8,39.8,0,0,1-.96-5.255,61.119,61.119,0,0,1-.192-10.686,27.883,27.883,0,0,1,1.015-8.89A11.673,11.673,0,0,1,113.631.493L114.042,0h3.774a34.218,34.218,0,0,0,2.044,5.348,17.323,17.323,0,0,0,2.489,3.82,9.5,9.5,0,0,0,2.934,2.292,7.687,7.687,0,0,0,3.379.764,7.079,7.079,0,0,0,2.561-.456,7.657,7.657,0,0,0,2.055-1.192,19.952,19.952,0,0,0,3.2-3.528c1.713-2.217,3.332-4.311,5.983-4.311.046,0,4.646-.237,9.484-.614a22.931,22.931,0,0,1,6.75,4,66.276,66.276,0,0,1,5.987,5.731l2.073,2.186a68.753,68.753,0,0,0,6.515,6.244c2.905,2.587,6.034,5.126,9.3,7.547,3.114,2.308,6.445,4.578,9.9,6.745l.534.315c1.217.722,2.643,1.593,3.989,2.581a19.512,19.512,0,0,1,3.5,3.2,10.871,10.871,0,0,1,1.741,2.84,8.678,8.678,0,0,1,.64,3.37l-.009.838,0,0c.061.058.608.586,1.145,1.2a9.585,9.585,0,0,1,.793,1.022,1.9,1.9,0,0,1,.37.873l.007.311a18.4,18.4,0,0,1-.859,3.022c-.5,1.364-1.314,3.134-2.356,3.823-2.7,1.785-12.348,3.364-13.439,3.538l-.011,0A98.189,98.189,0,0,1,178.127,62.065Z" transform="translate(76.471 517.572)" fill="#fff"/>
      <path id="_Pants" data-name="ðŸ‘– Pants" d="M54.514,0l1.612,1.134c1.5,1.06,3.026,2.143,4.727,3.36L62.62,5.761,72.4,12.8C87.421,23.6,95.544,29.141,105.073,34.82l.79.469.1.007c1.655.091,3.1-.607,5.414-2.338l.238-.18.917-.7.219-.164.83-.615,7.091-5.227c3.781-2.789,6.375-4.72,8.783-6.548l1.405-1.072,1.8-1.385.37.136a1.67,1.67,0,0,0,1.407-.095l.052-.033.5-.337.643.686.407.431c.88.93,1.767,1.843,2.958,3.048l.28.284,3.449,3.467,1.03,1.041c1.326,1.344,2.3,2.357,3.268,3.386l.263.281.523.565.1.091.123.117c.428.413.835.857,1.4,1.52l.167.2.559.66.289.338c1.79,2.077,2.862,2.973,4.351,3.408l.079.022.133.036.052.009a2.839,2.839,0,0,0,2.748-1.12l.067-.07.066-.071.61-.642c2.455-2.574,4.737-4.844,8.5-8.48L168.36,24.7l5.232-5.024,1.062-1.025c.379-.367.734-.712,1.08-1.049l.5-.489,1.45-1.425.494.614a1.143,1.143,0,0,0,1.356.283l.043-.026,1.116-.715-.018,1.323q-.013.965-.054,1.962l-.031.711c-.129,2.725-.361,5.2-.851,9.369l-.052.437-.631,5.233-.114,1.025A417.409,417.409,0,0,1,171.1,80.816l-.222.983c-2.424,10.716-4.683,19.746-8.965,36.014l-1,3.8-3.353,12.662c-3.8,14.386-6.065,23.258-8.3,32.741l-.137.581-.289,1.233-.29,1.245c-2.732,11.794-4.886,22.5-6.543,32.8l-.087.542-.168,1.063c-4.191,26.776-4.958,50.844-1.783,74.222l.1.708.1.683-.681.116a170.547,170.547,0,0,1-38.93,2.431l-.55-.034-.492-.145q-1.244-.373-2.431-.8l-.394-.144-.5-.183.048-.8.029-.509c.45-8.042.317-15-.386-29.125l-.068-1.36-.326-6.344c-.158-3.12-.262-5.342-.347-7.5l-.056-1.468-.057-1.625-.025-.785c-.365-11.855-.068-21.249,1.165-30.146l.083-.586.082-.563.118-1.138c.91-8.656,2.073-16.083,4.6-30.114l.424-2.347,1.1-6.044c2.852-15.781,4.14-24,5.044-33.382l.058-.607.088-.956.34-4.635c.565-7.842.8-12.756.762-17.878l-.005-.549A84.449,84.449,0,0,0,107,85.28l-.092-.407v-.006l-.151-.632-.005-.014-.243-.589.363-.336a54.678,54.678,0,0,0,6.193-6.731c1.032-1.36-1.359-3.364-2.558-2.23l-.036.035-2.38,2.425,1.2-3.175q.992-2.615,1.979-5.277l.395-1.067.134-.365-.463.992c-13.69,29.363-26.014,61.812-37.555,98.082l-.349,1.1-.406,1.282C62.057,203.1,52.244,239.6,40.9,286.34l-.448,1.848-.431.1-.618.138c-9.988,2.2-20.125,2.775-34.965,2.468l-.533-.011-.481-.111q-.983-.23-1.937-.483l-.475-.128L0,289.876l.1-1.611C3.537,233.924,14.008,177.8,31.145,116.833l.521-1.849.3-1.088,1.7-6.056.33-1.188c2.555-9.229,3.7-14.245,4.45-20.12l.023-.186.007-.047A71.953,71.953,0,0,0,39.8,75.106l.012-.373L39.829,74l.732.042c3.93.225,8.711-1.968,10.669-4.961l.058-.091.419-.664.621.481c1.356,1.052,3.408.024,4.6-1.958l.034-.059.058-.115a13.649,13.649,0,0,0,1.207-7.04l-.012-.18-.013-.181a37.949,37.949,0,0,0-1.571-7.654l-.372-1.283,1.107.174a8.24,8.24,0,0,0,6.672-2.146,4.377,4.377,0,0,0,.841-5.781l-.051-.084-.055-.086L64.4,42.1l-.374-.321c-1.341-1.146-2.732-2.261-4.819-3.881l-.6-.466-2.547-1.965c-3.632-2.81-5.709-4.509-7.824-6.472l-.1-.094-.491-.46-.014-.286a41.422,41.422,0,0,1,1.51-12.641l.1-.393.136-.5c.783-2.848,1.644-5.353,3.353-9.906Z" transform="translate(82.421 219.782)" fill="#ffcf77"/>
      <path id="_Ink" data-name="ðŸ– Ink" d="M33.552,600.211h0a71.144,71.144,0,0,1-12.158-1.091,83.6,83.6,0,0,1-11.584-2.9c-.792-.339-1.632-.654-2.444-.958h0a22.162,22.162,0,0,1-6.146-3.056c-.966-.978-1.035-2.5-1.1-3.845-.009-.2-.018-.4-.03-.594-.083-2.157-.143-4.465-.025-6.721a30.689,30.689,0,0,1,1.02-6.679,55.566,55.566,0,0,1,.327-9.033c.3-2.67.755-5.509,1.445-8.935a48.7,48.7,0,0,1,1.508-6.044,36.46,36.46,0,0,0,1.724-7.991,8.594,8.594,0,0,0,.456-3.482,24.587,24.587,0,0,0-.529-3.424,15.159,15.159,0,0,1-.421-5.663,16.766,16.766,0,0,1,2.162-4.6,26.491,26.491,0,0,0,1.56-2.864c.667-1.464,1.218-2.991,1.751-4.468.272-.754.553-1.532.847-2.3-1.684-.321-3.347-.717-4.942-1.178a2.3,2.3,0,0,1-.931,1.326,2.613,2.613,0,0,1-1.464.422,2.956,2.956,0,0,1-2.109-.861,2.3,2.3,0,0,1-.637-1.736c.924-11.558,2.088-23.2,3.46-34.6,1.386-11.518,3.022-23.1,4.863-34.433,1.86-11.451,3.98-22.957,6.3-34.2,2.346-11.362,4.961-22.766,7.774-33.893.535-2.684,1.165-5.407,1.925-8.323.677-2.6,1.442-5.29,2.341-8.233,1.669-5.466,3.552-10.979,5.373-16.31,2.513-7.356,5.111-14.962,7.176-22.536,1.112-4.077,1.985-7.821,2.67-11.446A105.366,105.366,0,0,0,45.283,297.9a18.289,18.289,0,0,0-3.31-.3,15.657,15.657,0,0,0-2.005.122l-.229.029a10.022,10.022,0,0,1-1.266.108,3.683,3.683,0,0,1-1.624-.348,18.672,18.672,0,0,1-4.605-4.056,25.054,25.054,0,0,1-3.33-5.391,38.045,38.045,0,0,1-2.242-6.373,58.131,58.131,0,0,1-1.341-7c-.3-2.259-.51-4.709-.627-7.279-.1-2.253-.137-4.676-.1-7.2.065-4.6.34-8.855.627-12.768a9.362,9.362,0,0,1-1.8-.806,1.254,1.254,0,0,1-.727.252.831.831,0,0,1-.8-.539c-.293-.687-.624-1.376-.944-2.043-.475-.989-.965-2.012-1.341-3.043-1.578-5.417-2.961-11.064-4.11-16.785-1.095-5.45-2.013-11.148-2.73-16.934-.677-5.467-1.2-11.205-1.548-17.054-.327-5.464-.516-11.232-.563-17.145-.044-5.5.029-11.134.224-17.208.173-5.409.439-11.049.812-17.241.694-11.5,1.663-23.178,2.6-34.468.984-11.854,2-24.111,2.69-36.07.151-1.379.281-2.789.419-4.282v0c.259-2.793.526-5.681.947-8.564a52.513,52.513,0,0,1,1.857-8.445,31.091,31.091,0,0,1,1.532-3.9,23.366,23.366,0,0,1,2.074-3.537,19.365,19.365,0,0,1,2.721-3.064,18.592,18.592,0,0,1,3.473-2.479,49.832,49.832,0,0,1,9.776-3.05c.921-.219,1.872-.446,2.794-.682,3.823-1.138,7.774-2.04,11.6-2.913h0c2.9-.662,5.893-1.346,8.8-2.127a80.147,80.147,0,0,0,8.6-2.775,8.153,8.153,0,0,1-1.414-5.2,11.348,11.348,0,0,1,1.568-5.216,2.374,2.374,0,0,1,.891-.83,2.31,2.31,0,0,1,1.065-.241,5.014,5.014,0,0,1,1.9.453,18.482,18.482,0,0,1,1.774.89l.026.014.234.128a57.744,57.744,0,0,0,2.552-6.17C80.94,4.2,81.607,2.032,82.225,0c.433.35.684,1.22.745,2.584a25.23,25.23,0,0,1-.277,4.392,38.157,38.157,0,0,1-.9,4.524,11.266,11.266,0,0,1-1.134,2.981c12.208,7.848,22.294,14,31.74,19.357h0a3.543,3.543,0,0,0,1.3.292,1.413,1.413,0,0,0,.262-.022l.162-.054h0a1.693,1.693,0,0,1,.209-.064h0s0,0,0,.006c.17-.091.326-.182.477-.28v0l0,0h0a32.418,32.418,0,0,0,5.447-7.534c.654-1.111,1.33-2.259,2.027-3.319-3.082-2.713-2.566-7.424-2.111-11.579.13-1.183.252-2.3.287-3.324h.009c.238,0,.429.241.585.737a10.633,10.633,0,0,1,.293,1.442h0a7.247,7.247,0,0,0,.163.856l.006.033a25.622,25.622,0,0,0,1.312,5.145,1.7,1.7,0,0,1,1.406-.525c1.79,0,4.483,1.282,5.929,2.046,1,.527,1.987,1.113,2.862,1.695a12.534,12.534,0,0,1,1.793,1.375,2.656,2.656,0,0,1,.818.789,2.744,2.744,0,0,1,.384.952,8.113,8.113,0,0,1,.047,2.161v0c-.021.324-.043.658-.047.979,1.244.242,2.485.473,3.8.717h0c3.93.731,7.994,1.487,11.924,2.509,2.126.553,4.009,1.13,5.757,1.763a40.855,40.855,0,0,1,5.332,2.34,28.5,28.5,0,0,1,4.692,3.095,22.26,22.26,0,0,1,3.837,4.029,21.413,21.413,0,0,1,2.766,5.141,26.334,26.334,0,0,1,1.48,6.432c2.589,11.007,3.97,22.148,5.27,33.544.2,1.726.4,3.483.6,5.183l0,.037c1.034,8.991,2.1,18.287,3.64,27.351.828,4.881,1.72,9.3,2.727,13.5,1.131,4.722,2.378,9.056,3.811,13.25l.791,1.883.151.36,0,0c2.826,6.723,5.747,13.674,8.364,20.611,1.409,3.736,2.619,7.166,3.7,10.486,1.211,3.727,2.227,7.219,3.107,10.678a49.782,49.782,0,0,1,2.068,9.3c.808,5.016,1.506,10.82,1.967,16.344.258,3.1.439,6.06.536,8.811.106,3.006.113,5.754.02,8.169-.214,5.527-.942,9.3-2.165,11.205a3.593,3.593,0,0,1-1,1.076,2.187,2.187,0,0,1-1.226.376h0a2.946,2.946,0,0,1-1.083-.227,11.225,11.225,0,0,1,.922,1.88,12.446,12.446,0,0,1,.564,1.978,16.987,16.987,0,0,1,.267,4.16,49.5,49.5,0,0,1-1.425,8.5h0v0c-.242,1.063-.471,2.068-.667,3.054-.5,1.982-1.19,4.6-2.11,7.3a42.543,42.543,0,0,1-3.226,7.4,23.707,23.707,0,0,1-2.151,3.183,15.613,15.613,0,0,1-2.574,2.546,11.279,11.279,0,0,1-3.044,1.689,10.482,10.482,0,0,1-3.563.612,14.106,14.106,0,0,1-4.713-.882c-.992,5.3-2.1,10.68-3.373,16.461-1.139,5.155-2.391,10.51-3.827,16.37-2.67,10.893-5.588,21.922-8.41,32.587-2.126,8.035-4.324,16.343-6.4,24.543-2.329,9.188-4.253,17.248-5.883,24.641-1.956,8.872-3.541,17-4.845,24.841-.707,4.251-1.336,8.466-1.871,12.527-.561,4.262-1.038,8.507-1.417,12.616-.429,4.654-.739,9.272-.923,13.727-.192,4.66-.251,9.289-.175,13.757.079,4.653.307,9.275.677,13.736.384,4.631.933,9.228,1.632,13.663a2.232,2.232,0,0,1-.431,1.9,2.079,2.079,0,0,1-1.622.794,2.189,2.189,0,0,1-.9-.2,13.407,13.407,0,0,1-1.686.328c-.3.046-.619.093-.927.151a113,113,0,0,1,2.178,12.775l0,0a2.385,2.385,0,0,1,.6,1.7,15.32,15.32,0,0,1,4.51.711,19.607,19.607,0,0,1,4.122,1.865,34.666,34.666,0,0,1,7.062,5.78c4.071,4.253,7.75,7.842,11.247,10.972a120.627,120.627,0,0,0,12.315,9.751,49.817,49.817,0,0,0,5.92,3.891h0a40.952,40.952,0,0,1,7.731,5.419,13.179,13.179,0,0,1,2.656,3.542,10.681,10.681,0,0,1,.79,2.11,11.283,11.283,0,0,1,.341,2.386,2.042,2.042,0,0,1,.336-.029,1.5,1.5,0,0,1,1.251.654,6.956,6.956,0,0,1,.762,3.891,15.6,15.6,0,0,1-.5,3.686,5.393,5.393,0,0,1-1.761,2.492,13.386,13.386,0,0,1-2.642,1.642c-1.907.638-3.88,1.2-5.864,1.672-1.932.459-3.929.844-5.936,1.145a81.335,81.335,0,0,1-12.02.869c-2.355,0-4.8-.095-7.253-.281-2.356-.179-4.8-.448-7.259-.8-2.348-.335-4.783-.755-7.237-1.248-2.329-.468-4.747-1.016-7.189-1.629-4.476-1.124-9.095-2.475-14.122-4.131-4.144-1.365-8.592-2.948-13.6-4.84a4.665,4.665,0,0,1-.61.04,5.014,5.014,0,0,1-2.81-.907,8.788,8.788,0,0,1-2.246-2.271,13.858,13.858,0,0,1-1.566-2.954,12.651,12.651,0,0,1-.771-2.959,8.289,8.289,0,0,1,.04-2.977,7.292,7.292,0,0,0-.05-3.247l-.035-.093a42.773,42.773,0,0,1-2.164-6.757c-.317-2.166-.56-4.355-.723-6.505a73.608,73.608,0,0,1-.209-7.48,41.456,41.456,0,0,1,.774-7.285,17.726,17.726,0,0,1,2.227-5.92,7.781,7.781,0,0,0,2.771-4.286,15.406,15.406,0,0,0,.077-4.6,25.829,25.829,0,0,1-.087-4.463,55.8,55.8,0,0,1-13.689-3.273,2.644,2.644,0,0,1-2.491-.784,3.062,3.062,0,0,1-.86-1.982c-.094-1.5-.191-3.017-.285-4.488l-.01-.164v0c-.828-13.018-1.685-26.48-1.9-39.74-.111-3.26-.137-6.634-.077-10.028.057-3.234.195-6.594.409-9.987.395-6.26,1.048-12.759,2-19.868.791-5.923,1.806-12.385,3.1-19.756,1.158-6.572,2.427-13.236,3.655-19.68l0-.017c.885-4.645,1.8-9.448,2.663-14.168.26-5.574.908-11.208,1.534-16.656.713-6.2,1.45-12.608,1.62-18.964.241-7.221.543-14.473.9-21.556C105.976,324.27,99.8,341.03,94.064,357.523c-5.839,16.784-11.391,33.76-16.5,50.459-2.587,8.456-5.116,17.02-7.517,25.456-2.421,8.509-4.779,17.122-7.007,25.6-2.249,8.554-4.429,17.214-6.482,25.737-2.07,8.6-4.069,17.3-5.94,25.869a2.488,2.488,0,0,1,.994,2.465,1.819,1.819,0,0,1-.474.917,1.965,1.965,0,0,1-1.047.538c-3.057.608-6.13,1.1-9.131,1.467a25.335,25.335,0,0,1-.138,4.253c-.154,1.477-.393,3.034-.625,4.539v0a53.083,53.083,0,0,0-.83,8.01,16.288,16.288,0,0,0,.392,3.689,10.138,10.138,0,0,0,1.365,3.272,8.916,8.916,0,0,1,1.083,2.031,2.625,2.625,0,0,1-.176,2.207c2.9,5.442,5.3,10.452,7.325,15.315,1.115,2.679,2.129,5.349,3.014,7.935.935,2.735,1.758,5.473,2.448,8.139a2.225,2.225,0,0,1,.844-.176,2.447,2.447,0,0,1,1.759.863,6.454,6.454,0,0,1,1.061,1.558,12.2,12.2,0,0,1,.764,1.926,11.555,11.555,0,0,1,.572,3.465,21.265,21.265,0,0,0,.146,3.159h0a22.016,22.016,0,0,1,.128,4.149,4.422,4.422,0,0,1-1.493,3.2,38.185,38.185,0,0,1-5.781,3.044,42.806,42.806,0,0,1-6.18,2.06A53.619,53.619,0,0,1,33.552,600.211Zm-31.511-19.5h0c.045.677.044,1.535.043,2.443v0c0,2.68-.006,6.016,1.125,7.55a62.627,62.627,0,0,0,14.279,5.3,65.175,65.175,0,0,0,15.15,1.787,64.4,64.4,0,0,0,7.287-.414c1.495-.173,2.942-.4,4.3-.678a40.666,40.666,0,0,0,4.23-1.091,32.628,32.628,0,0,0,4.054-1.588,27.1,27.1,0,0,0,3.775-2.167c1.177-.521,1.077-1.634.981-2.711a8.812,8.812,0,0,1-.052-.972,24.676,24.676,0,0,1-.106-3.078h0c.015-2.566.03-5.22-1.7-7.1a22.579,22.579,0,0,1,.712,7.016,2.079,2.079,0,0,1,.615.722,2.27,2.27,0,0,1,.254.916,1.843,1.843,0,0,1-.939,1.416,9.363,9.363,0,0,1-2.488,1.133,45.127,45.127,0,0,1-7.829,1.534,137.867,137.867,0,0,1-14.526.949h-.185a70.181,70.181,0,0,1-7.376-.544,70.341,70.341,0,0,1-9.389-1.767,29.629,29.629,0,0,1-8.252-3.353,10.777,10.777,0,0,1-2.716-2.386,5.9,5.9,0,0,1-1.251-2.919ZM26.46,535.955a19.374,19.374,0,0,0-4.352.539,31.284,31.284,0,0,0-4.355,1.384,61.809,61.809,0,0,0-7.889,3.913,8.939,8.939,0,0,1-1.319,3.738,14.089,14.089,0,0,0-.891,1.843,7.013,7.013,0,0,0-.444,2.292c-.285,1.932-.631,3.868-1,5.918v.007a96.41,96.41,0,0,0-1.755,13.426,35,35,0,0,0,.345,6.619,26.407,26.407,0,0,0,.7,3.217,23.508,23.508,0,0,0,1.14,3.13,45.261,45.261,0,0,0,5.993,2.656,49.649,49.649,0,0,0,6.241,1.783,56.728,56.728,0,0,0,6.416,1c2.1.208,4.292.314,6.518.314a81.454,81.454,0,0,0,9.515-.584c3-.355,6.152-.881,9.354-1.562a2.553,2.553,0,0,1,1.551-.832,21.9,21.9,0,0,0-.7-7.545l0-.023c-.106-.5-.216-1.025-.315-1.533-.978-4.19-2.169-8.4-3.32-12.469v0l0-.013c-.562-1.985-1.142-4.038-1.691-6.064a8.931,8.931,0,0,1-2.722-2.947,31.3,31.3,0,0,1-1.856-3.761l0,0c-.364-.83-.709-1.613-1.087-2.355-.5-1.008-.916-1.826-1.316-2.574a4.2,4.2,0,0,1-2.219-1.812,15,15,0,0,1-1.288-2.728c-.177-.451-.345-.877-.528-1.284a11.737,11.737,0,0,0-1.951-1.707,10.775,10.775,0,0,0-2.128-1.142A12.453,12.453,0,0,0,26.46,535.955Zm88.983,24.209a9.626,9.626,0,0,0,.084,2.608,8.207,8.207,0,0,0,.729,2.224,8.927,8.927,0,0,0,1.263,1.879,11.619,11.619,0,0,0,1.687,1.573,28.055,28.055,0,0,0,8.76,4.009c6.206,2.2,12.873,4.176,20.379,6.032a133.376,133.376,0,0,0,14.574,2.921c2.485.349,4.968.616,7.381.794,2.5.183,4.989.277,7.41.277h0c2.33,0,4.658-.086,6.919-.256,2.326-.175,4.649-.443,6.9-.8.384-.069.8-.139,1.237-.213,4.265-.718,10.709-1.8,11.585-6.255.027-.255.083-1.2.09-2.223a9.25,9.25,0,0,0-.19-2.4.758.758,0,0,1-.318-.075,7.551,7.551,0,0,1-1.451,2.6,10.3,10.3,0,0,1-2.333,2.015,14.117,14.117,0,0,1-2.9,1.405,16.335,16.335,0,0,1-3.155.775,4.5,4.5,0,0,1-2.2,1.163,11.347,11.347,0,0,1-2.673.255c-.494,0-.994-.015-1.434-.028h-.027c-.471-.014-.915-.027-1.349-.027-.244,0-.46,0-.661.013-2.023-.02-4.114-.112-6.213-.273-2-.154-4.073-.375-6.16-.659-3.852-.523-7.836-1.259-12.18-2.251-8.062-1.84-16.12-4.291-23.913-6.661h0l-.238-.073-2.437-.74c-1.439-.5-3.281-.964-5.231-1.456a73.568,73.568,0,0,1-8.045-2.358C118.442,562.848,116.514,561.608,115.442,560.164Zm1-38.712c-2.179,0-2.912,5.381-3.306,8.271-.076.559-.142,1.042-.2,1.364a62.535,62.535,0,0,0,.044,15.358c.9,6.136,2.961,10.657,6.14,13.436a71.819,71.819,0,0,0,7.106,2.559c2.4.741,4.879,1.409,7.271,2.056l.007,0,.006,0c2.9.784,5.9,1.594,8.8,2.54,3.409,1,7.061,2.064,10.663,3.035,3.971,1.071,7.5,1.931,10.8,2.629,3.887.823,7.462,1.429,10.93,1.85a90.775,90.775,0,0,0,11.052.7h.005c1.079,0,2.164-.022,3.223-.066.5-.994,2.157-1.2,4.078-1.448a20.881,20.881,0,0,0,3.959-.769,6.036,6.036,0,0,0,3.237-2.278,6.424,6.424,0,0,0,.778-2.051,4.967,4.967,0,0,0-.022-1.893,5.869,5.869,0,0,0-.681-1.741,9.067,9.067,0,0,0-1.2-1.6,31.31,31.31,0,0,0-7.144-5.081l-.007,0c-.693-.4-1.347-.78-1.918-1.134a144.621,144.621,0,0,1-23.875-19.113c-.939-.933-1.873-1.921-2.777-2.876l0,0a48.906,48.906,0,0,0-7.74-7.093A18.43,18.43,0,0,0,151.6,526a13.185,13.185,0,0,0-4.478-.836,10.078,10.078,0,0,0-3.51.615,8.219,8.219,0,0,0-2.88,1.887,25.359,25.359,0,0,0-2.264,2.65,17.316,17.316,0,0,1-3.5,3.688,8.729,8.729,0,0,1-4.786,1.49,9.256,9.256,0,0,1-4.083-1,14.092,14.092,0,0,1-3.606-2.6,19.849,19.849,0,0,1-4.8-7.618.2.2,0,0,1,.013-.189.271.271,0,0,1,.222-.106.283.283,0,0,1,.088.014c-.011-.042-.019-.086-.029-.135l-.014-.067a1.212,1.212,0,0,1-.853-.892,4.632,4.632,0,0,1-.164-1.35A1.547,1.547,0,0,0,116.44,521.452Zm-103.66-5.73h0a13.238,13.238,0,0,1,.155,3.4,17.449,17.449,0,0,1-.594,3.271,46.184,46.184,0,0,1-2.414,6.286l-.008.018c-.3.672-.6,1.366-.889,2.047a7.829,7.829,0,0,0-.005,2.386c.107.791.3,1.592.484,2.367a12.49,12.49,0,0,1,.51,4.668,38.319,38.319,0,0,1,8-4.861,22.688,22.688,0,0,1,9.1-2.13,15.176,15.176,0,0,1,3.78.465,13.868,13.868,0,0,1,3.621,1.5c.039-4.11,1.328-8.129,2.575-12.016.144-.449.274-.853.4-1.254l.272-.84,0-.007c.513-1.585,1.044-3.225,1.635-4.81a116.982,116.982,0,0,1-12.217.671c-2.463,0-4.891-.092-7.216-.275-2.449-.192-4.867-.49-7.184-.885Zm106.2-6.62q.21,3.188.421,6.376c.153,2.307.31,4.692.465,7.041a1.2,1.2,0,0,1-.541,1.149,12.887,12.887,0,0,0,1.3,3.141,13.466,13.466,0,0,0,2.075,2.731,12.52,12.52,0,0,0,2.7,2.09,10.943,10.943,0,0,0,3.177,1.22,7.271,7.271,0,0,0,.925.061,5.806,5.806,0,0,0,2.224-.424,6.766,6.766,0,0,0,1.817-1.121,20.361,20.361,0,0,0,2.976-3.431,25.719,25.719,0,0,1,2.534-3.052,9.208,9.208,0,0,1,1.5-1.2,6.777,6.777,0,0,1,1.769-.8c-.767-1.72-.637-3.812-.512-5.835a27.443,27.443,0,0,0,.082-2.761,60.056,60.056,0,0,1,.454-6.43c-3.251.448-6.225.776-9.093,1.006-3.215.257-6.2.382-9.129.382C122.379,509.241,120.649,509.194,118.981,509.1ZM116.85,520a6.52,6.52,0,0,1-.518.872,1.377,1.377,0,0,1,.587.192C116.9,520.7,116.873,520.325,116.85,520ZM46.091,298.016a61.576,61.576,0,0,1-.166,9.023,86.005,86.005,0,0,1-1.288,8.911c-1.148,5.907-2.811,11.82-4.42,17.539l-.006.02c-.463,1.647-.942,3.35-1.4,5.019-2.044,7.228-4.013,14.456-5.852,21.482-1.9,7.26-3.718,14.528-5.406,21.6-1.739,7.29-3.392,14.6-4.912,21.717-1.563,7.319-3.033,14.662-4.371,21.826-1.372,7.349-2.644,14.728-3.781,21.93-1.165,7.377-2.223,14.789-3.145,22.029-.942,7.4-1.77,14.847-2.46,22.121-.7,7.43-1.285,14.9-1.727,22.209,3.121.084,6.828.17,10.658.17,5.363,0,10.05-.175,14.328-.536a102.172,102.172,0,0,0,14.176-2.132c5.55-22.906,10.361-41.868,15.141-59.673,2.786-10.376,5.592-20.457,8.342-29.964,2.971-10.271,6-20.3,9-29.8,3.2-10.129,6.484-20.037,9.765-29.447,3.465-9.938,7.043-19.664,10.637-28.908,3.77-9.7,7.678-19.178,11.616-28.181,4.11-9.4,8.384-18.57,12.7-27.267-2.41,6.882-4.736,13.268-7.108,19.522a1.9,1.9,0,0,1,1.385-.582,2.926,2.926,0,0,1,2.465,1.59,1.926,1.926,0,0,1-.178,2.113,55.485,55.485,0,0,1-6.277,6.824l.006.014c.028.068.054.13.077.192,3.155,13.031,2.139,26.824,1.157,40.163q-.067.907-.133,1.809c-.527,5.8-1.338,12.112-2.481,19.3-1.019,6.4-2.2,12.894-3.344,19.17v0c-1.075,5.9-2.187,12-3.161,18.026-1.092,6.752-1.891,12.683-2.443,18.13-.544,3.659-.925,7.425-1.167,11.512-.215,3.637-.314,7.445-.3,11.641.023,7.788.435,15.718.834,23.386.3,5.753.608,11.7.744,17.468.073,3.1.091,5.91.056,8.585-.039,3-.145,5.764-.321,8.445,4.057.353,8.257.532,12.484.532,4.871,0,9.933-.238,15.047-.707,4.834-.444,9.864-1.108,14.949-1.974-.882-6.33-1.486-12.864-1.8-19.418-.3-6.249-.334-12.727-.114-19.254.208-6.171.655-12.6,1.328-19.114.629-6.087,1.481-12.479,2.531-19,.978-6.071,2.12-12.255,3.493-18.905,1.222-5.924,2.6-12.086,4.214-18.837,3-12.54,6.37-25.261,9.632-37.563v0c4-15.094,8.141-30.7,11.623-46.118,1.874-8.3,3.413-15.88,4.706-23.18.7-3.955,1.334-7.871,1.883-11.639.576-3.955,1.079-7.885,1.5-11.68.11-.932.226-1.882.338-2.8l.006-.046a138.891,138.891,0,0,0,1.271-14.8,1.652,1.652,0,0,1-.894.255,1.885,1.885,0,0,1-1.445-.665c-2.184,2.149-4.433,4.3-6.607,6.389h0c-4.177,4-8.5,8.145-12.543,12.419a5.675,5.675,0,0,1-1.317,1.109,3.078,3.078,0,0,1-1.568.419,4.01,4.01,0,0,1-.718-.068,6.385,6.385,0,0,1-1.617-.659,8.6,8.6,0,0,1-1.4-1.009,23.706,23.706,0,0,1-2.415-2.59,25.785,25.785,0,0,0-2.129-2.324c-2.128-2.311-4.37-4.559-6.537-6.734-1.946-1.952-3.958-3.97-5.886-6.031a2.211,2.211,0,0,1-1.236.359,2.5,2.5,0,0,1-.866-.154c-4.732,3.652-9.628,7.257-14.363,10.743l0,0c-1.652,1.216-3.359,2.473-5.043,3.72-.31.228-.616.462-.941.709l-.006,0a23.44,23.44,0,0,1-2.931,2.014,6.87,6.87,0,0,1-3.309.946h0a5.486,5.486,0,0,1-.551-.028c-3.1-1.835-6.235-3.776-9.574-5.935-2.975-1.924-6.048-3.977-9.394-6.278-6.215-4.273-12.444-8.767-18.469-13.112-4.366-3.149-8.881-6.406-13.345-9.546-.239.635-.484,1.282-.72,1.907l-.031.081a129.638,129.638,0,0,0-4.2,12.306,49.106,49.106,0,0,0-1.276,6.28,35.543,35.543,0,0,0-.288,6.431c2.971,2.8,6.262,5.33,9.444,7.78l0,0c2.516,1.937,5.118,3.941,7.523,6.047a5.642,5.642,0,0,1,1,2.844,4.811,4.811,0,0,1-.6,2.544,6.4,6.4,0,0,1-1.262,1.615,8.311,8.311,0,0,1-1.758,1.255,9.184,9.184,0,0,1-4.271,1.1,7.6,7.6,0,0,1-1.174-.09,40.974,40.974,0,0,1,1.658,8.006,17.694,17.694,0,0,1-.11,4.065,12.49,12.49,0,0,1-1.215,3.85c-.793,1.361-2.392,2.826-4.027,2.826a2.674,2.674,0,0,1-1.668-.591,9.378,9.378,0,0,1-1.973,2.191,13.505,13.505,0,0,1-2.674,1.707,14.3,14.3,0,0,1-6.131,1.5,9.681,9.681,0,0,1-1.481-.11ZM42.149,292.6h0c.553,0,1.1.026,1.616.078.881.088,1.768.226,2.626.359h0l.253.039.071.011a9.061,9.061,0,0,0,1.143.067,6.532,6.532,0,0,0,.693-.032.716.716,0,0,1-.074,0,9.091,9.091,0,0,0,3.967-1.73,19.342,19.342,0,0,1,2-1.158,4.743,4.743,0,0,1,2.013-.524,3.289,3.289,0,0,1,1.9.619,6.258,6.258,0,0,1,1.048-1.131,9.007,9.007,0,0,0,.757-.748,7.925,7.925,0,0,0,.77-1.875,10.788,10.788,0,0,0,.334-1.982,29.877,29.877,0,0,0-.058-4.144c-.069-1.154-.141-2.348-.1-3.5a10.941,10.941,0,0,1,.59-3.339,1.935,1.935,0,0,1-.33-1.514,2.3,2.3,0,0,1,.907-1.42,5.018,5.018,0,0,1,2.747-.925,8.276,8.276,0,0,0,1.814-.39,2.428,2.428,0,0,0,.721-.422,1.923,1.923,0,0,0,.507-.7c-.016.029-.03.044-.039.044a.01.01,0,0,1-.008,0,.124.124,0,0,1-.006-.079.213.213,0,0,1,.017-.06l.031.025.031.025.013.011c-.017-.055-.034-.083-.051-.083s-.017.008-.024.022a107.437,107.437,0,0,1-10.178-9.376,65.754,65.754,0,0,1-4.485-5.294,51.934,51.934,0,0,1-3.827-5.813,1.3,1.3,0,0,1-.921.381,1.47,1.47,0,0,1-.986-.393,1.618,1.618,0,0,1-.517-1.037,38.985,38.985,0,0,1-6.148,1.58,37.538,37.538,0,0,1-6.312.54,35.2,35.2,0,0,1-8.691-1.077c.218,1.631.431,3.537.678,5.744v.008c.367,3.279.783,7,1.336,10.861.641,4.479,1.343,8.28,2.146,11.622.472,1.964.986,3.79,1.528,5.428a40.786,40.786,0,0,0,1.913,4.816,22.778,22.778,0,0,0,2.358,3.937,12.486,12.486,0,0,0,2.863,2.79A23.525,23.525,0,0,1,42.149,292.6Zm163.264-49.87h0a54.666,54.666,0,0,1-15.245,5.589c-.611,5.843-1.2,10.977-1.8,15.693-.716,5.615-1.458,10.727-2.268,15.628.266.046.54.1.8.146l.027,0a17.619,17.619,0,0,0,3.144.392,6.041,6.041,0,0,0,1.744-.234,4.77,4.77,0,0,0,1.633-.854c2.464-2.39,4.57-5.866,6.438-10.626a123.841,123.841,0,0,0,3.963-12.8v0c.5-1.87.981-3.636,1.47-5.278a22.758,22.758,0,0,0,.745-3.845,8.829,8.829,0,0,0-.043-2.013,4.9,4.9,0,0,0-.612-1.8ZM52.693,115.22c-.981,4.15-1.819,8.566-2.639,13.9-.473,2.941-.882,5.994-1.216,9.074-.318,2.936-.577,5.994-.772,9.088-.359,5.711-.511,11.667-.466,18.208.084,12.151.857,24.519,1.6,36.48v.01c.419,6.707.852,13.643,1.158,20.458.344,7.646.488,14.328.441,20.431a1.331,1.331,0,0,1,.428,1.182,1.609,1.609,0,0,1-.837,1.221c-.131.588-.288,1.176-.466,1.747.768.728,1.473,1.385,2.154,2.01a27,27,0,0,1,.174-4.968,36.95,36.95,0,0,1,.95-4.841,96.971,96.971,0,0,1,3.191-9.464c.865-2.3,1.759-4.68,2.494-7.04a15.034,15.034,0,0,0-1.826-1.308c-1.781-1.151-3.622-2.342-3.268-4.647.373-6.815.856-13.736,1.437-20.57h0c1.183-12.581,2.405-25.59,2.613-38.521.111-6.93-.074-13.228-.567-19.253-.267-3.267-.631-6.488-1.082-9.574-.474-3.24-1.059-6.443-1.74-9.519-.021-.114-.045-.264-.07-.423a13.5,13.5,0,0,0-.489-2.2C53.593,115.8,53.186,115.306,52.693,115.22ZM205.871,242.485l-.049.027h0l-.029.016.037.031.148.125A2.007,2.007,0,0,1,205.871,242.485ZM145.6,226a2.557,2.557,0,0,0-1.5.508,2.939,2.939,0,0,0-.993,1.249,2.313,2.313,0,0,0,.581,2.626,2.388,2.388,0,0,0,1.717.77,2.553,2.553,0,0,0,1.493-.507,2.94,2.94,0,0,0,.993-1.248,2.318,2.318,0,0,0-.579-2.631A2.392,2.392,0,0,0,145.6,226Zm-1.79-25.978a1.489,1.489,0,0,0-1.036.429,2.277,2.277,0,0,0-.6,1.027,2.472,2.472,0,0,0-.007,1.346,1.854,1.854,0,0,0,.821,1.085,1.26,1.26,0,0,0,1.905-.2,2.9,2.9,0,0,0,.605-1.247,2.571,2.571,0,0,0-.026-1.313,1.507,1.507,0,0,0-.8-.94l-.005.007-.016.021A1.842,1.842,0,0,0,143.807,200.017Zm-3-33.984a1.99,1.99,0,0,0-1.886,1.533,4.109,4.109,0,0,0,.09,1.891,4.561,4.561,0,0,0,.893,1.678c.154.64.474.978.927.978a2.481,2.481,0,0,0,1.672-1.1,3.905,3.905,0,0,0,.6-1.059,1.777,1.777,0,0,0,.1-1.011,2.638,2.638,0,0,0-.648-2.084A2.416,2.416,0,0,0,140.81,166.033Zm-5.571-28.212a2.019,2.019,0,0,0-1.15.343,1.948,1.948,0,0,0-.755,1.075,2.008,2.008,0,0,0,.348,1.758,2.363,2.363,0,0,0,1.823.852,1.887,1.887,0,0,0,1.283-.465,2.025,2.025,0,0,0,.6-1.485,1.96,1.96,0,0,0-.564-1.435A2.237,2.237,0,0,0,135.239,137.821Zm-4.31-27.96a1.989,1.989,0,0,0-1.985,1.87,2.32,2.32,0,0,0,.285,1.441,1.916,1.916,0,0,0,1.244.9,2.091,2.091,0,0,0,.5.063,1.69,1.69,0,0,0,1.383-.715,2.63,2.63,0,0,0,.491-1.546,2.187,2.187,0,0,0-.45-1.39,1.771,1.771,0,0,0-1.422-.624Zm-3.2-25.1a1.691,1.691,0,0,0-1.373.715,2.429,2.429,0,0,0-.341,1.308,2.563,2.563,0,0,0,.337,1.2,1.819,1.819,0,0,0,1.49,1.01,1.349,1.349,0,0,0,.832-.3,2.7,2.7,0,0,0,.749-.991,1.808,1.808,0,0,0,.309-.961,1.784,1.784,0,0,0-.223-.882A2.1,2.1,0,0,0,127.73,84.764Zm-6.607-27.977a1.514,1.514,0,0,0-1.356.871,1.717,1.717,0,0,0-.044,1.8,2.081,2.081,0,0,0,.7.747,1.791,1.791,0,0,0,.963.295,1.668,1.668,0,0,0,1.053-.388,1.8,1.8,0,0,0,.662-.911,1.565,1.565,0,0,0-.033-.953A2.208,2.208,0,0,0,121.122,56.787Z" transform="translate(75.997 -3.555)"/>
    </g>
    <g id="Head" transform="translate(95.946 42.662)">
      <g id="HEAD-2" data-name="HEAD">
        <path id="_Skin-2" data-name="âœ‹ Skin" d="M42.212,0C55.668,0,75.364,8.987,76.846,17.633c1.746,10.189,5.622,48.5,3.512,61.04s-10.341,21.8-28.541,21.8-31.785-9.926-34.9-13.335-6.9-14.014-6.9-14.014S.049,71.436,0,63.492s5.006-10.4,5.006-10.4-2.727-32.956,3-41.118S28.756,0,42.212,0Z" transform="translate(15.149 17.837)" fill="#d08b5b"/>
        <path id="_Ink-2" data-name="ðŸ– Ink" d="M47.661,120.412c-1.927-.2-3.92-.18-5.328-1.64a.952.952,0,0,1,.19-1.484,4.748,4.748,0,0,1,3.017-.384c.988.135,1.979.242,2.974.311a43.87,43.87,0,0,0,6.413-.01,33.416,33.416,0,0,0,11.489-3.086A26.414,26.414,0,0,0,79.38,101.5c3.007-6.577,2.813-14.2,2.673-21.265-.154-7.75-.441-15.477-1.114-23.2-.327-3.745-.832-7.463-1.287-11.191q-.36-2.972-.941-5.911c-.2-1.036-.469-2.057-.687-3.086a4.062,4.062,0,0,1-.486.047,3.871,3.871,0,0,1-2.809-.912,2.055,2.055,0,0,1-1.071.334c-4.074.2-8.212-.047-12.293-.05s-8.193,0-12.29.012-8.2.05-12.288-.059a74.272,74.272,0,0,1-11.5-.716c-1.263,4.489-1.218,9.421,1.415,13.431A2.357,2.357,0,0,1,25.87,52.1a9.712,9.712,0,0,1-4.3,1.939c-.148.332-.3.661-.443.991a34.1,34.1,0,0,0-1.841,5.08c-.236.9-.44,1.824-.611,2.749.014.162.028.324.046.485a.428.428,0,0,0,0,.052c.01.067.021.142.029.185.088.465.173.929.265,1.391q.331,1.688.512,3.4c.221,2.086.2,4.8-1.834,6.032a3.992,3.992,0,0,1-3.541.149,14.9,14.9,0,0,1-2.14-1.135c-.422-.247-.863-.448-1.275-.7a2.529,2.529,0,0,1-.324-.247,8.885,8.885,0,0,0-1.943.678A10.113,10.113,0,0,0,5.51,75.456a9.606,9.606,0,0,0-2.081,7.39c.234,2.42,1.185,5.2,3.1,6.809a4.53,4.53,0,0,0,2.967,1.1,6.23,6.23,0,0,0,1.56-.256,14.921,14.921,0,0,0,1.623-.284A1.049,1.049,0,0,1,13.962,91.5a8.233,8.233,0,0,1-.609,1.415,107.5,107.5,0,0,0,6.4,9.289c2.062,2.683,4.489,4.939,6.783,7.4,1.012,1.086,1.434,3.223-.4,3.687s-3.192-1.5-4.242-2.687A39.98,39.98,0,0,1,12.72,93.564a5.191,5.191,0,0,1-2.33.877,7.561,7.561,0,0,1-4.825-.946c-5.546-3.2-6.887-11.855-4.29-17.278A9.77,9.77,0,0,1,3.955,72.84a.793.793,0,0,1-.067-.583c.1-.375.211-.745.326-1.114a.324.324,0,0,1-.2-.345q.156-1.6.308-3.2c-.036-1.612-.114-3.221-.1-4.842.029-2.583.185-5.164.195-7.748C4.451,46,4.818,37,4.844,27.985c.014-4.406.023-8.819-.093-13.223,0-.059,0-.116,0-.176-.1-3.524-1.028-8.241,2.417-10.521a2.05,2.05,0,0,1,1.889-.137,14.861,14.861,0,0,1,6.121-2.174C19.225,1.1,23.311.786,27.389.371A53.767,53.767,0,0,1,33.9.12C35.014.144,36.137.1,37.262.064,38.321.026,39.382-.012,40.44,0c2.474.04,4.967.133,7.451.337l.351-.033c4.673-.448,9.34-.045,14.011.152C66.7.646,71.4,1.106,75.4,3.236a6.152,6.152,0,0,1,1.32.931,4.19,4.19,0,0,1,1.464.469,2.44,2.44,0,0,1,3.027,1.809,20.747,20.747,0,0,1,.346,6.613c-.007.052-.012.107-.019.163a13.793,13.793,0,0,1,.055,6.336q.282,3.847.31,7.705c.01,1.776.09,3.585-.076,5.356a6.909,6.909,0,0,1-1.795,3.972.805.805,0,0,1-.778.206,1.009,1.009,0,0,1-.184-.055c.608,1.3,1.089,2.686,1.581,4.007a59.248,59.248,0,0,1,2.078,6.411,89.67,89.67,0,0,1,2.225,13.358c.737,8.008,1.014,16.086,1.157,24.125.137,7.617-.533,15.562-4.873,22.075a31.56,31.56,0,0,1-16.006,12.066,39.274,39.274,0,0,1-11.584,1.86q-.625.019-1.251.018A45.914,45.914,0,0,1,47.661,120.412ZM14.518,85.462c-1.32-.865-1.962-2.451-3.1-3.536a13.36,13.36,0,0,0-1.8-1.425,7.105,7.105,0,0,0-.889-.559c-.031-.015-1.33-.436-1.078.121.085.185-.137.391-.3.228-.45-.458-.2-1.007.23-1.415.775-.737,1.931-.567,2.882-.391a10.161,10.161,0,0,1,3.721,1.564c1.2.8,2.68,1.906,2.917,3.42a1.955,1.955,0,0,1-1.7,2.278A1.615,1.615,0,0,1,14.518,85.462Z" transform="translate(13.034 -0.711)"/>
      </g>
      <g id="FACE" transform="translate(37.761 44.084)">
        <path id="_Ink-3" data-name="ðŸ– Ink" d="M25.657,45.461a9.063,9.063,0,0,1-3.431-.684,9.7,9.7,0,0,1-2.239-1.284,9.528,9.528,0,0,1-1.823-1.835,1.877,1.877,0,0,1-.38-1.455,2.1,2.1,0,0,1,.818-1.315,2.018,2.018,0,0,1,1.2-.417,1.744,1.744,0,0,1,.268.021,1.853,1.853,0,0,1,1.24.818l.073.1a6.4,6.4,0,0,0,2.345,1.964,5.334,5.334,0,0,0,2.326.542,5.164,5.164,0,0,0,.576-.032,6.066,6.066,0,0,0,2.561-.9,11.986,11.986,0,0,0,2.169-1.807c.155-.158.32-.33.533-.557a.844.844,0,0,1,.442-.34.908.908,0,0,1,.288-.046.978.978,0,0,1,.322.055.967.967,0,0,1,.48.363.892.892,0,0,1,.152.588,5.387,5.387,0,0,1-.641,2.09,6.979,6.979,0,0,1-1.371,1.757,8.815,8.815,0,0,1-2.077,1.445,8.659,8.659,0,0,1-2.3.789A8.505,8.505,0,0,1,25.657,45.461Zm2.415-13.648h0a8.305,8.305,0,0,1-2.956-.595,14.94,14.94,0,0,1-3.477-1.969,1.333,1.333,0,0,1-.485-.77,1.592,1.592,0,0,1,.069-.865,1.967,1.967,0,0,1,.585-.844,1.427,1.427,0,0,1,.912-.355,1.3,1.3,0,0,1,.706.216l.235.181,0,0a18.824,18.824,0,0,0,2.176,1.51,5.369,5.369,0,0,0,2.609.83,2.822,2.822,0,0,0,1.1-.216,3.08,3.08,0,0,0,1.026-.726,3.137,3.137,0,0,0,.6-2.529,4.774,4.774,0,0,0-1.27-2.243,9.26,9.26,0,0,0-1.923-1.549.594.594,0,0,1-.161-.684.893.893,0,0,1,.3-.426.911.911,0,0,1,.568-.187,1.212,1.212,0,0,1,.2.018,6.458,6.458,0,0,1,2.268.818,5.141,5.141,0,0,1,1.525,1.4,5.568,5.568,0,0,1,.974,3.725,6.128,6.128,0,0,1-.5,1.955,5.7,5.7,0,0,1-1.124,1.68A5.379,5.379,0,0,1,28.072,31.813ZM8.835,18.486A1.979,1.979,0,0,1,6.917,16.73a14.215,14.215,0,0,1,.076-3.709c.045-.36.091-.733.124-1.135A2.219,2.219,0,0,1,7.959,10.3a2.6,2.6,0,0,1,1.6-.561,1.972,1.972,0,0,1,1.208.379,1.787,1.787,0,0,1,.667,1.185,9.934,9.934,0,0,1-1.041,6.133,1.969,1.969,0,0,1-.7.8A1.607,1.607,0,0,1,8.835,18.486Zm28.237-.841a1.7,1.7,0,0,1-1.33-.569,5.182,5.182,0,0,1-.812-1.375,5.978,5.978,0,0,1-.413-1.656,3.506,3.506,0,0,1,.959-3.013,1.987,1.987,0,0,1,.154-.234,2.174,2.174,0,0,1,1.672-.96,1.815,1.815,0,0,1,.508.075,2.443,2.443,0,0,1,1.633,1.422,5.02,5.02,0,0,1,.2,2.751,9.2,9.2,0,0,1-.836,2.6,1.686,1.686,0,0,1-.722.712A2.193,2.193,0,0,1,37.072,17.645ZM.312,8.807A.308.308,0,0,1,.056,8.65a.343.343,0,0,1-.021-.337A11.7,11.7,0,0,1,2.662,4.995,16.241,16.241,0,0,1,6.177,2.6a15.138,15.138,0,0,1,4.175-1.453l.446-.078A10.884,10.884,0,0,1,12.62.87a2.818,2.818,0,0,1,2.248.837,1.9,1.9,0,0,1,.452,1.354,1.24,1.24,0,0,1-.452.885,3.468,3.468,0,0,1-2.374.695c-.187,0-.381,0-.568-.009H11.92c-.18,0-.384-.01-.586-.01-.186,0-.353,0-.508.013a16.081,16.081,0,0,0-3.534.6A24.028,24.028,0,0,0,.477,8.754.293.293,0,0,1,.312,8.807ZM43.306,7.012h0l-.188-.047a10.648,10.648,0,0,1-2.061-.8l-.669-.329A18.614,18.614,0,0,0,38,4.817a28.262,28.262,0,0,0-5.446-1.2A2.228,2.228,0,0,1,31.458,3.2a1.634,1.634,0,0,1-.611-.929A1.659,1.659,0,0,1,31.035.882,1.776,1.776,0,0,1,31.9.14,1.943,1.943,0,0,1,32.633,0a2.169,2.169,0,0,1,.424.042l.341.07A24.407,24.407,0,0,1,39.28,2.019a11.9,11.9,0,0,1,2.587,1.7A7.537,7.537,0,0,1,43.7,6.075c.064.493,0,.615-.062.7l-.019.024-.017.023a.473.473,0,0,1-.292.194Z" transform="translate(12.587 12.325)"/>
      </g>
    </g>
  </g>
</svg>
