<svg xmlns="http://www.w3.org/2000/svg" width="390.67" height="780" viewBox="0 0 390.67 780">
  <g id="peep-standing-16" transform="translate(28.736)">
    <g id="BODY" transform="translate(-28.736 150.264)">
      <path id="_Skin" data-name="âœ‹ Skin" d="M61.408,523.748h0a56.3,56.3,0,0,1-15.915-2.312,53.09,53.09,0,0,1-7.422-2.811,47.328,47.328,0,0,1-6.736-3.845,4.248,4.248,0,0,1-1.655-1.792,7.732,7.732,0,0,1-.765-2.606,11.907,11.907,0,0,1,.258-4.246,6.67,6.67,0,0,1,1.589-3.163A290.209,290.209,0,0,1,39.9,456.634c-.047-.574-.086-1.211-.118-1.894-2.093-2.051-3.228-4.877-3.572-8.893a.215.215,0,0,1,.045-.192c.272-.346,1.605-.469,2.762-.469.276,0,.526.008.686.021.015-.049.1-.074.247-.074a65.229,65.229,0,0,1,8.189,1.995c3.179.87,6.781,1.855,10.23,2.685a64.545,64.545,0,0,0,9.078,1.69c.04,0,.081,0,.121,0a3.291,3.291,0,0,0,2.227-1.356,16.61,16.61,0,0,0,1.572-2.17l0,0a2.741,2.741,0,0,1,.353-.506l-29.269-6.72-.506-.044-.106-.009-.051,0c-.5-.044-1.125-.1-1.3-.111.289-2.908.575-5.877.853-8.748l0-.026v-.01c.74-7.666,1.5-15.593,2.414-23.4,1.022-8.767,2.117-16.4,3.347-23.324A232.086,232.086,0,0,1,52.3,362.172c1.091-3.846,2.291-7.614,3.567-11.2,1.339-3.763,2.809-7.454,4.367-10.971-1.291-3.03-2.81-6.01-4.279-8.891a110.9,110.9,0,0,1-5.38-11.651c-1.3-3.775-2.447-7.682-3.5-11.947-.937-3.794-1.777-7.783-2.569-12.193-1.47-8.184-2.538-16.56-3.571-24.66v-.012c-.45-3.529-.915-7.179-1.4-10.736A7.9,7.9,0,0,1,37.8,258.1a20.4,20.4,0,0,1-1.352-2.289l-2.237.538c-.044,3.511-.785,4.177-2.136,4.177a2.586,2.586,0,0,1-1.652-.514,4.729,4.729,0,0,1-1.4-2.526l-1.188-4.364L26.73,257.5a3.814,3.814,0,0,1-1.015,1.827,2.1,2.1,0,0,1-1.434.588,2.245,2.245,0,0,1-1.465-.576,3.6,3.6,0,0,1-1.043-1.664c-.316-2.51-.679-5.076-1.03-7.558v-.009c-.631-4.46-1.283-9.072-1.706-13.629-.228-2.454-.373-4.691-.443-6.839-.078-2.412-.061-4.649.054-6.839A223.764,223.764,0,0,1,2.588,168.8a194.579,194.579,0,0,1-2.581-29.41c-.044-4.984.128-9.931.511-14.7.4-4.935,1.029-9.8,1.88-14.472a128.608,128.608,0,0,1,8.881-29.79,140.775,140.775,0,0,1,7.579-15.088A126.372,126.372,0,0,1,28.389,51.17,103.941,103.941,0,0,1,39.77,38.719c2.066-1.908,4.2-3.7,6.351-5.336a77.232,77.232,0,0,1,6.774-4.612,69.065,69.065,0,0,1,7.184-3.789,63.091,63.091,0,0,1,7.581-2.867,59.622,59.622,0,0,1,7.965-1.847,58.877,58.877,0,0,1,8.335-.727l-.338.1-.169.047-.364.1a80.994,80.994,0,0,0,8.293-2.125l.29-.072.049-.012a9.953,9.953,0,0,0,3.038-1.089,3.165,3.165,0,0,0,1.024-1.055,3.925,3.925,0,0,0,.494-1.684l.03-.434.014-.2c.715-10.461.715-10.461,9.231-11.951l.012,0c.851-.149,1.816-.318,2.865-.512a30.065,30.065,0,0,1,6.1-.648,19.739,19.739,0,0,1,7.644,1.383,12.227,12.227,0,0,1,5.842,4.9,17.1,17.1,0,0,1,1.765,5.232c.2.918.411,1.866.695,2.773.456.815,2.115,1.266,3.448,1.628l.067.018a40,40,0,0,0,5.372,1.22c1.847.3,3.749.513,5.529.7h.148a35.879,35.879,0,0,1,4.431.271,33.19,33.19,0,0,1,4.144.787,32.39,32.39,0,0,1,3.872,1.263,33.346,33.346,0,0,1,3.618,1.7,38.1,38.1,0,0,1,6.537,4.546,50.916,50.916,0,0,1,5.717,5.813,73.676,73.676,0,0,1,5.03,6.761c1.482,2.234,2.946,4.652,4.475,7.391,2.829,5.069,5.364,10.32,7.816,15.4,1.47,3.045,2.859,5.922,4.273,8.685,1.232,2.448,2.431,5.011,3.7,7.724a167.4,167.4,0,0,0,8.443,16.446,59.1,59.1,0,0,0,5.22,7.343,41.16,41.16,0,0,0,2.984,3.189,33.45,33.45,0,0,0,3.28,2.766c3.3-2.67,6.686-5.33,9.956-7.9h0c5.823-4.581,11.845-9.319,17.566-14.217,3.078-2.635,5.831-5.11,8.417-7.565,2.9-2.753,5.516-5.412,8-8.13a.97.97,0,0,1,.744-.3,4.108,4.108,0,0,1,1.6.52,6.625,6.625,0,0,0,.64.281c.206-5.748,1.77-11.424,3.282-16.913.639-3.143,1.552-5.352,2.791-6.752a5.618,5.618,0,0,1,2.087-1.515,6.658,6.658,0,0,1,2.595-.472,14.18,14.18,0,0,1,3.544.524,69.738,69.738,0,0,1,6.015-12.24,40.885,40.885,0,0,1,7.443-8.98,11.686,11.686,0,0,1,2-1.722,4.2,4.2,0,0,1,2.149-.842,1.252,1.252,0,0,1,1.01.451,2.748,2.748,0,0,1,.5,1.547,20.025,20.025,0,0,1-.859,4.047c-.413,1.336-.931,2.688-1.432,4h0c-.455,1.187-.925,2.414-1.319,3.633-.366.877-.72,1.781-1.1,2.739v0a48.316,48.316,0,0,1-4.236,8.965c.144.051.292.1.423.146A7.671,7.671,0,0,1,293.1,48.6l.452-.507a10.193,10.193,0,0,1,3.022,3.073,12.167,12.167,0,0,1,1.7,4.211c.6.229.827.733,1.054,1.369l1.11,2.426.314-.725c.444.614.868,1.162,1.279,1.692l0,0a11.774,11.774,0,0,1,2.357,3.9,4.818,4.818,0,0,1,.073,2.134,9.349,9.349,0,0,1-1,2.683l1.369-.292c.118.358.24.7.377,1.088a7.755,7.755,0,0,1,.855,3.639,6.176,6.176,0,0,1-.257,1.61,5.842,5.842,0,0,1-.639,1.412,6.08,6.08,0,0,1-5.219,2.8,7.2,7.2,0,0,1-2.036-.3,8.6,8.6,0,0,1-2.094-.949,10.656,10.656,0,0,1-1.057,4.408A11.706,11.706,0,0,1,293.6,84.21a12.375,12.375,0,0,1-1.519,1.691,12.755,12.755,0,0,1-3.866,2.458,12.176,12.176,0,0,1-4.593.9,11.925,11.925,0,0,1-1.389-.081c-.024.107-.046.217-.067.323v0c-.156.781-.3,1.518-1.357,1.518-.064,0-.131,0-.2-.008a56.724,56.724,0,0,1-4.077,5.943c-1.788,2.339-3.909,4.908-6.3,7.635-2.477,2.821-5.151,5.7-7.948,8.562-2.966,3.032-6,5.967-9.011,8.723-3.24,2.963-6.434,5.694-9.492,8.118a111.867,111.867,0,0,1-9.391,6.747c-6.6,4.192-12.038,6.317-16.153,6.318a10.588,10.588,0,0,1-1.56-.111,26,26,0,0,1-3.315.213,28.653,28.653,0,0,1-11.168-2.359,39.987,39.987,0,0,1-9.993-6.21,53.492,53.492,0,0,1-8.3-8.758,58.14,58.14,0,0,1-3.353-4.927,55.217,55.217,0,0,1-2.736-5.076c-.335,3.21-.556,6.3-.655,9.189-.1,2.774-.082,5.457.04,7.974a69.233,69.233,0,0,0,1.829,13.125,68.1,68.1,0,0,0,3.605,10.729c1.424,3.36,3.023,6.573,4.715,9.975,1.806,3.631,3.674,7.386,5.5,11.664a120.786,120.786,0,0,1,5.2,14.672,1.412,1.412,0,0,1,.863.91,1.1,1.1,0,0,1-.364.948,16.865,16.865,0,0,0,.482,2.156,14.033,14.033,0,0,1,.53,2.607,4.706,4.706,0,0,1-.068,1.258,3.584,3.584,0,0,1-.47,1.2.443.443,0,0,1-.448.371.668.668,0,0,1-.491-.238l-2.059,1.07a25.218,25.218,0,0,1,.7,6.128c.013,2.077-.142,4.208-.293,6.27a63.376,63.376,0,0,0-.25,7.688c-.021,3.24-.173,6.569-.45,9.9-.264,3.171-.651,6.445-1.151,9.731a183.347,183.347,0,0,1-4.006,19.063c-1.478,5.636-3.313,11.749-5.611,18.689-2.048,6.188-4.268,12.449-6.414,18.5v0c-2.12,5.98-4.311,12.164-6.34,18.28-2.275,6.86-4.1,12.9-5.573,18.475a132.831,132.831,0,0,0-3.256,13.3c-.781,4.078-1.392,8.242-1.866,12.731-.884,8.37-1.151,16.481-1.433,25.068v0c-.166,5.059-.338,10.29-.647,15.69-.328,3.458-.835,7.079-1.507,10.763-.6,3.281-1.349,6.724-2.23,10.235-1.753,6.983-3.779,13.291-5.348,18.006.107.471.271,1.019.415,1.5v0l.047.158c.036,0,.055.011.056.022a67.948,67.948,0,0,1-7.162,1.992h0c-5.78,1.484-12.975,3.33-13.55,3.962a3.848,3.848,0,0,0,0,2.172,1.707,1.707,0,0,0,.571.824,1.906,1.906,0,0,0,1.177.345,3.456,3.456,0,0,0,.387-.023,62.322,62.322,0,0,0,8.711-1.873c3.032-.827,5.811-1.7,7.472-2.216h0c.832-.26,1.334-.418,1.387-.418h0s0,0,0,0c.1.194.322.288.688.288a3.715,3.715,0,0,0,.377-.023l.058-.006h0c.087-.009.163-.017.216-.017s.079.008.085.024c.01.032-.062.1-.234.222A5.575,5.575,0,0,0,149.584,451c-.159.317-.309.617-.472.891a25.1,25.1,0,0,1-.331,3.853,18.8,18.8,0,0,0-.22,5.364,10.83,10.83,0,0,0,.389,1.106,4.033,4.033,0,0,1,.362,1.289,2.263,2.263,0,0,1-.487,1.4,18.988,18.988,0,0,1,3.425,2.409,10.973,10.973,0,0,1,2.532,3.356,2.586,2.586,0,0,0,1.252.587h0c.109.027.222.055.331.088a2.451,2.451,0,0,1,1.041.544,2.4,2.4,0,0,1,.61.882,3.987,3.987,0,0,1,.15,2.242,5.394,5.394,0,0,1,1.3.391,3.787,3.787,0,0,1,1.007.662,5.417,5.417,0,0,1,1.362,2.233,9.6,9.6,0,0,0,1.28,2.543,10.357,10.357,0,0,0,1.907,2.022,16.82,16.82,0,0,0,5.308,2.776c4.075,1.386,9.07,1.974,13.9,2.542h0c2.39.281,4.648.547,6.813.9A35.608,35.608,0,0,1,197,490.5a12.229,12.229,0,0,1,4.39,2.45,6.759,6.759,0,0,1,2.139,4.016,9.808,9.808,0,0,1,1.526,2.385,2.7,2.7,0,0,1,.2,1.715c-.366,1.405-2.231,2.148-4.592,3.088l-.44.176a41.842,41.842,0,0,1-8.026,2.624,104.957,104.957,0,0,1-10.643,1.864c-3.8.486-7.927.86-12.259,1.112-4.217.245-8.549.369-12.875.369a189.01,189.01,0,0,1-19.1-.9c-2.932-.305-5.616-.683-7.975-1.123a46.559,46.559,0,0,1-6.279-1.566,4.425,4.425,0,0,1-1.857,2.233,5.291,5.291,0,0,1-2.7.654,10.853,10.853,0,0,1-3.383-.612c-1.082-.26-2.17-.53-3.222-.791l-.023-.006c-2.028-.5-4.125-1.023-6.24-1.491-3.961-.843-6.6-1.609-7.169-4.468a33.9,33.9,0,0,1-.4-6.733V495.4q0-.3,0-.6a7.719,7.719,0,0,1,.446-3.628c.413-.735,1.173-1.076,2.625-1.176a24.153,24.153,0,0,1-1.514-2.957,18.038,18.038,0,0,1-.914-2.729,14.558,14.558,0,0,1-.366-4.913,18.834,18.834,0,0,1,1.019-4.422c.5-1.423,1.121-2.84,1.727-4.211h0a41.711,41.711,0,0,0,2.36-6.231,18.617,18.617,0,0,0,.581-3.43,16.945,16.945,0,0,0-.15-3.777c-2.531-2.63-3.53-7.626-4.412-12.033h0c-.346-1.728-.672-3.36-1.067-4.738l.185-.379.3-.611h0c3.955-8.1,8.045-16.475,11.065-25.187a1.774,1.774,0,0,0-.236-1.632,1.806,1.806,0,0,0-.712-.615,2.072,2.072,0,0,0-.906-.207,1.918,1.918,0,0,0-.972.254,1.621,1.621,0,0,0-.678.772c-1.562,3.377-3.283,6.7-4.948,9.915-2.178,4.207-4.43,8.556-6.346,13.065-.141.235-.33.56-.53.9a90,90,0,0,1-5,7.846c-2.513,3.411-4.537,5.14-6.018,5.141a1.708,1.708,0,0,1-.747-.167,40.686,40.686,0,0,0-3.58,4.578,20.216,20.216,0,0,0-2.121,4.148c-1.025,2.793-1.37,5.814-1.62,10.088-.086,3.482.959,6.764,1.969,9.938,2.159,7.195,4.547,14.071,7.1,20.437a10.286,10.286,0,0,1,3.7,2.4,2.441,2.441,0,0,1,.474-.05c.317,0,.707.077.771.443A20,20,0,0,1,90.7,505.2a13.893,13.893,0,0,1,.315,3.187,11.013,11.013,0,0,1-.427,2.822,10.545,10.545,0,0,1-1.086,2.477c-1.727,2.877-4.92,5.212-9.49,6.939a43.561,43.561,0,0,1-6.563,1.86,63.729,63.729,0,0,1-6.834,1.008C64.909,523.663,63.156,523.748,61.408,523.748Zm66.837-269.425c-1.7,1.08-3.3,2.039-4.761,2.853.275,2.963.413,5.988.423,9.249.009,2.9-.085,5.929-.288,9.251-.376,6.164-1.077,12.412-1.754,18.455v0c-.492,4.384-1,8.917-1.376,13.355-.421,4.971-.628,9.3-.634,13.247a1.758,1.758,0,0,0,1.332.578,2.151,2.151,0,0,0,1.35-.484,1.734,1.734,0,0,0,.649-1.284c.38-2.489.794-5.046,1.194-7.518l.005-.032c1.083-6.69,2.2-13.609,2.876-20.411.261-2.133.546-4.3.822-6.4l.009-.065v-.008c.473-3.594.961-7.31,1.347-10.972.433-4.11.688-7.71.779-11a14.775,14.775,0,0,0-.077-4.454,10.615,10.615,0,0,0-.661-2.224A9.99,9.99,0,0,0,128.245,254.323ZM41.678,108.284h0c-1.692,8.285-3.583,18.088-4.778,27.976a157.266,157.266,0,0,0-1.083,28.459l2.338.232a51.28,51.28,0,0,1,2.174-6.483c.85-2.11,1.81-4.214,2.738-6.25a81.7,81.7,0,0,0,4.744-12.074,26.188,26.188,0,0,0,.637-5.137,33.954,33.954,0,0,0-.255-5.04,86.553,86.553,0,0,0-2-9.923v0a74.451,74.451,0,0,1-2.169-11.621l-2.35-.138Z" transform="translate(63.41 -4.504)" fill="#d08b5b"/>
      <path id="_Shoes" data-name="ðŸ‘Ÿ Shoes" d="M31.933,33.049a55.935,55.935,0,0,1-12.909-1.524,56.072,56.072,0,0,1-12.36-4.514c-1.278-.659-2.525-1.368-3.708-2.107L2.6,24.68l-.3-.19-.15-.1A3.45,3.45,0,0,1,.868,23.1L.83,23.022l-.019-.039L.8,22.942c-.065-.191-.126-.39-.182-.591l-.042-.157-.041-.158A17.811,17.811,0,0,1,.1,17.99l-.029-.925L0,14.786l1.36,1.831a9.758,9.758,0,0,0,2.555,2.224l.546.36,1.063.7.031.02A40.816,40.816,0,0,0,9.812,22.4a49.011,49.011,0,0,0,4.725,2.071,47.343,47.343,0,0,0,8.13,2.211,47.454,47.454,0,0,0,8.313.739,42,42,0,0,0,19.749-4.729l.313-.169.835-.5.26-.158a12.218,12.218,0,0,0,3.313-2.64l.057-.071.056-.072.224-.29.367.014h.06a1.314,1.314,0,0,0,.963-.4,2.323,2.323,0,0,0,.54-1.7l0-.07-.252-5.585,1.645,5.344a10.778,10.778,0,0,1,.507,3.443,8.392,8.392,0,0,1-.662,3.088,8.884,8.884,0,0,1-1.785,2.664,12.271,12.271,0,0,1-2.862,2.17,44.541,44.541,0,0,1-10.74,3.983A51.255,51.255,0,0,1,31.933,33.049ZM126.7,19.933c-5.324,0-10.716-.215-16.026-.638-2.65-.213-5.317-.479-7.927-.793l-.874-.107-1.039-.132L99.7,18.127l-.3-.037-.293-.039a15.2,15.2,0,0,1-3.206-.718,6.958,6.958,0,0,1-2.281-1.357l-.074-.067-.1-.094a.955.955,0,0,0-.663-.252.912.912,0,0,0-.975.776v.039l0,.045a1.64,1.64,0,0,1-.38,1.248,2.054,2.054,0,0,1-1.2.615,4.315,4.315,0,0,1-.766.063,9.663,9.663,0,0,1-1.864-.217c-.4-.081-.828-.181-1.3-.306l-.322-.088-.442-.128-.193-.057-.969-.291-1.193-.327c-.446-.124-.937-.261-1.591-.446l-3.4-.958-.821-.228c-.713-.2-1.32-.358-1.969-.527L75.1,14.7l-.745-.144-.266-.054-.24-.052a3.645,3.645,0,0,1-2.427-1.231,3.077,3.077,0,0,1-.438-1.237,13.346,13.346,0,0,1-.137-1.944l0-.281-.134-1.209-.081-.7c-.1-.8-.184-1.455-.276-2.062l-.056-.361L70.275,5.3,70.2,4.857c0-.011-.016-.079-.038-.18-.036-.165-.095-.442-.123-.586-.063-.319-.108-.6-.139-.864a3.641,3.641,0,0,1,.071-1.555A1.222,1.222,0,0,1,70.988.782l.056-.006h.021L71.106,0l1.029.654c2.883,1.833,5.713,3.5,8.412,4.952C83.313,7.1,86.054,8.421,88.7,9.547a79.261,79.261,0,0,0,8,2.927,67.905,67.905,0,0,0,7.962,1.911,87.285,87.285,0,0,0,14.378,1.095c1.739,0,3.58-.04,5.472-.12l.856-.038.707-.035c4.188-.214,8.067-.55,15.961-1.386l2.805-.3,3.5-.455,1.491-.2c6.856-.919,10.974-1.6,15.2-2.515l.472-.1.013-.01a4.588,4.588,0,0,1,.437-.272l.163-.092c.447-.248.608-.371.692-.524l.011-.021.211-.429.65.045.01-.006c.132-.072.27-.145.409-.217L168.3,8.7l.213-.1.088-.043.252-.046.272-.052c.5-.1.976-.215,1.715-.412l.575-.156.211-.058.207.07a2.756,2.756,0,0,1,1.044.614,1.989,1.989,0,0,1,.54.875,1.883,1.883,0,0,1,.028.95,2.308,2.308,0,0,1-.463.94l-.042.051-.031.036,0,.034a1.42,1.42,0,0,1-.755.962l-.061.038-.09.054-.074.042-.027.036a1.522,1.522,0,0,1-.211.22l-.061.049-.064.047-.028.019-.573.37-.189.119a5.344,5.344,0,0,1-1.087.548l-.078.026,0,0a7.885,7.885,0,0,1-2.715,1.639,23.873,23.873,0,0,1-4.1,1.081l-.34.063-.17.031-.514.092c-5.738,1.025-11.607,1.806-17.446,2.321S132.567,19.933,126.7,19.933Z" transform="translate(93.096 484.623)" fill="#fff"/>
      <path id="_Top" data-name="ðŸ‘• Top" d="M136.94,0,146.2,1.01l.552.062a45.3,45.3,0,0,1,8.933,1.717,21.294,21.294,0,0,1,8.236,4.7q17.428,16.1,37.908,63.386l.385.889.1.191.149.269A102.766,102.766,0,0,0,209.8,82.987l.3.389.437.568.277.358c1.245,1.6,2.432,3.058,3.41,4.194l.214.247.286.326.185.207q.271.3.5.545l.075.079.146.152.022-.009.244.2.038-.317.885-.423a117.666,117.666,0,0,0,22.2-14.158l.362-.287A254.879,254.879,0,0,0,259.219,57.2l2.128-2.085,1.03,2.381c3.894,9,9.159,14.808,15.912,15.853l.205.03,4.022.563-3.271,2.68-.373.307c-3.748,3.1-6.86,5.969-12.6,11.534L265.1,89.6l-2.573,2.505c-2.2,2.138-3.662,3.545-5.088,4.885l-.349.327-1.1,1.028-.682.607c-6.452,5.735-11.15,9.664-15.985,13.22l-.531.389-.355.258a89.85,89.85,0,0,1-18.806,10.726l-.358.145-.186.067-.181.063a20.4,20.4,0,0,1-3.135.752l-.143.026-1.19.21c-.279.05-.51.094-.727.137l-.143.029-.315.066-.4,0c-6.686.02-12.821-2.055-18.832-6.013l-.309-.2c-4.261-2.848-8.069-6.277-13.289-11.686l-.572-.594-.57-.6-2.919-3.082-.046.237c-1.477,7.735-2.382,16.726-1.935,21.078l.014.13.019.162.028.317a51.7,51.7,0,0,0,3.618,14.359,109.432,109.432,0,0,0,6.2,12.777l.149.27.45.809.021.038a106.789,106.789,0,0,1,9.837,26.749l.093.427.085.392-.092.39c-.67,2.846-2.677,5.082-5.794,7.117l-.142.092-.285.181c-3.988,2.461-8.307,3.991-14.973,5.656-22.124,5.674-43.242,7.576-63.239,5.163a312.707,312.707,0,0,1-31.631-5.923l-.588-.139-1.673-.4c-7.831-1.885-15.227-3.849-26.2-6.915l-2.193-.614-3.832-1.078-.57-.172-1.558-.46-.564-.169-.209-.064L41,183.168l-.381-.122a25.138,25.138,0,0,1-3.353-1.313l-.438-.218-.224-.246a.347.347,0,0,0-.064-.052l-.024-.015-.8-.475-.133-1.861c-.054-.734-.109-1.464-.176-2.3l-.064-.808-.6-7.389c-.05-.627-.1-1.209-.138-1.766l-.1-1.3-.08-1.127.022-.427A78.234,78.234,0,0,1,42,134.869l.165-.351.134-.255c3.524-6.766,4.891-12.382,4.632-18.281l-.014-.287c-.232-4.576-1.208-8.674-3.937-17.439l-.173-.554-.276-.881-.014-.048a47.111,47.111,0,0,1-1.749-9.09l-.022-.288-.1.347a195.468,195.468,0,0,0-7.613,53.2v.53l0,.706.018.948c.106,5.1.373,10.065.9,17.54l.04.558L34.2,163.9l-.058.818-.023.342-.022.345-.019.335A15.566,15.566,0,0,0,34.667,172l.131.358.029.613c.038.744.087,1.45.17,2.433l.026.3.266,2.985.051.6a50.457,50.457,0,0,1,.218,6.451l-.006.14-.018.358-.056.4a16.281,16.281,0,0,1-5.255,10.439l-.091.085-.156.158a36.344,36.344,0,0,1-10.38,7.385l-.237.109-.233.105-1.782.8-.631-1.843C7.148,175.946,1.693,152.6.327,130.253-1.281,103.948,3,79.868,14.157,57.287l.34-.684.361-.749C27.072,30.718,46.546,11.992,69.943,5.393l.71-.2L71.38,5l5.762-1.493L73.149,7.917c-2.308,2.546-1.345,6.78,1.866,11.534l.1.144.17.246c5.655,8.366,14.871,14.2,26.388,17.24A75.363,75.363,0,0,0,134.1,38.116l.317-.061.35-.062c10.1-1.832,17.513-8.142,18.433-16.826l.026-.264.042-.524a17.657,17.657,0,0,0-8.748-16.045l-.172-.1Z" transform="translate(66.378 11.528)" fill="#78e185"/>
      <path id="_Ink" data-name="ðŸ– Ink" d="M62.769,520.938a57.7,57.7,0,0,1-8.112-.575A56.548,56.548,0,0,1,46.7,518.64a53.789,53.789,0,0,1-7.6-2.87,50.258,50.258,0,0,1-7.048-4.014,7.316,7.316,0,0,1-1.821-1.717,5.018,5.018,0,0,1-.9-2.314l-.026-.228c-.1-.89-.155-1.665-.174-2.37a15.579,15.579,0,0,1,.106-2.413,9.488,9.488,0,0,1,.567-2.284,6.6,6.6,0,0,1,1.211-1.984c.919-7.843,2.134-15.645,3.612-23.188,1.525-7.784,3.363-15.463,5.463-22.823-.031-.4-.058-.815-.081-1.275-2.062-2.144-3.272-5.29-3.6-9.35a1.459,1.459,0,0,1,.827-1.4,5.23,5.23,0,0,1,1.683-.475l.409,0,.6,0c3.152,0,6.8.179,9.97,1.5l-.159.006a.894.894,0,0,0-.458.112c.633.2,1.3.363,1.941.519a17.842,17.842,0,0,1,2.984.909,7.473,7.473,0,0,1,1.7.35h0a8.256,8.256,0,0,0,1.6.347l.184.012c.024,0,.048,0,.071,0a.582.582,0,0,0,.4-.148c1.249.222,2.513.479,3.736.728h0c1.829.372,3.72.756,5.583,1.03a.825.825,0,0,0,.12.009.8.8,0,0,0,.773-.752.56.56,0,0,0-.514-.628c-1.9-.279-3.828-.671-5.693-1.05-2.223-.452-4.521-.919-6.8-1.2-.484-.188-.968-.407-1.436-.619h0c-.426-.193-.868-.393-1.309-.569a.619.619,0,0,0-.321-.311,23.655,23.655,0,0,0-3.159-1.2,35.784,35.784,0,0,0-8.577-1.391l.2-2.064c.257-2.608.513-5.268.761-7.84l0-.051c.74-7.686,1.505-15.633,2.413-23.446,1.019-8.771,2.109-16.4,3.332-23.328a234.112,234.112,0,0,1,5.153-22.908c1.083-3.846,2.275-7.615,3.541-11.2,1.33-3.766,2.788-7.461,4.334-10.982-1.231-2.84-2.672-5.672-4.065-8.41A110.739,110.739,0,0,1,50.852,315.6c-.732-1.914-1.277-3.889-1.8-5.8l0-.009c-.239-.866-.485-1.761-.747-2.643a18.509,18.509,0,0,1-1.221-4.193c-1.43-6.535-2.726-13.729-3.963-21.995-1.1-7.369-2.057-14.885-2.98-22.153h0q-.167-1.315-.334-2.63a13.175,13.175,0,0,1-3-4.171l0,.223a8.956,8.956,0,0,1-.574,3.46,2.834,2.834,0,0,1-.993,1.2,3.126,3.126,0,0,1-1.753.466h-.114a3.993,3.993,0,0,1-1.6-.352,3.6,3.6,0,0,1-1.16-.869,6.509,6.509,0,0,1-1.327-2.7,4.731,4.731,0,0,1-1.443,2.472,3.5,3.5,0,0,1-1.046.624,3.229,3.229,0,0,1-1.142.209A3.345,3.345,0,0,1,23.558,256a4.771,4.771,0,0,1-1.5-2.262,14.715,14.715,0,0,1-.668-4.017c-.033-.447-.067-.908-.113-1.351-.285-2.782-.666-5.611-1.034-8.346v-.014c-.457-3.4-.93-6.907-1.226-10.367a71.136,71.136,0,0,1-.21-10.406,2.216,2.216,0,0,1-.855-.526,2.418,2.418,0,0,1-.584-.965c-1.66-5.023-3.085-9.468-4.359-13.589-1.519-4.915-2.839-9.426-4.037-13.79A281.541,281.541,0,0,1,2.65,162.331c-.812-4.838-1.444-9.608-1.88-14.176-.462-4.843-.718-9.631-.763-14.234-.047-4.841.139-9.637.553-14.255a129.988,129.988,0,0,1,2.067-14.24c.984-4.741,2.167-9.476,3.518-14.072,1.416-4.817,3.036-9.552,4.816-14.072A135.5,135.5,0,0,1,24.74,50.8a103.964,103.964,0,0,1,9.09-11.576c1.655-1.816,3.378-3.562,5.122-5.19,1.786-1.667,3.643-3.256,5.518-4.722,1.919-1.5,3.912-2.915,5.922-4.2,2.056-1.317,4.187-2.539,6.333-3.631a71.177,71.177,0,0,1,13.933-5.337,95.913,95.913,0,0,1,12.068-2.171c4.207-.507,8.359-.8,12.218-1.049A19.524,19.524,0,0,0,96.379,9.3a18.021,18.021,0,0,0,.665-3.846c.034-.534.025-1.073.017-1.594,0-.2-.007-.422-.007-.638a5.715,5.715,0,0,1,.095-.883,3.667,3.667,0,0,0,.059-1.273.12.12,0,0,1,.021-.105.124.124,0,0,1,.1-.044.127.127,0,0,1,.12.085,2.121,2.121,0,0,0,.445.656,3.09,3.09,0,0,1,.322.406,9.724,9.724,0,0,1,.9,3.492l.01.073a18.5,18.5,0,0,1-3.6,13.325l-.1.13a11.385,11.385,0,0,1-1.43,1.643,2.985,2.985,0,0,1-1.925.921,1.854,1.854,0,0,1-.949-.27,1.479,1.479,0,0,1-.773-1.079,2.422,2.422,0,0,1,.286-1.39,5.189,5.189,0,0,1,.846-1.222l.068-.072a20.049,20.049,0,0,0,3.082-4.11c-2.342.624-4.7,1.3-6.988,1.946l-.037.011c-1.325.377-2.7.767-4.046,1.143l-.175.1c-.341.185-.694.369-1.068.563a18.854,18.854,0,0,0-4.035,2.546,4.661,4.661,0,0,0-1.707,4.05A29.18,29.18,0,0,0,79.5,30.1,31.2,31.2,0,0,0,83.686,35.4a40.263,40.263,0,0,0,11.3,7.938,58.979,58.979,0,0,0,13.8,4.582,71.328,71.328,0,0,0,7.3,1.109c2.416.241,4.868.363,7.289.363a69.3,69.3,0,0,0,8.3-.49,57.044,57.044,0,0,0,7.635-1.436l.335-.091a28.329,28.329,0,0,0,5.877-2.266,18.613,18.613,0,0,0,2.638-1.7,15.037,15.037,0,0,0,2.275-2.173l.113-.136a13.67,13.67,0,0,0,1.643-2.441,14.526,14.526,0,0,0,1.1-2.713,15.093,15.093,0,0,0,.519-5.779,14.391,14.391,0,0,0-.507-2.565,13.451,13.451,0,0,0-.975-2.418,12.291,12.291,0,0,0-3.373-4.053,19.732,19.732,0,0,0-2.941-1.972,27.924,27.924,0,0,0-3.283-1.53,47.6,47.6,0,0,0-6.9-2.051,13.143,13.143,0,0,0,2.053,2.382h0a18.1,18.1,0,0,1,1.665,1.807,5.184,5.184,0,0,1,1.021,2.1,1.61,1.61,0,0,1-.318,1.288,1.312,1.312,0,0,1-1.012.457h-.066c-2.35,0-4.106-2.406-5.388-4.163l-.155-.213a23.705,23.705,0,0,1-3.188-6.074,25.615,25.615,0,0,1-1.4-6.72A18.883,18.883,0,0,1,129.85.088.108.108,0,0,1,129.958,0a.132.132,0,0,1,.132.121,30.042,30.042,0,0,0,1.831,8.2,1.359,1.359,0,0,1,.94.642c.281.439,1.459.765,2.319,1l.021.006c.149.041.29.081.413.117l.118.036A55.819,55.819,0,0,0,146.346,12a52.862,52.862,0,0,1,10.819,1.567,28.525,28.525,0,0,1,8.128,3.538,29.48,29.48,0,0,1,3.467,2.617,40.253,40.253,0,0,1,3.288,3.24,90.26,90.26,0,0,1,6.7,8.522c1.877,2.5,3.66,5.125,5.45,8.03,1.595,2.588,3.158,5.338,4.781,8.409,3.013,5.7,5.773,11.672,8.443,17.445v0h0c2.351,5.083,4.781,10.34,7.375,15.393A135.53,135.53,0,0,0,211.616,92.5l.236.36a52.246,52.246,0,0,0,3.582,4.931,21.637,21.637,0,0,0,4.458,4.111c3.807-3.189,7.8-6.269,11.665-9.247l0,0C236,89.236,240.583,85.7,244.908,81.98l.757-.655c3-2.594,6-5.317,8.9-8.093,2.867-2.743,5.722-5.611,8.485-8.526a2.412,2.412,0,0,1,1.736-.676,2.563,2.563,0,0,1,1.038.212,74.41,74.41,0,0,1,2.888-14.29c.116-.427.212-.782.312-1.152a27.438,27.438,0,0,1,1.11-3.872,11.829,11.829,0,0,1,1.639-3.054,6.874,6.874,0,0,1,5.809-2.723,13.837,13.837,0,0,1,2.879.335A70.754,70.754,0,0,1,285.9,28.422a48.575,48.575,0,0,1,3.543-5.033,39.883,39.883,0,0,1,4.225-4.49l.393-.354.252-.23.015-.014c1.216-1.112,2.729-2.5,4.352-2.5.078,0,.157,0,.233.01A2.552,2.552,0,0,1,300.8,16.88a3.868,3.868,0,0,1,.694,2.109,12.415,12.415,0,0,1-.984,4.5c-.1.273-.2.581-.3.87l-.048.146c-.7,2.142-1.493,4.38-2.353,6.65-.769,2.028-1.607,4.085-2.563,6.288-.266.5-.508,1.094-.765,1.72a20.05,20.05,0,0,1-1.038,2.264,4.564,4.564,0,0,1-1.46,1.678,1.13,1.13,0,0,1-1.436-.189,1.454,1.454,0,0,1-.407-.868,4.762,4.762,0,0,1,.772-2.675c.08-.155.17-.33.252-.5.462-.947.907-1.885,1.323-2.787a121.279,121.279,0,0,0,4.61-11.512c.1-.319.261-.757.453-1.264v0c.6-1.588,1.425-3.763,1-4.66-.459,0-1.322.8-1.838,1.279-.117.108-.217.2-.293.266A38.753,38.753,0,0,0,292.9,23.51c-1.038,1.1-2.064,2.3-3.136,3.662-1.99,2.529-3.835,5.249-5.619,7.88l0,0-.016.023c-1.014,1.495-2.062,3.041-3.122,4.528.673.192,1.369.364,2.043.53h0a34.008,34.008,0,0,1,3.525,1.006,11.03,11.03,0,0,1,3.194,1.739,6.812,6.812,0,0,1,1.415,1.7,6.44,6.44,0,0,1,.738,1.91,6.779,6.779,0,0,1,.121,1.986,7.249,7.249,0,0,1-1.36,3.639,6.735,6.735,0,0,1-1.354,1.388,6.172,6.172,0,0,1-3.77,1.27,7.138,7.138,0,0,1-1.661-.2,24.887,24.887,0,0,1,1.315,3.444,19.642,19.642,0,0,1,.766,3.878,11.765,11.765,0,0,1-.233,3.8,7.2,7.2,0,0,1-1.68,3.223,2.129,2.129,0,0,1-1.446.547,2.079,2.079,0,0,1-1.185-.357,1.684,1.684,0,0,1-.692-1.065,9.272,9.272,0,0,1,.335-4.168c.033-.14.066-.278.1-.414a38.752,38.752,0,0,0,.724-4.844,22.514,22.514,0,0,0-.111-4.887l-.142-.085a4.358,4.358,0,0,1-1.383-1.2,2.871,2.871,0,0,1-.482-1.765,1.853,1.853,0,0,1,.453-1.405,1.259,1.259,0,0,1,.935-.479,1.181,1.181,0,0,1,.721.267,2.207,2.207,0,0,0,.6.292,2.353,2.353,0,0,1,.6.291,3.486,3.486,0,0,0,2.382,1.107h.021l.091,0a2.517,2.517,0,0,0,1.535-.508,2.749,2.749,0,0,0,.911-1.34,2.683,2.683,0,0,0-.114-2.189,4.1,4.1,0,0,0-2-1.633,15.973,15.973,0,0,0-2.611-.868l-.583-.18a18.69,18.69,0,0,0-5.043-1.064,4.057,4.057,0,0,0-1.7.326,3.476,3.476,0,0,0-1.323,1.075,12.587,12.587,0,0,0-1.873,4.981c-.225.725-.451,1.466-.669,2.183l-.016.053c-.7,2.3-1.426,4.685-2.268,6.979a43.037,43.037,0,0,1-3.033,6.66l.352.841a50.846,50.846,0,0,0,5.239,10.093,16.022,16.022,0,0,0,8.848,6.568,2.243,2.243,0,0,1,1.4-1.9,6.12,6.12,0,0,1,2.479-.4c.188,0,.384,0,.618.011a9.669,9.669,0,0,0,6.208-2.953,13.368,13.368,0,0,0,1.615-2.131,10.679,10.679,0,0,1,2.073-2.541,1.962,1.962,0,0,1,.149-1.879,1.779,1.779,0,0,1,1.479-.831,1.913,1.913,0,0,1,.932.254,9.679,9.679,0,0,1,1.007.665,4.534,4.534,0,0,0,2.156,1.022,3.861,3.861,0,0,0,.51.034,4.486,4.486,0,0,0,3.647-2.152A4.425,4.425,0,0,0,306,68.714a11.748,11.748,0,0,0,.219-2.655,12.771,12.771,0,0,1,.2-2.654,8.318,8.318,0,0,1-3.415,3.053,9.55,9.55,0,0,1-4.52,1.5,3.009,3.009,0,0,1-2.177-.784,2.484,2.484,0,0,1-.72-1.725,2.561,2.561,0,0,1,.7-1.847,2.24,2.24,0,0,1,1.641-.662,3.44,3.44,0,0,1,1.082.189c2.487-.565,3.831-1.285,4.36-2.333a3.373,3.373,0,0,0,.149-2.292,17.247,17.247,0,0,0-1.167-3.249l-.036-.109c-.036-.107-.079-.224-.119-.338-.352-.986-.884-2.476-.267-3.414a.114.114,0,0,1,.09-.05.1.1,0,0,1,.067.028,4.662,4.662,0,0,1,.83,1.337,6.575,6.575,0,0,0,.574,1.038l.631.753a16.327,16.327,0,0,1,2.524,3.774,5.412,5.412,0,0,1,.153,4.354.314.314,0,0,1,.066-.007.259.259,0,0,1,.257.2c.17.616.39,1.237.6,1.838a10.748,10.748,0,0,1,.914,4.694,6.9,6.9,0,0,1-2.447,4.642,7.376,7.376,0,0,1-2.242,1.29,7.564,7.564,0,0,1-5.772-.251,12.087,12.087,0,0,1-4.522,7.756,13.921,13.921,0,0,1-4,2.251,13.269,13.269,0,0,1-4.532.81c-.187,0-.377,0-.564-.013a2.4,2.4,0,0,1-.631,1.172,1.953,1.953,0,0,1-1.24.57,120.075,120.075,0,0,1-11.174,14.356,220.039,220.039,0,0,1-17,17.229c-3.209,2.905-6.374,5.573-9.405,7.931a104.736,104.736,0,0,1-9.329,6.537c-6.559,4.031-12.072,6.075-16.387,6.075-.385,0-.765-.017-1.13-.049a6.034,6.034,0,0,1-2.52.465,20.857,20.857,0,0,1-2.759-.246h0l-.486-.064a36.473,36.473,0,0,1-10.068-2.854,42.441,42.441,0,0,1-8.932-5.407,51.361,51.361,0,0,1-13.37-16.019c-.185,3.054-.279,5.972-.281,8.673,0,2.6.083,5.087.251,7.4a66.246,66.246,0,0,0,1.86,11.824,57.793,57.793,0,0,0,3.275,9.287c1.274,2.861,2.7,5.578,4.211,8.455l0,.006c1.815,3.457,3.693,7.031,5.571,11.339a114.25,114.25,0,0,1,5.43,15.454,2.3,2.3,0,0,1,1.021,1.428,1.848,1.848,0,0,1-.284,1.445c.1.527.237,1.068.367,1.59a11.685,11.685,0,0,1,.517,4.508,6.8,6.8,0,0,1-.618,1.429l-.118.226a1.453,1.453,0,0,1-1.334.784,1.929,1.929,0,0,1-1.452-.673c1.074,3.882.772,7.966.479,11.916l-.006.079c-.031.422-.063.858-.093,1.285-.173,2.391-.174,4.805-.176,7.139q0,.3,0,.6c-.029,3.212-.187,6.519-.471,9.83-.27,3.155-.663,6.414-1.167,9.687a185.264,185.264,0,0,1-4.025,19.026c-1.481,5.633-3.318,11.748-5.616,18.7-2.052,6.2-4.267,12.469-6.41,18.528l-.007.02c-2.116,5.982-4.3,12.168-6.326,18.276-2.272,6.859-4.092,12.893-5.563,18.446-1.507,5.634-2.7,10.831-3.64,15.888-.508,2.725-.945,5.431-1.3,8.044-.372,2.738-.665,5.465-.871,8.1-.424,5.439-.511,10.984-.594,16.346v.006c-.093,6.005-.19,12.215-.762,18.3-.3,3.213-.756,6.557-1.349,9.939-.551,3.145-1.244,6.445-2.06,9.807-1.415,5.836-3.2,11.953-5.624,19.251.058.237.132.486.2.727v0a4,4,0,0,1,.248,2.352,130.537,130.537,0,0,0-15.244,3.85h0c-.789.234-1.605.475-2.409.711a.657.657,0,0,0-.444.376l-1.335.442a.7.7,0,0,0-.409.337.772.772,0,0,0-.072.48.663.663,0,0,0,.626.595.742.742,0,0,0,.234-.04l1.459-.484a89.3,89.3,0,0,1,15.228-3.964l.159-.065a4.042,4.042,0,0,1,1.528-.373,1.452,1.452,0,0,1,.73.176,1.374,1.374,0,0,1,.547.62,1.451,1.451,0,0,1-.339,1.62,4.389,4.389,0,0,1-.453.434,3.214,3.214,0,0,0-.6.63c-.173.305-.334.623-.49.929-.14.277-.286.563-.44.841a26.581,26.581,0,0,1-.334,3.639,19.065,19.065,0,0,0-.247,5.017,7.14,7.14,0,0,0,.38,1.079v0a6.193,6.193,0,0,1,.416,1.251,2.074,2.074,0,0,1-.163,1.3l.281.179a13.9,13.9,0,0,1,4.278,3.826,3.719,3.719,0,0,1,.279.59,2.378,2.378,0,0,0,.4.749,1.714,1.714,0,0,0,.778.315,3.489,3.489,0,0,1,.369.1,3.718,3.718,0,0,1,2.691,3.927c2.14.615,2.769,2.036,3.5,3.682a9.436,9.436,0,0,0,3.4,4.516,15.136,15.136,0,0,0,2.905,1.633A22.039,22.039,0,0,0,173.807,481a59.084,59.084,0,0,0,6.7,1.209c.828.117,1.685.237,2.51.369l8.709,1.387.506.061a29.42,29.42,0,0,1,8.557,2.038,11.928,11.928,0,0,1,1.85,1.05,8.863,8.863,0,0,1,1.553,1.373,7.635,7.635,0,0,1,1.165,1.749,8.26,8.26,0,0,1,.686,2.179l.089.1a8.032,8.032,0,0,1,1.6,3.113,3.39,3.39,0,0,1-.632,3.215,12.487,12.487,0,0,1-3.752,2.012c-.34.135-.692.276-1.029.42a13.954,13.954,0,0,1-3.89,1.851,33.48,33.48,0,0,1-4.053.98c-5.971,1.1-12.077,1.945-18.147,2.5s-12.215.834-18.3.835c-4.7,0-9.462-.168-14.144-.5s-9.428-.835-14.073-1.5l-.358-.052a16.146,16.146,0,0,1-4.413-1.168,4.978,4.978,0,0,1-2.126,2,6.182,6.182,0,0,1-2.7.555,13.851,13.851,0,0,1-3.872-.652c-2.443-.6-4.914-1.205-7.3-1.787l-.228-.06c-.608-.156-1.244-.291-1.917-.435h0a20.179,20.179,0,0,1-5.048-1.536,6.155,6.155,0,0,1-1.936-1.5,5.229,5.229,0,0,1-1.1-2.362,36.71,36.71,0,0,1-.416-7.308v-.071l-.005-.786a10.549,10.549,0,0,1,.363-3.188,3.319,3.319,0,0,1,.734-1.288,2.458,2.458,0,0,1,1.348-.705,17.122,17.122,0,0,1-1.683-4.621,19.462,19.462,0,0,1-.382-4.87,23.369,23.369,0,0,1,2.54-9.453l.157-.286a26.923,26.923,0,0,0,2.5-5.747,14.4,14.4,0,0,0,.491-2.981,15.629,15.629,0,0,0-.172-3.308,7.655,7.655,0,0,1-1.675-2.415,18.793,18.793,0,0,1-.99-2.837c-1.129-4.063-2.121-8.2-2.946-12.283l1.293-2.653a214.662,214.662,0,0,0,10.376-23.79.6.6,0,0,0-.081-.561.842.842,0,0,0-.667-.34.581.581,0,0,0-.554.352c-1.551,3.361-3.28,6.7-4.952,9.938l0,.009v0c-2.189,4.233-4.453,8.611-6.343,13.077a71.316,71.316,0,0,1-7.844,11.606l-.132.184a6.913,6.913,0,0,1-4.022,2.76,1.311,1.311,0,0,1-.511.1,1.422,1.422,0,0,1-.392-.057c-.511.691-1.058,1.349-1.587,1.985-.7.838-1.355,1.629-1.942,2.495a11.075,11.075,0,0,0-1.432,2.841,31.528,31.528,0,0,0-1.132,5.036c-.226,1.526-.387,3.161-.507,5.146a19.447,19.447,0,0,0,.554,4.843c.365,1.59.871,3.182,1.36,4.722v0c.333,1.047.677,2.13.971,3.194,1.777,5.677,3.766,11.3,5.91,16.719a10.612,10.612,0,0,1,3.19,2.082c.07-.007.141-.01.211-.01a1.882,1.882,0,0,1,1.054.305,1.765,1.765,0,0,1,.7.981l.126.412c1.071,3.549,1.979,7.657.589,11.208a13.1,13.1,0,0,1-1.818,2.939,15.447,15.447,0,0,1-2.47,2.4,20.554,20.554,0,0,1-2.977,1.914,28.533,28.533,0,0,1-3.339,1.5,45.641,45.641,0,0,1-7.181,1.988c-2.62.523-5.182.86-6.881,1.067C66.369,520.853,64.562,520.938,62.769,520.938Zm-30.753-18.79c.007.2.013.407.019.6a16.863,16.863,0,0,0,.665,5.075A3.092,3.092,0,0,0,33.919,509l.292.186c1.272.81,2.621,1.584,4.009,2.3a55.94,55.94,0,0,0,25,5.958,50.277,50.277,0,0,0,11.34-1.269A43.884,43.884,0,0,0,85.2,512.233a11.563,11.563,0,0,0,2.631-1.978,8.219,8.219,0,0,0,1.668-2.441,8.6,8.6,0,0,0,.157-6.109,3.182,3.182,0,0,1-.744,2.316,1.942,1.942,0,0,1-1.458.6l-.1,0a13.6,13.6,0,0,1-3.882,3.115l-.854.512a39.88,39.88,0,0,1-9.854,3.766,45.252,45.252,0,0,1-10.53,1.221,48.325,48.325,0,0,1-16.718-2.992,49.872,49.872,0,0,1-4.7-2.053,41.6,41.6,0,0,1-4.434-2.572c-.261-.175-.521-.345-.8-.524A13.392,13.392,0,0,1,32.017,502.148Zm91.991-2.182h0a1.669,1.669,0,0,1,1.16.44c1.718,1.632,4.083,1.913,6.371,2.185h0c.282.033.573.068.856.1l.795.1c2.885.36,5.836.662,8.769.9,5.292.422,10.665.636,15.971.636h0c5.838,0,11.738-.259,17.537-.77,5.823-.513,11.678-1.291,17.4-2.314l.2-.036a30.85,30.85,0,0,0,3.811-.872,12.6,12.6,0,0,0,1.987-.8,6.064,6.064,0,0,0,1.59-1.135,5.838,5.838,0,0,0,1.591-.82c.114-.074.225-.146.332-.214a.808.808,0,0,0,.266-.3l.067-.038.014-.007c.344-.191.772-.429.687-.83a1.528,1.528,0,0,0,.567-1.421,1.577,1.577,0,0,0-1.149-1.1c-1.021.28-1.819.491-2.781.663-.345.167-.678.341-.99.517l-.384-.027a2.217,2.217,0,0,1-1.014.863h0a4.176,4.176,0,0,0-.629.4c-2.819.625-5.9,1.194-9.415,1.74-3.244.5-6.472.93-9.5,1.323l-1.963.254-1.225.131A234.011,234.011,0,0,1,150.28,501.3a88.1,88.1,0,0,1-14.511-1.1,68.755,68.755,0,0,1-8.7-2.138,82.291,82.291,0,0,1-8.357-3.157,116.916,116.916,0,0,1-15.729-8.536.3.3,0,0,1-.29.279.275.275,0,0,1-.076-.011.876.876,0,0,0-.241-.038.46.46,0,0,0-.376.174c-.425.526-.074,2.125.076,2.808l0,.017c.024.111.043.2.053.253l.076.45c.2,1.237.348,2.469.477,3.617l.1.908c.016,1.727.087,2.588.468,3.124a1.783,1.783,0,0,0,.876.617,10.255,10.255,0,0,0,1.593.4l.762.148c1.843.474,3.707,1,5.51,1.512h0c1.232.349,2.506.71,3.766,1.051l.032.009c.114.032.277.082.466.14a17.53,17.53,0,0,0,4.435.921,1.892,1.892,0,0,0,1.4-.413.957.957,0,0,0,.229-.752l0-.056a1.385,1.385,0,0,1,.39-1.038A1.818,1.818,0,0,1,124.007,499.966Zm5.257-248.36c-1.04.652-2.1,1.286-3.154,1.885.221,3.568.3,7.207.249,11.127-.048,3.494-.2,7.131-.473,11.119-.5,7.407-1.338,14.924-2.147,22.194v.01c-.629,5.658-1.28,11.508-1.766,17.25a.615.615,0,0,0,.149.479.689.689,0,0,0,.509.2.736.736,0,0,0,.767-.683c.038-.483.08-.975.121-1.45l.006-.065q.024-.277.047-.553c1.794-8.4,2.868-17.339,3.907-25.982.484-4.032.985-8.2,1.552-12.243a69.032,69.032,0,0,0,1.06-10.55v-.008c.073-1.5.149-3.053.267-4.571.022-.362.048-.717.073-1.061v0a20.011,20.011,0,0,0,.052-3.6,8,8,0,0,0-1.217-3.5ZM29.091,238.845h0a1.209,1.209,0,0,1,1.266,1.12l1.14,8.122A15.012,15.012,0,0,1,31.7,249.6v0a24.673,24.673,0,0,0,.455,3c.266,1.077.613,1.616,1.061,1.65l.042,0,.04,0a.356.356,0,0,0,.272-.114c.259-.279.2-1.011.163-1.546v-.012c-.011-.146-.02-.272-.022-.374v-.062l.074-4.188c.015-.865.029-1.728.045-2.685.03-1.783.06-3.628.1-5.459a1.484,1.484,0,0,1,.457-1.1,1.453,1.453,0,0,1,.983-.362,1.635,1.635,0,0,1,1.042.37,1.594,1.594,0,0,1,.562,1.094,59.705,59.705,0,0,0,.823,5.929,19.33,19.33,0,0,0,1.975,5.6,1.423,1.423,0,0,1,.8-.229,1.73,1.73,0,0,1,.451.06,21.393,21.393,0,0,1,.511-3.508,19.545,19.545,0,0,1,1.114-3.356,31.655,31.655,0,0,1,.017-5.715c.035-.546.067-1.062.092-1.58l.087-1.731c.095-1.811.2-3.689.3-5.346l0-.07c.061-1.061.125-2.158.185-3.236a16.13,16.13,0,0,1,.281-3.472,4.857,4.857,0,0,1,1.216-2.477,4.47,4.47,0,0,1,3.332-1.145,10.587,10.587,0,0,1,1.262.081c.561.04,1.066.059,1.543.059a13.118,13.118,0,0,0,2.369-.2,3.465,3.465,0,0,0,.856-.31h0a4.751,4.751,0,0,1,.528-.222c-2.025-1.8-4.119-3.536-6.143-5.213-1.1-.909-2.232-1.848-3.349-2.793-.33-.275-.665-.548-.99-.812h0c-.808-.657-1.643-1.337-2.412-2.057a12.452,12.452,0,0,1-.906-.977h0a11.108,11.108,0,0,0-1.033-1.093,19.375,19.375,0,0,1-3.306,4.356,24.451,24.451,0,0,1-4.355,3.425,31.594,31.594,0,0,1-10.286,4.037,2.021,2.021,0,0,1-.735,1.022,2.618,2.618,0,0,1-1.2.487c.609,4.818,1.4,9.693,2.168,14.408.935,5.75,1.9,11.695,2.543,17.583l.022.132,0,.027a3.5,3.5,0,0,0,.843,2.112c.6-.241.7-1.133.766-1.784v-.009c.011-.1.022-.2.034-.292.251-3.4.549-6.849.837-10.188v0l.082-.948,0-.051A1.794,1.794,0,0,1,29.091,238.845ZM75.05,19.086a69.243,69.243,0,0,0-9.288,3.129A72.976,72.976,0,0,0,57.1,26.538a79.13,79.13,0,0,0-8.014,5.377,87.137,87.137,0,0,0-7.35,6.293A100.446,100.446,0,0,0,29.1,52.986a116.112,116.112,0,0,0-9.783,16.773c-1.472,2.939-2.848,5.954-4.089,8.962C14,81.675,12.88,84.707,11.882,87.733c-.98,2.969-1.866,6.015-2.634,9.056-.753,2.98-1.414,6.039-1.965,9.093-.539,2.99-.989,6.06-1.336,9.125-.339,3-.59,6.075-.745,9.15-.152,3-.217,6.087-.194,9.169.022,3,.13,6.093.318,9.181.184,3,.45,6.095.791,9.188.331,3,.744,6.093,1.225,9.188.915,5.882,2.125,12.056,3.6,18.35a377.853,377.853,0,0,0,10.68,36.426,32.474,32.474,0,0,0,5.6-3.215,37.5,37.5,0,0,0,4.9-4.2,16.346,16.346,0,0,0,1.979-2.151,13.1,13.1,0,0,0,1.4-2.281,17.621,17.621,0,0,0,1.485-5.378,60.209,60.209,0,0,0-.365-8.565c-.142-1.567-.289-3.188-.362-4.79a13.54,13.54,0,0,1-.764-4.011,33.527,33.527,0,0,1,.1-4.107l.049-.7c-.538-7.3-1.031-14.45-1.152-21.689a182.962,182.962,0,0,1,.792-18.419c.562-6.03,1.431-12.181,2.583-18.285,1.126-5.965,2.548-12.017,4.227-17.989,1.643-5.848,3.568-11.746,5.721-17.531a.2.2,0,0,1,.339-.073.221.221,0,0,1,.048.179c-.251,1.795-.547,3.677-.9,5.755.095-.146.188-.289.29-.434a.079.079,0,0,1,.065-.037.081.081,0,0,1,.067.037.078.078,0,0,1,0,.078c-.218.457-.418.926-.613,1.432-.394,2.226-.847,4.614-1.425,7.513a32.713,32.713,0,0,0,.442,5.97,51.325,51.325,0,0,0,1.336,5.881c1.2,3.8,2.249,7.206,3.034,10.393a46.757,46.757,0,0,1,1.446,9.223,31.911,31.911,0,0,1-.911,9.17,45.3,45.3,0,0,1-4.038,10.235,84.117,84.117,0,0,0-5.2,14.06,73.668,73.668,0,0,0-1.572,7.323,68.046,68.046,0,0,0-.786,7.466c.185,2.63.4,5.292.617,7.866.206,2.5.42,5.089.6,7.652a2.163,2.163,0,0,1,.494.4,33.367,33.367,0,0,0,5.467,1.957c.448.132.912.268,1.361.406,10.949,3.09,21.686,6.081,32.664,8.713,5.874,1.408,11.276,2.584,16.513,3.593,5.834,1.125,11.291,2.012,16.68,2.711a143.265,143.265,0,0,0,17.1,1.008c3.755,0,7.617-.142,11.48-.422,3.743-.271,7.589-.68,11.432-1.214,3.717-.517,7.533-1.166,11.343-1.928,3.678-.736,7.451-1.6,11.215-2.564,2.225-.556,4.851-1.249,7.457-2.171a36.325,36.325,0,0,0,7.023-3.275,16.82,16.82,0,0,0,3.383-2.687,9.385,9.385,0,0,0,1.264-1.674,7.048,7.048,0,0,0,.778-1.925,104.874,104.874,0,0,0-9.765-26.723c-1.484-2.658-2.656-4.859-3.688-6.926-1.271-2.547-2.323-4.883-3.217-7.142a53.2,53.2,0,0,1-3.762-15.148c-.239-1.976-.405-4-.509-6.177-.092-1.943-.133-3.967-.123-6.189.018-4.125.21-8.321.4-12.378v-.018c.09-1.973.184-4.013.256-6.016l.017-.46a193.659,193.659,0,0,0-.4-22.811c-.321-3.91-.793-7.717-1.4-11.315a109.846,109.846,0,0,0-2.473-11.134l-.061-.22a44.074,44.074,0,0,0-2.248-6.383,29.044,29.044,0,0,0-1.56-3,23.617,23.617,0,0,0-1.942-2.774.089.089,0,0,1-.014-.1.091.091,0,0,1,.079-.054.086.086,0,0,1,.06.026,25.541,25.541,0,0,1,4.216,5.614,49.456,49.456,0,0,1,2.982,6.384l.168.428c.861,2.034,1.652,4.16,2.352,6.319.675,2.079,1.285,4.251,1.813,6.456.507,2.114.955,4.323,1.331,6.565.359,2.141.663,4.377.9,6.647a174.958,174.958,0,0,1,.5,26.863c.457.481.925.976,1.377,1.455l.087.092c4.726,5,9.612,10.172,15.18,14.123a43.715,43.715,0,0,0,4.306,2.707,34.737,34.737,0,0,0,4.6,2.1,30.108,30.108,0,0,0,4.927,1.363,29.164,29.164,0,0,0,5.3.485h.3c.571-.121,1.154-.223,1.718-.321H218a22.465,22.465,0,0,0,3.852-.912,87.8,87.8,0,0,0,18.756-10.65c5.941-4.3,11.552-9.152,16.732-13.756l.655-.583c2.773-2.568,5.521-5.245,8.178-7.835l0,0c4.88-4.755,9.925-9.672,15.286-14.063a15.86,15.86,0,0,1-3.138-.772,16.731,16.731,0,0,1-2.842-1.336,21.212,21.212,0,0,1-4.845-4,38.84,38.84,0,0,1-6.681-10.827c-3.736,3.661-6.871,6.636-9.865,9.36-3.657,3.327-7.054,6.231-10.383,8.879a119.89,119.89,0,0,1-22.9,14.658,1.552,1.552,0,0,1-.459.925,1.265,1.265,0,0,1-1.753.076c-.835.363-1.477.634-2.083.879a.191.191,0,0,1-.072.015.235.235,0,0,1-.206-.164.214.214,0,0,1,.051-.242l1.356-1.154c-6.549-5.293-10.626-12.924-14.569-20.3-.417-.781-.849-1.589-1.275-2.378l-.406-.748c-2.086-4.206-4.116-8.579-6.079-12.808-1.914-4.124-3.894-8.388-5.943-12.537-2.3-4.653-4.43-8.642-6.519-12.194a110.971,110.971,0,0,0-7.635-11.43c-1.425-1.856-2.907-3.638-4.4-5.3-1.572-1.741-3.216-3.406-4.886-4.949a18.208,18.208,0,0,0-3.729-2.683,21.955,21.955,0,0,0-4.095-1.7,47.509,47.509,0,0,0-8.887-1.626l-.763-.083a19.491,19.491,0,0,1,4.263,3.306,20.133,20.133,0,0,1,3.219,4.325,19.179,19.179,0,0,1,1.926,5.018,17.487,17.487,0,0,1,.386,5.382,18.323,18.323,0,0,1-2.092,7.32,19.686,19.686,0,0,1-4.575,5.645,25.329,25.329,0,0,1-6.309,3.931,30.985,30.985,0,0,1-7.293,2.18c-2.308.45-4.708.795-7.134,1.025-2.46.234-4.971.352-7.465.352a70.8,70.8,0,0,1-26.143-4.75,49.256,49.256,0,0,1-11.333-6.315A40.887,40.887,0,0,1,81.1,38.222,37.76,37.76,0,0,1,77.028,33.2l-.16-.232C74.556,29.584,71.246,23.283,75.05,19.086ZM44.237,103.957h0q-.2,1.023-.4,2.046v.006c-.87,4.476-1.77,9.1-2.567,13.671-.894,5.124-1.561,9.627-2.038,13.766-.494,4.392-.814,8.885-.951,13.354-.136,4.41-.1,8.914.115,13.388a50.917,50.917,0,0,1,2.18-6.541c.857-2.134,1.828-4.267,2.767-6.331a82.559,82.559,0,0,0,4.7-11.944,24.905,24.905,0,0,0,.61-4.977,33.352,33.352,0,0,0-.263-4.934,87.287,87.287,0,0,0-1.983-9.8v0a73.133,73.133,0,0,1-2.172-11.7Zm249.5-41.813a4.8,4.8,0,0,1-1.81-.351,5.237,5.237,0,0,1-3.343-2.171,8.4,8.4,0,0,1-1.495-3.783.113.113,0,0,1,.021-.1.11.11,0,0,1,.086-.039.119.119,0,0,1,.084.035l.014.016a11.4,11.4,0,0,0,4.284,2.868,5.573,5.573,0,0,1,1.373-.526,1.073,1.073,0,0,1,.236-.026,1.115,1.115,0,0,1,.811.357.943.943,0,0,1,.25.73,4.316,4.316,0,0,0,2.034-.969,5.958,5.958,0,0,0,1.389-1.782,9.371,9.371,0,0,0,.813-2.21,11.555,11.555,0,0,0,.3-2.253l0-.086a12,12,0,0,0-.256-2.9,11.549,11.549,0,0,0-2.492-5.067,11.934,11.934,0,0,0-2.144-1.973.176.176,0,0,1-.058-.2.128.128,0,0,1,.119-.1.154.154,0,0,1,.058.013,10.154,10.154,0,0,1,2.412,1.423,11.409,11.409,0,0,1,1.96,2,13.024,13.024,0,0,1,2.361,5.1,12.15,12.15,0,0,1,.042,5.175,10.227,10.227,0,0,1-.859,2.43,9.547,9.547,0,0,1-1.5,2.162,7.652,7.652,0,0,1-2.165,1.6A5.759,5.759,0,0,1,293.742,62.144Z" transform="translate(61.985 -0.474)"/>
    </g>
    <g id="Head" transform="translate(95.946 42.662)">
      <g id="HEAD-2" data-name="HEAD">
        <path id="_Skin-2" data-name="âœ‹ Skin" d="M85.435,49.553c-.563-7.287.31-14.924-2.5-21.85C78.037,16.212,64.3,12.38,53.654,8.005,49.388,6.745,35.034,6.569,30.039,4.9,18.735,1.124,16.034-3.375,7.052,3.815A9.765,9.765,0,0,0,3.895,8.2l.028.008a2.432,2.432,0,0,0,.46,2.1A14.656,14.656,0,0,0,.856,25.558C7.378,39.349,7.071,46.806,4.97,61.633,2.226,75.474,8.5,80.53,18.88,88.061a2.551,2.551,0,0,0,.041,2.633c12.007,16.875,34.648,24.932,54.046,16.367,7.874-3.5,11.389-11.891,13.4-19.458a54.146,54.146,0,0,0,1.152-26.032A107.806,107.806,0,0,1,85.435,49.553Z" transform="translate(8.769 8.22)" fill="#d08b5b"/>
        <path id="bandana" d="M0,28.883l7.14,4.757L32.7,6.694,24.192,0S8.762,11.4,5.728,14.414,0,28.883,0,28.883Z" transform="translate(8.201 8.22)" fill="#9fd8e5"/>
        <path id="_Ink-2" data-name="ðŸ– Ink" d="M91.136,143.32a35.855,35.855,0,0,1-8.555-1.072,43.92,43.92,0,0,1-5.812-1.887,3.47,3.47,0,0,1-1.486-1.017,1.368,1.368,0,0,1-.308-1.082,1.263,1.263,0,0,1,1.331-.95,2.249,2.249,0,0,1,.711.123,51.926,51.926,0,0,0,5.757,1.571,35.75,35.75,0,0,0,7.276.825,23.35,23.35,0,0,0,3.011-.187,34.6,34.6,0,0,0,9.84-2.6,22.405,22.405,0,0,0,4.305-2.541,20.863,20.863,0,0,0,3.725-3.648,24.368,24.368,0,0,0,3.018-4.963,34.4,34.4,0,0,0,2.184-6.486,54.017,54.017,0,0,0,1.223-8.219,87.9,87.9,0,0,0,.134-10.16c-.079-1.959-.237-3.95-.39-5.877-.178-2.24-.362-4.555-.423-6.832-.044-1.662-.064-3.351-.083-4.983-.029-2.438-.059-4.96-.168-7.438l-.061-1.412c-.072-1.667-.147-3.3-.271-4.959-.046-.2-.089-.394-.132-.587-.1-.44-.2-.894-.323-1.331a28.6,28.6,0,0,0-1.946-4.956,1.374,1.374,0,0,1-.593.27,9.551,9.551,0,0,1-1.7.161,7.24,7.24,0,0,1-3.005-.632,7.4,7.4,0,0,1-1.934-1.254,2.95,2.95,0,0,1-.614-.728h-.055a3.041,3.041,0,0,1-1.048-.177,2.045,2.045,0,0,1-.845-.567,2.022,2.022,0,0,1-.482-.918,1.655,1.655,0,0,1,.071-.9l.022-.058-.052-.019a9.12,9.12,0,0,1-3.24,4.006A10.344,10.344,0,0,1,96.651,63.4a17.7,17.7,0,0,1-3.891.447l-.388,0A53.9,53.9,0,0,1,84.053,63c-.9-.142-1.58-.277-2.216-.436L81.8,62.6c-.018.019-.036.038-.055.055a8.265,8.265,0,0,1-2.626,1.708,7.919,7.919,0,0,1-2.979.578,8.317,8.317,0,0,1-3.306-.693,11.723,11.723,0,0,1-2.465-1.463,17.08,17.08,0,0,1-2.12-1.948c-.02.791-.06,1.514-.121,2.211l-.026.291a5.788,5.788,0,0,1-1.415,3.8,3.482,3.482,0,0,1-2.494.964,5.971,5.971,0,0,1-1.79-.3,10.025,10.025,0,0,1-1.721-.744c0,.05,0,.1,0,.154.479,1.628.968,3.285,1.442,4.888l.01.033.11.373.112.376.116.382v0a16.916,16.916,0,0,1,.792,3.436,4.452,4.452,0,0,1-1.022,3.36,2.842,2.842,0,0,1-2.143.95,3.721,3.721,0,0,1-1.073-.167,8.919,8.919,0,0,1-3.209-2.163l0,0c-.187-.17-.364-.33-.544-.488l-.708-.612a80.054,80.054,0,0,1,2.253,9.123,58.433,58.433,0,0,1,.968,9.319.615.615,0,0,1-.607.607c-.065,0-.131,0-.2,0a5.834,5.834,0,0,1-2.126-.423,1.224,1.224,0,0,1-.13-.012,8.775,8.775,0,0,1-3.555-1.344,6.6,6.6,0,0,1,.289,2.477.223.223,0,0,1-.223.2.167.167,0,0,1-.171-.143,5.824,5.824,0,0,0-2.263-3.406,6.975,6.975,0,0,0-1.871-1.017,6.106,6.106,0,0,0-2.06-.371,5.21,5.21,0,0,0-.969.09,7.482,7.482,0,0,0-4.122,2.341,8.547,8.547,0,0,0-1.355,1.977,8.676,8.676,0,0,0-.765,2.29A11.712,11.712,0,0,0,38,104.583a13.412,13.412,0,0,0,1.009,2.521,12.129,12.129,0,0,0,1.471,2.2,6.859,6.859,0,0,0,3.989,2.491,5.237,5.237,0,0,0,.814.064,4.979,4.979,0,0,0,1.4-.2,7.412,7.412,0,0,0,.724-.271l.153-.063a4.052,4.052,0,0,1,.635-.178,3.515,3.515,0,0,0,.678-.2,1.157,1.157,0,0,1,.476-.105.978.978,0,0,1,.877,1.459,3.9,3.9,0,0,1-1.417,1.77,12.437,12.437,0,0,1,.938,1.391c.115.189.205.338.264.417a41.893,41.893,0,0,0,2.9,3.551,30.262,30.262,0,0,0,3.46,3.178l.517.408a12.186,12.186,0,0,1,3.052,3.158,1.584,1.584,0,0,1,.011,1.624,1.739,1.739,0,0,1-.582.621,1.558,1.558,0,0,1-.837.246H58.5a6.872,6.872,0,0,1-2.7-.608,9.68,9.68,0,0,1-2.331-1.507,21.616,21.616,0,0,1-3.637-4.3c-.276-.412-.546-.86-.8-1.332a2.846,2.846,0,0,1-.3.4l.221.593a1.327,1.327,0,0,1-.145,1.272,1.761,1.761,0,0,1-.666.562,1.947,1.947,0,0,1-.863.207,1.524,1.524,0,0,1-.746-.186,1.382,1.382,0,0,1-.561-.6,24.851,24.851,0,0,0-2.052-3.365,1.745,1.745,0,0,1-1.142-.695c-.2-.293-.416-.591-.622-.88-.438-.613-.891-1.246-1.29-1.9-.308-.292-.637-.587-1.007-.9l-.051.044,0,0c-.081.071-.165.145-.245.22a12.566,12.566,0,0,1-1.626,2.728l-.142.18a13.847,13.847,0,0,1-2.188,2.263,6.441,6.441,0,0,1-2.77,1.358.694.694,0,0,1-.129.012.8.8,0,0,1-.718-.5.585.585,0,0,1,.176-.669,22.6,22.6,0,0,1,1.889-1.471A16.392,16.392,0,0,0,36.6,117.49a15.96,15.96,0,0,0,1.758-2.3l.117-.189c.078-.127.161-.261.263-.422-.6-.406-1.2-.82-1.785-1.221a15.3,15.3,0,0,1-3.288,1.966,22.981,22.981,0,0,0-2.293,1.232l-.18.118a1.526,1.526,0,0,1-.855.276,1.5,1.5,0,0,1-.91-.323,1.955,1.955,0,0,1-.6-.791,1.623,1.623,0,0,1,.319-1.82,35.8,35.8,0,0,0,2.925-3.513h0c.33-.433.671-.88,1.012-1.311a9.455,9.455,0,0,1-1-3.751c-.043-.384-.077-.778-.108-1.126v0h-.06a4.572,4.572,0,0,1-2.566-.844l-.3-.211a8.956,8.956,0,0,1-2.686.427l-.217,0a2.51,2.51,0,0,1-1.379-.435,2.411,2.411,0,0,1-.833-1.017,2.6,2.6,0,0,1-.191-1.413,2.711,2.711,0,0,1,.642-1.392,4.97,4.97,0,0,1,3.8-1.628,5.74,5.74,0,0,1,2.137.412c.063-.032.13-.068.194-.1a2.3,2.3,0,0,1,.034-1.179l-.031-.212a5.478,5.478,0,0,1-.834-2.246,5.189,5.189,0,0,1,.08-1.91,3.237,3.237,0,0,1,.148-.433c.028-.07.056-.143.082-.216a4.192,4.192,0,0,1-.286-1.254c-.041-.049-.089-.107-.133-.169a3.392,3.392,0,0,1-.646-2.187,3.444,3.444,0,0,1,.8-1.989c0-.074.011-.146.02-.214-.054-.121-.1-.247-.151-.375a4.23,4.23,0,0,1-1.465-3.419,3.56,3.56,0,0,1,.912-2.089,1.184,1.184,0,0,1,.01-.828,9.906,9.906,0,0,1-.582-3.467,15.471,15.471,0,0,1,.458-3.657,3.227,3.227,0,0,1-.18-1.18,3.623,3.623,0,0,1,1.044-2.36,3.528,3.528,0,0,1,1.067-.752,3.1,3.1,0,0,1,1.285-.282h.035a3.1,3.1,0,0,1,.623.073l0-.042a4.785,4.785,0,0,1,.431-1.471.933.933,0,0,1-.289-.166,16.274,16.274,0,0,1-3.7,1.426,1.124,1.124,0,0,1-.272.034,1.3,1.3,0,0,1-1.112-.681,1.038,1.038,0,0,1,.047-1.094,7.988,7.988,0,0,1,.906-1.129,11.63,11.63,0,0,0-1.415.1,1.664,1.664,0,0,1-.213.014A2.315,2.315,0,0,1,26,64.381a3.3,3.3,0,0,1-.971-.912c-.692.673-1.4,1.352-2.075,2.009l-.005.005a2.661,2.661,0,0,1-1.872.792,2.784,2.784,0,0,1-1.847-.723,2.985,2.985,0,0,1-.973-1.865,3.953,3.953,0,0,1-1.441-.716,24.1,24.1,0,0,1-4.3,1.4A25.347,25.347,0,0,1,8,64.962l-.112,0a2.506,2.506,0,0,1-1.346-.382,2.805,2.805,0,0,1-.93-.972A3.065,3.065,0,0,1,5.2,62.179,2.794,2.794,0,0,1,5.558,60.7a14.23,14.23,0,0,1,2.524-3.238,29.6,29.6,0,0,1-4.711,1.019,1.459,1.459,0,0,1-.192.012,2.622,2.622,0,0,1-1.325-.43,2.388,2.388,0,0,1-.931-.986,10.526,10.526,0,0,1,.315-9.262c.047-.1.1-.188.151-.279h0l.037-.066c.161-.4.335-.794.519-1.171A5.986,5.986,0,0,1,.341,42.81a7.746,7.746,0,0,1,.572-3.851,2.468,2.468,0,0,1-.287-2.178A19.086,19.086,0,0,1,2.065,33.8a18.273,18.273,0,0,1,1.924-2.656,5.753,5.753,0,0,1-.652-2.758,7.019,7.019,0,0,1,.288-1.933,7.19,7.19,0,0,1,2.02-3.282,9.776,9.776,0,0,1,4.01-2.133,11.435,11.435,0,0,1,2.323-2.889l0-.006c.034-.076.07-.153.109-.229a8.158,8.158,0,0,1,2.905-3.125,9.006,9.006,0,0,1,1.882-.891,10.061,10.061,0,0,1,2.045-.461,2.979,2.979,0,0,1,.58-1.467,2.574,2.574,0,0,1,1.273-.922,8.687,8.687,0,0,1,1.291-2.576A3.666,3.666,0,0,1,23.19,7.459a2.7,2.7,0,0,1,2.754,0,17.022,17.022,0,0,1,2.247,1.531,3.089,3.089,0,0,1,1.083-.276l.1-.006,2.337-.118c.62-.275,1.25-.563,1.859-.842.333-.152.709-.324,1.075-.49a7.855,7.855,0,0,1,1.96-1.192,7.982,7.982,0,0,1,2.472-.595A21.223,21.223,0,0,1,41.125,4.9a22.62,22.62,0,0,1,4.818-.539h.2c.035-.445.052-.891.048-1.326l0-.224A2.633,2.633,0,0,1,46.893.963,2.983,2.983,0,0,1,48.64.033,2.905,2.905,0,0,1,49.07,0a2.548,2.548,0,0,1,1.616.567,3.5,3.5,0,0,1,1.036,1.426l.028.069c.161.416.343.831.557,1.27a9.867,9.867,0,0,1,2.156-.756,10.413,10.413,0,0,1,2.306-.26,9.031,9.031,0,0,1,3.794.8,7.141,7.141,0,0,1,1.616,1.031,6.607,6.607,0,0,1,1.289,1.481,5.519,5.519,0,0,1,.74,1.8,7.253,7.253,0,0,1,.15,1.886,20.357,20.357,0,0,1-.659,3.827c-.07.295-.143.6-.21.9l-.408,1.808a3.093,3.093,0,0,1,.983,1,2.435,2.435,0,0,1,.371,1.325l0,.072-.166,2.522A13.116,13.116,0,0,0,65.7,19.029c.3-.553.625-1.089.96-1.593a2.79,2.79,0,0,1,2.35-1.34,3,3,0,0,1,2.512,1.411,2.764,2.764,0,0,1,.029,2.788,17.065,17.065,0,0,1-1.066,1.8A15.967,15.967,0,0,0,69.417,24.7a2.493,2.493,0,0,1,1.46,2.259,6.673,6.673,0,0,1-.17,1.928,6.534,6.534,0,0,1-.687,1.724A7.223,7.223,0,0,1,68.884,32.1,8.464,8.464,0,0,1,67.367,33.3a2.561,2.561,0,0,1-1.375.414,2.435,2.435,0,0,1-.588-.073c-.1.136-.215.29-.322.443a14.3,14.3,0,0,1,2.4,2.477,43.357,43.357,0,0,1,6.294-.465,11.526,11.526,0,0,1,5.1-1.059,19.765,19.765,0,0,1,3.306.3,33.026,33.026,0,0,1,3.317.806h0c.626.175,1.272.356,1.914.512a24.812,24.812,0,0,0,3.344.494c.734.074,1.492.151,2.237.272a10.032,10.032,0,0,1,3.25,1.093A7.644,7.644,0,0,1,98.7,40.623a8.477,8.477,0,0,1,4.164,1.417c1.861,1.187,3.747,2.405,5.571,3.583l.01.006c1,.649,2.044,1.32,3.07,1.98a2.947,2.947,0,0,1,1.317,3.118l-.014.081-.1.526.228.324.2.281a19.524,19.524,0,0,1,2.215,3.648,42.3,42.3,0,0,1,2.858,4.769,34.686,34.686,0,0,1,2.718,6.968c.148.568.316,1.212.422,1.844a4.83,4.83,0,0,1-.1,1.8h0c-.036.19-.073.387-.1.592-.075.509-.128,1.031-.179,1.535-.056.552-.114,1.123-.2,1.681a1.193,1.193,0,0,1-.477.8,1.555,1.555,0,0,1-.867.279c.236,1.8.4,3.589.571,5.42.249,2.793.41,5.6.521,7.736a6.136,6.136,0,0,0,3.15,2.09,4.565,4.565,0,0,0,1.18.149,9.308,9.308,0,0,0,3.083-.668.877.877,0,0,1,.3-.054.939.939,0,0,1,.8.5,1.023,1.023,0,0,1,.03,1.019,3.6,3.6,0,0,1-1.5,1.437,4.294,4.294,0,0,1-1.952.434,6.433,6.433,0,0,1-2.712-.635,5.792,5.792,0,0,1-2.247-1.808c.034.71.07,1.434.106,2.133v.009l.005.107.035.68c.071,1.321.157,2.675.241,3.984.21,3.3.428,6.717.434,10.075,0,1.809-.054,3.451-.174,5.018a44.746,44.746,0,0,1-.645,4.961,31.154,31.154,0,0,1-3.472,9.514,30.662,30.662,0,0,1-6.152,7.7,29.721,29.721,0,0,1-8.25,5.3,29.064,29.064,0,0,1-9.768,2.3C92.394,143.3,91.762,143.32,91.136,143.32ZM47,114.758h0c-.239.051-.475.091-.7.118l.009.022c.066.163.134.332.2.5.195.11.388.212.574.3a4.869,4.869,0,0,1-.083-.948Zm-12.008-3.2a5.311,5.311,0,0,1,.6.034v-.035l-.019-.006a.853.853,0,0,1-.107-.041,5.251,5.251,0,0,1-.642-.367l-.158.29-.067.125-.008.015C34.728,111.559,34.862,111.554,34.994,111.554ZM31.9,68.7c-.24.008-.325.121-.324.2a.059.059,0,0,0,.059.063c.026,0,.1-.016.189-.162A.725.725,0,0,1,31.9,68.7ZM59.019,36.11a17.408,17.408,0,0,0-7,1.869,32.4,32.4,0,0,0-6.108,3.906,41.533,41.533,0,0,0-4.349,4.027,53.256,53.256,0,0,0-3.8,4.55,49.479,49.479,0,0,0-1.576,4.81c-.187.688-.332,1.392-.472,2.074v0c-.078.38-.159.773-.246,1.159l-.076.331a5.209,5.209,0,0,0-.438,1.142,3.371,3.371,0,0,0,1.61.891,1,1,0,0,1,.495.286,10.442,10.442,0,0,0,1.184-2.632l.009-.043a54.461,54.461,0,0,1,3.1-4.543A65.04,65.04,0,0,1,46.23,48.18a46.848,46.848,0,0,1,5.624-5.028,35.494,35.494,0,0,1,4.872-3.09,33.906,33.906,0,0,1,5.307-2.235A11.123,11.123,0,0,0,59.019,36.11Zm-8.6,69.077-.076,0c-1.462-.1-2.458-1.216-3.422-2.3-.344-.386-.67-.75-1.017-1.073a22.8,22.8,0,0,0-4.638-3.4.261.261,0,0,1-.125-.3.265.265,0,0,1,.237-.219h.029a18.341,18.341,0,0,1,2.961.382,12.876,12.876,0,0,1,2.819.979l.164.08a13.471,13.471,0,0,1,2.838,1.782,4.769,4.769,0,0,1,1.073,1.281,2.6,2.6,0,0,1,.326,1.536,1.606,1.606,0,0,1-.354.851A1.054,1.054,0,0,1,50.42,105.187Z" transform="translate(-23.699 -22.99)"/>
      </g>
      <g id="FACE" transform="translate(37.761 44.084)">
        <path id="_Ink-3" data-name="ðŸ– Ink" d="M25.005,44.271a9.063,9.063,0,0,1-5.014-1.48A9.549,9.549,0,0,1,17.917,41a7.486,7.486,0,0,1-1.264-2.016A5.705,5.705,0,0,1,16.2,36.7a.706.706,0,0,1,.168-.451A.789.789,0,0,1,16.789,36a.812.812,0,0,1,.185-.021.745.745,0,0,1,.306.064.652.652,0,0,1,.323.317c.151.2.349.456.548.706a13.771,13.771,0,0,0,2.276,2.324,7.053,7.053,0,0,0,2.832,1.329,6.076,6.076,0,0,0,1.3.141,6.381,6.381,0,0,0,2.2-.4A7.474,7.474,0,0,0,29.832,38.3a1.653,1.653,0,0,1,1.257-.62H31.1a1.934,1.934,0,0,1,1.337.591,2.079,2.079,0,0,1,.624,1.358,1.815,1.815,0,0,1-.517,1.334,10.355,10.355,0,0,1-2.18,1.773A10.562,10.562,0,0,1,27.8,43.87,10.051,10.051,0,0,1,25.005,44.271Zm2.829-13.182h0a8.306,8.306,0,0,1-2.956-.595A14.94,14.94,0,0,1,21.4,28.525a1.333,1.333,0,0,1-.485-.77,1.592,1.592,0,0,1,.069-.865,1.967,1.967,0,0,1,.585-.844,1.426,1.426,0,0,1,.912-.355,1.3,1.3,0,0,1,.705.216l.23.177.008.006A18.822,18.822,0,0,0,25.6,27.6a5.369,5.369,0,0,0,2.608.83,2.822,2.822,0,0,0,1.1-.216,3.08,3.08,0,0,0,1.026-.726,3.137,3.137,0,0,0,.6-2.529,4.775,4.775,0,0,0-1.27-2.243,9.26,9.26,0,0,0-1.923-1.549.594.594,0,0,1-.161-.684.893.893,0,0,1,.3-.426.911.911,0,0,1,.568-.187,1.211,1.211,0,0,1,.2.018,6.458,6.458,0,0,1,2.268.818,5.141,5.141,0,0,1,1.525,1.4,5.567,5.567,0,0,1,.974,3.725,6.128,6.128,0,0,1-.5,1.955,5.7,5.7,0,0,1-1.124,1.68A5.379,5.379,0,0,1,27.834,31.088ZM5.1,21.98a1.138,1.138,0,0,1-.329-.048.668.668,0,0,1-.451-.388A5.5,5.5,0,0,1,4.6,17.39a9.726,9.726,0,0,1,1.466-2.4,6.016,6.016,0,0,1,1.574-1.41,5.286,5.286,0,0,1,2.5-.644,5.022,5.022,0,0,1,2.413.621,6.276,6.276,0,0,1,1.667,1.368,17.247,17.247,0,0,1,1.293,1.718c.17.248.346.5.526.752A1.511,1.511,0,0,1,16.3,18.8a1.822,1.822,0,0,1-1.035,1.067,1.985,1.985,0,0,1-.763.156,1.744,1.744,0,0,1-.68-.135,1.827,1.827,0,0,1-.981-1.034,7.052,7.052,0,0,0-.762-1.381,4.154,4.154,0,0,0-1.109-1.1,2,2,0,0,0-2.006-.153A6.548,6.548,0,0,0,6.626,18.55a4.546,4.546,0,0,0-.766,2.713.615.615,0,0,1-.2.517.778.778,0,0,1-.433.192A1.021,1.021,0,0,1,5.1,21.98Zm34.426-3.346a1.486,1.486,0,0,1-.428-.069,1.62,1.62,0,0,1-.669-.4,1.328,1.328,0,0,1-.372-.671,2.748,2.748,0,0,0-.967-1.607,1.967,1.967,0,0,0-1.217-.432,1.987,1.987,0,0,0-.326.027,2.965,2.965,0,0,0-1.661.994,3.639,3.639,0,0,0-.349.507l-.01.017a3.7,3.7,0,0,1-.69.9.673.673,0,0,1-.427.16.639.639,0,0,1-.19-.03,2.7,2.7,0,0,1-.613-.856,1.679,1.679,0,0,1-.122-.738,2.92,2.92,0,0,1,.539-1.481,5.762,5.762,0,0,1,1.488-1.452,4.963,4.963,0,0,1,1.646-.774,4.456,4.456,0,0,1,.933-.1,4.767,4.767,0,0,1,2.738.889,5.187,5.187,0,0,1,2.126,3.247,1.724,1.724,0,0,1-.087.959,1.346,1.346,0,0,1-.629.7A1.5,1.5,0,0,1,39.527,18.634ZM.816,12.31a.4.4,0,0,1-.051,0,.482.482,0,0,1-.251-.122A1.818,1.818,0,0,1,0,10.687a6.474,6.474,0,0,1,.66-2.519A16.093,16.093,0,0,1,1.933,6.041,11.2,11.2,0,0,1,3.564,4.187,14.118,14.118,0,0,1,8.128,1.412,9.831,9.831,0,0,1,11.381.7c.067,0,.135,0,.2,0a3.916,3.916,0,0,1,1.21.23,3.185,3.185,0,0,1,1.078.669,1.994,1.994,0,0,1,.6,1.458,2.079,2.079,0,0,1-.6,1.491,3.089,3.089,0,0,1-1.276.744,7.435,7.435,0,0,1-1.393.248,12.694,12.694,0,0,0-1.357.2A12.772,12.772,0,0,0,6.562,6.936,12.134,12.134,0,0,0,3.489,9.11c-.2.214-.391.441-.576.661l0,.006c-.172.2-.333.4-.506.585-.192.209-.368.42-.579.674a2.864,2.864,0,0,0-.164.288c-.042.087-.082.167-.124.246-.077.144-.15.27-.219.375-.136.229-.207.284-.263.308A.59.59,0,0,1,.816,12.31Zm40.652-.52a.466.466,0,0,1-.077-.006.459.459,0,0,1-.234-.113.439.439,0,0,1-.131-.227,8.5,8.5,0,0,0-1.239-3A6.492,6.492,0,0,0,37.31,6.334a15.915,15.915,0,0,0-3.461-1.162c-.333-.079-.692-.131-1.039-.182l-.016,0a8.788,8.788,0,0,1-1.646-.352A2.912,2.912,0,0,1,29.8,3.726a2.517,2.517,0,0,1-.467-.91,2.316,2.316,0,0,1-.056-.98A2.012,2.012,0,0,1,30.366.349,3.3,3.3,0,0,1,31.895,0a10.021,10.021,0,0,1,3.672,1.023l.081.034,0,0,.268.114a12.055,12.055,0,0,1,4.2,2.8,9.058,9.058,0,0,1,2.16,3.984,4.772,4.772,0,0,1-.436,3.625.431.431,0,0,1-.2.173A.455.455,0,0,1,41.467,11.79Z" transform="translate(12.824 13.05)"/>
      </g>
    </g>
  </g>
</svg>
