<svg xmlns="http://www.w3.org/2000/svg" width="390.67" height="780" viewBox="0 0 390.67 780">
  <g id="peep-standing-5" transform="translate(28.736)">
    <g id="BODY" transform="translate(-28.736 150.264)">
      <path id="_Skin" data-name="âœ‹ Skin" d="M97.1,588.011h0c-2.548,0-4.98-.108-7.226-.322a53.424,53.424,0,0,1-6.868-1.083,37.667,37.667,0,0,1-6.316-2.02,28.19,28.19,0,0,1-5.571-3.134c-.262.731-.464,1.543-.66,2.328a15.937,15.937,0,0,1-1.136,3.446c-3.574-.128-7.169-.235-10.646-.339h0c-7.866-.234-16-.476-24.077-.967l-.929-1.074-.017.021c-.081-.877-.208-1.747-.331-2.589v0c-.152-1.037-.308-2.108-.374-3.17a13.66,13.66,0,0,1,.154-3.251,8.007,8.007,0,0,1,.294-1.809,2.1,2.1,0,0,1,.379-.7,1.561,1.561,0,0,1,.658-.456l.009-.032a1.142,1.142,0,0,1,.545-.825c.053-.06.334-.385.469-.541l.018-.021.1-.112a12.27,12.27,0,0,1-.447-4.3,25.669,25.669,0,0,1,.767-4.819,41.552,41.552,0,0,1,1.5-4.721c.524-1.376,1.127-2.762,1.744-4.009a64.373,64.373,0,0,1,2.352-9.173l.537-.183.081-.657a.818.818,0,0,1,.545-.16,5.157,5.157,0,0,1,1.353.289,5.142,5.142,0,0,0,.778.2,154.841,154.841,0,0,0-.307-16.35v0c-.164-3.017-.334-6.136-.4-9.227a23.087,23.087,0,0,1-1.278-2.082,1.124,1.124,0,0,1-.682.24,2.861,2.861,0,0,1-1.4-.592,2.144,2.144,0,0,1-.64.1,2.286,2.286,0,0,1-1.642-.77,4.5,4.5,0,0,1-1-1.764A244.749,244.749,0,0,1,29.7,462.851a228.348,228.348,0,0,1,.2-26.114,179.174,179.174,0,0,1,3.356-24.925c.817-5.808,1.525-11.828,2.1-17.893.552-5.782,1.006-11.8,1.349-17.875.633-11.222.915-22.9.864-35.711-.043-10.675-.325-22.345-.863-35.679-.48-11.892-1.114-23.981-1.727-35.672-.507-9.658-1.031-19.645-1.465-29.479a5.916,5.916,0,0,1-2.212-.6,4.653,4.653,0,0,1-1.521-1.251,6.6,6.6,0,0,1-1.178-2.541,13.777,13.777,0,0,1-.356-3.09,40.292,40.292,0,0,1,.541-6.156c.387-4.3.635-8.068.76-11.509.017-1.529.052-3.3.243-4.994a18.509,18.509,0,0,1,1.132-4.805c-2.432-1.868-5.076-3.677-7.634-5.425A102.972,102.972,0,0,1,10.7,189.544a37.226,37.226,0,0,1-5.073-5.788,29.15,29.15,0,0,1-2-3.305,27.128,27.128,0,0,1-1.554-3.641c-.567-3.571-1.023-7.289-1.357-11.051-.322-3.63-.538-7.4-.642-11.218-.1-3.67-.1-7.482,0-11.33.1-3.688.286-7.518.566-11.384A354.468,354.468,0,0,1,7.12,86.879c.952-4.716,2.009-9.17,3.141-13.237,1.209-4.347,2.554-8.431,4-12.14a89.593,89.593,0,0,1,5.026-10.838c.939-1.7,1.932-3.335,2.952-4.866,1.043-1.565,2.144-3.067,3.274-4.463A52.853,52.853,0,0,1,29.127,37.3a48.194,48.194,0,0,1,3.982-3.58,45.131,45.131,0,0,1,9.143-5.695,47.159,47.159,0,0,1,5.2-2.063,51.4,51.4,0,0,1,5.654-1.505,58.366,58.366,0,0,1,6.126-.922c2.128-.208,4.355-.313,6.62-.313.934,0,1.9.018,2.859.053l.147.133a14.559,14.559,0,0,0,2.39.2,16.009,16.009,0,0,0,3.144-.319,17.985,17.985,0,0,0,3.071-.914,19.711,19.711,0,0,0,2.912-1.446,20.693,20.693,0,0,0,2.666-1.914,20.591,20.591,0,0,0,2.335-2.318A19.484,19.484,0,0,0,87.3,14.033a16.869,16.869,0,0,0,2.24-6.085c.217-1.3.4-2.425,1.366-2.991a3.267,3.267,0,0,1,1.079-2.277A7.51,7.51,0,0,1,94.7,1.144,26.828,26.828,0,0,1,103.244,0a48.947,48.947,0,0,1,11,1.261c3.493.844,5.877,1.975,6.714,3.184a2.112,2.112,0,0,1,.363-.035c.729,0,.862.517,1.016,1.115a3.986,3.986,0,0,0,.268.8c.347,1.649.7,3.208,1.02,4.508l1.22-.008c.252.649.48,1.338.7,2,.889,2.687,1.808,5.465,4.606,6.877a40.948,40.948,0,0,1,6.365.523,23.29,23.29,0,0,1,3.32.823,17.466,17.466,0,0,1,3.185,1.411,49.383,49.383,0,0,1,5.852,1.614,43.381,43.381,0,0,1,5.235,2.194A40.037,40.037,0,0,1,158.755,29a38.933,38.933,0,0,1,4.093,3.217,39.943,39.943,0,0,1,3.568,3.66,42.946,42.946,0,0,1,3.075,4.057,47.842,47.842,0,0,1,2.612,4.408c.781,1.492,1.515,3.077,2.181,4.712a68.387,68.387,0,0,1,3.191,10.156,93.573,93.573,0,0,1,1.836,10.825c.394,3.5.64,7.246.73,11.127.082,3.509.039,7.231-.128,11.062-.114,2.169-.147,4.422-.1,6.7.048,2.17.172,4.432.369,6.723.364,4.229.975,8.647,1.868,13.506,1.659,9.026,4.067,18.237,6.4,27.146v0c1.635,6.257,3.326,12.726,4.743,19.074.763,3.418,1.387,6.529,1.909,9.509.586,3.347,1.029,6.446,1.355,9.477.35,3.254.557,6.428.615,9.434a87.069,87.069,0,0,1-.308,9.381,74.635,74.635,0,0,1-1.417,9.318,69.1,69.1,0,0,1-2.71,9.244,58.533,58.533,0,0,1,2.207,6.45,60.161,60.161,0,0,1,1.476,6.8,57.241,57.241,0,0,1,.664,6.949,51.088,51.088,0,0,1-.229,6.907,39.661,39.661,0,0,1-3.464,12.91,29.813,29.813,0,0,1-8.014,10.41,7.424,7.424,0,0,1,1.18,2.471,23.777,23.777,0,0,1,.557,2.755l.026.163c1.032,5.773,1.935,12.148,2.761,19.489.731,6.494,1.328,13.062,1.926,19.779.353,3.914.707,7.909,1.049,11.773l.005.06c1.206,13.632,2.454,27.727,3.977,41.634.821,7.491,1.651,14.307,2.538,20.837,1,7.337,2.04,14.121,3.188,20.74,1.234,7.115,2.6,14.033,4.049,20.562,1.557,6.994,3.28,13.824,5.122,20.3,1.951,6.86,4.107,13.575,6.408,19.958,2.417,6.706,5.076,13.278,7.9,19.533-.021.024-.584.206-1,.339l-.018.006c-.247.08-.442.143-.458.152a17.636,17.636,0,0,1,1.734,3.075c.486,1.075.91,2.209,1.32,3.306.478,1.278.973,2.6,1.572,3.852a69.163,69.163,0,0,0,8.552,14.618,2.489,2.489,0,0,1,1.707-.9A2.353,2.353,0,0,1,240.5,517a12.834,12.834,0,0,1,1.292.849,6.061,6.061,0,0,0,1.074.671h0c.734.393,1.493.8,1.626,1.531,1.085.59,2.453,1.537,3.552,2.3h0l-.005.015c1.094.764,2.3,1.538,3.461,2.286l.015.009.443.285a21.26,21.26,0,0,0,1.833-3.551c.034,0,.068,0,.1,0a1.491,1.491,0,0,0,.284-.028,1.706,1.706,0,0,0,.234-.065c-.221.641-.445,1.254-.662,1.847l0,.007c-.355.969-.661,1.806-.809,2.385a91.24,91.24,0,0,0,31.48,12.373,24.492,24.492,0,0,1,4.374,1.092,11.412,11.412,0,0,1,3.387,1.917,13.591,13.591,0,0,1,2.783,3.279,33.67,33.67,0,0,1,2.562,5.176c.046.016.116.03.2.047h0c.255.054.6.128.652.307.172.743.351,1.514.523,2.259l.018.078c.48,2.07.977,4.211,1.439,6.25a.38.38,0,0,1-.017.279.426.426,0,0,1-.156.227c-4.532.952-9.116,1.757-14.426,2.533-4.679.684-9.363,1.263-14.561,1.9-3.443.482-7.143.98-10.87,1.351-4.276.426-8.03.633-11.476.634-2.03,0-3.982-.074-5.8-.22a53.115,53.115,0,0,1-5.588-.734,38.879,38.879,0,0,1-5.247-1.359,29.246,29.246,0,0,1-4.78-2.093,5.831,5.831,0,0,1-.636,1.426,5.042,5.042,0,0,1-.912,1.081,6.4,6.4,0,0,1-2.477,1.318,14.176,14.176,0,0,1-3.056.511c-1.085.079-2.217.086-3.284.086H216.3c-.855,0-1.761,0-2.6.053l-.372,0h0c-1.5.015-4.009.039-6.839.039-3.977,0-7.2-.05-9.586-.148-3.19-.131-4.88-.349-5.023-.649a18.216,18.216,0,0,1-.819-5.673,5.847,5.847,0,0,1,.629-2.372,4.46,4.46,0,0,1,1.732-1.762c-.17-2.617-.247-5.131-.323-7.563v0c-.053-1.72-.1-3.345-.184-4.932a32.31,32.31,0,0,1-1-8.4v-.005c-.03-.926-.061-1.883-.117-2.805-.006-.545-.03-1.116-.053-1.668v0c-.1-2.4-.2-4.872.962-6.747a12.3,12.3,0,0,1,1.865-.184,6.365,6.365,0,0,0,3.5-.826,57.661,57.661,0,0,0-3.438-9.956,31.6,31.6,0,0,0-2.758-4.776,26.441,26.441,0,0,0-3.8-4.317c-2.647.185-5.3.279-7.894.279h-.009c-1.668,0-3.349-.039-5-.116H175c-2.8,0-4.778-.56-6.234-1.762s-2.46-3.121-3.119-6.007c-3-10.613-6-22.091-8.89-33.191q-.519-1.991-1.029-3.947c-4.676-18.834-8.885-34.227-13.246-48.44-2.568-8.372-5.228-16.428-7.905-23.947-2.9-8.152-5.946-16.009-9.045-23.354-.336-.867-.678-1.744-1.009-2.592a172.128,172.128,0,0,1-6.808-19.74c-2.378,6.51-4.613,13.162-6.645,19.771-1.981,6.443-3.835,13.069-5.513,19.691-1.628,6.429-3.147,13.087-4.515,19.788-1.32,6.464-2.549,13.213-3.653,20.06-2.066,12.81-3.786,26.431-5.258,41.641-1.266,13.084-2.356,27.332-3.427,44.842v.006a59.253,59.253,0,0,1-1.131,9.949c-.059.357-.242.53-.559.53a2.423,2.423,0,0,1-.625-.123h0l-.15-.042a7.3,7.3,0,0,1-2.992,1.037,24.769,24.769,0,0,1-3.46.16h-.032a75.885,75.885,0,0,0,.9,12.875,90.672,90.672,0,0,0,2.908,12.739,30.162,30.162,0,0,1,6.817-1.726c.221.049.231.415.238.682v0c0,.073,0,.137.009.186.756.844,1.609,1.74,2.361,2.532.141-.213.287-.426.472-.692.333.221.651.475.959.72h0a10.167,10.167,0,0,0,1.336.952.7.7,0,0,0,.343.093.688.688,0,0,0,.335-.09,8.719,8.719,0,0,0,1.232.632l.439.293.027.018.072.048c-.475.5-.987,1-1.52,1.477,8.251,7.066,18.451,11.7,31.182,14.167.58.1,1.157.189,1.768.286l.063.01a45.264,45.264,0,0,1,9.5,2.208,14.423,14.423,0,0,1,3.989,2.3,10.74,10.74,0,0,1,1.592,1.641,10.522,10.522,0,0,1,1.243,2.045,9.716,9.716,0,0,1,.855,2.866,2.722,2.722,0,0,1-.681,2.337,24.463,24.463,0,0,1-.11,4.34v0c-.07.836-.143,1.7-.164,2.544-.011.166-.051.318-.42.369-5.875.318-12.5,1.271-19.516,2.281h0l-1.5.215-.274.039c-4.233.608-8.61,1.237-13.2,1.731A130.088,130.088,0,0,1,97.1,588.011ZM51.951,130.247h0c-1,3.173-2.12,6.371-3.207,9.464l0,.005c-1.263,3.595-2.57,7.312-3.686,11.018a8.479,8.479,0,0,0,.024,3.233,7.573,7.573,0,0,0,1.11,2.606A13.038,13.038,0,0,0,48.1,158.8c.753.722,1.612,1.436,2.428,2.105.6-3.632,1.271-7.913,1.76-12.136a109.715,109.715,0,0,0,.8-12.15l.251.469.336-4,.062-.758-1.422-.286-.361-1.8Z" transform="translate(71.247 -7.584)" fill="#d08b5b"/>
      <path id="_Shoes" data-name="ðŸ‘Ÿ Shoes" d="M76.127,69C71.054,69,60.7,67.969,52.9,67.106c-9.254-1.024-17.122-2.057-18.745-2.323L0,59.93.031,44.55l4.96-15.678,3.7.424a11.007,11.007,0,0,0,2.561,2.851,12.357,12.357,0,0,0,3.166,1.771,19.451,19.451,0,0,0,7,1.16,32.488,32.488,0,0,0,6.073-.607c1.545-.3,2.556-.6,2.566-.608a69,69,0,0,0,8.137-3.47c.116-.051,2.873-1.264,6.032-2.574A73.911,73.911,0,0,1,52.874,24.6l.307-.075.487-.114c.038.033,4,3.42,8.555,6.974,2.685,2.094,5.058,3.842,7.054,5.2a27.827,27.827,0,0,0,5.67,3.209l.333.113c.193.065.474.188.862.359a50.9,50.9,0,0,0,9.387,3.1c.546.13,1.359.3,2.389.515,2.682.559,6.735,1.4,10.422,2.479a41.012,41.012,0,0,1,5.059,1.782,9.551,9.551,0,0,1,3.267,2.1,8.436,8.436,0,0,1,1.324,3.2,44.576,44.576,0,0,1,.882,4.695c.444,3.141.642,6.063.644,6.093-.09.035-5.588,1.179-12.442,2.342-3.955.671-7.568,1.215-10.739,1.615a93.837,93.837,0,0,1-9.655.814C76.5,69,76.319,69,76.127,69ZM157.6,42.576h0l-.214-3.546c-.045-.783-.088-1.592-.145-2.705l-1.175-29.7,1.9-.948L161.5,7.567l.468.353.225.168.228.168A15.645,15.645,0,0,0,165.04,9.9l.134.063.094.043.028.014a26.96,26.96,0,0,0,6.086,2.168,28.963,28.963,0,0,0,6.4.709,30.712,30.712,0,0,0,6.005-.6A31.4,31.4,0,0,0,189.6,10.54a30.939,30.939,0,0,0,5.391-2.876,29.762,29.762,0,0,0,4.745-3.94l.268-.279.542-.57.787.016a.112.112,0,0,0,.03-.013.494.494,0,0,0,.147-.135.569.569,0,0,0,.127-.359l0-.027L201.128,0l2.406.212a8.409,8.409,0,0,1,3.181.92,19.143,19.143,0,0,1,3.365,2.33l.516.428.736.614.209.172.779.636-.006.041,1.041.851.27.218.243.193c.208.164.421.33.651.5l.412.311.816.61.036.817.706-.285.787.533a54.728,54.728,0,0,0,11.208,5.8,117.136,117.136,0,0,0,14.888,4.45l.331.079.414.085a17.631,17.631,0,0,1,5.628,2.22,22.1,22.1,0,0,1,4.639,3.823,37.962,37.962,0,0,1,6.663,10.481l.1.231.1.234.846,2.006-2.167.433-.067.016-.082.023c-.3.092-.845.308-2.141.859l-1.881.8-.489.2a21.2,21.2,0,0,1-2.815,1.018l-.163.04-.109.013a47.127,47.127,0,0,1-5.5.3c-2.375,0-4.69-.144-7.142-.3l-.366-.023c-2.815-.175-5.383-.319-8.3-.319-.575,0-1.154.006-1.721.018l-1.764.033-2.031.03c-1.148.014-4.341.016-8.761.018-8.065,0-20.253.009-31.424.1-13.346.107-21.893.31-25.405.6l-2.174.184Z" transform="translate(107.076 508.395)" fill="#fff"/>
      <path id="_Top" data-name="ðŸ‘• Top" d="M143.4,223.368c-3.8,0-7.263-.116-10.278-.346a54.867,54.867,0,0,1-9.895-1.511,10.279,10.279,0,0,1-4.07-2.394,22.032,22.032,0,0,1-2.409-2.6l0,0c-.143-.177-.247-.3-.308-.368l-.153-.158-.252-.255c-.829-.832-1.643-1.565-3-2.7l-.7-.584-1.647-1.355-.548-.455a40.176,40.176,0,0,1-4.771-4.464l-.154-.176-.235-.274-.251-.323-.25-.326a76.133,76.133,0,0,1-5.661-8.864l-.309-.539-1.384-2.424-.622-1.08c-1.383-2.391-2.271-3.833-3.274-5.321l-.19-.28-.556-.809.076-.661.012-.111c.027-.292.009-.45-.059-.528a.238.238,0,0,0-.181-.071h-.076a.482.482,0,0,0-.359.135.473.473,0,0,0-.087.368l0,.043.033.244-.035.244a10.5,10.5,0,0,1-1.175,3.556,12.541,12.541,0,0,1-2.372,3.045c-.88.841-6.11,3.786-10.725,6.384h0l-.006,0c-3.186,1.793-6.195,3.487-7.4,4.28l-.387.255-.163.109.751,4.538.123.7.145.8a19.812,19.812,0,0,0,1.064,4.254l.015.026,1.4,2.345-2.718.331a7.9,7.9,0,0,1-.817.028c-2.007,0-6.875-.25-12.511-.539l-.031,0-3.093-.158c-7.152-.363-14.362-.7-18.664-.7a28.947,28.947,0,0,0-3.217.123l-.477.062-.078.008-.087.007-.206.013-1.579.262-.424-1.549c-.167-.61.051-10.27.649-28.711l-.235-.144-.3-.183-.225-.133L28.3,184l-2.236-1.281-1.214-.7a107.078,107.078,0,0,1-9.135-5.851C6.588,169.572,1.472,162.986.076,156.033L0,155.641l0-.33V153.8c.006-5.385.084-19.614.674-35.389.342-9.144.8-17.333,1.37-24.34A186.332,186.332,0,0,1,4.584,73.73c1-5.379,2.026-10.146,3.133-14.574,1.153-4.611,2.361-8.724,3.693-12.572a83.973,83.973,0,0,1,9.818-20.138,59.243,59.243,0,0,1,3.852-5.05,52.385,52.385,0,0,1,4.252-4.432A48.28,48.28,0,0,1,34,13.16a46.748,46.748,0,0,1,5.089-3.167,47.743,47.743,0,0,1,5.526-2.52A51.35,51.35,0,0,1,50.587,5.61a57.8,57.8,0,0,1,6.438-1.2,67.507,67.507,0,0,1,6.913-.52l.58-.012.7-.012.522.472a9.314,9.314,0,0,1,2.412,3.83l.107.261.281.69.1.245.062.144.059.133.081.177.1.192a37.551,37.551,0,0,0,8.891,11.01l.208.179.2.167.253.2a60.086,60.086,0,0,0,7.469,5.035,81.38,81.38,0,0,0,8.815,4.38,81.144,81.144,0,0,0,9.411,3.345,61.091,61.091,0,0,0,9.256,1.931l.36.043.366.041a42.645,42.645,0,0,0,4.521.252c4.961,0,9.129-.988,12.386-2.936a15.919,15.919,0,0,0,3.161-2.473,16.3,16.3,0,0,0,2.478-3.257,20.046,20.046,0,0,0,1.771-4.068,27.96,27.96,0,0,0,1.038-4.905l.014-.117V18.7a18.031,18.031,0,0,0-.135-2.127l-.035-.264-.034-.236-.064-.416.13-.4a5.966,5.966,0,0,0-.088-2.765l-.094-.466.066-.344a3.185,3.185,0,0,0-.374-1.735l-.04-.087-.582-1.237.089-.075-.09-.115A7.406,7.406,0,0,0,136.267,6.7a21.209,21.209,0,0,0-3.273-1.533l-.147-.058-.3-.114-1.2-.451-.271-.271a2.523,2.523,0,0,1-.447-2.927A2.4,2.4,0,0,1,132.781,0h0a2.489,2.489,0,0,1,.763.122l.067.022.19.065A29,29,0,0,0,138.249,1.3a2.448,2.448,0,0,1,1.035.433l.068.051.028.023.084.026c2.2.683,4.33,1.446,6.318,2.268a60.523,60.523,0,0,1,5.666,2.685,51.49,51.49,0,0,1,5.036,3.105,45.821,45.821,0,0,1,4.429,3.529,42.724,42.724,0,0,1,7.125,8.34,45.786,45.786,0,0,1,2.74,4.818A51.336,51.336,0,0,1,173,31.83l.158.443.158.456c.548,1.607,1.191,6.6,1.968,15.27.684,7.629,1.372,16.944,2.038,25.953v0c.985,13.33,1.915,25.921,2.584,29.313l.085.43.192.949c.1.5.542,1.883,1.208,3.976v0c1.516,4.767,4.055,12.746,6.462,22.283a187.314,187.314,0,0,1,5.439,30.88,103.07,103.07,0,0,1-.076,16.116,117.8,117.8,0,0,1-1.89,13.484c-.825,4.137-1.708,7.4-2.3,9.413a36.54,36.54,0,0,1-1.316,3.9,29.359,29.359,0,0,1-2.186,3.5,28.814,28.814,0,0,1-2.707,3.194,31.294,31.294,0,0,1-3.28,2.9,37.151,37.151,0,0,1-3.906,2.61l-.2.116-.031.017a46.06,46.06,0,0,1-5.682,2.628,50.715,50.715,0,0,1-6.1,1.9,58.8,58.8,0,0,1-6.523,1.193c-2.217.28-4.552.455-6.94.52l-1.355.031C147.4,223.333,145.523,223.368,143.4,223.368ZM49.609,111.539,44.384,124.1l-2.137,10.191,3.562,5.214,4.512,1.659L51.747,122.2l-.713-8.533-1.425-2.133Z" transform="translate(72.223 10.758)" fill="#8fa7df"/>
      <path id="_Ink" data-name="ðŸ– Ink" d="M105.894,585.287h0a121.335,121.335,0,0,1-18.334-1.233,61.849,61.849,0,0,1-8.039-1.757,34.439,34.439,0,0,1-6.712-2.71c-.112.391-.226.787-.337,1.17-.271.937-.551,1.905-.812,2.864a1.461,1.461,0,0,1-.5.747,1.37,1.37,0,0,1-.845.311h-.044c-3.518-.126-7.1-.233-10.562-.336l-.065,0c-7.908-.236-16.085-.479-24.107-.968h-.02a1.159,1.159,0,0,1-.969-.593c-.957-1.421-.923-4.987-.817-6.985a27.64,27.64,0,0,1,.939-6.424c.176-.682.937-.708,1.441-.725a3.572,3.572,0,0,1-1.236-2.535A13.435,13.435,0,0,1,35,563.173l.013-.109a38.266,38.266,0,0,1,1.33-7.04,36.065,36.065,0,0,1,2.645-6.64A63.128,63.128,0,0,1,41.5,539.8a.156.156,0,0,1,.034-.133.22.22,0,0,1,.168-.08.188.188,0,0,1,.078.017.811.811,0,0,1,.381-.1c.567,0,.915.65,1.009.85.435.245.882.5,1.33.773.186-2.589.239-5.421.162-8.658-.068-2.883-.231-5.813-.388-8.647v-.005c-.184-3.31-.374-6.733-.415-10.1a1.691,1.691,0,0,1-.743.166,3.287,3.287,0,0,1-1.663-.562,3.25,3.25,0,0,1-.492.038,3.017,3.017,0,0,1-1.285-.287,3.7,3.7,0,0,1-1.06-.762,5.81,5.81,0,0,1-1.355-2.355c-1.881-8.459-3.287-15.31-4.423-21.56-1.433-7.88-2.475-15-3.185-21.775a164.422,164.422,0,0,1-.178-29.442c.341-4.546.836-9.345,1.513-14.669.537-4.221,1.2-8.86,2.084-14.6.717-4.51,1.35-9.193,1.88-13.917.505-4.5.934-9.194,1.275-13.941.629-8.762.982-17.9,1.08-27.937.082-8.365-.017-17.519-.3-27.987-.255-9.338-.63-18.829-.993-28.008-.55-13.9-1.119-28.269-1.278-42.383-.2-2.281-.35-4.611-.5-6.864v-.009c-.215-3.29-.438-6.692-.8-10.018a4.449,4.449,0,0,1-1.608-.524,5.905,5.905,0,0,1-1.361-1.041,8.435,8.435,0,0,1-1.831-2.9c-.966-2.589-.61-5.471-.267-8.258v0c.089-.722.173-1.4.235-2.084.337-3.671.589-7.416.75-11.13l0-.292a29.7,29.7,0,0,1,1.159-9.361c-2.361-1.814-4.954-3.576-7.462-5.279C14.48,190.139,5.618,184.117,2.27,173.957c-.653-.587-1.1-1.917-1.38-4.068-.238-1.849-.3-3.961-.364-5.825-.04-1.275-.075-2.374-.158-3.148-.328-6.5-.437-13.1-.325-19.627.112-6.509.447-13.105,1-19.605s1.324-13.052,2.306-19.5,2.194-12.938,3.6-19.3a158.28,158.28,0,0,1,6.8-24.449A94.428,94.428,0,0,1,18.658,47.5c.929-1.745,1.912-3.432,2.922-5.013,1.04-1.629,2.14-3.2,3.268-4.654a55.908,55.908,0,0,1,3.639-4.255,50.494,50.494,0,0,1,4.036-3.817,47.29,47.29,0,0,1,4.458-3.339A46.275,46.275,0,0,1,41.887,23.6a47.506,47.506,0,0,1,5.38-2.263,51.18,51.18,0,0,1,5.879-1.666,57.6,57.6,0,0,1,6.4-1.029,67.268,67.268,0,0,1,6.954-.352c.909,0,1.841.017,2.772.051l0,0c-.031-.024-.062-.049-.092-.074a1.108,1.108,0,0,1,.348-.056,1.265,1.265,0,0,1,.842.338,15.012,15.012,0,0,0,1.9.121,15.608,15.608,0,0,0,4.545-.686,17.455,17.455,0,0,0,4.168-1.91,19.2,19.2,0,0,0,3.591-2.91,19.6,19.6,0,0,0,2.814-3.687A15.215,15.215,0,0,0,89.21,4.819c.052-.258.1-.523.145-.8V4.009a8.86,8.86,0,0,1,.662-2.462A2.653,2.653,0,0,1,91.97.048,2.418,2.418,0,0,1,92.445,0a2.083,2.083,0,0,1,1.417.541,17.254,17.254,0,0,1,0,3.1,2.46,2.46,0,0,1-.285.211c.108-.068.187-.121.233-.157A18.957,18.957,0,0,1,92.4,8.535a20.684,20.684,0,0,1-2.575,4.3,22.839,22.839,0,0,1-7.781,6.372,1.745,1.745,0,0,1-1.182.65,3.863,3.863,0,0,0-.653.206l-.173.055-.135.043a27.975,27.975,0,0,1-7.8,1.657,31.51,31.51,0,0,0,7.828,11.83,51.816,51.816,0,0,0,12.346,8.758,71.1,71.1,0,0,0,7.113,3.221c2.372.924,4.841,1.746,7.337,2.445,2.41.674,4.852,1.235,7.259,1.666a67.972,67.972,0,0,0,6.88.885c.455.024.913.036,1.36.036a20.842,20.842,0,0,0,9.031-1.926,17.631,17.631,0,0,0,3.558-2.245,17.252,17.252,0,0,0,2.851-2.955,17.986,17.986,0,0,0,2.263-3.957,19.772,19.772,0,0,0,1.267-4.544,22.43,22.43,0,0,0,.2-4.985,25.915,25.915,0,0,0-.937-5.28,17.29,17.29,0,0,1-7.337-2.856,18.484,18.484,0,0,1-5.544-5.756,14.012,14.012,0,0,1-1.937-5.38A11.746,11.746,0,0,1,126.311,5a.066.066,0,0,1,.066-.056.091.091,0,0,1,.089.077,7.318,7.318,0,0,0,.516,1.753c.144.376.28.731.375,1.077.126.351.245.706.372,1.081l0,.009a20.7,20.7,0,0,0,1.342,3.336,6.006,6.006,0,0,0,2.38,2.521,39.545,39.545,0,0,1,6.681.616,23.85,23.85,0,0,1,3.241.843,18.345,18.345,0,0,1,3.052,1.351,36.576,36.576,0,0,1,6.176,1.816,48.843,48.843,0,0,1,5.828,2.746,49.741,49.741,0,0,1,4.48,2.738,44.9,44.9,0,0,1,3.923,3.029,42.313,42.313,0,0,1,3.4,3.3,41.784,41.784,0,0,1,2.921,3.543,43.182,43.182,0,0,1,2.476,3.768c.739,1.264,1.435,2.6,2.068,3.97a55.372,55.372,0,0,1,3.059,8.459c3.221,11.681,3.275,24.815,3.327,37.516.017,4.1.034,8.344.165,12.378.246,3.335.646,6.74,1.223,10.408.514,3.269,1.158,6.673,1.969,10.407,1.506,6.938,3.373,13.993,5.18,20.816v0c1.635,6.175,3.326,12.561,4.745,18.847.764,3.383,1.389,6.467,1.913,9.428.588,3.324,1.033,6.409,1.361,9.432.352,3.246.563,6.421.626,9.436a88.787,88.787,0,0,1-.294,9.441,77.645,77.645,0,0,1-1.4,9.447,73.339,73.339,0,0,1-2.686,9.453,63.323,63.323,0,0,1,3.619,13.388,54.734,54.734,0,0,1,.423,14.076,39.862,39.862,0,0,1-3.64,13.239,32.556,32.556,0,0,1-3.614,5.829,31.328,31.328,0,0,1-4.955,5.049c.86,3.831,1.61,7.76,2.292,12.011.608,3.788,1.147,7.749,1.65,12.109.934,8.1,1.593,16.38,2.23,24.387v.016c.469,5.893.954,11.987,1.545,17.966.663,6.71,1.393,12.561,2.231,17.887.6,4.051,1.195,8.182,1.773,12.177l.007.051v0c1.341,9.263,2.728,18.841,4.216,28.259,1.671,10.571,3.29,19.785,4.951,28.168,1.995,10.067,4.087,19.165,6.4,27.814,1.252,4.689,2.585,9.3,3.963,13.693,1.446,4.615,2.99,9.16,4.591,13.507.686,1.665,1.436,3.37,2.23,5.067.139.3.291.613.437.913a19.175,19.175,0,0,1,1.063,2.464,5.491,5.491,0,0,1,.278,2.565,14.7,14.7,0,0,1,1.761,2.986c.478,1.05.88,2.158,1.269,3.229a37.161,37.161,0,0,0,1.572,3.87A68.782,68.782,0,0,0,238.9,512.17a2.249,2.249,0,0,1,1.374-.472,6.171,6.171,0,0,1,3.183,1.444c.172.12.349.243.521.358.2.124.417.244.627.36l.009,0a3.519,3.519,0,0,1,1.837,1.643c.613.352,1.27.769,2.007,1.275a18.664,18.664,0,0,1,1.745-4.07,7.267,7.267,0,0,1,3.081-3.05,3.864,3.864,0,0,1,1.5-.32,2.975,2.975,0,0,1,1.354.315,2.869,2.869,0,0,1,1.013.854,3.625,3.625,0,0,1,.458,3.242,57.425,57.425,0,0,1-2.237,7.539,97.7,97.7,0,0,0,14.057,7.029c2.457.984,4.956,1.856,7.427,2.594,2.538.758,5.112,1.392,7.651,1.886.366.073.74.143,1.1.211l.024,0a21.873,21.873,0,0,1,6.1,1.78,14.51,14.51,0,0,1,4.67,4.229,24.408,24.408,0,0,1,3,5.614,1.6,1.6,0,0,1,.715.4,1.424,1.424,0,0,1,.408.684c.169.73.341,1.472.508,2.194l.044.189.005.024c.47,2.028.957,4.125,1.425,6.19a1.764,1.764,0,0,1-.237,1.325,1.326,1.326,0,0,1-.86.6c-5.981,1.194-11.99,2.235-17.859,3.094-3.557.329-7.272.823-11.206,1.347-7.475.995-15.2,2.024-22.725,2.024a60.074,60.074,0,0,1-10.777-.879,41.685,41.685,0,0,1-5.08-1.244,34.285,34.285,0,0,1-4.792-1.909,6.425,6.425,0,0,1-4.236,3.417,14.1,14.1,0,0,1-2.851.489c-1.021.082-2.05.094-3.01.094l-.712,0h-.109l-.755,0c-.851,0-1.755.01-2.6.079-.267-.02-.707-.03-1.345-.03-.878,0-2.03.018-3.363.038h-.021l-.677.01c-1.689.025-3.5.048-5.311.048-3.285,0-5.816-.077-7.738-.236a21.987,21.987,0,0,1-2.829-.383,3.144,3.144,0,0,1-1.528-.638.478.478,0,0,1-.144-.368,20.632,20.632,0,0,1-.9-5.762,7.557,7.557,0,0,1,.557-2.781,5.293,5.293,0,0,1,1.792-2.232c-.224-4.221-.362-8-.42-11.566a33.077,33.077,0,0,1-1.052-8.694c-.031-.935-.062-1.9-.119-2.835.007-.67-.024-1.349-.056-2.068v0c-.1-2.294-.211-4.665.98-6.612.046-.478.38-.79,1.019-.955a9.5,9.5,0,0,1,2-.179h0a5.792,5.792,0,0,0,2.116-.271,51.823,51.823,0,0,0-3.317-9.242,26.934,26.934,0,0,0-5.715-7.963c-2.481.164-4.985.248-7.44.248-1.69,0-3.4-.04-5.076-.118h-.085a14.309,14.309,0,0,1-4.108-.522,8.093,8.093,0,0,1-3.007-1.594,8.678,8.678,0,0,1-2.086-2.708,16.613,16.613,0,0,1-1.344-3.862c-.918-3.242-1.869-6.681-2.909-10.514-2.381-8.849-4.73-17.874-7-26.6v0c-4.231-16.25-8.606-33.053-13.369-49.445-2.564-8.824-5.032-16.824-7.544-24.458-2.821-8.571-5.625-16.465-8.574-24.133-.839-2.312-1.746-4.642-2.624-6.895l0,0c-1.453-3.731-2.955-7.588-4.188-11.469-2.318,6.308-4.513,12.875-6.525,19.517-1.936,6.391-3.761,13.047-5.426,19.784-1.594,6.455-3.091,13.187-4.448,20.009-1.292,6.5-2.5,13.289-3.591,20.189-1.03,6.517-1.991,13.356-2.856,20.326-.808,6.51-1.563,13.38-2.243,20.42-1.182,12.221-2.207,25.615-3.134,40.948-.063.908-.115,1.826-.165,2.713a60.184,60.184,0,0,1-1.16,10.154,1.889,1.889,0,0,1-.67,1.115,1.744,1.744,0,0,1-1.074.347,2.212,2.212,0,0,1-.622-.091,10.343,10.343,0,0,1-5.4,1.09c.049,2.273.139,5.27.41,8.294a59.223,59.223,0,0,0,1.266,8.2c.235,1.064.568,2.131.889,3.163.33,1.06.672,2.156.906,3.246a28.149,28.149,0,0,1,5.75-1.349,1.555,1.555,0,0,1,.187-.011,1.279,1.279,0,0,1,1.021.488,1.864,1.864,0,0,1,.392,1.085c.393.432.756.824,1.109,1.2.141-.181.281-.361.448-.578a25.754,25.754,0,0,1,2.972-3.406,6.626,6.626,0,0,1,3.868-1.912c.068,0,.137-.006.205-.006a2.954,2.954,0,0,1,1.77.557,2.588,2.588,0,0,1,1,1.568,6.581,6.581,0,0,1-.29,2.474,11.169,11.169,0,0,1-1.092,2.429A19.444,19.444,0,0,1,99.458,544a53.559,53.559,0,0,0,6.69,4.7,61.262,61.262,0,0,0,7.279,3.682,77.109,77.109,0,0,0,15.649,4.687c.568.095,1.134.185,1.734.28l.047.007h0c1.647.261,3.35.532,5.033.894a29.561,29.561,0,0,1,4.9,1.448,15.262,15.262,0,0,1,4.236,2.493,11.626,11.626,0,0,1,3.056,4.031,11,11,0,0,1,.935,3.072,3.9,3.9,0,0,1-.624,3,29.107,29.107,0,0,1-.115,4.526,15.823,15.823,0,0,1-.447,2.531,4.321,4.321,0,0,1-.85,1.774,1.173,1.173,0,0,1-.868.416c-3.081.625-8.943,1.573-16.156,2.355-3.891.422-7.778.755-11.552.987C114.051,585.151,109.842,585.287,105.894,585.287ZM38.941,565.166a1.341,1.341,0,0,1,1.145.7,2.222,2.222,0,0,1,.313.956,1.778,1.778,0,0,1-.152.938c9.233.9,18.689,2.467,27.833,3.98h0c7.19,1.189,14.625,2.419,21.939,3.327,3.938.489,7.525.848,10.967,1.1,3.863.28,7.443.417,10.946.417a97.891,97.891,0,0,0,31.771-4.846,3.126,3.126,0,0,1,2.137-.8h.083a10.188,10.188,0,0,0-.469-2.786,8.1,8.1,0,0,0-1.115-2.216,8.7,8.7,0,0,0-1.656-1.726,11.871,11.871,0,0,0-2.093-1.316,22.994,22.994,0,0,0-5.077-1.716c-1.822-.422-3.725-.729-5.565-1.025a49.9,49.9,0,0,1-6.631-1.357c-2.422-.641-4.753-1.363-6.928-2.147a65.864,65.864,0,0,1-6.7-2.829,52.643,52.643,0,0,1-6.277-3.627,43.569,43.569,0,0,1-5.65-4.539,4.031,4.031,0,0,1-1.5.308H96.24a1.511,1.511,0,0,1-.93-.3,1.49,1.49,0,0,1-.5-.73,1.67,1.67,0,0,1-.012-.974,1.58,1.58,0,0,1,.6-.841c-.328-.394-.662-.816-.993-1.256-1.082,1.374-2.105,2.829-3.1,4.237l0,0-.192.273a.716.716,0,0,1-.342.126.214.214,0,0,1-.213-.182c-.18-.626.648-2.642,1.012-3.48a13.9,13.9,0,0,1,1.519-2.883c-.233-.367-.463-.751-.684-1.142a1.369,1.369,0,0,1-.791.46c-5.183,1.17-9.908,3.4-14.478,5.553-5.889,2.776-11.451,5.4-17.264,5.4a18.537,18.537,0,0,1-3.773-.385,19.413,19.413,0,0,1-3.872-1.254,24.423,24.423,0,0,1-4-2.269,34.977,34.977,0,0,1-4.169-3.43c-3.455,7.844-5.2,15.343-5.192,22.289Zm155.434-45.5-.025,0h0l-.024,0a2.533,2.533,0,0,0-.155.782,13.484,13.484,0,0,1,.854,3.243c.163,1.1.236,2.247.306,3.351v0c.015.231.03.476.047.716.329,4.784.615,9.637.892,14.33l0,.069c.122,2.071.248,4.213.377,6.32,4.4-.374,8.981-.635,13.99-.8,4.234-.138,8.817-.2,14.011-.2,5.335,0,10.761.07,16.008.138h.019c5.252.068,10.683.138,16.025.138,6.6,0,12.093-.1,17.3-.328,6.214-.267,11.86-.7,17.26-1.332.94-.229,1.721-.5,2.409-.734h0a14.842,14.842,0,0,1,1.895-.563,18.412,18.412,0,0,0-2.337-4.178,9.786,9.786,0,0,0-2.706-2.436c-1.971-1.187-4.329-1.642-7.315-2.219l-.048-.009c-.748-.145-1.522-.294-2.346-.466a85.665,85.665,0,0,1-14.052-4.675,79.567,79.567,0,0,1-12.986-7.107,1.4,1.4,0,0,1-.526.1,1.737,1.737,0,0,1-1.177-.5,1.8,1.8,0,0,1-.567-1.222c-.717-.536-1.265-.962-1.779-1.382-.318,1.382-.564,2.8-.81,4.259a.146.146,0,0,1-.152.135.238.238,0,0,1-.212-.135,9.828,9.828,0,0,1-.722-2.862,12.117,12.117,0,0,1,.083-2.924c-.255-.208-.519-.429-.773-.642l-.023-.02,0,0a25.373,25.373,0,0,0-2.9-2.2,7.619,7.619,0,0,0-3.34-1.207,2.289,2.289,0,0,1-.491,1.893,2.019,2.019,0,0,1-1.551.793H238.8a31.369,31.369,0,0,1-5.017,4.266,32.808,32.808,0,0,1-5.76,3.142,33.274,33.274,0,0,1-6.253,1.942,32.43,32.43,0,0,1-6.5.664,30.6,30.6,0,0,1-6.78-.753A28.806,28.806,0,0,1,202,524.748a22.977,22.977,0,0,1-4.255-2.764h0A28.467,28.467,0,0,0,194.375,519.669ZM45.64,511.912A135.355,135.355,0,0,1,48.4,539.336a1.647,1.647,0,0,1,.268,1.706l.02.059a15.481,15.481,0,0,1,.795,2.977,21.151,21.151,0,0,0,5.095,2.215,18.224,18.224,0,0,0,4.889.667,20.9,20.9,0,0,0,4.407-.486,30.659,30.659,0,0,0,4.326-1.288,86.977,86.977,0,0,0,8.595-3.95h0c1.518-.764,3.088-1.554,4.664-2.289a47.386,47.386,0,0,1-1.672-6.182,49.494,49.494,0,0,1-.859-6.514,45.713,45.713,0,0,1,.041-6.56A38.14,38.14,0,0,1,80,513.372c-3.931.237-8.162.456-12.465.456-1.366,0-2.7-.023-3.97-.068-.151,0-.3,0-.457,0a59.1,59.1,0,0,1-8.932-.925h0A62.745,62.745,0,0,0,45.64,511.912Zm55.6,23.9a.241.241,0,0,0-.07.007v.006a3.13,3.13,0,0,0-1.331.629,24.568,24.568,0,0,0-4.3,4.015c.5.493,1.007.973,1.5,1.427a12.709,12.709,0,0,0,2.518-2.719,11.961,11.961,0,0,0,1.613-3.351,1.337,1.337,0,0,1,.15-.009h.02C101.312,535.816,101.277,535.814,101.244,535.814Zm123.883-43.975c-4.693,1.583-10.154,3.391-15.567,4.822a95.673,95.673,0,0,1-16.064,2.952,9.321,9.321,0,0,1,1.434,1.894c.342.29.721.683.617,1.152.316.637.595,1.277.865,1.9l.042.1c.529,1.255,1.093,2.523,1.638,3.75,1.148,2.583,2.336,5.254,3.271,7.966a12.629,12.629,0,0,0,.606,1.7,13.8,13.8,0,0,1,.714,2.048,2.905,2.905,0,0,1-.078,1.876,29.974,29.974,0,0,0,5.957,1.873,31.14,31.14,0,0,0,11.972.081,30.006,30.006,0,0,0,5.557-1.618,28.3,28.3,0,0,0,5.129-2.687,26.8,26.8,0,0,0,4.5-3.748c-1.354-1.985-2.522-3.812-3.571-5.584-1.205-2.038-2.225-3.957-3.118-5.866a50.639,50.639,0,0,1-2.421-6.154A39.99,39.99,0,0,1,225.128,491.839Zm29.526,20.072c-.653,0-1.5,1.13-1.785,1.5l-.019.025a16.386,16.386,0,0,0-2.413,4.721c.616.422,1.25.83,1.863,1.225l.01.006.176.113.084.054a30.338,30.338,0,0,0,1.7-3.85,18.432,18.432,0,0,0,.721-2.321c.16-.725.158-1.179-.006-1.351A.5.5,0,0,0,254.654,511.911Zm-61.352-9.4h0c0,.042.007.083.009.118.127.129.24.248.347.363l-.046-.114-.019-.048c-.021-.053-.044-.109-.067-.165-.068-.043-.138-.094-.2-.138l-.022-.016ZM190.785,242.02h0a1.134,1.134,0,0,1,.82.327,3.2,3.2,0,0,1,.851,1.847,8.655,8.655,0,0,1-.068,2.082,23.44,23.44,0,0,1-2.01,7.1,22.434,22.434,0,0,1-1.83,3.22,20.853,20.853,0,0,1-2.347,2.854,22.745,22.745,0,0,1-.668,3.455c-.135.541-.274,1.1-.392,1.667l0,0c.134.373.272.758.4,1.15a26.115,26.115,0,0,0,3.223-3.329,27.754,27.754,0,0,0,2.6-3.833,31.99,31.99,0,0,0,2.037-4.286,34.223,34.223,0,0,0,1.367-4.412,43.4,43.4,0,0,0,1.11-9.1,117.719,117.719,0,0,0-1.565-18.612c-.1-.7-.195-1.417-.291-2.126a1.784,1.784,0,0,1-.708.864,1.872,1.872,0,0,1-1,.277,2.119,2.119,0,0,1-.23-.013,25.608,25.608,0,0,1-4.691,7.458,31.359,31.359,0,0,1-3.177,3.094,33.938,33.938,0,0,1-3.536,2.616,4.119,4.119,0,0,0,.26,2.8l0,.01c.069.2.14.415.2.629a17.556,17.556,0,0,1,.465,5.667,27.748,27.748,0,0,1-1.174,6.008c-.587,1.96-1.332,3.916-2.052,5.807v0a67.593,67.593,0,0,0-2.42,7.141,11.158,11.158,0,0,0,3.2-1.613c1.1-.748,2.2-1.642,3-2.294h0a17.669,17.669,0,0,0,4.055-4.626,19.77,19.77,0,0,0,1.41-2.77,20.048,20.048,0,0,0,.961-2.95,14.418,14.418,0,0,0,.283-1.976,6.775,6.775,0,0,1,1.135-3.809A.984.984,0,0,1,190.785,242.02Zm-99.4-5.482h0a1.142,1.142,0,0,1,.841.383c3.325,3.516,4.089,8.277,4.586,12.853.133,1.169.2,2.368.263,3.528a29.967,29.967,0,0,0,.972,7.129c.088.279.559,1.684,1.15,1.9a1,1,0,0,0,.335.068.448.448,0,0,0,.341-.139c.284-.3.235-1.059.2-1.667a6.3,6.3,0,0,1-.022-.672,18.929,18.929,0,0,1,.8-3.938h0a25.262,25.262,0,0,0,.692-2.944,28.283,28.283,0,0,0,.076-7.556,34.716,34.716,0,0,0-1.729-7.362,1.093,1.093,0,0,1,.093-1.031,1.331,1.331,0,0,1,1.086-.5,1.437,1.437,0,0,1,1.161.544,50.159,50.159,0,0,1,7.718,14.346,43.587,43.587,0,0,1,1.256,4.958l0,.012c.094.446.192.906.292,1.36a32.432,32.432,0,0,0,1.768-12.6,22.112,22.112,0,0,0-1.334-6.095,20.78,20.78,0,0,0-3.241-5.658A4.154,4.154,0,0,1,107.4,231.7a2.24,2.24,0,0,1-.01-1.52,1.792,1.792,0,0,1,3.052-.626l.741.884.038.045h0c1.464,1.75,2.978,3.56,4.6,5.224.468.471.943.98,1.4,1.473l.006.007a21.354,21.354,0,0,0,4.617,4.1,11.475,11.475,0,0,0-.9-3.987,14.324,14.324,0,0,0-2.043-3.369,41.5,41.5,0,0,0-5.963-5.679,43.521,43.521,0,0,1-5.5-5.144,37.2,37.2,0,0,1-2.827-3.82c-.811-1.248-1.592-2.587-2.388-4.1-1.477-2.8-2.775-5.756-4.031-8.616l0,0v0c-.515-1.172-1.047-2.384-1.582-3.564A14.638,14.638,0,0,1,95.6,205.4a15.076,15.076,0,0,1-1.358,2.1,19.154,19.154,0,0,1-3.552,3.478,56.385,56.385,0,0,1-9.034,5.256l-.007,0c-1.651.831-3.359,1.69-4.951,2.6a31.763,31.763,0,0,0-4.445,2.982,69.585,69.585,0,0,0,4.814,9.444,71.135,71.135,0,0,1,5.844,11.856,26.427,26.427,0,0,1,1.412,6.375,21.3,21.3,0,0,1,.031,3.321,20.667,20.667,0,0,1-.531,3.418c-.009.055-.024.134-.044.235v.007c-.116.589-.356,1.813-.044,2.059a.082.082,0,0,0,.052.015c.331,0,1.538-1.19,1.727-1.4a10.915,10.915,0,0,0,1.6-2.542,13.787,13.787,0,0,0,.9-2.762,37.059,37.059,0,0,0,.643-5.9v0c.079-1.425.161-2.9.358-4.319a16.692,16.692,0,0,1,1.062-4.133A1.484,1.484,0,0,1,91.385,236.538Zm34.789-2.355h0a2.736,2.736,0,0,1,.623.075c4.229.871,8.069,1.516,11.739,1.972,2.06.256,4.087.452,6.026.584,2.07.141,4.106.212,6.052.212h0c2.383,0,4.712-.107,6.923-.318a59.87,59.87,0,0,0,6.794-1.034,50.367,50.367,0,0,0,6.574-1.869,44.442,44.442,0,0,0,6.266-2.823,26.719,26.719,0,0,0,4.606-3.32,22.044,22.044,0,0,0,5.714-8.153,25.626,25.626,0,0,0,1.378-4.662,32.672,32.672,0,0,0,.571-4.937,44.022,44.022,0,0,0-.1-5.127,71.172,71.172,0,0,0-1.674-10.481c-2.6-14.13-5.8-28.378-8.905-42.156-1.893-8.41-3.851-17.106-5.649-25.687-2.017-9.621-3.615-18.073-4.887-25.84-.654-4.332-1.184-7.98-1.649-11.7-.544-4.355-.916-8.215-1.138-11.8a116.967,116.967,0,0,1-.177-11.814c.077-2,.216-3.985.413-5.885.206-1.991.483-3.961.822-5.855.043-.059.086-.089.128-.089.365,0,.588,2.275.767,4.1.062.638.122,1.24.178,1.653.132,1.161.278,2.34.42,3.48l0,.031c.349,2.808.71,5.713.884,8.593.479,6.648,1.2,13.394,2.209,20.624.9,6.441,2,13.122,3.377,20.423,2.554,13.564,5.679,27.264,8.7,40.513l0,.017c1.921,8.423,3.907,17.132,5.728,25.722,2.043,9.639,3.655,18.1,4.93,25.878.429-2.559.74-5.2.923-7.854.175-2.527.24-5.146.193-7.785a113.551,113.551,0,0,0-1.388-15.4c-.707-4.58-1.707-9.57-3.059-15.254-1.2-5.066-2.572-10.207-3.894-15.179l0-.01c-2-7.518-4.067-15.291-5.626-23-.839-4.148-1.467-7.944-1.92-11.605a108.974,108.974,0,0,1-.847-11.724q.016-.888.032-1.774c.073-4.072.15-8.282.147-12.345,0-4.543-.1-8.451-.312-11.945a106.643,106.643,0,0,0-1.227-11.339c-.312-1.865-.682-3.674-1.1-5.378-.437-1.785-.941-3.518-1.5-5.15a50.863,50.863,0,0,0-1.956-4.9,44.741,44.741,0,0,0-2.469-4.616,41,41,0,0,0-6.707-8.291,43.588,43.588,0,0,0-4.352-3.623,49.071,49.071,0,0,0-5.094-3.241,58.243,58.243,0,0,0-5.892-2.833c-2.115-.878-4.385-1.685-6.748-2.4a.577.577,0,0,0-.454-.315,30.334,30.334,0,0,1-4.923-1.228.705.705,0,0,0-.233-.042.637.637,0,0,0-.58.421.747.747,0,0,0,.138.821l.15.056h0a26.878,26.878,0,0,1,4.7,2.11,10.035,10.035,0,0,1,1.942,1.54,9.141,9.141,0,0,1,1.557,2.161,1.472,1.472,0,0,1-.209.213,6.717,6.717,0,0,1,.512,1.483,3.665,3.665,0,0,1,.039,1.43,8,8,0,0,1,.062,3.788,19.693,19.693,0,0,1,.224,3.15,30.381,30.381,0,0,1-.989,4.962,22.734,22.734,0,0,1-1.65,4.137,18.68,18.68,0,0,1-2.243,3.363,17.441,17.441,0,0,1-2.769,2.64,18.556,18.556,0,0,1-3.227,1.966,21.851,21.851,0,0,1-3.618,1.342,30.676,30.676,0,0,1-8.138,1.014,51.441,51.441,0,0,1-11.333-1.386A76.994,76.994,0,0,1,98.547,48.88,85.225,85.225,0,0,1,88.1,43.855c-1.586-.9-3.1-1.84-4.51-2.786s-2.693-1.893-3.849-2.832A44.342,44.342,0,0,1,74.2,32.654,35.8,35.8,0,0,1,69.881,26.1c-.2-.426-.381-.879-.559-1.316a9.417,9.417,0,0,0-2.137-3.621,65.967,65.967,0,0,0-7.221.511,55.86,55.86,0,0,0-6.584,1.241A49.338,49.338,0,0,0,47.4,24.834a45.872,45.872,0,0,0-5.413,2.554,45.111,45.111,0,0,0-4.879,3.137A46.833,46.833,0,0,0,32.728,34.2a50.946,50.946,0,0,0-3.912,4.158,57.581,57.581,0,0,0-3.48,4.594c-1.068,1.564-2.1,3.24-3.082,4.982-.941,1.679-1.856,3.469-2.717,5.321a104.773,104.773,0,0,0-4.479,11.463C13.82,68.49,12.7,72.491,11.628,76.947c-.922,3.841-1.791,7.966-2.656,12.61-1.186,5.941-2.2,12-3,18.022S4.542,119.7,4.119,125.755s-.657,12.192-.7,18.256.117,12.214.463,18.263c.058,1,.143,2.021.226,3.009v0c.156,1.869.317,3.8.306,5.7a19.68,19.68,0,0,0,1.057,3.079,21.252,21.252,0,0,0,1.495,2.8,27.688,27.688,0,0,0,4.022,4.909,77.008,77.008,0,0,0,10.216,8l0,0,.02.014c.981.683,1.994,1.39,2.957,2.081,3.291,2.393,6.643,4.922,9.964,7.517,3.2,2.5,6.468,5.138,9.713,7.839,6.158,5.125,12.291,10.514,18.751,16.475a82.384,82.384,0,0,1,18.7-12.393l.062-.03.276-.132a36.961,36.961,0,0,0,6.936-3.974,9.969,9.969,0,0,0,4.088-6.5,7.193,7.193,0,0,0-1.977-3.442,47.8,47.8,0,0,0-3.563-3.484h0a27.974,27.974,0,0,1-2.891-2.868C80.6,187.2,76.7,183.489,72.342,179.537c-3.678-3.334-7.73-6.875-12.386-10.826-2.036-1.686-4.686-3.928-7.124-6.319a51.273,51.273,0,0,1-6.178-7.162.045.045,0,0,0-.007.01l0,.008a1.842,1.842,0,0,0-1.12-.412,1.761,1.761,0,0,0-.492.073A1.687,1.687,0,0,1,44.373,156a1.916,1.916,0,0,1-1.142.371,1.76,1.76,0,0,1-1.018-.308,1.578,1.578,0,0,1-.626-.939,13.388,13.388,0,0,1,.087-4.487,36.976,36.976,0,0,1,1.123-4.384C51.141,123.22,57.79,102.47,63.124,82.819c.364-1.964.676-3.6.983-5.153a.57.57,0,0,1,.586-.454.739.739,0,0,1,.59.284.539.539,0,0,1,.062.511c-1.608,9.017-3.022,16.582-4.692,24.193-1.952,8.9-4.019,16.688-6.318,23.818,2.507,9.124,2.7,19.458.6,31.593a4.953,4.953,0,0,0,.727,2.811,4.4,4.4,0,0,0,.4.492l0,0a2.342,2.342,0,0,1,.565.851c2.939,2.136,5.894,4.4,8.784,6.72,2.832,2.276,5.677,4.673,8.456,7.124,5.389,4.752,10.754,9.905,15.947,15.316a4.893,4.893,0,0,1,2.343.7,8.19,8.19,0,0,1,2.054,1.73,10.664,10.664,0,0,1,2.751,7.45c1.862,2.706,3.518,5.613,5.119,8.425v0A88.968,88.968,0,0,0,109,220.107a47.837,47.837,0,0,0,6.212,5.738,61.091,61.091,0,0,1,4.971,4.387,23.411,23.411,0,0,1,2.136,2.488,17.416,17.416,0,0,1,1.718,2.843,2.606,2.606,0,0,1,.844-.982A2.255,2.255,0,0,1,126.175,234.183Zm-81.693-6.3c1.717,0,3.428.064,5.084.191,2.53.2,5.094.556,7.573.9h0a82.907,82.907,0,0,0,11.4,1.063,34.789,34.789,0,0,0,4.244-.246,28.291,28.291,0,0,1-2.916-6.274c-2.005,1.483-3.934,3.049-5.733,4.655a2.364,2.364,0,0,1-1.568.615,2.178,2.178,0,0,1-1.51-.615c-4.232-4.07-8.613-8.124-13.02-12.05-4.385-3.906-8.916-7.791-13.467-11.549a5.192,5.192,0,0,0-.6.574c.01.05.021.1.032.151.016.074.034.159.049.24a1.411,1.411,0,0,0,.166-.28c.121-.231.271-.516.37-.516.035,0,.062.036.081.107a16.243,16.243,0,0,0-.209,4.885,102.324,102.324,0,0,1-.6,11.369l0,.018c-.072.8-.147,1.629-.216,2.442-.017.543-.083,1.1-.146,1.64v0a9,9,0,0,0,.035,3.44c.078-.013.178-.019.267-.024s.157-.01.218-.018A79.943,79.943,0,0,1,44.482,227.882Zm8.179-96.724c-.693,2.1-1.445,4.229-2.172,6.284l0,.008c-1.14,3.221-2.319,6.553-3.3,9.887a6.729,6.729,0,0,0,1.781,5.923,20.021,20.021,0,0,0,1.746,1.654c.976-5.56,1.486-11.277,1.979-16.806l0-.04c.1-1.128.2-2.294.311-3.44-.026-.313-.047-.641-.066-.929v0A19.277,19.277,0,0,0,52.661,131.158Zm.879-2.657-.178.548c.038.065.076.136.109.2l.007.013c.01-.122.02-.245.03-.365v-.015l0-.029C53.52,128.736,53.529,128.618,53.539,128.5ZM141.094,24.866c.141.167.285.355.454.59l-.01-.06c-.025-.15-.054-.32-.085-.486C141.343,24.9,141.217,24.883,141.094,24.866Z" transform="translate(69.585 -4.74)"/>
    </g>
    <g id="Head" transform="translate(95.946 42.662)">
      <g id="HEAD-2" data-name="HEAD">
        <path id="_Skin-2" data-name="âœ‹ Skin" d="M40.573.018c35.67,1.129,37.821,18.074,37.821,46.49S59.891,92.83,53.077,95.957s-24.754,16.557-40.945,10.368S.631,73.988.631,62.754,4.9-1.111,40.573.018Z" transform="translate(21.11 24.909)" fill="#d08b5b"/>
        <path id="_hijab" data-name="ðŸ§• hijab" d="M0,44.048Q11.063-1.066,40.391.026C69.72,1.118,69.41,31.014,67.57,28.288q-1.8-2.671-25.249-18.664l-.966-.658Z" transform="translate(27.208 25.976)" fill="#9fd8e5"/>
        <path id="_Ink-2" data-name="ðŸ– Ink" d="M61.6,148.514c-4.975,0-9.711-1.907-13.688-3.773-7.094-3.325-14.165-7.038-21-10.628l0,0c-2.1-1.1-4.275-2.244-6.413-3.355-5.313-2.759-9.656-5.034-13.667-7.16-.378-.2-.875-.47-1.364-.777H5.336l-.264,0c-.3,0-.618.019-.95.038s-.683.04-1.023.04a4.5,4.5,0,0,1-1.367-.174A2.413,2.413,0,0,1,.11,121.089a2.846,2.846,0,0,1-.1-.974,4.287,4.287,0,0,1,.612-1.9,14.47,14.47,0,0,1,3.217-3.355l.228-.192c1.378-1.163,2.8-2.2,4.006-3.069.562-.4,1.138-.807,1.7-1.2,1.009-.709,2.053-1.442,3.056-2.193l.038-.057c.071-.109.145-.221.216-.335a18.879,18.879,0,0,0,2.742-8.205A27.175,27.175,0,0,1,14.208,97.4,57.79,57.79,0,0,1,7.866,83.73,73.637,73.637,0,0,1,4.8,68.96a67.806,67.806,0,0,1,.09-14.969,62.828,62.828,0,0,1,9.115-26.11,64.457,64.457,0,0,1,7.865-10.224,61.352,61.352,0,0,1,9.762-8.394A56.347,56.347,0,0,1,42.979,3.2,46.909,46.909,0,0,1,51.1.824,43.86,43.86,0,0,1,59.5,0a40.914,40.914,0,0,1,7.658.718,38.51,38.51,0,0,1,6.265,1.766A41.478,41.478,0,0,1,79.36,5.264a42.574,42.574,0,0,1,5.434,3.671,41.324,41.324,0,0,1,4.763,4.436,46.331,46.331,0,0,1,3.491,4.317,50.511,50.511,0,0,1,2.958,4.668A59.719,59.719,0,0,1,100.46,32.5,85.024,85.024,0,0,1,104.5,54.3a83.642,83.642,0,0,1-2.92,28.152,81.99,81.99,0,0,1-4.839,12.722A90.468,90.468,0,0,1,89.938,107c.245.367.515.758.877,1.266,1.205,1.686,2.491,3.507,3.733,5.4a37.485,37.485,0,0,1,2.948,5.223,18.76,18.76,0,0,1,1.626,5.7,14.956,14.956,0,0,1,.085,1.962,2.835,2.835,0,0,1-.862,1.9,2.722,2.722,0,0,1-1.882.838,2.165,2.165,0,0,1-1.289-.427,5.918,5.918,0,0,0-3.584-1.142,10.673,10.673,0,0,0-3.36.63c-1.244,1.576-2.535,3.159-3.834,4.7-1.753,2.08-3.342,3.948-5.036,5.746a48.51,48.51,0,0,1-5.6,5.176,23.066,23.066,0,0,1-5.692,3.285,17.735,17.735,0,0,1-6.435,1.244ZM26.56,114.228a.911.911,0,0,0-.6.236,1.089,1.089,0,0,0-.337.549.828.828,0,0,0,.443.974,38.305,38.305,0,0,0,7.087,2.893,60.466,60.466,0,0,0,7.472,1.708,1.092,1.092,0,0,0,.181.016,1.044,1.044,0,0,0,1.005-.976.767.767,0,0,0-.682-.868,60.94,60.94,0,0,1-7.239-1.631,36.24,36.24,0,0,1-6.868-2.779A.963.963,0,0,0,26.56,114.228Zm6.981-7.77a1.061,1.061,0,0,0-.95.665.819.819,0,0,0,.24.934,33.673,33.673,0,0,0,4.716,3.6,38.607,38.607,0,0,0,5.224,2.759,49.106,49.106,0,0,0,11.363,3.308,1.09,1.09,0,0,0,.182.016.951.951,0,0,0,.7-.307,1.128,1.128,0,0,0,.3-.667.769.769,0,0,0-.682-.87,48.459,48.459,0,0,1-10.912-3.125,36.621,36.621,0,0,1-5.025-2.615,31.4,31.4,0,0,1-4.53-3.436A.926.926,0,0,0,33.541,106.458ZM68.464,27.27,68,27.65l-.03.025-.446.363c-.77.627-1.542,1.262-2.29,1.875l0,0c-1.123.922-2.285,1.875-3.434,2.8-4.1,3.316-8.153,6.7-11.226,9.274-6.005,5.033-13.931,11.661-21.983,18.285a37.23,37.23,0,0,0-.707,7.506,45.325,45.325,0,0,0,.683,7.513A48.609,48.609,0,0,0,30.71,83.28c1.011,2.848,2.215,5.583,3.151,7.648,1.588,1.485,2.936,2.689,4.243,3.789,1.554,1.308,3.031,2.451,4.516,3.494a44.175,44.175,0,0,0,11.726,6.051,29.765,29.765,0,0,0,9.236,1.528,25.062,25.062,0,0,0,6.064-.732,23.636,23.636,0,0,0,5.8-2.294A30.426,30.426,0,0,0,83,96.71a39.391,39.391,0,0,0,5.582-7.941c3.186-5.915,4.945-12.79,5.375-21.019A96.089,96.089,0,0,0,93.84,56.7c-.244-3.9-.654-7.727-1.023-10.959a1.1,1.1,0,0,1-.155.011,1.253,1.253,0,0,1-.321-.044,5.235,5.235,0,0,1-2.328-1.8c-.208-.232-.4-.451-.606-.654-.959-.966-1.94-1.9-2.915-2.79-1.86-1.688-3.859-3.336-5.941-4.9-2.059-1.543-4.24-2.982-6.349-4.374C72.3,29.936,70.334,28.639,68.464,27.27Zm.9-4.465a23.583,23.583,0,0,0-3.64.312,24.479,24.479,0,0,0-3.5.849,28.73,28.73,0,0,0-6.572,3.127c-1.976,1.254-4.008,2.69-6.039,4.266-1.848,1.435-3.756,3.033-5.669,4.75a68.761,68.761,0,0,0-4.968,4.918,52.72,52.72,0,0,0-4.352,5.456A41.573,41.573,0,0,0,31.161,52.5a34.934,34.934,0,0,0-2.317,6.6l-.016.066c-.032.134-.065.273-.1.41,6.452-6.314,13.313-12.715,20.393-19.025,2.161-1.926,4.366-3.876,6.5-5.762l0,0,0,0c1.431-1.266,2.91-2.574,4.364-3.864,1.642-1.456,3.333-2.912,4.968-4.32l.6-.517.664-.572.006,0c.7-.6,1.417-1.22,2.126-1.827.121-.1.244-.213.363-.318l0,0C68.934,23.172,69.15,22.981,69.369,22.8ZM72.59,23a1.178,1.178,0,0,1-.05.206,3.625,3.625,0,0,1-.793,1.306,10.252,10.252,0,0,1-1.142,1.017l0,0-.213.172c-.319.258-.639.519-.913.744A32.413,32.413,0,0,1,76.1,29.275,58.849,58.849,0,0,1,82.164,33.2a73.58,73.58,0,0,1,6.377,5.209c.984.9,1.964,1.838,2.911,2.8.149.151.31.3.48.464l0,0c.151.144.308.292.462.445l-.026-.223,0-.027-.042-.357a1.552,1.552,0,0,1,.306-1.095,24.22,24.22,0,0,0-2.9-6.427,24.586,24.586,0,0,0-4.541-5.266,24.255,24.255,0,0,0-5.829-3.774A23.488,23.488,0,0,0,72.59,23Z" transform="translate(0.711 8.769)"/>
      </g>
      <g id="FACE" transform="translate(37.761 44.084)">
        <path id="_Ink-3" data-name="ðŸ– Ink" d="M25.657,45.461a9.063,9.063,0,0,1-3.431-.684,9.7,9.7,0,0,1-2.239-1.284,9.528,9.528,0,0,1-1.823-1.835,1.877,1.877,0,0,1-.38-1.455,2.1,2.1,0,0,1,.818-1.315,2.018,2.018,0,0,1,1.2-.417,1.744,1.744,0,0,1,.268.021,1.853,1.853,0,0,1,1.24.818l.073.1a6.4,6.4,0,0,0,2.345,1.964,5.334,5.334,0,0,0,2.326.542,5.164,5.164,0,0,0,.576-.032,6.066,6.066,0,0,0,2.561-.9,11.986,11.986,0,0,0,2.169-1.807c.155-.158.32-.33.533-.557a.844.844,0,0,1,.442-.34.908.908,0,0,1,.288-.046.978.978,0,0,1,.322.055.967.967,0,0,1,.48.363.892.892,0,0,1,.152.588,5.387,5.387,0,0,1-.641,2.09,6.979,6.979,0,0,1-1.371,1.757,8.815,8.815,0,0,1-2.077,1.445,8.659,8.659,0,0,1-2.3.789A8.505,8.505,0,0,1,25.657,45.461Zm2.415-13.648h0a8.305,8.305,0,0,1-2.956-.595,14.94,14.94,0,0,1-3.477-1.969,1.333,1.333,0,0,1-.485-.77,1.592,1.592,0,0,1,.069-.865,1.967,1.967,0,0,1,.585-.844,1.427,1.427,0,0,1,.912-.355,1.3,1.3,0,0,1,.706.216l.235.181,0,0a18.824,18.824,0,0,0,2.176,1.51,5.369,5.369,0,0,0,2.609.83,2.822,2.822,0,0,0,1.1-.216,3.08,3.08,0,0,0,1.026-.726,3.137,3.137,0,0,0,.6-2.529,4.774,4.774,0,0,0-1.27-2.243,9.26,9.26,0,0,0-1.923-1.549.594.594,0,0,1-.161-.684.893.893,0,0,1,.3-.426.911.911,0,0,1,.568-.187,1.212,1.212,0,0,1,.2.018,6.458,6.458,0,0,1,2.268.818,5.141,5.141,0,0,1,1.525,1.4,5.568,5.568,0,0,1,.974,3.725,6.128,6.128,0,0,1-.5,1.955,5.7,5.7,0,0,1-1.124,1.68A5.379,5.379,0,0,1,28.072,31.813ZM8.835,18.486A1.979,1.979,0,0,1,6.917,16.73a14.215,14.215,0,0,1,.076-3.709c.045-.36.091-.733.124-1.135A2.219,2.219,0,0,1,7.959,10.3a2.6,2.6,0,0,1,1.6-.561,1.972,1.972,0,0,1,1.208.379,1.787,1.787,0,0,1,.667,1.185,9.934,9.934,0,0,1-1.041,6.133,1.969,1.969,0,0,1-.7.8A1.607,1.607,0,0,1,8.835,18.486Zm28.237-.841a1.7,1.7,0,0,1-1.33-.569,5.182,5.182,0,0,1-.812-1.375,5.978,5.978,0,0,1-.413-1.656,3.506,3.506,0,0,1,.959-3.013,1.987,1.987,0,0,1,.154-.234,2.174,2.174,0,0,1,1.672-.96,1.815,1.815,0,0,1,.508.075,2.443,2.443,0,0,1,1.633,1.422,5.02,5.02,0,0,1,.2,2.751,9.2,9.2,0,0,1-.836,2.6,1.686,1.686,0,0,1-.722.712A2.193,2.193,0,0,1,37.072,17.645ZM.312,8.807A.308.308,0,0,1,.056,8.65a.343.343,0,0,1-.021-.337A11.7,11.7,0,0,1,2.662,4.995,16.241,16.241,0,0,1,6.177,2.6a15.138,15.138,0,0,1,4.175-1.453l.446-.078A10.884,10.884,0,0,1,12.62.87a2.818,2.818,0,0,1,2.248.837,1.9,1.9,0,0,1,.452,1.354,1.24,1.24,0,0,1-.452.885,3.468,3.468,0,0,1-2.374.695c-.187,0-.381,0-.568-.009H11.92c-.18,0-.384-.01-.586-.01-.186,0-.353,0-.508.013a16.081,16.081,0,0,0-3.534.6A24.028,24.028,0,0,0,.477,8.754.293.293,0,0,1,.312,8.807ZM43.306,7.012h0l-.188-.047a10.648,10.648,0,0,1-2.061-.8l-.669-.329A18.614,18.614,0,0,0,38,4.817a28.262,28.262,0,0,0-5.446-1.2A2.228,2.228,0,0,1,31.458,3.2a1.634,1.634,0,0,1-.611-.929A1.659,1.659,0,0,1,31.035.882,1.776,1.776,0,0,1,31.9.14,1.943,1.943,0,0,1,32.633,0a2.169,2.169,0,0,1,.424.042l.341.07A24.407,24.407,0,0,1,39.28,2.019a11.9,11.9,0,0,1,2.587,1.7A7.537,7.537,0,0,1,43.7,6.075c.064.493,0,.615-.062.7l-.019.024-.017.023a.473.473,0,0,1-.292.194Z" transform="translate(12.587 12.325)"/>
      </g>
    </g>
  </g>
</svg>
