<svg xmlns="http://www.w3.org/2000/svg" width="390.67" height="780" viewBox="0 0 390.67 780">
  <g id="peep-standing-14" transform="translate(28.736)">
    <g id="BODY" transform="translate(-28.736 150.264)">
      <path id="_Skin" data-name="âœ‹ Skin" d="M246.732,246.639c6.255.14,3.573-58.218-.6-68.972a28.23,28.23,0,0,1-.971-7.832c5.166.516,4.61-3.019,4.343-7.283.088-3.385.323-10.37-4.858-7.651C229.109,123.8,245.9,43.415,205.006,35.844c-4.928-1.2-10.022-2.436-14.171-5.852-4.39-8.116-6.627-9.152-13.9-9.677-1.347-7.31-3.865-15.12-11.369-17.965C158.693-.343,150.7-.558,143.534.879c-5.929,1.934-6.472,12.956-7.789,18.39-7.986-2.118-17.828-6.572-22.127,3.525a9.865,9.865,0,0,0-6.128.474C89.754,26.125,72.546,34.149,65.968,50.89c-4.063,10.046-1.18,20.982.344,31.386C67.734,93.605,63.986,104.1,62.249,115c-2.587,15.006-3.054,27.043-1.366,38.2-4.462,1.015-4.791,5.073-2.986,9.32.53,1.437,1.064,2.952,2.236,3.764,2.384,1.5,5.466-.229,8.057-.493A113.021,113.021,0,0,0,71.5,184.34c-.5,2-1.074,4.234-1.589,6.243l-.174-.189c-5.916,24.78-23.511,48.85-18.042,75.186.322.877.932.694,1.4.679,2.715,1.032,5.208.377,7.945.482a150.052,150.052,0,0,1,18.586,1.56c1.064,6.949,4.522,18.326,10.69,20.976.1.035,1.932-.346,2.085-.357C75.982,355.5,46.44,417.059,34.7,484.977c-.07.829,1.279.39,1.722.491-.061,1.885,1.157,2.338,2.862,3.008-2.2,4.594-4.177,9.181-6.364,13.787-1.014,2.28-2.667,4.531-2.968,6.968a9.023,9.023,0,0,0-4.009,7.4c-6.53,2.76-4.755,16.392-6.245,23.145C18.2,549.831,11.03,556.855,6.117,565.1A12.789,12.789,0,0,0,4,571.006c-3.046,1.428-4.181,4.547-3.98,9.8-.011,6.143,1.722,8.482,6.394,8.63,12.69,1.268,27.5.751,40.261-.691,9.548-1.214,18.009-.207,15.874-11.68-.439-2.778.4-6.517-1.239-8.765a42.861,42.861,0,0,1,1.762-20.046c1.329-5.566,3.573-17.063,2.643-24.533-.43-3.455-7.483-5.356-8.724-5.524.395-2.6.221-7.145-1.178-8.953,2.569-.358,3.215-1.038,3.75-3.891,1.279-4.622,1.449-9.64,4.616-13.534,5.7.073,11.373-1.372,17.065-1.548l.283-.654a30,30,0,0,0,9.911-1.8c.709.335,1.615.623,2.014-.45l1.9-5.945c22.13-70.427,46.661-141.023,70.579-210.934a49.429,49.429,0,0,1,5.259-10.04c.74,42.775,9.7,85.505,10.47,128.26,1.04,29.412.772,58.516,3.539,88.033.712,6.247,1.469,6.039,2.4,5.656.374.058,1.253.246,1.635.326-.624,6.208-1.341,16.284-4,22.634-5.884.908-4.83,5.423-3.525,9.166-1.4,1.2-1.2,3.994-.788,5.541-5.536.006-6.744,4.509-6.363,7.351.527,4.753.232,12.149,3.4,16.207,1.868,5.176,4.907,10.061,6.095,15.637.746,4.1.458,10.079,1.178,14.149-1.811.836-1.043,2.148-1.349,4.684-1.567,11.613,3.95,9.639,13.7,10.438,5.847,1.291,50.358,3.86,48.434-3.866.328-3.146-1.135-4.528-1.762-7.626-.281-.822-5.827-10.337-9.134-13.94-11.094-10.423-10.609-24.417-10.258-40.536-.652-4.369-4.013-8.552-8.3-8.082,1.231-4.666-1.051-8.723-5.82-10.072.476-5.283.978-12.461,2.722-17.031l-1.643-1.672,2.2.263.73-1.838.8,2.014c3.775,0,8.034-.837,11.649-1.231.578.033.32-.752.415-1.055,3.415-.707,3.788-2.521,3.185-6.845.8-70.195.45-139.731-.637-210.056,5.336.238,10.54-1.708,15.784-3.006,1.863,1.169,2.391-2.995,2.173-3.893C247.826,255.4,247.25,250.863,246.732,246.639Z" transform="translate(23.274 -8.295)" fill="#d08b5b"/>
      <path id="_Pants" data-name="ðŸ‘– Pants" d="M161.674,0s4.888,34.057,7.44,47.155a.9.9,0,0,0,.949.489l.04-.009.536-.132.894.335.749.279,6.348,2.338,1.745.648c5.933,2.212,9.336,3.592,13.192,5.386l2.317,1.086L194.712,59.3a.248.248,0,0,0-.024.049l-.008.022,0,.016.068.186c1.1,3.057,1.3,5.784,1.088,10.482l-.019.4-.049.971-.038.761v.064c0,.171-.015.325-.038.528l-.011.09-.067.516-.017.152c0,.03-.005.058-.007.083l0,.07,0,.058v.014l.416.463-.048.745c-.159,2.448-1.956,201.693-.728,211.326l.038.255.024.136,0,.138a4.606,4.606,0,0,1-.123,1.106l-.034.153-.1.419c-.023.1-.038.169-.047.225l-.007.044-.007.057.13.31-.07,1.138-.011.207c-.007.132-.012.255-.015.374l-.038,1.726-2.23.132c-3.84.22-7.205.325-13.069.427l-.688.012-6.5.1c-6.545.11-10.836.25-15.195.537l-1.439.1-.563-.51a.264.264,0,0,0-.176-.039l-.021.006-2.713,1.078.3-3.058-.1-.022.2-1.7.017-.164a20.186,20.186,0,0,0-.139-4.13l-.125-1.2c-.119-1.166-.175-1.877-.194-2.613l0-.079-.005-.317-.086-1.181c-.865-11.988-3.9-89.225-3.9-89.225-.576-10.867-11.793-116.711-11.793-116.711l-.044-1.776-.018-.628-.183.312-.218.374-.277.48a78.712,78.712,0,0,0-7.156,15.577l-.073.253-.71,1.891c-22.13,59.007-43.422,120.678-69.025,198.785l-1.814,5.54-.705.325c-4.821,2.222-9.855,2.662-16.765,1.972l-.228-.023-.456-.048c-.791-.086-1.5-.171-2.44-.292l-.624-.082-3.171-.425c-1.209-.16-2-.259-2.793-.347l-.643-.069-.934-.091-.762-.072a130.418,130.418,0,0,0-24.939-.328l-.295.029-1.715.176-.419-1.585A4.8,4.8,0,0,1,0,292.92v-.14l0-.164.13-.667c3.216-16.281,26.19-93.523,26.19-93.523,2.6-8.424,13.851-44.513,17.538-56.467l.42-1.365.523-1.7c5.4-17.641,8.312-27.886,9.045-32.1l.042-.251.011-.068.016-.067.443-1.858.2-.279a6.335,6.335,0,0,0,.971-3.192l.025-.252.022-.244.29-3.545,2.565,1.862.2.143c1.682,1.188,2.948,1.657,3.737,1.563l.054-.008,0-.014,3.438-.873.274.776.139.389a2.183,2.183,0,0,0,1.464,1.465c.345.055.619-.1.869-.746l.024-.064.012-.034.015-.08.039-.212a35.742,35.742,0,0,0,.214-8.876l-.022-.38-.107-1.777a53.431,53.431,0,0,1-.116-6.367l.018-.312.931-15.469,3.18,18.665,1.223,7.13.19,1.146.05.291c.644,3.7,1.427,5.672,2.955,6.649l.08.05,0-.6-.008-1.175c-.005-.6-.012-1.206-.02-1.834l-.023-1.615-.025-1.5L76.96,82.61l3.272,2.362.084.059c.14.1.263.177.366.239l.062.036.084-.136a12.916,12.916,0,0,0,1.319-9.87l-.037-.166-.036-.157c-.734-3.161-2.128-6.321-4.617-10.877l-.114-.208-.367-.665-1.1-1.966-.778-1.4-.32-.58c-.2-.37-.386-.709-.561-1.037l-.065-.122-1.3-2.46,2.54-.327c1.647-.212-1.193-27.469,17.722-39.776C114.037,1.951,161.674,0,161.674,0Z" transform="translate(57.922 184.477)" fill="#ffcf77"/>
      <path id="_Jacket" data-name="ðŸ§¥ Jacket" d="M.335,249.919h0A47.151,47.151,0,0,1,0,244.653c-.015-1.716.057-3.516.214-5.353a80.829,80.829,0,0,1,1.743-10.869c1.636-7.286,4.078-14.618,6.44-21.71,1.959-5.881,3.809-11.436,5.164-16.793.275-1.053.6-2.3.916-3.6,1.355-3.81,3.978-13.3,4.884-16.995l.125-.516.174.189.394-1.535c.421,1.487.857,3.228,1.318,5.072l0,.006c.737,2.946,1.5,5.993,2.29,8.344A296.845,296.845,0,0,1,28.843,213c.142,1.343.273,2.7.4,4v.011c.215,2.222.438,4.52.712,6.772a29.7,29.7,0,0,0-.011,5.391h0a28.636,28.636,0,0,1-.055,5.881,42.615,42.615,0,0,0-7.474,2.224,79.594,79.594,0,0,0-7.99,3.659,94.537,94.537,0,0,0-14.09,8.973Zm195.881-8.414h0a37.314,37.314,0,0,1-5.4-1.7l-.674-.292c-5.572-2.424-11.534-4.986-17.769-7.327-3.508-1.317-6.742-2.422-9.612-3.284a69.824,69.824,0,0,0-8.789-2.111c-1.918-11.675-3.525-21.962-4.913-31.45-1.678-11.47-3.064-21.943-4.238-32.017-1.309-11.23-2.355-22.058-3.109-32.182-.405-5.445-.738-10.837-.989-16.027-.261-5.4-.441-10.759-.536-15.918l-.033-1.95c-.108-5.865-.5-11.973-1.208-18.673-.587-5.576-1.375-11.471-2.48-18.55l-.106-.867c-.48-3.955-1-8.552-1.1-13.051a50.624,50.624,0,0,1,1.2-12.97.13.13,0,0,0,.038.006.074.074,0,0,0,.061-.03,7.455,7.455,0,0,0-.51-2.59,65.695,65.695,0,0,1-1.661-7.582,21.036,21.036,0,0,1-.059-4.015c.117-2.482.239-5.047-1.129-7.362a4.57,4.57,0,0,0-1.335-1.512,2.441,2.441,0,0,0-1.37-.426,4.319,4.319,0,0,0-2.545,1.071c-.295.225-.557.452-.768.635-.293.253-.5.436-.6.436a.044.044,0,0,1-.036-.016c-.021-.027-.021-.088,0-.187a15.82,15.82,0,0,0-1.1-3.2c-.867-2.2-1.849-4.7-1.572-5.1a.123.123,0,0,1,.107-.056.394.394,0,0,1,.187.066,12.367,12.367,0,0,0,3.284.844c2.421.438,5.434.983,6.928,2.474a32.564,32.564,0,0,1,3.766,4.455,16.619,16.619,0,0,1,1.62,2.785,23.619,23.619,0,0,0,3.011,1.545,30.776,30.776,0,0,0,5.051,2.244c1.825.652,3.806,1.246,5.721,1.821a65.5,65.5,0,0,1,10.574,3.836,21.044,21.044,0,0,1,4.408,2.9,15.246,15.246,0,0,1,1.8,1.854,13.855,13.855,0,0,1,1.459,2.186c1.04,2.162,2.039,4.523,2.97,7.017.887,2.375,1.741,4.948,2.538,7.649,1.47,4.977,2.786,10.47,4.022,16.793,2.293,11.726,3.933,24.454,5.519,36.764v0h0c.9,7.018,1.839,14.274,2.871,21.115.555,3.68,1.095,6.964,1.65,10.038.623,3.447,1.249,6.55,1.916,9.487.173.76.941.865,1.745.865.212,0,.434-.008.649-.016h0c.216-.008.438-.016.651-.016.782,0,1.53.1,1.7.826a27.139,27.139,0,0,1,.526,6.261,21.994,21.994,0,0,0,.662,6.46,105.518,105.518,0,0,1-10.9,1.631h0a103.734,103.734,0,0,0-11.181,1.687c.144.5.463,1.438.906,2.74,1.642,4.833,5.06,14.889,8.637,28.979a381.572,381.572,0,0,1,9.54,53.014Zm-139.647-9.82H56.5a59.75,59.75,0,0,1-3.712-9.758,130.481,130.481,0,0,1-3.169-13.261c-.452-2.423-.843-4.868-1.163-7.266-.333-2.5-.59-4.964-.765-7.328a82.212,82.212,0,0,1,.013-13.759c.211-2.19.441-4.544.663-6.82l.011-.111c1.07-10.961,2.176-22.295,2.176-24.828,0-1.271-1.672-1.888-5.111-1.888-4.368,0-10.977.991-17.368,1.949l-.151.023c-3.165.474-6.438.965-9.366,1.325a65.93,65.93,0,0,1-7.659.6,17.671,17.671,0,0,1-2.143-.113,2.938,2.938,0,0,1-1.808-.844,4.45,4.45,0,0,1-1.016-1.9,33.037,33.037,0,0,1-.775-6.658l-.02-.342c-.049-.817.812-1.4,1.723-2.027s1.873-1.279,1.9-2.207c.184-7.3.257-16.041.311-22.426v-.007c.045-5.339.077-9.2.149-9.667.558-4.308,1.493-8.634,2.4-12.817.64-2.959,1.3-6.02,1.823-9.047a72.824,72.824,0,0,0,1.052-9.151,48.978,48.978,0,0,0-.417-6.731c-.276-2.235-.662-4.5-1.035-6.693v0c-.505-2.968-1.027-6.035-1.284-9.061a42.77,42.77,0,0,1-.16-4.549,31.159,31.159,0,0,1,4.3-15.272,37.357,37.357,0,0,1,7.092-8.726,45.843,45.843,0,0,1,9.292-6.56,50.272,50.272,0,0,1,10.487-4.2,61.318,61.318,0,0,1,6.7-1.51c.591-.11,1.2-.224,1.808-.341.711-.139,1.853-.457,3.176-.825h0a37.815,37.815,0,0,1,7.3-1.59,11.907,11.907,0,0,1,1.924-3.436A9.417,9.417,0,0,1,71.124,0a10.986,10.986,0,0,1,2.938.423c.057.016.278.056.614.117,1.123.2,3.752.679,6.044,1.32,2.847.8,4.283,1.589,4.267,2.356-.014.682-2.825,1.424-5.8,2.209C76.1,7.24,72.9,8.083,72.4,8.955c-.618,1.079-.343,3.319-.078,5.484.235,1.919.457,3.732.078,4.707A21.857,21.857,0,0,0,70.982,24.2a3.879,3.879,0,0,0,.212,2.213.435.435,0,0,0,.351.22.458.458,0,0,0,.3-.135,7.049,7.049,0,0,1,.755,3.1V29.6q.013.136.026.27l.133,1.294c.963,9.176,2.416,18.44,3.82,27.4v.006c.861,5.492,1.751,11.172,2.519,16.772.862,6.282,1.476,11.8,1.876,16.861.385,3.764.583,7.6.606,11.724.021,3.675-.1,7.5-.367,11.686-.5,7.78-1.442,15.674-2.356,23.307v0c-.847,7.078-1.724,14.4-2.24,21.61-.331,5.1-.5,10.762-.506,17.321-.008,5.846.1,11.832.215,17.621.176,9.3.358,18.92.034,28.072a10.072,10.072,0,0,1-.354,1.893,5.947,5.947,0,0,1-.818,1.791l-.071.1-.007,0-.284.057c-1.876.378-4.069,1.041-6.392,1.742h0c-2.039.616-4.148,1.253-6.18,1.738A25.175,25.175,0,0,1,56.569,231.685Z" transform="translate(73.893 7.398)" fill="#9fd8e5"/>
      <path id="_Shoes" data-name="ðŸ‘Ÿ Shoes" d="M221.8,89.543h-.418c-1.648-.01-3.4-.072-5.217-.184a151.176,151.176,0,0,1-15.474-1.847l-.948-.16-1-.176c-2.467-.44-5.629-1.046-7.721-1.446h0c-.9-.173-1.552-.3-1.83-.348l-.087-.016h-.036a3.808,3.808,0,0,1-2.577-1.029,4.363,4.363,0,0,1-.845-1.125,6.106,6.106,0,0,1-.538-1.454l-.022-.095-.02-.093a15.953,15.953,0,0,1,.154-5.929c.336-1.877,1.15-12.589,1.158-12.7l-3.059-10.18c-.067-.3-1.654-7.529-3.1-15.141-.864-4.538-1.51-8.319-1.919-11.238-.511-3.649-.653-5.953-.42-6.849l.023-.085a16.055,16.055,0,0,1,2.731-2.039h0a19.283,19.283,0,0,0,3.48-2.642,31.871,31.871,0,0,0-.059-4.968,33.748,33.748,0,0,1-.062-5.142l.031-.08.029-.071.013-.029a3.12,3.12,0,0,1,.791-.9,9.965,9.965,0,0,1,2.052-1.3,17.471,17.471,0,0,1,3.552-1.244,28.58,28.58,0,0,1,5.29-.722c.388-.019.826-.043,1.289-.068h.015C198.9.138,201.436,0,203.869,0a35.257,35.257,0,0,1,5.175.307,12.944,12.944,0,0,1,3.541,1.035,13.484,13.484,0,0,1,2.027,1.183h0a7.057,7.057,0,0,0,.595.381l.2.109.05.032c1.1.692,1.814,1.938,2.754,3.994l.555,1.246.951.257A11.3,11.3,0,0,1,222.3,9.58a10.644,10.644,0,0,1,2.3,1.727,19.709,19.709,0,0,1,3.981,6.205l.075.17.075.174a12.7,12.7,0,0,1,.873,3.069,18.691,18.691,0,0,1,.195,3.508l-.006.189-.011.268a45.5,45.5,0,0,1-.62,5.364l-.3,1.885-.085.549a39.381,39.381,0,0,0-.637,7.318,18.051,18.051,0,0,0,.662,4.606,47.817,47.817,0,0,0,3.63,8.867,72.841,72.841,0,0,0,5.542,8.874c1.446,2,8.1,13.274,8.158,13.507l.116.475.11.46.029.123.007.028.017.073.137.589.085.373c.3,1.332.5,2.414.632,3.307l.018.125c.228,1.672.239,2.738-.357,3.582l-.039.054-.1.129-.118.11-.072.065-.074.063-.22.182-.266.1a67.857,67.857,0,0,1-7.622,2.013A80.713,80.713,0,0,1,221.8,89.543ZM21.782,87.631c-6.189,0-11.972-.217-16.724-.629l-.609-.054-.455-.015a3.07,3.07,0,0,1-2.033-.823,4.7,4.7,0,0,1-1.2-2.028L.737,84,.71,83.908a15.99,15.99,0,0,1-.526-3.851l-.026-.662c0-.132-.009-.268-.013-.429L.1,77.276l-.012-.37c-.008-.233-.017-.419-.027-.586l-.013-.2L0,75.819c-.185-1.207,6.157-10.178,11.752-18.093,4.12-5.829,7.679-10.862,8.119-12.044a41.47,41.47,0,0,0,1.117-6.462c.4-3.14.823-6.975,1.23-10.684.748-6.823,1.455-13.267,1.884-13.775l.029-.034,2.709-3.056.395,4.029,0-.005a2.054,2.054,0,0,0,.141-.4l.013-.06.009-.058,0-.028,0-.028a9.383,9.383,0,0,1,1.474-3.777,9.133,9.133,0,0,1,2.9-2.688A13,13,0,0,1,35.165,7.28,21.37,21.37,0,0,1,39.3,6.661c.609-.036,1.242-.054,1.882-.054A57.389,57.389,0,0,1,54.026,8.349l.409.095.086-.048a3.832,3.832,0,0,1,1.952-.576c.06,0,.12,0,.18,0a3.258,3.258,0,0,1,1.483.442,4.477,4.477,0,0,1,1.269,1.139c.269.344.357,2.267.247,5.413v.01c0,.06,0,.1,0,.117v.2l.02.014a5.423,5.423,0,0,0,2.291.414l.3.016.625.028a13.138,13.138,0,0,1,2.277.239l.067.015a5.419,5.419,0,0,1,1.576.584A3.79,3.79,0,0,1,67.986,17.5a5.484,5.484,0,0,1,.97,2.536,13.047,13.047,0,0,1-.033,3.371c-.056.47-2.062,8.1-4,15.474l0,.008v0c-1.7,6.457-3.3,12.556-3.531,13.592a26.026,26.026,0,0,0-.2,4.766c.028,1.946.124,4.41.285,7.324.278,5.032.672,9.939.753,10.806a26.788,26.788,0,0,1,.061,5.24,7.881,7.881,0,0,1-.664,2.617A3.194,3.194,0,0,1,60.1,84.794l-.074.034-.16.071-.432.1-.273.059a69.669,69.669,0,0,1-9.982,1.239l-3.422.244-.75.056c-1.051.08-1.835.148-2.622.228l-.7.073-.027,0C35.436,87.377,28.565,87.631,21.782,87.631Z" transform="translate(21.083 495.518)" fill="#fff"/>
      <path id="_Ink" data-name="ðŸ– Ink" d="M227.638,584.848c-4.469,0-9.635-.207-15.356-.616-4.8-.343-9.05-.759-11.864-1.034-.958-.094-1.785-.175-2.411-.231-.961-.151-1.966-.237-2.937-.32a34.3,34.3,0,0,1-3.717-.455,10.975,10.975,0,0,1-3.479-1.256,7.548,7.548,0,0,1-2.221-2.269,9.621,9.621,0,0,1-1.2-2.9,16.842,16.842,0,0,1-.14-6.389l.053-.384a11.319,11.319,0,0,1,.634-2.689,4.136,4.136,0,0,1,1.742-2.084c-.274-1.775-.371-3.6-.466-5.364a47.834,47.834,0,0,0-.588-6.089,26.148,26.148,0,0,0-1.358-4.5c-.572-1.459-1.243-2.911-1.892-4.314a54.2,54.2,0,0,1-2.6-6.309,9.235,9.235,0,0,1-1.958-3.879,32.211,32.211,0,0,1-.754-4.451c-.075-.614-.145-1.194-.229-1.768-.441-3.839-.7-6.964-.808-9.835a8.906,8.906,0,0,1,1.212-5.66,6.04,6.04,0,0,1,1.966-1.874,7.506,7.506,0,0,1,2.929-.955,1.526,1.526,0,0,1,.177-1.141,3.7,3.7,0,0,1,.768-.919,21.232,21.232,0,0,1-.837-5.229,9.559,9.559,0,0,1,1.038-4.9,6,6,0,0,1,1.548-1.806,6.965,6.965,0,0,1,2.419-1.182,42.56,42.56,0,0,0,2.356-8.6c.5-2.856.807-5.708,1.125-8.873-.065-.014-.13-.025-.194-.036l-.018,0a2.006,2.006,0,0,1-.767.168c-.983,0-1.751-.921-2.282-2.736a23.178,23.178,0,0,1-.7-4.28c-.468-4.952-.863-10.012-1.206-15.471-.305-4.861-.563-9.93-.787-15.494-.416-10.338-.649-20.855-.875-31.027v-.011c-.193-8.71-.393-17.716-.706-26.566l-.1-2.134c-.106-2.248-.209-4.538-.308-6.752l-.006-.131c-.379-8.46-.771-17.207-1.433-25.792-.356-4.622-.759-8.823-1.232-12.843-.531-4.515-1.136-8.687-1.849-12.756-.733-4.628-1.367-9.369-1.938-14.494-.509-4.565-.956-9.33-1.368-14.567-.764-9.727-1.282-19.636-1.782-29.219v-.007c-.1-1.89-.222-4.242-.341-6.465a26.921,26.921,0,0,0-2.082,4.268c-.35.84-.711,1.708-1.118,2.539-5.872,17.251-11.9,34.763-17.738,51.7-8.392,24.364-17.071,49.557-25.42,74.4-9.586,28.493-18.925,57.6-27.957,85.757l0,.008-1.929,6.012a2.262,2.262,0,0,1-.885,1.226,2.312,2.312,0,0,1-1.3.383,2.661,2.661,0,0,1-1.051-.218,30.919,30.919,0,0,1-9.143,1.7,1.067,1.067,0,0,1-1,.692,1.273,1.273,0,0,1-.138-.008,6.818,6.818,0,0,0-.739-.038,18.268,18.268,0,0,0-2.949.335h-.005c-.539.091-1.049.176-1.546.234-1.093.108-2.194.235-3.259.358H74.63a80.494,80.494,0,0,1-8.074.656,11.423,11.423,0,0,0-1.815,3.484,36.039,36.039,0,0,0-.993,3.867c-.24,1.1-.488,2.24-.817,3.314a13.568,13.568,0,0,0-.424,1.932,14.9,14.9,0,0,1-.679,2.822,2.423,2.423,0,0,1-1.61,1.676,4.892,4.892,0,0,1,.719,1.962,9.2,9.2,0,0,1,.038,2.176,10.4,10.4,0,0,1,2,.744,3.883,3.883,0,0,0,.68.242,1.946,1.946,0,0,1,1.19.679,7.418,7.418,0,0,1,2.869,1.126,6.549,6.549,0,0,1,1.913,2.033,9.33,9.33,0,0,1,1.041,2.563,15.792,15.792,0,0,1,.433,3.06,33.367,33.367,0,0,1-.524,7.039,109.527,109.527,0,0,1-3.555,13.774h0c-.407,1.319-.759,2.459-1.014,3.382a43.175,43.175,0,0,0-2.025,9.552,41.151,41.151,0,0,0,.245,9.759c1.06,1.464,1.085,3.434,1.109,5.339.009.708.017,1.375.077,2.012.034.622.077,1.249.119,1.855.1,1.488.207,3.028.193,4.531a8.461,8.461,0,0,1-.366,2.319,6.228,6.228,0,0,1-.9,1.8,6.352,6.352,0,0,1-1.342,1.345,8.573,8.573,0,0,1-1.7.969,16.864,16.864,0,0,1-4.106,1.1c-1.468.232-2.992.36-4.465.484-1.58.133-3.073.258-4.367.5-3.441.4-7.21.727-11.524,1-4.759.3-9.172.44-13.491.44-2.69,0-5.354-.059-7.916-.174-2.682-.121-5.339-.308-7.9-.556-2.953-.094-4.974-1.051-6.176-2.926a8.634,8.634,0,0,1-1.149-3.1,20.743,20.743,0,0,1-.3-3.887l-.01-.232A17.658,17.658,0,0,1,.653,568.1a8.816,8.816,0,0,1,1.269-2.584,6.663,6.663,0,0,1,2.184-1.922,10.145,10.145,0,0,1,.8-3,22.352,22.352,0,0,1,1.445-2.8c1.4-2.358,3.037-4.672,4.619-6.91v0a87.617,87.617,0,0,0,5.564-8.564,33.6,33.6,0,0,0,2.1-4.6,25.15,25.15,0,0,0,1.269-4.979,51,51,0,0,0,.726-6.893h0a60.375,60.375,0,0,1,1.211-10.058,14.9,14.9,0,0,1,1.6-4.15,8.1,8.1,0,0,1,1.219-1.578,6.287,6.287,0,0,1,1.56-1.141,9.556,9.556,0,0,1,1.291-4.184,10.746,10.746,0,0,1,1.276-1.787,9.148,9.148,0,0,1,1.546-1.4,16.251,16.251,0,0,1,1.917-4.669c.377-.7.767-1.431,1.085-2.143,1.042-2.182,2.059-4.415,3.041-6.574l0-.008c.916-2.011,1.862-4.09,2.826-6.121-.636-.269-2.133-1.043-2.306-2.415h-.028a1.963,1.963,0,0,1-1.464-.6,1.594,1.594,0,0,1-.385-1.266,90.218,90.218,0,0,1,1.669-9.6l.2-.936.092-.436c1.739-8.407,3.755-16.919,6.162-26.022,2.145-8.11,4.553-16.506,7.364-25.668,5.221-17.022,11.072-34.166,16.73-50.745,4.551-13.334,9.256-27.123,13.608-40.77,2.342-7.345,4.4-14.063,6.283-20.538,2.117-7.269,3.967-14.047,5.657-20.721a2.561,2.561,0,0,1-.454.041,3.2,3.2,0,0,1-1.423-.366,6.182,6.182,0,0,1-1.313-.916,15.754,15.754,0,0,1-2.091-2.382,35.753,35.753,0,0,1-4.56-8.337,44.291,44.291,0,0,1-2.455-9.209l-1.782-.221c-2.372-.291-5.17-.62-7.937-.855-2.926-.249-5.532-.369-7.968-.369-.676,0-1.35.009-2,.028l-1.444.048c-.4.012-.73.018-1.024.018a10.483,10.483,0,0,1-3.713-.559c-.078.007-.157.011-.235.011A2.394,2.394,0,0,1,53,258.816a2.049,2.049,0,0,1-.821-1.254,52.691,52.691,0,0,1-.92-7.052,57.662,57.662,0,0,1,0-6.976,67.572,67.572,0,0,1,.778-6.9c.359-2.191.838-4.488,1.425-6.826,2.271-9.052,5.928-17.961,9.464-26.577,1.183-2.881,2.406-5.861,3.541-8.764a133.182,133.182,0,0,0,4.4-14.988.139.139,0,0,1,.141-.107.158.158,0,0,1,.114.046.133.133,0,0,1,.036.1A55.854,55.854,0,0,1,70.065,188c-.58,2.92-1.325,5.831-1.978,8.331-1.363,5.39-3.19,10.845-4.956,16.12a188.13,188.13,0,0,0-5.815,19.736,71.829,71.829,0,0,0-1.49,10.065c-.124,1.729-.171,3.448-.14,5.108a51.04,51.04,0,0,0,.36,5.169,59.34,59.34,0,0,1,12.033-7.344,57.554,57.554,0,0,1,13.409-4.254c.152-.661.315-1.346.458-1.95.388-1.632.788-3.32,1.107-5-.274-2.256-.5-4.557-.713-6.783l0-.034c-.126-1.3-.257-2.647-.4-3.97a296.956,296.956,0,0,0-5.179-32.1c-2.111-6.273-3.65-11.394-4.841-16.119a113.257,113.257,0,0,1-2.992-16.553l-.2.04c-.424.086-.865.192-1.291.294a15.01,15.01,0,0,1-3.407.547,4.834,4.834,0,0,1-2.831-.824c-1.487-1.03-2.125-2.773-2.688-4.311a13.751,13.751,0,0,1-1.075-3.968,7.428,7.428,0,0,1,.488-3.8,5.4,5.4,0,0,1,3.366-2.935,88.1,88.1,0,0,1-.815-9.42c-.1-3.035-.069-6.235.1-9.512a157.677,157.677,0,0,1,2.24-18.845c.489-3.064,1.154-6.166,1.8-9.166v0c.813-3.792,1.654-7.713,2.147-11.6a54.573,54.573,0,0,0,.448-5.85,39.962,39.962,0,0,0-.3-5.91c-.241-1.631-.519-3.3-.788-4.918A102.457,102.457,0,0,1,64.467,54.5a38.652,38.652,0,0,1,.366-6.823,30.5,30.5,0,0,1,.693-3.369,28.035,28.035,0,0,1,1.115-3.329A38.531,38.531,0,0,1,73.693,29.61,42.124,42.124,0,0,1,78.4,25.1a47.636,47.636,0,0,1,5.321-3.775,59.057,59.057,0,0,1,11.972-5.521,76.746,76.746,0,0,1,12.89-3.093l.281-.083.443-.132a15.144,15.144,0,0,1,4.335-.855,7.307,7.307,0,0,1,1.557.164,15.2,15.2,0,0,1,2.091-3.018,9.737,9.737,0,0,1,7.673-3.282,21.711,21.711,0,0,1,4.606.574c1.577.345,3.219.814,4.806,1.269h0c.982.281,2,.571,2.993.831.6-1.772,1.084-3.548,1.475-5.052a6.557,6.557,0,0,0,.181-.962v0A7.7,7.7,0,0,1,139.3.818,1.131,1.131,0,0,1,139.992,0a1.976,1.976,0,0,1,.607,1.211,10.453,10.453,0,0,1,.149,1.555c.009.205.018.4.032.568l.006.064a26.65,26.65,0,0,1-.8,8.734l-.06.237c-.04.157-.079.314-.121.481l0,.009a6.9,6.9,0,0,1-1.679,3.636A2.018,2.018,0,0,1,136.8,17a1.878,1.878,0,0,1-1.277-.488,1.853,1.853,0,0,1-.589-1.354,5.334,5.334,0,0,1,.579-2.307c-2.784,1.074-5.032,1.927-7.073,2.683a17.574,17.574,0,0,0,2.011,9.693,41.93,41.93,0,0,0,6.654,9.549,70.908,70.908,0,0,0,8.831,8.211c1.485,1.166,2.986,2.253,4.461,3.231,1.428.946,2.8,1.77,4.081,2.448a19.044,19.044,0,0,0,9.24,2.577,15.911,15.911,0,0,0,7.258-1.759,19.833,19.833,0,0,0,5.951-4.73,25,25,0,0,0,2.371-3.222,28.061,28.061,0,0,0,1.908-3.655,30.143,30.143,0,0,0,1.4-3.987,30.866,30.866,0,0,0,.844-4.215,42.8,42.8,0,0,0,.57-5.923c.007-.328,0-.677-.009-1.048V22.7c-.033-1.49-.071-3.178.813-4.307l-.172,0a13.023,13.023,0,0,0-2.057.211l-.016,0,.037.064A3.111,3.111,0,0,1,183,21.074a.853.853,0,0,1-.72.448c-2.852-.3-4.24-5.118-4.985-7.706l-.009-.031-.08-.277a26.445,26.445,0,0,1-.557-5.118,16.081,16.081,0,0,1,.152-2.857c.145-.875.388-1.416.722-1.609a14.793,14.793,0,0,1,.343,2.4h0a13.057,13.057,0,0,0,.446,2.774,14.73,14.73,0,0,0,3.383.629h.005c.277.029.5.052.619.073a11.238,11.238,0,0,1,4.153.814,11.44,11.44,0,0,1,3.308,2.111A16.58,16.58,0,0,1,192.4,15.8a28.994,28.994,0,0,1,2.089,3.69,19.227,19.227,0,0,0,3.14,2.089,25.909,25.909,0,0,0,3.406,1.507,67.994,67.994,0,0,0,7.263,2.047h0c2.05.5,4.17,1.011,6.189,1.674a31.3,31.3,0,0,1,2.97,1.133,22.424,22.424,0,0,1,2.816,1.487,23.81,23.81,0,0,1,2.63,2.222,27.792,27.792,0,0,1,2.368,2.633,37.636,37.636,0,0,1,4.018,6.384,59.653,59.653,0,0,1,3.176,7.674c.894,2.63,1.726,5.565,2.472,8.725,2.888,12.228,4.273,26.672,5.611,40.64v0c.879,9.171,1.709,17.832,2.93,25.842.656,4.3,1.363,8,2.161,11.311.432,1.79.9,3.483,1.382,5.032.509,1.625,1.058,3.15,1.631,4.533a3.386,3.386,0,0,1,1.3-.263,3.73,3.73,0,0,1,2.577,1.1,4.5,4.5,0,0,1,.875,1.181,4.353,4.353,0,0,1,.449,1.424,25.835,25.835,0,0,1,.255,4.489c0,.429,0,.873.005,1.3l.011.238c.015.29.033.592.048.859.141,2.392.287,4.865-1.029,6.282a3.429,3.429,0,0,1-1.336.87,6.267,6.267,0,0,1-2.07.342,20.783,20.783,0,0,0,.277,3.215c.15.943.362,1.947.665,3.159.711,3.1,1.345,6.325,1.886,9.587.519,3.133.968,6.393,1.332,9.688.349,3.152.631,6.432.84,9.748.2,3.154.336,6.44.41,9.766l.014.956c.09,6.507-.033,12.186-.367,16.881a62.419,62.419,0,0,1-1.128,8.767,16.566,16.566,0,0,1-.965,3.112,3.934,3.934,0,0,1-1.294,1.749l.183,1.491c.413,3.385.875,7.322,1.124,11.213a6.243,6.243,0,0,1-.131,2.391,5.886,5.886,0,0,1-1.068,2.384,1.919,1.919,0,0,1-1.484.8,1.988,1.988,0,0,1-.845-.2c-1.17.289-2.355.617-3.5.935-1.783.494-3.627,1-5.463,1.382a27.846,27.846,0,0,1-5.577.635c.38,12.629.614,26.439.716,42.221.091,14.076.071,28.389.052,42.231v.018c-.017,11.916-.034,24.238.02,36.354-.154,11.822.011,23.88.171,35.542.12,8.812.245,17.924.231,26.872-.015,10.033-.207,18.791-.586,26.776l.051.417a22.382,22.382,0,0,1,.188,2.389,6.817,6.817,0,0,1-.261,2.1,3.772,3.772,0,0,1-1.055,1.693,5.422,5.422,0,0,1-2.194,1.16,1.315,1.315,0,0,1-.454.94,1.82,1.82,0,0,1-.969.4c-1.99.268-4.055.533-6.314.81-.621.046-1.268.128-1.894.207a24.305,24.305,0,0,1-3.01.256,9.338,9.338,0,0,1-1.112-.062c.037.037.049.07.037.1s-.094.07-.193.07-.2-.027-.224-.087a34.323,34.323,0,0,0-1.874,6.949c-.409,2.386-.653,4.851-.868,7.173a10.675,10.675,0,0,1,2.86,1.606,8.669,8.669,0,0,1,2.019,2.274,8.352,8.352,0,0,1,1.075,2.836,9.923,9.923,0,0,1,.028,3.294,6.448,6.448,0,0,1,3.032.924,9.266,9.266,0,0,1,2.459,2.167,12.655,12.655,0,0,1,1.755,2.9,12.516,12.516,0,0,1,.92,3.125,33.934,33.934,0,0,1,.048,6.663c-.034.583-.07,1.186-.1,1.786a52.609,52.609,0,0,0,.96,14.617,35.4,35.4,0,0,0,2.273,6.92,28.726,28.726,0,0,0,3.817,6.23l.26.308c.887,1.043,1.846,2.087,2.772,3.1l0,0a64.124,64.124,0,0,1,4.766,5.608,24.346,24.346,0,0,1,1.925,3.086,17.747,17.747,0,0,1,1.358,3.406,1.93,1.93,0,0,1,1.047,1.334l1.12,4.4.557,2.2a22.7,22.7,0,0,1,.511,2.43,9.115,9.115,0,0,1,.041,2.472l-.023.161a3.776,3.776,0,0,1-.66,1.766,5.678,5.678,0,0,1-1.5,1.441,15.664,15.664,0,0,1-5.118,2.016,48.774,48.774,0,0,1-7.217,1.047C233.6,584.747,230.758,584.848,227.638,584.848Zm-33.628-6.977c3.7.4,7.685.812,11.731,1.177l1.468.13c7.453.665,13.529.974,19.119.974h0a118.343,118.343,0,0,0,15.85-.987l.483-.066c.215-.031.473-.053.747-.077a5.091,5.091,0,0,0,2.784-.75,2.462,2.462,0,0,0,.351-1.737,12.7,12.7,0,0,0-.423-2.039c-.123-.467-.24-.908-.3-1.286-6.106-.071-12.309-.2-18.309-.317h-.005c-9.237-.186-18.789-.378-28.183-.378-2.7,0-5.333.016-7.818.048h-.017a2.469,2.469,0,0,1-1.907-.8,2.961,2.961,0,0,1-.665-2.3,4,4,0,0,1-.6-.495l-.022.427a21.48,21.48,0,0,0,.086,4.028,5.35,5.35,0,0,0,1.294,3.021,5.606,5.606,0,0,0,4.263,1.427ZM4.625,566.672a16.365,16.365,0,0,0-.606,4.607,29.437,29.437,0,0,0,.438,4.61c.12,1.567.537,2.488,1.353,2.985a6.9,6.9,0,0,0,3.283.582c4.892.451,10.083.68,15.427.68,5.586,0,11.385-.239,17.728-.729,1.968-.212,3.984-.353,5.934-.49a79.266,79.266,0,0,0,11.85-1.431,2.56,2.56,0,0,0,1.115-.907,3.061,3.061,0,0,0,.465-1.282,11.59,11.59,0,0,0-.14-3.088,13.5,13.5,0,0,1-.176-2.17,37.287,37.287,0,0,1-11.461,4.768,54.962,54.962,0,0,1-12.905,1.451,71.328,71.328,0,0,1-22.566-3.747l-.227-.1c-.675-.284-1.372-.54-2.11-.812A27.16,27.16,0,0,1,7.8,569.772,9.59,9.59,0,0,1,6,568.454,6.968,6.968,0,0,1,4.625,566.672ZM26.2,510.189A7.389,7.389,0,0,0,24.92,513.9a36.4,36.4,0,0,0-.294,3.989c-.007.236-.015.459-.023.623-.088,1.807-.124,3.647-.158,5.427v0c-.031,1.6-.062,3.261-.133,4.894a33.013,33.013,0,0,1-.71,7.22,32.881,32.881,0,0,1-2,6.208,73.635,73.635,0,0,1-6.345,11.044l0,0c-1.818,2.784-3.7,5.663-5.411,8.877a2.575,2.575,0,0,0-.494,2.088c.277.826,1.3,1.24,2.383,1.679.28.113.6.242.894.377a56.349,56.349,0,0,0,11.744,3.948,57.93,57.93,0,0,0,12.33,1.33h0a56.951,56.951,0,0,0,9.091-.729,54.544,54.544,0,0,0,8.846-2.2c2.778-.807,4.361-2.089,4.983-4.035a8.563,8.563,0,0,0,.323-2.911c-.033-1.053-.173-2.178-.321-3.369-.076-.614-.155-1.249-.222-1.9a32.955,32.955,0,0,1,.16-5.171,44.857,44.857,0,0,1,.849-5.053c.744-3.338,1.813-6.68,2.846-9.912a89.435,89.435,0,0,0,3.414-12.844l.065-.391a29.588,29.588,0,0,0,.406-4.783c-.023-2.1-.395-3.587-1.106-4.419A2.195,2.195,0,0,0,64.3,513.1a4.11,4.11,0,0,0-1.321.248,1.557,1.557,0,0,1-.82.25,1.415,1.415,0,0,1-1.012-.447,1.832,1.832,0,0,1-.5-1.049,2.787,2.787,0,0,1-.407.037c-.281,1.739-.572,3.507-.854,5.216l-.009.053,0,.023c-.316,1.919-.643,3.9-.957,5.855a8.362,8.362,0,0,1,1.4,1.1.912.912,0,0,1,.161.991.766.766,0,0,1-.708.511l-.066,0a11.611,11.611,0,0,1-1.171-.167,1.9,1.9,0,0,1-.624,1.329,1.834,1.834,0,0,1-1.2.4,2.591,2.591,0,0,1-2.175-1.165,1.654,1.654,0,0,1,.045-1.74,35.757,35.757,0,0,0-11.7-1.886,44.836,44.836,0,0,0-11.3,1.494l-.031.013c-.125.05-.414.127-.781.224-1.066.284-2.85.76-2.893,1.2-.01.1.079.2.264.292.093.011.143.043.141.088-.006.091-.214.207-.44.207-.192,0-.53-.081-.638-.627-.023-.458.292-.879.964-1.29a12.733,12.733,0,0,1,1.986-.894h0a9.172,9.172,0,0,0,1.212-.523,25.018,25.018,0,0,1-1.723-2.868,28.284,28.284,0,0,1-2.371-6.448,25.712,25.712,0,0,1-.557-3.338Zm158.016.7h0a15.54,15.54,0,0,0-1.524.982,45.98,45.98,0,0,0-1.786,9.984,35.8,35.8,0,0,0,.758,10.083l.054.234a33.27,33.27,0,0,0,1.651,5.127c.671,1.662,1.445,3.314,2.193,4.912.986,2.106,2.006,4.284,2.8,6.5a29.5,29.5,0,0,1,1,3.385,22.217,22.217,0,0,1,.524,3.554c.108,1.018.178,2.06.246,3.069h0a33.6,33.6,0,0,0,1.035,7.309,1.859,1.859,0,0,1,1.283,1.068l3.25,0c9.256.016,16.743.071,23.562.175,8.558.13,16.262.34,23.554.64-.466-4.059-3.792-7.691-6.465-10.61l-.007-.008c-.235-.256-.456-.5-.675-.739a36.993,36.993,0,0,1-5.415-7.107,39.617,39.617,0,0,1-3.6-8.124,42.092,42.092,0,0,1-1.761-8.746,43.125,43.125,0,0,1,.1-8.972c.119-.977.307-2.036.505-3.158v0h0c.254-1.435.516-2.918.665-4.391a16.616,16.616,0,0,0-.029-4.252,8.47,8.47,0,0,0-.517-1.892,6.271,6.271,0,0,0-.98-1.639,6.187,6.187,0,0,0-1.54-1.313,8.5,8.5,0,0,0-2.2-.915c-.219,1.8-.471,3.612-.714,5.37-.418,3.023-.85,6.148-1.132,9.237a1.976,1.976,0,0,1,.883.8,1.341,1.341,0,0,1,.16.95,1.072,1.072,0,0,1-.442.648,1.69,1.69,0,0,1-.983.266h-.054a2.722,2.722,0,0,1-.719,1.259,1.4,1.4,0,0,1-.953.392,1.528,1.528,0,0,1-1.133-.547,2.266,2.266,0,0,1-.474-.88,3.088,3.088,0,0,1-.088-1.211c-2.231-.824-4.84-1.751-7.278-2.374a25.4,25.4,0,0,0-6.4-.895,20.226,20.226,0,0,0-5.981.917,33.019,33.019,0,0,0-6.709,3.007.05.05,0,0,1-.044-.031c-.052-.138.409-.686.714-1.049l0,0c.112-.134.2-.239.234-.289a14.178,14.178,0,0,1,2.678-2.239,16.75,16.75,0,0,1,3.13-1.581,20.111,20.111,0,0,1,6.861-1.288,23.354,23.354,0,0,1,5.485.721c1.8.432,3.593,1.017,5.329,1.582h0c.755.246,1.536.5,2.3.737.473-3.378.838-6.827,1.192-10.163.129-1.214.262-2.469.4-3.716l.111-.991a9.152,9.152,0,0,0-.091-3.3,4,4,0,0,0-.661-1.37,4.71,4.71,0,0,0-1.291-1.158,18.558,18.558,0,0,0-2.772-1.215,21.663,21.663,0,0,0-2.9-.773,31.3,31.3,0,0,0-6.041-.526c-2.927,0-5.886.289-8.747.569l-.019,0c-.843.082-1.715.168-2.556.242l-.317.036-.42.044h0a13.6,13.6,0,0,0-2.919.516,3.308,3.308,0,0,0-2.132,1.75,10.893,10.893,0,0,0-.218,5.164c.261,2.028.745,4.17,1.172,6.059v.006c.212.937.412,1.823.548,2.543l.3,1.231A42.025,42.025,0,0,1,189.412,521a.107.107,0,0,1-.03.082.143.143,0,0,1-.1.044c-2.493-2.664-3.694-6.2-4.855-9.627l-.207-.61ZM41.826,502.672a24.307,24.307,0,0,0-4.161.328,13.225,13.225,0,0,0-3.615,1.132,7.763,7.763,0,0,0-2.707,2.16A7.493,7.493,0,0,0,29.9,509.7a15.119,15.119,0,0,0-.009,3.6c.124,1.193.348,2.4.564,3.57a27.607,27.607,0,0,1,.657,5.869,33.956,33.956,0,0,1,12.86-2.423,43.028,43.028,0,0,1,10.758,1.418c.277-1.809.553-3.649.82-5.429l.007-.044c.4-2.648.809-5.385,1.23-8.082l.114-.54a3.06,3.06,0,0,0-.083-2.282,2.176,2.176,0,0,0-1.524-.77l-.432-.1A58.006,58.006,0,0,0,41.826,502.672Zm.764-4.077a51.137,51.137,0,0,1,15.118,2.466,15.938,15.938,0,0,1,1.152-4.54l0-.007c.142-.4.276-.768.4-1.142a77.646,77.646,0,0,1,4.24-9.965l.206-.4c.122-.237.246-.481.365-.717l.006-.013c.458-.906.932-1.842,1.482-2.707-2.428-.332-4.9-.658-7.284-.974l-.023,0c-5-.661-10.167-1.344-15.244-2.113a2.171,2.171,0,0,1-.7,1.8c-.646,2.651-1.489,5.476-2.576,8.638-.972,2.826-2.052,5.677-3.1,8.435-.218.574-.449,1.186-.677,1.788A40.651,40.651,0,0,1,42.59,498.594Zm160.276-6.132a38.826,38.826,0,0,1,9.707,1.1,30.228,30.228,0,0,1,.092-8.059,53.336,53.336,0,0,1,1.761-7.835c-1.832-.042-3.69-.069-5.486-.1h-.006c-4.722-.069-9.6-.141-14.439-.49l-.2.909q-.122.556-.243,1.114a100.985,100.985,0,0,1-2.725,10.632l-.018.079c-.043.211-.1.584-.159,1.015h0a7.155,7.155,0,0,1-.521,2.377c-.092,0-.172-.374-.237-1.112-.218.483-.449.957-.687,1.408l1.329-.159A100.986,100.986,0,0,1,202.866,492.462ZM68.394,483.9c-.28.263-.5.487-.709.707.35-.09.644-.162.9-.222a.735.735,0,0,0-.1-.291A1.131,1.131,0,0,1,68.394,483.9Zm150.057-5.025-.145.341-.009.022-.022.053-.019.044-.021.05a3.1,3.1,0,0,1,.37-.187A1.635,1.635,0,0,1,218.451,478.872ZM49.917,476.408a169.614,169.614,0,0,1,16.944.952c1.646.171,3.342.4,4.982.622h.007a79.746,79.746,0,0,0,10.54.952,29.647,29.647,0,0,0,5.411-.458,21.848,21.848,0,0,0,5.261-1.648c12.914-39.466,23.893-72.238,34.55-103.136,6.112-17.721,12.179-34.982,18.032-51.3,6.282-17.517,12.582-34.691,18.726-51.046a146.306,146.306,0,0,1,5.574-15.128c1.134-2.762,2.307-5.617,3.362-8.457a88.026,88.026,0,0,0,2.763-8.616l.179-.583a10.9,10.9,0,0,0,.494-6.123l-.021-.3a8.983,8.983,0,0,1,.114-2.582,2.791,2.791,0,0,1,.5-1.1,1.813,1.813,0,0,1,1.013-.639,1.053,1.053,0,0,1,.251-.03.815.815,0,0,1,.647.271,2.473,2.473,0,0,1,.507,1.375,7.729,7.729,0,0,1-.086,1.5,6.29,6.29,0,0,0-.037,1.939,19.014,19.014,0,0,1,.1,4.6,24.075,24.075,0,0,1-.885,4.45,35.061,35.061,0,0,1-1.6,4.29c-.553,1.252-1.216,2.6-2.028,4.115a1.433,1.433,0,0,1,.338.81c.155,2.04.2,4.126.249,6.142v0c.029,1.252.059,2.547.114,3.816.4,9.236.986,18.843,1.755,28.553.925,6.834,2.021,13.753,3.08,20.445v.009c1.638,10.35,3.332,21.052,4.436,31.674.562,5.537,1.048,11.2,1.486,17.3.39,5.436.732,11.1,1.047,17.325.584,11.555.979,23.318,1.362,34.692v.006c.294,8.735.6,17.767.984,26.649.434,9.958.93,18.665,1.515,26.616.008,1.171.135,2.377.259,3.544a35.624,35.624,0,0,1,.26,3.663,11.362,11.362,0,0,1-.509,3.583,1.864,1.864,0,0,1,1.029-.3,2.013,2.013,0,0,1,1.34.5c6.426-.445,12.964-.543,19.287-.639h0c5.72-.086,11.635-.175,17.448-.521.009-.4.033-.777.054-1.11v0l0-.026c.007-.115.014-.223.02-.323a2.481,2.481,0,0,1,.049-1.555,4.147,4.147,0,0,0,.161-1.031,54.381,54.381,0,0,1-.737-8.283c-.06-2.8.02-5.679.1-8.46.087-3.13.178-6.366.067-9.488.013-7.424.049-15.465.112-24.585.19-21.014.2-42.383.2-63.047v-.031c.01-29.685.02-60.381.572-90.568.074-2.567.193-5.1.351-7.541a2.246,2.246,0,0,1-.3-1.922,6.148,6.148,0,0,0,.073-.794l.039-.8.015-.288a49.913,49.913,0,0,0,.075-5.75,18.3,18.3,0,0,0-1.23-5.718,2.587,2.587,0,0,1,.395-1.285c-5.8-2.721-11.9-4.96-17.8-7.125l-.021-.008c-1.6-.588-3.259-1.2-4.885-1.8a2.433,2.433,0,0,1-.584.069,2.846,2.846,0,0,1-1.634-.525,2.285,2.285,0,0,1-.947-1.41c-1.381-7.089-2.653-14.341-3.887-22.17-1.1-6.988-2.149-14.275-3.2-22.279-1.2.787-2.465,1.54-3.766,2.237-1.24.665-2.553,1.3-3.9,1.893a70.555,70.555,0,0,1-8.124,2.95c-5.531,1.66-11.34,2.81-16.957,3.923-3.356.665-6.826,1.352-10.177,2.137l-2.75.713a80.047,80.047,0,0,0-10.135,3.178,28.718,28.718,0,0,0-8.917,5.466c-.109,1.585-.028,3.763.066,6.285a90.326,90.326,0,0,1-.071,11.592,24.97,24.97,0,0,1-1,5.275,12.673,12.673,0,0,1-.916,2.18,8.1,8.1,0,0,1-1.262,1.75,6.014,6.014,0,0,1-2.013,1.388,6.853,6.853,0,0,1-2.654.5c-.145,0-.294,0-.442-.011-1.99.608-3.936,1.129-5.785,1.549-2.014.458-3.983.812-5.852,1.053.612,1.161,1.283,2.359,1.993,3.628,1.138,2.032,2.314,4.132,3.371,6.308a38.35,38.35,0,0,1,2.591,6.64,21.885,21.885,0,0,1,.65,3.353,16.184,16.184,0,0,1,.031,3.326,13.614,13.614,0,0,1-.728,3.263,13.917,13.917,0,0,1-1.629,3.163,1.252,1.252,0,0,1-.934.424,3.942,3.942,0,0,1-2.023-.963l-.026-.019-.114-.083c.024,1.237.05,2.493.076,3.709l0,.105c.089,4.228.18,8.6.185,12.912a1.247,1.247,0,0,1-1.182,1.216,1,1,0,0,1-.326-.055,6.428,6.428,0,0,1-3.846-3.842,24.487,24.487,0,0,1-1.379-5.58c-.052-.317-.1-.58-.141-.847l-.329-1.913c-.465-2.7-.945-5.5-1.412-8.252a62.247,62.247,0,0,0,.161,7.5c.111,1.793.225,3.647.221,5.459a27.962,27.962,0,0,1-.477,5.4,3.483,3.483,0,0,1-1.06,1.655,2.284,2.284,0,0,1-1.449.514,3.1,3.1,0,0,1-1.889-.716,4.372,4.372,0,0,1-1.365-1.921l-.032-.088a58.254,58.254,0,0,1-2.41-9.01A80.95,80.95,0,0,1,98.5,266.4l-.023-.362c-.012-.178-.024-.358-.037-.542a16.432,16.432,0,0,1,.179-5.145,11.484,11.484,0,0,1,.844,4.242,22.029,22.029,0,0,0,.3,2.568,94.442,94.442,0,0,0,3.127,13.56l.036.156a14.679,14.679,0,0,0,1.04,2.814c.5,1,.968,1.558,1.315,1.558a.347.347,0,0,0,.249-.112c.321-.321.479-1.318.472-2.961.074-2.533-.083-5.1-.235-7.586v0l0-.028c-.041-.672-.084-1.367-.121-2.051l-.024-.46a55.615,55.615,0,0,1-.023-6.6,27.657,27.657,0,0,1,1.138-6.482,1.21,1.21,0,0,1,.512-.658,1.472,1.472,0,0,1,.79-.234,1.136,1.136,0,0,1,.689.215,1.045,1.045,0,0,1,.392.678c.879,5.114,1.732,10.315,2.557,15.344l.024.146c.159.813.278,1.668.392,2.494.336,2.419.683,4.919,2.077,6.94.019-5.261-.241-10.6-.493-15.76v0c-.03-.617-.065-1.335-.1-2.035l-.057-.183a5.507,5.507,0,0,1-.261-1.249,1.633,1.633,0,0,1,.311-1.172,1.084,1.084,0,0,1,.388-.7,1.117,1.117,0,0,1,.693-.23,1.27,1.27,0,0,1,1.271,1.154c.029.233.052.472.074.7v0q.009.094.018.187c.117.147.235.3.349.443l.005.007a15.375,15.375,0,0,0,1.684,1.919,9.45,9.45,0,0,0,.819-2.573,12.334,12.334,0,0,0,.132-2.808,22.669,22.669,0,0,0-1.393-6.168,97.008,97.008,0,0,0-6.591-13.468c-1.592-2.882-3.1-5.6-4.356-8.256-.678-1.426-1.218-2.69-1.651-3.865a23.406,23.406,0,0,1-1.041-3.591c-.711-2.4-1.331-4.906-1.842-7.443-.486-2.417-.89-4.942-1.2-7.506a124.63,124.63,0,0,1-.84-15.15c0-4.548.208-9.535.623-15.245.37-5.085.868-10.244,1.349-15.233h0c.337-3.5.686-7.111.986-10.654a61.267,61.267,0,0,0-6.236-.342,5.637,5.637,0,0,1-2.333.453c-3.836.159-7.68.465-11.425.908-3.814.452-7.623,1.058-11.321,1.8a51.188,51.188,0,0,0,1.419,8.625c.691,2.838,1.555,5.679,2.39,8.426l.207.682.364,1.268c1.721,6.012,3.063,11,4.224,15.708,1.416,5.74,2.538,10.964,3.428,15.972A144.416,144.416,0,0,1,86.186,240.9a1.535,1.535,0,0,1,.147.068l.021.011c-.046.128-.086.26-.125.387v0c-.041.135-.083.274-.132.409l-.061.157-.356.885c-.187.466-.383.969-.554,1.49a5.313,5.313,0,0,1-.991.231,55,55,0,0,0-.622,8.788,47.1,47.1,0,0,0,.906,8.814,37.773,37.773,0,0,0,2.694,8.345,31.163,31.163,0,0,0,4.743,7.38,36.539,36.539,0,0,1-2.046-5.352,39.8,39.8,0,0,1-1.243-5.72,38.871,38.871,0,0,1-.385-5.837,34.278,34.278,0,0,1,.527-5.7,5.546,5.546,0,0,1,.854,2.667c.063.4.122.774.2,1.1.207,1.094.4,2.208.588,3.286a80.722,80.722,0,0,0,1.854,8.741l.124.394a34.011,34.011,0,0,0,2.663,6.383,16.63,16.63,0,0,0,1.984,2.844,9.726,9.726,0,0,0,2.508,2.077,3.54,3.54,0,0,0,.7.1c.583.05,1.186.1,1.419.705a1.633,1.633,0,0,1-.955,1.959l-.056.016a3.585,3.585,0,0,1-.977.138,3.759,3.759,0,0,1-1.333-.253,5.436,5.436,0,0,1-1.227-.673,11.048,11.048,0,0,1-2.106-2.08l-.072.941a9.432,9.432,0,0,1-1.369,4.957l-.133.562c-.071.3-.151.64-.231.97a245.721,245.721,0,0,1-5.515,26c-1.224,4.444-2.58,8.7-4.031,12.662a125.056,125.056,0,0,1-5.135,12.08l-.892,2.69c-1.067,3.216-2.165,6.516-3.134,9.428-6.676,20.064-13.579,40.811-19.695,61.418-3.292,11.093-6.1,21.258-8.581,31.074-1.345,5.32-2.607,10.6-3.75,15.684-1.2,5.341-2.312,10.658-3.3,15.8A102.424,102.424,0,0,1,49.917,476.408ZM38.9,477.754c-.017.062-.033.127-.048.189a3.031,3.031,0,0,1-.232.69c.119.021.233.044.341.067.145-.294.29-.563.443-.822l-.014,0C39.233,477.838,39.061,477.8,38.9,477.754ZM192.169,39.538a44.217,44.217,0,0,0-1.032,6.655,61.408,61.408,0,0,0-.152,6.757c.128,4.464.64,8.922,1.2,13.476,1.1,7.079,1.893,12.974,2.48,18.55.7,6.7,1.1,12.808,1.207,18.674l.011.67a624.4,624.4,0,0,0,4.58,63.825c1.164,9.83,2.56,20.194,4.267,31.685,1.354,9.113,2.93,19.113,4.96,31.47a62.424,62.424,0,0,1,6.894,1.527c2.131.593,4.322,1.306,6.7,2.18,4.413,1.621,8.8,3.559,13.041,5.433h0c1.473.651,3,1.323,4.507,1.977a37.315,37.315,0,0,0,5.4,1.7c-.63-5.875-1.487-11.83-2.62-18.206-1.009-5.679-2.215-11.562-3.687-17.985-2.735-11.933-6-23.966-9.154-35.6v0c-2.959-10.912-6.019-22.195-8.637-33.373-1.41-6.018-2.583-11.527-3.586-16.841-1.126-5.965-2.011-11.533-2.706-17.024-.4-3.113-.7-6.221-.89-9.238-.2-3.125-.283-6.243-.256-9.267.029-3.125.18-6.238.449-9.253.278-3.111.69-6.206,1.225-9.2a.156.156,0,0,1,.161-.143.22.22,0,0,1,.221.195c.153,3.2.565,6.432.963,9.555v.006c.225,1.765.458,3.59.641,5.39a58.345,58.345,0,0,1,1.375-6.754c.13-.532.278-1.133.414-1.71.2-.662.36-1.419.534-2.221.525-2.424,1.121-5.17,2.859-6.479l.146-.5a.158.158,0,0,1,.157-.124.188.188,0,0,1,.145.068.166.166,0,0,1,.029.147l-.007.03v.005c-.022.093-.043.18-.062.272a.848.848,0,0,1,.612.453c.222.52-.223,1.323-.581,1.969-.118.213-.23.415-.3.579a80.4,80.4,0,0,0-3.214,12.791C220,84,219.529,86.433,218.95,88.78c.574,5.017,1.282,10.2,2.1,15.393.787,4.972,1.7,10.116,2.727,15.29.972,4.919,2.07,10.027,3.265,15.181,1.126,4.859,2.377,9.928,3.717,15.068,3.445-.91,6.941-1.806,10.321-2.673,1.266-.325,2.7-.693,4.1-1.052-1.113-3.633-2.071-7.383-2.929-11.464-.764-3.637-1.431-7.455-2.037-11.675-1.127-7.837-1.87-15.894-2.588-23.687h0c-.472-5.124-.96-10.423-1.553-15.6-.665-5.809-1.394-10.854-2.229-15.421a136.864,136.864,0,0,0-3.581-15.072c-.763-2.525-1.607-5-2.509-7.353-.946-2.469-1.989-4.893-3.1-7.2a16.99,16.99,0,0,0-1.438-2.24,16.81,16.81,0,0,0-1.679-1.891,19.9,19.9,0,0,0-3.948-2.935,53.817,53.817,0,0,0-9.3-3.881c-2.319-.8-4.716-1.634-6.938-2.661a28.309,28.309,0,0,1-3.213-1.723,20.022,20.022,0,0,1-2.9-2.191,99.015,99.015,0,0,1,4.721,11.187,110.6,110.6,0,0,1,3.388,11.672,2.227,2.227,0,0,1-.416,1.929,2.413,2.413,0,0,1-.826.659,2.332,2.332,0,0,1-1.014.239,2.039,2.039,0,0,1-1.773-1.027l-.04-.066a15.58,15.58,0,0,0-3.018-3.688A11.077,11.077,0,0,0,192.169,39.538ZM104.776,155.256c-.219,5.671-.684,11.535-1.133,17.205-.418,5.269-.849,10.717-1.092,16.075-.131,2.885-.2,5.508-.2,8.019-.007,2.821.062,5.426.21,7.966.159,2.73.416,5.382.762,7.883.371,2.678.86,5.292,1.453,7.768a70.2,70.2,0,0,0,2.283,7.623,64.627,64.627,0,0,0,3.252,7.447h.128a30.355,30.355,0,0,0,5.526-.562c1.824-.337,3.663-.793,5.441-1.235h0c1.515-.376,3.081-.765,4.624-1.076l.284-.056.007,0a7.858,7.858,0,0,0,1.242-3.779c.331-9.317.036-18.8-.248-27.972v0c-.171-5.51-.348-11.207-.387-16.812-.044-6.284.093-11.781.419-16.8.517-7.213,1.393-14.533,2.24-21.612h0c.914-7.634,1.859-15.527,2.356-23.308.267-4.189.387-8.011.367-11.686-.023-4.125-.222-7.96-.607-11.724-.4-5.064-1.014-10.579-1.876-16.862-.768-5.6-1.659-11.283-2.52-16.778-1.4-8.96-2.856-18.224-3.82-27.4l-.109-1.057c-.018-.167-.034-.34-.05-.507V36a7.045,7.045,0,0,0-.755-3.095,40.922,40.922,0,0,0-4.956,5.408,38.071,38.071,0,0,0-3.873,6.246,2.245,2.245,0,0,1-1.993,1.187,2.557,2.557,0,0,1-1.69-.65,2.376,2.376,0,0,1-.566-.76,2.462,2.462,0,0,1-.229-1c-.237-2.2-.365-4.377-.381-6.465A55.947,55.947,0,0,1,109.2,30.4l.043-.38a44.573,44.573,0,0,1,1.608-7.9,54.6,54.6,0,0,1,2.891-7.531c-.1-.005-.208-.008-.315-.008a13.752,13.752,0,0,0-4.043.863,21.732,21.732,0,0,1-2.4.669c-.608.118-1.219.232-1.809.342h0a61.289,61.289,0,0,0-6.7,1.51,50.26,50.26,0,0,0-10.488,4.2,45.831,45.831,0,0,0-9.293,6.56A37.359,37.359,0,0,0,71.6,37.446a31.159,31.159,0,0,0-4.3,15.272,42.8,42.8,0,0,0,.16,4.549c.257,3.027.779,6.095,1.284,9.061.373,2.192.759,4.459,1.035,6.7a48.971,48.971,0,0,1,.417,6.731,72.8,72.8,0,0,1-1.052,9.151c-.522,3.027-1.183,6.088-1.823,9.047-.9,4.184-1.839,8.51-2.4,12.817A136.117,136.117,0,0,0,63.4,126.983c-.086,2.777-.071,5.524.044,8.165.12,2.761.353,5.482.691,8.087a81.72,81.72,0,0,1,11.76-2.407,92.858,92.858,0,0,1,11.937-.755c2.576,0,5.232.1,7.9.3,2.573.193,5.223.484,7.876.864-.211-3.112-.335-6.29-.38-9.715-.04-3.052-.015-6.233.076-9.726.169-6.487.546-13.078.911-19.452.184-3.208.373-6.524.534-9.785.134-2.423.293-4.89.446-7.276l0-.03c.253-3.924.514-7.981.674-11.978.179-4.481.208-8.4.088-11.979a.182.182,0,0,1,.052-.136.238.238,0,0,1,.169-.068.173.173,0,0,1,.183.148c.728,3.916,1.264,7.925,1.639,12.255.334,3.857.532,7.882.6,12.306.134,8.216-.2,16.589-.516,24.687h0c-.2,4.948-.4,10.065-.491,15.092-.126,2.688-.023,5.431.077,8.085.1,2.7.206,5.484.069,8.2a5.878,5.878,0,0,1,4.159,3.016,7.686,7.686,0,0,1,.767,2.3,11.461,11.461,0,0,1,.138,2.56,16.314,16.314,0,0,1-1.12,5.038,1.194,1.194,0,0,1-1.32.888,6.385,6.385,0,0,1-.943-.1l-.057-.009a1.385,1.385,0,0,1-1.063.384,7.427,7.427,0,0,1-1.822-.347l-.067-.019A6.777,6.777,0,0,0,104.776,155.256Zm129.5,7.873.47,1.768c.709,2.662,1.437,5.369,2.14,7.986l.008.029,0,.009c2.449,9.113,4.981,18.536,7.238,27.861,1.215,5.02,2.255,9.612,3.18,14.038,1.038,4.967,1.9,9.6,2.65,14.155l.129-2.035c.117-1.85.248-4,.331-6.112.242-4.7.346-9.478.317-14.621-.026-4.609-.16-9.387-.407-14.609-.453-9.571-1.2-18.874-2.062-29.173-1.488.079-3,.187-4.454.291-2.875.206-5.847.418-8.773.418C234.787,163.135,234.529,163.133,234.275,163.13Zm-.192-.712.034.121c.12-.024.242-.046.345-.064l.173-.03Zm15.5-14.32c-.047,0-.1,0-.162,0a2.03,2.03,0,0,1-1.281,1.157l-4.672,1.265c-4.346,1.176-8,2.158-11.691,3.124.62,2.394,1.29,4.948,1.992,7.59a43.75,43.75,0,0,1,9.7-1.575,61.286,61.286,0,0,0,6.935-.865c-.031-1.344-.081-2.7-.13-4.015v-.014c-.058-1.559-.118-3.171-.145-4.755,0-.11,0-.237,0-.37v-.008a2.719,2.719,0,0,0-.162-1.3c-.078-.14-.077-.182-.076-.2s0-.007-.01-.008a.381.381,0,0,1-.063-.015A.874.874,0,0,0,249.585,148.1ZM71.109,157.955l-.146.032c.045.124.089.255.134.4v-.041C71.1,158.213,71.1,158.086,71.109,157.955Zm13.354-15.821c-3.118,0-6.161.144-9.045.429-5.167.7-9.473,1.335-13.7,2.135a4.527,4.527,0,0,0-.6,2.334,11.4,11.4,0,0,0,.342,2.928,10.693,10.693,0,0,0,2.365,4.847,1.1,1.1,0,0,0,.39.062,4.771,4.771,0,0,0,1.27-.263h0c.175-.053.341-.1.478-.133,4.087-.928,8.345-1.706,12.654-2.312a.6.6,0,0,0,.479.244l.061,0,.975-.09c3.877-.355,8.465-.718,13.1-.718,1.562,0,3.086.042,4.528.124l.044.034c2.621.192,5.276.537,7.844.871h.01c1.31.17,2.664.346,3.995.5a12.106,12.106,0,0,0,.828-3.818,5.745,5.745,0,0,0-.764-3.306,4.878,4.878,0,0,0-3.982-2.1A145.706,145.706,0,0,0,84.463,142.134ZM191.6,34.909a11.2,11.2,0,0,1,5.28,1.879c-1.344-4.5-2.989-9.161-4.889-13.851l-.418-1.061a40.466,40.466,0,0,0-2.431-5.28,15.942,15.942,0,0,0-3.628-4.459c-.855-.225-1.71-.384-2.538-.539a19.654,19.654,0,0,1-4.295-1.143,27.284,27.284,0,0,0,1.432,3.845,2.085,2.085,0,0,1,.558-.071,2.11,2.11,0,0,1,1.324.421l.189-.034c.241-.046.5-.1.735-.154l.009,0h0c.254-.055.473-.1.559-.112a7.212,7.212,0,0,1,.99-.072,4.973,4.973,0,0,1,1.875.341,4.228,4.228,0,0,1,1.407.939,6.33,6.33,0,0,1,1.381,2.258,13.6,13.6,0,0,1,.7,2.9,42.905,42.905,0,0,1,.285,6.059V26.8c0,.363,0,.7,0,1.028.042,2.311.091,4.794.165,7.285A4.013,4.013,0,0,1,191.6,34.909ZM123.741,7.459h0a6.073,6.073,0,0,0-1.579.2,5.712,5.712,0,0,0-1.375.574,7.516,7.516,0,0,0-2.223,2.047,15.318,15.318,0,0,0-1.667,2.892c-.421.923-.83,1.976-1.286,3.313a41.6,41.6,0,0,0-2.156,9.348,56.427,56.427,0,0,0-.252,9.69l.224-.3c.193-.258.389-.526.6-.81l.014-.02a34.119,34.119,0,0,1,3.9-4.682c1.725-1.624,3.354-2.413,4.978-2.413a5.025,5.025,0,0,1,.96.093,39.649,39.649,0,0,1,.521-7.814,18.182,18.182,0,0,1-.156-5.042,1.67,1.67,0,0,1,.966-1.556,5.9,5.9,0,0,1,1.916-.4c.362-.037.7-.071,1.018-.134a5.132,5.132,0,0,1,2.841-.92,4.5,4.5,0,0,1,1.632.31c1.243-.166,2.492-.325,3.594-.465.171-.378.308-.749.454-1.142l.033-.089c-2.518-.523-5.048-1.061-7.494-1.582l-.154-.033-2.294-.487a8.993,8.993,0,0,0-3.009-.579ZM35.862,562.852a8.648,8.648,0,0,1-1.057-.042,64.441,64.441,0,0,1-7.172-.6A50.335,50.335,0,0,1,20.6,560.7l-.355-.105c-.976-.273-4.168-1.207-4.257-1.784a.19.19,0,0,1,.108-.187c1.826.162,3.667.378,5.448.586a95.984,95.984,0,0,0,11.137.864c.726,0,1.443-.016,2.13-.049a72.96,72.96,0,0,0,9.5-.768c1.585-.243,3.15-.538,4.653-.877.288-.064.579-.136.836-.2a10.554,10.554,0,0,1,2.545-.418,4.788,4.788,0,0,1,1.065.116c.692.52.963,1.018.808,1.482-.2.591-1.09,1.137-2.65,1.621a34.939,34.939,0,0,1-5.305,1.079A86.681,86.681,0,0,1,35.862,562.852Zm184.12-3.764c-2.207-.007-4.357-.107-6.389-.3a56.474,56.474,0,0,1-6.382-.951,44.317,44.317,0,0,1-6.182-1.763,35.672,35.672,0,0,1-5.787-2.731c-.124-.186-.162-.326-.112-.418s.183-.136.4-.136a13.214,13.214,0,0,1,2.88.7,8.631,8.631,0,0,0,1.3.358A74.033,74.033,0,0,0,211.9,555.9c1.709.13,3.433.2,5.125.2,1.061,0,2.13-.026,3.178-.077,1.455-.051,2.92-.221,4.337-.385h0c.577-.067,1.173-.136,1.761-.2l.073,0,.1,0c.855,0,2.185.358,2.458,1.031.137.338,0,.713-.421,1.114-1.72,1.334-4.035,1.376-6.274,1.418C221.445,559.005,220.7,559.019,219.982,559.087ZM49.613,547.016a2.326,2.326,0,0,1-.362-.029c-2.582-.628-4.931-1.092-7.18-1.418a51.326,51.326,0,0,0-7.313-.56,38.1,38.1,0,0,0-5.551.393,31.591,31.591,0,0,0-5.442,1.295.111.111,0,0,1-.037.006.13.13,0,0,1-.118-.109.109.109,0,0,1,.06-.129,41.4,41.4,0,0,1,6.293-2.55,34.343,34.343,0,0,1,6.644-1.369,26.272,26.272,0,0,1,3.8-.214,37.442,37.442,0,0,1,6.188.466,13.411,13.411,0,0,1,2.636.7,3.716,3.716,0,0,1,1.65,1.118,1.54,1.54,0,0,1,.21,1.454A1.5,1.5,0,0,1,49.613,547.016Zm148.913-3.941a1.283,1.283,0,0,1-1.059-.611.258.258,0,0,1,.09-.35,31.353,31.353,0,0,1,6.241-2.45,34.934,34.934,0,0,1,6.606-1.137c.867-.066,1.785-.1,2.729-.1,1.19,0,2.447.051,3.843.156l.711.056a13.7,13.7,0,0,1,2.931.452l.175.056a5.308,5.308,0,0,1,1.6.949,2.449,2.449,0,0,1,1,1.486c.029.417-.222.756-.745,1.009a5.57,5.57,0,0,1-1.741.273,11.836,11.836,0,0,1-3.3-.631l-.007,0c-.375-.109-.763-.221-1.156-.322a32.636,32.636,0,0,0-7.509-.843,44.582,44.582,0,0,0-10.535,1.351l.828.266a.046.046,0,0,1,.027-.009.063.063,0,0,1,.055.043.049.049,0,0,1-.013.057A1.163,1.163,0,0,1,198.526,543.076ZM52.267,540.13a10.59,10.59,0,0,1-3.647-.951c-.6-.233-1.167-.453-1.71-.607a40.291,40.291,0,0,0-10.641-1.4,42.945,42.945,0,0,0-7.837.725.065.065,0,0,1-.014.055c-.075.093-.412.1-.71.111a2.091,2.091,0,0,0-.462.041h-.012a3.208,3.208,0,0,0-.459.082l-.056.012-.1.021a4.335,4.335,0,0,1-.784.116c-.148,0-.235-.028-.264-.085s0-.135.077-.242A36.816,36.816,0,0,1,40.6,535.156a56.6,56.6,0,0,1,6.693.414l.512.062c.2.024.409.046.627.07h0a16.893,16.893,0,0,1,3.271.576,4.382,4.382,0,0,1,2.546,1.826,1.133,1.133,0,0,1,.109.982,1.4,1.4,0,0,1-.839.832A3.6,3.6,0,0,1,52.267,540.13Zm168.041-2.286a9.432,9.432,0,0,1-4.085-1.347c-.6-.3-1.216-.614-1.823-.85a35.036,35.036,0,0,0-5.956-1.654,34.121,34.121,0,0,0-6.173-.57,30.85,30.85,0,0,0-7.966,1.023c-.039.23-.085.5-.134.773a.1.1,0,0,1,.058-.019.117.117,0,0,1,.1.076.112.112,0,0,1-.022.125.86.86,0,0,1-.489.168.689.689,0,0,1-.674-.585c-.088-.483.244-1.16,1.443-1.611a27.7,27.7,0,0,1,6.021-2.1,28.966,28.966,0,0,1,12.89.051l.262.075c.263.074.539.148.831.227l.024.006a25.222,25.222,0,0,1,4.425,1.5,5.358,5.358,0,0,1,3.019,2.94,1.37,1.37,0,0,1-.159,1.1,1.229,1.229,0,0,1-.8.608A4.258,4.258,0,0,1,220.307,537.844ZM57.087,533.953a10.02,10.02,0,0,1-3.442-1.044,11.551,11.551,0,0,0-2.492-.871,40.607,40.607,0,0,0-11.693-1.67,47.3,47.3,0,0,0-10.448,1.194l-.248.057.175,1.248c.017.06.018.1,0,.125a.053.053,0,0,1-.045.019c-.165,0-.636-.432-.827-.875a.643.643,0,0,1,.054-.72A25.5,25.5,0,0,1,34.25,529.3a48.119,48.119,0,0,1,6.457-.921c.822-.055,1.664-.082,2.5-.082A43.962,43.962,0,0,1,54.77,529.91l.858.237a8.023,8.023,0,0,1,1.923.75,2.761,2.761,0,0,1,.746.628,1.76,1.76,0,0,1,.377.871,1.185,1.185,0,0,1-.5,1.238A1.752,1.752,0,0,1,57.087,533.953Zm132-3.053a.432.432,0,0,1-.407-.23,1.084,1.084,0,0,1,.128-1.008,2.841,2.841,0,0,1,1.394-.879c.114-.044.222-.086.327-.131a34.762,34.762,0,0,1,4.184-1.5,42.6,42.6,0,0,1,4.331-1.006,42.171,42.171,0,0,1,7.47-.655c1.347,0,2.719.062,4.078.184l.453.042c.153.013.332.028.522.043h.012a29.525,29.525,0,0,1,4.109.541,9.166,9.166,0,0,1,2.015.672,3.05,3.05,0,0,1,1.319,1.1,2.1,2.1,0,0,1-.017,2.012,1.094,1.094,0,0,1-1.045.6,1.478,1.478,0,0,1-.657-.152,19.135,19.135,0,0,0-5.931-1.59,55.474,55.474,0,0,0-7.62-.53A52.83,52.83,0,0,0,189.7,530.3a.251.251,0,0,1,.015.244.678.678,0,0,1-.478.339A.824.824,0,0,1,189.09,530.9ZM40.921,519.8a7.632,7.632,0,0,1-2.839-.531,7.152,7.152,0,0,1-2.231-1.411,7.266,7.266,0,0,1-1.526-2.02,7.01,7.01,0,0,1-.727-2.356,6.3,6.3,0,0,1,.112-2.2,5.827,5.827,0,0,1,.918-2.047,6.434,6.434,0,0,1,1.8-1.694,9.04,9.04,0,0,1,2.744-1.139,4.016,4.016,0,0,1,1.306-.742,4.6,4.6,0,0,1,3.08.033,4,4,0,0,1,1.373.852,2.983,2.983,0,0,1,1.741,1.173,3.4,3.4,0,0,1,.7,1.917,5.962,5.962,0,0,1,.774,2.925,7.2,7.2,0,0,1-.623,2.944,7.61,7.61,0,0,1-1.885,2.6,6.447,6.447,0,0,1-2.82,1.485A9.2,9.2,0,0,1,40.921,519.8Zm159.787-6.091a6.147,6.147,0,0,1-2.443-.5,6.432,6.432,0,0,1-1.97-1.334,7.2,7.2,0,0,1-2.07-4.181,6.453,6.453,0,0,1,.1-2.233,5.971,5.971,0,0,1,.923-2.106,6.658,6.658,0,0,1,1.845-1.769,9.572,9.572,0,0,1,2.864-1.221,8.256,8.256,0,0,1,1.449-.133,6.615,6.615,0,0,1,2.17.352,5.859,5.859,0,0,1,1.748.962,6.034,6.034,0,0,1,1.291,1.431,6.57,6.57,0,0,1,.8,1.759,7.053,7.053,0,0,1-.15,4.346,7.4,7.4,0,0,1-3.093,3.746A7.707,7.707,0,0,1,200.707,513.706ZM105.254,380.628a.806.806,0,0,1-.7-.512.956.956,0,0,1,.107-1.027,23.323,23.323,0,0,1,4.165-3.805,34.8,34.8,0,0,1,4.849-2.88l.2-.1a34.117,34.117,0,0,1,10.884-3.331.216.216,0,0,1,.036,0,.176.176,0,0,1,.176.151.163.163,0,0,1-.119.185,40.7,40.7,0,0,0-5.093,2.1c-1.546.757-3.111,1.627-4.784,2.659-3.108,1.916-6.126,4.115-9.044,6.242l0,0-.216.157A.774.774,0,0,1,105.254,380.628Zm99.854-3.244a1.278,1.278,0,0,1-.561-.137,18.336,18.336,0,0,1-3.647-2.4,28.087,28.087,0,0,1-3.134-3.077,29.478,29.478,0,0,1-2.6-3.46c-.705-1.09-1.392-2.28-2.161-3.746a.135.135,0,0,1,0-.136.145.145,0,0,1,.121-.067.138.138,0,0,1,.115.063,33.543,33.543,0,0,0,5.775,6.078,54.134,54.134,0,0,0,4.856,3.519l0,0c.6.4,1.215.813,1.821,1.232a1.232,1.232,0,0,1,.486.621,1.115,1.115,0,0,1,0,.685,1.214,1.214,0,0,1-.4.582A1.084,1.084,0,0,1,205.108,377.384ZM101.63,353.926a1.667,1.667,0,0,1-1.379-.751,1.623,1.623,0,0,1-.262-.781,1.988,1.988,0,0,1,.18-.949c1.294-2.923,2.571-5.572,3.9-8.1,1.461-2.769,2.943-5.306,4.53-7.754l1.056-1.568c5.466-8.1,11.426-16.729,17.973-24.912a156.951,156.951,0,0,1,21.125-22.124c-1.909,3.209-4.22,6.723-7.066,10.743-2.539,3.587-5.269,7.25-7.909,10.793l-.007.009v0c-4.514,6.058-9.182,12.322-13.165,18.552-1.94,2.881-3.848,5.849-5.694,8.719v0c-3.726,5.8-7.579,11.787-11.868,17.338A1.758,1.758,0,0,1,101.63,353.926ZM203.676,314.82a1.078,1.078,0,0,1-.833-.427,69.3,69.3,0,0,1-7.327-10.874c-1.836-3.31-3.658-7.071-5.733-11.838-.854-1.844-1.652-3.754-2.438-5.838-.7-1.856-1.376-3.81-2.065-5.972-1.279-4.014-2.41-8.15-3.5-12.151v-.005l-.249-.909a.165.165,0,0,1,.021-.153.2.2,0,0,1,.157-.075.175.175,0,0,1,.164.105l.009.024c1.053,2.889,2.227,5.793,3.589,8.877,1.214,2.748,2.549,5.577,4.083,8.647,2.851,5.706,5.969,11.4,8.985,16.9v0c2.095,3.823,4.26,7.775,6.314,11.692a1.419,1.419,0,0,1-1.173,1.993Z" transform="translate(20.424 1.185)"/>
    </g>
    <g id="Head" transform="translate(95.946 42.662)">
      <g id="HEAD-2" data-name="HEAD">
        <path id="_Skin-2" data-name="âœ‹ Skin" d="M93.824,41.489c-.9-14.742-5.682-31.457-19.76-38.695C43.028-9.662,2.223,21.707.062,53.754-.691,64.724,5.4,76.711,16.529,79.76c2.474,3.279,6.216,5.281,9.91,7.019C70.43,109.6,98.847,91.05,93.824,41.489Z" transform="translate(8.532 22.516)" fill="#d08b5b"/>
        <path id="_Ink-2" data-name="ðŸ– Ink" d="M132.521,47.288q-2.332-6.477-4.925-12.855A132.67,132.67,0,0,0,122.3,22.124C109.825-1.42,87.131-1.42,75.4,1.656,69.316-.965,57.922-.226,51.587,2.14,41.332,5.969,28.832,21.033,24.557,27.8,15.121,42.744,9.232,62.633,15.5,79.9a38.9,38.9,0,0,0,3.041,6.361A24.81,24.81,0,0,1,16,89.153a88.623,88.623,0,0,0-8.041,8.6,42.754,42.754,0,0,0-5.9,10.077c-2.8,6.886-2.94,14.682.768,21.252,3.226,5.717,8.942,9.974,15.381,10.38.331.046.662.088.994.122a18.616,18.616,0,0,0,3.081,3.828c3.638,3.46,12.309,5.236,17.255,5.349.254.2.51.408.765.609a55.261,55.261,0,0,0,9.676,6.48c2.353,1.15,5.439,2.109,7.894,1.28a4.285,4.285,0,0,0,4.045-.021,10.7,10.7,0,0,0,4.19-4.645c2.178-4.477,1.654-9.376,1.095-14.159-.616-5.283-1.209-10.568-1.811-15.851a65.437,65.437,0,0,0-2.221-12.31,28.287,28.287,0,0,0-2.6-5.906.97.97,0,0,0-.021-.46,5.63,5.63,0,0,0-1.986-2.581c-.114-.1-.228-.206-.339-.313a10.671,10.671,0,0,0-1.417-1.365c-.194-.2-.386-.4-.578-.595A48.214,48.214,0,0,1,51.8,93.611c-1.3-1.825-2.472-3.731-3.588-5.672-1.135-1.974-1.886-4.152-3.019-6.112a.311.311,0,0,0-.481-.062,1.542,1.542,0,0,0-.533,1.19L44,82.981a1.192,1.192,0,0,0-1.457-1.022,5.774,5.774,0,0,1-3.223-.111c.182-1.211.351-2.425.517-3.64.3-2.237.585-4.482.827-6.726a9.76,9.76,0,0,1,1.735.6,8.361,8.361,0,0,1,2.23,1.451c.645.593,1.09,1.391,1.877,1.8A1.194,1.194,0,0,0,48.236,74c-.538-2.069-3.583-3.254-5.467-3.645a8.718,8.718,0,0,0-1.969-.178q.224-2.162.391-4.325.078-1.024.145-2.05a10.77,10.77,0,0,1,4.557-.367c.5.4,1,.8,1.491,1.2,1.543,1.275,3.078,2.557,4.6,3.863.137.116.273.232.41.351a1.131,1.131,0,0,0,1.872-1.09c-1.237-8.992,4.271-16.145,10.719-21.686,7.138-6.136,20.116-6.851,28.6-17.479,3.91.8,12.639,3.159,16.241,8.9,5.043,8.044,4.384,15.252,4.768,24.376s1.36,18.657-.713,27.661c-1.912,8.3-7.091,15.4-15.125,18.657-.2.081-.4.159-.6.235A24.316,24.316,0,0,1,85.1,109.6c-4.837-.915-8.875-3.129-12.9-5.852-.232-.154-.571.164-.4.4,5.3,7.03,15.722,9.378,23.986,7.523q.579-.132,1.152-.287a21.739,21.739,0,0,0,.931,16.328,21.982,21.982,0,0,0,6.347,7.935c2.965,2.342,6.643,4.233,8.7,7.52,1.884,3.012,1.325,6.4-1.9,8.137a1.6,1.6,0,0,0-.32,2.491c.308.237.616.479.931.716a37.147,37.147,0,0,0,7.569,4.017c7.133.846,11.93-4.392,15-10.571,3.609-7.253,2.671-16.091-1.306-23-3.19-5.541-9.472-11-6.975-18.015a20.266,20.266,0,0,1,4.484-6.57c2.019-2.2,4.19-4.254,6.126-6.53a23.239,23.239,0,0,0,4.583-7.551c1.391-4.143.7-8.622-.346-12.758C138.527,64.658,135.619,55.9,132.521,47.288Z" transform="translate(-20.144 7.547)"/>
      </g>
      <g id="FACE" transform="translate(37.761 44.084)">
        <path id="teeth" d="M3.487.795c2.594-1.559,12.289-.416,19.9,0,6.048.33,10.367-.324,11.75.6,3.124,2.1,1.606,12.243-3.776,13.631s-25.334,3.325-28.775,0S-1.167,3.591,3.487.795Z" transform="translate(15.322 46.086)" fill="#fff"/>
        <path id="_Ink-3" data-name="ðŸ– Ink" d="M22.54,48.824c-.463,0-.967,0-1.54-.01l-.656-.009c-.347,0-.724-.007-1.185-.007l-1.072,0h-.025l-1.128,0a31.3,31.3,0,0,1-8.95-.94A12.422,12.422,0,0,1,6,47.07a9.589,9.589,0,0,1-1.755-1.145,8.584,8.584,0,0,1-1.466-1.56,9.4,9.4,0,0,1-1.116-2.039,10.009,10.009,0,0,1-.581-2.093A10.345,10.345,0,0,1,2.06,33.9a8.235,8.235,0,0,1,1.485-2.046,9.459,9.459,0,0,1,1.976-1.516,12.576,12.576,0,0,1,4.774-1.545,16.159,16.159,0,0,1,1.934-.113,36.015,36.015,0,0,1,6.946.914c1.021.2,2.077.412,3.117.576a56.258,56.258,0,0,0,6.332.67c.449.02.9.03,1.284.038a1.117,1.117,0,0,1,.707-.928,5.513,5.513,0,0,1,2.449-.579c.086,0,.175,0,.265.005a20.122,20.122,0,0,1,2.813.3,10.268,10.268,0,0,1,2.472.77,7.526,7.526,0,0,1,2.133,1.45,6.556,6.556,0,0,1,1.545,2.377A7.385,7.385,0,0,1,42.747,37a8.987,8.987,0,0,1-.491,2.767,9.618,9.618,0,0,1-1.3,2.518,13.41,13.41,0,0,1-1.728,1.967,13.6,13.6,0,0,1-1.985,1.532,15.414,15.414,0,0,1-2.2,1.151,18.96,18.96,0,0,1-2.36.823,27.991,27.991,0,0,1-5.026.873C26.18,48.762,24.551,48.824,22.54,48.824Zm7.976-9.505-.058,0c-2.88.111-5.893.194-8.956.248.086.738.18,1.527.285,2.295.076.56.161,1.149.261,1.8.012.081.035.176.059.277a1.828,1.828,0,0,1,.081.622l-.015.1a.906.906,0,0,1,.4.342,1.351,1.351,0,0,1,.087.165v0c.279,0,.539,0,.794,0a37.182,37.182,0,0,0,6.384-.451l0-.051a.988.988,0,0,1,.335-.643A15.862,15.862,0,0,0,30.346,42c.012-.3.025-.606.045-.9.028-.409.057-.825.086-1.227v-.006Q30.5,39.591,30.516,39.319ZM10.7,44.814h0l.056.009c.079.013.16.026.241.038a39.591,39.591,0,0,0,5.448.3c.521,0,1.051,0,1.562-.007h0c.466,0,.947-.007,1.419-.007a11.562,11.562,0,0,1-.107-1.928c0-.241,0-.468-.006-.675l0-.114c-.043-.93-.073-1.878-.09-2.818-1.492.025-3.094.049-4.7.049-.616,0-1.191,0-1.756-.01l-.977-.015c.066.353.135.712.2,1.058h0c.142.738.289,1.5.415,2.256a1.492,1.492,0,0,1-.332,1.252,1.785,1.785,0,0,1-1.328.614ZM4.609,39.407h0a6.517,6.517,0,0,0,.437,1.659,5.4,5.4,0,0,0,2.135,2.5A8.94,8.94,0,0,0,10.3,44.742a1.164,1.164,0,0,1-.771-1,30.212,30.212,0,0,1-.268-4.132c-1.41-.013-3.049-.041-4.65-.2Zm31.338-.3c-.26,0-.538,0-.809.014-.885.04-1.785.076-2.656.111l-.393.016.031.443v.009c.037.532.075,1.083.114,1.624.018.241.031.49.044.731a14.967,14.967,0,0,0,.2,2,12.4,12.4,0,0,0,2.877-1.391,9.929,9.929,0,0,0,2.374-2.208,6.936,6.936,0,0,0,.883-1.523,9.766,9.766,0,0,1-2.191.177h-.474ZM9.827,32.417h0a8.522,8.522,0,0,0-2.6,1.05A5.533,5.533,0,0,0,5.31,35.451a5.915,5.915,0,0,0-.6,1.609,6.79,6.79,0,0,0-.15,1.734c1.567-.182,3.187-.251,4.711-.306.006-.311.013-.589.021-.847l.024-.723q0-.14.009-.284a15.949,15.949,0,0,1,.506-4.216Zm3.339-.339h0c-.473,0-.935.015-1.374.045-.327.022-.659.058-.987.106a15.6,15.6,0,0,1,.409,3.076c.034.511.067.993.121,1.456.058.5.135,1.03.235,1.633l.39-.018c1.855-.1,3.741-.172,5.565-.242l1.682-.065c0-.5,0-.945.01-1.359l.009-.453c.008-.339.007-.683.007-1.047a18.614,18.614,0,0,1,.118-2.626l-.81-.091-.2-.022a46.133,46.133,0,0,0-5.178-.393Zm7.6.649h0c.04.324.067.655.094.975v0c.013.162.027.33.043.493.086.923.187,1.882.309,2.93l.1.854c2.661-.12,5.492-.257,8.908-.43l.419-.022.117-1.64c.076-1.036.163-2.15.292-3.276l-.093-.034a1.513,1.513,0,0,1-.312-.177,45.864,45.864,0,0,1-7.106.463h-.031c-.813,0-1.684-.044-2.741-.137Zm10.9.081c.092,1.1.157,2.222.219,3.307.025.44.051.895.079,1.341l1.957-.1L34.9,37.3c.352-.02.728-.064,1.125-.11a15.634,15.634,0,0,1,1.778-.139,4.542,4.542,0,0,1,1.248.15A3.243,3.243,0,0,0,37.8,34.19a4.872,4.872,0,0,0-1.88-.826,14.441,14.441,0,0,0-2.033-.255,13.1,13.1,0,0,1-2.213-.3Zm-4.054-5.662a3.813,3.813,0,0,1-2.848-1,1.7,1.7,0,0,1-.481-.971,1.927,1.927,0,0,1,.145-1.011,2.114,2.114,0,0,1,.653-.848,1.613,1.613,0,0,1,.977-.345,1.639,1.639,0,0,1,.928.3,2.31,2.31,0,0,0,1.293.3,9.447,9.447,0,0,0,2.522-.435l.063-.018a4.035,4.035,0,0,0,1.125-.539,2.667,2.667,0,0,0,.864-.921,1.505,1.505,0,0,0,.1-1.218A1.929,1.929,0,0,0,31.629,19.3a6.482,6.482,0,0,0-1.826-.29c-.11,0-.223-.006-.336-.006a19.719,19.719,0,0,0-2.629.236c-.566.077-1.151.156-1.731.2h-.019a.217.217,0,0,1-.211-.173.247.247,0,0,1,.106-.283,13.052,13.052,0,0,1,2.8-1.136,12.6,12.6,0,0,1,3.388-.519,5.334,5.334,0,0,1,3.022.767,3.507,3.507,0,0,1,1.484,2.754,4.632,4.632,0,0,1-.973,3.217A6.676,6.676,0,0,1,32,26.144l-.079.033a14.7,14.7,0,0,1-2.009.66A9.657,9.657,0,0,1,27.617,27.146Zm13.551-7.779a1.013,1.013,0,0,1-.1-.005l-.166-.015a1.5,1.5,0,0,1-.247-.04,1.642,1.642,0,0,1-.823-.561,1.373,1.373,0,0,1-.319-.936l.012-.2a6.278,6.278,0,0,0-.258-2.471,2.43,2.43,0,0,0-.642-.963,2.475,2.475,0,0,0-1.175-.56A2.242,2.242,0,0,0,37,13.573a1.947,1.947,0,0,0-1.62.9,3.5,3.5,0,0,0-.58,1.913.368.368,0,0,1-.362.356.332.332,0,0,1-.174-.049,2.415,2.415,0,0,1-1.113-1.542,3.417,3.417,0,0,1,.149-1.937,3.939,3.939,0,0,1,1.465-1.9,4.382,4.382,0,0,1,2.291-.751c.082,0,.164-.006.245-.006a5.094,5.094,0,0,1,4.066,2.07A6.665,6.665,0,0,1,42.6,15.283a6.382,6.382,0,0,1-.034,2.94,1.6,1.6,0,0,1-.519.789A1.382,1.382,0,0,1,41.168,19.368ZM5.1,18.664a.5.5,0,0,1-.216-.053,1.647,1.647,0,0,1-.745-.709,2.424,2.424,0,0,1-.268-1,4.718,4.718,0,0,1,.379-2.069A6.506,6.506,0,0,1,5.628,12.8,5.4,5.4,0,0,1,7.7,11.491,5.631,5.631,0,0,1,9.485,11.2a6.212,6.212,0,0,1,3.244.943A6.652,6.652,0,0,1,15.08,14.6,1.09,1.09,0,0,1,15.99,15.7a3.037,3.037,0,0,1-.822,1.979,1.607,1.607,0,0,1-1.2.52,1.92,1.92,0,0,1-1.075-.337,1.722,1.722,0,0,1-.685-.913l-.016-.055a3,3,0,0,0-1.07-1.577,2.938,2.938,0,0,0-1.775-.62,2.7,2.7,0,0,0-2.1,1,6.646,6.646,0,0,0-.727,1.209A5.161,5.161,0,0,1,5.4,18.545.445.445,0,0,1,5.1,18.664ZM.209,13.433a.15.15,0,0,1-.146-.141,11.509,11.509,0,0,1,.052-2.815,14.147,14.147,0,0,1,.7-2.837A14.508,14.508,0,0,1,2.066,5a12.234,12.234,0,0,1,1.716-2.23A9.866,9.866,0,0,1,6.6.86,8.594,8.594,0,0,1,10.112,0a4.114,4.114,0,0,1,2.2.562,3.628,3.628,0,0,1,1.485,1.917,1.605,1.605,0,0,1-.162,1.308,1.635,1.635,0,0,1-1.053.828,4.054,4.054,0,0,1-.8.075,9.341,9.341,0,0,1-1.472-.156h0a9.377,9.377,0,0,0-1.484-.156c-.121,0-.24,0-.354.014A6.162,6.162,0,0,0,5.2,5.573a8.021,8.021,0,0,0-1.89,2.159A24.072,24.072,0,0,0,2,10.286,19.674,19.674,0,0,1,.333,13.364.15.15,0,0,1,.209,13.433Zm43.731-2.8a2.194,2.194,0,0,1-.61-.086c-1.5-.434-1.9-1.486-2.352-2.7-.088-.234-.178-.476-.279-.719a6.153,6.153,0,0,0-1.964-2.5A9.145,9.145,0,0,0,33.4,3.009a8.481,8.481,0,0,0-2.4.324.138.138,0,0,1-.039.006.189.189,0,0,1-.162-.106.133.133,0,0,1,.012-.145c.114-.147.215-.287.314-.423a4.994,4.994,0,0,1,1.024-1.136A7.256,7.256,0,0,1,36.591.035a8.309,8.309,0,0,1,2.47.379,9.241,9.241,0,0,1,2.23,1.041,9.485,9.485,0,0,1,1.885,1.583,10.423,10.423,0,0,1,1.342,1.8,5.7,5.7,0,0,1,.31.715,7.242,7.242,0,0,0,.322.754,2.447,2.447,0,0,1,1.224,1.735,1.955,1.955,0,0,1-.071.878,2.135,2.135,0,0,1-.5.83l-.049.05-.146.145A2.385,2.385,0,0,1,43.94,10.63Z" transform="translate(11.875 15.406)"/>
      </g>
      <g id="ACCESORIES" transform="translate(11.162 57.119)">
        <path id="_Ink-4" data-name="ðŸ– Ink" d="M50.916,28.484h0a14.089,14.089,0,0,1-2.875-.3,14.676,14.676,0,0,1-5.3-2.268,14.275,14.275,0,0,1-2.215-1.881,13.357,13.357,0,0,1-2.828-4.42,13.608,13.608,0,0,1-.89-5.574,1.969,1.969,0,0,1-1.326-.721,3.846,3.846,0,0,1-.536-1.232c-.35-1.141-.746-2.433-3.4-2.873a5.158,5.158,0,0,1-2.208-1.466A60.77,60.77,0,0,0,22.9,7.388a46.793,46.793,0,0,0-7.332.559A40.3,40.3,0,0,0,8.321,9.8c-.421.176-.868.339-1.3.5a15.411,15.411,0,0,0-2.2.93,3.2,3.2,0,0,0-1.445,1.42,3.568,3.568,0,0,0,.179,2.813A1.417,1.417,0,0,1,2.164,16.8a1.193,1.193,0,0,1-.868-.373s0,0,0,0v0A9.76,9.76,0,0,1,.045,13.006a4.435,4.435,0,0,1,.368-2.55c.69-1.415,2.24-2.5,4.741-3.315a47.685,47.685,0,0,1,7.063-1.482l.444-.07a47.739,47.739,0,0,1,10.02-1.046c.349,0,.7,0,1.055.011.43.018.884.025,1.365.032h0a15.97,15.97,0,0,1,4.138.4l.018,0a3.181,3.181,0,0,1,1.828-1.561,18.374,18.374,0,0,1,3.9-1.185,47.108,47.108,0,0,1,5.323-.753c1.964-.175,4.013-.264,6.089-.264a65.092,65.092,0,0,1,6.652.327,40.137,40.137,0,0,1,5.968,1.028,15.887,15.887,0,0,1,4.473,1.8,4.526,4.526,0,0,1,2.165,2.641c.121,0,.243,0,.362,0,.742,0,1.449.058,2.018.1l.079.006c.615.05,1.195.1,1.776.1a7.059,7.059,0,0,0,2.291-.343,4.51,4.51,0,0,1,1.97-3.006,15,15,0,0,1,4.4-2.151A33.809,33.809,0,0,1,84.25.432,42,42,0,0,1,90.14,0a24.326,24.326,0,0,1,5.141.472A9.334,9.334,0,0,1,96.7.718a1.769,1.769,0,0,1,.541.193c.188.027.386.058.587.092a1.413,1.413,0,0,1,.866.5,1.85,1.85,0,0,1,.394.915,1.732,1.732,0,0,1-.834,1.842,2.644,2.644,0,0,0-1.165,1.074,2.151,2.151,0,0,0-.206,1.56,1.736,1.736,0,0,1-.079,1.1,1.6,1.6,0,0,1-.65.732A33.258,33.258,0,0,1,95.04,16.9a17.872,17.872,0,0,1-1.562,3.812A13.683,13.683,0,0,1,90.924,24a14.447,14.447,0,0,1-3.518,1.72,11.053,11.053,0,0,1-3.383.55,9.5,9.5,0,0,1-4.109-.917,10,10,0,0,1-3.325-2.577,11.775,11.775,0,0,1-1.578-2.407,13.812,13.812,0,0,1-1.047-2.915A16.434,16.434,0,0,1,73.53,14.1a19.762,19.762,0,0,1,.259-3.726,1.213,1.213,0,0,1-.36-.385c-.058-.094-.114-.2-.176-.32a5.762,5.762,0,0,0-2.665-.529,8.153,8.153,0,0,0-1.113.077,4.935,4.935,0,0,0-3.29,1.838c-.124.128-.251.261-.386.395a1.2,1.2,0,0,1-.851.632l-.052.294a46.156,46.156,0,0,1-1.542,6.714,17.357,17.357,0,0,1-1.387,3.133,12.575,12.575,0,0,1-2.1,2.736,12.959,12.959,0,0,1-8.948,3.526Zm.6-22.514a31.168,31.168,0,0,0-5.293.369A13.25,13.25,0,0,0,41.3,8.158,4.767,4.767,0,0,0,39.211,11.2a11.09,11.09,0,0,1-.6,1.479,3.193,3.193,0,0,1-.971,1.16,16.278,16.278,0,0,0,1.7,5.4,14.537,14.537,0,0,0,3.125,4.039,13.48,13.48,0,0,0,4.041,2.53,11.979,11.979,0,0,0,4.45.876h0a10.6,10.6,0,0,0,3.607-.621,10.318,10.318,0,0,0,3.261-1.917,12.081,12.081,0,0,0,2.634-3.294,17.172,17.172,0,0,0,1.726-4.751,33.242,33.242,0,0,0,.945-5.188c-.4-.352-.776-.7-1.139-1.037a16.351,16.351,0,0,0-3.283-2.563A12.022,12.022,0,0,0,53.627,5.99l-.2,0C52.805,5.979,52.16,5.97,51.514,5.97Zm23.519,5.344a23.565,23.565,0,0,0,.494,4.057,15.891,15.891,0,0,0,1.34,3.9,9,9,0,0,0,2.41,3.034,6.989,6.989,0,0,0,3.7,1.453c.341.029.685.044,1.023.044a9.827,9.827,0,0,0,3.521-.613,6.116,6.116,0,0,0,2.754-2.022,15.387,15.387,0,0,0,1.687-2.96,19.486,19.486,0,0,0,1.064-3.227,29.936,29.936,0,0,0,.745-6.71,6.2,6.2,0,0,1-1.322-2.218,4.382,4.382,0,0,0-.99-1.685,3.433,3.433,0,0,0-2.414-.708c-.257,0-.536.012-.831.037a22.29,22.29,0,0,0-5.182.873,10.185,10.185,0,0,0-3.127,1.544,6.954,6.954,0,0,0-1.69,1.836A11.51,11.51,0,0,0,77.344,9.7c-.425,1-.732,1.723-1.631,1.723A2.526,2.526,0,0,1,75.033,11.315Z" transform="translate(-3.087 2.133)"/>
      </g>
    </g>
  </g>
</svg>
