<svg xmlns="http://www.w3.org/2000/svg" width="390.67" height="780" viewBox="0 0 390.67 780">
  <g id="peep-standing-27" transform="translate(28.736)">
    <g id="BODY" transform="translate(-28.736 150.264)">
      <path id="_Skin" data-name="âœ‹ Skin" d="M240.633,571.1c1.671-7.764-5.973-10.389-10.792-12.116-3.452-2.234-16.241-9.972-26.137-19.525-8.1-7.817-13.61-17.835-15.9-18.79,0,0-2.362-1.367-2.607-2.383-1.437-5.952-.239-11.5,0-15.108,4.607-1.207,8.3-2.713,11.059-4.818.805.268,2.012.611,2.372-.565,2.5-16.613,3.572-33.03,5.6-49.657,7.684-63.325,8.551-137.3-4.669-195.141a50.676,50.676,0,0,1,.368-7.919c1.788-.193,2.868-1.92,4.328-2.952,2.265-1.8,4.948-3.178,4.837-6.318.538-.407.475-.635.21-1.154,1.728-7.416-5.98-15.231-8.16-21.345,3.963-38.679-1.429-75.229,1.579-113.917,3.8-1.587,1.245-11.5.985-15.593-2.1-26.349-15.829-52.4-40.545-61.009-1.413-.286-3.536-1.9-4.706-.815-2.259-.893-5.266.868-7.014-1.16l.018-.013a17.938,17.938,0,0,1-2.616-7.077,16.411,16.411,0,0,0,.383,2.044C144.962,3.781,143.889.576,130.172.012c-6.179-.082-14.324.1-17.926,5.984-1.476,2.734-1.025,5.873-1.941,8.751-1.682,5.281-8.942,2.729-12.753,5.471C67.046,29.982,42.024,49.913,33.8,81.9c-1.681,3.856-3.588,7.693-4.994,11.672-.218.591-.816,2.589.621,3.509l.7.445c-9.156,42.709-9.764,78.7,21,107.171,2.308,12.235-3.63,28.943-1.347,40.822-1.3,1.842.349,3.325,2.012,3.443.16.089.808.372.985.453-2.646,37.284,8.464,87.532,13.362,107.364.667,11.907-3.406,21.689-11.783,28.178-9.256,5.689-27.554,31.384-24.162,58.337-3.964.776-7.9,1.2-11.7,2.689C1.841,443.054,2.006,475.072.945,486.329c-1.8,18.849-2.912,46.17,15.031,58.236,4.727,3.422,14.312,7.429,19.223,1.951a5.738,5.738,0,0,0,1.379-5.764c8.11-11.435,5.925-26.393,6.67-39.806,2.352-.141,4.812.959,7.087.558,2.335-2.053-6.183-1.494-7.067-1.614.09-2.068.257-4.246.472-6.332a32.524,32.524,0,0,0,4.333.956.893.893,0,0,0,.839-1.4c-1-.954-3.559-.807-5-.942.243-1.746.54-3.581.87-5.269,1.76-.063,3.578,1.056,5.244.827-1.261-.84-3.629-.584-5.166-1.139,1-5.437,3.037-10.6,4.931-15.684a24.3,24.3,0,0,0,13.193,1.415c1.856.285,2.761-.094,3.061-2.411l-.119-.146c3.6-21.474,15.2-41.945,36.752-65.16,4.257-4.755,9.068-10.353,12.273-16.613,6.441-13.027,7.541-27.4,12.5-40.929,4.633-13.6,10.969-26.6,16.917-39.495.872,6.606,2.044,13.383,3.262,19.861,5.361,22.955,4.841,47.447.9,70.529-5.837,32.329-3.024,64.811-4.322,97.369a34.9,34.9,0,0,1-.025,5.539c-.037.151.035.329.213.324l.337.009c2.806,2.05,6.681,2.421,9.977,3.533,1.385,1.094.995,2.826,1.121,4.177.362,5.824.825,11.669.251,17.672-2.544,4.865-5.7,3.86-6.35,10.717-.566,7.829-1.566,16.154,2.254,23.125l-1.445.249c-2.145,4.492-.835,7.409,4.206,9.309,24.888,9.739,59.91,18.581,85.881,11.23.472.467,1.159-.018,1.7-.752a3.625,3.625,0,0,0,.809-2.185C242.693,575.889,243.3,571.536,240.633,571.1Z" transform="translate(47.26 -8.532)" fill="#d08b5b"/>
      <path id="_Top" data-name="ðŸ‘• Top" d="M21.25,225.407h0l-.23-1.576a34.58,34.58,0,0,1-.319-5.184l.007-.752.012-.6.013-.493c.008-.279.018-.582.03-.926l.1-2.6.024-.77.009-.364c0-.191.007-.359.009-.516l.006-.528-.023-.559-.028-.73-.018-.523c-.176-5.343-.111-10.437.257-20.187l.1-2.61,1.882,1.944.9.926,1.315,1.345c2.7,2.756,5.6,5.654,10.009,10l10.993,10.826,2.118,2.1,1.036,1.029-4.265.531-.9.114-.7.091-.693.094a56.2,56.2,0,0,0-10.362,2.174,26.112,26.112,0,0,0-5.746,2.618,19.748,19.748,0,0,0-2.363,1.724,18.27,18.27,0,0,0-2.035,2.034l-.118.14-1.022,1.223ZM143.9,221.526a53.709,53.709,0,0,1-7.258-.515c-2.441-.33-5.153-.837-8.289-1.549L127,219.148l-.788-.187-.968-.235-.989-.243-4.682-1.166-1.476-.362-.858-.207c-3.381-.811-5.6-1.272-8.169-1.7a62.04,62.04,0,0,0-10.3-.925c-.785,0-1.575.018-2.348.055l-.311.016-.181.01-.164-.078a55.164,55.164,0,0,1-5.964-3.312,56.063,56.063,0,0,1-5.488-4.009,62.456,62.456,0,0,1-5.093-4.731c-1.614-1.672-3.221-3.514-4.779-5.476l-.419-.531-.261-.335a101.907,101.907,0,0,1-6.089-8.755c-1.928-3.075-4.165-6.9-7.481-12.785l-1.6-2.835-1.122-1.982-.732-1.284c-3.262-5.707-5.309-9.027-7.823-12.688a89.912,89.912,0,0,0-6.272-8.17,65,65,0,0,0-6.709-6.709l-.239-.2-.029-.026a8.074,8.074,0,0,1-1.955-2.578l-.045-.1-.069-.166.124-1.258.129-1.347c1.03-10.893,2.135-25.97,3.285-44.812l.208-3.44L31.716,84.4l-2.6-1-.565-.214-.668-.25-.679-.252-.668-.246c-2.932-1.075-5.525-1.957-7.926-2.695l-.559-.17c-6.215-1.875-11.23-2.8-15.333-2.815H2.521l-.888,0,.031-.143-.027,0a3.175,3.175,0,0,1-.573-.121l-.087-.03-.085-.033a1.426,1.426,0,0,1-.775-.681A1.319,1.319,0,0,1,.1,74.709l.023-.06.149-.539c1.307-4.7,2.746-9.19,4.276-13.341,1.549-4.2,3.248-8.21,5.05-11.916A105.025,105.025,0,0,1,15.5,38.266a90.65,90.65,0,0,1,6.844-9.352l.3-.353.305-.359c1.353-1.58,2.776-3.124,4.231-4.589s2.995-2.9,4.561-4.258,3.22-2.683,4.9-3.932,3.454-2.467,5.254-3.61,3.695-2.253,5.618-3.291,3.943-2.041,5.993-2.976A116.321,116.321,0,0,1,66.66.523l.565-.177L68.337,0l-.2,1.145a13.537,13.537,0,0,0,1.254,8.747,18.218,18.218,0,0,0,6.74,6.847,31.855,31.855,0,0,0,4.7,2.391A43.4,43.4,0,0,0,86.3,20.953a54.189,54.189,0,0,0,6.048,1.221,61.843,61.843,0,0,0,6.449.583c.811.031,1.634.047,2.445.047a58.6,58.6,0,0,0,11.317-1.066,40.212,40.212,0,0,0,9.654-3.1,20.224,20.224,0,0,0,7.613-5.9,12.428,12.428,0,0,0,2.517-7.889l-.005-.178L132.3,3.549l1.035.444A52.817,52.817,0,0,1,150.511,15.91,64.027,64.027,0,0,1,162.7,34.1a76.475,76.475,0,0,1,3.675,9.893,81.989,81.989,0,0,1,2.346,10.41,83.171,83.171,0,0,1,.986,10.638,79.626,79.626,0,0,1-.4,10.579l-.046.422-.092.824-.8-.216a2.619,2.619,0,0,0-.671-.075,13.555,13.555,0,0,0-3.863.844,65.247,65.247,0,0,0-6.272,2.543l-.479.22-2.611,1.812-.044,1.341c-.217,6.807-.327,13.463-.326,19.783s.111,12.48.329,18.312.549,11.5.984,16.841.986,10.514,1.639,15.37,1.423,9.53,2.293,13.9,1.86,8.547,2.946,12.426,2.3,7.563,3.6,10.953a90.545,90.545,0,0,0,4.252,9.481l.372.7.384.706c.213.4.461.829.782,1.354l.365.589.555.884.3.485.147.241a19.731,19.731,0,0,1,1.294,2.419,9.639,9.639,0,0,1,.888,3.575l0,.148v.048l.024.046a1.288,1.288,0,0,1-.03,1.174l-.031.055-.011.018-.049.383-.326.064-.044.043a4.286,4.286,0,0,1-1.946.93l-.115.028-.112.026c-.169.038-.349.074-.564.113l-.774.134-.934.183-1.172.228-.319.064-.332.069a17.669,17.669,0,0,0-4.5,1.438,46.49,46.49,0,0,1-4.622,2.114,42.136,42.136,0,0,1-4.639,1.513,41.1,41.1,0,0,1-4.693.941,43.268,43.268,0,0,1-4.784.4C144.809,221.52,144.354,221.526,143.9,221.526Z" transform="translate(78.038 11.774)" fill="#78e185"/>
      <path id="_Shoes" data-name="ðŸ‘Ÿ Shoes" d="M220.752,139.5c-4.484,0-9.352-.2-14.078-.573-4.081-.324-7.875-.771-10.41-1.227-2.242-.4-9.738-2.051-18.6-4.568-4.972-1.413-9.579-2.874-13.691-4.344a105.768,105.768,0,0,1-12.6-5.309A3.856,3.856,0,0,1,149.24,120a10.053,10.053,0,0,1,.851-4.1,5.972,5.972,0,0,1,.9-1.4c.287-.36.494-.62.383-.731-3.714-3.706-2.3-12.2-1.548-16.763h0a22.3,22.3,0,0,0,.36-2.671c0-1.792,1.491-3.922,2.807-5.8a18.972,18.972,0,0,0,1.8-2.882,28.75,28.75,0,0,0,1.189,3.891,20.484,20.484,0,0,0,2.043,4.082,8.961,8.961,0,0,0,1.764,1.933,8.691,8.691,0,0,0,1.86,1.155,7.1,7.1,0,0,0,2.791.706.957.957,0,0,0,.306-.034l.069-.03.05-.026a25.319,25.319,0,0,0,2.282-2.707A144.458,144.458,0,0,1,176.7,83.549a40.916,40.916,0,0,1,5.566-4.849,14.725,14.725,0,0,1,2.592-1.473,6.063,6.063,0,0,1,2.316-.54,3.242,3.242,0,0,1,1.492.342c1.629.833,2.863,3.145,4.17,5.593,1.211,2.269,2.464,4.615,4.143,6.021a57.16,57.16,0,0,1,5.607,5.674c1.469,1.626,2.989,3.307,4.853,5.149a74.645,74.645,0,0,0,6.716,5.89,94.578,94.578,0,0,0,9.742,6.6c1.993,1.187,4.136,2.382,6.369,3.552,2.368,1.24,4.912,2.49,7.561,3.715a4.57,4.57,0,0,1,2.67,3.114,6.4,6.4,0,0,1,.162,1.94,9.759,9.759,0,0,1-.315,1.9.327.327,0,0,0,.037.263c.194.318.91.479,1.542.62.481.108.9.2.937.34a.116.116,0,0,1-.045.115c-.229.229-.311.671-.256,1.39a21.575,21.575,0,0,0,.358,2.253c.446,2.319.951,4.947-.577,5.6C237.028,139.026,227.669,139.5,220.752,139.5ZM28.463,104.9a22.07,22.07,0,0,1-6.991-1.322,16.163,16.163,0,0,1-3.219-1.669,33.979,33.979,0,0,1-4.489-3.486A38.929,38.929,0,0,1,4.61,85.8a34.9,34.9,0,0,1-2.041-6.126A63.94,63.94,0,0,1,1.33,72.734C.713,67.921.458,62.837.211,57.921.176,57.23.137,56.447.1,55.7a125.91,125.91,0,0,1,.948-20.2c.424-3.59.947-7.055,1.555-10.3A87.661,87.661,0,0,1,4.61,16.591,34.179,34.179,0,0,1,9.235,6.363a12.057,12.057,0,0,1,3.22-3.193c.077-.052.143-.1.2-.135.084-.061,1.3-.331,3.25-.724,1.674-.337,3.262-.636,3.54-.667l.1-.011.08-.008.044-.017A20.5,20.5,0,0,1,23.527.566,41.047,41.047,0,0,1,28.281.054L28.5.042,29.314,0h0c.045.056.447.566.839,1.175a3.847,3.847,0,0,1,.817,1.905A79.207,79.207,0,0,1,29.56,14.832a41.763,41.763,0,0,0-.809,6.1l0,.266.007.1a7.294,7.294,0,0,0,.533,1.9,14.465,14.465,0,0,0,1.461,2.727,10.369,10.369,0,0,0,5.924,4.413,4.558,4.558,0,0,0,1.061.107,16.1,16.1,0,0,0,3.224-.424c1.048-.225,2.241-.539,3.547-.933,2.215-.668,4.025-1.35,4.043-1.357-.011.031-1.289,3.577-2.638,8.544-.8,2.938-1.471,5.809-2,8.534a79.2,79.2,0,0,0-1.3,9.467c-.279,3.983-.356,8.234-.43,12.345-.055,3.033-.112,6.168-.25,9.123-.155,3.307-.4,6.053-.745,8.4a27.586,27.586,0,0,1-2.258,7.282,31.949,31.949,0,0,1-3.917,6.465c-.367.463.27,1.134.887,1.782.582.612,1.131,1.19.776,1.536-.1.094-.2.2-.319.325l0,0a10.94,10.94,0,0,1-2.621,2.113,9.5,9.5,0,0,1-2.234.888A12.093,12.093,0,0,1,28.463,104.9ZM154.8,85.646h0a4.353,4.353,0,0,1-.2-1.878.051.051,0,0,1,.04-.021c.067,0,.169.132.3.393a1.78,1.78,0,0,1-.144,1.506Z" transform="translate(47.162 435.15)" fill="#fff"/>
      <path id="_Ink" data-name="ðŸ– Ink" d="M223.309,578.615h0a122.229,122.229,0,0,1-17.784-1.465c-5.738-.855-11.938-2.088-18.429-3.663-5.606-1.361-11.384-2.965-17.174-4.767-4.873-1.517-9.721-3.169-14.019-4.776l-.333-.134a16.49,16.49,0,0,1-3.786-1.9,5.243,5.243,0,0,1-1.338-1.441,4.825,4.825,0,0,1-.673-2.029,10.29,10.29,0,0,1,.268-3.29c.205-.91.677-2.464,1.525-2.657a20.822,20.822,0,0,1-1.582-4.663,30.1,30.1,0,0,1-.627-4.92,82.125,82.125,0,0,1,.328-10.114c.058-.794.125-1.694.18-2.545.593-4.786,1.823-6.023,3.525-7.735a21.44,21.44,0,0,0,2.826-3.332,77.584,77.584,0,0,0-.077-13.476v-.013c-.054-.833-.111-1.695-.164-2.587a7.17,7.17,0,0,1-.045-1.057,7.363,7.363,0,0,0-.074-1.335,1.581,1.581,0,0,0-.551-1.023c-.411-.1-.828-.2-1.291-.307-2.89-.68-5.879-1.383-8.334-2.992a1.425,1.425,0,0,1-1.05-.5,1.444,1.444,0,0,1-.307-1.178,19.306,19.306,0,0,0,.068-3.7v0c-.025-.554-.052-1.127-.055-1.7.282-4.514.445-9.525.5-15.318h-.117c.048-5.85-.032-11.8-.109-17.558v0c-.1-7.4-.2-15.056-.034-22.58.09-4.05.25-7.739.487-11.279.266-3.972.623-7.656,1.091-11.264.618-6.508,1.525-13.11,2.4-19.5v-.007c.89-6.476,1.81-13.172,2.429-19.775.333-3.555.555-6.8.679-9.922.138-3.5.15-6.76.035-9.959-.074-2.475-.237-4.99-.5-7.689-.233-2.4-.538-4.9-.935-7.632-.737-5.073-1.684-10.206-2.6-15.17-.961-5.211-1.955-10.6-2.709-15.933l-.33.711-.765,1.646v0c-2.507,5.4-5.1,10.975-7.5,16.521-2.691,6.222-4.846,11.738-6.589,16.863a157.18,157.18,0,0,0-4.856,17.205c-.967,4-1.966,8.141-3.175,12.141-.65,2.152-1.308,4.094-2.011,5.938-.788,2.069-1.612,3.96-2.519,5.781a58.323,58.323,0,0,1-5.663,8.805c-2.232,2.922-4.684,5.719-6.789,8.07A182.907,182.907,0,0,0,81.78,429.078c-1.639,2.711-3.158,5.45-4.514,8.141-1.415,2.806-2.7,5.646-3.809,8.44-1.156,2.9-2.165,5.846-3,8.743a85.339,85.339,0,0,0-2.079,9.052,1.669,1.669,0,0,1,.112.161,8.472,8.472,0,0,1-.65,2.429,2.786,2.786,0,0,1-1.841,1.6,13.759,13.759,0,0,0-1.825-.118,15.723,15.723,0,0,0-3.222.336c-.443.036-.9.055-1.36.055a20.683,20.683,0,0,1-4.017-.418,29.6,29.6,0,0,1-3.885-1.072l-.148.4-.192.515a83.981,83.981,0,0,0-3.9,12.377,12.827,12.827,0,0,0,1.478.214h0a5.191,5.191,0,0,1,3.2,1.046,1.136,1.136,0,0,1,.306,1.03,1.294,1.294,0,0,1-.833.868,2.906,2.906,0,0,1-.871.125,7.84,7.84,0,0,1-2.1-.407,9.82,9.82,0,0,0-1.686-.382c-.172.923-.328,1.861-.475,2.868,1.433.078,3.6.2,4.535,1.281a2.012,2.012,0,0,1,.447,1.565,2.013,2.013,0,0,1-2.186,1.8,10.4,10.4,0,0,1-2.537-.47l-.009,0c-.257-.069-.5-.135-.734-.192-.119,1.243-.212,2.492-.276,3.711.178.006.371.009.59.009.32,0,.641-.006.979-.013h.043c.321-.007.685-.014,1.043-.014a12.566,12.566,0,0,1,2.043.134,5.518,5.518,0,0,1,1.86.617,1.776,1.776,0,0,1,.708.787,1.756,1.756,0,0,1,.139.976,1.686,1.686,0,0,1-.39.865,1.759,1.759,0,0,1-.891.543,5.385,5.385,0,0,1-1.311.149,15.119,15.119,0,0,1-2.633-.319,16.634,16.634,0,0,0-2.314-.308c-.117,2.6-.137,5.329-.156,7.964h0a111.7,111.7,0,0,1-.883,16.024,41.585,41.585,0,0,1-1.879,7.673,32.522,32.522,0,0,1-1.55,3.652A29.866,29.866,0,0,1,39.053,535a6.073,6.073,0,0,1-.082,3.349,8.628,8.628,0,0,1-1.685,2.967,9.135,9.135,0,0,1-3.46,2.4,11.048,11.048,0,0,1-4.046.715,16.6,16.6,0,0,1-3.568-.415,23.49,23.49,0,0,1-3.539-1.1,29.217,29.217,0,0,1-3.311-1.561,29.6,29.6,0,0,1-2.886-1.8,34.713,34.713,0,0,1-5.492-4.846A35.1,35.1,0,0,1,6.815,529.1a40.065,40.065,0,0,1-3.014-6.21,49.69,49.69,0,0,1-2.02-6.657A64.634,64.634,0,0,1,.59,509.281c-.262-2.224-.439-4.607-.525-7.082-.144-4.132-.051-8.562.292-13.942.24-1.992.4-4.764.594-7.973v0c.235-3.962.5-8.452.992-13.094A92.074,92.074,0,0,1,4.261,453.57a41.779,41.779,0,0,1,2-5.927A21.91,21.91,0,0,1,9,442.876a11.848,11.848,0,0,1,3.616-3.176,9.359,9.359,0,0,1,2.18-.857,9.985,9.985,0,0,1,2.45-.3,12.424,12.424,0,0,1,2.323.23,45.268,45.268,0,0,1,8.427-2.051c.634-.112,1.289-.227,1.949-.349a16.585,16.585,0,0,1-.447-6.008,107.324,107.324,0,0,1,2.455-14.7,84,84,0,0,1,4.757-14.2,68.913,68.913,0,0,1,3.375-6.641,60.923,60.923,0,0,1,4.109-6.194A55.305,55.305,0,0,1,49.09,383a52.268,52.268,0,0,1,5.737-4.975,29.225,29.225,0,0,0,5.5-5.565,28.054,28.054,0,0,0,3.616-6.489,35.472,35.472,0,0,0,2.2-15c-2.046-8.3-3.935-16.788-5.616-25.241-1.894-9.527-3.492-18.857-4.748-27.731-1.406-9.93-2.388-19.331-2.921-27.944-.287-4.646-.448-9.134-.476-13.34-.03-4.413.085-8.632.34-12.539a4.082,4.082,0,0,1-1.625-1.352,7.6,7.6,0,0,1-1.066-2.222,16.39,16.39,0,0,1-.593-2.923,32.415,32.415,0,0,1-.206-3.455,121.589,121.589,0,0,1,1.343-15.773v0a73,73,0,0,0,.881-9.5c.006-.873.047-1.773.087-2.643v0a25.823,25.823,0,0,0-.306-6.958c-1.953-1.775-3.822-3.636-5.555-5.53-1.7-1.857-3.315-3.8-4.8-5.774-1.458-1.933-2.835-3.952-4.093-6-1.231-2-2.382-4.091-3.423-6.206-1.017-2.067-1.956-4.218-2.792-6.394-.816-2.124-1.557-4.331-2.2-6.562-.629-2.175-1.185-4.433-1.652-6.712-.455-2.219-.839-4.521-1.142-6.844a113.91,113.91,0,0,1-.915-14.006c-.026-4.53.19-9.343.643-14.306A236.271,236.271,0,0,1,29.976,92.1a3.1,3.1,0,0,1-.986-.994,3.342,3.342,0,0,1-.443-1.239,4.709,4.709,0,0,1,0-1.352,6.292,6.292,0,0,1,.336-1.331c1.114-3.125,2.529-6.226,3.9-9.225v0l0-.009c.349-.766.711-1.558,1.06-2.335A85.235,85.235,0,0,1,72.129,24.7,86.5,86.5,0,0,1,92.391,15.78a23.128,23.128,0,0,0,2.857-1.244c1.184-.566,2.525-1.207,3.808-1.711a10.121,10.121,0,0,1,3.413-.866,2.128,2.128,0,0,1,.89.165,1.142,1.142,0,0,1,.561.541c1.985-.447,4.038-.872,6.277-1.3a17.008,17.008,0,0,0,1.354-3.259,18.521,18.521,0,0,0,.681-3.462,8.415,8.415,0,0,0,.078-1.749h0a4.848,4.848,0,0,1,.437-2.711.18.18,0,0,1,.017-.156A.059.059,0,0,1,112.809,0c.03,0,.059.032.082.09A2.947,2.947,0,0,1,113.4.04a1.135,1.135,0,0,1,.952.388c.448.577.235,1.7,0,2.618a15.935,15.935,0,0,1,.232,3.081,17.348,17.348,0,0,1-.344,3.074,18.443,18.443,0,0,1-.87,2.974,18.749,18.749,0,0,1-1.347,2.781,6.156,6.156,0,0,1-1.824,2.412,3.364,3.364,0,0,1-1.971.773,1.221,1.221,0,0,1-1.194-.667,1.959,1.959,0,0,1,.087-1.482,7.673,7.673,0,0,1,1.506-2.253A14.136,14.136,0,0,0,104.262,15a5.134,5.134,0,0,0-2.441,2.315c-.735,1.575-.365,3.569,1.1,5.926a10.245,10.245,0,0,0,3.858,5.055,26.8,26.8,0,0,0,7.315,3.728,53.127,53.127,0,0,0,9.521,2.306,69.407,69.407,0,0,0,10.475.79,53.269,53.269,0,0,0,15.22-2,25.018,25.018,0,0,0,5.878-2.566,12.524,12.524,0,0,0,3.943-3.67c1.8-2.74,1.894-6,.283-9.691-.16-.084-.731-.269-1.455-.5h0a22.118,22.118,0,0,1-4.809-1.914c.21.467.4,1.006.594,1.578.622,1.8,1.326,3.836,3.045,4.326a.948.948,0,0,1,.549.273.985.985,0,0,1,.284.523.682.682,0,0,1-.41.756,3.793,3.793,0,0,1-1.461.324,2.917,2.917,0,0,1-1.971-.79,6.49,6.49,0,0,1-1.413-1.969,26.28,26.28,0,0,1-1.681-5.063l0-.007c-.13-.508-.253-.987-.368-1.378a23.4,23.4,0,0,1-1.44-5.37,12.61,12.61,0,0,1-.062-2.716,9.433,9.433,0,0,1,.619-2.629.256.256,0,0,1,.127-.036c.67,0,1.255,2.952,1.821,5.806v0a20.512,20.512,0,0,0,1.274,4.884,1.358,1.358,0,0,0,.262.036h.016a.807.807,0,0,0,.366.5,10.891,10.891,0,0,0,3.34,1.083h0a12.124,12.124,0,0,1,1.955.533,2.113,2.113,0,0,1,1.957-1,6.274,6.274,0,0,1,2.581.688c.519.2,1.067.378,1.6.553a13.047,13.047,0,0,1,4.41,2.089,49.457,49.457,0,0,1,8.291,4.44,51.9,51.9,0,0,1,7.158,5.754,61.817,61.817,0,0,1,11.084,14.565A81.7,81.7,0,0,1,202.72,59.7a96.909,96.909,0,0,1,3.358,18.008c.058.609.172,1.422.3,2.364.651,4.657,1.741,12.451-1.337,14.077-.327,4.321-.558,8.717-.708,13.44-.133,4.2-.2,8.571-.2,13.351,0,8.875.23,17.851.452,26.531v.008c.249,9.729.507,19.789.44,29.712-.036,5.343-.161,10.223-.381,14.919-.247,5.27-.608,10.179-1.1,15.007,1.577,3.342,3.46,6.832,5.925,10.983a16.644,16.644,0,0,1,2.1,5.025,13.5,13.5,0,0,1,.153,5.4,1.823,1.823,0,0,1,.15.976,1.445,1.445,0,0,1-.438.864c-.188,2.9-1.915,4.189-3.914,5.68-.445.332-.905.675-1.365,1.049a11.01,11.01,0,0,0-1.378,1.187,6.179,6.179,0,0,1-2.564,1.749,46.35,46.35,0,0,0-.285,6.826c1.668,7.357,3.155,15.155,4.419,23.178,1.219,7.733,2.263,15.87,3.1,24.183.808,8.005,1.445,16.371,1.894,24.864.432,8.172.7,16.658.8,25.222.184,16.206-.236,33.1-1.248,50.224-.939,15.886-2.385,31.96-4.3,47.773-.807,6.606-1.48,13.346-2.13,19.864v.022c-.386,3.873-.786,7.879-1.21,11.814h-.218c-.179,1.728-.34,3.457-.512,5.287v.007c-.4,4.287-.817,8.721-1.419,12.715a2.059,2.059,0,0,1-.857,1.372,2.65,2.65,0,0,1-1.517.436,3.368,3.368,0,0,1-.949-.137,24.428,24.428,0,0,1-4.845,2.647,44.209,44.209,0,0,1-5.3,1.788c-.17,2.839-.284,5.018-.2,7.205a40.825,40.825,0,0,0,.949,7.1,3.3,3.3,0,0,1,1.028-.181,1.5,1.5,0,0,1,.746.167.827.827,0,0,1,.411.592,8.3,8.3,0,0,1,2.073,1.284,10.607,10.607,0,0,1,1.62,1.725,29.142,29.142,0,0,1,2.487,4.185v0a26.605,26.605,0,0,0,2.754,4.525c.4-.074.82-.171,1.268-.273h.007a16.587,16.587,0,0,1,3.52-.542,3.453,3.453,0,0,1,2.966,1.25,1.64,1.64,0,0,1-.133,1.489,2.829,2.829,0,0,1-1.854.929,16.9,16.9,0,0,1-2.432.222h-.008c-.356.015-.664.027-.919.051,1.155,1.446,2.2,2.709,3.2,3.861.5-.119,1.067-.3,1.665-.492a13.769,13.769,0,0,1,3.906-.857,2.949,2.949,0,0,1,2.214.809,1.474,1.474,0,0,1,.382.743,1.224,1.224,0,0,1-.165.84,3.182,3.182,0,0,1-1.744,1.384,10.823,10.823,0,0,1-2.274.463c-.41.054-.8.1-1.173.177,1.37,1.356,2.875,2.7,4.6,4.121.819-.307,1.64-.659,2.435-1a23.35,23.35,0,0,1,6.051-1.965,1.591,1.591,0,0,1,.217-.015,1.547,1.547,0,0,1,1.467,1.272,1.724,1.724,0,0,1-.065,1.018,1.472,1.472,0,0,1-.739.783,18.71,18.71,0,0,1-3.257,1.2c-1.224.338-2.488.589-3.452.77a39.931,39.931,0,0,0,4.967,3.341c1.73,1,3.546,1.939,5.3,2.844l0,0c2.114,1.09,4.3,2.216,6.345,3.465a26.572,26.572,0,0,1,4.626,1.935,16.8,16.8,0,0,1,3.886,2.831,10.082,10.082,0,0,1,3.048,8.729c1.938.586,2.012,2.675,2.071,4.354l0,.135c.034.456.105.915.174,1.359a12.925,12.925,0,0,1,.192,1.76,4.557,4.557,0,0,1-.3,1.773,4.362,4.362,0,0,1-1.1,1.621,3.363,3.363,0,0,1-.824.573,2.114,2.114,0,0,1-.914.223,1.758,1.758,0,0,1-.873-.234,37.364,37.364,0,0,1-8.51,2.264A66.266,66.266,0,0,1,223.309,578.615Zm-71.254-25.193h0a15.481,15.481,0,0,0-.563,3.923,3.938,3.938,0,0,0,.726,2.378c.92,1.221,2.712,1.863,5.425,2.835l.65.233c3.613,1.2,8.445,2.791,13.79,4.4,5.793,1.75,11.091,3.2,16.2,4.441,6.118,1.485,11.914,2.639,17.225,3.432,2.965.442,5.847.782,8.568,1.011,2.9.243,5.691.366,8.308.366a66.762,66.762,0,0,0,11.132-.864,45.909,45.909,0,0,0,5.073-1.152,35.972,35.972,0,0,0,4.659-1.7,3.877,3.877,0,0,0,.206-1.886,13.33,13.33,0,0,1-.1-1.946,7.986,7.986,0,0,0-.38-3.021,6.8,6.8,0,0,1-1.152,2.258,7.978,7.978,0,0,1-1.824,1.7,11.745,11.745,0,0,1-4.785,1.812c-2.108.4-4.284.708-6.468.9-2.084.187-4.242.282-6.415.282a85.546,85.546,0,0,1-9.97-.6c-3.112-.362-6.337-.882-9.859-1.59-6.538-1.314-13.093-3.083-19.433-4.8h0c-4.869-1.315-9.9-2.674-14.823-3.793a42.909,42.909,0,0,1-9.329-2.52,15.583,15.583,0,0,1-3.919-2.4,12.244,12.244,0,0,1-2.94-3.7Zm4.078-29.783h0a18.714,18.714,0,0,0-2.379,5.731,43.414,43.414,0,0,0-.963,6.082,62.955,62.955,0,0,0-.087,6.3,29.655,29.655,0,0,0,.588,4.98,15.71,15.71,0,0,0,1.319,3.853,11.315,11.315,0,0,0,2.108,2.923,16.863,16.863,0,0,0,6.811,3.844,82.031,82.031,0,0,0,10.652,2.489c1.689.459,3.4.933,5.064,1.392l.008,0c6.005,1.66,12.215,3.376,18.419,4.713,3.343.72,6.413,1.274,9.384,1.695,3.338.472,6.467.764,9.566.893,1.82.152,3.655.229,5.456.229h0a62.343,62.343,0,0,0,8.73-.61,27.067,27.067,0,0,0,4.515-.684,5.506,5.506,0,0,0,3.23-1.956,3.846,3.846,0,0,0,.655-1.85,7.429,7.429,0,0,0-.285-2.623,7.973,7.973,0,0,0-1.565-2.736A10.4,10.4,0,0,0,235,556.335a32.04,32.04,0,0,0-6-2.663,37.523,37.523,0,0,1-4.971-2.089,52.525,52.525,0,0,1-7.251-4.374,63.6,63.6,0,0,1-6.478-5.35l-.6.107H209.7a23.905,23.905,0,0,0-3.762.877,6.88,6.88,0,0,0-3.122,2.03.1.1,0,0,1-.077.038.117.117,0,0,1-.1-.058.094.094,0,0,1,0-.1,7.6,7.6,0,0,1,2.685-2.658,23.2,23.2,0,0,1,3.494-1.683c-.766-.764-1.512-1.569-2.234-2.347l0,0c-.759-.819-1.544-1.664-2.353-2.465a39.912,39.912,0,0,0-4.958,1.452,34.932,34.932,0,0,1-5.546,1.555c-.01-.38.334-.877,1.021-1.477a18.218,18.218,0,0,1,2.409-1.7,46.109,46.109,0,0,1,4.677-2.476c-1.244-1.442-2.433-2.942-3.534-4.459a26.9,26.9,0,0,0-5.829,2.209h0a38.032,38.032,0,0,1-4.013,1.7,4.457,4.457,0,0,1,1.075-2.048,12.144,12.144,0,0,1,2.089-1.88,27.665,27.665,0,0,1,4.79-2.727,21.238,21.238,0,0,1-2.321-3.949,28.306,28.306,0,0,0-2.3-4.031,7.224,7.224,0,0,0-1.391-1.467,3.722,3.722,0,0,0-1.652-.754,57.831,57.831,0,0,0-17.109,15.082c-.3.4-.6.837-.9,1.256a11.669,11.669,0,0,1-3.831,4,7.345,7.345,0,0,1-2.886.647,5.485,5.485,0,0,1-2.369-.531,6.672,6.672,0,0,1-1.94-1.432,12.835,12.835,0,0,1-2.808-5.188,18.888,18.888,0,0,1-.637-2.972,16.055,16.055,0,0,1-.136-2.775Zm-140.6-82.59a14.66,14.66,0,0,0-3.358,2.986,21.161,21.161,0,0,0-2.6,4.022,33.473,33.473,0,0,0-1.956,4.838A52.885,52.885,0,0,0,6.2,458.328,99.025,99.025,0,0,0,4.6,470.1c-.334,3.98-.517,7.986-.678,11.52-.151,3.314-.294,6.445-.535,8.987-.2,2.509-.307,5.03-.31,7.494,0,2.67.113,5.3.345,7.813a59.44,59.44,0,0,0,3.3,15.257,39.039,39.039,0,0,0,3.271,6.781,30.237,30.237,0,0,0,4.567,5.775,26.62,26.62,0,0,0,6.023,4.438,27.617,27.617,0,0,0,3.607,1.614,30.492,30.492,0,0,0,4.032,1.155,9.986,9.986,0,0,0,1.413.1,11.968,11.968,0,0,0,2.091-.184,9.658,9.658,0,0,0,2.034-.583,5.773,5.773,0,0,0,1.669-1.026,3.454,3.454,0,0,0,1-1.513,21.433,21.433,0,0,1-4.09,1.532,15.35,15.35,0,0,1-3.771.494,12.937,12.937,0,0,1-2.752-.292,12.788,12.788,0,0,1-2.56-.852,15.7,15.7,0,0,1-4.558-3.235,33.168,33.168,0,0,1-6.954-11.535,73.374,73.374,0,0,1-3.1-10.434,113.654,113.654,0,0,1-1.965-11.821A153.168,153.168,0,0,1,5.918,476.6,112.782,112.782,0,0,1,9.03,454.54a46.844,46.844,0,0,1,2.856-8.17,17.1,17.1,0,0,1,3.644-5.321Zm15-2.41a30.239,30.239,0,0,0-8.544,1.425,12.133,12.133,0,0,0-3.624,2.009,9.043,9.043,0,0,0-2.537,3.361A114.936,114.936,0,0,0,9.984,476.5a145.29,145.29,0,0,0,1.868,31.628,77.218,77.218,0,0,0,1.862,8.036,55.161,55.161,0,0,0,3.439,9.065,25.923,25.923,0,0,0,5.293,7.513,13.515,13.515,0,0,0,3.429,2.368,10.669,10.669,0,0,0,4,1.011,8.3,8.3,0,0,0,3.607-1.378,10.571,10.571,0,0,0,2.735-2.823,18.723,18.723,0,0,0,1.986-3.956,34.16,34.16,0,0,0,1.36-4.775,72.511,72.511,0,0,0,1.335-10.754c.219-3.644.267-7.165.309-10.271.034-2.482.063-4.625.174-6.233-.673-.065-1.39-.1-2.255-.1-.709,0-1.424.021-2.114.041h0c-.692.02-1.407.041-2.105.041a20.791,20.791,0,0,1-2.761-.156c-.007-1.255,7.981-2.58,9.374-2.728.1-1.711.22-3.276.377-4.783a31.142,31.142,0,0,0-5.515-.422h0a34.877,34.877,0,0,1-4.865-.31,7.493,7.493,0,0,1,4.1-1.785,46.184,46.184,0,0,1,5.245-.616h.013c.514-.04,1-.077,1.424-.118.153-1.072.347-2.212.591-3.484-2.92-.413-5.952-.685-9.011-.811-.15-.007-.31-.01-.49-.01-.317,0-.639.01-.98.02h-.018c-.319.01-.681.021-1.032.021a6.519,6.519,0,0,1-2.462-.373c.359-.468,1.485-.814,3.347-1.03a50.6,50.6,0,0,1,5.616-.257c2.232,0,4.417.09,5.5.173a67.515,67.515,0,0,1,3.377-10.85,11.106,11.106,0,0,1-3.166,1.635,10.693,10.693,0,0,1-3.29.515,11.761,11.761,0,0,1-4.465-.9,13.039,13.039,0,0,1-2.041-1.055,13.352,13.352,0,0,1-1.832-1.4,13.129,13.129,0,0,1-1.562-1.693,12.465,12.465,0,0,1-1.232-1.943,11.237,11.237,0,0,1-1.229-4.451c.079-7.087,1.152-12.872,3.28-17.686C30.963,440.515,30.759,439.624,30.535,438.639Zm128.282,61.644c.489,5.112.537,9.93.582,14.59v.005c.042,4.274.085,8.693.468,13.347a8.544,8.544,0,0,0,1.693,3.561,4.8,4.8,0,0,0,1.279,1.1,2.767,2.767,0,0,0,3.237-.253,6.842,6.842,0,0,0,1.742-2.177,53.463,53.463,0,0,1,7.936-9.128,103.871,103.871,0,0,1,9.425-7.707,7.435,7.435,0,0,1-.92-4.12v-.015c0-.131-.008-.255-.013-.379a34.018,34.018,0,0,1,1.357-9.624v0l.217-.893a76.233,76.233,0,0,1-18.2,2.28,65.524,65.524,0,0,1-8.8-.585h0Zm-1.314-.2h0c.049.2.08.4.111.6v0c.013.082.025.163.039.243.012-.082.023-.164.037-.261v0c.025-.176.05-.358.077-.536l-.131-.022-.133-.023ZM32.786,446.425h0c-.054.395-.1.724-.133,1.036-.071,1.1-.209,2.243-.356,3.453v0a31.95,31.95,0,0,0-.316,7.755,10.4,10.4,0,0,0,1.053,3.524,8.44,8.44,0,0,0,1.047,1.56,9.026,9.026,0,0,0,1.477,1.382,6.977,6.977,0,0,0,4.321,1.446,8.04,8.04,0,0,0,3.388-.763,7.781,7.781,0,0,0,2.756-2.148,29.017,29.017,0,0,1-8.081-7.547,38.944,38.944,0,0,1-5.156-9.7ZM34.372,91.9h0c-1.829,9.894-3.427,18.795-4.447,27.528-.56,4.794-.9,9.132-1.037,13.261-.074,2.221-.089,4.409-.043,6.5.048,2.186.163,4.344.342,6.414.186,2.152.448,4.28.778,6.326.341,2.117.767,4.216,1.265,6.238.513,2.085,1.12,4.153,1.8,6.149.7,2.051,1.507,4.089,2.392,6.058.908,2.02,1.928,4.027,3.032,5.967,1.13,1.986,2.383,3.963,3.724,5.875,1.37,1.954,2.872,3.9,4.466,5.782,1.626,1.921,3.4,3.835,5.259,5.689,4.054,4.4,8.6,9.109,13.894,14.4,4.727,4.727,9.595,9.464,14.3,14.045l.012.011c6.314,6.145,12.843,12.5,19.1,18.893a26.486,26.486,0,0,1,4.134,4.776c1.214,1.75,2.3,3.627,3.3,5.4,1.615,2.84,5.527,7.1,8.117,9.914h0a19.785,19.785,0,0,1,2.346,2.727,34.518,34.518,0,0,0,3.742,2.6,8.122,8.122,0,0,0,1.483.669,4.418,4.418,0,0,0,1.362.227,5.138,5.138,0,0,0,2.737-.912,24.025,24.025,0,0,0,3.472-2.82,11.267,11.267,0,0,1,4.039-1.551c.409-.1.832-.2,1.258-.319a4.129,4.129,0,0,0,2.217-1.667,5.152,5.152,0,0,1,3.694-2.164,4.392,4.392,0,0,1,.421-1.809,12.823,12.823,0,0,1-3.2-2.18,11.357,11.357,0,0,1-2.322-3.02.861.861,0,0,1,.017-.874,1.085,1.085,0,0,1,.9-.51.817.817,0,0,1,.74.462,10.425,10.425,0,0,0,2.5,3.015A8.1,8.1,0,0,0,143.8,254.8a27.713,27.713,0,0,1-1.624-5.019c-.339-1.523-.526-2.937-.691-4.185a30.111,30.111,0,0,0-.621-3.6,9.437,9.437,0,0,0-1.426-3.161,11.805,11.805,0,0,0-3.122-2.927,31.234,31.234,0,0,0-5.71-2.9,50.741,50.741,0,0,1-13.564-7.333,56.7,56.7,0,0,1-5.579-4.833,68.655,68.655,0,0,1-4.947-5.449c-1.5-1.832-2.95-3.775-4.442-5.942-1.328-1.931-2.658-4-4.064-6.314-2.611-4.307-5.1-8.856-7.5-13.256l0,0c-1.763-3.227-3.587-6.565-5.449-9.786-2.089-3.615-4.006-6.7-5.859-9.418A86.3,86.3,0,0,0,72.534,162c-1.226-1.388-2.492-2.71-3.762-3.929-1.333-1.279-2.717-2.488-4.115-3.6a2.768,2.768,0,0,1-.82.136,1.838,1.838,0,0,1-1.489-.731,4.482,4.482,0,0,1-.8-2.2,7.311,7.311,0,0,1,.094-2.368c.41-4.5.73-8.908,1.039-13.173v-.009c.435-6.007.847-11.681,1.485-17.507.343-3.127.719-6,1.15-8.79.482-3.118,1.022-6.055,1.65-8.979a80.874,80.874,0,0,0-7.777-3.291c-2.576-.938-5.3-1.79-8.1-2.533-2.657-.7-5.453-1.33-8.312-1.859-2.7-.5-5.525-.926-8.4-1.27ZM54.193,243.876h0a2.055,2.055,0,0,1-.418.19c.141,3.261.329,6.535.558,9.732-.125-3.406-.172-6.744-.14-9.921Zm-.145-41.555h0c-.148,3.855-.286,7.632-.347,11.462-.066,4.215-.026,7.958.123,11.443-.008,1.235-.056,2.487-.1,3.7v0a49.029,49.029,0,0,0,.209,8.939,18.983,18.983,0,0,1,2.4-2.392,20.862,20.862,0,0,1,2.713-1.91,27.989,27.989,0,0,1,6.14-2.644,79.49,79.49,0,0,1,13.494-2.464l.044-.005,1.395-.174c-2.738-2.72-5.531-5.467-8.233-8.123h0c-5.9-5.8-11.994-11.792-17.832-17.829Zm76.923,25.223a56.788,56.788,0,0,1,5.923.318c1.836.191,3.724.465,5.772.839,3.908.713,7.8,1.686,11.235,2.545l.311.078c3.574.894,7.269,1.818,10.914,2.5,1.96.365,3.755.632,5.488.818a51.646,51.646,0,0,0,5.556.31h0a43.649,43.649,0,0,0,4.761-.256,40.571,40.571,0,0,0,4.857-.836,41.165,41.165,0,0,0,4.973-1.515,45.387,45.387,0,0,0,5.11-2.294,23.96,23.96,0,0,1,6.324-1.831c.366-.071.745-.144,1.119-.219l.357-.062h0a5.019,5.019,0,0,0,2.981-1.175h.006a.184.184,0,0,0,.034,0,.384.384,0,0,0,0-.05.626.626,0,0,0,.176-.423.532.532,0,0,0-.152-.38c.049-2.668-1.409-4.989-2.82-7.233h0c-.493-.784-1-1.594-1.431-2.4-1.432-2.6-2.794-5.314-4.047-8.068-1.223-2.688-2.378-5.491-3.434-8.331-1.028-2.767-1.991-5.649-2.862-8.566-.847-2.836-1.631-5.788-2.332-8.773-.68-2.9-1.3-5.907-1.844-8.951-.526-2.946-1-6.008-1.4-9.1-.758-5.844-1.3-12.082-1.624-18.541-.3-5.982-.408-12.133-.341-18.8.059-5.912.258-12.076.608-18.842.647-12.522,1.7-24.912,2.725-36.893V71.4c.356-4.176.692-8.12,1.015-12.1A176.937,176.937,0,0,1,189,77.062v0c-.157,5.6-.319,11.4-.07,16.63a32.612,32.612,0,0,1,5.172-2.382,28.678,28.678,0,0,1,3.047-.946,11.528,11.528,0,0,1,2.632-.382,3.8,3.8,0,0,1,.976.11,78.646,78.646,0,0,0,.457-10.434,82.528,82.528,0,0,0-.925-10.609,81.309,81.309,0,0,0-2.316-10.48,75.854,75.854,0,0,0-3.714-10.046,68.067,68.067,0,0,0-5.12-9.307,60.155,60.155,0,0,0-6.534-8.263A52.145,52.145,0,0,0,165.26,18.78a13.2,13.2,0,0,1-.944,5.506,14.384,14.384,0,0,1-3.024,4.553,21.663,21.663,0,0,1-5.179,3.86,34.833,34.833,0,0,1-6.689,2.752,56.155,56.155,0,0,1-15.981,2.2h-.006a62.9,62.9,0,0,1-9.107-.656,52.423,52.423,0,0,1-8.554-1.967,36.056,36.056,0,0,1-7.361-3.272,21.9,21.9,0,0,1-5.532-4.571,14.627,14.627,0,0,1-2.958-5.449,13.869,13.869,0,0,1-.508-3.147,15.921,15.921,0,0,1,.227-3.429C81.034,20.949,66.658,29.99,55.695,42.8a89.431,89.431,0,0,0-7.306,9.861,104.759,104.759,0,0,0-6.122,11,131.367,131.367,0,0,0-5.081,12.124c-1.5,4.114-2.9,8.564-4.184,13.227a.632.632,0,0,0,0,.622c.24.365.97.441,1.54.441.066,0,.136,0,.208,0,0,.018-.008.037-.012.055v0c0,.017-.008.034-.011.051h.127A64.046,64.046,0,0,1,51.581,92.6a156.489,156.489,0,0,1,16.027,5.49c.009-.039.019-.078.029-.116l0-.011c.011-.042.023-.09.034-.136a.649.649,0,0,0,.634.389.83.83,0,0,0,.3-.057c.814-2.231,1.55-4.539,2.261-6.77s1.454-4.561,2.273-6.8a56.813,56.813,0,0,1,2.825-6.569.686.686,0,0,1,.69-.495.923.923,0,0,1,.711.329.713.713,0,0,1,.133.628,29.147,29.147,0,0,1-1.754,6.788l-.009.027c-.168.487-.343.99-.507,1.485-.637,1.648-1.173,3.381-1.692,5.057v0h0a45.116,45.116,0,0,1-3.287,8.533c-.506,4.314-.927,8.9-1.287,14.028-.321,4.568-.565,9.146-.8,13.574v.019c-.4,7.536-.819,15.329-1.627,23.476a7.292,7.292,0,0,0,1.834,2.441c1.283,1.092,2.557,2.272,3.786,3.506,1.172,1.177,2.342,2.443,3.479,3.763a91.594,91.594,0,0,1,6.213,8.148c3.868,5.658,7.322,11.8,10.663,17.74l0,0c2.221,3.949,4.517,8.033,6.91,11.928,1.288,2.1,2.5,3.973,3.706,5.736,1.354,1.979,2.666,3.767,4.011,5.466,1.444,1.824,2.931,3.543,4.418,5.109a62.557,62.557,0,0,0,4.928,4.664,55.972,55.972,0,0,0,5.54,4.132,54.271,54.271,0,0,0,6.255,3.511C129.168,227.567,130.072,227.544,130.971,227.544Zm69.573-133.92-.16.022a63.974,63.974,0,0,0-11.439,2.293c.459,8.756.549,17.736.637,26.42v0c.064,6.33.13,12.876.338,19.3.233,7.2.624,13.474,1.2,19.174a167.361,167.361,0,0,0,2.912,18.9c.69,3.184,1.487,6.312,2.368,9.3.924,3.132,1.973,6.218,3.118,9.173.23-6.6.35-13.628.367-21.5.017-7.8-.072-15.588-.151-21.5q-.025-1.577-.05-3.137v-.007c-.16-10.067-.31-19.577-.238-29.152.081-10.745.431-20.052,1.1-29.289ZM152.967,14.248c.009.032.021.066.033.1v0a.227.227,0,0,1,.053-.048l-.028-.017-.01-.006Zm-43.045-2.4h0l-.41.119-.031.009-.018.005c-.207.06-.421.122-.632.185.32-.036.64-.064.95-.085.054-.085.1-.161.14-.232Z" transform="translate(45.835 -2.37)"/>
    </g>
    <g id="Head" transform="translate(95.946 42.662)">
      <g id="HEAD-2" data-name="HEAD">
        <path id="_Skin-2" data-name="âœ‹ Skin" d="M83.068,38.146C81.441,18.314,76.488.749,53.214,0A81.259,81.259,0,0,0,22.332,6.454C-1.143,18.225-8.591,61.238,12.091,78.553a.22.22,0,0,0-.007.37A80.045,80.045,0,0,0,25.863,86.15c12.671,5.357,27.587,7.684,40.509,1.873,19.721-8.392,20.016-31.743,16.7-49.878Z" transform="translate(13.745 27.019)" fill="#d08b5b"/>
        <path id="_Ink-2" data-name="ðŸ– Ink" d="M171.178,84.362A5.9,5.9,0,0,0,172.9,81.6a5.4,5.4,0,0,0,0-3.024c-.318-1.048-1-1.882-.848-2.972a2.488,2.488,0,0,1,.071-.329c.592-2.053,2.05-3.534,1.529-5.809a3.942,3.942,0,0,0-.81-1.676c.043-.493.081-.991.111-1.488a7.945,7.945,0,0,0-.088-6.354,24.011,24.011,0,0,0-.517-2.993,5.753,5.753,0,0,0-.322-2.588,36.786,36.786,0,0,0-1.757-3.955,1.457,1.457,0,0,0-.153-1.063,9.885,9.885,0,0,0-1.307-1.66c-.34-.607-.683-1.21-1.022-1.8-.157-.273-.331-.576-.523-.9a3.083,3.083,0,0,0,.249-3.051,1.409,1.409,0,0,0-1.247-.715c-.513.031-1.031.054-1.552.073a11.1,11.1,0,0,0-3.257-2.837c-1.2-1.014-2.41-2.01-3.59-3.027l-1-.867-.007-.024c-.246-.9-.524-1.785-.8-2.676-.173-.552-.225-1.131-.763-1.432a11.032,11.032,0,0,0-4.14-.834l-.384-.339a6.027,6.027,0,0,0-.256-4.778,1.175,1.175,0,0,0-1.6-.42,5.361,5.361,0,0,1-3.711.979c-1.905-1.465-9.591-8.088-10.778-8.787-.015-.025-.027-.05-.042-.075a9.638,9.638,0,0,0-2.39-2.609l-.39-.408a4.961,4.961,0,0,1,.9-2.254c.052-.076.111-.149.171-.22a1.138,1.138,0,0,0-1.372-1.78c-.085.038-.171.076-.256.116-.911.406-1.919.848-2.969,1.22-.384-.144-.776-.274-1.133-.418l-3.824-1.537c-.629-.253-1.295-.468-1.9-.765a2.932,2.932,0,0,0-3.1-2.29,2.752,2.752,0,0,1,.39-.784c.052-.073.109-.145.168-.213.756-.879-.254-2.51-1.334-1.728l-.23.164c-.3.211-.608.408-.918.6a2.091,2.091,0,0,0-1.644-.037,16.916,16.916,0,0,0-3.638,1.822c-.046.032-.095.06-.141.09a3.113,3.113,0,0,0-2.279-1.139h-.044a2.981,2.981,0,0,0-2.792-1.331,2.844,2.844,0,0,0-5.572-.624L99.724,3.2a12.483,12.483,0,0,0-3.462-1.189,17.879,17.879,0,0,0-8.1.8c-.265.076-.53.155-.794.233-.378-.438-.733-.887-1.072-1.306a1.12,1.12,0,0,0-1.9.785,1.522,1.522,0,0,1-.614,1.43,9.092,9.092,0,0,1-1.577.074A5.183,5.183,0,0,1,80,3.617a2.926,2.926,0,0,1-1.222-1.008c-.966-1.523-3.419-1.934-4.587-.481a3.012,3.012,0,0,0-3.464,1.251,3.466,3.466,0,0,1-2.04,1.116c-.7.2-1.424.347-2.147.477a1.118,1.118,0,0,0-1.5-.364c-.337.249-.665.5-.988.767A13.965,13.965,0,0,1,56.7,4.759c-2.011-.822-3.857,1.424-3.525,3.309-.582.3-1.214.5-1.789.822a7.092,7.092,0,0,0-2.913,3.078c-.113.231-.214.465-.311.7-.469.382-.933.774-1.385,1.187L44.522,12.7a1.119,1.119,0,0,0-1.626.661,6.807,6.807,0,0,1-1.258,3.11,51.5,51.5,0,0,0-5.929,3.643c-2.178.683-4.493,1.081-6.4,1.529a1.079,1.079,0,0,0-.64,1.571q.583.9,1.164,1.8-1.625,1.586-3.06,3.3A61.4,61.4,0,0,0,19.871,38.66l-2.375.958a1.121,1.121,0,0,0-.488,1.846,7.065,7.065,0,0,1,.782.981A13.047,13.047,0,0,1,13.5,47.1a2.9,2.9,0,0,0-1.209,1.465c-.192.128-.382.265-.569.405a1.136,1.136,0,0,0-.225,1.761,7.069,7.069,0,0,1,1.173,1.259c.073.268.149.538.225.806a19.946,19.946,0,0,0-4.214,5.47.942.942,0,0,0-.725.142c-1.915,1.415-1.972,3.669-1.2,5.683a20.582,20.582,0,0,0,.73,9.089A8.537,8.537,0,0,0,5.312,77.69a92.158,92.158,0,0,0-.678,10.222,10.458,10.458,0,0,0-2.709,4.57l-1.287.64A1.259,1.259,0,0,0,0,94.234a9.014,9.014,0,0,0,2.067,5.112,11.255,11.255,0,0,0,1.749,3.159,23.965,23.965,0,0,1,1.507,2.074,1.319,1.319,0,0,1,.1.19,4.211,4.211,0,0,0-.46.747,4.841,4.841,0,0,0,.443,5.871,1.461,1.461,0,0,0-.088,2.038c3.363,3.842,6.166,8.513,10.833,10.554a1.165,1.165,0,0,1,.057.107,6.881,6.881,0,0,0-.3,5.809.609.609,0,0,0,.019.062c.412,1.232,1.171,3.207,2.538,3.591a4.6,4.6,0,0,0,1.275.173q1.628,1.568,3.251,3.14a10.916,10.916,0,0,1,.173,1.571,1.4,1.4,0,0,0,1.758,1.339c.315-.092,2.059-1.787,2.379-1.778.161.161.318.322.474.486a5.247,5.247,0,0,1,1.441,2.19,3.106,3.106,0,0,0,2.173,2.8,1.2,1.2,0,0,0,1.813,0c.038-.04.076-.081.116-.116l.182-.021q.419,1.251.841,2.5c.552,1.64,2.661,2.695,4.159,1.737.242.145.479.3.716.453.36.23.725.465,1.1.685.021.062.043.123.062.182a1.316,1.316,0,0,0,1.865.709,5.479,5.479,0,0,0,.588.152,5.918,5.918,0,0,0,3.107-.2,9.511,9.511,0,0,1,2.19-.782c.049,0,.1,0,.148,0a6.105,6.105,0,0,0,3.225,2.8,5.992,5.992,0,0,0,4.389-.29,10.194,10.194,0,0,0,1.381,2.074.841.841,0,0,0,1.173,0q.9-.8,1.787-1.6c.43-.166.864-.365,1.316-.549a25.226,25.226,0,0,0,4.277-1.654,7.231,7.231,0,0,0,1.688-1.49A12.155,12.155,0,0,0,70,146.132a2.5,2.5,0,0,0,1.145-.277,4.763,4.763,0,0,0,2.493-4.124,29.064,29.064,0,0,0,2.251-9.544,23.739,23.739,0,0,0,0-3.259,5.716,5.716,0,0,0-.538-1.962,6.07,6.07,0,0,1-.254-.659c.017-.73.026-1.46.036-2.188a4.1,4.1,0,0,1,1.036-1.666,2.673,2.673,0,0,0,.415-3.209q-.672-.892-1.341-1.785c.126-2.553.737-6.615-.619-7.042.055-.379.171-.754.237-1.131a6.867,6.867,0,0,0-.834-5.013c-.2-.329-.372-.621-.512-.905L73.25,101.8c-.135-.8-.268-1.614-.382-2.429-.059-1.038-.114-2.076-.173-3.117q-.082-1.436-.18-2.875c.026-.429.064-.858.118-1.287.325-2.557,1.37-3.5,3.18-5.281.284-.045.566-.095.844-.152a12.872,12.872,0,0,1,3.972-.533c1.443.161,2.735.785,4.138-.012.412-.237,1.32-.891,1.4-1.41a.323.323,0,0,1,.021-.083c.1-.014.223-.026.3-.028,1.114-.038,2.178.4,3.3.28a5.166,5.166,0,0,0,3.3-1.607,8.242,8.242,0,0,0,3.067.22,6.817,6.817,0,0,0,2.427-.82c.562-.3.384-.391,1-.145,1.391.564,2.65,1.308,4.216.922a4.481,4.481,0,0,0,2.1-1.228,7.173,7.173,0,0,0,.536-.538c.744.377,2.616,1.228,2.924,1.3a4.78,4.78,0,0,0,2.645-.1c.623-.209,1.386-.777,1.934-.894.709-.152,2.282.834,3.128,1.173a5.958,5.958,0,0,0,4.557.128c.517-.211,1.521-1.052,1.908-1.045a42.161,42.161,0,0,1,2.908,6.563c2.131,6.257,2.683,25.794,1.7,30.778-.038.147-.078.292-.118.438a70.877,70.877,0,0,1-4.489,12.782,20.877,20.877,0,0,1-8.33,9.312,23.631,23.631,0,0,1-12.944,2.432,44.926,44.926,0,0,1-8.385-1.472c-1.436-.372-2.86-.787-4.278-1.218-.619-.187-1.247-.363-1.853-.581a2.838,2.838,0,0,0-2.659.078,1.934,1.934,0,0,0-.687,2.617c.792,1.365,2.242,1.46,3.643,1.858,1.427.405,2.858.794,4.3,1.142a55.693,55.693,0,0,0,8.4,1.408,28.913,28.913,0,0,0,14.9-2.441c.521-.251,1.024-.519,1.51-.808-.18.251-.363.5-.547.751a1.646,1.646,0,0,0,.585,2.24c.228.118.455.232.685.344.031.073.064.147.1.22a5.021,5.021,0,0,0,3.432,2.432,20.338,20.338,0,0,0,5.218.066l4.7-.142c.37-.009.739-.021,1.109-.033l5.583-.168a5.575,5.575,0,0,0,3.138-.585,4.654,4.654,0,0,0,1.742-1.282,7.008,7.008,0,0,0,.865-.457,11.294,11.294,0,0,0,2.413-2.119c1.239.391,2.977.028,3.218-1.529.389-2.491,3.626-3.555,5.138-5.356a8.12,8.12,0,0,0,2.048-5.183c3.076-1.488,4.749-5.411,5.14-8.739.182-1.543.154-3.195.417-4.764a2.613,2.613,0,0,0,.308-.4,33.14,33.14,0,0,0,2.038-3.854,5.318,5.318,0,0,1,2.789-1,2.209,2.209,0,0,0,.585-4.318l-.033-.012a6.216,6.216,0,0,0-.192-5.046c.033-.166.064-.329.095-.5a7.553,7.553,0,0,0,2.014-5.368,6.567,6.567,0,0,1,2.038-.967,1.307,1.307,0,0,0,.308-2.356,3.989,3.989,0,0,1-.865-.877,5.565,5.565,0,0,0-.848-5.278l2.3-2.944a1.7,1.7,0,0,0,0-2.368Q171.923,84.951,171.178,84.362Z" transform="translate(-35.548 -28.441)"/>
      </g>
      <g id="FACIAL_HAIR" data-name="FACIAL HAIR" transform="translate(29.211 80.109)">
        <path id="_Ink-3" data-name="ðŸ– Ink" d="M36.724,2.528c-1.566-.294-3.185-.211-4.741-.553C30.466,1.641,29.261.649,27.794.187a4.287,4.287,0,0,0-3.807.657A5.521,5.521,0,0,0,20.93.462a14.282,14.282,0,0,0-4.548,1.632c-.166.085-.333.167-.5.249a33.6,33.6,0,0,0-7.97.506A9.5,9.5,0,0,0,2.059,6.472C.522,8.658.244,11.441.007,14.023c-.151,1.639,2.131,1.972,2.9.785a19.138,19.138,0,0,1,2.7-3.484A6.587,6.587,0,0,1,9.957,9.6c3.65-.233,7.324-.038,10.977-.2,2.118-.094,4.475-.906,5.329-2.744a6.365,6.365,0,0,0,4.673,2.4c1.794.136,3.616-.189,5.392.184,1.7.356,3.714,1.618,3.337,3.635a1.083,1.083,0,0,0,1.97.829c2.821-4.31.041-10.253-4.912-11.182" transform="translate(24.699 6.636)"/>
      </g>
      <g id="FACE" transform="translate(37.761 44.084)">
        <path id="_Ink-4" data-name="ðŸ– Ink" d="M25.657,45.461a9.063,9.063,0,0,1-3.431-.684,9.7,9.7,0,0,1-2.239-1.284,9.528,9.528,0,0,1-1.823-1.835,1.877,1.877,0,0,1-.38-1.455,2.1,2.1,0,0,1,.818-1.315,2.018,2.018,0,0,1,1.2-.417,1.744,1.744,0,0,1,.268.021,1.853,1.853,0,0,1,1.24.818l.073.1a6.4,6.4,0,0,0,2.345,1.964,5.334,5.334,0,0,0,2.326.542,5.164,5.164,0,0,0,.576-.032,6.066,6.066,0,0,0,2.561-.9,11.986,11.986,0,0,0,2.169-1.807c.155-.158.32-.33.533-.557a.844.844,0,0,1,.442-.34.908.908,0,0,1,.288-.046.978.978,0,0,1,.322.055.967.967,0,0,1,.48.363.892.892,0,0,1,.152.588,5.387,5.387,0,0,1-.641,2.09,6.979,6.979,0,0,1-1.371,1.757,8.815,8.815,0,0,1-2.077,1.445,8.659,8.659,0,0,1-2.3.789A8.505,8.505,0,0,1,25.657,45.461Zm2.415-13.648h0a8.305,8.305,0,0,1-2.956-.595,14.94,14.94,0,0,1-3.477-1.969,1.333,1.333,0,0,1-.485-.77,1.592,1.592,0,0,1,.069-.865,1.967,1.967,0,0,1,.585-.844,1.427,1.427,0,0,1,.912-.355,1.3,1.3,0,0,1,.706.216l.235.181,0,0a18.824,18.824,0,0,0,2.176,1.51,5.369,5.369,0,0,0,2.609.83,2.822,2.822,0,0,0,1.1-.216,3.08,3.08,0,0,0,1.026-.726,3.137,3.137,0,0,0,.6-2.529,4.774,4.774,0,0,0-1.27-2.243,9.26,9.26,0,0,0-1.923-1.549.594.594,0,0,1-.161-.684.893.893,0,0,1,.3-.426.911.911,0,0,1,.568-.187,1.212,1.212,0,0,1,.2.018,6.458,6.458,0,0,1,2.268.818,5.141,5.141,0,0,1,1.525,1.4,5.568,5.568,0,0,1,.974,3.725,6.128,6.128,0,0,1-.5,1.955,5.7,5.7,0,0,1-1.124,1.68A5.379,5.379,0,0,1,28.072,31.813ZM8.835,18.486A1.979,1.979,0,0,1,6.917,16.73a14.215,14.215,0,0,1,.076-3.709c.045-.36.091-.733.124-1.135A2.219,2.219,0,0,1,7.959,10.3a2.6,2.6,0,0,1,1.6-.561,1.972,1.972,0,0,1,1.208.379,1.787,1.787,0,0,1,.667,1.185,9.934,9.934,0,0,1-1.041,6.133,1.969,1.969,0,0,1-.7.8A1.607,1.607,0,0,1,8.835,18.486Zm28.237-.841a1.7,1.7,0,0,1-1.33-.569,5.182,5.182,0,0,1-.812-1.375,5.978,5.978,0,0,1-.413-1.656,3.506,3.506,0,0,1,.959-3.013,1.987,1.987,0,0,1,.154-.234,2.174,2.174,0,0,1,1.672-.96,1.815,1.815,0,0,1,.508.075,2.443,2.443,0,0,1,1.633,1.422,5.02,5.02,0,0,1,.2,2.751,9.2,9.2,0,0,1-.836,2.6,1.686,1.686,0,0,1-.722.712A2.193,2.193,0,0,1,37.072,17.645ZM.312,8.807A.308.308,0,0,1,.056,8.65a.343.343,0,0,1-.021-.337A11.7,11.7,0,0,1,2.662,4.995,16.241,16.241,0,0,1,6.177,2.6a15.138,15.138,0,0,1,4.175-1.453l.446-.078A10.884,10.884,0,0,1,12.62.87a2.818,2.818,0,0,1,2.248.837,1.9,1.9,0,0,1,.452,1.354,1.24,1.24,0,0,1-.452.885,3.468,3.468,0,0,1-2.374.695c-.187,0-.381,0-.568-.009H11.92c-.18,0-.384-.01-.586-.01-.186,0-.353,0-.508.013a16.081,16.081,0,0,0-3.534.6A24.028,24.028,0,0,0,.477,8.754.293.293,0,0,1,.312,8.807ZM43.306,7.012h0l-.188-.047a10.648,10.648,0,0,1-2.061-.8l-.669-.329A18.614,18.614,0,0,0,38,4.817a28.262,28.262,0,0,0-5.446-1.2A2.228,2.228,0,0,1,31.458,3.2a1.634,1.634,0,0,1-.611-.929A1.659,1.659,0,0,1,31.035.882,1.776,1.776,0,0,1,31.9.14,1.943,1.943,0,0,1,32.633,0a2.169,2.169,0,0,1,.424.042l.341.07A24.407,24.407,0,0,1,39.28,2.019a11.9,11.9,0,0,1,2.587,1.7A7.537,7.537,0,0,1,43.7,6.075c.064.493,0,.615-.062.7l-.019.024-.017.023a.473.473,0,0,1-.292.194Z" transform="translate(12.587 12.325)"/>
      </g>
    </g>
  </g>
</svg>
