<svg xmlns="http://www.w3.org/2000/svg" width="390.67" height="780" viewBox="0 0 390.67 780">
  <g id="peep-standing-7" transform="translate(28.736)">
    <g id="BODY" transform="translate(-28.736 150.264)">
      <path id="_Skin" data-name="âœ‹ Skin" d="M38.063,583.113c-.684,0-1.4-.017-2.121-.051-.96-.06-2.116-.1-3.455-.154h-.008c-3.135-.118-7.036-.264-10.4-.72a25.579,25.579,0,0,1-4.49-.951,8.886,8.886,0,0,1-1.649-.716,3.684,3.684,0,0,1-1.093-.911,2.384,2.384,0,0,1-.41-1.855,2.956,2.956,0,0,1,1.295-1.887,5.687,5.687,0,0,1-.482-1.595,5.129,5.129,0,0,1,.016-1.53A7.249,7.249,0,0,1,16.5,569.85a30.21,30.21,0,0,1,5.151-5.284,44.626,44.626,0,0,0,3.43-3.218c.885-.959,1.8-1.934,2.764-2.966a178.685,178.685,0,0,0,13.754-15.938c1.083-1.479,2.066-2.926,2.921-4.3a47.085,47.085,0,0,0,2.4-4.326,31.745,31.745,0,0,0,1.726-4.3,21.609,21.609,0,0,0,.9-4.224c1.257-8.179,2.374-16.5,3.455-24.544v-.007c1.305-9.718,2.655-19.766,4.258-29.616.863-5.3,1.729-10.128,2.647-14.752,1.03-5.188,2.1-9.993,3.269-14.69a68.137,68.137,0,0,1,1.992-6.853c.727-2.1,1.569-4.255,2.574-6.577,1.868-4.314,4.032-8.579,6.124-12.7l0,0c1.83-3.606,3.722-7.335,5.414-11.092.911-2.023,1.693-3.892,2.39-5.713.783-2.044,1.439-3.977,2.007-5.908.645-3.333,1.2-6.789,1.66-10.274.435-3.323.792-6.781,1.06-10.279.5-6.458.713-13.188.664-20.574-.041-6.157-.272-12.895-.708-20.6-.388-6.871-.9-13.865-1.395-20.629-.656-8.971-1.335-18.246-1.738-27.39-.217-4.92-.339-9.408-.372-13.72-.038-4.839.035-9.333.224-13.738-2.971-.291-5.511-.5-7.751-.685-3.7-.3-6.367-.525-8.33-.894-2.045-.385-3.206-.914-3.883-1.771a3.469,3.469,0,0,1-.651-1.454,8.36,8.36,0,0,1-.134-2.036,60.458,60.458,0,0,1,.792-6.32v0c.3-1.955.648-4.171.988-6.807-1.63-1.129-3.244-2.341-4.8-3.6a34.827,34.827,0,0,0-4.084,2.758,41.656,41.656,0,0,1-4.285,2.915,12.464,12.464,0,0,1-2.166.982,6.782,6.782,0,0,1-2.147.376c-.113,0-.226,0-.337-.01a3.346,3.346,0,0,1-1.7-1.185,17.068,17.068,0,0,1-1.407-2.009l-.219-.345c-7-11.02-13.516-21.8-19.92-32.966-4.553-7.167-8.223-13.362-11.218-18.937a133.373,133.373,0,0,1-7.4-15.9C.738,157.99-.59,149.541.237,141.141a57.227,57.227,0,0,1,2.789-12.63,101.87,101.87,0,0,1,5.758-13.484c2.194-4.355,4.9-9.219,8.514-15.309,3.275-5.516,7.055-11.631,11.057-18.106l.291-.471c1.359-2.016,2.724-4.084,4.168-6.274C36.135,69.835,39.568,64.631,43.3,59.5A130.876,130.876,0,0,1,55.376,44.954a76.636,76.636,0,0,1,6.762-6.168,55.582,55.582,0,0,1,7.317-5,42.991,42.991,0,0,1,7.926-3.518,38.14,38.14,0,0,1,4.208-1.1,37.055,37.055,0,0,1,4.381-.61h.075a26.065,26.065,0,0,0,4.778-.34,10.722,10.722,0,0,0,4.447-1.83A5.513,5.513,0,0,1,95.6,24.37a3.19,3.19,0,0,1,1.02-1.364,5.508,5.508,0,0,1,1.793-.875,17.179,17.179,0,0,1,2.649-.547,12.725,12.725,0,0,0,2.513-.6,9.415,9.415,0,0,1,2.817-.577,4.62,4.62,0,0,1,1.108.132,47.083,47.083,0,0,0,1.438-7.3,43.05,43.05,0,0,1,1.622-7.825,9.843,9.843,0,0,1,2.48-2.561,13,13,0,0,1,3.27-1.672A24.374,24.374,0,0,1,124.365,0a44.673,44.673,0,0,1,5.441.355c1.7.211,3.473.514,5.255.9a55.024,55.024,0,0,1,8.288,2.45,6.963,6.963,0,0,1,1.595.78,5.518,5.518,0,0,1,1.167,1.047,6.473,6.473,0,0,1,1.3,2.753,14.942,14.942,0,0,1,.317,3.4c0,1.209-.091,2.508-.175,3.763-.287,4.255-.583,8.655,2.05,11.517a8.323,8.323,0,0,0,4.272,1.045h0a7.914,7.914,0,0,1,1.712-.195c5.142,0,8.232,5.518,10.958,10.387.5.895.974,1.739,1.452,2.539,2.714.334,4.89.644,6.848.974,2.252.38,4.181.785,5.9,1.237a32.818,32.818,0,0,1,4.909,1.669,18.033,18.033,0,0,1,3.887,2.273c4.113,3.1,7.137,8.085,11.157,18.4,8.432,18.418,13.941,36.677,16.376,54.271a60.488,60.488,0,0,0,1.593,6.674c.608,2.05,1.332,4.147,2.211,6.412,1.635,4.208,3.577,8.367,5.456,12.389l0,.007c1.164,2.492,2.367,5.069,3.486,7.633,3.164,7.689,5.533,13.927,7.456,19.633a151.631,151.631,0,0,1,4.869,17.528,105.621,105.621,0,0,1,2.169,16.894,111.908,111.908,0,0,1-.643,17.73c-1.275-.228-2.583-.565-3.847-.891a42.869,42.869,0,0,0-5.181-1.107l-1.255,2.964a.336.336,0,0,1-.118-.145c-.887,6.056-.965,13.583-1.048,21.552v0c-.058,5.639-.119,11.47-.477,17.022-.193,3-.454,5.638-.8,8.069a59.065,59.065,0,0,1-1.465,7.337,33.083,33.083,0,0,1-2.355,6.277,21.676,21.676,0,0,1-1.581,2.639,17.11,17.11,0,0,1-1.886,2.251,14.63,14.63,0,0,1-2.22,1.822,14.064,14.064,0,0,1-2.581,1.352,15.456,15.456,0,0,1-2.97.842,19.15,19.15,0,0,1-3.386.29,27.6,27.6,0,0,1-5.489-.6c-.353,3.356-.812,6.763-1.365,10.125-.536,3.26-1.177,6.577-1.9,9.859-.7,3.171-1.507,6.4-2.391,9.612-.851,3.087-1.8,6.244-2.825,9.383-.981,3.008-2.06,6.094-3.208,9.173-1.093,2.933-2.284,5.954-3.539,8.981-2.313,5.579-4.885,11.291-7.861,17.462-1.255,2.42-2.293,4.461-3.282,6.558-1.166,2.473-2.1,4.694-2.861,6.791a48.461,48.461,0,0,0-2.01,7.072c-.245,1.23-.431,2.46-.551,3.657a34.933,34.933,0,0,0-.177,3.745l1.681.037a.837.837,0,0,1,.378.065.093.093,0,0,1,.055.046c.215.356-.134,2.631-.465,3.932-2.562,9.037-5.055,18.434-7.408,27.931-2.233,9.013-4.428,18.467-6.523,28.1a27.848,27.848,0,0,0-.755,3.466,42.806,42.806,0,0,1-.929,4.319c-.442,1.494-.951,2.39-1.554,2.739a1.471,1.471,0,0,1-.512.971,7.83,7.83,0,0,1-2.361,1.731h-.012a10.518,10.518,0,0,1-.53,4.712,13.259,13.259,0,0,0-.672,4.135,1.255,1.255,0,0,1,.448-.031c.236,0,.539.006.807.011h.036c.265.005.539.011.738.011a1,1,0,0,0,.314-.019s0,0,0-.005c1.467,0,3.128,3.108,3.148,5.214a5.73,5.73,0,0,1-.423,2.321,20.9,20.9,0,0,1-1.08,2.278h0a16.708,16.708,0,0,0-1.261,2.81,68.522,68.522,0,0,0-1.132,10.846v.005c-.094,1.853-.191,3.768-.368,5.647a5.613,5.613,0,0,1,1.514.564,3.7,3.7,0,0,1,1.02.826,2.891,2.891,0,0,1,.555.992,2.743,2.743,0,0,1,.12,1.064,3.15,3.15,0,0,1-1.068,2.074,4.262,4.262,0,0,1-2.636,1.031s-.2,1.821-.371,4.076a66.114,66.114,0,0,0-.256,6.786,5.072,5.072,0,0,1,3.348,1.87,14.193,14.193,0,0,1,1.871,3.129,15.8,15.8,0,0,1,5.278,1.071,46.8,46.8,0,0,1,5.084,2.325c4.085,2,7.977,3.972,11.568,5.866,3.909,2.062,7.585,4.094,10.926,6.041,1.17.776,2.6,1.564,4.106,2.4a51.8,51.8,0,0,1,6.577,4.063,13.694,13.694,0,0,1,2.475,2.388,6.492,6.492,0,0,1,1.306,2.71,5.319,5.319,0,0,1-.172,2.64,9.2,9.2,0,0,1-1.689,2.966,5.381,5.381,0,0,1-.862,1.965,5.635,5.635,0,0,1-1.1,1.31,2.214,2.214,0,0,1-1.413.593h0a1.672,1.672,0,0,1-.277-.023c-.575.056-1.257.084-2.027.084-11.955,0-43.84-6.7-55.844-9.224l-.077-.016c-1-.211-1.871-.393-2.564-.537-.422-.1-1.044-.221-1.764-.361h-.006a57.919,57.919,0,0,1-6.593-1.566,13.612,13.612,0,0,1-2.857-1.233,2.905,2.905,0,0,1-1.441-1.6,1.628,1.628,0,0,1,.169-1.164,4.439,4.439,0,0,1,1.176-1.327,25.08,25.08,0,0,1-1.314-7.907,21.082,21.082,0,0,1,.352-4.173,12.11,12.11,0,0,1,1.24-3.591,5.9,5.9,0,0,1,3.969-3.116,8.7,8.7,0,0,1,.748-2.752,6.385,6.385,0,0,1,1.438-1.985,5.9,5.9,0,0,1,1.97-1.2,6.754,6.754,0,0,1,2.346-.4,9,9,0,0,1,3.63.81c-.017-2.3.059-4.478.133-6.582h0c.057-1.619.115-3.292.133-5.047a11.927,11.927,0,0,1-3.345-.9,3.837,3.837,0,0,1-2.127-1.973,2.6,2.6,0,0,1-.295-1.366,3.782,3.782,0,0,1,.41-1.706,2.048,2.048,0,0,1,1.853-1.155h.01c.075,0,.484.018.933.038l.123.005h.016c.365.016.71.032.751.032h0c-.1-2.312-.087-4.519-.078-6.653v0a75.907,75.907,0,0,0-.606-12.064,4.422,4.422,0,0,0-2.227-2.77,7.839,7.839,0,0,1-1.16-.894,3.982,3.982,0,0,1-.171-1.774,4.221,4.221,0,0,1,.561-1.581,6.3,6.3,0,0,1,2.007-2.026,7.572,7.572,0,0,1,2.6-1.076,15.712,15.712,0,0,0-.021-4.991,14.885,14.885,0,0,1,.021-5.111,13.047,13.047,0,0,1-2.453-.237,4.133,4.133,0,0,1-1.974-1.02,1.972,1.972,0,0,0-1.462-.385h-.141c-.125,0-.27,0-.405-.01a24.481,24.481,0,0,0-1.135-5.251c-.547-1.7-1.23-3.391-1.891-5.024-.59-1.458-1.2-2.966-1.7-4.466a25.952,25.952,0,0,1-1.14-4.576,27.417,27.417,0,0,1-.378-4.163,39.308,39.308,0,0,1,.163-4.208c.249-2.818.745-5.7,1.225-8.485.4-2.321.814-4.722,1.08-7.066.566-5.114-.006-10.355-.559-15.423-.161-1.472-.327-2.993-.459-4.475-5.275,8.4-11.069,16.906-16.671,25.128v0c-5,7.34-10.174,14.93-15.043,22.539-2.622,4.1-4.943,7.863-7.095,11.513-2.418,4.1-4.561,7.947-6.551,11.758-2.139,4.1-4.095,8.157-5.812,12.065-1.839,4.186-3.48,8.369-4.878,12.433-1.48,4.3-2.741,8.631-3.749,12.864a124.224,124.224,0,0,0-2.425,13.355,18.838,18.838,0,0,0-.314,5.579,9.58,9.58,0,0,0,2.632,5.523l.142.04a22.392,22.392,0,0,1,1.28,4.117v0c.236.95.458,1.846.693,2.523a3.461,3.461,0,0,1,1.372,2.665,7.138,7.138,0,0,1-1.051,3.664,13,13,0,0,1-2.322,3c-.443.5-.848,1.066-1.24,1.61h0c-.212.294-.431.6-.653.889a93.045,93.045,0,0,0-7.818,11.3h0c-1.5,2.418-2.908,4.7-4.442,6.8a30.452,30.452,0,0,1-5.1,5.611,20.962,20.962,0,0,1-6.789,3.811,25.33,25.33,0,0,1-4.347,1.041A34.632,34.632,0,0,1,38.063,583.113ZM66.808,94.246h0c-3.776,7.354-7.541,14.067-11.51,20.522-4.216,6.857-8.733,13.545-13.809,20.445a22.813,22.813,0,0,0-3.674,4.919,9.51,9.51,0,0,0-1.16,4.095,10.529,10.529,0,0,0,.644,3.819,42.864,42.864,0,0,0,1.736,4.092h0c.483,1.043.983,2.121,1.481,3.314,1.915,4.251,4.007,8.519,6.218,12.686,2.133,4.02,4.456,8.1,6.906,12.118,4.587,7.53,9.771,15.145,15.849,23.279-.152-6.861-.3-13.849-.448-20.607l0-.186c-.624-28.954-1.27-58.895-2.228-88.5Z" transform="translate(49.981 -13.022)" fill="#d08b5b"/>
      <path id="_Pants" data-name="ðŸ‘– Pants" d="M120.584,5.692l18.077.162,5.267.035h.247l1.93.005,1.212,0,1.276-.007.888-.008c2.144-.023,3.708-.07,4.6-.138l.222-.019.145-.015,2.411-.29-.709,6.026-.427,3.643-.408,3.494c-6.517,55.989-9.52,87.9-8.989,95.216l.018.218.041.459,0,.019c.056.263.6.555,1.454.588l.078,0h1.836l.022,1.755a12.245,12.245,0,0,1-.067,1.36l-.018.178c-.006.059-.013.119-.02.183l-.107.9a4.823,4.823,0,0,0-.044,1.81l.006.013.013.022.374.543-.079.724-.076.664-.11.3-.09.256a40.286,40.286,0,0,0-1.19,4.367l-.085.381-.153.7-.468,2.187a278.625,278.625,0,0,1-15.773,50.341l-.232.543-.083.218-.111.287a114.814,114.814,0,0,1-4.83,10.452l-.108.213-1.913,3.764-.567,1.125a98.488,98.488,0,0,0-4.37,9.618l-.184.489-.181.491a39.325,39.325,0,0,0-2.626,13.288v1.223l-.83.523a18.1,18.1,0,0,1-8.939,3.034l-.164.006-.348.007c-3.354.029-6.423-.973-10.337-3.057l-.193-.1c-.43-.231-.872-.476-1.367-.755l-.167-.094-.539-.307-1.786-1.027-.538-.307a32.816,32.816,0,0,0-8.6-3.8l-.248-.06-.092-.021-.234.375c-1.523,2.445-3.639,6-6.327,10.633l-.631,1.087-1.108,1.916-.685,1.1-.7,1.122c-3.5,5.573-6.948,10.7-13.086,19.587l-.835,1.207-5.161,7.455c-3.46,5.011-5.7,8.3-7.915,11.663l-.8,1.217-.986,1.512c-4.319,6.647-7.948,12.683-11.141,18.622l-.59,1.1-.8.176a29.736,29.736,0,0,1-5.93.68l-.29,0h-.316c-8.189-.031-16.806-3.237-23.981-8.6l-.217-.163L0,287.611.114,286.6a104.993,104.993,0,0,1,6.052-24.479L6.4,261.5l.143-.384C8.8,255.056,11.2,249.6,15.56,240.352l.419-.888,2.893-6.12c1.271-2.7,2.18-4.655,3.044-6.56l.11-.243.756-1.684.092-.267a91.858,91.858,0,0,0,4.4-22.52l.032-.408.048-.646.034-.486a206.717,206.717,0,0,0,.17-21.414l-.046-1.339-.037-1-.058-1.505-.063-1.551-.071-1.444c-.413-8.25-1.151-19.507-3.191-48.7l-.87-12.423L20.975,79.235c-.43-6.151,57.381-4.665,57.381-4.665S58.61,11.87,72.893,3.23C81.944-2.246,120.584,5.692,120.584,5.692Z" transform="translate(109.261 159.596)" fill="#9ddadb"/>
      <path id="_Shoes" data-name="ðŸ‘Ÿ Shoes" d="M24.722,51.329a110.285,110.285,0,0,1-19.187-2L4.9,49.219l-.771-.138-1.68-.307-.393-.4A6.6,6.6,0,0,1,.059,44.7a6.339,6.339,0,0,1,.79-3.942A12.453,12.453,0,0,1,2.686,38.2,35.8,35.8,0,0,1,5.741,35.3L7.73,33.578a14.313,14.313,0,0,0,2.588-2.523L10.5,30.8l.088-.092a169.1,169.1,0,0,0,11.3-12.857A98.953,98.953,0,0,0,31,4.127l.206-.379.31-.574.609-.238a19.138,19.138,0,0,1,6.953-1.313,18.635,18.635,0,0,1,4.256.49,17.972,17.972,0,0,1,4.031,1.471l.154.079.149.079.154.084a18.972,18.972,0,0,1,2.587,1.815l.641.506.3.233A10.319,10.319,0,0,0,53.612,7.82a4.833,4.833,0,0,0,1.9.4,2.258,2.258,0,0,0,1.6-.487l.029-.033.026-.033.716-2,2.718,1.6.115.3.113.3a19.078,19.078,0,0,1,1.257,4.329,6.008,6.008,0,0,1-.542,3.139l-.035.085a16.148,16.148,0,0,1-1.53,2.684l-.817,1.234-.276.423c-.37.57-.685,1.075-.993,1.589l-.185.311-.626.933-.406.613c-.55.833-1.149,1.754-2,3.081L52.407,29.8l-.946,1.462c-2.413,3.712-3.962,5.948-5.717,8.25l-.466.607-.243.3-.242.3a44.32,44.32,0,0,1-3.28,3.6,32.867,32.867,0,0,1-3.435,2.939A25.622,25.622,0,0,1,34.463,49.5a21.746,21.746,0,0,1-3.822,1.506l-.175.049L30.3,51.1l-.169.014C28.333,51.258,26.562,51.329,24.722,51.329Zm163.258-15.5h0l-.579-.042c-4.922-.354-9.873-.884-15.135-1.621-5.135-.719-10.414-1.614-16.14-2.735l-1.1-.217c-8.1-1.61-16.063-3.436-28.418-6.513l-2.319-.58-3.779-.95-.1-.009a7.538,7.538,0,0,1-2.74-.8,6.3,6.3,0,0,1-2.009-1.655,8.41,8.41,0,0,1-1.655-5.329l0-.242v-.2a19.406,19.406,0,0,1,1.177-6.4,46.646,46.646,0,0,1,2.425-5.546l.087-.172.088-.171L120.824.324a5.168,5.168,0,0,1-.086,1.628,16.2,16.2,0,0,0-.166,1.687,2.379,2.379,0,0,0,.241,1.319,1.451,1.451,0,0,0,.938.554,6.271,6.271,0,0,0,1.426.126c.333,0,.672-.012,1-.023.257-.009.5-.017.73-.02l.292,0,.3-.008c.454-.015.936-.042,1.613-.09l1.9-.139.159-.01.154-.008.3-.014.187-.007.071-.005a14.844,14.844,0,0,0,4.878-1.6c.915-.409,1.952-.872,3.182-1.356l1.757-.7C141.522.941,142.481.6,143.642.239l.172-.053.091-.018A9.57,9.57,0,0,1,145.728,0a16.643,16.643,0,0,1,5.092.931,46.881,46.881,0,0,1,6.354,2.7l.361.181.388.2c.89.454,1.827.951,2.95,1.562l1.671.919.888.491c.9.5,1.831,1.012,2.219,1.224l.483.262.439.236c1.116.6,1.983,1.032,2.726,1.371l.25.113.06.032c6.679,3.618,12.626,7.091,18.18,10.619l.443.282.15.082a11.874,11.874,0,0,1,3.818,3.165A6.446,6.446,0,0,1,193.566,28c.1,2.615-1.566,5.194-4.695,7.262l-.2.127-.2.129-.492.307Z" transform="translate(64.667 516.7)" fill="#fff"/>
      <path id="_Jacket" data-name="ðŸ§¥ Jacket" d="M82.4,233.616l-.407-.012-.012-.093-.335-.023c-.763-.052-1.677-.093-2.689-.139-5.4-.243-13.453-.671-16.359-3.389q-.066-.062-.131-.128-.009-.087-.017-.174a33.662,33.662,0,0,1,.669-8.494c.237-1.443.474-2.881.609-4.305q.038-.4.067-.812.328.233.671.464c8.4,5.65,15.389,4.739,22.586,3.824,4.891-.622,9.876-1.247,15.439.046a35.528,35.528,0,0,1,4.9,1.712c3.762,1.517,7.753,3.2,11.239,1.424a5.131,5.131,0,0,0,1.634-1.976,2.009,2.009,0,0,0-.1-1.735c-.892-1.714-3.684-2.969-5.836-3.859l-.229-.094-3.956-1.6c1.26.148,2.512.306,3.747.509,1.645.27,3.3.626,4.95.984a45.86,45.86,0,0,0,10.75,1.456,1.571,1.571,0,0,0,.767-.452,1.6,1.6,0,0,0,.367-.867,4.579,4.579,0,0,0-.786-2.876,10.443,10.443,0,0,0-5.586-4.026l.192-.921a22.484,22.484,0,0,1,2.47.4,13.542,13.542,0,0,0,3.626.4,2.7,2.7,0,0,0,1.422-1.019,1.683,1.683,0,0,0,.073-1.44c-.577-1.74-2.806-3.611-4.2-4.427-4.8-3.176-10.334-4.716-15.838-6.257a93.374,93.374,0,0,1-9.728-3.108q-.334-.134-.666-.274a5.672,5.672,0,0,1,.534-.525c2.2-1.885,6.341-2.242,10.5-2.553,3.165-.237,6.327-.459,8.519-1.462a4.09,4.09,0,0,0,2.656-3.381,4.848,4.848,0,0,0-.913-2.466,4.9,4.9,0,0,0-2.175-1.563c-2.564-1.008-6.127-.713-8.928-.43l-1.215.124-.431.043a70.5,70.5,0,0,0-31.669,11.95l-.359.248-.278-.337q-4.363-5.3-8.512-10.778c-.031-.04-.061-.081-.091-.122,0-.05,0-.1,0-.149-.346-11.988-.53-24.029-.713-36.078-.358-23.469-.715-46.969-2.28-70.172l.458-.94q.487-1,.891-1.833l-.348.571-.668,1.106-.961,1.6L65.7,74.8l-.017.032a.633.633,0,0,0-.211,0,.683.683,0,0,0-.489.383,1.65,1.65,0,0,0-.128,1q.012.074.028.147l-.077.146q-.231.44-.464.878c-6,9.72-12.269,19.261-18.963,28.486a47.768,47.768,0,0,1-4.2,5.555c-3.343,4.034-7.1,8.456-6.685,12.48,8.483,24.909,23.693,47.274,40.037,67.749.074.092.148.185.218.279l-.2.288a78.7,78.7,0,0,1-23.9,22.374c-.34.185-.682.4-1.037.631a7.8,7.8,0,0,1-2.962,1.363,2.268,2.268,0,0,1-2.182-.967A673.15,673.15,0,0,1,5.51,148.2C-4.458,129.944.3,108.964,10.246,91.793l.867-1.564q1.008-1.82,2.019-3.648C26.722,62,40.79,36.579,62,17.869l.367-.292c5.553-4.4,11.79-8.411,18.868-9.652a39.526,39.526,0,0,1,4.217-.382,21.971,21.971,0,0,0,6.934-1.117q.335-.132.659-.282.008.384-.01.747c-.173,3.445-.081,6.311.667,1.349a19.377,19.377,0,0,1,.391-3.232,4.848,4.848,0,0,1,1.621-2.846A9.618,9.618,0,0,1,99.39.683l1.7-.423L102.122,0C106,34.057,114.446,67.364,122.9,100.677c10.331,40.728,20.662,81.464,22.661,123.585l.023.174a7.323,7.323,0,0,1-.347,3.841A2.956,2.956,0,0,1,142.809,230a52.761,52.761,0,0,1-6.036.967c-.535.065-1.069.129-1.6.2l-1.067.14a313.553,313.553,0,0,1-40.394,2.474Q88.053,233.782,82.4,233.616Zm92.776-5.525-.394-.058q-.008-.2-.013-.4a84.569,84.569,0,0,1,1.112-13.806,77.61,77.61,0,0,0,1.06-14.814l.02-3.657c.3-59.479-.478-120.323-18.055-177.611-.049-2.289-6.565-7.769-6.716-7.939a24.291,24.291,0,0,1-2.059-2.642q-.315-.469-.608-.953c.335.076.7.151,1.088.223a28.306,28.306,0,0,0,3.65.424c2.618.166,3.326.158,6.794,4.6a35.449,35.449,0,0,0,7.95,8.7q.478.053.96.111c6.52.779,12.34,2.011,17,4.982a21.935,21.935,0,0,1,8.9,11.589l1.03,2.4C203.453,54.6,209.863,70.191,212.8,86.691a110.656,110.656,0,0,0,11.49,37.82c10.3,22.553,19.1,46.954,17.68,72.075q-.129,2.067-.366,4.125-.031.271-.065.542l-.526-.138c-7.412-1.919-15.146-3.011-22.794-2.124l-.478.057c-.016-.159,1.044,9.958-10.387,27.1a27.438,27.438,0,0,1-2.1,2.4l-.29.031a123.776,123.776,0,0,1-13.059.7A117.483,117.483,0,0,1,175.173,228.091Z" transform="translate(50.659 8.272)" fill="#e86bbb"/>
      <path id="_Ink" data-name="ðŸ– Ink" d="M38.227,577.247a133.668,133.668,0,0,1-15.051-1.113l-.261-.03-.48-.054-.835-.136a16.361,16.361,0,0,1-3.364-.834,5.4,5.4,0,0,1-2.657-2.05,4.465,4.465,0,0,1-.719-2.748,3.676,3.676,0,0,1,1.135-2.43,6.762,6.762,0,0,1,.724-5.644,16.615,16.615,0,0,1,3.929-4.512,144.554,144.554,0,0,0,15.7-16.258c2.395-2.907,4.694-5.937,6.833-9.005,2.156-3.092,4.2-6.3,6.082-9.529,2.385-17.3,5.577-40.11,9.122-63.182.711-4.74,1.45-9,2.259-13.025.927-4.605,1.927-8.813,3.057-12.862,1.228-4.4,2.621-8.615,4.141-12.527a108.382,108.382,0,0,1,5.511-12.019l.748-1.422.4-.768c1.86-3.524,3.783-7.169,5.464-10.835.9-1.972,1.67-3.8,2.342-5.579.754-2,1.372-3.9,1.889-5.8.521-1.936.986-3.954,1.384-6,.379-1.947.709-3.984.981-6.052.5-3.814.823-7.811.984-12.22.3-8.182-.021-16.523-.329-24.588v0c-.046-1.2-.1-2.564-.146-3.886-.279-9.3-.7-18.76-1.1-27.907v-.009c-.393-8.921-.8-18.145-1.077-27.22-.312-10.181-.427-19.089-.352-27.235-.926-.1-2.123-.165-3.51-.244A74.03,74.03,0,0,1,70.4,248.382a17.926,17.926,0,0,1-4.59-1.525,7.327,7.327,0,0,1-1.644-1.149,4.339,4.339,0,0,1-1.031-1.463,21.409,21.409,0,0,1-.067-4.951c.148-1.657.427-3.342.7-4.971.291-1.755.592-3.568.726-5.339-1.034-.722-2.109-1.527-3.2-2.391-1.922,1.433-3.924,2.794-5.949,4.045a18.532,18.532,0,0,1-3.255,1.938,7.205,7.205,0,0,1-2.917.7,4.643,4.643,0,0,1-1.512-.248,5.006,5.006,0,0,1-1.418-.774,7.5,7.5,0,0,1-1.328-1.349,13.171,13.171,0,0,1-1.243-1.97c-4.5-7.1-8.826-14.118-12.855-20.848-4.3-7.175-8.423-14.307-12.266-21.2-1.286-2.385-2.649-4.81-3.967-7.155-3.15-5.6-6.407-11.4-9.024-17.338a77.848,77.848,0,0,1-3.393-9.081c-.474-1.579-.88-3.158-1.208-4.693-.344-1.611-.614-3.231-.8-4.813a37.4,37.4,0,0,1-.106-5.4,50.08,50.08,0,0,1,.634-5.73c.319-1.915.757-3.936,1.3-6.006.525-2,1.163-4.09,1.9-6.227a130.721,130.721,0,0,1,5.286-12.9c1.94-4.138,4.224-8.555,6.789-13.127,4.331-7.721,9.484-15.962,15.754-25.2,5.344-7.87,10.564-15.076,14.759-20.867l0,0,.929-1.282c2.991-3.614,5.722-6.663,8.347-9.322,1.553-1.573,3.109-3.048,4.625-4.384,1.647-1.451,3.308-2.793,4.937-3.989a56.257,56.257,0,0,1,5.257-3.437,45.528,45.528,0,0,1,5.586-2.728,38.635,38.635,0,0,1,5.922-1.862,35.332,35.332,0,0,1,6.266-.838l.219-.01c.335-.013.68-.02,1.046-.027a24.128,24.128,0,0,0,3.3-.22,6.021,6.021,0,0,0,2.893-1.139,6.139,6.139,0,0,1,.269-1.456,4.632,4.632,0,0,1,.553-1.154,4.884,4.884,0,0,1,1.782-1.575,16.615,16.615,0,0,1,5.025-1.4h0c.661-.114,1.286-.222,1.892-.353a3.356,3.356,0,0,1,1.255-.565,6.078,6.078,0,0,1,1.43-.158c.127,0,.258,0,.388.01a48.079,48.079,0,0,0,1.411-5.365,36.247,36.247,0,0,1,2.059-7,.506.506,0,0,1,.272-.1.254.254,0,0,1,.2.1c.274.33.279,1.446.017,3.412-.222,1.662-.589,3.585-.884,5.129v0c-.234,1.225-.419,2.193-.42,2.471a17.607,17.607,0,0,1-1.073,3.632,9.2,9.2,0,0,1-.929,1.667,6.247,6.247,0,0,1-1.291,1.35c.912,7.454,2.043,14.765,3.363,21.731l.8.105c1.764.233,3.56.484,5.3.727l.028,0c3.861.539,7.853,1.1,11.8,1.509a114.089,114.089,0,0,0,11.861.687c2.42,0,4.776-.105,7-.313h.112a12.556,12.556,0,0,0,8.119-2.905,20.014,20.014,0,0,0,5.237-7.026l-.544-1.946a26.845,26.845,0,0,1-2.994-2.135,27.533,27.533,0,0,1-2.712-2.555,25.073,25.073,0,0,1-4.206-6.1,19.575,19.575,0,0,1-1.954-6.967,16.489,16.489,0,0,1,1.048-7.294.549.549,0,0,1,.53-.362.56.56,0,0,1,.452.213.457.457,0,0,1,.049.433,14.712,14.712,0,0,0-.768,3.366,15.994,15.994,0,0,0,0,3.436,17.169,17.169,0,0,0,.715,3.369,17.618,17.618,0,0,0,1.364,3.163,6.757,6.757,0,0,0,3.252.664c.362,0,.731-.012,1.089-.023h.017a8.668,8.668,0,0,1,1.248-.092,8.071,8.071,0,0,1,2.09.275,8.842,8.842,0,0,1,1.9.765,13.091,13.091,0,0,1,3.307,2.641,41.761,41.761,0,0,1,5.03,7.213c.27.452.548.92.821,1.367l2.706.4c2.466.366,5.086.771,7.626,1.338a37.3,37.3,0,0,1,7.065,2.239,24.12,24.12,0,0,1,3.191,1.707,20.587,20.587,0,0,1,2.892,2.231,20.165,20.165,0,0,1,2.541,2.854,22.834,22.834,0,0,1,2.137,3.577l.467.991c2.019,4.294,3.753,8.094,5.3,11.619,1.842,4.2,3.445,8.063,4.9,11.813a185.446,185.446,0,0,1,7.731,24.325c.717,3.188,1.276,6.464,1.817,9.633v0c.469,2.748.954,5.589,1.539,8.36a72.014,72.014,0,0,0,2.193,8.213c2.318,6.126,5.049,12.208,7.69,18.091,2.084,4.641,4.238,9.44,6.178,14.233,1.044,2.579,1.943,4.95,2.75,7.249.906,2.58,1.673,5,2.344,7.408a51.9,51.9,0,0,1,2.458,8.909c.988,4.611,1.906,9.927,2.584,14.971a129.633,129.633,0,0,1,1.269,15.365c.048,4.975-.452,8.369-1.486,10.089a3.074,3.074,0,0,1-.835.945,1.94,1.94,0,0,1-1.05.361,71.011,71.011,0,0,0-8.621-2.017,1.343,1.343,0,0,1,.464.663,1.878,1.878,0,0,1,.063.851,150.8,150.8,0,0,0-1.088,21.5c.07,2.893.137,6.738.032,10.821a112.514,112.514,0,0,1-.942,12.444c-.3,2.185-.674,4.261-1.112,6.171a48.706,48.706,0,0,1-1.686,5.786,32.213,32.213,0,0,1-2.37,5.136,21.467,21.467,0,0,1-3.164,4.223,16.692,16.692,0,0,1-2.379,2.024,15.271,15.271,0,0,1-2.744,1.521,15.772,15.772,0,0,1-3.135.957,18.5,18.5,0,0,1-3.551.333,24.261,24.261,0,0,1-4.289-.4c-.257,2.576-.6,5.223-1.02,7.868-.4,2.546-.89,5.171-1.447,7.8-1.053,4.978-2.353,10.014-3.973,15.395-1.445,4.8-3.106,9.739-5.077,15.1-1.657,4.508-3.548,9.346-5.78,14.79a123.886,123.886,0,0,1-5.794,12.416,126.149,126.149,0,0,0-5.762,12.319,47.878,47.878,0,0,0-1.98,6.41,34.981,34.981,0,0,0-.894,6.7,2.009,2.009,0,0,1,1.634.681,3.188,3.188,0,0,1,.475,2.213,16.945,16.945,0,0,1-.419,2.528c-.049.221-.094.429-.133.619-1.045,4.661-2.372,9.169-3.874,14.157-1.355,4.581-2.686,9.634-4.069,15.448-1.233,5.185-2.392,10.481-3.513,15.6-1.444,6.6-2.938,13.425-4.606,20.084a3.187,3.187,0,0,1-1.111,1.751,2.222,2.222,0,0,1-1.119,1.714,4.122,4.122,0,0,1-2.17.648,2.679,2.679,0,0,1-.981-.169c.161,1.615.167,3.267.172,4.865,0,.52,0,1.057.011,1.585l.007.4.463,0a1.756,1.756,0,0,1,.437-.055,3.8,3.8,0,0,1,2.6,1.653,10.02,10.02,0,0,1,1.591,2.818,6.206,6.206,0,0,1,.468,2.036,6.726,6.726,0,0,1-.181,1.913,17.909,17.909,0,0,1-1.454,3.643,14.017,14.017,0,0,0-1.688,4.983c-.1,1.35-.206,2.75-.3,3.985-.224,2.843-.455,5.783-.58,8.7a5.693,5.693,0,0,1,1.611.935,4.323,4.323,0,0,1,1.014,1.228,4.264,4.264,0,0,1,.424,2.872,5.236,5.236,0,0,1-1.736,2.973,5.3,5.3,0,0,1-1.591.946,5.573,5.573,0,0,1-1.978.354H158.2c.187,1.942.255,3.928.322,5.848v.008c.023.677.047,1.376.077,2.071a7.165,7.165,0,0,1,3.093,1.793,12.02,12.02,0,0,1,2.194,2.884c3.711.251,7.173,2.015,10.521,3.721.934.476,1.9.969,2.842,1.41,6.517,3.21,13.031,6.7,19.363,10.36,1.158.771,2.583,1.561,4.092,2.4l0,0h0a54.839,54.839,0,0,1,6.862,4.26c2.359,1.829,3.742,3.637,4.226,5.527a6.376,6.376,0,0,1,.067,2.841,9.554,9.554,0,0,1-1.355,3.214,2.169,2.169,0,0,1,.739,1.766,3.969,3.969,0,0,1-.512,1.76,4.474,4.474,0,0,1-1.148,1.386l-.047.036a4.322,4.322,0,0,1-1.6.775,7,7,0,0,1-1.784.2,14.026,14.026,0,0,1-1.473-.086c-.738.018-1.494.028-2.246.028a108.548,108.548,0,0,1-10.906-.577c-3.446-.345-7.05-.841-11.019-1.516-7.367-1.252-14.83-2.931-22.048-4.556h0c-4.389-.988-8.928-2.009-13.315-2.9l-1.959-.35c-1.983-.358-4.1-.767-6.119-1.329a26.933,26.933,0,0,1-5.771-2.265,4.314,4.314,0,0,1-1.4-3.307,3.7,3.7,0,0,1,.262-1.374,2.567,2.567,0,0,1,.79-1.068,19.476,19.476,0,0,1-.629-5.2,22.757,22.757,0,0,1,.748-5.711,17.435,17.435,0,0,1,.947-2.669,12.99,12.99,0,0,1,1.359-2.344,8.564,8.564,0,0,1,4.045-3.11,9.6,9.6,0,0,1,.859-2.637,8,8,0,0,1,1.512-2.113,6.644,6.644,0,0,1,2.061-1.4,6.321,6.321,0,0,1,2.507-.509,7.477,7.477,0,0,1,2.114.318c.012-1.546.087-3.1.158-4.609.062-1.3.126-2.651.15-3.985a10.115,10.115,0,0,1-3.2-1.095,6.08,6.08,0,0,1-1.307-1,5.65,5.65,0,0,1-1.006-1.4,3.821,3.821,0,0,1-.45-2.047,4.523,4.523,0,0,1,.6-2.052,3.358,3.358,0,0,1,1.064-1.14,2.756,2.756,0,0,1,1.522-.447l.133,0c.058-2.753-.017-5.525-.09-8.206v-.015c-.045-1.681-.092-3.419-.107-5.139l0-.27c0-.138,0-.28,0-.417V484.3a9.5,9.5,0,0,0-.568-3.942,3.6,3.6,0,0,0-1.555-1.474,4,4,0,0,1-1.5-1.337,4.614,4.614,0,0,1-.429-2.175,5.7,5.7,0,0,1,.541-2.136,7.994,7.994,0,0,1,2.045-2.666,7.559,7.559,0,0,1,2.856-1.581,26.809,26.809,0,0,0,.314-3.589,27.044,27.044,0,0,1,.316-3.611,10.158,10.158,0,0,1-2.5-.427,6.66,6.66,0,0,1-2.129-1.113,5.43,5.43,0,0,0-.742-.037h0a3.838,3.838,0,0,1-1.211-.131.91.91,0,0,1-.64-.861,23,23,0,0,0-1.091-5.369c-.552-1.74-1.255-3.472-1.936-5.146l0,0v0c-.577-1.421-1.175-2.89-1.674-4.354a25.7,25.7,0,0,1-1.332-5.608,34.43,34.43,0,0,1-.215-5.671,90.656,90.656,0,0,1,1.425-11.4c.361-2.149.735-4.37,1-6.536a41.987,41.987,0,0,0,.163-6.873c-.113-2.3-.355-4.626-.588-6.879l-.025-.245q-.043-.417-.086-.833c-4.655,7.28-9.672,14.648-14.523,21.774l0,.006-.006.009c-4.76,6.991-9.682,14.221-14.327,21.456-2.5,3.9-4.723,7.48-6.787,10.948-2.318,3.9-4.381,7.549-6.3,11.169-2.067,3.889-3.969,7.74-5.652,11.447-1.8,3.969-3.426,7.933-4.827,11.783-1.483,4.074-2.772,8.171-3.831,12.176a126.4,126.4,0,0,0-2.663,12.627c-.091,1.17-.275,2.292-.453,3.376a20.14,20.14,0,0,0-.413,4.916,8.1,8.1,0,0,0,.55,2.369,8.779,8.779,0,0,0,1.441,2.367c.889.264,1.677,3.478,2.2,5.6.167.679.31,1.265.421,1.6a4.851,4.851,0,0,1,1.255,1.827,5.359,5.359,0,0,1,.336,2.092,9.53,9.53,0,0,1-1.373,4.364,12.817,12.817,0,0,1-2.867,3.456,45.014,45.014,0,0,1-4.33,5.876h0c-.331.4-.674.817-1.008,1.229l-.6,1c-1.763,2.945-3.881,6.407-6.224,9.756a72.332,72.332,0,0,1-7.277,8.955,20.039,20.039,0,0,1-4.083,2.307,27.14,27.14,0,0,1-4.619,1.463,38.987,38.987,0,0,1-4.984.768C41.8,577.172,40.057,577.247,38.227,577.247ZM56,524.718a17.366,17.366,0,0,0-6.306,1.19c-1.377,2.548-2.884,5.1-4.48,7.595-1.56,2.435-3.246,4.875-5.012,7.25A141.48,141.48,0,0,1,28.8,554.2a25.5,25.5,0,0,1-3.917,3.8,40.2,40.2,0,0,0-4.125,3.865,10.564,10.564,0,0,0-1.443,2.041A4.991,4.991,0,0,0,18.706,566a3.82,3.82,0,0,0,.322,1.689,5.654,5.654,0,0,0,1.207,1.7l1.13.206c3.967.717,7.19,1.213,10.143,1.562a86.813,86.813,0,0,0,10.227.65c1.766,0,3.507-.068,5.175-.2a19.974,19.974,0,0,0,4.062-1.638,25.04,25.04,0,0,0,3.662-2.411,33.257,33.257,0,0,0,3.274-2.969c.967-1,1.942-2.111,2.9-3.312,2.964-3.836,5.629-7.993,8.207-12.013,1.328-2.072,2.7-4.214,4.1-6.289.717-1.214,1.362-2.185,1.931-3.043l0,0c1.174-1.768,1.949-2.936,2.151-4.425s-.187-3.309-1.343-6.274a1.056,1.056,0,0,1-.114.441,3.48,3.48,0,0,1-3.261,1.638,6.882,6.882,0,0,1-2.665-.543,15.781,15.781,0,0,1-3.367-2.23,18.638,18.638,0,0,0-2.844-1.981,16.16,16.16,0,0,0-3.705-1.379,16.833,16.833,0,0,0-3.9-.456Zm-32.9,46.592h0c.088.041.176.081.261.118.063,0,.124,0,.192,0Zm112-45.573a20.223,20.223,0,0,0-1.885,5.669,31.692,31.692,0,0,0-.5,6.01,6.906,6.906,0,0,0,1.144,4.28,4.587,4.587,0,0,0,1.574,1.355,5.839,5.839,0,0,0,2.295.62l3.293.828c21.243,5.328,42.079,10.239,63.432,11.774a11.16,11.16,0,0,0,3.233-2.865,4.944,4.944,0,0,0,1.025-3.048,4.8,4.8,0,0,0-1.154-2.869,10.653,10.653,0,0,0-3.306-2.581c-5.657-3.612-11.73-7.167-18.567-10.87-1.733-.774-3.887-1.969-6.168-3.233-2.734-1.516-5.834-3.234-8.776-4.538-3.374-1.5-6.034-2.223-8.133-2.223a7.547,7.547,0,0,0-1.436.13c-1.639.5-3.261,1.147-4.83,1.772-1.51.6-3.071,1.224-4.644,1.714a21.622,21.622,0,0,1-4.864.98l-.22.008c-.514.022-1.084.066-1.686.111-1.029.078-2.195.166-3.331.166a10.8,10.8,0,0,1-4.006-.607,4.54,4.54,0,0,1-1.521-.974A3.941,3.941,0,0,1,135.1,525.737Zm-77.858-2.79a16.072,16.072,0,0,1,9.171,3.063c.475.313.925.625,1.36.926l.005,0a24.752,24.752,0,0,0,2.342,1.5,4.521,4.521,0,0,0,2.114.631,3.028,3.028,0,0,0,1.729-.563,13.812,13.812,0,0,1-1.825-3.086,10.157,10.157,0,0,1-.734-2.955,23.526,23.526,0,0,1,.638-6.57,105.883,105.883,0,0,1,2.226-12.553,126.668,126.668,0,0,1,3.6-12.22c1.341-3.845,2.925-7.836,4.709-11.864,1.635-3.691,3.5-7.555,5.547-11.484.805-1.551,1.7-3.23,2.738-5.131-1.2.109-2.427.164-3.636.164a39.607,39.607,0,0,1-6.72-.571A36.436,36.436,0,0,1,74,460.5a32.159,32.159,0,0,1-6-2.965,28.6,28.6,0,0,1-5.218-4.233c-1.964,12.271-3.615,24.78-5.211,36.876-1.443,10.934-2.936,22.239-4.654,33.333A17.879,17.879,0,0,1,57.239,522.947ZM140.6,519.9h0a12.111,12.111,0,0,0-1.484,4.508,9.75,9.75,0,0,0-.1,1.071h0a7.633,7.633,0,0,1-.249,1.808c.3.009.611.013.922.013a34.764,34.764,0,0,0,14.834-3.436c-.654-.047-1.456-.067-2.3-.089h0a36.92,36.92,0,0,1-6.932-.625,9.128,9.128,0,0,1-2.936-1.138,4.718,4.718,0,0,1-1.061-.915,3.773,3.773,0,0,1-.684-1.2Zm-3.37,3.454a7.1,7.1,0,0,0-1.377,1.289,1.92,1.92,0,0,0,.156,1.119,2.312,2.312,0,0,0,.725.905C136.888,525.305,137.041,524.284,137.227,523.353Zm10.587-15.638c.007,1.476.051,2.969.094,4.412v.009c.055,1.853.112,3.77.091,5.668,0,.285.018.582.038.9v0a4.17,4.17,0,0,1-.414,2.746l1.141.119a56.855,56.855,0,0,0,5.741.372,25.251,25.251,0,0,0,2.891-.155c.022-1.073.04-2.172.056-3.141.053-3.3.108-6.715.329-10.065a53.817,53.817,0,0,1-6.129-.477h0C150.42,507.962,149.148,507.813,147.815,507.715Zm10.917,13.462c-.006.164-.006.3,0,.412.448-.085.848-.176,1.223-.277-.111-.01-.225-.011-.336-.012h0a1.982,1.982,0,0,1-.659-.078A.964.964,0,0,1,158.732,521.177Zm-14.173-.282h0l.309.079a16.874,16.874,0,0,0,1.807.355,2.516,2.516,0,0,1-.249-.676,1.206,1.206,0,0,1-.9.371,1.184,1.184,0,0,1-.613-.162,1.734,1.734,0,0,1-.275.036Zm16.7-.261a1.184,1.184,0,0,1-.337.389l.056-.018c.139-.046.282-.093.421-.145C161.354,520.789,161.307,520.713,161.254,520.634Zm-18.683-.926h0a1.291,1.291,0,0,0,.347.467A2.275,2.275,0,0,1,142.571,519.708Zm16.071-2.178h0c0,.087,0,.166.01.244h0a.5.5,0,0,1,.155-.113c-.05-.037-.111-.083-.166-.13ZM144.11,499.107a2.431,2.431,0,0,0-1.182.775,2.1,2.1,0,0,0-.444,1.14,3.337,3.337,0,0,0,.46,1.908,3.78,3.78,0,0,0,1.452,1.461,7.569,7.569,0,0,0,2.963,1.052,27.962,27.962,0,0,0,3.3.28c.611.028,1.187.054,1.737.1.357.025.78.071,1.271.125h0a31.44,31.44,0,0,0,3.333.24c1.888,0,3.086-.365,3.666-1.116a1.927,1.927,0,0,0,.379-.951,3.56,3.56,0,0,0-.127-1.342,1.949,1.949,0,0,0-.724-.727c-.024.061-.053.12-.076.167-.022.652-.473,1.143-1.341,1.46a9.459,9.459,0,0,1-3.126.416,27.338,27.338,0,0,1-5.085-.539,11.635,11.635,0,0,1-3.425-1.08l-.12-.052c-.189-.081-.377-.157-.56-.231a5.085,5.085,0,0,1-1.753-.973A2.517,2.517,0,0,1,144.11,499.107Zm3.249-38.524h0a27.049,27.049,0,0,1,.487,4.548c.054,1.084.111,2.2.263,3.29a1.376,1.376,0,0,1,0,.937,1.15,1.15,0,0,1-.527.568l.335.1a20.669,20.669,0,0,0,5.692.892,14.579,14.579,0,0,0,3.178-.345,23.435,23.435,0,0,1,.484-6.518v0c.115-.69.223-1.342.313-1.99.026-.132.046-.265.065-.394v-.006c.026-.177.051-.345.091-.508l-10.378-.569Zm11.525.631h0c.027.2.038.421.048.632v.008c.009.187.019.381.039.569a.123.123,0,0,1,.033-.038,8.843,8.843,0,0,0,.682-.689l0,0c.124-.135.266-.289.4-.427-.372-.006-.758-.027-1.13-.048l-.079,0Zm-73.192-211.4c.706,9.406,1.336,19.7,1.926,31.482.526,10.509.971,21.187,1.4,31.513.362,8.667.735,17.63,1.156,26.469l.064,1.563c.139,3.491.3,8.091.326,12.707.024,4.671-.092,8.833-.356,12.724a111.438,111.438,0,0,1-1.529,12.586c-.387,2.117-.844,4.2-1.357,6.193-.537,2.083-1.154,4.136-1.834,6.1-1.852,4.153-3.83,8.33-5.743,12.369l0,.009c-1.823,3.849-3.707,7.829-5.476,11.773-1.982,4.42-3.6,8.328-4.962,11.946a123.3,123.3,0,0,0-3.946,12.317c-.556,2.137-1.039,4.277-1.435,6.359-.415,2.183-.749,4.378-.993,6.525a44.549,44.549,0,0,0,5.239,3.409,42.772,42.772,0,0,0,5.738,2.654,38.133,38.133,0,0,0,6.06,1.722,32.635,32.635,0,0,0,6.2.614,28.139,28.139,0,0,0,6.033-.642c1.728-3.23,3.574-6.473,5.644-9.915,1.845-3.068,3.827-6.224,6.058-9.649,4.146-6.364,8.548-12.712,12.806-18.852l0,0c5.734-8.27,11.664-16.822,17.045-25.521,1.448-2.51,2.84-5.116,4.137-7.747,1.267-2.569,2.479-5.233,3.6-7.919,1.1-2.62,2.141-5.337,3.1-8.074.938-2.666,1.827-5.429,2.642-8.214,1.557-5.32,2.916-10.965,4.039-16.779,1.047-5.419,1.927-11.186,2.616-17.14,2.667-23.035,2.3-46.68,1.949-69.546v0c-.045-2.89-.091-5.879-.13-8.837a.3.3,0,0,1,.029-.259.11.11,0,0,1,.084-.047.087.087,0,0,1,.063.029.3.3,0,0,1,.052.218c.022,0,.043,0,.063,0a.491.491,0,0,1,.517.4,100.207,100.207,0,0,1,1.005,12.382c.108,4.139.044,8.355-.018,12.432v.016c-.029,1.882-.058,3.829-.07,5.739-.008,2.541.047,5.161.1,7.694v.019c.106,5.05.215,10.273-.158,15.23a289.728,289.728,0,0,1-3.492,38.394c-.531,3.218-1.132,6.405-1.785,9.473-.677,3.181-1.431,6.332-2.242,9.367-.838,3.137-1.762,6.243-2.746,9.233-1.015,3.085-2.124,6.137-3.3,9.072,4.026.9,7.523,2.915,10.906,4.863a55.644,55.644,0,0,0,6.155,3.222,19.787,19.787,0,0,0,3.148,1.043,14.237,14.237,0,0,0,3.287.393,16.014,16.014,0,0,0,8.63-2.774,34.867,34.867,0,0,1,.206-3.747c.13-1.2.325-2.424.58-3.651a48.888,48.888,0,0,1,2.068-7.066,129.234,129.234,0,0,1,6.264-13.558v0l0,0a134.9,134.9,0,0,0,5.984-12.83c1.719-4.019,3.368-8.171,4.9-12.341,1.506-4.1,2.943-8.327,4.27-12.571,1.3-4.168,2.535-8.462,3.663-12.762,1.107-4.224,2.143-8.569,3.079-12.914l.4-1.849a46.977,46.977,0,0,1,1.843-6.778c-.659-.8-.5-2.1-.328-3.483a15.664,15.664,0,0,0,.164-2.082,4.705,4.705,0,0,1-2.156-.495,2.523,2.523,0,0,1-.826-.682,2.021,2.021,0,0,1-.4-1.028l-.007-.075a154.819,154.819,0,0,1-.682-17.221c.059-2.956.225-5.854.491-8.611.282-2.925.688-5.79,1.205-8.517l-.3.018c-.995.058-6.268.349-12.436.349-8.5,0-18.729-.565-19.164-3.259a31.811,31.811,0,0,1-.081-6.9c.2-2.293.563-4.619.918-6.869v0c.4-2.526.812-5.138.981-7.708.348-6.655.548-13.944.611-22.285.056-7.435,0-14.994-.053-22.3v-.173c-.009-1.234-.018-2.51-.027-3.763a29.105,29.105,0,0,1-3.852.237c-2.1,0-4.225-.183-6.276-.359h0c-1.632-.141-3.321-.286-5-.34-2.507-.185-5.087-.234-7.582-.281h0a88.128,88.128,0,0,1-11.849-.756l-.424-.068-.249.05c2.375,11.878,4.226,22.6,5.657,32.768.793,5.633,1.466,11.188,2,16.512.567,5.635,1,11.214,1.286,16.582l.016.325c.01.186.022.378.033.564v.01a17.364,17.364,0,0,1,.006,3.051,5.294,5.294,0,0,1-1.079,2.777c-1.432,1.788-3.62,2.117-5.737,2.436l-.445.067c-7.609,1.155-15.459,2.03-23.33,2.6-7.676.557-15.571.84-23.464.84-3.671,0-7.416-.061-11.132-.182ZM216.5,258.3a.331.331,0,0,1,.346.254,25.3,25.3,0,0,1,.365,5.432,32.113,32.113,0,0,1-.686,5.373,44.669,44.669,0,0,1-1.467,5.255c-.542,1.589-1.189,3.251-1.978,5.081a3.67,3.67,0,0,0-1.121,2.168,16.539,16.539,0,0,0-.237,2.708c-.016.5-.031.977-.072,1.4a21.052,21.052,0,0,0,3.013.228h0a16.141,16.141,0,0,0,3.241-.316,13.461,13.461,0,0,0,2.841-.917,13.018,13.018,0,0,0,2.465-1.467,14.571,14.571,0,0,0,2.117-1.968,18.185,18.185,0,0,0,1.794-2.419,24.084,24.084,0,0,0,1.5-2.82,37.947,37.947,0,0,0,2.219-6.643,88.78,88.78,0,0,0,2.074-15.906c.308-5.619.329-11.272.349-16.74V237c.015-4,.029-7.781.161-11.124a50.975,50.975,0,0,1,.868-8.5,1.273,1.273,0,0,1,.926-.96,94.442,94.442,0,0,0-12.039-.792l-1.116-.026a1.823,1.823,0,0,1-.822.576,45.967,45.967,0,0,1-.274,5.1,38.194,38.194,0,0,1-.889,4.993,33.088,33.088,0,0,1-1.6,4.821,30.6,30.6,0,0,1-2.406,4.584,16.658,16.658,0,0,0-2,3.517,37.392,37.392,0,0,0-1.352,3.825,1.779,1.779,0,0,1-.01,1.08,1.732,1.732,0,0,1-.583.852,62.1,62.1,0,0,0-2.06,8.1,71.586,71.586,0,0,0-1.022,8.276c-.177,2.688-.219,5.5-.124,8.354.09,2.688.3,5.49.636,8.328,3.973-5.823,5.52-12.787,6.6-19.444A.326.326,0,0,1,216.5,258.3ZM84.845,244.952c.077,0,.175.079.291.234.058.514.123,1.059.211,1.768,3.814.11,7.618.166,11.306.166h0c6.9,0,13.7-.2,20.2-.584,6.864-.408,13.634-1.043,20.123-1.886l.723-.095c.643-.086,1.3-.166,1.943-.243h0a52.24,52.24,0,0,0,6.006-.964,2.683,2.683,0,0,0,1.521-.676,2.851,2.851,0,0,0,.754-1.3,7.971,7.971,0,0,0,.087-3.259c-.243-5.122-.621-10.412-1.123-15.724-.479-5.063-1.086-10.315-1.806-15.61-1.328-9.771-3.053-19.893-5.272-30.944-1.849-9.209-4.084-19.245-6.834-30.683-2.449-10.19-5.072-20.528-7.608-30.526l-.006-.025c-4.135-16.3-8.41-33.154-12.052-49.825-1.96-8.973-3.586-17.178-4.97-25.084-.75-4.283-1.435-8.527-2.036-12.615-.631-4.289-1.191-8.554-1.666-12.676l-.5.127-.727.18-.029.007a30.139,30.139,0,0,0-2.908.809,4.774,4.774,0,0,0-1.865,1.1,4.34,4.34,0,0,0-1.048,1.991A17.214,17.214,0,0,0,97.11,22.1a41.626,41.626,0,0,1-1.849,7.283c-.808,2.367-1.777,4.726-2.713,7.007a82.819,82.819,0,0,0-3.809,10.639,8.892,8.892,0,0,0-.244,3.334,8.037,8.037,0,0,0,.371,1.709,5.22,5.22,0,0,0,.745,1.453,3.308,3.308,0,0,0,1.072.944,3.05,3.05,0,0,0,1.461.354,4.15,4.15,0,0,0,.793-.08,1.334,1.334,0,0,1,.391-.06,1.29,1.29,0,0,1,.785.272,1.573,1.573,0,0,1,.5.662,1.429,1.429,0,0,1,.089.768,1.276,1.276,0,0,1-.389.716c-2.5,2.363-4.979,4.826-7.377,7.209l0,0-1.474,1.463c2.932,9.888,6.125,19.843,9.491,29.589s7,19.557,10.794,29.142,7.864,19.232,12.08,28.634c4.226,9.423,8.717,18.866,13.349,28.066a1.245,1.245,0,0,1-.042,1.254,1.456,1.456,0,0,1-1.186.686,1.074,1.074,0,0,1-.983-.647c-4.615-9.249-9.092-18.715-13.306-28.133-4.224-9.44-8.3-19.085-12.106-28.666-3.82-9.611-7.479-19.419-10.874-29.153-3.407-9.768-6.641-19.725-9.612-29.595l-.361-1.2c-.153-.424.29-1.2,1.354-2.374.928-1.024,2.205-2.214,3.332-3.264a27.325,27.325,0,0,0,2.769-2.778A8.385,8.385,0,0,1,87.69,55.58a6.8,6.8,0,0,1-1.424-2.27,8.776,8.776,0,0,1-.534-2.7,14.734,14.734,0,0,1,.2-3.048c.691-4.256,2.917-9.175,5.071-13.932,2.222-4.909,4.321-9.546,4.492-12.948a14.912,14.912,0,0,1-3.483.857c-1.187.16-2.413.227-3.6.291a39.284,39.284,0,0,0-4.161.375,29.077,29.077,0,0,0-5.2,1.44,37.551,37.551,0,0,0-4.892,2.279,63.393,63.393,0,0,0-8.916,6.121C44.078,50.718,30.05,76.088,16.484,100.623l-.045.082c-.932,1.686-1.9,3.429-2.843,5.134A83.831,83.831,0,0,0,7.3,119.22a65.271,65.271,0,0,0-3.482,14.193,53.418,53.418,0,0,0-.407,7.211,47.754,47.754,0,0,0,.632,7.186A44.075,44.075,0,0,0,8.873,161.8c2.794,5.647,5.8,11.456,8.946,17.265,2.99,5.528,6.2,11.237,9.535,16.968,6.15,10.564,12.834,21.4,20.432,33.113a1.831,1.831,0,0,0,1.509.8,6.282,6.282,0,0,0,2.963-1.287l0,0c.385-.248.75-.482,1.084-.655a77.282,77.282,0,0,0,13.047-9.872,78.926,78.926,0,0,0,10.7-12.366c-4.457-5.583-8.379-10.74-11.991-15.766-1.981-2.757-3.889-5.505-5.67-8.169-1.881-2.813-3.686-5.629-5.366-8.37-1.761-2.874-3.442-5.76-5-8.578-1.621-2.94-3.155-5.9-4.56-8.795-1.46-3.008-2.825-6.043-4.059-9.019-1.277-3.081-2.452-6.193-3.492-9.25a7.631,7.631,0,0,1,.38-3.17,15.4,15.4,0,0,1,1.545-3.257,56.872,56.872,0,0,1,4.862-6.453,46.853,46.853,0,0,0,4.171-5.522c6.333-8.725,12.685-18.283,19.417-29.218a2,2,0,0,1,.315-1.624,1.128,1.128,0,0,1,.9-.413H68.6l.605-1.009c2.362-3.927,3.554-5.756,3.75-5.756a.023.023,0,0,1,.021.011c.113.181-.908,2.461-3.214,7.177.7,10.392,1.217,21.819,1.586,34.933.329,11.693.51,23.609.686,35.132.18,11.841.367,24.084.713,36.077,2.678,3.543,5.538,7.164,8.5,10.762a71.385,71.385,0,0,1,15.209-7.957,69.721,69.721,0,0,1,16.679-4.074l.435-.043.518-.053.038,0a48.6,48.6,0,0,1,4.99-.335,12.008,12.008,0,0,1,5.418,1,5.044,5.044,0,0,1,1.88,1.587,5.442,5.442,0,0,1,.912,2.615,4.616,4.616,0,0,1-.4,1.5,4.132,4.132,0,0,1-.82,1.164,6.618,6.618,0,0,1-2.662,1.519,34.408,34.408,0,0,1-7.735,1.134,53.179,53.179,0,0,0-5.825.645,14.011,14.011,0,0,0-2.469.682,6.627,6.627,0,0,0-1.933,1.113,93.508,93.508,0,0,0,9.679,3.092c2.732.765,5.557,1.556,8.248,2.539,1.448.529,2.742,1.07,3.955,1.653a31.344,31.344,0,0,1,3.746,2.112,13.554,13.554,0,0,1,3.006,2.473,4.912,4.912,0,0,1,1.551,3.246c-.078.9-.745,1.584-1.983,2.043-.195.017-.4.025-.607.025a16.678,16.678,0,0,1-3.216-.431h0a22.11,22.11,0,0,0-2.417-.393,13.015,13.015,0,0,1,3.26,1.6,9.4,9.4,0,0,1,2.54,2.568,5.629,5.629,0,0,1,.791,1.808,3.479,3.479,0,0,1-.028,1.96,1.913,1.913,0,0,1-1.406,1.2c-.215.006-.435.009-.655.009a49.364,49.364,0,0,1-10.265-1.474c-1.617-.349-3.29-.71-4.928-.979l.465.189a25.543,25.543,0,0,1,4.155,2.057A7.852,7.852,0,0,1,123,232.649a3.164,3.164,0,0,1,.8,1.6,2.628,2.628,0,0,1-.331,1.646,6.36,6.36,0,0,1-1.647,1.838,7.527,7.527,0,0,1-3.543.825c-2.653,0-5.439-1.123-8.133-2.209a34.875,34.875,0,0,0-4.829-1.691,29.591,29.591,0,0,0-6.78-.745,65.8,65.8,0,0,0-8.4.7l-.089.011a64.707,64.707,0,0,1-8.124.685,25.718,25.718,0,0,1-7.124-.941,24.781,24.781,0,0,1-3.746-1.407,29.6,29.6,0,0,1-3.919-2.238c-.136,1.434-.378,2.909-.612,4.336v0a33.354,33.354,0,0,0-.665,8.373,8.013,8.013,0,0,0,2.854,1.563,23.751,23.751,0,0,0,3.98.942,87.09,87.09,0,0,0,8.709.785h0c1.24.069,2.311.128,3.2.207l0-.033c.011-.1.008-.286,0-.5v0a3.071,3.071,0,0,1,.148-1.4A.115.115,0,0,1,84.845,244.952ZM158.271,21.586a1.72,1.72,0,0,1,1.1.367,2.377,2.377,0,0,1,.756,1.221c.194.59.409,1.191.617,1.772a20.468,20.468,0,0,1,1.554,6.473c2.185,7.122,4.185,14.558,5.944,22.1,1.679,7.2,3.193,14.733,4.5,22.388,1.238,7.255,2.332,14.863,3.25,22.613.862,7.272,1.6,14.935,2.2,22.777,1.052,13.849,1.712,28.829,2.016,45.8.259,14.462.247,28.735.15,45.716a52.151,52.151,0,0,1-.176,7.467c-.217,2.482-.559,4.994-.889,7.422v.006c-.3,2.243-.62,4.563-.836,6.847a55.914,55.914,0,0,0-.272,6.876,117.444,117.444,0,0,0,16.671,1.182,123.776,123.776,0,0,0,13.008-.693,23.919,23.919,0,0,1,1-2.259,37.09,37.09,0,0,0,4.527-6.954,35.659,35.659,0,0,0,2.681-7.292,40.321,40.321,0,0,0,1.107-7.541,51.5,51.5,0,0,0-.192-7.7,84.474,84.474,0,0,0-3.19-15.522c-1.482-5.066-3.262-10.028-5.108-15.089-1.011.043-2.095.063-3.315.063-1.405,0-2.835-.027-4.218-.054h-.007c-1.383-.027-2.814-.054-4.221-.054-.408,0-.8,0-1.177.007a55.443,55.443,0,0,1,1.86,9.258v0c.162,1.14.33,2.319.521,3.471.458,2.88,1.048,5.835,1.8,9.033l.19.8c.02.084.041.169.062.254l.006.025a5.419,5.419,0,0,1,.165,3.106,1.628,1.628,0,0,1-1.509,1.115,1.5,1.5,0,0,1-1.051-.44c-1.122-1.279-1.356-3.018-1.582-4.7-.088-.656-.179-1.334-.323-1.963l-.125-.93c-.059-.435-.119-.867-.186-1.346-.812-5.849-1.651-11.9-.2-17.685a3.735,3.735,0,0,0-.763-.062c-.38,0-.809.027-1.264.056l-.063,0c-.519.033-.986.06-1.437.06a4.451,4.451,0,0,1-1.67-.239,1.175,1.175,0,0,1-.8-1.013,26.594,26.594,0,0,0-.427-3.97,34.738,34.738,0,0,1-.538-5.306c.021-1.9.451-3.161,1.313-3.864a7.042,7.042,0,0,1,4.232-.94c.269,0,.54,0,.779.006h.019c.257,0,.5.006.737.006.253,0,.468,0,.657-.011,2.1-.085,4.152-.16,6.191-.16l.516,0a220.14,220.14,0,0,1-8.462-23.715c-.983-3.451-1.781-6.7-2.438-9.944-.632-3.114-1.115-6.126-1.477-9.207a130.141,130.141,0,0,1-.778-17.818c.107-6.079.5-12.4.949-19.717.355-5.751.757-12.269,1.064-19.534l.054-1.318a.229.229,0,0,1,.066-.168.3.3,0,0,1,.208-.084.218.218,0,0,1,.229.183c.358,2.307.618,4.667.794,7.213.157,2.268.242,4.633.262,7.231.038,4.829-.164,9.743-.36,14.5-.164,4-.335,8.145-.361,12.214a117.359,117.359,0,0,0,.485,12.19c.19,2.081.458,4.219.8,6.355.323,2.037.721,4.142,1.182,6.254.852,3.9,1.932,7.912,3.3,12.264,2.543,8.086,5.726,16.151,8.8,23.951,2.993,7.584,6.088,15.425,8.591,23.278,1.347,4.227,2.421,8.119,3.281,11.9a104.364,104.364,0,0,1,2.064,12.214,48.737,48.737,0,0,1,5.591-.315,69.14,69.14,0,0,1,17.377,2.451c.155-1.351.278-2.73.363-4.1.173-3.059.2-6.206.07-9.356-.122-3.028-.385-6.148-.784-9.275-.382-2.991-.9-6.08-1.536-9.18-.607-2.949-1.342-6-2.186-9.073-.8-2.9-1.716-5.912-2.733-8.952-.951-2.842-2.02-5.808-3.178-8.817-2.033-5.282-4.414-10.9-7.28-17.178-1.524-2.956-2.927-6.014-4.172-9.089-1.235-3.053-2.347-6.205-3.3-9.369-.951-3.142-1.775-6.382-2.45-9.629-.671-3.225-1.212-6.545-1.609-9.867-.742-4.167-1.715-8.361-2.975-12.822-1.125-3.981-2.45-8.076-4.054-12.518-3.08-8.534-6.7-16.971-9.892-24.414h0a26.983,26.983,0,0,0-1.869-4.1,21.63,21.63,0,0,0-2.312-3.327,19.907,19.907,0,0,0-2.722-2.646,21.345,21.345,0,0,0-3.1-2.056,30.053,30.053,0,0,0-7.2-2.707,66.507,66.507,0,0,0-8.308-1.44c4.346,7.2,8.582,14.29,11.787,19.658a1.992,1.992,0,0,1-.279,2.056,9.23,9.23,0,0,1-1.7,1.68,12.5,12.5,0,0,0-.993.885,14.266,14.266,0,0,1,5.827,5.835,18.714,18.714,0,0,1,1.542,3.852,27.406,27.406,0,0,1,.824,4.306,52.689,52.689,0,0,1,.088,9.464c-.219,3.259-.62,6.561-1.007,9.755a93.669,93.669,0,0,0-.994,12.4c-.331,3.864-.6,7.8-.865,11.607-.292,4.234-.594,8.612-.979,12.912-.432,4.82-.925,9.026-1.507,12.855a.615.615,0,0,1-.642.536.794.794,0,0,1-.824-.733c.049-5.171.263-10.821.654-17.273.349-5.755.8-11.6,1.245-17.251.536-6.881,1.09-14,1.457-21l.142-1.628c.19-2.224.365-4.616.365-7.036a31.161,31.161,0,0,0-.708-7.124,16.855,16.855,0,0,0-1.076-3.194,11.82,11.82,0,0,0-1.728-2.735,10.089,10.089,0,0,0-2.508-2.116,11.765,11.765,0,0,0-3.415-1.336,1.378,1.378,0,0,1-1.137-1.2,1.7,1.7,0,0,1,.748-1.782,17.232,17.232,0,0,0,4.044-3.11c-2.5-4.01-4.9-8.174-7.224-12.2-3.276-5.677-6.662-11.546-10.364-17.07a16.008,16.008,0,0,0-3.523-3.731,5.54,5.54,0,0,0-2.927-.687,28.719,28.719,0,0,1-3.706-.432,23.96,23.96,0,0,0,2.018,2.591,4.1,4.1,0,0,1,1.252-1.226A2.96,2.96,0,0,1,158.271,21.586ZM99.523,231.058a35.367,35.367,0,0,1,4.453.27,37.539,37.539,0,0,1,6.258,2.061c1.421.562,2.89,1.143,4.359,1.581a17.262,17.262,0,0,0,4.5.784c1.154-.262,1.751-.611,1.774-1.038.019-.352-.346-.751-1.087-1.183a12.463,12.463,0,0,0-2.034-.9c-4.342-2.072-8.767-3.948-13.3-5.847l-2.511-1.052a1.516,1.516,0,0,1-.944-1.722,1.378,1.378,0,0,1,.42-.754,1.277,1.277,0,0,1,.868-.318,1.8,1.8,0,0,1,.413.05c3.523.83,7.021,1.605,9.675,2.188,1.54.314,3.114.656,4.636.986a126.3,126.3,0,0,0,14.211,2.522,3.448,3.448,0,0,0-.851-1.224,9.94,9.94,0,0,0-1.567-1.224,31.539,31.539,0,0,0-4.626-2.366c-3.527-1.514-7.625-2.858-10.617-3.839h-.007c-1.145-.375-2.134-.7-2.834-.95a9.721,9.721,0,0,0-1.98-.526c-1.4-.282-2.995-.6-3.57-1.472a1.459,1.459,0,0,1-.182-1.143,1.052,1.052,0,0,1,.472-.742,1.743,1.743,0,0,1,.924-.213,12.84,12.84,0,0,1,3.618.9,11.64,11.64,0,0,0,1.991.584c6.636,1.684,13.516,2.727,20.169,3.737l.241.037a22.7,22.7,0,0,0-4.2-3.3,31.257,31.257,0,0,0-4.745-2.372,84.53,84.53,0,0,0-10.356-3.18c-2.956-.772-6.011-1.569-8.827-2.6l-.258-.059a9.848,9.848,0,0,1-1.781-.562,2.062,2.062,0,0,1-1.161-1.016,1.535,1.535,0,0,1,.344-1.439c2.642-3.894,9.542-4.576,15.087-5.125,1.827-.181,3.551-.351,4.9-.618a4.6,4.6,0,0,0,2.782-1.212,1.207,1.207,0,0,0,.221-.994,1.885,1.885,0,0,0-.68-.9,3.9,3.9,0,0,0-1.222-.579,12.835,12.835,0,0,0-3.558-.4,60.415,60.415,0,0,0-8.455.835h-.007c-.619.093-1.153.173-1.542.221a70.534,70.534,0,0,0-8.3,2.1,68.6,68.6,0,0,0-8.067,3.14A62.747,62.747,0,0,0,85,206.339a55.01,55.01,0,0,0-6.813,5.177,1.408,1.408,0,0,1-.945.378,1.485,1.485,0,0,1-.682-.172A80.427,80.427,0,0,1,63.6,224.806c.906.713,1.817,1.388,2.71,2.005a1.207,1.207,0,0,1,1.026.69,29.374,29.374,0,0,0,3.966,2.437,23.857,23.857,0,0,0,3.794,1.53,22.783,22.783,0,0,0,3.671.793,27.084,27.084,0,0,0,3.6.226,64.424,64.424,0,0,0,8.115-.685h0l.228-.029A69.482,69.482,0,0,1,99.523,231.058ZM67.465,93.094c-2.6,4.951-5.425,9.89-8.65,15.1-2.878,4.648-6,9.4-9.558,14.53-1.308,1.881-2.73,3.857-4.346,6.042l-.182.233c-.266.34-.542.684-.785.987a18.5,18.5,0,0,0-3.244,5.026,6.311,6.311,0,0,0-.358,2.761,8.019,8.019,0,0,0,1.068,3.171c1.8,4.36,3.79,8.768,5.93,13.1,2.084,4.223,4.362,8.491,6.771,12.685,2.346,4.084,4.878,8.208,7.527,12.258,2.577,3.94,5.334,7.916,8.195,11.82-.13-5.9-.259-11.891-.384-17.683C68.882,146.893,68.3,119.77,67.465,93.094Zm135.583,71.523a55.761,55.761,0,0,1-8.054,1.061,21.776,21.776,0,0,0-2.627.279,2.338,2.338,0,0,0-1.448.741,4.023,4.023,0,0,0-.458,2.767c.087,1.4.385,3.365.8,6.089.085.563.163,1.074.247,1.632.7,0,1.436.007,2.247.007,1.561,0,3.148-.009,4.683-.018h.154c1.549-.009,3.151-.018,4.726-.018,1.671,0,3.14.011,4.49.032-1.26-3.41-2.577-6.858-3.851-10.193ZM155.88,23.743a26.738,26.738,0,0,0,3.626,3.216l.228.166-.1-.2c-.206-.4-.4-.836-.592-1.255l0,0a17.658,17.658,0,0,0-1.025-2.031l-.119-.184h-.022a4.748,4.748,0,0,0-.923.142l-.017,0a4.918,4.918,0,0,1-.962.146ZM81.6,193.367a1.5,1.5,0,0,1-1.282-.7c-1.98-4.656-.621-10.668.784-15.387-6.134-1.525-5.452-5.688-4.729-10.1a28.112,28.112,0,0,0,.485-4.346.178.178,0,0,1,.047-.139.227.227,0,0,1,.166-.068.232.232,0,0,1,.052.006,4.01,4.01,0,0,1,.6,1.22,5.106,5.106,0,0,1,.2,1.3,14.813,14.813,0,0,1-.273,2.748,8.7,8.7,0,0,0,.028,4.432,3.672,3.672,0,0,0,1.343,1.772,6.066,6.066,0,0,0,2.116.921,21.336,21.336,0,0,0,4.844.417l.6.005.354.006c4.695.081,9.465.223,14.079.36h.022c4.183.125,8.508.253,12.764.336-.262-2.063-.395-4.187-.524-6.242-.059-.945-.121-1.922-.193-2.875a21.1,21.1,0,0,1-.133-2.158v0a9.634,9.634,0,0,0-.84-4.515,43.639,43.639,0,0,1-7.086,1.652,49.8,49.8,0,0,1-7.259.52c-.351,0-.706,0-1.057-.01-1.424.038-2.89.1-4.308.156-2.47.1-5.025.205-7.523.205a58.518,58.518,0,0,1-7.073-.376c3.944-.609,8.16-.91,12.237-1.2h0a129.471,129.471,0,0,0,15.086-1.668c.619-.16,1.254-.381,1.869-.6a12.963,12.963,0,0,1,3.539-.874,2.833,2.833,0,0,1,1.756-.752,2.155,2.155,0,0,1,1.592.787,6.679,6.679,0,0,1,1.353,2.7,8.973,8.973,0,0,1,.338,2.9c.047.648.1,1.307.143,1.945l0,.048c.114,1.533.231,3.118.333,4.683a12.71,12.71,0,0,0,.187,2.462c.252,1.961.565,4.4-.218,5.312a1.053,1.053,0,0,1-.808.367c-5.047-.256-10.174-.365-15.132-.47h0c-5.7-.121-11.584-.245-17.385-.594,0,.652-.017,1.314-.029,1.954v0c-.029,1.509-.059,3.069.02,4.605a22.559,22.559,0,0,0,.255,3.3,14.921,14.921,0,0,1,.082,4.881,1.389,1.389,0,0,1-.546.785A1.524,1.524,0,0,1,81.6,193.367Z" transform="translate(47.736 -5.55)"/>
    </g>
    <g id="Head" transform="translate(95.946 42.662)">
      <g id="HEAD-2" data-name="HEAD">
        <path id="_Skin-2" data-name="âœ‹ Skin" d="M79.677,12.249C71.862,1.179,52.225-.067,39.814,0,15.3-.2,10.173,27.973,8.893,47.716a11.046,11.046,0,0,0-6.882,3.411c-2.1,2.5-2.826,6.8-.857,9.594C2.462,62.579,4.528,63.2,6.688,63.3c7.155-.683,8.622,5.7,12.146,10.478C27.876,86,43.541,89.961,57.909,90.022c4.88.13,10.759.5,13.884-4.1,9.871-17.111,10.086-39.805,10.694-59.2.084-4.964.062-10.22-2.811-14.481Z" transform="translate(14.456 28.915)" fill="#d08b5b"/>
        <path id="_Ink-2" data-name="ðŸ– Ink" d="M78.964,127.857a25.637,25.637,0,0,1-3.773-.443c-.938-.154-1.889-.36-2.83-.6-.834-.194-1.659-.419-2.472-.683a12.8,12.8,0,0,1-2.811-1.112l-1.583-.595a15.326,15.326,0,0,1-1.927-.884l-1.721-.8a23.705,23.705,0,0,1-2.086-1.135.417.417,0,0,1-.182-.173c-.175-.1-.353-.19-.529-.289-.028-.014-.007-.1.031-.178a.148.148,0,0,1,.059-.2.309.309,0,0,1,.273,0,.238.238,0,0,1-.024-.021c-.119-.064-.235-.126-.351-.19a.19.19,0,0,1-.026-.318.186.186,0,0,1,.1-.038l-.007,0c-.021-.014,0-.081.026-.154a.159.159,0,0,1,.026-.249c.154-.121.514.1.645.175.149.083.3.161.45.242a.141.141,0,0,1,.059-.059c-.22-.116-.438-.235-.656-.353-.135-.071-.311-.22-.133-.36.142-.114.51.081.685.18a.156.156,0,0,1,.074-.029c-.076-.043-.156-.083-.232-.128-.213-.118-.069-.488.152-.365l.078.048a1.033,1.033,0,0,1,.483.173,17.555,17.555,0,0,0,2.315,1.225c.54.256,1.083.51,1.628.756a13.837,13.837,0,0,0,1.654.69q2.137.832,4.315,1.55a34.767,34.767,0,0,0,6.257,1.18c.275.021.55.04.825.05l1.8-.012q1.753-.181,3.5-.358c.408-.057.806-.128,1.2-.211.206-.05.413-.1.616-.161.071-.009.142-.024.213-.035a15.33,15.33,0,0,0,1.481-.477q.462-.188.917-.4a16.142,16.142,0,0,0,2.917-1.789l3.491-3.475,1.064-1.451a32.119,32.119,0,0,0,3.365-6.39l1.436-4.138q.224-.746.427-1.5.409-1.678.818-3.354.135-.615.263-1.225a72.449,72.449,0,0,0,1.062-7.691c.455-4.688.578-9.39.611-14.1q.032-4.22-.059-8.437c-.033-1.631-.057-3.261-.08-4.892-.031-1.73-.064-3.463-.109-5.193a.161.161,0,0,1,.031-.1c0-.2-.007-.408-.01-.614,0-.135.05-.194.126-.206q-.021-1.852-.026-3.7a.182.182,0,0,1,.088-.163v-.313a13.984,13.984,0,0,0-.848-2.5,9.247,9.247,0,0,0-.412-.846,4.64,4.64,0,0,0-.73-1.131,5.074,5.074,0,0,0-.91-1.123l-.436-.313a2.959,2.959,0,0,1-.455-.3c-.282-.173-.562-.349-.844-.522-.164-.085-.057-.3.059-.356v-.007a.337.337,0,0,1-.085-.052,13.863,13.863,0,0,0-1.066-.91.2.2,0,0,1-.2-.033q-.327-.306-.668-.59a14.3,14.3,0,0,0-1.6-.91A23.8,23.8,0,0,0,91.96,43.7c-.2-.067-.406-.126-.609-.186-.289-.014-.577-.029-.865-.042a259.4,259.4,0,0,0-32.22.591q-3.96.32-7.908.761c-2.316.259-5.092.25-7.22,1.311-.09.045-.176.093-.26.142a16.093,16.093,0,0,0,.979,3.109,12.566,12.566,0,0,1,1.055,4.805,12.012,12.012,0,0,1-.65,3.394,21.767,21.767,0,0,1-1.193,4.568,64.473,64.473,0,0,0-3.8,22.577,1.1,1.1,0,0,1-.126.544c.047.34.093.68.148,1.018.213,1.309-1.513,1.96-2.109,1.092a.249.249,0,0,1-.147.071c-.152.014-.4-.235-.472-.348-.092-.171-.19-.337-.294-.5l-.038-.017.192.4c.1.209-.3.311-.415.119q-.16-.252-.32-.484c-.062.045-.13.057-.175-.016a7.842,7.842,0,0,0-1.306-1.631,6.07,6.07,0,0,0-2.538-1.218,8.786,8.786,0,0,0-2.244-.026,7.605,7.605,0,0,0-2.5.7q-.935.644-1.875,1.287c-.154.161-.3.329-.439.5a8.886,8.886,0,0,0-1.069,1.8c-.012.04-.024.081-.035.118a7.352,7.352,0,0,0-.339,1.65c-.007.713-.012,1.424-.019,2.138a9.29,9.29,0,0,0,.694,2.683,3.8,3.8,0,0,0,.8,1.353,5.951,5.951,0,0,0,.661.927,8.364,8.364,0,0,0,1.626.837c.142.038.285.076.429.1a6.936,6.936,0,0,0,2.318.462,9.419,9.419,0,0,0,2.965-.263,7.945,7.945,0,0,0,1.735-.519,8.563,8.563,0,0,0,1.512-.974c.052-.033.13-.014.216.028.1-.076.209-.149.311-.232.047-.033.09.007.111.05l.028-.021c.187-.128.7.273.469.51a2.486,2.486,0,0,1,.289.211c.412.016,1.244.775,1.088.893a9.073,9.073,0,0,1-.725.562c.22.163.51.417.375.519a4.653,4.653,0,0,1-.784.6c-.19.145-.384.282-.588.408a6.755,6.755,0,0,1-.678.346c.405.784.792,1.576,1.152,2.382a21.748,21.748,0,0,0,2.3,3.927,12.086,12.086,0,0,0,1.633,2.157,25.851,25.851,0,0,0,2.477,2.465c.351.249.709.491,1.081.713a17.681,17.681,0,0,0,3.036,1.842c.126.069.225.22.078.339,0,0-.01,0-.014.007q.526.3,1.059.59c.14.076.427.223.213.4-.138.114-.562-.09-.815-.223l.111.062c.078.043.529.27.251.415a.609.609,0,0,1-.4-.069c-.133-.05-.266-.1-.4-.161,0,.043-.019.083-.088.116a.6.6,0,0,1-.159,0q.434.245.87.484c.085.045.488.268.223.405a.542.542,0,0,1-.377-.062,6.6,6.6,0,0,1-.649-.287l-.149-.083a.626.626,0,0,1-.114-.012c.232.126.467.246.7.365.14.076.375.23.173.386-.14.107-.517-.085-.739-.211a.4.4,0,0,1-.055.055c-.166.126-.592-.152-.728-.225a36.784,36.784,0,0,1-3.4-2.029c-.668-.429-1.32-.879-1.958-1.37a24.263,24.263,0,0,1-3.346-3.2,21.617,21.617,0,0,1-1.744-2.2,30.458,30.458,0,0,1-2.68-4.866c-.012-.026.012-.092.047-.159-.161-.4-.318-.8-.474-1.211-.408.054-.818.092-1.223.116a10.2,10.2,0,0,1-2.78-.228,9.652,9.652,0,0,1-3.116-.931,16.549,16.549,0,0,1-1.642-.934,9.622,9.622,0,0,1-1.348-.865,8.374,8.374,0,0,1-3.079-5.842,10.186,10.186,0,0,1-.116-3.008,9.971,9.971,0,0,1,.476-2.114,8.525,8.525,0,0,1,2.413-3.989,7.538,7.538,0,0,1,.623-.573,8.261,8.261,0,0,1,2.178-1.275c.152-.074.306-.142.46-.206l-.187-.431c-.066.019-.3-.019-.325-.1-.076-.206-.147-.417-.22-.623a.327.327,0,0,1-.157.043v.239c0,.069-.128.5-.2.273-.073-.2-.14-.412-.211-.619a.271.271,0,0,1-.121-.135c-.007-.021-.014-.043-.024-.064,0,0-.012,0-.016,0v.074c0,.045-.116.386-.138.32a27.761,27.761,0,0,1-1-3.451,18.351,18.351,0,0,1-.424-1.958q-.174-.892-.306-1.794l-.021-.149-.007-.033c-.007-.064-.014-.13-.024-.194q-.142-1.02-.232-2.05c-.126-1.413-.176-2.832-.161-4.25-.031.012-.059.029-.09.043a13.615,13.615,0,0,1-1.928.647,6.613,6.613,0,0,1-5.135,2.876,6.774,6.774,0,0,1-2.227-.258q-.112.026-.231.041a5.287,5.287,0,0,1-1.535-.234,3.808,3.808,0,0,1-2.18-.68,1.609,1.609,0,0,1-.5-.069,3.025,3.025,0,0,1-3.62-2.094,5.6,5.6,0,0,1-2.1-2.216,12.924,12.924,0,0,1-2.13-4.181L.5,60.232a3.96,3.96,0,0,1-.354-1.594,9.282,9.282,0,0,1,.289-4.47A5.086,5.086,0,0,1,.9,51.957a6.261,6.261,0,0,1,1.739-2.391,4.4,4.4,0,0,1,.865-2.476,5.245,5.245,0,0,1,3.93-2.08c.78-2,3.144-2.467,5.183-1.8a4,4,0,0,1,3.326-1.132,4.75,4.75,0,0,1,2.683,1.315q.293.084.584.174a3.261,3.261,0,0,1,2.1-.171,4.069,4.069,0,0,1,2.524,2.261c.173.119.341.242.506.37a2.051,2.051,0,0,1,.494.317,1.117,1.117,0,0,1,.513.581,8.391,8.391,0,0,1,.842,1.006q.283-.654.583-1.3a.709.709,0,0,0,.886-.466C28.7,43.4,30.6,38.329,32.389,35.993a12.2,12.2,0,0,1-7.167,2.1q-.163,0-.328-.014a11.06,11.06,0,0,1-4.012,0,21,21,0,0,1-2.494-1.1c-.2-.1-.391-.209-.585-.317-.084-.071-.163-.151-.244-.227a1.59,1.59,0,0,1-.527-.05,3.134,3.134,0,0,1-1.75-1.247,2.48,2.48,0,0,1-.19-.341,5.437,5.437,0,0,1-1.1-1.487,5.272,5.272,0,0,1-.552-2.164,4.145,4.145,0,0,1,.128-2.192c.028-.076.061-.149.092-.225.014-.047.024-.1.04-.145a3.485,3.485,0,0,1,.286-.684,2.741,2.741,0,0,1,.212-.641c.011-.1.025-.2.041-.3a3.879,3.879,0,0,1,.641-4.434,2.854,2.854,0,0,1,.457-2.2,3.532,3.532,0,0,1,1.323-1.138,3.63,3.63,0,0,1,.373-.13,5.025,5.025,0,0,1,.624-.477c.056-1.456,1.577-2.266,2.812-2.984.8-.465,1.152-1.347,1.977-1.793a8.643,8.643,0,0,1,3.056-.637,32.35,32.35,0,0,1,7.222-.246,3.34,3.34,0,0,1,2.849,1.815,5.215,5.215,0,0,1,2.932,1.786,7.509,7.509,0,0,1,2.132,3.534,2.681,2.681,0,0,1,.53.379,10.393,10.393,0,0,1-.4,2.847,2.359,2.359,0,0,1-.363,1.538,4.34,4.34,0,0,1-.081,1.326c.54.959.035,2.408-.722,3.358l-.006.536a.679.679,0,0,0,.13-.086c3.435-2.923,6.965-2.506,11.137-4.178a76.69,76.69,0,0,1,11.458-1.343c-.051-.008-.1-.013-.153-.021a12.976,12.976,0,0,1-5.412-2.265,2.777,2.777,0,0,1-1.188-.62,2.592,2.592,0,0,1-.732-1.056q-.1-.1-.188-.206a2.483,2.483,0,0,1-1.968-2.708,3.59,3.59,0,0,1-.785-3.178,2.7,2.7,0,0,1-.145-2.387,2.554,2.554,0,0,1-.2-2.888,2.006,2.006,0,0,1,1.094-3.129,2.26,2.26,0,0,1,.741-1.162A2.485,2.485,0,0,1,54,4.434a1.849,1.849,0,0,1,.828-1.221,2.053,2.053,0,0,1,.68-.308,2.616,2.616,0,0,1,1.12-1.3,2.659,2.659,0,0,1,2.058-.223A2.989,2.989,0,0,1,62.849.516a3.01,3.01,0,0,1,3.532.3,2.983,2.983,0,0,1,3.681.574,3.238,3.238,0,0,1,4.364,1.364,3.208,3.208,0,0,1,3.407,2.3c.073.059.145.12.216.181A2.729,2.729,0,0,1,80.369,6.5a2.6,2.6,0,0,1,.361,1.428,2.419,2.419,0,0,1,1.19,1.423,2.378,2.378,0,0,1-.124,1.7,2.737,2.737,0,0,1,.428,3.122,2.43,2.43,0,0,1,.324,1.319,2.723,2.723,0,0,1-.8,1.755,2.365,2.365,0,0,1-.567,3.006,5.717,5.717,0,0,1-3.861,3.831,20.386,20.386,0,0,1-3.159.885A58.606,58.606,0,0,1,86.848,28.1a.589.589,0,0,0,.556-.046c.089.048.18.091.27.14q1.692.928,3.308,2.007c0-.119,0-.237.007-.358a9.819,9.819,0,0,1,.341-2.862,4.477,4.477,0,0,1-.73-1.531c-.344-1.354.311-3.282,1.487-3.744a3.694,3.694,0,0,1,2.5-2.3,2.826,2.826,0,0,1,.3-.236,2.345,2.345,0,0,1,.779-.346,2.621,2.621,0,0,1,1.061-1.591,2.8,2.8,0,0,1,2.607-.318q.24-.081.486-.141a3.362,3.362,0,0,1,4.655.281,2.78,2.78,0,0,1,2.618.113,2.74,2.74,0,0,1,1.25,1.764,3.005,3.005,0,0,1,2.793,2.136,2.7,2.7,0,0,1,2.327,2.2,2.472,2.472,0,0,1,1.853,1.151,2.337,2.337,0,0,1,.326,1.028,2.536,2.536,0,0,1,.97.812,2.468,2.468,0,0,1,.369,2.047c.038.076.079.151.115.228a6.3,6.3,0,0,1,.306.818,3.146,3.146,0,0,1,.538,1.955c.083.294.164.589.231.886a9.681,9.681,0,0,1,.182,3.588,10.2,10.2,0,0,1-.405,1.685,1.623,1.623,0,0,1-.085.294,8.987,8.987,0,0,1-.4,1.27q-.6.793-1.254,1.541a9.707,9.707,0,0,1-1.268,1.536,9.1,9.1,0,0,1-1.121.939,8.709,8.709,0,0,1-2.634,1.458c-.17-.035-.34-.063-.51-.09a8.67,8.67,0,0,1-3.811.657,5.757,5.757,0,0,1-3.06-.838l.3.6a.625.625,0,0,0-.074.044,2.97,2.97,0,0,0-.646-.788.721.721,0,0,0-1.117.144l-.012.023a.67.67,0,0,0-.012.644l.1.151c.012.014.024.029.038.043h-.006a5.086,5.086,0,0,1,.944,1.519q.306.544.581,1.1a.826.826,0,0,0,.5.335.813.813,0,0,0,.324.76,2.457,2.457,0,0,1,.224-.368,3.977,3.977,0,0,1,4.527-1.348c.3-.051.6-.093.907-.117a11.036,11.036,0,0,1,2.986.219,6.173,6.173,0,0,1,.868.624,8.017,8.017,0,0,1,.642.623c.154.115.305.238.454.365a4.09,4.09,0,0,1,1.417,1.564,8.931,8.931,0,0,1,.775,1.329c1.033,1.768,2.226,3.963,1.294,5.7a2.133,2.133,0,0,1,.213.621,2.371,2.371,0,0,1-.482,1.8c.046.371.071.731.091,1.047.11,1.777-.3,4.212-1.863,4.937q-.036.044-.075.088a1.357,1.357,0,0,1-.548.491,2.137,2.137,0,0,1-.183.116c-.028.024-.059.043-.088.066.033-.034.064-.07.1-.1a5.144,5.144,0,0,1-2.6.312,15.828,15.828,0,0,1-1.573.464,7.935,7.935,0,0,1-4.758.035,2.941,2.941,0,0,1-1.015-.7q.032,1.65.1,3.3c.1,2.78.092,5.558.071,8.34-.024,3.131-.111,6.264-.28,9.393q-.117,2.357-.372,4.7-.213,2.286-.5,4.562a64.385,64.385,0,0,1-2.109,9.277c-.4,1.308-.829,2.633-1.322,3.927-.209.595-.429,1.183-.668,1.766A32.693,32.693,0,0,1,96,120.391a22.167,22.167,0,0,1-3.875,3.688,17.465,17.465,0,0,1-3.761,2.252,21.823,21.823,0,0,1-8.765,1.531Q79.279,127.862,78.964,127.857ZM35.889,94.65a2.485,2.485,0,0,1-.443-.313c-.021-.017-.04-.036-.059-.052.062.154-.054.249-.209.218a1.586,1.586,0,0,1-.728-.6c-.007-.012-.012-.024-.019-.035a1.97,1.97,0,0,1-.336-.292c-.076.109-.223.19-.289.057a3.522,3.522,0,0,0-.934-1.4,3.662,3.662,0,0,0-.879-.9c-.185-.156-.377-.306-.574-.448a5.244,5.244,0,0,0-1.09-.36c-.076-.024-.154-.038-.23-.059-.168-.031-.334-.062-.5-.085a9.077,9.077,0,0,0-2.06-.05.339.339,0,0,1-.294-.2c-.154.007-.306.014-.46.028-.254.009-.2-.348-.007-.384.242-.045.483-.078.72-.107a.149.149,0,0,1,0-.064,8.535,8.535,0,0,0-1.3.033c-.19.01.036-.341.14-.36.047-.01.095-.014.145-.024a.065.065,0,0,1-.01-.019h-.012c-.261.012-.439-.4-.126-.46.078-.014.154-.024.23-.038a.146.146,0,0,1,0-.109c-.135,0-.268,0-.4,0,.074,0,.128-.322.216-.334l.208-.028a.524.524,0,0,1,.194-.3A10.36,10.36,0,0,1,28.1,87.81c.043-.1.1-.232.163-.232a12.158,12.158,0,0,1,1.446.047.078.078,0,0,1,.055-.019l.225.055a5.721,5.721,0,0,1,.794.171,6.745,6.745,0,0,1,1.813.851,10.766,10.766,0,0,1,1.481,1.138,5.579,5.579,0,0,1,.45.434c.23.189.453.384.666.576.261.239.514.486.756.742a5.1,5.1,0,0,1,.889,1.465c.085.173-.019.277-.194.247a.818.818,0,0,1-.294-.145c.017.04.036.076.052.116.092.183.014.313-.2.244l-.033-.021a5.436,5.436,0,0,1,.294.6c.092.185.009.313-.2.242a2.481,2.481,0,0,1-.313-.211c.045.1.092.2.133.3.08.158.015.252-.118.252A.362.362,0,0,1,35.889,94.65Z" transform="translate(-7.821 -6.636)"/>
      </g>
      <g id="FACE" transform="translate(37.761 44.084)">
        <path id="teeth" d="M2.92,1.816c3.978-2.66,24.112-2.14,25.971-.1s6.153,7.866-3.046,10.727S5.257,14.3,2.29,10.8l-.175-.209C-.69,7.185-.979,4.423,2.92,1.816Z" transform="translate(20.303 48.045)" fill="#fff"/>
        <path id="_Ink-3" data-name="ðŸ– Ink" d="M21,50.745A31.5,31.5,0,0,1,11.7,49.462a16.568,16.568,0,0,1-3.711-1.646,9.336,9.336,0,0,1-2.646-2.351,7.079,7.079,0,0,1-.878-6.624A7.677,7.677,0,0,1,6.262,36.8,8.1,8.1,0,0,1,8.5,35.573a15.276,15.276,0,0,1,5.3-.762c1.347,0,2.734.09,3.959.17l.109.007c1.289.084,2.5.163,3.657.163.221,0,.435,0,.638-.009.282.02.592.03.949.03,1.012,0,2.224-.082,3.507-.169l.3-.02c1.478-.1,2.923-.189,4.346-.189a19.356,19.356,0,0,1,3.8.316,9.045,9.045,0,0,1,1.627.478,5.5,5.5,0,0,1,1.339.766,9.462,9.462,0,0,1,2.038,3.989,5.313,5.313,0,0,1-.42,3.4,8.069,8.069,0,0,1-2.687,2.986,17.823,17.823,0,0,1-4.414,2.2A35.829,35.829,0,0,1,21,50.745Zm.358-5.653a2.806,2.806,0,0,0-1.389.429,2.313,2.313,0,0,0-.89.85,4.984,4.984,0,0,0-.17,1.955c0,.038,0,.074.005.1,1,.1,2.024.152,3.043.152.675,0,1.361-.022,2.038-.067-.075-.248-.139-.509-.2-.761a5.427,5.427,0,0,0-.627-1.722,1.952,1.952,0,0,0-.639-.611,2.518,2.518,0,0,0-1.03-.316c-.046,0-.093-.006-.14-.006Zm5.9.408h0a2.3,2.3,0,0,0-.576.074,2.072,2.072,0,0,0-1.241.993,2.886,2.886,0,0,0-.388,1.605.318.318,0,0,1-.05.164l-.018.036a29.336,29.336,0,0,0,4.3-.84,2.513,2.513,0,0,0-.763-1.571,1.89,1.89,0,0,0-1.269-.461ZM14.729,44.184h0a2.36,2.36,0,0,0-.4.033,1.774,1.774,0,0,0-.907.492,2.44,2.44,0,0,0-.513.8,3.911,3.911,0,0,0-.28,1.348,27.414,27.414,0,0,0,4.313,1.169c.253.05.525.1.859.155l.019-.234a5.831,5.831,0,0,0-.027-1.133,3.259,3.259,0,0,0-.47-1.391,3.276,3.276,0,0,0-2.589-1.24Zm17.822-.062h0a2.509,2.509,0,0,0-1.057.243,2.86,2.86,0,0,0-.9.669,2.785,2.785,0,0,0-.709,2.184c.3-.094.6-.193.889-.294a19.385,19.385,0,0,0,3.745-1.652,2.323,2.323,0,0,0-1.968-1.15ZM19.944,36.868h0a16.009,16.009,0,0,0-2.885.237l-.041.456L17,37.786c-.147,1.513-.286,2.942.507,3.548a3.611,3.611,0,0,0,1.963.381,10.813,10.813,0,0,0,2.459-.287c.047-.012.1-.073.147-.183a7.245,7.245,0,0,0,.386-2.051,4.917,4.917,0,0,0-.212-2.215c-.806-.072-1.58-.109-2.3-.109Zm5.544-.079a11.731,11.731,0,0,0-.289,2.38,2.136,2.136,0,0,0,.47,1.632,3.248,3.248,0,0,0,1.888.43,3.753,3.753,0,0,0,1.719-.312c.243-.16.388-.605.428-1.322a15.3,15.3,0,0,0-.112-2.4,22.868,22.868,0,0,0-4.1-.406Zm5.03.436h0l-.013.243c-.09,1.806.129,2.891.65,3.224a2,2,0,0,0,1.067.31,2.244,2.244,0,0,0,1.477-.592,4.866,4.866,0,0,0,1.294-2.128c-.124-.325-.709-.583-1.738-.768a23.1,23.1,0,0,0-2.356-.26c-.167-.012-.3-.021-.381-.03Zm-14.387-.1h0l-.687.006-.389.005a15.98,15.98,0,0,0-3.046.292,3.343,3.343,0,0,0-.347,1.433,2.006,2.006,0,0,0,.309,1.076,2.05,2.05,0,0,0,.829.726,2.5,2.5,0,0,0,1.1.25,2.333,2.333,0,0,0,1.834-.841,3.166,3.166,0,0,0,.436-2.789l-.037-.159Zm10.516-5.308h0a8.306,8.306,0,0,1-2.956-.595,14.94,14.94,0,0,1-3.477-1.969,1.333,1.333,0,0,1-.485-.77,1.592,1.592,0,0,1,.069-.865,1.967,1.967,0,0,1,.585-.844,1.426,1.426,0,0,1,.912-.355,1.3,1.3,0,0,1,.706.216l.238.183a18.822,18.822,0,0,0,2.176,1.51,5.369,5.369,0,0,0,2.609.83,2.822,2.822,0,0,0,1.1-.216,3.081,3.081,0,0,0,1.027-.726,3.136,3.136,0,0,0,.6-2.529,4.775,4.775,0,0,0-1.271-2.243,9.261,9.261,0,0,0-1.923-1.549.594.594,0,0,1-.161-.684.893.893,0,0,1,.3-.426.911.911,0,0,1,.568-.187,1.212,1.212,0,0,1,.2.018,6.457,6.457,0,0,1,2.268.818,5.141,5.141,0,0,1,1.525,1.4,5.568,5.568,0,0,1,.974,3.725,6.128,6.128,0,0,1-.5,1.955,5.7,5.7,0,0,1-1.124,1.68A5.379,5.379,0,0,1,26.647,31.813Zm11.225-10.17a2.016,2.016,0,0,1-1.191-.407,3.486,3.486,0,0,1-.96-1.112,7.124,7.124,0,0,1-.837-3.5,7.123,7.123,0,0,1,.837-3.5,3.486,3.486,0,0,1,.96-1.112,1.946,1.946,0,0,1,2.382,0,3.486,3.486,0,0,1,.96,1.112,7.123,7.123,0,0,1,.837,3.5,7.124,7.124,0,0,1-.837,3.5,3.486,3.486,0,0,1-.96,1.112A2.015,2.015,0,0,1,37.871,21.644Zm-26.656,0a2.015,2.015,0,0,1-1.191-.407,3.49,3.49,0,0,1-.96-1.112,7.126,7.126,0,0,1-.837-3.5,7.125,7.125,0,0,1,.837-3.5,3.489,3.489,0,0,1,.96-1.112,1.946,1.946,0,0,1,2.381,0,3.486,3.486,0,0,1,.96,1.112,7.123,7.123,0,0,1,.837,3.5,7.124,7.124,0,0,1-.837,3.5,3.486,3.486,0,0,1-.96,1.112A2.016,2.016,0,0,1,11.215,21.644ZM.312,8.807A.308.308,0,0,1,.056,8.65a.343.343,0,0,1-.021-.337A11.7,11.7,0,0,1,2.662,4.995,16.241,16.241,0,0,1,6.177,2.6a15.138,15.138,0,0,1,4.175-1.453l.446-.078.228-.039A10.063,10.063,0,0,1,12.62.87a2.818,2.818,0,0,1,2.248.837,1.9,1.9,0,0,1,.452,1.354,1.24,1.24,0,0,1-.452.885,3.468,3.468,0,0,1-2.374.695c-.187,0-.381,0-.568-.009h-.007c-.181,0-.384-.01-.586-.01-.186,0-.353,0-.508.013a16.082,16.082,0,0,0-3.534.6A24.029,24.029,0,0,0,.477,8.754.293.293,0,0,1,.312,8.807ZM44.494,7.012h0l-.188-.047a10.645,10.645,0,0,1-2.062-.8l-.669-.329a18.621,18.621,0,0,0-2.391-1.017,28.26,28.26,0,0,0-5.446-1.2A2.227,2.227,0,0,1,32.646,3.2a1.634,1.634,0,0,1-.611-.929A1.658,1.658,0,0,1,32.223.882,1.775,1.775,0,0,1,33.085.14,1.944,1.944,0,0,1,33.82,0a2.169,2.169,0,0,1,.424.042l.341.07.226.048a23.752,23.752,0,0,1,5.77,1.916A11.709,11.709,0,0,1,43.1,3.757a7.511,7.511,0,0,1,1.783,2.318c.064.492,0,.614-.061.7L44.8,6.8l-.017.023a.473.473,0,0,1-.292.194Z" transform="translate(14.012 12.325)"/>
      </g>
    </g>
  </g>
</svg>
