<svg xmlns="http://www.w3.org/2000/svg" width="390.67" height="780" viewBox="0 0 390.67 780">
  <g id="peep-standing-4" transform="translate(28.736)">
    <g id="BODY" transform="translate(-28.736 150.264)">
      <path id="_Skin" data-name="âœ‹ Skin" d="M97.1,588.011h0c-2.548,0-4.98-.108-7.226-.322a53.424,53.424,0,0,1-6.868-1.083,37.667,37.667,0,0,1-6.316-2.02,28.19,28.19,0,0,1-5.571-3.134c-.262.731-.464,1.543-.66,2.328a15.937,15.937,0,0,1-1.136,3.446c-3.574-.128-7.169-.235-10.646-.339h0c-7.866-.234-16-.476-24.077-.967l-.929-1.074-.017.021c-.081-.877-.208-1.747-.331-2.589v0c-.152-1.037-.308-2.108-.374-3.17a13.66,13.66,0,0,1,.154-3.251,8.007,8.007,0,0,1,.294-1.809,2.1,2.1,0,0,1,.379-.7,1.561,1.561,0,0,1,.658-.456l.009-.032a1.142,1.142,0,0,1,.545-.825c.053-.06.334-.385.469-.541l.018-.021.1-.112a12.27,12.27,0,0,1-.447-4.3,25.669,25.669,0,0,1,.767-4.819,41.552,41.552,0,0,1,1.5-4.721c.524-1.376,1.127-2.762,1.744-4.009a64.373,64.373,0,0,1,2.352-9.173l.537-.183.081-.657a.818.818,0,0,1,.545-.16,5.157,5.157,0,0,1,1.353.289,5.142,5.142,0,0,0,.778.2,154.841,154.841,0,0,0-.307-16.35v0c-.164-3.017-.334-6.136-.4-9.227a23.087,23.087,0,0,1-1.278-2.082,1.124,1.124,0,0,1-.682.24,2.861,2.861,0,0,1-1.4-.592,2.144,2.144,0,0,1-.64.1,2.286,2.286,0,0,1-1.642-.77,4.5,4.5,0,0,1-1-1.764A244.749,244.749,0,0,1,29.7,462.851a228.348,228.348,0,0,1,.2-26.114,179.174,179.174,0,0,1,3.356-24.925c.817-5.808,1.525-11.828,2.1-17.893.552-5.782,1.006-11.8,1.349-17.875.633-11.222.915-22.9.864-35.711-.043-10.675-.325-22.345-.863-35.679-.48-11.892-1.114-23.981-1.727-35.672-.507-9.658-1.031-19.645-1.465-29.479a5.916,5.916,0,0,1-2.212-.6,4.653,4.653,0,0,1-1.521-1.251,6.6,6.6,0,0,1-1.178-2.541,13.777,13.777,0,0,1-.356-3.09,40.292,40.292,0,0,1,.541-6.156c.387-4.3.635-8.068.76-11.509.017-1.529.052-3.3.243-4.994a18.509,18.509,0,0,1,1.132-4.805c-2.432-1.868-5.076-3.677-7.634-5.425A102.972,102.972,0,0,1,10.7,189.544a37.226,37.226,0,0,1-5.073-5.788,29.15,29.15,0,0,1-2-3.305,27.128,27.128,0,0,1-1.554-3.641c-.567-3.571-1.023-7.289-1.357-11.051-.322-3.63-.538-7.4-.642-11.218-.1-3.67-.1-7.482,0-11.33.1-3.688.286-7.518.566-11.384A354.468,354.468,0,0,1,7.12,86.879c.952-4.716,2.009-9.17,3.141-13.237,1.209-4.347,2.554-8.431,4-12.14a89.593,89.593,0,0,1,5.026-10.838c.939-1.7,1.932-3.335,2.952-4.866,1.043-1.565,2.144-3.067,3.274-4.463A52.853,52.853,0,0,1,29.127,37.3a48.194,48.194,0,0,1,3.982-3.58,45.131,45.131,0,0,1,9.143-5.695,47.159,47.159,0,0,1,5.2-2.063,51.4,51.4,0,0,1,5.654-1.505,58.366,58.366,0,0,1,6.126-.922c2.128-.208,4.355-.313,6.62-.313.934,0,1.9.018,2.859.053l.147.133a14.559,14.559,0,0,0,2.39.2,16.009,16.009,0,0,0,3.144-.319,17.985,17.985,0,0,0,3.071-.914,19.711,19.711,0,0,0,2.912-1.446,20.693,20.693,0,0,0,2.666-1.914,20.591,20.591,0,0,0,2.335-2.318A19.484,19.484,0,0,0,87.3,14.033a16.869,16.869,0,0,0,2.24-6.085c.217-1.3.4-2.425,1.366-2.991a3.267,3.267,0,0,1,1.079-2.277A7.51,7.51,0,0,1,94.7,1.144,26.828,26.828,0,0,1,103.244,0a48.947,48.947,0,0,1,11,1.261c3.493.844,5.877,1.975,6.714,3.184a2.112,2.112,0,0,1,.363-.035c.729,0,.862.517,1.016,1.115a3.986,3.986,0,0,0,.268.8c.347,1.649.7,3.208,1.02,4.508l1.22-.008c.252.649.48,1.338.7,2,.889,2.687,1.808,5.465,4.606,6.877a40.948,40.948,0,0,1,6.365.523,23.29,23.29,0,0,1,3.32.823,17.466,17.466,0,0,1,3.185,1.411,49.383,49.383,0,0,1,5.852,1.614,43.381,43.381,0,0,1,5.235,2.194A40.037,40.037,0,0,1,158.755,29a38.933,38.933,0,0,1,4.093,3.217,39.943,39.943,0,0,1,3.568,3.66,42.946,42.946,0,0,1,3.075,4.057,47.842,47.842,0,0,1,2.612,4.408c.781,1.492,1.515,3.077,2.181,4.712a68.387,68.387,0,0,1,3.191,10.156,93.573,93.573,0,0,1,1.836,10.825c.394,3.5.64,7.246.73,11.127.082,3.509.039,7.231-.128,11.062-.114,2.169-.147,4.422-.1,6.7.048,2.17.172,4.432.369,6.723.364,4.229.975,8.647,1.868,13.506,1.659,9.026,4.067,18.237,6.4,27.146v0c1.635,6.257,3.326,12.726,4.743,19.074.763,3.418,1.387,6.529,1.909,9.509.586,3.347,1.029,6.446,1.355,9.477.35,3.254.557,6.428.615,9.434a87.069,87.069,0,0,1-.308,9.381,74.635,74.635,0,0,1-1.417,9.318,69.1,69.1,0,0,1-2.71,9.244,58.533,58.533,0,0,1,2.207,6.45,60.161,60.161,0,0,1,1.476,6.8,57.241,57.241,0,0,1,.664,6.949,51.088,51.088,0,0,1-.229,6.907,39.661,39.661,0,0,1-3.464,12.91,29.813,29.813,0,0,1-8.014,10.41,7.424,7.424,0,0,1,1.18,2.471,23.777,23.777,0,0,1,.557,2.755l.026.163c1.032,5.773,1.935,12.148,2.761,19.489.731,6.494,1.328,13.062,1.926,19.779.353,3.914.707,7.909,1.049,11.773l.005.06c1.206,13.632,2.454,27.727,3.977,41.634.821,7.491,1.651,14.307,2.538,20.837,1,7.337,2.04,14.121,3.188,20.74,1.234,7.115,2.6,14.033,4.049,20.562,1.557,6.994,3.28,13.824,5.122,20.3,1.951,6.86,4.107,13.575,6.408,19.958,2.417,6.706,5.076,13.278,7.9,19.533-.021.024-.584.206-1,.339l-.018.006c-.247.08-.442.143-.458.152a17.636,17.636,0,0,1,1.734,3.075c.486,1.075.91,2.209,1.32,3.306.478,1.278.973,2.6,1.572,3.852a69.163,69.163,0,0,0,8.552,14.618,2.489,2.489,0,0,1,1.707-.9A2.353,2.353,0,0,1,240.5,517a12.834,12.834,0,0,1,1.292.849,6.061,6.061,0,0,0,1.074.671h0c.734.393,1.493.8,1.626,1.531,1.085.59,2.453,1.537,3.552,2.3h0l-.005.015c1.094.764,2.3,1.538,3.461,2.286l.015.009.443.285a21.26,21.26,0,0,0,1.833-3.551c.034,0,.068,0,.1,0a1.491,1.491,0,0,0,.284-.028,1.706,1.706,0,0,0,.234-.065c-.221.641-.445,1.254-.662,1.847l0,.007c-.355.969-.661,1.806-.809,2.385a91.24,91.24,0,0,0,31.48,12.373,24.492,24.492,0,0,1,4.374,1.092,11.412,11.412,0,0,1,3.387,1.917,13.591,13.591,0,0,1,2.783,3.279,33.67,33.67,0,0,1,2.562,5.176c.046.016.116.03.2.047h0c.255.054.6.128.652.307.172.743.351,1.514.523,2.259l.018.078c.48,2.07.977,4.211,1.439,6.25a.38.38,0,0,1-.017.279.426.426,0,0,1-.156.227c-4.532.952-9.116,1.757-14.426,2.533-4.679.684-9.363,1.263-14.561,1.9-3.443.482-7.143.98-10.87,1.351-4.276.426-8.03.633-11.476.634-2.03,0-3.982-.074-5.8-.22a53.115,53.115,0,0,1-5.588-.734,38.879,38.879,0,0,1-5.247-1.359,29.246,29.246,0,0,1-4.78-2.093,5.831,5.831,0,0,1-.636,1.426,5.042,5.042,0,0,1-.912,1.081,6.4,6.4,0,0,1-2.477,1.318,14.176,14.176,0,0,1-3.056.511c-1.085.079-2.217.086-3.284.086H216.3c-.855,0-1.761,0-2.6.053l-.372,0h0c-1.5.015-4.009.039-6.839.039-3.977,0-7.2-.05-9.586-.148-3.19-.131-4.88-.349-5.023-.649a18.216,18.216,0,0,1-.819-5.673,5.847,5.847,0,0,1,.629-2.372,4.46,4.46,0,0,1,1.732-1.762c-.17-2.617-.247-5.131-.323-7.563v0c-.053-1.72-.1-3.345-.184-4.932a32.31,32.31,0,0,1-1-8.4v-.005c-.03-.926-.061-1.883-.117-2.805-.006-.545-.03-1.116-.053-1.668v0c-.1-2.4-.2-4.872.962-6.747a12.3,12.3,0,0,1,1.865-.184,6.365,6.365,0,0,0,3.5-.826,57.661,57.661,0,0,0-3.438-9.956,31.6,31.6,0,0,0-2.758-4.776,26.441,26.441,0,0,0-3.8-4.317c-2.647.185-5.3.279-7.894.279h-.009c-1.668,0-3.349-.039-5-.116H175c-2.8,0-4.778-.56-6.234-1.762s-2.46-3.121-3.119-6.007c-3-10.613-6-22.091-8.89-33.191q-.519-1.991-1.029-3.947c-4.676-18.834-8.885-34.227-13.246-48.44-2.568-8.372-5.228-16.428-7.905-23.947-2.9-8.152-5.946-16.009-9.045-23.354-.336-.867-.678-1.744-1.009-2.592a172.128,172.128,0,0,1-6.808-19.74c-2.378,6.51-4.613,13.162-6.645,19.771-1.981,6.443-3.835,13.069-5.513,19.691-1.628,6.429-3.147,13.087-4.515,19.788-1.32,6.464-2.549,13.213-3.653,20.06-2.066,12.81-3.786,26.431-5.258,41.641-1.266,13.084-2.356,27.332-3.427,44.842v.006a59.253,59.253,0,0,1-1.131,9.949c-.059.357-.242.53-.559.53a2.423,2.423,0,0,1-.625-.123h0l-.15-.042a7.3,7.3,0,0,1-2.992,1.037,24.769,24.769,0,0,1-3.46.16h-.032a75.885,75.885,0,0,0,.9,12.875,90.672,90.672,0,0,0,2.908,12.739,30.162,30.162,0,0,1,6.817-1.726c.221.049.231.415.238.682v0c0,.073,0,.137.009.186.756.844,1.609,1.74,2.361,2.532.141-.213.287-.426.472-.692.333.221.651.475.959.72h0a10.167,10.167,0,0,0,1.336.952.7.7,0,0,0,.343.093.688.688,0,0,0,.335-.09,8.719,8.719,0,0,0,1.232.632l.439.293.027.018.072.048c-.475.5-.987,1-1.52,1.477,8.251,7.066,18.451,11.7,31.182,14.167.58.1,1.157.189,1.768.286l.063.01a45.264,45.264,0,0,1,9.5,2.208,14.423,14.423,0,0,1,3.989,2.3,10.74,10.74,0,0,1,1.592,1.641,10.522,10.522,0,0,1,1.243,2.045,9.716,9.716,0,0,1,.855,2.866,2.722,2.722,0,0,1-.681,2.337,24.463,24.463,0,0,1-.11,4.34v0c-.07.836-.143,1.7-.164,2.544-.011.166-.051.318-.42.369-5.875.318-12.5,1.271-19.516,2.281h0l-1.5.215-.274.039c-4.233.608-8.61,1.237-13.2,1.731A130.088,130.088,0,0,1,97.1,588.011ZM51.951,130.247h0c-1,3.173-2.12,6.371-3.207,9.464l0,.005c-1.263,3.595-2.57,7.312-3.686,11.018a8.479,8.479,0,0,0,.024,3.233,7.573,7.573,0,0,0,1.11,2.606A13.038,13.038,0,0,0,48.1,158.8c.753.722,1.612,1.436,2.428,2.105.6-3.632,1.271-7.913,1.76-12.136a109.715,109.715,0,0,0,.8-12.15l.251.469.336-4,.062-.758-1.422-.286-.361-1.8Z" transform="translate(71.247 -7.584)" fill="#d08b5b"/>
      <path id="_Pants" data-name="ðŸ‘– Pants" d="M7.29.03C10.3-.291,40.976,2.089,44.04,1.377l.135-.032,1.193-.285.692,1.01c3.42,4.99,5.144,8.267,6.005,11.594l.06.238.024.1c.725,3,.782,5.773.389,11.4l-.041.573-.046.622-.11,1.454,0,.009c.19.611.782.791,1.518.379l.052-.03.023-.014.079-.055a9.028,9.028,0,0,0,3.343-4.48l.049-.134.048-.136a25.541,25.541,0,0,0,1.11-6.251l.044-.519.139-1.739a41.746,41.746,0,0,1,.624-5.111l.037-.181.793-3.7L62.545,8.84a11.842,11.842,0,0,1,2.337,5.713l.052.3a46.7,46.7,0,0,1,.527,5.1l.041.656.127,2.148.05.784a29.079,29.079,0,0,0,.774,5.85l.041.147.03.1c.505,1.732,1.19,2.615,2.187,2.894l.06.016.024.006.04,0c1.135-.075,1.421-.624,1.341-2.456l-.009-.178,0-.089-.013-.2-.029-.373.019-.228a14.766,14.766,0,0,1,.567-2.809l.037-.133.331-1.179.075-.281a27.489,27.489,0,0,0,.535-10.258l-.031-.238L70.474,5.372l4.479,7.614a39.072,39.072,0,0,1,5.189,16.8l.02.269.015.222a.667.667,0,0,0,1.033.222l.038-.03.035-.03c.959-.871,1.551-2.445,2.1-5.223l.028-.145.215-1.128.1-.51.059-.254c1.051-4.545,1.27-8.156.479-11.427l-.039-.158L82.8,5.926l4.35,3.909q1.042.936,2.118,1.805c1.366,1.1,2.454,1.222,3.087.742.678-.515.982-1.771.546-3.44l-.025-.095-.781-2.833,2.877.625a111.971,111.971,0,0,0,26.825,2.9c9.514-.268,17.977-2.214,25.318-6.071l.236-.125,2.1-1.119.482,2.328a24.07,24.07,0,0,1-.388,10.677l-.065.268a61.386,61.386,0,0,1-3.012,8.727l-.162.4-.731,1.785-.545,1.341-.256.64a8.766,8.766,0,0,0-.856,4.322c.09.467.239.622.6.7,1.316.292,3.931-.784,6.32-2.819l.1-.088,2.452-2.148.806,3.772-.191.494a5.834,5.834,0,0,0-.427,3.195l.02.089.185.769-.448.652c-.035.051-.032.113.058.252a.636.636,0,0,0,.425.3h.03l1.536-.05.275,1.509.152.841c1.151,6.465,5.368,51.1,5.368,51.1.923,11.669,11.872,89.839,13.93,99.815,4.647,24.043,10.2,44.907,17.412,64.239l.219.585.59,1.572-1.539.678a105.705,105.705,0,0,1-46.717,8.362l-.46-.02h-.179c-3.619-.055-5.433-1.585-6.345-5.071l-.055-.217L138,261.1l-.032-.135-.6-2.034c-1.91-6.5-23.615-86.55-27.148-97.661l-.231-.725-.427-1.33-.374-1.156a335.081,335.081,0,0,0-16.053-40.977l-.2-.426-.04-.073a26.923,26.923,0,0,1-1.8-4.191l-.065-.185-.126-.368-.095-.28-.571-1.719-.2-.588-.081-.268a24.671,24.671,0,0,1-1.109-6.783v-.257l-.11.248c-2.328,5.254-4.966,12.194-7.678,20.443l-.109.331-.346,1.063c-7.393,22.869-12.682,47.36-16.524,74.973l-.208,1.506c-2.868,20.962-4.759,41.8-6.8,72.1l-.19,2.839-.223,3.376-1.377.242a19.318,19.318,0,0,0-4.144,1.156l-.164.07-.282.122-.307.021-4.024.287-.929.062-.86.052c-11.915.776-21.837.2-31.028-2.208l-.281-.074-.352-.086-3.338-.834L0,223.146l5.932-51.078.214-1.534C9.663,144.827,5.551,28.879,5.27,21.217l-.059-1.631-.055-1.575-.075-1.155L4.82,12.341l-.042-.668A61.192,61.192,0,0,0,3.674,2.6L3.245.618,5.1.321Q6.183.148,7.29.03Z" transform="translate(100.221 225.751)" fill="#e86bbb"/>
      <path id="_Shoes" data-name="ðŸ‘Ÿ Shoes" d="M57.566,38.093c-.43,0-.861,0-1.281-.006a22.783,22.783,0,0,1-7.833-1.54,48.49,48.49,0,0,1-6.1-2.892c-2.048-1.1-3.665-1.968-4.834-1.968-.319,0-.478.69-.679,1.564a10.313,10.313,0,0,1-.84,2.572,2.25,2.25,0,0,1-2.047,1.355,2.923,2.923,0,0,1-.472-.04L.681,35.692,0,24.815,3.325,21.26c.046.009,4.821.952,11.025,1.873,3.664.544,7.121.977,10.274,1.288,3.942.388,7.417.585,10.33.585,1.661,0,3.164-.064,4.469-.192,4.44-.433,12.312-.913,21.059-1.286,9.931-.423,19.787-.656,27.751-.656,6.394,0,11.551.145,15.327.432,4.288.326,6.76.834,7.347,1.509a5.648,5.648,0,0,1,1.1,2.2,11.955,11.955,0,0,1,.392,2.495,17.645,17.645,0,0,1-.068,2.893c-.073.028-8.125,1.448-18.992,2.866-6.295.821-12.264,1.476-17.741,1.946C68.77,37.8,62.7,38.093,57.566,38.093ZM185.3,15.025c-11.121,0-26.271-.632-26.423-.639-.019-.329-.146-1.208-.294-2.225-.186-1.285-.4-2.741-.431-3.393.005-.01.526-1.068,1.045-2.38a14.482,14.482,0,0,0,1.1-4.089c.031-.9,1.747-1.3,5.562-1.3,2.9,0,6.827.228,11.371.492l.054,0,2.869.165c6.058.343,12.618.66,19.546.66.887,0,1.773-.005,2.632-.016,11.789-.146,24.024-.824,34.819-1.421h0C245.665.407,253.009,0,257.8,0c1.667,0,2.942.048,3.9.147a4.1,4.1,0,0,1,1.918.492,6.1,6.1,0,0,1,1.477,1.971,13.415,13.415,0,0,1,.906,2.4,19.5,19.5,0,0,1,.58,2.874l-.019,0c-.722.165-7.272,1.651-14.692,3.129-4.6.916-8.651,1.655-12.038,2.194a77.23,77.23,0,0,1-9.515,1.081l-1.764.033-2.031.03c-.378,0-1.05.057-1.98.13-2.091.163-5.59.436-9.564.436-8.156,0-14.723-1.136-19.519-3.376a1.541,1.541,0,0,0-.657-.138c-.986,0-2.233.773-3.553,1.591a24.469,24.469,0,0,1-2.416,1.375,5.875,5.875,0,0,1-2.442.653Z" transform="translate(104.02 541.402)" fill="#fff"/>
      <path id="_Ink" data-name="ðŸ– Ink" d="M97.868,585.472c-2.446,0-4.782-.1-6.944-.3a54.436,54.436,0,0,1-6.571-.984,39.585,39.585,0,0,1-6.079-1.815,30.688,30.688,0,0,1-5.468-2.79c-.112.392-.227.788-.337,1.17-.271.936-.55,1.9-.812,2.864a1.459,1.459,0,0,1-.5.747,1.369,1.369,0,0,1-.845.311h-.044c-3.547-.127-7.154-.235-10.642-.339-7.9-.235-16.075-.479-24.093-.967h-.02a1.077,1.077,0,0,1-.832-.415.589.589,0,0,1-.463.2.57.57,0,0,1-.593-.428A13.073,13.073,0,0,1,33.439,581v0c-.016-.256-.032-.52-.055-.781a14.969,14.969,0,0,0-.291-1.735c-.073-.352-.149-.716-.208-1.083a21.4,21.4,0,0,1,.019-5.4l.044-.445c.123-1.177.343-2.487,1.393-3.144l.07-.042.008,0h0a1.93,1.93,0,0,1,.743-.945l.021-.024a5.376,5.376,0,0,1-.356-2.1A18.586,18.586,0,0,1,35,563.159l.011-.1a38.253,38.253,0,0,1,1.33-7.04,36.065,36.065,0,0,1,2.645-6.64A63.144,63.144,0,0,1,41.5,539.8a.157.157,0,0,1,.034-.134.22.22,0,0,1,.168-.08.188.188,0,0,1,.078.017.916.916,0,0,1,.138-.058.691.691,0,0,1,.03-.138,1.665,1.665,0,0,1,1.362-.978,1.9,1.9,0,0,1,.295-.023,3.577,3.577,0,0,1,.9.151l.122.031c.184-4.931-.093-9.94-.361-14.783V523.8c-.183-3.305-.372-6.723-.412-10.086a1.691,1.691,0,0,1-.743.166,3.287,3.287,0,0,1-1.663-.562,3.25,3.25,0,0,1-.492.038,3.016,3.016,0,0,1-1.285-.287,3.7,3.7,0,0,1-1.06-.762,5.81,5.81,0,0,1-1.355-2.355l-.34-1.533c-1.782-8.074-3.124-14.684-4.224-20.8-1.362-7.577-2.358-14.446-3.046-21a164.4,164.4,0,0,1-.179-29.443c.341-4.546.836-9.344,1.513-14.669.536-4.22,1.2-8.859,2.084-14.6.717-4.51,1.35-9.192,1.88-13.917.505-4.5.934-9.193,1.275-13.941.629-8.762.982-17.9,1.08-27.937.082-8.364-.017-17.519-.3-27.987-.254-9.332-.63-18.823-.993-28v-.02c-.55-13.894-1.118-28.261-1.277-42.369-.2-2.28-.349-4.609-.5-6.861v-.012c-.215-3.291-.438-6.693-.8-10.018a4.449,4.449,0,0,1-1.608-.524,5.906,5.906,0,0,1-1.361-1.041,8.437,8.437,0,0,1-1.831-2.9c-.966-2.588-.61-5.47-.267-8.258v0c.089-.722.173-1.4.235-2.083.336-3.669.589-7.413.751-11.13l.019-1.085a27.206,27.206,0,0,1,1.144-8.569c-2.36-1.813-4.952-3.574-7.459-5.277l0,0C14.48,190.139,5.618,184.117,2.27,173.957c-.653-.587-1.1-1.918-1.38-4.068-.238-1.849-.3-3.961-.364-5.824-.04-1.275-.075-2.375-.158-3.148-.328-6.5-.437-13.1-.325-19.628.112-6.51.447-13.106,1-19.605s1.324-13.052,2.306-19.5,2.194-12.939,3.6-19.3a158.284,158.284,0,0,1,6.8-24.449A94.436,94.436,0,0,1,18.658,47.5c.929-1.745,1.912-3.431,2.922-5.013,1.04-1.629,2.14-3.195,3.268-4.654a55.908,55.908,0,0,1,3.639-4.255,50.482,50.482,0,0,1,4.036-3.817,47.291,47.291,0,0,1,4.458-3.339A46.278,46.278,0,0,1,41.887,23.6a47.516,47.516,0,0,1,5.38-2.263,51.2,51.2,0,0,1,5.879-1.666,57.622,57.622,0,0,1,6.4-1.029,67.268,67.268,0,0,1,6.954-.352c.91,0,1.842.017,2.772.051-.036-.028-.068-.053-.095-.076a1.107,1.107,0,0,1,.348-.056,1.265,1.265,0,0,1,.841.338,15.019,15.019,0,0,0,1.9.121,15.609,15.609,0,0,0,4.545-.687,17.452,17.452,0,0,0,4.168-1.91,19.2,19.2,0,0,0,3.591-2.91,19.6,19.6,0,0,0,2.814-3.687A15.218,15.218,0,0,0,89.21,4.819l.026-.133c.043-.221.08-.443.12-.678a8.861,8.861,0,0,1,.662-2.462A2.652,2.652,0,0,1,91.97.048,2.424,2.424,0,0,1,92.445,0a2.083,2.083,0,0,1,1.417.541,17.28,17.28,0,0,1,0,3.1,2.471,2.471,0,0,1-.27.2l.065-.041c.071-.046.121-.081.153-.106A18.96,18.96,0,0,1,92.4,8.535a20.681,20.681,0,0,1-2.575,4.3,22.837,22.837,0,0,1-7.781,6.371,1.744,1.744,0,0,1-1.183.65,3.874,3.874,0,0,0-.653.206l-.858.27a26.022,26.022,0,0,1-7.25,1.484,31.508,31.508,0,0,0,7.828,11.83,51.816,51.816,0,0,0,12.346,8.758,71.067,71.067,0,0,0,7.113,3.22c2.372.924,4.841,1.746,7.337,2.445,2.409.674,4.852,1.234,7.259,1.666a67.972,67.972,0,0,0,6.88.885c.455.024.913.036,1.36.036a20.842,20.842,0,0,0,9.031-1.926,17.638,17.638,0,0,0,3.558-2.245,17.252,17.252,0,0,0,2.85-2.955,17.983,17.983,0,0,0,2.263-3.957,19.769,19.769,0,0,0,1.267-4.545,22.423,22.423,0,0,0,.2-4.985,25.916,25.916,0,0,0-.936-5.28,18.471,18.471,0,0,1-12.781-8.448A14.159,14.159,0,0,1,125.672,11a11.752,11.752,0,0,1,.539-5.727l.1-.273a.066.066,0,0,1,.066-.056.091.091,0,0,1,.089.077,7.331,7.331,0,0,0,.516,1.753v0c.144.375.28.73.374,1.075l.113.319c.09.26.182.532.263.772a20.7,20.7,0,0,0,1.342,3.336,6,6,0,0,0,2.38,2.52l.409.009a38.61,38.61,0,0,1,6.475.647,23.552,23.552,0,0,1,3.135.837,18.28,18.28,0,0,1,2.955,1.318,36.587,36.587,0,0,1,6.176,1.816,48.848,48.848,0,0,1,5.828,2.746,49.741,49.741,0,0,1,4.48,2.738,44.9,44.9,0,0,1,3.923,3.029,42.313,42.313,0,0,1,3.4,3.3,41.773,41.773,0,0,1,2.921,3.543,43.139,43.139,0,0,1,2.476,3.768c.739,1.264,1.435,2.6,2.068,3.97a55.363,55.363,0,0,1,3.059,8.459c3.221,11.681,3.275,24.815,3.327,37.516.017,4.1.034,8.344.165,12.378.246,3.335.646,6.74,1.223,10.408.514,3.267,1.158,6.672,1.969,10.408,1.506,6.939,3.374,13.995,5.18,20.818,1.635,6.175,3.326,12.56,4.745,18.847.764,3.383,1.389,6.467,1.913,9.428.588,3.324,1.033,6.409,1.361,9.432.352,3.246.563,6.421.626,9.436a88.792,88.792,0,0,1-.294,9.441,77.647,77.647,0,0,1-1.4,9.447,73.321,73.321,0,0,1-2.686,9.453,63.335,63.335,0,0,1,3.564,13.044A55.287,55.287,0,0,1,199,244.764a40.7,40.7,0,0,1-3.282,13.009,33.061,33.061,0,0,1-3.326,5.791,31.272,31.272,0,0,1-4.584,5.079,4.72,4.72,0,0,1,.392.776,20,20,0,0,1,1,4.209c.06.366.121.744.187,1.112l.037.2c.734,3.974,1.265,7.95,1.833,12.362,1.075,8.344,1.843,16.683,2.538,24.509l.1,1.169c.411,4.646.814,9.347,1.2,13.892v0c1.346,15.68,2.738,31.894,4.586,47.786l.445,3.04c1.432,9.74,3.175,21.267,5.245,32.908,2.14,12.04,4.363,22.7,6.8,32.578l.073.27c.115.425.258.954.4,1.459,1.358,4.911,2.912,9.846,4.416,14.618v0l0,.015c.608,1.929,1.236,3.924,1.844,5.891s1.327,4.075,2.19,6.413l.97,2.4c.153.378.317.784.487,1.2,1.674,4.111,3.52,8.331,5.485,12.541a1.1,1.1,0,0,1,.021.929,1.3,1.3,0,0,1-.778.7,26.754,26.754,0,0,1,2.327,5.21,37.292,37.292,0,0,0,1.572,3.867A68.791,68.791,0,0,0,238.9,512.17a2.249,2.249,0,0,1,1.374-.472,6.172,6.172,0,0,1,3.183,1.445l.007,0c.179.125.349.243.514.353.2.126.422.247.635.365a3.52,3.52,0,0,1,1.837,1.643c.61.35,1.266.767,2.007,1.275l.064-.208c.65-2.075,2.132-5.733,4.762-6.912a3.867,3.867,0,0,1,1.5-.32,2.977,2.977,0,0,1,1.354.314,2.87,2.87,0,0,1,1.014.855,3.626,3.626,0,0,1,.458,3.242,57.414,57.414,0,0,1-2.237,7.539,97.791,97.791,0,0,0,13.893,6.963c2.427.977,4.9,1.846,7.337,2.584,2.506.757,5.049,1.394,7.557,1.894l.348.069c.376.075.758.147,1.128.216a21.863,21.863,0,0,1,6.1,1.779,14.508,14.508,0,0,1,4.67,4.229,24.4,24.4,0,0,1,3,5.614,1.6,1.6,0,0,1,.715.4,1.424,1.424,0,0,1,.409.684l1,4.3c.274,1.185.634,2.744.987,4.3a1.763,1.763,0,0,1-.237,1.325,1.326,1.326,0,0,1-.86.6c-5.974,1.193-11.983,2.234-17.859,3.094-3.555.329-7.271.823-11.206,1.347h0c-7.474.995-15.2,2.024-22.723,2.024a60.074,60.074,0,0,1-10.777-.879,41.662,41.662,0,0,1-5.079-1.244,34.3,34.3,0,0,1-4.792-1.909,6.425,6.425,0,0,1-4.236,3.417,14.1,14.1,0,0,1-2.852.489c-1.021.082-2.05.094-3.01.094l-.791,0h-.03l-.755,0c-.85,0-1.753.01-2.6.079-.268-.02-.708-.03-1.345-.03-.878,0-2.029.018-3.362.038l-.36.005-.338.005c-1.69.025-3.5.048-5.31.048-3.286,0-5.817-.077-7.739-.236a21.993,21.993,0,0,1-2.829-.383,3.143,3.143,0,0,1-1.529-.638.477.477,0,0,1-.144-.368l-.112-.42a19.069,19.069,0,0,1-.78-5.576,7.29,7.29,0,0,1,.593-2.649,5.284,5.284,0,0,1,1.747-2.129c-.224-4.229-.362-8.012-.42-11.566a33.072,33.072,0,0,1-1.053-8.693c-.03-.933-.062-1.9-.119-2.835.007-.67-.024-1.349-.056-2.068v0c-.1-2.294-.212-4.665.98-6.612.039-.475.37-.786,1.012-.952a9.672,9.672,0,0,1,2.016-.183,5.862,5.862,0,0,0,2.111-.271l-.11-.4a50.242,50.242,0,0,0-3.3-9.026,30.145,30.145,0,0,0-2.439-4.107,24.955,24.955,0,0,0-3.186-3.671c-2.481.165-4.983.248-7.438.248-1.692,0-3.4-.04-5.077-.118h-.086a14.307,14.307,0,0,1-4.108-.522,8.091,8.091,0,0,1-3.007-1.594,8.68,8.68,0,0,1-2.086-2.708,16.607,16.607,0,0,1-1.344-3.862c-.917-3.24-1.869-6.679-2.909-10.514-2.382-8.852-4.73-17.872-7-26.6-2.41-9.254-4.9-18.822-7.438-28.215-2.845-10.53-5.444-19.71-7.947-28.064-3.161-9.247-6.729-18.558-10.112-27.3-1.44-3.723-2.908-7.511-4.327-11.175l-.229-.591-2.568-6.63c-1.368-3.531-2.483-6.5-3.483-9.525-.3-.9-.593-1.873-.9-2.973-2.25,6.24-4.382,12.733-6.337,19.3-1.881,6.318-3.656,12.9-5.275,19.557-1.551,6.379-3.008,13.031-4.33,19.772-1.259,6.42-2.438,13.13-3.5,19.946-1.006,6.439-1.945,13.194-2.792,20.077-.791,6.429-1.53,13.214-2.2,20.167-1.161,12.085-2.17,25.312-3.085,40.437-.062.9-.115,1.821-.165,2.71v0a60.176,60.176,0,0,1-1.16,10.154,1.887,1.887,0,0,1-.67,1.114,1.743,1.743,0,0,1-1.074.347,2.21,2.21,0,0,1-.622-.091,10.346,10.346,0,0,1-5.4,1.09l.017.739c.078,3.177.21,5.62.427,7.921a58.533,58.533,0,0,0,1.233,7.828c.235,1.065.568,2.132.889,3.164h0c.33,1.059.671,2.154.906,3.244a28.157,28.157,0,0,1,5.75-1.349,1.579,1.579,0,0,1,.187-.011,1.28,1.28,0,0,1,1.022.488,1.864,1.864,0,0,1,.392,1.085c.39.429.753.821,1.109,1.2l.19-.244.259-.335a25.767,25.767,0,0,1,2.972-3.406,6.627,6.627,0,0,1,3.868-1.912c.069,0,.138-.006.206-.006a2.953,2.953,0,0,1,1.77.557,2.59,2.59,0,0,1,1,1.568,6.582,6.582,0,0,1-.29,2.474,11.168,11.168,0,0,1-1.092,2.429A19.432,19.432,0,0,1,99.458,544a53.548,53.548,0,0,0,6.69,4.7,61.22,61.22,0,0,0,7.279,3.682,77.111,77.111,0,0,0,15.648,4.686l.418.069c.433.071.874.141,1.364.218h.006c1.646.261,3.349.531,5.031.894a29.566,29.566,0,0,1,4.9,1.448,15.261,15.261,0,0,1,4.236,2.493,11.625,11.625,0,0,1,3.056,4.031l.069.152a10.732,10.732,0,0,1,.877,3.016,3.851,3.851,0,0,1-.635,2.907,26.489,26.489,0,0,1-.138,4.007v0c-.071.84-.145,1.707-.166,2.554a1.524,1.524,0,0,1-.453,1.045,1.788,1.788,0,0,1-1.048.454c-5.833.312-12.45,1.265-19.455,2.273-4.783.688-9.729,1.4-14.661,1.939A135.078,135.078,0,0,1,97.868,585.472ZM70.5,576.624h0c1.074.036,2.211.069,3.378.1a25.091,25.091,0,0,0,4.967,2.729,34.505,34.505,0,0,0,5.709,1.775,50.3,50.3,0,0,0,6.3.962c2.09.192,4.362.289,6.754.289h0a134.824,134.824,0,0,0,14.5-.9c4.906-.534,9.8-1.234,14.528-1.911h.006c6.77-.969,13.164-1.883,18.519-2.148l.206-3.34a1.389,1.389,0,0,1-.6.247.773.773,0,0,0-.076-.708.6.6,0,0,0-.505-.262.847.847,0,0,0-.227.033c-1.02.285-2.075.557-3.225.832a.6.6,0,0,0-.221-.041l-.057,0c-3.789.323-7.94.532-12.69.64-4.233.1-8.539.1-12.7.111h-.006l-2.99.007c-4.392.013-8.856.108-13.173.2-4.66.1-9.479.2-14.222.2h-.9c-3.949-.011-7.833-.073-11.544-.183-5.048-.936-10.149-1.962-15.082-2.955h-.007l-.018,0c-5.848-1.177-11.9-2.393-17.756-3.437a7.487,7.487,0,0,1-1.256.511,5.318,5.318,0,0,0-1.71.821,26.882,26.882,0,0,0-.435,5.274,26.312,26.312,0,0,0,.616,5.254c7.717.083,15.569.388,23.161.684,3.083.12,6.27.244,9.408.352.157-.6.313-1.214.464-1.806.27-1.059.55-2.155.842-3.226l.011-.034.024-.066Zm151.425-25.362c-5.017,0-9.475.063-13.63.193-4.858.152-9.311.393-13.614.737a5.481,5.481,0,0,0-.793,1.675,6.578,6.578,0,0,0-.231,1.793,11.7,11.7,0,0,0,.689,3.655c6.176.232,11.188.34,15.772.34,3.7,0,7.107-.069,10.413-.212l.7-.026a9.374,9.374,0,0,0,3.181-.527,3.712,3.712,0,0,0,1.309-.9,1.8,1.8,0,0,0,.536-1.438l-.009-.061a1.911,1.911,0,0,1,.44-1.51,1.464,1.464,0,0,1,1.111-.566,1.394,1.394,0,0,1,.8.27,25.878,25.878,0,0,0,4.443,2.347,30.081,30.081,0,0,0,4.738,1.487,45.139,45.139,0,0,0,10.069,1.005,138.376,138.376,0,0,0,13.883-.944h.007c2.952-.3,5.74-.584,8.468-.742,4.784-.505,9.661-1.13,14.5-1.856,4.754-.714,9.6-1.545,14.4-2.472-.409-1.841-.806-3.645-1.106-5.01a3.056,3.056,0,0,1-1.45.419l-.276.035-.093.013c-.539.078-1.165.166-1.784.213a10.056,10.056,0,0,1-4.206.915c-.615.049-1.2.1-1.627.177-4.973.5-10.146.842-15.812,1.057-4.773.181-9.953.269-15.837.269-5.822,0-11.742-.085-17.468-.167h-.026C233.69,551.347,227.765,551.262,221.925,551.262ZM45.983,513.649A135.1,135.1,0,0,1,48.4,539.336a1.647,1.647,0,0,1,.268,1.707l.127.374a13.948,13.948,0,0,1,.688,2.662,21.151,21.151,0,0,0,5.095,2.215,18.223,18.223,0,0,0,4.889.667,20.915,20.915,0,0,0,4.407-.486,30.667,30.667,0,0,0,4.326-1.287,87,87,0,0,0,8.6-3.951l0,0c1.519-.764,3.089-1.554,4.66-2.287a34.981,34.981,0,0,1-1.837-7.078c-.427-2.654-.621-5.29-.742-7.289a36.649,36.649,0,0,1,1.087-11.095c-1,.115-2.014.218-3.007.308-3.484.314-7.33.524-12.1.661l-1.886.052c-2.143.058-4.239.109-6.321.109-1.832,0-3.463-.04-4.987-.123A26.008,26.008,0,0,1,45.983,513.649Zm55.189,22.179a3.169,3.169,0,0,0-1.329.627,24.578,24.578,0,0,0-4.3,4.015c.494.486,1,.966,1.5,1.427a12.709,12.709,0,0,0,2.517-2.719,11.962,11.962,0,0,0,1.613-3.351Zm123.955-43.99-1.579.531c-4.638,1.553-9.641,3.174-14.8,4.5a94.134,94.134,0,0,1-15.254,2.741,9.316,9.316,0,0,1,1.434,1.893c.342.29.721.683.617,1.152.316.637.595,1.277.865,1.9l.043.1c.527,1.251,1.09,2.516,1.634,3.741l0,.007c1.149,2.584,2.337,5.255,3.272,7.968a12.626,12.626,0,0,0,.606,1.7,13.8,13.8,0,0,1,.714,2.048,2.906,2.906,0,0,1-.078,1.876,29.976,29.976,0,0,0,5.957,1.872,31.141,31.141,0,0,0,11.972.082,30,30,0,0,0,5.557-1.618,28.3,28.3,0,0,0,5.129-2.687,26.81,26.81,0,0,0,4.5-3.748l-.3-.437c-1.317-1.946-2.454-3.743-3.476-5.491-1.169-2-2.159-3.884-3.027-5.762a50.236,50.236,0,0,1-2.349-6.04A39.926,39.926,0,0,1,225.128,491.839Zm29.526,20.072c-.653,0-1.5,1.13-1.785,1.5l-.019.026a16.377,16.377,0,0,0-2.413,4.721c.615.421,1.248.828,1.86,1.222l0,0,.029.019.239.154.039-.066a31.8,31.8,0,0,0,1.7-3.886,17.693,17.693,0,0,0,.693-2.26c.151-.7.146-1.142-.014-1.311A.5.5,0,0,0,254.654,511.911Zm-209.014,0,.012.059c.641.1,1.222.178,1.777.241,1.3.147,2.683.232,4.366.267A48.648,48.648,0,0,0,45.64,511.912Zm-1.4-4.7c.048,0,.107.081.124.17a83.006,83.006,0,0,0,21.543,2.544c2.893,0,5.9-.1,9.19-.319,1.258-.072,2.534-.165,3.768-.255h.007c.664-.048,1.35-.1,2.031-.145a20.781,20.781,0,0,1,4.709-1.346c.755-11.444,1.692-25.015,2.924-38.9,1.266-14.268,2.674-26.965,4.307-38.814.912-6.62,1.915-13.106,2.981-19.276,1.131-6.547,2.374-12.986,3.7-19.137,1.39-6.47,2.916-12.848,4.535-18.959,1.692-6.386,3.542-12.692,5.5-18.742,3.361-10.375,7.058-20.83,10.632-30.94,3.647-10.316,7.418-20.983,10.834-31.565,1.838-5.7,3.43-10.914,4.866-15.952,1.612-5.655,2.987-10.941,4.205-16.159a.675.675,0,0,1,.672-.519.807.807,0,0,1,.624.294.692.692,0,0,1,.119.616l-.236,1.241c-.255,1.346-.514,2.732-.742,3.955v0c-.809,4.334-1.646,8.815-2.588,13.2-1.056,4.914-2.136,9.182-3.3,13.047.945-1.028,1.962-2.021,2.946-2.982h0a56.349,56.349,0,0,0,4.045-4.236,19.187,19.187,0,0,0,1.808-2.581,3.6,3.6,0,0,1,2.546-2.28.79.79,0,0,1,.3-.059,1.185,1.185,0,0,1,.99.789,3.279,3.279,0,0,1,.252,1.764,4.146,4.146,0,0,1-.711,1.647l-.19.285a24.11,24.11,0,0,1-3.993,4.445c-1.486,1.324-3.116,2.551-4.692,3.738h0c-1.5,1.13-3.052,2.3-4.481,3.551-3.242,10.8-6.971,21.643-10.578,32.129v0c-.5,1.442-1.058,3.076-1.6,4.648a20.016,20.016,0,0,0,.264,3.615,26.5,26.5,0,0,0,.838,3.53c.14.41.279.832.414,1.24l.01.031a33.687,33.687,0,0,0,2.359,5.867c1.733,3.615,3.443,7.4,5.081,11.244,1.562,3.664,3.111,7.507,4.6,11.423,2.756,7.224,5.388,14.836,8.048,23.271,2.216,7.028,4.49,14.767,6.952,23.659,2.193,7.921,4.328,16,6.393,23.812l0,.016v0c1.782,6.744,3.625,13.717,5.494,20.543,2.5,9.251,5.43,20.015,8.6,30.692l.043.186a9.227,9.227,0,0,0,.614,1.837,3.775,3.775,0,0,0,.916,1.248,3.453,3.453,0,0,0,1.375.711,7.5,7.5,0,0,0,1.993.225h.018c1.719.079,3.462.119,5.181.119a109.128,109.128,0,0,0,21.108-2.036,96.253,96.253,0,0,0,20.124-6.274c-1.929-5.138-3.783-10.511-5.51-15.967-1.647-5.2-3.233-10.653-4.714-16.2-2.734-10.239-5.183-21.014-7.488-32.942-2.036-9.87-3.8-20.21-5.383-31.611-1.81-11.926-3.456-24.054-5.048-35.782v0c-.231-1.7-.439-3.234-.649-4.778-.744-5.239-1.4-10.987-2.009-17.572-.543-5.875-1-11.854-1.436-17.637-.555-7.307-1.128-14.862-1.886-22.269-.408-3.987-.834-7.614-1.3-11.087-.528-3.9-1.1-7.509-1.738-11.032h-.066a2.211,2.211,0,0,1-1.206-.371,2.5,2.5,0,0,1-.847-.925,1.915,1.915,0,0,1,.079-2.035,7.542,7.542,0,0,1,.477-4.339l-.062-.289c-2.463,2.183-5.268,3.54-7.321,3.54a3.371,3.371,0,0,1-1.367-.259,2.286,2.286,0,0,1-.979-.809,3.84,3.84,0,0,1-.513-2.423,13.557,13.557,0,0,1,1.017-4l.259-.649c.278-.692.566-1.394.845-2.073a73.7,73.7,0,0,0,3.507-9.854,27.281,27.281,0,0,0,.816-5.086,19.547,19.547,0,0,0-.355-5.166,50.151,50.151,0,0,1-6.8,2.988,56.248,56.248,0,0,1-7.11,1.992,65.726,65.726,0,0,1-7.329,1.111c-2.392.229-4.9.345-7.458.345a101.566,101.566,0,0,1-12.61-.834c-3.878-.488-8.013-1.207-12.289-2.136a5.518,5.518,0,0,1-.552,4.812,3.1,3.1,0,0,1-1.09.908,3.166,3.166,0,0,1-1.42.322,5.554,5.554,0,0,1-3.378-1.392c-.74-.6-1.478-1.226-2.194-1.87a18.618,18.618,0,0,1,.5,3.152,23.427,23.427,0,0,1,.012,3.186,37.738,37.738,0,0,1-1,6.31l-.093.475-.069.361-.005.029c-.46,2.431-1.033,5.457-2.821,7.081a2.552,2.552,0,0,1-1.709.681,2.41,2.41,0,0,1-1.408-.453,2.628,2.628,0,0,1-.947-1.292,38.873,38.873,0,0,0-1.5-8.687,36.1,36.1,0,0,0-3.5-8.112,31.857,31.857,0,0,1,.263,5.645,27.044,27.044,0,0,1-.807,5.53c-.089.342-.188.693-.284,1.032l0,.014a16.75,16.75,0,0,0-.678,3.146l.018.233a9.48,9.48,0,0,1-.051,2.212,3.25,3.25,0,0,1-.758,1.726,2.567,2.567,0,0,1-.982.655,4.362,4.362,0,0,1-1.489.256,4.122,4.122,0,0,1-1.394-.507,4.2,4.2,0,0,1-1.079-.93,7.69,7.69,0,0,1-1.394-2.894,23.434,23.434,0,0,1-.675-3.878c-.145-1.4-.233-2.922-.317-4.389a61.168,61.168,0,0,0-.626-6.7,15.855,15.855,0,0,0-.733-2.838,7.257,7.257,0,0,0-1.237-2.2,45.492,45.492,0,0,0-.717,5.9c-.419,5.305-.852,10.791-5.562,14a3.411,3.411,0,0,1-1.8.541A2.551,2.551,0,0,1,82.1,260.4a2.712,2.712,0,0,1-.913-1.678l.13-1.714c.205-2.761.331-4.843.322-6.688a23.05,23.05,0,0,0-.554-5.254,22,22,0,0,0-1.959-5.131,60.293,60.293,0,0,0-3.894-6.32,26.847,26.847,0,0,1-6.285.668c-2.6,0-5.288-.271-7.66-.509h0l-.486-.049-.624-.077c-.876-.109-1.768-.223-2.631-.334l-.031,0a113.353,113.353,0,0,0-14.33-1.227,44.943,44.943,0,0,0-7.159.534,80.113,80.113,0,0,1,1.344,12.388h0v0c.064,1.134.13,2.306.208,3.453.437,12.911,1.174,26.061,1.887,38.777v.008c.525,9.355,1.067,19.028,1.487,28.55.471,10.675.733,20.012.8,28.546.082,10.242-.1,19.569-.571,28.515-.253,4.849-.594,9.639-1.015,14.237-.441,4.826-.985,9.61-1.615,14.219l-.214,1.539c-.25,1.784-.509,3.6-.76,5.353l-.008.057v0c-1.143,8-2.326,16.281-3.062,24.455-.4,4.4-.636,8.418-.732,12.282-.107,4.338-.032,8.371.23,12.328.227,4,.6,8.062,1.127,12.426.473,3.887,1.066,7.923,1.812,12.34,1.385,8.2,3.1,16.486,4.759,24.5l.027.131.033.008.031.008c.778.2,1.582.4,2.375.591C44.179,507.256,44.2,507.212,44.238,507.212ZM193.3,502.507c0,.043.007.083.009.119.089.091.163.167.232.24l.115.122-.133-.327c-.072-.046-.147-.1-.219-.151h0Zm-6.116-233.325h0l-.305.257-.155.127c.241,1.074.486,2.226.77,3.625l-.048-.8c-.012-.208-.012-.466-.012-.739a8.145,8.145,0,0,0-.251-2.473Zm3.6-27.163a1.135,1.135,0,0,1,.82.326,3.2,3.2,0,0,1,.851,1.848,8.654,8.654,0,0,1-.068,2.082,23.436,23.436,0,0,1-2.01,7.1,22.427,22.427,0,0,1-1.83,3.22,20.848,20.848,0,0,1-2.347,2.854,22.732,22.732,0,0,1-.668,3.455h0c-.135.542-.274,1.1-.391,1.666l.014.04c.131.364.266.741.392,1.114a26.126,26.126,0,0,0,3.223-3.329,27.758,27.758,0,0,0,2.6-3.833,31.988,31.988,0,0,0,2.037-4.286,34.215,34.215,0,0,0,1.367-4.411,43.4,43.4,0,0,0,1.11-9.1,117.719,117.719,0,0,0-1.565-18.612c-.1-.7-.195-1.417-.291-2.126a1.783,1.783,0,0,1-.708.864,1.873,1.873,0,0,1-1,.277,2.114,2.114,0,0,1-.23-.013c-.142.355-.368.55-.636.55a.887.887,0,0,1-.684-.438,2.163,2.163,0,0,1-.347-1.155c-.151-4.7-.542-10.218-1.132-15.967-.655-6.388-1.52-12.8-2.573-19.058-1.161-6.906-2.629-14.458-4.487-23.089-.583-2.707-1.206-5.2-1.754-7.014-.518-1.715-.933-2.7-1.138-2.7a.072.072,0,0,0-.056.03,6.493,6.493,0,0,0,.066,2.571c.21,1.721.616,4.179,1.208,7.306l.315,1.656c1.427,7.537,2.715,15.031,3.827,22.273l.259,1.7c.1.67.21,1.355.323,2.081l.011.07c1.274,8.172,3.018,19.364,3.157,28.407a24.457,24.457,0,0,1-.78,6.845,15.623,15.623,0,0,1-2.055,4.575,15.067,15.067,0,0,1-4.733,4.4l-.042.027-.153.1a4.119,4.119,0,0,0,.26,2.8c.07.208.142.422.208.64a17.56,17.56,0,0,1,.465,5.667,27.758,27.758,0,0,1-1.174,6.008c-.587,1.96-1.332,3.916-2.052,5.807a67.6,67.6,0,0,0-2.421,7.144,11.166,11.166,0,0,0,3.2-1.614c1.1-.748,2.2-1.642,3-2.295a17.666,17.666,0,0,0,4.055-4.626,19.769,19.769,0,0,0,1.41-2.77,20.059,20.059,0,0,0,.961-2.95,14.43,14.43,0,0,0,.283-1.976,6.776,6.776,0,0,1,1.135-3.81A.985.985,0,0,1,190.786,242.02Zm-99.4-5.482a1.142,1.142,0,0,1,.841.383,14.72,14.72,0,0,1,3.324,5.936,36.549,36.549,0,0,1,1.244,6.76l.017.157c.133,1.168.2,2.367.263,3.527h0a29.978,29.978,0,0,0,.972,7.128l.04.122c.123.367.567,1.58,1.11,1.777a1,1,0,0,0,.335.068.449.449,0,0,0,.341-.139c.284-.3.235-1.06.2-1.668a6.276,6.276,0,0,1-.022-.672,18.929,18.929,0,0,1,.8-3.938,25.271,25.271,0,0,0,.692-2.945,28.284,28.284,0,0,0,.076-7.556,34.715,34.715,0,0,0-1.729-7.362,1.093,1.093,0,0,1,.093-1.031,1.331,1.331,0,0,1,1.086-.5,1.437,1.437,0,0,1,1.161.544,50.152,50.152,0,0,1,7.719,14.346,43.6,43.6,0,0,1,1.256,4.957c.1.449.193.913.3,1.374a31.628,31.628,0,0,0,1.694-13.361A21.727,21.727,0,0,0,111.5,238.1a21.429,21.429,0,0,0-3.808-5.812,2,2,0,0,1-.474-1.1,2.03,2.03,0,0,1,.19-1.061,2.01,2.01,0,0,1,1.734-1.2,1.737,1.737,0,0,1,1.291.628l.744.888.033.039c1.465,1.751,2.98,3.562,4.607,5.229.472.475.948.986,1.408,1.481a21.341,21.341,0,0,0,4.617,4.1,11.476,11.476,0,0,0-.9-3.987,14.324,14.324,0,0,0-2.043-3.369,41.49,41.49,0,0,0-5.963-5.678,43.54,43.54,0,0,1-5.5-5.145,37.2,37.2,0,0,1-2.826-3.82c-.811-1.248-1.592-2.587-2.388-4.1-1.478-2.8-2.776-5.759-4.032-8.619v0c-.515-1.172-1.047-2.385-1.582-3.564A14.65,14.65,0,0,1,95.6,205.4a15.079,15.079,0,0,1-1.358,2.1,19.153,19.153,0,0,1-3.552,3.478,56.407,56.407,0,0,1-9.034,5.256c-1.654.832-3.364,1.692-4.958,2.6a31.759,31.759,0,0,0-4.445,2.982,69.59,69.59,0,0,0,4.814,9.443v0a71.146,71.146,0,0,1,5.844,11.855,26.428,26.428,0,0,1,1.412,6.375,21.3,21.3,0,0,1,.031,3.321,20.669,20.669,0,0,1-.531,3.418l-.018.1c-.007.037-.015.08-.025.127l0,.017c-.116.588-.356,1.812-.044,2.058a.082.082,0,0,0,.052.015c.33,0,1.538-1.19,1.727-1.4a10.915,10.915,0,0,0,1.6-2.542,13.79,13.79,0,0,0,.9-2.762,37.067,37.067,0,0,0,.643-5.9c.079-1.427.161-2.9.358-4.322a16.69,16.69,0,0,1,1.062-4.133A1.484,1.484,0,0,1,91.385,236.538ZM52.661,131.157c-.693,2.1-1.444,4.228-2.171,6.282l-.006.017c-1.139,3.219-2.317,6.548-3.3,9.88a6.73,6.73,0,0,0,1.781,5.923,20.049,20.049,0,0,0,1.746,1.654c.976-5.559,1.486-11.277,1.98-16.806.1-1.138.206-2.314.315-3.479-.026-.314-.047-.641-.066-.93h0A19.255,19.255,0,0,0,52.661,131.157Zm.879-2.657-.178.548.059.1.057.106ZM162.086,60.836h0l0,.016.68,4.475c2.537,16.664,5.106,32.954,8.622,49.04.043.2.135.3.264.3a.541.541,0,0,0,.362-.218,2.834,2.834,0,0,0,.51-2.122c-1.134-9.254-3.892-22.729-6.006-32.4-2.338-10.7-4.393-19.092-4.434-19.093Zm-20.991-35.97c.14.166.284.354.454.59l0-.023c-.026-.152-.058-.341-.091-.522l-.014,0C141.332,24.9,141.212,24.882,141.094,24.866Z" transform="translate(69.585 -4.74)"/>
    </g>
    <g id="Head" transform="translate(95.946 42.662)">
      <g id="HEAD-2" data-name="HEAD">
        <path id="_Skin-2" data-name="âœ‹ Skin" d="M93.824,41.489c-.9-14.742-5.682-31.457-19.76-38.695C43.028-9.662,2.223,21.707.062,53.754-.691,64.724,5.4,76.711,16.529,79.76c2.474,3.279,6.216,5.281,9.91,7.019C70.43,109.6,98.847,91.05,93.824,41.489Z" transform="translate(8.532 22.516)" fill="#d08b5b"/>
        <path id="_Ink-2" data-name="ðŸ– Ink" d="M132.521,47.288q-2.332-6.477-4.925-12.855A132.67,132.67,0,0,0,122.3,22.124C109.825-1.42,87.131-1.42,75.4,1.656,69.316-.965,57.922-.226,51.587,2.14,41.332,5.969,28.832,21.033,24.557,27.8,15.121,42.744,9.232,62.633,15.5,79.9a38.9,38.9,0,0,0,3.041,6.361A24.81,24.81,0,0,1,16,89.153a88.623,88.623,0,0,0-8.041,8.6,42.754,42.754,0,0,0-5.9,10.077c-2.8,6.886-2.94,14.682.768,21.252,3.226,5.717,8.942,9.974,15.381,10.38.331.046.662.088.994.122a18.616,18.616,0,0,0,3.081,3.828c3.638,3.46,12.309,5.236,17.255,5.349.254.2.51.408.765.609a55.261,55.261,0,0,0,9.676,6.48c2.353,1.15,5.439,2.109,7.894,1.28a4.285,4.285,0,0,0,4.045-.021,10.7,10.7,0,0,0,4.19-4.645c2.178-4.477,1.654-9.376,1.095-14.159-.616-5.283-1.209-10.568-1.811-15.851a65.437,65.437,0,0,0-2.221-12.31,28.287,28.287,0,0,0-2.6-5.906.97.97,0,0,0-.021-.46,5.63,5.63,0,0,0-1.986-2.581c-.114-.1-.228-.206-.339-.313a10.671,10.671,0,0,0-1.417-1.365c-.194-.2-.386-.4-.578-.595A48.214,48.214,0,0,1,51.8,93.611c-1.3-1.825-2.472-3.731-3.588-5.672-1.135-1.974-1.886-4.152-3.019-6.112a.311.311,0,0,0-.481-.062,1.542,1.542,0,0,0-.533,1.19L44,82.981a1.192,1.192,0,0,0-1.457-1.022,5.774,5.774,0,0,1-3.223-.111c.182-1.211.351-2.425.517-3.64.3-2.237.585-4.482.827-6.726a9.76,9.76,0,0,1,1.735.6,8.361,8.361,0,0,1,2.23,1.451c.645.593,1.09,1.391,1.877,1.8A1.194,1.194,0,0,0,48.236,74c-.538-2.069-3.583-3.254-5.467-3.645a8.718,8.718,0,0,0-1.969-.178q.224-2.162.391-4.325.078-1.024.145-2.05a10.77,10.77,0,0,1,4.557-.367c.5.4,1,.8,1.491,1.2,1.543,1.275,3.078,2.557,4.6,3.863.137.116.273.232.41.351a1.131,1.131,0,0,0,1.872-1.09c-1.237-8.992,4.271-16.145,10.719-21.686,7.138-6.136,20.116-6.851,28.6-17.479,3.91.8,12.639,3.159,16.241,8.9,5.043,8.044,4.384,15.252,4.768,24.376s1.36,18.657-.713,27.661c-1.912,8.3-7.091,15.4-15.125,18.657-.2.081-.4.159-.6.235A24.316,24.316,0,0,1,85.1,109.6c-4.837-.915-8.875-3.129-12.9-5.852-.232-.154-.571.164-.4.4,5.3,7.03,15.722,9.378,23.986,7.523q.579-.132,1.152-.287a21.739,21.739,0,0,0,.931,16.328,21.982,21.982,0,0,0,6.347,7.935c2.965,2.342,6.643,4.233,8.7,7.52,1.884,3.012,1.325,6.4-1.9,8.137a1.6,1.6,0,0,0-.32,2.491c.308.237.616.479.931.716a37.147,37.147,0,0,0,7.569,4.017c7.133.846,11.93-4.392,15-10.571,3.609-7.253,2.671-16.091-1.306-23-3.19-5.541-9.472-11-6.975-18.015a20.266,20.266,0,0,1,4.484-6.57c2.019-2.2,4.19-4.254,6.126-6.53a23.239,23.239,0,0,0,4.583-7.551c1.391-4.143.7-8.622-.346-12.758C138.527,64.658,135.619,55.9,132.521,47.288Z" transform="translate(-20.144 7.547)"/>
      </g>
      <g id="FACE" transform="translate(37.761 44.084)">
        <path id="teeth" d="M.46,3.088C2.361-.7,19.79,1,19.79,1l1.472,12.054s-8.41,2.7-13.416,2.132S-1.44,6.88.46,3.088Z" transform="translate(21.824 50.182)" fill="#fff"/>
        <path id="tongue" d="M.021,3.213c-.6-1.286,11.858-4.791,15.716-2.4S18.389,6.48,18.389,6.48,2.163,10.174.021,3.213Z" transform="translate(23.491 56.388)" fill="#ff8181"/>
        <path id="_Ink-3" data-name="ðŸ– Ink" d="M17.5,52.815A17.036,17.036,0,0,1,11.6,51.806a11.1,11.1,0,0,1-4.85-3.377A9.642,9.642,0,0,1,4.61,42.867a8.277,8.277,0,0,1,.38-2.936,7.62,7.62,0,0,1,1.489-2.651,8.625,8.625,0,0,1,3.645-2.469A12.8,12.8,0,0,1,14.5,34.1a18.965,18.965,0,0,1,3.844.412c1.011.21,2.028.479,3.011.739a37.024,37.024,0,0,0,4.772,1.038,24.822,24.822,0,0,0,3.138.185c.193,0,.391,0,.59-.006.531-.01,1.07-.062,1.592-.113.578-.056,1.176-.115,1.762-.115.106,0,.21,0,.309.006a.19.19,0,0,1,.18.144.185.185,0,0,1-.084.208,9.431,9.431,0,0,1-2.834,1.085,25.175,25.175,0,0,1-3.061.468,3.54,3.54,0,0,0,.035.409c.062.371.107.677.143.965.086.7.182,1.4.276,2.089l.013.1c.064.465.115.943.164,1.406a21.92,21.92,0,0,0,.442,2.918l.06.234a2.161,2.161,0,0,1,.072.8l.08-.036.253-.123.166-.078a3.749,3.749,0,0,1,1.625-.43c.09,0,.182,0,.274.013a1.192,1.192,0,0,1,.7.3.941.941,0,0,1,.3.7,2.554,2.554,0,0,1-.558,1.622,4.367,4.367,0,0,1-1.392,1.107A15.251,15.251,0,0,1,26.9,51.332l-.076.019-.588.145a42.423,42.423,0,0,1-7.785,1.3C18.139,52.807,17.82,52.815,17.5,52.815Zm-1.4-7.861h0a13.518,13.518,0,0,0-3.952.7,4.709,4.709,0,0,0-2.2,1.128.123.123,0,0,0,.027.146,8.594,8.594,0,0,0,3.469,2,13.57,13.57,0,0,0,4.017.555,20.831,20.831,0,0,0,2.811-.2,46.059,46.059,0,0,0,5.337-1.1,3.619,3.619,0,0,0-1.275-2.475,3.7,3.7,0,0,0-2.329-.794,3.851,3.851,0,0,0-1.759.416,3.042,3.042,0,0,0-1.277,1.208,1.655,1.655,0,0,0-.964-1.236,4.357,4.357,0,0,0-1.9-.352ZM15.2,37.435h0a11.253,11.253,0,0,0-2.88.333,7.1,7.1,0,0,0-2.578,1.246,4.249,4.249,0,0,0-1.6,2.6c2.124-.314,4.422-.585,7.026-.828l.641-.059c1.463-.132,2.946-.272,4.408-.418l1.044-.105,1.043-.108c.284-.03,1.781-.109,2.673-.109a4.409,4.409,0,0,1,.633.029c.013-.111.027-.254.043-.42a10.906,10.906,0,0,1,.176-1.306c-.285.01-.574.014-.859.014a33.3,33.3,0,0,1-4.4-.317l-.308-.042-1.21-.174-.477-.065a26,26,0,0,0-3.382-.268Zm10.732-7.044h0a8.306,8.306,0,0,1-2.956-.595A14.94,14.94,0,0,1,19.5,27.828a1.333,1.333,0,0,1-.485-.77,1.592,1.592,0,0,1,.069-.865,1.967,1.967,0,0,1,.585-.844,1.426,1.426,0,0,1,.912-.355,1.3,1.3,0,0,1,.706.216l.236.182h0A18.822,18.822,0,0,0,23.7,26.9a5.369,5.369,0,0,0,2.609.83,2.822,2.822,0,0,0,1.1-.216,3.081,3.081,0,0,0,1.027-.726,3.31,3.31,0,0,0,.657-1.763l-.045.024c-.012.008-.025.015-.037.021l-.03.017V25.03L29.071,25l.027-.009c0,.009,0,.018,0,.027v.011l.042-.023.029-.017c.016-.01.024-.017.023-.02s0,0-.005,0a.42.42,0,0,0-.087.023,3.981,3.981,0,0,0-1.08-2.686,9.031,9.031,0,0,0-2.175-1.834.594.594,0,0,1-.161-.684.893.893,0,0,1,.3-.426.911.911,0,0,1,.568-.187,1.212,1.212,0,0,1,.2.018,6.458,6.458,0,0,1,2.268.818,5.141,5.141,0,0,1,1.525,1.4,5.568,5.568,0,0,1,.974,3.725,6.128,6.128,0,0,1-.5,1.955,5.7,5.7,0,0,1-1.124,1.68A5.379,5.379,0,0,1,25.934,30.391ZM9.149,20.035a2.039,2.039,0,0,1-1.323-.511,4.058,4.058,0,0,1-.955-1.239,7.033,7.033,0,0,1-.788-2.9v-.053A7.945,7.945,0,0,1,6.8,12.286a2.824,2.824,0,0,1,2.349-1.914c.633,0,1.194.511,1.623,1.477a9.838,9.838,0,0,1,.709,3.293l.005.1a9.319,9.319,0,0,1-.189,2.182,4.3,4.3,0,0,1-.941,2.08A1.628,1.628,0,0,1,9.149,20.035Zm25.967-.474a1.632,1.632,0,0,1-1.221-.547,4.282,4.282,0,0,1-.945-2.149,9.144,9.144,0,0,1-.167-2.2l.012-.181a9.552,9.552,0,0,1,.727-3.177c.425-.923.976-1.411,1.593-1.411a2.824,2.824,0,0,1,2.349,1.914,7.946,7.946,0,0,1,.716,3.048v.053a7.033,7.033,0,0,1-.788,2.9,4.057,4.057,0,0,1-.955,1.239A2.039,2.039,0,0,1,35.117,19.561ZM1.336,10.271H1.323a1.167,1.167,0,0,1-.9-.438A2.982,2.982,0,0,1,.059,7.623a9.472,9.472,0,0,1,.867-2.6,10.464,10.464,0,0,1,1.54-2.269A8.445,8.445,0,0,1,4.661.982,7.882,7.882,0,0,1,7.328.067,6.091,6.091,0,0,1,8.239,0a5.619,5.619,0,0,1,2.366.492,3.785,3.785,0,0,1,.986.657,3.085,3.085,0,0,1,.7.968,1.278,1.278,0,0,1-.038,1.2,1.147,1.147,0,0,1-.962.539c-.238.011-.5.017-.787.017-.264,0-.523,0-.774-.009H9.723c-.247,0-.5-.008-.749-.008a8.95,8.95,0,0,0-2,.181,5.1,5.1,0,0,0-1.931.888A9.853,9.853,0,0,0,2.88,7.291l-.227.331-.188.272a3.167,3.167,0,0,0-.733,1.969.361.361,0,0,1-.1.269A.412.412,0,0,1,1.336,10.271ZM41.308,8.649a1.474,1.474,0,0,1-.83-.24,4.057,4.057,0,0,1-1.21-1.466,6.848,6.848,0,0,0-.659-.988,7.088,7.088,0,0,0-4.484-2.289l-.141-.013c-.1-.008-.245-.013-.406-.013a7.756,7.756,0,0,0-1.287.1,1.519,1.519,0,0,0-.985.438.409.409,0,0,0-.031.4.162.162,0,0,1-.017.155.234.234,0,0,1-.186.1.172.172,0,0,1-.131-.057,1.1,1.1,0,0,1-.3-.917,2.591,2.591,0,0,1,1.192-1.6,6.8,6.8,0,0,1,3.636-1c.2,0,.4.008.6.024a9.784,9.784,0,0,1,3.278.947,8.11,8.11,0,0,1,2.882,2.2,4.193,4.193,0,0,1,.722,1.378,3.385,3.385,0,0,1,.081,1.565A1.73,1.73,0,0,1,41.308,8.649Z" transform="translate(14.724 13.747)"/>
      </g>
    </g>
  </g>
</svg>
