<svg xmlns="http://www.w3.org/2000/svg" width="390.67" height="780" viewBox="0 0 390.67 780">
  <g id="peep-standing-17" transform="translate(28.736)">
    <g id="BODY" transform="translate(-28.736 150.264)">
      <path id="_Skin" data-name="âœ‹ Skin" d="M61.408,523.748h0a56.3,56.3,0,0,1-15.915-2.312,53.09,53.09,0,0,1-7.422-2.811,47.328,47.328,0,0,1-6.736-3.845,4.248,4.248,0,0,1-1.655-1.792,7.732,7.732,0,0,1-.765-2.606,11.907,11.907,0,0,1,.258-4.246,6.67,6.67,0,0,1,1.589-3.163A290.209,290.209,0,0,1,39.9,456.634c-.047-.574-.086-1.211-.118-1.894-.056-.054-.075-.1-.059-.144.057-.139.52-.2,1.459-.2,1.031,0,2.551.078,4.311.168H45.5l1.158.059c2.362.118,4.893.227,7.4.227a36.022,36.022,0,0,0,8.4-.736,2.38,2.38,0,0,0,1.466-1.143,5.371,5.371,0,0,0,.644-1.918,10.607,10.607,0,0,0,.027-3.1c-.072-.366-6.6-.664-13.52-.98h0c-7.289-.333-14.825-.677-14.863-1.121a.215.215,0,0,1,.045-.192c.272-.346,1.605-.469,2.762-.469.276,0,.526.008.686.021a3.674,3.674,0,0,1,1.982-2.412l.768-2.041-.612-.053-.051,0c-.5-.044-1.125-.1-1.3-.111.289-2.908.575-5.877.853-8.748l0-.026v-.01c.74-7.666,1.5-15.593,2.414-23.4,1.022-8.767,2.117-16.4,3.347-23.324A232.086,232.086,0,0,1,52.3,362.172c1.091-3.846,2.291-7.614,3.567-11.2,1.339-3.763,2.809-7.454,4.367-10.971-1.291-3.03-2.81-6.01-4.279-8.891a110.9,110.9,0,0,1-5.38-11.651c-1.3-3.775-2.447-7.682-3.5-11.947-.937-3.794-1.777-7.783-2.569-12.193-1.47-8.184-2.538-16.56-3.571-24.66v-.012c-.45-3.529-.915-7.179-1.4-10.736A7.9,7.9,0,0,1,37.8,258.1a20.4,20.4,0,0,1-1.352-2.289l-2.237.538c-.044,3.511-.785,4.177-2.136,4.177a2.586,2.586,0,0,1-1.652-.514,4.729,4.729,0,0,1-1.4-2.526l-1.188-4.364L26.73,257.5a3.814,3.814,0,0,1-1.015,1.827,2.1,2.1,0,0,1-1.434.588,2.245,2.245,0,0,1-1.465-.576,3.6,3.6,0,0,1-1.043-1.664c-.316-2.51-.679-5.076-1.03-7.558v-.009c-.631-4.46-1.283-9.072-1.706-13.629-.228-2.454-.373-4.691-.443-6.839-.078-2.412-.061-4.649.054-6.839A223.764,223.764,0,0,1,2.588,168.8a194.579,194.579,0,0,1-2.581-29.41c-.044-4.984.128-9.931.511-14.7.4-4.935,1.029-9.8,1.88-14.472a128.608,128.608,0,0,1,8.881-29.79,140.775,140.775,0,0,1,7.579-15.088A126.372,126.372,0,0,1,28.389,51.17,103.941,103.941,0,0,1,39.77,38.719c2.066-1.908,4.2-3.7,6.351-5.336a77.232,77.232,0,0,1,6.774-4.612,69.065,69.065,0,0,1,7.184-3.789,63.091,63.091,0,0,1,7.581-2.867,59.622,59.622,0,0,1,7.965-1.847,58.877,58.877,0,0,1,8.335-.727l-.338.1-.169.047-.364.1a80.994,80.994,0,0,0,8.293-2.125l.29-.072.049-.012a9.953,9.953,0,0,0,3.038-1.089,3.165,3.165,0,0,0,1.024-1.055,3.925,3.925,0,0,0,.494-1.684l.03-.434.014-.2c.715-10.461.715-10.461,9.231-11.951l.012,0c.851-.149,1.816-.318,2.865-.512a30.065,30.065,0,0,1,6.1-.648,19.739,19.739,0,0,1,7.644,1.383,12.227,12.227,0,0,1,5.842,4.9,17.1,17.1,0,0,1,1.765,5.232c.2.918.411,1.866.695,2.773.456.815,2.115,1.266,3.448,1.628l.067.018a40,40,0,0,0,5.372,1.22c1.847.3,3.749.513,5.529.7h.148a35.879,35.879,0,0,1,4.431.271,33.19,33.19,0,0,1,4.144.787,32.39,32.39,0,0,1,3.872,1.263,33.346,33.346,0,0,1,3.618,1.7,38.1,38.1,0,0,1,6.537,4.546,50.916,50.916,0,0,1,5.717,5.813,73.676,73.676,0,0,1,5.03,6.761c1.482,2.234,2.946,4.652,4.475,7.391,2.829,5.069,5.364,10.32,7.816,15.4,1.47,3.045,2.859,5.922,4.273,8.685,1.232,2.448,2.431,5.011,3.7,7.724a167.4,167.4,0,0,0,8.443,16.446,59.1,59.1,0,0,0,5.22,7.343,41.16,41.16,0,0,0,2.984,3.189,33.45,33.45,0,0,0,3.28,2.766c3.3-2.67,6.686-5.33,9.956-7.9h0c5.823-4.581,11.845-9.319,17.566-14.217,3.078-2.635,5.831-5.11,8.417-7.565,2.9-2.753,5.516-5.412,8-8.13a.97.97,0,0,1,.744-.3,4.108,4.108,0,0,1,1.6.52,6.625,6.625,0,0,0,.64.281c.206-5.748,1.77-11.424,3.282-16.913.639-3.143,1.552-5.352,2.791-6.752a5.618,5.618,0,0,1,2.087-1.515,6.658,6.658,0,0,1,2.595-.472,14.18,14.18,0,0,1,3.544.524,69.738,69.738,0,0,1,6.015-12.24,40.885,40.885,0,0,1,7.443-8.98,11.686,11.686,0,0,1,2-1.722,4.2,4.2,0,0,1,2.149-.842,1.252,1.252,0,0,1,1.01.451,2.748,2.748,0,0,1,.5,1.547,20.025,20.025,0,0,1-.859,4.047c-.413,1.336-.931,2.688-1.432,4h0c-.455,1.187-.925,2.414-1.319,3.633-.366.877-.72,1.781-1.1,2.739v0a48.316,48.316,0,0,1-4.236,8.965c.144.051.292.1.423.146A7.671,7.671,0,0,1,293.1,48.6l.452-.507a10.193,10.193,0,0,1,3.022,3.073,12.167,12.167,0,0,1,1.7,4.211c.6.229.827.733,1.054,1.369l1.11,2.426.314-.725c.444.614.868,1.162,1.279,1.692l0,0a11.774,11.774,0,0,1,2.357,3.9,4.818,4.818,0,0,1,.073,2.134,9.349,9.349,0,0,1-1,2.683l1.369-.292c.118.358.24.7.377,1.088a7.755,7.755,0,0,1,.855,3.639,6.176,6.176,0,0,1-.257,1.61,5.842,5.842,0,0,1-.639,1.412,6.08,6.08,0,0,1-5.219,2.8,7.2,7.2,0,0,1-2.036-.3,8.6,8.6,0,0,1-2.094-.949,10.656,10.656,0,0,1-1.057,4.408A11.706,11.706,0,0,1,293.6,84.21a12.375,12.375,0,0,1-1.519,1.691,12.755,12.755,0,0,1-3.866,2.458,12.176,12.176,0,0,1-4.593.9,11.925,11.925,0,0,1-1.389-.081c-.024.107-.046.217-.067.323v0c-.156.781-.3,1.518-1.357,1.518-.064,0-.131,0-.2-.008a56.724,56.724,0,0,1-4.077,5.943c-1.788,2.339-3.909,4.908-6.3,7.635-2.477,2.821-5.151,5.7-7.948,8.562-2.966,3.032-6,5.967-9.011,8.723-3.24,2.963-6.434,5.694-9.492,8.118a111.867,111.867,0,0,1-9.391,6.747c-6.6,4.192-12.038,6.317-16.153,6.318a10.588,10.588,0,0,1-1.56-.111,26,26,0,0,1-3.315.213,28.653,28.653,0,0,1-11.168-2.359,39.987,39.987,0,0,1-9.993-6.21,53.492,53.492,0,0,1-8.3-8.758,58.14,58.14,0,0,1-3.353-4.927,55.217,55.217,0,0,1-2.736-5.076c-.335,3.21-.556,6.3-.655,9.189-.1,2.774-.082,5.457.04,7.974a69.233,69.233,0,0,0,1.829,13.125,68.1,68.1,0,0,0,3.605,10.729c1.424,3.36,3.023,6.573,4.715,9.975,1.806,3.631,3.674,7.386,5.5,11.664a120.786,120.786,0,0,1,5.2,14.672,1.412,1.412,0,0,1,.863.91,1.1,1.1,0,0,1-.364.948,16.865,16.865,0,0,0,.482,2.156,14.033,14.033,0,0,1,.53,2.607,4.706,4.706,0,0,1-.068,1.258,3.584,3.584,0,0,1-.47,1.2.443.443,0,0,1-.448.371.668.668,0,0,1-.491-.238l-2.059,1.07a25.218,25.218,0,0,1,.7,6.128c.013,2.077-.142,4.208-.293,6.27a63.376,63.376,0,0,0-.25,7.688c-.021,3.24-.173,6.569-.45,9.9-.264,3.171-.651,6.445-1.151,9.731a183.347,183.347,0,0,1-4.006,19.063c-1.478,5.636-3.313,11.749-5.611,18.689-2.048,6.188-4.268,12.449-6.414,18.5v0c-2.12,5.98-4.311,12.164-6.34,18.28-2.275,6.86-4.1,12.9-5.573,18.475a132.831,132.831,0,0,0-3.256,13.3c-.781,4.078-1.392,8.242-1.866,12.731-.884,8.37-1.151,16.481-1.433,25.068v0c-.166,5.059-.338,10.29-.647,15.69a99.353,99.353,0,0,1-3.285,15.508c-1.628,5.963-3.636,12.453-5.407,18.179l0,0-.006.02c-.772,2.494-1.5,4.85-2.157,7.029-.088.292-5.365,1.675-10.468,3.012h0c-5.147,1.348-10.008,2.622-10.089,2.893a3.545,3.545,0,0,0,.034,1.637,6.876,6.876,0,0,0,.786,2.018,5.07,5.07,0,0,0,1.058,1.289,3.335,3.335,0,0,0,1.447.743,14.284,14.284,0,0,0,3.031.282,44.245,44.245,0,0,0,6.178-.564c.394-.058.783-.116,1.126-.168a28.444,28.444,0,0,1,3.346-.4c.372,0,.6.049.689.148a.178.178,0,0,1,.046.142c-.008.086.028.626.082,1.443v0c.22,3.322.736,11.1-.082,12.277a15.749,15.749,0,0,1,2.9,2.741c1.159,1.285,2.538,2.937,3.989,4.777,1.339,1.7,2.635,3.427,3.651,4.869a19.237,19.237,0,0,1,1.884,3.017,7.977,7.977,0,0,0,2.53,3.71,10.266,10.266,0,0,0,1.93,1.249,14.793,14.793,0,0,0,2.3.911,27.231,27.231,0,0,0,5.454,1.007c1.781.169,3.755.248,6.214.248,2,0,4.025-.052,5.989-.1h.007l.061,0c1.935-.05,3.936-.1,5.817-.1,2.216,0,3.972.07,5.526.219a21.467,21.467,0,0,1,4.618.88c2.925.959,4.535,2.621,4.922,5.081a9.808,9.808,0,0,1,1.526,2.385,2.7,2.7,0,0,1,.2,1.715c-.366,1.405-2.231,2.148-4.592,3.088l-.44.176a41.842,41.842,0,0,1-8.026,2.624,104.957,104.957,0,0,1-10.643,1.864c-3.8.486-7.927.86-12.259,1.112-4.217.245-8.549.369-12.875.369a189.01,189.01,0,0,1-19.1-.9c-2.932-.305-5.616-.683-7.975-1.123a46.559,46.559,0,0,1-6.279-1.566,4.425,4.425,0,0,1-1.857,2.233,5.291,5.291,0,0,1-2.7.654,10.853,10.853,0,0,1-3.383-.612c-1.082-.26-2.17-.53-3.222-.791l-.023-.006c-2.028-.5-4.125-1.023-6.24-1.491-3.961-.843-6.6-1.609-7.169-4.468a33.9,33.9,0,0,1-.4-6.733V495.4q0-.3,0-.6a7.719,7.719,0,0,1,.446-3.628c.413-.735,1.173-1.076,2.625-1.176a24.153,24.153,0,0,1-1.514-2.957,18.038,18.038,0,0,1-.914-2.729,14.558,14.558,0,0,1-.366-4.913,18.834,18.834,0,0,1,1.019-4.422c.5-1.423,1.121-2.84,1.727-4.211h0a41.711,41.711,0,0,0,2.36-6.231,18.617,18.617,0,0,0,.581-3.43,16.945,16.945,0,0,0-.15-3.777c-2.531-2.63-3.53-7.626-4.412-12.033h0c-.346-1.728-.672-3.36-1.067-4.738,0-.015.014-1.525-.1-3.14a19.39,19.39,0,0,0-.3-2.388,3.306,3.306,0,0,0-.613-1.567.5.5,0,0,0-.356-.167c-.5,0-1.135.887-1.878,2.635-.141.235-.33.56-.53.9a90,90,0,0,1-5,7.846c-2.513,3.411-4.537,5.14-6.018,5.141a1.708,1.708,0,0,1-.747-.167,40.686,40.686,0,0,0-3.58,4.578,20.216,20.216,0,0,0-2.121,4.148c-1.025,2.793-1.37,5.814-1.62,10.088-.086,3.482.959,6.764,1.969,9.938,2.159,7.195,4.547,14.071,7.1,20.437a10.286,10.286,0,0,1,3.7,2.4,2.441,2.441,0,0,1,.474-.05c.317,0,.707.077.771.443A20,20,0,0,1,90.7,505.2a13.893,13.893,0,0,1,.315,3.187,11.013,11.013,0,0,1-.427,2.822,10.545,10.545,0,0,1-1.086,2.477c-1.727,2.877-4.92,5.212-9.49,6.939a43.561,43.561,0,0,1-6.563,1.86,63.729,63.729,0,0,1-6.834,1.008C64.909,523.663,63.156,523.748,61.408,523.748ZM41.678,108.284h0c-1.692,8.285-3.583,18.088-4.778,27.976a157.266,157.266,0,0,0-1.083,28.459l2.338.232a51.28,51.28,0,0,1,2.174-6.483c.85-2.11,1.81-4.214,2.738-6.25a81.7,81.7,0,0,0,4.744-12.074,26.188,26.188,0,0,0,.637-5.137,33.954,33.954,0,0,0-.255-5.04,86.553,86.553,0,0,0-2-9.923v0a74.451,74.451,0,0,1-2.169-11.621l-2.35-.138Z" transform="translate(63.41 -4.978)" fill="#d08b5b"/>
      <path id="_Shoes" data-name="ðŸ‘Ÿ Shoes" d="M31.933,33.049a55.935,55.935,0,0,1-12.909-1.524,56.072,56.072,0,0,1-12.36-4.514c-1.278-.659-2.525-1.368-3.708-2.107L2.6,24.68l-.3-.19-.15-.1A3.45,3.45,0,0,1,.868,23.1L.83,23.022l-.019-.039L.8,22.942c-.065-.191-.126-.39-.182-.591l-.042-.157-.041-.158A17.811,17.811,0,0,1,.1,17.99l-.029-.925L0,14.786l1.36,1.831a9.758,9.758,0,0,0,2.555,2.224l.546.36,1.063.7.031.02A40.816,40.816,0,0,0,9.812,22.4a49.011,49.011,0,0,0,4.725,2.071,47.343,47.343,0,0,0,8.13,2.211,47.454,47.454,0,0,0,8.313.739,42,42,0,0,0,19.749-4.729l.313-.169.835-.5.26-.158a12.218,12.218,0,0,0,3.313-2.64l.057-.071.056-.072.224-.29.367.014h.06a1.314,1.314,0,0,0,.963-.4,2.323,2.323,0,0,0,.54-1.7l0-.07-.252-5.585,1.645,5.344a10.778,10.778,0,0,1,.507,3.443,8.392,8.392,0,0,1-.662,3.088,8.884,8.884,0,0,1-1.785,2.664,12.271,12.271,0,0,1-2.862,2.17,44.541,44.541,0,0,1-10.74,3.983A51.255,51.255,0,0,1,31.933,33.049ZM126.7,19.933c-5.324,0-10.716-.215-16.026-.638-2.65-.213-5.317-.479-7.927-.793l-.874-.107-1.039-.132L99.7,18.127l-.3-.037-.293-.039a15.2,15.2,0,0,1-3.206-.718,6.958,6.958,0,0,1-2.281-1.357l-.074-.067-.1-.094a.955.955,0,0,0-.663-.252.912.912,0,0,0-.975.776v.039l0,.045a1.64,1.64,0,0,1-.38,1.248,2.054,2.054,0,0,1-1.2.615,4.315,4.315,0,0,1-.766.063,9.663,9.663,0,0,1-1.864-.217c-.4-.081-.828-.181-1.3-.306l-.322-.088-.442-.128-.193-.057-.969-.291-1.193-.327c-.446-.124-.937-.261-1.591-.446l-3.4-.958-.821-.228c-.713-.2-1.32-.358-1.969-.527L75.1,14.7l-.745-.144-.266-.054-.24-.052a3.645,3.645,0,0,1-2.427-1.231,3.077,3.077,0,0,1-.438-1.237,13.346,13.346,0,0,1-.137-1.944l0-.281-.134-1.209-.081-.7c-.1-.8-.184-1.455-.276-2.062l-.056-.361L70.275,5.3,70.2,4.857c0-.011-.016-.079-.038-.18-.036-.165-.095-.442-.123-.586-.063-.319-.108-.6-.139-.864a3.641,3.641,0,0,1,.071-1.555A1.222,1.222,0,0,1,70.988.782l.056-.006h.021L71.106,0l1.029.654c2.883,1.833,5.713,3.5,8.412,4.952C83.313,7.1,86.054,8.421,88.7,9.547a79.261,79.261,0,0,0,8,2.927,67.905,67.905,0,0,0,7.962,1.911,87.285,87.285,0,0,0,14.378,1.095c1.739,0,3.58-.04,5.472-.12l.856-.038.707-.035c4.188-.214,8.067-.55,15.961-1.386l2.805-.3,3.5-.455,1.491-.2c6.856-.919,10.974-1.6,15.2-2.515l.472-.1.013-.01a4.588,4.588,0,0,1,.437-.272l.163-.092c.447-.248.608-.371.692-.524l.011-.021.211-.429.65.045.01-.006c.132-.072.27-.145.409-.217L168.3,8.7l.213-.1.088-.043.252-.046.272-.052c.5-.1.976-.215,1.715-.412l.575-.156.211-.058.207.07a2.756,2.756,0,0,1,1.044.614,1.989,1.989,0,0,1,.54.875,1.883,1.883,0,0,1,.028.95,2.308,2.308,0,0,1-.463.94l-.042.051-.031.036,0,.034a1.42,1.42,0,0,1-.755.962l-.061.038-.09.054-.074.042-.027.036a1.522,1.522,0,0,1-.211.22l-.061.049-.064.047-.028.019-.573.37-.189.119a5.344,5.344,0,0,1-1.087.548l-.078.026,0,0a7.885,7.885,0,0,1-2.715,1.639,23.873,23.873,0,0,1-4.1,1.081l-.34.063-.17.031-.514.092c-5.738,1.025-11.607,1.806-17.446,2.321S132.567,19.933,126.7,19.933Z" transform="translate(93.096 484.623)" fill="#fff"/>
      <path id="_Pants" data-name="ðŸ‘– Pants" d="M0,0,1.745.94a129.457,129.457,0,0,0,22.528,9.291l.689.217c6.288,1.967,12.776,3.659,21.719,5.748l.328.077,1.948.452,2.034.468a171.38,171.38,0,0,0,82.685-.35l.583-.13a72.029,72.029,0,0,0,14.9-4.71A22.911,22.911,0,0,0,156.55,6.94l.117-.129.9-1.008.324,1.311a25.851,25.851,0,0,1,.683,6.041v.277l-.022.286-.026.312c-.091,1.035-.215,2.031-.438,3.571l-.046.315-.375,2.528c-.206,1.417-.323,2.326-.411,3.256l-.031.34-.019.222-.017.4A142.609,142.609,0,0,1,152.511,53.9l-.123.477-.187.715-.245.927c-1.882,7.069-3.881,13.4-7.63,24.467l-.5,1.471-2.555,7.5c-.392,1.153-.716,2.109-1.009,2.981l-.124.369-1.127,3.385-.67,1.821-.608,1.662c-6.418,17.573-10.558,30.355-13.742,43.244l-.221.9c-4,16.459-5.934,31.628-5.614,46.43.3,17.522-3.06,35.574-9.688,54.661l-.376,1.075-.989-.038a142.939,142.939,0,0,0-41.759,4.5l-.429.115-.7.189-.176-.716c-.054-.272-.968-5.321-1.51-7.669l-.033-.143-.07-.292-.112-.448c-1.213-4.768-2.679-7.405-4.159-7.162-2.252.37-5.466,3.77-8.935,9.039-1.231,1.87-2.43,3.881-3.466,5.771l-.237.435-.3.565a26.027,26.027,0,0,0-1.159,2.376l-.264,1.236-.92-.852a3.8,3.8,0,0,0-1.973-.749l-.231-.038-1.175-.163-.22-.033-.175-.029-.687-.124c-2.528-.448-5.14-.815-7.869-1.112l-.663-.071-.269-.153a20.222,20.222,0,0,0-14.828-1.53l-.323.093-.514-.089a49.427,49.427,0,0,0-8.264-.718l-.334,0-.81.008.159-1.337q.126-1.072.247-2.175l.134-1.24c.309-2.9.562-5.545.881-9.233l.259-3.044.827-9.99c.079-.932.149-1.753.222-2.578l.105-1.189.073-.789a475.9,475.9,0,0,1,11.971-69.742l.251-1.014,1.086-2.555.493,2.135a11.131,11.131,0,0,1,.263,3.476c-.032.392.191.6.6.6a.773.773,0,0,0,.829-.711,13.689,13.689,0,0,0-1.555-7.214l-.077-.165-.137-.288-.141-.29-.439-.883-.613-1.219-1.746-3.437c-4.021-7.936-5.827-12.009-7.252-16.989l-.089-.312-.11-.4-.963-3.433L9.6,113.4c-.437-1.6-.745-2.832-1.016-4.09l-.1-.462c-2.1-9.919-3.625-19.632-5.54-34.35l-.179-1.38-.345-2.693L1.5,63.193l.217-.242a6.182,6.182,0,0,0,1.242-3.5l.022-.2a12.284,12.284,0,0,1,.368-1.867l.087-.332.168-.624.151-.569c.131-.508.22-.914.281-1.3l.028-.182.034-.081a15.651,15.651,0,0,0,1.006-4.608l.017-.18c.027-.3.049-.565.072-.891l.009-.126.14-2.188.139-1.922.086-1.256c.024-.363.049-.735.074-1.13l.052-.825.246-4.041.232-3.739,0-.065V33.3l-.006-.455v-.2l0-.17a1.735,1.735,0,0,1,.38-1.308c.417-.419,1.015-.471,2.011-.375l.095.009.272.031.1.012.718.094.138.015.072.006.1.006a11.691,11.691,0,0,0,5.619-.864c1.78-.83,2.579-2.066,2.225-3.794l-.012-.054-.013-.041a4.756,4.756,0,0,0-1.768-2.143l-.192-.153-.582-.454-.168-.133-.87-.7-.887-.708-.233-.186L6.706,16.624l-1.231-.979-.7-.559-1.091-.878-.1-.091c-.171-.151-.33-.3-.532-.5l-.194-.194L2.3,12.857A7.666,7.666,0,0,0,.6,11.447l-.549-.306.232-.807L.382,10c.967-3.5,1.186-6.052.4-8.069l-.038-.1Z" transform="translate(102.269 191.342)" fill="#ffcf77"/>
      <path id="_Ink" data-name="ðŸ– Ink" d="M62.769,520.938a57.7,57.7,0,0,1-8.112-.575A56.556,56.556,0,0,1,46.7,518.64a53.808,53.808,0,0,1-7.6-2.87,50.256,50.256,0,0,1-7.048-4.014,7.324,7.324,0,0,1-1.821-1.717,5.019,5.019,0,0,1-.9-2.314l-.038-.343c-.095-.88-.148-1.647-.163-2.346a15.291,15.291,0,0,1,.115-2.382,9.415,9.415,0,0,1,.57-2.252,6.594,6.594,0,0,1,1.2-1.957c.919-7.844,2.134-15.645,3.612-23.188,1.525-7.785,3.363-15.464,5.463-22.823-.032-.4-.058-.819-.081-1.275a11.956,11.956,0,0,1-2.621-4.426,26.239,26.239,0,0,1,3.3-.226c.559,0,1.1.024,1.622.07l.057.005-.312.318,1.441.171.18.021c.4.043.784.071,1.465.1l.714.034a14.378,14.378,0,0,1,2.676.293l.129.029.189-.027a3.852,3.852,0,0,1,.5-.03c.225,0,.487.015.876.049l.354.031c.418.035.7.05.945.05a5.568,5.568,0,0,0,.615-.034l.249-.032.025,0,.065-.012.073-.018a1.325,1.325,0,0,0,.392-.176l.021-.014.624-.006H54.4l.85,0,1.727.014,1.418.009h.379c1.012,0,1.842-.011,2.613-.036l.5-.018.312-.013a1.444,1.444,0,0,0,.984-.435,1.547,1.547,0,0,0,.431-.959,1.377,1.377,0,0,0-.341-1.048,1.281,1.281,0,0,0-.956-.4l-.073,0c-.818.037-1.669.058-2.681.064l-.43,0h-.567l-3.091-.022c-.545,0-1.015-.005-1.44-.005-1.689,0-2.812.028-4,.1l-.4.026-.284-.056c-.219-.045-.461-.1-.81-.181l-.686-.162-.178-.041-.378-.085-.275-.058L46.988,444l-.057-.042a1.415,1.415,0,0,0-.469-.211,24.018,24.018,0,0,0-3.43-.593,27.95,27.95,0,0,0-3.061-.16c-.908,0-1.878.039-2.882.117l-.527.041c-.06-.437-.108-.89-.144-1.347a1.579,1.579,0,0,1,.983-1.492,6.878,6.878,0,0,1,1.974-.468c.362-.05.7-.1,1-.168.4-3.97.792-8.018,1.169-11.932l0-.034V427.7l0-.026v-.015c.739-7.679,1.5-15.619,2.408-23.421,1.019-8.778,2.109-16.415,3.332-23.346a234.275,234.275,0,0,1,5.155-22.924c1.084-3.85,2.276-7.622,3.543-11.21,1.331-3.77,2.79-7.469,4.337-10.994-1.229-2.837-2.669-5.667-4.062-8.4l0-.005v0a115.458,115.458,0,0,1-5.23-11.26l-.181-.484c-.733-1.914-1.277-3.89-1.8-5.8v0c-.226-.82-.482-1.749-.748-2.647a18.509,18.509,0,0,1-1.221-4.193c-1.43-6.535-2.726-13.731-3.964-22-1.1-7.362-2.054-14.864-2.975-22.119v0l0-.036-.05-.391-.273-2.151-.01-.078a13.164,13.164,0,0,1-3-4.172l-.007.373a8.579,8.579,0,0,1-.6,3.371,2.793,2.793,0,0,1-.992,1.161,3.147,3.147,0,0,1-1.724.448h-.114a3.994,3.994,0,0,1-1.6-.352,3.6,3.6,0,0,1-1.16-.869,6.514,6.514,0,0,1-1.327-2.7,4.73,4.73,0,0,1-1.443,2.472,3.508,3.508,0,0,1-1.046.624,3.23,3.23,0,0,1-1.142.209A3.344,3.344,0,0,1,23.558,256a4.771,4.771,0,0,1-1.5-2.262,14.719,14.719,0,0,1-.668-4.017v-.007c-.031-.42-.066-.9-.113-1.344-.286-2.784-.666-5.614-1.035-8.351h0V240c-.457-3.391-.929-6.9-1.224-10.356a71.108,71.108,0,0,1-.21-10.405,2.217,2.217,0,0,1-.855-.526,2.418,2.418,0,0,1-.584-.965c-1.661-5.027-3.087-9.472-4.359-13.589-1.518-4.912-2.838-9.422-4.037-13.79A281.5,281.5,0,0,1,2.65,162.331c-.812-4.839-1.444-9.608-1.88-14.176-.462-4.842-.718-9.631-.763-14.234-.047-4.84.139-9.637.552-14.255a129.992,129.992,0,0,1,2.067-14.24c.984-4.742,2.168-9.476,3.518-14.072,1.417-4.819,3.037-9.554,4.816-14.072A135.5,135.5,0,0,1,24.74,50.8a103.957,103.957,0,0,1,9.089-11.576c1.654-1.815,3.378-3.561,5.123-5.19,1.787-1.668,3.643-3.256,5.518-4.722,1.918-1.5,3.911-2.914,5.922-4.2,2.056-1.318,4.187-2.539,6.333-3.63a71.2,71.2,0,0,1,13.933-5.337,95.931,95.931,0,0,1,12.068-2.171c4.207-.507,8.358-.8,12.218-1.049A19.512,19.512,0,0,0,96.379,9.3a18.006,18.006,0,0,0,.665-3.846c.034-.53.025-1.064.017-1.58V3.823c0-.186-.006-.4-.007-.6a5.7,5.7,0,0,1,.095-.884,3.663,3.663,0,0,0,.059-1.273.121.121,0,0,1,.021-.105.125.125,0,0,1,.1-.044.127.127,0,0,1,.12.085,2.116,2.116,0,0,0,.445.656v0a3.081,3.081,0,0,1,.321.4,9.713,9.713,0,0,1,.9,3.492l.009.072a18.484,18.484,0,0,1-3.7,13.455l-.162.215a10.025,10.025,0,0,1-1.392,1.538,2.859,2.859,0,0,1-1.8.811,1.854,1.854,0,0,1-.949-.27,1.477,1.477,0,0,1-.776-1.094,3.723,3.723,0,0,1,1.2-2.669,20.038,20.038,0,0,0,3.083-4.11c-2.35.626-4.708,1.3-6.988,1.946l-.045.013-.082.023-.016,0c-1.291.367-2.626.747-3.94,1.113l-.264.144c-.309.167-.628.333-.966.508l0,0-.008,0h0a18.859,18.859,0,0,0-4.035,2.546,4.661,4.661,0,0,0-1.706,4.05A29.188,29.188,0,0,0,79.5,30.1,31.2,31.2,0,0,0,83.685,35.4a40.26,40.26,0,0,0,11.3,7.938,58.976,58.976,0,0,0,13.8,4.582,71.4,71.4,0,0,0,7.3,1.109c2.415.241,4.868.363,7.289.363a69.3,69.3,0,0,0,8.3-.49,57.022,57.022,0,0,0,7.634-1.436,29.088,29.088,0,0,0,6.057-2.275,18.81,18.81,0,0,0,2.723-1.726,15.068,15.068,0,0,0,2.344-2.226l.113-.136a13.672,13.672,0,0,0,1.643-2.44,14.54,14.54,0,0,0,1.1-2.713,15.1,15.1,0,0,0,.519-5.778,14.4,14.4,0,0,0-.507-2.565,13.453,13.453,0,0,0-.975-2.418,12.289,12.289,0,0,0-3.373-4.053,19.743,19.743,0,0,0-2.941-1.972,27.957,27.957,0,0,0-3.283-1.53,47.635,47.635,0,0,0-6.895-2.051,13.136,13.136,0,0,0,2.051,2.38l0,0v0a18.05,18.05,0,0,1,1.665,1.806,5.183,5.183,0,0,1,1.021,2.1,1.61,1.61,0,0,1-.319,1.288,1.313,1.313,0,0,1-1.012.457h-.066c-2.35,0-4.106-2.406-5.389-4.164l-.042-.058-.013-.018-.1-.136a23.7,23.7,0,0,1-3.188-6.074,25.608,25.608,0,0,1-1.4-6.72A18.889,18.889,0,0,1,129.85.087.108.108,0,0,1,129.958,0a.132.132,0,0,1,.132.121,30.022,30.022,0,0,0,1.831,8.2,1.361,1.361,0,0,1,.941.642c.281.439,1.459.765,2.319,1,.147.041.3.083.433.122l.118.036A55.824,55.824,0,0,0,146.346,12a52.87,52.87,0,0,1,10.819,1.567,28.52,28.52,0,0,1,8.128,3.538,29.468,29.468,0,0,1,3.467,2.617,40.271,40.271,0,0,1,3.288,3.24,90.247,90.247,0,0,1,6.7,8.522c1.876,2.5,3.659,5.124,5.451,8.03,1.594,2.588,3.158,5.338,4.781,8.41,3.01,5.7,5.768,11.661,8.434,17.427l.01.021.007.015,0,0c2.348,5.077,4.776,10.327,7.366,15.374A135.642,135.642,0,0,0,211.615,92.5l.355.541a50.248,50.248,0,0,0,3.534,4.834,21.517,21.517,0,0,0,4.387,4.028c3.8-3.186,7.794-6.263,11.654-9.239l0,0,0,0h0l0,0,.017-.013c4.432-3.417,9.014-6.95,13.334-10.665l.756-.655c3-2.594,6-5.317,8.9-8.093,2.867-2.743,5.722-5.611,8.484-8.526a2.412,2.412,0,0,1,1.736-.676,2.565,2.565,0,0,1,1.038.212,74.389,74.389,0,0,1,2.885-14.28l.009-.034.305-1.127a27.444,27.444,0,0,1,1.11-3.872,11.829,11.829,0,0,1,1.639-3.054,6.875,6.875,0,0,1,5.81-2.723,13.847,13.847,0,0,1,2.878.334l.192-.48a69.478,69.478,0,0,1,5.382-10.8,48.262,48.262,0,0,1,3.488-4.913,39.794,39.794,0,0,1,4.143-4.39l.394-.354.191-.174.017-.015.043-.039.018-.017c1.215-1.111,2.728-2.494,4.351-2.494.078,0,.157,0,.233.01A2.552,2.552,0,0,1,300.8,16.88a3.865,3.865,0,0,1,.694,2.109,12.407,12.407,0,0,1-.984,4.5l0,.01,0,.01c-.1.28-.2.57-.293.85l-.048.145c-.7,2.144-1.494,4.382-2.354,6.651-.767,2.023-1.605,4.08-2.562,6.288-.266.5-.508,1.094-.765,1.721v0a20.021,20.021,0,0,1-1.037,2.26,4.561,4.561,0,0,1-1.46,1.678,1.13,1.13,0,0,1-1.436-.189,1.455,1.455,0,0,1-.407-.868,4.762,4.762,0,0,1,.772-2.676l0-.006c.086-.167.17-.33.248-.491.466-.955.911-1.893,1.323-2.787a121.218,121.218,0,0,0,4.61-11.512l.04-.128c.1-.306.245-.69.413-1.135v0c.6-1.588,1.425-3.764,1-4.662-.46,0-1.323.8-1.838,1.28l-.011.01,0,0c-.11.1-.2.189-.277.252A38.706,38.706,0,0,0,292.9,23.51c-1.039,1.1-2.065,2.3-3.136,3.662-1.992,2.531-3.836,5.25-5.619,7.88v0l0,0c-1.016,1.5-2.065,3.046-3.136,4.548.668.191,1.362.362,2.032.528l.011,0h0a34.1,34.1,0,0,1,3.522,1.005,11.033,11.033,0,0,1,3.193,1.738,6.813,6.813,0,0,1,1.415,1.7,6.433,6.433,0,0,1,.738,1.91,6.772,6.772,0,0,1,.121,1.986,7.248,7.248,0,0,1-1.36,3.639,6.722,6.722,0,0,1-1.354,1.388,6.172,6.172,0,0,1-3.77,1.27,7.134,7.134,0,0,1-1.661-.2,24.863,24.863,0,0,1,1.315,3.444,19.625,19.625,0,0,1,.766,3.878,11.753,11.753,0,0,1-.233,3.8,7.194,7.194,0,0,1-1.68,3.223,2.127,2.127,0,0,1-1.446.547,2.081,2.081,0,0,1-1.185-.356,1.687,1.687,0,0,1-.692-1.065,9.277,9.277,0,0,1,.335-4.17l.015-.062c.027-.114.055-.232.082-.35a38.768,38.768,0,0,0,.724-4.844,22.513,22.513,0,0,0-.111-4.888l-.142-.084a4.363,4.363,0,0,1-1.383-1.2,2.871,2.871,0,0,1-.482-1.765,1.853,1.853,0,0,1,.454-1.405,1.258,1.258,0,0,1,.935-.478,1.181,1.181,0,0,1,.721.267,2.2,2.2,0,0,0,.6.292,2.353,2.353,0,0,1,.6.291,3.486,3.486,0,0,0,2.381,1.107h.022l.09,0a2.517,2.517,0,0,0,1.535-.508,2.748,2.748,0,0,0,.911-1.34,2.683,2.683,0,0,0-.114-2.189,4.1,4.1,0,0,0-2-1.633,16,16,0,0,0-2.611-.868l-.583-.18a18.7,18.7,0,0,0-5.043-1.064,4.061,4.061,0,0,0-1.7.326,3.472,3.472,0,0,0-1.323,1.075,12.583,12.583,0,0,0-1.873,4.981l-.186.6c-.167.542-.339,1.106-.5,1.636v0c-.7,2.3-1.422,4.673-2.267,6.976a43.028,43.028,0,0,1-3.034,6.66l.442,1.054c.689,1.635,1.446,3.387,2.317,5.12a34.449,34.449,0,0,0,2.9,4.857,15.963,15.963,0,0,0,8.779,6.473,2.242,2.242,0,0,1,1.4-1.9,6.116,6.116,0,0,1,2.479-.4c.191,0,.387,0,.618.011a9.669,9.669,0,0,0,6.208-2.953,13.357,13.357,0,0,0,1.615-2.131h0a10.68,10.68,0,0,1,2.072-2.54,1.961,1.961,0,0,1,.149-1.879,1.779,1.779,0,0,1,1.48-.831,1.913,1.913,0,0,1,.931.254,9.614,9.614,0,0,1,1.008.666,4.534,4.534,0,0,0,2.156,1.022,3.835,3.835,0,0,0,.51.034,4.487,4.487,0,0,0,3.647-2.153A4.416,4.416,0,0,0,306,68.714a11.734,11.734,0,0,0,.219-2.652v0a12.745,12.745,0,0,1,.2-2.655,8.314,8.314,0,0,1-3.415,3.053,9.548,9.548,0,0,1-4.52,1.5,3.01,3.01,0,0,1-2.177-.784,2.484,2.484,0,0,1-.72-1.725,2.562,2.562,0,0,1,.7-1.847,2.24,2.24,0,0,1,1.641-.662,3.443,3.443,0,0,1,1.082.189c2.487-.565,3.831-1.285,4.36-2.333a3.373,3.373,0,0,0,.149-2.292,17.24,17.24,0,0,0-1.167-3.249l-.056-.166c-.031-.091-.066-.188-.1-.282-.352-.985-.884-2.474-.267-3.413a.114.114,0,0,1,.09-.05.1.1,0,0,1,.067.028,4.658,4.658,0,0,1,.83,1.336,6.561,6.561,0,0,0,.574,1.038l.5.6a17.332,17.332,0,0,1,2.612,3.837,5.444,5.444,0,0,1,.192,4.444.328.328,0,0,1,.066-.007.259.259,0,0,1,.257.2c.168.611.387,1.228.6,1.825v0l0,.009a10.746,10.746,0,0,1,.914,4.695,6.9,6.9,0,0,1-2.447,4.642,7.377,7.377,0,0,1-2.242,1.29,7.565,7.565,0,0,1-5.772-.251,12.086,12.086,0,0,1-4.522,7.757,13.922,13.922,0,0,1-4,2.251,13.273,13.273,0,0,1-4.532.81c-.187,0-.377,0-.563-.013a2.4,2.4,0,0,1-.631,1.172,1.954,1.954,0,0,1-1.24.57,120.1,120.1,0,0,1-11.174,14.356,220.071,220.071,0,0,1-17,17.229c-3.209,2.9-6.374,5.573-9.4,7.931a104.7,104.7,0,0,1-9.329,6.537c-6.559,4.031-12.072,6.075-16.387,6.075h-.007c-.381,0-.759-.017-1.124-.049a6.034,6.034,0,0,1-2.519.465,20.832,20.832,0,0,1-2.759-.246l-.126-.017-.04-.005-.325-.043a36.474,36.474,0,0,1-10.068-2.854,42.456,42.456,0,0,1-8.932-5.407,51.361,51.361,0,0,1-13.369-16.019c-.185,3.054-.279,5.972-.281,8.674,0,2.6.083,5.085.251,7.4a66.256,66.256,0,0,0,1.86,11.824,57.817,57.817,0,0,0,3.275,9.287c1.275,2.864,2.7,5.582,4.214,8.46h0l0,.005v0c1.814,3.455,3.691,7.028,5.567,11.332a114.258,114.258,0,0,1,5.43,15.454,2.3,2.3,0,0,1,1.021,1.427,1.848,1.848,0,0,1-.284,1.445c.1.522.234,1.056.362,1.572l0,.018v0a11.682,11.682,0,0,1,.516,4.507,6.789,6.789,0,0,1-.617,1.427l-.016.031-.1.2a1.453,1.453,0,0,1-1.334.785,1.93,1.93,0,0,1-1.452-.673c1.074,3.881.772,7.965.479,11.913l0,.036c-.029.387-.064.869-.1,1.33-.173,2.4-.174,4.81-.175,7.145h0v0q0,.148,0,.3t0,.3c-.029,3.212-.188,6.519-.471,9.83-.27,3.154-.663,6.413-1.167,9.687a185.259,185.259,0,0,1-4.026,19.025c-1.481,5.632-3.318,11.748-5.616,18.7-2.049,6.2-4.265,12.463-6.408,18.523l0,.005,0,.009-.005.015c-2.115,5.981-4.3,12.166-6.325,18.273-2.271,6.857-4.091,12.89-5.563,18.446-1.506,5.631-2.7,10.828-3.641,15.888-.508,2.726-.946,5.432-1.3,8.044-.372,2.738-.665,5.464-.871,8.1-.425,5.441-.511,10.985-.594,16.346v.007c-.093,6-.189,12.213-.762,18.3a138.692,138.692,0,0,1-3.506,20.144c-1.429,5.836-3.241,12-5.7,19.388l-.161-.195.049,1.725a2.024,2.024,0,0,1-.235.432l-.037.007A107.659,107.659,0,0,0,141,443.233l-1.193.348-3.392,1-.972.286-.062.019-.066.024a1.367,1.367,0,0,0-.545.378l-.036.043-1.092.363-.058.02-.058.024a1.4,1.4,0,0,0-.746.733,1.493,1.493,0,0,0-.056,1.018,1.432,1.432,0,0,0,.48.725,1.282,1.282,0,0,0,.8.279,1.467,1.467,0,0,0,.462-.077l1.459-.484.747-.246.743-.243a79.523,79.523,0,0,1,13.268-3.4l.433-.063.241-.1.081-.032h0a23.821,23.821,0,0,1,.235,4.718,28.653,28.653,0,0,1-.326,3.243v0a18.567,18.567,0,0,0-.241,4.95,7.134,7.134,0,0,0,.38,1.08h0a6.159,6.159,0,0,1,.416,1.25,2.074,2.074,0,0,1-.163,1.3l.281.179a13.9,13.9,0,0,1,4.278,3.826,3.721,3.721,0,0,1,.277.584l0,0h0v0a2.364,2.364,0,0,0,.4.747,1.712,1.712,0,0,0,.776.315,3.549,3.549,0,0,1,.371.1,3.718,3.718,0,0,1,2.691,3.927c2.14.615,2.768,2.036,3.5,3.682a9.431,9.431,0,0,0,3.4,4.516,15.119,15.119,0,0,0,2.905,1.633A22.028,22.028,0,0,0,173.806,481a59.069,59.069,0,0,0,6.694,1.208h0c.785.111,1.675.236,2.513.369l8.709,1.387.527.064c1.247.154,2.885.376,4.487.732a19.544,19.544,0,0,1,4.333,1.438,11.329,11.329,0,0,1,1.862,1.126,8.46,8.46,0,0,1,1.527,1.473,7.5,7.5,0,0,1,1.093,1.876,8.562,8.562,0,0,1,.561,2.336c1.045.72,1.421,2.181,1.724,3.354l.024.092a3.718,3.718,0,0,1,.11,1.408,2.266,2.266,0,0,1-.59,1.26,6.46,6.46,0,0,1-2.492,1.371l-.005,0c-.287.109-.585.221-.855.338a15.764,15.764,0,0,0-1.5.72h0a9.2,9.2,0,0,1-2.652,1.051,28.473,28.473,0,0,1-5.5,1.5c-5.973,1.1-12.079,1.946-18.148,2.5s-12.215.835-18.3.835c-6.38,0-12.826-.309-19.157-.918-3.112-.3-6.159-.662-9.058-1.078l-.358-.052a16.15,16.15,0,0,1-4.413-1.168,4.976,4.976,0,0,1-2.127,2,6.18,6.18,0,0,1-2.7.555,13.865,13.865,0,0,1-3.872-.652c-2.456-.607-4.913-1.205-7.29-1.784l-.013,0c-.664-.179-1.371-.33-2.12-.49l-.018,0h-.008a20.176,20.176,0,0,1-5.048-1.536,6.159,6.159,0,0,1-1.936-1.5,5.231,5.231,0,0,1-1.1-2.362,36.723,36.723,0,0,1-.416-7.313v-.065l-.005-.717a10.9,10.9,0,0,1,.352-3.223,3.359,3.359,0,0,1,.733-1.31,2.455,2.455,0,0,1,1.359-.717,17.118,17.118,0,0,1-1.683-4.621,19.46,19.46,0,0,1-.382-4.87,23.368,23.368,0,0,1,2.54-9.453l.157-.286a26.92,26.92,0,0,0,2.5-5.747,14.413,14.413,0,0,0,.491-2.981,15.657,15.657,0,0,0-.172-3.308,7.654,7.654,0,0,1-1.675-2.415,18.728,18.728,0,0,1-.99-2.837c-1.534-5.524-2.792-11.075-3.74-16.5a71.365,71.365,0,0,1-7.982,11.86,6.953,6.953,0,0,1-4.154,2.944,1.316,1.316,0,0,1-.511.1,1.426,1.426,0,0,1-.392-.057c-.511.692-1.058,1.35-1.587,1.986l0,0c-.7.836-1.353,1.626-1.94,2.492a11.077,11.077,0,0,0-1.432,2.841,31.538,31.538,0,0,0-1.132,5.036c-.226,1.526-.387,3.161-.507,5.146a19.445,19.445,0,0,0,.554,4.842c.365,1.591.87,3.181,1.36,4.72l0,.006c.332,1.045.676,2.125.97,3.193,1.828,5.839,3.872,11.6,6.072,17.123.327.077.685.127,1.064.18h.007a7.727,7.727,0,0,1,1.909.431,2.03,2.03,0,0,1,1.242,1.316,1.773,1.773,0,0,1,.775,1.026l.126.412c1.071,3.549,1.979,7.656.589,11.208a13.1,13.1,0,0,1-1.817,2.939,15.453,15.453,0,0,1-2.47,2.4,20.554,20.554,0,0,1-2.977,1.914,28.6,28.6,0,0,1-3.339,1.5,45.656,45.656,0,0,1-7.181,1.988c-2.622.524-5.183.86-6.881,1.067C66.369,520.853,64.561,520.938,62.769,520.938Zm-30.753-18.79.035,1.124a15.307,15.307,0,0,0,.649,4.548,3.376,3.376,0,0,0,1.371,1.279l.046.029.093.059c1.272.81,2.621,1.584,4.009,2.3a55.939,55.939,0,0,0,25,5.958,50.28,50.28,0,0,0,11.339-1.269A43.9,43.9,0,0,0,85.2,512.233a11.564,11.564,0,0,0,2.631-1.978,8.212,8.212,0,0,0,1.668-2.441,8.6,8.6,0,0,0,.156-6.109,3.179,3.179,0,0,1-.744,2.316,1.941,1.941,0,0,1-1.458.6l-.1,0a15.187,15.187,0,0,1-4.425,3.441l-.136.081-.062.037-.113.068a39.881,39.881,0,0,1-9.854,3.766,45.25,45.25,0,0,1-10.53,1.221,48.318,48.318,0,0,1-16.718-2.992,49.846,49.846,0,0,1-4.7-2.053,41.561,41.561,0,0,1-4.434-2.572l-.266-.177-.464-.3-.014-.009-.035-.023-.02-.013-.005,0A13.385,13.385,0,0,1,32.016,502.148Zm91.991-2.182a1.68,1.68,0,0,1,1.122.406l.038.034c1.718,1.632,4.084,1.913,6.372,2.185.263.031.5.059.734.089l.124.016c3.141.405,6.359.741,9.564,1,5.29.422,10.663.636,15.971.636,5.75,0,11.561-.251,17.272-.746,5.736-.5,11.5-1.253,17.141-2.244l1.08-.192a20.977,20.977,0,0,0,5.2-1.483,7.382,7.382,0,0,0,1.81-.727,6.2,6.2,0,0,0,1.833-1.261.427.427,0,0,0,.119-.316,2.887,2.887,0,0,0,.15-.305,1.957,1.957,0,0,0,.428-1.536,1.555,1.555,0,0,0-.646-1.147c-1.5.392-2.862.739-4.164,1.06l0,0a7.8,7.8,0,0,1-3.656,1.212h0l-.017,0c-.446.071-.907.144-1.346.241-1.795.32-3.647.632-5.507.927-5.384.846-10.719,1.55-15.856,2.094-5.408.572-10.774.985-15.946,1.226-2.043.178-4.128.268-6.2.268a77.4,77.4,0,0,1-24.378-4.044,92.366,92.366,0,0,1-22.266-11,.3.3,0,0,1-.29.279.271.271,0,0,1-.076-.011.878.878,0,0,0-.241-.038.461.461,0,0,0-.376.174c-.424.526-.074,2.125.076,2.807l.005.023v.007c.023.1.041.187.05.241.289,1.659.474,3.34.653,4.967v.008l0,.317c.023,1.65.116,2.471.6,2.972s1.371.672,2.974.98l.12.023c1.833.471,3.687,1,5.48,1.5l.008,0,.026.007h0c.871.247,1.8.51,2.731.768l1.1.3c.111.032.261.078.431.13h0a17.529,17.529,0,0,0,4.434.921,1.923,1.923,0,0,0,1.388-.4.923.923,0,0,0,.246-.7l0-.071a1.391,1.391,0,0,1,.37-1.076A1.808,1.808,0,0,1,124.007,499.966Zm-63.4-60.717a21.4,21.4,0,0,1,5.094.605,18.041,18.041,0,0,1,4.679,1.843c2.986.313,5.744.7,8.433,1.174l.6.108c.295.055.626.1.947.141h0a6.049,6.049,0,0,1,3.272,1.064,9.234,9.234,0,0,1,2.469-4.03h0l.025-.028c.148-.168.316-.359.474-.543,1.066-1.284,2.111-2.663,3.109-4.1a65.5,65.5,0,0,0,3.711-5.965c1.088-1.971,2.133-4.091,3.107-6.3a1.919,1.919,0,0,1,.7-1.586,223.824,223.824,0,0,0,9.614-27.087c1.252-4.31,2.471-8.856,3.727-13.9,1.034-4.152,2.084-8.6,3.3-13.995,5.312-23,9.653-43.673,13.269-63.214,2.01-10.86,3.829-21.57,5.406-31.835,1.67-10.869,3.131-21.637,4.342-32.005a.164.164,0,0,1,.165-.151.142.142,0,0,1,.146.151,287.532,287.532,0,0,1-2.692,47.292c-.977,7.362-2.2,15.024-3.753,23.426-1.3,7.04-2.786,14.428-4.684,23.252-1.211,5.443-2.392,10.992-3.533,16.359l0,.008-.007.034,0,.01c-2.636,12.39-5.361,25.2-8.653,37.63-1.772,6.693-3.562,12.74-5.47,18.485-1.034,3.112-2.117,6.171-3.219,9.09-1.157,3.064-2.373,6.079-3.617,8.962,1.027,6.588,2.152,12.327,3.439,17.543a142.021,142.021,0,0,1,36.825-4.738c2,0,4.03.04,6.04.119,1.59-4.538,3-9.051,4.2-13.413,1.266-4.613,2.333-9.21,3.171-13.664.88-4.68,1.536-9.348,1.948-13.874a130.794,130.794,0,0,0,.531-14.042c-.086-3.988-.007-8.095.236-12.205.232-3.934.622-8,1.158-12.073.51-3.878,1.169-7.9,1.958-11.947.745-3.819,1.632-7.8,2.637-11.828,1.8-7.226,4.035-14.856,6.826-23.328,2.757-8.369,5.768-16.653,8.084-22.935,1.216-3.682,2.492-7.422,3.726-11.039v-.007c3.323-9.739,6.76-19.81,9.414-29.89,1.43-5.433,2.522-10.42,3.337-15.246.442-2.614.8-5.215,1.079-7.73.287-2.634.487-5.264.592-7.814.145-1.749.412-3.529.671-5.251v0c.3-1.982.605-4.032.73-6.049a27.3,27.3,0,0,0,.032-3.027,19.848,19.848,0,0,0-.369-3.024,18.2,18.2,0,0,1-3.732,3.335,29.944,29.944,0,0,1-4.368,2.448,57.78,57.78,0,0,1-7.678,2.865c-2.291.689-4.817,1.332-7.949,2.024a169.7,169.7,0,0,1-42,5.255A174.538,174.538,0,0,1,91.1,209.7l-2.026-.466c-3.356-.775-7.773-1.809-12.18-2.942-4.458-1.147-8.41-2.264-12.082-3.416-4.263-1.337-8.122-2.711-11.8-4.2a115.018,115.018,0,0,1-11.33-5.294,7.71,7.71,0,0,1,.514,2.21,12.4,12.4,0,0,1-.034,2.371,26.99,26.99,0,0,1-.991,4.648,9.834,9.834,0,0,1,2.155,1.815l0,0,0,0c.35.357.712.727,1.094,1.057,1.962,1.583,3.967,3.165,5.906,4.695l.029.023.009.007c1.718,1.355,3.665,2.891,5.517,4.381l.163.128.234.182.006.005.031.024a6.428,6.428,0,0,1,2.532,2.952,3.655,3.655,0,0,1-.659,3.236,4.866,4.866,0,0,1-1.325,1.117,8.14,8.14,0,0,1-1.724.75,13.054,13.054,0,0,1-3.79.553c-.379,0-.747-.017-1.092-.05-.166-.007-.408-.039-.688-.077h-.005a11.275,11.275,0,0,0-1.4-.129,1.214,1.214,0,0,0-.837.2c-.192.193-.179.9-.171,1.371v0c0,.147.005.285,0,.371-.1,1.5-.188,3-.276,4.462v.013l0,.079,0,.033c-.129,2.139-.261,4.351-.416,6.532l-.1,1.389c-.034.447-.062.9-.095,1.436v0a22.368,22.368,0,0,1-1.233,7.208,19.8,19.8,0,0,1-.514,2.227v0a16.7,16.7,0,0,0-.559,2.591,7.247,7.247,0,0,1-1.434,4.039l.878,6.908c.8,6.238,1.669,12.906,2.66,19.406,1.09,7.15,2.222,13.455,3.461,19.275.472,2.216,1.092,4.413,1.692,6.538l.018.065c.153.544.344,1.22.52,1.858a66.844,66.844,0,0,0,3.505,9.514c1.382,3.091,2.945,6.159,4.456,9.127l0,.006c.73,1.434,1.485,2.917,2.216,4.4l.144.294a20.49,20.49,0,0,1,1.48,3.884,12.476,12.476,0,0,1,.359,4.153,1.419,1.419,0,0,1-.531,1.023,1.625,1.625,0,0,1-1.01.342,1.372,1.372,0,0,1-1.015-.406,1.224,1.224,0,0,1-.295-.959,10.513,10.513,0,0,0-.289-3.434c-1.486,5.951-2.873,11.95-4.124,17.829-1.276,6-2.445,12.039-3.475,17.957-1.05,6.034-1.987,12.116-2.783,18.076-.811,6.073-1.5,12.191-2.047,18.185-.274,3.065-.529,6.171-.775,9.174l0,.022,0,.027v0l0,.022c-.558,6.8-1.136,13.839-1.959,20.755l.4,0a50.443,50.443,0,0,1,8.678.789,20.693,20.693,0,0,1,2.9-.613A22.035,22.035,0,0,1,60.606,439.249Zm-31.515-200.4a1.29,1.29,0,0,1,.818.266,1.277,1.277,0,0,1,.448.854l1.14,8.122.019.084c.067.322.124.836.189,1.43h0v0a25.17,25.17,0,0,0,.445,2.96c.258,1.068.594,1.62,1.027,1.686l.044.005a.55.55,0,0,0,.082.006.356.356,0,0,0,.272-.115c.259-.279.2-1.011.163-1.545v-.015c-.012-.16-.022-.3-.023-.4l.074-4.218.092-5.429c.018-1.035.035-1.923.051-2.714a1.484,1.484,0,0,1,.457-1.1,1.453,1.453,0,0,1,.984-.362,1.635,1.635,0,0,1,1.042.37,1.593,1.593,0,0,1,.562,1.094l.084.807c.388,3.674.918,7.528,2.714,10.726a1.422,1.422,0,0,1,.8-.228,1.734,1.734,0,0,1,.451.06,21.4,21.4,0,0,1,.511-3.508,19.547,19.547,0,0,1,1.114-3.356,31.662,31.662,0,0,1,.017-5.711v0h0c.028-.438.056-.891.08-1.341l.012-.24c.113-2.348.25-4.73.384-7.033v-.021l0-.037q.045-.781.09-1.561l.1-1.73c.015-.27.026-.539.037-.824v-.013c.092-2.335.2-4.981,2.741-5.926a7.758,7.758,0,0,1,2.349-.3c.492,0,.994.025,1.479.049h.008c.483.024.982.049,1.471.049a6.306,6.306,0,0,0,3.3-.718c-2.027-1.8-4.119-3.537-6.143-5.213l0,0-.042-.035c-1.079-.894-2.2-1.818-3.3-2.756-.3-.252-.614-.506-.916-.752l-.01-.008-.055-.045-.009-.007,0,0c-.808-.657-1.642-1.337-2.411-2.056a12.341,12.341,0,0,1-.9-.971h0l0-.005h0a11.118,11.118,0,0,0-1.033-1.093,19.379,19.379,0,0,1-3.306,4.356,24.441,24.441,0,0,1-4.355,3.424,31.591,31.591,0,0,1-10.286,4.037,2.021,2.021,0,0,1-.735,1.022,2.616,2.616,0,0,1-1.2.487c.609,4.816,1.4,9.687,2.167,14.4v.014c.935,5.747,1.9,11.69,2.543,17.58l.067.4a3.153,3.153,0,0,0,.8,1.871c.6-.241.7-1.132.766-1.783v-.01l0-.017v-.009c.01-.1.02-.185.031-.266.252-3.414.551-6.873.839-10.218l.007-.081.073-.841a1.581,1.581,0,0,1,.619-1.115A1.929,1.929,0,0,1,29.091,238.845ZM44.238,103.957h0l-.951,4.895c-1.523,7.866-3.09,16.245-4.053,24.593-.494,4.388-.814,8.882-.951,13.354-.136,4.41-.1,8.915.115,13.388a50.866,50.866,0,0,1,2.181-6.541c.858-2.136,1.829-4.269,2.767-6.331h0a82.562,82.562,0,0,0,4.7-11.943,24.909,24.909,0,0,0,.61-4.977,33.371,33.371,0,0,0-.263-4.934,87.293,87.293,0,0,0-1.983-9.8v0A73.133,73.133,0,0,1,44.238,103.957Zm249.5-41.813a10.269,10.269,0,0,1-3.687-1.1,5.871,5.871,0,0,1-1.437-1.384,8.375,8.375,0,0,1-1.51-3.731l-.013-.09a.112.112,0,0,1,.021-.1.11.11,0,0,1,.085-.039.12.12,0,0,1,.084.035l.014.016a11.393,11.393,0,0,0,4.284,2.868,5.571,5.571,0,0,1,1.372-.526,1.076,1.076,0,0,1,.236-.026,1.116,1.116,0,0,1,.811.357.942.942,0,0,1,.25.729,4.315,4.315,0,0,0,2.034-.969,5.962,5.962,0,0,0,1.39-1.782,9.366,9.366,0,0,0,.813-2.209,11.548,11.548,0,0,0,.3-2.253l0-.086a12,12,0,0,0-.257-2.9,11.552,11.552,0,0,0-2.492-5.067,11.935,11.935,0,0,0-2.144-1.973.176.176,0,0,1-.058-.2.126.126,0,0,1,.119-.1.158.158,0,0,1,.058.012,10.17,10.17,0,0,1,2.412,1.423,11.4,11.4,0,0,1,1.959,2,13.02,13.02,0,0,1,2.361,5.1,12.146,12.146,0,0,1,.042,5.175,10.222,10.222,0,0,1-.859,2.43,9.539,9.539,0,0,1-1.5,2.162,7.647,7.647,0,0,1-2.165,1.6A5.758,5.758,0,0,1,293.741,62.144Z" transform="translate(61.985 -0.474)"/>
    </g>
    <g id="Head" transform="translate(95.946 42.662)">
      <g id="HEAD-2" data-name="HEAD">
        <path id="_Skin-2" data-name="âœ‹ Skin" d="M109.931,21.2c-.526-1.328-1.457-3-3.013-3.065-1.2-3.68-4.2-7.427-8.358-7.327-12.216-12.494-27.6-11.9-43.676-9.26C46.4,3.125,37.788,6.206,31.461,12.286c-7.578,7.158-10.529,19.648-4.594,28.7-5.129,2.749-5.228,9.271-3.035,13.978-2.636,1.823-2.8,6.249.172,7.64a2.7,2.7,0,0,0,.255,1.889A25.067,25.067,0,0,1,19.287,67.4a2.342,2.342,0,0,0-1.272,1.539C12.815,72.352-.153,80.691,0,87.327c-.076,3.462,2.492,5.741,5.612,6.648-1.857,3.712-3.266,8.048-1.489,12.053.491,1.21,4.172,4.766,4.358,4.831.324.278,5.6-2.147,8.171-3.384A5.122,5.122,0,0,0,23.6,111.3c2.829-.853,4.569-3.248,6.353-5.428,2.369,5.168,9.338,5.227,13.842,3a17.735,17.735,0,0,0,8.833-9.422,48.577,48.577,0,0,0,29.621,3.973,2.882,2.882,0,0,0,3.289,1.442c5.255-1.58,11.065-1.669,15.52-5.288,9.285-6.665,10.067-18.953,9.419-29.427-.574-10.443-.072-20.974-1.97-31.3a59.533,59.533,0,0,1,3.462-8.588C113.343,27.262,113.315,22.808,109.931,21.2Z" transform="translate(-13.271 13.036)" fill="#d08b5b"/>
        <path id="_Hair" data-name="ðŸ’ˆ Hair" d="M66.123,0h.361q.895.006,1.787.035a65.709,65.709,0,0,1,10.1,1.208l.561.108c.917.18,1.739.36,3.049.666l2.6.613c1.324.309,2.3.522,3.2.694l.118.022s6.93,3.322,9.168,5.507l.223.22.1.1.973.031.009.123h.008a4.944,4.944,0,0,1,2.653,1.43l.087.085.084.084a13.961,13.961,0,0,1,1.834,2.418l.158.249.283.449.229.36q.223.354.429.7l.135.23.1.169,2.512,1.466a4.3,4.3,0,0,1,.993.812l.082.091.08.093.685.815-.138.144.067.088.12.164.117.166.114.168.049.074.074.159.036.08.029.066.086.044.175.315a11.545,11.545,0,0,1,1.427,5.4,10.763,10.763,0,0,1-.525,3.663,8.147,8.147,0,0,1-1.242,2.285l-.488.669-.1.138-.119.168-.055.08c-.794,1.15-7.577,3.326-11.746,3.431l-.126,0-.16,0q-.6,0-1.153-.044A21.545,21.545,0,0,1,90.31,35.01l-.361-.117-1.919-.645-.145-.047-.175-.055a6.209,6.209,0,0,0-.939-.231l-.043-.005,0,.079,0,.075v.061a2.115,2.115,0,0,1-1.356,1.938,7.457,7.457,0,0,1-2.07.588l-.137.022a46.343,46.343,0,0,1-5.866.372q-.16,0-.322,0a7.791,7.791,0,0,1-1.948-.381l-.414-.119-.225-.062a4.182,4.182,0,0,0-.869-.17l-.064,0h-.063a.972.972,0,0,0-.641.2l-.1.077-1.288,1.079c-.168.14-.318.264-.428.351l-.045.035A9.158,9.158,0,0,1,65.449,40.3l-.133,0-.138,0q-.151,0-.3-.006a7.125,7.125,0,0,1-2.89-.94l-.246-.126-.172-.09L61.288,39l-.885-.473-.452-.236a6.239,6.239,0,0,0-1.044-.467l-.033-.009-.019.018a7.464,7.464,0,0,0-1.3,1.83l-.065.121-.095.18-.615,1.225-.116.228a7.924,7.924,0,0,1-1.291,1.945,3.726,3.726,0,0,1-2.536,1.2l-.1.006-.121,0a5.537,5.537,0,0,1-1.539-.222l-.128-.037-.125-.038a4.509,4.509,0,0,0-3.149.449,2.858,2.858,0,0,0-1.708,2.659,12.636,12.636,0,0,0,.2,1.861l.033.184a28.316,28.316,0,0,0,.679,2.762l.686,2.314.077.27.078.278c.111.4.2.757.273,1.089a5.579,5.579,0,0,1,.046,3.034c-1.237,3.58-3.384,5.482-5.828,5.562l-.084,0h-.1c-1.878-.02-3.579-1.244-3.558-2.829a1.3,1.3,0,0,1,.089-.461l.025-.059.012-.025-.019-.047a4.355,4.355,0,0,0-3.479-2.588l-.089-.01-.088-.008c-.086-.007-.172-.013-.253-.015l-.08,0h-.1c-2.089,0-4.155,1.394-5.781,3.668a12.616,12.616,0,0,0-.936,1.539l-.093.183-.452.925-.305.894c-1.682,4.925-.83,10.078,2.453,12.743l.1.08a7.835,7.835,0,0,0,4.059,1.643c.171.017.343.029.508.033l.123,0h.141a5.545,5.545,0,0,0,1.363-.179,1.851,1.851,0,0,0,.739-.344,1.124,1.124,0,0,0,.108-.1l.025-.03.009-.013,2.244.333a21.321,21.321,0,0,0,3.278,7.813l.113.18.2.311.2.311a34.546,34.546,0,0,0,7.052,8.078l.181.145.242.192.223.174c.432.336.793.6,1.153.83l.09.058.851.539-.4.927a19.875,19.875,0,0,1-3.761,5.8l-.148.156-1.09,1.124-.838-1.067a.088.088,0,0,0-.047-.022l-.015,0h-.02l-.013,0-.014.006a5.3,5.3,0,0,0-1.467,1.109l-.072.074-.084.088-.115.12a9.017,9.017,0,0,1-6.173,2.734l-.149,0h-.15l-.162,0a8.993,8.993,0,0,1-7.753-5.334c-.058-.124-.111-.164-.21-.172h-.063a1.032,1.032,0,0,0-.709.341l-.03.037-.559.752-.214.284c-2,2.62-3.634,4.053-5.834,4.488a3.687,3.687,0,0,1-.551.064l-.118,0h-.069a6.1,6.1,0,0,1-2.887-.754,3.005,3.005,0,0,1-1.731-2.838l.007-.078.016-.13c.073-.65-.447-1-.845-.684l-.027.023-.033.03a16.1,16.1,0,0,1-5.556,3.445l-.18.063-.267.091a10.093,10.093,0,0,1-3.135.663,2.492,2.492,0,0,1-2-.853,3.846,3.846,0,0,1-.733-1.421l-.034-.1-.074-.24-.046-.156a14.465,14.465,0,0,1-.139-6.737,35.993,35.993,0,0,1,1.821-6.067l.18-.477.371-.973c.037-.1-.185-.438-.323-.477l-.016,0-.126.013c-.088.008-.177.014-.268.018l-.138,0H5.281c-3-.031-5.3-2.978-5.279-6.1C.026,83.55,1.5,81.035,4.3,78.051l.244-.257.264-.273.261-.267a58.822,58.822,0,0,1,7.7-6.66l.22-.157.245-.173c.894-.627,1.764-1.2,2.967-1.944l.708-.438,2.871-3.388.2-.117.036-1.175,2.766.057A5.553,5.553,0,0,1,21.036,61.9a3.783,3.783,0,0,1,.536-5.72l.067-.044.8-.5.659.578a4.307,4.307,0,0,0,1.816.991l.1.023.5.105.1.156.056-.081a.084.084,0,0,0,0-.024l0-.012-.01-.016-.062-.077-.069-.082a13.05,13.05,0,0,0-.919-.945l-.316-.3-.246-.239a9.258,9.258,0,0,1-1.354-1.571A8.193,8.193,0,0,1,21.239,49.7a8.523,8.523,0,0,1,4.941-7.677c.1-.049.181-.4.056-.625A24.618,24.618,0,0,1,24,23.876,25.633,25.633,0,0,1,33.525,9.8C41.785,3.409,53.243.116,65.4,0l.369,0Z" transform="translate(-11.616 13.51)" fill="#ecdcbf"/>
        <path id="_Ink-2" data-name="ðŸ– Ink" d="M23.375,114.411h-.131a7.375,7.375,0,0,1-3.477-.939,6.3,6.3,0,0,1-2.444-2.411,18.306,18.306,0,0,1-5.133,2.48l-.164.049a11.633,11.633,0,0,1-3.219.535,5.315,5.315,0,0,1-2.252-.451,4.332,4.332,0,0,1-1.817-1.613A9.738,9.738,0,0,1,3.345,107.9a17.806,17.806,0,0,1,.06-4.418,32.221,32.221,0,0,1,1.963-7.164,7.069,7.069,0,0,1-3.236-2.141A8.616,8.616,0,0,1,1,92.543,8.479,8.479,0,0,1,.27,90.7a9,9,0,0,1,.4-5.552,16.643,16.643,0,0,1,2.963-4.816,36.769,36.769,0,0,1,4.361-4.289c1.423-1.2,3.022-2.407,4.888-3.689a48.367,48.367,0,0,1,5.251-3.186,26.613,26.613,0,0,1,5.711-2.217.543.543,0,0,1,.132-.017.478.478,0,0,1,.454.355.485.485,0,0,1-.21.556c-1.028.654-2.084,1.293-3.105,1.911-1.909,1.156-3.883,2.351-5.739,3.681-1.311.939-2.628,1.982-3.914,3.1-1.21,1.052-2.432,2.205-3.632,3.427l-.258.265a22.95,22.95,0,0,0-3.018,3.681A10.537,10.537,0,0,0,3.511,86.05,7.3,7.3,0,0,0,3.1,88.367a5.38,5.38,0,0,0,.4,2.025,5.236,5.236,0,0,0,1.119,1.726A3.663,3.663,0,0,0,7.24,93.273a3.624,3.624,0,0,0,.438-.027,1.128,1.128,0,0,1,.136-.008,1.523,1.523,0,0,1,1.209.716,1.509,1.509,0,0,1,.238,1.371l-.37.972a39.277,39.277,0,0,0-1.914,6.191,13.423,13.423,0,0,0,.086,6.344l.043.148a4.017,4.017,0,0,0,.528,1.235,1.308,1.308,0,0,0,1.12.532h.036a10.272,10.272,0,0,0,3.04-.691,14.148,14.148,0,0,0,2.826-1.345,15.716,15.716,0,0,0,2.482-1.906,1.733,1.733,0,0,1,1.184-.512,1.654,1.654,0,0,1,1.22.575,2.011,2.011,0,0,1,.488,1.566l-.006.051a1.533,1.533,0,0,0,.4,1.258,4.339,4.339,0,0,0,3.013,1.173,2.727,2.727,0,0,0,.523-.046c2.492-.493,4.29-2.916,5.734-4.863l.153-.206a2.211,2.211,0,0,1,1.693-.856,1.417,1.417,0,0,1,1.342.856,8.419,8.419,0,0,0,2.707,3.276,7.225,7.225,0,0,0,4.006,1.376l.2,0a7.472,7.472,0,0,0,2.136-.314,8.12,8.12,0,0,0,1.971-.895,7.674,7.674,0,0,0,1.442-1.171l.108-.113a6.65,6.65,0,0,1,1.913-1.493,1.282,1.282,0,0,1,1.513.218,1.166,1.166,0,0,1,.342.846A3.928,3.928,0,0,1,48,110.5a11.515,11.515,0,0,1-5.152,3.089,10.733,10.733,0,0,1-2.926.416c-.108,0-.218,0-.325-.005a10.813,10.813,0,0,1-2.406-.356,11.358,11.358,0,0,1-2.262-.868,11.525,11.525,0,0,1-3.734-3.042,16.571,16.571,0,0,1-3.448,3.249,8.886,8.886,0,0,1-2.057,1.036A7.145,7.145,0,0,1,23.375,114.411Zm59.382-5.619a42.548,42.548,0,0,1-4.983-.293,45.437,45.437,0,0,1-5.332-.918l-.758-.19a7.119,7.119,0,0,1-2-.753,2.256,2.256,0,0,1-1.116-1.715,1.587,1.587,0,0,1,.212-1.035,2.2,2.2,0,0,1,.793-.739,2.153,2.153,0,0,1,1.118-.284,6.287,6.287,0,0,1,1.558.271l.139.036a45.737,45.737,0,0,0,4.667.976,38.923,38.923,0,0,0,5.769.421,43.644,43.644,0,0,0,4.476-.234,35.566,35.566,0,0,0,8.56-1.923,24.132,24.132,0,0,0,7.579-4.348,15.028,15.028,0,0,0,4.453-6.095c1.024-2.817.978-5.876.933-8.835,0-.271-.009-.577-.012-.874-.042-3.578-.046-7.216-.05-10.734v0c0-3.888-.01-7.908-.065-11.865-.116-8.333.027-15.726.436-22.6a.112.112,0,0,1,.114-.1.078.078,0,0,1,.082.072c1.21,8.779,1.871,17.555,2.358,24.982.265,4.043.582,8.321.941,12.713.079.973.173,1.97.264,2.934h0a76.225,76.225,0,0,1,.5,9.375,18.693,18.693,0,0,1-2.357,8.651A21.119,21.119,0,0,1,105,102.352c-4.331,3.184-10,5.236-16.845,6.1A43.32,43.32,0,0,1,82.756,108.792Zm-27.081-6.706c-1.726,0-3.586-1.481-4.7-2.366a35.525,35.525,0,0,1-7.49-8.506l-.2-.314a24.048,24.048,0,0,1-3.763-8.763l-.089.144-.015.023a2.15,2.15,0,0,1-.34.362,2.953,2.953,0,0,1-1.2.59,6.753,6.753,0,0,1-1.757.22,7.97,7.97,0,0,1-.807-.041,9.011,9.011,0,0,1-2.47-.612,9.116,9.116,0,0,1-2.2-1.278,9.34,9.34,0,0,1-2.435-2.887A11.372,11.372,0,0,1,27,75.095a15.96,15.96,0,0,1,.7-7.687,2.56,2.56,0,0,1-.593.068A4.289,4.289,0,0,1,25.293,67a9.728,9.728,0,0,1-1.592-.98,6.969,6.969,0,0,1-1.608-1.639,5.113,5.113,0,0,1-.87-2.113,4.094,4.094,0,0,1,.457-2.42,4.216,4.216,0,0,1,.737-1.037,2.945,2.945,0,0,1,.983-.68,10.762,10.762,0,0,1-1.758-3.1,10.975,10.975,0,0,1-.7-3.289,9.793,9.793,0,0,1,1.169-5.032,10.645,10.645,0,0,1,3.461-3.821,26.536,26.536,0,0,1-1.629-4.534,26.962,26.962,0,0,1-.723-9.554,26.336,26.336,0,0,1,.937-4.737A25.252,25.252,0,0,1,25.9,19.7a26.376,26.376,0,0,1,2.446-3.875A31.645,31.645,0,0,1,34.9,9.474,43.549,43.549,0,0,1,42.97,4.866,56.234,56.234,0,0,1,51.7,1.853,57.959,57.959,0,0,1,59.167.448,62.929,62.929,0,0,1,66.714,0c1.724,0,3.5.068,5.283.2,1.736.131,3.409.323,4.97.57A45.4,45.4,0,0,1,82,1.85,32.469,32.469,0,0,1,86.8,3.582a23.243,23.243,0,0,1,4.3,2.533.288.288,0,0,1,.115.326.278.278,0,0,1-.271.187.374.374,0,0,1-.058,0c-2.011-.321-4.027-.8-5.976-1.261-1.473-.349-3-.711-4.509-1C78.568,4,76.9,3.733,75.3,3.53c-1.823-.232-3.51-.371-5.155-.425-.728-.024-1.467-.036-2.2-.036a65.644,65.644,0,0,0-8.391.535A58.827,58.827,0,0,0,51.21,5.291a49,49,0,0,0-7.924,2.964,39.85,39.85,0,0,0-7.126,4.363,26.9,26.9,0,0,0-5.7,5.946,22.578,22.578,0,0,0-3.4,7.478,23.364,23.364,0,0,0-.634,4.251,23.724,23.724,0,0,0,.149,4.287,23.468,23.468,0,0,0,.922,4.187,22.7,22.7,0,0,0,1.686,3.952,1.863,1.863,0,0,1,.116,1.427,1.367,1.367,0,0,1-.71.838,7.427,7.427,0,0,0-1.73,1.13,7.6,7.6,0,0,0-1.355,1.551,6.928,6.928,0,0,0-1.174,3.907,7.019,7.019,0,0,0,1.243,3.8,11.171,11.171,0,0,0,1.613,1.785A14.441,14.441,0,0,1,28.483,58.5a1.267,1.267,0,0,1,.279.735,1.153,1.153,0,0,1-.193.709c.22.1.452.175.676.252a6.415,6.415,0,0,1,.923.37.656.656,0,0,1,.331.6.626.626,0,0,1-.331.572,2.037,2.037,0,0,1-.924.222,2.454,2.454,0,0,1-1.2-.336,3.611,3.611,0,0,1-1-.841,4.448,4.448,0,0,1-.362-.509,5.427,5.427,0,0,1-2.453-1.282,2.322,2.322,0,0,0-1.119,1.63,3,3,0,0,0,.74,2.4,5.24,5.24,0,0,0,2.31,1.463l.1.037c.132.047.262.09.388.133a3.436,3.436,0,0,1,1.759,1,14.069,14.069,0,0,1,1.229-2.094,11.711,11.711,0,0,1,2.91-2.907A6.838,6.838,0,0,1,36.393,59.4c.173,0,.349.008.523.023A5.658,5.658,0,0,1,40.1,60.745a5.391,5.391,0,0,1,1.116,1.308,5.164,5.164,0,0,1,.642,1.631.167.167,0,0,1-.037.141.194.194,0,0,1-.145.074.13.13,0,0,1-.123-.086,3.486,3.486,0,0,0-1.567-1.723,4.715,4.715,0,0,0-2.257-.537,5.846,5.846,0,0,0-3.092.885,9.059,9.059,0,0,0-2.98,3.329,14.768,14.768,0,0,0-1.5,4.254A12.106,12.106,0,0,0,30.1,74.48a8.6,8.6,0,0,0,.677,2.128,6.689,6.689,0,0,0,1.263,1.824,5.74,5.74,0,0,0,1.5,1.094,5.479,5.479,0,0,0,1.772.554,3.758,3.758,0,0,0,.494.032,6.121,6.121,0,0,0,1.211-.146l.381-.08a3.125,3.125,0,0,1,.644-.081c.054,0,.108,0,.16.007l.413.055.235.11a.734.734,0,0,0,.137.054h0a.94.94,0,0,0-.195-.128c.038,0,.073,0,.1,0a.925.925,0,0,1,.722.314,1.223,1.223,0,0,1,.275.719.246.246,0,0,1,.062.052c1.192,1.459,2.265,3.042,3.3,4.573a51.538,51.538,0,0,0,4.157,5.575l.827.923c2.2,2.45,4.59,4.943,7.437,6.152l.343.142a4.288,4.288,0,0,1,1.17.68,1.762,1.762,0,0,1,.62,1.173,1.5,1.5,0,0,1-.376,1.161,2.113,2.113,0,0,1-1.066.64A2.79,2.79,0,0,1,55.675,102.086ZM35.134,99.847a.216.216,0,0,1-.177-.089.148.148,0,0,1-.012-.145,8.361,8.361,0,0,0,.382-1.427,4.3,4.3,0,0,1,1.167-2.619,1.486,1.486,0,0,1,.925-.361,1.407,1.407,0,0,1,.865.322,2.672,2.672,0,0,1,.664.79l.027.048a.954.954,0,0,0,.8.6,1.328,1.328,0,0,0,.917-.52,3.143,3.143,0,0,0,.617-1.066l.034-.108c.027-.089.055-.186.084-.288a6.5,6.5,0,0,1,.481-1.308,1.088,1.088,0,0,1,.936-.688,1.313,1.313,0,0,1,.586.16,1.5,1.5,0,0,1,.7,1.745,7.361,7.361,0,0,1-.68,1.973A4.734,4.734,0,0,1,42.3,98.415a3.648,3.648,0,0,1-1.716.848,3.7,3.7,0,0,1-.7.067A3.359,3.359,0,0,1,38.63,99.1a2.553,2.553,0,0,1-1.521-1.521,1.147,1.147,0,0,1-.083-.243.53.53,0,0,1-.137.236,12.039,12.039,0,0,0-1.6,2.189A.173.173,0,0,1,35.134,99.847ZM19.909,97.394a6.821,6.821,0,0,1-2.009-.318.145.145,0,0,1-.11-.158.165.165,0,0,1,.151-.148A6.441,6.441,0,0,0,23,93.117l.1-.218a2.927,2.927,0,0,1,1.607-1.813,1.972,1.972,0,0,1,.656-.112,2.247,2.247,0,0,1,1.646.766,2.963,2.963,0,0,1,.376.588c.221.412.43.8.868.8a.906.906,0,0,0,.233-.033c.75-.2,1.239-.978,1.671-1.664.118-.187.229-.363.34-.52l.1-.144c.779-1.065,1.984-2.335,3.3-2.335a2.222,2.222,0,0,1,1.35.485,1.01,1.01,0,0,1,.436.8.962.962,0,0,1-.436.769l-.224.16-.141.1-.009.006a7.912,7.912,0,0,0-1.989,1.771c-.114.158-.227.32-.337.477a9.349,9.349,0,0,1-1.691,1.987,4.366,4.366,0,0,1-2.692.967,3.347,3.347,0,0,1-1.357-.274,2.958,2.958,0,0,1-1.132-.875l-.127-.161a5.06,5.06,0,0,1-.332-.474l-.078.109-.022.031-.018.028a6.738,6.738,0,0,1-2.035,2.1A5.646,5.646,0,0,1,19.909,97.394ZM15.194,84.957a.371.371,0,0,1-.292-.163.283.283,0,0,1-.042-.265l.195-.519a11.709,11.709,0,0,1,1.273-2.565,3.839,3.839,0,0,1,.946-.963,2.121,2.121,0,0,1,1.2-.382,2.414,2.414,0,0,1,.77.134,4.64,4.64,0,0,1,.944.493,2.564,2.564,0,0,0,1.281.524,1.366,1.366,0,0,0,.9-.378,4.246,4.246,0,0,0,.959-1.389,4.009,4.009,0,0,1,1.084-1.5.7.7,0,0,1,.425-.14.971.971,0,0,1,.572.2.887.887,0,0,1,.341.484,3.9,3.9,0,0,1-.838,3.244,5.355,5.355,0,0,1-1.522,1.369,3.887,3.887,0,0,1-1.837.574l-.1,0a3.466,3.466,0,0,1-1.617-.409,3.65,3.65,0,0,1-.513-.359,2.338,2.338,0,0,0-.848-.5.615.615,0,0,0-.121-.012c-.416,0-.792.416-1.124.784-.1.108-.19.21-.278.3a15.639,15.639,0,0,1-1.6,1.387A.257.257,0,0,1,15.194,84.957ZM40.489,72.9a1.933,1.933,0,0,1-.988-.271,3.471,3.471,0,0,1-1.047-1.07,7.22,7.22,0,0,0-.459-.589,4.832,4.832,0,0,0-1.309-1.016,8.614,8.614,0,0,0-1.537-.634,3.04,3.04,0,0,0-.733.544.131.131,0,0,1-.094.039.168.168,0,0,1-.146-.089.115.115,0,0,1,.013-.125,3.058,3.058,0,0,1,.493-.509l-.091-.027a.348.348,0,0,1-.247-.238.4.4,0,0,1,.085-.376,4.026,4.026,0,0,1,3.111-1.276,5.965,5.965,0,0,1,3.022.837,4.821,4.821,0,0,1,1.175.973,3.644,3.644,0,0,1,.729,1.276,1.985,1.985,0,0,1-.519,1.964A2.182,2.182,0,0,1,40.489,72.9Zm3.161-9.934c-.028,0-.056,0-.083,0a1.513,1.513,0,0,1-1.285-.737,1.171,1.171,0,0,1-.205-.72,1.836,1.836,0,0,1,.181-.735l.024-.048a6.751,6.751,0,0,0,.7-2.213,6.329,6.329,0,0,0-.119-2.317,14.378,14.378,0,0,0-.746-2.112,14.5,14.5,0,0,1-.739-2.085,8.939,8.939,0,0,1,1.229-6.707,4.411,4.411,0,0,1-2.286-1.425h0a.438.438,0,0,1-.069-.462.331.331,0,0,1,.313-.21H40.6l.421.034.1.008c.555.047,1.08.091,1.611.091a6.678,6.678,0,0,0,1.82-.229,5.988,5.988,0,0,0,1.7-.806l.115-.076a2.683,2.683,0,0,1,1.811-.507h.019a1.068,1.068,0,0,1,.754.36.779.779,0,0,1,.212.606l-.018.144a2.707,2.707,0,0,1-.4,1.2,2.446,2.446,0,0,1-1.043.807,7.928,7.928,0,0,1-2.647.69c-.185.017-.379.026-.575.026-.17,0-.344-.007-.517-.019l-.079.455a19.415,19.415,0,0,0-.328,2.746,10.359,10.359,0,0,0,1.263,4.634l.015.034a12.7,12.7,0,0,1,.764,2.209,10.124,10.124,0,0,1,.286,2.208,9.311,9.311,0,0,1-.231,2.207,10.216,10.216,0,0,1-.787,2.207A1.459,1.459,0,0,1,43.65,62.963ZM53.569,42.62a1.186,1.186,0,0,1-.965-.459,1.387,1.387,0,0,1-.266-.649,2.105,2.105,0,0,1,.061-.853,5.582,5.582,0,0,1,1.059-1.865c.121-.161.246-.327.363-.493a20.718,20.718,0,0,0,1.356-2.18,13.059,13.059,0,0,0,.985-2.334,8.528,8.528,0,0,0,.388-2.5,7.855,7.855,0,0,0-.375-2.331,7.364,7.364,0,0,0-1.069-2.126,5.492,5.492,0,0,0-1.7-1.549,4.547,4.547,0,0,0-2.275-.6h-.068a.171.171,0,0,1-.179-.175.19.19,0,0,1,.182-.2c.12-.007.242-.01.361-.01a6.59,6.59,0,0,1,3.862,1.286,8.29,8.29,0,0,1,2.618,3.193c1.485,3.141.6,6.632-.411,9.006l-.341.792a15.918,15.918,0,0,1-1.066,2.109,4.849,4.849,0,0,1-1.536,1.632A1.94,1.94,0,0,1,53.569,42.62Zm15.247-3.56a2.444,2.444,0,0,1-1.411-.454,2.361,2.361,0,0,1-.883-1.211.954.954,0,0,1,.046-.682,1.232,1.232,0,0,1,.444-.523,7.245,7.245,0,0,0,2.832-3.257A10.7,10.7,0,0,0,70.5,30.7a13.449,13.449,0,0,0,.2-2.322,10.9,10.9,0,0,0-4.387-9.064.2.2,0,0,1-.07-.231.174.174,0,0,1,.16-.128.188.188,0,0,1,.1.032,14.585,14.585,0,0,1,4.431,4.548,14.857,14.857,0,0,1,2.2,5.958,14.041,14.041,0,0,1,.023,3.472,11.174,11.174,0,0,1-.923,3.34,5.913,5.913,0,0,1-1.131,1.672,3.645,3.645,0,0,1-1.715,1.016A2.412,2.412,0,0,1,68.816,39.06Zm41.81-3.013a1.686,1.686,0,0,1-.857-.241,1.588,1.588,0,0,1-.6-.62,1.243,1.243,0,0,1,.111-1.333c.162-.235.329-.462.49-.682a8.5,8.5,0,0,0,1.365-2.361,9.624,9.624,0,0,0,.464-3.266,10.16,10.16,0,0,0-2.562-6.644.209.209,0,0,1-.04-.23.212.212,0,0,1,.192-.128.223.223,0,0,1,.1.027,8.225,8.225,0,0,1,1.72,1.21,8.769,8.769,0,0,1,1.353,1.575,9.866,9.866,0,0,1,1.522,3.88,11.122,11.122,0,0,1,.133,2.19,11.8,11.8,0,0,1-.306,2.3,7.761,7.761,0,0,1-2.1,3.928A1.423,1.423,0,0,1,110.626,36.047ZM80.44,35.386a2.765,2.765,0,0,1-.956-.173,1.221,1.221,0,0,1-.79-.811,1.246,1.246,0,0,1,.28-1.12,6.958,6.958,0,0,1,1.468-1.232,6.3,6.3,0,0,0,1.606-1.409,6,6,0,0,0,.959-2.113,8.49,8.49,0,0,0,.222-2.32l-.007-.171a15.036,15.036,0,0,0-1.235-5.187,6.555,6.555,0,0,0-1.521-2.171,3.317,3.317,0,0,0-2.246-.89h-.1a.14.14,0,0,1-.145-.146.156.156,0,0,1,.15-.166c.087,0,.175-.006.261-.006a5.336,5.336,0,0,1,2.811.807,7.793,7.793,0,0,1,2.168,2.046,12.187,12.187,0,0,1,1.5,2.721,13.616,13.616,0,0,1,.8,2.833A9.28,9.28,0,0,1,84.5,32.459l-.074.115a8.209,8.209,0,0,1-1.7,1.9A3.715,3.715,0,0,1,80.44,35.386ZM95.8,34.755a1.892,1.892,0,0,1-.716-.146c-.505-.206-1.1-.8-.83-1.462a2.724,2.724,0,0,1,1.06-1.266c.121-.093.245-.189.378-.3a4.122,4.122,0,0,0,1.079-1.563,8.985,8.985,0,0,0,.647-2.438,13.836,13.836,0,0,0,.078-2.527l-.013-.195a13.184,13.184,0,0,0-.463-2.586,10.987,10.987,0,0,0-1.074-2.577A6.293,6.293,0,0,0,94.2,17.716a4.188,4.188,0,0,0-2.465-.791H91.63a.115.115,0,0,1-.123-.111.146.146,0,0,1,.128-.155,4.924,4.924,0,0,1,.622-.04,4.793,4.793,0,0,1,2.578.768,7.584,7.584,0,0,1,2.013,1.93,12.758,12.758,0,0,1,1.439,2.533,15.247,15.247,0,0,1,1.258,5.871,11.154,11.154,0,0,1-.434,3.284l-.047.15a8.14,8.14,0,0,1-1.2,2.314,4.037,4.037,0,0,1-.942.916A2.029,2.029,0,0,1,95.8,34.755Zm9.574-1.868a2.621,2.621,0,0,1-.671-.095.832.832,0,0,1-.536-.426,1.062,1.062,0,0,1-.093-.682,2.555,2.555,0,0,1,.969-1.576c.133-.127.271-.258.419-.412a6.406,6.406,0,0,0,1.34-2.206,8.965,8.965,0,0,0,.234-5.2,17.842,17.842,0,0,0-2.424-5.373l-.227-.357-.143-.227-.009-.014c-1.055-1.676-2.5-3.971-4.563-3.971a2.843,2.843,0,0,0-.342.021H99.3a.128.128,0,0,1-.132-.113.2.2,0,0,1,.111-.216,2.988,2.988,0,0,1,1.065-.2,4.007,4.007,0,0,1,2.52,1.062,15.81,15.81,0,0,1,1.981,2.065,28.991,28.991,0,0,1,2.332,3.12,16.551,16.551,0,0,1,1.72,3.485,11.211,11.211,0,0,1,.211,6.9,9.161,9.161,0,0,1-1.6,3.05l-.093.114A2.654,2.654,0,0,1,105.373,32.886Z" transform="translate(-13.507 11.613)"/>
      </g>
      <g id="FACE" transform="translate(37.761 44.084)">
        <path id="teeth" d="M2.92,1.816c3.978-2.66,24.112-2.14,25.971-.1s6.153,7.866-3.046,10.727S5.257,14.3,2.29,10.8l-.175-.209C-.69,7.185-.979,4.423,2.92,1.816Z" transform="translate(20.303 48.045)" fill="#fff"/>
        <path id="_Ink-3" data-name="ðŸ– Ink" d="M21,50.745A31.5,31.5,0,0,1,11.7,49.462a16.568,16.568,0,0,1-3.711-1.646,9.336,9.336,0,0,1-2.646-2.351,7.079,7.079,0,0,1-.878-6.624A7.677,7.677,0,0,1,6.262,36.8,8.1,8.1,0,0,1,8.5,35.573a15.276,15.276,0,0,1,5.3-.762c1.347,0,2.734.09,3.959.17l.109.007c1.289.084,2.5.163,3.657.163.221,0,.435,0,.638-.009.282.02.592.03.949.03,1.012,0,2.224-.082,3.507-.169l.3-.02c1.478-.1,2.923-.189,4.346-.189a19.356,19.356,0,0,1,3.8.316,9.045,9.045,0,0,1,1.627.478,5.5,5.5,0,0,1,1.339.766,9.462,9.462,0,0,1,2.038,3.989,5.313,5.313,0,0,1-.42,3.4,8.069,8.069,0,0,1-2.687,2.986,17.823,17.823,0,0,1-4.414,2.2A35.829,35.829,0,0,1,21,50.745Zm.358-5.653a2.806,2.806,0,0,0-1.389.429,2.313,2.313,0,0,0-.89.85,4.984,4.984,0,0,0-.17,1.955c0,.038,0,.074.005.1,1,.1,2.024.152,3.043.152.675,0,1.361-.022,2.038-.067-.075-.248-.139-.509-.2-.761a5.427,5.427,0,0,0-.627-1.722,1.952,1.952,0,0,0-.639-.611,2.518,2.518,0,0,0-1.03-.316c-.046,0-.093-.006-.14-.006Zm5.9.408h0a2.3,2.3,0,0,0-.576.074,2.072,2.072,0,0,0-1.241.993,2.886,2.886,0,0,0-.388,1.605.318.318,0,0,1-.05.164l-.018.036a29.336,29.336,0,0,0,4.3-.84,2.513,2.513,0,0,0-.763-1.571,1.89,1.89,0,0,0-1.269-.461ZM14.729,44.184h0a2.36,2.36,0,0,0-.4.033,1.774,1.774,0,0,0-.907.492,2.44,2.44,0,0,0-.513.8,3.911,3.911,0,0,0-.28,1.348,27.414,27.414,0,0,0,4.313,1.169c.253.05.525.1.859.155l.019-.234a5.831,5.831,0,0,0-.027-1.133,3.259,3.259,0,0,0-.47-1.391,3.276,3.276,0,0,0-2.589-1.24Zm17.822-.062h0a2.509,2.509,0,0,0-1.057.243,2.86,2.86,0,0,0-.9.669,2.785,2.785,0,0,0-.709,2.184c.3-.094.6-.193.889-.294a19.385,19.385,0,0,0,3.745-1.652,2.323,2.323,0,0,0-1.968-1.15ZM19.944,36.868h0a16.009,16.009,0,0,0-2.885.237l-.041.456L17,37.786c-.147,1.513-.286,2.942.507,3.548a3.611,3.611,0,0,0,1.963.381,10.813,10.813,0,0,0,2.459-.287c.047-.012.1-.073.147-.183a7.245,7.245,0,0,0,.386-2.051,4.917,4.917,0,0,0-.212-2.215c-.806-.072-1.58-.109-2.3-.109Zm5.544-.079a11.731,11.731,0,0,0-.289,2.38,2.136,2.136,0,0,0,.47,1.632,3.248,3.248,0,0,0,1.888.43,3.753,3.753,0,0,0,1.719-.312c.243-.16.388-.605.428-1.322a15.3,15.3,0,0,0-.112-2.4,22.868,22.868,0,0,0-4.1-.406Zm5.03.436h0l-.013.243c-.09,1.806.129,2.891.65,3.224a2,2,0,0,0,1.067.31,2.244,2.244,0,0,0,1.477-.592,4.866,4.866,0,0,0,1.294-2.128c-.124-.325-.709-.583-1.738-.768a23.1,23.1,0,0,0-2.356-.26c-.167-.012-.3-.021-.381-.03Zm-14.387-.1h0l-.687.006-.389.005a15.98,15.98,0,0,0-3.046.292,3.343,3.343,0,0,0-.347,1.433,2.006,2.006,0,0,0,.309,1.076,2.05,2.05,0,0,0,.829.726,2.5,2.5,0,0,0,1.1.25,2.333,2.333,0,0,0,1.834-.841,3.166,3.166,0,0,0,.436-2.789l-.037-.159Zm10.516-5.308h0a8.306,8.306,0,0,1-2.956-.595,14.94,14.94,0,0,1-3.477-1.969,1.333,1.333,0,0,1-.485-.77,1.592,1.592,0,0,1,.069-.865,1.967,1.967,0,0,1,.585-.844,1.426,1.426,0,0,1,.912-.355,1.3,1.3,0,0,1,.706.216l.238.183a18.822,18.822,0,0,0,2.176,1.51,5.369,5.369,0,0,0,2.609.83,2.822,2.822,0,0,0,1.1-.216,3.081,3.081,0,0,0,1.027-.726,3.136,3.136,0,0,0,.6-2.529,4.775,4.775,0,0,0-1.271-2.243,9.261,9.261,0,0,0-1.923-1.549.594.594,0,0,1-.161-.684.893.893,0,0,1,.3-.426.911.911,0,0,1,.568-.187,1.212,1.212,0,0,1,.2.018,6.457,6.457,0,0,1,2.268.818,5.141,5.141,0,0,1,1.525,1.4,5.568,5.568,0,0,1,.974,3.725,6.128,6.128,0,0,1-.5,1.955,5.7,5.7,0,0,1-1.124,1.68A5.379,5.379,0,0,1,26.647,31.813Zm11.225-10.17a2.016,2.016,0,0,1-1.191-.407,3.486,3.486,0,0,1-.96-1.112,7.124,7.124,0,0,1-.837-3.5,7.123,7.123,0,0,1,.837-3.5,3.486,3.486,0,0,1,.96-1.112,1.946,1.946,0,0,1,2.382,0,3.486,3.486,0,0,1,.96,1.112,7.123,7.123,0,0,1,.837,3.5,7.124,7.124,0,0,1-.837,3.5,3.486,3.486,0,0,1-.96,1.112A2.015,2.015,0,0,1,37.871,21.644Zm-26.656,0a2.015,2.015,0,0,1-1.191-.407,3.49,3.49,0,0,1-.96-1.112,7.126,7.126,0,0,1-.837-3.5,7.125,7.125,0,0,1,.837-3.5,3.489,3.489,0,0,1,.96-1.112,1.946,1.946,0,0,1,2.381,0,3.486,3.486,0,0,1,.96,1.112,7.123,7.123,0,0,1,.837,3.5,7.124,7.124,0,0,1-.837,3.5,3.486,3.486,0,0,1-.96,1.112A2.016,2.016,0,0,1,11.215,21.644ZM.312,8.807A.308.308,0,0,1,.056,8.65a.343.343,0,0,1-.021-.337A11.7,11.7,0,0,1,2.662,4.995,16.241,16.241,0,0,1,6.177,2.6a15.138,15.138,0,0,1,4.175-1.453l.446-.078.228-.039A10.063,10.063,0,0,1,12.62.87a2.818,2.818,0,0,1,2.248.837,1.9,1.9,0,0,1,.452,1.354,1.24,1.24,0,0,1-.452.885,3.468,3.468,0,0,1-2.374.695c-.187,0-.381,0-.568-.009h-.007c-.181,0-.384-.01-.586-.01-.186,0-.353,0-.508.013a16.082,16.082,0,0,0-3.534.6A24.029,24.029,0,0,0,.477,8.754.293.293,0,0,1,.312,8.807ZM44.494,7.012h0l-.188-.047a10.645,10.645,0,0,1-2.062-.8l-.669-.329a18.621,18.621,0,0,0-2.391-1.017,28.26,28.26,0,0,0-5.446-1.2A2.227,2.227,0,0,1,32.646,3.2a1.634,1.634,0,0,1-.611-.929A1.658,1.658,0,0,1,32.223.882,1.775,1.775,0,0,1,33.085.14,1.944,1.944,0,0,1,33.82,0a2.169,2.169,0,0,1,.424.042l.341.07.226.048a23.752,23.752,0,0,1,5.77,1.916A11.709,11.709,0,0,1,43.1,3.757a7.511,7.511,0,0,1,1.783,2.318c.064.492,0,.614-.061.7L44.8,6.8l-.017.023a.473.473,0,0,1-.292.194Z" transform="translate(14.012 12.325)"/>
      </g>
    </g>
  </g>
</svg>
