<svg xmlns="http://www.w3.org/2000/svg" width="390.67" height="780" viewBox="0 0 390.67 780">
  <g id="peep-standing-19" transform="translate(28.736)">
    <g id="BODY" transform="translate(-28.736 150.264)">
      <path id="_Skin" data-name="âœ‹ Skin" d="M189.02,186.31c-2.474-22.37-6.216-45.317-15.668-66.037-3.248-26.795,2.224-65.17-22.641-83.239.318-3.208-5.441-5.973-8.111-7.685-4.337-2.836-10.2-8.409-15.335-5.287-1.619-.493-5.613,1.526-7.451-2.854C117.93,16.721,118.2,7.724,116.7,6.9c.663-6.483-28.53-10.821-36.15-1.657-3.618,7.029.538,9.267-7.62,18.507a35.554,35.554,0,0,0-10.361,2.383c-2.743.379-5.472.839-8.188,1.319-34.646,3.2-37.266,28.8-40.337,56.284C11.417,120.66,0,157.445,4.934,194.659c-2.729,13.307-2.908,27.506.35,40.686-10.684,15.579-2.94,24.2,3.724,39.011a38.346,38.346,0,0,1,2.608,8.252,28.039,28.039,0,0,0,.271,6.594c1.131,4.982,9.449,4.285,9.82-.748.651-3.306.449-6.735.953-10.057-.029.173-.08.505-.08.531,1.22-8.36,3.186-11.6,8.618-17.98,6.974-10.066,2.686-22.714,4.277-33.979.436-3.764,1.013-7.479,1.4-11.25a31.052,31.052,0,0,0,7.579,3.253c-1.683,12.963,1.244,25.988,4.5,38.527,8.808,32.3,20.486,65.472,15.414,99.37,0-.016-5.531,27.7-9.9,41.388-5.284,17.353-9.538,34.735-17.014,51.374-4,11.976-12.474,23.338-12.145,36.231-2.924,4.317,2.341,9.5,6.981,9.492,0,5.846-3.092,16.86-3.092,16.86-.486,4.083-2.578,9.283.585,12.751-4.3,10.932-5.811,22.762-6.991,34.332-.451,5.488-.968,12.1,4.919,15.216,5.484,2.368,11.869,1.327,17.725,2.032,5.666.008,11.529,1.491,17.1.21,6.4-1.819,7.689-8.738,6.483-14.272-.777-5.762-1.709-11.5-2.728-17.232-3.024-12.469-3.871-26.305-7.745-38.3a10.784,10.784,0,0,0,5.821-3.089,8.13,8.13,0,0,0,7.415-6.187c.662-2.118,3.51-2.553,5.428-3.227a19.629,19.629,0,0,0,2.26,5.03c-.729,3.531,1.7,7.661,5.721,7.742.58.557,1.119,1.125,1.712,1.656-4.568,6.709-7.955,14.285-8.813,22.276-1.034,6.129-2.115,15.95,6.013,17.765,3.069.4,6.371,1.188,9.378.073a44.449,44.449,0,0,0,10.527,2.864C119.48,554.459,134.4,554.24,150,555.99c4.116.572,20.606,2.261,23.351,0,3.348.683,1.323-1.808,2.732-4.137,1.122-1.749,4.118-5.1,2.184-6.068-4.057-1.747-7.654-5.185-11.366-7.137-17.348-9.854-54.767-26.637-54.507-27.109-.051.334.227-8.1,1.614-10.341,1.951-1.93,5.839-1.591,7.876-3.437,1.292.06,10.989-2.724,10.159-7.387-1.064-3.722,2.411-8.284,0-11.427,7.983-72.773,26.558-143.354,36.809-215.739.227-.2.451-.4.678-.6,5.286.882,9.393-4.416,11-8.589a28.476,28.476,0,0,0,2.2-2.465c4.307-5.59,4.385-12.872,4.875-19.523a4.414,4.414,0,0,0,1.809-3.43q.256-6.413.532-12.824s0,0,0,0a9.876,9.876,0,0,0,1.129-6.954C191.214,200.942,192.431,193.56,189.02,186.31Z" transform="translate(75.522 -4.897)" fill="#d08b5b"/>
      <path id="_Shoes" data-name="ðŸ‘Ÿ Shoes" d="M26.85,36.836A63.129,63.129,0,0,1,16,35.944,39.6,39.6,0,0,1,2.027,30.621a6.471,6.471,0,0,1-1.7-2.742,8.459,8.459,0,0,1-.244-3.563L.1,24.183l.308-2.267,2.125.858a69.227,69.227,0,0,0,7.209,2.448,78.119,78.119,0,0,0,7.644,1.723c2.591.451,5.3.794,8.051,1.018,2.721.222,5.556.335,8.428.335,3.446,0,7.044-.162,10.7-.482l.475-.042,2.849-.26L46.86,30.179A7.585,7.585,0,0,1,45.071,32.9a9.558,9.558,0,0,1-2.89,1.89L42,34.873l-.058.02C38.4,36.11,32.755,36.836,26.85,36.836Zm106.44-20.39c-6.276,0-12.493-.166-18.48-.495-6.05-.332-12.056-.839-17.851-1.508l-.625-.073-.716-.085c-4.813-.562-14.147-2.251-21.278-3.644-3.985-.779-7.707-1.547-10.478-2.162a35.184,35.184,0,0,1-5.05-1.314,6.987,6.987,0,0,1-3.342-4.542L55.443,2.5,54.936,0l2.53.4C66.2,1.764,74.3,2.874,83.745,3.994c8.9,1.056,19.4,2.172,35.083,3.731l14.321,1.422c7.713.772,12.667,1.288,18.279,1.9l1.336.147.457.735a.739.739,0,0,0,.181.2l.046.032-1.057,3.26-.135.086a4.616,4.616,0,0,1-.627.354l-.073.032-.3.129-.326.015C144.942,16.308,139.007,16.446,133.29,16.446Z" transform="translate(99.152 532.661)" fill="#fff"/>
      <path id="_Top" data-name="ðŸ‘• Top" d="M189.361,187.564c-2.547,1.668-35.68,16.886-72.295,17.807-25.544.643-70.082-10.786-82.907-11.734-4.492-.332-.667,13.164.11,13.9-.3,2.849-2.254,7.62-2.041,10.5A119.889,119.889,0,0,1,2.1,207.621c-2.142-1.086-3.394-59.973.023-89.233C6.848,77.912,9.3,40.917,12.785,38.87c.041,1.03-2.822-27.664,21.374-32.233C38.553,5.807,64.083,0,64.083,0c10.45,13.273,27.078,24.412,36.573,24.412,16.862,0,26.4-24.469,28.024-24.175C164.066,6.636,161,48.9,169.528,95.752,176.977,136.665,188.692,176.6,189.361,187.564Z" transform="translate(79.361 19.672)" fill="#fff"/>
      <path id="_Pants" data-name="ðŸ‘– Pants" d="M145.848.7l2.6-.7-.568,4.042L146.1,16.376c-.348,2.432-19.589,110.49-19.589,110.49s-19.728,122.2-20.657,137.98c-.043.736-1.216,10.968-2.536,11.83l-.1.061-.094.059c-.423.26-3.617,2.518-16.928,4.674-7.535,1.22-32.472,3.523-32.472,3.523l.077-2.2c.069-1.877.2-5.045.292-7.278l.024-.61.037-1.022-.042-.008c-.534-.1-1.054.127-1.967,1.046-1.543,1.553-3.479,4.647-5.912,9.637l-.7,1.436s-36.3-9.381-44.186-14.114l-.244-.147L0,271.057l.4-1.71c1.871-7.863,26.87-82.3,29.813-92.2l.273-.923.156-.529c4.034-13.744,11.372-75.53,6.153-94.02-9.5-33.655-17.7-71.185-18.857-75l-.17-.557L17.6,5.553l-.913-2.922,3,.657A268.063,268.063,0,0,0,144.625,1.021Z" transform="translate(100.945 211.749)" fill="#e86bbb"/>
      <path id="_Ink" data-name="ðŸ– Ink" d="M51.935,574.544a69.856,69.856,0,0,1-9.409-.623,49.947,49.947,0,0,1-9.032-2.031,26.207,26.207,0,0,1-7.382-3.68,14.992,14.992,0,0,1-2.674-2.533,11.4,11.4,0,0,1-1.784-3.036,38.427,38.427,0,0,1-.362-5.659,54.346,54.346,0,0,1,.35-5.671c.417-3.781,1.16-7.609,1.877-11.312.481-2.481.978-5.045,1.367-7.548l.27-1.411c.239-1.256.484-2.551.7-3.693.781-4.14,1.589-8.421,2.476-12.613.995-4.7,1.986-8.788,3.029-12.491.321-1.349.736-2.8,1.3-4.551a18.933,18.933,0,0,0,.053-2.63,25.005,25.005,0,0,0-.523-3.406c-.031-.15-.06-.331-.084-.488a29.6,29.6,0,0,1-5.994-3.494,10.2,10.2,0,0,1-1.872-1.888,4.719,4.719,0,0,1-.891-1.97c-.409-2.224.26-4.463.907-6.628l0-.009c.089-.3.181-.6.267-.9l.041-.142c2.042-7.159,4.525-14.892,7.589-23.641,2.73-7.8,5.652-15.636,8.477-23.217v0c3.334-8.947,6.781-18.2,9.893-27.326,1.674-4.912,3.123-9.4,4.43-13.733,1.466-4.857,2.717-9.39,3.824-13.856,1.189-4.794,2.206-9.516,3.024-14.037.874-4.834,1.556-9.638,2.027-14.276.5-4.9.779-9.807.835-14.573.059-5-.127-10.02-.552-14.928-.224-3.454-.621-6.947-1.214-10.678-.528-3.324-1.2-6.762-2.058-10.512-1.591-6.967-3.589-13.974-5.521-20.75v0c-1.861-6.526-3.785-13.275-5.343-19.978-.839-3.609-1.507-6.918-2.044-10.115-.6-3.588-1.025-6.945-1.291-10.263-.581-2.509-1.242-5.477-1.747-8.47a64.123,64.123,0,0,1-.914-8.6c-.266-.062-.532-.123-.791-.182-.532-.121-1.082-.246-1.619-.385a36.865,36.865,0,0,1-2.032,7.319,54.477,54.477,0,0,0,.67,13.851,2.19,2.19,0,0,1-.2,1.42,1.9,1.9,0,0,1-.994.884,27.149,27.149,0,0,1,1.359,10.383,16.045,16.045,0,0,1-1.228,5,12.853,12.853,0,0,1-3.015,4.282l-.446.295a30.052,30.052,0,0,0-2.8,2.025,8.1,8.1,0,0,0-1.675,1.858c-.819,1.3-1.212,2.865-1.781,5.895l-3.581,14.634a11.323,11.323,0,0,1-2.281,5.079,5.421,5.421,0,0,1-4.08,1.871,6.186,6.186,0,0,1-2.01-.347,7.481,7.481,0,0,1-1.867-.96,8.028,8.028,0,0,1-2.711-3.274,34.781,34.781,0,0,1-1.714-7.42,47.822,47.822,0,0,0-1.069-5.48,19.513,19.513,0,0,0-.946-3.177,26.9,26.9,0,0,0-1.391-2.99c-1.066-1.987-2.365-3.925-3.512-5.634h0a26.155,26.155,0,0,1-3.158-6.842A26.641,26.641,0,0,1,0,247.827a24.674,24.674,0,0,1,1.07-7.414,22.2,22.2,0,0,1,3.4-6.744c.174-.442.349-.9.5-1.3.347-.9.706-1.839,1.094-2.754-1.46-1.709-1.272-4.1-1.09-6.407a19.716,19.716,0,0,0,.088-3.051c0-2.4-.045-4.868-.127-7.545-.19-6.293-.581-12.669-.959-18.835v0c-.514-8.388-1.045-17.061-1.077-25.62-.1-3.491-.036-7.037.207-10.839.217-3.388.569-6.9,1.077-10.746.944-7.14,2.3-14.358,3.605-21.338.989-5.274,2.011-10.728,2.85-16.112,1.01-7.445,1.622-15.071,2.213-22.446v0c.474-5.914.965-12.03,1.658-18.016.373-3.222.773-6.151,1.224-8.955.506-3.146,1.061-6.054,1.7-8.89a40.076,40.076,0,0,1,2.5-7.856,31.414,31.414,0,0,1,3.624-6.206A29.421,29.421,0,0,1,28.1,31.962a33.03,33.03,0,0,1,5.252-3.588A42.745,42.745,0,0,1,39.1,25.753a60.857,60.857,0,0,1,6.046-1.881c4.082-1.058,8.177-1.767,12.137-2.452h0c9.561-1.655,17.817-3.084,20.7-8.7a22.421,22.421,0,0,0,1.5-2.87,26.292,26.292,0,0,0,1.089-3.019A37.057,37.057,0,0,0,81.8.519.545.545,0,0,1,82.348,0,.558.558,0,0,1,82.9.519,24.5,24.5,0,0,1,81.11,13.036a17.848,17.848,0,0,1-8.591,9.191,77.206,77.206,0,0,1,6.238,6.426h0c1.667,1.856,3.39,3.776,5.233,5.508a35.836,35.836,0,0,0,2.894,2.463,26.8,26.8,0,0,0,3.229,2.116,24.887,24.887,0,0,0,6.759,3.073,26.072,26.072,0,0,0,7.139.984,27.835,27.835,0,0,0,4.574-.383,28.8,28.8,0,0,0,4.446-1.116,29.053,29.053,0,0,0,4.207-1.8A28.432,28.432,0,0,0,121.1,37.06a26.214,26.214,0,0,0,6.22-6.6,23.921,23.921,0,0,0,3.491-8.575c-.79-.181-1.725-.321-2.715-.469h0a27.086,27.086,0,0,1-5.664-1.264c-1.981-.776-3.139-1.9-3.541-3.446-.25-.256-.471-1.45-.621-3.363-.131-1.669-.2-3.769-.182-5.618-.031-.594-.051-1.194-.071-1.775L118,5.738a13.854,13.854,0,0,1-.068-1.628.861.861,0,0,1,.284-.663.941.941,0,0,1,.621-.22.928.928,0,0,1,.966.883c.032.491.053,1.005.071,1.448.009.092.021.185.033.275v0l.014.107c.155.563.28,1.141.4,1.7.072.334.14.649.215.962.131.551.235.974.339,1.373a12.009,12.009,0,0,0,1.007,3.491,10.049,10.049,0,0,0,3.38,3.862,9.949,9.949,0,0,0,2.352,1.2,7.871,7.871,0,0,0,2.531.459h.059c.326,0,.656-.022.975-.043h.009c.317-.021.645-.042.969-.042l.175,0a7.715,7.715,0,0,1,3.045.9l.178.08a6.712,6.712,0,0,0,2.777.723h.006a49.044,49.044,0,0,1,5.327,2.152,44.013,44.013,0,0,1,4.734,2.616,41.2,41.2,0,0,1,7.846,6.483,43.53,43.53,0,0,1,3.19,3.8,47.847,47.847,0,0,1,2.754,4.118c.83,1.39,1.623,2.872,2.356,4.4.705,1.474,1.378,3.04,2,4.655a83.406,83.406,0,0,1,3.077,9.92c.8,3.216,1.488,6.649,2.112,10.5,1.156,7.127,1.88,14.474,2.58,21.58v0c.766,7.774,1.489,15.117,2.719,21.882,1,5.369,2.281,11.207,3.911,17.849,1.454,5.927,3.045,11.925,4.583,17.726v0c2.54,9.579,5.167,19.484,7.245,29.314,1.118,5.291,1.993,10.14,2.674,14.823.764,5.256,1.267,10.169,1.536,15.022a3.512,3.512,0,0,1-.14,1.778,3.942,3.942,0,0,1-.887,1.391,13.255,13.255,0,0,1-2.933,2.087c-.546.32-1.061.622-1.53.945a52.447,52.447,0,0,0,.645,10.419,73.044,73.044,0,0,1,.707,7.514,28.188,28.188,0,0,1-.141,3.739,20.956,20.956,0,0,1-.733,3.72,51.221,51.221,0,0,1-6.932,12.873c-2.755,3.7-6.984,8.109-11.49,8.11a6.752,6.752,0,0,1-1.906-.274c-.94,7.133-2.014,14.363-3.281,22.1-1.129,6.895-2.388,14.042-3.849,21.851-2.712,14.495-5.719,29.091-8.628,43.207l0,.012c-2.258,10.957-4.592,22.287-6.763,33.451-2.432,12.508-4.4,23.494-6.015,33.588-1.937,12.1-3.422,23.219-4.541,33.978-.606,5.828-1.108,11.62-1.492,17.215-.4,5.869-.689,11.726-.852,17.409a7.6,7.6,0,0,1,.408,3.372,7.3,7.3,0,0,1-1.018,2.936,11.181,11.181,0,0,1-4.019,3.775,15.641,15.641,0,0,1-2.645,1.219,15.834,15.834,0,0,1-2.784.712l-.8.462a45.761,45.761,0,0,1-8.4,4l-.038.022,0,0c-.059.034-.119.069-.18.1a1.375,1.375,0,0,1-.454.149,17.122,17.122,0,0,0,1.588,5.6,55.355,55.355,0,0,1,5.8,1.687c1.791.623,3.632,1.349,5.627,2.221,3.706,1.619,7.391,3.5,10.954,5.326h0c3.928,2.009,7.991,4.087,12.079,5.806a88.642,88.642,0,0,0,9.914,4.674,135.186,135.186,0,0,1,13.966,6.634c4.781,2.783,7.364,5.342,7.9,7.824l.046.243a7.928,7.928,0,0,1-1.362,6.133,5.444,5.444,0,0,1-3.967,2.212,2.537,2.537,0,0,1,.912,1.2,2.669,2.669,0,0,1,.089,1.394,3.639,3.639,0,0,1-.888,1.729,3.534,3.534,0,0,1-1.7,1.056,23.8,23.8,0,0,1-5.724.548c-.982.015-2,.03-2.979.109-3.519.11-7.081.166-10.587.166a314.954,314.954,0,0,1-70.361-7.78,28.667,28.667,0,0,1-3.334-.948A12.884,12.884,0,0,1,81.18,543.6a12.706,12.706,0,0,1-2.652-2.825,12.288,12.288,0,0,1-1.563-3.278,15.572,15.572,0,0,1-.639-3.642,23.054,23.054,0,0,1,.121-3.918,45.22,45.22,0,0,1,1.864-8.307c.872-2.815,1.918-5.627,2.93-8.346a90.452,90.452,0,0,0,3.23-9.7,23.788,23.788,0,0,1-3.033-.68l-.223-.067A6.978,6.978,0,0,1,78.5,501.51c-.019-.017-.036-.036-.052-.053l-.034-.036a1.9,1.9,0,0,1-1.613-.745c-1.279-1.775.185-6.345,1.254-9.683a25.928,25.928,0,0,0,.883-3.112c-.658,1.4-1.286,2.854-1.894,4.262v0a73.761,73.761,0,0,1-4.028,8.348,2.716,2.716,0,0,1-1.215,1.034,3.838,3.838,0,0,1-1.543.279,14.139,14.139,0,0,1-2.8-.4h0a15.783,15.783,0,0,0-2-.336c.191,3.5.537,7.046,1.058,10.84.467,3.4,1.063,6.91,1.821,10.729,1.4,7.068,3.148,14.075,4.961,21.229.209.845.435,1.721.652,2.568l.006.023a72.96,72.96,0,0,1,2.266,11.133,21.056,21.056,0,0,1-.09,5.16,13.4,13.4,0,0,1-.579,2.353,10.98,10.98,0,0,1-1.021,2.155A10.483,10.483,0,0,1,73,569.178a11.985,11.985,0,0,1-2.1,1.648,15.978,15.978,0,0,1-2.731,1.344,23.409,23.409,0,0,1-3.43,1,40.2,40.2,0,0,1-5.767,1A65.79,65.79,0,0,1,51.935,574.544ZM26.907,558.03a6.594,6.594,0,0,0,.2,3.045,4.732,4.732,0,0,0,1.381,2.044,16.173,16.173,0,0,0,5.018,2.529l.05.019.225.085a55.642,55.642,0,0,0,9.043,2.47,52.157,52.157,0,0,0,9.4.872h0A43.558,43.558,0,0,0,66.4,566.821a7.968,7.968,0,0,0,2.366-1.484,5.839,5.839,0,0,0,1.471-2.185c-3.853.351-7.654.529-11.3.529-2.789,0-5.548-.1-8.2-.31-2.777-.215-5.514-.548-8.134-.988a80.474,80.474,0,0,1-7.975-1.752A71,71,0,0,1,26.907,558.03Zm55.325-22.269a5.594,5.594,0,0,0,3.547,4.024,24.819,24.819,0,0,0,5.761,1.516c.449.08.873.156,1.282.236,4.678.977,9.378,1.855,13.969,2.61,4.715.775,9.451,1.442,14.076,1.982,6.057.729,12.35,1.279,18.7,1.635,6.079.341,12.4.513,18.773.513h0c5.686,0,11.588-.137,17.544-.408a3.18,3.18,0,0,0,.46-.261,1.7,1.7,0,0,1,.976-.362h0l.076,0,.062,0h.006l.035,0a2.55,2.55,0,0,1-.759-.775c-9.531-1.046-19.239-2.007-28.627-2.936h0c-10.826-1.071-22.022-2.179-33.011-3.424C102.784,538.721,92.03,537.3,82.232,535.761Zm7.87-37.7a41.9,41.9,0,0,1-1.394,7.513c-.67,2.478-1.5,4.966-2.308,7.371v0l-.006.019c-.393,1.175-.8,2.39-1.179,3.579a12.664,12.664,0,0,0,3.226.426h0A12.958,12.958,0,0,0,92,516.462a18.382,18.382,0,0,0,3.356-1.341,53.349,53.349,0,0,0,6.38-4.076c1.65-1.166,3.356-2.372,5.085-3.374a24.632,24.632,0,0,1,2.636-1.339,16.529,16.529,0,0,1,2.746-.92,15.069,15.069,0,0,1-.226-4.215,11.424,11.424,0,0,1,1.06-3.947c-2.64.457-5.03.793-7.307,1.027a71.44,71.44,0,0,1-7.356.4A53.864,53.864,0,0,1,90.1,498.061Zm-55.066-5.638a.273.273,0,0,1,.034.16c-.018,3.528-.195,7.129-.541,11.01-.307,3.437-.741,7.019-1.328,10.953a21.536,21.536,0,0,1,3.869-3.275,23.748,23.748,0,0,1,4.483-2.318,26.474,26.474,0,0,1,4.892-1.378,28.6,28.6,0,0,1,5.1-.455,29.2,29.2,0,0,1,4.488.348,28.231,28.231,0,0,1,4.35,1.035l-.04-.47c-.03-.334-.062-.673-.093-1A27.592,27.592,0,0,1,60.183,500l-.424-.118c-.919-.253-2.069-.553-3.4-.9-2.833-.739-6.359-1.66-10.109-2.762C41.818,494.914,38.15,493.673,35.036,492.423Zm11.157-274.76c1.025,3.281,1.947,6.673,2.741,10.082.777,3.336,1.452,6.782,2.008,10.242.376,2.808.861,5.651,1.484,8.691.555,2.708,1.207,5.512,1.994,8.572,1.462,5.684,3.178,11.411,4.839,16.949h0c1.706,5.691,3.47,11.575,4.96,17.423,1.294,5.194,2.3,10.022,3.078,14.759.8,4.852,1.334,9.5,1.643,14.2a142.616,142.616,0,0,1,.221,14.28c-.162,4.833-.551,9.741-1.19,15l-.078.63c-.4,3.337-.9,6.776-1.493,10.222-.565,3.284-1.232,6.684-1.982,10.106-1.383,6.314-3.067,12.833-5.149,19.93-1.735,5.914-3.783,12.345-6.264,19.661-2.21,6.519-4.551,13.123-6.815,19.509l0,.012,0,.006c-3.164,8.924-6.435,18.153-9.4,27.283-1.595,4.916-2.975,9.413-4.22,13.747-1.4,4.865-2.59,9.4-3.646,13.874,1.416.858,2.924,1.689,4.484,2.469,1.483.742,3.059,1.462,4.684,2.14a100.935,100.935,0,0,0,9.817,3.473c6.693,2.016,13.643,3.521,20.363,4.975l.017,0c1.035.224,2.1.456,3.149.684,2.329-4.8,4.52-9.536,6.512-14.087,2.118-4.839,4.092-9.654,5.869-14.311,1.872-4.9,3.591-9.81,5.111-14.579,1.59-4.988,3.015-10,4.238-14.893,3.252-11.345,6.738-22.728,10.109-33.737,3.821-12.476,7.771-25.377,11.324-38.055,1.911-6.817,3.562-13.045,5.049-19.04,1.667-6.721,3.087-12.982,4.34-19.143,1.345-6.608,2.491-13.106,3.407-19.315.978-6.636,1.735-13.216,2.247-19.558.541-6.7.832-13.386.863-19.872.032-6.8-.219-13.611-.747-20.255a1.728,1.728,0,0,1-.759-1.621,3.949,3.949,0,0,1,.612-1.822c-.259-5.56-.59-10.128-1.041-14.376a.115.115,0,0,1,.028-.091.162.162,0,0,1,.119-.048.134.134,0,0,1,.139.1c.191.931.386,1.87.574,2.779.645,3.108,1.312,6.323,1.882,9.5a46.83,46.83,0,0,0,4.184-4.958c1.286-1.731,2.511-3.55,3.695-5.309l0,0c1.561-2.318,3.175-4.715,4.948-6.939a6.075,6.075,0,0,1-.172,2.08,22.723,22.723,0,0,1-.881,2.905,59.986,59.986,0,0,1-3.223,7.081,67.4,67.4,0,0,1-4.06,6.767,16.282,16.282,0,0,1-3.565,4.044c.5,3.083.934,6.225,1.28,9.337.34,3.05.609,6.161.8,9.247.37,5.96.466,12.1.284,18.257-.172,5.839-.6,11.9-1.271,18-.63,5.73-1.5,11.724-2.584,17.816-1.016,5.7-2.211,11.495-3.655,17.7-1.3,5.58-2.764,11.355-4.483,17.657-3.2,11.742-6.787,23.475-10.483,35.463-3.18,11-6.383,22.2-9.481,33.028l-.02.07v0c-6.52,22.791-13.263,46.358-20.167,69.448.133,0,.258,0,.371.008a.136.136,0,0,1,0-.142c.309-.519,4.281-.525,7.786-.53h0a29.846,29.846,0,0,0,5.638-.242,133.255,133.255,0,0,0,14.2-2.2c4.826-.988,9.7-2.177,14-3.226l1.14-.294a13.46,13.46,0,0,0,3.422-1.277,3.791,3.791,0,0,0,2-2.675l.006-.311a.767.767,0,0,1,.014-.172l-.067-.278a.62.62,0,0,1-.022-.129l-.092-.137-.025-.036-.016-.023h0a.992.992,0,0,1-.093-.142c.005,0,.024.018.063.06a3.03,3.03,0,0,1-.8-2.164,2.618,2.618,0,0,1,.24-.979,2.67,2.67,0,0,1,.638-.858c.163-5.965.46-12.114.885-18.277.4-5.873.937-11.956,1.584-18.079,1.194-11.3,2.788-22.975,4.872-35.69,1.737-10.6,3.857-22.14,6.48-35.277,2.34-11.72,4.858-23.614,7.294-35.117,3.406-16.085,6.927-32.718,10.041-49.241,1.676-8.892,3.1-17.038,4.359-24.9,1.411-8.827,2.575-17.071,3.557-25.2.646-5.092,1.4-10.257,2.124-15.251l0-.016,0-.032c.38-2.614.774-5.317,1.147-7.977-5.544,1.486-11.227,2.805-16.89,3.923-5.63,1.111-11.386,2.05-17.11,2.792-5.694.738-11.5,1.3-17.257,1.67-5.735.368-11.566.555-17.331.555A273.206,273.206,0,0,1,46.193,217.663ZM8.671,231.172h0A19.918,19.918,0,0,0,5.811,236a23,23,0,0,0-1.494,5.389,27.986,27.986,0,0,0,.64,11.189,22.866,22.866,0,0,0,2.122,5.027c.911,1.64,1.982,3.236,2.926,4.644a30.149,30.149,0,0,1,2.367,3.986,35.226,35.226,0,0,1,1.753,4.233,51.029,51.029,0,0,1,2.1,8.952l.026.116c.07.328.135.746.21,1.23.344,2.221.863,5.577,2.825,5.578a1.953,1.953,0,0,0,.418-.047c.622-.4.965-1.945,1.215-3.074.04-.18.081-.365.119-.524l3.2-13.088c.134-.549.257-1.1.388-1.678a32.489,32.489,0,0,1,1.42-5.042,11.888,11.888,0,0,1,1.2-2.28,8.653,8.653,0,0,1,1.763-1.916l.388-.247a18.913,18.913,0,0,0,3.708-2.926,7.357,7.357,0,0,0,2.012-4.151,12.719,12.719,0,0,0,.15-4.352,38.758,38.758,0,0,0-.853-4.292v0c-.269-1.131-.548-2.3-.733-3.451-4.2-.958-8.465-2.141-12.685-3.515-4.086-1.33-8.232-2.874-12.323-4.588Zm163.956,24.3a1.777,1.777,0,0,1,.612.1,10.079,10.079,0,0,0,2.694-1.245,17.926,17.926,0,0,0,2.66-2.112,33.34,33.34,0,0,0,4.856-5.98,42.086,42.086,0,0,0,3.628-6.91,22.206,22.206,0,0,0,1.671-6.145c.156-2.015.134-4.092.113-6.1-.023-2.141-.046-4.356.146-6.5a25.411,25.411,0,0,1,.476-3.193,18.786,18.786,0,0,1,.961-3.121l-.286.141c-.291.145-.627.315-1.015.512h0c-1.6.813-4.03,2.042-6.436,3.048a34.055,34.055,0,0,1-3.529,1.279,11.2,11.2,0,0,1-2.992.525,2.653,2.653,0,0,1-1.683-.459c.029,5.786-.172,11.721-.612,18.142-.384,5.6-.948,11.509-1.726,18.069A2.166,2.166,0,0,1,172.627,255.468ZM8.549,167.556c1.906,0,3.239,1.873,4.022,3.445a17.611,17.611,0,0,1,1.628,5.529,15.542,15.542,0,0,1-.481,5,16.178,16.178,0,0,1-.922,2.7,10.32,10.32,0,0,1-1.389,2.308,4.8,4.8,0,0,1-3.24,1.921l.37,5.932c.3,4.875.608,10.1.811,15.25.222,5.629.3,10.623.235,15.268a1.455,1.455,0,0,1,.58.293,5.889,5.889,0,0,0,.107.88.58.58,0,0,0,.456.49l.008.011a1.862,1.862,0,0,1-.127.6c4.091,1.709,8.319,3.3,12.567,4.722,4.214,1.413,8.55,2.7,12.886,3.817a48.316,48.316,0,0,1,.141-8.607c-1.053-1-1.448-2.918-1.209-5.866a62.424,62.424,0,0,1,1.417-8.005v0a44.7,44.7,0,0,0,.932-4.938c.717-4.163,1.381-8.494,2.031-13.241.55-4.015,1.092-8.362,1.659-13.291a4.934,4.934,0,0,1-3.545-2.137,12.628,12.628,0,0,1-1.861-3.88,20.471,20.471,0,0,1-1.137-4.381,13.408,13.408,0,0,1-.112-2.243,11.185,11.185,0,0,1,.31-2.248,7.931,7.931,0,0,1,2.468-4.129,6.682,6.682,0,0,1,4.4-1.845,5.191,5.191,0,0,1,1.641.265l.237-2.385c.252-2.548.5-5.138.744-7.643,1.194-12.355,2.429-25.13,4.287-37.621a7.672,7.672,0,0,1-3.754,1.028,7.33,7.33,0,0,1-3.621-.981,9.153,9.153,0,0,1-1.564-1.117,10.574,10.574,0,0,1-1.346-1.438,11.7,11.7,0,0,1-2.107-4.352,9.832,9.832,0,0,1-.033-4.773,11.038,11.038,0,0,1,1.667-4.148,9.884,9.884,0,0,1,3.247-3.1,11.417,11.417,0,0,1,5.192-1.48,4.743,4.743,0,0,1,2.014.394,3.005,3.005,0,0,1,1.427,1.364,3.243,3.243,0,0,1,1.884.95c.92-4.752,1.784-8.629,2.72-12.2A103.55,103.55,0,0,1,58.016,71.79,13.342,13.342,0,0,1,54.737,68.9a12.809,12.809,0,0,1-2.037-3.53,12.037,12.037,0,0,1-.383-7.553,9.773,9.773,0,0,1,3.525-5.183,10.227,10.227,0,0,1,3.079-1.56,13.252,13.252,0,0,1,3.949-.574,13.905,13.905,0,0,1,4.991,1.32,10.389,10.389,0,0,1,3.411,2.66,10.912,10.912,0,0,1,2.422,7.5,12.2,12.2,0,0,1-.851,3.992A11.3,11.3,0,0,1,70.7,69.43a10.108,10.108,0,0,1-3.344,2.434,10.8,10.8,0,0,1-4.456.92,14.61,14.61,0,0,1-3.976-.586c-2.382,14.328-4.463,29.683-6.363,46.944-1.84,16.727-3.289,33.227-4.463,47.16a8.593,8.593,0,0,1,1.062,2.672,9.66,9.66,0,0,1,.184,2.918,8.348,8.348,0,0,1-2.305,5.205c-1.316,12.586-2.8,23.721-4.534,34.042,6.909,1.537,13.107,2.758,18.948,3.732,6.794,1.133,13.064,1.93,19.168,2.435a6.036,6.036,0,0,1,1.091-2.629,7.836,7.836,0,0,1,2.078-1.94,11.113,11.113,0,0,1,2.663-1.256,12.732,12.732,0,0,1,2.845-.577,8.518,8.518,0,0,1,.9-.046,20.992,20.992,0,0,1,4.7.742c.669.158,1.3.307,1.924.425a10.66,10.66,0,0,1,3.8,2.55,11.27,11.27,0,0,1,2.438,3.782c.515,0,1.048,0,1.582,0,5.692,0,11.475-.19,17.189-.564,5.683-.372,11.439-.936,17.108-1.676a5.582,5.582,0,0,1,.136-2.757,7.134,7.134,0,0,1,1.344-2.434,10.69,10.69,0,0,1,2.005-1.858,14.02,14.02,0,0,1,2.482-1.424,13.51,13.51,0,0,1,5.368-1.233,8.5,8.5,0,0,1,1.461.121,11.637,11.637,0,0,1,3.087.806,9.489,9.489,0,0,1,2.689,1.683,4.529,4.529,0,0,1,2.135,1.158,4.4,4.4,0,0,1,1.26,2.118c1.061-.252,2.141-.491,3.186-.723h0a74.4,74.4,0,0,0,9.394-2.519,7.59,7.59,0,0,0,2.493-1.327A5.634,5.634,0,0,0,177.5,205.8a6.27,6.27,0,0,0,.578-2.419,9.191,9.191,0,0,0-.332-2.771,9.751,9.751,0,0,1-3.628.72,9.38,9.38,0,0,1-3.64-.744,11.152,11.152,0,0,1-3.126-2,13.219,13.219,0,0,1-2.422-2.911,13.533,13.533,0,0,1-1.525-3.474,10.853,10.853,0,0,1,.029-6.286,8.963,8.963,0,0,1,1.527-2.829,10.079,10.079,0,0,1,2.7-2.324,5.228,5.228,0,0,1,1.355-.7,4.929,4.929,0,0,1,1.588-.288,2.649,2.649,0,0,1,1.258.28,1.866,1.866,0,0,1,.855.953c.13.022.264.05.41.086-.878-3.608-1.767-7.238-2.626-10.749l-.071-.291a5.166,5.166,0,0,1-3.2-1.514,6.013,6.013,0,0,1-1.036-1.4,6.755,6.755,0,0,1-.8-3.385,5.986,5.986,0,0,1,.3-1.7,5.013,5.013,0,0,1,2.13-2.723c-1.63-6.809-3.007-12.812-4.209-18.353a7.775,7.775,0,0,1-1.562.16,8.132,8.132,0,0,1-4.024-1.1,10.415,10.415,0,0,1-1.744-1.244,12.219,12.219,0,0,1-1.509-1.592,13.549,13.549,0,0,1-2.438-4.807,10.442,10.442,0,0,1-.185-5.113l.048-.192a11.217,11.217,0,0,1,2.5-4.793,8.69,8.69,0,0,1,2.108-1.716,7.48,7.48,0,0,1,2.616-.917c-.949-5.481-1.728-10.592-2.379-15.624a4.261,4.261,0,0,1-1.037-3.968,135.024,135.024,0,0,0-.553-13.573v0c-.207-2.786-.422-5.667-.523-8.5a72.938,72.938,0,0,1,.135-8.494,11.918,11.918,0,0,1-4.288,3.315,11.684,11.684,0,0,1-2.414.791,12.074,12.074,0,0,1-7.591-.881,10.576,10.576,0,0,1-3.968-3.188,9.294,9.294,0,0,1-1.739-4.065,11.255,11.255,0,0,1,.387-5.094,10.412,10.412,0,0,1,.749-4.154,10,10,0,0,1,2.148-3.244,11.032,11.032,0,0,1,1.813-1.483,11.918,11.918,0,0,1,2.086-1.088,12.441,12.441,0,0,1,4.625-.9,11.7,11.7,0,0,1,2.787.333,10.76,10.76,0,0,1,2.632,1.023,10.3,10.3,0,0,1,2.324,1.751,11,11,0,0,1,1.864,2.517c.17-.623.356-1.252.536-1.86a37.976,37.976,0,0,0,1.135-4.5.209.209,0,0,1,.215-.165.238.238,0,0,1,.247.2v.027c.315,5.634.416,11.377.513,16.931.074,4.25.151,8.644.324,12.97.194,4.846.49,9.08.906,12.944a3.938,3.938,0,0,1,2.174.817,6.742,6.742,0,0,1,1.7,1.941,12.373,12.373,0,0,1,1.65,5.591,10.641,10.641,0,0,1-.113,2.3,7.029,7.029,0,0,1-.622,2,4.365,4.365,0,0,1-1.174,1.489,3.742,3.742,0,0,1-1.769.762c1.1,7.4,2.508,15.131,4.309,23.643,1.465,6.925,3.189,14.37,5.426,23.432a4.381,4.381,0,0,1,1.085-.142,3.9,3.9,0,0,1,1.915.5,5.372,5.372,0,0,1,1.557,1.354,8.679,8.679,0,0,1,1.166,1.971,12.148,12.148,0,0,1,.742,2.352,13.237,13.237,0,0,1,.286,2.774,10.594,10.594,0,0,1-.325,2.635,5.028,5.028,0,0,1-2.662,3.57c1.539,6.09,3.179,12.607,4.746,19l.03-.014a2.819,2.819,0,0,1,2.649-1.142,9.133,9.133,0,0,1,1.694.176,3.751,3.751,0,0,1,2.195,2.086,5.443,5.443,0,0,1,.294,3.073,5.866,5.866,0,0,1-1.45,2.979,3.981,3.981,0,0,1-2.943,1.31,4.308,4.308,0,0,1-.434-.022c1.61,4.834,1.563,9.132-.135,12.43a10.89,10.89,0,0,1-3,3.595,15.232,15.232,0,0,1-4.93,2.485l0,.259a2.975,2.975,0,0,1,1.034-.511,55.581,55.581,0,0,0,8.2-3.017,58.8,58.8,0,0,0,7.616-4.223c-.279-4.579-.763-9.229-1.48-14.213-.638-4.439-1.447-9.042-2.473-14.073-1.906-9.344-4.288-18.762-6.592-27.87l-.007-.028c-1.076-4.254-2.189-8.654-3.236-12.979a6.238,6.238,0,0,1-2.106-.738,6.924,6.924,0,0,1-1.7-1.373,9.274,9.274,0,0,1-2.069-3.994,10.532,10.532,0,0,1-.316-2.456,9.493,9.493,0,0,1,.281-2.417,6.937,6.937,0,0,1,2.488-3.914c-.642-2.839-1.215-5.748-1.749-8.893-.477-2.8-.912-5.731-1.332-8.951-.78-5.978-1.384-12.081-1.968-17.984v-.012l-.005-.052c-.329-3.328-.67-6.768-1.038-10.147a4.835,4.835,0,0,1-2.783-1.782,6.13,6.13,0,0,1-.844-1.455,6.868,6.868,0,0,1-.448-1.647,6.761,6.761,0,0,1-.034-1.664,5.9,5.9,0,0,1,.387-1.586,4.7,4.7,0,0,1,2.122-2.422,66.21,66.21,0,0,0-3.339-13.694,57.015,57.015,0,0,0-2.725-6.281,52.653,52.653,0,0,0-3.449-5.827,50.08,50.08,0,0,0-21.336-17.612,30.394,30.394,0,0,1-2.909,7.833,3.344,3.344,0,0,1,.361.041.749.749,0,0,0,.119.161,8.549,8.549,0,0,1,2.038,3.383c.042.28.088.555.127.788a3.211,3.211,0,0,1-.151.318,7.253,7.253,0,0,1,.136,3.331A6.583,6.583,0,0,1,134,41.641a9.756,9.756,0,0,1-4.049,2.938,13.534,13.534,0,0,1-2.561.763,14,14,0,0,1-2.669.26,11.939,11.939,0,0,1-3.088-.388,2.636,2.636,0,0,1-1.934-1.412,30.911,30.911,0,0,1-7.328,2.786,33.1,33.1,0,0,1-7.784.922,34.02,34.02,0,0,1-5.409-.434,33.66,33.66,0,0,1-5.275-1.3,32.525,32.525,0,0,1-5-2.146,31.061,31.061,0,0,1-4.58-2.986,7.765,7.765,0,0,1-3.688.923,8.531,8.531,0,0,1-2.542-.4,9.631,9.631,0,0,1-2.334-1.1,10.062,10.062,0,0,1-1.971-1.657,9.348,9.348,0,0,1-1.453-2.08,8.155,8.155,0,0,1-.685-1.874,7.245,7.245,0,0,1-.177-1.985,7.374,7.374,0,0,1,1.485-4.023l-.364-.481a22.207,22.207,0,0,0-3.637-4.028,6.728,6.728,0,0,0-1.84-1.052,6.017,6.017,0,0,0-2.106-.359,14.013,14.013,0,0,0-5.147,1.254,4.885,4.885,0,0,1,.951,1.909,4.638,4.638,0,0,1-.011,2.232l-.026.1A13.136,13.136,0,0,1,58.8,32.41a14.568,14.568,0,0,1-3.315,3.408,15.075,15.075,0,0,1-8.9,3,13.284,13.284,0,0,1-3.406-.439,12.8,12.8,0,0,1-3.262-1.372,4.616,4.616,0,0,1-1.159.148A4.759,4.759,0,0,1,35.6,35.948a4.265,4.265,0,0,1-1.454-3.024,22.792,22.792,0,0,0-5.123,4.115,26.176,26.176,0,0,0-3.734,5.2,39.025,39.025,0,0,0-4.079,12.215,9.363,9.363,0,0,1,2.194-.819,9.946,9.946,0,0,1,2.291-.265,10.66,10.66,0,0,1,3.02.441,10.823,10.823,0,0,1,2.772,1.263,10.09,10.09,0,0,1,2.286,2,9.179,9.179,0,0,1,1.561,2.639,9.7,9.7,0,0,1,.868,5.079,9.959,9.959,0,0,1-.546,2.379,10.818,10.818,0,0,1-1.078,2.171,11.662,11.662,0,0,1-3.921,3.746,10.251,10.251,0,0,1-5.133,1.441,8.89,8.89,0,0,1-3.516-.719,10.154,10.154,0,0,1-3.3-2.318c-.489,4.675-.912,9.438-1.32,14.045v0c-.521,5.867-1.059,11.933-1.74,17.881-.763,6.672-1.629,12.484-2.646,17.768a7.219,7.219,0,0,1,2.763-2.6,7.665,7.665,0,0,1,3.606-.9,7.229,7.229,0,0,1,2.584.469,6.872,6.872,0,0,1,2.3,1.447,11.718,11.718,0,0,1,3.938,6.871,13.613,13.613,0,0,1,.136,3.862,15.391,15.391,0,0,1-.892,3.778,15.634,15.634,0,0,1-1.767,3.405,13.876,13.876,0,0,1-2.5,2.772,10.276,10.276,0,0,1-6.623,2.547,10.094,10.094,0,0,1-3.48-.636,13.673,13.673,0,0,1-3.622-2.048A137.665,137.665,0,0,0,7.775,153.93c-.315,4.387-.455,9.05-.416,13.859A3.314,3.314,0,0,1,8.549,167.556Zm13.426,49.675a8.111,8.111,0,0,1-4.514-1.3,8.918,8.918,0,0,1-3.831-5.227,13.811,13.811,0,0,1-.188-6.916,11.624,11.624,0,0,1,2.644-5.3,8.265,8.265,0,0,1,2.25-1.755,7.733,7.733,0,0,1,2.84-.846,9.251,9.251,0,0,1,1.337-.1,7.848,7.848,0,0,1,3.061.6,8.087,8.087,0,0,1,2.467,1.64,10.107,10.107,0,0,1,1.831,2.414,12.566,12.566,0,0,1,1.154,2.929,13.3,13.3,0,0,1-.1,7.149,9.305,9.305,0,0,1-6.5,6.379A9.435,9.435,0,0,1,21.975,217.231Zm39.4-6.858a10.876,10.876,0,0,1-5.625-1.61,11.853,11.853,0,0,1-4.059-4.1,10.874,10.874,0,0,1-1.021-2.294,9.888,9.888,0,0,1-.438-2.468,9.339,9.339,0,0,1,.231-2.549,9.762,9.762,0,0,1,.986-2.537,9.721,9.721,0,0,1,3.175-6.372,10.2,10.2,0,0,1,6.743-2.68h.056a11.041,11.041,0,0,1,4.219.792,9.709,9.709,0,0,1,3.193,2.133,11.079,11.079,0,0,1,2.161,3.109,13.517,13.517,0,0,1,1.124,3.718,15,15,0,0,1,.019,4.446,14,14,0,0,1-1.3,4.236,11.668,11.668,0,0,1-2.633,3.507,10.714,10.714,0,0,1-3.971,2.262A10.333,10.333,0,0,1,61.373,210.373Zm49.219-5.1a10.426,10.426,0,0,1-5.244-1.426,9.6,9.6,0,0,1-3.245-3.176,10.424,10.424,0,0,1-.976-2.006,11.043,11.043,0,0,1-.539-2.165,11.309,11.309,0,0,1,.316-4.708,10.586,10.586,0,0,1,.911-2.2,10.04,10.04,0,0,1,1.418-1.961,11,11,0,0,1,3.355-6.344,10.719,10.719,0,0,1,3.034-2.058,8.623,8.623,0,0,1,3.523-.776,7.912,7.912,0,0,1,1.991.255,7.229,7.229,0,0,1,1.759.693,7.3,7.3,0,0,1,1.442,1.06,10.019,10.019,0,0,1,2.09,2.927,19.957,19.957,0,0,1,1.3,3.515c.333,1.2.587,2.4.818,3.518a10.862,10.862,0,0,1,.262,2.711,11.462,11.462,0,0,1-.391,2.635,12.487,12.487,0,0,1-.961,2.474,13.476,13.476,0,0,1-5.649,5.71,11.878,11.878,0,0,1-2.525.979A10.736,10.736,0,0,1,110.592,205.277Zm27.484-27.95a10.028,10.028,0,0,1-3.757-.728,10.841,10.841,0,0,1-3.146-1.959,12.161,12.161,0,0,1-3.742-6.269,10.863,10.863,0,0,1-.271-3.275,9.576,9.576,0,0,1,2.775-6.112,12.233,12.233,0,0,1,3.308-2.347,7.484,7.484,0,0,1,3.044-2.665,9.212,9.212,0,0,1,4.058-.941,8.463,8.463,0,0,1,2.445.352,9.189,9.189,0,0,1,2.706,1.372,9.02,9.02,0,0,1,1.991,2.049,10.546,10.546,0,0,1,1.308,2.553,13.012,13.012,0,0,1,.656,2.884,16.011,16.011,0,0,1-1.133,7.836,13.7,13.7,0,0,1-1.979,3.36,10.556,10.556,0,0,1-2.827,2.475A11.749,11.749,0,0,1,138.076,177.327Zm-54.1-1.431a10.73,10.73,0,0,1-4.109-.844,15.121,15.121,0,0,1-4.252-2.743,8.289,8.289,0,0,1-3.9-6.881,12.99,12.99,0,0,1,.231-2.762,13.718,13.718,0,0,1,.784-2.624A14.193,14.193,0,0,1,74,157.64a14.039,14.039,0,0,1,1.685-2.095,12.655,12.655,0,0,1,3.774-2.685,10.681,10.681,0,0,1,4.476-1,10.97,10.97,0,0,1,5.57,1.568,14.138,14.138,0,0,1,3.33,3.039,11.609,11.609,0,0,1,1.877,3.475,11.472,11.472,0,0,1,.585,3.66,12.444,12.444,0,0,1-.544,3.593,13.161,13.161,0,0,1-1.584,3.386,12.636,12.636,0,0,1-2.444,2.765,11.117,11.117,0,0,1-3.123,1.865A9.98,9.98,0,0,1,83.976,175.9ZM62.43,146.828a10.7,10.7,0,0,1-4.67-1.052,9.281,9.281,0,0,1-2-1.317,8.658,8.658,0,0,1-1.607-1.845,12.048,12.048,0,0,1-1.472-3.242,12.273,12.273,0,0,1-.465-3.358,13.022,13.022,0,0,1,.423-3.282,13.259,13.259,0,0,1,1.192-3.013,11.682,11.682,0,0,1,3.6-4.059,9.282,9.282,0,0,1,2.349-1.167,8.38,8.38,0,0,1,2.608-.418,9.045,9.045,0,0,1,3.522.739,13.039,13.039,0,0,1,3.643,2.39,9.427,9.427,0,0,1,2.065,3.308,13.3,13.3,0,0,1,.8,3.96,16.524,16.524,0,0,1-1.484,7.8,8.6,8.6,0,0,1-1.6,1.993,9.2,9.2,0,0,1-2.05,1.425A10.673,10.673,0,0,1,62.43,146.828Zm46.52-.832c-.233,0-.472-.007-.708-.022a10.744,10.744,0,0,1-3.367-.78,10.225,10.225,0,0,1-2.74-1.687,12.344,12.344,0,0,1-3.522-5.293,15.254,15.254,0,0,1-.6-7.79,13.289,13.289,0,0,1,1.253-3.685,11.249,11.249,0,0,1,2.333-3.086,12.793,12.793,0,0,1,8.751-3.5,11.646,11.646,0,0,1,2.649.3,10.6,10.6,0,0,1,2.489.918,10,10,0,0,1,2.2,1.559,10.371,10.371,0,0,1,1.794,2.223,13.115,13.115,0,0,1,1.62,7.237,16.4,16.4,0,0,1-.645,3.811,16.2,16.2,0,0,1-1.512,3.552,14.359,14.359,0,0,1-1.817,2.5,12.25,12.25,0,0,1-2.3,1.976,10.752,10.752,0,0,1-2.74,1.3A10.631,10.631,0,0,1,108.949,146ZM83.4,111.594a10.75,10.75,0,0,1-4.2-.878,15.114,15.114,0,0,1-4.326-2.872,11.593,11.593,0,0,1-2.051-2.8,10.2,10.2,0,0,1-1-2.99,10.689,10.689,0,0,1,.733-5.912,11.925,11.925,0,0,1,1.711-2.858,12.062,12.062,0,0,1,2.457-2.3A11.383,11.383,0,0,1,83.3,88.884a12.136,12.136,0,0,1,3.377.49A15.248,15.248,0,0,1,90.9,91.661a10.626,10.626,0,0,1,2.624,2.969,9.989,9.989,0,0,1,1.149,6.886,12.348,12.348,0,0,1-1.359,3.8,12.93,12.93,0,0,1-2.5,3.216,11.661,11.661,0,0,1-3.387,2.226A10.214,10.214,0,0,1,83.4,111.594Zm44.543-.629a9.172,9.172,0,0,1-4.552-1.17,10.776,10.776,0,0,1-3.848-3.83,14.217,14.217,0,0,1-1.33-3.295,11.911,11.911,0,0,1-.387-3.155,11.151,11.151,0,0,1,.435-2.931,11.319,11.319,0,0,1,1.136-2.625,11.961,11.961,0,0,1,4.246-4.21,11.37,11.37,0,0,1,5.728-1.587,10.568,10.568,0,0,1,2.541.31,10.805,10.805,0,0,1,2.5.968,13.392,13.392,0,0,1,4.552,4.153,10.085,10.085,0,0,1,1.5,5.49,10.245,10.245,0,0,1-.417,2.641,11.62,11.62,0,0,1-1.051,2.463,13.308,13.308,0,0,1-2.058,2.72,14.173,14.173,0,0,1-2.674,2.145,13.215,13.215,0,0,1-3.075,1.407A11.112,11.112,0,0,1,127.947,110.964ZM105.832,74.31a10.57,10.57,0,0,1-5.2-1.377,15.056,15.056,0,0,1-4.862-4.544A14.166,14.166,0,0,1,94.367,65a12.651,12.651,0,0,1-.431-3.339,12.15,12.15,0,0,1,1.64-6.017,11.882,11.882,0,0,1,4.14-4.216,11.308,11.308,0,0,1,5.843-1.616,12.3,12.3,0,0,1,3.193.431,14.634,14.634,0,0,1,3.314,1.364,16.312,16.312,0,0,1,3.48,3.175,11.929,11.929,0,0,1,1.958,3.459,10.7,10.7,0,0,1,.622,3.55,11.379,11.379,0,0,1-.528,3.448,13.361,13.361,0,0,1-4.486,6.426,12.706,12.706,0,0,1-3.427,1.936A11.043,11.043,0,0,1,105.832,74.31Z" transform="translate(74.097 -0.948)"/>
    </g>
    <g id="Head" transform="translate(95.946 42.662)">
      <g id="HEAD-2" data-name="HEAD">
        <path id="_Skin-2" data-name="âœ‹ Skin" d="M59.909,0C70.519,0,83.25,5.144,84.332,5.247l.029,0q.854,0,6.675,5.086l-4.2,8.2.34.325c1.628,1.561,3.017,2.983,4.114,4.1,8.956,9.157,10.566,45.109,8.455,57.646s-6.02,24.806-24.22,24.806S37.074,94.471,33.955,91.063A8.856,8.856,0,0,0,26.948,87.8l-.317-.4-.381-.054a23.6,23.6,0,0,1-7.711-2.1C15.5,83.527,12.169,74.5,12.169,72.513c0-1.968-4.98-16.287-5.079-17.8l0-.042C7.088,53.4.583,47.58.583,45.731s-1.311-1.737,0-8.253l.381-1.914c1.4-6.938,4.127-18.426,14.54-23.418C26.948,6.66,49.192,0,59.909,0Z" transform="translate(-1.894 13.914)" fill="#d08b5b"/>
        <path id="_Hat" data-name="ðŸ§¢ Hat" d="M26.948,87.8l-.317-.4-.381-.054a23.607,23.607,0,0,1-7.711-2.1C15.5,83.527,12.169,74.5,12.169,72.513c0-1.968-4.98-16.287-5.079-17.8V54.67c0-1.267-6.506-7.09-6.506-8.939s-1.311-1.737,0-8.253l.381-1.914c1.4-6.938,4.127-18.426,14.54-23.418C26.948,6.66,49.192,0,59.909,0,70.52,0,83.25,5.144,84.332,5.247h.029q.854,0,6.675,5.086l-.986,1.923c-12.817.374-33.893,1.518-43.093,5.01C33.278,22.46,29.782,56.72,29.782,56.72a58.64,58.64,0,0,0-9.559,5.959c-4.779,3.7-2.42,3.817-2.42,3.817s-.206,7.919,1.267,11.061,10.2,3.7,10.2,3.7L30.744,86.2l-.2,2.293A7.935,7.935,0,0,0,26.948,87.8Z" transform="translate(-1.896 13.984)" fill="#9ddadb"/>
        <path id="_Ink-2" data-name="ðŸ– Ink" d="M74.6,110.459a25.46,25.46,0,0,1-8.686-1.53,25.9,25.9,0,0,1-8.064-4.732,9.192,9.192,0,0,0-.87-.792c-.717-.608-1.608-1.364-1.543-1.721a.228.228,0,0,1,.169-.167c.235.249.49.505.78.785a.151.151,0,0,1-.009-.088l-.25-.226c-.507-.469-.74-.77-.692-.893.017-.043.069-.065.155-.065a.889.889,0,0,1,.152.016c.018.021.036.039.056.059l.041.043a3.4,3.4,0,0,1,.344.232l.045.036-.014-.014c-.279-.3-.434-.546-.4-.634.011-.024.036-.037.075-.037a.765.765,0,0,1,.279.088l.079.038c.255.268.52.533.811.808a.156.156,0,0,1,.017-.095l-.256-.248c-.229-.224-.216-.244-.119-.4v0l.028-.044c-.128-.179-.178-.306-.147-.368a.092.092,0,0,1,.09-.042.8.8,0,0,1,.587.4.476.476,0,0,1,.109-.013c.344,0,.663.371.944.7a1.682,1.682,0,0,0,.514.475,26.538,26.538,0,0,0,7.3,4.016,22.9,22.9,0,0,0,7.662,1.339,22,22,0,0,0,8.74-1.811,24.887,24.887,0,0,0,7.856-5.434,31.3,31.3,0,0,0,4.547-5.911,40.136,40.136,0,0,0,3.517-7.663A61.707,61.707,0,0,0,101.4,65.974l-.006-.735c-.034-3.349-.133-6.307-.305-9.045-.2-3.248-.507-6.192-.927-9a74.3,74.3,0,0,0-1.836-8.787A56.619,56.619,0,0,0,95.294,30a31.368,31.368,0,0,0-1.618-3.053c-.416-.75-.86-1.477-1.32-2.161a19.64,19.64,0,0,1-3.908-.723c-.479-.121-.908-.245-1.313-.379-3.648.2-7.315.412-10.861.618h0c-2.649.154-5.388.313-8.121.466l-2,.124a51.475,51.475,0,0,0-8.079,1,18.525,18.525,0,0,0-7.3,3.251,8.706,8.706,0,0,0-1.512,1.371A11.269,11.269,0,0,0,48.1,32.126a29.325,29.325,0,0,0-1.754,3.607,33.574,33.574,0,0,1-1.477,3.127,10.559,10.559,0,0,1-2.062,2.688,15.678,15.678,0,0,0-2.8,2.357,10.115,10.115,0,0,0-1.655,2.412,21.194,21.194,0,0,0-1.529,5.628v0c-.092.509-.187,1.035-.292,1.584a22.6,22.6,0,0,0,.392,3.2,15.34,15.34,0,0,1,.322,4.856,4.027,4.027,0,0,1-.85,1.95,3.8,3.8,0,0,1-.858.755,5.281,5.281,0,0,1-1.215.569c.3.435.327.607.292.675a.094.094,0,0,1-.092.046.869.869,0,0,1-.626-.517h0a.106.106,0,0,1-.022,0c.268.5.282.672.247.731a.06.06,0,0,1-.056.029c-.166,0-.585-.42-.644-.691a.429.429,0,0,1-.178-.119c.252.407.268.558.238.613a.07.07,0,0,1-.067.034.944.944,0,0,1-.515-.356c-.045-.062-.063-.112-.052-.145a4.7,4.7,0,0,0-2.088-1.746,6.518,6.518,0,0,0-2.613-.522,7.2,7.2,0,0,0-1.921.258.1.1,0,0,1-.1.071.137.137,0,0,1-.08-.026,6.67,6.67,0,0,0-4.663,3.9,11.035,11.035,0,0,0-.924,3.183,14.067,14.067,0,0,0-.05,3.461,12.078,12.078,0,0,0,2.15,5.894,5.924,5.924,0,0,0,4.812,2.593,6.473,6.473,0,0,0,1.237-.123.882.882,0,0,1,.173-.02.268.268,0,0,1,.24.1.111.111,0,0,0,.054.044c-.054-.143-.061-.246-.019-.306a.148.148,0,0,1,.129-.057.39.39,0,0,1,.25.1.07.07,0,0,1,.024.048l.037,0,.018,0h.005l.012,0h0c-.036-.2-.033-.327.01-.378a.07.07,0,0,1,.056-.026c.211,0,.729.729.8.941.009.027.01.043,0,.049a.3.3,0,0,1,.112-.038l-.04-.109c-.073-.194-.116-.284-.141-.338a.294.294,0,0,1-.035-.193c0-.019,0-.04,0-.066a1.762,1.762,0,0,0-.111-.238c-.032-.057-.032-.057-.016-.166l0-.011,0-.028a.326.326,0,0,1,.2-.08c.228,0,.363.358.471.646.061.161.113.3.166.327a.5.5,0,0,1-.106-.494.167.167,0,0,1,.151-.1.281.281,0,0,1,.171.071,45.763,45.763,0,0,0,3.616,6.322A33.409,33.409,0,0,0,39.5,93.582c.315.249.733.573,1.168.877a16.029,16.029,0,0,0,2.768,1.777,15.854,15.854,0,0,1,2.385,1.494.139.139,0,0,1-.023.067l.032.029.032.031.483.232a2.6,2.6,0,0,1,.384.405,2.665,2.665,0,0,1,.318.458.226.226,0,0,1-.019.19.115.115,0,0,1-.095.04.327.327,0,0,1-.13-.033c-.055-.019-.11-.04-.164-.06h0l-.084-.032,0,.006a.052.052,0,0,0,.008.01c.024.037.134.3.089.379a.051.051,0,0,1-.049.027.135.135,0,0,1-.041-.008l-.025-.01c-.087-.032-.173-.066-.257-.1l-.089-.035c.105.131.2.273.293.4l0,0,.072.1a.807.807,0,0,1,.216.424c0,.078-.043.118-.114.118l-.03,0c-.133-.043-.266-.09-.408-.142l.038.074c.074.146.154.333.115.4a.05.05,0,0,1-.046.022.21.21,0,0,1-.079-.021c-.188-.058-.386-.13-.6-.218a.054.054,0,0,1-.051.032.161.161,0,0,1-.065-.018,12.212,12.212,0,0,1-1.829-.825c-.31-.226-.627-.452-.934-.672l-.616-.442a11.981,11.981,0,0,1-1.4-.981,30.557,30.557,0,0,1-7.7-7.134,5.943,5.943,0,0,1-4.012,1.3A16.821,16.821,0,0,1,23.48,90.59,37.514,37.514,0,0,1,18.3,88.216a9.924,9.924,0,0,1-2.441-1.895,10.533,10.533,0,0,1-1.687-2.427,13.772,13.772,0,0,1-1.046-2.82A19.659,19.659,0,0,1,12.611,78a11.894,11.894,0,0,0-.749-2.763c-.339-.856-.748-1.672-1.181-2.536a28.258,28.258,0,0,1-2.249-5.53,31.691,31.691,0,0,1-.93-9.193.074.074,0,0,1-.024,0,2.419,2.419,0,0,1-.486-.2,2.423,2.423,0,0,1-.448-.275l-.173-.239a1.469,1.469,0,0,1-.232-.154l-.032.041c-.023.027-.039.041-.047.041a.006.006,0,0,1-.005,0c-.009-.012.005-.063.016-.1,0-.015.008-.029.009-.036l-.3-.409c-.4-.548-.824-1.133-1.233-1.7h0c-.318-.439-.618-.855-.9-1.238l-.02.035c-.014.026-.021.044-.016.054A25.435,25.435,0,0,1,1.525,50.26,13.982,13.982,0,0,1,.277,46.445,10.916,10.916,0,0,1,.01,43.491,15.925,15.925,0,0,1,.4,40.646,79.876,79.876,0,0,1,5.734,27.108a60.052,60.052,0,0,1,4.393-7.477A29.577,29.577,0,0,1,15.4,13.714a13.505,13.505,0,0,1,2.908-2.167A42.822,42.822,0,0,1,22.9,9.253,105.235,105.235,0,0,1,35.649,4.8,141.915,141.915,0,0,1,50.659,1.37C53.242.932,55.738.593,58.078.364,60.541.122,62.851,0,64.943,0A41.618,41.618,0,0,1,69.9.271l.492.064a29.111,29.111,0,0,1,3.87.758A32.855,32.855,0,0,1,86.021,5.938c.572.4,1.382.847,2.319,1.363a25.96,25.96,0,0,1,5.577,3.735,7.52,7.52,0,0,1,.982,1.173,4.668,4.668,0,0,1,.607,1.278,3.627,3.627,0,0,1,.126,1.386,4.309,4.309,0,0,1-.461,1.5,8.887,8.887,0,0,1,.956,2.994,6.424,6.424,0,0,1-.274,2.973,7.016,7.016,0,0,1-.526,1.813,52.734,52.734,0,0,1,5.083,9.888,113.715,113.715,0,0,1,2.8,12.713,97.258,97.258,0,0,1,1.207,12.84,112.341,112.341,0,0,1-.087,12.538c-.149,2.206-.378,4.346-.681,6.36a61.315,61.315,0,0,1-1.26,6.233,48.327,48.327,0,0,1-1.953,5.965,39.145,39.145,0,0,1-2.762,5.556,33.6,33.6,0,0,1-3.687,5.006,31.7,31.7,0,0,1-4.726,4.316,22.816,22.816,0,0,1-6.854,3.642A24.73,24.73,0,0,1,74.6,110.459Zm-18.165-8.838h0l.084.1a.706.706,0,0,0,.161.152.131.131,0,0,1,0-.052c-.048-.037-.1-.077-.148-.12ZM10.72,41.036a65.373,65.373,0,0,1-.1,8.8c-.1,1.69-.2,3.437-.2,5.17a35.015,35.015,0,0,0,.353,5.311,28.645,28.645,0,0,0,1.46,5.707,35.812,35.812,0,0,0,3.117,6.357,15.807,15.807,0,0,1,1.725,5.566,20.084,20.084,0,0,0,.477,2.33,6.6,6.6,0,0,0,.995,2.1c1.058,1.459,2.892,2.585,5.772,3.541l.257.1a20.069,20.069,0,0,0,2.345.744,10.015,10.015,0,0,0,2.368.313,6.5,6.5,0,0,0,1.365-.139l-.174-.282c-.116-.191-.17-.305-.143-.4.018-.061.072-.111.17-.158,0-.009-.01-.019-.016-.028l-.01-.017c-.217-.409-.419-.811-.6-1.195-.063.021-.125.037-.191.054l-.046.012a.177.177,0,0,1,.025.154.15.15,0,0,1-.113.073,4.14,4.14,0,0,1-1.347.225c-.086,0-.174,0-.261-.008l-.118-.009a5.407,5.407,0,0,1-1.361-.256l-.015,0c-.109-.018-.222-.036-.331-.059a8.036,8.036,0,0,1-3.085-1.512,10.513,10.513,0,0,1-3.051-2.64,12.83,12.83,0,0,1-1.967-3.561,15.8,15.8,0,0,1-.667-8.222,12.494,12.494,0,0,1,2.789-6,9.551,9.551,0,0,1,2.54-2.054,9.75,9.75,0,0,1,3.307-1.1,56.587,56.587,0,0,1,1.055-9.159A83.256,83.256,0,0,1,29.779,40.3a75.617,75.617,0,0,1,4.278-10.395,47.806,47.806,0,0,1,5.677-8.876c3.085-3.79,8.557-6.97,15.824-9.2A69.873,69.873,0,0,1,66.072,9.523,75.326,75.326,0,0,1,76.716,8.75c2.072,0,4.077.094,5.959.28l.633.212a19.246,19.246,0,0,1,3.919.92c.874.27,1.776.55,2.684.737A15.747,15.747,0,0,0,87.36,9.36a27.612,27.612,0,0,0-2.754-1.148,29.641,29.641,0,0,0-5.933-2.729,52.854,52.854,0,0,0-6.234-1.668,12.036,12.036,0,0,0-2.612-.346c-1.621-.139-3.3-.21-4.986-.21a76.616,76.616,0,0,0-13.98,1.389c-3.99.737-8.213,1.748-13.693,3.279l-.732.211c-.593.169-1.193.338-1.773.5C29.19,10.176,23.53,11.766,18.93,15.091a27.192,27.192,0,0,0-2.515,2.189,30.785,30.785,0,0,0-2.227,2.446,39.913,39.913,0,0,0-3.729,5.479c-1,1.748-1.983,3.7-3,5.959-.947,2.115-1.809,4.244-2.541,6.074a15.149,15.149,0,0,0-1.33,4.555,14.813,14.813,0,0,0,1.562,8.722A14.221,14.221,0,0,0,7.774,54.06a67.9,67.9,0,0,1,2.359-12.119,2.949,2.949,0,0,0,.138-.469c.061-.27.086-.382.448-.437ZM36.444,76.311c-.15,0-.5-.3-.764-.557a.319.319,0,0,1-.024.238.084.084,0,0,1-.067.028c-.126,0-.366-.183-.735-.56-.123-.126-.239-.251-.332-.352a1.674,1.674,0,0,0-.2-.208,23.363,23.363,0,0,0-4.449-2.721,14.991,14.991,0,0,0-4.929-1.433l-.109-.012c-.4-.051-.615-.142-.689-.286a.356.356,0,0,1,.039-.339,1.059,1.059,0,0,1-.4-.164c-.093-.072-.106-.137-.1-.18.011-.1.126-.166.273-.166h.016c-.175-.115-.253-.242-.218-.358a.328.328,0,0,1,.32-.193.357.357,0,0,1,.14.027.274.274,0,0,1-.007-.245.216.216,0,0,1,.189-.068,1.426,1.426,0,0,1,.25.031l.034.006a1.078,1.078,0,0,0,.167.024.062.062,0,0,0,.044-.011c.142-.22.264-.327.372-.327a.2.2,0,0,1,.118.044l.018.013h0a.115.115,0,0,0,.056.03c.014,0,.025-.011.034-.033a.974.974,0,0,1,.416-.147.212.212,0,0,1,.118.032l.016.01a.1.1,0,0,0,.053.022.084.084,0,0,0,.046-.017c.181-.015.366-.022.551-.022a8.687,8.687,0,0,1,3.023.589,14.035,14.035,0,0,1,2.893,1.516,19.442,19.442,0,0,1,2.558,2.064,19.656,19.656,0,0,1,2.017,2.233.129.129,0,0,1-.1.039c-.2,0-.524-.344-.646-.474l0,0-.028-.029a.108.108,0,0,1-.04.026l.065.092c.2.29.29.465.261.521a.039.039,0,0,1-.038.019,2.148,2.148,0,0,1-.7-.467,3.656,3.656,0,0,1-.63-.643.152.152,0,0,1-.073.021l-.024,0c.025.025.059.056.1.093h0a2.2,2.2,0,0,1,.583.705l.121.1c.551.472.837.912.786,1.049a.061.061,0,0,1-.065.039c-.16,0-.523-.286-.97-.765a.206.206,0,0,1,.021.171l.045.03c.359.251.7.776.653.929A.055.055,0,0,1,36.444,76.311ZM22.9,39.3a1.135,1.135,0,0,1-.576-.149l-.855-.574c-1.388-.929-2.771-1.838-4.429-2.74a1.356,1.356,0,0,1-.857-1.087.76.76,0,0,1,.536-.663,2.878,2.878,0,0,1,.976-.143,8.8,8.8,0,0,1,5.83,2.529,2.439,2.439,0,0,1,.669,2A1.443,1.443,0,0,1,22.9,39.3Zm7.214-8.879a3.289,3.289,0,0,1-1.954-.676l-.777-.505c-1.622-1.062-2.848-1.907-3.748-2.583-1.228-.923-1.815-1.511-1.744-1.748.024-.082.127-.123.305-.123.694,0,2.571.624,5.579,1.855.276.118.566.223.873.334A4.487,4.487,0,0,1,31.214,28.6a1.362,1.362,0,0,1,.1,1.319A1.344,1.344,0,0,1,30.11,30.426Zm6.262-9.035a2.226,2.226,0,0,1-1.132-.321,48.707,48.707,0,0,0-4.373-2.448c-.743-.383-1.511-.778-2.239-1.18a.358.358,0,0,1,.04-.322.769.769,0,0,1,.615-.183,17.329,17.329,0,0,1,4.044,1l.367.121.186.07.355.131.007,0A5.664,5.664,0,0,1,37.131,20a1,1,0,0,1,.143,1A.991.991,0,0,1,36.372,21.391Zm7.652-7.419a6.1,6.1,0,0,1-3.5-1.6c-.409-.3-.831-.615-1.258-.874-.415-.454-.585-.777-.5-.962.054-.122.218-.184.487-.184a14.429,14.429,0,0,1,4.908,1.722l.027.02A1.105,1.105,0,0,1,44.65,13.1a1.044,1.044,0,0,1-.562.867ZM52.455,9.9a2.535,2.535,0,0,1-1.048-.274,6.619,6.619,0,0,1-1.42-.945,7.608,7.608,0,0,1-1.109-.923c-.2-.223-.29-.395-.253-.51s.19-.171.455-.171a9.995,9.995,0,0,1,3.808,1.247,1.043,1.043,0,0,1,.4,1.1A.815.815,0,0,1,52.455,9.9Z" transform="translate(-3.555 12.087)"/>
      </g>
      <g id="FACIAL_HAIR" data-name="FACIAL HAIR" transform="translate(29.211 80.109)">
        <path id="_Ink-3" data-name="ðŸ– Ink" d="M48.2,44.084h0c-1.946,0-3.888-.188-5.6-.354A63.678,63.678,0,0,1,28.43,40.636c-2.149-.723-4.365-1.584-6.776-2.631-.329-.143-.667-.287-.993-.427A46.269,46.269,0,0,1,15.1,34.9a21.43,21.43,0,0,1-4.036-3.486l0,0c-.217-.221-.442-.45-.66-.669a73.639,73.639,0,0,1-6.437-7.177,23.209,23.209,0,0,1-2.339-3.55A13,13,0,0,1,.31,15.994C-.405,11.34.256,6.481.895,1.783c.05-.37.1-.752.153-1.128a.205.205,0,0,1,.2-.166.12.12,0,0,1,.121.087c0-.077-.008-.158-.014-.263A.288.288,0,0,1,1.428.1.329.329,0,0,1,1.666,0a.322.322,0,0,1,.319.227A28.039,28.039,0,0,0,8.2,11.263a34.164,34.164,0,0,0,2.9,2.773c.954.817,1.986,1.623,3.153,2.464,2.168,1.562,4.483,3.007,6.722,4.405l0,0c.465.29.946.591,1.418.887a1.2,1.2,0,0,1,.588-.313,13.208,13.208,0,0,1,2.125-4.61,20.492,20.492,0,0,1,3.358-3.714A28.1,28.1,0,0,1,46.4,6.534a23.7,23.7,0,0,1,4.445.412,20.648,20.648,0,0,1,4.226,1.28,18.328,18.328,0,0,1,4.949,3.141A18.533,18.533,0,0,1,63.74,15.9a19.389,19.389,0,0,1,1.513,3.253c.183.514,1.613,6.264.712,9.559a24.57,24.57,0,0,1-1.788,4.6,28.326,28.326,0,0,1-2.624,4.2A16.143,16.143,0,0,1,54.6,43.061a14.272,14.272,0,0,1-3.116.8A22.357,22.357,0,0,1,48.2,44.084ZM45.441,12.82a26.751,26.751,0,0,0-6.531.734,17.016,17.016,0,0,0-6.566,3.271,15.705,15.705,0,0,0-2.542,2.6,14.5,14.5,0,0,0-1.843,3.134,8.346,8.346,0,0,0,.075,2.958,22.079,22.079,0,0,0,5.711,2.887,19.959,19.959,0,0,0,6.3,1.039,18.8,18.8,0,0,0,2.164-.125c.335-.415.676-.889,1.036-1.391a21.031,21.031,0,0,1,2.172-2.7,4.963,4.963,0,0,1,2.741-1.55,3.785,3.785,0,0,1,.54-.04,4.1,4.1,0,0,1,2.25.728,14.555,14.555,0,0,1,1.937,1.6,12.766,12.766,0,0,0,2.225,1.783c.121.069.259.14.421.218A8.743,8.743,0,0,0,59.81,26.64,4.278,4.278,0,0,0,61.218,25.1a6.041,6.041,0,0,0,.609-1.926c-.065-.262-.136-.529-.212-.795a20.51,20.51,0,0,0-.982-2.719,15.072,15.072,0,0,0-1.418-2.515,9.6,9.6,0,0,0-1.63-1.807,7.392,7.392,0,0,0-2.073-1.259,19.506,19.506,0,0,0-5.292-.994l-.422-.04C48.214,12.9,46.789,12.82,45.441,12.82Z" transform="translate(-0.001 0)"/>
      </g>
      <g id="FACE" transform="translate(37.761 44.084)">
        <path id="_Ink-4" data-name="ðŸ– Ink" d="M25.657,45.461a9.063,9.063,0,0,1-3.431-.684,9.7,9.7,0,0,1-2.239-1.284,9.528,9.528,0,0,1-1.823-1.835,1.877,1.877,0,0,1-.38-1.455,2.1,2.1,0,0,1,.818-1.315,2.018,2.018,0,0,1,1.2-.417,1.744,1.744,0,0,1,.268.021,1.853,1.853,0,0,1,1.24.818l.073.1a6.4,6.4,0,0,0,2.345,1.964,5.334,5.334,0,0,0,2.326.542,5.164,5.164,0,0,0,.576-.032,6.066,6.066,0,0,0,2.561-.9,11.986,11.986,0,0,0,2.169-1.807c.155-.158.32-.33.533-.557a.844.844,0,0,1,.442-.34.908.908,0,0,1,.288-.046.978.978,0,0,1,.322.055.967.967,0,0,1,.48.363.892.892,0,0,1,.152.588,5.387,5.387,0,0,1-.641,2.09,6.979,6.979,0,0,1-1.371,1.757,8.815,8.815,0,0,1-2.077,1.445,8.659,8.659,0,0,1-2.3.789A8.505,8.505,0,0,1,25.657,45.461Zm2.415-13.648h0a8.305,8.305,0,0,1-2.956-.595,14.94,14.94,0,0,1-3.477-1.969,1.333,1.333,0,0,1-.485-.77,1.592,1.592,0,0,1,.069-.865,1.967,1.967,0,0,1,.585-.844,1.427,1.427,0,0,1,.912-.355,1.3,1.3,0,0,1,.706.216l.235.181,0,0a18.824,18.824,0,0,0,2.176,1.51,5.369,5.369,0,0,0,2.609.83,2.822,2.822,0,0,0,1.1-.216,3.08,3.08,0,0,0,1.026-.726,3.137,3.137,0,0,0,.6-2.529,4.774,4.774,0,0,0-1.27-2.243,9.26,9.26,0,0,0-1.923-1.549.594.594,0,0,1-.161-.684.893.893,0,0,1,.3-.426.911.911,0,0,1,.568-.187,1.212,1.212,0,0,1,.2.018,6.458,6.458,0,0,1,2.268.818,5.141,5.141,0,0,1,1.525,1.4,5.568,5.568,0,0,1,.974,3.725,6.128,6.128,0,0,1-.5,1.955,5.7,5.7,0,0,1-1.124,1.68A5.379,5.379,0,0,1,28.072,31.813ZM8.835,18.486A1.979,1.979,0,0,1,6.917,16.73a14.215,14.215,0,0,1,.076-3.709c.045-.36.091-.733.124-1.135A2.219,2.219,0,0,1,7.959,10.3a2.6,2.6,0,0,1,1.6-.561,1.972,1.972,0,0,1,1.208.379,1.787,1.787,0,0,1,.667,1.185,9.934,9.934,0,0,1-1.041,6.133,1.969,1.969,0,0,1-.7.8A1.607,1.607,0,0,1,8.835,18.486Zm28.237-.841a1.7,1.7,0,0,1-1.33-.569,5.182,5.182,0,0,1-.812-1.375,5.978,5.978,0,0,1-.413-1.656,3.506,3.506,0,0,1,.959-3.013,1.987,1.987,0,0,1,.154-.234,2.174,2.174,0,0,1,1.672-.96,1.815,1.815,0,0,1,.508.075,2.443,2.443,0,0,1,1.633,1.422,5.02,5.02,0,0,1,.2,2.751,9.2,9.2,0,0,1-.836,2.6,1.686,1.686,0,0,1-.722.712A2.193,2.193,0,0,1,37.072,17.645ZM.312,8.807A.308.308,0,0,1,.056,8.65a.343.343,0,0,1-.021-.337A11.7,11.7,0,0,1,2.662,4.995,16.241,16.241,0,0,1,6.177,2.6a15.138,15.138,0,0,1,4.175-1.453l.446-.078A10.884,10.884,0,0,1,12.62.87a2.818,2.818,0,0,1,2.248.837,1.9,1.9,0,0,1,.452,1.354,1.24,1.24,0,0,1-.452.885,3.468,3.468,0,0,1-2.374.695c-.187,0-.381,0-.568-.009H11.92c-.18,0-.384-.01-.586-.01-.186,0-.353,0-.508.013a16.081,16.081,0,0,0-3.534.6A24.028,24.028,0,0,0,.477,8.754.293.293,0,0,1,.312,8.807ZM43.306,7.012h0l-.188-.047a10.648,10.648,0,0,1-2.061-.8l-.669-.329A18.614,18.614,0,0,0,38,4.817a28.262,28.262,0,0,0-5.446-1.2A2.228,2.228,0,0,1,31.458,3.2a1.634,1.634,0,0,1-.611-.929A1.659,1.659,0,0,1,31.035.882,1.776,1.776,0,0,1,31.9.14,1.943,1.943,0,0,1,32.633,0a2.169,2.169,0,0,1,.424.042l.341.07A24.407,24.407,0,0,1,39.28,2.019a11.9,11.9,0,0,1,2.587,1.7A7.537,7.537,0,0,1,43.7,6.075c.064.493,0,.615-.062.7l-.019.024-.017.023a.473.473,0,0,1-.292.194Z" transform="translate(12.587 12.325)"/>
      </g>
      <g id="ACCESORIES" transform="translate(11.162 57.119)">
        <path id="_Ink-5" data-name="ðŸ– Ink" d="M50.916,28.484h0a14.089,14.089,0,0,1-2.875-.3,14.676,14.676,0,0,1-5.3-2.268,14.275,14.275,0,0,1-2.215-1.881,13.357,13.357,0,0,1-2.828-4.42,13.608,13.608,0,0,1-.89-5.574,1.969,1.969,0,0,1-1.326-.721,3.846,3.846,0,0,1-.536-1.232c-.35-1.141-.746-2.433-3.4-2.873a5.158,5.158,0,0,1-2.208-1.466A60.769,60.769,0,0,0,22.9,7.388a46.793,46.793,0,0,0-7.332.559A40.3,40.3,0,0,0,8.321,9.8c-.421.176-.868.339-1.3.5a15.412,15.412,0,0,0-2.2.93,3.2,3.2,0,0,0-1.445,1.42,3.568,3.568,0,0,0,.179,2.813A1.417,1.417,0,0,1,2.164,16.8a1.193,1.193,0,0,1-.868-.373s0,0,0,0v0A9.76,9.76,0,0,1,.045,13.006a4.435,4.435,0,0,1,.368-2.55c.69-1.415,2.24-2.5,4.741-3.315a47.686,47.686,0,0,1,7.063-1.482l.069-.011.375-.059a47.74,47.74,0,0,1,10.02-1.046c.349,0,.7,0,1.055.011.43.018.884.025,1.365.032h0a15.97,15.97,0,0,1,4.138.4l.018,0a3.181,3.181,0,0,1,1.828-1.561,18.374,18.374,0,0,1,3.9-1.185,47.108,47.108,0,0,1,5.323-.753c1.964-.175,4.013-.264,6.089-.264a65.092,65.092,0,0,1,6.652.327,40.137,40.137,0,0,1,5.968,1.028,15.887,15.887,0,0,1,4.473,1.8,4.526,4.526,0,0,1,2.165,2.641c.121,0,.243,0,.362,0,.742,0,1.449.058,2.018.1l.079.006c.615.05,1.195.1,1.776.1a7.059,7.059,0,0,0,2.291-.343,4.51,4.51,0,0,1,1.97-3.006,15,15,0,0,1,4.4-2.151A33.809,33.809,0,0,1,84.25.432,42,42,0,0,1,90.14,0a24.326,24.326,0,0,1,5.141.472A9.334,9.334,0,0,1,96.7.718a1.769,1.769,0,0,1,.541.193c.188.027.386.058.587.092a1.413,1.413,0,0,1,.866.5,1.85,1.85,0,0,1,.394.915,1.732,1.732,0,0,1-.834,1.842,2.644,2.644,0,0,0-1.165,1.074,2.151,2.151,0,0,0-.206,1.56,1.736,1.736,0,0,1-.079,1.1,1.6,1.6,0,0,1-.65.732A33.258,33.258,0,0,1,95.04,16.9a17.872,17.872,0,0,1-1.562,3.812A13.683,13.683,0,0,1,90.924,24a14.447,14.447,0,0,1-3.518,1.72,11.053,11.053,0,0,1-3.383.55,9.5,9.5,0,0,1-4.109-.917,10,10,0,0,1-3.325-2.577,11.775,11.775,0,0,1-1.578-2.407,13.812,13.812,0,0,1-1.047-2.915A16.434,16.434,0,0,1,73.53,14.1a19.762,19.762,0,0,1,.259-3.726,1.214,1.214,0,0,1-.36-.385c-.058-.094-.114-.2-.176-.32a5.762,5.762,0,0,0-2.665-.529,8.152,8.152,0,0,0-1.113.077,4.935,4.935,0,0,0-3.29,1.838c-.124.128-.251.261-.386.395a1.2,1.2,0,0,1-.851.632l-.052.294a46.156,46.156,0,0,1-1.542,6.714,17.357,17.357,0,0,1-1.387,3.133,12.575,12.575,0,0,1-2.1,2.736,12.959,12.959,0,0,1-8.948,3.526Zm5.4-21.7h0a.9.9,0,0,0-.662.286,1.107,1.107,0,0,0-.292.634.9.9,0,0,0,.125.582.849.849,0,0,0,.552.36,3.19,3.19,0,0,1,2.05,1.335l.051.079a.9.9,0,0,0,.778.445,1.066,1.066,0,0,0,.912-.527A.834.834,0,0,0,59.78,9.1a5.1,5.1,0,0,0-3.238-2.288,1.067,1.067,0,0,0-.228-.025ZM91.027,5.534a1.027,1.027,0,0,0-.854.477.9.9,0,0,0-.1.7,1.1,1.1,0,0,0,.4.577l.04.029a1.794,1.794,0,0,1,.757,1.176l0,.058a.912.912,0,0,0,.325.688,1.038,1.038,0,0,0,.664.23.953.953,0,0,0,.688-.272.858.858,0,0,0,.226-.647,3.326,3.326,0,0,0-.509-1.636A4.271,4.271,0,0,0,91.474,5.67a.772.772,0,0,0-.447-.136Z" transform="translate(-3.087 2.133)"/>
      </g>
    </g>
  </g>
</svg>
