<?xml version="1.0" encoding="UTF-8"?>
<svg width="166px" height="244px" viewBox="0 0 166 244" version="1.1" xmlns="http://www.w3.org/2000/svg" xmlns:xlink="http://www.w3.org/1999/xlink">
    <!-- Generator: Sketch 62 (91390) - https://sketch.com -->
    <title>bust-mask-9</title>
    <desc>Created with Sketch.</desc>
    <g id="Introduction" stroke="none" stroke-width="1" fill="none" fill-rule="evenodd">
        <g id="busts-covid-19" transform="translate(-388.000000, -553.000000)">
            <g id="a-person/bust" transform="translate(353.000000, 512.000000)">
                <g id="body/Tee-1" transform="translate(31.056338, 135.052838)" fill-rule="evenodd">
                    <path d="M163.580466,116.881437 C162.728846,112.070295 161.948213,107.246243 161.238776,102.411821 C160.902015,100.116619 160.573494,97.8193001 160.278142,95.5181719 C160.071311,93.9059218 159.756311,92.0623526 160.85279,90.8682971 C162.395677,89.1876884 163.797227,87.7491922 163.9861,85.3418223 C164.163776,83.0766723 163.398142,80.6075044 162.91941,78.4088085 C161.915466,73.7980866 160.665607,69.244295 159.284551,64.7336774 C157.881522,60.1508916 156.343072,55.6112797 154.782438,51.0803449 C153.323424,46.8440087 151.920818,42.5695779 150.020466,38.5050908 C146.413917,30.7917717 140.312508,25.0796913 132.771945,21.2655708 C130.896522,20.3170141 127.071424,16.9308234 125.112128,16.17274 C123.31086,15.475608 123.317297,17.5111318 121.544551,16.7443713 C120.127367,16.1314708 118.80779,15.314129 118.014269,13.9452614 C117.15272,12.4589353 114.992154,10.3800919 114.663211,8.64996008 C113.966239,4.98271556 114.721241,1.86142829 112.104903,-0.898740401 C109.782227,-3.34970755 106.660325,-5.02883486 103.430044,-5.93019649 C96.3238463,-7.91302278 86.8468041,-6.52680096 82.5593393,0.079022161 C80.5115224,3.23368206 79.795959,7.04674442 77.03279,9.62130753 C74.6199027,11.8693149 75.1598776,13.4062222 72.0348071,14.5647227 C71.8577649,14.6305417 67.0604097,13.6011154 66.8833674,13.6669344 C63.4646351,12.935094 60.1970858,14.9837638 57.0606069,16.17274 C52.384621,17.9447759 47.93279,20.2514067 43.7503252,22.9927397 C35.3167336,28.520696 28.0934942,35.6987853 22.1384942,43.8216219 C16.1342689,52.0113357 11.4756069,61.1908754 8.15849421,70.7848001 C7.35293083,73.1151342 6.62933928,75.4738277 5.99109984,77.8555896 C5.63384632,79.1884789 5.25208576,80.5711029 5.68708576,81.9357377 C6.0428604,83.0521225 6.83426885,83.8834323 7.76363505,84.5532631 C9.02342378,85.4613971 11.5503956,86.0516525 11.5011703,87.8780791 C11.4635646,89.2668406 10.9926491,90.7281935 10.76279,92.1004473 C10.4891984,93.7347075 10.2644097,95.3784915 10.039621,97.0199474 C9.01708576,104.491154 8.22124068,112.004476 7.86926885,119.539174 C7.52278998,126.957894 7.23525477,134.528358 7.74969139,141.944963 C7.78370547,142.434056 7.92948012,142.882937 8.16462097,143.262402 C7.94511392,143.346422 7.92821252,143.755728 8.20138153,143.813717 C8.39278998,143.854351 8.5837759,143.894774 8.77518435,143.935408 C9.17278998,144.236356 9.66863505,144.420903 10.2392689,144.438892 C10.6260998,144.451167 11.0127196,144.468521 11.399128,144.488415 C15.4768041,145.3411 19.5538463,146.14659 23.6847618,146.756528 C28.7061703,147.497892 33.7423674,148.102327 38.7941984,148.593748 C49.1748322,149.603256 59.4737055,149.268447 69.8680717,148.724328 C80.2463815,148.180844 90.6185646,148.053862 101.007649,148.324123 C111.405818,148.594806 121.800184,149.047286 132.200677,149.232468 C143.820184,149.439026 155.421945,149.12157 167.00786,148.197564 C168.596382,148.071005 169.579198,146.806686 169.265889,145.228298 C167.388776,135.771937 165.261522,126.378644 163.580466,116.881437 Z" id="âœ‹-Skin" fill="#EDB98A"></path>
                    <path d="M57.0606709,16.1726654 L57.2876329,16.0852687 C60.3547098,14.8865726 63.5470782,12.9526541 66.8834315,13.6668599 C67.0014429,13.6229867 69.1723423,14.0657508 70.6593352,14.3463948 L69.2479527,15.8201831 L66.7571562,16.2995771 C75.3500887,30.487021 85.5130753,37.580743 97.2461161,37.580743 C108.979157,37.580743 117.882302,30.487021 123.955552,16.2995771 L124.784265,16.0701634 C124.886653,16.093889 124.995638,16.1275565 125.112192,16.1726654 C127.071488,16.9307488 130.896586,20.3169395 132.772009,21.2654962 C140.312572,25.0796167 146.413981,30.7916972 150.02053,38.5050163 C151.857537,42.4340204 153.229428,46.5592053 154.636768,50.6565189 L154.782502,51.0802703 C156.343136,55.6112051 157.881586,60.150817 159.284615,64.7336028 C160.605625,69.0481066 161.806599,73.4021118 162.787139,77.8076571 L162.919474,78.4087339 C163.398206,80.6074299 164.16384,83.0765978 163.986164,85.3417477 C163.918876,86.199396 163.697674,86.934074 163.371001,87.6005386 L146.375289,93.7183931 L154.472281,148.964153 C147.055361,149.282275 139.63168,149.364492 132.200741,149.232394 C121.800248,149.047211 111.405882,148.594732 101.007713,148.324048 C90.9334494,148.061977 80.8750783,148.173439 70.8116022,148.675993 L68.2559587,148.806849 C58.4081501,149.299411 48.6379669,149.550966 38.7942625,148.593673 L38.1235048,148.52775 L38.1235048,148.52775 L38.1233985,140.44653 L41.581211,95.447673 L24.0576689,92.1478926 L6.85589904,83.7898003 C6.33615793,83.2700799 5.91908382,82.6634486 5.6871498,81.9356632 C5.28425828,80.6717555 5.58200286,79.3924164 5.91199223,78.1514527 L5.99116389,77.855515 C6.62940333,75.4737531 7.35299488,73.1150597 8.15855826,70.7847256 C11.4756709,61.1908008 16.1343329,52.0112611 22.1385583,43.8215473 C28.0935583,35.6987107 35.3167977,28.5206214 43.7503892,22.9926651 C47.932854,20.2513321 52.384685,17.9447013 57.0606709,16.1726654 Z" id="ðŸ‘•-Top" fill="#EC7495"></path>
                    <path d="M63.6412548,13.4342378 C64.7157618,13.3875294 65.8113956,13.5614706 66.8833674,13.6669344 C66.9767477,13.6760225 67.0122407,13.8201634 66.9070294,13.8421438 C64.9885611,14.2430753 63.0911205,14.7915822 61.2069234,15.3486248 L60.4001984,15.5874746 C58.2754801,16.2162417 56.2130858,16.8648757 54.1561843,17.7035137 C50.0567477,19.3748718 46.163297,21.6308249 42.5799872,24.2226135 C28.7816773,34.2027857 18.7950576,49.3130636 12.4929449,64.9574237 C10.781466,69.2059873 9.33132519,73.560226 8.1566773,77.9878033 C7.8710435,79.0650558 7.60231111,80.1465352 7.34752237,81.2313963 C7.27273364,81.5494785 6.94674773,82.3640225 7.12548012,82.689502 C7.28350829,82.9771497 7.89787449,83.1548953 8.18329702,83.3045313 L9.14691311,83.8043748 C11.0265348,84.7735075 14.1574909,86.3664979 14.471466,86.5217055 L14.9611446,86.7629177 C22.9704359,90.6908797 31.5282914,94.0217369 40.5412548,94.2522652 L40.6118181,93.482316 L40.6118181,93.482316 C41.0136491,89.2255098 41.5409731,84.946089 42.691959,80.8201086 C42.7538604,80.5984021 43.0359027,80.6732202 43.0616773,80.8701986 C43.7028745,85.7547153 43.4979449,90.6772749 43.2742125,95.5844061 C42.8780858,104.275553 42.3520294,112.961839 41.8844942,121.649604 C41.6504097,125.9956 41.3478745,130.338637 41.0747055,134.682308 C40.8011139,139.034645 40.7125928,143.4916 40.0878745,147.808007 C39.9486491,148.770073 38.8221703,149.293377 37.9690717,149.191929 C37.025128,149.07949 36.2990012,148.247827 36.2945646,147.294426 C36.2831562,144.77978 36.5990012,142.235545 36.7745646,139.72724 C36.9412548,137.344054 37.1201984,134.962136 37.3035787,132.580218 C37.9737196,123.887169 38.7446351,115.204265 39.4576632,106.515021 C39.7103393,103.433111 39.983297,100.353948 40.2642829,97.2749971 C30.716466,96.9670597 21.7965365,93.4292671 13.2870998,89.2956781 C13.1639308,92.0933219 12.866466,94.8858933 12.5785083,97.6719129 C11.7746351,105.446645 11.0658322,113.218418 10.5353393,121.017244 C10.267452,124.956179 10.072452,128.899976 9.9025928,132.844195 C9.81914209,134.7827 9.75111392,136.721627 9.69893083,138.661189 C9.68146604,139.307639 9.66569139,139.954183 9.65173208,140.600758 L9.62270487,142.081989 C9.59895512,143.020487 9.50358637,143.889834 8.71421252,144.573079 C7.91245195,145.266942 6.82949421,145.303929 6.03597308,144.573079 C4.97371956,143.594527 5.16153646,142.26133 5.19301533,140.947154 C5.21921252,139.838621 5.25069139,138.7303 5.28724068,137.622191 C5.36055054,135.40576 5.45414209,133.189964 5.56801533,130.975224 C5.9664933,123.232236 6.76266439,115.520125 7.80315731,107.839084 L8.20932912,104.874028 C8.96783745,99.3619876 9.8005754,93.7245732 11.4961843,88.4147701 C10.8359731,88.0863317 10.1776632,87.7555685 9.52188857,87.4233258 C8.35864914,86.8340812 7.15590266,86.2811888 6.02519843,85.630864 C5.12815618,85.1149579 4.35449421,84.4073571 4.1047759,83.3630753 C3.8262769,82.1995739 4.25214376,80.9269756 4.53506402,79.7921145 L4.55963505,79.6923434 C4.83702942,78.5493611 5.13576181,77.4114511 5.45097308,76.2784021 C6.72914209,71.6838581 8.30963505,67.1789266 10.1592829,62.7838973 C13.8628041,53.9849618 18.6431562,45.6258464 24.4823815,38.0677485 C29.7385083,31.2643826 35.9476632,25.0946448 43.2249872,20.4673415 C46.7827336,18.2050479 50.5741421,16.3474902 54.58379,15.0341595 C56.4579449,14.4203982 58.4970998,13.8865274 60.4593534,13.6667231 C61.5178041,13.5483669 62.5777336,13.4805235 63.6412548,13.4342378 Z M82.6793393,-0.508477694 C83.9562407,-1.8801411 86.4931421,-0.460712528 85.8800435,1.3556319 C84.4379308,5.62892348 82.141452,9.52685694 78.5575083,12.3348569 C75.1886351,14.9746221 71.1713815,16.6888843 66.8450435,16.323037 C66.8116632,16.3200781 66.7827196,16.3116241 66.7571562,16.2995771 L67.1299864,16.8054765 C70.0570493,20.7663977 73.1449659,24.6726072 76.8667336,27.9101055 C84.4497618,34.5065595 94.7744097,38.0644303 104.744128,35.5335106 C112.588072,33.5423794 119.498635,27.3373462 121.531029,19.4294636 C121.239691,19.5600781 120.893424,19.604673 120.513353,19.522035 C118.887227,19.1688687 117.277367,17.4579881 116.228635,16.231311 C115.094128,14.9042425 114.208072,13.4712875 113.558635,11.8514988 C112.370044,8.88709961 111.988917,5.07032465 113.611874,2.19870822 C113.812156,1.84469647 114.273987,2.0431544 114.313283,2.38871213 L114.375074,2.92810512 C114.687963,5.61930126 115.077702,8.22258786 116.3461,10.6759685 C116.966804,11.8764382 117.710889,13.0481642 118.616593,14.0535575 C119.101241,14.591444 119.626663,15.1054479 120.193917,15.5564695 C120.746692,15.9958792 121.415684,16.3135979 121.911149,16.8178066 L122.001945,16.9146065 L122.00448,16.8972757 C122.129762,15.8318589 122.876593,15.3624499 123.607367,15.3918276 C124.314569,15.4202576 125.145225,15.73166 125.466917,15.8808223 L125.497366,15.8951812 C130.430883,18.2643659 134.974687,21.352448 139.250677,24.7785282 C148.093494,31.8638354 154.719058,41.126262 157.929269,52.033628 C159.504868,57.3868453 160.40898,62.9028942 161.363346,68.3932178 L161.950886,71.7571078 C162.841675,76.8256495 163.836712,81.9938804 165.847579,86.7088139 C166.36772,87.9285164 165.966734,89.0723442 164.691311,89.551898 C163.098776,90.1508648 161.500325,90.73081 159.899339,91.3035693 C160.685466,94.677354 161.164832,98.1680155 161.753846,101.558497 C163.005818,108.765331 164.539832,115.92609 165.855184,123.123413 C166.527649,126.803444 167.13441,130.495734 167.806241,134.176188 C168.129691,135.948571 168.467297,137.718419 168.795607,139.489957 C168.972438,140.44526 169.13279,141.403522 169.301593,142.360094 L169.33097,142.51884 C169.427663,143.023485 169.549168,143.545457 169.410396,144.050473 C169.252156,144.626403 168.80279,145.033252 168.401593,145.446231 C168.071382,145.786293 167.594128,145.788407 167.189551,145.602841 L167.056479,145.541253 C166.333883,145.203155 165.767816,144.865899 165.511452,144.050473 C165.349198,143.534145 165.290677,142.952509 165.184621,142.42054 C164.98117,141.400775 164.788283,140.379741 164.60617,139.355749 C164.241945,137.307131 163.88617,135.257033 163.538846,133.205244 L163.214434,131.284039 C162.100984,124.662623 161.043596,118.000941 160.509058,111.309565 C160.271931,108.341024 160.020607,105.375052 159.766984,102.408512 L159.576522,100.183452 C159.335677,97.3672092 159.041382,94.4797415 158.999762,91.6254558 L158.042429,91.9654656 L158.042429,91.9654656 L153.37117,93.6174323 L153.37117,93.6174323 C152.213001,94.0268178 150.738353,94.8658785 149.491874,94.7132836 C148.881734,94.6384656 148.416522,94.4463481 148.057367,94.0971975 C148.487508,100.169925 149.069762,106.232086 149.845748,112.263389 C150.551804,117.751311 151.334551,123.231835 152.259058,128.687421 C152.716874,131.3889 153.187367,134.087843 153.698424,136.779601 C153.953846,138.125691 154.217508,139.469878 154.489198,140.812798 C154.624621,141.482779 154.785818,142.153393 154.891452,142.828869 C155.012297,143.602411 154.799339,144.078372 154.367297,144.714747 C154.012579,145.237417 153.302931,145.505832 152.727649,145.145057 C151.965818,144.666771 151.568424,144.252524 151.344269,143.38155 C151.140607,142.590466 151.016804,141.764509 150.859198,140.96328 C150.568283,139.48425 150.287086,138.00353 150.015607,136.520696 C149.447931,133.419765 148.924621,130.311225 148.457297,127.193385 C146.810466,116.209722 145.765536,105.134121 145.23779,94.0405556 C144.977297,88.567217 144.896804,83.0890174 144.943072,77.6099724 C144.966734,74.8015497 145.058424,71.9850957 145.257015,69.1836476 C145.458142,66.3479607 145.876452,63.5689157 146.249973,60.760493 C146.263072,60.661581 146.402508,60.6558746 146.408424,60.760493 C146.585255,63.9091896 146.862438,67.0542933 146.998283,70.2112327 C147.128001,73.2236084 147.184832,76.2406339 147.287931,79.2540663 C147.423353,83.2151935 147.61117,87.1786456 147.859832,91.1393501 C148.310044,90.6466926 148.988635,90.3626378 149.667649,90.4735967 C150.651311,90.2671074 151.710184,89.7507787 152.648001,89.4373462 L156.183353,88.255898 L156.183353,88.255898 C158.041874,87.6349509 159.900396,87.0182307 161.765466,86.4201094 C160.097968,80.8080505 158.955691,75.1123692 157.980307,69.3336454 L157.545304,66.7347582 C156.68424,61.6192285 155.755828,56.5012813 154.19617,51.5475223 C152.556522,46.3394284 150.10286,41.4973931 146.84786,37.1125086 C143.639339,32.7910292 139.735748,28.9858785 135.716593,25.4267395 C132.275677,22.3799137 128.594762,19.6289783 125.085184,16.6658472 C125.121945,16.8621916 125.129762,17.0784029 125.097438,17.3159607 C124.351241,22.7793658 121.502297,27.8672014 117.531945,31.6514284 C109.555536,39.2539098 97.7484238,40.831217 87.5395505,37.2661603 C77.6642689,33.8177689 68.9332125,25.6507708 65.8484942,15.5446339 C65.7956773,15.3717493 66.0272266,15.3030605 66.1201843,15.430082 C66.2913111,15.6646808 66.4632829,15.8992796 66.635466,16.1338785 C66.6238463,16.040673 66.6722266,15.9392249 66.7871562,15.8948413 C70.3863111,14.5045791 73.9206069,12.5328922 76.6184942,9.74370235 C77.9334238,8.38408591 79.0810294,6.84376497 79.9869449,5.18255166 C80.4208886,4.38681781 80.8106773,3.56276301 81.1216632,2.71123268 L81.2006976,2.4909281 C81.5775807,1.42425454 81.8925446,0.336555322 82.6793393,-0.508477694 Z" id="ðŸ–-Ink" fill="#000000"></path>
                </g>
                <g id="head/Medium-Bangs-3" transform="translate(78.591549, 38.043053)" fill-rule="evenodd">
                    <path d="M54.0918995,8.23792153 C66.0625025,8.23792153 81.0552324,21.9272691 85.4431941,27.7526268 C89.1323829,32.6503094 88.610481,57.8814922 88.610481,72.848684 C88.610481,75.9789906 87.1990123,81.9034493 86.6866166,84.8977081 C84.8089889,95.8698987 76.628565,105.071902 60.4377612,105.071902 C47.2545645,105.071902 37.1093203,100.885755 27.2986336,90.179007 C25.060429,87.7363755 14.1296362,96.4808926 11.894157,93.3317782 C6.05509768,93.3317782 1.17267468,38.6390076 12.6368864,22.2343594 C24.1010982,5.82971124 42.1212965,8.23792153 54.0918995,8.23792153 Z" id="âœ‹-Skin" fill="#EDB98A"></path>
                    <path d="M18.1131214,12.0902724 C25.0301877,5.78146614 34.2452126,2.74647593 43.5424581,2.97050724 C48.3576302,3.0867499 53.1559365,4.00612368 57.7033647,5.58068337 C59.978133,6.37113346 62.1812217,7.4025229 64.2873325,8.56917652 C65.0462913,8.98862556 65.7459705,9.48010879 66.4195335,10.002068 L66.5873993,10.1331687 L66.5895075,10.1331687 C68.3962512,10.7841276 70.0090386,11.9528947 71.4721426,13.3203311 C74.4046751,13.0857323 77.3603981,13.3499202 80.1959525,14.2566129 C84.1425384,15.5204877 87.7960818,17.8347734 90.3617842,21.1212705 C93.3503773,24.9473925 94.3439287,29.5884231 93.9894169,34.379394 L93.9239585,35.1932853 C93.573387,39.4254951 92.9454065,44.8691178 89.4805487,47.6499593 C89.2170213,47.8613096 88.9260871,48.0219358 88.6246118,48.1191569 C90.8572157,51.9530513 92.6892579,56.2096462 93.7855318,60.5085112 C97.9703464,76.9283155 94.7532043,94.0519162 89.7208857,109.877826 C89.3076748,111.181858 87.3407065,112.048394 86.3393025,110.773951 C84.5515328,108.495595 81.9542071,106.758296 79.0322157,106.432816 C77.2296885,106.232034 75.4355942,106.595556 73.7321533,105.775517 C73.0638479,105.452151 72.4187329,104.923775 71.9549247,104.28127 C69.0793141,105.373951 65.9823405,105.889646 62.9106655,105.762836 C57.869914,105.555713 52.4813064,103.805732 49.0132863,99.967611 C48.4567165,99.3515249 48.3156766,98.6597753 48.4438563,98.036292 C48.8787819,97.8807382 49.3253027,97.7649182 49.7853161,97.692425 C54.1830608,100.290766 59.0306994,102.027008 64.24053,102.136065 C67.2508558,102.199047 70.1871831,101.776981 72.628079,99.8925816 C73.1561879,99.4846755 73.6419215,99.03302 74.0909721,98.5477597 C79.1943377,95.2566129 82.792435,89.666609 84.5030438,83.6788438 C86.0968573,78.0949691 85.900793,72.2807225 85.352656,66.5531295 L85.0634757,63.5306972 C84.6419445,59.0946479 84.2508696,54.6453252 84.1412734,50.1903898 L84.1743725,50.188699 L84.1743725,50.188699 C85.252094,50.1189534 85.2598944,48.427517 84.1743725,48.4978967 C81.3664357,48.6800806 78.5797919,48.2182802 75.7804988,48.4194857 C75.7570976,47.0928399 75.6618061,45.7721119 75.2728397,44.4925973 C75.0508442,43.7615366 73.781064,43.6173957 73.6465596,44.4925973 C73.4665177,45.6634779 73.4007413,46.8278067 73.3811348,48.003971 C69.191893,47.9481746 65.0066568,47.5947969 60.8167824,47.7399945 C60.0439094,46.9136149 59.7978802,45.4483233 59.4363207,44.4289808 C59.3836152,44.2789221 59.3309097,44.1309769 59.2760961,43.9809182 C58.9583875,45.4375444 58.5080719,46.8622568 57.9156624,48.2569573 L56.8881029,48.2604481 C51.0578552,48.2878641 45.1089702,48.4625659 39.4158304,49.6763859 C39.0201177,49.3718301 38.7846297,48.8404955 38.7209614,48.3579828 C38.3080061,45.2182141 37.7186185,42.1619141 36.6740636,39.1698117 L36.5246274,38.7476651 C36.5124166,38.7126486 36.4995312,38.6754341 36.4860386,38.636292 C35.7163278,39.8817793 34.7979877,41.0427264 33.7963728,42.1237832 C33.2060715,42.7610043 32.5870985,43.3703272 31.9518921,43.9623194 C31.3348164,44.6492078 30.6970802,45.3257401 30.0789504,46.0147421 C30.1031949,46.1400728 30.1242771,46.2673057 30.1413537,46.3968634 C30.3304609,47.8266481 30.3500673,49.2767225 30.2115574,50.7120023 C29.961101,53.3067499 29.2303923,55.8070239 28.056536,58.1200415 L28.0193972,58.3516391 C27.8411472,59.4355975 27.5875275,60.5558254 26.9952586,61.3720885 C27.7344001,62.2022724 28.30383,63.193928 28.6339771,64.2956971 C28.9278629,65.2765738 27.5741755,66.1266247 26.8721386,65.3239162 C26.3145147,64.6862724 25.6949091,64.1585307 25.014376,63.7375209 C24.9713684,63.796065 24.8937859,63.8248086 24.8067165,63.7759867 C22.9114277,62.7213487 19.6921773,63.0404877 17.7989967,64.0338341 C15.4441162,65.2681198 14.5249327,67.8022098 14.7863519,70.3701159 C15.0372299,72.8238928 16.1082052,75.6919162 18.1848008,76.9494505 C19.1377158,77.5264368 19.8798088,77.5750474 20.8917539,77.2981785 C21.21531,77.2100788 21.616444,76.9398783 21.7886288,76.8056543 L21.9580836,76.6694912 C22.6214773,76.1438583 23.239326,75.7839241 24.022459,75.7701159 C24.8234065,75.5197098 25.6283966,75.8670792 25.9347173,76.7090488 L25.9535876,76.7634622 C26.0969465,77.1925033 26.3583656,77.7314466 26.3014437,78.3866325 C26.2424136,79.0883155 25.9219643,79.7265933 25.4433986,80.2401746 C25.3611781,80.3289417 25.2726329,80.4177088 25.1819795,80.5001354 C33.4251155,89.4465933 34.4834414,103.387259 30.2564624,114.563462 C30.0730474,115.053795 29.876983,115.537787 29.6724858,116.017552 C28.9662324,117.661858 26.24663,117.152503 25.9008821,115.522993 C25.7975794,115.034773 25.6837356,114.548668 25.5593506,114.066789 C25.330726,113.1763 25.0687863,112.29416 24.7735316,111.424823 L24.6612494,111.099431 C24.4103713,110.38084 24.176359,109.655908 23.9233727,108.937317 L23.8980741,108.855155 C23.8885871,108.82266 23.878046,108.785145 23.8664508,108.742875 L23.4384824,109.679157 L23.4384824,109.679157 L22.1377113,112.50491 C21.5290282,113.823546 19.5950518,113.106901 19.5231372,111.836192 L19.5214116,111.79266 C19.515087,111.558061 19.5066541,111.325576 19.4918966,111.095204 C19.3991349,109.368472 19.101876,107.690351 18.629635,106.048159 L18.4592596,106.260418 C15.9222387,109.404836 12.9447416,112.352134 8.86014847,113.07767 C7.83555406,113.259431 6.67603365,112.185771 7.38017878,111.148041 C7.67111299,110.719 7.95150611,110.279392 8.21714169,109.833443 C7.98734583,109.725654 7.77019928,109.613638 7.56991848,109.499509 C6.02037756,108.626632 4.73014758,107.383893 3.66338879,105.974186 C1.40126988,102.985693 0.591713808,99.2236579 0.393541228,95.5419358 C0.182719335,91.6509769 0.524250802,87.5486677 1.58468493,83.7950865 C2.04427665,82.1719162 2.66620124,80.6142646 3.3851039,79.10311 C3.33450664,78.9678458 3.28601761,78.8325816 3.23752857,78.6973174 C2.461704,76.5288634 1.82502188,74.3117988 1.29585893,72.0693722 C0.229100152,67.5422489 -0.344335398,62.8714074 -0.413906623,58.2195875 C-0.540399759,49.8860454 0.893189116,41.4193526 3.91426685,33.6480023 C7.03443087,25.6335992 11.7273262,17.912973 18.1131214,12.0902724 Z M14.2276739,84.9511726 C13.6547344,84.0467923 12.2211723,84.8617789 12.7531627,85.7724653 L12.7730028,85.8050278 C13.6816452,87.2400963 14.1075054,88.8717205 14.6303437,90.4716423 C14.9655505,91.5009182 16.5952037,91.0613096 16.2557805,90.0214661 L16.1434159,89.6742849 C15.6231461,88.0518411 15.1485439,86.4030082 14.2276739,84.9511726 Z M19.2178281,67.6880595 L19.598464,67.5033977 C20.7991514,66.9289899 21.8511924,66.5377157 23.2698249,67.0392141 C25.1693301,67.7091945 27.2037614,69.841719 25.9198561,71.9108384 C25.447615,72.6738129 24.6085439,72.9781573 23.7441741,72.7985096 C22.2869732,72.4955486 21.9109311,71.1800261 21.1714481,70.100132 L21.0441972,69.9172774 C20.5933606,69.2638399 20.0232316,68.3605377 19.2726418,68.1044196 C19.101876,68.0452415 19.0301966,67.7789401 19.2178281,67.6880595 Z M20.2884963,23.7570499 L20.41108,23.6469065 C21.2269607,22.9240885 20.0294924,21.7320728 19.2178281,22.4506638 C15.5031463,25.7413879 14.2129163,30.8919945 12.2860042,35.2817401 C11.8538194,36.268746 13.3063822,37.1310552 13.7427835,36.1355953 C15.5808596,31.9467297 16.800926,26.935916 20.2884963,23.7570499 L20.2884963,23.7570499 Z M64.928231,22.3175131 C63.9576375,21.8790249 63.1084497,23.2950676 64.0415737,23.7613147 L64.0765106,23.7779436 C67.3568992,25.2637362 68.7525402,28.6284329 70.089151,31.7521902 C70.5150112,32.7497636 71.967574,31.8895679 71.5459302,30.9004485 L71.3047325,30.3399536 C69.9100636,27.1207863 68.2834035,23.8395139 64.928231,22.3175131 Z M70.070177,20.2843233 C69.0413662,19.9271413 68.6007484,21.5587656 69.6211264,21.9159476 C72.4018671,22.8860454 74.3098053,24.9784133 75.9183763,27.3708986 C76.5213269,28.2670239 77.9823227,27.4216227 77.3730474,26.5170434 C75.5051654,23.7399006 73.2873191,21.4087068 70.070177,20.2843233 Z" id="ðŸ–-Ink" fill="#000000"></path>
                </g>
                <g id="face/Smile" transform="translate(112.183099, 77.354207)" fill="#000000" fill-rule="evenodd">
                    <path d="M30.968993,50.9198978 C29.548794,50.3403012 28.2816173,49.3734958 27.3551889,48.1384646 C27.0331038,47.7091169 26.9495926,47.2557326 27.017159,46.8410547 C27.0931327,46.3747786 27.3688808,45.9521824 27.7449394,45.6687178 C28.1221628,45.3843752 28.5940214,45.2441445 29.0502103,45.3156301 C29.4466117,45.3777469 29.8412104,45.5948709 30.1535058,46.0451781 L30.2187521,46.1352289 C30.7695298,46.8806513 31.4872438,47.4922614 32.3050288,47.8864795 C33.0932406,48.2664417 33.9747757,48.4437847 34.8870208,48.3406561 C36.6244504,48.1443157 37.8219743,47.2043274 39.0948115,45.9278391 C39.2525834,45.7666792 39.4104563,45.6004672 39.5690946,45.4315797 C39.6692778,45.278484 39.8083069,45.1800892 39.962667,45.1284632 C40.1340565,45.0711416 40.327938,45.0743848 40.5055187,45.1363808 C40.6767961,45.1961763 40.8299095,45.309486 40.9325762,45.4602937 C41.0301525,45.6036243 41.0854754,45.7806897 41.0675245,45.9843589 C40.9510195,47.3072301 40.2596776,48.4878363 39.2776553,49.4148615 C38.1869942,50.4444414 36.7412431,51.1567117 35.3801317,51.4065272 C33.8805866,51.6817086 32.3525901,51.4845569 30.968993,50.9198978 L30.968993,50.9198978 Z M36.0875289,30.5120405 C37.6828906,31.482148 40.1137318,33.7442494 38.3974899,36.149264 C36.3773089,38.2698449 33.4687045,35.8384541 32.0353946,34.7388307 C30.7063626,33.8866164 29.2131206,36.0784478 30.4461973,37.0735516 C40.8033244,44.7445605 45.006466,30.7657101 36.8944406,29.3714319 C36.0012775,29.2177885 35.6695544,30.2119271 36.0875289,30.5120405 Z M17.5274577,21.5886716 C17.7037243,19.3998697 21.0359789,18.9028321 21.3674577,21.0687499 C21.6642887,23.0089456 21.3148521,24.7912626 20.4412606,26.5380728 C19.6065423,28.2068947 17.5085456,27.4283107 17.3498837,25.9087021 C17.1372039,23.8717299 17.4178099,22.9502317 17.5274577,21.5886716 Z M42.8930282,20.6196517 C43.3576056,20.0109628 44.0283803,19.5954481 44.8320423,19.8302583 C47.3429577,20.5642779 46.6028873,24.1303914 45.7210563,25.8662114 C45.2419014,26.8088337 43.6930986,27.0478708 42.993169,26.2178982 C41.8523239,24.864411 41.3059859,22.1614521 42.756338,20.8282544 C42.7956338,20.7593542 42.8393662,20.68982 42.8930282,20.6196517 Z M20.4058944,12.0111429 L20.802522,11.9416942 C22.0295218,11.7294045 23.5551549,11.5254176 24.4231479,12.5122544 C24.8835,13.0355577 25.0419507,14.0081918 24.4231479,14.509092 C23.3346972,15.3904227 22.1313169,15.0488806 20.8269507,15.1234873 C19.7520211,15.1852016 18.7189225,15.3631585 17.6835,15.6592603 C15.4119507,16.3087397 13.5610352,17.4944149 11.6209648,18.7963327 C11.3663873,18.9671037 11.1065282,18.6414129 11.228007,18.4032211 C12.3479366,16.208771 14.5182887,14.4061644 16.6922324,13.3073542 C17.8525141,12.7208571 19.1222324,12.2343288 20.4058944,12.0111429 Z M40.6041287,11.0281289 L40.9077055,11.0902829 C44.2113469,11.7811043 48.5035506,13.1610768 50.0679842,16.4073021 C50.1275964,16.8663298 50.0646105,16.9647086 50.0133917,17.0289838 L49.9963385,17.0503723 C49.9541341,17.1052595 49.9204583,17.1809212 49.7215736,17.2433957 C49.6663832,17.2302408 49.6106433,17.216308 49.5543131,17.2015401 C48.8372041,17.0135386 48.2698321,16.7545401 47.720556,16.4857982 L47.1250012,16.192275 C46.4340388,15.8533498 45.7369757,15.5267598 44.9982488,15.2856588 C43.4217423,14.7712438 41.8001698,14.4088706 40.1534741,14.2153715 C39.7965654,14.1734678 39.4528848,14.0529641 39.1817455,13.8464404 C38.92438,13.6504079 38.7277692,13.3789964 38.6381257,13.0182314 C38.5219478,12.5513438 38.5553348,12.1978716 38.8057421,11.7766707 C38.9940329,11.4603578 39.263447,11.2411116 39.5728025,11.115213 C39.888177,10.9868648 40.2472278,10.9566068 40.6041287,11.0281289 Z" id="ðŸ–-Ink"></path>
                </g>
                <g id="mask/medical-mask" transform="translate(83.450704, 97.432485)" fill-rule="evenodd">
                    <path d="M83.0825493,14.8698035 C82.6843099,9.82212446 76.3219859,7.68389354 73.1529718,7.04984266 C62.6005775,4.56816751 53.6229718,10.9353065 41.0402958,11.0654982 C39.7703662,11.0853652 36.1386761,10.871056 34.4498028,10.4248955 C25.881,8.47709119 17.3210704,6.40522427 8.91346479,3.85063327 C7.67733803,4.14018317 7.3116338,5.75426536 8.16029577,6.67385049 C16.2129718,9.53067241 28.5326197,12.0888564 35.0383944,12.3800971 C34.9135352,20.7876117 30.4769155,29.2416235 24.3501549,33.8913299 C34.0944507,44.6712517 56.8202958,48.2164415 70.1948028,42.5579601 C76.7738873,40.5826802 83.7163521,22.9011147 83.0825493,14.8698035" id="ðŸŽ¨-Color" fill="#FFFFFF"></path>
                    <path d="M8.23354225,4.10507789 C7.87121831,4.09091742 8.08248592,3.03416595 8.89861268,3.18485871 C19.4290352,5.64856908 32.5487535,10.341391 43.3726268,10.3069409 C51.3350915,10.0461346 58.4698099,5.60989198 66.4762183,5.58305049 C71.8582606,5.68618943 78.7210775,6.45191155 82.4875563,10.7723342 C87.4555141,26.5344164 76.2682606,47.9729448 58.6660775,48.0970074 L55.3344357,47.8558609 C43.978046,47.0188669 31.5368535,45.6797202 24.216993,36.041164 L24.1599507,36.0901973 L24.1599507,36.0901973 C23.0653732,35.3555436 23.1264296,33.768937 24.0566408,32.9529135 L24.0843169,32.9964517 L24.0843169,32.9964517 C24.1020634,32.967708 24.1217113,32.9402325 24.1407254,32.9121229 L24.1288944,32.8751366 L24.1288944,32.8751366 C24.4867817,32.4993558 24.8936831,32.1478802 25.2636127,31.8331796 L25.2655141,31.8393088 L25.2655141,31.8393088 C30.7618521,27.2582912 34.3506549,20.3312853 34.5572746,13.1582677 C32.7376268,13.6583225 2.16593662,7.3178137 7.62319014,5.7705182 C11.5265704,7.09061213 15.4529789,8.28283914 19.4586127,9.23180196 C19.5257958,9.19397025 19.6221338,9.20390372 19.6591056,9.27851037 C24.5592465,10.4848978 29.5582606,11.1743225 34.5638239,11.7324986 C34.5585423,11.4932501 34.5494577,11.2540016 34.5372042,11.0143303 C25.6369225,9.28104658 16.9115704,6.7076454 8.23354225,4.10507789 Z M80.3017817,10.5020172 C62.0463592,1.27636556 52.984669,14.9061346 35.3292465,11.1533988 C37.1763592,19.3973284 32.6153028,28.2848196 26.4203028,33.6712932 C35.4215704,41.4650466 39.3173451,42.6452266 51.1250915,43.9101581 L52.6676413,44.0939068 C54.986901,44.36868 57.3279277,44.6249832 59.6543873,44.6651014 C71.721993,43.7865182 80.8405141,31.226393 82.2050915,19.8462364 L82.2124871,19.5318664 C82.2736535,16.6437406 82.1410478,13.5866266 80.8620634,10.9407804 C80.6265,10.8587765 80.4217817,10.7110427 80.3017817,10.5020172 Z M54.8870915,17.744083 C55.5179366,17.6020556 56.161669,18.2906348 55.7706127,18.8936172 C54.5070211,20.8433237 51.4168099,21.5986896 49.2555423,21.9051476 C46.7526549,22.2600047 44.3264577,21.9801769 41.9488521,21.1261104 C41.8214577,21.0802474 41.8305423,20.8549479 41.9830775,20.8731241 C44.2406831,21.1419616 46.568007,20.9451945 48.7615986,20.3474959 C50.9858239,19.9140164 52.7818099,18.4341417 54.8870915,17.744083 Z M72.0396905,16.3396814 C72.0292183,15.9691843 73.8499225,17.041153 74.1378803,17.1855053 C76.3616831,18.5212391 78.9357676,18.6190943 81.3883732,19.1434544 C81.9600634,19.362836 81.9592183,20.089881 81.388162,20.3092626 C78.3271056,21.1235953 73.6815423,18.9864211 72.0396905,16.3396814 Z" id="ðŸ–-Ink" fill="#000000"></path>
                </g>
                <g id="accessories/*-None" transform="translate(88.521127, 88.978474)"></g>
            </g>
        </g>
    </g>
</svg>