<?xml version="1.0" encoding="UTF-8"?>
<svg width="168px" height="237px" viewBox="0 0 168 237" version="1.1" xmlns="http://www.w3.org/2000/svg" xmlns:xlink="http://www.w3.org/1999/xlink">
    <!-- Generator: Sketch 62 (91390) - https://sketch.com -->
    <title>bust-mask-11</title>
    <desc>Created with Sketch.</desc>
    <g id="Introduction" stroke="none" stroke-width="1" fill="none" fill-rule="evenodd">
        <g id="busts-covid-19" transform="translate(-1006.000000, -561.000000)">
            <g id="a-person/bust" transform="translate(974.000000, 512.000000)">
                <g id="body/Polo-and-Sweater" transform="translate(31.056338, 135.052838)">
                    <path d="M20.4453169,149.833503 C33.3816549,150.195757 45.6018819,150.59542 58.5132904,149.833503 C79.1744171,148.555045 139.807947,150.859608 153.135674,149.833503 C154.141449,149.756068 157.600437,150.859608 157.672479,149.833503 C158.258324,142.688383 158.638183,70.3987521 156.897549,65.4247071 C155.156915,60.4506621 146.565085,36.5398119 135.617408,25.3902385 C132.564803,22.3780741 127.919487,21.2113137 125.353431,17.7303744 C123.140935,13.934628 123.312818,11.7068043 121.127831,9.70976295 C120.17966,8.84315024 117.943503,8.49182392 116.281901,7.28893124 C114.611197,5.62792929 116.193042,1.97156921 115.507268,-0.341448404 C114.093887,-6.11680652 108.886775,-9.82198852 103.195437,-10.6950766 C95.2851468,-12.5885966 86.9342201,-10.7983079 83.1452029,-4.58232607 C81.7348259,-2.26856584 82.4854133,0.543827393 80.7507887,4.25140483 C80.8745915,7.05327567 77.6048028,7.73023066 75.6503662,8.84045375 L71.7690416,12.7646696 C59.8112951,19.4953311 45.7443803,23.1298471 35.2669859,32.1726808 C26.3590986,41.2127669 17.4989577,51.6615027 13.5465634,63.8923442 C12.7283239,67.2251269 12.4612817,70.669714 12.1221972,74.0752013 C11.154169,84.0272639 8.45860563,93.6866064 6.13888732,103.38061 C3.4938169,115.594332 1.02818328,128.55965 4.59311286,140.88898 C5.62092976,143.498523 18.1055282,149.711554 20.4453169,149.833503 Z" id="âœ‹-Skin" fill="#D08B5B"></path>
                    <path d="M80.6971187,4.22535379 L81.7074425,4.33347661 L81.7074425,12.1149139 L94.9183022,25.8628633 L97.3325704,28.6237995 C95.8933606,33.7577637 97.3426,36.3247458 101.680289,36.3247458 C108.186822,36.3247458 103.156671,34.4333668 104.380043,31.8734662 L104.431662,31.7686154 C105.318621,30.0159592 108.353982,26.2987024 113.537746,20.616845 L119.483524,10.67432 L119.483529,8.8587712 L119.684815,8.94117801 C120.246395,9.1749792 120.730687,9.41370161 121.059801,9.71450633 C123.244788,11.7115477 123.072905,13.9393714 125.285401,17.7351178 C127.851458,21.2160571 132.496773,22.3828175 135.549378,25.3949819 C146.497055,36.5445552 155.088886,60.4554055 156.829519,65.4294505 C158.570153,70.4034955 158.190294,142.693127 157.604449,149.838246 C157.532407,150.864352 154.073419,149.760811 153.067644,149.838246 C139.739917,150.864352 79.1063871,148.559788 58.4452604,149.838246 C45.5338519,150.600164 33.313625,150.2005 20.3772869,149.838246 C18.0374982,149.716297 5.55289979,143.503266 4.52508289,140.893724 C0.96015331,128.564393 3.42578693,115.599076 6.07085735,103.385354 L6.30016431,102.431945 C8.52708173,93.2165222 11.0314381,84.022731 12.0051757,74.5691558 L12.0541672,74.0799447 C12.3932517,70.6744574 12.660294,67.2298703 13.4785334,63.8970875 C17.4309278,51.666246 26.2910686,41.2175102 35.1989559,32.1774241 C45.5715764,23.2250188 59.4622858,19.5733056 71.3416522,12.9704125 L71.7010117,12.769413 L75.5823362,8.84519713 L75.7011432,8.7790832 C77.666207,7.70704587 80.8040855,7.00198163 80.6827588,4.2561482 L80.6971187,4.22535379 L80.6971187,4.22535379 Z" id="Path" fill="#FDEA6B"></path>
                    <path d="M82.4598592,-3.58715486 C82.5633803,-3.92552668 83.0093662,-3.83041905 83.043169,-3.50895525 C83.3790845,-0.321792826 82.9565493,3.0090878 82.5509155,6.1751152 C82.3565493,7.70317782 82.2443662,9.29253203 81.9485915,10.7992483 C81.9105634,10.9600858 81.8746479,11.1226142 81.8408451,11.2834518 C81.9380282,11.4565477 82.2255634,11.65099 82.3626761,11.7841406 L82.9590767,12.3642346 L84.1542254,13.5216514 C86.493169,15.7873265 88.8316901,18.0549038 91.1704225,20.3207903 L94.6035211,23.6495575 C95.780493,24.7906377 97.1178169,25.8835301 98.1507042,27.1558588 C98.7107746,27.8467629 98.8373239,28.6942776 98.2859155,29.4340037 C98.0133803,29.7996397 97.5234507,30.065941 97.0267606,30.1208921 C97.2211268,30.3914205 97.3711268,30.6978784 97.4661972,31.0383637 C97.6605634,31.7315927 96.9593662,32.583123 96.2135915,32.2935731 C95.3664085,31.9680937 94.6669014,31.3847669 93.8049296,31.1057845 C92.934507,30.8225751 91.9882394,30.7678354 91.0859155,30.9197962 C90.671831,30.9895418 90.2661972,31.0933148 89.8711268,31.224352 C94.0988028,33.1708882 98.6725352,34.2889312 103.337324,34.4493461 C104.288028,34.48126 105.236831,34.4683676 106.180986,34.4051739 C107.76993,34.3014009 109.347887,34.0606729 110.898592,33.6717884 C112.117817,33.3653305 113.324155,32.9804616 114.494577,32.5154909 C115.069225,32.2872326 115.637324,32.0359371 116.186831,31.7506142 L116.234937,31.7221331 C116.359156,31.6444656 118.654546,30.3421713 118.694577,30.1464655 C118.734609,29.9507597 118.734609,29.8825833 118.659922,29.7122142 C118.610131,29.5986348 118.516169,29.5026972 118.378037,29.4244015 C117.668801,29.1211458 116.934068,28.83889 116.159366,28.8337688 C114.376056,28.8232013 112.430282,30.1422385 110.955845,31.0404772 C109.335423,32.0274831 107.845775,33.1812444 106.28662,34.2508882 C106.250704,34.2760389 106.210775,34.2868177 106.172535,34.2868177 C106.007958,34.2868177 105.855634,34.0837101 105.961268,33.9251974 C107.078741,32.2792475 108.587004,30.9088021 110.164718,29.7122142 L110.800456,29.2354804 C112.24544,28.1574669 113.935563,26.9635516 115.692465,26.7033579 C117.84507,26.3863324 120.093169,27.7286181 122.013592,28.5146299 L125.414789,29.9074283 C126.021127,30.1547082 126.680493,30.3660584 127.290845,30.6471543 L125.865529,26.1857762 C125.153358,23.9548403 124.443042,21.7233109 123.739648,19.4901837 L123.603161,19.0526912 C122.902487,16.7859033 122.259219,14.4278958 121.092254,12.3571113 C120.81338,11.8604381 120.494366,11.3933539 120.179577,10.9218314 C119.852113,10.4338236 119.729577,9.89488036 119.317817,9.45928741 C118.502324,8.59486471 117.333803,8.087624 116.21831,7.75601539 C115.945775,7.67570228 116.026268,7.31640678 116.281901,7.28893124 C117.426631,7.16825704 118.518137,7.43533696 119.55259,7.91835088 L119.982539,8.12349205 C120.960742,8.58649312 121.914507,9.01712146 122.640845,9.84817195 C124.297039,11.7461229 125.157141,14.135834 125.947304,16.4941182 L126.158662,17.1272874 C126.454225,17.0300663 128.46338,17.6429821 128.714789,17.7886025 C136.24669,20.9738628 142.048099,26.9041406 146.290352,33.8533383 C150.938239,41.4682894 153.469014,50.169581 155.558451,58.7802033 C156.203239,61.4375105 156.81993,64.1030604 157.412324,66.7745281 C154.772958,67.790489 151.967746,68.322035 149.496972,69.7532992 C148.555775,70.2983716 149.405915,71.7600702 150.349859,71.213307 C152.664085,69.8729234 155.30007,69.3777297 157.777183,68.4363755 C159.120211,74.6211191 160.31493,80.8396788 161.315493,87.0842346 C164.389648,106.249479 166.330986,125.727311 166.208451,145.15463 C166.206338,145.583882 166.079789,146.063436 165.84507,146.475569 C165.982606,146.408148 166.090352,146.327624 166.15162,146.230614 C166.930986,145.006685 168.885211,146.141847 168.101408,147.371906 L167.986941,147.55017 C167.398775,148.457346 166.849699,149.150495 165.815704,149.662732 C164.773944,150.178638 163.645775,150.265291 162.49669,150.29488 C158.590352,150.397808 154.681268,150.464806 150.770915,150.512994 C150.234718,146.328681 150.01669,142.104422 149.277887,137.944626 C149.087958,136.874982 147.458873,137.328329 147.648169,138.394168 C148.36162,142.411092 148.59,146.488884 149.087958,150.533283 C140.728099,150.623319 132.363592,150.624375 124.01007,150.647835 C112.689296,150.681123 101.369977,150.657614 90.0497077,150.651216 L85.1980986,150.649738 C72.1206338,150.649738 59.0429577,150.607467 45.9657042,150.520814 L42.8556338,150.498833 C41.6184507,143.20281 40.776338,135.844438 40.7607042,128.43027 C40.7583803,127.34245 39.0682394,127.340336 39.0705634,128.43027 C39.0861972,135.836195 39.9190141,143.195413 41.1447887,150.489323 C38.0484507,150.475796 34.9535915,150.486998 31.8570423,150.5969 L30.2809773,150.653072 C27.1276143,150.761067 23.9678873,150.827604 20.8204225,150.575976 C17.3260563,150.29488 13.7917606,149.652375 10.658662,148.005957 C9.24760563,147.26306 8.00514085,146.313464 6.94330986,145.1969 C8.02267606,144.568767 9.11746479,143.966207 10.1630282,143.281855 C11.0695775,142.688383 10.2238732,141.223937 9.30992958,141.822058 C8.18323944,142.559671 6.99887324,143.201965 5.83880282,143.884203 C4.99880282,142.762779 4.30943662,141.518137 3.78591549,140.175428 C2.95985915,138.055374 2.64084507,135.774904 2.36408451,133.530364 C2.03683099,130.886583 1.90140845,128.221244 1.90140845,125.558442 C1.90140845,119.957659 2.49084507,114.373784 3.31288732,108.840634 C4.09898653,103.539766 5.13811004,98.2816339 6.23649135,93.0401566 L6.38661972,92.3255105 C7.47042254,87.1727903 8.50352113,82.0052757 9.74577465,76.8884851 C10.8944366,72.156986 12.221831,67.4476788 13.8038028,62.8294635 C15.2119014,63.7004381 16.685493,64.4623559 18.0716197,65.3696827 C18.984507,65.9673813 19.8323239,64.5039919 18.9247183,63.9098862 C17.4458451,62.9416905 15.8685211,62.13708 14.3761268,61.1910761 C16.1450704,56.2459019 18.2214085,51.416125 20.7107746,46.7903011 C25.6964789,37.5268177 32.415,29.2395614 41.0199296,23.1232952 C45.3274648,20.0627316 50.0535211,17.558442 55.0164085,15.7363911 C60.0762676,13.8767199 65.3197183,12.8578001 70.6816901,12.4395379 C70.834797,12.4274039 70.9207193,12.5691622 70.9144459,12.7002381 L70.9121831,12.7246494 L71.1234507,12.7586768 C71.2016197,12.2281876 71.3621831,11.714395 71.6685211,11.2432952 C72.3657042,10.1696357 73.6880282,9.48063379 74.7443662,8.82122087 L74.9948146,8.66535029 C76.2515963,7.88605361 77.5779401,7.11833193 79.0396479,6.84509563 C79.0903521,6.83643027 79.121831,6.88926784 79.0880282,6.92963575 C78.1240968,8.03525508 76.8914841,8.88001621 75.7618224,9.81516592 L75.5021634,10.0317686 C74.5659804,10.8025214 73.2601408,11.6772913 73.2253521,12.9655888 C73.1854225,14.4832952 73.4957746,16.0618706 73.6079577,17.57535 C73.7199296,19.0841798 73.7978873,20.5911074 73.8380282,22.1043755 C73.9840141,27.5257219 73.808662,32.9489704 73.3288732,38.3489704 L75.4498744,36.9283992 C78.7506725,34.7179804 82.0624275,32.5137504 85.4429577,30.4442581 C87.4882394,29.1911622 89.786831,28.1194048 92.2373239,28.1682267 C92.9239437,28.1806964 93.6992958,28.2802424 94.443169,28.4915927 C93.6424648,27.7328451 92.8755634,26.925487 92.0917606,26.1625125 C90.8007042,24.9047669 89.5098592,23.647444 88.2192254,22.3920232 L84.4972975,18.7651465 L80.7739437,15.1382698 C79.6206338,14.0117727 78.2683099,12.9742541 78.3908451,11.1989117 C78.4903521,9.78286471 79.2105634,8.37315825 79.7028169,7.00783535 C79.7725352,6.81127958 79.8359155,6.61683731 79.8950704,6.42450854 C80.8882394,3.12321696 81.4521127,-0.298755644 82.4598592,-3.58715486 Z M130.563592,138.058544 C129.793732,137.287961 128.59838,138.483147 129.368662,139.253941 L129.775943,139.659733 C130.456205,140.338647 131.130588,141.038441 131.601359,141.877713 L131.670423,142.004665 C132.177676,142.967577 133.637113,142.114145 133.129648,141.151233 C132.502394,139.961119 131.504577,139.000321 130.563592,138.058544 Z M97.5779577,137.841064 C95.1270423,137.372923 92.7648592,137.372923 90.3139437,137.841064 C89.246831,138.045017 89.6987324,139.674951 90.7633099,139.471632 C92.906831,139.062035 94.9848592,139.062035 97.1285915,139.471632 C98.1914789,139.674528 98.6467606,138.04544 97.5779577,137.841064 Z M64.4782394,120.797777 C63.4235915,120.530419 62.9735915,122.160775 64.0290845,122.428133 L64.5487234,122.558551 C66.3152034,122.995252 67.997615,123.320642 69.8326056,122.915295 C70.8802567,122.683575 70.4566287,121.092791 69.4248336,121.276428 L69.3832394,121.284728 C67.6852817,121.659874 66.1210563,121.214137 64.4782394,120.797777 Z M123.262394,109.815381 C122.481972,109.056422 121.285563,110.250763 122.067254,111.010779 C123.042676,111.959741 124.192183,112.680869 125.585282,112.719334 C126.657071,112.749315 126.672247,111.10885 125.633236,111.030984 L125.585282,111.028532 C124.65169,111.002536 123.907817,110.443303 123.262394,109.815381 Z M23.7923239,105.299671 C24.7654225,104.812931 23.9104225,103.354192 22.9394366,103.839874 L17.0983099,106.76137 L17.0983099,106.76137 C16.1252113,107.248109 16.9802113,108.707272 17.9511972,108.221377 L23.7923239,105.299671 L23.7923239,105.299671 Z M139.214577,105.672282 C138.126549,105.641636 138.127394,107.332438 139.214577,107.363084 C140.236901,107.391616 141.284577,107.779021 142.195352,108.221377 C143.169718,108.694802 144.027676,107.23733 143.048451,106.76137 C141.857746,106.183115 140.550634,105.709479 139.214577,105.672282 Z M84.6373944,97.5086651 C85.5319014,96.9006103 84.6872535,95.4346847 83.7842958,96.0486573 C82.5522183,96.8859919 81.4358862,97.8757013 80.223425,98.7384317 L79.8902113,98.9703637 C78.9957042,99.5784185 79.8403521,101.043921 80.7433099,100.430372 C82.0871831,99.5167042 83.2935211,98.4219097 84.6373944,97.5086651 Z M147.489507,85.2201248 C146.401901,85.2197023 146.400211,86.9105046 147.489507,86.9109273 L147.695734,86.9102967 C148.593432,86.9052484 149.539628,86.8804408 150.374458,87.2393435 L150.470282,87.2824811 C151.448873,87.7436475 152.307676,86.2863872 151.32338,85.8226847 C150.099507,85.2461211 148.819859,85.220759 147.489507,85.2201248 Z M53.6275417,84.0122802 L53.769507,83.9589978 C54.7857042,83.5939958 54.3475352,81.9594127 53.3201408,82.328853 C51.7719718,82.8853383 50.5675352,83.9363833 49.224507,84.8485712 C48.3295775,85.456626 49.1742254,86.9221289 50.0773944,86.3087903 C51.2345872,85.5225381 52.311228,84.5270445 53.6275417,84.0122802 L53.6275417,84.0122802 Z M117.022286,79.6135522 L117.250141,79.4914753 C118.217746,78.9933226 117.363592,77.5339489 116.397254,78.0314674 C115.63016,78.4263082 114.943732,78.9516272 114.191147,79.3701913 L113.963239,79.4923207 C112.995845,79.990262 113.849789,81.4496357 114.816338,80.9523285 C115.583431,80.5572956 116.269859,80.0319591 117.022286,79.6135522 L117.022286,79.6135522 Z M91.3102244,63.2364062 L91.1361972,63.0682894 C90.3583099,62.3063716 89.1623239,63.5011348 89.9410563,64.263898 C91.885998,66.168152 94.185342,67.613964 96.5049376,69.0117899 L96.926831,69.2655027 C97.8616901,69.8266377 98.7124648,68.3653618 97.7799296,67.8054948 L97.1607688,67.4331074 C95.0984302,66.1889481 93.0602026,64.9046492 91.3102244,63.2364062 L91.3102244,63.2364062 Z M44.5394366,61.6579489 C45.1948036,60.8066199 43.7695809,59.9734548 43.1034624,60.7751853 L43.08,60.8045164 C42.3977796,61.6904968 41.5883016,62.4926041 40.7422755,63.2245821 L40.5832394,63.3610095 C40.0795775,63.7896279 39.1628873,64.7079449 38.4553521,64.7683911 C37.3795775,64.8599058 37.3698592,66.5515536 38.4553521,66.4591935 C39.5501408,66.365988 40.4921831,65.5951935 41.3192958,64.9347238 C42.5230986,63.973714 43.5999296,62.8778628 44.5394366,61.6579489 Z M134.457676,55.4985673 C135.243014,54.7605492 134.082987,53.5858604 133.290558,54.2779639 L133.262746,54.30317 C131.79507,55.682442 129.683873,56.0525164 127.794507,56.5202346 C126.739225,56.7818862 127.186268,58.4126651 128.243873,58.1508021 L129.104595,57.9382105 C131.035343,57.456175 132.972653,56.8947708 134.457676,55.4985673 Z M100.985282,44.8336201 C99.9306338,44.5654166 99.4806338,46.1957727 100.536127,46.4639763 C102.328732,46.9196475 104.02669,47.5086808 105.68831,48.3266064 C106.660986,48.8051035 107.51831,47.3476318 106.541408,46.8665986 C104.753662,45.9865359 102.915423,45.3243755 100.985282,44.8336201 Z M118.250683,9.19104162 C118.225331,9.11495551 118.305824,9.02830189 118.383782,9.05556608 C120.28053,9.76302737 119.272225,12.2481535 118.682899,13.7357667 L118.576035,14.0077148 C117.652796,16.3917461 116.362162,18.7123723 114.95512,20.8470103 C113.482585,23.0809829 111.847373,25.2198479 110.076951,27.2276757 C109.308876,28.0993782 108.512256,28.9460318 107.688872,29.7674881 L107.378852,30.0743528 C106.546669,30.8924898 105.47343,32.3296718 104.182373,32.171159 C102.792232,32.003981 102.01688,30.5183997 103.030965,29.3897892 C103.747373,28.5908851 104.740331,27.9545093 105.540824,27.2276757 C106.335401,26.5088733 107.104415,25.7672451 107.854204,25.0042706 C109.388218,23.4381649 110.841739,21.7832921 112.170613,20.0396522 C113.455846,18.3534731 114.685745,16.620669 115.804083,14.8191232 L116.026246,14.4578909 C116.877444,13.0566385 118.842444,10.9959731 118.250683,9.19104162 Z M51.0509155,26.9018158 C50.150493,26.285941 49.3041549,27.7505986 50.1978169,28.3616123 C51.8410563,29.4851504 53.2867606,30.8462463 55.0654225,31.7702698 C56.0177515,32.2652069 56.8646779,30.8468844 55.9522688,30.3288022 L55.9185211,30.3104733 C54.1411268,29.3866612 52.6933099,28.0245085 51.0509155,26.9018158 Z" id="ðŸ–-Ink" fill="#000000"></path>
                </g>
                <g id="head/Gray-Short" transform="translate(78.591549, 38.043053)">
                    <path d="M60.5918355,107.677045 C55.9124327,107.70411 51.9354885,106.373025 48.9009182,104.170967 C45.1141354,102.817268 40.5464682,100.729339 37.7720521,98.5374247 C36.6899033,98.8142935 35.3950353,97.6618004 34.5669269,97.0535342 C29.4176021,93.1987162 25.3757248,87.5562975 24.1780456,81.9043679 C22.3291376,84.2440157 19.6980804,84.3412368 17.1777046,83.1783875 C11.894508,80.1746771 12.0920481,73.8500196 13.9940832,69.1246497 C9.99542436,60.1302153 7.22417057,36.3858552 13.3280969,26.8030215 C14.5765841,25.3692211 16.4088372,24.5115616 17.7279498,23.0411977 C18.9018061,21.7570333 20.0183188,20.4434912 21.384023,19.427319 C25.5511286,16.2477652 32.7283491,14.5548493 37.2222286,13.7586928 C55.9815823,9.69273581 70.3950535,17.0008063 87.3877198,23.1652603 C86.409717,25.6169237 85.0568729,27.8527984 83.5064887,29.9375577 C87.7250348,31.5161331 85.7873708,35.0653386 82.5145717,36.8645636 L80.5661558,35.9151781 C83.6034668,46.8094403 90.5934775,73.9007436 87.5774595,82.6005558 C85.1724033,96.1734716 74.6173944,107.774912 60.5918355,107.677045" id="âœ‹-Skin" fill="#D08B5B"></path>
                    <path d="M87.3182408,23.2624418 C86.3402381,25.7141052 84.987394,27.9499799 83.4370098,30.0347392 C87.6555558,31.6133146 85.7178918,35.16252 82.4450927,36.9617451 L81.0363928,36.2745852 C80.4198687,32.289636 79.2328973,30.2095856 77.4754787,30.0344339 C74.594083,29.747262 68.2174439,35.1509917 65.4406338,35.1509917 C62.6638236,35.1509917 48.5566629,29.1069826 40.8073898,29.1069826 C33.0581168,29.1069826 26.4612535,35.5237422 23.8400345,40.1743553 C22.0925552,43.274764 23.3929197,46.7502602 27.741128,50.6008439 C25.140399,53.9427365 23.8400345,56.3444342 23.8400345,57.805937 C23.8400345,59.2674398 24.1439394,62.2881076 24.7517492,66.8679404 C21.9513987,65.9467025 19.7503836,65.4860835 18.1487037,65.4860835 C16.5470237,65.4860835 15.1567776,66.3752248 13.9779652,68.1535073 L13.9779652,68.1535073 L13.482454,68.1547217 C9.73146587,58.4748955 7.38248306,36.1254164 13.2586179,26.900203 C14.5071051,25.4664026 16.3393582,24.6087431 17.6584708,23.1383791 C18.8323271,21.8542147 19.9488399,20.5406727 21.3145441,19.5245005 C25.4816496,16.3449466 32.6588702,14.6520308 37.1527496,13.8558742 C55.9121034,9.78991729 70.3255746,17.0979877 87.3182408,23.2624418 Z" id="ðŸ’ˆ-Hair" fill="#ECDCBF"></path>
                    <path d="M63.3023988,108.845221 C57.2265295,109.470464 50.0083872,108.030469 45.9579068,103.082444 C45.8367837,102.934346 45.7837557,102.766661 45.7805936,102.604727 C45.7770774,102.42466 45.8373604,102.2507 45.9415347,102.115352 C46.0510203,101.973103 46.2068879,101.873931 46.3855734,101.841759 C46.5360201,101.814672 46.7075425,101.832099 46.8843789,101.931546 L47.2567519,102.139411 C50.0230433,103.671119 52.8959586,104.977354 56.0309363,105.536395 C59.2588004,106.111907 62.5455451,106.047541 65.744661,105.316607 C71.5719244,103.985593 76.287972,100.59017 79.7592316,96.1130496 C83.6329226,91.1168859 85.9590144,84.7746725 86.5519425,78.4320945 C87.2704259,70.7455603 85.6037466,63.1058586 83.8793827,55.6633495 C82.0674799,47.8431818 80.0869809,40.0628916 77.7863431,32.3729074 C77.7170025,32.1414195 77.6983698,31.9247414 77.7183908,31.7251841 C77.0398239,31.4586734 76.3176043,31.5326598 75.5988162,31.7759514 C74.2854686,32.2204863 72.9771077,33.2229202 71.8859516,34.0503912 C71.490761,34.3500814 71.1231059,34.6286453 70.7927344,34.8552919 C69.4397042,35.7834514 67.9605457,36.4512896 66.3068025,36.5563343 C64.5866413,36.6653085 62.9002602,36.1293765 61.3380402,35.4586782 C60.5443855,35.1179142 59.7634695,34.7644633 58.9856803,34.4123989 C56.7710025,33.4099302 54.5824655,32.4173456 52.1908257,31.7722653 C48.9862025,30.9076733 45.6775817,30.481823 42.3587335,30.5123283 C36.435578,30.5666368 30.4942533,32.0950817 26.8640003,37.1171596 C25.3934933,39.1515375 24.4347564,41.4897307 25.1824671,44.0004777 C25.5892197,45.366297 26.3568527,46.6062033 27.1946578,47.7465897 L27.4821103,48.1349467 C27.9416934,48.7609305 28.3408768,49.3843962 28.4612426,50.0481791 C28.562075,50.6042411 28.4834257,51.1925114 28.0873277,51.8372644 C27.8380938,52.2431449 27.5208103,52.6071101 27.2017785,52.9698904 C26.97166,53.2315649 26.7408819,53.4927564 26.5423296,53.7740052 C26.1421969,54.3409949 25.7879179,54.9516687 25.5100607,55.5885657 C24.9659593,56.8352851 24.7351609,58.1764079 24.6868879,59.5290008 C24.6284432,61.1608126 24.8573202,62.7571397 25.0843198,64.3557522 C25.2452775,65.489274 25.4058882,66.6239329 25.4707427,67.7723355 C25.48206,67.9727341 25.4209492,68.1220381 25.3353412,68.2325374 C25.2305845,68.3677531 25.0777226,68.4529792 24.9037588,68.4765888 C24.8509458,68.4837563 24.7962595,68.4848973 24.7413368,68.480024 C24.7683209,68.5904937 24.7921452,68.7014753 24.8128255,68.8128342 C24.7028649,68.6711211 24.5858794,68.533602 24.4624034,68.400672 C24.4545198,68.3966916 24.4466987,68.3925669 24.4389461,68.3882982 C24.311633,68.3181964 24.2037992,68.211348 24.1358322,68.0737833 C23.9609704,67.9108825 23.7758349,67.7563576 23.5816118,67.6110859 C22.5709254,66.8551294 21.3907376,66.4070162 20.2068488,66.392159 C19.0655487,66.3778361 17.9214519,66.7674292 17.0417718,67.590247 C15.2933431,69.2255037 14.7811923,71.8949723 14.7629163,74.1870118 C14.7443939,76.5266816 15.2845158,79.3345936 17.3193673,80.787256 C18.1356219,81.3699202 19.1325168,81.7200217 20.1367951,81.730152 C20.9693342,81.7385293 21.7659272,81.4432509 22.5502659,81.1619482 C22.792141,81.0751998 23.0328669,80.9889268 23.2729983,80.9105463 C23.5458397,80.8215432 23.7944828,80.8272011 24.0112102,80.8922761 C24.2554944,80.9656254 24.462818,81.1170952 24.617707,81.3191219 C24.7719968,81.520367 24.8731262,81.7723048 24.9044702,82.0361408 C24.9348164,82.2915776 24.8998924,82.5568221 24.7920075,82.7959424 C24.7649248,82.8561764 24.7363558,82.9146431 24.7066221,82.9717382 L25.1541923,83.7094727 C26.8678864,86.5270588 28.611564,89.2932224 30.8980804,91.7149847 C32.2105079,93.1050258 33.6016504,94.4168005 35.1275983,95.5650645 L35.3476864,95.7288673 C35.4793822,95.8257847 35.625456,95.9452719 35.7812474,96.0730358 C36.2263188,96.4380368 36.7597658,96.927552 37.2577946,96.9468264 C37.4055881,96.9525945 37.534593,96.9340613 37.6519484,96.9186201 C37.9355438,96.8813055 38.1734685,96.8703842 38.4072487,96.965992 C38.5952889,97.0428938 38.7904307,97.1864966 38.990827,97.4830796 C39.1263833,97.683814 39.1959551,97.9355764 39.1959551,98.1910194 C39.1959551,98.4476327 39.1255475,98.7043534 39.000238,98.9072596 C38.741014,99.3272996 38.4273558,99.5874276 38.0870828,99.7351543 C37.7077047,99.8998582 37.2884399,99.9250146 36.8526372,99.8435297 C35.7790573,99.6427954 34.5905654,98.7513101 33.8342857,98.1695153 L33.6879965,98.0571931 C32.012214,96.7757378 30.424024,95.3578564 29.0278994,93.7721443 C26.6502056,91.0718359 24.5148166,87.8897424 23.4179752,84.412871 C22.6448901,84.9219816 21.6897516,85.1636448 20.6911439,85.2017069 C19.2362426,85.2571608 17.6963708,84.8819099 16.5616728,84.3424431 C14.06094,83.1535981 12.5420386,80.9050143 11.8302046,78.3191845 C11.0035625,75.3162993 11.2722329,71.8639406 12.3187235,69.1663892 C12.3490564,69.0879729 12.3807446,69.0098554 12.4132668,68.9305239 C9.19152538,60.7476419 8.20089888,51.6611199 8.4768535,42.9284814 C8.6059364,38.8408983 8.88359142,34.5523266 9.84552296,30.5657675 C10.2766677,28.778973 11.0257501,27.0773709 12.2218539,25.6706734 C12.9037876,24.8685111 13.7405091,24.2440233 14.5810652,23.621248 C15.3090842,23.0818523 16.0398909,22.543641 16.6548316,21.8701607 L16.945609,21.550372 C17.0086416,21.4808232 17.071507,21.4113602 17.1342667,21.342014 C18.196175,20.1686608 19.2300249,19.0300969 20.518676,18.0678116 C22.0131605,16.9521037 23.6623497,16.0788151 25.3759904,15.3535363 C29.0676786,13.7916361 33.0410103,12.8551099 36.9716228,12.1305688 C45.4753444,10.5633776 54.2046765,10.4860462 62.604138,12.6889861 C66.509324,13.7130755 70.2993107,15.1148595 74.0828292,16.5149681 C74.4341195,16.6449648 74.7853555,16.7749413 75.1366379,16.9045955 C78.0768991,17.9899191 81.0187325,19.0706127 83.960595,20.1513171 C85.3277976,20.6535642 86.6950065,21.1558136 88.0621159,21.6585491 C88.35873,21.7676666 88.6491314,22.0027148 88.8145214,22.2947411 C88.9758835,22.5796555 89.0239675,22.9119262 88.8936719,23.242794 C88.0548362,25.3734517 86.9964307,27.3724135 85.708109,29.2391184 C86.1558068,29.5444123 86.5367939,29.9503873 86.824984,30.4255768 C87.1894823,31.0265889 87.4054133,31.7381014 87.4200854,32.4929228 C87.4691884,35.0209079 85.1744145,36.7345986 83.2705615,37.9740387 C83.0931069,38.0896794 82.9174305,38.1579339 82.7476856,38.1892521 C84.5924194,45.2604489 86.3583483,52.3555868 87.8588459,59.5069381 L87.9620494,60.0026512 C89.507804,67.486991 90.5051073,75.1248244 89.0432151,82.7085629 C87.784517,89.2390096 84.8602567,95.541599 80.2908276,100.406527 C75.8127727,105.174467 69.8038623,108.176055 63.3023988,108.845221 Z M23.2948225,65.7907594 C22.4992458,63.2597412 22.077643,60.5058804 22.3820403,57.940219 C22.573638,56.3274643 23.0573133,54.7748646 23.844841,53.3533681 C24.2959086,52.539237 24.8456456,51.785549 25.445608,51.0756887 L25.6525647,50.837278 C25.7573413,50.7155059 25.8615603,50.6035848 25.8938575,50.4632891 C25.9126265,50.3817587 25.8935198,50.292596 25.8440919,50.1860614 C25.7345666,49.9501139 25.5310225,49.7227148 25.3404742,49.5007507 C25.2193703,49.3596804 25.1010875,49.2212278 25.0017787,49.086523 C23.258132,46.7203049 21.9578001,43.9032405 22.380482,40.9026171 C22.7928167,37.9750645 24.706669,35.2461854 26.7441428,33.1896505 C31.2305457,28.6612267 38.1860978,27.6206234 44.2793951,27.870397 C47.8264459,28.0156769 51.3677249,28.6423822 54.7455847,29.7371162 C56.4112638,30.2770741 58.0399056,30.9346385 59.6225871,31.6883058 L59.9730191,31.8569768 C60.162125,31.9488262 60.3510415,32.0416991 60.5400869,32.1346373 C61.7771983,32.7428235 63.0189919,33.3569501 64.361928,33.687609 C66.9845456,34.3332067 68.7635966,32.9734558 70.633513,31.6021442 C71.2743594,31.1321767 71.9249978,30.655708 72.6165698,30.2375688 L72.7589028,30.1532002 C74.0065109,29.428154 75.4987548,28.940239 76.9322644,28.9621215 C78.1774402,28.9811291 79.3787971,29.3797048 80.3568744,30.3216058 C80.5575964,30.5151425 80.6731788,30.7262817 80.7274178,30.9364171 C80.8356251,31.0885065 80.9229837,31.2698678 80.9798822,31.4841257 C81.3302452,32.8020556 81.6790374,34.1209303 82.0266653,35.4402063 L82.3109173,35.2565868 C83.1529281,34.7083131 84.0683892,34.0817388 84.4818125,33.1644815 C84.6409229,32.8114357 84.6183871,32.2232625 84.4178527,31.7908246 C84.3477851,31.6397287 84.255115,31.5053889 84.1270381,31.4215349 C84.0338565,31.3605275 83.9215382,31.3318923 83.791022,31.3424309 C83.4736831,31.3833905 83.182327,31.3368588 82.9352422,31.2321757 C82.6503293,31.1114658 82.4230986,30.9128222 82.2756595,30.6734455 C82.1246912,30.4283388 82.0558842,30.1401579 82.0927859,29.8412945 C82.1245144,29.5843286 82.2348217,29.315974 82.4530574,29.0638225 C83.8895578,27.4039464 85.0992821,25.5729418 86.0186515,23.5855011 L79.9371632,21.3298574 C77.7687914,20.525999 75.6000507,19.7231708 73.4302785,18.9234347 L72.2423851,18.4858566 C68.2969868,17.0351167 64.3288855,15.6173491 60.2258623,14.6833414 C52.0717694,12.8272867 43.5688134,13.2635117 35.437272,15.0106212 L34.9460545,15.1170372 C31.5338173,15.8629459 28.0756997,16.7654337 24.9436984,18.3341607 C23.4063982,19.1041181 21.9451046,20.0403898 20.6901881,21.2233065 C20.1359968,21.7456848 19.6349312,22.3176323 19.1337094,22.8888036 C18.4312859,23.6892558 17.7280276,24.4875547 16.8928823,25.1618393 L16.1176428,25.7841549 C14.9643656,26.7157555 13.9241562,27.6234205 13.273419,29.0682247 C12.5929877,30.5786849 12.2682179,32.2474112 12.0032219,33.8732104 C11.334936,37.9688399 11.0711525,42.1300538 11.0963073,46.278603 C11.1388565,53.2443254 12.1944907,60.0681539 13.5281025,66.8679404 C14.5980776,65.3328347 16.1010991,64.1427594 18.0302232,63.8889929 C19.2879145,63.7236066 20.5348109,63.9586583 21.6160297,64.5161653 C22.2409466,64.8383901 22.8104857,65.2683051 23.2948225,65.7907594 L23.2948225,65.7907594 Z M21.2736558,74.0620746 C19.8649334,73.514942 18.3858493,73.3357765 16.8954501,73.5974007 C16.7393032,73.6246647 16.5903882,73.5920782 16.4652219,73.5191698 C16.3383323,73.4452576 16.2383289,73.3283465 16.1840333,73.1992593 C16.1212711,73.0500433 16.1180726,72.8885362 16.1734624,72.7450822 C16.2215132,72.6206357 16.3130885,72.4997727 16.4814981,72.4190477 C18.0953381,71.6470013 19.8890965,71.3062916 21.6694935,71.5487105 L21.8454491,71.573756 C22.7556573,71.7090889 24.0355917,71.993894 24.9954321,72.5545119 C25.7495319,72.9949621 26.3014872,73.6021296 26.4387919,74.3953233 C26.5104084,74.808619 26.4080643,75.2401255 26.1704108,75.5529205 C25.9406546,75.8553214 25.5894293,76.0569142 25.1347809,76.0439605 C24.3328349,76.0210872 23.8580082,75.6813318 23.286722,75.2412839 C23.2174148,75.1878982 23.1463448,75.1331414 23.072465,75.0777089 C22.5204449,74.6636573 21.9172393,74.3119831 21.2736558,74.0620746 Z" id="ðŸ–-Ink" fill="#000000"></path>
                </g>
                <g id="face/Smile" transform="translate(112.183099, 77.354207)" fill="#000000">
                    <path d="M30.968993,50.9198978 C29.548794,50.3403012 28.2816173,49.3734958 27.3551889,48.1384646 C27.0331038,47.7091169 26.9495926,47.2557326 27.017159,46.8410547 C27.0931327,46.3747786 27.3688808,45.9521824 27.7449394,45.6687178 C28.1221628,45.3843752 28.5940214,45.2441445 29.0502103,45.3156301 C29.4466117,45.3777469 29.8412104,45.5948709 30.1535058,46.0451781 L30.2187521,46.1352289 C30.7695298,46.8806513 31.4872438,47.4922614 32.3050288,47.8864795 C33.0932406,48.2664417 33.9747757,48.4437847 34.8870208,48.3406561 C36.6244504,48.1443157 37.8219743,47.2043274 39.0948115,45.9278391 C39.2525834,45.7666792 39.4104563,45.6004672 39.5690946,45.4315797 C39.6692778,45.278484 39.8083069,45.1800892 39.962667,45.1284632 C40.1340565,45.0711416 40.327938,45.0743848 40.5055187,45.1363808 C40.6767961,45.1961763 40.8299095,45.309486 40.9325762,45.4602937 C41.0301525,45.6036243 41.0854754,45.7806897 41.0675245,45.9843589 C40.9510195,47.3072301 40.2596776,48.4878363 39.2776553,49.4148615 C38.1869942,50.4444414 36.7412431,51.1567117 35.3801317,51.4065272 C33.8805866,51.6817086 32.3525901,51.4845569 30.968993,50.9198978 L30.968993,50.9198978 Z M36.0875289,30.5120405 C37.6828906,31.482148 40.1137318,33.7442494 38.3974899,36.149264 C36.3773089,38.2698449 33.4687045,35.8384541 32.0353946,34.7388307 C30.7063626,33.8866164 29.2131206,36.0784478 30.4461973,37.0735516 C40.8033244,44.7445605 45.006466,30.7657101 36.8944406,29.3714319 C36.0012775,29.2177885 35.6695544,30.2119271 36.0875289,30.5120405 Z M17.5274577,21.5886716 C17.7037243,19.3998697 21.0359789,18.9028321 21.3674577,21.0687499 C21.6642887,23.0089456 21.3148521,24.7912626 20.4412606,26.5380728 C19.6065423,28.2068947 17.5085456,27.4283107 17.3498837,25.9087021 C17.1372039,23.8717299 17.4178099,22.9502317 17.5274577,21.5886716 Z M42.8930282,20.6196517 C43.3576056,20.0109628 44.0283803,19.5954481 44.8320423,19.8302583 C47.3429577,20.5642779 46.6028873,24.1303914 45.7210563,25.8662114 C45.2419014,26.8088337 43.6930986,27.0478708 42.993169,26.2178982 C41.8523239,24.864411 41.3059859,22.1614521 42.756338,20.8282544 C42.7956338,20.7593542 42.8393662,20.68982 42.8930282,20.6196517 Z M20.4058944,12.0111429 L20.802522,11.9416942 C22.0295218,11.7294045 23.5551549,11.5254176 24.4231479,12.5122544 C24.8835,13.0355577 25.0419507,14.0081918 24.4231479,14.509092 C23.3346972,15.3904227 22.1313169,15.0488806 20.8269507,15.1234873 C19.7520211,15.1852016 18.7189225,15.3631585 17.6835,15.6592603 C15.4119507,16.3087397 13.5610352,17.4944149 11.6209648,18.7963327 C11.3663873,18.9671037 11.1065282,18.6414129 11.228007,18.4032211 C12.3479366,16.208771 14.5182887,14.4061644 16.6922324,13.3073542 C17.8525141,12.7208571 19.1222324,12.2343288 20.4058944,12.0111429 Z M40.6041287,11.0281289 L40.9077055,11.0902829 C44.2113469,11.7811043 48.5035506,13.1610768 50.0679842,16.4073021 C50.1275964,16.8663298 50.0646105,16.9647086 50.0133917,17.0289838 L49.9963385,17.0503723 C49.9541341,17.1052595 49.9204583,17.1809212 49.7215736,17.2433957 C49.6663832,17.2302408 49.6106433,17.216308 49.5543131,17.2015401 C48.8372041,17.0135386 48.2698321,16.7545401 47.720556,16.4857982 L47.1250012,16.192275 C46.4340388,15.8533498 45.7369757,15.5267598 44.9982488,15.2856588 C43.4217423,14.7712438 41.8001698,14.4088706 40.1534741,14.2153715 C39.7965654,14.1734678 39.4528848,14.0529641 39.1817455,13.8464404 C38.92438,13.6504079 38.7277692,13.3789964 38.6381257,13.0182314 C38.5219478,12.5513438 38.5553348,12.1978716 38.8057421,11.7766707 C38.9940329,11.4603578 39.263447,11.2411116 39.5728025,11.115213 C39.888177,10.9868648 40.2472278,10.9566068 40.6041287,11.0281289 Z" id="ðŸ–-Ink"></path>
                </g>
                <g id="mask/medical-mask" transform="translate(83.450704, 97.432485)">
                    <path d="M83.0825493,14.8698035 C82.6843099,9.82212446 76.3219859,7.68389354 73.1529718,7.04984266 C62.6005775,4.56816751 53.6229718,10.9353065 41.0402958,11.0654982 C39.7703662,11.0853652 36.1386761,10.871056 34.4498028,10.4248955 C25.881,8.47709119 17.3210704,6.40522427 8.91346479,3.85063327 C7.67733803,4.14018317 7.3116338,5.75426536 8.16029577,6.67385049 C16.2129718,9.53067241 28.5326197,12.0888564 35.0383944,12.3800971 C34.9135352,20.7876117 30.4769155,29.2416235 24.3501549,33.8913299 C34.0944507,44.6712517 56.8202958,48.2164415 70.1948028,42.5579601 C76.7738873,40.5826802 83.7163521,22.9011147 83.0825493,14.8698035" id="ðŸŽ¨-Color" fill="#FFFFFF"></path>
                    <path d="M8.23354225,4.10507789 C7.87121831,4.09091742 8.08248592,3.03416595 8.89861268,3.18485871 C19.4290352,5.64856908 32.5487535,10.341391 43.3726268,10.3069409 C51.3350915,10.0461346 58.4698099,5.60989198 66.4762183,5.58305049 C71.8582606,5.68618943 78.7210775,6.45191155 82.4875563,10.7723342 C87.4555141,26.5344164 76.2682606,47.9729448 58.6660775,48.0970074 L55.3344357,47.8558609 C43.978046,47.0188669 31.5368535,45.6797202 24.216993,36.041164 L24.1599507,36.0901973 L24.1599507,36.0901973 C23.0653732,35.3555436 23.1264296,33.768937 24.0566408,32.9529135 L24.0843169,32.9964517 L24.0843169,32.9964517 C24.1020634,32.967708 24.1217113,32.9402325 24.1407254,32.9121229 L24.1288944,32.8751366 L24.1288944,32.8751366 C24.4867817,32.4993558 24.8936831,32.1478802 25.2636127,31.8331796 L25.2655141,31.8393088 L25.2655141,31.8393088 C30.7618521,27.2582912 34.3506549,20.3312853 34.5572746,13.1582677 C32.7376268,13.6583225 2.16593662,7.3178137 7.62319014,5.7705182 C11.5265704,7.09061213 15.4529789,8.28283914 19.4586127,9.23180196 C19.5257958,9.19397025 19.6221338,9.20390372 19.6591056,9.27851037 C24.5592465,10.4848978 29.5582606,11.1743225 34.5638239,11.7324986 C34.5585423,11.4932501 34.5494577,11.2540016 34.5372042,11.0143303 C25.6369225,9.28104658 16.9115704,6.7076454 8.23354225,4.10507789 Z M80.3017817,10.5020172 C62.0463592,1.27636556 52.984669,14.9061346 35.3292465,11.1533988 C37.1763592,19.3973284 32.6153028,28.2848196 26.4203028,33.6712932 C35.4215704,41.4650466 39.3173451,42.6452266 51.1250915,43.9101581 L52.6676413,44.0939068 C54.986901,44.36868 57.3279277,44.6249832 59.6543873,44.6651014 C71.721993,43.7865182 80.8405141,31.226393 82.2050915,19.8462364 L82.2124871,19.5318664 C82.2736535,16.6437406 82.1410478,13.5866266 80.8620634,10.9407804 C80.6265,10.8587765 80.4217817,10.7110427 80.3017817,10.5020172 Z M54.8870915,17.744083 C55.5179366,17.6020556 56.161669,18.2906348 55.7706127,18.8936172 C54.5070211,20.8433237 51.4168099,21.5986896 49.2555423,21.9051476 C46.7526549,22.2600047 44.3264577,21.9801769 41.9488521,21.1261104 C41.8214577,21.0802474 41.8305423,20.8549479 41.9830775,20.8731241 C44.2406831,21.1419616 46.568007,20.9451945 48.7615986,20.3474959 C50.9858239,19.9140164 52.7818099,18.4341417 54.8870915,17.744083 Z M72.0396905,16.3396814 C72.0292183,15.9691843 73.8499225,17.041153 74.1378803,17.1855053 C76.3616831,18.5212391 78.9357676,18.6190943 81.3883732,19.1434544 C81.9600634,19.362836 81.9592183,20.089881 81.388162,20.3092626 C78.3271056,21.1235953 73.6815423,18.9864211 72.0396905,16.3396814 Z" id="ðŸ–-Ink" fill="#000000"></path>
                </g>
                <g id="accessories/Glasses" transform="translate(88.521127, 88.978474)" fill="#000000">
                    <path d="M82.2021338,13.3747538 C80.1879085,27.0045229 66.1272042,28.5118732 63.6289648,14.9808047 C64.0299507,14.8051726 64.318331,14.4594035 64.2581197,13.788155 C64.2439648,10.8393957 65.1589648,7.72282427 67.8179789,6.08295734 C70.5657254,4.39088689 73.7814296,4.22307476 76.9612183,4.26576751 C83.0292465,4.12120391 82.9016408,9.19509041 82.2021338,13.3747538 M61.4277676,7.44701213 C59.5234014,7.36669902 57.1141056,7.43390841 55.4081197,8.59464423 C54.9391056,7.33119217 53.7205141,5.98214325 52.4892465,5.2608047 C57.0657254,5.39480078 61.7765704,4.94420196 66.3872746,4.59441722 C65.2836127,5.34703562 64.2568521,6.47775969 63.5894577,7.78496125 C62.9702324,7.45462074 62.083331,7.48547789 61.4277676,7.44701213 M53.0336831,14.8197558 C47.7530493,33.0034896 34.5718521,25.0778536 33.1348099,22.7475053 C30.5427676,18.8912078 30.055162,9.51697691 32.3129789,7.01057378 C35.5449507,4.74405323 40.1203732,5.32738004 43.9384014,5.27179491 C50.9526972,5.36647984 55.9343873,7.46561096 53.0336831,14.8197558 M88.4372746,6.45641331 C87.0025563,6.26873425 85.4693873,6.23090254 84.1354437,6.86283992 C83.7247394,5.11645245 82.4353732,3.65644462 80.9795282,3.01393973 C80.803331,2.79286732 80.8297394,2.67408845 80.227838,2.70727045 C76.5317113,1.59599061 72.3957254,2.18396712 68.8438944,3.32356791 C63.2343169,3.79614716 57.3490352,4.16875773 51.6923451,4.81992798 C46.393331,2.43927828 30.4018521,2.09033894 29.4080493,7.95805714 C28.1579789,7.77101213 26.0290352,6.78675382 24.9786127,8.12185362 C17.2734718,6.81507476 9.31185211,8.63120783 1.57333099,9.4400454 C-0.374556338,9.7989182 -1.3778662,13.6662059 0.833260563,13.6133683 C2.07635915,13.2758419 0.795021127,11.2052431 2.46889437,11.0494779 C9.93530282,10.2336658 17.2384014,9.07631155 24.7812887,8.94083601 C24.5188944,10.2438106 29.770162,10.328562 29.8476972,9.56770098 C29.8588944,9.57340744 29.8707254,9.57721174 29.8821338,9.58228415 C28.5845282,14.4200924 29.7557958,21.3823937 32.1008662,24.3822998 C35.3865,28.3104564 43.6354437,29.4373761 47.2931197,26.9100493 C52.0113592,24.5773761 56.9197394,12.8681472 55.541007,8.97803366 C58.0432606,8.18462466 60.516993,8.42281644 63.1138944,8.8269182 C62.5193873,10.5069417 61.4930493,14.6426442 62.9695986,15.0013057 C62.6985423,23.2122646 70.168331,28.335607 77.0543873,24.9673174 C83.0144577,22.1684055 85.0988239,13.3090239 84.3695282,7.93163836 C85.1115,9.36586145 91.3413592,7.80440548 88.4372746,6.45641331" id="ðŸ–-Ink"></path>
                </g>
            </g>
        </g>
    </g>
</svg>