<?xml version="1.0" encoding="UTF-8"?>
<svg width="168px" height="242px" viewBox="0 0 168 242" version="1.1" xmlns="http://www.w3.org/2000/svg" xmlns:xlink="http://www.w3.org/1999/xlink">
    <!-- Generator: Sketch 62 (91390) - https://sketch.com -->
    <title>bust-mask-4</title>
    <desc>Created with Sketch.</desc>
    <g id="Introduction" stroke="none" stroke-width="1" fill="none" fill-rule="evenodd">
        <g id="busts-covid-19" transform="translate(-1631.000000, -236.000000)">
            <g id="a-person/bust" transform="translate(1595.000000, 188.000000)">
                <g id="body/Button-Shirt-1" transform="translate(31.056338, 135.052838)">
                    <path d="M16.4080859,150.90384 C44.0091126,155.097875 72.110833,155.308803 99.9412125,153.785813 C110.955417,152.960912 122.003382,152.812333 133.008725,153.866971 C139.511834,154.350752 168.024575,156.531042 170.354182,150.704325 C168.887971,119.677046 165.918412,88.3855779 156.808658,58.5450299 C153.062212,47.9494056 149.844501,39.1551718 142.532432,30.3870935 C140.227934,27.9931287 135.258075,22.9722586 132.410472,21.3347165 C129.943295,19.9163447 128.912122,20.4223498 127.495494,18.0264829 C126.087755,15.3798047 125.049434,10.9596359 123.050581,9.09206097 C121.015401,7.19054559 117.999291,7.87086804 114.260943,8.48333207 C114.947737,-0.80142027 110.66361,-3.16608555 104.761628,-4.9317059 C94.3873743,-8.89262175 84.1417256,-6.90277317 81.5306494,5.73111332 C76.6892273,5.73111332 73.969718,7.81536874 71.0297141,9.81803688 C69.8278884,10.636695 70.6639235,12.7224375 69.2283982,13.3658809 C66.5724287,14.3118839 61.8789491,14.0801679 59.3216619,15.2444183 C47.6927323,20.5386947 37.3352428,28.2161425 30.5332167,39.4286072 C15.2838989,63.3674096 4.80878886,113.794744 6.62145596,142.167676 C5.82726681,143.413586 6.92550127,145.20013 7.20464905,146.539879 C7.55701246,147.705265 8.69807912,148.480498 9.88894084,148.347981 C11.5507458,150.135793 14.1210997,150.533766 16.4080859,150.90384 Z" id="âœ‹-Skin" fill="#D08B5B"></path>
                    <path d="M73.8305773,7.62832499 C75.5312338,5.85331757 78.1978473,4.79369456 80.7231322,4.85332725 L80.8413972,4.85694384 L81.6986589,4.89535575 L81.1258349,7.70686366 L81.0969803,7.84012976 L80.9801555,8.32825947 L80.8245702,8.96732905 L80.7692273,9.20226174 L80.7108575,9.46234152 C80.7016401,9.50457462 80.6926657,9.54632085 80.6839157,9.58768511 L80.6583198,9.71073677 L80.414094,10.9052524 L80.4597046,11.0114148 L80.4465054,11.2828499 C80.4086487,12.2640547 80.6199609,12.8034081 81.0855243,12.9764107 L81.1228076,12.989309 L81.3883283,13.0745582 L81.6050925,13.5449811 C82.1037706,14.6207709 82.5689876,15.560486 83.0466304,16.4455838 C84.4395941,19.0267491 86.101525,21.607146 88.0176794,24.2002292 C89.838272,26.6642227 91.7348113,29.0161122 93.7066695,31.2494111 C94.5932971,32.2534842 95.5298602,33.261675 96.5266685,34.2880812 L97.3847893,35.1671663 L97.6576545,35.44347 L97.8412184,35.626685 L98.0701645,35.8509689 L98.4001024,36.1656091 L98.6392115,36.4010745 L98.7167616,36.4747577 C98.8143113,36.5654193 98.8896913,36.6267242 98.9576896,36.6703558 L98.9828718,36.6859121 L99.0583549,36.730708 L103.036418,40.9161487 L104.44147,41.6889972 L105.108742,42.0589198 L105.243953,41.7898708 L105.271202,41.7034434 L106.749941,38.4551681 L107.652686,36.4657482 C109.505749,32.3727447 110.947494,29.1166941 112.265893,26.0164419 L112.430072,25.6296725 L112.916147,24.4761455 L113.173464,23.8606968 C114.351917,21.0356381 115.222489,18.8552111 116.001553,16.7371803 L116.112249,16.4349661 L116.276264,15.9824113 L116.520038,15.2998654 L116.564322,15.1832653 C116.775934,14.6413874 116.256111,12.6716549 115.744112,11.592638 L115.715144,11.5325284 L115.582029,11.2651132 L115.437965,10.9831384 C115.099407,10.3222039 114.854148,9.588568 114.647971,8.70050688 C114.614589,8.55677168 114.583169,8.41200359 114.553632,8.26602459 L114.510728,8.04612566 L114.483531,7.90175342 L114.445502,7.69970254 L114.391206,7.41024006 L115.536965,7.21867278 L116.165566,7.11612068 L116.439604,7.07311672 C116.794812,7.01825807 117.111011,6.97312544 117.408546,6.9353924 L117.519286,6.92158482 L117.718556,6.89798218 L117.725643,6.93736204 L118.134417,6.97768017 L118.437981,7.0090958 C119.933005,7.16724701 121.08623,7.34155361 121.905126,7.5347071 L121.985901,7.55408538 L122.132162,7.59097123 L122.198949,7.60867319 C122.943754,7.80925068 123.517747,8.24268634 123.971954,8.88184547 C124.283511,9.32026723 124.485721,9.74022557 124.805679,10.5359899 L124.920436,10.8232775 L125.301298,11.7651031 C125.345845,11.8798414 125.414688,12.0630064 125.507969,12.3149728 L125.831147,13.1951505 L127.450925,17.6699413 L129.1086,18.542429 C129.879145,18.94571 130.442695,19.2365567 130.721076,19.3740647 L130.819787,19.4221054 L130.890394,19.4544271 L131.461675,19.6809562 L131.400362,19.859319 L131.46933,19.8988114 C138.293798,23.8259973 143.55653,29.8674158 147.653846,37.8879446 L147.777651,38.1315965 L147.90454,38.3840516 C151.170105,44.9170648 153.509615,52.2077337 155.79402,61.9412316 L155.935261,62.546434 L156.046501,63.0276932 L156.642009,65.6252674 C158.879732,75.4325196 160.417478,82.745813 161.690058,89.9216146 L161.77268,90.3894309 L161.984779,91.6084902 C163.582864,100.896534 164.921013,110.100353 165.991643,119.214073 L166.169332,120.747765 C166.616102,124.663876 167.019731,128.71177 167.457627,133.57272 L167.516223,134.225725 L167.709101,136.409081 C167.914292,138.762052 168.101863,141.110056 168.271708,143.452944 L168.355153,144.62396 L168.526573,147.170237 L168.627276,148.621325 L168.639459,148.817648 L168.680298,149.573931 L168.691549,149.751367 C168.706965,149.978661 168.724268,150.170535 168.746232,150.347762 L168.763622,150.47826 L168.78302,150.605214 C168.839524,150.951733 168.951131,151.262396 169.135962,151.608708 L169.183706,151.69607 L169.500849,152.263485 L168.925911,152.56648 C165.928325,154.146225 160.0264,154.841225 151.930016,154.878253 L151.684,154.878253 L151.177777,154.878253 C147.243649,154.876012 143.07398,154.724325 138.723375,154.464912 L137.739319,154.404714 L136.918196,154.352295 C136.564454,154.329206 136.220129,154.306026 135.863149,154.281292 L135.315426,154.242842 L133.027777,154.075378 C122.737422,153.089257 111.94597,153.10575 100.05532,153.996162 C69.0547542,155.692638 42.2971196,154.976858 17.1474827,151.221644 L16.3858619,151.106918 L15.8246419,151.015628 L15.489904,150.959522 C12.8222431,150.503966 11.1471995,149.919989 9.84016839,148.694613 L9.77171371,148.629525 L9.71465741,148.573761 L9.68993089,148.573995 C8.37388782,148.568431 7.16911347,147.707065 6.72208432,146.437107 L6.69886489,146.368685 L6.66937939,146.273905 L6.64901497,146.179474 C6.62818959,146.088336 6.60218808,145.989951 6.57057226,145.881997 L6.54580086,145.799202 L6.33802817,145.118397 L7.03796977,144.99035 C7.09827264,144.979319 7.16098146,144.937286 7.22180619,144.849057 L7.2801098,144.76576 L7.38104485,144.625662 L7.62485493,144.291349 C7.88455067,143.92706 8.01231167,143.698358 8.07562678,143.468709 C8.13163765,143.265272 8.15262166,143.004666 8.14654495,142.641904 L8.14184794,142.464802 L8.1142666,141.822441 C8.11246409,141.770892 8.11123275,141.725842 8.11044387,141.682357 L8.10957629,141.617687 L8.10912078,140.713462 L8.11136397,139.719401 C8.11297474,139.285846 8.11541669,138.862656 8.11874093,138.447283 L8.12439538,137.829769 L8.13003289,137.331919 C8.16373807,134.578676 8.24451339,131.82769 8.37236337,129.081228 C8.62229917,123.718854 9.05100678,118.364405 9.6574976,113.029943 C10.9097497,102.017496 12.8278994,91.3368104 15.4372168,81.0153544 L15.6993078,79.9845887 C18.5206702,68.9539701 21.2408641,60.4500074 24.6983059,52.5860859 C29.0957109,42.5842259 34.4574337,34.3525323 41.2084127,27.771779 C44.9200609,24.1532682 49.0306302,21.0993399 53.3988795,18.756923 C55.4078651,17.6797018 57.5430213,16.7237184 59.8327063,15.8637648 L60.1608584,15.7415648 L60.6905259,15.5479394 L61.0968537,15.3979067 L62.4062066,14.9084488 C62.6814235,14.8053497 62.9809313,14.689848 63.3351036,14.5505283 L63.5544096,14.463987 L65.8991197,13.5283141 L66.2883922,13.3750855 L66.7213519,13.2066289 L67.0395577,13.0844423 C67.5598637,12.8859173 68.0310093,12.7126738 68.4683748,12.5599908 L68.7268635,12.4708105 L68.9614564,12.3918277 L69.9621801,12.0454387 L69.9426572,12.9560571 C69.9296773,13.5614858 70.08559,14.0190804 70.4318639,14.3477254 L70.4434853,14.3581693 L70.4554307,14.3677547 L70.4661363,14.3747789 L70.5267243,14.3731017 L70.7631863,14.3719599 C70.7876156,14.3585683 70.8105792,14.3427931 70.8319658,14.3246337 C71.1684683,14.0386771 71.3249395,13.6552604 71.4768599,12.776029 L71.5170884,12.5314372 L71.587219,12.0730979 L71.6151972,11.8996943 C71.7163391,11.2895954 71.8045069,10.9526088 71.9759989,10.5671092 C72.2236969,10.0099383 72.5512555,9.46734951 72.9367638,8.96866706 L73.0267459,8.85437924 L73.3867371,8.42130861 L73.4419683,8.35301471 C73.5681314,8.19130413 73.6328438,8.07713246 73.6599095,7.97242589 L73.6663755,7.94407562 L73.7023271,7.76218219 L73.8305773,7.62832499 Z" id="ðŸ‘•-Top" fill="#FFCF77"></path>
                    <path d="M130.652997,20.6328663 C130.48356,20.5383927 130.632715,20.2961853 130.802997,20.3762871 C138.98856,24.21779 145.268067,30.9575395 149.686518,38.7447411 C154.261747,46.8080391 156.869391,55.9629185 159.117526,64.910794 L159.198631,65.2341188 C161.595884,74.8061736 163.634194,84.4771403 165.469264,94.1717782 C167.327785,103.989211 168.819546,113.867512 170.019546,123.786604 C170.613208,128.690988 171.142433,133.604037 171.55525,138.527019 C171.761447,140.987136 171.948842,143.449156 172.117222,145.912232 C172.18449,146.897294 172.247836,147.882355 172.302178,148.868282 L172.341166,149.607903 C172.374757,150.278729 172.454405,150.951246 172.288771,151.612984 C172.145743,152.183418 171.843842,152.699958 171.578278,153.223684 C171.053067,154.258878 169.613278,154.088318 169.047293,153.223684 L168.882934,152.971819 C168.507609,152.391512 168.195752,151.852206 168.077997,151.130048 C167.964123,150.43069 167.959898,149.697939 167.908771,148.991606 C167.814757,147.692013 167.734687,146.391152 167.643419,145.091136 C167.4518,142.354573 167.236518,139.6197 166.998208,136.886941 C166.52687,131.492013 166.021307,126.101947 165.400391,120.721813 C164.297152,111.160326 162.912715,101.624201 161.280673,92.1387998 C159.686081,82.8727379 157.6702,73.7006838 155.567185,64.5401633 L155.349335,63.592561 C151.667152,47.5988389 145.992081,29.1800835 130.652997,20.6328663 Z M43.4655179,83.2606925 C43.5257291,83.1007004 43.7847432,83.0639254 43.8284756,83.2606925 C44.3798841,85.7442698 44.4343911,88.3022424 44.5186869,90.8449978 C44.601715,93.3533031 44.5983348,95.8730213 44.5617855,98.382806 C44.4269967,107.606767 44.1738981,116.822908 43.9550249,126.045389 C43.8455883,130.658532 43.7429122,135.272309 43.6641094,139.886086 C43.6343207,141.616569 43.6092855,143.346934 43.588469,145.077447 L43.5630066,147.359793 C43.5503449,148.368875 43.5238602,149.365618 43.40087,150.37371 C43.3197432,151.036716 43.1469263,151.669076 42.7810108,152.237397 C42.5213257,152.640803 42.1512257,152.845571 41.790483,153.119709 L41.7229827,153.171988 C41.2628418,153.535722 40.7781939,153.538258 40.3224897,153.171988 L40.1901636,153.067243 C39.7548555,152.726696 39.3786421,152.460621 39.1007291,151.922062 C38.7141094,151.173248 38.652208,150.359761 38.5865038,149.534649 C38.4867855,148.283456 38.5529122,147.013875 38.5657996,145.759088 C38.5915742,143.241906 38.6264334,140.725147 38.6705883,138.208176 C38.8326305,128.978297 39.1529122,119.746728 39.7366446,110.533334 C40.0116405,106.193542 40.3845125,101.839708 40.8846751,97.5174705 L40.9799545,96.7074323 C41.1316446,95.4357375 41.2700249,94.1414283 41.4259404,92.8428921 C39.0984052,91.2051387 37.0524897,89.2180233 35.3078418,86.963761 C35.1793911,86.797851 35.39087,86.5651544 35.5459404,86.7257806 C37.3286165,88.5723481 39.3726305,90.0444029 41.6355179,91.2019685 C42.0062925,88.4837923 42.5160812,85.7801994 43.4655179,83.2606925 Z M82.3498488,0.984982161 C82.3817503,0.960254177 82.4316094,0.949475312 82.4620319,0.984982161 C82.9623136,1.56846268 82.8608617,2.46057906 82.876985,3.19997643 L82.8788629,3.26883343 C82.9147784,4.34989018 82.921539,5.42756533 82.9179474,6.50925613 L82.9067503,9.95236377 L82.9067503,9.95236377 C82.9052479,10.4257884 82.8668546,10.9185842 82.8911333,11.3948292 L82.9037925,11.579127 L82.9037925,11.579127 C83.1666094,11.8483872 83.2887221,12.2374831 83.1995672,12.6282698 C83.1835108,13.1295927 82.921539,13.547855 82.5393559,13.8107747 L83.3584668,14.973307 L83.3584668,14.973307 L84.17837,16.1352053 C85.8682996,18.5329743 87.5768207,20.909397 89.3573841,23.2412248 C91.1730179,25.6187043 93.1099193,27.9065712 95.1368207,30.1063051 C96.1270319,31.1812327 97.1341446,32.2411544 98.164708,33.2774049 C98.5834932,33.6985732 99.0127362,34.1092796 99.4371959,34.5245929 L99.8594967,34.9419998 C100.109004,35.1916045 100.422947,35.4384616 100.588581,35.754853 C100.685976,35.9414753 100.708159,36.4013736 100.743018,36.4774597 C101.055694,37.1649822 100.522243,38.2612561 99.6357643,37.9182346 L99.67599,37.8914583 C99.8373895,37.7791621 99.7339674,37.7775336 99.3655531,37.8867434 C99.1331587,37.8859749 98.9152563,37.8324561 98.711687,37.7265046 L98.651046,37.6931465 C98.3643721,37.5474124 98.1084808,37.2653535 97.8755622,37.0398 L97.8178066,36.9847004 C97.285201,36.485491 96.7775249,35.9560585 96.2671024,35.4342346 C95.2016798,34.3455692 94.1603418,33.2336554 93.1521728,32.0919411 C91.1409052,29.8140076 89.234215,27.4437141 87.4285108,24.9998706 C85.589215,22.5107982 83.8796376,19.8938589 82.4094263,17.1695536 C81.8514686,16.135628 81.3399897,15.0818354 80.8496376,14.0157845 C79.8951305,13.7093266 79.6735108,12.6937884 79.7400601,11.5497493 C79.387877,10.7292874 79.0705531,9.89191758 78.8829474,9.03637159 C78.8573841,8.91907218 79.0080179,8.80853598 79.0982291,8.91104087 C79.4035108,9.25807805 79.6861869,9.62751836 79.957877,10.0064694 C80.1218207,9.20439508 80.3292855,8.4661485 80.4268911,7.9954714 L80.8500601,5.91832071 L80.8500601,5.91832071 C78.4654827,5.79404674 75.8525249,6.77407805 74.2086517,8.48981973 C74.1203418,8.93661426 73.7766094,9.25638725 73.441539,9.67401543 C73.0587221,10.1514557 72.724708,10.6872287 72.4756235,11.2475184 C71.9231587,12.4894127 72.2349897,14.3194949 71.1628066,15.230626 C71.051046,15.3255223 70.9261869,15.3914636 70.7973136,15.4322542 C71.3060822,17.9278181 71.0751969,20.6776752 71.0641059,23.2094698 L71.0637221,23.4322855 C71.0662573,26.2658589 70.9716094,29.1017571 70.8621728,31.9330056 L70.7508348,34.7350828 C70.6065643,38.4721415 70.5128629,42.2110127 70.8759052,45.9275653 C72.5332996,44.4591035 74.2471024,43.0576397 76.0198488,41.7225399 C77.1854827,40.8444499 78.3744863,39.9975875 79.5850792,39.1825466 L80.5687281,38.5250326 C81.7474319,37.7343115 82.9547723,36.9206888 84.2453418,36.3544538 C85.93337,35.6140937 87.5385812,35.8685595 89.1682996,36.6279411 C90.7912573,37.3843638 92.3658348,38.2629469 93.9577362,39.0827747 C95.5768911,39.9163403 97.1994263,40.7429313 98.8209052,41.5716358 C99.8949897,42.1207238 101.468933,42.6163403 102.25675,43.6270174 C102.307032,43.4034088 102.365553,43.1804342 102.434004,42.9583051 C102.355835,42.6195105 102.386046,42.2534518 102.575976,41.9045125 C105.223159,37.0385947 107.672384,32.0564342 110.104497,27.0804029 C111.335553,24.5621642 112.505976,22.014125 113.739356,19.4973657 L114.938354,17.046172 C115.138699,16.6378432 115.339638,16.2298197 115.54168,15.8224068 C115.844215,15.2124499 116.159215,14.6084107 116.465131,13.9999332 C116.594426,13.7428709 116.756473,13.4875166 116.882354,13.2280142 L116.941962,13.0978902 C116.944841,13.0910992 117.235344,12.1772198 117.010948,12.2643298 L116.991609,12.273624 C116.877102,12.3385086 116.785412,12.1943677 116.859567,12.1024303 C117.176891,11.7099528 117.618863,12.057624 117.799919,12.4209352 C118.298816,13.4207786 117.384706,14.9902808 117.033082,15.9476785 L117.013793,16.0012092 C115.922595,19.0909391 114.687102,22.1227591 113.421187,25.1440115 C110.993933,30.936489 108.386469,36.639988 105.784708,42.3534205 L105.753863,42.4516984 L105.753863,42.4516984 C106.308652,42.0262503 106.901046,41.6401133 107.4083,41.2643325 C108.687947,40.3160037 110.00499,39.4143833 111.319919,38.5157219 C113.731341,36.8675859 116.208123,35.3281178 118.725896,33.8494271 L119.22999,33.5544851 C120.487666,32.8215223 121.733511,32.2272053 123.226328,32.4472209 C124.613222,32.6517305 125.902592,33.3969817 127.155505,34.0023734 L127.28499,34.0644734 L131.156469,35.9057571 C130.742595,34.2546886 130.294497,32.6116514 129.826962,30.9747434 C128.915131,27.7818745 127.911821,24.6158471 126.823793,21.4781407 C125.807595,18.5465008 124.70906,15.6469343 123.547131,12.7703035 L123.197244,11.9069608 C122.723504,10.7225577 122.252429,9.4310343 120.89837,9.06638334 C119.545201,8.70180408 117.993018,9.24243813 116.756257,8.47079821 C116.643863,8.40062991 116.657807,8.2152757 116.794074,8.18103696 L117.557216,7.98862068 C118.99009,7.63204324 120.669872,7.27333911 122.024849,7.62011328 C123.499285,7.9980076 124.719145,9.23588627 125.434497,10.5227982 C126.229888,11.9543794 126.790565,13.5564854 127.394209,15.0830379 L127.489919,15.3234088 C128.182666,17.0509861 128.849004,18.7889195 129.486609,20.5378432 C130.761398,24.0335771 131.921891,27.5713696 132.972314,31.1410761 C133.478511,32.8614675 133.958722,34.5901015 134.420342,36.3229626 C134.553018,36.8213266 134.771891,37.4255771 134.951469,38.0558236 C135.157243,38.2566064 135.352032,38.4806377 135.534778,38.7361602 C135.837947,39.1601289 135.620342,39.6572248 135.24344,39.9110565 C135.228863,40.3447473 135.132525,40.7526534 134.902243,41.1022268 C134.0033,42.4673383 131.62675,42.1156514 131.7233,40.2804968 C131.737877,39.9996123 131.847314,39.7314088 132.012947,39.5048413 L132.0083,39.4680663 L132.0083,39.4680663 L131.989497,39.4008569 L131.989497,39.4008569 C131.576891,39.203033 131.162595,38.9825947 130.725905,38.766806 L126.662807,36.7583442 L126.662807,36.7583442 C125.486046,36.1764968 124.18168,35.277624 122.873088,35.0559176 C121.65313,34.849271 120.365984,35.7585416 119.317665,36.3071542 L119.249638,36.3424068 C116.715483,37.6417884 114.200131,38.9842855 111.694708,40.3377728 C110.47168,40.9986651 109.264497,41.687033 108.046116,42.3557454 C107.027384,42.9149782 105.927947,43.7176867 104.782877,44.0332327 C104.293793,44.4136632 103.712807,44.3627278 103.245905,44.07508 C103.459285,45.3970761 103.446187,46.7537336 103.51168,48.1053188 C103.599755,49.9122229 103.613213,51.7241368 103.64227,53.5334901 L103.654074,54.2118628 C103.730976,58.2118784 103.772173,62.2129508 103.787384,66.2138119 C103.841469,80.4605125 103.684074,94.7114401 103.647314,108.958141 C103.628722,116.116152 103.486962,123.280293 103.301046,130.435558 C103.222211,133.467524 103.057458,136.495858 102.879488,139.52325 L102.781539,141.174477 C102.574285,144.658587 102.451962,148.181162 101.807173,151.618352 C101.723088,152.066626 100.964638,152.078039 100.890271,151.618352 C100.296873,147.935309 100.263871,144.171462 100.149783,140.44523 L100.125694,139.70052 C99.9885812,135.699659 99.9235108,131.701334 99.9374545,127.69836 C99.9881587,113.445953 100.358511,99.2024225 100.661469,84.9540311 C100.813793,77.7951739 100.916257,70.6331465 101.152877,63.4766143 C101.271187,59.8957062 101.405131,56.3171231 101.564004,52.7376945 C101.63499,51.1395164 101.703226,49.5429565 101.809332,47.9471652 L101.857243,47.2632992 C101.890201,46.8171387 101.916821,46.3764734 101.949145,45.9398236 C100.507666,46.4665086 99.1893559,45.4913383 97.8925953,44.8241054 C96.3980883,44.0550017 94.904215,43.2846299 93.4090742,42.5170056 L91.912744,41.7507121 L91.912744,41.7507121 L88.9181587,40.2221642 C87.5698488,39.5337963 86.531046,38.8488099 85.0929474,39.6561681 C79.9120319,42.5639254 75.1511165,46.4329039 70.8366094,50.4927317 C70.0092855,51.2713462 68.261046,51.0621094 68.0514686,49.7572327 C67.1562597,44.182754 67.7007141,38.5275943 68.1577612,32.9362111 L68.3262456,30.8603432 C68.5304122,28.3809645 68.7527714,25.9015614 69.0490742,23.4322855 C69.1815812,22.3276843 69.3135474,21.2237595 69.4595756,20.1212684 L69.5719615,19.2946808 C69.7544967,17.9879019 69.8736517,16.688943 70.2628066,15.4356358 C70.1400601,15.3959019 70.0219615,15.330806 69.9163277,15.230626 C68.7463277,14.1201916 69.3104122,12.1933109 69.8442855,10.8723716 C70.3713981,9.56855163 71.1752714,8.43064165 72.1819615,7.45124439 C72.4014686,7.23735789 72.7109756,7.09976885 73.0219615,7.09258294 C75.4627362,5.4749078 78.1403418,4.66754968 80.9271728,5.5505712 C81.0054474,5.17616416 81.085267,4.80235153 81.1693053,4.42948999 L81.2548488,4.05695868 C81.4716094,3.13187844 81.5521024,1.60381582 82.3498488,0.984982161 Z M107.365138,147.074257 C108.122532,146.865866 108.951757,147.085459 109.506757,147.640676 C110.061546,148.195893 110.281264,149.025232 110.072532,149.782923 C109.968166,150.155956 109.779504,150.479745 109.506757,150.754711 C109.251727,151.008075 108.954253,151.188909 108.614503,151.297213 L108.535349,151.320919 L108.411546,151.372488 C108.031898,151.47457 107.652039,151.47457 107.272602,151.372488 C106.909645,151.270617 106.594645,151.086954 106.32718,150.821498 C106.061616,150.553929 105.878025,150.238805 105.776194,149.875494 C105.674152,149.495698 105.674152,149.115901 105.776194,148.736105 L105.827954,148.612253 L105.827954,148.612253 C105.932321,148.23922 106.120983,147.91522 106.393729,147.640676 C106.668377,147.367823 106.99225,147.178876 107.365138,147.074257 Z M152.337525,71.5717743 C152.461962,71.4289015 152.663722,71.6119309 152.586398,71.7638918 C151.40668,74.0775434 150.09175,76.3747098 148.799426,78.629606 C148.902947,79.2545689 149.005623,79.8744593 149.123722,80.4787098 C149.627173,83.0542244 150.243863,85.583242 150.645905,88.1832734 C152.090976,97.528972 152.841187,106.976119 153.484919,116.405723 C154.130553,125.869144 154.213159,135.336792 154.310131,144.818812 C154.318581,145.640541 153.68668,146.595633 152.839919,146.750553 C152.452243,146.821356 152.162173,146.807618 151.775342,146.750553 C150.894145,146.620784 150.342947,145.610952 150.305131,144.818812 C150.052454,139.519414 149.712525,134.22678 149.318722,128.935626 C148.620694,119.555054 148.194145,110.149966 147.630271,100.759673 L147.431684,97.477744 C147.218566,93.921575 147.023623,90.3629414 146.960131,86.8014651 C146.917877,84.4419505 147.044004,82.0830698 146.966469,79.7263027 C146.894849,77.5504514 146.674285,75.1845963 147.153863,73.046788 C147.171609,72.9666863 147.298159,72.9463966 147.334708,73.0231168 C147.8333,74.0731051 148.149145,75.2143966 148.392525,76.3793595 C149.677454,74.753653 150.986046,73.1243536 152.337525,71.5717743 Z M68.1692291,14.0955178 C68.3496517,14.0825712 68.3424686,14.3537336 68.1692291,14.3738119 C65.6475449,14.6664146 63.2115291,15.6929786 60.8305067,16.5655185 L60.6265531,16.6399098 C58.2210601,17.5129978 55.8757784,18.5283246 53.6188066,19.7385164 C49.2060601,22.1047943 45.1539474,25.1558471 41.5712714,28.6486221 C27.2673981,42.5918236 20.7487362,62.6984225 15.9721869,81.5935614 C13.3182432,92.0915418 11.4309897,102.767057 10.2077503,113.524364 C9.6028911,118.844473 9.17528547,124.184873 8.92598969,129.533514 C8.79838406,132.274728 8.7178911,135.018477 8.68429955,137.762438 C8.66697561,139.167918 8.66190519,140.57382 8.66359533,141.979299 C8.6644404,142.623495 8.77936997,143.434446 8.60718688,144.059831 C8.44746857,144.639143 7.99704603,145.149342 7.66387702,145.632066 C7.26901786,146.204826 6.55936997,146.174603 6.15901786,145.632066 L6.0113844,145.434609 C5.58440665,144.868034 5.16662835,144.326286 5.10563758,143.585773 C5.04035589,142.791941 5.08641223,141.973593 5.08345448,141.176168 C5.07669392,139.569694 5.09655307,137.96301 5.12866575,136.356959 C5.19056716,133.27843 5.31183476,130.20117 5.49204603,127.127291 C5.85796152,120.889287 6.46028547,114.663965 7.32267983,108.474994 C8.85563758,97.4742111 11.1533841,86.5784694 14.1631024,75.8875262 C17.002539,65.8021015 20.3663418,55.7464773 25.1583136,46.4043716 C29.6076094,37.7305555 35.4445108,29.6614127 43.1464827,23.5994636 C46.7281024,20.7804734 50.627046,18.4311035 54.8306376,16.6618902 C56.950708,15.7695692 59.177046,15.0410448 61.441201,14.6257415 C63.680215,14.2150878 65.9095108,14.2723638 68.1692291,14.0955178 Z M107.799208,129.247642 C108.199138,129.244683 108.645123,129.332605 108.988222,129.553889 L109.446673,129.908323 L109.446673,129.908323 C109.570898,130.067893 109.69449,130.228096 109.817659,130.388722 C110.104349,130.76239 110.142377,131.367063 110.082588,131.812378 C110.069067,132.109748 109.980757,132.386194 109.817659,132.642562 L109.468645,133.09464 L109.468645,133.09464 C109.133152,133.368339 108.853433,133.563626 108.447166,133.695298 C108.234778,133.763965 108.030263,133.778365 107.826381,133.767924 L107.758433,133.763564 L107.799208,133.769059 L107.7278,133.761028 L107.7278,133.761028 C107.661462,133.755321 107.594912,133.748135 107.528152,133.739047 C107.482729,133.733341 107.437095,133.729959 107.391673,133.723619 C107.34794,133.720026 107.305687,133.718335 107.261532,133.72235 C106.745194,133.770983 106.226109,133.47803 105.85956,133.14156 C105.529349,132.838272 105.23294,132.195133 105.278997,131.739251 L105.298642,131.548725 C105.333454,131.227311 105.361962,131.100857 105.498081,130.77803 C105.630335,130.463963 105.815194,130.186883 106.066814,129.952707 C106.548504,129.504433 107.138152,129.252292 107.799208,129.247642 Z M106.200905,105.727905 C106.886257,104.980782 108.063229,104.925831 108.913159,105.377698 C109.120201,105.488022 109.310342,105.664923 109.492877,105.812445 C109.952807,106.184422 110.13344,106.855459 110.158793,107.420821 C110.183933,107.979842 109.889215,108.643694 109.492877,109.029619 L109.39675,109.122825 L109.39675,109.122825 C109.159919,109.353197 108.820623,109.553557 108.489356,109.614426 C107.95506,109.712703 107.506328,109.709745 107.008793,109.499662 C106.581276,109.319258 106.212919,109.029214 105.962282,108.63564 L105.921609,108.569087 C105.904426,108.541471 105.888182,108.513385 105.87294,108.484703 L105.850835,108.44122 C105.374638,107.525228 105.502666,106.488343 106.200905,105.727905 Z M106.555877,82.0842534 C106.864962,81.9872436 107.173835,81.9735058 107.482919,82.0428287 C107.692708,82.0432514 107.888342,82.0963004 108.069609,82.2013415 C108.266511,82.2565039 108.437638,82.3562612 108.582567,82.5006135 C108.757074,82.6037524 108.8963,82.7428209 108.999609,82.9176076 C109.205173,83.142273 109.343764,83.4058268 109.415807,83.7084804 L109.498623,84.32668 L109.415807,84.945091 L109.1813,85.5007309 L109.1813,85.5007309 C109.116863,85.5848483 109.052004,85.6689657 108.986511,85.7526604 C108.88299,85.9278698 108.743553,86.0675724 108.568412,86.171134 C108.454539,86.2844178 108.323976,86.3691692 108.17799,86.4279246 C107.660384,86.7990557 106.970807,86.9201595 106.357497,86.7510792 C105.993271,86.6492084 105.677004,86.4646996 105.408905,86.1981869 C105.142497,85.929772 104.95806,85.6133806 104.856229,85.249224 L104.814221,84.9583752 C104.760106,84.5682482 104.751479,84.3521573 104.861933,83.8562143 C104.910314,83.6381008 105.050807,83.3305861 105.124328,83.2010283 C105.438694,82.648136 105.952285,82.2691849 106.555877,82.0842534 Z M133.39375,65.0743379 C134.281243,65.068082 135.168736,65.0698066 136.056121,65.07962 L136.721638,65.0884984 C137.836074,65.1060405 138.790581,64.9910659 139.666708,65.764608 C140.302623,66.3259544 140.022483,67.2677313 139.418891,67.6906432 C138.504314,68.3310346 137.357131,68.0089368 136.305863,67.9383458 C135.197131,67.8639505 134.087553,67.8022362 132.977553,67.7523575 C130.828328,67.6561931 128.678257,67.5949015 126.526919,67.5853908 C124.380229,67.5763027 122.23037,67.5965923 120.083891,67.6312538 C117.899807,67.6667606 115.625722,67.870291 113.453891,67.6441462 C113.155581,67.6130777 113.088398,67.2206002 113.382905,67.118518 C115.429454,66.4102831 117.731638,66.1807567 119.876426,65.910017 C122.088609,65.6304006 124.300793,65.4325767 126.526919,65.3042871 C128.813469,65.1730385 131.103398,65.0904006 133.39375,65.0743379 Z M106.55181,58.1179619 L106.625046,58.1193916 C107.015666,58.1203779 107.381256,58.2123143 107.722161,58.3952009 L107.794835,58.4357829 L108.263849,58.7980373 C108.550962,59.0875872 108.749764,59.4284953 108.859623,59.8211841 L108.94244,60.4374816 L108.94244,60.4374816 C108.954694,60.7566205 108.887933,61.0542017 108.743004,61.3306479 C108.649412,61.6180843 108.489694,61.8666323 108.263849,62.0767145 C108.053849,62.3026479 107.805187,62.4624287 107.518074,62.5560569 C107.262993,62.6898904 106.98991,62.7570923 106.698327,62.7571639 L106.625046,62.7557829 C106.206947,62.7543035 105.816947,62.6488397 105.45568,62.4391802 L104.986454,62.0767145 L104.986454,62.0767145 C104.699342,61.7873759 104.500539,61.4464679 104.39068,61.053779 L104.307652,60.4374816 L104.307652,60.4374816 C104.295821,60.1183426 104.362159,59.8203387 104.507511,59.5443152 C104.600891,59.2568788 104.760609,59.0081195 104.986454,58.7980373 C105.196454,58.5721039 105.444905,58.4123231 105.73244,58.3189062 C105.987327,58.1848776 106.260394,58.1178408 106.55181,58.1179619 L106.55181,58.1179619 Z M113.421969,3.6592397 C113.921194,2.93578764 114.826053,3.57913793 114.696546,4.16077394 C114.730771,5.79430036 114.814222,7.37963891 115.185842,8.97977198 C115.355912,9.7123121 115.5788,10.4456976 115.922532,11.1167348 L116.0669,11.3993029 C116.51185,12.2786612 116.857237,13.1079879 116.258025,14.07268 C115.97556,14.5275058 115.465138,14.8690479 114.911828,14.8451653 C112.457954,14.7392788 112.120771,11.3223786 111.971616,9.41494224 C111.817814,7.45044126 112.296123,5.29149801 113.421969,3.6592397 Z" id="ðŸ–-Ink" fill="#000000"></path>
                </g>
                <g id="head/hat-beanie" transform="translate(78.591549, 38.043053)">
                    <path d="M51.6094264,12.4075623 C61.0482461,12.4075623 72.3731226,16.9948296 73.3359929,17.0865749 L73.3619864,17.0879697 C73.8685772,17.0879697 75.8480402,18.5998047 79.3003757,21.6234749 L75.5611066,28.9349282 L75.8637104,29.2246001 C77.3117623,30.6164137 78.5479646,31.8850112 79.5237428,32.8850476 C87.4910497,41.0504247 88.9230381,73.1100521 87.0454104,84.2903025 C85.1677828,95.4705529 81.6900498,106.410634 65.499246,106.410634 C49.3084422,106.410634 31.2958049,96.6510448 28.5210708,93.6117924 C26.671248,91.5856241 24.5934143,90.614914 22.2875695,90.6996621 C22.1928001,90.5797811 22.0987952,90.4602512 22.0055549,90.3410724 L21.6662935,90.2928919 C18.4750517,89.8295513 16.1884515,89.2059005 14.8065797,88.4221476 C12.1073949,86.8912577 9.1406639,78.8431922 9.1406639,77.0703055 C9.1406639,75.3151477 4.71071117,62.5469812 4.62211212,61.1958146 L4.62076519,61.1583879 C4.62076519,60.0288611 -1.16652277,54.8365017 -1.16652277,53.1875104 C-1.16652277,51.5385191 -2.33304553,51.6385642 -1.16652277,45.8277744 L-0.827614814,44.1207341 C0.413748585,37.9339543 2.84343602,27.6895419 12.1073949,23.2380361 C22.2875695,18.3462714 42.075265,12.4075623 51.6094264,12.4075623 Z" id="âœ‹-Skin" fill="#D08B5B"></path>
                    <path d="M51.6078286,12.4696673 C61.0466483,12.4696673 72.3715247,17.0569346 73.3343951,17.1486799 L73.3603886,17.1500747 C73.8669793,17.1500747 75.8464424,18.6619097 79.2987778,21.6855799 L78.4594664,23.3254734 C59.8754141,23.6913608 47.0843464,25.205558 40.0862634,27.868065 C31.9732764,30.954751 26.880313,42.68156 24.8073731,63.0484922 C21.9728087,64.3942727 19.1382443,66.1655884 16.30368,68.3624394 C13.4691156,70.5592905 12.7516064,71.6939683 14.1511525,71.766473 C14.0292208,76.4744008 14.4050083,79.7621109 15.2785149,81.6296032 C16.1520214,83.4970955 19.1754994,84.5961052 24.3489486,84.926632 L24.3489486,84.926632 L25.6632504,89.3389913 L25.4810326,91.3837009 C24.4696801,90.9279626 23.4046598,90.7206513 22.2859717,90.7617671 C22.1912023,90.6418861 22.0971974,90.5223562 22.0039571,90.4031774 L21.6646957,90.3549969 C18.4734539,89.8916563 16.1868537,89.2680055 14.8049818,88.4842526 C12.1057971,86.9533627 9.13906609,78.9052972 9.13906609,77.1324105 C9.13906609,75.3772527 4.70911335,62.6090862 4.6205143,61.2579196 L4.61916737,61.2204929 C4.61916737,60.0909661 -1.16812058,54.8986068 -1.16812058,53.2496154 C-1.16812058,51.6006241 -2.33464335,51.7006692 -1.16812058,45.8898794 L-0.829212632,44.1828391 C0.412150766,37.9960593 2.8418382,27.7516469 12.1057971,23.3001411 C22.2859717,18.4083764 42.0736672,12.4696673 51.6078286,12.4696673 Z" id="ðŸ§¢-Hat" fill="#9DDADB"></path>
                    <path d="M10.5360139,23.008227 C15.6131827,17.6057331 44.437113,9.24935967 59.0199394,11.0207121 L59.457445,11.0775029 C60.6211819,11.2254481 61.768053,11.4494795 62.8999557,11.7538239 C66.5585589,12.6104266 70.3377521,13.9074834 73.3607273,16.0740352 C75.8844762,17.8464188 83.8457433,20.7408611 81.4992956,25.3774638 C82.3693576,27.0300117 82.6940233,29.0716556 82.1060411,30.6992642 C82.0320426,31.261456 81.8591686,31.7792642 81.6380164,32.3160939 C83.4968331,35.0659726 84.9685807,38.1757808 86.1599352,41.1336282 C88.2418014,48.5775969 89.537302,56.3244305 89.7270417,63.9193033 C90.3582424,78.3486106 88.7800297,95.5844384 76.2441383,104.915131 C68.6712051,110.827656 56.8086788,111.026325 48.2984314,103.695429 C47.8154384,103.122458 45.5442542,101.576219 46.3021589,101.305057 C46.5277383,101.543883 46.7596424,101.776368 46.9957629,102.004626 C46.985011,101.979264 46.9829028,101.953902 46.98733,101.926427 L46.7652446,101.724804 C46.3470322,101.336936 45.8052379,100.774384 46.4223274,100.88447 C46.4495234,100.916172 46.4792493,100.943648 46.5085535,100.97535 C46.6392499,101.053946 46.737987,101.122085 46.8148124,101.18216 L46.8543311,101.213866 L46.8421218,101.201134 C46.4866571,100.82114 46.2735487,100.433564 46.8050272,100.681094 L46.8753836,100.715389 C47.111715,100.964783 47.3518411,101.203609 47.5963945,101.436094 C47.5923889,101.408618 47.5963945,101.381143 47.6113629,101.351554 L47.3833484,101.13073 C47.1607706,100.912076 47.1947416,100.911143 47.3035629,100.734411 C46.8304786,100.069714 47.7136115,100.464517 47.7755931,100.723843 C48.3281573,100.592806 48.8132585,101.63265 49.1691258,101.75946 C64.7697351,113.783178 87.4092658,103.114427 87.0426465,69.6101213 L87.0370483,68.9545949 C86.929824,58.2413582 86.0305159,47.2301458 81.6103988,37.5322192 C81.1805329,36.5980509 80.6996482,35.6892446 80.1706961,34.8100274 C79.8059742,34.1506145 79.4159537,33.5081096 78.9964181,32.8825127 C77.8219294,32.7874051 76.6624089,32.5718278 75.5199651,32.2378943 C75.1276256,32.1385597 74.7397133,32.0286575 74.3520118,31.8997339 C68.6851193,32.2095734 63.1445091,32.5466771 57.461805,32.8662387 L55.6867843,32.9770686 C50.8728566,33.2873268 45.8943366,33.7842578 42.0096143,36.7692446 C38.1979545,39.4867867 38.1806671,44.8455734 34.9177767,47.8292055 C30.2649375,50.9950215 30.2309951,53.8497299 29.3350021,58.5150763 C29.401411,62.0319452 31.833874,67.1417613 27.370142,68.6218474 C28.1231979,69.6982544 27.0735156,69.1810802 26.9908735,68.8036086 C26.9824406,68.8057221 26.9740077,68.8078356 26.9676831,68.8078356 C27.6387291,70.0583953 26.6522935,69.2709041 26.5650132,68.8691272 C26.5123078,68.8543327 26.4596023,68.8162896 26.4068968,68.7634521 C27.0830026,69.859092 25.9901019,69.0918904 26.0548243,68.8923757 C24.748361,66.8792642 22.0595386,66.5666771 20.1642497,67.1001252 C20.1410593,67.1719843 20.0569414,67.1783249 20.0042359,67.1402818 C11.9451474,68.8911076 14.0244837,85.6165245 22.2832206,83.9996947 C22.6367689,83.9274129 22.628336,84.0975499 22.6985397,84.1138239 C22.5077459,83.6116556 23.0455525,83.8160313 23.0398604,83.9214951 L23.07263,83.9199 C23.0985964,83.9176047 23.0879746,83.9147554 23.1073234,83.9214951 C22.9228542,82.894544 23.9609412,84.3824501 23.8789315,84.4435303 C23.9107656,84.4245088 23.9466053,84.4139413 23.9782286,84.4097143 L23.9424941,84.3122287 C23.7702123,83.8521113 23.7849816,84.0433546 23.7861699,83.7798904 C23.6567252,83.4541996 23.6472382,83.5966497 23.6775966,83.384454 C24.1325502,83.0310763 24.2668438,84.103045 24.4186355,84.181456 C24.1584813,83.8179335 24.3652976,83.5209863 24.6106943,83.7183875 C26.4707759,87.6406262 28.873513,91.3259413 31.9787086,94.2290489 C32.3183427,94.4974638 32.6619824,94.7616517 33.0180606,95.011045 C34.3388597,96.1643836 36.3648581,96.9060117 37.6013285,97.9276791 C37.6013285,97.9445871 37.5931065,97.9657221 37.5804572,97.9868571 L37.60876,98.0124834 L37.60876,98.0124834 L37.6373791,98.0396947 L38.0674557,98.246818 C38.1939489,98.3546067 38.3077927,98.4750763 38.4087764,98.608227 C38.5165064,98.7329237 38.6111654,98.8703014 38.6914885,99.0161331 C38.7315447,99.1936673 38.6429995,99.2676399 38.474342,99.1915538 C38.4003435,99.1661918 38.3267667,99.1366027 38.252979,99.1091272 C38.2571954,99.1154677 38.2590928,99.1196947 38.2635201,99.1239217 C38.2877119,99.1606061 38.4514786,99.5412065 38.2627725,99.4792782 L38.2403297,99.4705362 C38.1368161,99.4324932 38.0337242,99.3902231 37.9325297,99.3500665 C38.0526982,99.5001252 38.1621148,99.662865 38.2590928,99.8002427 C38.3626064,99.9080313 38.4256421,100.034841 38.4511516,100.17856 C38.4467243,100.258873 38.4026626,100.292689 38.3225502,100.282121 C38.2002735,100.241965 38.0801051,100.199695 37.9597258,100.155311 L37.9939601,100.220782 C38.0790112,100.388494 38.1998859,100.669779 37.9852352,100.575898 C37.8016093,100.518834 37.6247298,100.453315 37.4476394,100.381456 C37.432671,100.411045 37.4033668,100.421613 37.3443366,100.394137 C36.7814422,100.193354 36.2375217,99.9481879 35.7167916,99.658638 C35.2593081,99.3247045 34.7973974,98.9971115 34.3380164,98.6652916 C33.9056207,98.4053307 33.4881934,98.1157808 33.0899508,97.7903014 C30.4238972,96.0639922 28.089888,93.8710215 26.2382393,91.4286575 C23.1414765,94.1172446 16.9498483,91.5487045 13.119847,89.4440783 C9.73214998,87.5630607 8.4005989,84.0850802 8.05632675,80.3353033 C7.34058642,75.2869902 3.22534306,73.5589902 3.5116392,62.4821213 C3.50531454,62.4842348 3.49877906,62.4842348 3.49034618,62.4842348 C3.34066264,62.4398513 3.19540636,62.3806732 3.05837213,62.3045871 C2.91712146,62.236955 2.78430366,62.1566419 2.65970792,62.0594207 L2.50580794,61.8459569 L2.50580794,61.8459569 C2.42590644,61.8015734 2.354227,61.7550763 2.29941331,61.7085793 L2.27098664,61.7453318 C2.18100168,61.8541923 2.24148999,61.6904031 2.24670784,61.6578552 L1.97935479,61.2933606 C1.34544095,60.4256995 0.649969168,59.4521507 0.0834643876,58.673589 L0.0656201275,58.7052238 C0.0528048608,58.7291008 0.0460284428,58.7463539 0.0520519255,58.7539022 C-1.29615408,56.8120157 -2.56403695,54.4664501 -2.91632033,52.1957025 C-3.33227193,50.4465675 -3.16972825,48.6441722 -2.80690377,47.0239609 C-1.25124902,41.3502622 3.84473779,28.5111546 10.5360139,23.008227 Z M47.1236866,101.472664 L47.0392029,101.397234 L47.1134875,101.49054 C47.1524152,101.53876 47.1922679,101.582099 47.2571821,101.626309 C47.2529656,101.611515 47.2529656,101.59672 47.254863,101.579812 C47.2118128,101.546867 47.1677947,101.510839 47.1236866,101.472664 Z M58.9554781,13.8715538 C49.0662447,13.0191781 39.339555,15.203272 29.9027455,17.8470528 L29.2517547,18.0346301 C23.8858856,19.569572 18.2120417,20.9507731 13.6774709,24.2361722 C7.34206218,29.1008219 4.07052804,36.8396243 1.21557796,43.9847436 C-1.27739093,49.2934403 -0.0029725887,55.2795147 3.75387355,58.9863875 C4.14473734,55.3027632 4.81114535,51.7269276 5.8526055,48.1798356 C6.06996287,47.6256751 5.9055218,47.4441252 6.37396804,47.3718434 C7.08148632,56.9307945 3.59681124,63.9932759 10.4927954,75.3220744 C13.4849905,80.667546 10.0211868,84.5787945 18.4709283,87.3916556 L18.6995943,87.4792497 C20.4599743,88.1451832 22.3824299,88.6708356 24.1066191,88.2985597 L23.9521485,88.0466646 C23.794611,87.7872612 23.7468055,87.6613386 23.9759096,87.5503796 C23.9697957,87.5376986 23.9613629,87.5250176 23.9527192,87.5102231 C23.7674067,87.1593816 23.5882081,86.8043131 23.4172315,86.4450176 C23.3478711,86.4682661 23.2782999,86.4851742 23.2064097,86.5041957 C23.2530013,86.5908493 23.2591151,86.6775029 23.1286164,86.707092 C22.6640493,86.8668728 22.186994,86.9309166 21.6986504,86.9009418 L21.593833,86.8930802 C21.0421121,86.8592642 20.6944668,86.7584501 20.3835045,86.6648219 C20.2804126,86.6479139 20.1771099,86.6310059 20.0757045,86.6098708 C19.0753547,86.3875303 18.0163963,85.8219569 17.3310143,85.261456 C9.51837658,80.812955 10.3258244,65.6699178 19.9557469,64.2384423 C20.153287,54.7040078 24.6768924,38.6185597 32.18426,29.5332446 C38.9701951,21.1762427 57.4959581,17.5541213 70.3847654,18.8313112 C70.5726077,18.8936595 70.76045,18.9566419 70.9482923,19.0202583 C72.9367644,19.1973699 74.8318424,20.0854638 76.8217903,20.4980196 C75.3930503,19.4245714 73.7722516,18.7095734 72.102753,18.1019413 C68.7764052,16.0621996 64.9630588,14.9585284 61.2789462,14.1801252 C60.5157709,13.9920235 59.7420546,13.8884618 58.9554781,13.8715538 Z M19.5149815,71.8977558 C20.0327601,71.6158145 19.9735192,71.8880337 20.0926335,71.8089886 C23.8170131,71.5044329 27.8329594,74.7733879 29.9148255,77.4985386 C29.7503845,77.6697323 29.3055503,77.1624916 29.2275462,77.0821785 C29.2170051,77.092746 29.2043558,77.1012 29.1917065,77.105427 L29.2496769,77.1874494 C30.0934781,78.4013886 28.4207352,76.9729193 28.2640901,76.6784994 C28.2366833,76.6932939 28.2092764,76.7017479 28.1776531,76.6954074 C28.3102601,76.8258106 28.715249,77.1658732 28.7848202,77.4076579 L28.8921906,77.4972352 C29.9046425,78.3664083 29.820616,79.0202421 28.6711872,77.785975 C28.6983832,77.8430395 28.7089243,77.8958771 28.6899503,77.9381472 L28.729528,77.9645876 C29.2947513,78.3605602 29.7595936,79.4643749 28.5782147,78.3312587 C28.7011239,79.1589065 27.4075208,77.5591961 27.3659889,77.5703977 C25.127482,75.808793 21.8317033,74.0955875 19.0237665,73.865427 L18.9271237,73.8542957 C18.4118642,73.7879265 18.1682513,73.6346627 18.3491365,73.2968947 C17.7145626,73.1455679 17.863192,72.8323468 18.1636132,72.8424916 C17.7160383,72.5474466 18.118919,72.2652939 18.3786515,72.3754074 C18.2000854,71.879791 18.9162474,72.2099202 18.9816022,72.1408086 C19.3532812,71.5661472 19.4534216,72.0454896 19.5149815,71.8977558 Z M11.7082679,41.1779906 C13.4970917,40.5211139 18.7809208,42.487517 18.3582229,45.0917753 C18.1065016,45.6896853 17.2771282,46.0322841 16.6942057,45.6947577 L15.9333857,45.1824955 C14.6093605,44.2935638 13.4152373,43.5140899 11.9937208,42.7388125 C11.2200044,42.3539436 10.8869058,41.5368634 11.7082679,41.1779906 Z M21.8856737,37.3079131 L21.1948232,36.8572074 C17.4666623,34.4111231 12.1962784,30.7047213 21.5430882,34.5394356 C22.6083712,34.9974317 24.0238294,35.2683828 24.6050653,36.2854004 C25.518135,38.1598661 23.115187,38.2858309 21.8856737,37.3079131 Z M22.304619,26.3327037 C22.0054627,25.1945824 25.7279449,26.5301049 26.8115694,26.8822145 L26.9766201,26.944708 C28.030733,27.3384701 29.2390571,27.7037542 29.869541,28.6157096 C30.6082609,29.87578 29.1131121,30.1367977 28.1869715,29.5676313 C26.2880987,28.3236235 24.2062325,27.3850168 22.304619,26.3327037 Z M31.7705853,21.0310027 C29.6753087,18.7371398 35.2828628,20.9345822 36.1228443,21.5445568 L36.1468261,21.5625487 C36.7735996,22.0049049 36.646474,22.957672 36.0576485,23.2374998 C34.3822469,23.2694137 33.1493604,21.8694294 31.7705853,21.0310027 Z M41.3052162,18.5177941 C37.9742303,16.1179115 42.3620664,17.2594145 43.8860978,18.1999233 C44.9248173,19.1182403 43.8548962,20.6684947 41.3052162,18.5177941 Z" id="ðŸ–-Ink" fill="#000000"></path>
                </g>
                <g id="face/Smile-Big" transform="translate(112.183099, 77.354207)">
                    <path d="M16.7323103,41.8048695 C19.0397523,40.4149113 27.6644046,41.4337406 34.4394233,41.8048695 C39.8194216,42.0995804 43.6621174,41.5155274 44.891993,42.3436413 C47.670648,44.2145969 46.3209828,53.2615665 41.5329342,54.4988121 C36.7448855,55.7360576 18.9957006,57.4641425 15.9353891,54.4988121 C12.8750777,51.5334816 12.5925435,44.2985843 16.7323103,41.8048695 Z" id="teeth" fill="#FFFFFF"></path>
                    <path d="M19.7211365,39.4118615 C23.3427017,38.9721514 26.8531681,40.0813242 30.39357,40.6404383 C32.2628533,40.9354736 34.1344555,41.1557498 36.0260851,41.237669 C36.4066034,41.2543055 36.7873326,41.2639926 37.1680618,41.2717844 C37.2034785,40.9365265 37.3911025,40.6286453 37.7975509,40.4441692 C38.6306859,40.0663724 39.297489,39.8960058 40.2122088,39.9324377 C41.04956,39.9655002 41.8898626,40.0516312 42.7143542,40.2026235 C44.2115517,40.4772317 45.7154952,41.1003649 46.8106713,42.1830034 C49.345282,44.6881713 48.9594933,48.7121078 47.0010359,51.4407108 C42.9548102,57.0790106 35.5698828,57.3406925 29.2449892,57.2671358 L28.6613154,57.2594981 C22.9023122,57.1771578 14.6628774,58.0361507 12.0464711,51.4813545 C11.0843182,49.0709516 11.217974,46.2770661 12.3959998,43.965219 C13.8010718,41.2077653 16.7587852,39.7715477 19.7211365,39.4118615 Z M37.7102741,48.7997129 L37.6586248,48.8018188 C35.0034288,48.9041651 32.3486544,48.9761865 29.6919827,49.0231479 C29.7714593,49.7056672 29.8526225,50.388397 29.9453805,51.0694422 C30.0181111,51.6053914 30.0961121,52.1407089 30.1772753,52.6753946 C30.2116379,52.9017779 30.3377044,53.2532511 30.3020769,53.4775285 L30.2892173,53.5661865 L30.2892173,53.5661865 C30.4256136,53.6278891 30.5493612,53.7272872 30.6414867,53.8715407 C30.6735303,53.9214503 30.6967198,53.9717811 30.7199093,54.0219013 C32.7825086,54.0381167 35.0021639,53.9981048 37.1048178,53.6230456 L37.109034,53.5773477 L37.109034,53.5773477 C37.1471913,53.3086361 37.2589224,53.12774 37.4073351,53.003703 C37.5551154,52.146816 37.5416233,51.2337017 37.5987538,50.3835535 C37.6343813,49.855396 37.6729601,49.3276597 37.7102741,48.7997129 Z M27.6629027,49.0593692 C25.7490909,49.0919403 23.8344463,49.1170239 21.9210416,49.0936505 L21.0524238,49.0802176 L21.0524238,49.0802176 C21.2358315,50.0647216 21.4354719,51.0458562 21.6013821,52.0368885 C21.77446,53.069828 20.865643,53.7264448 20.0790979,53.6999106 C20.1674287,53.7144413 20.2555488,53.7293931 20.3438796,53.7418178 C22.8013326,54.0895004 25.3530192,53.9972624 27.8469429,53.9945248 C27.7127601,53.2110912 27.7671242,52.3271177 27.7470493,51.6731982 L27.7432227,51.5719078 C27.7050654,50.7339737 27.6782921,49.8966715 27.6629027,49.0593692 Z M14.663299,48.8786838 C14.7297053,49.3906259 14.858934,49.8916174 15.0522499,50.3580722 C15.8691523,52.328765 17.7420194,53.2484076 19.7236663,53.6356809 C19.3798295,53.5169087 19.106826,53.2315604 19.03789,52.7427832 C18.866077,51.5274735 18.8043086,50.2919472 18.7996707,49.0578951 C17.4186315,49.0450492 16.0283164,49.0155667 14.663299,48.8786838 Z M44.9122957,48.4579268 C43.9290616,48.689996 42.7864524,48.5836485 41.8217698,48.627451 C40.9180124,48.6685159 40.0138333,48.704316 39.1100758,48.7409585 C39.1526601,49.3581952 39.1941904,49.9752212 39.2393045,50.5920367 C39.297489,51.389327 39.3029701,52.231894 39.4555991,53.0258149 C41.274498,52.4047876 42.9042972,51.4089118 44.1270155,49.816437 C44.431641,49.4196872 44.7044336,48.9540747 44.9122957,48.4579268 Z M19.3056231,42.6452465 C17.6688671,43.032941 16.1198095,43.851922 15.287307,45.3502634 C14.7931601,46.2393706 14.5758114,47.2931585 14.6175525,48.3315733 C16.0009107,48.1704727 17.4080908,48.1094018 18.8085249,48.0588604 C18.8131628,47.8065747 18.8191124,47.5545697 18.8266861,47.3030952 L18.8482617,46.6585603 C18.8864346,45.4292579 18.9056154,43.8855582 19.3056231,42.6452465 Z M27.7773744,42.7951859 L27.056853,42.7142256 C25.0555444,42.486111 23.0553101,42.2466464 21.0538995,42.3839054 C20.7642417,42.4039114 20.4701569,42.4354997 20.1754396,42.4786705 C20.5291847,43.7556828 20.49946,45.2554984 20.6472402,46.5196647 C20.7043707,47.008442 20.7764689,47.4932181 20.8563672,47.9760989 L21.2035771,47.9598836 L21.2035771,47.9598836 C23.3511342,47.8434278 25.5007995,47.7718275 27.6500431,47.6865389 C27.649885,47.2828396 27.6520985,46.8789034 27.6585514,46.4748191 L27.6664865,46.0706888 C27.6909409,45.0385916 27.6243238,43.8759292 27.7773744,42.7951859 Z M37.8272756,42.6313476 C35.731157,42.9697643 33.5648375,43.0417858 31.505822,43.0443128 C30.6834385,43.0453658 29.8614767,42.9948244 29.0399365,42.9219606 C29.0934831,43.3595647 29.1213105,43.802223 29.1615759,44.2337201 C29.2426969,45.1057274 29.3354211,45.976387 29.4361866,46.8462379 L29.5260724,47.6073574 L29.5260724,47.6073574 C32.1677764,47.4875322 34.8092696,47.3580199 37.4503411,47.2238747 L37.8230594,47.2038687 L37.8230594,47.2038687 L37.9275292,45.7411246 C37.9986436,44.7657383 38.0768788,43.7905704 38.1873451,42.8196143 L38.1044954,42.7897106 L38.1044954,42.7897106 C38.0070995,42.7496987 37.9147632,42.6945243 37.8272756,42.6313476 Z M38.7375683,42.9944032 C38.8530941,44.3735512 38.9169706,45.7583851 39.0019284,47.1398496 L40.7430293,47.0468004 C41.0331868,47.030975 41.3233364,47.0148299 41.6134861,46.9981231 C42.7417599,46.9330511 44.1915244,46.591265 45.3069386,46.9100969 C45.3921073,45.8956892 45.1022387,44.9073946 44.1870973,44.2259283 C42.5804876,43.0289398 40.5347534,43.4551722 38.7375683,42.9944032 Z M32.7889225,30.6655961 C35.3815986,29.1802262 41.8867394,27.6620971 42.2987113,32.3297683 C42.488174,34.4777135 40.8919247,36.2574498 39.0279579,37.0516053 L38.9579366,37.0809229 C37.2096972,37.7999366 34.1110352,38.6119444 32.5981479,37.0528133 C31.338993,35.7551225 33.0090634,33.4283671 34.5737113,34.4914591 C35.3778002,35.0375927 37.0703018,34.6351882 37.9675372,34.3753254 L38.0237113,34.3589425 C38.9919507,34.0742536 40.2827958,33.1631225 39.8824437,31.9704728 C39.5281479,30.9154121 38.0205423,30.7226607 37.0763873,30.6884219 C35.6670211,30.6379092 34.2954718,30.9652908 32.898993,31.0718114 C32.6777958,31.0887194 32.6095563,30.7683123 32.7889225,30.6655961 Z M43.5287113,23.1599765 C47.0475845,22.9951233 49.2365282,26.8387397 48.4273732,29.9880705 C48.2875141,30.5314521 47.6799085,31.0649002 47.0934296,31.00382 L46.9456572,30.9902158 C46.8705845,30.9829977 46.795162,30.9735123 46.7258239,30.954364 C46.1689225,30.8000783 45.6696972,30.2205558 45.7102606,29.6198982 L45.7210365,29.4448758 C45.8031384,27.9571532 45.641973,26.2430931 43.8745563,25.8828023 C42.3756127,25.5771898 41.5387817,27.020501 41.5210352,28.3490489 C41.5176549,28.5849159 41.2527254,28.7495577 41.0442042,28.6227476 C39.9606127,27.9631233 39.773007,26.6508493 40.1868803,25.5207593 C40.7114577,24.0888611 42.0242746,23.2303562 43.5287113,23.1599765 Z M17.4154014,23.9843272 C19.9761761,23.1296266 22.7389225,24.4951609 23.9788521,26.7599906 C24.4138521,26.8859554 24.8482183,27.2213683 24.7877958,27.7349495 C24.7005423,28.4738301 24.5691338,28.9396462 24.0570211,29.4999358 C23.2560186,30.3764272 21.7558318,29.9282778 21.4229027,28.849309 L21.4087817,28.8005777 C21.0306127,27.4058771 19.4959648,26.4856579 18.098007,26.9738771 C16.4649085,27.5441002 16.5122324,29.269564 15.3667394,30.274746 C15.232162,30.3928908 15.0707535,30.411701 14.9093451,30.3337127 C13.6926549,29.7455249 13.9113169,27.9752548 14.3450493,26.9620415 C14.913993,25.6324368 16.0197676,24.4499319 17.4154014,23.9843272 Z M13.9279014,16.2050935 C16.0029718,14.0869409 21.4139577,12.0372658 22.8334648,15.9487256 C23.1038873,16.6937354 22.5281831,17.6982834 21.752831,17.8527804 C20.4831127,18.1055554 19.3566338,17.5541425 18.0953662,17.6530544 C17.0743099,17.7335789 16.0093099,18.0749096 15.1929718,18.7076924 C12.9319859,20.460209 12.434662,23.4243969 10.8592394,25.6549879 C10.7825493,25.7636219 10.6336056,25.7179703 10.6194507,25.589892 C10.2607183,22.3424947 11.6550845,18.5248744 13.9279014,16.2050935 Z M40.9902676,14.1199327 C42.3673099,13.6334043 43.9266761,13.6750403 45.3109014,14.1066176 C46.7052676,14.5415765 47.985338,15.3675335 48.9715352,16.4466881 C49.419,16.936598 49.8330845,17.4772321 50.1651972,18.0527389 C50.3416056,18.3577174 50.5270986,18.9877526 50.7275915,19.3628994 C51.8123435,19.9894274 52.2759906,21.4171188 51.3048214,22.4328182 L51.2610423,22.4773573 L51.1311127,22.606281 C50.6090704,23.1232438 49.8218873,23.3472751 49.1092817,23.1407859 C47.5146338,22.6791969 47.3209014,21.4227194 46.7688592,20.089099 C46.4042113,19.208191 45.779493,18.4287311 45.0220986,17.8561832 C43.2320282,16.5035413 40.2968873,16.072598 38.1417465,16.7100305 C38.0270282,16.7440579 37.8922394,16.5978035 37.974,16.4917057 C38.3823803,15.9624845 38.6177324,15.5281597 39.164493,15.1012321 C39.719493,14.667964 40.3251972,14.3549542 40.9902676,14.1199327 Z" id="ðŸ–-Ink" fill="#000000"></path>
                </g>
                <g id="mask/medical-mask" transform="translate(83.450704, 97.432485)">
                    <path d="M83.0825493,14.8698035 C82.6843099,9.82212446 76.3219859,7.68389354 73.1529718,7.04984266 C62.6005775,4.56816751 53.6229718,10.9353065 41.0402958,11.0654982 C39.7703662,11.0853652 36.1386761,10.871056 34.4498028,10.4248955 C25.881,8.47709119 17.3210704,6.40522427 8.91346479,3.85063327 C7.67733803,4.14018317 7.3116338,5.75426536 8.16029577,6.67385049 C16.2129718,9.53067241 28.5326197,12.0888564 35.0383944,12.3800971 C34.9135352,20.7876117 30.4769155,29.2416235 24.3501549,33.8913299 C34.0944507,44.6712517 56.8202958,48.2164415 70.1948028,42.5579601 C76.7738873,40.5826802 83.7163521,22.9011147 83.0825493,14.8698035" id="ðŸŽ¨-Color" fill="#FFFFFF"></path>
                    <path d="M8.23354225,4.10507789 C7.87121831,4.09091742 8.08248592,3.03416595 8.89861268,3.18485871 C19.4290352,5.64856908 32.5487535,10.341391 43.3726268,10.3069409 C51.3350915,10.0461346 58.4698099,5.60989198 66.4762183,5.58305049 C71.8582606,5.68618943 78.7210775,6.45191155 82.4875563,10.7723342 C87.4555141,26.5344164 76.2682606,47.9729448 58.6660775,48.0970074 L55.3344357,47.8558609 C43.978046,47.0188669 31.5368535,45.6797202 24.216993,36.041164 L24.1599507,36.0901973 L24.1599507,36.0901973 C23.0653732,35.3555436 23.1264296,33.768937 24.0566408,32.9529135 L24.0843169,32.9964517 L24.0843169,32.9964517 C24.1020634,32.967708 24.1217113,32.9402325 24.1407254,32.9121229 L24.1288944,32.8751366 L24.1288944,32.8751366 C24.4867817,32.4993558 24.8936831,32.1478802 25.2636127,31.8331796 L25.2655141,31.8393088 L25.2655141,31.8393088 C30.7618521,27.2582912 34.3506549,20.3312853 34.5572746,13.1582677 C32.7376268,13.6583225 2.16593662,7.3178137 7.62319014,5.7705182 C11.5265704,7.09061213 15.4529789,8.28283914 19.4586127,9.23180196 C19.5257958,9.19397025 19.6221338,9.20390372 19.6591056,9.27851037 C24.5592465,10.4848978 29.5582606,11.1743225 34.5638239,11.7324986 C34.5585423,11.4932501 34.5494577,11.2540016 34.5372042,11.0143303 C25.6369225,9.28104658 16.9115704,6.7076454 8.23354225,4.10507789 Z M80.3017817,10.5020172 C62.0463592,1.27636556 52.984669,14.9061346 35.3292465,11.1533988 C37.1763592,19.3973284 32.6153028,28.2848196 26.4203028,33.6712932 C35.4215704,41.4650466 39.3173451,42.6452266 51.1250915,43.9101581 L52.6676413,44.0939068 C54.986901,44.36868 57.3279277,44.6249832 59.6543873,44.6651014 C71.721993,43.7865182 80.8405141,31.226393 82.2050915,19.8462364 L82.2124871,19.5318664 C82.2736535,16.6437406 82.1410478,13.5866266 80.8620634,10.9407804 C80.6265,10.8587765 80.4217817,10.7110427 80.3017817,10.5020172 Z M54.8870915,17.744083 C55.5179366,17.6020556 56.161669,18.2906348 55.7706127,18.8936172 C54.5070211,20.8433237 51.4168099,21.5986896 49.2555423,21.9051476 C46.7526549,22.2600047 44.3264577,21.9801769 41.9488521,21.1261104 C41.8214577,21.0802474 41.8305423,20.8549479 41.9830775,20.8731241 C44.2406831,21.1419616 46.568007,20.9451945 48.7615986,20.3474959 C50.9858239,19.9140164 52.7818099,18.4341417 54.8870915,17.744083 Z M72.0396905,16.3396814 C72.0292183,15.9691843 73.8499225,17.041153 74.1378803,17.1855053 C76.3616831,18.5212391 78.9357676,18.6190943 81.3883732,19.1434544 C81.9600634,19.362836 81.9592183,20.089881 81.388162,20.3092626 C78.3271056,21.1235953 73.6815423,18.9864211 72.0396905,16.3396814 Z" id="ðŸ–-Ink" fill="#000000"></path>
                </g>
                <g id="accessories/Glasses" transform="translate(88.521127, 88.978474)" fill="#000000">
                    <path d="M82.2021338,13.3747538 C80.1879085,27.0045229 66.1272042,28.5118732 63.6289648,14.9808047 C64.0299507,14.8051726 64.318331,14.4594035 64.2581197,13.788155 C64.2439648,10.8393957 65.1589648,7.72282427 67.8179789,6.08295734 C70.5657254,4.39088689 73.7814296,4.22307476 76.9612183,4.26576751 C83.0292465,4.12120391 82.9016408,9.19509041 82.2021338,13.3747538 M61.4277676,7.44701213 C59.5234014,7.36669902 57.1141056,7.43390841 55.4081197,8.59464423 C54.9391056,7.33119217 53.7205141,5.98214325 52.4892465,5.2608047 C57.0657254,5.39480078 61.7765704,4.94420196 66.3872746,4.59441722 C65.2836127,5.34703562 64.2568521,6.47775969 63.5894577,7.78496125 C62.9702324,7.45462074 62.083331,7.48547789 61.4277676,7.44701213 M53.0336831,14.8197558 C47.7530493,33.0034896 34.5718521,25.0778536 33.1348099,22.7475053 C30.5427676,18.8912078 30.055162,9.51697691 32.3129789,7.01057378 C35.5449507,4.74405323 40.1203732,5.32738004 43.9384014,5.27179491 C50.9526972,5.36647984 55.9343873,7.46561096 53.0336831,14.8197558 M88.4372746,6.45641331 C87.0025563,6.26873425 85.4693873,6.23090254 84.1354437,6.86283992 C83.7247394,5.11645245 82.4353732,3.65644462 80.9795282,3.01393973 C80.803331,2.79286732 80.8297394,2.67408845 80.227838,2.70727045 C76.5317113,1.59599061 72.3957254,2.18396712 68.8438944,3.32356791 C63.2343169,3.79614716 57.3490352,4.16875773 51.6923451,4.81992798 C46.393331,2.43927828 30.4018521,2.09033894 29.4080493,7.95805714 C28.1579789,7.77101213 26.0290352,6.78675382 24.9786127,8.12185362 C17.2734718,6.81507476 9.31185211,8.63120783 1.57333099,9.4400454 C-0.374556338,9.7989182 -1.3778662,13.6662059 0.833260563,13.6133683 C2.07635915,13.2758419 0.795021127,11.2052431 2.46889437,11.0494779 C9.93530282,10.2336658 17.2384014,9.07631155 24.7812887,8.94083601 C24.5188944,10.2438106 29.770162,10.328562 29.8476972,9.56770098 C29.8588944,9.57340744 29.8707254,9.57721174 29.8821338,9.58228415 C28.5845282,14.4200924 29.7557958,21.3823937 32.1008662,24.3822998 C35.3865,28.3104564 43.6354437,29.4373761 47.2931197,26.9100493 C52.0113592,24.5773761 56.9197394,12.8681472 55.541007,8.97803366 C58.0432606,8.18462466 60.516993,8.42281644 63.1138944,8.8269182 C62.5193873,10.5069417 61.4930493,14.6426442 62.9695986,15.0013057 C62.6985423,23.2122646 70.168331,28.335607 77.0543873,24.9673174 C83.0144577,22.1684055 85.0988239,13.3090239 84.3695282,7.93163836 C85.1115,9.36586145 91.3413592,7.80440548 88.4372746,6.45641331" id="ðŸ–-Ink"></path>
                </g>
            </g>
        </g>
    </g>
</svg>