<?xml version="1.0" encoding="UTF-8"?>
<svg width="170px" height="246px" viewBox="0 0 170 246" version="1.1" xmlns="http://www.w3.org/2000/svg" xmlns:xlink="http://www.w3.org/1999/xlink">
    <!-- Generator: Sketch 62 (91390) - https://sketch.com -->
    <title>bust-mask-16</title>
    <desc>Created with Sketch.</desc>
    <g id="Introduction" stroke="none" stroke-width="1" fill="none" fill-rule="evenodd">
        <g id="busts-covid-19" transform="translate(-1013.000000, -233.000000)">
            <g id="a-person/bust" transform="translate(974.000000, 188.000000)">
                <g id="body/Tee-Arms-Crossed" transform="translate(31.056338, 135.052838)" fill-rule="evenodd">
                    <path d="M139.422522,46.0695011 C137.587874,45.4151606 135.819564,44.6593719 134.208437,43.5476694 C129.564141,40.0893445 126.535832,34.8848436 123.674423,29.9538299 C119.64386,22.7820804 116.772522,15.1400764 114.787663,7.16794338 C113.934775,3.74280052 113.645127,-0.228471498 111.707381,-3.26515252 C107.314705,-9.6236261 94.4339302,-8.79978265 87.5941414,-7.68364175 C83.0138597,-6.87290203 82.0671696,-1.7451212 81.0268879,2.04925062 C80.1606907,5.20196294 79.5936485,8.39039347 79.1176625,11.6215168 C77.9852682,12.3663152 76.7068879,12.9711997 75.4882964,13.498096 C62.2082259,17.5718729 59.8741414,25.1242643 54.8018175,36.7903778 C46.2347048,53.7468005 22.9878738,60.3859473 19.4763949,80.4534463 C17.2139302,93.7019395 23.6476625,106.1659 30.2808316,117.179787 C36.4582964,129.210057 45.0824513,134.984147 58.8167471,132.141908 C71.6987893,129.251059 84.079071,124.415153 96.7344231,120.678268 C102.86393,119.170707 108.983719,115.249313 115.431395,116.616538 C128.716958,119.601438 142.36717,121.004804 155.982522,120.617399 C175.09886,121.39073 175.095902,103.036014 173.13386,88.8220725 C171.759564,66.7019395 160.606747,52.4983543 139.422522,46.0695011 L139.422522,46.0695011 Z" id="âœ‹-Skin" fill="#D08B5B"></path>
                    <path d="M140.700564,78.0773829 C142.297958,79.1341344 143.641409,80.7363809 144.71993,82.4225336 C140.217395,81.95397 135.722677,81.4137586 131.237888,80.7987293 C131.825001,80.4233712 132.417606,80.0562557 133.023733,79.7096412 C135.235071,78.4630972 138.231268,76.4440678 140.700564,78.0773829 Z M65.8938738,91.3920287 C65.0688738,91.0688741 64.7496485,89.8104945 64.4280992,89.0891559 C63.4199302,86.8270737 62.4998597,84.5265258 61.5426062,82.2424631 C65.1772541,81.2060013 68.7117611,80.0560444 72.4769724,79.5035747 C76.5254935,78.9101031 80.6338034,78.7663849 84.7197189,78.8997469 C92.9959161,79.1698526 101.195212,80.5229172 109.331972,81.9738369 C117.459226,83.4230659 125.586057,84.8154416 133.770141,85.9081226 C141.788381,86.9786119 149.831972,87.7620874 157.890564,88.4498213 C159.456268,88.583606 162.066902,89.1468545 163.326057,87.9142596 C164.323029,86.9380326 164.355353,85.1375395 163.107817,84.3439191 C162.330775,83.8491481 161.20493,83.8419622 160.317184,83.727833 C159.199156,83.5839035 158.076691,83.4881618 156.951902,83.4135551 C156.493663,83.383332 156.035423,83.3554338 155.576972,83.3275355 C159.25662,81.9395982 163.099789,81.1827528 167.088944,81.3936804 C167.314578,82.7647097 168.330986,84.1752616 168.887254,85.3059856 C169.858663,87.2799974 170.615846,89.2778917 171.112958,91.4243653 C172.151972,95.9109093 172.197184,100.567379 171.903733,105.143324 C171.634156,108.95862 171.055071,113.178862 168.063522,115.880976 C165.798522,117.926847 162.602888,118.684326 159.63817,118.922518 C156.192395,119.199387 152.693381,118.903708 149.27655,118.441696 C144.484156,117.793485 139.669367,116.936248 134.971198,115.787348 C125.871691,113.562252 117.149719,110.021712 109.102747,105.221524 C105.178451,102.880819 101.433944,100.247395 97.4557752,97.9956686 C93.4021837,95.7008271 89.0889442,93.9206236 84.5597893,92.8152616 C79.4912682,91.5782283 74.1926766,91.0502753 68.98324,91.3554651 C68.0792259,91.4083027 66.7731696,91.7363183 65.8938738,91.3920287 Z M60.0202118,89.0950737 C60.5528175,90.8241305 60.9603527,92.7983536 62.0971837,94.2511755 C63.22324,95.6908937 64.9220428,96.1989798 66.681902,96.3270581 C68.8038738,96.4811324 70.9507752,96.3824318 73.0773949,96.4614768 C77.4390147,96.6235825 81.7408456,97.33224 85.9104231,98.6322557 C89.7960569,99.8439269 93.4030287,101.733821 96.8775358,103.830416 C100.090494,105.769344 103.209226,107.850933 106.42324,109.783943 C105.567817,110.176209 104.722113,110.6006 103.871761,110.97004 C102.08824,111.744851 100.293733,112.492397 98.4911978,113.221344 C94.9366203,114.658526 91.3670428,116.060835 87.7609161,117.363598 C80.4895076,119.990471 73.0985217,122.285524 65.6185921,124.240514 C62.0511273,125.172992 58.4329583,126.26208 54.7266907,126.417211 C51.4402118,126.554588 48.3960569,125.625281 45.7454935,123.670502 C40.2478879,119.615958 35.8740147,113.763669 32.33824,107.991058 C30.2376062,104.561477 28.4044372,100.957954 26.8881696,97.23206 C26.1212682,95.3478721 25.4257752,93.4347293 24.7997893,91.4991833 C24.5061273,90.590377 24.2276766,89.6764984 23.9640147,88.7583927 C23.8480287,88.3547136 23.736902,87.9497665 23.6268316,87.5443966 C29.2484513,85.8282322 34.9368316,84.2790346 40.758733,83.4190502 C43.8671133,82.959786 47.016902,82.7273007 50.1592964,82.7611168 C51.7190851,82.7778134 53.2780287,82.8621422 54.829578,83.0231911 C55.6647189,83.1098447 56.4964795,83.2214377 57.3246485,83.3596608 C57.666902,83.416514 58.0186625,83.5006314 58.3714795,83.5625571 C58.9104231,85.40997 59.4538034,87.2559035 60.0202118,89.0950737 Z M176.226268,81.7498056 C176.529226,81.1366784 176.657043,80.5334847 176.765634,79.8660404 C176.848451,79.3568976 177.06817,78.6402087 176.875705,77.979105 C176.660212,77.2387449 176.073099,76.5765845 175.65162,75.9450698 C175.186198,75.2471911 174.721198,74.5488898 174.256832,73.8501657 C173.327888,72.4529289 172.401057,71.054424 171.475705,69.6548624 C167.696761,63.9397391 163.943592,58.2081305 160.184508,52.4801148 C156.848592,47.3969289 153.568874,42.2680913 150.131339,37.2531716 C147.191972,32.9648741 143.988099,28.747379 139.964719,25.4122714 C134.877606,21.1954103 128.820141,19.2089289 122.492888,17.6588858 C121.801832,16.9413516 120.878803,16.5495082 119.892184,16.6289759 C118.49824,15.0474416 117.390353,13.9427136 116.88817,11.9315042 C116.647536,10.9681696 116.722958,8.26140639 115.785141,7.69139465 C114.671127,7.01422831 114.089325,7.91048788 113.782113,8.92060795 C112.754296,12.3000991 113.934015,16.8437078 116.648803,20.2289054 C115.505001,24.1834808 113.988522,29.8037078 111.28324,32.9718487 C108.386339,36.3642322 104.380071,37.4201383 100.057536,37.4896725 C91.8142964,37.6224005 83.5797189,34.5576099 77.2921837,29.2459543 C75.3810569,27.6316608 73.6061978,25.8286314 72.0003527,23.9110502 C70.7959161,22.4723888 69.3711273,20.2521539 68.4288738,18.5740326 C68.4288738,17.9200675 67.6570486,17.2361853 75.5147893,16.7078095 C83.37253,16.1794338 83.9684513,5.41599739 84.1431696,3.9511285 C84.2851414,2.76164905 84.8889442,0.915292886 84.0510569,-0.0545936111 C83.6954935,-0.466515333 82.9657752,-0.532879325 82.5149302,-0.253051537 C81.6647893,0.275112847 81.3854935,1.62564122 81.11824,2.54269015 C80.7438738,3.82748858 79.5200006,11.8011011 77.2009161,12.7242792 C76.1152118,13.1564905 74.8700006,13.1645218 73.7215499,13.2444123 C72.3033104,13.3435355 70.8821133,13.4160287 69.469578,13.5810933 C68.9485921,13.6419622 68.3802823,13.8106197 67.8662682,13.8154808 C67.5318316,13.818651 67.1868316,13.6561226 66.8635921,13.5419935 C65.7726062,13.1562792 64.6824654,13.4456177 63.5585217,13.5967332 C53.6213386,14.9326784 43.3894372,17.9818291 34.9133809,23.4682714 C27.4425358,28.3039661 22.1792259,35.2584475 18.7061978,43.389516 C15.1626062,51.6875512 13.1314795,60.6608506 11.4292964,69.4944475 C10.8590851,72.454197 10.3611273,75.4276843 9.93331044,78.4113164 C9.51985973,81.2943457 9.00267663,84.2418369 8.87887382,87.1540326 C8.82985973,88.3063144 9.10514142,89.3768036 9.52873297,90.4293281 C10.0057752,91.6139465 11.1333104,92.0810307 12.2147893,92.6341344 C14.5888034,93.8489759 17.0931696,94.7911755 19.6733809,95.4584083 C21.2496485,98.3270659 22.5761978,101.307739 23.6422541,104.401273 C23.2467611,105.185172 23.2385217,106.355841 23.1624654,107.117759 C22.9738034,109.01505 22.8930992,110.922275 22.8761978,112.828232 C22.8421837,116.648389 23.0718316,120.464741 23.2518316,124.27898 C23.4343668,128.147536 24.0411273,143.411042 24.1400006,145.274941 C24.216902,146.722901 24.1133809,148.748271 24.8758456,150.033704 C26.0475358,152.009618 28.9393668,151.943042 30.2788034,150.341007 C63.5585217,157.498131 126.115008,155.342401 151.309578,151.741414 C154.587646,151.27289 153.55831,151.792561 154.391972,150.964068 C155.017536,150.341853 155.54993,149.276436 155.722958,148.420256 C155.954085,147.277273 155.580986,146.242925 154.926902,145.318056 C154.239226,144.345845 154.113944,142.771285 153.858522,141.615199 C153.254508,138.882228 152.954296,126.879645 152.672043,125.549618 C152.584156,125.13516 152.499015,124.697031 152.396339,124.25869 C157.017817,124.696608 161.83324,124.696608 166.22993,123.150369 C168.723099,122.273477 171.04831,120.896107 172.83817,118.929492 C175.005353,116.548209 176.211057,113.550416 176.831127,110.421375 C177.631198,106.386487 177.801057,102.207035 177.643874,98.1053594 C177.425423,93.2578291 176.621761,88.3420326 174.626972,83.8912068 C175.283381,83.2814612 175.833522,82.5457508 176.226268,81.7498056 Z" id="ðŸ–-Ink" fill="#000000"></path>
                </g>
                <g id="head/Hijab" transform="translate(78.591549, 38.043053)" fill-rule="evenodd">
                    <path d="M54.873181,22.228448 C86.6045639,23.2355512 88.5184764,38.3453798 88.5184764,63.6851773 C88.5184764,89.0249747 72.0575872,104.992685 65.9964445,107.780946 C59.9353018,110.569208 43.9754115,122.545287 29.5725687,117.026365 C15.1697258,111.507443 19.3405919,88.1905608 19.3405919,78.172034 C19.3405919,68.1535073 23.1417981,21.2213448 54.873181,22.228448 Z" id="âœ‹-Skin" fill="#D08B5B"></path>
                    <path d="M24.2034641,62.4424263 C30.7643992,35.6224624 42.7415756,22.5371492 60.1349934,23.1864867 C86.2251201,24.160493 85.9500593,50.8194018 84.3132364,48.3886864 C83.2438455,46.800619 75.7567027,41.2528964 61.8518079,31.7455186 L60.9924689,31.1584867 L24.2034641,62.4424263 Z" id="ðŸ§•-hijab" fill="#9FD8E5"></path>
                    <path d="M67.745971,99.4586583 C61.9188539,102.719793 55.2465518,102.846604 48.9786061,100.794392 C45.2196517,99.5666583 41.7729246,97.6685213 38.5471388,95.3986192 C35.7410994,93.4224939 33.2365353,91.2307914 30.7551616,88.9036133 C28.7122975,84.3872689 26.8931154,79.8791671 26.0411841,74.9652728 C25.2780088,70.5543922 25.1768143,65.9744313 26.0622663,61.5720047 C32.6106051,56.1720047 39.1186769,50.7276211 45.6181051,45.2665409 C48.9280088,42.4849597 52.2463454,39.7185957 55.6047382,36.9961926 C57.3102873,35.6139616 58.9991815,34.2105957 60.6981951,32.8220243 C60.9785883,32.5937659 61.257084,32.3655076 61.5374771,32.1372493 C65.0453426,34.7114959 68.8064052,36.9182043 72.2893937,39.5345096 C74.1127922,40.906173 75.8858043,42.3666035 77.5744877,43.9029088 C78.4599397,44.7083648 79.3245202,45.5389714 80.1678078,46.3907131 C80.9392051,47.1686935 81.6834064,48.2844117 82.7777828,48.5784 C82.9274664,48.6183452 83.0685062,48.6267992 83.201324,48.6077777 C84.664428,61.4494215 85.7037799,75.3161143 79.436045,86.9784235 C76.7016851,92.065625 72.8248813,96.6138834 67.745971,99.4586583 Z M29.8382972,104.178322 C29.0359091,103.441343 30.2316909,102.248694 31.0307058,102.982502 C36.0495318,107.591206 42.6107308,110.034204 49.2381278,111.164928 C50.3074165,111.347746 49.8514087,112.976623 48.7897097,112.795285 C41.8703243,111.614682 35.0696317,108.982103 29.8382972,104.178322 Z M23.815959,111.249468 C22.8579843,110.734196 23.7107589,109.275245 24.667047,109.789461 C28.5771606,111.891762 32.8659104,112.98402 37.2160094,113.721633 C38.2859305,113.902971 37.8295011,115.531848 36.767802,115.351989 C32.2699169,114.589437 27.8563606,113.421727 23.815959,111.249468 Z M39.7298496,40.0187131 C42.9743986,37.0997542 46.4613927,34.3224 50.144662,31.9787366 C53.8717822,29.6073863 57.942753,28.1892258 62.3426059,28.1554098 C62.0348059,28.4026896 61.7417635,28.677445 61.4445046,28.9329675 C60.6140772,29.6454294 59.7853363,30.3619068 58.9568063,31.0762708 C57.2997462,32.5071123 55.6384697,33.935629 54.0024918,35.3899303 C50.7811333,38.2558403 47.5492336,41.1069558 44.3341998,43.9792063 C38.1550101,49.4996759 32.108849,55.1404039 26.1929758,60.9442943 C26.2248099,60.8026896 26.2585415,60.6610849 26.2920621,60.5196916 C28.2505975,52.3190888 33.5780668,45.5537659 39.7298496,40.0187131 Z M65.1634028,28.5125918 C65.184485,28.4491867 65.1994534,28.3876838 65.2078863,28.328717 C73.6513031,29.4319656 80.7032954,35.6602474 83.0347747,43.8608501 C82.8323857,44.1440595 82.7206501,44.4801065 82.7628145,44.8370771 C82.7838967,45.0169362 82.8049789,45.1986975 82.8260611,45.3783452 C82.5372351,45.0911202 82.2399762,44.8224939 81.9872007,44.5667601 C81.1458106,43.7129049 80.2837599,42.8820869 79.3980971,42.0726153 C77.587137,40.4179538 75.7068165,38.8708697 73.7248799,37.4273472 C70.2781528,34.9165057 66.5463945,32.6085605 62.4374758,31.4038638 C62.7073278,31.181946 62.9773906,30.9600282 63.2493509,30.7402239 C64.0608043,30.0784861 64.8136493,29.5334137 65.1634028,28.5125918 Z M80.3006256,19.7436681 C75.1165152,14.0646857 67.937819,9.90531194 60.3779567,8.45967593 C53.1592042,7.07744501 45.6855681,7.98836477 38.8656907,10.674627 C24.5949459,16.2965448 13.3349486,28.6586348 8.06229301,42.9837464 C4.98850981,51.3299695 3.98078116,60.4793237 4.90439187,69.3137659 C5.8233645,78.1078403 8.46496283,87.1897738 13.271702,94.6715742 C13.7123198,95.3565605 14.1951019,96.0136485 14.7010744,96.6498129 C14.475495,99.2325135 13.6153417,101.76449 12.2618651,103.96676 C12.1891316,104.084694 12.1123924,104.200514 12.0364965,104.316545 C10.6505534,105.357022 9.21295891,106.333461 7.80951756,107.34139 C6.59328606,108.21469 5.38949305,109.110604 4.24578428,110.077954 C3.16616536,110.991198 1.91240756,112.008216 1.18148805,113.240811 C0.582543056,114.250431 0.337989659,115.623151 1.15555696,116.586063 C2.14072767,117.745954 3.81001542,117.336991 5.14451801,117.336991 C5.25878347,117.336991 5.37283812,117.339527 5.48689276,117.340795 C5.88766518,117.593359 6.30045445,117.821617 6.70038358,118.034024 C10.7418393,120.181555 14.7980525,122.305625 18.8584822,124.419128 C26.9458208,128.631339 34.9992172,133.012842 43.2526835,136.890909 C47.0772034,138.6895 51.1713646,140.261735 55.4550546,140.255641 C59.4735308,140.249265 63.1057812,138.649343 66.2428109,136.216701 C69.8183502,133.445688 72.8080155,129.926917 75.7087139,126.477891 C76.8682344,125.097351 78.0045644,123.700537 79.1198122,122.28449 C81.2617626,121.568013 83.3868473,121.358776 85.2968937,122.741007 C86.8295688,123.850596 88.8492426,122.341555 88.8850823,120.675903 C88.8977316,120.084545 88.8726438,119.501007 88.8091864,118.926134 C88.4257014,115.375238 86.6925346,112.162924 84.7403239,109.183097 C83.6737759,107.553375 82.5500952,105.953241 81.419879,104.368114 C81.1542434,103.994236 80.8928243,103.620146 80.639838,103.239504 C85.1788334,96.5399108 88.7796713,89.1109479 90.9933012,81.3478403 C93.3188775,73.1793628 94.1094596,64.7084431 93.5908378,56.2438638 C92.7937202,43.2711828 89.2436903,29.5418677 80.3006256,19.7436681 Z" id="ðŸ–-Ink" fill="#000000"></path>
                </g>
                <g id="face/Smile" transform="translate(112.183099, 77.354207)" fill="#000000" fill-rule="evenodd">
                    <path d="M30.968993,50.9198978 C29.548794,50.3403012 28.2816173,49.3734958 27.3551889,48.1384646 C27.0331038,47.7091169 26.9495926,47.2557326 27.017159,46.8410547 C27.0931327,46.3747786 27.3688808,45.9521824 27.7449394,45.6687178 C28.1221628,45.3843752 28.5940214,45.2441445 29.0502103,45.3156301 C29.4466117,45.3777469 29.8412104,45.5948709 30.1535058,46.0451781 L30.2187521,46.1352289 C30.7695298,46.8806513 31.4872438,47.4922614 32.3050288,47.8864795 C33.0932406,48.2664417 33.9747757,48.4437847 34.8870208,48.3406561 C36.6244504,48.1443157 37.8219743,47.2043274 39.0948115,45.9278391 C39.2525834,45.7666792 39.4104563,45.6004672 39.5690946,45.4315797 C39.6692778,45.278484 39.8083069,45.1800892 39.962667,45.1284632 C40.1340565,45.0711416 40.327938,45.0743848 40.5055187,45.1363808 C40.6767961,45.1961763 40.8299095,45.309486 40.9325762,45.4602937 C41.0301525,45.6036243 41.0854754,45.7806897 41.0675245,45.9843589 C40.9510195,47.3072301 40.2596776,48.4878363 39.2776553,49.4148615 C38.1869942,50.4444414 36.7412431,51.1567117 35.3801317,51.4065272 C33.8805866,51.6817086 32.3525901,51.4845569 30.968993,50.9198978 L30.968993,50.9198978 Z M36.0875289,30.5120405 C37.6828906,31.482148 40.1137318,33.7442494 38.3974899,36.149264 C36.3773089,38.2698449 33.4687045,35.8384541 32.0353946,34.7388307 C30.7063626,33.8866164 29.2131206,36.0784478 30.4461973,37.0735516 C40.8033244,44.7445605 45.006466,30.7657101 36.8944406,29.3714319 C36.0012775,29.2177885 35.6695544,30.2119271 36.0875289,30.5120405 Z M17.5274577,21.5886716 C17.7037243,19.3998697 21.0359789,18.9028321 21.3674577,21.0687499 C21.6642887,23.0089456 21.3148521,24.7912626 20.4412606,26.5380728 C19.6065423,28.2068947 17.5085456,27.4283107 17.3498837,25.9087021 C17.1372039,23.8717299 17.4178099,22.9502317 17.5274577,21.5886716 Z M42.8930282,20.6196517 C43.3576056,20.0109628 44.0283803,19.5954481 44.8320423,19.8302583 C47.3429577,20.5642779 46.6028873,24.1303914 45.7210563,25.8662114 C45.2419014,26.8088337 43.6930986,27.0478708 42.993169,26.2178982 C41.8523239,24.864411 41.3059859,22.1614521 42.756338,20.8282544 C42.7956338,20.7593542 42.8393662,20.68982 42.8930282,20.6196517 Z M20.4058944,12.0111429 L20.802522,11.9416942 C22.0295218,11.7294045 23.5551549,11.5254176 24.4231479,12.5122544 C24.8835,13.0355577 25.0419507,14.0081918 24.4231479,14.509092 C23.3346972,15.3904227 22.1313169,15.0488806 20.8269507,15.1234873 C19.7520211,15.1852016 18.7189225,15.3631585 17.6835,15.6592603 C15.4119507,16.3087397 13.5610352,17.4944149 11.6209648,18.7963327 C11.3663873,18.9671037 11.1065282,18.6414129 11.228007,18.4032211 C12.3479366,16.208771 14.5182887,14.4061644 16.6922324,13.3073542 C17.8525141,12.7208571 19.1222324,12.2343288 20.4058944,12.0111429 Z M40.6041287,11.0281289 L40.9077055,11.0902829 C44.2113469,11.7811043 48.5035506,13.1610768 50.0679842,16.4073021 C50.1275964,16.8663298 50.0646105,16.9647086 50.0133917,17.0289838 L49.9963385,17.0503723 C49.9541341,17.1052595 49.9204583,17.1809212 49.7215736,17.2433957 C49.6663832,17.2302408 49.6106433,17.216308 49.5543131,17.2015401 C48.8372041,17.0135386 48.2698321,16.7545401 47.720556,16.4857982 L47.1250012,16.192275 C46.4340388,15.8533498 45.7369757,15.5267598 44.9982488,15.2856588 C43.4217423,14.7712438 41.8001698,14.4088706 40.1534741,14.2153715 C39.7965654,14.1734678 39.4528848,14.0529641 39.1817455,13.8464404 C38.92438,13.6504079 38.7277692,13.3789964 38.6381257,13.0182314 C38.5219478,12.5513438 38.5553348,12.1978716 38.8057421,11.7766707 C38.9940329,11.4603578 39.263447,11.2411116 39.5728025,11.115213 C39.888177,10.9868648 40.2472278,10.9566068 40.6041287,11.0281289 Z" id="ðŸ–-Ink"></path>
                </g>
                <g id="facial-hair/*-None" transform="translate(104.577451, 109.479380)"></g>
                <g id="mask/medical-mask" transform="translate(83.450704, 97.432485)" fill-rule="evenodd">
                    <path d="M83.0825493,14.8698035 C82.6843099,9.82212446 76.3219859,7.68389354 73.1529718,7.04984266 C62.6005775,4.56816751 53.6229718,10.9353065 41.0402958,11.0654982 C39.7703662,11.0853652 36.1386761,10.871056 34.4498028,10.4248955 C25.881,8.47709119 17.3210704,6.40522427 8.91346479,3.85063327 C7.67733803,4.14018317 7.3116338,5.75426536 8.16029577,6.67385049 C16.2129718,9.53067241 28.5326197,12.0888564 35.0383944,12.3800971 C34.9135352,20.7876117 30.4769155,29.2416235 24.3501549,33.8913299 C34.0944507,44.6712517 56.8202958,48.2164415 70.1948028,42.5579601 C76.7738873,40.5826802 83.7163521,22.9011147 83.0825493,14.8698035" id="ðŸŽ¨-Color" fill="#FFFFFF"></path>
                    <path d="M8.23354225,4.10507789 C7.87121831,4.09091742 8.08248592,3.03416595 8.89861268,3.18485871 C19.4290352,5.64856908 32.5487535,10.341391 43.3726268,10.3069409 C51.3350915,10.0461346 58.4698099,5.60989198 66.4762183,5.58305049 C71.8582606,5.68618943 78.7210775,6.45191155 82.4875563,10.7723342 C87.4555141,26.5344164 76.2682606,47.9729448 58.6660775,48.0970074 L55.3344357,47.8558609 C43.978046,47.0188669 31.5368535,45.6797202 24.216993,36.041164 L24.1599507,36.0901973 L24.1599507,36.0901973 C23.0653732,35.3555436 23.1264296,33.768937 24.0566408,32.9529135 L24.0843169,32.9964517 L24.0843169,32.9964517 C24.1020634,32.967708 24.1217113,32.9402325 24.1407254,32.9121229 L24.1288944,32.8751366 L24.1288944,32.8751366 C24.4867817,32.4993558 24.8936831,32.1478802 25.2636127,31.8331796 L25.2655141,31.8393088 L25.2655141,31.8393088 C30.7618521,27.2582912 34.3506549,20.3312853 34.5572746,13.1582677 C32.7376268,13.6583225 2.16593662,7.3178137 7.62319014,5.7705182 C11.5265704,7.09061213 15.4529789,8.28283914 19.4586127,9.23180196 C19.5257958,9.19397025 19.6221338,9.20390372 19.6591056,9.27851037 C24.5592465,10.4848978 29.5582606,11.1743225 34.5638239,11.7324986 C34.5585423,11.4932501 34.5494577,11.2540016 34.5372042,11.0143303 C25.6369225,9.28104658 16.9115704,6.7076454 8.23354225,4.10507789 Z M80.3017817,10.5020172 C62.0463592,1.27636556 52.984669,14.9061346 35.3292465,11.1533988 C37.1763592,19.3973284 32.6153028,28.2848196 26.4203028,33.6712932 C35.4215704,41.4650466 39.3173451,42.6452266 51.1250915,43.9101581 L52.6676413,44.0939068 C54.986901,44.36868 57.3279277,44.6249832 59.6543873,44.6651014 C71.721993,43.7865182 80.8405141,31.226393 82.2050915,19.8462364 L82.2124871,19.5318664 C82.2736535,16.6437406 82.1410478,13.5866266 80.8620634,10.9407804 C80.6265,10.8587765 80.4217817,10.7110427 80.3017817,10.5020172 Z M54.8870915,17.744083 C55.5179366,17.6020556 56.161669,18.2906348 55.7706127,18.8936172 C54.5070211,20.8433237 51.4168099,21.5986896 49.2555423,21.9051476 C46.7526549,22.2600047 44.3264577,21.9801769 41.9488521,21.1261104 C41.8214577,21.0802474 41.8305423,20.8549479 41.9830775,20.8731241 C44.2406831,21.1419616 46.568007,20.9451945 48.7615986,20.3474959 C50.9858239,19.9140164 52.7818099,18.4341417 54.8870915,17.744083 Z M72.0396905,16.3396814 C72.0292183,15.9691843 73.8499225,17.041153 74.1378803,17.1855053 C76.3616831,18.5212391 78.9357676,18.6190943 81.3883732,19.1434544 C81.9600634,19.362836 81.9592183,20.089881 81.388162,20.3092626 C78.3271056,21.1235953 73.6815423,18.9864211 72.0396905,16.3396814 Z" id="ðŸ–-Ink" fill="#000000"></path>
                </g>
                <g id="accessories/Glasses-2" transform="translate(88.521127, 88.978474)" fill="#000000" fill-rule="evenodd">
                    <path d="M78.6572746,20.1750129 C76.0922746,22.8264023 71.8103028,23.5872634 68.3976972,22.1652986 C59.635162,18.5028094 63.9241056,7.07932603 70.6819225,4.01157652 C71.5261479,3.80107162 72.6536831,3.30165088 73.6819225,3.18836712 C73.7748803,3.14271546 73.9772746,3.27480939 74.2225563,3.14990137 C81.6741761,3.98219883 83.3710775,15.5540501 78.6572746,20.1750129 M50.3943169,20.8536587 C47.5174859,24.6708564 42.1690352,25.8485002 37.7991761,24.0740031 C29.1663592,20.6729542 32.2282606,10.543146 38.134669,6.57187397 C50.6115,1.88179961 55.7636831,13.8154826 50.3943169,20.8536587 M31.6802324,12.3958427 C31.6722042,12.3920384 31.6641761,12.3901362 31.6559366,12.3863319 C31.7015704,12.3662536 31.7472042,12.3461753 31.7926268,12.3256744 C31.777838,12.3643515 31.7617817,12.4026059 31.7474155,12.441283 C31.7250211,12.4258544 31.7053732,12.4078896 31.6802324,12.3958427 M84.5964296,8.26965088 C83.8920634,8.27113033 82.8745986,8.38695029 82.2915,8.87580352 C80.8536127,4.02468023 75.5461479,-0.465034051 70.9303732,2.808782 C67.2955141,3.97818317 64.5982606,6.57166262 63.0653028,10.0196313 C60.3012887,8.37490333 55.9550915,9.07722035 53.5582606,11.2522262 C51.9885423,6.06336517 48.1253028,4.24638669 43.5270634,3.97818317 C38.5081901,3.15581918 33.5057958,8.0318818 31.9449507,11.943553 C30.6471338,11.7958192 28.7079085,11.3826294 27.486993,12.1838583 C19.5629789,10.1050168 5.70910563,8.95886419 4.09819014,10.1138935 C2.95016197,10.5545589 2.32016197,13.2653378 3.9236831,13.4115922 C5.32100704,13.2131342 3.76058451,11.4253221 5.16910563,11.2302458 C12.6739648,10.7648524 19.9595282,12.2768524 27.3849507,12.911326 C28.0479085,13.8034356 30.1899507,14.1018622 31.3326972,13.7434121 C29.5329085,20.3789659 33.4181197,24.8934082 39.2395986,26.2456274 C48.2537535,28.3170716 56.0962183,20.2502536 53.7391056,11.859647 C56.4697394,10.5006646 59.6106549,10.5589973 62.5853028,11.2748407 C57.6145986,29.5756626 87.0773451,28.7545667 82.4757254,9.50287984 C85.5380493,11.0267155 86.2031197,8.57716556 84.5964296,8.26965088" id="ðŸ–-Ink"></path>
                </g>
            </g>
        </g>
    </g>
</svg>