<?xml version="1.0" encoding="UTF-8"?>
<svg width="171px" height="240px" viewBox="0 0 171 240" version="1.1" xmlns="http://www.w3.org/2000/svg" xmlns:xlink="http://www.w3.org/1999/xlink">
    <!-- Generator: Sketch 62 (91390) - https://sketch.com -->
    <title>bust-mask-13</title>
    <desc>Created with Sketch.</desc>
    <g id="Introduction" stroke="none" stroke-width="1" fill="none" fill-rule="evenodd">
        <g id="busts-covid-19" transform="translate(-801.000000, -236.000000)">
            <g id="a-person/bust" transform="translate(767.000000, 188.000000)">
                <g id="body/Sporty-Tee" transform="translate(31.056338, 135.052838)">
                    <path d="M24.1490278,150.516626 C26.6781375,150.672961 29.2070756,150.796482 31.7358569,150.890742 C64.8056915,152.123415 97.8487113,148.352068 130.898112,147.526865 C142.407338,147.223788 153.857619,147.375115 165.337267,148.299561 C166.462056,148.390019 167.748253,147.179405 167.610084,146.025855 C165.489169,127.711507 162.835859,109.445769 161.460718,91.0561799 C161.459662,90.0835458 161.585155,89.1123912 161.91938,88.1959764 C161.982338,88.1241173 162.308957,87.3184499 162.59945,87.2685713 C162.504591,87.3387396 162.934521,87.215311 162.660718,87.236446 C164.320436,86.9646495 165.948253,85.1723991 164.743816,83.4572914 C152.335647,64.4321721 135.397478,47.0676319 129.948042,24.4704813 C128.660577,18.3611897 124.010155,17.9835067 119.055929,15.4631544 C117.510295,14.5435693 113.730507,11.9959529 113.115295,10.2248374 C111.645929,3.8414245 114.233535,-2.41221934 106.673746,-4.99513127 C101.683183,-6.37926435 92.8623376,-7.55035632 87.8128306,-6.09055984 C81.6533235,-4.03982795 82.1143094,2.9038746 78.541563,7.68102528 C76.6937964,10.4441509 73.5437704,14.2273481 70.6350021,14.6507083 C69.225231,14.8558951 68.1868662,12.0031248 66.779239,12.1994832 C44.8382531,17.5303717 14.9451545,53.8965713 5.51501367,74.0276867 C3.38987282,80.3633345 10.2435418,78.4518824 9.8224855,84.8198668 C9.30340099,96.9008609 8.16811226,112.36663 8.84142212,124.461996 C9.47205592,131.482207 9.00536578,138.837832 11.1867038,145.594066 C10.5995911,146.307162 11.4431827,147.027655 12.1314925,147.337495 C12.9987461,148.812931 21.5322672,150.31225 24.1490278,150.516626 Z" id="âœ‹-Skin" fill="#D08B5B" fill-rule="evenodd"></path>
                    <path d="M66.779239,12.1994832 C68.0920012,12.0163581 68.1774083,15.8776026 69.4486202,16.044771 C75.3485848,24.3309743 84.4917043,27.0815701 95.0655768,27.0815701 C106.290462,27.0815701 115.392211,23.7045461 122.370826,16.950498 L123.010374,17.2200825 C126.313406,18.6246026 129.014603,20.0411157 129.948042,24.4704813 C135.397478,47.0676319 152.335647,64.4321721 164.743816,83.4572914 C165.948253,85.1723991 164.320436,86.9646495 162.660718,87.236446 C162.934521,87.215311 162.504591,87.3387396 162.59945,87.2685713 C162.308957,87.3184499 161.982338,88.1241173 161.91938,88.1959764 C161.757642,88.6394464 161.644785,89.0957353 161.571494,89.5588073 C152.304485,91.5227949 146.425356,92.5317495 143.934108,92.5856709 C118.917628,93.1271369 83.5351658,93.0112635 37.7867204,92.2380507 L9.04435683,81.3621102 C7.40053954,78.8928523 3.91594714,78.7949577 5.51501367,74.0276867 C14.9451545,53.8965713 44.8382531,17.5303717 66.779239,12.1994832 Z" id="ðŸ‘•-Top" fill="#E86BBB" fill-rule="nonzero"></path>
                    <path d="M81.271077,0.0724147155 C81.8414996,-2.49528 85.9253024,-1.39414497 85.2260066,1.16298223 C84.1422038,5.11755757 81.8943165,8.85423076 78.7212883,11.4770879 C76.2703728,13.5018237 72.9304432,15.3086574 69.6175559,15.6425908 C69.9281193,15.9450331 70.2260066,16.2683991 70.5386827,16.5767591 C71.2443165,17.2784421 71.9943165,17.929401 72.7675559,18.5549979 C74.3564996,19.8400077 76.008401,20.9960938 77.8126263,21.9640781 C85.0189644,25.8319998 93.1593165,26.7238981 101.208401,25.8233345 C105.028119,25.3964069 108.90488,24.6716867 112.496429,23.2744499 C114.161429,22.6279294 115.779528,21.7780899 117.207908,20.7046417 L117.58168,20.4239384 C118.332581,19.8566469 119.334701,19.0562375 119.804176,18.1811192 C118.376007,18.5021603 116.569669,16.9804382 115.578824,16.0950918 C114.495232,15.1228805 113.582345,13.8693619 112.908401,12.5843521 C111.587978,10.0631544 110.888683,6.81047342 111.995936,4.10709182 C112.069669,3.92744407 112.306288,3.95724446 112.327415,4.15168673 C112.65488,7.30291961 113.504176,10.2575967 115.76495,12.590904 C116.768471,13.6244069 117.970373,14.4909431 119.282345,15.0930801 L119.467024,15.1779315 C120.025918,15.436611 120.614366,15.7400233 120.84995,16.2935497 C120.941007,16.2829822 121.03164,16.2914362 121.11826,16.3148961 C121.196429,16.3358198 121.26826,16.3592797 121.337978,16.3846417 C121.18164,16.0781838 121.099457,15.7167748 121.114035,15.2896359 C121.169176,13.6347631 123.440302,13.5842503 123.75488,15.0573619 C123.697838,14.8629196 123.621781,15.0510214 123.765443,15.1101995 C123.763193,15.0930336 123.759193,15.0740966 123.754774,15.0572562 L123.759101,15.0728335 L123.759101,15.0728335 L123.767662,15.1100938 L123.765443,15.1101995 C123.771218,15.1368296 123.775866,15.1645869 123.778949,15.1925948 L123.781901,15.2294463 L123.780064,15.1985901 C123.778116,15.1757775 123.775389,15.155369 123.772333,15.1367834 L123.767556,15.1101995 C123.788683,15.1205556 123.81826,15.1271075 123.852063,15.1271075 L123.866027,15.1326107 C123.918949,15.1554378 124.105612,15.2425047 124.160725,15.2644852 C124.538683,15.4039764 124.961218,15.4481486 125.347838,15.5686182 C126.186781,15.8266769 126.926218,16.2536045 127.437486,16.9804382 C127.805091,17.5026848 128.009809,18.1008061 128.094316,18.7219646 C131.806288,20.5080859 135.319669,22.8285008 138.262838,25.7009627 C144.831147,32.1088922 149.411218,40.1296359 153.169669,48.4316867 C155.082581,52.6581642 156.787282,56.9742912 158.454584,61.302149 L158.717556,61.9855811 C160.50488,66.6371897 162.085373,71.3397337 162.473894,76.340493 C162.509809,76.7885556 162.361922,77.2091427 162.106288,77.5578707 C162.197133,77.9340742 162.243824,78.3102777 162.230936,78.6778159 C162.228824,78.7350918 162.224809,78.7921564 162.220373,78.849221 C162.820373,78.8386535 163.407697,79.0901603 163.965443,79.7960703 C164.1915,79.7242112 164.43657,79.7155458 164.677415,79.7937454 C166.145725,80.2629431 166.382345,81.8757572 166.659105,83.2262856 C166.944528,84.6211975 167.068964,86.0499255 167.071077,87.4721016 C167.071077,87.9816672 166.779528,88.6241721 166.285162,88.8418629 C165.355584,89.2516711 164.354387,89.5202973 163.392908,89.8922738 C162.670373,90.1712562 161.945725,90.4354441 161.214739,90.6827239 C161.620373,91.390536 161.751359,92.3756398 161.971077,93.1217063 C162.315443,94.2862464 162.592204,95.4550135 162.824809,96.6470292 C164.400655,104.752313 165.492908,112.94425 166.967556,121.066442 C167.70488,125.134935 168.562838,129.175953 169.437274,133.21697 C169.86826,135.203663 170.326711,137.185918 170.818964,139.159929 C171.081147,140.212454 171.353471,141.26519 171.634457,142.311162 C171.716147,142.616916 171.798777,142.92173 171.882345,143.226231 L172.029528,143.759123 L172.029528,143.759123 C172.350655,143.936657 172.625302,144.205072 172.815443,144.57261 C173.510725,145.91701 173.111218,147.432391 171.778119,148.189025 C170.328824,149.013291 168.598753,148.235311 167.79995,146.897464 C167.237978,145.952939 167.054176,144.701745 166.777415,143.651123 C166.464739,142.472 166.166852,141.286325 165.879528,140.10065 C163.927621,132.045549 162.620491,123.849305 161.635273,115.622206 L161.565443,115.034505 C161.064739,110.799045 160.580936,106.553017 160.26826,102.298536 C160.114035,100.208282 159.9915,98.1180272 159.915443,96.0233345 C159.877415,94.9456593 159.938683,93.8614323 159.99995,92.785448 C160.027415,92.3143482 160.067556,91.8407122 160.082345,91.3696124 L160.087098,91.3025215 C160.091007,91.2547743 160.0965,91.1919631 160.100936,91.1260557 L160.105584,91.0462464 C158.647838,91.5027631 157.168964,91.8831936 155.675514,92.2042347 C152.497838,92.8911231 149.246429,93.2738785 146.003471,93.0794362 C146.455584,98.4519607 147.045021,103.811593 147.868964,109.135507 C148.663331,114.263076 149.580232,119.379655 150.615443,124.464955 C151.13326,127.02018 151.692908,129.569064 152.282345,132.109495 C152.599246,133.466364 152.960514,134.814567 153.245936,136.177988 C153.414739,136.989362 153.467556,137.667796 153.127415,138.426755 C153.501935,139.447001 153.83455,140.472486 154.161769,141.438108 L154.259809,141.725933 C154.838683,143.416736 155.937274,145.14537 154.790091,146.806794 C154.19664,147.664665 153.229035,148.155209 152.25488,148.184798 C152.237978,148.195154 152.218964,148.208047 152.19995,148.218403 C151.676007,148.499499 151.071781,148.554661 150.497133,148.434192 C149.624598,148.605174 148.74995,148.770239 147.87319,148.920297 C145.707697,149.294387 143.53164,149.602747 141.351359,149.86292 C137.19995,150.357268 133.021077,150.628008 128.844528,150.778066 C113.552767,151.329479 98.2443165,150.361495 82.9466404,150.640477 C75.1527672,150.782082 67.3591052,151.132924 59.5781193,151.598106 C55.6950207,151.830591 51.8098094,152.079984 47.9245982,152.272313 L46.7219973,152.330832 C43.2474926,152.497061 39.77047,152.625559 36.2985418,152.371648 C36.2309362,152.367209 36.1781193,152.339734 36.1422038,152.301902 C34.9443165,152.166638 33.7403024,151.063178 33.8605137,149.788947 C34.3781193,144.36126 34.8957249,138.933996 35.4154432,133.504196 C36.3386827,123.830904 37.2703728,114.157401 38.2126263,104.4858 L38.348799,103.089617 C38.6653992,99.8307572 38.967644,96.564312 39.121077,93.2926887 C38.3478376,93.237949 37.5769221,93.1682034 36.8055841,93.0834519 C28.4487954,92.1682037 20.4375345,89.6396551 12.7454208,86.3181636 L12.4337531,86.1830762 C11.7407954,85.8806339 10.9823447,85.578403 10.2048799,85.2552484 C10.2177672,86.7323756 10.1689644,88.2118276 10.1626263,89.6743717 C10.152063,92.1029979 10.171077,94.5314128 10.1774151,96.9575028 C10.1922038,101.958051 10.3823447,106.960712 10.6316404,111.953017 C11.0689644,120.77034 11.5823447,129.575194 12.3598094,138.371593 C12.5562883,140.58443 12.8226968,142.793041 13.0105137,145.005879 C13.1226968,146.30991 12.8541756,147.396462 11.6607249,148.081237 C11.0731897,148.419397 10.6189644,148.277792 10.0358658,148.005151 C8.61192212,147.337072 8.57178128,145.758497 8.43657001,144.38472 C8.33326015,143.348892 8.23797846,142.313487 8.14502071,141.275757 C7.94664043,139.06292 7.7753024,136.849871 7.63586578,134.632806 C7.0846686,125.823726 6.92389395,117.023311 7.30417564,108.203663 C7.480735,104.078407 7.73562505,99.9438576 8.07392039,95.8259043 L8.15347142,94.8759137 C8.43234466,91.5849783 8.61192212,88.1317259 9.18868268,84.8198668 C6.86262635,83.7884773 4.55769677,82.475992 3.48868268,80.2946456 C2.10297846,77.4625517 3.62600663,75.0406887 5.79572494,73.3729235 C5.77459818,73.0918276 5.79572494,72.8128452 5.85487987,72.5594362 C6.4781193,69.8602816 7.52178128,67.1930409 8.52952775,64.6190057 C9.54572494,62.0318668 10.6675559,59.4853071 11.9013587,56.9932758 C16.8534714,47.0112014 23.6182601,37.8895341 31.6823447,30.2046261 C35.6879785,26.3878511 40.0717813,22.8602034 44.7513587,19.9012993 C47.071077,18.4368531 49.4499503,17.0839998 51.9133306,15.8795145 L52.2775303,15.7020968 C53.9924019,14.8695795 55.915739,13.9844069 57.8226968,13.5208452 C58.021077,13.3729 58.2217813,13.2334088 58.4245982,13.1002582 C59.1745982,12.6012601 60.192908,12.9626691 60.63657,13.6749196 C60.8522742,13.5079529 61.1013587,13.360219 61.38657,13.226857 L61.6684757,13.0981375 C63.3795492,12.3273894 65.4341238,11.606679 67.2914996,12.1132523 C68.4450207,12.4281642 69.3534714,13.2777924 69.7614292,14.3599059 C70.6971334,13.8653462 71.6161475,13.355992 72.5140348,12.7325086 C73.9569925,11.7349353 75.264739,10.4962112 76.4393869,9.19640689 C78.7950207,6.58221511 80.5062883,3.51974935 81.271077,0.0724147155 Z M163.008401,82.4990292 C162.847838,82.5457376 162.678824,82.5626456 162.503471,82.5412993 C162.820262,82.578547 162.185653,82.765874 162.011616,82.8556985 L161.998542,82.8627631 C161.68164,83.044313 161.362838,83.2197337 161.039387,83.3890253 C160.285162,83.7861525 159.514246,84.1433345 158.730232,84.4795928 C157.185866,85.1368922 155.590795,85.6420194 153.953471,86.0118824 C152.352063,86.3730801 150.672486,86.5844304 149.030936,86.6182464 C147.932345,86.6393814 146.628824,86.5888687 145.492204,86.2652914 C145.623401,88.2583247 145.768964,90.2492445 145.93164,92.2380507 L148.176388,91.7232014 C150.421288,91.2079162 152.663841,90.6800292 154.878824,90.0378942 C156.5415,89.5562268 158.180936,88.9919216 159.801359,88.3830214 C160.650655,88.0638824 161.493612,87.7259333 162.326007,87.3624108 C162.740255,87.1814245 163.128688,86.9661734 163.512477,86.7481805 L163.840795,86.5613932 C163.764739,85.6716085 163.625302,84.7987317 163.422697,83.9195145 C163.317063,83.4545439 163.137274,82.9768922 163.008401,82.4990292 Z M9.29431649,73.1129627 C9.00910522,74.0388883 8.57178128,74.903311 7.57459818,75.1125478 C7.22178128,75.1865204 6.9262179,75.1463638 6.6809362,75.0258942 L6.62211998,75.1445662 C5.80223044,76.8280577 5.56144859,78.6049778 7.44783761,79.9017454 C8.29945733,80.4871858 9.22671085,80.9944265 10.1858658,81.4486182 C11.9010947,82.2651569 13.7277342,82.9215729 15.4499262,83.5892273 L15.792908,83.7229587 C18.8731897,84.9318824 22.002063,86.0330175 25.1795278,86.9542934 C28.4036827,87.8863482 31.6844573,88.6345282 35.0057954,89.1100664 C36.4062883,89.308947 37.8175559,89.4484382 39.2311475,89.5393188 C39.2541756,87.6371662 39.2436123,85.7329 39.2372742,83.8307474 C38.7344573,83.767131 38.2358658,83.6997102 37.7543869,83.6424343 C36.2879785,83.4714519 34.8260066,83.2622151 33.3724855,83.0022542 C30.33657,82.459084 27.3323447,81.7087904 24.402063,80.7492601 C18.9724855,78.9675771 13.921077,76.4205948 9.29431649,73.1129627 Z M68.8231897,14.8479137 C67.5893869,13.5419803 65.2295278,14.0132914 63.7403024,14.6473423 C63.2900911,14.8396711 62.8358658,15.0341133 62.4048799,15.2687122 L62.3213984,15.3154243 C61.8194742,15.6046112 61.8220031,15.7764813 62.067063,16.3527278 C62.3858658,17.1116867 62.8295278,17.8448609 63.252063,18.5486574 C65.0607249,21.5690644 67.4414996,24.1982621 70.1605137,26.4193423 C79.7900911,34.2815732 93.623894,37.0547004 105.666147,34.4212758 C111.445593,33.1587481 117.020456,30.6103551 121.27503,26.4305611 L121.662472,26.044896 C123.377937,24.3276687 125.732738,21.8420454 125.567556,19.2970488 C125.489387,18.0731192 124.490091,18.0033736 123.469669,17.7668726 C123.05157,17.6696515 122.652063,17.5320625 122.305584,17.3378315 C122.584457,18.5404147 121.099457,20.3282268 120.332345,21.0787317 C118.724598,22.6530801 116.789387,23.8831388 114.742415,24.8027239 C110.846429,26.5548178 106.608612,27.383311 102.389387,27.9072484 C97.602063,28.5034676 92.7112179,28.45063 87.9598094,27.5692993 C83.8253024,26.8020977 79.7499503,25.3501212 76.1922038,23.088673 C74.5612179,22.0528452 72.9534714,20.8713971 71.592908,19.495718 L71.3037508,19.2033734 C70.3214437,18.2077563 69.1785034,17.0042824 68.5907954,15.6977533 C68.3668517,15.6998668 68.1450207,15.6933149 67.9231897,15.6785204 C67.7668517,15.6702777 67.6825559,15.4481486 67.8386827,15.365722 C68.0140348,15.2727278 68.1893869,15.179945 68.364739,15.0890644 C68.3353728,14.9916319 68.3098094,14.8967357 68.2886827,14.7995145 C68.2717813,14.7170879 68.358401,14.6410018 68.4344573,14.6874989 C68.5400911,14.7506926 68.6414996,14.818536 68.7407954,14.8901838 C68.7682601,14.8777141 68.7957249,14.8629196 68.8231897,14.8479137 Z" id="ðŸ–-Ink" fill="#000000" fill-rule="evenodd"></path>
                </g>
                <g id="head/Bangs-2" transform="translate(78.591549, 38.043053)" fill-rule="evenodd">
                    <path d="M82.1216419,34.1722779 C69.4444998,25.7599022 44.0472079,26.6735695 30.0920635,31.8275577 C16.4754991,36.1566458 11.7081836,48.2194638 9.4473296,61.2519569 C6.69926622,75.8991663 7.06862618,97.0136947 26.8298055,96.7581722 C29.6080164,98.1051076 32.6858053,98.6892798 35.5603618,99.8047867 C39.49472,101.168419 43.352339,102.751432 47.3446732,103.945773 C55.2079081,106.484513 63.95786,106.263652 71.4169494,102.548748 C75.5379709,100.553085 77.2436805,97.4452114 79.9386883,94.13357 C87.7791805,84.4991272 91.7243541,70.7110041 91.3710308,58.4604423 C90.7510036,49.83418 89.327745,39.8483014 82.1216419,34.1722779 Z" id="âœ‹-Skin" fill="#D08B5B"></path>
                    <path d="M98.1636911,69.6811773 C96.86292,61.5864611 96.5024146,53.3543671 94.7989737,45.323056 C93.1967273,37.7653808 90.2009482,30.6236431 84.9662406,24.8622341 C80.2817781,19.7074004 74.2248651,15.9221166 67.7231179,13.5232908 C55.0569386,8.85033581 40.4891457,9.90708728 28.2361773,15.3622497 C16.7674663,20.4661479 7.61990435,29.9092791 2.28821867,41.2418818 C-1.17558504,48.605326 -2.91697388,56.4337409 -3.69069023,64.5136626 C-4.54873534,73.4897096 -4.64149697,82.5587507 -4.99146131,91.5665002 C-5.03362569,92.6782027 -5.09476404,93.7899053 -5.10952157,94.9018192 C-5.12638732,96.1189855 -4.63517231,97.1863045 -4.23461071,98.3191421 C-4.20720387,98.3994552 -4.16714771,98.4757526 -4.11865867,98.5476117 C-4.42013398,98.5854434 -4.72160929,98.629827 -5.0230846,98.6784376 C-5.36039963,98.7312751 -5.34564209,99.2807859 -5.0230846,99.3463045 C-2.29294108,99.9042693 0.513098324,99.9824689 3.28962266,100.119847 C6.1673415,100.263565 9.04927679,100.341976 11.9312121,100.438986 C14.7414679,100.534093 17.5517237,100.629201 20.3619796,100.724308 C21.8377328,100.775032 23.3134861,100.825757 24.7892393,100.874367 C25.4912763,100.897616 26.1933132,100.923189 26.8974583,100.946226 C27.2474226,100.959119 27.5994952,100.969263 27.9494595,100.982156 C28.2340691,100.99061 28.6978773,101.172371 28.7273923,100.963134 C28.7800978,100.995048 28.8370197,101.022101 28.898158,101.041334 C28.9656211,101.077263 29.0309758,101.119533 29.0942224,101.166031 C29.4378621,101.402743 29.9585922,101.373154 30.3064483,101.166031 C30.3380716,101.147009 30.3718031,101.125874 30.4055346,101.104739 C30.6648455,100.950453 30.8461523,100.726422 30.9473469,100.472802 C32.3893686,102.218555 34.9424217,100.257224 33.4666685,98.4100227 C32.6739782,97.4166763 24.7892393,73.062782 28.0527623,54.5104532 L41.1405854,52.7731538 C42.7358044,52.6111186 45.0176,52.3687703 47.9859723,52.0461088 C48.7126051,49.6691225 49.1799269,48.0980853 49.3879379,47.3329973 C49.4111283,47.2484571 49.4343187,47.1618035 49.4596173,47.0772634 C49.7716337,47.629099 50.0857583,48.1783984 50.4019912,48.7279092 L52.0168869,52.0186333 C67.9072357,51.7523319 77.8004044,51.6318622 81.696393,51.6572243 C81.7954793,51.6572243 82.2656121,58.7797292 82.052682,61.9161675 C81.6226054,68.2144063 81.1651219,74.508418 80.5284397,80.7897487 C80.1220763,84.8118376 79.1425938,88.756242 77.6835076,92.4632769 C75.3786434,98.3191421 68.6866847,103.885115 62.1616364,103.885115 C58.1000129,103.885115 48.9220215,100.587353 47.5854107,99.9213886 C46.2487999,99.2554239 45.4523716,101.073036 46.6704437,101.800081 C49.1378559,103.272835 55.939334,106.39695 62.1616364,106.39695 C71.1980633,106.39695 78.0196592,97.8013339 78.8566221,96.5691616 C87.0850006,96.1170834 95.5010106,96.3261088 103.718848,97.1440344 C104.408236,97.2116665 105.002753,96.3789464 104.78139,95.742782 C101.829884,87.2741871 99.5846307,78.5390795 98.1636911,69.6811773 Z" id="ðŸ–-Ink" fill="#000000"></path>
                </g>
                <g id="face/Smile" transform="translate(112.183099, 77.354207)" fill="#000000" fill-rule="evenodd">
                    <path d="M30.968993,50.9198978 C29.548794,50.3403012 28.2816173,49.3734958 27.3551889,48.1384646 C27.0331038,47.7091169 26.9495926,47.2557326 27.017159,46.8410547 C27.0931327,46.3747786 27.3688808,45.9521824 27.7449394,45.6687178 C28.1221628,45.3843752 28.5940214,45.2441445 29.0502103,45.3156301 C29.4466117,45.3777469 29.8412104,45.5948709 30.1535058,46.0451781 L30.2187521,46.1352289 C30.7695298,46.8806513 31.4872438,47.4922614 32.3050288,47.8864795 C33.0932406,48.2664417 33.9747757,48.4437847 34.8870208,48.3406561 C36.6244504,48.1443157 37.8219743,47.2043274 39.0948115,45.9278391 C39.2525834,45.7666792 39.4104563,45.6004672 39.5690946,45.4315797 C39.6692778,45.278484 39.8083069,45.1800892 39.962667,45.1284632 C40.1340565,45.0711416 40.327938,45.0743848 40.5055187,45.1363808 C40.6767961,45.1961763 40.8299095,45.309486 40.9325762,45.4602937 C41.0301525,45.6036243 41.0854754,45.7806897 41.0675245,45.9843589 C40.9510195,47.3072301 40.2596776,48.4878363 39.2776553,49.4148615 C38.1869942,50.4444414 36.7412431,51.1567117 35.3801317,51.4065272 C33.8805866,51.6817086 32.3525901,51.4845569 30.968993,50.9198978 L30.968993,50.9198978 Z M36.0875289,30.5120405 C37.6828906,31.482148 40.1137318,33.7442494 38.3974899,36.149264 C36.3773089,38.2698449 33.4687045,35.8384541 32.0353946,34.7388307 C30.7063626,33.8866164 29.2131206,36.0784478 30.4461973,37.0735516 C40.8033244,44.7445605 45.006466,30.7657101 36.8944406,29.3714319 C36.0012775,29.2177885 35.6695544,30.2119271 36.0875289,30.5120405 Z M17.5274577,21.5886716 C17.7037243,19.3998697 21.0359789,18.9028321 21.3674577,21.0687499 C21.6642887,23.0089456 21.3148521,24.7912626 20.4412606,26.5380728 C19.6065423,28.2068947 17.5085456,27.4283107 17.3498837,25.9087021 C17.1372039,23.8717299 17.4178099,22.9502317 17.5274577,21.5886716 Z M42.8930282,20.6196517 C43.3576056,20.0109628 44.0283803,19.5954481 44.8320423,19.8302583 C47.3429577,20.5642779 46.6028873,24.1303914 45.7210563,25.8662114 C45.2419014,26.8088337 43.6930986,27.0478708 42.993169,26.2178982 C41.8523239,24.864411 41.3059859,22.1614521 42.756338,20.8282544 C42.7956338,20.7593542 42.8393662,20.68982 42.8930282,20.6196517 Z M20.4058944,12.0111429 L20.802522,11.9416942 C22.0295218,11.7294045 23.5551549,11.5254176 24.4231479,12.5122544 C24.8835,13.0355577 25.0419507,14.0081918 24.4231479,14.509092 C23.3346972,15.3904227 22.1313169,15.0488806 20.8269507,15.1234873 C19.7520211,15.1852016 18.7189225,15.3631585 17.6835,15.6592603 C15.4119507,16.3087397 13.5610352,17.4944149 11.6209648,18.7963327 C11.3663873,18.9671037 11.1065282,18.6414129 11.228007,18.4032211 C12.3479366,16.208771 14.5182887,14.4061644 16.6922324,13.3073542 C17.8525141,12.7208571 19.1222324,12.2343288 20.4058944,12.0111429 Z M40.6041287,11.0281289 L40.9077055,11.0902829 C44.2113469,11.7811043 48.5035506,13.1610768 50.0679842,16.4073021 C50.1275964,16.8663298 50.0646105,16.9647086 50.0133917,17.0289838 L49.9963385,17.0503723 C49.9541341,17.1052595 49.9204583,17.1809212 49.7215736,17.2433957 C49.6663832,17.2302408 49.6106433,17.216308 49.5543131,17.2015401 C48.8372041,17.0135386 48.2698321,16.7545401 47.720556,16.4857982 L47.1250012,16.192275 C46.4340388,15.8533498 45.7369757,15.5267598 44.9982488,15.2856588 C43.4217423,14.7712438 41.8001698,14.4088706 40.1534741,14.2153715 C39.7965654,14.1734678 39.4528848,14.0529641 39.1817455,13.8464404 C38.92438,13.6504079 38.7277692,13.3789964 38.6381257,13.0182314 C38.5219478,12.5513438 38.5553348,12.1978716 38.8057421,11.7766707 C38.9940329,11.4603578 39.263447,11.2411116 39.5728025,11.115213 C39.888177,10.9868648 40.2472278,10.9566068 40.6041287,11.0281289 Z" id="ðŸ–-Ink"></path>
                </g>
                <g id="facial-hair/*-None" transform="translate(104.577451, 109.479380)"></g>
                <g id="mask/medical-mask" transform="translate(83.450704, 97.432485)" fill-rule="evenodd">
                    <path d="M83.0825493,14.8698035 C82.6843099,9.82212446 76.3219859,7.68389354 73.1529718,7.04984266 C62.6005775,4.56816751 53.6229718,10.9353065 41.0402958,11.0654982 C39.7703662,11.0853652 36.1386761,10.871056 34.4498028,10.4248955 C25.881,8.47709119 17.3210704,6.40522427 8.91346479,3.85063327 C7.67733803,4.14018317 7.3116338,5.75426536 8.16029577,6.67385049 C16.2129718,9.53067241 28.5326197,12.0888564 35.0383944,12.3800971 C34.9135352,20.7876117 30.4769155,29.2416235 24.3501549,33.8913299 C34.0944507,44.6712517 56.8202958,48.2164415 70.1948028,42.5579601 C76.7738873,40.5826802 83.7163521,22.9011147 83.0825493,14.8698035" id="ðŸŽ¨-Color" fill="#FFFFFF"></path>
                    <path d="M8.23354225,4.10507789 C7.87121831,4.09091742 8.08248592,3.03416595 8.89861268,3.18485871 C19.4290352,5.64856908 32.5487535,10.341391 43.3726268,10.3069409 C51.3350915,10.0461346 58.4698099,5.60989198 66.4762183,5.58305049 C71.8582606,5.68618943 78.7210775,6.45191155 82.4875563,10.7723342 C87.4555141,26.5344164 76.2682606,47.9729448 58.6660775,48.0970074 L55.3344357,47.8558609 C43.978046,47.0188669 31.5368535,45.6797202 24.216993,36.041164 L24.1599507,36.0901973 L24.1599507,36.0901973 C23.0653732,35.3555436 23.1264296,33.768937 24.0566408,32.9529135 L24.0843169,32.9964517 L24.0843169,32.9964517 C24.1020634,32.967708 24.1217113,32.9402325 24.1407254,32.9121229 L24.1288944,32.8751366 L24.1288944,32.8751366 C24.4867817,32.4993558 24.8936831,32.1478802 25.2636127,31.8331796 L25.2655141,31.8393088 L25.2655141,31.8393088 C30.7618521,27.2582912 34.3506549,20.3312853 34.5572746,13.1582677 C32.7376268,13.6583225 2.16593662,7.3178137 7.62319014,5.7705182 C11.5265704,7.09061213 15.4529789,8.28283914 19.4586127,9.23180196 C19.5257958,9.19397025 19.6221338,9.20390372 19.6591056,9.27851037 C24.5592465,10.4848978 29.5582606,11.1743225 34.5638239,11.7324986 C34.5585423,11.4932501 34.5494577,11.2540016 34.5372042,11.0143303 C25.6369225,9.28104658 16.9115704,6.7076454 8.23354225,4.10507789 Z M80.3017817,10.5020172 C62.0463592,1.27636556 52.984669,14.9061346 35.3292465,11.1533988 C37.1763592,19.3973284 32.6153028,28.2848196 26.4203028,33.6712932 C35.4215704,41.4650466 39.3173451,42.6452266 51.1250915,43.9101581 L52.6676413,44.0939068 C54.986901,44.36868 57.3279277,44.6249832 59.6543873,44.6651014 C71.721993,43.7865182 80.8405141,31.226393 82.2050915,19.8462364 L82.2124871,19.5318664 C82.2736535,16.6437406 82.1410478,13.5866266 80.8620634,10.9407804 C80.6265,10.8587765 80.4217817,10.7110427 80.3017817,10.5020172 Z M54.8870915,17.744083 C55.5179366,17.6020556 56.161669,18.2906348 55.7706127,18.8936172 C54.5070211,20.8433237 51.4168099,21.5986896 49.2555423,21.9051476 C46.7526549,22.2600047 44.3264577,21.9801769 41.9488521,21.1261104 C41.8214577,21.0802474 41.8305423,20.8549479 41.9830775,20.8731241 C44.2406831,21.1419616 46.568007,20.9451945 48.7615986,20.3474959 C50.9858239,19.9140164 52.7818099,18.4341417 54.8870915,17.744083 Z M72.0396905,16.3396814 C72.0292183,15.9691843 73.8499225,17.041153 74.1378803,17.1855053 C76.3616831,18.5212391 78.9357676,18.6190943 81.3883732,19.1434544 C81.9600634,19.362836 81.9592183,20.089881 81.388162,20.3092626 C78.3271056,21.1235953 73.6815423,18.9864211 72.0396905,16.3396814 Z" id="ðŸ–-Ink" fill="#000000"></path>
                </g>
                <g id="accessories/Glasses-5" transform="translate(88.521127, 88.978474)" fill="#000000" fill-rule="evenodd">
                    <path d="M77.5541197,15.7312885 C76.9566549,17.3578403 76.0473592,19.0511789 74.9354577,20.4200947 C70.4367254,24.2311632 66.0653873,22.1210419 63.8458099,16.9558521 C63.0024296,13.3056211 65.2416549,9.37366027 67.6144014,6.68845479 C71.041162,3.25253307 76.6336268,5.05577378 78.2092606,9.14032955 C78.3049648,9.66955068 78.3628521,10.1975037 78.3905282,10.7237659 C78.3577817,12.4338012 78.1517958,13.8952885 77.5541197,15.5199382 M34.3118662,12.4509205 C40.2383451,5.3987953 51.325669,5.02174638 51.0427817,15.8756407 C49.7696831,29.6142552 28.3321479,26.2421613 34.3118662,12.4509205 Z M79.4181338,6.56798513 C79.2104577,6.21608689 78.9799648,5.87560157 78.7283451,5.54991076 C78.6353873,5.49453699 78.5819366,5.0033589 78.2401056,4.96700665 C73.6710211,-0.0756 65.644331,2.78544892 62.7440493,7.8100908 C62.2144014,8.44540978 61.7823592,9.18915147 61.4637676,9.97495186 C58.606162,9.45059178 55.2746831,9.55246262 52.6169366,10.6322513 C49.9815845,3.74814951 42.0030634,3.13354286 36.7452465,6.07490489 C33.4750352,7.68391468 31.3545423,11.0534724 28.1741197,12.9044783 C20.6975704,13.4427875 12.6734155,11.766991 5.3318662,13.6431476 C-0.458133803,14.8474215 4.38200704,17.7803295 5.35299296,15.8230145 C12.2747535,13.7771436 20.4751056,15.505989 27.6617958,15.0450341 C28.4090493,16.3095429 29.8420775,17.3443139 31.2702465,17.3001417 C32.8127113,30.978944 52.752993,28.7107327 53.4408803,16.5511162 C54.2210915,15.3170419 55.1914437,14.1360164 56.5803169,13.3671241 C57.1120775,13.2570106 57.625669,13.1139264 58.0951056,12.8924313 C58.8975,12.7791476 60.133838,13.1194215 60.872007,13.7877112 C63.400669,28.9660438 77.9686268,27.19831 80.5720775,13.9014176 C80.623838,13.84858 80.7685563,13.6503335 80.8796831,13.3322513 C81.7708099,12.1535507 83.9523592,11.7154215 83.6037676,9.72555851 C83.2934155,7.7352728 80.7810211,7.75894403 79.4181338,6.56798513 Z" id="ðŸ–-Ink"></path>
                </g>
            </g>
        </g>
    </g>
</svg>