<?xml version="1.0" encoding="UTF-8"?>
<svg width="167px" height="240px" viewBox="0 0 167 240" version="1.1" xmlns="http://www.w3.org/2000/svg" xmlns:xlink="http://www.w3.org/1999/xlink">
    <!-- Generator: Sketch 62 (91390) - https://sketch.com -->
    <title>bust-mask-6</title>
    <desc>Created with Sketch.</desc>
    <g id="Introduction" stroke="none" stroke-width="1" fill="none" fill-rule="evenodd">
        <g id="busts-covid-19" transform="translate(-180.000000, -237.000000)">
            <g id="a-person/bust" transform="translate(146.000000, 188.000000)">
                <g id="body/Dress" transform="translate(31.056338, 135.052838)" fill-rule="evenodd">
                    <path d="M161.739513,136.404895 C161.226977,131.642962 160.911132,126.847635 160.729865,122.061608 C160.548808,117.281287 160.785639,112.442211 160.889583,107.659987 C161.101484,97.9317448 161.445851,88.1804649 160.671555,78.4670168 C159.939935,69.2870168 158.260146,60.1710559 155.609372,51.3505628 C154.318527,47.0548681 152.958175,42.5862888 150.835146,38.6171303 C148.700287,34.6264141 145.318738,31.9688955 141.604231,29.5318152 C137.649513,26.9370677 133.726484,24.2932869 129.787189,21.6744454 C126.480428,19.476191 120.529673,16.9176798 117.816575,13.978854 C114.961716,10.8865878 114.425063,3.22151465 112.523866,-0.441608633 C110.672316,-4.00962429 105.431189,-6.33712816 101.395675,-6.33712816 C94.7159213,-6.33712816 89.6547943,-6.6786192 84.1622591,-0.497257165 C81.421907,2.58697767 83.6022711,5.70487222 80.7298767,8.66504443 C78.0890317,11.3866022 71.3353577,14.1835569 67.9316253,15.7627663 C63.8550056,17.6541401 59.6754985,19.3240188 55.4353577,20.8115021 C51.110076,22.3289972 46.6757802,23.4599327 42.3262027,24.8920422 C38.1570478,26.2647624 32.7130478,31.9228122 29.476428,34.9165891 C26.4673435,37.7000725 25.7205689,37.3883397 23.4329633,40.7697331 C18.4123999,48.1904532 13.3863436,55.6963475 9.38831541,63.7308289 C7.39690696,67.7329581 5.46866752,71.9428446 4.74613231,76.3875413 C3.97542809,81.1281284 4.73958301,85.7093573 5.98944217,90.2992516 C7.26169569,94.9703045 11.3017632,99.4176008 12.6179604,104.076818 C13.2245097,106.223926 11.1424703,108.567103 12.1001464,110.590571 C12.5784563,111.601036 13.1807802,112.500755 13.8665548,113.38124 C14.3949351,114.059674 16.4555009,113.909329 16.7221206,114.739724 C16.9914868,115.578362 15.5007098,117.318696 15.4785267,118.186712 C15.4470478,119.428817 15.3976112,120.670923 15.3568365,121.913029 L15.1159915,129.256394 C14.957752,134.081944 14.7995126,138.907706 14.6412732,143.733256 C14.5895126,145.308449 14.5140901,146.847502 14.8916253,148.342171 C14.7553577,148.215784 14.6258506,148.078195 14.5075408,147.923698 C14.1612732,147.471408 13.426907,147.854798 13.7207802,148.383807 C14.2113436,149.266618 14.9167661,149.887987 15.7455689,150.334359 C16.7087379,151.754845 162.572963,154.927635 163.290639,150.774602 C163.693315,148.444465 162.960428,145.949897 162.6674,143.634766 C162.362329,141.223471 161.999794,138.822531 161.739513,136.404895 Z" id="âœ‹-Skin" fill="#FFDBB4"></path>
                    <path d="M9.73069732,67.0929006 L160.384626,75.3330664 C160.492592,76.3766578 160.588224,77.4214219 160.671555,78.4670168 C161.445851,88.1804649 161.101484,97.9317448 160.889583,107.659987 C160.861555,108.949494 160.823865,110.243134 160.787311,111.538641 L145.925178,113.993196 L40.2724169,116.533416 L13.8665548,113.38124 L12.770583,111.480442 L12.0112897,108.171899 C12.3371431,106.813413 12.9938622,105.407463 12.6179604,104.076818 C12.5083808,103.688916 12.3799211,103.302483 12.2357504,102.917268 L12.3720781,100.262133 L9.73069732,67.0929006 Z" id="ðŸ‘•-Top" fill="#FDEA6B"></path>
                    <path d="M13.5693858,76.3958473 C13.9262168,75.3733346 15.5584703,75.8158002 15.1991041,76.8451781 C13.3517802,82.1386575 14.6622732,87.8990098 16.6593858,92.9521839 C17.0601605,93.9660313 15.4249492,94.4016242 15.0296675,93.4015147 C12.9288225,88.0860548 11.6291041,81.9549941 13.5693858,76.3958473 M25.9557943,106.632043 C31.1656534,107.365217 36.3797379,107.817507 41.6255126,108.183143 C41.8600196,108.200051 42.0628365,108.164333 42.2381886,108.088035 C42.0818506,110.491088 41.9550901,112.896254 41.8557943,115.301421 C40.4255126,115.261476 38.9656534,115.356372 37.5480478,115.318329 C35.6952309,115.267605 33.8445267,115.174611 31.9959351,115.033217 C28.4170619,114.762477 24.8445267,114.331323 21.3057943,113.735315 C19.9832591,113.513397 18.3036816,113.378133 16.7973436,112.938524 C15.3733999,112.522376 14.1057943,111.833162 13.4403013,110.535472 C12.8741041,109.43645 12.770583,108.09036 12.770583,106.875096 C12.770583,106.037937 12.914245,105.188309 13.0008647,104.345022 C13.1086112,104.269147 13.2057943,104.178055 13.2839633,104.076818 C14.8557943,104.57328 16.4867802,104.922219 18.0839633,105.260168 C20.6846675,105.813906 23.3233999,106.26218 25.9557943,106.632043 M23.0174844,87.0899608 C23.0462168,88.7053111 23.4930478,90.1727162 24.362414,91.5327554 C24.950583,92.4531859 23.4871323,93.3000665 22.9029774,92.3861878 C21.8795971,90.7847867 21.3611464,88.9872524 21.3273436,87.0899608 C21.307907,85.9996047 22.9980478,86.0031976 23.0174844,87.0899608 M156.565653,104.712771 C157.271076,104.752294 157.980935,104.776387 158.68847,104.814008 C159.312555,105.347879 160.176639,105.621577 160.965724,105.451652 C160.992977,105.519918 161.017696,105.596638 161.040301,105.684982 C161.179738,106.228153 161.249456,106.811479 161.329738,107.365217 C161.41002,107.910501 161.471287,108.460223 161.513541,109.009734 C161.534668,109.286391 161.667766,109.911988 161.498752,110.153139 C161.346639,110.370618 161.010724,110.351597 160.778329,110.379072 C160.152977,110.446704 159.519175,110.478618 158.889597,110.531456 C157.70016,110.634806 156.510724,110.738368 155.3234,110.84193 C154.159315,110.943589 152.881146,110.911886 151.742414,111.218344 C151.548048,108.933436 151.370583,106.648951 151.205794,104.36193 C152.969879,104.622102 154.814245,104.61555 156.565653,104.712771 M8.65297738,100.923472 C9.36283654,102.294924 10.0177661,103.643339 11.3762168,104.467605 C11.5536816,104.57328 11.7522732,104.630344 11.9550901,104.645139 C11.8029774,105.298211 11.707907,105.966078 11.6233999,106.583221 C11.4374844,107.942415 11.3973436,109.347683 11.7374844,110.687644 C12.0691746,111.991675 12.6184703,113.156427 13.6959351,113.99126 C14.1966394,114.380145 14.7438225,114.675824 15.3184703,114.910423 C15.2212872,115.183065 15.164245,115.453804 15.1938225,115.751808 C15.0564985,116.442712 14.9656534,117.14672 14.8663577,117.820716 C14.648752,119.317076 14.4311464,120.81555 14.2600196,122.320364 C13.9177661,125.313084 13.6494563,128.305804 13.4233999,131.309092 C13.1973436,134.303926 13.0346675,137.303198 12.8994563,140.304372 C12.8297379,141.838775 12.7684703,143.372967 12.7114281,144.909483 C12.6543858,146.488481 12.398752,148.102986 13.0959351,149.567855 C13.657907,150.751417 15.5572027,150.683573 16.1403013,149.567855 C16.8797379,148.149483 16.6621323,146.465022 16.6811464,144.909483 C16.7001605,143.444826 16.7255126,141.978266 16.7572027,140.513397 C16.820583,137.514548 16.9135408,134.517389 16.9874844,131.51854 C17.0593154,128.591339 17.1480478,125.666039 17.2072027,122.738838 C17.2367802,121.206548 17.2388929,119.674258 17.2473436,118.141969 C17.2515689,117.29234 17.2874844,116.385859 17.2241041,115.50009 C17.7522732,115.624787 18.2846675,115.730462 18.8107239,115.83825 C22.826921,116.662517 26.8853717,117.262751 30.9691746,117.634728 C33.020583,117.820716 35.0783295,117.951753 37.136076,118.025937 C38.648752,118.080677 40.2163577,118.186352 41.7522732,118.129499 C41.6318506,121.798329 41.576921,125.469483 41.5832591,129.140849 C41.5874844,131.788857 41.6233999,134.437076 41.6888929,137.085295 C41.7248084,138.478094 41.7543858,139.870892 41.7966394,141.263691 C41.8156534,141.889499 41.8156534,142.521225 41.857907,143.144708 C41.870583,143.339151 41.8980478,143.527464 41.9339633,143.713452 C41.7945267,144.108677 41.6783295,144.499464 41.5832591,144.865311 C41.1184703,146.640442 41.1184703,148.34625 41.3255126,150.155198 C41.5029774,151.689601 42.7938225,153.111988 44.498752,152.573256 C44.7755126,152.486391 45.0522732,152.395511 45.326921,152.302517 C47.8367802,152.58784 50.3614281,152.653569 52.9072027,152.701969 C56.6276253,152.774039 60.3501605,152.797076 64.0726957,152.816098 C71.3741041,152.854352 78.6776253,152.873374 85.9811464,152.894297 C100.657907,152.936567 115.334668,152.976724 130.011428,153.018994 C134.084668,153.031886 138.157907,153.042243 142.231146,153.055135 C144.339597,153.061264 146.443822,153.063378 148.55016,153.143902 C149.532555,153.181945 150.517062,153.234783 151.499456,153.249577 C152.638189,153.268599 153.645935,152.940794 154.733963,152.643002 C155.348752,152.471597 155.59171,151.854454 155.460724,151.33263 C156.445231,151.567018 157.638893,151.068442 157.974808,149.958853 C158.219879,149.153397 158.129034,148.280521 157.763541,147.534454 L157.763541,147.53234 C157.057907,143.074963 156.162132,138.63872 155.458611,134.179229 C154.687484,129.294924 153.945935,124.400262 153.293118,119.496935 C152.802977,115.793867 152.399456,118.418838 152.050865,114.699072 C153.569879,114.817429 155.287484,114.354783 156.79171,114.158016 C157.871287,114.018736 158.959315,113.906509 160.041006,113.758564 C159.960724,114.849131 159.983963,115.960834 159.954386,117.007018 C159.897344,119.084591 159.922696,121.15371 159.975513,123.231495 C160.076921,127.240599 160.302977,124.907292 160.664245,128.899699 C161.029738,132.921695 161.477625,136.928896 162.020583,140.932082 C162.299456,142.992748 162.597344,145.051088 162.912132,147.107526 C163.057907,148.067057 163.207907,149.024685 163.362132,149.984215 C163.545935,151.114728 163.60509,152.186485 164.452273,153.035902 C165.096639,153.680521 166.412837,153.625569 166.839597,152.727331 C167.380442,151.59238 167.135372,150.620168 166.934668,149.428364 C166.771991,148.470736 166.615653,147.513319 166.461428,146.556113 C166.131851,144.503691 165.819175,142.449366 165.525513,140.393139 C164.959315,136.430321 164.424808,132.460951 163.947344,128.487777 C163.465653,124.482477 162.967062,126.822125 162.493822,122.817249 C162.25509,120.796528 162.016358,118.780247 161.737484,116.76629 C161.595935,115.730462 161.507203,114.627425 161.321287,113.559894 C161.380442,113.551652 161.439597,113.540873 161.498752,113.530305 C162.783259,113.295706 163.879738,112.570775 164.202977,111.247722 C164.511428,109.981734 164.143822,108.52553 163.883963,107.283002 C163.662132,106.22456 163.461639,104.873397 162.780513,103.966493 C165.180513,100.908254 166.741569,97.0599882 167.737273,93.3603013 C168.821921,89.3296399 169.275935,85.1222896 169.372062,80.956998 C169.483611,76.1314481 169.12002,71.3337965 168.293329,66.6156125 C168.273893,65.6157143 168.227837,64.6162387 168.153682,63.6178199 C167.426921,53.8198317 164.376217,42.2230411 154.704386,37.6449824 C154.666358,37.6261722 154.626217,37.6090528 154.586076,37.5921448 C153.827625,36.685452 152.881146,35.8696399 152.116358,35.1068767 C150.762132,33.7540235 149.346639,32.4605597 147.846639,31.268544 C144.876217,28.9079726 141.61847,27.022728 138.231851,25.3253738 C134.807203,23.6070959 131.331851,21.9947045 127.985372,20.119816 C125.069879,18.4839648 122.445935,16.51418 119.95509,14.2907749 C117.155794,11.790501 115.163541,8.41946377 114.381851,4.73985516 C114.34171,4.54773775 114.056499,4.60057532 114.052273,4.78423873 C113.847344,11.5284266 118.398048,17.4885049 123.635372,21.2589941 C129.897344,25.7630802 137.458611,27.8953933 143.809315,32.2621017 C145.387484,33.3463287 146.864245,34.5700469 148.269175,35.8696399 C146.116358,35.6498356 143.925513,35.7893268 141.907907,36.3853346 C141.113541,36.336724 140.314949,36.3221409 139.51847,36.2838865 C137.697344,36.1930058 135.874104,36.1086771 134.050865,36.0281526 C130.334668,35.8635107 126.616358,35.713452 122.898048,35.5824149 C115.602977,35.3243561 108.305794,35.1299139 101.008611,35.0012015 C86.3445267,34.7410293 71.6614281,34.6903053 56.9994563,35.1153307 C53.0233999,35.2294599 32.1163577,34.4368963 30.1811464,34.6607162 C33.026921,32.1963718 36.1494563,30.1845284 39.5825548,28.5294442 C43.8776253,26.4645518 48.3163577,25.0865479 52.9029774,23.8269002 C62.348752,21.2336321 72.157907,18.7333581 79.7170619,12.1455694 C81.5952309,10.5076047 83.264245,8.62468491 84.6311464,6.53865751 C85.9367802,4.54773775 87.3881886,1.99864186 87.4241041,-0.429773016 C87.4494563,-2.15418006 85.0494563,-2.78210178 84.1959351,-1.30476323 C83.6656534,-0.389616461 83.4036816,0.614297434 82.970583,1.57382777 C82.5395971,2.52490409 82.0283295,3.44216436 81.4600196,4.31947943 C80.342414,6.04409783 78.9564985,7.58251661 77.4480478,8.97108804 C74.2325548,11.9342192 70.3367802,14.1047867 66.3057943,15.7469785 C57.1536816,19.4730841 47.1438225,21.0455303 38.4712872,25.9575225 C34.676921,28.1067436 31.0452309,31.0721996 28.7656534,34.8551585 C28.3980478,34.9124344 28.0325548,34.9798552 27.6670619,35.0559413 C27.9395971,34.7114403 28.214245,34.3671507 28.4910056,34.0245518 C28.6726957,33.8005205 28.3917098,33.5048415 28.1698788,33.7032994 C23.857907,37.5414207 19.886076,41.686 16.286076,46.2046693 C12.842414,50.5288963 9.6311464,55.0604579 7.35790696,60.1244109 C3.27199147,69.2209276 2.37199147,79.6254912 4.48255485,89.352043 C5.05720273,92.0021644 5.86847034,94.597546 6.90156893,97.106274 C7.4339633,98.4018512 8.01072386,99.678407 8.65297738,100.923472" id="ðŸ–-Ink" fill="#000000"></path>
                </g>
                <g id="head/Bangs" transform="translate(78.591549, 38.043053)" fill-rule="evenodd">
                    <path d="M90.9969919,89.7909012 C90.1612939,88.551976 88.148999,79.5611531 86.8636179,78.1782925 C86.960596,72.8670108 88.4251785,54.478054 84.2418609,46.2117417 C85.1218315,45.319674 87.4602438,37.6360911 86.8636179,34.731419 C88.8343809,28.6483275 76.1738938,18.986788 71.3555594,16.3760101 C48.9618471,4.3377697 16.5117196,17.6259434 6.32754639,39.9265969 C0.20759765,53.3568368 0.094807937,68.3936293 -0.597109517,82.8447103 C-0.678908412,85.9379732 -0.962463858,89.0553291 -0.95930153,92.1448534 C-0.516786376,94.8596885 1.63040444,97.6243816 0.00264860284,99.8818632 C-1.79545133,101.128681 -5.42956896,104.166063 -3.81151093,105.888511 C-2.86323405,106.680053 -1.34847875,106.22083 -0.319457084,106.981839 C0.204435322,107.275734 0.531209256,107.919601 1.14385768,108.017635 C6.74033566,107.804536 10.6895508,107.786283 16.3033162,107.558853 C18.760867,107.478265 22.5030153,108.520266 25.3238639,106.445768 C35.1772283,111.939951 31.055714,103.968886 33.0481917,98.2937157 C39.1156458,100.350352 51.2020405,106.908729 57.6694237,107.120582 C62.9250027,107.771719 67.8394719,104.70338 73.0062948,105.401872 C79.425189,107.792489 86.9477358,108.323991 92.8273476,104.279259 C94.294668,103.219785 95.9271324,104.447064 97.7764621,103.303057 C101.370765,101.579777 92.8109035,91.7025638 90.9969919,89.7909012 Z" id="âœ‹-Skin" fill="#FFDBB4"></path>
                    <path d="M6.32754639,39.9265969 C16.5117196,17.6259434 48.9618471,4.3377697 71.3555594,16.3760101 C76.1738938,18.986788 88.8343809,28.6483275 86.8636179,34.731419 C87.3146481,36.9272584 86.0883399,41.8541865 85.082793,44.5134733 C80.4135971,47.972939 66.7794658,47.2548967 44.1812326,42.3595088 L43.3136993,42.1704905 L35.5968613,46.7545687 L32.4270656,58.6955082 C30.2988427,60.8065054 28.5791281,63.3837475 27.2679218,66.4272347 C25.1409847,64.0852559 22.5009353,63.0637454 19.3477736,63.3627031 C16.2723633,64.6749832 14.0077914,66.1048524 12.5540577,67.6523107 C11.1293987,69.1688198 11.1009055,72.5688676 12.4685782,77.8524541 L12.5540577,78.1782925 L19.3477736,80.2988127 L22.5003667,80.2988127 L31.1621342,90.9109391 L32.4268965,101.827559 C32.1422398,106.606485 33.2179425,110.847464 25.3238639,106.445768 C22.5030153,108.520266 18.760867,107.478265 16.3033162,107.558853 C10.6895508,107.786283 6.74033566,107.804536 1.14385768,108.017635 C0.531209256,107.919601 0.204435322,107.275734 -0.319457084,106.981839 C-1.34847875,106.22083 -2.86323405,106.680053 -3.81151093,105.888511 C-5.42956896,104.166063 -1.79545133,101.128681 0.00264860284,99.8818632 C1.63040444,97.6243816 -0.516786376,94.8596885 -0.95930153,92.1448534 C-0.962463858,89.0553291 -0.678908412,85.9379732 -0.597109517,82.8447103 L-0.536222761,81.5425908 C0.106981763,67.4928677 0.391196112,52.9539296 6.32754639,39.9265969 Z M84.9754081,83.1653012 L86.9481433,75.6749444 L86.9044828,76.8016215 C86.8853137,77.3252388 86.8707585,77.7872163 86.8636179,78.1782925 C88.148999,79.5611531 90.1612939,88.551976 90.9969919,89.7909012 L91.1779477,89.9840226 C93.3135564,92.2878581 101.262935,101.631476 97.7764621,103.303057 C95.9271324,104.447064 94.294668,103.219785 92.8273476,104.279259 C86.9477358,108.323991 79.425189,107.792489 73.0062948,105.401872 C72.2537785,105.300141 71.5066152,105.278313 70.7629714,105.313258 L70.4565277,104.351239 L77.4806534,98.2937157 L84.9754081,83.1653012 Z" id="ðŸ’ˆ-Hair" fill="#D6B370"></path>
                    <path d="M83.6588919,45.5063601 C83.5792012,45.0475186 84.2097695,44.7053425 84.4536904,45.1703131 C86.2256484,48.5479022 86.9354857,52.4595734 87.5631025,56.1903288 C88.1970439,59.9603953 88.615947,63.7461018 88.6391375,67.5732329 C88.6568465,70.5171311 88.3901568,73.4950568 87.8894548,76.4410685 L87.9503823,76.650728 L87.9503823,76.650728 C88.0628207,77.0358082 88.1762897,77.4206067 88.2909768,77.8051233 L88.4639445,78.3816869 C88.798308,79.4887397 89.1149625,80.600865 89.4583913,81.7051703 C90.1753966,84.0099452 90.9303498,86.321272 91.8550146,88.5516517 C92.7573323,90.728137 93.8546603,92.8270568 95.1590153,94.7888102 C96.4161463,96.6799726 98.4111539,98.2790489 99.2968166,100.379448 C99.6054599,101.111354 99.1490305,102.078916 98.2964667,101.962039 C98.2410206,102.029037 98.156481,102.077648 98.0417939,102.087793 C97.3798132,102.145703 96.7593643,102.09054 96.0988593,102.028403 C95.7301318,101.993742 95.7307643,101.488403 96.0988593,101.453742 C96.3794633,101.427323 96.6526884,101.404074 96.9257028,101.388223 C95.0367386,100.266164 93.6891651,98.0750959 92.6116544,96.2813659 C91.2269762,93.9768023 90.1810888,91.458775 89.328525,88.9124266 C88.4529817,86.2980235 87.8329545,83.629092 87.3347824,80.9191585 C87.2776497,80.6072055 87.2232576,80.2950411 87.1709738,79.982454 C86.5414596,82.6651233 85.7308494,85.2987593 84.7701341,87.8298904 L84.6355086,88.1821972 C82.4207749,93.9379573 79.4211694,99.7490663 74.4320609,103.553507 C74.2056382,103.725969 73.9743666,103.889765 73.7411975,104.049969 L74.0250231,104.213085 C74.3075179,104.374788 74.5858028,104.529892 74.8579211,104.657178 C75.8660714,105.128701 76.9604479,105.488207 78.0430183,105.742885 C80.2789953,106.269358 82.6271295,106.118454 84.9082224,106.191793 C85.6564293,106.215886 86.0820787,107.340481 85.3172169,107.705695 C82.7976844,108.908489 80.0763954,108.653178 77.4756966,107.806932 C76.1888397,107.387824 74.9812519,106.801327 73.8641067,106.035605 C73.4021959,105.719213 72.865865,105.328638 72.4130196,104.877194 C67.4234979,107.675894 61.221961,107.989115 55.6684907,106.98816 C52.7825498,106.467816 49.9859974,105.517796 47.5254951,103.892724 C45.1588085,102.33 43.4718117,100.351339 42.2673863,97.7878708 C42.1604996,97.5606693 42.4575476,97.2776712 42.6399085,97.4998004 C46.4231074,102.10618 52.9337091,104.0282 58.6613183,104.393836 C61.7173925,104.589123 64.8436704,104.426806 67.7818951,103.51018 C70.5691713,102.640262 72.9607349,101.045836 74.9576399,98.9253581 C79.0052094,94.6271272 81.4305045,88.77991 83.1723149,83.2152681 C85.0671821,77.1615616 85.9694998,70.7923092 86.1556556,64.4568728 C86.2498929,61.2470959 86.1312002,58.0102661 85.62839,54.8359961 C85.1295854,51.6879335 84.2038665,48.6411076 83.6588919,45.5063601 Z M26.9370717,18.2356838 C27.2050263,18.0991515 27.3937119,18.4544313 27.1664459,18.629218 C22.4488844,22.2562004 18.2240137,26.8551828 14.8044826,31.7227914 C8.49816728,40.7003178 4.45376007,51.0890301 2.59135947,61.8839577 C1.49171247,68.2589166 1.20457305,74.7304626 1.31441126,81.1903843 C1.3579249,83.7565151 1.50411723,86.3148005 1.66674355,88.8738975 L1.85033656,91.7106348 C1.93559177,93.0322652 2.00679267,94.3426488 1.95175137,95.670706 L1.93675749,95.9775076 C1.84947722,97.522901 2.00105817,99.080764 1.61441081,100.588326 C1.41602741,101.361445 0.328397263,101.483183 -0.0654180335,100.808341 C-0.142578847,100.676247 -0.214679934,100.539926 -0.284672803,100.402337 C-1.20765105,101.911378 -2.40301119,103.260427 -3.72929172,104.465547 C-3.09535029,104.330283 -2.45529502,104.244052 -1.79816318,104.322885 C-0.7564922,104.448005 0.177870431,104.851261 0.839007889,105.558016 C1.49529644,105.261492 2.17013732,105.057328 2.94617271,105.053101 C3.51771087,105.050142 3.94631178,105.727519 3.62017031,106.230744 C2.96957394,107.235081 2.06177487,107.798118 1.03022335,108.354604 C0.299167428,108.749124 -0.573328015,108.411719 -0.843273124,107.631769 L-0.858740818,107.584443 C-1.16253517,106.59786 -2.77827416,106.757218 -3.54060612,106.909813 L-3.76495372,106.955737 C-5.18398123,107.251738 -6.56967401,107.630665 -8.01530081,107.239942 C-8.94776605,106.987801 -9.19147615,105.580631 -8.2925316,105.113547 C-5.4527607,103.638322 -3.06878673,101.656701 -0.618825504,99.6670497 C-1.15979448,98.337445 -1.46696198,96.8518638 -1.82114276,95.499856 C-2.31973654,93.5968579 -2.46541447,91.5492963 -2.64545636,89.5945174 C-2.9876203,85.8779225 -3.11811905,82.1209597 -3.08143604,78.3897816 C-2.95726195,65.7873863 -0.807300276,53.1458912 4.68439922,41.7340321 C7.09029867,36.7349636 10.2509405,32.1091397 13.9869153,28.0146505 C17.7007537,23.9442552 22.0384142,20.7300399 26.9370717,18.2356838 Z M22.54036,79.9528861 C22.3946821,79.7504125 22.6790809,79.4826317 22.8785184,79.6138802 C27.1963616,82.4571757 30.1927731,86.7746395 32.1262207,91.5175515 C34.0400619,96.2131209 35.2151831,101.964596 33.3276947,106.86116 C33.0272735,107.641043 31.5884141,107.930593 31.4410496,106.86116 C30.7830744,102.085489 30.6808258,97.3030544 29.2339552,92.6601112 C27.799523,88.0575358 25.3451345,83.8427883 22.54036,79.9528861 Z M19.1924241,95.4568885 C19.2160361,95.3725597 19.353492,95.3871429 19.347589,95.4780235 C19.2394373,97.1620626 19.1660713,98.8666027 18.9548278,100.541342 C18.8521575,101.355252 18.7163882,102.163879 18.6008578,102.975886 C18.4823759,103.808607 18.5002958,104.649358 18.0173028,105.360552 C17.3772475,106.303386 15.6767582,106.038141 15.7338909,104.740661 C15.7733146,103.845593 16.183574,103.271143 16.5679023,102.485554 C16.8144234,101.981836 17.0292743,101.461209 17.2363795,100.938204 L17.5442185,100.153726 C18.1560236,98.5979765 18.741476,97.0684344 19.1924241,95.4568885 Z M11.4605733,90.9958333 C11.4867152,90.8633166 11.6998561,90.8952305 11.6935315,91.0273245 C11.5782119,93.4109391 11.3100464,95.7677002 10.8900892,98.116436 C10.6986102,99.1870045 10.4753334,100.251586 10.239184,101.313153 L10.1372443,101.767935 C9.88467962,102.885978 9.7217143,104.200366 9.15586834,105.199207 C8.59044402,106.197414 7.2479302,105.472483 7.42185826,104.466244 C7.62509057,103.291559 8.34420405,102.1099 8.76226386,100.981712 C9.14806793,99.9401777 9.48538296,98.880256 9.80056169,97.8152618 C10.4640182,95.5734693 11.0081495,93.289618 11.4605733,90.9958333 Z M25.8589245,97.613211 L25.9091885,97.5615147 C26.1056745,97.3474168 26.3987169,97.4900783 26.4925327,97.7160117 C26.8766502,98.6419374 26.6843806,99.733773 26.6569737,100.716763 L26.651881,100.931127 C26.6314409,101.926901 26.6456737,102.859573 26.1952738,103.778806 C25.6484018,104.894947 24.2074342,104.201718 24.0959094,103.208795 C23.9740543,102.125202 24.4852974,101.064434 24.8154445,100.04953 C25.0252123,99.4044892 25.1780582,98.7336634 25.4970317,98.1482231 C25.2242282,98.1953542 24.9518463,98.2898278 24.702444,98.3580939 C24.5907084,98.388317 24.548544,98.2238865 24.6552199,98.1858434 C25.067598,98.0394728 25.5330606,97.9295342 25.8589245,97.613211 L25.8589245,97.613211 Z M83.341373,100.899074 C83.2096093,100.75134 83.3738396,100.554573 83.5448161,100.634463 C85.5982214,101.595896 87.5188088,102.221281 89.7845117,102.42608 C90.7663093,102.514847 90.7724231,104.061086 89.7845117,103.971473 C87.4199334,103.758009 84.941722,102.695129 83.341373,100.899074 Z M11.0979175,68.4159288 C12.9057152,64.339193 18.6248915,60.7227781 22.4599526,64.5139796 C22.5318428,64.584782 22.4586876,64.7392791 22.3543308,64.6959523 C19.9688811,63.7049307 17.0485762,64.9654239 15.39763,66.7682419 C14.0877935,68.198238 13.3007954,70.0344493 13.1445764,71.969784 C12.9883574,73.9068094 13.4502681,75.9285863 14.733541,77.4268485 C15.4066953,78.2128603 16.3157593,78.9568133 17.3854696,79.0512869 C18.4655102,79.1466059 19.3657196,78.384054 20.3867301,78.1769307 C21.1564408,78.0209542 21.7374659,78.5051577 21.8129402,79.2658074 C21.9792787,80.9445628 20.3120991,82.0712712 18.866915,82.3449699 C17.3123144,82.6391695 15.7256688,82.3177057 14.3861065,81.4731499 C10.0596196,78.745463 9.12631111,72.8625276 11.0979175,68.4159288 Z M51.6906822,28.4575562 C52.476837,27.7043037 53.8140803,28.4531178 53.5239893,29.5276227 C52.9071245,31.8144329 51.5960231,33.7472313 50.1434603,35.5817519 C48.745922,37.3467382 47.2486649,39.0428243 45.6438886,40.6213996 C44.0496535,42.1896188 42.3175408,43.6407499 40.4970937,44.9369613 L39.9488213,45.3262871 C38.6586181,46.2380601 37.2920475,47.1601286 35.8478385,47.8168204 C35.4991391,50.828562 34.8169195,53.8001472 33.7847355,56.6451335 C32.7907102,59.384656 31.5257789,62.0322411 29.9931037,64.5099006 L29.7730327,64.8647488 C28.3646205,67.1275612 26.6710461,69.6564705 24.2810953,70.8969065 C24.2094159,70.9343155 24.1375256,70.9571413 24.0666895,70.9704564 C24.6013338,71.3278497 25.0531251,71.7773918 25.3217122,72.4232783 C25.6160196,73.1304564 25.0008413,73.7976892 24.4111724,74.0312313 C23.1641609,74.5251569 21.9477186,73.6890552 20.8267786,72.7971569 C20.7793437,72.9041002 20.7346582,73.0121002 20.6962799,73.1209456 C20.4456126,73.8331961 20.371825,74.5610865 19.725445,75.0336658 C19.4182775,75.2583311 19.0398522,75.057337 18.8465286,74.8028712 C18.212798,73.9680376 18.8688757,72.8307616 19.426078,72.1485229 C19.5032388,72.0542607 19.5829294,71.9646481 19.6649392,71.8786286 C19.4294511,71.70511 19.1996552,71.551247 18.9770273,71.4331022 C17.6680342,70.7381824 15.7276295,70.6149652 14.9739412,72.153384 C14.916176,72.2715288 14.7346582,72.2104485 14.7346582,72.0882881 C14.7365558,70.1986051 16.6674735,69.1722881 18.3430859,69.0327969 C19.567341,68.9309509 20.7514452,69.3613625 21.8533908,69.862553 L22.0590326,69.9572431 C22.4690812,70.1480924 22.8915682,70.3281628 23.2959246,70.5295796 C23.2301482,70.3556384 23.2312023,70.1510513 23.3347159,69.948155 C24.6019663,67.4671139 26.7780698,65.449564 28.347428,63.1517636 C29.9037152,60.8721393 31.2399044,58.4325229 32.3064524,55.8851178 C33.3415878,53.4125307 34.1526197,50.8623781 34.7197306,48.26129 C34.5329424,48.2999671 34.3223313,48.1332117 34.3356131,47.9377127 C34.3672364,47.4647108 34.5980863,47.0386286 35.0034968,46.8570787 C35.4500176,44.4104877 35.6779161,41.922472 35.6646343,39.4143781 C35.6635802,39.2199358 35.9446058,39.2269104 35.9610499,39.4143781 C36.1583792,41.644335 36.1744016,43.8960611 36.0084848,46.1346834 C37.0630159,45.1620493 38.1751014,44.2373918 39.1904196,43.238973 C40.7182459,41.7366951 42.1963182,40.1942607 43.6221067,38.5945503 C45.0767777,36.9625033 46.4517581,35.2704329 47.7090999,33.4800845 L48.3671038,32.5411795 C49.378788,31.101816 50.4180182,29.6775078 51.6906822,28.4575562 Z M49.7069536,12.3894387 C58.3835394,11.8464798 67.6500049,12.9154896 75.4436687,16.9985659 C79.7239856,19.2407812 83.0324135,22.6297832 85.3963594,26.8472783 C86.807812,29.3657284 87.8785764,32.1544955 88.2841977,35.0216736 C88.7007818,37.9676853 88.211675,40.5945581 86.3353601,42.9363194 C85.5901047,43.8662607 84.3348712,42.827474 84.5184971,41.875975 C85.6417561,36.0545425 83.8198333,30.3028556 80.5885661,25.4834348 C75.8996764,18.4898536 67.7111433,15.3832157 59.7384917,13.9973918 C55.8214209,13.3168438 51.8484823,13.0323663 47.8744897,13.1708008 C44.8447682,13.2764759 41.7368319,13.559474 38.8616429,14.5813526 C38.7404203,14.6244681 38.6921421,14.4350982 38.8089374,14.3905033 C42.238588,13.077384 46.0671136,12.6172744 49.7069536,12.3894387 Z M62.5751003,25.5529479 C63.0218319,25.2691045 63.5682822,25.5603452 63.7217606,26.0208775 C64.2631512,27.6444705 63.1285078,29.7894646 62.3695489,31.1945213 C61.5106605,32.7845096 60.4061646,34.2711476 59.2656182,35.6675389 C56.9838929,38.4603217 53.9849514,40.7906701 50.6940217,42.2553276 C50.4924759,42.3451515 50.2576203,42.1012532 50.4425111,41.9287914 C52.988818,39.5517346 55.2975285,37.0032728 57.2961201,34.1443374 C58.2781285,32.739492 59.0971715,31.2575037 59.8793207,29.7351476 C60.5792494,28.3727836 61.2374354,26.4029988 62.5751003,25.5529479 Z M77.1677069,27.4655624 C77.4531597,26.4662982 79.0790181,26.6364352 79.011766,27.7158012 C78.8378379,30.5041456 77.5256824,33.3030575 76.099894,35.6661652 C74.6317303,38.0994411 72.772492,40.2678951 70.6412935,42.1406701 C70.5363042,42.2330301 70.3925237,42.0907914 70.4876043,41.9865957 C72.3263929,39.9686231 73.8116331,37.6699773 74.911491,35.1684352 C76.0100838,32.6704861 76.4247705,30.0641143 77.1677069,27.4655624 Z M69.0870302,27.0140971 C69.3979925,26.145236 70.886395,26.2096978 70.7951092,27.2459483 C70.5442311,30.0945276 68.8766299,33.0798505 67.3321487,35.432602 C65.6932193,37.9288603 63.6012337,40.1279601 61.2632189,41.9749503 C61.1757278,42.0440618 61.0519754,41.92951 61.1373582,41.8487742 C63.2373551,39.8652517 64.9403744,37.5740031 66.2885804,35.0183554 C66.976703,33.7143241 67.5539334,32.3563984 68.0097303,30.9536665 C68.4313741,29.6559757 68.6293358,28.293189 69.0870302,27.0140971 Z" id="ðŸ–-Ink" fill="#000000"></path>
                </g>
                <g id="face/Smile" transform="translate(112.183099, 77.354207)" fill="#000000" fill-rule="evenodd">
                    <path d="M30.968993,50.9198978 C29.548794,50.3403012 28.2816173,49.3734958 27.3551889,48.1384646 C27.0331038,47.7091169 26.9495926,47.2557326 27.017159,46.8410547 C27.0931327,46.3747786 27.3688808,45.9521824 27.7449394,45.6687178 C28.1221628,45.3843752 28.5940214,45.2441445 29.0502103,45.3156301 C29.4466117,45.3777469 29.8412104,45.5948709 30.1535058,46.0451781 L30.2187521,46.1352289 C30.7695298,46.8806513 31.4872438,47.4922614 32.3050288,47.8864795 C33.0932406,48.2664417 33.9747757,48.4437847 34.8870208,48.3406561 C36.6244504,48.1443157 37.8219743,47.2043274 39.0948115,45.9278391 C39.2525834,45.7666792 39.4104563,45.6004672 39.5690946,45.4315797 C39.6692778,45.278484 39.8083069,45.1800892 39.962667,45.1284632 C40.1340565,45.0711416 40.327938,45.0743848 40.5055187,45.1363808 C40.6767961,45.1961763 40.8299095,45.309486 40.9325762,45.4602937 C41.0301525,45.6036243 41.0854754,45.7806897 41.0675245,45.9843589 C40.9510195,47.3072301 40.2596776,48.4878363 39.2776553,49.4148615 C38.1869942,50.4444414 36.7412431,51.1567117 35.3801317,51.4065272 C33.8805866,51.6817086 32.3525901,51.4845569 30.968993,50.9198978 L30.968993,50.9198978 Z M36.0875289,30.5120405 C37.6828906,31.482148 40.1137318,33.7442494 38.3974899,36.149264 C36.3773089,38.2698449 33.4687045,35.8384541 32.0353946,34.7388307 C30.7063626,33.8866164 29.2131206,36.0784478 30.4461973,37.0735516 C40.8033244,44.7445605 45.006466,30.7657101 36.8944406,29.3714319 C36.0012775,29.2177885 35.6695544,30.2119271 36.0875289,30.5120405 Z M17.5274577,21.5886716 C17.7037243,19.3998697 21.0359789,18.9028321 21.3674577,21.0687499 C21.6642887,23.0089456 21.3148521,24.7912626 20.4412606,26.5380728 C19.6065423,28.2068947 17.5085456,27.4283107 17.3498837,25.9087021 C17.1372039,23.8717299 17.4178099,22.9502317 17.5274577,21.5886716 Z M42.8930282,20.6196517 C43.3576056,20.0109628 44.0283803,19.5954481 44.8320423,19.8302583 C47.3429577,20.5642779 46.6028873,24.1303914 45.7210563,25.8662114 C45.2419014,26.8088337 43.6930986,27.0478708 42.993169,26.2178982 C41.8523239,24.864411 41.3059859,22.1614521 42.756338,20.8282544 C42.7956338,20.7593542 42.8393662,20.68982 42.8930282,20.6196517 Z M20.4058944,12.0111429 L20.802522,11.9416942 C22.0295218,11.7294045 23.5551549,11.5254176 24.4231479,12.5122544 C24.8835,13.0355577 25.0419507,14.0081918 24.4231479,14.509092 C23.3346972,15.3904227 22.1313169,15.0488806 20.8269507,15.1234873 C19.7520211,15.1852016 18.7189225,15.3631585 17.6835,15.6592603 C15.4119507,16.3087397 13.5610352,17.4944149 11.6209648,18.7963327 C11.3663873,18.9671037 11.1065282,18.6414129 11.228007,18.4032211 C12.3479366,16.208771 14.5182887,14.4061644 16.6922324,13.3073542 C17.8525141,12.7208571 19.1222324,12.2343288 20.4058944,12.0111429 Z M40.6041287,11.0281289 L40.9077055,11.0902829 C44.2113469,11.7811043 48.5035506,13.1610768 50.0679842,16.4073021 C50.1275964,16.8663298 50.0646105,16.9647086 50.0133917,17.0289838 L49.9963385,17.0503723 C49.9541341,17.1052595 49.9204583,17.1809212 49.7215736,17.2433957 C49.6663832,17.2302408 49.6106433,17.216308 49.5543131,17.2015401 C48.8372041,17.0135386 48.2698321,16.7545401 47.720556,16.4857982 L47.1250012,16.192275 C46.4340388,15.8533498 45.7369757,15.5267598 44.9982488,15.2856588 C43.4217423,14.7712438 41.8001698,14.4088706 40.1534741,14.2153715 C39.7965654,14.1734678 39.4528848,14.0529641 39.1817455,13.8464404 C38.92438,13.6504079 38.7277692,13.3789964 38.6381257,13.0182314 C38.5219478,12.5513438 38.5553348,12.1978716 38.8057421,11.7766707 C38.9940329,11.4603578 39.263447,11.2411116 39.5728025,11.115213 C39.888177,10.9868648 40.2472278,10.9566068 40.6041287,11.0281289 Z" id="ðŸ–-Ink"></path>
                </g>
                <g id="facial-hair/*-None" transform="translate(104.577451, 109.479380)"></g>
                <g id="mask/medical-mask" transform="translate(83.450704, 97.432485)" fill-rule="evenodd">
                    <path d="M83.0825493,14.8698035 C82.6843099,9.82212446 76.3219859,7.68389354 73.1529718,7.04984266 C62.6005775,4.56816751 53.6229718,10.9353065 41.0402958,11.0654982 C39.7703662,11.0853652 36.1386761,10.871056 34.4498028,10.4248955 C25.881,8.47709119 17.3210704,6.40522427 8.91346479,3.85063327 C7.67733803,4.14018317 7.3116338,5.75426536 8.16029577,6.67385049 C16.2129718,9.53067241 28.5326197,12.0888564 35.0383944,12.3800971 C34.9135352,20.7876117 30.4769155,29.2416235 24.3501549,33.8913299 C34.0944507,44.6712517 56.8202958,48.2164415 70.1948028,42.5579601 C76.7738873,40.5826802 83.7163521,22.9011147 83.0825493,14.8698035" id="ðŸŽ¨-Color" fill="#FFFFFF"></path>
                    <path d="M8.23354225,4.10507789 C7.87121831,4.09091742 8.08248592,3.03416595 8.89861268,3.18485871 C19.4290352,5.64856908 32.5487535,10.341391 43.3726268,10.3069409 C51.3350915,10.0461346 58.4698099,5.60989198 66.4762183,5.58305049 C71.8582606,5.68618943 78.7210775,6.45191155 82.4875563,10.7723342 C87.4555141,26.5344164 76.2682606,47.9729448 58.6660775,48.0970074 L55.3344357,47.8558609 C43.978046,47.0188669 31.5368535,45.6797202 24.216993,36.041164 L24.1599507,36.0901973 L24.1599507,36.0901973 C23.0653732,35.3555436 23.1264296,33.768937 24.0566408,32.9529135 L24.0843169,32.9964517 L24.0843169,32.9964517 C24.1020634,32.967708 24.1217113,32.9402325 24.1407254,32.9121229 L24.1288944,32.8751366 L24.1288944,32.8751366 C24.4867817,32.4993558 24.8936831,32.1478802 25.2636127,31.8331796 L25.2655141,31.8393088 L25.2655141,31.8393088 C30.7618521,27.2582912 34.3506549,20.3312853 34.5572746,13.1582677 C32.7376268,13.6583225 2.16593662,7.3178137 7.62319014,5.7705182 C11.5265704,7.09061213 15.4529789,8.28283914 19.4586127,9.23180196 C19.5257958,9.19397025 19.6221338,9.20390372 19.6591056,9.27851037 C24.5592465,10.4848978 29.5582606,11.1743225 34.5638239,11.7324986 C34.5585423,11.4932501 34.5494577,11.2540016 34.5372042,11.0143303 C25.6369225,9.28104658 16.9115704,6.7076454 8.23354225,4.10507789 Z M80.3017817,10.5020172 C62.0463592,1.27636556 52.984669,14.9061346 35.3292465,11.1533988 C37.1763592,19.3973284 32.6153028,28.2848196 26.4203028,33.6712932 C35.4215704,41.4650466 39.3173451,42.6452266 51.1250915,43.9101581 L52.6676413,44.0939068 C54.986901,44.36868 57.3279277,44.6249832 59.6543873,44.6651014 C71.721993,43.7865182 80.8405141,31.226393 82.2050915,19.8462364 L82.2124871,19.5318664 C82.2736535,16.6437406 82.1410478,13.5866266 80.8620634,10.9407804 C80.6265,10.8587765 80.4217817,10.7110427 80.3017817,10.5020172 Z M54.8870915,17.744083 C55.5179366,17.6020556 56.161669,18.2906348 55.7706127,18.8936172 C54.5070211,20.8433237 51.4168099,21.5986896 49.2555423,21.9051476 C46.7526549,22.2600047 44.3264577,21.9801769 41.9488521,21.1261104 C41.8214577,21.0802474 41.8305423,20.8549479 41.9830775,20.8731241 C44.2406831,21.1419616 46.568007,20.9451945 48.7615986,20.3474959 C50.9858239,19.9140164 52.7818099,18.4341417 54.8870915,17.744083 Z M72.0396905,16.3396814 C72.0292183,15.9691843 73.8499225,17.041153 74.1378803,17.1855053 C76.3616831,18.5212391 78.9357676,18.6190943 81.3883732,19.1434544 C81.9600634,19.362836 81.9592183,20.089881 81.388162,20.3092626 C78.3271056,21.1235953 73.6815423,18.9864211 72.0396905,16.3396814 Z" id="ðŸ–-Ink" fill="#000000"></path>
                </g>
                <g id="accessories/Glasses-3" transform="translate(88.521127, 88.978474)" fill="#000000" fill-rule="evenodd">
                    <path d="M77.5634366,20.7796016 C76.1409718,22.691265 73.5039296,23.3001652 71.0716056,23.0898716 C65.8256197,22.5847444 64.1745634,16.6244548 64.0025915,11.9918677 C67.5204085,12.9818325 63.7051268,5.97049785 75.7302676,5.19949198 C79.9693521,4.84611429 78.8006197,7.40725714 80.673507,9.27855264 C80.6350563,13.2058638 79.9816056,17.4732376 77.5634366,20.7796016 M52.5766056,16.2668501 C49.4794225,30.7766818 32.5192817,27.3253315 30.737662,14.2457072 C32.3828028,13.084126 31.949493,10.2158912 33.9932958,9.1766818 C37.2324507,7.10629432 41.2816056,7.1948501 44.9599859,7.24346067 C49.6617465,7.56661526 51.0016056,9.51505362 53.4168169,11.6408149 C53.3006197,13.0606661 52.9655493,14.7434372 52.5766056,16.2668501 M84.2819577,2.79643914 C84.1080845,2.76748415 83.934,2.74021996 83.7599155,2.71464658 C83.6240704,2.63750372 83.4645634,2.57811429 83.2790704,2.54239609 C82.8554789,2.43481879 82.4348451,2.36232564 82.0148451,2.32322583 C75.9869577,0.966145597 62.0418169,2.89302622 61.4663239,8.03898317 C59.5467465,8.68000861 57.8857606,8.10598121 55.6609014,8.16304579 C53.9673803,1.08175421 24.6892817,2.08122975 23.2811831,6.35050568 C23.2759014,6.34902622 23.2706197,6.34775812 23.2651268,6.34606732 C21.912169,5.92717104 19.9175915,6.02819648 18.369,5.96183249 C15.0624507,5.89250959 11.7520986,6.18734325 8.51695775,6.88501057 C2.45885915,7.84813386 -5.80909859,8.97568767 -1.59578873,16.543719 C-1.59494366,16.5449871 -1.59430986,16.5464665 -1.59325352,16.5477346 L-1.59261972,16.5471006 C-0.866492958,17.2916877 0.365830986,16.6920869 0.411676056,15.6841573 C-1.00487324,12.098811 2.19456338,11.6682904 4.65625352,10.6379577 C10.7815352,8.43653307 17.0177324,8.13134325 23.3528028,8.81231389 C23.8294225,9.37366027 24.5525915,9.86314755 25.3169577,10.1193041 C29.552662,10.8226779 27.3204085,13.9658795 29.9978028,14.4230301 C29.5059718,25.3798521 42.8033662,31.3606427 50.5080845,24.158036 C53.5843521,21.1492532 54.317662,16.6920869 55.0309014,12.6745292 C55.4080141,12.5897777 55.6478028,12.3834998 55.7878732,12.1104352 C56.6948451,11.2045879 57.2646338,10.3680634 59.0580845,10.1193041 C60.8515352,9.87075616 62.232169,10.3697542 62.4189296,10.5225605 C62.4660423,10.6174568 62.5165352,10.7125644 62.5752676,10.807672 C62.6572394,10.9494881 62.7687887,11.0625605 62.8955493,11.1515389 C61.124493,22.0622865 69.5914648,28.9624509 78.1391408,23.3035468 C81.8532254,19.808447 82.6380845,14.4574802 82.7931549,9.6813863 C83.2966056,9.37746458 83.6154085,8.78843131 83.4411127,8.04785988 C83.2009014,7.02703796 83.7641408,6.14317104 84.6611831,5.69933542 C85.8267465,5.12298317 85.6205493,3.0181456 84.2819577,2.79643914" id="ðŸ–-Ink"></path>
                </g>
            </g>
        </g>
    </g>
</svg>