<?xml version="1.0" encoding="UTF-8"?>
<svg width="175px" height="260px" viewBox="0 0 175 260" version="1.1" xmlns="http://www.w3.org/2000/svg" xmlns:xlink="http://www.w3.org/1999/xlink">
    <!-- Generator: Sketch 62 (91390) - https://sketch.com -->
    <title>bust-mask-14</title>
    <desc>Created with Sketch.</desc>
    <g id="Introduction" stroke="none" stroke-width="1" fill="none" fill-rule="evenodd">
        <g id="busts-covid-19" transform="translate(-1416.000000, -541.000000)">
            <g id="a-person/bust" transform="translate(1388.000000, 512.000000)">
                <g id="body/Tee-Selena" transform="translate(31.056338, 135.052838)" fill-rule="evenodd">
                    <path d="M108.981838,151.709007 C91.83726,151.757195 81.5685981,151.556201 62.175922,151.275739 C39.7306403,150.681633 33.6816262,151.750009 21.1074009,149.28017 C19.1848657,148.871418 17.72226,148.252584 16.2387389,147.389641 C15.7069784,147.990721 14.8054995,148.884944 13.9494431,148.292952 C12.3725417,147.250573 13.0954995,143.608584 12.7044431,141.552146 C12.0571192,123.442808 11.0216967,104.793046 14.5612741,86.902878 C12.4154291,86.2049993 -0.158373759,81.0305101 -0.844993477,79.2970149 C10.5256403,49.5534768 35.4691615,14.7472537 68.28726,16.0580482 C68.94726,16.8721695 69.5343727,18.0770776 70.2668375,18.9059934 C74.7288093,17.2346353 80.9225417,15.5594729 81.228246,9.12406778 C82.0008516,4.82921847 82.5575417,0.81926935 82.929584,-3.12790873 C82.9969784,-3.57935296 83.538246,-3.73448407 83.8707812,-3.92681284 C84.0121192,-4.94742341 84.3366262,-5.99064846 85.0409924,-6.69042928 C90.7925417,-7.2073921 103.921767,-4.83456235 107.367119,-3.85685589 C112.067401,-3.05224533 111.578528,1.99395428 112.454021,5.81939459 C113.842049,10.5483574 114.808176,15.4563339 116.870992,20.0764513 C117.337683,20.1407018 118.645007,20.3683261 119.126908,20.4526549 C119.152049,19.9291402 118.906556,18.3752928 119.386345,18.0582674 C120.27557,17.1642557 120.480711,18.8647801 120.678246,19.4193633 C140.100499,15.7503222 152.801274,32.2379699 157.05726,50.6550345 C160.139443,59.9170384 164.22388,69.2904239 169.55564,79.3430893 C172.899161,85.5846862 163.293246,86.7443652 159.266485,89.2353398 C163.421697,105.409132 163.921978,121.880506 164.60395,138.181954 C164.78395,140.689414 165.028598,144.099128 164.14064,145.346941 C163.719373,145.674534 163.426556,145.665445 162.999373,145.689328 C162.175218,146.579113 160.761415,146.519935 159.571345,146.773978 C155.809091,147.458541 151.953668,147.915692 148.331485,147.984804 C138.164443,154.279661 122.490077,150.759622 108.981838,151.709007" id="âœ‹-Skin" fill="#AE5D29"></path>
                    <rect id="ðŸ‘•-Top" fill="#FFFFFF" x="49.4367178" y="41.6359989" width="92.5352113" height="60.8688845"></rect>
                    <path d="M81.5151474,-3.14012478 C82.0492319,-5.81476274 86.4621896,-5.19508368 86.2616967,-2.49761989 C84.034091,7.54151906 85.3902178,19.7624271 71.3098657,18.7743645 C80.2479643,34.5022079 107.848809,44.0679222 116.770218,23.4187872 C112.374161,22.8940044 111.504373,12.4978948 110.973457,8.86034489 L110.951681,8.53519886 C110.833902,6.66447305 110.873324,4.93055133 111.997683,3.33057581 C113.119514,4.17069322 113.570359,5.69220399 113.950218,7.07971866 L114.228372,8.19103773 C115.158335,11.8942172 116.131441,15.5807078 117.607049,19.1150611 L117.659232,19.1235151 L117.659232,19.1235151 C117.585499,16.7263801 120.661767,15.6305288 121.424232,18.1984349 C142.238105,15.3310455 153.623739,32.513613 158.115922,50.483883 C161.39226,60.3207598 165.663668,69.7846032 170.51564,78.9322666 C174.17733,86.0799222 165.285288,87.7159848 160.581838,90.0940983 C164.199373,104.59294 164.909443,119.613817 165.580007,134.484635 C165.357542,137.658271 166.791838,144.168494 164.876274,146.444314 C162.039584,148.66476 160.511274,144.858764 160.947964,142.418302 C161.355288,125.16303 159.559091,107.984267 159.043176,90.7564701 C155.491978,92.2572686 151.897471,93.6401335 148.262823,94.9247206 C148.447894,111.091116 150.369373,127.2573 151.054725,143.341057 C151.95388,144.049926 152.45057,145.278717 151.682823,146.349629 C147.570711,152.086521 140.136415,152.943335 133.595147,153.02555 C118.028316,153.220838 102.445218,153.160833 86.8773305,153.114106 C71.5853586,152.767703 56.1602882,153.747312 40.9490206,151.99395 C37.9680347,154.23384 37.3583164,149.405543 37.7576122,147.345934 L37.9092553,143.220564 C38.0112741,140.470286 38.1193023,137.720196 38.2583164,134.971797 L38.6049195,128.270207 C39.1852061,117.101924 39.8002882,105.939488 40.7759924,94.7930494 C31.9399361,93.5845484 23.2308516,91.4393429 14.7993727,88.544478 C15.4933868,107.894654 14.0696544,127.452376 16.4436685,146.704063 C18.0102178,148.830881 14.8684572,150.827507 13.0344431,149.495155 C10.7599361,147.760181 11.7353586,144.365895 11.2811333,141.868157 L11.2228607,140.253473 C10.5862167,122.839136 9.71648328,105.058902 12.9611333,87.8837969 L11.5654753,87.34208 C7.3110604,85.6804948 -3.62996953,81.2370437 -2.19520474,79.044705 C9.22697835,49.103977 34.7778938,13.2927832 68.6181051,14.9945758 C69.4754291,15.5897382 69.9131755,16.7492059 70.549091,17.5802353 L71.5556977,17.2147475 C75.454738,15.7870292 79.68906,13.976865 79.8045136,9.17589088 C80.5426826,5.08499459 81.1281051,0.993252911 81.5151474,-3.14012478 Z M137.282823,71.4885093 C142.130359,64.7058557 108.509654,75.4255425 106.119161,76.1331433 L105.219081,76.4612774 C90.4935786,81.8164099 74.6188995,86.995014 62.8771192,97.6695269 C62.6303586,97.9398439 62.9375417,98.3132999 63.2567671,98.1617617 L63.2977175,98.1376072 C63.7648636,97.8776067 65.787422,97.1552419 64.3545136,97.4287989 C81.3203586,86.7255973 101.030992,80.8460435 120.290781,75.7036795 C123.089654,75.0267245 125.901838,74.4042979 128.725007,73.8376678 C131.572894,73.1452842 134.786485,73.1528928 137.282823,71.4885093 Z M84.1562037,69.2809555 C84.570922,67.5901531 87.3571192,52.0518909 82.7295136,56.3146149 C81.4957107,58.5504897 81.0220488,61.1412216 80.8000065,63.6588263 C80.2031755,66.5940592 81.7095136,69.757339 80.2447953,72.4632568 C78.9334572,75.9974564 74.1138093,80.1261844 73.7918375,73.5599535 C81.6771896,73.2904819 79.3099361,63.2953038 73.941415,66.3854564 C71.0018375,68.9024271 70.4931051,73.6419574 71.9647953,77.1142314 C69.588246,74.5264584 65.7347248,74.517793 62.9840206,72.5649163 C58.0164854,67.1932373 66.3600769,61.6032333 70.9033868,59.6685328 C71.1592319,59.3868028 74.8838798,58.0882666 74.094584,57.9312333 C70.5279643,57.964204 66.9537389,58.7233742 63.8757812,60.5999535 C57.5052178,63.7091277 55.3369784,73.3354995 62.6244431,76.7090729 C64.2002882,77.4686658 65.9248657,77.8769946 67.4850769,78.6613155 C71.4167671,80.7000005 70.146415,83.2622001 66.0875417,83.3374408 C64.4181051,83.7022314 58.9088798,82.1735347 59.5257812,85.1005249 C60.5223305,86.9303958 62.6924713,87.2030376 64.5936685,87.2541844 C69.6750769,87.6027011 75.9936685,84.731296 73.1219079,78.7515621 C76.5883868,81.7058165 80.9170488,77.5756091 82.4026826,74.3658322 C84.2130347,77.9171512 88.7637389,76.8477187 91.3319079,74.7462627 C95.2559924,77.8376834 100.179795,74.4015504 101.927823,70.5638517 C101.963528,71.3623331 101.999232,72.1606032 102.037894,72.9590846 C102.116908,74.5955699 104.652119,75.1209868 105.026908,73.3638204 C105.596908,70.6923527 106.382823,68.0506854 107.46388,65.5396326 C109.950922,58.9385288 111.471626,61.914975 111.558246,67.0877735 C111.864584,69.0298713 112.836838,70.7701296 114.982683,70.9009555 C115.580781,70.9375191 116.360992,70.405339 116.454373,69.7801648 L116.577929,68.9530347 C116.839322,67.2198234 117.142143,65.4350506 117.796345,63.8065602 C118.426556,69.1972607 125.483739,69.1712647 127.451274,64.7014173 C131.53356,67.1522078 135.816905,63.7283825 137.720039,60.1873653 L137.776978,60.0800318 C138.442049,58.8689946 136.752119,57.4043371 135.785992,58.5433038 L135.45067,58.8926376 C133.628659,60.7791526 130.729759,63.5145544 128.33395,61.1847598 C128.413598,60.1341375 128.381485,59.0609007 128.316838,58.0273977 C128.239302,56.7948028 126.538598,55.6983175 125.571626,56.8005093 C124.208739,55.6420983 122.51564,55.8088537 121.090007,56.6170572 C117.397049,57.6609163 115.070781,61.2572529 114.269654,64.8316091 C114.184514,61.9756326 113.250499,58.8770259 110.114232,58.6083997 C106.901063,58.5811355 105.671063,62.1747245 104.575218,64.5932059 C104.511626,63.5100357 104.450359,62.4270768 104.395218,61.3436952 C104.300689,59.4797948 101.716111,59.4992814 101.504471,61.2885794 L101.498739,61.3439065 C101.091626,65.2109829 98.9504291,74.4744662 93.5474713,72.6617148 C95.8257812,70.1510846 99.9469784,62.5006267 96.0290206,60.1176521 C89.9992319,58.599523 86.9062741,68.1147245 89.4778234,72.5427245 L89.3443509,72.6363533 C87.8753456,73.6501342 85.4476699,74.7787007 84.6275417,72.5063723 L84.5345878,72.2968057 C84.1134263,71.3360741 83.7416102,70.2953936 84.1562037,69.2809555 Z M75.5306544,68.2085218 C76.6723446,67.541923 77.0786122,69.7496881 76.7872741,70.4906823 C76.3203727,71.6793163 75.0468516,72.3414768 73.7775558,72.7946118 L73.7819053,72.6601581 C73.8379656,71.3027251 74.2905101,68.9338067 75.5306544,68.2085218 Z M94.7486122,62.697584 C94.7743868,62.8567308 94.7323446,63.0509617 94.7270629,63.1986956 C94.5318516,65.8010517 93.3745276,68.2998463 91.7648798,70.3307112 C90.83826,67.5715331 92.0325558,63.9253179 94.7486122,62.697584 Z M122.19707,59.4430009 C122.936929,59.2479245 123.721154,59.3026643 124.48383,59.5089421 C124.428478,60.3763238 124.616718,61.2439167 124.994253,62.0400733 C123.02545,67.9549226 118.396999,63.4018032 122.19707,59.4430009 Z" id="ðŸ–-Ink" fill="#000000"></path>
                </g>
                <g id="head/Long-Curly" transform="translate(78.591549, 38.043053)" fill-rule="evenodd">
                    <path d="M72.3977561,31.0088712 C58.5320002,19.7109299 36.3120051,16.0425229 21.4695113,27.4408556 C9.93671047,38.137928 5.16412444,68.5355953 7.20509119,83.8103037 C7.77262373,93.6074466 15.2388811,104.712002 26.1988789,101.613396 C28.0600145,101.429732 29.8671798,100.714523 31.745392,100.564676 C33.992121,100.305349 36.2559265,100.30091 38.4982281,100.61857 C43.3842363,101.311376 47.7155721,103.912041 52.4577998,105.12794 C61.2572948,107.383893 71.0754812,105.866398 78.6498902,100.784691 C103.680141,84.28711 92.3421397,46.9763859 72.3977561,31.0088712 L72.3977561,31.0088712 Z" id="âœ‹-Skin" fill="#AE5D29"></path>
                    <path d="M70.5511882,105.39944 C70.8086018,105.310462 71.0655936,105.217679 71.3206881,105.122571 C71.3375539,105.18175 71.3649607,105.238603 71.3967948,105.293765 C71.4326346,105.382532 71.4684743,105.468975 71.5083196,105.555628 C71.1880812,105.557953 70.8674211,105.500677 70.5511882,105.39944 M70.0369936,-4.0844501 C69.9231498,-4.3399726 69.7922294,-4.58513894 69.6446541,-4.82206262 C70.0030513,-4.70560861 70.3616593,-4.54498239 70.6863251,-4.3378591 C70.4670703,-4.2638865 70.2518211,-4.17934638 70.0369936,-4.0844501 M15.2675739,29.3429237 C15.2528164,29.3403875 15.2382697,29.338274 15.223723,29.3357378 C15.4117761,28.8337808 15.7467721,28.3599335 16.1167645,28.0177573 C16.1831734,27.9562544 16.2550637,27.8994012 16.3246349,27.8406458 C15.9318737,28.3096321 15.5755847,28.8098982 15.2675739,29.3429237 M115.48155,81.8315577 C115.296027,80.0688963 115.059906,78.3127867 114.754215,76.5668219 C114.461172,74.8952524 114.214511,73.107229 113.364898,71.6235499 C112.521611,70.1462114 111.676215,68.7109315 110.672914,67.4113386 C110.816062,66.7476986 111.006012,66.1242153 111.170242,65.6212016 C112.118941,62.7257025 113.053093,59.0482074 111.081697,56.3577182 C110.624214,55.7342348 110.065747,55.2565832 109.426745,54.8254286 C109.154785,54.6415538 108.703837,54.4745871 108.494913,54.2209667 C108.347337,54.041319 108.398145,54.1385401 108.39161,54.049773 C108.35577,53.5721213 109.473126,52.5639804 109.734545,52.1856634 C110.223863,51.4858826 110.588374,50.6977573 110.866659,49.8925127 C111.967149,46.7053503 111.218731,43.1948219 110.556962,40.0011076 C110.206997,38.3084031 109.821193,36.6112603 109.694489,34.8824149 C109.576429,33.2592446 109.797792,31.6741174 109.928501,30.0594012 C110.055205,28.4656086 110.021474,26.8215147 109.340308,25.3460783 C109.00721,24.6274873 108.503556,23.9934364 107.889854,23.4988767 C107.29133,23.0150959 106.54481,22.734 105.961044,22.2521213 C105.378965,21.7721448 105.545514,21.1235108 105.697517,20.4598708 C105.90602,19.5595186 106.169547,18.6655068 106.194846,17.7355656 C106.241227,16.1145088 105.581354,14.5355108 104.550646,13.3098904 C103.487893,12.0439022 101.969975,11.1877221 100.329781,10.9953933 C99.5792547,10.9066262 98.8413781,11.0568963 98.0950686,11.0040587 C97.357192,10.9533346 97.1971782,10.5834716 97.0578249,9.90715068 C96.7375864,8.35795303 96.8680852,6.82777691 96.107229,5.3821409 C95.4325989,4.09713112 94.2328115,3.22615656 92.9067418,2.71278669 C90.4761762,1.77016438 87.6490546,1.96460665 85.0852496,2.52024658 C83.5717592,-1.94326027 78.8472406,-4.87046184 74.1986178,-4.90639139 C73.4731797,-6.1406771 72.244088,-7.06216438 70.8423333,-7.60343249 C68.5232924,-8.50167123 66.0670066,-7.97731115 63.6511985,-7.97731115 L63.6406574,-7.97731115 C63.3980014,-7.99231703 63.1555562,-7.99844618 62.9133218,-7.99633268 C62.6854234,-8.00922505 62.4577357,-8.02824658 62.2300481,-8.05339726 C59.4809306,-8.37908806 56.7613282,-9.50769863 54.0375093,-8.40212524 C52.8231752,-7.90967906 51.8576109,-7.15093151 51.2464383,-6.18294716 C50.3251466,-5.93165166 49.4162934,-5.64400391 48.5247276,-5.31007045 C44.6601515,-5.20883366 40.8316259,-3.13126027 38.8775178,0.235761252 C36.1262921,-0.077037182 33.1410541,0.453452055 31.3214503,2.70644618 C30.8475227,3.2927319 30.4804818,3.9815225 30.2371933,4.71279452 C28.3819606,5.31429746 26.665238,6.38605479 25.5417681,8.00034834 C24.5165412,9.47345988 24.3196336,11.3781487 25.0130268,12.9594716 C23.35681,14.1622661 22.0625744,15.884137 21.4391741,17.9173268 C21.0603271,19.1526693 21.0040377,20.4290137 21.2477478,21.6449119 C19.5521073,22.0219609 17.9302545,22.7208963 16.4932924,23.7698278 C14.9873916,24.868638 13.1066495,26.6175616 13.0075632,28.6304618 C13.0001845,28.7781957 13.0058767,28.9259295 13.0176827,29.0732407 C9.70250842,28.8396986 6.32219019,29.4027358 4.08136428,32.067229 C2.39879475,34.0663914 1.6674536,36.6408493 2.11650423,38.9847241 C-1.82797339,39.7878552 -5.55762351,41.8548611 -8.15916567,44.9109863 C-10.0500272,47.1322779 -11.7302777,49.9559178 -11.629294,52.9801292 C-11.5976708,53.8912603 -11.3845298,54.8085205 -11.0155915,55.6560352 L-11.0155915,55.6579374 C-11.1737079,55.9561526 -11.3362516,56.2879726 -11.4922598,56.6409276 C-13.9356856,58.3547671 -15.7108059,61.0412407 -16.7101017,64.0022583 C-17.5173387,66.4008728 -18.0254195,69.5163875 -17.1633687,71.9574834 C-17.0324483,72.3294599 -16.865899,72.6803014 -16.6719429,73.0055695 C-16.8344866,73.1790881 -16.9881757,73.3523953 -17.1378593,73.527816 C-18.7845891,75.4572329 -20.4521903,77.8877613 -20.3381356,80.5444344 C-20.2917548,81.6140783 -19.8956205,82.6898513 -19.2481864,83.5730841 C-21.5252737,85.8875812 -23.3592134,88.8084423 -23.1781174,92.0695773 C-23.0221092,94.9080117 -21.468141,97.7908297 -19.0333589,99.1540391 C-19.4400344,101.341515 -18.8961139,103.64946 -17.1971002,105.35717 C-16.3493854,106.211025 -15.3503005,106.773217 -14.2917637,107.073335 C-14.0556432,109.649695 -11.7747611,111.723041 -9.35241759,112.318838 C-8.90104791,112.431065 -8.44988906,112.498697 -8.00104925,112.530188 C-5.82115087,113.601945 -3.22171693,113.479151 -0.997545953,112.496372 C-0.341889865,113.331417 0.511938804,114.011965 1.50701814,114.500184 C1.90968796,114.698853 2.335759,114.863706 2.78038238,114.996646 C5.92162859,115.928701 9.14319794,114.665037 11.8899964,113.189812 C11.9785416,113.143315 12.1408744,113.084137 12.2842333,113.018618 C12.6637127,113.443432 13.3552085,113.86402 13.715714,114.071143 C14.9386918,114.774939 16.433419,115.102321 17.8374928,115.009538 C19.4840118,114.899636 20.9363638,114.354352 22.2814075,113.578697 C22.4776827,113.612513 22.6756445,113.631534 22.8740279,113.642102 C24.1389592,113.709523 25.2666455,113.308168 26.2809097,112.674117 C26.9511125,112.762885 27.6383918,112.754431 28.3341041,112.631847 C29.8669901,113.022634 31.3596091,112.401476 32.5589748,111.41447 C33.0904568,110.976975 33.5392966,110.463393 34.0201814,109.973061 C34.5196184,109.463495 34.8993087,109.34535 35.4830745,109.002963 C36.8641687,108.193491 37.0305072,106.14128 36.431773,104.657389 C36.5456168,104.39764 36.6111824,104.10809 36.6111824,103.786838 C36.6067552,100.984333 35.3188442,98.4143131 33.73768,96.1718865 C33.0312159,95.1721996 32.264035,94.1934364 31.4226448,93.3059765 C30.7459065,92.5935147 29.7953106,91.4376399 28.7939066,91.1478787 C28.7327683,91.1037065 28.6693109,91.0591115 28.6060643,91.0170528 C28.8002313,90.3362935 28.9138643,89.6432759 28.8655861,88.9352524 C28.814778,88.2079961 28.5807657,87.5189941 28.2057135,86.9316517 C29.4641094,84.4863288 29.9955914,81.8042935 29.7426051,79.0060157 C30.7669887,77.5496008 31.5430241,75.9414364 31.9433749,74.178775 C32.1900365,73.0882074 32.331498,71.9405753 32.3123132,70.8223209 C32.3038803,70.2857025 32.107816,69.6070568 32.1038103,69.0514168 C32.1333254,69.2268376 32.3610131,68.5716517 32.4495583,68.4087006 C33.465509,66.5173268 34.7704965,65.0421018 34.9878539,62.8123562 C35.1141362,61.5081135 34.8063362,60.0669159 34.0262952,58.9974834 C34.5259431,57.0234716 34.5196184,54.9034168 33.7332528,53.0204971 C33.5224309,52.5174834 33.2801965,52.0250372 33.0019116,51.557953 C33.1303021,51.1648415 33.2485732,50.7675029 33.4001542,50.4101096 C33.4593951,50.2685049 33.5182144,50.124998 33.5772446,49.9812798 C34.1485719,49.4759413 34.6800539,48.9245284 35.1269963,48.3832603 C36.1176484,47.1851155 36.8747098,45.8113386 36.9695796,44.2281135 C37.0159605,43.4355499 36.8304372,42.6768023 36.6006413,41.9246067 C36.499236,41.5843327 36.4380977,41.2060157 36.3179292,40.8741957 C36.250677,40.6901096 36.0881333,40.5022192 36.0314222,40.3289119 C36.0185621,40.2908689 36.008021,40.2591663 35.9995881,40.2338043 C36.008021,40.2084423 36.0145565,40.1556047 36.0145565,40.0560587 C36.0164539,39.2973112 36.1155402,38.5554716 36.1199674,37.824411 C36.8135714,38.5260939 37.6484261,39.0500313 38.5971247,39.3567006 C40.5090684,39.9717299 42.5036544,39.6927476 44.1963433,38.7437847 C46.0180553,39.9949785 48.0649251,41.1276047 50.2113028,41.5822192 C51.4865644,41.8525362 52.7643559,41.7407319 54.043834,41.9076986 C55.31509,42.0746654 56.5443924,42.6305166 57.74165,43.0637847 C60.4066495,44.0296556 63.0649028,45.0206771 65.7381244,45.9613973 C67.8969406,46.7201448 70.2328472,47.3224932 72.4930687,46.8955656 C73.1276426,47.8760196 73.9519562,48.7047241 75.0081739,49.3134129 C75.7648136,49.746681 76.5954519,50.0402466 77.453497,50.1862896 C78.2124558,50.3152133 79.102335,50.2644892 79.7177241,50.7865245 C80.3185665,51.2937652 80.6938295,52.0501879 81.2335336,52.621045 C81.8345868,53.2593229 82.576469,53.8130607 83.3544018,54.2103992 C83.9784346,54.5295382 84.6153276,54.7596986 85.2623399,54.9099687 C85.2056289,56.3534912 85.1506043,57.7949002 85.1337386,59.2405362 C85.1023261,62.3812016 85.1147646,65.5216556 85.0728111,68.6625323 C85.0306467,71.7924188 84.9315604,74.922728 84.7671193,78.0485988 C84.6109003,80.9821409 84.3916455,83.9260391 83.6938251,86.7879335 C81.3790007,96.2839022 72.7078962,103.083041 63.0016562,103.429656 C60.1199318,103.533217 57.2673007,103.127425 54.5118586,102.277585 C51.657541,101.396466 49.1084934,99.5828689 46.1822856,99.0251155 C45.4170021,98.8811859 44.6959912,99.6528258 45.1345008,100.394454 C45.889454,101.669108 46.8063184,102.446877 48.0607086,103.213867 C49.3743399,104.015096 50.837233,104.60899 52.2813629,105.128912 C54.9377188,106.084004 57.7481855,106.637953 60.5668742,106.792239 C62.7170467,106.910384 64.8758629,106.76265 66.9819736,106.356857 C67.1297597,106.81126 67.3911789,107.252982 67.5891406,107.673569 C67.6186557,107.734861 67.7179528,107.692591 67.6989788,107.629186 C67.6671447,107.523511 67.6462734,107.430517 67.6378405,107.354431 C68.3459912,108.280145 69.4401568,108.920325 70.5640484,109.231221 C71.3565279,109.451025 72.197918,109.518446 73.0137988,109.425663 C73.2773261,109.395863 73.5279934,109.351691 73.776974,109.29674 C74.6074015,110.025898 75.6699438,110.512004 76.7367026,110.755057 C76.5534984,111.870986 77.1035327,113.088364 78.3792159,113.405389 C78.9144927,113.53854 79.4288982,113.540654 79.9435144,113.492043 C80.3588335,113.686485 80.8057759,113.838658 81.2801252,113.942219 C81.8976225,114.077483 82.6354992,113.903965 83.1014155,113.456114 C83.35651,113.635761 83.5947388,113.760458 83.8308593,114.045569 C84.802959,115.220888 86.8983178,114.284607 86.9910795,112.925624 C87.2988794,112.925624 87.6087876,112.929851 87.9189066,112.940419 C87.9924835,112.974235 88.0662711,113.008051 88.142167,113.04398 C89.4977518,113.675706 90.9018256,114.227542 92.4009801,113.730869 C92.6769459,113.639777 92.9299322,113.523746 93.1597281,113.388481 C94.2159458,113.483589 95.2574059,113.485703 96.328592,113.139088 C96.9610576,112.933867 97.5553645,112.608599 98.050796,112.181671 C99.7036396,112.667777 101.447348,112.887581 103.091758,112.285022 C104.322747,111.835057 105.313821,111.12492 106.011431,110.188427 C107.0784,110.226681 108.161814,109.968834 109.137919,109.459479 C110.807629,108.592943 111.97769,106.946313 112.793571,105.295879 C114.589984,101.654313 115.652527,97.7422192 116.069743,93.7075421 C116.480846,89.7341566 115.894761,85.7819061 115.48155,81.8315577" id="ðŸ–-Ink" fill="#000000"></path>
                </g>
                <g id="face/Smile" transform="translate(112.183099, 77.354207)" fill="#000000" fill-rule="evenodd">
                    <path d="M30.968993,50.9198978 C29.548794,50.3403012 28.2816173,49.3734958 27.3551889,48.1384646 C27.0331038,47.7091169 26.9495926,47.2557326 27.017159,46.8410547 C27.0931327,46.3747786 27.3688808,45.9521824 27.7449394,45.6687178 C28.1221628,45.3843752 28.5940214,45.2441445 29.0502103,45.3156301 C29.4466117,45.3777469 29.8412104,45.5948709 30.1535058,46.0451781 L30.2187521,46.1352289 C30.7695298,46.8806513 31.4872438,47.4922614 32.3050288,47.8864795 C33.0932406,48.2664417 33.9747757,48.4437847 34.8870208,48.3406561 C36.6244504,48.1443157 37.8219743,47.2043274 39.0948115,45.9278391 C39.2525834,45.7666792 39.4104563,45.6004672 39.5690946,45.4315797 C39.6692778,45.278484 39.8083069,45.1800892 39.962667,45.1284632 C40.1340565,45.0711416 40.327938,45.0743848 40.5055187,45.1363808 C40.6767961,45.1961763 40.8299095,45.309486 40.9325762,45.4602937 C41.0301525,45.6036243 41.0854754,45.7806897 41.0675245,45.9843589 C40.9510195,47.3072301 40.2596776,48.4878363 39.2776553,49.4148615 C38.1869942,50.4444414 36.7412431,51.1567117 35.3801317,51.4065272 C33.8805866,51.6817086 32.3525901,51.4845569 30.968993,50.9198978 L30.968993,50.9198978 Z M36.0875289,30.5120405 C37.6828906,31.482148 40.1137318,33.7442494 38.3974899,36.149264 C36.3773089,38.2698449 33.4687045,35.8384541 32.0353946,34.7388307 C30.7063626,33.8866164 29.2131206,36.0784478 30.4461973,37.0735516 C40.8033244,44.7445605 45.006466,30.7657101 36.8944406,29.3714319 C36.0012775,29.2177885 35.6695544,30.2119271 36.0875289,30.5120405 Z M17.5274577,21.5886716 C17.7037243,19.3998697 21.0359789,18.9028321 21.3674577,21.0687499 C21.6642887,23.0089456 21.3148521,24.7912626 20.4412606,26.5380728 C19.6065423,28.2068947 17.5085456,27.4283107 17.3498837,25.9087021 C17.1372039,23.8717299 17.4178099,22.9502317 17.5274577,21.5886716 Z M42.8930282,20.6196517 C43.3576056,20.0109628 44.0283803,19.5954481 44.8320423,19.8302583 C47.3429577,20.5642779 46.6028873,24.1303914 45.7210563,25.8662114 C45.2419014,26.8088337 43.6930986,27.0478708 42.993169,26.2178982 C41.8523239,24.864411 41.3059859,22.1614521 42.756338,20.8282544 C42.7956338,20.7593542 42.8393662,20.68982 42.8930282,20.6196517 Z M20.4058944,12.0111429 L20.802522,11.9416942 C22.0295218,11.7294045 23.5551549,11.5254176 24.4231479,12.5122544 C24.8835,13.0355577 25.0419507,14.0081918 24.4231479,14.509092 C23.3346972,15.3904227 22.1313169,15.0488806 20.8269507,15.1234873 C19.7520211,15.1852016 18.7189225,15.3631585 17.6835,15.6592603 C15.4119507,16.3087397 13.5610352,17.4944149 11.6209648,18.7963327 C11.3663873,18.9671037 11.1065282,18.6414129 11.228007,18.4032211 C12.3479366,16.208771 14.5182887,14.4061644 16.6922324,13.3073542 C17.8525141,12.7208571 19.1222324,12.2343288 20.4058944,12.0111429 Z M40.6041287,11.0281289 L40.9077055,11.0902829 C44.2113469,11.7811043 48.5035506,13.1610768 50.0679842,16.4073021 C50.1275964,16.8663298 50.0646105,16.9647086 50.0133917,17.0289838 L49.9963385,17.0503723 C49.9541341,17.1052595 49.9204583,17.1809212 49.7215736,17.2433957 C49.6663832,17.2302408 49.6106433,17.216308 49.5543131,17.2015401 C48.8372041,17.0135386 48.2698321,16.7545401 47.720556,16.4857982 L47.1250012,16.192275 C46.4340388,15.8533498 45.7369757,15.5267598 44.9982488,15.2856588 C43.4217423,14.7712438 41.8001698,14.4088706 40.1534741,14.2153715 C39.7965654,14.1734678 39.4528848,14.0529641 39.1817455,13.8464404 C38.92438,13.6504079 38.7277692,13.3789964 38.6381257,13.0182314 C38.5219478,12.5513438 38.5553348,12.1978716 38.8057421,11.7766707 C38.9940329,11.4603578 39.263447,11.2411116 39.5728025,11.115213 C39.888177,10.9868648 40.2472278,10.9566068 40.6041287,11.0281289 Z" id="ðŸ–-Ink"></path>
                </g>
                <g id="mask/respirator" transform="translate(83.450704, 97.432485)" fill-rule="evenodd">
                    <path d="M72.7465858,5.73080548 C70.8799759,3.79272329 69.0062223,1.82653151 66.617874,0.487204697 C66.7230089,-0.0868227006 66.4910995,-0.746446967 65.809205,-1.02120235 C59.1982814,-3.49400078 54.9956515,3.623009 50.2078476,6.80277417 C49.0890218,7.4042771 47.9669885,8.09814012 46.7177048,8.33316164 C44.0613665,9.10902857 41.807368,10.7155022 40.2057185,12.8262575 C39.3402241,13.6579209 37.8144673,15.045647 37.3906794,16.176371 C37.1312649,16.6379601 13.8808416,5.57208141 8.58938101,4.3407546 C6.08357809,3.50232798 4.73441193,5.87210234 7.91043851,7.08830841 C16.2562957,10.2842144 32.5970617,17.4380106 36.24531,19.4994317 C35.5442643,21.6634474 35.3348884,24.5316822 36.0176154,26.6718153 C35.4438043,30.0029072 36.5577525,33.0545941 38.7595869,35.4462341 C39.2261065,36.1253025 39.9393323,36.6147898 40.4035248,37.2040344 C42.0896775,41.6132243 46.1359081,43.7458522 50.8708617,45.8533339 C58.4051498,49.206772 64.9729687,49.8786693 69.1018187,48.409827 C79.8201262,44.3163945 86.0409768,32.288238 84.0367328,21.3288798 C82.1516704,13.608465 82.5407497,6.83616751 72.7465858,5.73080548 Z" id="ðŸŽ¨-Color" fill="#9DDADB"></path>
                    <path d="M49.4950249,5.68050411 C55.9422703,2.08036321 57.0310605,-5.25729628 66.3815388,-1.52717495 C69.3029877,-0.346572211 70.3291345,1.40108337 72.2781284,3.58412055 C73.2874884,4.50180352 74.5581607,4.95810881 75.8120342,5.44675068 C80.5811538,7.03060978 83.3777184,11.5304689 84.4444974,16.2573182 C87.2351841,26.0689149 84.3132908,37.5629092 77.1811398,44.7028362 C77.2815898,44.883735 77.262022,45.1443711 77.0442953,45.2645542 C76.6436442,45.485635 76.2453954,45.7121501 75.8486132,45.9420712 C73.3539843,48.0979423 68.2927505,50.9328555 64.5409521,50.9328555 C56.1754182,50.9328555 48.0941698,47.5377523 43.1557016,43.1801753 C36.8349104,38.0802928 32.8486027,27.4394395 34.8994913,19.7811616 C23.1461999,14.2455085 12.258666,10.0415335 7.70776249,8.21812402 C6.58475357,7.0397531 6.57453137,6.60636511 7.67709587,6.91796008 C18.3622492,9.93768359 39.4023911,19.7589699 39.6555308,19.769326 C39.8056414,19.7754552 40.3574295,18.5692791 40.4660844,18.0510481 C39.9740016,17.9971961 10.9519656,5.47286707 7.33751104,4.31089805 L7.14628209,4.24987397 C5.42724811,3.70670372 5.85672789,3.28400313 7.17778792,3.36093464 C9.85641561,3.51733386 32.5661839,14.0628681 36.9854422,15.1196196 C38.9597686,10.6812634 44.5681129,8.37733386 49.4950249,5.68050411 Z M63.5729053,-0.611605479 C59.9837174,-1.66835695 57.3450521,0.938014873 55.4251729,3.66971742 C50.8964926,9.28751601 42.6358355,9.46508063 39.2246642,16.1399144 L39.1227886,16.3441832 L40.4730936,16.7499757 L40.5099771,16.6889468 C40.6163662,16.5232894 40.9333652,16.1025521 41.2020853,16.4855765 C42.5984194,17.9868505 40.4122783,22.9710508 39.2643071,20.775818 L39.2298426,20.7070873 L37.3548747,20.1907585 C33.9681254,33.9212601 46.891587,46.2838127 59.8944121,48.3774968 C59.8944121,48.3774968 65.3192355,48.4643514 67.4934606,47.9391076 C69.0965824,47.5519139 70.4814938,46.8028885 71.9613819,46.0595695 C73.4319497,45.3207996 74.6466662,44.1771719 76.0713228,43.3957553 C80.141325,39.3584145 82.8176149,33.8158054 83.5454835,28.0665159 C84.2581121,21.1724806 83.5908407,12.3948916 77.6104852,8.02289941 C75.6414994,6.77381918 73.2142669,6.43819491 71.4145015,4.89364697 C69.2664738,2.51891507 66.7523453,0.104026614 63.5729053,-0.611605479 Z M57.1180843,31.6412947 C57.0578079,31.5423828 57.1969022,31.4474865 57.2757608,31.5212477 C58.5343536,32.6999483 59.7507498,33.9266254 60.9259853,35.1896548 C60.9879984,35.1699992 61.0584483,35.151189 61.1492354,35.1289973 C61.5808047,35.0235089 61.9538499,35.4745313 61.7450794,35.8719284 L61.6953994,35.960969 C61.381361,36.4957177 60.6594023,36.9664575 60.2296378,36.3218583 C59.1355225,34.8020384 58.0947107,33.239737 57.1180843,31.6412947 Z M41.564016,34.4676611 L41.5628462,34.421226 C41.5388335,33.9620003 41.1657948,32.8037002 41.9241408,32.9812344 C42.8015968,33.4918568 43.126356,34.8267452 43.1756385,35.7748626 C43.2297382,36.8155515 41.5047342,36.8286552 41.5493005,35.7748626 C41.5678757,35.3386356 41.6022822,34.903254 41.564016,34.4676611 Z M77.9982237,31.2650278 C78.1200811,31.2419906 78.1851797,31.3945855 78.0792486,31.4641198 C76.6885208,32.2456932 76.8050293,33.8213096 76.5806391,35.134429 C74.9837091,36.1992117 75.1461231,31.6372157 77.9982237,31.2650278 Z M38.0930752,25.6900932 C51.4853169,27.0410442 65.8916532,31.0404258 79.588393,26.9738348 C80.418362,26.7485354 80.7475496,28.0324885 79.9201713,28.2544063 C66.1139979,31.7550012 51.4540569,29.6639014 38.0930752,25.6900932 Z M74.4140223,20.1560548 C74.8284226,20.0596791 75.2190258,22.106184 75.8586138,22.4870372 C76.1764096,23.1270059 78.6977159,23.6904658 77.6352458,24.4752094 C75.8220482,24.8541605 73.8334839,21.7876791 74.4140223,20.1560548 Z M62.6493371,20.6405542 C62.9604237,20.634425 63.1734753,20.8730395 63.2752845,21.1444133 C63.553106,21.9414153 62.3638514,21.8146051 61.9209056,22.0796384 C60.0470912,23.3705659 57.8830854,24.4116775 55.580532,24.4599654 C55.4366113,24.4628243 55.4353032,24.2723977 55.5528911,24.2263233 L55.954408,24.0690469 C57.2210587,23.5704942 58.4415972,23.059559 59.6067185,22.3216344 C60.5499046,21.7247812 61.4573802,20.6139241 62.6493371,20.6405542 Z M55.5739714,6.61177691 C55.2571763,4.32919374 62.4654536,-1.43411742 64.674748,1.04354207 C65.2458884,1.68139726 64.4965967,2.62845793 63.7430705,2.22583562 C60.663602,1.41763209 57.7182901,4.77577691 55.5739714,6.61177691 Z" id="ðŸ–-Ink" fill="#000000"></path>
                </g>
                <g id="accessories/*-None" transform="translate(88.521127, 88.978474)"></g>
            </g>
        </g>
    </g>
</svg>