<?xml version="1.0" encoding="UTF-8"?>
<svg width="247px" height="232px" viewBox="0 0 247 232" version="1.1" xmlns="http://www.w3.org/2000/svg" xmlns:xlink="http://www.w3.org/1999/xlink">
    <!-- Generator: Sketch 62 (91390) - https://sketch.com -->
    <title>bust-mask-7</title>
    <desc>Created with Sketch.</desc>
    <g id="Introduction" stroke="none" stroke-width="1" fill="none" fill-rule="evenodd">
        <g id="busts-covid-19" transform="translate(-158.000000, -560.000000)">
            <g id="a-person/bust" transform="translate(146.000000, 512.000000)">
                <g id="body/Whatever" transform="translate(31.056338, 135.052838)" fill-rule="evenodd">
                    <path d="M214.804615,59.8875533 C216.968629,58.757558 219.081517,57.5297808 221.161024,56.2518428 C222.625742,55.3754033 221.328981,53.1676901 219.82708,53.9653961 C219.059122,54.3734558 218.294122,54.7855369 217.526376,55.1910568 C218.130601,54.6703997 218.690671,54.1036031 219.192855,53.4857989 L219.158207,53.4513001 C221.094263,51.7159881 218.607432,48.4417744 216.405601,49.867232 C214.463841,51.2753344 212.504333,52.7120093 210.27546,53.6392446 C205.658841,55.597635 200.566657,55.92167 195.611587,55.9781803 C193.798277,55.8418782 192.066305,56.1561773 190.306869,56.5064568 C190.996657,53.7380848 192.722925,51.6476254 193.638559,48.9664529 C194.314193,46.2594592 190.408277,44.4155711 189.024052,47.0175867 C188.684333,47.6565558 188.36046,48.3029325 188.04377,48.952484 C185.051798,51.6749281 180.055742,51.4351295 177.038207,54.3582171 C175.319449,55.8843219 174.478213,57.9550753 174.146017,60.0333247 C173.920433,61.444602 174.271118,62.859336 173.418136,64.1093206 C169.294404,69.9442783 162.778544,79.1671052 159.46946,85.588543 C157.126502,70.3294799 150.870601,51.4558711 144.407714,37.5033188 C142.270531,33.041118 139.825531,28.6809321 136.615953,24.8985487 C136.979756,23.6371192 135.695671,21.398082 134.879122,22.0874236 C132.365671,19.0157582 127.922714,18.2205921 124.350179,16.6935429 C119.527573,14.6305978 115.526376,10.3425843 113.559474,5.46893742 C111.032291,-3.81188145 104.811094,-4.99076768 96.1831363,-4.58059147 C87.9259532,-4.59096228 81.8167278,-1.05790163 80.0150377,7.3509224 C76.3548264,13.733205 67.7127137,12.6777103 61.4953194,14.3673061 C56.9386997,15.4086204 52.5166574,17.0186361 48.3141222,19.0625327 C43.6389813,14.6261531 26.8949673,33.2449362 25.3729954,38.0366748 C26.2689813,38.2104388 27.1594743,38.4195483 28.0419391,38.674374 C28.8278546,38.9016852 28.4978546,40.0892491 27.7051785,39.8991881 C26.7187701,39.6621409 25.7260236,39.4989594 24.7286292,39.385727 C24.6982067,39.4811808 24.671587,39.5759997 24.6517278,39.6697603 C24.539756,39.6621409 24.4279954,39.6526167 24.3160236,39.6449973 C24.564263,39.774315 24.8032067,39.9243743 25.0360236,40.1178217 C25.5988405,40.5853549 24.8661644,41.4876156 24.2680659,41.1151129 C23.7046152,40.693296 22.9666574,40.7599655 22.2908123,40.6183722 C22.2506715,42.008696 17.291587,40.4532858 16.5213053,39.9925254 C13.0977137,39.5641473 9.57567149,40.0238495 6.37961515,38.3721389 C2.12700952,37.4762276 -2.15749753,36.4854976 -6.36235668,35.3444966 C-7.47552569,35.7785892 -8.52172288,37.3320945 -7.63756795,38.4720373 C-7.140244,38.9907896 -7.77953978,39.8378098 -8.40573696,39.4691168 C-10.5059482,38.2324504 -12.1301736,36.3019977 -13.5072158,34.2223323 C-14.1553848,33.5681246 -15.3059482,33.7088713 -16.1767933,33.4373253 C-16.2932018,33.6466464 -16.3618637,33.8798839 -16.3608074,34.1190475 C-20.0548215,34.7273274 -17.4196806,38.7634783 -15.5626384,40.021098 C-16.5477792,40.6628185 -16.5851736,41.91938 -16.4989764,42.9687369 C-16.7077088,43.3425094 -16.7774271,43.8058096 -16.595737,44.2246634 C-15.9010891,45.8260015 -14.3987651,47.1746305 -13.2564412,48.4720403 C-11.9951736,49.9049056 -10.8705961,51.3456019 -9.33594823,52.5071329 C-3.48637076,56.9678521 3.57271374,59.461715 10.8145447,60.4369947 C13.3858828,60.8321438 17.0845447,61.4368257 18.6766574,63.6119449 C18.2860236,66.1934305 17.5687701,68.6690916 16.9180659,71.1864476 C16.0081363,74.5277541 16.0700377,78.0258926 16.0579954,81.432387 C15.9308123,81.3301604 15.686587,81.3513253 15.650249,81.5460426 C15.4385588,82.9581663 15.2811644,84.4020374 14.4232067,85.588543 C13.671094,87.7949862 13.1706011,90.1483141 12.8894039,92.4662965 C11.762925,103.455548 11.4939813,114.768834 14.0338405,125.586862 C15.0139109,129.600154 16.607925,133.414285 18.779756,136.926393 C19.4272912,137.973845 20.468418,138.280736 21.4032771,138.075013 C24.5321504,139.701114 28.4737701,140.222406 31.8462349,139.809267 C43.3436292,136.553255 39.3375729,144.393801 55.457925,141.992852 C83.2833475,138.446881 111.403911,145.41522 139.170179,141.32404 C139.854052,146.608287 148.806305,145.092455 151.915953,142.858497 C161.240038,135.924233 165.869756,113.97007 170.549122,102.832876 C173.765671,94.054724 179.151728,78.5069713 186.205319,72.6165615 C188.320319,70.9616761 190.876869,70.0905279 193.434897,69.3872175 C202.981657,66.9261602 212.565179,64.5988652 222.130108,62.2061706 C223.752221,61.8065769 223.460671,59.0390515 221.726164,59.2166252 C219.424193,59.4521908 217.114404,59.6655333 214.804615,59.8875533 Z" id="âœ‹-Skin" fill="#D08B5B"></path>
                    <path d="M2.28060107,58.2414739 C1.63412219,58.1612665 1.00031938,57.9308947 0.370741912,57.7491334 C-0.590525694,57.4680375 -1.53277922,57.1404446 -2.460244,56.7663546 C-4.37432851,55.9993643 -6.23137076,55.0924602 -7.97221583,53.9828712 C-10.7841877,52.1885072 -13.2686947,49.889016 -15.1426384,47.1203272 L-15.2712922,46.9272325 C-16.3411172,45.2970437 -18.3145257,41.6772117 -16.1017933,40.4395444 C-17.527913,39.2474653 -18.8758003,37.1064868 -18.799744,35.4537275 C-18.6919975,33.1161933 -15.8272088,33.1481072 -14.3462229,34.1391287 C-13.3765046,34.7879741 -12.649744,35.6967804 -11.9208708,36.5910035 C-11.1138285,37.5841385 -10.2518567,38.5309878 -9.35608203,39.4419076 C-9.11840598,39.6828469 -8.87835316,39.9190309 -8.63414101,40.1513511 L-8.38849753,40.3823953 C-8.42650457,40.2916203 -8.46030738,40.1986262 -8.48988485,40.1033072 C-8.98425105,38.5627749 -8.39481443,36.5570606 -6.85467358,35.8511506 C-5.91216242,35.4189135 -4.93333107,35.6827669 -4.0200066,36.0497 L-3.88002569,36.1068845 C-2.65044823,36.6160274 -1.40608203,37.0664148 -0.125800342,37.4278238 C5.09250952,38.9009354 10.5389884,39.1461017 15.8861715,39.8816007 C17.9460306,40.1669236 20.043918,40.5260078 22.0932137,41.0543835 C22.8748616,37.7341338 24.7910588,34.5514097 26.8699321,31.9327796 C36.8248616,19.4058364 53.2424673,15.2656955 68.2614813,12.5857737 C69.6304954,12.3427209 70.765087,14.1560219 71.5615659,13.7269808 C73.0721292,12.9153956 74.4010025,11.7656501 75.5671997,10.5165698 C78.0538194,7.85144262 79.8179039,4.71711776 81.8904391,1.74764614 C82.915087,0.280875101 85.2728335,1.59336042 84.3221292,3.16792011 L83.8563926,3.93742865 C81.9387614,7.08945145 79.8152331,10.3377994 77.065087,12.782245 C75.6031152,14.0799358 73.9805799,15.1049847 72.1256504,15.7451647 C70.7207208,16.2293683 68.749594,16.6372743 67.2115659,16.1678653 L67.0269806,15.8988947 C67.0880494,15.9888352 67.1495518,16.0785416 67.2115236,16.1680133 C71.2255659,21.9864657 76.2621856,26.9109275 81.5692278,31.5585205 C86.9260607,36.2470697 92.7048979,40.4456222 98.5184923,44.5507263 L99.0030306,44.8926105 C108.474093,37.9817146 116.474752,28.9674894 122.088127,18.6684777 C120.911566,18.5267037 119.747481,17.7723945 118.741848,17.2099913 C117.531284,16.5296547 116.392552,15.7178583 115.505228,14.6357448 C113.572129,12.279189 113.823538,9.24208528 113.474946,6.38251581 C113.453819,6.20498156 113.688326,6.160598 113.796073,6.24936512 C114.84396,7.12012833 115.211566,8.54674281 115.64889,9.77891502 C116.13058,11.1336704 116.67565,12.2498113 117.78058,13.2027898 C118.809453,14.0906724 120.064383,14.7435334 121.283397,15.3247467 C121.912053,15.6229683 125.032782,16.3893687 125.388263,17.0241088 C130.779876,15.7580782 136.031988,17.9455538 140.027059,21.6357299 C143.886918,25.2012093 146.720017,29.8361213 149.221425,34.4118551 C151.889735,39.2940469 154.076355,44.3831506 155.960862,49.6140704 C157.870721,54.9234011 159.334805,60.3487632 160.139735,65.9368649 C160.819171,70.6481166 161.235757,75.4333848 161.505381,80.1973051 L161.538326,80.7926771 C165.526995,74.5303256 169.615024,68.333535 173.787559,62.1916955 C172.838967,59.6576054 173.888967,57.0706778 175.665728,55.1135741 C177.634742,52.9472336 180.357981,51.9412062 182.962911,50.7703256 L183.305306,50.6153843 C184.560828,50.0424587 185.812207,49.4115193 186.896714,48.553261 C187.940376,47.7247679 188.707277,46.5834763 189.805869,45.8205017 C191.403052,44.7087992 194.301643,44.9455115 194.375587,47.3739264 C194.413615,48.7077581 193.84108,50.1700908 193.317136,51.3684469 C192.723474,52.7234137 191.92277,53.9511475 190.972066,55.0797581 C190.928122,55.132342 190.880122,55.1738343 190.831311,55.2067238 L190.794622,55.2298168 C192.108707,55.4475076 193.433355,55.6229283 194.783355,55.6842199 C197.506594,55.8089166 200.259411,55.6081338 202.925608,55.033261 C205.655186,54.4457072 208.300256,53.4906152 210.755186,52.158897 C212.853073,51.0218324 214.796735,49.5508344 217.179833,49.2042199 C217.399531,49.1704461 217.621362,49.1493111 217.849531,49.1366301 C218.229812,49.1154951 218.610094,49.5635577 218.460094,49.9395499 C218.3777,50.1468845 218.29108,50.3518943 218.19601,50.5590176 C217.372087,52.3744056 216.108312,54.1355996 214.531985,55.4723158 L214.410115,55.5742966 C214.965791,55.3820101 215.512974,55.1664328 216.051707,54.92338 C219.218608,53.4967655 222.091848,51.3409925 225.486918,50.4744563 C225.647481,50.4321651 225.810157,50.3941221 225.972833,50.3581925 C227.022833,50.1320477 227.576355,51.2733393 226.959453,52.0553354 C226.860157,52.1821456 226.760862,52.3068422 226.657341,52.4315389 C225.142552,54.3124931 223.471425,56.0582465 221.629171,57.6264657 C220.997481,58.1632955 220.346777,58.6832172 219.683397,59.1801017 C219.403841,59.3906321 219.122725,59.5966081 218.838709,59.7992437 L218.698826,59.8984814 C219.030517,59.6640939 219.357981,59.4252681 219.683333,59.1801017 C221.762207,58.5500665 223.811502,57.804 225.816432,56.9778317 C226.612911,56.6500274 227.231925,57.4573855 227.316432,58.1210254 C227.599531,60.3446418 225.131925,61.9530176 223.526291,63.0222387 C221.916432,64.0961095 220.143897,64.9119217 218.329108,65.5668962 C214.839803,66.8284068 211.174969,67.4012651 207.515874,67.9146356 L205.738662,68.1622679 C198.704125,69.1462948 191.356805,70.3227639 186.30939,75.7985753 C183.480517,78.8671702 181.566432,82.6799295 179.815024,86.4313972 C178.065728,90.1788493 176.529812,94.0254246 175.072066,97.893135 C173.561502,101.895898 172.245305,105.972845 170.846714,110.015976 C169.562207,113.72845 168.027923,117.393428 166.508321,121.02124 L166.268545,121.593746 C163.042488,129.304016 159.188967,136.5658 153.818545,143.00353 C152.933333,144.066622 151.503052,142.557793 152.320657,141.505057 C157.938263,134.259969 161.846714,125.711061 165.07277,117.182865 C166.54108,113.302685 167.770657,109.329088 169.181925,105.427562 L170.021688,103.109828 C171.142995,100.020164 172.274038,96.9344501 173.453756,93.8690254 C174.947418,89.9905362 176.588967,86.1587553 178.467136,82.4516712 L178.666387,82.0613606 C180.505214,78.4850555 182.689857,74.9604342 185.696714,72.2540195 C191.108798,67.3806157 198.310473,66.2114089 205.273536,65.285369 L207.464065,64.996588 C210.407923,64.6053405 213.360094,64.1732172 216.22277,63.3857612 C217.874883,62.9336829 219.488967,62.3543718 221.005869,61.5554677 C221.610094,61.2384422 222.199531,60.8899256 222.769953,60.5094951 C221.143193,60.9871467 219.493193,61.3779334 217.813615,61.6843913 C216.991784,61.8344501 216.178404,61.9466771 215.367136,62.0248767 C213.277784,62.2317252 211.205249,62.2232712 209.065108,62.1114669 C208.883418,62.100688 208.824263,61.8155765 209.018629,61.7796469 C210.509026,61.5144984 212.001169,61.1829753 213.487122,60.8231876 L213.932693,60.7142935 C213.941143,60.467225 214.038326,60.2049393 214.241143,59.9557573 C214.98058,59.055405 216.38551,58.5944501 217.359453,57.9582857 C218.379876,57.2925322 219.368608,56.5741526 220.310862,55.8046262 C221.172833,55.101041 222.001002,54.3568767 222.797481,53.5793189 L223.036255,53.3445774 C222.957003,53.4231158 222.877411,53.5013448 222.797481,53.5791921 C220.646777,54.5727499 218.608045,55.8469808 216.36227,56.6334152 C214.577059,57.2609142 212.705228,57.6836148 210.816495,57.8336735 L210.699242,57.8429201 L210.581988,57.8505816 C208.610841,57.9922074 206.627038,57.9351428 204.685488,58.3620704 C204.467883,58.410681 204.400277,58.1190176 204.594643,58.036591 C206.291122,57.330681 208.055207,57.0580391 209.838305,56.7283326 C209.876312,56.588778 209.973495,56.4640814 210.14251,56.3837683 L210.598723,56.1658746 C211.957298,55.5131319 213.223636,54.8542262 214.353073,53.7947272 C215.350256,52.8584454 216.180538,51.7638622 216.803777,50.5505001 C214.308707,51.0979185 212.117862,52.9895037 209.848848,54.0525956 C207.377017,55.2129088 204.761524,56.0456289 202.0742,56.5192649 L201.768026,56.5717389 C196.746081,57.4097478 190.707031,57.3029053 186.208002,54.6908735 C186.064341,54.6063334 186.167862,54.414216 186.315749,54.4372532 C187.591805,54.64649 188.855186,54.8937698 190.118566,55.1135741 C189.871362,54.8874293 189.761502,54.4816367 190.046714,54.1561573 C191.181425,52.8553303 192.078708,51.3684447 192.652398,49.7414724 L192.762122,49.4233155 C193.026338,48.6686564 193.472629,47.4967068 193.017136,46.8159616 C192.581925,46.1671162 191.557277,46.2558833 190.944601,46.5306387 C189.670657,47.1055115 188.823474,48.5407913 187.750235,49.4071162 C186.579812,50.3539655 185.248826,51.0556485 183.88615,51.6833589 L183.598405,51.8141474 C181.241442,52.8747683 178.723184,53.7676043 176.869953,55.6398364 C175.87277,56.6458638 175.015024,57.903398 174.7277,59.3131045 C174.596714,59.9598364 174.596714,60.6255898 174.769953,61.2659812 C174.907277,61.7668814 175.194601,62.0756641 175.029812,62.584807 C174.814319,63.2421064 174.051643,64.0283295 173.658686,64.6137698 C173.202348,65.2903021 172.748122,65.9685252 172.293897,66.6469596 C171.387559,68.0038285 170.485446,69.3649244 169.583333,70.7239068 C167.779108,73.4460986 165.993897,76.1809714 164.223474,78.9242982 C163.647418,79.8176054 163.07324,80.711852 162.500939,81.6070379 L161.64396,82.9505636 L161.191055,83.6588512 L160.418587,84.873661 C160.446052,84.985888 160.443939,85.1042442 160.408024,85.2075945 C160.276333,85.5828587 160.029692,85.8393557 159.723271,86.0253361 L159.668545,86.0573706 C155.160094,93.186216 150.723474,100.361558 146.242488,107.507523 C146.003756,109.688384 145.779812,111.871632 145.585446,114.054881 C145.143897,118.99625 144.841784,123.950513 144.744601,128.910693 C144.698122,131.311843 144.890376,133.727366 144.993897,136.126192 C145.044601,137.271106 145.113931,138.414624 145.204549,139.557808 L145.271211,140.368103 C145.36047,141.481627 145.41108,142.586902 145.010798,143.64836 C144.655869,144.580203 143.574179,144.78944 142.934038,144.079515 C134.58265,143.743341 126.224904,143.487607 117.867157,143.329094 C102.907298,143.041658 87.9411011,143.086041 72.9791292,143.375591 C65.4643405,143.521423 57.9474391,143.726433 50.434763,143.980053 C46.7333546,144.102636 43.0298335,144.275944 39.3263123,144.326668 C37.3309743,144.353868 34.1905758,143.627064 34.0295708,141.381331 L34.0256081,141.312749 C33.7763123,141.380381 33.5185659,141.435332 33.2544813,141.475489 C33.1369129,141.493583 33.0239901,141.488441 32.9196902,141.46404 L32.8678616,141.450254 C29.8934844,142.35716 26.1310568,141.06314 23.3047469,140.309035 L23.071425,140.247501 C20.3735377,139.543705 18.2059321,138.537677 16.4376222,136.301591 C13.3425518,132.385482 12.2862137,127.126875 11.736918,122.280613 C11.221425,117.719674 11.1918475,113.074405 11.8193123,108.52192 C11.4495729,104.812744 11.8108405,100.98519 12.231263,97.2969158 C12.4383053,95.4729628 12.681263,93.6511232 12.9728123,91.8377377 C13.1354884,90.8253698 13.3488687,89.8235694 13.5664743,88.8238825 C13.6533581,88.4244305 13.7256843,87.9943954 13.8358199,87.5786607 L13.8854673,87.4014951 C13.5474391,87.4458786 13.1777208,87.371906 12.8206785,87.1755616 C11.9713828,86.7084774 11.7241997,85.7635303 11.7094109,84.8591624 C11.6629321,82.1325322 11.9882842,79.3281252 12.2756081,76.6186144 C12.5650447,73.9133307 12.9622278,71.1972681 13.4819461,68.5258003 L13.616434,67.8370213 C14.0102382,65.838651 14.4608437,63.7756661 15.2544813,61.8978551 C12.2735588,61.3908047 9.3010236,60.8518614 6.40877008,59.9343898 C4.99750247,59.4842137 3.60736163,58.9243467 2.28060107,58.2414739 Z M157.870657,86.6153354 C157.8242,86.6259452 157.779833,86.6386262 157.735467,86.6513072 C156.543918,86.9852407 155.339693,87.2684501 154.139693,87.5727945 C152.065045,88.0948297 150.036876,88.6781565 148.108002,89.5848493 C147.703932,94.6868929 147.104914,99.772303 146.53549,104.860325 L146.422066,105.878012 C147.296714,104.254631 148.192488,102.644142 149.128404,101.052885 C151.978404,96.2021847 154.893897,91.3897385 157.870657,86.6153354 Z M14.6122278,87.1206105 C14.618587,87.7269745 14.4918264,88.3570097 14.4242208,88.9401252 C14.3143616,89.8871859 14.2256292,90.8382622 14.1136574,91.7849001 C13.8854884,93.6870528 13.6911222,95.5913189 13.5495729,97.5019256 C13.4587278,98.7216281 13.3995729,99.9453463 13.346756,101.169065 C14.5446644,96.6903193 16.1312842,92.3092391 17.6397349,87.9213956 C17.387594,87.8947796 17.1298382,87.8332109 16.8639508,87.7625589 L16.4163474,87.6419517 C16.1524198,87.5739562 15.2962378,87.3632904 14.6122278,87.1206105 Z M161.643981,82.9505847 L161.652432,83.1513675 C161.684122,83.863618 161.257362,84.2651835 160.739756,84.3687452 C161.039756,83.8953205 161.341869,83.4218958 161.643981,82.9505847 Z M24.5734954,49.1938003 C25.834763,49.3056047 27.0706785,49.5742309 28.2495518,50.0392015 L28.3633017,50.0836181 C29.2352505,50.4203027 30.5101152,50.8433444 30.7953264,51.7743874 C30.8756081,52.0385753 30.6601152,52.2560547 30.4129321,52.2774011 C29.4664532,52.3534872 28.3509602,51.3387945 27.4741997,50.996407 C26.4981433,50.6159765 25.4756081,50.3327671 24.4403968,50.1827084 C22.1143405,49.8424344 19.6889884,50.1004931 17.500256,50.9480078 C17.3713828,50.9987319 17.2911011,50.7935107 17.4072982,50.7322191 C19.6129321,49.5317495 22.065749,48.9718825 24.5734954,49.1938003 Z M-2.15390598,55.2382919 C-2.29976513,55.1093048 -2.44553978,54.9740407 -2.58920175,54.8389878 C-3.72189793,53.7669889 -4.72493939,52.5159572 -5.46761903,51.141228 L-5.66307997,50.7691566 C-6.26797154,49.5975981 -7.01075274,47.9284622 -5.58920175,47.0843342 C-4.73990598,46.5794183 -3.71737076,46.7060172 -2.77089189,47.0124751 C-2.70962429,47.0314966 -2.64835668,47.052843 -2.58708907,47.0737667 C-2.16455386,47.2219232 -1.75680738,47.3992461 -1.3934271,47.5683264 C0.184741912,48.2932579 1.57699543,49.3478958 3.03474191,50.2780485 C4.61425536,51.2861766 6.17390305,51.9308179 7.99686224,52.3081362 L8.16854473,52.3427295 C9.87981233,52.6811013 11.7347419,52.8985808 12.9284039,54.3061737 C13.2284039,54.6614536 12.953756,55.3269956 12.4361504,55.1515749 C9.13615036,54.0379702 5.64389684,53.7925925 2.61431938,51.9644125 C1.3593898,51.2077784 0.172065855,50.3393401 -1.11032851,49.6226512 C-1.7906102,49.2419389 -2.4929764,48.9090951 -3.24147468,48.6808255 L-3.65038314,48.5602125 C-3.88989946,48.490254 -4.17582147,48.4211835 -4.36807499,48.490025 C-4.734045,48.6168352 -4.61724326,48.8127246 -4.50401571,49.1546962 L-4.49272288,49.1893831 C-3.60328626,51.9413753 -1.06807499,54.2448821 1.28122078,55.7687178 C1.81995318,56.1195592 2.37136163,56.441023 2.93333346,56.739027 C6.73731023,58.7673723 10.993658,59.711399 15.1740602,60.8320292 C16.7854489,61.2820131 17.8580447,61.5915452 18.3918475,61.7606254 C19.2833968,61.6864414 20.299594,62.0015647 20.971425,62.3777683 C21.6242419,62.7431929 22.1502982,63.2337369 22.5474813,63.8107232 C22.5474813,63.8107232 22.9298757,64.1298622 22.999594,64.6244219 C23.2002982,65.083052 23.3355095,65.5774003 23.4031152,66.0933064 C23.4411433,66.3955373 23.365087,66.6278113 23.221425,66.7926645 C23.6535427,73.4275365 21.8620982,80.0250594 19.8424091,86.3305728 L19.6422877,86.9523387 L19.5136785,87.3464806 C17.3355095,94.0315326 14.8362137,100.668143 13.7207208,107.638265 C12.9749461,112.294312 12.9981856,117.113098 13.5453687,121.79028 L13.5839471,122.112867 C14.1230838,126.535076 15.1604089,131.495848 17.971425,135.054836 C19.4052153,136.871128 21.1039321,137.678265 23.2757322,138.263149 L23.3946644,138.294836 C25.3594532,138.812433 27.3876222,139.54603 29.4136785,139.767948 C31.2939602,139.972746 32.8700166,139.273388 34.5622701,138.617991 L34.5643405,138.616046 C38.1284461,135.460565 39.746756,130.86581 40.9425306,126.228573 C44.0418264,114.228315 43.6573194,101.771328 41.8995729,89.5954379 C40.9826715,83.2337941 39.7361926,76.9271013 38.4939391,70.6225221 C37.8728123,67.4712892 37.203094,64.3263968 36.6474602,61.1645964 L36.3174619,59.3037562 C36.1353674,58.269956 35.959256,57.2353303 35.8087278,56.195751 C35.6059109,54.7987256 35.5446433,53.4249487 35.474925,52.0194692 C33.7678828,49.1894677 31.2897137,46.8582739 28.418587,45.1864931 C26.3629532,43.9881369 24.1868968,43.1575303 21.9411222,42.555182 C15.5206785,40.824223 8.52138276,40.9468062 2.06081938,39.6152994 C-0.109541922,39.1685232 -2.16972457,38.505171 -4.22881467,37.7103261 L-4.50960316,37.6011311 C-5.45396936,37.2333816 -6.41734964,37.0283718 -6.88636372,38.1421878 C-7.22016654,38.9347514 -7.02157499,39.7590176 -6.52087076,40.424771 C-5.29340598,42.0563953 -2.82580034,42.8130293 -0.968758088,43.4005831 C0.148847545,43.7556516 1.28969262,44.0367475 2.44321374,44.2459843 C3.59673487,44.4552211 4.75448135,44.5080587 5.8615236,44.9159647 C6.28828417,45.0723639 6.37279121,45.7507984 5.8615236,45.8710567 C4.4587067,46.198861 3.04743909,45.9177651 1.6530729,45.6451232 C0.121382757,45.342681 -1.38706795,44.9138512 -2.85326513,44.370681 C-3.12368767,44.2709236 -3.40357499,44.1657557 -3.68860034,44.0539869 L-3.90326513,43.9690309 C-3.68143414,44.1298684 -3.45960316,44.2883812 -3.2356595,44.4468939 C-3.17650457,44.4889526 -3.21242006,44.6009683 -3.29058907,44.5734927 C-6.73806079,43.2868891 -9.87484819,40.9654246 -12.3048891,38.2187103 L-12.4258003,38.081023 C-13.2814341,37.1001463 -15.2314341,34.1327882 -16.8750961,34.9591679 C-18.4185327,35.7342317 -15.7875108,38.7220011 -14.7876429,39.9435329 L-14.6715327,40.0866951 C-13.534913,40.1162841 -12.4342088,40.8240962 -11.513082,41.394742 C-9.91378626,42.3861863 -8.2426595,43.2400414 -6.5398426,44.0387342 C-3.15533555,45.6302019 0.438326419,46.7526833 3.78691797,48.4242528 C3.83128417,48.4477127 3.79748135,48.5045659 3.75522783,48.4984367 C1.62353769,48.1579514 -0.484913018,47.6147812 -2.54477217,46.9407851 L-2.63667358,46.9119622 L-2.72857499,46.8813956 C-4.01519471,46.4586951 -5.28491302,45.9812547 -6.53350457,45.4716892 C-7.92153274,44.9054818 -9.27787076,44.2693174 -10.5940679,43.5486129 C-11.7856172,42.897654 -13.1081525,41.7246598 -14.4898426,41.5513526 C-14.6377299,41.5323311 -14.7687158,41.5300062 -14.8828003,41.5407851 C-16.4693989,41.6738301 -15.1574271,44.3030277 -14.7137651,45.0892508 C-13.9891172,46.3806011 -13.1144694,47.5726168 -12.1109482,48.6610708 C-10.0764412,50.8717949 -7.61094823,52.6238888 -4.94263837,53.9870982 C-4.03207499,54.4520688 -3.10038485,54.8620884 -2.15390598,55.2382919 Z" id="ðŸ–-Ink" fill="#000000"></path>
                </g>
                <g id="head/hat-beanie" transform="translate(78.591549, 38.043053)" fill-rule="evenodd">
                    <path d="M51.6094264,12.4075623 C61.0482461,12.4075623 72.3731226,16.9948296 73.3359929,17.0865749 L73.3619864,17.0879697 C73.8685772,17.0879697 75.8480402,18.5998047 79.3003757,21.6234749 L75.5611066,28.9349282 L75.8637104,29.2246001 C77.3117623,30.6164137 78.5479646,31.8850112 79.5237428,32.8850476 C87.4910497,41.0504247 88.9230381,73.1100521 87.0454104,84.2903025 C85.1677828,95.4705529 81.6900498,106.410634 65.499246,106.410634 C49.3084422,106.410634 31.2958049,96.6510448 28.5210708,93.6117924 C26.671248,91.5856241 24.5934143,90.614914 22.2875695,90.6996621 C22.1928001,90.5797811 22.0987952,90.4602512 22.0055549,90.3410724 L21.6662935,90.2928919 C18.4750517,89.8295513 16.1884515,89.2059005 14.8065797,88.4221476 C12.1073949,86.8912577 9.1406639,78.8431922 9.1406639,77.0703055 C9.1406639,75.3151477 4.71071117,62.5469812 4.62211212,61.1958146 L4.62076519,61.1583879 C4.62076519,60.0288611 -1.16652277,54.8365017 -1.16652277,53.1875104 C-1.16652277,51.5385191 -2.33304553,51.6385642 -1.16652277,45.8277744 L-0.827614814,44.1207341 C0.413748585,37.9339543 2.84343602,27.6895419 12.1073949,23.2380361 C22.2875695,18.3462714 42.075265,12.4075623 51.6094264,12.4075623 Z" id="âœ‹-Skin" fill="#D08B5B"></path>
                    <path d="M51.6078286,12.4696673 C61.0466483,12.4696673 72.3715247,17.0569346 73.3343951,17.1486799 L73.3603886,17.1500747 C73.8669793,17.1500747 75.8464424,18.6619097 79.2987778,21.6855799 L78.4594664,23.3254734 C59.8754141,23.6913608 47.0843464,25.205558 40.0862634,27.868065 C31.9732764,30.954751 26.880313,42.68156 24.8073731,63.0484922 C21.9728087,64.3942727 19.1382443,66.1655884 16.30368,68.3624394 C13.4691156,70.5592905 12.7516064,71.6939683 14.1511525,71.766473 C14.0292208,76.4744008 14.4050083,79.7621109 15.2785149,81.6296032 C16.1520214,83.4970955 19.1754994,84.5961052 24.3489486,84.926632 L24.3489486,84.926632 L25.6632504,89.3389913 L25.4810326,91.3837009 C24.4696801,90.9279626 23.4046598,90.7206513 22.2859717,90.7617671 C22.1912023,90.6418861 22.0971974,90.5223562 22.0039571,90.4031774 L21.6646957,90.3549969 C18.4734539,89.8916563 16.1868537,89.2680055 14.8049818,88.4842526 C12.1057971,86.9533627 9.13906609,78.9052972 9.13906609,77.1324105 C9.13906609,75.3772527 4.70911335,62.6090862 4.6205143,61.2579196 L4.61916737,61.2204929 C4.61916737,60.0909661 -1.16812058,54.8986068 -1.16812058,53.2496154 C-1.16812058,51.6006241 -2.33464335,51.7006692 -1.16812058,45.8898794 L-0.829212632,44.1828391 C0.412150766,37.9960593 2.8418382,27.7516469 12.1057971,23.3001411 C22.2859717,18.4083764 42.0736672,12.4696673 51.6078286,12.4696673 Z" id="ðŸ§¢-Hat" fill="#9DDADB"></path>
                    <path d="M10.5360139,23.008227 C15.6131827,17.6057331 44.437113,9.24935967 59.0199394,11.0207121 L59.457445,11.0775029 C60.6211819,11.2254481 61.768053,11.4494795 62.8999557,11.7538239 C66.5585589,12.6104266 70.3377521,13.9074834 73.3607273,16.0740352 C75.8844762,17.8464188 83.8457433,20.7408611 81.4992956,25.3774638 C82.3693576,27.0300117 82.6940233,29.0716556 82.1060411,30.6992642 C82.0320426,31.261456 81.8591686,31.7792642 81.6380164,32.3160939 C83.4968331,35.0659726 84.9685807,38.1757808 86.1599352,41.1336282 C88.2418014,48.5775969 89.537302,56.3244305 89.7270417,63.9193033 C90.3582424,78.3486106 88.7800297,95.5844384 76.2441383,104.915131 C68.6712051,110.827656 56.8086788,111.026325 48.2984314,103.695429 C47.8154384,103.122458 45.5442542,101.576219 46.3021589,101.305057 C46.5277383,101.543883 46.7596424,101.776368 46.9957629,102.004626 C46.985011,101.979264 46.9829028,101.953902 46.98733,101.926427 L46.7652446,101.724804 C46.3470322,101.336936 45.8052379,100.774384 46.4223274,100.88447 C46.4495234,100.916172 46.4792493,100.943648 46.5085535,100.97535 C46.6392499,101.053946 46.737987,101.122085 46.8148124,101.18216 L46.8543311,101.213866 L46.8421218,101.201134 C46.4866571,100.82114 46.2735487,100.433564 46.8050272,100.681094 L46.8753836,100.715389 C47.111715,100.964783 47.3518411,101.203609 47.5963945,101.436094 C47.5923889,101.408618 47.5963945,101.381143 47.6113629,101.351554 L47.3833484,101.13073 C47.1607706,100.912076 47.1947416,100.911143 47.3035629,100.734411 C46.8304786,100.069714 47.7136115,100.464517 47.7755931,100.723843 C48.3281573,100.592806 48.8132585,101.63265 49.1691258,101.75946 C64.7697351,113.783178 87.4092658,103.114427 87.0426465,69.6101213 L87.0370483,68.9545949 C86.929824,58.2413582 86.0305159,47.2301458 81.6103988,37.5322192 C81.1805329,36.5980509 80.6996482,35.6892446 80.1706961,34.8100274 C79.8059742,34.1506145 79.4159537,33.5081096 78.9964181,32.8825127 C77.8219294,32.7874051 76.6624089,32.5718278 75.5199651,32.2378943 C75.1276256,32.1385597 74.7397133,32.0286575 74.3520118,31.8997339 C68.6851193,32.2095734 63.1445091,32.5466771 57.461805,32.8662387 L55.6867843,32.9770686 C50.8728566,33.2873268 45.8943366,33.7842578 42.0096143,36.7692446 C38.1979545,39.4867867 38.1806671,44.8455734 34.9177767,47.8292055 C30.2649375,50.9950215 30.2309951,53.8497299 29.3350021,58.5150763 C29.401411,62.0319452 31.833874,67.1417613 27.370142,68.6218474 C28.1231979,69.6982544 27.0735156,69.1810802 26.9908735,68.8036086 C26.9824406,68.8057221 26.9740077,68.8078356 26.9676831,68.8078356 C27.6387291,70.0583953 26.6522935,69.2709041 26.5650132,68.8691272 C26.5123078,68.8543327 26.4596023,68.8162896 26.4068968,68.7634521 C27.0830026,69.859092 25.9901019,69.0918904 26.0548243,68.8923757 C24.748361,66.8792642 22.0595386,66.5666771 20.1642497,67.1001252 C20.1410593,67.1719843 20.0569414,67.1783249 20.0042359,67.1402818 C11.9451474,68.8911076 14.0244837,85.6165245 22.2832206,83.9996947 C22.6367689,83.9274129 22.628336,84.0975499 22.6985397,84.1138239 C22.5077459,83.6116556 23.0455525,83.8160313 23.0398604,83.9214951 L23.07263,83.9199 C23.0985964,83.9176047 23.0879746,83.9147554 23.1073234,83.9214951 C22.9228542,82.894544 23.9609412,84.3824501 23.8789315,84.4435303 C23.9107656,84.4245088 23.9466053,84.4139413 23.9782286,84.4097143 L23.9424941,84.3122287 C23.7702123,83.8521113 23.7849816,84.0433546 23.7861699,83.7798904 C23.6567252,83.4541996 23.6472382,83.5966497 23.6775966,83.384454 C24.1325502,83.0310763 24.2668438,84.103045 24.4186355,84.181456 C24.1584813,83.8179335 24.3652976,83.5209863 24.6106943,83.7183875 C26.4707759,87.6406262 28.873513,91.3259413 31.9787086,94.2290489 C32.3183427,94.4974638 32.6619824,94.7616517 33.0180606,95.011045 C34.3388597,96.1643836 36.3648581,96.9060117 37.6013285,97.9276791 C37.6013285,97.9445871 37.5931065,97.9657221 37.5804572,97.9868571 L37.60876,98.0124834 L37.60876,98.0124834 L37.6373791,98.0396947 L38.0674557,98.246818 C38.1939489,98.3546067 38.3077927,98.4750763 38.4087764,98.608227 C38.5165064,98.7329237 38.6111654,98.8703014 38.6914885,99.0161331 C38.7315447,99.1936673 38.6429995,99.2676399 38.474342,99.1915538 C38.4003435,99.1661918 38.3267667,99.1366027 38.252979,99.1091272 C38.2571954,99.1154677 38.2590928,99.1196947 38.2635201,99.1239217 C38.2877119,99.1606061 38.4514786,99.5412065 38.2627725,99.4792782 L38.2403297,99.4705362 C38.1368161,99.4324932 38.0337242,99.3902231 37.9325297,99.3500665 C38.0526982,99.5001252 38.1621148,99.662865 38.2590928,99.8002427 C38.3626064,99.9080313 38.4256421,100.034841 38.4511516,100.17856 C38.4467243,100.258873 38.4026626,100.292689 38.3225502,100.282121 C38.2002735,100.241965 38.0801051,100.199695 37.9597258,100.155311 L37.9939601,100.220782 C38.0790112,100.388494 38.1998859,100.669779 37.9852352,100.575898 C37.8016093,100.518834 37.6247298,100.453315 37.4476394,100.381456 C37.432671,100.411045 37.4033668,100.421613 37.3443366,100.394137 C36.7814422,100.193354 36.2375217,99.9481879 35.7167916,99.658638 C35.2593081,99.3247045 34.7973974,98.9971115 34.3380164,98.6652916 C33.9056207,98.4053307 33.4881934,98.1157808 33.0899508,97.7903014 C30.4238972,96.0639922 28.089888,93.8710215 26.2382393,91.4286575 C23.1414765,94.1172446 16.9498483,91.5487045 13.119847,89.4440783 C9.73214998,87.5630607 8.4005989,84.0850802 8.05632675,80.3353033 C7.34058642,75.2869902 3.22534306,73.5589902 3.5116392,62.4821213 C3.50531454,62.4842348 3.49877906,62.4842348 3.49034618,62.4842348 C3.34066264,62.4398513 3.19540636,62.3806732 3.05837213,62.3045871 C2.91712146,62.236955 2.78430366,62.1566419 2.65970792,62.0594207 L2.50580794,61.8459569 L2.50580794,61.8459569 C2.42590644,61.8015734 2.354227,61.7550763 2.29941331,61.7085793 L2.27098664,61.7453318 C2.18100168,61.8541923 2.24148999,61.6904031 2.24670784,61.6578552 L1.97935479,61.2933606 C1.34544095,60.4256995 0.649969168,59.4521507 0.0834643876,58.673589 L0.0656201275,58.7052238 C0.0528048608,58.7291008 0.0460284428,58.7463539 0.0520519255,58.7539022 C-1.29615408,56.8120157 -2.56403695,54.4664501 -2.91632033,52.1957025 C-3.33227193,50.4465675 -3.16972825,48.6441722 -2.80690377,47.0239609 C-1.25124902,41.3502622 3.84473779,28.5111546 10.5360139,23.008227 Z M47.1236866,101.472664 L47.0392029,101.397234 L47.1134875,101.49054 C47.1524152,101.53876 47.1922679,101.582099 47.2571821,101.626309 C47.2529656,101.611515 47.2529656,101.59672 47.254863,101.579812 C47.2118128,101.546867 47.1677947,101.510839 47.1236866,101.472664 Z M58.9554781,13.8715538 C49.0662447,13.0191781 39.339555,15.203272 29.9027455,17.8470528 L29.2517547,18.0346301 C23.8858856,19.569572 18.2120417,20.9507731 13.6774709,24.2361722 C7.34206218,29.1008219 4.07052804,36.8396243 1.21557796,43.9847436 C-1.27739093,49.2934403 -0.0029725887,55.2795147 3.75387355,58.9863875 C4.14473734,55.3027632 4.81114535,51.7269276 5.8526055,48.1798356 C6.06996287,47.6256751 5.9055218,47.4441252 6.37396804,47.3718434 C7.08148632,56.9307945 3.59681124,63.9932759 10.4927954,75.3220744 C13.4849905,80.667546 10.0211868,84.5787945 18.4709283,87.3916556 L18.6995943,87.4792497 C20.4599743,88.1451832 22.3824299,88.6708356 24.1066191,88.2985597 L23.9521485,88.0466646 C23.794611,87.7872612 23.7468055,87.6613386 23.9759096,87.5503796 C23.9697957,87.5376986 23.9613629,87.5250176 23.9527192,87.5102231 C23.7674067,87.1593816 23.5882081,86.8043131 23.4172315,86.4450176 C23.3478711,86.4682661 23.2782999,86.4851742 23.2064097,86.5041957 C23.2530013,86.5908493 23.2591151,86.6775029 23.1286164,86.707092 C22.6640493,86.8668728 22.186994,86.9309166 21.6986504,86.9009418 L21.593833,86.8930802 C21.0421121,86.8592642 20.6944668,86.7584501 20.3835045,86.6648219 C20.2804126,86.6479139 20.1771099,86.6310059 20.0757045,86.6098708 C19.0753547,86.3875303 18.0163963,85.8219569 17.3310143,85.261456 C9.51837658,80.812955 10.3258244,65.6699178 19.9557469,64.2384423 C20.153287,54.7040078 24.6768924,38.6185597 32.18426,29.5332446 C38.9701951,21.1762427 57.4959581,17.5541213 70.3847654,18.8313112 C70.5726077,18.8936595 70.76045,18.9566419 70.9482923,19.0202583 C72.9367644,19.1973699 74.8318424,20.0854638 76.8217903,20.4980196 C75.3930503,19.4245714 73.7722516,18.7095734 72.102753,18.1019413 C68.7764052,16.0621996 64.9630588,14.9585284 61.2789462,14.1801252 C60.5157709,13.9920235 59.7420546,13.8884618 58.9554781,13.8715538 Z M19.5149815,71.8977558 C20.0327601,71.6158145 19.9735192,71.8880337 20.0926335,71.8089886 C23.8170131,71.5044329 27.8329594,74.7733879 29.9148255,77.4985386 C29.7503845,77.6697323 29.3055503,77.1624916 29.2275462,77.0821785 C29.2170051,77.092746 29.2043558,77.1012 29.1917065,77.105427 L29.2496769,77.1874494 C30.0934781,78.4013886 28.4207352,76.9729193 28.2640901,76.6784994 C28.2366833,76.6932939 28.2092764,76.7017479 28.1776531,76.6954074 C28.3102601,76.8258106 28.715249,77.1658732 28.7848202,77.4076579 L28.8921906,77.4972352 C29.9046425,78.3664083 29.820616,79.0202421 28.6711872,77.785975 C28.6983832,77.8430395 28.7089243,77.8958771 28.6899503,77.9381472 L28.729528,77.9645876 C29.2947513,78.3605602 29.7595936,79.4643749 28.5782147,78.3312587 C28.7011239,79.1589065 27.4075208,77.5591961 27.3659889,77.5703977 C25.127482,75.808793 21.8317033,74.0955875 19.0237665,73.865427 L18.9271237,73.8542957 C18.4118642,73.7879265 18.1682513,73.6346627 18.3491365,73.2968947 C17.7145626,73.1455679 17.863192,72.8323468 18.1636132,72.8424916 C17.7160383,72.5474466 18.118919,72.2652939 18.3786515,72.3754074 C18.2000854,71.879791 18.9162474,72.2099202 18.9816022,72.1408086 C19.3532812,71.5661472 19.4534216,72.0454896 19.5149815,71.8977558 Z M11.7082679,41.1779906 C13.4970917,40.5211139 18.7809208,42.487517 18.3582229,45.0917753 C18.1065016,45.6896853 17.2771282,46.0322841 16.6942057,45.6947577 L15.9333857,45.1824955 C14.6093605,44.2935638 13.4152373,43.5140899 11.9937208,42.7388125 C11.2200044,42.3539436 10.8869058,41.5368634 11.7082679,41.1779906 Z M21.8856737,37.3079131 L21.1948232,36.8572074 C17.4666623,34.4111231 12.1962784,30.7047213 21.5430882,34.5394356 C22.6083712,34.9974317 24.0238294,35.2683828 24.6050653,36.2854004 C25.518135,38.1598661 23.115187,38.2858309 21.8856737,37.3079131 Z M22.304619,26.3327037 C22.0054627,25.1945824 25.7279449,26.5301049 26.8115694,26.8822145 L26.9766201,26.944708 C28.030733,27.3384701 29.2390571,27.7037542 29.869541,28.6157096 C30.6082609,29.87578 29.1131121,30.1367977 28.1869715,29.5676313 C26.2880987,28.3236235 24.2062325,27.3850168 22.304619,26.3327037 Z M31.7705853,21.0310027 C29.6753087,18.7371398 35.2828628,20.9345822 36.1228443,21.5445568 L36.1468261,21.5625487 C36.7735996,22.0049049 36.646474,22.957672 36.0576485,23.2374998 C34.3822469,23.2694137 33.1493604,21.8694294 31.7705853,21.0310027 Z M41.3052162,18.5177941 C37.9742303,16.1179115 42.3620664,17.2594145 43.8860978,18.1999233 C44.9248173,19.1182403 43.8548962,20.6684947 41.3052162,18.5177941 Z" id="ðŸ–-Ink" fill="#000000"></path>
                </g>
                <g id="face/Tired" transform="translate(112.183099, 77.354207)" fill="#000000" fill-rule="evenodd">
                    <path d="M39.9421268,48.4226982 C41.277338,48.1113793 42.3260704,49.242526 42.0636761,50.5450779 C41.7858592,51.9239272 40.3038169,52.3965065 39.0611408,52.3531796 C37.6521972,52.3043577 36.2443099,52.0133284 34.8283944,51.9547843 C33.3738169,51.8947609 31.9137465,51.8837706 30.4583239,51.9230818 C29.1121268,51.9594341 27.7304366,52.1967804 26.3948028,51.9837393 C25.874662,51.9006787 25.9238873,51.2137902 26.262338,50.9696806 C27.2671268,50.2447491 28.5693803,49.9492814 29.7537465,49.6451483 C30.9613521,49.3348861 32.1957887,49.0973284 33.4342394,48.9523421 C34.6898028,48.8054536 35.9557183,48.7321151 37.2195211,48.7177432 C37.7948028,48.7111914 38.5002254,48.8390583 39.0611408,48.7354967 C39.3469859,48.6824477 39.6381127,48.4937119 39.9421268,48.4226982 Z M36.0875289,30.5120405 C37.6828906,31.482148 40.1137318,33.7442494 38.3974899,36.149264 C36.3773089,38.2698449 33.4687045,35.8384541 32.0353946,34.7388307 C30.7063626,33.8866164 29.2131206,36.0784478 30.4461973,37.0735516 C40.8033244,44.7445605 45.006466,30.7657101 36.8944406,29.3714319 C36.0012775,29.2177885 35.6695544,30.2119271 36.0875289,30.5120405 Z M24.5195704,23.2678708 C26.6535845,22.9128023 27.0268944,25.9562466 24.9118944,26.168865 C24.4680211,26.2134599 24.0266831,26.2523483 23.5861901,26.2910254 C23.6290775,26.4288258 23.6575986,26.5706419 23.6732324,26.7164736 C23.6933028,26.8403249 23.7083028,26.9717847 23.7216127,27.1220548 C23.7885845,27.8708689 23.2578803,28.6494834 22.6378099,29.0125832 C21.9934437,29.3898434 21.0685141,29.4401448 20.4285845,29.0125832 C20.0985845,28.7919335 19.769007,28.5431742 19.5871056,28.1783836 C19.3430915,27.8036595 19.209993,27.3699687 19.1964718,26.924865 C18.2235845,27.1776399 17.2329507,27.5193933 16.2503451,27.7005205 C16.2864718,27.7360274 16.3219648,27.7738591 16.3564014,27.8154951 C16.3825986,27.847409 16.3466831,27.9072211 16.3084437,27.8778434 L15.8155563,27.7685753 L15.8155563,27.7685753 C15.6638662,27.7884423 15.5121761,27.8047162 15.3609085,27.814227 L15.3645,27.8009119 L15.3645,27.8009119 C15.1116127,27.7964736 14.9045704,27.4974129 15.130838,27.2581644 C15.9989644,26.3402144 17.353571,25.730161 18.5885778,25.2200846 L19.778498,24.7320764 C21.3000321,24.1134321 22.906201,23.5363182 24.5195704,23.2678708 Z M41.6872394,24.2093941 C43.0849859,24.0498247 44.469,24.1132297 45.8690704,24.1986153 C48.225338,24.3421221 47.2370282,27.7795233 45.3457606,26.9859029 C45.3651972,27.1116564 45.3702676,27.2376211 45.3556901,27.3549205 C45.2817465,27.959171 45.0848451,28.4697933 44.5304789,28.7944274 C44.0156197,29.0958129 43.3630141,29.0949675 42.8481549,28.7944274 C42.2967465,28.4727523 42.0480845,28.0194059 41.9073803,27.4303726 C41.7983662,26.9736446 41.8420986,26.5915233 41.9050563,26.1392337 C41.9259718,25.9893863 41.9912535,25.8496838 42.0816761,25.7241417 C41.9498451,25.691171 41.8178028,25.6592571 41.6855493,25.6294568 C40.5096338,25.3618873 39.3495634,25.4155703 38.1770282,25.2460673 C38.0519577,25.2278912 38.0320986,25.0258403 38.1415352,24.9744822 C39.1951268,24.4792885 40.5345634,24.340854 41.6872394,24.2093941 Z M24.3041197,13.5930787 C25.1107394,13.2851413 26.1239789,13.7972431 26.5357394,14.5016719 C27.0030634,15.3010004 26.8034155,16.2237558 26.2266549,16.8973292 C25.3419051,17.9305929 23.6569785,18.5671183 22.4151509,19.1567194 L22.3154577,19.204429 C21.0402465,19.819881 19.7301761,20.3850317 18.4023592,20.8774779 C17.0965141,21.3621041 15.7380634,21.7416892 14.3842606,22.0675914 C13.6703873,22.2394192 12.9413028,22.3814466 12.2117958,22.4710591 C11.6358803,22.5416501 11.1917958,22.3835601 10.6408099,22.3835601 C10.5603169,22.3837714 10.5351761,22.2770395 10.6008803,22.2360376 C11.1157394,21.9122489 11.4979225,21.4859554 12.0594718,21.1860493 C12.6442606,20.8738849 13.231162,20.5670043 13.8201761,20.2630826 C15.0110915,19.6488986 16.1578521,18.9653918 17.3067254,18.2774466 C18.5177113,17.5523037 19.7012324,16.7886951 20.8522183,15.9711922 C21.9784859,15.1712313 23.0164437,14.0844681 24.3041197,13.5930787 Z M38.6780915,12.9353777 C39.6854155,12.7398787 40.6830211,13.2166849 40.9811197,14.243636 C41.2669648,15.2274716 40.9680211,15.4383992 41.7304859,16.142407 C42.3382866,16.7034608 42.9935912,17.2042359 43.654954,17.6973536 L44.6283687,18.4212746 C46.3914775,19.7268939 48.169162,20.9613487 50.1964014,21.8423131 C50.3677394,21.9167084 50.2686549,22.1713855 50.1061901,22.1747671 C46.8835141,22.2369041 43.7933028,21.8004658 40.8843592,20.3571546 C39.5254859,19.6829472 38.1602746,18.8301487 37.3728803,17.4842701 C36.460838,15.925773 36.4874577,13.3601918 38.6780915,12.9353777 Z" id="ðŸ–-Ink"></path>
                </g>
                <g id="facial-hair/*-None" transform="translate(104.577451, 109.479380)"></g>
                <g id="mask/respirator" transform="translate(83.450704, 97.432485)" fill-rule="evenodd">
                    <path d="M72.7465858,5.73080548 C70.8799759,3.79272329 69.0062223,1.82653151 66.617874,0.487204697 C66.7230089,-0.0868227006 66.4910995,-0.746446967 65.809205,-1.02120235 C59.1982814,-3.49400078 54.9956515,3.623009 50.2078476,6.80277417 C49.0890218,7.4042771 47.9669885,8.09814012 46.7177048,8.33316164 C44.0613665,9.10902857 41.807368,10.7155022 40.2057185,12.8262575 C39.3402241,13.6579209 37.8144673,15.045647 37.3906794,16.176371 C37.1312649,16.6379601 13.8808416,5.57208141 8.58938101,4.3407546 C6.08357809,3.50232798 4.73441193,5.87210234 7.91043851,7.08830841 C16.2562957,10.2842144 32.5970617,17.4380106 36.24531,19.4994317 C35.5442643,21.6634474 35.3348884,24.5316822 36.0176154,26.6718153 C35.4438043,30.0029072 36.5577525,33.0545941 38.7595869,35.4462341 C39.2261065,36.1253025 39.9393323,36.6147898 40.4035248,37.2040344 C42.0896775,41.6132243 46.1359081,43.7458522 50.8708617,45.8533339 C58.4051498,49.206772 64.9729687,49.8786693 69.1018187,48.409827 C79.8201262,44.3163945 86.0409768,32.288238 84.0367328,21.3288798 C82.1516704,13.608465 82.5407497,6.83616751 72.7465858,5.73080548 Z" id="ðŸŽ¨-Color" fill="#9DDADB"></path>
                    <path d="M49.4950249,5.68050411 C55.9422703,2.08036321 57.0310605,-5.25729628 66.3815388,-1.52717495 C69.3029877,-0.346572211 70.3291345,1.40108337 72.2781284,3.58412055 C73.2874884,4.50180352 74.5581607,4.95810881 75.8120342,5.44675068 C80.5811538,7.03060978 83.3777184,11.5304689 84.4444974,16.2573182 C87.2351841,26.0689149 84.3132908,37.5629092 77.1811398,44.7028362 C77.2815898,44.883735 77.262022,45.1443711 77.0442953,45.2645542 C76.6436442,45.485635 76.2453954,45.7121501 75.8486132,45.9420712 C73.3539843,48.0979423 68.2927505,50.9328555 64.5409521,50.9328555 C56.1754182,50.9328555 48.0941698,47.5377523 43.1557016,43.1801753 C36.8349104,38.0802928 32.8486027,27.4394395 34.8994913,19.7811616 C23.1461999,14.2455085 12.258666,10.0415335 7.70776249,8.21812402 C6.58475357,7.0397531 6.57453137,6.60636511 7.67709587,6.91796008 C18.3622492,9.93768359 39.4023911,19.7589699 39.6555308,19.769326 C39.8056414,19.7754552 40.3574295,18.5692791 40.4660844,18.0510481 C39.9740016,17.9971961 10.9519656,5.47286707 7.33751104,4.31089805 L7.14628209,4.24987397 C5.42724811,3.70670372 5.85672789,3.28400313 7.17778792,3.36093464 C9.85641561,3.51733386 32.5661839,14.0628681 36.9854422,15.1196196 C38.9597686,10.6812634 44.5681129,8.37733386 49.4950249,5.68050411 Z M63.5729053,-0.611605479 C59.9837174,-1.66835695 57.3450521,0.938014873 55.4251729,3.66971742 C50.8964926,9.28751601 42.6358355,9.46508063 39.2246642,16.1399144 L39.1227886,16.3441832 L40.4730936,16.7499757 L40.5099771,16.6889468 C40.6163662,16.5232894 40.9333652,16.1025521 41.2020853,16.4855765 C42.5984194,17.9868505 40.4122783,22.9710508 39.2643071,20.775818 L39.2298426,20.7070873 L37.3548747,20.1907585 C33.9681254,33.9212601 46.891587,46.2838127 59.8944121,48.3774968 C59.8944121,48.3774968 65.3192355,48.4643514 67.4934606,47.9391076 C69.0965824,47.5519139 70.4814938,46.8028885 71.9613819,46.0595695 C73.4319497,45.3207996 74.6466662,44.1771719 76.0713228,43.3957553 C80.141325,39.3584145 82.8176149,33.8158054 83.5454835,28.0665159 C84.2581121,21.1724806 83.5908407,12.3948916 77.6104852,8.02289941 C75.6414994,6.77381918 73.2142669,6.43819491 71.4145015,4.89364697 C69.2664738,2.51891507 66.7523453,0.104026614 63.5729053,-0.611605479 Z M57.1180843,31.6412947 C57.0578079,31.5423828 57.1969022,31.4474865 57.2757608,31.5212477 C58.5343536,32.6999483 59.7507498,33.9266254 60.9259853,35.1896548 C60.9879984,35.1699992 61.0584483,35.151189 61.1492354,35.1289973 C61.5808047,35.0235089 61.9538499,35.4745313 61.7450794,35.8719284 L61.6953994,35.960969 C61.381361,36.4957177 60.6594023,36.9664575 60.2296378,36.3218583 C59.1355225,34.8020384 58.0947107,33.239737 57.1180843,31.6412947 Z M41.564016,34.4676611 L41.5628462,34.421226 C41.5388335,33.9620003 41.1657948,32.8037002 41.9241408,32.9812344 C42.8015968,33.4918568 43.126356,34.8267452 43.1756385,35.7748626 C43.2297382,36.8155515 41.5047342,36.8286552 41.5493005,35.7748626 C41.5678757,35.3386356 41.6022822,34.903254 41.564016,34.4676611 Z M77.9982237,31.2650278 C78.1200811,31.2419906 78.1851797,31.3945855 78.0792486,31.4641198 C76.6885208,32.2456932 76.8050293,33.8213096 76.5806391,35.134429 C74.9837091,36.1992117 75.1461231,31.6372157 77.9982237,31.2650278 Z M38.0930752,25.6900932 C51.4853169,27.0410442 65.8916532,31.0404258 79.588393,26.9738348 C80.418362,26.7485354 80.7475496,28.0324885 79.9201713,28.2544063 C66.1139979,31.7550012 51.4540569,29.6639014 38.0930752,25.6900932 Z M74.4140223,20.1560548 C74.8284226,20.0596791 75.2190258,22.106184 75.8586138,22.4870372 C76.1764096,23.1270059 78.6977159,23.6904658 77.6352458,24.4752094 C75.8220482,24.8541605 73.8334839,21.7876791 74.4140223,20.1560548 Z M62.6493371,20.6405542 C62.9604237,20.634425 63.1734753,20.8730395 63.2752845,21.1444133 C63.553106,21.9414153 62.3638514,21.8146051 61.9209056,22.0796384 C60.0470912,23.3705659 57.8830854,24.4116775 55.580532,24.4599654 C55.4366113,24.4628243 55.4353032,24.2723977 55.5528911,24.2263233 L55.954408,24.0690469 C57.2210587,23.5704942 58.4415972,23.059559 59.6067185,22.3216344 C60.5499046,21.7247812 61.4573802,20.6139241 62.6493371,20.6405542 Z M55.5739714,6.61177691 C55.2571763,4.32919374 62.4654536,-1.43411742 64.674748,1.04354207 C65.2458884,1.68139726 64.4965967,2.62845793 63.7430705,2.22583562 C60.663602,1.41763209 57.7182901,4.77577691 55.5739714,6.61177691 Z" id="ðŸ–-Ink" fill="#000000"></path>
                </g>
                <g id="accessories/*-None" transform="translate(88.521127, 88.978474)"></g>
            </g>
        </g>
    </g>
</svg>