<?xml version="1.0" encoding="UTF-8"?>
<svg width="173px" height="239px" viewBox="0 0 173 239" version="1.1" xmlns="http://www.w3.org/2000/svg" xmlns:xlink="http://www.w3.org/1999/xlink">
    <!-- Generator: Sketch 62 (91390) - https://sketch.com -->
    <title>bust-mask-8</title>
    <desc>Created with Sketch.</desc>
    <g id="Introduction" stroke="none" stroke-width="1" fill="none" fill-rule="evenodd">
        <g id="busts-covid-19" transform="translate(-384.000000, -240.000000)">
            <g id="a-person/bust" transform="translate(353.000000, 188.000000)">
                <g id="body/Hoodie" transform="translate(31.056338, 135.052838)">
                    <path d="M167.059413,151.230284 C171.142371,151.033095 169.500188,143.888398 169.20716,141.264484 C165.974554,131.681016 166.734484,121.225095 165.463075,111.180038 C164.671033,101.802848 163.653357,92.4548246 162.7973,83.0848207 C161.116033,64.0645623 149.042726,25.3443735 135.264843,19.1172238 C133.529279,11.4988911 126.360778,4.38732824 117.291074,4.38732824 C111.105158,-2.93786159 103.659484,-8.09317543 94.109554,-7.05227523 C90.1630751,-6.87262748 86.3357934,-2.68535547 82.5543146,-1.87672925 C80.4369906,-1.58464314 61.6468075,-2.33641613 57.8828639,-0.100118678 C55.2610329,1.24660539 52.8942019,3.7352551 53.6651174,6.90360735 C54.8951174,10.7421514 51.0726526,6.58869541 43.0987794,10.6857209 C26.8389476,20.4549986 36.5551447,33.5241569 36.9857081,33.929104 C26.8389476,48.0521647 17.9701878,59.5099635 13.8667371,76.7724214 C11.2073005,89.5884919 11.5066667,102.818809 9.27842725,115.700609 C8.49166668,120.167286 7.28469485,124.481157 5.97863851,128.818699 C4.56314556,134.495357 3.87486949,148.643921 3.09465822,148.770309 C1.67346104,149.123475 3.91603288,152.042715 5.42194837,152.04504 C47.1734977,158.973314 89.5829343,152.332054 131.55885,151.246981 C143.388357,150.835482 155.23054,150.740586 167.059413,151.230284 Z" id="âœ‹-Skin" fill="#D08B5B"></path>
                    <path d="M82.6067969,10.5594699 C82.6067969,15.0045652 98.0356982,31.5220166 103.360362,30.432332 C106.910139,29.7058756 112.273514,24.9681923 119.45049,16.2192821 L119.45049,10.5594699 L117.900457,4.39805742 C126.680665,4.70766103 133.568336,11.6703335 135.264843,19.1172238 C148.904947,25.282102 160.874396,63.2934079 162.743754,82.5083551 L162.7973,83.0848207 C163.653357,92.4548246 164.671033,101.802848 165.463075,111.180038 C166.734484,121.225095 165.974554,131.681016 169.20716,141.264484 L169.226304,141.427252 C169.563585,144.171407 171.060712,151.037038 167.059413,151.230284 C155.23054,150.740586 143.388357,150.835482 131.55885,151.246981 C89.5829343,152.332054 47.1734977,158.973314 5.42194837,152.04504 C3.91603288,152.042715 1.67346104,149.123475 3.09465822,148.770309 C3.87486949,148.643921 4.56314556,134.495357 5.97863851,128.818699 L6.24733792,127.921557 C7.4491751,123.885414 8.54592603,119.85924 9.27842725,115.700609 C11.5066667,102.818809 11.2073005,89.5884919 13.8667371,76.7724214 C17.9701878,59.5099635 26.8389476,48.0521647 36.9857081,33.929104 C36.5551447,33.5241569 26.8389476,20.4549986 43.0987794,10.6857209 C51.0726526,6.58869541 54.8951174,10.7421514 53.6651174,6.90360735 C52.8942019,3.7352551 55.2610329,1.24660539 57.8828639,-0.100118678 C61.6468075,-2.33641613 80.4369906,-1.58464314 82.5543146,-1.87672925 C83.5379128,-2.08706054 84.5246099,-2.52598055 85.5156975,-3.06350423 L85.3437784,-2.49080773 C83.5190908,3.62692026 82.6067969,7.97705883 82.6067969,10.5594699 Z" id="ðŸ§¥-Jacket" fill="#9FD8E5"></path>
                    <path d="M103.778702,35.1756825 C103.798139,34.9844105 104.055885,34.9848332 104.075744,35.1756825 L104.370515,38.0223912 C104.729165,41.4991194 105.074436,44.9690814 105.324758,48.4620073 C105.6368,52.8177255 105.845533,57.172387 105.946096,61.5378273 C106.2968,76.7417334 106.366519,91.9536708 106.396096,107.161381 C108.451941,107.018931 110.507998,106.881765 112.56511,106.749037 C113.960744,106.658861 115.356472,106.572348 116.752356,106.487244 L120.31166,106.271332 L120.31166,106.271332 L121.777012,106.18135 C122.767223,106.120058 123.892223,105.870665 124.584547,106.748191 C124.86173,107.099455 125.000744,107.555972 124.742364,107.972966 C124.146378,108.934821 123.230955,108.901217 122.195533,108.942853 C121.218631,108.982375 120.24173,109.021052 119.264829,109.058673 C117.171378,109.140043 115.078139,109.216763 112.984054,109.275518 C110.786448,109.337232 108.589899,109.387322 106.393139,109.424731 C106.370909,115.844818 106.105383,122.256914 105.818263,128.669914 L105.68835,131.555855 C105.337012,139.360176 104.959054,147.17126 104.422223,154.965225 C104.378068,155.603291 103.475744,155.602023 103.432012,154.965225 C102.827364,146.188058 102.428491,137.392082 102.032998,128.60308 C101.746096,122.230657 101.579195,115.856544 101.499758,109.481585 C101.209265,109.483487 100.918984,109.487502 100.628702,109.488559 C92.383561,109.524489 84.1405329,109.560418 75.895392,109.483064 C75.9091244,109.499338 75.9226456,109.515612 75.9317301,109.53717 C76.5283498,110.946242 76.5851808,112.74441 76.5706033,114.256622 C76.5539132,115.990962 76.3204625,117.704168 75.9211667,119.390743 C74.4905897,125.43288 70.8006635,130.8446 66.5980362,135.318791 L66.4608146,135.464356 C65.469547,136.51223 64.3322934,137.564966 63.7236315,138.899643 C63.10191,140.26243 62.8861099,141.856479 62.5793214,143.320756 L62.5434906,143.489115 L61.3439132,149.031988 C60.9627864,150.792536 60.8546174,153.36023 59.4615188,154.630446 C58.1618005,155.815698 56.4399695,155.196653 55.8283498,153.670704 C55.3506737,152.479745 55.8264484,151.171698 56.1093357,149.981373 L58.3257713,140.660818 C58.6899642,139.140859 59.0879102,137.610924 59.8739132,136.245506 C60.679054,134.847001 61.8594061,133.833154 63.0638427,132.795847 C65.3444765,130.831557 67.4381385,128.58279 69.2087723,126.148035 C70.9787723,123.714125 72.4914484,121.031244 73.552223,118.21014 C74.0833498,116.797898 74.518561,115.330704 74.8187723,113.851675 C75.1041949,112.448097 75.1016596,110.99443 75.4069413,109.605859 C75.4278568,109.509906 75.5087723,109.444176 75.6015188,109.415009 C75.579547,109.353084 75.6131385,109.269389 75.6997582,109.263894 L82.4429012,108.83043 C88.4369355,108.443605 94.4307057,108.046881 100.419336,107.593592 L101.477575,107.517084 L101.477575,107.517084 C101.395392,99.0112911 101.46511,90.5038077 101.618702,81.9948449 C101.759406,74.1920034 101.762364,66.3870484 101.994336,58.5852637 C102.109688,54.713115 102.35835,50.8500543 102.63511,46.9859369 C102.918209,43.0341091 103.371378,39.1156747 103.778702,35.1756825 Z M40.4634695,80.4184042 C40.3916385,79.9851361 40.9364977,79.7167212 41.1876949,80.113003 C44.0590329,84.640549 45.4434695,89.558459 46.0269906,94.8567995 C46.5424836,99.5329248 46.3905822,104.276471 46.133892,108.964854 C45.8600892,113.965402 45.5406526,118.964682 45.2176244,123.962482 L44.7213304,131.626705 L44.7213304,131.626705 L43.4759343,150.840322 C43.3867794,152.214733 43.0749484,153.464447 41.892061,154.103359 C41.7422723,154.228479 41.5861456,154.340706 41.4042441,154.437927 C40.7651596,154.77968 39.917554,154.607007 39.548047,153.950976 L39.696203,154.048474 C39.8252554,154.129761 39.6803427,154.016241 39.2613568,153.708346 L38.9057934,153.248025 L38.9057934,153.248025 C38.6474132,152.859563 38.4824132,152.477653 38.4160751,152.015852 C38.3129765,151.298318 38.4464977,150.51125 38.4933991,149.790122 L39.3097371,137.191109 L39.3097371,137.191109 C39.9445963,127.396502 40.6859343,117.604643 41.2447371,107.804964 C41.5050188,103.237684 41.6873427,98.6659659 41.5639625,94.0906547 C41.4410047,89.5407056 41.2092441,84.9136136 40.4634695,80.4184042 Z M65.3030346,-3.92205701 L65.4623427,-3.94880752 C71.1655118,-4.89650224 77.367061,-4.71917934 82.5792441,-1.96887797 C82.6223427,-1.94626349 82.6026949,-1.87461574 82.5543146,-1.87672925 L80.8766622,-1.94375506 C75.5656205,-2.15181771 70.2710248,-2.27497358 65.048892,-1.02667837 L64.5142966,-0.897849079 C62.6336592,-0.43890401 60.6697463,0.122837503 59.1591737,1.36538426 C57.7153709,2.55317291 56.9964272,4.3853686 56.3051596,6.07215529 L56.2127071,6.29474925 C55.5113353,7.96068067 54.6235954,9.54063845 53.0862864,10.5823706 C51.0950892,11.9314195 48.7003709,11.7661436 46.4172019,11.9493843 C42.3972019,12.2725389 39.1105118,15.1870594 37.4753005,18.7535956 C36.4850892,20.9131729 36.0627653,23.3344019 35.9791033,25.69603 C35.936216,26.8984019 35.9300892,28.1476935 36.0902301,29.342034 C36.1413568,29.7239439 36.6133287,31.1152629 36.8539625,31.0818696 C37.3886808,31.0076856 37.877554,31.286668 38.0442441,31.7142297 C39.3650892,30.4376739 40.7239625,29.1978931 42.1265681,28.0027072 C45.6228357,25.0241475 49.3886808,22.3245702 53.3545963,20.0047893 C56.3814272,18.2340966 59.5741033,16.4798891 62.8802301,15.1536661 C62.6182582,15.148171 62.3598779,15.2001631 62.1099484,15.3301436 C62.0005118,15.3874195 61.8917089,15.2500418 61.9781174,15.1591612 C63.0194554,14.0630985 64.2667794,13.907122 65.5242441,14.1994195 C65.792554,14.114034 66.0610751,14.031396 66.3306526,13.952985 C66.4648075,13.9138852 66.5315681,14.0988167 66.4221315,14.1702531 L66.1132582,14.3676543 L66.1132582,14.3676543 C67.4850188,14.8273412 68.8318498,15.7308637 69.8981174,16.4439596 C72.9610751,18.4917326 75.657061,20.9951768 78.3900188,23.4517013 L78.8869241,23.897038 C81.2925345,26.0457939 83.7594259,28.1338534 86.492554,29.8577287 C87.9232582,30.7599831 89.4260047,31.5946054 91.0022723,32.2153412 C92.3541737,32.7481553 94.5553709,33.0835682 95.1885399,34.5129302 C95.7513568,35.1968598 95.516216,36.0697365 94.857061,36.5300574 C93.7453709,37.753987 91.5215681,36.9633255 90.1969202,36.4535486 C88.5999484,35.838942 87.0528357,35.1002727 85.5773427,34.2339479 C82.7127653,32.5515995 80.0714977,30.4598657 77.6110751,28.2347698 C75.0414272,25.9107619 72.617554,23.4419792 70.1182582,21.0450555 C69.0353608,20.0064801 67.9774534,18.9435262 66.8929152,17.9065036 L66.3481878,17.3903862 C65.7946667,16.8710985 65.0060047,16.0616269 64.1628357,15.5717169 C62.5743146,16.519623 60.9612864,17.4284293 59.3871315,18.400852 C57.1897371,19.7581436 55.0569906,21.2132903 52.9572019,22.7164136 C48.9148075,25.6100105 45.0841033,28.8508559 41.5278357,32.3246093 C35.0055822,38.6951299 29.4488216,45.969807 24.5945258,53.6726798 L24.2258943,54.2597048 C21.4674171,58.6685953 18.8587991,63.2196828 17.0091737,68.0914195 C14.9740329,73.4523197 13.9842441,79.0896661 13.4465681,84.7802727 C12.9129061,90.4300888 12.7329061,96.1084371 12.1364977,101.752969 C11.5248779,107.542065 10.3198075,113.203294 8.9491033,118.853956 L8.62219652,120.193627 C7.38192684,125.254298 6.10179268,130.314974 5.46424415,135.495044 C5.12389203,138.262042 4.91917372,141.066872 4.96544133,143.856273 C5.0119202,146.661948 5.45262443,149.405486 5.80818781,152.181572 C5.94445541,153.245087 4.89825823,154.132758 3.96213147,154.273729 C2.88551175,154.435412 1.96058217,153.748312 1.62593429,152.74778 C0.582694851,149.628883 0.393187809,146.181126 0.425934288,142.907521 C0.458892034,139.584038 0.882906119,136.282324 1.47952584,133.016116 C2.65290612,126.59149 4.46368077,120.299803 5.9784695,113.952108 C7.3134695,108.357243 8.20945541,102.752656 8.69241316,97.0210477 C9.19375119,91.0744958 9.49396246,85.108077 10.4085399,79.2044293 C11.3112864,73.3762336 13.0098779,67.8092668 15.5714977,62.4948637 C17.903892,57.6562101 20.8113568,53.1018226 23.8595258,48.687349 C27.5611456,43.3268715 31.6265681,38.2259322 36.1709343,33.5783392 C35.7627653,33.5605858 35.3436103,33.4287032 34.9586808,33.1886093 C33.7810751,32.4537443 33.2326244,31.016351 33.0640329,29.7038657 C32.669385,26.63358 32.7646667,23.4282414 33.5539625,20.4264332 C34.8272723,15.5839753 38.1319202,11.281306 42.9213568,9.5357639 C44.1541033,9.08643318 45.4645963,8.92242535 46.7710751,8.89008876 C48.0107934,8.85923162 49.3648075,9.02091459 50.5610047,8.62780304 C52.465022,8.00169381 53.2811506,5.75838487 53.996036,4.05787899 L54.0289625,3.97978739 C54.9456526,1.81281283 56.0459343,-0.044533551 58.0314272,-1.39759813 C60.1497371,-2.84146848 62.8038089,-3.49809889 65.3030346,-3.92205701 L65.3030346,-3.92205701 Z M119.49266,4.64775999 C121.206462,4.05302027 123.349139,4.59280891 125.025124,5.11230794 C126.892308,5.69140774 128.61773,6.75788132 130.097026,8.02450363 C131.65766,9.36023749 132.947448,11.0096152 133.858646,12.852167 L133.945763,13.0296786 C134.778042,14.7388514 135.725893,17.0852448 135.306251,18.9629381 C135.294209,19.0161983 135.280477,19.0675565 135.264843,19.1172238 C138.665195,20.7917522 141.805477,22.8891925 144.540124,25.5475565 C147.72435,28.6427815 150.420547,32.1649342 152.702237,35.9700848 C161.764299,51.0832202 163.359259,69.2339563 164.429554,86.4693413 L164.69649,90.8394501 C165.277599,100.276014 165.95777,109.690235 167.72442,118.996511 L167.85332,119.668379 C169.74176,129.412152 172.445026,139.230388 172.171181,149.225944 C172.088998,152.220778 167.664631,152.200488 167.536392,149.225944 C167.053434,138.030085 164.441744,127.220363 162.673223,116.199502 C159.561462,96.8100144 161.120617,76.8205036 156.711462,57.6252473 C154.981181,50.0923001 152.300829,42.7852864 148.473293,36.0611768 C146.58266,32.7393843 144.419491,29.5296073 141.885547,26.6639087 C139.705477,24.1980848 137.439631,21.8250437 134.891955,19.7521201 C134.07773,20.5679322 132.451181,20.1522062 132.02611,18.9629381 C131.734139,18.1456465 131.819279,17.1901318 131.631885,16.3339518 C131.458012,15.539486 131.218223,14.7517835 130.898786,14.0036034 C130.262026,12.5125271 129.327378,11.0806289 128.248434,9.8738187 C127.082871,8.56936469 125.743223,7.48556038 124.244279,6.59070324 C122.734984,5.68971694 121.08435,5.42066801 119.49266,4.76231185 C119.438998,4.74012007 119.433927,4.66826097 119.49266,4.64775999 Z M126.151033,108.271731 C126.153568,108.193109 126.246315,108.155911 126.303357,108.208537 C126.904202,108.761641 127.267371,109.555473 127.709554,110.235809 C128.219554,111.020342 128.755117,111.788811 129.316667,112.537414 C130.441878,114.037156 131.694484,115.450666 132.957019,116.835645 C134.131244,118.123614 135.382793,119.357265 136.681033,120.520115 C138.087653,121.780396 139.66392,122.904569 140.941878,124.299903 C143.608453,127.21148 144.039354,131.207569 144.601937,134.959729 L144.663568,135.365571 C145.006667,137.592357 145.314061,139.825062 145.591244,142.060937 C145.726033,143.148545 145.860399,144.23721 145.970258,145.327567 L146.003812,145.673019 C146.10175,146.740481 146.128168,147.823418 145.515399,148.756091 C144.859413,149.753876 143.368075,150.103661 142.481385,149.146878 C140.957934,147.503207 141.243568,144.583614 141.045399,142.469054 C140.881697,140.720523 140.695954,138.974165 140.488037,137.230381 L140.38223,136.358706 C140.13716,134.374972 139.938146,132.351715 139.484554,130.402432 C139.084624,128.685845 138.322582,127.390267 137.0723,126.146682 C135.812723,124.894009 134.50392,123.724608 133.341315,122.375559 C132.108146,120.944717 130.995822,119.410526 129.993568,117.809336 C129.136333,116.439786 128.449182,114.949404 127.819664,113.46075 L127.715258,113.212678 C127.106808,111.760913 126.103498,109.871019 126.151033,108.271731 Z M148.146589,45.9139893 C148.159899,45.7115158 148.459054,45.7083455 148.463491,45.9139893 C148.501308,47.6555158 148.537646,49.3970422 148.573772,51.13878 C148.864477,65.1728621 148.685322,79.2401263 150.092786,93.2260207 C150.756589,99.8203612 151.978984,106.317692 153.39342,112.78797 C154.117223,116.098772 154.876519,119.401755 155.597998,122.71298 C156.301096,125.940087 157.05511,129.182835 157.612857,132.439954 C158.160929,135.641163 158.651763,138.867022 158.87208,142.109349 L158.899265,142.532353 C158.994124,144.102897 159.446871,146.412956 158.582364,147.80512 C157.645603,149.313316 155.852153,149.340369 154.84842,147.900651 C153.905955,146.549066 154.140251,144.144745 153.973772,142.532353 C153.804547,140.889528 153.625603,139.245434 153.422364,137.606412 C153.025815,134.409316 152.50335,131.219406 151.959969,128.044079 C150.828209,121.431351 149.18666,114.901895 147.97504,108.299735 C146.733209,101.534623 145.850533,94.7211126 145.81335,87.8332066 C145.776378,80.8867565 146.511378,73.9538328 146.882364,67.0225999 C147.259265,59.9829443 147.687716,52.9485725 148.146589,45.9139893 Z M81.8761033,2.26303122 C82.2527934,0.994295412 83.5820892,0.20109776 84.8788498,0.557434355 C86.0672301,0.884181909 87.0483568,2.32707036 86.5837794,3.56156743 C86.0767371,4.9087142 85.1906808,6.05740304 84.4436385,7.28175529 C83.7536385,8.41311342 82.7471596,9.3039549 82.0442723,10.4152347 L82.8188267,11.2505993 C83.206354,11.6673077 83.5949765,12.0815205 83.9879343,12.4885811 L85.338885,13.8885274 C86.3910441,14.9764869 87.4498287,16.0586469 88.5384272,17.1089099 C91.739554,20.1977944 94.991385,23.1852308 98.576385,25.8304911 C99.3925118,26.4324167 100.214977,27.0309608 101.060469,27.5914618 L101.375734,27.8004605 C101.955796,28.1803931 102.602981,28.5538651 103.303709,28.4894891 C105.006442,28.3330863 106.544919,26.524086 107.715002,25.3981413 L107.776244,25.3395244 C110.675892,22.5795009 113.360892,19.5618414 115.708286,16.3171917 C116.229484,15.5962758 116.734202,14.8631017 117.22561,14.1212621 C116.090681,12.7950391 116.361737,10.2062093 116.299202,8.59783357 C116.255047,7.46689815 116.251667,6.33575138 116.24554,5.20397056 L116.242449,4.97574684 C116.228624,4.24320989 116.195615,3.54063714 116.670822,2.93787271 C116.698498,2.90299991 116.755751,2.90405666 116.791033,2.92244414 C117.441899,3.26363396 117.642455,3.83490559 117.920175,4.47570207 L117.949202,4.54223279 C118.28723,5.31133651 118.610892,6.08762614 118.938357,6.86116821 C119.281244,7.67106254 119.59561,8.49279248 119.914202,9.31240891 C120.062512,9.69368484 120.204061,10.0764402 120.342441,10.4613091 C120.426737,10.7071095 120.513991,10.9516418 120.603568,11.1957514 L120.624695,11.2145616 C120.743005,11.3149529 120.843357,11.4210508 120.929765,11.5305302 C121.292934,11.7122915 121.581526,12.0434774 121.716948,12.5300058 C122.011667,13.5890821 121.401737,14.4526594 120.857723,15.2931995 C118.647864,18.7086203 116.128709,21.9632034 113.328568,24.9155557 C111.937582,26.3823267 110.474554,27.7831565 108.951315,29.1119158 L108.685027,29.3426474 C107.316671,30.5189978 105.831077,31.6333075 104.003639,31.9085028 C101.865065,32.2304371 100.124581,31.1664324 98.4875052,29.9408747 L98.3241315,29.8178257 C96.7721596,28.6425068 95.2514554,27.4259745 93.7780751,26.1534344 C90.774061,23.5588982 87.9162441,20.7730899 85.3799765,17.7167533 C82.9127934,14.7439001 80.4741315,11.4197827 78.9534272,7.84267897 C78.8606808,7.62477682 79.1044836,7.39672985 79.2954695,7.57870246 C80.0382864,8.28609189 80.7530047,9.03194708 81.4592723,9.78731302 C81.4789202,8.67539913 81.2737794,7.55397447 81.3878639,6.43508602 C81.5270892,5.07504688 81.4869484,3.57255764 81.8761033,2.26303122 Z" id="ðŸ–-Ink" fill="#000000"></path>
                </g>
                <g id="head/Short-3" transform="translate(78.591549, 38.043053)">
                    <path d="M88.2129821,71.3525777 C86.890918,61.7904564 83.8670996,52.5062607 83.4330173,42.8006325 C83.1747605,38.6473879 82.9165037,34.4939319 82.6584577,30.3402646 C82.5604255,27.7461511 79.1990812,26.8709495 77.9151759,29.1691726 C74.9967684,25.9245229 69.7709153,26.4023859 65.7840625,26.5008751 C42.3136827,27.3346521 20.0099914,43.2429886 11.9532219,65.4239906 C11.7594766,65.952789 11.818085,66.5156149 12.037129,67.0192626 C8.2817586,79.5734701 21.5624838,87.6574074 30.6202356,93.2548086 C34.2946504,97.1474583 38.6137585,100.381541 43.4907014,102.596492 C49.1008828,105.242386 55.3458489,106.717611 61.5442234,106.858793 C62.9048679,106.890073 63.7222244,105.787247 63.8204674,104.645744 C65.7979767,104.184366 69.1818789,104.716969 70.2275555,102.68547 C82.1531176,97.4928047 89.9233801,84.3315992 88.2129821,71.3525777 L88.2129821,71.3525777 Z" id="âœ‹-Skin" fill="#D08B5B"></path>
                    <path d="M82.6330115,37.4416556 C82.59928,37.1316047 83.0458007,37.1220939 83.1377191,37.3731781 C83.8935156,39.4374364 84.6771405,41.4875342 85.2758747,43.6039961 C85.8531051,45.6437378 86.2688458,47.7297652 86.6898571,49.8069159 C87.3880993,53.2540391 87.98852,56.7265245 88.4852164,60.2102114 C89.5467046,59.379182 90.9349668,59.3035186 92.2422734,59.9502505 C92.8557651,60.2535382 93.0906207,61.0556125 92.943467,61.6778278 C92.8254067,62.1770372 92.6809937,62.6737104 92.5076981,63.1602387 C92.8781122,63.4888885 93.1928693,63.8942583 93.4214002,64.3596517 C94.0232967,65.5854834 93.8293406,66.872184 93.2894257,68.0415851 C93.330536,68.1113307 93.3712246,68.181499 93.4095942,68.2558943 C94.1911109,69.7774051 93.7730511,71.1399804 93.2019346,72.6245049 C92.7743878,73.735362 93.0130382,74.9861331 92.0906924,75.824771 C91.7700323,76.8574286 91.2889368,77.8178043 90.5885864,78.6853973 C90.4296267,78.977272 90.191398,79.2118708 89.9086858,79.384544 C89.8376388,81.0142661 89.6660298,82.6384932 89.3432615,84.2485597 C88.0899253,90.50009 84.1121379,96.070227 79.1879709,99.9988063 C74.3694257,103.843268 68.7103336,106.140434 62.6040883,106.882908 C59.6390892,107.243683 56.6696628,107.129977 53.7289082,106.614916 L53.3625998,106.549566 C50.649059,106.056255 47.365341,105.239375 45.4889345,103.187237 C44.5022881,102.108082 45.0790968,99.7329276 46.8236479,99.9571703 C47.7478911,100.075738 48.5523875,100.224317 49.4226602,100.566282 C50.1012959,100.833006 50.7811965,101.090008 51.4779629,101.307699 C52.8124655,101.72427 54.1927164,102.049115 55.5782379,102.228763 C58.4652329,102.602642 61.4652284,102.50373 64.3189136,101.939425 C69.5080837,100.913108 74.5494676,98.545773 78.4874097,94.9815616 C83.0649855,90.8384618 85.7483266,85.4762935 86.143196,79.2917613 C86.5829704,72.4038552 85.7896477,65.3506732 85.1310401,58.4984853 C84.7884545,54.9340626 84.3535289,51.3768258 83.8298473,47.8345949 C83.3181826,44.3735225 83.0114368,40.9173112 82.6330115,37.4416556 Z M42.1219907,15.2002719 L42.3438303,15.1661166 C51.1561854,13.8217174 60.4281323,13.9170364 68.7113245,17.562829 C70.2988133,18.2621871 71.8525707,19.1054748 73.3156746,20.0840266 C74.3636703,19.9743358 75.4177797,19.8853573 76.4529152,19.8707742 C77.7555837,19.8536548 79.0268397,20.5320892 79.1870644,21.8530286 C80.4077231,22.0052008 81.5316146,22.4553769 82.2505173,23.3559405 C82.5306996,23.7065706 82.7183311,24.1123632 82.8134117,24.5350638 C83.5637269,24.7128094 84.2994953,24.9852399 84.9973157,25.3445354 C85.8448198,25.7820305 86.3339265,26.9994082 86.0345595,27.8999718 C85.9654099,28.1043898 85.8868155,28.3035325 85.7987763,28.4983738 L85.7309759,28.6437135 L85.7710321,28.6986646 C86.4477704,29.7892321 85.9776375,31.2200736 84.9403938,31.8710325 C84.162461,32.3592517 83.2938748,32.7481362 82.39999,32.936238 C82.4737777,33.2955335 82.5412407,33.6569425 82.5960544,34.0225785 C82.6171366,34.170735 82.4276077,34.2764102 82.3430681,34.1303671 C82.556701,34.796825 82.824515,35.4971695 83.1465103,36.2314004 C83.3360392,36.6644571 82.7288722,37.0491147 82.4971789,36.6116196 C81.881579,35.4449659 81.4997805,34.2487233 80.9411025,33.0461401 C80.4247997,33.0123241 79.9101835,32.8939679 79.414752,32.6678231 C79.0900863,32.5198779 78.8436355,32.2704845 78.6665451,31.9724806 C78.6557932,31.9851616 78.6496794,31.9999562 78.6389274,32.0147507 C76.9755427,34.1599562 73.7246691,34.9123632 71.2116721,35.5907977 C68.5133627,36.3201675 65.7513851,36.7701323 62.979288,37.1019523 C58.1386065,37.6789386 53.2601879,37.7867272 48.3967377,38.0109699 C48.0746018,38.025553 47.7530984,38.041827 47.4313842,38.0574669 C45.4559831,39.7947663 42.9115736,40.8743436 40.3015986,41.2025706 C38.9791129,41.368692 37.4148144,41.3264219 35.9318932,40.9878387 C35.3951407,41.5373495 34.7169266,41.9444102 33.9765201,42.1534356 C33.8432807,44.9219131 32.3034376,47.5430795 29.9755423,49.0709307 L30.0168315,49.2354929 C30.5952857,51.5995451 30.5878217,54.1836624 28.5141249,55.8267429 C28.2330993,56.0490834 27.9263534,56.2397213 27.603796,56.3978114 L27.6746681,56.5611002 C28.7457815,59.0707203 29.087852,61.8428694 27.0744222,63.9252634 C26.258023,64.7692787 24.8246257,64.5694359 24.2124938,63.6006737 L24.1825783,63.5515961 C24.1486359,63.4938975 24.1119529,63.4385237 24.0767457,63.3818818 C24.0221428,63.4938975 23.9386573,63.588371 23.8146941,63.6412086 C23.0494106,63.9711264 22.7437188,63.7278622 22.0458984,63.3875883 C21.4007834,63.0705628 20.7198287,62.8338505 20.0243272,62.6501871 C19.4570055,62.5020305 18.8920029,62.3963554 18.3227837,62.3350638 C14.7261622,63.7130677 12.402905,67.9400736 12.9552583,71.9071186 C13.2546254,74.0671186 14.4375471,76.2059836 16.4991744,77.1021088 C17.4014921,77.4952204 18.4619262,77.6600736 19.4380316,77.5269229 C20.7598848,77.3472751 21.7760464,76.5126528 23.1442804,76.9900932 C23.6839845,77.1781949 24.0215103,77.6032204 24.0508146,78.1844337 C24.0995144,79.0972556 23.7767461,79.7820305 23.2328256,80.2892712 C24.1920653,81.0924023 24.9657816,82.2083319 25.7985281,83.098328 C26.8401991,84.2119327 27.8962059,85.3257487 29.0219948,86.3529112 C30.0845372,87.327236 31.2147533,88.2318153 32.4120109,89.0351577 L32.5378159,89.1182042 C34.0380811,90.0974964 35.9284334,90.9673018 36.0001995,93.0148838 C36.0233899,93.6320266 35.6502352,94.1982341 35.1442626,94.513146 C33.2534011,95.6882536 31.1955686,94.1453965 29.7134906,93.0148838 C29.1168647,92.5602693 28.5371045,92.0889581 27.9784265,91.6007389 C27.6052717,91.630328 27.1983855,91.5692477 26.7746334,91.3809346 C26.5026732,91.2625785 26.2370376,91.1230873 25.9756185,90.9751421 C25.1260062,91.1886059 24.324883,91.0005041 23.6650105,90.554555 C22.7142038,90.7891538 21.7064751,90.8166294 20.8505382,90.6285276 C20.0685998,90.4552204 19.3705686,90.0853573 18.7950248,89.5886841 C17.59334,89.9733417 16.2588374,89.9014826 15.0740184,89.1723241 C14.3635486,88.7350403 13.809087,88.1113456 13.5076117,87.3821871 C13.3541334,87.1413323 13.2559335,86.8603416 13.248493,86.550728 L13.2483008,86.4332243 C12.2152735,86.4564728 11.180138,86.1014043 10.381123,85.2815765 C9.64746283,84.5289581 9.28927643,83.5907742 9.24900945,82.637373 C8.20965751,82.3416939 7.25885078,81.7346959 6.53573168,80.7986254 C5.33826333,79.2473143 5.17824951,77.3303671 5.79384944,75.6184297 C5.75358246,75.5275491 5.71774273,75.434555 5.68611945,75.3415609 C4.73109627,73.9910325 4.10073881,72.3615217 4.15133607,70.727784 C4.15766072,70.4741636 4.19139223,70.2249816 4.24198948,69.9777018 C3.30172384,69.4765902 2.61022803,68.597373 2.53644036,67.4793299 C2.47951845,66.6022262 2.79364307,65.744144 3.36075397,65.0952986 C3.08457729,64.4337722 2.96230059,63.7151812 3.04662935,62.9965902 C3.13306632,62.2589777 3.39237725,61.6185863 3.77206748,61.0840814 C3.76342378,60.8896391 3.77396488,60.692872 3.80558816,60.4920892 C3.76764022,60.2955335 3.73601694,60.0926372 3.71936201,59.8857252 C3.53995258,57.6198387 5.10003459,55.637373 6.99953985,54.591189 C7.49918773,54.3164337 8.03889178,54.0924023 8.57859583,53.9021871 C8.97072455,53.7626959 9.56102585,53.7161988 9.90677376,53.460465 C9.89201622,53.4498975 10.0353751,53.2641205 10.0606737,53.1645746 C10.0880806,53.0419914 10.1175956,52.9215217 10.132564,52.796825 C10.1892751,52.2726763 10.1471107,51.7337331 10.1365696,51.2074708 C10.0901888,48.8192125 10.1639765,46.4203867 10.4148545,44.0448094 C10.8807709,39.6402693 12.029961,35.3308368 14.2686787,31.4821479 C16.1471018,28.2569425 18.7191289,25.5326372 21.6685272,23.2733025 C27.5432177,18.7751705 34.874328,16.3294209 42.1219907,15.2002719 Z M14.8966539,69.9754614 C14.131927,68.1329223 17.7321857,68.114704 18.6840811,68.2022951 L18.7121085,68.20498 C20.8546914,68.4186552 24.2044405,69.4517354 25.0810379,71.6191327 C25.4438624,72.5163147 24.3697249,73.4887374 23.510204,73.1936924 C22.6688138,72.9049879 22.1969944,72.2848861 21.5217319,71.7423499 C21.3446415,71.5998998 21.1599615,71.4669605 20.9719084,71.3386708 C21.0709646,71.6548358 21.2294628,71.9469456 21.4494288,72.1650808 L21.5012822,72.2140838 C22.5381043,73.1478294 20.6839257,74.6152344 19.995803,73.3786239 C19.6293946,72.7206904 19.4826626,71.9987178 19.596928,71.2515945 C19.6308703,71.0311562 19.6899005,70.829528 19.775705,70.6371992 C19.7073987,70.6029605 19.6401465,70.5657628 19.5709969,70.5327922 L19.4475531,70.4753445 C18.6223325,70.0999495 15.1010752,68.6261969 15.1296121,69.9439703 C15.1327744,70.089802 14.9440888,70.0900133 14.8966539,69.9754614 Z" id="ðŸ–-Ink" fill="#000000"></path>
                </g>
                <g id="face/Smile" transform="translate(112.183099, 77.354207)" fill="#000000">
                    <path d="M30.968993,50.9198978 C29.548794,50.3403012 28.2816173,49.3734958 27.3551889,48.1384646 C27.0331038,47.7091169 26.9495926,47.2557326 27.017159,46.8410547 C27.0931327,46.3747786 27.3688808,45.9521824 27.7449394,45.6687178 C28.1221628,45.3843752 28.5940214,45.2441445 29.0502103,45.3156301 C29.4466117,45.3777469 29.8412104,45.5948709 30.1535058,46.0451781 L30.2187521,46.1352289 C30.7695298,46.8806513 31.4872438,47.4922614 32.3050288,47.8864795 C33.0932406,48.2664417 33.9747757,48.4437847 34.8870208,48.3406561 C36.6244504,48.1443157 37.8219743,47.2043274 39.0948115,45.9278391 C39.2525834,45.7666792 39.4104563,45.6004672 39.5690946,45.4315797 C39.6692778,45.278484 39.8083069,45.1800892 39.962667,45.1284632 C40.1340565,45.0711416 40.327938,45.0743848 40.5055187,45.1363808 C40.6767961,45.1961763 40.8299095,45.309486 40.9325762,45.4602937 C41.0301525,45.6036243 41.0854754,45.7806897 41.0675245,45.9843589 C40.9510195,47.3072301 40.2596776,48.4878363 39.2776553,49.4148615 C38.1869942,50.4444414 36.7412431,51.1567117 35.3801317,51.4065272 C33.8805866,51.6817086 32.3525901,51.4845569 30.968993,50.9198978 L30.968993,50.9198978 Z M36.0875289,30.5120405 C37.6828906,31.482148 40.1137318,33.7442494 38.3974899,36.149264 C36.3773089,38.2698449 33.4687045,35.8384541 32.0353946,34.7388307 C30.7063626,33.8866164 29.2131206,36.0784478 30.4461973,37.0735516 C40.8033244,44.7445605 45.006466,30.7657101 36.8944406,29.3714319 C36.0012775,29.2177885 35.6695544,30.2119271 36.0875289,30.5120405 Z M17.5274577,21.5886716 C17.7037243,19.3998697 21.0359789,18.9028321 21.3674577,21.0687499 C21.6642887,23.0089456 21.3148521,24.7912626 20.4412606,26.5380728 C19.6065423,28.2068947 17.5085456,27.4283107 17.3498837,25.9087021 C17.1372039,23.8717299 17.4178099,22.9502317 17.5274577,21.5886716 Z M42.8930282,20.6196517 C43.3576056,20.0109628 44.0283803,19.5954481 44.8320423,19.8302583 C47.3429577,20.5642779 46.6028873,24.1303914 45.7210563,25.8662114 C45.2419014,26.8088337 43.6930986,27.0478708 42.993169,26.2178982 C41.8523239,24.864411 41.3059859,22.1614521 42.756338,20.8282544 C42.7956338,20.7593542 42.8393662,20.68982 42.8930282,20.6196517 Z M20.4058944,12.0111429 L20.802522,11.9416942 C22.0295218,11.7294045 23.5551549,11.5254176 24.4231479,12.5122544 C24.8835,13.0355577 25.0419507,14.0081918 24.4231479,14.509092 C23.3346972,15.3904227 22.1313169,15.0488806 20.8269507,15.1234873 C19.7520211,15.1852016 18.7189225,15.3631585 17.6835,15.6592603 C15.4119507,16.3087397 13.5610352,17.4944149 11.6209648,18.7963327 C11.3663873,18.9671037 11.1065282,18.6414129 11.228007,18.4032211 C12.3479366,16.208771 14.5182887,14.4061644 16.6922324,13.3073542 C17.8525141,12.7208571 19.1222324,12.2343288 20.4058944,12.0111429 Z M40.6041287,11.0281289 L40.9077055,11.0902829 C44.2113469,11.7811043 48.5035506,13.1610768 50.0679842,16.4073021 C50.1275964,16.8663298 50.0646105,16.9647086 50.0133917,17.0289838 L49.9963385,17.0503723 C49.9541341,17.1052595 49.9204583,17.1809212 49.7215736,17.2433957 C49.6663832,17.2302408 49.6106433,17.216308 49.5543131,17.2015401 C48.8372041,17.0135386 48.2698321,16.7545401 47.720556,16.4857982 L47.1250012,16.192275 C46.4340388,15.8533498 45.7369757,15.5267598 44.9982488,15.2856588 C43.4217423,14.7712438 41.8001698,14.4088706 40.1534741,14.2153715 C39.7965654,14.1734678 39.4528848,14.0529641 39.1817455,13.8464404 C38.92438,13.6504079 38.7277692,13.3789964 38.6381257,13.0182314 C38.5219478,12.5513438 38.5553348,12.1978716 38.8057421,11.7766707 C38.9940329,11.4603578 39.263447,11.2411116 39.5728025,11.115213 C39.888177,10.9868648 40.2472278,10.9566068 40.6041287,11.0281289 Z" id="ðŸ–-Ink"></path>
                </g>
                <g id="facial-hair/Chin" transform="translate(104.577451, 109.479380)" fill="#000000">
                    <path d="M44.2732394,29.1798391 C38.0211268,30.0988953 33.4957746,29.9089648 30.6971831,28.6100478 C26.5119718,26.6677737 22.4408451,24.7885472 18.6443662,22.2157966 C14.7549296,19.5799984 11.4549296,16.4499881 9.09929577,12.4434121 C6.9084507,8.71546602 5.08732394,4.75973493 3.25352113,0.834510756 C3.14635773,0.605129306 2.09366197,-1.67519216 1.72183099,-2.43989905 C1.14929577,-3.62560148 -0.52452708,-3.25341853 -0.52452708,-1.41283262 C-0.52452708,0.427753296 -0.606338028,14.3666234 2.60915493,19.8497344 C5.50985915,24.802025 10.4260563,28.2622689 15.3105634,31.2824543 C20.7147887,34.6219456 27.893662,38.2319315 34.3415493,39.1857813 C40.1767606,40.0481104 46.8359155,37.6258606 51.0612676,33.6335212 C55.4788732,29.4581403 56.7295775,23.7857219 59.0091549,18.3534557 C59.5183099,17.1392802 57.7132916,16.407017 57.1838028,17.601116 C56.5190794,19.100195 52.2155583,22.9597693 44.2732394,29.1798391 Z" id="ðŸ–-Ink"></path>
                </g>
                <g id="mask/respirator" transform="translate(83.450704, 97.432485)">
                    <path d="M72.7465858,5.73080548 C70.8799759,3.79272329 69.0062223,1.82653151 66.617874,0.487204697 C66.7230089,-0.0868227006 66.4910995,-0.746446967 65.809205,-1.02120235 C59.1982814,-3.49400078 54.9956515,3.623009 50.2078476,6.80277417 C49.0890218,7.4042771 47.9669885,8.09814012 46.7177048,8.33316164 C44.0613665,9.10902857 41.807368,10.7155022 40.2057185,12.8262575 C39.3402241,13.6579209 37.8144673,15.045647 37.3906794,16.176371 C37.1312649,16.6379601 13.8808416,5.57208141 8.58938101,4.3407546 C6.08357809,3.50232798 4.73441193,5.87210234 7.91043851,7.08830841 C16.2562957,10.2842144 32.5970617,17.4380106 36.24531,19.4994317 C35.5442643,21.6634474 35.3348884,24.5316822 36.0176154,26.6718153 C35.4438043,30.0029072 36.5577525,33.0545941 38.7595869,35.4462341 C39.2261065,36.1253025 39.9393323,36.6147898 40.4035248,37.2040344 C42.0896775,41.6132243 46.1359081,43.7458522 50.8708617,45.8533339 C58.4051498,49.206772 64.9729687,49.8786693 69.1018187,48.409827 C79.8201262,44.3163945 86.0409768,32.288238 84.0367328,21.3288798 C82.1516704,13.608465 82.5407497,6.83616751 72.7465858,5.73080548 Z" id="ðŸŽ¨-Color" fill="#9DDADB"></path>
                    <path d="M49.4950249,5.68050411 C55.9422703,2.08036321 57.0310605,-5.25729628 66.3815388,-1.52717495 C69.3029877,-0.346572211 70.3291345,1.40108337 72.2781284,3.58412055 C73.2874884,4.50180352 74.5581607,4.95810881 75.8120342,5.44675068 C80.5811538,7.03060978 83.3777184,11.5304689 84.4444974,16.2573182 C87.2351841,26.0689149 84.3132908,37.5629092 77.1811398,44.7028362 C77.2815898,44.883735 77.262022,45.1443711 77.0442953,45.2645542 C76.6436442,45.485635 76.2453954,45.7121501 75.8486132,45.9420712 C73.3539843,48.0979423 68.2927505,50.9328555 64.5409521,50.9328555 C56.1754182,50.9328555 48.0941698,47.5377523 43.1557016,43.1801753 C36.8349104,38.0802928 32.8486027,27.4394395 34.8994913,19.7811616 C23.1461999,14.2455085 12.258666,10.0415335 7.70776249,8.21812402 C6.58475357,7.0397531 6.57453137,6.60636511 7.67709587,6.91796008 C18.3622492,9.93768359 39.4023911,19.7589699 39.6555308,19.769326 C39.8056414,19.7754552 40.3574295,18.5692791 40.4660844,18.0510481 C39.9740016,17.9971961 10.9519656,5.47286707 7.33751104,4.31089805 L7.14628209,4.24987397 C5.42724811,3.70670372 5.85672789,3.28400313 7.17778792,3.36093464 C9.85641561,3.51733386 32.5661839,14.0628681 36.9854422,15.1196196 C38.9597686,10.6812634 44.5681129,8.37733386 49.4950249,5.68050411 Z M63.5729053,-0.611605479 C59.9837174,-1.66835695 57.3450521,0.938014873 55.4251729,3.66971742 C50.8964926,9.28751601 42.6358355,9.46508063 39.2246642,16.1399144 L39.1227886,16.3441832 L40.4730936,16.7499757 L40.5099771,16.6889468 C40.6163662,16.5232894 40.9333652,16.1025521 41.2020853,16.4855765 C42.5984194,17.9868505 40.4122783,22.9710508 39.2643071,20.775818 L39.2298426,20.7070873 L37.3548747,20.1907585 C33.9681254,33.9212601 46.891587,46.2838127 59.8944121,48.3774968 C59.8944121,48.3774968 65.3192355,48.4643514 67.4934606,47.9391076 C69.0965824,47.5519139 70.4814938,46.8028885 71.9613819,46.0595695 C73.4319497,45.3207996 74.6466662,44.1771719 76.0713228,43.3957553 C80.141325,39.3584145 82.8176149,33.8158054 83.5454835,28.0665159 C84.2581121,21.1724806 83.5908407,12.3948916 77.6104852,8.02289941 C75.6414994,6.77381918 73.2142669,6.43819491 71.4145015,4.89364697 C69.2664738,2.51891507 66.7523453,0.104026614 63.5729053,-0.611605479 Z M57.1180843,31.6412947 C57.0578079,31.5423828 57.1969022,31.4474865 57.2757608,31.5212477 C58.5343536,32.6999483 59.7507498,33.9266254 60.9259853,35.1896548 C60.9879984,35.1699992 61.0584483,35.151189 61.1492354,35.1289973 C61.5808047,35.0235089 61.9538499,35.4745313 61.7450794,35.8719284 L61.6953994,35.960969 C61.381361,36.4957177 60.6594023,36.9664575 60.2296378,36.3218583 C59.1355225,34.8020384 58.0947107,33.239737 57.1180843,31.6412947 Z M41.564016,34.4676611 L41.5628462,34.421226 C41.5388335,33.9620003 41.1657948,32.8037002 41.9241408,32.9812344 C42.8015968,33.4918568 43.126356,34.8267452 43.1756385,35.7748626 C43.2297382,36.8155515 41.5047342,36.8286552 41.5493005,35.7748626 C41.5678757,35.3386356 41.6022822,34.903254 41.564016,34.4676611 Z M77.9982237,31.2650278 C78.1200811,31.2419906 78.1851797,31.3945855 78.0792486,31.4641198 C76.6885208,32.2456932 76.8050293,33.8213096 76.5806391,35.134429 C74.9837091,36.1992117 75.1461231,31.6372157 77.9982237,31.2650278 Z M38.0930752,25.6900932 C51.4853169,27.0410442 65.8916532,31.0404258 79.588393,26.9738348 C80.418362,26.7485354 80.7475496,28.0324885 79.9201713,28.2544063 C66.1139979,31.7550012 51.4540569,29.6639014 38.0930752,25.6900932 Z M74.4140223,20.1560548 C74.8284226,20.0596791 75.2190258,22.106184 75.8586138,22.4870372 C76.1764096,23.1270059 78.6977159,23.6904658 77.6352458,24.4752094 C75.8220482,24.8541605 73.8334839,21.7876791 74.4140223,20.1560548 Z M62.6493371,20.6405542 C62.9604237,20.634425 63.1734753,20.8730395 63.2752845,21.1444133 C63.553106,21.9414153 62.3638514,21.8146051 61.9209056,22.0796384 C60.0470912,23.3705659 57.8830854,24.4116775 55.580532,24.4599654 C55.4366113,24.4628243 55.4353032,24.2723977 55.5528911,24.2263233 L55.954408,24.0690469 C57.2210587,23.5704942 58.4415972,23.059559 59.6067185,22.3216344 C60.5499046,21.7247812 61.4573802,20.6139241 62.6493371,20.6405542 Z M55.5739714,6.61177691 C55.2571763,4.32919374 62.4654536,-1.43411742 64.674748,1.04354207 C65.2458884,1.68139726 64.4965967,2.62845793 63.7430705,2.22583562 C60.663602,1.41763209 57.7182901,4.77577691 55.5739714,6.61177691 Z" id="ðŸ–-Ink" fill="#000000"></path>
                </g>
                <g id="accessories/Glasses-5" transform="translate(88.521127, 88.978474)" fill="#000000">
                    <path d="M77.5541197,15.7312885 C76.9566549,17.3578403 76.0473592,19.0511789 74.9354577,20.4200947 C70.4367254,24.2311632 66.0653873,22.1210419 63.8458099,16.9558521 C63.0024296,13.3056211 65.2416549,9.37366027 67.6144014,6.68845479 C71.041162,3.25253307 76.6336268,5.05577378 78.2092606,9.14032955 C78.3049648,9.66955068 78.3628521,10.1975037 78.3905282,10.7237659 C78.3577817,12.4338012 78.1517958,13.8952885 77.5541197,15.5199382 M34.3118662,12.4509205 C40.2383451,5.3987953 51.325669,5.02174638 51.0427817,15.8756407 C49.7696831,29.6142552 28.3321479,26.2421613 34.3118662,12.4509205 Z M79.4181338,6.56798513 C79.2104577,6.21608689 78.9799648,5.87560157 78.7283451,5.54991076 C78.6353873,5.49453699 78.5819366,5.0033589 78.2401056,4.96700665 C73.6710211,-0.0756 65.644331,2.78544892 62.7440493,7.8100908 C62.2144014,8.44540978 61.7823592,9.18915147 61.4637676,9.97495186 C58.606162,9.45059178 55.2746831,9.55246262 52.6169366,10.6322513 C49.9815845,3.74814951 42.0030634,3.13354286 36.7452465,6.07490489 C33.4750352,7.68391468 31.3545423,11.0534724 28.1741197,12.9044783 C20.6975704,13.4427875 12.6734155,11.766991 5.3318662,13.6431476 C-0.458133803,14.8474215 4.38200704,17.7803295 5.35299296,15.8230145 C12.2747535,13.7771436 20.4751056,15.505989 27.6617958,15.0450341 C28.4090493,16.3095429 29.8420775,17.3443139 31.2702465,17.3001417 C32.8127113,30.978944 52.752993,28.7107327 53.4408803,16.5511162 C54.2210915,15.3170419 55.1914437,14.1360164 56.5803169,13.3671241 C57.1120775,13.2570106 57.625669,13.1139264 58.0951056,12.8924313 C58.8975,12.7791476 60.133838,13.1194215 60.872007,13.7877112 C63.400669,28.9660438 77.9686268,27.19831 80.5720775,13.9014176 C80.623838,13.84858 80.7685563,13.6503335 80.8796831,13.3322513 C81.7708099,12.1535507 83.9523592,11.7154215 83.6037676,9.72555851 C83.2934155,7.7352728 80.7810211,7.75894403 79.4181338,6.56798513 Z" id="ðŸ–-Ink"></path>
                </g>
            </g>
        </g>
    </g>
</svg>