<?xml version="1.0" encoding="UTF-8"?>
<svg width="166px" height="245px" viewBox="0 0 166 245" version="1.1" xmlns="http://www.w3.org/2000/svg" xmlns:xlink="http://www.w3.org/1999/xlink">
    <!-- Generator: Sketch 62 (91390) - https://sketch.com -->
    <title>bust-mask-3</title>
    <desc>Created with Sketch.</desc>
    <g id="Introduction" stroke="none" stroke-width="1" fill="none" fill-rule="evenodd">
        <g id="busts-covid-19" transform="translate(-1217.000000, -551.000000)">
            <g id="a-person/bust" transform="translate(1181.000000, 512.000000)">
                <g id="body/Coffee" transform="translate(31.056338, 135.052838)">
                    <rect id="â˜•ï¸-Cup" fill="#FDEA6B" x="97.3944121" y="58.966835" width="48.3802817" height="59.6007828"></rect>
                    <path d="M83.2831727,0.670696426 C88.4983136,-3.30205504 101.591201,-5.08859907 107.157257,-1.26337011 C112.654863,2.57792147 113.254195,8.78981589 115.816026,14.5043051 C118.233138,13.3640703 122.224742,14.9970761 122.925517,17.2407708 C123.794672,18.2990017 123.833708,21.2721424 124.433074,22.6947412 C150.512369,26.8475631 154.471694,47.1876279 157.610708,70.2793383 C161.763384,93.711534 171.190356,117.092583 167.097891,141.204693 C167.63113,141.976544 168.051553,142.726837 168.440285,143.61789 C169.371764,145.20344 168.171976,147.447769 166.293173,147.360904 C163.861271,147.147229 161.453454,146.855565 159.010145,146.764473 C152.23696,146.529158 145.45759,146.557214 138.681834,146.643333 L137.757891,146.655417 C103.610074,147.080653 69.4641586,147.918657 35.3148628,148.140897 C34.0759896,148.142689 33.4694403,147.031197 33.6348628,145.934712 C33.9680319,143.727158 34.2771164,141.518548 34.599722,139.309937 C26.5225389,141.444152 17.9357783,141.981193 9.88141214,139.534391 C9.31796144,138.960152 11.194229,139.271471 11.4919051,139.184184 C4.07936989,134.11706 6.29303186,123.442391 6.94965158,115.75389 C11.0326093,89.4088647 12.4719755,60.2598549 28.2471164,37.7791583 C35.0716938,28.6048647 45.0771164,21.3411778 56.5740882,19.706806 L56.8930486,19.6631176 C60.2547523,19.2147068 64.0013406,19.0702612 66.9405671,17.2407708 C70.2463162,14.6007292 71.6550223,9.72263132 75.1328095,9.67696584 C76.2811923,9.66188687 77.8434099,11.115242 79.5245107,12.1019998 C79.6500085,9.93129715 80.819368,8.09941958 81.077549,6.41636011 L81.0984487,6.27242768 C81.367855,4.31021287 80.9988935,2.54484462 83.2831727,0.670696426 Z M139.329992,70.9753626 C132.000964,65.8819251 113.068648,68.4411768 112.635241,68.726389 C111.680946,69.3543107 111.270004,69.4098432 110.753877,70.2252326 C110.244299,70.2928647 109.735145,70.363033 109.226412,70.4353148 C108.205778,70.7688256 108.962116,72.024669 110.14099,71.5766064 C109.431923,74.6357534 111.518639,76.8113261 112.34937,79.8356232 C112.619102,80.8175913 112.359105,82.5836761 112.34937,83.5870095 C112.429931,84.8662917 113.843778,86.3773871 113.608138,87.6608362 C112.770398,92.2237186 108.224333,96.6747323 110.14099,101.099746 C111.410708,103.598963 115.229581,104.873366 117.768595,105.722994 C123.028947,107.742657 132.194626,105.646948 135.251034,101.099746 C136.881277,98.6743364 138.769989,92.5562358 139.742031,90.6585215 L139.95748,87.648136 C140.488805,80.1648947 140.961423,72.1091545 139.329992,70.9753626 Z" id="âœ‹-Skin" fill="#D08B5B"></path>
                    <path d="M74.8616641,9.69055279 L76.9590931,10.9781352 L89.1404064,17.0020727 C91.5019238,17.6635322 92.6826825,18.4562908 92.6826825,19.3803484 L92.6826825,28.7894811 C92.6826825,30.0486259 94.8987731,32.9023086 99.3309544,37.3505291 L103.425681,33.2668882 L103.33413,32.7322443 C102.944482,30.4284635 102.749658,28.8873959 102.749658,28.1090415 C102.749658,27.2719433 106.755656,24.0941888 114.767653,18.575778 L118.272785,15.2745327 L117.899076,14.1375065 C120.060287,14.2396888 122.404042,15.5711468 122.925517,17.2407708 C123.794672,18.2990017 123.833708,21.2721424 124.433074,22.6947412 C150.512369,26.8475631 154.471694,47.1876279 157.610708,70.2793383 C161.763384,93.711534 171.190356,117.092583 167.097891,141.204693 C167.63113,141.976544 168.051553,142.726837 168.440285,143.61789 C169.371764,145.20344 168.171976,147.447769 166.293173,147.360904 C163.861271,147.147229 161.453454,146.855565 159.010145,146.764473 C152.23696,146.529158 145.45759,146.557214 138.681834,146.643333 L137.757891,146.655417 C103.610074,147.080653 69.4641586,147.918657 35.3148628,148.140899 C34.0759896,148.142689 33.4694403,147.031197 33.6348628,145.934712 C33.9680319,143.727158 34.2771164,141.518548 34.599722,139.309937 C26.5225389,141.444152 17.9357783,141.981193 9.88141214,139.534391 C9.31796144,138.960152 11.194229,139.271471 11.4919051,139.184184 C4.07936989,134.11706 6.29303186,123.442391 6.94965158,115.75389 C11.0326093,89.4088647 12.4719755,60.2598549 28.2471164,37.7791583 C35.0716938,28.6048647 45.0771164,21.3411778 56.5740882,19.706806 L56.8930486,19.6631176 L57.2143364,19.6212672 C60.4918173,19.2038375 64.0946494,19.0121821 66.9405671,17.2407708 C70.1590582,14.6704153 71.5793326,9.97859489 74.8616641,9.69055279 Z M104.049778,64.91756 C102.855016,64.91756 100.408146,66.7736599 96.709168,70.4858596 L96.3833024,70.6365388 C91.911861,72.7142982 88.9496504,74.5166683 87.4966706,76.0436492 L87.4448105,76.0987213 C85.9769948,77.6740185 83.0702915,81.8629491 78.7247005,88.6655131 L72.4317425,92.3884504 L70.0506708,92.3884504 L68.3554323,104.689829 L72.4317425,113.473402 L81.6649408,110.362046 L96.709168,106.395134 L105.341974,97.6335235 L110.211726,95.9980618 C109.620931,97.7056569 109.406756,99.4046092 110.14099,101.099746 C111.410708,103.598963 115.229581,104.873366 117.768595,105.722994 C123.028947,107.742657 132.194626,105.646948 135.251034,101.099746 C136.881277,98.6743364 138.769989,92.5562358 139.742031,90.6585215 L140.020826,86.7478787 C140.523248,79.5315106 140.896166,72.0638028 139.329992,70.9753626 C132.000964,65.8819251 113.068648,68.4411768 112.635241,68.726389 C111.680946,69.3543107 111.270004,69.4098432 110.753877,70.2252326 L110.486711,70.2610107 L111.989191,68.2225238 L111.457187,67.9383632 C107.66116,65.9244944 105.192024,64.91756 104.049778,64.91756 Z M110.14099,71.5766064 C109.462157,74.5053128 111.345769,76.6241887 112.236567,79.4532542 L109.960461,75.0943966 L109.960438,71.6331165 C110.019349,71.6186537 110.079596,71.5999407 110.14099,71.5766064 Z" id="ðŸ‘•-Top" fill="#9DDADB"></path>
                    <path d="M73.855884,9.23568821 C74.3618699,8.78741423 75.1106023,9.35066277 74.789053,9.95618136 C74.0665178,11.3170659 73.325391,12.606514 72.3556727,13.8095199 C71.767715,14.5388898 71.1379262,15.2287371 70.4996868,15.9109759 C72.1376445,17.3285023 73.5423628,19.0884162 74.8689121,20.7377939 C76.5651797,22.8472812 78.1689121,25.0461696 80.0730671,26.9764318 C81.9509754,28.8801044 84.0274117,30.2108369 86.5380762,31.0982159 L87.0451523,31.2744088 C89.5673087,32.1601945 92.2629691,33.3564172 93.6846164,35.7453555 C93.9649685,36.2164553 93.4004614,36.798514 92.9259544,36.5045258 C90.4556023,34.9743497 87.5529966,34.6666236 84.8639826,33.6555238 C82.2664474,32.6788741 80.0020812,31.1757508 78.0013769,29.2573242 C76.004053,27.3420679 74.3270107,25.1630463 72.577715,23.0300992 C70.8478558,20.9210346 68.9853206,19.119696 66.9391938,17.3352655 C63.7816883,19.4602629 60.1774727,20.3849091 56.5126004,21.2930707 L56.1125741,21.3921344 C52.4432783,22.3009407 48.7936305,23.356424 45.3512361,24.939015 C42.3161657,26.3341383 39.3309544,28.0002127 36.8587009,30.2705375 C34.2343347,32.6799309 32.1917995,35.7571911 30.3222924,38.766608 C26.1404614,45.4993829 23.2004614,52.8755082 20.612222,60.3412459 C17.9202502,68.1066784 15.66856,76.0276647 13.8508136,84.0427019 C12.9263065,88.1196491 12.1754614,92.2255512 11.5583488,96.360197 C11.2613065,98.3515395 10.9974333,100.347109 10.7656727,102.347117 C10.5182783,104.482811 10.4614474,106.680009 9.80651778,108.733489 C9.52574313,109.613551 8.86278538,109.978765 8.19919383,109.947696 L8.06441017,111.634011 C7.88568116,113.882345 7.71906707,116.131383 7.66278538,118.393676 C7.56942347,122.155289 7.61175527,125.906073 7.88222663,129.659715 L7.92053186,130.171594 C8.13306707,132.911117 8.60799665,135.989222 10.667222,137.995148 C12.7997572,140.072721 16.0792643,140.726005 18.95356,140.763414 C25.6479966,140.850702 32.0920812,137.686365 38.0160248,134.910279 C44.1170107,132.051344 50.0513065,128.877919 55.8434192,125.436291 C58.7931375,123.683563 61.7109544,121.872502 64.5915882,120.008604 C66.0051797,119.093669 67.4088417,118.163305 68.8019403,117.217935 C69.5998981,116.676455 70.3560248,116.082772 71.1683488,115.602373 C70.7703206,115.231665 70.5926445,114.648761 70.9260248,114.139829 C68.5777854,112.100721 67.6004614,108.461903 67.4861657,105.517583 C67.3938417,103.140948 67.7434896,100.771078 68.0194051,98.4168467 C68.1586305,97.2296921 68.3306023,96.044651 68.5091234,94.8627802 C68.5796868,94.3959074 68.63356,93.8964866 68.7159544,93.4036178 C62.3751797,96.8894181 55.856729,99.9937313 49.1656727,102.751641 C45.7359544,104.165363 42.2622924,105.436424 38.7406727,106.601175 L38.0268954,106.836116 C34.6901525,107.928772 31.2735741,108.96093 27.824053,109.585653 C27.6396164,109.619046 27.4898276,109.346616 27.686729,109.259751 C31.0484192,107.77586 34.5265178,106.524244 37.9387009,105.157653 L38.4994051,104.929183 L38.4994051,104.929183 C38.4349685,104.92559 38.3682079,104.916714 38.2984896,104.900017 C36.2973628,104.41687 34.3118699,103.672283 32.3491938,103.045418 C30.5276445,102.463571 28.4810952,102.098146 26.7784896,101.219774 C26.6475037,101.152142 26.7208136,100.969958 26.8484192,100.961293 C28.7620812,100.828565 30.8394755,101.38653 32.7157431,101.714757 L33.4205945,101.83827 C34.6013652,102.046553 35.8083488,102.270467 36.9833488,102.562483 C37.0258136,102.168737 37.2457431,101.773301 37.5586305,101.541449 C41.0016586,98.9906628 40.6520107,93.838788 41.0202502,90.0397665 L41.2933112,87.2192914 C41.7736119,82.2831559 42.281729,77.3476826 43.0537009,72.4484475 C43.0948981,72.1867958 43.4994755,72.2618252 43.5011657,72.5088937 C43.5409815,78.5819631 43.0827089,84.6270895 42.8530086,90.6906818 L42.8174401,91.685394 C42.6904518,95.4268837 42.5909266,99.311984 40.235391,102.190929 C40.5647572,101.998389 41.0101093,101.998389 41.2769403,102.315837 C41.6048276,102.706201 41.7941234,103.144541 41.7882079,103.574639 C43.916729,102.681896 46.0359544,101.765903 48.1448276,100.831312 C54.9250389,97.826334 61.5630671,94.4635395 68.0255319,90.8249328 C68.7210248,90.4333007 69.3820812,90.7410268 69.7260248,91.2573555 L69.7756649,91.2502322 C69.7839591,91.2491129 69.7923628,91.2482675 69.8010248,91.2480561 L69.8502502,91.2459426 C69.8521516,91.2459426 69.854053,91.246154 69.8557431,91.246154 C70.7654614,90.7460992 72.0047572,91.1022244 72.785391,91.8315943 C72.8084192,91.8535747 72.8280671,91.8772459 72.84856,91.9004945 C73.8368699,91.4566589 74.7596868,90.8574808 75.5971516,90.0980992 C77.3109544,88.5442518 78.7625741,86.6228663 80.0280671,84.696197 C82.35856,81.1476256 84.3381375,77.2015043 87.4862361,74.2804318 C90.044053,71.9071794 93.2151797,70.4296295 96.5420107,69.5020131 C96.5280671,69.4047919 96.5652502,69.3012303 96.6324333,69.2323301 C96.8033488,69.0571207 96.9252502,68.9964632 97.1460248,69.1027724 C97.16356,69.1114377 97.1741234,69.1232733 97.1813065,69.1359544 L97.5059438,68.5810599 C97.6831434,68.2799698 97.8650996,67.9766834 97.9281375,67.8970189 C98.305884,67.4212694 98.6946164,66.9491129 99.0892643,66.4868898 C99.7583488,65.7042596 100.520814,64.9319857 101.403701,64.3892381 C103.336799,63.2012381 105.368983,63.8735434 107.356377,64.5228115 C108.557222,64.915289 109.754053,65.3204475 110.952785,65.7188428 L111.07644,65.7592383 C111.970284,66.0465373 113.016236,66.2978346 113.415954,67.2452146 C113.574194,67.62015 113.598701,68.0092459 113.524968,68.3867176 C122.014546,66.2269289 131.443842,67.2192185 139.728278,69.7545767 C140.046236,69.8517978 140.363771,70.1134495 140.430743,70.457105 C141.379968,75.3268271 141.802715,80.3208232 141.373208,85.273606 C141.002645,89.5487998 140.055743,93.7383966 138.271377,97.6523927 L138.169929,97.873382 C136.492985,101.500682 133.835159,105.972151 129.776095,107.10905 C127.32518,107.795516 124.614405,107.39078 122.114687,107.265027 C119.685321,107.142655 117.202081,107.124902 114.795743,106.74278 C112.652645,106.402506 110.774898,105.441496 109.450461,103.698279 C108.307926,102.194311 107.706236,100.376698 107.213349,98.5685962 C106.987715,98.6404553 106.76356,98.7167528 106.542997,98.8031951 C105.61194,99.1669289 104.823067,99.75406 104.109828,100.444964 C102.603701,101.904127 101.435391,103.676299 99.8595459,105.068675 C98.4330671,106.329168 96.8075741,107.30941 95.0639826,108.063085 C91.4510328,109.624786 87.575172,110.248882 83.7534782,111.07655 L83.4869403,111.134639 C80.6098981,111.766154 77.6732783,112.541598 75.1338417,114.040072 C75.0841938,114.48116 74.8832783,114.896252 74.5613065,115.168048 C75.0091938,115.588847 75.1989121,116.255234 74.8053206,116.880408 C73.7059109,118.625838 71.8121867,119.618955 70.1121078,120.735163 L70.0015178,120.808142 C68.3291234,121.917309 66.6421516,123.004494 64.9414474,124.069489 C61.484053,126.234984 57.9544051,128.281277 54.3748981,130.237536 C48.6176445,133.383907 42.7367995,136.3519 36.7494755,139.04408 C37.1088417,140.812765 36.9775306,142.636525 37.247639,144.417019 L37.289053,144.67107 C37.4044403,145.331793 37.2485755,145.884684 36.7935964,146.316379 L36.7454614,146.360604 L36.7463065,146.354686 L36.7036305,146.393786 L36.6893662,146.405738 L36.6941234,146.402029 C36.6416762,146.450058 36.5875653,146.494759 36.5324146,146.533099 L36.4621516,146.578295 L36.4621516,146.578295 C36.0239356,146.844706 35.4597508,146.841638 35.0110719,146.606459 L34.9598276,146.578295 L34.8736305,146.528839 C34.2808136,146.18772 33.8720107,145.34253 34.1179262,144.67107 C34.7223628,143.020847 34.9507431,141.259665 35.5089121,139.598451 L35.0660952,139.796487 L35.0660952,139.796487 L34.4824552,140.050967 C28.1702164,142.781558 21.1585959,145.081005 14.2809544,143.219516 C11.2420812,142.396729 8.40179947,140.656471 6.88130651,137.819939 C5.38510933,135.028847 5.17363045,131.788001 5.09419383,128.683266 C4.99616566,124.851273 5.20151778,120.960737 5.70665862,117.161716 C6.04574313,114.611563 6.45581355,112.013222 7.08834876,109.489489 C6.76299665,109.202264 6.52384172,108.790342 6.46067271,108.280142 C6.16215158,105.869692 6.68461637,103.363712 7.00447552,100.965731 C7.31694031,98.6243927 7.66215158,96.2877039 8.05257411,93.9582009 C8.84081355,89.2537547 9.75665862,84.559242 10.8229262,79.9099583 C12.7205319,71.6353829 15.2263769,63.5079074 18.2432783,55.5746628 L18.5074768,54.8836268 C21.2952528,47.6324639 24.5230779,40.535857 29.017715,34.1657234 C31.1677854,31.1180522 33.4406023,28.3548585 36.4786305,26.1587176 C39.3248276,24.1010111 42.5352502,22.6194455 45.8483488,21.4870307 C49.1650389,20.3537704 52.574053,19.5943888 56.0432783,19.1220209 C59.5665882,18.6422557 63.2855319,18.3480561 66.572222,16.9024201 C66.1564474,16.1567763 66.5132783,15.1501148 67.2129966,14.6876804 C69.5677854,13.1312968 71.7453206,11.106561 73.855884,9.23568821 Z M149.23737,76.914554 C149.336032,76.7647066 149.570328,76.8593915 149.527018,77.0367144 C148.381736,81.7305931 147.306595,86.4339825 146.604553,91.2174737 C145.337248,99.8510687 145.570364,108.597408 145.673966,117.294859 L145.679201,117.744683 C145.73244,122.429474 145.806384,127.114687 145.961243,131.797575 C146.039412,134.164276 146.19406,136.554225 146.109976,138.922194 C146.06413,140.206781 145.721877,141.421834 145.600609,142.690992 C145.494342,143.800793 145.58899,144.927712 145.642018,146.038992 C145.677511,146.777873 144.58737,146.746382 144.513215,146.038992 L144.418398,145.124024 C144.295218,143.966107 144.142968,142.815266 143.763637,141.706945 C143.307511,140.373959 143.088637,139.064855 142.930398,137.665294 C142.688021,135.520656 142.580233,133.354532 142.486687,131.194808 L142.422722,129.700981 C142.032093,120.675428 142.045784,111.607533 142.678186,102.591434 L142.724412,101.947517 C143.350609,93.4250275 144.437159,84.2167066 149.23737,76.914554 Z M124.824363,23.2005743 C124.525208,23.0775684 124.629997,22.6250675 124.961264,22.7039011 L125.563705,22.8476611 C129.978051,23.905408 134.312281,25.0514332 138.432532,27.0196741 C142.555419,28.9890362 146.045983,31.9291301 148.819504,35.5444882 C154.211053,42.5720968 156.451546,51.1127622 158.220278,59.6453962 C160.185912,69.1267817 161.97556,78.6428287 163.958307,88.1212553 L164.326498,89.8868203 C166.161148,98.7148387 167.893324,107.547861 169.169645,116.480449 L169.261328,117.128308 C170.548409,126.31391 171.322585,135.817582 169.918166,145.027111 C169.640349,146.849161 166.609504,146.395392 166.728025,144.595322 C167.070278,139.391244 167.315349,134.214429 167.078518,128.998727 C166.841476,123.781968 166.352391,118.588034 165.623307,113.416927 C165.009754,109.065161 164.095135,104.767566 163.285736,100.450391 L163.15887,99.7685587 C162.481123,96.0966432 161.782419,92.4283799 161.085256,88.7598731 L160.04342,83.2673166 C158.481935,75.0430344 156.889905,66.811545 155.090983,58.6389461 L154.984227,58.1580442 C153.223771,50.295362 150.628356,42.0591708 145.347743,35.8154393 C139.98894,29.4789461 132.317602,26.287768 124.824363,23.2005743 Z M105.352461,106.598914 C105.481335,106.311689 105.93218,106.34318 106.070771,106.598914 C106.613807,107.601236 106.674155,108.880643 106.77681,110.012166 L106.787602,110.128675 C106.918166,111.509427 107.033729,112.894828 107.104504,114.280018 C107.238659,116.909004 107.302884,119.534609 107.294645,122.166977 C107.286194,124.864652 107.231898,127.559157 107.086546,130.252816 L107.047101,130.974591 C106.914408,133.315432 106.691854,135.926427 105.579997,137.972808 C105.175842,138.716973 104.076616,138.498225 103.842532,137.745818 C103.07563,135.282319 103.469433,132.361458 103.666123,129.838358 L103.818857,127.869601 C103.970098,125.900625 104.114328,123.930906 104.228729,121.959642 C104.38549,119.262601 104.514785,116.563235 104.639222,113.864926 C104.679645,112.988527 104.723353,112.111846 104.769535,111.235446 L104.84056,109.921129 C104.901194,108.821685 104.896123,107.615298 105.352461,106.598914 Z M19.124057,110.090318 L19.4635516,109.762244 C20.5057344,108.741954 21.8227361,107.170574 23.3634121,107.268028 C23.9777783,107.306916 24.3692572,107.817116 24.2418628,108.421789 C23.9697502,109.714408 22.6516516,110.385233 21.7028488,111.174415 C20.6634121,112.038627 19.6837643,112.962439 18.7060178,113.895128 C17.8385999,114.722118 17.0044007,115.572654 16.1902141,116.449705 L15.8858065,116.779848 C15.5939582,117.098447 13.5156954,118.978978 13.740402,119.466885 L13.7526375,119.488725 C13.8151727,119.582141 13.7110178,119.710642 13.6072854,119.677883 C12.7098206,119.394251 12.7658065,118.624725 13.1051023,117.845053 C13.7570741,116.347002 14.8987643,114.961179 15.8957361,113.681875 C16.8900143,112.40565 17.9661793,111.217287 19.124057,110.090318 L19.124057,110.090318 Z M108.604546,72.5222088 C107.910532,70.8812851 105.353983,70.9157352 103.902574,71.0138017 C100.247645,71.2608702 96.2931375,72.1859504 93.0410952,73.8949289 C89.6695503,75.6666817 87.3984874,78.5055392 85.3663894,81.6446689 L85.2713065,81.7920326 C83.2906727,84.8720405 81.3831375,88.5180444 78.281729,90.6357743 C76.7020812,91.7147176 74.8575037,92.6998213 72.940884,93.1265375 C72.8092643,93.3579661 72.5960952,93.5412068 72.3165882,93.6077821 L72.1866566,93.6375267 C71.6407819,93.7580997 70.7927312,93.891528 70.0602502,93.8117352 C70.0651093,94.1701853 70.0613065,94.5258878 70.070391,94.8655277 C70.0961657,95.8387958 70.1071516,96.8162909 70.1071516,97.7901931 C70.1075741,99.8307802 69.9979262,101.875383 70.0830671,103.915759 C70.1584896,105.720479 70.4132783,107.606146 71.2794755,109.219383 C71.9147572,110.402945 72.7532783,111.186209 73.7654614,111.933966 C76.2554614,110.415837 79.0710248,109.490545 81.9286305,108.79478 C85.3845459,107.953395 88.9230671,107.391837 92.300391,106.250968 C93.925884,105.701669 95.4886305,104.982866 96.9045459,104.006639 C98.4072924,102.969966 99.5551093,101.567446 100.736095,100.195571 L100.92069,99.9824285 C102.125943,98.599611 103.441052,97.2764212 105.144405,96.526741 C106.611236,95.8808545 108.544546,95.76588 109.827152,94.7666158 C110.497715,94.2437352 110.553912,93.4849876 110.624476,92.7080639 C109.803067,92.8255747 108.93349,92.6372616 108.114828,92.5413086 L107.690668,92.4915034 C106.916539,92.3994913 106.160212,92.2983533 105.398137,92.1012772 C105.256588,92.0647136 105.256588,91.8512499 105.398137,91.8146862 C106.298771,91.5819896 107.191377,91.4828663 108.114828,91.3746549 L108.331726,91.3475953 C109.167139,91.2379914 110.045239,91.0725677 110.864687,91.2565101 C111.011729,90.6968545 111.224053,90.162561 111.52194,89.6274221 C111.940039,88.8756491 112.731236,88.0232733 112.838137,87.1451129 C112.870039,86.8828271 112.808983,86.5736217 112.685391,86.3417704 L112.642791,86.2627399 C112.590858,86.1694025 112.529311,86.0755395 112.439264,86.0173477 C112.429335,86.028972 112.408208,86.042287 112.362363,86.0566589 C111.731729,86.2553281 111.181588,85.9465453 110.889616,85.4705845 C109.650109,85.6244475 108.297363,85.5726667 107.134968,85.6240248 L105.959692,85.6808923 C104.703891,85.7384887 103.391037,85.7637055 102.210954,85.5098956 C102.046166,85.4746001 101.996307,85.2002675 102.161307,85.1296765 C103.612081,84.5089407 105.37194,84.3109054 106.92518,84.0725023 C107.792645,83.9391403 108.666447,83.8376921 109.536447,83.7203927 C110.115743,83.6421931 110.730532,83.5130581 111.330743,83.4819896 C112.835602,81.6079465 112.024757,78.6515786 109.930461,77.8446432 C109.167574,78.1800561 108.481588,77.9849798 107.648137,77.913332 C106.816166,77.8418956 105.982081,77.7934964 105.146729,77.7970894 C103.472856,77.8044866 101.699053,78.2449407 100.041447,78.0553594 C99.7718699,78.0242909 99.5213065,77.6654181 99.7894051,77.4464592 C101.058274,76.4106177 102.876725,76.0728733 104.48735,75.8521289 L104.821166,75.8074377 C105.361166,75.7366354 106.017785,75.6332851 106.698912,75.5717821 C106.852926,75.271242 107.129264,75.0440405 107.544405,74.9876099 C107.667785,74.9707019 107.791799,74.9607684 107.915602,74.9502009 L107.913701,74.9379426 L107.913701,74.9379426 C108.926095,74.889332 108.882152,73.1786628 108.604546,72.5222088 Z M39.2941938,104.525927 C39.2763065,104.553543 39.256729,104.579845 39.2358996,104.605144 L39.2037713,104.642381 L39.3702502,104.574749 L39.2941938,104.525927 L39.2941938,104.525927 Z M126.271166,68.8554925 C122.009898,68.3974964 117.742504,68.4940835 113.46856,68.6170894 C113.126729,69.7355551 111.93687,70.688745 110.783983,70.7246745 C111.68694,72.0995082 111.780109,73.9602362 111.14694,75.4183418 C112.491236,75.9536921 113.649405,76.915336 114.352504,78.2848859 C115.327504,80.1834455 115.199898,82.2961031 114.236307,84.0507332 C115.058771,84.7955317 115.544053,86.0050894 115.495461,87.1451129 C115.441166,88.4163849 114.683771,89.5023027 114.054405,90.5548271 C113.374335,91.6931598 113.351518,92.6953829 113.142574,93.9702479 C112.83687,95.8360483 111.578983,96.9676178 109.960461,97.6743731 L110.046505,98.0129467 C110.463782,99.6378284 110.982965,101.352337 112.175602,102.540502 C113.709801,104.069061 116.089873,104.054842 118.116886,104.151706 L118.214687,104.156487 C120.070799,104.249312 121.926101,104.358098 123.781565,104.463259 L125.173208,104.541144 C127.309546,104.658655 129.361166,104.672815 131.10518,103.259939 C133.952433,100.953684 135.904335,97.1369093 137.139828,93.7580522 C139.732926,86.6659817 139.763983,78.8830072 138.573701,71.4967371 C134.581799,70.2096138 130.439898,69.3035551 126.271166,68.8554925 Z M90.8333942,80.6216521 L90.864722,80.6239418 C91.7421164,80.7241219 92.3448628,81.4348929 92.5595107,82.2779692 C92.8713417,83.5033782 92.718384,84.6112765 93.4685952,85.7174839 C94.2403558,86.8549712 94.7148628,87.7656796 94.8270459,89.1709477 C94.8731023,89.7492021 94.8519755,90.3259771 94.9806375,90.8919731 L95.0739313,91.2885226 C95.1730036,91.7113629 95.2540675,92.1186378 95.2047924,92.5726307 C95.1597924,92.9866659 94.9582431,93.3091864 94.5431023,93.4419144 C93.1903558,93.8747598 92.1458488,92.8776091 91.7964121,91.6164819 C91.4945107,90.5271825 91.8976093,89.229069 91.4716938,88.2061336 C91.2357079,87.6390808 90.8004966,87.1648107 90.5545812,86.5939536 C90.3109896,86.0281688 90.1886657,85.4370221 90.1495812,84.8219927 C90.0754262,83.6587207 91.1038769,82.2610612 90.5300741,81.2070573 C90.4078886,80.9821806 90.5462661,80.6148543 90.8333942,80.6216521 Z M72.8645107,68.6173641 C73.7805671,68.4311645 74.8197924,68.0044483 75.7231727,68.3590941 C76.1875389,68.5417007 76.4169755,69.1081195 76.0246516,69.5018651 C75.3434886,70.1849372 74.3535052,70.223002 73.4360403,70.3840735 L73.3552854,70.3986244 C72.2704262,70.5994072 71.1836657,70.7898338 70.0954262,70.970327 C68.0480319,71.3095442 65.9957783,71.6094502 63.9363417,71.8643387 C61.8211305,72.1262017 59.7000037,72.3593211 57.5759192,72.5347418 L56.7536196,72.6022341 C54.9593689,72.7457859 53.0923981,72.8540639 51.3319051,72.5791254 C51.07606,72.5391802 51.1172572,72.1665696 51.3319051,72.1012624 C53.2605671,71.5173015 55.3762009,71.3606909 57.3701445,71.1136225 C59.4900037,70.8504913 61.6062713,70.5725657 63.7170459,70.2428592 C65.8244403,69.9135755 67.9290882,69.5601978 70.0259192,69.1696225 C70.9736657,68.9933563 71.9199333,68.8092702 72.8645107,68.6173641 Z M105.918278,66.7424123 C105.114405,66.4577234 104.230039,66.0358682 103.358983,66.1770502 C101.85687,66.4205258 100.519968,67.8845493 99.3309544,68.8487293 L99.9279724,68.7326399 C102.982761,68.1452845 107.028107,67.5125463 109.592433,69.455516 C109.598983,69.4443144 109.604053,69.4331129 109.611447,69.4219113 C109.81849,69.1074221 110.058278,68.8620444 110.320039,68.5929954 C110.345039,68.5693947 110.369241,68.5450189 110.393044,68.520244 L110.534264,68.3698095 L110.211256,68.2578698 C109.519405,68.0132235 108.699782,67.6973024 108.570213,67.6511892 L108.561236,67.6480483 C107.679194,67.349199 106.796095,67.0537313 105.918278,66.7424123 Z M80.8193276,2.68757001 C80.6936234,1.07010621 83.2100319,1.08342128 83.3346797,2.68757001 C83.6065812,6.18964437 82.8187643,9.65853674 81.1231305,12.7288225 C81.1106657,12.7512256 81.0969333,12.7710925 81.0838347,12.7922275 C82.1443981,13.3442745 83.2170037,13.8739183 84.3134826,14.347343 C85.7160882,14.9530729 87.1451023,15.5046972 88.5996797,15.9726268 C89.9154544,16.3961727 91.5365107,16.5633508 92.6427079,17.4446816 C94.9753136,19.3028733 94.0989755,23.1591708 93.6502431,25.6588107 L93.5802363,26.0534088 C93.3568052,27.3396927 93.1952071,28.6593656 93.7372854,29.8938479 C94.3161586,31.2124624 95.4867924,32.1905915 96.5310882,33.1340592 L96.7420092,33.3253781 C97.6671582,34.1685046 98.7242723,35.1930338 99.4028488,36.3360162 C100.022285,35.0548107 100.866722,34.0077814 101.759539,32.8290808 C102.396511,31.9879066 101.94313,31.710615 101.485525,30.8888851 C101.045032,30.0980123 100.829961,29.254936 100.967708,28.3526816 C101.221863,26.6863958 102.55306,25.4827559 103.87813,24.578388 C105.44299,23.5108577 107.189539,22.7199849 108.807215,21.7268499 C112.131299,19.6864741 115.368553,17.3535896 118.285102,14.7626463 C118.365595,14.6909986 118.505032,14.7848381 118.440595,14.8826933 C116.136722,18.3883606 113.435243,21.4176444 110.115173,23.988932 C108.768936,25.0315495 107.354739,25.8963973 105.931071,26.8055135 L105.521771,27.0682645 C104.950149,27.4387014 104.237154,27.9337926 103.978694,28.5644545 C103.718623,29.1987168 104.273201,29.6776365 104.571722,30.2030534 C105.519673,31.8715679 105.062324,33.4283605 103.938498,34.8433499 L103.886159,34.9085563 C102.769398,36.2852921 101.92306,37.5656522 101.518271,39.3245093 C100.648518,43.1027719 101.859974,47.0383392 103.128118,50.5853561 L103.178201,50.7251669 C103.864187,52.6370416 104.593271,54.5349673 105.189257,56.4774878 L105.353242,57.014518 C105.893246,58.801838 106.335442,60.5646566 105.72968,62.4020592 C105.523694,63.0270221 104.671652,63.1747559 104.317778,62.586568 C103.069398,60.5123763 102.758201,58.0163293 101.975666,55.7358596 C101.21299,53.5132999 100.337285,51.3308968 99.6005952,49.0992491 C98.6520037,46.2259418 98.0171445,43.1330416 98.361722,40.1191864 C98.3515812,40.1016444 98.340384,40.085159 98.3319333,40.0665602 L98.0904593,39.5381586 C97.4319918,38.1073753 96.7960121,36.8578286 95.598553,35.7173939 C94.3495389,34.5277031 92.9938347,33.4745446 92.0110178,32.0344037 C89.8762356,28.9061661 91.1965018,25.4262864 91.4543601,22.0058265 L91.4838655,21.5863906 C91.5307062,20.8762125 91.5563756,19.9110595 91.0926375,19.4195387 C90.5710178,18.8662236 89.3477783,18.7250416 88.6556657,18.4800866 C86.8670741,17.8468812 85.1044685,17.1090573 83.4257361,16.2230769 C81.8277079,15.3797892 80.2797502,14.4481571 78.8384826,13.3567442 L78.1079721,12.8069729 C76.9553769,11.9369792 75.7602017,10.9869355 74.9877079,9.80267764 C74.898553,9.6663567 75.0500319,9.44634104 75.2114403,9.51164828 C76.5010178,10.035163 77.6792572,10.8678831 78.8858065,11.5923919 C78.9046093,11.5482197 78.9263699,11.5036248 78.9510882,11.4588185 C80.4439051,8.75607099 81.0578488,5.76166003 80.8193276,2.68757001 Z M122.013004,21.2050682 C122.526807,19.7955731 124.868497,19.9044185 124.775116,21.5791583 C124.703519,22.8657714 124.157471,24.0270762 123.658196,25.1952836 L123.604905,25.3204812 C123.089412,26.5376475 122.49406,27.6804185 121.781666,28.7959254 C120.420468,30.9284499 118.826032,32.907534 117.123004,34.7752365 C115.57906,36.4685751 113.552581,37.5039802 111.21744,37.331941 C110.233567,37.2594479 109.240398,37.0089978 108.378215,36.517397 C107.354201,35.9332248 106.242088,34.1792287 104.935609,34.6040428 C104.809271,34.6450448 104.691384,34.4599019 104.800609,34.3721915 C106.308849,33.1571387 108.02075,35.0411152 109.464764,35.4950956 C111.640609,36.1788138 113.873497,35.4228138 115.27399,33.6631113 C116.736173,31.8258432 118.081947,29.7687708 119.310891,27.7683403 C119.934976,26.7525908 120.504342,25.6983755 120.996173,24.6118236 C121.49244,23.515127 121.605257,22.3233226 122.013004,21.2050682 Z M118.505687,12.530745 C118.442307,12.3360913 118.683997,12.1509485 118.854912,12.2621187 C119.845968,12.9075825 120.704771,13.760381 121.618926,14.507927 C122.633222,15.3372655 123.654912,16.149696 124.692447,16.9496569 C126.204912,18.1160992 124.450757,20.2634181 123.119349,18.9891872 C121.297377,17.2461814 119.301954,14.9669798 118.505687,12.530745 Z M113.064468,5.70846316 C113.467092,4.15529846 115.848413,4.7957932 115.501388,6.33081006 L115.490032,6.37759819 C114.832766,8.913104 115.768865,11.4944058 117.767223,13.1381551 L117.840807,13.1978722 C119.105032,14.2100287 117.313905,15.9794534 116.062145,14.9770189 C113.329398,12.7891207 112.192567,9.07252578 113.064468,5.70846316 Z" id="ðŸ–-Ink" fill="#000000"></path>
                </g>
                <g id="head/Gray-Bun" transform="translate(78.591549, 38.043053)">
                    <path d="M90.4155438,41.1338395 C86.2612984,15.9457456 54.5410363,11.4044618 33.8712146,16.7059726 C33.4902594,11.8609785 30.4455697,7.57986693 26.6461375,4.76383562 C10.5064566,-6.8792407 -8.60117485,12.8883523 -4.7758116,29.9248767 C-4.08958633,35.0858395 0.0256570244,40.9751155 5.78341375,40.0918826 C-1.45389102,53.8226771 -4.28206672,81.5101996 11.6638688,90.0690411 C13.2022362,91.1665832 13.4575415,93.3956947 14.6415172,94.8250568 C16.5635805,97.1302544 24.775304,100.066544 29.217743,97.7133699 C30.6135947,98.999225 32.2240632,100.250419 34.1069135,100.695311 C43.833814,108.5009 58.0489018,110.262082 69.8932974,107.041315 C77.1906864,105.799843 84.7553976,102.49982 88.5097139,95.7575342 C91.6908054,90.6261605 90.2249608,84.6138787 88.7662841,79.1828102 C88.1361375,76.1951624 87.7258781,73.1836321 87.4733135,70.1467397 C87.9906704,69.5412211 88.019553,68.7004697 88.148576,67.9347476 C88.7087298,65.2207984 89.9327617,62.702137 90.5449885,59.9960078 C91.9146983,53.8529002 91.6768912,47.2896282 90.4155438,41.1338395" id="âœ‹-Skin" fill="#D08B5B"></path>
                    <path d="M0.221492056,13.8378761 C3.8099233,6.98708831 10.8445887,3.12180473 17.8798386,3.65191133 C25.0778537,4.1942823 30.5863741,9.16915376 31.8618225,17.2019964 L31.8991741,17.4463504 L31.9758124,17.9677936 L31.9059962,17.9916164 L31.9396807,18.0508327 L31.999993,18.1520363 C32.0714297,18.2686172 32.1591798,18.4014039 32.2789373,18.5747084 L32.4390142,18.8036784 L32.977649,19.5614831 L33.0157954,19.6158286 L33.1306605,19.7815421 L33.3619322,19.699621 C44.640039,15.7515123 57.2021469,15.7921524 68.4312746,19.9901803 L68.7711404,20.118666 L69.0842262,20.2397495 L69.2608466,20.285837 C76.1454696,22.1109624 81.6467987,26.5003052 85.412746,32.7848926 L85.526334,32.9759141 L85.6411428,33.1720256 C89.0787573,39.0906019 90.8413543,46.4062798 90.7174482,53.7510333 L90.7130657,53.9758803 L90.7112471,54.011883 L90.6922444,54.2332762 C90.5287101,55.9960284 90.0861711,57.5714368 89.1707157,59.9737762 L89.0538067,60.2784489 L88.8726149,60.7434286 L88.3082275,62.176528 L88.1700604,62.5331638 L86.5509324,66.7947926 L86.8508341,62.5176342 C86.8841888,62.0419338 86.9027861,61.624231 86.918706,60.9865416 L86.92149,60.871668 L86.9579019,59.0615801 L86.9685896,58.6572781 C86.9742097,58.4692753 86.9803607,58.299411 86.9875671,58.1338077 L86.999234,57.886864 L87.0208299,57.5031835 L87.0260127,57.4232407 L87.0155958,57.3370948 C86.6708695,54.6185289 85.4261682,52.297452 83.2838255,50.0984526 L83.1722142,49.9848187 L83.0590019,49.8713941 L82.9237016,49.7378312 C81.3451641,48.1903715 79.7493124,47.0071207 76.4434113,44.8358106 L76.3006779,44.7421455 L74.379634,43.4892138 L73.6604286,43.0165659 C72.0753174,41.9697074 71.1093193,41.2918142 70.0877114,40.5011713 L69.8676984,40.3298465 L69.6954993,40.1940886 C67.9268727,38.7907174 66.5454899,37.4117062 65.4846863,35.9240864 L65.3861732,35.7842998 L65.1770979,35.4840874 L65.3265368,35.1636164 L65.3240494,35.1679292 L65.3239433,35.1665647 L65.3310347,35.1324259 L65.3411893,35.0751312 L65.3514788,35.0056539 C65.3702337,34.868064 65.3863063,34.6884217 65.3976849,34.4855851 C65.4018011,34.4122106 65.4052399,34.3372344 65.4079883,34.2612592 L65.4115913,34.1466223 L65.4133954,34.0476869 L65.3738946,34.1644456 C63.3259542,40.0902447 58.4729346,45.0345125 51.6321623,48.6832274 L51.4242586,48.7933976 L51.1892134,48.9162358 C44.4467786,52.4141633 36.1991772,54.4224605 29.0483582,54.479323 L28.8180703,54.4804798 L28.5903136,54.4809541 L28.414545,54.3357508 C27.7584079,53.7937126 26.550845,54.468537 26.7704914,55.4340532 C28.802803,64.365737 29.2290459,73.6102241 27.9879871,82.5182984 L27.944018,82.8289077 L27.939101,82.8582184 L27.8918799,83.1102293 C27.850819,83.3348963 27.8115538,83.5650288 27.7689664,83.83033 L27.7019538,84.258371 L27.443338,85.9925922 L27.3257821,86.7354867 L27.2749016,87.0367069 C26.8380075,89.5650893 26.2842822,91.2852169 25.2781535,92.7686262 L25.1817771,92.9084111 L25.0829135,93.0033072 L24.9861675,93.1004381 C24.7879656,93.3049934 24.6634395,93.4706713 24.6025038,93.5865224 L24.5895659,93.6123678 L24.5822544,93.62818 L24.5996501,93.6351081 C24.9195819,93.7501437 25.5741373,93.7267727 26.119379,93.5767894 L26.1869328,93.5573829 L26.2506351,93.5374838 L26.6921739,93.3938421 L27.0001284,93.8277341 L27.0918721,93.9555842 C27.2609594,94.1897552 27.4371935,94.4257719 27.6576795,94.7141125 L27.9175482,95.0518498 L28.5179862,95.8251947 L27.9669592,96.2068012 C26.1071236,97.4948057 23.5072445,97.2388421 20.7447738,96.0312054 L20.6370641,95.9836744 L20.5979824,95.9646297 C19.2807721,95.2656759 18.4181701,94.4212153 16.9973178,92.6211393 L16.8308382,92.4091512 L16.1983002,91.596019 L15.9574265,91.291447 C15.7892428,91.0809273 15.6454571,90.9062931 15.501342,90.7377752 L15.4532576,90.6817882 L15.284879,90.489038 L15.2479049,90.4144312 C14.5525605,89.0113564 13.5584125,88.078255 11.8182743,87.0745293 L11.5727633,86.9351631 L11.4155922,86.8271529 C7.00005292,83.7578473 4.39385399,78.9165034 3.29799935,72.6375774 C2.44138777,67.729444 2.5300255,62.2070581 3.31481315,56.005264 L3.35270919,55.7094267 L3.39315543,55.4013176 C4.07236468,50.1818389 5.62590005,45.3083836 7.98079125,40.8716743 L8.10331024,40.6425793 L8.21383179,40.4387084 L7.6612509,39.9993052 L7.4344927,39.8224662 C7.24679922,39.6779841 7.10994578,39.5786151 6.9857963,39.4967831 L6.91910908,39.4537209 L6.8571929,39.4153503 L6.84033608,39.4464288 L6.41887195,39.4012747 C4.63891619,39.210577 2.88392672,38.4396834 1.45531253,37.2515669 L1.33749896,37.1520441 L1.22321281,37.0369307 C-1.53822271,34.2219602 -2.89422454,30.3194225 -2.89537469,25.862931 C-2.89638202,21.9237508 -1.81842932,17.7317038 0.0254250744,14.2048244 L0.116722556,14.0319116 L0.221492056,13.8378761 Z" id="ðŸ’ˆ-Hair" fill="#E8E1E1"></path>
                    <path d="M90.0828458,53.961809 C89.8429305,56.9989127 88.5588143,59.731672 87.4838335,62.5620751 C87.6012613,60.8873354 87.5460259,59.1445409 87.6630321,57.4055507 C86.4128583,46.5161495 71.6412007,43.6553119 65.9068452,35.4213159 C66.1239917,34.9563452 66.2022066,30.7988736 65.347113,31.9680634 C62.0302522,46.5184744 42.3160861,53.8183022 28.8188469,53.8464117 C27.7980472,53.0031241 25.7735246,53.8939656 26.1559555,55.5750458 C28.1743643,64.445629 28.616247,73.7249636 27.320114,82.7384196 C26.709363,85.9211436 26.6062711,89.750811 24.7014953,92.4932924 C22.6797133,94.4210184 25.1102789,94.5757268 26.4479438,94.1405566 C26.8208878,94.6661847 27.2144922,95.1765957 27.6095725,95.6851045 C25.6881417,97.0157659 22.8846322,96.289989 20.8959493,95.40422 C18.6837952,94.2303804 17.4192854,91.9556172 15.8164066,90.1322982 C14.9412849,88.3664665 13.6139503,87.3515624 11.9075579,86.3952023 C2.41445882,79.927038 2.65964468,65.7382474 4.0223974,55.4833198 C7.99343858,24.9672963 41.7789119,10.2431554 68.8929265,20.8444861 C83.5359827,24.5982787 90.3965488,39.7757659 90.0828458,53.961809 M1.76850053,36.685402 C-4.02214441,30.904126 -2.85651016,20.797355 0.783540649,14.1326348 C8.07755652,0.207398043 28.7948132,0.659899022 31.2755544,17.5387562 C20.7106368,21.1670067 11.7958222,28.9470223 6.48817026,38.7707953 C4.7600632,38.5856524 3.08951052,37.8140125 1.76850053,36.685402 M90.4155227,41.1385526 C86.2612773,15.9504587 54.5412261,11.409175 33.8711935,16.7108971 C33.4904492,11.8656916 30.4457594,7.58458004 26.6461164,4.76833738 C10.5064356,-6.87452759 -8.60119594,12.8930654 -4.77583268,29.9295898 C-4.08960742,35.0905526 0.0256359422,40.9798286 5.78339267,40.0965957 C-1.45391211,53.8273902 -4.28187698,81.5149127 11.6638477,90.0737542 C13.2022151,91.1715076 13.4575204,93.4006192 14.6414962,94.8295585 C16.5635594,97.1349675 24.7752829,100.071468 29.2177219,97.718083 C30.2739396,99.0172532 36.2690817,102.968236 35.832048,99.0952415 C35.3910086,98.0518051 34.0282558,97.7795859 33.1208784,97.2638912 C31.2137836,96.2084078 29.5569343,94.7209245 28.2551091,92.9736916 C32.3439997,81.4153667 32.032405,68.5456133 29.7418251,56.6444783 C43.4304906,55.9542082 59.5377049,49.9391789 65.5754331,36.7308423 C69.656945,46.3430536 82.3142698,47.5800869 85.5115947,58.327038 C85.7044967,63.9715703 84.4971197,69.5324078 85.372663,75.1796877 C85.6296549,80.7111476 88.5463758,86.2058325 86.8600115,91.7009401 C82.1489855,103.684079 65.1898399,105.442514 53.9852887,104.941613 C51.3238732,104.721386 49.1150922,103.279555 46.9271826,101.910639 C45.6158704,101.286733 44.0549451,102.591821 44.8583873,103.984831 C47.9260567,108.276298 54.2357451,108.651445 59.0808539,108.496737 C71.6549041,107.749402 89.826908,104.025198 90.4796126,88.459672 C90.0649259,82.2893002 87.6497503,76.384173 87.4735032,70.1514528 C87.9906493,69.5459342 88.0195319,68.7051828 88.1485549,67.9394607 C88.7087087,65.2253002 89.9329514,62.7068501 90.5449674,60.0007209 C91.9146772,53.8576133 91.6770809,47.2945526 90.4155227,41.1385526" id="ðŸ–-Ink" fill="#000000"></path>
                </g>
                <g id="face/Smile" transform="translate(112.183099, 77.354207)" fill="#000000">
                    <path d="M30.968993,50.9198978 C29.548794,50.3403012 28.2816173,49.3734958 27.3551889,48.1384646 C27.0331038,47.7091169 26.9495926,47.2557326 27.017159,46.8410547 C27.0931327,46.3747786 27.3688808,45.9521824 27.7449394,45.6687178 C28.1221628,45.3843752 28.5940214,45.2441445 29.0502103,45.3156301 C29.4466117,45.3777469 29.8412104,45.5948709 30.1535058,46.0451781 L30.2187521,46.1352289 C30.7695298,46.8806513 31.4872438,47.4922614 32.3050288,47.8864795 C33.0932406,48.2664417 33.9747757,48.4437847 34.8870208,48.3406561 C36.6244504,48.1443157 37.8219743,47.2043274 39.0948115,45.9278391 C39.2525834,45.7666792 39.4104563,45.6004672 39.5690946,45.4315797 C39.6692778,45.278484 39.8083069,45.1800892 39.962667,45.1284632 C40.1340565,45.0711416 40.327938,45.0743848 40.5055187,45.1363808 C40.6767961,45.1961763 40.8299095,45.309486 40.9325762,45.4602937 C41.0301525,45.6036243 41.0854754,45.7806897 41.0675245,45.9843589 C40.9510195,47.3072301 40.2596776,48.4878363 39.2776553,49.4148615 C38.1869942,50.4444414 36.7412431,51.1567117 35.3801317,51.4065272 C33.8805866,51.6817086 32.3525901,51.4845569 30.968993,50.9198978 L30.968993,50.9198978 Z M36.0875289,30.5120405 C37.6828906,31.482148 40.1137318,33.7442494 38.3974899,36.149264 C36.3773089,38.2698449 33.4687045,35.8384541 32.0353946,34.7388307 C30.7063626,33.8866164 29.2131206,36.0784478 30.4461973,37.0735516 C40.8033244,44.7445605 45.006466,30.7657101 36.8944406,29.3714319 C36.0012775,29.2177885 35.6695544,30.2119271 36.0875289,30.5120405 Z M17.5274577,21.5886716 C17.7037243,19.3998697 21.0359789,18.9028321 21.3674577,21.0687499 C21.6642887,23.0089456 21.3148521,24.7912626 20.4412606,26.5380728 C19.6065423,28.2068947 17.5085456,27.4283107 17.3498837,25.9087021 C17.1372039,23.8717299 17.4178099,22.9502317 17.5274577,21.5886716 Z M42.8930282,20.6196517 C43.3576056,20.0109628 44.0283803,19.5954481 44.8320423,19.8302583 C47.3429577,20.5642779 46.6028873,24.1303914 45.7210563,25.8662114 C45.2419014,26.8088337 43.6930986,27.0478708 42.993169,26.2178982 C41.8523239,24.864411 41.3059859,22.1614521 42.756338,20.8282544 C42.7956338,20.7593542 42.8393662,20.68982 42.8930282,20.6196517 Z M20.4058944,12.0111429 L20.802522,11.9416942 C22.0295218,11.7294045 23.5551549,11.5254176 24.4231479,12.5122544 C24.8835,13.0355577 25.0419507,14.0081918 24.4231479,14.509092 C23.3346972,15.3904227 22.1313169,15.0488806 20.8269507,15.1234873 C19.7520211,15.1852016 18.7189225,15.3631585 17.6835,15.6592603 C15.4119507,16.3087397 13.5610352,17.4944149 11.6209648,18.7963327 C11.3663873,18.9671037 11.1065282,18.6414129 11.228007,18.4032211 C12.3479366,16.208771 14.5182887,14.4061644 16.6922324,13.3073542 C17.8525141,12.7208571 19.1222324,12.2343288 20.4058944,12.0111429 Z M40.6041287,11.0281289 L40.9077055,11.0902829 C44.2113469,11.7811043 48.5035506,13.1610768 50.0679842,16.4073021 C50.1275964,16.8663298 50.0646105,16.9647086 50.0133917,17.0289838 L49.9963385,17.0503723 C49.9541341,17.1052595 49.9204583,17.1809212 49.7215736,17.2433957 C49.6663832,17.2302408 49.6106433,17.216308 49.5543131,17.2015401 C48.8372041,17.0135386 48.2698321,16.7545401 47.720556,16.4857982 L47.1250012,16.192275 C46.4340388,15.8533498 45.7369757,15.5267598 44.9982488,15.2856588 C43.4217423,14.7712438 41.8001698,14.4088706 40.1534741,14.2153715 C39.7965654,14.1734678 39.4528848,14.0529641 39.1817455,13.8464404 C38.92438,13.6504079 38.7277692,13.3789964 38.6381257,13.0182314 C38.5219478,12.5513438 38.5553348,12.1978716 38.8057421,11.7766707 C38.9940329,11.4603578 39.263447,11.2411116 39.5728025,11.115213 C39.888177,10.9868648 40.2472278,10.9566068 40.6041287,11.0281289 Z" id="ðŸ–-Ink"></path>
                </g>
                <g id="mask/medical-mask" transform="translate(83.450704, 97.432485)">
                    <path d="M83.0825493,14.8698035 C82.6843099,9.82212446 76.3219859,7.68389354 73.1529718,7.04984266 C62.6005775,4.56816751 53.6229718,10.9353065 41.0402958,11.0654982 C39.7703662,11.0853652 36.1386761,10.871056 34.4498028,10.4248955 C25.881,8.47709119 17.3210704,6.40522427 8.91346479,3.85063327 C7.67733803,4.14018317 7.3116338,5.75426536 8.16029577,6.67385049 C16.2129718,9.53067241 28.5326197,12.0888564 35.0383944,12.3800971 C34.9135352,20.7876117 30.4769155,29.2416235 24.3501549,33.8913299 C34.0944507,44.6712517 56.8202958,48.2164415 70.1948028,42.5579601 C76.7738873,40.5826802 83.7163521,22.9011147 83.0825493,14.8698035" id="ðŸŽ¨-Color" fill="#FFFFFF"></path>
                    <path d="M8.23354225,4.10507789 C7.87121831,4.09091742 8.08248592,3.03416595 8.89861268,3.18485871 C19.4290352,5.64856908 32.5487535,10.341391 43.3726268,10.3069409 C51.3350915,10.0461346 58.4698099,5.60989198 66.4762183,5.58305049 C71.8582606,5.68618943 78.7210775,6.45191155 82.4875563,10.7723342 C87.4555141,26.5344164 76.2682606,47.9729448 58.6660775,48.0970074 L55.3344357,47.8558609 C43.978046,47.0188669 31.5368535,45.6797202 24.216993,36.041164 L24.1599507,36.0901973 L24.1599507,36.0901973 C23.0653732,35.3555436 23.1264296,33.768937 24.0566408,32.9529135 L24.0843169,32.9964517 L24.0843169,32.9964517 C24.1020634,32.967708 24.1217113,32.9402325 24.1407254,32.9121229 L24.1288944,32.8751366 L24.1288944,32.8751366 C24.4867817,32.4993558 24.8936831,32.1478802 25.2636127,31.8331796 L25.2655141,31.8393088 L25.2655141,31.8393088 C30.7618521,27.2582912 34.3506549,20.3312853 34.5572746,13.1582677 C32.7376268,13.6583225 2.16593662,7.3178137 7.62319014,5.7705182 C11.5265704,7.09061213 15.4529789,8.28283914 19.4586127,9.23180196 C19.5257958,9.19397025 19.6221338,9.20390372 19.6591056,9.27851037 C24.5592465,10.4848978 29.5582606,11.1743225 34.5638239,11.7324986 C34.5585423,11.4932501 34.5494577,11.2540016 34.5372042,11.0143303 C25.6369225,9.28104658 16.9115704,6.7076454 8.23354225,4.10507789 Z M80.3017817,10.5020172 C62.0463592,1.27636556 52.984669,14.9061346 35.3292465,11.1533988 C37.1763592,19.3973284 32.6153028,28.2848196 26.4203028,33.6712932 C35.4215704,41.4650466 39.3173451,42.6452266 51.1250915,43.9101581 L52.6676413,44.0939068 C54.986901,44.36868 57.3279277,44.6249832 59.6543873,44.6651014 C71.721993,43.7865182 80.8405141,31.226393 82.2050915,19.8462364 L82.2124871,19.5318664 C82.2736535,16.6437406 82.1410478,13.5866266 80.8620634,10.9407804 C80.6265,10.8587765 80.4217817,10.7110427 80.3017817,10.5020172 Z M54.8870915,17.744083 C55.5179366,17.6020556 56.161669,18.2906348 55.7706127,18.8936172 C54.5070211,20.8433237 51.4168099,21.5986896 49.2555423,21.9051476 C46.7526549,22.2600047 44.3264577,21.9801769 41.9488521,21.1261104 C41.8214577,21.0802474 41.8305423,20.8549479 41.9830775,20.8731241 C44.2406831,21.1419616 46.568007,20.9451945 48.7615986,20.3474959 C50.9858239,19.9140164 52.7818099,18.4341417 54.8870915,17.744083 Z M72.0396905,16.3396814 C72.0292183,15.9691843 73.8499225,17.041153 74.1378803,17.1855053 C76.3616831,18.5212391 78.9357676,18.6190943 81.3883732,19.1434544 C81.9600634,19.362836 81.9592183,20.089881 81.388162,20.3092626 C78.3271056,21.1235953 73.6815423,18.9864211 72.0396905,16.3396814 Z" id="ðŸ–-Ink" fill="#000000"></path>
                </g>
                <g id="accessories/Glasses-2" transform="translate(88.521127, 88.978474)" fill="#000000">
                    <path d="M78.6572746,20.1750129 C76.0922746,22.8264023 71.8103028,23.5872634 68.3976972,22.1652986 C59.635162,18.5028094 63.9241056,7.07932603 70.6819225,4.01157652 C71.5261479,3.80107162 72.6536831,3.30165088 73.6819225,3.18836712 C73.7748803,3.14271546 73.9772746,3.27480939 74.2225563,3.14990137 C81.6741761,3.98219883 83.3710775,15.5540501 78.6572746,20.1750129 M50.3943169,20.8536587 C47.5174859,24.6708564 42.1690352,25.8485002 37.7991761,24.0740031 C29.1663592,20.6729542 32.2282606,10.543146 38.134669,6.57187397 C50.6115,1.88179961 55.7636831,13.8154826 50.3943169,20.8536587 M31.6802324,12.3958427 C31.6722042,12.3920384 31.6641761,12.3901362 31.6559366,12.3863319 C31.7015704,12.3662536 31.7472042,12.3461753 31.7926268,12.3256744 C31.777838,12.3643515 31.7617817,12.4026059 31.7474155,12.441283 C31.7250211,12.4258544 31.7053732,12.4078896 31.6802324,12.3958427 M84.5964296,8.26965088 C83.8920634,8.27113033 82.8745986,8.38695029 82.2915,8.87580352 C80.8536127,4.02468023 75.5461479,-0.465034051 70.9303732,2.808782 C67.2955141,3.97818317 64.5982606,6.57166262 63.0653028,10.0196313 C60.3012887,8.37490333 55.9550915,9.07722035 53.5582606,11.2522262 C51.9885423,6.06336517 48.1253028,4.24638669 43.5270634,3.97818317 C38.5081901,3.15581918 33.5057958,8.0318818 31.9449507,11.943553 C30.6471338,11.7958192 28.7079085,11.3826294 27.486993,12.1838583 C19.5629789,10.1050168 5.70910563,8.95886419 4.09819014,10.1138935 C2.95016197,10.5545589 2.32016197,13.2653378 3.9236831,13.4115922 C5.32100704,13.2131342 3.76058451,11.4253221 5.16910563,11.2302458 C12.6739648,10.7648524 19.9595282,12.2768524 27.3849507,12.911326 C28.0479085,13.8034356 30.1899507,14.1018622 31.3326972,13.7434121 C29.5329085,20.3789659 33.4181197,24.8934082 39.2395986,26.2456274 C48.2537535,28.3170716 56.0962183,20.2502536 53.7391056,11.859647 C56.4697394,10.5006646 59.6106549,10.5589973 62.5853028,11.2748407 C57.6145986,29.5756626 87.0773451,28.7545667 82.4757254,9.50287984 C85.5380493,11.0267155 86.2031197,8.57716556 84.5964296,8.26965088" id="ðŸ–-Ink"></path>
                </g>
            </g>
        </g>
    </g>
</svg>