<?xml version="1.0" encoding="UTF-8"?>
<svg width="175px" height="241px" viewBox="0 0 175 241" version="1.1" xmlns="http://www.w3.org/2000/svg" xmlns:xlink="http://www.w3.org/1999/xlink">
    <!-- Generator: Sketch 62 (91390) - https://sketch.com -->
    <title>bust-mask-1</title>
    <desc>Created with Sketch.</desc>
    <g id="Introduction" stroke="none" stroke-width="1" fill="none" fill-rule="evenodd">
        <g id="busts-covid-19" transform="translate(-588.000000, -560.000000)">
            <g id="a-person/bust" transform="translate(560.000000, 512.000000)">
                <g id="body/Tee-Selena" transform="translate(31.056338, 135.052838)" fill-rule="evenodd">
                    <path d="M108.981838,151.709007 C91.83726,151.757195 81.5685981,151.556201 62.175922,151.275739 C39.7306403,150.681633 33.6816262,151.750009 21.1074009,149.28017 C19.1848657,148.871418 17.72226,148.252584 16.2387389,147.389641 C15.7069784,147.990721 14.8054995,148.884944 13.9494431,148.292952 C12.3725417,147.250573 13.0954995,143.608584 12.7044431,141.552146 C12.0571192,123.442808 11.0216967,104.793046 14.5612741,86.902878 C12.4154291,86.2049993 -0.158373759,81.0305101 -0.844993477,79.2970149 C10.5256403,49.5534768 35.4691615,14.7472537 68.28726,16.0580482 C68.94726,16.8721695 69.5343727,18.0770776 70.2668375,18.9059934 C74.7288093,17.2346353 80.9225417,15.5594729 81.228246,9.12406778 C82.0008516,4.82921847 82.5575417,0.81926935 82.929584,-3.12790873 C82.9969784,-3.57935296 83.538246,-3.73448407 83.8707812,-3.92681284 C84.0121192,-4.94742341 84.3366262,-5.99064846 85.0409924,-6.69042928 C90.7925417,-7.2073921 103.921767,-4.83456235 107.367119,-3.85685589 C112.067401,-3.05224533 111.578528,1.99395428 112.454021,5.81939459 C113.842049,10.5483574 114.808176,15.4563339 116.870992,20.0764513 C117.337683,20.1407018 118.645007,20.3683261 119.126908,20.4526549 C119.152049,19.9291402 118.906556,18.3752928 119.386345,18.0582674 C120.27557,17.1642557 120.480711,18.8647801 120.678246,19.4193633 C140.100499,15.7503222 152.801274,32.2379699 157.05726,50.6550345 C160.139443,59.9170384 164.22388,69.2904239 169.55564,79.3430893 C172.899161,85.5846862 163.293246,86.7443652 159.266485,89.2353398 C163.421697,105.409132 163.921978,121.880506 164.60395,138.181954 C164.78395,140.689414 165.028598,144.099128 164.14064,145.346941 C163.719373,145.674534 163.426556,145.665445 162.999373,145.689328 C162.175218,146.579113 160.761415,146.519935 159.571345,146.773978 C155.809091,147.458541 151.953668,147.915692 148.331485,147.984804 C138.164443,154.279661 122.490077,150.759622 108.981838,151.709007" id="âœ‹-Skin" fill="#D08B5B"></path>
                    <rect id="ðŸ‘•-Top" fill="#FFFFFF" x="49.4367178" y="41.6359989" width="92.5352113" height="60.8688845"></rect>
                    <path d="M81.5151474,-3.14012478 C82.0492319,-5.81476274 86.4621896,-5.19508368 86.2616967,-2.49761989 C84.034091,7.54151906 85.3902178,19.7624271 71.3098657,18.7743645 C80.2479643,34.5022079 107.848809,44.0679222 116.770218,23.4187872 C112.374161,22.8940044 111.504373,12.4978948 110.973457,8.86034489 L110.951681,8.53519886 C110.833902,6.66447305 110.873324,4.93055133 111.997683,3.33057581 C113.119514,4.17069322 113.570359,5.69220399 113.950218,7.07971866 L114.228372,8.19103773 C115.158335,11.8942172 116.131441,15.5807078 117.607049,19.1150611 L117.659232,19.1235151 L117.659232,19.1235151 C117.585499,16.7263801 120.661767,15.6305288 121.424232,18.1984349 C142.238105,15.3310455 153.623739,32.513613 158.115922,50.483883 C161.39226,60.3207598 165.663668,69.7846032 170.51564,78.9322666 C174.17733,86.0799222 165.285288,87.7159848 160.581838,90.0940983 C164.199373,104.59294 164.909443,119.613817 165.580007,134.484635 C165.357542,137.658271 166.791838,144.168494 164.876274,146.444314 C162.039584,148.66476 160.511274,144.858764 160.947964,142.418302 C161.355288,125.16303 159.559091,107.984267 159.043176,90.7564701 C155.491978,92.2572686 151.897471,93.6401335 148.262823,94.9247206 C148.447894,111.091116 150.369373,127.2573 151.054725,143.341057 C151.95388,144.049926 152.45057,145.278717 151.682823,146.349629 C147.570711,152.086521 140.136415,152.943335 133.595147,153.02555 C118.028316,153.220838 102.445218,153.160833 86.8773305,153.114106 C71.5853586,152.767703 56.1602882,153.747312 40.9490206,151.99395 C37.9680347,154.23384 37.3583164,149.405543 37.7576122,147.345934 L37.9092553,143.220564 C38.0112741,140.470286 38.1193023,137.720196 38.2583164,134.971797 L38.6049195,128.270207 C39.1852061,117.101924 39.8002882,105.939488 40.7759924,94.7930494 C31.9399361,93.5845484 23.2308516,91.4393429 14.7993727,88.544478 C15.4933868,107.894654 14.0696544,127.452376 16.4436685,146.704063 C18.0102178,148.830881 14.8684572,150.827507 13.0344431,149.495155 C10.7599361,147.760181 11.7353586,144.365895 11.2811333,141.868157 L11.2228607,140.253473 C10.5862167,122.839136 9.71648328,105.058902 12.9611333,87.8837969 L11.5654753,87.34208 C7.3110604,85.6804948 -3.62996953,81.2370437 -2.19520474,79.044705 C9.22697835,49.103977 34.7778938,13.2927832 68.6181051,14.9945758 C69.4754291,15.5897382 69.9131755,16.7492059 70.549091,17.5802353 L71.5556977,17.2147475 C75.454738,15.7870292 79.68906,13.976865 79.8045136,9.17589088 C80.5426826,5.08499459 81.1281051,0.993252911 81.5151474,-3.14012478 Z M137.282823,71.4885093 C142.130359,64.7058557 108.509654,75.4255425 106.119161,76.1331433 L105.219081,76.4612774 C90.4935786,81.8164099 74.6188995,86.995014 62.8771192,97.6695269 C62.6303586,97.9398439 62.9375417,98.3132999 63.2567671,98.1617617 L63.2977175,98.1376072 C63.7648636,97.8776067 65.787422,97.1552419 64.3545136,97.4287989 C81.3203586,86.7255973 101.030992,80.8460435 120.290781,75.7036795 C123.089654,75.0267245 125.901838,74.4042979 128.725007,73.8376678 C131.572894,73.1452842 134.786485,73.1528928 137.282823,71.4885093 Z M84.1562037,69.2809555 C84.570922,67.5901531 87.3571192,52.0518909 82.7295136,56.3146149 C81.4957107,58.5504897 81.0220488,61.1412216 80.8000065,63.6588263 C80.2031755,66.5940592 81.7095136,69.757339 80.2447953,72.4632568 C78.9334572,75.9974564 74.1138093,80.1261844 73.7918375,73.5599535 C81.6771896,73.2904819 79.3099361,63.2953038 73.941415,66.3854564 C71.0018375,68.9024271 70.4931051,73.6419574 71.9647953,77.1142314 C69.588246,74.5264584 65.7347248,74.517793 62.9840206,72.5649163 C58.0164854,67.1932373 66.3600769,61.6032333 70.9033868,59.6685328 C71.1592319,59.3868028 74.8838798,58.0882666 74.094584,57.9312333 C70.5279643,57.964204 66.9537389,58.7233742 63.8757812,60.5999535 C57.5052178,63.7091277 55.3369784,73.3354995 62.6244431,76.7090729 C64.2002882,77.4686658 65.9248657,77.8769946 67.4850769,78.6613155 C71.4167671,80.7000005 70.146415,83.2622001 66.0875417,83.3374408 C64.4181051,83.7022314 58.9088798,82.1735347 59.5257812,85.1005249 C60.5223305,86.9303958 62.6924713,87.2030376 64.5936685,87.2541844 C69.6750769,87.6027011 75.9936685,84.731296 73.1219079,78.7515621 C76.5883868,81.7058165 80.9170488,77.5756091 82.4026826,74.3658322 C84.2130347,77.9171512 88.7637389,76.8477187 91.3319079,74.7462627 C95.2559924,77.8376834 100.179795,74.4015504 101.927823,70.5638517 C101.963528,71.3623331 101.999232,72.1606032 102.037894,72.9590846 C102.116908,74.5955699 104.652119,75.1209868 105.026908,73.3638204 C105.596908,70.6923527 106.382823,68.0506854 107.46388,65.5396326 C109.950922,58.9385288 111.471626,61.914975 111.558246,67.0877735 C111.864584,69.0298713 112.836838,70.7701296 114.982683,70.9009555 C115.580781,70.9375191 116.360992,70.405339 116.454373,69.7801648 L116.577929,68.9530347 C116.839322,67.2198234 117.142143,65.4350506 117.796345,63.8065602 C118.426556,69.1972607 125.483739,69.1712647 127.451274,64.7014173 C131.53356,67.1522078 135.816905,63.7283825 137.720039,60.1873653 L137.776978,60.0800318 C138.442049,58.8689946 136.752119,57.4043371 135.785992,58.5433038 L135.45067,58.8926376 C133.628659,60.7791526 130.729759,63.5145544 128.33395,61.1847598 C128.413598,60.1341375 128.381485,59.0609007 128.316838,58.0273977 C128.239302,56.7948028 126.538598,55.6983175 125.571626,56.8005093 C124.208739,55.6420983 122.51564,55.8088537 121.090007,56.6170572 C117.397049,57.6609163 115.070781,61.2572529 114.269654,64.8316091 C114.184514,61.9756326 113.250499,58.8770259 110.114232,58.6083997 C106.901063,58.5811355 105.671063,62.1747245 104.575218,64.5932059 C104.511626,63.5100357 104.450359,62.4270768 104.395218,61.3436952 C104.300689,59.4797948 101.716111,59.4992814 101.504471,61.2885794 L101.498739,61.3439065 C101.091626,65.2109829 98.9504291,74.4744662 93.5474713,72.6617148 C95.8257812,70.1510846 99.9469784,62.5006267 96.0290206,60.1176521 C89.9992319,58.599523 86.9062741,68.1147245 89.4778234,72.5427245 L89.3443509,72.6363533 C87.8753456,73.6501342 85.4476699,74.7787007 84.6275417,72.5063723 L84.5345878,72.2968057 C84.1134263,71.3360741 83.7416102,70.2953936 84.1562037,69.2809555 Z M75.5306544,68.2085218 C76.6723446,67.541923 77.0786122,69.7496881 76.7872741,70.4906823 C76.3203727,71.6793163 75.0468516,72.3414768 73.7775558,72.7946118 L73.7819053,72.6601581 C73.8379656,71.3027251 74.2905101,68.9338067 75.5306544,68.2085218 Z M94.7486122,62.697584 C94.7743868,62.8567308 94.7323446,63.0509617 94.7270629,63.1986956 C94.5318516,65.8010517 93.3745276,68.2998463 91.7648798,70.3307112 C90.83826,67.5715331 92.0325558,63.9253179 94.7486122,62.697584 Z M122.19707,59.4430009 C122.936929,59.2479245 123.721154,59.3026643 124.48383,59.5089421 C124.428478,60.3763238 124.616718,61.2439167 124.994253,62.0400733 C123.02545,67.9549226 118.396999,63.4018032 122.19707,59.4430009 Z" id="ðŸ–-Ink" fill="#000000"></path>
                </g>
                <g id="head/hat-beanie" transform="translate(78.591549, 38.043053)" fill-rule="evenodd">
                    <path d="M51.6094264,12.4075623 C61.0482461,12.4075623 72.3731226,16.9948296 73.3359929,17.0865749 L73.3619864,17.0879697 C73.8685772,17.0879697 75.8480402,18.5998047 79.3003757,21.6234749 L75.5611066,28.9349282 L75.8637104,29.2246001 C77.3117623,30.6164137 78.5479646,31.8850112 79.5237428,32.8850476 C87.4910497,41.0504247 88.9230381,73.1100521 87.0454104,84.2903025 C85.1677828,95.4705529 81.6900498,106.410634 65.499246,106.410634 C49.3084422,106.410634 31.2958049,96.6510448 28.5210708,93.6117924 C26.671248,91.5856241 24.5934143,90.614914 22.2875695,90.6996621 C22.1928001,90.5797811 22.0987952,90.4602512 22.0055549,90.3410724 L21.6662935,90.2928919 C18.4750517,89.8295513 16.1884515,89.2059005 14.8065797,88.4221476 C12.1073949,86.8912577 9.1406639,78.8431922 9.1406639,77.0703055 C9.1406639,75.3151477 4.71071117,62.5469812 4.62211212,61.1958146 L4.62076519,61.1583879 C4.62076519,60.0288611 -1.16652277,54.8365017 -1.16652277,53.1875104 C-1.16652277,51.5385191 -2.33304553,51.6385642 -1.16652277,45.8277744 L-0.827614814,44.1207341 C0.413748585,37.9339543 2.84343602,27.6895419 12.1073949,23.2380361 C22.2875695,18.3462714 42.075265,12.4075623 51.6094264,12.4075623 Z" id="âœ‹-Skin" fill="#D08B5B"></path>
                    <path d="M51.6078286,12.4696673 C61.0466483,12.4696673 72.3715247,17.0569346 73.3343951,17.1486799 L73.3603886,17.1500747 C73.8669793,17.1500747 75.8464424,18.6619097 79.2987778,21.6855799 L78.4594664,23.3254734 C59.8754141,23.6913608 47.0843464,25.205558 40.0862634,27.868065 C31.9732764,30.954751 26.880313,42.68156 24.8073731,63.0484922 C21.9728087,64.3942727 19.1382443,66.1655884 16.30368,68.3624394 C13.4691156,70.5592905 12.7516064,71.6939683 14.1511525,71.766473 C14.0292208,76.4744008 14.4050083,79.7621109 15.2785149,81.6296032 C16.1520214,83.4970955 19.1754994,84.5961052 24.3489486,84.926632 L24.3489486,84.926632 L25.6632504,89.3389913 L25.4810326,91.3837009 C24.4696801,90.9279626 23.4046598,90.7206513 22.2859717,90.7617671 C22.1912023,90.6418861 22.0971974,90.5223562 22.0039571,90.4031774 L21.6646957,90.3549969 C18.4734539,89.8916563 16.1868537,89.2680055 14.8049818,88.4842526 C12.1057971,86.9533627 9.13906609,78.9052972 9.13906609,77.1324105 C9.13906609,75.3772527 4.70911335,62.6090862 4.6205143,61.2579196 L4.61916737,61.2204929 C4.61916737,60.0909661 -1.16812058,54.8986068 -1.16812058,53.2496154 C-1.16812058,51.6006241 -2.33464335,51.7006692 -1.16812058,45.8898794 L-0.829212632,44.1828391 C0.412150766,37.9960593 2.8418382,27.7516469 12.1057971,23.3001411 C22.2859717,18.4083764 42.0736672,12.4696673 51.6078286,12.4696673 Z" id="ðŸ§¢-Hat" fill="#9DDADB"></path>
                    <path d="M10.5360139,23.008227 C15.6131827,17.6057331 44.437113,9.24935967 59.0199394,11.0207121 L59.457445,11.0775029 C60.6211819,11.2254481 61.768053,11.4494795 62.8999557,11.7538239 C66.5585589,12.6104266 70.3377521,13.9074834 73.3607273,16.0740352 C75.8844762,17.8464188 83.8457433,20.7408611 81.4992956,25.3774638 C82.3693576,27.0300117 82.6940233,29.0716556 82.1060411,30.6992642 C82.0320426,31.261456 81.8591686,31.7792642 81.6380164,32.3160939 C83.4968331,35.0659726 84.9685807,38.1757808 86.1599352,41.1336282 C88.2418014,48.5775969 89.537302,56.3244305 89.7270417,63.9193033 C90.3582424,78.3486106 88.7800297,95.5844384 76.2441383,104.915131 C68.6712051,110.827656 56.8086788,111.026325 48.2984314,103.695429 C47.8154384,103.122458 45.5442542,101.576219 46.3021589,101.305057 C46.5277383,101.543883 46.7596424,101.776368 46.9957629,102.004626 C46.985011,101.979264 46.9829028,101.953902 46.98733,101.926427 L46.7652446,101.724804 C46.3470322,101.336936 45.8052379,100.774384 46.4223274,100.88447 C46.4495234,100.916172 46.4792493,100.943648 46.5085535,100.97535 C46.6392499,101.053946 46.737987,101.122085 46.8148124,101.18216 L46.8543311,101.213866 L46.8421218,101.201134 C46.4866571,100.82114 46.2735487,100.433564 46.8050272,100.681094 L46.8753836,100.715389 C47.111715,100.964783 47.3518411,101.203609 47.5963945,101.436094 C47.5923889,101.408618 47.5963945,101.381143 47.6113629,101.351554 L47.3833484,101.13073 C47.1607706,100.912076 47.1947416,100.911143 47.3035629,100.734411 C46.8304786,100.069714 47.7136115,100.464517 47.7755931,100.723843 C48.3281573,100.592806 48.8132585,101.63265 49.1691258,101.75946 C64.7697351,113.783178 87.4092658,103.114427 87.0426465,69.6101213 L87.0370483,68.9545949 C86.929824,58.2413582 86.0305159,47.2301458 81.6103988,37.5322192 C81.1805329,36.5980509 80.6996482,35.6892446 80.1706961,34.8100274 C79.8059742,34.1506145 79.4159537,33.5081096 78.9964181,32.8825127 C77.8219294,32.7874051 76.6624089,32.5718278 75.5199651,32.2378943 C75.1276256,32.1385597 74.7397133,32.0286575 74.3520118,31.8997339 C68.6851193,32.2095734 63.1445091,32.5466771 57.461805,32.8662387 L55.6867843,32.9770686 C50.8728566,33.2873268 45.8943366,33.7842578 42.0096143,36.7692446 C38.1979545,39.4867867 38.1806671,44.8455734 34.9177767,47.8292055 C30.2649375,50.9950215 30.2309951,53.8497299 29.3350021,58.5150763 C29.401411,62.0319452 31.833874,67.1417613 27.370142,68.6218474 C28.1231979,69.6982544 27.0735156,69.1810802 26.9908735,68.8036086 C26.9824406,68.8057221 26.9740077,68.8078356 26.9676831,68.8078356 C27.6387291,70.0583953 26.6522935,69.2709041 26.5650132,68.8691272 C26.5123078,68.8543327 26.4596023,68.8162896 26.4068968,68.7634521 C27.0830026,69.859092 25.9901019,69.0918904 26.0548243,68.8923757 C24.748361,66.8792642 22.0595386,66.5666771 20.1642497,67.1001252 C20.1410593,67.1719843 20.0569414,67.1783249 20.0042359,67.1402818 C11.9451474,68.8911076 14.0244837,85.6165245 22.2832206,83.9996947 C22.6367689,83.9274129 22.628336,84.0975499 22.6985397,84.1138239 C22.5077459,83.6116556 23.0455525,83.8160313 23.0398604,83.9214951 L23.07263,83.9199 C23.0985964,83.9176047 23.0879746,83.9147554 23.1073234,83.9214951 C22.9228542,82.894544 23.9609412,84.3824501 23.8789315,84.4435303 C23.9107656,84.4245088 23.9466053,84.4139413 23.9782286,84.4097143 L23.9424941,84.3122287 C23.7702123,83.8521113 23.7849816,84.0433546 23.7861699,83.7798904 C23.6567252,83.4541996 23.6472382,83.5966497 23.6775966,83.384454 C24.1325502,83.0310763 24.2668438,84.103045 24.4186355,84.181456 C24.1584813,83.8179335 24.3652976,83.5209863 24.6106943,83.7183875 C26.4707759,87.6406262 28.873513,91.3259413 31.9787086,94.2290489 C32.3183427,94.4974638 32.6619824,94.7616517 33.0180606,95.011045 C34.3388597,96.1643836 36.3648581,96.9060117 37.6013285,97.9276791 C37.6013285,97.9445871 37.5931065,97.9657221 37.5804572,97.9868571 L37.60876,98.0124834 L37.60876,98.0124834 L37.6373791,98.0396947 L38.0674557,98.246818 C38.1939489,98.3546067 38.3077927,98.4750763 38.4087764,98.608227 C38.5165064,98.7329237 38.6111654,98.8703014 38.6914885,99.0161331 C38.7315447,99.1936673 38.6429995,99.2676399 38.474342,99.1915538 C38.4003435,99.1661918 38.3267667,99.1366027 38.252979,99.1091272 C38.2571954,99.1154677 38.2590928,99.1196947 38.2635201,99.1239217 C38.2877119,99.1606061 38.4514786,99.5412065 38.2627725,99.4792782 L38.2403297,99.4705362 C38.1368161,99.4324932 38.0337242,99.3902231 37.9325297,99.3500665 C38.0526982,99.5001252 38.1621148,99.662865 38.2590928,99.8002427 C38.3626064,99.9080313 38.4256421,100.034841 38.4511516,100.17856 C38.4467243,100.258873 38.4026626,100.292689 38.3225502,100.282121 C38.2002735,100.241965 38.0801051,100.199695 37.9597258,100.155311 L37.9939601,100.220782 C38.0790112,100.388494 38.1998859,100.669779 37.9852352,100.575898 C37.8016093,100.518834 37.6247298,100.453315 37.4476394,100.381456 C37.432671,100.411045 37.4033668,100.421613 37.3443366,100.394137 C36.7814422,100.193354 36.2375217,99.9481879 35.7167916,99.658638 C35.2593081,99.3247045 34.7973974,98.9971115 34.3380164,98.6652916 C33.9056207,98.4053307 33.4881934,98.1157808 33.0899508,97.7903014 C30.4238972,96.0639922 28.089888,93.8710215 26.2382393,91.4286575 C23.1414765,94.1172446 16.9498483,91.5487045 13.119847,89.4440783 C9.73214998,87.5630607 8.4005989,84.0850802 8.05632675,80.3353033 C7.34058642,75.2869902 3.22534306,73.5589902 3.5116392,62.4821213 C3.50531454,62.4842348 3.49877906,62.4842348 3.49034618,62.4842348 C3.34066264,62.4398513 3.19540636,62.3806732 3.05837213,62.3045871 C2.91712146,62.236955 2.78430366,62.1566419 2.65970792,62.0594207 L2.50580794,61.8459569 L2.50580794,61.8459569 C2.42590644,61.8015734 2.354227,61.7550763 2.29941331,61.7085793 L2.27098664,61.7453318 C2.18100168,61.8541923 2.24148999,61.6904031 2.24670784,61.6578552 L1.97935479,61.2933606 C1.34544095,60.4256995 0.649969168,59.4521507 0.0834643876,58.673589 L0.0656201275,58.7052238 C0.0528048608,58.7291008 0.0460284428,58.7463539 0.0520519255,58.7539022 C-1.29615408,56.8120157 -2.56403695,54.4664501 -2.91632033,52.1957025 C-3.33227193,50.4465675 -3.16972825,48.6441722 -2.80690377,47.0239609 C-1.25124902,41.3502622 3.84473779,28.5111546 10.5360139,23.008227 Z M47.1236866,101.472664 L47.0392029,101.397234 L47.1134875,101.49054 C47.1524152,101.53876 47.1922679,101.582099 47.2571821,101.626309 C47.2529656,101.611515 47.2529656,101.59672 47.254863,101.579812 C47.2118128,101.546867 47.1677947,101.510839 47.1236866,101.472664 Z M58.9554781,13.8715538 C49.0662447,13.0191781 39.339555,15.203272 29.9027455,17.8470528 L29.2517547,18.0346301 C23.8858856,19.569572 18.2120417,20.9507731 13.6774709,24.2361722 C7.34206218,29.1008219 4.07052804,36.8396243 1.21557796,43.9847436 C-1.27739093,49.2934403 -0.0029725887,55.2795147 3.75387355,58.9863875 C4.14473734,55.3027632 4.81114535,51.7269276 5.8526055,48.1798356 C6.06996287,47.6256751 5.9055218,47.4441252 6.37396804,47.3718434 C7.08148632,56.9307945 3.59681124,63.9932759 10.4927954,75.3220744 C13.4849905,80.667546 10.0211868,84.5787945 18.4709283,87.3916556 L18.6995943,87.4792497 C20.4599743,88.1451832 22.3824299,88.6708356 24.1066191,88.2985597 L23.9521485,88.0466646 C23.794611,87.7872612 23.7468055,87.6613386 23.9759096,87.5503796 C23.9697957,87.5376986 23.9613629,87.5250176 23.9527192,87.5102231 C23.7674067,87.1593816 23.5882081,86.8043131 23.4172315,86.4450176 C23.3478711,86.4682661 23.2782999,86.4851742 23.2064097,86.5041957 C23.2530013,86.5908493 23.2591151,86.6775029 23.1286164,86.707092 C22.6640493,86.8668728 22.186994,86.9309166 21.6986504,86.9009418 L21.593833,86.8930802 C21.0421121,86.8592642 20.6944668,86.7584501 20.3835045,86.6648219 C20.2804126,86.6479139 20.1771099,86.6310059 20.0757045,86.6098708 C19.0753547,86.3875303 18.0163963,85.8219569 17.3310143,85.261456 C9.51837658,80.812955 10.3258244,65.6699178 19.9557469,64.2384423 C20.153287,54.7040078 24.6768924,38.6185597 32.18426,29.5332446 C38.9701951,21.1762427 57.4959581,17.5541213 70.3847654,18.8313112 C70.5726077,18.8936595 70.76045,18.9566419 70.9482923,19.0202583 C72.9367644,19.1973699 74.8318424,20.0854638 76.8217903,20.4980196 C75.3930503,19.4245714 73.7722516,18.7095734 72.102753,18.1019413 C68.7764052,16.0621996 64.9630588,14.9585284 61.2789462,14.1801252 C60.5157709,13.9920235 59.7420546,13.8884618 58.9554781,13.8715538 Z M19.5149815,71.8977558 C20.0327601,71.6158145 19.9735192,71.8880337 20.0926335,71.8089886 C23.8170131,71.5044329 27.8329594,74.7733879 29.9148255,77.4985386 C29.7503845,77.6697323 29.3055503,77.1624916 29.2275462,77.0821785 C29.2170051,77.092746 29.2043558,77.1012 29.1917065,77.105427 L29.2496769,77.1874494 C30.0934781,78.4013886 28.4207352,76.9729193 28.2640901,76.6784994 C28.2366833,76.6932939 28.2092764,76.7017479 28.1776531,76.6954074 C28.3102601,76.8258106 28.715249,77.1658732 28.7848202,77.4076579 L28.8921906,77.4972352 C29.9046425,78.3664083 29.820616,79.0202421 28.6711872,77.785975 C28.6983832,77.8430395 28.7089243,77.8958771 28.6899503,77.9381472 L28.729528,77.9645876 C29.2947513,78.3605602 29.7595936,79.4643749 28.5782147,78.3312587 C28.7011239,79.1589065 27.4075208,77.5591961 27.3659889,77.5703977 C25.127482,75.808793 21.8317033,74.0955875 19.0237665,73.865427 L18.9271237,73.8542957 C18.4118642,73.7879265 18.1682513,73.6346627 18.3491365,73.2968947 C17.7145626,73.1455679 17.863192,72.8323468 18.1636132,72.8424916 C17.7160383,72.5474466 18.118919,72.2652939 18.3786515,72.3754074 C18.2000854,71.879791 18.9162474,72.2099202 18.9816022,72.1408086 C19.3532812,71.5661472 19.4534216,72.0454896 19.5149815,71.8977558 Z M11.7082679,41.1779906 C13.4970917,40.5211139 18.7809208,42.487517 18.3582229,45.0917753 C18.1065016,45.6896853 17.2771282,46.0322841 16.6942057,45.6947577 L15.9333857,45.1824955 C14.6093605,44.2935638 13.4152373,43.5140899 11.9937208,42.7388125 C11.2200044,42.3539436 10.8869058,41.5368634 11.7082679,41.1779906 Z M21.8856737,37.3079131 L21.1948232,36.8572074 C17.4666623,34.4111231 12.1962784,30.7047213 21.5430882,34.5394356 C22.6083712,34.9974317 24.0238294,35.2683828 24.6050653,36.2854004 C25.518135,38.1598661 23.115187,38.2858309 21.8856737,37.3079131 Z M22.304619,26.3327037 C22.0054627,25.1945824 25.7279449,26.5301049 26.8115694,26.8822145 L26.9766201,26.944708 C28.030733,27.3384701 29.2390571,27.7037542 29.869541,28.6157096 C30.6082609,29.87578 29.1131121,30.1367977 28.1869715,29.5676313 C26.2880987,28.3236235 24.2062325,27.3850168 22.304619,26.3327037 Z M31.7705853,21.0310027 C29.6753087,18.7371398 35.2828628,20.9345822 36.1228443,21.5445568 L36.1468261,21.5625487 C36.7735996,22.0049049 36.646474,22.957672 36.0576485,23.2374998 C34.3822469,23.2694137 33.1493604,21.8694294 31.7705853,21.0310027 Z M41.3052162,18.5177941 C37.9742303,16.1179115 42.3620664,17.2594145 43.8860978,18.1999233 C44.9248173,19.1182403 43.8548962,20.6684947 41.3052162,18.5177941 Z" id="ðŸ–-Ink" fill="#000000"></path>
                </g>
                <g id="face/Tired" transform="translate(112.183099, 77.354207)" fill="#000000" fill-rule="evenodd">
                    <path d="M39.9421268,48.4226982 C41.277338,48.1113793 42.3260704,49.242526 42.0636761,50.5450779 C41.7858592,51.9239272 40.3038169,52.3965065 39.0611408,52.3531796 C37.6521972,52.3043577 36.2443099,52.0133284 34.8283944,51.9547843 C33.3738169,51.8947609 31.9137465,51.8837706 30.4583239,51.9230818 C29.1121268,51.9594341 27.7304366,52.1967804 26.3948028,51.9837393 C25.874662,51.9006787 25.9238873,51.2137902 26.262338,50.9696806 C27.2671268,50.2447491 28.5693803,49.9492814 29.7537465,49.6451483 C30.9613521,49.3348861 32.1957887,49.0973284 33.4342394,48.9523421 C34.6898028,48.8054536 35.9557183,48.7321151 37.2195211,48.7177432 C37.7948028,48.7111914 38.5002254,48.8390583 39.0611408,48.7354967 C39.3469859,48.6824477 39.6381127,48.4937119 39.9421268,48.4226982 Z M36.0875289,30.5120405 C37.6828906,31.482148 40.1137318,33.7442494 38.3974899,36.149264 C36.3773089,38.2698449 33.4687045,35.8384541 32.0353946,34.7388307 C30.7063626,33.8866164 29.2131206,36.0784478 30.4461973,37.0735516 C40.8033244,44.7445605 45.006466,30.7657101 36.8944406,29.3714319 C36.0012775,29.2177885 35.6695544,30.2119271 36.0875289,30.5120405 Z M24.5195704,23.2678708 C26.6535845,22.9128023 27.0268944,25.9562466 24.9118944,26.168865 C24.4680211,26.2134599 24.0266831,26.2523483 23.5861901,26.2910254 C23.6290775,26.4288258 23.6575986,26.5706419 23.6732324,26.7164736 C23.6933028,26.8403249 23.7083028,26.9717847 23.7216127,27.1220548 C23.7885845,27.8708689 23.2578803,28.6494834 22.6378099,29.0125832 C21.9934437,29.3898434 21.0685141,29.4401448 20.4285845,29.0125832 C20.0985845,28.7919335 19.769007,28.5431742 19.5871056,28.1783836 C19.3430915,27.8036595 19.209993,27.3699687 19.1964718,26.924865 C18.2235845,27.1776399 17.2329507,27.5193933 16.2503451,27.7005205 C16.2864718,27.7360274 16.3219648,27.7738591 16.3564014,27.8154951 C16.3825986,27.847409 16.3466831,27.9072211 16.3084437,27.8778434 L15.8155563,27.7685753 L15.8155563,27.7685753 C15.6638662,27.7884423 15.5121761,27.8047162 15.3609085,27.814227 L15.3645,27.8009119 L15.3645,27.8009119 C15.1116127,27.7964736 14.9045704,27.4974129 15.130838,27.2581644 C15.9989644,26.3402144 17.353571,25.730161 18.5885778,25.2200846 L19.778498,24.7320764 C21.3000321,24.1134321 22.906201,23.5363182 24.5195704,23.2678708 Z M41.6872394,24.2093941 C43.0849859,24.0498247 44.469,24.1132297 45.8690704,24.1986153 C48.225338,24.3421221 47.2370282,27.7795233 45.3457606,26.9859029 C45.3651972,27.1116564 45.3702676,27.2376211 45.3556901,27.3549205 C45.2817465,27.959171 45.0848451,28.4697933 44.5304789,28.7944274 C44.0156197,29.0958129 43.3630141,29.0949675 42.8481549,28.7944274 C42.2967465,28.4727523 42.0480845,28.0194059 41.9073803,27.4303726 C41.7983662,26.9736446 41.8420986,26.5915233 41.9050563,26.1392337 C41.9259718,25.9893863 41.9912535,25.8496838 42.0816761,25.7241417 C41.9498451,25.691171 41.8178028,25.6592571 41.6855493,25.6294568 C40.5096338,25.3618873 39.3495634,25.4155703 38.1770282,25.2460673 C38.0519577,25.2278912 38.0320986,25.0258403 38.1415352,24.9744822 C39.1951268,24.4792885 40.5345634,24.340854 41.6872394,24.2093941 Z M24.3041197,13.5930787 C25.1107394,13.2851413 26.1239789,13.7972431 26.5357394,14.5016719 C27.0030634,15.3010004 26.8034155,16.2237558 26.2266549,16.8973292 C25.3419051,17.9305929 23.6569785,18.5671183 22.4151509,19.1567194 L22.3154577,19.204429 C21.0402465,19.819881 19.7301761,20.3850317 18.4023592,20.8774779 C17.0965141,21.3621041 15.7380634,21.7416892 14.3842606,22.0675914 C13.6703873,22.2394192 12.9413028,22.3814466 12.2117958,22.4710591 C11.6358803,22.5416501 11.1917958,22.3835601 10.6408099,22.3835601 C10.5603169,22.3837714 10.5351761,22.2770395 10.6008803,22.2360376 C11.1157394,21.9122489 11.4979225,21.4859554 12.0594718,21.1860493 C12.6442606,20.8738849 13.231162,20.5670043 13.8201761,20.2630826 C15.0110915,19.6488986 16.1578521,18.9653918 17.3067254,18.2774466 C18.5177113,17.5523037 19.7012324,16.7886951 20.8522183,15.9711922 C21.9784859,15.1712313 23.0164437,14.0844681 24.3041197,13.5930787 Z M38.6780915,12.9353777 C39.6854155,12.7398787 40.6830211,13.2166849 40.9811197,14.243636 C41.2669648,15.2274716 40.9680211,15.4383992 41.7304859,16.142407 C42.3382866,16.7034608 42.9935912,17.2042359 43.654954,17.6973536 L44.6283687,18.4212746 C46.3914775,19.7268939 48.169162,20.9613487 50.1964014,21.8423131 C50.3677394,21.9167084 50.2686549,22.1713855 50.1061901,22.1747671 C46.8835141,22.2369041 43.7933028,21.8004658 40.8843592,20.3571546 C39.5254859,19.6829472 38.1602746,18.8301487 37.3728803,17.4842701 C36.460838,15.925773 36.4874577,13.3601918 38.6780915,12.9353777 Z" id="ðŸ–-Ink"></path>
                </g>
                <g id="facial-hair/*-None" transform="translate(104.577451, 109.479380)"></g>
                <g id="mask/medical-mask" transform="translate(83.450704, 97.432485)" fill-rule="evenodd">
                    <path d="M83.0825493,14.8698035 C82.6843099,9.82212446 76.3219859,7.68389354 73.1529718,7.04984266 C62.6005775,4.56816751 53.6229718,10.9353065 41.0402958,11.0654982 C39.7703662,11.0853652 36.1386761,10.871056 34.4498028,10.4248955 C25.881,8.47709119 17.3210704,6.40522427 8.91346479,3.85063327 C7.67733803,4.14018317 7.3116338,5.75426536 8.16029577,6.67385049 C16.2129718,9.53067241 28.5326197,12.0888564 35.0383944,12.3800971 C34.9135352,20.7876117 30.4769155,29.2416235 24.3501549,33.8913299 C34.0944507,44.6712517 56.8202958,48.2164415 70.1948028,42.5579601 C76.7738873,40.5826802 83.7163521,22.9011147 83.0825493,14.8698035" id="ðŸŽ¨-Color" fill="#FFFFFF"></path>
                    <path d="M8.23354225,4.10507789 C7.87121831,4.09091742 8.08248592,3.03416595 8.89861268,3.18485871 C19.4290352,5.64856908 32.5487535,10.341391 43.3726268,10.3069409 C51.3350915,10.0461346 58.4698099,5.60989198 66.4762183,5.58305049 C71.8582606,5.68618943 78.7210775,6.45191155 82.4875563,10.7723342 C87.4555141,26.5344164 76.2682606,47.9729448 58.6660775,48.0970074 L55.3344357,47.8558609 C43.978046,47.0188669 31.5368535,45.6797202 24.216993,36.041164 L24.1599507,36.0901973 L24.1599507,36.0901973 C23.0653732,35.3555436 23.1264296,33.768937 24.0566408,32.9529135 L24.0843169,32.9964517 L24.0843169,32.9964517 C24.1020634,32.967708 24.1217113,32.9402325 24.1407254,32.9121229 L24.1288944,32.8751366 L24.1288944,32.8751366 C24.4867817,32.4993558 24.8936831,32.1478802 25.2636127,31.8331796 L25.2655141,31.8393088 L25.2655141,31.8393088 C30.7618521,27.2582912 34.3506549,20.3312853 34.5572746,13.1582677 C32.7376268,13.6583225 2.16593662,7.3178137 7.62319014,5.7705182 C11.5265704,7.09061213 15.4529789,8.28283914 19.4586127,9.23180196 C19.5257958,9.19397025 19.6221338,9.20390372 19.6591056,9.27851037 C24.5592465,10.4848978 29.5582606,11.1743225 34.5638239,11.7324986 C34.5585423,11.4932501 34.5494577,11.2540016 34.5372042,11.0143303 C25.6369225,9.28104658 16.9115704,6.7076454 8.23354225,4.10507789 Z M80.3017817,10.5020172 C62.0463592,1.27636556 52.984669,14.9061346 35.3292465,11.1533988 C37.1763592,19.3973284 32.6153028,28.2848196 26.4203028,33.6712932 C35.4215704,41.4650466 39.3173451,42.6452266 51.1250915,43.9101581 L52.6676413,44.0939068 C54.986901,44.36868 57.3279277,44.6249832 59.6543873,44.6651014 C71.721993,43.7865182 80.8405141,31.226393 82.2050915,19.8462364 L82.2124871,19.5318664 C82.2736535,16.6437406 82.1410478,13.5866266 80.8620634,10.9407804 C80.6265,10.8587765 80.4217817,10.7110427 80.3017817,10.5020172 Z M54.8870915,17.744083 C55.5179366,17.6020556 56.161669,18.2906348 55.7706127,18.8936172 C54.5070211,20.8433237 51.4168099,21.5986896 49.2555423,21.9051476 C46.7526549,22.2600047 44.3264577,21.9801769 41.9488521,21.1261104 C41.8214577,21.0802474 41.8305423,20.8549479 41.9830775,20.8731241 C44.2406831,21.1419616 46.568007,20.9451945 48.7615986,20.3474959 C50.9858239,19.9140164 52.7818099,18.4341417 54.8870915,17.744083 Z M72.0396905,16.3396814 C72.0292183,15.9691843 73.8499225,17.041153 74.1378803,17.1855053 C76.3616831,18.5212391 78.9357676,18.6190943 81.3883732,19.1434544 C81.9600634,19.362836 81.9592183,20.089881 81.388162,20.3092626 C78.3271056,21.1235953 73.6815423,18.9864211 72.0396905,16.3396814 Z" id="ðŸ–-Ink" fill="#000000"></path>
                </g>
                <g id="accessories/*-None" transform="translate(88.521127, 88.978474)"></g>
            </g>
        </g>
    </g>
</svg>