<?xml version="1.0" encoding="UTF-8"?>
<svg width="195px" height="234px" viewBox="0 0 195 234" version="1.1" xmlns="http://www.w3.org/2000/svg" xmlns:xlink="http://www.w3.org/1999/xlink">
    <!-- Generator: Sketch 62 (91390) - https://sketch.com -->
    <title>bust-mask-5</title>
    <desc>Created with Sketch.</desc>
    <g id="Introduction" stroke="none" stroke-width="1" fill="none" fill-rule="evenodd">
        <g id="busts-covid-19" transform="translate(-1429.000000, -237.000000)">
            <g id="a-person/bust" transform="translate(1388.000000, 188.000000)">
                <g id="body/jacket-polka-dots" transform="translate(31.056338, 135.052838)">
                    <path d="M96.5294388,-8.20398886 C102.68414,-7.90014694 112.267221,-5.2605674 112.746327,-3.57356529 C113.494441,-0.939338707 111.886813,8.93651318 114.575699,14.2560019 C115.721936,16.5236299 120.074486,16.3203327 121.761011,17.058845 C127.40385,19.5297876 144.10913,24.2160289 147.553473,30.116861 C148.933376,32.4809046 157.413539,61.8141295 161.91958,76.7790829 C162.427595,78.4662469 163.001372,80.0266405 163.625163,81.4718358 L163.854409,80.3488745 C165.691651,71.3040414 166.610272,65.8285112 166.610272,63.9222839 C166.610272,60.9438038 164.235268,48.3770122 166.610272,45.1812251 C168.961526,42.0173959 174.627916,39.4304924 177.177286,39.3790708 L177.253579,39.3782906 C178.927481,39.3782906 180.37991,38.8548574 181.610868,37.807991 L183.41567,36.8999927 C192.597097,32.2910398 197.961285,29.7628645 199.508234,29.3154671 C201.97677,28.6015349 206.177957,30.1225664 204.077364,32.4060064 C202.676968,33.9282997 199.157942,36.6212538 193.520286,40.4848687 L191.394582,42.1745075 L191.65139,42.308712 C194.398653,43.7555462 196.014005,44.9733362 196.497448,45.9620822 C196.995766,46.9812511 196.756655,48.1868103 195.780116,49.5787598 L195.928247,49.7232347 C197.163154,50.9356179 197.780607,51.7488493 197.780607,52.1629288 L197.780607,54.1857125 C199.009142,55.9856226 199.316276,57.4866817 198.702008,58.68889 C198.087741,59.8910983 197.113777,60.9328448 195.780116,61.8141295 C194.797391,64.4002071 193.627088,66.2407704 192.269206,67.3358195 C190.911325,68.4308686 188.564535,69.3424487 185.228836,70.0705598 L182.21032,77.290762 L179.764431,87.4344014 L178.531979,98.7528927 L178.889811,99.0120526 C180.54844,100.22056 181.610868,101.116426 181.610868,102.042237 C181.610868,103.484412 174.918602,137.401666 164.506586,138.919713 C162.25476,139.248023 150.576578,137.637739 146.742174,134.517327 L146.798776,134.854353 C147.700976,140.30564 147.510119,143.136568 146.226204,143.347139 C130.447202,145.935005 85.6337658,146.734587 11.7858958,145.745885 C11.3465326,106.53586 13.333238,80.4225799 17.746012,67.4060458 C29.0319251,34.1155408 41.4751757,22.745141 45.8284264,21.7712984 C49.6416617,20.9182598 62.8646084,15.653353 66.560949,14.2560019 C68.9737918,13.3438597 69.4907159,10.6090566 72.2402689,10.6090566 L72.4625401,10.6101943 C75.1216202,10.6369087 77.4796389,11.1126385 78.8044512,9.74456083 C82.2811431,6.15432824 81.3092527,1.18477339 82.7515807,-3.57356529 C83.5462896,-6.19536422 88.976858,-8.57684053 96.5294388,-8.20398886 Z" id="âœ‹-Skin" fill="#D08B5B" fill-rule="evenodd"></path>
                    <path d="M72.2402689,10.6090566 L72.4625401,10.6090566 C73.1197324,10.6167968 73.7585349,10.6508266 74.3678946,10.6776695 L73.0839869,15.0541519 L73.0562087,15.5138018 C72.2225553,30.6027936 79.6086285,37.8260108 95.2144285,37.1834535 C110.820228,36.5408962 118.582726,31.6028978 118.501921,22.3694584 L118.497071,22.0883424 L118.497177,16.3423824 L118.742734,16.3894524 C119.927267,16.6112493 121.068737,16.755705 121.761011,17.058845 C127.40385,19.5297876 144.10913,24.2160289 147.553473,30.116861 C148.933376,32.4809046 157.413539,61.8141295 161.91958,76.7790829 C162.084238,77.3259292 162.255806,77.8594576 162.433745,78.3800623 L162.433769,81.3376674 L162.384785,81.5170611 C160.805484,87.4261644 162.908214,92.2574168 168.692973,96.0108184 C172.793233,98.671244 177.004234,100.398238 181.325977,101.191801 C181.511553,101.478916 181.610868,101.759177 181.610868,102.042237 C181.610868,103.484412 174.918602,137.401666 164.506586,138.919713 C162.25476,139.248023 150.576578,137.637739 146.742174,134.517327 L146.798776,134.854353 L146.851596,135.178286 C147.692905,140.417829 147.484441,143.14078 146.226204,143.347139 C130.447202,145.935005 85.6337658,146.734587 11.7858958,145.745885 C11.3465326,106.53586 13.333238,80.4225799 17.746012,67.4060458 C29.0319251,34.1155408 41.4751757,22.745141 45.8284264,21.7712984 C49.6416617,20.9182598 62.8646084,15.653353 66.560949,14.2560019 C68.9737918,13.3438597 69.4907159,10.6090566 72.2402689,10.6090566 Z" id="ðŸ§¥-Jacket" fill="#BA98DE" fill-rule="nonzero"></path>
                    <path d="M79.6204596,1.19687863 C79.9817272,0.480823837 80.9406709,0.573606616 81.5734174,0.898452017 C83.4712343,2.28638939 81.48553,4.97666728 80.96053,6.67042853 C79.6101075,9.9556575 77.2646146,13.1662798 74.0267272,14.7017397 C74.2950371,17.9675244 74.5990512,21.2261232 74.7112343,24.5020528 C78.851023,29.6389217 85.8306709,31.5138101 92.026516,32.9556418 C101.757713,35.6478219 112.740248,30.1320019 116.024615,20.5094344 C112.286657,18.3847299 111.076938,12.8215675 112.19222,8.94033069 C112.289192,8.66768881 112.711727,8.54721914 112.861938,8.85156356 C113.88553,10.9576692 113.749051,13.5270548 114.912713,15.6077984 C126.082009,16.6774422 140.496798,20.8934579 147.814051,29.9295283 C151.056798,34.4503111 152.341305,40.3300763 153.938488,45.5694501 C157.346234,56.3711409 160.061446,67.3913679 163.403488,78.2040489 L163.797568,76.158146 C164.877234,70.5223665 165.858337,64.810141 165.129122,59.0787495 L165.116073,58.8045078 C164.877836,54.2440509 163.451133,45.769324 166.986586,42.6904364 C170.184544,40.2457475 174.81722,38.2812465 178.830248,39.4081663 C185.971727,36.2290352 192.135671,30.8755323 199.741516,28.7903503 C202.082361,28.3084716 205.449967,28.8791174 204.896657,32.0559236 C203.363277,37.6121115 196.941798,39.7687299 192.552079,42.6337945 C195.365953,43.3965577 198.796305,46.8197984 196.597854,49.8049099 C196.57884,49.8577475 196.561938,49.8979041 196.545037,49.9296066 C198.327924,50.7200567 198.577643,52.7067495 198.140108,54.4102328 C198.095741,54.860409 197.977431,54.4736379 198.241727,54.881544 C200.253417,56.7794696 199.364192,62.0702015 196.333769,62.2490039 C196.53215,64.7558297 194.922502,67.1905851 192.883769,68.5580215 C190.686375,70.031133 187.509122,70.0945381 185.689896,72.1108199 C181.418699,79.6450352 179.945319,88.5395009 179.479685,97.1672426 C182.295248,98.2214579 184.821375,101.37417 182.263347,104.048808 C182.212854,104.054726 182.162361,104.060644 182.111234,104.064871 C180.628347,108.023673 180.055812,112.243704 179.271586,116.378139 C178.065037,123.4328 174.920741,129.910053 170.9056,135.786859 C166.262361,143.566029 153.776657,142.3328 147.486586,137.312385 C147.511727,138.629521 147.728699,139.938836 147.307009,141.211587 C146.684615,142.585153 145.167079,141.991681 145.016868,140.639039 C141.691727,142.509701 140.908558,136.33489 144.604896,137.314288 C144.32053,132.850358 144.155741,128.380088 144.022009,123.90855 C139.83722,125.263517 139.656798,118.318123 143.937291,119.706906 L143.932215,117.786811 C143.900743,103.063755 144.063356,88.2903366 146.0056,73.6832661 C146.185178,72.5905851 146.489403,71.5338336 146.666868,70.4474931 C146.685882,70.3352661 146.861234,70.36718 146.861868,70.4747573 C147.162502,90.9250117 145.826446,111.419016 147.220389,131.876456 C148.380882,132.230256 148.843558,133.562397 149.702784,134.338476 C151.610319,136.100292 154.208065,136.958162 156.748347,137.257012 C163.861727,138.254796 166.932924,136.081481 170.100671,129.896104 C168.671934,130.85127 166.741275,129.164516 167.612152,127.652929 L167.639403,127.60718 C168.54384,126.005356 171.097854,126.965309 170.774403,128.759039 C173.959262,123.657043 175.626164,117.903877 176.85722,112.066593 L177.023765,111.369218 C177.622185,108.891063 178.398803,106.051279 179.835882,103.809137 C171.072079,101.574742 162.499262,94.7669373 161.127924,85.4267338 C158.902854,92.4201037 155.888488,99.2562289 153.01546,106.057904 C152.128136,108.422914 151.758417,110.965247 150.486586,113.159274 C150.190812,113.666515 149.440812,113.535477 149.273488,113.00055 C148.129685,107.884605 151.595741,103.018476 153.395319,98.4131526 C154.864896,95.8103737 159.083065,83.9246673 161.698347,83.8959236 C158.759615,71.0103189 154.839967,58.22109 151.107079,45.4959002 C147.497572,28.313544 140.141868,25.0002054 124.559192,19.590272 C127.369896,33.9189765 140.202291,47.7888395 133.37391,62.8177475 L133.207852,63.2075 C132.509434,64.8646503 131.929266,66.5343232 132.416868,68.3530117 C132.890108,70.1177867 133.967572,71.6500763 134.829755,73.237317 C139.648347,82.2030078 136.331446,92.673724 134.468277,102.010546 C132.114755,112.959971 129.789755,123.91954 127.357009,134.852268 C126.877431,137.033192 126.566657,139.280057 125.84222,141.39356 C125.468277,142.484127 123.602784,142.380566 123.723417,141.108237 C123.953488,138.639665 124.646446,136.232385 125.15391,133.808198 C128.183065,118.113325 132.281868,102.603384 134.888065,86.8398219 C136.564474,75.1707495 129.964685,73.3776536 130.211023,65.8379432 C131.108065,61.9818571 133.482502,58.5406516 133.346234,54.4313679 C133.873981,41.8526438 124.715108,31.475133 123.584403,19.2413326 L121.587887,18.5288725 C120.590048,18.1715366 119.593305,17.8112943 118.599755,17.4425303 C123.829685,54.0325499 122.241586,91.4218962 119.62715,128.19262 C119.093065,129.88934 119.601164,147.236761 117.361938,146.184871 C117.24891,146.847243 116.89715,147.498413 116.132361,147.495031 C109.187995,147.558648 102.241516,147.66855 95.2971498,147.751399 C91.9567977,147.443462 87.36553,148.719172 84.5244033,146.791235 C81.2440512,145.854742 80.8669385,131.472354 79.9899667,128.304636 L79.6480361,126.000912 C74.0739608,88.3574175 69.0858202,49.9374519 73.0925019,11.9212152 C67.5179948,12.1355244 66.3674315,18.1541467 65.9539808,22.5362837 C64.9202484,32.2083072 58.6734878,40.5376223 58.3739103,50.3206047 C58.3485582,52.6940685 58.7964455,54.9933483 59.7448258,57.1725812 C62.261023,62.5117123 66.6127131,68.6841976 63.3602484,74.6472348 C59.5136991,79.2893326 59.8466568,80.5111487 61.2581357,86.2478297 C65.2293329,105.212714 71.8242624,123.444847 78.097854,141.730029 C76.7347554,148.837106 68.5358822,122.45298 67.7645441,120.46354 C64.1351779,122.289184 62.1526427,116.230616 66.3154596,115.799039 C63.6416568,106.845818 61.181023,97.8255988 59.132361,88.706045 L59.0780968,88.4489937 C58.1731374,84.2355208 56.3931413,79.3016121 59.3989808,75.5640724 C67.1495441,67.7231878 54.2784878,58.9591252 55.9020793,49.460409 C54.5001075,50.5002524 52.3779244,49.4063033 52.4098258,47.6597045 C52.3462343,45.6933013 54.9866568,44.6860058 56.2572202,46.1863816 C57.5635691,38.4798605 62.1084854,31.7521336 63.4838292,24.0682647 L63.5459526,23.7073757 C64.0120089,20.9917358 64.1434174,18.1342798 65.4767272,15.6591565 C63.6617272,16.8384912 61.7288399,17.791681 59.7408117,18.6328551 C63.2953892,21.6029608 56.4120793,24.3137397 56.9816568,19.7255362 C37.4884174,25.3673209 33.0824315,33.2350469 25.9253188,51.3033835 C27.2622202,50.0040019 29.552361,51.6855049 28.7520793,53.3427025 C28.1136286,55.0884559 25.3284878,54.578045 25.3295441,52.717317 L25.0033383,53.4954537 C20.6633453,63.8768639 16.7132267,74.5103159 14.7281357,85.6203307 C18.6222202,85.0703972 17.6307413,91.2961428 14.1025723,89.5408786 C12.6866568,99.4215049 12.6642624,109.442045 12.8372906,119.40235 C16.1218681,117.679423 16.2207413,123.534248 12.8689808,121.864793 C12.991516,130.027141 13.1710934,138.189489 13.3063047,146.351838 C13.3337695,148.089137 10.6548962,148.080683 10.6126427,146.351838 C10.2997554,133.8101 9.72954413,121.245536 10.0006005,108.699994 C9.74560047,86.9254187 16.0029244,65.9383346 25.3261638,46.432816 C33.57553,23.9736771 44.9704596,21.4195088 65.9351779,14.8896301 C67.8703892,12.0159002 72.0048962,9.29793538 75.3782061,11.1024442 C77.2654596,8.05477296 78.2239808,4.44406454 79.6204596,1.19687863 Z M43.7013962,79.4721506 C43.7795653,79.1952818 44.1746357,79.264816 44.1873117,79.5376692 C44.3626638,83.0608786 44.2063258,86.6071252 43.9654808,90.1453405 C43.8194948,92.3053405 43.6401286,94.4630156 43.488016,96.6084324 C43.0844948,102.268393 42.7591427,107.934695 42.5119596,113.605223 C42.5985793,113.569294 42.6873117,113.53738 42.7802695,113.512229 C43.20703,113.395775 43.6340019,113.395775 44.0605512,113.512229 C44.4411146,113.618552 44.7738282,113.804411 45.0604097,114.072726 L45.1211146,114.131485 C45.3556216,114.348965 45.522523,114.607023 45.6197061,114.905027 C45.7581676,115.170158 45.8282235,115.453658 45.8280471,115.75669 L45.8265371,115.832855 C45.8246357,116.268025 45.7168892,116.671704 45.4971709,117.048119 C45.2837906,117.409528 44.9964667,117.696965 44.6351991,117.912331 C44.2591427,118.130233 43.8554103,118.238021 43.4204103,118.239924 C43.3739315,118.244362 43.3272413,118.248589 43.2809737,118.250703 C42.957523,118.263384 42.6556216,118.195751 42.3765371,118.04992 L42.3344948,118.037239 C42.228861,120.913716 42.1422413,123.792307 42.078861,126.670898 C42.0218188,129.179626 41.9457624,131.688354 41.8950582,134.196871 L41.8715058,135.451892 L41.8255319,138.22533 C41.8105883,139.365967 41.8178968,140.458098 41.4302907,141.53371 L41.3837906,141.657748 C41.1049174,142.376127 40.887523,143.376025 40.1413258,143.775477 C39.5457624,144.094405 38.7429455,143.97626 38.400692,143.354679 C38.1133681,142.834969 38.3624526,142.086577 38.7873117,141.735736 C38.778861,141.712699 38.766185,141.691564 38.7556216,141.668315 C38.6901286,141.477888 38.5906216,141.298452 38.5316779,141.106123 C38.3455512,140.497434 38.3964667,139.848589 38.394354,139.21644 C38.394354,138.100722 38.4321709,136.984793 38.4619596,135.870765 C38.5274526,133.499415 38.6035089,131.130389 38.6962554,128.761153 C39.0102783,120.813325 39.6015683,112.865497 40.2787887,104.939991 L40.5085975,102.264966 C40.8147953,98.7078078 41.1316779,95.1467338 41.5802695,91.6078845 C41.601185,91.4388043 41.622523,91.269724 41.6457624,91.1004324 C41.4049174,90.9801741 41.1809737,90.8132074 41.0032977,90.6272191 C40.2915673,89.879492 39.8598236,88.7618264 39.4550142,87.7988007 L39.3619596,87.5795479 C38.922523,86.5523855 38.5168892,85.512542 38.3077343,84.4092935 L38.28772,84.3077683 C38.1923089,83.8380007 38.0040069,83.0053237 38.5021005,82.7776692 C38.7619596,82.6593131 38.9265371,82.7438532 39.0112554,83.0038141 C39.02203,83.0376301 39.0131568,83.0756732 38.994354,83.1052622 C39.1992836,83.4199628 39.5204103,83.713951 39.7232272,84.0056144 L40.41739,84.9985851 L40.7605512,85.4975362 C41.1957624,86.1381389 41.6605512,86.7510548 42.1401286,87.3555166 C42.5180864,84.7009569 42.9809737,82.0569647 43.7013962,79.4721506 Z M72.1676146,138.627048 C73.0359244,137.946288 74.4493047,138.316151 74.4493047,139.571784 C74.4493047,140.833333 73.0338117,141.197067 72.1676146,140.516308 L72.1244896,140.484421 L72.0831075,140.450789 C71.6113998,140.082136 71.5955903,139.122392 72.0474282,138.722225 L72.0831075,138.692566 C72.110361,138.669106 72.1380371,138.648183 72.1676146,138.627048 Z M34.4161216,136.175152 C34.8090793,136.175152 35.1745723,136.274486 35.5147131,136.473367 C35.6626005,136.585383 35.8083751,136.699301 35.9562624,136.813641 C36.226685,137.083958 36.4126005,137.405422 36.5161216,137.775285 L36.5945019,138.354173 C36.604854,138.654291 36.5435864,138.933273 36.4062624,139.193445 C36.31753,139.463762 36.16753,139.698361 35.9562624,139.895128 C35.7576709,140.108592 35.5252765,140.258651 35.2550653,140.345093 C35.0166674,140.471023 34.7624699,140.534988 34.4906828,140.534988 L34.4161216,140.533406 C34.0212624,140.533406 33.6555582,140.434072 33.3154174,140.235191 C33.16753,140.123387 33.0217554,140.009046 32.8738681,139.895128 C32.6055582,139.6246 32.41753,139.303136 32.3142202,138.933273 C32.2886568,138.740944 32.263516,138.546502 32.2358399,138.354173 C32.2254878,138.054056 32.2886568,137.775285 32.4238681,137.515113 C32.5126005,137.244584 32.6626005,137.010197 32.8738681,136.813641 C33.0726709,136.600177 33.304854,136.449907 33.5752765,136.363254 C33.8134808,136.237518 34.0694373,136.173762 34.3415189,136.173614 L34.4161216,136.175152 Z M133.238615,132.155227 L133.792347,132.229411 C134.322629,132.349881 134.749178,132.740879 135.034389,133.186828 C135.186713,133.425654 135.268896,133.683501 135.281572,133.96037 C135.343051,134.235125 135.330164,134.511994 135.243544,134.788863 C135.180164,135.05918 135.055727,135.295892 134.871713,135.496886 C134.808544,135.596221 134.734389,135.687102 134.650093,135.767415 C134.476643,136.056965 134.214882,136.246969 133.944248,136.441622 C133.716291,136.587454 133.468896,136.665654 133.202699,136.678335 C133.027347,136.724832 132.849882,136.724832 132.672417,136.678335 C132.408333,136.665654 132.16115,136.587454 131.932981,136.441622 C131.797981,136.338061 131.662769,136.232385 131.52946,136.128824 C131.411361,135.991446 131.301291,135.849841 131.197769,135.701896 C131.128262,135.539157 131.060446,135.378319 130.993051,135.217693 C130.868192,134.830922 130.92946,134.488746 130.997277,134.101975 C131.007629,134.036456 131.024741,133.977278 131.047981,133.913661 L131.09359,133.7909 C131.215198,133.469799 131.280164,133.360836 131.495657,133.081153 L131.577838,132.971223 C131.618919,132.916452 131.661079,132.862912 131.709248,132.814851 C131.844248,132.67536 132.036713,132.558906 132.188615,132.438648 C132.513967,132.250546 132.864671,132.157552 133.238615,132.155227 Z M61.5809103,130.802775 C61.8872484,130.804889 62.1747836,130.880975 62.4407695,131.035261 L62.7872484,131.303676 C62.998516,131.517139 63.1442906,131.766321 63.226685,132.056294 C63.2456991,132.208043 63.2670371,132.360427 63.2879526,132.510486 C63.2964033,132.745085 63.248023,132.964677 63.1400653,133.169899 C63.0726709,133.381249 62.9541498,133.562799 62.7872484,133.719409 C62.6332343,133.884263 62.4492202,134.002619 62.2379526,134.072364 C62.0535736,134.168433 61.8552265,134.219087 61.6444985,134.219563 L61.5809103,134.218196 C61.2724596,134.218196 60.9851357,134.139996 60.7189385,133.985499 L60.3724596,133.719409 C60.161192,133.505946 60.0154174,133.254439 59.933023,132.964677 C59.9140089,132.812717 59.8928822,132.662658 59.8717554,132.510486 C59.8633047,132.275887 59.9118962,132.056294 60.0196427,131.853186 C60.089361,131.641836 60.2055582,131.457961 60.3724596,131.303676 C60.526685,131.136709 60.7104878,131.018353 60.9217554,130.950721 C61.106192,130.853711 61.3008962,130.804635 61.5104885,130.801953 L61.5809103,130.802775 Z M47.5676146,130.103185 C48.0089526,130.098958 48.4570512,130.223654 48.8183188,130.479388 C49.169023,130.72857 49.4350089,130.997196 49.6063469,131.400876 C49.6528258,131.510989 49.6990934,131.618566 49.7394455,131.728468 C49.9211357,132.212461 49.9549385,132.698566 49.70353,133.171991 C49.4605723,133.630621 48.9366286,133.831404 48.4674033,133.96857 C48.0704315,134.087138 47.6204315,134.106159 47.225361,133.964555 C47.0288822,133.894809 46.8366286,133.820836 46.6591638,133.713048 C46.3274737,133.508038 46.1478962,133.264774 45.9260653,132.964656 C45.7528258,132.668977 45.6662061,132.347513 45.6662061,132.005337 C45.6662061,131.660625 45.7528258,131.341697 45.9260653,131.043694 C46.2659948,130.46248 46.8957836,130.107412 47.5676146,130.103185 Z M25.1731638,130.511112 C25.7311216,130.511112 26.2210512,130.768959 26.5571779,131.20413 C26.8971075,131.646063 27.0217554,132.195574 26.8717554,132.743182 C26.7133047,133.322071 26.2339385,133.829312 25.6400653,133.975143 C25.2008399,134.082932 24.8414737,134.078705 24.4041498,134.004521 C24.0344315,133.941327 23.7515441,133.721312 23.4682343,133.493053 C23.1449948,133.228865 23.0456991,132.747198 23.098516,132.358313 C23.1492202,131.969429 23.3290089,131.715809 23.6015441,131.485225 L23.6034455,131.479096 L23.5020371,131.557296 C23.5402765,131.52348 23.5780934,131.48755 23.6163329,131.451621 C23.6287977,131.430486 23.639361,131.407237 23.6499244,131.383989 C23.8062624,131.117687 24.01753,130.90845 24.2816146,130.752051 C24.5583751,130.591425 24.8541498,130.511112 25.1731638,130.511112 Z M155.227326,124.109375 C155.533664,124.026948 155.842115,124.026948 156.148453,124.109375 C156.37472,124.162212 156.570988,124.265774 156.7381,124.419848 C156.907326,124.530173 157.045577,124.671313 157.150082,124.846503 L157.183664,124.906166 C157.42472,125.316185 157.462537,125.785171 157.359016,126.241688 C157.230354,126.805993 156.710636,127.319786 156.148453,127.452725 L156.129544,127.456265 L156.110636,127.461391 C155.882467,127.53325 155.651974,127.543817 155.424016,127.49098 C155.193523,127.480412 154.980143,127.41278 154.783875,127.28597 C154.534579,127.125344 154.325424,126.91822 154.164861,126.668827 C154.037889,126.470158 153.970495,126.256694 153.95972,126.026111 C153.919791,125.87415 153.919791,125.721978 153.95972,125.569805 C153.970495,125.339222 154.037889,125.125758 154.164861,124.927301 L154.435072,124.578361 L154.462748,124.555324 C154.678241,124.339535 154.933664,124.19159 155.227326,124.109375 Z M133.957009,112.924654 C136.726727,112.924654 136.722502,117.223519 133.957009,117.223519 C131.187502,117.223519 131.191516,112.924654 133.957009,112.924654 Z M32.5526146,112.381484 C32.8443751,112.315965 33.1359244,112.328646 33.425361,112.419527 C33.6007131,112.493499 33.7739526,112.567472 33.947192,112.63912 L34.390854,112.98193 C34.4732484,113.051464 34.5133892,113.12755 34.5894455,113.226885 L34.6845261,113.351297 C34.8219548,113.535345 34.8252202,113.57426 34.9760653,113.966611 C35.0774737,114.342814 35.0774737,114.718807 34.9760653,115.095433 C34.9272624,115.276983 34.85353,115.448176 34.7584596,115.606689 C34.6715381,115.758861 34.5675427,115.8924 34.4504647,116.015292 L34.390854,116.075887 C34.1922624,116.289351 33.9577554,116.439409 33.6873329,116.528176 C33.5162061,116.627722 33.3324033,116.676122 33.1359244,116.676122 C32.8443751,116.74164 32.5526146,116.728959 32.2633892,116.637867 C32.0880371,116.564106 31.9147977,116.490133 31.7413469,116.418274 L31.2978962,116.075887 L30.9556427,115.632051 L30.8464966,115.371747 L30.7359244,115.110016 L30.6577554,114.528803 C30.647192,114.226572 30.7084596,113.947589 30.8455723,113.685515 C30.8983892,113.501429 30.9915582,113.338901 31.1265582,113.203425 C31.2239526,113.038783 31.3547272,112.907746 31.5197272,112.810525 C31.6547272,112.675049 31.8176146,112.582266 32.0014174,112.529429 C32.1725441,112.430094 32.3563469,112.381484 32.5526146,112.381484 Z M169.542734,109.310458 C169.773227,109.302216 169.98872,109.350615 170.187312,109.45629 C170.25703,109.47975 170.324847,109.509128 170.390129,109.543155 C170.645762,109.693002 170.848579,109.895899 170.998579,110.14973 C171.121115,110.344173 171.18872,110.553409 171.199284,110.779343 C171.245186,110.9832 171.240978,111.188454 171.185708,111.392565 L171.167593,111.453762 C171.121115,111.620728 171.051396,111.774803 170.95865,111.916407 C170.949777,111.933315 170.939424,111.950223 170.926748,111.965018 C170.785199,112.189261 170.597171,112.372924 170.364777,112.510513 C170.10703,112.658247 169.830269,112.734333 169.530269,112.736658 C168.932382,112.736658 168.416889,112.413292 168.1021,111.916407 C168.057734,111.846662 168.032382,111.757895 168.000903,111.686036 C167.973227,111.618403 167.928861,111.531961 167.90541,111.453762 C167.82534,111.153644 167.82534,110.853527 167.90541,110.553409 C167.958227,110.333394 168.057734,110.141276 168.207734,109.978325 C168.327946,109.794662 168.486396,109.64883 168.683086,109.543155 C168.926857,109.400737 169.188809,109.324951 169.466782,109.312306 L169.542734,109.310458 Z M52.6019737,107.207671 C52.8944981,107.127683 53.1854023,107.12153 53.4760158,107.189212 L53.5486638,107.207671 C53.7808469,107.262622 53.9817624,107.368297 54.1547906,107.524696 C54.3470441,107.651506 54.5014808,107.818473 54.6132413,108.025385 C54.774016,108.302465 54.8542977,108.602583 54.8561991,108.923624 C54.8542977,109.245088 54.774016,109.545205 54.6132413,109.821863 C54.4547906,110.090489 54.2414103,110.301839 53.9733117,110.460352 L53.7409174,110.572367 C53.5465512,110.694951 53.3395089,110.760469 53.115354,110.770825 C52.9655653,110.811193 52.815354,110.811193 52.6676779,110.770825 C52.515354,110.770825 52.3738047,110.732994 52.24303,110.656908 C52.0993681,110.616751 51.9766216,110.544681 51.8709878,110.439005 C51.687185,110.320649 51.5437343,110.164461 51.4381005,109.967906 L51.2667624,109.564015 L51.2078188,109.115953 L51.2667624,108.670215 L51.3599315,108.450411 C51.4442272,108.147968 51.5965512,107.886105 51.8181709,107.664187 C52.0400019,107.444172 52.3019737,107.292 52.6019737,107.207671 Z M157.373974,103.642234 C157.682213,103.545012 157.988762,103.53212 158.2951,103.599964 C158.501931,103.599964 158.696298,103.652801 158.876086,103.758476 C159.072565,103.813216 159.241368,103.910437 159.385241,104.054367 C159.636438,104.216895 159.833129,104.432472 159.978903,104.700887 L160.211086,105.252723 C160.350523,105.609694 160.299819,106.136167 160.215523,106.495463 C160.145805,106.791142 160.010593,107.0492 159.809889,107.268793 C159.708481,107.439987 159.573269,107.575463 159.401931,107.676911 C159.206333,107.854956 158.980733,107.981676 158.724806,108.05691 L158.654255,108.076151 L158.628903,108.082492 C158.624467,108.084605 158.620453,108.084605 158.616227,108.084605 C158.614115,108.08693 158.609678,108.08693 158.607565,108.08693 C158.506368,108.112081 158.402847,108.126876 158.2951,108.131103 C157.988762,108.198735 157.682213,108.186265 157.373974,108.089044 C157.192284,108.012746 157.008481,107.934547 156.824678,107.856558 C156.66834,107.738202 156.513903,107.617521 156.357777,107.497052 C156.237354,107.340864 156.116931,107.184253 155.996509,107.030179 C155.827284,106.765991 155.73665,106.478555 155.723974,106.171885 C155.668833,105.967087 155.668833,105.764191 155.723974,105.558969 C155.723974,105.349944 155.776791,105.157615 155.8801,104.977756 C155.973269,104.690531 156.13172,104.443251 156.357777,104.234014 C156.513903,104.113333 156.66834,103.992864 156.824678,103.874508 C157.008481,103.796308 157.192284,103.71832 157.373974,103.642234 Z M22.6274948,96.0758086 C22.9462977,95.989155 23.265523,95.989155 23.5845371,96.0758086 L24.0131991,96.2554563 C24.2244667,96.3695855 24.3915793,96.5236598 24.5183399,96.720427 C24.6789033,96.8935229 24.7864385,97.098744 24.8413681,97.3333428 C24.9662272,97.6545953 24.9514385,98.1639495 24.8521427,98.4915424 C24.7401709,98.8635189 24.5669315,99.1594094 24.2986216,99.4383917 C23.8528469,99.8991354 23.1681286,100.032286 22.5620019,99.8927949 C22.3948892,99.8547518 22.2364385,99.7807792 22.0927765,99.6898986 C21.6345371,99.4066892 21.3260864,98.9121295 21.3281991,98.3647323 C21.3281991,98.3055542 21.3324244,98.2463761 21.3408751,98.1874094 C21.3112977,98.0667283 21.300523,97.9420317 21.3049596,97.8107831 L21.3683399,97.3333428 L21.372354,97.3206618 C21.4570723,97.0182195 21.609185,96.7563565 21.8308047,96.5344387 C22.0357668,96.3315424 22.2747517,96.1844726 22.5479256,96.096554 L22.6169315,96.0758086 L22.6274948,96.0758086 Z M182.047854,48.6173326 C181.470671,43.8837201 179.300741,38.7910234 172.682361,41.5707025 L172.190757,41.7549421 C170.553122,42.3751781 168.644744,43.189998 167.648065,44.6226007 C166.961446,45.6096066 167.193629,47.5223268 167.098769,48.6741859 C166.66715,52.4193131 166.898699,56.1591565 167.348277,59.8884324 C167.928629,68.6296692 166.091446,77.686452 162.433769,85.6308982 C166.094403,91.5561037 170.993488,97.0827025 177.676516,99.5523307 C177.959192,92.8155401 179.277713,86.2023894 180.680953,79.6285499 L180.736197,79.3419487 C181.297342,76.3776581 181.578239,73.3353241 183.524403,70.8699823 C187.483136,66.5704833 192.927924,69.0039706 195.533065,62.097043 C194.985882,61.8201741 195.287995,60.8733248 195.947361,61.0552974 C198.23222,61.4608786 198.603417,57.2235166 197.039615,56.2024833 C195.410108,55.2085029 197.0506,53.3748278 196.357009,52.0513522 C195.970389,51.4809178 195.135882,51.4618962 194.757502,50.8043855 C193.754826,48.384636 198.772854,46.8339589 192.871727,44.1060606 C191.66391,43.6763855 190.31391,43.9428982 189.095741,43.9380371 C187.303769,44.1054266 185.879615,45.3684559 184.240812,45.7657945 C186.025178,50.3878141 181.522854,54.8386399 177.459122,51.1469843 C175.247784,53.2378728 172.774896,58.0040332 178.150178,55.7821076 C180.781093,54.0255753 183.046093,51.7550391 186.100178,50.6733483 L186.164729,50.6532015 C187.298432,50.281603 192.259524,47.8703193 192.013558,49.9572935 C190.155248,51.7514461 187.090389,51.7303111 184.938206,53.186726 C181.954474,54.5670548 180.046516,57.9118845 176.474615,57.8655988 C175.651093,62.8676262 181.325108,59.824182 183.437995,58.4446986 L184.023822,58.1267199 C187.004137,56.5161502 190.029284,55.0239616 193.504896,55.0041272 C194.464051,54.9977867 194.459826,56.4772387 193.504896,56.4899197 C188.975319,56.5182407 185.288699,59.350546 181.494333,61.4564403 C181.120812,64.3762446 185.394967,63.097998 187.016868,62.6672661 C188.717361,62.4282289 191.448417,60.5882133 192.936798,61.5602133 C193.51884,63.056362 190.95722,62.9449804 190.06546,63.3989608 C194.137009,65.3552191 190.569755,66.58718 189.478136,63.5807221 L189.158383,63.6896996 C186.431976,64.6062681 179.820899,66.49296 180.60722,61.8730117 C179.609403,62.3147338 178.392713,62.5789217 177.290108,62.3337553 C174.54046,66.4022485 170.154333,64.8279002 176.529544,62.054773 C175.092924,61.386272 174.613136,58.8052622 175.993136,57.8446751 C170.974896,57.5382172 174.7006,52.2711565 176.777572,50.5158923 C176.581516,50.3176458 176.391586,50.1153835 176.214544,49.9105851 C175.016868,50.4812309 173.757924,50.8278454 172.411727,50.9504285 C171.123206,51.0664598 170.836093,48.8728551 172.107713,48.6932074 C173.470389,48.5008786 174.72553,48.1373561 175.925319,47.4523698 C177.74391,46.6667808 178.364615,50.0424677 180.184685,50.1620919 C181.177431,50.3586477 181.849051,49.4878845 182.047854,48.6173326 Z M139.798706,92.1742187 C140.238143,92.1742187 140.628777,92.3583049 140.947791,92.6497569 C141.266805,92.9414203 141.404129,93.3791268 141.423143,93.797389 C141.431593,94.0214203 141.385115,94.2306571 141.283706,94.4250994 C141.218213,94.6258822 141.106241,94.7991894 140.947791,94.947346 C140.652016,95.2409115 140.214692,95.4228841 139.798706,95.4228841 C139.359269,95.4228841 138.968424,95.238798 138.649199,94.947346 C138.330396,94.6533577 138.192861,94.2179761 138.173847,93.797389 C138.165396,93.5754712 138.212086,93.3662344 138.313284,93.1717921 C138.372227,92.9910876 138.468819,92.8309264 138.603058,92.6943899 L138.649199,92.6497569 C138.945185,92.3538665 139.382298,92.1742187 139.798706,92.1742187 Z M153.114032,82.1507185 L153.18441,82.1519033 C153.556241,82.1542281 153.900819,82.2470109 154.221734,82.4329992 C154.361171,82.5407878 154.500608,82.646463 154.638143,82.754463 C154.893565,83.012099 155.068917,83.3143299 155.166312,83.6632692 C155.265608,84.0267917 155.265608,84.3924278 155.166312,84.7557389 C155.132509,84.965187 155.05434,85.1680833 154.931805,85.3435041 C154.749903,85.6455236 154.509269,85.8887878 154.204833,86.0682242 C153.890044,86.2523103 153.549903,86.3429796 153.18441,86.3450931 C152.819129,86.3429796 152.478777,86.2523103 152.163988,86.0682242 C151.859762,85.8887878 151.618917,85.6455236 151.43934,85.3435041 C151.314692,85.1680833 151.236523,84.965187 151.20272,84.7557389 C151.103424,84.3924278 151.103424,84.0267917 151.20272,83.6632692 C151.292962,83.3392541 151.450604,83.0555131 151.677339,82.810354 L151.730889,82.754463 C151.916805,82.5536802 152.136523,82.4120755 152.392157,82.3294375 C152.616805,82.2114512 152.85743,82.1517154 153.114032,82.1507185 Z M51.4948681,82.2638978 C51.6514174,82.2216278 51.8056427,82.2216278 51.9619808,82.2638978 C52.1943751,82.2744653 52.4117695,82.3442109 52.612685,82.4712324 C52.7309948,82.5640152 52.8493047,82.6551072 52.9676146,82.7459878 L53.0707575,82.8698207 C53.2912343,83.1385008 53.2968117,83.1843283 53.4659948,83.5935025 C53.5359244,83.8217608 53.5464878,84.0500191 53.4957836,84.2782775 C53.4957836,84.4325632 53.4556427,84.5762814 53.3793751,84.7094321 C53.3373329,84.8552638 53.2655019,84.9820739 53.1577554,85.0877491 C53.0814878,85.2164614 52.9802906,85.3200231 52.8512061,85.3963205 C52.6866286,85.5463792 52.4922624,85.6499409 52.2683188,85.7027784 L51.8138822,85.7638587 C51.7549385,85.755616 51.6936709,85.747162 51.634516,85.7408215 C51.5632131,85.7386023 51.4939306,85.7305578 51.4261335,85.7174904 L51.3575441,85.7025671 L51.2950782,85.6858907 C51.2123357,85.6616919 51.1317836,85.6295667 51.05353,85.5886493 C50.9056427,85.5463792 50.7767695,85.4724066 50.6666991,85.3625045 C50.4767695,85.2399213 50.3246568,85.0748567 50.2147977,84.8700583 L50.1852202,84.8024262 C50.1450793,84.7303557 50.1112765,84.6565945 50.0857131,84.5762814 C50.0140934,84.4494712 49.9781779,84.314207 49.9760653,84.1683753 C49.9340441,83.9743557 49.9368582,83.7820481 49.9871258,83.5897576 L50.0056427,83.5256591 L50.1683188,83.138888 C50.2528258,83.0080622 50.3415582,82.8747002 50.4554315,82.7669115 C50.5240723,82.7060426 50.6917955,82.5751555 50.7862594,82.5095274 L50.8441638,82.4712324 C51.0450793,82.3442109 51.262685,82.2744653 51.4948681,82.2638978 Z M28.7563258,78.5210321 C29.6117484,79.3772121 29.2337906,80.9494469 28.0361146,81.2537914 L27.8985793,81.2876074 C26.7408329,81.5813843 25.6971709,80.5352004 25.9908329,79.3772121 L26.0246357,79.2417366 C26.328861,78.0433804 27.900692,77.6650634 28.7563258,78.5210321 Z M171.032319,69.4667221 C171.023868,69.3483659 171.175981,69.3063072 171.252037,69.3760528 C172.270347,70.2890861 172.918938,71.3838806 174.154854,72.0916927 C175.397319,72.8020411 176.677389,72.7447651 177.97246,73.2033953 C178.411896,73.3597945 178.414009,73.9475596 177.97246,74.101634 C175.521755,74.9578141 171.218234,72.0557632 171.032319,69.4667221 Z M55.8808892,69.2808395 C56.1536357,69.1962994 56.4282836,69.1836184 56.7008188,69.2449099 C56.8867343,69.2449099 57.0597624,69.291407 57.2182131,69.3841898 C57.3935653,69.4330117 57.5437765,69.5217788 57.6724385,69.6483777 C57.8268751,69.7394696 57.9494103,69.8641663 58.0421568,70.0182407 C58.2240582,70.2171213 58.3465934,70.4496066 58.4097624,70.715908 L58.4815934,71.2633052 L58.4097624,71.8107025 C58.3400441,71.9732309 58.2703258,72.1382955 58.2027202,72.3010352 L58.013948,72.5569152 C57.8609692,72.7610274 57.8364737,72.7631878 57.4653962,73.0386477 C57.2289878,73.1884951 56.973354,73.271133 56.7008188,73.2817005 C56.5189174,73.3324246 56.3372272,73.3324246 56.1536357,73.2817005 C55.9698329,73.2817005 55.7963822,73.2352035 55.63603,73.1422094 C55.4625793,73.0935988 55.3106779,73.0048317 55.1815934,72.8780215 C54.957861,72.7321898 54.7825089,72.539861 54.6534244,72.3010352 C54.5837061,72.1382955 54.5141991,71.9732309 54.4465934,71.8107025 L54.3724385,71.2633052 L54.4465934,70.715908 L54.4506075,70.699 C54.5477906,70.3566125 54.7212413,70.0586086 54.9703258,69.8068904 L55.3803962,69.4898649 C55.5407484,69.3865146 55.7076498,69.3336771 55.8808892,69.2808395 Z M154.502847,69.6909013 C155.087847,69.5300638 155.730312,69.699144 156.158974,70.1283964 C156.588058,70.5574375 156.757072,71.1976176 156.596509,71.7832692 C156.438058,72.353915 155.979608,72.8165608 155.407072,72.9710579 C155.235946,73.0173436 155.062706,73.042917 154.887354,73.034463 C154.593481,73.0323495 154.319044,72.9581655 154.06341,72.8104317 L153.733833,72.5544865 C153.573058,72.4067526 153.461298,72.2313319 153.395593,72.0284356 C153.292072,71.8339933 153.245593,71.6247565 153.254044,71.3986117 L153.252143,71.3584551 C153.245593,71.278142 153.256157,71.1976176 153.28172,71.1196293 C153.28172,71.0369914 153.294396,70.9566782 153.315523,70.8784786 C153.469748,70.3080442 153.934537,69.8470892 154.502847,69.6909013 Z M28.3422413,63.9676411 C28.5302695,63.9610892 28.7056216,63.9991323 28.8682977,64.0857859 C29.0394244,64.1407369 29.1851991,64.2337311 29.3077343,64.3689953 C29.4429455,64.4915784 29.5359033,64.6395236 29.5908329,64.8086039 C29.6774526,64.971555 29.7154808,65.1469757 29.7091427,65.3348661 C29.7091427,65.582146 29.6457624,65.8125178 29.5232272,66.0238681 C29.4513962,66.1170735 29.3795653,66.2098563 29.3077343,66.3007369 C29.1387202,66.4719307 28.938016,66.5881733 28.7056216,66.6536919 L28.5704103,66.700189 C28.3718188,66.7720481 28.1774526,66.7762751 27.9704103,66.7490109 C27.7528047,66.7192105 27.5518892,66.6600324 27.3746357,66.5247683 C27.201185,66.4233201 27.0640723,66.2859424 26.9626638,66.1126352 L26.8464667,65.8378798 C26.8211146,65.745097 26.8105512,65.6056058 26.8042131,65.5081733 C26.8042131,65.4933788 26.8042131,65.4809092 26.8021005,65.4659033 C26.8021005,65.3834767 26.8274526,65.1829052 26.8483681,65.1002673 C26.8950582,64.92696 26.9899174,64.7621068 27.0978751,64.6226156 C27.1908329,64.4769953 27.3175934,64.3626548 27.4739315,64.2781146 L27.4878487,64.2675471 L27.5035089,64.2569796 C27.5518892,64.2231636 27.6028047,64.1893475 27.6535089,64.1532066 C27.8647765,64.0308348 28.0950582,63.9676411 28.3422413,63.9676411 Z M137.438805,62.4668426 C137.776833,62.4668426 138.091622,62.5534962 138.383171,62.7225765 C138.393523,62.7265921 138.404086,62.7310305 138.412537,62.7354688 C138.691622,62.9001107 138.913241,63.1222399 139.078241,63.4010109 C139.247255,63.6905608 139.331551,64.0035706 139.331551,64.3375041 C139.331551,64.6733397 139.247255,64.9840246 139.078241,65.2735745 C138.913241,65.5527683 138.691622,65.7744747 138.412537,65.9395393 C138.404086,65.9456685 138.393523,65.9496841 138.383171,65.9541225 C138.091622,66.1232027 137.776833,66.2077428 137.438805,66.2098563 C137.102889,66.2077428 136.7881,66.1232027 136.49634,65.9541225 C135.926129,65.620189 135.568875,64.9967056 135.568875,64.3375041 C135.568875,63.6776685 135.926129,63.0543964 136.49634,62.7225765 C136.7881,62.5534962 137.102889,62.4668426 137.438805,62.4668426 Z M49.7031059,60.0229117 L49.7606357,60.0217099 C49.9845793,60.0130446 50.193523,60.0595416 50.3857765,60.1633146 C50.5864808,60.2286219 50.7618329,60.3408489 50.9099315,60.4993616 L51.2183822,60.7569976 L51.307897,60.8295456 C51.3226545,60.8418665 51.337185,60.8543596 51.3512695,60.8671111 C51.558523,61.0761366 51.7000723,61.3213029 51.780354,61.6045123 C51.8057061,61.7674634 51.8266216,61.9278782 51.8437343,62.090618 C51.8900019,62.5133186 51.6409174,62.946798 51.3662695,63.2469154 C51.2183822,63.4054281 51.0428188,63.5172324 50.8402131,63.5848645 C50.6458469,63.686524 50.4345793,63.7328097 50.2104244,63.7243557 C49.7519737,63.6844105 49.3169737,63.586978 48.9873962,63.2319096 C48.9491568,63.1896395 48.9132413,63.1452559 48.8754244,63.1008724 L48.6113399,62.7965279 C48.4106357,62.593843 48.2709878,62.3548058 48.1951427,62.0800505 C48.1738047,61.9342187 48.1550019,61.7905005 48.1359878,61.6467823 C48.1167624,61.2135142 48.32803,60.8077217 48.6113399,60.4993616 C48.8729093,60.2135355 49.3165234,60.0388959 49.7031059,60.0229117 Z M39.0388469,55.5725749 C41.2358188,55.5725749 41.2315934,58.9818665 39.0388469,58.9818665 C36.8435653,58.9818665 36.8477906,55.5725749 39.0388469,55.5725749 Z M149.506619,50.7927948 L149.575896,50.7940293 C149.939488,50.7961428 150.279417,50.8870234 150.594417,51.0708982 L151.004065,51.3858101 C151.253572,51.6394305 151.4266,51.9353209 151.523995,52.2777084 C151.547023,52.4571448 151.570474,52.6370039 151.595826,52.8145381 C151.606389,53.0935205 151.547023,53.3534814 151.420474,53.5944207 C151.340192,53.8438141 151.200755,54.0612935 151.004065,54.2453796 C150.820474,54.4419354 150.604769,54.5814266 150.353572,54.6617397 C150.112727,54.7885499 149.852868,54.8477279 149.575896,54.8371604 C149.210615,54.8348356 148.870262,54.7441663 148.555474,54.5602915 C148.418361,54.4546164 148.28315,54.3489413 148.145826,54.2453796 C147.915707,54.0112685 147.750393,53.7411403 147.651546,53.4316704 L147.62822,53.3534814 L147.554277,52.8145381 C147.543713,52.5376692 147.602657,52.2777084 147.729417,52.036769 C147.80991,51.7852622 147.949347,51.5696849 148.145826,51.3858101 C148.329629,51.189043 148.547234,51.0495518 148.79653,50.9694501 C149.017111,50.8532074 149.254024,50.7936169 149.506619,50.7927948 Z M139.610467,44.4113139 C139.806946,44.404762 139.988636,44.4449186 140.159974,44.533897 C140.335115,44.5907503 140.487227,44.6900849 140.6161,44.8274626 C140.888847,45.0453647 141.055537,45.480535 141.055537,45.83349 C141.055537,46.186445 140.888847,46.6220379 140.6161,46.8395174 C140.438636,47.0149381 140.229481,47.1375213 139.988636,47.2051534 L139.610467,47.2560888 C139.242861,47.2729968 138.868917,47.0806681 138.606946,46.8395174 C138.554129,46.7911182 138.503424,46.7425076 138.450608,46.6957992 C138.212086,46.4759949 138.108565,46.1484019 138.093565,45.83349 C138.087227,45.6667346 138.123354,45.5103354 138.199199,45.3645037 C138.248002,45.2123315 138.332298,45.0831964 138.450608,44.9711808 C138.503424,44.9246837 138.554129,44.8762845 138.606946,44.8274626 C138.892368,44.5632747 139.22596,44.4303354 139.610467,44.4113139 Z M202.31053,33.0427182 C203.698769,31.3510704 202.89046,30.1470078 200.804192,30.5654814 C197.21053,31.0517984 193.828347,33.3238141 190.663347,34.9531135 C187.20891,36.7783346 183.64884,38.2837827 180.125108,39.9988904 C181.579051,40.891634 182.660319,42.2897162 183.486375,43.8849882 C185.135319,42.632315 187.243136,42.0333483 189.300671,41.95536 C193.033558,38.3788904 199.21546,37.559908 202.31053,33.0427182 Z M38.2994948,38.6584645 C38.6759174,38.6602399 39.0285991,38.7487308 39.3590858,38.9254839 L39.4295653,38.9647111 L39.8816779,39.3155526 C40.1013962,39.5184489 40.2556216,39.7591769 40.3464667,40.0362571 C40.4859033,40.3025585 40.5492836,40.5921084 40.5387202,40.9006798 C40.5492836,41.2092512 40.4859033,41.4966876 40.3464667,41.762989 C40.2556216,42.0419714 40.1013962,42.2807972 39.8816779,42.4836935 C39.75703,42.6464332 39.5964667,42.7732434 39.4042131,42.8664489 C39.2244244,42.9402101 39.0471709,43.0162962 38.8675934,43.0923823 C38.6668892,43.1557874 38.4344948,43.1642414 38.2168892,43.174809 C37.8218188,43.1726955 37.4544244,43.0733608 37.1117484,42.8746915 L36.6682977,42.5325154 C36.4549174,42.3336348 36.3025934,42.099036 36.213861,41.8263941 C36.0881744,41.586353 36.0244583,41.3299733 36.0244583,41.0561156 L36.0260441,40.9809929 C36.0260441,40.9642962 36.0260441,40.9450634 36.0283681,40.9260418 C36.0535089,40.7273726 36.081185,40.5287033 36.1082272,40.3302454 C36.1781568,40.0383706 36.3112554,39.7826368 36.5098469,39.5670595 C36.5605512,39.4656113 36.6281568,39.3831847 36.7149878,39.3155526 C36.9936498,39.0365702 37.323016,38.846355 37.7035089,38.738355 C37.9021005,38.7132043 38.100692,38.6855174 38.2994948,38.6584645 Z M136.390727,33.0595839 C136.675938,33.0595839 136.940023,33.131443 137.185305,33.2730477 C137.29284,33.3556857 137.398474,33.4379009 137.504108,33.5203276 C137.700798,33.7168833 137.836009,33.9493687 137.909741,34.21567 L137.966995,34.6339323 C137.973122,34.8518344 137.928755,35.0526172 137.82946,35.2409303 C137.766291,35.4351612 137.658333,35.6042414 137.504108,35.7479596 C137.362558,35.902034 137.193755,36.010034 136.997277,36.0734391 C136.81115,36.1727737 136.608333,36.2171573 136.390727,36.2089146 C136.107629,36.2089146 135.841431,36.1368442 135.596361,35.993126 C135.490727,35.9128129 135.382981,35.8303863 135.277347,35.7479596 C135.099178,35.5677835 134.970715,35.3574166 134.893587,35.1184868 L134.873826,35.0526172 L134.816995,34.6339323 C134.808544,34.4164528 134.85291,34.21567 134.951995,34.0275683 C135.015375,33.8312238 135.125446,33.6619323 135.277347,33.5203276 C135.421009,33.3658305 135.590234,33.2582532 135.7846,33.1948481 C135.953636,33.1054469 136.134821,33.0605561 136.326462,33.058635 L136.390727,33.0595839 Z M50.6480819,30.7695107 L50.7217765,30.7705968 C51.1421991,30.7727103 51.5330441,30.8783855 51.8964244,31.0897358 C52.0527624,31.2104168 52.2093117,31.3308865 52.3654385,31.4534696 C52.6548751,31.7428082 52.8534667,32.0851957 52.9656498,32.4804207 L53.0478329,33.0975636 C53.0605089,33.418816 52.9929033,33.7168199 52.8471286,33.9936888 C52.7543822,34.2834501 52.5936075,34.5326321 52.3654385,34.7439823 C52.1564948,34.9703385 51.9069878,35.1307534 51.6175512,35.2239589 C51.3407906,35.3695792 51.0429033,35.4374227 50.7217765,35.4245303 C50.301354,35.4245303 49.9105089,35.3188551 49.5471286,35.1075049 C49.3910019,34.9870352 49.2346638,34.8646634 49.0762131,34.7439823 C48.7886779,34.4523189 48.5900864,34.1099315 48.4781146,33.7168199 L48.3957202,33.0975636 C48.3830441,32.7784246 48.4506498,32.4785186 48.5964244,32.2014383 C48.6893822,31.9142133 48.8499455,31.6624951 49.0762131,31.4534696 C49.2874808,31.2252113 49.5365653,31.0643737 49.8260019,30.9713796 C50.0814732,30.8367657 50.354946,30.7705843 50.6480819,30.7695107 Z M128.876129,24.9586328 C129.068382,24.9076974 129.260424,24.9076974 129.452678,24.9586328 C129.740002,24.9711025 130.008523,25.0577561 130.257819,25.2162688 L130.695143,25.5546407 C130.701269,25.5607698 130.707819,25.5673217 130.714157,25.5757757 C130.978241,25.8418657 131.161833,26.156989 131.263241,26.518398 L131.339509,27.0869303 C131.350072,27.3807072 131.288805,27.6552512 131.155706,27.9090829 C131.076305,28.1529988 130.945244,28.3651255 130.764639,28.5485562 L130.695143,28.6168951 C130.498453,28.8282454 130.268171,28.9783041 129.999861,29.0649577 C129.831058,29.1645037 129.647044,29.2131142 129.452678,29.2131142 C129.165565,29.2784215 128.876129,29.2659518 128.588593,29.1748598 C128.417678,29.1008872 128.244227,29.0290281 128.071199,28.9573804 L128.016058,28.9254665 C127.363241,28.5684959 126.95972,27.8203158 126.95972,27.0869303 C126.95972,26.3533334 127.363241,25.6030399 128.016058,25.2458579 C128.035284,25.2376152 128.051974,25.2268364 128.071199,25.2162688 C128.320495,25.0577561 128.588593,24.9711025 128.876129,24.9586328 Z" id="ðŸ–-Ink" fill="#000000" fill-rule="evenodd"></path>
                </g>
                <g id="head/No-Hair-3" transform="translate(78.591549, 38.043053)" fill-rule="evenodd">
                    <path d="M84.0865911,40.5969618 C76.6696661,21.0350127 63.299906,6.71244305 40.7605157,15.7083569 C40.1139249,15.2670575 39.2702157,15.1487014 38.4617138,15.6654528 C26.1836575,23.3943217 17.3419981,35.7855781 13.5103102,49.7581573 C11.1784093,50.202627 8.91249554,50.9778599 6.88860537,52.2491319 C2.49001738,55.0121143 -0.469289535,59.4086231 -3.24328401,63.69058 C-4.07750624,64.9779147 -3.30505482,67.109171 -1.73738322,67.4014685 C-1.05642851,67.5287014 -0.381587627,67.6043648 0.28945846,67.6242317 C0.126071492,68.2187601 -0.088966839,68.7932102 -0.362824479,69.3201065 C-1.35431984,71.2273315 0.51883268,73.2522787 2.27434659,72.7308775 C2.46914602,72.8342278 2.67322161,72.9191906 2.88467597,72.9830184 C2.90870966,74.0634411 3.46253878,75.5097112 4.5586018,75.728036 C6.33119228,76.1093119 8.68691612,74.7492728 8.26864548,72.7617346 C8.80413309,72.8562082 9.3377233,72.8680438 9.85782091,72.8025252 C9.91600776,73.8375076 9.89787707,74.9175076 10.0403927,75.8721769 C10.5063091,80.371402 14.9904907,83.3937112 19.266802,82.0250067 C19.5290644,83.4268932 19.8370752,85.3966779 21.2143747,86.1571162 C22.8246323,90.685719 25.6051622,95.8538677 30.1593368,97.9172806 C29.7539263,98.9586035 29.9738135,100.225437 31.1948939,100.922259 C39.5310024,105.686729 49.5366095,107.298909 58.9611914,105.527582 C62.7277353,105.302705 66.397512,104.449484 69.9199242,102.63166 C72.4885782,101.306071 74.8499942,99.6226661 77.1551208,97.8872689 C79.4615123,96.1512376 81.927496,94.4608579 83.7683928,92.206807 C85.7678276,89.7587366 86.6986063,86.8784548 87.302611,83.8128188 C90.0704916,69.8977268 89.1144825,56.2345948 84.0865911,42.9791271 C77.8628468,26.570928 90.3080938,57.0060153 84.0865911,40.5969618 Z" id="âœ‹-Skin" fill="#EDB98A"></path>
                    <path d="M6.8667708,51.449005 C13.7899483,47.3550452 22.6191207,48.4146818 26.778498,54.7563411 C27.4965044,55.851124 27.9923007,57.0554675 28.3424862,58.4496053 L28.3990043,58.6813938 L28.4554175,58.9252087 C28.6368489,59.7312457 28.7556584,60.4897751 28.9168526,61.7794211 L29.0954613,63.2427887 L29.1464573,63.6414931 C29.319722,64.9660139 29.4717319,65.8025896 29.7085645,66.6554064 L29.7554908,66.820806 L30.029049,67.7653042 L28.9964024,68.1478203 C27.0176562,68.8642878 26.6034086,68.9282476 25.4615735,68.3299452 C24.5699558,67.8627526 24.1045417,67.2337711 23.4851293,65.9590612 L23.3955316,65.7725148 L23.1979257,65.3566801 L23.0907416,65.1375855 C22.6871556,64.3297727 22.3639796,63.4683973 21.9074503,63.1556264 C21.2873306,62.7307788 19.3327035,62.5616192 17.9733578,62.7290868 L17.9025039,62.7380732 L17.8439084,62.7503289 L17.7432508,62.773011 C15.4573393,63.3146785 13.3738446,65.1646409 11.9996156,67.1194841 C10.8931072,68.693614 10.2572573,70.67645 10.1792842,72.7368703 L10.1749134,72.874343 L10.1478362,73.9259823 L7.93197174,73.8786809 L7.95367757,73.4693777 L7.92047603,73.5421115 C7.22239526,75.0175915 5.46839593,76.0001036 4.00090506,75.0233973 L3.94861875,74.9876794 L3.89535412,74.9493697 C2.65648277,74.035299 2.50729777,72.184638 3.52412209,71.0607966 L3.57114468,71.0102192 L3.6168604,70.9636086 L3.6075115,70.9592543 L3.59697523,70.9556942 L3.59044397,70.954991 C3.24405151,71.0188249 2.93979349,71.1969336 2.52817367,71.5760159 L2.4222739,71.6754431 L2.20968089,71.9060591 L1.98968992,72.1414439 L1.89516371,72.2387065 C1.83475512,72.2997943 1.7793066,72.3535524 1.72727204,72.4010487 C1.65696439,72.4652244 1.59188789,72.5192184 1.52103877,72.5683825 C1.45555843,72.613821 1.38791857,72.6536126 1.30611809,72.6891943 C1.10422611,72.7770134 0.888424702,72.8186136 0.612254165,72.7505323 C0.233465149,72.6574304 0.0199634248,72.427903 -0.109282051,72.1574899 C-0.159476721,72.0524703 -0.188174214,71.9557956 -0.208513646,71.8537465 C-0.229752692,71.7471839 -0.240276886,71.6383695 -0.245738221,71.5128428 C-0.249307401,71.4308065 -0.250573855,71.3412246 -0.249865634,71.2432563 L-0.247359283,71.0899088 L-0.242145002,70.923351 L-0.236549965,70.7904687 L-0.211457138,70.2975029 C-0.121737303,68.6792551 0.302541623,67.0898522 1.02892695,65.5895674 L1.1025713,65.4398382 L1.13000535,65.3854403 L1.05407332,65.4875081 C0.558692793,66.1419856 0.0803086868,66.5957082 -0.51669818,66.8952995 L-0.598856209,66.9352019 L-0.679182328,66.9717349 C-1.507536,67.3364696 -2.34182977,67.1949421 -2.84585252,66.518664 C-3.19453969,66.0508091 -3.29741457,65.4349433 -3.22598472,64.7870705 C-3.08727833,63.5301407 -2.59142723,62.3793071 -1.62055928,60.7000205 L-1.48451403,60.4664141 L-0.951568336,59.5603783 C1.10207591,56.0955384 3.7418736,53.2965866 6.8667708,51.449005 Z" id="ðŸ’ˆ-Hair" fill="#E8E1E1"></path>
                    <path d="M48.2295137,11.8964008 C52.0253619,11.6277746 55.8903597,12.2692227 59.5051119,13.4166434 C65.2702474,15.2460916 70.5648284,18.4746787 74.9147165,22.677802 C79.3978441,27.0094262 82.71344,32.3500368 84.7295298,38.2486121 C87.1607278,45.3622403 87.5246064,52.9577472 88.2089343,60.3835397 C88.554619,64.1353667 89.1242476,67.8299706 89.7164609,71.5454515 L89.8101266,72.1322912 C90.3886219,75.752299 90.7141309,79.4135202 89.9149051,83.0278215 C88.5863055,89.0348196 84.6034583,94.1338568 79.8757773,97.9015984 C70.1638452,105.641669 55.0449639,110.360487 43.73711,103.238193 C41.9877099,102.136213 43.6454025,99.3182795 45.3532706,100.466546 C46.5551663,101.27496 47.8285305,101.983618 49.1940239,102.472894 C54.899286,104.516863 61.1651235,103.788761 66.8037658,101.887454 C72.3603985,100.013833 77.692295,96.8480172 81.7923592,92.6235476 C86.0990288,88.1862481 88.4857434,82.705301 88.1408388,76.4687765 C87.9352875,72.7580994 87.0919999,69.1161112 86.6239753,65.4356571 C86.209387,62.1759311 85.9608177,58.8985306 85.6742942,55.6256223 L85.5692749,54.4483827 C84.9617964,47.7801372 84.0893078,40.9289811 81.0629154,34.8760955 C78.517241,29.7838215 74.7896991,25.253528 70.3076257,21.7548352 C65.615152,18.0919233 60.010452,15.5301464 54.1297861,14.5746317 C47.2144063,13.4510935 40.5945989,15.4942168 34.8258794,19.2976767 C29.7096537,22.6708274 25.3110657,27.1785065 21.938337,32.2931836 C20.3027808,34.7731679 18.9094589,37.4215984 17.7062984,40.1376611 C16.5724982,42.6966904 15.7907706,45.3787256 14.8789659,48.0163773 C15.6292811,47.9939742 16.3920347,48.0229292 17.1665943,48.1087374 C21.1393221,48.5500368 24.8407221,50.6140838 27.1970784,53.8686669 C30.0766946,57.8456454 29.2983402,62.7274145 30.423075,67.2503108 C30.5101444,67.6013636 30.3621474,67.9450192 30.0621479,68.1392501 C28.3568096,69.2441894 26.0744518,69.2809644 24.4239272,68.0367452 C22.9913924,66.9569566 22.3188706,65.0047139 22.8988416,63.2989057 C22.9745267,63.0765652 23.2975058,63.1158763 23.3065711,63.3542795 C23.4155661,66.2571757 26.1020694,68.4926278 28.7354457,67.1112423 C27.605862,63.2111953 28.2003797,58.8554771 25.8899826,55.3326904 C21.8006704,49.0978568 13.3382796,48.8402207 7.39457791,52.3549761 C4.26650455,54.2044356 1.79055713,56.9853862 -0.053109452,60.0959588 L-0.584261294,60.9989565 C-1.29096971,62.2054812 -2.03939086,63.5703851 -2.18601221,64.8990387 C-2.27055179,65.6658176 -1.98826128,66.3863108 -1.11082056,65.9999624 C-0.400983241,65.6875867 0.148629435,64.9586395 0.570273222,64.3319859 C1.28937083,63.2631807 2.94182603,64.1865577 2.34785351,65.3247084 L2.32768452,65.3618959 C1.46323043,66.8972169 0.931017878,68.5891027 0.833282893,70.3519171 L0.808445962,70.8400693 C0.792149265,71.1958468 0.780436297,71.7014932 0.855515243,71.7199468 C0.945536192,71.7421386 1.57104475,71.0182638 1.67519076,70.9180838 C2.17694687,70.434937 2.69367133,70.0401346 3.39212426,69.9114223 C4.31028453,69.7427197 5.2366543,70.8815701 4.43964788,71.6281835 L4.40638839,71.6582325 C3.69507533,72.2781229 3.72669861,73.5143108 4.51243181,74.0940446 C5.62136782,74.9122254 6.98662005,73.5767793 7.14756838,72.4772467 L7.15297602,72.4366356 C7.2952808,71.2486356 8.94116732,71.2065769 9.0305558,72.4366356 C9.22472277,75.1059898 6.05459396,77.343344 3.64258067,75.99662 C2.68882243,75.4644399 2.08249866,74.4899037 1.89254814,73.4454106 C1.58812132,73.6066708 1.25966081,73.7184751 0.912437155,73.7493323 C-0.217989838,73.8497237 -1.0216429,73.0529331 -1.20442548,71.9835006 C-1.41735559,70.7375906 -1.29107328,69.4035476 -0.963666875,68.1096611 C-1.57758023,68.258029 -2.22332769,68.2013871 -2.8724483,67.8258176 C-4.83625423,66.6898098 -4.27230567,64.1629057 -3.53084507,62.4568861 C-0.365354341,55.1750231 6.19289312,48.5675789 14.3179689,48.0430074 C14.3624523,46.758209 14.5361695,45.5435789 14.8203575,44.2570896 C17.5994117,31.6735045 26.6023498,20.0213401 38.322993,14.5752658 C41.454963,13.1199076 44.7764619,12.1409331 48.2295137,11.8964008 Z M17.4930309,62.1630669 L17.6044187,62.1379014 C18.87068,61.8643956 22.2030197,61.543092 21.8013871,63.6792939 C21.7824132,63.7796853 21.6367352,63.767427 21.6108042,63.6792939 C21.2174105,62.3361628 18.5450322,63.410245 17.7647804,63.733611 C16.6891671,64.1791374 15.6281005,64.8364368 14.7498165,65.6004681 C12.82691,67.273517 11.5379449,69.6313409 11.3418805,72.1920611 C11.1475028,74.7322802 11.8826387,77.4760297 13.7104645,79.3135092 C14.6064576,80.2140728 15.7501663,80.8255092 17.034915,80.8705268 C18.1891648,80.9106834 19.4644265,80.0099084 20.5294987,80.5374387 C20.7394773,80.6414231 20.9058157,80.9269573 20.8868418,81.1619789 C20.8510021,81.6068712 20.6524078,81.9532744 20.3568355,82.2219006 C22.1399671,85.4794427 23.5992763,88.9274114 25.8738337,91.8896971 C27.0152234,93.3759123 28.3086157,94.7522254 29.7731954,95.9235288 C30.4693293,96.4804368 31.2261799,96.9695014 32.0066425,97.3991765 C32.9211879,97.903247 33.7126133,98.2185816 34.3653179,99.0724368 C34.9218877,99.8005386 34.3651071,101.208343 33.4476102,101.333885 C31.2868966,101.62893 29.1871105,99.8776814 27.6008866,98.5658301 C26.0161384,97.2550356 24.6464286,95.6382059 23.5145259,93.9226755 C21.3409521,90.6283585 19.8540253,86.7420493 19.2595076,82.8102998 C18.5692767,83.0296814 17.7921872,83.0966795 17.2075781,83.0979476 C15.6521342,83.1015405 14.1668939,82.5406168 12.9445486,81.5927108 C8.46964307,78.122973 7.97231423,70.9989886 11.1302154,66.5065268 C12.6413867,64.356883 14.9376588,62.7685855 17.4930309,62.1630669 Z M17.5210702,70.4255953 C18.5587356,70.334292 19.5955577,70.4985112 20.5708198,70.8531569 L20.9728596,70.9992687 C21.8221462,71.310571 22.726161,71.6766141 23.3395437,72.3148556 C24.276647,73.2904485 23.3435493,74.9808282 22.0086251,74.6069495 C20.532661,74.1935483 19.3330844,72.947427 17.857542,72.4247577 C16.5386402,71.9576736 15.0447563,72.0238262 13.8742731,72.8282254 C13.7197407,72.9345346 13.5165084,72.7248751 13.6174921,72.5705894 C14.5128526,71.2037871 15.9264134,70.5657205 17.5210702,70.4255953 Z" id="ðŸ–-Ink" fill="#000000"></path>
                </g>
                <g id="face/Eating-Happy" transform="translate(112.183099, 77.354207)" fill="#000000" fill-rule="evenodd">
                    <path d="M26.651385,41.4864172 C27.8332398,39.5415711 30.3523572,44.3057979 30.6200098,45.1249997 C30.8570644,45.850687 31.0135488,46.5940725 31.0930874,47.3460616 C32.0093391,47.5515032 32.9607994,47.5518825 33.8996301,47.3718474 C35.2949741,47.1040359 36.147956,46.3536048 37.3606685,45.7092415 C38.1982987,45.2639875 39.253962,45.7861206 39.6895539,46.524568 C40.2019297,47.3937571 39.8755006,48.2959069 39.201613,48.9438883 C37.923659,50.1726203 35.409214,50.4548999 33.7410515,50.1285895 C32.7852837,49.9417094 31.9093184,49.5831419 31.1357638,49.0620417 C31.1306364,49.159284 31.1272121,49.2565522 31.1195448,49.3536508 L31.1047743,49.5220861 C30.9766029,50.8848667 30.6021836,52.5984609 29.5440832,53.4852118 C27.8086691,54.9398049 25.6669327,52.142372 27.3531919,50.6894243 L27.4054668,50.6458128 C28.4536,49.7986046 28.6822644,47.525525 28.6258217,46.2735213 C28.5888138,45.4563605 28.4400203,44.6287353 28.1821129,43.8504618 L28.1290773,43.6954828 C28.0514434,43.4756328 27.2049692,41.3901568 26.8990933,41.6557485 L26.8844918,41.6707244 C26.758361,41.8213851 26.5545245,41.6458886 26.651385,41.4864172 Z M36.0875289,30.5120405 C37.6828906,31.482148 40.1137318,33.7442494 38.3974899,36.149264 C36.3773089,38.2698449 33.4687045,35.8384541 32.0353946,34.7388307 C30.7063626,33.8866164 29.2131206,36.0784478 30.4461973,37.0735516 C40.8033244,44.7445605 45.006466,30.7657101 36.8944406,29.3714319 C36.0012775,29.2177885 35.6695544,30.2119271 36.0875289,30.5120405 Z M19.051838,21.5451123 C20.610993,21.2684548 22.2081761,21.6562826 23.4983873,22.5688932 L23.5961707,22.6392476 C24.8391675,23.5486603 26.2298987,25.1455025 25.5166268,26.7130497 C25.2303592,27.3424509 24.3730352,27.4411515 23.8290211,27.1558286 C22.9233169,26.6807131 22.759162,25.5117346 21.9510634,24.8647914 C21.2883169,24.3345135 20.3959225,24.0128384 19.5424014,24.0904039 C17.5372606,24.2725879 16.3038803,26.251038 15.6810634,27.9560008 C15.6014155,28.1741143 15.2813451,28.2588658 15.1562746,28.0246896 C13.6877535,25.2788266 16.2871901,22.0358677 19.051838,21.5451123 Z M44.0259085,20.5088618 C47.0125986,20.2626387 50.5084437,23.3601886 49.7221056,26.5139577 C49.344993,28.0272258 47.1011197,27.983899 46.7022465,26.5139577 C46.4827394,25.7051202 46.5047113,24.9894881 45.922669,24.3178168 C45.4422465,23.7632337 44.7596408,23.4411358 44.0259085,23.4905918 C43.2171761,23.5451202 42.4711901,23.9494333 41.9043592,24.5177542 C41.3924577,25.0309127 41.086331,25.7818403 40.5560493,26.2360321 C40.4254859,26.347625 40.2507676,26.354811 40.1218944,26.2360321 C39.2092183,25.3942239 39.7570352,23.6417072 40.3356972,22.7629127 C41.1638662,21.5053785 42.5123873,20.6337699 44.0259085,20.5088618 Z M13.3643239,15.9516845 C15.2803099,14.2549644 18.7617887,12.6163656 21.3453803,13.4514106 C22.8308028,13.9313871 23.478338,16.3257746 21.8200986,17.0847335 C19.8998873,17.963528 17.6860141,17.6059233 15.7315775,18.5168431 C14.9108028,18.8995984 14.138831,19.3778841 13.5673521,20.0793558 C13.1171408,20.6322481 12.6591127,21.3597159 12.0079859,21.6784321 C11.8368592,21.7623382 11.6050986,21.7644517 11.4679859,21.6088978 C10.040662,19.9937589 12.1180563,17.0551444 13.3643239,15.9516845 Z M40.7327324,13.3671875 C41.9168873,13.0347335 43.2305493,13.0414967 44.433507,13.2503108 C45.6360423,13.4591249 46.8569577,13.9577002 47.8387183,14.6849566 L47.9526883,14.7701118 C49.0244692,15.5780701 50.3034536,16.7536241 50.2349155,18.1849174 C50.177662,19.3801033 48.920831,20.1885182 47.8357606,19.5620759 C46.9511831,19.0512423 46.5349859,18.0278841 45.7860423,17.3464908 C45.1680845,16.7840877 44.442169,16.3406748 43.667662,16.0299898 C42.8073803,15.6848548 41.9456197,15.5231718 41.0223803,15.5077432 C40.3114648,15.4959076 39.5963239,15.7292384 38.8987183,15.803845 C38.9561831,15.9217785 38.4047746,15.8668274 38.0887183,15.762209 C37.8546338,15.6624517 37.8533662,15.3663499 37.934493,15.1742325 C38.3369577,14.2225221 39.8012535,13.6284164 40.7327324,13.3671875 Z" id="ðŸ–-Ink"></path>
                </g>
                <g id="facial-hair/Full-2" transform="translate(104.577451, 109.479380)" fill="#000000" fill-rule="evenodd">
                    <path d="M52.4221901,23.6127945 C51.6848662,23.3714325 50.9606408,23.0905479 50.2330352,22.8198082 C46.5128239,20.9504149 42.0189507,20.611409 38.1174718,22.1857573 C36.2025423,22.958454 34.4169085,24.3468141 32.4954296,25.2566771 C32.0390915,25.4270254 31.5789507,25.5817339 31.1137394,25.7115029 C30.8285282,25.6121683 30.5433169,25.5064932 30.2602183,25.400818 C28.2221197,24.6323483 26.3050775,23.6844423 24.4438099,22.6416399 C24.2452183,22.3620235 24.0392324,22.090227 23.8178239,21.8292094 C25.1646549,21.6379374 26.4833873,21.3200665 27.6764155,20.9920509 C31.3397958,19.988137 34.7919085,18.3522857 38.4426127,17.3039883 C41.8419085,16.3254364 45.5306408,15.7907202 48.9447254,17.0059843 C50.5651479,17.5829706 51.9912042,18.593225 53.5672606,19.273773 C54.3827535,19.6246145 55.3609225,19.9691155 56.3137394,20.0198395 C55.6989507,21.4929511 54.9214859,22.8688415 53.8588099,24.0143601 C53.3728944,23.9107984 52.8912042,23.7649667 52.4221901,23.6127945 Z M60.349162,12.0747593 C60.0229648,12.3459217 58.6767676,13.2209119 58.2400775,13.7425245 C58.1272606,13.6996204 58.0150775,13.6556595 57.9035282,13.6104305 C57.7114859,13.3745636 57.4285986,13.271002 57.1402183,13.2773425 C55.1270493,12.340638 53.3348662,11.0169511 51.7355704,9.35721722 C50.5989507,8.17999609 49.4348662,6.94782387 47.9158521,6.26516243 C46.1264155,5.45780431 44.3665563,5.82978082 42.4862746,5.95236399 C40.4855704,6.08551468 38.5102183,5.51698239 36.5116268,5.78962427 C35.0496549,5.99040705 33.6806408,6.60966341 32.4975423,7.48254012 C30.0827535,9.26422309 28.4179648,11.7666106 26.3771197,13.9244971 C24.0616268,16.3719335 21.2137394,17.9359256 18.046838,18.7348297 C18.0088099,18.7094677 17.968669,18.6841057 17.9285282,18.6608571 C15.5940211,16.5473542 13.4855704,14.1612094 11.6200775,11.6186654 C9.7989507,9.13529941 4.99683803,-2.04301761 3.83697887,-3.02368297 C3.35528873,-3.43158904 2.82711972,-3.60700978 2.32219014,-3.59221526 C1.40740141,-3.57108023 0.562330986,-2.93491585 0.184161972,-1.93311546 C-0.458091549,-0.229632094 -0.136964789,1.97263796 -0.0862605634,3.75432094 C-0.0228802817,5.93545597 0.12078169,8.1144775 0.348950704,10.285045 C0.575007042,12.4302505 0.875007042,14.5691155 1.2489507,16.6931859 C1.43697887,17.7668454 1.6461338,18.8383914 1.87641549,19.9057104 C1.94824648,20.2417573 2.03909155,20.5418748 2.1489507,20.8208571 C2.26092254,21.3471194 2.38134507,21.8712681 2.51021831,22.3911898 C3.35106338,25.7960431 4.67782394,29.2051233 7.21092254,31.7180783 C9.84754225,34.3367084 13.4306408,36.0761213 16.7581056,37.6316595 C19.9271197,39.113225 23.2482465,40.4299374 26.655993,41.4613268 C29.6158521,42.8034012 32.7848662,43.8643796 35.9665563,44.4223444 C39.4693732,45.0373738 43.1517676,45.0754168 46.534162,43.8580391 C48.196838,43.2599178 49.768669,42.4250841 51.1947254,41.3852407 C53.2165563,40.3348297 55.0355704,38.8913072 56.525007,36.9807006 C59.192706,33.5565513 60.4660235,29.4012411 61.0231856,25.1164508 C61.1657905,24.0197643 61.7019307,19.8165841 61.7440898,19.1621818 C61.8802406,17.0488169 62.0163914,14.9355171 62.1525423,12.8220939 C62.2167676,11.8247319 60.9931056,11.5400431 60.349162,12.0747593 Z" id="ðŸ–-Ink"></path>
                </g>
                <g id="mask/respirator" transform="translate(83.450704, 97.432485)" fill-rule="evenodd">
                    <path d="M72.7465858,5.73080548 C70.8799759,3.79272329 69.0062223,1.82653151 66.617874,0.487204697 C66.7230089,-0.0868227006 66.4910995,-0.746446967 65.809205,-1.02120235 C59.1982814,-3.49400078 54.9956515,3.623009 50.2078476,6.80277417 C49.0890218,7.4042771 47.9669885,8.09814012 46.7177048,8.33316164 C44.0613665,9.10902857 41.807368,10.7155022 40.2057185,12.8262575 C39.3402241,13.6579209 37.8144673,15.045647 37.3906794,16.176371 C37.1312649,16.6379601 13.8808416,5.57208141 8.58938101,4.3407546 C6.08357809,3.50232798 4.73441193,5.87210234 7.91043851,7.08830841 C16.2562957,10.2842144 32.5970617,17.4380106 36.24531,19.4994317 C35.5442643,21.6634474 35.3348884,24.5316822 36.0176154,26.6718153 C35.4438043,30.0029072 36.5577525,33.0545941 38.7595869,35.4462341 C39.2261065,36.1253025 39.9393323,36.6147898 40.4035248,37.2040344 C42.0896775,41.6132243 46.1359081,43.7458522 50.8708617,45.8533339 C58.4051498,49.206772 64.9729687,49.8786693 69.1018187,48.409827 C79.8201262,44.3163945 86.0409768,32.288238 84.0367328,21.3288798 C82.1516704,13.608465 82.5407497,6.83616751 72.7465858,5.73080548 Z" id="ðŸŽ¨-Color" fill="#9DDADB"></path>
                    <path d="M49.4950249,5.68050411 C55.9422703,2.08036321 57.0310605,-5.25729628 66.3815388,-1.52717495 C69.3029877,-0.346572211 70.3291345,1.40108337 72.2781284,3.58412055 C73.2874884,4.50180352 74.5581607,4.95810881 75.8120342,5.44675068 C80.5811538,7.03060978 83.3777184,11.5304689 84.4444974,16.2573182 C87.2351841,26.0689149 84.3132908,37.5629092 77.1811398,44.7028362 C77.2815898,44.883735 77.262022,45.1443711 77.0442953,45.2645542 C76.6436442,45.485635 76.2453954,45.7121501 75.8486132,45.9420712 C73.3539843,48.0979423 68.2927505,50.9328555 64.5409521,50.9328555 C56.1754182,50.9328555 48.0941698,47.5377523 43.1557016,43.1801753 C36.8349104,38.0802928 32.8486027,27.4394395 34.8994913,19.7811616 C23.1461999,14.2455085 12.258666,10.0415335 7.70776249,8.21812402 C6.58475357,7.0397531 6.57453137,6.60636511 7.67709587,6.91796008 C18.3622492,9.93768359 39.4023911,19.7589699 39.6555308,19.769326 C39.8056414,19.7754552 40.3574295,18.5692791 40.4660844,18.0510481 C39.9740016,17.9971961 10.9519656,5.47286707 7.33751104,4.31089805 L7.14628209,4.24987397 C5.42724811,3.70670372 5.85672789,3.28400313 7.17778792,3.36093464 C9.85641561,3.51733386 32.5661839,14.0628681 36.9854422,15.1196196 C38.9597686,10.6812634 44.5681129,8.37733386 49.4950249,5.68050411 Z M63.5729053,-0.611605479 C59.9837174,-1.66835695 57.3450521,0.938014873 55.4251729,3.66971742 C50.8964926,9.28751601 42.6358355,9.46508063 39.2246642,16.1399144 L39.1227886,16.3441832 L40.4730936,16.7499757 L40.5099771,16.6889468 C40.6163662,16.5232894 40.9333652,16.1025521 41.2020853,16.4855765 C42.5984194,17.9868505 40.4122783,22.9710508 39.2643071,20.775818 L39.2298426,20.7070873 L37.3548747,20.1907585 C33.9681254,33.9212601 46.891587,46.2838127 59.8944121,48.3774968 C59.8944121,48.3774968 65.3192355,48.4643514 67.4934606,47.9391076 C69.0965824,47.5519139 70.4814938,46.8028885 71.9613819,46.0595695 C73.4319497,45.3207996 74.6466662,44.1771719 76.0713228,43.3957553 C80.141325,39.3584145 82.8176149,33.8158054 83.5454835,28.0665159 C84.2581121,21.1724806 83.5908407,12.3948916 77.6104852,8.02289941 C75.6414994,6.77381918 73.2142669,6.43819491 71.4145015,4.89364697 C69.2664738,2.51891507 66.7523453,0.104026614 63.5729053,-0.611605479 Z M57.1180843,31.6412947 C57.0578079,31.5423828 57.1969022,31.4474865 57.2757608,31.5212477 C58.5343536,32.6999483 59.7507498,33.9266254 60.9259853,35.1896548 C60.9879984,35.1699992 61.0584483,35.151189 61.1492354,35.1289973 C61.5808047,35.0235089 61.9538499,35.4745313 61.7450794,35.8719284 L61.6953994,35.960969 C61.381361,36.4957177 60.6594023,36.9664575 60.2296378,36.3218583 C59.1355225,34.8020384 58.0947107,33.239737 57.1180843,31.6412947 Z M41.564016,34.4676611 L41.5628462,34.421226 C41.5388335,33.9620003 41.1657948,32.8037002 41.9241408,32.9812344 C42.8015968,33.4918568 43.126356,34.8267452 43.1756385,35.7748626 C43.2297382,36.8155515 41.5047342,36.8286552 41.5493005,35.7748626 C41.5678757,35.3386356 41.6022822,34.903254 41.564016,34.4676611 Z M77.9982237,31.2650278 C78.1200811,31.2419906 78.1851797,31.3945855 78.0792486,31.4641198 C76.6885208,32.2456932 76.8050293,33.8213096 76.5806391,35.134429 C74.9837091,36.1992117 75.1461231,31.6372157 77.9982237,31.2650278 Z M38.0930752,25.6900932 C51.4853169,27.0410442 65.8916532,31.0404258 79.588393,26.9738348 C80.418362,26.7485354 80.7475496,28.0324885 79.9201713,28.2544063 C66.1139979,31.7550012 51.4540569,29.6639014 38.0930752,25.6900932 Z M74.4140223,20.1560548 C74.8284226,20.0596791 75.2190258,22.106184 75.8586138,22.4870372 C76.1764096,23.1270059 78.6977159,23.6904658 77.6352458,24.4752094 C75.8220482,24.8541605 73.8334839,21.7876791 74.4140223,20.1560548 Z M62.6493371,20.6405542 C62.9604237,20.634425 63.1734753,20.8730395 63.2752845,21.1444133 C63.553106,21.9414153 62.3638514,21.8146051 61.9209056,22.0796384 C60.0470912,23.3705659 57.8830854,24.4116775 55.580532,24.4599654 C55.4366113,24.4628243 55.4353032,24.2723977 55.5528911,24.2263233 L55.954408,24.0690469 C57.2210587,23.5704942 58.4415972,23.059559 59.6067185,22.3216344 C60.5499046,21.7247812 61.4573802,20.6139241 62.6493371,20.6405542 Z M55.5739714,6.61177691 C55.2571763,4.32919374 62.4654536,-1.43411742 64.674748,1.04354207 C65.2458884,1.68139726 64.4965967,2.62845793 63.7430705,2.22583562 C60.663602,1.41763209 57.7182901,4.77577691 55.5739714,6.61177691 Z" id="ðŸ–-Ink" fill="#000000"></path>
                </g>
                <g id="accessories/*-None" transform="translate(88.521127, 88.978474)"></g>
            </g>
        </g>
    </g>
</svg>