<?xml version="1.0" encoding="UTF-8"?>
<svg width="168px" height="241px" viewBox="0 0 168 241" version="1.1" xmlns="http://www.w3.org/2000/svg" xmlns:xlink="http://www.w3.org/1999/xlink">
    <!-- Generator: Sketch 62 (91390) - https://sketch.com -->
    <title>bust-mask-12</title>
    <desc>Created with Sketch.</desc>
    <g id="Introduction" stroke="none" stroke-width="1" fill="none" fill-rule="evenodd">
        <g id="busts-covid-19" transform="translate(-1217.000000, -237.000000)">
            <g id="a-person/bust" transform="translate(1181.000000, 188.000000)">
                <g id="body/Button-Shirt-1" transform="translate(31.056338, 135.052838)">
                    <path d="M16.4080859,150.90384 C44.0091126,155.097875 72.110833,155.308803 99.9412125,153.785813 C110.955417,152.960912 122.003382,152.812333 133.008725,153.866971 C139.511834,154.350752 168.024575,156.531042 170.354182,150.704325 C168.887971,119.677046 165.918412,88.3855779 156.808658,58.5450299 C153.062212,47.9494056 149.844501,39.1551718 142.532432,30.3870935 C140.227934,27.9931287 135.258075,22.9722586 132.410472,21.3347165 C129.943295,19.9163447 128.912122,20.4223498 127.495494,18.0264829 C126.087755,15.3798047 125.049434,10.9596359 123.050581,9.09206097 C121.015401,7.19054559 117.999291,7.87086804 114.260943,8.48333207 C114.947737,-0.80142027 110.66361,-3.16608555 104.761628,-4.9317059 C94.3873743,-8.89262175 84.1417256,-6.90277317 81.5306494,5.73111332 C76.6892273,5.73111332 73.969718,7.81536874 71.0297141,9.81803688 C69.8278884,10.636695 70.6639235,12.7224375 69.2283982,13.3658809 C66.5724287,14.3118839 61.8789491,14.0801679 59.3216619,15.2444183 C47.6927323,20.5386947 37.3352428,28.2161425 30.5332167,39.4286072 C15.2838989,63.3674096 4.80878886,113.794744 6.62145596,142.167676 C5.82726681,143.413586 6.92550127,145.20013 7.20464905,146.539879 C7.55701246,147.705265 8.69807912,148.480498 9.88894084,148.347981 C11.5507458,150.135793 14.1210997,150.533766 16.4080859,150.90384 Z" id="âœ‹-Skin" fill="#D08B5B"></path>
                    <path d="M73.8305773,7.62832499 C75.5312338,5.85331757 78.1978473,4.79369456 80.7231322,4.85332725 L80.8413972,4.85694384 L81.6986589,4.89535575 L81.1258349,7.70686366 L81.0969803,7.84012976 L80.9801555,8.32825947 L80.8245702,8.96732905 L80.7692273,9.20226174 L80.7108575,9.46234152 C80.7016401,9.50457462 80.6926657,9.54632085 80.6839157,9.58768511 L80.6583198,9.71073677 L80.414094,10.9052524 L80.4597046,11.0114148 L80.4465054,11.2828499 C80.4086487,12.2640547 80.6199609,12.8034081 81.0855243,12.9764107 L81.1228076,12.989309 L81.3883283,13.0745582 L81.6050925,13.5449811 C82.1037706,14.6207709 82.5689876,15.560486 83.0466304,16.4455838 C84.4395941,19.0267491 86.101525,21.607146 88.0176794,24.2002292 C89.838272,26.6642227 91.7348113,29.0161122 93.7066695,31.2494111 C94.5932971,32.2534842 95.5298602,33.261675 96.5266685,34.2880812 L97.3847893,35.1671663 L97.6576545,35.44347 L97.8412184,35.626685 L98.0701645,35.8509689 L98.4001024,36.1656091 L98.6392115,36.4010745 L98.7167616,36.4747577 C98.8143113,36.5654193 98.8896913,36.6267242 98.9576896,36.6703558 L98.9828718,36.6859121 L99.0583549,36.730708 L103.036418,40.9161487 L104.44147,41.6889972 L105.108742,42.0589198 L105.243953,41.7898708 L105.271202,41.7034434 L106.749941,38.4551681 L107.652686,36.4657482 C109.505749,32.3727447 110.947494,29.1166941 112.265893,26.0164419 L112.430072,25.6296725 L112.916147,24.4761455 L113.173464,23.8606968 C114.351917,21.0356381 115.222489,18.8552111 116.001553,16.7371803 L116.112249,16.4349661 L116.276264,15.9824113 L116.520038,15.2998654 L116.564322,15.1832653 C116.775934,14.6413874 116.256111,12.6716549 115.744112,11.592638 L115.715144,11.5325284 L115.582029,11.2651132 L115.437965,10.9831384 C115.099407,10.3222039 114.854148,9.588568 114.647971,8.70050688 C114.614589,8.55677168 114.583169,8.41200359 114.553632,8.26602459 L114.510728,8.04612566 L114.483531,7.90175342 L114.445502,7.69970254 L114.391206,7.41024006 L115.536965,7.21867278 L116.165566,7.11612068 L116.439604,7.07311672 C116.794812,7.01825807 117.111011,6.97312544 117.408546,6.9353924 L117.519286,6.92158482 L117.718556,6.89798218 L117.725643,6.93736204 L118.134417,6.97768017 L118.437981,7.0090958 C119.933005,7.16724701 121.08623,7.34155361 121.905126,7.5347071 L121.985901,7.55408538 L122.132162,7.59097123 L122.198949,7.60867319 C122.943754,7.80925068 123.517747,8.24268634 123.971954,8.88184547 C124.283511,9.32026723 124.485721,9.74022557 124.805679,10.5359899 L124.920436,10.8232775 L125.301298,11.7651031 C125.345845,11.8798414 125.414688,12.0630064 125.507969,12.3149728 L125.831147,13.1951505 L127.450925,17.6699413 L129.1086,18.542429 C129.879145,18.94571 130.442695,19.2365567 130.721076,19.3740647 L130.819787,19.4221054 L130.890394,19.4544271 L131.461675,19.6809562 L131.400362,19.859319 L131.46933,19.8988114 C138.293798,23.8259973 143.55653,29.8674158 147.653846,37.8879446 L147.777651,38.1315965 L147.90454,38.3840516 C151.170105,44.9170648 153.509615,52.2077337 155.79402,61.9412316 L155.935261,62.546434 L156.046501,63.0276932 L156.642009,65.6252674 C158.879732,75.4325196 160.417478,82.745813 161.690058,89.9216146 L161.77268,90.3894309 L161.984779,91.6084902 C163.582864,100.896534 164.921013,110.100353 165.991643,119.214073 L166.169332,120.747765 C166.616102,124.663876 167.019731,128.71177 167.457627,133.57272 L167.516223,134.225725 L167.709101,136.409081 C167.914292,138.762052 168.101863,141.110056 168.271708,143.452944 L168.355153,144.62396 L168.526573,147.170237 L168.627276,148.621325 L168.639459,148.817648 L168.680298,149.573931 L168.691549,149.751367 C168.706965,149.978661 168.724268,150.170535 168.746232,150.347762 L168.763622,150.47826 L168.78302,150.605214 C168.839524,150.951733 168.951131,151.262396 169.135962,151.608708 L169.183706,151.69607 L169.500849,152.263485 L168.925911,152.56648 C165.928325,154.146225 160.0264,154.841225 151.930016,154.878253 L151.684,154.878253 L151.177777,154.878253 C147.243649,154.876012 143.07398,154.724325 138.723375,154.464912 L137.739319,154.404714 L136.918196,154.352295 C136.564454,154.329206 136.220129,154.306026 135.863149,154.281292 L135.315426,154.242842 L133.027777,154.075378 C122.737422,153.089257 111.94597,153.10575 100.05532,153.996162 C69.0547542,155.692638 42.2971196,154.976858 17.1474827,151.221644 L16.3858619,151.106918 L15.8246419,151.015628 L15.489904,150.959522 C12.8222431,150.503966 11.1471995,149.919989 9.84016839,148.694613 L9.77171371,148.629525 L9.71465741,148.573761 L9.68993089,148.573995 C8.37388782,148.568431 7.16911347,147.707065 6.72208432,146.437107 L6.69886489,146.368685 L6.66937939,146.273905 L6.64901497,146.179474 C6.62818959,146.088336 6.60218808,145.989951 6.57057226,145.881997 L6.54580086,145.799202 L6.33802817,145.118397 L7.03796977,144.99035 C7.09827264,144.979319 7.16098146,144.937286 7.22180619,144.849057 L7.2801098,144.76576 L7.38104485,144.625662 L7.62485493,144.291349 C7.88455067,143.92706 8.01231167,143.698358 8.07562678,143.468709 C8.13163765,143.265272 8.15262166,143.004666 8.14654495,142.641904 L8.14184794,142.464802 L8.1142666,141.822441 C8.11246409,141.770892 8.11123275,141.725842 8.11044387,141.682357 L8.10957629,141.617687 L8.10912078,140.713462 L8.11136397,139.719401 C8.11297474,139.285846 8.11541669,138.862656 8.11874093,138.447283 L8.12439538,137.829769 L8.13003289,137.331919 C8.16373807,134.578676 8.24451339,131.82769 8.37236337,129.081228 C8.62229917,123.718854 9.05100678,118.364405 9.6574976,113.029943 C10.9097497,102.017496 12.8278994,91.3368104 15.4372168,81.0153544 L15.6993078,79.9845887 C18.5206702,68.9539701 21.2408641,60.4500074 24.6983059,52.5860859 C29.0957109,42.5842259 34.4574337,34.3525323 41.2084127,27.771779 C44.9200609,24.1532682 49.0306302,21.0993399 53.3988795,18.756923 C55.4078651,17.6797018 57.5430213,16.7237184 59.8327063,15.8637648 L60.1608584,15.7415648 L60.6905259,15.5479394 L61.0968537,15.3979067 L62.4062066,14.9084488 C62.6814235,14.8053497 62.9809313,14.689848 63.3351036,14.5505283 L63.5544096,14.463987 L65.8991197,13.5283141 L66.2883922,13.3750855 L66.7213519,13.2066289 L67.0395577,13.0844423 C67.5598637,12.8859173 68.0310093,12.7126738 68.4683748,12.5599908 L68.7268635,12.4708105 L68.9614564,12.3918277 L69.9621801,12.0454387 L69.9426572,12.9560571 C69.9296773,13.5614858 70.08559,14.0190804 70.4318639,14.3477254 L70.4434853,14.3581693 L70.4554307,14.3677547 L70.4661363,14.3747789 L70.5267243,14.3731017 L70.7631863,14.3719599 C70.7876156,14.3585683 70.8105792,14.3427931 70.8319658,14.3246337 C71.1684683,14.0386771 71.3249395,13.6552604 71.4768599,12.776029 L71.5170884,12.5314372 L71.587219,12.0730979 L71.6151972,11.8996943 C71.7163391,11.2895954 71.8045069,10.9526088 71.9759989,10.5671092 C72.2236969,10.0099383 72.5512555,9.46734951 72.9367638,8.96866706 L73.0267459,8.85437924 L73.3867371,8.42130861 L73.4419683,8.35301471 C73.5681314,8.19130413 73.6328438,8.07713246 73.6599095,7.97242589 L73.6663755,7.94407562 L73.7023271,7.76218219 L73.8305773,7.62832499 Z" id="ðŸ‘•-Top" fill="#FFCF77"></path>
                    <path d="M130.652997,20.6328663 C130.48356,20.5383927 130.632715,20.2961853 130.802997,20.3762871 C138.98856,24.21779 145.268067,30.9575395 149.686518,38.7447411 C154.261747,46.8080391 156.869391,55.9629185 159.117526,64.910794 L159.198631,65.2341188 C161.595884,74.8061736 163.634194,84.4771403 165.469264,94.1717782 C167.327785,103.989211 168.819546,113.867512 170.019546,123.786604 C170.613208,128.690988 171.142433,133.604037 171.55525,138.527019 C171.761447,140.987136 171.948842,143.449156 172.117222,145.912232 C172.18449,146.897294 172.247836,147.882355 172.302178,148.868282 L172.341166,149.607903 C172.374757,150.278729 172.454405,150.951246 172.288771,151.612984 C172.145743,152.183418 171.843842,152.699958 171.578278,153.223684 C171.053067,154.258878 169.613278,154.088318 169.047293,153.223684 L168.882934,152.971819 C168.507609,152.391512 168.195752,151.852206 168.077997,151.130048 C167.964123,150.43069 167.959898,149.697939 167.908771,148.991606 C167.814757,147.692013 167.734687,146.391152 167.643419,145.091136 C167.4518,142.354573 167.236518,139.6197 166.998208,136.886941 C166.52687,131.492013 166.021307,126.101947 165.400391,120.721813 C164.297152,111.160326 162.912715,101.624201 161.280673,92.1387998 C159.686081,82.8727379 157.6702,73.7006838 155.567185,64.5401633 L155.349335,63.592561 C151.667152,47.5988389 145.992081,29.1800835 130.652997,20.6328663 Z M43.4655179,83.2606925 C43.5257291,83.1007004 43.7847432,83.0639254 43.8284756,83.2606925 C44.3798841,85.7442698 44.4343911,88.3022424 44.5186869,90.8449978 C44.601715,93.3533031 44.5983348,95.8730213 44.5617855,98.382806 C44.4269967,107.606767 44.1738981,116.822908 43.9550249,126.045389 C43.8455883,130.658532 43.7429122,135.272309 43.6641094,139.886086 C43.6343207,141.616569 43.6092855,143.346934 43.588469,145.077447 L43.5630066,147.359793 C43.5503449,148.368875 43.5238602,149.365618 43.40087,150.37371 C43.3197432,151.036716 43.1469263,151.669076 42.7810108,152.237397 C42.5213257,152.640803 42.1512257,152.845571 41.790483,153.119709 L41.7229827,153.171988 C41.2628418,153.535722 40.7781939,153.538258 40.3224897,153.171988 L40.1901636,153.067243 C39.7548555,152.726696 39.3786421,152.460621 39.1007291,151.922062 C38.7141094,151.173248 38.652208,150.359761 38.5865038,149.534649 C38.4867855,148.283456 38.5529122,147.013875 38.5657996,145.759088 C38.5915742,143.241906 38.6264334,140.725147 38.6705883,138.208176 C38.8326305,128.978297 39.1529122,119.746728 39.7366446,110.533334 C40.0116405,106.193542 40.3845125,101.839708 40.8846751,97.5174705 L40.9799545,96.7074323 C41.1316446,95.4357375 41.2700249,94.1414283 41.4259404,92.8428921 C39.0984052,91.2051387 37.0524897,89.2180233 35.3078418,86.963761 C35.1793911,86.797851 35.39087,86.5651544 35.5459404,86.7257806 C37.3286165,88.5723481 39.3726305,90.0444029 41.6355179,91.2019685 C42.0062925,88.4837923 42.5160812,85.7801994 43.4655179,83.2606925 Z M82.3498488,0.984982161 C82.3817503,0.960254177 82.4316094,0.949475312 82.4620319,0.984982161 C82.9623136,1.56846268 82.8608617,2.46057906 82.876985,3.19997643 L82.8788629,3.26883343 C82.9147784,4.34989018 82.921539,5.42756533 82.9179474,6.50925613 L82.9067503,9.95236377 L82.9067503,9.95236377 C82.9052479,10.4257884 82.8668546,10.9185842 82.8911333,11.3948292 L82.9037925,11.579127 L82.9037925,11.579127 C83.1666094,11.8483872 83.2887221,12.2374831 83.1995672,12.6282698 C83.1835108,13.1295927 82.921539,13.547855 82.5393559,13.8107747 L83.3584668,14.973307 L83.3584668,14.973307 L84.17837,16.1352053 C85.8682996,18.5329743 87.5768207,20.909397 89.3573841,23.2412248 C91.1730179,25.6187043 93.1099193,27.9065712 95.1368207,30.1063051 C96.1270319,31.1812327 97.1341446,32.2411544 98.164708,33.2774049 C98.5834932,33.6985732 99.0127362,34.1092796 99.4371959,34.5245929 L99.8594967,34.9419998 C100.109004,35.1916045 100.422947,35.4384616 100.588581,35.754853 C100.685976,35.9414753 100.708159,36.4013736 100.743018,36.4774597 C101.055694,37.1649822 100.522243,38.2612561 99.6357643,37.9182346 L99.67599,37.8914583 C99.8373895,37.7791621 99.7339674,37.7775336 99.3655531,37.8867434 C99.1331587,37.8859749 98.9152563,37.8324561 98.711687,37.7265046 L98.651046,37.6931465 C98.3643721,37.5474124 98.1084808,37.2653535 97.8755622,37.0398 L97.8178066,36.9847004 C97.285201,36.485491 96.7775249,35.9560585 96.2671024,35.4342346 C95.2016798,34.3455692 94.1603418,33.2336554 93.1521728,32.0919411 C91.1409052,29.8140076 89.234215,27.4437141 87.4285108,24.9998706 C85.589215,22.5107982 83.8796376,19.8938589 82.4094263,17.1695536 C81.8514686,16.135628 81.3399897,15.0818354 80.8496376,14.0157845 C79.8951305,13.7093266 79.6735108,12.6937884 79.7400601,11.5497493 C79.387877,10.7292874 79.0705531,9.89191758 78.8829474,9.03637159 C78.8573841,8.91907218 79.0080179,8.80853598 79.0982291,8.91104087 C79.4035108,9.25807805 79.6861869,9.62751836 79.957877,10.0064694 C80.1218207,9.20439508 80.3292855,8.4661485 80.4268911,7.9954714 L80.8500601,5.91832071 L80.8500601,5.91832071 C78.4654827,5.79404674 75.8525249,6.77407805 74.2086517,8.48981973 C74.1203418,8.93661426 73.7766094,9.25638725 73.441539,9.67401543 C73.0587221,10.1514557 72.724708,10.6872287 72.4756235,11.2475184 C71.9231587,12.4894127 72.2349897,14.3194949 71.1628066,15.230626 C71.051046,15.3255223 70.9261869,15.3914636 70.7973136,15.4322542 C71.3060822,17.9278181 71.0751969,20.6776752 71.0641059,23.2094698 L71.0637221,23.4322855 C71.0662573,26.2658589 70.9716094,29.1017571 70.8621728,31.9330056 L70.7508348,34.7350828 C70.6065643,38.4721415 70.5128629,42.2110127 70.8759052,45.9275653 C72.5332996,44.4591035 74.2471024,43.0576397 76.0198488,41.7225399 C77.1854827,40.8444499 78.3744863,39.9975875 79.5850792,39.1825466 L80.5687281,38.5250326 C81.7474319,37.7343115 82.9547723,36.9206888 84.2453418,36.3544538 C85.93337,35.6140937 87.5385812,35.8685595 89.1682996,36.6279411 C90.7912573,37.3843638 92.3658348,38.2629469 93.9577362,39.0827747 C95.5768911,39.9163403 97.1994263,40.7429313 98.8209052,41.5716358 C99.8949897,42.1207238 101.468933,42.6163403 102.25675,43.6270174 C102.307032,43.4034088 102.365553,43.1804342 102.434004,42.9583051 C102.355835,42.6195105 102.386046,42.2534518 102.575976,41.9045125 C105.223159,37.0385947 107.672384,32.0564342 110.104497,27.0804029 C111.335553,24.5621642 112.505976,22.014125 113.739356,19.4973657 L114.938354,17.046172 C115.138699,16.6378432 115.339638,16.2298197 115.54168,15.8224068 C115.844215,15.2124499 116.159215,14.6084107 116.465131,13.9999332 C116.594426,13.7428709 116.756473,13.4875166 116.882354,13.2280142 L116.941962,13.0978902 C116.944841,13.0910992 117.235344,12.1772198 117.010948,12.2643298 L116.991609,12.273624 C116.877102,12.3385086 116.785412,12.1943677 116.859567,12.1024303 C117.176891,11.7099528 117.618863,12.057624 117.799919,12.4209352 C118.298816,13.4207786 117.384706,14.9902808 117.033082,15.9476785 L117.013793,16.0012092 C115.922595,19.0909391 114.687102,22.1227591 113.421187,25.1440115 C110.993933,30.936489 108.386469,36.639988 105.784708,42.3534205 L105.753863,42.4516984 L105.753863,42.4516984 C106.308652,42.0262503 106.901046,41.6401133 107.4083,41.2643325 C108.687947,40.3160037 110.00499,39.4143833 111.319919,38.5157219 C113.731341,36.8675859 116.208123,35.3281178 118.725896,33.8494271 L119.22999,33.5544851 C120.487666,32.8215223 121.733511,32.2272053 123.226328,32.4472209 C124.613222,32.6517305 125.902592,33.3969817 127.155505,34.0023734 L127.28499,34.0644734 L131.156469,35.9057571 C130.742595,34.2546886 130.294497,32.6116514 129.826962,30.9747434 C128.915131,27.7818745 127.911821,24.6158471 126.823793,21.4781407 C125.807595,18.5465008 124.70906,15.6469343 123.547131,12.7703035 L123.197244,11.9069608 C122.723504,10.7225577 122.252429,9.4310343 120.89837,9.06638334 C119.545201,8.70180408 117.993018,9.24243813 116.756257,8.47079821 C116.643863,8.40062991 116.657807,8.2152757 116.794074,8.18103696 L117.557216,7.98862068 C118.99009,7.63204324 120.669872,7.27333911 122.024849,7.62011328 C123.499285,7.9980076 124.719145,9.23588627 125.434497,10.5227982 C126.229888,11.9543794 126.790565,13.5564854 127.394209,15.0830379 L127.489919,15.3234088 C128.182666,17.0509861 128.849004,18.7889195 129.486609,20.5378432 C130.761398,24.0335771 131.921891,27.5713696 132.972314,31.1410761 C133.478511,32.8614675 133.958722,34.5901015 134.420342,36.3229626 C134.553018,36.8213266 134.771891,37.4255771 134.951469,38.0558236 C135.157243,38.2566064 135.352032,38.4806377 135.534778,38.7361602 C135.837947,39.1601289 135.620342,39.6572248 135.24344,39.9110565 C135.228863,40.3447473 135.132525,40.7526534 134.902243,41.1022268 C134.0033,42.4673383 131.62675,42.1156514 131.7233,40.2804968 C131.737877,39.9996123 131.847314,39.7314088 132.012947,39.5048413 L132.0083,39.4680663 L132.0083,39.4680663 L131.989497,39.4008569 L131.989497,39.4008569 C131.576891,39.203033 131.162595,38.9825947 130.725905,38.766806 L126.662807,36.7583442 L126.662807,36.7583442 C125.486046,36.1764968 124.18168,35.277624 122.873088,35.0559176 C121.65313,34.849271 120.365984,35.7585416 119.317665,36.3071542 L119.249638,36.3424068 C116.715483,37.6417884 114.200131,38.9842855 111.694708,40.3377728 C110.47168,40.9986651 109.264497,41.687033 108.046116,42.3557454 C107.027384,42.9149782 105.927947,43.7176867 104.782877,44.0332327 C104.293793,44.4136632 103.712807,44.3627278 103.245905,44.07508 C103.459285,45.3970761 103.446187,46.7537336 103.51168,48.1053188 C103.599755,49.9122229 103.613213,51.7241368 103.64227,53.5334901 L103.654074,54.2118628 C103.730976,58.2118784 103.772173,62.2129508 103.787384,66.2138119 C103.841469,80.4605125 103.684074,94.7114401 103.647314,108.958141 C103.628722,116.116152 103.486962,123.280293 103.301046,130.435558 C103.222211,133.467524 103.057458,136.495858 102.879488,139.52325 L102.781539,141.174477 C102.574285,144.658587 102.451962,148.181162 101.807173,151.618352 C101.723088,152.066626 100.964638,152.078039 100.890271,151.618352 C100.296873,147.935309 100.263871,144.171462 100.149783,140.44523 L100.125694,139.70052 C99.9885812,135.699659 99.9235108,131.701334 99.9374545,127.69836 C99.9881587,113.445953 100.358511,99.2024225 100.661469,84.9540311 C100.813793,77.7951739 100.916257,70.6331465 101.152877,63.4766143 C101.271187,59.8957062 101.405131,56.3171231 101.564004,52.7376945 C101.63499,51.1395164 101.703226,49.5429565 101.809332,47.9471652 L101.857243,47.2632992 C101.890201,46.8171387 101.916821,46.3764734 101.949145,45.9398236 C100.507666,46.4665086 99.1893559,45.4913383 97.8925953,44.8241054 C96.3980883,44.0550017 94.904215,43.2846299 93.4090742,42.5170056 L91.912744,41.7507121 L91.912744,41.7507121 L88.9181587,40.2221642 C87.5698488,39.5337963 86.531046,38.8488099 85.0929474,39.6561681 C79.9120319,42.5639254 75.1511165,46.4329039 70.8366094,50.4927317 C70.0092855,51.2713462 68.261046,51.0621094 68.0514686,49.7572327 C67.1562597,44.182754 67.7007141,38.5275943 68.1577612,32.9362111 L68.3262456,30.8603432 C68.5304122,28.3809645 68.7527714,25.9015614 69.0490742,23.4322855 C69.1815812,22.3276843 69.3135474,21.2237595 69.4595756,20.1212684 L69.5719615,19.2946808 C69.7544967,17.9879019 69.8736517,16.688943 70.2628066,15.4356358 C70.1400601,15.3959019 70.0219615,15.330806 69.9163277,15.230626 C68.7463277,14.1201916 69.3104122,12.1933109 69.8442855,10.8723716 C70.3713981,9.56855163 71.1752714,8.43064165 72.1819615,7.45124439 C72.4014686,7.23735789 72.7109756,7.09976885 73.0219615,7.09258294 C75.4627362,5.4749078 78.1403418,4.66754968 80.9271728,5.5505712 C81.0054474,5.17616416 81.085267,4.80235153 81.1693053,4.42948999 L81.2548488,4.05695868 C81.4716094,3.13187844 81.5521024,1.60381582 82.3498488,0.984982161 Z M107.365138,147.074257 C108.122532,146.865866 108.951757,147.085459 109.506757,147.640676 C110.061546,148.195893 110.281264,149.025232 110.072532,149.782923 C109.968166,150.155956 109.779504,150.479745 109.506757,150.754711 C109.251727,151.008075 108.954253,151.188909 108.614503,151.297213 L108.535349,151.320919 L108.411546,151.372488 C108.031898,151.47457 107.652039,151.47457 107.272602,151.372488 C106.909645,151.270617 106.594645,151.086954 106.32718,150.821498 C106.061616,150.553929 105.878025,150.238805 105.776194,149.875494 C105.674152,149.495698 105.674152,149.115901 105.776194,148.736105 L105.827954,148.612253 L105.827954,148.612253 C105.932321,148.23922 106.120983,147.91522 106.393729,147.640676 C106.668377,147.367823 106.99225,147.178876 107.365138,147.074257 Z M152.337525,71.5717743 C152.461962,71.4289015 152.663722,71.6119309 152.586398,71.7638918 C151.40668,74.0775434 150.09175,76.3747098 148.799426,78.629606 C148.902947,79.2545689 149.005623,79.8744593 149.123722,80.4787098 C149.627173,83.0542244 150.243863,85.583242 150.645905,88.1832734 C152.090976,97.528972 152.841187,106.976119 153.484919,116.405723 C154.130553,125.869144 154.213159,135.336792 154.310131,144.818812 C154.318581,145.640541 153.68668,146.595633 152.839919,146.750553 C152.452243,146.821356 152.162173,146.807618 151.775342,146.750553 C150.894145,146.620784 150.342947,145.610952 150.305131,144.818812 C150.052454,139.519414 149.712525,134.22678 149.318722,128.935626 C148.620694,119.555054 148.194145,110.149966 147.630271,100.759673 L147.431684,97.477744 C147.218566,93.921575 147.023623,90.3629414 146.960131,86.8014651 C146.917877,84.4419505 147.044004,82.0830698 146.966469,79.7263027 C146.894849,77.5504514 146.674285,75.1845963 147.153863,73.046788 C147.171609,72.9666863 147.298159,72.9463966 147.334708,73.0231168 C147.8333,74.0731051 148.149145,75.2143966 148.392525,76.3793595 C149.677454,74.753653 150.986046,73.1243536 152.337525,71.5717743 Z M68.1692291,14.0955178 C68.3496517,14.0825712 68.3424686,14.3537336 68.1692291,14.3738119 C65.6475449,14.6664146 63.2115291,15.6929786 60.8305067,16.5655185 L60.6265531,16.6399098 C58.2210601,17.5129978 55.8757784,18.5283246 53.6188066,19.7385164 C49.2060601,22.1047943 45.1539474,25.1558471 41.5712714,28.6486221 C27.2673981,42.5918236 20.7487362,62.6984225 15.9721869,81.5935614 C13.3182432,92.0915418 11.4309897,102.767057 10.2077503,113.524364 C9.6028911,118.844473 9.17528547,124.184873 8.92598969,129.533514 C8.79838406,132.274728 8.7178911,135.018477 8.68429955,137.762438 C8.66697561,139.167918 8.66190519,140.57382 8.66359533,141.979299 C8.6644404,142.623495 8.77936997,143.434446 8.60718688,144.059831 C8.44746857,144.639143 7.99704603,145.149342 7.66387702,145.632066 C7.26901786,146.204826 6.55936997,146.174603 6.15901786,145.632066 L6.0113844,145.434609 C5.58440665,144.868034 5.16662835,144.326286 5.10563758,143.585773 C5.04035589,142.791941 5.08641223,141.973593 5.08345448,141.176168 C5.07669392,139.569694 5.09655307,137.96301 5.12866575,136.356959 C5.19056716,133.27843 5.31183476,130.20117 5.49204603,127.127291 C5.85796152,120.889287 6.46028547,114.663965 7.32267983,108.474994 C8.85563758,97.4742111 11.1533841,86.5784694 14.1631024,75.8875262 C17.002539,65.8021015 20.3663418,55.7464773 25.1583136,46.4043716 C29.6076094,37.7305555 35.4445108,29.6614127 43.1464827,23.5994636 C46.7281024,20.7804734 50.627046,18.4311035 54.8306376,16.6618902 C56.950708,15.7695692 59.177046,15.0410448 61.441201,14.6257415 C63.680215,14.2150878 65.9095108,14.2723638 68.1692291,14.0955178 Z M107.799208,129.247642 C108.199138,129.244683 108.645123,129.332605 108.988222,129.553889 L109.446673,129.908323 L109.446673,129.908323 C109.570898,130.067893 109.69449,130.228096 109.817659,130.388722 C110.104349,130.76239 110.142377,131.367063 110.082588,131.812378 C110.069067,132.109748 109.980757,132.386194 109.817659,132.642562 L109.468645,133.09464 L109.468645,133.09464 C109.133152,133.368339 108.853433,133.563626 108.447166,133.695298 C108.234778,133.763965 108.030263,133.778365 107.826381,133.767924 L107.758433,133.763564 L107.799208,133.769059 L107.7278,133.761028 L107.7278,133.761028 C107.661462,133.755321 107.594912,133.748135 107.528152,133.739047 C107.482729,133.733341 107.437095,133.729959 107.391673,133.723619 C107.34794,133.720026 107.305687,133.718335 107.261532,133.72235 C106.745194,133.770983 106.226109,133.47803 105.85956,133.14156 C105.529349,132.838272 105.23294,132.195133 105.278997,131.739251 L105.298642,131.548725 C105.333454,131.227311 105.361962,131.100857 105.498081,130.77803 C105.630335,130.463963 105.815194,130.186883 106.066814,129.952707 C106.548504,129.504433 107.138152,129.252292 107.799208,129.247642 Z M106.200905,105.727905 C106.886257,104.980782 108.063229,104.925831 108.913159,105.377698 C109.120201,105.488022 109.310342,105.664923 109.492877,105.812445 C109.952807,106.184422 110.13344,106.855459 110.158793,107.420821 C110.183933,107.979842 109.889215,108.643694 109.492877,109.029619 L109.39675,109.122825 L109.39675,109.122825 C109.159919,109.353197 108.820623,109.553557 108.489356,109.614426 C107.95506,109.712703 107.506328,109.709745 107.008793,109.499662 C106.581276,109.319258 106.212919,109.029214 105.962282,108.63564 L105.921609,108.569087 C105.904426,108.541471 105.888182,108.513385 105.87294,108.484703 L105.850835,108.44122 C105.374638,107.525228 105.502666,106.488343 106.200905,105.727905 Z M106.555877,82.0842534 C106.864962,81.9872436 107.173835,81.9735058 107.482919,82.0428287 C107.692708,82.0432514 107.888342,82.0963004 108.069609,82.2013415 C108.266511,82.2565039 108.437638,82.3562612 108.582567,82.5006135 C108.757074,82.6037524 108.8963,82.7428209 108.999609,82.9176076 C109.205173,83.142273 109.343764,83.4058268 109.415807,83.7084804 L109.498623,84.32668 L109.415807,84.945091 L109.1813,85.5007309 L109.1813,85.5007309 C109.116863,85.5848483 109.052004,85.6689657 108.986511,85.7526604 C108.88299,85.9278698 108.743553,86.0675724 108.568412,86.171134 C108.454539,86.2844178 108.323976,86.3691692 108.17799,86.4279246 C107.660384,86.7990557 106.970807,86.9201595 106.357497,86.7510792 C105.993271,86.6492084 105.677004,86.4646996 105.408905,86.1981869 C105.142497,85.929772 104.95806,85.6133806 104.856229,85.249224 L104.814221,84.9583752 C104.760106,84.5682482 104.751479,84.3521573 104.861933,83.8562143 C104.910314,83.6381008 105.050807,83.3305861 105.124328,83.2010283 C105.438694,82.648136 105.952285,82.2691849 106.555877,82.0842534 Z M133.39375,65.0743379 C134.281243,65.068082 135.168736,65.0698066 136.056121,65.07962 L136.721638,65.0884984 C137.836074,65.1060405 138.790581,64.9910659 139.666708,65.764608 C140.302623,66.3259544 140.022483,67.2677313 139.418891,67.6906432 C138.504314,68.3310346 137.357131,68.0089368 136.305863,67.9383458 C135.197131,67.8639505 134.087553,67.8022362 132.977553,67.7523575 C130.828328,67.6561931 128.678257,67.5949015 126.526919,67.5853908 C124.380229,67.5763027 122.23037,67.5965923 120.083891,67.6312538 C117.899807,67.6667606 115.625722,67.870291 113.453891,67.6441462 C113.155581,67.6130777 113.088398,67.2206002 113.382905,67.118518 C115.429454,66.4102831 117.731638,66.1807567 119.876426,65.910017 C122.088609,65.6304006 124.300793,65.4325767 126.526919,65.3042871 C128.813469,65.1730385 131.103398,65.0904006 133.39375,65.0743379 Z M106.55181,58.1179619 L106.625046,58.1193916 C107.015666,58.1203779 107.381256,58.2123143 107.722161,58.3952009 L107.794835,58.4357829 L108.263849,58.7980373 C108.550962,59.0875872 108.749764,59.4284953 108.859623,59.8211841 L108.94244,60.4374816 L108.94244,60.4374816 C108.954694,60.7566205 108.887933,61.0542017 108.743004,61.3306479 C108.649412,61.6180843 108.489694,61.8666323 108.263849,62.0767145 C108.053849,62.3026479 107.805187,62.4624287 107.518074,62.5560569 C107.262993,62.6898904 106.98991,62.7570923 106.698327,62.7571639 L106.625046,62.7557829 C106.206947,62.7543035 105.816947,62.6488397 105.45568,62.4391802 L104.986454,62.0767145 L104.986454,62.0767145 C104.699342,61.7873759 104.500539,61.4464679 104.39068,61.053779 L104.307652,60.4374816 L104.307652,60.4374816 C104.295821,60.1183426 104.362159,59.8203387 104.507511,59.5443152 C104.600891,59.2568788 104.760609,59.0081195 104.986454,58.7980373 C105.196454,58.5721039 105.444905,58.4123231 105.73244,58.3189062 C105.987327,58.1848776 106.260394,58.1178408 106.55181,58.1179619 L106.55181,58.1179619 Z M113.421969,3.6592397 C113.921194,2.93578764 114.826053,3.57913793 114.696546,4.16077394 C114.730771,5.79430036 114.814222,7.37963891 115.185842,8.97977198 C115.355912,9.7123121 115.5788,10.4456976 115.922532,11.1167348 L116.0669,11.3993029 C116.51185,12.2786612 116.857237,13.1079879 116.258025,14.07268 C115.97556,14.5275058 115.465138,14.8690479 114.911828,14.8451653 C112.457954,14.7392788 112.120771,11.3223786 111.971616,9.41494224 C111.817814,7.45044126 112.296123,5.29149801 113.421969,3.6592397 Z" id="ðŸ–-Ink" fill="#000000"></path>
                </g>
                <g id="head/No-Hair-3" transform="translate(78.591549, 38.043053)">
                    <path d="M84.0865911,40.5969618 C76.6696661,21.0350127 63.299906,6.71244305 40.7605157,15.7083569 C40.1139249,15.2670575 39.2702157,15.1487014 38.4617138,15.6654528 C26.1836575,23.3943217 17.3419981,35.7855781 13.5103102,49.7581573 C11.1784093,50.202627 8.91249554,50.9778599 6.88860537,52.2491319 C2.49001738,55.0121143 -0.469289535,59.4086231 -3.24328401,63.69058 C-4.07750624,64.9779147 -3.30505482,67.109171 -1.73738322,67.4014685 C-1.05642851,67.5287014 -0.381587627,67.6043648 0.28945846,67.6242317 C0.126071492,68.2187601 -0.088966839,68.7932102 -0.362824479,69.3201065 C-1.35431984,71.2273315 0.51883268,73.2522787 2.27434659,72.7308775 C2.46914602,72.8342278 2.67322161,72.9191906 2.88467597,72.9830184 C2.90870966,74.0634411 3.46253878,75.5097112 4.5586018,75.728036 C6.33119228,76.1093119 8.68691612,74.7492728 8.26864548,72.7617346 C8.80413309,72.8562082 9.3377233,72.8680438 9.85782091,72.8025252 C9.91600776,73.8375076 9.89787707,74.9175076 10.0403927,75.8721769 C10.5063091,80.371402 14.9904907,83.3937112 19.266802,82.0250067 C19.5290644,83.4268932 19.8370752,85.3966779 21.2143747,86.1571162 C22.8246323,90.685719 25.6051622,95.8538677 30.1593368,97.9172806 C29.7539263,98.9586035 29.9738135,100.225437 31.1948939,100.922259 C39.5310024,105.686729 49.5366095,107.298909 58.9611914,105.527582 C62.7277353,105.302705 66.397512,104.449484 69.9199242,102.63166 C72.4885782,101.306071 74.8499942,99.6226661 77.1551208,97.8872689 C79.4615123,96.1512376 81.927496,94.4608579 83.7683928,92.206807 C85.7678276,89.7587366 86.6986063,86.8784548 87.302611,83.8128188 C90.0704916,69.8977268 89.1144825,56.2345948 84.0865911,42.9791271 C77.8628468,26.570928 90.3080938,57.0060153 84.0865911,40.5969618 Z" id="âœ‹-Skin" fill="#D08B5B"></path>
                    <path d="M6.8667708,51.449005 C13.7899483,47.3550452 22.6191207,48.4146818 26.778498,54.7563411 C27.4965044,55.851124 27.9923007,57.0554675 28.3424862,58.4496053 L28.3990043,58.6813938 L28.4554175,58.9252087 C28.6368489,59.7312457 28.7556584,60.4897751 28.9168526,61.7794211 L29.0954613,63.2427887 L29.1464573,63.6414931 C29.319722,64.9660139 29.4717319,65.8025896 29.7085645,66.6554064 L29.7554908,66.820806 L30.029049,67.7653042 L28.9964024,68.1478203 C27.0176562,68.8642878 26.6034086,68.9282476 25.4615735,68.3299452 C24.5699558,67.8627526 24.1045417,67.2337711 23.4851293,65.9590612 L23.3955316,65.7725148 L23.1979257,65.3566801 L23.0907416,65.1375855 C22.6871556,64.3297727 22.3639796,63.4683973 21.9074503,63.1556264 C21.2873306,62.7307788 19.3327035,62.5616192 17.9733578,62.7290868 L17.9025039,62.7380732 L17.8439084,62.7503289 L17.7432508,62.773011 C15.4573393,63.3146785 13.3738446,65.1646409 11.9996156,67.1194841 C10.8931072,68.693614 10.2572573,70.67645 10.1792842,72.7368703 L10.1749134,72.874343 L10.1478362,73.9259823 L7.93197174,73.8786809 L7.95367757,73.4693777 L7.92047603,73.5421115 C7.22239526,75.0175915 5.46839593,76.0001036 4.00090506,75.0233973 L3.94861875,74.9876794 L3.89535412,74.9493697 C2.65648277,74.035299 2.50729777,72.184638 3.52412209,71.0607966 L3.57114468,71.0102192 L3.6168604,70.9636086 L3.6075115,70.9592543 L3.59697523,70.9556942 L3.59044397,70.954991 C3.24405151,71.0188249 2.93979349,71.1969336 2.52817367,71.5760159 L2.4222739,71.6754431 L2.20968089,71.9060591 L1.98968992,72.1414439 L1.89516371,72.2387065 C1.83475512,72.2997943 1.7793066,72.3535524 1.72727204,72.4010487 C1.65696439,72.4652244 1.59188789,72.5192184 1.52103877,72.5683825 C1.45555843,72.613821 1.38791857,72.6536126 1.30611809,72.6891943 C1.10422611,72.7770134 0.888424702,72.8186136 0.612254165,72.7505323 C0.233465149,72.6574304 0.0199634248,72.427903 -0.109282051,72.1574899 C-0.159476721,72.0524703 -0.188174214,71.9557956 -0.208513646,71.8537465 C-0.229752692,71.7471839 -0.240276886,71.6383695 -0.245738221,71.5128428 C-0.249307401,71.4308065 -0.250573855,71.3412246 -0.249865634,71.2432563 L-0.247359283,71.0899088 L-0.242145002,70.923351 L-0.236549965,70.7904687 L-0.211457138,70.2975029 C-0.121737303,68.6792551 0.302541623,67.0898522 1.02892695,65.5895674 L1.1025713,65.4398382 L1.13000535,65.3854403 L1.05407332,65.4875081 C0.558692793,66.1419856 0.0803086868,66.5957082 -0.51669818,66.8952995 L-0.598856209,66.9352019 L-0.679182328,66.9717349 C-1.507536,67.3364696 -2.34182977,67.1949421 -2.84585252,66.518664 C-3.19453969,66.0508091 -3.29741457,65.4349433 -3.22598472,64.7870705 C-3.08727833,63.5301407 -2.59142723,62.3793071 -1.62055928,60.7000205 L-1.48451403,60.4664141 L-0.951568336,59.5603783 C1.10207591,56.0955384 3.7418736,53.2965866 6.8667708,51.449005 Z" id="ðŸ’ˆ-Hair" fill="#E8E1E1"></path>
                    <path d="M48.2295137,11.8964008 C52.0253619,11.6277746 55.8903597,12.2692227 59.5051119,13.4166434 C65.2702474,15.2460916 70.5648284,18.4746787 74.9147165,22.677802 C79.3978441,27.0094262 82.71344,32.3500368 84.7295298,38.2486121 C87.1607278,45.3622403 87.5246064,52.9577472 88.2089343,60.3835397 C88.554619,64.1353667 89.1242476,67.8299706 89.7164609,71.5454515 L89.8101266,72.1322912 C90.3886219,75.752299 90.7141309,79.4135202 89.9149051,83.0278215 C88.5863055,89.0348196 84.6034583,94.1338568 79.8757773,97.9015984 C70.1638452,105.641669 55.0449639,110.360487 43.73711,103.238193 C41.9877099,102.136213 43.6454025,99.3182795 45.3532706,100.466546 C46.5551663,101.27496 47.8285305,101.983618 49.1940239,102.472894 C54.899286,104.516863 61.1651235,103.788761 66.8037658,101.887454 C72.3603985,100.013833 77.692295,96.8480172 81.7923592,92.6235476 C86.0990288,88.1862481 88.4857434,82.705301 88.1408388,76.4687765 C87.9352875,72.7580994 87.0919999,69.1161112 86.6239753,65.4356571 C86.209387,62.1759311 85.9608177,58.8985306 85.6742942,55.6256223 L85.5692749,54.4483827 C84.9617964,47.7801372 84.0893078,40.9289811 81.0629154,34.8760955 C78.517241,29.7838215 74.7896991,25.253528 70.3076257,21.7548352 C65.615152,18.0919233 60.010452,15.5301464 54.1297861,14.5746317 C47.2144063,13.4510935 40.5945989,15.4942168 34.8258794,19.2976767 C29.7096537,22.6708274 25.3110657,27.1785065 21.938337,32.2931836 C20.3027808,34.7731679 18.9094589,37.4215984 17.7062984,40.1376611 C16.5724982,42.6966904 15.7907706,45.3787256 14.8789659,48.0163773 C15.6292811,47.9939742 16.3920347,48.0229292 17.1665943,48.1087374 C21.1393221,48.5500368 24.8407221,50.6140838 27.1970784,53.8686669 C30.0766946,57.8456454 29.2983402,62.7274145 30.423075,67.2503108 C30.5101444,67.6013636 30.3621474,67.9450192 30.0621479,68.1392501 C28.3568096,69.2441894 26.0744518,69.2809644 24.4239272,68.0367452 C22.9913924,66.9569566 22.3188706,65.0047139 22.8988416,63.2989057 C22.9745267,63.0765652 23.2975058,63.1158763 23.3065711,63.3542795 C23.4155661,66.2571757 26.1020694,68.4926278 28.7354457,67.1112423 C27.605862,63.2111953 28.2003797,58.8554771 25.8899826,55.3326904 C21.8006704,49.0978568 13.3382796,48.8402207 7.39457791,52.3549761 C4.26650455,54.2044356 1.79055713,56.9853862 -0.053109452,60.0959588 L-0.584261294,60.9989565 C-1.29096971,62.2054812 -2.03939086,63.5703851 -2.18601221,64.8990387 C-2.27055179,65.6658176 -1.98826128,66.3863108 -1.11082056,65.9999624 C-0.400983241,65.6875867 0.148629435,64.9586395 0.570273222,64.3319859 C1.28937083,63.2631807 2.94182603,64.1865577 2.34785351,65.3247084 L2.32768452,65.3618959 C1.46323043,66.8972169 0.931017878,68.5891027 0.833282893,70.3519171 L0.808445962,70.8400693 C0.792149265,71.1958468 0.780436297,71.7014932 0.855515243,71.7199468 C0.945536192,71.7421386 1.57104475,71.0182638 1.67519076,70.9180838 C2.17694687,70.434937 2.69367133,70.0401346 3.39212426,69.9114223 C4.31028453,69.7427197 5.2366543,70.8815701 4.43964788,71.6281835 L4.40638839,71.6582325 C3.69507533,72.2781229 3.72669861,73.5143108 4.51243181,74.0940446 C5.62136782,74.9122254 6.98662005,73.5767793 7.14756838,72.4772467 L7.15297602,72.4366356 C7.2952808,71.2486356 8.94116732,71.2065769 9.0305558,72.4366356 C9.22472277,75.1059898 6.05459396,77.343344 3.64258067,75.99662 C2.68882243,75.4644399 2.08249866,74.4899037 1.89254814,73.4454106 C1.58812132,73.6066708 1.25966081,73.7184751 0.912437155,73.7493323 C-0.217989838,73.8497237 -1.0216429,73.0529331 -1.20442548,71.9835006 C-1.41735559,70.7375906 -1.29107328,69.4035476 -0.963666875,68.1096611 C-1.57758023,68.258029 -2.22332769,68.2013871 -2.8724483,67.8258176 C-4.83625423,66.6898098 -4.27230567,64.1629057 -3.53084507,62.4568861 C-0.365354341,55.1750231 6.19289312,48.5675789 14.3179689,48.0430074 C14.3624523,46.758209 14.5361695,45.5435789 14.8203575,44.2570896 C17.5994117,31.6735045 26.6023498,20.0213401 38.322993,14.5752658 C41.454963,13.1199076 44.7764619,12.1409331 48.2295137,11.8964008 Z M17.4930309,62.1630669 L17.6044187,62.1379014 C18.87068,61.8643956 22.2030197,61.543092 21.8013871,63.6792939 C21.7824132,63.7796853 21.6367352,63.767427 21.6108042,63.6792939 C21.2174105,62.3361628 18.5450322,63.410245 17.7647804,63.733611 C16.6891671,64.1791374 15.6281005,64.8364368 14.7498165,65.6004681 C12.82691,67.273517 11.5379449,69.6313409 11.3418805,72.1920611 C11.1475028,74.7322802 11.8826387,77.4760297 13.7104645,79.3135092 C14.6064576,80.2140728 15.7501663,80.8255092 17.034915,80.8705268 C18.1891648,80.9106834 19.4644265,80.0099084 20.5294987,80.5374387 C20.7394773,80.6414231 20.9058157,80.9269573 20.8868418,81.1619789 C20.8510021,81.6068712 20.6524078,81.9532744 20.3568355,82.2219006 C22.1399671,85.4794427 23.5992763,88.9274114 25.8738337,91.8896971 C27.0152234,93.3759123 28.3086157,94.7522254 29.7731954,95.9235288 C30.4693293,96.4804368 31.2261799,96.9695014 32.0066425,97.3991765 C32.9211879,97.903247 33.7126133,98.2185816 34.3653179,99.0724368 C34.9218877,99.8005386 34.3651071,101.208343 33.4476102,101.333885 C31.2868966,101.62893 29.1871105,99.8776814 27.6008866,98.5658301 C26.0161384,97.2550356 24.6464286,95.6382059 23.5145259,93.9226755 C21.3409521,90.6283585 19.8540253,86.7420493 19.2595076,82.8102998 C18.5692767,83.0296814 17.7921872,83.0966795 17.2075781,83.0979476 C15.6521342,83.1015405 14.1668939,82.5406168 12.9445486,81.5927108 C8.46964307,78.122973 7.97231423,70.9989886 11.1302154,66.5065268 C12.6413867,64.356883 14.9376588,62.7685855 17.4930309,62.1630669 Z M17.5210702,70.4255953 C18.5587356,70.334292 19.5955577,70.4985112 20.5708198,70.8531569 L20.9728596,70.9992687 C21.8221462,71.310571 22.726161,71.6766141 23.3395437,72.3148556 C24.276647,73.2904485 23.3435493,74.9808282 22.0086251,74.6069495 C20.532661,74.1935483 19.3330844,72.947427 17.857542,72.4247577 C16.5386402,71.9576736 15.0447563,72.0238262 13.8742731,72.8282254 C13.7197407,72.9345346 13.5165084,72.7248751 13.6174921,72.5705894 C14.5128526,71.2037871 15.9264134,70.5657205 17.5210702,70.4255953 Z" id="ðŸ–-Ink" fill="#000000"></path>
                </g>
                <g id="face/Smile" transform="translate(112.183099, 77.354207)" fill="#000000">
                    <path d="M30.968993,50.9198978 C29.548794,50.3403012 28.2816173,49.3734958 27.3551889,48.1384646 C27.0331038,47.7091169 26.9495926,47.2557326 27.017159,46.8410547 C27.0931327,46.3747786 27.3688808,45.9521824 27.7449394,45.6687178 C28.1221628,45.3843752 28.5940214,45.2441445 29.0502103,45.3156301 C29.4466117,45.3777469 29.8412104,45.5948709 30.1535058,46.0451781 L30.2187521,46.1352289 C30.7695298,46.8806513 31.4872438,47.4922614 32.3050288,47.8864795 C33.0932406,48.2664417 33.9747757,48.4437847 34.8870208,48.3406561 C36.6244504,48.1443157 37.8219743,47.2043274 39.0948115,45.9278391 C39.2525834,45.7666792 39.4104563,45.6004672 39.5690946,45.4315797 C39.6692778,45.278484 39.8083069,45.1800892 39.962667,45.1284632 C40.1340565,45.0711416 40.327938,45.0743848 40.5055187,45.1363808 C40.6767961,45.1961763 40.8299095,45.309486 40.9325762,45.4602937 C41.0301525,45.6036243 41.0854754,45.7806897 41.0675245,45.9843589 C40.9510195,47.3072301 40.2596776,48.4878363 39.2776553,49.4148615 C38.1869942,50.4444414 36.7412431,51.1567117 35.3801317,51.4065272 C33.8805866,51.6817086 32.3525901,51.4845569 30.968993,50.9198978 L30.968993,50.9198978 Z M36.0875289,30.5120405 C37.6828906,31.482148 40.1137318,33.7442494 38.3974899,36.149264 C36.3773089,38.2698449 33.4687045,35.8384541 32.0353946,34.7388307 C30.7063626,33.8866164 29.2131206,36.0784478 30.4461973,37.0735516 C40.8033244,44.7445605 45.006466,30.7657101 36.8944406,29.3714319 C36.0012775,29.2177885 35.6695544,30.2119271 36.0875289,30.5120405 Z M17.5274577,21.5886716 C17.7037243,19.3998697 21.0359789,18.9028321 21.3674577,21.0687499 C21.6642887,23.0089456 21.3148521,24.7912626 20.4412606,26.5380728 C19.6065423,28.2068947 17.5085456,27.4283107 17.3498837,25.9087021 C17.1372039,23.8717299 17.4178099,22.9502317 17.5274577,21.5886716 Z M42.8930282,20.6196517 C43.3576056,20.0109628 44.0283803,19.5954481 44.8320423,19.8302583 C47.3429577,20.5642779 46.6028873,24.1303914 45.7210563,25.8662114 C45.2419014,26.8088337 43.6930986,27.0478708 42.993169,26.2178982 C41.8523239,24.864411 41.3059859,22.1614521 42.756338,20.8282544 C42.7956338,20.7593542 42.8393662,20.68982 42.8930282,20.6196517 Z M20.4058944,12.0111429 L20.802522,11.9416942 C22.0295218,11.7294045 23.5551549,11.5254176 24.4231479,12.5122544 C24.8835,13.0355577 25.0419507,14.0081918 24.4231479,14.509092 C23.3346972,15.3904227 22.1313169,15.0488806 20.8269507,15.1234873 C19.7520211,15.1852016 18.7189225,15.3631585 17.6835,15.6592603 C15.4119507,16.3087397 13.5610352,17.4944149 11.6209648,18.7963327 C11.3663873,18.9671037 11.1065282,18.6414129 11.228007,18.4032211 C12.3479366,16.208771 14.5182887,14.4061644 16.6922324,13.3073542 C17.8525141,12.7208571 19.1222324,12.2343288 20.4058944,12.0111429 Z M40.6041287,11.0281289 L40.9077055,11.0902829 C44.2113469,11.7811043 48.5035506,13.1610768 50.0679842,16.4073021 C50.1275964,16.8663298 50.0646105,16.9647086 50.0133917,17.0289838 L49.9963385,17.0503723 C49.9541341,17.1052595 49.9204583,17.1809212 49.7215736,17.2433957 C49.6663832,17.2302408 49.6106433,17.216308 49.5543131,17.2015401 C48.8372041,17.0135386 48.2698321,16.7545401 47.720556,16.4857982 L47.1250012,16.192275 C46.4340388,15.8533498 45.7369757,15.5267598 44.9982488,15.2856588 C43.4217423,14.7712438 41.8001698,14.4088706 40.1534741,14.2153715 C39.7965654,14.1734678 39.4528848,14.0529641 39.1817455,13.8464404 C38.92438,13.6504079 38.7277692,13.3789964 38.6381257,13.0182314 C38.5219478,12.5513438 38.5553348,12.1978716 38.8057421,11.7766707 C38.9940329,11.4603578 39.263447,11.2411116 39.5728025,11.115213 C39.888177,10.9868648 40.2472278,10.9566068 40.6041287,11.0281289 Z" id="ðŸ–-Ink"></path>
                </g>
                <g id="facial-hair/Moustache-9" transform="translate(104.577451, 109.479380)">
                    <path d="M51.8377347,6.93708405 C48.87443,6.43714457 45.7957692,7.17601909 42.9386178,7.96331117 C38.3999206,4.98214052 32.5188972,7.99123572 29.2683793,11.7157849 C28.1559094,12.6323406 25.8196799,13.8497608 27.0505022,15.598423 C26.5839411,16.8345346 26.4591682,17.4162209 27.4248211,15.9711256 C32.8900059,16.6005539 38.7536937,15.4115086 44.1623775,14.2900228 C46.0040095,14.9095424 47.6303385,16.3580157 49.6547426,15.8619046 C51.568927,16.2690625 53.6410573,16.6491967 55.3690453,15.4207418 C56.684833,15.3673698 59.6121826,17.7310477 59.5650984,14.9822813 C59.1580346,12.3474651 53.9359201,7.96331117 51.8377347,6.93708405 Z" id="ðŸŽ¨-Background" fill="#E8E1E1"></path>
                    <path d="M54.0598732,15.3958755 C50.8426901,15.7520008 47.5800845,15.2286975 44.8862113,13.3599382 C44.6050141,13.1648618 44.327831,13.1669753 44.1017746,13.2813159 C43.8269155,13.2508814 43.5457183,13.3605722 43.3826197,13.6746387 C42.7061408,14.978036 40.4639577,14.6876407 39.2314225,14.7142708 C35.1998028,14.7920477 31.0274789,14.5694959 27.1475493,15.7887757 C30.8582535,8.53227476 35.9901549,5.3996407 43.9310704,8.24843131 C43.2140282,8.82605166 46.7920563,7.47383249 47.106,7.44804775 C52.6002254,6.07088924 57.1329718,10.6808618 59.3472676,15.2489871 C57.6721268,14.8501691 55.7950141,15.2037581 54.0598732,15.3958755 M61.7339577,16.6307953 C59.3113521,11.1718286 54.5345915,5.16948023 47.8718451,6.11294795 C46.5038873,6.31436477 45.0649437,7.24916712 43.6876901,7.08050959 C39.7000141,5.60718669 36.4084648,4.85858395 32.4148732,7.24092446 C30.720507,7.36752329 21.1855775,19.1771436 25.7166338,18.2129636 C31.2784648,15.0177699 40.9490282,18.027398 44.402831,15.1695194 C51.1834648,19.6224587 56.6967042,14.7852845 60.5181127,17.5687679 C61.1825493,18.1785135 62.1144507,17.4191319 61.7339577,16.6307953" id="ðŸ–-Ink" fill="#000000"></path>
                </g>
                <g id="mask/respirator" transform="translate(83.450704, 97.432485)">
                    <path d="M72.7465858,5.73080548 C70.8799759,3.79272329 69.0062223,1.82653151 66.617874,0.487204697 C66.7230089,-0.0868227006 66.4910995,-0.746446967 65.809205,-1.02120235 C59.1982814,-3.49400078 54.9956515,3.623009 50.2078476,6.80277417 C49.0890218,7.4042771 47.9669885,8.09814012 46.7177048,8.33316164 C44.0613665,9.10902857 41.807368,10.7155022 40.2057185,12.8262575 C39.3402241,13.6579209 37.8144673,15.045647 37.3906794,16.176371 C37.1312649,16.6379601 13.8808416,5.57208141 8.58938101,4.3407546 C6.08357809,3.50232798 4.73441193,5.87210234 7.91043851,7.08830841 C16.2562957,10.2842144 32.5970617,17.4380106 36.24531,19.4994317 C35.5442643,21.6634474 35.3348884,24.5316822 36.0176154,26.6718153 C35.4438043,30.0029072 36.5577525,33.0545941 38.7595869,35.4462341 C39.2261065,36.1253025 39.9393323,36.6147898 40.4035248,37.2040344 C42.0896775,41.6132243 46.1359081,43.7458522 50.8708617,45.8533339 C58.4051498,49.206772 64.9729687,49.8786693 69.1018187,48.409827 C79.8201262,44.3163945 86.0409768,32.288238 84.0367328,21.3288798 C82.1516704,13.608465 82.5407497,6.83616751 72.7465858,5.73080548 Z" id="ðŸŽ¨-Color" fill="#9DDADB"></path>
                    <path d="M49.4950249,5.68050411 C55.9422703,2.08036321 57.0310605,-5.25729628 66.3815388,-1.52717495 C69.3029877,-0.346572211 70.3291345,1.40108337 72.2781284,3.58412055 C73.2874884,4.50180352 74.5581607,4.95810881 75.8120342,5.44675068 C80.5811538,7.03060978 83.3777184,11.5304689 84.4444974,16.2573182 C87.2351841,26.0689149 84.3132908,37.5629092 77.1811398,44.7028362 C77.2815898,44.883735 77.262022,45.1443711 77.0442953,45.2645542 C76.6436442,45.485635 76.2453954,45.7121501 75.8486132,45.9420712 C73.3539843,48.0979423 68.2927505,50.9328555 64.5409521,50.9328555 C56.1754182,50.9328555 48.0941698,47.5377523 43.1557016,43.1801753 C36.8349104,38.0802928 32.8486027,27.4394395 34.8994913,19.7811616 C23.1461999,14.2455085 12.258666,10.0415335 7.70776249,8.21812402 C6.58475357,7.0397531 6.57453137,6.60636511 7.67709587,6.91796008 C18.3622492,9.93768359 39.4023911,19.7589699 39.6555308,19.769326 C39.8056414,19.7754552 40.3574295,18.5692791 40.4660844,18.0510481 C39.9740016,17.9971961 10.9519656,5.47286707 7.33751104,4.31089805 L7.14628209,4.24987397 C5.42724811,3.70670372 5.85672789,3.28400313 7.17778792,3.36093464 C9.85641561,3.51733386 32.5661839,14.0628681 36.9854422,15.1196196 C38.9597686,10.6812634 44.5681129,8.37733386 49.4950249,5.68050411 Z M63.5729053,-0.611605479 C59.9837174,-1.66835695 57.3450521,0.938014873 55.4251729,3.66971742 C50.8964926,9.28751601 42.6358355,9.46508063 39.2246642,16.1399144 L39.1227886,16.3441832 L40.4730936,16.7499757 L40.5099771,16.6889468 C40.6163662,16.5232894 40.9333652,16.1025521 41.2020853,16.4855765 C42.5984194,17.9868505 40.4122783,22.9710508 39.2643071,20.775818 L39.2298426,20.7070873 L37.3548747,20.1907585 C33.9681254,33.9212601 46.891587,46.2838127 59.8944121,48.3774968 C59.8944121,48.3774968 65.3192355,48.4643514 67.4934606,47.9391076 C69.0965824,47.5519139 70.4814938,46.8028885 71.9613819,46.0595695 C73.4319497,45.3207996 74.6466662,44.1771719 76.0713228,43.3957553 C80.141325,39.3584145 82.8176149,33.8158054 83.5454835,28.0665159 C84.2581121,21.1724806 83.5908407,12.3948916 77.6104852,8.02289941 C75.6414994,6.77381918 73.2142669,6.43819491 71.4145015,4.89364697 C69.2664738,2.51891507 66.7523453,0.104026614 63.5729053,-0.611605479 Z M57.1180843,31.6412947 C57.0578079,31.5423828 57.1969022,31.4474865 57.2757608,31.5212477 C58.5343536,32.6999483 59.7507498,33.9266254 60.9259853,35.1896548 C60.9879984,35.1699992 61.0584483,35.151189 61.1492354,35.1289973 C61.5808047,35.0235089 61.9538499,35.4745313 61.7450794,35.8719284 L61.6953994,35.960969 C61.381361,36.4957177 60.6594023,36.9664575 60.2296378,36.3218583 C59.1355225,34.8020384 58.0947107,33.239737 57.1180843,31.6412947 Z M41.564016,34.4676611 L41.5628462,34.421226 C41.5388335,33.9620003 41.1657948,32.8037002 41.9241408,32.9812344 C42.8015968,33.4918568 43.126356,34.8267452 43.1756385,35.7748626 C43.2297382,36.8155515 41.5047342,36.8286552 41.5493005,35.7748626 C41.5678757,35.3386356 41.6022822,34.903254 41.564016,34.4676611 Z M77.9982237,31.2650278 C78.1200811,31.2419906 78.1851797,31.3945855 78.0792486,31.4641198 C76.6885208,32.2456932 76.8050293,33.8213096 76.5806391,35.134429 C74.9837091,36.1992117 75.1461231,31.6372157 77.9982237,31.2650278 Z M38.0930752,25.6900932 C51.4853169,27.0410442 65.8916532,31.0404258 79.588393,26.9738348 C80.418362,26.7485354 80.7475496,28.0324885 79.9201713,28.2544063 C66.1139979,31.7550012 51.4540569,29.6639014 38.0930752,25.6900932 Z M74.4140223,20.1560548 C74.8284226,20.0596791 75.2190258,22.106184 75.8586138,22.4870372 C76.1764096,23.1270059 78.6977159,23.6904658 77.6352458,24.4752094 C75.8220482,24.8541605 73.8334839,21.7876791 74.4140223,20.1560548 Z M62.6493371,20.6405542 C62.9604237,20.634425 63.1734753,20.8730395 63.2752845,21.1444133 C63.553106,21.9414153 62.3638514,21.8146051 61.9209056,22.0796384 C60.0470912,23.3705659 57.8830854,24.4116775 55.580532,24.4599654 C55.4366113,24.4628243 55.4353032,24.2723977 55.5528911,24.2263233 L55.954408,24.0690469 C57.2210587,23.5704942 58.4415972,23.059559 59.6067185,22.3216344 C60.5499046,21.7247812 61.4573802,20.6139241 62.6493371,20.6405542 Z M55.5739714,6.61177691 C55.2571763,4.32919374 62.4654536,-1.43411742 64.674748,1.04354207 C65.2458884,1.68139726 64.4965967,2.62845793 63.7430705,2.22583562 C60.663602,1.41763209 57.7182901,4.77577691 55.5739714,6.61177691 Z" id="ðŸ–-Ink" fill="#000000"></path>
                </g>
                <g id="accessories/Glasses-3" transform="translate(88.521127, 88.978474)" fill="#000000">
                    <path d="M77.5634366,20.7796016 C76.1409718,22.691265 73.5039296,23.3001652 71.0716056,23.0898716 C65.8256197,22.5847444 64.1745634,16.6244548 64.0025915,11.9918677 C67.5204085,12.9818325 63.7051268,5.97049785 75.7302676,5.19949198 C79.9693521,4.84611429 78.8006197,7.40725714 80.673507,9.27855264 C80.6350563,13.2058638 79.9816056,17.4732376 77.5634366,20.7796016 M52.5766056,16.2668501 C49.4794225,30.7766818 32.5192817,27.3253315 30.737662,14.2457072 C32.3828028,13.084126 31.949493,10.2158912 33.9932958,9.1766818 C37.2324507,7.10629432 41.2816056,7.1948501 44.9599859,7.24346067 C49.6617465,7.56661526 51.0016056,9.51505362 53.4168169,11.6408149 C53.3006197,13.0606661 52.9655493,14.7434372 52.5766056,16.2668501 M84.2819577,2.79643914 C84.1080845,2.76748415 83.934,2.74021996 83.7599155,2.71464658 C83.6240704,2.63750372 83.4645634,2.57811429 83.2790704,2.54239609 C82.8554789,2.43481879 82.4348451,2.36232564 82.0148451,2.32322583 C75.9869577,0.966145597 62.0418169,2.89302622 61.4663239,8.03898317 C59.5467465,8.68000861 57.8857606,8.10598121 55.6609014,8.16304579 C53.9673803,1.08175421 24.6892817,2.08122975 23.2811831,6.35050568 C23.2759014,6.34902622 23.2706197,6.34775812 23.2651268,6.34606732 C21.912169,5.92717104 19.9175915,6.02819648 18.369,5.96183249 C15.0624507,5.89250959 11.7520986,6.18734325 8.51695775,6.88501057 C2.45885915,7.84813386 -5.80909859,8.97568767 -1.59578873,16.543719 C-1.59494366,16.5449871 -1.59430986,16.5464665 -1.59325352,16.5477346 L-1.59261972,16.5471006 C-0.866492958,17.2916877 0.365830986,16.6920869 0.411676056,15.6841573 C-1.00487324,12.098811 2.19456338,11.6682904 4.65625352,10.6379577 C10.7815352,8.43653307 17.0177324,8.13134325 23.3528028,8.81231389 C23.8294225,9.37366027 24.5525915,9.86314755 25.3169577,10.1193041 C29.552662,10.8226779 27.3204085,13.9658795 29.9978028,14.4230301 C29.5059718,25.3798521 42.8033662,31.3606427 50.5080845,24.158036 C53.5843521,21.1492532 54.317662,16.6920869 55.0309014,12.6745292 C55.4080141,12.5897777 55.6478028,12.3834998 55.7878732,12.1104352 C56.6948451,11.2045879 57.2646338,10.3680634 59.0580845,10.1193041 C60.8515352,9.87075616 62.232169,10.3697542 62.4189296,10.5225605 C62.4660423,10.6174568 62.5165352,10.7125644 62.5752676,10.807672 C62.6572394,10.9494881 62.7687887,11.0625605 62.8955493,11.1515389 C61.124493,22.0622865 69.5914648,28.9624509 78.1391408,23.3035468 C81.8532254,19.808447 82.6380845,14.4574802 82.7931549,9.6813863 C83.2966056,9.37746458 83.6154085,8.78843131 83.4411127,8.04785988 C83.2009014,7.02703796 83.7641408,6.14317104 84.6611831,5.69933542 C85.8267465,5.12298317 85.6205493,3.0181456 84.2819577,2.79643914" id="ðŸ–-Ink"></path>
                </g>
            </g>
        </g>
    </g>
</svg>