<?xml version="1.0" encoding="UTF-8"?>
<svg width="225px" height="684px" viewBox="0 0 225 684" version="1.1" xmlns="http://www.w3.org/2000/svg" xmlns:xlink="http://www.w3.org/1999/xlink">
    <!-- Generator: Sketch 62 (91390) - https://sketch.com -->
    <title>doc-nurse-5</title>
    <desc>Created with Sketch.</desc>
    <g id="Introduction" stroke="none" stroke-width="1" fill="none" fill-rule="evenodd">
        <g id="doc-nurses-covid-19" transform="translate(-886.000000, -179.000000)">
            <g id="a-person/standing" transform="translate(851.000000, 122.000000)">
                <g id="pose/standing/doctor-nurse-01" transform="translate(-28.736217, 150.264357)">
                    <path d="M107.698307,589.194983 C99.7530992,589.194983 91.7938796,587.668164 84.0970857,586.19017 L83.8225479,586.128547 C80.6133537,585.407799 77.2949143,584.66264 74.3721323,583.261911 C70.8618015,581.516806 68.2009703,578.200325 66.8981035,573.932248 C65.3508601,568.862129 65.8966107,562.966979 68.3216149,558.53181 C68.8445666,557.726924 69.3713181,556.922749 69.8985445,556.1181 C74.8416489,548.573597 79.9533707,540.771701 82.3289771,531.626906 L83.182039,528.343132 L80.2680441,529.973761 C80.2390704,529.989641 80.202497,530.004809 80.1322002,530.004809 C79.5624631,530.004809 78.2845327,529.157025 76.8125734,527.297207 C70.8698762,517.777699 71.6329296,505.870315 72.3710466,494.353761 C72.5619881,491.372175 72.7595793,488.290097 72.8256014,485.352357 C75.0855505,456.235675 81.5830229,425.159395 93.2724885,387.565812 C101.985737,364.42439 106.12304,339.804026 110.123311,315.99542 C111.595746,307.230789 113.118528,298.168237 114.847213,289.317572 L115.214846,287.433816 L112.90645,287.612521 C112.059087,287.679595 111.183226,287.749276 110.359138,287.749276 C107.921072,287.749276 106.570707,287.124992 105.698409,285.595566 C101.409113,278.00532 100.904685,268.942768 100.416882,260.178848 C100.284126,257.794053 100.146857,255.328201 99.9350161,252.938428 L99.8191213,251.636295 L98.5411908,251.612594 C98.2785276,251.608091 98.0156268,251.599796 97.7529635,251.5915 L95.9755929,251.534855 L96.2449059,252.979431 C96.0477897,253.019486 95.7259915,253.05883 95.2194266,253.05883 C94.3962884,253.05883 93.4190195,252.957389 92.556933,252.867562 C91.7751179,252.786505 91.099698,252.71635 90.5565598,252.71635 C90.3603936,252.71635 90.1879763,252.725593 90.0324207,252.744791 C89.6320136,252.757353 89.2484682,252.763752 88.8922341,252.763752 C86.2682137,252.763752 84.6694351,252.418902 84.0044648,251.709531 C83.1734894,250.823114 83.2608855,248.695949 83.3815301,245.752521 C83.4076539,245.117335 83.4354402,244.443041 83.4563393,243.728219 C83.5363732,241.060671 83.5705717,238.349276 83.6035827,235.727471 C83.6769669,229.93068 83.7524885,223.936696 84.3310127,218.108383 L84.3500119,217.919012 L84.3205632,217.731063 C76.0048719,164.480124 81.3531332,110.629787 86.9419712,69.6644995 C87.0364919,68.9691121 87.1298253,68.2727767 87.2229211,67.5759672 C88.1643291,60.5391395 89.1380356,53.2626946 91.6587481,46.6119562 C94.6943376,38.5583555 99.3538796,33.0725214 106.324193,29.3441167 C112.608638,25.9830775 119.931148,24.4726126 127.683515,22.8735059 C134.651454,21.4362771 141.856645,19.9499872 148.644092,16.9954202 L149.161581,16.7695497 L150.087077,16.516186 C150.705262,16.3471978 151.300885,16.1310447 151.876797,15.9220018 C152.743159,15.6077265 153.561072,15.31099 154.347399,15.2090757 L155.06058,15.1164047 L155.411589,14.4748186 C156.950283,11.6615096 158.145567,8.63038833 158.963956,5.46535643 L158.996729,5.33903008 L159.006941,5.20867457 C159.075576,4.32889335 159.075813,3.46238469 159.075813,2.62479125 C159.076051,1.55540201 159.076051,0.545265269 159.21142,-0.439037375 C159.785669,-4.02096992 161.707671,-6.81982133 164.923515,-8.75832634 C167.752251,-10.4631395 171.504109,-11.4024102 175.487993,-11.4024102 C177.205754,-11.4024102 178.891691,-11.2296299 180.499257,-10.8897575 L180.565279,-10.8757739 L180.632489,-10.8681896 C183.513235,-10.5451449 188.755338,-9.34326709 191.493829,-4.92160802 L192.118663,-3.91313036 L192.989774,-4.25513582 C193.083583,-3.8526928 193.142718,-3.22035005 193.179053,-2.83497174 C193.246025,-2.12086053 193.309198,-1.44632999 193.514863,-0.891015497 C193.938545,0.2978268 194.278629,1.58716135 194.554592,3.05093528 L194.767383,4.18005105 L194.999647,4.1907165 C196.211081,9.88891158 198.300037,14.3333236 201.369588,17.745794 L201.609215,18.0117192 L201.869978,18.1062862 C201.946925,18.1835515 202.079206,18.3636791 202.170165,18.4876354 C202.342819,18.7229863 202.538273,18.9889116 202.788112,19.2299508 C203.471606,19.9265232 204.218986,20.4799417 204.942141,21.0151103 C205.086534,21.1222388 205.232353,21.2303154 205.380071,21.3409991 L205.600224,21.5061951 L205.864787,21.5765871 C206.457323,21.7337247 207.001174,21.7600328 207.480665,21.7832598 C207.896509,21.8034057 208.25583,21.8207074 208.548892,21.9195406 L208.743159,21.9851923 L208.947162,21.9920656 C209.028858,21.9949098 209.111267,22.0051012 209.194388,22.0138706 C209.362056,22.0318833 209.552285,22.0522662 209.766738,22.0522662 C209.985941,22.0522662 210.187569,22.0306983 210.38231,21.9861404 L211.432014,21.7469973 L211.477612,20.9475624 C213.013455,20.8769335 214.577323,20.8309535 216.144753,20.8309535 C223.404567,20.8309535 229.073676,21.8572069 233.983532,24.0602151 C251.394592,32.6053747 257.413998,60.8406162 261.80874,81.4588295 C262.546619,84.920835 263.243651,88.1908624 263.948519,91.1703154 C267.708214,110.777681 271.408299,130.741984 274.986076,150.047872 C278.318765,168.029112 281.764499,186.622312 285.252268,204.891993 C287.307976,215.081054 288.427739,226.438811 281.1684,233.536077 L280.061225,234.618264 L281.195949,235.670115 C281.896543,236.319759 281.698239,238.10326 281.538884,239.536222 C281.491623,239.961418 281.446738,240.363624 281.421564,240.748766 C280.628824,248.751646 279.152353,255.228893 276.907841,260.549768 C274.01047,267.419978 269.805483,272.210188 264.410436,274.787435 L263.751165,275.102421 L263.613897,275.833597 C263.48399,276.525903 262.132913,277.089276 260.602056,277.089276 C259.677747,277.089276 258.800699,276.891136 258.195813,276.545812 L256.573048,275.61934 L256.119681,277.463278 C245.728095,319.710078 241.52477,362.737827 238.410334,414.345812 C238.127009,418.982439 237.866958,423.711026 237.61522,428.283898 C236.070114,456.360106 234.47276,485.392175 226.539664,512.714691 L226.30075,513.536642 L226.887349,514.14955 C231.171657,518.62501 236.931013,520.774691 242.500852,522.853506 L242.953269,523.022494 C254.79449,527.34769 265.740852,534.197991 274.618443,542.836769 L274.649554,542.866159 C282.535152,550.093542 285.915813,557.959194 283.692438,563.907198 C281.631267,569.421236 274.813184,572.583661 264.986348,572.583661 C264.985635,572.583661 264.792081,572.583187 264.792081,572.583187 L264.715135,572.591719 C260.075304,573.096788 255.243345,573.352758 250.352964,573.352758 C229.220682,573.352758 208.581428,568.575584 192.961751,564.413688 L192.91639,564.402786 C188.2122,563.315858 183.857357,560.615366 180.65315,556.798319 C177.365584,552.881728 175.594863,548.086304 175.666823,543.294673 C175.730232,538.162458 177.825839,531.977918 182.364974,529.721108 L185.508146,528.158975 L182.193506,527.027015 C180.322802,526.38851 179.498239,524.452376 178.543769,522.210024 C178.153099,521.293032 177.749605,520.345229 177.253489,519.47872 C173.239681,510.783296 170.12097,501.288438 167.983566,491.255566 L167.970266,491.198447 C161.876051,467.272995 165.952081,442.869021 169.894405,419.26851 C173.32399,398.734199 176.870656,377.500944 173.844804,356.409422 L171.056441,356.25181 C166.784482,372.945138 163.730843,390.5346 160.777662,407.544809 C157.19846,428.162786 153.49695,449.48326 147.585601,469.519851 C140.972234,491.935074 132.240699,510.288893 120.891793,525.630078 L120.290232,526.443023 L120.830283,527.299814 C120.878969,527.377553 120.89868,527.427562 120.906042,527.451737 C120.779461,527.713871 119.909062,528.268237 118.816373,528.41542 L118.212675,528.496241 L117.852879,528.998939 C116.048672,531.517881 118.149503,534.722494 119.404397,536.637061 C119.622887,536.97006 119.829028,537.284809 119.975321,537.533907 C121.715169,540.492029 123.30896,543.481674 124.503532,545.755785 L124.931488,546.546924 C128.152319,552.491136 132.160902,559.88893 133.717408,567.006341 C135.466517,575.004481 133.759444,581.065539 128.498341,585.534126 C126.362599,587.153141 123.791539,588.081036 121.438731,588.081036 C120.84857,588.081036 120.266958,588.023679 119.710283,587.910151 L119.405347,587.847818 L119.102785,587.921765 C115.580343,588.778319 111.849859,589.194983 107.698307,589.194983" id="ðŸ‘•-Clothes" fill="#8FA7DF"></path>
                    <path d="M150.902757,16.4978432 L150.941001,16.4985524 C152.021865,16.4985524 152.53501,17.2802935 152.480436,18.8437757 L152.476896,18.9298318 L155.013709,37.7397394 L159.654815,94.7025912 L168.092814,142.68714 L168.819098,146.983316 C176.527627,192.666105 180.381892,218.288058 180.381892,223.849175 L180.380568,224.554832 C180.359387,230.341561 180.084042,239.52361 179.554532,252.100977 L178.952471,252.292986 C173.256105,254.09628 169.184078,254.997927 166.736389,254.997927 L166.580949,254.997927 C164.041034,254.960827 157.759086,254.070706 147.735104,252.326429 L146.445716,252.100977 L138.077951,253.748197 L132.667904,251.191878 L127.120535,240.953453 L98.0633622,243.905644 L98.6134644,251.613868 L98.5411908,251.612594 C98.2785276,251.608091 98.0156268,251.599796 97.7529635,251.5915 L95.9755929,251.534855 L96.2449059,252.979431 L96.1632351,252.994649 C96.0605563,253.012175 95.9314805,253.028577 95.7706557,253.040412 L84.4448341,252.051472 C84.2685636,251.948797 84.1219418,251.834853 84.0044648,251.709531 C83.2513933,250.906216 83.2525704,249.083887 83.3492048,246.558488 L83.420894,244.770233 C83.4337184,244.432909 83.4458897,244.08563 83.4563393,243.728219 C83.5274805,241.357065 83.5624061,238.951267 83.5924738,236.604541 L83.6195231,234.482416 C83.6903221,229.075242 83.7938117,223.520388 84.3310127,218.108383 L84.3500119,217.919012 L84.3205632,217.731063 C76.0048719,164.480124 81.3531332,110.629787 86.9419712,69.6644995 L87.0829805,68.6207666 L87.0829805,68.6207666 L87.4153113,66.1417135 C88.3034677,59.5553789 89.3089314,52.8117971 91.6587481,46.6119562 C94.6943376,38.5583555 99.3538796,33.0725214 106.324193,29.3441167 C112.159749,26.2231517 118.890372,24.697835 126.029095,23.2155216 L129.522218,22.4931974 C135.912308,21.1642266 142.452035,19.6908147 148.644092,16.9954202 L149.161581,16.7695497 L150.087077,16.516186 C150.190268,16.4879774 150.292831,16.4584546 150.394778,16.4278701 C150.613188,16.4701993 150.782562,16.4935886 150.902757,16.4978432 L150.902757,16.4978432 Z M216.144753,20.8309535 C223.404567,20.8309535 229.073676,21.8572069 233.983532,24.0602151 C250.69815,32.2635683 256.914219,58.613301 261.272947,78.9498299 L262.445167,84.4366435 C262.953888,86.803632 263.449237,89.0598695 263.948519,91.1703154 C267.305389,108.676892 270.614739,126.468016 273.831941,143.820982 L276.848749,160.094468 C279.596404,174.904388 282.410382,190.005586 285.252268,204.891993 L285.352083,205.391494 C286.969135,213.564487 287.910737,222.427484 284.376609,229.208483 L272.380756,237.916401 L272.380756,249.086617 C268.679165,251.067066 263.961146,252.071642 258.226698,252.100977 L257.973048,252.100977 L238.066877,252.100977 L231.384806,216.573698 L226.773701,164.781463 L224.712397,95.5499289 L219.91894,55.3157796 L213.662444,34.451825 L205.492589,22.3095643 L207.153344,21.7660204 L207.373605,21.7780229 L207.373605,21.7780229 L207.683832,21.7934863 C208.014442,21.8114377 208.304674,21.8371796 208.548892,21.9195406 L208.743159,21.9851923 L208.947162,21.9920656 C209.001626,21.9939617 209.056407,21.9991233 209.111505,22.004952 L209.194388,22.0138706 C209.362056,22.0318833 209.552285,22.0522662 209.766738,22.0522662 C209.985941,22.0522662 210.187569,22.0306983 210.38231,21.9861404 L211.432014,21.7469973 L211.477612,20.9475624 C213.013455,20.8769335 214.577323,20.8309535 216.144753,20.8309535 Z" id="ðŸ‘•-Clothes" fill="#9FD8E5"></path>
                    <path d="M125.391125,241.929455 L125.377732,241.811955 C125.238131,240.451844 125.849094,240.876829 126.194314,241.915471 C128.430514,241.624186 129.493042,243.941196 128.645917,245.590786 C132.119674,250.13332 136.732431,253.653867 139.844492,258.490531 C142.719064,262.477276 143.889411,269.173521 137.000319,268.459883 L136.775983,268.45869 C135.893755,268.460495 135.423085,268.567464 135.268071,269.638534 C135.36283,277.229728 136.544339,284.050877 127.331413,286.094851 C120.830378,287.217568 114.165001,287.226574 107.588207,287.392955 C104.754721,287.275635 105.105493,283.520211 105.080081,281.460831 L105.073907,281.469127 L105.073907,281.469127 C102.84143,275.787712 101.652308,269.685822 100.572158,263.671121 L100.437639,262.919774 C99.7987922,258.003475 98.7595386,252.944733 99.6187752,247.999282 L99.5652865,247.919558 C98.7517316,246.686802 97.8549491,244.400134 99.8543647,243.864879 C108.313975,242.709455 116.869293,242.327632 125.391125,241.929455 Z M274.163104,240.228718 C274.916183,238.628664 279.910823,234.543559 280.989975,237.315865 C282.516319,246.621827 277.987871,254.932583 274.654232,263.212529 C274.344309,264.11056 273.69715,264.784142 272.90821,265.06334 C272.25084,267.632766 258.145869,281.355172 257.887956,274.751125 C258.921985,270.150997 260.234351,265.604671 261.429635,261.045546 C263.941561,247.887934 267.800526,254.251654 273.121238,250.169867 C274.793401,247.124999 272.34916,243.3153 274.163104,240.228718 Z M161.392119,-7.47840109 C167.291355,-15.0323847 185.703196,-15.2160675 191.892882,-7.93891158 C194.924434,-6.51329626 196.557411,4.1362753 196.57926,7.58571923 C197.532305,12.8108423 200.800159,17.1597393 204.146385,21.1189918 C207.165588,25.4742881 204.347776,30.720031 203.03636,35.1945433 C202.198497,37.8737046 201.338073,40.5412525 200.441075,43.200979 C197.921788,48.9394658 196.700617,60.4026928 189.364332,61.3187366 C187.696207,61.3187366 186.082229,60.2780255 185.526979,58.7924467 C181.751847,56.5010337 178.810066,52.8359107 175.528675,49.866649 C171.650711,46.5594111 169.194358,42.088928 166.24474,37.9926837 C162.066589,32.4625287 153.777971,27.5391194 154.887759,19.611371 C154.759515,19.6969316 154.354595,20.4762206 154.296411,20.0858651 C156.591746,15.0422917 158.369116,9.4640237 159.056411,3.9331577 C159.099871,-0.503670009 157.982246,-3.54024248 161.392119,-7.47840109 Z" id="âœ‹-Skin" fill="#D08B5B"></path>
                    <path d="M103.99732,529.694137 C107.635182,529.843216 112.637422,527.682159 115.557591,530.512769 C115.684411,530.422943 115.894351,530.500919 115.960611,530.661375 C116.887769,532.911074 118.021781,535.122377 119.091433,537.304529 C123.487362,547.139734 130.736726,555.83184 131.989245,566.874611 C132.960577,575.632131 127.688312,588.125641 117.633011,587.097254 C104.344529,586.970454 90.8750806,586.035212 78.0822392,582.122651 C74.7296014,583.048886 71.1266497,579.636179 69.4960475,576.990199 C65.2946226,570.170946 68.4019338,561.807573 71.860017,555.447646 C75.6838338,548.889579 78.6674131,541.911293 81.1952502,534.740791 C80.527905,533.917181 80.6706361,532.269488 81.9029686,532.08225 C83.9890755,531.918713 85.8916031,531.150563 88.0157082,531.254137 C93.3300085,530.608521 98.6671077,530.138057 103.99732,529.694137 Z M226.113276,515.115034 C227.829374,511.488306 230.073174,516.354359 231.408814,517.825006 C238.235447,523.390713 248.079383,523.617294 255.070358,529.158352 L255.531804,529.459847 C258.269337,531.238883 261.333221,533.095706 263.175634,535.815727 L263.878366,536.305627 C271.514196,541.643534 281.048497,548.859602 282.380926,558.65425 C282.697025,559.068069 282.892953,559.594469 282.949951,560.155471 C282.638365,575.338808 260.483216,570.253046 250.666355,570.689856 L249.130182,570.6229 C232.561559,569.919778 215.619446,569.744549 200.02744,563.227121 C197.596261,564.130366 194.644506,563.576 192.268899,562.584587 L191.993559,562.476496 C188.495975,561.114015 184.637281,559.984593 182.339942,556.76054 C178.933133,552.329599 178.014099,546.268423 178.553483,540.782888 L178.619125,540.14585 C178.915545,537.173762 179.084227,533.703676 181.333462,531.685116 C184.649052,526.010622 192.167491,527.425809 197.456142,525.220904 C205.899128,523.01837 217.873581,513.802472 226.113276,515.115034 Z" id="ðŸ‘Ÿ-Shoes" fill="#FFFFFF"></path>
                    <path d="M219.109357,96.6136299 C218.132801,94.7429098 216.651817,92.669783 214.718653,91.7677229 C213.962012,91.4145779 213.222232,91.2481969 212.509289,91.2294731 C209.744913,90.3966199 207.06532,91.8146509 205.486728,94.2191176 C205.316685,94.3518432 205.151155,94.4931012 204.99085,94.6412325 C203.324149,96.1806126 201.922724,98.1942498 201.9371,100.580467 C201.952173,102.952937 203.453344,105.160923 205.717567,105.774778 C206.499858,105.986902 207.325133,105.820995 207.988441,105.40054 C208.276753,105.537294 208.578127,105.659118 208.895651,105.760558 C212.353259,106.864551 216.882656,105.708653 219.016024,102.591971 C220.287304,100.734523 220.120824,98.5509499 219.109357,96.6136299" id="stethoscope" fill="#FFFFFF"></path>
                    <path d="M158.623159,-2.7938268 C158.622446,-2.96257794 158.863498,-2.99338924 158.907196,-2.83317046 C160.843447,3.95053054 160.226212,11.3281787 156.937221,17.5833473 L156.831539,17.7930399 C156.065212,19.295406 155.102431,20.7765255 153.663668,21.4632015 L154.196055,22.2388269 C162.732988,34.6373671 172.176548,46.4752711 183.546958,56.2783154 C184.662631,57.2516366 185.78656,58.2202761 186.940929,59.1464475 L187.375288,59.4916974 C187.919851,59.9206855 188.71639,60.7698924 189.447858,60.8023628 C191.756254,60.1287803 194.483345,54.069619 195.794049,51.8929189 C200.616984,43.1654986 203.196594,33.3852799 204.901055,23.6434567 C204.327043,22.3728459 202.909707,21.5895278 202.114592,20.5867384 C200.624584,19.0265014 199.342378,17.2081604 198.312624,15.3004667 C196.353337,11.6708952 195.142141,7.1240948 195.692404,2.96859799 C195.728027,2.6993546 196.157883,2.71594531 196.207518,2.96859799 C197.133964,7.80455059 198.791165,12.4535023 201.956187,16.2198286 C201.982785,16.1496737 202.040495,16.0923172 202.125042,16.0932653 C203.494643,16.110567 204.762124,15.8166746 206.118426,16.2022899 C207.298986,16.5383701 208.395712,17.1726089 209.192014,18.1339216 C209.558222,18.5759453 209.855321,19.0592088 210.11466,19.5638031 C210.884601,19.5216153 211.654779,19.4825087 212.425432,19.4514603 C228.143193,18.1313145 243.373625,23.5763829 250.104787,39.13301 C257.989673,55.3371486 261.808265,73.2373309 265.341394,90.8597375 C272.605245,128.744131 279.418103,166.720011 286.650131,204.611515 L286.769953,205.211767 C288.713342,215.059347 289.928377,226.99332 282.152081,234.588543 C283.682701,236.006337 282.961683,238.965644 282.840801,240.871442 C281.547671,253.988051 277.744516,270.024387 265.013184,276.107486 C264.544142,278.616948 259.913574,279.196201 257.501632,277.81775 C246.625235,322.042449 242.676574,367.652779 239.915956,413.059183 L239.832658,414.43507 C237.815898,447.488489 237.183939,481.160266 227.906416,513.130549 C232.078629,517.488215 237.953167,519.601397 243.441072,521.652718 C255.369927,526.008726 266.412947,532.840066 275.601174,541.77961 C292.135661,557.075052 288.574745,573.992828 264.866416,574.042126 C243.004092,576.080649 220.890266,573.515727 199.776509,567.510603 C198.621123,567.1859 197.379053,566.939409 196.3265,566.324842 C195.024821,566.295453 193.705567,566.075034 192.603379,565.82404 C182.499868,563.49115 174.079681,554.139683 174.242836,543.27301 C174.311708,537.703985 176.56762,530.983803 181.741089,528.410111 C179.831674,527.844605 178.80572,526.222746 178.060478,524.450385 C177.34611,523.033776 176.656679,521.604131 175.993133,520.161688 C171.779121,511.044387 168.687959,501.414669 166.592115,491.565954 C157.164736,454.565371 171.537357,417.759136 173.380275,380.77064 C173.309503,379.382472 173.226382,377.99549 173.115949,376.611351 C172.719579,371.643384 172.114694,366.735617 171.136,361.878334 C157.828282,417.527103 156.990894,479.251624 122.02723,526.509765 C123.218952,528.399209 120.679953,529.634505 119.001852,529.861798 C117.544142,531.896055 120.216136,535.114414 121.196729,536.782727 C122.791946,539.496729 124.293116,542.276383 125.757476,545.066465 L126.767007,546.930167 C133.295432,559.004303 141.972718,576.023233 129.377764,586.68116 C126.597951,588.801451 122.904753,590.046702 119.432183,589.338753 C115.529282,590.438479 111.462039,590.765079 107.417357,590.582108 C99.4814114,590.40672 91.5687396,589.321925 83.8128109,587.619956 L82.709622,587.371532 C79.6691507,586.683443 76.5857902,585.933041 73.7665344,584.58291 C64.4016149,579.925189 62.2634979,566.557349 67.1068567,557.769491 C68.7303342,554.680066 70.9817337,552.005644 72.8484003,549.077149 C76.3425818,543.596766 79.0953215,537.51817 80.952726,531.253046 C80.527145,531.556893 79.9450585,531.638188 79.3275861,531.306611 C66.9539135,523.67631 71.0992909,498.161706 71.4016149,485.278078 C73.9964241,451.808944 82.0010042,419.001542 91.9268736,387.081269 C103.806093,355.563912 107.025025,321.924131 113.449588,289.032591 L112.236075,289.126244 C109.249432,289.34206 106.17961,289.335527 104.467976,286.330676 C100.067773,278.303384 99.2182731,268.124988 98.7886548,258.241196 C98.616,256.946173 98.470894,255.643803 98.3262629,254.345936 C98.0315386,254.394523 97.7311145,254.405189 97.4876879,254.398078 C97.304821,254.392627 97.1250416,254.374614 96.9504869,254.342618 L96.924363,254.350439 L96.924363,254.350439 C95.7663647,254.592901 94.5603936,254.416328 93.385771,254.358735 C90.4689262,254.077878 87.3787142,254.42652 84.5181544,253.70909 C80.4896217,252.325189 82.276017,247.007869 82.0321154,243.68404 C82.2905038,235.114232 82.0651264,226.500102 82.9129635,217.95992 C75.2282816,168.750239 78.8317082,118.568343 85.5312841,69.4636572 C88.0147108,42.6862644 95.8708601,26.4809407 123.757815,22.1905852 C130.795576,20.7841677 137.982718,20.0371121 144.753303,17.4980237 C124.654338,29.4300565 98.3647362,23.0348149 91.6347617,53.7235843 C81.077883,116.201798 77.0241764,181.609692 91.3419372,243.804204 C93.5873995,243.320704 95.7732519,242.555398 98.0742867,242.297768 C98.0253639,242.075453 98.368536,242.017149 98.3649737,242.253922 C109.005686,240.653867 120.549808,242.523402 130.186416,236.673284 C128.18818,226.148379 125.94723,215.664004 123.48969,205.233192 C112.593439,165.214286 136.082802,126.328762 131.571691,86.2588988 C131.545092,86.0519891 131.875915,86.0162005 131.922938,86.2105488 C140.938986,127.008033 115.450673,167.624441 128.377459,208.31693 C129.554931,213.387522 130.813388,218.439865 131.857628,223.54198 L131.889815,223.683095 C132.464927,226.254745 135.398144,241.69655 131.466008,240.353101 C130.715779,240.846082 129.87388,241.222454 129.035542,241.556164 C130.268824,246.401123 134.406602,249.684186 137.517713,253.168944 C147.427908,248.798954 158.576373,253.636802 168.887688,252.713648 C171.907841,252.579737 174.862209,251.862071 177.834863,251.383074 C180.209282,201.78043 167.047145,153.48703 159.432522,104.891916 C159.239919,104.931023 159.047552,104.967285 158.854711,105.001889 C158.928807,105.43775 158.769927,105.917222 158.260987,106.262071 C155.636254,108.357003 150.264957,108.88672 150.916153,104.104569 C151.830724,100.683092 156.657696,100.627158 158.230351,103.567267 C158.541937,103.449947 158.858986,103.340211 159.180784,103.237349 C158.992455,101.980722 158.809588,100.723858 158.630046,99.4660456 C148.24226,88.8259544 140.773455,72.6877046 140.178545,57.3922625 L139.319783,57.5259362 L139.319783,57.5259362 C138.594728,57.640175 138.059427,57.2398651 137.984142,56.4849881 C137.907196,55.7092543 137.86991,54.9496372 137.884159,54.2004485 C137.686331,53.3258815 137.800801,52.320959 137.894372,51.4727001 C136.855355,44.449382 142.131182,37.2987894 148.831471,35.6198104 C148.109978,34.3297648 147.775355,32.631825 147.541903,31.2261185 C146.558935,28.047577 146.197001,24.6362917 146.578646,21.3397192 C146.588383,20.9429644 146.605483,20.5471577 146.633506,20.152299 C146.856984,17.0017247 147.701496,13.8449881 149.976407,11.5777502 C151.65522,9.90493345 153.87812,9.11284594 156.029537,9.80325615 C157.660377,5.80963719 158.620309,1.53350228 158.623159,-2.7938268 Z M117.923888,530.072263 C111.635881,531.481761 105.169995,531.006319 98.7891298,530.793484 C96.7937439,534.653192 95.5305377,538.907048 94.5587311,543.132937 C93.5947617,549.594304 89.8942019,547.627121 92.042531,542.201725 C93.3850585,537.986501 95.6863308,534.213302 98.3595115,530.779974 C92.723888,530.602928 87.0089432,530.652226 81.6309958,532.451132 C81.5234131,542.496328 76.417391,551.106191 71.1123528,559.198899 C66.8213944,566.737003 69.1656522,578.907468 78.2291976,581.240831 C90.7854996,585.422636 104.057832,585.627887 117.0941,586.403621 C117.398561,585.086319 118.900444,584.593575 120.103091,584.742655 C123.465941,585.331387 126.927824,583.499063 128.894948,580.739555 C136.871742,567.941725 123.247688,551.930512 119.384685,539.611205 L119.257496,539.305915 C118.191876,536.7883 116.042744,532.513428 117.923888,530.072263 Z M227.057391,517.903931 C225.568332,517.743475 224.049825,517.877623 222.585941,518.174359 C221.47164,518.40023 220.374914,518.691515 219.281276,518.988963 C220.946573,520.550449 222.56275,522.244531 223.977369,524.053069 L224.17807,524.312208 C225.749062,526.360448 227.628316,528.154851 228.397544,530.711242 C228.650232,531.549783 227.697662,532.21981 226.991369,531.817367 C224.677272,530.498407 223.32382,528.072846 221.902209,525.88074 C220.552794,523.800029 219.477679,521.498425 218.673778,519.154396 L218.174308,519.289839 C216.342628,519.783514 214.50576,520.236445 212.597849,520.375708 C208.115237,522.188124 203.767281,525.285371 199.582005,527.159646 C196.223193,532.984168 195.540173,539.787304 195.70974,546.412919 C193.216814,551.341779 189.875338,535.472299 198.07656,527.885608 L197.787714,528.006489 C193.34897,529.840799 188.465056,530.779072 183.78611,529.069473 C183.872794,529.246994 183.873981,529.872937 183.523447,529.625025 C182.583939,528.467942 180.418511,532.941032 180.155135,533.527395 C174.318833,545.524368 181.528061,558.879409 194.016916,561.706702 L194.381894,561.782008 C200.925354,563.138007 235.683847,570.57466 252.95941,570.434833 C260.693014,569.761014 277.932845,571.628416 281.470962,563.137294 C284.211827,552.897513 272.866246,544.140467 266.087824,538.375435 C261.691657,534.871479 256.93807,531.79651 251.969554,529.215471 C245.452845,525.830257 237.827298,523.483147 232.140139,518.691989 C231.930673,518.896766 231.6122,518.988015 231.266891,518.813812 C230.967654,518.663074 230.549673,518.811916 230.214338,518.749582 C229.856441,518.682746 229.527518,518.528215 229.183396,518.406392 C228.492539,518.161087 227.785534,517.982618 227.057391,517.903931 Z M250.206908,552.764811 C247.030487,552.997792 246.308044,545.938686 248.07354,547.882405 C248.280204,548.624756 248.637972,549.395769 249.124653,549.997726 L249.240452,550.13611 C249.828939,550.81066 251.82287,552.259843 250.206908,552.764811 Z M103.963786,533.663391 C104.027196,533.545597 104.217187,533.597265 104.212913,533.732124 C104.162565,535.354695 104.045958,536.780073 104.44304,538.382024 C104.823973,539.919745 105.540716,541.255059 106.40019,542.564303 C107.0255,543.516135 105.56019,544.340456 104.920156,543.449535 C103.073439,540.879398 102.408468,536.553965 103.963786,533.663391 Z M211.597829,521.067564 C211.642002,520.875823 211.944801,520.868476 211.984224,521.067564 C213.020865,524.478139 213.325564,528.079743 214.129941,531.555495 C214.267447,533.53524 217.561187,540.011776 214.506836,540.47916 C211.672875,540.523717 211.499983,533.675076 211.041628,531.527528 L211.000987,531.154907 C210.641411,527.795434 210.463096,524.282741 211.597829,521.067564 Z M181.425941,238.684551 C181.16779,241.185954 182.261428,254.30683 179.132031,254.004642 C170.614711,259.354195 157.919715,255.391861 148.516797,254.548343 C145.041377,254.144952 141.562395,253.987577 138.077951,253.748197 C143.675576,258.155398 149.759579,273.890731 136.854405,270.019883 C135.167993,271.979245 136.393201,275.223675 136.545194,277.535945 C137.187841,282.945462 134.695389,287.2261 129.186585,287.916985 C124.16131,288.596018 119.048875,288.565207 113.998426,288.99775 C112.236967,307.607067 109.950656,326.179646 106.931691,344.622108 C104.274422,360.961342 98.6563732,376.428379 93.8612248,392.186465 C82.5519796,431.005626 72.9058728,471.426264 74.8539983,512.204551 C75.1109618,515.341615 75.6519627,518.465644 76.7244648,521.425426 C77.7076709,524.139191 79.4382561,526.572809 81.2303511,528.78435 C81.5768482,529.211679 81.6834809,529.699209 81.6179338,530.142892 C81.7896387,530.649145 81.6286209,531.28054 81.6594945,531.822819 C92.8176964,525.974122 105.926161,530.291734 117.635101,526.779719 C117.724872,525.645626 118.132641,524.394687 118.594083,523.353028 C128.435644,509.719974 135.817764,494.354377 141.324906,478.398862 C152.741259,445.543584 156.608299,410.710458 163.563176,376.734122 C170.571013,342.947632 181.031946,309.455508 198.610436,279.780193 C198.73963,279.560248 199.030317,279.752937 198.937221,279.97549 L198.047501,282.159084 C188.467877,305.700882 179.226036,329.492421 173.043277,354.23239 C186.188316,406.88796 152.858578,454.709473 177.491929,510.549273 C178.538307,513.150221 179.670419,515.717987 180.875203,518.245699 C181.660343,520.463402 184.283176,523.697167 184.090334,525.859646 C193.42818,527.78796 201.217832,521.048817 208.991573,516.946647 L209.177599,516.86532 C211.486487,515.843969 215.43231,513.693138 218.120427,514.131679 C219.948146,513.021998 221.702718,511.791916 223.279172,510.37981 C223.431165,509.805061 223.600258,509.266811 223.763176,508.806775 C237.31812,458.793393 233.197679,406.111515 240.197442,355.041542 C243.985873,320.794541 250.966874,286.750184 261.583362,254.167942 C258.796899,255.123566 231.890063,256.724569 235.346246,251.019263 C234.422175,247.028726 233.599274,243.013065 232.858545,238.982946 C229.783769,239.200284 226.749367,239.454596 223.677679,239.6461 C225.111878,242.934614 226.205992,246.442363 227.430487,249.806009 C228.934032,253.035034 228.221089,259.284514 223.548723,258.467304 C219.52779,257.226319 217.218918,250.291169 218.408265,246.435253 C218.521547,246.094195 219.071335,245.925681 219.242565,246.323621 C220.193213,248.534335 220.728944,250.804109 222.054625,252.834061 L222.238351,253.109329 C222.590317,253.646047 223.505594,255.143699 224.160258,255.013119 C225.523209,252.258589 220.107501,243.586155 219.584787,239.880977 L219.153506,239.902545 L219.153506,239.902545 C221.674694,245.769254 214.907433,249.995143 210.298952,246.409892 C207.723142,250.043019 205.140919,253.592244 202.647993,257.27064 L202.45358,257.55052 C201.408772,259.049124 200.227445,260.620456 198.452031,261.214487 C196.577052,261.842089 194.582853,260.972737 193.846636,259.077367 C192.48226,254.898644 196.932811,248.5828 199.442836,245.423694 C200.180953,243.356729 201.669299,241.657367 203.368061,240.341725 L202.622604,240.349538 C195.535263,240.416881 188.297177,240.273643 181.425941,238.684551 Z M95.0436607,531.096952 C95.1871043,531.096952 95.1871043,531.324718 95.0436607,531.324718 C94.9002171,531.324718 94.9002171,531.096952 95.0436607,531.096952 Z M109.4164,492.372002 C109.563169,492.101099 109.995162,492.287152 109.904916,492.582704 C106.791193,502.640224 104.125137,512.837344 101.814365,523.11718 C100.467562,530.136943 96.0580967,528.016177 98.033771,521.812676 C100.560658,511.551564 104.430785,501.640042 109.4164,492.372002 Z M188.41048,495.431801 C188.397418,495.177727 188.756027,495.151655 188.826087,495.374208 C190.81126,501.748119 193.490141,507.973424 197.251023,513.466131 C198.423271,515.165967 200.063135,516.741847 200.639997,518.784162 C200.911209,519.74429 199.88953,520.370944 199.102728,519.993387 C197.114242,519.038849 195.862688,516.718061 194.745234,514.86817 L194.683288,514.765894 C191.119997,508.930707 188.767902,502.329741 188.41048,495.431801 Z M121.755874,509.039305 C122.019488,508.701803 122.496129,509.13482 122.315162,509.481092 L122.232456,509.648165 C121.395276,511.360455 116.461466,521.767341 115.787528,517.652013 C117.089208,514.421566 119.641031,511.747856 121.755874,509.039305 Z M227.666789,513.69084 L227.588655,513.820485 L227.588655,513.820485 C227.768909,514.013648 227.954388,514.201597 228.142718,514.387413 C227.980987,514.159172 227.821394,513.927851 227.666789,513.69084 Z M172.436017,356.621925 C172.305635,357.13126 172.179053,357.642253 172.051047,358.152536 C172.427705,359.413192 172.763752,360.689254 173.061564,361.975982 C172.895796,360.192007 172.692268,358.407085 172.436017,356.621925 Z M126.756356,242.398261 C117.705873,245.238115 108.094677,244.262819 98.7649059,244.561451 L98.7337947,244.572591 L98.7337947,244.572591 C100.827264,256.494432 100.495966,268.98652 104.452539,280.500941 L104.565856,280.821077 C106.400759,285.971697 107.491326,287.297976 113.163888,286.360303 C117.670249,286.023985 122.180173,285.730567 126.685584,285.379318 L127.30334,285.328578 C129.258609,285.158855 131.482924,284.838408 132.791199,283.247413 C135.650809,279.362108 132.337595,274.198133 133.899562,269.972955 C136.178748,264.838133 138.567891,269.349619 141.495898,267.763785 C143.349503,266.479665 141.267433,262.384368 140.534304,260.976292 C137.529113,255.851661 132.427128,252.364769 129.192522,247.356036 L128.998901,247.076963 C128.120154,245.801709 127.024774,244.073426 126.756356,242.398261 Z M279.975491,236.464004 C278.160122,237.799792 276.121276,238.777933 273.979121,239.228963 C274.170538,242.550895 274.307094,245.875909 274.376679,249.203767 C274.39544,250.096109 273.767518,250.775143 272.993778,251.062399 C270.092607,252.13961 267.115678,253.011333 264.093625,253.671406 C262.835048,256.479362 262.150855,259.47444 261.495954,262.470888 L261.238765,263.64858 C260.260071,267.753119 258.892607,271.753849 257.973048,275.875453 C262.108214,277.220248 265.581021,273.561287 268.416645,270.983566 C276.870555,261.920066 279.578171,248.625936 279.975491,236.464004 Z M207.559511,240.281524 C207.03371,240.348124 206.432149,240.171314 205.953846,240.411643 L205.667981,240.778295 C202.699754,244.568548 199.312328,248.414894 197.710826,253.187431 C196.990046,254.547158 195.597883,260.198425 198.544651,256.845681 C201.876628,252.400084 204.617018,247.476201 207.88226,242.975854 C207.573286,242.122855 207.368095,241.176711 207.559511,240.281524 Z M84.1053978,225.10435 C84.2160679,232.428671 84.2844648,239.745407 84.2944394,247.069728 C84.4787311,248.509564 83.5660594,251.217167 85.6400543,251.410093 C89.3123528,251.963985 93.2627515,251.253429 96.8818524,252.100977 C97.2770348,252.046702 97.6722171,252.008543 98.0633622,251.985553 C97.9291807,250.733429 97.83181,249.474906 97.7427515,248.219227 C97.6938287,247.528343 97.7570008,246.363438 97.530436,245.447395 C96.3828872,245.744605 95.0679084,245.708343 93.9281968,245.804095 L93.4446544,245.843521 C92.3979344,245.925629 91.3571366,245.980857 90.3166955,245.905061 C89.5237184,246.18497 88.5533367,245.914304 88.2887735,244.841123 C86.6740831,238.314104 85.2840577,231.726884 84.1053978,225.10435 Z M210.44382,20.2539763 C210.638561,20.6988441 210.812879,21.1550884 210.982446,21.6120438 C211.57047,23.1955077 212.141157,24.785608 212.69712,26.3813965 C213.378714,28.3386253 214.046534,30.3008314 214.693455,32.2701477 L215.074599,33.3520549 C216.15727,36.4163597 217.27044,39.468741 218.592556,42.4433291 C233.557713,110.659318 223.335695,181.987723 238.623837,250.169108 C249.326772,252.075143 260.264109,251.327613 270.582073,247.838352 L270.578114,247.660007 C270.503384,244.576324 269.942286,233.255836 269.896204,232.582253 C268.727518,215.572755 266.036288,198.682709 262.940614,181.938425 C259.611524,182.618607 256.215252,182.914682 252.834545,183.193886 L251.84008,183.275891 C250.845953,183.363346 249.925087,183.537498 249.138205,182.802089 C248.20131,181.100357 251.196288,181.037313 252.22533,181.15487 L253.506069,181.167401 C256.638403,181.201655 259.780837,181.275489 262.891454,181.675107 C256.13393,143.453211 245.912624,105.069674 247.741293,65.9345779 C247.757679,65.7572944 247.989707,65.7601386 248.009418,65.9345779 C251.178952,122.908233 269.004906,177.673192 273.66421,234.442545 C284.816712,231.01064 284.988655,216.956419 282.91466,207.270768 C278.859766,184.440066 274.551471,161.657003 270.355271,138.85332 C265.297221,112.361287 261.489316,85.5194275 253.980377,59.5950337 L253.726172,58.7251046 C249.546527,44.4639683 243.955745,27.7396489 228.561649,23.1381513 C222.749333,21.2517885 216.552285,20.625845 210.44382,20.2539763 Z M213.789571,240.13126 C212.708757,240.167285 211.627705,240.197623 210.546653,240.223694 C210.628112,241.469655 211.576882,242.203912 212.264651,243.124222 C212.518528,243.521451 212.396933,244.139336 212.040461,244.45219 C213.494609,245.17033 216.248299,244.737076 216.083006,242.632664 C215.950487,241.205626 214.24745,241.362527 213.789571,240.13126 Z M208.443447,240.264696 L208.20952,240.2692 L208.20952,240.2692 C208.266992,240.364715 208.327315,240.460704 208.390724,240.556693 C208.404736,240.458334 208.42136,240.360686 208.443447,240.264696 Z M153.15069,22.3095643 C154.080936,26.7527912 154.801004,31.2225634 155.381191,35.7103482 C160.88857,37.099227 163.903973,42.3326454 166.839817,46.8521896 L166.897742,46.9622674 C167.562735,48.190839 169.696418,51.1299549 169.524159,52.8506764 C169.89678,52.9938304 170.172506,53.3559818 170.002701,53.8394822 C169.827908,54.3367293 169.527959,54.660485 169.11164,54.8209407 C172.638595,62.7963282 174.43164,71.4976773 175.816204,80.0987712 C177.24494,87.9826727 176.461225,98.2020711 168.509367,102.10373 C170.629198,102.548598 172.791301,102.198297 174.791674,101.430859 C174.176102,97.9944503 178.711674,96.8544321 180.515881,99.3797739 C182.952047,102.918097 178.360902,106.873557 175.404634,103.714213 C175.156696,103.432645 175.092336,103.114104 175.146008,102.820448 C172.165517,104.513648 168.411047,104.254122 165.257187,103.338078 C164.287993,103.618224 163.322836,103.892445 162.344142,104.170458 C165.205855,122.606255 168.936291,140.884421 172.321394,159.223613 L172.628146,160.890986 C177.29505,186.304861 181.27561,211.999829 181.420241,237.916401 C198.232828,236.072937 215.303566,237.08734 232.096204,234.670549 C222.446772,178.061889 228.562599,120.012208 219.364634,63.3578049 C218.742887,67.4120985 217.858477,71.4324995 216.732539,75.3599927 C215.498782,79.881196 213.183735,84.3362735 213.560869,89.1383336 C226.335661,92.0500018 223.501937,110.186009 210.247891,108.390895 C199.145975,107.976128 198.145432,95.4470665 205.639647,90.7938487 C206.428587,89.9370574 207.327722,89.3656263 208.478833,88.9127001 C208.950724,88.7268842 209.509537,88.5138122 210.084024,88.3763464 C209.708553,83.3472306 212.422107,78.9540128 213.699562,74.2664284 C217.348112,62.3711322 218.458612,54.8569663 215.654575,43.3792817 C215.32399,42.3544503 215.057527,41.3011778 214.797951,40.2502753 C212.680258,35.2915515 209.584109,30.8556718 206.629028,26.3937211 C205.34611,36.9181513 201.778545,47.1012871 196.295152,56.0955807 C194.564567,58.5419982 193.301123,61.9627639 190.390453,63.1262461 C187.471708,63.7574038 185.088502,60.2430191 182.865126,58.7204667 C171.08494,48.49301 160.259461,36.4742315 153.15069,22.3095643 Z M237.515902,212.461548 C238.373238,209.686634 241.772899,210.085285 243.447199,211.835604 C245.170185,213.524775 245.251169,216.370554 243.511796,218.093854 C241.193187,220.67276 236.521771,219.191448 236.719125,215.497646 C236.653103,214.640618 237.313561,214.220399 237.72703,213.588294 C237.471016,213.291794 237.348234,212.89812 237.515902,212.461548 Z M238.143824,213.925322 C238.1063,214.035768 238.079701,214.148822 238.066877,214.268749 C238.254494,214.38678 238.409812,214.601511 238.45161,214.797045 C238.581153,215.404578 239.006909,216.284058 239.635069,216.507982 L239.692729,216.526507 C240.739345,216.883444 242.065249,215.118193 240.882314,214.504811 C240.486894,214.298613 240.382161,214.413325 239.928794,214.393891 L239.526882,214.316143 C239.04415,214.222093 238.590541,214.12309 238.143824,213.925322 Z M146.198141,192.190057 C151.997869,192.081506 157.92608,191.497513 163.706097,192.096201 C169.672833,195.621196 131.061428,193.533516 128.747219,193.127826 L128.688285,193.116055 C128.51848,193.096146 128.514918,192.857714 128.688285,192.842782 C134.512,192.339136 140.356852,192.299318 146.198141,192.190057 Z M234.979776,181.701675 C233.246816,178.966106 237.114568,176.173417 238.090887,179.828585 C239.487562,182.206981 234.839657,184.94184 234.979776,181.701675 Z M231.672641,146.757201 C230.321327,145.054758 231.540122,141.701067 233.913116,142.965752 L234.004137,143.029366 C235.218845,143.905207 236.457288,145.873148 235.296254,147.228614 C234.312811,148.234485 232.317425,148.102944 231.672641,146.757201 Z M229.170667,118.819194 C229.069021,117.011993 231.377656,115.387289 232.777893,116.788966 C233.837333,117.757389 233.858707,119.639486 232.938911,120.697499 L232.926799,120.680908 L232.926799,120.680908 C232.560353,121.041874 232.063763,121.193798 231.560285,121.030261 C230.224882,121.497407 229.109394,120.081747 229.170667,118.819194 Z M209.665092,91.0991176 L209.194769,91.3625707 C206.251921,93.0261512 204.737334,94.2127564 203.688672,97.2931376 C202.844159,100.535198 204.424176,103.926337 207.657357,104.818917 C219.665771,108.224988 223.977628,95.4631832 214.284024,91.699701 C212.774541,91.2057721 211.215661,91.2790082 209.665092,91.0991176 Z M156.766466,104.147468 L156.342743,103.999917 C155.184367,103.602982 153.985169,103.290332 153.39293,104.412682 C152.929113,105.291989 153.7855,105.355271 154.449282,105.209036 C155.29332,105.022746 156.000563,104.520047 156.766466,104.147468 Z M179.093557,100.360284 C178.338103,99.3145962 177.276051,99.4179325 176.474762,100.033685 C176.345567,100.354596 176.318256,100.738078 176.437238,101.218498 C176.598969,101.871223 176.952353,102.422272 177.589062,102.661178 C177.769791,102.728963 177.950521,102.753849 178.1284,102.77755 C179.091895,102.659993 179.873472,101.439628 179.093557,100.360284 Z M162.001445,101.931187 L162.078392,102.442892 L162.078392,102.442892 L162.672115,102.292153 L162.672115,102.292153 C162.444363,102.17981 162.222548,102.055854 162.001445,101.931187 Z M155.715813,38.4271942 C156.870487,48.2702206 157.427162,58.1900383 158.13583,68.0916062 C158.871573,78.3645688 160.055932,88.5825451 161.532404,98.7609407 C162.863294,99.7950155 164.311267,100.720066 165.882972,101.341743 C181.649893,95.457732 170.810877,67.495763 167.819223,54.8292361 C167.372268,54.6438943 167.139053,54.2317338 166.9436,53.6586436 C166.71276,52.9812689 166.508282,52.2927548 166.304753,51.6035296 L166.062747,51.1478512 C163.457618,46.2137577 160.926433,40.5825041 155.715813,38.4271942 Z M210.761439,100.000361 C208.948444,98.1059398 212.609818,96.266979 213.502066,98.4512634 C214.411888,100.23429 211.172058,102.570498 210.761439,100.000361 Z M153.448027,37.8405943 C150.445924,37.4708587 147.912149,38.13899 145.854779,39.4958724 C144.896034,40.243639 144.037747,41.1539945 143.31293,42.2238578 C140.866314,45.8356536 140.466144,50.500959 141.339868,54.7100201 C141.365992,54.8346873 141.368366,54.9648058 141.35198,55.0916062 C142.219291,55.3447329 142.286738,56.9582972 141.272421,57.1879599 L141.12969,57.2171121 L141.12969,57.2171121 C143.722599,71.1675223 148.601818,84.9250064 158.08572,95.5499289 C155.312556,76.4400474 154.606025,57.1019253 153.448027,37.8405943 Z M228.262246,87.1409079 C230.557581,85.0466873 233.822823,89.9774439 230.831169,91.1340529 C228.699226,91.9782826 226.262585,88.6828952 228.262246,87.1409079 Z M224.342388,58.6824503 C224.46992,58.4255314 224.816892,58.6167985 224.769632,58.8670811 L224.734066,59.0680828 C224.699214,59.2781587 224.659738,59.5551844 224.628563,59.8656044 C227.215773,58.4423592 229.813194,61.534866 227.663678,63.8068441 C226.514704,64.9793327 224.568953,64.7776372 223.846986,63.2332799 C223.178453,61.8019763 223.683355,60.0104175 224.342388,58.6824503 Z M226.337774,61.4670811 C225.810919,61.2751326 225.184437,61.6570493 224.825381,62.0452635 L224.791481,62.0828332 C224.766545,62.1112744 224.739946,62.1363974 224.712397,62.1584394 C225.204712,64.2917666 227.78551,62.3281386 226.337774,61.4670811 Z M155.663566,10.6685798 C152.167959,12.0868478 149.873337,15.5462461 149.323074,19.2955077 C149.182718,22.6029827 149.482904,25.9230191 150.402463,29.0970574 C150.46611,29.5554348 150.643752,30.0308769 150.853218,30.5120073 C151.188553,30.5876135 151.501327,30.8013965 151.721004,31.1986253 C152.302378,32.2495278 152.798256,33.3293455 153.203176,34.451825 C152.887077,30.2463191 152.509944,26.0462644 152.023328,21.8554531 C150.350453,21.6814877 151.13678,19.0703482 151.559511,18.1159088 C151.607484,17.8329189 150.900478,14.8842771 151.411081,15.4218159 C151.595135,16.06435 151.775864,16.7085433 151.953506,17.3539216 C153.38058,15.2639672 154.636662,13.0187712 155.663566,10.6685798 Z M202.195576,16.4985524 L202.343822,16.6726231 C202.3686,16.7015647 202.393642,16.7303482 202.419291,16.7587894 C203.16002,17.1107493 203.56019,18.1462461 204.266483,18.6444412 C205.357035,19.7899107 209.487213,21.7663373 207.796763,23.6353984 C209.04287,25.4741222 210.249554,27.3308587 211.469299,29.1717156 L211.386178,28.9183519 L211.386178,28.9183519 C210.898612,27.4505488 210.39371,25.9886709 209.908757,24.5203938 C209.454677,23.1452616 209.088468,21.6902571 208.466246,20.3819617 C208.42516,20.2954531 208.378612,20.2160547 208.334202,20.1333382 C207.782277,20.1037119 207.231064,20.0750337 206.681988,20.0468295 C206.509096,20.0380602 206.510758,19.7849335 206.681988,19.773557 C207.143668,19.7432197 207.605822,19.7131194 208.067739,19.6839672 C207.452166,18.7494366 206.615729,18.0986071 205.539427,17.6587165 L204.815705,17.3606112 C203.962304,17.0109798 203.079802,16.670174 202.195576,16.4985524 Z" id="ðŸ–-Ink" fill="#000000"></path>
                </g>
                <g id="Head" stroke-width="1" transform="translate(95.945717, 42.661805)">
                    <g id="head/Short-1">
                        <path d="M57.360939,17.8372836 C70.8172912,17.8372836 84.7355854,28.2685678 89.6681655,34.9250481 C95.3717149,42.6219457 99.8709151,79.5710209 97.7602429,92.1086494 C95.6495707,104.646278 85.1653866,118.311558 66.9650371,118.311558 C48.7646877,118.311558 37.688519,116.069589 37.2443931,112.813093 C36.9483091,110.642095 32.9468433,103.514463 25.2399956,91.4301969 C17.357742,89.2129731 13.4011055,85.4562666 13.3700859,80.1600776 C13.339509,74.8638885 15.4515283,71.2523403 19.7061439,69.325433 C18.1891651,48.4244272 19.3409417,35.2531154 23.1614737,29.8114978 C28.8922718,21.6490714 43.9045869,17.8372836 57.360939,17.8372836 Z" id="âœ‹-Skin" fill="#D08B5B"></path>
                        <path d="M50.5097833,14.6947768 L50.7496602,14.6958304 C65.6383144,14.7920328 80.7808805,21.6437346 89.6386666,33.612746 L89.9051539,33.977008 C89.9196102,33.9959688 90.1846,34.390555 90.247266,34.503009 C90.6144657,35.1619475 91.0469093,35.7784728 91.3787086,36.4486108 C91.6587857,37.0174348 91.8450468,37.6528567 92.0509115,38.2587192 L92.1133725,38.439495 C92.6420935,39.951619 93.0873947,41.4779635 93.4810323,43.0303792 C94.2438979,46.0522571 94.8387387,49.1215369 95.4172273,52.1837065 C97.4838667,63.1487989 98.8351943,74.2705432 99.5160907,85.4067307 L99.6504779,87.6459456 C99.7878462,89.968368 99.8917369,92.3007855 99.6308804,94.6156117 C99.3296682,97.3104157 98.5549533,99.8393127 97.3818608,102.280516 C96.3009569,104.532111 94.9074653,106.617799 93.3127706,108.535211 C92.4596125,109.561464 91.5543169,110.559276 90.4404716,111.310361 C89.5538981,111.907863 88.518259,112.3013 87.520538,112.680516 C85.8974047,114.301665 83.8142769,115.527006 81.7785469,116.505858 C78.4227916,118.115156 74.7850202,119.003943 71.1045909,119.449522 C67.3412157,119.901974 63.5399223,119.793187 59.8073555,119.146149 C56.2406806,118.529923 52.4178213,116.953807 50.2211761,113.95089 C50.0315855,113.692549 50.3844611,113.448428 50.6167097,113.555083 C56.9919337,116.505858 64.155855,117.27614 71.1045909,116.344691 C74.3463547,115.910963 77.5362181,115.015065 80.4964398,113.623816 C82.9942972,112.450616 85.1008868,110.744144 87.3427967,109.198839 C87.7790923,108.618164 88.2196537,108.04697 88.722306,107.516067 L89.5064607,106.693672 C90.0925923,106.07593 90.6681081,105.449887 91.1914878,104.773861 C92.8079854,102.690543 94.1467327,100.327553 95.0309363,97.8413181 C96.750429,93.0017088 96.2854099,87.7483284 95.9815263,82.704741 L95.9551909,82.2602789 C95.6423662,76.8659307 95.1326043,71.4905433 94.4266159,66.1341167 C93.7201536,60.7705798 92.8219677,55.4283737 91.7604968,50.1240893 C91.2367525,47.5098687 90.6487844,44.9122388 90.1300169,42.2980182 C89.861983,40.9494312 89.6749992,39.5818833 89.4711892,38.2190757 C89.3477183,37.3895406 89.3500882,36.5908168 89.3477183,35.7802425 C89.3242564,35.8181641 89.2955808,35.8537156 89.2671422,35.8892671 C89.352695,36.0907256 89.2934479,36.3490665 89.0848982,36.4675716 C88.2957269,36.9178906 87.3856916,36.7662042 86.4969852,36.7685743 C85.5535345,36.7733145 84.6103208,36.7756846 83.6671072,36.7780547 C82.6847904,36.7816098 81.7024736,36.7816098 80.7201568,36.7801285 L77.7732065,36.7733145 L65.9854052,36.737763 C58.265647,36.7146132 50.4149805,37.0215905 42.7200505,36.2938048 L42.1325598,36.2357967 C41.5279292,36.1661589 34.7039446,35.3315848 32.8585661,35.1160369 L32.8025313,35.1095041 C29.4299499,34.7208077 26.1052401,34.1448733 22.827691,33.2821568 C23.8986414,33.7111449 24.9297778,34.2894494 25.9912487,34.727918 C27.3612784,35.2920018 28.7663824,35.7849827 30.1719604,36.2566326 C33.0561088,37.2260036 35.94476,38.1669335 38.817059,39.1671158 C39.6405699,39.4533765 41.5118611,46.5086706 41.9835793,47.6248232 L41.9974429,47.6568149 C42.2368011,48.1948277 42.5664519,48.7849827 42.3837339,49.3964686 C41.9810907,50.7474257 39.8455885,51.747608 38.7864875,52.5107803 L37.6974075,53.2967648 L37.6974075,53.2967648 L36.27322,54.3272339 C35.6890463,54.745693 35.1497264,55.0658731 34.3853766,54.8263683 C34.3830067,54.8239982 34.3808738,54.8239982 34.3785039,54.8239982 C35.0325918,57.8600966 35.3501562,67.6794221 35.4473215,69.402485 C35.5324003,70.9027584 35.9731986,72.8249098 35.2717131,74.1924576 C35.1058212,74.5171613 34.6747394,74.7731322 34.3071704,74.7470611 C32.7051291,74.626186 31.1033247,74.5076809 29.5012834,74.3891759 C29.0720974,74.3559945 28.6810666,74.1118742 28.5625725,73.6757758 L28.5578327,73.6520747 L28.5578327,73.6520747 C28.5059322,73.6662954 28.4466851,73.6568149 28.3969176,73.6046727 C28.3092319,73.516979 28.2191763,73.4316554 28.1265139,73.3487019 C26.0175544,71.4668423 22.7186764,71.0023026 20.1163071,71.9811541 C18.7514911,72.4930957 17.1992173,73.3558122 16.2368076,74.4744995 C15.16799,75.7164321 14.9383483,77.4513455 14.9357414,79.0369426 C14.9310017,82.0943719 16.0356044,85.1897229 18.2891268,87.3109626 C20.3599148,89.2581389 23.0318428,89.8248426 25.7200203,90.3821294 L26.0080749,90.4418651 C26.6216377,90.5698505 26.8162052,91.4847092 26.3540779,91.8686655 C27.5840475,93.0726764 28.6457554,94.5089572 29.6813945,95.8338432 C31.0565195,97.5914701 32.3717045,99.4188009 33.6510451,101.250115 L34.2686729,102.135992 C36.469621,105.277335 39.6553817,109.604221 38.2698529,113.531382 C38.085002,114.059914 37.3124199,114.249522 37.0112077,113.694919 C36.0229662,111.869942 35.4707833,109.860097 34.5323094,108.013789 C33.6106616,106.203032 32.4636379,104.525001 31.3258568,102.84697 L30.6696349,101.874527 C29.5770472,100.250459 28.4946358,98.6088356 27.491385,96.9359398 L26.7927963,95.777616 C26.1364024,94.683839 25.4867129,93.5535573 25.0030072,92.378237 C21.768116,93.158 18.2512087,91.4230866 15.9784903,89.1122388 C13.1206476,86.2017557 11.7769235,81.9142443 12.1463884,77.8827037 C12.3409558,75.7733145 12.9642352,73.7326582 14.5091624,72.215794 C14.6655747,72.0641076 14.8293337,71.9195314 14.9975954,71.7749553 C14.9383483,71.744144 14.8885808,71.696742 14.8646449,71.6398596 C13.8290058,69.1796955 13.6086066,66.2478815 13.5209209,63.5981094 C13.4287324,60.8582735 13.4879795,58.1113273 13.6962923,55.3762315 C14.0780806,50.3610994 14.9831391,45.3720383 16.4195256,40.5512543 C18.5450742,33.4267329 22.1973019,26.4515278 28.0319555,21.6710356 C34.253803,16.5723099 42.5895607,14.6815579 50.5097833,14.6947768 Z M19.5383636,77.0105068 C20.4170237,76.6117117 21.7878323,77.3220529 22.5700792,77.77471 L22.6213452,77.8044904 C24.9319818,79.1483373 26.576918,81.4378541 27.3374137,83.9738614 C27.8256097,85.6092306 25.0836543,86.2610082 24.8514057,84.6588204 C24.662052,83.3528952 24.2257565,82.1299234 23.5079187,81.0373072 C23.3370501,81.0941896 23.1711582,81.1676627 23.0220926,81.2624667 C22.4509506,81.6322024 22.1189299,82.2673892 21.3252559,82.1725852 C20.7372877,82.1038523 20.1353373,81.6961951 20.1756253,81.0230866 C20.2398491,79.9115096 21.1354282,79.4683008 22.095468,79.4114184 C21.9584295,79.2887657 21.8201912,79.1674462 21.6786537,79.0504595 L21.5236979,78.9259557 C21.3480341,78.7990663 19.4700179,77.5036594 19.4160085,77.8368279 L19.4148926,77.8566326 C19.4172625,77.9893582 19.2395213,78.0652015 19.1494657,77.9656572 C18.7868735,77.5769608 19.1236339,77.2001149 19.5383636,77.0105068 Z" id="ðŸ–-Ink" fill="#000000"></path>
                    </g>
                    <g id="facial-hair/*-None" transform="translate(29.211196, 80.109389)"></g>
                    <g id="face/Smile" transform="translate(37.760814, 44.083865)" fill="#000000">
                        <path d="M34.8127554,57.1020091 C33.2162863,56.4520445 31.7918322,55.3678606 30.7504188,53.982886 C30.3883575,53.5014119 30.2944812,52.9929828 30.3704337,52.5279595 C30.455837,52.0050735 30.76581,51.5311704 31.1885437,51.2132909 C31.6125868,50.8944267 32.1430108,50.7371707 32.6558203,50.8173353 C33.1014216,50.8869936 33.5449965,51.1304783 33.8960529,51.6354567 L33.9693973,51.7364404 C34.5885356,52.5723634 35.3953297,53.2582283 36.3146153,53.7003078 C37.2006572,54.1264007 38.1916054,54.3252746 39.2170751,54.2096253 C41.1701484,53.9894475 42.5163047,52.9353366 43.947122,51.5038717 C44.124476,51.3231456 44.3019435,51.136754 44.4802714,50.9473621 C44.592889,50.7756793 44.7491739,50.6653386 44.9226927,50.6074447 C45.1153544,50.5431638 45.3332998,50.5468008 45.5329212,50.6163236 C45.7254569,50.6833787 45.8975743,50.8104452 46.0129836,50.9795623 C46.1226707,51.1402944 46.1848601,51.3388571 46.1646812,51.5672535 C46.033716,53.0507326 45.2565672,54.3746744 44.1526598,55.4142485 C42.9266296,56.5688282 41.301437,57.3675742 39.7713893,57.6477194 C38.0857258,57.9563102 36.3680798,57.7352226 34.8127554,57.1020091 L34.8127554,57.1020091 Z M40.5665861,34.2164632 C42.3599585,35.3043501 45.0925072,37.84109 43.1632513,40.538094 C40.8923326,42.9161315 37.6227224,40.1895491 36.0115152,38.956422 C34.5175283,38.0007416 32.8389503,40.45868 34.2250722,41.574598 C45.8676895,50.1769329 50.5925102,34.5009305 41.4736488,32.937375 C40.4696294,32.7650779 40.0967341,33.8799135 40.5665861,34.2164632 Z M19.7029042,24.2097211 C19.9010483,21.7551799 23.6468906,21.1977976 24.0195115,23.6266764 C24.3531841,25.8024284 23.9603766,27.801134 22.9783579,29.7600219 C22.0400373,31.6314531 19.6816447,30.7583423 19.5032902,29.0542402 C19.2642133,26.7699622 19.5796472,25.7365862 19.7029042,24.2097211 Z M48.21676,23.1230538 C48.7389992,22.4404649 49.493028,21.9745032 50.3964377,22.2378213 C53.2189992,23.0609572 52.3870738,27.0600273 51.395793,29.0065907 C50.8571671,30.0636554 49.1161323,30.3317138 48.3293299,29.4009754 C47.0468872,27.8831632 46.4327396,24.8520419 48.0631043,23.3569827 C48.1072774,23.2797174 48.1564377,23.2017411 48.21676,23.1230538 Z M22.9386022,13.4693984 L23.3844579,13.391518 C24.7637486,13.1534545 26.4787379,12.9247019 27.4544631,14.0313491 C27.9719525,14.618186 28.1500696,15.7089061 27.4544631,16.2706199 C26.2309177,17.2589517 24.8781781,16.8759435 23.4119186,16.959608 C22.2035725,17.0288149 21.0422494,17.2283774 19.8783138,17.5604284 C17.3248278,18.2887603 15.2441832,19.6183865 13.0633181,21.0783683 C12.7771433,21.2698724 12.4850314,20.9046399 12.6215878,20.6375296 C13.8805191,18.1766545 16.3202477,16.155196 18.7640136,14.9229809 C20.0683053,14.265278 21.4956166,13.7196809 22.9386022,13.4693984 Z M45.6437704,12.3670381 L45.985026,12.4367382 C49.6987038,13.2114312 54.5236407,14.7589441 56.2822463,18.3992889 C56.3492573,18.9140465 56.2784539,19.0243694 56.220878,19.0964481 L56.2017082,19.1204334 C56.1542656,19.1819844 56.11641,19.266832 55.8928405,19.3368914 C55.8308,19.3221394 55.7681419,19.3065151 55.7048201,19.2899543 C54.8987061,19.0791278 54.2609139,18.7886846 53.6434635,18.4873151 L52.9739907,18.1581557 C52.1972684,17.7780821 51.4136883,17.4118413 50.5832732,17.1414685 C48.8110962,16.5645992 46.9882598,16.1582307 45.137182,15.9412392 C44.7359752,15.8942481 44.3496381,15.7591142 44.044846,15.5275167 C43.7555371,15.3076842 43.5345237,15.003321 43.433754,14.598756 C43.3031565,14.0751843 43.3406874,13.6787976 43.6221743,13.2064592 C43.8338352,12.8517432 44.1366879,12.6058787 44.4844395,12.4646949 C44.8389572,12.3207642 45.2425721,12.2868326 45.6437704,12.3670381 Z" id="ðŸ–-Ink"></path>
                    </g>
                    <g id="mask/medical-mask" transform="translate(5.462256, 66.599818)">
                        <path d="M93.3944631,16.6751249 C92.9467956,11.0146144 85.7948024,8.61678396 82.2324614,7.90575387 C70.370341,5.12278213 60.2784665,12.2629462 46.1340729,12.4089444 C44.7065242,12.4312233 40.6240814,12.1908952 38.7255912,11.690567 C29.0932587,9.50628259 19.4709008,7.18287329 10.0197727,4.31813309 C8.63022222,4.64283683 8.21912807,6.45288241 9.17312299,7.48411304 C18.2252689,10.6877776 32.0739881,13.5565469 39.3872366,13.8831468 C39.2468804,23.3114057 34.2596031,32.7918067 27.3724105,38.0060273 C38.326134,50.0947238 63.872631,54.07033 78.9071349,47.7248605 C86.3027922,45.5097648 94.1069313,25.6815059 93.3944631,16.6751249" id="ðŸŽ¨-Color" fill="#FFFFFF"></path>
                        <path d="M9.25546056,4.60346946 C8.84816624,4.58758979 9.08565564,3.40253965 10.0030772,3.5715278 C21.8404987,6.33435369 36.5885903,11.5969243 48.7558846,11.5582917 C57.7066226,11.2658213 65.726877,6.29098086 74.7270127,6.26088058 C80.7770551,6.37654148 88.4916607,7.23522881 92.7256217,12.0801878 C98.3101849,29.7559216 85.7344088,53.7972707 65.9475047,53.9363956 L62.2023513,53.6659718 C49.4364464,52.7273596 35.4510969,51.225629 27.2227209,40.4168696 L27.1585988,40.471856 L27.1585988,40.471856 C25.9281662,39.6480091 25.9968007,37.8687748 27.0424665,36.9536791 L27.0735776,37.0025032 L27.0735776,37.0025032 C27.0935267,36.9702698 27.1156132,36.9394585 27.1369873,36.9079362 L27.1236879,36.8664594 L27.1236879,36.8664594 C27.5259949,36.4450556 27.9833995,36.0509079 28.3992434,35.698 L28.4013808,35.7048733 L28.4013808,35.7048733 C34.579905,30.5676809 38.6141374,22.7996773 38.846402,14.755794 C36.8009059,15.3165597 2.43476506,8.20625889 8.56935369,6.47110848 C12.9572078,7.95147311 17.3709483,9.28844667 21.8737472,10.3526217 C21.9492689,10.3101969 22.057564,10.3213364 22.0991247,10.4050009 C27.6074538,11.7578541 33.2269279,12.5309809 38.8537642,13.1569243 C38.847827,12.888629 38.8376149,12.6203336 38.8238405,12.3515643 C28.8188872,10.407845 19.0105751,7.52201094 9.25546056,4.60346946 Z M90.2685564,11.777052 C69.747335,1.43132726 59.5609398,16.7158669 39.7141883,12.5075169 C41.7905581,21.75233 36.6633995,31.7188387 29.6994979,37.7592762 C39.8179712,46.499258 44.1972757,47.822722 57.4705581,49.241227 L59.2045637,49.4472843 C61.8116818,49.7554173 64.4432684,50.042838 67.0584801,50.0878268 C80.6238745,49.1025761 90.8741544,35.0175442 92.4080984,22.2557393 L92.4164119,21.9032021 C92.48517,18.6644331 92.3361058,15.2361593 90.8983783,12.2690848 C90.6335776,12.1771249 90.4034504,12.0114549 90.2685564,11.777052 Z M61.6994843,19.8983665 C62.4086277,19.7390957 63.1322578,20.5112744 62.692665,21.187464 C61.2722409,23.3738815 57.7984835,24.2209553 55.3689669,24.5646199 C52.55543,24.9625597 49.8281018,24.6487584 47.1553961,23.6910009 C47.01219,23.6395697 47.022402,23.386917 47.1938694,23.4072999 C49.7316811,23.7087767 52.3478643,23.4881203 54.8137167,22.817856 C57.3140051,22.3317484 59.3329025,20.6722042 61.6994843,19.8983665 Z M80.9810035,18.3234585 C80.9692316,17.9079799 83.0159152,19.1100948 83.3396132,19.2719727 C85.8394266,20.769876 88.7329975,20.8796117 91.4900119,21.4676335 C92.1326582,21.71365 92.1317082,22.5289644 91.4897744,22.7749809 C88.0487905,23.6881805 82.8266361,21.2915351 80.9810035,18.3234585 Z" id="ðŸ–-Ink" fill="#000000"></path>
                    </g>
                    <g id="accessories/Glasses-5" transform="translate(11.162002, 57.119417)" fill="#000000">
                        <path d="M87.1798643,17.6412015 C86.5082443,19.4652306 85.4860899,21.364155 84.2361832,22.8992689 C79.179084,27.1730337 74.2651908,24.8067256 71.7701272,19.0144376 C70.8220696,14.9210374 73.3392197,10.5117028 76.0064631,7.50049043 C79.8585411,3.64741841 86.145123,5.66958797 87.9163189,10.2500438 C88.0239016,10.8435169 88.0889737,11.4355679 88.1200848,12.0257229 C88.083274,13.943371 87.8517218,15.5822954 87.1798643,17.4041914 M38.5705344,13.9625688 C45.2325869,6.05425524 57.6960305,5.63142935 57.3780322,17.8030793 C55.9469211,33.2096791 31.8486344,29.4281841 38.5705344,13.9625688 Z M89.2752332,7.36539471 C89.0417812,6.97077302 88.7826802,6.58894986 88.4998304,6.22371741 C88.395335,6.16162078 88.3352502,5.61080948 87.9509924,5.57004376 C82.8148092,-0.0847784868 73.7918745,3.12362625 70.53162,8.75830264 C69.9362341,9.47075479 69.4505683,10.3047931 69.0924343,11.1859964 C65.8801527,10.5979745 62.1351824,10.7122133 59.1475657,11.9230975 C56.185123,4.20320693 47.2163359,3.51398177 41.3059372,6.81245032 C37.6298388,8.61680766 35.2461578,12.3954585 31.6709924,14.4711923 C23.2664801,15.0748569 14.2463953,13.1956044 5.99363868,15.2995424 C-0.514995759,16.6500255 4.92588634,19.9390137 6.01738762,17.7440638 C13.7982528,15.4498067 23.0164037,17.3885488 31.0950806,16.8716299 C31.9350806,18.2896609 33.5459712,19.450062 35.1513995,19.4005269 C36.8853096,34.7400529 59.3005089,32.1964613 60.0737744,18.5605634 C60.9508227,17.1766618 62.0416115,15.8522498 63.6028668,14.9900073 C64.2006277,14.8665251 64.7779644,14.7060693 65.3056658,14.4576828 C66.2076506,14.3306454 67.5974385,14.7122315 68.4272265,15.4616572 C71.2697371,32.4827694 87.6458185,30.5004175 90.5724003,15.5891686 C90.6305852,15.5299161 90.7932655,15.3076007 90.9181849,14.9509006 C91.9199152,13.6290957 94.3722307,13.1377739 93.9803732,10.9063245 C93.6315013,8.67440109 90.8072774,8.70094622 89.2752332,7.36539471 Z" id="ðŸ–-Ink"></path>
                    </g>
                </g>
            </g>
        </g>
    </g>
</svg>