<?xml version="1.0" encoding="UTF-8"?>
<svg width="225px" height="697px" viewBox="0 0 225 697" version="1.1" xmlns="http://www.w3.org/2000/svg" xmlns:xlink="http://www.w3.org/1999/xlink">
    <!-- Generator: Sketch 62 (91390) - https://sketch.com -->
    <title>doc-nurse-7</title>
    <desc>Created with Sketch.</desc>
    <g id="Introduction" stroke="none" stroke-width="1" fill="none" fill-rule="evenodd">
        <g id="doc-nurses-covid-19" transform="translate(-168.000000, -166.000000)">
            <g id="a-person/standing" transform="translate(133.000000, 122.000000)">
                <g id="pose/standing/doctor-nurse-01" transform="translate(-28.736217, 150.264357)">
                    <path d="M107.698307,589.194983 C99.7530992,589.194983 91.7938796,587.668164 84.0970857,586.19017 L83.8225479,586.128547 C80.6133537,585.407799 77.2949143,584.66264 74.3721323,583.261911 C70.8618015,581.516806 68.2009703,578.200325 66.8981035,573.932248 C65.3508601,568.862129 65.8966107,562.966979 68.3216149,558.53181 C68.8445666,557.726924 69.3713181,556.922749 69.8985445,556.1181 C74.8416489,548.573597 79.9533707,540.771701 82.3289771,531.626906 L83.182039,528.343132 L80.2680441,529.973761 C80.2390704,529.989641 80.202497,530.004809 80.1322002,530.004809 C79.5624631,530.004809 78.2845327,529.157025 76.8125734,527.297207 C70.8698762,517.777699 71.6329296,505.870315 72.3710466,494.353761 C72.5619881,491.372175 72.7595793,488.290097 72.8256014,485.352357 C75.0855505,456.235675 81.5830229,425.159395 93.2724885,387.565812 C101.985737,364.42439 106.12304,339.804026 110.123311,315.99542 C111.595746,307.230789 113.118528,298.168237 114.847213,289.317572 L115.214846,287.433816 L112.90645,287.612521 C112.059087,287.679595 111.183226,287.749276 110.359138,287.749276 C107.921072,287.749276 106.570707,287.124992 105.698409,285.595566 C101.409113,278.00532 100.904685,268.942768 100.416882,260.178848 C100.284126,257.794053 100.146857,255.328201 99.9350161,252.938428 L99.8191213,251.636295 L98.5411908,251.612594 C98.2785276,251.608091 98.0156268,251.599796 97.7529635,251.5915 L95.9755929,251.534855 L96.2449059,252.979431 C96.0477897,253.019486 95.7259915,253.05883 95.2194266,253.05883 C94.3962884,253.05883 93.4190195,252.957389 92.556933,252.867562 C91.7751179,252.786505 91.099698,252.71635 90.5565598,252.71635 C90.3603936,252.71635 90.1879763,252.725593 90.0324207,252.744791 C89.6320136,252.757353 89.2484682,252.763752 88.8922341,252.763752 C86.2682137,252.763752 84.6694351,252.418902 84.0044648,251.709531 C83.1734894,250.823114 83.2608855,248.695949 83.3815301,245.752521 C83.4076539,245.117335 83.4354402,244.443041 83.4563393,243.728219 C83.5363732,241.060671 83.5705717,238.349276 83.6035827,235.727471 C83.6769669,229.93068 83.7524885,223.936696 84.3310127,218.108383 L84.3500119,217.919012 L84.3205632,217.731063 C76.0048719,164.480124 81.3531332,110.629787 86.9419712,69.6644995 C87.0364919,68.9691121 87.1298253,68.2727767 87.2229211,67.5759672 C88.1643291,60.5391395 89.1380356,53.2626946 91.6587481,46.6119562 C94.6943376,38.5583555 99.3538796,33.0725214 106.324193,29.3441167 C112.608638,25.9830775 119.931148,24.4726126 127.683515,22.8735059 C134.651454,21.4362771 141.856645,19.9499872 148.644092,16.9954202 L149.161581,16.7695497 L150.087077,16.516186 C150.705262,16.3471978 151.300885,16.1310447 151.876797,15.9220018 C152.743159,15.6077265 153.561072,15.31099 154.347399,15.2090757 L155.06058,15.1164047 L155.411589,14.4748186 C156.950283,11.6615096 158.145567,8.63038833 158.963956,5.46535643 L158.996729,5.33903008 L159.006941,5.20867457 C159.075576,4.32889335 159.075813,3.46238469 159.075813,2.62479125 C159.076051,1.55540201 159.076051,0.545265269 159.21142,-0.439037375 C159.785669,-4.02096992 161.707671,-6.81982133 164.923515,-8.75832634 C167.752251,-10.4631395 171.504109,-11.4024102 175.487993,-11.4024102 C177.205754,-11.4024102 178.891691,-11.2296299 180.499257,-10.8897575 L180.565279,-10.8757739 L180.632489,-10.8681896 C183.513235,-10.5451449 188.755338,-9.34326709 191.493829,-4.92160802 L192.118663,-3.91313036 L192.989774,-4.25513582 C193.083583,-3.8526928 193.142718,-3.22035005 193.179053,-2.83497174 C193.246025,-2.12086053 193.309198,-1.44632999 193.514863,-0.891015497 C193.938545,0.2978268 194.278629,1.58716135 194.554592,3.05093528 L194.767383,4.18005105 L194.999647,4.1907165 C196.211081,9.88891158 198.300037,14.3333236 201.369588,17.745794 L201.609215,18.0117192 L201.869978,18.1062862 C201.946925,18.1835515 202.079206,18.3636791 202.170165,18.4876354 C202.342819,18.7229863 202.538273,18.9889116 202.788112,19.2299508 C203.471606,19.9265232 204.218986,20.4799417 204.942141,21.0151103 C205.086534,21.1222388 205.232353,21.2303154 205.380071,21.3409991 L205.600224,21.5061951 L205.864787,21.5765871 C206.457323,21.7337247 207.001174,21.7600328 207.480665,21.7832598 C207.896509,21.8034057 208.25583,21.8207074 208.548892,21.9195406 L208.743159,21.9851923 L208.947162,21.9920656 C209.028858,21.9949098 209.111267,22.0051012 209.194388,22.0138706 C209.362056,22.0318833 209.552285,22.0522662 209.766738,22.0522662 C209.985941,22.0522662 210.187569,22.0306983 210.38231,21.9861404 L211.432014,21.7469973 L211.477612,20.9475624 C213.013455,20.8769335 214.577323,20.8309535 216.144753,20.8309535 C223.404567,20.8309535 229.073676,21.8572069 233.983532,24.0602151 C251.394592,32.6053747 257.413998,60.8406162 261.80874,81.4588295 C262.546619,84.920835 263.243651,88.1908624 263.948519,91.1703154 C267.708214,110.777681 271.408299,130.741984 274.986076,150.047872 C278.318765,168.029112 281.764499,186.622312 285.252268,204.891993 C287.307976,215.081054 288.427739,226.438811 281.1684,233.536077 L280.061225,234.618264 L281.195949,235.670115 C281.896543,236.319759 281.698239,238.10326 281.538884,239.536222 C281.491623,239.961418 281.446738,240.363624 281.421564,240.748766 C280.628824,248.751646 279.152353,255.228893 276.907841,260.549768 C274.01047,267.419978 269.805483,272.210188 264.410436,274.787435 L263.751165,275.102421 L263.613897,275.833597 C263.48399,276.525903 262.132913,277.089276 260.602056,277.089276 C259.677747,277.089276 258.800699,276.891136 258.195813,276.545812 L256.573048,275.61934 L256.119681,277.463278 C245.728095,319.710078 241.52477,362.737827 238.410334,414.345812 C238.127009,418.982439 237.866958,423.711026 237.61522,428.283898 C236.070114,456.360106 234.47276,485.392175 226.539664,512.714691 L226.30075,513.536642 L226.887349,514.14955 C231.171657,518.62501 236.931013,520.774691 242.500852,522.853506 L242.953269,523.022494 C254.79449,527.34769 265.740852,534.197991 274.618443,542.836769 L274.649554,542.866159 C282.535152,550.093542 285.915813,557.959194 283.692438,563.907198 C281.631267,569.421236 274.813184,572.583661 264.986348,572.583661 C264.985635,572.583661 264.792081,572.583187 264.792081,572.583187 L264.715135,572.591719 C260.075304,573.096788 255.243345,573.352758 250.352964,573.352758 C229.220682,573.352758 208.581428,568.575584 192.961751,564.413688 L192.91639,564.402786 C188.2122,563.315858 183.857357,560.615366 180.65315,556.798319 C177.365584,552.881728 175.594863,548.086304 175.666823,543.294673 C175.730232,538.162458 177.825839,531.977918 182.364974,529.721108 L185.508146,528.158975 L182.193506,527.027015 C180.322802,526.38851 179.498239,524.452376 178.543769,522.210024 C178.153099,521.293032 177.749605,520.345229 177.253489,519.47872 C173.239681,510.783296 170.12097,501.288438 167.983566,491.255566 L167.970266,491.198447 C161.876051,467.272995 165.952081,442.869021 169.894405,419.26851 C173.32399,398.734199 176.870656,377.500944 173.844804,356.409422 L171.056441,356.25181 C166.784482,372.945138 163.730843,390.5346 160.777662,407.544809 C157.19846,428.162786 153.49695,449.48326 147.585601,469.519851 C140.972234,491.935074 132.240699,510.288893 120.891793,525.630078 L120.290232,526.443023 L120.830283,527.299814 C120.878969,527.377553 120.89868,527.427562 120.906042,527.451737 C120.779461,527.713871 119.909062,528.268237 118.816373,528.41542 L118.212675,528.496241 L117.852879,528.998939 C116.048672,531.517881 118.149503,534.722494 119.404397,536.637061 C119.622887,536.97006 119.829028,537.284809 119.975321,537.533907 C121.715169,540.492029 123.30896,543.481674 124.503532,545.755785 L124.931488,546.546924 C128.152319,552.491136 132.160902,559.88893 133.717408,567.006341 C135.466517,575.004481 133.759444,581.065539 128.498341,585.534126 C126.362599,587.153141 123.791539,588.081036 121.438731,588.081036 C120.84857,588.081036 120.266958,588.023679 119.710283,587.910151 L119.405347,587.847818 L119.102785,587.921765 C115.580343,588.778319 111.849859,589.194983 107.698307,589.194983" id="ðŸ‘•-Clothes" fill="#8FA7DF"></path>
                    <path d="M150.902757,16.4978432 L150.941001,16.4985524 C152.021865,16.4985524 152.53501,17.2802935 152.480436,18.8437757 L152.476896,18.9298318 L155.013709,37.7397394 L159.654815,94.7025912 L168.092814,142.68714 L168.819098,146.983316 C176.527627,192.666105 180.381892,218.288058 180.381892,223.849175 L180.380568,224.554832 C180.359387,230.341561 180.084042,239.52361 179.554532,252.100977 L178.952471,252.292986 C173.256105,254.09628 169.184078,254.997927 166.736389,254.997927 L166.580949,254.997927 C164.041034,254.960827 157.759086,254.070706 147.735104,252.326429 L146.445716,252.100977 L138.077951,253.748197 L132.667904,251.191878 L127.120535,240.953453 L98.0633622,243.905644 L98.6134644,251.613868 L98.5411908,251.612594 C98.2785276,251.608091 98.0156268,251.599796 97.7529635,251.5915 L95.9755929,251.534855 L96.2449059,252.979431 L96.1632351,252.994649 C96.0605563,253.012175 95.9314805,253.028577 95.7706557,253.040412 L84.4448341,252.051472 C84.2685636,251.948797 84.1219418,251.834853 84.0044648,251.709531 C83.2513933,250.906216 83.2525704,249.083887 83.3492048,246.558488 L83.420894,244.770233 C83.4337184,244.432909 83.4458897,244.08563 83.4563393,243.728219 C83.5274805,241.357065 83.5624061,238.951267 83.5924738,236.604541 L83.6195231,234.482416 C83.6903221,229.075242 83.7938117,223.520388 84.3310127,218.108383 L84.3500119,217.919012 L84.3205632,217.731063 C76.0048719,164.480124 81.3531332,110.629787 86.9419712,69.6644995 L87.0829805,68.6207666 L87.0829805,68.6207666 L87.4153113,66.1417135 C88.3034677,59.5553789 89.3089314,52.8117971 91.6587481,46.6119562 C94.6943376,38.5583555 99.3538796,33.0725214 106.324193,29.3441167 C112.159749,26.2231517 118.890372,24.697835 126.029095,23.2155216 L129.522218,22.4931974 C135.912308,21.1642266 142.452035,19.6908147 148.644092,16.9954202 L149.161581,16.7695497 L150.087077,16.516186 C150.190268,16.4879774 150.292831,16.4584546 150.394778,16.4278701 C150.613188,16.4701993 150.782562,16.4935886 150.902757,16.4978432 L150.902757,16.4978432 Z M216.144753,20.8309535 C223.404567,20.8309535 229.073676,21.8572069 233.983532,24.0602151 C250.69815,32.2635683 256.914219,58.613301 261.272947,78.9498299 L262.445167,84.4366435 C262.953888,86.803632 263.449237,89.0598695 263.948519,91.1703154 C267.305389,108.676892 270.614739,126.468016 273.831941,143.820982 L276.848749,160.094468 C279.596404,174.904388 282.410382,190.005586 285.252268,204.891993 L285.352083,205.391494 C286.969135,213.564487 287.910737,222.427484 284.376609,229.208483 L272.380756,237.916401 L272.380756,249.086617 C268.679165,251.067066 263.961146,252.071642 258.226698,252.100977 L257.973048,252.100977 L238.066877,252.100977 L231.384806,216.573698 L226.773701,164.781463 L224.712397,95.5499289 L219.91894,55.3157796 L213.662444,34.451825 L205.492589,22.3095643 L207.153344,21.7660204 L207.373605,21.7780229 L207.373605,21.7780229 L207.683832,21.7934863 C208.014442,21.8114377 208.304674,21.8371796 208.548892,21.9195406 L208.743159,21.9851923 L208.947162,21.9920656 C209.001626,21.9939617 209.056407,21.9991233 209.111505,22.004952 L209.194388,22.0138706 C209.362056,22.0318833 209.552285,22.0522662 209.766738,22.0522662 C209.985941,22.0522662 210.187569,22.0306983 210.38231,21.9861404 L211.432014,21.7469973 L211.477612,20.9475624 C213.013455,20.8769335 214.577323,20.8309535 216.144753,20.8309535 Z" id="ðŸ‘•-Clothes" fill="#9FD8E5"></path>
                    <path d="M125.391125,241.929455 L125.377732,241.811955 C125.238131,240.451844 125.849094,240.876829 126.194314,241.915471 C128.430514,241.624186 129.493042,243.941196 128.645917,245.590786 C132.119674,250.13332 136.732431,253.653867 139.844492,258.490531 C142.719064,262.477276 143.889411,269.173521 137.000319,268.459883 L136.775983,268.45869 C135.893755,268.460495 135.423085,268.567464 135.268071,269.638534 C135.36283,277.229728 136.544339,284.050877 127.331413,286.094851 C120.830378,287.217568 114.165001,287.226574 107.588207,287.392955 C104.754721,287.275635 105.105493,283.520211 105.080081,281.460831 L105.073907,281.469127 L105.073907,281.469127 C102.84143,275.787712 101.652308,269.685822 100.572158,263.671121 L100.437639,262.919774 C99.7987922,258.003475 98.7595386,252.944733 99.6187752,247.999282 L99.5652865,247.919558 C98.7517316,246.686802 97.8549491,244.400134 99.8543647,243.864879 C108.313975,242.709455 116.869293,242.327632 125.391125,241.929455 Z M274.163104,240.228718 C274.916183,238.628664 279.910823,234.543559 280.989975,237.315865 C282.516319,246.621827 277.987871,254.932583 274.654232,263.212529 C274.344309,264.11056 273.69715,264.784142 272.90821,265.06334 C272.25084,267.632766 258.145869,281.355172 257.887956,274.751125 C258.921985,270.150997 260.234351,265.604671 261.429635,261.045546 C263.941561,247.887934 267.800526,254.251654 273.121238,250.169867 C274.793401,247.124999 272.34916,243.3153 274.163104,240.228718 Z M161.392119,-7.47840109 C167.291355,-15.0323847 185.703196,-15.2160675 191.892882,-7.93891158 C194.924434,-6.51329626 196.557411,4.1362753 196.57926,7.58571923 C197.532305,12.8108423 200.800159,17.1597393 204.146385,21.1189918 C207.165588,25.4742881 204.347776,30.720031 203.03636,35.1945433 C202.198497,37.8737046 201.338073,40.5412525 200.441075,43.200979 C197.921788,48.9394658 196.700617,60.4026928 189.364332,61.3187366 C187.696207,61.3187366 186.082229,60.2780255 185.526979,58.7924467 C181.751847,56.5010337 178.810066,52.8359107 175.528675,49.866649 C171.650711,46.5594111 169.194358,42.088928 166.24474,37.9926837 C162.066589,32.4625287 153.777971,27.5391194 154.887759,19.611371 C154.759515,19.6969316 154.354595,20.4762206 154.296411,20.0858651 C156.591746,15.0422917 158.369116,9.4640237 159.056411,3.9331577 C159.099871,-0.503670009 157.982246,-3.54024248 161.392119,-7.47840109 Z" id="âœ‹-Skin" fill="#D08B5B"></path>
                    <path d="M103.99732,529.694137 C107.635182,529.843216 112.637422,527.682159 115.557591,530.512769 C115.684411,530.422943 115.894351,530.500919 115.960611,530.661375 C116.887769,532.911074 118.021781,535.122377 119.091433,537.304529 C123.487362,547.139734 130.736726,555.83184 131.989245,566.874611 C132.960577,575.632131 127.688312,588.125641 117.633011,587.097254 C104.344529,586.970454 90.8750806,586.035212 78.0822392,582.122651 C74.7296014,583.048886 71.1266497,579.636179 69.4960475,576.990199 C65.2946226,570.170946 68.4019338,561.807573 71.860017,555.447646 C75.6838338,548.889579 78.6674131,541.911293 81.1952502,534.740791 C80.527905,533.917181 80.6706361,532.269488 81.9029686,532.08225 C83.9890755,531.918713 85.8916031,531.150563 88.0157082,531.254137 C93.3300085,530.608521 98.6671077,530.138057 103.99732,529.694137 Z M226.113276,515.115034 C227.829374,511.488306 230.073174,516.354359 231.408814,517.825006 C238.235447,523.390713 248.079383,523.617294 255.070358,529.158352 L255.531804,529.459847 C258.269337,531.238883 261.333221,533.095706 263.175634,535.815727 L263.878366,536.305627 C271.514196,541.643534 281.048497,548.859602 282.380926,558.65425 C282.697025,559.068069 282.892953,559.594469 282.949951,560.155471 C282.638365,575.338808 260.483216,570.253046 250.666355,570.689856 L249.130182,570.6229 C232.561559,569.919778 215.619446,569.744549 200.02744,563.227121 C197.596261,564.130366 194.644506,563.576 192.268899,562.584587 L191.993559,562.476496 C188.495975,561.114015 184.637281,559.984593 182.339942,556.76054 C178.933133,552.329599 178.014099,546.268423 178.553483,540.782888 L178.619125,540.14585 C178.915545,537.173762 179.084227,533.703676 181.333462,531.685116 C184.649052,526.010622 192.167491,527.425809 197.456142,525.220904 C205.899128,523.01837 217.873581,513.802472 226.113276,515.115034 Z" id="ðŸ‘Ÿ-Shoes" fill="#FFFFFF"></path>
                    <path d="M219.109357,96.6136299 C218.132801,94.7429098 216.651817,92.669783 214.718653,91.7677229 C213.962012,91.4145779 213.222232,91.2481969 212.509289,91.2294731 C209.744913,90.3966199 207.06532,91.8146509 205.486728,94.2191176 C205.316685,94.3518432 205.151155,94.4931012 204.99085,94.6412325 C203.324149,96.1806126 201.922724,98.1942498 201.9371,100.580467 C201.952173,102.952937 203.453344,105.160923 205.717567,105.774778 C206.499858,105.986902 207.325133,105.820995 207.988441,105.40054 C208.276753,105.537294 208.578127,105.659118 208.895651,105.760558 C212.353259,106.864551 216.882656,105.708653 219.016024,102.591971 C220.287304,100.734523 220.120824,98.5509499 219.109357,96.6136299" id="stethoscope" fill="#FFFFFF"></path>
                    <path d="M158.623159,-2.7938268 C158.622446,-2.96257794 158.863498,-2.99338924 158.907196,-2.83317046 C160.843447,3.95053054 160.226212,11.3281787 156.937221,17.5833473 L156.831539,17.7930399 C156.065212,19.295406 155.102431,20.7765255 153.663668,21.4632015 L154.196055,22.2388269 C162.732988,34.6373671 172.176548,46.4752711 183.546958,56.2783154 C184.662631,57.2516366 185.78656,58.2202761 186.940929,59.1464475 L187.375288,59.4916974 C187.919851,59.9206855 188.71639,60.7698924 189.447858,60.8023628 C191.756254,60.1287803 194.483345,54.069619 195.794049,51.8929189 C200.616984,43.1654986 203.196594,33.3852799 204.901055,23.6434567 C204.327043,22.3728459 202.909707,21.5895278 202.114592,20.5867384 C200.624584,19.0265014 199.342378,17.2081604 198.312624,15.3004667 C196.353337,11.6708952 195.142141,7.1240948 195.692404,2.96859799 C195.728027,2.6993546 196.157883,2.71594531 196.207518,2.96859799 C197.133964,7.80455059 198.791165,12.4535023 201.956187,16.2198286 C201.982785,16.1496737 202.040495,16.0923172 202.125042,16.0932653 C203.494643,16.110567 204.762124,15.8166746 206.118426,16.2022899 C207.298986,16.5383701 208.395712,17.1726089 209.192014,18.1339216 C209.558222,18.5759453 209.855321,19.0592088 210.11466,19.5638031 C210.884601,19.5216153 211.654779,19.4825087 212.425432,19.4514603 C228.143193,18.1313145 243.373625,23.5763829 250.104787,39.13301 C257.989673,55.3371486 261.808265,73.2373309 265.341394,90.8597375 C272.605245,128.744131 279.418103,166.720011 286.650131,204.611515 L286.769953,205.211767 C288.713342,215.059347 289.928377,226.99332 282.152081,234.588543 C283.682701,236.006337 282.961683,238.965644 282.840801,240.871442 C281.547671,253.988051 277.744516,270.024387 265.013184,276.107486 C264.544142,278.616948 259.913574,279.196201 257.501632,277.81775 C246.625235,322.042449 242.676574,367.652779 239.915956,413.059183 L239.832658,414.43507 C237.815898,447.488489 237.183939,481.160266 227.906416,513.130549 C232.078629,517.488215 237.953167,519.601397 243.441072,521.652718 C255.369927,526.008726 266.412947,532.840066 275.601174,541.77961 C292.135661,557.075052 288.574745,573.992828 264.866416,574.042126 C243.004092,576.080649 220.890266,573.515727 199.776509,567.510603 C198.621123,567.1859 197.379053,566.939409 196.3265,566.324842 C195.024821,566.295453 193.705567,566.075034 192.603379,565.82404 C182.499868,563.49115 174.079681,554.139683 174.242836,543.27301 C174.311708,537.703985 176.56762,530.983803 181.741089,528.410111 C179.831674,527.844605 178.80572,526.222746 178.060478,524.450385 C177.34611,523.033776 176.656679,521.604131 175.993133,520.161688 C171.779121,511.044387 168.687959,501.414669 166.592115,491.565954 C157.164736,454.565371 171.537357,417.759136 173.380275,380.77064 C173.309503,379.382472 173.226382,377.99549 173.115949,376.611351 C172.719579,371.643384 172.114694,366.735617 171.136,361.878334 C157.828282,417.527103 156.990894,479.251624 122.02723,526.509765 C123.218952,528.399209 120.679953,529.634505 119.001852,529.861798 C117.544142,531.896055 120.216136,535.114414 121.196729,536.782727 C122.791946,539.496729 124.293116,542.276383 125.757476,545.066465 L126.767007,546.930167 C133.295432,559.004303 141.972718,576.023233 129.377764,586.68116 C126.597951,588.801451 122.904753,590.046702 119.432183,589.338753 C115.529282,590.438479 111.462039,590.765079 107.417357,590.582108 C99.4814114,590.40672 91.5687396,589.321925 83.8128109,587.619956 L82.709622,587.371532 C79.6691507,586.683443 76.5857902,585.933041 73.7665344,584.58291 C64.4016149,579.925189 62.2634979,566.557349 67.1068567,557.769491 C68.7303342,554.680066 70.9817337,552.005644 72.8484003,549.077149 C76.3425818,543.596766 79.0953215,537.51817 80.952726,531.253046 C80.527145,531.556893 79.9450585,531.638188 79.3275861,531.306611 C66.9539135,523.67631 71.0992909,498.161706 71.4016149,485.278078 C73.9964241,451.808944 82.0010042,419.001542 91.9268736,387.081269 C103.806093,355.563912 107.025025,321.924131 113.449588,289.032591 L112.236075,289.126244 C109.249432,289.34206 106.17961,289.335527 104.467976,286.330676 C100.067773,278.303384 99.2182731,268.124988 98.7886548,258.241196 C98.616,256.946173 98.470894,255.643803 98.3262629,254.345936 C98.0315386,254.394523 97.7311145,254.405189 97.4876879,254.398078 C97.304821,254.392627 97.1250416,254.374614 96.9504869,254.342618 L96.924363,254.350439 L96.924363,254.350439 C95.7663647,254.592901 94.5603936,254.416328 93.385771,254.358735 C90.4689262,254.077878 87.3787142,254.42652 84.5181544,253.70909 C80.4896217,252.325189 82.276017,247.007869 82.0321154,243.68404 C82.2905038,235.114232 82.0651264,226.500102 82.9129635,217.95992 C75.2282816,168.750239 78.8317082,118.568343 85.5312841,69.4636572 C88.0147108,42.6862644 95.8708601,26.4809407 123.757815,22.1905852 C130.795576,20.7841677 137.982718,20.0371121 144.753303,17.4980237 C124.654338,29.4300565 98.3647362,23.0348149 91.6347617,53.7235843 C81.077883,116.201798 77.0241764,181.609692 91.3419372,243.804204 C93.5873995,243.320704 95.7732519,242.555398 98.0742867,242.297768 C98.0253639,242.075453 98.368536,242.017149 98.3649737,242.253922 C109.005686,240.653867 120.549808,242.523402 130.186416,236.673284 C128.18818,226.148379 125.94723,215.664004 123.48969,205.233192 C112.593439,165.214286 136.082802,126.328762 131.571691,86.2588988 C131.545092,86.0519891 131.875915,86.0162005 131.922938,86.2105488 C140.938986,127.008033 115.450673,167.624441 128.377459,208.31693 C129.554931,213.387522 130.813388,218.439865 131.857628,223.54198 L131.889815,223.683095 C132.464927,226.254745 135.398144,241.69655 131.466008,240.353101 C130.715779,240.846082 129.87388,241.222454 129.035542,241.556164 C130.268824,246.401123 134.406602,249.684186 137.517713,253.168944 C147.427908,248.798954 158.576373,253.636802 168.887688,252.713648 C171.907841,252.579737 174.862209,251.862071 177.834863,251.383074 C180.209282,201.78043 167.047145,153.48703 159.432522,104.891916 C159.239919,104.931023 159.047552,104.967285 158.854711,105.001889 C158.928807,105.43775 158.769927,105.917222 158.260987,106.262071 C155.636254,108.357003 150.264957,108.88672 150.916153,104.104569 C151.830724,100.683092 156.657696,100.627158 158.230351,103.567267 C158.541937,103.449947 158.858986,103.340211 159.180784,103.237349 C158.992455,101.980722 158.809588,100.723858 158.630046,99.4660456 C148.24226,88.8259544 140.773455,72.6877046 140.178545,57.3922625 L139.319783,57.5259362 L139.319783,57.5259362 C138.594728,57.640175 138.059427,57.2398651 137.984142,56.4849881 C137.907196,55.7092543 137.86991,54.9496372 137.884159,54.2004485 C137.686331,53.3258815 137.800801,52.320959 137.894372,51.4727001 C136.855355,44.449382 142.131182,37.2987894 148.831471,35.6198104 C148.109978,34.3297648 147.775355,32.631825 147.541903,31.2261185 C146.558935,28.047577 146.197001,24.6362917 146.578646,21.3397192 C146.588383,20.9429644 146.605483,20.5471577 146.633506,20.152299 C146.856984,17.0017247 147.701496,13.8449881 149.976407,11.5777502 C151.65522,9.90493345 153.87812,9.11284594 156.029537,9.80325615 C157.660377,5.80963719 158.620309,1.53350228 158.623159,-2.7938268 Z M117.923888,530.072263 C111.635881,531.481761 105.169995,531.006319 98.7891298,530.793484 C96.7937439,534.653192 95.5305377,538.907048 94.5587311,543.132937 C93.5947617,549.594304 89.8942019,547.627121 92.042531,542.201725 C93.3850585,537.986501 95.6863308,534.213302 98.3595115,530.779974 C92.723888,530.602928 87.0089432,530.652226 81.6309958,532.451132 C81.5234131,542.496328 76.417391,551.106191 71.1123528,559.198899 C66.8213944,566.737003 69.1656522,578.907468 78.2291976,581.240831 C90.7854996,585.422636 104.057832,585.627887 117.0941,586.403621 C117.398561,585.086319 118.900444,584.593575 120.103091,584.742655 C123.465941,585.331387 126.927824,583.499063 128.894948,580.739555 C136.871742,567.941725 123.247688,551.930512 119.384685,539.611205 L119.257496,539.305915 C118.191876,536.7883 116.042744,532.513428 117.923888,530.072263 Z M227.057391,517.903931 C225.568332,517.743475 224.049825,517.877623 222.585941,518.174359 C221.47164,518.40023 220.374914,518.691515 219.281276,518.988963 C220.946573,520.550449 222.56275,522.244531 223.977369,524.053069 L224.17807,524.312208 C225.749062,526.360448 227.628316,528.154851 228.397544,530.711242 C228.650232,531.549783 227.697662,532.21981 226.991369,531.817367 C224.677272,530.498407 223.32382,528.072846 221.902209,525.88074 C220.552794,523.800029 219.477679,521.498425 218.673778,519.154396 L218.174308,519.289839 C216.342628,519.783514 214.50576,520.236445 212.597849,520.375708 C208.115237,522.188124 203.767281,525.285371 199.582005,527.159646 C196.223193,532.984168 195.540173,539.787304 195.70974,546.412919 C193.216814,551.341779 189.875338,535.472299 198.07656,527.885608 L197.787714,528.006489 C193.34897,529.840799 188.465056,530.779072 183.78611,529.069473 C183.872794,529.246994 183.873981,529.872937 183.523447,529.625025 C182.583939,528.467942 180.418511,532.941032 180.155135,533.527395 C174.318833,545.524368 181.528061,558.879409 194.016916,561.706702 L194.381894,561.782008 C200.925354,563.138007 235.683847,570.57466 252.95941,570.434833 C260.693014,569.761014 277.932845,571.628416 281.470962,563.137294 C284.211827,552.897513 272.866246,544.140467 266.087824,538.375435 C261.691657,534.871479 256.93807,531.79651 251.969554,529.215471 C245.452845,525.830257 237.827298,523.483147 232.140139,518.691989 C231.930673,518.896766 231.6122,518.988015 231.266891,518.813812 C230.967654,518.663074 230.549673,518.811916 230.214338,518.749582 C229.856441,518.682746 229.527518,518.528215 229.183396,518.406392 C228.492539,518.161087 227.785534,517.982618 227.057391,517.903931 Z M250.206908,552.764811 C247.030487,552.997792 246.308044,545.938686 248.07354,547.882405 C248.280204,548.624756 248.637972,549.395769 249.124653,549.997726 L249.240452,550.13611 C249.828939,550.81066 251.82287,552.259843 250.206908,552.764811 Z M103.963786,533.663391 C104.027196,533.545597 104.217187,533.597265 104.212913,533.732124 C104.162565,535.354695 104.045958,536.780073 104.44304,538.382024 C104.823973,539.919745 105.540716,541.255059 106.40019,542.564303 C107.0255,543.516135 105.56019,544.340456 104.920156,543.449535 C103.073439,540.879398 102.408468,536.553965 103.963786,533.663391 Z M211.597829,521.067564 C211.642002,520.875823 211.944801,520.868476 211.984224,521.067564 C213.020865,524.478139 213.325564,528.079743 214.129941,531.555495 C214.267447,533.53524 217.561187,540.011776 214.506836,540.47916 C211.672875,540.523717 211.499983,533.675076 211.041628,531.527528 L211.000987,531.154907 C210.641411,527.795434 210.463096,524.282741 211.597829,521.067564 Z M181.425941,238.684551 C181.16779,241.185954 182.261428,254.30683 179.132031,254.004642 C170.614711,259.354195 157.919715,255.391861 148.516797,254.548343 C145.041377,254.144952 141.562395,253.987577 138.077951,253.748197 C143.675576,258.155398 149.759579,273.890731 136.854405,270.019883 C135.167993,271.979245 136.393201,275.223675 136.545194,277.535945 C137.187841,282.945462 134.695389,287.2261 129.186585,287.916985 C124.16131,288.596018 119.048875,288.565207 113.998426,288.99775 C112.236967,307.607067 109.950656,326.179646 106.931691,344.622108 C104.274422,360.961342 98.6563732,376.428379 93.8612248,392.186465 C82.5519796,431.005626 72.9058728,471.426264 74.8539983,512.204551 C75.1109618,515.341615 75.6519627,518.465644 76.7244648,521.425426 C77.7076709,524.139191 79.4382561,526.572809 81.2303511,528.78435 C81.5768482,529.211679 81.6834809,529.699209 81.6179338,530.142892 C81.7896387,530.649145 81.6286209,531.28054 81.6594945,531.822819 C92.8176964,525.974122 105.926161,530.291734 117.635101,526.779719 C117.724872,525.645626 118.132641,524.394687 118.594083,523.353028 C128.435644,509.719974 135.817764,494.354377 141.324906,478.398862 C152.741259,445.543584 156.608299,410.710458 163.563176,376.734122 C170.571013,342.947632 181.031946,309.455508 198.610436,279.780193 C198.73963,279.560248 199.030317,279.752937 198.937221,279.97549 L198.047501,282.159084 C188.467877,305.700882 179.226036,329.492421 173.043277,354.23239 C186.188316,406.88796 152.858578,454.709473 177.491929,510.549273 C178.538307,513.150221 179.670419,515.717987 180.875203,518.245699 C181.660343,520.463402 184.283176,523.697167 184.090334,525.859646 C193.42818,527.78796 201.217832,521.048817 208.991573,516.946647 L209.177599,516.86532 C211.486487,515.843969 215.43231,513.693138 218.120427,514.131679 C219.948146,513.021998 221.702718,511.791916 223.279172,510.37981 C223.431165,509.805061 223.600258,509.266811 223.763176,508.806775 C237.31812,458.793393 233.197679,406.111515 240.197442,355.041542 C243.985873,320.794541 250.966874,286.750184 261.583362,254.167942 C258.796899,255.123566 231.890063,256.724569 235.346246,251.019263 C234.422175,247.028726 233.599274,243.013065 232.858545,238.982946 C229.783769,239.200284 226.749367,239.454596 223.677679,239.6461 C225.111878,242.934614 226.205992,246.442363 227.430487,249.806009 C228.934032,253.035034 228.221089,259.284514 223.548723,258.467304 C219.52779,257.226319 217.218918,250.291169 218.408265,246.435253 C218.521547,246.094195 219.071335,245.925681 219.242565,246.323621 C220.193213,248.534335 220.728944,250.804109 222.054625,252.834061 L222.238351,253.109329 C222.590317,253.646047 223.505594,255.143699 224.160258,255.013119 C225.523209,252.258589 220.107501,243.586155 219.584787,239.880977 L219.153506,239.902545 L219.153506,239.902545 C221.674694,245.769254 214.907433,249.995143 210.298952,246.409892 C207.723142,250.043019 205.140919,253.592244 202.647993,257.27064 L202.45358,257.55052 C201.408772,259.049124 200.227445,260.620456 198.452031,261.214487 C196.577052,261.842089 194.582853,260.972737 193.846636,259.077367 C192.48226,254.898644 196.932811,248.5828 199.442836,245.423694 C200.180953,243.356729 201.669299,241.657367 203.368061,240.341725 L202.622604,240.349538 C195.535263,240.416881 188.297177,240.273643 181.425941,238.684551 Z M95.0436607,531.096952 C95.1871043,531.096952 95.1871043,531.324718 95.0436607,531.324718 C94.9002171,531.324718 94.9002171,531.096952 95.0436607,531.096952 Z M109.4164,492.372002 C109.563169,492.101099 109.995162,492.287152 109.904916,492.582704 C106.791193,502.640224 104.125137,512.837344 101.814365,523.11718 C100.467562,530.136943 96.0580967,528.016177 98.033771,521.812676 C100.560658,511.551564 104.430785,501.640042 109.4164,492.372002 Z M188.41048,495.431801 C188.397418,495.177727 188.756027,495.151655 188.826087,495.374208 C190.81126,501.748119 193.490141,507.973424 197.251023,513.466131 C198.423271,515.165967 200.063135,516.741847 200.639997,518.784162 C200.911209,519.74429 199.88953,520.370944 199.102728,519.993387 C197.114242,519.038849 195.862688,516.718061 194.745234,514.86817 L194.683288,514.765894 C191.119997,508.930707 188.767902,502.329741 188.41048,495.431801 Z M121.755874,509.039305 C122.019488,508.701803 122.496129,509.13482 122.315162,509.481092 L122.232456,509.648165 C121.395276,511.360455 116.461466,521.767341 115.787528,517.652013 C117.089208,514.421566 119.641031,511.747856 121.755874,509.039305 Z M227.666789,513.69084 L227.588655,513.820485 L227.588655,513.820485 C227.768909,514.013648 227.954388,514.201597 228.142718,514.387413 C227.980987,514.159172 227.821394,513.927851 227.666789,513.69084 Z M172.436017,356.621925 C172.305635,357.13126 172.179053,357.642253 172.051047,358.152536 C172.427705,359.413192 172.763752,360.689254 173.061564,361.975982 C172.895796,360.192007 172.692268,358.407085 172.436017,356.621925 Z M126.756356,242.398261 C117.705873,245.238115 108.094677,244.262819 98.7649059,244.561451 L98.7337947,244.572591 L98.7337947,244.572591 C100.827264,256.494432 100.495966,268.98652 104.452539,280.500941 L104.565856,280.821077 C106.400759,285.971697 107.491326,287.297976 113.163888,286.360303 C117.670249,286.023985 122.180173,285.730567 126.685584,285.379318 L127.30334,285.328578 C129.258609,285.158855 131.482924,284.838408 132.791199,283.247413 C135.650809,279.362108 132.337595,274.198133 133.899562,269.972955 C136.178748,264.838133 138.567891,269.349619 141.495898,267.763785 C143.349503,266.479665 141.267433,262.384368 140.534304,260.976292 C137.529113,255.851661 132.427128,252.364769 129.192522,247.356036 L128.998901,247.076963 C128.120154,245.801709 127.024774,244.073426 126.756356,242.398261 Z M279.975491,236.464004 C278.160122,237.799792 276.121276,238.777933 273.979121,239.228963 C274.170538,242.550895 274.307094,245.875909 274.376679,249.203767 C274.39544,250.096109 273.767518,250.775143 272.993778,251.062399 C270.092607,252.13961 267.115678,253.011333 264.093625,253.671406 C262.835048,256.479362 262.150855,259.47444 261.495954,262.470888 L261.238765,263.64858 C260.260071,267.753119 258.892607,271.753849 257.973048,275.875453 C262.108214,277.220248 265.581021,273.561287 268.416645,270.983566 C276.870555,261.920066 279.578171,248.625936 279.975491,236.464004 Z M207.559511,240.281524 C207.03371,240.348124 206.432149,240.171314 205.953846,240.411643 L205.667981,240.778295 C202.699754,244.568548 199.312328,248.414894 197.710826,253.187431 C196.990046,254.547158 195.597883,260.198425 198.544651,256.845681 C201.876628,252.400084 204.617018,247.476201 207.88226,242.975854 C207.573286,242.122855 207.368095,241.176711 207.559511,240.281524 Z M84.1053978,225.10435 C84.2160679,232.428671 84.2844648,239.745407 84.2944394,247.069728 C84.4787311,248.509564 83.5660594,251.217167 85.6400543,251.410093 C89.3123528,251.963985 93.2627515,251.253429 96.8818524,252.100977 C97.2770348,252.046702 97.6722171,252.008543 98.0633622,251.985553 C97.9291807,250.733429 97.83181,249.474906 97.7427515,248.219227 C97.6938287,247.528343 97.7570008,246.363438 97.530436,245.447395 C96.3828872,245.744605 95.0679084,245.708343 93.9281968,245.804095 L93.4446544,245.843521 C92.3979344,245.925629 91.3571366,245.980857 90.3166955,245.905061 C89.5237184,246.18497 88.5533367,245.914304 88.2887735,244.841123 C86.6740831,238.314104 85.2840577,231.726884 84.1053978,225.10435 Z M210.44382,20.2539763 C210.638561,20.6988441 210.812879,21.1550884 210.982446,21.6120438 C211.57047,23.1955077 212.141157,24.785608 212.69712,26.3813965 C213.378714,28.3386253 214.046534,30.3008314 214.693455,32.2701477 L215.074599,33.3520549 C216.15727,36.4163597 217.27044,39.468741 218.592556,42.4433291 C233.557713,110.659318 223.335695,181.987723 238.623837,250.169108 C249.326772,252.075143 260.264109,251.327613 270.582073,247.838352 L270.578114,247.660007 C270.503384,244.576324 269.942286,233.255836 269.896204,232.582253 C268.727518,215.572755 266.036288,198.682709 262.940614,181.938425 C259.611524,182.618607 256.215252,182.914682 252.834545,183.193886 L251.84008,183.275891 C250.845953,183.363346 249.925087,183.537498 249.138205,182.802089 C248.20131,181.100357 251.196288,181.037313 252.22533,181.15487 L253.506069,181.167401 C256.638403,181.201655 259.780837,181.275489 262.891454,181.675107 C256.13393,143.453211 245.912624,105.069674 247.741293,65.9345779 C247.757679,65.7572944 247.989707,65.7601386 248.009418,65.9345779 C251.178952,122.908233 269.004906,177.673192 273.66421,234.442545 C284.816712,231.01064 284.988655,216.956419 282.91466,207.270768 C278.859766,184.440066 274.551471,161.657003 270.355271,138.85332 C265.297221,112.361287 261.489316,85.5194275 253.980377,59.5950337 L253.726172,58.7251046 C249.546527,44.4639683 243.955745,27.7396489 228.561649,23.1381513 C222.749333,21.2517885 216.552285,20.625845 210.44382,20.2539763 Z M213.789571,240.13126 C212.708757,240.167285 211.627705,240.197623 210.546653,240.223694 C210.628112,241.469655 211.576882,242.203912 212.264651,243.124222 C212.518528,243.521451 212.396933,244.139336 212.040461,244.45219 C213.494609,245.17033 216.248299,244.737076 216.083006,242.632664 C215.950487,241.205626 214.24745,241.362527 213.789571,240.13126 Z M208.443447,240.264696 L208.20952,240.2692 L208.20952,240.2692 C208.266992,240.364715 208.327315,240.460704 208.390724,240.556693 C208.404736,240.458334 208.42136,240.360686 208.443447,240.264696 Z M153.15069,22.3095643 C154.080936,26.7527912 154.801004,31.2225634 155.381191,35.7103482 C160.88857,37.099227 163.903973,42.3326454 166.839817,46.8521896 L166.897742,46.9622674 C167.562735,48.190839 169.696418,51.1299549 169.524159,52.8506764 C169.89678,52.9938304 170.172506,53.3559818 170.002701,53.8394822 C169.827908,54.3367293 169.527959,54.660485 169.11164,54.8209407 C172.638595,62.7963282 174.43164,71.4976773 175.816204,80.0987712 C177.24494,87.9826727 176.461225,98.2020711 168.509367,102.10373 C170.629198,102.548598 172.791301,102.198297 174.791674,101.430859 C174.176102,97.9944503 178.711674,96.8544321 180.515881,99.3797739 C182.952047,102.918097 178.360902,106.873557 175.404634,103.714213 C175.156696,103.432645 175.092336,103.114104 175.146008,102.820448 C172.165517,104.513648 168.411047,104.254122 165.257187,103.338078 C164.287993,103.618224 163.322836,103.892445 162.344142,104.170458 C165.205855,122.606255 168.936291,140.884421 172.321394,159.223613 L172.628146,160.890986 C177.29505,186.304861 181.27561,211.999829 181.420241,237.916401 C198.232828,236.072937 215.303566,237.08734 232.096204,234.670549 C222.446772,178.061889 228.562599,120.012208 219.364634,63.3578049 C218.742887,67.4120985 217.858477,71.4324995 216.732539,75.3599927 C215.498782,79.881196 213.183735,84.3362735 213.560869,89.1383336 C226.335661,92.0500018 223.501937,110.186009 210.247891,108.390895 C199.145975,107.976128 198.145432,95.4470665 205.639647,90.7938487 C206.428587,89.9370574 207.327722,89.3656263 208.478833,88.9127001 C208.950724,88.7268842 209.509537,88.5138122 210.084024,88.3763464 C209.708553,83.3472306 212.422107,78.9540128 213.699562,74.2664284 C217.348112,62.3711322 218.458612,54.8569663 215.654575,43.3792817 C215.32399,42.3544503 215.057527,41.3011778 214.797951,40.2502753 C212.680258,35.2915515 209.584109,30.8556718 206.629028,26.3937211 C205.34611,36.9181513 201.778545,47.1012871 196.295152,56.0955807 C194.564567,58.5419982 193.301123,61.9627639 190.390453,63.1262461 C187.471708,63.7574038 185.088502,60.2430191 182.865126,58.7204667 C171.08494,48.49301 160.259461,36.4742315 153.15069,22.3095643 Z M237.515902,212.461548 C238.373238,209.686634 241.772899,210.085285 243.447199,211.835604 C245.170185,213.524775 245.251169,216.370554 243.511796,218.093854 C241.193187,220.67276 236.521771,219.191448 236.719125,215.497646 C236.653103,214.640618 237.313561,214.220399 237.72703,213.588294 C237.471016,213.291794 237.348234,212.89812 237.515902,212.461548 Z M238.143824,213.925322 C238.1063,214.035768 238.079701,214.148822 238.066877,214.268749 C238.254494,214.38678 238.409812,214.601511 238.45161,214.797045 C238.581153,215.404578 239.006909,216.284058 239.635069,216.507982 L239.692729,216.526507 C240.739345,216.883444 242.065249,215.118193 240.882314,214.504811 C240.486894,214.298613 240.382161,214.413325 239.928794,214.393891 L239.526882,214.316143 C239.04415,214.222093 238.590541,214.12309 238.143824,213.925322 Z M146.198141,192.190057 C151.997869,192.081506 157.92608,191.497513 163.706097,192.096201 C169.672833,195.621196 131.061428,193.533516 128.747219,193.127826 L128.688285,193.116055 C128.51848,193.096146 128.514918,192.857714 128.688285,192.842782 C134.512,192.339136 140.356852,192.299318 146.198141,192.190057 Z M234.979776,181.701675 C233.246816,178.966106 237.114568,176.173417 238.090887,179.828585 C239.487562,182.206981 234.839657,184.94184 234.979776,181.701675 Z M231.672641,146.757201 C230.321327,145.054758 231.540122,141.701067 233.913116,142.965752 L234.004137,143.029366 C235.218845,143.905207 236.457288,145.873148 235.296254,147.228614 C234.312811,148.234485 232.317425,148.102944 231.672641,146.757201 Z M229.170667,118.819194 C229.069021,117.011993 231.377656,115.387289 232.777893,116.788966 C233.837333,117.757389 233.858707,119.639486 232.938911,120.697499 L232.926799,120.680908 L232.926799,120.680908 C232.560353,121.041874 232.063763,121.193798 231.560285,121.030261 C230.224882,121.497407 229.109394,120.081747 229.170667,118.819194 Z M209.665092,91.0991176 L209.194769,91.3625707 C206.251921,93.0261512 204.737334,94.2127564 203.688672,97.2931376 C202.844159,100.535198 204.424176,103.926337 207.657357,104.818917 C219.665771,108.224988 223.977628,95.4631832 214.284024,91.699701 C212.774541,91.2057721 211.215661,91.2790082 209.665092,91.0991176 Z M156.766466,104.147468 L156.342743,103.999917 C155.184367,103.602982 153.985169,103.290332 153.39293,104.412682 C152.929113,105.291989 153.7855,105.355271 154.449282,105.209036 C155.29332,105.022746 156.000563,104.520047 156.766466,104.147468 Z M179.093557,100.360284 C178.338103,99.3145962 177.276051,99.4179325 176.474762,100.033685 C176.345567,100.354596 176.318256,100.738078 176.437238,101.218498 C176.598969,101.871223 176.952353,102.422272 177.589062,102.661178 C177.769791,102.728963 177.950521,102.753849 178.1284,102.77755 C179.091895,102.659993 179.873472,101.439628 179.093557,100.360284 Z M162.001445,101.931187 L162.078392,102.442892 L162.078392,102.442892 L162.672115,102.292153 L162.672115,102.292153 C162.444363,102.17981 162.222548,102.055854 162.001445,101.931187 Z M155.715813,38.4271942 C156.870487,48.2702206 157.427162,58.1900383 158.13583,68.0916062 C158.871573,78.3645688 160.055932,88.5825451 161.532404,98.7609407 C162.863294,99.7950155 164.311267,100.720066 165.882972,101.341743 C181.649893,95.457732 170.810877,67.495763 167.819223,54.8292361 C167.372268,54.6438943 167.139053,54.2317338 166.9436,53.6586436 C166.71276,52.9812689 166.508282,52.2927548 166.304753,51.6035296 L166.062747,51.1478512 C163.457618,46.2137577 160.926433,40.5825041 155.715813,38.4271942 Z M210.761439,100.000361 C208.948444,98.1059398 212.609818,96.266979 213.502066,98.4512634 C214.411888,100.23429 211.172058,102.570498 210.761439,100.000361 Z M153.448027,37.8405943 C150.445924,37.4708587 147.912149,38.13899 145.854779,39.4958724 C144.896034,40.243639 144.037747,41.1539945 143.31293,42.2238578 C140.866314,45.8356536 140.466144,50.500959 141.339868,54.7100201 C141.365992,54.8346873 141.368366,54.9648058 141.35198,55.0916062 C142.219291,55.3447329 142.286738,56.9582972 141.272421,57.1879599 L141.12969,57.2171121 L141.12969,57.2171121 C143.722599,71.1675223 148.601818,84.9250064 158.08572,95.5499289 C155.312556,76.4400474 154.606025,57.1019253 153.448027,37.8405943 Z M228.262246,87.1409079 C230.557581,85.0466873 233.822823,89.9774439 230.831169,91.1340529 C228.699226,91.9782826 226.262585,88.6828952 228.262246,87.1409079 Z M224.342388,58.6824503 C224.46992,58.4255314 224.816892,58.6167985 224.769632,58.8670811 L224.734066,59.0680828 C224.699214,59.2781587 224.659738,59.5551844 224.628563,59.8656044 C227.215773,58.4423592 229.813194,61.534866 227.663678,63.8068441 C226.514704,64.9793327 224.568953,64.7776372 223.846986,63.2332799 C223.178453,61.8019763 223.683355,60.0104175 224.342388,58.6824503 Z M226.337774,61.4670811 C225.810919,61.2751326 225.184437,61.6570493 224.825381,62.0452635 L224.791481,62.0828332 C224.766545,62.1112744 224.739946,62.1363974 224.712397,62.1584394 C225.204712,64.2917666 227.78551,62.3281386 226.337774,61.4670811 Z M155.663566,10.6685798 C152.167959,12.0868478 149.873337,15.5462461 149.323074,19.2955077 C149.182718,22.6029827 149.482904,25.9230191 150.402463,29.0970574 C150.46611,29.5554348 150.643752,30.0308769 150.853218,30.5120073 C151.188553,30.5876135 151.501327,30.8013965 151.721004,31.1986253 C152.302378,32.2495278 152.798256,33.3293455 153.203176,34.451825 C152.887077,30.2463191 152.509944,26.0462644 152.023328,21.8554531 C150.350453,21.6814877 151.13678,19.0703482 151.559511,18.1159088 C151.607484,17.8329189 150.900478,14.8842771 151.411081,15.4218159 C151.595135,16.06435 151.775864,16.7085433 151.953506,17.3539216 C153.38058,15.2639672 154.636662,13.0187712 155.663566,10.6685798 Z M202.195576,16.4985524 L202.343822,16.6726231 C202.3686,16.7015647 202.393642,16.7303482 202.419291,16.7587894 C203.16002,17.1107493 203.56019,18.1462461 204.266483,18.6444412 C205.357035,19.7899107 209.487213,21.7663373 207.796763,23.6353984 C209.04287,25.4741222 210.249554,27.3308587 211.469299,29.1717156 L211.386178,28.9183519 L211.386178,28.9183519 C210.898612,27.4505488 210.39371,25.9886709 209.908757,24.5203938 C209.454677,23.1452616 209.088468,21.6902571 208.466246,20.3819617 C208.42516,20.2954531 208.378612,20.2160547 208.334202,20.1333382 C207.782277,20.1037119 207.231064,20.0750337 206.681988,20.0468295 C206.509096,20.0380602 206.510758,19.7849335 206.681988,19.773557 C207.143668,19.7432197 207.605822,19.7131194 208.067739,19.6839672 C207.452166,18.7494366 206.615729,18.0986071 205.539427,17.6587165 L204.815705,17.3606112 C203.962304,17.0109798 203.079802,16.670174 202.195576,16.4985524 Z" id="ðŸ–-Ink" fill="#000000"></path>
                </g>
                <g id="Head" stroke-width="1" transform="translate(95.945717, 42.661805)">
                    <g id="head/doctor-nurse-2">
                        <path d="M100.172517,46.6894348 C99.6333688,45.6236007 99.4914128,45.7854786 100.422777,44.8405196 C103.842756,39.6931358 95.2746788,35.7225068 96.6193508,30.2843118 C97.4682431,24.7079398 91.0875684,22.7656427 88.2041309,18.5508933 C86.2354686,13.3999544 85.1754196,9.40586144 79.0423977,9.61751139 C75.1503378,8.9273382 71.0954668,13.1864084 67.9131871,11.5074294 C66.7647415,10.6743391 66.4874651,9.53787603 66.0758163,8.52110301 C62.6067806,-1.72744758 50.2658485,3.7273382 45.263972,10.5657885 C43.2327447,13.5201185 38.7316247,14.2290155 35.8768629,11.4922607 C30.5022037,7.35240656 22.9676326,10.8805378 21.4466413,17.1650957 C19.2746429,23.8888332 15.4442,25.2487967 8.91256365,25.0473382 C2.00885558,26.5241477 2.55914256,34.9998633 6.96286037,39.1044029 C10.696849,46.2123336 -0.388755714,46.85866 1.76641648,55.9946855 C2.23873429,58.4150319 3.32556294,60.9244941 4.8214335,63.1239471 C5.00889129,64.3843665 5.45134857,65.5995169 6.09880079,66.6985324 C6.39669516,67.2040747 6.746253,67.682598 7.12022064,68.1348131 C7.04272544,68.1746308 6.96688917,68.2172926 6.89508169,68.2663537 C6.03102211,68.8529535 5.61534452,69.9375114 5.92271843,70.9497812 C6.01727679,71.2619234 6.17724393,71.5529717 6.38342381,71.8075205 C5.7523238,71.962051 5.15250624,72.2030902 4.66004442,72.4886873 C3.09023349,73.3976208 2.14133207,75.1391705 1.96690864,76.9150866 C-1.31514323,81.5545579 -1.5765414,89.2223063 2.96913243,92.2996445 C5.20559164,93.8537192 8.22316449,94.6951048 9.46000677,97.5965816 C10.5487313,100.277876 8.57864704,102.345552 9.7446298,104.858095 C13.6020894,113.46938 27.7123767,110.983382 33.1465199,105.444932 C41.8288257,118.496363 58.4464498,118.861121 72.5804359,119.82196 C90.6936937,118.987922 102.172225,95.2565816 96.5217116,79.6267183 C96.5217116,79.6267183 96.3129248,79.028268 96.3136358,79.028268 C98.2052769,73.2288696 96.1325767,66.5383136 96.2494119,60.5305834 C101.550131,60.3511668 102.418456,50.5633637 100.172517,46.6894348" id="background" fill="#8FA7DF"></path>
                        <path d="M31.544052,80.5900456 C31.4490196,80.0072379 31.7715608,79.3812944 32.5154673,79.4571376 C35.7908835,79.7818414 39.0660627,80.2158067 42.2962141,80.8533637 C49.6992567,81.4176846 38.1809111,100.428496 35.92336,103.381404 C33.0693091,106.385032 31.503527,93.8047767 31.3139363,92.0802917 L31.2140718,90.6184824 C30.9909667,87.2776656 30.8363997,83.8701887 31.544052,80.5900456 Z M33.0299216,70.6422607 C39.0937429,46.2423154 73.0743197,30.8769553 94.0117678,46.2757338 C94.8530765,47.1147493 93.5496405,48.4159344 92.7083318,47.579289 C92.3030817,47.178979 91.8741327,46.8068733 91.4238548,46.4629717 C97.1978394,54.4407293 95.0943306,65.1860529 96.2181295,74.4351322 C97.6642325,75.7348952 95.9761644,77.479052 94.3909492,76.8595077 C91.4973212,76.1389973 88.6890091,75.2217685 85.7479835,74.6647949 C81.7196553,73.9165542 77.59037,73.7098815 73.5217537,74.266618 C71.7249079,76.5713036 65.9336233,77.2474932 63.0350186,78.1275114 C56.1469517,79.8617138 48.9031654,80.056299 42.0283699,78.1580857 C38.8031952,77.6238651 35.6055112,76.1432634 32.410434,75.613072 C31.3435124,75.5201641 31.8025589,74.2343847 32.0976094,73.626454 L32.1203909,73.4227385 C32.2316353,72.4646129 32.4201032,71.4111844 33.0299216,70.6422607 Z" id="âœ‹-Skin" fill="#D08B5B"></path>
                        <path d="M97.7785557,84.0548478 C97.2770883,78.3990775 91.4839077,76.2240365 86.528955,75.9728058 C82.3698091,74.7152306 77.9203526,75.3115479 73.7960441,76.4553582 C65.8197267,77.5877922 58.1576558,80.3349754 50.1123748,81.0941185 C48.723386,79.6241823 46.2703194,79.7132981 44.3755974,79.2127329 C38.8106366,77.9987675 33.2854899,76.6091778 27.7679268,75.197072 C24.0872605,74.2578013 20.4352698,73.2208824 16.7749845,72.2071905 C13.6220912,70.9607548 9.5755149,71.0792598 7.16463226,68.5252397 C6.89920529,68.2842005 6.49514013,68.5925506 6.66553476,68.9293418 C4.38404777,73.141484 41.3926249,81.034155 45.7468121,81.8793327 C46.9566377,88.1371085 43.5409244,95.0487949 40.3671762,100.303307 C39.6929443,101.255139 38.9362405,102.147245 38.1191046,102.979624 C37.2327681,103.771475 34.1244287,106.021411 36.5637499,106.65565 C39.0789075,111.891438 44.9912932,113.974757 50.2988846,115.255085 C59.8208402,118.625367 70.1637234,120.684985 79.6600842,116.062815 C87.0399019,113.849378 89.7368295,110.344948 92.8321345,103.541575 C95.8103673,97.5158323 98.6210493,90.915103 97.7785557,84.0548478" id="ðŸ˜·-Face-Mask" fill="#FFFFFF"></path>
                        <path d="M56.9905592,1.46495898 C60.0519749,1.19429353 63.4653183,2.20893345 65.5437063,4.55580675 C66.4114787,5.5356457 66.8824602,6.65061329 67.3324308,7.82883841 L67.7143835,8.83733224 C67.936622,9.41921642 68.2172862,10.0784564 68.7153216,10.4291522 C69.5153943,10.9929991 70.5289936,10.3412215 71.2774028,9.98618049 C76.264586,7.61939836 84.248487,6.94060164 87.3769704,12.5883136 C88.3189992,14.2888605 88.4810992,16.3131632 89.4773983,17.9767366 C90.1619841,19.1199422 91.2277453,20.0034829 92.2745295,20.821902 L93.0263395,21.4077646 C95.4274178,23.2898548 97.6319492,25.232677 98.0400249,28.4663263 C98.2872038,30.4254512 97.8402437,32.5509572 98.6865292,34.3977393 C99.4809142,36.1312306 100.976548,37.4231723 101.883976,39.0827165 C103.046641,41.2089335 103.167505,44.3806016 101.508587,46.2283318 C104.069246,51.3650501 103.014648,57.9593801 98.873039,62.0004011 C98.5554746,62.3101732 98.1999921,62.4412397 97.855174,62.4436098 L97.9505525,64.1070457 C98.0304583,65.4932953 98.1143716,66.8793202 98.2244019,68.262443 C98.3834211,70.2630447 98.5305908,72.2669644 98.5699309,74.2739654 L98.5757899,74.5880238 C98.6047444,76.2555324 98.5849588,77.8060143 97.9381199,79.3590155 C100.163441,85.7438286 99.6771406,93.3440292 97.7608526,99.6814403 C95.941019,105.700547 92.3933031,111.13021 87.5919189,115.192325 C85.1751115,117.23701 82.4928772,119.088532 79.5795792,120.351085 C76.9480604,121.491577 74.2461561,121.862498 71.3906833,121.738541 C67.8559145,121.585184 64.3149774,121.203579 60.8013218,120.778121 L59.0198795,120.560128 C55.8274818,120.166167 52.6171496,119.736834 49.5000679,118.948696 C46.1419428,118.099727 42.960374,116.707767 40.0849942,114.773054 L39.7350313,114.536042 C37.1668229,112.785174 34.5708416,110.749943 32.7480714,108.218778 C31.6422837,109.245269 30.1656092,109.975023 28.8671499,110.486727 C26.1526852,111.556117 23.1099915,112.154093 20.2040402,112.325925 C15.2647287,112.617685 9.98059911,110.653345 8.05127683,105.745105 C7.64815962,104.719325 7.47421016,103.630738 7.57042744,102.530301 C7.68607776,101.212762 8.3309231,99.8146399 7.78253202,98.5245943 C6.78125618,96.1677666 3.74282835,95.3285141 1.83341309,93.9130902 C-2.26980347,90.8717776 -3.25828194,85.3141294 -1.61310871,80.6637557 C-0.81516888,78.4078943 0.513861872,76.227639 2.03272031,74.3808569 C3.07499514,73.1135643 4.47796626,72.1479854 6.0271592,72.0422789 C5.14342959,70.8513036 5.1901163,68.5200729 6.35230724,67.9284959 C5.27638006,66.9773747 4.33980204,65.8885506 3.53238268,64.6335825 L3.33736941,64.328969 C1.8130162,61.9343758 0.378396421,59.3405585 -0.0259976237,56.5084047 C-0.489783855,53.2606563 0.0716415828,49.6393801 2.28985268,47.1050319 C4.02034173,45.1274202 7.35998177,43.27732 5.42165393,40.2862534 C4.3957313,38.7035005 3.13874501,37.5002005 2.42256617,35.7008204 C1.73127111,33.9637739 1.53504474,32.0693528 1.91280419,30.2348952 C2.57637162,27.0146399 5.21097127,24.2707748 8.47430106,23.6936554 C10.4960488,23.3360073 12.6211235,23.754093 14.6099298,23.2253236 C16.0486862,22.8425524 17.1160818,21.863701 17.9026462,20.6312489 C19.4707982,18.1736919 20.1289149,15.2499362 21.7399618,12.8134731 C23.6178576,9.97338195 26.6413552,8.45865087 30.0276819,8.36929809 C31.7491654,8.32379216 33.5201795,8.62858706 35.0632107,9.40692799 C36.6285189,10.1961714 38.0973728,11.7248861 39.8965884,11.9460164 C41.5313342,12.1467639 42.8857227,10.7735278 43.9166221,9.69821331 C45.0908994,8.47287147 46.2144613,7.23070191 47.4970423,6.11201459 C50.1882822,3.76514129 53.3575276,1.78563355 56.9905592,1.46495898 Z M86.4008153,76.4272015 C83.14815,75.8114494 79.7746207,75.7166454 76.4911468,76.1413674 C70.5349183,76.911887 65.0102455,79.5009845 59.1198997,80.575351 C54.4962567,81.4186326 49.8154995,81.0936919 45.2129484,80.3096627 C45.7234214,81.4451778 45.7968878,83.0779398 45.588812,84.4943118 C45.649244,87.7458523 44.9129211,90.9926527 43.6450334,94.0470009 C42.6686413,96.3983774 41.3490901,98.6037557 39.8105616,100.62948 C39.0436673,101.63938 38.2277164,102.609936 37.3518074,103.527402 C36.9273612,103.971796 36.4905916,104.403628 36.0410247,104.822662 C35.8173077,105.031231 35.5907468,105.237192 35.3608681,105.439362 L35.219386,105.561422 L35.219386,105.561422 C38.0359928,107.445415 40.3463923,109.990191 43.2307777,111.815406 C46.2135133,113.702954 49.4521963,114.813582 52.8961112,115.524376 C56.0229094,116.169938 59.2025545,116.596906 62.372558,116.976789 L64.6623078,117.249424 C67.2640362,117.557532 69.8899652,117.844811 72.4990778,117.889025 C77.8313161,117.979799 82.640521,114.886108 86.4773626,111.413437 C90.8301279,107.473619 94.3489311,102.547366 96.2472079,96.9617502 C97.0074666,94.7250866 97.5236273,92.4049954 97.7956899,90.0578851 C97.8373999,88.3559161 97.8525671,86.6560802 97.6245843,84.9377575 C97.4591664,83.6920328 97.1975313,82.4714312 96.8131362,81.2742935 C96.6801857,80.860711 96.4891731,80.4641933 96.2891549,80.0712306 C96.0251498,79.9790337 95.7952711,79.8136007 95.6606617,79.5791978 L95.6308012,79.5699544 L95.6308012,79.5699544 L94.5290394,79.1076277 C91.8751341,77.998875 89.2698396,76.970608 86.4008153,76.4272015 Z M6.72035017,72.6201094 C4.40568481,72.9806016 2.84250955,75.6680583 1.80307858,77.5302461 C0.503908361,79.8576846 -0.465611041,82.2931996 -0.353041568,85.0067274 C-0.267962745,87.053309 0.462672386,89.1738377 1.79573194,90.7475843 C3.27382837,92.4919781 5.4690516,93.1928168 7.28912225,94.4826253 C8.88926769,95.6167183 10.2848922,97.2272015 10.4408305,99.2616955 C10.5304121,100.43371 10.1289538,101.540547 10.0519326,102.696445 C9.99007865,103.622443 10.167109,104.557922 10.5458164,105.404758 C12.4917278,109.755314 17.887005,110.379362 22.0345383,109.786126 C24.1257237,109.487019 26.2799479,109.023191 28.2478993,108.239872 C29.1309179,107.888624 30.005879,107.434749 30.7531033,106.843409 C30.9208911,106.710447 31.0777774,106.567293 31.228739,106.418687 C30.9540694,105.922862 30.739121,105.378213 30.535074,104.972926 C29.9433141,103.796171 29.4271534,102.578414 28.9806673,101.339562 C28.091487,98.871103 27.5032819,96.2997812 27.1259964,93.7057065 C26.7399423,91.0514312 26.5496407,88.3805652 26.5418201,85.6987967 C26.5379097,84.4093634 26.546545,83.1189343 26.6495044,81.833899 L26.6799843,81.4835734 C26.7385204,80.859052 26.7731207,80.2030082 26.8906669,79.5725615 C21.9632218,78.3551003 17.1206163,76.8299843 12.3743252,75.0127269 L11.6510071,74.7328377 C10.5973369,74.3179202 8.95604096,73.6213762 7.6547953,72.7160985 C7.30357854,72.7838833 6.99217583,72.7414585 6.72035017,72.6201094 Z M28.009015,79.84299 C28.0463407,80.2978517 28.0510805,80.7584741 28.0660239,81.2122386 L28.0765567,81.4835734 C28.1381737,82.821021 28.1339079,84.1596536 28.1817795,85.4978122 C28.274442,88.0814585 28.4462586,90.6769553 28.8382373,93.2335825 C29.2254763,95.7603464 29.8160513,98.2615132 30.6865096,100.666928 C31.125412,101.879234 31.6406247,103.06144 32.2371245,104.20454 C32.3380815,104.398414 32.4653442,104.598924 32.5990057,104.804412 C32.6189127,104.772179 32.6409526,104.741604 32.6622816,104.710082 L32.5154541,104.242786 C32.490544,104.165301 32.4651863,104.088168 32.4390385,104.011613 C32.041846,102.850738 31.6820977,101.676828 31.3626374,100.492015 C30.7519184,98.2285688 30.2788896,95.9222242 29.9900008,93.5950228 C29.6835748,91.1289335 29.5660286,88.63701 29.6264606,86.1529079 L29.6496054,85.2189535 C29.6943315,83.6239912 29.791365,81.8646855 30.2639593,80.3537466 C29.5105733,80.1904467 28.7588462,80.0207475 28.009015,79.84299 Z M31.0829911,80.528423 C31.2239992,82.4387238 30.9403241,84.4815132 30.9528845,86.367402 C30.9682887,88.7185415 31.14603,91.0661258 31.4853974,93.3928532 C31.8242907,95.7188696 32.2904468,98.020474 32.9201249,100.285816 C33.2213371,101.369426 33.5576236,102.443318 33.9240076,103.507019 C34.0721254,103.38804 34.2197691,103.268113 34.3612512,103.142735 C35.3295856,102.286892 36.2450717,101.372033 37.1022586,100.405269 C38.7545415,98.5421331 40.169599,96.4675843 41.3035883,94.2505925 C43.1708197,90.6006381 44.2045629,86.6233728 44.3469929,82.5579398 C42.5597847,82.4913664 40.7469232,82.1937052 38.9728224,81.9218036 L38.3094773,81.8215497 C36.1898534,81.5070374 34.0782871,81.1377758 31.9776222,80.7142388 C31.6790169,80.6540383 31.3811225,80.5909936 31.0829911,80.528423 Z M67.151933,87.7003938 C67.8595803,87.5411231 68.5816839,88.3133017 68.1430184,88.9894913 C66.725591,91.1759088 63.2591622,92.0229827 60.8347712,92.3666472 C58.02717,92.7645871 55.3055956,92.4507858 52.6385286,91.4930283 C52.4956246,91.4415971 52.5058151,91.1889444 52.6769207,91.2093273 C55.2093784,91.510804 57.8200422,91.2901477 60.2809294,90.6201203 C61.490518,90.2909134 62.6884942,89.8616882 63.8103971,89.3009225 C64.9138149,88.7494002 65.9338129,87.9746144 67.151933,87.7003938 Z M21.7075854,84.2639478 L22.4137614,84.2703224 C23.0080865,84.2805379 23.6278111,84.3324497 24.0757191,84.7604503 C25.5428453,86.1620614 23.2102066,87.670365 22.2559363,88.472203 L22.225314,88.4980985 C20.8766132,89.645464 19.2392606,91.6375333 17.3374289,91.6671595 C16.7833501,91.6759289 16.3849727,91.1210884 16.5233739,90.5984813 C16.8866771,89.2257192 18.1865583,88.4957284 19.2738609,87.7150173 L21.1621842,86.35932 L21.1621842,86.35932 C21.3645722,86.2140328 21.6811887,86.0455187 21.9835858,85.8608879 L21.8493273,85.8484903 C20.5988236,85.7394049 18.2464564,85.6972667 17.7831507,85.6935752 L17.7395982,85.6933218 C16.0851824,85.6866855 14.4205761,85.746649 12.772796,85.8921732 C12.5405474,85.9127931 12.5116349,85.5601222 12.7197106,85.4994476 C14.749753,84.9081076 16.7691308,84.5317356 18.8769054,84.3698578 C19.8189604,84.2973854 20.7630753,84.2618046 21.7075854,84.2639478 L21.7075854,84.2639478 Z M86.3928999,86.1254859 C86.3386296,86.0614932 86.4087782,85.9531796 86.4872213,86.0034257 C86.7057246,86.1432616 87.2958256,86.2778833 87.5650444,86.4253036 L88.3518809,86.8595586 C88.4831373,86.9317413 88.6145869,87.003529 88.7464314,87.074474 C89.6029073,87.5352215 90.5003823,87.8921586 91.423689,88.1948204 C92.3870467,88.5102808 93.3800279,88.7463428 94.3891244,88.8558414 C95.2567388,88.9496974 96.0511238,88.9515934 96.8796351,89.2696609 C97.5209256,89.5156773 97.5199777,90.3309918 96.8796351,90.5765342 C95.0116928,91.2932525 92.5742675,90.383134 90.8279002,89.6320492 C89.8801837,89.224392 88.9881595,88.6934895 88.1551454,88.0860328 C87.7517912,87.7921404 87.3745057,87.4833163 87.0249479,87.1254312 C86.7142562,86.8078377 86.6692284,86.4513747 86.3928999,86.1254859 Z M6.66797574,68.5724521 C6.51014149,68.8696627 6.40989541,69.1882042 6.36723751,69.5302097 C6.4224558,71.2456882 8.95728335,72.2987238 10.5078982,72.9289335 C13.4956105,74.1426618 16.6186432,75.1144029 19.69807,76.0586509 C22.245458,76.8400729 24.8179667,77.5390155 27.4103824,78.1547675 C27.4855077,78.1121057 27.5938114,78.1234822 27.6350474,78.2071468 C29.1401605,78.5617138 30.6516723,78.8890246 32.1688718,79.1874202 C34.2005731,79.5865451 36.2419908,79.9351869 38.2909922,80.2321604 C40.3011276,80.5239198 42.3477591,80.6507201 44.3543396,80.9590702 C44.3484149,80.6905378 44.3382244,80.4222425 44.324479,80.1534731 C43.2824412,79.962917 42.2446691,79.7519781 41.2132958,79.5268186 C35.1859213,78.2103464 29.1837943,76.6106847 23.2540544,74.8976347 L20.4450531,74.0823689 C18.0693953,73.3920569 15.6941516,72.6954522 13.3368283,71.947949 C10.9463267,71.1902279 8.57525811,70.2282042 6.66797574,68.5724521 Z M81.2309142,41.4376481 C73.635674,39.946618 65.733534,40.6697356 58.4869037,43.3562443 C51.4836606,45.9524521 45.3048999,50.4746035 40.6004439,56.2640474 C38.3407598,59.0451231 36.4332404,62.139763 34.8992148,65.3766089 C33.34623,68.6532726 32.4883321,72.0863628 31.4218845,75.5239562 C35.8327119,76.6447767 40.2632094,77.7279125 44.731625,78.5263993 C47.8646112,79.086217 51.0487869,79.4467092 54.2358065,79.3604376 C57.2877426,79.277484 60.2455944,78.6332908 63.1697938,77.7919052 C68.7823893,76.1759708 74.2357286,74.1362625 80.1519061,74.0630264 C85.2042611,74.0004558 90.9163917,74.9691158 95.4092171,77.5048861 C95.3741428,76.1906655 95.4587477,74.8781039 95.4345748,73.5432634 C95.3983156,71.5301003 95.2696309,69.5200182 95.1357325,67.5118323 C94.8795481,63.6668186 94.902536,59.7829353 94.4875693,55.9526162 L94.4499456,55.6163811 C94.0804457,52.4176565 93.356211,49.1006162 91.3711723,46.492124 C88.9038865,43.2498268 85.0405021,42.1856518 81.2309142,41.4376481 Z M81.3247615,35.8927985 C69.7511977,32.0615314 55.9293253,35.3246855 46.3573652,42.5989973 C41.1805914,46.5333637 37.0498842,51.4707566 33.9647696,57.1888605 C32.3731558,60.1391613 31.1137996,63.2532361 30.1196334,66.4535825 C29.2792727,69.159052 28.7770943,71.9365725 28.1616355,74.6929991 L30.6274995,75.3227347 L30.6274995,75.3227347 C30.8310725,71.2354968 32.3914039,67.1010939 34.1135983,63.4373929 C35.9111551,59.6137101 38.3229857,56.0758614 41.147887,52.9371376 C46.4941075,46.9976664 53.4677272,42.6980675 61.1326419,40.4618778 C68.7048941,38.2527074 77.6609214,37.6819872 85.2298558,40.2303191 C88.8609916,41.4525798 92.0992006,43.2462716 94.250818,46.4909389 C91.9027372,41.1944758 86.7169578,37.6781951 81.3247615,35.8927985 Z M60.3659845,3.95711942 C57.0069114,3.03752051 53.7037676,4.23916135 50.9286338,6.14946217 C49.4813459,7.14561531 48.1397547,8.33730173 46.9157098,9.59582498 C45.8902612,10.6502826 44.9463365,11.7772653 43.7713482,12.6741112 C42.654659,13.5266363 41.3322639,14.1428624 39.8965884,14.0504284 C38.276536,13.946381 36.8811485,13.0293892 35.5511698,12.1858706 C34.0240167,11.2179216 32.5750699,10.6092799 30.7452827,10.5493163 C29.0351746,10.493382 27.2909403,10.8133455 25.8175836,11.7168277 C23.3723377,13.2168642 22.3779345,16.1503373 21.3005854,18.6519781 L21.1450522,19.0099025 C20.1833867,21.20113 19.0029014,23.4444189 16.846389,24.6585232 C13.6551037,26.4560073 9.59644097,24.6988149 6.59261344,26.8300091 C3.59162977,28.9593072 3.19657017,33.2477666 4.99673379,36.2855242 C6.47222335,38.7750775 9.08928587,40.9496445 7.5732713,44.105907 C6.46653563,46.4096445 3.91582986,47.5551139 2.75340192,49.8190337 C1.13761525,52.9660529 1.46631811,56.9705743 2.99892187,60.0789608 L3.38485372,60.8602009 C4.29324123,62.6892967 5.27184766,64.5443186 6.63693027,66.0580128 C8.32262851,67.9275479 10.4628704,69.4173929 12.5964767,70.7797265 C13.4720065,71.0214768 14.35603,71.2395639 15.236656,71.459714 L15.8963027,71.6256153 C19.3290792,72.4971012 22.7720461,73.3268733 26.2055336,74.195041 L27.4546992,74.5131085 L27.4546992,74.5131085 C27.2613167,71.0342753 28.0469332,67.4494986 29.048446,64.1564813 C30.1743777,60.4548587 31.8299784,56.8302644 33.8479344,53.5315588 C41.0573574,41.7478943 53.5909611,33.846691 67.3102176,32.2805287 C78.7598365,30.9734184 92.3857195,35.0416955 96.7849345,46.7374294 C97.1901847,47.815351 95.9137653,48.4097721 95.1070569,47.9502097 C96.5998466,50.8540565 97.2062999,54.1598724 97.4999284,57.388186 C97.5421124,57.8543847 97.5807415,58.3212944 97.6165267,58.7884412 C100.318194,55.3470556 100.637417,50.3610757 98.2767763,46.6037557 C97.8723988,45.9603058 98.0992795,44.9598873 98.7676336,44.5765088 L98.8149769,44.5507748 C99.8906671,43.9980675 99.9148399,42.6781586 99.5783164,41.6376846 C99.0815888,40.1011486 97.9556571,38.8291158 97.0629219,37.5158432 C96.021595,35.9830994 95.3926279,34.3745123 95.2696309,32.5173017 C95.1535066,30.7629535 95.5504622,28.8445943 94.7906775,27.1923974 C94.2633151,26.0454743 93.2923836,25.168305 92.3366362,24.3737744 L92.2378388,24.2918687 C89.9352598,22.3874932 87.5606364,20.7727438 86.4396814,17.8745852 C85.8249336,16.2840109 85.6218346,14.4763355 84.5269483,13.1102097 C83.7301935,12.1166636 82.5888575,11.5018596 81.377373,11.1693345 C78.6373135,10.4168277 75.692733,10.9773564 73.0718787,11.9140201 L72.8975623,11.9777479 C71.3881095,12.5408583 69.9097078,13.363389 68.2697835,12.7731814 C66.9931271,12.314093 66.2783702,11.1624613 65.7840125,9.96721969 C65.2612162,8.7030082 64.9569231,7.32171376 64.0784072,6.23810392 C63.1446731,5.08670921 61.7786721,4.34368277 60.3659845,3.95711942 Z M6.81798938,68.3228806 L6.79286861,68.3586691 L6.79286861,68.3586691 C6.90330519,68.4304831 7.01326779,68.5025342 7.1251263,68.5710301 C7.02085142,68.4899727 6.91965739,68.4060711 6.81798938,68.3228806 Z M16.7356681,46.4427548 L17.7079826,46.3761528 C22.0817732,46.084027 27.294097,45.9025426 30.8504581,48.7450702 C31.5351175,49.2928004 31.7939088,50.1972306 31.1158851,50.8779234 C30.3895158,51.6067293 29.1685517,51.4216244 28.2352915,51.4439034 L27.5306047,51.4607653 C26.4306448,51.4898317 25.3169192,51.5422904 24.2436965,51.7603118 C23.1682433,51.979072 21.9937289,52.6223172 20.892918,52.3516518 C20.5376724,52.2644321 20.323198,51.8631741 20.4196522,51.5178505 C20.872774,49.8959909 23.1196607,49.519619 24.5349552,49.331196 C25.5032896,49.2024995 26.4659364,49.1705032 27.4416175,49.1847238 C27.6594098,49.1878049 27.8769651,49.1953892 28.0947574,49.2013145 C27.6586988,48.9588532 27.2084209,48.7445962 26.7474786,48.5538031 C25.7571042,48.1442498 24.7344994,47.8309225 23.6889067,47.5977046 C21.4069457,47.0895552 19.0640788,46.9464011 16.7356681,46.8205488 C16.4915701,46.8072762 16.4939399,46.4598195 16.7356681,46.4427548 Z M23.0621118,29.1324891 L23.0853684,29.1357138 C26.9319266,29.9152397 30.163026,31.9758049 33.6131026,33.7251759 C34.4090991,34.1289699 35.2173811,34.5099185 36.0500421,34.8322562 L36.4121207,34.9694632 C36.9471763,35.1781794 38.8468094,35.9630386 39.1358795,35.6788496 C39.2174035,35.5989772 37.4672444,33.7630975 37.2833414,33.5270356 L37.0734155,33.2559512 C36.5918205,32.6267974 36.1850485,32.0101418 36.2142869,31.1721039 C36.2308761,30.6942917 36.7522505,30.3551304 37.1838063,30.6156044 C38.2983626,31.2880018 38.8337193,32.710536 39.7119982,33.6573911 L39.7973683,33.7482165 C40.4173423,34.4004856 41.1946132,35.0861349 40.9656666,36.0808186 C40.4850542,38.169825 37.5061105,36.988804 36.2763779,36.5143099 C31.5652861,34.696443 27.7417159,31.1531431 23.0085842,29.4144376 C22.8421978,29.3532271 22.8965429,29.1202727 23.0621118,29.1324891 L23.0621118,29.1324891 Z M78.9427915,16.2820201 C79.2534832,16.2431504 79.4435479,16.422804 79.461322,16.7145634 C79.4691426,16.8453929 79.2973261,16.8671978 79.2335762,16.775949 C79.2141432,16.7484558 78.9157748,18.1370975 78.9027405,18.2582097 C78.870984,18.550443 78.8520249,18.8433874 78.8242973,19.1358578 L78.7598628,19.8000389 C78.7172049,20.2426156 78.6776015,20.6851923 78.6557986,21.1302972 C78.5956233,22.3578116 78.5963836,23.5988685 78.6708575,24.8273621 L78.6930058,25.1620747 C78.6958496,25.2033145 78.7451432,25.5095314 78.7982286,25.8576992 C78.8690881,25.6391759 78.9352079,25.4189936 78.993033,25.1973892 C79.27813,24.1064321 79.1117642,22.9045542 79.8952477,22.0385196 C80.3528723,21.5329772 81.1038884,21.7453382 81.4479955,22.2385561 C82.0230873,23.0631534 81.7601618,24.2620292 81.468518,25.2613117 L81.2399031,26.0196938 C80.9610971,26.9373792 80.6032466,28.0167076 79.8592255,28.6330866 C79.1243246,29.2422024 78.0851306,29.2708806 77.3883848,28.5916098 C76.7162858,27.9367511 76.7032514,26.9325397 76.6838184,26.0589207 C76.6242432,23.3768666 76.9554772,20.6354095 77.8831506,18.1081633 L77.9576309,17.9090939 C78.1190199,17.485794 78.3349163,16.3581003 78.9427915,16.2820201 Z M48.1616051,14.6995041 C49.3884678,13.2649298 51.1794758,18.3886429 51.5220239,19.3822027 L51.7936839,20.1696019 C52.503178,22.2150976 53.3204172,24.3823957 54.8596072,25.8934877 C54.7361363,25.1461951 54.4306583,24.3621659 54.3154819,23.7390665 L54.2642699,23.4578 C54.0706275,22.3749271 53.9168296,21.2412368 54.1180706,20.1621112 C54.1858493,19.7973528 54.5458346,19.471227 54.8953925,19.3844813 C55.1067861,19.3323391 55.2757588,19.330206 55.4871524,19.3844813 C55.8471377,19.4773892 56.1815283,19.7935606 56.2644743,20.1621112 C56.5995758,21.6538523 56.5851195,23.2238067 56.8986551,24.7356937 L56.937863,24.9295532 C57.1786581,26.1535333 57.2664848,27.3063163 56.6275404,28.4413455 C56.3398366,28.9523391 55.6229468,29.1426582 55.1217164,28.8362042 C52.9878731,27.531701 51.6796973,25.4367694 50.8819945,23.11099 C50.5019928,22.0033692 50.2134475,20.8582461 49.9455769,19.7156815 L49.7550616,18.89851 C49.5380864,17.9963939 48.7205744,14.7477895 48.3500108,14.9438614 C48.1886217,15.028948 48.0483246,14.8317557 48.1616051,14.6995041 Z" id="ðŸ–-Ink" fill="#000000"></path>
                    </g>
                    <g id="facial-hair/*-None" transform="translate(29.211196, 80.109389)"></g>
                    <g id="face/With_Mask/Cheers" transform="translate(37.760814, 44.083865)" fill="#000000">
                        <path d="M23.7904904,29.4295554 C23.2140887,29.0616779 22.5360544,28.9354036 21.7845956,29.2765915 C21.1973605,29.5430951 20.1674164,30.4315401 19.4506436,31.5994552 C18.960275,32.3984655 18.6125478,33.3358092 18.6849399,34.3121662 C18.7017521,34.538914 18.6177974,34.7061021 18.4853746,34.8297194 C18.3807902,34.9273496 18.2297212,34.9990987 18.0522815,35.021528 C17.901636,35.0405704 17.7330166,35.0233917 17.5959114,34.9806862 C17.3351013,34.899449 17.1970682,34.7306112 17.14506,34.5927708 C16.6431951,33.2626489 16.8594038,31.7783147 17.4218677,30.4391845 C18.1809468,28.6319474 19.5594554,27.1181611 20.4626124,26.6300974 C22.0081028,25.7946248 23.8313474,25.7561725 25.3790501,26.6073095 C26.6965316,27.3317244 27.5203231,28.5012649 28.3396421,29.6934221 C28.5138106,29.9468475 28.6866748,30.1984148 28.8653336,30.445557 C29.223384,30.9407763 29.2590229,31.4319284 29.1203638,31.8530948 C28.9667545,32.3196708 28.5750831,32.7134302 28.085306,32.9194976 C27.6326201,33.1099594 27.1072195,33.1367702 26.6423013,32.9410746 C26.2495562,32.7757584 25.889123,32.453494 25.6610581,31.9066931 C25.2769514,30.9858138 24.636993,29.9698198 23.7904904,29.4295554 L23.7904904,29.4295554 Z M53.064815,31.4783372 C52.6700574,31.6836115 52.3612219,31.7455028 51.9233189,31.6145683 C51.6811594,31.5419786 51.441824,31.4028565 51.2544451,31.2158558 C51.0687422,31.0305278 50.9347578,30.8000579 50.882678,30.5443835 C50.7545889,29.9133856 50.4086475,29.3227307 49.9156664,28.9376816 C49.4943067,28.6085732 48.9624553,28.4341379 48.3725317,28.5325475 C47.7359591,28.6385984 47.1294691,29.046037 46.7117586,29.5263979 C46.5721476,29.6871354 46.462712,29.8696877 46.3526918,30.0510077 C46.1468816,30.3900963 45.9468419,30.7052875 45.6629993,30.9543096 C45.5554039,31.0490551 45.393274,31.1146763 45.2362444,31.1146763 C45.1724235,31.1146763 45.1076543,31.1043123 45.0459353,31.0851156 C44.412341,30.4504747 44.2904956,29.9690345 44.3109227,29.4915098 C44.3323435,28.9907546 44.5301667,28.4837449 44.8498503,28.0106899 C45.5997493,26.9010192 47.0235564,25.9911926 47.9843525,25.7851126 C49.3001563,25.5029208 50.6069067,25.8416733 51.6545989,26.575097 C52.7326127,27.3297469 53.5314183,28.5014121 53.7804622,29.8218209 C53.8403738,30.1398302 53.8149148,30.4830853 53.6935596,30.7807022 C53.5749771,31.071519 53.3683278,31.320598 53.064815,31.4783372 Z M26.6924446,17.5986223 C25.9028034,18.3664153 24.9681939,18.4853439 24.0226832,18.5911231 C23.4973339,18.6504499 23.077948,18.6982757 22.6652541,18.791208 C21.530923,19.0467446 20.4096749,19.4316102 19.3867197,19.9858906 C18.3173848,20.5653256 17.1520527,21.2641228 16.3136834,22.1593358 C16.1143287,22.3723643 15.9264052,22.5958926 15.7382192,22.8199103 C15.5666198,23.0241865 15.401316,23.2208443 15.2271021,23.4104621 C15.0270296,23.6282626 14.837039,23.8565324 14.6480583,24.0842058 C14.5312018,24.2763159 14.5081182,24.3235653 14.4845858,24.372752 C14.4491738,24.4466621 14.407982,24.5293761 14.3609351,24.6181117 C14.2965029,24.739638 14.221032,24.872669 14.1419901,24.9932813 C14.0104822,25.2137395 13.9399176,25.2744647 13.8789422,25.3016264 C13.7777632,25.3465969 13.6818091,25.3687502 13.5887182,25.3567537 C13.5014325,25.3455053 13.4191999,25.3036676 13.337994,25.2351781 C12.9325864,24.8933425 12.8130216,24.3323472 12.8252763,23.7368492 C12.8438727,22.833187 13.1778519,21.8326683 13.4857301,21.2176248 C14.2016082,19.7885258 15.1944344,18.3028853 16.3882491,17.2362786 C17.7504996,16.0187665 19.2408469,15.0970474 20.9526639,14.4619202 C22.016458,14.0670852 23.2481446,13.7046655 24.4071075,13.7504442 C25.2413281,13.7833957 26.0377106,14.0308741 26.6953966,14.6488919 C27.0992543,15.0282755 27.2931169,15.5679098 27.2931169,16.1071619 C27.2931169,16.6571554 27.0917688,17.2103968 26.6924446,17.5986223 Z M54.6707678,24.6295088 C54.6205511,24.7116459 54.551046,24.7682494 54.4737075,24.802245 C54.3926334,24.8378826 54.3021239,24.8481473 54.215267,24.8335417 C54.1287946,24.8190007 54.0465972,24.7798814 53.9813953,24.7200968 C53.9189004,24.6627944 53.8713118,24.5867983 53.850033,24.4936966 C53.3257732,22.19576 52.3077914,20.4860609 50.1350353,19.3835453 C49.0662243,18.8411802 47.8371928,18.4965821 46.6737158,18.2218368 C46.3356154,18.1419889 45.9783613,18.0902531 45.6185845,18.0378278 C44.491018,17.8735231 43.3553156,17.6853553 42.6202379,16.7757659 C42.177317,16.2278619 41.9914291,15.5271519 42.0965294,14.8863226 C42.1954871,14.2829467 42.548783,13.7296937 43.1910166,13.398147 C44.7899106,12.5731265 46.7768483,13.3826875 48.3914734,14.0723224 C48.5112453,14.123479 48.6288179,14.1736975 48.7438567,14.2221526 C50.3228344,14.8873042 51.7629455,15.7652894 52.9467431,17.0209076 C53.8860308,18.0170339 54.7562938,19.4896248 55.1067903,21.0045136 C55.3983907,22.2648463 55.3298259,23.5514729 54.6707678,24.6295088 Z" id="ðŸ–-Ink"></path>
                    </g>
                    <g id="mask/*no-mask" transform="translate(5.462256, 66.599818)"></g>
                    <g id="accessories/Glasses-5" transform="translate(11.162002, 57.119417)" fill="#000000">
                        <path d="M83.8302901,25.2167767 C80.2660492,26.9298851 75.2934962,24.4031212 72.8969907,21.7564303 C72.0246921,20.7927475 71.3516472,18.0356098 71.6872197,16.2869499 C72.5960916,11.5512525 76.0111891,8.70902826 79.6165157,7.7384722 C84.6142426,6.39272926 89.643793,9.80188149 89.0574317,13.8248897 C88.501469,17.63767 87.6590941,23.168299 83.8302901,25.2167767 M59.5705106,16.1198578 C59.2848109,21.2807511 55.1318338,25.7979253 50.1683053,27.1363209 C42.1710874,29.3632671 38.2187888,23.7530027 36.4285937,17.70901 C36.2507142,17.1084266 35.8324953,15.2753911 36.9546327,13.7030665 C41.3678982,7.51828988 52.1055064,8.57251048 57.4684919,10.2704503 C59.0382969,11.7685907 59.6799932,13.9308332 59.5705106,16.1198578 M87.7027922,7.2184722 C87.7004173,7.22155333 87.6975674,7.22416044 87.6951925,7.22724157 C87.6769059,7.2161021 87.6588567,7.20472562 87.640095,7.19382315 C87.6607566,7.20235552 87.6826056,7.20970283 87.7027922,7.2184722 M94.3938185,7.81502644 C93.9292892,2.56051413 77.4088142,4.57249225 75.477313,5.00313947 C70.2059983,6.55034093 65.6530891,10.759639 59.7595522,8.90930173 C53.6529873,2.11588332 33.0890178,4.06410574 28.7781103,7.52468915 C27.9620967,7.20519964 26.969866,7.37655789 25.9185004,7.67803464 C20.5194165,7.48344941 -4.12818321,9.34089699 0.91324173,16.2177429 C1.67843257,16.7474603 2.44291094,16.2084995 2.4640475,15.1173054 C28.7453367,5.64946582 26.197788,14.51767 29.3145988,13.4819362 C29.7905276,13.618691 30.2871179,13.7051996 30.721486,13.7962115 C33.1339033,14.5707603 33.9530042,14.3313801 34.2707651,17.0340055 C36.4540051,37.9029754 64.3008244,30.7002407 62.0168889,13.5824284 C64.2782629,13.4582352 66.2563121,12.4824649 68.6475929,13.4352452 C70.3078813,29.5606964 83.3106633,30.211526 87.2237761,24.6216445 C90.1745818,20.7417903 89.0044716,14.8866946 93.060553,11.8344795 C94.6617065,13.1716901 94.7647769,8.65854512 94.3938185,7.81502644" id="ðŸ–-Ink"></path>
                    </g>
                </g>
            </g>
        </g>
    </g>
</svg>