<?xml version="1.0" encoding="UTF-8"?>
<svg width="222px" height="686px" viewBox="0 0 222 686" version="1.1" xmlns="http://www.w3.org/2000/svg" xmlns:xlink="http://www.w3.org/1999/xlink">
    <!-- Generator: Sketch 62 (91390) - https://sketch.com -->
    <title>doc-nurse-2</title>
    <desc>Created with Sketch.</desc>
    <g id="Introduction" stroke="none" stroke-width="1" fill="none" fill-rule="evenodd">
        <g id="doc-nurses-covid-19" transform="translate(-647.000000, -177.000000)">
            <g id="a-person/standing" transform="translate(611.000000, 122.000000)">
                <g id="pose/standing/doctor-nurse-03" transform="translate(-28.736217, 150.264357)">
                    <path d="M107.935464,589.246888 C99.9900187,589.246888 92.031274,587.720306 84.3344801,586.242312 L84.0611298,586.180926 C80.851698,585.460179 77.5327837,584.715019 74.6095267,583.314053 C71.0991959,581.568948 68.4383647,578.252467 67.1357354,573.98439 C65.5882545,568.914983 66.1344801,563.019358 68.5592468,558.58419 C69.082436,557.77883 69.6094249,556.974418 70.1368889,556.169294 C75.0797557,548.624791 80.1910025,540.823369 82.5663715,531.679048 L83.4006718,528.467799 L80.5258626,530.01429 C80.4926141,530.032303 80.4479661,530.050552 80.3681696,530.050552 C79.7699338,530.050552 78.4423681,529.153232 76.9295606,527.184864 C70.9787888,517.318848 71.8468126,504.952139 72.6865751,492.991902 C72.9214521,489.646742 73.1432672,486.486213 73.225201,483.353178 C75.700553,450.567818 84.6208923,418.376879 93.2476947,387.245138 L94.5033011,382.710662 C101.060858,357.47336 104.757143,332.164955 105.495735,307.465666 C105.694514,302.111373 106.074735,295.922804 108.075108,290.375821 L108.463165,289.300033 L107.532682,288.661054 C103.584896,285.948711 102.382962,280.558866 101.322572,275.803497 L101.24515,275.456514 C99.4236064,267.39841 98.1271518,257.319322 104.313513,250.8179 L105.299332,249.781692 L102.999959,247.453779 L101.999179,248.556113 C101.940757,248.620343 101.834599,248.674855 101.741978,248.691209 C91.3335301,222.147745 85.7387549,192.478356 84.638704,157.994819 C83.5519525,123.924627 87.0822324,90.286031 90.2807396,64.78233 C92.0588227,53.5873984 93.4956336,45.7930866 97.0962103,39.7061951 C100.902215,33.2727949 107.201147,28.9682188 117.520299,25.7491486 L117.577534,25.7299508 C120.075922,24.8312088 122.688305,23.9784467 125.214955,23.1534148 C137.230256,19.2313728 149.654751,15.1751832 157.705167,4.08548405 C157.758365,4.01319599 157.812512,3.96223883 157.852411,3.93213856 C164.751953,6.66225706 172.625201,7.98998724 181.915549,7.98975023 C185.871647,7.98975023 190.143844,7.75866545 195.308526,7.26497356 C198.74476,11.1545451 206.480027,18.8523938 213.858585,18.8521568 C214.127661,18.8521568 214.397449,18.8414913 214.660112,18.8208715 C215.471851,18.7670702 216.304251,18.739103 217.11694,18.739103 C229.142928,18.739103 239.447355,24.7354567 247.744522,36.5620201 C254.210646,45.778629 259.335668,58.6165141 262.175566,72.7107894 L262.189815,72.7745451 C265.971121,88.0382279 267.149544,104.000379 268.289255,119.437079 C268.486609,122.111974 268.69085,124.878119 268.905303,127.597809 L268.90934,127.641892 C269.799213,135.811391 271.483013,143.943205 273.111715,151.807198 C273.870969,155.472795 274.655871,159.263059 275.347678,162.998574 C275.928339,167.114016 277.072563,172.409294 278.397042,178.538137 C282.011393,195.262749 286.961147,218.168109 281.751579,227.574563 L281.601486,227.845466 L281.57275,228.155475 C281.288475,231.216222 280.90113,234.732266 279.893225,237.729969 L279.768305,238.102075 L279.843115,238.488401 C279.975159,239.166487 279.352936,239.692175 277.908288,240.614381 C277.701198,240.746633 277.499569,240.875566 277.310528,241.00284 L276.570511,241.501036 L276.679993,242.400726 C277.794768,251.552157 276.423505,260.864755 272.818416,268.626596 C271.323895,271.612923 268.827881,276.584682 265.373123,276.584682 C265.030426,276.584682 264.674192,276.536332 264.314395,276.44058 L263.708797,276.279887 L263.183233,276.627107 C262.691393,276.952047 262.045897,277.110133 261.210171,277.110133 C260.286813,277.110133 259.28912,276.922421 258.323963,276.741108 C258.050612,276.689677 257.783912,276.639431 257.526236,276.594873 L256.191783,276.363789 L255.897534,277.71522 C250.192088,303.921418 245.837483,332.638264 242.584115,365.505867 C239.696007,394.686304 237.94761,424.039048 236.266185,454.050443 C234.663606,473.332868 232.605998,493.741564 226.723148,512.674636 L226.446236,513.566031 L227.122606,514.194819 C232.39772,519.100689 239.010137,521.657553 245.404777,524.130279 C250.632394,526.151737 256.038127,528.242166 260.55755,531.595384 L260.593174,531.620744 C269.772377,538.003898 280.17465,545.237681 284.060451,556.284481 C285.15789,560.305593 284.748458,563.657152 282.843081,566.247672 C279.935973,570.200288 273.301232,572.588401 265.09526,572.636514 L265.040875,572.636988 L264.986728,572.641254 C259.726338,573.083989 254.481147,573.308438 249.396974,573.308438 C241.003623,573.308201 232.814751,572.698374 225.057873,571.495785 L225.021062,571.490334 C218.172105,570.614582 211.281825,568.875639 204.618348,567.193816 C200.856041,566.244591 196.965727,565.262895 193.139535,564.45161 C188.441045,563.362312 184.091427,560.663242 180.890545,556.850461 C177.602979,552.934108 175.832258,548.138447 175.904455,543.346815 C175.968102,538.214126 178.063946,532.029349 182.602368,529.773251 L185.74554,528.210881 L182.430901,527.079158 C180.560434,526.44089 179.735871,524.504755 178.781401,522.26264 C178.390731,521.345411 177.986999,520.397134 177.490646,519.530625 C173.476838,510.835201 170.358365,501.340817 168.22096,491.307471 L168.207661,491.250352 C162.113445,467.325138 166.189713,442.921163 170.1318,419.32089 C173.561622,398.786341 177.108288,377.553087 174.082198,356.461564 L171.294073,356.303953 C167.021639,372.997517 163.968,390.587216 161.015057,407.597426 C157.435617,428.215402 153.734344,449.535639 147.822996,469.57223 C141.209628,491.987216 132.478093,510.340799 121.129187,525.682221 L120.527864,526.495165 L121.067678,527.351956 C121.116601,527.429459 121.136075,527.479705 121.143674,527.50388 C121.017092,527.766013 120.146456,528.320379 119.054005,528.467325 L118.450307,528.548146 L118.090273,529.051081 C116.286304,531.570024 118.386897,534.774636 119.642029,536.689203 C119.860282,537.022202 120.06666,537.336715 120.212953,537.585812 C121.952801,540.544645 123.546592,543.534053 124.740926,545.807927 L125.168882,546.598593 C128.389713,552.543041 132.398297,559.940835 133.954802,567.058246 C135.704149,575.056624 133.996601,581.118155 128.73526,585.586742 C126.599756,587.205521 124.028933,588.133178 121.676363,588.133178 C121.086202,588.133178 120.50459,588.075821 119.947678,587.962294 L119.642504,587.89996 L119.339942,587.973907 C115.817737,588.830461 112.087254,589.246888 107.935464,589.246888" id="ðŸ‘•-Clothes" fill="#8FA7DF"></path>
                    <path d="M132.00017,244.633858 C131.962646,243.952691 132.562782,244.225727 132.682002,244.697613 C133.731705,244.990321 134.504733,246.141479 134.260831,247.218689 C138.226667,252.85858 144.123291,257.562992 144.720577,264.84868 L144.732869,265.196721 C144.901878,270.769061 143.50113,270.883022 138.59335,272.233438 C138.319288,277.495535 138.018863,282.755499 137.816522,288.020913 C137.77045,289.217103 136.866565,290.198325 135.675318,290.21136 C131.786192,290.254496 127.89849,290.127933 124.011026,290.030995 C117.796641,289.34177 109.646718,291.707367 105.143444,286.13621 C100.456353,276.624997 96.7510433,260.213001 103.663647,251.07816 C105.906497,248.67322 109.650517,249.340403 112.589211,249.101734 C119.245564,248.610886 125.7295,246.890904 132.00017,244.633858 Z M260.971043,246.246261 C271.934504,247.518531 276.301459,239.55926 277.847752,243.527045 C278.84972,246.784985 277.081374,250.402706 276.121204,253.469141 C273.271807,261.285495 272.190755,272.267118 263.78648,275.999789 C259.141662,277.555522 256.280153,274.172204 258.307125,269.622797 C260.266175,262.699497 259.480085,255.500791 258.581187,248.513262 C257.369517,247.092149 259.644427,244.799789 260.971043,246.246261 Z M163.977856,-5.99400729 L164.600882,-6.0500692 C172.813321,-6.77931634 181.384166,-7.14077885 189.470443,-5.21685141 C193.087169,-3.08826436 193.581622,1.88230994 195.370867,5.43959344 C195.845846,6.66683136 194.35085,7.36103373 193.489713,6.77277484 C187.461282,9.14643026 181.799535,8.74659435 175.568763,7.77366819 L174.881599,7.72229359 C169.447211,7.32730771 163.709586,7.1415176 158.698229,4.7060474 C156.99828,3.39941112 159.042589,0.759119417 159.224268,-0.953989061 L159.275428,-1.19084952 C159.837625,-3.71340409 160.941906,-6.08524897 163.977856,-5.99400729 Z" id="âœ‹-Skin" fill="#D08B5B"></path>
                    <path d="M104.472299,529.746279 C108.110161,529.895358 113.1124,527.734301 116.03257,530.564912 C116.159389,530.475085 116.36933,530.553061 116.435589,530.713517 C117.362748,532.963216 118.496997,535.17452 119.56665,537.356671 C123.962341,547.191876 131.211705,555.883982 132.464224,566.926753 C133.435556,575.684273 128.163291,588.177783 118.10799,587.149397 C104.819508,587.022596 91.3500594,586.087355 78.557218,582.174793 C75.2045802,583.101028 71.601391,579.688321 69.9710263,577.042341 C65.7693639,570.223088 68.8766751,561.859716 72.3349958,555.499789 C76.1588126,548.941721 79.1421544,541.963435 81.6704665,534.792933 C81.0026463,533.969324 81.1458524,532.32163 82.3779474,532.134392 C84.4640543,531.970855 86.3665818,531.202706 88.490687,531.306279 C93.8047498,530.660664 99.1420865,530.190199 104.472299,529.746279 Z M226.588373,515.167176 C228.304472,511.540448 230.548034,516.406501 231.883674,517.877149 C238.710545,523.442855 248.554243,523.669437 255.545455,529.210494 L256.006868,529.511989 C258.744221,531.291025 261.808318,533.147849 263.650731,535.867869 L264.11792,536.193278 C271.791839,541.547166 281.509858,548.810768 282.856024,558.706392 C283.172122,559.120211 283.368051,559.646611 283.425048,560.207613 C283.113225,575.39095 260.958314,570.305189 251.141215,570.741998 L249.605043,570.675042 C233.036433,569.97192 216.094536,569.796691 200.5023,563.279263 C198.072071,564.182035 195.118653,563.628853 192.744234,562.636255 C186.488526,560.880485 181.175413,556.515234 179.712953,549.8261 C177.692631,543.371132 179.414192,530.412135 186.365744,527.957659 C190.138738,526.728999 194.19102,526.6925 197.93124,525.273521 C201.695209,524.052682 205.277025,522.344788 208.85029,520.642345 C214.417754,518.392645 220.425286,514.127887 226.588373,515.167176 Z" id="ðŸ‘Ÿ-Shoes" fill="#FFFFFF"></path>
                    <path d="M156.561679,3.21750593 C156.938338,2.69869098 157.567447,2.28107931 158.234792,2.5197484 C170.362663,7.3462206 183.43313,6.9655825 195.891349,5.74213674 C199.847922,10.6302315 204.938982,14.5259654 210.65464,16.9467858 C211.42553,16.8133491 212.216132,16.7998396 212.999135,16.9188186 C213.622782,17.0136226 214.23598,17.1833218 214.848702,17.3568131 C221.333825,17.0633947 227.855997,18.4344977 233.659288,21.4601677 C251.726293,31.4058195 259.088227,53.1593108 263.572265,72.4154275 C268.038965,90.4559198 268.869466,109.019493 270.325276,127.47973 C271.622918,139.387351 274.576573,151.000368 276.752214,162.756066 C278.973927,178.269794 290.350857,215.602665 282.990823,228.292182 L282.937365,228.858597 C282.637377,231.984141 282.229391,235.268749 281.241238,238.204653 C281.532875,239.706348 280.451111,240.660788 279.299288,241.437469 C279.511128,242.545017 279.257727,243.982009 279.248702,245.001152 C279.234453,246.64458 279.172943,248.189174 278.880831,249.806531 C278.827634,250.10066 278.658304,250.247606 278.458575,250.287898 C278.258134,256.837433 276.840797,263.371088 274.097795,269.270505 L273.800463,269.861049 C271.85803,273.693431 268.777664,279.132824 263.956047,277.851216 C262.157065,278.919657 258.995131,278.845947 257.352417,277.617524 L256.918833,279.836001 C249.860508,316.075666 243.973699,352.539892 241.821323,389.491234 C239.237201,421.558454 239.001137,453.867661 234.186751,485.714935 L234.018284,486.7407 C232.550841,495.632377 230.87943,504.563403 228.081137,513.11685 C232.25715,517.519548 238.163036,519.643158 243.678728,521.704908 C249.868889,524.018363 255.794724,526.835464 261.395199,530.415026 L262.818693,531.406492 C271.87642,537.731755 281.620841,544.977906 285.417489,555.840277 C289.176709,569.822921 276.032383,573.97107 265.103834,574.094552 C251.735081,575.218691 238.118863,574.994716 224.844394,572.936758 C216.72569,571.670448 208.643516,569.948318 200.713258,567.757332 L200.013927,567.562793 C198.858541,567.238089 197.616709,566.991599 196.564156,566.377032 C195.262477,566.347643 193.943223,566.126986 192.840797,565.87623 C182.737286,563.54334 174.317099,554.191872 174.480492,543.3252 C174.549839,537.756175 176.804563,531.035993 181.978745,528.462064 C180.06933,527.896795 179.043376,526.274935 178.297897,524.502337 C177.583528,523.085965 176.894334,521.656321 176.230789,520.213878 C172.016777,511.096576 168.925377,501.466859 166.829771,491.618144 C156.76307,452.108335 173.835233,412.820131 173.809822,373.295154 C173.653079,372.328153 173.530297,371.355227 173.416302,370.379457 C173.203986,368.558509 173.292332,366.715756 173.040831,364.895045 C172.816166,363.267734 172.371824,361.757506 171.767651,360.308901 C158.080899,416.377889 157.568634,478.844252 122.264648,526.561954 C123.456607,528.451398 120.917371,529.686458 119.239271,529.91375 C117.781561,531.948007 120.453554,535.166603 121.434148,536.834917 C123.029364,539.548919 124.530534,542.328572 125.994894,545.118655 L127.004458,546.982356 C133.533065,559.056493 142.210136,576.075423 129.615182,586.733349 C126.835606,588.853641 123.142409,590.098892 119.669839,589.390943 C115.766701,590.490669 111.699457,590.817269 107.655013,590.634297 C99.719067,590.45891 91.8061578,589.374115 84.050229,587.672146 L82.9470402,587.423721 C79.9065688,586.735632 76.8232084,585.98523 74.0039525,584.635099 C64.6392706,579.977378 62.5011535,566.609539 67.3445123,557.821444 C68.9677523,554.732255 71.2193893,552.057834 73.086056,549.129338 C76.58,543.649192 79.3329771,537.570596 81.1901442,531.305473 C80.7643257,531.610031 80.1820017,531.691088 79.5650042,531.3588 C66.8835454,523.568281 71.4442918,496.505765 71.8019508,483.276576 C74.4048346,448.76128 83.960933,415.464215 93.132536,382.314097 C99.4870399,357.859639 103.312519,332.723778 104.07201,307.420824 L104.094832,306.825987 C104.323493,301.073231 104.799559,295.249071 106.738304,289.87118 C102.626709,287.045783 101.241481,281.915808 100.167306,277.175136 L99.8553859,275.782593 C98.7935708,271.082684 97.9704326,265.823431 98.5005089,260.898363 C98.3715522,260.791234 98.2936556,260.628171 98.3207294,260.412966 L98.4655559,259.247823 C98.6890082,257.475544 98.9428499,255.764345 99.5585242,254.050906 C99.942782,252.981517 100.336539,251.916868 100.792757,250.876868 L100.972833,250.464796 C101.03363,250.327419 101.096031,250.190605 101.162528,250.056102 C100.873978,249.939967 100.625802,249.716941 100.472383,249.361663 C84.331179,210.220879 82.2122986,166.99973 83.7500424,125.053222 L83.7913896,123.542557 C84.4888809,98.8659833 86.2890938,74.0781335 91.7144869,49.972474 C94.1615776,35.4195843 104.119271,28.4934403 117.105428,24.3538232 C126.07469,21.1274057 135.758796,18.7298122 144.056675,14.0621367 L144.142235,13.9075399 C144.732883,12.857416 145.453394,11.9431017 146.739593,11.5898851 C147.18631,11.4671139 147.660814,11.4346436 148.119881,11.4960292 C151.265191,9.26197265 154.125988,6.57190884 156.561679,3.21750593 Z M118.161306,530.124452 C111.873299,531.533951 105.407651,531.058509 99.0267854,530.845674 C97.031162,534.705382 95.7679559,538.959001 94.7961493,543.185127 C93.8324173,549.646494 90.1318575,547.679074 92.2799491,542.253914 C93.6227142,538.038691 95.9239864,534.265491 98.5969296,530.831927 L98.0683911,530.816059 C92.6046743,530.659893 87.0783079,530.760402 81.8686514,532.503322 C81.7610687,542.548518 76.6550466,551.158381 71.3500085,559.251088 C67.0588126,566.788955 69.4030704,578.959657 78.4668533,581.293021 C91.0229177,585.474826 104.29525,585.67984 117.331518,586.45581 C117.636217,585.138509 119.137863,584.645765 120.340509,584.794844 C123.703121,585.38334 127.165242,583.551253 129.132366,580.791508 C137.109398,567.993677 123.485106,551.982702 119.622103,539.663395 L119.527856,539.436205 C118.474505,536.929762 116.260567,532.591276 118.161306,530.124452 Z M158.365886,5.76180857 C156.22112,8.93489881 153.569075,11.5228113 150.580746,13.7030665 L150.643039,13.784756 C150.653761,13.7981076 150.664818,13.8112221 150.676455,13.8239417 C150.99564,14.1735314 151.473469,14.0391468 151.940373,14.1981805 C152.509398,14.3920547 152.890331,15.1014257 152.525785,15.6704868 C151.878626,16.6808605 150.682629,16.7548077 149.669262,16.2229572 C149.248431,16.0020638 148.854198,15.6920547 148.567786,15.3047803 C148.531925,15.2561933 148.499389,15.2016809 148.468516,15.1433765 C130.746344,26.453732 103.432214,25.9083719 96.6138931,44.4693382 C88.4991179,72.9321094 87.6408312,103.060824 86.9100763,132.528518 C85.618134,171.504106 89.0256319,210.970541 103.115403,247.511088 L103.819726,247.563071 C106.282716,247.742288 108.725191,247.885425 111.208561,247.756537 L111.851688,247.719183 L111.851688,247.719183 C119.049279,247.142775 126.13145,245.28272 132.299763,241.305692 C131.635267,241.443632 130.980746,241.013696 130.785293,240.355045 C129.695691,237.682757 132.046599,235.369776 132.819152,232.929758 C140.237846,216.449739 138.33698,198.10303 136.647956,180.610979 C134.93257,155.556175 135.042765,130.267679 138.295657,105.345601 L138.597496,103.073952 C139.164598,98.8241094 139.779448,94.5341226 140.899016,90.4168131 C140.974063,90.1409335 141.375895,90.2025561 141.380407,90.4834129 C141.364495,91.950979 141.330772,93.4187821 141.284699,94.8861112 C141.918558,93.4536226 142.647888,92.0185269 143.917744,91.0963209 C144.380611,90.7600036 145.06363,91.3221914 144.882663,91.855227 C144.357812,93.3998213 143.358456,94.7104868 142.707973,96.2072051 C142.061527,97.694917 141.601035,99.2686636 141.178304,100.836011 C141.118694,101.057852 141.062646,101.280879 141.004936,101.503905 C140.610466,109.248445 140.040967,116.993696 139.934572,124.744397 C137.923274,154.709101 143.337795,184.500077 142.464784,214.346749 C147.743461,213.655865 153.02285,214.953969 158.272078,215.381772 C177.708685,217.505382 197.426005,217.428828 216.731518,214.10334 C218.360696,213.57623 222.015657,213.9955 220.420679,216.442866 C219.299254,217.601845 217.816132,217.608244 216.314249,217.836248 C211.985768,218.491818 207.638762,219.021772 203.278219,219.398618 C187.645242,220.728718 171.837472,220.285036 156.357676,217.612985 C151.705496,216.721353 147.084427,215.646038 142.391162,215.005163 C142.20592,216.589575 141.960594,218.168062 141.674419,219.734461 C161.870042,227.200751 183.581086,225.716357 204.587023,223.987132 C205.819118,224.009174 206.16229,226.001717 204.885785,226.24726 L202.356057,226.473042 C182.055272,228.276025 160.30455,229.853434 141.507701,220.617324 C140.238321,227.13107 138.036081,233.481517 135.038015,239.373586 C136.029059,238.23025 138.888668,238.729156 138.247684,240.630687 C138.252434,241.802465 136.953367,242.637214 135.644801,243.33829 L135.633621,243.473224 C135.584021,244.034429 135.499695,244.573042 135.493757,244.720295 C135.43391,246.21251 135.995573,247.498053 136.186039,248.91798 C137.947023,250.952237 140.114351,252.693076 141.936132,254.63087 C146.107871,259.231234 147.790958,266.137469 145.440288,272.057743 C145.154589,272.777305 144.692909,273.168372 143.918694,273.24303 C142.411349,273.229521 141.027735,274.847588 139.560051,274.387077 C139.877337,277.848609 140.052604,281.300186 140.195335,284.766458 L140.233965,285.16395 C140.440666,287.386397 140.520573,290.170063 138.904105,291.695446 C138.771111,291.938367 138.544712,292.13468 138.208277,292.229453 L138.139389,292.246968 L138.139389,292.246968 C137.989771,292.328026 137.832316,292.402684 137.662986,292.468335 L137.533316,292.375665 L137.533316,292.375665 C135.639101,292.76128 133.727549,292.887132 131.802697,292.722884 L131.573244,292.751914 C129.303424,293.025918 126.659642,292.966865 125.875437,293.018673 C119.783359,292.699183 113.076183,293.270614 107.522019,290.360605 C105.570331,298.315847 106.370195,306.759566 106.250975,314.878582 C106.130806,323.170377 105.544919,331.433495 104.579763,339.665564 C101.00531,373.019274 89.6231552,404.657032 82.5063104,437.25468 C77.375352,461.610778 73.7443766,486.62695 75.0415437,511.595719 C75.2738083,514.849867 75.7775233,518.094771 76.8550127,521.176613 C77.8472434,524.014571 79.5987277,526.534935 81.4677693,528.83654 C81.8149788,529.263632 81.921374,529.751161 81.8555895,530.195318 C82.0270568,530.701572 81.866039,531.332966 81.8971501,531.875008 C93.0551145,526.026312 106.163579,530.343923 117.872757,526.831909 C117.962528,525.697816 118.369822,524.446877 118.831739,523.405218 C128.673299,509.772164 136.055182,494.406567 141.562324,478.451052 C152.978677,445.595774 156.845954,410.762884 163.800831,376.786312 C170.808668,342.999821 181.269364,309.507697 198.847854,279.832383 C198.977048,279.612438 199.267973,279.805127 199.17464,280.027679 L198.28492,282.211274 C188.705309,305.753072 179.463684,329.54461 173.280696,354.28458 C186.425734,406.940149 153.095997,454.761426 177.729347,510.601462 C178.775725,513.20241 179.907837,515.770177 181.112858,518.297889 C181.897761,520.515592 184.520594,523.749356 184.327752,525.911836 C193.665835,527.839912 201.455488,521.101006 209.228991,516.998837 L209.469441,516.893355 C212.127018,515.710642 216.876346,513.102025 219.447447,514.553841 C221.038151,515.607825 220.668855,518.089083 219.292366,518.827606 C221.03812,520.447415 222.736288,522.214898 224.215194,524.105579 L224.415488,524.36416 C225.98648,526.412638 227.865971,528.207041 228.635199,530.763194 C228.887651,531.601736 227.935318,532.272 227.228787,531.86932 C224.914928,530.550596 223.561476,528.125036 222.139627,525.93293 C220.749839,523.789648 219.648126,521.412201 218.836862,518.994935 C212.216607,519.270104 205.849042,524.511344 199.819423,527.211836 C196.460611,533.036357 195.777829,539.839493 195.947159,546.464871 C193.454232,551.393969 190.112994,535.524489 198.313978,527.937798 L198.025132,528.058679 C193.586389,529.892988 188.702474,530.831261 184.023528,529.121663 C184.11045,529.299183 184.111399,529.925127 183.761103,529.676977 C182.821595,528.520131 180.655929,532.993222 180.392791,533.579584 C174.556251,545.576084 181.765479,558.931599 194.254572,561.758892 C195.052536,559.727242 198.135386,560.160496 197.156217,562.429393 L197.182693,562.47532 C197.187698,562.483589 197.193028,562.492201 197.198728,562.501207 C198.404224,562.856485 200.309364,562.876157 200.766293,564.230906 C217.823969,568.903085 235.568702,570.629466 253.197065,570.487023 C260.930433,569.813203 278.170263,571.680605 281.708617,563.189484 C284.449483,552.949703 273.103664,544.192656 266.325242,538.427624 C261.929075,534.923668 257.175725,531.8487 252.206972,529.267661 C243.718388,524.858089 233.344614,522.214005 227.830348,513.627606 C227.371756,514.473969 226.773045,515.248044 226.228719,516.036813 C225.332434,517.335391 223.141832,516.965892 223.158694,515.185947 C222.938066,512.551581 223.512553,510.022684 224.36229,507.557305 C235.57179,466.05685 233.815793,422.555792 238.026718,380.032875 L238.407441,375.89157 C240.288244,355.527961 242.332449,335.138613 245.951739,315.015336 C253.075233,280.459985 260.762053,254.40808 250.533622,219.050687 L249.514224,219.273443 C245.832454,220.074076 242.027633,220.819292 238.289856,220.164397 C238.147362,220.135482 238.156624,219.913878 238.289856,219.879037 C241.072757,219.174644 243.96894,218.944033 246.730941,218.108572 C245.705937,217.351562 246.089958,215.835646 246.187566,214.718855 L245.462658,214.813593 C233.853737,216.323189 233.536629,215.984043 238.767684,214.243413 C238.676489,214.250049 238.58553,214.25953 238.494097,214.264981 C238.332604,214.274461 238.327379,214.047169 238.458711,213.996448 C240.312553,213.281389 242.225293,212.734607 244.101934,212.084252 C245.006768,211.770687 245.904953,211.437451 246.796489,211.086439 L246.881747,211.051125 L246.881747,211.051125 C258.769754,159.491964 247.575691,106.769557 241.533723,55.2179799 C241.514724,55.006567 241.83011,54.9795479 241.884495,55.1693929 C254.386887,105.67623 262.60117,159.438399 251.708007,211.020314 C252.151874,210.859147 252.592417,210.773586 253.026548,210.760788 C253.751342,209.730718 254.724288,208.805277 255.629945,207.961484 L255.928906,207.683212 C256.884326,206.793477 258.024037,205.828846 259.243545,205.289411 C261.118015,203.850652 263.280694,202.789655 265.528023,202.182898 L265.726531,202.130541 C267.097557,201.776923 268.749534,201.410742 270.022714,202.263741 C275.071976,206.147624 262.566022,212.993422 259.560356,214.016594 C262.697116,215.26303 268.755471,219.478964 267.011586,223.501973 C265.70207,226.278782 262.775013,225.105345 260.817863,223.896357 C258.665971,222.487333 256.520967,221.39045 254.366938,219.906531 C254.099763,220.064616 253.822375,220.200186 253.540237,220.300915 C255.05067,225.38478 256.311501,230.543541 257.254097,235.753258 C258.379559,235.524543 259.595267,235.532602 260.700068,235.401061 C262.460339,235.191307 264.227498,235.023978 265.977795,234.733404 C267.769652,234.435719 269.558897,234.063851 271.311094,233.576084 L271.54058,233.510802 C273.06707,233.068116 274.52868,232.49367 276.135691,232.854151 C276.669092,232.973841 277.042901,233.764981 276.687854,234.24303 C275.559779,235.761079 273.883579,236.213768 272.14207,236.659584 C270.312689,237.127442 268.460271,237.464707 266.583393,237.654315 C264.702239,237.84416 262.800662,237.907442 260.918558,237.682994 L260.178737,237.596973 C259.293697,237.492654 258.346258,237.362161 257.486599,237.076248 C259.033605,246.166768 259.593842,255.406129 258.787091,264.666111 L258.821691,264.420953 C259.413956,260.332283 261.338368,252.178679 265.081985,250.432474 C266.185598,250.516376 263.215556,255.860241 263.138372,256.889812 C261.418711,263.217506 260.224139,269.717032 257.899118,275.86602 L258.09851,275.919062 C259.629923,276.313818 261.22109,276.425502 262.646056,275.610997 C262.663393,274.330906 263.841578,273.544033 265.14112,273.846458 C267.64307,274.25056 270.215081,268.668974 271.309194,266.733787 C275.137286,259.237397 275.744784,250.666166 277.552078,242.548809 C272.069398,245.757214 265.179593,247.253696 259.03693,245.317561 C258.781391,245.232711 258.836251,244.863212 259.099152,244.847807 C265.887074,244.603212 272.791841,242.821371 278.092366,238.280496 C276.82631,237.168919 279.274351,230.660861 279.327074,228.539147 C279.428007,227.539201 279.618948,226.746403 280.223834,226.010961 C285.619355,212.60994 275.473333,177.698363 273.13335,162.030341 C261.133249,121.544762 271.877506,23.9468769 216.958558,18.5461294 C216.534877,18.6454366 216.108109,18.6897575 215.675878,18.7039781 C215.80056,18.7836135 215.495148,18.7672598 215.043681,18.7075333 C214.537354,18.6971048 214.022002,18.6632124 213.493113,18.6425925 L213.305155,18.6363924 C212.398607,18.612563 211.522027,18.6868675 210.772434,19.2566855 C209.999881,19.8439964 209.780679,20.2447803 208.720051,20.0864576 C208.291208,20.0223069 207.95646,19.5041371 207.943845,19.086014 L207.943698,19.0431395 L207.949635,18.7975971 C207.96056,18.3404047 208.19045,17.825382 208.612706,17.6151541 C208.847108,17.4980711 209.088159,17.3987639 209.331586,17.3077521 C203.781459,15.439165 198.743834,12.1883355 194.751637,7.72543665 C193.123885,8.0811887 191.485445,8.3767402 189.840594,8.61375023 C189.695963,8.90550957 189.351841,9.25723245 189.286056,9.46035005 C189.005106,10.3285178 189.085852,11.37468 189.153062,12.3414439 C189.514046,13.4892835 189.727786,14.6548988 189.879779,15.4088277 L190.078231,16.3897055 C190.441865,18.1993712 190.785107,20.066093 190.789126,21.8976882 C190.792214,23.3026837 190.729042,24.7178706 190.619559,26.1261841 C195.008838,56.8929298 198.323003,87.8246345 203.25542,118.511745 C204.112282,118.993349 204.573011,120.023395 204.562087,121.025473 L204.669669,121.071216 L204.669669,121.071216 C206.438354,121.913158 206.796391,124.068648 206.76169,125.874556 L206.759813,125.957652 C206.713265,127.760113 206.354894,129.930651 204.897897,131.123759 C203.677201,132.122757 201.698202,132.188882 200.076387,131.541608 C199.452977,131.565546 198.910314,131.241079 198.534843,130.697615 C198.470721,130.604944 198.410161,130.510614 198.352214,130.414625 C197.711705,129.748864 197.323885,128.887807 197.385157,127.86819 C197.395369,127.697779 197.429805,127.504379 197.484902,127.293914 C197.438117,125.034261 198.476421,122.715118 200.386785,121.547843 C195.511603,92.2133491 191.366938,62.5434859 189.111739,32.789247 C188.525883,28.6901895 188.047585,24.5820244 187.832516,20.436335 L187.804835,19.8707785 C187.762324,18.9516536 187.709839,18.0206782 187.661628,17.0854366 C187.462335,15.8571322 187.228573,14.6360697 187.006246,13.4120994 L186.874589,12.6772871 C186.635437,11.3213528 186.600288,9.98106108 185.38648,9.13493528 C185.375081,9.12687694 185.365818,9.1164485 185.356081,9.10602005 C176.26,9.81396901 167.060136,8.71827165 158.365886,5.76180857 Z M250.444397,552.816954 C247.267976,553.049934 246.545534,545.990828 248.31103,547.934547 C248.517693,548.676898 248.875462,549.447912 249.362142,550.049868 L249.477942,550.188252 C250.066428,550.862803 252.060359,552.311985 250.444397,552.816954 Z M104.201276,533.715533 C104.264685,533.597739 104.454439,533.649407 104.450402,533.784266 C104.400054,535.406837 104.283447,536.832215 104.680529,538.434166 C105.061462,539.971887 105.778205,541.307201 106.637917,542.616445 C107.262989,543.568277 105.797679,544.392598 105.157408,543.501677 C103.310928,540.931541 102.64572,536.606108 104.201276,533.715533 Z M211.835223,521.119706 C211.879396,520.927965 212.182433,520.920618 212.221618,521.119943 C213.258497,524.530281 213.563196,528.131885 214.367573,531.607637 C214.505079,533.587619 217.798819,540.064155 214.744231,540.531302 C211.91027,540.57586 211.737615,533.727218 211.27926,531.57967 L211.238618,531.207049 C210.879026,527.847576 210.70049,524.334883 211.835223,521.119706 Z M95.2811501,531.149094 C95.4245937,531.149094 95.4245937,531.376861 95.2811501,531.376861 C95.1377065,531.376861 95.137944,531.149094 95.2811501,531.149094 Z M109.65389,492.424144 C109.800896,492.153242 110.232414,492.339294 110.142405,492.634846 C107.028919,502.692366 104.362626,512.889486 102.052092,523.169322 C100.705289,530.189085 96.2955861,528.068319 98.2712604,521.864819 C100.798148,511.603706 104.668275,501.692184 109.65389,492.424144 Z M188.647898,495.48392 C188.634836,495.229845 188.993445,495.203774 189.063267,495.426326 C191.048916,501.800237 193.727796,508.025542 197.488679,513.51825 C198.660926,515.218086 200.300553,516.793965 200.877652,518.836281 C201.148628,519.796408 200.127186,520.423063 199.340383,520.045506 C197.351664,519.090967 196.100335,516.770179 194.982665,514.920288 L194.920706,514.818013 C191.357652,508.982826 189.005557,502.38186 188.647898,495.48392 Z M121.993364,509.091448 C122.256977,508.753945 122.733856,509.186963 122.552651,509.533234 L122.469945,509.700307 C121.632765,511.412597 116.698965,521.819483 116.025255,517.704155 C117.326697,514.473708 119.878521,511.799998 121.993364,509.091448 Z M224.961476,516.885688 C225.09067,516.885688 225.090433,517.090702 224.961476,517.090702 C224.832282,517.090702 224.832519,516.885688 224.961476,516.885688 Z M202.929252,452.233572 C203.004774,451.838476 203.562874,452.015285 203.508726,452.396871 C202.804332,457.37977 202.747335,462.420737 202.989574,467.442505 C200.738887,470.825586 202.4101,453.008357 202.929252,452.233572 Z M116.651349,417.80047 C115.39598,430.610625 111.723444,445.210443 108.542273,458.334162 C108.383393,458.945648 107.478321,458.686122 107.619152,458.073925 C110.701052,444.665557 113.747566,431.251026 116.651349,417.80047 Z M204.683515,380.119336 C204.681852,379.804113 205.118833,379.820704 205.151131,380.119336 C205.884974,386.913229 205.431606,393.775617 203.8998,400.423985 C203.773218,400.974323 202.992115,400.733046 203.084024,400.193849 C204.214473,393.557805 204.717476,386.851843 204.683515,380.119336 Z M132.188475,305.30449 C132.243098,305.12223 132.476312,305.174609 132.494599,305.346915 C132.752461,307.768582 132.484531,310.367437 132.365194,312.812173 L132.35258,313.08316 C131.41046,333.063342 129.988136,353.007973 126.906711,372.775557 C126.758992,373.703688 125.308645,373.459094 125.332156,372.557745 C125.462538,367.557781 125.718551,362.561136 125.999026,357.568283 C127.364115,340.097088 129.187559,322.555265 132.188475,305.30449 Z M232.909605,279.351916 C232.940716,279.192171 233.171081,279.262089 233.145669,279.418516 C232.423701,284.638188 231.829503,289.886064 230.925856,295.081798 C227.879342,313.162108 225.246772,331.354049 221.336984,349.26466 C221.142955,350.088507 219.766941,349.92023 219.871674,349.061779 C222.493082,330.186538 226.51829,311.538352 229.986348,292.811953 C230.89142,288.31208 232.034694,283.852974 232.909605,279.351916 Z M132.890636,244.87293 C130.360662,246.261335 127.639983,247.441644 124.819084,248.334935 C123.480119,248.937178 121.972536,249.218272 120.527888,249.447223 C119.059254,249.742775 117.576132,249.951107 116.090399,250.065582 C115.272841,250.161927 114.454483,250.250939 113.636124,250.335618 L112.505167,250.450223 C109.772861,250.721204 106.461074,250.978159 103.735963,249.982155 C103.626148,251.158673 103.199886,252.474531 103.033018,253.04392 L102.877991,253.581014 C102.522379,254.807149 102.137128,256.057935 101.584546,257.195792 C101.210738,257.965601 100.771145,258.705072 100.322765,259.437907 C99.8845971,265.380933 101.602595,271.732802 103.219186,277.307515 L103.451677,278.139196 C104.336275,281.269097 105.47176,284.727549 108.075844,286.727953 L108.09807,286.689517 C108.300739,286.316431 109.131035,284.354672 109.227193,285.423686 C108.982816,285.966202 108.757913,286.515829 108.548448,287.071143 C113.897659,290.203705 121.720797,288.914844 127.762765,289.327005 C129.060407,289.479639 131.1743,289.435792 132.872349,289.717597 C132.957371,289.686312 133.042392,289.655263 133.124563,289.622556 C134.257388,289.170104 135.367413,288.659584 136.458202,288.110432 C136.492875,288.02179 136.524224,287.934808 136.537048,287.862994 C136.690704,284.558126 136.45464,281.180259 136.609483,277.859274 L136.618825,277.438612 C136.739656,272.519847 137.514396,255.609448 139.198592,270.896631 C140.405513,270.228026 141.675131,269.977269 143.004122,269.977743 C146.567413,260.867314 139.64341,255.942009 135.460509,250.086676 C135.324902,250.09118 135.189771,250.057761 135.072451,249.97623 C133.93464,249.18746 133.463461,247.837688 133.401001,246.459712 C133.194148,245.944452 133.021493,245.416157 132.890636,244.87293 Z M258.529775,267.856107 L258.475707,268.437889 C258.438588,268.828481 258.400062,269.218758 258.359847,269.608718 C258.416845,269.141714 258.462291,268.673344 258.501779,268.203973 L258.529775,267.856107 Z M122.241635,238.274334 C124.280244,237.946075 126.440923,237.264434 128.500668,237.615209 C129.043807,237.707643 129.084655,238.530541 128.649574,238.780824 C126.718036,239.891801 124.179589,239.990585 122.002401,240.303279 L121.854528,240.324944 C119.592679,240.662921 117.322992,240.953732 115.043569,241.134571 L114.510654,241.175815 C110.336501,241.48993 105.503415,241.622513 101.675053,239.768445 C101.470813,239.669612 101.590507,239.377378 101.781686,239.365291 C104.003399,239.225929 106.270711,239.425017 108.496936,239.462702 C110.756885,239.500861 113.018735,239.368372 115.269659,239.17118 C117.604417,238.966403 119.927301,238.64715 122.241635,238.274334 Z M256.994283,214.120879 C257.299932,215.415665 257.085717,216.795063 256.400797,217.932474 C257.568024,218.633347 258.719198,219.361035 259.867481,220.093301 L260.441442,220.459712 C261.207108,220.94582 264.666141,223.819092 265.097422,221.97942 C265.346073,219.016558 260.428142,216.011982 258.438219,214.301717 C257.939966,214.346749 257.482561,214.263796 256.994283,214.120879 Z M252.452536,212.116959 C252.180373,212.094206 251.905123,212.110086 251.63676,212.171708 C252.006531,214.048354 252.436624,215.914097 252.897116,217.77344 C254.307566,217.473623 255.32402,215.959129 255.037608,214.486111 C254.938813,213.711799 254.50112,213.076613 253.911196,212.656868 C253.443579,213.153167 252.580305,212.756649 252.452536,212.116959 Z M250.093791,216.748846 C250.046293,216.860715 249.996896,216.971872 249.94631,217.082793 C250.011383,217.056485 250.076455,217.030651 250.141052,217.005528 L250.093791,216.748846 L250.093791,216.748846 Z M267.938745,204.638819 C263.296302,204.673896 258.925785,207.374862 255.609008,210.591562 C255.426141,210.837342 255.241849,211.081462 255.05447,211.32179 C255.371043,211.520405 255.661968,211.762155 255.916319,212.042064 C256.419084,211.495282 256.785768,210.96983 257.470925,210.636594 C261.309228,209.418126 265.01715,207.519675 267.938745,204.638819 Z M156.076251,136.640026 C156.057489,136.408704 156.42726,136.360828 156.470008,136.585276 C157.678592,142.948995 158.375386,149.433116 158.875064,155.89235 L158.890286,156.150109 C159.072797,159.016728 160.626538,180.55988 157.337557,175.229998 C157.124529,162.360117 157.481951,149.471037 156.076251,136.640026 Z M110.686678,110.605296 L110.653245,110.464188 C110.600522,110.302547 110.839437,110.20561 110.917808,110.350186 C112.555298,113.36282 110.787427,117.13365 110.081608,120.182073 C107.162122,131.595348 107.602554,143.366448 108.21144,155.028261 L108.248902,155.742109 C108.279064,156.59416 107.044594,156.726175 106.827528,155.938828 C104.792244,148.551936 105.035196,140.549293 106.012227,132.997442 C106.502168,129.209311 107.212974,125.455072 108.236791,121.778809 C108.948887,118.063714 111.557812,114.459197 110.686678,110.605296 L110.686678,110.605296 Z M202.849313,125.050614 C202.272689,125.05654 201.777998,125.449976 201.559271,125.980168 C201.467362,126.20272 201.427701,126.433568 201.415827,126.675318 C201.396115,127.079894 201.664241,127.445601 202.051349,127.53685 C202.417795,127.623121 202.768804,127.446075 202.956183,127.121608 C202.994894,127.054771 203.022205,126.981772 203.054741,126.911854 C203.065982,126.887521 203.079546,126.863188 203.091702,126.838715 L203.110877,126.795614 L203.110877,126.795614 L203.113639,126.786239 C203.225734,126.659675 203.292943,126.494479 203.30933,126.326202 C203.466073,126.192055 203.571518,125.997232 203.561781,125.779894 C203.544682,125.38788 203.24877,125.046822 202.849313,125.050614 Z M207.365696,21.5146089 C207.424594,21.4425579 207.529089,21.5352288 207.488003,21.611072 C206.095841,24.1804977 203.719759,26.2574166 201.029004,27.2820109 C200.190429,27.6017375 199.776485,26.1450738 200.656146,25.8983464 C203.383237,25.132804 205.547715,23.7403701 207.365696,21.5146089 Z M154.857812,19.8227366 L154.838247,19.7618011 C154.726801,19.3957654 154.32717,17.8660962 154.765191,18.2515971 C155.22782,18.9161732 156.050721,19.5994731 156.629245,20.1737484 C158.60112,22.3025725 161.38972,23.2650702 164.105649,23.9571395 C164.705785,24.1218614 164.79698,25.197887 164.105649,25.2969572 C161.835488,25.6218979 159.846277,24.9047056 158.014996,23.5272033 C156.717829,22.5564102 155.552468,21.3185068 154.857812,19.8227366 Z M187.726226,8.88560073 C187.464275,8.91522698 187.201849,8.9367949 186.939898,8.96357703 C187.227973,9.10767912 187.487311,9.31364084 187.721951,9.56439745 C187.730738,9.52671285 187.74,9.48902826 187.749975,9.45134366 L187.726226,8.88560073 L187.726226,8.88560073 Z" id="ðŸ–-Ink" fill="#000000"></path>
                </g>
                <g id="Head" stroke-width="1" transform="translate(95.945717, 42.661805)">
                    <g id="head/doctor-nurse-2">
                        <path d="M46.2889941,109.831987 C44.9547496,111.19124 43.0190286,110.113555 41.3691156,109.8135 C27.2038471,105.957821 11.9993845,94.1890884 9.17258728,79.9556882 L7.7606106,75.8397721 C7.2574843,75.0062078 6.8704823,72.4735187 6.99632312,72.2602097 C7.10581175,72.2824886 7.89758988,71.7328781 8.00494561,71.7594233 C6.99632312,64.3092013 7.18946864,57.7018687 10.075276,48.2347402 C5.28147531,44.9514403 8.51494457,39.4483045 13.3480853,39.7606837 C13.4104132,36.5759799 14.3088361,34.1850228 16.8844257,30.809052 C26.9106924,18.3020328 44.2726971,13.3601367 60.4552106,14.3415953 C72.9591907,14.7402461 81.2580493,17.7178031 86.8106867,23.789526 C89.6476744,26.224567 91.8255975,28.8807384 91.6291342,32.3745032 L92.8915712,32.4029444 L92.9280674,32.9120419 C94.2822189,32.3503282 109.55446,36.4861531 109.904255,38.1731905 L109.474595,38.7339562 C110.048818,39.7353236 110.082233,40.5440018 109.794529,41.9153418 C109.246849,44.4921149 109.82676,47.2826709 109.682197,49.8336098 C109.550905,50.2685232 107.577029,50.7323519 106.822695,50.8117502 C103.186346,51.6841841 99.3295971,52.6796263 95.3313664,53.2520055 C95.5283037,62.175907 94.5021441,71.3114585 97.7360874,79.9556882 L99.1857452,78.7182589 C101.618194,96.1830538 95.2671426,122.47268 74.8600744,122.21979 C64.8352296,122.025916 54.6188981,114.888596 46.2889941,109.831987 Z" id="background" fill="#8FA7DF"></path>
                        <path d="M35.0455077,86.9336901 C33.5541399,85.3706089 34.1437669,81.4305542 36.6418613,83.5541641 C37.4139694,82.9116299 38.4621689,83.0287129 39.3847646,83.3524686 C41.9063209,84.2824959 44.5063202,85.0269444 47.2013519,85.2042279 C48.1564294,84.7218191 49.4537938,85.2249124 50.5653206,84.9686357 L50.6689657,84.9423318 C51.3823006,84.7439544 52.0195624,85.4168259 51.843243,86.1164795 C51.5557761,86.8322498 51.6830389,87.9599435 50.9578545,88.3808733 C50.0435534,92.2576463 49.0747449,96.0855953 48.1384039,99.9535989 C48.8664322,101.310955 48.0068754,102.99183 47.6539997,104.395404 L47.5435011,104.965165 C47.0126283,107.632252 45.8917376,112.000612 42.6516493,109.699214 C41.0806534,109.607965 39.5589511,108.989606 38.4647758,107.818777 C37.320122,106.684921 37.891501,105.282532 37.4056748,103.977792 L37.2578293,103.317455 C36.0560168,97.9235088 35.0040672,92.4988296 35.0455077,86.9336901 Z M35.0540393,67.9030647 C35.3294197,66.2492088 36.1785491,50.299382 39.2977899,54.0261276 L39.3027667,54.0254166 L39.3027667,54.0254166 C39.295657,53.9064376 39.3136681,53.9377229 39.3404478,54.0296828 C39.3759961,54.0370301 39.4068046,54.0564649 39.4323993,54.082299 C46.6022453,53.6784339 53.6796659,55.5759362 60.846431,55.7724175 C68.3253098,56.4661459 75.9776642,55.8127092 83.3828396,56.0117976 C87.2365074,55.5043592 91.0565229,54.8800747 94.7838759,53.7552252 C95.7458117,53.4800565 96.2295049,54.6115424 95.7529213,55.2434111 C96.5100991,59.2550428 95.3441164,63.4207311 95.75932,67.4930374 C95.8858718,70.7358086 96.2017773,73.9894822 96.593756,77.1853254 C97.1016221,79.0930191 94.6848148,81.0457448 93.6894636,78.8218797 C82.2815547,74.0662735 75.8328643,76.678124 64.5972459,79.3565743 C64.7638487,81.0061641 51.8216771,81.6214421 50.9547736,80.3622078 C46.3252059,80.1633564 41.6861587,79.727021 37.1257915,78.8894275 C35.1658978,78.8187985 34.5767447,77.4763737 35.2552424,75.7651613 C35.2320175,73.086 34.57082,70.6154075 35.0540393,67.9030647 Z" id="âœ‹-Skin" fill="#D08B5B"></path>
                        <path d="M96.8605338,80.4859745 C87.2963944,77.5408879 77.0234227,76.12499 67.5647431,80.1290374 C64.387914,80.8858104 61.1587106,81.4811796 57.891589,81.656093 C56.2750913,81.7961659 54.3192264,81.2702407 52.9335554,82.3005232 C43.5630354,81.1313528 34.751571,79.1098943 25.5751445,76.8850811 C24.2012174,76.5519742 19.4108788,74.8745519 18.1939565,74.6646198 C14.8202275,74.0826156 5.4507251,68.6336611 6.19376202,73.810113 C6.09375293,75.4817448 6.69238554,77.0637867 8.54468661,77.2678523 C23.0910325,80.1510793 37.5461378,83.4677976 52.3434544,85.0797028 C52.5091092,85.628618 52.7657676,86.1621276 53.002045,86.6847347 C51.8144963,93.9976791 49.6543474,101.159174 47.1982,108.141015 C42.5591527,110.818992 52.4420415,114.125756 54.5640353,114.726813 C56.4232091,115.909256 58.3636698,116.959922 60.3072114,117.995418 C66.3696108,121.586594 74.002769,124.802346 80.6002881,120.619119 C83.6311323,119.638372 86.1261458,117.720724 88.2794221,115.470788 C95.1968755,107.4653 100.210838,92.7239872 98.20094,82.2498031 C98.1134913,81.6079799 97.7663034,79.9910975 96.8605338,80.4859745 Z" id="ðŸ˜·-Face-Mask" fill="#FFFFFF"></path>
                        <path d="M109.617262,41.0881294 C108.705094,43.9085488 108.326623,47.0394512 108.610062,50.0091869 C78.8301035,57.9324321 47.5011896,56.109351 18.0212589,47.7786855 C19.4190162,45.6811468 19.770944,42.8403446 18.7748819,40.5074549 C43.1221186,49.351247 70.0693546,50.1454676 95.4737964,46.0350027 C100.016863,45.261876 106.20463,44.6383026 109.624372,41.0667985 C109.622002,41.0739088 109.619632,41.0810191 109.617262,41.0881294 M37.0656439,54.0739088 C34.8298957,61.8457046 33.6788432,70.0391413 33.5676956,78.1090957 C32.7974834,77.9621495 32.0249014,77.808093 31.2546892,77.6492963 C31.1340621,69.2432616 31.116288,60.8045196 30.138474,52.4480201 C32.4694915,53.0161331 34.7701746,53.5200164 37.1083018,53.9885852 C37.0917126,54.0146563 37.0774933,54.0430975 37.0656439,54.0739088 M47.9363002,107.225778 C49.7615846,101.063043 51.9226815,94.7429335 52.5390882,88.3007639 C52.6338836,87.5864157 52.6791484,86.8640091 52.6853101,86.128567 C52.7180145,85.2660875 52.7182515,84.4014749 52.6843621,83.5349663 C52.7405284,83.2721222 52.8004864,83.0391413 52.9497891,82.8457411 C53.0287062,82.796206 53.0976698,82.7291322 53.1526511,82.6516299 C53.195783,82.6205816 53.2417588,82.5907183 53.2943702,82.5632252 C54.3210038,82.0218943 56.2263902,82.582186 57.3873962,82.6366983 C59.9115593,82.7549663 62.5997183,82.8165889 65.0077571,81.9503172 C65.1035004,81.9161878 65.1708051,81.8566983 65.214648,81.7872543 C72.0598199,80.4742188 78.9071247,77.7979015 85.8402194,79.3299344 C89.8007689,79.9779198 94.2277116,82.2930337 98.2513001,81.3255588 C98.110055,86.4319398 98.0524668,91.5665251 97.2701682,96.624082 C94.9405726,114.294839 81.8564449,126.899032 63.8924899,118.793526 C58.0419581,116.425796 52.5717926,113.209096 46.7513584,110.7641 C47.4149258,109.768895 47.675613,108.057683 47.9363002,107.225778 M35.3830265,90.9123774 C35.1977016,88.7231158 35.1441422,86.5231887 35.0962706,84.3282388 C40.4014921,84.8823683 45.9278238,85.9467803 51.2067397,85.6213655 C51.1896765,86.0396882 51.1709544,86.4298067 51.1761682,86.7542735 C51.1778271,86.860928 51.180197,86.9671085 51.1823299,87.073526 C49.7066033,94.6720675 47.3317429,102.081001 44.6089836,109.318576 C42.7088109,108.937227 40.8249903,108.460126 38.9923593,107.825413 C37.04313,102.371101 35.8100795,96.6956591 35.3830265,90.9123774 M31.2641687,81.8728149 C31.2665386,81.0432799 31.2665386,80.2137448 31.2641687,79.3842097 C37.7258935,80.7951304 44.2790958,81.7517028 50.8609736,82.3757502 C51.058148,82.7890957 51.158631,83.2880018 51.2017629,83.8158232 C51.0903784,83.7788496 50.9744911,83.7579927 50.8631065,83.7549116 C44.293789,83.5129243 37.75528,82.8775005 31.2641687,81.8728149 M34.0156036,84.1765524 C33.2487093,92.5413473 34.110162,99.1126873 36.4139259,106.851302 C34.4445526,106.019397 32.541536,105.021584 30.7238352,103.895787 C31.0224406,97.1836627 31.2072915,90.4644284 31.2523193,83.7449572 C32.1718342,83.8968806 33.0937189,84.0412197 34.0156036,84.1765524 M95.8197994,78.1944193 C92.4213863,77.8713747 89.1981075,76.6346563 85.8331097,76.1182115 C74.4747313,74.1595606 64.1583908,81.4502261 52.8822474,80.8844831 C52.3561332,80.455732 51.4721666,80.5408186 50.8441475,80.4884394 C45.7048178,80.0518669 40.5782855,79.3742552 35.5015207,78.4669809 C36.1202973,70.3854129 36.6739021,62.1869991 37.7647596,54.1165706 C56.820994,57.8620401 76.5483795,58.0829335 95.6941956,54.8441914 C94.1836318,62.5335077 93.8895292,70.5548751 95.8197994,78.1944193 M105.870476,84.0983391 C105.872846,96.7565706 105.129176,109.417409 104.301613,122.024447 C81.0878917,134.347072 52.0591868,132.07699 29.9085953,118.447965 C30.1621728,114.658412 30.3849419,110.863644 30.5745326,107.066981 C33.2991878,108.705431 43.459827,113.438521 46.1825863,111.76689 C51.1444117,115.037154 56.3913341,117.932469 61.771681,120.451174 C86.0767338,132.456206 100.892535,111.157774 100.724985,88.4965342 C100.65531,86.932742 101.763231,77.4227147 99.3864743,77.2956773 C99.210629,77.2281294 99.0248301,77.1762242 98.8584642,77.1074913 C98.6093895,77.004155 98.3638695,76.9245196 98.1031823,76.9292598 C96.0432795,69.7303172 96.8040121,62.0879289 96.6658479,54.6759143 C99.6495314,54.1637356 102.621603,53.5638633 105.564761,52.8580474 C105.26426,63.2696609 106.083529,73.6805634 105.870476,84.0983391 M29.0032997,77.1563154 C21.9543178,75.5363519 15.1980165,72.8759143 8.1293645,71.3232616 C8.3004701,64.2523045 8.38152012,57.0967347 10.5205771,50.2817484 C13.0919009,51.2944923 15.9452408,50.4000164 17.6302281,48.3050848 C21.4267817,50.035258 25.4911321,51.2866709 29.5791814,52.3081841 C28.9487924,60.5561331 29.1644518,68.8894057 29.0032997,77.1563154 M28.9061345,81.4912288 C21.9173476,80.384866 15.1188624,78.5717393 8.21468031,77.0494239 C8.1720224,76.9785579 8.08433671,76.9382662 7.98480159,76.9951486 C7.73572682,77.0446837 7.45536959,76.9614932 7.20037011,76.9856682 C6.44366626,75.8738541 6.58822916,74.5108095 6.43703058,73.2954221 C6.4325278,72.5393601 6.21449851,72.112505 7.01788906,72.2359872 C14.4479483,74.050536 21.5056988,77.1487311 28.9677515,78.8651577 C28.9464225,79.7397247 28.9274634,80.6145287 28.9061345,81.4912288 M28.1738404,102.196425 C20.3826109,96.9355132 15.2373565,89.0722315 10.5312416,81.140217 C10.236902,80.195495 9.84563424,79.2711559 9.37094654,78.446361 C9.30838161,78.3373364 9.24202487,78.2297338 9.17258728,78.1247384 C15.4899861,80.6349116 22.2012597,82.0382479 28.8587368,83.3280565 C28.6952148,89.6209098 28.4748157,95.9109189 28.1738404,102.196425 M9.7385155,41.2966983 C10.0985008,40.9023136 10.5129935,40.580928 10.9604275,40.3235351 C11.2950551,40.2659417 11.6344224,40.2190137 11.9837433,40.1874913 C13.1407205,40.0836809 15.0356794,40.0358049 15.8103944,41.0829152 C16.2388694,41.6616937 16.4194545,42.5362607 16.5156718,43.3515752 C16.5197006,43.4575187 16.5206485,43.5629881 16.5140129,43.6691686 C16.1210862,51.6718122 4.84328382,47.4108459 9.7385155,41.2966983 M18.5663321,39.5309736 C42.4440949,41.8859052 66.6981951,38.2506454 90.1344485,33.6934166 C96.2620197,34.6601805 102.647434,35.5631887 108.214291,38.7061787 C105.496034,42.2044467 99.616353,42.6260875 95.6302087,43.2968259 C69.9525194,47.9197065 43.7546405,45.3517028 18.4976055,39.5973364 C18.5189344,39.5736354 18.5426333,39.5525415 18.5663321,39.5309736 M62.9947779,18.6624777 C70.9604309,18.2853947 79.6697533,19.5007821 85.9610834,24.7318304 C87.9923107,26.754711 89.35215,29.3494968 91.2151155,31.4441914 C67.5177009,36.9333437 43.1299392,38.5544923 18.8649374,39.2463245 C30.40319,27.2562242 46.1766616,19.1132707 62.9947779,18.6624777 M111.201292,39.6987767 C111.210298,39.6629881 111.218118,39.6269626 111.220725,39.588804 C111.233286,39.4143646 111.228309,39.2292598 111.22191,39.0543464 C111.21954,38.9877466 111.214327,38.9197247 111.206032,38.8519398 C112.487428,36.1331978 101.246833,33.0565706 96.2347661,32.0886217 C95.7643442,31.9023318 95.2735412,31.7565706 94.8118879,31.6079654 C94.178181,31.4041367 93.5231452,31.1830064 92.8586298,31.103845 C92.6270922,27.7759872 90.1733146,25.1961331 87.6437008,22.9544923 C80.7302762,15.4208915 70.1790802,13.4582115 60.3900388,13.1496244 C43.9721958,12.2136718 26.3461862,16.967856 15.6584849,30.157227 C13.7580752,32.6282935 12.1131389,35.4847384 11.9022193,38.6516664 C6.78350757,39.0491322 4.004582,45.4427147 8.33554438,48.9829335 C6.32232821,55.9579015 5.3326648,63.5431705 7.21624833,70.6544193 C6.8745111,70.741402 6.54723017,70.8810009 6.26639896,71.096917 C6.25620846,71.1047384 6.24767688,71.1137448 6.23796035,71.1220401 C4.92812566,71.6083847 5.57273401,74.2818578 5.90878351,75.4498432 C6.0903166,76.2063792 6.59510182,77.5518851 7.44612704,77.571794 C8.26278895,78.5086946 8.81307593,79.6570082 9.34890663,80.810536 C11.6505376,90.1582115 20.3643628,100.302478 28.0103185,105.448202 C27.7685903,110.029606 27.4818344,114.60627 27.1713797,119.180326 C27.1382013,119.649843 27.4510259,120.107036 27.837317,120.341912 C51.0332642,134.660873 81.5661342,137.555714 105.761461,123.979779 C107.764013,124.615914 108.601293,121.878211 107.330324,120.984447 C108.703198,98.2618213 109.717271,75.232031 106.60277,52.6139271 C107.739603,52.2204904 110.167075,52.021639 110.700536,50.9029517 C111.557249,48.9032981 110.60503,46.4443191 110.887757,44.2827876 C110.844151,42.8569353 111.530232,41.0999799 111.201292,39.6987767" id="ðŸ–-Ink" fill="#000000"></path>
                    </g>
                    <g id="facial-hair/*-None" transform="translate(29.211196, 80.109389)"></g>
                    <g id="face/With_Mask/Calm" transform="translate(37.760814, 44.083865)" fill="#000000">
                        <path d="M20.3345547,17.4963646 L20.8497741,17.355382 L21.3751145,17.2138845 L21.7303572,17.1201471 C24.1705212,16.4827361 26.8619702,15.9217813 29.2817303,16.1956536 C30.1642409,16.2956718 30.8805089,16.7912598 31.0054283,17.7139398 C31.1106361,18.4925178 30.6064461,19.4969663 29.7483969,19.6353801 C26.9063613,20.0942315 23.9968787,19.9453892 21.1417812,20.4184613 C19.7199321,20.6538122 18.3090076,20.9460456 16.8926209,21.2093637 C15.8156064,21.4098742 14.7027311,21.4802662 13.6164546,21.642381 L13.866056,21.6769845 C13.9534521,21.688835 13.9316031,21.8355442 13.8453944,21.829619 C13.4873494,21.793949 13.128759,21.7884014 12.7696231,21.8134527 L12.6156743,21.8260638 C12.3812723,21.8590082 12.2430534,21.5798104 12.4520441,21.4380784 C13.7755725,20.5419435 14.8986599,19.5706764 16.3805937,18.9101294 C17.662324,18.3389353 18.9815776,17.8679964 20.3345547,17.4963646 Z M42.5490992,16.1219909 C44.4252655,14.2292288 48.4150874,14.9566126 50.6470127,15.8224102 C51.9209059,16.3168131 53.1321018,16.9418086 54.1409567,17.8768131 L54.2393041,17.9687949 L54.3908041,18.1141922 C55.071792,18.7795551 55.8311952,19.6951277 55.7231111,20.6543336 C55.7067243,20.8005688 55.6269279,20.9676609 55.4613978,20.9970501 C54.5674877,21.1551358 53.6894894,20.6844339 52.8639763,20.4012069 L52.3172607,20.2139836 C51.4962709,19.9348966 50.6700492,19.6682426 49.823637,19.4756828 C48.771084,19.2367767 47.6973944,19.0985998 46.6168176,19.1123464 C45.5246039,19.126567 44.3514063,19.434206 43.3109652,19.0014257 C42.150592,18.5191103 41.5490314,17.1311796 42.5490992,16.1219909 Z M24.0139912,31.3872366 C23.5352844,31.875086 22.9030911,32.1503405 22.0939863,31.9865975 C21.4617305,31.8587569 20.2579229,31.224302 19.2962658,30.2472338 C18.6383636,29.5787883 18.0882657,28.7435324 17.9387256,27.7759476 C17.9039966,27.551237 17.7845085,27.4071815 17.6276156,27.316461 C17.5037052,27.244812 17.3403355,27.2088163 17.1623878,27.2267966 C17.0113111,27.2420618 16.8508855,27.2966547 16.7269204,27.3690454 C16.4911062,27.5067515 16.3946679,27.70225 16.3750628,27.8482333 C16.1858781,29.2569314 16.7311233,30.654684 17.5810194,31.8332209 C18.7280055,33.4237277 20.4123995,34.5892447 21.4024212,34.8620433 C23.0966214,35.3291449 24.8818037,34.9572987 26.1979874,33.7805217 C27.2505098,32.839607 27.7899951,31.6137588 28.2905488,30.3532061 L28.3870713,30.108862 C28.4996522,29.8228315 28.6113811,29.5389044 28.7297535,29.2579881 C28.9670017,28.69508 28.8910186,28.2085152 28.6609798,27.8292719 C28.4061385,27.409139 27.9357498,27.1134007 27.4120769,27.0225683 C26.928062,26.9386146 26.4100841,27.0304418 26.0011927,27.3254945 C25.6557769,27.5747438 25.3772219,27.9696647 25.2782545,28.553651 C25.1173122,29.503245 24.7439582,30.5927796 24.0856211,31.3116558 L24.0139912,31.3872366 Z M53.064815,25.8910812 C52.6700574,25.6858068 52.3612219,25.6239155 51.9233189,25.75485 C51.6811594,25.8274398 51.441824,25.9665618 51.2544451,26.1535625 C51.0687422,26.3388905 50.9347578,26.5693605 50.882678,26.8250348 C50.7545889,27.4560327 50.4086475,28.0466876 49.9156664,28.4317367 C49.4943067,28.7608452 48.9624553,28.9352804 48.3725317,28.8368708 C47.7359591,28.7308199 47.1294691,28.3233813 46.7117586,27.8430204 C46.5954161,27.7090725 46.5000287,27.5599754 46.4077956,27.4090666 L46.3526918,27.3184106 C46.1468816,26.979322 45.9468419,26.6641308 45.6629993,26.4151087 C45.5554039,26.3203632 45.393274,26.2547421 45.2362444,26.2547421 C45.1724235,26.2547421 45.1076543,26.2651061 45.0459353,26.2843027 C44.412341,26.9189436 44.2904956,27.4003838 44.3109227,27.8779086 C44.3323435,28.3786638 44.5301667,28.8856735 44.8498503,29.3587285 C45.5997493,30.4683992 47.0235564,31.3782258 47.9843525,31.5843057 C49.3001563,31.8664975 50.6069067,31.5277451 51.6545989,30.7943214 C52.7326127,30.0396715 53.5314183,28.8680063 53.7804622,27.5475974 C53.8403738,27.2295881 53.8149148,26.8863331 53.6935596,26.5887161 C53.5749771,26.2978994 53.3683278,26.0488204 53.064815,25.8910812 Z" id="ðŸ–-Ink"></path>
                    </g>
                    <g id="mask/*no-mask" transform="translate(5.462256, 66.599818)"></g>
                    <g id="accessories/*-None" transform="translate(11.162002, 57.119417)"></g>
                </g>
            </g>
        </g>
    </g>
</svg>