<?xml version="1.0" encoding="UTF-8"?>
<svg width="224px" height="696px" viewBox="0 0 224 696" version="1.1" xmlns="http://www.w3.org/2000/svg" xmlns:xlink="http://www.w3.org/1999/xlink">
    <!-- Generator: Sketch 62 (91390) - https://sketch.com -->
    <title>doc-nurse-3</title>
    <desc>Created with Sketch.</desc>
    <g id="Introduction" stroke="none" stroke-width="1" fill="none" fill-rule="evenodd">
        <g id="doc-nurses-covid-19" transform="translate(-408.000000, -168.000000)">
            <g id="a-person/standing" transform="translate(372.000000, 122.000000)">
                <g id="pose/standing/doctor-nurse-02" transform="translate(-28.736217, 150.264357)">
                    <path d="M274.722914,543.225798 C262.734687,530.040219 245.067613,525.395533 229.908902,517.127201 L230.240675,516.271358 C229.344153,515.761787 228.303474,515.318815 227.318131,514.869207 C227.142388,514.632671 226.464831,514.047256 226.267478,513.800055 C241.278945,457.603318 235.860624,407.055716 243.941676,347.664084 C251.010785,347.303829 259.313652,347.981914 266.200845,345.538104 C275.833652,320.048149 274.705578,296.742005 272.076332,269.646782 C271.96115,269.030319 271.96875,268.86299 272.438266,268.373327 C278.410175,261.749608 281.640506,245.820875 282.054687,233.397521 C282.054925,233.397758 281.99104,232.495934 281.99104,232.495934 C282.620624,232.028314 283.363966,231.372033 283.946528,230.85464 C288.253873,221.394859 286.86361,212.068514 284.551651,201.433163 L284.556638,201.43103 C272.51355,148.537502 269.147376,89.9701914 248.858182,40.0743665 C243.347003,27.1203464 231.137673,21.1694986 217.30534,21.1481677 L216.454178,21.1455606 C215.768071,20.1472744 214.990056,19.0757521 214.247664,18.1784321 C214.332448,18.0703555 214.395383,17.9447402 214.419131,17.797083 C214.699369,16.0529262 213.036468,15.0269098 211.735976,14.2374294 C210.306765,13.3694986 208.716774,12.764412 207.146256,12.2242662 C205.681897,11.7208569 203.770819,11.086144 202.299573,11.9218414 C201.666426,12.2811486 201.360302,13.2206563 200.563288,13.1990884 C200.521014,13.1979034 200.477791,13.189845 200.435281,13.1858159 C198.077486,8.26453965 198.064424,2.92067457 194.106426,-1.33697356 C189.636163,-5.67188696 184.21048,-9.61691887 177.517554,-9.33843209 C172.711481,-8.90257065 162.240573,-8.59493163 159.791583,-3.37881495 C157.407664,-0.788295351 156.345849,2.59691887 155.814348,6.54669098 L154.573941,6.43434822 C153.825849,7.10603464 152.330378,8.51932543 151.548326,9.24931632 L151.459267,9.03126709 C148.910293,11.2842844 146.326409,13.8923428 143.45255,15.6291522 C142.111447,16.0702279 143.263983,17.8779034 143.183474,18.9411304 C137.466154,20.1558067 131.788495,21.5489517 126.314602,23.6623701 C113.212787,25.4719417 102.448818,30.1810939 96.6901747,38.5930538 C78.6614046,81.7011486 77.3715997,156.592762 84.6043393,213.66691 C84.6572994,214.094713 84.5352299,214.789626 85.0339576,214.97639 C85.5559593,218.793674 85.9620662,222.699362 86.3484614,226.464503 C87.1936862,232.513473 88.7167057,238.528788 90.0813198,244.382698 L90.4983511,243.445324 C91.3452383,243.529225 93.0817608,243.527803 93.9476472,243.520693 C91.2830161,273.506964 86.6764343,301.964758 81.698894,330.92454 C81.5770619,331.470848 81.8727362,331.785834 82.3242036,331.791522 C90.2520746,332.540474 98.8311416,333.853273 107.257265,335.552871 C98.733771,380.693801 73.9177913,444.043263 73.3031688,485.551778 C73.1692248,499.998013 68.0715148,526.842005 83.1779779,530.610465 C80.5743817,541.125652 74.6212349,550.002625 68.807257,558.759435 C64.371905,566.430027 66.3900899,579.279052 74.721218,583.23072 C88.9898185,588.072835 105.283254,590.885196 119.607664,587.777758 C122.706901,588.49732 125.850548,587.552835 128.588326,585.527347 C142.98707,572.784266 126.886477,551.401696 120.009971,537.842826 C118.41143,535.372233 115.553008,531.508259 118.318809,528.452963 C119.120098,528.443956 120.577571,527.97278 120.861846,527.605178 C120.104254,526.458997 120.146528,526.720893 120.93998,525.667384 C154.610514,481.335369 157.072804,415.471231 169.763288,361.656208 L173.032804,361.89464 C179.988156,421.970757 148.294483,462.826545 179.777503,523.852835 C180.815807,527.415333 184.013364,527.239234 186.593686,528.19083 C168.176858,534.797721 176.414178,561.37247 193.200641,564.347894 C211.961116,569.13289 231.497232,573.642954 250.129937,573.214439 C255.156163,573.221787 260.186426,572.96866 265.100081,572.525214 C286.568411,572.813181 290.406477,557.374822 274.722914,543.225798" id="ðŸ‘•-Clothes" fill="#8FA7DF"></path>
                    <path d="M120.943898,242.744224 C122.993669,242.779302 125.427487,240.570679 127.316003,241.536495 C127.923738,241.998665 132.962287,251.832374 136.489954,254.794999 L136.708962,254.995996 C140.275078,258.297824 143.279444,262.524517 142.448563,267.699721 C141.879301,269.695582 137.514483,268.511006 135.824984,268.840213 C134.960522,277.559575 138.324085,284.361763 126.994178,285.630952 L125.502537,285.880171 C119.903963,286.804412 108.957191,288.404725 105.62037,285.34014 C104.166222,283.705008 104.59964,281.366193 104.502032,279.344735 C102.08439,274.867141 102.110751,269.595327 101.732431,264.628782 C102.181048,262.277169 96.397944,242.76911 99.0953486,244.158226 C105.780913,242.277552 114.07713,243.363768 120.943898,242.744224 Z M278.231298,236.8194 C278.588482,236.414113 279.208804,236.361497 279.693282,236.595426 C279.914148,236.573147 280.13525,236.555608 280.355878,236.547787 C280.750823,236.616046 280.457998,237.003794 280.223596,237.083192 C281.092807,239.116264 275.296404,273.263247 271.452163,264.299054 C271.329143,257.622481 270.098236,251.084797 269.133791,244.502317 C267.679406,238.246675 273.864343,237.831196 278.231298,236.8194 Z M158.566375,-5.84969189 C163.700183,-14.8394822 181.189377,-11.9529371 189.134823,-8.56961896 C197.846409,-5.17942753 196.953686,5.02219508 198.915111,12.7003719 C201.922914,13.4140091 204.874195,15.2870994 205.736044,18.4476281 C206.780285,21.3649845 207.742355,24.3136263 208.710599,27.2580018 L208.77029,27.4043896 C209.271159,28.6507979 209.828416,30.5338268 208.212346,31.0935351 C195.323559,40.1890319 172.980053,36.7354167 159.868976,29.6869755 C157.429988,28.6319993 157.645154,22.4685032 157.429988,20.3517666 C157.252584,18.4732252 157.045255,16.6070082 156.786154,14.7493236 C155.855671,13.4550119 154.432634,7.17661623 156.637011,6.87869462 C157.27942,2.63289699 156.65031,-1.93736737 158.566375,-5.84969189 Z" id="âœ‹-Skin" fill="#AE5D29"></path>
                    <path d="M104.234809,529.878033 C107.872672,530.027112 112.874911,527.866055 115.795081,530.696665 C115.9219,530.606839 116.131841,530.684815 116.1981,530.845271 C117.125259,533.09497 118.259271,535.306273 119.328923,537.488425 C123.724852,547.32363 130.974215,556.015736 132.226735,567.058507 C133.198066,575.816027 127.925802,588.309537 117.8705,587.28115 C104.582019,587.15435 91.11257,586.219108 78.3197286,582.306547 C74.9668533,583.232782 71.3641391,579.820075 69.7335369,577.174095 C65.532112,570.354842 68.6394232,561.991469 72.0975064,555.631542 C75.9213232,549.073475 78.9049025,542.095189 81.4327396,534.924687 C80.7653944,534.101077 80.9081255,532.453384 82.140458,532.266146 C84.2265649,532.102609 86.128855,531.334459 88.2531976,531.438033 C93.5674979,530.792418 98.9045971,530.321953 104.234809,529.878033 Z M226.350741,515.29893 C228.06684,511.672202 230.31064,516.538255 231.64628,518.008902 C238.472913,523.574609 248.316848,523.801191 255.307824,529.342248 L255.76927,529.643743 C258.506802,531.422779 261.570686,533.279602 263.413099,535.999623 L264.115832,536.489524 C271.751662,541.827431 281.285962,549.043498 282.618392,558.838146 C282.93449,559.251965 283.130419,559.778365 283.187416,560.339367 C282.87583,575.522704 260.720682,570.436943 250.90382,570.873752 L249.367648,570.806796 C232.799024,570.103674 215.856911,569.928445 200.264906,563.411017 C197.833727,564.314263 194.881971,563.759896 192.506365,562.768483 L192.092779,562.606726 C188.632167,561.267826 184.844518,560.126067 182.577408,556.944436 C179.170599,552.513495 178.251564,546.452319 178.790948,540.966785 L178.856591,540.329746 C179.153011,537.357658 179.321693,533.887572 181.570928,531.869012 C184.886517,526.194518 192.404957,527.609705 197.693608,525.4048 C206.136594,523.202266 218.111047,513.986368 226.350741,515.29893 Z" id="ðŸ‘Ÿ-Shoes" fill="#FFFFFF"></path>
                    <path d="M154.405294,8.77122811 C156.54721,16.5259592 157.999986,24.6310064 159.053727,32.6035497 C160.365143,42.5247894 163.548926,74.2270137 164.400801,80.1387548 C166.948824,97.8192288 168.831403,115.600195 170.147094,133.423823 C170.874797,136.609712 171.269081,139.873402 171.469488,143.139974 L171.491759,143.516895 C171.633303,146.006686 171.784109,148.617351 171.700512,151.19602 C172.374032,155.929584 172.912183,160.683531 173.343939,165.430131 C174.963142,183.231006 175.319613,201.180961 174.773625,219.044644 C174.50075,227.980396 174.046195,236.912356 173.277204,245.818481 C172.934151,249.790935 172.541467,253.75859 172.099153,257.720581 L171.713174,261.117316 C171.346065,264.306508 170.937476,267.513194 170.179393,270.625847 C170.001276,273.724516 169.974439,276.842857 169.791335,279.914981 C169.11354,291.286248 167.818748,302.621964 165.975355,313.856713 C165.050334,319.493285 163.994219,325.110186 162.854032,330.704808 C162.371997,333.070913 161.866755,335.431968 161.338157,337.787525 L161.071912,338.964844 C160.458239,341.656804 160.09773,344.774434 158.831674,347.22891 C158.393269,348.078591 157.31008,348.059867 156.712794,347.508108 C156.696407,347.541526 156.681208,347.575655 156.662921,347.607652 C156.112421,348.570387 155.006433,348.734397 154.080224,348.300669 C149.515678,346.186303 144.865873,344.274343 140.15812,342.520706 C131.86974,339.433176 123.367145,336.948363 114.736068,335.089019 C110.3855,334.151881 106.002158,333.368089 101.596729,332.75447 C97.1943885,332.141325 92.7533367,331.899575 88.3550331,331.292356 C88.032285,331.247561 87.7772214,331.127634 87.5786802,330.960304 C86.3914707,330.913851 85.2367973,330.637497 84.4777812,329.804407 L84.0252319,329.7283 C83.949895,329.715475 83.8746373,329.702334 83.7995115,329.688509 C83.6520305,329.661253 83.7066531,329.455765 83.832285,329.442255 C83.9481798,329.429931 84.0645496,329.419976 84.1809194,329.408837 C84.0051773,329.134616 83.8603087,328.81963 83.7598507,328.448235 C83.2803596,326.6754 84.1403087,324.757989 84.9444478,323.224771 C85.3690789,322.414908 85.8621069,321.639411 86.4052451,320.902784 C86.6002239,319.736458 86.7933028,318.569657 86.9711824,317.40025 C87.4292994,314.39283 87.8791043,311.383987 88.3205971,308.37396 C89.8847023,297.709931 91.3229381,287.029074 92.6980017,276.338263 C93.7089941,268.477588 94.5953045,260.583732 95.8820221,252.761453 C95.8000882,251.020851 95.6951179,249.281435 95.5799355,247.54107 C95.4761527,245.975856 95.0671959,245.708509 94.4074504,244.38386 C93.7144563,244.34025 91.8597066,244.802182 91.180012,244.684625 C90.0286634,244.962164 90.0737439,242.633067 89.6320136,241.091316 C85.1859746,225.571426 83.5271111,209.199247 82.3463138,193.131863 C80.2575566,164.70946 81.8071234,136.200875 84.2422291,107.858157 L84.3162884,106.999338 C85.4977981,93.3425834 86.3368482,79.5931577 88.3248719,66.0264667 C89.1955081,60.0848624 90.3986293,54.1261933 92.5505208,48.5171139 L92.7726185,47.941024 C93.2587047,46.6888955 93.7800984,45.4171966 94.4074504,44.2428751 C95.042972,43.0537958 95.8748974,41.9284722 96.666212,40.836567 C98.4200712,38.4164576 100.419494,36.2812343 102.747841,34.4387183 C102.775627,34.4164394 102.806263,34.4007967 102.837612,34.3894202 C103.815118,33.4480164 104.866008,32.5758195 105.975796,31.7699854 C113.443888,26.3457739 122.678901,24.8670684 131.49807,23.3189189 C133.698955,22.9324029 134.638724,21.1497574 136.825682,20.6874676 C140.409406,19.9416349 142.23887,19.4360719 142.314075,19.1707786 C142.371785,18.967424 141.783646,16.1508587 141.883391,15.7064649 C142.330584,13.7113145 144.196749,13.9520294 145.629285,12.7418562 C147.632508,11.0498417 149.578513,9.8257484 151.626147,8.1899052 C152.089103,7.82033301 152.902694,6.28132292 153.306653,6.52637771 C153.995382,7.86398992 154.361596,8.61227339 154.405294,8.77122811 Z M202.418863,13.3012871 C202.246684,12.4857356 202.794809,11.5595005 203.798202,11.8832562 C209.259508,13.6456627 213.661374,16.1328459 217.063885,20.7377138 C219.612858,20.7448241 222.168007,20.9538669 224.662358,21.4892726 C227.549517,22.1085798 230.232434,22.9731923 232.918914,24.1994822 C235.293808,25.2833291 237.588906,26.7312233 239.360102,28.7038578 C239.851467,29.2508769 240.284885,29.8348696 240.68648,30.4428004 C245.572824,33.8512416 248.664461,40.2365287 250.885462,45.7472489 C253.16821,51.4117885 254.68363,57.4173856 256.259847,63.3168022 C258.036743,69.9687256 259.642884,76.6689991 261.094419,83.402691 C262.480565,89.8339186 263.71991,96.2979143 264.811854,102.788289 L265.677237,107.98317 C266.425803,112.494603 267.147658,117.04291 267.594504,121.587851 C268.560611,125.006009 269.478982,128.424879 270.263647,131.900394 C273.664495,146.957878 276.845666,162.089072 279.261408,177.348726 C281.668126,192.550075 283.47162,207.850257 284.674504,223.200211 C284.727464,223.874742 284.408278,224.315344 283.960611,224.524387 C283.906463,224.954797 283.827854,225.381652 283.717184,225.801634 C282.853673,229.080904 280.542188,231.785189 277.814385,233.62249 C274.67905,235.73425 271.193181,237.103694 267.737472,238.553721 C268.809025,243.232773 269.550941,247.986957 270.109992,252.80466 C271.863613,267.921871 272.310093,283.127249 271.64726,298.330731 C271.3162,305.920977 270.677354,313.492737 269.777744,321.033922 C269.333164,324.762089 268.840136,328.486939 268.284648,332.199227 C268.035878,333.862247 267.772594,335.523293 267.494798,337.18154 L267.326378,338.176146 C267.003393,340.064642 266.807464,341.901943 265.889567,343.597513 C265.248109,344.783274 264.024563,344.798443 263.174114,344.179373 C261.722103,344.779008 259.696794,344.817167 258.488685,344.980941 C255.384461,345.401397 252.270738,345.810002 249.146565,346.042746 C246.045903,346.273356 242.902969,346.4094 239.798507,346.188744 C238.247701,346.078534 236.711858,345.877076 235.180763,345.603803 L234.776876,345.531039 C234.100477,345.406927 233.411626,345.264326 232.767634,345.038771 C232.044716,344.785644 231.38592,344.374669 230.663953,344.114195 C230.430025,344.02982 230.358304,343.806556 230.452824,343.583293 C230.625954,343.173976 230.813096,342.795708 231.028261,342.40796 C231.066735,342.338753 231.173367,342.370038 231.173605,342.448252 C231.174555,342.77414 231.160543,343.090075 231.137744,343.408616 C231.226802,343.408853 231.316336,343.40672 231.405869,343.405298 C231.433418,342.48167 231.323698,341.572026 231.411807,340.645079 L231.580125,338.862729 C231.608448,338.565606 231.637105,338.26858 231.666395,337.971843 C231.842137,336.195216 232.157286,334.415508 232.436573,332.652864 C233.032197,328.892463 233.524275,325.115708 233.913045,321.32734 C235.284784,307.958789 235.379304,294.490458 235.580933,281.063129 L235.616985,278.709323 C235.709705,272.82493 235.828495,266.941611 236.123121,261.063274 C236.055199,260.136565 235.991077,259.2127 235.924818,258.295471 C235.575471,253.466155 235.330619,248.626884 235.03542,243.793776 C233.998066,226.7793 232.90609,209.764587 232.019067,192.740868 C231.877761,190.024733 231.749042,187.30765 231.635522,184.589856 C230.034843,176.720175 229.271315,168.724642 228.469788,160.731479 C226.892621,145.004441 225.458422,129.264131 224.143919,113.511971 C223.486548,105.636128 222.859101,97.7572033 222.225004,89.878753 C221.962103,86.6125178 221.70704,83.3460456 221.467413,80.0779143 C221.271959,79.0217976 221.075793,77.96734 220.86989,76.9173856 C218.666938,65.6897466 216.456149,54.4635296 214.254148,43.2354166 C213.227956,38.0031832 207.812096,23.2419684 206.794691,20.9199812 C206.473131,20.1857241 203.881685,16.3280632 202.793147,15.2578049 L202.734912,15.1993941 C202.365324,14.8210247 201.820177,14.115295 202.110602,13.5693455 C202.185411,13.4283245 202.295369,13.3392088 202.418863,13.3012871 Z M127.542202,239.557235 C124.239675,240.448393 120.690622,241.927061 117.335609,242.582157 C112.850147,243.457672 108.302955,242.542055 103.749096,242.903495 C101.546619,243.078408 97.2789347,243.971462 97.3962545,244.38386 C97.4245157,244.483404 97.4494521,244.58437 97.4758134,244.684625 C97.5463478,244.683203 97.6206819,244.731079 97.6206819,244.81664 L97.6178321,245.254634 C98.3172383,248.272246 98.3336251,251.585172 98.4960679,254.637387 L98.5079423,254.909712 L98.8601624,258.032312 C99.4722369,263.40943 100.1454,268.776445 101.388214,274.032155 C102.377595,278.217041 103.590928,282.459284 105.380648,286.366394 C105.630249,286.911517 105.89505,287.452848 106.175288,287.98612 L107.339197,288.004502 L107.921547,288.011006 C110.225432,288.02736 112.524329,288.121216 114.828926,288.074525 C119.319613,287.983276 123.813863,287.625391 128.256102,286.940669 C130.395406,286.611225 132.524024,286.211389 134.638629,285.744479 C134.957498,283.156488 135.278795,280.568813 135.602449,277.981383 L136.08969,274.100414 C136.403888,271.607068 136.945364,269.591772 139.427128,268.613158 C140.536441,268.1754 141.683277,268.000013 142.841751,267.967542 L142.899223,267.41839 C143.207722,264.337734 143.062853,261.49551 141.488536,258.793595 C140.377828,256.887324 138.869462,255.288809 137.331436,253.739244 L135.489803,251.894899 C132.487416,248.872689 129.624026,245.70649 129.092539,241.238737 C128.322124,240.524151 127.943559,240.525658 127.542202,239.557235 Z M148.189537,279.434325 C148.61102,279.242181 148.441377,278.808773 148.298707,279.183168 L148.28857,279.211298 C148.262921,279.285956 148.228248,279.360377 148.189537,279.434325 Z" id="ðŸ‘•-Clothes" fill="#FFFFFF"></path>
                    <path d="M159.411882,29.3746302 L161.517014,46.2964444 L167.04858,100.074317 L172.756815,150.491889 L175.012202,220.174706 L175.012202,230.554572 C178.321581,230.554572 180.99224,230.554572 183.02418,230.554572 C185.056121,230.554572 194.298992,231.857328 210.752796,234.462841 L234.088887,230.554572 L226.816846,144.693966 L220.392142,82.3325034 C214.944328,49.1182928 211.731213,32.1141434 210.752796,31.3200552 C209.28517,30.1289229 205.708039,36.5175597 191.801914,36.5175597 C182.531164,36.5175597 171.734487,34.1365832 159.411882,29.3746302 Z" id="ðŸ‘•-Clothes" fill="#9FD8E5"></path>
                    <path d="M157.334731,-4.68210939 C157.429252,-4.93310301 157.732288,-4.92622972 157.828472,-4.68210939 C158.547352,-2.85855424 158.184231,-0.230824066 157.939854,1.67544758 C157.696902,3.56841021 156.728395,7.89782733 156.558971,8.16988212 L156.530355,8.21218414 C156.312063,8.51002053 156.129041,8.69316879 155.902442,8.81053453 C157.107579,14.6164113 158.185884,20.4448361 159.159874,26.2971589 C159.328364,27.1641742 159.491412,28.0319985 159.649372,28.9006101 C160.276867,29.2156035 160.963299,29.39304 161.644499,29.658155 C162.726738,30.0793218 163.786416,30.5689845 164.85868,31.0157484 C166.994185,31.904536 169.130402,32.6866691 171.341428,33.3559854 C175.713608,34.6785014 180.199783,35.4814913 184.757917,35.6715734 C189.300377,35.8611814 193.850198,35.5222571 198.3017,34.5640255 C200.417018,34.1087293 202.551573,33.5636062 204.580207,32.7914275 C205.439206,32.4648277 206.295593,32.0550374 207.025635,31.4809991 C207.728366,30.9282917 208.207858,30.1805251 208.927688,29.6496226 C208.957612,29.6275651 208.988363,29.6081245 209.019773,29.5911853 C208.611644,28.3892271 208.18738,27.1918551 207.746491,25.9995594 C207.100625,24.5771188 206.487885,23.1364564 205.819593,21.7353601 C205.166282,20.3652958 204.501656,19.0003686 203.829915,17.6390279 C203.764924,17.6320636 203.703741,17.617583 203.648821,17.5950793 C201.077523,16.5394366 199.03084,14.4824266 197.940526,11.867258 C197.33469,10.4141495 196.956845,8.83732179 196.874436,7.25788696 L196.826397,6.41434552 C196.763205,5.20652726 196.749564,3.73653418 197.338728,2.84689335 C197.376726,2.78929991 197.454623,2.78716682 197.492383,2.84689335 C198.141204,3.87290975 198.035997,5.44144211 198.301272,6.62578122 L198.39586,7.04373325 C198.667823,8.22960641 198.979692,9.42555573 199.489669,10.5253072 C200.12212,11.8902538 200.974625,13.1700811 202.085691,14.1385213 L201.682219,13.3349522 L201.155776,12.2900365 C200.982646,11.94732 201.044869,11.4206837 201.425327,11.2370009 C202.791474,10.5775687 204.110126,10.6073613 205.344086,11.2513783 C206.541993,11.227493 207.732609,11.4192176 208.915006,11.8996098 C211.34476,12.8865196 213.329221,14.5548332 215.053869,16.536474 C215.859429,17.461959 216.609287,18.4361702 217.313608,19.4468441 C231.315998,19.4947296 244.278155,25.3019304 250.342182,39.3169535 C258.227067,55.5210921 262.045659,73.4212744 265.578789,91.0436809 C272.54364,127.368312 279.097635,163.77637 286.000265,200.11451 C286.120197,200.138211 286.240366,200.15812 286.360299,200.183006 C287.589069,200.438029 287.381265,202.056097 286.445082,202.461384 L286.887525,204.795459 L286.987249,205.294177 C288.606672,213.470091 289.733555,223.099738 285.635243,230.4973 C285.835447,230.902587 285.815735,231.402915 285.388967,231.809861 C284.849154,232.32441 284.289154,232.811466 283.713954,233.275531 C283.813462,234.683845 283.688068,236.075094 283.344896,237.435057 C283.383844,238.675094 283.143742,240.019889 283.078195,241.055386 C282.13385,250.634486 279.849459,261.769974 273.7275,269.449394 C274.709816,277.996245 275.393348,286.573556 275.523562,295.184755 C275.655131,303.877335 275.218388,312.565648 274.046378,321.17883 C272.896692,329.628 271.195318,338.45852 267.710636,346.248091 C267.544886,346.618573 267.305436,346.866987 267.029793,347.013028 C266.7759,347.434352 266.390884,347.755266 265.902653,347.825085 C259.146167,348.791148 252.27854,349.343574 245.419108,349.364734 C243.010598,370.568057 241.452558,391.890271 240.158011,413.168264 L240.070148,414.618966 C238.053388,447.672385 237.421428,481.344162 228.143905,513.314445 L228.276899,513.445511 L228.942314,513.743602 C229.828427,514.142795 230.706606,514.55652 231.534779,515.075666 C232.071505,515.412221 232.140139,515.986022 231.956085,516.456961 C235.5398,518.831801 239.708451,520.352695 243.678561,521.836614 C255.607416,526.192622 266.650436,533.023962 275.838663,541.963506 C292.37315,557.258948 288.812234,574.176724 265.103905,574.226022 C243.241581,576.264545 221.127756,573.699623 200.013998,567.6945 C198.858612,567.369796 197.616543,567.123305 196.56399,566.508738 C195.26231,566.479349 193.943057,566.25893 192.840869,566.007936 C182.737357,563.675046 174.31717,554.323579 174.480326,543.456906 C174.549198,537.887881 176.805109,531.167699 181.978578,528.594007 C180.069164,528.028501 179.043209,526.406642 178.29773,524.634044 C177.5836,523.217672 176.894168,521.788027 176.230623,520.345584 C172.016611,511.228283 168.925449,501.598565 166.829605,491.749851 C158.510114,459.097927 168.727145,426.59769 172.510114,393.989613 C172.600835,389.958073 172.634796,385.924873 172.550962,381.885511 C172.462616,377.606532 172.237476,373.328501 171.936102,369.059714 C171.811467,367.29105 171.65233,365.52542 171.511342,363.758213 L171.409825,362.432439 C171.400801,362.309668 171.390351,362.185712 171.378952,362.060571 C158.070283,417.710525 157.229096,479.434572 122.264719,526.693661 C123.456679,528.583105 120.917204,529.818401 119.239104,530.045694 C117.781632,532.079951 120.453625,535.29831 121.434219,536.966624 C123.029435,539.680625 124.530606,542.460279 125.994965,545.250361 L127.004495,547.114063 C133.532899,559.188199 142.209981,576.207129 129.615254,586.865056 C126.83544,588.985347 123.142243,590.230598 119.669673,589.522649 C115.766772,590.622376 111.699291,590.948975 107.654846,590.766004 C99.7189008,590.590616 91.806229,589.505821 84.0503003,587.803852 L82.6705953,587.492688 C79.7200123,586.821309 76.7378476,586.076024 74.0040237,584.766806 C64.6391043,580.109085 62.5009873,566.741245 67.3443461,557.953387 C68.9678236,554.863962 71.2192231,552.189541 73.0858897,549.261045 C76.529961,543.859349 79.252302,537.875794 81.1080441,531.705712 C81.0213605,531.677745 80.9353893,531.648119 80.8501306,531.61707 C80.4763223,531.755247 80.0307922,531.740552 79.564838,531.490507 C67.1914029,523.860206 71.3367803,498.345603 71.6391043,485.461974 C74.2339135,451.99284 82.2384936,419.185438 92.164363,387.265165 C98.3274567,370.913934 102.157972,353.991547 105.316251,336.898882 C97.6581147,335.394843 89.9395776,334.22618 82.1700017,333.485528 C80.6476947,333.340478 79.8141069,332.17818 80.0587209,330.64994 C80.9010619,325.386895 81.7793462,320.130119 82.6641112,314.874388 L83.4307739,310.322457 C87.0404746,288.836514 90.4017491,267.352922 91.8460322,245.576139 C91.8541797,245.453313 91.8695732,245.335424 91.8916015,245.222474 C91.7737308,245.221294 91.6559479,245.218046 91.5382222,245.212968 C90.9953215,246.433096 88.9315386,246.669395 88.5263817,245.025019 C87.1280441,239.373041 85.8990365,233.676031 84.8291467,227.950106 L84.5327635,225.071331 C84.2352829,222.192722 83.9280833,219.315372 83.5533234,216.446122 L83.482222,215.913954 C83.2170916,215.712346 83.0549307,215.360315 83.0286355,214.987099 C82.9177339,214.955763 82.7949933,214.957038 82.6748804,214.986368 C75.6231077,166.788957 79.2125225,117.702521 85.7688923,69.6475533 C88.2523189,42.8701604 96.1084682,26.6648368 123.995423,22.3744813 C129.834082,21.2079057 135.775183,20.4928322 141.496444,18.8335034 L141.471674,18.6472853 C141.349367,17.7056445 140.946348,16.3082334 141.263396,15.3661185 C141.530097,14.5728459 142.666008,14.2031103 143.290606,13.7565834 C144.311098,13.0273036 145.295254,12.2473036 146.251861,11.4327001 C148.205924,9.76960073 150.045517,7.97898997 151.999817,6.31826071 C152.056336,6.27029158 152.146054,6.30128425 152.170399,6.35822553 C152.676459,5.88347047 153.187758,5.41439512 153.704706,4.95158979 C154.117524,4.58220966 154.827553,4.62819705 155.090095,5.12954231 C155.520627,3.87804253 155.884121,2.60514714 156.197394,1.31045214 C156.439159,0.312165907 156.665011,-0.683039198 156.823416,-1.6993382 C156.976835,-2.68482589 156.983959,-3.75137101 157.334731,-4.68210939 Z M118.161377,530.256159 C111.873133,531.665657 105.407484,531.190215 99.0266192,530.97738 C97.0309958,534.837088 95.7680271,539.090944 94.7962205,543.316833 C93.8322511,549.778201 90.1316913,547.811017 92.2800204,542.385621 C93.6225479,538.170397 95.9238202,534.397198 98.5970008,530.963871 C97.7130653,530.935903 96.8272299,530.915046 95.9409194,530.904618 C94.4587481,531.162959 92.9580526,531.31109 91.4637693,531.49738 C89.5548295,531.734864 87.6399525,532.037526 85.7181883,532.147736 C85.020207,532.187553 84.2714029,532.196797 83.518799,532.143706 C82.9656862,532.291838 82.4149483,532.452294 81.8684852,532.635028 C81.7609025,542.680224 76.6551179,551.290088 71.3498422,559.382795 C67.0588838,566.920899 69.4031416,579.091364 78.4669245,581.424727 C91.0227515,585.606532 104.295321,585.811783 117.331589,586.587517 C117.636051,585.270215 119.137934,584.777471 120.34058,584.926551 C123.703193,585.515284 127.165313,583.682959 129.132438,580.923451 C137.109232,568.125621 123.485177,552.114408 119.622175,539.795101 L119.494985,539.489811 C118.429366,536.972196 116.280233,532.697324 118.161377,530.256159 Z M224.283277,516.862011 C223.009859,517.126988 221.740716,517.408556 220.475847,517.705056 L220.291556,517.763123 C220.091352,518.275776 219.748892,518.714244 219.292438,518.959313 C221.037964,520.579122 222.736339,522.346604 224.215264,524.237285 L224.415559,524.495867 C225.986551,526.544345 227.865805,528.338747 228.635033,530.895138 C228.887722,531.733679 227.935152,532.403706 227.228858,532.001263 C224.914762,530.682303 223.56131,528.256742 222.139698,526.064636 C220.749673,523.921355 219.648197,521.543907 218.836933,519.126642 C212.216679,519.401573 205.848875,524.643287 199.819494,527.343542 C196.460682,533.168064 195.777662,539.9712 195.94723,546.596815 C193.454304,551.525675 190.112828,535.656195 198.314049,528.069504 L198.025204,528.190385 C193.58646,530.024695 188.702545,530.962968 184.0236,529.253369 C184.110283,529.43089 184.111233,530.056833 183.760936,529.808921 C182.821428,528.651838 180.656,533.124928 180.392624,533.711291 C174.55656,545.708264 181.76555,559.063305 194.254643,561.890598 C195.05237,559.859185 198.135457,560.292202 197.156288,562.561099 L197.182641,562.607027 C197.187637,562.615296 197.192941,562.623907 197.198561,562.632913 C198.404295,562.988191 200.309198,563.007863 200.766365,564.36285 C217.824041,569.034791 235.568774,570.761409 253.196899,570.618729 C260.930504,569.94491 278.170334,571.812312 281.708689,563.321191 C284.449554,553.081409 273.103735,544.324363 266.325313,538.559331 C261.929147,535.055375 257.175559,531.980407 252.207043,529.399367 C247.817289,527.119094 242.924295,525.309285 238.459257,522.907426 C238.421021,522.92212 238.380411,522.933971 238.336237,522.941555 C235.074083,523.508957 232.126365,520.721956 229.585703,519.030416 C228.285924,518.164855 226.900411,517.391017 225.424176,516.884527 C225.286433,516.954919 225.147739,517.008009 225.008807,517.030051 C225.222073,517.255922 224.71812,517.289814 224.905025,517.037161 C224.672285,517.007535 224.467569,516.945912 224.283277,516.862011 Z M250.444373,552.948707 C247.267953,553.181688 246.54551,546.122582 248.311006,548.066301 C248.517669,548.808652 248.875438,549.579666 249.362118,550.181622 L249.477918,550.320006 C250.066405,550.994557 252.060336,552.443739 250.444373,552.948707 Z M104.201252,533.847287 C104.264662,533.729493 104.454653,533.781161 104.450378,533.91602 C104.400031,535.538591 104.283423,536.963969 104.680506,538.56592 C105.061439,540.103641 105.778182,541.438955 106.637656,542.748199 C107.262965,543.700031 105.797656,544.524352 105.157622,543.633431 C103.310904,541.063294 102.645934,536.737861 104.201252,533.847287 Z M211.835342,521.251437 C211.879277,521.059696 212.182314,521.052348 212.221737,521.251674 C213.258378,524.662011 213.563077,528.263615 214.367454,531.739367 C214.50496,533.719349 217.798701,540.195885 214.744349,540.663032 C211.910388,540.70759 211.737496,533.858948 211.279142,531.7114 L211.2385,531.338779 C210.878924,527.979307 210.700609,524.466613 211.835342,521.251437 Z M95.2811264,531.280848 C95.42457,531.280848 95.42457,531.508614 95.2811264,531.508614 C95.1376828,531.508614 95.1376828,531.280848 95.2811264,531.280848 Z M176.027318,230.554572 L176.009757,231.271289 C175.469378,252.90202 174.305105,274.53243 172.187271,296.056193 C171.159891,306.499329 169.929934,316.951708 168.033818,327.271362 L167.745002,328.835657 C166.615451,334.906543 165.302585,341.206983 162.590561,346.732018 L162.438336,347.037949 C161.622649,348.654071 160.478986,350.531464 158.859603,351.339967 C157.678093,351.930122 156.546931,351.284744 155.399145,350.886804 C154.352054,350.523942 153.303776,350.163923 152.254548,349.80746 C149.983912,349.03623 147.708763,348.278983 145.427678,347.540696 C141.014412,346.112474 136.581198,344.747533 132.126134,343.461517 C124.266558,341.193137 116.328568,339.172729 108.322937,337.506908 C107.950883,339.942038 107.567152,342.375313 107.169181,344.806004 C104.511912,361.145238 98.8938626,376.612275 94.0984767,392.370361 C82.789469,431.189522 73.1433622,471.61016 75.0914877,512.388447 C75.3484512,515.525511 75.8894521,518.649541 76.9619542,521.609322 C77.9451603,524.323087 79.6757455,526.756706 81.4678405,528.968246 C81.8145751,529.395575 81.9209703,529.883105 81.8554232,530.326788 C81.8969839,530.449085 81.9183579,530.578966 81.9283325,530.712877 C82.6614623,530.86883 83.4138287,530.942303 84.1794945,530.958419 C94.8164071,526.706222 106.952828,530.238857 117.87259,526.963615 C117.962599,525.829522 118.369893,524.578583 118.83181,523.536924 C128.673133,509.903871 136.055254,494.538273 141.562395,478.582758 C152.978748,445.72748 156.845788,410.894354 163.800665,376.918018 C170.808502,343.131528 181.269435,309.639404 198.847925,279.964089 C198.97712,279.744144 199.267807,279.936833 199.174711,280.159386 L198.284991,282.34298 C188.705366,305.884778 179.463525,329.676317 173.280767,354.416286 C186.425805,407.071856 153.096068,454.893369 177.729418,510.733169 C178.775796,513.334117 179.907908,515.901883 181.11293,518.429595 C181.897832,520.647298 184.520665,523.881063 184.327824,526.043542 C193.665669,527.971856 201.455321,521.232713 209.229062,517.130543 L209.469512,517.025061 C212.12709,515.842348 216.876418,513.233731 219.447518,514.685548 C219.493829,514.716122 219.532777,514.751911 219.576,514.785092 C219.805652,514.735794 220.035542,514.689577 220.265432,514.64336 C220.997612,514.431473 221.730504,514.22243 222.465534,514.020498 C222.641988,513.971911 222.819868,513.919768 222.99846,513.866678 C223.023871,512.223014 223.538986,510.296122 224.000665,508.990671 C237.55561,458.977289 233.435169,406.295411 240.434931,355.225438 C240.65332,353.251994 240.883467,351.279216 241.123667,349.307306 C237.556231,349.200216 233.99732,348.942254 230.464248,348.516917 C229.386046,348.387036 228.043993,347.545887 228.210473,346.211284 C228.541534,343.558904 228.852407,340.904392 229.139294,338.246799 C231.518701,316.207236 232.379362,294.02452 232.32664,271.858394 C232.295983,258.93986 231.925768,246.030999 231.308957,233.133065 C227.697448,233.884556 224.040365,234.399643 220.367006,234.705697 C212.630551,235.349891 204.860611,235.045096 197.14553,234.265333 C193.23883,233.870474 189.357778,233.326773 185.481238,232.697037 L184.799629,232.585079 C181.958108,232.112629 179.101453,231.558806 176.356205,230.663646 L176.027318,230.554572 Z M109.653866,492.555874 C109.800634,492.284972 110.232628,492.471025 110.142382,492.766576 C107.028658,502.824097 104.362602,513.021216 102.05183,523.301052 C100.705028,530.320815 96.2955623,528.200049 98.2712366,521.996549 C100.798124,511.735437 104.668251,501.823914 109.653866,492.555874 Z M188.647756,495.615674 C188.634931,495.361599 188.993303,495.335528 189.063362,495.55808 C191.048774,501.931991 193.727654,508.157296 197.488536,513.650004 C198.660784,515.34984 200.300648,516.925719 200.87751,518.968035 C201.148723,519.928162 200.127043,520.554817 199.340241,520.17726 C197.351755,519.222721 196.100201,516.901933 194.982523,515.052042 L194.920563,514.949767 C191.35751,509.11458 189.005415,502.513613 188.647756,495.615674 Z M121.99334,509.223201 C122.256953,508.885699 122.733595,509.318716 122.552628,509.664988 L122.469921,509.832061 C121.632741,511.544351 116.698932,521.951237 116.024994,517.835909 C117.326673,514.605462 119.878497,511.931752 121.99334,509.223201 Z M227.341666,515.199386 C227.30248,515.236122 227.263532,515.27357 227.223396,515.309121 C227.595779,515.437581 227.961276,515.586897 228.320122,515.751382 C227.996424,515.573387 227.666789,515.390653 227.341666,515.199386 Z M153.704706,7.32967061 L153.236628,7.66604978 C150.57533,9.90172237 147.867762,12.0801225 145.179923,14.2824019 C144.886626,14.5526302 144.587307,14.8156421 144.280461,15.0691449 C144.048197,15.2611231 143.650239,15.6872673 143.086587,16.3475776 C143.366768,17.3809468 143.542484,18.4815237 143.806008,19.5313519 L143.887891,19.84466 C144.344346,21.5210319 144.711505,23.2144686 145.0922,24.9105123 C146.019596,29.039701 146.530911,33.2518432 146.542548,37.4959818 C146.551573,40.8169663 146.124804,44.1310775 145.807993,47.4319161 L145.420779,51.4614203 C145.227826,53.4762407 145.037198,55.4912999 144.854948,57.5072124 C144.550724,60.8748879 144.252913,64.2451705 144.045347,67.6206673 L144.037003,67.7807615 C144.003172,68.6130737 144.188164,68.5191646 145.096665,68.7716553 L145.152047,68.7872306 C145.857154,68.9882151 146.569859,69.1605214 147.28779,69.3046235 C148.774948,69.6027821 150.273744,69.7497284 151.787264,69.7973674 C152.856441,69.8312598 153.435203,71.443165 152.366025,71.9835479 C150.340835,73.0070362 148.321251,74.0428687 146.310848,75.0966691 L144.906865,75.8350666 C143.906456,76.3531369 142.835027,76.8646064 142.580987,78.0922443 C142.35941,79.1623446 142.637985,80.3407584 142.780003,81.4044594 C143.4122,86.1411048 143.74231,90.9121167 144.239851,95.6644047 C144.689181,99.9566563 145.269367,104.255307 146.38058,108.427158 C147.565177,112.87394 149.383634,117.146994 150.75941,121.538078 C153.09773,129.000598 155.218248,136.549904 157.312822,144.094738 L158.707467,149.122964 C161.291589,158.432007 163.623973,167.833958 165.133218,177.394469 C165.870385,182.064988 166.412811,186.767978 166.703023,191.490166 L166.759193,192.424342 C167.020918,196.89485 167.16892,201.462981 166.409011,205.874541 C166.222107,206.960758 164.657052,206.62373 164.615966,205.626392 C164.387026,200.064004 164.673676,194.51868 164.231233,188.953685 C163.786653,183.364988 162.975389,177.815398 161.924499,172.313685 C160.12931,162.916557 157.64593,153.675144 155.011169,144.493171 L154.791267,143.728142 C152.140709,134.521603 149.736226,125.216206 146.571132,116.175009 L146.289859,115.377951 C144.8198,111.24497 143.57868,107.200868 142.874049,102.848416 C142.264991,99.0858476 141.892879,95.2898467 141.541455,91.4941442 L141.366466,89.596474 C141.165788,87.4256992 140.961547,85.2546873 140.701259,83.0903118 C140.469469,81.1653163 139.886908,79.0329371 140.458782,77.1195552 C141.078629,75.0454804 143.01488,74.1946144 144.751403,73.2825998 C145.464323,72.9081404 146.178241,72.5357778 146.893104,72.1653725 C147.038105,72.0902405 147.123309,71.6532338 146.951757,71.6205356 C146.862724,71.6035657 146.579293,71.5454262 146.101464,71.4461169 C144.781495,71.1726555 142.713455,70.8829638 141.994626,69.6103665 C141.649791,68.9995916 141.712014,68.2928277 141.752149,67.6206673 C141.809859,66.6562735 141.882056,65.6923537 141.949978,64.7284339 C142.096746,62.6410866 142.258239,60.5546873 142.430419,58.4689991 C142.721344,54.9479781 143.040292,51.4293273 143.355678,47.9102024 C143.665601,44.4522261 144.103057,40.9722078 144.097595,37.4959818 C144.090232,32.9510775 143.419562,28.5936481 142.439919,24.1914239 C142.093154,22.6340315 141.81343,21.081224 141.58865,19.5065537 C122.031436,29.0153722 98.2284085,24.9228102 91.8723698,53.9074804 C83.0666956,106.021633 78.7854481,160.174116 85.9165292,212.799874 C92.174689,210.419944 98.7821835,209.133755 105.465788,208.963185 C106.99712,208.924078 106.991182,211.353905 105.465788,211.392775 C98.8812316,211.560766 92.4061874,212.876411 86.2587233,215.253658 C87.6301757,224.892466 89.3899591,234.477851 91.5793079,243.9881 C92.0476713,243.887251 92.5134517,243.774141 92.9782287,243.655935 C93.4044709,243.399888 93.9035651,243.277251 94.3899625,243.288281 C95.6811993,242.951327 96.9771327,242.631097 98.3116573,242.481665 C98.2627345,242.259349 98.6061442,242.201045 98.6025818,242.437818 C109.243057,240.837763 120.787416,242.707298 130.424261,236.85718 C128.425788,226.332275 126.184601,215.8479 123.727298,205.417088 C112.831047,165.398182 136.320173,126.512658 131.809299,86.4430319 C131.782701,86.2361222 132.113286,86.2000966 132.160309,86.3944448 C141.176356,127.191929 115.688044,167.808337 128.615067,208.500826 C129.792539,213.571418 131.050996,218.623761 132.094999,223.725876 L132.145518,223.949704 C132.761444,226.752033 135.595398,241.866737 131.703617,240.536997 C130.95315,241.029978 130.111013,241.40635 129.272913,241.74006 C130.492089,246.528682 134.548376,249.791521 137.646384,253.231358 L137.755321,253.35284 L138.315559,253.932093 C143.913184,258.339294 149.997187,274.074627 137.091776,270.203779 C135.405364,272.163141 136.630809,275.407572 136.782565,277.719841 C137.425211,283.129358 134.93276,287.409996 129.424193,288.100881 C124.398918,288.779914 119.286246,288.749103 114.236034,289.181646 L114.224872,289.295648 C114.033218,289.332148 113.842039,289.366988 113.65086,289.404673 L113.686958,289.216487 L112.473511,289.31014 C109.486987,289.525956 106.41698,289.519424 104.705347,286.514572 C100.587376,279.002232 99.5786973,269.605724 99.1141601,260.329859 L99.0368075,259.708975 C98.6767735,256.826222 98.3357388,253.942758 98.0156031,251.055265 C97.9055267,250.064267 97.8084084,249.072736 97.7094198,248.081171 L97.5905955,246.909819 C97.510993,246.156095 97.4006124,245.3533 96.9674683,244.809009 C96.7949285,244.821234 96.6225086,244.835699 96.4500687,244.851595 C96.4991792,245.07015 96.5175271,245.311665 96.4993995,245.576139 C96.0327328,252.389229 95.4154979,259.189995 94.6431824,265.973933 C92.2642295,286.875873 88.3716628,307.529302 84.8810462,328.253503 L85.550512,329.372759 C89.4914766,329.829286 93.4216509,330.384775 97.3366644,331.034296 L98.1753622,331.174917 C118.006344,334.535269 137.401696,340.242124 156.410544,346.863647 L158.125805,346.378654 C158.156555,346.332209 158.187033,346.28557 158.216957,346.238563 C158.436872,345.893003 158.638738,345.535355 158.830867,345.172966 C159.022758,344.810815 159.199754,344.441534 159.371583,344.069614 L159.704304,343.340125 C159.77022,343.190686 159.761113,343.190696 159.950629,342.698108 C160.89085,340.253112 161.607593,337.719001 162.244777,335.17612 C164.064421,327.913896 165.238806,320.480551 166.25621,313.062611 C169.052885,292.666002 170.445998,272.047789 171.425642,251.486221 C172.495532,229.030943 172.98571,206.545564 172.65465,184.064926 C172.514056,174.533568 172.243793,165.001973 171.644607,155.488153 C170.664441,139.920102 168.82531,124.428442 166.868865,108.96153 L166.448102,105.647552 C165.372512,97.2014622 164.238263,88.7627201 163.414412,80.2858195 C162.615973,72.0686819 162.008237,63.8342425 161.295532,55.6092835 C160.898771,51.0302592 160.465494,46.4606033 159.96142,41.9041178 C159.165634,37.4444642 158.323446,32.9931074 157.58932,28.5198669 C156.510184,21.9447347 155.320987,15.3849123 154.064397,8.84163403 L153.704706,7.32967061 Z M213.06917,17.8184613 L212.842045,17.5509771 C210.445747,14.7628451 207.081855,11.9229506 203.324885,12.178553 C203.237227,12.1845168 203.179706,12.3801112 203.152324,12.7653363 C203.719404,13.7950719 204.274098,14.8307983 204.817958,15.8723732 C204.886544,15.9637084 204.940831,16.0659522 204.977251,16.1782281 C205.693877,17.5574983 206.391805,18.9469808 207.074635,20.346343 L207.643246,21.5168416 C209.097582,24.4941829 210.67859,27.4890747 211.408906,30.7415041 C211.421494,30.7976618 211.426129,30.8510469 211.42394,30.9012521 C217.176063,46.1049637 219.496781,62.7422853 221.296682,78.777701 C223.616229,99.4437429 225.631207,120.157271 227.69306,140.853462 L228.019057,144.121129 C230.267131,166.619068 232.377225,189.133362 233.929455,211.694583 C235.486911,234.333781 236.556326,257.032943 236.553713,279.732104 C236.551215,300.973705 235.519861,322.238292 233.062264,343.335454 L233.217316,344.20793 C243.61444,345.263571 253.975478,345.30757 264.367162,343.890886 L264.696005,343.845046 C265.172518,342.073604 265.688585,340.321999 266.198066,338.556405 C270.961628,322.044627 272.001832,304.731519 271.225717,287.608255 C270.451705,270.528997 268.036317,253.619944 265.382343,236.758248 L265.120577,235.099869 C262.42228,218.048439 259.973256,200.998705 258.107402,183.83391 L257.940939,182.28677 C255.323942,184.940283 252.164219,186.947217 248.673581,188.231468 C247.246045,188.756599 246.628033,186.464553 247.996499,185.90639 L248.042334,185.888624 C251.777948,184.514107 255.027023,182.164828 257.606183,179.091134 C255.960374,163.247062 254.486302,147.38289 253.058141,131.51638 C252.692487,128.189825 252.442907,124.844299 252.145154,121.518975 C251.888021,118.646313 251.645386,115.773141 251.413139,112.89935 C250.177941,98.467776 249.061843,84.0293077 248.198972,69.5671338 C248.162622,68.9578874 249.367286,68.7424077 249.467718,69.2028097 C249.889149,71.1347521 250.082414,73.1201191 250.306036,75.0853929 C250.588173,77.5626217 250.796214,80.0583373 250.996655,82.5438614 C251.406496,87.6239488 251.792007,92.7063884 252.173795,97.7890765 C253.530128,109.023476 254.783731,120.27075 256.031383,131.519613 C258.127701,150.422585 259.919084,169.360871 262.058863,188.258629 C263.886629,204.39953 266.435454,220.406557 268.965205,236.436484 C273.861157,234.632247 278.2572,231.700001 281.871274,227.89256 C284.897839,222.014 284.510731,213.799706 283.152292,207.454474 C282.826694,205.623098 282.497534,203.792432 282.169086,201.96153 C279.642911,201.674036 277.098925,201.623553 274.549238,201.808895 C273.021707,201.920053 273.033344,199.489515 274.549238,199.379305 C276.948119,199.204866 279.343437,199.243499 281.724506,199.477428 C278.09448,179.315696 274.300112,159.184301 270.592902,139.037026 C265.534853,112.545231 261.726711,85.703371 254.218008,59.7789772 L253.835386,58.4717288 C249.668831,44.3078614 244.036517,27.8766383 228.799043,23.3220948 C225.43782,22.2313063 221.947606,21.5629601 218.42051,21.1207232 C220.423246,24.3064973 222.055124,27.7686611 223.602775,31.1611778 C226.286023,37.0424236 229.249951,42.8048586 232.104632,48.6036204 L232.607186,49.62734 C235.620639,55.7848692 240.077857,65.8382049 235.680681,72.1367123 C235.595516,72.258703 235.597919,72.8160962 235.725344,72.8697144 C238.172538,73.8994536 240.192987,76.0075154 241.351427,78.457466 L241.401656,78.5650793 C243.372453,82.8423759 243.16554,87.7106244 243.141638,92.3322961 L243.131482,95.9811668 C243.080349,113.843149 242.95411,131.705294 242.185846,149.552901 C241.779026,159.004624 241.19979,168.449473 240.365727,177.872281 L240.261867,179.039057 C239.460384,187.988033 238.52648,197.017013 236.611732,205.78827 C236.413191,206.698388 234.940757,206.500722 235.015566,205.567376 C235.827067,195.449418 237.138721,185.381943 237.944285,175.259956 C239.382996,157.178461 239.872936,139.045535 240.121588,120.911424 C240.232205,112.845709 240.277897,104.779433 240.30987,96.7130941 L240.321316,93.6882151 C240.336278,89.4983519 240.699874,85.034505 239.374921,81.0005943 C238.337567,77.8426727 235.689561,74.9042224 232.230053,74.9850428 C230.827915,75.0177502 230.447457,73.1091085 231.543233,72.3907311 C235.335701,69.9047329 235.166134,64.8822534 234.233988,60.8966928 C233.124984,56.1553688 230.790252,51.8802197 228.672857,47.55238 L228.543505,47.28734 C225.864387,41.7842042 223.101435,36.3166199 220.458416,30.7968933 L219.973326,29.7782746 C217.996328,25.6101961 216.037698,21.3570702 213.06917,17.8184613 Z M245.553469,336.983938 C245.711399,336.983938 245.711162,337.234458 245.553469,337.234458 C245.395776,337.234458 245.396014,336.983938 245.553469,336.983938 Z M126.993964,242.582157 C117.932556,245.425566 108.309961,244.444108 98.9697405,244.746295 L99.0108554,244.982147 C99.3837413,245.565711 99.6421849,246.235434 99.7404885,246.794536 C100.294314,249.944399 100.624662,253.16584 100.987545,256.34367 C101.621123,261.891167 102.377244,267.408131 102.63339,272.976094 C103.159383,275.581971 103.821313,278.156975 104.68991,280.684837 L104.80324,281.004973 C106.638367,286.155593 107.728929,287.481872 113.401259,286.544199 C117.907858,286.207881 122.417781,285.914463 126.923193,285.563214 L127.540942,285.512474 C129.496175,285.342751 131.720317,285.022304 133.028807,283.431309 C135.888417,279.546004 132.574965,274.382029 134.13717,270.156851 C136.416119,265.022029 138.8055,269.533515 141.733269,267.947681 C143.587111,266.663561 141.504804,262.568264 140.771674,261.160188 C137.766958,256.035557 132.664499,252.548665 129.429893,247.539933 L129.301786,247.355646 C128.413048,246.072053 127.269093,244.299201 126.993964,242.582157 Z M279.232767,236.200235 C276.176951,237.78366 272.837391,238.765892 269.380041,239.066384 L269.924037,242.528948 C271.096555,250.012012 272.245085,257.515563 273.195275,265.042116 C277.791988,257.222611 279.640899,247.700235 280.126914,238.636935 C279.985133,238.098448 279.826728,237.567546 279.627474,237.059871 C279.432258,237.1907 279.234904,237.317737 279.035888,237.440746 L279.086113,237.092613 L279.182182,236.395768 L279.33655,236.403353 C279.302589,236.335331 279.268865,236.267072 279.232767,236.200235 Z M281.188967,232.185522 L281.16498,232.063225 L280.960027,232.085978 C280.581469,232.414 280.194599,232.731119 279.803691,233.042551 L279.852377,233.085449 C280.306931,232.801037 280.752699,232.500983 281.188967,232.185522 Z M159.868976,30.1289229 L159.949143,30.5844703 C162.677858,46.2430406 163.833433,62.1448908 165.554429,77.9550629 C167.707508,97.7354458 171.012173,117.367697 173.177364,137.149739 C176.090171,163.760514 176.629985,190.520605 176.275651,217.275956 C176.222355,221.297679 176.149942,225.320184 176.056291,229.342786 C179.774055,229.236944 183.503559,229.738144 187.194962,230.12856 L188.511946,230.266523 C202.711937,231.738154 217.094903,232.677915 231.129522,229.514631 C230.699434,221.138306 230.169006,212.766833 229.563688,204.400363 C227.941873,181.984665 225.831304,159.607601 223.703874,137.237646 C221.668828,115.838485 220.250541,94.3594512 217.954731,72.9892051 C216.461124,59.085654 214.080879,45.3597208 209.872493,32.1793393 C208.569927,34.3755275 205.090634,35.4362879 202.612317,36.0876837 L201.426823,36.394217 C193.763515,38.3938706 185.732336,38.6834968 177.944821,37.3029134 C174.021734,36.607289 170.191742,35.4916828 166.545567,33.8477812 C164.672489,33.0033145 162.902005,31.9438797 161.139834,30.8830228 C160.778562,30.6656385 160.308009,30.4218768 159.868976,30.1289229 Z M125.598453,183.556871 C124.201065,182.928084 125.411074,180.835285 126.797062,181.458859 C135.333856,185.299132 144.575756,187.325331 153.895552,187.465641 C155.424984,187.488631 155.424271,189.918458 153.895552,189.895468 C144.132363,189.748521 134.533042,187.576088 125.598453,183.556871 Z" id="ðŸ–-Ink" fill="#000000"></path>
                </g>
                <g id="Head" stroke-width="1" transform="translate(95.945717, 42.661805)">
                    <g id="head/doctor-nurse-3">
                        <path d="M73.4154644,126.322315 C64.8466761,126.322315 53.7589385,119.731067 47.128004,115.787694 C47.0720747,115.75309 46.9798863,115.697867 46.8810621,115.638614 C46.7601981,115.566089 46.6277216,115.486928 46.5639717,115.446162 L46.2556498,115.24897 L45.4247686,115.194458 C44.6254069,115.143263 43.8151436,115.058888 42.9451594,114.93588 L42.6925298,114.900091 L42.443455,114.954366 C42.3756763,114.969298 42.301262,114.987785 42.2235298,115.007694 C42.1730513,115.020492 42.1019547,115.038979 42.0576379,115.048222 L42.055979,115.048222 C42.0142691,115.031632 41.9118901,114.983756 41.7353337,114.854348 L41.5000043,114.682279 L41.2160922,114.616153 C39.4239862,114.201149 38.1233941,113.717174 36.9993583,113.04691 L36.780381,112.916317 L36.5296473,112.869863 C34.1256373,112.425706 31.483691,107.424084 30.0643677,104.737101 C29.8397028,104.311905 29.6328119,103.920128 29.4453541,103.577411 L28.7983759,102.394494 L27.5828625,102.977539 C25.9075918,103.781477 24.1474792,104.188897 22.3518184,104.189134 C16.1993634,104.189608 10.2277306,99.39134 8.15242347,92.7799453 L8.14460285,92.7555333 C7.1902507,89.8955333 7.16655187,86.8359708 7.14901473,84.1328715 C7.30969284,80.2231541 6.77836492,75.8771012 1.6987563,73.2135825 C-1.84990748,71.0942388 -3.3995744,68.4572653 -2.66585842,65.7852142 C-1.70984736,62.304959 2.7763424,59.6803099 7.76945027,59.6803099 C8.02587168,59.6803099 8.28655888,59.6871832 8.54440222,59.7002188 L9.86347946,59.7680036 L10.0281864,58.4573382 C10.2981161,56.3090793 10.5270469,55.6802917 12.0001666,54.9135643 L12.7675349,54.5139654 L12.765402,53.6486418 C12.7542635,49.2068368 11.2704794,45.098268 9.83575182,41.1250319 C7.74385552,35.3322698 5.76784653,29.8604193 8.60175341,23.9766454 C11.8648462,17.870082 17.3549187,12.8317229 24.4804479,9.40432088 C31.1466936,6.19804923 38.9080626,4.50319052 46.9256159,4.50319052 C53.360324,4.50319052 59.634591,5.62922516 65.0701562,7.75899727 L65.1059414,7.77274385 C78.9531716,12.7727074 95.0434966,25.1910848 97.6615071,40.6453236 C98.5909755,47.1927256 97.5676597,53.8967912 96.5718346,59.0076755 L96.5542975,59.0975023 C96.4746694,59.2015497 96.3097255,59.3672197 96.2045026,59.4729262 C96.0217846,59.6568459 95.8326679,59.846454 95.6686719,60.0687694 L95.2617629,60.6193437 L95.4385562,61.2810757 C97.3804389,68.546618 98.0842944,75.1916682 97.5309265,81.0311212 L97.4989331,81.3676755 L97.6219301,81.6821878 C98.4464126,83.7956062 98.3118032,85.8784503 98.1561018,88.2900273 C98.0809765,89.4513765 98.0034813,90.6518323 98.0352378,91.9179398 C98.050642,100.355023 95.891678,108.784995 92.1110026,115.047274 C89.0313388,120.148678 83.3542825,126.24505 73.7979637,126.318049 C73.6579035,126.322315 73.5363285,126.322315 73.4154644,126.322315" id="background" fill="#8FA7DF"></path>
                        <path d="M97.302683,81.0619562 C95.5878352,71.5744448 97.567162,57.2941167 90.8340856,49.8994038 C89.2479225,43.0460219 87.7072611,37.6779818 79.8435132,36.3315278 C64.8101562,34.2477356 48.6018109,41.0899781 38.7044658,52.4377812 C27.6752643,63.4336244 21.6998397,108.462686 40.148436,114.36779 C41.1918957,114.692731 42.6962979,114.171546 43.18165,113.133205 C47.9531738,103.91707 50.556017,93.938948 53.0896596,83.9556117 C60.9308937,85.9351194 68.6678528,82.3951376 76.3775583,81.3058396 C80.763502,80.5763227 85.2482698,80.771856 89.5301756,81.9832142 C91.254503,82.4709809 93.3632254,83.5116919 95.0048438,82.4344813 C95.9577741,82.852804 97.4545926,82.3045998 97.302683,81.0619562" id="âœ‹-Skin" fill="#AE5D29"></path>
                        <path d="M98.5373924,88.4064941 C98.3992282,87.2622097 98.1629508,86.0390009 97.3714097,85.1516354 C96.7571358,82.9545524 93.5260364,83.2356463 91.7249249,82.5561386 C86.3161394,81.4146983 80.7097056,80.9892653 75.243806,81.9816263 C71.4664484,82.4542242 67.8447922,83.5707785 64.1691027,84.4965397 C60.6761312,85.3466946 56.7660601,84.3690283 53.4641012,85.9008241 C44.1879026,81.0985269 35.8025433,74.9753728 27.3849536,68.8294658 C22.1242858,65.2074786 16.437276,61.980113 12.4421262,56.873969 C12.8594627,55.7197302 11.4031692,54.3545524 10.6189747,55.6555005 C9.32027843,58.2161568 10.5990677,62.1033582 13.5408042,62.8094111 C14.3240508,63.8918359 15.2260285,65.6935861 16.723321,65.713258 C18.9363183,67.7129116 20.6350509,70.2780711 23.5497708,71.3706873 C27.2572168,73.7355734 30.9077856,76.1663482 34.6194974,78.5208058 C34.6194974,78.5205688 38.3788438,80.8958833 38.3788438,80.8958833 C39.4609327,81.5794202 40.81935,82.8113984 42.1730276,82.4065852 C45.2562462,84.292948 48.4904264,85.9212069 51.6532731,87.6682078 C50.9562904,93.7674239 50.6847017,99.9657101 47.8903719,105.589247 C47.3900894,107.575391 43.5601205,111.666895 44.5609223,113.17736 C44.2388551,113.19798 42.6948759,113.42788 43.0503585,113.756376 C44.7163867,113.901663 46.1423457,114.972237 47.6204421,115.672365 C56.0979899,119.523304 69.1676613,129.456157 78.5137715,124.253313 C83.5872184,124.179603 86.6462642,120.13716 89.8183535,116.818308 C93.4155999,113.272401 95.1411121,108.454224 96.3063839,103.64695 C97.5794854,98.6815898 98.9926471,93.5768678 98.5373924,88.4064941" id="ðŸ˜·-Face-Mask" fill="#FFFFFF"></path>
                        <path d="M7.68100621,23.5225579 C18.5921875,4.05739836 45.6479643,-0.462382862 65.3450153,6.87236645 C80.1861746,12.5120201 95.3792618,24.1245634 98.5122479,40.4860766 C99.3957406,46.6691942 98.6049104,53.0888478 97.4180727,59.1816645 C97.2953127,59.8130593 96.698576,60.2501057 96.0769555,60.3423026 C97.9629089,67.1617922 99.0540033,74.22635 98.3712399,81.2949371 L98.3747947,81.3032325 L98.3747947,81.3032325 C98.9329023,81.2243081 99.4163586,81.3556117 99.6471852,81.9054749 C99.8237416,82.3266418 99.6654333,82.9350465 99.631544,83.37233 C99.5836723,83.9914002 99.5424364,84.6111814 99.4921948,85.2302516 C99.4391094,85.8870064 99.2952575,86.4859307 99.0947653,87.0770337 C99.0175071,88.7432142 98.8506673,90.41532 98.898302,91.8705615 C98.6963879,105.752002 93.4904645,123.071747 78.2805512,126.761756 C65.7320173,129.183761 53.7359032,120.87419 43.5409007,114.577544 C43.3029644,114.95676 43.00507,115.305402 42.7929654,115.56398 C41.8364804,116.729832 40.2488953,115.265347 40.8434991,114.054937 L40.8188523,114.040479 L40.8188523,114.040479 C42.8652469,111.602594 44.5594767,108.944053 45.9558121,106.136669 C46.6601416,103.229267 48.1299434,100.571911 49.0833476,97.7085925 C49.6971475,95.8658396 50.1391308,93.9676263 50.2481454,92.024144 C50.3251666,90.6563592 50.2275274,89.2885743 50.2128342,87.9188933 C50.1324951,87.8084467 50.0500231,87.6996591 49.9647073,87.5927675 C48.0330152,87.4936974 45.8095903,85.8609353 44.0212761,85.2098687 C39.1905053,82.8876445 34.5054823,80.2622844 30.0005705,77.3579635 C29.5635639,86.5257484 26.7618875,96.6166873 32.4304122,104.771965 C33.594736,106.729905 34.9685576,108.555356 36.4826762,110.254481 C37.0241946,110.901282 37.1519314,111.408246 37.4014801,112.173314 C37.6704619,112.998346 36.7575827,114.050908 35.8845176,113.690416 C32.8574652,112.748064 29.6066958,106.251382 28.2963871,103.381191 C22.8712495,106.958146 15.5926258,104.684983 11.4559939,100.240571 C7.44777174,96.1906855 5.96690446,90.444593 6.11497906,84.8763236 L6.11996385,84.7076445 C6.30197091,77.9571249 5.10589063,76.3594403 -0.519265207,72.8931686 C-5.19457168,69.7437794 -4.70045094,63.7464777 -0.0571378949,60.8378906 C2.62604438,59.2200602 6.22708259,58.3843628 9.33897681,59.0008259 C8.85409862,57.1725305 9.44965038,54.5061677 11.6121692,54.3016281 C11.4275553,53.1947912 11.3853713,52.0189845 11.5292233,50.8946089 C10.3220046,41.5559398 3.05214946,32.9410994 7.68100621,23.5225579 Z M85.1982416,82.7018286 C74.6856747,80.3850556 64.4188647,87.7077174 53.9904287,85.3468605 L53.6614925,85.4953992 C53.3339265,85.645982 53.0159918,85.8138295 52.7573782,86.0991304 C52.4459755,86.4430319 52.2490382,86.8568514 52.1933459,87.319495 C52.1577977,87.6143355 52.1841034,87.8098687 52.1070822,88.0210447 C52.1554278,88.8953747 52.1663292,89.7704157 52.1433414,90.6440346 C52.3317471,92.49532 51.9847962,94.4973437 51.5366512,96.254773 C50.35953,102.539805 47.5936387,108.58996 44.0537435,113.818638 C50.2334521,116.203907 55.9166701,119.711181 62.0672292,122.167079 C80.0314212,130.268556 93.113179,117.66934 95.4446705,99.9971613 C96.1468671,95.4250009 96.2755518,90.7883737 96.3836184,86.1707074 C96.392387,85.7670793 96.4077913,85.3610811 96.4194037,84.9541349 C92.4600391,85.0081732 88.9737032,83.4280273 85.1982416,82.7018286 Z M9.67929211,60.1094997 C5.21277238,60.0770884 -0.990872054,62.1620656 -1.19491904,66.9008441 C-0.88849308,70.9518195 4.22903368,71.5614093 6.51099465,74.2531322 C12.5288402,81.1712179 6.48634786,91.126113 14.895169,98.3018286 C18.3634938,101.504545 22.9930615,102.299951 27.0467475,99.6909444 C26.0684595,95.3076809 26.4376874,90.8312726 27.2007899,86.3925488 C27.2029228,85.2513455 27.2462917,84.1108532 27.3479597,82.9722571 C27.444019,81.8946515 27.5822095,80.8277201 27.7473849,79.7599773 L27.8508848,79.1002265 C27.9893591,78.1869184 28.1100524,77.2190344 28.5324275,76.3973619 C25.8625166,74.6332963 23.26702,72.7436153 20.7644229,70.7624485 C20.7336144,71.2198778 20.7115745,71.6770702 20.6935634,72.1342625 C20.7890697,72.996268 20.7582612,73.8900328 20.6478246,74.7160128 C20.660385,79.1466782 21.0950217,83.5645451 21.2964618,87.9923665 C21.2997796,88.7422662 20.2501581,88.8389663 20.0307069,88.1634877 C19.072089,85.2105798 18.9955417,82.1040893 19.1190127,79.022959 C19.1630925,77.9237065 19.2498303,76.8227949 19.3820698,75.7266235 C19.1984038,74.5581641 19.173994,73.4046363 19.0405695,72.2191121 C18.9144917,71.1001878 18.5891067,70.0156299 18.4329314,68.9047639 L15.7637314,66.7581641 C13.4222863,64.8760675 10.8038019,62.9904157 9.67929211,60.1094997 Z M12.044199,56.5764503 L11.9141817,56.4407764 C11.5282151,56.0405737 10.931935,55.4525693 10.7228977,55.5620034 L10.7049778,55.5738979 C10.6734583,55.599732 10.6336443,55.5923847 10.6104194,55.5677356 C9.07023201,58.4234695 12.0418291,61.6773801 14.224492,63.3885925 C24.8524722,72.2131869 36.5471371,79.8380365 49.2833658,85.2477903 C49.727482,85.3681914 50.3600039,85.7346089 50.7472429,86.1647821 C50.8199983,86.1564868 50.8901469,86.1429772 50.9562667,86.1228314 C51.0273632,86.0856208 51.0949049,86.0415369 51.1546259,85.9879727 C38.3731324,78.6864047 25.9300583,70.1782188 15.3295687,59.8699417 C14.3877769,59.2437612 13.5829645,58.5718377 12.9620549,57.7430137 C12.9454658,57.7366144 12.9291136,57.7309262 12.9125244,57.7226308 C12.4771767,57.5041076 12.2136457,57.0540255 12.044199,56.5764503 Z M84.5429688,38.5309809 C76.0334275,35.1173254 65.9730344,36.738474 57.5016483,39.6352106 C46.6352578,43.5257302 38.1276125,51.9405342 32.8079346,62.0236518 C32.6204768,62.5071522 32.4349149,62.9911267 32.2571737,63.4784193 C32.39202,64.6385834 31.782486,65.9563592 31.5201399,67.0496864 C31.3047174,67.9481914 31.2402566,68.813515 31.1779287,69.7295588 L31.164044,69.9684149 C31.1556777,70.0965577 31.1424396,70.2169699 31.1054102,70.3289572 C37.9757029,75.3149371 45.2130906,79.7738067 52.3881504,84.271309 C63.6157112,84.7460401 73.8796773,77.5468605 85.1913689,79.4901057 C88.8926532,80.0594038 92.4581432,81.5091942 96.2257842,81.6303063 C97.6039071,68.5864855 92.7623832,56.1296079 87.91747,44.2484253 L87.3417446,42.8370256 C86.6961919,41.2391413 86.0380268,39.5073074 84.5429688,38.5309809 Z M69.2934784,11.1034695 C53.7482266,3.90855606 34.6794318,3.71207475 20.4435406,13.2356117 C10.4641976,19.6161586 5.22580674,28.4116007 10.5547271,39.9416645 C12.1927907,43.8672616 13.0921616,47.5778906 12.7639327,51.7037612 L12.8857609,52.53495 C12.9943304,53.2736392 13.1102158,54.0104936 13.286018,54.7339344 C13.5782247,55.9348642 14.3019872,57.0535515 15.0124783,58.1359763 C19.7195412,61.7525123 24.3953216,65.4128952 29.1841455,68.9185105 C33.9111155,45.3867329 60.2244076,29.9822662 83.2158339,35.556268 C84.7541254,35.8797867 85.9532865,36.6529134 86.9164072,37.6794038 C88.1307356,38.2546272 89.2694647,38.982722 90.1963262,39.9454567 C90.5949406,40.3595132 90.058636,41.1186563 89.5635673,40.7655114 C89.223726,40.5230501 88.8909943,40.2718195 88.5603955,40.0186928 C89.1713515,41.1499417 89.649831,42.3786016 90.0647977,43.5702881 C91.7203984,47.5921112 93.3283644,51.6203336 94.6851228,55.7542625 L94.8766463,54.461993 C95.6116039,49.4620616 96.2387772,44.4269025 95.2678772,39.4045998 C91.707364,27.6204613 82.9963827,18.3415187 72.2079613,12.5601331 C71.3047987,12.462485 70.4049538,12.3273892 69.4934966,12.2837794 C68.0938433,12.2167056 66.695612,12.2615005 65.2980916,12.1593491 C65.1800714,12.1505798 65.1686959,12.0050556 65.2713119,11.9631048 C66.4569647,11.4753382 67.8668085,11.1816828 69.2934784,11.1034695 Z M50.4465995,28.2426126 C56.6251232,25.9580729 63.4591566,24.2923665 70.0602306,24.9924941 C70.7963164,25.1882644 70.8688349,26.4060219 70.0602306,26.5567603 C68.3167072,26.881227 66.4098988,26.6335515 64.633197,26.7530046 C49.4401099,27.4090483 35.8689712,37.0845087 27.0020515,47.9454932 C32.0745504,38.818948 40.8156293,32.034299 50.4465995,28.2426126 Z M30.1445883,19.4205068 L30.647049,19.1686159 C33.3108119,17.8416352 36.3719457,16.4831461 39.3731522,16.9930501 C40.2319981,17.1388113 40.2106691,18.3160401 39.5987651,18.7191942 C37.1857933,20.3080657 34.1628168,20.837477 31.5481951,22.0500649 L31.3371137,22.1499143 C23.2325856,25.9219289 17.214977,32.9715552 12.8420677,40.6065962 C12.7688383,40.7319745 12.5934669,40.6430957 12.6188247,40.5120292 C14.4829752,31.1411267 21.8552092,23.7004339 30.1445883,19.4205068 Z" id="ðŸ–-Ink" fill="#000000"></path>
                    </g>
                    <g id="facial-hair/*-None" transform="translate(29.211196, 80.109389)"></g>
                    <g id="face/With_Mask/Smile" transform="translate(37.760814, 44.083865)" fill="#000000">
                        <path d="M24.3635386,13.4693984 L24.8093943,13.391518 L25.0379183,13.3528605 C26.3735753,13.1324728 27.9568957,12.9850645 28.8793995,14.0313491 C29.3968889,14.618186 29.5750059,15.7089061 28.8793995,16.2706199 C27.6558541,17.2589517 26.3031145,16.8759435 24.836855,16.959608 C23.6285089,17.0288149 22.4671858,17.2283774 21.3032502,17.5604284 C18.7497642,18.2887603 16.6691196,19.6183865 14.4882545,21.0783683 C14.2020797,21.2698724 13.9099678,20.9046399 14.0465242,20.6375296 C15.3054555,18.1766545 17.7451841,16.155196 20.18895,14.9229809 C21.4932417,14.265278 22.920553,13.7196809 24.3635386,13.4693984 Z M25.2270263,23.9380602 C25.6481418,23.9380602 26.0509118,24.0807086 26.4177179,24.3446632 C26.7787314,24.6044494 27.1055508,24.9836022 27.3777551,25.4564942 C27.892866,26.3513801 28.2148804,27.5869798 28.2148804,28.9531923 C28.2148804,30.3194048 27.892866,31.5550046 27.3777551,32.4498905 C27.1055508,32.9227824 26.7787314,33.3019352 26.4177179,33.5617215 C26.0509118,33.8256761 25.6481418,33.9683245 25.2270263,33.9683245 C24.8059107,33.9683245 24.4031408,33.8256761 24.0363347,33.5617215 C23.6753212,33.3019352 23.3485018,32.9227824 23.0762975,32.4498905 C22.5611866,31.5550046 22.2391722,30.3194048 22.2391722,28.9531923 C22.2391722,27.5869798 22.5611866,26.3513801 23.0762975,25.4564942 C23.3485018,24.9836022 23.6753212,24.6044494 24.0363347,24.3446632 C24.4031408,24.0807086 24.8059107,23.9380602 25.2270263,23.9380602 Z M51.8828838,23.9380602 C52.3039993,23.9380602 52.7067693,24.0807086 53.0735754,24.3446632 C53.4345889,24.6044494 53.7614083,24.9836022 54.0336126,25.4564942 C54.5487235,26.3513801 54.8707379,27.5869798 54.8707379,28.9531923 C54.8707379,30.3194048 54.5487235,31.5550046 54.0336126,32.4498905 C53.7614083,32.9227824 53.4345889,33.3019352 53.0735754,33.5617215 C52.7067693,33.8256761 52.3039993,33.9683245 51.8828838,33.9683245 C51.4617683,33.9683245 51.0589983,33.8256761 50.6921922,33.5617215 C50.3311787,33.3019352 50.0043593,32.9227824 49.732155,32.4498905 C49.2170441,31.5550046 48.8950297,30.3194048 48.8950297,28.9531923 C48.8950297,27.5869798 49.2170441,26.3513801 49.732155,25.4564942 C50.0043593,24.9836022 50.3311787,24.6044494 50.6921922,24.3446632 C51.0589983,24.0807086 51.4617683,23.9380602 51.8828838,23.9380602 Z M48.2561538,12.3670381 L48.5974094,12.4367382 L48.8238069,12.4846464 C52.5047827,13.2748111 57.1715515,14.8324864 58.8946297,18.3992889 C58.9616407,18.9140465 58.8908372,19.0243694 58.8332614,19.0964481 L58.8140916,19.1204334 C58.7666489,19.1819844 58.7287934,19.266832 58.5052239,19.3368914 C58.4431833,19.3221394 58.3805253,19.3065151 58.3172035,19.2899543 C57.5110894,19.0791278 56.8732973,18.7886846 56.2558469,18.4873151 L55.586374,18.1581557 C54.8096518,17.7780821 54.0260716,17.4118413 53.1956566,17.1414685 C51.4234796,16.5645992 49.6006432,16.1582307 47.7495654,15.9412392 C47.3483586,15.8942481 46.9620215,15.7591142 46.6572294,15.5275167 C46.3679205,15.3076842 46.1469071,15.003321 46.0461374,14.598756 C45.9155399,14.0751843 45.9530707,13.6787976 46.2345577,13.2064592 C46.4462185,12.8517432 46.7490713,12.6058787 47.0968229,12.4646949 C47.4513406,12.3207642 47.8549555,12.2868326 48.2561538,12.3670381 Z" id="ðŸ–-Ink"></path>
                    </g>
                    <g id="mask/*no-mask" transform="translate(5.462256, 66.599818)"></g>
                    <g id="accessories/Glasses" transform="translate(11.162002, 57.119417)" fill="#000000">
                        <path d="M92.4047735,14.9985634 C90.1405496,30.283103 74.3346802,31.9734585 71.5263681,16.7996026 C71.977123,16.6026472 72.301296,16.2148988 72.2336115,15.462155 C72.2176997,12.1553911 73.2462663,8.6604412 76.2353079,6.8214804 C79.324095,4.92397812 82.9389211,4.73579216 86.513374,4.78366819 C93.3345445,4.62155333 93.1911009,10.3114531 92.4047735,14.9985634 M69.0519661,8.35114312 C66.9112366,8.26107931 64.2029075,8.3364485 62.2851807,9.63810757 C61.7579542,8.22126162 60.3881154,6.70842662 59.0040271,5.89951139 C64.1485225,6.04977575 69.4440611,5.54447037 74.6270297,5.15221878 C73.3863851,5.99621149 72.2321866,7.26421513 71.4819576,8.73012215 C70.7858762,8.35967548 69.7888957,8.39427894 69.0519661,8.35114312 M59.6160373,16.6190009 C53.6799898,37.0103956 38.8627888,28.1225196 37.2473859,25.509247 C34.3336285,21.1847621 33.785503,10.6724193 36.3235522,7.86171741 C39.956665,5.32002188 45.0999729,5.97416955 49.3918813,5.91183592 C57.2767668,6.01801641 62.8767668,8.372 59.6160373,16.6190009 M99.4137981,7.24027712 C97.8010076,7.02981222 96.0775471,6.98738742 94.578039,7.6960474 C94.1163596,5.73763355 92.6669618,4.10036828 91.0304224,3.37985779 C90.8323562,3.13194531 90.8620424,2.99874567 90.1854351,3.03595624 C86.0305581,1.78975752 81.3812282,2.44911942 77.3885564,3.72707748 C71.0827379,4.25703191 64.4669958,4.67488058 58.1082171,5.40510848 C52.1515081,2.73542753 34.1752231,2.34412397 33.0580729,8.92423336 C31.6528482,8.71447949 29.2596675,7.61072379 28.0788702,9.10791613 C19.4173944,7.64248314 10.4676064,9.6791103 1.76860729,10.5861477 C-0.421044953,10.9885907 -1.5488821,15.3254002 0.936681934,15.2661477 C2.33406955,14.8876427 0.893696353,12.5656554 2.77532485,12.390979 C11.1684377,11.4761203 19.3779712,10.1782534 27.8570551,10.02633 C27.5620933,11.4874968 33.4651298,11.5825378 33.5522884,10.7293017 C33.5648753,10.735701 33.5781747,10.7399672 33.5909992,10.7456554 C32.1323393,16.1708149 33.4489805,23.9783993 36.0851128,27.3425196 C39.7785479,31.747588 49.0513215,33.0113254 53.1629754,30.1771595 C58.4668261,27.5612799 63.9844173,14.4304503 62.4345615,10.0680438 C65.2473859,9.17830811 68.0281493,9.44541841 70.947369,9.89858159 C70.2790738,11.7825743 69.1253503,16.4203865 70.7851637,16.8225925 C70.4804648,26.0304321 78.8773774,31.7757922 86.6181069,27.9985634 C93.3179203,24.8598396 95.6609907,14.9248532 94.8411773,8.89460711 C95.67524,10.5029572 102.678327,8.75192707 99.4137981,7.24027712" id="ðŸ–-Ink"></path>
                    </g>
                </g>
            </g>
        </g>
    </g>
</svg>