<?xml version="1.0" encoding="UTF-8"?>
<svg width="222px" height="686px" viewBox="0 0 222 686" version="1.1" xmlns="http://www.w3.org/2000/svg" xmlns:xlink="http://www.w3.org/1999/xlink">
    <!-- Generator: Sketch 62 (91390) - https://sketch.com -->
    <title>doc-nurse-1</title>
    <desc>Created with Sketch.</desc>
    <g id="Introduction" stroke="none" stroke-width="1" fill="none" fill-rule="evenodd">
        <g id="doc-nurses-covid-19" transform="translate(-1365.000000, -177.000000)">
            <g id="a-person/standing" transform="translate(1329.000000, 122.000000)">
                <g id="pose/standing/doctor-nurse-03" transform="translate(-28.736217, 150.264357)">
                    <path d="M107.935464,589.246888 C99.9900187,589.246888 92.031274,587.720306 84.3344801,586.242312 L84.0611298,586.180926 C80.851698,585.460179 77.5327837,584.715019 74.6095267,583.314053 C71.0991959,581.568948 68.4383647,578.252467 67.1357354,573.98439 C65.5882545,568.914983 66.1344801,563.019358 68.5592468,558.58419 C69.082436,557.77883 69.6094249,556.974418 70.1368889,556.169294 C75.0797557,548.624791 80.1910025,540.823369 82.5663715,531.679048 L83.4006718,528.467799 L80.5258626,530.01429 C80.4926141,530.032303 80.4479661,530.050552 80.3681696,530.050552 C79.7699338,530.050552 78.4423681,529.153232 76.9295606,527.184864 C70.9787888,517.318848 71.8468126,504.952139 72.6865751,492.991902 C72.9214521,489.646742 73.1432672,486.486213 73.225201,483.353178 C75.700553,450.567818 84.6208923,418.376879 93.2476947,387.245138 L94.5033011,382.710662 C101.060858,357.47336 104.757143,332.164955 105.495735,307.465666 C105.694514,302.111373 106.074735,295.922804 108.075108,290.375821 L108.463165,289.300033 L107.532682,288.661054 C103.584896,285.948711 102.382962,280.558866 101.322572,275.803497 L101.24515,275.456514 C99.4236064,267.39841 98.1271518,257.319322 104.313513,250.8179 L105.299332,249.781692 L102.999959,247.453779 L101.999179,248.556113 C101.940757,248.620343 101.834599,248.674855 101.741978,248.691209 C91.3335301,222.147745 85.7387549,192.478356 84.638704,157.994819 C83.5519525,123.924627 87.0822324,90.286031 90.2807396,64.78233 C92.0588227,53.5873984 93.4956336,45.7930866 97.0962103,39.7061951 C100.902215,33.2727949 107.201147,28.9682188 117.520299,25.7491486 L117.577534,25.7299508 C120.075922,24.8312088 122.688305,23.9784467 125.214955,23.1534148 C137.230256,19.2313728 149.654751,15.1751832 157.705167,4.08548405 C157.758365,4.01319599 157.812512,3.96223883 157.852411,3.93213856 C164.751953,6.66225706 172.625201,7.98998724 181.915549,7.98975023 C185.871647,7.98975023 190.143844,7.75866545 195.308526,7.26497356 C198.74476,11.1545451 206.480027,18.8523938 213.858585,18.8521568 C214.127661,18.8521568 214.397449,18.8414913 214.660112,18.8208715 C215.471851,18.7670702 216.304251,18.739103 217.11694,18.739103 C229.142928,18.739103 239.447355,24.7354567 247.744522,36.5620201 C254.210646,45.778629 259.335668,58.6165141 262.175566,72.7107894 L262.189815,72.7745451 C265.971121,88.0382279 267.149544,104.000379 268.289255,119.437079 C268.486609,122.111974 268.69085,124.878119 268.905303,127.597809 L268.90934,127.641892 C269.799213,135.811391 271.483013,143.943205 273.111715,151.807198 C273.870969,155.472795 274.655871,159.263059 275.347678,162.998574 C275.928339,167.114016 277.072563,172.409294 278.397042,178.538137 C282.011393,195.262749 286.961147,218.168109 281.751579,227.574563 L281.601486,227.845466 L281.57275,228.155475 C281.288475,231.216222 280.90113,234.732266 279.893225,237.729969 L279.768305,238.102075 L279.843115,238.488401 C279.975159,239.166487 279.352936,239.692175 277.908288,240.614381 C277.701198,240.746633 277.499569,240.875566 277.310528,241.00284 L276.570511,241.501036 L276.679993,242.400726 C277.794768,251.552157 276.423505,260.864755 272.818416,268.626596 C271.323895,271.612923 268.827881,276.584682 265.373123,276.584682 C265.030426,276.584682 264.674192,276.536332 264.314395,276.44058 L263.708797,276.279887 L263.183233,276.627107 C262.691393,276.952047 262.045897,277.110133 261.210171,277.110133 C260.286813,277.110133 259.28912,276.922421 258.323963,276.741108 C258.050612,276.689677 257.783912,276.639431 257.526236,276.594873 L256.191783,276.363789 L255.897534,277.71522 C250.192088,303.921418 245.837483,332.638264 242.584115,365.505867 C239.696007,394.686304 237.94761,424.039048 236.266185,454.050443 C234.663606,473.332868 232.605998,493.741564 226.723148,512.674636 L226.446236,513.566031 L227.122606,514.194819 C232.39772,519.100689 239.010137,521.657553 245.404777,524.130279 C250.632394,526.151737 256.038127,528.242166 260.55755,531.595384 L260.593174,531.620744 C269.772377,538.003898 280.17465,545.237681 284.060451,556.284481 C285.15789,560.305593 284.748458,563.657152 282.843081,566.247672 C279.935973,570.200288 273.301232,572.588401 265.09526,572.636514 L265.040875,572.636988 L264.986728,572.641254 C259.726338,573.083989 254.481147,573.308438 249.396974,573.308438 C241.003623,573.308201 232.814751,572.698374 225.057873,571.495785 L225.021062,571.490334 C218.172105,570.614582 211.281825,568.875639 204.618348,567.193816 C200.856041,566.244591 196.965727,565.262895 193.139535,564.45161 C188.441045,563.362312 184.091427,560.663242 180.890545,556.850461 C177.602979,552.934108 175.832258,548.138447 175.904455,543.346815 C175.968102,538.214126 178.063946,532.029349 182.602368,529.773251 L185.74554,528.210881 L182.430901,527.079158 C180.560434,526.44089 179.735871,524.504755 178.781401,522.26264 C178.390731,521.345411 177.986999,520.397134 177.490646,519.530625 C173.476838,510.835201 170.358365,501.340817 168.22096,491.307471 L168.207661,491.250352 C162.113445,467.325138 166.189713,442.921163 170.1318,419.32089 C173.561622,398.786341 177.108288,377.553087 174.082198,356.461564 L171.294073,356.303953 C167.021639,372.997517 163.968,390.587216 161.015057,407.597426 C157.435617,428.215402 153.734344,449.535639 147.822996,469.57223 C141.209628,491.987216 132.478093,510.340799 121.129187,525.682221 L120.527864,526.495165 L121.067678,527.351956 C121.116601,527.429459 121.136075,527.479705 121.143674,527.50388 C121.017092,527.766013 120.146456,528.320379 119.054005,528.467325 L118.450307,528.548146 L118.090273,529.051081 C116.286304,531.570024 118.386897,534.774636 119.642029,536.689203 C119.860282,537.022202 120.06666,537.336715 120.212953,537.585812 C121.952801,540.544645 123.546592,543.534053 124.740926,545.807927 L125.168882,546.598593 C128.389713,552.543041 132.398297,559.940835 133.954802,567.058246 C135.704149,575.056624 133.996601,581.118155 128.73526,585.586742 C126.599756,587.205521 124.028933,588.133178 121.676363,588.133178 C121.086202,588.133178 120.50459,588.075821 119.947678,587.962294 L119.642504,587.89996 L119.339942,587.973907 C115.817737,588.830461 112.087254,589.246888 107.935464,589.246888" id="ðŸ‘•-Clothes" fill="#8FA7DF"></path>
                    <path d="M132.00017,244.633858 C131.962646,243.952691 132.562782,244.225727 132.682002,244.697613 C133.731705,244.990321 134.504733,246.141479 134.260831,247.218689 C138.226667,252.85858 144.123291,257.562992 144.720577,264.84868 L144.732869,265.196721 C144.901878,270.769061 143.50113,270.883022 138.59335,272.233438 C138.319288,277.495535 138.018863,282.755499 137.816522,288.020913 C137.77045,289.217103 136.866565,290.198325 135.675318,290.21136 C131.786192,290.254496 127.89849,290.127933 124.011026,290.030995 C117.796641,289.34177 109.646718,291.707367 105.143444,286.13621 C100.456353,276.624997 96.7510433,260.213001 103.663647,251.07816 C105.906497,248.67322 109.650517,249.340403 112.589211,249.101734 C119.245564,248.610886 125.7295,246.890904 132.00017,244.633858 Z M260.971043,246.246261 C271.934504,247.518531 276.301459,239.55926 277.847752,243.527045 C278.84972,246.784985 277.081374,250.402706 276.121204,253.469141 C273.271807,261.285495 272.190755,272.267118 263.78648,275.999789 C259.141662,277.555522 256.280153,274.172204 258.307125,269.622797 C260.266175,262.699497 259.480085,255.500791 258.581187,248.513262 C257.369517,247.092149 259.644427,244.799789 260.971043,246.246261 Z M163.977856,-5.99400729 L164.600882,-6.0500692 C172.813321,-6.77931634 181.384166,-7.14077885 189.470443,-5.21685141 C193.087169,-3.08826436 193.581622,1.88230994 195.370867,5.43959344 C195.845846,6.66683136 194.35085,7.36103373 193.489713,6.77277484 C187.461282,9.14643026 181.799535,8.74659435 175.568763,7.77366819 L174.881599,7.72229359 C169.447211,7.32730771 163.709586,7.1415176 158.698229,4.7060474 C156.99828,3.39941112 159.042589,0.759119417 159.224268,-0.953989061 L159.275428,-1.19084952 C159.837625,-3.71340409 160.941906,-6.08524897 163.977856,-5.99400729 Z" id="âœ‹-Skin" fill="#EDB98A"></path>
                    <path d="M104.472299,529.746279 C108.110161,529.895358 113.1124,527.734301 116.03257,530.564912 C116.159389,530.475085 116.36933,530.553061 116.435589,530.713517 C117.362748,532.963216 118.496997,535.17452 119.56665,537.356671 C123.962341,547.191876 131.211705,555.883982 132.464224,566.926753 C133.435556,575.684273 128.163291,588.177783 118.10799,587.149397 C104.819508,587.022596 91.3500594,586.087355 78.557218,582.174793 C75.2045802,583.101028 71.601391,579.688321 69.9710263,577.042341 C65.7693639,570.223088 68.8766751,561.859716 72.3349958,555.499789 C76.1588126,548.941721 79.1421544,541.963435 81.6704665,534.792933 C81.0026463,533.969324 81.1458524,532.32163 82.3779474,532.134392 C84.4640543,531.970855 86.3665818,531.202706 88.490687,531.306279 C93.8047498,530.660664 99.1420865,530.190199 104.472299,529.746279 Z M226.588373,515.167176 C228.304472,511.540448 230.548034,516.406501 231.883674,517.877149 C238.710545,523.442855 248.554243,523.669437 255.545455,529.210494 L256.006868,529.511989 C258.744221,531.291025 261.808318,533.147849 263.650731,535.867869 L264.11792,536.193278 C271.791839,541.547166 281.509858,548.810768 282.856024,558.706392 C283.172122,559.120211 283.368051,559.646611 283.425048,560.207613 C283.113225,575.39095 260.958314,570.305189 251.141215,570.741998 L249.605043,570.675042 C233.036433,569.97192 216.094536,569.796691 200.5023,563.279263 C198.072071,564.182035 195.118653,563.628853 192.744234,562.636255 C186.488526,560.880485 181.175413,556.515234 179.712953,549.8261 C177.692631,543.371132 179.414192,530.412135 186.365744,527.957659 C190.138738,526.728999 194.19102,526.6925 197.93124,525.273521 C201.695209,524.052682 205.277025,522.344788 208.85029,520.642345 C214.417754,518.392645 220.425286,514.127887 226.588373,515.167176 Z" id="ðŸ‘Ÿ-Shoes" fill="#FFFFFF"></path>
                    <path d="M156.561679,3.21750593 C156.938338,2.69869098 157.567447,2.28107931 158.234792,2.5197484 C170.362663,7.3462206 183.43313,6.9655825 195.891349,5.74213674 C199.847922,10.6302315 204.938982,14.5259654 210.65464,16.9467858 C211.42553,16.8133491 212.216132,16.7998396 212.999135,16.9188186 C213.622782,17.0136226 214.23598,17.1833218 214.848702,17.3568131 C221.333825,17.0633947 227.855997,18.4344977 233.659288,21.4601677 C251.726293,31.4058195 259.088227,53.1593108 263.572265,72.4154275 C268.038965,90.4559198 268.869466,109.019493 270.325276,127.47973 C271.622918,139.387351 274.576573,151.000368 276.752214,162.756066 C278.973927,178.269794 290.350857,215.602665 282.990823,228.292182 L282.937365,228.858597 C282.637377,231.984141 282.229391,235.268749 281.241238,238.204653 C281.532875,239.706348 280.451111,240.660788 279.299288,241.437469 C279.511128,242.545017 279.257727,243.982009 279.248702,245.001152 C279.234453,246.64458 279.172943,248.189174 278.880831,249.806531 C278.827634,250.10066 278.658304,250.247606 278.458575,250.287898 C278.258134,256.837433 276.840797,263.371088 274.097795,269.270505 L273.800463,269.861049 C271.85803,273.693431 268.777664,279.132824 263.956047,277.851216 C262.157065,278.919657 258.995131,278.845947 257.352417,277.617524 L256.918833,279.836001 C249.860508,316.075666 243.973699,352.539892 241.821323,389.491234 C239.237201,421.558454 239.001137,453.867661 234.186751,485.714935 L234.018284,486.7407 C232.550841,495.632377 230.87943,504.563403 228.081137,513.11685 C232.25715,517.519548 238.163036,519.643158 243.678728,521.704908 C249.868889,524.018363 255.794724,526.835464 261.395199,530.415026 L262.818693,531.406492 C271.87642,537.731755 281.620841,544.977906 285.417489,555.840277 C289.176709,569.822921 276.032383,573.97107 265.103834,574.094552 C251.735081,575.218691 238.118863,574.994716 224.844394,572.936758 C216.72569,571.670448 208.643516,569.948318 200.713258,567.757332 L200.013927,567.562793 C198.858541,567.238089 197.616709,566.991599 196.564156,566.377032 C195.262477,566.347643 193.943223,566.126986 192.840797,565.87623 C182.737286,563.54334 174.317099,554.191872 174.480492,543.3252 C174.549839,537.756175 176.804563,531.035993 181.978745,528.462064 C180.06933,527.896795 179.043376,526.274935 178.297897,524.502337 C177.583528,523.085965 176.894334,521.656321 176.230789,520.213878 C172.016777,511.096576 168.925377,501.466859 166.829771,491.618144 C156.76307,452.108335 173.835233,412.820131 173.809822,373.295154 C173.653079,372.328153 173.530297,371.355227 173.416302,370.379457 C173.203986,368.558509 173.292332,366.715756 173.040831,364.895045 C172.816166,363.267734 172.371824,361.757506 171.767651,360.308901 C158.080899,416.377889 157.568634,478.844252 122.264648,526.561954 C123.456607,528.451398 120.917371,529.686458 119.239271,529.91375 C117.781561,531.948007 120.453554,535.166603 121.434148,536.834917 C123.029364,539.548919 124.530534,542.328572 125.994894,545.118655 L127.004458,546.982356 C133.533065,559.056493 142.210136,576.075423 129.615182,586.733349 C126.835606,588.853641 123.142409,590.098892 119.669839,589.390943 C115.766701,590.490669 111.699457,590.817269 107.655013,590.634297 C99.719067,590.45891 91.8061578,589.374115 84.050229,587.672146 L82.9470402,587.423721 C79.9065688,586.735632 76.8232084,585.98523 74.0039525,584.635099 C64.6392706,579.977378 62.5011535,566.609539 67.3445123,557.821444 C68.9677523,554.732255 71.2193893,552.057834 73.086056,549.129338 C76.58,543.649192 79.3329771,537.570596 81.1901442,531.305473 C80.7643257,531.610031 80.1820017,531.691088 79.5650042,531.3588 C66.8835454,523.568281 71.4442918,496.505765 71.8019508,483.276576 C74.4048346,448.76128 83.960933,415.464215 93.132536,382.314097 C99.4870399,357.859639 103.312519,332.723778 104.07201,307.420824 L104.094832,306.825987 C104.323493,301.073231 104.799559,295.249071 106.738304,289.87118 C102.626709,287.045783 101.241481,281.915808 100.167306,277.175136 L99.8553859,275.782593 C98.7935708,271.082684 97.9704326,265.823431 98.5005089,260.898363 C98.3715522,260.791234 98.2936556,260.628171 98.3207294,260.412966 L98.4655559,259.247823 C98.6890082,257.475544 98.9428499,255.764345 99.5585242,254.050906 C99.942782,252.981517 100.336539,251.916868 100.792757,250.876868 L100.972833,250.464796 C101.03363,250.327419 101.096031,250.190605 101.162528,250.056102 C100.873978,249.939967 100.625802,249.716941 100.472383,249.361663 C84.331179,210.220879 82.2122986,166.99973 83.7500424,125.053222 L83.7913896,123.542557 C84.4888809,98.8659833 86.2890938,74.0781335 91.7144869,49.972474 C94.1615776,35.4195843 104.119271,28.4934403 117.105428,24.3538232 C126.07469,21.1274057 135.758796,18.7298122 144.056675,14.0621367 L144.142235,13.9075399 C144.732883,12.857416 145.453394,11.9431017 146.739593,11.5898851 C147.18631,11.4671139 147.660814,11.4346436 148.119881,11.4960292 C151.265191,9.26197265 154.125988,6.57190884 156.561679,3.21750593 Z M118.161306,530.124452 C111.873299,531.533951 105.407651,531.058509 99.0267854,530.845674 C97.031162,534.705382 95.7679559,538.959001 94.7961493,543.185127 C93.8324173,549.646494 90.1318575,547.679074 92.2799491,542.253914 C93.6227142,538.038691 95.9239864,534.265491 98.5969296,530.831927 L98.0683911,530.816059 C92.6046743,530.659893 87.0783079,530.760402 81.8686514,532.503322 C81.7610687,542.548518 76.6550466,551.158381 71.3500085,559.251088 C67.0588126,566.788955 69.4030704,578.959657 78.4668533,581.293021 C91.0229177,585.474826 104.29525,585.67984 117.331518,586.45581 C117.636217,585.138509 119.137863,584.645765 120.340509,584.794844 C123.703121,585.38334 127.165242,583.551253 129.132366,580.791508 C137.109398,567.993677 123.485106,551.982702 119.622103,539.663395 L119.527856,539.436205 C118.474505,536.929762 116.260567,532.591276 118.161306,530.124452 Z M158.365886,5.76180857 C156.22112,8.93489881 153.569075,11.5228113 150.580746,13.7030665 L150.643039,13.784756 C150.653761,13.7981076 150.664818,13.8112221 150.676455,13.8239417 C150.99564,14.1735314 151.473469,14.0391468 151.940373,14.1981805 C152.509398,14.3920547 152.890331,15.1014257 152.525785,15.6704868 C151.878626,16.6808605 150.682629,16.7548077 149.669262,16.2229572 C149.248431,16.0020638 148.854198,15.6920547 148.567786,15.3047803 C148.531925,15.2561933 148.499389,15.2016809 148.468516,15.1433765 C130.746344,26.453732 103.432214,25.9083719 96.6138931,44.4693382 C88.4991179,72.9321094 87.6408312,103.060824 86.9100763,132.528518 C85.618134,171.504106 89.0256319,210.970541 103.115403,247.511088 L103.819726,247.563071 C106.282716,247.742288 108.725191,247.885425 111.208561,247.756537 L111.851688,247.719183 L111.851688,247.719183 C119.049279,247.142775 126.13145,245.28272 132.299763,241.305692 C131.635267,241.443632 130.980746,241.013696 130.785293,240.355045 C129.695691,237.682757 132.046599,235.369776 132.819152,232.929758 C140.237846,216.449739 138.33698,198.10303 136.647956,180.610979 C134.93257,155.556175 135.042765,130.267679 138.295657,105.345601 L138.597496,103.073952 C139.164598,98.8241094 139.779448,94.5341226 140.899016,90.4168131 C140.974063,90.1409335 141.375895,90.2025561 141.380407,90.4834129 C141.364495,91.950979 141.330772,93.4187821 141.284699,94.8861112 C141.918558,93.4536226 142.647888,92.0185269 143.917744,91.0963209 C144.380611,90.7600036 145.06363,91.3221914 144.882663,91.855227 C144.357812,93.3998213 143.358456,94.7104868 142.707973,96.2072051 C142.061527,97.694917 141.601035,99.2686636 141.178304,100.836011 C141.118694,101.057852 141.062646,101.280879 141.004936,101.503905 C140.610466,109.248445 140.040967,116.993696 139.934572,124.744397 C137.923274,154.709101 143.337795,184.500077 142.464784,214.346749 C147.743461,213.655865 153.02285,214.953969 158.272078,215.381772 C177.708685,217.505382 197.426005,217.428828 216.731518,214.10334 C218.360696,213.57623 222.015657,213.9955 220.420679,216.442866 C219.299254,217.601845 217.816132,217.608244 216.314249,217.836248 C211.985768,218.491818 207.638762,219.021772 203.278219,219.398618 C187.645242,220.728718 171.837472,220.285036 156.357676,217.612985 C151.705496,216.721353 147.084427,215.646038 142.391162,215.005163 C142.20592,216.589575 141.960594,218.168062 141.674419,219.734461 C161.870042,227.200751 183.581086,225.716357 204.587023,223.987132 C205.819118,224.009174 206.16229,226.001717 204.885785,226.24726 L202.356057,226.473042 C182.055272,228.276025 160.30455,229.853434 141.507701,220.617324 C140.238321,227.13107 138.036081,233.481517 135.038015,239.373586 C136.029059,238.23025 138.888668,238.729156 138.247684,240.630687 C138.252434,241.802465 136.953367,242.637214 135.644801,243.33829 L135.633621,243.473224 C135.584021,244.034429 135.499695,244.573042 135.493757,244.720295 C135.43391,246.21251 135.995573,247.498053 136.186039,248.91798 C137.947023,250.952237 140.114351,252.693076 141.936132,254.63087 C146.107871,259.231234 147.790958,266.137469 145.440288,272.057743 C145.154589,272.777305 144.692909,273.168372 143.918694,273.24303 C142.411349,273.229521 141.027735,274.847588 139.560051,274.387077 C139.877337,277.848609 140.052604,281.300186 140.195335,284.766458 L140.233965,285.16395 C140.440666,287.386397 140.520573,290.170063 138.904105,291.695446 C138.771111,291.938367 138.544712,292.13468 138.208277,292.229453 L138.139389,292.246968 L138.139389,292.246968 C137.989771,292.328026 137.832316,292.402684 137.662986,292.468335 L137.533316,292.375665 L137.533316,292.375665 C135.639101,292.76128 133.727549,292.887132 131.802697,292.722884 L131.573244,292.751914 C129.303424,293.025918 126.659642,292.966865 125.875437,293.018673 C119.783359,292.699183 113.076183,293.270614 107.522019,290.360605 C105.570331,298.315847 106.370195,306.759566 106.250975,314.878582 C106.130806,323.170377 105.544919,331.433495 104.579763,339.665564 C101.00531,373.019274 89.6231552,404.657032 82.5063104,437.25468 C77.375352,461.610778 73.7443766,486.62695 75.0415437,511.595719 C75.2738083,514.849867 75.7775233,518.094771 76.8550127,521.176613 C77.8472434,524.014571 79.5987277,526.534935 81.4677693,528.83654 C81.8149788,529.263632 81.921374,529.751161 81.8555895,530.195318 C82.0270568,530.701572 81.866039,531.332966 81.8971501,531.875008 C93.0551145,526.026312 106.163579,530.343923 117.872757,526.831909 C117.962528,525.697816 118.369822,524.446877 118.831739,523.405218 C128.673299,509.772164 136.055182,494.406567 141.562324,478.451052 C152.978677,445.595774 156.845954,410.762884 163.800831,376.786312 C170.808668,342.999821 181.269364,309.507697 198.847854,279.832383 C198.977048,279.612438 199.267973,279.805127 199.17464,280.027679 L198.28492,282.211274 C188.705309,305.753072 179.463684,329.54461 173.280696,354.28458 C186.425734,406.940149 153.095997,454.761426 177.729347,510.601462 C178.775725,513.20241 179.907837,515.770177 181.112858,518.297889 C181.897761,520.515592 184.520594,523.749356 184.327752,525.911836 C193.665835,527.839912 201.455488,521.101006 209.228991,516.998837 L209.469441,516.893355 C212.127018,515.710642 216.876346,513.102025 219.447447,514.553841 C221.038151,515.607825 220.668855,518.089083 219.292366,518.827606 C221.03812,520.447415 222.736288,522.214898 224.215194,524.105579 L224.415488,524.36416 C225.98648,526.412638 227.865971,528.207041 228.635199,530.763194 C228.887651,531.601736 227.935318,532.272 227.228787,531.86932 C224.914928,530.550596 223.561476,528.125036 222.139627,525.93293 C220.749839,523.789648 219.648126,521.412201 218.836862,518.994935 C212.216607,519.270104 205.849042,524.511344 199.819423,527.211836 C196.460611,533.036357 195.777829,539.839493 195.947159,546.464871 C193.454232,551.393969 190.112994,535.524489 198.313978,527.937798 L198.025132,528.058679 C193.586389,529.892988 188.702474,530.831261 184.023528,529.121663 C184.11045,529.299183 184.111399,529.925127 183.761103,529.676977 C182.821595,528.520131 180.655929,532.993222 180.392791,533.579584 C174.556251,545.576084 181.765479,558.931599 194.254572,561.758892 C195.052536,559.727242 198.135386,560.160496 197.156217,562.429393 L197.182693,562.47532 C197.187698,562.483589 197.193028,562.492201 197.198728,562.501207 C198.404224,562.856485 200.309364,562.876157 200.766293,564.230906 C217.823969,568.903085 235.568702,570.629466 253.197065,570.487023 C260.930433,569.813203 278.170263,571.680605 281.708617,563.189484 C284.449483,552.949703 273.103664,544.192656 266.325242,538.427624 C261.929075,534.923668 257.175725,531.8487 252.206972,529.267661 C243.718388,524.858089 233.344614,522.214005 227.830348,513.627606 C227.371756,514.473969 226.773045,515.248044 226.228719,516.036813 C225.332434,517.335391 223.141832,516.965892 223.158694,515.185947 C222.938066,512.551581 223.512553,510.022684 224.36229,507.557305 C235.57179,466.05685 233.815793,422.555792 238.026718,380.032875 L238.407441,375.89157 C240.288244,355.527961 242.332449,335.138613 245.951739,315.015336 C253.075233,280.459985 260.762053,254.40808 250.533622,219.050687 L249.514224,219.273443 C245.832454,220.074076 242.027633,220.819292 238.289856,220.164397 C238.147362,220.135482 238.156624,219.913878 238.289856,219.879037 C241.072757,219.174644 243.96894,218.944033 246.730941,218.108572 C245.705937,217.351562 246.089958,215.835646 246.187566,214.718855 L245.462658,214.813593 C233.853737,216.323189 233.536629,215.984043 238.767684,214.243413 C238.676489,214.250049 238.58553,214.25953 238.494097,214.264981 C238.332604,214.274461 238.327379,214.047169 238.458711,213.996448 C240.312553,213.281389 242.225293,212.734607 244.101934,212.084252 C245.006768,211.770687 245.904953,211.437451 246.796489,211.086439 L246.881747,211.051125 L246.881747,211.051125 C258.769754,159.491964 247.575691,106.769557 241.533723,55.2179799 C241.514724,55.006567 241.83011,54.9795479 241.884495,55.1693929 C254.386887,105.67623 262.60117,159.438399 251.708007,211.020314 C252.151874,210.859147 252.592417,210.773586 253.026548,210.760788 C253.751342,209.730718 254.724288,208.805277 255.629945,207.961484 L255.928906,207.683212 C256.884326,206.793477 258.024037,205.828846 259.243545,205.289411 C261.118015,203.850652 263.280694,202.789655 265.528023,202.182898 L265.726531,202.130541 C267.097557,201.776923 268.749534,201.410742 270.022714,202.263741 C275.071976,206.147624 262.566022,212.993422 259.560356,214.016594 C262.697116,215.26303 268.755471,219.478964 267.011586,223.501973 C265.70207,226.278782 262.775013,225.105345 260.817863,223.896357 C258.665971,222.487333 256.520967,221.39045 254.366938,219.906531 C254.099763,220.064616 253.822375,220.200186 253.540237,220.300915 C255.05067,225.38478 256.311501,230.543541 257.254097,235.753258 C258.379559,235.524543 259.595267,235.532602 260.700068,235.401061 C262.460339,235.191307 264.227498,235.023978 265.977795,234.733404 C267.769652,234.435719 269.558897,234.063851 271.311094,233.576084 L271.54058,233.510802 C273.06707,233.068116 274.52868,232.49367 276.135691,232.854151 C276.669092,232.973841 277.042901,233.764981 276.687854,234.24303 C275.559779,235.761079 273.883579,236.213768 272.14207,236.659584 C270.312689,237.127442 268.460271,237.464707 266.583393,237.654315 C264.702239,237.84416 262.800662,237.907442 260.918558,237.682994 L260.178737,237.596973 C259.293697,237.492654 258.346258,237.362161 257.486599,237.076248 C259.033605,246.166768 259.593842,255.406129 258.787091,264.666111 L258.821691,264.420953 C259.413956,260.332283 261.338368,252.178679 265.081985,250.432474 C266.185598,250.516376 263.215556,255.860241 263.138372,256.889812 C261.418711,263.217506 260.224139,269.717032 257.899118,275.86602 L258.09851,275.919062 C259.629923,276.313818 261.22109,276.425502 262.646056,275.610997 C262.663393,274.330906 263.841578,273.544033 265.14112,273.846458 C267.64307,274.25056 270.215081,268.668974 271.309194,266.733787 C275.137286,259.237397 275.744784,250.666166 277.552078,242.548809 C272.069398,245.757214 265.179593,247.253696 259.03693,245.317561 C258.781391,245.232711 258.836251,244.863212 259.099152,244.847807 C265.887074,244.603212 272.791841,242.821371 278.092366,238.280496 C276.82631,237.168919 279.274351,230.660861 279.327074,228.539147 C279.428007,227.539201 279.618948,226.746403 280.223834,226.010961 C285.619355,212.60994 275.473333,177.698363 273.13335,162.030341 C261.133249,121.544762 271.877506,23.9468769 216.958558,18.5461294 C216.534877,18.6454366 216.108109,18.6897575 215.675878,18.7039781 C215.80056,18.7836135 215.495148,18.7672598 215.043681,18.7075333 C214.537354,18.6971048 214.022002,18.6632124 213.493113,18.6425925 L213.305155,18.6363924 C212.398607,18.612563 211.522027,18.6868675 210.772434,19.2566855 C209.999881,19.8439964 209.780679,20.2447803 208.720051,20.0864576 C208.291208,20.0223069 207.95646,19.5041371 207.943845,19.086014 L207.943698,19.0431395 L207.949635,18.7975971 C207.96056,18.3404047 208.19045,17.825382 208.612706,17.6151541 C208.847108,17.4980711 209.088159,17.3987639 209.331586,17.3077521 C203.781459,15.439165 198.743834,12.1883355 194.751637,7.72543665 C193.123885,8.0811887 191.485445,8.3767402 189.840594,8.61375023 C189.695963,8.90550957 189.351841,9.25723245 189.286056,9.46035005 C189.005106,10.3285178 189.085852,11.37468 189.153062,12.3414439 C189.514046,13.4892835 189.727786,14.6548988 189.879779,15.4088277 L190.078231,16.3897055 C190.441865,18.1993712 190.785107,20.066093 190.789126,21.8976882 C190.792214,23.3026837 190.729042,24.7178706 190.619559,26.1261841 C195.008838,56.8929298 198.323003,87.8246345 203.25542,118.511745 C204.112282,118.993349 204.573011,120.023395 204.562087,121.025473 L204.669669,121.071216 L204.669669,121.071216 C206.438354,121.913158 206.796391,124.068648 206.76169,125.874556 L206.759813,125.957652 C206.713265,127.760113 206.354894,129.930651 204.897897,131.123759 C203.677201,132.122757 201.698202,132.188882 200.076387,131.541608 C199.452977,131.565546 198.910314,131.241079 198.534843,130.697615 C198.470721,130.604944 198.410161,130.510614 198.352214,130.414625 C197.711705,129.748864 197.323885,128.887807 197.385157,127.86819 C197.395369,127.697779 197.429805,127.504379 197.484902,127.293914 C197.438117,125.034261 198.476421,122.715118 200.386785,121.547843 C195.511603,92.2133491 191.366938,62.5434859 189.111739,32.789247 C188.525883,28.6901895 188.047585,24.5820244 187.832516,20.436335 L187.804835,19.8707785 C187.762324,18.9516536 187.709839,18.0206782 187.661628,17.0854366 C187.462335,15.8571322 187.228573,14.6360697 187.006246,13.4120994 L186.874589,12.6772871 C186.635437,11.3213528 186.600288,9.98106108 185.38648,9.13493528 C185.375081,9.12687694 185.365818,9.1164485 185.356081,9.10602005 C176.26,9.81396901 167.060136,8.71827165 158.365886,5.76180857 Z M250.444397,552.816954 C247.267976,553.049934 246.545534,545.990828 248.31103,547.934547 C248.517693,548.676898 248.875462,549.447912 249.362142,550.049868 L249.477942,550.188252 C250.066428,550.862803 252.060359,552.311985 250.444397,552.816954 Z M104.201276,533.715533 C104.264685,533.597739 104.454439,533.649407 104.450402,533.784266 C104.400054,535.406837 104.283447,536.832215 104.680529,538.434166 C105.061462,539.971887 105.778205,541.307201 106.637917,542.616445 C107.262989,543.568277 105.797679,544.392598 105.157408,543.501677 C103.310928,540.931541 102.64572,536.606108 104.201276,533.715533 Z M211.835223,521.119706 C211.879396,520.927965 212.182433,520.920618 212.221618,521.119943 C213.258497,524.530281 213.563196,528.131885 214.367573,531.607637 C214.505079,533.587619 217.798819,540.064155 214.744231,540.531302 C211.91027,540.57586 211.737615,533.727218 211.27926,531.57967 L211.238618,531.207049 C210.879026,527.847576 210.70049,524.334883 211.835223,521.119706 Z M95.2811501,531.149094 C95.4245937,531.149094 95.4245937,531.376861 95.2811501,531.376861 C95.1377065,531.376861 95.137944,531.149094 95.2811501,531.149094 Z M109.65389,492.424144 C109.800896,492.153242 110.232414,492.339294 110.142405,492.634846 C107.028919,502.692366 104.362626,512.889486 102.052092,523.169322 C100.705289,530.189085 96.2955861,528.068319 98.2712604,521.864819 C100.798148,511.603706 104.668275,501.692184 109.65389,492.424144 Z M188.647898,495.48392 C188.634836,495.229845 188.993445,495.203774 189.063267,495.426326 C191.048916,501.800237 193.727796,508.025542 197.488679,513.51825 C198.660926,515.218086 200.300553,516.793965 200.877652,518.836281 C201.148628,519.796408 200.127186,520.423063 199.340383,520.045506 C197.351664,519.090967 196.100335,516.770179 194.982665,514.920288 L194.920706,514.818013 C191.357652,508.982826 189.005557,502.38186 188.647898,495.48392 Z M121.993364,509.091448 C122.256977,508.753945 122.733856,509.186963 122.552651,509.533234 L122.469945,509.700307 C121.632765,511.412597 116.698965,521.819483 116.025255,517.704155 C117.326697,514.473708 119.878521,511.799998 121.993364,509.091448 Z M224.961476,516.885688 C225.09067,516.885688 225.090433,517.090702 224.961476,517.090702 C224.832282,517.090702 224.832519,516.885688 224.961476,516.885688 Z M202.929252,452.233572 C203.004774,451.838476 203.562874,452.015285 203.508726,452.396871 C202.804332,457.37977 202.747335,462.420737 202.989574,467.442505 C200.738887,470.825586 202.4101,453.008357 202.929252,452.233572 Z M116.651349,417.80047 C115.39598,430.610625 111.723444,445.210443 108.542273,458.334162 C108.383393,458.945648 107.478321,458.686122 107.619152,458.073925 C110.701052,444.665557 113.747566,431.251026 116.651349,417.80047 Z M204.683515,380.119336 C204.681852,379.804113 205.118833,379.820704 205.151131,380.119336 C205.884974,386.913229 205.431606,393.775617 203.8998,400.423985 C203.773218,400.974323 202.992115,400.733046 203.084024,400.193849 C204.214473,393.557805 204.717476,386.851843 204.683515,380.119336 Z M132.188475,305.30449 C132.243098,305.12223 132.476312,305.174609 132.494599,305.346915 C132.752461,307.768582 132.484531,310.367437 132.365194,312.812173 L132.35258,313.08316 C131.41046,333.063342 129.988136,353.007973 126.906711,372.775557 C126.758992,373.703688 125.308645,373.459094 125.332156,372.557745 C125.462538,367.557781 125.718551,362.561136 125.999026,357.568283 C127.364115,340.097088 129.187559,322.555265 132.188475,305.30449 Z M232.909605,279.351916 C232.940716,279.192171 233.171081,279.262089 233.145669,279.418516 C232.423701,284.638188 231.829503,289.886064 230.925856,295.081798 C227.879342,313.162108 225.246772,331.354049 221.336984,349.26466 C221.142955,350.088507 219.766941,349.92023 219.871674,349.061779 C222.493082,330.186538 226.51829,311.538352 229.986348,292.811953 C230.89142,288.31208 232.034694,283.852974 232.909605,279.351916 Z M132.890636,244.87293 C130.360662,246.261335 127.639983,247.441644 124.819084,248.334935 C123.480119,248.937178 121.972536,249.218272 120.527888,249.447223 C119.059254,249.742775 117.576132,249.951107 116.090399,250.065582 C115.272841,250.161927 114.454483,250.250939 113.636124,250.335618 L112.505167,250.450223 C109.772861,250.721204 106.461074,250.978159 103.735963,249.982155 C103.626148,251.158673 103.199886,252.474531 103.033018,253.04392 L102.877991,253.581014 C102.522379,254.807149 102.137128,256.057935 101.584546,257.195792 C101.210738,257.965601 100.771145,258.705072 100.322765,259.437907 C99.8845971,265.380933 101.602595,271.732802 103.219186,277.307515 L103.451677,278.139196 C104.336275,281.269097 105.47176,284.727549 108.075844,286.727953 L108.09807,286.689517 C108.300739,286.316431 109.131035,284.354672 109.227193,285.423686 C108.982816,285.966202 108.757913,286.515829 108.548448,287.071143 C113.897659,290.203705 121.720797,288.914844 127.762765,289.327005 C129.060407,289.479639 131.1743,289.435792 132.872349,289.717597 C132.957371,289.686312 133.042392,289.655263 133.124563,289.622556 C134.257388,289.170104 135.367413,288.659584 136.458202,288.110432 C136.492875,288.02179 136.524224,287.934808 136.537048,287.862994 C136.690704,284.558126 136.45464,281.180259 136.609483,277.859274 L136.618825,277.438612 C136.739656,272.519847 137.514396,255.609448 139.198592,270.896631 C140.405513,270.228026 141.675131,269.977269 143.004122,269.977743 C146.567413,260.867314 139.64341,255.942009 135.460509,250.086676 C135.324902,250.09118 135.189771,250.057761 135.072451,249.97623 C133.93464,249.18746 133.463461,247.837688 133.401001,246.459712 C133.194148,245.944452 133.021493,245.416157 132.890636,244.87293 Z M258.529775,267.856107 L258.475707,268.437889 C258.438588,268.828481 258.400062,269.218758 258.359847,269.608718 C258.416845,269.141714 258.462291,268.673344 258.501779,268.203973 L258.529775,267.856107 Z M122.241635,238.274334 C124.280244,237.946075 126.440923,237.264434 128.500668,237.615209 C129.043807,237.707643 129.084655,238.530541 128.649574,238.780824 C126.718036,239.891801 124.179589,239.990585 122.002401,240.303279 L121.854528,240.324944 C119.592679,240.662921 117.322992,240.953732 115.043569,241.134571 L114.510654,241.175815 C110.336501,241.48993 105.503415,241.622513 101.675053,239.768445 C101.470813,239.669612 101.590507,239.377378 101.781686,239.365291 C104.003399,239.225929 106.270711,239.425017 108.496936,239.462702 C110.756885,239.500861 113.018735,239.368372 115.269659,239.17118 C117.604417,238.966403 119.927301,238.64715 122.241635,238.274334 Z M256.994283,214.120879 C257.299932,215.415665 257.085717,216.795063 256.400797,217.932474 C257.568024,218.633347 258.719198,219.361035 259.867481,220.093301 L260.441442,220.459712 C261.207108,220.94582 264.666141,223.819092 265.097422,221.97942 C265.346073,219.016558 260.428142,216.011982 258.438219,214.301717 C257.939966,214.346749 257.482561,214.263796 256.994283,214.120879 Z M252.452536,212.116959 C252.180373,212.094206 251.905123,212.110086 251.63676,212.171708 C252.006531,214.048354 252.436624,215.914097 252.897116,217.77344 C254.307566,217.473623 255.32402,215.959129 255.037608,214.486111 C254.938813,213.711799 254.50112,213.076613 253.911196,212.656868 C253.443579,213.153167 252.580305,212.756649 252.452536,212.116959 Z M250.093791,216.748846 C250.046293,216.860715 249.996896,216.971872 249.94631,217.082793 C250.011383,217.056485 250.076455,217.030651 250.141052,217.005528 L250.093791,216.748846 L250.093791,216.748846 Z M267.938745,204.638819 C263.296302,204.673896 258.925785,207.374862 255.609008,210.591562 C255.426141,210.837342 255.241849,211.081462 255.05447,211.32179 C255.371043,211.520405 255.661968,211.762155 255.916319,212.042064 C256.419084,211.495282 256.785768,210.96983 257.470925,210.636594 C261.309228,209.418126 265.01715,207.519675 267.938745,204.638819 Z M156.076251,136.640026 C156.057489,136.408704 156.42726,136.360828 156.470008,136.585276 C157.678592,142.948995 158.375386,149.433116 158.875064,155.89235 L158.890286,156.150109 C159.072797,159.016728 160.626538,180.55988 157.337557,175.229998 C157.124529,162.360117 157.481951,149.471037 156.076251,136.640026 Z M110.686678,110.605296 L110.653245,110.464188 C110.600522,110.302547 110.839437,110.20561 110.917808,110.350186 C112.555298,113.36282 110.787427,117.13365 110.081608,120.182073 C107.162122,131.595348 107.602554,143.366448 108.21144,155.028261 L108.248902,155.742109 C108.279064,156.59416 107.044594,156.726175 106.827528,155.938828 C104.792244,148.551936 105.035196,140.549293 106.012227,132.997442 C106.502168,129.209311 107.212974,125.455072 108.236791,121.778809 C108.948887,118.063714 111.557812,114.459197 110.686678,110.605296 L110.686678,110.605296 Z M202.849313,125.050614 C202.272689,125.05654 201.777998,125.449976 201.559271,125.980168 C201.467362,126.20272 201.427701,126.433568 201.415827,126.675318 C201.396115,127.079894 201.664241,127.445601 202.051349,127.53685 C202.417795,127.623121 202.768804,127.446075 202.956183,127.121608 C202.994894,127.054771 203.022205,126.981772 203.054741,126.911854 C203.065982,126.887521 203.079546,126.863188 203.091702,126.838715 L203.110877,126.795614 L203.110877,126.795614 L203.113639,126.786239 C203.225734,126.659675 203.292943,126.494479 203.30933,126.326202 C203.466073,126.192055 203.571518,125.997232 203.561781,125.779894 C203.544682,125.38788 203.24877,125.046822 202.849313,125.050614 Z M207.365696,21.5146089 C207.424594,21.4425579 207.529089,21.5352288 207.488003,21.611072 C206.095841,24.1804977 203.719759,26.2574166 201.029004,27.2820109 C200.190429,27.6017375 199.776485,26.1450738 200.656146,25.8983464 C203.383237,25.132804 205.547715,23.7403701 207.365696,21.5146089 Z M154.857812,19.8227366 L154.838247,19.7618011 C154.726801,19.3957654 154.32717,17.8660962 154.765191,18.2515971 C155.22782,18.9161732 156.050721,19.5994731 156.629245,20.1737484 C158.60112,22.3025725 161.38972,23.2650702 164.105649,23.9571395 C164.705785,24.1218614 164.79698,25.197887 164.105649,25.2969572 C161.835488,25.6218979 159.846277,24.9047056 158.014996,23.5272033 C156.717829,22.5564102 155.552468,21.3185068 154.857812,19.8227366 Z M187.726226,8.88560073 C187.464275,8.91522698 187.201849,8.9367949 186.939898,8.96357703 C187.227973,9.10767912 187.487311,9.31364084 187.721951,9.56439745 C187.730738,9.52671285 187.74,9.48902826 187.749975,9.45134366 L187.726226,8.88560073 L187.726226,8.88560073 Z" id="ðŸ–-Ink" fill="#000000"></path>
                </g>
                <g id="Head" stroke-width="1" transform="translate(95.945717, 42.661805)">
                    <g id="head/Short-5">
                        <path d="M57.360939,17.8372836 C70.8172912,17.8372836 84.7355854,28.2685678 89.6681655,34.9250481 C93.8152434,40.5214988 96.0481029,65.8283862 96.0481029,82.9309955 C96.0481029,86.5079131 98.021847,93.2506395 97.4458545,96.6720988 C95.3351823,109.209727 86.139433,119.72461 67.9390835,119.72461 C49.7387341,119.72461 36.6893384,112.509684 23.1614737,93.1384275 C16.5976909,93.1384275 13.4166153,88.1043611 13.3697586,80.1600776 C13.3393999,74.8638885 15.4515283,71.2523403 19.7061439,69.325433 C18.1891651,48.4244272 19.3409417,35.2531154 23.1614737,29.8114978 C28.8922718,21.6490714 43.9045869,17.8372836 57.360939,17.8372836 Z" id="âœ‹-Skin" fill="#EDB98A"></path>
                        <path d="M51.6981824,13.4043154 C60.1942153,12.543969 68.5196166,13.2668496 76.8924155,14.7626199 C77.5322841,14.8785178 77.8948763,15.2982625 78.0297227,15.8028569 C81.9734461,15.9829845 85.9216723,16.2723737 89.8601819,16.4880529 C91.2894587,16.5662662 92.099722,17.9786089 91.448004,19.2539599 C91.3178973,19.5073236 91.182577,19.753814 91.0451237,20.0003045 L91.2178077,19.9433692 C92.4026254,19.5632381 93.6824791,19.3758271 94.8369376,19.9792106 C96.3062654,20.7471231 96.8823842,22.4415077 96.5577101,24.0010337 C96.4745272,24.3992106 96.334941,24.7807967 96.1761588,25.1531395 C96.498463,25.1318086 96.8231371,25.1389189 97.1454412,25.1815807 C98.861237,25.4091103 100.136234,26.724516 100.22629,28.4760201 C100.359003,31.1208149 98.6550571,33.8040055 96.6477657,35.6974786 C96.9390244,36.297351 97.0506459,37.0036408 96.9295448,37.7194111 C96.6878167,39.134361 95.6455419,39.9816718 94.4373752,40.5343792 C94.9412125,42.1344339 95.1793858,43.8072507 95.0388517,45.516804 C94.991928,46.0875242 94.4928305,46.5589371 93.9660053,46.674598 C95.9296909,52.0817448 96.9236201,57.8870684 97.638377,63.5437867 C98.147902,67.568454 98.3991097,71.6165852 98.4296812,75.6715898 C98.4446378,77.5023606 98.4144671,79.3351913 98.3376712,81.1662534 L98.3066842,81.8528113 C98.2118889,83.832082 98.2071491,85.910423 97.8516666,87.8683628 C99.065047,89.9324831 99.553243,92.4947985 99.7594229,94.8077794 C100.01537,97.6708605 99.6101202,100.624005 98.7069576,103.347488 C95.2990649,113.638226 85.0140068,120.132301 74.683447,121.820049 C65.1212034,123.381945 54.0562167,121.279666 48.468031,112.593012 C48.3803453,112.455546 48.5675661,112.342018 48.6765808,112.432082 C52.6745745,115.683623 57.3121998,117.134124 62.3508095,117.840414 C71.0625018,119.058882 80.854624,116.991918 87.8457808,111.512483 C91.2015361,108.881672 93.6211873,105.05159 94.685502,100.929748 C95.2282054,98.8229663 95.4154262,96.6256463 95.2018997,94.4572416 C94.9838704,92.2577885 94.0100852,90.3806691 93.3962853,88.3020912 C93.1901054,87.6003045 93.4081347,86.9485269 93.8370837,86.4842242 C93.9577107,84.7964758 94.2423338,83.0947438 94.3511114,81.4122097 C94.4719755,79.4993017 94.5456789,77.5866308 94.5717476,75.6715898 C94.6215152,71.6993017 94.4556233,67.7199034 94.1214697,63.764443 C93.5100397,56.5211796 91.8866694,49.4537776 90.9339762,42.2721367 C90.5811795,42.5885372 90.0755806,42.7184577 89.545622,42.4420274 L89.490717,42.4119727 L89.2015912,42.2463026 C89.1850021,42.2463026 89.166043,42.2486727 89.1492168,42.2508058 C87.170601,42.443021 85.1182817,42.1680893 83.2223748,41.5776974 C81.2385452,40.9617083 79.3973826,40.0136682 77.7524463,38.7504047 C77.4398587,40.3357648 77.3092781,41.9379526 77.3071452,43.554361 C77.3047753,44.5640237 76.2359578,45.0880529 75.3875394,44.6566946 C71.6265341,42.7461568 68.0337905,40.5445706 64.6235279,38.070186 C64.2251504,40.1108423 63.827247,42.1512616 63.4264996,44.1942881 C63.2726942,44.9813984 62.2699964,45.2989918 61.627758,44.924516 C59.0732604,43.4382261 56.8668987,41.4926108 55.0705269,39.1791559 C54.7118845,39.8650629 54.3521888,40.5508646 53.9900355,41.2351564 L53.4447867,42.2602862 C52.9068231,43.2675789 52.1863785,44.381763 51.0085463,44.7038596 C49.7619875,45.0451541 48.7213716,44.2371869 48.3021392,43.1087821 C48.1741654,42.7582443 48.0556713,42.3977521 47.9466566,42.0351267 C46.8847117,44.4599763 45.6857876,46.8300766 44.3302142,49.0911522 C42.296854,52.4825287 39.8556368,55.5044066 37.4220033,58.6044977 C36.6825996,59.5456645 35.4170817,58.6471595 35.3151767,57.7325378 C35.2559296,57.1945251 35.2061621,56.6541422 35.1632672,56.1158924 C33.7451288,58.9780255 32.2653735,61.8133765 30.6531416,64.566485 L30.8839683,65.4711522 L30.8839683,65.4711522 C31.5491946,68.1441513 32.1016145,70.8361112 32.702143,73.5233309 C32.8959995,74.3903136 32.4352941,75.629876 31.4224059,75.7775333 C30.2123433,75.9538687 29.0674525,76.5722279 27.8280033,76.1467949 C26.4764587,75.6827293 26.2093728,74.5145068 25.5714001,73.407196 C25.4441373,73.1865397 25.2960196,72.9838961 25.1367634,72.7914439 L25.0962384,72.8440602 L25.0962384,72.8440602 C24.9967033,72.9746527 24.7597149,72.8324467 24.818962,72.6831304 L24.8883996,72.5105871 L24.8883996,72.5105871 C24.3402455,71.9287274 23.6842617,71.4433309 23.0811264,70.9211978 C21.6478207,70.6796846 20.0355889,70.9441878 19.0480584,71.5265214 C16.7990388,72.8535406 15.7660065,75.5886363 15.7446775,78.1035497 C15.7186088,81.0472142 16.630777,84.3558742 18.1712014,86.8729207 C18.8492251,87.9797575 19.7782195,88.9797028 21.0055823,89.4705506 C22.2239394,89.9585542 23.5439646,89.8071048 24.7834138,90.2666673 C25.6033935,90.5726472 26.1081787,91.4827657 25.6128731,92.3073236 C25.5796947,92.364443 25.5417766,92.4163482 25.5059913,92.4710975 L25.8746311,92.9604004 C26.1281911,93.2993422 26.3925648,93.6622309 26.6390327,94.0398669 C27.2694217,94.7653546 27.9329892,95.4645342 28.5752276,96.1779344 C29.7623024,97.493103 30.9143028,98.8442972 32.0824184,100.178427 C33.1846513,101.437187 34.3506341,102.61963 35.5521651,103.783349 C36.6873394,104.885683 38.1045298,105.812155 39.1472786,106.987962 C40.1613518,108.13509 40.4364953,110.137588 38.7678602,110.801453 C36.9218887,111.537665 35.2877018,109.812205 34.0450544,108.661869 L33.9927817,108.613613 C31.7148495,106.51726 29.6577905,104.121562 28.0242297,101.483878 C26.4060731,102.5855 24.065576,102.690733 22.4542921,101.589347 C21.6063478,101.009858 20.9558147,100.035984 20.6396722,98.9765488 C20.3415409,99.0433856 20.0436465,99.0824923 19.7530987,99.0779891 C19.6035591,99.1647347 19.4535454,99.2491103 19.3018729,99.3277976 C18.1001049,99.9532671 16.6239044,99.6738323 16.0740914,98.343969 C15.5734277,97.1367275 16.0893434,95.765667 16.540311,94.6024935 L16.6333839,94.3622005 C16.8893313,93.6988095 17.1713475,92.9759289 17.5220903,92.2957101 C16.5456982,91.560979 15.7112622,90.6482534 15.0052738,89.6103865 C12.6330203,86.1144886 11.4480785,81.0019453 11.9718228,76.8308058 C12.2870173,74.3137593 13.4693522,71.706649 15.4055472,70.0094202 L15.3346877,69.8245524 L15.3346877,69.8245524 C14.7919843,68.4477612 14.2988115,67.0657557 13.9791142,65.6107511 C13.6046726,63.9090191 13.4219546,62.1456645 13.2562997,60.4131212 C12.9055569,56.7536864 13.0003523,53.0112981 13.4672193,49.3660839 C14.3440763,42.5046436 16.5670272,35.7688186 20.5128834,30.059247 C19.3940614,28.7199034 18.5079619,27.1437867 18.9698522,25.330897 C19.1810088,24.4987548 19.6618582,23.7097484 20.3872796,23.2331212 C20.787553,22.9702771 21.2641366,22.9299854 21.6646469,22.7119362 L21.785074,22.6456233 C21.9609972,22.5429558 21.8264333,22.5538366 21.7215241,22.0767493 C21.3067945,20.1709517 21.6504276,18.3296208 23.7477746,17.696804 C25.7218877,17.1019088 27.589356,18.3651723 28.7577087,19.870186 C31.8148586,17.7013072 35.8436608,16.5662662 39.3866369,15.6016354 C43.4154391,14.5087821 47.5482792,13.8264303 51.6981824,13.4043154 Z M18.6763184,77.3259909 C18.6618621,75.7735752 20.1335599,74.8160547 21.5817958,75.0698924 C22.5542437,75.2391345 23.3654657,75.8195503 24.1272224,76.419468 L24.4986173,76.7133415 C25.4262158,77.4416423 26.4911677,78.2268028 27.0441406,79.2578596 C27.8546408,80.779464 26.1414519,82.8269936 24.5417804,81.7604485 C23.4444453,81.0250064 22.7410741,79.8466189 22.0212933,78.751948 L21.9467578,78.6390264 C21.6197139,78.1484157 21.332958,77.6269936 20.884813,77.233557 L20.7880071,77.1487747 C20.6407267,77.0232253 20.4825575,76.9086378 20.2923421,76.8543409 C19.9253923,76.7488332 19.2457215,76.8965884 19.0839066,77.3334789 L19.0694821,77.3781331 C19.010235,77.5987894 18.6786883,77.5511504 18.6763184,77.3259909 Z" id="ðŸ–-Ink" fill="#000000"></path>
                    </g>
                    <g id="facial-hair/*-None" transform="translate(29.211196, 80.109389)"></g>
                    <g id="face/Old" transform="translate(37.760814, 44.083865)" fill="#000000">
                        <path d="M41.8051898,56.7980674 C40.2871995,56.8104551 38.5807227,56.2419644 37.4397114,55.7968589 L37.1421816,55.679258 C36.154484,55.2844758 35.1400662,54.8312551 34.3835603,54.0707406 C34.1416424,53.8235821 33.884072,53.5438994 33.7532477,53.2497807 C33.6766153,53.0774961 33.6447599,52.8991292 33.718798,52.7219233 C33.9923963,52.695086 34.2516348,52.6601559 34.497184,52.6153677 C34.6141033,52.5940417 34.7261015,52.5719273 34.8119971,52.5713553 C35.1285096,52.569342 35.4416024,52.6095321 35.7544648,52.6490001 C35.799773,52.6547158 35.845076,52.6604305 35.8903933,52.6660291 C36.1339755,52.6961103 36.3763726,52.7286072 36.6183242,52.7610401 C37.3221143,52.8553811 38.0222007,52.9489361 38.7361968,52.983011 C39.2517316,53.0077057 39.7922412,52.9787939 40.3375545,52.9491781 C41.7519382,52.8723635 43.2142079,52.7675183 44.3039652,53.7561616 C44.589356,54.0150757 44.7086633,54.3412461 44.7086633,54.6734852 C44.7086633,55.077213 44.5383752,55.4881868 44.2786532,55.8106419 C43.6903762,56.5406065 42.7850346,56.7900713 41.8051898,56.7980674 Z M50.0822957,44.0658994 C49.4219577,45.0546442 48.3217236,45.6904258 46.8141605,45.6213462 C43.8178625,45.4846174 40.2418402,44.3564313 37.7323345,42.725069 C37.078805,42.3003554 36.6550427,41.6213129 36.5790478,40.8938332 L36.4438459,39.5995796 L35.7132214,40.6773731 C35.6370985,40.7896672 35.5603149,40.9016487 35.4834945,41.0136857 C35.2719381,41.3222257 35.0605592,41.6307107 34.8610727,41.9468924 C34.0955081,43.1608848 33.393722,44.3869288 32.756419,45.6728668 C32.3052452,46.5834027 31.9753685,47.6018312 31.644544,48.6293201 C31.0860975,50.3640985 30.5466059,52.0702568 29.3533695,53.289506 C29.1729547,53.4739215 28.8956129,53.5399119 28.641781,53.5073126 C28.4180358,53.4785772 28.198768,53.3690988 28.0912998,53.1510005 C26.6656096,50.2576394 28.5831953,46.7709814 30.1387309,44.3470269 L30.3032546,44.0939059 C31.745646,41.903455 34.1013547,39.0046027 36.7992092,38.6105275 L37.1080879,39.1021237 L37.5571474,38.8032318 C38.2915848,38.3143936 39.2610407,38.3371327 40.1098104,38.7195776 L40.9586303,39.1019032 C42.538686,39.8095403 44.0972521,40.4624552 45.8068085,40.8200847 C45.9313881,40.8461461 46.0558655,40.8704545 46.1801521,40.8930549 C46.2974596,40.9143863 46.4154641,40.9343536 46.5340908,40.9528739 C46.5085162,40.8365664 46.4812062,40.7207848 46.4538335,40.6053179 C46.4248774,40.4831711 46.3957004,40.3607408 46.3644201,40.238689 C46.3321211,40.112662 46.2976601,39.9873557 46.2632401,39.8625327 C46.1262885,39.3648888 45.9715571,38.871697 45.7880969,38.3888282 C45.097852,36.5735449 43.9957569,34.8757877 42.923448,33.2564337 L42.7972523,33.0659391 C42.6435097,32.8338859 42.4751766,32.5917805 42.3009992,32.3413497 C41.4648181,31.1396755 40.5374418,29.8355131 40.4717376,28.5263932 C41.5817303,28.5961304 42.5105413,29.2843078 43.3281445,29.8834844 C44.4501602,30.7052072 45.4900072,31.6448881 46.4332777,32.6658036 C48.2629069,34.6463236 49.9050134,37.1783169 50.6251545,39.7957333 C51.0374602,41.2945243 50.8560975,42.9072618 50.0822957,44.0658994 L50.0822957,44.0658994 Z M20.8081861,29.1341924 L20.8078798,29.0807973 C20.8112047,27.569435 21.6932427,24.1186655 23.8734215,24.1186655 C25.2354178,24.1186655 26.0623238,26.4671516 26.2054742,28.8881035 L26.2104462,28.986812 C26.2736609,30.4919502 25.8597843,33.7819201 23.8734215,33.7819201 C21.8660376,33.7819201 20.8288257,30.6659089 20.8081861,29.1341924 L20.8081861,29.1341924 Z M52.9061347,28.6601724 L52.906441,28.6067773 C52.9031161,27.0954149 52.0210781,23.6446455 49.8408994,23.6446455 C48.512953,23.6446455 47.6936768,25.8771751 47.5208626,28.2326835 L47.5088466,28.4140835 C47.4228529,29.8684049 47.8098992,33.3079001 49.8408994,33.3079001 C51.8482832,33.3079001 52.8854951,30.1918888 52.9061347,28.6601724 L52.9061347,28.6601724 Z M28.1506371,18.9058393 C27.8617236,18.9396336 27.5742435,18.9839218 27.2869094,19.0294764 C26.4485608,19.1627597 25.6147516,19.3227472 24.786645,19.5092078 C23.2138262,19.8635744 21.6536351,20.3109906 20.123264,20.8165917 C18.6912114,21.2898974 17.2814385,21.8247766 15.8720084,22.3596058 C15.796797,22.3881459 15.7215865,22.4166856 15.6463439,22.4452269 C15.1487081,22.6340674 14.6527323,22.8456338 14.1552297,23.0579241 C13.3980732,23.381012 12.6374444,23.7062652 11.8612545,23.9513538 C13.9062189,21.129534 17.057398,19.0386711 20.0894479,17.5424655 C21.8194237,16.6888152 23.6547212,16.0004328 25.5009059,15.4363836 L26.5290425,15.1280617 C28.042953,14.6823158 29.6982427,14.2705756 31.1203587,15.159356 C31.6828257,15.5108905 32.0417417,16.0573258 32.1547825,16.6480654 C32.2656388,17.2273889 32.1391721,17.848535 31.7383391,18.3669236 C31.3890754,18.818514 30.953877,19.0757029 30.4906787,19.1638477 C29.9794415,19.2611341 29.4376447,19.154292 28.9444503,18.8914117 C28.5493292,18.8620413 28.4327285,18.8726554 28.3158354,18.8856274 L28.1506371,18.9058393 Z M50.9253573,19.1929354 C49.9121011,18.9731069 48.9087737,18.8848508 47.8692334,18.9164934 C47.3991333,18.9305909 46.9443394,19.0030629 46.4907528,19.0759949 C45.7862926,19.1892648 45.0845435,19.3062533 44.3255892,19.1688247 C43.9296354,19.0970587 43.5923927,18.8659323 43.3319056,18.5642197 C43.0273742,18.2114923 42.8258952,17.7606822 42.76129,17.3320335 C42.6945487,16.8892431 42.7609515,16.5020117 42.9251094,16.1600695 C43.1190454,15.7560991 43.4457612,15.4156506 43.8406117,15.1174227 C45.0354093,14.2147305 47.0854309,14.4318311 48.4955199,14.6143357 C49.8889555,14.795126 51.2746684,15.2263393 52.5064864,15.9112095 C53.7217234,16.5872406 54.7781635,17.4978686 55.6025643,18.6109694 C56.2973953,19.5491768 56.6247113,20.6289828 56.9627196,21.7284569 C55.3727387,20.3973398 52.9395344,19.6292941 50.9253573,19.1929354 Z" id="ðŸ–-Ink"></path>
                    </g>
                    <g id="mask/respirator" transform="translate(5.462256, 66.599818)">
                        <path d="M81.7756362,6.42657429 C79.6773493,4.25319234 77.5710319,2.04828806 74.8862502,0.546355515 C75.0044341,-0.0973637192 74.7437409,-0.837072015 73.977212,-1.14518505 C66.5457639,-3.91820237 61.8215183,4.06287329 56.4394691,7.62868915 C55.1817786,8.30321969 53.9204824,9.08132361 52.516142,9.34487876 C49.5301084,10.2149426 46.9963515,12.0164558 45.1959109,14.3834749 C44.2229944,15.3161094 42.507866,16.8723172 42.031479,18.1403209 C41.7398669,18.6579508 15.6036829,6.24857976 9.65546477,4.86775934 C6.83865041,3.92754057 5.32203049,6.5850258 8.89225431,7.9488897 C18.27397,11.532806 36.6428944,19.5551343 40.7439504,21.8668295 C39.9558934,24.2935752 39.7205305,27.5100383 40.4879952,29.9100018 C39.8429646,33.6455169 41.0951721,37.0677046 43.5702905,39.7497101 C44.0947128,40.5112233 44.8964617,41.0601386 45.4182682,41.7209225 C47.3137003,46.6654257 51.8621348,49.056973 57.1847741,51.4203209 C65.6541916,55.1808951 73.037185,55.9343665 77.6784934,54.2871942 C89.7271195,49.696784 96.7200802,36.2083063 94.4670765,23.9183883 C92.3480468,15.260649 92.7854172,7.66613674 81.7756362,6.42657429 Z" id="ðŸŽ¨-Color" fill="#9DDADB"></path>
                        <path d="M55.6381733,6.37016591 C62.8856282,2.3329371 64.1095552,-5.89557703 74.6205819,-1.71258706 C77.9046307,-0.388649043 79.0581393,1.57118687 81.2490355,4.01926345 C82.3836737,5.04836098 83.8120574,5.56006563 85.2215573,6.10803282 C90.5826032,7.88418596 93.7262675,12.9303665 94.9254514,18.2310957 C98.0625084,29.2339042 94.7779599,42.1233677 86.7605914,50.130143 C86.8735089,50.3330044 86.8515124,50.625284 86.6067623,50.7600583 C86.1563838,51.0079802 85.7087057,51.2619962 85.2626763,51.5198317 C82.4584229,53.937444 76.7690065,57.1165399 72.551548,57.1165399 C63.1477135,57.1165399 54.063449,53.3092421 48.5120355,48.422618 C41.4067299,42.7035661 36.9256557,30.7708222 39.2310934,22.1827639 C26.0190248,15.9750351 13.7801685,11.2606616 8.66442286,9.21587459 C7.40203003,7.89443935 7.39053908,7.40843436 8.62995001,7.75785962 C20.641307,11.1442034 44.2928773,22.1578778 44.5774358,22.1694913 C44.7461776,22.1763646 45.3664518,20.8237484 45.4885925,20.2425998 C44.935434,20.1822097 12.311285,6.13731996 8.24821711,4.83427796 L8.03325349,4.76584503 C6.10085906,4.15672926 6.58364436,3.68270921 8.06866971,3.76898086 C11.0797593,3.94436828 36.6081841,15.7702206 41.5759452,16.9552707 C43.795318,11.9780602 50.0997503,9.39441386 55.6381733,6.37016591 Z M71.4633507,-0.685859617 C67.4286854,-1.87090975 64.4625183,1.0518979 62.3043504,4.11525251 C57.2135862,10.4150999 47.9276454,10.6142224 44.0930915,18.0994381 L43.9785715,18.3285068 L45.4964716,18.7835661 L45.537933,18.7151277 C45.6575267,18.5293581 46.0138706,18.0575397 46.3159432,18.4870665 C47.8855854,20.170608 45.4281082,25.7599329 44.1376548,23.2981801 L44.0989127,23.2211048 L41.9912304,22.6420893 C38.1841296,38.0395913 52.7116058,51.9030636 67.3282959,54.2509388 C67.3282959,54.2509388 73.4264293,54.3483383 75.8705115,53.7593254 C77.6726072,53.3251231 79.2294089,52.4851595 80.8929755,51.6515953 C82.5460651,50.8231324 83.9115479,49.5406586 85.5130279,48.6643712 C90.0881844,44.1368627 93.096646,37.9213335 93.9148551,31.474031 C94.7159327,23.7430009 93.9658418,13.8997375 87.2432257,8.99694804 C85.0298562,7.59621878 82.3013642,7.21984686 80.2782182,5.48777758 C77.8635849,2.82473291 75.0374116,0.116656335 71.4633507,-0.685859617 Z M64.20738,35.4828186 C64.1396224,35.3718979 64.2959805,35.2654804 64.3846268,35.3481969 C65.7994317,36.6700018 67.1668027,38.045608 68.4879043,39.4619799 C68.5576142,39.439938 68.6368081,39.4188441 68.7388634,39.3939581 C69.2239976,39.2756625 69.6433439,39.7814429 69.4086615,40.2270874 L69.3528154,40.3269383 C68.9997996,40.9266101 68.188234,41.4545017 67.7051286,40.7316427 C66.4752156,39.0273036 65.3052219,37.2753254 64.20738,35.4828186 Z M46.7227955,38.65233 L46.7214805,38.6002574 C46.6944874,38.0852777 46.2751484,36.78635 47.1276177,36.9854385 C48.1139805,37.5580547 48.4790476,39.05501 48.5344469,40.118237 C48.5952612,41.2852744 46.6561558,41.299969 46.7062535,40.118237 C46.7271343,39.6290483 46.7658111,39.1408077 46.7227955,38.65233 Z M87.679089,35.0608696 C87.8160708,35.0350356 87.8892493,35.2061568 87.7701704,35.2841331 C86.2068303,36.1605962 86.3377994,37.9275059 86.0855587,39.4000492 C84.2904234,40.5941057 84.4729957,35.4782443 87.679089,35.0608696 Z M42.8210537,28.8090902 C57.8754934,30.3240583 74.0698934,34.8089991 89.4666244,30.2486892 C90.3996063,29.9960365 90.7696515,31.4358724 89.8395819,31.6847329 C74.3198348,35.61033 57.8403535,33.2653528 42.8210537,28.8090902 Z M83.650029,22.6031723 C84.1158632,22.4950957 84.5549467,24.7900638 85.2739182,25.2171559 C85.6311576,25.9348222 88.4653996,26.566691 87.2710595,27.4467092 C85.2328141,27.8716682 82.9974362,24.4328897 83.650029,22.6031723 Z M70.4251525,23.1464941 C70.7748501,23.1396208 71.0143449,23.4072051 71.1287903,23.711526 C71.441094,24.6052908 70.1042333,24.4630848 69.6063106,24.7602954 C67.499925,26.2079526 65.0673303,27.375464 62.4789922,27.4296144 C62.3172085,27.4328204 62.315738,27.2192744 62.4479206,27.1676062 L62.8992723,26.9912351 C64.3231352,26.4321539 65.6951627,25.8591867 67.0048948,25.0316718 C68.0651457,24.3623555 69.0852541,23.1166308 70.4251525,23.1464941 Z M62.4716173,7.41450319 C62.1155027,4.8547949 70.218446,-1.60823154 72.7019502,1.17023701 C73.3439785,1.88553327 72.5016874,2.94757521 71.6546362,2.4960711 C68.192955,1.58974476 64.8820813,5.35559708 62.4716173,7.41450319 Z" id="ðŸ–-Ink" fill="#000000"></path>
                    </g>
                    <g id="accessories/*-None" transform="translate(11.162002, 57.119417)"></g>
                </g>
            </g>
        </g>
    </g>
</svg>