<?xml version="1.0" encoding="UTF-8"?>
<svg width="224px" height="708px" viewBox="0 0 224 708" version="1.1" xmlns="http://www.w3.org/2000/svg" xmlns:xlink="http://www.w3.org/1999/xlink">
    <!-- Generator: Sketch 62 (91390) - https://sketch.com -->
    <title>doc-nurse-6</title>
    <desc>Created with Sketch.</desc>
    <g id="Introduction" stroke="none" stroke-width="1" fill="none" fill-rule="evenodd">
        <g id="doc-nurses-covid-19" transform="translate(-1126.000000, -156.000000)">
            <g id="a-person/standing" transform="translate(1090.000000, 122.000000)">
                <g id="pose/standing/doctor-nurse-02" transform="translate(-28.736217, 150.264357)">
                    <path d="M274.722914,543.225798 C262.734687,530.040219 245.067613,525.395533 229.908902,517.127201 L230.240675,516.271358 C229.344153,515.761787 228.303474,515.318815 227.318131,514.869207 C227.142388,514.632671 226.464831,514.047256 226.267478,513.800055 C241.278945,457.603318 235.860624,407.055716 243.941676,347.664084 C251.010785,347.303829 259.313652,347.981914 266.200845,345.538104 C275.833652,320.048149 274.705578,296.742005 272.076332,269.646782 C271.96115,269.030319 271.96875,268.86299 272.438266,268.373327 C278.410175,261.749608 281.640506,245.820875 282.054687,233.397521 C282.054925,233.397758 281.99104,232.495934 281.99104,232.495934 C282.620624,232.028314 283.363966,231.372033 283.946528,230.85464 C288.253873,221.394859 286.86361,212.068514 284.551651,201.433163 L284.556638,201.43103 C272.51355,148.537502 269.147376,89.9701914 248.858182,40.0743665 C243.347003,27.1203464 231.137673,21.1694986 217.30534,21.1481677 L216.454178,21.1455606 C215.768071,20.1472744 214.990056,19.0757521 214.247664,18.1784321 C214.332448,18.0703555 214.395383,17.9447402 214.419131,17.797083 C214.699369,16.0529262 213.036468,15.0269098 211.735976,14.2374294 C210.306765,13.3694986 208.716774,12.764412 207.146256,12.2242662 C205.681897,11.7208569 203.770819,11.086144 202.299573,11.9218414 C201.666426,12.2811486 201.360302,13.2206563 200.563288,13.1990884 C200.521014,13.1979034 200.477791,13.189845 200.435281,13.1858159 C198.077486,8.26453965 198.064424,2.92067457 194.106426,-1.33697356 C189.636163,-5.67188696 184.21048,-9.61691887 177.517554,-9.33843209 C172.711481,-8.90257065 162.240573,-8.59493163 159.791583,-3.37881495 C157.407664,-0.788295351 156.345849,2.59691887 155.814348,6.54669098 L154.573941,6.43434822 C153.825849,7.10603464 152.330378,8.51932543 151.548326,9.24931632 L151.459267,9.03126709 C148.910293,11.2842844 146.326409,13.8923428 143.45255,15.6291522 C142.111447,16.0702279 143.263983,17.8779034 143.183474,18.9411304 C137.466154,20.1558067 131.788495,21.5489517 126.314602,23.6623701 C113.212787,25.4719417 102.448818,30.1810939 96.6901747,38.5930538 C78.6614046,81.7011486 77.3715997,156.592762 84.6043393,213.66691 C84.6572994,214.094713 84.5352299,214.789626 85.0339576,214.97639 C85.5559593,218.793674 85.9620662,222.699362 86.3484614,226.464503 C87.1936862,232.513473 88.7167057,238.528788 90.0813198,244.382698 L90.4983511,243.445324 C91.3452383,243.529225 93.0817608,243.527803 93.9476472,243.520693 C91.2830161,273.506964 86.6764343,301.964758 81.698894,330.92454 C81.5770619,331.470848 81.8727362,331.785834 82.3242036,331.791522 C90.2520746,332.540474 98.8311416,333.853273 107.257265,335.552871 C98.733771,380.693801 73.9177913,444.043263 73.3031688,485.551778 C73.1692248,499.998013 68.0715148,526.842005 83.1779779,530.610465 C80.5743817,541.125652 74.6212349,550.002625 68.807257,558.759435 C64.371905,566.430027 66.3900899,579.279052 74.721218,583.23072 C88.9898185,588.072835 105.283254,590.885196 119.607664,587.777758 C122.706901,588.49732 125.850548,587.552835 128.588326,585.527347 C142.98707,572.784266 126.886477,551.401696 120.009971,537.842826 C118.41143,535.372233 115.553008,531.508259 118.318809,528.452963 C119.120098,528.443956 120.577571,527.97278 120.861846,527.605178 C120.104254,526.458997 120.146528,526.720893 120.93998,525.667384 C154.610514,481.335369 157.072804,415.471231 169.763288,361.656208 L173.032804,361.89464 C179.988156,421.970757 148.294483,462.826545 179.777503,523.852835 C180.815807,527.415333 184.013364,527.239234 186.593686,528.19083 C168.176858,534.797721 176.414178,561.37247 193.200641,564.347894 C211.961116,569.13289 231.497232,573.642954 250.129937,573.214439 C255.156163,573.221787 260.186426,572.96866 265.100081,572.525214 C286.568411,572.813181 290.406477,557.374822 274.722914,543.225798" id="ðŸ‘•-Clothes" fill="#8FA7DF"></path>
                    <path d="M120.943898,242.744224 C122.993669,242.779302 125.427487,240.570679 127.316003,241.536495 C127.923738,241.998665 132.962287,251.832374 136.489954,254.794999 L136.708962,254.995996 C140.275078,258.297824 143.279444,262.524517 142.448563,267.699721 C141.879301,269.695582 137.514483,268.511006 135.824984,268.840213 C134.960522,277.559575 138.324085,284.361763 126.994178,285.630952 L125.502537,285.880171 C119.903963,286.804412 108.957191,288.404725 105.62037,285.34014 C104.166222,283.705008 104.59964,281.366193 104.502032,279.344735 C102.08439,274.867141 102.110751,269.595327 101.732431,264.628782 C102.181048,262.277169 96.397944,242.76911 99.0953486,244.158226 C105.780913,242.277552 114.07713,243.363768 120.943898,242.744224 Z M278.231298,236.8194 C278.588482,236.414113 279.208804,236.361497 279.693282,236.595426 C279.914148,236.573147 280.13525,236.555608 280.355878,236.547787 C280.750823,236.616046 280.457998,237.003794 280.223596,237.083192 C281.092807,239.116264 275.296404,273.263247 271.452163,264.299054 C271.329143,257.622481 270.098236,251.084797 269.133791,244.502317 C267.679406,238.246675 273.864343,237.831196 278.231298,236.8194 Z M158.566375,-5.84969189 C163.700183,-14.8394822 181.189377,-11.9529371 189.134823,-8.56961896 C197.846409,-5.17942753 196.953686,5.02219508 198.915111,12.7003719 C201.922914,13.4140091 204.874195,15.2870994 205.736044,18.4476281 C206.780285,21.3649845 207.742355,24.3136263 208.710599,27.2580018 L208.77029,27.4043896 C209.271159,28.6507979 209.828416,30.5338268 208.212346,31.0935351 C195.323559,40.1890319 172.980053,36.7354167 159.868976,29.6869755 C157.429988,28.6319993 157.645154,22.4685032 157.429988,20.3517666 C157.252584,18.4732252 157.045255,16.6070082 156.786154,14.7493236 C155.855671,13.4550119 154.432634,7.17661623 156.637011,6.87869462 C157.27942,2.63289699 156.65031,-1.93736737 158.566375,-5.84969189 Z" id="âœ‹-Skin" fill="#694D3D"></path>
                    <path d="M104.234809,529.878033 C107.872672,530.027112 112.874911,527.866055 115.795081,530.696665 C115.9219,530.606839 116.131841,530.684815 116.1981,530.845271 C117.125259,533.09497 118.259271,535.306273 119.328923,537.488425 C123.724852,547.32363 130.974215,556.015736 132.226735,567.058507 C133.198066,575.816027 127.925802,588.309537 117.8705,587.28115 C104.582019,587.15435 91.11257,586.219108 78.3197286,582.306547 C74.9668533,583.232782 71.3641391,579.820075 69.7335369,577.174095 C65.532112,570.354842 68.6394232,561.991469 72.0975064,555.631542 C75.9213232,549.073475 78.9049025,542.095189 81.4327396,534.924687 C80.7653944,534.101077 80.9081255,532.453384 82.140458,532.266146 C84.2265649,532.102609 86.128855,531.334459 88.2531976,531.438033 C93.5674979,530.792418 98.9045971,530.321953 104.234809,529.878033 Z M226.350741,515.29893 C228.06684,511.672202 230.31064,516.538255 231.64628,518.008902 C238.472913,523.574609 248.316848,523.801191 255.307824,529.342248 L255.76927,529.643743 C258.506802,531.422779 261.570686,533.279602 263.413099,535.999623 L264.115832,536.489524 C271.751662,541.827431 281.285962,549.043498 282.618392,558.838146 C282.93449,559.251965 283.130419,559.778365 283.187416,560.339367 C282.87583,575.522704 260.720682,570.436943 250.90382,570.873752 L249.367648,570.806796 C232.799024,570.103674 215.856911,569.928445 200.264906,563.411017 C197.833727,564.314263 194.881971,563.759896 192.506365,562.768483 L192.092779,562.606726 C188.632167,561.267826 184.844518,560.126067 182.577408,556.944436 C179.170599,552.513495 178.251564,546.452319 178.790948,540.966785 L178.856591,540.329746 C179.153011,537.357658 179.321693,533.887572 181.570928,531.869012 C184.886517,526.194518 192.404957,527.609705 197.693608,525.4048 C206.136594,523.202266 218.111047,513.986368 226.350741,515.29893 Z" id="ðŸ‘Ÿ-Shoes" fill="#FFFFFF"></path>
                    <path d="M154.405294,8.77122811 C156.54721,16.5259592 157.999986,24.6310064 159.053727,32.6035497 C160.365143,42.5247894 163.548926,74.2270137 164.400801,80.1387548 C166.948824,97.8192288 168.831403,115.600195 170.147094,133.423823 C170.874797,136.609712 171.269081,139.873402 171.469488,143.139974 L171.491759,143.516895 C171.633303,146.006686 171.784109,148.617351 171.700512,151.19602 C172.374032,155.929584 172.912183,160.683531 173.343939,165.430131 C174.963142,183.231006 175.319613,201.180961 174.773625,219.044644 C174.50075,227.980396 174.046195,236.912356 173.277204,245.818481 C172.934151,249.790935 172.541467,253.75859 172.099153,257.720581 L171.713174,261.117316 C171.346065,264.306508 170.937476,267.513194 170.179393,270.625847 C170.001276,273.724516 169.974439,276.842857 169.791335,279.914981 C169.11354,291.286248 167.818748,302.621964 165.975355,313.856713 C165.050334,319.493285 163.994219,325.110186 162.854032,330.704808 C162.371997,333.070913 161.866755,335.431968 161.338157,337.787525 L161.071912,338.964844 C160.458239,341.656804 160.09773,344.774434 158.831674,347.22891 C158.393269,348.078591 157.31008,348.059867 156.712794,347.508108 C156.696407,347.541526 156.681208,347.575655 156.662921,347.607652 C156.112421,348.570387 155.006433,348.734397 154.080224,348.300669 C149.515678,346.186303 144.865873,344.274343 140.15812,342.520706 C131.86974,339.433176 123.367145,336.948363 114.736068,335.089019 C110.3855,334.151881 106.002158,333.368089 101.596729,332.75447 C97.1943885,332.141325 92.7533367,331.899575 88.3550331,331.292356 C88.032285,331.247561 87.7772214,331.127634 87.5786802,330.960304 C86.3914707,330.913851 85.2367973,330.637497 84.4777812,329.804407 L84.0252319,329.7283 C83.949895,329.715475 83.8746373,329.702334 83.7995115,329.688509 C83.6520305,329.661253 83.7066531,329.455765 83.832285,329.442255 C83.9481798,329.429931 84.0645496,329.419976 84.1809194,329.408837 C84.0051773,329.134616 83.8603087,328.81963 83.7598507,328.448235 C83.2803596,326.6754 84.1403087,324.757989 84.9444478,323.224771 C85.3690789,322.414908 85.8621069,321.639411 86.4052451,320.902784 C86.6002239,319.736458 86.7933028,318.569657 86.9711824,317.40025 C87.4292994,314.39283 87.8791043,311.383987 88.3205971,308.37396 C89.8847023,297.709931 91.3229381,287.029074 92.6980017,276.338263 C93.7089941,268.477588 94.5953045,260.583732 95.8820221,252.761453 C95.8000882,251.020851 95.6951179,249.281435 95.5799355,247.54107 C95.4761527,245.975856 95.0671959,245.708509 94.4074504,244.38386 C93.7144563,244.34025 91.8597066,244.802182 91.180012,244.684625 C90.0286634,244.962164 90.0737439,242.633067 89.6320136,241.091316 C85.1859746,225.571426 83.5271111,209.199247 82.3463138,193.131863 C80.2575566,164.70946 81.8071234,136.200875 84.2422291,107.858157 L84.3162884,106.999338 C85.4977981,93.3425834 86.3368482,79.5931577 88.3248719,66.0264667 C89.1955081,60.0848624 90.3986293,54.1261933 92.5505208,48.5171139 L92.7726185,47.941024 C93.2587047,46.6888955 93.7800984,45.4171966 94.4074504,44.2428751 C95.042972,43.0537958 95.8748974,41.9284722 96.666212,40.836567 C98.4200712,38.4164576 100.419494,36.2812343 102.747841,34.4387183 C102.775627,34.4164394 102.806263,34.4007967 102.837612,34.3894202 C103.815118,33.4480164 104.866008,32.5758195 105.975796,31.7699854 C113.443888,26.3457739 122.678901,24.8670684 131.49807,23.3189189 C133.698955,22.9324029 134.638724,21.1497574 136.825682,20.6874676 C140.409406,19.9416349 142.23887,19.4360719 142.314075,19.1707786 C142.371785,18.967424 141.783646,16.1508587 141.883391,15.7064649 C142.330584,13.7113145 144.196749,13.9520294 145.629285,12.7418562 C147.632508,11.0498417 149.578513,9.8257484 151.626147,8.1899052 C152.089103,7.82033301 152.902694,6.28132292 153.306653,6.52637771 C153.995382,7.86398992 154.361596,8.61227339 154.405294,8.77122811 Z M202.418863,13.3012871 C202.246684,12.4857356 202.794809,11.5595005 203.798202,11.8832562 C209.259508,13.6456627 213.661374,16.1328459 217.063885,20.7377138 C219.612858,20.7448241 222.168007,20.9538669 224.662358,21.4892726 C227.549517,22.1085798 230.232434,22.9731923 232.918914,24.1994822 C235.293808,25.2833291 237.588906,26.7312233 239.360102,28.7038578 C239.851467,29.2508769 240.284885,29.8348696 240.68648,30.4428004 C245.572824,33.8512416 248.664461,40.2365287 250.885462,45.7472489 C253.16821,51.4117885 254.68363,57.4173856 256.259847,63.3168022 C258.036743,69.9687256 259.642884,76.6689991 261.094419,83.402691 C262.480565,89.8339186 263.71991,96.2979143 264.811854,102.788289 L265.677237,107.98317 C266.425803,112.494603 267.147658,117.04291 267.594504,121.587851 C268.560611,125.006009 269.478982,128.424879 270.263647,131.900394 C273.664495,146.957878 276.845666,162.089072 279.261408,177.348726 C281.668126,192.550075 283.47162,207.850257 284.674504,223.200211 C284.727464,223.874742 284.408278,224.315344 283.960611,224.524387 C283.906463,224.954797 283.827854,225.381652 283.717184,225.801634 C282.853673,229.080904 280.542188,231.785189 277.814385,233.62249 C274.67905,235.73425 271.193181,237.103694 267.737472,238.553721 C268.809025,243.232773 269.550941,247.986957 270.109992,252.80466 C271.863613,267.921871 272.310093,283.127249 271.64726,298.330731 C271.3162,305.920977 270.677354,313.492737 269.777744,321.033922 C269.333164,324.762089 268.840136,328.486939 268.284648,332.199227 C268.035878,333.862247 267.772594,335.523293 267.494798,337.18154 L267.326378,338.176146 C267.003393,340.064642 266.807464,341.901943 265.889567,343.597513 C265.248109,344.783274 264.024563,344.798443 263.174114,344.179373 C261.722103,344.779008 259.696794,344.817167 258.488685,344.980941 C255.384461,345.401397 252.270738,345.810002 249.146565,346.042746 C246.045903,346.273356 242.902969,346.4094 239.798507,346.188744 C238.247701,346.078534 236.711858,345.877076 235.180763,345.603803 L234.776876,345.531039 C234.100477,345.406927 233.411626,345.264326 232.767634,345.038771 C232.044716,344.785644 231.38592,344.374669 230.663953,344.114195 C230.430025,344.02982 230.358304,343.806556 230.452824,343.583293 C230.625954,343.173976 230.813096,342.795708 231.028261,342.40796 C231.066735,342.338753 231.173367,342.370038 231.173605,342.448252 C231.174555,342.77414 231.160543,343.090075 231.137744,343.408616 C231.226802,343.408853 231.316336,343.40672 231.405869,343.405298 C231.433418,342.48167 231.323698,341.572026 231.411807,340.645079 L231.580125,338.862729 C231.608448,338.565606 231.637105,338.26858 231.666395,337.971843 C231.842137,336.195216 232.157286,334.415508 232.436573,332.652864 C233.032197,328.892463 233.524275,325.115708 233.913045,321.32734 C235.284784,307.958789 235.379304,294.490458 235.580933,281.063129 L235.616985,278.709323 C235.709705,272.82493 235.828495,266.941611 236.123121,261.063274 C236.055199,260.136565 235.991077,259.2127 235.924818,258.295471 C235.575471,253.466155 235.330619,248.626884 235.03542,243.793776 C233.998066,226.7793 232.90609,209.764587 232.019067,192.740868 C231.877761,190.024733 231.749042,187.30765 231.635522,184.589856 C230.034843,176.720175 229.271315,168.724642 228.469788,160.731479 C226.892621,145.004441 225.458422,129.264131 224.143919,113.511971 C223.486548,105.636128 222.859101,97.7572033 222.225004,89.878753 C221.962103,86.6125178 221.70704,83.3460456 221.467413,80.0779143 C221.271959,79.0217976 221.075793,77.96734 220.86989,76.9173856 C218.666938,65.6897466 216.456149,54.4635296 214.254148,43.2354166 C213.227956,38.0031832 207.812096,23.2419684 206.794691,20.9199812 C206.473131,20.1857241 203.881685,16.3280632 202.793147,15.2578049 L202.734912,15.1993941 C202.365324,14.8210247 201.820177,14.115295 202.110602,13.5693455 C202.185411,13.4283245 202.295369,13.3392088 202.418863,13.3012871 Z M127.542202,239.557235 C124.239675,240.448393 120.690622,241.927061 117.335609,242.582157 C112.850147,243.457672 108.302955,242.542055 103.749096,242.903495 C101.546619,243.078408 97.2789347,243.971462 97.3962545,244.38386 C97.4245157,244.483404 97.4494521,244.58437 97.4758134,244.684625 C97.5463478,244.683203 97.6206819,244.731079 97.6206819,244.81664 L97.6178321,245.254634 C98.3172383,248.272246 98.3336251,251.585172 98.4960679,254.637387 L98.5079423,254.909712 L98.8601624,258.032312 C99.4722369,263.40943 100.1454,268.776445 101.388214,274.032155 C102.377595,278.217041 103.590928,282.459284 105.380648,286.366394 C105.630249,286.911517 105.89505,287.452848 106.175288,287.98612 L107.339197,288.004502 L107.921547,288.011006 C110.225432,288.02736 112.524329,288.121216 114.828926,288.074525 C119.319613,287.983276 123.813863,287.625391 128.256102,286.940669 C130.395406,286.611225 132.524024,286.211389 134.638629,285.744479 C134.957498,283.156488 135.278795,280.568813 135.602449,277.981383 L136.08969,274.100414 C136.403888,271.607068 136.945364,269.591772 139.427128,268.613158 C140.536441,268.1754 141.683277,268.000013 142.841751,267.967542 L142.899223,267.41839 C143.207722,264.337734 143.062853,261.49551 141.488536,258.793595 C140.377828,256.887324 138.869462,255.288809 137.331436,253.739244 L135.489803,251.894899 C132.487416,248.872689 129.624026,245.70649 129.092539,241.238737 C128.322124,240.524151 127.943559,240.525658 127.542202,239.557235 Z M148.189537,279.434325 C148.61102,279.242181 148.441377,278.808773 148.298707,279.183168 L148.28857,279.211298 C148.262921,279.285956 148.228248,279.360377 148.189537,279.434325 Z" id="ðŸ‘•-Clothes" fill="#FFFFFF"></path>
                    <path d="M159.411882,29.3746302 L161.517014,46.2964444 L167.04858,100.074317 L172.756815,150.491889 L175.012202,220.174706 L175.012202,230.554572 C178.321581,230.554572 180.99224,230.554572 183.02418,230.554572 C185.056121,230.554572 194.298992,231.857328 210.752796,234.462841 L234.088887,230.554572 L226.816846,144.693966 L220.392142,82.3325034 C214.944328,49.1182928 211.731213,32.1141434 210.752796,31.3200552 C209.28517,30.1289229 205.708039,36.5175597 191.801914,36.5175597 C182.531164,36.5175597 171.734487,34.1365832 159.411882,29.3746302 Z" id="ðŸ‘•-Clothes" fill="#9FD8E5"></path>
                    <path d="M157.334731,-4.68210939 C157.429252,-4.93310301 157.732288,-4.92622972 157.828472,-4.68210939 C158.547352,-2.85855424 158.184231,-0.230824066 157.939854,1.67544758 C157.696902,3.56841021 156.728395,7.89782733 156.558971,8.16988212 L156.530355,8.21218414 C156.312063,8.51002053 156.129041,8.69316879 155.902442,8.81053453 C157.107579,14.6164113 158.185884,20.4448361 159.159874,26.2971589 C159.328364,27.1641742 159.491412,28.0319985 159.649372,28.9006101 C160.276867,29.2156035 160.963299,29.39304 161.644499,29.658155 C162.726738,30.0793218 163.786416,30.5689845 164.85868,31.0157484 C166.994185,31.904536 169.130402,32.6866691 171.341428,33.3559854 C175.713608,34.6785014 180.199783,35.4814913 184.757917,35.6715734 C189.300377,35.8611814 193.850198,35.5222571 198.3017,34.5640255 C200.417018,34.1087293 202.551573,33.5636062 204.580207,32.7914275 C205.439206,32.4648277 206.295593,32.0550374 207.025635,31.4809991 C207.728366,30.9282917 208.207858,30.1805251 208.927688,29.6496226 C208.957612,29.6275651 208.988363,29.6081245 209.019773,29.5911853 C208.611644,28.3892271 208.18738,27.1918551 207.746491,25.9995594 C207.100625,24.5771188 206.487885,23.1364564 205.819593,21.7353601 C205.166282,20.3652958 204.501656,19.0003686 203.829915,17.6390279 C203.764924,17.6320636 203.703741,17.617583 203.648821,17.5950793 C201.077523,16.5394366 199.03084,14.4824266 197.940526,11.867258 C197.33469,10.4141495 196.956845,8.83732179 196.874436,7.25788696 L196.826397,6.41434552 C196.763205,5.20652726 196.749564,3.73653418 197.338728,2.84689335 C197.376726,2.78929991 197.454623,2.78716682 197.492383,2.84689335 C198.141204,3.87290975 198.035997,5.44144211 198.301272,6.62578122 L198.39586,7.04373325 C198.667823,8.22960641 198.979692,9.42555573 199.489669,10.5253072 C200.12212,11.8902538 200.974625,13.1700811 202.085691,14.1385213 L201.682219,13.3349522 L201.155776,12.2900365 C200.982646,11.94732 201.044869,11.4206837 201.425327,11.2370009 C202.791474,10.5775687 204.110126,10.6073613 205.344086,11.2513783 C206.541993,11.227493 207.732609,11.4192176 208.915006,11.8996098 C211.34476,12.8865196 213.329221,14.5548332 215.053869,16.536474 C215.859429,17.461959 216.609287,18.4361702 217.313608,19.4468441 C231.315998,19.4947296 244.278155,25.3019304 250.342182,39.3169535 C258.227067,55.5210921 262.045659,73.4212744 265.578789,91.0436809 C272.54364,127.368312 279.097635,163.77637 286.000265,200.11451 C286.120197,200.138211 286.240366,200.15812 286.360299,200.183006 C287.589069,200.438029 287.381265,202.056097 286.445082,202.461384 L286.887525,204.795459 L286.987249,205.294177 C288.606672,213.470091 289.733555,223.099738 285.635243,230.4973 C285.835447,230.902587 285.815735,231.402915 285.388967,231.809861 C284.849154,232.32441 284.289154,232.811466 283.713954,233.275531 C283.813462,234.683845 283.688068,236.075094 283.344896,237.435057 C283.383844,238.675094 283.143742,240.019889 283.078195,241.055386 C282.13385,250.634486 279.849459,261.769974 273.7275,269.449394 C274.709816,277.996245 275.393348,286.573556 275.523562,295.184755 C275.655131,303.877335 275.218388,312.565648 274.046378,321.17883 C272.896692,329.628 271.195318,338.45852 267.710636,346.248091 C267.544886,346.618573 267.305436,346.866987 267.029793,347.013028 C266.7759,347.434352 266.390884,347.755266 265.902653,347.825085 C259.146167,348.791148 252.27854,349.343574 245.419108,349.364734 C243.010598,370.568057 241.452558,391.890271 240.158011,413.168264 L240.070148,414.618966 C238.053388,447.672385 237.421428,481.344162 228.143905,513.314445 L228.276899,513.445511 L228.942314,513.743602 C229.828427,514.142795 230.706606,514.55652 231.534779,515.075666 C232.071505,515.412221 232.140139,515.986022 231.956085,516.456961 C235.5398,518.831801 239.708451,520.352695 243.678561,521.836614 C255.607416,526.192622 266.650436,533.023962 275.838663,541.963506 C292.37315,557.258948 288.812234,574.176724 265.103905,574.226022 C243.241581,576.264545 221.127756,573.699623 200.013998,567.6945 C198.858612,567.369796 197.616543,567.123305 196.56399,566.508738 C195.26231,566.479349 193.943057,566.25893 192.840869,566.007936 C182.737357,563.675046 174.31717,554.323579 174.480326,543.456906 C174.549198,537.887881 176.805109,531.167699 181.978578,528.594007 C180.069164,528.028501 179.043209,526.406642 178.29773,524.634044 C177.5836,523.217672 176.894168,521.788027 176.230623,520.345584 C172.016611,511.228283 168.925449,501.598565 166.829605,491.749851 C158.510114,459.097927 168.727145,426.59769 172.510114,393.989613 C172.600835,389.958073 172.634796,385.924873 172.550962,381.885511 C172.462616,377.606532 172.237476,373.328501 171.936102,369.059714 C171.811467,367.29105 171.65233,365.52542 171.511342,363.758213 L171.409825,362.432439 C171.400801,362.309668 171.390351,362.185712 171.378952,362.060571 C158.070283,417.710525 157.229096,479.434572 122.264719,526.693661 C123.456679,528.583105 120.917204,529.818401 119.239104,530.045694 C117.781632,532.079951 120.453625,535.29831 121.434219,536.966624 C123.029435,539.680625 124.530606,542.460279 125.994965,545.250361 L127.004495,547.114063 C133.532899,559.188199 142.209981,576.207129 129.615254,586.865056 C126.83544,588.985347 123.142243,590.230598 119.669673,589.522649 C115.766772,590.622376 111.699291,590.948975 107.654846,590.766004 C99.7189008,590.590616 91.806229,589.505821 84.0503003,587.803852 L82.6705953,587.492688 C79.7200123,586.821309 76.7378476,586.076024 74.0040237,584.766806 C64.6391043,580.109085 62.5009873,566.741245 67.3443461,557.953387 C68.9678236,554.863962 71.2192231,552.189541 73.0858897,549.261045 C76.529961,543.859349 79.252302,537.875794 81.1080441,531.705712 C81.0213605,531.677745 80.9353893,531.648119 80.8501306,531.61707 C80.4763223,531.755247 80.0307922,531.740552 79.564838,531.490507 C67.1914029,523.860206 71.3367803,498.345603 71.6391043,485.461974 C74.2339135,451.99284 82.2384936,419.185438 92.164363,387.265165 C98.3274567,370.913934 102.157972,353.991547 105.316251,336.898882 C97.6581147,335.394843 89.9395776,334.22618 82.1700017,333.485528 C80.6476947,333.340478 79.8141069,332.17818 80.0587209,330.64994 C80.9010619,325.386895 81.7793462,320.130119 82.6641112,314.874388 L83.4307739,310.322457 C87.0404746,288.836514 90.4017491,267.352922 91.8460322,245.576139 C91.8541797,245.453313 91.8695732,245.335424 91.8916015,245.222474 C91.7737308,245.221294 91.6559479,245.218046 91.5382222,245.212968 C90.9953215,246.433096 88.9315386,246.669395 88.5263817,245.025019 C87.1280441,239.373041 85.8990365,233.676031 84.8291467,227.950106 L84.5327635,225.071331 C84.2352829,222.192722 83.9280833,219.315372 83.5533234,216.446122 L83.482222,215.913954 C83.2170916,215.712346 83.0549307,215.360315 83.0286355,214.987099 C82.9177339,214.955763 82.7949933,214.957038 82.6748804,214.986368 C75.6231077,166.788957 79.2125225,117.702521 85.7688923,69.6475533 C88.2523189,42.8701604 96.1084682,26.6648368 123.995423,22.3744813 C129.834082,21.2079057 135.775183,20.4928322 141.496444,18.8335034 L141.471674,18.6472853 C141.349367,17.7056445 140.946348,16.3082334 141.263396,15.3661185 C141.530097,14.5728459 142.666008,14.2031103 143.290606,13.7565834 C144.311098,13.0273036 145.295254,12.2473036 146.251861,11.4327001 C148.205924,9.76960073 150.045517,7.97898997 151.999817,6.31826071 C152.056336,6.27029158 152.146054,6.30128425 152.170399,6.35822553 C152.676459,5.88347047 153.187758,5.41439512 153.704706,4.95158979 C154.117524,4.58220966 154.827553,4.62819705 155.090095,5.12954231 C155.520627,3.87804253 155.884121,2.60514714 156.197394,1.31045214 C156.439159,0.312165907 156.665011,-0.683039198 156.823416,-1.6993382 C156.976835,-2.68482589 156.983959,-3.75137101 157.334731,-4.68210939 Z M118.161377,530.256159 C111.873133,531.665657 105.407484,531.190215 99.0266192,530.97738 C97.0309958,534.837088 95.7680271,539.090944 94.7962205,543.316833 C93.8322511,549.778201 90.1316913,547.811017 92.2800204,542.385621 C93.6225479,538.170397 95.9238202,534.397198 98.5970008,530.963871 C97.7130653,530.935903 96.8272299,530.915046 95.9409194,530.904618 C94.4587481,531.162959 92.9580526,531.31109 91.4637693,531.49738 C89.5548295,531.734864 87.6399525,532.037526 85.7181883,532.147736 C85.020207,532.187553 84.2714029,532.196797 83.518799,532.143706 C82.9656862,532.291838 82.4149483,532.452294 81.8684852,532.635028 C81.7609025,542.680224 76.6551179,551.290088 71.3498422,559.382795 C67.0588838,566.920899 69.4031416,579.091364 78.4669245,581.424727 C91.0227515,585.606532 104.295321,585.811783 117.331589,586.587517 C117.636051,585.270215 119.137934,584.777471 120.34058,584.926551 C123.703193,585.515284 127.165313,583.682959 129.132438,580.923451 C137.109232,568.125621 123.485177,552.114408 119.622175,539.795101 L119.494985,539.489811 C118.429366,536.972196 116.280233,532.697324 118.161377,530.256159 Z M224.283277,516.862011 C223.009859,517.126988 221.740716,517.408556 220.475847,517.705056 L220.291556,517.763123 C220.091352,518.275776 219.748892,518.714244 219.292438,518.959313 C221.037964,520.579122 222.736339,522.346604 224.215264,524.237285 L224.415559,524.495867 C225.986551,526.544345 227.865805,528.338747 228.635033,530.895138 C228.887722,531.733679 227.935152,532.403706 227.228858,532.001263 C224.914762,530.682303 223.56131,528.256742 222.139698,526.064636 C220.749673,523.921355 219.648197,521.543907 218.836933,519.126642 C212.216679,519.401573 205.848875,524.643287 199.819494,527.343542 C196.460682,533.168064 195.777662,539.9712 195.94723,546.596815 C193.454304,551.525675 190.112828,535.656195 198.314049,528.069504 L198.025204,528.190385 C193.58646,530.024695 188.702545,530.962968 184.0236,529.253369 C184.110283,529.43089 184.111233,530.056833 183.760936,529.808921 C182.821428,528.651838 180.656,533.124928 180.392624,533.711291 C174.55656,545.708264 181.76555,559.063305 194.254643,561.890598 C195.05237,559.859185 198.135457,560.292202 197.156288,562.561099 L197.182641,562.607027 C197.187637,562.615296 197.192941,562.623907 197.198561,562.632913 C198.404295,562.988191 200.309198,563.007863 200.766365,564.36285 C217.824041,569.034791 235.568774,570.761409 253.196899,570.618729 C260.930504,569.94491 278.170334,571.812312 281.708689,563.321191 C284.449554,553.081409 273.103735,544.324363 266.325313,538.559331 C261.929147,535.055375 257.175559,531.980407 252.207043,529.399367 C247.817289,527.119094 242.924295,525.309285 238.459257,522.907426 C238.421021,522.92212 238.380411,522.933971 238.336237,522.941555 C235.074083,523.508957 232.126365,520.721956 229.585703,519.030416 C228.285924,518.164855 226.900411,517.391017 225.424176,516.884527 C225.286433,516.954919 225.147739,517.008009 225.008807,517.030051 C225.222073,517.255922 224.71812,517.289814 224.905025,517.037161 C224.672285,517.007535 224.467569,516.945912 224.283277,516.862011 Z M250.444373,552.948707 C247.267953,553.181688 246.54551,546.122582 248.311006,548.066301 C248.517669,548.808652 248.875438,549.579666 249.362118,550.181622 L249.477918,550.320006 C250.066405,550.994557 252.060336,552.443739 250.444373,552.948707 Z M104.201252,533.847287 C104.264662,533.729493 104.454653,533.781161 104.450378,533.91602 C104.400031,535.538591 104.283423,536.963969 104.680506,538.56592 C105.061439,540.103641 105.778182,541.438955 106.637656,542.748199 C107.262965,543.700031 105.797656,544.524352 105.157622,543.633431 C103.310904,541.063294 102.645934,536.737861 104.201252,533.847287 Z M211.835342,521.251437 C211.879277,521.059696 212.182314,521.052348 212.221737,521.251674 C213.258378,524.662011 213.563077,528.263615 214.367454,531.739367 C214.50496,533.719349 217.798701,540.195885 214.744349,540.663032 C211.910388,540.70759 211.737496,533.858948 211.279142,531.7114 L211.2385,531.338779 C210.878924,527.979307 210.700609,524.466613 211.835342,521.251437 Z M95.2811264,531.280848 C95.42457,531.280848 95.42457,531.508614 95.2811264,531.508614 C95.1376828,531.508614 95.1376828,531.280848 95.2811264,531.280848 Z M176.027318,230.554572 L176.009757,231.271289 C175.469378,252.90202 174.305105,274.53243 172.187271,296.056193 C171.159891,306.499329 169.929934,316.951708 168.033818,327.271362 L167.745002,328.835657 C166.615451,334.906543 165.302585,341.206983 162.590561,346.732018 L162.438336,347.037949 C161.622649,348.654071 160.478986,350.531464 158.859603,351.339967 C157.678093,351.930122 156.546931,351.284744 155.399145,350.886804 C154.352054,350.523942 153.303776,350.163923 152.254548,349.80746 C149.983912,349.03623 147.708763,348.278983 145.427678,347.540696 C141.014412,346.112474 136.581198,344.747533 132.126134,343.461517 C124.266558,341.193137 116.328568,339.172729 108.322937,337.506908 C107.950883,339.942038 107.567152,342.375313 107.169181,344.806004 C104.511912,361.145238 98.8938626,376.612275 94.0984767,392.370361 C82.789469,431.189522 73.1433622,471.61016 75.0914877,512.388447 C75.3484512,515.525511 75.8894521,518.649541 76.9619542,521.609322 C77.9451603,524.323087 79.6757455,526.756706 81.4678405,528.968246 C81.8145751,529.395575 81.9209703,529.883105 81.8554232,530.326788 C81.8969839,530.449085 81.9183579,530.578966 81.9283325,530.712877 C82.6614623,530.86883 83.4138287,530.942303 84.1794945,530.958419 C94.8164071,526.706222 106.952828,530.238857 117.87259,526.963615 C117.962599,525.829522 118.369893,524.578583 118.83181,523.536924 C128.673133,509.903871 136.055254,494.538273 141.562395,478.582758 C152.978748,445.72748 156.845788,410.894354 163.800665,376.918018 C170.808502,343.131528 181.269435,309.639404 198.847925,279.964089 C198.97712,279.744144 199.267807,279.936833 199.174711,280.159386 L198.284991,282.34298 C188.705366,305.884778 179.463525,329.676317 173.280767,354.416286 C186.425805,407.071856 153.096068,454.893369 177.729418,510.733169 C178.775796,513.334117 179.907908,515.901883 181.11293,518.429595 C181.897832,520.647298 184.520665,523.881063 184.327824,526.043542 C193.665669,527.971856 201.455321,521.232713 209.229062,517.130543 L209.469512,517.025061 C212.12709,515.842348 216.876418,513.233731 219.447518,514.685548 C219.493829,514.716122 219.532777,514.751911 219.576,514.785092 C219.805652,514.735794 220.035542,514.689577 220.265432,514.64336 C220.997612,514.431473 221.730504,514.22243 222.465534,514.020498 C222.641988,513.971911 222.819868,513.919768 222.99846,513.866678 C223.023871,512.223014 223.538986,510.296122 224.000665,508.990671 C237.55561,458.977289 233.435169,406.295411 240.434931,355.225438 C240.65332,353.251994 240.883467,351.279216 241.123667,349.307306 C237.556231,349.200216 233.99732,348.942254 230.464248,348.516917 C229.386046,348.387036 228.043993,347.545887 228.210473,346.211284 C228.541534,343.558904 228.852407,340.904392 229.139294,338.246799 C231.518701,316.207236 232.379362,294.02452 232.32664,271.858394 C232.295983,258.93986 231.925768,246.030999 231.308957,233.133065 C227.697448,233.884556 224.040365,234.399643 220.367006,234.705697 C212.630551,235.349891 204.860611,235.045096 197.14553,234.265333 C193.23883,233.870474 189.357778,233.326773 185.481238,232.697037 L184.799629,232.585079 C181.958108,232.112629 179.101453,231.558806 176.356205,230.663646 L176.027318,230.554572 Z M109.653866,492.555874 C109.800634,492.284972 110.232628,492.471025 110.142382,492.766576 C107.028658,502.824097 104.362602,513.021216 102.05183,523.301052 C100.705028,530.320815 96.2955623,528.200049 98.2712366,521.996549 C100.798124,511.735437 104.668251,501.823914 109.653866,492.555874 Z M188.647756,495.615674 C188.634931,495.361599 188.993303,495.335528 189.063362,495.55808 C191.048774,501.931991 193.727654,508.157296 197.488536,513.650004 C198.660784,515.34984 200.300648,516.925719 200.87751,518.968035 C201.148723,519.928162 200.127043,520.554817 199.340241,520.17726 C197.351755,519.222721 196.100201,516.901933 194.982523,515.052042 L194.920563,514.949767 C191.35751,509.11458 189.005415,502.513613 188.647756,495.615674 Z M121.99334,509.223201 C122.256953,508.885699 122.733595,509.318716 122.552628,509.664988 L122.469921,509.832061 C121.632741,511.544351 116.698932,521.951237 116.024994,517.835909 C117.326673,514.605462 119.878497,511.931752 121.99334,509.223201 Z M227.341666,515.199386 C227.30248,515.236122 227.263532,515.27357 227.223396,515.309121 C227.595779,515.437581 227.961276,515.586897 228.320122,515.751382 C227.996424,515.573387 227.666789,515.390653 227.341666,515.199386 Z M153.704706,7.32967061 L153.236628,7.66604978 C150.57533,9.90172237 147.867762,12.0801225 145.179923,14.2824019 C144.886626,14.5526302 144.587307,14.8156421 144.280461,15.0691449 C144.048197,15.2611231 143.650239,15.6872673 143.086587,16.3475776 C143.366768,17.3809468 143.542484,18.4815237 143.806008,19.5313519 L143.887891,19.84466 C144.344346,21.5210319 144.711505,23.2144686 145.0922,24.9105123 C146.019596,29.039701 146.530911,33.2518432 146.542548,37.4959818 C146.551573,40.8169663 146.124804,44.1310775 145.807993,47.4319161 L145.420779,51.4614203 C145.227826,53.4762407 145.037198,55.4912999 144.854948,57.5072124 C144.550724,60.8748879 144.252913,64.2451705 144.045347,67.6206673 L144.037003,67.7807615 C144.003172,68.6130737 144.188164,68.5191646 145.096665,68.7716553 L145.152047,68.7872306 C145.857154,68.9882151 146.569859,69.1605214 147.28779,69.3046235 C148.774948,69.6027821 150.273744,69.7497284 151.787264,69.7973674 C152.856441,69.8312598 153.435203,71.443165 152.366025,71.9835479 C150.340835,73.0070362 148.321251,74.0428687 146.310848,75.0966691 L144.906865,75.8350666 C143.906456,76.3531369 142.835027,76.8646064 142.580987,78.0922443 C142.35941,79.1623446 142.637985,80.3407584 142.780003,81.4044594 C143.4122,86.1411048 143.74231,90.9121167 144.239851,95.6644047 C144.689181,99.9566563 145.269367,104.255307 146.38058,108.427158 C147.565177,112.87394 149.383634,117.146994 150.75941,121.538078 C153.09773,129.000598 155.218248,136.549904 157.312822,144.094738 L158.707467,149.122964 C161.291589,158.432007 163.623973,167.833958 165.133218,177.394469 C165.870385,182.064988 166.412811,186.767978 166.703023,191.490166 L166.759193,192.424342 C167.020918,196.89485 167.16892,201.462981 166.409011,205.874541 C166.222107,206.960758 164.657052,206.62373 164.615966,205.626392 C164.387026,200.064004 164.673676,194.51868 164.231233,188.953685 C163.786653,183.364988 162.975389,177.815398 161.924499,172.313685 C160.12931,162.916557 157.64593,153.675144 155.011169,144.493171 L154.791267,143.728142 C152.140709,134.521603 149.736226,125.216206 146.571132,116.175009 L146.289859,115.377951 C144.8198,111.24497 143.57868,107.200868 142.874049,102.848416 C142.264991,99.0858476 141.892879,95.2898467 141.541455,91.4941442 L141.366466,89.596474 C141.165788,87.4256992 140.961547,85.2546873 140.701259,83.0903118 C140.469469,81.1653163 139.886908,79.0329371 140.458782,77.1195552 C141.078629,75.0454804 143.01488,74.1946144 144.751403,73.2825998 C145.464323,72.9081404 146.178241,72.5357778 146.893104,72.1653725 C147.038105,72.0902405 147.123309,71.6532338 146.951757,71.6205356 C146.862724,71.6035657 146.579293,71.5454262 146.101464,71.4461169 C144.781495,71.1726555 142.713455,70.8829638 141.994626,69.6103665 C141.649791,68.9995916 141.712014,68.2928277 141.752149,67.6206673 C141.809859,66.6562735 141.882056,65.6923537 141.949978,64.7284339 C142.096746,62.6410866 142.258239,60.5546873 142.430419,58.4689991 C142.721344,54.9479781 143.040292,51.4293273 143.355678,47.9102024 C143.665601,44.4522261 144.103057,40.9722078 144.097595,37.4959818 C144.090232,32.9510775 143.419562,28.5936481 142.439919,24.1914239 C142.093154,22.6340315 141.81343,21.081224 141.58865,19.5065537 C122.031436,29.0153722 98.2284085,24.9228102 91.8723698,53.9074804 C83.0666956,106.021633 78.7854481,160.174116 85.9165292,212.799874 C92.174689,210.419944 98.7821835,209.133755 105.465788,208.963185 C106.99712,208.924078 106.991182,211.353905 105.465788,211.392775 C98.8812316,211.560766 92.4061874,212.876411 86.2587233,215.253658 C87.6301757,224.892466 89.3899591,234.477851 91.5793079,243.9881 C92.0476713,243.887251 92.5134517,243.774141 92.9782287,243.655935 C93.4044709,243.399888 93.9035651,243.277251 94.3899625,243.288281 C95.6811993,242.951327 96.9771327,242.631097 98.3116573,242.481665 C98.2627345,242.259349 98.6061442,242.201045 98.6025818,242.437818 C109.243057,240.837763 120.787416,242.707298 130.424261,236.85718 C128.425788,226.332275 126.184601,215.8479 123.727298,205.417088 C112.831047,165.398182 136.320173,126.512658 131.809299,86.4430319 C131.782701,86.2361222 132.113286,86.2000966 132.160309,86.3944448 C141.176356,127.191929 115.688044,167.808337 128.615067,208.500826 C129.792539,213.571418 131.050996,218.623761 132.094999,223.725876 L132.145518,223.949704 C132.761444,226.752033 135.595398,241.866737 131.703617,240.536997 C130.95315,241.029978 130.111013,241.40635 129.272913,241.74006 C130.492089,246.528682 134.548376,249.791521 137.646384,253.231358 L137.755321,253.35284 L138.315559,253.932093 C143.913184,258.339294 149.997187,274.074627 137.091776,270.203779 C135.405364,272.163141 136.630809,275.407572 136.782565,277.719841 C137.425211,283.129358 134.93276,287.409996 129.424193,288.100881 C124.398918,288.779914 119.286246,288.749103 114.236034,289.181646 L114.224872,289.295648 C114.033218,289.332148 113.842039,289.366988 113.65086,289.404673 L113.686958,289.216487 L112.473511,289.31014 C109.486987,289.525956 106.41698,289.519424 104.705347,286.514572 C100.587376,279.002232 99.5786973,269.605724 99.1141601,260.329859 L99.0368075,259.708975 C98.6767735,256.826222 98.3357388,253.942758 98.0156031,251.055265 C97.9055267,250.064267 97.8084084,249.072736 97.7094198,248.081171 L97.5905955,246.909819 C97.510993,246.156095 97.4006124,245.3533 96.9674683,244.809009 C96.7949285,244.821234 96.6225086,244.835699 96.4500687,244.851595 C96.4991792,245.07015 96.5175271,245.311665 96.4993995,245.576139 C96.0327328,252.389229 95.4154979,259.189995 94.6431824,265.973933 C92.2642295,286.875873 88.3716628,307.529302 84.8810462,328.253503 L85.550512,329.372759 C89.4914766,329.829286 93.4216509,330.384775 97.3366644,331.034296 L98.1753622,331.174917 C118.006344,334.535269 137.401696,340.242124 156.410544,346.863647 L158.125805,346.378654 C158.156555,346.332209 158.187033,346.28557 158.216957,346.238563 C158.436872,345.893003 158.638738,345.535355 158.830867,345.172966 C159.022758,344.810815 159.199754,344.441534 159.371583,344.069614 L159.704304,343.340125 C159.77022,343.190686 159.761113,343.190696 159.950629,342.698108 C160.89085,340.253112 161.607593,337.719001 162.244777,335.17612 C164.064421,327.913896 165.238806,320.480551 166.25621,313.062611 C169.052885,292.666002 170.445998,272.047789 171.425642,251.486221 C172.495532,229.030943 172.98571,206.545564 172.65465,184.064926 C172.514056,174.533568 172.243793,165.001973 171.644607,155.488153 C170.664441,139.920102 168.82531,124.428442 166.868865,108.96153 L166.448102,105.647552 C165.372512,97.2014622 164.238263,88.7627201 163.414412,80.2858195 C162.615973,72.0686819 162.008237,63.8342425 161.295532,55.6092835 C160.898771,51.0302592 160.465494,46.4606033 159.96142,41.9041178 C159.165634,37.4444642 158.323446,32.9931074 157.58932,28.5198669 C156.510184,21.9447347 155.320987,15.3849123 154.064397,8.84163403 L153.704706,7.32967061 Z M213.06917,17.8184613 L212.842045,17.5509771 C210.445747,14.7628451 207.081855,11.9229506 203.324885,12.178553 C203.237227,12.1845168 203.179706,12.3801112 203.152324,12.7653363 C203.719404,13.7950719 204.274098,14.8307983 204.817958,15.8723732 C204.886544,15.9637084 204.940831,16.0659522 204.977251,16.1782281 C205.693877,17.5574983 206.391805,18.9469808 207.074635,20.346343 L207.643246,21.5168416 C209.097582,24.4941829 210.67859,27.4890747 211.408906,30.7415041 C211.421494,30.7976618 211.426129,30.8510469 211.42394,30.9012521 C217.176063,46.1049637 219.496781,62.7422853 221.296682,78.777701 C223.616229,99.4437429 225.631207,120.157271 227.69306,140.853462 L228.019057,144.121129 C230.267131,166.619068 232.377225,189.133362 233.929455,211.694583 C235.486911,234.333781 236.556326,257.032943 236.553713,279.732104 C236.551215,300.973705 235.519861,322.238292 233.062264,343.335454 L233.217316,344.20793 C243.61444,345.263571 253.975478,345.30757 264.367162,343.890886 L264.696005,343.845046 C265.172518,342.073604 265.688585,340.321999 266.198066,338.556405 C270.961628,322.044627 272.001832,304.731519 271.225717,287.608255 C270.451705,270.528997 268.036317,253.619944 265.382343,236.758248 L265.120577,235.099869 C262.42228,218.048439 259.973256,200.998705 258.107402,183.83391 L257.940939,182.28677 C255.323942,184.940283 252.164219,186.947217 248.673581,188.231468 C247.246045,188.756599 246.628033,186.464553 247.996499,185.90639 L248.042334,185.888624 C251.777948,184.514107 255.027023,182.164828 257.606183,179.091134 C255.960374,163.247062 254.486302,147.38289 253.058141,131.51638 C252.692487,128.189825 252.442907,124.844299 252.145154,121.518975 C251.888021,118.646313 251.645386,115.773141 251.413139,112.89935 C250.177941,98.467776 249.061843,84.0293077 248.198972,69.5671338 C248.162622,68.9578874 249.367286,68.7424077 249.467718,69.2028097 C249.889149,71.1347521 250.082414,73.1201191 250.306036,75.0853929 C250.588173,77.5626217 250.796214,80.0583373 250.996655,82.5438614 C251.406496,87.6239488 251.792007,92.7063884 252.173795,97.7890765 C253.530128,109.023476 254.783731,120.27075 256.031383,131.519613 C258.127701,150.422585 259.919084,169.360871 262.058863,188.258629 C263.886629,204.39953 266.435454,220.406557 268.965205,236.436484 C273.861157,234.632247 278.2572,231.700001 281.871274,227.89256 C284.897839,222.014 284.510731,213.799706 283.152292,207.454474 C282.826694,205.623098 282.497534,203.792432 282.169086,201.96153 C279.642911,201.674036 277.098925,201.623553 274.549238,201.808895 C273.021707,201.920053 273.033344,199.489515 274.549238,199.379305 C276.948119,199.204866 279.343437,199.243499 281.724506,199.477428 C278.09448,179.315696 274.300112,159.184301 270.592902,139.037026 C265.534853,112.545231 261.726711,85.703371 254.218008,59.7789772 L253.835386,58.4717288 C249.668831,44.3078614 244.036517,27.8766383 228.799043,23.3220948 C225.43782,22.2313063 221.947606,21.5629601 218.42051,21.1207232 C220.423246,24.3064973 222.055124,27.7686611 223.602775,31.1611778 C226.286023,37.0424236 229.249951,42.8048586 232.104632,48.6036204 L232.607186,49.62734 C235.620639,55.7848692 240.077857,65.8382049 235.680681,72.1367123 C235.595516,72.258703 235.597919,72.8160962 235.725344,72.8697144 C238.172538,73.8994536 240.192987,76.0075154 241.351427,78.457466 L241.401656,78.5650793 C243.372453,82.8423759 243.16554,87.7106244 243.141638,92.3322961 L243.131482,95.9811668 C243.080349,113.843149 242.95411,131.705294 242.185846,149.552901 C241.779026,159.004624 241.19979,168.449473 240.365727,177.872281 L240.261867,179.039057 C239.460384,187.988033 238.52648,197.017013 236.611732,205.78827 C236.413191,206.698388 234.940757,206.500722 235.015566,205.567376 C235.827067,195.449418 237.138721,185.381943 237.944285,175.259956 C239.382996,157.178461 239.872936,139.045535 240.121588,120.911424 C240.232205,112.845709 240.277897,104.779433 240.30987,96.7130941 L240.321316,93.6882151 C240.336278,89.4983519 240.699874,85.034505 239.374921,81.0005943 C238.337567,77.8426727 235.689561,74.9042224 232.230053,74.9850428 C230.827915,75.0177502 230.447457,73.1091085 231.543233,72.3907311 C235.335701,69.9047329 235.166134,64.8822534 234.233988,60.8966928 C233.124984,56.1553688 230.790252,51.8802197 228.672857,47.55238 L228.543505,47.28734 C225.864387,41.7842042 223.101435,36.3166199 220.458416,30.7968933 L219.973326,29.7782746 C217.996328,25.6101961 216.037698,21.3570702 213.06917,17.8184613 Z M245.553469,336.983938 C245.711399,336.983938 245.711162,337.234458 245.553469,337.234458 C245.395776,337.234458 245.396014,336.983938 245.553469,336.983938 Z M126.993964,242.582157 C117.932556,245.425566 108.309961,244.444108 98.9697405,244.746295 L99.0108554,244.982147 C99.3837413,245.565711 99.6421849,246.235434 99.7404885,246.794536 C100.294314,249.944399 100.624662,253.16584 100.987545,256.34367 C101.621123,261.891167 102.377244,267.408131 102.63339,272.976094 C103.159383,275.581971 103.821313,278.156975 104.68991,280.684837 L104.80324,281.004973 C106.638367,286.155593 107.728929,287.481872 113.401259,286.544199 C117.907858,286.207881 122.417781,285.914463 126.923193,285.563214 L127.540942,285.512474 C129.496175,285.342751 131.720317,285.022304 133.028807,283.431309 C135.888417,279.546004 132.574965,274.382029 134.13717,270.156851 C136.416119,265.022029 138.8055,269.533515 141.733269,267.947681 C143.587111,266.663561 141.504804,262.568264 140.771674,261.160188 C137.766958,256.035557 132.664499,252.548665 129.429893,247.539933 L129.301786,247.355646 C128.413048,246.072053 127.269093,244.299201 126.993964,242.582157 Z M279.232767,236.200235 C276.176951,237.78366 272.837391,238.765892 269.380041,239.066384 L269.924037,242.528948 C271.096555,250.012012 272.245085,257.515563 273.195275,265.042116 C277.791988,257.222611 279.640899,247.700235 280.126914,238.636935 C279.985133,238.098448 279.826728,237.567546 279.627474,237.059871 C279.432258,237.1907 279.234904,237.317737 279.035888,237.440746 L279.086113,237.092613 L279.182182,236.395768 L279.33655,236.403353 C279.302589,236.335331 279.268865,236.267072 279.232767,236.200235 Z M281.188967,232.185522 L281.16498,232.063225 L280.960027,232.085978 C280.581469,232.414 280.194599,232.731119 279.803691,233.042551 L279.852377,233.085449 C280.306931,232.801037 280.752699,232.500983 281.188967,232.185522 Z M159.868976,30.1289229 L159.949143,30.5844703 C162.677858,46.2430406 163.833433,62.1448908 165.554429,77.9550629 C167.707508,97.7354458 171.012173,117.367697 173.177364,137.149739 C176.090171,163.760514 176.629985,190.520605 176.275651,217.275956 C176.222355,221.297679 176.149942,225.320184 176.056291,229.342786 C179.774055,229.236944 183.503559,229.738144 187.194962,230.12856 L188.511946,230.266523 C202.711937,231.738154 217.094903,232.677915 231.129522,229.514631 C230.699434,221.138306 230.169006,212.766833 229.563688,204.400363 C227.941873,181.984665 225.831304,159.607601 223.703874,137.237646 C221.668828,115.838485 220.250541,94.3594512 217.954731,72.9892051 C216.461124,59.085654 214.080879,45.3597208 209.872493,32.1793393 C208.569927,34.3755275 205.090634,35.4362879 202.612317,36.0876837 L201.426823,36.394217 C193.763515,38.3938706 185.732336,38.6834968 177.944821,37.3029134 C174.021734,36.607289 170.191742,35.4916828 166.545567,33.8477812 C164.672489,33.0033145 162.902005,31.9438797 161.139834,30.8830228 C160.778562,30.6656385 160.308009,30.4218768 159.868976,30.1289229 Z M125.598453,183.556871 C124.201065,182.928084 125.411074,180.835285 126.797062,181.458859 C135.333856,185.299132 144.575756,187.325331 153.895552,187.465641 C155.424984,187.488631 155.424271,189.918458 153.895552,189.895468 C144.132363,189.748521 134.533042,187.576088 125.598453,183.556871 Z" id="ðŸ–-Ink" fill="#000000"></path>
                </g>
                <g id="Head" stroke-width="1" transform="translate(95.945717, 42.661805)">
                    <g id="head/Bun">
                        <path d="M35.4265613,15.1371791 C71.3468692,13.3705695 95.7189273,41.700972 96.767396,52.998257 C97.4951971,60.8403373 97.0012903,71.2989849 97.0012903,78.3065336 C97.0012903,81.8834512 98.8060286,92.7559333 96.767396,97.9692815 C92.2298581,109.573023 87.1034561,118.662117 72.8990714,118.662117 C58.6946868,118.662117 37.0406381,111.299329 29.605026,101.803067 C28.2474114,100.069213 11.377442,87.3772389 11.377442,77.4009068 C11.377442,56.1161282 9.7959002,16.3977299 35.4265613,15.1371791 Z" id="âœ‹-Skin" fill="#694D3D"></path>
                        <path d="M10.9217984,-7.85154968 C12.9689039,-8.49147675 14.2754208,-7.57021878 15.207496,-6.14294439 C15.4129649,-6.18299909 15.6117982,-6.18039198 15.8331453,-6.12706472 C15.8878896,-6.11379216 16.0203661,-6.06378304 16.1206122,-6.02443938 C16.1981074,-5.99196901 16.2680189,-5.95262534 16.3353236,-5.91091158 L16.3753747,-5.93200547 L16.3753747,-5.93200547 C16.5289431,-6.09957156 16.6903322,-6.25244303 16.8645187,-6.37568824 C17.2560234,-6.65251595 17.6593776,-6.73309936 18.0421138,-6.67621696 L18.2193811,-6.74139471 L18.2193811,-6.74139471 C19.7346847,-7.26945305 21.3774881,-7.02438469 22.4048327,-5.71893345 C22.6036659,-5.46675479 22.764344,-5.1858979 22.9015603,-4.88963537 C23.2096451,-4.7886691 23.498771,-4.64267092 23.7478457,-4.46301732 C23.9227431,-4.5452598 24.1075941,-4.61446673 24.3054793,-4.66542388 C25.4233535,-4.95220602 26.5978678,-4.68154057 27.5088511,-3.99610757 C27.9524933,-3.66263446 28.2788263,-3.24502279 28.5262421,-2.76815861 C28.8080213,-2.70203282 29.0864826,-2.58305378 29.3474068,-2.42330902 C29.5715978,-2.53494075 29.7993436,-2.63969918 30.0327772,-2.71151322 C30.8861723,-2.97364631 31.8016583,-3.07010939 32.6898907,-3.00398359 C34.6039083,-2.86202644 36.4549801,-0.675653942 35.1758087,1.20184482 L35.1360846,1.25864175 C34.9737476,1.48498633 34.8325025,1.71891522 34.701685,1.95663628 C35.1597835,2.15596171 35.6010558,2.42259799 36.0086758,2.75678213 C38.0024946,4.39102147 38.1819636,6.91038477 37.8090524,9.28701183 L37.7931982,9.3859526 L37.797938,9.3859526 C38.8573124,9.48653236 39.7719428,10.5930605 39.1460649,11.6338452 L39.1155933,11.6825798 C38.2683599,12.9915861 37.5422275,14.4375843 36.7329122,15.8150866 C34.4931352,16.6225798 32.3334602,17.6170738 30.2998631,18.8220328 C29.0331602,19.9317138 27.8271265,21.1049134 26.7661295,22.4101276 C26.2364605,23.0619052 25.7499234,23.7518414 25.3027264,24.4671376 C25.6603418,24.6389699 26.1025621,24.6302005 26.4760558,24.2841659 C29.7983957,21.2051686 33.8122676,19.0443482 38.0861158,17.596217 C38.3939637,17.4916955 38.5958778,17.2949772 38.7091582,17.0622334 C40.6064871,16.5216135 42.5372313,16.1023428 44.4871715,15.8056062 C45.0246612,15.2934275 45.5877455,14.8037648 46.1228652,14.2937192 C46.8061027,13.6428897 47.6618677,13.6523701 48.3012623,14.0612124 C48.6188267,13.9164388 48.9436324,13.7886179 49.273348,13.6737723 L49.4779095,13.6040201 C49.5632253,13.5760529 49.6447493,13.5435825 49.7286432,13.5179854 C52.0167997,12.8184721 54.1091589,13.078192 56.3597907,13.6529422 L56.6479925,13.7279763 C57.6971485,14.0063446 58.3573639,13.9618517 59.3734261,13.7056415 L59.4878241,13.6763081 C60.5673061,13.3947402 61.7219134,13.1861714 62.8253313,13.4826709 C63.9798468,13.7930011 64.745736,14.4831147 65.5321659,15.3169402 L65.6108925,15.4007931 C65.9778117,15.7933887 66.1898612,15.8362039 66.6702693,15.826658 L67.1847589,15.8114093 C69.1267112,15.7581731 71.0282939,15.840061 72.4828441,17.3421422 C73.0204692,17.8976486 73.597431,18.6838232 73.9437048,19.4013389 L73.9938819,19.5084139 C74.0099972,19.5432543 74.0242165,19.5724066 74.0374878,19.5984777 C74.2460376,19.5648222 74.5707116,19.4328077 74.725228,19.4027074 C76.8415341,18.992206 78.6073345,19.6247858 79.9664627,21.2926253 C80.2636461,21.6576208 80.7127391,22.3743391 81.0239048,22.7682498 C81.1329195,22.8606837 81.2357724,22.9597539 81.3331746,23.0638013 C81.8434106,23.3896901 82.5664621,23.3690702 83.138552,23.483309 C84.6976985,23.7937922 86.3642006,24.3867912 87.1569267,25.870711 C87.4882365,26.4900182 87.6107594,27.1676299 87.7505826,27.8445305 C88.2748008,28.1889061 88.6855017,28.6852051 89.004488,29.2225068 C89.392201,29.8747584 89.5571449,30.6737192 90.003631,31.2897083 C90.3278311,31.7371832 90.8233737,31.9760893 91.2947436,32.2495989 L91.4746992,32.3553463 C92.8716469,33.1872157 93.9653457,34.1104014 94.4253034,35.7402777 L94.4651427,35.8852827 C94.5397181,36.1349343 94.8016162,36.8475054 94.5734776,36.7404649 C94.769941,36.8487785 95.1036206,36.8869371 95.2827838,36.9461896 C96.2518292,37.2668642 97.0943229,37.7849681 97.6104835,38.6948496 C98.0031948,39.3873606 98.0745968,40.1092412 98.1870459,40.8726536 L98.2349479,41.1808774 C98.2471676,41.2554245 98.2617868,41.3420535 98.2768809,41.4260536 L98.2920621,41.5086326 L98.2949059,41.5105287 C98.4705143,41.5863719 98.6428048,41.6686144 98.8122515,41.7572562 C99.6154051,42.2300912 100.164507,43.0508569 100.164507,44.0010301 C100.164507,44.4622516 100.020418,44.8215588 99.8106835,45.1422334 C99.9803672,45.3991522 100.111659,45.6728988 100.210957,45.9779307 C100.405761,46.5735369 100.41927,47.2248405 100.353861,47.8410665 C100.275181,48.5805378 100.085353,49.2538833 99.861873,49.9601732 C99.7758462,50.2327347 99.7410089,50.6136098 99.6113763,50.8738469 C99.8504975,51.1788788 99.9931645,51.5516955 99.9488477,51.9195351 C99.8855718,52.4456974 99.6455026,53.0607384 99.168919,53.3558159 C98.9359594,54.5053145 98.4344921,55.6799362 97.9408453,56.6196809 C97.8839681,56.7287056 97.8152415,56.8258797 97.7394052,56.9064631 C97.8081318,60.6583318 97.5332253,64.4365087 97.5142662,68.1834002 C97.4929373,72.2623428 97.5782531,76.3438924 97.7204461,80.4178578 C97.9598044,87.1702735 98.8153324,94.1525889 96.8222602,100.736964 C95.1917803,106.126335 91.9258436,110.752771 87.5465356,114.26052 C83.0627157,117.848851 77.6572481,119.925296 71.9171529,120.25 C68.9974562,120.4133 66.027992,120.081486 63.2030907,119.325424 L62.9012742,119.243596 C60.1681766,118.492675 57.0024594,117.345459 54.9914439,115.336545 C53.929736,114.27474 55.0032933,112.025752 56.5603068,112.644111 C58.1031011,113.258204 59.4873501,114.165716 61.018058,114.805643 C62.3854809,115.376837 63.8123878,115.815305 65.2577798,116.137639 C68.1561475,116.789417 71.2298866,116.93186 74.175652,116.526335 C84.8116899,115.071094 93.099173,106.237967 94.7343927,95.7642571 C95.1869588,92.8637447 95.1785331,89.9156049 95.1480367,86.9847423 L95.1143272,83.7733881 C95.0884485,81.086873 95.0788722,78.3987694 95.177561,75.7134458 C95.3031648,72.2578396 95.5472628,68.8043665 95.8743068,65.3632179 L96.0446783,63.5726211 C96.2469344,61.477418 96.4746773,59.3663638 96.867288,57.2998997 C96.5456948,57.3167274 94.0082604,52.9756518 92.6000755,50.5498541 C92.0860477,50.1421969 91.652122,49.6357065 91.4845713,48.9803737 C91.449734,48.843619 91.4317229,48.7056791 91.4208214,48.5675023 C91.1151064,48.087083 90.7925652,47.6189881 90.4522499,47.1648769 L90.3779779,47.1316734 C90.320852,47.1055954 90.2764046,47.0838534 90.2503359,47.0691249 C89.5076143,46.6479581 88.8874158,46.0099271 88.4629696,45.2704558 C88.3198286,45.0211212 88.2025194,44.7608842 88.1072501,44.494722 C87.5017448,43.9005378 86.8682749,43.3336098 86.2028116,42.8019964 C86.1374028,42.7498541 86.0698611,42.7010301 86.0039783,42.6495989 C85.1567449,42.3334275 84.4130754,41.8570374 83.8708461,41.1708933 C83.6442852,41.0305834 83.4160654,40.8931176 83.1859497,40.7584959 C82.4953656,40.7520966 81.7976718,40.5911668 81.1189372,40.312206 C79.8771181,39.8021604 78.8853218,38.7941568 77.6378151,38.32701 C76.3185008,37.8333181 74.9285641,38.9553236 73.5267779,38.752917 C73.1689254,38.7012489 72.8141539,38.5924613 72.4842661,38.4346126 C71.6948578,39.270784 70.8571039,40.0590793 69.9335603,40.7490155 C68.5929171,41.7506199 67.2221764,42.2082862 65.6682437,42.6607384 C64.8982685,43.3914403 64.0361048,44.0998633 62.9964369,44.2039107 C60.590294,46.127484 58.0168373,47.7500547 55.3090083,49.2564904 C54.8734236,49.4987147 54.4404459,49.6079763 54.0295081,49.6108204 C53.1801418,50.144093 52.2530433,50.5543573 51.2735704,50.8382954 C50.9666704,50.9271741 50.650291,50.9458979 50.3391253,50.9077393 L49.489285,51.6000456 L49.489285,51.6000456 C48.897762,52.08165 48.266899,52.3117867 47.6632896,52.3267183 C47.2959577,52.6080492 46.9153543,52.8742115 46.5236126,53.1301823 C46.1039062,53.4048769 45.5595439,53.5186418 45.0125748,53.4854603 C44.1771908,54.3026709 43.093917,54.3884686 42.1867255,54.0120966 C42.0620696,54.0850957 41.9338589,54.1543026 41.78977,54.2223245 C41.5940176,54.3149954 41.3897336,54.3932088 41.1814208,54.4564904 C40.2353633,55.4761076 38.8506403,56.0108022 37.4630734,55.8709663 C36.4269603,56.5056791 35.2209265,56.8358341 34.0419093,56.76165 C33.8620352,57.6651322 33.7132065,58.5719325 33.5873657,59.481814 L33.5744845,60.1483395 C33.573116,60.2563496 33.5728887,60.3405452 33.5743239,60.3960076 L33.5750423,60.4180036 C33.6904556,63.3401003 33.7534945,66.263619 33.8674859,69.1861896 L33.8779497,69.4168577 C34.0076972,71.9701433 34.6358614,76.6254058 30.8830914,76.5240201 C29.4846231,76.4862385 28.0971674,75.4563673 27.0082595,74.609595 L26.8547632,74.49 C26.7713433,74.4250593 26.6857905,74.3584594 26.5997637,74.2906746 C25.7859457,74.1849681 24.9835031,73.9870647 24.1616274,73.9569644 C23.1473172,73.9214129 22.0808696,74.0256974 21.0926281,74.2555971 C19.3483937,74.6608842 17.6610366,75.4551048 16.5234924,76.8935187 C16.4239573,77.019134 16.3315318,77.1518596 16.2438461,77.2845852 C16.1632701,77.5571468 16.0258168,77.8083774 15.8433358,78.0264266 C14.7674086,80.446299 15.3885551,83.6438013 16.5779997,85.8572379 C17.9952678,88.4938773 20.237951,90.3167208 23.0579736,91.234874 L23.1994546,91.2800273 C25.1261701,91.8820328 25.8632039,93.0481222 26.9106924,94.6692707 C27.8918243,96.1908751 29.017519,97.6081951 30.2261597,98.954412 C32.5652348,101.559152 35.8477607,103.70907 37.2078369,107.005643 C37.4827434,107.669508 36.6959421,108.294977 36.086882,108.124567 C33.7004091,107.453829 32.0272713,105.754467 30.2925164,104.064585 C29.0919334,102.89423 27.937326,101.676946 26.8540522,100.398277 C26.6267804,100.503273 26.3767577,100.573902 26.1163074,100.605661 C24.9669139,100.745971 23.7814981,100.687666 22.7752455,100.068122 C22.3114592,100.11031 21.82824,99.9493801 21.4694396,99.6206472 C21.1402627,99.3182224 20.8563507,98.9911486 20.6165185,98.6429809 C20.2520303,98.6749772 19.8941779,98.6846946 19.5526777,98.6280492 C19.3879708,98.6126436 19.2284776,98.5692707 19.0822558,98.4981677 C18.8106671,98.3908022 18.5530608,98.2253692 18.3165464,97.9715314 C17.8373559,97.4572197 17.6536899,96.7305469 17.7420866,96.0398997 C17.6472912,96.0199909 17.5532068,95.9955789 17.4603074,95.9640565 C16.8223347,95.7481404 16.3312948,95.3193892 16.0175222,94.7358706 C15.4560968,94.4208842 14.9506006,93.9937922 14.5678644,93.540155 C14.1017083,92.9881586 13.7500176,92.3660073 13.5433637,91.6789152 C13.3298372,91.579608 13.1224724,91.4646582 12.9238761,91.3300365 C11.500761,90.3670647 10.685995,88.5591522 11.2448135,86.8875205 L11.2637989,86.8350108 C11.2921523,86.7597048 11.3435465,86.631495 11.4064396,86.4867366 C11.3974341,86.3689426 11.3879545,86.2511486 11.3815558,86.1331176 L11.3618858,85.7771285 L11.3618858,85.7771285 L11.0767888,85.6560164 L11.0767888,85.6560164 C9.65485861,85.0905105 8.6936338,84.3271012 8.52276518,82.7270465 C8.48721693,82.3961805 8.61566462,82.0586782 8.81828968,81.7766363 L8.81734172,81.6879945 L8.81734172,81.6879945 C8.72491626,81.6401185 8.63699358,81.5910574 8.55949838,81.5417593 C7.78430944,81.0466454 7.30796282,80.1592799 7.36128521,79.241577 C7.41026825,78.4050379 7.87359854,77.7381973 8.39457603,77.121507 L8.5434128,76.9485346 C8.55576581,76.9345214 8.56957039,76.9188788 8.58438216,76.902051 L8.23996785,76.7936585 C8.0165317,76.7225555 7.81187908,76.6517685 7.66463031,76.569289 C7.09491028,76.2500365 6.61192799,75.8184412 6.31403362,75.27 C6.27066475,75.2019781 6.22658491,75.1351413 6.18677087,75.0626162 C5.80213875,74.3608295 5.75189722,73.4616135 6.00002404,72.7081586 C6.02941059,72.6192799 6.06732873,72.5356153 6.10619482,72.4524248 C5.05870625,72.0831632 4.25223484,71.3199909 4.15506961,69.9135734 C4.11691448,69.360392 4.23801554,68.8093437 4.50130961,68.3374567 C4.44301048,68.0196263 4.43092407,67.6901823 4.46860522,67.3642935 C4.10008831,67.0161258 3.81380637,66.596618 3.68583265,66.0849134 C3.44386753,65.1181495 3.88679878,64.1983136 4.54515246,63.3547949 C4.30152842,62.6878487 4.28896804,61.9353418 4.56719238,61.2638924 C4.46007364,60.9287603 4.39916763,60.5744303 4.39584979,60.2106199 C4.38850315,59.4050228 4.63662997,58.7321513 5.0373773,58.1597721 C4.47405595,57.471021 4.20649609,56.5556882 4.53922775,55.697949 C4.77597913,55.0883592 5.04661984,54.5306746 5.35849653,54.0139927 C5.19473757,53.6210301 5.09946825,53.1809025 5.09946825,52.6881586 C5.09946825,51.8017411 5.43172594,51.0994804 5.94006598,50.5247311 C5.71942981,49.4750137 6.16804879,48.1965816 7.14586278,47.734412 C7.51437969,47.5599727 8.00778947,47.377949 8.55144078,47.236217 C8.75548776,46.59866 8.9685403,45.9637101 9.19344226,45.3332634 C9.54773986,44.3409025 9.92881716,43.3622881 10.3326453,42.3950501 C10.1001597,42.5986418 9.85629872,42.7884868 9.60414309,42.9605561 C8.80667725,43.974485 7.74947215,44.8528441 6.86100277,45.3782954 C5.09970524,46.4201914 3.08530413,45.8020693 2.21579382,44.0588605 C1.39865793,44.6689243 0.418000079,45.0301276 -0.628303554,44.9066454 C-1.81466731,44.7665725 -2.89936306,43.998186 -3.19559852,42.7996263 C-3.23849341,42.6261349 -3.26432514,42.43866 -3.26693201,42.25 C-3.94732561,42.7344485 -4.65923866,43.1802644 -5.44011532,43.4355242 C-6.43475549,43.7607019 -7.45001365,42.9807019 -7.5813052,42.0089608 C-7.63320566,41.6238195 -7.56116119,41.2834731 -7.40782972,40.9959799 L-7.50495984,40.9577599 C-7.52108383,40.951027 -7.53714637,40.9439957 -7.55310359,40.9364904 C-8.07471498,40.6921331 -8.4797281,40.2441841 -8.67216265,39.7275023 C-9.8016492,40.1645488 -11.0946577,39.6523701 -11.4529841,38.4102005 C-11.8795632,36.9336281 -11.9053949,35.4380948 -11.5714783,33.9996809 C-12.7682696,33.1298541 -13.5479613,31.6675023 -13.6806748,30.1387876 C-13.777603,29.0414312 -13.5157309,28.0284503 -13.0543145,27.0917867 C-14.1861709,26.6684868 -14.5753058,25.184804 -14.0373423,24.1158888 C-14.7518622,23.7068095 -15.2177813,22.8395898 -15.2282088,21.9953601 C-15.5474321,21.5118596 -15.6495741,20.8892343 -15.3848581,20.1914768 C-15.0357742,19.2721149 -14.3248091,18.5030173 -13.5107541,17.8998268 C-13.8657627,17.2817046 -14.1295307,16.6076481 -14.2932897,15.9110757 C-14.9677586,15.7136463 -15.5121208,15.1680492 -15.6230314,14.3487056 C-15.7619066,13.3215041 -15.0857788,12.4507293 -14.1757435,12.2208295 C-14.0747864,11.9079763 -13.9515525,11.6019964 -13.7991689,11.3081039 C-14.2494468,10.2415588 -14.1830901,8.89297174 -13.6024686,7.72688241 C-13.0882038,6.69588879 -12.2516349,6.06544211 -11.2444344,5.62934366 C-11.5003818,4.75240656 -11.1614884,3.87783956 -10.3083303,3.22606199 C-9.26676646,2.42947129 -8.12448254,1.82059253 -6.92413647,1.39041933 C-7.03078123,-0.0370920693 -6.43404453,-1.49896992 -5.02372677,-1.99669098 C-4.64667828,-2.1296536 -4.25422554,-2.17871468 -3.85537412,-2.17705561 C-3.56577434,-2.80679125 -3.08255507,-3.31873291 -2.45192903,-3.77189608 C-1.49763613,-4.45732513 0.285738057,-4.03858648 0.814968301,-2.96368773 L0.840787322,-2.90846855 C0.867803996,-2.84755697 0.896953565,-2.79185962 0.924681204,-2.73284412 C1.03132597,-3.2547402 1.28063773,-3.74772106 1.68138505,-4.15182315 C2.68313487,-5.1621969 3.74081395,-5.1811577 4.75867898,-4.74908842 C4.94542581,-5.21220602 5.17151271,-5.65257065 5.44641921,-6.05525068 C6.44437722,-7.51618049 8.09310528,-7.70223336 9.30032401,-6.91109389 C9.78425425,-7.33652689 10.3243507,-7.66454877 10.9217984,-7.85154968 Z M18.056973,80.0007438 C20.0663974,79.2138706 22.5050076,79.4463774 24.4909701,80.2022024 L24.6365167,80.2587872 C26.3906345,80.9524047 29.2404118,82.4951607 29.5838501,84.4683829 C29.7615914,85.4901331 28.7901761,86.3739435 27.8040675,85.8361677 C26.9461696,85.369021 26.4650832,84.4280912 25.7825567,83.7455023 C25.1073769,83.0702607 24.351147,82.5275077 23.5266645,82.0508806 C21.806129,81.0578086 19.9976707,80.6714822 18.056973,80.3849371 C17.8389437,80.3541258 17.8981908,80.0623665 18.056973,80.0007438 Z" id="ðŸ–-Ink" fill="#000000"></path>
                    </g>
                    <g id="facial-hair/*-None" transform="translate(29.211196, 80.109389)"></g>
                    <g id="face/Smile" transform="translate(37.760814, 44.083865)" fill="#000000">
                        <path d="M34.8127554,57.1020091 C33.2162863,56.4520445 31.7918322,55.3678606 30.7504188,53.982886 C30.3883575,53.5014119 30.2944812,52.9929828 30.3704337,52.5279595 C30.455837,52.0050735 30.76581,51.5311704 31.1885437,51.2132909 C31.6125868,50.8944267 32.1430108,50.7371707 32.6558203,50.8173353 C33.1014216,50.8869936 33.5449965,51.1304783 33.8960529,51.6354567 L33.9693973,51.7364404 C34.5885356,52.5723634 35.3953297,53.2582283 36.3146153,53.7003078 C37.2006572,54.1264007 38.1916054,54.3252746 39.2170751,54.2096253 C41.1701484,53.9894475 42.5163047,52.9353366 43.947122,51.5038717 C44.124476,51.3231456 44.3019435,51.136754 44.4802714,50.9473621 C44.592889,50.7756793 44.7491739,50.6653386 44.9226927,50.6074447 C45.1153544,50.5431638 45.3332998,50.5468008 45.5329212,50.6163236 C45.7254569,50.6833787 45.8975743,50.8104452 46.0129836,50.9795623 C46.1226707,51.1402944 46.1848601,51.3388571 46.1646812,51.5672535 C46.033716,53.0507326 45.2565672,54.3746744 44.1526598,55.4142485 C42.9266296,56.5688282 41.301437,57.3675742 39.7713893,57.6477194 C38.0857258,57.9563102 36.3680798,57.7352226 34.8127554,57.1020091 L34.8127554,57.1020091 Z M40.5665861,34.2164632 C42.3599585,35.3043501 45.0925072,37.84109 43.1632513,40.538094 C40.8923326,42.9161315 37.6227224,40.1895491 36.0115152,38.956422 C34.5175283,38.0007416 32.8389503,40.45868 34.2250722,41.574598 C45.8676895,50.1769329 50.5925102,34.5009305 41.4736488,32.937375 C40.4696294,32.7650779 40.0967341,33.8799135 40.5665861,34.2164632 Z M19.7029042,24.2097211 C19.9010483,21.7551799 23.6468906,21.1977976 24.0195115,23.6266764 C24.3531841,25.8024284 23.9603766,27.801134 22.9783579,29.7600219 C22.0400373,31.6314531 19.6816447,30.7583423 19.5032902,29.0542402 C19.2642133,26.7699622 19.5796472,25.7365862 19.7029042,24.2097211 Z M48.21676,23.1230538 C48.7389992,22.4404649 49.493028,21.9745032 50.3964377,22.2378213 C53.2189992,23.0609572 52.3870738,27.0600273 51.395793,29.0065907 C50.8571671,30.0636554 49.1161323,30.3317138 48.3293299,29.4009754 C47.0468872,27.8831632 46.4327396,24.8520419 48.0631043,23.3569827 C48.1072774,23.2797174 48.1564377,23.2017411 48.21676,23.1230538 Z M22.9386022,13.4693984 L23.3844579,13.391518 C24.7637486,13.1534545 26.4787379,12.9247019 27.4544631,14.0313491 C27.9719525,14.618186 28.1500696,15.7089061 27.4544631,16.2706199 C26.2309177,17.2589517 24.8781781,16.8759435 23.4119186,16.959608 C22.2035725,17.0288149 21.0422494,17.2283774 19.8783138,17.5604284 C17.3248278,18.2887603 15.2441832,19.6183865 13.0633181,21.0783683 C12.7771433,21.2698724 12.4850314,20.9046399 12.6215878,20.6375296 C13.8805191,18.1766545 16.3202477,16.155196 18.7640136,14.9229809 C20.0683053,14.265278 21.4956166,13.7196809 22.9386022,13.4693984 Z M45.6437704,12.3670381 L45.985026,12.4367382 C49.6987038,13.2114312 54.5236407,14.7589441 56.2822463,18.3992889 C56.3492573,18.9140465 56.2784539,19.0243694 56.220878,19.0964481 L56.2017082,19.1204334 C56.1542656,19.1819844 56.11641,19.266832 55.8928405,19.3368914 C55.8308,19.3221394 55.7681419,19.3065151 55.7048201,19.2899543 C54.8987061,19.0791278 54.2609139,18.7886846 53.6434635,18.4873151 L52.9739907,18.1581557 C52.1972684,17.7780821 51.4136883,17.4118413 50.5832732,17.1414685 C48.8110962,16.5645992 46.9882598,16.1582307 45.137182,15.9412392 C44.7359752,15.8942481 44.3496381,15.7591142 44.044846,15.5275167 C43.7555371,15.3076842 43.5345237,15.003321 43.433754,14.598756 C43.3031565,14.0751843 43.3406874,13.6787976 43.6221743,13.2064592 C43.8338352,12.8517432 44.1366879,12.6058787 44.4844395,12.4646949 C44.8389572,12.3207642 45.2425721,12.2868326 45.6437704,12.3670381 Z" id="ðŸ–-Ink"></path>
                    </g>
                    <g id="mask/respirator" transform="translate(5.462256, 66.599818)">
                        <path d="M81.7756362,6.42657429 C79.6773493,4.25319234 77.5710319,2.04828806 74.8862502,0.546355515 C75.0044341,-0.0973637192 74.7437409,-0.837072015 73.977212,-1.14518505 C66.5457639,-3.91820237 61.8215183,4.06287329 56.4394691,7.62868915 C55.1817786,8.30321969 53.9204824,9.08132361 52.516142,9.34487876 C49.5301084,10.2149426 46.9963515,12.0164558 45.1959109,14.3834749 C44.2229944,15.3161094 42.507866,16.8723172 42.031479,18.1403209 C41.7398669,18.6579508 15.6036829,6.24857976 9.65546477,4.86775934 C6.83865041,3.92754057 5.32203049,6.5850258 8.89225431,7.9488897 C18.27397,11.532806 36.6428944,19.5551343 40.7439504,21.8668295 C39.9558934,24.2935752 39.7205305,27.5100383 40.4879952,29.9100018 C39.8429646,33.6455169 41.0951721,37.0677046 43.5702905,39.7497101 C44.0947128,40.5112233 44.8964617,41.0601386 45.4182682,41.7209225 C47.3137003,46.6654257 51.8621348,49.056973 57.1847741,51.4203209 C65.6541916,55.1808951 73.037185,55.9343665 77.6784934,54.2871942 C89.7271195,49.696784 96.7200802,36.2083063 94.4670765,23.9183883 C92.3480468,15.260649 92.7854172,7.66613674 81.7756362,6.42657429 Z" id="ðŸŽ¨-Color" fill="#9DDADB"></path>
                        <path d="M55.6381733,6.37016591 C62.8856282,2.3329371 64.1095552,-5.89557703 74.6205819,-1.71258706 C77.9046307,-0.388649043 79.0581393,1.57118687 81.2490355,4.01926345 C82.3836737,5.04836098 83.8120574,5.56006563 85.2215573,6.10803282 C90.5826032,7.88418596 93.7262675,12.9303665 94.9254514,18.2310957 C98.0625084,29.2339042 94.7779599,42.1233677 86.7605914,50.130143 C86.8735089,50.3330044 86.8515124,50.625284 86.6067623,50.7600583 C86.1563838,51.0079802 85.7087057,51.2619962 85.2626763,51.5198317 C82.4584229,53.937444 76.7690065,57.1165399 72.551548,57.1165399 C63.1477135,57.1165399 54.063449,53.3092421 48.5120355,48.422618 C41.4067299,42.7035661 36.9256557,30.7708222 39.2310934,22.1827639 C26.0190248,15.9750351 13.7801685,11.2606616 8.66442286,9.21587459 C7.40203003,7.89443935 7.39053908,7.40843436 8.62995001,7.75785962 C20.641307,11.1442034 44.2928773,22.1578778 44.5774358,22.1694913 C44.7461776,22.1763646 45.3664518,20.8237484 45.4885925,20.2425998 C44.935434,20.1822097 12.311285,6.13731996 8.24821711,4.83427796 L8.03325349,4.76584503 C6.10085906,4.15672926 6.58364436,3.68270921 8.06866971,3.76898086 C11.0797593,3.94436828 36.6081841,15.7702206 41.5759452,16.9552707 C43.795318,11.9780602 50.0997503,9.39441386 55.6381733,6.37016591 Z M71.4633507,-0.685859617 C67.4286854,-1.87090975 64.4625183,1.0518979 62.3043504,4.11525251 C57.2135862,10.4150999 47.9276454,10.6142224 44.0930915,18.0994381 L43.9785715,18.3285068 L45.4964716,18.7835661 L45.537933,18.7151277 C45.6575267,18.5293581 46.0138706,18.0575397 46.3159432,18.4870665 C47.8855854,20.170608 45.4281082,25.7599329 44.1376548,23.2981801 L44.0989127,23.2211048 L41.9912304,22.6420893 C38.1841296,38.0395913 52.7116058,51.9030636 67.3282959,54.2509388 C67.3282959,54.2509388 73.4264293,54.3483383 75.8705115,53.7593254 C77.6726072,53.3251231 79.2294089,52.4851595 80.8929755,51.6515953 C82.5460651,50.8231324 83.9115479,49.5406586 85.5130279,48.6643712 C90.0881844,44.1368627 93.096646,37.9213335 93.9148551,31.474031 C94.7159327,23.7430009 93.9658418,13.8997375 87.2432257,8.99694804 C85.0298562,7.59621878 82.3013642,7.21984686 80.2782182,5.48777758 C77.8635849,2.82473291 75.0374116,0.116656335 71.4633507,-0.685859617 Z M64.20738,35.4828186 C64.1396224,35.3718979 64.2959805,35.2654804 64.3846268,35.3481969 C65.7994317,36.6700018 67.1668027,38.045608 68.4879043,39.4619799 C68.5576142,39.439938 68.6368081,39.4188441 68.7388634,39.3939581 C69.2239976,39.2756625 69.6433439,39.7814429 69.4086615,40.2270874 L69.3528154,40.3269383 C68.9997996,40.9266101 68.188234,41.4545017 67.7051286,40.7316427 C66.4752156,39.0273036 65.3052219,37.2753254 64.20738,35.4828186 Z M46.7227955,38.65233 L46.7214805,38.6002574 C46.6944874,38.0852777 46.2751484,36.78635 47.1276177,36.9854385 C48.1139805,37.5580547 48.4790476,39.05501 48.5344469,40.118237 C48.5952612,41.2852744 46.6561558,41.299969 46.7062535,40.118237 C46.7271343,39.6290483 46.7658111,39.1408077 46.7227955,38.65233 Z M87.679089,35.0608696 C87.8160708,35.0350356 87.8892493,35.2061568 87.7701704,35.2841331 C86.2068303,36.1605962 86.3377994,37.9275059 86.0855587,39.4000492 C84.2904234,40.5941057 84.4729957,35.4782443 87.679089,35.0608696 Z M42.8210537,28.8090902 C57.8754934,30.3240583 74.0698934,34.8089991 89.4666244,30.2486892 C90.3996063,29.9960365 90.7696515,31.4358724 89.8395819,31.6847329 C74.3198348,35.61033 57.8403535,33.2653528 42.8210537,28.8090902 Z M83.650029,22.6031723 C84.1158632,22.4950957 84.5549467,24.7900638 85.2739182,25.2171559 C85.6311576,25.9348222 88.4653996,26.566691 87.2710595,27.4467092 C85.2328141,27.8716682 82.9974362,24.4328897 83.650029,22.6031723 Z M70.4251525,23.1464941 C70.7748501,23.1396208 71.0143449,23.4072051 71.1287903,23.711526 C71.441094,24.6052908 70.1042333,24.4630848 69.6063106,24.7602954 C67.499925,26.2079526 65.0673303,27.375464 62.4789922,27.4296144 C62.3172085,27.4328204 62.315738,27.2192744 62.4479206,27.1676062 L62.8992723,26.9912351 C64.3231352,26.4321539 65.6951627,25.8591867 67.0048948,25.0316718 C68.0651457,24.3623555 69.0852541,23.1166308 70.4251525,23.1464941 Z M62.4716173,7.41450319 C62.1155027,4.8547949 70.218446,-1.60823154 72.7019502,1.17023701 C73.3439785,1.88553327 72.5016874,2.94757521 71.6546362,2.4960711 C68.192955,1.58974476 64.8820813,5.35559708 62.4716173,7.41450319 Z" id="ðŸ–-Ink" fill="#000000"></path>
                    </g>
                </g>
            </g>
        </g>
    </g>
</svg>