<?xml version="1.0" encoding="UTF-8"?>
<svg width="222px" height="593px" viewBox="0 0 222 593" version="1.1" xmlns="http://www.w3.org/2000/svg" xmlns:xlink="http://www.w3.org/1999/xlink">
    <!-- Generator: Sketch 62 (91390) - https://sketch.com -->
    <title>pose-mask-2</title>
    <desc>Created with Sketch.</desc>
    <g id="Introduction" stroke="none" stroke-width="1" fill="none" fill-rule="evenodd">
        <g id="poses-covid-10" transform="translate(-565.000000, -239.000000)">
            <g id="a-person/standing" transform="translate(570.000000, 192.000000)">
                <g id="pose/standing/crossed_arms-1" transform="translate(-24.938931, 130.614403)">
                    <path d="M237.75145,493.962872 C238.995717,488.935708 237.165047,484.925837 231.90891,481.965029 C231.45661,480.768893 221.297922,476.890238 213.225771,471.19678 C205.973826,466.08183 200.713602,459.059879 200.49307,458.670596 C199.405982,456.142795 198.800478,454.308408 198.676559,453.167435 C197.785084,444.95925 198.300725,439.5786 197.7502,437.025486 C201.459299,436.53877 210.577879,195.750302 209.103184,187.769862 C211.518551,187.239176 214.080047,186.679585 216.382673,185.318163 C216.566314,185.270937 216.264368,184.737401 216.273024,184.637045 C222.049787,173.30048 213.188016,134.751966 207.633848,124.07942 C212.044535,123.964611 217.85407,123.364918 220.58478,119.683298 C221.877482,119.25826 222.692429,118.517295 223.319818,117.326865 C224.042223,116.192822 224.712688,115.003003 225.316375,113.783464 C228.255047,107.680882 230.067963,100.904714 229.087925,94.1810648 C229.274864,94.1218282 230.236765,94.1157214 230.284581,93.8466126 C230.378978,92.1936901 230.075383,90.7372048 229.578665,89.1760887 C224.532139,71.5915989 218.457345,54.2790678 210.427421,37.724194 C206.403597,28.8635523 198.078528,25.6301754 189.452543,22.3037706 C185.302787,20.6738506 181.151177,18.7927352 176.820253,17.7252567 C176.765635,17.4223566 177.024299,16.500832 176.456681,16.5759463 C175.755711,16.7221038 175.894009,17.8488188 175.634108,18.481082 C165.619581,10.2860877 171.970352,6.06319638 165.931833,1.57506396 C159.683497,-1.66706616 152.063314,-1.7987707 145.174192,-1.09709289 C142.632688,-1.02360705 140.599032,0.121632113 139.999673,2.67898006 C137.81494,7.97036768 132.695864,11.8649136 127.111192,13.0588041 C126.649719,12.2376355 125.380925,9.88262802 124.670268,10.626036 C116.604688,10.9012517 104.375749,13.8610415 96.8264668,16.0753877 C89.2479172,18.0102434 81.5811538,21.5424492 79.5984057,29.7740846 C76.0008103,44.4423469 81.7243981,104.724756 91.112566,116.334094 L91.4178103,116.339183 C93.0821233,118.041775 95.3443523,119.289812 97.9079095,120.126248 C97.8504057,125.553615 96.1391004,130.852535 95.2874668,136.160411 C93.3700546,145.786649 91.8963905,155.423268 89.760505,165.100804 C89.751024,166.179071 85.6872149,180.933644 89.6937263,177.975075 C90.5206271,178.381792 91.5336424,178.824539 92.4242302,179.204385 C88.1677111,188.901666 86.2200011,204.54784 86.5217416,216.527457 C86.5971767,223.661283 86.3020317,229.910836 84.7011996,237.216469 C72.8576805,299.116177 62.4154821,437.566757 62.1700088,439.417542 C61.9443218,441.186495 63.4429933,450.788937 62.1700088,453.322225 C61.0402606,455.570468 56.2215526,454.242853 55.2997446,455.110304 C52.9058133,459.007699 54.0018408,461.490978 52.0382607,465.382064 C51.0312225,466.282825 48.7797053,468.2531 48.0410183,469.638136 C46.545713,471.077522 21.7808943,487.322551 22.7846347,489.787481 C22.7846347,489.787481 22.6716882,490.9702 22.6337645,491.227095 C20.5224057,503.507372 24.0381767,503.405388 35.4132149,505.212 C52.029963,508.142069 64.4487263,502.504691 78.492024,494.972901 C83.1586958,491.826852 89.7916271,485.820491 87.6326576,478.706614 C87.5730927,478.271806 86.2924806,470.789278 85.7846333,466.989795 C86.7021791,464.961356 85.3854101,464.073616 81.8343261,464.326576 C82.7102803,463.36556 84.6346271,450.913903 83.9781767,449.26668 C83.5612225,445.02384 84.2086042,441.172652 84.003734,436.805843 C86.2350469,436.971339 125.409161,251.318015 149.98081,239.781145 C150.132711,241.014323 149.837978,243.309687 151.475291,243.539712 C159.075482,302.81164 177.348917,435.594039 178.187978,435.826507 C176.928665,442.595143 176.966795,458.286176 176.943299,465.00555 C176.750589,465.185092 175.865978,465.974505 175.723558,466.166871 C175.693879,466.116794 175.11781,466.69206 175.088337,466.70692 L175.010429,466.5286 C172.422139,472.363091 168.649761,478.37195 171.983952,484.0898 C169.509433,483.909647 169.906604,488.669799 169.795925,490.860125 C171.205378,495.14666 211.272871,506.712266 220.226566,507.261476 C223.168329,507.774655 236.86892,503.418535 239.505439,502.792582 C242.92166,502.154009 239.570343,495.806736 237.75145,493.962872 Z" id="âœ‹-Skin" fill="#D08B5B"></path>
                    <path d="M175.983737,465.922749 C175.223828,468.763329 176.604435,470.183619 180.125558,470.183619 C185.407242,470.183619 188.755389,462.070162 191.367442,461.140766 L192.382994,460.772543 C193.909898,460.212514 196.500108,459.2436 200.153623,457.865802 C200.261017,458.125904 200.374163,458.394102 200.49307,458.670596 C200.713602,459.059879 205.973826,466.08183 213.225771,471.19678 C221.297922,476.890238 231.45661,480.768893 231.90891,481.965029 C237.165047,484.925837 238.995717,488.935708 237.75145,493.962872 C239.570343,495.806736 242.92166,502.154009 239.505439,502.792582 C236.86892,503.418535 223.168329,507.774655 220.226566,507.261476 C211.272871,506.712266 171.205378,495.14666 169.795925,490.860125 L169.804606,490.65626 C169.885358,488.388636 169.583668,483.915052 171.983952,484.0898 C168.716445,478.486307 172.274086,472.603329 174.853777,466.878875 L175.010429,466.5286 L175.088337,466.70692 C175.11781,466.69206 175.693879,466.116794 175.723558,466.166871 C175.759924,466.117752 175.844679,466.029707 175.953949,465.922827 L175.983737,465.922749 Z M69.8375438,460.675142 L69.873503,460.797199 C70.4825184,462.89832 72.1487875,470.183619 74.1147355,470.183619 C75.4521151,470.183619 77.1021212,469.355286 79.0647538,467.69862 L79.2914195,467.489685 C81.014748,465.910252 82.4059134,464.846047 83.4649158,464.297071 C85.7715101,464.411852 86.5447392,465.309412 85.7846333,466.989795 L85.8491566,467.462725 C86.3929759,471.376604 87.5754753,478.289198 87.6326576,478.706614 C89.7916271,485.820491 83.1586958,491.826852 78.492024,494.972901 C64.4487263,502.504691 52.029963,508.142069 35.4132149,505.212 L34.4106212,505.054172 C23.8322949,503.400363 20.5857465,503.138964 22.6337645,491.227095 L22.648015,491.117654 C22.6942149,490.734311 22.7846347,489.787481 22.7846347,489.787481 C21.7808943,487.322551 46.545713,471.077522 48.0410183,469.638136 C48.7797053,468.2531 51.0312225,466.282825 52.0382607,465.382064 C54.0018408,461.490978 52.9058133,459.007699 55.2997446,455.110304 C55.9472073,454.501021 58.5171762,454.974657 60.3810328,454.531497 C63.5243776,455.045902 69.2784848,458.81243 69.8375438,460.675142 Z" id="ðŸ‘Ÿ-Shoes" fill="#FFFFFF"></path>
                    <path d="M126.874335,12.6376381 L127.111192,13.0588041 C132.797237,29.6424058 142.11673,38.5671294 155.069671,39.8329749 C168.022612,41.0988205 174.705017,36.9461546 175.116887,27.3749775 L176.556633,16.5734297 C176.992192,16.6172931 176.769163,17.4419209 176.820253,17.7252567 C181.151177,18.7927352 185.302787,20.6738506 189.452543,22.3037706 L190.743684,22.8027487 C198.900282,25.9675812 206.604788,29.3065844 210.427421,37.724194 C218.457345,54.2790678 224.532139,71.5915989 229.578665,89.1760887 C230.075383,90.7372048 230.378978,92.1936901 230.284581,93.8466126 C230.236765,94.1157214 229.274864,94.1218282 229.087925,94.1810648 C230.067963,100.904714 228.255047,107.680882 225.316375,113.783464 C224.712688,115.003003 224.042223,116.192822 223.319818,117.326865 C222.692429,118.517295 221.877482,119.25826 220.58478,119.683298 C217.85407,123.364918 212.044535,123.964611 207.633848,124.07942 C213.188016,134.751966 222.049787,173.30048 216.273024,184.637045 C216.264368,184.737401 216.389748,187.633722 216.206107,187.680948 C213.903481,189.04237 209.758878,189.828476 207.343511,190.359161 L203.015267,190.977211 C203.171047,192.041037 209.299481,192.841876 209.217028,198.964527 L89.6564885,202.514129 C90.5102853,194.000813 90.4509261,188.291063 93.1603053,182.118505 L89.8625954,180.882407 C89.0746495,180.54315 90.4024984,178.323689 89.6937263,177.975075 C85.6872149,180.933644 89.751024,166.179071 89.760505,165.100804 C91.8963905,155.423268 93.3700546,145.786649 95.2874668,136.160411 C96.1391004,130.852535 97.8504057,125.553615 97.9079095,120.126248 C95.3977597,119.307238 93.1765136,118.093597 91.5226057,116.445003 L91.4178103,116.339183 L91.112566,116.334094 C81.7243981,104.724756 76.0008103,44.4423469 79.5984057,29.7740846 C81.5811538,21.5424492 89.2479172,18.0102434 96.8264668,16.0753877 L97.2849686,15.9416598 C104.863241,13.7437237 116.766,10.8957474 124.670268,10.626036 C125.281679,9.9864479 126.30622,11.6402923 126.874335,12.6376381 Z M136.994828,77.5015954 C130.836214,77.5015954 124.291013,78.2281982 117.359225,79.6814038 L116.270278,81.2139938 L117.359225,90.4451812 C121.623524,89.9998316 126.115274,90.596906 130.834472,92.2364042 L131.059368,92.3152635 C135.86081,94.0144037 139.292692,95.3187148 141.355015,96.2281967 L148.830584,102.519365 L146.433197,113.753053 L147.011561,113.779934 C156.374486,114.200814 161.636618,113.730845 162.797958,112.370027 C163.982998,110.981438 164.508701,109.576338 164.375069,108.154726 L164.145159,107.606026 C160.432635,98.708774 158.810368,92.9884924 159.278358,90.4451812 C159.755898,87.8499658 159.755898,85.8160173 159.278358,84.3433356 L158.758056,84.0724027 C150.284679,79.6918645 143.030269,77.5015954 136.994828,77.5015954 Z" id="ðŸ‘•-Top" fill="#9DDADB"></path>
                    <path d="M141.666851,1.23771941 C142.96367,1.19814362 143.211304,2.82935633 142.324823,3.50569917 L142.288263,3.53258887 C141.532469,4.06843755 141.177965,4.54763172 140.767813,5.40259981 C138.767958,10.6933072 133.128461,13.7277229 127.612835,12.6041094 C129.528599,16.1764339 130.815118,19.6338013 132.732942,23.145763 C141.563385,41.3289772 170.563446,47.2443263 174.031813,22.2957393 C168.717965,21.2693655 165.568858,9.32453418 168.978484,5.76086235 L169.070654,6.19459567 C170.053419,10.8731554 170.725737,15.6629565 174.273782,19.19066 C174.381782,19.2221805 174.485042,19.2318633 174.586858,19.2318633 C174.722065,18.5913582 174.877881,17.9578578 175.071828,17.3365123 C175.544019,15.8204376 177.907446,16.1055643 177.84108,17.7456609 C184.917347,19.9010046 191.717637,22.9539617 198.485981,25.9032926 C204.11311,28.356948 208.714034,32.7459216 211.335301,38.3038323 C218.684454,53.5068131 224.295919,69.5550793 229.188484,85.6993491 C229.516194,87.8810629 233.174385,95.9894567 230.222935,96.7690228 C230.946988,103.448487 229.095324,110.204795 226.234561,116.202963 C224.907232,118.456576 223.970271,121.581021 221.30366,122.520868 C218.535026,125.996983 213.472423,126.898923 209.257538,127.144494 C214.926301,140.484057 222.628721,174.462755 217.419988,187.718057 C217.882286,189.89256 211.880248,190.92532 210.274263,191.422232 C211.568614,199.154027 211.286248,207.118622 210.72811,214.906042 C205.501034,281.328204 204.509042,348.115222 210.008385,414.554483 C210.331973,418.695413 210.6805,422.836343 211.049225,426.975212 L211.27248,429.456886 C211.56502,432.761389 211.813634,436.052707 211.737622,439.383581 C211.713095,440.539333 210.754492,441.233608 209.796095,441.293353 C206.577324,443.346306 202.254026,443.363406 198.530294,443.858257 C199.187981,447.446857 199.5565,453.045353 200.707606,456.064729 C203.103805,455.438851 204.648164,457.671863 202.260003,458.93289 C205.199706,460.56351 206.712118,463.684864 209.065446,465.875849 C215.529576,463.251612 216.73324,467.172722 211.450927,468.067039 C212.88708,469.265437 214.411652,470.372363 215.987752,471.423665 L216.099749,471.407981 C217.963295,471.12546 221.476452,469.584783 222.358721,471.624943 C222.754652,473.101668 220.930813,473.570974 219.609668,473.750414 C220.782003,474.489395 221.958255,475.224255 223.134713,475.958086 C224.164217,475.505056 225.185271,474.939335 226.234973,474.57654 C228.819141,474.001548 229.042148,477.353641 225.669828,477.542764 C227.782423,479.10272 230.698423,478.204077 232.048629,480.405568 C236.989423,482.399601 239.32482,488.422078 238.171652,493.234828 C239.906248,494.777067 241.124339,497.088571 241.26511,499.4112 C241.599416,501.899672 239.618316,504.240636 236.934393,504.895768 C233.911423,505.901541 230.844553,506.819756 227.786133,507.682758 L227.465614,507.792816 C224.944804,508.651629 222.192338,509.420923 219.570713,509.270939 C204.024072,508.343865 183.292606,501.960447 170.84911,494.017484 C167.745553,491.685378 167.202874,485.918567 171.474232,484.074308 C169.505912,480.50734 170.446377,477.915448 171.280698,474.030596 C171.860065,471.4968 172.646774,468.896873 174.070767,466.552613 C174.19711,466.344536 174.500912,466.407165 174.517813,466.611945 C174.704236,469.262847 174.456769,471.974857 174.259226,474.643977 L174.237507,474.940365 C174.060668,477.402467 173.661645,478.308321 174.329637,480.638778 C175.92882,486.585442 191.345614,489.555169 197.403919,492.007588 C202.159835,493.479987 206.988301,494.798904 211.884576,495.958365 L212.243686,496.036181 C216.37701,496.945316 220.632829,498.321062 224.986171,497.606702 C227.243866,495.964957 230.632263,496.427052 232.850591,494.5488 C236.196736,490.936921 233.565782,485.642505 231.221316,482.360252 C228.954101,483.083301 227.016103,481.137781 225.346931,480.108885 L225.285232,480.071203 C223.580935,478.993531 221.880965,479.748376 220.173988,478.673382 L219.788398,478.746287 C213.51745,479.941194 208.662165,481.303762 218.663843,477.728385 C217.016431,476.699127 215.364897,475.661216 213.764683,474.569535 C210.479958,474.965499 206.881126,476.68965 203.828271,476.846222 C205.882744,474.932742 208.685591,473.8732 211.326645,472.820868 C209.789087,471.653785 208.325935,470.404913 207.017156,469.030784 L205.766942,469.342548 C198.086226,471.249246 195.066977,471.800098 205.407255,467.150678 C203.373599,464.893562 203.04321,461.551152 200.807362,459.427947 C197.211622,460.180937 193.907729,461.761701 190.979156,463.803118 C189.794866,464.650669 188.902835,465.709593 187.964843,466.76996 C183.520148,472.485679 176.63453,473.367635 174.531003,465.953723 C174.49466,465.8017 174.733164,465.707196 174.800267,465.835757 L174.808011,465.853805 C175.814161,468.130772 179.060348,469.977052 181.771776,468.561894 L181.853774,468.518009 C184.505339,467.136669 185.737034,464.318365 187.825721,462.398498 C190.644439,459.854607 194.177523,458.149203 197.822935,456.869017 C196.939148,453.640946 196.640912,447.76474 196.741286,443.977747 C190.603423,444.267612 184.42537,443.971772 178.395713,442.805513 C179.361736,449.845712 178.726721,459.007468 179.170675,465.285818 C179.812492,467.392335 175.908003,468.708986 175.492904,466.610503 C175.263507,459.81773 175.928202,450.019384 176.963271,442.438804 L176.530192,442.333563 C176.12133,442.23189 175.691866,442.109315 175.34121,441.911402 C171.471759,442.349393 172.527232,432.520968 171.877584,429.75664 C167.512034,368.800093 158.316164,308.39052 150.50121,247.835705 C149.4175,247.4212 149.225202,246.091364 149.046095,244.980317 C139.198309,251.643506 137.235759,264.959376 132.827545,275.281211 C113.575721,328.725781 104.974057,385.110618 91.6311103,440.145841 L91.7044811,440.165188 C91.7568799,440.18078 91.7573434,440.18855 91.6478313,440.180723 L91.6226599,440.178804 L91.6226599,440.182924 C92.4470874,440.292113 93.0965302,441.157382 92.5934233,441.963112 C91.0913164,444.993407 86.9273393,443.920886 84.186324,443.728467 C84.452408,448.395562 83.4525836,458.465644 84.0861561,462.62388 C87.4673393,462.686303 87.6823088,466.406341 88.1299729,468.617721 L88.1647507,468.84482 C88.7622574,472.622592 90.7702967,479.706258 89.2701561,482.760541 C91.5890645,485.518689 89.9210416,489.265922 87.5153622,491.149118 C84.9392324,493.051679 81.7326218,494.166846 78.8205378,495.632859 C65.114637,501.167696 51.8547515,511.839345 35.0591027,507.732614 L34.3278931,507.578548 C22.5563875,505.091989 19.174339,503.98731 21.5121103,492.341541 C20.5520645,489.974824 20.5456752,487.382932 21.8964996,485.289805 C24.3054767,482.199559 28.3530034,480.508988 31.5736294,478.161225 C37.0286599,474.497635 42.8344843,471.293462 48.1625531,467.479686 C47.9644843,467.308075 48.2394309,467.244828 48.4010187,467.273876 C52.1612324,464.331138 51.809408,459.236764 54.4327363,455.602016 C55.0887744,453.728915 58.4015302,453.272383 60.5831714,453.531964 C59.901576,450.041015 63.2312324,434.14994 63.6541637,445.374538 L63.6540158,445.535635 C63.6622493,447.268585 63.9461186,453.053459 63.4356905,454.186272 C70.6770492,456.39827 72.2385149,463.351942 73.7882324,468.967125 L73.8879878,468.993985 C74.3826444,469.121494 75.0452317,469.224738 75.2926065,469.71002 C77.6212019,468.230822 78.2718813,465.318574 80.5271027,463.751613 C79.8945607,463.257174 79.8611714,462.313413 80.1839347,461.581643 C81.2342553,457.732432 81.8639118,447.935116 83.4505225,443.635759 C75.9958431,442.519356 68.4014233,441.951369 61.1209042,439.925404 C60.1748737,440.854538 58.2333469,440.524912 58.3096065,438.847938 C60.5644156,402.308662 64.4425225,365.882489 69.3311714,329.605883 C73.3506676,295.649435 80.4217821,262.125209 85.3471179,228.346552 L85.3888519,223.710458 C85.5217914,209.773922 85.8942492,195.628778 91.0929653,182.507902 C90.635408,182.308066 90.1819729,182.102049 89.734721,181.885732 C84.097492,184.22134 88.5388889,170.028664 88.7462324,167.47097 C91.5165149,152.641085 94.779805,137.814084 96.8604538,122.891697 C94.6794309,122.103067 92.6655607,120.984397 90.9855836,119.358722 C80.8001943,111.071094 74.8956447,43.9525962 78.5975302,30.4570793 C80.5297821,21.9679672 88.7182019,17.797577 96.5224385,15.8787402 L97.6751651,15.5531397 C106.391291,13.1022588 115.258682,10.8814263 124.333469,10.3356627 C124.656645,10.0427074 125.607003,10.1269681 125.731492,10.3713036 C126.299935,10.7134968 126.839523,11.381608 127.295843,12.0874202 C139.891858,10.640361 136.484912,2.41021148 141.666851,1.23771941 Z M171.801118,484.610981 C170.037668,488.614498 172.380897,491.65942 176.3095,493.342574 C189.913996,499.647706 205.102217,504.71468 220.694408,505.682339 C225.451973,504.532149 230.164194,502.631442 234.98524,501.4555 L235.193201,501.418029 C236.890236,501.106518 237.687452,500.794362 237.54179,499.032129 L237.60367,498.319681 C237.712429,497.053633 237.804326,495.790114 237.716156,494.524696 C236.233011,498.069827 231.793675,500.018536 227.901965,500.734443 C221.731332,503.66173 214.820774,500.684999 208.758347,499.431183 C198.911385,496.438383 177.607561,491.735852 171.801118,484.610981 Z M86.3323088,484.694624 L86.1286529,484.757029 C84.3625714,485.303232 82.566866,485.972345 80.587492,485.479752 C71.7455072,488.475849 63.1391027,491.874295 54.5974156,495.412421 C45.3811408,499.823026 30.541034,504.950775 22.5543927,494.291692 C23.7026141,499.882565 22.0793164,501.794603 29.7046523,503.189335 C41.80395,507.133107 51.525805,505.113734 61.5656828,499.724963 C68.9214309,496.14996 76.8330492,493.307964 83.9530111,489.4227 L84.0491061,489.355084 C85.4496253,488.355571 87.1394186,486.53248 86.3323088,484.694624 Z M67.9677744,460.626345 C65.6591714,456.369015 59.4466981,454.031141 54.8264004,455.600574 C54.3562706,459.706481 55.5741561,464.303119 52.9660798,467.868233 C55.2755072,468.272943 57.5776222,468.739162 59.8762627,469.221867 L61.9797477,469.666305 C63.0121237,469.89235 64.3257973,470.279346 64.1533546,471.373809 C63.962576,472.58371 62.3741324,472.214053 61.3170298,471.909678 L60.9073775,471.78955 C57.9386141,470.91604 54.9747973,470.025019 52.0437515,469.026664 C50.4987744,470.726299 48.424721,472.059431 46.413324,473.346828 L47.2475851,473.441649 C50.1704641,473.769679 53.121574,474.067607 56.0094538,474.659564 C57.2712401,475.033278 56.9989729,476.752691 55.7079195,476.615072 C52.2601637,475.716016 48.8214767,474.699531 45.3145683,474.054494 C43.6003775,475.187378 41.8942248,476.326031 40.1759118,477.453559 C43.5554462,477.942436 46.9498202,477.986523 50.3277057,478.27474 C52.5147057,478.47643 52.5140874,481.46408 50.3274996,481.291644 C46.3815836,480.930086 42.4381408,479.763003 38.6812248,478.437081 L36.7012186,479.738355 C34.390235,481.256149 32.0741256,482.769995 29.73495,484.251688 C28.3274462,485.148066 26.5095836,486.000768 25.5260416,487.298671 C22.4200111,492.31311 30.1811714,497.105052 35.4257668,497.025736 C43.391179,497.110408 50.0253469,492.976277 57.0028889,490.501608 C60.8626523,489.546516 80.4862935,479.726332 82.2720034,482.311014 C83.3946676,481.771869 84.9561332,481.577389 85.7644843,480.689253 C85.9281332,476.583139 85.0626905,472.281311 84.3363698,468.139969 C84.1883851,467.417057 83.8347057,466.55014 83.7951332,465.808069 C80.5262782,467.013059 79.5954996,471.573644 75.2928126,471.18551 C74.6194614,472.260915 72.5456141,471.759883 71.6098889,470.905945 C70.5915149,469.977017 70.4637286,468.668607 70.2207286,467.503172 L70.108115,466.967736 C69.6512456,464.821004 69.1035818,462.621598 67.9677744,460.626345 Z M164.830171,112.370027 L164.304348,112.502909 C158.950258,113.842074 153.349338,114.810861 147.846965,114.451205 C146.895782,118.048458 147.391675,126.604937 143.522843,127.972268 C142.20108,128.470004 140.212148,128.066005 139.606194,126.71701 C131.603683,126.574859 123.54511,125.859982 115.542187,125.38429 C109.517889,124.910658 103.267492,124.928788 97.468263,123.101422 C98.1708813,126.638106 98.4128508,130.110306 98.0195989,133.727336 C96.666752,149.154135 92.2135085,164.184471 90.7209164,179.545036 L90.6521027,180.276744 L90.6088202,180.252022 C90.6088202,180.280864 90.6067592,180.309706 90.604492,180.338549 C91.0393775,180.464219 91.474263,180.596069 91.9070874,180.72998 C92.0616676,180.651694 92.2721027,180.72792 92.3831943,180.876252 C124.254736,190.785435 158.0845,195.089118 191.302126,190.727956 C197.119492,190.00216 202.894813,188.985263 208.62953,187.779861 C208.579446,187.267087 209.362034,187.132764 209.499301,187.617108 C210.772011,187.395229 212.044515,187.152335 213.310423,186.988758 C213.157698,186.558184 213.130904,186.092587 213.287752,185.672314 C215.756294,178.268084 214.628477,169.826356 213.849805,162.147506 C212.856782,150.358011 210.381645,138.793692 208.382202,127.163242 C198.91695,126.733285 189.508377,125.188986 179.99737,125.382436 C178.995484,127.978242 175.502797,130.158514 172.768377,128.674372 C170.837568,127.631929 170.265828,125.359568 169.490866,123.481728 C167.958874,119.769107 166.394523,116.069464 164.830171,112.370027 Z M124.724454,10.6875387 C114.78495,13.6226545 104.601622,15.7186654 94.7525989,18.9761969 C86.5672706,21.0149353 80.9795072,26.1484521 80.6344843,34.9033254 C79.9590721,53.6576171 82.0160187,72.5066764 85.1208126,90.9884084 L85.2828867,91.8229762 C87.0054864,100.73014 88.5496565,109.79313 91.8027973,118.282904 C96.5519118,120.489958 101.94408,121.118514 107.139828,121.373974 C114.721881,121.759637 122.303523,122.155807 129.878981,122.651688 L135.818568,123.036733 C137.541828,123.148394 139.938026,122.853378 141.232996,124.192897 C141.347772,124.381788 141.5812,124.358104 141.758698,124.47527 L141.7934,124.500686 C141.9824,124.629034 142.172843,124.940737 142.445316,124.880374 C142.888409,124.74293 143.05843,123.859858 143.162481,123.438092 L143.172049,123.39994 C143.748942,121.143854 144.166927,118.839149 144.699713,116.570908 C145.914095,112.107562 146.437194,107.389581 148.282881,103.117418 C145.640797,101.431998 143.152263,99.5051267 141.018232,97.2187566 L138.445077,96.3129885 C132.289208,94.1538633 126.063993,92.062065 119.647835,90.7679708 C119.49408,92.1756809 117.472996,92.9805871 116.719263,91.5073637 C115.469843,87.7541568 115.238179,83.6791522 114.376652,79.8107821 C112.420904,68.2695369 110.097255,56.770319 108.744576,45.1371905 C112.473874,55.4404831 114.406126,68.0865943 117.256377,79.2219872 C117.388492,79.1451431 117.571309,79.1898487 117.576874,79.3721732 C127.668484,75.5573674 138.872454,75.7127037 148.831538,79.7609262 C151.326255,80.7611358 153.859927,81.6591613 156.341454,82.6906855 C157.188965,83.1690556 158.877187,83.1398013 159.16182,84.1857466 C159.466652,83.475814 159.876393,82.8109991 160.420515,82.3625014 C160.590347,82.0126855 162.519301,81.3882498 162.707683,82.0804649 C174.021713,83.6325925 185.022461,88.5526764 196.663996,87.7220182 C195.286377,82.6948058 195.449408,77.2658614 195.357072,72.0740419 L195.385105,71.4894767 C195.624702,66.3748515 195.798072,60.0447896 197.53253,55.8358286 C196.422645,66.4316645 197.228523,77.0452179 198.583057,87.5425779 C206.794148,86.4836536 203.013324,91.1767074 197.544278,91.0005634 C186.507461,91.7953747 176.321866,86.9162881 166.164507,83.3606509 C160.616523,81.1437083 159.98769,83.0213418 160.235019,88.2904175 C160.240171,95.1507639 163.348263,101.412015 166.163683,107.498769 L167.428527,110.341636 C169.530851,115.072116 171.604286,119.772266 173.646805,124.5594 C182.570614,121.601623 192.617706,123.224414 201.862423,123.763353 C208.916431,124.649017 213.981713,124.334636 219.949332,120.255923 C222.101912,116.145072 224.938148,112.246417 226.04721,107.609606 C227.333523,103.3599 227.761813,98.9085032 228.136927,94.5044904 L227.798932,93.2722828 C223.449574,77.460827 218.63646,61.7267166 212.059355,46.6666563 L211.703501,45.8368773 C209.473701,40.621276 207.208786,35.1482311 202.697568,31.49499 C195.126645,25.9072069 185.76321,23.4288295 177.804599,18.4568295 L177.753827,18.8205815 C176.946147,24.5240402 175.551026,30.4364605 171.899019,35.0252871 C165.15108,43.3075588 152.410377,43.5405634 143.775118,38.1614749 C134.791744,33.1966855 129.402255,23.9529353 126.780164,14.2905597 L126.749406,14.1843623 C126.503925,13.3232309 125.820584,10.7159153 124.724454,10.6875387 Z M149.1205,103.640082 C149.114935,106.677382 148.51537,109.671212 148.109752,112.669369 C152.779927,111.748064 157.436294,111.105499 162.029591,109.860129 C157.555217,108.170383 153.207187,106.134735 149.1205,103.640082 Z M137.875103,79.143495 C131.065126,77.8109809 124.092942,78.6080583 117.359225,79.6814038 C118.090904,83.0812926 118.926668,86.450691 119.62537,89.8551121 C122.03682,89.7446873 144.912003,93.7939398 142.330309,97.0444667 C145.706958,98.8493765 148.905736,100.971139 152.266927,102.815192 C155.647492,104.669752 159.166973,106.263701 162.797958,107.558514 L162.606423,107.132382 C159.481501,100.15423 156.561869,92.3014581 158.969729,84.6750355 C155.731996,85.973969 151.31224,83.1836828 148.175294,82.1397976 C144.845431,80.8039872 141.415813,79.7502133 137.875103,79.143495 Z M88.8485027,52.1225889 C88.8711744,50.8494075 92.8049302,54.4998122 93.3183424,54.8788824 L93.6286846,55.1595653 C97.403655,58.5837869 101.132796,62.3508613 103.235999,67.0495077 C103.389755,71.6673655 96.5047546,60.4806746 95.5502737,59.7973181 C93.4675637,57.1178687 90.9303882,54.7909134 88.8485027,52.1225889 Z M197.703393,62.9920558 C196.639057,63.3422837 199.543927,59.7341123 200.67669,59.9974013 C201.127446,59.931682 201.519668,60.5847541 201.01924,60.8093119 L200.770738,60.918739 C199.608359,61.4228041 198.419958,61.8531696 197.703393,62.9920558 Z" id="ðŸ–-Ink" fill="#000000"></path>
                </g>
                <g id="Head" stroke-width="1" transform="translate(83.267176, 37.082954)">
                    <g id="head/Gray-Short">
                        <path d="M59.1117296,104.95958 C54.5466329,104.985962 50.6668354,103.68847 47.706392,101.541985 C44.0121107,100.22245 39.5560201,98.1872142 36.849376,96.050618 C35.7936614,96.3204995 34.5304237,95.1970921 33.7225439,94.6041768 C28.6990042,90.8466436 24.7558597,85.3466235 23.5874368,79.8373327 C21.783693,82.1179344 19.2169059,82.2127019 16.7580966,81.0791996 C11.6039551,78.1512944 11.7966698,71.9862534 13.652243,67.3801386 C9.75126132,58.6126983 7.04770229,35.4675789 13.002525,26.1265889 C14.2205149,24.7289736 16.0080106,23.892959 17.2949006,22.4597028 C18.4400826,21.2079471 19.5293217,19.9275552 20.8616652,18.9370283 C24.9269789,15.8377174 31.928878,14.187526 36.3129833,13.4114622 C54.6140933,9.44811851 68.6754797,16.5717539 85.2530579,22.5806345 C84.2989453,24.9704248 82.9791478,27.1498724 81.4666356,29.1820182 C85.5821332,30.7207548 83.6918014,34.1803883 80.4989486,35.934206 L78.5981275,35.0087803 C81.5612447,45.6281021 88.380507,72.0356974 85.4381628,80.5159508 C83.0918561,93.7463245 72.7946794,105.054977 59.1117296,104.95958" id="âœ‹-Skin" fill="#D08B5B"></path>
                        <path d="M85.1852762,22.6753634 C84.2311635,25.0651537 82.911366,27.2446013 81.3988538,29.2767471 C85.5143514,30.8154837 83.6240197,34.2751172 80.4311668,36.0289349 L79.0568737,35.3590904 C78.4554086,31.4747274 77.2974333,29.4471805 75.5829479,29.2764495 C72.7719375,28.9965251 66.5510636,34.2638798 63.8420839,34.2638798 C61.1331042,34.2638798 47.3705459,28.3724045 39.8105681,28.3724045 C32.2505903,28.3724045 25.8148718,34.6272231 23.2576826,39.1604679 C21.5528897,42.182631 22.8214896,45.5704155 27.0634821,49.3238213 C24.5262824,52.581374 23.2576826,54.9224597 23.2576826,56.3470783 C23.2576826,57.7716969 23.5541638,60.7161315 24.1471263,65.1803822 C21.4151814,64.2823937 19.2679315,63.8333995 17.7053765,63.8333995 C16.1428216,63.8333995 14.7865357,64.7001013 13.6365187,66.433505 L13.6365187,66.433505 L13.1528234,66.4339455 C9.49363033,56.99801 7.20229812,35.2134767 12.9347433,26.2213178 C14.1527331,24.8237025 15.9402289,23.9876879 17.2271188,22.5544317 C18.3723008,21.302676 19.4615399,20.022284 20.7938835,19.0317572 C24.8591971,15.9324463 31.8610962,14.2822549 36.2452016,13.5061911 C54.5463115,9.5428474 68.6076979,16.6664828 85.1852762,22.6753634 Z" id="ðŸ’ˆ-Hair" fill="#ECDCBF"></path>
                        <path d="M61.7560807,106.098274 C55.8286295,106.707739 48.7868083,105.304085 44.8352709,100.480934 C44.7171065,100.336574 44.6653739,100.17312 44.662289,100.015274 C44.6588588,99.8397505 44.7176691,99.6701807 44.8192987,99.5382482 C44.9261099,99.3995892 45.07817,99.3029204 45.2524907,99.2715606 C45.3992624,99.2451568 45.5665949,99.2621442 45.7391116,99.3590811 L46.1023885,99.5617007 C48.8011063,101.054752 51.6038436,102.328022 54.6622417,102.872954 C57.8112572,103.433942 61.017715,103.3712 64.1386845,102.658713 C69.8236026,101.36129 74.424449,98.051558 77.8109145,93.6874274 C81.589981,88.8173527 83.8592522,82.6351989 84.4376965,76.4526897 C85.1386293,68.9601419 83.5126627,61.5132447 81.8304207,54.2585636 C80.0627781,46.6357549 78.1306577,39.0518172 75.8862187,31.5559065 C75.8185719,31.3302607 75.8003944,31.119051 75.8199263,30.92453 C75.157935,30.6647452 74.4533575,30.7368644 73.7521275,30.974016 C72.4708617,31.4073322 71.1944608,32.3844674 70.1299589,33.1910554 C69.7444218,33.4831823 69.3857475,33.754716 69.0634462,33.9756427 C67.7434671,34.8803781 66.3004407,35.5313619 64.6870944,35.6337555 C63.0089523,35.7399795 61.3637653,35.217573 59.8397064,34.5638012 C59.0654387,34.2316371 58.3035985,33.8871063 57.5448088,33.543927 C55.3842299,32.5667578 53.2491534,31.5992233 50.9159353,30.970423 C47.789593,30.1276508 44.5617935,29.7125478 41.3240163,29.7422832 C35.5455486,29.7952211 29.7493555,31.2850924 26.2077805,36.1804273 C24.7731942,38.1634632 23.8378769,40.442647 24.5673229,42.8900298 C24.9641395,44.2213797 25.7130212,45.4299942 26.5303608,46.5416005 L26.8107916,46.9201564 C27.2591482,47.5303422 27.6485806,48.1380733 27.7660061,48.7851043 C27.8643755,49.3271328 27.7876474,49.9005568 27.401225,50.5290381 C27.1580793,50.9246753 26.8485462,51.2794551 26.5373076,51.6330798 C26.3128103,51.8881504 26.0876695,52.1427502 25.8939673,52.4169011 C25.5036089,52.9695815 25.157984,53.5648436 24.8869142,54.1856671 C24.3561038,55.4009228 24.1309432,56.7081995 24.0838494,58.0266568 C24.0268324,59.6172863 24.2501185,61.1733266 24.4715731,62.7315946 C24.628599,63.8365095 24.7852863,64.9425328 24.8485566,66.0619529 C24.8595974,66.257294 24.7999794,66.40283 24.7164626,66.5105407 C24.6142649,66.6423439 24.465137,66.7254191 24.2954227,66.7484329 C24.2438998,66.7554195 24.1905493,66.7565317 24.1369683,66.7517814 C24.1632932,66.8594632 24.1865356,66.9676439 24.2067106,67.0761924 C24.0994362,66.9380557 23.9853083,66.8040072 23.8648485,66.6744321 C23.8571575,66.670552 23.8495274,66.6665315 23.8419642,66.6623705 C23.7177611,66.5940378 23.6125613,66.489886 23.5462546,66.355793 C23.3756642,66.1970034 23.1950511,66.0463783 23.0055724,65.9047728 C22.0195746,65.1678945 20.8682158,64.7310905 19.7132464,64.7166082 C18.5998254,64.7026468 17.483676,65.0824077 16.6254842,65.8844598 C14.9197652,67.4784472 14.420125,70.080546 14.4022954,72.3147409 C14.3842255,74.5953641 14.9111536,77.3324123 16.8962988,78.7484136 C17.6926143,79.3163729 18.6651576,79.6576389 19.6449039,79.6675136 C20.4571062,79.6756794 21.2342405,79.387853 21.9994197,79.1136496 C22.2353864,79.0290904 22.470232,78.9449948 22.7044975,78.8685924 C22.9706742,78.7818354 23.2132435,78.7873506 23.4246768,78.8507833 C23.6629938,78.9222815 23.8652529,79.0699286 24.0163584,79.2668567 C24.1668793,79.463023 24.2655383,79.7086026 24.2961167,79.9657801 C24.3257216,80.2147703 24.2916508,80.4733209 24.1864012,80.7064064 C24.1599801,80.7651203 24.132109,80.8221114 24.1031015,80.8777656 L24.5397388,81.5968817 C26.2115717,84.34336 27.9126556,87.0397134 30.1433182,89.4003573 C31.4236863,90.7553176 32.7808467,92.0339868 34.2695196,93.1532719 L34.4842314,93.3129408 C34.6127103,93.4074122 34.7552158,93.523884 34.9072017,93.6484234 C35.3414011,94.0042128 35.8618173,94.4813741 36.3476805,94.500162 C36.4918638,94.5057845 36.6177175,94.487719 36.7322061,94.4726675 C37.0088741,94.4362947 37.2409868,94.425649 37.4690563,94.5188439 C37.6525032,94.5938049 37.8428782,94.7337836 38.0383793,95.0228817 C38.1706243,95.2185501 38.2384967,95.4639587 38.2384967,95.7129551 C38.2384967,95.9630922 38.1698089,96.213334 38.0475605,96.4111194 C37.7946686,96.8205588 37.4886723,97.0741219 37.1567113,97.2181204 C36.7866004,97.3786676 36.3775773,97.4031891 35.9524201,97.3237607 C34.905065,97.1280924 33.745605,96.2591056 33.0077993,95.6919937 L32.8650836,95.5825062 C31.2302362,94.3333912 29.6808418,92.9512931 28.318821,91.4055999 C25.9992082,88.7734397 23.9159814,85.6716533 22.8459331,82.2825283 C22.0917325,82.7787904 21.1599256,83.0143547 20.1857114,83.0514562 C18.7663497,83.1055106 17.264093,82.73973 16.1571128,82.2138778 C13.7174667,81.0550359 12.2356682,78.8632 11.5412225,76.3426293 C10.7347732,73.4155284 10.9968806,70.0502975 12.0178081,67.4208247 C12.0474001,67.3443874 12.0783142,67.2682413 12.110042,67.1909119 C8.96699957,59.2145428 8.00057158,50.357339 8.26978532,41.8450877 C8.39571505,37.8606636 8.66658766,33.6803234 9.60502164,29.7943737 C10.0256346,28.0526729 10.7564188,26.3940144 11.9233048,25.022818 C12.5885806,24.2409001 13.4048631,23.6321725 14.2248865,23.0251143 C14.9351219,22.4993315 15.6480768,21.9747031 16.247996,21.3182195 L16.5316705,21.0065014 C16.5931633,20.9387078 16.6544931,20.8709978 16.7157197,20.8034017 C17.7516883,19.6596607 18.7602838,18.5498309 20.0174565,17.611831 C21.4754344,16.5242804 23.0843381,15.6730312 24.7561189,14.9660563 C28.3576285,13.4435741 32.2339017,12.5306832 36.0684992,11.8244275 C44.3644963,10.2967877 52.8805928,10.221408 61.0748766,12.3687519 C64.8846687,13.3669961 68.5820756,14.7334031 72.2731723,16.0981769 C72.6158815,16.2248928 72.9585376,16.3515891 73.3012392,16.4779712 C76.1696771,17.5359043 79.0396489,18.5893242 81.9096492,19.6427547 C83.2434544,20.1323265 84.5772659,20.6219005 85.9109803,21.1119484 C86.2003488,21.2183121 86.4836565,21.4474283 86.6450064,21.7320847 C86.8024268,22.0098087 86.8493363,22.3336938 86.7222234,22.6562114 C85.9038784,24.7330973 84.8713271,26.681611 83.6144758,28.5012055 C84.0512374,28.7987947 84.4229181,29.194524 84.7040684,29.6577211 C85.0596628,30.2435653 85.2703192,30.9371212 85.2846329,31.6728931 C85.3325365,34.137079 83.0938181,35.8075209 81.2364715,37.0156811 C81.0633516,37.1284034 80.8919666,37.1949353 80.7263681,37.2254631 C82.5260396,44.1182029 84.2488313,51.0342795 85.7126756,58.0051509 L85.8133581,58.4883536 C87.3213538,65.7838098 88.2942956,73.2288858 86.8681136,80.6212321 C85.6401624,86.9868688 82.7873344,93.1303986 78.3295249,97.8725493 C73.9608576,102.52016 68.0987298,105.445997 61.7560807,106.098274 Z M22.7257887,64.1303863 C21.9496459,61.6632438 21.5383418,58.9788827 21.8353034,56.4779713 C22.0222209,54.905918 22.4940812,53.3925015 23.2623716,52.0068796 C23.7024208,51.2132949 24.238729,50.4786278 24.8240359,49.7866824 L25.0259371,49.5542885 C25.1281544,49.4355896 25.2298275,49.326493 25.2613358,49.1897381 C25.2796463,49.1102652 25.2610064,49.0233527 25.2127858,48.9195068 C25.105936,48.6895139 24.9073639,48.4678537 24.7214702,48.2514914 C24.6033246,48.1139814 24.4879312,47.9790229 24.3910482,47.8477176 C22.6899944,45.5412162 21.4214264,42.7952466 21.8337832,39.8703504 C22.2360456,37.016681 24.1031473,34.3566711 26.0908508,32.3520373 C30.4676621,27.9378982 37.2533077,26.9235568 43.1977611,27.1670268 C46.6581663,27.3086403 50.1129408,27.9195292 53.408288,28.9866353 C55.0332787,29.5129661 56.6221369,30.1539355 58.1661575,30.8885824 L58.5080294,31.0529965 C58.6925159,31.1425279 58.8768176,31.233057 59.0612451,31.3236497 C60.2681369,31.916487 61.4795967,32.5151148 62.7897282,32.8374288 C65.3482819,33.4667335 67.0838751,32.1412988 68.9081142,30.8045953 C69.5333063,30.3464884 70.1680512,29.8820444 70.8427299,29.4744579 L70.981586,29.3922185 C72.1987182,28.6854704 73.6545105,28.209869 75.053003,28.2311993 C76.2677622,28.2497272 77.4397731,28.6382439 78.3939584,29.556374 C78.5897773,29.7450264 78.7025363,29.950837 78.7554503,30.1556693 C78.8610144,30.3039203 78.946239,30.4807046 79.0017477,30.6895552 C79.3435522,31.9742242 79.6838242,33.2598143 80.0229605,34.5457954 L80.3002689,34.36681 C81.1217115,33.8323732 82.0148102,33.2216119 82.4181347,32.3275035 C82.5733584,31.9833676 82.5513731,31.4100383 82.3557372,30.9885139 C82.2873811,30.8412312 82.1969748,30.7102818 82.0720265,30.628544 C81.9811211,30.5690762 81.8715464,30.5411637 81.7442185,30.5514364 C81.4346313,30.5913623 81.1503923,30.5460049 80.9093432,30.4439637 C80.63139,30.3263002 80.4097099,30.1326698 80.2658724,29.8993343 C80.1185919,29.6604133 80.0514657,29.3795054 80.087466,29.0881844 C80.1184194,28.8377036 80.2260322,28.5761215 80.4389369,28.3303336 C81.8403472,26.7123481 83.020521,24.9275529 83.9174325,22.9902696 L77.9844996,20.7915519 C75.8690957,20.0079807 73.7533319,19.2254137 71.6365617,18.4458606 L70.4776856,18.0193257 C66.6286635,16.6051984 62.7574929,15.2232113 58.7546962,14.3127753 C50.7997873,12.5035621 42.5045371,12.928778 34.5716287,14.6317955 L34.0924104,14.7355259 C30.7635256,15.4626099 27.3898811,16.3423214 24.3343867,17.8714582 C22.8346389,18.621984 21.409041,19.5346269 20.184779,20.6876901 C19.6441252,21.196885 19.1552993,21.7543982 18.6663211,22.3111548 C17.9810561,23.0914058 17.2949765,23.8695579 16.4802317,24.5268255 L15.7239294,25.1334355 C14.5988239,26.0415252 13.5840241,26.9262833 12.9491828,28.3346247 C12.2853728,29.8069652 11.9685363,31.4335775 11.7100134,33.0183461 C11.0580521,37.0106135 10.8007121,41.0668101 10.8252525,45.1106616 C10.8667623,51.9005889 11.89661,58.5522031 13.1976451,65.1803822 C14.2414834,63.6840183 15.7077898,62.5239771 17.5897903,62.276615 C18.8167594,62.1154026 20.0331972,62.3445222 21.0880045,62.8879593 C21.6976563,63.202052 22.253283,63.6211172 22.7257887,64.1303863 L22.7257887,64.1303863 Z M20.753994,72.1929568 C19.3796831,71.6596323 17.9367294,71.4849884 16.4827368,71.7400099 C16.3304042,71.7665859 16.1851268,71.7348217 16.063018,71.6637533 C15.939228,71.5917065 15.8416675,71.4777459 15.7886981,71.3519165 C15.7274691,71.2064662 15.7243487,71.0490351 15.7783855,70.9092016 C15.8252625,70.7878957 15.9146009,70.6700829 16.0788966,70.5913953 C17.6533146,69.8388331 19.403256,69.506722 21.1401624,69.7430229 L21.3118198,69.7674363 C22.199794,69.8993538 23.4484627,70.1769712 24.3848566,70.7234407 C25.1205357,71.1527752 25.6590081,71.7446195 25.7929588,72.5177952 C25.8628259,72.9206605 25.7629818,73.341277 25.5311336,73.646178 C25.3069898,73.9409471 24.964344,74.1374522 24.5208015,74.1248255 C23.738445,74.1025294 23.2752172,73.7713485 22.7178861,73.3424062 C22.6502718,73.2903678 22.5809379,73.2369929 22.5088628,73.1829594 C21.9703271,72.7793572 21.3818564,72.4365583 20.753994,72.1929568 Z" id="ðŸ–-Ink" fill="#000000"></path>
                    </g>
                    <g id="facial-hair/Moustache-9" transform="translate(25.351145, 69.633546)">
                        <path d="M50.5714694,6.76201162 C47.6805508,6.2746892 44.6770939,6.99491661 41.8897356,7.76233967 C37.4619072,4.85640535 31.7245425,7.78955948 28.5534265,11.4201115 C27.4681315,12.3135359 25.1889702,13.5002319 26.3897265,15.2047628 C25.9345624,16.4096784 25.8128373,16.9766846 26.7549018,15.5680594 C32.0865859,16.1816027 37.8070386,15.0225656 43.0836018,13.9293829 C44.8802474,14.5332676 46.4668494,15.9451855 48.4418023,15.4615948 C50.309228,15.8584772 52.3307414,16.2290179 54.016519,15.0315657 C55.3001654,14.9795408 58.1560071,17.2835661 58.1100731,14.6041708 C57.7129528,12.03585 52.6184015,7.76233967 50.5714694,6.76201162 Z" id="ðŸŽ¨-Background" fill="#E8E1E1"></path>
                        <path d="M52.7393267,15.0073271 C49.6007313,15.3544647 46.4178229,14.8443681 43.7897542,13.022771 C43.515426,12.8326179 43.2450137,12.834678 43.0244794,12.9461329 C42.7563344,12.9164665 42.4820061,13.0233891 42.3228916,13.3295294 C41.6629374,14.6000326 39.4755252,14.3169661 38.2730977,14.3429242 C34.3399603,14.4187382 30.2695557,14.2018029 26.4844031,15.3903116 C30.1044641,8.31694421 35.1110061,5.26336901 42.857945,8.04026418 C42.1584183,8.60330702 45.6490443,7.28521404 45.9553191,7.26008004 C51.3153344,5.91767712 55.7373573,10.411307 57.8975634,14.8641457 C56.263342,14.4753927 54.4320824,14.8200582 52.7393267,15.0073271 M60.2259527,16.2110809 C57.8625252,10.8898831 53.2024489,5.03901714 46.7024565,5.95867438 C45.3679145,6.15500802 43.9641206,7.0662186 42.6205099,6.9018175 C38.7302427,5.46567712 35.5190977,4.735967 31.6230595,7.05818396 C29.9700824,7.18158778 20.6680672,18.6931666 25.0884412,17.7533198 C30.5144107,14.6387637 39.9487466,17.5724374 43.3181817,14.7866835 C49.9331817,19.1272432 55.3117466,14.4121457 59.0398076,17.1253818 C59.6880137,17.7197391 60.5971511,16.9795222 60.2259527,16.2110809" id="ðŸ–-Ink" fill="#000000"></path>
                    </g>
                    <g id="face/Suspicious" transform="translate(32.770992, 38.319052)" fill="#000000">
                        <path d="M32.1287427,51.6960476 C33.6867046,51.4793183 35.3619412,50.5973621 36.8500328,51.3140932 C37.5456435,51.6490758 37.8758267,52.7947331 37.4054908,53.4315298 C36.6872084,54.4041333 35.9456359,54.5650321 34.7796893,54.6585635 C33.9055901,54.7286091 33.0267504,54.7337595 32.1549183,54.6330175 L31.9331533,54.6058911 C30.3775242,54.4051825 28.7606567,53.9711804 27.5554374,52.9261716 C27.3089336,52.7123265 27.4352771,52.2504377 27.7516511,52.1836884 C29.1828573,51.8826985 30.6800176,51.8977376 32.1287427,51.6960476 Z M30.2950924,48.110229 C30.294474,48.097662 30.313642,48.097662 30.3142603,48.110229 C30.3519779,49.0002199 30.6021916,49.8253156 31.0646954,50.5867522 C31.0710847,50.5976711 31.0543901,50.6073539 31.0480008,50.596641 C30.5852908,49.8345863 30.3328099,49.0010439 30.2950924,48.110229 Z M35.2060015,29.7420027 C36.7623925,30.6876274 39.1338544,32.8926397 37.4595359,35.2369586 C35.4887029,37.304022 32.6511484,34.9339926 31.2528507,33.8621206 C29.9562835,33.0314138 28.4995176,35.1679295 29.7024734,36.1379198 C39.806602,43.615334 43.9070714,29.9892703 35.9932024,28.6301798 C35.1218569,28.4804139 34.7982371,29.4494633 35.2060015,29.7420027 Z M43.1719695,19.1595672 C43.5374376,19.1595672 43.8869844,19.2835616 44.2053197,19.5129991 C44.5186278,19.7388133 44.8022604,20.0683845 45.0384948,20.4794368 C45.4855375,21.2572992 45.765,22.3313204 45.765,23.5188744 C45.765,24.7064283 45.4855375,25.7804496 45.0384948,26.558312 C44.8022604,26.9693642 44.5186278,27.2989355 44.2053197,27.5247497 C43.8869844,27.7541872 43.5374376,27.8781816 43.1719695,27.8781816 C42.8065013,27.8781816 42.4569546,27.7541872 42.1386193,27.5247497 C41.8253111,27.2989355 41.5416786,26.9693642 41.3054441,26.558312 C40.8584015,25.7804496 40.5789389,24.7064283 40.5789389,23.5188744 C40.5789389,22.3313204 40.8584015,21.2572992 41.3054441,20.4794368 C41.5416786,20.0683845 41.8253111,19.7388133 42.1386193,19.5129991 C42.4569546,19.2835616 42.8065013,19.1595672 43.1719695,19.1595672 Z M26.2470298,20.3708613 L26.384614,20.3447839 C27.1873487,20.198845 27.5929944,20.247967 28.2920221,20.794843 C28.8173885,21.2058458 28.6669305,22.0152842 28.2920221,22.4475067 C27.63901,23.200698 27.0009581,23.0672957 26.1064307,23.0960314 L26.0436023,23.0983125 C25.2981137,23.1285969 24.5520069,23.1498166 23.8059,23.1611475 C23.6018542,23.1644438 23.3976023,23.1636197 23.1935565,23.1648558 C23.2151977,25.0521721 22.1265412,26.4891366 20.6928618,27.5816416 C19.7662053,28.2880718 18.5940756,27.4730709 18.2634802,26.5937929 C17.9899763,25.8661429 17.9312359,24.9714137 18.0730374,24.1747482 C18.1255603,23.881089 18.2350617,23.5623287 18.4024942,23.2905103 L18.4495947,23.217596 L18.4419687,23.1133517 C18.4401137,23.0875996 18.4419687,23.0626716 18.4411443,23.0369196 C17.1102092,22.9560788 15.7869536,22.8226728 14.4641655,22.6550245 L14.0232435,22.5978986 C12.8941901,22.4485367 11.2360603,22.4005349 10.3223885,21.6664985 C10.2935336,21.6430126 10.3038389,21.5917145 10.3343427,21.5754392 C10.8366158,21.3050427 11.3462129,21.3203458 11.907949,21.2954185 L11.9885565,21.2915486 C12.5994573,21.2600281 13.2089668,21.2337224 13.8195198,21.2128053 L14.4305107,21.1936908 C15.993213,21.1489852 17.557358,21.0731712 19.1186176,20.9901466 C19.3900603,20.9757254 19.6615031,20.9586261 19.933358,20.9419387 C20.2175794,20.8228613 20.5197321,20.7515796 20.8181748,20.7383945 C21.0655031,20.7272696 21.3033504,20.7614684 21.5269763,20.832544 C22.0972225,20.788508 22.6671209,20.740532 23.2365845,20.6889635 L23.8059,20.6362104 C24.6093046,20.5597783 25.4539305,20.5264036 26.2470298,20.3708613 Z M36.1130771,6.22573345 C37.8305656,5.38209626 39.9188405,5.36149462 41.6876496,6.05968423 L41.8048735,6.10713048 C43.5912975,6.84815257 45.7438949,8.55978417 45.2778252,10.6917572 C44.8513901,12.6431446 41.7892603,12.3124882 41.6340618,10.4680233 C40.6453672,9.09883829 38.4282756,8.79846636 37.0345809,9.6690917 C36.1893366,10.1973178 35.6091458,11.0866906 35.2125962,11.9836861 C34.8745809,12.7475949 34.8108939,13.690944 34.2917107,14.356377 C34.2748099,14.3780088 34.2410084,14.3819231 34.2164817,14.3761546 C32.6682069,14.0180981 32.6323443,11.5588802 32.8963672,10.3660452 C33.2799321,8.63179909 34.5110084,7.01312817 36.1130771,6.22573345 Z" id="ðŸ–-Ink"></path>
                    </g>
                    <g id="mask/medical-mask" transform="translate(4.740458, 57.890611)">
                        <path d="M81.0530519,14.4945316 C80.6645405,9.57424175 74.4576321,7.48997375 71.366029,6.87192452 C61.0714031,4.45287985 52.3130977,10.6593302 40.0377847,10.7862363 C38.7988763,10.8056018 35.2558992,10.5967012 33.6082809,10.1618005 C25.2487924,8.26315333 16.8979603,6.24357448 8.6957313,3.75345415 C7.4898,4.03569663 7.13302901,5.60904394 7.96096031,6.50542133 C15.8169298,9.29014512 27.8356397,11.7837677 34.1824947,12.0676583 C34.0606855,20.2629911 29.7324412,28.5036474 23.755342,33.0360084 C33.2616092,43.5438753 55.4323191,46.9995945 68.4801206,41.4839172 C74.8984947,39.5584879 81.6713725,22.3231552 81.0530519,14.4945316" id="ðŸŽ¨-Color" fill="#FFFFFF"></path>
                        <path d="M8.03241756,4.0014773 C7.67894427,3.9876742 7.88505115,2.95759216 8.68124198,3.10448186 C18.9544328,5.50601513 31.7536695,10.0804035 42.3131427,10.0468228 C50.0811046,9.79259854 57.0415397,5.46831413 64.8523718,5.44215005 C70.1029443,5.54268605 76.7981198,6.2890835 80.4725931,10.5004709 C85.3191962,25.8647626 74.4052191,46.762243 57.233013,46.8831747 L53.9827549,46.6481139 C42.9037732,45.8322433 30.7664876,44.5268929 23.6254328,35.1315867 L23.569784,35.1793825 L23.569784,35.1793825 C22.5019443,34.4632695 22.5615092,32.9167043 23.4689977,32.1212749 L23.4959977,32.1637143 L23.4959977,32.1637143 C23.5133107,32.1356961 23.5324786,32.1089139 23.5510282,32.0815138 L23.5394863,32.0454609 L23.5394863,32.0454609 C23.8886313,31.6791637 24.2855931,31.3365584 24.6464863,31.0298 L24.6483412,31.0357745 L24.6483412,31.0357745 C30.0104176,26.5703688 33.511555,19.818181 33.7131275,12.8261902 C31.937929,13.313625 2.11302824,7.13313273 7.43697481,5.6248866 C11.2450053,6.91166509 15.0755015,8.07380365 18.9832878,8.99881732 C19.0488298,8.96194038 19.1428145,8.97162315 19.1788832,9.04434695 C23.959326,10.2202886 28.8362267,10.8923141 33.7195168,11.4364035 C33.7143641,11.2031929 33.7055015,10.9699823 33.6935473,10.7363597 C25.0106771,9.04681914 16.4984634,6.53836335 8.03241756,4.0014773 Z M78.3402115,10.2369759 C60.5307229,1.24415369 51.690387,14.5299459 34.466242,10.8719185 C36.2682344,18.9077945 31.8185931,27.5709905 25.7749214,32.8215247 C34.5563107,40.4185858 38.3569214,41.5689814 49.8762344,42.8019896 L51.3811035,42.981101 C53.6437095,43.2489397 55.9275508,43.4987746 58.1971809,43.5378802 C69.9700053,42.68147 78.865784,30.4383269 80.1970282,19.3453734 L80.2042432,19.0389372 C80.2639154,16.2236995 80.1345489,13.2437384 78.8868069,10.664666 C78.6569977,10.5847316 78.4572802,10.4407262 78.3402115,10.2369759 Z M53.5463382,17.2962724 C54.1617733,17.1578294 54.7897809,17.8290308 54.4082771,18.4167956 C53.1755519,20.317297 50.1608267,21.0535996 48.0523534,21.3523234 C45.6106053,21.698225 43.243674,21.4254593 40.9241473,20.5929469 C40.7998649,20.5482414 40.8087275,20.3286279 40.9575366,20.3463453 C43.1599947,20.6083982 45.4304679,20.4165969 47.5704756,19.8339825 C49.7403687,19.4114428 51.4924832,17.968916 53.5463382,17.2962724 Z M70.2799424,15.9273139 C70.269726,15.5661672 72.045955,16.6110824 72.3268786,16.7517916 C74.4963595,18.0538153 77.0075656,18.1492009 79.4002603,18.6603276 C79.9579855,18.8741727 79.9571611,19.5828691 79.4000542,19.7967141 C76.4137718,20.5904954 71.8816878,18.5072574 70.2799424,15.9273139 Z" id="ðŸ–-Ink" fill="#000000"></path>
                    </g>
                    <g id="accessories/*-None" transform="translate(9.687023, 49.649954)"></g>
                </g>
            </g>
        </g>
    </g>
</svg>