<?xml version="1.0" encoding="UTF-8"?>
<svg width="280px" height="620px" viewBox="0 0 280 620" version="1.1" xmlns="http://www.w3.org/2000/svg" xmlns:xlink="http://www.w3.org/1999/xlink">
    <!-- Generator: Sketch 62 (91390) - https://sketch.com -->
    <title>pose-mask-8</title>
    <desc>Created with Sketch.</desc>
    <g id="Introduction" stroke="none" stroke-width="1" fill="none" fill-rule="evenodd">
        <g id="poses-covid-10" transform="translate(-971.000000, -212.000000)">
            <g id="a-person/standing" transform="translate(1130.500000, 523.000000) scale(-1, 1) translate(-1130.500000, -523.000000) translate(1009.000000, 184.000000)">
                <g id="pose/standing/robot_dance-1" transform="translate(-24.938931, 130.614403)">
                    <path d="M73.1608354,186.221075 C73.1956686,188.588506 73.4329913,194.025094 74.0272177,196.31688 C67.407251,185.707028 57.4877836,174.110873 55.9792358,161.115993 C56.4493817,160.987357 58.5354043,160.79501 58.8996075,160.521759 C62.3246025,162.112721 61.6766226,157.216255 62.1828383,154.951571 C63.5497858,150.156841 66.4217348,145.440587 67.6695485,140.614103 C70.9496453,139.195869 64.3626568,138.59496 63.4056699,138.566846 C67.3842868,134.137597 69.2143723,128.048617 72.0472019,122.881732 C76.2096724,114.100495 79.9376548,105.123877 83.2663945,96.0064873 C83.9939766,101.719267 84.1244467,107.493937 83.6810957,113.238269 C82.3122932,137.843369 73.0680841,161.501699 73.1608354,186.221075 Z M302.918318,142.513895 C300.858828,142.859958 297.42673,143.187718 295.371362,143.355997 C298.069187,141.747843 306.042751,138.684156 301.017899,135.930817 C299.468541,135.365101 297.805968,136.172092 296.243625,136.421679 C289.755159,137.489399 281.743397,137.433059 275.179287,136.895053 C277.572064,134.931329 280.722522,132.103083 283.057793,130.070793 C284.298805,128.990938 285.502105,128.581549 284.106095,126.969147 C281.645507,124.677766 277.245146,126.365205 274.400156,127.372248 C266.552162,131.768529 257.690885,136.537371 249.267834,139.919935 C249.179617,138.739962 249.234115,137.214328 248.096366,136.421679 C244.758764,134.84892 242.301417,135.308653 238.750075,134.889978 C234.610895,134.269653 230.931762,133.564092 226.832568,132.469471 C224.151438,130.424844 222.516585,124.395178 218.229416,125.069102 C222.026446,115.514632 216.239137,105.546394 214.065048,96.3976544 C211.35197,87.0349256 209.926487,77.3113683 209.887737,67.5762823 C209.861148,51.9900722 200.832535,40.0309564 187.78676,32.0332673 C182.643806,28.560496 179.190231,20.1134991 172.82296,18.4216102 C172.013139,15.3147238 171.964014,13.949979 171.252921,10.8194284 C170.895931,9.92018896 170.630663,5.04071274 169.73283,5.20676662 C168.742865,0.373405242 163.697403,-1.56503621 159.331498,-2.57733791 C153.654915,-3.75367092 145.733132,-5.1785791 140.630164,-1.85932172 C139.152121,-0.629592586 138.502862,1.42959695 138.394446,3.2691342 C137.827427,5.71868183 136.648036,8.25625009 135.273256,10.381578 C132.927063,9.58893576 134.254849,8.11180495 131.934371,7.76788988 C110.746098,4.62760396 87.2269527,20.1706795 73.4794875,35.3335124 C48.5601091,60.9209801 28.6528028,95.8518261 31.9114638,132.31997 C31.0350675,132.190524 27.1506446,131.581728 27.2061069,132.80903 C27.3969508,138.145811 28.3788775,142.597041 28.6499172,147.929575 C28.3805264,154.994046 35.720449,155.845148 41.0227294,157.587399 C40.696245,178.083424 48.1429346,198.584707 59.7982642,215.432806 C62.6298572,218.748018 66.8786894,230.25238 72.0472019,225.669616 C72.6562685,224.957263 67.9326939,220.022648 67.0923675,218.803437 C64.2228496,215.191309 56.621899,197.306639 61.9937896,193.734559 C63.1880136,197.595261 74.7519234,216.159346 76.8132687,205.622509 C79.5510798,207.211448 84.0751855,208.295725 87.3480683,208.131491 C93.5007748,211.4643 99.4877657,215.063482 105.396433,218.803437 C108.148672,224.208379 112.185619,229.399535 115.567743,234.588871 C92.1612405,288.651849 69.3147272,377.633823 39.1934458,428.55452 C36.5671424,431.879845 51.0149808,437.531745 53.5668772,438.751968 C48.686718,446.67563 48.0757189,455.85754 44.3629889,464.389798 C43.6558121,464.275522 42.9424518,464.425799 42.3045293,464.767211 C37.7246781,467.868637 35.9964129,478.971392 35.7352666,484.445709 C35.9467395,486.887773 35.0414872,490.580803 37.0172951,492.37908 C36.7411025,492.678017 36.5349886,493.043093 36.3882355,493.415855 C34.997791,494.498138 35.1690717,496.88984 35.9123184,498.372796 C38.5274918,503.800392 57.6427023,503.296769 63.8459067,504.45773 C85.8188866,506.318909 104.261262,506.611981 126.231356,504.577669 C128.927945,504.012965 126.888654,499.805997 125.557158,498.664857 C126.172202,498.290679 126.565467,497.607451 126.296282,496.729651 C121.30173,482.44659 103.249847,483.412979 92.326634,475.785422 C95.1988314,474.124277 93.3450428,474.654395 91.5405155,475.300408 C89.625305,474.096972 87.7622413,472.742652 86.0364495,471.246347 C87.3619681,470.42801 86.7081748,469.887374 85.2742403,470.572625 C83.0142012,468.76019 81.2539884,465.958916 78.3749892,465.080509 C75.5551448,464.389798 75.5551448,463.183939 75.5551448,462.423849 C77.2333242,455.676317 79.0664803,448.756664 80.008627,441.913666 C81.0136384,443.395813 89.685078,431.519623 91.5405155,428.55452 C98.7497619,417.137253 98.7302681,405.886461 103.775318,393.470241 C114.135222,366.431572 135.356946,309.76193 148.298838,283.902223 C178.579858,333.243689 163.830965,399.97661 182.511069,452.591623 C183.341296,454.17227 184.902402,460.100656 187.064537,458.390362 C187.904864,458.587159 188.798368,458.69294 189.598708,458.806205 C189.367654,464.55802 188.93667,470.294464 187.98092,475.986006 C187.090714,476.221232 186.334276,476.688448 185.942247,477.505571 C184.442974,476.40468 181.572426,492.646004 181.326738,494.300475 C181.323028,496.4345 179.483255,501.186352 181.163496,502.454712 C178.742688,503.44517 178.346949,507.106446 180.049656,508.989064 C185.105218,515.783722 209.748404,513.916475 218.839677,515.055391 C230.336299,514.770207 278.431437,519.074461 281.770689,508.168705 C282.434582,505.679111 281.296627,502.536222 278.981968,501.578126 C279.908243,499.415987 277.690046,497.328481 276.333198,495.811343 C268.331443,487.488625 256.027645,486.177567 245.374029,482.555327 C245.77121,482.148384 231.467314,474.819572 228.36633,473.007946 C228.571001,470.54687 223.456949,473.014216 223.442727,473.007946 C221.0044,468.698636 219.277169,461.993837 217.642274,457.345137 C220.659575,456.409896 227.929506,455.578975 229.276873,452.591623 C233.607326,451.139207 229.263544,444.859353 228.36633,441.913666 C202.981958,378.402808 227.065065,298.293262 189.598708,238.349023 C196.466424,234.416115 204.34538,225.808847 197.561553,218.588234 C196.203881,216.852455 192.882958,211.4483 192.937579,212.391834 C191.676122,207.246396 188.85872,198.383249 187.98092,193.180371 C184.758001,174.077553 186.870419,156.187244 189.598708,136.895053 C193.386463,151.411722 206.441513,163.506077 219.722256,170.138524 C224.905403,172.276999 231.749622,176.691079 237.440015,175.298532 C242.575755,173.779169 251.903028,163.236669 253.002234,158.173138 C267.97373,159.953211 283.518635,158.52446 297.826445,153.818522 C299.663126,153.123765 301.836597,153.182574 301.268753,150.576074 C300.702352,148.363978 296.663714,148.928162 294.927204,149.338948 C297.581539,147.867723 304.472211,147.482567 304.421204,143.63582 C304.329786,142.834069 303.737827,142.376157 302.918318,142.513895 Z" id="âœ‹-Skin" fill="#D08B5B"></path>
                    <path d="M227.928532,471.577247 C228.849867,472.489876 235.922211,477.917935 245.473282,482.490428 C251.310717,485.28505 258.424039,486.72894 264.435115,489.494986 C270.920715,492.479389 276.200945,496.789231 279.427032,499.9063 L282.748035,508.780358 C282.243126,511.99738 267.311201,514.035696 251.639893,514.554952 C228.682855,515.315614 200.158462,513.112662 197.43296,512.822144 C192.73125,512.390539 178.081792,512.871794 180.781998,505.1983 C181.549194,505.441081 181.791611,500.507189 182.330797,500.031572 L182.795854,496.270614 C184.129746,485.53851 184.912132,479.763309 185.143013,478.945011 C185.202578,478.851274 185.264204,478.759185 185.332219,478.671834 C186.126349,477.645666 187.469548,477.358067 188.707013,477.433675 C188.807387,477.439856 188.90838,477.452217 189.00999,477.467668 C189.178174,477.555225 189.340586,477.658645 189.494754,477.781843 L189.624326,477.799652 C189.646013,477.802696 189.667883,477.805947 189.690143,477.809655 C189.734662,477.816866 189.774441,477.829227 189.811746,477.843854 C189.842662,477.792556 189.869662,477.736725 189.896868,477.681101 C190.663174,477.915341 191.443082,478.231165 192.190632,478.267011 L192.731163,478.504894 L193.430788,478.816689 L195.450965,479.724749 L195.902604,479.925606 C198.506544,481.067811 205.042197,483.518245 211.053435,482.696445 C216.874636,481.900625 221.763277,476.117215 223.563395,474.594151 C224.871143,473.394105 226.70941,472.834771 227.928532,471.577247 Z M77.6232423,464.655507 C78.1953051,464.806449 80.7229249,466.34213 82.9002938,468.423136 C84.9574367,470.389238 86.5912773,472.842105 89.6564885,475.073838 C94.0836905,478.297214 111.086129,484.452416 120.356615,490.362254 C125.16333,493.426485 128.227943,503.422354 128.307807,503.883916 C99.135853,505.557799 64.3434733,505.230726 35.4503817,500.619872 C34.9009871,500.460244 35.1353886,487.764817 36.4410232,479.24503 L36.480916,478.988149 C37.4227182,473.003917 38.4933243,469.713659 38.5585517,469.573117 L38.6323256,469.449238 C39.8316733,467.493226 43.1125801,465.390722 45.2372575,466.821358 L45.2572135,466.837979 L45.6548357,467.197417 C47.5528467,468.900941 55.4839059,475.72739 60.9902117,474.070045 C62.7932346,473.484753 64.2901888,472.314579 65.8586621,471.29418 C70.0793186,468.569201 72.8613491,466.294574 77.6232423,464.655507 Z M78.4661081,464.278578 C78.8535967,464.528298 79.222264,464.809655 79.5784135,465.11131 C79.1147492,464.832899 78.6233648,464.602376 78.0941965,464.437954 C78.2096988,464.395803 78.3215171,464.348513 78.4291517,464.29672 L78.4661081,464.278578 Z" id="ðŸ‘Ÿ-Shoes" fill="#FFFFFF"></path>
                    <path d="M129.341292,6.78378696 L129.675232,6.82524979 C130.975528,6.99486779 132.064149,7.27671905 132.989339,7.74291583 L133.095369,7.79752997 L133.518713,8.02039886 L133.621579,8.48747652 C133.944349,9.9530705 135.145541,13.2587945 135.793722,14.5559392 L135.827909,14.6234857 L135.849734,14.6658284 L135.926213,14.8068296 L136.086674,15.1753647 C139.235692,22.3590297 143.488947,29.1876376 148.67223,35.4545832 L148.927375,35.7617254 L149.088945,35.978656 C153.806483,42.2730737 159.805924,46.7940348 164.796874,46.9148262 L164.947804,46.917137 L165.213483,46.9150563 C168.067013,46.849574 170.610821,45.3498079 172.806289,42.1670698 C174.308775,39.9553269 175.164934,37.2057814 175.485708,33.9087817 C175.741288,31.2818717 175.659599,28.4778068 175.311039,24.9621765 L175.287929,24.731882 L175.231149,24.1861549 L175.191361,23.8174343 C175.174257,23.6607661 175.145273,23.6257792 175.088235,23.6208711 L175.075578,23.6202464 L175.053104,23.6201218 L175.039743,23.6207565 L175.027322,23.6219996 L175.004619,23.6260113 L173.948325,24.0514912 L173.551511,22.8471696 L173.467235,22.597694 L173.373668,22.3256927 L172.993036,21.2362135 L172.872425,20.8842019 L172.776508,20.5971105 C172.639852,20.1822542 172.526592,19.8108305 172.426169,19.441836 L172.389091,19.3034969 L171.841093,17.1522726 L173.672106,17.8167439 C173.768486,17.8517198 173.86397,17.888105 173.958609,17.9259137 L174.099938,17.9836963 L174.233226,18.0394461 L174.346036,18.1296848 C174.733788,18.4398551 175.124018,18.691475 175.814,19.0859848 L175.901831,19.1360573 L176.807728,19.6475578 L177.009279,19.8185638 L177.146226,19.9378221 C177.983344,20.6755037 178.692857,21.4638796 179.777184,22.8005781 L179.865933,22.9101704 L180.652361,23.8889066 L181.024968,24.3469301 L181.240576,24.7015408 L181.402083,24.9727868 L181.492797,25.1267716 L182.004899,26.0032283 L182.245438,26.4106303 C182.857591,27.4395585 183.24849,28.0273793 183.730836,28.6231686 L183.822423,28.7350821 L183.88869,28.8143951 C184.68803,29.7617716 185.682001,30.6060458 187.168874,31.6654072 L187.42865,31.8491784 L187.815867,32.119512 L187.959435,32.2406339 C188.308038,32.5305285 188.641739,32.774667 188.967822,32.9758667 L189.061756,33.0325436 L189.175795,33.0738231 L189.670338,33.426777 L190.049456,33.7001137 C192.7345,35.6453934 194.739964,37.3052098 196.572928,39.1729844 C197.851346,40.4759091 199.041347,41.8286737 200.133742,43.2255908 L200.350917,43.5055612 C200.532361,43.7413067 200.69929,43.9643976 200.89304,44.2303312 L201.097261,44.5126011 L202.072472,45.8799676 L202.336088,46.2440484 C202.710101,46.7563577 202.995524,47.1264044 203.297189,47.4877141 L203.347635,47.5478743 L203.485191,47.7094859 L203.622358,47.8237301 L203.717543,48.0044493 C204.743531,49.952415 205.537466,51.9709992 206.096022,54.1026099 L206.147267,54.3020109 L206.207093,54.4734377 C206.951295,56.6350207 207.431408,58.9226522 207.722902,61.4959571 L207.751425,61.7542457 L207.799658,62.2229369 C207.956779,63.8121792 208.034484,65.2106369 208.099355,67.4898926 L208.120139,68.2657235 L208.19184,71.3606248 L208.21134,72.0744885 C208.29585,74.9691134 208.423716,76.8930626 208.692804,78.8556016 L208.70912,78.9734083 L208.741581,79.2011958 L208.74554,79.2316607 C209.778122,88.2276592 211.880872,97.0164471 215.023629,105.445859 L215.171708,105.840724 L215.282001,106.13201 L216.086435,108.231454 L216.270721,108.718418 C217.126843,110.994695 217.638862,112.568076 218.023255,114.233435 C218.555052,116.537413 218.712999,118.640648 218.435742,120.657384 L218.412611,120.817989 L218.399608,120.924089 C218.243448,122.205614 218.214654,123.410496 218.295925,124.302382 L218.30716,124.417429 L218.602784,124.419517 C219.571923,124.42655 220.363061,124.738 220.993044,125.341154 L221.053507,125.400434 L221.112968,125.461533 C221.589999,125.963213 221.930002,126.573286 222.324427,127.52427 L222.417562,127.756419 C222.531345,128.046037 222.819559,128.777571 223.030904,129.296271 L223.181573,129.659888 L223.279853,129.884489 C223.421725,130.202552 224.492802,131.461963 226.305344,132.262534 C227.011722,132.574531 228.325457,132.891604 230.246549,133.213755 L230.432635,133.288989 C233.030964,134.329245 235.36036,134.827721 239.940566,135.447347 L240.782916,135.559423 L242.680198,135.805386 C244.586789,136.056294 245.790865,136.237296 247.026257,136.471422 L247.380713,136.539867 L249.875666,137.038316 L247.95668,138.420481 C244.658977,140.79568 232.682573,153.620778 232.076336,158.014585 C231.356244,163.233573 242.457193,159.786195 244.00095,158.090321 L244.174215,157.898715 L244.342482,157.710164 L244.858185,157.124437 L245.366147,157.159368 L245.868181,157.195435 C246.878318,157.271063 247.926797,157.367737 249.048377,157.486835 L250.998958,157.69784 L249.61745,159.81725 L249.256045,160.367799 L249.009584,160.740717 L248.757833,161.119158 L248.501584,161.501479 C244.941197,166.791878 241.930683,170.249294 238.200844,172.813187 L238.075206,172.898731 L238.005206,172.949606 C237.065161,173.614032 236.031079,173.953118 234.899117,174.008122 L234.785594,174.012677 L234.671418,174.015348 L234.58073,174.016053 C233.955826,174.016694 233.310223,173.934548 232.619593,173.77817 L232.461166,173.741356 C231.830784,173.591049 231.23167,173.401766 230.35239,173.087798 L230.126553,173.006659 L229.392321,172.739139 L228.824803,172.535963 L228.650995,172.475657 C226.157792,171.584075 223.724292,170.57523 221.35805,169.451126 C206.144138,162.300641 194.550362,151.475959 189.748108,138.283214 L189.604667,137.882711 L189.448076,137.430044 L186.960779,137.972485 L186.894549,138.54347 C183.888087,164.82985 184.484756,185.736776 189.862218,205.216784 L190.026636,205.806654 L190.18058,206.348507 L190.438552,206.971094 C191.214731,208.832883 192.060962,210.755012 193.127617,213.097997 L193.569183,214.064439 L193.87658,214.157917 L194.071466,214.571812 C194.318239,215.095904 194.602566,215.61049 194.923763,216.115339 L195.001814,216.236631 C195.327356,216.736623 195.663303,217.17766 196.243382,217.876883 L196.387407,218.049816 L197.245122,219.069707 L197.431524,219.295088 C197.470267,219.342319 197.507603,219.388115 197.544296,219.433409 L197.653202,219.568718 L197.834678,219.797917 C197.918621,219.905078 197.997318,220.0074 198.072606,220.107488 L198.182928,220.255688 L198.297311,220.456949 C198.765713,221.290817 199.109379,222.036927 199.353472,222.796936 L199.398079,222.939625 L199.420331,223.012806 L199.431526,223.08847 C200.088867,227.531182 198.172092,231.500719 194.272001,234.956167 C191.362839,237.533661 187.500588,239.704761 183.144358,241.480056 L182.892062,241.581909 C177.366126,243.658009 171.83279,244.715871 166.224433,244.828418 L165.943952,244.833258 L165.233679,244.838389 C156.797175,244.838389 148.294726,242.73696 139.056387,238.687178 L138.646167,238.50646 C132.094502,235.605865 126.082884,232.253597 116.406885,226.327252 L115.797325,225.953485 L114.495764,225.152769 L110.928246,222.950218 L110.851076,222.773577 L110.682745,222.638219 L110.570309,222.550761 C109.874318,222.0166 109.120408,221.571849 107.801185,220.881967 L107.582222,220.767893 L106.939278,220.436134 L106.20123,220.051781 L105.677041,219.734005 L104.888618,219.258017 C102.031656,217.537747 99.540124,216.08856 97.1601435,214.773325 L96.9440819,214.654124 L96.3473767,214.327014 L96.313394,214.307628 C94.8819157,213.454582 93.471295,212.629494 92.0760027,211.829697 L91.5146236,211.508799 L91.0387683,211.179746 L90.6151675,210.888814 L90.188784,210.598813 L89.8664352,210.382025 C87.9014341,209.067889 86.3501094,208.170136 84.74435,207.466961 C83.1178871,206.754895 81.7309068,206.285751 80.4326234,206.073136 L80.2986284,206.052057 L80.0896725,206.020543 L79.9099888,205.90937 C79.1511707,205.439876 78.4741539,204.936551 77.8677438,204.379508 C76.4384842,203.066613 75.6052554,201.491064 75.2056259,199.561006 L75.1801761,199.43463 L75.0998843,199.024475 L75.3281943,198.67435 C75.3662567,198.615979 75.4023385,198.387557 75.4180384,197.925983 L75.4215281,197.805695 L75.4305502,197.443521 L75.436048,197.286488 C75.454158,196.835437 75.4882435,196.558517 75.5767497,196.285224 L75.5993817,196.218474 L75.6194164,196.057506 C75.8936795,193.812021 76.047971,191.839653 76.2313346,188.424355 L76.2690762,187.709286 L76.4637519,183.839964 C76.5673894,181.85447 76.6584551,180.400397 76.7730663,179.005306 L76.8121916,178.541812 L76.8710223,177.886838 L76.9259907,177.2339 C77.5170412,170.37828 78.4614565,164.602977 80.7536342,152.738853 L81.9518641,146.55041 C82.5835082,143.258581 83.0051003,140.971165 83.3937509,138.699246 L83.5513557,137.768181 L83.7826735,136.366511 L83.8983433,135.646665 C85.0943996,128.125218 85.7082589,121.757865 85.7243247,115.667083 C85.7430216,108.578768 84.9298601,102.013324 83.1498984,95.7259563 L83.0615792,95.4169646 L83.0276794,95.3007183 L81.1735459,97.0763584 C73.3564984,113.305364 67.5693407,125.066839 63.812073,132.360785 L63.5449392,132.877778 L63.4924911,133.006885 C63.2418167,133.658145 63.1869228,135.359372 63.3734505,137.076491 L63.3960469,137.274631 L63.4212897,137.47629 L63.4515731,137.696819 C63.5830236,138.610989 63.7720711,139.407212 63.9902169,139.957625 C64.0600181,140.133743 64.129268,140.275162 64.1914401,140.376789 L64.2144101,140.413024 L64.2294962,140.434999 L64.3439522,140.434896 C64.5298122,140.434125 64.7152677,140.432446 64.900066,140.429861 L65.1767391,140.425305 L65.5894862,140.415931 L68.0409363,140.343956 L66.7629599,142.052949 C63.0784741,146.980086 60.2517664,152.760131 58.5454678,158.804442 L58.4709177,159.071272 L58.1704737,160.16902 L57.2058632,160.07804 L57.0319408,160.063953 L56.4961203,160.023067 L55.862089,159.96436 L55.6591603,159.645823 L55.2792887,159.882968 L54.5879141,159.750769 L54.0310362,159.641091 C49.7311835,158.780398 45.7587938,157.660644 39.0871291,155.540781 L38.4329561,155.332486 L35.9558943,154.539133 L34.6293568,154.115215 L34.4367166,154.049481 L34.2654242,153.988989 L34.1021422,153.929304 C32.2246095,153.229955 31.1532544,152.302097 30.628969,150.577265 L30.5896781,150.443489 L30.5514258,150.243866 L28.7620267,140.843475 L28.4704213,139.342741 C28.1551366,137.730609 27.866414,136.290875 27.5791615,134.902512 L27.3636057,133.86898 L26.9869392,132.091921 L28.8352892,131.934158 L29.0527137,131.914062 C29.6164376,131.859786 30.0539054,131.799444 30.4213608,131.719069 L30.5027863,131.700521 L30.5198211,131.270553 L30.5363143,130.890024 C30.556567,130.440653 30.5804469,129.971601 30.6088967,129.475448 L30.6344232,129.043365 L30.6734193,128.425669 C30.8904534,125.1079 31.2487878,121.452622 31.7899427,117.501751 C33.3506733,106.107148 36.0735635,94.7294935 40.2624184,84.089527 C43.4320119,76.0385514 48.3467526,67.7017571 54.7021408,59.1448986 C59.744562,52.3558113 65.4205289,45.775311 71.7557938,39.1215141 C79.9581373,30.3769436 86.4697111,24.335427 93.4897801,19.4084656 C102.18421,13.3063714 110.964364,9.56829752 120.309705,8.40055608 L120.550466,8.37106472 L120.938626,8.29501514 C121.482821,8.19032128 122.01791,8.09675179 122.748004,7.97775626 L122.87891,7.95648567 L125.317645,7.56905626 L125.981792,7.46006096 C126.85758,7.3136832 127.522137,7.19035259 128.172544,7.0515301 L128.450998,6.99097391 L128.752084,6.92304968 L129.341292,6.78378696 Z" id="ðŸ‘•-Top" fill="#9DDADB"></path>
                    <path d="M138.446437,0.205645579 C138.674185,0.29794093 138.829589,0.644254512 138.921719,1.16465196 C139.175231,1.24376226 139.392467,1.43103118 139.457803,1.71306764 C139.649925,2.54252022 139.4254,3.40731493 139.252252,4.23405052 L139.232528,4.32927001 C139.068673,5.12964376 138.868337,5.92507311 138.623482,6.70505123 L138.58769,6.90258821 C137.991739,10.1262649 136.842802,13.1913584 135.493544,12.6706684 L135.80529,13.2383268 C141.099556,22.8468424 156.222359,48.64602 168.02978,44.9686848 C174.905505,42.2128033 174.807192,33.2543858 174.304498,27.0197112 C169.199231,30.1511606 168.244131,6.17991541 169.290742,3.53095643 C170.124032,2.91805761 170.52594,8.4322928 170.835925,9.19249335 C171.512368,12.2172263 172.341948,15.2030221 173.120826,18.202621 C174.767002,18.5285389 176.323933,19.1847012 177.700521,20.1251661 C177.766063,20.1628671 177.833666,20.1970658 177.897971,20.2362089 C178.724047,20.738889 179.368544,21.380012 179.943169,22.0901506 C180.592612,22.8167705 181.14807,23.6121998 181.672612,24.4298789 C182.825574,25.7399373 183.924742,27.0986155 185.060597,28.422683 C185.599566,29.051033 186.151315,29.6602235 186.715429,30.2539628 L187.150406,30.6195427 C187.22307,30.6801879 187.295895,30.7405736 187.368994,30.8005243 C200.413498,38.944971 209.44407,51.1310476 209.469421,67.0037878 C209.507963,76.9199756 210.933398,86.8240084 213.646589,96.36092 C215.820398,105.679454 222.844108,115.204005 219.047208,124.935602 C223.334437,124.248949 223.732635,129.761124 226.413673,131.84395 L227.256083,132.071935 C231.022515,133.085571 234.476979,133.931003 238.330566,134.519279 C241.8822,134.945733 245.988055,134.477252 249.325337,136.079441 C250.463047,136.88682 250.055986,138.343562 250.144612,139.545461 C258.567169,136.099837 266.131704,131.339828 273.979635,126.861855 L274.242472,126.767794 C277.14731,125.736607 282.329053,124.187124 284.715742,126.451265 C286.111704,128.093627 284.702345,129.559846 283.461376,130.659768 C281.126185,132.729615 278.648986,134.628262 276.256498,136.628681 C282.703373,137.166899 289.170329,136.737528 295.546066,135.691689 L295.893742,135.634034 C297.455826,135.37981 299.297803,134.771649 300.847315,135.347877 C305.871788,138.152378 300.057925,141.425979 297.360192,143.064222 C299.415696,142.892816 301.467696,142.637356 303.527322,142.284656 C304.346597,142.144564 304.938536,142.610986 305.029189,143.427635 C305.080956,147.345861 299.92004,147.557028 297.266002,149.055591 L297.478749,149.005278 C299.213952,148.603385 301.708825,148.250363 302.252551,150.413239 C302.820582,153.068378 299.241536,154.141106 297.404918,154.848566 C283.097597,159.642156 267.553223,161.097456 252.582444,159.284306 C251.483482,164.441926 242.156116,175.180326 237.020551,176.727921 C231.330353,178.14655 224.486368,173.650242 219.303398,171.47203 C206.023108,164.71634 193.718116,153.572089 189.930696,138.785879 C186.747788,161.712209 188.034307,184.825602 192.812482,207.38275 C193.586002,209.141306 194.402185,210.872668 195.320391,212.559737 C195.597811,212.604236 195.832566,212.789651 195.886773,213.165013 C195.915009,213.370411 195.956437,213.570247 196.003223,213.767405 C196.917513,215.320769 197.919605,216.813358 198.849971,218.357863 C199.042269,218.676776 199.232093,219.00805 199.405635,219.347359 C205.599147,226.652701 198.050276,236.066209 191.298627,240.004419 C228.763704,301.062532 204.565933,378.007806 229.949437,442.698812 L230.005886,442.883045 C230.96938,445.959765 233.903758,452.292914 229.659856,453.742528 C228.312536,456.78539 221.522963,457.144477 218.505971,458.097303 C220.140605,462.832384 221.958261,467.515343 224.396505,471.904935 L224.440612,471.9243 L224.440612,471.9243 C225.411788,471.210041 227.494292,470.47209 228.354994,471.25042 C228.564398,471.276791 228.772979,471.335711 228.976612,471.436865 C230.308681,472.099208 231.380231,473.364767 232.654383,474.161432 C233.343398,474.592419 234.05962,474.98385 234.797276,475.325631 C235.483818,475.64372 236.213437,475.853445 236.773635,476.377963 C236.950681,476.543394 236.995406,476.753737 236.951711,476.947392 C237.394017,477.1771 237.83591,477.407427 238.27636,477.638783 L238.515613,477.488915 C242.408966,475.063075 245.539814,473.748917 239.876162,478.409285 C241.90549,479.347689 243.986757,480.168459 246.081215,480.937312 C247.672154,480.172167 249.370063,479.613863 251.120734,479.537018 C251.43546,479.926595 249.029162,481.430721 248.6322,481.845226 C259.285246,485.534774 271.002627,488.423742 279.003902,496.901317 L279.183458,497.103874 C280.545865,498.629505 282.538799,500.667647 281.652788,502.774845 C283.967162,503.750951 285.10549,506.95224 284.441208,509.48789 C281.102276,520.596295 229.917078,516.212471 218.421055,516.502749 C209.330093,515.34267 184.68775,517.244614 179.632154,510.323698 C177.929918,508.405892 178.325231,504.676789 180.746162,503.66772 C179.065979,502.376203 180.905482,497.535848 180.909605,495.362169 L180.948194,495.110905 C181.205598,493.487904 182.32114,487.136304 183.478933,482.697722 C183.502635,482.348112 183.549009,481.990056 183.60507,481.628909 L183.641398,481.399758 C183.871645,479.985037 184.224966,478.546159 185.138711,477.408045 C185.794956,476.591396 186.704299,476.087068 187.690933,475.904743 C187.955368,474.214791 188.172398,472.520718 188.358719,470.824172 C188.490009,468.82911 188.539887,466.830544 188.517421,464.831567 C188.505673,463.821881 188.479085,462.813018 188.429826,461.804362 C188.393551,461.062497 188.436009,460.180747 188.247627,459.4224 C188.122108,459.550749 187.943414,459.619764 187.743284,459.551161 C187.318085,459.405507 186.926689,459.136862 186.536322,458.916836 C186.521689,458.908595 186.50994,458.898913 186.497368,458.889848 C184.412803,460.243582 182.904307,454.450606 182.093482,452.878083 C163.414223,399.285387 178.162612,337.607988 147.882421,287.349667 C143.702162,296.322918 140.109925,304.554716 136.086307,313.590595 C123.520383,341.809075 108.00775,391.515066 97.6045053,421.39445 C94.7740397,427.502218 91.4470626,433.405618 87.492284,438.859491 C86.2280244,440.293365 85.3796885,442.403179 83.5494595,443.17368 L83.3893145,443.198196 L83.3893145,443.198196 C82.9008412,444.111055 82.2227496,444.880114 81.2144748,444.854362 C80.9671466,444.847976 80.7148718,444.820163 80.4601237,444.776282 C79.5664443,450.993857 78.4427496,457.250369 76.948887,463.368645 L77.1504323,463.284282 C78.1281728,462.880066 79.1564578,462.535747 80.1600321,462.625749 C82.5953908,463.242151 81.6936733,465.372154 79.7686351,466.07467 C82.1648336,466.819213 83.7862763,468.919139 85.5655969,470.667394 C87.0693527,469.856719 88.7548947,469.43624 90.5560626,469.613414 C90.8318336,469.640402 91.0420626,469.760922 91.1881924,469.926353 C91.2914519,469.927177 91.391826,469.932945 91.4870473,469.948809 L91.2910397,470.067062 L91.2910397,470.067062 C91.6109176,470.605177 91.3825511,471.424504 90.5560626,471.428831 C89.9072382,471.432539 89.2825282,471.491254 88.678429,471.603121 C88.2590015,471.84828 87.8416351,472.096118 87.4300397,472.35508 C88.8185817,473.581496 90.2969863,474.712732 91.8192916,475.747141 C92.6233145,475.336138 93.4735053,474.991472 94.3579099,474.71541 C95.4995359,474.35859 95.9979023,476.174007 94.8511237,476.503221 C94.6077115,476.57306 94.3665664,476.650729 94.1270702,476.733753 L93.8918611,476.8763 C93.8367728,476.909312 93.779574,476.943313 93.7198031,476.978501 C104.642849,484.747791 123.106108,483.763445 128.100696,498.311912 C128.265994,498.860739 128.180872,499.334577 127.948589,499.707261 C129.031063,500.700466 129.53046,502.48601 129.286635,503.855813 L129.307442,503.970973 C129.493142,505.079738 129.226005,506.052834 128.035566,506.305554 C120.092002,507.045977 112.167811,507.516313 104.18962,507.661554 L103.545809,507.666821 C92.1153522,507.743688 36.5176608,507.328146 34.0098183,499.985589 C33.3410015,498.626293 33.1348947,496.517097 34.1134901,495.305102 C34.227055,494.652854 34.4506809,494.058909 34.8482611,493.593724 C33.2379481,491.966812 34.0300168,487.865438 33.8329786,485.799917 C34.1864519,478.903724 35.5850931,471.509177 39.798742,465.865976 C39.8675817,465.77677 39.9508489,465.721764 40.0367954,465.694982 C40.7725969,464.955383 41.7394443,464.487932 42.8450015,464.425097 C42.8794214,464.339394 42.9144595,464.253279 42.948055,464.167576 C43.8075206,462.139963 44.6239099,460.075472 45.4349405,458.001093 C46.0367725,455.644059 46.664574,453.293412 47.2934061,450.954714 C47.921826,448.6189 48.5366427,446.279584 49.1380626,443.936559 C49.617055,442.068814 50.0290626,439.963945 50.8580244,438.179018 C50.8355588,438.102792 50.8139176,438.026772 50.7891847,437.950546 L49.9265709,437.601331 C44.2764055,435.303935 35.3238115,431.428942 37.2908336,428.869961 C58.2516962,385.299757 78.769429,323.271512 98.004971,278.102003 C98.3054748,277.216338 98.6232916,276.335824 98.9722305,275.463551 C99.8217344,273.340037 100.682259,271.21967 101.554998,269.105193 L102.080116,267.837235 L110.460215,247.666581 L110.460215,247.666581 C111.337406,245.555325 112.326307,243.455193 113.017589,241.273686 C113.683727,239.172524 113.862627,237.08187 112.597131,235.169626 C111.46478,233.458453 109.869101,232.042296 108.592475,230.435162 C107.62707,229.21946 106.685986,227.921144 105.842597,226.55711 C105.076704,225.546599 104.436536,224.390435 103.865414,223.458623 C102.950093,221.965622 101.786208,220.31234 101.121925,218.587159 C100.265139,218.046778 99.4067038,217.509075 98.5451771,216.977141 C97.0572916,216.142774 95.5933145,215.269265 94.1682916,214.324267 C92.3685664,213.2536 90.5572992,212.202092 88.7318107,211.173864 C88.072887,210.84671 87.4135511,210.520792 86.7533908,210.195904 C84.7755893,210.36731 79.3116962,207.928694 77.450345,206.278708 C77.2376427,206.235857 77.025971,206.187443 76.8155359,206.134703 C76.7314443,207.188477 76.3872458,208.142745 75.585284,208.850411 C70.2518565,211.497928 63.4540397,199.507361 61.5805282,195.506523 C57.8574137,199.144978 66.7410321,217.142778 69.610658,220.822025 L69.7637499,221.050083 C70.5313154,222.200646 71.3359574,223.492324 72.4246634,224.34236 L72.5344901,224.42587 C73.2808031,224.977994 73.4193069,225.840997 72.8104672,226.566586 C67.6419252,231.234506 62.2163679,220.984778 59.3848718,217.607963 C47.7303527,200.446796 40.2835053,179.564355 40.6099786,158.687682 C35.3080855,156.913057 27.9682076,156.04614 28.2375893,148.850399 C27.9665588,143.418776 26.9846656,138.04525 26.7932489,132.609507 C26.738574,131.359399 30.6228641,131.979509 31.4994366,132.111359 C30.2081771,119.621821 32.1591847,106.941511 35.638887,94.9379646 C44.7743679,64.2238024 82.3936122,8.86595734 119.420918,6.86739216 C119.388559,6.80702935 119.403811,6.72565287 119.486872,6.70402115 C121.162727,6.26870848 123.014803,6.33834202 124.737032,6.39314239 C126.529544,6.45000292 128.351528,6.4623639 130.134559,6.66487803 C131.982513,6.87460273 133.939292,7.55404485 135.180673,8.89850793 L135.610658,8.12240201 C136.109813,7.21636615 136.590765,6.30112173 136.954017,5.30125542 C137.13807,4.79610319 137.282139,4.27240948 137.413635,3.74315333 C137.562238,2.98830921 137.599544,2.20256263 137.956727,1.51694002 C137.966208,1.49901659 137.977956,1.48418341 137.988261,1.46749608 C138.116666,1.03547967 138.26362,0.612321969 138.446437,0.205645579 Z M183.891147,503.64135 C183.361864,504.179465 182.444482,504.413912 181.632009,504.156803 C178.931803,511.830296 193.581261,511.349042 198.282971,511.780646 C203.296521,512.315053 294.62165,517.066203 279.177032,505.815235 C261.057353,512.722966 200.45307,513.484814 183.891147,503.64135 Z M228.36633,473.213963 C227.147208,474.471487 225.30894,475.030822 224.001192,476.230867 C220.304253,479.358814 217.330337,483.759325 212.220948,484.588129 C205.50846,485.841121 199.457162,482.527759 193.452856,479.903728 C192.705307,479.867881 191.925398,479.552058 191.159093,479.317817 C191.131887,479.373441 191.104887,479.429272 191.073971,479.48057 C191.036666,479.465943 190.996887,479.453582 190.952368,479.446371 C190.885589,479.435246 190.822315,479.428242 190.756979,479.418559 C190.602811,479.295361 190.440398,479.191941 190.272215,479.104384 C190.170605,479.088933 190.069612,479.076572 189.969238,479.070391 C188.731773,478.994783 187.388574,479.282382 186.594444,480.30855 C186.526429,480.395901 186.464803,480.48799 186.405238,480.581728 C186.020437,481.945556 185.971177,483.595954 186.156879,484.750058 C186.217063,485.126862 186.060009,485.497691 185.794131,485.711536 C185.556902,491.420457 184.914261,497.153275 184.465566,502.786588 C186.711307,503.59376 189.041551,504.208307 191.373856,504.597472 C207.468124,506.576466 223.734284,507.495711 239.952215,506.998388 C249.606673,506.649396 259.247528,505.786599 268.801818,504.352107 C271.89033,504.061212 275.051597,502.86611 278.138047,503.348807 C278.269544,503.100557 278.47462,502.888154 278.75946,502.743325 C270.848253,491.907686 257.325994,488.97875 245.537299,484.228012 C243.590208,485.472969 242.39149,488.065686 240.222834,488.838041 C239.380887,488.964329 238.2102,488.46783 238.333658,487.399635 C238.683627,485.212564 241.045612,484.215033 242.636139,482.94556 C240.929368,482.148276 239.255162,481.281771 237.621971,480.318439 C236.017635,481.764674 234.118979,482.865213 232.616872,484.407658 C233.470773,486.49275 229.911101,486.31228 229.871322,484.093277 C230.11762,481.638386 234.006238,480.599033 235.743101,479.167631 C233.030322,477.516409 230.60733,475.43379 228.36633,473.213963 Z M37.2327115,494.666863 C37.1381084,494.853514 36.9837344,495.023272 36.7551618,495.155534 C36.359483,495.384522 36.5496359,496.594885 36.5695156,497.002977 L36.5706962,497.032756 C36.5923374,497.76535 36.6380931,498.495884 36.701574,499.225389 C37.3693603,499.82778 38.2232611,500.285549 39.171971,500.561199 C68.0650626,505.172052 97.5125817,505.546384 126.684536,503.872501 C126.55036,503.097055 125.98336,502.458404 125.48149,501.811512 C107.03946,503.379503 88.153887,501.738789 69.6809405,500.211383 C58.8813527,498.791518 47.5660855,498.203753 37.2327115,494.666863 Z M79.2976809,466.292224 C74.5357878,467.93129 70.1049023,470.205917 65.8842458,472.930896 C64.3157725,473.951296 62.8188183,475.121469 61.0157954,475.706761 C54.7728183,477.585837 45.412887,468.559228 45.2628412,468.458074 C43.0948031,466.998242 40.795887,468.359186 39.6163374,470.382473 C39.5073069,470.569536 37.6991313,480.917534 37.7537496,485.986362 C37.4293374,487.709483 38.2949863,490.526346 37.8343374,492.405009 C38.1964672,492.841146 38.7127649,493.046132 39.0604672,493.502253 C39.1863985,493.667272 39.150742,493.854129 39.0419176,493.994838 C55.9006351,495.382358 72.6612458,498.015248 89.6001389,498.57108 C101.193238,499.184391 112.808391,499.04327 124.403345,498.902767 C121.765383,491.15655 112.779948,489.110601 105.916589,486.56053 C100.73094,484.697523 95.9566809,481.921452 91.7558107,478.353248 C89.9340321,479.632198 88.4974672,481.424541 87.206826,483.22533 C86.6204519,483.9571 85.4161695,484.509842 84.7881618,483.495624 C84.1413985,482.443498 85.4040092,481.113456 86.9630015,479.948433 C87.7828947,478.733966 88.8169328,477.699352 90.0076122,476.846856 C88.6912076,475.673387 87.4236504,474.450679 86.2362687,473.150922 C83.7739099,474.819243 81.9649099,477.21954 80.1936275,479.548967 C79.3424061,480.477483 77.7504366,479.249626 78.4487267,478.203062 C79.0083069,477.481387 79.6381695,476.815954 80.3125511,476.192342 C81.3290702,474.274329 82.7926351,472.503618 84.5682458,471.276997 L84.4328223,471.105036 C82.9496477,469.201329 81.6674128,466.917489 79.2976809,466.292224 Z M37.341742,493.451367 C37.3009328,493.501635 37.2580626,493.550255 37.2123069,493.59702 C37.253116,493.680251 37.2844443,493.767602 37.3075282,493.856395 L37.7401466,493.891006 L37.7401466,493.891006 C37.5898947,493.766366 37.457574,493.614738 37.341742,493.451367 Z M216.92204,458.411066 C208.08933,460.078975 198.964773,460.72051 190.049414,459.342878 C191.082009,465.101243 191.728566,470.89566 191.389933,476.743436 C204.719895,480.591822 210.258398,487.008822 221.349215,474.1843 C220.813337,473.368269 220.504177,472.366411 220.144315,471.400194 C218.611704,467.206936 217.344971,462.869673 216.92204,458.411066 Z M54.6891389,439.524512 C54.5632076,439.803252 54.3360779,440.032342 54.0087802,440.133496 C53.8921237,440.649155 53.7715511,441.164402 53.6429405,441.678413 C53.4265282,444.331492 52.4252611,446.961498 51.3897802,449.409179 L51.1785206,449.916185 L51.1785206,449.916185 C50.4954824,451.951833 49.7794672,453.983567 49.0731389,456.017361 C48.5380855,458.130265 48.0667191,460.260475 47.5741237,462.383474 C47.4791084,463.823735 47.2746504,465.251635 46.9603374,466.662641 C46.9457038,466.728772 46.9261237,466.789341 46.9044824,466.847438 C47.3981084,467.067463 47.8746275,467.322512 48.3239405,467.580238 C61.8478489,477.741173 59.5122458,470.947782 72.4971847,465.259051 C72.4225225,464.712558 72.6961523,464.219232 72.9193523,463.653598 L72.9481466,463.579399 C72.9617496,463.543759 72.9751466,463.507706 72.9887496,463.471859 C72.9673145,463.25616 72.979887,463.024597 73.0369786,462.778202 C74.3521466,457.398701 76.1834061,452.112732 77.8973908,446.849219 C78.1717191,446.056674 78.4893298,445.282052 78.8139481,444.508667 C70.5808031,444.402774 62.4371084,442.210554 54.6891389,439.524512 Z M51.1274061,442.13783 C50.9680561,442.840817 50.7946234,443.534268 50.6364415,444.204172 L50.4033527,445.203148 L50.4033527,445.203148 C50.7349786,444.193049 50.9965282,443.168736 51.1274061,442.13783 Z M129.447605,8.1799227 C126.582101,8.87708222 123.645696,9.1617969 120.763704,9.74008496 C100.901391,12.1086556 85.6733908,26.1929674 72.5561313,40.1773612 C47.7080931,66.2749017 33.2511389,98.3864733 34.3181542,134.679766 C43.1916733,136.296171 51.9736809,138.662269 61.0145588,139.179164 C59.7006275,137.189046 61.9010244,134.699749 62.6584672,132.794304 C75.7353298,107.530512 85.8322992,79.6412463 94.0314366,53.0434979 L93.8086117,54.2044197 C91.2341488,67.553492 88.2353573,80.8458475 83.6580779,93.6686975 C84.9839634,92.3652317 106.764925,75.0433721 105.062482,80.7710403 C98.4079099,85.9719245 90.8918107,90.0932828 83.9190092,94.8660649 C92.209658,122.558997 80.2239252,150.618225 77.9466504,178.322488 C77.3744977,184.482585 77.4241695,190.685533 76.6551847,196.822349 C76.3627191,197.516213 76.6706427,198.927837 76.2400855,199.58812 C76.5589328,201.216885 77.2296046,202.701028 78.6136122,203.972355 C79.1962763,204.507585 79.8323221,204.971122 80.5009328,205.384803 C82.1701924,205.636555 83.8468718,206.279533 85.2063527,206.874714 C88.2313832,208.199399 90.8936656,210.152435 93.5975817,212.01812 L93.6699252,212.067152 L93.6699252,212.067152 C98.0297038,214.307168 102.384948,216.851677 106.756269,219.505374 L106.951452,219.607558 C108.577429,220.460878 110.239887,221.230555 111.656666,222.413708 C111.721177,222.46789 111.764253,222.529695 111.79249,222.594384 L114.447643,224.234029 C135.715044,237.357998 157.643198,250.337031 182.57804,240.968987 C189.583818,238.147387 199.768589,232.430431 198.460635,223.590473 C198.202795,222.74251 197.810574,221.946256 197.367032,221.171017 C197.24378,221.004555 197.117024,220.840772 196.989444,220.679667 C196.023215,219.458814 194.941773,218.338291 194.102711,217.019374 C193.761398,216.482907 193.45533,215.930371 193.187597,215.361766 C192.998391,215.304287 192.830208,215.171201 192.724269,214.939638 C191.524108,212.322406 190.348475,209.700641 189.253635,207.036849 C175.97994,160.766182 192.091521,111.050714 196.649574,64.3816109 C196.965536,61.7091661 197.430719,59.0095271 197.429482,56.3177167 C197.429482,56.1914286 197.612505,56.195549 197.622605,56.3177167 C199.230238,68.2291734 198.010704,80.2514669 196.482215,92.1091533 C194.525231,106.943159 191.954047,121.715565 190.187505,136.576353 C194.88365,151.555806 208.03533,162.379702 221.845108,168.870249 C224.194727,169.986446 226.597108,170.981093 229.046689,171.857075 L229.211039,171.914051 C231.902602,172.855686 234.940339,174.31155 237.537055,172.40343 C242.520307,169.021877 246.038345,163.861784 249.267834,158.892462 C247.961322,158.750929 246.653162,158.628349 245.343971,158.53832 C242.129528,162.214683 238.191032,165.335626 234.034681,167.886109 C232.340895,168.856858 230.416681,168.446267 229.633681,166.546178 C228.894653,164.753417 229.799567,162.659149 230.45478,160.930523 L230.549414,160.678213 C233.866498,151.73401 239.626154,143.537235 247.402773,137.936061 C241.535528,136.76321 235.44136,136.798851 229.812994,134.480754 C230.119887,134.80317 229.717773,135.163904 229.522383,135.437288 C229.591841,135.967368 229.206627,136.354885 228.7332,136.496831 C224.140727,142.49644 220.6602,149.601534 219.933467,157.210544 C220.126795,159.802231 217.807475,162.795237 215.574101,160.074172 C213.827345,152.499361 220.698536,140.661658 226.740559,135.987558 C220.681635,131.829323 222.447765,125.828477 218.643856,125.800871 C217.660933,127.687363 216.37833,129.493509 214.761834,130.894832 C214.031185,131.488778 213.143895,131.936657 212.359658,132.463647 C211.534818,133.018038 210.676177,131.79842 211.32933,131.128867 L211.501629,130.921763 C213.982586,127.954647 216.928598,125.037969 217.441017,121.023968 C218.181765,116.080399 215.959727,111.072346 214.25646,106.556672 C210.991108,97.8996565 208.825337,88.8922071 207.770276,79.700373 C206.575063,71.4646611 208.028528,62.9219847 205.20878,54.9524459 C204.648376,52.7330312 203.842292,50.7115982 202.854215,48.8356128 C202.830719,48.8160412 202.807429,48.7960576 202.7862,48.7715417 C201.613246,47.4149236 200.676284,45.9058534 199.582681,44.4849582 C198.438994,42.9985499 197.199055,41.5840412 195.885742,40.2455526 C193.69091,38.0090385 191.267711,36.1429418 188.741666,34.3460667 C188.694879,34.3291734 188.647681,34.3073356 188.600276,34.2793174 C188.127055,33.9997531 187.672589,33.6602381 187.233994,33.2871424 L187.19133,33.257476 C185.722406,32.2366647 184.223391,31.1287085 183.076818,29.7428361 C181.951475,28.3820977 181.150544,26.7953593 180.231719,25.29659 C178.975704,23.764652 177.778429,22.1233192 176.26375,20.8468416 C175.406963,20.3577586 174.515345,19.8968999 173.750689,19.2852372 C173.625582,19.232909 173.498414,19.1832591 173.368979,19.1362873 C173.694834,20.4646811 174.187841,21.6869765 174.632002,23.036384 C175.275467,22.7648543 176.156162,23.0658443 176.264368,24.0569892 L176.304295,24.4269847 C176.950425,30.4967358 177.277486,37.8416707 173.707406,43.0970257 C165.846078,54.4936474 154.103963,44.7634924 148.165406,36.7498662 C142.836101,30.3586191 138.35575,23.2494049 135.047116,15.6090804 L134.992336,15.5080836 C134.376225,14.3388824 133.04101,10.7734879 132.663696,9.06023081 C131.709627,8.55796281 130.548834,8.31465743 129.447605,8.1799227 Z M104.278864,220.592316 C104.254956,220.622395 104.22775,220.648353 104.19807,220.671015 C105.313108,222.254457 106.375383,223.891875 107.470223,225.480674 C106.572627,224.013837 105.728826,222.535669 104.981689,221.041226 C104.747963,220.890422 104.513002,220.741678 104.278864,220.592316 Z M41.8795969,159.081791 C46.1406504,182.210224 52.2300779,206.543852 69.1976198,223.836457 C63.9169557,216.400089 59.8104824,207.718763 58.6156809,198.625817 C58.5662153,196.185553 59.4551542,193.607669 62.1559786,193.246316 C62.6169267,193.184512 62.9670789,193.597338 63.1317162,193.964418 L63.1475588,194.000955 C64.2100397,196.536605 65.591574,198.948027 67.2274443,201.157553 L67.3878335,201.366619 C68.6222936,202.962527 73.8619523,209.468162 74.5928794,206.358437 C74.057826,190.638767 57.807742,184.157697 55.1464901,162.507638 C50.5931771,162.02556 46.2723527,160.296464 41.8795969,159.081791 Z M76.8132687,204.958555 C76.8307878,205.205363 76.8392382,205.449698 76.8355282,205.690326 C77.0768794,205.590614 77.3250321,205.510679 77.5787496,205.448668 C77.321116,205.289418 77.0663679,205.125429 76.8132687,204.958555 Z M76.5723298,203.264688 C76.661574,203.716482 76.7370092,204.172191 76.7833832,204.623367 C77.2471237,204.770874 77.7059176,204.932185 78.1622382,205.099883 C77.8856427,204.851633 77.6224443,204.58855 77.3757344,204.308574 C77.0882153,203.982038 76.8186275,203.631604 76.5723298,203.264688 Z M82.8522,95.9624842 C79.5237802,105.249086 75.7957191,114.392712 71.6333908,123.337121 C68.8385817,128.571173 66.9739328,134.670083 63.1065435,139.212127 C63.068826,139.248592 63.0309023,139.282172 62.9921542,139.313693 L63.0562033,139.316113 C64.2086323,139.367145 70.4702762,139.983296 67.2560931,141.398991 C66.008116,146.315161 64.3730702,151.119051 63.0059634,156.002876 L62.9754826,156.144425 C62.4752908,158.506497 61.8428281,163.264683 58.4862458,161.676568 C58.122055,161.954896 57.6849023,162.150818 57.2147725,162.281844 C58.7234748,175.518193 67.0978031,184.135035 73.7177496,194.942038 C72.2379284,189.238565 72.6703969,183.282483 73.1856558,177.459039 L73.3133679,176.026023 C76.0486122,149.32506 86.086429,123.068681 82.8522,95.9624842 Z M110.65173,180.836135 C105.25647,174.112584 78.7193863,107.547034 97.4728443,147.874952 C104.138134,161.914146 109.624493,176.944073 120.620501,188.319475 C121.380829,189.136124 120.37915,190.571441 119.391073,189.911982 C115.841707,187.542999 112.968989,184.400631 110.65173,180.836135 Z M91.4455992,100.38168 C91.4233397,100.273728 91.5616374,100.214395 91.6224389,100.306896 C98.8326756,114.536656 103.980813,129.82843 112.127599,143.627203 C117.045309,152.171527 122.946355,160.136328 129.703775,167.318472 C130.211416,167.858029 129.447584,168.60319 128.897691,168.124202 C109.607737,150.334273 100.229256,124.473857 91.4455992,100.38168 Z M233.620612,158.965186 L233.608864,158.96704 L233.608864,158.96704 L233.431535,159.425659 C233.371274,159.5803 233.310009,159.736512 233.248177,159.893702 C233.27765,159.880723 233.30733,159.868774 233.337009,159.856413 C233.400284,159.792754 233.463559,159.728271 233.526834,159.660492 C233.512612,159.426457 233.541673,159.191804 233.620612,158.965186 Z M31.5759023,132.670076 C30.5964824,133.054296 29.3932305,133.126814 28.3105511,133.220552 C29.5226656,138.92906 30.5690702,144.681038 31.6661771,150.404792 C32.1734061,152.1617 33.3659405,152.778513 35.0164443,153.335582 L36.3429819,153.7595 C42.5357808,155.743118 48.7635664,157.780551 55.1491695,158.997119 C55.5980702,158.704987 56.2357649,158.719203 56.5337954,159.187272 C56.8443985,159.21632 57.1632458,159.23342 57.4783832,159.263292 C59.1845359,152.965164 62.1040397,146.862134 66.0107954,141.637764 C55.0910473,141.98964 44.0923603,139.110973 33.7041618,135.892378 C33.2834977,136.096541 32.7294824,135.968811 32.5520244,135.485702 L32.3920375,135.439941 C30.648067,134.9226 28.3356879,133.652335 32.0006885,134.297605 C31.7793298,133.78174 31.6564901,133.227144 31.5759023,132.670076 Z M282.666215,128.009573 C275.427948,126.813647 269.896452,132.675844 263.719017,135.366831 C260.020429,136.952745 250.164192,141.871593 246.581024,140.23541 C241.668467,144.962251 237.520773,150.484933 234.620437,156.681494 C235.411063,156.634316 236.201895,156.599294 236.992727,156.57416 C238.424963,156.114537 239.953864,156.091051 241.440925,156.533368 C256.336475,156.697358 271.241918,159.590652 286.07749,155.923766 L286.418871,155.860079 C289.466404,155.282101 299.871151,153.083681 300.46375,150.92931 C300.308139,149.991523 297.510444,150.982256 296.972711,151.088355 C292.696818,151.930344 288.352292,152.33187 284.019513,152.753585 C282.814406,152.870191 282.829658,150.996265 284.019513,150.877188 C289.234841,150.358439 294.176253,148.401489 298.961849,146.365429 C299.470521,146.139841 300.818253,145.672801 301.750681,145.066907 C297.32907,145.818455 292.772872,145.948863 288.29891,145.789407 C286.758673,145.590189 286.650055,143.251491 288.29891,143.297638 C291.3192,143.631385 294.204696,142.141062 296.670353,140.567921 L297.206957,140.219718 C301.316873,137.541681 301.029719,137.425619 295.835826,138.421024 C288.203482,139.810193 280.479215,139.758688 272.771643,139.228608 C271.67165,139.210067 270.912147,137.730457 271.822315,136.937912 C275.371269,133.874654 279.176002,131.142876 282.666215,128.009573 Z M247.679162,139.166185 L247.595277,139.2458 C247.41817,139.415682 247.272888,139.565962 247.191599,139.645971 L247.158742,139.677724 C247.049711,139.780114 246.943979,139.886007 246.835979,139.989427 C247.3092,140.148265 247.831269,140.15733 248.369826,140.073894 C248.044795,139.870761 247.803238,139.538869 247.679162,139.166185 Z M111.67589,114.646112 L111.716522,114.689789 C116.372525,119.725958 121.091837,127.89351 124.94926,134.334297 C125.457757,139.613529 114.052592,117.710009 111.693443,114.668158 L111.67589,114.646112 Z M228.857895,134.13135 C228.902963,134.187249 228.946475,134.244797 228.988612,134.303565 L229.050811,134.392579 L229.150979,134.330774 C229.187872,134.30873 229.22662,134.295133 229.266192,134.285038 C229.12975,134.234976 228.993925,134.182442 228.857895,134.13135 Z M207.555183,116.938684 C211.744511,117.596082 203.177885,122.79882 202.047183,123.544188 C201.32313,123.81922 194.438954,129.500534 194.856527,127.656481 L195.051364,127.407531 C198.257539,123.328904 202.62716,118.664895 207.555183,116.938684 Z M43.6738191,106.035615 C45.2233305,103.541169 53.6561931,106.82507 56.3217733,107.218356 C57.8201702,107.613701 59.3022847,108.081564 60.816758,108.413663 C62.0002237,108.842795 67.518529,108.426848 65.4933229,110.76534 C63.3801092,111.900696 60.6211626,111.023067 58.4570405,110.420263 C54.1512618,109.244527 49.8306435,107.87287 45.4213992,107.220416 C45.2890786,107.154284 45.2810405,107.19899 45.3968725,107.354944 C46.3453763,109.461668 48.3400786,111.43819 50.5868496,112.11722 C50.7420481,112.162131 50.6767122,112.399256 50.5196588,112.359289 C48.0673992,111.872678 42.3561779,109.15285 43.6738191,106.035615 Z" id="ðŸ–-Ink" fill="#000000"></path>
                </g>
                <g id="Head" stroke-width="1" transform="translate(83.267176, 37.082954)">
                    <g id="head/Long-Curly">
                        <path d="M70.6292613,30.2262948 C57.1022109,19.2134817 35.4249943,15.6376549 20.9450652,26.7483258 C9.69398166,37.1754343 5.03797789,66.8059502 7.02908897,81.6951681 C7.58275811,91.2450587 14.8666336,102.069367 25.5589062,99.0489603 C27.3745791,98.869932 29.1375998,98.1727725 30.9699321,98.0267068 C33.1617791,97.7739247 35.3702855,97.7695984 37.5578134,98.079241 C42.3244687,98.7545628 46.5500009,101.289595 51.1763879,102.474807 C59.7609334,104.673826 69.3392862,103.194628 76.7286715,98.2411699 C101.147496,82.1599411 90.0864538,45.7908345 70.6292613,30.2262948 L70.6292613,30.2262948 Z" id="âœ‹-Skin" fill="#D08B5B"></path>
                        <path d="M68.8278004,102.739456 C69.078926,102.652723 69.3296402,102.562282 69.5785034,102.469574 C69.5949572,102.527259 69.6216945,102.582677 69.652751,102.636448 C69.6877152,102.722974 69.7226795,102.807235 69.7615515,102.891702 C69.4491357,102.893968 69.1363085,102.838138 68.8278004,102.739456 M68.3261663,-3.9813701 C68.2151034,-4.23044394 68.0873811,-4.46942297 67.9434106,-4.70036737 C68.2930531,-4.58685232 68.6429013,-4.43027985 68.9596362,-4.22838377 C68.7457373,-4.15627803 68.5357461,-4.07387147 68.3261663,-3.9813701 M14.8946256,28.6023911 C14.8802285,28.5999189 14.8660372,28.5978587 14.8518458,28.5953865 C15.0353053,28.1060975 15.3621181,27.6442088 15.7230726,27.3106682 C15.7878593,27.2507174 15.8579934,27.195299 15.9258652,27.1380264 C15.5426982,27.5951768 15.1951124,28.0828177 14.8946256,28.6023911 M112.660627,79.7663601 C112.479635,78.0481832 112.249283,76.3363929 111.951058,74.6344913 C111.665174,73.0051076 111.424538,71.2622088 110.595679,69.8159736 C109.772991,68.3759189 108.948246,66.9768614 107.969453,65.7100665 C108.109104,65.063175 108.294415,64.4554266 108.454633,63.9651076 C109.380158,61.1426828 110.29149,57.5579973 108.368251,54.9354084 C107.921943,54.32766 107.377118,53.8620629 106.753726,53.4417894 C106.488409,53.2625552 106.048476,53.0998022 105.844655,52.8525825 C105.700685,52.6774686 105.750252,52.7722361 105.743876,52.6857092 C105.708912,52.2201121 106.798973,51.2374139 107.054007,50.8686445 C107.531372,50.1865242 107.886979,49.418289 108.158466,48.6333665 C109.232074,45.526639 108.501938,42.1047065 107.856333,38.9915925 C107.514918,37.3416071 107.138538,35.6872954 107.014929,34.0020811 C106.899753,32.4198751 107.115708,30.8747521 107.243225,29.3007867 C107.366834,27.747217 107.333926,26.1446153 106.6694,24.7064148 C106.344438,24.005959 105.853088,23.3879098 105.254376,22.9058314 C104.670473,22.4342598 103.942189,22.160258 103.372683,21.6905406 C102.804822,21.2226773 102.967303,20.5904129 103.115593,19.9435214 C103.319002,19.0658915 103.576093,18.1944421 103.600773,17.2879699 C103.646021,15.7078241 103.002268,14.1686755 101.996737,12.9739863 C100.959944,11.739948 99.4791054,10.9053756 97.8789769,10.7179006 C97.1467844,10.6313737 96.4269322,10.7778514 95.6988532,10.7263473 C94.979001,10.6769034 94.8228959,10.3163747 94.6869467,9.65712215 C94.3745309,8.14702188 94.5018419,6.65546308 93.7595715,5.24631085 C93.1014209,3.99373108 91.9309413,3.14473747 90.6372641,2.64432361 C88.2660711,1.72549043 85.508009,1.91502552 83.0068312,2.45664266 C81.5303116,-1.89421787 76.9212011,-4.74754512 72.3861325,-4.78256791 C71.678415,-5.98570374 70.4793469,-6.88393528 69.1118335,-7.4115433 C66.849441,-8.28711304 64.453156,-7.77598633 62.09636,-7.77598633 L62.0860764,-7.77598633 C61.8493479,-7.79061349 61.6128251,-7.79658797 61.3765079,-7.7945278 C61.1541764,-7.8070948 60.9320506,-7.82563628 60.7099248,-7.85015223 C58.0279613,-8.16762352 55.3747919,-9.26775114 52.7175091,-8.19007931 C51.5328381,-7.71006108 50.5908601,-6.97046217 49.9946169,-6.02690702 C49.09583,-5.78195351 48.2091778,-5.50156518 47.3393908,-5.17605925 C43.5692165,-5.07737739 39.8342122,-3.0522361 37.927838,0.229811304 C35.2438178,-0.0750929809 32.3315016,0.442008204 30.5563462,2.63814312 C30.0939954,3.20963263 29.7359204,3.88104011 29.4985748,4.59385688 C27.6886608,5.18017958 26.0138734,6.22488879 24.917847,7.79844211 C23.9176639,9.23437648 23.7255662,11.0909964 24.4020216,12.6324111 C22.786262,13.8048505 21.5236413,15.4832662 20.915469,17.465144 C20.5458764,18.6693099 20.4909619,19.913443 20.7287188,21.0986554 C19.0744986,21.4661887 17.4922635,22.147485 16.0904028,23.1699444 C14.6212874,24.2410237 12.7864871,25.9458095 12.6898212,27.9079098 C12.6826227,28.0519152 12.6881759,28.1959207 12.6996935,28.3395141 C9.46550058,28.111866 6.16775501,28.6606937 3.98166683,31.2579426 C2.34019824,33.2066518 1.62672191,35.7161376 2.06480337,38.0008596 C-1.78332061,38.783722 -5.42186476,40.7985624 -7.95985781,43.7775597 C-9.80453038,45.9427922 -11.4437366,48.6951714 -11.3452197,51.6430602 C-11.3143689,52.5311969 -11.1064344,53.4253081 -10.7465084,54.2514339 L-10.7465084,54.2532881 C-10.9007624,54.5439772 -11.0593355,54.867423 -11.2115328,55.2114704 C-13.5952719,56.8820574 -15.3270305,59.500732 -16.301916,62.3870219 C-17.0894342,64.7251021 -17.5851039,67.76199 -16.7441109,70.1414795 C-16.6163885,70.5040684 -16.4539076,70.8460556 -16.2646893,71.1631149 C-16.4232625,71.3322543 -16.5731974,71.5011878 -16.7192246,71.6721814 C-18.3257289,73.5529052 -19.9525948,75.9220939 -19.8413262,78.5117201 C-19.7960784,79.5543692 -19.4096206,80.6029927 -18.7780017,81.4639353 C-20.9994655,83.720021 -22.7886066,86.5671677 -22.6119343,89.7460009 C-22.459737,92.5128013 -20.9437284,95.3228651 -18.5684219,96.6516709 C-18.9651633,98.7839407 -18.4345294,101.03364 -16.7770184,102.698253 C-15.9500111,103.530559 -14.9753313,104.078562 -13.9426519,104.371106 C-13.7122993,106.882446 -11.4871334,108.903467 -9.12396159,109.484227 C-8.68361774,109.593622 -8.24347956,109.659547 -7.80560377,109.690243 C-5.67895482,110.734953 -3.1430185,110.615257 -0.973178418,109.657281 C-0.333538356,110.471252 0.499433428,111.134624 1.47020548,111.610522 C1.86303909,111.804178 2.27870229,111.964871 2.71246464,112.094455 C5.77697812,113.002987 8.91985265,111.771215 11.5995537,110.333221 C11.685936,110.287897 11.8443035,110.230212 11.9841605,110.166347 C12.3543701,110.58044 13.0289744,110.990413 13.3806736,111.192309 C14.5737772,111.878344 16.031992,112.197463 17.4017678,112.107022 C19.0080665,111.999893 20.4249412,111.468371 21.7371289,110.712291 C21.9286095,110.745253 22.1217356,110.763795 22.315273,110.774096 C23.5493053,110.839815 24.649445,110.44859 25.6389332,109.830541 C26.2927647,109.917067 26.9632555,109.908827 27.6419733,109.789337 C29.1374147,110.170262 30.5935728,109.564779 31.7636411,108.602683 C32.2821403,108.176229 32.7200161,107.675609 33.189154,107.197651 C33.6763911,106.700945 34.0468065,106.585782 34.6163124,106.252036 C35.9636699,105.462993 36.1259452,103.462573 35.5418366,102.016132 C35.6528995,101.762938 35.7168635,101.480696 35.7168635,101.167551 C35.7125444,98.435773 34.4560938,95.9306135 32.9135535,93.7447794 C32.2243465,92.7703218 31.4759059,91.8162598 30.6550688,90.9511969 C29.9948615,90.2567156 29.0674862,89.1300119 28.090544,88.8475634 C28.0308991,88.8045059 27.9689918,88.7610365 27.9072902,88.7200392 C28.0967142,88.0564603 28.2075714,87.3809325 28.1604725,86.6907776 C28.1109056,85.9818751 27.8826096,85.3102616 27.516719,84.737742 C28.7443755,82.3541322 29.2628747,79.739784 29.0160682,77.0121267 C30.0154287,75.5924676 30.7725075,74.0248888 31.1630787,72.3067119 C31.403715,71.2436673 31.5417209,70.1249982 31.5230048,69.0349654 C31.5147779,68.5118897 31.3235029,67.850371 31.3195951,67.3087539 C31.3483892,67.4797475 31.570515,66.8410966 31.6568973,66.682258 C32.6480309,64.8386171 33.9211408,63.4006226 34.1331887,61.2271495 C34.2563863,59.9558222 33.9561051,58.5509964 33.1951185,57.5085533 C33.6825613,55.5843601 33.6763911,53.5178095 32.9092344,51.6824093 C32.7035623,51.1920902 32.4672451,50.712072 32.195758,50.2567758 C32.3210123,49.8735852 32.4363943,49.4862744 32.5842725,49.1379006 C32.6420664,48.9998696 32.6994489,48.8599845 32.7570371,48.7198933 C33.3144083,48.2273081 33.8329075,47.6898113 34.2689323,47.1622033 C35.2353852,45.9942963 35.9739535,44.6551896 36.0665059,43.1119207 C36.1117538,42.3393592 35.9307624,41.5997603 35.7065799,40.8665479 C35.6076516,40.5348614 35.5480067,40.1660921 35.4307737,39.8426463 C35.3651643,39.663206 35.2065911,39.4800574 35.1512653,39.311124 C35.1387193,39.274041 35.1284357,39.2431386 35.1202089,39.2184166 C35.1284357,39.1936946 35.1348116,39.1421905 35.1348116,39.0451568 C35.1366626,38.3055579 35.2333285,37.5824403 35.2376476,36.8698295 C35.9143086,37.553804 36.7287699,38.0645187 37.6542941,38.3634485 C39.5195339,38.9629562 41.4653971,38.6910146 43.116738,37.7660009 C44.8939501,38.985618 46.89082,40.08966 48.9847671,40.5328013 C50.2288773,40.7962963 51.4754556,40.6873136 52.7236792,40.8500665 C53.9638817,41.0128195 55.1631554,41.5546427 56.3311669,41.9769763 C58.9310673,42.9184713 61.5243861,43.8844822 64.1323076,44.8014613 C66.2383894,45.5410602 68.5172356,46.1282069 70.7222456,45.7120538 C71.3413185,46.6677639 72.1454962,47.4755542 73.1759131,48.0688815 C73.9140701,48.4912151 74.724418,48.7773719 75.5615032,48.9197293 C76.3019226,49.0453993 77.1700643,48.9959553 77.770421,49.5048159 C78.3565863,49.9992552 78.7226825,50.736588 79.249203,51.2930383 C79.835574,51.9152078 80.5593339,52.4549708 81.3182638,52.8422817 C81.927053,53.1533665 82.5483883,53.3777183 83.1795958,53.524196 C83.12427,54.9312881 83.0705896,56.33632 83.0541358,57.7454722 C83.0234907,60.806876 83.0356253,63.8680738 82.9946966,66.9296837 C82.9535622,69.9805807 82.8568963,73.0318897 82.6964721,76.0788724 C82.5440691,78.9383801 82.3301702,81.8079827 81.6493957,84.5976509 C79.3911167,93.8539681 70.9318254,100.481516 61.4626845,100.819383 C58.6513533,100.920331 55.8684048,100.524779 53.1802712,99.6963874 C50.3956774,98.837505 47.9088967,97.0696782 45.0541687,96.5260009 C44.3075791,96.3857037 43.6041807,97.1378696 44.0319786,97.8607812 C44.7684902,99.1032662 45.6629579,99.8614066 46.8867066,100.60904 C48.1682491,101.390048 49.5954074,101.968954 51.0042609,102.475755 C53.5957287,103.406743 56.3375428,103.946712 59.087378,104.097104 C61.1850272,104.212267 63.291109,104.068262 65.3457727,103.67271 C65.4899488,104.115645 65.7449821,104.54622 65.9381082,104.956192 C65.9669023,105.015937 66.0637738,104.974734 66.0452633,104.912929 C66.0142068,104.809921 65.9938453,104.719273 65.9856184,104.645108 C66.6764708,105.547459 67.7439087,106.171483 68.8403464,106.474533 C69.6134676,106.68879 70.4343048,106.75451 71.2302556,106.664068 C71.4873456,106.63502 71.7318897,106.591963 71.9747884,106.538398 C72.7849306,107.249155 73.8215177,107.722993 74.8622182,107.959912 C74.6834892,109.047678 75.2200876,110.234333 76.4646091,110.543357 C76.9868105,110.673148 77.4886503,110.675208 77.9906957,110.627824 C78.3958697,110.817359 78.8318944,110.965691 79.2946565,111.066639 C79.8970699,111.19849 80.6169221,111.02935 81.0714573,110.592801 C81.3203205,110.767915 81.5527299,110.889465 81.7830826,111.167381 C82.7314364,112.313038 84.7756108,111.400386 84.8661065,110.0757 C85.1663877,110.0757 85.4687256,110.07982 85.7712692,110.090121 C85.8430488,110.123084 85.915034,110.156046 85.9890759,110.191069 C87.3115472,110.806852 88.681323,111.344761 90.1438569,110.860623 C90.4130816,110.77183 90.6598881,110.658727 90.8840706,110.526876 C91.9144875,110.619583 92.9305074,110.621644 93.9755271,110.283777 C94.5925432,110.083735 95.1723327,109.766675 95.655662,109.350522 C97.2681309,109.82436 98.9692444,110.038617 100.573486,109.451264 C101.774405,109.012655 102.74127,108.32044 103.421838,107.407582 C104.462745,107.444871 105.519693,107.193531 106.471955,106.697031 C108.100878,105.852364 109.242357,104.24729 110.038308,102.638508 C111.79084,99.088845 112.827427,95.2754813 113.234452,91.3426281 C113.635512,87.4695196 113.063744,83.6170128 112.660627,79.7663601" id="ðŸ–-Ink" fill="#000000"></path>
                    </g>
                    <g id="facial-hair/*-None" transform="translate(25.351145, 69.633546)"></g>
                    <g id="face/Smile" transform="translate(32.770992, 38.319052)" fill="#000000">
                        <path d="M30.2124985,49.6348233 C28.8269914,49.069854 27.5907686,48.1274481 26.6869706,46.9235855 C26.3727532,46.5050734 26.2912819,46.0631312 26.3571979,45.6589186 C26.4313157,45.20441 26.700328,44.7924789 27.0672004,44.5161682 C27.4352092,44.2390016 27.8955415,44.1023099 28.3405869,44.1719914 C28.7273052,44.2325406 29.1122648,44.444185 29.4169316,44.8831277 L29.4805841,44.9709059 C30.0179077,45.6975159 30.7180897,46.2936907 31.5158983,46.6779599 C32.2848561,47.0483329 33.1448576,47.2212002 34.0348188,47.1206743 C35.7298073,46.929289 36.8980787,46.0130233 38.1398237,44.76875 C38.2937416,44.6116573 38.4477581,44.44964 38.6025213,44.2850148 C38.7002572,44.1357828 38.8358902,44.0398712 38.9864797,43.9895481 C39.1536826,43.9336731 39.3428281,43.9368345 39.5160709,43.9972659 C39.6831644,44.0555523 39.8325377,44.1660024 39.9326965,44.3130042 C40.0278892,44.4527174 40.0818607,44.6253143 40.0643483,44.8238434 C39.9506892,46.1133291 39.2762351,47.2641401 38.3182012,48.1677698 C37.2541821,49.171366 35.8437471,49.8656606 34.5158843,50.1091715 C33.0529692,50.3774081 31.5622978,50.1852319 30.2124985,49.6348233 L30.2124985,49.6348233 Z M35.2060015,29.7420027 C36.7623925,30.6876274 39.1338544,32.8926397 37.4595359,35.2369586 C35.4887029,37.304022 32.6511484,34.9339926 31.2528507,33.8621206 C29.9562835,33.0314138 28.4995176,35.1679295 29.7024734,36.1379198 C39.806602,43.615334 43.9070714,29.9892703 35.9932024,28.6301798 C35.1218569,28.4804139 34.7982371,29.4494633 35.2060015,29.7420027 Z M17.0993061,21.0438345 C17.2712669,18.9102717 20.5221229,18.4257779 20.8455046,20.5370341 C21.1350847,22.4282647 20.794184,24.1656011 19.9419321,25.8683267 C19.1276038,27.4950323 17.080856,26.7360976 16.9260697,25.2548396 C16.7185852,23.2692748 16.9923366,22.3710326 17.0993061,21.0438345 Z M41.8452595,20.0992698 C42.2984885,19.5059426 42.9528779,19.1009143 43.7369084,19.3297985 C46.1864885,20.0452935 45.4644962,23.5214084 44.6042061,25.2134211 C44.1367557,26.1322543 42.6257863,26.3652589 41.9429542,25.5562325 C40.8299771,24.2369034 40.2969847,21.6021595 41.7119084,20.302608 C41.7502443,20.2354467 41.7929084,20.1676673 41.8452595,20.0992698 Z M19.9074298,11.7080155 L20.2943688,11.6403195 C21.4913961,11.4333874 22.9797618,11.2345486 23.8265519,12.1964804 C24.2756588,12.706577 24.4302389,13.6546645 23.8265519,14.1429234 C22.7646893,15.0020119 21.5907046,14.6690893 20.3182008,14.7418131 C19.269529,14.8019699 18.2616664,14.9754357 17.2515366,15.2640647 C15.0354756,15.8971531 13.2297733,17.0529052 11.3370939,18.3219663 C11.0887351,18.4884275 10.8352237,18.1709562 10.9537351,17.9387758 C12.0463076,15.7997074 14.1636435,14.0425934 16.2844832,12.9715141 C17.4164221,12.3998186 18.6551244,11.9255688 19.9074298,11.7080155 Z M39.6122722,10.74981 L39.9084333,10.8103955 C43.1313751,11.4837825 47.318731,12.8289283 48.8449495,15.9932281 C48.9031054,16.4406712 48.8416582,16.5365672 48.7916905,16.5992202 L48.7750539,16.620069 C48.7338805,16.673571 48.7010273,16.7473232 48.5070009,16.808221 C48.4531585,16.7953981 48.3987803,16.781817 48.343826,16.7674218 C47.6442342,16.5841649 47.0907217,16.3317028 46.554863,16.0697431 L45.9738562,15.7836277 C45.2997722,15.453256 44.6197366,15.1349082 43.899055,14.8998919 C42.3610585,14.3984593 40.7790969,14.0452313 39.1726258,13.8566156 C38.8244356,13.8157695 38.4891503,13.6983069 38.2246342,13.4969953 C37.9735554,13.3059101 37.7817474,13.0413483 37.6942936,12.6896879 C37.5809537,12.2345833 37.6135251,11.8900318 37.8578156,11.4794607 C38.0415069,11.1711307 38.3043399,10.9574176 38.6061386,10.8346964 C38.9138093,10.7095873 39.2640894,10.6800929 39.6122722,10.74981 Z" id="ðŸ–-Ink"></path>
                    </g>
                    <g id="mask/medical-mask" transform="translate(4.740458, 57.890611)">
                        <path d="M81.0530519,14.4945316 C80.6645405,9.57424175 74.4576321,7.48997375 71.366029,6.87192452 C61.0714031,4.45287985 52.3130977,10.6593302 40.0377847,10.7862363 C38.7988763,10.8056018 35.2558992,10.5967012 33.6082809,10.1618005 C25.2487924,8.26315333 16.8979603,6.24357448 8.6957313,3.75345415 C7.4898,4.03569663 7.13302901,5.60904394 7.96096031,6.50542133 C15.8169298,9.29014512 27.8356397,11.7837677 34.1824947,12.0676583 C34.0606855,20.2629911 29.7324412,28.5036474 23.755342,33.0360084 C33.2616092,43.5438753 55.4323191,46.9995945 68.4801206,41.4839172 C74.8984947,39.5584879 81.6713725,22.3231552 81.0530519,14.4945316" id="ðŸŽ¨-Color" fill="#FFFFFF"></path>
                        <path d="M8.03241756,4.0014773 C7.67894427,3.9876742 7.88505115,2.95759216 8.68124198,3.10448186 C18.9544328,5.50601513 31.7536695,10.0804035 42.3131427,10.0468228 C50.0811046,9.79259854 57.0415397,5.46831413 64.8523718,5.44215005 C70.1029443,5.54268605 76.7981198,6.2890835 80.4725931,10.5004709 C85.3191962,25.8647626 74.4052191,46.762243 57.233013,46.8831747 L53.9827549,46.6481139 C42.9037732,45.8322433 30.7664876,44.5268929 23.6254328,35.1315867 L23.569784,35.1793825 L23.569784,35.1793825 C22.5019443,34.4632695 22.5615092,32.9167043 23.4689977,32.1212749 L23.4959977,32.1637143 L23.4959977,32.1637143 C23.5133107,32.1356961 23.5324786,32.1089139 23.5510282,32.0815138 L23.5394863,32.0454609 L23.5394863,32.0454609 C23.8886313,31.6791637 24.2855931,31.3365584 24.6464863,31.0298 L24.6483412,31.0357745 L24.6483412,31.0357745 C30.0104176,26.5703688 33.511555,19.818181 33.7131275,12.8261902 C31.937929,13.313625 2.11302824,7.13313273 7.43697481,5.6248866 C11.2450053,6.91166509 15.0755015,8.07380365 18.9832878,8.99881732 C19.0488298,8.96194038 19.1428145,8.97162315 19.1788832,9.04434695 C23.959326,10.2202886 28.8362267,10.8923141 33.7195168,11.4364035 C33.7143641,11.2031929 33.7055015,10.9699823 33.6935473,10.7363597 C25.0106771,9.04681914 16.4984634,6.53836335 8.03241756,4.0014773 Z M78.3402115,10.2369759 C60.5307229,1.24415369 51.690387,14.5299459 34.466242,10.8719185 C36.2682344,18.9077945 31.8185931,27.5709905 25.7749214,32.8215247 C34.5563107,40.4185858 38.3569214,41.5689814 49.8762344,42.8019896 L51.3811035,42.981101 C53.6437095,43.2489397 55.9275508,43.4987746 58.1971809,43.5378802 C69.9700053,42.68147 78.865784,30.4383269 80.1970282,19.3453734 L80.2042432,19.0389372 C80.2639154,16.2236995 80.1345489,13.2437384 78.8868069,10.664666 C78.6569977,10.5847316 78.4572802,10.4407262 78.3402115,10.2369759 Z M53.5463382,17.2962724 C54.1617733,17.1578294 54.7897809,17.8290308 54.4082771,18.4167956 C53.1755519,20.317297 50.1608267,21.0535996 48.0523534,21.3523234 C45.6106053,21.698225 43.243674,21.4254593 40.9241473,20.5929469 C40.7998649,20.5482414 40.8087275,20.3286279 40.9575366,20.3463453 C43.1599947,20.6083982 45.4304679,20.4165969 47.5704756,19.8339825 C49.7403687,19.4114428 51.4924832,17.968916 53.5463382,17.2962724 Z M70.2799424,15.9273139 C70.269726,15.5661672 72.045955,16.6110824 72.3268786,16.7517916 C74.4963595,18.0538153 77.0075656,18.1492009 79.4002603,18.6603276 C79.9579855,18.8741727 79.9571611,19.5828691 79.4000542,19.7967141 C76.4137718,20.5904954 71.8816878,18.5072574 70.2799424,15.9273139 Z" id="ðŸ–-Ink" fill="#000000"></path>
                    </g>
                    <g id="accessories/*-None" transform="translate(9.687023, 49.649954)"></g>
                </g>
            </g>
        </g>
    </g>
</svg>