<?xml version="1.0" encoding="UTF-8"?>
<svg width="242px" height="550px" viewBox="0 0 242 550" version="1.1" xmlns="http://www.w3.org/2000/svg" xmlns:xlink="http://www.w3.org/1999/xlink">
    <!-- Generator: Sketch 62 (91390) - https://sketch.com -->
    <title>pose-mask-4</title>
    <desc>Created with Sketch.</desc>
    <g id="Introduction" stroke="none" stroke-width="1" fill="none" fill-rule="evenodd">
        <g id="poses-covid-10" transform="translate(-824.000000, -275.000000)">
            <g id="a-person/standing" transform="translate(792.000000, 240.000000)">
                <g id="pose/standing/resting-2" transform="translate(-22.886344, 120.211486)">
                    <path d="M99.4895578,100.404822 L99.22192,103.605974 L99.0221846,103.23093 C98.9938131,109.68841 98.039585,116.216614 96.9871914,122.659495 C94.2362907,120.391214 91.9748929,118.391418 92.6280048,114.519433 C94.2822525,109.001271 96.4038734,103.618488 98.1190252,98.1302842 L98.4065231,99.5694091 L99.5387351,99.7980764 L99.4895578,100.404822 Z M295.954638,440.58721 C295.448113,438.343579 294.895247,435.96798 294.377372,433.718281 C294.326303,433.528293 293.852121,433.485442 293.699293,433.434248 C290.960876,426.710558 288.564619,425.178146 283.26085,424.263477 C274.708356,422.712104 266.268591,419.349026 258.189333,414.364611 C258.377909,413.622864 258.893514,412.342251 259.362211,410.974419 C259.301118,410.995466 259.239457,411.013858 259.175905,411.026182 C259.067526,411.047229 258.965577,411.052158 258.868358,411.045333 C258.320409,412.335426 257.72404,413.468713 257.408549,413.886419 C256.39947,413.233978 255.276526,412.516122 254.287684,411.822536 L254.291845,411.810401 C253.411761,411.198725 252.323998,410.443137 251.462261,409.971962 C251.300733,409.07758 249.993752,408.800374 249.310945,408.209745 C247.985428,407.260188 247.250228,406.77062 246.034414,407.982973 C243.411942,404.567943 241.299778,400.956669 239.223363,396.28833 C237.923948,393.559681 237.285589,390.538277 235.538472,388.101814 C235.571951,388.082853 236.6826,387.73606 236.709837,387.704775 C216.85546,343.602328 213.674448,294.528359 209.439339,247.386685 C208.50516,236.844669 207.527856,226.205384 205.706784,215.972428 C205.456926,214.422762 205.232602,212.896607 204.302584,211.660931 C215.46015,202.442758 215.568907,184.575046 210.164515,171.322583 C222.590476,137.712476 198.233542,102.015353 200.030971,67.7137446 C201.038537,44.4463754 196.861496,17.4869588 170.649066,11.9043298 C167.398448,10.028348 163.501528,9.74829699 160.399766,9.69767165 C157.607254,8.2831958 157.167118,5.16016208 156.17298,2.59286946 L155.20154,2.59893692 C154.916501,1.43701896 154.634299,0.163042659 154.389169,-1.00759727 C154.020529,-1.74991267 154.23899,-2.7172928 153.077649,-2.5115681 C150.445531,-6.33254895 129.380826,-8.25346782 129.14156,-2.10106673 C128.381203,-1.65150611 128.231023,-0.774000185 128.053985,0.291596898 C126.885836,7.84785579 118.838165,13.8737883 111.586977,12.6585905 L111.469519,12.5522204 C80.5990557,11.4050919 68.4464069,33.4254091 62.4140583,63.4358084 C57.7007953,86.7534237 54.7049539,112.023433 58.3958971,135.379539 C62.0019149,145.964217 72.9243755,151.057088 81.3745434,157.577708 C80.4004552,160.03901 80.3094773,162.754386 80.2797817,165.417621 C80.1683763,168.491925 79.9453763,171.591258 79.6741448,174.624607 C79.1184416,178.46891 78.2188759,185.085661 83.437719,185.534463 C85.4594722,231.479331 89.6822864,277.303608 83.2296613,323.382529 C77.8729327,348.865467 79.9236248,379.699524 86.5468572,404.6326 C86.9289268,405.864483 87.9103916,406.972931 89.1640337,406.579116 C89.8006901,406.991703 90.297948,407.250518 90.8243339,406.860873 C91.134529,407.436902 91.4744196,407.990368 91.8419251,408.526959 C91.9809454,415.377117 92.7554874,422.097774 92.4029242,428.992301 C91.8771058,428.931247 90.7204942,428.350477 90.2710896,428.730452 L90.2067809,429.255666 L89.7789387,429.402423 C88.8833449,431.935776 88.3214001,434.595407 87.905663,436.740443 C86.0934806,440.41808 83.778177,446.925996 85.0692694,451.022477 C85.006663,451.095287 84.6590175,451.500669 84.6043551,451.562102 C84.2958623,451.739385 84.2389302,451.976016 84.1636511,452.247725 C83.2841346,452.578591 83.1939132,453.586357 83.1033136,454.616877 C82.6627987,457.113825 83.3172347,459.383433 83.5421261,461.826153 L83.5553661,461.809847 C83.5553661,461.809847 84.2937817,462.668013 84.2949166,462.66915 C93.5752347,463.235509 102.713695,463.380749 111.95278,463.713701 C112.649962,462.374689 112.859912,460.56488 113.383839,459.093901 C124.337129,467.128921 143.314827,464.055185 157.072924,462.081745 C162.660219,461.274014 167.938831,460.510842 172.618805,460.256767 C172.923325,460.214674 172.945077,460.083086 172.953021,459.961548 C172.998983,458.122539 173.34398,456.237077 173.17186,454.452107 C174.138193,453.510704 173.697678,451.795699 173.033596,450.289453 C170.591566,444.985927 163.953959,444.405537 158.576236,443.500727 C148.458958,441.531838 140.323525,437.828603 133.742282,432.167477 C134.185067,431.765887 134.586996,431.371502 134.953178,430.98565 C134.810185,430.890087 134.667193,430.794714 134.524579,430.698204 C134.178258,430.545949 133.847068,430.389901 133.543303,430.192899 C133.388584,430.280118 133.194712,430.297941 133.003299,430.190244 C132.341865,429.817854 131.802806,429.270456 131.174472,428.851611 C131.049827,429.03117 130.924614,429.214142 130.798644,429.405267 C130.196034,428.768563 129.513983,428.047484 128.917992,427.379874 C128.896619,427.195385 128.94504,426.735207 128.720526,426.684961 C127.02618,426.856745 125.063629,427.429362 123.291167,428.065497 C121.287761,421.464293 120.127366,414.320053 120.26128,407.57361 C122.231397,407.573799 123.956951,407.555407 125.426028,406.616279 C125.827579,406.724545 126.387065,406.957952 126.490905,406.325041 C127.087085,403.741442 127.241993,401.006157 127.391984,398.361125 C130.441353,348.322809 135.08747,308.114532 150.497734,265.72709 C151.977592,271.612523 154.462179,277.733639 156.723198,283.592527 C167.00957,308.078127 174.420206,334.484647 180.772585,360.185066 C183.271925,369.805019 185.98878,380.375666 188.672157,389.895695 C189.712823,394.472264 191.828202,396.147451 196.261155,396.111046 C199.677084,396.271834 203.104739,396.221967 206.534476,395.980596 C211.210288,400.25493 213.127634,406.024512 214.493627,411.219772 C213.355552,412.068457 211.549233,411.748209 210.21861,412.02845 C209.071266,413.882817 209.468278,416.475706 209.495136,418.763137 C209.675201,421.735054 209.521805,424.923502 210.384677,427.729322 C210.538829,430.798507 210.557933,434.160636 210.78812,437.728869 C208.253221,439.202882 208.717568,442.45959 209.559445,445.575229 C209.935651,446.36798 223.559646,446.210795 226.939259,446.177803 C230.910513,445.945912 236.573654,446.963349 237.875906,442.597435 C247.330614,447.863987 261.714587,446.084516 272.729538,444.53466 C280.723682,443.557799 287.96598,442.649008 295.816375,440.992024 C295.897517,440.956377 296.011571,440.703061 295.954638,440.58721 L295.954638,440.58721 Z" id="âœ‹-Skin" fill="#FFDBB4" fill-rule="evenodd"></path>
                    <path d="M85.624538,180.624956 C88.0252762,180.368139 112.453028,182.272186 114.893151,181.70246 L115.00077,181.67697 L115.950772,181.448755 L116.502262,182.257079 C119.225905,186.249147 120.598937,188.870904 121.284861,191.531962 L121.332696,191.722123 L121.352144,191.802118 C121.92966,194.199907 121.974711,196.420349 121.661599,200.925068 L121.6291,201.383246 L121.592649,201.881143 L121.505115,203.044594 L121.507279,203.052084 C121.658974,203.540651 122.129971,203.684919 122.715939,203.355121 L122.757005,203.331341 L122.775402,203.319905 L122.838637,203.276201 C124.094332,202.39153 124.93851,201.224969 125.500839,199.691829 L125.539616,199.58427 L125.577488,199.475515 C126.028165,198.158562 126.262532,196.743114 126.461643,194.474419 L126.496938,194.059135 L126.607963,192.667705 C126.765841,190.71951 126.883498,189.683815 127.105059,188.578623 L127.13456,188.433993 L127.766178,185.475714 L129.631037,187.673053 C130.565921,188.774614 131.137202,190.276341 131.49266,192.243811 L131.534254,192.480536 C131.727136,193.610571 131.838214,194.742375 131.953772,196.558528 L131.986207,197.083676 L132.087113,198.802395 L132.127104,199.429789 C132.281287,201.756921 132.434726,202.96813 132.743563,204.110079 L132.776072,204.228008 L132.799578,204.310333 C133.201826,205.695988 133.747014,206.402667 134.541152,206.625196 L134.589099,206.637968 L134.607831,206.642407 L134.639416,206.640523 C135.543716,206.580313 135.771357,206.141325 135.707503,204.675477 L135.700553,204.532747 L135.696569,204.461239 L135.686206,204.298615 L135.663413,204.000128 L135.678532,203.818107 C135.739724,203.126925 135.862174,202.54917 136.130429,201.570857 L136.159732,201.464482 L136.423064,200.521118 L136.482486,200.296119 C137.133682,197.755417 137.269547,194.94863 136.908424,192.089696 L136.883613,191.899026 L135.946,184.89842 L139.51295,190.989906 C141.875572,195.024692 143.273487,199.626486 143.645472,204.426537 L143.661442,204.641596 L143.673472,204.819515 C143.854331,205.142145 144.203189,205.216661 144.49637,204.99688 L144.526491,204.973093 L144.55432,204.948875 C145.318273,204.251843 145.789263,202.993136 146.228231,200.770538 L146.250909,200.654714 L146.422312,199.752278 L146.501332,199.344584 L146.548655,199.141129 C147.385402,195.505474 147.559996,192.616264 146.930039,189.999783 L146.898929,189.87339 L145.759145,185.342028 L149.223619,188.468865 C149.776814,188.968147 150.340387,189.450516 150.910548,189.912872 C151.998847,190.789272 152.86533,190.89063 153.369289,190.506081 C153.908948,190.094292 154.151432,189.089306 153.804193,187.754394 L153.783906,187.678483 L153.162105,185.411875 L155.453438,185.911889 C163.159837,187.593579 170.232626,188.415853 176.817525,188.229395 C184.39495,188.014833 191.134838,186.458161 196.981288,183.372968 L197.169574,183.272915 L198.843043,182.377461 L199.226812,184.239747 C199.785306,186.9499 199.645831,189.735233 198.917878,192.78136 L198.866024,192.995364 C198.359512,195.057164 197.695707,196.934324 196.467192,199.976766 L196.338073,200.295714 L195.755786,201.723585 L195.321767,202.796394 L195.118274,203.30806 C194.499084,204.890511 194.300881,206.062123 194.436478,206.765964 C194.508531,207.139964 194.627112,207.26322 194.911468,207.326619 C195.959759,207.560343 198.041901,206.699514 199.944942,205.071149 L200.026387,205.000893 L201.979142,203.28255 L202.62119,206.300159 L202.46888,206.69522 C202.105703,207.63723 201.97894,208.536182 202.128883,209.251082 L202.144801,209.321954 L202.292251,209.93691 L201.935442,210.458524 C201.90744,210.499461 201.90964,210.549301 201.981548,210.659897 C202.072748,210.800162 202.214592,210.887574 202.320026,210.896526 L202.343671,210.897187 L203.567104,210.856894 L203.785968,212.064221 L203.906647,212.737328 C204.517966,216.185163 205.942911,229.810843 208.18148,253.614368 C208.916762,262.94935 217.636459,325.485185 219.275505,333.466733 C222.976484,352.70138 227.398659,369.392495 233.143198,384.857759 L233.31768,385.326029 L233.787694,386.583509 L232.56226,387.125892 C221.322585,392.100626 208.406625,394.360847 195.355358,393.815592 L194.989294,393.799424 L194.846908,393.79847 C191.964612,393.754137 190.520291,392.53031 189.793192,389.741559 L189.749347,389.56797 L189.729039,389.483705 L189.703774,389.37581 L189.225739,387.748491 C187.704862,382.548452 170.418461,318.508305 167.604125,309.620009 L167.42006,309.040036 L167.080201,307.976219 L166.782149,307.05157 C162.852706,294.913632 158.718877,284.215788 153.99694,274.270146 L153.834441,273.928985 L153.802261,273.870413 C153.271754,272.898995 152.848305,271.88584 152.370783,270.517587 L152.319406,270.369616 L152.218739,270.075513 L152.14321,269.851543 L151.688066,268.476359 L151.530141,268.005646 L151.465297,267.791087 C150.907563,265.917015 150.603035,264.120818 150.581712,262.364766 L150.580517,262.183248 L150.580608,262.159067 L150.492874,262.357399 C148.638911,266.560586 146.538157,272.112389 144.378203,278.712083 L144.291774,278.976629 L144.01602,279.826876 C138.127723,298.12234 133.916067,317.7145 130.855725,339.805409 L130.69025,341.010317 C128.406242,357.779572 126.900079,374.446803 125.270563,398.6905 L125.11899,400.961883 L124.941218,403.662472 L123.844834,403.856019 C122.590178,404.077506 121.5064,404.37554 120.544348,404.780457 L120.413909,404.836339 L120.189278,404.934284 L119.944888,404.951039 L116.740035,405.181045 C116.476316,405.199255 116.233302,405.215476 116.000509,405.230352 L115.315938,405.27196 C105.826246,405.892889 97.9243698,405.43169 90.6044773,403.505664 L90.3805797,403.446246 L90.0999999,403.377453 L87.4413857,402.710457 L79.8184902,359.117593 L84.5430915,318.255549 L84.7134616,317.028403 C87.5145833,296.462708 84.2396773,203.704153 84.0153587,197.574738 L83.9686161,196.269831 L83.9251705,195.009954 L83.8657218,194.086016 L83.6573903,190.473702 L83.6237077,189.938988 C83.4232652,186.8474 83.1829136,184.749629 82.7441745,182.679245 L82.402794,181.095036 L83.8811664,180.85749 C84.4554749,180.76521 85.0362394,180.687889 85.624538,180.624956 Z" id="ðŸ‘–-Pants" fill="#E86BBB" fill-rule="nonzero"></path>
                    <path d="M171.174724,452.973564 C172.280462,454.25255 172.658749,456.275036 172.309584,459.041021 C172.206356,459.081251 145.626067,463.771073 127.671756,463.591613 C120.349357,463.518424 115.236174,458.472197 112.729432,458.472197 C111.972858,458.472197 112.363041,463.302673 109.513995,462.833181 L83.3871526,461.675206 L82.8447837,452.973564 L85.4927905,450.129444 C98.1736583,452.660234 107.756921,453.608274 114.242578,452.973564 C125.758683,451.846557 168.715861,450.129444 171.174724,452.973564 Z M292.793893,433.633546 C294.069512,434.695234 294.855996,436.626241 295.153347,439.426565 C280.742905,442.743907 271.115855,444.452808 266.272194,444.553267 L264.867166,444.579627 L263.249352,444.603569 C261.162235,444.629742 247.399491,446.526892 238.509754,442.355515 C236.859189,441.581012 233.901847,445.129692 231.288085,445.14001 C225.290597,445.163686 217.988462,444.993953 209.381679,444.630811 C209.347372,444.029713 208.851786,441.062829 208.804533,440.136204 C209.90363,437.901437 210.474299,436.176303 210.516539,434.960802 C210.601793,432.507564 226.437139,435.179293 243.994911,434.960802 C265.993188,434.687054 290.865426,432.028496 292.793893,433.633546 Z" id="ðŸ‘Ÿ-Shoes" fill="#FFFFFF" fill-rule="evenodd"></path>
                    <path d="M128.666631,-3.75351832 C129.277564,-3.87695314 129.803382,-3.69492944 130.174103,-3.35913364 C130.253543,-2.53054658 130.244086,-1.70404521 130.175995,-0.877354239 C130.107903,-0.818575752 130.032246,-0.761503737 129.949023,-0.708603099 L130.012297,-0.749114038 C130.069483,-0.786283136 130.108849,-0.813693345 130.134383,-0.833744394 C129.328632,4.55434676 125.598158,9.13774148 120.762331,11.5742046 C120.463106,12.0690815 119.786351,12.0355209 119.300253,12.2586895 L118.61715,12.4742938 C116.736175,13.0656675 114.832493,13.6245847 112.842899,13.6617889 C117.901727,27.9110213 137.684796,35.6525273 151.679512,36.7044726 C163.765772,37.343262 170.472605,27.2923304 167.284027,16.0188062 C160.282491,15.1102804 153.399041,7.64122787 155.936958,0.423929497 L156.016758,0.205307566 C156.033781,0.131550046 156.132135,0.157905561 156.139701,0.222372288 C156.21725,0.958051413 156.654171,1.76786727 156.8488,2.48648168 L156.938485,2.7417034 C157.611868,4.68764286 158.209441,7.00805883 160.111711,8.04370319 L160.437115,8.05115237 C163.858889,8.14062013 167.43169,8.59383774 170.444612,10.2926439 C173.804176,10.9545655 177.015452,12.2892164 180.005051,13.942788 C203.614491,26.7959366 199.835785,54.1343796 200.571364,76.9017524 C202.862079,108.099288 221.817457,139.276155 210.637572,170.596746 C215.742362,183.640071 216.137104,201.17066 204.995616,211.121479 C205.117991,211.31431 205.221074,211.525723 205.307513,211.742066 C205.837899,213.06928 206.002066,214.590075 206.252318,215.999014 L206.281601,216.161071 C206.884212,219.437118 207.317728,222.747105 207.741409,226.050646 C208.577156,232.567353 209.184209,239.113084 209.762607,245.657661 L209.845062,246.592589 C211.293143,263.043171 212.557945,279.530536 214.457322,295.939215 L214.811977,298.371236 C217.383091,315.938051 220.183103,333.5461 224.400777,350.760013 C224.525233,351.221519 224.648933,351.683025 224.775848,352.143772 C226.295804,357.665916 228.084911,363.094963 229.766206,368.566102 C230.298644,370.298361 230.888393,372.004265 231.510107,373.696137 L232.282849,375.619549 C232.411859,375.940001 232.541128,376.260333 232.67088,376.580454 C234.041791,379.961734 235.501978,383.304903 237.039335,386.613184 C237.316619,387.20988 236.912798,387.759743 236.436913,387.912757 C237.840546,390.145391 238.369769,392.804075 239.542458,395.174175 C241.219592,398.952874 243.206543,402.629184 245.685834,405.943721 C247.057312,404.90922 248.589373,406.244629 249.729718,407.007612 C250.461703,407.464567 251.411202,407.807568 251.6987,408.613402 C252.250999,408.931944 252.788166,409.282908 253.296962,409.633494 L253.347783,409.467573 C253.965789,407.484426 255.175274,404.822852 257.140165,403.937669 C259.437689,402.969151 261.270488,404.899929 260.582763,407.210493 C260.161163,409.274376 259.503133,411.25104 258.801033,413.241924 C265.868635,417.520912 273.5975,420.766086 281.727813,422.394222 L282.005138,422.4491 C283.966554,422.839882 285.960125,423.110832 287.758878,424.045599 C290.738454,425.685519 292.662609,428.803054 293.866317,431.92002 C294.284324,432.022409 294.668285,432.388352 294.760965,432.790321 L295.554185,436.228246 C295.818276,437.37419 296.081185,438.52037 296.340312,439.667594 C296.482169,440.289319 296.151169,441.072589 295.46647,441.210813 C290.747343,442.157147 286.00552,442.985734 281.24289,443.686146 C267.723113,444.941162 250.327979,449.35334 237.773968,443.158277 C235.77094,447.287561 230.193481,446.106303 226.408344,446.417829 C224.109307,446.247182 207.971975,447.126963 208.125749,445.171725 L208.036433,444.835361 C207.323003,442.103737 206.679876,438.433003 209.279523,436.552334 C209.116482,433.469118 208.995241,430.384195 208.944739,427.299273 C208.039121,424.371346 208.196299,421.13341 208.012074,418.076739 C208.035906,415.798978 207.506304,413.168356 208.74803,411.131587 C208.856977,409.781388 211.85017,410.501709 212.841092,410.007211 L212.753618,409.686451 C211.386514,404.717371 209.486366,399.881825 205.647971,396.243375 C202.329451,396.464458 199.001663,396.503138 195.680306,396.34747 C190.622424,396.367568 188.315442,394.170011 187.214061,389.398715 C186.425333,386.599911 185.65552,383.795798 184.897055,380.987514 C178.979705,358.895335 173.606521,336.608429 167.067079,314.687277 C164.567172,307.340724 161.801707,300.083667 159.013356,292.845001 C157.123436,287.938894 155.230678,283.033924 153.339434,278.128195 C152.367805,275.608305 151.410361,273.073814 150.565836,270.508228 C150.305953,269.719459 150.070659,268.926329 149.848415,268.129975 C135.179403,308.998846 130.526666,352.418514 127.930863,395.534431 C127.694434,398.977523 127.652822,402.458726 126.875443,405.828061 C126.637123,406.865406 125.76328,407.151525 124.991576,406.923995 C123.570542,407.679014 122.519661,407.767751 120.690456,407.796381 L120.70401,408.387645 C120.807954,412.624547 121.066637,416.849773 122.025808,420.987222 C122.405986,422.714741 123.086902,424.394478 123.455732,426.114223 C124.946181,425.606263 126.468785,425.223255 128.034892,425.035543 C128.825511,424.940739 129.277564,425.604367 129.309718,426.28506 C129.600999,426.607204 129.894171,426.925745 130.193018,427.242391 L130.343974,427.047649 C131.75036,425.22604 133.553362,422.730269 135.997827,422.525133 C137.10999,422.456684 138.125689,423.086183 138.367982,424.220228 C138.600061,426.825632 136.447042,429.679422 134.63032,431.408079 C141.361364,436.990518 149.703532,440.214803 158.218197,441.859463 L158.550979,441.914599 C164.01319,442.810576 170.751028,443.517152 173.355528,449.181935 L173.41029,449.30362 C174.021254,450.684157 174.598748,452.776738 173.603306,454.041588 C173.720953,455.769486 173.402436,457.54763 173.361202,459.292024 C173.317699,460.001158 172.841058,460.412607 172.165817,460.491105 C154.784678,461.426252 128.291181,469.581672 113.404655,459.877913 C113.098242,460.952801 112.782373,462.026172 112.489201,463.104852 C112.360583,463.580768 111.882051,463.969654 111.380821,463.950693 C102.165757,463.618879 92.9204306,463.468899 83.7167156,462.905953 C83.4488886,462.910883 83.2249429,462.790861 83.0386367,462.574139 C82.822635,462.839401 82.271093,462.76716 82.1973271,462.38984 C82.0673857,461.72716 82.0664399,461.055189 82.0070489,460.383787 C81.9382008,459.606394 81.7310888,458.889486 81.6096588,458.129537 C81.3855239,456.726059 81.4863373,455.220761 81.6251685,453.812731 L81.6606517,453.456516 C81.7578596,452.525935 81.9307891,451.46863 82.7698034,450.941375 L82.8254722,450.907747 C82.8284985,450.90604 82.8315248,450.904524 82.8345511,450.903007 C82.9274204,450.60646 83.1475833,450.350299 83.4260023,450.14704 L83.4424578,450.128079 C83.0040235,449.078978 83.1729285,447.751721 83.3007894,446.658252 C83.6541092,442.854715 84.716149,439.090996 86.4666707,435.714077 C86.9656308,433.146215 87.5707003,430.48829 88.4698878,428.044432 C88.4452992,427.932564 88.5852652,427.83776 88.6930769,427.887058 C88.7303382,427.867339 88.767032,427.852549 88.8033475,427.840414 C88.8078869,427.802682 88.8152635,427.765519 88.8271796,427.730062 C88.9824662,427.270263 89.462512,427.019032 89.9119166,426.94755 C90.2926622,426.887065 90.6225282,426.988695 90.9643102,427.075156 C91.2105748,420.437359 90.4282779,413.8098 90.3480812,407.174467 C89.7188013,407.480494 89.0123509,407.208976 88.4320591,406.857822 C86.7486834,407.117585 85.5551889,405.67846 85.09349,404.165198 L84.8229041,402.938519 C82.3961663,391.894839 80.2093901,380.754506 79.0337156,369.497457 C77.408596,353.784071 79.3717148,338.056655 81.7566232,322.527568 C88.2298649,281.637271 83.5408123,240.304239 83.0793025,199.189636 C82.6934501,194.700666 82.5338131,190.162398 82.042797,185.676082 C80.2171855,185.458412 78.8370065,183.745304 78.2202101,182.103867 C77.2536876,179.502635 77.9516265,176.50095 78.1956215,173.827477 C78.4660964,170.863904 78.6646969,167.894832 78.7935036,164.923674 L78.8085735,164.055915 C78.8526167,161.739132 78.9529514,159.40627 79.7201168,157.20075 C71.5387215,150.887371 60.6892703,145.927605 57.2271906,135.373074 C55.6520048,133.950635 55.9691982,127.359291 55.7121524,124.940841 C54.661272,104.023853 56.4418674,82.9680715 60.9536927,62.5207424 C66.600378,34.6565163 78.1681957,9.68722552 110.592093,10.8802392 C110.567504,10.861468 110.541024,10.8404215 110.516436,10.8195646 C110.858785,10.7057998 111.212483,10.8176686 111.464044,11.0451982 C116.984949,11.755849 122.261859,8.48624831 125.019947,3.7870031 C125.69708,2.61522552 126.200202,1.39225378 126.468785,0.0631015497 L126.489716,-0.0430734121 C126.770467,-1.50477718 126.849774,-3.3872182 128.666631,-3.75351832 Z M86.7789463,451.296254 C85.9953254,451.730835 85.1379387,451.782788 84.416546,452.361661 C83.9096418,455.141315 83.9512534,458.025442 84.5602949,460.78405 C93.2041456,460.876958 101.859345,461.315142 110.499413,461.612826 C110.847437,460.272298 111.176546,458.923995 111.539701,457.587258 L111.54829,457.559765 L111.567316,457.507054 C112.464045,457.537391 113.360962,457.563368 114.258069,457.585931 C127.527231,467.119991 155.018649,459.017851 171.036631,458.222445 L171.201185,455.550868 C171.03909,455.664064 170.878507,455.727014 170.724355,455.748819 C170.873211,455.358795 170.608599,454.851025 170.080511,454.999109 C169.228042,455.238205 168.371412,455.458339 167.511755,455.665012 C167.446501,455.639226 167.372546,455.627091 167.289701,455.634106 C159.770308,456.277636 152.220084,456.21753 144.680074,456.240283 C137.166165,456.262846 129.660201,456.58025 122.145536,456.559393 C119.080468,456.550671 116.015589,456.504597 112.951845,456.413395 C104.127363,454.770252 95.3656757,452.83151 86.7789463,451.296254 Z M292.754532,435.007029 C292.382608,435.276884 291.896767,435.300034 291.38025,435.370513 L291.306262,435.380936 C290.833971,435.449953 290.360734,435.514989 289.885417,435.551204 C288.711026,436.312101 286.37189,436.208764 285.239489,436.425297 C260.382082,438.915798 235.351987,435.960757 210.469235,437.961122 C209.281604,439.65982 209.570993,441.762573 210.202543,443.660549 C217.150723,443.922587 224.105713,444.064225 231.057487,443.762937 L231.613086,443.742453 C232.471556,443.708633 233.352269,443.646667 234.146198,443.321151 C234.855346,443.031026 235.726654,442.311307 235.615618,441.449361 L235.608276,441.400422 C235.438047,440.410857 236.474553,439.252163 237.482687,439.955988 C246.990355,446.279036 259.908656,443.099689 270.6206,442.477585 C278.33954,441.658478 286.016868,440.492199 293.635562,439.015153 C293.340309,437.679554 293.046948,436.343007 292.754532,435.007029 Z M119.112622,406.996046 C118.315383,407.087627 117.517198,407.169727 116.717878,407.242157 C113.512144,407.532324 110.295183,407.678048 107.078193,407.770698 L105.57631,407.811831 C102.578579,407.892821 99.5616488,407.964167 96.5695731,407.800932 C95.0564264,407.718642 93.5046944,407.539652 92.0416707,407.127255 C93.3287911,413.896071 93.9907928,420.788513 93.9701762,427.676593 C94.3721058,428.025472 94.2907741,428.601311 94.1839081,429.04196 L94.2847082,429.341362 C94.5192534,430.041713 94.7432996,430.753931 94.8326698,431.470649 C104.120932,437.008341 111.832117,431.336597 120.300821,427.365636 C118.905132,423.726489 118.480505,419.736378 118.246724,415.871787 C118.116404,412.865741 118.340539,409.932316 119.112622,406.996046 Z M135.995935,424.870773 C135.608948,424.914762 135.249954,425.158219 134.936733,425.372855 C133.644884,426.300228 132.528938,427.397869 131.509455,428.584815 C131.900982,428.971805 132.300074,429.352728 132.706733,429.726445 C134.232552,428.493993 135.430964,426.776903 135.995935,424.870773 Z M234.717411,389.679145 L233.45985,390.1038 C225.696359,392.715352 217.772103,395.166528 209.525409,395.898478 C209.968005,396.338179 210.340617,396.859601 210.667835,397.413257 C210.953063,397.656334 211.240561,397.966533 211.159608,398.334752 C211.424409,398.871532 211.658946,399.415707 211.882135,399.929545 C213.186657,403.039495 214.692427,406.099958 215.791917,409.301679 C216.111002,410.638226 217.36559,412.507193 216.780948,413.801267 C225.54812,417.628505 236.453936,415.923929 243.151313,408.922463 L242.915119,408.573242 C239.066535,402.857805 235.684251,396.579046 234.717411,389.679145 Z M258.496512,405.835834 C257.965019,405.376793 257.032543,406.643565 256.796113,406.958314 C255.922271,408.124214 255.320795,409.400276 254.874417,410.735306 C255.435794,411.121348 256.001522,411.483878 256.572924,411.853803 L256.604309,411.800997 C257.135777,410.881227 259.047544,406.419239 258.496512,405.835834 Z M91.7685477,405.737238 L91.7778157,405.784451 C92.2484043,405.857829 92.7199387,405.923433 93.1935536,405.977282 C94.3439234,406.108301 95.5094247,406.166511 96.6705757,406.19097 C95.0363772,405.954339 93.4010439,405.762456 91.7685477,405.737238 Z M104.228463,183.227733 L103.841567,183.188615 L103.344512,183.12725 C96.9643424,182.332284 90.5349021,181.270619 84.1101338,182.302956 C84.999864,186.429205 85.059255,190.753027 85.3467529,194.980148 C86.7179987,235.695244 91.6559438,276.642819 86.1234498,317.262113 L85.9525791,318.492899 C83.9359327,332.939134 81.5364603,347.435616 82.5024154,362.074113 C83.2557733,375.41683 85.9643059,388.533344 88.6552483,401.590321 C89.3021185,401.753384 89.9489887,401.916447 90.5977504,402.075907 C90.6166647,401.894642 90.7290159,401.998547 90.7509565,402.113639 C98.7208895,404.24673 107.038846,404.430081 115.227996,403.894248 C116.772163,403.805322 118.309331,403.679422 119.852551,403.573621 C121.041884,403.055043 122.313306,402.724556 123.603264,402.496837 C126.323334,361.062934 129.885281,319.156148 142.670426,279.431561 C150.809642,254.195492 160.975529,229.620775 166.990855,203.738143 C167.198912,203.011944 168.295944,203.317213 168.117771,204.050996 L167.929937,205.043431 C166.402753,213.149502 165.026189,221.281353 162.648124,229.204396 C164.453497,227.232662 166.512511,225.49225 168.216504,223.428936 C168.747996,222.77858 169.235986,222.094095 169.656074,221.364294 C170.05422,220.459864 170.693714,219.751678 171.683501,219.540265 C172.137445,219.356155 172.559235,219.742956 172.708658,220.124068 C173.124979,221.17596 172.9494,221.926275 172.343059,222.853224 L172.191505,223.081375 C169.517172,227.044431 165.236853,229.358898 161.704298,232.469446 C158.747231,242.366037 155.343786,252.121938 152.006919,261.893009 C151.965118,263.83687 152.317303,265.755893 152.884544,267.609501 C153.530658,269.514872 154.109247,271.533818 155.101493,273.320494 C168.897987,302.232684 175.850329,333.735488 184.233162,364.4992 C186.439708,372.703729 188.674247,380.904655 191.08034,389.053249 L191.114919,389.201724 C191.662989,391.498544 192.518298,392.422509 195.029464,392.418981 C207.611846,392.999182 220.531282,390.939659 231.993747,385.866318 C225.679953,368.974329 221.2958,351.493227 217.887058,333.777391 C216.167178,325.402784 214.77357,316.962004 213.599935,308.488422 C211.965548,297.669577 210.523519,286.826463 209.062576,276.037577 C206.072976,254.892491 206.204431,233.375583 202.394705,212.359809 C201.093588,212.40266 199.978399,210.852804 200.769964,209.695627 C200.494004,208.544706 200.740269,207.287036 201.150142,206.223904 L201.100965,205.992772 C196.63775,209.966766 190.812891,210.469607 193.802113,202.83011 L194.008489,202.311134 C196.253185,196.7058 199.109062,190.71721 197.842025,184.568772 C184.895542,191.49629 169.070486,190.37912 155.156156,187.342737 C156.239947,191.29341 153.320331,193.715273 150.026588,191.062846 C149.432678,190.581242 148.850117,190.082573 148.278904,189.567029 C149.116241,192.895977 148.666648,196.384764 147.893051,199.684323 L147.819299,200.064838 C147.442548,202.044341 147.01531,204.671743 145.513628,206.04188 C144.418488,207.039218 142.769158,206.614496 142.277197,205.19054 C142.00256,200.480677 140.692554,195.847226 138.294027,191.751123 C138.695011,194.745034 138.596656,197.820666 137.860889,200.691331 C137.577174,201.789162 137.183755,202.909745 137.090886,204.045308 L137.105097,204.231402 C137.246266,206.232556 136.980992,208.070415 134.491867,208.110693 C128.589649,207.067659 132.313125,193.063969 128.555036,188.635864 C127.413178,193.980345 128.743423,201.005891 123.554086,204.553647 C122.12038,205.452389 120.370804,204.930967 120.079334,203.186573 L120.18255,201.815462 C120.801736,193.450402 120.686144,190.943242 115.335808,183.101205 C111.70767,183.972779 107.908291,183.599891 104.228463,183.227733 Z M209.370312,398.213402 C209.374095,398.245636 209.375986,398.275973 209.377878,398.308206 C209.439664,398.371409 209.501451,398.435539 209.562678,398.500427 L209.654027,398.598307 L209.548107,398.336648 C209.489472,398.298916 209.428946,398.255306 209.370312,398.213402 Z M204.499303,211.553596 L204.256037,211.759285 C204.215273,211.793408 204.174292,211.82739 204.132933,211.86114 C204.348745,212.826055 204.550561,213.793056 204.746325,214.761195 L204.708307,214.123543 C204.672937,213.496319 204.772237,212.358292 204.499303,211.553596 Z M200.559213,125.806272 C198.733698,117.288135 196.914146,113.693532 199.226081,125.962086 L199.477052,127.287214 C200.478433,132.599487 201.533581,138.621859 202.524551,145.105319 L202.731207,146.462652 C203.765537,153.184883 205.391527,163.025225 205.511663,170.908649 C205.647971,179.85322 201.118835,182.507663 199.328692,183.666427 C198.993719,184.650113 199.418913,185.470927 199.701304,186.415743 C200.081482,187.932607 200.179837,189.390504 200.071647,190.949081 C199.695819,196.266828 196.862074,201.069789 195.574197,206.116017 C197.224472,205.661526 199.065404,204.170449 200.507055,202.98938 C203.066921,200.946923 204.85338,197.921537 205.625274,194.712801 C205.992212,193.197833 205.72552,191.326591 206.754459,190.084469 C207.057089,189.718525 207.711525,189.754551 208.019828,190.084469 C208.859625,190.981504 208.780185,192.081041 208.644001,193.22817 C208.186464,197.131061 206.474527,200.957351 203.716817,203.766584 C203.586876,205.208174 203.157899,206.493337 202.873238,207.864203 C202.982941,208.171368 203.092644,208.478343 203.196673,208.787594 C205.064653,207.169479 206.626409,205.212914 207.836359,203.05745 C213.236402,193.548797 211.350643,182.598934 209.952873,172.229081 C209.672374,172.923426 209.033069,173.199875 208.411355,173.131616 C208.053985,174.028204 207.120211,173.456697 207.083128,172.297234 C206.852044,165.071923 205.894681,154.799487 204.132933,144.277075 C203.083186,138.007246 201.811693,131.650542 200.559213,125.806272 Z M132.366275,158.615226 C129.687816,166.949446 119.131915,168.575145 112.965842,173.658726 C116.062875,181.850361 124.731314,190.623145 122.180906,201.189811 L122.166632,201.269417 C122.089962,201.674352 121.838556,202.816282 122.109031,203.030905 C122.281152,203.167422 123.340354,202.130267 123.525904,201.92549 C127.235005,197.499849 125.077068,191.241457 127.162941,186.195608 C127.437199,185.524396 128.292127,185.128115 128.870906,185.744341 C131.479472,188.51509 132.109939,192.251002 132.509572,195.900959 L132.523264,196.026784 C132.844618,198.865785 132.668147,201.790868 133.506809,204.551751 L133.538392,204.649044 C133.716686,205.182689 134.050207,205.934885 134.422263,206.070511 C135.449311,206.443849 135.063459,204.794259 135.099396,204.142197 C135.207208,202.257304 136.005392,200.492243 136.285325,198.63598 C136.883018,194.654212 136.287216,190.476958 134.968887,186.701862 C134.55088,185.503539 136.196427,185.079007 136.831949,185.914989 C139.470498,189.388607 141.585121,193.249216 142.979107,197.391962 C143.540863,199.062598 143.83971,200.753902 144.214213,202.456392 C146.550512,195.345333 146.483177,187.869468 141.191703,182.039401 C139.939574,180.532017 142.025825,178.359109 143.374417,179.85322 C144.772943,181.524236 146.142152,183.213643 147.662297,184.77753 C149.161447,186.292308 150.606313,188.157672 152.460863,189.238817 C152.159747,182.432079 144.875837,179.356826 140.991022,174.695882 C137.030739,170.002325 134.865047,164.148177 132.366275,158.615226 Z M97.3596249,101.133658 C95.9414281,105.458427 94.279993,109.706215 92.9981685,114.076301 C92.7318547,117.033997 93.640121,118.260761 95.806758,120.138259 C96.7443416,114.77349 97.1326528,109.332308 97.6338827,103.909519 C97.5576579,102.982525 97.5423373,102.047568 97.3596249,101.133658 Z M98.0594552,99.0081517 L97.9175977,99.4463358 L97.9646471,99.5299056 L98.0102779,99.6148974 L98.0594552,99.0081517 Z M184.509878,44.8902301 L185.051514,48.4705753 C187.041286,61.5987154 189.094035,74.7247047 191.918245,87.7022046 C192.07391,88.4172164 192.99239,87.457231 192.823485,86.0727132 C191.086536,71.8332607 184.534358,44.7219593 184.508648,44.8771402 L184.509878,44.8902301 Z M167.790931,16.1003376 C167.917657,16.2518345 168.036817,16.4111052 168.152195,16.5724616 C168.127606,16.4281699 168.103018,16.2821717 168.076537,16.1361736 C167.980074,16.1247971 167.885503,16.1136102 167.790931,16.1003376 Z" id="ðŸ–-Ink" fill="#000000" fill-rule="evenodd"></path>
                </g>
                <g id="Head" stroke-width="1" fill-rule="evenodd" transform="translate(76.413910, 34.129444)">
                    <g id="head/Gray-Bun">
                        <path d="M80.947091,36.9022716 C77.2278845,14.3053564 48.8294163,10.2312489 30.3241697,14.9873765 C29.9831087,10.6408022 27.2572635,6.8001021 23.8557136,4.27376481 C9.40620457,-6.1715515 -7.70044679,11.5624868 -4.27568137,26.8464102 C-3.66131866,31.4764485 0.0229701819,36.759876 5.1777659,35.9675041 C-1.30163735,48.2857685 -3.83364221,73.1249881 10.4424108,80.8033546 C11.819678,81.7879891 12.0482474,83.7877849 13.1082354,85.0701039 C14.8290172,87.1381586 22.1807966,89.7723829 26.1580166,87.6612871 C27.4076927,88.8148624 28.8495104,89.9373418 30.5351858,90.3364667 C39.2434706,97.3390702 51.9699328,98.9190738 62.5739654,96.0296372 C69.1071608,94.9158797 75.8796839,91.95534 79.2408425,85.9066545 C82.0888054,81.3031613 80.7764662,75.909382 79.4705443,71.0370246 C78.9063876,68.3567256 78.5390912,65.6550009 78.3129755,62.9305232 C78.7761541,62.3872963 78.802012,61.6330356 78.9175235,60.9460857 C79.4190172,58.5113291 80.5148666,56.2517703 81.0629801,53.8240292 C82.2892518,48.3128824 82.0763482,42.4247949 80.947091,36.9022716" id="âœ‹-Skin" fill="#FFDBB4"></path>
                        <path d="M0.198297072,12.4143301 C3.41094236,6.26830449 9.7089269,2.80065482 16.0074348,3.27622768 C22.4516628,3.76280324 27.3833226,8.22589398 28.5252042,15.4323727 L28.5586443,15.6515893 L28.6272568,16.1193899 L28.5647519,16.1407621 L28.5949089,16.1938866 L28.6489052,16.2846791 C28.712861,16.3892669 28.7914218,16.5083934 28.8986381,16.6638696 L29.0419515,16.8692847 L29.5241796,17.5491316 L29.5583312,17.5978864 L29.6611676,17.7465524 L29.8682201,17.6730588 C39.9652664,14.1311045 51.2118514,14.1675639 61.2650478,17.9337274 L61.5693224,18.0489953 L61.8496214,18.1576226 L62.0077458,18.1989689 C68.1714006,19.8363379 73.0966222,23.7741351 76.4681938,29.4122072 L76.5698867,29.5835777 L76.6726726,29.7595147 C79.7502948,35.0692283 81.32831,41.6323194 81.2173796,48.2214949 L81.213456,48.4232112 L81.2118278,48.4555102 L81.1948151,48.6541279 C81.0484064,50.2355402 80.6522107,51.6488814 79.8326232,53.8040846 L79.7279571,54.0774146 L79.56574,54.4945604 L79.0604561,55.7802323 L78.9367581,56.1001799 L77.4871876,59.9234015 L77.7556832,56.0862479 C77.7855449,55.6594843 77.8021946,55.2847519 77.8164473,54.7126636 L77.8189399,54.6096075 L77.8515386,52.985729 L77.8611071,52.6230188 C77.8661386,52.4543565 77.8716455,52.3019666 77.8780973,52.1533995 L77.8885424,51.9318597 L77.9078768,51.5876495 L77.9125167,51.5159307 L77.9031907,51.438647 C77.5945647,48.9997485 76.4802104,46.9174481 74.5622171,44.9446667 L74.4622939,44.8427227 L74.3609374,44.7409664 L74.2398059,44.6211435 C72.8265752,43.2328759 71.3978435,42.1713499 68.4381414,40.2234092 L68.3103553,40.1393798 L66.590486,39.0153411 L65.9465969,38.5913161 C64.5274809,37.6521511 63.6626436,37.043995 62.7480201,36.334688 L62.5510471,36.1809879 L62.396881,36.0591959 C60.8134676,34.8001938 59.5767453,33.5630459 58.6270308,32.2284623 L58.538834,32.103056 L58.3516535,31.8337274 L58.4854429,31.5462242 L58.483216,31.5500933 L58.4831209,31.5488692 L58.4894697,31.5182424 L58.4985609,31.4668418 L58.5077729,31.4045118 C58.5245637,31.2810763 58.5389532,31.1199143 58.5491403,30.9379442 C58.5528254,30.8721179 58.5559041,30.8048548 58.5583646,30.7366953 L58.5615903,30.6338515 L58.5632055,30.5450939 L58.5278413,30.6498412 C56.6943643,35.9660347 52.3495602,40.4016701 46.225164,43.6750302 L46.0390323,43.7738668 L45.8286014,43.8840682 C39.7922446,47.0221529 32.4083445,48.8238503 26.0063701,48.8748631 L25.8001983,48.8759009 L25.5962927,48.8763264 L25.4389308,48.7460606 C24.8515053,48.2597836 23.7704003,48.8651867 23.967045,49.7313772 C25.7865298,57.7442305 26.1681359,66.037708 25.0570427,74.0293807 L25.017678,74.3080366 L25.013276,74.334332 L24.971,74.5604177 C24.934239,74.7619725 24.8990858,74.9684306 24.8609582,75.2064394 L24.8009632,75.5904465 L24.5694301,77.1462629 L24.4641848,77.8127335 L24.4186325,78.0829662 C24.0274907,80.3512459 23.5317524,81.8944186 22.6309869,83.2252249 L22.5447032,83.3506297 L22.4561928,83.4357635 L22.3695782,83.5229022 C22.1921323,83.7064143 22.0806467,83.8550483 22.0260923,83.9589815 L22.0145093,83.9821681 L22.0079635,83.9963537 L22.0235375,84.0025691 C22.3099655,84.1057705 22.8959748,84.0848038 23.384118,83.9502498 L23.4445975,83.9328397 L23.5016288,83.9149877 L23.896929,83.7861228 L24.172634,84.175379 L24.2547702,84.2900767 C24.4061504,84.5001579 24.563929,84.7118947 24.7613253,84.9705729 L24.9939803,85.273566 L25.5315395,85.9673545 L25.0382168,86.309704 C23.3731461,87.4652074 21.0455302,87.2355756 18.5723497,86.1521723 L18.4759195,86.1095309 L18.4409305,86.0924454 C17.2616604,85.4653951 16.4893914,84.7078069 15.2173329,83.0929104 L15.0682873,82.9027302 L14.5019897,82.1732475 L14.2863406,81.9000078 C14.1357694,81.7111449 14.0070412,81.5544758 13.878018,81.4032939 L13.834969,81.3530665 L13.6842233,81.1801451 L13.6511212,81.1132133 C13.0285943,79.8544773 12.138555,79.0173669 10.5806467,78.1168977 L10.360846,77.9918685 L10.2201341,77.8949697 C6.26699677,75.1414132 3.93372294,70.7981137 2.95262786,65.1651206 C2.18572194,60.7619024 2.2650774,55.8076217 2.9676809,50.2438258 L3.0016084,49.9784222 L3.03781906,49.7020093 C3.64590048,45.0194747 5.03674727,40.6473672 7.1450307,36.6670762 L7.25471931,36.4615489 L7.35366688,36.2786509 L6.8589531,35.8844504 L6.65594136,35.7258035 C6.48790343,35.5961847 6.36538148,35.507038 6.25423313,35.4336244 L6.19452949,35.3949922 L6.13909727,35.3605688 L6.12400572,35.3884502 L5.74667796,35.3479413 C4.15312186,35.1768612 2.58191754,34.4852718 1.30291,33.4193806 L1.19743404,33.330096 L1.09511611,33.2268247 C-1.3771377,30.7014391 -2.59113696,27.2003678 -2.59216666,23.2023297 C-2.5930685,19.6683853 -1.62800065,15.9075875 0.0227625221,12.7435293 L0.104499193,12.5884046 L0.198297072,12.4143301 Z" id="ðŸ’ˆ-Hair" fill="#E8E1E1"></path>
                        <path d="M80.6492337,48.4105874 C80.4344426,51.1352547 79.2848011,53.5868864 78.3223939,56.126117 C78.4275244,54.6236631 78.3780734,53.0601553 78.4828265,51.5000605 C77.3635728,41.7308864 64.1388256,39.1643522 59.0049805,31.7774133 C59.1993871,31.3602757 59.2694112,27.6304963 58.5038643,28.6794078 C55.5343502,41.7329721 37.8846814,48.2818436 25.8008935,48.3070614 C24.8869936,47.5505254 23.074482,48.3497232 23.4168642,49.8578655 C25.2239022,57.8159037 25.6195103,66.1406439 24.4591103,74.2268572 C23.912318,77.0821644 23.8200221,80.5178618 22.1147173,82.9782155 C20.3046594,84.7076303 22.4806925,84.8464233 23.6782751,84.4560204 C24.0121638,84.9275756 24.3645494,85.3854789 24.7182562,85.8416758 C22.9980406,87.0354479 20.4881188,86.384334 18.7076938,85.5896868 C16.7271998,84.5366038 15.5951115,82.4958527 14.1600885,80.8601043 C13.3766109,79.2759293 12.1882768,78.3654315 10.6605804,77.5074552 C2.16161303,71.7046913 2.38112266,58.9755464 3.60116585,49.7755756 C7.15635358,22.3988317 37.403761,9.18940966 61.6783548,18.700148 C74.787968,22.0677761 80.9300852,35.6839074 80.6492337,48.4105874 M1.58330048,32.9114589 C-3.60093935,27.7249211 -2.55737209,18.6578655 0.701487085,12.6787661 C7.23166256,0.186062352 25.7793767,0.592013127 28.0003309,15.734489 C18.5417876,18.9894899 10.5605459,25.9691508 5.80871924,34.7823212 C4.26158217,34.6162246 2.7659723,33.9239657 1.58330048,32.9114589 M80.9470722,36.9064999 C77.2278656,14.3095847 48.8295862,10.2354771 30.3241508,14.9917943 C29.9832786,10.6450304 27.2574333,6.80433036 23.8556947,4.27780346 C9.4061857,-6.16732325 -7.70046566,11.566715 -4.27570024,26.8506385 C-3.66133753,31.4806768 0.0229513075,36.7641043 5.17774703,35.9717324 C-1.30165623,48.2899967 -3.83347234,73.1292164 10.4423919,80.8075829 C11.8196591,81.7924069 12.0482285,83.7922027 13.1082165,85.0741426 C14.8289983,87.1423869 22.1807778,89.7768007 26.1579978,87.6655154 C27.1036067,88.8310359 32.4709285,92.3755683 32.0796616,88.9010013 C31.6848085,87.9649065 30.4647653,87.7206913 29.6524098,87.2580478 C27.9450288,86.3111453 26.4616874,84.976684 25.2961913,83.4091945 C28.9568871,73.039911 28.677923,61.4941098 26.6272161,50.817282 C38.8823838,50.1980222 53.3028263,44.8017779 58.7082744,32.9522246 C62.3623642,41.5755974 73.6941948,42.6853732 76.5566909,52.3267515 C76.7293919,57.3906129 75.6484533,62.3793896 76.4323084,67.445716 C76.6623877,72.4081371 79.2736652,77.3375665 77.7638995,82.267375 C73.5462192,93.0177706 58.3630611,94.5953094 48.3318675,94.1459384 C45.9491594,93.9483668 43.9716853,92.6548609 42.0128969,91.4267697 C40.8389073,90.8670469 39.4414445,92.0378764 40.160749,93.2875829 C42.9071674,97.1375737 48.5560957,97.474128 52.8938173,97.3353349 C64.1510939,96.6648809 80.4200981,93.323798 81.0044504,79.3595464 C80.6331904,73.8239402 78.4709356,68.5262921 78.3131454,62.9347515 C78.7761352,62.3915245 78.8019931,61.6372638 78.9175047,60.9503139 C79.4189983,58.5153677 80.5150365,56.2559985 81.0629612,53.8282574 C82.2892329,48.3171107 82.0765181,42.4292128 80.9470722,36.9064999" id="ðŸ–-Ink" fill="#000000"></path>
                    </g>
                    <g id="facial-hair/*-None" transform="translate(23.264631, 64.087511)"></g>
                    <g id="face/Smile" transform="translate(30.073791, 35.267092)" fill="#000000">
                        <path d="M27.7258731,45.6816073 C26.4543995,45.1616356 25.3199235,44.2942885 24.4905121,43.1863088 C24.2021562,42.8011295 24.1273904,42.3943863 24.1878812,42.0223676 C24.2558988,41.6040588 24.5027701,41.2249364 24.8394473,40.9706327 C25.1771673,40.7155413 25.5996122,40.5897366 26.0080283,40.6538682 C26.3629179,40.7095949 26.7161936,40.9043826 26.995785,41.3083653 L27.0541986,41.3891524 C27.547298,42.0578907 28.1898519,42.6065826 28.9219972,42.9602463 C29.6276663,43.3011205 30.4168857,43.4602197 31.2335991,43.3677002 C32.7890824,43.191558 33.8611998,42.3482692 35.0007436,41.2030973 C35.1419934,41.0585165 35.2833336,40.9094032 35.425359,40.7578897 C35.5150509,40.6205434 35.6395207,40.5322709 35.7777159,40.4859558 C35.9311573,40.434531 36.1047352,40.4374406 36.2637194,40.4930589 C36.4170603,40.546703 36.5541395,40.6483561 36.6460548,40.7836499 C36.7334128,40.9122355 36.7829421,41.0710857 36.7668711,41.2538028 C36.6625667,42.4405861 36.0436232,43.4997395 35.1644398,44.3313988 C34.1879943,45.2550626 32.8936445,45.8940593 31.6750707,46.1181755 C30.3325602,46.3650482 28.9645778,46.1881781 27.7258731,45.6816073 L27.7258731,45.6816073 Z M32.3083882,27.3731706 C33.7366812,28.2434801 35.9129611,30.272872 34.3764465,32.4304752 C32.567822,34.3329052 29.9638111,32.1516392 28.6805996,31.1651376 C27.4907457,30.4005933 26.1538783,32.366944 27.2578254,33.2596784 C36.5303385,40.1415463 40.2933206,27.6007444 33.0307989,26.3499 C32.2311691,26.2120624 31.9341846,27.1039308 32.3083882,27.3731706 Z M15.6919558,19.3677768 C15.8497635,17.4041439 18.8330593,16.9582381 19.1298252,18.9013411 C19.3955716,20.6419428 19.0827285,22.2409072 18.3006208,23.8080175 C17.5533154,25.3051624 15.6750242,24.6066739 15.5329775,23.2433922 C15.3425699,21.4159698 15.5937904,20.5892689 15.6919558,19.3677768 Z M38.4012053,18.498443 C38.8171315,17.9523719 39.4176616,17.5796026 40.1371628,17.7902571 C42.3851315,18.4487657 41.7225623,21.6480219 40.933078,23.2052726 C40.5041009,24.0509243 39.1174911,24.265371 38.4908592,23.5207803 C37.4694852,22.3065305 36.9803605,19.8816335 38.2788295,18.6855861 C38.3140102,18.6237739 38.3531628,18.5613929 38.4012053,18.498443 Z M18.2689582,10.7755187 L18.6240504,10.7132144 C19.7225569,10.5227636 21.0884234,10.3397615 21.8655188,11.2250793 C22.2776622,11.6945488 22.4195197,12.5671249 21.8655188,13.0164959 C20.8910523,13.8071613 19.8136919,13.5007548 18.6459209,13.5676864 C17.6835595,13.623052 16.7586486,13.7827019 15.8316571,14.0483428 C13.7979879,14.6310082 12.1409031,15.6947092 10.4039997,16.8626946 C10.176082,17.0158979 9.94343571,16.7237119 10.0521931,16.5100237 C11.054842,14.5413236 12.9979115,12.9241568 14.9441965,11.9383847 C15.9829718,11.4122224 17.1197232,10.9757448 18.2689582,10.7755187 Z M36.3520029,9.89363046 L36.6237886,9.94939054 C39.5814677,10.569145 43.4241853,11.8071553 44.8247891,14.7194311 C44.8781585,15.1312372 44.8217686,15.2194955 44.7759135,15.2771585 L44.7606462,15.2963467 C44.7228615,15.3455875 44.6927123,15.4134656 44.5146551,15.4695131 C44.4652443,15.4577116 44.4153416,15.4452121 44.3649103,15.4319634 C43.722898,15.2633022 43.2149422,15.0309477 42.723187,14.7898521 L42.1899997,14.5265246 C41.5713959,14.2224657 40.9473303,13.929473 40.285964,13.7131748 C38.8745516,13.2516794 37.4227926,12.9265846 35.9485414,12.7529914 C35.6290088,12.7153984 35.321319,12.6072913 35.0785738,12.4220133 C34.8481599,12.2461474 34.6721385,12.0026568 34.5918826,11.6790048 C34.4878711,11.2601475 34.5177617,10.9430381 34.741946,10.5651674 C34.9105187,10.2813946 35.1517193,10.084703 35.4286786,9.97175594 C35.7110266,9.85661135 36.0324771,9.82946605 36.3520029,9.89363046 Z" id="ðŸ–-Ink"></path>
                    </g>
                    <g id="mask/medical-mask" transform="translate(4.350297, 53.279854)">
                        <path d="M74.3820188,13.3400999 C74.0254836,8.81169152 68.3294319,6.89342716 65.4922818,6.3246031 C56.0449501,4.09822571 48.007493,9.81035697 36.7424938,9.92715552 C35.6055532,9.94497867 32.3541791,9.75271613 30.8421673,9.3524536 C23.1707025,7.60502607 15.5071817,5.74629863 7.98003325,3.45450647 C6.87335556,3.71426946 6.54594843,5.16230593 7.30573723,5.98729043 C14.5151249,8.55022206 25.5446405,10.8452376 31.3691206,11.1065174 C31.2573369,18.6491245 27.2853267,26.2334454 21.8001698,30.4048219 C30.5240282,40.075779 50.8699883,43.256264 62.8438967,38.1798884 C68.7340095,36.4078119 74.9494489,20.5452047 74.3820188,13.3400999" id="ðŸŽ¨-Color" fill="#FFFFFF"></path>
                        <path d="M7.37131323,3.68277557 C7.0469324,3.67007183 7.23607574,2.72203172 7.96673647,2.85722224 C17.3943972,5.06748295 29.1401987,9.27753947 38.8305796,9.24663336 C45.959203,9.01265706 52.3467628,5.03278469 59.514728,5.00870447 C64.3331546,5.10123318 70.4772869,5.78818304 73.8493344,9.66415023 C78.2970401,23.8047373 68.2813327,43.0378166 52.5224769,43.1491165 L49.5397298,42.9327774 C39.3725984,42.1818877 28.2342664,40.9805032 21.6809528,32.3334957 L21.6298841,32.3774848 L21.6298841,32.3774848 C20.6499324,31.7184073 20.7045948,30.2950199 21.537393,29.5629433 L21.5621707,29.6020026 L21.5621707,29.6020026 C21.5780588,29.5762159 21.5956491,29.5515668 21.612672,29.526349 L21.60208,29.4931675 L21.60208,29.4931675 C21.9224888,29.1560445 22.2867789,28.8407263 22.6179689,28.5584 L22.6196712,28.5638986 L22.6196712,28.5638986 C27.5404243,24.4541448 30.7534023,18.2397418 30.9383845,11.8046352 C29.3092929,12.2532478 1.93911645,6.56500711 6.82487812,5.17688678 C10.3194905,6.36117849 13.8347195,7.43075734 17.4208773,8.28209736 C17.4810249,8.24815752 17.5672742,8.2570691 17.6003743,8.32400073 C21.987365,9.40628332 26.4628747,10.0247847 30.9442479,10.5255395 C30.9395193,10.3109032 30.9313862,10.0962669 30.9204159,9.88125141 C22.9521852,8.32627603 15.1405651,6.01760875 7.37131323,3.68277557 Z M71.8924574,9.42164157 C55.5487704,1.1450618 47.4360342,13.3726935 31.6295142,10.0060135 C33.2831945,17.401864 29.1997789,25.3750709 23.6535287,30.207421 C31.7121699,37.1994064 35.1999731,38.2581776 45.7711945,39.3929816 L47.1522061,39.5578275 C49.2285894,39.8043338 51.3244602,40.0342704 53.4072895,40.0702614 C64.2111572,39.2820609 72.3747729,28.0140354 73.5964498,17.8045914 L73.6030709,17.5225617 C73.6578318,14.9315465 73.5391128,12.1889274 72.3940656,9.81526782 C72.1831707,9.74169991 71.9998908,9.6091639 71.8924574,9.42164157 Z M49.1392321,15.9186932 C49.7040142,15.7912766 50.2803339,16.4090195 49.9302296,16.9499712 C48.7989633,18.6991052 46.0323636,19.3767643 44.0974272,19.6516959 C41.8566461,19.9700478 39.6845239,19.7190067 37.5559047,18.9528007 C37.4418513,18.9116558 37.4499845,18.7095336 37.586546,18.7258399 C39.6077317,18.9670213 41.6913348,18.7904963 43.6552101,18.2542848 C45.6465112,17.8653987 47.2544187,16.5377634 49.1392321,15.9186932 Z M64.495585,14.6587668 C64.4862094,14.326384 66.1162467,15.2880758 66.3740491,15.4175781 C68.3649719,16.6159008 70.6694944,16.7036893 72.8652595,17.1741068 C73.3770813,17.37092 73.3763248,18.0231716 72.8650703,18.2199847 C70.1245724,18.9505444 65.9654995,17.0332281 64.495585,14.6587668 Z" id="ðŸ–-Ink" fill="#000000"></path>
                    </g>
                    <g id="accessories/*-None" transform="translate(8.889737, 45.695533)"></g>
                </g>
            </g>
        </g>
    </g>
</svg>