<?xml version="1.0" encoding="UTF-8"?>
<svg width="215px" height="592px" viewBox="0 0 215 592" version="1.1" xmlns="http://www.w3.org/2000/svg" xmlns:xlink="http://www.w3.org/1999/xlink">
    <!-- Generator: Sketch 62 (91390) - https://sketch.com -->
    <title>pose-mask-6</title>
    <desc>Created with Sketch.</desc>
    <g id="Introduction" stroke="none" stroke-width="1" fill="none" fill-rule="evenodd">
        <g id="poses-covid-10" transform="translate(-362.000000, -232.000000)">
            <g id="a-person/standing" transform="translate(348.000000, 192.000000)">
                <g id="pose/standing/walking-2" transform="translate(-24.938931, 130.614403)">
                    <path d="M249.850046,488.996786 C251.30042,482.247895 244.666664,479.966362 240.48455,478.464914 C237.488998,476.522688 226.389654,469.796571 217.801458,461.493302 C210.773812,454.698809 205.989769,445.990798 203.99832,445.160728 C202.631783,444.36858 201.877554,443.678181 201.735634,443.08953 C200.48825,437.915678 201.528587,433.093717 201.735634,429.957115 C205.733695,428.907873 208.93742,427.599051 211.333413,425.768801 C212.032115,426.0016 213.07955,426.299499 213.391802,425.27807 C215.557161,410.837144 216.491855,396.567005 218.253657,382.114954 C224.922451,327.071284 225.674741,262.766147 214.201802,212.491962 C214.081229,209.999988 214.298672,207.749465 214.521061,205.608336 C216.072428,205.440845 217.01042,203.939809 218.277153,203.042608 C220.243206,201.480797 222.571184,200.280546 222.475138,197.550828 C222.942176,197.197304 222.887764,196.998498 222.657542,196.548147 C224.157176,190.101893 217.467977,183.30912 215.576122,177.994721 C219.015016,144.374079 214.335977,112.603259 216.946321,78.9745823 C220.243413,77.5955085 218.026733,68.976194 217.801458,65.4209688 C215.974939,42.5173006 204.063817,19.872389 182.614275,12.3900791 C181.388145,12.1416233 179.545138,10.7407117 178.530474,11.6813827 C176.569573,10.9049068 173.960672,12.4358147 172.443107,10.6733444 L172.458359,10.6618075 C171.180497,8.89068439 170.607726,6.63913107 170.18768,4.5101575 C170.257962,5.11007728 170.375237,5.70505267 170.519718,6.28663699 C166.821955,-4.13037668 165.890351,-6.91571852 153.986237,-7.40624359 C148.623955,-7.4779373 141.555313,-7.31703849 138.428672,-2.20494733 C137.147512,0.171451941 137.538909,2.90013927 136.743748,5.4015905 C135.2841,9.9918421 128.983413,7.77366343 125.675603,10.1572733 C99.2015881,18.6447373 77.4863744,35.9690691 70.3486873,63.7757218 C68.8894507,67.1271967 67.2344125,70.4628084 66.014466,73.9216178 C65.8256721,74.4350107 65.3062828,76.1723471 66.5536415,76.9718968 L67.1569164,77.3585896 C59.2106721,114.482952 58.6834507,145.765308 85.3798553,170.514677 C87.3832141,181.14945 82.2295118,195.672577 84.210611,205.998119 C83.0817637,207.599073 84.5131759,208.888529 85.9563362,208.991332 C86.0954583,209.068588 86.6577179,209.314571 86.8110614,209.384823 C84.5144125,241.793264 94.1569164,285.469979 98.4072522,302.708814 C98.9857942,313.059078 95.4516797,321.561581 88.181466,327.202311 C80.1488629,332.147529 64.2683286,354.482385 67.2123591,377.910571 C63.7718171,378.585275 60.3562141,378.955281 57.0554125,380.247828 C42.6126797,377.699817 42.755924,405.530367 41.8356568,415.315941 C40.2770767,431.700426 39.3083744,455.448143 54.8803667,465.936026 C58.9827179,468.910903 67.3007789,472.393405 71.5632751,467.632159 C72.9600614,465.95498 73.3098247,464.334867 72.7603438,462.622046 C79.7988934,452.681961 77.9020919,439.680059 78.5486492,428.021591 C80.5897255,427.898599 82.7251988,428.855545 84.6994965,428.506965 C86.7259393,426.722039 79.333298,427.208444 78.5665805,427.103787 C78.6451072,425.305882 78.7897942,423.412797 78.976527,421.600265 C80.1360843,421.832446 81.6214965,422.38869 82.7365347,422.431335 C83.3964889,422.591822 83.8629087,421.683496 83.4645041,421.212748 C82.5943209,420.38312 80.3755805,420.511674 79.1269851,420.393833 C79.3378324,418.876522 79.5956721,417.281337 79.8821606,415.813882 C81.4096186,415.758876 82.9869545,416.731685 84.4332064,416.532673 C83.3385728,415.802551 81.2838934,416.024843 79.9495576,415.542559 C80.8172675,410.816336 82.5852522,406.329917 84.2289545,401.909217 C88.2620538,403.572181 91.7413438,403.637694 95.6786034,403.139135 C97.2891225,403.386766 98.0743896,403.057346 98.3351148,401.043742 L98.2322675,400.91663 C101.352932,382.251131 111.422901,364.456876 130.127718,344.277569 C133.82239,340.144467 137.997497,335.278154 140.779321,329.837261 C146.369145,318.514187 147.323832,306.019498 151.630848,294.260287 C155.651993,282.440714 161.150306,271.134739 166.312664,259.930125 C167.069695,265.672626 168.086626,271.563459 169.143748,277.194094 C173.796405,297.147401 173.345443,318.436312 169.92139,338.50025 C164.855283,366.601507 167.297237,394.836055 166.170451,423.136117 C166.185909,424.768385 166.388306,426.251085 166.148809,427.950515 C166.117069,428.081335 166.178901,428.23626 166.333893,428.232139 L166.626359,428.240174 C169.061306,430.022422 172.424145,430.344426 175.285321,431.311261 C176.486924,432.26182 176.148497,433.767388 176.258558,434.942094 C176.572871,440.004123 176.974779,445.085518 176.476,450.303089 C174.268184,454.531576 171.526344,453.658066 170.965527,459.618739 C170.47458,466.423873 169.606046,473.660405 172.921481,479.719966 L171.667115,479.936283 C169.805558,483.840912 170.942031,486.37615 175.317267,488.027578 C196.916855,496.492792 227.310611,504.17844 249.850046,497.788841 C250.259755,498.194903 250.855567,497.773619 251.32141,497.135434 C251.769047,496.522192 252.096676,495.708671 252.023855,495.236504 C251.638435,493.163979 252.168336,489.379771 249.850046,488.996786 Z" id="âœ‹-Skin" fill="#D08B5B"></path>
                    <path d="M211.259542,497.941659 C207.379261,497.242548 185.083969,492.1732 172.305344,485.580675 C169.695454,484.234226 170.337816,481.052545 171.188213,478.986779 C171.577811,478.040374 172.499616,477.328189 172.305344,477.134002 C168.219603,473.050055 171.274809,462.30082 171.274809,460.240656 C171.274809,457.178307 176.240576,453.032389 175.396947,451.381951 C174.423024,449.476613 175.620503,455.993484 178.076336,459.622607 C180.216807,462.785704 183.576446,463.03041 183.909659,462.891629 L183.969873,462.865917 L184.012848,462.842991 C184.936944,462.337293 198.891332,442.243909 204.664122,445.201459 C207.38091,446.593339 208.840529,452.748561 211.877863,455.296263 C218.689205,461.009585 221.977099,470.129444 247.328244,481.872379 C250.041694,483.12928 250.065488,485.817794 249.51222,487.920939 C249.308282,488.696172 252.068702,488.670921 251.656489,489.082954 C250.609163,490.12982 253.514447,496.14487 251.244275,497.117593 C242.312713,500.94459 219.122215,499.358279 211.259542,497.941659 Z M66.3707581,378.246126 C67.3473877,379.468116 67.8268551,380.360854 67.8091603,380.924339 C67.5905109,387.887157 65.9336114,393.016159 65.8818993,396.439951 L65.8786745,396.671196 L65.8844417,396.755936 C65.9846833,398.144882 68.1070198,403.47944 72.7557252,404.616226 C74.5061187,405.044264 77.9412332,404.288871 83.0610687,402.350046 C80.1361799,410.426175 78.4186227,418.117454 77.9083969,425.423883 C77.3073398,434.031017 77.7924226,443.792522 76.6717557,451.381951 C76.0600009,455.524903 73.8446554,460.135061 71.3129771,463.330902 C70.6925566,464.114085 73.3896336,465.596721 72.7557252,466.215132 C71.5685582,467.373276 68.6335878,471.365542 59.5648855,468.275296 C56.9251433,467.375779 49.244716,462.377531 44.9312977,452.824066 C41.780467,445.845528 41.4840127,435.679035 41.0152672,426.659982 C40.4972329,416.692572 42.4221642,401.138364 44.9312977,392.667274 C47.7214548,383.247421 51.1905184,381.406839 51.9093836,380.885096 C52.0773382,380.763196 57.2993477,379.732359 57.8021312,379.676217 L57.8899098,379.666808 L57.9592241,379.66001 L57.9974729,379.645111 C60.0476647,378.852042 62.3915615,378.470035 65.473958,378.293135 L65.6636027,378.282559 L66.3707581,378.246126 Z" id="ðŸ‘Ÿ-Shoes" fill="#FFFFFF"></path>
                    <path d="M154.054723,195.533593 C156.954538,195.390998 183.870076,203.427182 189.197234,203.880264 L189.573536,203.910734 C196.479075,204.439118 203.14349,203.193578 210.785308,199.893754 L211.017179,199.79313 L211.260072,199.686663 L213.296682,198.789423 L213.56216,200.998215 C222.486613,275.250318 221.996911,348.665899 212.007581,418.796885 L211.701966,420.921059 L211.286115,423.751333 L210.735155,424.15859 C205.774004,427.825763 199.637561,430.031707 192.12767,430.94185 C187.096152,431.551632 181.773636,431.590851 174.728534,431.102716 L174.176053,431.063613 L173.63705,431.023926 L173.042671,430.97849 L172.287494,430.918596 L171.679304,430.732052 L171.200426,430.58286 L170.715558,430.4296 C170.633854,430.403596 170.551678,430.377353 170.468993,430.35086 L169.966456,430.188796 L169.449848,430.020137 L168.925814,429.847109 L168.196191,429.603544 L168.178878,429.599012 L167.925334,429.538817 L167.820246,429.512075 C167.134504,429.329974 166.652333,429.037546 166.315892,428.496992 L166.279106,428.435903 L166.233342,428.353559 L165.843967,427.618764 L166.203854,426.869097 C167.495609,424.178291 168.28477,421.193912 168.642364,417.698066 L168.664604,417.47423 L168.692777,417.171087 L168.716231,416.899132 C168.91251,414.537012 167.92005,379.828561 168.48719,371.031899 L168.545506,370.148649 L168.577869,369.675349 L168.673256,368.334937 C169.042286,363.271883 169.469713,358.757856 170.295157,351.260897 L170.497476,349.434875 L170.84377,346.351082 L171.54567,340.168556 L171.835422,337.582131 L172.049598,335.642927 C173.337851,323.893809 173.896938,317.140273 174.180594,309.809817 L174.198517,309.336029 L174.217667,308.804099 L174.236359,308.249785 L174.234337,307.985519 C174.195227,303.581599 173.748968,298.972134 172.868834,293.768087 L172.812065,293.435103 L172.754117,293.100481 L172.692476,292.749982 L172.509274,291.736328 L172.377978,291.030459 C171.831173,288.125859 171.223559,285.336921 170.192981,280.972949 L169.724958,279.003667 L168.450631,273.695507 C167.17368,268.347189 166.495423,265.298299 165.897461,262.174247 L165.813523,261.732457 L165.684675,261.041633 L165.510412,260.085209 L165.383927,260.196618 L165.244411,260.322162 C164.715177,260.804175 164.254728,261.290592 164.024683,261.631829 L163.995997,261.675503 L163.969059,261.719034 C158.999008,270.031603 154.773287,279.250695 150.834733,290.284644 L150.697458,290.670287 L150.473439,291.304064 L150.156442,292.208426 C147.697545,299.257348 145.777559,305.578759 142.211874,318.275141 L141.982021,319.094274 L141.498931,320.819867 L140.247091,325.302736 L140.130037,325.594689 C138.188921,330.389984 135.214246,334.985342 130.72535,340.232505 L130.549691,340.437272 L130.363614,340.652972 L130.340536,340.678831 L129.771959,341.294753 L129.222022,341.892986 L128.686229,342.47879 C119.981019,352.020897 113.526538,360.297045 108.408744,368.556098 C101.813763,379.199025 97.677371,389.549752 95.9105217,400.003634 L95.857706,400.32045 L95.8046745,400.647711 L95.5754008,402.083595 L94.1215123,402.035167 C86.7699463,401.790293 81.3260577,399.542032 77.0672538,395.047488 C75.3896251,393.276996 73.8806576,391.15461 72.3699887,388.465923 L72.2594464,388.268176 L72.0444697,387.878032 C71.164631,386.268149 65.86585,371.148436 67.0405768,365.177948 L67.1141665,364.810614 L67.1926905,364.432083 L67.2336643,364.239484 L67.3250462,363.820721 C68.1308326,360.186463 80.1732949,334.55055 85.9572796,328.816031 L86.1571348,328.618813 L86.3591845,328.421316 L86.3971787,328.385528 L87.0903701,327.767688 L87.3598448,327.526118 L87.6289857,327.283725 L87.947312,326.995153 L88.2606466,326.708721 C93.2738592,322.105789 95.7568225,318.834323 97.0724552,315.009849 L97.1127741,314.891388 L97.174068,314.718321 C98.4864071,310.976248 93.645772,276.881786 92.7811411,271.291521 C89.3237693,248.937907 87.2411652,224.846519 87.585138,208.479331 L87.599331,207.863034 L87.6327656,206.658198 L88.0018824,206.218734 C89.9198909,203.935185 92.3829132,202.283164 95.5143141,201.133846 L95.6827078,201.072756 L95.9413425,200.981564 C97.9456362,200.286608 100.084661,199.809548 103.131363,199.364805 L103.319037,199.337614 L103.686467,199.285517 L104.074819,199.231964 L104.46822,199.17914 L107.847593,198.748266 L108.649661,198.642518 C109.527484,198.524447 110.214213,198.42316 110.831994,198.320087 L111.263188,198.245908 L111.597906,198.185117 L112.014427,198.105555 L113.091488,197.889604 L113.974653,198.730568 L114.101955,198.853613 C114.242584,198.990118 114.380687,199.126132 114.532196,199.277469 L114.624838,199.370237 L114.930091,199.678585 L115.778611,200.54513 C117.842813,202.647359 118.867015,203.500273 120.16318,204.171818 L120.225113,204.203664 L120.350339,204.266635 L120.648999,204.412822 L121.241208,204.96707 L121.599036,205.304262 L121.939923,205.62783 C125.536735,209.054724 127.883754,211.707643 129.779543,214.54396 L129.86808,214.677051 L130.040688,214.940188 L130.174224,215.146934 L130.317507,215.418777 C133.100459,220.667183 136.356694,224.623485 140.416662,227.642912 L140.57949,227.76319 L140.765168,227.898667 L140.785148,227.91375 L141.401098,228.398415 L141.686575,228.620193 L141.89716,228.781516 L142.101701,228.935877 C145.009194,231.112986 146.879703,231.77087 148.531372,231.25688 L148.588901,231.238475 L148.768791,231.177893 L148.87447,231.139493 C149.345571,230.961154 149.764068,230.703031 150.433146,230.163136 L150.586078,230.038438 L150.817001,229.846033 L150.982349,229.705934 L151.529554,229.236121 L151.712492,229.081162 L151.909553,228.916703 C153.003405,228.01204 153.721033,227.564076 154.661985,227.220407 L154.745605,227.190344 L154.922826,227.128966 L156.057949,226.899729 L156.336439,226.841668 L156.540951,226.797385 C158.476814,226.369119 159.235789,225.926239 160.091497,224.707315 L160.13585,224.643571 L160.223782,224.514008 L160.650107,223.865786 L161.425884,223.708148 L161.538083,223.683939 C163.17781,223.318963 163.642038,222.857186 163.474521,222.057412 L163.465775,222.017805 L163.453283,221.965989 L162.714673,219.033213 L165.578151,220.001596 L166.631506,220.354796 L166.758389,220.398002 L166.321129,219.392476 L166.156625,219.008561 L166.045164,218.744994 C165.248014,216.848052 164.891289,215.725416 164.669482,214.377856 L164.654564,214.285617 L164.626397,214.104129 L164.61224,213.730972 C164.26736,205.185764 162.515705,202.703643 154.011486,198.927211 L153.75171,198.81237 L153.477434,198.692205 L147.040989,195.88507 L154.054723,195.533593 Z" id="ðŸ‘–-Pants" fill="#FFCF77"></path>
                    <path d="M250.776309,495.775726 C231.367019,504.487748 196.122744,493.495331 177.051676,487.135192 C171.909515,485.280838 170.196561,484.917425 171.637248,478.991569 C174.333126,484.192042 180.130912,485.447918 185.685492,486.490567 C204.500989,490.777974 223.683355,498.693537 243.805775,494.831347 C246.759286,494.366574 249.681676,492.768093 250.541141,489.81835 C251.071042,491.068457 250.743332,492.7615 250.955416,494.136248 C250.994782,494.684251 251.006943,495.27696 250.776309,495.775726 M172.276179,463.371405 C172.626561,459.878809 173.187172,456.189261 175.176103,453.103135 C174.959691,458.094501 177.958546,466.578463 184.529233,463.752124 C186.390378,462.766129 187.433485,460.780749 188.63076,459.186388 C192.610683,453.94121 197.713889,449.386599 203.478905,446.076946 C206.685721,446.628246 208.064782,452.490031 210.131828,454.94348 C207.827553,455.970266 203.651828,458.308964 203.229515,460.728009 C206.106767,459.760556 208.755034,457.958942 211.772645,457.325854 C212.73908,458.659192 213.763637,459.952357 214.839515,461.20164 C213.43366,461.820514 207.765721,464.684142 207.803027,466.11369 C210.86763,465.615954 213.83763,464.116155 216.918927,463.49996 C218.289538,464.858638 219.536691,466.320942 220.900912,467.684153 C218.839844,468.532734 216.663355,469.480204 215.538011,471.457961 C215.48463,471.547372 215.616332,471.64729 215.688676,471.56097 C217.232416,469.700435 219.889134,469.35886 222.191347,468.940235 C225.723813,472.265134 229.67921,475.198189 234.106179,477.39247 C238.535416,479.813369 245.267073,480.367141 247.02908,485.618705 C248.438851,490.868827 244.042592,491.429398 239.986408,491.800228 C235.882821,492.383666 231.750378,492.472253 227.673584,492.131502 C214.929996,491.600598 202.88305,487.850481 190.840225,484.573996 C176.116156,481.865086 171.338393,479.671424 172.276179,463.371405 M177.505317,432.800836 C185.306462,433.863881 193.319691,433.208749 200.939462,431.327819 C200.412447,433.512623 200.054233,435.733892 199.835347,437.967728 L199.85266,437.967728 C199.775164,438.679309 199.579775,439.59773 199.572973,440.471239 C199.622645,441.756164 199.603889,443.324773 200.383179,444.394616 C194.741828,448.5648 189.234653,453.211706 185.316561,459.028167 C182.723737,463.76057 179.273508,460.880049 178.416309,457.088935 C177.865798,450.382277 178.124874,443.986497 177.851989,437.555695 L177.827462,437.559403 C177.756355,435.971635 177.656599,434.385103 177.505317,432.800836 M176.594118,432.668986 C176.55908,432.899724 176.52837,433.130463 176.495393,433.363261 C176.453966,433.118102 176.425317,432.870882 176.36534,432.629843 C176.441805,432.642204 176.517859,432.656625 176.594118,432.668986 M172.663866,429.275896 C171.35921,428.878284 170.062798,428.45595 168.770302,428.021256 C168.452897,427.918248 167.925469,427.887345 167.756256,427.56802 C172.56679,417.547382 169.745393,405.903334 169.971905,395.192541 C168.292134,365.987655 174.992874,337.29781 175.951065,308.268038 C175.875011,291.815568 170.155546,276.137719 167.2515,260.068439 C170.221294,253.716953 172.989515,247.293362 175.674882,240.832687 C175.761447,240.636971 175.429821,240.515422 175.322439,240.690536 C172.156637,245.554583 169.003408,250.41863 166.068447,255.416589 C151.863561,276.574474 145.476309,300.701055 138.748775,324.759651 C136.568164,330.239688 133.068469,335.068712 129.181294,339.56193 C113.053431,356.976497 97.9995916,376.84266 94.2422634,400.373854 C79.2745763,399.875294 74.9506603,390.695203 69.7237901,379.115021 C69.7380115,379.071757 69.7524389,379.028494 69.7670725,378.98523 C69.5793092,378.657664 69.4494618,378.307436 69.3464084,377.944847 C69.2992099,377.98193 69.2518053,378.021073 69.2041947,378.060217 C65.7129504,371.387345 70.653126,357.472997 73.2974771,350.509642 C76.7621336,342.769606 81.4265382,335.569332 87.5767672,329.586616 C92.1067901,325.565176 96.7957214,321.181146 98.7372481,315.414747 C101.977248,306.395349 99.1166908,296.321146 97.3006832,287.258485 C92.9126679,264.784155 88.6567672,230.210481 89.3305305,207.264373 C94.9386985,200.587382 104.774118,201.246634 112.641218,199.660308 C114.939309,201.82348 116.899385,204.371903 119.768393,205.770754 C123.107324,208.885723 126.361752,212.149022 128.81463,215.964446 C131.547607,221.174601 135.001752,225.700782 139.847324,229.207181 C142.29608,231.141675 145.826485,233.947619 149.24992,232.763024 C151.67992,231.971921 153.030126,229.528567 155.422821,228.708621 C158.298218,228.123535 160.021271,227.911338 161.717324,225.329952 C163.763966,224.92616 165.715798,223.92286 165.118088,221.549551 C165.654172,221.730846 166.19005,221.90596 166.717477,222.089314 C167.787378,222.460144 168.94137,221.308512 168.584805,220.303152 C167.702668,218.226506 166.680378,216.178703 166.336385,213.933125 C165.975698,203.931028 163.395034,201.176589 154.202668,197.167509 C157.881676,196.984155 161.486485,197.884446 164.977935,198.881566 C182.404477,205.253653 193.832897,209.180326 211.990912,201.180709 C220.822798,274.662641 220.676256,349.588749 209.820607,422.819341 C199.463737,430.474911 185.028218,430.270955 172.663866,429.275896 M68.1161565,386.88596 C68.1511947,386.585176 68.1901489,386.286452 68.2313702,385.985668 C70.414042,391.91276 74.1528206,397.545248 79.7199733,400.977482 C77.5886221,403.635094 73.4376298,404.426197 70.6366374,402.250663 C65.7519046,398.589752 67.7884466,391.966324 68.1161565,386.88596 M77.405187,414.51894 C75.2371489,414.352067 65.9641947,414.032742 64.8514237,415.487218 C66.1045534,416.01668 67.8274008,415.724136 69.1753397,415.783881 C71.7931031,415.89101 74.4044771,416.121748 76.9952405,416.488457 C76.8012939,417.497938 76.6261031,418.505358 76.4820344,419.516898 C73.8685992,419.766178 68.7796145,419.879487 67.1206603,421.706853 C70.0801489,422.17863 73.1614466,421.754237 76.1314466,422.343444 C75.9871718,423.727874 75.8820573,425.114364 75.8039427,426.500855 C74.6206832,426.626525 67.6627214,427.778156 67.6689046,428.872104 C70.2738893,429.218211 73.0336603,428.762915 75.6885229,429.020435 C75.1132786,437.329077 77.0632557,462.419815 65.7024389,463.954638 C55.7701489,463.431356 51.4130496,447.341475 50.0632557,439.62204 C47.0703779,421.636807 47.5837901,402.4608 53.5155458,385.124519 C55.6341183,380.303735 61.4011947,379.467309 66.2776832,379.218029 C66.4629733,380.033854 66.6464084,380.835258 66.8525153,381.642842 C64.7378588,386.434784 64.0640954,391.830353 64.0061794,397.015786 C64.4534313,404.46946 73.654042,410.011301 80.3360267,405.087509 C79.0870191,408.136552 78.122645,411.309205 77.405187,414.51894 M64.261958,468.138831 C44.5888511,463.911374 41.3612176,441.138321 42.7134847,424.393307 C43.8159504,412.736898 42.4908893,388.161201 53.255645,381.313216 C39.3434313,394.007947 40.5514237,480.43183 71.3827443,465.347309 C70.6139656,467.782423 66.6608359,468.484939 64.261958,468.138831 M86.4470954,210.088858 C86.5730267,210.047655 86.6964847,209.992031 86.8098435,209.924045 C86.7809885,212.800034 86.8263321,215.676023 86.9314466,218.547892 C86.7294618,215.729588 86.5686985,212.909223 86.4470954,210.088858 M84.8250344,166.304191 C58.5672252,140.150408 63.5774771,110.494346 69.6083702,77.8263242 C79.3425916,78.9882567 89.1306069,81.3224226 97.8965382,85.6075639 C94.8049351,100.026652 94.6068664,113.096333 93.275416,127.727619 C92.8735076,129.536443 93.3269427,133.02018 95.8911183,132.216716 C119.459233,150.920946 122.198393,189.357427 153.12679,200.472012 C165.732286,205.59358 160.412668,209.750991 164.578088,219.421402 C162.286179,219.001128 160.241599,217.081055 159.256408,215.243389 C158.768141,214.330736 157.345798,215.1342 157.822111,216.044793 C158.848317,218.004009 160.571576,219.580034 162.614095,220.564793 C162.362439,221.059232 162.275874,221.615476 162.24908,222.136698 C158.570073,222.888658 159.604729,224.633617 157.119286,225.465923 C155.492897,225.915039 153.928546,226.106634 152.522897,227.091393 C147.739156,231.545467 146.551981,231.217901 141.417859,227.299469 C141.488141,226.945121 134.501118,220.123918 132.336996,216.310554 C130.533561,213.129661 128.645416,209.926105 125.881523,207.466269 C112.346485,193.613726 97.9272481,180.539925 84.8250344,166.304191 M213.821141,79.3199431 C212.479385,97.8119759 212.825645,114.330372 213.114401,132.851247 C213.281141,145.309059 213.359462,157.770991 212.926637,170.224683 C201.955569,141.880946 205.313256,111.124756 203.754882,81.3327234 C206.997149,80.2531974 210.480149,79.7814199 213.821141,79.3199431 M135.174882,8.2401619 C135.135927,8.30814731 135.0945,8.37613273 135.053279,8.44205798 C134.781218,8.46059945 134.507095,8.48532142 134.228851,8.51622388 C134.544401,8.42145634 134.859744,8.33286928 135.174882,8.2401619 M172.560813,10.4156952 C172.550302,10.3847927 172.539996,10.3538902 172.531752,10.3250479 C172.556485,10.3394691 172.581218,10.3559504 172.608011,10.3724317 C172.587607,10.3847927 172.575034,10.3992139 172.560813,10.4156952 M252.68692,492.168585 C252.633332,490.694331 252.612515,488.789916 250.88534,488.266634 C251.668546,481.913294 246.39221,478.296676 240.852263,476.536266 C236.128294,473.647504 230.77137,471.629779 226.43076,468.147278 C228.446485,467.768826 230.46221,467.312087 232.253279,466.435281 C233.60534,465.773969 232.954042,463.572271 231.488828,463.776228 C228.893737,464.118421 226.562874,465.437132 224.124424,466.353699 C222.739385,465.216282 221.39763,464.02901 220.130279,462.771692 C221.708851,462.466787 223.716332,462.579066 224.635775,461.012517 C224.922263,460.522816 224.794271,460.01478 224.448218,459.636328 C222.848828,458.018275 219.678698,459.634268 217.691828,460.105633 C216.73776,459.00633 215.816256,457.884776 214.911447,456.749832 C216.412111,456.611801 220.315569,456.886009 219.551118,454.41031 C218.085698,452.473961 214.934324,453.635688 212.81534,454.034124 C210.127706,450.730651 209.262057,445.662647 205.061599,443.845376 C204.911141,443.044178 203.864324,443.105571 203.165622,443.343726 C202.724141,441.23762 202.487118,439.576098 202.383447,437.967728 L202.33192,437.963402 C202.285958,435.610694 202.376233,433.25263 202.516385,430.909606 C205.634576,430.046397 208.72824,428.913307 211.321065,427.055039 C212.512569,427.405267 213.957172,427.001475 214.204706,425.602623 C216.360584,411.276242 217.318981,396.772687 219.07295,382.394802 C225.46824,329.446525 226.861523,264.819177 215.022744,212.509551 C214.929996,210.527673 215.070355,208.543735 215.270073,206.576279 C216.681905,206.199269 217.522821,204.821019 218.691447,204.023735 C220.863813,202.254054 223.073485,201.263115 223.273408,198.174929 C223.71221,197.756716 223.763737,197.124246 223.522798,196.576242 C224.085469,193.40565 223.256714,190.257719 221.568698,187.517701 C219.718065,184.396552 217.970073,181.246561 216.426538,177.9709 C219.802363,144.954711 215.222874,112.956242 217.726866,79.7752394 C220.938011,78.075604 218.922286,68.6318119 218.623637,65.4838811 C216.747859,44.8101345 207.091752,21.9835165 186.561447,13.3843916 C185.12076,12.1688948 183.109156,11.756862 181.349004,11.0873087 C180.159767,10.5022221 178.224424,9.9954217 177.410302,11.3571902 C176.54692,10.9554582 173.766332,10.6484937 172.814118,9.95215825 C172.636866,9.82236791 172.523508,9.68021659 172.496714,9.52158396 C172.426637,9.52364412 172.344195,9.50922297 172.255569,9.49068149 C171.37776,8.25046272 170.54076,-0.387805287 169.458698,0.228183774 C168.277706,3.19482005 169.09595,6.54670702 170.225622,9.5421856 C171.0045,12.1915566 172.07234,19.0065794 176.21076,17.2636806 C176.924095,16.9093324 176.482821,15.988439 175.843889,15.9142731 C173.881958,15.3539085 173.444805,12.4717389 172.686332,10.7824044 C173.584958,11.5281838 177.678447,12.6468529 178.125698,12.8837717 C187.004782,33.2546742 133.31992,32.185449 129.099057,18.1413105 C126.089691,13.2896241 128.686844,10.6608547 134.051805,9.88211267 C130.108775,14.2620215 135.100889,15.234419 136.998927,10.9389768 C138.814729,7.86315187 139.641218,4.12601422 139.020836,0.586652325 C139.340302,-0.655626618 139.610508,-2.31611887 137.751218,-1.98237229 C137.687531,-2.14718541 137.586332,-2.01739508 137.625698,-1.89996572 C136.947401,-0.820439745 137.419592,0.73086381 137.178447,1.97726308 C136.974401,4.01682552 136.395034,6.01518469 135.412111,7.81988842 C133.588065,8.16805615 131.772057,8.54094585 129.964706,8.94885834 C128.880378,6.74654294 121.848011,11.1388128 119.960073,11.6559139 C94.8789275,19.0622038 75.8057977,38.7862148 69.1487519,63.6647562 C67.6627214,66.9775001 66.0590038,70.3067253 64.8429733,73.7224773 C64.2988511,75.2016751 64.2988511,77.0372813 65.793126,77.9952576 C58.5113702,111.384337 56.734729,146.172268 84.2440191,171.215622 C84.8683168,173.926798 84.452187,176.802787 84.4336374,179.563407 C84.664271,185.851028 79.2890038,207.400344 85.532187,210.187746 C83.7079351,238.10297 90.5488282,276.086215 97.1792863,303.01668 C97.6696145,312.272997 94.8770725,320.692888 87.3601489,326.533453 C73.0686985,337.213343 67.0483168,355.039943 65.3767901,372.028056 C65.1397672,373.768895 65.3726679,375.540636 65.7644771,377.250572 C62.6664847,377.827418 59.7667672,378.202368 56.7594618,379.337518 C40.174042,376.160745 41.3573015,411.778922 40.0876832,422.347564 C39.094042,437.971848 39.7144237,456.7008 54.0780115,466.931575 C58.9070954,470.367929 67.4316756,473.668311 72.1373015,468.464337 C73.4685458,466.87183 74.1942481,465.009442 73.6705305,462.974 C80.4164084,453.099633 78.8232023,440.479068 79.3281641,429.242933 C81.0945,429.304738 83.0195382,430.091721 84.7592863,429.659086 C86.0989809,429.304738 86.2700496,427.586561 85.1364618,426.902587 C83.4997672,425.975513 81.275874,426.327801 79.445645,426.265996 C79.5015,425.19059 79.5818817,424.115185 79.6849351,423.039779 C81.4222099,423.464173 83.9119809,424.483954 84.4293092,422.057081 C84.6376832,419.846525 81.844729,419.677591 80.1053931,419.582824 C80.2269962,418.748457 80.3630267,417.918211 80.5176069,417.090025 C81.8490573,417.223936 83.2545,418.072723 84.5634847,417.666871 C85.3052634,417.374328 85.5628969,416.624428 85.0208359,416.01668 C84.0131794,415.029861 82.2899198,415.227637 80.9566145,414.920672 C81.7664084,410.954857 83.2299733,407.162094 84.6397443,403.369332 C87.1913473,404.255203 89.9550344,404.84029 92.6779122,404.617792 C94.0895382,404.321128 95.6314237,404.236661 97.0576832,404.428257 C98.6445,404.007983 99.0113702,402.312468 99.2197443,400.928038 C99.1888282,400.878594 99.1577061,400.83121 99.1226679,400.787947 C102.789309,379.444647 115.943256,361.006178 130.692057,345.120253 C134.754424,340.575531 138.738469,335.849515 141.49824,330.451885 C147.104553,319.170426 148.110149,306.477755 152.399233,294.757482 C156.012286,284.114674 160.84137,273.908621 165.575645,263.688147 C167.473889,277.149259 171.018927,290.389934 171.425164,304.040581 C172.043485,321.310937 168.236485,338.329952 166.612363,355.462277 C163.691828,378.010773 166.34463,400.69936 164.934859,423.264337 C164.945164,424.860964 165.151271,426.364884 164.924347,427.961511 C164.798828,428.845321 165.433637,429.399506 166.101424,429.418047 C168.553889,431.027035 171.635393,431.597701 174.454729,432.285795 C175.235874,432.883243 174.898065,434.3542 175.036156,435.254492 C175.090363,436.16117 175.14766,437.06517 175.202485,437.967728 L175.208874,437.967728 C175.457027,441.778413 175.647057,445.078796 175.246179,449.228173 C172.488469,453.304001 170.501805,452.65299 169.734882,458.848521 C169.312569,465.315994 168.382821,472.309839 171.210607,478.180689 C169.945111,478.468494 169.464882,482.328829 169.6545,483.350465 C169.976027,486.231398 172.517324,487.142815 174.974118,488.13705 C192.928088,494.861425 231.076615,505.931305 249.52524,498.318587 C250.846385,499.066014 252.319844,497.600826 252.746691,496.421588 C253.311218,494.985653 252.791828,493.59463 252.68692,492.168585" id="ðŸ–-Ink" fill="#000000"></path>
                </g>
                <g id="Head" stroke-width="1" transform="translate(83.267176, 37.082954)">
                    <g id="head/hat-hip">
                        <path d="M86.0903488,58.3422193 C86.0084913,53.7270397 85.9179956,49.0195648 85.2331077,44.4492968 C84.5634396,39.9812129 82.721235,35.9424673 79.5555309,32.6979149 C72.8314947,25.8060479 63.0846965,24.1226879 54.0120912,22.580037 L38.5005112,19.9424089 C33.7682031,19.1379149 28.7195714,17.8519604 23.9383134,18.9928793 C21.5823401,19.5550981 19.5815624,20.8612421 17.7529323,22.4065712 C15.9903228,23.8960698 14.0952606,25.4955812 12.900923,27.4995028 C11.7045287,29.5063087 11.292979,31.8522175 10.9040531,34.1219003 C10.4653547,36.6808301 10.1245561,39.2597435 9.88248009,41.8448374 C9.39729973,47.0240899 9.33107334,52.2422795 9.68297821,57.4322448 C9.85348033,59.9495593 10.1247618,62.4596633 10.4711135,64.9586423 C10.6428496,66.197831 10.8370041,67.4339294 11.0562505,68.6657015 C11.1208315,69.0289085 11.1699871,69.4310525 11.2362135,69.8373169 C10.7469197,71.2312239 10.4688511,72.6747809 10.4912693,74.1121573 C10.5572901,78.3462066 14.125083,81.0118529 17.7218758,82.4430489 C19.8073903,83.272883 21.9877197,83.8367499 24.0368303,84.7638237 C26.192479,85.7388994 27.6597434,87.3196633 29.1335892,89.1229249 C31.9445091,92.5621628 35.116589,95.653233 38.7386794,98.2321464 C46.4180623,103.700028 56.1447047,106.286152 65.462471,104.323228 C67.6981261,103.852274 69.9535258,103.120916 71.9631474,102.018934 C74.0848602,100.855559 75.6802582,99.1697271 77.0200059,97.1765183 C79.5076093,93.4762576 81.2916087,89.3095758 82.6412286,85.0695521 C84.0177916,80.7444436 84.9949395,76.4115065 85.5278358,71.9016013 C86.058881,67.4063232 86.1707666,62.8653096 86.0903488,58.3422193 L86.0903488,58.3422193 Z" id="âœ‹-Skin" fill="#D08B5B"></path>
                        <path d="M36.5913193,3.86565068 C43.0103438,2.98122224 51.8700786,5.85576919 55.0668392,11.6518348 C70.328939,8.04778377 89.5784027,7.92973637 102.157511,19.9275139 C115.283295,34.1595395 98.7966238,52.924544 87.8645376,57.155297 C88.6604884,61.0298476 87.4194633,85.8517345 78.6382953,96.9236744 C71.6693037,106.304838 55.4403396,110.634272 47.9306362,99.4292459 L47.8720576,99.3367916 C47.0675025,98.042748 47.7604192,98.0843006 48.5863187,99.0468795 C55.939917,105.524447 65.9382521,105.635078 73.6429327,98.7990418 C88.0827556,86.3041466 86.5938957,55.6674465 79.722804,37.9436489 C60.1572223,35.7911894 39.2087018,41.7312605 25.69502,56.4838895 L26.6088209,61.9944164 C26.7645146,62.9332332 26.9413926,63.8712259 27.0763135,64.8133389 C27.1626957,65.416967 27.1723623,66.0172988 26.7548481,66.5059697 C25.3762283,68.1190782 23.0527512,65.6950892 21.1410296,64.7309324 C20.5766655,64.65141 20.011273,64.6207136 19.4567812,64.6598567 C10.271879,65.8448631 12.0815873,83.6920645 22.1763826,80.5637054 C23.0245742,80.0344492 23.7532702,80.1959661 24.0823455,80.9639953 C26.4885028,83.1716671 28.0750569,87.1090527 32.0727045,90.9014027 C33.4832034,92.323946 34.7668026,93.5141028 36.3533567,94.6552277 C37.2852568,95.5991949 40.097205,96.5617036 39.2058223,98.1770782 C37.5201343,101.852823 27.5797986,90.3066334 25.822331,87.1135851 C20.3158733,89.2915905 14.2135837,88.5517856 8.50721282,88.0194392 C-21.5970045,86.4516543 -17.5781727,54.6653827 7.09753662,34.5971183 C11.7424341,31.1718895 16.8671645,28.377689 22.1942761,26.2274957 C22.9215325,25.9339223 22.6037692,24.7377911 21.8662292,25.0354848 C18.3414217,26.4584401 14.9052588,28.152101 11.6297258,30.1123471 L11.6247668,28.9404056 C11.6199678,26.9665109 11.6508758,24.9114972 11.9931483,23.1079953 C12.1642675,21.8582997 12.4520027,20.5235194 12.8950202,19.5193954 C13.4427249,16.4408923 22.0223343,5.87389863 36.5913193,3.86565068 Z M19.0550214,68.7572346 C19.5198402,68.3149174 20.3875706,68.8423194 20.8013828,68.8291344 C21.8595654,68.9741699 22.8648904,69.4218436 23.6489122,69.9743796 C24.1665888,70.2648627 24.5293943,70.5376284 24.8325548,70.7885564 L24.8407817,70.7862902 C24.8385193,70.7862902 24.8356399,70.7885564 24.8331719,70.7891745 L24.8617068,70.8084882 C25.3031348,71.1226465 26.9190746,72.8921691 25.8981417,72.4162921 C25.8220431,72.3171982 25.7440934,72.2220186 25.6655266,72.1286932 C25.6570941,72.1414662 25.6453708,72.1540332 25.6313851,72.1661881 L25.6887316,72.2514351 C26.5564605,73.5589155 25.0583114,72.1814334 24.8278244,71.8155482 C24.8169238,71.8244069 24.8045834,71.8303814 24.7924488,71.8367679 L25.0926135,72.2027025 C25.1345778,72.2546561 25.1675689,72.296133 25.194949,72.3312073 L25.2582445,72.3924137 C26.2615145,73.3801992 26.2928575,74.2691704 25.1272829,72.8087533 C25.1731478,72.8775628 25.209963,72.9504926 25.2151049,73.0151818 L25.2841795,73.1033831 C26.1993457,74.2846357 25.4549667,73.8651244 25.0002066,73.3606157 L24.9621516,73.3172206 L24.9699381,73.3290032 C25.3930015,73.9818264 24.5535867,73.5237706 24.4052577,73.1745688 L24.3989982,73.1587752 C24.2373674,73.0266775 24.1379062,72.8784281 24.1037918,72.8409912 L24.097483,72.8347114 C23.3105817,72.0271271 22.1699245,71.3437706 21.2010035,71.0333039 C21.0605295,71.0065218 20.9184101,70.9850961 20.7748511,70.9698509 C20.1921822,70.8396485 19.6031374,70.7504434 19.0079225,70.7022356 C18.9351146,70.6935829 18.8612783,70.6400186 18.8061582,70.5707971 C17.9061026,70.5403922 18.183938,70.1708486 18.5573642,70.1022248 L18.5638999,70.1010984 L18.4898164,70.094852 C17.9121981,70.0383851 17.5177184,69.8307896 18.1017644,69.7033749 L18.1757734,69.6886348 C18.1667238,69.6744197 18.1587026,69.6602046 18.1508871,69.6459894 C17.6506927,69.590983 17.9770942,69.1039603 18.2547515,69.2218016 C18.1379298,68.8392292 18.6718544,69.0302064 18.7384921,68.9733459 C18.7892931,68.9168974 18.8524344,68.8670414 18.8888384,68.8643632 C19.0496739,68.7506421 18.9717242,68.7609429 19.0550214,68.7572346 Z M22.1155037,62.5632277 L21.9982707,62.6318312 C21.9034558,62.6872496 21.8059673,62.7241265 21.7080674,62.7457582 C21.846279,62.8046789 21.9828453,62.868338 22.1179718,62.9363234 C22.1157779,62.8532301 22.114224,62.7702284 22.114224,62.6873793 L22.1155037,62.5632277 Z" id="ðŸ–-Ink" fill="#000000"></path>
                    </g>
                    <g id="facial-hair/*-None" transform="translate(25.351145, 69.633546)"></g>
                    <g id="face/Smile-LOL" transform="translate(32.770992, 38.319052)">
                        <path d="M11.4589144,34.531931 C11.9368238,33.4535834 13.2515139,32.0771723 15.4029847,30.4026977 C16.0560085,34.1077951 16.1293251,36.53165 15.6229344,37.6742624 C14.9967026,39.0872825 12.7416606,41.6372755 11.0880206,40.9202628 C9.43438057,40.2032502 10.2805966,37.1906697 11.4589144,34.531931 Z" id="eye" fill="#FFFFFF"></path>
                        <path d="M48.9461407,33.0683793 C49.3389871,32.1570332 50.4196756,30.9937842 52.1882064,29.5786321 C52.7249985,32.7099285 52.7852655,34.7584058 52.3690072,35.7240642 C51.8542384,36.9182527 50.000571,39.0733334 48.6412623,38.4673631 C47.2819535,37.8613927 47.9775516,35.3153645 48.9461407,33.0683793 Z" id="eye" fill="#FFFFFF" transform="translate(50.262061, 34.075651) scale(-1, 1) translate(-50.262061, -34.075651) "></path>
                        <path d="M24.1050118,41.0448665 L42.2087496,41.0448665 L43.2918743,44.0354062 C34.2855866,46.1247151 28.2012063,46.496925 25.0387333,45.1520359 L24.1050118,41.0448665 Z" id="teeth" fill="#FFFFFF"></path>
                        <path d="M34.7011008,40.2798131 C37.2547649,40.2674521 41.0801084,40.1932862 43.6317115,40.3436782 C44.367513,40.3869417 44.7302611,41.4376253 44.7817878,41.9361851 C45.2702611,46.5694941 41.5685817,50.2654284 37.4814824,51.6972425 C33.689116,53.0260483 28.6807191,53.2773883 25.2985053,50.7948906 C23.8289634,49.7174248 22.7159863,48.2238058 21.9904901,46.5612534 C21.598887,45.665082 21.3123985,44.735948 21.1536962,43.7717912 C21.0320931,43.0363127 20.8012534,42.0453737 21.0712534,41.3222562 C21.4422458,40.3354376 22.4748412,40.4054831 23.3590397,40.3890018 C24.5791924,40.3642799 25.799345,40.3331714 27.0174366,40.3189562 C29.579345,40.2899079 32.1412534,40.2899079 34.7011008,40.2798131 Z M41.7849939,41.6290146 C40.6369786,41.7528304 27.9614061,41.8432716 26.0033908,41.8865351 C25.708658,41.8929216 25.3994977,41.8865351 25.0862153,41.8782944 C24.8691847,42.5494959 25.4324748,43.931454 26.038429,44.1714631 C26.6443832,44.4112662 31.7682,44.6467429 34.7938489,44.5087119 C36.8569786,44.4160046 42.2087496,43.165897 42.2087496,42.6296363 C42.2087496,42.0931696 41.9807954,41.608619 41.7849939,41.6290146 Z M16.1472366,29.7438044 C16.5415191,29.5353158 16.9102443,29.8051973 16.9613588,30.2106376 C17.0642061,31.0246084 16.6342672,31.8754562 16.612626,32.7137369 C16.5893359,33.6101143 16.6868244,34.5056676 16.6567328,35.402045 C16.6041756,36.9675637 16.136313,38.5392629 15.2315038,39.8285136 C14.1515038,41.3672501 11.3029008,43.047726 9.94341985,40.8202766 C8.96585496,39.218705 9.73422137,36.882891 10.4457023,35.3375619 C11.0036336,34.1261854 11.8150763,33.0060742 12.7240076,32.0332647 C13.3289313,31.3855491 14.6004046,29.9265409 15.5777634,30.0732246 C15.6152748,30.0787871 15.6321756,30.1239046 15.6249618,30.1564552 C15.6183664,30.1850915 15.6074427,30.2104315 15.5985802,30.2376257 C15.7399695,30.0363477 15.9178397,29.864942 16.1472366,29.7438044 Z M15.4029847,30.5849694 C15.2296489,30.7916038 14.9940687,30.956829 14.7945573,31.1589311 C14.3701832,31.5886813 13.9484885,32.0200797 13.5680153,32.4900031 C12.8744656,33.3464133 12.3019008,34.3033595 11.8478473,35.3062474 C11.3064046,36.5015546 10.4147863,38.5507998 11.050626,39.8798117 C11.3915267,40.5920104 12.2687176,40.4642802 12.8602443,40.1175546 C13.9653893,39.470045 14.6173053,38.088293 14.9268779,36.8999903 C15.2721069,35.5744808 15.0703282,34.2293996 15.0767176,32.8801982 C15.0798092,32.1910733 15.0923817,31.2817169 15.4029847,30.5849694 Z M47.6104191,27.6438791 C47.6293809,27.1344005 48.1407321,26.863695 48.5844802,27.0851626 C49.3448084,27.4648509 49.6655107,28.2361763 50.0853504,28.9434306 C50.5721748,29.763582 51.0592053,30.5839393 51.5460298,31.4040906 C52.4050832,32.8513559 53.5778313,34.3958609 54.0106557,36.041726 C54.6504115,38.4743677 52.5386405,40.2597059 50.1978847,39.7372483 C47.7553122,39.1921289 46.848442,36.3528108 46.8999687,34.1350441 C46.9269687,32.9741417 47.1979992,31.7951098 47.4267779,30.6614015 C47.5613656,29.9943203 47.6077397,29.2697606 47.7804573,28.6008253 C47.6658618,28.2843841 47.5984649,27.9642346 47.6104191,27.6438791 Z M35.8666314,28.6158816 L35.9932024,28.6301798 C43.9070714,29.9892703 39.806602,43.615334 29.7024734,36.1379198 C28.4995176,35.1679295 29.9562835,33.0314138 31.2528507,33.8621206 C32.6511484,34.9339926 35.4887029,37.304022 37.4595359,35.2369586 C39.1338544,32.8926397 36.7623925,30.6876274 35.2060015,29.7420027 C34.7982371,29.4494633 35.1218569,28.4804139 35.9932024,28.6301798 Z M48.796358,30.39255 C48.6986634,31.0439739 48.5525336,31.6706758 48.4847244,32.1333887 C48.2174038,33.9547798 48.0279916,36.3202602 49.5342206,37.6980979 C50.1717092,38.2813304 51.2793275,38.4974416 52.0200756,37.9471717 C53.1035794,37.1424716 51.9660756,35.5948764 51.4604954,34.7683386 C50.7135641,33.5474853 49.9779687,32.3206576 49.2473198,31.0901216 C49.1149992,30.8672119 48.9585641,30.6335892 48.796358,30.39255 Z M19.811487,20.9307314 C22.3991588,20.5125181 25.1987084,22.2160678 26.1020748,24.6715774 C26.330029,25.2910687 25.9514107,26.0582738 25.4087313,26.3751271 C24.7825786,26.7406002 24.1133496,26.5634261 23.579945,26.1392383 C22.8631053,25.5693969 22.5222046,24.654066 21.7348763,24.1361407 C21.0687389,23.6977378 20.175884,23.674664 19.4099908,23.8013641 C17.609029,24.0992638 16.193487,25.2609903 14.5485481,25.9396084 C14.3179145,26.034788 14.1829145,25.7391544 14.2604107,25.5650706 C15.2567313,23.3269083 17.3369679,21.3306093 19.811487,20.9307314 Z M44.8984649,20.8294744 C46.9667473,20.6520943 49.4311672,21.5476476 50.0853504,23.674973 C50.1010145,23.7260651 50.0472206,23.7862219 49.9938389,23.7664443 C48.742358,23.3027014 47.3583504,23.0208709 46.0205107,23.2567597 C45.158984,23.4087998 43.4583962,24.0184024 43.3932664,25.006251 C43.2924802,26.5295364 41.5244954,26.9042802 40.6631748,25.7452319 C39.8255565,24.6179101 40.5463122,23.0760833 41.4717321,22.2612884 C42.4420832,21.4071444 43.6185412,20.9392811 44.8984649,20.8294744 Z M25.0631931,12.1964804 C25.5123,12.706577 25.6668802,13.6546645 25.0631931,14.1429234 C24.0013305,15.0020119 22.8273458,14.6690893 21.554842,14.7418131 C20.5061702,14.8019699 19.4983076,14.9754357 18.4881779,15.2640647 C16.2721168,15.8971531 14.4664145,17.0529052 12.5737351,18.3219663 C12.3253763,18.4884275 12.0718649,18.1709562 12.1903763,17.9387758 C13.2829489,15.7997074 15.4002847,14.0425934 17.5211244,12.9715141 C18.6530634,12.3998186 19.8917656,11.9255688 21.144071,11.7080155 L21.5310101,11.6403195 C22.7280373,11.4333874 24.2164031,11.2345486 25.0631931,12.1964804 Z M41.8794477,10.74981 L42.1756088,10.8103955 C45.3985507,11.4837825 49.5859066,12.8289283 51.1121251,15.9932281 C51.170281,16.4406712 51.1088337,16.5365672 51.0588661,16.5992202 L51.0422295,16.620069 C51.001056,16.673571 50.9682029,16.7473232 50.7741764,16.808221 C50.7203341,16.7953981 50.6659559,16.781817 50.6110016,16.7674218 C49.9114098,16.5841649 49.3578973,16.3317028 48.8220386,16.0697431 L48.2410318,15.7836277 C47.5669478,15.453256 46.8869122,15.1349082 46.1662305,14.8998919 C44.6282341,14.3984593 43.0462725,14.0452313 41.4398014,13.8566156 C41.0916112,13.8157695 40.7563258,13.6983069 40.4918098,13.4969953 C40.240731,13.3059101 40.048923,13.0413483 39.9614692,12.6896879 C39.8481292,12.2345833 39.8807007,11.8900318 40.1249911,11.4794607 C40.3086825,11.1711307 40.5715154,10.9574176 40.8733141,10.8346964 C41.1809849,10.7095873 41.5312649,10.6800929 41.8794477,10.74981 Z" id="ðŸ–-Ink" fill="#000000"></path>
                    </g>
                    <g id="mask/respirator" transform="translate(4.740458, 57.890611)">
                        <path d="M70.96957,5.58617612 C69.1485567,3.69700565 67.3205741,1.780435 64.9905672,0.474909025 C65.0931339,-0.0846315406 64.8668894,-0.727608751 64.2016519,-0.995430082 C57.7522165,-3.40582206 53.6522463,3.53157448 48.9813964,6.63109134 C47.8899007,7.21741404 46.7952758,7.89376591 45.576509,8.12285615 C42.9850583,8.87914239 40.7861194,10.4450731 39.2235941,12.502559 C38.3792415,13.3132335 36.8907552,14.6659373 36.4773192,15.7681251 C36.2242416,16.2180649 13.5417676,5.43145779 8.37956407,4.2312062 C5.9349716,3.41393911 4.61876218,5.72390704 7.71720642,6.90941951 C15.8591954,10.0246698 31.8007976,16.9979244 35.3599284,19.0073211 C34.6760075,21.1167231 34.4717461,23.9125717 35.1377958,25.9986939 C34.5780014,29.2457185 35.6647387,32.2203894 37.8127878,34.5516711 C38.2679115,35.2136018 38.963715,35.6907358 39.4165684,36.2651096 C41.0615328,40.5630239 45.0089241,42.6418303 49.6282147,44.6961251 C56.9784591,47.9649319 63.3858427,48.6198724 67.4138353,47.1880995 C77.8703216,43.1979737 83.9392124,31.4733739 81.9839271,20.7905991 C80.1449121,13.2650257 80.5244871,6.66364193 70.96957,5.58617612 Z" id="ðŸŽ¨-Color" fill="#9DDADB"></path>
                        <path d="M48.2859861,5.53714421 C54.5757416,2.02786071 55.6379354,-5.12461696 64.760005,-1.48863336 C67.6100902,-0.337825706 68.6111709,1.36572397 70.5125558,3.49366746 C71.4972597,4.3881907 72.7368927,4.83298013 73.9601372,5.30929006 C78.6127592,6.85317703 81.3410107,11.2394724 82.381731,15.8470294 C85.1042483,25.411009 82.2537295,36.6149273 75.295799,43.5746627 C75.3937952,43.7509962 75.3747054,44.0050546 75.1622973,44.1222046 C74.7714331,44.3377059 74.3829124,44.5585044 73.9958227,44.7826229 C71.5621313,46.884086 66.6245307,49.6474539 62.9643792,49.6474539 C54.8031943,49.6474539 46.9193504,46.3380335 42.1015166,42.0904295 C35.9351263,37.1192536 32.0461941,26.7469455 34.0469846,19.2819409 C22.5807965,13.8859921 11.9592177,9.78811357 7.51948127,8.01072175 C6.42390463,6.86208959 6.41393213,6.4396391 7.48956376,6.74337028 C17.9137057,9.6868845 38.4398899,19.2603092 38.6868461,19.270404 C38.8332898,19.2763785 39.3715992,18.1006428 39.4775999,17.5954906 C38.9975374,17.5429976 10.6844367,5.33474735 7.15827413,4.20210315 L6.97171642,4.14261914 C5.29467411,3.61315697 5.71366278,3.20112416 7.00245264,3.27611413 C9.61564821,3.42856627 31.770674,13.707961 36.081981,14.738043 C38.0080796,10.4116985 43.4794262,8.16591358 48.2859861,5.53714421 Z M62.0199793,-0.596170283 C58.5184663,-1.62625232 55.944257,0.914342024 54.0712755,3.5771041 C49.6532195,9.05312531 41.5943494,9.22620869 38.2665044,15.7325885 L38.1671174,15.9317021 L39.4844379,16.3272536 L39.5204204,16.2677649 C39.6242107,16.1062882 39.9334662,15.6961692 40.1956222,16.0695271 C41.5578473,17.5329131 39.4251081,22.3913263 38.305179,20.251495 L38.2715564,20.1844988 L36.4423892,19.6812007 C33.1383696,33.0651832 45.7461436,45.1157399 58.4313425,47.1565852 C58.4313425,47.1565852 63.7236511,47.2412479 65.8447654,46.7292598 C67.4087269,46.3518377 68.7598084,45.6217156 70.2035466,44.8971559 C71.6381922,44.1770305 72.8232362,43.0622647 74.2130921,42.3005688 C78.1836743,38.3651191 80.7945892,32.9623899 81.5046778,27.3581962 C82.1998987,20.6381469 81.548927,12.0820795 75.7146566,7.82042407 C73.7937681,6.60286709 71.4258268,6.27571304 69.6700251,4.77014512 C67.5744683,2.45534476 65.1217537,0.101401276 62.0199793,-0.596170283 Z M55.7228334,30.8427577 C55.6640294,30.746342 55.7997259,30.6538407 55.8766582,30.7257404 C57.1045068,31.8746939 58.2911895,33.0704131 59.437717,34.3015672 C59.4982152,34.2824077 59.5669442,34.2640722 59.6555136,34.2424405 C60.0765407,34.1396143 60.4404735,34.5792542 60.2368026,34.9666221 L60.1883362,35.0534156 C59.8819689,35.5746688 59.1776459,36.0335284 58.7583795,35.4051971 C57.6909906,33.9237331 56.6756033,32.4008598 55.7228334,30.8427577 Z M40.5487118,33.5977945 L40.5475706,33.5525314 C40.5241444,33.1048953 40.1602181,31.9758273 40.9000396,32.1488811 C41.7560616,32.6466168 42.0728878,33.9478164 42.1209664,34.872006 C42.1737446,35.8864308 40.4908781,35.8992038 40.5343557,34.872006 C40.5524772,34.4467881 40.5860432,34.0223943 40.5487118,33.5977945 Z M76.0929236,30.4759867 C76.2118043,30.4535309 76.2753128,30.6022747 76.1719693,30.6700541 C74.8152134,31.4319028 74.9288759,32.9677552 74.709967,34.2477351 C73.152046,35.2856458 73.3104927,30.8387816 76.0929236,30.4759867 Z M37.1625573,25.0417477 C50.2276604,26.3586046 64.2820861,30.2570531 77.644249,26.2930913 C78.453944,26.0734778 78.7750904,27.3250275 77.9679228,27.5413448 C64.4989995,30.9535945 50.1971639,28.9152682 37.1625573,25.0417477 Z M72.5962752,19.6473728 C73.0005527,19.5534294 73.3816145,21.5482862 74.005579,21.9195278 C74.3156118,22.5433455 76.7753289,23.0925852 75.7388123,23.8575242 C73.9699065,24.2269116 72.0299179,21.2378195 72.5962752,19.6473728 Z M61.1189716,20.1196448 C61.4224592,20.1136704 61.6303065,20.3462629 61.7296287,20.610788 C62.0006637,21.3876758 60.8404596,21.264066 60.4083338,21.5224106 C58.5802921,22.7807588 56.4691474,23.7955956 54.2228396,23.8426649 C54.0824345,23.8454516 54.0811584,23.6598308 54.1958739,23.6149192 L54.5875828,23.4616121 C55.8232924,22.9756414 57.0140162,22.4776007 58.1506766,21.7582994 C59.0708229,21.176509 59.9561312,20.0936868 61.1189716,20.1196448 Z M54.2164393,6.44491431 C53.9073827,4.2199371 60.9395799,-1.39792434 63.0949068,1.01720602 C63.6520957,1.63896354 62.9211073,2.56212306 62.1859879,2.1696618 C59.1817431,1.38185506 56.3083777,4.65524977 54.2164393,6.44491431 Z" id="ðŸ–-Ink" fill="#000000"></path>
                    </g>
                    <g id="accessories/*-None" transform="translate(9.687023, 49.649954)"></g>
                </g>
            </g>
        </g>
    </g>
</svg>