<?xml version="1.0" encoding="UTF-8"?>
<svg width="215px" height="585px" viewBox="0 0 215 585" version="1.1" xmlns="http://www.w3.org/2000/svg" xmlns:xlink="http://www.w3.org/1999/xlink">
    <!-- Generator: Sketch 62 (91390) - https://sketch.com -->
    <title>pose-mask-1</title>
    <desc>Created with Sketch.</desc>
    <g id="Introduction" stroke="none" stroke-width="1" fill="none" fill-rule="evenodd">
        <g id="poses-covid-10" transform="translate(-140.000000, -239.000000)">
            <g id="a-person/standing" transform="translate(126.000000, 192.000000)">
                <g id="pose/standing/walking-1" transform="translate(-24.938931, 130.614403)">
                    <path d="M249.85001,488.996786 C251.300384,482.247895 244.666629,479.966362 240.484514,478.464914 C237.488962,476.522688 226.389618,469.796571 217.801423,461.493302 C210.773776,454.698809 205.989733,445.990798 203.998285,445.160728 C202.631747,444.36858 201.877518,443.678181 201.735598,443.08953 C200.488215,437.915678 201.528551,433.093717 201.735598,429.957115 C205.733659,428.907873 208.937384,427.599051 211.333377,425.768801 C212.032079,426.0016 213.079514,426.299499 213.391766,425.27807 C215.557125,410.837144 216.49182,396.567005 218.253621,382.114954 C224.922415,327.071284 225.674705,262.766147 214.201766,212.491962 C214.081194,209.999988 214.298636,207.749465 214.521026,205.608336 C216.072392,205.440845 217.010384,203.939809 218.277117,203.042608 C220.243171,201.480797 222.571148,200.280546 222.475102,197.550828 C222.94214,197.197304 222.887728,196.998498 222.657507,196.548147 C224.15714,190.101893 217.467942,183.30912 215.576087,177.994721 C219.01498,144.374079 214.335942,112.603259 216.946285,78.9745823 C220.243377,77.5955085 218.026697,68.976194 217.801423,65.4209688 C215.974904,42.5173006 204.063781,19.872389 182.614239,12.3900791 C181.38811,12.1416233 179.545102,10.7407117 178.530438,11.6813827 C176.569537,10.9049068 173.960636,12.4358147 172.443072,10.6733444 L172.458323,10.6618075 C171.180461,8.89068439 170.60769,6.63913107 170.187644,4.5101575 C170.257926,5.11007728 170.375201,5.70505267 170.519682,6.28663699 C166.821919,-4.13037668 165.890316,-6.91571852 153.986201,-7.40624359 C148.623919,-7.4779373 141.555278,-7.31703849 138.428636,-2.20494733 C137.147476,0.171451941 137.538873,2.90013927 136.743713,5.4015905 C135.284064,9.9918421 128.983377,7.77366343 125.675568,10.1572733 C99.2015524,18.6447373 77.4863387,35.9690691 70.3486517,63.7757218 C68.889415,67.1271967 67.2343768,70.4628084 66.0144303,73.9216178 C65.8256364,74.4350107 65.3062471,76.1723471 66.5536059,76.9718968 L67.1568807,77.3585896 C59.2106364,114.482952 58.683415,145.765308 85.3798196,170.514677 C87.3831784,181.14945 82.2294761,195.672577 84.2105753,205.998119 C83.081728,207.599073 84.5131402,208.888529 85.9563005,208.991332 C86.0954226,209.068588 86.6576822,209.314571 86.8110257,209.384823 C84.5143768,241.793264 94.1568807,285.469979 98.4072165,302.708814 C98.9857585,313.059078 95.451644,321.561581 88.1814303,327.202311 C80.1488272,332.147529 64.2682929,354.482385 67.2123234,377.910571 C63.7717814,378.585275 60.3561784,378.955281 57.0553768,380.247828 C42.612644,377.699817 42.7558883,405.530367 41.8356211,415.315941 C40.277041,431.700426 39.3083387,455.448143 54.880331,465.936026 C58.9826822,468.910903 67.3007433,472.393405 71.5632394,467.632159 C72.9600257,465.95498 73.3097891,464.334867 72.7603081,462.622046 C79.7988578,452.681961 77.9020562,439.680059 78.5486135,428.021591 C80.5896898,427.898599 82.7251631,428.855545 84.6994608,428.506965 C86.7259036,426.722039 79.3332623,427.208444 78.5665448,427.103787 C78.6450715,425.305882 78.7897585,423.412797 78.9764913,421.600265 C80.1360486,421.832446 81.6214608,422.38869 82.736499,422.431335 C83.3964532,422.591822 83.862873,421.683496 83.4644684,421.212748 C82.5942852,420.38312 80.3755448,420.511674 79.1269494,420.393833 C79.3377967,418.876522 79.5956364,417.281337 79.8821249,415.813882 C81.409583,415.758876 82.9869188,416.731685 84.4331707,416.532673 C83.3385371,415.802551 81.2838578,416.024843 79.9495219,415.542559 C80.8172318,410.816336 82.5852165,406.329917 84.2289188,401.909217 C88.2620181,403.572181 91.7413081,403.637694 95.6785677,403.139135 C97.2890868,403.386766 98.0743539,403.057346 98.3350791,401.043742 L98.2322318,400.91663 C101.352896,382.251131 111.422865,364.456876 130.127682,344.277569 C133.822354,340.144467 137.997461,335.278154 140.779285,329.837261 C146.36911,318.514187 147.323797,306.019498 151.630812,294.260287 C155.651957,282.440714 161.15027,271.134739 166.312629,259.930125 C167.069659,265.672626 168.086591,271.563459 169.143713,277.194094 C173.796369,297.147401 173.345407,318.436312 169.921354,338.50025 C164.855247,366.601507 167.297201,394.836055 166.170415,423.136117 C166.185873,424.768385 166.38827,426.251085 166.148774,427.950515 C166.117033,428.081335 166.178865,428.23626 166.333858,428.232139 L166.626323,428.240174 C169.06127,430.022422 172.42411,430.344426 175.285285,431.311261 C176.486888,432.26182 176.148461,433.767388 176.258522,434.942094 C176.572835,440.004123 176.974743,445.085518 176.475965,450.303089 C174.268148,454.531576 171.526308,453.658066 170.965491,459.618739 C170.474545,466.423873 169.60601,473.660405 172.921446,479.719966 L171.667079,479.936283 C169.805522,483.840912 170.941995,486.37615 175.317232,488.027578 C196.91682,496.492792 227.310575,504.17844 249.85001,497.788841 C250.259719,498.194903 250.855531,497.773619 251.321374,497.135434 C251.769011,496.522192 252.09664,495.708671 252.02382,495.236504 C251.6384,493.163979 252.168301,489.379771 249.85001,488.996786 Z" id="âœ‹-Skin" fill="#D08B5B"></path>
                    <path d="M86.1188757,172.339776 L87.7518487,174.029786 L88.5335592,174.835006 L89.675114,176.004416 C92.117987,178.498437 94.6638392,181.043022 98.3613875,184.697419 L107.901495,194.107796 L109.739455,195.932738 L110.638198,196.827162 L106.937086,197.288465 L106.159226,197.387783 L105.555875,197.467055 L104.954077,197.548432 C101.076739,198.080956 98.5105253,198.600466 95.9614341,199.438002 C92.232217,200.663283 89.3270077,202.433367 87.1574645,204.980196 L87.0547087,205.102061 L86.1674949,206.165103 L85.9680368,204.795152 C85.7662958,203.409521 85.6853376,201.973075 85.6913829,200.289434 L85.6974917,199.635797 L85.7074625,199.114607 L85.7188012,198.685674 C85.7258181,198.444896 85.7344603,198.181661 85.7450819,197.880455 L85.8274889,195.623327 L85.8478872,194.95425 L85.8556788,194.637734 C85.8590886,194.48421 85.861796,194.3366 85.8639206,194.189551 L85.8686565,193.731032 L85.8486375,193.244982 L85.824655,192.610374 L85.8090621,192.155794 C85.6485413,187.264297 85.7314067,182.59068 86.0320286,174.60874 L86.1188757,172.339776 Z M127.032327,10.2342079 L126.860931,11.2297084 C125.901292,16.8034753 128.41082,21.4131672 133.798786,24.7846051 C138.730279,27.8704118 145.846157,29.7219876 153.470214,30.0155035 C161.030584,30.3065676 168.406182,29.0360635 173.791906,26.4341348 C179.56397,23.6455595 182.707736,19.5480197 182.583501,14.45055 L182.578735,14.2957755 L182.542417,13.3191732 L183.440717,13.7049628 C194.701911,18.5412609 203.437285,27.7689205 208.922925,39.8728407 C213.933049,50.9275476 215.93773,63.8476892 214.653725,75.9627528 L214.613809,76.3296268 L214.533899,77.0455142 L213.838157,76.8577849 C212.597261,76.5229591 209.407263,77.4741509 204.459478,79.7373922 L204.043947,79.928598 L201.778008,81.5033874 L201.739587,82.6691573 C200.226829,130.229871 204.783329,164.155113 215.379203,184.423775 L215.702138,185.033797 L216.035475,185.64765 C216.226491,186.006356 216.442381,186.379105 216.714239,186.824445 L217.030729,187.336188 L217.512004,188.104923 L217.772688,188.526722 L217.900404,188.736298 C218.415829,189.58708 218.727221,190.166893 219.023437,190.838984 C219.493833,191.90628 219.757167,192.919382 219.793745,193.946053 L219.797135,194.074463 L219.797519,194.116489 L219.818292,194.156376 C219.97407,194.473034 219.965484,194.853152 219.792432,195.176718 L219.76524,195.224814 L219.755473,195.240102 L219.712727,195.572978 L219.430031,195.628237 L219.391597,195.665229 C218.978467,196.048923 218.423791,196.294591 217.702679,196.474074 L217.603312,196.498146 L217.506136,196.520482 C217.353494,196.554686 217.196999,196.585856 217.01672,196.618668 L216.345461,196.735526 L215.535245,196.894687 L214.518485,197.092798 L214.241484,197.14882 L213.953036,197.208939 C212.253853,197.569021 211.112861,197.921288 210.05122,198.458943 C204.698738,201.267751 199.392455,202.617494 193.78892,202.774798 C189.323919,202.900141 184.898841,202.311022 179.122526,200.997257 L177.946005,200.724674 L177.262338,200.562206 L176.422354,200.358417 C176.159515,200.294047 175.876995,200.224376 175.564111,200.146814 L171.500569,199.133557 L170.219718,198.819222 L169.474837,198.639135 C166.576457,197.943174 164.61806,197.532909 162.385142,197.158513 C158.475353,196.502955 154.915644,196.236804 151.410357,196.401634 L151.140822,196.415164 L150.983381,196.423568 L150.841138,196.355589 C143.633341,192.910925 137.71491,187.907098 132.335429,181.119392 L131.97204,180.658061 L131.745059,180.366925 C128.056525,175.616479 125.267333,171.065365 119.968573,161.644204 L118.583464,159.179992 L117.609635,157.457222 L116.974769,156.341365 C114.193364,151.468037 112.396558,148.537883 110.185365,145.312777 C106.618209,140.109947 102.992738,135.88869 98.9197104,132.379087 L98.7122197,132.201245 L98.6871826,132.178692 C97.8790065,131.409799 97.3343681,130.715783 96.9905159,129.937769 L96.9517281,129.847616 L96.8914246,129.703565 L96.9986713,128.610047 L97.1106277,127.438822 C98.00847,117.924432 98.9588917,104.939976 99.9616767,88.4870871 L100.142176,85.4968095 L95.2505676,83.5979457 L92.9907866,82.7289463 L92.5005254,82.5429911 L91.9212127,82.3255527 L91.3323339,82.1063241 L90.75291,81.8925198 C88.2619029,80.9776073 86.024419,80.2119749 83.8741885,79.550075 L83.3891336,79.4021163 C78.1595305,77.821687 73.7468921,76.9721584 70.0821932,76.9555424 L69.9135841,76.9553673 L69.1428183,76.9572798 L69.170084,76.8325834 L69.1469819,76.8299986 C68.9694115,76.8078132 68.8034179,76.7736183 68.649867,76.724596 L68.5741324,76.6988362 L68.5004957,76.6705268 C67.8710662,76.4137405 67.5656207,75.8488057 67.8096503,75.1733616 L67.8293588,75.1209991 L67.9590019,74.6523466 C72.4900194,58.3289498 78.6235529,45.526373 87.1167498,35.3672715 L87.3748424,35.0602281 L87.6396962,34.7485812 C97.0587375,23.7266857 109.427921,15.8017423 125.577019,10.6889177 L126.067544,10.5348441 L127.032327,10.2342079 Z" id="ðŸ‘•-Top" fill="#78E185"></path>
                    <path d="M211.259542,497.941659 C207.379261,497.242548 185.083969,492.1732 172.305344,485.580675 C169.695454,484.234226 170.337816,481.052545 171.188213,478.986779 C171.577811,478.040374 172.499616,477.328189 172.305344,477.134002 C168.219603,473.050055 171.274809,462.30082 171.274809,460.240656 C171.274809,457.178307 176.240576,453.032389 175.396947,451.381951 C174.423024,449.476613 175.620503,455.993484 178.076336,459.622607 C180.216807,462.785704 183.576446,463.03041 183.909659,462.891629 L183.969873,462.865917 L184.012848,462.842991 C184.936944,462.337293 198.891332,442.243909 204.664122,445.201459 C207.38091,446.593339 208.840529,452.748561 211.877863,455.296263 C218.689205,461.009585 221.977099,470.129444 247.328244,481.872379 C250.041694,483.12928 250.065488,485.817794 249.51222,487.920939 C249.308282,488.696172 252.068702,488.670921 251.656489,489.082954 C250.609163,490.12982 253.514447,496.14487 251.244275,497.117593 C242.312713,500.94459 219.122215,499.358279 211.259542,497.941659 Z M66.3707581,378.246126 C67.3473877,379.468116 67.8268551,380.360854 67.8091603,380.924339 C67.5905109,387.887157 65.9336114,393.016159 65.8818993,396.439951 L65.8786745,396.671196 L65.8844417,396.755936 C65.9846833,398.144882 68.1070198,403.47944 72.7557252,404.616226 C74.5061187,405.044264 77.9412332,404.288871 83.0610687,402.350046 C80.1361799,410.426175 78.4186227,418.117454 77.9083969,425.423883 C77.3073398,434.031017 77.7924226,443.792522 76.6717557,451.381951 C76.0600009,455.524903 73.8446554,460.135061 71.3129771,463.330902 C70.6925566,464.114085 73.3896336,465.596721 72.7557252,466.215132 C71.5685582,467.373276 68.6335878,471.365542 59.5648855,468.275296 C56.9251433,467.375779 49.244716,462.377531 44.9312977,452.824066 C41.780467,445.845528 41.4840127,435.679035 41.0152672,426.659982 C40.4972329,416.692572 42.4221642,401.138364 44.9312977,392.667274 C47.7214548,383.247421 51.1905184,381.406839 51.9093836,380.885096 C52.0773382,380.763196 57.2993477,379.732359 57.8021312,379.676217 L57.8899098,379.666808 L57.9592241,379.66001 L57.9974729,379.645111 C60.0476647,378.852042 62.3915615,378.470035 65.473958,378.293135 L65.6636027,378.282559 L66.3707581,378.246126 Z" id="ðŸ‘Ÿ-Shoes" fill="#FFFFFF"></path>
                    <path d="M250.879327,495.775726 C231.470037,504.487748 196.225762,493.495331 177.154693,487.135192 C172.012533,485.280838 170.299579,484.917425 171.740266,478.991569 C174.436144,484.192042 180.23393,485.447918 185.78851,486.490567 C204.604006,490.777974 223.786373,498.693537 243.908793,494.831347 C246.862304,494.366574 249.784693,492.768093 250.644159,489.81835 C251.17406,491.068457 250.84635,492.7615 251.058434,494.136248 C251.0978,494.684251 251.10996,495.27696 250.879327,495.775726 M172.379197,463.371405 C172.729579,459.878809 173.29019,456.189261 175.279121,453.103135 C175.062709,458.094501 178.061564,466.578463 184.632251,463.752124 C186.493396,462.766129 187.536502,460.780749 188.733777,459.186388 C192.713701,453.94121 197.816907,449.386599 203.581922,446.076946 C206.788739,446.628246 208.1678,452.490031 210.234846,454.94348 C207.930571,455.970266 203.754846,458.308964 203.332533,460.728009 C206.209785,459.760556 208.858052,457.958942 211.875663,457.325854 C212.842098,458.659192 213.866655,459.952357 214.942533,461.20164 C213.536678,461.820514 207.868739,464.684142 207.906044,466.11369 C210.970648,465.615954 213.940648,464.116155 217.021945,463.49996 C218.392556,464.858638 219.639709,466.320942 221.00393,467.684153 C218.942861,468.532734 216.766373,469.480204 215.641029,471.457961 C215.587648,471.547372 215.71935,471.64729 215.791693,471.56097 C217.335434,469.700435 219.992151,469.35886 222.294365,468.940235 C225.826831,472.265134 229.782228,475.198189 234.209197,477.39247 C238.638434,479.813369 245.37009,480.367141 247.132098,485.618705 C248.541869,490.868827 244.145609,491.429398 240.089426,491.800228 C235.985838,492.383666 231.853396,492.472253 227.776602,492.131502 C215.033014,491.600598 202.986067,487.850481 190.943243,484.573996 C176.219174,481.865086 171.441411,479.671424 172.379197,463.371405 M176.697136,432.668986 C176.662098,432.899724 176.631388,433.130463 176.598411,433.363261 C176.556983,433.118102 176.528335,432.870882 176.468357,432.629843 C176.544823,432.642204 176.620877,432.656625 176.697136,432.668986 M200.486197,444.394616 C194.844846,448.5648 189.33767,453.211706 185.419579,459.028167 C182.826754,463.76057 179.376525,460.880049 178.519327,457.088935 C177.824541,448.624751 178.422251,441.315495 177.608335,432.800836 C185.40948,433.863881 193.422709,433.208749 201.04248,431.327819 C200.12551,435.128822 199.704846,436.571761 199.675991,440.471239 C199.725663,441.756164 199.706907,443.324773 200.486197,444.394616 M213.114365,132.851247 C213.281106,145.309059 213.359426,157.770991 212.926602,170.224683 C201.955533,141.880946 205.31322,111.124756 203.754846,81.3327234 C206.997113,80.2531974 210.480113,79.7814199 213.821106,79.3199431 C212.47935,97.8119759 212.825609,114.330372 213.114365,132.851247 M151.111029,195.789259 C124.172861,182.915294 120.446449,149.907345 99.1166552,131.722277 C98.4280521,131.067145 97.8573422,130.393471 97.525304,129.600308 C99.054617,114.155258 98.9433193,100.613799 100.751083,85.1852303 C102.770724,81.5222585 103.568564,77.2680197 105.072938,73.3701892 C105.860472,70.9968802 106.816602,68.646233 107.043319,66.1554946 C107.232938,65.3355493 105.950953,64.9791409 105.712075,65.7537626 C102.865533,71.283243 101.449579,77.4328328 99.3248231,83.2630972 C99.025762,83.3825867 98.6279758,83.2878191 98.5104948,82.9746742 C98.4921513,83.0509003 98.4713345,83.1271263 98.4527849,83.2033524 C89.3078231,79.6310279 79.8784338,76.3038629 69.9152277,76.3285849 C69.921617,76.2976824 69.9298613,76.2647198 69.9360445,76.2338173 C69.3216399,76.2523588 68.0334719,76.2029149 68.4188918,75.312924 C77.1763727,43.3906815 92.9004719,21.5096788 126.254747,11.116151 C121.99019,35.8855037 184.057212,37.3193779 183.199808,14.2640817 C206.580571,24.3053214 216.653014,52.5069076 214.00248,76.2523588 C211.780648,75.652851 205.995228,78.0117389 203.738357,79.381748 C203.278739,69.7401801 204.420777,58.1043734 203.748663,49.4825867 C200.191258,93.4423679 193.552556,146.042477 215.492838,185.929314 C216.916831,188.603407 219.239655,191.162131 219.181945,194.301821 C219.353014,194.474875 219.369502,194.777719 219.161335,195.000217 C219.161335,195.014638 219.161335,195.029059 219.15948,195.04348 C219.148968,195.04554 219.136602,195.04554 219.124441,195.04554 C218.487571,195.803681 217.147877,195.954073 216.226373,196.120946 C214.05009,196.559761 211.760037,196.893507 209.766983,197.902988 C188.531999,209.046415 171.876296,194.680891 151.111029,195.789259 M157.822075,216.044793 C158.848281,218.004009 160.571541,219.580034 162.61406,220.564793 C162.362403,221.059232 162.275838,221.615476 162.249044,222.136698 C158.570037,222.888658 159.604693,224.633617 157.119251,225.465923 C155.492861,225.915039 153.92851,226.106634 152.522861,227.091393 C147.739121,231.545467 146.551945,231.217901 141.417823,227.299469 C141.488106,226.945121 134.501083,220.123918 132.33696,216.310554 C130.533525,213.129661 128.64538,209.926105 125.881487,207.466269 C112.346449,193.613726 97.9272124,180.539925 84.8249987,166.304191 C58.5671895,140.150408 63.5774414,110.494346 69.6083345,77.8263242 C79.3425559,78.9882567 89.1305712,81.3224226 97.8965025,85.6075639 C94.8048994,100.026652 94.6068307,113.096333 93.2753803,127.727619 C92.8734719,129.536443 93.3269071,133.02018 95.8910826,132.216716 C119.459197,150.920946 122.198357,189.357427 153.126754,200.472012 C165.732251,205.59358 160.412632,209.750991 164.578052,219.421402 C162.286144,219.001128 160.241564,217.081055 159.256373,215.243389 C158.768106,214.330736 157.345762,215.1342 157.822075,216.044793 M86.5830903,204.697409 C86.0494796,201.032377 86.4656093,197.383826 86.4903422,193.712614 C86.2040597,187.027382 86.4266552,180.511083 86.6842887,173.803188 C94.075075,181.456698 101.758739,188.850627 109.306373,196.361985 C101.268205,197.375586 91.9975177,198.209952 86.5830903,204.697409 M86.4470597,210.088858 C86.572991,210.047655 86.696449,209.992031 86.8098078,209.924045 C86.7809529,212.800034 86.8262964,215.676023 86.9314109,218.547892 C86.7294261,215.729588 86.5686628,212.909223 86.4470597,210.088858 M77.4051513,414.51894 C75.2371132,414.352067 65.964159,414.032742 64.851388,415.487218 C66.1045177,416.01668 67.8273651,415.724136 69.175304,415.783881 C71.7930674,415.89101 74.4044414,416.121748 76.9952048,416.488457 C76.8012582,417.497938 76.6260674,418.505358 76.4819987,419.516898 C73.8685635,419.766178 68.7795788,419.879487 67.1206246,421.706853 C70.0801132,422.17863 73.1614109,421.754237 76.1314109,422.343444 C75.9871361,423.727874 75.8820216,425.114364 75.8039071,426.500855 C74.6206475,426.626525 67.6626857,427.778156 67.6688689,428.872104 C70.2738536,429.218211 73.0336246,428.762915 75.6884872,429.020435 C75.1132429,437.329077 77.06322,462.419815 65.7024032,463.954638 C55.7701132,463.431356 51.4130139,447.341475 50.06322,439.62204 C47.0703422,421.636807 47.5837544,402.4608 53.5155101,385.124519 C55.6340826,380.303735 61.401159,379.467309 66.2776475,379.218029 C66.4629376,380.033854 66.6463727,380.835258 66.8524796,381.642842 C64.7378231,386.434784 64.0640597,391.830353 64.0061437,397.015786 C64.4533956,404.46946 73.6540063,410.011301 80.335991,405.087509 C79.0869834,408.136552 78.1226093,411.309205 77.4051513,414.51894 M64.2619223,468.138831 C44.5888155,463.911374 41.3611819,441.138321 42.713449,424.393307 C43.8159147,412.736898 42.4908536,388.161201 53.2556093,381.313216 C39.3433956,394.007947 40.551388,480.43183 71.3827086,465.347309 C70.61393,467.782423 66.6608002,468.484939 64.2619223,468.138831 M68.1161208,386.88596 C68.151159,386.585176 68.1901132,386.286452 68.2313345,385.985668 C70.4140063,391.91276 74.1527849,397.545248 79.7199376,400.977482 C77.5885864,403.635094 73.4375941,404.426197 70.6366017,402.250663 C65.7518689,398.589752 67.7884109,391.966324 68.1161208,386.88596 M135.174846,8.2401619 C135.135892,8.30814731 135.094464,8.37613273 135.053243,8.44205798 C134.781182,8.46059945 134.50706,8.48532142 134.228815,8.51622388 C134.544365,8.42145634 134.859709,8.33286928 135.174846,8.2401619 M172.560777,10.4156952 C172.550266,10.3847927 172.53996,10.3538902 172.531716,10.3250479 C172.556449,10.3394691 172.581182,10.3559504 172.607976,10.3724317 C172.587571,10.3847927 172.574999,10.3992139 172.560777,10.4156952 M252.789938,492.168585 C252.73635,490.694331 252.715533,488.789916 250.988357,488.266634 C251.771564,481.913294 246.495228,478.296676 240.955281,476.536266 C236.231312,473.647504 230.874388,471.629779 226.533777,468.147278 C228.549502,467.768826 230.565228,467.312087 232.356296,466.435281 C233.708357,465.773969 233.05706,463.572271 231.591846,463.776228 C228.996754,464.118421 226.665892,465.437132 224.227441,466.353699 C222.842403,465.216282 221.500648,464.02901 220.233296,462.771692 C221.811869,462.466787 223.81935,462.579066 224.738793,461.012517 C225.025281,460.522816 224.897289,460.01478 224.551235,459.636328 C222.951846,458.018275 219.781716,459.634268 217.794846,460.105633 C216.840777,459.00633 215.919273,457.884776 215.014464,456.749832 C216.515128,456.611801 220.418586,456.886009 219.654136,454.41031 C218.188716,452.473961 215.037342,453.635688 212.918357,454.034124 C210.230724,450.730651 209.365075,445.662647 205.164617,443.845376 C205.014159,443.044178 203.967342,443.105571 203.26864,443.343726 C202.240167,438.435179 202.318487,435.940527 202.619403,430.909606 C205.737594,430.046397 208.831258,428.913307 211.424083,427.055039 C212.615586,427.405267 214.06019,427.001475 214.307724,425.602623 C215.049296,420.673887 215.463365,414.984743 215.983373,409.949496 L216.172785,409.949496 C217.159831,400.765697 217.955403,391.554909 219.072915,382.394802 C225.468205,329.446525 226.861487,264.819177 215.022709,212.509551 C214.92996,210.527673 215.070319,208.543735 215.270037,206.576279 C216.681869,206.199269 217.522785,204.821019 218.691411,204.023735 C220.863777,202.254054 223.073449,201.263115 223.273373,198.174929 C223.712174,197.756716 223.763701,197.124246 223.522762,196.576242 C224.085434,193.40565 223.256678,190.257719 221.568663,187.517701 C219.718029,184.396552 217.970037,181.246561 216.426502,177.9709 C219.802327,144.954711 215.222838,112.956242 217.726831,79.7752394 C220.937976,78.075604 218.922251,68.6318119 218.623602,65.4838811 C216.747823,44.8101345 207.091716,21.9835165 186.561411,13.3843916 C185.120724,12.1688948 183.109121,11.756862 181.348968,11.0873087 C180.159731,10.5022221 178.224388,9.9954217 177.410266,11.3571902 C176.546884,10.9554582 173.766296,10.6484937 172.814083,9.95215825 C172.636831,9.82236791 172.523472,9.68021659 172.496678,9.52158396 C172.426602,9.52364412 172.344159,9.50922297 172.255533,9.49068149 C171.377724,8.25046272 170.540724,-0.387805287 169.458663,0.228183774 C168.27767,3.19482005 169.095915,6.54670702 170.225586,9.5421856 C171.004464,12.1915566 172.072304,19.0065794 176.210724,17.2636806 C176.92406,16.9093324 176.482785,15.988439 175.843854,15.9142731 C173.881922,15.3539085 173.44477,12.4717389 172.686296,10.7824044 C173.584922,11.5281838 177.678411,12.6468529 178.125663,12.8837717 C187.004747,33.2546742 133.319884,32.185449 129.099022,18.1413105 C126.089655,13.2896241 128.686808,10.6608547 134.05177,9.88211267 C130.108739,14.2620215 135.100854,15.234419 136.998892,10.9389768 C138.814693,7.86315187 139.641182,4.12601422 139.0208,0.586652325 C139.340266,-0.655626618 139.610472,-2.31611887 137.751182,-1.98237229 C137.687495,-2.14718541 137.586296,-2.01739508 137.625663,-1.89996572 C136.947365,-0.820439745 137.419556,0.73086381 137.178411,1.97726308 C136.974365,4.01682552 136.394999,6.01518469 135.412075,7.81988842 C133.588029,8.16805615 131.772022,8.54094585 129.96467,8.94885834 C128.880342,6.74654294 121.847976,11.1388128 119.960037,11.6559139 C94.8788918,19.0622038 75.805762,38.7862148 69.1487162,63.6647562 C67.6626857,66.9775001 66.0589681,70.3067253 64.8429376,73.7224773 C64.2988155,75.2016751 64.2988155,77.0372813 65.7930903,77.9952576 C58.5113345,111.384337 56.7346933,146.172268 84.2439834,171.215622 C84.8682811,173.926798 84.4521513,176.802787 84.4336017,179.563407 C84.6642353,185.851028 79.2889681,207.400344 85.5321513,210.187746 C83.7078994,238.10297 90.5487926,276.086215 97.1792506,303.01668 C97.6695788,312.272997 94.8770368,320.692888 87.3601132,326.533453 C73.0686628,337.213343 67.0482811,355.039943 65.3767544,372.028056 C65.1397315,373.768895 65.3726322,375.540636 65.7644414,377.250572 C62.666449,377.827418 59.7667315,378.202368 56.7594261,379.337518 C40.1740063,376.160745 41.3572658,411.778922 40.0876475,422.347564 C39.0940063,437.971848 39.714388,456.7008 54.0779758,466.931575 C58.9070597,470.367929 67.4316399,473.668311 72.1372658,468.464337 C73.4685101,466.87183 74.1942124,465.009442 73.6704948,462.974 C80.4163727,453.099633 78.8231666,440.479068 79.3281284,429.242933 C81.0944643,429.304738 83.0195025,430.091721 84.7592506,429.659086 C86.0989452,429.304738 86.2700139,427.586561 85.1364261,426.902587 C83.4997315,425.975513 81.2758384,426.327801 79.4456093,426.265996 C79.5014643,425.19059 79.581846,424.115185 79.6848994,423.039779 C81.4221742,423.464173 83.9119452,424.483954 84.4292735,422.057081 C84.6376475,419.846525 81.8446933,419.677591 80.1053574,419.582824 C80.2269605,418.748457 80.362991,417.918211 80.5175712,417.090025 C81.8490216,417.223936 83.2544643,418.072723 84.563449,417.666871 C85.3052277,417.374328 85.5628613,416.624428 85.0208002,416.01668 C84.0131437,415.029861 82.2898842,415.227637 80.9565788,414.920672 C81.7663727,410.954857 83.2299376,407.162094 84.6397086,403.369332 C87.1913116,404.255203 89.9549987,404.84029 92.6778765,404.617792 C94.0895025,404.321128 95.631388,404.236661 97.0576475,404.428257 C98.6444643,404.007983 99.0113345,402.312468 99.2197086,400.928038 C99.1887926,400.878594 99.1576704,400.83121 99.1226322,400.787947 C102.789273,379.444647 115.94322,361.006178 130.692022,345.120253 C134.754388,340.575531 138.738434,335.849515 141.498205,330.451885 C147.104518,319.170426 148.110113,306.477755 152.399197,294.757482 C156.012251,284.114674 160.841335,273.908621 165.575609,263.688147 C167.473854,277.149259 171.018892,290.389934 171.425128,304.040581 C172.043449,321.310937 168.236449,338.329952 166.612327,355.462277 C164.2658,373.579772 165.515838,391.787914 165.367029,409.949496 L165.468022,409.949496 C165.42948,414.328993 165.310556,418.898231 165.037877,423.264337 C165.048182,424.860964 165.254289,426.364884 165.027365,427.961511 C164.901846,428.845321 165.536655,429.399506 166.204441,429.418047 C168.656907,431.027035 171.738411,431.597701 174.557747,432.285795 C175.338892,432.883243 175.001083,434.3542 175.139174,435.254492 C175.441945,440.312195 175.841999,444.129061 175.349197,449.228173 C172.591487,453.304001 170.604823,452.65299 169.837899,458.848521 C169.415586,465.315994 168.485838,472.309839 171.313625,478.180689 C170.048128,478.468494 169.567899,482.328829 169.757518,483.350465 C170.079044,486.231398 172.620342,487.142815 175.077136,488.13705 C193.031106,494.861425 231.179632,505.931305 249.628258,498.318587 C250.949403,499.066014 252.422861,497.600826 252.849709,496.421588 C253.414235,494.985653 252.894846,493.59463 252.789938,492.168585" id="ðŸ–-Ink" fill="#000000"></path>
                </g>
                <g id="Head" stroke-width="1" transform="translate(83.267176, 37.082954)">
                    <g id="head/hat-beanie">
                        <path d="M50.3487381,12.0944304 C59.5569913,12.0944304 70.6052295,16.565928 71.5445793,16.655358 L71.5699379,16.6567175 C72.0641539,16.6567175 73.9952637,18.1303981 77.3632673,21.0777594 L73.7153391,28.2046922 L74.0105511,28.4870536 C75.4232307,29.8437418 76.6292357,31.0803235 77.581178,32.0551218 C85.3538637,40.0144278 86.7508723,71.2649607 84.9191103,82.1630531 C83.0873484,93.0611455 79.6945677,103.72513 63.8992644,103.72513 C48.1039611,103.72513 30.5313272,94.2118451 27.8243729,91.2492949 C26.0197366,89.2742614 23.9926591,88.3280492 21.7431403,88.4106585 C21.6506859,88.293803 21.5589773,88.1772897 21.4680147,88.0611186 L21.1370405,88.014154 C18.0237528,87.5625068 15.7930084,86.9545952 14.4448922,86.1906221 C11.8116417,84.6983675 8.91738051,76.8534124 8.91738051,75.1252684 C8.91738051,73.4144059 4.59564036,60.9684719 4.50920556,59.6514049 L4.50789153,59.6149228 C4.50789153,58.513902 -1.13802755,53.4525831 -1.13802755,51.8452077 C-1.13802755,50.2378323 -2.27605511,50.3353525 -1.13802755,44.6712106 L-0.807398268,43.0072512 C0.40364175,36.9766083 2.77397804,26.990736 11.8116417,22.6515736 C21.7431403,17.8832633 41.0474723,12.0944304 50.3487381,12.0944304 Z" id="âœ‹-Skin" fill="#D08B5B"></path>
                        <path d="M50.3471793,12.1549681 C59.5554325,12.1549681 70.6036707,16.6264657 71.5430205,16.7158956 L71.5683791,16.7172552 C72.0625951,16.7172552 73.9937049,18.1909358 77.3617085,21.138297 L76.5437919,22.7367867 C58.4132182,23.0934092 45.9343065,24.5693982 39.1070569,27.1647537 C31.1922498,30.1735404 26.2236947,41.6043979 24.2013914,61.4573261 C21.4360683,62.7691429 18.6707452,64.4957557 15.9054221,66.6371643 C13.140099,68.778573 12.4401168,69.8846148 13.8054755,69.9552897 C13.6865223,74.5444027 14.0531302,77.7491402 14.9052992,79.5695023 C15.7574682,81.3898644 18.7070902,82.4611381 23.7541652,82.7833234 L23.7541652,82.7833234 L25.0363619,87.0843272 L24.859587,89.0778808 C23.8726438,88.6333328 22.8333086,88.4311046 21.7415815,88.4711961 C21.6491271,88.3543406 21.5574185,88.2378273 21.4664559,88.1216563 L21.1354817,88.0746916 C18.022194,87.6230445 15.7914496,87.0151329 14.4433334,86.2511597 C11.810083,84.7589052 8.91582172,76.9139501 8.91582172,75.1858061 C8.91582172,73.4749435 4.59408158,61.0290095 4.50764677,59.7119426 L4.50633275,59.6754604 C4.50633275,58.5744396 -1.13958634,53.5131208 -1.13958634,51.9057454 C-1.13958634,50.2983699 -2.27761389,50.3958902 -1.13958634,44.7317483 L-0.808957057,43.0677889 C0.402082961,37.037146 2.77241925,27.0512736 11.810083,22.7121112 C21.7415815,17.9438009 41.0459135,12.1549681 50.3471793,12.1549681 Z" id="ðŸ§¢-Hat" fill="#9DDADB"></path>
                        <path d="M10.2786456,22.4275643 C15.231792,17.161414 43.3516263,9.01593193 57.578231,10.7425804 L58.0050494,10.797938 C59.1403591,10.9421495 60.2592151,11.1605269 61.3634683,11.4571905 C64.932701,12.292175 68.619578,13.5564977 71.5687095,15.6683719 C74.0308096,17.3960255 81.797603,20.2174202 79.5084732,24.7370082 C80.3572817,26.3478505 80.6740166,28.337969 80.1003973,29.9245014 C80.0282064,30.472505 79.8595553,30.9772452 79.6438054,31.5005269 C81.4572158,34.1810064 82.8930123,37.2123318 84.0552651,40.0955314 C86.0862765,47.3516354 87.3501312,54.9029608 87.5352361,62.3061604 C88.1510182,76.3713127 86.6113572,93.1721568 74.3816861,102.267369 C66.9937405,108.030678 55.4209859,108.224334 47.1186224,101.078448 C46.6474277,100.519938 44.4317228,99.012722 45.1711138,98.7484029 C45.3911829,98.9812015 45.6174221,99.2078195 45.8477748,99.4303172 C45.8372855,99.4055953 45.8352288,99.3808733 45.8395479,99.3540912 L45.6228875,99.1575572 C45.2148909,98.7794774 44.6863313,98.2311227 45.2883469,98.3384303 C45.3148786,98.3693327 45.3438783,98.3961149 45.3724667,98.4270173 C45.4999705,98.5036297 45.5962958,98.5700486 45.6712444,98.6286075 L45.7097978,98.6595139 L45.6978867,98.6471032 C45.3511052,98.2766989 45.1432025,97.8989038 45.6616983,98.1401871 L45.7303361,98.1736171 C45.9608944,98.4167165 46.1951549,98.649515 46.4337345,98.8761331 C46.4298267,98.849351 46.4337345,98.8225688 46.4483372,98.7937265 L46.2258926,98.5784755 C46.0087518,98.3653402 46.0418929,98.3644307 46.148056,98.1921586 C45.6865279,97.544237 46.5480881,97.9290757 46.6085557,98.1818578 C47.1476222,98.0541276 47.6208735,99.0677284 47.9680479,99.1913382 C63.1875736,110.911612 85.2740776,100.512109 84.9164139,67.8533582 L84.9109524,67.2143755 C84.8063474,56.7715107 83.9290071,46.0381901 79.6168623,36.5850119 C79.197497,35.6744193 78.7283591,34.7885488 78.2123279,33.9315205 C77.8565153,33.2887493 77.476022,32.6624594 77.0667346,32.0526509 C75.9209357,31.9599435 74.7897394,31.7498067 73.6752026,31.4243008 C73.2924469,31.3274731 72.9140104,31.2203446 72.5357795,31.0946746 C67.0073149,31.3966946 61.6020478,31.7252908 56.0581579,32.0367876 L54.3264964,32.1448204 C49.6301609,32.4472486 44.7732536,32.9316384 40.9834253,35.8412926 C37.2648747,38.4902516 37.2480096,43.7137976 34.0648233,46.6221313 C29.5256413,49.708051 29.4925281,52.4907147 28.6184219,57.0383209 C28.6832086,60.4664339 31.0562526,65.4472926 26.7015584,66.8900255 C27.436219,67.9392671 26.4121779,67.4351449 26.3315544,67.0671996 C26.3233275,67.0692598 26.3151007,67.07132 26.3089305,67.07132 C26.9635846,68.2903191 26.0012451,67.5227019 25.9160969,67.1310647 C25.8646789,67.1166436 25.8132609,67.0795606 25.7618428,67.0280565 C26.4214331,68.0960456 25.3552292,67.348206 25.4183705,67.1537265 C24.1438209,65.1914202 21.5206796,64.886722 19.6716879,65.4067074 C19.649064,65.476753 19.5670008,65.4829335 19.5155828,65.4458505 C11.6533575,67.1524904 13.6819009,83.4558049 21.7388976,81.8797794 C22.0838097,81.8093218 22.0755828,81.975165 22.1440716,81.9910283 C21.9579384,81.5015333 22.4826078,81.7007511 22.4770546,81.8035533 L22.5090238,81.8019985 C22.5343559,81.7997611 22.5239935,81.7969837 22.5428697,81.8035533 C22.3629066,80.8025196 23.3756358,82.2528751 23.2956294,82.3124139 C23.3266858,82.2938724 23.3616501,82.2835716 23.3925009,82.2794512 L23.3576393,82.1844259 C23.1895658,81.7359205 23.2039744,81.9223374 23.2051337,81.6655223 C23.078851,81.348051 23.0695958,81.4869061 23.0992125,81.2800656 C23.5430528,80.9356062 23.6740659,81.9805214 23.8221498,82.0569535 C23.5683505,81.7026053 23.7701148,81.4131522 24.009517,81.6055716 C25.8241615,85.4288241 28.1682058,89.0211322 31.1975493,91.8509736 C31.528887,92.1126144 31.8641324,92.3701349 32.2115125,92.6132343 C33.5000479,93.7374658 35.4765563,94.4603774 36.6828228,95.4562607 C36.6828228,95.472742 36.6748016,95.4933437 36.6624613,95.5139453 L36.6900727,95.5389248 L36.6900727,95.5389248 L36.7179927,95.5654494 L37.1375637,95.7673455 C37.2609669,95.8724139 37.3720298,95.9898432 37.4705467,96.1196335 C37.5756451,96.2411832 37.6679919,96.3750939 37.7463529,96.5172452 C37.7854306,96.690299 37.6990484,96.7624047 37.5345107,96.6882388 C37.4623199,96.6635169 37.3905403,96.6346746 37.3185551,96.6078924 C37.3226685,96.6140729 37.3245196,96.6181933 37.3288387,96.6223136 C37.3524396,96.6580721 37.5122058,97.0290672 37.3281094,96.9687018 L37.3062148,96.9601805 C37.2052298,96.9230975 37.1046562,96.8818943 37.0059336,96.8427511 C37.1231666,96.9890228 37.2299104,97.1476554 37.3245196,97.2815661 C37.4255046,97.3866345 37.4870005,97.5102443 37.5118868,97.6503355 C37.5075677,97.7286217 37.4645822,97.7615843 37.3864269,97.7512835 C37.2671371,97.7121404 37.149904,97.6709371 37.0324653,97.6276737 L37.0658633,97.6914925 C37.1488369,97.8549713 37.2667589,98.1291575 37.0573516,98.0376463 C36.8782112,97.9820219 36.7056524,97.9181568 36.5328879,97.8481112 C36.5182852,97.8769535 36.4896967,97.8872543 36.4321086,97.8604722 C35.8829642,97.6647566 35.3523303,97.4257776 34.8443204,97.1435351 C34.398012,96.8180292 33.9473846,96.4987037 33.4992252,96.175258 C33.0773918,95.9218578 32.6701612,95.6396153 32.2816467,95.32235 C29.680718,93.639608 27.4037228,91.5019818 25.5973052,89.1212562 C22.5761885,91.7419909 16.5358062,89.2382735 12.7993622,87.1867621 C9.49441807,85.353216 8.19539343,81.96301 7.85953098,78.3078669 C7.16127439,73.386959 3.14655606,71.7025688 3.4258587,60.9052489 C3.41968854,60.907309 3.4133127,60.907309 3.40508582,60.907309 C3.25905867,60.8640456 3.11735063,60.806361 2.9836638,60.7321951 C2.84586353,60.6662698 2.71629014,60.5879836 2.59473796,60.493216 L2.44459737,60.2851395 L2.44459737,60.2851395 C2.36664766,60.241876 2.29671917,60.1965524 2.24324443,60.1512288 L2.21551215,60.1870538 C2.1277253,60.293167 2.18673604,60.1335114 2.19182642,60.1017849 L1.93100414,59.7464891 C1.31257521,58.9007253 0.634092058,57.9517461 0.0814255629,57.1928332 L0.0640171931,57.2236696 C0.0515149711,57.246944 0.0449040839,57.2637617 0.0507804281,57.2711194 C-1.2644923,55.3782407 -2.50140399,53.0918706 -2.84508197,50.8784303 C-3.25087292,49.1734385 -3.09229977,47.4165305 -2.73833818,45.8372088 C-1.22068416,40.3066983 3.75082053,27.7916135 10.2786456,22.4275643 Z M45.9725737,98.9117805 L45.8901537,98.838254 L45.9626237,98.9292056 C46.0006005,98.9762077 46.0394796,99.0184534 46.1028082,99.0615479 C46.0986947,99.0471267 46.0986947,99.0327056 46.1005458,99.0162242 C46.0585471,98.9841107 46.0156043,98.9489917 45.9725737,98.9117805 Z M57.5153443,13.5214749 C47.86768,12.6906108 38.3785888,14.8195843 29.1722967,17.3966436 L28.537208,17.5794869 C23.3024135,19.0756912 17.7671674,20.4220347 13.3433647,23.6245196 C7.16271409,28.3663993 3.97109529,35.9098961 1.18588445,42.8746928 C-1.24618749,48.0494129 -0.00289997585,53.8844157 3.66217588,57.4977375 C4.04349185,53.9070775 4.69362119,50.4214859 5.70964109,46.9639125 C5.92168897,46.4237375 5.76126477,46.2467694 6.21826806,46.1763118 C6.90850344,55.4940219 3.5089502,62.3782662 10.2364828,73.4211577 C13.1555862,78.6317247 9.77639445,82.4442644 18.01973,85.1861367 L18.2428103,85.2715203 C19.9601887,85.9206475 21.8356835,86.4330339 23.5177552,86.0701531 L23.3670579,85.8246151 C23.2133686,85.5717584 23.1667308,85.4490137 23.3902385,85.3408551 C23.384274,85.3284941 23.3760471,85.3161331 23.3676146,85.3017119 C23.1868288,84.9597247 23.0120076,84.6136171 22.8452076,84.2633892 C22.7775415,84.286051 22.7096697,84.3025324 22.6395355,84.3210738 C22.684989,84.4055406 22.6909535,84.4900073 22.5636425,84.5188496 C22.1104236,84.674598 21.6450216,84.7370255 21.168607,84.7078072 L21.06635,84.700144 C20.5281063,84.6671814 20.1889531,84.5689116 19.8855868,84.4776463 C19.7850132,84.461165 19.6842339,84.4446837 19.5853056,84.424082 C18.6093918,84.2073528 17.5763011,83.6560529 16.9076613,83.1096974 C9.28586662,78.773464 10.0735906,64.0125943 19.4682783,62.6172452 C19.660993,53.323433 24.074098,37.6439362 31.3980796,28.7879088 C38.0182514,20.641814 56.0914767,17.1111048 68.6654429,18.356062 C68.8486967,18.4168368 69.0319505,18.4782297 69.2152043,18.5402407 C71.155103,18.7128824 73.003889,19.5785634 74.9452275,19.9807074 C73.551388,18.93435 71.9701813,18.2373965 70.3414644,17.6450994 C67.0963709,15.656835 63.3761749,14.5810173 59.7820559,13.8222589 C59.0375231,13.6389043 58.2827067,13.5379562 57.5153443,13.5214749 Z M19.0382797,70.0832593 C19.5434103,69.8084334 19.4856164,70.0737825 19.6018211,69.9967324 C23.2352235,69.6998627 27.1530703,72.8863185 29.1840817,75.5426941 C29.0236575,75.7095674 28.5896895,75.215128 28.5135908,75.1368418 C28.5033072,75.1471426 28.4909669,75.1553832 28.4786266,75.1595036 L28.535181,75.239456 C29.3583703,76.4227588 27.7264883,75.0303399 27.5736696,74.7433504 C27.5469322,74.7577716 27.5201949,74.7660122 27.4893441,74.7598317 C27.6187118,74.8869438 28.0138078,75.2184242 28.0816796,75.454107 L28.1864272,75.5414236 C29.1741474,76.3886613 29.0921734,77.0259941 27.9708223,75.8228764 C27.997354,75.8785008 28.0076376,75.9300049 27.9891271,75.9712082 L28.027738,75.9969814 C28.5791543,76.3829607 29.0326417,77.4589182 27.8801209,76.3543987 C28.0000278,77.161159 26.7380241,75.6018208 26.6975067,75.6127397 C24.5136809,73.8955929 21.2984098,72.2256239 18.5590638,72.001272 L18.4647817,71.9904216 C17.9621087,71.9257274 17.7244467,71.7763315 17.9009133,71.4470879 C17.2818404,71.2995801 17.4268392,70.9942638 17.7199219,71.0041526 C17.2832801,70.7165537 17.6763194,70.4415218 17.9297074,70.5488563 C17.7555032,70.0657479 18.4541711,70.3875455 18.5179294,70.3201781 C18.8805292,69.7600195 18.9782235,70.2272647 19.0382797,70.0832593 Z M11.4222644,40.1387743 C13.1673917,39.4984753 18.3221502,41.415252 17.9097778,43.9537861 C17.6642053,44.5366066 16.8550915,44.8705592 16.2864083,44.541551 L15.5441732,44.0422167 C14.2524907,43.1757192 13.0875369,42.415917 11.7007444,41.6602055 C10.945928,41.2850496 10.6209661,40.4885902 11.4222644,40.1387743 Z M21.3510619,36.3663666 L20.677087,35.9270355 C17.0399958,33.5426834 11.8983541,29.9298207 21.0168448,33.6677577 C22.0561056,34.1141953 23.4369877,34.3783083 24.0040256,35.3696593 C24.8947912,37.1968188 22.5505412,37.3196046 21.3510619,36.3663666 Z M21.7597734,25.6681406 C21.4679247,24.5587422 25.099476,25.8605599 26.1566303,26.2037832 L26.3176492,26.2646995 C27.3460128,26.6485242 28.5248205,27.0045896 29.1399034,27.8935298 C29.8605782,29.1217996 28.4019521,29.3762299 27.4984348,28.8214277 C25.6459467,27.6088151 23.6149352,26.6938963 21.7597734,25.6681406 Z M30.9945099,20.5002396 C28.9504157,18.2642673 34.4209914,20.4062524 35.2404542,21.000833 L35.2638502,21.0183708 C35.8753132,21.4495632 35.751293,22.3782851 35.1768509,22.6510509 C33.5423752,22.6821593 32.3396051,21.3175067 30.9945099,20.5002396 Z M40.2962338,18.0504572 C37.0466155,15.7111409 41.3272678,16.8238356 42.814071,17.7406086 C43.8274172,18.6357499 42.7836316,20.1468802 40.2962338,18.0504572 Z" id="ðŸ–-Ink" fill="#000000"></path>
                    </g>
                    <g id="facial-hair/*-None" transform="translate(25.351145, 69.633546)"></g>
                    <g id="face/Hectic" transform="translate(32.770992, 38.319052)">
                        <path d="M20.7672183,47.6212078 C20.7672183,43.8321541 26.3462084,43.0167091 31.1616893,43.0167091 C35.9771702,43.0167091 41.3883607,44.1274059 41.3883607,47.6212078 C41.3883607,51.1150098 35.7145695,51.6727259 32.1817122,51.6727259 C28.648855,51.6727259 20.7672183,51.4102616 20.7672183,47.6212078 Z" id="teeth" fill="#FFFFFF"></path>
                        <ellipse id="eye" fill="#FFFFFF" cx="20.8167939" cy="23.691887" rx="7.83206107" ry="6.59252507"></ellipse>
                        <ellipse id="eye" fill="#FFFFFF" cx="43.5916031" cy="23.691887" rx="6.49236641" ry="6.59252507"></ellipse>
                        <path d="M31.3039031,42.3844768 C33.2252313,41.696382 35.2644527,41.9551386 37.2026817,42.6698095 L37.37647,42.7349413 C39.1569361,43.4134426 41.332625,44.5917137 42.0610328,46.4320811 C42.2053076,46.7969362 42.2729107,47.1702379 42.2819794,47.5416855 C42.5200328,47.5651714 42.7560252,47.5960738 42.9899565,47.6370711 C43.4714221,47.7217438 43.4487504,48.4864768 42.9899565,48.5870128 C42.6993458,48.6506718 42.4033763,48.6972315 42.1047275,48.7320483 C41.8285443,49.5903127 41.2570099,50.3692607 40.5352237,50.9156162 C38.8455595,52.1943601 36.5169641,52.4351933 34.474445,52.6307028 C32.2158191,52.8469438 29.9459169,52.7942024 27.6956579,52.5206771 L26.9034788,52.4194716 C25.0607842,52.1801217 23.0061229,51.8724251 21.4394221,50.8869799 C19.9647275,49.9597001 18.9560405,48.1692115 19.5803382,46.430227 C20.2194756,44.6494211 22.4103916,43.893753 24.0365748,43.3220574 C26.3732084,42.500464 28.8596817,42.1782543 31.3039031,42.3844768 Z M28.0439107,48.3523601 C28.0667885,48.8727575 28.0863687,49.393567 28.1069794,49.9143765 C28.1131626,50.0740392 28.0672008,50.2182507 27.9888802,50.3430966 C29.1063916,50.4743291 30.2337962,50.536134 31.3581092,50.535326 C31.1524145,49.9141705 31.1414908,49.2009417 31.1297427,48.5377748 C30.1002389,48.4875068 29.0719718,48.4277621 28.0439107,48.3523601 Z M32.1817122,48.5863947 L32.2714055,48.9228435 C32.4102605,49.4500141 32.5365434,49.9922992 32.5178725,50.5126481 C33.0420023,50.4928706 33.5644832,50.4615561 34.0840786,50.4164385 L34.7470123,50.3601317 C34.8976649,50.347184 35.050184,50.3337023 35.2038573,50.3191987 C35.2378649,49.7798478 35.3013458,49.2332862 35.3578191,48.6939353 C34.298842,48.665299 33.240071,48.6311003 32.1817122,48.5863947 Z M36.3823763,48.7174211 C36.4306053,49.1939371 36.4755366,49.6811659 36.4944985,50.1638624 C37.3453076,50.0313938 38.1798344,49.8251714 38.892758,49.4607284 C39.251384,49.2773737 39.5389031,49.0557001 39.7532542,48.8101285 C39.0331168,48.7932352 38.3150405,48.7567703 37.6183992,48.7454394 C37.4810634,48.7431732 37.3437275,48.7403119 37.2063916,48.7371682 L36.3823763,48.7174211 Z M21.6034832,47.6212078 C21.6591321,48.615649 23.2319336,49.3253756 24.0417275,49.5589982 C24.8144221,49.7821139 25.600926,49.9629964 26.3954679,50.1067958 C26.3804221,50.0402525 26.3730023,49.9747393 26.3783611,49.9143765 C26.4288573,49.3531878 26.478529,48.7922051 26.5314985,48.2318405 L26.1050821,48.1979967 C24.6064093,48.0826383 23.0479877,47.9902638 21.6034832,47.6212078 Z M31.4184985,43.8321541 C31.5444298,45.0781413 31.7192084,46.317124 31.9521092,47.547454 L32.3785443,47.5565187 L32.3785443,47.5565187 C33.4022771,47.572794 34.426216,47.5793865 35.450155,47.5806226 C35.4528344,47.5303546 35.4555137,47.4802926 35.4573687,47.4306427 C35.4957046,46.3898478 35.481071,45.3488469 35.4429412,44.308464 C34.1422008,44.0214831 32.7806588,43.9279517 31.4184985,43.8321541 Z M35.9771702,44.4390784 C36.0911473,45.4837876 36.1861626,46.530351 36.2727275,47.5781504 L37.1699031,47.5766701 C37.3194069,47.5762505 37.4689031,47.5755409 37.6183992,47.5742361 C38.4586969,47.5664075 39.3220786,47.5114011 40.1844298,47.4883273 C40.1201244,47.0383874 39.855071,46.580825 39.3665977,46.1644658 C38.3327656,45.2833336 37.185987,44.7633482 35.9771702,44.4390784 Z M30.6188038,43.592969 C29.6303153,43.6988614 28.6492466,43.8723273 27.6823992,44.1152206 C27.9348802,44.8467849 27.8866511,45.6840356 27.9400328,46.4481504 C27.9637351,46.7845752 27.9831092,47.121206 28.0008344,47.4576308 C29.0350786,47.4829708 30.0693229,47.5072808 31.1035672,47.5293245 C31.0705901,46.2905479 31.0918191,45.0519772 31.1616893,43.8140246 L31.0489489,43.80599 L31.0489489,43.80599 C30.8815901,43.794041 30.7321626,43.7106044 30.6188038,43.592969 Z M27.0271855,44.2909526 C26.5751931,44.4201249 26.1267046,44.5635123 25.6825443,44.7242051 L25.1980893,44.8991755 C24.0302568,45.3245649 22.4847436,45.9404646 21.8337046,46.8917037 C21.7242618,47.0515725 21.6585137,47.2062908 21.626155,47.3556527 C23.2632618,47.2046427 24.960758,47.3568888 26.6127046,47.4191057 C26.6352389,47.2032005 26.6585061,46.9873869 26.6830557,46.7716648 L26.7209107,46.4481504 C26.8054145,45.7495488 26.8045901,44.973485 27.0271855,44.2909526 Z M35.2060015,29.3299698 C36.7623925,30.2755946 39.1338544,32.4806069 37.4595359,34.8249258 C35.4887029,36.8919892 32.6511484,34.5219598 31.2528507,33.4500878 C29.9562835,32.619381 28.4995176,34.7558967 29.7024734,35.725887 C39.806602,43.2033012 43.9070714,29.5772375 35.9932024,28.218147 C35.1218569,28.0683811 34.7982371,29.0374305 35.2060015,29.3299698 Z M16.1292229,17.8642596 C18.3409557,14.0220536 23.812887,13.9777601 26.9434443,16.9118458 C29.9324061,19.7134629 30.3021618,24.4932496 27.914826,27.7697345 C25.3704366,31.2617127 20.4277878,32.2277236 16.4196275,30.9831785 C12.6622992,29.8165076 10.642658,25.741709 11.9306198,22.0082797 C12.6272611,19.9889068 14.2307725,18.5927336 16.1292229,17.8642596 Z M14.0684015,11.4287809 C15.9375847,9.77488113 19.3340198,8.17763592 21.8545008,8.99160675 C23.3036382,9.45947001 23.9353557,11.7934299 22.3176229,12.5332348 C20.4443176,13.389851 18.2845237,13.0412713 16.377829,13.929202 C15.5771038,14.3022977 14.8239893,14.7685129 14.2664702,15.4522813 C13.8272565,15.9912202 13.3804168,16.7003287 12.7451954,17.0110015 C12.5782489,17.09279 12.3521496,17.0948501 12.2183863,16.9432221 C10.8259282,15.3688447 12.8525771,12.5043925 14.0684015,11.4287809 Z M40.7682687,8.90950921 C41.9234977,8.5854454 43.2050702,8.59203792 44.3786427,8.79558213 C45.5518031,8.99912634 46.7428947,9.48511905 47.7006733,10.1940215 L47.8118593,10.2770277 C48.8574592,11.0645954 50.1052013,12.2104817 50.0383374,13.6056532 C49.9824824,14.770676 48.7563527,15.5586888 47.6977878,14.9480562 C46.8348183,14.4501145 46.4287878,13.452583 45.6981389,12.7883861 C45.0952763,12.2401765 44.3870931,11.8079541 43.6315053,11.5051099 C42.7922382,11.1686851 41.9515282,11.0110826 41.0508412,10.9960434 C40.3572916,10.9845065 39.6596198,11.2119486 38.979055,11.2846724 C39.035116,11.3996295 38.4971771,11.3460653 38.1888412,11.2440871 C37.9604748,11.1468474 37.9592382,10.8582184 38.0383832,10.6709495 C38.4310168,9.74325761 39.8595435,9.16414549 40.7682687,8.90950921 Z M42.0258504,15.4286924 C43.9609878,15.0446778 46.1125374,15.4651573 47.7321252,16.5990716 C50.636171,18.6322476 51.9389725,22.8370425 50.5893847,26.1256824 C49.2501023,29.3896004 45.5894382,31.4660397 42.0988122,30.8424281 C38.5354305,30.2058374 35.7789573,26.6190917 36.1633466,23.0055639 C36.3267893,21.4672394 36.9980794,20.080749 37.9913084,19.0327435 C37.9989344,18.9966906 38.0073847,18.9602257 38.0216061,18.9227307 C38.7198962,17.0650808 40.0431023,15.8223898 42.0258504,15.4286924 Z M24.3182611,18.3828029 C22.0995206,17.0478166 18.8374672,17.793184 16.9315969,19.4048503 C16.5531847,19.7249998 16.1261313,19.6312624 15.8938489,19.3519041 C14.6003221,20.3955832 13.6870626,21.8556215 13.5403145,23.6335431 C13.2775282,26.8224711 15.5494443,28.9197181 18.6105435,29.1609634 C21.7388336,29.407565 24.9763603,28.5348795 26.4498183,25.5387829 C27.722116,22.9522469 26.7882458,19.8687993 24.3182611,18.3828029 Z M45.3225298,18.5207927 C43.585255,17.8399085 41.093629,18.2422585 39.5766824,19.4074873 C38.4218656,20.8957499 37.8598122,22.9377845 38.3037664,24.6102257 C38.945171,27.0255621 41.2638733,28.9071099 43.8111481,28.6394946 C46.1685985,28.3918629 48.2985069,26.5055767 48.5516061,24.1106359 C48.7950183,21.8071665 47.5303466,19.3860616 45.3225298,18.5207927 Z M43.8485359,22.1352064 C44.2444672,21.8529639 44.7168641,22.1708472 44.8617573,22.5472392 L44.9447153,22.7178208 C44.988513,22.8090861 45.0335473,22.9034416 45.0350931,22.9069438 L45.0507573,22.9524735 C45.0717802,22.9918226 45.0969252,23.0284935 45.1208336,23.0657825 C45.1393832,23.0785555 45.293345,23.2711809 45.3139557,23.2963149 C45.5623145,23.6028673 45.6942229,23.8832556 45.6863908,24.2866357 C45.671345,25.0841253 44.926887,25.645726 44.1550168,25.4526886 C43.3248183,25.2450241 42.971345,24.3867597 43.0469863,23.5987469 C43.1069634,22.9749293 43.3342992,22.5017096 43.8485359,22.1352064 Z M21.3089359,22.2875349 C21.6751878,21.9546124 22.2403328,21.9265942 22.6018443,22.2875349 C22.8003252,22.4857227 22.8807069,22.7065723 23.0231267,22.9371046 L23.0906155,23.0429983 C23.2388464,23.2704877 23.393858,23.488899 23.4336916,23.7679688 C23.5280885,24.4249552 23.3242489,25.0364119 22.6766611,25.3097956 C22.0325771,25.5813253 21.4361038,25.3036151 21.0438824,24.774977 C20.5797298,24.1486871 20.7207069,22.8219415 21.3089359,22.2875349 Z" id="ðŸ–-Ink" fill="#000000"></path>
                    </g>
                    <g id="mask/medical-mask" transform="translate(4.740458, 57.890611)">
                        <path d="M81.0530519,14.4945316 C80.6645405,9.57424175 74.4576321,7.48997375 71.366029,6.87192452 C61.0714031,4.45287985 52.3130977,10.6593302 40.0377847,10.7862363 C38.7988763,10.8056018 35.2558992,10.5967012 33.6082809,10.1618005 C25.2487924,8.26315333 16.8979603,6.24357448 8.6957313,3.75345415 C7.4898,4.03569663 7.13302901,5.60904394 7.96096031,6.50542133 C15.8169298,9.29014512 27.8356397,11.7837677 34.1824947,12.0676583 C34.0606855,20.2629911 29.7324412,28.5036474 23.755342,33.0360084 C33.2616092,43.5438753 55.4323191,46.9995945 68.4801206,41.4839172 C74.8984947,39.5584879 81.6713725,22.3231552 81.0530519,14.4945316" id="ðŸŽ¨-Color" fill="#FFFFFF"></path>
                        <path d="M8.03241756,4.0014773 C7.67894427,3.9876742 7.88505115,2.95759216 8.68124198,3.10448186 C18.9544328,5.50601513 31.7536695,10.0804035 42.3131427,10.0468228 C50.0811046,9.79259854 57.0415397,5.46831413 64.8523718,5.44215005 C70.1029443,5.54268605 76.7981198,6.2890835 80.4725931,10.5004709 C85.3191962,25.8647626 74.4052191,46.762243 57.233013,46.8831747 L53.9827549,46.6481139 C42.9037732,45.8322433 30.7664876,44.5268929 23.6254328,35.1315867 L23.569784,35.1793825 L23.569784,35.1793825 C22.5019443,34.4632695 22.5615092,32.9167043 23.4689977,32.1212749 L23.4959977,32.1637143 L23.4959977,32.1637143 C23.5133107,32.1356961 23.5324786,32.1089139 23.5510282,32.0815138 L23.5394863,32.0454609 L23.5394863,32.0454609 C23.8886313,31.6791637 24.2855931,31.3365584 24.6464863,31.0298 L24.6483412,31.0357745 L24.6483412,31.0357745 C30.0104176,26.5703688 33.511555,19.818181 33.7131275,12.8261902 C31.937929,13.313625 2.11302824,7.13313273 7.43697481,5.6248866 C11.2450053,6.91166509 15.0755015,8.07380365 18.9832878,8.99881732 C19.0488298,8.96194038 19.1428145,8.97162315 19.1788832,9.04434695 C23.959326,10.2202886 28.8362267,10.8923141 33.7195168,11.4364035 C33.7143641,11.2031929 33.7055015,10.9699823 33.6935473,10.7363597 C25.0106771,9.04681914 16.4984634,6.53836335 8.03241756,4.0014773 Z M78.3402115,10.2369759 C60.5307229,1.24415369 51.690387,14.5299459 34.466242,10.8719185 C36.2682344,18.9077945 31.8185931,27.5709905 25.7749214,32.8215247 C34.5563107,40.4185858 38.3569214,41.5689814 49.8762344,42.8019896 L51.3811035,42.981101 C53.6437095,43.2489397 55.9275508,43.4987746 58.1971809,43.5378802 C69.9700053,42.68147 78.865784,30.4383269 80.1970282,19.3453734 L80.2042432,19.0389372 C80.2639154,16.2236995 80.1345489,13.2437384 78.8868069,10.664666 C78.6569977,10.5847316 78.4572802,10.4407262 78.3402115,10.2369759 Z M53.5463382,17.2962724 C54.1617733,17.1578294 54.7897809,17.8290308 54.4082771,18.4167956 C53.1755519,20.317297 50.1608267,21.0535996 48.0523534,21.3523234 C45.6106053,21.698225 43.243674,21.4254593 40.9241473,20.5929469 C40.7998649,20.5482414 40.8087275,20.3286279 40.9575366,20.3463453 C43.1599947,20.6083982 45.4304679,20.4165969 47.5704756,19.8339825 C49.7403687,19.4114428 51.4924832,17.968916 53.5463382,17.2962724 Z M70.2799424,15.9273139 C70.269726,15.5661672 72.045955,16.6110824 72.3268786,16.7517916 C74.4963595,18.0538153 77.0075656,18.1492009 79.4002603,18.6603276 C79.9579855,18.8741727 79.9571611,19.5828691 79.4000542,19.7967141 C76.4137718,20.5904954 71.8816878,18.5072574 70.2799424,15.9273139 Z" id="ðŸ–-Ink" fill="#000000"></path>
                    </g>
                    <g id="accessories/*-None" transform="translate(9.687023, 49.649954)"></g>
                </g>
            </g>
        </g>
    </g>
</svg>