<?xml version="1.0" encoding="UTF-8"?>
<svg width="172px" height="607px" viewBox="0 0 172 607" version="1.1" xmlns="http://www.w3.org/2000/svg" xmlns:xlink="http://www.w3.org/1999/xlink">
    <!-- Generator: Sketch 62 (91390) - https://sketch.com -->
    <title>pose-mask-7</title>
    <desc>Created with Sketch.</desc>
    <g id="Introduction" stroke="none" stroke-width="1" fill="none" fill-rule="evenodd">
        <g id="poses-covid-10" transform="translate(-1254.000000, -215.000000)">
            <g id="a-person/standing" transform="translate(1215.000000, 192.000000)">
                <g id="pose/standing/polka_dots" transform="translate(-24.938931, 130.614403)">
                    <path d="M229.584015,157.689345 C227.437074,138.244215 224.189032,118.29837 215.986638,100.287853 C213.168209,76.9968293 217.916663,43.6397647 196.337207,27.933817 C196.613167,25.1452846 191.615207,22.7422307 189.29833,21.2537532 C185.534782,18.7884052 180.444341,13.9446106 175.989412,16.6581398 C174.584062,16.229292 171.118368,17.984853 169.522901,14.1773806 C167.888629,10.2773015 168.126054,2.45716232 166.822947,1.74327075 C167.397934,-3.89233305 142.062625,-7.66306603 135.450214,0.302868658 C132.310326,6.41288273 135.916848,8.35768029 128.837127,16.3895235 C125.710783,16.5816047 122.728556,17.3741179 119.845159,18.4607491 C117.464371,18.7900313 115.096282,19.1904547 112.738773,19.607139 C82.6705943,22.3897768 80.3973129,44.6384804 77.7323126,68.5307493 C75.4505661,100.624991 65.5390843,132.599308 69.824078,164.946609 C67.4557767,176.513154 67.3000203,188.855342 70.1279723,200.311923 C60.8555996,213.853348 67.5768265,221.346348 73.3601291,234.221891 C74.3388971,236.538046 75.1906899,238.923716 75.6238874,241.394958 C75.5096096,243.309673 75.5223071,245.226421 75.8587917,247.126908 C76.8403109,251.457172 84.0592811,250.851658 84.3809519,246.476271 C84.9455688,243.602978 84.7705545,240.621958 85.2084077,237.734235 C85.1830127,237.884648 85.1385713,238.173278 85.1385713,238.195636 C86.1973338,230.929069 87.9038821,228.112081 92.6178409,222.567131 C98.6703311,213.817778 94.9484728,202.823411 96.3297527,193.031128 C96.7083508,189.759038 97.2090568,186.530447 97.54406,183.25226 C99.5849766,184.452514 101.803447,185.453979 104.121382,186.079615 C102.660954,197.347773 105.201307,208.669186 108.025661,219.568834 C115.669998,247.647052 125.804745,276.478939 121.402722,305.944004 C121.404839,305.929776 116.602893,330.025733 112.810352,341.919528 C108.224638,357.003092 104.53257,372.112673 98.0449776,386.575682 C94.570298,396.985877 87.2190619,406.861701 87.5045447,418.069084 C84.9665197,421.821682 89.5363615,426.330815 93.5633837,426.319433 C93.5633837,429.706961 92.6689132,434.591991 90.879972,440.974523 C90.4584139,444.524063 88.6426669,449.043766 91.3878733,452.058324 C87.655857,461.560961 86.3446252,471.843916 85.3203576,481.901048 C84.929062,486.671574 84.4804159,492.421817 89.5890562,495.127216 C94.3487261,497.185636 99.8897174,496.280313 104.972116,496.893957 C109.889235,496.900868 114.97756,498.189744 119.813415,497.076892 C125.367738,495.495524 126.485968,489.481246 125.440114,484.67149 C124.765452,479.663148 123.957043,474.671068 123.072448,469.693215 C120.447868,458.85475 119.713316,446.827819 116.351221,436.401159 C118.234688,436.048705 120.124928,435.099682 121.402722,433.716087 C124.64927,433.609375 127.042966,431.193826 127.838255,428.337811 C128.412395,426.496879 130.884181,426.118611 132.549039,425.532814 C132.86034,427.122312 133.770119,428.458954 134.510808,429.90495 C133.878259,432.974592 135.989647,436.563768 139.475543,436.634909 C139.979212,437.118669 140.446904,437.612593 140.961154,438.073994 C136.997196,443.905948 134.057718,450.490982 133.313007,457.4366 C132.415927,462.764061 131.477156,471.300804 138.531693,472.878309 C141.195,473.229543 144.061045,473.910873 146.670811,472.94132 C149.58045,474.246456 152.673992,474.872296 155.806685,475.431059 C169.233267,477.696195 182.182716,477.505944 195.721248,479.026943 C199.293064,479.523915 213.604581,480.992066 215.986638,479.026943 C218.892256,479.621074 217.135181,477.455128 218.357742,475.431059 C219.331431,473.910873 221.931199,471.000181 220.253009,470.15665 C216.731771,468.637683 213.610506,465.649549 210.388931,463.953339 C195.333044,455.38753 162.859106,440.799922 163.084487,440.389133 C163.040046,440.679795 163.281378,433.346538 164.485104,431.400725 C166.178319,429.723011 169.55289,430.01776 171.320387,428.413017 C172.442002,428.465458 180.857434,426.045437 180.137061,421.992014 C179.21395,418.756512 182.229403,414.791051 180.137061,412.059635 C187.064834,348.802696 203.185621,287.451984 212.082147,224.532458 C212.278959,224.359686 212.473654,224.184882 212.670466,224.012111 C217.258084,224.779013 220.821858,220.173737 222.214777,216.546552 C222.88563,215.865425 223.531088,215.164176 224.12364,214.403981 C227.861793,209.54463 227.928878,203.215501 228.354034,197.433753 C229.278837,196.754862 229.873505,195.69994 229.924295,194.45192 C230.072222,190.735706 230.229883,187.019289 230.385639,183.305107 C230.387755,183.305107 230.387755,183.305107 230.387755,183.303075 C231.538998,181.455436 231.695601,179.37608 231.367582,177.258104 C231.48842,170.408221 232.544233,163.99144 229.584015,157.689345 Z" id="âœ‹-Skin" fill="#D08B5B" fill-rule="evenodd"></path>
                    <path d="M86.4031039,482.055204 L88.2470788,482.800698 C98.7772031,487.057886 111.135404,488.375284 124.72074,487.183369 L125.132792,487.146483 L127.60485,486.92079 L126.716925,489.237884 C126.0161,491.06673 124.631354,492.388145 122.656109,493.249852 L122.496733,493.317992 L122.446388,493.33531 C117.535882,495.024407 107.83078,495.657445 99.9354897,494.249257 C93.4797524,493.097825 88.2340244,490.035486 87.8088027,489.622035 C86.4094218,488.26139 85.8331816,486.454492 86.1206109,484.141451 L86.1357023,484.025376 L86.4031039,482.055204 Z M134.166464,465.182387 L133.725833,463.005157 L135.921262,463.34959 C150.90229,465.699905 164.007804,467.214945 189.175243,469.719937 L201.603568,470.95618 C208.286862,471.626473 212.572249,472.072779 217.46679,472.609418 L218.626529,472.736825 L219.023217,473.37578 C219.062732,473.439427 219.115958,473.497615 219.180117,473.546575 L219.219901,473.574814 L218.302832,476.408206 L218.185574,476.483177 C217.968546,476.622958 217.826285,476.706972 217.641273,476.790905 L217.577858,476.818956 L217.318023,476.931133 L217.035282,476.944008 C200.578157,477.693435 185.034467,477.276067 170.19521,475.559704 L169.652624,475.49633 L169.031054,475.422195 C161.214632,474.507694 138.252601,469.952222 137.088599,469.233285 C135.573785,468.297672 134.562301,466.991748 134.188147,465.285257 L134.166464,465.182387 Z" id="ðŸ‘Ÿ-Shoes" fill="#FFFFFF" fill-rule="evenodd"></path>
                    <path d="M233.211718,180.135717 C231.000881,181.585341 202.246303,194.813502 170.470349,195.614066 C148.30183,196.17258 109.648855,186.238833 98.519084,185.414768 C94.6204187,185.126104 97.9403367,196.857013 98.6146451,197.497976 C98.3538787,199.974248 96.6581982,204.121296 96.8432112,206.627557 C93.664379,205.804994 83.6793893,204.162261 70.6946565,197.569736 C68.8355045,196.625819 67.7490357,145.439035 70.7146236,120.006044 C74.8171558,84.8225754 76.9457374,52.665494 79.9694656,50.8860529 C80.0048515,51.7810064 77.520555,26.839711 98.519084,22.8678213 C102.331971,22.1466105 124.48855,17.0993619 124.48855,17.0993619 C133.557252,28.6362808 147.98838,38.319052 156.229008,38.319052 C170.862595,38.319052 179.139976,17.0500519 180.549618,17.3053783 C211.259542,22.8678213 208.597238,59.6059521 216,100.329991 C222.46461,135.89307 232.631361,170.601339 233.211718,180.135717 Z" id="ðŸ‘•-Top" fill="#FFFFFF" fill-rule="evenodd"></path>
                    <path d="M214.180692,184.664169 L216.436543,184.058671 L215.943174,187.572144 L214.39637,198.293217 C214.194912,199.702691 208.528102,231.716341 197.395939,294.334169 C185.981991,365.148118 180.006132,405.12685 179.468363,414.270364 C179.430749,414.909903 178.413082,423.80389 177.267631,424.553345 L177.185178,424.606436 L177.103336,424.657494 C176.735988,424.883123 173.964647,426.845931 162.412214,428.720146 C158.052915,429.427379 148.659362,430.448023 134.231557,431.782078 L134.298607,429.866542 C134.358366,428.23472 134.476397,425.480966 134.552148,423.540449 L134.572554,423.009816 L134.604378,422.121444 L134.567738,422.114077 C134.10404,422.026503 133.652906,422.224337 132.860594,423.022949 C131.521466,424.372723 129.841438,427.062032 127.729533,431.399752 L127.123966,432.648349 C106.121917,427.21219 93.3395777,423.122795 88.7769478,420.380165 L88.5655754,420.252484 L87.6057537,419.669866 L87.9566779,418.183132 C89.5808141,411.348278 111.276211,346.64149 113.829809,338.03622 L114.067123,337.233657 L114.202362,336.773434 C117.703258,324.826965 124.071383,271.12062 119.541985,255.048314 C111.29771,225.793984 104.181116,193.171884 103.176937,189.852785 L103.029408,189.36888 L102.879904,188.885891 L102.087739,186.345928 L104.687411,186.916917 C140.588932,194.802285 178.089211,194.161995 213.119915,184.946065 L214.180692,184.664169 Z" id="ðŸ‘–-Pants" fill="#E86BBB" fill-rule="nonzero"></path>
                    <path d="M135.298761,-0.372610745 C135.368062,-0.979132068 136.177624,-0.969951624 136.254835,-0.372610745 C137.106019,6.84546222 134.254654,15.1321388 127.24185,18.4958535 C132.500257,23.1387099 136.201141,29.34571 142.511146,32.8508035 C155.750503,41.4724643 174.883013,33.4053023 177.827197,18.2002432 C174.559605,17.451119 168.471032,17.514566 167.478955,13.6983575 C166.999461,13.2071018 166.75243,8.99715425 166.781982,5.89232814 C166.752014,5.31498023 166.733492,4.7372243 166.713929,4.16375257 C166.663773,3.6990181 166.649622,3.2253072 166.654616,2.74894417 C166.664814,1.71522619 168.212971,1.73542317 168.277903,2.74894417 C168.304749,3.16451226 168.322647,3.5851806 168.339504,4.00788903 C168.350743,4.11948243 168.366143,4.23066781 168.379878,4.34205719 C168.592779,5.11525457 168.740123,5.92333764 168.914106,6.65716112 C169.007549,7.05212421 169.10453,7.45157552 169.208379,7.85041481 C169.357596,8.89596535 169.624814,9.91744274 170.082248,10.8846535 C171.298464,13.4564018 174.297589,15.6646046 177.254052,15.6884737 C177.887341,15.693574 178.517093,15.6005455 179.151007,15.6164583 C180.183251,15.6427755 181.026527,16.0516113 181.947638,16.4679954 C182.77926,16.8437816 183.560311,17.0979779 184.362589,17.0967538 C217.458899,28.3166843 212.902043,69.3889699 217.942763,97.1577725 C223.080673,124.735214 233.694051,151.322595 235.25636,179.505742 C235.724616,182.428183 232.495525,183.512495 230.492639,184.895274 C229.95862,192.248198 233.053894,199.690477 230.907202,206.966897 C228.92159,212.916437 220.915666,227.220792 213.265826,224.967708 C204.591233,290.867586 184.430226,351.941331 182.522864,418.643376 C184.454159,424.220597 178.908971,428.269785 173.794371,429.085621 L173.097109,429.487332 C170.765354,430.825034 168.355983,432.134288 165.804889,432.962012 C165.740998,432.998938 165.677315,433.036476 165.612383,433.071973 C165.48814,433.139705 165.354947,433.180303 165.218841,433.201112 C165.361607,434.908062 165.901245,436.51158 166.597177,438.070623 C177.209099,440.517721 186.529468,446.943012 196.508308,451.144391 C202.945175,455.102998 222.594748,460.821566 224.086819,467.77513 L224.126443,467.986221 C224.726227,471.10186 223.050288,474.945406 219.501534,475.239996 C221.353954,476.611146 220.140651,479.379968 218.122782,479.914066 C215.697633,480.559349 213.065829,480.284344 210.569714,480.484682 C187.023113,481.223809 163.269024,479.143929 140.317629,473.866398 C138.39008,473.421248 136.382616,472.83982 134.758081,471.689204 C124.797763,463.808099 135.165152,447.128253 137.6134,436.904299 C136.724339,436.763736 135.845267,436.56911 134.981595,436.312874 L134.788527,436.255054 C133.949232,436.001074 133.081533,435.696458 132.429706,435.103708 C132.403068,435.07943 132.380591,435.052093 132.355201,435.026796 C128.159214,434.967429 132.432828,425.729046 132.810138,423.257875 C131.104855,426.88823 129.712575,430.763806 127.670147,434.220345 C126.263924,436.352248 123.180096,434.87338 121.108949,434.723637 C121.797805,447.360416 124.814412,459.680776 127.912808,471.92402 C130.428902,482.090443 134.7483,494.307574 120.494389,497.397915 C110.676629,499.96946 87.2817437,498.986948 83.0969949,488.240117 C81.8628811,479.490134 84.5656528,470.622437 85.9023666,461.99894 L86.1368493,460.772414 C87.7325104,452.389074 89.2077144,443.966902 91.5218508,435.740218 C91.8402646,434.40069 92.2323507,433.087682 92.654197,431.784059 C92.709139,431.02351 92.7490969,430.261738 92.6997739,429.498129 C92.6352587,428.497868 92.4460834,427.518213 92.2454619,426.537333 C92.2196558,426.412479 92.1965552,426.267836 92.1728302,426.112993 C88.0388611,424.206317 84.9691851,422.049728 84.5731449,419.722384 C84.1677796,417.514428 84.9871535,415.27586 85.5946728,413.168348 L85.630154,413.044529 C98.943599,366.302401 124.268114,324.181172 119.952253,274.321774 C118.364763,249.798564 106.748692,227.24405 104.788678,202.784899 C103.661327,197.906003 102.643235,192.976513 102.47945,187.946446 C101.782893,187.782626 101.081342,187.633495 100.388532,187.453762 C99.982086,189.628711 99.4680453,191.785299 98.6253933,193.815197 C98.3005279,197.828683 98.5082253,201.886032 99.2068627,205.855044 C99.3677346,206.769416 98.9223714,207.565258 98.1683757,207.857604 C99.9800049,213.502149 100.337336,220.581087 95.6653931,224.953427 L95.2782577,225.209805 C91.2195345,227.911116 90.7954697,228.675597 89.8513227,233.708918 L86.7438287,246.429155 C86.3541159,248.003532 85.8873486,249.607321 84.7646094,250.843503 C81.7850466,254.123369 77.0425533,251.982694 75.5060503,248.486781 C74.1035726,244.904979 74.1141864,240.962285 73.0902673,237.273786 C72.3119224,233.463698 70.1535759,230.209537 68.014376,227.014947 C63.232341,219.681404 62.8506606,209.470098 68.1827399,202.287523 C68.6484982,201.098962 69.074923,199.929169 69.5696091,198.760397 C67.7244737,196.596464 68.91197,193.187663 68.7001104,190.539411 C68.6965724,188.353037 68.6564065,186.166868 68.5898101,183.981514 C68.2006377,171.074014 66.8709997,158.246894 66.8227173,145.33817 C66.305555,127.940209 70.8848872,111.087362 73.5397928,94.0235689 C75.8225912,77.1729663 75.7010528,59.9930917 79.43586,43.3387465 C86.3864389,10.6490221 125.38943,23.1117806 131.987881,10.2297818 C133.981817,7.006426 134.874417,3.33812465 135.298761,-0.372610745 Z M87.6565564,484.232955 C87.0665543,488.579997 90.1202055,489.623711 93.6217173,490.945083 C102.549584,494.219034 112.857868,494.995699 121.932455,491.874144 C123.540549,491.193975 124.691001,490.176374 125.262481,488.685062 C112.668485,489.834862 99.4439042,488.998421 87.6565564,484.232955 Z M135.67066,464.875887 C136.460867,468.780432 141.492222,469.239862 144.861165,469.896162 C152.90663,471.579651 161.030554,472.931624 169.199846,473.887411 C185.030842,475.796535 201.045602,476.124787 216.954015,475.400348 C217.38385,475.214777 217.659562,474.85813 218.20187,474.858718 L218.268253,474.860538 C218.298846,474.860538 218.327773,474.863394 218.357742,474.864414 C218.093229,474.689985 217.866802,474.460882 217.698854,474.190365 C190.354596,471.185096 162.844472,469.139081 135.67066,464.875887 Z M162.403271,431.400725 C155.83583,432.540732 149.132281,433.142153 142.501157,432.105783 C142.053921,437.592424 139.929497,442.92157 138.258344,448.171559 C147.420339,450.592544 153.484146,440.430609 161.679452,438.495372 C161.215151,436.067858 161.379768,433.517123 162.403271,431.400725 Z M94.7118165,427.205058 C94.7338765,427.243616 94.7455309,427.289518 94.7411605,427.344192 C94.7093191,433.737454 94.0610452,440.107458 93.1189148,446.434619 C98.9402692,440.161316 108.683317,438.573099 116.707346,441.181569 L116.672181,440.773427 C116.465996,438.457193 116.157671,436.085244 116.535444,433.790088 L116.167708,433.68742 C112.028902,432.54526 102.297494,430.25513 94.7118165,427.205058 Z M214.620229,186.105869 C178.773489,195.727586 140.615439,196.331047 104.394303,188.375478 C106.200729,194.167522 107.557214,200.06504 108.515577,206.042529 C110.569451,221.417528 116.227228,235.947314 120.038413,250.926943 C124.435558,268.606366 125.483276,283.493201 123.294852,301.552073 L123.227546,302.099273 C118.409091,342.596047 98.6770054,379.565491 89.4065839,418.881251 C100.316108,425.503411 113.793131,428.090869 126.302425,430.829089 C134.164333,414.614793 140.807528,397.986153 145.160849,380.526581 C160.843668,325.724636 181.508519,274.124088 176.918364,216.264035 C175.89507,215.592434 176.228051,214.175994 176.790375,213.271006 C176.595996,209.096964 176.327114,204.926799 175.886953,200.775402 C175.872177,200.635043 176.107137,200.607298 176.136065,200.742352 C176.863839,204.29804 177.628032,207.844548 178.267357,211.417576 C182.674579,206.93242 185.524695,201.326841 189.400395,196.460593 C189.952105,200.094213 182.396748,214.168649 179.07234,216.346659 C186.155904,259.855026 174.359815,299.683797 161.619099,341.062913 C153.04565,370.774094 144.715694,400.572182 135.870241,430.201555 C135.977419,430.202575 136.084806,430.204615 136.192192,430.208083 C135.660254,429.228632 146.917952,429.904516 147.842393,429.413056 C156.133016,428.628027 164.247366,426.664024 172.311353,424.694104 L173.300741,424.438298 C175.309913,423.910544 177.642491,423.151067 178.003885,421.003158 L178.009194,420.732304 C178.011505,420.652303 178.015123,420.588358 178.021783,420.582694 L177.963865,420.340839 C177.951313,420.285326 177.942878,420.241735 177.944573,420.228532 L177.864435,420.109333 C177.772099,419.976026 177.68545,419.85786 177.808466,419.993309 C176.897553,418.997945 176.814932,417.459303 177.866322,416.508005 C179.836742,344.13673 203.143179,277.900107 211.7749,206.338547 C212.630455,199.58174 213.674769,192.850639 214.620229,186.105869 Z M71.8303474,200.117674 C67.6855564,205.265863 66.9735997,212.450886 68.6077079,218.725414 C69.4657604,221.83942 71.2005956,224.461355 72.9893322,227.131844 C76.1258127,231.583543 77.5886434,236.756213 78.3865511,242.057002 L78.4090276,242.157514 C78.7730026,243.861518 78.9988338,248.562689 81.4060717,248.033675 C82.0382614,247.626987 82.3411362,245.840723 82.5635376,244.906733 L85.3423328,233.530614 C86.146692,230.236874 86.6290994,226.322741 89.4792155,224.042727 L89.8160026,223.827832 C92.1441266,222.330656 94.4151708,220.5939 94.780494,217.676395 C95.5825639,214.100102 94.0912216,210.637851 93.5341015,207.161319 C86.1013232,205.4611 78.8446092,203.061128 71.8303474,200.117674 Z M229.584015,185.418968 L229.335376,185.541705 C226.476378,186.96611 217.94632,191.576112 215.74654,189.805792 C215.798569,200.343309 214.95446,210.829008 213.717849,221.281453 C214.033973,221.211886 214.360087,221.220046 214.652279,221.327152 C220.854273,219.610613 227.592576,207.88739 228.112652,201.862979 C228.536996,196.379397 227.447729,190.659369 229.584015,185.418968 Z M127.6202,23.9137434 L127.304292,23.4957995 C123.946798,19.0787679 122.062769,17.5013605 116.25678,19.8580273 C117.037249,20.8236655 117.404686,22.1177127 117.071889,23.4576725 L117.049693,23.5432615 C115.217877,31.0775497 105.821546,35.4429528 98.9438071,31.3435786 C96.5409272,31.9688688 94.0354472,30.2419253 93.9386744,27.794419 C87.1329425,31.7995406 83.9883456,39.1373674 82.7121928,46.5072237 C87.1797681,44.156214 93.1873842,46.4001185 94.9702936,51.0756166 C98.8784594,59.6203657 87.489233,68.5094834 80.5438569,61.3140556 C79.0389873,75.7269444 78.3326496,90.2502025 75.5913769,104.51294 C77.6229822,101.172687 82.4668269,100.386637 85.3552359,103.135261 C94.8129597,111.29688 83.9350685,129.838724 72.5021382,120.999385 C71.1165177,128.938837 70.6276588,136.991106 70.6925902,145.022975 C74.3562225,143.611838 76.3618136,149.941652 76.6273666,152.62071 C76.9590997,155.845086 75.2937744,162.605769 71.3912277,162.987267 L71.7122011,168.143922 C72.2574959,176.981768 72.7420303,185.811165 72.620763,194.671019 C72.8170142,194.720185 72.9841294,194.809542 73.1239818,194.925419 C73.1341793,195.181247 73.1681018,195.43728 73.2168004,195.690456 C73.2648747,195.941184 73.4244978,196.074403 73.6126326,196.116225 L73.6190841,196.126017 C73.6105514,196.303302 73.5757964,196.480994 73.5092001,196.64869 C80.672263,199.646819 88.0667483,202.122275 95.5983805,204.071181 C95.4133675,201.56492 95.4601931,199.066003 95.7209595,196.589732 C92.8733407,193.882929 96.3758931,184.056386 96.7117884,180.237117 C98.0276909,172.584707 99.0291337,164.884763 99.9144491,157.17421 C97.2709898,156.948167 95.9174187,154.189138 95.2223192,151.943805 C94.3161925,149.471614 93.7696861,146.831726 94.4077625,144.232028 C95.0549959,141.136995 98.5238338,138.179464 101.795172,139.269488 L102.001187,137.196238 C103.296451,124.064406 104.428309,110.910893 106.367428,97.852018 C100.034323,101.384245 94.0541774,93.7028654 95.5838126,87.7404732 C96.0316731,85.2093228 97.573587,82.7567162 99.8486852,81.4418727 C101.861144,80.2857488 106.020711,79.1404374 107.340151,81.6840324 C107.958249,81.7631882 108.537429,82.0645108 108.974884,82.5094563 C110.343023,75.4272539 112.0071,68.2905808 114.654929,61.5780443 C106.285432,56.3229543 107.85107,43.0912826 118.866525,43.0737377 C133.721051,44.3455352 129.76939,66.0060784 115.442223,61.9326135 C110.942182,89.040628 108.348878,116.372645 106.04735,143.73098 C107.779479,146.552845 107.505186,150.739943 105.12832,153.115026 C104.094619,163.011748 102.840527,172.88807 101.193099,182.705024 C112.090137,185.132946 123.121408,187.141015 134.272552,188.0662 C134.808653,184.618637 138.560734,182.778876 141.803144,182.502035 C143.950252,182.271503 146.285911,183.085911 148.336871,183.475774 C150.815088,184.424215 152.842531,186.603245 153.747826,188.97996 C164.157669,189.043407 174.573756,188.385475 184.886411,187.037378 C183.844802,181.852263 191.395373,177.899572 195.992395,178.706431 C197.832119,178.932066 199.626891,179.628148 201.005644,180.87016 C202.352139,181.155977 203.617886,182.31863 203.952117,183.717729 C207.603262,182.849667 211.343064,182.188675 214.87059,180.899129 C218.331936,179.764426 219.463033,176.916244 218.566272,173.549878 C208.776815,177.468907 200.470584,161.920907 209.811764,156.29656 C211.007585,155.411973 213.499537,154.839725 214.200048,156.512606 C214.319505,156.533007 214.43813,156.558304 214.55613,156.586866 C213.778826,153.387379 212.996943,150.189116 212.21506,146.990854 C207.726673,146.562229 206.228255,139.980871 209.95557,137.668623 C208.687326,132.362938 207.457374,127.047053 206.302552,121.715868 C200.151864,122.983228 195.053468,115.337214 196.355142,109.813372 L196.396551,109.646644 C197.1314,106.644027 199.366957,103.691392 202.669512,103.192588 C201.889294,98.6809101 201.192114,94.1537272 200.605025,89.6120596 C199.754257,88.7068679 199.373409,87.3573426 199.704517,86.1630689 C199.944472,77.4324668 198.172593,68.4431802 198.886839,59.5879281 C192.359771,67.5151394 178.759962,62.1192825 181.866474,51.6590848 C181.684791,41.9690243 195.468156,38.5347223 200.116166,47.1013004 C200.613974,45.2739841 201.253715,43.4558482 201.566718,41.5718171 C201.61428,41.3554209 201.948435,41.3991006 201.968324,41.6020656 L201.96921,41.6252677 C202.661812,54.0170308 202.152142,66.4897858 203.483028,78.8680842 C208.456736,79.112284 210.488549,90.9656651 205.085295,91.8165902 C207.128555,105.597456 210.197815,119.19859 213.53346,132.735665 C219.329632,131.248433 221.570808,143.696502 216.798971,145.790052 C218.187505,151.293014 219.569379,156.795772 220.918164,162.308118 L220.944178,162.296286 C221.644897,161.093035 223.512508,161.22707 224.713324,161.456581 C228.679762,162.916884 227.00299,170.089258 222.684632,169.650025 C225.04027,176.733452 223.546847,183.305629 215.687644,185.739263 L215.691806,185.964694 C215.935091,185.774761 216.231029,185.620529 216.588984,185.520156 C221.500258,184.142682 226.08625,182.00221 230.318032,179.227472 C229.073096,158.775075 223.147061,138.948581 218.352123,119.109642 C212.841482,118.231991 211.084171,109.412441 215.382758,106.164604 C212.406733,92.9927071 211.549721,79.5233639 210.093758,66.1466412 C206.124615,65.2822514 205.121923,58.9187758 208.705224,56.9696655 C206.434496,40.3575504 197.88498,26.3547214 181.932654,19.2333491 C181.415492,21.5978234 180.557023,23.8935464 179.408444,26.0423823 C179.516039,26.0482986 179.620095,26.0613552 179.721863,26.078288 C179.748502,26.1260264 179.780759,26.1731526 179.824671,26.2182388 C180.688759,27.1011935 181.242341,28.0949255 181.593429,29.158633 C181.627351,29.387124 181.66502,29.6154111 181.703729,29.8434941 C181.66502,29.9369306 181.62194,30.0293471 181.572409,30.1199274 C183.281647,36.6111133 175.270729,39.9293337 169.861856,38.4771915 C169.023366,38.3125555 168.475403,37.8431288 168.183003,37.2496641 C158.606862,42.3933648 146.109015,41.3094604 137.482289,34.5081796 C131.212241,37.8535333 123.139097,30.0411796 127.6202,23.9137434 Z M82.683931,169.450198 C91.8465497,168.10414 94.843594,182.813456 87.458682,186.897529 C85.0776539,188.309889 81.8034022,188.432091 79.4590022,186.871824 C73.2166339,183.096213 74.9529259,170.225843 82.683931,169.450198 Z M117.561049,160.648677 C129.222488,160.598903 130.219976,178.468943 120.048423,181.686587 C112.484325,183.867044 105.074647,175.496111 108.953885,168.516322 C109.312257,164.174176 113.074535,160.712333 117.561049,160.648677 Z M153.897126,162.270295 C154.503777,157.654164 159.349911,153.244082 164.22747,154.51486 C168.696919,155.639566 169.862355,160.842634 170.654852,164.695972 C172.456908,172.67439 163.38024,180.763585 155.73248,176.36962 C150.847221,173.458808 150.132975,166.334783 153.897126,162.270295 Z M179.941673,135.33016 C181.576197,132.740255 185.237956,131.599432 188.227301,132.501971 C196.426353,135.107381 195.452381,148.186453 188.854763,152.084878 C177.521103,157.987699 168.482312,141.017343 179.941673,135.33016 Z M126.541901,142.971329 C126.350228,135.198961 134.409429,128.123899 141.979978,132.541937 C154.233292,140.713144 141.684665,159.459202 129.928118,148.952694 C127.83283,147.607249 126.594762,145.423528 126.541901,142.971329 Z M111.298015,123.140224 C105.626918,114.351275 115.366636,101.322185 124.661615,109.743304 C127.8495,112.999302 127.70715,118.970058 125.861598,122.840533 C122.859559,128.011571 114.522319,128.132753 111.298015,123.140224 Z M152.477396,106.658287 C156.90314,102.430387 164.636435,102.386117 167.999135,107.964767 C171.985135,114.846427 167.228074,126.620244 158.242976,126.060645 C148.907207,125.401694 146.349698,112.342818 152.477396,106.658287 Z M129.289396,92.9167542 C122.187727,85.6778722 129.898545,74.0662429 139.529835,76.8624021 C155.27051,82.6256807 141.609723,104.312133 129.289396,92.9167542 Z M168.055221,91.2835533 C161.729816,79.8020822 177.095885,69.4785711 184.915963,80.5297854 C190.914006,90.5389173 174.720684,102.09322 168.055221,91.2835533 Z M147.423773,58.6220434 C141.950592,49.0521447 151.515078,38.4183346 161.564261,44.0351342 C175.863957,53.9169639 157.559947,72.9219107 147.423773,58.6220434 Z" id="ðŸ–-Ink" fill="#000000" fill-rule="evenodd"></path>
                </g>
                <g id="Head" stroke-width="1" fill-rule="evenodd" transform="translate(83.267176, 37.082954)">
                    <g id="head/Bun">
                        <path d="M24.7694752,5.46353849 C37.7297806,4.75484678 49.2122897,1.10728257 58.3351325,9.27069358 C68.1740896,1.91079392 73.9143964,-0.367595282 75.5560529,2.43552598 C77.2060875,5.25295287 74.9178041,9.03514037 75.5313722,12.5117713 C79.5321131,19.343401 79.3059189,30.9066955 79.5321131,33.6165231 C80.102239,40.4466838 83.6933494,66.1486043 83.6933494,72.251919 C83.6933494,75.3672813 81.129084,83.5265011 79.5321131,88.0671337 C75.9776148,98.1735617 69.1926555,103.324215 58.0655944,103.324215 C46.9385332,103.324215 28.7769688,94.0085961 22.9522525,85.7377044 C22.4417788,85.0128497 19.1407237,87.1275581 15.6879575,83.4592915 C11.9474217,79.4852946 9.87238152,71.9055433 9.87238152,67.387233 C9.87238152,61.6536657 6.17307524,57.6774947 6.60336277,50.3383499 C7.56431707,33.9479545 10.9013433,6.22187171 24.7694752,5.46353849 Z" id="âœ‹-Skin" fill="#D08B5B"></path>
                        <path d="M75.5690195,2.39581595 C77.2190542,5.21324284 74.9307707,8.99543034 75.5443389,12.4720613 C77.0881962,15.1083384 78.0026067,18.4492233 78.5564657,21.7140521 L75.5313722,23.3223126 L74.4119285,23.4867566 C56.2616821,26.1672043 44.6775229,28.5795097 39.6594509,30.7236729 C34.590174,32.8897154 28.4381127,40.4973137 21.2032671,53.5464679 L20.9836979,53.9435624 L19.550091,63.68235 L12.9777869,65.7014948 L9.88417066,67.1702571 C9.80930142,61.5313837 6.19049024,57.5619114 6.61632939,50.2986398 C7.57728369,33.9082445 10.9143099,6.18216168 24.7824418,5.42382846 C37.7427473,4.71513675 49.2252563,1.06757254 58.3480991,9.23098355 C68.1870562,1.87108389 73.927363,-0.407305312 75.5690195,2.39581595 Z" id="bandana" fill="#9FD8E5"></path>
                        <path d="M23.3215235,-13.5925506 C23.4901745,-13.6028514 23.6608823,-13.5946108 23.8315901,-13.5779234 C24.0187517,-13.5696828 24.2059133,-13.5513473 24.3930748,-13.5140583 C25.3453364,-13.3309098 26.1947619,-12.8261696 26.8529125,-12.1154129 C26.871423,-12.0968715 26.88582,-12.0760638 26.9022738,-12.0577284 C27.2107818,-11.8249298 27.496666,-11.5610228 27.753756,-11.2810465 C27.7990039,-11.3243099 27.842195,-11.3673674 27.8894996,-11.4106308 C28.0252431,-11.5303263 28.1671569,-11.6436354 28.3152407,-11.7505579 C28.9349395,-12.2828147 29.6618989,-12.6697447 30.4439202,-12.8898926 L30.5508959,-12.9188769 C30.5714631,-12.9250574 30.5920303,-12.9291778 30.6125975,-12.9332981 C31.167912,-13.1185068 31.7520206,-13.2132744 32.3402427,-13.2114202 C33.0436411,-13.234082 33.7490962,-13.1185068 34.4072467,-12.8467712 C35.1867438,-12.5231194 35.8654615,-12.0124047 36.4351731,-11.3982698 C36.8094962,-11.0933655 37.1365148,-10.7577648 37.4820438,-10.3887894 C38.1957258,-9.62467457 38.7592672,-8.73056335 39.1150798,-7.74559891 C39.1644411,-7.60756791 39.2076323,-7.46562261 39.24671,-7.32347129 C40.1167027,-7.42421331 40.9908089,-7.49631905 41.8649151,-7.53154786 C42.8459708,-7.5910866 43.8270264,-7.61189426 44.8101388,-7.57872562 C47.5188396,-7.49034458 50.1678956,-7.01218049 52.732626,-6.13661076 C53.2468061,-5.98436463 53.7465892,-5.79070921 54.2278618,-5.55173017 C54.9826782,-5.25094622 55.6963602,-4.8677557 56.3689077,-4.40421878 L56.9418278,-4.06387967 C57.2296041,-3.89255643 57.5173805,-3.7190082 57.7962717,-3.54101003 C58.4605925,-3.11435005 59.0899489,-2.63659799 59.6863978,-2.12155697 C60.3157543,-1.61249043 60.9101465,-1.05830629 61.4757446,-0.477546035 C61.6293817,-0.320355515 61.7776712,-0.161104831 61.923904,-0.000824065632 C63.2276591,0.703958067 64.3857984,1.60630994 65.465988,2.68253965 C66.3226121,2.18892434 67.2096756,1.7414567 68.1251219,1.34363902 C69.0691566,0.933666363 70.2682246,0.511332726 71.2575071,0.233416591 C72.1460104,-0.0158632634 73.02423,-0.186856882 73.91479,-0.312732908 C74.3199639,-0.382778487 74.7271945,-0.438402917 75.1364819,-0.485786691 L75.1200281,-0.479400182 L75.1200281,-0.479400182 C75.407969,-0.51050866 75.6938532,-0.537290793 75.9838507,-0.562012762 L75.9756239,-0.564072926 L75.9756239,-0.564072926 C76.0990271,-0.57416773 76.224487,-0.584674567 76.3478903,-0.592915223 L76.6481714,-0.617431176 L76.6481714,-0.617431176 C76.7386671,-0.625671832 76.8702973,-0.413680948 76.8785241,-0.339515041 L76.8888077,-0.26328897 L76.8888077,-0.26328897 C76.9566795,-0.186856882 77.0183811,-0.102390155 77.0615723,-0.0508860529 C77.115047,-0.0552123974 77.1685217,-0.0591267092 77.2219965,-0.0613928897 C77.3824206,-0.0756080219 77.5675255,0.210548769 77.6621346,0.319737466 L77.7476687,0.420411693 C77.8451219,0.53778572 77.9424815,0.672976369 77.9583024,0.820357338 C78.0631951,1.67553145 78.1619177,2.53235369 78.2524134,3.38938195 C78.2873777,4.03833364 78.2524134,4.68110483 78.1454639,5.31769553 C78.0652518,5.93574476 77.982983,6.55379398 77.9007142,7.16978304 C77.7690841,7.60262352 77.6395107,8.03525798 77.5099373,8.46768642 C77.4585193,8.63270556 77.4009311,8.79525251 77.3453997,8.95800547 C77.0165301,10.044948 76.630895,11.1030483 76.1716293,12.128392 C76.5066691,12.4996335 76.8190849,12.8844722 77.1096995,13.2818778 C77.1792167,13.3533655 77.2491452,13.4244412 77.3145489,13.4986071 C77.3330594,13.4699708 77.3597967,13.4431887 77.3885908,13.4285615 C77.4873134,13.3852981 77.5592986,13.4368022 77.6210002,13.5214749 C78.2688672,14.1413783 78.7398562,14.8647019 79.0319105,15.6906217 L79.213816,16.1213639 C79.2439812,16.1933933 79.2739179,16.2654761 79.3033976,16.3375132 C79.535807,16.9640091 79.7147416,17.6067803 79.8628255,18.2575861 C79.9952783,18.7697429 80.0902988,19.2889043 80.1515891,19.8136281 C80.5958407,21.3078651 80.9471285,22.8365068 81.2784662,24.3445469 C81.3307069,24.5818778 81.3060263,24.7936627 81.2301333,24.9741331 L81.4238763,25.1632562 L81.4238763,25.1632562 L81.7548846,25.4934594 C82.3110084,26.0488406 82.8783205,26.6326682 83.2913785,27.2934658 C83.7191764,27.9795005 84.0338546,28.7129189 84.3834971,29.4403628 L84.4588245,29.5948751 L84.4588245,29.5948751 L84.6127893,29.9047375 C84.7792551,30.2430542 84.8591137,30.4299884 85.0066834,30.8390082 C85.2514331,31.5211285 85.3830632,32.2069572 85.4447648,32.9302808 C85.5352605,33.9828186 85.5229202,35.13033 85.0622148,36.1089079 C85.0601581,36.1171486 85.0560447,36.1235351 85.0519312,36.1295096 C84.8421457,37.0753309 84.3238522,37.9527548 83.5361283,38.5131194 C83.3674772,38.6719581 83.1864858,38.8141094 82.9931541,38.9272124 C82.5291579,39.2001429 82.1030713,39.2245406 81.5966165,39.0982843 L81.5328825,39.0817247 C81.4691242,39.0652434 81.411536,39.0508222 81.3560046,39.0384613 C81.4382734,39.1064467 81.4794078,39.1869991 81.3560046,39.2444777 C81.2367148,39.3021623 81.1297653,39.3351249 81.028986,39.3474859 C81.0721771,39.4031103 81.0762906,39.4628551 80.9857949,39.512299 C80.7883497,39.6173674 80.6279255,39.650536 80.4633879,39.6214877 L80.4979879,39.9078932 C80.7678116,42.075219 81.0091743,42.5038338 81.220261,44.8318487 C81.360118,47.2152525 81.5822438,49.5926819 81.8886952,51.9600164 L81.9943201,52.8202008 C82.332639,55.5465327 82.7130483,58.2928529 83.295492,60.9750884 C83.589603,62.1473218 83.8425796,63.3277958 84.0564785,64.5165105 C84.3588164,65.4209225 84.5706586,66.3459362 84.6878917,67.2894913 C84.8585995,68.2495278 84.9758326,69.2178049 85.0437043,70.1943227 C85.2802272,70.8187584 85.3954035,71.453083 85.3892334,72.0999745 C85.4200842,72.9693637 85.3912901,73.8368988 85.2987377,74.7001076 C85.2473197,75.5981331 85.1239164,76.488124 84.928528,77.3698742 C84.7537068,78.5793965 84.4349151,79.7475096 83.9783232,80.8805998 C83.6122269,82.1453345 83.1638619,83.3857593 82.6537952,84.59899 C81.8619578,86.4778596 80.9055828,88.2228186 79.8175777,89.9430556 C78.7974443,91.5561641 77.703269,93.1095278 76.452783,94.5539088 C74.8362007,96.4202115 72.9933792,98.1301477 70.9736797,99.5722625 C69.8219163,100.425376 68.6063945,101.191552 67.3353412,101.84689 C65.7804606,102.650148 64.2008992,103.373265 62.5164452,103.861524 C61.465461,104.166428 60.3959664,104.376565 59.3141314,104.537464 C57.1895392,104.852463 54.9888483,104.805079 52.8519158,104.43631 C51.4739131,104.250895 50.1185343,103.92951 48.8371974,103.470093 C47.7841566,103.091229 46.780477,102.656328 45.7767974,102.166009 C45.2605606,101.916729 44.7628342,101.628306 44.2856751,101.304861 C43.4835541,100.783639 42.7328511,100.194638 42.0335662,99.5434202 C41.8052702,99.3477046 41.5831444,99.1478687 41.365132,98.937732 C41.2602393,98.8450246 41.3178275,98.7069936 41.439174,98.674237 L41.4761949,98.6699107 L41.4761949,98.6699107 C41.4288904,98.6266472 41.3795291,98.5833838 41.3322245,98.5380602 C41.3219409,98.5298195 41.313714,98.5197247 41.3054871,98.5092179 C41.2828632,98.4886162 41.2581826,98.4682206 41.2376154,98.447619 C41.1574033,98.3773674 41.2376154,98.2207949 41.3075438,98.1837119 C41.3342812,98.1692908 41.3692455,98.1674366 41.4083232,98.171351 C41.4000963,98.1631103 41.3939261,98.1569298 41.3856992,98.1509553 C41.3774723,98.1445688 41.3754156,98.1280875 41.3774723,98.1116062 L41.3466215,98.0870902 L41.3466215,98.0870902 C41.2417288,97.9941768 41.2952035,97.858412 41.4186068,97.8231832 C41.4789372,97.8048707 41.5782692,97.8142304 41.6819347,97.8367933 L41.7209447,97.845845 L41.6510162,97.7799198 C41.5276129,97.6727912 41.5666906,97.5533017 41.7188879,97.5164248 C41.8324189,97.5230173 41.9446336,97.5387075 42.0555319,97.565816 L42.1384589,97.5883245 C42.1795933,97.5986253 42.218671,97.6109863 42.2598054,97.6235533 C42.1898769,97.5594822 42.1199484,97.4978833 42.0520767,97.4338122 C41.9842049,97.3742735 42.0561901,97.2030738 42.1178917,97.1682571 C42.2022172,97.1208733 42.3667549,97.1865925 42.4428535,97.242217 C42.6300151,97.2630246 42.8768216,97.3452252 42.9673173,97.4235114 C43.2161804,97.6624904 43.4732705,97.8911686 43.734474,98.1136664 C43.8928415,98.1631103 44.0429821,98.2290356 44.1581584,98.3279234 C44.4543261,98.6122261 44.7628342,98.8802534 45.0775124,99.1396281 L45.3167014,99.3047464 C45.3567694,99.3319101 45.3969897,99.3586922 45.4374385,99.3847876 C45.889917,99.6505488 46.3423955,99.9142498 46.7928173,100.180011 C48.4443638,100.740376 50.0959104,101.300946 51.7454002,101.859251 L51.9634125,101.92497 L51.9634125,101.92497 L53.5655978,102.122746 L53.5655978,102.122746 C54.6186386,102.233995 55.6737362,102.22802 56.7267771,102.106264 C57.5165578,102.116771 58.3001683,102.038279 59.0714384,101.877586 C60.3815694,101.655088 61.6670196,101.327728 62.9175057,100.870166 C64.35721,100.344824 65.7290425,99.6528149 67.0679676,98.9070356 C67.5492401,98.636948 68.0222859,98.3505852 68.4871047,98.0479471 C68.6372453,97.9408186 68.7873859,97.8314239 68.9375265,97.720175 C69.926809,96.9764558 70.8729004,96.1832926 71.7840276,95.3448058 C72.2118254,94.9513145 72.6231695,94.5415479 73.0201166,94.1171541 C73.0777047,94.0551431 73.1332362,93.9956044 73.1887676,93.9335934 C73.5692609,93.5174403 73.9374139,93.087072 74.2891131,92.6418706 L74.6243585,92.2630064 L74.6243585,92.2630064 C75.9776806,90.575732 77.180862,88.7607274 78.262697,86.8919526 C79.3363051,85.0398651 80.2206949,83.0909499 80.9240933,81.0740492 C81.1503325,80.355052 81.3477777,79.6259599 81.5123153,78.8884211 C81.81671,78.0023446 82.0162118,77.0940182 82.1087643,76.1669444 C82.1396151,75.9854439 82.1642957,75.8041495 82.1889764,75.6228551 L82.2031449,75.3370721 C82.2052016,75.2893603 82.2068013,75.2417247 82.2074868,75.1943409 C82.2486212,74.906124 82.2835855,74.617495 82.3103229,74.329072 C82.3267766,74.0387949 82.3370602,73.7481057 82.3391169,73.4576226 L82.316493,71.6755807 L82.316493,71.6755807 C82.3103229,71.6199562 82.3041527,71.5624777 82.3000393,71.5045871 L82.2547914,71.1113017 C82.1560688,70.2993911 82.0799702,69.4856263 81.9812476,68.6741276 C81.9812476,68.6698013 81.9812476,68.6636208 81.9791909,68.6574403 C81.9421699,68.3545962 81.9030922,68.0496919 81.8578444,67.7447876 C81.8352204,67.5634932 81.8064264,67.3821987 81.779689,67.2009043 L81.728271,66.883845 L81.728271,66.883845 C81.6328906,66.3322361 81.5170394,65.7852014 81.3765838,65.2430169 L81.3148702,65.0109499 L80.9570008,63.2083063 L80.5538836,61.434505 C80.2926801,60.2457903 80.0746677,59.048835 79.9019032,57.8415789 C79.5892817,55.9175916 79.321908,53.9911322 79.0894986,52.0566381 C79.0771583,51.9639307 79.064818,51.8691632 79.0545344,51.7764558 C78.8180115,49.9822589 78.6473037,48.1814695 78.5362408,46.3747056 C78.3861002,44.5949298 78.299718,42.8106217 78.277094,41.0246655 C78.2750373,40.944113 78.3285121,40.8783938 78.3922704,40.8411048 L78.386564,40.4977152 C78.3789714,40.1939243 78.3735209,40.5583577 78.3708997,40.2120244 L78.3669862,39.2594456 C78.367221,39.1800562 78.3679879,39.1247996 78.3696465,39.1208678 C77.2707083,39.1969855 76.5317246,39.1346121 75.4706763,39.078613 L75.2907359,39.0693637 C74.3179072,39.0242461 73.3512486,38.9171176 72.3907601,38.7562188 C72.3866467,38.8058687 72.3537391,38.8406855 72.2982077,38.8509863 C72.1994851,38.8551067 72.1069327,38.8551067 72.0123235,38.8573728 L72.0472878,38.9910775 L72.0472878,38.9910775 C72.0493445,39.0592689 72.0184937,39.1023263 71.9526786,39.1208678 L71.6783121,39.1332123 C71.3120514,39.1486388 70.9444743,39.1558906 70.5808461,39.1064467 C70.2538275,39.0633892 69.9350359,38.9869572 69.6183009,38.8963099 C69.4229125,38.8633473 69.2234106,38.8182297 69.0197953,38.7603391 C68.4973883,38.6099471 67.9790947,38.408051 67.454631,38.2475643 C66.9198837,38.1340492 66.3769095,38.0971723 65.8092546,38.2329371 C65.2086923,38.3750884 64.7006823,38.6326089 64.0713259,38.4760365 C63.9458659,38.44534 63.8245194,38.3979562 63.7031729,38.3483063 L63.5908912,38.3404624 C63.5717713,38.3387838 63.5523467,38.3367007 63.5324651,38.3338851 C62.8763713,38.2393236 62.2922627,37.8231705 61.6670196,37.6004667 C61.4486909,37.5472194 61.2321145,37.5606775 61.020526,37.649105 L60.9677347,37.6727785 L60.7600059,37.8272908 C60.676366,37.9260413 60.5936401,38.025799 60.5118283,38.1258925 L60.3897962,38.2762005 C60.1656137,38.5543227 59.9270341,38.8036026 59.6370366,38.984897 C59.2873941,39.3083428 58.8719365,39.4978778 58.3762669,39.5102388 C58.0944962,39.5184795 57.8147822,39.4587347 57.5432951,39.3724139 C56.5190483,39.6896791 55.4228163,39.7535442 54.4006263,39.4445196 C53.9954523,39.3825087 53.5985053,39.273526 53.218012,39.1023263 C53.0390773,39.0219799 52.8601427,38.9272124 52.6873781,38.822144 C51.9654693,39.1272543 51.2826381,39.5329006 50.5854098,39.8833345 L50.4283695,39.9623174 C49.7159575,40.3177967 48.9276222,40.6644209 48.1214587,40.6126326 C47.1054388,40.5465014 46.1079294,40.4107366 45.1124767,40.2395369 C45.1042498,40.2395369 45.0939662,40.2374768 45.0857393,40.2354166 L44.9487103,40.2125745 L44.9487103,40.2125745 L44.4507459,40.1250528 L44.4507459,40.1250528 L44.0491522,40.0502078 L44.0491522,40.0502078 L43.8439302,40.1289636 C42.1954021,40.7537394 40.3890948,41.2411063 38.7325298,40.8040219 C38.010621,40.7156408 37.3339599,40.4723355 36.723114,40.0582425 C36.7025467,40.0438213 36.6819795,40.0294002 36.6614123,40.0129189 C36.5647465,39.9634749 36.4742508,39.9080565 36.3940387,39.8483118 L36.3768136,39.8348177 L36.3768136,39.8348177 L36.3611312,39.8213236 L36.3529043,39.8172033 C35.450004,39.4012562 34.9317104,38.5151796 35.0222061,37.5223865 C34.9666747,37.2069754 34.9687314,36.8979508 35.030433,36.5685305 C34.736322,36.9164923 34.4360408,37.2607457 34.1316462,37.6025269 C33.0182259,38.9454596 31.9278597,40.3152154 30.9181831,41.7411551 L30.6866394,42.0712288 C30.1313249,42.8559453 29.6150881,43.667856 29.1379289,44.5040766 C28.6545996,45.3302024 28.15893,46.1482935 27.6468066,46.9558778 C26.9809433,47.6929788 26.3371256,48.4477457 25.7167311,49.2210065 L25.4522859,49.5535387 L24.5596692,50.7298924 C23.928256,51.4799982 23.4037923,52.2999435 22.9903915,53.1897284 C22.6510326,53.8224047 22.3384111,54.4672361 22.0566404,55.1285488 C21.9661447,55.3281787 21.8797624,55.5300747 21.7954369,55.7319708 C21.5054393,56.5210137 21.2606896,57.3246837 21.0694146,58.1547238 C20.9157775,58.7554676 20.8054551,59.3645552 20.7399465,59.9821365 L20.7197721,60.1883118 C20.6950914,60.4312051 20.676581,60.6743045 20.6662974,60.9174038 C20.7259422,60.9526326 20.7753035,60.9874494 20.8123245,61.0224722 L20.9624651,61.0762425 L20.9624651,61.0762425 L21.0838633,61.11227 C21.2731106,61.1711274 21.5999066,61.2927089 21.5218931,61.4427457 L21.124946,62.2010921 L21.124946,62.2010921 C21.1660804,62.2443555 21.1845909,62.2894731 21.1578535,62.3391231 C20.8925366,62.8477776 20.6251629,63.3566381 20.3577893,63.8657046 C20.3495624,63.8842461 20.3351654,63.8984613 20.3207683,63.9089681 C20.5490643,64.0138304 20.7711901,64.1291996 20.9830323,64.2548696 C21.3964331,64.5022954 21.7008277,64.7884521 21.9825984,65.1221987 C22.2787662,65.2995789 22.5584802,65.4932343 22.8217404,65.715526 C23.1467022,66.0575132 23.4305296,66.4326691 23.6711659,66.8383154 C23.8932917,67.2215059 24.0742831,67.6211778 24.2141401,68.0393911 C24.2758418,68.2598286 24.3046358,68.4885068 24.3025791,68.7213054 C24.0537159,70.4808915 22.0443001,69.2754895 22.0052224,69.1209772 C21.7296218,68.0579325 21.4128869,67.3865251 20.7012616,66.5954221 L20.6827511,66.5828551 L20.6827511,66.5828551 C20.271407,66.4015606 19.8641764,66.2223263 19.4384352,66.0822352 C19.3746769,66.0945962 19.3088619,66.1030428 19.2430468,66.1131376 C19.3170887,66.218412 19.2800678,66.3214202 19.1299272,66.3397557 C18.4820602,66.4676919 17.8280231,66.5025087 17.1698726,66.4468842 L16.1703064,66.3049389 L16.1703064,66.3049389 C15.7556716,66.4642102 15.3593621,66.6687042 14.9858761,66.9122631 L14.8622322,66.9948879 L14.8396083,67.0113692 C13.8750064,67.788051 13.1304736,68.8201933 12.6204069,69.9450428 C12.5751591,70.0453042 12.5317394,70.1464811 12.490148,70.2485737 L12.4291319,70.4023993 L12.4250185,70.4106399 C11.7586411,73.0334348 12.3530333,75.9133382 13.5706118,78.2928277 C14.2349325,79.3579325 14.9280473,80.4024357 15.6520129,81.4263373 L16.3554113,82.3474366 L16.3554113,82.3474366 C16.7708688,82.7388678 17.1780995,83.1403938 17.5750465,83.5524266 C17.6367481,83.6144376 17.7025632,83.6760365 17.7683782,83.7357812 C17.9781637,83.8738122 18.1920626,83.9955679 18.410075,84.0985761 C18.4944006,84.1272124 18.5807828,84.1539945 18.6671651,84.1768624 C19.086736,84.3785524 19.5268742,84.485887 19.9896363,84.4982479 C20.6008679,84.5388074 21.1940229,84.466923 21.7674065,84.2846317 L21.8818191,84.2467019 L21.9661447,84.2157995 C22.2787662,84.0159635 22.5687638,83.7666837 22.8443643,83.4741404 C22.9060659,83.4102753 23.0212423,83.4102753 23.1528724,83.4452981 C23.2248576,83.3711322 23.2968428,83.2928459 23.3647146,83.2083792 C23.4120192,83.1568751 23.4860611,83.155021 23.5436493,83.1939581 C23.7390377,83.1715023 24.2676149,83.4722862 24.1298146,83.6307129 C24.1071907,83.6677958 24.0783966,83.7007584 24.0537159,83.7357812 C24.1462684,83.783165 24.2388208,83.8367293 24.3210896,83.8925597 C24.7530009,84.0125357 25.390981,84.4442744 25.339149,84.5741869 L25.3329961,84.5845688 C25.2330395,84.7738773 25.1030959,84.9328148 24.9431653,85.0588283 L24.8887444,85.0996098 L24.7673979,85.1840766 C24.9381057,85.2914111 25.0820762,85.4148149 25.010091,85.5013418 C24.9771834,85.5652069 24.9422192,85.6272179 24.9010848,85.6828423 C25.2507272,86.1154768 25.598313,86.5520255 25.943842,86.9887803 C26.2893711,87.7388861 26.7171689,88.4391358 27.2272356,89.0880875 C27.6529767,89.7926636 28.1651001,90.42534 28.7636058,90.989619 C28.8129671,91.0392689 28.8643851,91.0866527 28.9137464,91.1340365 C29.3546558,91.4603149 29.8160361,91.7659306 30.2965093,92.0595785 L30.5035913,92.1847201 C30.6125975,92.2504394 30.7956456,92.3328459 30.7092633,92.4914786 C30.6989797,92.5120802 30.6866394,92.5287675 30.6722424,92.5409225 C30.9745803,92.7389043 31.2872018,92.9261732 31.6101069,93.099433 L31.6407159,93.1182973 C31.7627814,93.1963609 31.9281582,93.3379588 31.7540773,93.4535752 C31.6059935,93.5524631 31.2131599,93.2846418 31.028055,93.1610319 C30.9930908,93.1610319 30.9519564,93.1509371 30.9108219,93.1385761 C30.9725236,93.1714014 31.0333111,93.2070651 31.0950127,93.2419048 L31.1884792,93.2930884 C31.2604644,93.3361459 31.6142203,93.5710046 31.3674139,93.6700985 C31.2460674,93.6801933 31.1350045,93.6492908 31.0321685,93.5792452 C30.9108219,93.5195005 30.7915322,93.4558414 30.6742991,93.3897101 C30.7154335,93.4535752 30.7154335,93.5174403 30.6125975,93.5588496 C30.5776332,93.5607037 30.542669,93.5588496 30.5077047,93.5547293 C30.7503977,93.7092416 30.9992609,93.853247 31.256351,93.9892179 L31.2979032,94.0153031 C31.4065558,94.0858202 31.5797703,94.219982 31.4537961,94.3355314 C31.3118824,94.4630556 30.9211055,94.1911139 30.8203262,94.129515 L30.5200451,93.9500747 L30.5200451,93.9500747 C30.4974211,93.9603756 30.4727405,93.9644959 30.4460031,93.9667621 C30.5364988,94.0223865 30.6208244,94.0821313 30.7133768,94.1354895 L30.83929,94.204181 C30.9970377,94.2915279 31.2198632,94.4349763 31.1391179,94.5784248 C31.0583726,94.7203472 30.8185065,94.6035198 30.6636135,94.5115487 L30.4969641,94.4081332 C30.4896513,94.4036313 30.4823385,94.3992592 30.4747972,94.3950702 L30.4683985,94.4198379 C30.4670274,94.4239354 30.4651992,94.4280328 30.4624569,94.4321531 C30.3853299,94.5665789 30.1913554,94.4785068 30.05754,94.4009513 L29.9503335,94.3355314 C29.7679709,94.2255187 29.5874366,94.1165131 29.408121,94.0066835 L29.1399856,93.8410921 L29.1358722,93.8410921 C28.2082913,93.2825816 27.3506388,92.7265433 26.5423477,92.0096062 C26.0590184,91.5808861 25.6085966,91.12765 25.1807988,90.6435114 C24.3210896,89.6731741 23.6814495,88.5629517 23.0644334,87.4298614 C23.0541498,87.4111139 23.0685468,87.3637302 23.0932275,87.3122261 C23.0253557,87.1723409 22.9595407,87.0299836 22.8937256,86.8837119 C22.2602557,87.0610921 21.5527439,87.1125962 20.9007635,87.0693327 C20.551121,87.0464649 20.205592,86.98466 19.8621197,86.8919526 C18.7658877,86.7395005 17.7087333,86.2388806 16.7955495,85.6393728 C16.7379613,85.6022899 16.6865433,85.5610866 16.6330685,85.5242097 C16.2566887,85.3118067 15.8988193,85.0647931 15.5594605,84.7823446 C14.8971965,84.2343409 14.2657833,83.6245324 13.6919583,82.9879417 C13.2765008,82.4937083 12.8836671,81.9805214 12.5155142,81.4489991 C12.1411911,80.9236572 11.7627545,80.3985214 11.3843179,79.8729736 C10.3333338,78.2248423 9.66078619,76.3274312 9.39958269,74.3888168 C9.27206603,73.6741459 9.20625097,72.9508222 9.22064801,72.2297648 C9.23093162,71.7085433 9.28851979,71.1811413 9.38929909,70.6560055 C9.3296542,70.5981149 9.27000931,70.5406363 9.21036441,70.4808915 C9.17745688,70.5383701 9.14454936,70.5797794 9.12398215,70.5589717 L8.65259142,70.0862031 C8.31820945,69.7485284 8.09385902,69.5000474 7.70895848,68.9541039 C7.09605578,68.0826545 6.63946384,67.1246782 6.30010497,66.1154038 C6.05535523,65.3943464 5.89287432,64.5741951 5.82911598,63.7812379 C5.80854878,63.6491814 5.78798157,63.5152707 5.77152781,63.3792999 C5.6398977,62.3059544 5.76124421,61.2779325 5.92372512,60.2190082 C5.93400873,60.1491686 5.96897297,60.1059052 6.01627754,60.0830374 C6.02820652,59.9991887 6.04239789,59.9130738 6.05638359,59.827165 C4.69401196,58.3825779 3.71357332,56.6415333 3.79357975,54.5389298 C3.81867174,53.876381 3.95441529,53.223309 4.21356206,52.6135005 L4.24502989,52.544691 L4.24502989,52.544691 C3.10786915,52.369577 2.20579155,51.5694093 1.52810216,50.5776463 C1.46804593,50.5300565 1.40984074,50.4820547 1.35389794,50.4342589 C0.142078249,49.3975843 -0.698092057,47.9297174 -1.27335677,46.3792379 C-1.68531788,45.4789462 -1.95824468,44.5168496 -2.07403804,43.5189061 C-2.08226492,43.4476244 -2.08720105,43.3769608 -2.09357689,43.3060912 C-2.37493625,41.7282115 -2.44651012,40.1344686 -2.31652538,38.5644175 C-2.5989131,37.5926381 -2.82864878,36.6037593 -2.98598789,35.5918067 C-3.06002983,35.1099344 -3.11144784,34.62765 -3.15052553,34.1455716 L-3.15463897,34.1189954 L-3.16080913,34.0322625 L-3.17817699,33.8160216 C-3.18091929,33.7802358 -3.18343306,33.7445263 -3.18548978,33.7088168 C-3.53307553,29.2959453 -2.54790644,24.9531194 -0.918983834,20.8657539 C-0.777070123,20.4981691 -0.63052879,20.1315114 -0.479359837,19.7677798 L-0.319038477,19.3877922 L-0.319038477,19.3877922 C1.31605429,16.7466618 3.77136717,14.6104777 5.85091722,12.354392 C6.56850699,11.576062 5.40789963,10.4075369 4.68763613,11.1889572 C3.30593133,12.6879325 1.82365289,14.1236609 0.485344893,15.6644576 C0.249027713,15.681763 0.0122991883,15.6881495 -0.22381232,15.6764066 C-0.635156411,15.6555989 -1.03416018,15.5898797 -1.42082363,15.4846053 C-2.38542552,15.342454 -3.26364515,14.953083 -4.06165269,14.3803573 C-5.12909061,13.8820036 -6.04021777,12.9423628 -6.13071347,11.7165652 C-6.14099707,11.5929553 -6.13894035,11.4714057 -6.13071347,11.350062 C-6.22943605,10.7503482 -6.14099707,10.1222042 -5.89007718,9.54309207 C-5.84688605,9.38445943 -5.79135459,9.22788696 -5.7214261,9.07337466 C-5.51781077,8.61395807 -5.18256534,8.17328897 -4.77327797,7.87435916 C-4.76299437,7.86817867 -4.75476748,7.86426436 -4.7465406,7.85787785 C-4.70334947,7.81276026 -4.66221506,7.76723063 -4.61491049,7.72623336 C-4.544982,7.66216226 -4.47094006,7.60262352 -4.39278468,7.54699909 C-4.67044195,7.08943665 -4.92136184,6.61992525 -5.13526077,6.11909936 C-5.36767018,5.57521604 -5.48695997,5.02329809 -5.55277502,4.44006563 C-5.57951239,4.20932726 -5.58979599,3.98064904 -5.59390943,3.75217685 C-5.60624975,3.64690246 -5.61447664,3.53977393 -5.62270352,3.4326454 C-5.67412153,2.61682042 -5.57951239,1.770299 -5.27511776,1.00783227 C-5.25249384,0.950353692 -5.22369975,0.892463081 -5.19696238,0.832718323 C-5.13937421,0.65966454 -5.07561588,0.486816773 -4.9974605,0.317677302 C-4.69306587,-0.331274385 -4.26115458,-0.881338195 -3.72846398,-1.33251413 C-3.44052311,-1.62299727 -3.117618,-1.88051778 -2.7659188,-2.09889517 C-2.55819004,-2.22868551 -2.32166719,-2.34405469 -2.07280401,-2.43882224 C-1.62855239,-2.67368095 -1.05884083,-2.88793801 -0.596078723,-2.90421331 C-0.54054727,-2.90647949 -0.491185979,-2.90009298 -0.437711247,-2.90009298 C-0.394520118,-4.08283318 -0.242322804,-5.37043573 0.224552739,-6.44172106 C0.49603984,-7.2181969 0.90327049,-7.90835187 1.51617319,-8.40505743 C1.87164304,-8.77668814 2.30966736,-9.07848946 2.85623554,-9.27575088 L2.95382078,-9.30946946 L2.99084175,-9.31977028 C3.48239794,-9.55874932 4.01303182,-9.65351686 4.55806274,-9.65125068 C5.19358936,-9.68441933 5.8414563,-9.56472379 6.39471411,-9.27238651 C6.50989045,-9.21058159 6.63329368,-9.13435552 6.75052675,-9.05194895 C6.83896573,-9.22912306 6.93768831,-9.40835734 7.05080793,-9.5873856 C7.44775498,-10.2241823 7.92697085,-10.7783665 8.48228537,-11.2831067 C8.54810043,-11.3428514 8.62008564,-11.3964157 8.69001414,-11.4538943 C8.95944452,-11.6990538 9.24532866,-11.9256718 9.54149641,-12.1316882 C10.1811365,-12.5768897 10.8824781,-12.9083701 11.6187841,-13.1228332 C12.468864,-13.4374764 13.3657939,-13.5835578 14.2630644,-13.5528216 L14.4488314,-13.5449608 L14.4488314,-13.5449608 C14.4899658,-13.5410465 14.5311002,-13.5389863 14.5701779,-13.5369262 C15.4607379,-13.4790356 16.3389575,-13.2606582 17.1780995,-12.9312379 C18.0480922,-12.5869845 18.7843981,-12.065969 19.469286,-11.4685214 C19.6297102,-11.6908131 19.8127584,-11.9011559 20.0369409,-12.0989316 C20.1006992,-12.15435 20.168571,-12.204 20.2323293,-12.2555041 C20.2816906,-12.304948 20.3331086,-12.3523318 20.3865834,-12.3997156 C20.6313331,-12.6160328 20.8904799,-12.8035077 21.1743073,-12.970381 C21.493099,-13.15765 21.8365713,-13.2874403 22.1923839,-13.3677867 C22.5543667,-13.4916026 22.93486,-13.5678286 23.3215235,-13.5925506 Z M19.0949835,71.3377464 C19.1313976,71.3357285 21.0362711,72.0512439 21.9853366,72.5138551 L22.0319803,72.5367705 C23.1261556,73.0806538 23.652676,73.472085 24.6357884,74.1704806 C24.7016035,74.2178644 24.7694752,74.2899701 24.7694752,74.3600157 C24.7694752,75.3772054 24.5227208,76.6209649 23.6691298,76.0699519 C23.5457266,75.9902922 23.4214092,75.9124638 23.2961778,75.8358562 L23.1076451,75.7217841 L23.1014749,75.7238443 C23.1035317,75.7238443 23.1055884,75.7217841 23.1076451,75.719724 C21.2483698,74.5845736 19.2842018,73.6945827 17.2110276,73.057992 C17.0691138,73.0064879 18.1200774,71.416 18.410075,71.5045871 C18.2434807,71.4386618 19.0672767,71.3392968 19.0949835,71.3377464 Z M38.6303108,26.4086253 C37.3940162,26.5410939 36.1577215,26.6715023 34.9214268,26.7990264 C34.1337029,26.8896737 33.3439222,26.9700201 32.5541416,27.0380055 C31.3674139,27.1267985 30.1806862,27.1410137 28.9980719,26.9782607 C28.5785009,26.9207821 28.1671569,26.8381696 27.7599262,26.7372215 C27.4822689,26.9411778 27.1943281,27.132773 26.9002171,27.3163336 L23.634145,29.819227 L23.634145,29.819227 C21.4437377,31.5437903 19.300635,33.3709499 17.3714312,35.3878505 C14.0021117,38.9115552 11.2578296,43.0339435 9.53244684,47.6002972 C9.37593041,47.6927985 9.25499525,47.8541094 9.21468352,48.1015351 C8.90987755,49.9731942 8.01849491,51.6802461 7.69641248,53.5442826 C7.37926619,55.3803008 7.80109956,56.9410811 8.95245167,58.396381 C9.19822976,58.7072598 9.70171493,58.6907785 10.0106343,58.4808478 C10.0824139,58.622175 10.39339,58.6162005 10.5026019,57.9919708 C11.0145196,57.4367566 11.4523954,56.8547603 11.7489745,56.1341149 C11.9673982,55.6034166 11.6002736,55.2354713 11.1547879,55.1631595 C11.3398928,54.4956664 11.5486499,53.8341477 11.7833217,53.1796335 C12.4784932,51.2346326 13.362883,49.3765706 14.4755688,47.6336718 C15.4545677,46.1007037 16.5878207,44.7657174 17.8053992,43.4266108 C17.8197962,43.4080693 17.8444769,43.4020948 17.8712143,43.3979745 L18.1241909,43.1175861 L18.1241909,43.1175861 C18.1591551,43.078443 18.2311403,43.0825634 18.3113524,43.103165 C18.3874511,43.0228186 18.461493,42.940412 18.5396484,42.8600656 C18.6157471,42.7776591 18.7000726,42.802381 18.7473772,42.8683063 C18.8769506,42.839464 19.1134734,42.9795552 19.1854586,43.0250848 C19.3088619,43.1072853 19.3479395,43.1999927 19.2430468,43.3174221 C19.2245363,43.3382297 19.2060258,43.3588314 19.1875153,43.3771668 C19.3294291,43.4371176 19.469286,43.517258 19.5782922,43.5957502 C19.9587855,43.6800109 20.4935328,44.0343592 20.4009804,44.1396335 C20.205592,44.3433838 20.0163737,44.5516664 19.8292121,44.7636572 C19.9937498,44.8792325 20.1006992,44.9923355 20.0575081,45.0419854 C19.2553871,45.8885068 18.5149678,46.7848842 17.83625,47.7344139 C17.3200132,48.4431103 16.8531376,49.180649 16.4356234,49.9490902 C15.8144938,51.0368569 15.2879734,52.155526 14.8210978,53.3050975 C14.7552828,53.4804175 14.6915244,53.6553254 14.6298228,53.8304394 C13.9469916,55.7443318 13.4369249,57.73033 13.2209693,59.7534111 L13.2119441,59.8898782 C13.1717177,60.6186526 13.1559769,62.5699301 13.0811123,63.0352525 C13.5356475,63.2598104 14.0086932,63.4514057 14.5002494,63.6081841 C14.5928018,63.6349663 14.687411,63.6596882 14.7820201,63.68235 C14.8354949,63.6596882 14.8910263,63.6409407 14.9465578,63.6244594 C15.3990363,63.4411048 15.872082,63.3092543 16.3554113,63.2453892 C16.6811444,63.2023061 17.0053028,63.1872991 17.3292644,63.1966418 L17.468097,63.2021258 C17.6120675,63.2062461 17.7539812,63.2165469 17.8979516,63.2311741 C17.8897247,63.1485615 17.8856113,63.0684211 17.8794411,62.9858086 C17.8383067,62.9590264 17.8074559,62.9221495 17.8053992,62.8724995 C17.7087333,61.9454257 17.7066766,61.0183519 17.799229,60.091278 C17.8609307,59.6071395 17.9329159,59.1250611 18.0110712,58.6431887 C18.0912833,58.2474312 18.1838358,57.8582662 18.2846151,57.4686892 C18.5519887,56.3770082 18.9078014,55.3116974 19.3397127,54.2694603 C20.5696315,51.2964376 22.3322409,48.6161641 24.105134,45.9503118 C25.3988111,44.0036627 26.6225598,42.0133382 27.9614848,40.0994458 C29.1009079,38.469856 30.2979192,36.8649881 31.5751427,35.3404667 C32.8503093,33.8182115 34.1974612,32.3532288 35.6515626,30.9978469 C35.8860287,30.7813236 36.1225516,30.5711869 36.3631879,30.3633163 C37.7411906,29.1272179 39.2384831,28.111351 40.7974772,27.1144376 C40.8571221,27.0752944 40.9640715,27.1185579 41.0525105,27.1925178 L41.3040398,27.037624 C41.3461645,27.0119101 41.3884415,26.9865014 41.4309471,26.9617794 C41.4700248,26.9372634 41.5132159,26.9782607 41.5358398,27.0132835 C41.6427893,26.9576591 41.7497387,26.9043008 41.8566882,26.8505305 C41.9346379,26.7874895 42.0150557,26.7277448 42.0936224,26.6655278 C40.9375398,26.6072252 39.7831026,26.5206983 38.6303108,26.4086253 Z M53.129573,12.6745415 C52.1958219,12.4872726 51.2579574,12.4602844 50.3159794,12.6003756 C49.9212948,12.6582662 49.5284612,12.7278997 49.1389183,12.8121604 C50.0235138,13.584722 50.7349334,14.5733947 51.1966671,15.7112233 C51.6956275,16.9411413 49.7053391,17.4712215 49.2133716,16.259021 C48.7388862,15.0896718 47.8407164,14.1926764 46.7557963,13.6549736 C46.5213302,13.786206 46.2940626,13.9283573 46.0770786,14.0857539 C45.7932512,14.3164923 45.5258775,14.5657721 45.2749576,14.8397739 C44.72787,15.4353674 44.2260302,16.2303847 43.8969549,17.0173674 C43.7694382,17.4458815 43.6748291,17.8867566 43.6151842,18.3399927 C43.6028439,18.4430009 43.5905036,18.5480693 43.58022,18.6531376 C43.3774273,20.7852015 43.9860109,22.8595807 45.0330873,24.6951869 L45.0742217,24.6958049 L45.0742217,24.6958049 C46.0087955,24.1881805 46.9871774,23.7604904 47.9939421,23.4121167 C48.8001765,22.8684394 49.6372617,22.3655533 50.4990276,21.9102571 C52.3310323,20.9421326 54.2660253,20.1958038 56.2599295,19.6854359 L56.4902543,19.6275953 C56.9598721,19.507419 57.4337748,19.4015495 57.9095818,19.3089136 L58.1952755,19.2549116 L58.199389,19.2549116 L58.1685381,18.9477411 L58.1685381,18.9477411 C58.008114,17.7425451 57.537125,16.623876 56.9283357,15.5898797 C56.4717438,14.8090775 55.7827424,14.0097338 55.0176424,13.371083 L55.013529,13.3688168 C54.6661717,13.171041 54.3009388,13.0074487 53.9250527,12.8722522 L53.7836101,12.8228733 L53.129573,12.6745415 Z M28.0581507,10.8432616 C26.1166066,10.659701 24.1750625,10.6782425 22.2335183,10.8368751 C20.9645218,10.9627511 19.7037522,11.1376591 18.4491527,11.3601568 C17.5997272,11.5064284 16.7667554,11.7124448 15.9481806,11.9681112 L16.4163892,12.9165392 C17.1988952,14.4960699 18.0004449,16.0652282 18.9448223,17.5571304 C19.4322651,18.3255716 19.9608422,19.0571358 20.536724,19.7594458 C20.9254441,20.2621258 21.353242,20.7279289 21.8221742,21.156237 C21.9455775,21.306835 22.0772076,21.4489863 22.2108944,21.5868113 C22.6386923,21.9535205 23.0993977,22.2749061 23.6032942,22.5406673 C24.0073255,22.8354996 24.4292325,23.0930558 24.8690152,23.3188339 L25.0347716,23.4020219 L26.5773119,23.9951431 C26.6595808,24.0184916 26.7427637,24.0418402 26.8262513,24.0640289 L26.9516351,24.0962972 L27.1861012,24.1455351 L27.3620651,24.0498519 C27.3915447,24.0340573 27.4212529,24.0184916 27.4514181,24.0033838 C27.5007794,23.9768077 27.5357437,24.0283118 27.5460273,24.0651887 C27.5501407,24.0798159 27.5439706,24.1002115 27.533687,24.1208131 L27.7584865,23.9990574 L27.7584865,23.9990574 C28.1449443,24.1562479 28.5550543,24.281918 28.9949868,24.3647366 C29.1940774,24.4020255 29.3935793,24.4306618 29.5932868,24.4551778 L29.6200394,24.4730783 C29.6245033,24.4762143 29.6290052,24.479625 29.6335985,24.483608 L29.8520223,24.483608 L29.8520223,24.483608 C31.3896265,24.6321459 32.9490319,24.4358122 34.4841681,24.1595442 C36.6564762,23.9407548 38.828373,23.6995096 40.9990358,23.4739216 C41.0401702,23.4700073 41.056624,23.4883428 41.056624,23.5173911 L41.1903108,23.5050301 L41.1903108,23.5050301 C41.3836425,23.4842224 41.6098818,23.8076682 41.4638546,23.9253036 C41.5810877,23.9951431 41.6942073,24.0962972 41.7785328,24.1745834 L41.8278941,24.1702571 C41.5296697,23.5851705 41.299317,22.9733017 41.1347793,22.336917 L40.9249938,21.269546 L40.9249938,21.269546 C40.8674057,20.8719344 40.8344981,20.4477466 40.828328,20.0293273 C40.8139309,19.837732 40.8036473,19.6587037 40.8036473,19.5019253 C40.8036473,19.3535934 40.8057041,19.2052616 40.8118742,19.0571358 C40.4025868,18.8879964 39.9871293,18.7398706 39.5634449,18.6139945 C38.3602634,18.4658687 37.1591387,18.3173309 35.9559572,18.1710593 C35.2340483,18.1978414 34.5121395,18.2493455 33.7922873,18.3296919 C32.9757693,18.4017976 32.161308,18.494505 31.3489034,18.6057539 C31.2728047,18.6139945 31.1370612,18.5109863 31.0547924,18.3914968 L30.7072066,18.4390866 L30.7072066,18.4390866 C30.5262152,18.4617484 30.3369969,18.0989535 30.5755765,18.0247876 C30.6619588,17.9904515 30.748341,17.9579467 30.8347233,17.9266628 L30.9642967,17.8805761 L30.8902547,17.8888168 C30.8655741,17.891083 30.8347233,17.8846964 30.799759,17.8725415 C30.608484,17.8970574 30.417209,17.9217794 30.2279908,17.9444412 C29.9880155,17.9744387 30.0425554,17.6575142 30.2108851,17.5829316 L30.2917491,17.55301 C30.1495886,17.4642087 30.0244873,17.2212372 30.2003114,17.1417925 L30.2238773,17.1327366 C30.3061461,17.0999799 30.3863582,17.0729918 30.468627,17.0420893 C30.4624569,17.0155132 30.4624569,16.9905852 30.4706838,16.9681294 L30.1313249,17.0111869 L30.1313249,17.0111869 C30.1003531,17.0152587 30.2479246,16.7983327 30.3185488,16.7554504 L30.3308268,16.749546 L30.4933077,16.7001021 C30.5179883,16.6300565 30.6496184,16.4755442 30.6948663,16.4613291 C31.2913152,16.2736481 31.8466298,16.1049207 32.4266249,15.9749243 C32.455419,15.9399015 32.4883265,15.9131194 32.5253475,15.9048788 C32.8873303,15.8183519 33.2534265,15.7503665 33.6195228,15.6928879 C33.6442034,15.6555989 33.6688841,15.6290228 33.6976782,15.6267566 C34.6046919,15.5113874 35.5137623,15.4846053 36.4269462,15.5466162 C36.6017674,15.5628915 36.7765887,15.581639 36.9514099,15.6040948 C37.2866554,15.6413838 37.6219008,15.6887675 37.9550895,15.7526326 C38.7896773,15.8961083 39.6047577,16.1141914 40.398684,16.4083664 L40.5815215,16.4776044 C40.7810234,16.5519763 40.9784686,16.6300565 41.173857,16.7147293 C41.2725796,16.3624412 41.3959828,16.0161276 41.54201,15.6764066 C41.5646339,15.6102753 41.5893146,15.5466162 41.6160519,15.4827511 L41.41655,15.3630556 L41.41655,15.3630556 C41.3733589,15.4454622 41.2849199,15.5093273 41.2273318,15.4745105 C39.797911,14.5082935 38.2862215,13.7025634 36.6922631,13.0597922 C35.7996465,12.6642407 34.8864626,12.3286399 33.9506548,12.0482516 C33.4837792,11.8980656 33.0127903,11.7620948 32.5397445,11.6323045 C32.3032217,11.5826545 32.0666988,11.5332106 31.8260625,11.4920073 C30.5899736,11.1582607 29.3333174,10.9421495 28.0581507,10.8432616 Z M75.1597229,14.1133601 C74.9861356,14.413732 74.8055556,14.7112197 74.6140749,15.0045871 C73.6842316,16.4300146 72.5694891,17.7676791 71.3054287,18.933938 C71.635121,18.9331139 71.9639906,18.9456809 72.2887468,18.9761714 C72.8487917,19.0291176 73.3973191,19.122237 73.9320664,19.2526454 C73.9754632,19.2178286 74.0240018,19.2003172 74.0628738,19.2279234 L74.2023195,19.3245451 L74.2023195,19.3245451 C75.3493525,19.6345998 76.4262513,20.1220346 77.4017538,20.7751067 L77.3842641,20.6461404 C77.381278,20.624646 77.378033,20.6031516 77.3741938,20.5816572 C77.3906475,20.3282571 77.394761,20.0746509 77.3865341,19.8233108 C77.1849755,18.3379325 76.681079,16.9699836 76.1051972,15.5857593 C76.0942966,15.5589772 76.1021122,15.5241604 76.1187716,15.4887256 C75.828157,15.0132397 75.5099823,14.5534111 75.1597229,14.1133601 Z M75.4244228,2.43552598 C74.9945682,2.51381222 74.5688271,2.61476026 74.1451427,2.74043026 C73.3491918,2.8601258 72.5779217,3.07026253 71.8333889,3.36878031 C70.8070854,3.73342935 69.8116327,4.15782315 68.8202934,4.60714494 C66.895203,5.4804485 65.0894025,6.58490246 63.4460828,7.91576846 C63.3411901,7.99590884 63.2404108,8.07852142 63.1396315,8.16092799 C62.7714785,8.4800474 62.4136092,8.81379398 62.0742503,9.16608204 C61.7184377,9.55339289 61.3605683,9.94090975 61.0047557,10.3300747 C60.5687309,10.7876372 60.0668911,11.2015242 59.6720008,11.6959635 C59.5917887,11.7969116 59.5218602,11.9081604 59.4581019,12.0196153 L59.6905113,12.0997557 L59.6905113,12.0997557 C59.8858997,12.1656809 59.8529922,12.5323902 59.6596605,12.4788259 C59.5938454,12.4602844 59.5321438,12.4376226 59.4704422,12.4131067 C59.4971796,12.4481294 59.51569,12.4831522 59.5198035,12.5138487 C59.5321438,12.6127366 59.4560452,12.7489134 59.3346986,12.7138906 C59.2791672,12.6992634 59.2236357,12.6786618 59.1681043,12.656 C59.1516505,12.7198651 59.1393102,12.7837302 59.1393102,12.8455351 C59.1495938,12.8496554 59.1598774,12.8537758 59.1722177,12.8560419 C59.3079613,12.9034257 59.5629946,13.1154166 59.6000156,13.2598341 C59.6288097,13.371083 59.5342005,13.4903665 59.412854,13.4574038 C59.3223583,13.4326819 59.2339193,13.3955989 59.1475371,13.3543956 C59.2051253,13.4102261 59.2503731,13.4699708 59.2544865,13.5214749 C59.2627134,13.6162425 59.1804446,13.7499471 59.067325,13.7192507 C58.8575395,13.6613601 58.6888884,13.572979 58.5490314,13.4617302 C58.5120105,13.5109681 58.4585357,13.5501112 58.4153446,13.5379562 L58.3351325,13.5132343 L58.3351325,13.5132343 C58.3570709,13.5336986 58.377181,13.5552616 58.3966818,13.5764584 L58.4256282,13.6077958 C58.9932831,14.2217247 59.4889527,14.9015789 59.8858997,15.6331431 C59.9044102,15.6123355 59.9270341,15.593794 59.9558282,15.5711322 C60.1409331,15.4145597 60.3322081,15.2621076 60.5234831,15.1139818 L60.5813283,15.0633275 L60.5813283,15.0633275 L60.6407161,15.0128277 L60.2108616,15.154979 L60.2203716,15.1438241 C60.2507457,15.1048795 60.3453309,14.9749805 60.3893997,14.9317025 L60.4000798,14.9221805 C60.9903586,14.3929243 61.6341121,13.9436026 62.3292836,13.5770994 C62.7797054,13.28435 63.2527511,13.0371304 63.7484207,12.8331741 C64.931035,12.2831103 66.1362732,11.865103 67.3744189,11.4777922 C67.5595238,11.4180474 67.7446286,11.3541823 67.9297334,11.2962917 C67.9832082,11.2777502 67.9934918,11.300412 67.9852649,11.337495 L68.0819307,11.3086527 L68.0819307,11.3086527 C68.2546953,11.2530283 68.5488063,11.5579325 68.4315732,11.7000839 C68.5023244,11.7577685 68.5717593,11.8220456 68.6325066,11.8823672 L68.676323,11.9267019 L68.7256842,11.9122808 C68.8726164,11.8668747 69.1205252,12.0963474 69.2780064,12.2588495 L69.3941184,12.3819982 C69.4825574,12.4767657 69.6553219,12.6724813 69.4434797,12.7489134 L69.1781628,12.8393546 L69.1781628,12.8393546 C69.1863896,12.8929189 69.1637657,12.9382425 69.0814969,12.9691449 C68.9889445,13.0000474 68.8984488,13.03301 68.8079531,13.0661787 C68.8627989,13.1141118 68.9167307,13.1639678 68.9697484,13.2144647 L69.0485894,13.2905305 C69.141675,13.3857559 69.3625425,13.5956044 69.1675715,13.6882826 L69.1431985,13.698443 L68.8902219,13.7890902 C68.9231294,13.8632562 68.9149025,13.9335077 68.8038396,13.974505 C67.3271143,14.4771851 65.8853533,15.066598 64.4764998,15.7361513 C63.4214022,16.3210319 62.3066597,16.7579927 61.1322723,17.0441495 C61.0356065,17.075258 60.825821,16.9289863 60.7394387,16.7827147 L60.5640843,16.8344019 C60.5349093,16.8429401 60.5056582,16.8511808 60.4761785,16.8587347 L60.4473844,16.8651212 L60.4473844,16.8651212 C60.6674535,17.452268 60.8299344,18.0886527 60.9204301,18.7046418 C60.9307137,18.7602662 60.9389406,18.8181568 60.9451108,18.8737812 C61.1754635,18.8550337 61.4037594,18.8385524 61.6341121,18.8263974 C63.2280705,18.7417247 64.8405393,18.7932288 66.4386111,18.9827639 C67.0844213,18.5975132 67.7055509,18.1751796 68.2999431,17.7180292 C68.4809345,17.577732 68.6598692,17.4335205 68.8367472,17.2872489 C69.8980149,16.3642954 70.8585034,15.3282388 71.7099856,14.2093637 C72.4977096,13.1731012 73.1825975,12.0606126 73.7584792,10.8947657 C74.2685459,9.80061258 74.6901736,8.66340201 75.0089652,7.48910848 C75.3010195,6.41576299 75.4017989,5.3712598 75.4758408,4.26083136 C75.5005214,4.07953692 75.5169752,3.8984485 75.5313722,3.71694804 L75.5296964,3.63927222 L75.5296964,3.63927222 L75.5272588,3.60157885 C75.5066916,3.21241386 75.4676139,2.82283683 75.4244228,2.43552598 Z M60.354832,16.2324448 C60.3075274,16.2489262 60.2581661,16.2654075 60.2088048,16.2798286 C60.2375989,16.3436937 60.2643363,16.4057046 60.2910737,16.4693637 L60.2941587,16.4681019 L60.2941587,16.4681019 L60.4885188,16.3148514 L60.4885188,16.3148514 C60.4473844,16.2963099 60.4000798,16.2676737 60.354832,16.2324448 Z M75.1364819,-0.485724886 C75.5066916,-0.62375588 75.7864056,-0.650538013 75.9756239,-0.564011121 C75.6959099,-0.54340948 75.4161959,-0.516627347 75.1364819,-0.485724886 Z" id="ðŸ–-Ink" fill="#000000"></path>
                    </g>
                    <g id="facial-hair/*-None" transform="translate(25.351145, 69.633546)"></g>
                    <g id="face/Old" transform="translate(32.770992, 38.319052)" fill="#000000">
                        <path d="M36.2809326,49.3706278 C34.9635339,49.3813956 33.4825558,48.8872459 32.492321,48.5003466 L32.2341076,48.3981243 C31.3769272,48.0549675 30.4965575,47.6610141 29.8400184,46.9999514 C29.6300682,46.7851136 29.4065339,46.5420049 29.2929971,46.2863478 C29.2264911,46.1365927 29.1988452,45.9815508 29.2630997,45.8275179 C29.500544,45.8041901 29.7255259,45.7738278 29.9386276,45.7348966 C30.0400968,45.7163593 30.1372953,45.6971368 30.2118403,45.6966396 C30.486528,45.6948896 30.7582478,45.7298241 31.0297677,45.7641308 C31.0690887,45.7690991 31.1084053,45.7740665 31.1477342,45.778933 C31.3591287,45.8050805 31.5694948,45.8333278 31.7794742,45.8615195 C32.3902635,45.9435236 32.9978385,46.0248445 33.6174851,46.0544634 C34.0648957,46.0759288 34.5339807,46.0507978 35.0072348,46.0250548 C36.2347178,45.9582852 37.503759,45.8671505 38.4495127,46.7265097 C38.6971911,46.9515658 38.8007328,47.2350832 38.8007328,47.5238756 C38.8007328,47.8748082 38.6529471,48.2320393 38.4275454,48.5123272 C37.917005,49.1468349 37.1312979,49.3636774 36.2809326,49.3706278 Z M43.4642781,38.3034356 C42.891199,39.162883 41.9363529,39.7155239 40.6280036,39.6554778 C38.0276449,39.5366289 34.9241684,38.5559749 32.746276,37.1379446 C32.1791058,36.7687704 31.8113407,36.1785258 31.7453879,35.5461781 L31.628052,34.421173 L30.9939743,35.3580243 C30.9279105,35.4556338 30.8612733,35.5529716 30.7946042,35.6503576 C30.6110035,35.91855 30.4275567,36.1866947 30.2544309,36.4615296 C29.5900303,37.5167691 28.9809802,38.5824843 28.4278922,39.7002611 C28.0363378,40.491727 27.750052,41.3769763 27.4629435,42.2701014 C26.9782918,43.7780241 26.5100901,45.2610693 25.4745314,46.3208783 C25.3179571,46.4811779 25.0772641,46.5385388 24.8569742,46.5102025 C24.6627953,46.4852248 24.4725022,46.3900628 24.3792352,46.200485 C23.1419398,43.6854865 24.8061302,40.6547761 26.1561129,38.5478003 L26.298896,38.3277798 C27.5506856,36.4237725 29.5951042,33.9040008 31.9364566,33.5614585 L32.2045192,33.9887691 L32.5942387,33.728963 C33.2316254,33.3040498 34.0729747,33.3238154 34.8095854,33.6562482 L35.5462399,33.9885774 C36.9175025,34.6036773 38.2701152,35.1712111 39.7537659,35.4820736 C39.8618832,35.504727 39.9699118,35.5258566 40.0777748,35.5455016 C40.179581,35.5640435 40.281992,35.5813997 40.3849431,35.5974981 C40.362748,35.4964001 40.3390468,35.3957591 40.3152912,35.2953917 C40.2901614,35.189218 40.26484,35.0827978 40.2376932,34.9767066 C40.2096622,34.86716 40.1797551,34.7582399 40.1498834,34.64974 C40.031029,34.2171726 39.8967442,33.7884751 39.737527,33.3687506 C39.138493,31.7908506 38.1820318,30.3151078 37.2514209,28.9075155 L37.1419011,28.7419316 C37.0084745,28.5402239 36.8623854,28.3297785 36.7112243,28.1120963 C35.9855386,27.0675641 35.1807084,25.933946 35.1236865,24.7960187 C36.0870016,24.8566364 36.893077,25.4548214 37.6026397,25.9756442 C38.576389,26.6899109 39.4788277,27.5067105 40.2974517,28.3941216 C41.8853085,30.1156505 43.3104223,32.316537 43.9354019,34.5916759 C44.2932244,35.8944712 44.1358275,37.2963121 43.4642781,38.3034356 L43.4642781,38.3034356 Z M18.058533,25.3243365 L18.0582672,25.2779238 C18.0611526,23.9642012 18.8266356,20.9646862 20.7187194,20.9646862 C21.9007376,20.9646862 22.6183738,23.0060626 22.742608,25.1104284 L22.746923,25.1962289 C22.8017842,26.5045413 22.4425985,29.3642844 20.7187194,29.3642844 C18.9765969,29.3642844 18.0764452,26.6557515 18.058533,25.3243365 L18.058533,25.3243365 Z M45.9149669,24.9123037 L45.9152327,24.865891 C45.9123472,23.5521684 45.1468642,20.5526534 43.2547805,20.5526534 C42.1023128,20.5526534 41.3912981,22.4932368 41.2413201,24.5407172 L41.2308919,24.6983956 C41.1562616,25.9625366 41.4921625,28.9522516 43.2547805,28.9522516 C44.9969029,28.9522516 45.8970547,26.2437187 45.9149669,24.9123037 L45.9149669,24.9123037 Z M24.4307315,16.4335372 C24.1799958,16.4629123 23.9305042,16.501409 23.6811392,16.5410064 C22.9535724,16.6568603 22.2299451,16.7959264 21.5112669,16.9580037 C20.1462849,17.2660301 18.7922619,17.654938 17.4641184,18.0944221 C16.2213013,18.5058339 14.9978198,18.9707674 13.7746359,19.4356574 C13.7093631,19.4604653 13.6440912,19.4852729 13.5787913,19.5100818 C13.1469146,19.6742278 12.7164784,19.8581278 12.2847172,20.0426571 C11.6276135,20.323495 10.9674964,20.6062152 10.2938744,20.8192537 C12.0686114,18.3664411 14.8033847,16.5489987 17.4347708,15.2484508 C18.9361427,14.5064316 20.5289188,13.9080685 22.1311433,13.4177796 L23.023419,13.1497767 C24.337277,12.7623207 25.7738321,12.4044234 27.0080256,13.1769787 C27.4961666,13.4825433 27.8076544,13.9575216 27.9057577,14.4710107 C28.0019651,14.9745765 27.89221,15.5144958 27.5443443,15.9650951 C27.2412333,16.3576314 26.8635432,16.5811879 26.4615533,16.657806 C26.0178724,16.7423704 25.5476702,16.6494999 25.1196479,16.4209963 C24.7767393,16.3954666 24.6755465,16.4046928 24.5741,16.4159684 L24.4307315,16.4335372 Z M44.1959351,16.68309 C43.3165735,16.4920083 42.4458286,16.4152934 41.5436561,16.4427981 C41.1356764,16.4550521 40.7409803,16.518047 40.3473319,16.5814417 C39.7359611,16.6798994 39.1269431,16.7815894 38.4682792,16.6621322 C38.1246479,16.599751 37.8319694,16.3988488 37.6059038,16.136591 C37.341614,15.8299895 37.1667591,15.4381314 37.110691,15.0655368 C37.052769,14.6806497 37.1103972,14.3440563 37.2528628,14.0468296 C37.4211715,13.6956862 37.7047142,13.3997578 38.047388,13.140529 C39.0843016,12.3558812 40.8634275,12.5445916 42.0871833,12.7032302 C43.2964864,12.8603787 44.4990872,13.2352026 45.5681293,13.8305129 C46.6227814,14.4181399 47.5396204,15.2096857 48.2550826,16.1772273 C48.8580966,16.992746 49.1421601,17.9313466 49.4355031,18.8870433 C48.0556268,17.7299953 45.9439531,17.0623864 44.1959351,16.68309 Z" id="ðŸ–-Ink"></path>
                    </g>
                    <g id="mask/respirator" transform="translate(4.740458, 57.890611)">
                        <path d="M70.96957,5.58617612 C69.1485567,3.69700565 67.3205741,1.780435 64.9905672,0.474909025 C65.0931339,-0.0846315406 64.8668894,-0.727608751 64.2016519,-0.995430082 C57.7522165,-3.40582206 53.6522463,3.53157448 48.9813964,6.63109134 C47.8899007,7.21741404 46.7952758,7.89376591 45.576509,8.12285615 C42.9850583,8.87914239 40.7861194,10.4450731 39.2235941,12.502559 C38.3792415,13.3132335 36.8907552,14.6659373 36.4773192,15.7681251 C36.2242416,16.2180649 13.5417676,5.43145779 8.37956407,4.2312062 C5.9349716,3.41393911 4.61876218,5.72390704 7.71720642,6.90941951 C15.8591954,10.0246698 31.8007976,16.9979244 35.3599284,19.0073211 C34.6760075,21.1167231 34.4717461,23.9125717 35.1377958,25.9986939 C34.5780014,29.2457185 35.6647387,32.2203894 37.8127878,34.5516711 C38.2679115,35.2136018 38.963715,35.6907358 39.4165684,36.2651096 C41.0615328,40.5630239 45.0089241,42.6418303 49.6282147,44.6961251 C56.9784591,47.9649319 63.3858427,48.6198724 67.4138353,47.1880995 C77.8703216,43.1979737 83.9392124,31.4733739 81.9839271,20.7905991 C80.1449121,13.2650257 80.5244871,6.66364193 70.96957,5.58617612 Z" id="ðŸŽ¨-Color" fill="#9DDADB"></path>
                        <path d="M48.2859861,5.53714421 C54.5757416,2.02786071 55.6379354,-5.12461696 64.760005,-1.48863336 C67.6100902,-0.337825706 68.6111709,1.36572397 70.5125558,3.49366746 C71.4972597,4.3881907 72.7368927,4.83298013 73.9601372,5.30929006 C78.6127592,6.85317703 81.3410107,11.2394724 82.381731,15.8470294 C85.1042483,25.411009 82.2537295,36.6149273 75.295799,43.5746627 C75.3937952,43.7509962 75.3747054,44.0050546 75.1622973,44.1222046 C74.7714331,44.3377059 74.3829124,44.5585044 73.9958227,44.7826229 C71.5621313,46.884086 66.6245307,49.6474539 62.9643792,49.6474539 C54.8031943,49.6474539 46.9193504,46.3380335 42.1015166,42.0904295 C35.9351263,37.1192536 32.0461941,26.7469455 34.0469846,19.2819409 C22.5807965,13.8859921 11.9592177,9.78811357 7.51948127,8.01072175 C6.42390463,6.86208959 6.41393213,6.4396391 7.48956376,6.74337028 C17.9137057,9.6868845 38.4398899,19.2603092 38.6868461,19.270404 C38.8332898,19.2763785 39.3715992,18.1006428 39.4775999,17.5954906 C38.9975374,17.5429976 10.6844367,5.33474735 7.15827413,4.20210315 L6.97171642,4.14261914 C5.29467411,3.61315697 5.71366278,3.20112416 7.00245264,3.27611413 C9.61564821,3.42856627 31.770674,13.707961 36.081981,14.738043 C38.0080796,10.4116985 43.4794262,8.16591358 48.2859861,5.53714421 Z M62.0199793,-0.596170283 C58.5184663,-1.62625232 55.944257,0.914342024 54.0712755,3.5771041 C49.6532195,9.05312531 41.5943494,9.22620869 38.2665044,15.7325885 L38.1671174,15.9317021 L39.4844379,16.3272536 L39.5204204,16.2677649 C39.6242107,16.1062882 39.9334662,15.6961692 40.1956222,16.0695271 C41.5578473,17.5329131 39.4251081,22.3913263 38.305179,20.251495 L38.2715564,20.1844988 L36.4423892,19.6812007 C33.1383696,33.0651832 45.7461436,45.1157399 58.4313425,47.1565852 C58.4313425,47.1565852 63.7236511,47.2412479 65.8447654,46.7292598 C67.4087269,46.3518377 68.7598084,45.6217156 70.2035466,44.8971559 C71.6381922,44.1770305 72.8232362,43.0622647 74.2130921,42.3005688 C78.1836743,38.3651191 80.7945892,32.9623899 81.5046778,27.3581962 C82.1998987,20.6381469 81.548927,12.0820795 75.7146566,7.82042407 C73.7937681,6.60286709 71.4258268,6.27571304 69.6700251,4.77014512 C67.5744683,2.45534476 65.1217537,0.101401276 62.0199793,-0.596170283 Z M55.7228334,30.8427577 C55.6640294,30.746342 55.7997259,30.6538407 55.8766582,30.7257404 C57.1045068,31.8746939 58.2911895,33.0704131 59.437717,34.3015672 C59.4982152,34.2824077 59.5669442,34.2640722 59.6555136,34.2424405 C60.0765407,34.1396143 60.4404735,34.5792542 60.2368026,34.9666221 L60.1883362,35.0534156 C59.8819689,35.5746688 59.1776459,36.0335284 58.7583795,35.4051971 C57.6909906,33.9237331 56.6756033,32.4008598 55.7228334,30.8427577 Z M40.5487118,33.5977945 L40.5475706,33.5525314 C40.5241444,33.1048953 40.1602181,31.9758273 40.9000396,32.1488811 C41.7560616,32.6466168 42.0728878,33.9478164 42.1209664,34.872006 C42.1737446,35.8864308 40.4908781,35.8992038 40.5343557,34.872006 C40.5524772,34.4467881 40.5860432,34.0223943 40.5487118,33.5977945 Z M76.0929236,30.4759867 C76.2118043,30.4535309 76.2753128,30.6022747 76.1719693,30.6700541 C74.8152134,31.4319028 74.9288759,32.9677552 74.709967,34.2477351 C73.152046,35.2856458 73.3104927,30.8387816 76.0929236,30.4759867 Z M37.1625573,25.0417477 C50.2276604,26.3586046 64.2820861,30.2570531 77.644249,26.2930913 C78.453944,26.0734778 78.7750904,27.3250275 77.9679228,27.5413448 C64.4989995,30.9535945 50.1971639,28.9152682 37.1625573,25.0417477 Z M72.5962752,19.6473728 C73.0005527,19.5534294 73.3816145,21.5482862 74.005579,21.9195278 C74.3156118,22.5433455 76.7753289,23.0925852 75.7388123,23.8575242 C73.9699065,24.2269116 72.0299179,21.2378195 72.5962752,19.6473728 Z M61.1189716,20.1196448 C61.4224592,20.1136704 61.6303065,20.3462629 61.7296287,20.610788 C62.0006637,21.3876758 60.8404596,21.264066 60.4083338,21.5224106 C58.5802921,22.7807588 56.4691474,23.7955956 54.2228396,23.8426649 C54.0824345,23.8454516 54.0811584,23.6598308 54.1958739,23.6149192 L54.5875828,23.4616121 C55.8232924,22.9756414 57.0140162,22.4776007 58.1506766,21.7582994 C59.0708229,21.176509 59.9561312,20.0936868 61.1189716,20.1196448 Z M54.2164393,6.44491431 C53.9073827,4.2199371 60.9395799,-1.39792434 63.0949068,1.01720602 C63.6520957,1.63896354 62.9211073,2.56212306 62.1859879,2.1696618 C59.1817431,1.38185506 56.3083777,4.65524977 54.2164393,6.44491431 Z" id="ðŸ–-Ink" fill="#000000"></path>
                    </g>
                    <g id="accessories/*-None" transform="translate(9.687023, 49.649954)"></g>
                </g>
            </g>
        </g>
    </g>
</svg>