<?xml version="1.0" encoding="UTF-8"?>
<svg width="269px" height="561px" viewBox="0 0 269 561" version="1.1" xmlns="http://www.w3.org/2000/svg" xmlns:xlink="http://www.w3.org/1999/xlink">
    <!-- Generator: Sketch 62 (91390) - https://sketch.com -->
    <title>pose-mask-3</title>
    <desc>Created with Sketch.</desc>
    <g id="Introduction" stroke="none" stroke-width="1" fill="none" fill-rule="evenodd">
        <g id="poses-covid-10" transform="translate(-1465.000000, -263.000000)">
            <g id="a-person/standing" transform="translate(1437.000000, 240.000000)">
                <g id="pose/standing/pointing_finger-2" transform="translate(-24.938931, 130.614403)">
                    <path d="M88.1438496,139.054184 L86.1149336,138.85215 C85.1165519,122.216658 87.9231092,105.872695 91.2008267,89.796807 L93.2402542,89.9171632 C93.9597733,99.1817117 98.6886893,107.957223 96.5231244,117.491493 C94.4525748,125.021883 90.065384,131.51289 88.1438496,139.054184 Z M319.585789,55.2716482 L318.397995,55.5257335 C320.610758,51.3270502 318.547216,49.9455254 316.04343,46.4743286 L315.77075,47.1049129 L314.807407,44.9961073 C314.61614,44.4605736 314.42075,44.0058945 313.892498,43.8057123 C313.376407,41.1819467 311.840292,38.7791428 309.794476,37.4739465 L309.402666,37.9148412 C308.591842,37.2050481 307.614483,36.9349152 306.683911,36.6061473 C308.681292,33.586132 309.966163,29.6680741 311.313071,26.4299775 C312.409766,23.0291428 314.124369,19.7287078 314.446514,16.2801421 C314.187231,12.9659227 311.059766,15.118756 309.534369,16.7718538 C304.874911,20.864171 300.86201,27.3455077 297.854911,35.2165987 C292.690903,33.8710779 289.728529,35.2908698 288.294025,42.3573229 C286.973498,47.1577873 285.623705,52.081694 285.445422,57.0586808 C284.752079,56.8204373 283.522239,55.9244521 282.85775,56.6270444 C271.380689,69.2035492 257.829163,78.8925335 244.723445,89.4964307 C234.819392,82.1999635 229.665483,67.764418 224.218491,56.927832 C214.71614,38.3277556 205.213582,11.0976238 180.771781,11.1934973 C177.532605,10.8552655 174.369071,10.467451 171.311269,9.52538071 C170.127185,9.20319637 168.663415,8.81517615 168.261506,8.09489046 C167.537247,5.77499862 167.399979,3.26479993 166.126651,1.1372723 C162.632521,-4.5509478 155.062216,-4.99801458 149.130048,-3.7629746 C139.058224,-1.89364706 139.311735,-2.98487679 138.58459,7.62395818 C138.366529,10.1423864 136.417376,10.5030435 134.336521,11.0245872 C131.974124,11.77059 129.567415,12.3801891 127.139269,12.8712836 C127.391338,12.8003043 127.643201,12.7301479 127.895269,12.6587572 C88.4765061,13.284198 62.3038191,59.0767563 57.1115748,91.4735645 C51.0808878,124.617816 58.8810023,161.504425 71.2125824,189.342304 C70.6830939,199.480001 72.6689336,209.663783 73.9261855,219.655819 C74.7153687,222.15573 77.4475214,222.399117 78.2286664,219.503367 C78.2286664,219.503367 79.1915977,215.691881 79.1915977,215.691881 L80.2223382,219.485674 C80.8759031,221.833135 81.9262237,222.112114 82.8712237,222.128162 C84.0435595,222.128162 84.6862008,221.549629 84.7247427,218.497313 L86.6664756,218.029878 C87.4146435,219.457488 88.1576588,220.719891 89.3332924,221.597771 C91.6973382,238.808916 93.1813076,256.704549 98.919529,273.358558 C101.207727,279.539107 104.721644,285.150587 107.302308,291.214277 C95.1345824,318.718245 93.0949489,349.196555 90.173384,378.645356 C90.4083458,378.663666 91.615926,378.769827 91.8737656,378.791841 L91.2074221,380.5655 C90.2974603,380.950846 89.762613,381.763096 89.4870481,382.662167 C88.8732618,382.61135 86.3125901,382.630484 86.455216,383.217863 C86.5192112,383.965445 110.962851,384.386385 111.091603,385.044667 C111.214168,385.671313 111.524752,389.821105 109.236641,390.401094 C102.804174,392.031591 88.49427,389.906037 89.5556817,390.947819 C89.5808267,391.502692 89.6148344,392.068675 89.6577046,392.593921 C86.0162084,405.318969 83.3477427,418.884452 81.7263,432.872519 C79.6650252,434.858705 79.1491397,441.392093 82.2234298,443.134893 C90.7104985,448.987291 102.111094,451.766182 112.84514,450.710957 C124.461941,449.610263 138.316651,444.975006 132.757331,431.706401 C132.685399,431.294721 132.121285,431.27497 131.676506,431.364877 C130.691727,430.407994 129.624094,429.684416 128.469277,429.27788 C126.174689,423.538843 124.110941,417.521238 122.310804,411.513302 C121.433819,408.753956 120.526949,405.900587 120.60156,402.874811 C121.035621,395.444204 121.799453,392.373166 126.955628,386.52015 C130.147605,388.057006 136.230644,376.927656 137.62475,374.591306 C139.579743,369.983617 140.519453,371.3242 140.44388,378.613055 C141.664445,382.882923 142.146323,390.014184 145.198766,393.191588 C146.859163,404.254073 135.497521,409.322407 142.818644,421.590718 C140.340827,421.761068 140.109781,422.753133 140.153063,425.766359 C140.144819,427.930096 140.088552,430.200611 140.496025,432.223007 C140.990063,434.707694 143.280117,435.374077 146.717567,436.106707 C149.503308,436.723712 152.185582,437.428568 154.950094,438.094745 C157.745934,439.025294 160.691613,438.948965 161.841071,436.117405 C175.686094,440.816235 215.598071,440.278644 228.798804,434.05201 C232.444216,432.590865 235.015399,431.765036 231.667605,427.650911 C229.824598,415.909699 196.548644,429.142935 192.298514,416.264614 C191.692147,414.592588 183.688053,404.121167 181.517541,402.874811 C182.404007,401.597801 181.482213,391.321392 181.517541,390.947819 C181.61501,389.917148 173.589348,392.445403 169.007634,391.431176 C166.790541,390.940391 165.766803,387.688117 166.122137,386.486782 C166.263411,386.009158 183.812869,381.856392 183.964101,381.354064 C187.206892,370.582898 192.582792,354.436294 193.386552,345.940148 C194.548789,325.634922 193.458689,308.516564 199.637361,287.880925 C208.274269,255.206783 225.052811,224.544544 225.279323,189.96898 C224.990979,184.237143 226.577796,178.134363 225.13917,172.509716 L226.925911,171.579167 C227.183132,171.87584 227.647903,171.86761 227.740651,171.46416 C228.912781,169.559445 227.59885,167.275352 227.329262,165.189794 C227.942636,164.532464 227.636361,163.932946 226.896231,163.574347 C218.959468,135.521678 205.684331,131.4236 209.338605,96.3579697 C215.301277,109.007511 228.50943,121.812796 243.068819,119.930095 C257.735384,122.125105 291.948712,86.3517388 298.556498,74.7874606 C299.767582,74.8814824 299.782422,74.0122431 299.966682,73.1932036 C306.001903,73.9038196 311.65088,69.1609616 311.763415,63.3583517 C317.059331,66.6456195 322.719025,61.950904 319.91288,56.217216 C319.802613,55.9073759 319.690697,55.5915694 319.585789,55.2716482 Z" id="âœ‹-Skin" fill="#EDB98A"></path>
                    <path d="M130.663041,430.849667 L132.090709,435.49527 C133.371713,439.663632 131.840555,443.172407 127.92292,445.373834 C115.749709,451.836774 99.6879935,451.377314 86.5771357,444.728521 C85.4668101,444.154944 84.3930369,443.544401 83.358745,442.897174 L83.0496449,442.701906 L82.790995,442.537119 L82.6608462,442.452438 C82.1257638,442.098527 81.782133,441.778221 81.5472319,441.326416 L81.5144053,441.26096 L81.4979998,441.227037 L81.4858384,441.191373 C81.4281367,441.022158 81.3755485,440.851203 81.3277481,440.677958 L81.2910075,440.541778 L81.2557002,440.4043 C81.0163683,439.446953 80.9390373,438.579935 80.8843696,436.886789 L80.8595269,436.082468 L80.7938931,434.10212 L81.9742613,435.693985 C82.4567791,436.344717 83.1137119,436.900619 84.1913366,437.627606 L84.6649505,437.940621 L85.5875409,438.546843 L85.6139443,438.564562 C87.941788,440.122893 90.5418536,441.430489 93.4101333,442.518354 C103.793168,446.376446 115.618464,445.895642 124.819462,440.97166 L125.091009,440.824415 L125.815888,440.389516 L126.041291,440.252228 C127.438731,439.394541 128.270717,438.754498 128.916744,437.957468 L128.966141,437.895762 L129.014841,437.833398 L129.209444,437.581087 L129.527942,437.593149 C130.384924,437.625605 130.913065,436.85472 130.884134,435.765422 L130.881952,435.704581 L130.663041,430.849667 Z M142.504011,421.249494 L143.39659,421.818035 C153.326239,428.14286 162.384707,432.128343 171.620736,433.752673 C176.894373,434.628277 182.468001,434.869515 188.847197,434.599932 L189.59,434.566561 L190.203688,434.536409 C194.030598,434.341024 197.560622,434.020398 204.055678,433.331484 L206.490396,433.071869 L209.529014,432.676184 L210.823045,432.504064 C216.561385,431.733761 220.212728,431.14201 224.010102,430.317629 L224.419269,430.227961 L224.430594,430.219739 C224.534087,430.144986 224.646909,430.075842 224.809932,429.983388 L224.951706,429.903957 C225.335542,429.690356 225.479255,429.582648 225.552444,429.44854 L225.562004,429.430076 L225.745234,429.056726 L226.309681,429.096107 L226.318807,429.09111 C226.435421,429.027117 226.553815,428.964208 226.674084,428.902295 L226.855905,428.81016 L227.040613,428.719451 L227.11719,428.682424 L227.336098,428.642812 L227.572069,428.597397 C228.01243,428.509498 228.435337,428.406683 229.060578,428.239148 L229.560015,428.103564 L229.742917,428.053414 L229.922495,428.1144 C231.380181,428.609437 231.766044,429.990412 230.919129,431.052249 L230.88261,431.096922 L230.855574,431.128047 L230.852241,431.157734 C230.801185,431.505084 230.560828,431.762648 230.197302,431.994251 L230.144538,432.027168 L230.066062,432.073837 L230.001879,432.110333 L229.978493,432.141915 C229.924762,432.210519 229.863552,432.274367 229.795121,432.332847 L229.742447,432.375691 L229.687089,432.416465 L229.662474,432.432847 L229.165575,432.754154 L229.001544,432.857568 C228.63269,433.086404 228.355666,433.230135 228.058039,433.33365 L227.990483,433.356114 L227.986803,433.359829 C226.76847,434.543545 224.891482,435.187034 222.074977,435.723686 L221.780251,435.778838 L221.632824,435.805715 L221.186795,435.885455 C206.627697,438.491218 191.685196,439.206679 176.843087,438.0215 C174.535695,437.836132 172.240987,437.606299 169.963131,437.331965 L169.204475,437.238872 L168.303139,437.124436 L167.319186,437.005912 L167.061596,436.973443 L166.807243,436.939465 C164.552912,436.62902 163.229859,436.187143 162.045204,435.13576 L161.980677,435.077766 L161.892623,434.995776 C161.409183,434.536062 160.482782,434.853703 160.4703,435.450958 L160.470578,435.48506 L160.472609,435.523961 C160.53588,436.418154 159.986529,436.982595 159.102267,437.143652 C158.504928,437.252449 157.742423,437.19389 156.819834,437.009539 C156.462151,436.938067 156.08877,436.849102 155.6947,436.743778 L155.414955,436.667041 L155.031357,436.555994 C154.975974,436.539708 154.919704,436.523083 154.863518,436.506422 L154.022796,436.253526 L152.987516,435.969285 C152.592686,435.859613 152.158242,435.737561 151.606994,435.581734 L148.658061,434.74913 L147.945253,434.551394 C147.319973,434.379248 146.791849,434.237825 146.236,434.09334 L145.969017,434.024225 L145.322668,433.898642 L145.091873,433.851596 L144.883594,433.806617 C142.695473,433.319014 142.323981,432.718936 142.278412,429.971616 L142.27517,429.727135 L142.158576,428.676166 L142.087878,428.069033 C142.007133,427.393017 141.931308,426.822407 141.848241,426.276753 L141.799286,425.96326 L141.782518,425.859402 L141.717242,425.471409 C141.712299,425.442964 141.614646,424.996459 141.577053,424.805264 C141.524605,424.538516 141.483888,424.291207 141.456064,424.054055 C141.391803,423.506348 141.399454,423.060589 141.518082,422.702066 C141.66383,422.261581 141.984763,421.979812 142.401198,421.929605 L142.449667,421.924843 L142.467467,421.923645 L142.504011,421.249494 Z" id="ðŸ‘Ÿ-Shoes" fill="#FFFFFF"></path>
                    <path d="M88.7549411,166.320223 L90.2696779,167.137568 C96.0904364,170.278423 102.493452,172.889618 109.82038,175.213922 L110.41871,175.402552 C115.875661,177.112172 121.506681,178.582852 129.267427,180.39931 L129.552311,180.465921 L131.242871,180.858668 L133.008374,181.265428 C156.735561,187.016044 181.412781,186.940854 204.767573,180.960803 L205.273531,180.848006 C210.625671,179.645019 214.557843,178.442599 218.203006,176.753992 C220.878712,175.514627 223.049599,174.070126 224.617717,172.352983 L224.71913,172.240608 L225.500267,171.36465 L225.781073,172.504018 C226.176475,174.108357 226.357645,175.812881 226.37538,177.755187 L226.37538,177.995961 L226.356052,178.244433 L226.333232,178.515883 C226.254449,179.415623 226.146605,180.281323 225.952917,181.620062 L225.913019,181.894268 L225.58757,184.091426 C225.408674,185.322726 225.307658,186.113244 225.230857,186.921642 L225.203901,187.21721 L225.18742,187.40983 L225.172582,187.75358 C224.810257,195.812953 223.445734,204.067724 221.112983,213.171253 L221.006282,213.585636 L220.84435,214.207202 L220.631738,215.012657 C218.998199,221.156959 217.263297,226.66065 214.010081,236.280152 L213.577021,237.558602 L211.359676,244.077675 C211.019627,245.079848 210.73867,245.911037 210.48392,246.669083 L210.376251,246.989767 L209.39803,249.932222 L208.816615,251.515253 L208.288594,252.959632 C202.718523,268.23481 199.125539,279.345422 196.362508,290.548225 L196.170575,291.332223 C192.695493,305.638767 191.020582,318.824086 191.298825,331.691022 C191.559666,346.921718 188.643576,362.613431 182.891372,379.204328 L182.565238,380.138939 L181.706589,380.105751 C169.259116,379.653302 157.025595,380.948354 145.465639,384.01589 L145.092971,384.115457 L144.482957,384.279548 L144.329983,383.657124 C144.283489,383.420868 143.489545,379.032194 143.01934,376.991025 L142.990384,376.866567 L142.929381,376.61262 L142.832336,376.222816 C141.77954,372.078652 140.506972,369.785787 139.222633,369.997252 C137.268031,370.319074 134.479067,373.27399 131.468568,377.853889 C130.400092,379.479372 129.359255,381.227353 128.460278,382.870475 L128.254686,383.24902 L127.993158,383.739917 C127.440512,384.789182 127.03194,385.642305 126.987704,385.805178 L126.758229,386.879496 L125.959979,386.138934 C125.623173,385.826468 125.084862,385.63075 124.247267,385.488117 L124.046641,385.455427 L123.026815,385.313946 L122.835903,385.284947 L122.684053,385.259556 L122.088012,385.151936 C119.893848,384.76223 117.627639,384.443088 115.258538,384.185083 L114.683175,384.123762 L114.449518,383.990476 C110.785453,381.937848 105.867251,381.46105 101.58116,382.660671 L101.300744,382.741174 L100.854682,382.663817 C98.4174603,382.251703 96.0054783,382.036586 93.6826695,382.039921 L93.3927874,382.041477 L92.6900901,382.048026 L92.8278232,380.885927 C92.9005469,380.264446 92.971919,379.634716 93.0421783,378.995192 L93.1587598,377.916921 C93.4270946,375.399759 93.6464991,373.096957 93.9232346,369.891381 L94.147791,367.245583 L94.8658326,358.562217 C94.9341576,357.751825 94.9954354,357.038547 95.0583326,356.321033 L95.1497238,355.287784 L95.2128863,354.601548 C97.0634247,334.697495 100.55161,314.51422 105.602067,293.980017 L105.819929,293.098482 L106.762068,290.877321 L107.190124,292.733108 C107.422721,293.741502 107.503747,294.731453 107.41878,295.754547 C107.390897,296.095195 107.584796,296.272785 107.940512,296.272059 C108.331999,296.27126 108.628121,296.035154 108.659548,295.653649 C108.829385,293.582876 108.392301,291.7191 107.309764,289.382792 L107.24268,289.239157 L107.123547,288.989068 L107.000795,288.737121 L106.619753,287.969365 L106.087954,286.909546 L104.572752,283.921857 C101.083134,277.02363 99.5160662,273.482871 98.279252,269.154778 L98.2023667,268.883209 L98.1066872,268.538392 L97.2710764,265.5547 L97.0878,264.888598 C96.7085259,263.497437 96.4410375,262.427041 96.2058523,261.333737 L96.1205397,260.932489 C94.2969589,252.310408 92.9748793,243.867324 91.3129145,231.074469 L91.1577113,229.874887 L90.8579409,227.533774 L90.0607988,221.249709 L90.2489236,221.039571 C90.8434346,220.375497 91.1694641,219.376131 91.326458,217.997105 L91.345693,217.819476 C91.3998074,217.322208 91.4850643,216.896277 91.665306,216.196232 L91.740825,215.907544 L91.8867967,215.364878 L92.0176811,214.870504 C92.1309836,214.428871 92.2085929,214.075875 92.2618073,213.742692 L92.2858871,213.584084 L92.3152907,213.513433 C92.7725873,212.414645 93.0307848,211.160349 93.1886951,209.507608 L93.2032084,209.351488 C93.2270681,209.087656 93.2455896,208.860382 93.2656972,208.576718 L93.2733254,208.46752 L93.3948377,206.565941 L93.5158976,204.895574 L93.5907112,203.804038 C93.611771,203.488516 93.6328739,203.165112 93.6548263,202.821617 L93.7001023,202.10422 L93.9132091,198.591642 L94.1149664,195.342015 L94.1170699,195.285945 L94.1173426,195.262585 L94.1120795,194.866799 L94.1114468,194.69609 L94.1135436,194.548363 C94.1259183,193.994433 94.1870634,193.669843 94.4429084,193.411722 C94.805116,193.047726 95.3241585,193.002048 96.1882469,193.085323 L96.2702718,193.093502 C96.3464888,193.101345 96.4234428,193.110037 96.5065124,193.12012 L96.5918198,193.130687 L97.2152088,193.212327 L97.3347444,193.225573 L97.3974962,193.231127 L97.4817186,193.236478 C99.066958,193.388688 100.995684,193.121202 102.358359,192.485031 C103.903384,191.763729 104.596503,190.689013 104.289691,189.18709 L104.279565,189.140162 L104.268096,189.104647 C104.048112,188.454435 103.609576,187.948053 102.733383,187.241637 L102.566483,187.108776 L102.060969,186.714298 L101.915172,186.599032 L101.160114,185.992216 C100.909617,185.791439 100.656651,185.589238 100.390247,185.376856 L100.187752,185.215523 L94.5747915,180.770603 L93.5061452,179.919552 L92.8989534,179.433292 L91.9520961,178.670437 L91.8611247,178.590938 C91.7123285,178.45936 91.5744584,178.329399 91.399677,178.156252 L91.2311159,177.987549 L90.7477941,177.49616 C90.0946974,176.837615 89.7390822,176.533559 89.2794794,176.270508 L88.8032233,176.004543 L89.0045345,175.303125 L89.0864148,175.010745 C89.9256141,171.967108 90.1153495,169.750056 89.4361493,167.997284 L89.4031488,167.914169 L88.7549411,166.320223 Z" id="ðŸ‘–-Pants" fill="#FFCF77"></path>
                    <path d="M166.693775,-0.306820237 C166.862576,2.04197284 167.425248,4.52014421 168.282859,6.82340766 C168.589752,6.8728516 168.884485,7.04590538 169.099042,7.38191814 C169.387395,7.83279977 170.767694,8.14783202 171.487819,8.36011635 L171.590668,8.39119253 C174.580248,9.31476408 177.700706,9.6878598 180.801584,10.01728 C195.3855,10.8242463 200.69337,15.3978106 208.920538,26.9534769 C218.686706,39.9716538 224.166469,55.4218543 231.528607,69.7902627 C233.340286,73.284301 235.29624,76.6959327 237.445935,79.9942554 L237.753988,80.4640335 C239.647275,83.3369102 241.747883,86.2289513 244.62876,88.1669263 C251.72703,82.2118785 259.317565,76.8949434 266.338925,70.8474502 L266.995477,70.2783156 C272.263775,65.7214387 277.294844,60.892414 282.0825,55.832651 C282.647233,55.2352035 283.706622,55.078631 284.489828,55.4288589 C284.795897,50.8744541 286.081385,46.4074004 287.266294,42.0068899 C288.510767,36.3387604 290.672004,32.5076793 297.192195,33.910445 L297.359148,33.4930107 C299.965528,27.0264837 303.443219,20.7420884 308.652114,16.0155409 L308.993671,15.7077541 C310.12661,14.6783903 311.613357,13.2023849 313.204637,13.3355863 C314.649447,13.4550758 315.391637,14.7634861 315.449141,16.094146 C315.515267,17.6726609 314.827457,19.2799959 314.334814,20.7593932 L314.293088,20.8858817 C313.658073,22.8288224 312.973798,24.7552819 312.250363,26.6669081 C311.553721,28.5066346 310.807615,30.3278197 310.026676,32.1325234 C309.230485,33.6417996 308.644729,36.1418088 307.194561,37.0542554 C306.445981,37.4996629 305.674935,36.9007732 305.595172,36.1354222 C305.482019,35.1321223 306.058912,34.2505781 306.483492,33.3768625 C306.875095,32.5733985 307.25866,31.7658142 307.631508,30.9541096 C309.130935,27.6862773 310.476195,24.3506656 311.632042,20.9478926 L311.66667,20.8370652 C312.060137,19.6210516 313.36626,16.7932104 312.893416,15.7954222 C312.405149,15.7995426 311.399966,16.8316848 311.044637,17.1386492 C305.455225,21.7713402 301.822385,28.172682 297.666447,34.0134532 C300.274317,34.7592326 303.105401,35.1090485 305.271584,36.860394 C309.727202,40.7506018 306.149187,48.4533493 300.176622,47.0192691 C301.843615,50.5635754 303.277294,56.2893894 300.322958,59.4915025 C299.434844,60.3238088 297.709729,60.0580476 297.439523,58.7315079 C297.151179,57.3223557 297.497233,56.1146875 297.814637,54.7492108 C298.389676,51.9686073 298.738408,49.1208425 298.346393,46.289971 L298.223139,46.2165298 C297.210892,45.6017714 296.57427,44.9115707 296.60479,43.640806 C296.473088,42.7217668 297.452095,41.4836082 298.435019,42.2355681 C298.754485,42.4786675 299.144233,42.4972089 299.479981,42.7423685 C300.049828,43.284623 300.757781,43.7110659 301.565615,43.7042243 L301.644103,43.7021989 C302.682882,43.6941643 303.449599,43.0678744 303.767004,42.095683 C304.636775,39.4273584 301.62576,38.5313931 299.667744,38.0186182 L299.161991,37.8624777 C293.817379,36.2278615 291.880297,36.2012074 290.53721,42.4848479 L290.37624,43.0062833 C288.986122,47.5297212 287.709431,52.1579898 285.34105,56.283827 L285.724551,57.1997475 C288.184901,63.0485782 291.293426,69.7096897 297.872553,71.4981387 C298.107721,69.529858 300.235775,69.4587823 301.776011,69.5080202 C303.764118,69.4006857 305.759439,68.3914113 307.163851,66.9410558 C308.390599,65.7051634 309.007477,63.9828662 310.364485,62.8804724 C309.750286,61.4836811 311.137385,59.9426784 312.586317,60.7461424 C313.563263,61.2859054 314.152935,62.0564067 315.331866,62.2129792 C316.376622,62.3532764 317.339141,61.9884213 318.132653,61.318868 C320.204027,59.5677285 319.218836,56.9945836 319.725859,54.701621 C319.058279,55.857167 317.949424,56.7432436 316.762042,57.3551123 C308.83476,61.8913876 308.914523,52.9974532 313.295531,54.4585216 C318.054538,53.3752873 317.974156,51.6546383 316.195248,47.6146565 L316.146508,47.4701256 C315.850093,46.6142675 315.239542,45.1548549 315.828378,44.2588552 C315.861355,44.2133256 315.921126,44.1989045 315.964408,44.2403138 C316.508737,44.7757504 316.723088,45.673982 317.1825,46.3043922 L317.619433,46.8256316 C319.31499,48.8583739 321.158285,51.2871297 320.053569,54.023827 C320.168989,53.999105 320.29492,54.048549 320.333874,54.1886401 C320.845225,56.0489683 321.861126,57.8763338 321.650897,59.8664523 C321.211477,64.2278197 316.485447,66.6223484 312.571889,64.8046656 C311.819393,70.4114022 306.292637,74.4468516 300.753721,74.1969537 C300.578531,74.9651889 300.009676,75.6413347 299.129599,75.7113803 C290.978073,88.7750868 258.935256,122.383368 243.22105,120.97916 C241.718531,121.661074 239.805859,121.318881 238.214714,121.11307 C226.010714,119.520976 215.811515,110.592018 210.122553,100.008749 C208.031187,134.674925 219.848943,134.254239 227.756851,162.973544 C228.548302,163.470044 229.009981,164.553896 228.395989,165.470463 C228.73524,167.208006 229.430027,168.988605 229.1625,170.771265 C229.030592,171.280126 228.764714,171.743663 228.523569,172.20926 C228.027469,173.159408 226.718897,173.045069 226.105935,172.306088 C227.145126,176.066917 226.701996,180.015016 226.435706,183.849187 C226.272882,186.101152 226.285248,188.321803 226.283187,190.575623 C225.972996,224.885801 209.219393,255.821431 200.606599,288.371818 C198.17021,297.496285 196.29876,306.793393 195.562958,316.21885 C194.781813,326.245668 195.326141,336.328317 194.386088,346.342569 C193.283207,358.104949 190.109372,369.529034 186.396267,380.705383 L186.256566,380.535592 L186.299532,382.035845 C186.247176,382.167897 186.178503,382.294424 186.095301,382.410908 L186.06294,382.416878 C183.142691,382.940201 180.331686,383.650045 176.163426,384.859987 L176.163426,384.859987 L175.127726,385.162637 L172.184013,386.033656 L171.340641,386.281882 L171.286936,386.298489 L171.229856,386.318978 C171.042265,386.391342 170.881709,386.504056 170.756521,386.647758 L170.756521,386.647758 L170.725337,386.684951 L169.777238,387.000018 L169.727202,387.017859 L169.677281,387.038407 C169.054723,387.308796 168.804401,387.959673 168.981246,388.559917 C169.171214,389.204702 169.800184,389.596826 170.496094,389.365147 L170.496094,389.365147 L171.761987,388.944424 L172.410733,388.730361 L173.055751,388.519379 C177.862184,386.955647 181.172296,386.075296 184.570137,385.567714 L184.570137,385.567714 L184.945863,385.513089 L185.15496,385.427722 L185.226549,385.400048 C185.439081,386.749261 185.48774,388.107713 185.430744,389.50074 C185.374271,391.88332 184.626721,394.247358 184.938149,396.627054 C185.179912,397.669703 186.024744,398.669089 185.488454,399.785286 L185.732626,399.941045 C187.15375,400.854344 188.511819,401.856029 189.445706,403.266963 C189.649752,403.575987 189.804332,404.212578 190.037233,404.430956 C190.280439,404.657574 190.733874,404.684562 191.032729,404.791484 C192.546378,405.251931 193.498385,406.618644 193.368126,408.205176 C196.912134,409.225163 195.691363,412.825712 199.349141,415.331284 C203.104408,418.05276 208.189271,418.351484 212.624485,419.058121 L220.182424,420.263523 L220.63971,420.318999 C225.616107,420.933639 232.064683,422.132598 232.670851,428.124079 C233.601218,428.76685 233.91924,430.07938 234.187385,431.119557 C234.394111,431.940533 234.373706,432.788908 233.770431,433.438272 C233.059569,434.203623 231.795103,434.517592 230.861027,434.925298 C229.639637,435.407995 228.57695,436.234327 227.253126,436.465683 C225.670844,437.119785 223.924088,437.504624 222.482576,437.772651 C206.599363,440.713535 190.301874,441.42285 174.22492,439.874018 C171.598912,439.620824 168.975172,439.3118 166.363798,438.936644 L166.052703,438.891138 C164.752655,438.696475 163.410134,438.432667 162.223111,437.875659 C160.563126,440.670272 157.366615,440.318808 154.675477,439.525851 C152.562882,439.002775 150.450286,438.487734 148.337691,437.972693 C145.067187,437.091767 140.265309,436.909648 139.458607,432.846799 C139.050515,430.797141 139.077309,428.516334 139.09792,426.433508 L139.093454,425.810174 C139.087818,424.050076 139.205966,421.620507 141.214637,421.246015 C138.455691,416.133718 139.056905,409.847333 141.626851,404.779123 L141.763113,404.530367 C143.65409,401.061743 144.835207,398.16568 144.207309,394.06833 C142.948202,392.881676 142.360592,391.17792 141.89479,389.503007 C140.585393,384.779256 139.491378,379.989375 138.648607,375.160144 C136.704195,378.824558 134.357874,382.26771 131.721355,385.468999 C130.673508,386.963854 129.814248,387.446757 128.116546,388.027929 C127.852729,388.139178 127.58479,388.141238 127.33334,388.069132 C125.761363,390.200372 123.853637,391.888677 123.027767,394.432979 C122.12708,397.247163 121.782882,400.341736 121.605424,403.28365 C121.511027,407.116379 123.107324,410.73547 124.109828,414.375574 C125.680775,419.399078 127.433714,424.367575 129.379775,429.259641 C130.652691,429.559395 132.57979,429.410445 133.043531,430.935791 C133.342179,431.115849 133.58724,431.406126 133.716469,431.827224 L133.825721,432.18572 C134.755875,435.271975 135.54498,438.836656 134.337057,441.928208 C130.998744,449.418965 120.269645,451.286503 112.930592,452.183499 C102.062576,453.215641 90.662187,450.61798 81.6147137,444.422861 C80.3368511,443.526689 79.4650191,442.506908 79.252729,440.918728 L79.2195859,440.620612 C78.9369666,437.985461 78.8935702,434.8862 80.7140267,432.852979 C82.2899198,419.379094 84.8716145,405.910359 88.5893702,392.859014 C88.5605153,392.490244 88.5378435,392.121475 88.5192939,391.750646 C87.4648489,390.652281 86.7364668,389.326389 86.2444724,387.904384 C87.8269839,387.703437 89.2242533,387.651712 90.5122795,387.767532 L90.5122795,387.767532 L90.5617604,387.772048 L90.2908225,388.048051 L91.5414525,388.19664 L91.6980661,388.214468 C92.059115,388.253668 92.4011553,388.277046 92.9693054,388.305003 L92.9693054,388.305003 L93.5886578,388.334226 C94.7182969,388.389245 95.2806807,388.445482 95.9107025,388.588525 L95.9107025,388.588525 L96.0223885,388.613883 L96.186543,388.590666 C96.5078326,388.549532 96.825891,388.557897 97.3814425,388.606883 L97.3814425,388.606883 L97.6889929,388.634017 C98.3002523,388.685796 98.6272449,388.693254 99.0429574,388.648431 L99.0429574,388.648431 L99.259431,388.620282 L99.2813294,388.617019 L99.3376298,388.6063 L99.4005108,388.591145 C99.5246686,388.557768 99.6390608,388.506098 99.7411401,388.438032 L99.7411401,388.438032 L99.7588793,388.425489 L100.300224,388.420614 C100.374356,388.420204 100.449436,388.419897 100.526061,388.419689 L101.009092,388.419629 L101.74713,388.423031 L103.246086,388.435296 L104.476591,388.442921 C105.464376,388.445633 106.294349,388.436999 107.073267,388.412395 L107.073267,388.412395 L107.506727,388.396841 L107.777599,388.385165 C108.469565,388.353444 108.954107,387.813395 109.005394,387.173672 C109.061079,386.47908 108.579482,385.882734 107.816044,385.917761 C107.094158,385.950878 106.344473,385.968261 105.489459,385.973737 L105.489459,385.973737 L105.11635,385.975366 L104.624027,385.975455 L101.94145,385.95664 C99.7663825,385.94227 98.5408776,385.958769 97.216734,386.038024 L97.216734,386.038024 L96.8656579,386.060328 L96.6189069,386.01194 C96.4208752,385.971207 96.2032063,385.922099 95.915594,385.854356 L95.915594,385.854356 L95.3205294,385.713291 C95.2663341,385.700566 95.2151015,385.688612 95.1663145,385.677318 L95.1663145,385.677318 L94.8381812,385.603293 L94.5997875,385.553212 L94.573085,385.531027 L94.5232689,385.494087 C94.4044178,385.410915 94.26746,385.34902 94.116327,385.310992 C93.1729762,385.073015 92.1839785,384.903788 91.1393059,384.795714 C89.5286028,384.619513 87.8328777,384.614846 85.981968,384.758767 L85.981968,384.758767 L85.5241986,384.794035 C85.4710782,384.403229 85.4298276,384.012197 85.3988359,383.623298 C85.4332557,381.91295 87.6134542,382.064166 88.8346374,381.773271 C91.9206756,351.298912 93.6936069,319.872963 106.151737,291.443523 C103.66813,285.702161 100.311083,280.228299 98.0831987,274.342728 L97.9260115,273.921621 C97.0026527,271.504842 96.442042,269.041092 95.7105687,266.575076 C95.2346679,265.393778 94.8416221,264.19744 94.6509733,262.930646 C91.7211641,249.517947 90.0644771,235.874305 88.3358588,222.269187 C87.1719733,221.306884 86.4031947,219.91957 85.728813,218.643298 L85.7229494,218.96753 C85.6725139,221.036591 85.3349324,223.355821 82.7462405,223.295149 C80.6130344,223.243645 79.6793702,221.651138 79.2012023,219.889698 C78.2720725,223.572859 74.1435458,223.774343 72.9334924,220.147218 C72.3934924,218.684708 72.4161641,217.015769 72.2554008,215.480946 C71.3928435,207.057554 69.5927061,198.639929 70.1098282,190.157409 C69.5657061,189.971995 69.0916603,189.555842 68.8608206,188.861566 C58.555271,157.622886 49.3837214,124.191574 56.0737443,91.2279181 C62.763355,58.9317559 80.8795305,22.7777304 115.115324,13.619889 C122.046492,11.8673074 129.087309,11.272538 136.191813,10.820126 C137.216989,8.8353639 137.879828,6.57763008 138.013798,4.33060912 C138.055019,3.68165743 138.024103,3.03909225 138.022042,2.38993455 C138.019981,1.7904268 138.275553,1.07554986 138.156011,0.515391249 C138.127156,0.379214403 138.312653,0.333890793 138.362118,0.459560802 C138.512576,0.853052142 138.819676,1.05082789 139.027844,1.38251431 C139.54579,2.32009499 139.682645,3.43320164 139.819294,4.48100109 C140.338889,8.61822261 139.137492,12.8763758 136.606088,16.1765526 L136.465462,16.3632677 C135.669524,17.4094851 134.292418,19.0090387 132.871431,18.1707914 C131.523492,17.3737139 132.442729,15.729497 133.242424,14.8992509 C134.303874,13.7950029 135.194462,12.6145289 135.917691,11.3269263 C132.703454,12.1841606 129.51395,13.1281278 126.308989,14.021621 L126.079696,14.1471611 C123.57148,15.5031229 119.921104,16.971745 120.247179,20.3279892 C126.921126,40.4819564 156.44676,45.6607969 174.694637,40.8490777 C178.28209,39.8916782 181.907464,38.3364116 184.349076,35.4358657 L184.447408,35.3175371 C188.665592,30.3201971 188.34221,22.0638835 183.060515,17.9606547 C179.923569,15.3895699 175.589141,14.0236811 171.675378,13.1338963 C172.8135,15.0251269 175.331302,16.3607313 175.789065,18.6013657 C175.906546,19.3698069 175.481966,20.1011652 174.634866,20.1176465 C172.483111,20.1588498 170.896088,17.8597067 169.766828,16.3145836 C167.409584,13.0821861 166.072569,9.17446691 165.786698,5.19381787 C165.644485,3.25726363 166.00105,1.51230465 166.485401,-0.335662534 C166.516317,-0.457212215 166.685531,-0.422189426 166.693775,-0.306820237 Z M131.601813,435.685705 C131.65705,436.906146 131.059134,438.274713 129.606698,438.219707 C128.550195,439.58951 126.966263,440.489595 125.496927,441.371964 C115.788057,446.693368 103.577462,446.926578 93.2968511,443.106622 C90.5207977,442.053672 87.8432634,440.741347 85.372042,439.087036 L85.1409976,438.932974 C83.8960829,438.11019 82.4636558,437.262845 81.5796756,436.070956 L81.6098943,437.04779 C81.6551646,438.431883 81.7328774,439.708858 82.1734695,441.000928 C82.4432634,441.559233 82.9791412,441.866197 83.4841031,442.189437 C84.6115076,442.90864 85.7739504,443.574073 86.963187,444.188414 C99.3565992,450.473357 115.285156,451.446784 127.735248,444.836954 C131.308935,442.8285 132.821347,439.653375 131.601813,435.685705 Z M143.166469,422.348203 C143.158225,422.500655 143.005706,422.626325 142.849065,422.581001 C141.60624,422.220472 142.352347,424.935563 142.428607,425.374584 C142.677996,426.808458 142.836905,428.250573 142.995607,429.698868 L142.998715,429.974351 C143.039063,432.853932 143.325246,432.874281 146.206546,433.429825 C148.602882,434.046959 150.979676,434.751993 153.365879,435.413257 L154.319441,435.675181 C155.337446,435.966364 160.00696,437.598033 159.960932,435.638278 L159.957996,435.576516 C159.866626,434.293008 161.530911,433.764635 162.388396,434.526982 L162.420973,434.556941 C164.07341,436.129218 166.43134,436.260631 168.58744,436.533301 L168.695073,436.547059 C171.452576,436.903262 174.222653,437.191685 176.99479,437.414389 C191.579164,438.578971 206.31145,437.905645 220.720236,435.367665 L221.657345,435.200599 C222.914509,434.972666 224.72045,434.608622 226.170653,433.911698 C226.725286,433.864932 229.539469,432.499043 229.435798,431.908806 C229.485263,431.821043 229.528752,431.733074 229.566263,431.643251 C230.116569,431.044979 230.09905,429.785395 229.376851,429.310939 C228.173393,429.625938 226.970966,429.933727 225.763385,430.232244 L225.761943,430.236159 C224.54179,431.176418 222.875004,431.174564 221.402576,431.501718 C219.811431,431.785608 218.218225,432.053636 216.623164,432.307242 C207.484179,433.744618 198.26708,434.761309 189.023187,435.193326 C172.670874,436.618959 156.670385,431.406332 143.166469,422.348203 Z M89.9702863,167.683079 C90.951355,170.095532 90.2485305,173.21462 89.5271565,175.705358 C90.6382786,176.325056 91.4012863,177.38398 92.3508206,178.204543 C95.6448206,180.866481 98.9979733,183.461052 102.297538,186.119488 L102.438807,186.231141 C103.409838,186.993323 104.484668,187.747439 104.871813,188.98085 C105.779302,193.037107 100.429385,194.142591 97.4169275,193.853344 C96.858584,193.830682 95.2589885,193.463973 94.8756298,193.849224 C94.6550954,194.071721 94.7459885,195.068841 94.7272328,195.365504 C94.517645,198.586136 94.3479555,201.810023 94.1207437,205.029787 L94.0326527,206.23699 C93.8492176,208.678285 93.8450954,211.434784 92.8805153,213.752469 C92.6723473,215.149466 92.091126,216.560472 91.9489122,217.942842 C91.8190649,219.176675 91.5284542,220.532469 90.7040267,221.453362 L91.4656823,227.457679 C92.9002213,238.716931 94.4162448,249.973924 96.7779962,261.080618 C97.3076908,263.573211 98.0373092,265.981749 98.7135458,268.435404 C100.661462,275.51351 104.319447,281.920414 107.549141,288.464319 L107.673769,288.720081 C108.761037,290.975597 109.480662,293.138869 109.270134,295.705796 C109.140286,297.282028 106.667004,297.292122 106.796851,295.705796 C106.885477,294.638631 106.77624,293.658199 106.545607,292.720618 C101.414989,313.305572 97.6854847,334.210057 95.7598282,355.345486 C94.9834237,364.051327 94.4143626,372.736979 93.381355,381.425103 C96.0341565,381.400381 98.7030344,381.659962 101.260821,382.109284 C105.655844,380.83672 110.901882,381.245457 114.872118,383.52441 C117.323251,383.782068 119.763611,384.114024 122.190518,384.545067 L122.710363,384.638959 C123.841889,384.849096 125.488683,384.865371 126.374943,385.687583 C126.722027,384.060465 127.90776,382.905331 128.951279,381.686744 C129.903492,380.537172 130.800057,379.348458 131.649218,378.12472 C133.988118,374.787461 135.926141,371.190002 137.566546,367.463577 C137.543874,366.878285 137.789141,366.412688 138.174561,366.085121 C144.827691,350.780987 148.956011,334.531648 152.620179,318.295495 C161.032225,281.823998 168.258744,245.05316 172.596469,207.856279 C172.615019,207.685286 172.864408,207.677045 172.866469,207.856279 C173.749844,235.408296 168.972286,262.697641 163.208302,289.537871 C157.315912,316.059393 152.746729,343.176921 141.942195,368.271162 C142.739004,373.391493 143.686477,378.486485 144.926622,383.52029 C157.02592,380.265643 169.620286,379.012857 182.126851,379.50503 C187.507683,364.121373 190.955027,348.05848 190.674927,331.703249 C190.059698,303.253619 199.104698,276.095918 208.81192,249.720873 C215.513691,229.389732 223.671195,208.989369 224.564462,187.374128 C224.979149,182.367105 226.507637,177.315995 225.487615,172.289606 C223.653263,174.508403 221.027668,176.125838 218.457309,177.316407 C214.143492,179.314766 209.522576,180.542624 204.895477,181.565907 C181.299126,187.608162 156.514156,187.601364 132.857004,181.867721 L131.098338,181.462577 C117.019607,178.207297 102.738953,174.572993 89.9702863,167.683079 Z M88.4059351,178.661694 C85.3394771,184.247623 78.9342939,187.685831 72.8304389,188.933878 C72.6078435,189.66297 71.9112023,190.136808 71.1506679,190.245997 C72.3238282,199.540633 74.2266069,208.737617 75.2398282,218.054091 L75.2980534,218.40141 C75.4002767,218.992239 75.5457252,219.624795 75.9941794,220.027729 C76.6034313,219.784011 76.6135305,218.773501 76.6889656,218.21499 C76.9274313,214.985683 77.2087672,211.758642 77.4863931,208.532013 C77.5976908,207.120801 79.9143321,206.576917 80.1389885,208.173544 L81.1283015,215.233933 L81.1447375,215.307019 C81.3847053,216.455523 81.4631408,220.419829 82.5863781,220.591977 L82.6246374,220.596334 C83.3191814,220.701583 83.0548419,219.301727 83.053171,218.795234 L83.1172328,215.128658 L83.1969275,210.409357 C83.2106679,209.622755 83.2250954,208.836231 83.2408969,208.049935 C83.2779962,206.315276 85.7141794,206.391502 85.8833931,208.049935 L85.9561882,208.751477 C86.29096,211.923868 86.7472012,215.285991 88.311126,218.074693 C88.6037977,217.874857 89.0118893,217.825413 89.393187,217.928421 C89.5250954,215.848686 89.973584,213.864954 90.802958,211.962186 C90.5601783,209.939247 90.7862146,207.77995 90.8874276,205.829382 L90.8977672,205.621207 C91.0179962,203.112786 91.1682824,200.605938 91.31177,198.099353 L91.3967519,196.595422 C91.5181489,194.409794 91.3305916,191.638667 93.8079962,190.717774 C96.226042,189.96087 98.9691183,191.211595 101.281431,189.91637 C98.5764847,187.505154 95.8049656,185.296658 93.0433397,182.957136 C92.0581489,182.135337 91.0276145,181.341967 90.0898282,180.462277 C89.4962405,179.908093 89.0180725,179.201457 88.4059351,178.661694 Z M92.1859351,89.9510284 L91.3608397,94.2062783 C89.9900954,101.298984 88.6707824,108.399798 87.8432634,115.58359 C86.9763779,123.304673 86.7506908,131.068813 87.1177672,138.828421 C89.0071489,131.314797 93.4285534,124.707027 95.4920954,117.258297 C97.6028359,108.005276 92.8561947,99.098157 92.1859351,89.9510284 Z M308.962958,35.7770979 C314.812271,38.2029411 317.200019,46.8908591 312.796752,51.6753841 C311.335248,53.218241 309.144332,54.1102921 307.149218,53.3008536 C304.725232,52.8904478 303.297615,50.4640176 302.961962,48.2033987 L302.950821,48.1255154 C302.929482,48.0190655 303.048725,47.9706481 303.116267,48.0376301 L303.128279,48.0515555 C304.054729,49.1945345 305.515202,49.9594735 306.846447,50.5443541 C307.219294,50.342252 307.627592,50.1817652 308.037538,50.0867916 C308.620821,49.9549411 309.218531,50.4122975 309.162882,51.007891 C311.916276,50.5037111 313.019892,47.2249942 313.103685,44.737512 L313.105912,44.6623796 C313.217004,41.2200514 311.660897,38.0368919 308.859905,36.0241116 C308.745927,35.9460314 308.80879,35.7138509 308.962958,35.7770979 Z" id="ðŸ–-Ink" fill="#000000"></path>
                </g>
                <g id="Head" stroke-width="1" transform="translate(83.267176, 37.082954)">
                    <g id="head/Bun">
                        <path d="M24.7694752,5.46353849 C37.7297806,4.75484678 49.2122897,1.10728257 58.3351325,9.27069358 C68.1740896,1.91079392 73.9143964,-0.367595282 75.5560529,2.43552598 C77.2060875,5.25295287 74.9178041,9.03514037 75.5313722,12.5117713 C79.5321131,19.343401 79.3059189,30.9066955 79.5321131,33.6165231 C80.102239,40.4466838 83.6933494,66.1486043 83.6933494,72.251919 C83.6933494,75.3672813 81.129084,83.5265011 79.5321131,88.0671337 C75.9776148,98.1735617 69.1926555,103.324215 58.0655944,103.324215 C46.9385332,103.324215 28.7769688,94.0085961 22.9522525,85.7377044 C22.4417788,85.0128497 19.1407237,87.1275581 15.6879575,83.4592915 C11.9474217,79.4852946 9.87238152,71.9055433 9.87238152,67.387233 C9.87238152,61.6536657 6.17307524,57.6774947 6.60336277,50.3383499 C7.56431707,33.9479545 10.9013433,6.22187171 24.7694752,5.46353849 Z" id="âœ‹-Skin" fill="#EDB98A"></path>
                        <path d="M75.5690195,2.39581595 C77.2190542,5.21324284 74.9307707,8.99543034 75.5443389,12.4720613 C77.0881962,15.1083384 78.0026067,18.4492233 78.5564657,21.7140521 L75.5313722,23.3223126 L74.4119285,23.4867566 C56.2616821,26.1672043 44.6775229,28.5795097 39.6594509,30.7236729 C34.590174,32.8897154 28.4381127,40.4973137 21.2032671,53.5464679 L20.9836979,53.9435624 L19.550091,63.68235 L12.9777869,65.7014948 L9.88417066,67.1702571 C9.80930142,61.5313837 6.19049024,57.5619114 6.61632939,50.2986398 C7.57728369,33.9082445 10.9143099,6.18216168 24.7824418,5.42382846 C37.7427473,4.71513675 49.2252563,1.06757254 58.3480991,9.23098355 C68.1870562,1.87108389 73.927363,-0.407305312 75.5690195,2.39581595 Z" id="bandana" fill="#9FD8E5"></path>
                        <path d="M23.3215235,-13.5925506 C23.4901745,-13.6028514 23.6608823,-13.5946108 23.8315901,-13.5779234 C24.0187517,-13.5696828 24.2059133,-13.5513473 24.3930748,-13.5140583 C25.3453364,-13.3309098 26.1947619,-12.8261696 26.8529125,-12.1154129 C26.871423,-12.0968715 26.88582,-12.0760638 26.9022738,-12.0577284 C27.2107818,-11.8249298 27.496666,-11.5610228 27.753756,-11.2810465 C27.7990039,-11.3243099 27.842195,-11.3673674 27.8894996,-11.4106308 C28.0252431,-11.5303263 28.1671569,-11.6436354 28.3152407,-11.7505579 C28.9349395,-12.2828147 29.6618989,-12.6697447 30.4439202,-12.8898926 L30.5508959,-12.9188769 C30.5714631,-12.9250574 30.5920303,-12.9291778 30.6125975,-12.9332981 C31.167912,-13.1185068 31.7520206,-13.2132744 32.3402427,-13.2114202 C33.0436411,-13.234082 33.7490962,-13.1185068 34.4072467,-12.8467712 C35.1867438,-12.5231194 35.8654615,-12.0124047 36.4351731,-11.3982698 C36.8094962,-11.0933655 37.1365148,-10.7577648 37.4820438,-10.3887894 C38.1957258,-9.62467457 38.7592672,-8.73056335 39.1150798,-7.74559891 C39.1644411,-7.60756791 39.2076323,-7.46562261 39.24671,-7.32347129 C40.1167027,-7.42421331 40.9908089,-7.49631905 41.8649151,-7.53154786 C42.8459708,-7.5910866 43.8270264,-7.61189426 44.8101388,-7.57872562 C47.5188396,-7.49034458 50.1678956,-7.01218049 52.732626,-6.13661076 C53.2468061,-5.98436463 53.7465892,-5.79070921 54.2278618,-5.55173017 C54.9826782,-5.25094622 55.6963602,-4.8677557 56.3689077,-4.40421878 L56.9418278,-4.06387967 C57.2296041,-3.89255643 57.5173805,-3.7190082 57.7962717,-3.54101003 C58.4605925,-3.11435005 59.0899489,-2.63659799 59.6863978,-2.12155697 C60.3157543,-1.61249043 60.9101465,-1.05830629 61.4757446,-0.477546035 C61.6293817,-0.320355515 61.7776712,-0.161104831 61.923904,-0.000824065632 C63.2276591,0.703958067 64.3857984,1.60630994 65.465988,2.68253965 C66.3226121,2.18892434 67.2096756,1.7414567 68.1251219,1.34363902 C69.0691566,0.933666363 70.2682246,0.511332726 71.2575071,0.233416591 C72.1460104,-0.0158632634 73.02423,-0.186856882 73.91479,-0.312732908 C74.3199639,-0.382778487 74.7271945,-0.438402917 75.1364819,-0.485786691 L75.1200281,-0.479400182 L75.1200281,-0.479400182 C75.407969,-0.51050866 75.6938532,-0.537290793 75.9838507,-0.562012762 L75.9756239,-0.564072926 L75.9756239,-0.564072926 C76.0990271,-0.57416773 76.224487,-0.584674567 76.3478903,-0.592915223 L76.6481714,-0.617431176 L76.6481714,-0.617431176 C76.7386671,-0.625671832 76.8702973,-0.413680948 76.8785241,-0.339515041 L76.8888077,-0.26328897 L76.8888077,-0.26328897 C76.9566795,-0.186856882 77.0183811,-0.102390155 77.0615723,-0.0508860529 C77.115047,-0.0552123974 77.1685217,-0.0591267092 77.2219965,-0.0613928897 C77.3824206,-0.0756080219 77.5675255,0.210548769 77.6621346,0.319737466 L77.7476687,0.420411693 C77.8451219,0.53778572 77.9424815,0.672976369 77.9583024,0.820357338 C78.0631951,1.67553145 78.1619177,2.53235369 78.2524134,3.38938195 C78.2873777,4.03833364 78.2524134,4.68110483 78.1454639,5.31769553 C78.0652518,5.93574476 77.982983,6.55379398 77.9007142,7.16978304 C77.7690841,7.60262352 77.6395107,8.03525798 77.5099373,8.46768642 C77.4585193,8.63270556 77.4009311,8.79525251 77.3453997,8.95800547 C77.0165301,10.044948 76.630895,11.1030483 76.1716293,12.128392 C76.5066691,12.4996335 76.8190849,12.8844722 77.1096995,13.2818778 C77.1792167,13.3533655 77.2491452,13.4244412 77.3145489,13.4986071 C77.3330594,13.4699708 77.3597967,13.4431887 77.3885908,13.4285615 C77.4873134,13.3852981 77.5592986,13.4368022 77.6210002,13.5214749 C78.2688672,14.1413783 78.7398562,14.8647019 79.0319105,15.6906217 L79.213816,16.1213639 C79.2439812,16.1933933 79.2739179,16.2654761 79.3033976,16.3375132 C79.535807,16.9640091 79.7147416,17.6067803 79.8628255,18.2575861 C79.9952783,18.7697429 80.0902988,19.2889043 80.1515891,19.8136281 C80.5958407,21.3078651 80.9471285,22.8365068 81.2784662,24.3445469 C81.3307069,24.5818778 81.3060263,24.7936627 81.2301333,24.9741331 L81.4238763,25.1632562 L81.4238763,25.1632562 L81.7548846,25.4934594 C82.3110084,26.0488406 82.8783205,26.6326682 83.2913785,27.2934658 C83.7191764,27.9795005 84.0338546,28.7129189 84.3834971,29.4403628 L84.4588245,29.5948751 L84.4588245,29.5948751 L84.6127893,29.9047375 C84.7792551,30.2430542 84.8591137,30.4299884 85.0066834,30.8390082 C85.2514331,31.5211285 85.3830632,32.2069572 85.4447648,32.9302808 C85.5352605,33.9828186 85.5229202,35.13033 85.0622148,36.1089079 C85.0601581,36.1171486 85.0560447,36.1235351 85.0519312,36.1295096 C84.8421457,37.0753309 84.3238522,37.9527548 83.5361283,38.5131194 C83.3674772,38.6719581 83.1864858,38.8141094 82.9931541,38.9272124 C82.5291579,39.2001429 82.1030713,39.2245406 81.5966165,39.0982843 L81.5328825,39.0817247 C81.4691242,39.0652434 81.411536,39.0508222 81.3560046,39.0384613 C81.4382734,39.1064467 81.4794078,39.1869991 81.3560046,39.2444777 C81.2367148,39.3021623 81.1297653,39.3351249 81.028986,39.3474859 C81.0721771,39.4031103 81.0762906,39.4628551 80.9857949,39.512299 C80.7883497,39.6173674 80.6279255,39.650536 80.4633879,39.6214877 L80.4979879,39.9078932 C80.7678116,42.075219 81.0091743,42.5038338 81.220261,44.8318487 C81.360118,47.2152525 81.5822438,49.5926819 81.8886952,51.9600164 L81.9943201,52.8202008 C82.332639,55.5465327 82.7130483,58.2928529 83.295492,60.9750884 C83.589603,62.1473218 83.8425796,63.3277958 84.0564785,64.5165105 C84.3588164,65.4209225 84.5706586,66.3459362 84.6878917,67.2894913 C84.8585995,68.2495278 84.9758326,69.2178049 85.0437043,70.1943227 C85.2802272,70.8187584 85.3954035,71.453083 85.3892334,72.0999745 C85.4200842,72.9693637 85.3912901,73.8368988 85.2987377,74.7001076 C85.2473197,75.5981331 85.1239164,76.488124 84.928528,77.3698742 C84.7537068,78.5793965 84.4349151,79.7475096 83.9783232,80.8805998 C83.6122269,82.1453345 83.1638619,83.3857593 82.6537952,84.59899 C81.8619578,86.4778596 80.9055828,88.2228186 79.8175777,89.9430556 C78.7974443,91.5561641 77.703269,93.1095278 76.452783,94.5539088 C74.8362007,96.4202115 72.9933792,98.1301477 70.9736797,99.5722625 C69.8219163,100.425376 68.6063945,101.191552 67.3353412,101.84689 C65.7804606,102.650148 64.2008992,103.373265 62.5164452,103.861524 C61.465461,104.166428 60.3959664,104.376565 59.3141314,104.537464 C57.1895392,104.852463 54.9888483,104.805079 52.8519158,104.43631 C51.4739131,104.250895 50.1185343,103.92951 48.8371974,103.470093 C47.7841566,103.091229 46.780477,102.656328 45.7767974,102.166009 C45.2605606,101.916729 44.7628342,101.628306 44.2856751,101.304861 C43.4835541,100.783639 42.7328511,100.194638 42.0335662,99.5434202 C41.8052702,99.3477046 41.5831444,99.1478687 41.365132,98.937732 C41.2602393,98.8450246 41.3178275,98.7069936 41.439174,98.674237 L41.4761949,98.6699107 L41.4761949,98.6699107 C41.4288904,98.6266472 41.3795291,98.5833838 41.3322245,98.5380602 C41.3219409,98.5298195 41.313714,98.5197247 41.3054871,98.5092179 C41.2828632,98.4886162 41.2581826,98.4682206 41.2376154,98.447619 C41.1574033,98.3773674 41.2376154,98.2207949 41.3075438,98.1837119 C41.3342812,98.1692908 41.3692455,98.1674366 41.4083232,98.171351 C41.4000963,98.1631103 41.3939261,98.1569298 41.3856992,98.1509553 C41.3774723,98.1445688 41.3754156,98.1280875 41.3774723,98.1116062 L41.3466215,98.0870902 L41.3466215,98.0870902 C41.2417288,97.9941768 41.2952035,97.858412 41.4186068,97.8231832 C41.4789372,97.8048707 41.5782692,97.8142304 41.6819347,97.8367933 L41.7209447,97.845845 L41.6510162,97.7799198 C41.5276129,97.6727912 41.5666906,97.5533017 41.7188879,97.5164248 C41.8324189,97.5230173 41.9446336,97.5387075 42.0555319,97.565816 L42.1384589,97.5883245 C42.1795933,97.5986253 42.218671,97.6109863 42.2598054,97.6235533 C42.1898769,97.5594822 42.1199484,97.4978833 42.0520767,97.4338122 C41.9842049,97.3742735 42.0561901,97.2030738 42.1178917,97.1682571 C42.2022172,97.1208733 42.3667549,97.1865925 42.4428535,97.242217 C42.6300151,97.2630246 42.8768216,97.3452252 42.9673173,97.4235114 C43.2161804,97.6624904 43.4732705,97.8911686 43.734474,98.1136664 C43.8928415,98.1631103 44.0429821,98.2290356 44.1581584,98.3279234 C44.4543261,98.6122261 44.7628342,98.8802534 45.0775124,99.1396281 L45.3167014,99.3047464 C45.3567694,99.3319101 45.3969897,99.3586922 45.4374385,99.3847876 C45.889917,99.6505488 46.3423955,99.9142498 46.7928173,100.180011 C48.4443638,100.740376 50.0959104,101.300946 51.7454002,101.859251 L51.9634125,101.92497 L51.9634125,101.92497 L53.5655978,102.122746 L53.5655978,102.122746 C54.6186386,102.233995 55.6737362,102.22802 56.7267771,102.106264 C57.5165578,102.116771 58.3001683,102.038279 59.0714384,101.877586 C60.3815694,101.655088 61.6670196,101.327728 62.9175057,100.870166 C64.35721,100.344824 65.7290425,99.6528149 67.0679676,98.9070356 C67.5492401,98.636948 68.0222859,98.3505852 68.4871047,98.0479471 C68.6372453,97.9408186 68.7873859,97.8314239 68.9375265,97.720175 C69.926809,96.9764558 70.8729004,96.1832926 71.7840276,95.3448058 C72.2118254,94.9513145 72.6231695,94.5415479 73.0201166,94.1171541 C73.0777047,94.0551431 73.1332362,93.9956044 73.1887676,93.9335934 C73.5692609,93.5174403 73.9374139,93.087072 74.2891131,92.6418706 L74.6243585,92.2630064 L74.6243585,92.2630064 C75.9776806,90.575732 77.180862,88.7607274 78.262697,86.8919526 C79.3363051,85.0398651 80.2206949,83.0909499 80.9240933,81.0740492 C81.1503325,80.355052 81.3477777,79.6259599 81.5123153,78.8884211 C81.81671,78.0023446 82.0162118,77.0940182 82.1087643,76.1669444 C82.1396151,75.9854439 82.1642957,75.8041495 82.1889764,75.6228551 L82.2031449,75.3370721 C82.2052016,75.2893603 82.2068013,75.2417247 82.2074868,75.1943409 C82.2486212,74.906124 82.2835855,74.617495 82.3103229,74.329072 C82.3267766,74.0387949 82.3370602,73.7481057 82.3391169,73.4576226 L82.316493,71.6755807 L82.316493,71.6755807 C82.3103229,71.6199562 82.3041527,71.5624777 82.3000393,71.5045871 L82.2547914,71.1113017 C82.1560688,70.2993911 82.0799702,69.4856263 81.9812476,68.6741276 C81.9812476,68.6698013 81.9812476,68.6636208 81.9791909,68.6574403 C81.9421699,68.3545962 81.9030922,68.0496919 81.8578444,67.7447876 C81.8352204,67.5634932 81.8064264,67.3821987 81.779689,67.2009043 L81.728271,66.883845 L81.728271,66.883845 C81.6328906,66.3322361 81.5170394,65.7852014 81.3765838,65.2430169 L81.3148702,65.0109499 L80.9570008,63.2083063 L80.5538836,61.434505 C80.2926801,60.2457903 80.0746677,59.048835 79.9019032,57.8415789 C79.5892817,55.9175916 79.321908,53.9911322 79.0894986,52.0566381 C79.0771583,51.9639307 79.064818,51.8691632 79.0545344,51.7764558 C78.8180115,49.9822589 78.6473037,48.1814695 78.5362408,46.3747056 C78.3861002,44.5949298 78.299718,42.8106217 78.277094,41.0246655 C78.2750373,40.944113 78.3285121,40.8783938 78.3922704,40.8411048 L78.386564,40.4977152 C78.3789714,40.1939243 78.3735209,40.5583577 78.3708997,40.2120244 L78.3669862,39.2594456 C78.367221,39.1800562 78.3679879,39.1247996 78.3696465,39.1208678 C77.2707083,39.1969855 76.5317246,39.1346121 75.4706763,39.078613 L75.2907359,39.0693637 C74.3179072,39.0242461 73.3512486,38.9171176 72.3907601,38.7562188 C72.3866467,38.8058687 72.3537391,38.8406855 72.2982077,38.8509863 C72.1994851,38.8551067 72.1069327,38.8551067 72.0123235,38.8573728 L72.0472878,38.9910775 L72.0472878,38.9910775 C72.0493445,39.0592689 72.0184937,39.1023263 71.9526786,39.1208678 L71.6783121,39.1332123 C71.3120514,39.1486388 70.9444743,39.1558906 70.5808461,39.1064467 C70.2538275,39.0633892 69.9350359,38.9869572 69.6183009,38.8963099 C69.4229125,38.8633473 69.2234106,38.8182297 69.0197953,38.7603391 C68.4973883,38.6099471 67.9790947,38.408051 67.454631,38.2475643 C66.9198837,38.1340492 66.3769095,38.0971723 65.8092546,38.2329371 C65.2086923,38.3750884 64.7006823,38.6326089 64.0713259,38.4760365 C63.9458659,38.44534 63.8245194,38.3979562 63.7031729,38.3483063 L63.5908912,38.3404624 C63.5717713,38.3387838 63.5523467,38.3367007 63.5324651,38.3338851 C62.8763713,38.2393236 62.2922627,37.8231705 61.6670196,37.6004667 C61.4486909,37.5472194 61.2321145,37.5606775 61.020526,37.649105 L60.9677347,37.6727785 L60.7600059,37.8272908 C60.676366,37.9260413 60.5936401,38.025799 60.5118283,38.1258925 L60.3897962,38.2762005 C60.1656137,38.5543227 59.9270341,38.8036026 59.6370366,38.984897 C59.2873941,39.3083428 58.8719365,39.4978778 58.3762669,39.5102388 C58.0944962,39.5184795 57.8147822,39.4587347 57.5432951,39.3724139 C56.5190483,39.6896791 55.4228163,39.7535442 54.4006263,39.4445196 C53.9954523,39.3825087 53.5985053,39.273526 53.218012,39.1023263 C53.0390773,39.0219799 52.8601427,38.9272124 52.6873781,38.822144 C51.9654693,39.1272543 51.2826381,39.5329006 50.5854098,39.8833345 L50.4283695,39.9623174 C49.7159575,40.3177967 48.9276222,40.6644209 48.1214587,40.6126326 C47.1054388,40.5465014 46.1079294,40.4107366 45.1124767,40.2395369 C45.1042498,40.2395369 45.0939662,40.2374768 45.0857393,40.2354166 L44.9487103,40.2125745 L44.9487103,40.2125745 L44.4507459,40.1250528 L44.4507459,40.1250528 L44.0491522,40.0502078 L44.0491522,40.0502078 L43.8439302,40.1289636 C42.1954021,40.7537394 40.3890948,41.2411063 38.7325298,40.8040219 C38.010621,40.7156408 37.3339599,40.4723355 36.723114,40.0582425 C36.7025467,40.0438213 36.6819795,40.0294002 36.6614123,40.0129189 C36.5647465,39.9634749 36.4742508,39.9080565 36.3940387,39.8483118 L36.3768136,39.8348177 L36.3768136,39.8348177 L36.3611312,39.8213236 L36.3529043,39.8172033 C35.450004,39.4012562 34.9317104,38.5151796 35.0222061,37.5223865 C34.9666747,37.2069754 34.9687314,36.8979508 35.030433,36.5685305 C34.736322,36.9164923 34.4360408,37.2607457 34.1316462,37.6025269 C33.0182259,38.9454596 31.9278597,40.3152154 30.9181831,41.7411551 L30.6866394,42.0712288 C30.1313249,42.8559453 29.6150881,43.667856 29.1379289,44.5040766 C28.6545996,45.3302024 28.15893,46.1482935 27.6468066,46.9558778 C26.9809433,47.6929788 26.3371256,48.4477457 25.7167311,49.2210065 L25.4522859,49.5535387 L24.5596692,50.7298924 C23.928256,51.4799982 23.4037923,52.2999435 22.9903915,53.1897284 C22.6510326,53.8224047 22.3384111,54.4672361 22.0566404,55.1285488 C21.9661447,55.3281787 21.8797624,55.5300747 21.7954369,55.7319708 C21.5054393,56.5210137 21.2606896,57.3246837 21.0694146,58.1547238 C20.9157775,58.7554676 20.8054551,59.3645552 20.7399465,59.9821365 L20.7197721,60.1883118 C20.6950914,60.4312051 20.676581,60.6743045 20.6662974,60.9174038 C20.7259422,60.9526326 20.7753035,60.9874494 20.8123245,61.0224722 L20.9624651,61.0762425 L20.9624651,61.0762425 L21.0838633,61.11227 C21.2731106,61.1711274 21.5999066,61.2927089 21.5218931,61.4427457 L21.124946,62.2010921 L21.124946,62.2010921 C21.1660804,62.2443555 21.1845909,62.2894731 21.1578535,62.3391231 C20.8925366,62.8477776 20.6251629,63.3566381 20.3577893,63.8657046 C20.3495624,63.8842461 20.3351654,63.8984613 20.3207683,63.9089681 C20.5490643,64.0138304 20.7711901,64.1291996 20.9830323,64.2548696 C21.3964331,64.5022954 21.7008277,64.7884521 21.9825984,65.1221987 C22.2787662,65.2995789 22.5584802,65.4932343 22.8217404,65.715526 C23.1467022,66.0575132 23.4305296,66.4326691 23.6711659,66.8383154 C23.8932917,67.2215059 24.0742831,67.6211778 24.2141401,68.0393911 C24.2758418,68.2598286 24.3046358,68.4885068 24.3025791,68.7213054 C24.0537159,70.4808915 22.0443001,69.2754895 22.0052224,69.1209772 C21.7296218,68.0579325 21.4128869,67.3865251 20.7012616,66.5954221 L20.6827511,66.5828551 L20.6827511,66.5828551 C20.271407,66.4015606 19.8641764,66.2223263 19.4384352,66.0822352 C19.3746769,66.0945962 19.3088619,66.1030428 19.2430468,66.1131376 C19.3170887,66.218412 19.2800678,66.3214202 19.1299272,66.3397557 C18.4820602,66.4676919 17.8280231,66.5025087 17.1698726,66.4468842 L16.1703064,66.3049389 L16.1703064,66.3049389 C15.7556716,66.4642102 15.3593621,66.6687042 14.9858761,66.9122631 L14.8622322,66.9948879 L14.8396083,67.0113692 C13.8750064,67.788051 13.1304736,68.8201933 12.6204069,69.9450428 C12.5751591,70.0453042 12.5317394,70.1464811 12.490148,70.2485737 L12.4291319,70.4023993 L12.4250185,70.4106399 C11.7586411,73.0334348 12.3530333,75.9133382 13.5706118,78.2928277 C14.2349325,79.3579325 14.9280473,80.4024357 15.6520129,81.4263373 L16.3554113,82.3474366 L16.3554113,82.3474366 C16.7708688,82.7388678 17.1780995,83.1403938 17.5750465,83.5524266 C17.6367481,83.6144376 17.7025632,83.6760365 17.7683782,83.7357812 C17.9781637,83.8738122 18.1920626,83.9955679 18.410075,84.0985761 C18.4944006,84.1272124 18.5807828,84.1539945 18.6671651,84.1768624 C19.086736,84.3785524 19.5268742,84.485887 19.9896363,84.4982479 C20.6008679,84.5388074 21.1940229,84.466923 21.7674065,84.2846317 L21.8818191,84.2467019 L21.9661447,84.2157995 C22.2787662,84.0159635 22.5687638,83.7666837 22.8443643,83.4741404 C22.9060659,83.4102753 23.0212423,83.4102753 23.1528724,83.4452981 C23.2248576,83.3711322 23.2968428,83.2928459 23.3647146,83.2083792 C23.4120192,83.1568751 23.4860611,83.155021 23.5436493,83.1939581 C23.7390377,83.1715023 24.2676149,83.4722862 24.1298146,83.6307129 C24.1071907,83.6677958 24.0783966,83.7007584 24.0537159,83.7357812 C24.1462684,83.783165 24.2388208,83.8367293 24.3210896,83.8925597 C24.7530009,84.0125357 25.390981,84.4442744 25.339149,84.5741869 L25.3329961,84.5845688 C25.2330395,84.7738773 25.1030959,84.9328148 24.9431653,85.0588283 L24.8887444,85.0996098 L24.7673979,85.1840766 C24.9381057,85.2914111 25.0820762,85.4148149 25.010091,85.5013418 C24.9771834,85.5652069 24.9422192,85.6272179 24.9010848,85.6828423 C25.2507272,86.1154768 25.598313,86.5520255 25.943842,86.9887803 C26.2893711,87.7388861 26.7171689,88.4391358 27.2272356,89.0880875 C27.6529767,89.7926636 28.1651001,90.42534 28.7636058,90.989619 C28.8129671,91.0392689 28.8643851,91.0866527 28.9137464,91.1340365 C29.3546558,91.4603149 29.8160361,91.7659306 30.2965093,92.0595785 L30.5035913,92.1847201 C30.6125975,92.2504394 30.7956456,92.3328459 30.7092633,92.4914786 C30.6989797,92.5120802 30.6866394,92.5287675 30.6722424,92.5409225 C30.9745803,92.7389043 31.2872018,92.9261732 31.6101069,93.099433 L31.6407159,93.1182973 C31.7627814,93.1963609 31.9281582,93.3379588 31.7540773,93.4535752 C31.6059935,93.5524631 31.2131599,93.2846418 31.028055,93.1610319 C30.9930908,93.1610319 30.9519564,93.1509371 30.9108219,93.1385761 C30.9725236,93.1714014 31.0333111,93.2070651 31.0950127,93.2419048 L31.1884792,93.2930884 C31.2604644,93.3361459 31.6142203,93.5710046 31.3674139,93.6700985 C31.2460674,93.6801933 31.1350045,93.6492908 31.0321685,93.5792452 C30.9108219,93.5195005 30.7915322,93.4558414 30.6742991,93.3897101 C30.7154335,93.4535752 30.7154335,93.5174403 30.6125975,93.5588496 C30.5776332,93.5607037 30.542669,93.5588496 30.5077047,93.5547293 C30.7503977,93.7092416 30.9992609,93.853247 31.256351,93.9892179 L31.2979032,94.0153031 C31.4065558,94.0858202 31.5797703,94.219982 31.4537961,94.3355314 C31.3118824,94.4630556 30.9211055,94.1911139 30.8203262,94.129515 L30.5200451,93.9500747 L30.5200451,93.9500747 C30.4974211,93.9603756 30.4727405,93.9644959 30.4460031,93.9667621 C30.5364988,94.0223865 30.6208244,94.0821313 30.7133768,94.1354895 L30.83929,94.204181 C30.9970377,94.2915279 31.2198632,94.4349763 31.1391179,94.5784248 C31.0583726,94.7203472 30.8185065,94.6035198 30.6636135,94.5115487 L30.4969641,94.4081332 C30.4896513,94.4036313 30.4823385,94.3992592 30.4747972,94.3950702 L30.4683985,94.4198379 C30.4670274,94.4239354 30.4651992,94.4280328 30.4624569,94.4321531 C30.3853299,94.5665789 30.1913554,94.4785068 30.05754,94.4009513 L29.9503335,94.3355314 C29.7679709,94.2255187 29.5874366,94.1165131 29.408121,94.0066835 L29.1399856,93.8410921 L29.1358722,93.8410921 C28.2082913,93.2825816 27.3506388,92.7265433 26.5423477,92.0096062 C26.0590184,91.5808861 25.6085966,91.12765 25.1807988,90.6435114 C24.3210896,89.6731741 23.6814495,88.5629517 23.0644334,87.4298614 C23.0541498,87.4111139 23.0685468,87.3637302 23.0932275,87.3122261 C23.0253557,87.1723409 22.9595407,87.0299836 22.8937256,86.8837119 C22.2602557,87.0610921 21.5527439,87.1125962 20.9007635,87.0693327 C20.551121,87.0464649 20.205592,86.98466 19.8621197,86.8919526 C18.7658877,86.7395005 17.7087333,86.2388806 16.7955495,85.6393728 C16.7379613,85.6022899 16.6865433,85.5610866 16.6330685,85.5242097 C16.2566887,85.3118067 15.8988193,85.0647931 15.5594605,84.7823446 C14.8971965,84.2343409 14.2657833,83.6245324 13.6919583,82.9879417 C13.2765008,82.4937083 12.8836671,81.9805214 12.5155142,81.4489991 C12.1411911,80.9236572 11.7627545,80.3985214 11.3843179,79.8729736 C10.3333338,78.2248423 9.66078619,76.3274312 9.39958269,74.3888168 C9.27206603,73.6741459 9.20625097,72.9508222 9.22064801,72.2297648 C9.23093162,71.7085433 9.28851979,71.1811413 9.38929909,70.6560055 C9.3296542,70.5981149 9.27000931,70.5406363 9.21036441,70.4808915 C9.17745688,70.5383701 9.14454936,70.5797794 9.12398215,70.5589717 L8.65259142,70.0862031 C8.31820945,69.7485284 8.09385902,69.5000474 7.70895848,68.9541039 C7.09605578,68.0826545 6.63946384,67.1246782 6.30010497,66.1154038 C6.05535523,65.3943464 5.89287432,64.5741951 5.82911598,63.7812379 C5.80854878,63.6491814 5.78798157,63.5152707 5.77152781,63.3792999 C5.6398977,62.3059544 5.76124421,61.2779325 5.92372512,60.2190082 C5.93400873,60.1491686 5.96897297,60.1059052 6.01627754,60.0830374 C6.02820652,59.9991887 6.04239789,59.9130738 6.05638359,59.827165 C4.69401196,58.3825779 3.71357332,56.6415333 3.79357975,54.5389298 C3.81867174,53.876381 3.95441529,53.223309 4.21356206,52.6135005 L4.24502989,52.544691 L4.24502989,52.544691 C3.10786915,52.369577 2.20579155,51.5694093 1.52810216,50.5776463 C1.46804593,50.5300565 1.40984074,50.4820547 1.35389794,50.4342589 C0.142078249,49.3975843 -0.698092057,47.9297174 -1.27335677,46.3792379 C-1.68531788,45.4789462 -1.95824468,44.5168496 -2.07403804,43.5189061 C-2.08226492,43.4476244 -2.08720105,43.3769608 -2.09357689,43.3060912 C-2.37493625,41.7282115 -2.44651012,40.1344686 -2.31652538,38.5644175 C-2.5989131,37.5926381 -2.82864878,36.6037593 -2.98598789,35.5918067 C-3.06002983,35.1099344 -3.11144784,34.62765 -3.15052553,34.1455716 L-3.15463897,34.1189954 L-3.16080913,34.0322625 L-3.17817699,33.8160216 C-3.18091929,33.7802358 -3.18343306,33.7445263 -3.18548978,33.7088168 C-3.53307553,29.2959453 -2.54790644,24.9531194 -0.918983834,20.8657539 C-0.777070123,20.4981691 -0.63052879,20.1315114 -0.479359837,19.7677798 L-0.319038477,19.3877922 L-0.319038477,19.3877922 C1.31605429,16.7466618 3.77136717,14.6104777 5.85091722,12.354392 C6.56850699,11.576062 5.40789963,10.4075369 4.68763613,11.1889572 C3.30593133,12.6879325 1.82365289,14.1236609 0.485344893,15.6644576 C0.249027713,15.681763 0.0122991883,15.6881495 -0.22381232,15.6764066 C-0.635156411,15.6555989 -1.03416018,15.5898797 -1.42082363,15.4846053 C-2.38542552,15.342454 -3.26364515,14.953083 -4.06165269,14.3803573 C-5.12909061,13.8820036 -6.04021777,12.9423628 -6.13071347,11.7165652 C-6.14099707,11.5929553 -6.13894035,11.4714057 -6.13071347,11.350062 C-6.22943605,10.7503482 -6.14099707,10.1222042 -5.89007718,9.54309207 C-5.84688605,9.38445943 -5.79135459,9.22788696 -5.7214261,9.07337466 C-5.51781077,8.61395807 -5.18256534,8.17328897 -4.77327797,7.87435916 C-4.76299437,7.86817867 -4.75476748,7.86426436 -4.7465406,7.85787785 C-4.70334947,7.81276026 -4.66221506,7.76723063 -4.61491049,7.72623336 C-4.544982,7.66216226 -4.47094006,7.60262352 -4.39278468,7.54699909 C-4.67044195,7.08943665 -4.92136184,6.61992525 -5.13526077,6.11909936 C-5.36767018,5.57521604 -5.48695997,5.02329809 -5.55277502,4.44006563 C-5.57951239,4.20932726 -5.58979599,3.98064904 -5.59390943,3.75217685 C-5.60624975,3.64690246 -5.61447664,3.53977393 -5.62270352,3.4326454 C-5.67412153,2.61682042 -5.57951239,1.770299 -5.27511776,1.00783227 C-5.25249384,0.950353692 -5.22369975,0.892463081 -5.19696238,0.832718323 C-5.13937421,0.65966454 -5.07561588,0.486816773 -4.9974605,0.317677302 C-4.69306587,-0.331274385 -4.26115458,-0.881338195 -3.72846398,-1.33251413 C-3.44052311,-1.62299727 -3.117618,-1.88051778 -2.7659188,-2.09889517 C-2.55819004,-2.22868551 -2.32166719,-2.34405469 -2.07280401,-2.43882224 C-1.62855239,-2.67368095 -1.05884083,-2.88793801 -0.596078723,-2.90421331 C-0.54054727,-2.90647949 -0.491185979,-2.90009298 -0.437711247,-2.90009298 C-0.394520118,-4.08283318 -0.242322804,-5.37043573 0.224552739,-6.44172106 C0.49603984,-7.2181969 0.90327049,-7.90835187 1.51617319,-8.40505743 C1.87164304,-8.77668814 2.30966736,-9.07848946 2.85623554,-9.27575088 L2.95382078,-9.30946946 L2.99084175,-9.31977028 C3.48239794,-9.55874932 4.01303182,-9.65351686 4.55806274,-9.65125068 C5.19358936,-9.68441933 5.8414563,-9.56472379 6.39471411,-9.27238651 C6.50989045,-9.21058159 6.63329368,-9.13435552 6.75052675,-9.05194895 C6.83896573,-9.22912306 6.93768831,-9.40835734 7.05080793,-9.5873856 C7.44775498,-10.2241823 7.92697085,-10.7783665 8.48228537,-11.2831067 C8.54810043,-11.3428514 8.62008564,-11.3964157 8.69001414,-11.4538943 C8.95944452,-11.6990538 9.24532866,-11.9256718 9.54149641,-12.1316882 C10.1811365,-12.5768897 10.8824781,-12.9083701 11.6187841,-13.1228332 C12.468864,-13.4374764 13.3657939,-13.5835578 14.2630644,-13.5528216 L14.4488314,-13.5449608 L14.4488314,-13.5449608 C14.4899658,-13.5410465 14.5311002,-13.5389863 14.5701779,-13.5369262 C15.4607379,-13.4790356 16.3389575,-13.2606582 17.1780995,-12.9312379 C18.0480922,-12.5869845 18.7843981,-12.065969 19.469286,-11.4685214 C19.6297102,-11.6908131 19.8127584,-11.9011559 20.0369409,-12.0989316 C20.1006992,-12.15435 20.168571,-12.204 20.2323293,-12.2555041 C20.2816906,-12.304948 20.3331086,-12.3523318 20.3865834,-12.3997156 C20.6313331,-12.6160328 20.8904799,-12.8035077 21.1743073,-12.970381 C21.493099,-13.15765 21.8365713,-13.2874403 22.1923839,-13.3677867 C22.5543667,-13.4916026 22.93486,-13.5678286 23.3215235,-13.5925506 Z M19.0949835,71.3377464 C19.1313976,71.3357285 21.0362711,72.0512439 21.9853366,72.5138551 L22.0319803,72.5367705 C23.1261556,73.0806538 23.652676,73.472085 24.6357884,74.1704806 C24.7016035,74.2178644 24.7694752,74.2899701 24.7694752,74.3600157 C24.7694752,75.3772054 24.5227208,76.6209649 23.6691298,76.0699519 C23.5457266,75.9902922 23.4214092,75.9124638 23.2961778,75.8358562 L23.1076451,75.7217841 L23.1014749,75.7238443 C23.1035317,75.7238443 23.1055884,75.7217841 23.1076451,75.719724 C21.2483698,74.5845736 19.2842018,73.6945827 17.2110276,73.057992 C17.0691138,73.0064879 18.1200774,71.416 18.410075,71.5045871 C18.2434807,71.4386618 19.0672767,71.3392968 19.0949835,71.3377464 Z M38.6303108,26.4086253 C37.3940162,26.5410939 36.1577215,26.6715023 34.9214268,26.7990264 C34.1337029,26.8896737 33.3439222,26.9700201 32.5541416,27.0380055 C31.3674139,27.1267985 30.1806862,27.1410137 28.9980719,26.9782607 C28.5785009,26.9207821 28.1671569,26.8381696 27.7599262,26.7372215 C27.4822689,26.9411778 27.1943281,27.132773 26.9002171,27.3163336 L23.634145,29.819227 L23.634145,29.819227 C21.4437377,31.5437903 19.300635,33.3709499 17.3714312,35.3878505 C14.0021117,38.9115552 11.2578296,43.0339435 9.53244684,47.6002972 C9.37593041,47.6927985 9.25499525,47.8541094 9.21468352,48.1015351 C8.90987755,49.9731942 8.01849491,51.6802461 7.69641248,53.5442826 C7.37926619,55.3803008 7.80109956,56.9410811 8.95245167,58.396381 C9.19822976,58.7072598 9.70171493,58.6907785 10.0106343,58.4808478 C10.0824139,58.622175 10.39339,58.6162005 10.5026019,57.9919708 C11.0145196,57.4367566 11.4523954,56.8547603 11.7489745,56.1341149 C11.9673982,55.6034166 11.6002736,55.2354713 11.1547879,55.1631595 C11.3398928,54.4956664 11.5486499,53.8341477 11.7833217,53.1796335 C12.4784932,51.2346326 13.362883,49.3765706 14.4755688,47.6336718 C15.4545677,46.1007037 16.5878207,44.7657174 17.8053992,43.4266108 C17.8197962,43.4080693 17.8444769,43.4020948 17.8712143,43.3979745 L18.1241909,43.1175861 L18.1241909,43.1175861 C18.1591551,43.078443 18.2311403,43.0825634 18.3113524,43.103165 C18.3874511,43.0228186 18.461493,42.940412 18.5396484,42.8600656 C18.6157471,42.7776591 18.7000726,42.802381 18.7473772,42.8683063 C18.8769506,42.839464 19.1134734,42.9795552 19.1854586,43.0250848 C19.3088619,43.1072853 19.3479395,43.1999927 19.2430468,43.3174221 C19.2245363,43.3382297 19.2060258,43.3588314 19.1875153,43.3771668 C19.3294291,43.4371176 19.469286,43.517258 19.5782922,43.5957502 C19.9587855,43.6800109 20.4935328,44.0343592 20.4009804,44.1396335 C20.205592,44.3433838 20.0163737,44.5516664 19.8292121,44.7636572 C19.9937498,44.8792325 20.1006992,44.9923355 20.0575081,45.0419854 C19.2553871,45.8885068 18.5149678,46.7848842 17.83625,47.7344139 C17.3200132,48.4431103 16.8531376,49.180649 16.4356234,49.9490902 C15.8144938,51.0368569 15.2879734,52.155526 14.8210978,53.3050975 C14.7552828,53.4804175 14.6915244,53.6553254 14.6298228,53.8304394 C13.9469916,55.7443318 13.4369249,57.73033 13.2209693,59.7534111 L13.2119441,59.8898782 C13.1717177,60.6186526 13.1559769,62.5699301 13.0811123,63.0352525 C13.5356475,63.2598104 14.0086932,63.4514057 14.5002494,63.6081841 C14.5928018,63.6349663 14.687411,63.6596882 14.7820201,63.68235 C14.8354949,63.6596882 14.8910263,63.6409407 14.9465578,63.6244594 C15.3990363,63.4411048 15.872082,63.3092543 16.3554113,63.2453892 C16.6811444,63.2023061 17.0053028,63.1872991 17.3292644,63.1966418 L17.468097,63.2021258 C17.6120675,63.2062461 17.7539812,63.2165469 17.8979516,63.2311741 C17.8897247,63.1485615 17.8856113,63.0684211 17.8794411,62.9858086 C17.8383067,62.9590264 17.8074559,62.9221495 17.8053992,62.8724995 C17.7087333,61.9454257 17.7066766,61.0183519 17.799229,60.091278 C17.8609307,59.6071395 17.9329159,59.1250611 18.0110712,58.6431887 C18.0912833,58.2474312 18.1838358,57.8582662 18.2846151,57.4686892 C18.5519887,56.3770082 18.9078014,55.3116974 19.3397127,54.2694603 C20.5696315,51.2964376 22.3322409,48.6161641 24.105134,45.9503118 C25.3988111,44.0036627 26.6225598,42.0133382 27.9614848,40.0994458 C29.1009079,38.469856 30.2979192,36.8649881 31.5751427,35.3404667 C32.8503093,33.8182115 34.1974612,32.3532288 35.6515626,30.9978469 C35.8860287,30.7813236 36.1225516,30.5711869 36.3631879,30.3633163 C37.7411906,29.1272179 39.2384831,28.111351 40.7974772,27.1144376 C40.8571221,27.0752944 40.9640715,27.1185579 41.0525105,27.1925178 L41.3040398,27.037624 C41.3461645,27.0119101 41.3884415,26.9865014 41.4309471,26.9617794 C41.4700248,26.9372634 41.5132159,26.9782607 41.5358398,27.0132835 C41.6427893,26.9576591 41.7497387,26.9043008 41.8566882,26.8505305 C41.9346379,26.7874895 42.0150557,26.7277448 42.0936224,26.6655278 C40.9375398,26.6072252 39.7831026,26.5206983 38.6303108,26.4086253 Z M53.129573,12.6745415 C52.1958219,12.4872726 51.2579574,12.4602844 50.3159794,12.6003756 C49.9212948,12.6582662 49.5284612,12.7278997 49.1389183,12.8121604 C50.0235138,13.584722 50.7349334,14.5733947 51.1966671,15.7112233 C51.6956275,16.9411413 49.7053391,17.4712215 49.2133716,16.259021 C48.7388862,15.0896718 47.8407164,14.1926764 46.7557963,13.6549736 C46.5213302,13.786206 46.2940626,13.9283573 46.0770786,14.0857539 C45.7932512,14.3164923 45.5258775,14.5657721 45.2749576,14.8397739 C44.72787,15.4353674 44.2260302,16.2303847 43.8969549,17.0173674 C43.7694382,17.4458815 43.6748291,17.8867566 43.6151842,18.3399927 C43.6028439,18.4430009 43.5905036,18.5480693 43.58022,18.6531376 C43.3774273,20.7852015 43.9860109,22.8595807 45.0330873,24.6951869 L45.0742217,24.6958049 L45.0742217,24.6958049 C46.0087955,24.1881805 46.9871774,23.7604904 47.9939421,23.4121167 C48.8001765,22.8684394 49.6372617,22.3655533 50.4990276,21.9102571 C52.3310323,20.9421326 54.2660253,20.1958038 56.2599295,19.6854359 L56.4902543,19.6275953 C56.9598721,19.507419 57.4337748,19.4015495 57.9095818,19.3089136 L58.1952755,19.2549116 L58.199389,19.2549116 L58.1685381,18.9477411 L58.1685381,18.9477411 C58.008114,17.7425451 57.537125,16.623876 56.9283357,15.5898797 C56.4717438,14.8090775 55.7827424,14.0097338 55.0176424,13.371083 L55.013529,13.3688168 C54.6661717,13.171041 54.3009388,13.0074487 53.9250527,12.8722522 L53.7836101,12.8228733 L53.129573,12.6745415 Z M28.0581507,10.8432616 C26.1166066,10.659701 24.1750625,10.6782425 22.2335183,10.8368751 C20.9645218,10.9627511 19.7037522,11.1376591 18.4491527,11.3601568 C17.5997272,11.5064284 16.7667554,11.7124448 15.9481806,11.9681112 L16.4163892,12.9165392 C17.1988952,14.4960699 18.0004449,16.0652282 18.9448223,17.5571304 C19.4322651,18.3255716 19.9608422,19.0571358 20.536724,19.7594458 C20.9254441,20.2621258 21.353242,20.7279289 21.8221742,21.156237 C21.9455775,21.306835 22.0772076,21.4489863 22.2108944,21.5868113 C22.6386923,21.9535205 23.0993977,22.2749061 23.6032942,22.5406673 C24.0073255,22.8354996 24.4292325,23.0930558 24.8690152,23.3188339 L25.0347716,23.4020219 L26.5773119,23.9951431 C26.6595808,24.0184916 26.7427637,24.0418402 26.8262513,24.0640289 L26.9516351,24.0962972 L27.1861012,24.1455351 L27.3620651,24.0498519 C27.3915447,24.0340573 27.4212529,24.0184916 27.4514181,24.0033838 C27.5007794,23.9768077 27.5357437,24.0283118 27.5460273,24.0651887 C27.5501407,24.0798159 27.5439706,24.1002115 27.533687,24.1208131 L27.7584865,23.9990574 L27.7584865,23.9990574 C28.1449443,24.1562479 28.5550543,24.281918 28.9949868,24.3647366 C29.1940774,24.4020255 29.3935793,24.4306618 29.5932868,24.4551778 L29.6200394,24.4730783 C29.6245033,24.4762143 29.6290052,24.479625 29.6335985,24.483608 L29.8520223,24.483608 L29.8520223,24.483608 C31.3896265,24.6321459 32.9490319,24.4358122 34.4841681,24.1595442 C36.6564762,23.9407548 38.828373,23.6995096 40.9990358,23.4739216 C41.0401702,23.4700073 41.056624,23.4883428 41.056624,23.5173911 L41.1903108,23.5050301 L41.1903108,23.5050301 C41.3836425,23.4842224 41.6098818,23.8076682 41.4638546,23.9253036 C41.5810877,23.9951431 41.6942073,24.0962972 41.7785328,24.1745834 L41.8278941,24.1702571 C41.5296697,23.5851705 41.299317,22.9733017 41.1347793,22.336917 L40.9249938,21.269546 L40.9249938,21.269546 C40.8674057,20.8719344 40.8344981,20.4477466 40.828328,20.0293273 C40.8139309,19.837732 40.8036473,19.6587037 40.8036473,19.5019253 C40.8036473,19.3535934 40.8057041,19.2052616 40.8118742,19.0571358 C40.4025868,18.8879964 39.9871293,18.7398706 39.5634449,18.6139945 C38.3602634,18.4658687 37.1591387,18.3173309 35.9559572,18.1710593 C35.2340483,18.1978414 34.5121395,18.2493455 33.7922873,18.3296919 C32.9757693,18.4017976 32.161308,18.494505 31.3489034,18.6057539 C31.2728047,18.6139945 31.1370612,18.5109863 31.0547924,18.3914968 L30.7072066,18.4390866 L30.7072066,18.4390866 C30.5262152,18.4617484 30.3369969,18.0989535 30.5755765,18.0247876 C30.6619588,17.9904515 30.748341,17.9579467 30.8347233,17.9266628 L30.9642967,17.8805761 L30.8902547,17.8888168 C30.8655741,17.891083 30.8347233,17.8846964 30.799759,17.8725415 C30.608484,17.8970574 30.417209,17.9217794 30.2279908,17.9444412 C29.9880155,17.9744387 30.0425554,17.6575142 30.2108851,17.5829316 L30.2917491,17.55301 C30.1495886,17.4642087 30.0244873,17.2212372 30.2003114,17.1417925 L30.2238773,17.1327366 C30.3061461,17.0999799 30.3863582,17.0729918 30.468627,17.0420893 C30.4624569,17.0155132 30.4624569,16.9905852 30.4706838,16.9681294 L30.1313249,17.0111869 L30.1313249,17.0111869 C30.1003531,17.0152587 30.2479246,16.7983327 30.3185488,16.7554504 L30.3308268,16.749546 L30.4933077,16.7001021 C30.5179883,16.6300565 30.6496184,16.4755442 30.6948663,16.4613291 C31.2913152,16.2736481 31.8466298,16.1049207 32.4266249,15.9749243 C32.455419,15.9399015 32.4883265,15.9131194 32.5253475,15.9048788 C32.8873303,15.8183519 33.2534265,15.7503665 33.6195228,15.6928879 C33.6442034,15.6555989 33.6688841,15.6290228 33.6976782,15.6267566 C34.6046919,15.5113874 35.5137623,15.4846053 36.4269462,15.5466162 C36.6017674,15.5628915 36.7765887,15.581639 36.9514099,15.6040948 C37.2866554,15.6413838 37.6219008,15.6887675 37.9550895,15.7526326 C38.7896773,15.8961083 39.6047577,16.1141914 40.398684,16.4083664 L40.5815215,16.4776044 C40.7810234,16.5519763 40.9784686,16.6300565 41.173857,16.7147293 C41.2725796,16.3624412 41.3959828,16.0161276 41.54201,15.6764066 C41.5646339,15.6102753 41.5893146,15.5466162 41.6160519,15.4827511 L41.41655,15.3630556 L41.41655,15.3630556 C41.3733589,15.4454622 41.2849199,15.5093273 41.2273318,15.4745105 C39.797911,14.5082935 38.2862215,13.7025634 36.6922631,13.0597922 C35.7996465,12.6642407 34.8864626,12.3286399 33.9506548,12.0482516 C33.4837792,11.8980656 33.0127903,11.7620948 32.5397445,11.6323045 C32.3032217,11.5826545 32.0666988,11.5332106 31.8260625,11.4920073 C30.5899736,11.1582607 29.3333174,10.9421495 28.0581507,10.8432616 Z M75.1597229,14.1133601 C74.9861356,14.413732 74.8055556,14.7112197 74.6140749,15.0045871 C73.6842316,16.4300146 72.5694891,17.7676791 71.3054287,18.933938 C71.635121,18.9331139 71.9639906,18.9456809 72.2887468,18.9761714 C72.8487917,19.0291176 73.3973191,19.122237 73.9320664,19.2526454 C73.9754632,19.2178286 74.0240018,19.2003172 74.0628738,19.2279234 L74.2023195,19.3245451 L74.2023195,19.3245451 C75.3493525,19.6345998 76.4262513,20.1220346 77.4017538,20.7751067 L77.3842641,20.6461404 C77.381278,20.624646 77.378033,20.6031516 77.3741938,20.5816572 C77.3906475,20.3282571 77.394761,20.0746509 77.3865341,19.8233108 C77.1849755,18.3379325 76.681079,16.9699836 76.1051972,15.5857593 C76.0942966,15.5589772 76.1021122,15.5241604 76.1187716,15.4887256 C75.828157,15.0132397 75.5099823,14.5534111 75.1597229,14.1133601 Z M75.4244228,2.43552598 C74.9945682,2.51381222 74.5688271,2.61476026 74.1451427,2.74043026 C73.3491918,2.8601258 72.5779217,3.07026253 71.8333889,3.36878031 C70.8070854,3.73342935 69.8116327,4.15782315 68.8202934,4.60714494 C66.895203,5.4804485 65.0894025,6.58490246 63.4460828,7.91576846 C63.3411901,7.99590884 63.2404108,8.07852142 63.1396315,8.16092799 C62.7714785,8.4800474 62.4136092,8.81379398 62.0742503,9.16608204 C61.7184377,9.55339289 61.3605683,9.94090975 61.0047557,10.3300747 C60.5687309,10.7876372 60.0668911,11.2015242 59.6720008,11.6959635 C59.5917887,11.7969116 59.5218602,11.9081604 59.4581019,12.0196153 L59.6905113,12.0997557 L59.6905113,12.0997557 C59.8858997,12.1656809 59.8529922,12.5323902 59.6596605,12.4788259 C59.5938454,12.4602844 59.5321438,12.4376226 59.4704422,12.4131067 C59.4971796,12.4481294 59.51569,12.4831522 59.5198035,12.5138487 C59.5321438,12.6127366 59.4560452,12.7489134 59.3346986,12.7138906 C59.2791672,12.6992634 59.2236357,12.6786618 59.1681043,12.656 C59.1516505,12.7198651 59.1393102,12.7837302 59.1393102,12.8455351 C59.1495938,12.8496554 59.1598774,12.8537758 59.1722177,12.8560419 C59.3079613,12.9034257 59.5629946,13.1154166 59.6000156,13.2598341 C59.6288097,13.371083 59.5342005,13.4903665 59.412854,13.4574038 C59.3223583,13.4326819 59.2339193,13.3955989 59.1475371,13.3543956 C59.2051253,13.4102261 59.2503731,13.4699708 59.2544865,13.5214749 C59.2627134,13.6162425 59.1804446,13.7499471 59.067325,13.7192507 C58.8575395,13.6613601 58.6888884,13.572979 58.5490314,13.4617302 C58.5120105,13.5109681 58.4585357,13.5501112 58.4153446,13.5379562 L58.3351325,13.5132343 L58.3351325,13.5132343 C58.3570709,13.5336986 58.377181,13.5552616 58.3966818,13.5764584 L58.4256282,13.6077958 C58.9932831,14.2217247 59.4889527,14.9015789 59.8858997,15.6331431 C59.9044102,15.6123355 59.9270341,15.593794 59.9558282,15.5711322 C60.1409331,15.4145597 60.3322081,15.2621076 60.5234831,15.1139818 L60.5813283,15.0633275 L60.5813283,15.0633275 L60.6407161,15.0128277 L60.2108616,15.154979 L60.2203716,15.1438241 C60.2507457,15.1048795 60.3453309,14.9749805 60.3893997,14.9317025 L60.4000798,14.9221805 C60.9903586,14.3929243 61.6341121,13.9436026 62.3292836,13.5770994 C62.7797054,13.28435 63.2527511,13.0371304 63.7484207,12.8331741 C64.931035,12.2831103 66.1362732,11.865103 67.3744189,11.4777922 C67.5595238,11.4180474 67.7446286,11.3541823 67.9297334,11.2962917 C67.9832082,11.2777502 67.9934918,11.300412 67.9852649,11.337495 L68.0819307,11.3086527 L68.0819307,11.3086527 C68.2546953,11.2530283 68.5488063,11.5579325 68.4315732,11.7000839 C68.5023244,11.7577685 68.5717593,11.8220456 68.6325066,11.8823672 L68.676323,11.9267019 L68.7256842,11.9122808 C68.8726164,11.8668747 69.1205252,12.0963474 69.2780064,12.2588495 L69.3941184,12.3819982 C69.4825574,12.4767657 69.6553219,12.6724813 69.4434797,12.7489134 L69.1781628,12.8393546 L69.1781628,12.8393546 C69.1863896,12.8929189 69.1637657,12.9382425 69.0814969,12.9691449 C68.9889445,13.0000474 68.8984488,13.03301 68.8079531,13.0661787 C68.8627989,13.1141118 68.9167307,13.1639678 68.9697484,13.2144647 L69.0485894,13.2905305 C69.141675,13.3857559 69.3625425,13.5956044 69.1675715,13.6882826 L69.1431985,13.698443 L68.8902219,13.7890902 C68.9231294,13.8632562 68.9149025,13.9335077 68.8038396,13.974505 C67.3271143,14.4771851 65.8853533,15.066598 64.4764998,15.7361513 C63.4214022,16.3210319 62.3066597,16.7579927 61.1322723,17.0441495 C61.0356065,17.075258 60.825821,16.9289863 60.7394387,16.7827147 L60.5640843,16.8344019 C60.5349093,16.8429401 60.5056582,16.8511808 60.4761785,16.8587347 L60.4473844,16.8651212 L60.4473844,16.8651212 C60.6674535,17.452268 60.8299344,18.0886527 60.9204301,18.7046418 C60.9307137,18.7602662 60.9389406,18.8181568 60.9451108,18.8737812 C61.1754635,18.8550337 61.4037594,18.8385524 61.6341121,18.8263974 C63.2280705,18.7417247 64.8405393,18.7932288 66.4386111,18.9827639 C67.0844213,18.5975132 67.7055509,18.1751796 68.2999431,17.7180292 C68.4809345,17.577732 68.6598692,17.4335205 68.8367472,17.2872489 C69.8980149,16.3642954 70.8585034,15.3282388 71.7099856,14.2093637 C72.4977096,13.1731012 73.1825975,12.0606126 73.7584792,10.8947657 C74.2685459,9.80061258 74.6901736,8.66340201 75.0089652,7.48910848 C75.3010195,6.41576299 75.4017989,5.3712598 75.4758408,4.26083136 C75.5005214,4.07953692 75.5169752,3.8984485 75.5313722,3.71694804 L75.5296964,3.63927222 L75.5296964,3.63927222 L75.5272588,3.60157885 C75.5066916,3.21241386 75.4676139,2.82283683 75.4244228,2.43552598 Z M60.354832,16.2324448 C60.3075274,16.2489262 60.2581661,16.2654075 60.2088048,16.2798286 C60.2375989,16.3436937 60.2643363,16.4057046 60.2910737,16.4693637 L60.2941587,16.4681019 L60.2941587,16.4681019 L60.4885188,16.3148514 L60.4885188,16.3148514 C60.4473844,16.2963099 60.4000798,16.2676737 60.354832,16.2324448 Z M75.1364819,-0.485724886 C75.5066916,-0.62375588 75.7864056,-0.650538013 75.9756239,-0.564011121 C75.6959099,-0.54340948 75.4161959,-0.516627347 75.1364819,-0.485724886 Z" id="ðŸ–-Ink" fill="#000000"></path>
                    </g>
                    <g id="facial-hair/*-None" transform="translate(25.351145, 69.633546)"></g>
                    <g id="face/Smile" transform="translate(32.770992, 38.319052)" fill="#000000">
                        <path d="M30.2124985,49.6348233 C28.8269914,49.069854 27.5907686,48.1274481 26.6869706,46.9235855 C26.3727532,46.5050734 26.2912819,46.0631312 26.3571979,45.6589186 C26.4313157,45.20441 26.700328,44.7924789 27.0672004,44.5161682 C27.4352092,44.2390016 27.8955415,44.1023099 28.3405869,44.1719914 C28.7273052,44.2325406 29.1122648,44.444185 29.4169316,44.8831277 L29.4805841,44.9709059 C30.0179077,45.6975159 30.7180897,46.2936907 31.5158983,46.6779599 C32.2848561,47.0483329 33.1448576,47.2212002 34.0348188,47.1206743 C35.7298073,46.929289 36.8980787,46.0130233 38.1398237,44.76875 C38.2937416,44.6116573 38.4477581,44.44964 38.6025213,44.2850148 C38.7002572,44.1357828 38.8358902,44.0398712 38.9864797,43.9895481 C39.1536826,43.9336731 39.3428281,43.9368345 39.5160709,43.9972659 C39.6831644,44.0555523 39.8325377,44.1660024 39.9326965,44.3130042 C40.0278892,44.4527174 40.0818607,44.6253143 40.0643483,44.8238434 C39.9506892,46.1133291 39.2762351,47.2641401 38.3182012,48.1677698 C37.2541821,49.171366 35.8437471,49.8656606 34.5158843,50.1091715 C33.0529692,50.3774081 31.5622978,50.1852319 30.2124985,49.6348233 L30.2124985,49.6348233 Z M35.2060015,29.7420027 C36.7623925,30.6876274 39.1338544,32.8926397 37.4595359,35.2369586 C35.4887029,37.304022 32.6511484,34.9339926 31.2528507,33.8621206 C29.9562835,33.0314138 28.4995176,35.1679295 29.7024734,36.1379198 C39.806602,43.615334 43.9070714,29.9892703 35.9932024,28.6301798 C35.1218569,28.4804139 34.7982371,29.4494633 35.2060015,29.7420027 Z M17.0993061,21.0438345 C17.2712669,18.9102717 20.5221229,18.4257779 20.8455046,20.5370341 C21.1350847,22.4282647 20.794184,24.1656011 19.9419321,25.8683267 C19.1276038,27.4950323 17.080856,26.7360976 16.9260697,25.2548396 C16.7185852,23.2692748 16.9923366,22.3710326 17.0993061,21.0438345 Z M41.8452595,20.0992698 C42.2984885,19.5059426 42.9528779,19.1009143 43.7369084,19.3297985 C46.1864885,20.0452935 45.4644962,23.5214084 44.6042061,25.2134211 C44.1367557,26.1322543 42.6257863,26.3652589 41.9429542,25.5562325 C40.8299771,24.2369034 40.2969847,21.6021595 41.7119084,20.302608 C41.7502443,20.2354467 41.7929084,20.1676673 41.8452595,20.0992698 Z M19.9074298,11.7080155 L20.2943688,11.6403195 C21.4913961,11.4333874 22.9797618,11.2345486 23.8265519,12.1964804 C24.2756588,12.706577 24.4302389,13.6546645 23.8265519,14.1429234 C22.7646893,15.0020119 21.5907046,14.6690893 20.3182008,14.7418131 C19.269529,14.8019699 18.2616664,14.9754357 17.2515366,15.2640647 C15.0354756,15.8971531 13.2297733,17.0529052 11.3370939,18.3219663 C11.0887351,18.4884275 10.8352237,18.1709562 10.9537351,17.9387758 C12.0463076,15.7997074 14.1636435,14.0425934 16.2844832,12.9715141 C17.4164221,12.3998186 18.6551244,11.9255688 19.9074298,11.7080155 Z M39.6122722,10.74981 L39.9084333,10.8103955 C43.1313751,11.4837825 47.318731,12.8289283 48.8449495,15.9932281 C48.9031054,16.4406712 48.8416582,16.5365672 48.7916905,16.5992202 L48.7750539,16.620069 C48.7338805,16.673571 48.7010273,16.7473232 48.5070009,16.808221 C48.4531585,16.7953981 48.3987803,16.781817 48.343826,16.7674218 C47.6442342,16.5841649 47.0907217,16.3317028 46.554863,16.0697431 L45.9738562,15.7836277 C45.2997722,15.453256 44.6197366,15.1349082 43.899055,14.8998919 C42.3610585,14.3984593 40.7790969,14.0452313 39.1726258,13.8566156 C38.8244356,13.8157695 38.4891503,13.6983069 38.2246342,13.4969953 C37.9735554,13.3059101 37.7817474,13.0413483 37.6942936,12.6896879 C37.5809537,12.2345833 37.6135251,11.8900318 37.8578156,11.4794607 C38.0415069,11.1711307 38.3043399,10.9574176 38.6061386,10.8346964 C38.9138093,10.7095873 39.2640894,10.6800929 39.6122722,10.74981 Z" id="ðŸ–-Ink"></path>
                    </g>
                    <g id="mask/respirator" transform="translate(4.740458, 57.890611)">
                        <path d="M70.96957,5.58617612 C69.1485567,3.69700565 67.3205741,1.780435 64.9905672,0.474909025 C65.0931339,-0.0846315406 64.8668894,-0.727608751 64.2016519,-0.995430082 C57.7522165,-3.40582206 53.6522463,3.53157448 48.9813964,6.63109134 C47.8899007,7.21741404 46.7952758,7.89376591 45.576509,8.12285615 C42.9850583,8.87914239 40.7861194,10.4450731 39.2235941,12.502559 C38.3792415,13.3132335 36.8907552,14.6659373 36.4773192,15.7681251 C36.2242416,16.2180649 13.5417676,5.43145779 8.37956407,4.2312062 C5.9349716,3.41393911 4.61876218,5.72390704 7.71720642,6.90941951 C15.8591954,10.0246698 31.8007976,16.9979244 35.3599284,19.0073211 C34.6760075,21.1167231 34.4717461,23.9125717 35.1377958,25.9986939 C34.5780014,29.2457185 35.6647387,32.2203894 37.8127878,34.5516711 C38.2679115,35.2136018 38.963715,35.6907358 39.4165684,36.2651096 C41.0615328,40.5630239 45.0089241,42.6418303 49.6282147,44.6961251 C56.9784591,47.9649319 63.3858427,48.6198724 67.4138353,47.1880995 C77.8703216,43.1979737 83.9392124,31.4733739 81.9839271,20.7905991 C80.1449121,13.2650257 80.5244871,6.66364193 70.96957,5.58617612 Z" id="ðŸŽ¨-Color" fill="#9DDADB"></path>
                        <path d="M48.2859861,5.53714421 C54.5757416,2.02786071 55.6379354,-5.12461696 64.760005,-1.48863336 C67.6100902,-0.337825706 68.6111709,1.36572397 70.5125558,3.49366746 C71.4972597,4.3881907 72.7368927,4.83298013 73.9601372,5.30929006 C78.6127592,6.85317703 81.3410107,11.2394724 82.381731,15.8470294 C85.1042483,25.411009 82.2537295,36.6149273 75.295799,43.5746627 C75.3937952,43.7509962 75.3747054,44.0050546 75.1622973,44.1222046 C74.7714331,44.3377059 74.3829124,44.5585044 73.9958227,44.7826229 C71.5621313,46.884086 66.6245307,49.6474539 62.9643792,49.6474539 C54.8031943,49.6474539 46.9193504,46.3380335 42.1015166,42.0904295 C35.9351263,37.1192536 32.0461941,26.7469455 34.0469846,19.2819409 C22.5807965,13.8859921 11.9592177,9.78811357 7.51948127,8.01072175 C6.42390463,6.86208959 6.41393213,6.4396391 7.48956376,6.74337028 C17.9137057,9.6868845 38.4398899,19.2603092 38.6868461,19.270404 C38.8332898,19.2763785 39.3715992,18.1006428 39.4775999,17.5954906 C38.9975374,17.5429976 10.6844367,5.33474735 7.15827413,4.20210315 L6.97171642,4.14261914 C5.29467411,3.61315697 5.71366278,3.20112416 7.00245264,3.27611413 C9.61564821,3.42856627 31.770674,13.707961 36.081981,14.738043 C38.0080796,10.4116985 43.4794262,8.16591358 48.2859861,5.53714421 Z M62.0199793,-0.596170283 C58.5184663,-1.62625232 55.944257,0.914342024 54.0712755,3.5771041 C49.6532195,9.05312531 41.5943494,9.22620869 38.2665044,15.7325885 L38.1671174,15.9317021 L39.4844379,16.3272536 L39.5204204,16.2677649 C39.6242107,16.1062882 39.9334662,15.6961692 40.1956222,16.0695271 C41.5578473,17.5329131 39.4251081,22.3913263 38.305179,20.251495 L38.2715564,20.1844988 L36.4423892,19.6812007 C33.1383696,33.0651832 45.7461436,45.1157399 58.4313425,47.1565852 C58.4313425,47.1565852 63.7236511,47.2412479 65.8447654,46.7292598 C67.4087269,46.3518377 68.7598084,45.6217156 70.2035466,44.8971559 C71.6381922,44.1770305 72.8232362,43.0622647 74.2130921,42.3005688 C78.1836743,38.3651191 80.7945892,32.9623899 81.5046778,27.3581962 C82.1998987,20.6381469 81.548927,12.0820795 75.7146566,7.82042407 C73.7937681,6.60286709 71.4258268,6.27571304 69.6700251,4.77014512 C67.5744683,2.45534476 65.1217537,0.101401276 62.0199793,-0.596170283 Z M55.7228334,30.8427577 C55.6640294,30.746342 55.7997259,30.6538407 55.8766582,30.7257404 C57.1045068,31.8746939 58.2911895,33.0704131 59.437717,34.3015672 C59.4982152,34.2824077 59.5669442,34.2640722 59.6555136,34.2424405 C60.0765407,34.1396143 60.4404735,34.5792542 60.2368026,34.9666221 L60.1883362,35.0534156 C59.8819689,35.5746688 59.1776459,36.0335284 58.7583795,35.4051971 C57.6909906,33.9237331 56.6756033,32.4008598 55.7228334,30.8427577 Z M40.5487118,33.5977945 L40.5475706,33.5525314 C40.5241444,33.1048953 40.1602181,31.9758273 40.9000396,32.1488811 C41.7560616,32.6466168 42.0728878,33.9478164 42.1209664,34.872006 C42.1737446,35.8864308 40.4908781,35.8992038 40.5343557,34.872006 C40.5524772,34.4467881 40.5860432,34.0223943 40.5487118,33.5977945 Z M76.0929236,30.4759867 C76.2118043,30.4535309 76.2753128,30.6022747 76.1719693,30.6700541 C74.8152134,31.4319028 74.9288759,32.9677552 74.709967,34.2477351 C73.152046,35.2856458 73.3104927,30.8387816 76.0929236,30.4759867 Z M37.1625573,25.0417477 C50.2276604,26.3586046 64.2820861,30.2570531 77.644249,26.2930913 C78.453944,26.0734778 78.7750904,27.3250275 77.9679228,27.5413448 C64.4989995,30.9535945 50.1971639,28.9152682 37.1625573,25.0417477 Z M72.5962752,19.6473728 C73.0005527,19.5534294 73.3816145,21.5482862 74.005579,21.9195278 C74.3156118,22.5433455 76.7753289,23.0925852 75.7388123,23.8575242 C73.9699065,24.2269116 72.0299179,21.2378195 72.5962752,19.6473728 Z M61.1189716,20.1196448 C61.4224592,20.1136704 61.6303065,20.3462629 61.7296287,20.610788 C62.0006637,21.3876758 60.8404596,21.264066 60.4083338,21.5224106 C58.5802921,22.7807588 56.4691474,23.7955956 54.2228396,23.8426649 C54.0824345,23.8454516 54.0811584,23.6598308 54.1958739,23.6149192 L54.5875828,23.4616121 C55.8232924,22.9756414 57.0140162,22.4776007 58.1506766,21.7582994 C59.0708229,21.176509 59.9561312,20.0936868 61.1189716,20.1196448 Z M54.2164393,6.44491431 C53.9073827,4.2199371 60.9395799,-1.39792434 63.0949068,1.01720602 C63.6520957,1.63896354 62.9211073,2.56212306 62.1859879,2.1696618 C59.1817431,1.38185506 56.3083777,4.65524977 54.2164393,6.44491431 Z" id="ðŸ–-Ink" fill="#000000"></path>
                    </g>
                    <g id="accessories/*-None" transform="translate(9.687023, 49.649954)"></g>
                </g>
            </g>
        </g>
    </g>
</svg>