<?xml version="1.0" encoding="UTF-8"?>
<svg width="280px" height="399px" viewBox="0 0 280 399" version="1.1" xmlns="http://www.w3.org/2000/svg" xmlns:xlink="http://www.w3.org/1999/xlink">
    <!-- Generator: Sketch 62 (91390) - https://sketch.com -->
    <title>sit-mask-5</title>
    <desc>Created with Sketch.</desc>
    <g id="Introduction" stroke="none" stroke-width="1" fill="none" fill-rule="evenodd">
        <g id="poses-covid-19" transform="translate(-560.000000, -482.000000)">
            <g id="a-person/sitting" transform="translate(562.000000, 429.500000)">
                <g id="pose/sitting/hands_back-2" transform="translate(-17.950820, 140.649600)">
                    <path d="M78.5504156,182.777114 C74.1520216,193.723495 68.8871126,206.149015 64.0434939,216.811888 C64.4313203,220.190349 65.8871096,223.645207 64.7480082,227.028525 C69.7682541,223.775037 75.412568,221.732416 81.1738947,220.188362 L81.4978959,222.350436 C82.1392498,222.32968 83.2947508,222.31864 83.9443045,222.309808 C83.8430264,221.449792 83.7060683,219.916557 83.6440161,219.050138 L83.6420216,219.0508 C82.8384454,209.733703 84.3396658,200.194922 86.1730871,191.089572 C86.6203063,187.804288 85.5288522,182.700496 81.372905,182.616372 C80.7550422,182.709991 79.7376075,181.045159 79.3628564,180.72257 L78.5504156,182.777114 Z M136.674062,308.703108 C115.734985,309.872685 103.762231,292.802637 93.6388552,276.832173 C92.5731084,277.535642 91.3923434,278.322352 90.3161806,278.958256 C88.6602729,281.609181 85.2897295,282.412893 82.3799238,282.706778 C72.0087823,283.235152 69.787313,273.956032 67.2125893,265.973892 C66.7221551,266.316573 65.6253822,268.061556 64.800531,267.678688 C60.1432905,266.650202 55.6090464,265.420567 50.671463,265.7277 C45.0045443,264.522352 15.638333,277.409124 18.3486852,266.170624 C19.6723919,261.283216 26.9579869,258.967466 30.7103731,255.593642 C36.1669791,249.408372 34.8381752,241.450519 37.4448115,234.085072 C39.6119851,226.696 42.1441588,219.734839 46.8302092,212.942589 C47.2532723,187.554343 48.2075468,156.4816 54.8039189,133.902813 C59.0097295,118.057101 64.2201211,101.674845 62.2173859,85.0472803 L61.0798358,85.0170307 C60.58231,84.7359523 59.8175164,84.5239843 59.2069669,84.6173827 C58.6919335,84.0501475 57.7372158,84.2225923 57.0373555,83.9929603 C55.7759226,72.2488291 55.2894775,62.1971299 56.8902031,51.5428675 C58.3770185,33.9508483 69.5193804,26.7549763 85.7936821,22.9234339 C103.678461,17.0786371 115.813658,11.1216739 125.080048,-3.41204448 C126.83258,-6.36149088 127.897662,-9.85366368 130.232598,-12.3405341 C136.030713,-19.6521053 152.705695,-18.4467581 157.012119,-10.7481245 C158.892744,-6.24446688 159.054523,-0.98810208 160.485048,3.69396192 C166.108974,23.5800931 191.975218,21.2378467 205.669256,32.1109219 C211.697407,36.5648995 213.639863,43.4414947 214.421278,50.4410755 C215.406135,59.2432675 217.287204,67.7188963 217.045865,76.4674339 C217.67503,76.5862243 219.115085,76.1397667 219.359083,77.0382019 C218.786208,78.9280291 211.442993,78.9214051 209.395048,79.2556963 C212.088779,93.4674883 209.645917,107.738455 211.810874,121.995511 C215.148175,138.013668 221.714629,152.889847 226.871612,168.364615 C228.856396,173.478784 230.185422,178.961028 233.137777,183.618362 L233.08459,183.658989 C233.551533,184.431348 234.063464,185.18273 234.595118,185.906512 C235.142064,186.103024 235.712501,186.423184 236.252577,186.619917 L236.372692,186.418106 L236.664338,186.80826 L237.521102,186.447693 C238.779654,187.074544 240.146575,187.800535 241.489119,188.56384 C257.98969,198.540468 268.787662,208.663927 281.724663,221.199847 L280.008254,222.586912 C280.632987,223.453332 281.389802,224.599946 281.996806,225.513175 C282.503418,225.06738 283.5849,224.317322 284.208081,224.059648 C295.238749,237.124384 296.587498,259.770957 291.215106,273.538058 C289.506232,277.663485 286.80275,281.050336 283.537696,283.903514 C282.189389,285.922951 279.766029,288.712096 276.669402,290.051469 C276.669402,290.051469 276.278916,290.602144 276.265841,290.620692 C276.100516,290.642992 275.086405,290.874832 275.027012,291.110205 C266.784262,292.494842 258.518685,296.109338 249.977198,296.161668 C236.046032,296.040669 224.075273,284.771479 212.901663,277.329194 C205.833694,272.306877 197.597814,268.856877 189.965391,265.499172 C190.534499,268.39386 190.37272,269.386797 187.213819,270.481303 C184.399972,271.597005 181.015024,270.724624 178.397307,269.498743 C178.465564,274.296727 178.849402,279.088087 178.716876,284.205127 C178.715989,290.39945 178.923421,298.015725 172.224219,300.875306 C160.816584,305.352468 147.927009,308.56842 136.674062,308.703108 L136.674062,308.703108 Z" id="âœ‹-Skin" fill="#D08B5B"></path>
                    <path d="M107.591894,15.77616 C107.503248,15.968256 107.558652,16.219968 107.820158,16.27296 C108.241226,16.359072 108.551488,16.586496 108.781967,16.897824 C108.88391,17.414496 109.034608,17.924544 109.238494,18.423552 C109.280601,18.52512 109.333789,18.615648 109.393625,18.695136 C109.495568,19.439232 109.506648,20.200992 109.559836,20.737536 C109.737128,22.556928 110.067335,24.334368 110.568185,26.091936 C111.576533,29.626944 113.156648,33.025056 115.244262,36.05664 C119.437219,42.137472 125.697845,46.780896 132.889253,48.657696 C140.149362,50.549952 148.200638,49.75728 154.727201,45.968352 C160.763995,42.464256 165.442289,36.66384 166.81187,29.766048 C167.540984,26.100768 167.423528,22.369248 166.736521,18.708384 C166.625713,18.121056 166.503825,17.518272 166.366424,16.911072 C170.969369,20.852352 176.873194,23.270112 182.568701,25.135872 L183.177956,25.3341443 C189.071741,27.2407707 195.082047,28.8782112 200.444171,32.073408 C202.999393,33.59472 205.423862,35.489184 207.198998,37.898112 C209.401852,40.887744 210.35258,44.367552 210.948725,47.984256 C211.748755,52.841856 212.331603,57.743616 212.881208,62.634336 C213.156011,65.094048 213.410868,67.558176 213.643564,70.022304 C213.765452,71.327232 213.882908,72.63216 213.9915,73.939296 L214.014712,74.198019 C214.090096,75.0019699 214.188632,75.6641646 214.461324,76.29744 C212.719429,76.76112 210.955373,77.109984 209.178021,77.42352 C207.079326,77.796672 204.942957,78.013056 202.815452,78.143328 C201.718458,78.209568 200.619247,78.231648 199.520036,78.249312 C198.972647,78.258144 198.425258,78.244896 197.877869,78.249312 C197.565392,78.25152 197.310534,78.335424 197.037948,78.390624 C197.281724,70.625088 194.180903,72.9600218 193.553306,81.9536734 L193.505404,82.64544 C192.882665,91.689408 192.228901,100.733376 191.679296,109.783968 L191.633095,110.563762 C191.166032,118.623959 191.032387,126.753897 192.412842,134.738784 C193.108713,138.76176 194.256679,142.663296 195.885549,146.410272 C197.490043,150.104256 199.757165,153.442752 201.603218,157.013088 C203.291925,160.283136 204.490862,163.846848 203.735155,167.339904 C203.473649,168.560928 203.030419,169.768704 202.42541,170.707104 C202.42541,170.813088 202.403248,170.925696 202.350061,171.040512 C201.747268,172.349856 200.30677,173.111616 199.061293,173.701152 C197.727663,174.333131 196.35551,174.886603 195.003981,175.482526 L194.498239,175.708224 C192.233333,176.730528 189.910808,177.525408 187.530662,178.092864 C187.486339,178.110528 187.442016,178.1304 187.395477,178.148064 C183.519429,179.69808 179.550304,181.007424 175.525774,182.122464 C167.37034,184.385664 158.999939,185.831904 150.591864,186.776928 C142.447511,187.69104 134.243321,188.214336 126.052429,188.461632 C118.617243,188.689056 111.064602,188.525664 103.733576,187.17216 C98.4835155,186.202848 93.3243169,184.59984 88.5928355,182.164416 C88.2116576,181.568256 87.6775653,181.058208 87.2299029,180.499584 C87.2853066,179.600928 86.7401336,178.598496 85.9157256,178.280544 C85.5965999,177.571776 85.3461749,176.834304 85.1688828,176.07696 C85.3616879,174.22224 85.6209775,172.376352 85.9999393,170.521632 C86.6637995,167.291083 87.5080161,164.100659 88.3753852,160.919346 L88.7014268,159.72672 C90.7447177,152.261472 92.3780206,144.820512 92.6506072,137.059392 C92.927626,129.198912 92.1342441,121.364928 91.0483303,113.59056 C90.0019748,106.09164 88.7556117,98.6186254 87.4156451,91.1677299 L87.203309,89.991456 C86.4974651,86.090748 83.5001214,80.678112 83.7993018,83.466816 C83.1920765,83.327712 82.5360959,83.409408 81.8269277,83.422656 C80.6634487,83.446944 79.4999696,83.433696 78.3364906,83.44032 L74.8479926,83.454948 L71.3578324,83.471232 C67.3576806,83.488896 63.3420158,83.548512 59.3485124,83.835552 C59.1025197,83.775936 58.8543109,83.71632 58.6038859,83.641248 C57.648725,83.354208 57.3428962,82.674144 57.280844,81.722496 C57.119065,79.33344 57.4625683,76.856064 57.5046752,74.458176 C57.5445659,72.1649472 57.5359894,69.8717184 57.4757145,67.5800992 L57.4537037,66.816288 C57.4027322,65.149248 57.5667274,63.10464 56.6004857,61.656192 C56.6935641,60.335808 56.8065877,59.015424 56.9462052,57.699456 C57.4692168,52.757952 58.3623254,47.794368 59.8981178,43.058208 C61.0084092,39.635808 62.830085,36.496032 65.449575,34.000992 C70.5888282,29.11248 77.6960231,27.178272 84.3356102,25.239648 C92.3602914,22.894752 100.356163,20.006688 107.591894,15.77616 Z M108.637917,15.14688 C108.633485,15.305856 108.633485,15.46704 108.637917,15.626016 C108.436248,15.570816 108.223497,15.539904 107.988585,15.542112 C108.207984,15.414048 108.420735,15.277152 108.637917,15.14688 Z" id="ðŸ‘•-Top" fill="#8FA7DF"></path>
                    <path d="M82.7684227,219.621071 L82.9243655,220.660896 L83.7210309,220.646925 L83.8807947,222.155998 C83.960827,222.911955 84.0513825,223.65506 84.1532711,224.389091 C84.3006594,225.459767 84.4772084,226.540103 84.6823143,227.630261 L84.7719635,228.098073 L84.9639249,229.081919 L84.1781124,229.707669 C83.2978029,230.408669 82.4627221,231.293431 81.4801141,232.484989 C79.8874494,234.419097 78.6506362,236.668624 77.7837887,239.168802 C76.9665296,241.52683 76.5776726,243.999723 76.6485405,246.434692 C76.6843294,247.623268 76.8670928,248.774713 77.1994148,249.903207 C77.2891941,250.205812 77.3824221,250.488652 77.4818937,250.755376 L77.5321628,250.887413 L77.8191307,251.625664 L77.422651,252.311754 C77.2380215,252.631247 77.2208951,252.958989 77.3259145,253.144102 L77.3425778,253.17078 L92.3976549,275.080992 L93.4105707,276.5645 L91.9584146,277.479832 C91.8315594,277.559792 91.6991942,277.647848 91.5470677,277.753128 L91.3878262,277.864486 L90.5626565,278.446831 L89.664245,277.98443 C89.524714,277.912615 89.3453529,277.885706 89.2248611,277.90982 C88.7172101,278.010566 88.3707505,278.177004 87.7843494,278.5806 L87.1801569,279.00401 C86.7481945,279.302108 86.3815764,279.527972 85.9653581,279.738263 C84.9683388,280.242951 83.3325318,280.662335 82.1987575,280.731848 C80.558321,280.830315 79.5228166,280.706087 78.006141,280.226091 C76.7914986,279.8404 75.5437174,279.147534 74.6657833,278.341012 C72.8101073,276.638645 71.7870815,274.666053 70.6032266,271.209009 L70.5476119,271.045869 L70.2187142,270.059396 L69.9011534,269.093181 C68.986905,266.317406 68.4057413,264.833519 67.5643211,263.342722 C66.8908887,262.151776 66.0897199,261.112013 65.214566,260.321146 L65.1455377,260.260433 C64.967023,260.10743 64.7401422,259.942336 64.3796769,259.699178 L63.9963348,259.442711 C62.7041532,258.57789 62.0523702,258.020166 61.5295637,257.099882 C61.0548174,256.265176 60.7958389,255.33211 60.6089373,254.084175 L60.5482143,253.653689 C60.5346332,253.550374 60.5199691,253.432038 60.4969158,253.241211 L60.421392,252.613947 C60.4058632,252.48736 60.3925533,252.382725 60.3797915,252.287515 L60.3608513,252.150204 L60.3433434,252.030288 C60.1482615,250.728451 59.9983677,249.407461 59.8927119,248.066689 L59.8591304,247.619031 L59.8357178,247.275977 L59.809777,246.854604 C59.4174392,240.068652 60.3407504,234.553879 63.2062931,230.108695 C65.1305665,227.125785 67.8198538,224.943718 71.3167364,223.2813 L71.5327456,223.179523 L71.7583837,223.075188 C74.0885342,222.008311 76.3926513,221.282923 80.4112456,220.232048 L80.97963,220.08418 L82.7684227,219.621071 Z M176.456447,259.462394 L179.415921,260.949011 L179.818008,261.147845 C181.654841,262.048229 183.44271,262.813783 186.604686,264.08812 L187.877437,264.599103 L190.97828,265.841344 L188.112909,267.555321 C187.961005,267.646185 187.809496,267.750188 187.592008,267.912182 L187.074802,268.304639 L186.920638,268.419952 C186.774176,268.528359 186.647328,268.618474 186.508671,268.712136 C185.505895,269.385495 184.510389,269.909988 183.512169,270.256878 C182.11703,270.74621 180.66556,270.912294 179.171215,270.781401 L179.010943,270.766241 L177.637187,270.626725 L177.523067,269.255635 C177.354734,267.233198 177.154803,265.238689 176.922454,263.27257 L176.833802,262.536608 L176.456447,259.462394 Z" id="ðŸ‘Ÿ-Shoes" fill="#FFFFFF"></path>
                    <path d="M281.952572,223.725777 C281.555881,223.129617 281.150325,222.540081 280.733689,221.957169 C281.225674,222.489297 281.711011,223.030257 282.183051,223.577841 C282.101054,223.619793 282.023488,223.670577 281.952572,223.725777 M236.049445,185.401521 C235.971879,185.344113 235.88545,185.293329 235.785723,185.253585 C235.555243,185.158641 235.324764,185.059281 235.094284,184.964337 C234.657702,184.361553 234.247714,183.743313 233.86432,183.111825 C234.666567,183.946449 235.479894,184.756785 236.35749,185.516337 C236.255547,185.478801 236.151388,185.441265 236.049445,185.401521 M228.494587,182.180049 C224.753725,180.195057 220.984053,178.263057 217.205516,176.368593 C216.879742,176.205201 216.562833,176.209617 216.294679,176.317809 C214.67024,175.485393 213.036937,174.664017 211.385905,173.884593 C210.381989,173.412081 209.369208,172.966065 208.360859,172.515633 C208.283294,172.400817 208.212377,172.281585 208.152541,172.153521 C207.547532,170.866257 208.121515,169.267665 208.511558,168.002481 C208.611284,167.684529 208.569178,167.408529 208.442857,167.192145 C208.655607,165.344049 208.575826,163.484913 208.210161,161.809041 C207.34143,157.816977 205.19398,154.178193 203.150689,150.687345 C201.051995,147.103761 199.21259,143.504721 198.022517,139.514865 C195.631291,131.506449 195.44735,123.122673 195.62021,114.836049 C195.810799,105.630897 196.344891,96.4279526 196.714988,87.2294246 C196.825796,84.4870886 196.934387,81.7447526 197.023033,79.0002086 C197.238,79.1282726 197.410859,79.2607526 197.732201,79.3556966 C198.255213,79.5080486 198.789305,79.6339046 199.318965,79.7575526 C200.376069,80.0048486 201.448686,80.1770726 202.523519,80.3250086 C204.544648,80.6032166 206.559129,80.7290726 208.597988,80.7003686 C208.848413,80.6959526 209.098838,80.6893286 209.347046,80.6804966 C208.168054,86.6398886 208.243403,92.9503526 208.134812,98.9737766 C208.006275,105.940017 207.664988,112.974705 208.442857,119.916657 C209.202997,126.701841 211.215261,133.180113 213.411467,139.620849 C215.67194,146.249265 217.998898,152.857809 220.195104,159.506097 C221.433932,163.257489 222.677192,167.008881 223.922669,170.758065 C224.521029,172.564209 225.121606,174.370353 225.719967,176.174289 C226.375947,178.150449 226.703938,180.475473 228.366051,181.857681 C228.549991,182.010033 228.756093,182.127057 228.977708,182.208753 C229.015383,182.286033 229.050841,182.361105 229.090732,182.438385 C228.891278,182.352273 228.694041,182.266161 228.494587,182.180049 M203.740185,167.333457 C203.47868,168.554481 203.03545,169.762257 202.43044,170.700657 C202.43044,170.806641 202.408279,170.919249 202.355091,171.034065 C201.752298,172.343409 200.311801,173.105169 199.066324,173.694705 C197.56599,174.405681 196.016901,175.017297 194.50327,175.701777 C192.238364,176.724081 189.915838,177.518961 187.535692,178.086417 C187.491369,178.104081 187.447046,178.123953 187.400507,178.141617 C183.52446,179.691633 179.555334,181.000977 175.530805,182.116017 C167.375371,184.379217 159.00497,185.825457 150.596895,186.770481 C142.452541,187.684593 134.248352,188.207889 126.057459,188.455185 C118.622274,188.682609 111.069633,188.519217 103.738607,187.165713 C98.4885461,186.196401 93.3293476,184.593393 88.5978661,182.157969 C88.2166882,181.561809 87.6825959,181.051761 87.2349335,180.493137 C87.2903373,179.594481 86.7451642,178.592049 85.9207562,178.274097 C85.6016305,177.565329 85.3512055,176.827857 85.1739135,176.070513 C85.3667186,174.215793 85.6260082,172.369905 86.0049699,170.515185 C86.7518127,166.880817 87.7269189,163.297233 88.7064575,159.720273 C90.7497483,152.255025 92.3830513,144.814065 92.6556378,137.052945 C92.9326566,129.192465 92.1392747,121.358481 91.053361,113.584113 C89.9519341,105.690513 88.6288922,97.8256166 87.2083397,89.9850086 C86.4016609,85.5270566 85.623792,81.0602726 84.7705741,76.6089446 C83.9084915,72.1068326 83.2281333,67.5164006 82.1045449,63.0694886 C82.0690865,62.9259686 81.8341746,62.9524646 81.840823,63.1070246 C81.9959536,67.1035046 82.5499912,71.1088166 82.9378175,75.0898406 C83.2104041,77.8829606 83.5051521,80.6716646 83.8043324,83.4603686 C83.1971072,83.3212646 82.5411266,83.4029606 81.8319584,83.4162086 C80.6684794,83.4404966 79.5050003,83.4272486 78.3415213,83.4338726 C76.0167793,83.4427046 73.6898212,83.4537446 71.3628631,83.4647846 C67.3627113,83.4824486 63.3470464,83.5420646 59.3535431,83.8291046 C59.1075504,83.7694886 58.8593415,83.7098726 58.6089165,83.6348006 C57.6537556,83.3477606 57.3479268,82.6676966 57.2858746,81.7160486 C57.1240956,79.3269926 57.467599,76.8496166 57.5097058,74.4517286 C57.5540288,71.9036966 57.5385158,69.3556646 57.4587344,66.8098406 C57.4077629,65.1428006 57.571758,63.0981926 56.6055164,61.6497446 C56.6985947,60.3293606 56.8116184,59.0089766 56.9512359,57.6930086 C57.4742474,52.7515046 58.3673561,47.7879206 59.9031485,43.0517606 C61.0134399,39.6293606 62.8351157,36.4895846 65.4546056,33.9945446 C70.5938588,29.1060326 77.7010537,27.1718246 84.3406409,25.2332006 C92.3653221,22.8883046 100.361193,20.0002406 107.596925,15.7697126 C107.508279,15.9618086 107.563683,16.2135206 107.825189,16.2665126 C108.246257,16.3526246 108.556518,16.5800486 108.786998,16.8913766 C108.888941,17.4080486 109.039639,17.9180966 109.243525,18.4171046 C109.285632,18.5186726 109.338819,18.6092006 109.398655,18.6886886 C109.500598,19.4327846 109.511679,20.1945446 109.564867,20.7310886 C109.742159,22.5504806 110.072365,24.3279206 110.573215,26.0854886 C111.581564,29.6204966 113.161679,33.0186086 115.249293,36.0501926 C119.44225,42.1310246 125.702875,46.7744486 132.894284,48.6512486 C140.154393,50.5435046 148.205668,49.7508326 154.732232,45.9619046 C160.769026,42.4578086 165.44732,36.6573926 166.816901,29.7596006 C167.546014,26.0943206 167.428558,22.3628006 166.741552,18.7019366 C166.630744,18.1146086 166.508856,17.5118246 166.371454,16.9046246 C170.974399,20.8459046 176.878224,23.2636646 182.573731,25.1294246 C188.661497,27.1232486 194.902177,28.7615846 200.449202,32.0669606 C203.004423,33.5882726 205.428892,35.4827366 207.204029,37.8916646 C209.406883,40.8812966 210.357611,44.3611046 210.953756,47.9778086 C211.753786,52.8354086 212.336634,57.7371686 212.886239,62.6278886 C213.161042,65.0876006 213.415899,67.5517286 213.648595,70.0158566 C213.770483,71.3207846 213.887939,72.6257126 213.99653,73.9328486 C214.076312,74.8557926 214.164958,75.5910566 214.466354,76.2909926 C212.72446,76.7546726 210.960404,77.1035366 209.183051,77.4170726 C207.084357,77.7902246 204.947988,78.0066086 202.820483,78.1368806 C201.723488,78.2031206 200.624278,78.2252006 199.525067,78.2428646 C198.977678,78.2516966 198.430289,78.2384486 197.8829,78.2428646 C197.570422,78.2450726 197.315565,78.3289766 197.042978,78.3841766 C197.286755,70.6186406 197.366536,62.8464806 196.894496,55.0919846 C196.883416,54.8954726 196.56429,54.8248166 196.528832,55.0434086 C194.968662,64.1624486 194.144253,73.4161766 193.510434,82.6389926 C192.887696,91.6829606 192.233932,100.726929 191.684326,109.777521 C191.18126,118.092849 190.992887,126.489873 192.417872,134.732337 C193.113743,138.755313 194.261709,142.656849 195.89058,146.403825 C197.495073,150.097809 199.762195,153.436305 201.608249,157.006641 C203.296955,160.276689 204.495893,163.840401 203.740185,167.333457 M192.173652,251.227079 C188.880896,250.27521 185.773188,248.909121 182.705592,247.391783 C179.746366,245.927879 176.608297,244.36881 174.100501,242.207399 C174.046427,242.16081 174.103825,242.062333 174.171418,242.086401 C177.263613,243.186647 180.19425,244.819242 183.206664,246.134548 C186.33609,247.500858 189.536876,248.696711 192.678048,250.035421 C193.373476,250.331735 192.865313,251.426903 192.173652,251.227079 M185.581048,267.342609 C184.772153,267.885777 183.883476,268.378161 182.961558,268.698541 C181.709433,269.137713 180.441794,269.250541 179.180805,269.122477 C178.992432,266.859277 178.761952,264.596077 178.484934,262.339281 C181.323822,263.765649 184.293464,264.951345 187.258674,266.139249 C186.671394,266.490541 186.166111,266.947377 185.581048,267.342609 M173.951576,255.681719 C173.866697,256.596052 172.643604,256.575738 172.53878,255.681719 C172.063637,251.635338 171.825844,247.555617 171.417851,243.501287 C170.694721,236.311818 169.498443,229.23562 167.853394,222.199828 C167.438088,220.42305 167.00483,218.651793 166.525699,216.890913 C166.277268,215.977905 165.432693,214.374455 166.000914,213.440692 C166.699888,212.291869 167.666351,213.917399 166.920173,214.009914 C166.844159,214.019188 166.844824,213.910996 166.903552,213.887812 C166.323364,214.117665 166.726482,214.637869 166.878731,215.049441 C167.025219,215.445335 167.175696,215.839905 167.321297,216.236241 C167.612277,217.02825 167.896166,217.822909 168.172077,218.620218 C168.769773,220.346653 169.330459,222.082362 169.826433,223.840372 C170.795999,227.278449 171.648331,230.757373 172.30409,234.268756 C173.611618,241.269882 174.611989,248.552087 173.951576,255.681719 M90.4284065,276.516849 C89.9607987,276.276177 89.3978965,276.190065 88.9014787,276.289425 C87.2659596,276.614001 86.6166275,277.556817 85.2138042,278.265585 C84.3893962,278.682897 82.9644114,279.029553 82.1001126,279.082545 C80.6618309,279.168877 79.8307744,279.069297 78.5121648,278.651985 C77.5525716,278.347281 76.5065486,277.782033 75.7929481,277.126477 C73.893707,275.384145 72.9562753,272.973009 72.1252189,270.524337 C71.2099487,267.823953 70.4232152,265.030833 69.0137435,262.533585 C68.3045753,261.279441 67.4048182,260.067249 66.3322013,259.097937 C65.312772,258.177201 63.6706044,257.508177 62.9769493,256.287153 C62.2611327,255.028593 62.2012966,253.204785 61.9885461,251.789457 C61.7757957,250.369713 61.6206651,248.941137 61.5187222,247.510353 C61.1220313,241.941777 61.4943446,235.834449 64.60582,231.007761 C68.5128934,224.951217 75.5868461,223.193649 82.1444356,221.497905 C82.2441624,222.540081 82.3638345,223.580049 82.5078843,224.617809 C82.6829602,225.889617 82.8957107,227.157009 83.1417034,228.417777 C81.9604951,229.358385 80.9211205,230.559537 80.1964393,231.438321 C78.4345996,233.577873 77.1204223,236.017713 76.2140167,238.631985 C75.3408534,241.151313 74.9109202,243.822993 74.9884854,246.488049 C75.0283761,247.812849 75.232262,249.104529 75.6067914,250.376337 C75.7109505,250.727409 75.8350549,251.107185 75.983537,251.489169 C75.5203616,252.290673 75.4339317,253.326225 75.9724563,254.110065 C80.7837192,261.111633 85.5949821,268.111213 90.406245,275.112561 C90.62786,275.434929 90.8494751,275.759505 91.0710902,276.084081 C90.8539074,276.220977 90.641157,276.366705 90.4284065,276.516849 M82.1111934,221.142417 C81.7765546,221.146833 81.4419159,221.155665 81.105061,221.164497 C81.4330513,221.073969 81.7610416,220.983441 82.0890319,220.892913 C82.0956803,220.976817 82.1023288,221.058513 82.1111934,221.142417 M81.9183883,218.649585 C78.9376658,219.462129 75.9613755,220.298961 73.0737313,221.400753 C71.3850246,222.045489 69.3927052,222.738801 67.7039985,223.756689 C67.2053646,223.992945 66.7200276,224.249073 66.2457714,224.529489 C66.3122559,224.180625 66.3100398,223.811889 66.225826,223.440945 C65.8357835,221.703249 65.5454678,219.945681 65.2196937,218.194737 C65.1842353,218.007057 65.1421284,217.627281 65.0712116,217.190097 C65.3903373,216.613809 65.6296815,215.986737 65.9000519,215.361873 C66.3920373,214.229169 66.8840228,213.094257 67.3782243,211.961553 C68.3045753,209.826417 69.2309262,207.691281 70.1572772,205.558353 C72.0565182,201.184305 73.9468947,196.799217 75.7685704,192.392049 C77.0029663,189.402417 78.2395783,186.410577 79.4296512,183.401073 C79.7598576,183.787473 80.2717884,184.052433 80.9676597,184.078929 C84.3251278,184.198161 84.7705741,188.622993 84.4935553,191.080497 C84.2830209,192.950673 83.7799548,194.789937 83.4275868,196.638033 C83.0685704,198.525873 82.7716063,200.422545 82.5145328,202.325841 C81.7898515,207.737649 81.5815334,213.209073 81.9183883,218.649585 M53.8131667,262.621905 C49.7465304,262.385649 45.6510841,262.774477 41.6797423,263.666289 C37.8413695,264.527409 34.111588,265.814673 30.2687829,266.671377 C28.3961357,267.088689 26.501327,267.375729 24.5777083,267.419889 C23.6535735,267.439761 22.7205741,267.415473 21.8008716,267.311697 C21.6856318,267.298449 21.5393658,267.258705 21.3908837,267.221169 C21.6546056,266.415249 22.1266457,265.737613 22.8025716,265.059537 C23.7422195,264.116941 24.5333852,263.595633 25.7012966,262.849329 C28.0526324,261.347889 30.5014787,259.987761 32.4494751,257.956401 C34.9426445,255.353169 36.1238528,252.014673 36.7399426,248.528241 C37.4003555,244.792305 37.8258564,241.016625 38.4596755,237.276273 C38.9804709,234.187281 39.5788315,231.098289 40.3123774,228.046833 C41.1722438,225.359697 42.293616,222.758673 43.5679026,220.228305 C44.545225,218.289681 45.6267064,216.412881 46.6815941,214.518417 C47.563622,215.333169 48.8800155,215.183025 49.6268582,214.129809 C49.9725777,213.641841 50.3825656,213.169329 50.5443446,212.582001 C50.6994751,212.023377 50.6485036,211.378641 50.6529359,210.806769 C50.6618005,209.731473 50.6706651,208.656177 50.6795298,207.578673 C50.6994751,205.355217 50.7238528,203.129553 50.7548789,200.906097 C50.8147149,196.600497 50.903361,192.294897 51.0496269,187.989297 C51.3443749,179.331729 51.816415,170.678577 52.7959536,162.067377 C54.7173561,145.160721 59.5973197,128.786193 61.7004466,111.908241 C61.9597362,109.832721 62.1857835,107.732913 62.3519948,105.617649 C63.267265,99.1283366 63.4246117,92.5418726 62.8085219,86.0039846 C69.9511752,85.9421606 77.0916123,86.2998566 84.1943749,87.0748646 C85.0520252,95.0258726 86.0315638,102.954801 87.0443446,110.883729 C88.03718,118.640433 88.8881818,126.463377 88.7973197,134.292945 C88.7529967,138.145905 88.4892747,142.007697 87.8532395,145.809873 C87.2393658,149.483985 86.3063664,153.094065 85.313531,156.682065 C84.3162632,160.278897 83.2436463,163.858065 82.3638345,167.485809 C81.0297119,170.819889 79.5781333,174.105393 78.0844478,177.371025 C74.3169918,185.609073 70.4209991,193.785297 66.7311084,202.058673 C65.6673561,204.447729 64.6146846,206.841201 63.5553646,209.232465 C63.0257046,210.429201 62.4960446,211.625937 61.9663846,212.820465 C61.3702401,214.167345 60.5990197,215.481105 60.6056682,216.986961 C60.6101005,217.885617 61.1464089,218.536977 61.8444964,218.826225 C61.5475322,220.563921 61.4500216,222.325905 61.4300762,224.087889 C61.4189954,225.138897 62.1126506,226.004433 63.0301369,226.342257 C63.0279208,226.569681 63.0212723,226.794897 63.0101916,227.022321 C62.9968947,227.035569 62.9835978,227.048817 62.9703009,227.059857 C58.1546056,231.913041 56.8448607,238.949937 56.8847514,245.531985 C56.9046967,248.974257 57.2570647,252.445233 57.8465607,255.834513 C58.2077933,257.914449 59.1186311,259.630065 60.7896087,260.946033 C61.9708169,261.875601 63.3138042,262.774477 64.0828084,263.904753 C64.2401551,264.138801 64.3886372,264.375277 64.5304709,264.615729 C61.2284065,263.235729 57.2858746,262.822833 53.8131667,262.621905 M108.642948,15.1404326 C108.638516,15.2994086 108.638516,15.4605926 108.642948,15.6195686 C108.441278,15.5643686 108.228528,15.5334566 107.993616,15.5356646 C108.213015,15.4076006 108.425765,15.2707046 108.642948,15.1404326 M291.634934,234.779025 C290.039305,230.563953 287.652511,226.759569 284.80919,223.273137 C281.948139,219.764625 278.668236,216.624849 275.310768,213.593265 C271.76936,210.396081 268.179196,207.245265 264.55579,204.140817 C257.422001,198.029073 249.980167,192.177873 241.787059,187.549905 C241.784842,187.545489 241.782626,187.541073 241.778194,187.536657 C241.764897,187.530033 241.7516,187.525617 241.736087,187.518993 C240.404181,186.768273 239.052329,186.044049 237.678315,185.361777 C237.343677,185.196177 237.022335,185.207217 236.749748,185.322033 C236.7431,185.313201 236.738668,185.302161 236.729803,185.295537 C235.748048,184.379217 234.715322,183.562257 233.647138,182.749713 C232.762893,181.241649 232.022699,179.654097 231.457581,177.982641 C231.402177,177.819249 231.313531,177.686769 231.209372,177.574161 C230.987757,176.969169 230.739548,176.368593 230.520149,175.765809 C229.921788,174.112017 229.336725,172.453809 228.745012,170.797809 C227.561588,167.485809 226.38038,164.171601 225.192523,160.861809 C222.819026,154.244433 220.538607,147.593937 218.238243,140.950065 C216.077496,134.710257 213.861345,128.443953 212.764351,121.914897 C211.627465,115.158417 211.886755,108.205425 211.795893,101.382705 C211.744921,97.4436326 211.720544,93.4935206 211.516658,89.5610726 C211.361527,86.5537766 211.162074,83.5553126 210.614685,80.6076326 C212.159342,80.4950246 213.69735,80.2896806 215.222062,80.0269286 C216.899688,79.7354726 220.403422,79.5235046 220.330289,77.1344486 C220.301479,76.2335846 219.61004,75.6065126 218.772335,75.3768806 C218.577314,75.3216806 218.380076,75.2996006 218.180623,75.2973926 C218.357915,73.7915366 217.987818,72.1576166 217.843768,70.6694246 C217.626585,68.4216806 217.391673,66.1739366 217.136816,63.9306086 C216.624885,59.4086246 216.035389,54.8932646 215.379408,50.3889446 C214.783264,46.2997286 214.173822,42.1862246 212.254636,38.4657446 C210.796409,35.6372966 208.63123,33.1753766 206.135844,31.2102566 C195.759827,23.0384486 181.724946,22.8353126 170.817053,15.7211366 C167.995893,13.8796646 165.471697,11.5767206 163.647805,8.73281664 C162.606215,7.10552064 161.908127,5.35236864 161.411709,3.49102464 C161.090368,2.28987264 160.788971,1.11521664 160.403361,-0.06606336 C160.024399,-1.22084736 159.918024,-2.16807936 159.202207,-3.18596736 C159.124642,-3.29636736 158.958431,-3.25662336 158.949566,-3.11972736 C158.880866,-2.06871936 159.071454,-1.14577536 159.124642,-0.09918336 C159.17783,0.99156864 159.142371,2.06686464 159.253179,3.16424064 C159.279773,3.44024064 159.313015,3.71624064 159.346257,3.99003264 C159.308583,4.05627264 159.277556,4.12913664 159.253179,4.20862464 C158.74568,5.82046464 159.022699,7.56699264 159.884782,8.96024064 C159.873701,9.10596864 159.884782,9.25390464 159.924672,9.40184064 C160.359038,11.0114726 161.147988,12.4996646 161.737484,14.0607206 C162.295954,15.5422886 162.77021,17.0569766 163.138091,18.5981606 C163.831746,21.5060966 164.102116,24.4957286 163.811801,27.4765286 C163.186846,33.8664806 159.381716,39.3114086 154.05409,42.7801766 C148.139184,46.6309286 140.637514,47.5892006 133.829499,45.9199526 C126.8863,44.2175846 121.144253,39.8015846 117.088698,34.0144166 C114.834873,30.7995686 113.110708,27.1894886 112.035875,23.4182246 C111.623671,21.9719846 111.379894,20.4528806 110.985419,18.9956006 C111.371029,18.7858406 111.603725,18.3729446 111.379894,17.8297766 C110.79483,16.4078246 110.701752,15.0057446 111.133901,13.5484646 C115.072001,10.8900326 118.730866,7.78116864 121.848989,4.19979264 C124.949384,0.63828864 128.162802,-3.68718336 129.501357,-8.26215936 C130.026585,-10.0594714 127.320665,-11.2606234 126.42534,-9.55383936 C125.445802,-7.68807936 124.643555,-5.76491136 123.573155,-3.94110336 C122.498321,-2.10404736 121.268358,-0.35972736 119.905425,1.27640064 C117.192857,4.53540864 114.039275,7.44555264 110.595377,9.92734464 C102.916415,15.4605926 94.0407319,19.0154726 85.0409444,21.7953446 C78.0711509,23.9481446 70.7800155,25.8249446 64.9936463,30.4882406 C58.6133488,35.6306726 56.4171436,43.7163686 55.2182061,51.4796966 C54.7107077,54.7629926 54.4159596,58.0661606 54.2829906,61.3803686 C54.1433731,61.6453286 54.1101308,61.9566566 54.2519645,62.2481126 C54.0547271,68.4658406 54.4137435,74.7100646 55.009888,80.9012966 C55.0076718,81.5570726 55.0564271,82.2040166 55.2026931,82.8178406 C55.2736099,83.5001126 55.3467429,84.1823846 55.422092,84.8624486 C55.4398212,85.0346726 55.5240349,85.1516966 55.6880301,85.2113126 C56.3174168,85.4365286 56.9468036,85.5712166 57.5828388,85.6131686 C57.6914302,85.6507046 57.8022377,85.6838246 57.9130452,85.7147366 C58.0903373,85.9421606 58.3695723,86.0945126 58.7529663,86.0834726 C58.9723652,86.0768486 59.1917641,86.0724326 59.4089469,86.0658086 C59.6593719,86.1364646 59.9031485,86.2225766 60.1336281,86.3440166 C60.3064879,86.4345446 60.4771315,86.4742886 60.6389104,86.4787046 C60.9181454,89.6383526 61.015656,92.8068326 60.9336585,95.9664806 C60.6876658,100.415601 60.1358443,104.844849 59.2648971,109.280721 C57.6493233,117.512145 55.3024199,125.597841 53.1594022,133.703409 C48.7359657,150.420177 46.6904587,167.521137 45.899293,184.765617 C45.6754617,189.638673 45.5690865,194.520561 45.4893051,199.398033 C45.4494144,201.767217 45.4206044,204.134193 45.3962268,206.503377 C45.385146,207.722193 45.3740653,208.941009 45.3629845,210.162033 C45.3563361,210.731697 45.3164454,211.314609 45.3541199,211.882065 C45.3629845,212.023377 45.3829299,212.153649 45.4073075,212.281713 C45.4050914,212.286129 45.4028752,212.290545 45.4006591,212.297169 C43.0825656,215.443569 41.3162936,219.073521 39.7694205,222.643857 C38.1870889,226.291473 36.8418855,230.040657 35.8025109,233.878161 C34.7609202,237.722289 34.0052128,241.603953 33.2783154,245.516529 C32.6710902,248.777745 31.9663543,252.392241 29.4399426,254.768049 C27.531837,256.560945 24.8724563,257.768941 22.6186311,259.224013 C20.0478965,260.884209 17.745316,262.913361 16.7325352,265.880913 C16.0277993,267.938769 16.3690865,270.299341 18.4567004,271.376625 C20.2539985,272.303985 22.8025716,272.233329 24.7771618,272.142801 C28.9501733,271.948497 33.0101612,270.822417 37.0080968,269.692141 C41.4027234,268.448817 45.7574593,267.313905 50.3493233,267.190477 C52.6496876,267.128433 54.9744296,267.236625 57.2482001,267.594541 C59.6106166,267.963277 61.8755225,268.749105 64.2268582,269.124465 C65.0091594,269.252529 65.7914605,269.086929 66.3122559,268.557009 C67.8081576,272.769873 68.6658078,277.360305 72.0941928,280.608273 C74.731412,283.103313 78.4811387,284.377329 82.1001126,284.167569 C84.0525413,284.052753 85.9052432,283.578033 87.6648667,282.725745 C88.5070039,282.317265 89.2671436,281.789553 89.9962571,281.204433 C90.4439196,280.846737 90.7563968,280.460337 90.9735795,280.031985 C91.6295601,279.634545 92.2766761,279.224077 92.9149274,278.802129 C96.5250367,284.149905 100.112985,289.541841 104.144162,294.569677 C108.705,300.257265 114.212134,304.909741 121.075553,307.563537 C127.47358,310.036497 134.551964,310.524465 141.340034,309.948177 C148.502632,309.338769 155.541127,307.715889 162.408977,305.644785 C165.764229,304.633741 169.248018,303.699537 172.43041,302.213553 C175.827769,300.628209 178.179105,297.837297 178.976919,294.163185 C179.761436,290.550897 179.668358,286.689105 179.694952,283.012785 C179.721546,279.219441 179.628467,275.417265 179.371394,271.632753 C179.369178,271.621713 179.369178,271.612881 179.369178,271.601841 C180.619087,272.105265 181.977587,272.372433 183.318358,272.440881 C184.665777,272.509329 186.066385,272.339313 187.32959,271.857969 C188.836573,271.286097 190.919754,270.343281 191.194557,268.557009 C191.236664,268.296465 191.23888,268.020465 191.205638,267.748881 C192.123124,268.135281 193.036178,268.532941 193.935935,268.950033 C196.754879,270.252753 199.564958,271.581969 202.330714,272.992881 C203.713592,273.697233 205.072092,274.472241 206.477131,275.132433 C206.853877,275.309073 207.232839,275.505585 207.616233,275.704305 C209.014624,276.633873 210.399718,277.583313 211.778164,278.550417 C215.676372,281.286129 219.528042,284.085873 223.44398,286.792881 C227.470726,289.577169 231.575037,292.326129 236.04058,294.366541 C240.62358,296.461713 245.494679,297.795345 250.571879,297.607665 C255.990368,297.408945 261.271454,295.883217 266.488273,294.542961 C269.094466,293.876145 271.700659,293.207341 274.306852,292.538097 C274.670301,292.699281 275.111315,292.675213 275.479196,292.315089 C275.514654,292.279761 275.550113,292.244433 275.585571,292.209105 C275.9601,292.114161 276.33463,292.017009 276.709159,291.922065 C276.873155,291.696849 277.032717,291.467217 277.194496,291.240013 C280.059979,289.892913 282.46007,287.470737 284.281746,284.783601 C284.419147,284.666577 284.558765,284.553969 284.69395,284.434737 C287.916233,281.617329 290.407186,278.122065 292.08038,274.194033 C295.424551,266.342385 295.610708,257.464017 294.69987,249.100113 C294.17021,244.246929 293.370179,239.362833 291.634934,234.779025 Z" id="ðŸ–-Ink" fill="#000000"></path>
                </g>
                <g id="Head" stroke-width="1" transform="translate(76.457195, 39.744000)">
                    <g id="head/Medium-2">
                        <path d="M86.6511615,37.0001846 C80.0045434,27.8665718 67.7665885,25.239935 57.1537889,27.4614038 C36.4058781,31.2375254 16.5833509,47.041727 12.9173235,68.5352822 C7.19785331,81.538415 10.8502072,102.019602 27.4839545,103.549746 C29.8521071,103.683109 32.1977648,103.138837 34.5701077,103.432722 C49.048964,105.741849 66.1584148,115.626623 78.9750652,103.969487 C79.6174967,104.428972 80.4637066,104.651097 81.1839884,104.373109 C86.6392524,102.268223 86.8955192,96.1792214 87.3606369,91.1739062 C87.9613864,84.7064534 88.5248647,78.2354678 89.0504102,71.7618326 C89.2380893,60.597743 93.6702707,46.6469366 86.6511615,37.0001846 L86.6511615,37.0001846 Z" id="âœ‹-Skin" fill="#D08B5B"></path>
                        <path d="M46.4255864,13.7263632 C55.1609132,13.2626832 71.2562505,17.2573968 78.8769939,21.9407856 C91.2937635,29.5714128 92.2561974,44.7929232 91.7497696,47.4248592 C91.5573713,48.4292784 90.9425812,49.3588464 89.9805895,49.0499472 C90.7966238,55.9651824 90.7324911,59.9177232 90.8696025,66.8729232 L90.963795,71.5164208 C91.0248972,74.612184 91.0774812,77.7082416 91.09075,80.8051824 C91.4047795,80.6883792 91.714386,80.8316784 91.8293827,81.1321872 C91.8581319,81.2050512 91.7586155,81.2447952 91.7099631,81.2028432 C91.1570943,80.7212784 91.5507369,81.8186544 91.7409237,82.0418832 C92.0040893,82.3487952 92.4419614,82.6380432 92.7493564,82.9007952 L93.5841883,83.6224524 L93.5841883,83.6224524 L94.4190201,84.3426192 C95.4974829,85.2716352 96.5406388,86.2025065 97.5467844,87.2032621 L97.8202689,87.4779792 C99.6535818,89.3371152 101.951305,91.1364144 103.092426,93.5411472 C104.182683,95.8372464 103.846539,98.4404784 102.035341,100.27091 C101.376321,100.935518 100.606728,101.443579 99.77079,101.827771 C101.259113,104.274235 101.475837,107.508955 99.9233818,110.025854 C98.3687148,112.552027 95.3788004,113.874619 92.4994597,113.671483 C92.4110007,114.031387 92.2738892,114.382459 92.0925483,114.715646 C90.950775,116.810549 88.6797114,117.08249 86.526075,116.970378 L86.4422293,116.965819 C81.5946757,116.68739 76.9306746,115.475419 72.6846423,113.119483 C71.2117999,113.218843 69.8981836,112.010846 69.6106919,110.686046 C68.8366756,110.657563 68.0582363,110.59331 67.2643167,110.502782 C64.9090957,110.231419 62.4941648,109.725787 60.4175897,108.531259 C60.0991372,108.347995 60.2473061,107.864443 60.6011421,107.85539 C63.1310697,107.797982 65.6632087,107.972635 68.1887133,107.698843 C70.5063393,107.449118 72.9765571,106.811227 75.1371683,105.943483 C79.0205186,104.380219 82.3510002,101.728411 84.1887361,98.0540784 C86.5682833,93.2980464 86.3515588,87.5861712 86.6103014,82.4194512 C86.8969086,76.7002896 87.2497936,70.9864934 87.6270403,65.2732338 L87.810105,62.5346235 C88.1764998,57.1966295 88.4797469,54.3409954 89.4078174,48.8004432 C86.6103014,49.0499472 74.9892614,44.8738616 71.375449,38.0428464 C64.5165292,52.5747473 29.7663049,46.6274392 28.2251458,68.9992272 C28.2120767,69.1889417 27.9111164,69.1361232 27.900059,68.9548464 L27.8713917,68.4449865 C27.8575086,68.1930414 27.8449155,67.9451076 27.8363767,67.6990873 L27.8292918,67.4536272 L27.2830574,67.4602512 C27.2830574,67.5284784 27.1857525,67.5529872 27.1614263,67.4801232 C26.6461526,66.0204144 24.1914152,66.4907184 23.1232727,66.8375952 C22.161281,67.1509104 21.2545762,67.6322544 20.4407533,68.2264272 C18.8064732,69.4187472 17.5392979,71.0239632 17.1191176,73.0308144 C16.3207751,76.8420432 18.7511863,80.7237072 21.9777285,82.5629712 C24.0122857,83.7221712 26.2414526,84.4706832 28.1919737,85.7844432 C29.9147129,86.9436432 31.5202438,88.3015632 32.9112617,89.8449552 C38.4222578,95.9589072 41.6642804,105.232507 39.0569511,113.302747 C38.8579184,113.918779 38.3315873,114.62291 37.6349726,114.722491 C36.4827941,114.888091 35.3306155,114.720283 34.6848648,113.625115 C34.4327566,113.196763 34.3133369,112.708795 34.3398746,112.227451 C33.8931567,113.759582 32.4446404,115.274491 31.1089094,115.844155 C29.2888654,116.621371 27.2388279,116.38931 25.633297,115.386878 L25.4304585,115.536707 C22.8194516,117.455527 19.902721,119.204396 16.5574029,118.851451 C14.1336262,118.595323 11.7540789,117.363259 10.413925,115.420219 C8.63147598,116.420443 6.72739588,117.21731 4.76360594,117.760478 L4.55460986,117.817797 C1.85278056,118.552274 -1.59354533,119.225604 -4.1154668,117.733982 C-6.5370321,116.30099 -7.34200905,113.172254 -6.77365994,110.56019 C-6.70510421,110.249083 -6.61885668,109.946587 -6.51270587,109.652923 C-8.3349614,109.749854 -10.1550054,109.575643 -11.884379,109.041307 C-13.6513477,108.49571 -15.3364917,107.44691 -16.1834867,105.746971 C-17.138844,103.823582 -16.8845243,101.637883 -16.1724293,99.6793872 C-15.0335196,96.5371824 -13.2024182,93.7418544 -10.9223873,91.3066512 C-8.72979936,88.9628294 -6.08500431,86.974352 -3.33632385,85.3168138 L-2.87294587,85.0399573 C-0.398650195,83.5665309 2.58523487,81.8399259 5.50887307,81.9535632 C5.50002717,81.9160272 5.49339274,81.8804784 5.48896979,81.8431632 C5.04667476,78.5907792 5.09753869,75.2743632 4.99359936,71.9954832 C4.89850592,68.9793552 4.79014364,65.9632272 4.71937644,62.9448912 C4.60437973,57.8132784 4.64197481,52.6600272 5.31205178,47.5639632 C5.90693859,43.0419792 6.97729257,38.6323824 8.93002513,34.4923824 C10.9800626,30.1428432 14.0672819,26.4311952 17.8798651,23.5122192 C25.8809822,17.3850192 36.4496219,14.2562832 46.4255864,13.7263632 Z M19.2487461,73.9980509 C20.1200673,72.3575069 22.1037605,71.8408349 23.8441915,72.1367069 C26.2834485,72.5518109 27.9420549,74.6805437 29.3662449,76.5109757 C30.8612021,78.4295069 27.7430221,80.2378589 26.9402567,78.3789437 L26.7500532,77.9397506 C26.1058177,76.4655 25.3447779,74.9109585 24.0299554,73.9494749 C22.6323031,72.9293789 20.6596672,72.7792349 19.4256641,74.1349469 C19.3372051,74.2343069 19.1890363,74.1062429 19.2487461,73.9980509 Z" id="ðŸ–-Ink" fill="#000000"></path>
                    </g>
                    <g id="face/Eyes-Closed" transform="translate(35.236794, 41.068800)" fill="#000000">
                        <path d="M40.3879924,49.8931162 L40.5412765,49.8577921 C41.765619,49.5701607 42.9437459,49.1789695 44.0840883,49.9348474 C45.170667,50.6548762 45.3215868,51.9867418 44.4750173,52.9582618 C43.6049114,53.9571069 42.4489879,53.9012148 41.2291096,53.9149144 L41.152786,53.9158714 C40.1397835,53.9297818 39.1099384,53.9147674 38.100925,53.8253434 C37.1603021,53.741881 36.2135758,53.60852 35.2836875,53.4334695 L34.7338166,53.3260749 C34.1719774,53.2127993 33.618622,53.0654602 33.3291096,52.5237274 C32.8242705,51.5793658 36.5766566,50.838361 37.0325188,50.7087514 C38.1388212,50.3941114 39.2659554,50.1463738 40.3879924,49.8931162 Z M42.4690228,38.5063368 C41.8708623,39.1244324 41.0807811,39.5465505 40.1938604,39.8092976 C37.964798,40.4696494 35.120584,40.1178814 33.2999752,39.4449887 C32.9222844,39.3054125 32.5693106,39.0208905 32.366505,38.665094 C32.1812572,38.3401003 32.1185545,37.957898 32.2595546,37.5680958 C32.2997115,37.4573725 32.3485443,37.3486599 32.3976018,37.241596 C32.5311573,36.9503414 32.8033407,36.7237533 33.1230385,36.5941736 C33.4550551,36.4596009 33.8326111,36.4321323 34.1354128,36.5270019 C34.1760904,36.5397477 34.217814,36.5528516 34.2605316,36.5662677 C35.4140571,36.9285506 37.3060253,37.5285025 38.8734748,37.4122224 C39.8140119,37.3424493 40.6413018,37.0113725 41.0691821,36.1538439 C41.2946747,35.7016807 41.2322223,35.2544865 41.032219,34.8450501 C40.7306682,34.2277311 40.1266615,33.6905768 39.6177815,33.32044 C38.900458,32.7985388 38.1353669,32.5901864 37.3440243,32.3702051 C37.0458409,32.2873146 36.743829,32.2032767 36.4389928,32.1027288 C36.3385418,32.0696893 36.2504852,32.0047776 36.1845499,31.9203955 C36.1194274,31.8370537 36.0766822,31.7352838 36.0632832,31.633174 C36.0494073,31.5274304 36.0665511,31.4219813 36.1157407,31.3310963 C36.1613692,31.2467912 36.2343445,31.1727453 36.3433935,31.1241011 C37.891635,30.4330117 39.8940468,30.8896809 41.4054263,31.9769038 C42.1607947,32.5202841 42.7908271,33.2183102 43.1791482,33.9983114 C43.539527,34.7221862 43.6926381,35.516396 43.5514466,36.3263139 C43.3933573,37.2330319 43.0081631,37.9492282 42.4690228,38.5063368 Z M17.0945434,23.0857219 C17.5295738,22.8947299 17.8870389,23.7887491 17.9765713,24.0325123 L18.1617338,24.5382318 C18.4637801,25.3536511 18.8105241,26.1826703 19.4456576,26.7878755 C19.9773121,27.2946115 20.8292004,27.7240675 21.4459551,27.1312195 C22.0310188,26.5688419 21.7458002,25.9353667 21.8320085,25.2453667 C21.9875823,23.9974051 23.6955695,22.7501059 24.7225337,24.0523843 C27.0424001,26.9947651 23.4531226,31.0866307 20.1470692,30.3688099 C18.4656987,30.0036105 17.112236,28.6604382 16.5561794,27.0631652 L16.5276521,26.9788675 C16.1947863,25.9669411 15.858153,23.6291107 17.0945434,23.0857219 Z M47.0311316,25.1349188 L47.0151026,25.0976074 C45.9101299,22.5935146 49.8517753,21.5173354 50.1859709,23.7657418 L50.2071241,23.917448 C50.5322047,26.4134292 49.8472189,29.7699562 46.778861,30.0187978 C43.3345197,30.2983306 41.9002271,26.4694378 42.2078288,23.6597578 C42.2630109,23.1567754 42.8755549,23.0872234 43.0648142,23.5442794 L43.1050846,23.6440276 C43.6612006,25.0560668 44.189302,27.7716486 46.1488094,27.7688458 C47.457975,27.7668869 47.3954985,26.006158 47.0311316,25.1349188 L47.0311316,25.1349188 Z M49.5301233,17.8859923 C51.5100322,17.8159987 51.5073728,20.9032243 49.5301233,20.9495923 C42.9255513,21.1043731 36.3158822,21.3101587 29.7093157,21.3454867 L28.5085081,21.3527948 C22.3028766,21.3942274 16.0759402,21.4787094 9.8885082,20.9597491 C9.36039951,20.9155891 9.45857498,20.1767923 9.89981056,20.2066003 C16.3867049,19.2867475 22.9527158,19.0178131 29.4890304,18.6682867 C36.1634111,18.3112531 42.8506454,18.1222483 49.5301233,17.8859923 Z" id="ðŸ–-Ink"></path>
                    </g>
                    <g id="facial-hair/*-None" transform="translate(27.258652, 74.630400)"></g>
                    <g id="mask/medical-mask" transform="translate(4.875531, 62.044800)">
                        <path d="M87.1517614,15.534649 C86.734017,10.2612826 80.0600795,8.02744896 76.7358537,7.36504896 C65.6666248,4.77241536 56.2493145,11.4242362 43.0503649,11.560249 C41.7182368,11.5810042 37.908674,11.357113 36.1370832,10.8910042 C27.1485981,8.85611136 18.1694208,6.69160896 9.35002793,4.02279936 C8.05335823,4.32529536 7.66974256,6.01154496 8.55997025,6.97224576 C17.0070498,9.95679936 29.9300886,12.6293626 36.7545027,12.933625 C36.6235282,21.717049 31.969612,30.549049 25.5427753,35.406649 C35.7643267,46.668553 59.6032368,50.3722522 73.6327996,44.4607738 C80.5341141,42.397177 87.8166066,23.925049 87.1517614,15.534649" id="ðŸŽ¨-Color" fill="#FFFFFF"></path>
                        <path d="M8.63680419,4.28862048 C8.25673437,4.27382688 8.47834942,3.16982688 9.33444839,3.32725728 C20.3806293,5.90112288 34.1429244,10.8037661 45.4969287,10.7677757 C53.8493786,10.4953085 61.3335407,5.86071648 69.7320865,5.83267488 C75.3777301,5.94042528 82.5766736,6.74038368 86.5276269,11.2539773 C91.738905,27.7207997 80.0037228,50.1178685 61.5394211,50.2474781 L58.0446024,49.9955496 C46.1320001,49.1211327 33.0814636,47.7221112 25.4030914,37.6526045 L25.3432553,37.7038301 L25.3432553,37.7038301 C24.1950677,36.9363293 24.2591145,35.2787837 25.2348855,34.4262749 L25.2639171,34.4717597 L25.2639171,34.4717597 C25.2825328,34.4417309 25.303143,34.4130269 25.3230883,34.3836605 L25.3106779,34.3450205 L25.3106779,34.3450205 C25.6860938,33.9524381 26.1129244,33.5852477 26.5009724,33.2564765 L26.5029669,33.2628797 L26.5029669,33.2628797 C32.2685043,28.4770397 36.0330792,21.2403197 36.2498188,13.7465885 C34.3410483,14.2690013 2.27201973,7.64500128 7.99655829,6.02852448 C12.0911181,7.40764128 16.2098339,8.65317408 20.4116554,9.64456608 C20.482129,9.60504288 20.5831855,9.61542048 20.6219681,9.69336288 C25.7621078,10.9536893 31.0059633,11.6739389 36.2566888,12.2570717 C36.2511485,12.0071261 36.241619,11.7571805 36.2287653,11.5067933 C26.8925662,9.69601248 17.7398643,7.00755168 8.63680419,4.28862048 Z M84.2347975,10.9715741 C65.085262,1.33343328 55.5797489,15.5726045 37.0596002,11.6520797 C38.9971806,20.2646045 34.2127332,29.5494653 27.7143148,35.1767741 C37.156446,43.3189949 41.2430276,44.5519421 53.6290932,45.8734301 L55.2471938,46.0653944 C57.6800461,46.3524529 60.1357314,46.6202158 62.5761363,46.6621277 C75.2347884,45.7442621 84.7999159,32.6225597 86.2313276,20.7335837 L86.2390854,20.4051578 C86.3032476,17.3879007 86.1641471,14.1940997 84.8225206,11.4299549 C84.5754199,11.3442845 84.3606749,11.1899453 84.2347975,10.9715741 Z M57.5753482,18.5374406 C58.2370908,18.389063 58.9123519,19.1084294 58.5021424,19.7383718 C57.1766627,21.7752518 53.9350993,22.564391 51.6679772,22.884551 C49.0425036,23.2552742 46.4974763,22.962935 44.0034205,22.0706822 C43.8697866,22.0227686 43.879316,21.7873958 44.0393221,21.8063846 C46.4075006,22.0872422 48.8488121,21.8816774 51.1498412,21.257255 C53.4830046,20.8043942 55.3669542,19.2583526 57.5753482,18.5374406 Z M75.5680461,17.0702467 C75.557061,16.6831843 77.4669396,17.8030819 77.7690009,17.9538883 C80.101721,19.3493443 82.8018789,19.4515747 85.3746081,19.9993795 C85.9742984,20.2285699 85.973412,20.9881219 85.3743865,21.2173123 C82.1634059,22.0680547 77.2903124,19.8353251 75.5680461,17.0702467 Z" id="ðŸ–-Ink" fill="#000000"></path>
                    </g>
                    <g id="accessories/*-None" transform="translate(10.415908, 53.212800)"></g>
                </g>
            </g>
        </g>
    </g>
</svg>