<?xml version="1.0" encoding="UTF-8"?>
<svg width="293px" height="424px" viewBox="0 0 293 424" version="1.1" xmlns="http://www.w3.org/2000/svg" xmlns:xlink="http://www.w3.org/1999/xlink">
    <!-- Generator: Sketch 62 (91390) - https://sketch.com -->
    <title>sit-mask-2</title>
    <desc>Created with Sketch.</desc>
    <g id="Introduction" stroke="none" stroke-width="1" fill="none" fill-rule="evenodd">
        <g id="poses-covid-19" transform="translate(-368.000000, -468.000000)">
            <g id="a-person/sitting" transform="translate(348.000000, 419.500000)">
                <g id="pose/sitting/closed_legs-1" transform="translate(-17.557377, 137.592000)">
                    <path d="M326.949053,311.244777 C320.515683,302.120505 306.954683,300.610015 298.242973,294.216199 C293.653561,290.709223 288.797121,288.388039 285.230589,283.666063 C290.909209,277.016503 283.886474,261.428647 282.441567,252.426847 C276.715045,228.858871 271.418569,204.914191 264.607607,181.374079 C276.410717,185.036359 273.335791,163.108255 271.650066,158.037655 C271.533451,157.340623 270.667287,157.201519 270.136447,156.981847 C270.284926,155.986303 270.693948,155.767927 269.453877,155.492959 C269.039219,149.526823 270.732748,142.846159 267.671912,137.575759 C264.221995,131.823247 255.97523,127.009039 249.161668,126.929551 C244.375223,107.984191 243.498221,99.0484873 220.821677,107.079367 C221.323254,105.234079 221.479103,103.541719 220.605352,101.677639 C217.19532,91.4074873 212.910019,80.1722473 209.18352,69.7645033 C204.888682,57.7875193 200.447533,45.4027273 194.703453,33.8948953 C190.702972,26.5871833 178.187163,24.6334633 169.703698,25.8432793 C167.680048,22.2846793 162.578872,12.4415593 156.125994,14.7173353 C156.07744,11.7486313 156.03127,8.77992731 155.992688,5.81100731 C155.959307,3.23023931 156.231771,0.584023305 155.236203,-1.86628069 C154.18146,-4.46195269 152.034041,-5.83182469 149.511848,-6.82542469 C141.87764,-9.33880069 133.106972,-13.3767047 125.050953,-10.8782327 C118.012396,-7.67646469 118.832174,4.36294331 115.426043,10.9075273 C110.652604,3.85318331 102.512267,8.58315131 100.790127,16.1487673 C81.1811375,23.9392393 64.3267058,15.0890713 63.0718952,45.6705673 C64.1530828,51.2453113 65.0723524,56.4744553 64.5599371,62.1038473 L63.9666712,62.1643273 C58.9478624,89.2613113 57.0178515,118.307911 58.2310446,148.504711 C57.9880591,160.394215 53.6409826,171.491215 49.437183,182.220367 C46.3451338,190.109551 43.1522923,198.267223 41.638673,206.637007 C39.9603178,213.607975 33.7907422,247.130311 47.5095564,236.001127 C48.0351939,274.138519 82.1324872,279.021199 112.837305,270.597415 C145.433551,263.843311 182.128469,265.785151 202.47205,233.110399 C209.3734,244.881535 211.754484,252.149071 213.486811,264.458263 C215.387994,273.475399 218.148589,283.716346 223.223105,289.680754 C218.853697,297.51992 216.713667,307.069347 216.924558,313.293226 C217.007398,315.738011 215.8856,316.870105 217.497882,318.389791 C225.232215,325.679929 242.48857,325.761733 255.610355,329.007349 C264.607607,330.148684 297.141033,334.514923 302.112983,331.668823 C305.580456,332.635207 301.54803,323.64124 305.015287,323.449216 C306.201588,323.457992 306.360369,321.952159 307.578498,322.007489 C315.355219,322.360725 332.12183,324.639132 328.068109,318.389791 L326.949053,311.244777 Z" id="âœ‹-Skin" fill="#D08B5B" fill-rule="evenodd"></path>
                    <path d="M293.056466,333.288 C273.365502,332.5436 246.098126,327.023718 226.919567,322.876864 C221.939679,321.944179 218.397556,319.350569 217.360962,317.148653 C216.890874,316.1501 217.041411,314.349423 217.494818,312.247756 C217.858871,310.560268 216.78388,308.678734 216.982551,306.862561 C217.264198,304.287854 219.023983,300.081153 219.934223,298.543608 C221.743169,295.488 222.981257,287.690589 223.116073,287.772552 C225.522207,289.235383 228.250258,289.871153 231.059099,290.65457 C231.095272,290.664659 231.781732,292.402701 231.817644,292.412954 C231.829922,292.447755 231.842358,292.482627 231.854951,292.517571 C232.602495,294.59188 233.618548,295.473066 234.825557,296.548013 C236.145065,297.723149 237.691384,297.704739 239.354028,297.916143 C243.481842,298.440991 246.147548,296.407828 250.063628,293.706105 L250.353857,293.698198 C250.789114,293.688371 251.237979,293.689222 251.693856,293.690109 C253.990097,293.69458 256.47838,293.717932 258.254577,292.279731 C258.302386,292.24102 258.34926,292.201589 258.394934,292.161745 C258.437589,292.202629 258.482169,292.242249 258.528846,292.280454 C258.615427,292.35132 258.705396,292.414185 258.79802,292.470316 C259.192422,292.237445 259.57968,292.002479 259.964161,291.769206 C261.267368,290.97852 264.836925,288.986079 264.869036,289.040207 C265.945146,290.854161 283.512506,280.654265 285.03643,282.096 C286.988227,283.942533 291.414073,290.972935 297.953084,294.006044 C309.530055,299.376 317.550091,303.264 323.619308,307.8 C329.688525,312.336 326.489642,315.1047 327.087432,315.36 C328.604736,316.008 328.029624,320.711558 327.954463,321.408 C327.888406,322.023964 319.50359,323.066603 314.298725,322.92 C308.400034,322.753854 305.571694,321.390704 305.039882,322.184958 C303.624115,324.110056 303.386777,327.16307 304.327869,331.344 C301.148755,333.504 297.391621,334.152 293.056466,333.288 Z" id="ðŸ‘Ÿ-Shoes" fill="#FFFFFF" fill-rule="evenodd"></path>
                    <path d="M111.366928,7.34406985 C112.01013,7.34683011 112.649579,7.43142597 113.272038,7.60349383 C114.104887,8.11919393 114.648432,8.59307204 115.165344,9.17348661 C115.257154,9.27657538 115.345515,9.38009617 115.430604,9.4846252 C115.379945,9.60557308 115.330526,9.72644352 115.281902,9.84636612 L115.184233,10.0892114 C114.892542,10.8221594 114.620263,11.5922288 114.571235,12.329511 L114.494643,13.4813192 L113.861608,13.0367396 C114.924544,16.0275757 116.352615,18.8811828 117.834663,21.7065286 L119.203121,24.3047166 L123.874592,33.2189945 C124.941318,35.2468207 125.932015,37.120465 126.574846,38.3131786 L126.708448,38.5764336 L126.983208,39.1256706 C127.358809,39.8696972 127.76727,40.5844941 128.516018,40.9990113 C128.589376,41.0396234 128.663465,41.075949 128.73819,41.1085357 C128.767232,41.1981129 128.795445,41.2880272 128.822775,41.3782993 C129.222619,42.6989903 149.773516,117.157405 149.805553,117.186323 C150.177027,117.521636 179.932203,125.255318 187.05832,126.728257 C187.614537,126.842899 188.171333,126.966437 188.729066,127.090209 C189.218497,127.198824 189.922852,127.237522 190.727575,127.237679 L190.862605,127.237353 C192.720182,127.228177 195.065483,127.028081 196.544745,127.007848 C196.667336,126.695621 196.787949,126.382414 196.906118,126.068312 L197.043558,125.700474 C197.189487,125.6753 197.333057,125.657966 197.473925,125.64908 C197.53537,125.645204 197.597528,125.642857 197.660365,125.641994 L197.755125,125.641806 C200.390671,125.667071 204.165391,128.207312 206.605712,129.95575 L207.543561,130.63148 L207.728256,130.763382 L208.271128,131.144854 L208.022975,131.642283 C204.30225,139.122619 200.985786,146.790131 197.928524,154.561695 L197.930671,154.562117 C197.348984,156.031475 196.77876,157.50577 196.218354,158.98266 L195.799864,160.090777 L194.781186,159.91507 L194.389581,159.845526 C193.432883,159.673751 169.892579,159.599909 123.76867,159.624 L43.505072,235.273154 C43.2767494,234.968147 43.0734936,234.647581 42.9006459,234.308366 C42.4504186,233.424794 38.7036343,227.137013 42.701275,208.224 C46.7219885,189.20183 58.2268922,163.181378 58.7413479,158.976 C58.7232151,154.285225 58.9202185,143.954445 58.8480702,139.259089 L59.3241914,129.485834 L59.7574307,120.652336 C62.4424215,66.0986797 65.7431734,36.4779086 66.1915626,34.8140222 C67.8221154,28.7633536 71.5076796,23.6710154 78.2726998,21.1654646 L78.4786441,21.0903323 C80.5928868,20.3042721 82.8411661,19.7722409 85.1141084,19.2799341 L86.5189747,18.9789192 L86.8708832,18.9008833 L87.3559313,18.788857 L87.5804014,18.7354443 C90.8298003,17.9554385 96.9904091,17.6968902 101.150624,15.0364743 C104.423509,12.9434969 105.318378,9.63281262 107.145304,8.48929345 C108.437761,7.76032662 109.852616,7.3593355 111.253386,7.34406985 L111.366928,7.34406985 Z M158.126987,13.5119715 C158.28387,13.5119715 158.438277,13.5168755 158.591785,13.527915 C158.6374,13.5311954 158.683023,13.5349717 158.729717,13.539737 C158.770162,13.5601762 158.810254,13.5809092 158.849988,13.6019383 C162.042517,15.2915453 164.937136,19.954147 167.343314,25.3327285 L170.467319,24.9616043 L171.685867,24.8230969 C172.346437,24.7503489 172.906608,24.6937265 173.224843,24.672803 L173.36768,24.6652458 L173.854404,24.7156152 C181.292197,25.4947927 190.885703,26.9052538 194.822193,33.7927683 C198.76276,43.3061402 221.088378,104.621269 221.939773,105.47094 C221.970384,105.501444 222.003981,105.530152 222.040084,105.554137 L223.047715,106.223542 L220.197079,106.690768 C219.899265,106.815387 222.345607,120.77449 219.575592,120.744346 C216.994072,120.715585 209.279599,106.701275 206.570128,106.704 C202.71492,106.707877 195.70642,106.707877 185.544627,106.704 C175.658148,82.3327176 169.417572,65.9679375 166.822901,57.6096599 C160.680508,37.8230178 160.976511,27.5693365 160.774663,26.8486159 C160.746497,26.4911512 160.697282,26.2851728 160.594435,26.0729745 L160.506441,25.8915545 C160.127246,24.5420391 159.744315,23.1934808 159.356882,21.8458796 L158.967918,20.4985975 L158.140767,20.6433238 C158.100368,20.5353679 158.061973,20.4274212 158.023379,20.317216 C157.351997,18.3770496 156.842874,16.3872342 156.485886,14.3664674 C156.450043,14.1635767 156.415749,13.9604574 156.383138,13.7574304 C156.582083,13.7025323 156.790729,13.655428 157.012441,13.6161323 C157.364473,13.553739 157.692396,13.5211427 158.008836,13.5136596 L158.126987,13.5119715 Z" id="ðŸ§¥-Jacket" fill="#E86BBB" fill-rule="nonzero"></path>
                    <path d="M160.070419,118.844997 C159.238557,118.751969 151.959281,117.490934 149.799181,116.764747 C149.506815,116.182226 148.248032,111.589581 146.022832,102.98681 C144.180457,96.4601571 142.368631,89.9246296 140.556786,83.3890334 C138.081946,74.461912 132.966338,55.2431968 132.923371,55.0912864 C132.995587,55.1260953 140.820776,58.017202 148.479053,58.104 C155.977635,58.188988 166.564338,54.6063823 166.604409,54.5768286 C166.6325,54.6732928 185.623958,106.653293 185.531468,106.678895 C183.751424,107.169753 178.341106,108.902931 172.044432,111.952623 C167.131414,114.332164 161.000416,118.104694 160.070419,118.844997 Z" id="ðŸ‘•-Top" fill="#FFFFFF" fill-rule="evenodd"></path>
                    <path d="M325.018392,320.076058 C319.284717,321.310714 313.387605,320.965978 307.578498,321.448522 C307.76621,320.963602 307.923576,320.46745 308.046695,319.96309 C314.049367,319.238626 320.344662,318.894754 326.0675,316.917274 C326.20254,317.560522 326.303766,318.210898 326.343866,318.867538 C326.349285,318.95545 326.337363,319.937818 326.478039,319.756378 C326.303766,319.98145 325.278502,320.027242 325.018392,320.076058 M296.051105,305.243338 C285.616387,301.82125 274.550037,298.882786 266.506808,290.943922 C266.522848,290.900074 266.538238,290.855794 266.553411,290.811514 C268.209006,290.34409 270.029988,289.34617 271.623157,290.431354 C276.725418,290.255746 282.05419,288.473098 285.627442,284.70541 C285.871294,284.757034 286.10756,284.829826 286.33754,284.919898 C293.212879,296.58109 307.860717,298.802218 318.588274,305.558914 C322.936868,308.082442 331.036454,314.878666 320.67435,315.030946 C316.583915,315.649354 312.469853,316.106842 308.344953,316.42285 C308.026753,309.856882 301.503646,306.98041 296.051105,305.243338 M303.345436,322.060882 C301.270414,324.882058 297.52419,325.996834 294.134966,325.721002 C291.642252,325.383394 289.442595,324.509242 286.850172,324.697594 C267.195881,323.953258 247.868893,319.893754 228.703174,315.749578 C211.537261,312.538306 224.652405,299.90317 223.223105,289.680754 C225.645806,291.153658 228.392343,292.229554 231.220598,293.018386 C234.863862,303.127834 244.820629,300.487234 251.871108,295.644082 C254.591418,295.556386 257.903693,295.972618 260.128494,294.171178 C260.258332,294.27745 260.395106,294.367306 260.536649,294.444202 C262.302141,293.407186 263.917853,292.321786 265.769398,291.521938 C272.026977,302.070082 285.318779,304.47805 295.98391,308.550082 C302.508751,310.303354 307.851613,315.33097 303.345436,322.060882 M302.98887,331.097026 C297.473252,332.741218 291.636183,332.456098 285.945208,331.99321 C267.249636,330.37753 248.67805,327.20017 230.540629,322.393522 C226.239072,321.253042 217.893899,319.928962 217.497882,314.54581 C221.326908,319.553122 228.162797,320.143018 233.905143,321.434266 C252.75483,325.118362 272.062525,329.876194 291.340525,328.958842 C295.411886,330.11401 299.84935,329.202058 303.294064,326.95285 C303.184602,328.333738 303.085327,329.715274 302.98887,331.097026 M201.058108,155.25229 C203.849948,147.86725 206.877837,140.58157 209.806451,133.24189 C215.24035,136.27885 221.374595,137.38909 227.63911,138.09757 C227.786289,138.17101 227.942571,138.23581 228.111425,138.28765 C228.408383,138.34813 228.657655,138.32005 228.857289,138.22933 C237.211132,139.11061 245.731662,139.45621 253.079966,142.86253 C255.923611,144.18013 258.591899,145.95565 261.006797,148.40077 C263.648857,150.92365 265.777418,153.96925 267.206068,157.33021 C267.652372,158.36701 267.888855,159.44485 268.593318,160.29805 C268.80574,161.44501 269.046125,162.58333 269.208693,163.74109 C269.620533,168.26629 270.182152,173.03341 268.430749,177.37501 C267.344576,180.03397 265.118691,177.89557 263.642354,176.85445 C261.240895,175.18261 259.029749,173.26453 256.82554,171.34645 C250.054028,164.99821 242.140203,159.60037 232.641879,158.70829 C222.38707,157.28701 211.275851,155.51149 201.058108,155.25229 M196.948381,155.26741 C196.384811,156.70165 195.831862,158.14021 195.288017,159.58093 C192.593502,159.12085 186.858309,158.03653 184.510605,156.80101 C185.34729,156.82909 186.175522,156.39493 186.387944,155.39917 C186.48115,154.95853 186.628329,154.54597 186.743427,154.11613 C188.158855,149.51749 189.365979,144.82597 191.364702,140.41741 C193.319857,135.76261 195.645667,131.23957 197.422864,126.51565 C200.436013,126.32557 205.196013,130.05373 207.348201,131.57437 C203.509421,139.29205 200.099822,147.20845 196.96117,155.23285 C196.902646,155.23285 196.84217,155.23285 196.783646,155.23501 C196.837835,155.24581 196.894192,155.25661 196.948381,155.26741 M179.19809,154.72309 C163.743046,153.75973 148.080349,154.77493 132.803263,152.04253 C129.90738,151.55221 127.208746,150.66661 124.702809,149.45917 C117.411079,145.94701 111.745248,139.71109 107.572662,132.57229 C92.4993286,109.94629 75.9130262,87.4714896 68.4934087,60.9618096 C64.097345,48.1314096 63.2413687,28.9527696 78.6071082,23.4318096 C85.4219716,20.8959696 93.652263,21.0514896 99.5179443,16.4506896 C98.8544488,18.8828496 98.4816255,21.4273296 98.139365,23.6802096 C97.5627894,27.3543696 96.9946674,31.1559696 97.4630809,34.8711696 C97.467416,34.9035696 97.4717512,34.9359696 97.4780372,34.9662096 C96.7087639,37.0570896 99.1297311,39.0313296 101.505396,38.8261296 C106.517052,38.7116496 108.974868,32.7068496 113.997145,32.5232496 C115.830915,32.4562896 116.925758,33.5470896 118.048564,34.8452496 C120.766489,37.9923696 123.428491,41.1999696 126.712154,43.7790096 C126.946469,43.9626096 127.2586,43.7401296 127.126378,43.4593296 C125.467964,39.9277296 123.14237,36.8000496 120.836068,33.6615696 C116.054392,26.0475696 109.618855,29.5510896 104.178236,34.1799696 C103.118074,34.9467696 102.041004,35.5688496 100.950496,35.2966896 C101.022026,35.0353296 101.041534,34.7329296 100.996015,34.3959696 C100.590895,31.4151696 100.987345,28.2723696 101.399185,25.3153296 C102.34013,19.7965296 102.060513,12.5994096 107.399039,9.2578896 C109.729185,7.9446096 112.547035,7.7782896 114.814321,9.2686896 C114.398146,10.2860496 113.901771,11.4308496 113.830241,12.5065296 C113.37505,12.1868496 113.067254,12.2862096 112.984886,12.9795696 C114.751462,18.1722096 117.643227,22.9436496 120.096707,27.8403696 C122.012846,31.5145296 123.939822,35.1843696 125.906032,38.8326096 C126.486726,39.9622896 126.976598,41.1589296 128.108074,41.7853296 C128.110458,41.7961296 128.112409,41.8069296 128.114576,41.8177296 C128.879731,44.3341296 128.879731,47.0384496 129.469312,49.5980496 C129.831514,51.1618896 130.247689,52.7343696 130.691826,54.2982096 C131.112336,55.7648496 131.556906,57.2250096 132.007762,58.6614096 C137.374467,77.1963696 142.457653,95.8177296 147.690185,114.39373 C141.495248,111.20125 138.354212,105.23317 135.519021,99.1333296 C128.040879,83.4150096 120.207471,66.2581296 111.838238,51.7558896 C119.622225,68.2431696 130.299494,106.86613 143.595631,116.46733 C145.624267,117.80653 147.835412,118.81525 150.143882,119.61445 C151.108238,120.48493 152.118545,120.67285 152.79678,120.44173 C156.976086,121.61029 161.352425,122.28205 165.459768,123.13957 C172.582644,124.62997 179.707471,126.10957 186.834465,127.58269 C189.244811,128.07949 191.665995,128.74477 194.128363,128.86141 C194.251698,128.86789 194.371132,128.86357 194.481462,128.84845 C189.056232,135.06493 185.403864,143.55157 183.316487,151.50685 C181.61689,151.01869 179.69013,152.82661 179.19809,154.72309 M118.026888,155.40781 C105.972773,173.43733 87.0823359,184.62181 71.5256328,199.17589 C62.2050499,208.96285 54.772427,220.32661 46.2714051,230.79829 C46.0091282,231.12229 45.744467,231.44629 45.4802393,231.76813 C44.8254142,232.57165 43.9152485,233.45509 43.3883104,234.23485 C43.3733541,234.25861 43.3581811,234.28021 43.3451756,234.29749 C42.1137749,231.73357 42.7878914,228.45469 42.7423723,225.53221 C42.9309515,220.52533 43.5877275,215.56165 44.574192,210.65413 C47.7949953,190.95061 58.8845381,173.41357 61.296835,153.59773 C61.2166346,132.52261 60.1655763,111.38701 61.9471082,90.3183696 C62.5973814,80.7020496 63.2801683,71.0814096 64.2469078,61.4888496 C70.923263,86.2100496 90.4184543,112.87741 101.486105,129.95005 C105.951097,136.47541 109.948327,143.59477 116.236252,148.58653 C117.755941,149.78317 119.359948,150.81133 121.028983,151.69693 C119.899458,152.81365 118.932718,154.08589 118.026888,155.40781 M157.50931,58.9962096 C159.169675,58.5620496 162.834831,58.1278896 164.740132,56.8794096 C165.725946,60.2479296 166.792177,63.5905296 167.91715,66.9136896 C165.18687,66.1095216 162.231811,66.4864416 159.41938,66.7925136 C155.754873,67.1912496 152.095352,67.6249776 148.437349,68.0792256 C145.086707,68.4950256 141.738017,68.9268096 138.390844,69.3706896 C137.196942,65.1033936 135.994587,60.8386896 134.773374,56.5791696 C141.755141,59.8040496 150.035503,60.2533296 157.50931,58.9962096 M161.308857,26.8942896 C161.302571,26.6113296 161.235376,26.3154096 161.087764,26.0108496 C161.066305,25.9676496 161.04658,25.9244496 161.024904,25.8812496 C160.454831,23.8530096 159.876305,21.8269296 159.286724,19.8030096 C159.197853,19.4617296 158.655959,19.5286896 158.66658,19.8872496 C158.662245,20.1378096 158.660294,20.3862096 158.65791,20.6367696 C158.61911,20.5330896 158.582261,20.4294096 158.545196,20.3235696 C157.814939,18.2132496 157.279547,16.0402896 156.926232,13.8327696 C163.18186,15.1179696 168.334192,28.7259696 171.245248,38.4546096 C168.852243,37.7115696 165.713591,37.5430896 164.7837,39.5194896 C163.630332,35.3096496 162.486068,31.0976496 161.308857,26.8942896 M151.603312,107.473522 C153.162451,107.371786 154.722023,107.275018 156.280728,107.167234 C159.470318,106.946698 162.659041,106.716874 165.848197,106.491802 C166.613136,106.437802 167.378074,106.382074 168.143012,106.325914 C170.308855,106.207114 172.474915,106.08745 174.640975,105.972322 C177.035715,105.845314 179.458416,105.628666 181.871146,105.540322 C182.325254,105.530386 182.779578,105.523042 183.233686,105.51829 C183.323207,105.69973 183.415762,105.87793 183.515904,106.04749 C180.336068,106.92445 177.431514,107.93965 175.103536,108.96349 C169.814647,111.27253 164.729511,114.31165 160.385686,118.13269 C159.581514,117.96637 158.777343,117.79789 157.972955,117.62725 C155.766578,117.15205 153.531806,116.64445 151.379185,115.92085 C150.82862,114.57517 150.648928,112.99405 150.180731,111.66781 C149.809425,110.338762 149.438119,109.009282 149.066813,107.680018 C149.914986,107.665762 150.782451,107.526874 151.603312,107.473522 M146.340434,96.6035376 C146.369046,96.6005136 146.397442,96.5970576 146.425837,96.5938176 C146.429305,96.5938176 146.43299,96.5936016 146.436458,96.5936016 C146.784571,96.5825856 147.132467,96.5691936 147.480363,96.5529936 C148.175939,96.5208096 148.871298,96.4793376 149.566006,96.4300896 C150.957157,96.3313776 152.345491,96.1996176 153.731873,96.0488496 C156.50919,95.7464496 159.27762,95.3684496 162.048868,95.0168016 C163.681704,94.8094416 165.308904,94.6310256 166.934804,94.4791776 C170.736301,94.2277536 174.549287,94.0350816 178.346666,93.9817296 C179.562026,96.8653296 180.795595,99.7402896 182.039784,102.60877 C182.15705,102.876394 182.271064,103.167562 182.386813,103.469746 C176.804434,103.36369 171.198212,103.891378 165.635558,104.223154 C162.517281,104.40913 159.398571,104.589922 156.280728,104.781082 C154.721156,104.876554 153.162234,104.982394 151.603312,105.083914 C150.562442,105.151522 149.443755,105.10681 148.402884,105.302722 C148.182658,104.514106 147.962432,103.72549 147.742207,102.93709 C147.165197,100.89373 146.594691,98.8484256 146.022884,96.8035536 C146.134514,96.7499856 146.241593,96.6838896 146.340434,96.6035376 M141.589972,80.8690176 C140.695196,77.6430576 139.799769,74.4170976 138.899574,71.1926496 C139.068646,71.1693216 139.237717,71.1459936 139.406571,71.1226656 C140.038636,71.0358336 140.670919,70.9496496 141.303201,70.8636816 C142.696086,70.6746816 144.089188,70.4880576 145.482724,70.3040256 C146.562828,70.1614656 147.643148,70.0212816 148.723686,69.8815296 C149.91672,69.7810896 151.110188,69.6854016 152.30409,69.5974896 C157.702875,69.2006976 163.144145,68.8326336 168.560921,68.8021776 C169.698248,72.0862416 170.895835,75.3502176 172.137207,78.5982096 C167.530454,78.8777136 162.928471,79.2477216 158.328004,79.6160016 C155.681609,79.8278976 153.035864,80.0477856 150.390986,80.2754496 C149.104095,80.3862576 147.817638,80.4990096 146.531181,80.6134896 C145.816531,80.6769936 145.101881,80.7413616 144.38723,80.8061616 C143.974523,80.8435296 143.435664,80.9832816 142.971369,80.9863056 C142.91111,80.9387856 142.84825,80.8927776 142.781489,80.8467696 C142.442913,80.6141376 141.943937,80.6549616 141.589972,80.8690176 M142.667258,83.5916976 C145.705551,83.2225536 148.737125,82.8251136 151.77325,82.4570496 C153.457241,82.2939696 155.141449,82.1330496 156.82609,81.9764496 C162.179139,81.4785696 167.538258,81.0472176 172.891523,80.5560336 C174.344017,84.2956416 175.852651,88.0142976 177.396833,91.7174016 C170.841429,91.2864816 164.166157,92.3837616 157.684234,93.1432176 C154.22413,93.5486496 150.754706,93.9143376 147.271626,94.0437216 C146.720194,94.0640256 145.949403,94.0355136 145.288075,94.1815296 C144.388097,90.9540576 143.491587,87.7255056 142.596161,84.4965216 C142.609383,84.1962816 142.632793,83.8949616 142.667258,83.5916976 M196.486471,126.73597 C196.256707,126.95413 196.031279,127.17877 195.808236,127.40989 C195.812571,127.33645 195.814522,127.26517 195.812571,127.19173 C195.816906,127.18957 195.821241,127.18741 195.823192,127.18525 C196.022609,126.99085 196.243919,126.84181 196.486471,126.73597 M192.430933,34.3333296 C199.170148,50.6240496 204.989877,67.3748496 211.302079,83.8642896 C213.32638,89.4630096 215.320768,95.0725296 217.20656,100.72093 C217.92186,102.58717 218.184137,104.68237 219.653755,106.14901 C219.714447,106.20949 219.781642,106.26565 219.853172,106.31317 C217.878726,107.13937 216.095026,108.057802 214.658356,108.986386 C215.319034,111.218962 216.116702,113.410282 217.069569,115.524706 C217.410095,116.280058 216.289024,116.938426 215.946764,116.178754 C214.735522,113.491282 213.758161,110.695378 212.992356,107.843746 C212.038622,106.562218 210.935108,105.412666 209.505157,104.69533 C206.745831,103.69525 203.26687,103.34965 199.516744,103.46197 C199.456268,103.35397 199.376068,103.25029 199.278527,103.15309 C198.036289,101.96077 197.544465,100.06429 196.926706,98.4853296 C195.129784,93.8780496 193.601425,89.1627696 192.346398,84.3783696 C191.111095,79.6414896 190.345724,74.7922896 189.062518,70.0662096 C188.802626,69.2389296 187.993902,65.2429296 187.239802,65.4632496 C187.254975,65.5539696 187.267981,65.6425296 187.280986,65.7332496 C187.24197,65.7073296 187.198401,65.6965296 187.155267,65.6986896 C186.851806,75.4748496 189.41605,85.3222896 192.353117,94.6124496 C193.165959,97.7077296 195.012735,100.60429 195.604483,103.72765 C193.031569,103.99333 190.408584,104.42965 187.866015,104.98045 C187.829383,104.77525 187.777145,104.57221 187.716452,104.36701 C187.681988,104.08189 187.595068,103.85725 187.469349,103.68661 C187.148547,102.90469 186.723702,102.14221 186.40962,101.43805 C185.763682,99.9822096 185.121862,98.5263696 184.486979,97.0640496 C181.029476,89.0677296 177.756651,80.9850096 174.869221,72.7640496 C171.308108,62.7956496 168.397052,52.6350096 165.587871,42.4462896 C167.469329,43.4506896 171.086799,41.4440496 173.304447,46.0297296 C173.783482,47.1853296 174.847545,48.0104496 176.167817,47.6497296 C177.325303,47.3322096 178.201004,45.9865296 177.7935,44.7963696 C177.734975,44.6019696 177.672115,44.4097296 177.600585,44.2218096 C175.439294,37.8346896 173.690276,31.2790896 170.573299,25.2678096 C178.573611,26.0734896 188.037254,26.6458896 192.430933,34.3333296 M266.952462,141.09997 C267.643919,144.35941 267.199349,147.78733 267.013154,151.10509 C263.850658,146.91685 259.842591,143.34205 255.154338,140.96173 C254.842207,138.86653 253.5176,137.04133 252.906343,135.00661 C251.777252,132.13597 250.862318,129.20269 250.038855,126.24133 C257.683901,127.82893 265.125194,133.36285 266.952462,141.09997 M239.234132,166.067842 C241.829806,180.02641 245.952755,193.634194 248.972624,207.49837 C249.149932,208.312906 247.895988,208.657642 247.718463,207.84289 C244.698595,193.978714 240.575862,180.37093 237.979972,166.412362 C237.828241,165.595666 239.081751,165.248986 239.234132,166.067842 M237.901939,294.399922 C239.973709,294.689146 242.041145,294.941866 244.12527,295.162186 C239.97631,296.891914 236.107401,296.469202 232.731833,293.412154 C234.459826,293.831194 236.201258,294.151522 237.901939,294.399922 M329.316698,314.968522 C329.199866,314.414698 328.892937,314.05549 328.506024,313.86109 C328.564983,302.244178 304.061604,298.468282 296.636567,291.070714 C293.239757,288.677866 290.768502,284.725066 286.823511,283.243522 C289.055682,279.801346 288.455913,275.371402 287.960622,271.50349 C286.877267,264.446554 284.155006,256.559746 283.443174,252.19741 C278.072134,229.77445 272.863228,207.29749 266.785341,185.05165 C266.661789,184.62613 266.432026,183.78373 266.143738,182.85277 C266.798564,183.01045 267.424777,183.06229 268.01219,182.98669 C276.537272,181.10317 274.623301,163.91821 272.620677,157.69093 C272.40587,156.95653 271.905159,156.49213 271.317746,156.27397 C271.393611,155.89381 271.324465,155.48989 271.053518,155.10325 C270.90829,154.89589 270.684813,154.74685 270.442044,154.67125 C270.184103,148.76149 271.664558,142.40893 268.543463,137.00893 C265.036106,131.10349 256.669258,126.21757 249.936979,125.87413 C248.972407,122.39221 248.127052,118.87573 247.194777,115.38733 C246.171897,111.73477 244.715068,107.81005 241.652498,105.36061 C237.690166,101.84845 229.232063,102.91981 222.215831,105.40165 C222.599493,103.57213 221.725742,101.91757 221.190567,100.20253 C219.445451,95.0703696 217.648746,89.9554896 215.814758,84.8557296 C209.232043,67.6621296 203.825888,49.8399696 195.591478,33.3548496 C192.181879,27.7669296 185.624957,25.2483696 179.330312,24.7299696 C176.377855,24.4340496 173.237252,24.3195696 170.256833,24.6673296 C170.16146,24.4858896 170.063919,24.3066096 169.96421,24.1273296 C167.52135,19.9088496 162.563884,12.0550896 156.859037,13.4029296 C156.256234,9.3918096 156.247564,5.2813296 156.743939,1.2680496 C156.778837,0.9829296 156.310423,0.8598096 156.193374,1.1190096 C152.413119,9.5689296 153.115631,19.9671696 157.728019,27.9678096 C158.066161,28.5229296 158.525904,28.8102096 159.002554,28.8922896 C159.737363,37.2925296 161.573518,45.5826096 163.838636,53.7193296 C163.498327,53.7322896 163.171023,53.8035696 162.897691,53.9245296 C155.671205,56.5618896 147.724649,56.9917296 140.203372,55.4516496 C138.085432,55.0066896 136.034904,54.4083696 133.973538,53.7992496 C133.583591,52.4514096 133.19321,51.1078896 132.800879,49.7622096 C131.816799,45.5113296 131.565576,41.4267696 129.068527,38.0031696 C128.920915,37.7504496 128.769401,37.4998896 128.623957,37.2493296 C126.618948,33.6248496 124.581425,30.0198096 122.528946,26.4234096 C122.030187,25.8337296 118.696669,19.2867696 116.101862,15.3274896 C116.426999,15.3188496 116.76319,15.2367696 117.090278,15.0726096 C118.919713,14.1632496 118.900205,11.5258896 119.234012,9.7568496 C120.257108,4.2596496 121.440822,-1.2461904 121.765959,-6.8384304 C121.783083,-7.1235504 121.345449,-7.2445104 121.217345,-6.9853104 C118.72268,-2.0561904 116.992953,3.2185296 115.146177,8.4133296 C115.109112,8.5170096 115.070312,8.6228496 115.029128,8.7308496 C113.316742,6.5794896 110.310312,6.0675696 107.691662,6.6464496 C103.31554,7.7847696 101.108729,11.3293296 99.8363614,15.3598896 C87.2535745,21.3452496 72.2799497,15.2324496 64.6435745,31.0674096 C61.2038459,39.3423696 61.2688732,48.7254096 63.496926,58.4907696 C57.6943213,88.0935696 55.8778914,118.37677 57.0854488,148.49797 C56.6560517,168.87325 44.1144488,186.55069 40.5206055,206.37949 C38.7280189,214.19437 37.6030463,222.20581 37.741988,230.23453 C37.4667056,234.47677 39.3438277,240.74077 44.7972357,239.09053 C45.4193304,238.86805 45.9831173,238.52677 46.5031191,238.11421 C48.781243,272.46685 75.3472885,279.11101 105.966487,273.19477 C107.206125,273.21637 108.424303,272.93125 109.727234,272.56621 C110.360166,272.37829 110.988547,272.18173 111.617145,271.97437 C112.089893,271.86205 112.564376,271.74757 113.039075,271.62877 C113.390873,271.557274 113.743538,271.48945 114.095986,271.420114 C122.826121,265.667818 131.894181,260.42809 140.519622,254.513578 C141.127627,254.096482 141.872407,255.065458 141.307536,255.53137 C135.545682,260.279914 129.905429,265.236034 123.910126,269.699674 C140.99107,266.993626 158.37244,267.454786 174.321041,260.44213 C185.512243,255.56269 196.044285,245.78437 202.386833,235.23493 C202.48264,235.402546 202.576063,235.57081 202.671003,235.738642 C202.362773,234.865786 202.054977,233.99293 201.750432,233.118994 C196.343844,217.603498 191.452055,201.905914 185.542156,186.567754 C185.241296,185.78713 186.499141,185.452546 186.796099,186.223234 C188.452995,190.523578 190.032509,194.852866 191.563035,199.199434 C197.04072,214.75489 201.937061,230.51209 207.771312,245.942914 C207.80491,246.031474 207.816181,246.11377 207.813363,246.190018 C209.031758,249.184426 210.028411,252.234994 210.719001,255.36181 C211.434952,258.633778 212.481891,265.622242 213.517777,271.50349 C214.424908,276.353986 215.085585,281.980138 218.465706,285.70333 C218.461804,285.711106 218.458119,285.718666 218.454001,285.726658 L218.454217,285.726658 C218.335001,285.95821 218.220986,286.187602 218.109789,286.415914 C218.349307,286.65373 218.653418,286.809466 218.934769,286.987234 C218.978338,286.78333 219.020605,286.580506 219.068509,286.37293 C219.890671,287.24233 220.803004,288.023602 221.782966,288.728842 C220.677935,296.87485 212.444392,304.766194 216.7078,313.293226 C214.675697,317.954506 219.663292,321.747034 223.768034,322.708882 C230.060728,324.714226 236.554573,326.222122 242.999214,327.653554 C255.758225,330.023938 295.690853,338.78641 305.249436,331.965562 C305.112445,330.509722 306.908933,325.779538 304.788609,325.70977 C305.728687,324.785074 306.507932,323.703994 307.098163,322.530466 C312.948238,324.42781 319.449669,323.748274 325.406172,323.048218 C330.223396,323.151898 330.046738,318.475282 329.316698,314.968522" id="ðŸ–-Ink" fill="#000000" fill-rule="evenodd"></path>
                </g>
                <g id="Head" stroke-width="1" fill-rule="evenodd" transform="translate(74.781421, 38.880000)">
                    <g id="head/Long-Bangs">
                        <path d="M87.7891701,43.886448 C85.5610592,35.854272 77.0442291,32.349456 69.3737827,31.793256 C48.6059116,29.63736 27.4668689,41.198544 18.2598241,59.9454 C10.889819,74.180448 10.6590264,89.134128 26.5013037,97.261992 C27.3665055,97.738272 28.2699925,98.247384 29.1927302,98.709624 C29.9943397,99.45396 30.8199585,100.169136 31.7210661,100.769616 C40.3477768,106.434432 50.9359,108.88452 61.1967606,108.35316 C76.3466602,108.048168 81.7550365,97.782336 85.0646496,84.617352 C88.5553063,71.510688 90.5074178,57.288816 87.7891701,43.886448 L87.7891701,43.886448 Z" id="âœ‹-Skin" fill="#D08B5B"></path>
                        <path d="M97.7339076,119.595744 C97.0266051,117.459504 96.1397733,115.388064 95.3113426,113.295024 C95.1361392,112.251744 95.0193369,111.199824 94.9892712,110.139264 C94.8744157,106.350624 95.5840974,102.529584 96.3798668,98.840304 C97.9977941,91.342944 99.7130566,83.923344 100.573932,76.287744 C102.111829,62.630064 101.196878,48.428064 94.9760769,35.960544 C89.5858697,25.160544 80.4515019,16.328304 68.6523125,13.019184 C65.1642515,12.040488 61.574313,11.500704 57.9597162,11.285136 C57.5121906,11.214072 57.0653139,11.14452 56.6206002,11.07756 C51.5929126,10.320696 46.5033631,9.94356 41.4216004,10.269936 C32.994535,10.811448 24.646203,13.229784 17.6276861,18.012888 C10.5613668,22.82904 5.54060083,29.582064 3.20433971,37.818792 C0.773987888,46.387512 0.980122213,55.66752 -3.21675535,63.700992 C-4.45658951,66.0744 -5.9038558,68.330736 -7.28406895,70.624656 C-10.9462518,74.705112 -14.9222866,79.241328 -15.7935448,84.851928 C-16.868558,91.785744 -12.8734888,97.645824 -9.09255698,103.056624 C-5.67500993,107.942544 -1.03752835,114.690384 -4.55457361,120.705984 C-6.21359804,123.544224 -8.87193053,125.667504 -10.8683836,128.255184 C-12.9383789,130.942224 -14.5541433,134.026704 -15.389063,137.322864 C-16.9572412,143.513208 -15.5145172,149.965344 -11.3204516,154.803744 C-9.13581707,157.322304 -6.33040028,158.987664 -3.29354201,160.285824 C-0.185304593,161.612064 2.85155368,162.871344 5.42120298,165.128544 C6.59571441,166.158864 7.67072763,167.288544 8.68733972,168.472224 C9.63473568,169.951824 10.737868,171.334224 11.9815955,172.599984 C13.3507774,173.993184 16.0329029,172.085904 14.7761973,170.446464 C14.6831881,170.325504 14.5923419,170.206704 14.4993327,170.085744 C13.5800558,168.889104 12.6564529,167.692464 11.6895899,166.534704 C8.80630497,161.972568 7.69668368,156.387024 9.13075564,151.058304 C9.50279241,149.673744 10.0262395,148.360464 10.6775201,147.120624 C10.8157361,147.481344 10.9671464,147.837744 11.1272088,148.189824 C11.750154,149.554944 12.6242242,151.172568 13.7357921,152.555184 C13.7790522,153.503208 13.9220268,154.443024 14.1986751,155.363184 C15.9117746,161.067744 21.6394105,163.882224 26.8046651,166.072464 C27.3108082,166.288464 27.8104622,166.495824 28.3014642,166.701024 C29.651179,167.264568 31.0787619,165.344544 30.2373532,164.186568 C30.0167268,163.882224 29.8025893,163.571184 29.5992669,163.255824 C27.1767019,159.510384 26.0238205,155.030544 26.6770479,150.567984 C27.3648833,145.848384 30.150833,141.943104 32.9173157,138.195504 C35.6340494,134.510544 38.5519424,130.749984 39.7675509,126.255024 C41.1129397,121.289184 39.8886791,116.338464 37.8121949,111.767904 C35.9109139,107.585496 33.378252,103.730544 31.2543979,99.663264 C31.9816,100.387512 32.7319463,101.088 33.5050041,101.763648 C34.3743156,102.523536 35.2674201,103.393152 36.2976591,103.928832 C37.0594693,104.32476 37.8225773,103.376952 37.2193153,102.73608 C36.4263579,101.894112 35.4116925,101.24352 34.5311334,100.492056 C33.6858312,99.770832 32.864971,99.020664 32.0644431,98.250192 C31.0787619,97.301736 30.1410995,96.308568 29.2369636,95.285376 C28.5134387,93.44484 27.9173146,91.55484 27.4319364,89.636544 C26.7722201,87.040224 26.1622528,84.277584 26.2098389,81.586224 C26.257425,78.825744 27.69366,76.892544 29.6057559,75.039264 C30.4155848,74.254536 31.2332005,73.479096 32.0493021,72.702144 C33.7874924,71.42796 35.4270498,70.00452 37.01967,68.584968 C39.8575319,66.055392 42.6023845,63.381528 45.2237297,60.629472 C45.9269224,59.891184 46.624275,59.144688 47.3129757,58.389552 C49.7193181,55.923696 52.0142659,53.348976 54.1774866,50.685264 C56.3275131,49.903344 58.3931823,48.868704 60.3312343,47.650464 C59.4876626,48.503664 58.6354388,49.346064 57.7875411,50.194944 C55.8992382,52.087104 53.9376094,53.987904 51.7484326,55.529928 C51.5234802,55.689984 51.6597494,56.029104 51.9368303,55.975104 C54.7204008,55.419984 57.3246581,54.495504 59.7558752,53.022384 C62.2281893,51.523344 64.4063348,49.486464 66.4395589,47.443104 C67.5902773,46.924704 68.7001149,46.257264 69.7143477,45.600624 C69.7684228,45.566064 69.8224979,45.529344 69.876573,45.494568 C68.877265,48.657024 67.4109643,52.238304 64.2852065,53.365824 C64.1835453,53.402544 64.1900343,53.571024 64.3111626,53.564544 C66.9444042,53.41032 69.0606878,52.227288 70.7313924,50.50296 C72.0750508,49.53744 73.3572798,48.514248 74.5808915,47.400336 C75.7662179,46.3212 76.8890335,45.163872 77.9553947,43.965504 C76.4650846,46.913688 74.7956778,49.796424 73.1491988,52.646544 C73.0626786,52.797744 73.244371,53.002944 73.4001073,52.897104 C76.8760555,50.547024 79.5127579,47.514384 81.6692734,43.928568 C81.9876676,43.400664 82.2915698,42.86412 82.5879014,42.323472 C82.3642467,43.169544 82.1200435,44.010216 81.8585363,44.846568 C81.3850546,46.360512 80.9189271,47.877912 80.4445803,49.390992 C80.1889131,50.206824 79.8772242,51.00408 79.5352532,51.787728 C79.2904011,52.348464 78.9698438,52.90812 78.9200947,53.523072 C78.9168502,53.563896 78.9614081,53.59068 78.9970977,53.581824 C80.3831509,53.235792 81.6738157,51.657264 82.6614435,50.679432 C83.2114956,50.134896 83.7267232,49.537224 84.2006375,48.906936 C84.2886718,52.537248 84.3492359,56.167992 84.2692048,59.809104 C84.1201737,66.496464 83.6875729,73.181664 83.1336274,79.847208 C82.6447884,85.739904 82.2835667,91.923984 78.9914739,97.045344 C76.4434546,101.008944 72.3121161,103.751928 67.8238818,105.080544 C67.428052,105.199344 67.0300592,105.305184 66.6299033,105.400224 C60.1322379,106.940304 53.6605286,105.195024 47.9155887,102.110544 C46.1895111,101.183904 44.7143421,103.697928 46.3798555,104.732568 C52.6136344,108.607824 60.5150897,109.927584 67.5708103,108.190944 C67.3482371,116.513208 71.4555663,124.408224 75.5414817,131.467104 C77.8277775,135.417744 80.1162362,139.342464 81.7322168,143.625744 C83.1033454,147.263184 84.0356003,151.036704 84.3492359,154.918224 C84.7212727,159.493104 84.3557249,164.093904 83.7154756,168.629904 C83.6808675,168.875928 83.6462595,169.124544 83.6094884,169.370568 C83.4667301,170.344944 84.3427469,171.161208 85.2923059,170.662464 C89.4906975,168.459264 91.3011323,163.763208 92.4021015,159.421824 C93.4316917,155.354544 94.1303421,151.207344 94.5196829,147.032064 C95.0907161,148.606704 95.5535991,150.220224 95.9126578,151.865928 C95.9626232,152.101584 96.009993,152.337024 96.0575791,152.572464 C96.3301177,153.948384 98.415254,153.851184 98.7483566,152.572464 C98.8089208,152.341344 98.8673219,152.110224 98.921397,151.876944 C100.640986,144.932544 101.103869,137.690064 100.195407,130.589928 C99.7173826,126.855504 98.919234,123.170544 97.7339076,119.595744" id="ðŸ–-Ink" fill="#000000"></path>
                    </g>
                    <g id="face/Contempt" transform="translate(34.464481, 40.176000)" fill="#000000">
                        <path d="M41.3098719,47.4816819 C40.594602,48.4136502 39.2994254,49.1273931 37.8489858,49.4687432 C36.4668154,49.7940267 34.9392709,49.7807538 33.6209929,49.2801995 L33.5078291,49.2352941 C32.5221987,48.8273774 31.576101,48.0037042 31.216838,47.1441282 C31.0739981,46.8023681 31.025672,46.4550301 31.1234286,46.130884 C31.2113638,45.8393042 31.4175199,45.5709418 31.7608993,45.3403886 C31.8687022,45.268013 32.0133075,45.2627448 32.1510723,45.2869516 C32.3220113,45.3169874 32.4904967,45.3966855 32.5921485,45.504313 C33.1561519,46.1019445 33.9743872,46.6845874 34.9428835,46.6746739 C35.6901391,46.6670383 36.3003911,46.3730026 36.8921683,46.0407103 L37.3080044,45.8033869 C37.7092274,45.5752581 38.116124,45.3608996 38.576494,45.2630082 C39.4005805,45.0876449 40.400115,45.4080196 41.0092268,45.9366912 C41.2748209,46.1672106 41.4677763,46.4381772 41.5202133,46.7300046 C41.5642537,46.9751029 41.5024059,47.2308758 41.3098719,47.4816819 Z M37.0253226,31.1833054 C38.6621424,32.1747552 41.156153,34.4866229 39.3953117,36.9445478 C37.3226331,39.1117815 34.3384438,36.6269001 32.867887,35.503085 C31.5043178,34.632122 29.9722715,36.8721736 31.2373917,37.8891698 C41.8636658,45.7289408 46.1760329,31.4425557 37.8532032,30.0176034 C36.9368298,29.8605798 36.5964864,30.8765895 37.0253226,31.1833054 Z M18.5594481,15.9453792 L19.0296914,15.8168942 L19.5091722,15.6879399 L19.8334039,15.6025119 C22.0605536,15.021605 24.5170523,14.5103766 26.7255792,14.7599712 C27.531051,14.8511232 28.1847923,15.3027792 28.2988069,16.1436672 C28.3948306,16.8532272 27.9346539,17.7686352 27.1515082,17.8947792 C24.5575683,18.3129552 21.9020692,18.1773072 19.2962077,18.6084432 C17.9984791,18.8229312 16.7107213,19.0892592 15.4179781,19.3292352 C14.4349818,19.5119712 13.419255,19.5761232 12.4278051,19.7238672 L12.6556175,19.7554032 C12.7353843,19.7662032 12.7154426,19.8999072 12.6367596,19.8945072 C12.3099702,19.8619992 11.9826829,19.8569434 11.6548978,19.8797741 L11.514388,19.8912672 C11.3004481,19.9212912 11.1742951,19.6668432 11.3650419,19.5376752 C12.5730328,18.7209792 13.5980801,17.8358112 14.9506485,17.2338192 C16.12049,16.7132592 17.3245792,16.2840672 18.5594481,15.9453792 Z M38.8347721,14.6928384 C40.5471583,12.9678624 44.1886883,13.6307664 46.2257776,14.4198144 C47.3884661,14.8703904 48.4939306,15.4399824 49.4147175,16.2921024 L49.5044796,16.3759304 L49.6427544,16.5084387 C50.2642954,17.1148197 50.9574064,17.9492304 50.8587576,18.8234064 C50.8438013,18.9566784 50.7709707,19.1089584 50.6198905,19.1357424 C49.8040144,19.2798144 49.002661,18.8508384 48.2492111,18.5927184 L47.7502211,18.4220917 C47.0008997,18.1677446 46.2468031,17.9247286 45.4742785,17.7492384 C44.5136082,17.5315104 43.5336464,17.4055824 42.5473987,17.4181104 C41.5505299,17.4310704 40.4797466,17.7114384 39.530131,17.3170224 C38.4710526,16.8774624 37.9220053,15.6125664 38.8347721,14.6928384 Z M21.9176878,28.6048788 C21.4807698,29.0494822 20.9037639,29.3003365 20.1652899,29.1511086 C19.5882269,29.0346006 18.4895058,28.4563877 17.6117967,27.5659328 C17.0113261,26.9567425 16.5092491,26.1955288 16.3727631,25.3137167 C16.3410658,25.1089258 16.2320083,24.9776403 16.0888115,24.8949618 C15.9757178,24.8296642 15.8266095,24.7968594 15.6641958,24.8132458 C15.5263073,24.8271578 15.3798861,24.8769112 15.2667425,24.9428848 C15.0515138,25.0683838 14.9634941,25.2465521 14.9456003,25.3795945 C14.7729306,26.6634169 15.2705785,27.9372642 16.0462828,29.0113283 C17.0931427,30.4608428 18.6304974,31.5230412 19.5340951,31.7716572 C21.0803999,32.1973521 22.7097446,31.8584686 23.9110319,30.7860084 C24.8716743,29.9285022 25.3640652,28.8113207 25.820923,27.6625111 L25.9090196,27.4398272 C26.0117727,27.1791522 26.1137482,26.9203941 26.2217873,26.66438 C26.4383249,26.1513715 26.3689747,25.7079389 26.1590172,25.362314 C25.9264223,24.9794242 25.4970962,24.709902 25.0191374,24.6271215 C24.5773746,24.55061 24.1046136,24.6342971 23.7314164,24.9031945 C23.4161538,25.1303488 23.1619153,25.4902615 23.0715872,26.0224796 C22.9246944,26.8878958 22.5839323,27.8808473 21.9830648,28.5359979 L21.9176878,28.6048788 Z M48.4325177,23.5959364 C48.0722205,23.4088589 47.7903448,23.352454 47.3906685,23.4717816 C47.1696483,23.5379366 46.9512058,23.664726 46.7801841,23.8351498 C46.6106922,24.0040492 46.488404,24.2140889 46.4408704,24.4470987 C46.3239629,25.022161 46.0082205,25.5604566 45.5582742,25.9113726 C45.1736971,26.2113069 44.6882738,26.3702791 44.1498476,26.2805931 C43.5688446,26.1839432 43.0152982,25.8126225 42.6340518,25.3748437 C42.5278654,25.2527698 42.4408049,25.1168896 42.3566232,24.9793583 L42.3063297,24.8967386 C42.1184858,24.5877089 41.9359086,24.3004582 41.676844,24.0735109 C41.5786412,23.9871643 41.4306644,23.9273602 41.2873428,23.9273602 C41.2290931,23.9273602 41.1699779,23.9368054 41.1136467,23.9543004 C40.535362,24.5326828 40.4241532,24.9714452 40.4427971,25.4066392 C40.462348,25.8630044 40.6429022,26.3250696 40.9346789,26.7561901 C41.6191155,27.7674928 42.9186312,28.5966667 43.7955546,28.7844785 C44.9964951,29.0416551 46.1891727,28.7329317 47.1454065,28.0645232 C48.129315,27.3767701 48.8583887,26.3089685 49.0856924,25.1056089 C49.140374,24.8157899 49.1171374,24.502963 49.0063759,24.2317287 C48.8981451,23.9666917 48.7095353,23.7396926 48.4325177,23.5959364 Z" id="ðŸ–-Ink"></path>
                    </g>
                    <g id="facial-hair/*-None" transform="translate(26.661202, 73.008000)"></g>
                    <g id="mask/medical-mask" transform="translate(4.768670, 60.696000)">
                        <path d="M85.2415858,15.1969392 C84.8329974,10.0382112 78.3053381,7.8529392 75.0539719,7.2049392 C64.2273563,4.6686672 55.0164528,11.1758832 42.1067953,11.3089392 C40.8038645,11.3292432 37.0777989,11.1102192 35.3450375,10.6542432 C26.5535603,8.6635872 17.7711869,6.5461392 9.14509581,3.9353472 C7.87684627,4.2312672 7.50163862,5.8808592 8.37235446,6.8206752 C16.6342925,9.7403472 29.2740867,12.3548112 35.9489246,12.6524592 C35.8208208,21.2449392 31.2689082,29.8849392 24.9829337,34.6369392 C34.980451,45.6540192 58.2968645,49.2772032 72.0189301,43.4942352 C78.7689829,41.4754992 85.891859,23.4049392 85.2415858,15.1969392" id="ðŸŽ¨-Color" fill="#FFFFFF"></path>
                        <path d="M8.44750437,4.1953896 C8.07576485,4.1809176 8.29252259,3.1009176 9.12985774,3.2549256 C19.9339306,5.7728376 33.3945863,10.5689016 44.4997357,10.5336936 C52.6691182,10.2671496 59.9892439,5.7333096 68.203712,5.7058776 C73.7256155,5.8112856 80.766774,6.5938536 84.631131,11.0093256 C89.7281893,27.1181736 78.2502166,49.0283496 60.1906118,49.1551416 L56.7723919,48.9086898 C45.1208878,48.053282 32.3563905,46.684674 24.8463113,36.8340696 L24.7877867,36.8841816 L24.7877867,36.8841816 C23.6647648,36.1333656 23.7274078,34.5118536 24.6817922,33.6778776 L24.7101874,33.7223736 L24.7101874,33.7223736 C24.7283951,33.6929976 24.7485536,33.6649176 24.7680617,33.6361896 L24.7559233,33.5983896 L24.7559233,33.5983896 C25.1231109,33.2143416 25.5405863,32.8551336 25.9201291,32.5335096 L25.92208,32.5397736 L25.92208,32.5397736 C31.5612494,27.8579736 35.2433131,20.7785736 35.4553022,13.4477496 C33.5883678,13.9588056 2.22222204,7.4788056 7.82129126,5.8974696 C11.8261073,7.2466056 15.8545499,8.4650616 19.9642767,9.4349016 C20.0332056,9.3962376 20.1320472,9.4063896 20.1699798,9.4826376 C25.1974588,10.7155656 30.3263805,11.4201576 35.4620217,11.9906136 C35.4566027,11.7461016 35.4472821,11.5015896 35.4347102,11.2566456 C26.3031401,9.4852296 17.3510454,6.8552136 8.44750437,4.1953896 Z M82.3885554,10.7330616 C63.6587357,1.3044456 54.3615627,15.2340696 36.247335,11.3987736 C38.1424479,19.8240696 33.462865,28.9070856 27.1068778,34.4120616 C36.3420581,42.3772776 40.3390709,43.5834216 52.453661,44.8761816 L54.0362964,45.0639727 C56.4158259,45.3447909 58.817688,45.6067329 61.2046046,45.6477336 C73.5858067,44.7498216 82.9412876,31.9133736 84.3413259,20.2828536 L84.3489136,19.9615675 C84.4116695,17.0099029 84.2756178,13.8855323 82.9633969,11.1814776 C82.721712,11.0976696 82.5116738,10.9466856 82.3885554,10.7330616 Z M56.3134228,18.1344528 C56.9606614,17.9893008 57.6211222,18.6930288 57.2199036,19.3092768 C55.9234756,21.3018768 52.7529601,22.0738608 50.5355284,22.3870608 C47.9675995,22.7497248 45.4783536,22.4637408 43.0389619,21.5908848 C42.908257,21.5440128 42.9175776,21.3137568 43.0740767,21.3323328 C45.3903499,21.6070848 47.7781532,21.4059888 50.0287488,20.7951408 C52.3107743,20.3521248 54.1534319,18.8396928 56.3134228,18.1344528 Z M73.9117602,16.6991544 C73.9010158,16.3205064 75.7690341,17.4160584 76.0644749,17.5635864 C78.3460668,18.9287064 80.9870432,19.0287144 83.5033838,19.5646104 C84.0899302,19.7888184 84.0890632,20.5318584 83.503167,20.7560664 C80.3625641,21.5883144 75.5962781,19.4041224 73.9117602,16.6991544 Z" id="ðŸ–-Ink" fill="#000000"></path>
                    </g>
                    <g id="accessories/*-None" transform="translate(10.187614, 52.056000)"></g>
                </g>
            </g>
        </g>
    </g>
</svg>