<?xml version="1.0" encoding="UTF-8"?>
<svg width="294px" height="426px" viewBox="0 0 294 426" version="1.1" xmlns="http://www.w3.org/2000/svg" xmlns:xlink="http://www.w3.org/1999/xlink">
    <!-- Generator: Sketch 62 (91390) - https://sketch.com -->
    <title>sit-mask-4</title>
    <desc>Created with Sketch.</desc>
    <g id="Introduction" stroke="none" stroke-width="1" fill="none" fill-rule="evenodd">
        <g id="poses-covid-19" transform="translate(-794.000000, -444.000000)">
            <g id="a-person/sitting" transform="translate(838.000000, 413.500000)">
                <g id="pose/sitting/mid-1" transform="translate(-17.950820, 140.649600)">
                    <path d="M46.5048301,69.7551507 C43.8848969,71.2201587 41.7104099,72.2208243 39.6615787,72.9044211 L36.6485004,73.9095027 L39.4822922,75.3420531 C41.4070189,76.3151187 43.2373377,77.5560147 45.0776291,79.1362803 L46.49796,80.3562003 L47.1834154,78.6171795 C48.0836158,76.3327827 48.5217487,73.7341875 48.4854039,70.8935955 L48.4565939,68.6639571 L46.5048301,69.7551507 Z M172.359357,77.1334035 C169.907408,81.5467539 166.947517,85.8916563 164.084915,90.0934803 C157.767113,99.3670803 151.234123,108.956645 149.222523,120.424114 C149.066063,121.374584 148.954221,123.523263 148.886998,126.870149 L150.759645,126.109493 C157.013179,123.568968 163.648112,121.679141 170.064311,119.8518 C172.544405,119.145461 175.108491,118.415276 177.621828,117.655724 C178.645246,117.382594 179.663124,117.063317 180.647981,116.754418 C183.037213,116.005244 185.294363,115.297359 187.667417,115.176802 L188.389882,115.140149 L188.751336,114.515727 C192.020823,108.867663 189.568874,103.483896 186.761233,98.4529683 C185.074742,94.7857011 182.905574,91.3403379 180.807323,88.0073619 C178.632614,84.5531667 176.383886,80.9815059 174.740832,77.2435827 L173.661788,74.7893907 L172.359357,77.1334035 Z M51.6890711,123.92004 C55.4059989,127.805237 58.8585399,131.75292 61.9509564,135.653352 L64.2991895,134.576952 C63.1640772,128.815618 59.6399546,124.756872 53.2082424,121.802789 L51.6890711,123.92004 Z M176.034177,210.715196 C175.662086,210.715196 175.313042,210.859157 175.051536,211.120364 C174.786263,211.385544 174.640662,211.742799 174.641764,212.125666 L176.034177,212.12125 L176.034177,210.715196 Z M21.3641531,306.774236 C19.1803583,303.03565 18.8594597,297.166124 22.1322709,293.983954 C21.0315089,287.111112 23.1940286,279.430805 27.9833517,273.95894 L27.9944324,273.9755 C35.1053948,263.347954 35.6279631,259.561455 30.4324197,247.681752 C21.147192,247.327589 11.5829509,247.221826 2.51690053,245.057103 L2.85597157,243.034796 C2.52044637,242.945813 0.8062539,242.496927 0.438151289,242.401983 C0.487349832,242.778447 0.742871993,244.495388 0.736666772,244.839173 C0.313160396,245.301528 -0.710479555,245.730984 -0.90084689,244.821068 C-6.6041104,220.493324 -11.7083484,196.647807 -17.2544868,172.356274 C-23.0590284,147.839084 -34.73238,108.625666 -6.1582209,95.1138099 L-6.74816019,92.6017683 C-8.3260594,92.6022099 -8.96010008,90.8861523 -9.68345163,88.4619891 C-12.9075075,79.7889651 -6.63846073,71.2852947 -0.776077612,65.9209587 C7.23707964,57.9149715 14.6294931,49.0264467 21.7807894,40.4337939 C42.1800122,15.6829971 69.9361901,-17.3455917 105.416096,-11.7344013 L105.296646,-10.2764589 C110.846773,-9.58005569 116.641785,-8.11548929 122.2615,-9.13558529 C141.448267,-12.4526637 162.322189,-4.94855489 174.122748,10.4590899 L174.556227,7.58736511 C174.597004,7.31644351 174.694071,7.06583551 175.123783,7.06583551 C175.68602,7.04596351 175.983206,7.50500671 176.191081,7.92850111 C196.558391,15.9629715 204.995276,42.1147443 211.503889,60.0397299 C212.334724,63.0695475 212.100477,63.9659955 212.028009,64.1441811 L210.846136,64.8469875 C223.12095,81.1453395 229.866248,100.749068 235.652839,119.336895 C237.565377,124.292088 237.76483,127.725749 234.570692,130.722668 C255.632101,143.353752 272.158822,163.038735 262.814645,185.480626 C250.61939,207.317525 218.326973,221.172725 194.07187,233.715269 C184.440037,238.9235 170.430862,241.696748 161.567811,250.226031 C160.975656,251.099074 160.125984,251.950258 159.611172,251.880264 C155.497553,252.487685 149.375216,226.843532 150.305777,224.789871 C145.963452,226.339666 141.132908,226.257308 136.591129,227.065877 C136.998015,227.95813 138.330586,229.166348 137.33354,230.159285 C137.401132,233.170997 136.937071,236.426693 136.27289,239.496476 C141.723513,238.624536 141.599851,241.478597 136.355774,239.968104 C136.213276,241.298204 135.849605,244.68925 135.710431,245.974748 C137.275698,245.28806 140.391163,244.805832 141.482174,245.880024 C141.036506,247.311692 137.175972,245.963487 135.688935,246.387864 C134.819095,252.826172 134.535428,259.155845 133.9251,265.576268 C138.56572,269.988293 145.814305,271.030911 149.955625,275.80284 C153.464457,279.43478 152.95851,285.529964 148.84201,288.451589 C151.363324,291.402802 149.345519,296.301692 145.66405,297.102533 C140.64868,298.271007 135.406154,296.655192 130.461035,295.297714 C122.24089,292.595784 113.631809,288.384024 104.144026,282.422204 C100.390531,280.088789 97.5948574,276.422405 96.2664968,272.095388 C86.6406467,242.485445 84.0683608,222.365487 88.6119127,212.266757 C91.2047397,210.311794 94.0949632,211.518356 96.4888774,210.450689 C97.6298662,209.941816 98.6581098,209.257597 99.4876716,206.830661 C86.9994415,205.606767 68.794651,207.881007 58.7840772,201.908588 L59.1362235,201.160738 C58.2118671,200.571864 56.1807651,198.108178 55.4079934,197.316168 C56.8008441,214.038015 57.9204433,231.192629 58.474481,247.855743 C60.3107833,250.938332 61.8700669,254.128892 63.5818216,257.688629 C64.7723377,258.855557 66.8552976,260.855784 65.6330906,262.17926 C65.632869,262.17926 75.9115969,286.201416 79.0527688,298.344312 C82.043464,298.470389 83.25592,303.526488 83.1420098,306.884856 C82.6872557,312.9966 74.8285642,313.64509 67.9392169,314.2439 C63.225243,314.737829 58.3783,314.993457 53.603382,314.993457 C44.9761294,314.999919 23.4050062,314.407292 21.3641531,306.774236 Z" id="âœ‹-Skin" fill="#AE5D29"></path>
                    <path d="M35.2728931,257.461676 C41.0351062,252.937926 55.1103218,251.188748 61.0755343,254.783593 C61.3525531,255.728617 62.0847693,256.310204 62.8238555,256.373132 C63.5549635,257.169116 63.8446144,258.372255 64.8208288,258.916748 C68.5191408,271.112415 77.7184062,288.627773 80.2246509,301.1712 C79.7833758,301.313612 82.0204493,302.25014 82.6624165,304.4832 C83.2414649,306.497399 82.240377,309.826393 81.7759563,310.0032 C71.3659224,313.966354 49.3762751,315.088257 37.4529447,313.3152 C22.6047359,311.1072 20.3829561,302.491247 20.3885853,302.496 C19.6335812,298.80061 19.4907619,299.192801 22.1615058,292.7808 C23.2762145,290.104574 21.8191201,286.111639 25.2641166,279.0912 C26.6300015,276.30771 29.5978707,271.005473 34.1677241,263.184487 C34.9334555,261.367732 35.6239314,259.482045 35.2728931,257.461676 Z M120.335179,205.805516 L120.122572,206.16535 C119.492917,207.24333 116.572917,215.122346 117.677596,221.6832 C118.660125,227.51859 123.396451,229.686378 127.034602,230.528492 C131.311995,231.446137 131.902623,229.44719 135.85003,227.6448 C135.842239,227.830825 139.077211,228.180146 138.509411,230.5152 C137.628605,234.137474 136.175534,244.315469 134.96357,250.8288 C133.85607,256.780721 132.883982,259.035296 134.07711,263.4144 C135.189689,267.497868 147.599507,273.036036 150.255009,275.5584 C154.737363,279.816024 148.132577,293.438828 147.450003,294.443468 C144.211078,297.84657 134.709926,295.09974 130.392964,293.853103 L130.263609,293.815929 L130.008898,293.743974 C121.609244,290.835155 111.897629,286.182015 104.323491,281.573257 C100.772775,279.53439 98.3325713,274.352435 97.1766272,270.469004 C91.9704462,251.986499 85.2153977,232.374159 88.2778962,213.041132 C88.7355334,212.391782 94.287748,209.901791 99.4488924,208.492411 C100.536315,208.195462 101.606378,206.180084 102.607772,206.0064 C109.242256,204.855697 118.029586,205.797489 120.335179,205.805516 Z" id="ðŸ‘Ÿ-Shoes" fill="#FFFFFF"></path>
                    <path d="M-14.1614096,100.477528 C-4.24464766,94.1007249 6.73911815,94.1949526 18.5307844,99.5329873 C27.3067776,103.50584 35.7538708,109.858677 45.550651,118.986654 L45.847938,119.264109 L46.1942977,119.593699 C51.7959525,124.939247 56.6257525,130.232954 60.7431352,135.654212 L61.0166715,136.015103 C61.1957948,136.241078 61.3215313,136.272216 61.4699664,136.203609 L61.4936033,136.191962 L62.8404709,135.488874 L63.6629548,136.763061 C64.3407575,137.813109 64.6663861,138.949874 64.7253645,140.225886 L64.7316854,140.384142 C64.7525333,141.009029 64.7196822,141.548001 64.616131,142.421725 L64.573952,142.765885 L64.4722099,143.547806 C64.2853134,144.995871 64.2439162,145.748183 64.3548457,146.498292 L64.3741706,146.620022 L64.3950369,146.736378 L64.4733336,147.150656 L63.9780987,148.679696 C62.6533295,152.776503 61.3631936,156.823268 60.1061944,160.826193 L59.7300873,162.025761 L59.035283,164.249722 L58.7487802,165.118843 L58.6001748,165.57532 L58.5305977,165.798219 C58.4317415,166.120871 58.3569355,166.393858 58.2961653,166.657279 L58.2625156,166.807877 C57.9820899,168.107668 58.1488402,168.606702 58.8914959,168.890647 C59.3795202,169.077367 59.9256416,168.989 60.5962372,168.592509 L60.6685661,168.548847 L64.5741636,166.14342 L63.1189542,170.482278 C62.8946236,171.151143 62.6339347,171.795886 62.2568939,172.640229 L62.1929627,172.782839 L62.0772203,173.038545 L61.5780973,174.129926 L61.4695554,174.371151 C60.6758312,176.144916 60.3361497,177.134588 60.2061281,178.201505 L60.1928385,178.317919 L60.2074064,178.426166 C60.2553659,178.757425 60.3239857,179.017033 60.4050051,179.206853 L60.4255135,179.252855 L60.4465098,179.295955 L60.4766436,179.352209 C60.5136102,179.417385 60.5380141,179.444972 60.5532655,179.455681 L60.5614717,179.460146 L60.5667512,179.461718 L60.5866222,179.465803 C60.6254471,179.472405 60.6799361,179.474295 60.7507662,179.468543 C60.9490946,179.45244 61.2126432,179.381463 61.5260214,179.251176 C62.7608157,178.737811 64.3929088,177.471597 65.823255,176.050014 L65.9227117,175.950589 L66.0500268,175.821546 L71.6267155,170.062381 L68.93912,177.403075 C68.0636873,179.794165 67.7129105,181.564224 67.8163108,182.625543 C67.8346924,182.814214 67.8665823,182.963378 67.9064198,183.073438 C67.9202329,183.111599 67.932975,183.140174 67.9439146,183.160726 L67.9529114,183.176623 L67.9891435,183.182114 C69.0440021,183.30543 71.5037148,181.789763 73.9811356,179.202809 L74.1539902,179.020593 L74.3267976,178.834943 L78.2194443,174.613233 L77.1858914,180.252727 C76.9150183,181.730724 77.206568,182.687559 78.058321,183.177335 L78.1365336,183.220409 L78.1991692,183.256421 C79.0459337,183.719869 80.0721573,183.143174 81.6250814,181.318192 L81.7655664,181.151418 L81.9048448,180.982916 L82.128915,180.706823 L82.6502004,180.054732 L82.7731939,179.89563 C86.9465079,174.45092 89.5636431,167.419447 90.5922334,159.583749 L90.6241871,159.33604 L90.6547714,159.090363 L90.9875481,156.368389 L92.1158227,157.14629 L91.9185762,155.818615 L95.516866,159.528694 C103.92395,168.196962 113.041942,170.424466 122.01637,166.949405 C130.102861,163.818169 137.683716,156.104421 142.897783,146.003002 L143.055058,145.69617 L143.236515,145.329543 C144.732549,142.291438 146.13783,139.09492 147.169031,136.152235 L147.261983,135.884501 C148.512935,132.24696 148.96796,129.496348 148.522537,128.319155 L148.505839,128.27679 L147.790745,126.534628 L149.616168,126.049827 L167.040024,121.409876 C173.329202,119.743208 178.076946,118.506013 182.807932,117.306456 L183.360918,117.166396 L188.258579,115.933929 L187.004497,118.973129 C184.613611,124.767312 182.127451,129.474668 176.964293,138.350543 L176.304768,139.482119 L174.08163,143.284619 L173.390069,144.47545 C168.020251,153.752681 165.120796,159.519681 162.959773,165.808106 L162.891774,166.006866 L162.753066,166.417895 C159.869611,175.041754 159.140513,183.225224 160.840204,191.751787 L160.874138,191.920685 L161.03555,192.413515 C162.767032,197.675309 164.66823,202.689287 166.473206,206.252458 L166.563374,206.429402 L166.7375,206.765056 L166.824311,206.92936 C167.386497,207.986757 167.914391,208.842244 168.392394,209.467373 L168.510286,209.618119 C168.713113,209.871382 168.894896,210.066415 169.04266,210.203383 L169.100018,210.255093 L169.106906,210.243106 C169.314495,209.861365 169.532618,209.218053 169.727084,208.319758 L169.750305,208.210739 L169.772438,208.103447 L170.66574,203.70449 L172.889269,207.69024 L172.969785,207.837543 C173.207445,208.277487 173.413982,208.70742 173.693183,209.333993 L173.789083,209.550417 L174.225912,210.550754 L174.437515,211.026503 C174.72898,211.672477 174.944287,212.103746 175.175081,212.494278 L175.206657,212.547296 L175.296532,212.693895 L175.341585,212.765369 L175.365575,212.792642 C175.844663,213.313776 176.689737,213.158933 177.169777,212.327847 L177.199916,212.27388 L177.228437,212.219234 C177.659604,211.38604 177.830522,210.336215 177.821135,208.822806 L177.819121,208.636068 C177.816221,208.439834 177.811338,208.252472 177.803103,208.027178 L177.799364,207.928165 L177.726089,206.261704 L177.717276,205.999632 L177.715027,205.917977 L177.708646,205.593382 L177.699986,205.292342 C177.688686,204.832078 177.684017,204.355193 177.68399,203.781011 L177.684353,203.485439 L177.692325,201.599364 C177.693369,200.797799 177.687012,200.259995 177.668347,199.714121 L177.662675,199.557702 L177.253784,190.040664 L181.010171,199.035388 C181.525655,200.262778 182.036165,201.443278 182.756324,203.077391 L182.908384,203.42212 L184.879964,207.872338 L185.435958,209.137781 L185.799821,209.974236 L185.819101,209.965404 L186.027932,209.719279 C186.492592,209.171117 186.782418,208.169673 186.893911,206.836459 L186.903286,206.717965 L186.911512,206.601129 L186.917054,206.514369 L186.927177,206.326178 L187.028259,203.754815 L187.124864,201.209458 L187.698153,185.484221 L188.327385,169.500491 L191.130407,181.143309 C191.864645,184.19309 193.13442,187.171936 195.220426,191.038818 L195.447063,191.456569 L195.676022,191.874117 L195.787347,192.075305 L195.806166,192.038219 C195.889658,191.868557 195.96839,191.681482 196.033962,191.493033 L196.071658,191.379927 L196.092591,191.312226 L196.110683,191.250175 L196.241884,190.773219 L196.533547,190.469969 C196.798604,190.194381 197.005079,189.701432 197.121714,189.055205 L197.137059,188.966139 L197.152939,188.861781 L197.155209,188.803291 C197.299748,184.285496 195.545585,164.919954 194.560724,158.233751 L194.501411,157.840468 L194.478494,157.678583 L194.452208,157.507795 L194.41911,157.305103 C194.408103,157.239702 194.396717,157.174245 194.383741,157.102078 L194.355309,156.946824 L194.095822,155.593614 C194.04965,155.348326 194.012855,155.14396 193.979135,154.943749 L193.966622,154.868793 L193.920617,154.580576 C193.699467,153.137103 193.67269,151.986248 193.916997,150.887005 C194.244314,149.414263 195.057294,148.205387 196.393986,147.339978 L196.488094,147.280159 L196.647121,147.180916 L197.39221,146.924027 L197.955514,146.732772 C199.229937,146.303055 200.567006,145.872291 202.279933,145.336266 L202.865259,145.15355 L208.321083,143.464258 L209.552663,143.076546 L210.325827,142.829919 C215.409027,141.199143 219.087646,139.827768 222.558696,138.191793 C227.081802,136.059963 230.826238,133.625904 233.948611,130.671951 L234.121438,130.507307 L235.050283,129.616253 L236.147445,130.291138 C237.274063,130.984142 238.382378,131.695017 239.46972,132.422286 L239.934432,132.734972 L240.073162,132.828877 L240.405376,133.16826 L244.837412,137.664089 L245.57812,138.424516 C251.348462,144.369863 254.918234,148.572272 257.877952,153.24441 L257.971216,153.39211 L258.166285,153.704147 C262.325842,160.403221 264.403065,167.130937 264.158445,174.37035 L264.150321,174.589884 L264.147046,174.738945 C263.995373,180.287342 261.891804,185.345959 258.103665,190.078612 C255.099225,193.832163 251.219594,197.21343 246.052955,200.875763 L245.544886,201.233914 L245.032563,201.591087 C229.829687,212.482142 213.152703,222.122347 195.13116,230.56584 C189.526803,233.196863 183.652848,235.77643 177.315981,238.405465 L176.720538,238.652086 L175.556801,239.131715 L174.907843,239.394164 L174.246827,239.664246 L173.829269,239.836769 C167.825697,242.330089 164.029831,244.472983 160.932094,247.460512 L160.82555,247.563867 L159.3392,249.01415 L158.24764,247.249615 C153.798879,240.058071 151.233074,231.788209 149.269213,220.334852 L149.162141,219.703792 L149.056505,219.069428 L148.808085,216.219367 C148.660651,214.553293 148.543751,213.295109 148.425131,212.115814 L148.340694,211.292188 L148.220556,210.170748 L148.121482,209.606021 L147.858452,208.083708 L147.681498,207.077826 L147.585326,206.540979 L147.480666,205.965606 C147.359146,205.3032 147.239476,204.671069 147.119627,204.061448 L147.068245,203.801537 C146.905449,202.982621 146.74663,202.228194 146.59238,201.545213 L146.491072,201.104479 L146.369149,201.147096 C137.962089,204.057779 129.021407,205.436037 120.199163,205.173827 L119.880339,205.163635 L119.613376,205.15373 L118.701929,205.166855 C115.202694,205.211717 111.703969,205.198732 107.240927,205.132594 L105.266341,205.101008 L102.27051,205.045993 L94.7808939,204.897761 C89.2522285,204.795019 85.819414,204.759267 82.2321775,204.778976 L81.8278432,204.781426 L80.4459309,204.793086 L78.4106066,204.818399 L77.6139276,204.831343 L74.3621039,204.899888 L73.2204511,204.920489 C69.6943121,204.977275 67.5870811,204.939138 65.2906947,204.743122 L64.8123538,204.700294 L64.4020286,204.660614 L64.2138271,204.619204 L64.0307455,204.577008 C62.488041,204.211885 61.2716207,203.675749 59.0289487,202.490537 L58.0105043,201.949397 C57.2694291,201.557948 56.8001627,201.32194 56.3043604,201.095571 L56.1742226,201.036641 L55.2825781,200.636125 L55.1851021,199.478627 C55.0134612,197.505336 54.7777156,195.895116 54.4983266,194.675333 L54.4437119,194.444129 L54.4317335,194.395913 L54.4215062,194.459862 C54.2743182,195.401783 54.2074928,196.529645 54.2383147,197.755483 L54.2436725,197.940083 L54.2498546,198.109858 L54.3082361,200.535915 C54.3870294,203.570075 54.4885747,206.551432 54.6482479,210.569279 L54.7450747,212.961546 L55.2816282,225.695449 L55.3821205,228.215396 C55.6042983,233.922173 55.7412902,238.46678 55.8129153,242.8894 L55.8272703,243.835616 L55.8548392,245.960091 L54.3691058,246.13522 C38.6571143,247.987257 22.2062666,247.396813 2.14649185,244.790108 L1.53751227,244.710501 L0.383771644,244.558789 L-0.650828302,239.915396 C-1.80628854,234.752423 -2.94324266,229.757822 -4.43383279,223.295328 L-5.71899258,217.73718 L-11.3881795,193.332937 C-11.9861939,190.75149 -12.5086924,188.488799 -12.99716,186.364335 L-13.8585195,182.607233 L-14.9537762,177.797248 L-15.0154443,177.47124 C-15.3625898,175.654206 -15.8057983,173.633572 -16.3939061,171.156309 L-16.6075697,170.262609 L-16.9987288,168.656426 L-18.749786,161.609632 L-19.3558971,159.160842 L-19.7231272,157.650467 C-21.0588824,152.117462 -22.0057687,147.736135 -22.7582552,143.415869 L-22.8519635,142.872132 C-24.3929765,133.830074 -24.8155032,126.177898 -23.8951007,119.527611 C-22.7959149,111.585541 -19.7727016,105.267383 -14.494567,100.741514 L-14.3339329,100.604915 L-14.2518095,100.535659 L-14.1614096,100.477528 Z" id="ðŸ‘–-Pants" fill="#8FA7DF"></path>
                    <path d="M63.3582158,-2.8605744 C78.0016524,-12.5665008 97.0129001,-17.6771376 113.995262,-11.3218512 C114.196932,-11.2511952 114.116929,-10.9575312 113.906394,-11.0038992 C111.222858,-11.5912272 108.496771,-11.9202192 105.755614,-12.0328272 C111.311725,-11.3558544 116.703398,-9.9016656 122.329983,-10.8817968 C141.123383,-13.9780752 161.052338,-7.6179312 173.538574,6.9493488 C173.861467,4.8089136 176.527718,4.8884016 177.396892,6.4017648 C194.002509,12.2364048 203.40763,34.1558832 209.680001,49.3672368 C210.416871,52.0786608 215.534628,63.3376944 213.076917,64.7989488 C224.774867,80.7842064 231.356835,99.7125072 237.197278,118.435685 L237.364381,118.891134 C238.690147,122.555626 239.701767,126.702737 236.893887,129.963653 C248.541974,137.06723 259.311801,146.608661 264.402964,159.537605 C272.511637,178.609205 262.179057,194.767128 246.068972,205.099906 C230.103158,216.630523 212.806325,226.230907 194.926643,234.474917 C188.914227,237.243749 182.826461,239.842565 176.703459,242.359906 L176.094076,242.60819 C171.284104,244.58083 166.430496,246.899625 162.832572,250.695106 C155.836406,260.879064 149.374111,230.373336 149.302973,226.122053 C146.021962,227.105717 142.40875,227.127797 139.022029,227.641378 C139.452184,228.376642 139.485204,229.332706 138.961971,230.116546 C138.969949,232.605403 138.705563,235.113912 138.217566,237.579365 C143.415547,237.119659 143.235596,242.348866 137.816665,241.143077 L137.546073,243.671237 L137.546073,243.671237 C140.020183,242.906827 145.245645,244.128072 142.184697,247.06957 C140.581756,247.859371 138.87399,247.131173 137.164895,247.215077 C136.428468,252.993854 136.148125,258.776606 135.609379,264.580997 C140.252214,268.606181 147.144442,269.672645 151.266039,274.503749 C154.867949,278.431339 154.957481,284.575982 150.834333,288.272837 C153.049376,292.044542 150.371601,296.957563 146.275711,297.948514 C140.996176,299.199566 135.467102,297.532526 130.372393,296.124706 C121.10731,293.083107 112.339636,288.484188 104.090596,283.326094 L103.732269,283.10148 C99.6505625,280.563826 96.6964338,276.614597 95.2925024,272.041608 L94.9922773,271.114952 C90.0066834,255.672279 81.1391853,225.38228 87.791276,211.074754 C90.9255777,207.611285 95.9775146,211.644418 97.8038443,207.563813 C86.02035,206.644181 67.03348,208.690334 57.4322292,201.975365 C58.3749797,215.483026 59.7733707,228.982296 59.7175237,242.529701 C59.4781794,244.311336 60.6853166,245.425934 60.2002013,247.223909 C61.9529548,250.211774 63.4661424,253.3266 64.9673628,256.444738 L65.0622038,256.532962 C66.620979,258.005252 68.6247071,260.992529 66.5738503,262.743941 C73.553395,272.934744 77.3396882,284.962382 80.433656,296.791301 C83.7246396,297.543346 84.9679001,303.648024 84.7640143,306.566117 C83.8403227,314.407387 74.5105504,314.45795 68.3800131,315.119909 C64.7987137,315.495269 61.2063336,315.729317 57.6073051,315.826469 C50.3252559,316.022981 43.0338989,315.638789 35.8116858,314.693323 C29.9280276,314.179742 23.4236257,312.646728 20.4932098,306.967973 C18.1305716,302.891784 17.7618042,296.774962 21.0297398,293.117189 C20.074477,286.111752 22.3138641,278.809623 26.6897244,273.286164 L26.8229791,273.119333 L26.8118244,273.115096 C26.7114922,273.071132 26.7204077,272.905781 27.1299241,272.823156 L27.175347,272.814629 L27.3719075,272.511494 C33.8015474,262.581402 34.6026804,259.858723 29.8322899,248.533253 L25.4974114,248.37874 C17.4646378,248.085593 9.34767758,247.664095 1.57415392,245.673893 C0.472948695,246.588005 -1.46418852,246.482242 -1.89633789,244.689346 C-7.55128931,220.578206 -12.7399627,196.354901 -18.2535237,172.208875 C-23.9840458,146.797224 -36.3322152,108.220373 -6.45052732,93.4852848 C-9.5026099,93.4859472 -10.1827465,89.8372272 -10.9244921,87.5347248 C-13.6439305,78.5868048 -7.65168094,70.3191696 -1.38418549,64.5097008 C20.6175358,42.5036688 37.1708509,14.7793584 63.3582158,-2.8605744 Z M21.399837,295.810949 C20.9863033,307.657752 29.9849827,310.498565 40.1132341,310.801061 C46.4246093,311.399429 52.7829669,311.582693 59.1187198,311.335618 L62.1032016,311.163428 C67.0876525,310.871103 72.1097575,310.505741 76.9607265,309.372485 C80.1553075,308.718254 80.9562243,305.871259 79.8022747,303.088517 C79.3036409,303.309317 78.7139232,303.324773 78.2529639,303.002405 C77.7366008,302.642501 77.362293,302.260517 77.0784041,301.810306 C60.6658145,309.08699 40.0137289,308.290123 24.107973,299.917829 C22.0697793,299.818248 21.8051709,297.39276 21.399837,295.810949 Z M61.2974174,258.312706 C55.3322049,254.717861 43.2515249,253.155038 37.4893118,257.678789 C37.8842298,259.951704 36.9609815,262.054162 36.0953531,264.079781 C38.7243725,263.454475 61.5930519,260.384472 58.3630124,265.985506 C56.5546336,267.438149 54.0927119,266.438146 52.0026603,266.241413 C46.3973506,265.77707 40.7532583,265.924786 35.1645698,266.557378 C34.6774599,267.918168 34.4893087,269.444338 33.8834132,270.728069 C39.5436874,268.867182 45.4654442,267.976864 51.40454,267.658601 L51.7345061,267.641506 C54.3274022,267.504389 57.361534,266.932517 59.2918012,269.043144 C60.9368497,271.284485 57.2857417,272.826773 55.404673,272.607077 C47.3932887,272.36773 39.3655049,272.663381 31.3614338,273.006946 L31.0095877,273.585323 C25.3534729,282.914907 24.1355685,286.58906 26.4216342,297.778277 C26.4085589,297.767237 26.3950404,297.758405 26.3839596,297.747365 C26.375095,298.352578 26.1802954,298.897733 25.7656536,299.304005 C43.0146184,304.881192 59.0803804,304.564344 76.2207538,299.032642 C73.7145091,286.489214 68.741024,274.641528 65.0427119,262.445861 C64.0664976,261.901368 63.7768467,260.698229 63.0457386,259.902245 C62.3066524,259.839317 61.5744362,259.25773 61.2974174,258.312706 Z M102.63328,207.703138 C95.1178698,212.997922 98.5119044,219.254952 100.589767,226.444421 C103.627002,237.013013 105.960386,247.779883 108.559266,258.4602 C110.090183,267.94643 116.110578,276.174322 124.772181,280.441061 C128.668395,282.486552 132.943128,283.809586 137.311382,284.353637 C138.997873,284.524315 140.866531,284.344142 141.996103,285.850661 C142.636792,286.541765 142.707487,287.676677 141.996103,288.354754 C139.762445,290.878056 133.269788,288.601608 130.257818,287.972328 C107.938301,281.231525 104.546039,265.118424 100.240945,244.916549 C98.1548825,233.696597 93.0291478,221.879602 96.121786,210.500453 C94.2513549,211.496923 91.3776724,211.155125 90.0510847,213.037445 C86.9885862,232.370472 93.7436348,251.982811 98.9498157,270.465317 C100.10576,274.348747 102.545963,277.764302 106.09668,279.80317 C113.670818,284.411928 121.609512,288.623467 130.009166,291.532286 L130.263877,291.604242 C134.526612,292.822967 143.7354,296.110857 147.007041,292.673381 C147.689615,291.668741 147.658589,290.593445 146.798723,289.926408 L146.381975,289.768529 C145.581774,289.460315 144.639545,289.026322 144.493757,288.094488 L144.485062,288.030178 L144.515866,288.018917 C143.820216,286.74733 145.170295,285.322949 146.379649,285.011621 C148.08409,284.950238 148.876807,283.819301 149.482703,282.158885 C150.569503,274.031458 139.115772,271.859669 135.318841,266.299042 C134.916388,268.328856 131.780757,267.942014 131.797156,265.894757 C131.673274,259.676146 133.029779,253.400568 133.958346,247.265861 C132.529151,247.20492 131.010423,247.780546 129.618902,247.468776 C129.413465,246.187694 133.427578,244.84523 134.532329,244.422178 C134.760593,243.362117 135.002153,242.306693 135.259227,241.255906 C126.330799,241.793333 130.478104,238.940597 136.116877,237.963778 C136.292396,237.367807 136.44626,236.755614 136.586424,236.150281 L136.655402,235.848293 C137.01198,234.331397 137.200575,232.898405 137.262627,231.416837 C133.315219,233.219227 128.874497,234.31285 124.597105,233.395205 C116.868501,231.606283 112.862366,222.258274 115.964977,215.243237 C115.259133,212.755042 116.644892,210.108754 117.897682,208.009829 C112.809621,207.992165 107.718902,207.853061 102.63328,207.703138 Z M27.0734041,272.936069 C27.0067533,272.975813 26.943967,273.020649 26.8831752,273.069366 L26.8229791,273.119333 L26.8381277,273.123413 C26.9113355,273.138524 27.0179412,273.097253 27.0822687,272.942693 C27.0687502,272.955941 27.0687502,272.949317 27.0734041,272.936069 Z M27.543228,272.779301 C27.4213397,272.782981 27.3179193,272.792794 27.2278369,272.806185 L27.175347,272.814629 L27.1586257,272.840731 C27.1273063,272.887984 27.1078494,272.907775 27.0844848,272.940706 C27.2132432,272.836709 27.3878758,272.788354 27.543228,272.779301 Z M36.7690628,265.369253 C36.3528698,265.424232 35.9373415,265.473912 35.5189323,265.526242 L35.4369347,265.749029 L35.4369347,265.749029 C35.8801648,265.616549 36.323395,265.490693 36.7690628,265.369253 Z M55.2404563,247.387301 C47.8150222,248.14067 40.3315249,247.676328 32.9038746,248.517797 C34.3603288,250.522219 35.3992602,252.740818 36.270429,255.082181 C42.3710483,249.342043 52.1577908,251.097845 59.4976815,253.212005 C59.0037016,251.774376 58.5487259,250.323499 58.1413974,248.860037 C57.0430732,249.036456 55.7889536,248.421528 55.2404563,247.387301 Z M236.35093,130.665797 C226.20096,140.971637 210.860766,143.804722 197.732512,148.354306 C194.545022,150.343493 196.102976,154.285214 196.509196,157.278821 C197.269336,162.192725 197.872794,167.130254 198.310927,172.083461 C199.932706,170.21461 204.18151,169.970405 206.559218,169.210853 L206.875984,169.139613 C210.047872,168.414332 213.344363,167.326645 216.580872,168.031781 C217.886185,168.314405 217.974609,170.114146 216.937451,170.754245 C214.310291,172.380006 211.096101,172.426766 208.084603,172.782382 L207.314401,172.874296 C204.649388,173.190262 201.963491,173.478664 199.285811,173.366309 C198.948957,173.419301 198.609886,173.291237 198.397135,173.063813 C198.730666,178.242014 199.3995,183.494184 199.172788,188.680997 C199.048905,189.601733 198.751941,190.604165 198.095739,191.286437 L198.074059,191.365309 C197.702792,192.675261 196.494995,195.013757 195.104157,193.282469 L194.842897,192.814514 C192.800356,189.141793 190.863643,185.301563 189.876258,181.200293 C189.547603,189.494424 189.281665,197.78436 188.949685,206.075842 L188.938841,206.27486 C188.854163,207.682265 188.578188,209.375176 187.659886,210.458501 C187.740997,211.102133 187.162138,211.477051 186.64511,211.246978 L186.576459,211.278588 C186.080913,211.49965 185.283276,211.703813 184.98056,211.101029 C183.236449,207.036101 181.379315,203.035205 179.677311,198.959237 C179.767287,201.051096 179.665787,203.147371 179.732715,205.240997 C179.766179,207.630053 180.211625,210.438629 179.06787,212.648837 C178.091434,214.584811 175.658987,215.091326 174.353896,213.406402 C173.308094,211.797211 172.715274,209.808245 171.763659,208.102565 C169.082338,221.306405 162.292718,201.897422 161.046133,197.897189 C157.214409,200.129477 153.174588,202.015109 148.996923,203.523173 C150.145997,205.257557 149.868091,207.615259 150.229324,209.608642 C150.554876,212.580389 150.81195,215.554565 151.069023,218.533378 L151.163957,219.103473 C152.728837,228.419462 155.008005,237.941821 160.024709,246.051461 C164.27174,241.907486 169.844029,239.46301 175.293765,237.268037 C181.856009,234.572069 188.364843,231.752453 194.78481,228.738533 C212.13882,220.607794 228.848374,211.075637 244.424366,199.917288 L244.953795,199.548023 C253.609837,193.478338 262.630132,185.519415 262.851658,174.194309 C263.59828,155.628562 248.018298,142.963474 236.35093,130.665797 Z M45.0727574,120.142469 C30.2549098,106.290139 7.56773315,88.3795056 -12.8979742,101.539627 C-32.0144891,117.661118 -16.8684296,156.316133 -12.9635723,177.133157 C-7.99828689,199.015099 -2.75044232,220.837205 2.11711081,242.739461 C19.4744454,245.02187 37.0928424,246.217502 54.535942,244.161413 C54.3387046,228.71844 53.2929032,213.295118 52.9511727,197.846405 C52.6333767,189.887006 52.743741,181.896475 51.5465765,174.013253 C50.5306931,167.603208 51.8353409,159.859973 48.2529335,154.260706 C46.9270106,152.221838 44.7704745,150.436891 44.2884617,147.978946 C44.277381,147.863909 44.4278576,147.826373 44.5009906,147.890405 C45.5494514,148.808933 46.3915886,149.904101 47.5038746,150.785093 L48.3218797,151.416313 C49.6522069,152.448419 50.9773339,153.55008 51.8012122,155.017829 C51.8858692,154.392302 50.2979973,148.817323 51.2489475,149.482373 L51.4281332,149.971191 C52.706942,153.476174 53.8597699,157.022011 54.1880064,160.771877 C55.4432341,173.553326 56.1446457,186.397704 57.2194787,199.197701 C59.8119317,200.3622 62.1938503,202.074062 65.0249827,202.692965 C69.6618681,203.150088 74.3052136,202.891541 78.9501693,202.830556 L79.3856384,202.825445 C92.9385073,202.623854 106.449048,203.382082 119.991944,203.168126 C133.834907,203.703346 147.985693,200.089512 159.800657,192.829829 C153.327502,163.696594 175.553055,142.91821 185.829345,118.014178 C173.991777,120.989678 162.211164,124.185538 150.406394,127.320677 C151.999585,131.20212 146.847035,142.201272 144.907903,146.099275 C134.532994,166.482648 113.551367,179.803954 94.6837259,160.350149 C94.6925905,160.409765 94.6990173,160.469381 94.7058874,160.531205 C94.0722899,159.954917 93.372208,159.447739 92.6668072,158.961317 C91.7191812,166.712501 89.1559815,174.525509 84.318568,180.749861 L83.7908881,181.409591 C82.2819771,183.284639 80.0973796,185.750296 77.6814186,184.333445 C75.9025146,183.374731 75.5678758,181.50875 75.9129305,179.625989 C70.100854,185.929387 63.7684253,187.353326 67.7397672,176.506306 L67.6083267,176.642047 C65.3851693,178.917226 59.4845353,183.944537 58.8838078,178.000901 C59.1457568,175.041739 60.9749675,172.400088 61.9046427,169.628165 C60.9115856,170.239781 59.7946457,170.542277 58.6577605,170.107301 C55.6085589,168.941477 57.1775935,165.466306 57.8577301,163.278178 C59.5799007,157.746917 61.3370865,152.224709 63.1237471,146.713541 C62.5045546,143.43731 64.4654047,140.177419 62.6271078,137.329541 C61.8403743,137.740229 60.7808327,137.654117 60.0209147,136.642853 C55.5620197,130.725413 50.4449281,125.242949 45.0727574,120.142469 Z M2.32321281,243.744101 C2.32786673,243.777442 2.32786673,243.806146 2.32986126,243.839045 C2.50072647,243.850306 2.66915392,243.865541 2.8395759,243.880997 C2.66582969,243.839045 2.49429964,243.788702 2.32321281,243.744101 Z M148.702175,222.470242 C145.967223,194.40612 153.064002,207.622546 124.240526,207.941381 C124.369949,208.644187 123.442934,208.563374 123.770481,208.367746 C123.353179,206.816846 120.986552,211.361573 120.656789,211.951109 C120.034272,213.267077 119.750383,214.905413 119.531206,216.344808 C117.986549,224.40732 123.742779,231.470712 132.136449,228.043013 C131.056076,227.953147 129.842068,228.342418 128.945414,227.654405 C128.949846,227.652197 128.952062,227.647781 128.956273,227.643365 C128.153362,226.209931 132.557296,226.147666 133.433119,225.764578 C136.845991,225.053822 140.267505,224.39341 143.660432,223.596101 C145.313902,223.207493 147.007041,222.598306 148.702175,222.470242 Z M176.413143,211.626533 C176.16715,211.483013 176.293249,211.953317 176.375468,211.714853 C176.386549,211.683941 176.401841,211.655237 176.413143,211.626533 Z M207.450332,61.7784048 C195.113908,62.6560848 187.127123,68.7280848 178.37222,76.5145968 C177.718456,77.0776368 177.055605,77.6296368 176.377685,78.1639728 C180.202982,84.8482512 184.327238,91.3556688 188.31365,97.9476528 L189.060739,99.1875228 C190.223382,101.12137 191.35868,103.089994 192.050745,105.243106 C194.408507,112.677883 186.174178,125.764258 183.181932,133.064126 C168.863383,158.246146 155.413565,175.728869 168.441428,205.554533 C169.140845,203.672434 167.595966,197.101867 169.906525,196.846181 L169.859957,196.379223 C169.121417,188.797558 169.088199,179.666136 171.393119,172.971298 C170.117502,185.925634 171.500159,199.502184 176.42644,211.595842 C177.715353,200.130581 176.007587,187.322856 176.404057,175.545605 C176.388765,173.735045 179.13657,173.754917 179.214357,175.545605 L179.308062,178.586453 C179.630022,188.891643 180.186257,199.682781 186.199442,208.400645 C186.778522,195.129682 184.349621,181.150613 189.01617,168.427013 C189.397569,167.510693 190.771361,167.581349 190.811252,168.670114 C190.897017,173.001106 192.735092,187.661784 195.906182,190.204517 C196.777351,187.552709 196.688483,184.651397 196.548644,181.873733 C196.116938,171.808123 194.660484,161.986277 192.872715,152.061538 C192.549379,150.100392 193.128459,147.686606 195.165988,146.930146 C196.679618,145.494946 198.76967,144.476837 200.498267,143.660098 C211.483504,138.25116 226.595878,139.293115 234.02641,128.153093 L234.386965,127.610871 C235.253308,126.304613 236.065355,125.014688 236.430711,123.447845 C235.429454,119.720299 233.989843,116.087256 232.767414,112.427717 C231.674608,109.194542 230.552902,105.972099 229.376445,102.768434 L228.982229,101.701253 C223.729952,87.4124016 217.043161,73.6967472 207.450332,61.7784048 Z M122.387824,207.987749 C122.10665,208.078746 121.884014,208.359248 121.644791,208.568179 L121.593053,208.611679 L121.739157,208.495744 C121.894203,208.371208 122.033998,208.255329 122.249043,208.091935 L122.387824,207.987749 Z M57.3280701,200.626277 L57.3945546,201.491813 L57.3945546,201.491813 C57.8200556,201.578146 58.2369135,201.686117 58.6535498,201.792101 C58.1702073,201.443237 57.7205504,201.056837 57.3280701,200.626277 Z M120.178211,181.074393 C120.129456,180.904597 120.373233,180.805237 120.464316,180.954719 C124.049605,187.240453 131.107601,189.74278 137.902984,190.738809 C139.059814,191.008405 138.917981,192.600373 137.902984,192.935769 C134.104502,194.190133 129.71874,192.500793 126.60948,190.251061 C123.422656,187.947897 121.248834,184.836825 120.178211,181.074393 Z M188.531054,177.486437 C187.858231,182.324606 187.919397,187.259045 187.861555,192.143141 C188.08317,187.259045 188.267111,182.370533 188.531054,177.486437 Z M89.5465337,186.007043 C90.2514912,186.249923 90.9806047,186.409119 91.6984159,186.470723 C90.9362817,186.833055 90.0651129,186.651779 89.5465337,186.007043 Z M34.2645911,29.5504368 C23.4874508,41.7094512 14.052633,55.0192752 2.46105738,66.4463376 C-4.33100091,72.5624976 -10.7569511,80.9217648 -5.45990801,90.1269168 C-4.34274651,90.5663088 -4.14639557,92.2059696 -5.10975622,92.9774448 C-4.87971979,92.9478576 -3.40132574,92.2340112 -3.73352672,92.8184688 C-6.70294687,94.0814448 -9.31379387,95.9118768 -11.5631867,98.1265008 C2.45174954,87.8537808 21.0350586,96.0781392 33.2584587,105.284837 C39.2910422,109.676549 44.8998977,114.516485 50.1521746,119.725378 C52.0316919,120.060773 53.9750343,121.060997 55.5416311,121.842629 C66.3466949,127.014427 68.0396123,134.003189 67.1480549,145.174565 C63.9051618,151.333781 62.3711424,158.37708 60.1117769,164.980546 C57.7879214,170.113925 62.3596184,166.65421 63.0149341,164.415077 C64.6059241,162.441957 65.3736164,159.820036 66.3489106,157.526218 L66.4189414,157.362946 C66.6959602,156.706949 67.2898886,156.218981 68.0544605,156.437573 C68.6682871,156.612832 69.2375338,157.369304 68.9992757,158.024497 L68.5097393,159.280759 C66.1393212,165.351161 63.6902368,171.453353 61.8026998,177.674117 C68.1807811,173.867746 71.3387957,166.663262 74.6871776,160.301573 C75.6071017,158.610245 78.0825419,160.100645 77.2537016,161.796389 C76.4846973,163.361861 75.70018,164.922917 74.8691236,166.457477 C72.6970744,171.068885 71.1224994,175.934434 69.8185164,180.855845 C76.9875419,176.595509 79.4862517,167.91564 81.5483798,160.591042 C81.6755868,158.50139 84.6995243,158.91252 84.3874903,160.963973 C83.6204806,165.035746 82.4505747,169.047461 80.6200343,172.776773 L80.136027,175.596552 C79.8138972,177.476623 79.4948208,179.357349 79.1906172,181.240037 C79.3632553,181.156133 79.5496336,181.145093 79.7289202,181.189253 C86.0806293,174.816302 88.6229973,166.023826 90.8406991,157.572706 C89.7862547,153.998395 91.0767192,150.343272 90.9293452,146.658341 C91.4902529,141.940507 89.9631035,137.543938 87.848231,133.331515 C86.5808145,120.30012 73.9842146,114.64764 65.2018315,106.987867 C54.4453015,96.3960912 48.7896852,80.1787728 33.6706627,74.9292528 C32.0987471,75.0288336 30.5833434,74.6925552 29.112041,74.1873648 C29.0477726,74.1697008 29.0366919,74.0593008 29.112041,74.0482608 C30.6086075,73.8047184 32.1042875,73.4240592 33.6043998,73.1518128 C34.0086257,71.8380528 35.6248643,71.6775312 36.8402013,72.2648592 C49.9132735,66.5556336 60.7489202,56.51652 71.137126,46.9649328 C60.9938048,37.6151568 47.8608965,31.8107664 34.2645911,29.5504368 Z M94.4200039,162.085593 C94.6371867,162.326265 94.827554,162.586809 94.9696093,162.871861 C95.0083919,162.944946 95.0039596,163.031941 95.0161485,163.112533 C94.8297702,162.763669 94.6325328,162.419001 94.4200039,162.085593 Z M52.9491782,122.564645 C56.5606172,126.340104 60.028228,130.274539 63.2919529,134.390693 C62.1213822,128.450069 58.2874417,125.016408 52.9491782,122.564645 Z M173.820247,77.3337648 C165.978841,91.4475216 153.700702,103.845442 150.829901,120.210917 C150.599421,121.610789 150.583686,123.028546 150.554876,124.441445 C159.30845,120.88524 168.523869,118.669733 177.554239,115.940424 C180.977083,115.029182 184.301088,113.595086 187.897014,113.412485 C190.860893,108.292354 188.480526,103.280414 185.871452,98.6102736 C182.47232,91.1962512 177.095496,84.78444 173.820247,77.3337648 Z M47.4531248,70.4690928 C45.1857811,71.7369264 42.8475206,72.896568 40.3813883,73.7192688 C42.5044605,74.7923568 44.4455868,76.1480688 46.2431066,77.6914608 C47.1461879,75.3999984 47.4843725,72.9179856 47.4531248,70.4690928 Z M105.10185,-10.8912912 C103.924631,-0.5516688 103.981807,10.1173872 106.73759,20.2086096 C110.846777,35.9350896 126.061759,50.6379408 143.277038,47.5544688 C160.646783,43.937544 169.184281,26.0134416 172.765138,10.2525168 C163.618198,-1.3112208 149.298984,-8.5448496 134.541194,-9.1270992 C124.945262,-9.5179152 114.097205,-6.4355472 105.10185,-10.8912912 Z" id="ðŸ–-Ink" fill="#000000"></path>
                </g>
                <g id="Head" stroke-width="1" transform="translate(76.457195, 39.744000)">
                    <g id="head/Long-Curly">
                        <path d="M75.943649,32.3953123 C61.398777,20.5922275 38.0904923,16.7598019 22.5210438,28.6677667 C10.4233901,39.8431171 5.41705262,71.5998979 7.55798171,87.5575555 C8.15331083,97.7927395 15.9852501,109.393792 27.482046,106.156644 C29.4343362,105.964768 31.3300127,105.217581 33.3002159,105.061034 C35.656985,104.790112 38.031667,104.785476 40.383792,105.117338 C45.5091068,105.84112 50.0525825,108.558064 55.0270747,109.828327 C64.2575509,112.185146 74.5566118,110.599802 82.5019998,105.290887 C108.758181,88.0556803 96.8648674,49.0767523 75.943649,32.3953123 L75.943649,32.3953123 Z" id="âœ‹-Skin" fill="#AE5D29"></path>
                        <path d="M74.0066401,110.111966 C74.2766612,110.01901 74.54624,109.922078 74.8138285,109.822718 C74.8315203,109.884542 74.8602695,109.943938 74.8936628,110.001566 C74.9312578,110.094302 74.9688529,110.18461 75.0106498,110.275138 C74.6747267,110.277566 74.3383613,110.21773 74.0066401,110.111966 M73.4672613,-4.2670704 C73.3478416,-4.5340176 73.210509,-4.7901456 73.0557058,-5.0376624 C73.4316565,-4.9160016 73.8078284,-4.7481936 74.1483956,-4.5318096 C73.9184022,-4.4545296 73.6926106,-4.3662096 73.4672613,-4.2670704 M16.0153483,30.6548784 C15.9998679,30.6522288 15.9846088,30.6500208 15.9693496,30.6473712 C16.1666132,30.1229712 16.5180166,29.6279376 16.9061305,29.2704624 C16.9757919,29.2062096 17.0512032,29.1468144 17.1241819,29.085432 C16.7121841,29.5753872 16.3384448,30.0980208 16.0153483,30.6548784 M121.137599,85.4903376 C120.942989,83.6488656 120.695304,81.8142384 120.37464,79.9902096 C120.067245,78.2439024 119.808502,76.3759344 118.917277,74.8259184 C118.032687,73.2825264 117.145886,71.7830736 116.093445,70.4253744 C116.243604,69.7320624 116.442858,69.0807024 116.615132,68.5551984 C117.610296,65.5302384 118.5902,61.6883184 116.52225,58.8775344 C116.04236,58.2261744 115.45654,57.7271664 114.786242,57.2767344 C114.500962,57.0846384 114.027927,56.9102064 113.80877,56.6452464 C113.653967,56.4575664 113.707263,56.5591344 113.700408,56.4663984 C113.662813,55.9673904 114.834894,54.9141744 115.109117,54.5189424 C115.622401,53.7878736 116.004765,52.9645104 116.296679,52.1232624 C117.451069,48.7935984 116.665996,45.1261104 115.971814,41.7896016 C115.604709,40.0212144 115.200009,38.2481904 115.067099,36.4420464 C114.943257,34.7463024 115.175462,33.0903024 115.312573,31.4033904 C115.445483,29.7383376 115.410099,28.0207344 114.695571,26.4793296 C114.346158,25.7286096 113.817837,25.0662096 113.174077,24.5495376 C112.546239,24.0441264 111.763155,23.7504624 111.150798,23.2470384 C110.54021,22.7456016 110.714916,22.0679664 110.874364,21.3746544 C111.093078,20.4340464 111.369513,19.5000624 111.39605,18.5285424 C111.444703,16.8350064 110.752511,15.1854096 109.671321,13.9049904 C108.556516,12.5823984 106.964254,11.6879376 105.243727,11.4870096 C104.456441,11.3942736 103.682425,11.5512624 102.899563,11.4960624 C102.125547,11.4430704 101.957696,11.0566704 101.811517,10.3501104 C101.475594,8.7316464 101.612484,7.1330544 100.814363,5.6227824 C100.106691,4.2803184 98.8481405,3.3704016 97.4571226,2.8340784 C94.9075129,1.8493104 91.9419247,2.0524464 89.2525498,2.6329296 C87.6649318,-2.0301456 82.7090159,-5.0882256 77.8327132,-5.1257616 C77.0717446,-6.4152336 75.7824546,-7.3779216 74.3120448,-7.9433904 C71.8794221,-8.8817904 69.3028324,-8.3339856 66.768703,-8.3339856 L66.7576457,-8.3339856 C66.5031049,-8.3496624 66.2487852,-8.3560656 65.9946867,-8.3538576 C65.7556263,-8.3673264 65.516787,-8.3871984 65.2779476,-8.4134736 C62.394184,-8.7537264 59.5413811,-9.9327984 56.6841552,-8.7777936 C55.4103455,-8.2633296 54.3974899,-7.4706576 53.7563832,-6.4593936 C52.7899686,-6.1968624 51.8366017,-5.8963536 50.9013688,-5.5474896 C46.8475137,-5.4417264 42.8314748,-3.2712624 40.7816585,0.2463024 C37.8956834,-0.0804816 34.7642346,0.4737264 32.8555104,2.8274544 C32.3583708,3.4399536 31.973353,4.1595408 31.7181487,4.9235088 C29.7720506,5.5519056 27.9712464,6.6715824 26.7927513,8.3580528 C25.7173109,9.8970288 25.5107591,11.8868784 26.2381133,13.538904 C24.5007784,14.7954768 23.1431538,16.5943344 22.4892206,18.7184304 C22.0918185,20.0090064 22.0327722,21.3424176 22.2884187,22.61268 C20.5097292,23.0065872 18.8084414,23.7367728 17.3010999,24.8326032 C15.7214432,25.9805424 13.7485862,27.8076624 13.6446469,29.9105616 C13.6369067,30.0649008 13.6428777,30.21924 13.655262,30.3731376 C10.1777173,30.1291536 6.63183804,30.7173648 4.28126109,33.5009904 C2.51628277,35.5895376 1.74912204,38.2791024 2.22016625,40.7277744 C-1.91750376,41.5668144 -5.82982446,43.7262384 -8.5587848,46.9190064 C-10.5422569,49.2396144 -12.3048026,52.1895024 -12.1988729,55.3489296 C-12.1657008,56.3007984 -11.9421206,57.2590704 -11.5551125,58.1444784 L-11.5551125,58.1464656 C-11.7209731,58.4580144 -11.8914779,58.8046704 -12.055127,59.1734064 C-14.6182267,60.9638736 -16.4802888,63.7704624 -17.528528,66.8638704 C-18.3753019,69.3697296 -18.9082674,72.6245424 -18.0039952,75.1747824 C-17.8666626,75.5633904 -17.691956,75.9299184 -17.4885003,76.2697296 C-17.6590051,76.4510064 -17.8202216,76.6320624 -17.9772363,76.8153264 C-19.7046196,78.8310096 -21.4538964,81.3702096 -21.3342556,84.1456656 C-21.2856032,85.2631344 -20.870067,86.3870064 -20.190923,87.3097296 C-22.5795373,89.7277104 -24.5032995,92.7791664 -24.3133338,96.1861104 C-24.1496846,99.1514544 -22.5196063,102.163166 -19.9655736,103.587326 C-20.3921672,105.872606 -19.8216066,108.283742 -18.0393788,110.067806 C-17.1501446,110.959838 -16.1021265,111.547166 -14.9917449,111.860702 C-14.7440597,114.552254 -12.3514647,116.718302 -9.81047973,117.340738 C-9.3370029,117.457982 -8.86374722,117.528638 -8.39292416,117.561538 C-6.10625885,118.681214 -3.37950999,118.55293 -1.0464037,117.52621 C-0.358634926,118.39859 0.537012512,119.109566 1.58082878,119.619614 C2.00322054,119.827166 2.45015967,119.99939 2.91655978,120.138274 C6.21165776,121.112002 9.59101294,119.791838 12.4723439,118.250654 C12.5652259,118.202078 12.7355095,118.140254 12.8858898,118.071806 C13.2839553,118.515614 14.0093191,118.955006 14.3874814,119.17139 C15.6703581,119.906654 17.238294,120.248674 18.7111365,120.151742 C20.4382986,120.036926 21.9617838,119.467262 23.3727049,118.656926 C23.5785933,118.692254 23.7862508,118.712126 23.9943506,118.723166 C25.3212357,118.793602 26.5041538,118.374302 27.5680945,117.711902 C28.2711224,117.804638 28.9920633,117.795806 29.7218501,117.667742 C31.3298137,118.076002 32.8955381,117.42707 34.1536463,116.395934 C34.7111592,115.938878 35.1819823,115.402334 35.6864198,114.890078 C36.2103182,114.35773 36.6086049,114.234302 37.2209624,113.876606 C38.6696997,113.030942 38.8441851,110.886974 38.2161262,109.336738 C38.3355458,109.065374 38.4043227,108.762878 38.4043227,108.427262 C38.3996786,105.499454 37.0486884,102.814526 35.3900821,100.471838 C34.6490168,99.4274544 33.8442609,98.4049296 32.9616612,97.4777904 C32.2517777,96.7334736 31.2546235,95.5259184 30.2041728,95.2232016 C30.1400401,95.1770544 30.0734747,95.1304656 30.0071304,95.0865264 C30.2108073,94.3753296 30.3300058,93.6513264 30.279363,92.9116464 C30.2260664,92.1518736 29.9805927,91.4320656 29.5871713,90.8184624 C30.9072008,88.2638064 31.4647137,85.4618544 31.1993367,82.5384624 C32.2738924,81.0169296 33.0879364,79.3368624 33.5078956,77.4953904 C33.7666382,76.3560624 33.9150282,75.1571184 33.8949037,73.9888656 C33.8860578,73.4282544 33.6803906,72.7192656 33.6761888,72.1387824 C33.7071495,72.3220464 33.9459888,71.6375664 34.0388708,71.4673296 C35.1045806,69.4913904 36.4734838,67.9502064 36.7014868,65.6207664 C36.8339542,64.2582096 36.5110788,62.7525744 35.692833,61.6353264 C36.2169526,59.5730544 36.2103182,57.3582096 35.385438,55.3911024 C35.1642905,54.8655984 34.910192,54.3511344 34.6182773,53.8631664 C34.7529561,53.4524784 34.8770198,53.0373744 35.0360249,52.6640016 C35.0981674,52.5160656 35.1598675,52.3661424 35.2217888,52.2159984 C35.8210986,51.6880656 36.3786115,51.1119984 36.8474442,50.5465296 C37.8866164,49.2948144 38.6807571,47.8596144 38.7802735,46.2056016 C38.8289259,45.3776016 38.6343161,44.5849296 38.3932653,43.7991024 C38.2868934,43.4436144 38.2227606,43.0483824 38.0967065,42.7017264 C38.0261605,42.5094096 37.8556557,42.3131184 37.796167,42.1320624 C37.782677,42.0923184 37.7716197,42.0591984 37.7627738,42.0327024 C37.7716197,42.0062064 37.7784752,41.9510064 37.7784752,41.8470096 C37.7804656,41.0543376 37.8844049,40.2793296 37.889049,39.5155824 C38.6166243,40.2486384 39.4923685,40.7960016 40.4875323,41.1163824 C42.4931191,41.7589104 44.5853958,41.4674544 46.3609892,40.4760624 C48.2719249,41.7831984 50.4190461,42.9664656 52.6705489,43.4414064 C54.0082703,43.7238096 55.3486453,43.6070064 56.6907896,43.7814384 C58.0243091,43.9558704 59.3138203,44.5365744 60.569717,44.9892144 C63.3652428,45.9982704 66.1536918,47.0336016 68.9578423,48.0163824 C71.2223928,48.8090544 73.6727073,49.4383344 76.0436298,48.9923184 C76.7092839,50.0166096 77.5739706,50.8823664 78.6819197,51.5182704 C79.4756181,51.9709104 80.3469393,52.2776016 81.2470097,52.4301744 C82.0431408,52.5648624 82.9766044,52.5118704 83.622134,53.0572464 C84.2524045,53.5871664 84.646047,54.3774096 85.2121847,54.9737904 C85.8426762,55.6406064 86.6208943,56.2191024 87.4369287,56.6342064 C88.0915253,56.9676144 88.759612,57.2080656 89.4383137,57.3650544 C89.378825,58.8731184 89.3211055,60.3789744 89.3034137,61.8892464 C89.2704627,65.1703344 89.2835104,68.4512016 89.2395021,71.7325104 C89.1952726,75.0023376 89.0913332,78.2726064 88.9188382,81.5382384 C88.7549679,84.6029424 88.5249744,87.6784656 87.7929762,90.6683184 C85.3647765,100.588862 76.2689791,107.691998 66.0873475,108.05411 C63.0644822,108.162302 60.0721351,107.738366 57.1817371,106.85053 C54.1876209,105.930014 51.5137263,104.03533 48.4441988,103.452638 C47.6414333,103.302274 46.8851088,104.108414 47.3450956,104.883202 C48.1370249,106.214846 49.0987954,107.02739 50.4146231,107.828674 C51.7925933,108.665726 53.3271359,109.286174 54.8419964,109.829342 C57.6284551,110.827138 60.5765726,111.405854 63.5333149,111.567038 C65.7887984,111.690466 68.053349,111.536126 70.2626126,111.11219 C70.417637,111.58691 70.69186,112.048382 70.8995175,112.487774 C70.9304781,112.551806 71.0346386,112.507646 71.0147353,112.441406 C70.9813421,112.331006 70.9594485,112.233854 70.9506026,112.154366 C71.6934371,113.12147 72.8411927,113.790274 74.0201301,114.11507 C74.8514236,114.344702 75.7340233,114.415138 76.5898642,114.318206 C76.8662986,114.287074 77.129243,114.240926 77.3904182,114.183518 C78.2615183,114.945278 79.3761017,115.453118 80.4951082,115.707038 C80.302931,116.872862 80.8799048,118.14467 82.2180685,118.47587 C82.779562,118.614974 83.3191619,118.617182 83.858983,118.566398 C84.2946436,118.769534 84.7634764,118.92851 85.2610583,119.036702 C85.9087993,119.178014 86.6828156,118.996738 87.1715517,118.528862 C87.4391401,118.716542 87.6890368,118.846814 87.9367221,119.144674 C88.9564333,120.372542 91.1544184,119.394398 91.2517233,117.974654 C91.5745987,117.974654 91.8996855,117.97907 92.2249935,117.99011 C92.302174,118.025438 92.3795756,118.060766 92.4591887,118.098302 C93.8811673,118.758274 95.3540097,119.334782 96.9265897,118.815902 C97.2160718,118.720738 97.4814488,118.599518 97.7224996,118.458206 C98.8304487,118.557566 99.9229174,118.559774 101.046568,118.197662 C101.71001,117.983266 102.333425,117.643454 102.853122,117.197438 C104.586918,117.705278 106.41603,117.93491 108.14098,117.30541 C109.432261,116.835326 110.471875,116.093438 111.203652,115.115074 C112.32288,115.155038 113.459357,114.885662 114.48327,114.353534 C116.234758,113.448254 117.462127,111.728002 118.317968,110.003774 C120.202366,106.19939 121.316949,102.112382 121.7546,97.8973104 C122.185838,93.7462704 121.571048,89.6173104 121.137599,85.4903376" id="ðŸ–-Ink" fill="#000000"></path>
                    </g>
                    <g id="face/Eyes-Closed" transform="translate(35.236794, 41.068800)" fill="#000000">
                        <path d="M40.3879924,49.8931162 L40.5412765,49.8577921 C41.765619,49.5701607 42.9437459,49.1789695 44.0840883,49.9348474 C45.170667,50.6548762 45.3215868,51.9867418 44.4750173,52.9582618 C43.6049114,53.9571069 42.4489879,53.9012148 41.2291096,53.9149144 L41.152786,53.9158714 C40.1397835,53.9297818 39.1099384,53.9147674 38.100925,53.8253434 C37.1603021,53.741881 36.2135758,53.60852 35.2836875,53.4334695 L34.7338166,53.3260749 C34.1719774,53.2127993 33.618622,53.0654602 33.3291096,52.5237274 C32.8242705,51.5793658 36.5766566,50.838361 37.0325188,50.7087514 C38.1388212,50.3941114 39.2659554,50.1463738 40.3879924,49.8931162 Z M42.4690228,38.5063368 C41.8708623,39.1244324 41.0807811,39.5465505 40.1938604,39.8092976 C37.964798,40.4696494 35.120584,40.1178814 33.2999752,39.4449887 C32.9222844,39.3054125 32.5693106,39.0208905 32.366505,38.665094 C32.1812572,38.3401003 32.1185545,37.957898 32.2595546,37.5680958 C32.2997115,37.4573725 32.3485443,37.3486599 32.3976018,37.241596 C32.5311573,36.9503414 32.8033407,36.7237533 33.1230385,36.5941736 C33.4550551,36.4596009 33.8326111,36.4321323 34.1354128,36.5270019 C34.1760904,36.5397477 34.217814,36.5528516 34.2605316,36.5662677 C35.4140571,36.9285506 37.3060253,37.5285025 38.8734748,37.4122224 C39.8140119,37.3424493 40.6413018,37.0113725 41.0691821,36.1538439 C41.2946747,35.7016807 41.2322223,35.2544865 41.032219,34.8450501 C40.7306682,34.2277311 40.1266615,33.6905768 39.6177815,33.32044 C38.900458,32.7985388 38.1353669,32.5901864 37.3440243,32.3702051 C37.0458409,32.2873146 36.743829,32.2032767 36.4389928,32.1027288 C36.3385418,32.0696893 36.2504852,32.0047776 36.1845499,31.9203955 C36.1194274,31.8370537 36.0766822,31.7352838 36.0632832,31.633174 C36.0494073,31.5274304 36.0665511,31.4219813 36.1157407,31.3310963 C36.1613692,31.2467912 36.2343445,31.1727453 36.3433935,31.1241011 C37.891635,30.4330117 39.8940468,30.8896809 41.4054263,31.9769038 C42.1607947,32.5202841 42.7908271,33.2183102 43.1791482,33.9983114 C43.539527,34.7221862 43.6926381,35.516396 43.5514466,36.3263139 C43.3933573,37.2330319 43.0081631,37.9492282 42.4690228,38.5063368 Z M17.0945434,23.0857219 C17.5295738,22.8947299 17.8870389,23.7887491 17.9765713,24.0325123 L18.1617338,24.5382318 C18.4637801,25.3536511 18.8105241,26.1826703 19.4456576,26.7878755 C19.9773121,27.2946115 20.8292004,27.7240675 21.4459551,27.1312195 C22.0310188,26.5688419 21.7458002,25.9353667 21.8320085,25.2453667 C21.9875823,23.9974051 23.6955695,22.7501059 24.7225337,24.0523843 C27.0424001,26.9947651 23.4531226,31.0866307 20.1470692,30.3688099 C18.4656987,30.0036105 17.112236,28.6604382 16.5561794,27.0631652 L16.5276521,26.9788675 C16.1947863,25.9669411 15.858153,23.6291107 17.0945434,23.0857219 Z M47.0311316,25.1349188 L47.0151026,25.0976074 C45.9101299,22.5935146 49.8517753,21.5173354 50.1859709,23.7657418 L50.2071241,23.917448 C50.5322047,26.4134292 49.8472189,29.7699562 46.778861,30.0187978 C43.3345197,30.2983306 41.9002271,26.4694378 42.2078288,23.6597578 C42.2630109,23.1567754 42.8755549,23.0872234 43.0648142,23.5442794 L43.1050846,23.6440276 C43.6612006,25.0560668 44.189302,27.7716486 46.1488094,27.7688458 C47.457975,27.7668869 47.3954985,26.006158 47.0311316,25.1349188 L47.0311316,25.1349188 Z M49.5301233,17.8859923 C51.5100322,17.8159987 51.5073728,20.9032243 49.5301233,20.9495923 C42.9255513,21.1043731 36.3158822,21.3101587 29.7093157,21.3454867 L28.5085081,21.3527948 C22.3028766,21.3942274 16.0759402,21.4787094 9.8885082,20.9597491 C9.36039951,20.9155891 9.45857498,20.1767923 9.89981056,20.2066003 C16.3867049,19.2867475 22.9527158,19.0178131 29.4890304,18.6682867 C36.1634111,18.3112531 42.8506454,18.1222483 49.5301233,17.8859923 Z" id="ðŸ–-Ink"></path>
                    </g>
                    <g id="facial-hair/*-None" transform="translate(27.258652, 74.630400)"></g>
                    <g id="mask/medical-mask" transform="translate(4.875531, 62.044800)">
                        <path d="M87.1517614,15.534649 C86.734017,10.2612826 80.0600795,8.02744896 76.7358537,7.36504896 C65.6666248,4.77241536 56.2493145,11.4242362 43.0503649,11.560249 C41.7182368,11.5810042 37.908674,11.357113 36.1370832,10.8910042 C27.1485981,8.85611136 18.1694208,6.69160896 9.35002793,4.02279936 C8.05335823,4.32529536 7.66974256,6.01154496 8.55997025,6.97224576 C17.0070498,9.95679936 29.9300886,12.6293626 36.7545027,12.933625 C36.6235282,21.717049 31.969612,30.549049 25.5427753,35.406649 C35.7643267,46.668553 59.6032368,50.3722522 73.6327996,44.4607738 C80.5341141,42.397177 87.8166066,23.925049 87.1517614,15.534649" id="ðŸŽ¨-Color" fill="#FFFFFF"></path>
                        <path d="M8.63680419,4.28862048 C8.25673437,4.27382688 8.47834942,3.16982688 9.33444839,3.32725728 C20.3806293,5.90112288 34.1429244,10.8037661 45.4969287,10.7677757 C53.8493786,10.4953085 61.3335407,5.86071648 69.7320865,5.83267488 C75.3777301,5.94042528 82.5766736,6.74038368 86.5276269,11.2539773 C91.738905,27.7207997 80.0037228,50.1178685 61.5394211,50.2474781 L58.0446024,49.9955496 C46.1320001,49.1211327 33.0814636,47.7221112 25.4030914,37.6526045 L25.3432553,37.7038301 L25.3432553,37.7038301 C24.1950677,36.9363293 24.2591145,35.2787837 25.2348855,34.4262749 L25.2639171,34.4717597 L25.2639171,34.4717597 C25.2825328,34.4417309 25.303143,34.4130269 25.3230883,34.3836605 L25.3106779,34.3450205 L25.3106779,34.3450205 C25.6860938,33.9524381 26.1129244,33.5852477 26.5009724,33.2564765 L26.5029669,33.2628797 L26.5029669,33.2628797 C32.2685043,28.4770397 36.0330792,21.2403197 36.2498188,13.7465885 C34.3410483,14.2690013 2.27201973,7.64500128 7.99655829,6.02852448 C12.0911181,7.40764128 16.2098339,8.65317408 20.4116554,9.64456608 C20.482129,9.60504288 20.5831855,9.61542048 20.6219681,9.69336288 C25.7621078,10.9536893 31.0059633,11.6739389 36.2566888,12.2570717 C36.2511485,12.0071261 36.241619,11.7571805 36.2287653,11.5067933 C26.8925662,9.69601248 17.7398643,7.00755168 8.63680419,4.28862048 Z M84.2347975,10.9715741 C65.085262,1.33343328 55.5797489,15.5726045 37.0596002,11.6520797 C38.9971806,20.2646045 34.2127332,29.5494653 27.7143148,35.1767741 C37.156446,43.3189949 41.2430276,44.5519421 53.6290932,45.8734301 L55.2471938,46.0653944 C57.6800461,46.3524529 60.1357314,46.6202158 62.5761363,46.6621277 C75.2347884,45.7442621 84.7999159,32.6225597 86.2313276,20.7335837 L86.2390854,20.4051578 C86.3032476,17.3879007 86.1641471,14.1940997 84.8225206,11.4299549 C84.5754199,11.3442845 84.3606749,11.1899453 84.2347975,10.9715741 Z M57.5753482,18.5374406 C58.2370908,18.389063 58.9123519,19.1084294 58.5021424,19.7383718 C57.1766627,21.7752518 53.9350993,22.564391 51.6679772,22.884551 C49.0425036,23.2552742 46.4974763,22.962935 44.0034205,22.0706822 C43.8697866,22.0227686 43.879316,21.7873958 44.0393221,21.8063846 C46.4075006,22.0872422 48.8488121,21.8816774 51.1498412,21.257255 C53.4830046,20.8043942 55.3669542,19.2583526 57.5753482,18.5374406 Z M75.5680461,17.0702467 C75.557061,16.6831843 77.4669396,17.8030819 77.7690009,17.9538883 C80.101721,19.3493443 82.8018789,19.4515747 85.3746081,19.9993795 C85.9742984,20.2285699 85.973412,20.9881219 85.3743865,21.2173123 C82.1634059,22.0680547 77.2903124,19.8353251 75.5680461,17.0702467 Z" id="ðŸ–-Ink" fill="#000000"></path>
                    </g>
                    <g id="accessories/*-None" transform="translate(10.415908, 53.212800)"></g>
                </g>
            </g>
        </g>
    </g>
</svg>