<?xml version="1.0" encoding="UTF-8"?>
<svg width="282px" height="426px" viewBox="0 0 282 426" version="1.1" xmlns="http://www.w3.org/2000/svg" xmlns:xlink="http://www.w3.org/1999/xlink">
    <!-- Generator: Sketch 62 (91390) - https://sketch.com -->
    <title>sit-mask-1</title>
    <desc>Created with Sketch.</desc>
    <g id="Introduction" stroke="none" stroke-width="1" fill="none" fill-rule="evenodd">
        <g id="poses-covid-19" transform="translate(-102.000000, -469.000000)">
            <g id="a-person/sitting" transform="translate(98.000000, 429.500000)">
                <g id="pose/sitting/one_leg_up-1" transform="translate(-17.459016, 137.082400)">
                    <path d="M177.211581,178.469076 C177.694183,183.496159 176.707425,188.296809 174.356924,192.355408 L173.592176,193.675837 L175.047741,194.184036 C177.69677,195.109056 180.642601,195.55874 184.053791,195.55874 C187.564347,195.55874 191.215006,195.070682 194.148336,194.678242 L196.026366,194.427217 L195.10384,192.798519 C194.36194,191.48954 194.224638,189.903245 194.079147,188.223876 C194.039918,187.772709 193.999611,187.306276 193.946587,186.84472 C191.167155,162.040686 187.653798,136.912905 184.256187,112.612619 C183.361897,106.218253 182.437431,99.6059355 181.540555,93.1017458 L178.967829,93.2007567 C178.275719,105.239804 177.604086,117.482386 176.954654,129.321928 C176.669059,134.528163 176.383248,139.73461 176.095282,144.940209 C175.068649,158.101239 175.423218,168.757951 177.211581,178.469076 M178.261493,327.209534 C174.483233,327.209534 170.697644,326.816671 167.010343,326.041969 C155.471657,323.623728 144.988703,317.918198 136.068655,312.760302 C135.613212,312.502492 135.151087,312.244682 134.676675,311.979664 C131.184441,310.028916 126.838439,307.601771 124.114833,304.640772 C121.12697,301.392493 120.612683,298.155876 122.496748,294.454734 L122.794845,293.869149 L122.483385,293.290136 C120.532501,289.664895 120.677562,285.179511 122.836014,282.383036 L124.650027,280.033064 L121.667553,280.348966 C118.660291,280.667624 115.62932,281.099286 112.697929,281.516743 C109.445595,281.979995 106.08204,282.458937 102.769569,282.779503 L101.848983,282.868761 L101.637319,283.754347 C101.519417,284.247282 101.373925,284.546646 100.352034,284.546646 C99.4659347,284.546646 98.2750574,284.287564 97.014775,284.013429 C95.4505765,283.673358 93.6775164,283.287703 91.967826,283.287703 C91.2157951,283.287703 90.5394199,283.359152 89.899687,283.506714 L89.5274435,283.592156 L89.2625407,283.863111 C89.0931236,284.036327 88.8047265,284.143818 88.5100786,284.143818 C88.2872067,284.143818 88.0805006,284.08191 87.9423373,283.973995 L87.5246141,283.647704 L86.9945929,283.705796 C77.7600665,284.718166 69.7972462,286.49485 62.6519821,289.136767 L62.6196506,289.148851 L62.4646749,289.215636 C59.880956,290.328926 57.2097265,291.480166 54.776888,291.480166 C52.9984393,291.480166 51.5542984,290.876136 50.231724,289.579241 L49.8579718,289.213092 L49.3307526,289.208004 C43.9813962,289.158816 41.5371339,282.930882 41.1991618,278.756735 L41.1566998,278.23115 L40.7488916,277.889382 C31.426208,270.078333 25.9225225,259.350597 23.9227107,245.092815 C22.1013689,232.105849 23.4998145,218.413086 25.1079839,206.731283 C28.8280477,176.457692 32.7080446,149.318739 42.5708801,123.579296 L43.0317119,122.376112 L41.8037611,121.935545 C37.5439766,120.407342 34.2884089,118.584015 31.8508285,116.361252 L31.682058,116.206905 L31.4695322,116.119767 C27.9760046,114.686759 26.2650209,109.39699 25.8238036,107.81006 L25.7884545,107.682003 L25.726809,107.564123 C25.014007,106.198959 24.8495474,104.299943 25.2758922,102.353859 L25.3215874,102.144176 L25.2950756,101.931102 C25.0648752,100.083393 25.8289766,98.151726 26.6379111,96.1064194 C27.007568,95.1720702 27.3895109,94.2063428 27.6686396,93.2444318 C28.6282389,90.495448 29.5867605,87.6979129 30.5140282,84.9919682 C32.5944532,78.9211368 34.745361,72.6435909 37.036803,66.536929 L37.3502031,65.7018027 L36.6598175,65.1261826 C35.4812262,64.143282 35.8748084,62.9863173 37.5743682,60.2199484 C37.9759256,59.5665188 38.3557131,58.9482837 38.6445413,58.3391652 C40.8230386,54.5807791 43.1578048,50.9729235 45.5852547,47.6146092 L45.6352608,47.5457044 L45.6751363,47.4710752 C58.1311746,24.2448553 80.2258831,11.4537911 107.88894,11.4537911 L108.452802,11.4548512 L108.764478,11.2676421 C113.949159,8.15484103 117.650255,2.8137645 120.079213,-5.0604647 L120.156809,-5.31149021 L120.126849,-5.5722684 C120.043649,-6.29799501 119.952474,-7.24951738 119.983728,-8.17284178 C120.062832,-10.5111529 120.980832,-12.5978024 122.502137,-13.8978771 C125.388479,-16.3644571 129.770261,-16.5709595 134.011077,-16.5709595 L134.619988,-16.5709595 C140.041982,-16.5544224 143.869818,-15.6145608 146.666709,-13.6116571 C149.916241,-11.2845828 151.712149,-7.52810481 152.157246,-2.12766415 C152.290236,-0.511687437 152.28571,1.16238132 152.281615,2.78132624 L152.280537,3.23312975 L152.33507,3.41249426 C152.724772,4.69603179 153.181293,5.9293218 153.6917,7.07844195 L154.216764,8.26063641 L155.410874,7.72763123 C156.183166,7.3831072 157.162164,7.20586284 158.404556,7.18593345 C158.76279,7.17766487 159.112185,7.17384861 159.464599,7.17384861 C162.349216,7.17384861 165.434936,7.43674694 168.41935,7.69095267 C170.667899,7.88261404 172.993181,8.08084787 175.243886,8.168834 L175.274708,8.17010609 C175.274708,8.17010609 175.585522,8.16819796 175.724978,8.16819796 C181.195255,8.16819796 185.160822,9.02706986 188.204511,10.8713865 C191.481849,12.856905 193.838385,16.0436992 195.620282,20.900322 C205.177908,48.7384996 209.107264,78.723963 212.573202,105.178532 C214.539174,119.012921 215.137091,133.195438 215.715394,146.910887 C216.326029,161.387681 216.95714,176.357409 219.19211,190.990669 L219.36864,192.147422 L220.555422,192.070885 C225.778254,191.734417 231.422258,191.009539 237.397553,190.242045 C246.476241,189.076176 255.864019,187.870448 264.939259,187.870448 C277.6283,187.870448 287.249295,190.363317 294.347355,195.490259 C299.295801,200.145892 301.85581,206.449303 301.750625,213.723955 C301.6019,224.002432 296.156627,235.366 287.878251,242.673938 L287.846997,242.70256 C277.383011,252.572272 258.282416,261.132581 231.07588,268.145819 C206.057756,274.594884 180.179614,278.099701 166.980382,279.614546 L163.713606,279.989813 L166.365221,281.90367 C167.438412,282.678584 168.417626,283.360636 169.358904,283.98926 L169.96609,284.39442 L170.631257,284.089967 C172.528039,283.221554 173.732711,283.039221 174.409733,283.039221 C175.010452,283.039221 175.735109,283.169398 175.774985,283.790178 C175.801065,284.19661 175.511375,284.800004 174.899878,284.876329 L171.652932,285.280854 L174.304116,287.168633 C176.075021,288.429697 178.717152,289.949419 181.776791,291.709566 C191.786411,297.467676 206.913248,306.169611 204.311639,313.81126 L204.140929,314.313311 L204.382768,314.78674 C205.081776,316.154659 205.141481,317.424628 204.564687,318.668942 C203.329623,321.335664 199.466008,323.359982 196.18479,324.183447 L196.128533,324.197652 L196.07357,324.216733 C190.364256,326.202676 184.371287,327.209534 178.261493,327.209534" id="âœ‹-Skin" fill="#D08B5B"></path>
                    <path d="M152.487396,269.822315 C152.588701,269.66545 152.67923,269.444991 152.728589,269.249969 C153.420997,270.233786 164.498003,279.926209 175.452338,288.1528 C185.626837,295.793743 197.296617,301.566635 201.82711,307.936781 C203.548874,310.357686 204.423902,317.453208 204.0928,318.644885 C203.599393,319.269765 200.637754,320.984488 195.207885,323.789053 C193.367476,324.286065 178.596169,328.285683 172.034812,326.92456 C169.620942,326.558046 152.216758,320.996586 150.018215,320.0024 L131.31565,309.166751 C130.906998,308.987737 130.500533,308.809747 130.096531,308.632907 L129.549734,308.415461 C125.378792,306.74839 120.057681,303.2168 121.147161,298.126165 C122.428658,292.8872 120.129601,291.742238 120.656088,288.290898 C121.111729,285.303979 122.105977,282.262943 123.695107,279.363536 C129.833783,286.256915 137.625678,285.654892 141.550723,277.086871 L141.640732,276.912167 L141.729368,276.737006 C143.012642,274.180764 144.226021,270.933259 147.264779,269.928305 C148.941707,268.796332 151.086364,268.561034 152.487396,269.822315 Z M96.3913024,250.595898 L96.7711681,251.46684 C98.6178861,255.68471 102.538206,264.449417 104.095744,267.907277 C103.74872,267.267098 103.35212,266.652356 102.905945,266.071318 C101.602024,264.37444 103.131775,269.501994 103.143727,274.854283 C103.154813,279.81824 101.619215,284.975504 101.265444,285.061184 C100.830262,285.167174 94.7566294,282.186254 89.0628264,283.091098 C84.4657952,283.821646 77.4958103,284.644987 70.5714443,286.532364 C64.9431166,288.06648 59.344929,290.66869 55.0757258,291.552896 C51.6071725,292.271276 50.9291862,288.518899 48.662938,288.750958 C46.6212158,288.960027 46.2925157,288.909716 45.7869406,288.488287 C42.9525447,286.148239 40.2733401,276.900492 40.5406139,273.426351 C42.893139,255.012 79.2060262,249.076002 96.3913024,250.595898 Z" id="ðŸ‘Ÿ-Shoes" fill="#FFFFFF"></path>
                    <path d="M60.6933879,128.100747 L61.8736761,128.424452 L114.159372,143.032078 C114.493457,143.250342 114.742366,143.408736 114.981344,143.553697 L115.151368,143.655582 L116.140869,144.241349 L115.910807,145.366674 C115.393254,147.898233 115.316319,150.502169 115.551297,154.138018 L115.564671,154.341078 L115.593326,154.753713 L115.634928,155.316097 L115.649726,155.507876 L115.934191,158.973602 L115.987815,159.668975 C116.029644,160.230786 116.060377,160.700849 116.087643,161.191854 L116.093877,161.305586 L116.134598,162.101204 L116.149752,162.442484 C116.291158,165.908947 116.046298,169.294647 115.411912,174.191662 L115.380398,174.433724 L115.290076,175.11319 L115.227643,175.707604 L114.965361,178.13745 L114.874132,179.005865 C114.280874,184.732955 113.987467,189.228624 114.063054,193.418647 L114.067141,193.627898 C114.182753,199.125496 115.028154,202.850788 116.433627,204.132306 L116.476388,204.170391 L116.5135,204.201774 L116.522031,204.202709 C116.66046,204.210114 116.886778,204.123242 117.326075,203.858106 L117.510034,203.744295 C117.62366,203.672711 117.83916,203.536776 117.939404,203.47504 L118.049633,203.408422 C118.253802,203.287004 118.431229,203.192979 118.616935,203.113069 C118.905384,202.988949 119.199022,202.908594 119.490295,202.884477 L119.577598,202.878942 L119.590383,202.878509 L119.670425,202.808231 C119.934383,202.571735 120.18578,202.310342 120.415577,202.032718 L120.512712,201.912768 L120.596707,201.804599 L121.162341,201.06093 L121.54642,200.397064 C121.841045,199.887492 122.108011,199.345645 122.347779,198.773451 L122.436418,198.55746 L122.514018,198.360654 L125.868107,189.689946 L125.638115,198.982015 C125.560034,202.136594 126.741999,203.772612 128.197435,203.789132 C129.728939,203.806516 131.296877,202.125738 131.750041,199.141535 L131.765224,199.038115 L134.972358,199.444107 C134.762369,201.314861 135.431561,204.271479 136.504113,205.938121 C136.969694,206.66159 137.407802,207.00213 137.721097,207.028538 C138.100178,207.060491 138.697969,206.707039 139.499483,205.676682 L139.498577,205.677549 L139.482237,205.698274 L139.516581,205.650383 C140.214127,204.653949 140.601685,203.315799 140.805295,201.410908 L140.819528,201.273878 L140.832842,201.138082 L141.955935,189.34705 L144.033744,201.008191 C144.237538,202.151929 144.46666,203.300084 144.721166,204.45478 L144.769044,204.669767 L144.804289,204.656635 C144.880726,204.626515 144.978277,204.580901 145.092132,204.516779 L145.141911,204.488156 L145.18835,204.460414 C145.881638,204.038883 146.700943,203.187604 147.027521,202.634576 L147.058514,202.580294 L147.430177,201.905138 L148.189683,201.769062 C148.322026,201.745351 148.463183,201.68416 148.564737,201.612419 L148.600868,201.585074 L149.146857,201.140825 L149.844498,201.237558 C160.021149,202.648632 167.516543,201.459517 172.286432,196.471541 L172.43014,196.319226 L173.173623,195.520548 L174.193272,195.911085 C178.72716,197.647614 239.610936,189.985561 244.691555,189.510165 L245.818418,189.406469 L246.760195,189.322764 C254.733672,188.625823 261.907473,188.730586 268.800361,188.806026 L269.243221,188.811426 L269.859952,188.848384 L270.428123,188.884761 C276.215179,189.26786 280.788927,189.976378 284.928178,191.330522 C290.118002,193.028359 294.217764,195.670629 297.117819,199.509532 L297.247255,199.682664 L297.387825,199.897028 C301.195063,205.765338 302.342393,212.845084 301.019806,220.255811 C299.821899,226.967928 296.623396,233.651247 292.147163,239.027959 L292.003872,239.199111 L291.745416,239.522259 C282.275998,251.183646 262.77781,260.558311 235.693297,268.014147 L234.870234,268.239494 L234.025603,268.468232 C213.956055,273.873471 191.406415,277.841788 169.329881,280.501795 L168.640147,280.584495 L167.275741,280.745698 L162.719504,281.278722 L165.619463,278.331502 L165.606297,278.326887 C165.405326,278.26093 163.750566,278.550543 160.642016,279.195727 L159.646096,278.36793 C159.074079,277.8898 158.644563,277.521506 158.237269,277.155999 L158.045529,276.982651 L157.279138,276.278433 L157.41787,275.41697 C157.418387,275.402508 157.411967,275.379427 157.383442,275.327396 L157.36982,275.303266 C155.122082,272.678131 153.911159,271.2894 153.737052,271.137072 L153.693471,271.099397 L153.630076,271.046337 L153.603768,271.02622 C153.197774,270.723616 150.876824,270.64521 146.640918,270.791003 C143.719702,265.837982 142.066839,263.099909 141.68233,262.576784 L141.543785,262.387681 L140.108673,262.376937 L140.652232,261.464916 C141.443862,260.136665 141.930761,258.646956 142.135146,257.005347 L142.155282,256.834984 L142.167046,256.724346 L142.076818,256.784352 C141.468025,257.196647 141.112721,257.606736 140.994827,257.994076 L140.981819,258.040447 L140.972622,258.079343 L140.963844,258.119948 L140.917014,258.289552 C140.255743,260.611359 138.85108,262.434603 136.791552,263.882638 C135.336203,264.905882 114.413842,272.189171 109.235704,273.506417 L108.874688,273.597809 L107.584107,273.922923 L106.659012,271.959709 C105.235373,268.92075 103.39121,264.861839 101.125761,259.781434 L100.010162,257.273785 L98.8650213,254.688985 L93.4117729,251.493265 L89.6663169,251.555634 C88.8737926,251.569623 88.1456024,251.58312 87.4817762,251.596124 L87.155227,251.602585 L85.090935,251.647133 L84.7189598,251.686326 C76.0814216,252.609896 67.6663676,254.481254 59.6923041,257.276411 L59.2872244,257.419333 L58.8650206,257.570282 L58.6397975,257.643446 L58.2389967,257.775286 C52.6051716,259.643742 48.8429516,261.547819 46.1429548,264.078875 C43.0075448,267.0181 41.3374889,270.860152 41.1145405,276.19537 L41.1079165,276.36615 L40.9763486,280.04084 L38.3562843,277.456712 C30.5544285,269.761864 25.4464632,259.318263 23.2683659,247.421785 C21.2676573,236.49418 21.8473515,224.774211 24.8134208,214.212614 L24.8577596,214.055566 L24.8655583,213.949182 C25.087535,210.996487 25.623437,207.977368 26.4678999,204.675464 L26.5479721,204.365075 L26.6298513,204.05299 C27.2360904,201.761192 27.8384249,199.794034 28.9209426,196.520273 L29.0409636,196.157873 L30.4773131,191.856031 C37.9197845,170.463016 47.7377839,149.637864 59.6981135,129.749579 L60.0612032,129.147191 L60.6933879,128.100747 Z" id="ðŸ‘–-Pants" fill="#78E185"></path>
                    <path d="M167.277703,278.118126 C167.672147,277.717272 167.838116,277.191773 167.469536,276.574911 C166.044794,274.758031 163.089479,276.000445 161.251109,276.419954 C160.556844,275.84358 159.86732,275.264875 159.203447,274.654372 C159.434078,273.225627 157.714042,272.275744 157.007059,271.173448 C156.313009,270.361777 155.659913,269.439664 154.8277,268.759208 C152.799652,267.179745 149.988966,268.248124 147.635232,268.176263 C145.822512,265.873948 143.955906,263.64413 142.231558,261.265714 C144.218869,257.931268 144.358972,254.024476 143.699409,250.308466 C174.183714,238.759795 200.570538,216.894055 233.540059,211.840451 C234.673817,211.651789 235.30967,210.276039 235.027093,209.267014 C232.727244,203.78733 199.677973,217.926398 194.737718,220.487116 C180.167199,227.45278 166.518774,236.135482 152.357788,243.79644 C149.404843,245.36276 146.156604,246.204533 142.927764,247.018536 C137.965954,230.759668 129.572478,215.855353 123.136567,200.17943 C123.554506,199.456578 123.910368,198.69769 124.212129,197.917603 C123.998741,206.538831 132.396312,206.418002 133.555936,198.239813 C133.07743,202.502731 136.30627,211.632711 140.966318,205.642155 C142.059124,204.137097 142.447102,202.210199 142.632253,200.266342 C142.871722,201.610295 143.143307,202.947889 143.445068,204.281243 C144.641118,206.922515 147.906816,203.711017 148.665314,202.333147 C149.103082,202.254714 149.512615,202.055453 149.81222,201.811676 C158.052445,202.954248 167.758149,202.888535 173.804357,196.393467 C184.059913,200.321457 195.410429,196.802376 205.782378,195.233936 C226.888389,192.811004 248.078462,189.1181 269.374151,189.400246 C278.881771,189.951394 290.098434,191.484009 296.112311,199.583766 C303.82661,211.259626 299.466167,227.02882 290.956513,237.136028 C270.486355,263.012217 200.221358,274.264117 167.277703,278.118126 M167.853204,287.438888 C168.225878,287.339257 168.601139,287.247894 168.974029,287.161194 C174.948893,292.127886 203.088085,305.024751 200.947739,312.728105 C200.191182,313.686254 198.380617,313.904382 197.235866,314.213873 C195.24209,314.752302 193.228914,315.21887 191.196555,315.587715 C184.626577,316.781163 177.822087,316.988903 171.26073,315.627779 C168.846859,315.261266 166.667715,314.233163 164.469172,313.238977 C157.364861,310.118631 149.540635,306.671623 142.470596,303.576927 C133.488902,300.022022 117.734834,293.01587 124.214284,281.193956 C130.352961,288.087335 138.144855,287.485311 142.069901,278.917291 C143.423513,276.316296 144.604691,272.810146 147.783957,271.758725 C149.460884,270.626752 151.605541,270.391454 153.006573,271.652735 C153.107879,271.49587 153.198407,271.275411 153.247767,271.080389 C154.8277,273.325258 156.19015,275.688835 158.041452,277.740801 C157.405815,277.774718 150.788632,282.664885 152.741455,282.667217 C155.090878,281.458931 157.425213,280.452026 159.962159,279.801035 C161.800745,281.647381 163.822542,283.364632 165.917624,284.95215 C163.882894,286.293984 162.055086,287.936829 160.58508,289.719581 C160.457909,289.876658 160.6131,290.080159 160.802779,289.995155 C163.085383,288.97977 165.432651,288.087335 167.853204,287.438888 M198.141364,320.749217 C175.28708,330.998663 151.092332,319.585659 131.602897,307.418005 C127.104722,304.910281 121.188055,301.355376 122.097648,295.451733 C125.41055,300.291237 130.87242,303.046977 136.114436,305.435992 C144.92154,309.410617 153.786625,313.258055 162.615499,317.183925 C163.449436,319.945813 167.436989,320.051803 169.84698,320.664637 C180.574576,322.742041 192.106148,321.709698 202.202202,317.567609 C201.617864,319.295246 199.706209,320.087839 198.141364,320.749217 M106.957663,280.839949 C106.393155,280.912023 105.828216,280.977524 105.263708,281.04133 C105.321904,280.295161 104.871419,279.548991 104.147193,279.317933 C104.472663,277.73635 104.593368,276.101984 104.418777,274.497507 C105.362858,276.933158 108.410641,276.193347 110.346221,275.491481 C113.111643,274.741072 115.859822,273.93364 118.592912,273.072789 C119.670629,275.071973 120.813009,277.041267 122.216197,278.851577 C117.107603,279.305214 112.046859,280.206129 106.957663,280.839949 M104.709761,273.178779 C104.573969,273.465164 104.37998,273.768084 104.375669,274.111703 C104.237721,272.926735 103.968292,271.756393 103.558759,270.635019 C103.942211,271.482939 104.326094,272.330859 104.709761,273.178779 M101.485232,266.825738 C98.9719954,263.555098 94.3270349,260.881818 90.0334101,261.793332 C89.7575146,261.852899 89.7508327,262.295725 90.0334101,262.351052 C95.8013519,263.133258 100.866622,267.701215 101.066862,273.607191 C101.521874,276.280259 99.6595789,278.904572 100.28681,281.46953 C100.161795,281.478009 100.03678,281.484369 99.9139202,281.492848 C99.868656,281.66434 99.8274872,281.816965 99.7736014,281.950725 C100.396737,282.054383 100.579949,283.055141 99.8447307,283.233204 C99.4095486,283.339194 98.954752,283.394309 98.4913336,283.417627 C96.139755,282.783806 93.6588503,282.637328 91.4107325,281.700376 C89.1863245,280.719121 89.7424265,277.961261 88.9578485,276.051321 C88.3823476,273.848636 87.7204138,271.654855 86.8864763,269.541414 C86.8261242,269.371618 86.5954927,269.409986 86.5760938,269.581478 C85.9876603,273.797973 86.0070592,278.086329 86.1493179,282.336316 C85.3776724,282.414961 84.6103379,282.501873 83.8406324,282.597264 C83.8904229,281.409964 80.3231794,266.946779 78.4436409,270.658549 C79.3898764,274.739164 79.5041145,279.002083 79.6054199,283.201195 C74.0250009,284.11928 68.5264885,285.486552 63.176701,287.347736 C59.4068467,288.488189 54.9233282,291.862911 51.2636166,288.812306 C48.4292207,286.472259 47.4743634,282.389311 47.7416372,278.915171 C51.4274296,258.359468 80.5387228,255.957734 97.7239991,257.477631 C99.347041,261.216958 101.000259,264.943567 102.675031,268.661697 C102.328006,268.021517 101.931406,267.406775 101.485232,266.825738 M42.8725115,278.514529 C42.5578182,273.846728 43.3445516,268.036144 46.8083342,264.557552 C54.7360209,257.865554 65.8365067,255.760381 75.7428819,253.337661 C80.3574508,252.428267 85.0349584,251.824124 89.7316494,251.523112 C91.3977999,251.391684 93.5144362,251.768797 94.6910877,250.408097 C95.2969803,251.841082 95.9110634,253.271947 96.5255777,254.702812 C76.8033555,252.123015 35.6561181,261.085319 47.1790689,288.059777 C44.7389019,285.420626 43.1223264,282.207221 42.8725115,278.514529 M140.856391,263.084502 C141.763829,265.348449 142.873878,267.504286 144.324485,269.475488 C142.675578,270.552559 141.330587,272.144317 140.382196,273.855208 C134.303872,289.732512 127.803082,281.227873 119.726671,272.708184 C126.561552,270.132838 135.614376,268.203608 140.856391,263.084502 M39.682469,275.283953 C23.8766706,259.694942 20.8094879,233.725269 26.6485589,213.311592 C27.1680185,205.741786 29.8192025,198.528106 32.1944909,191.361061 C39.7579092,169.620389 49.7052377,148.70432 61.6355656,128.956261 C76.4369317,133.015679 91.2124326,137.182994 106.048286,141.109076 C108.091422,141.552114 110.136929,142.427592 112.234382,142.55478 C112.984473,143.031735 113.736719,143.557445 114.516986,144.01935 C113.381073,149.575558 114.428614,155.248144 114.693732,160.838057 C114.934925,165.238762 114.45879,169.548316 113.874451,173.902386 C113.22157,180.236349 110.533529,200.838476 115.920174,204.609812 C117.745827,205.48953 119.37749,202.884295 120.164224,203.600788 C120.873362,203.106874 121.53508,202.464575 122.073938,201.756561 C124.153932,208.472089 127.553052,214.702181 129.652445,221.424068 C132.445672,231.302125 141.619415,247.291991 139.58253,256.714291 C138.006907,262.533142 131.113829,263.788064 126.139087,265.689737 C120.390544,267.686589 114.577338,269.520004 108.669294,271.008316 C105.785323,264.896932 103.028522,258.728101 100.323453,252.536164 C87.9598825,223.967828 77.0102772,194.803616 67.2246063,165.291757 C67.0413944,164.636739 64.7911211,157.539648 64.3794332,159.519541 C64.3449463,159.31604 64.0884496,158.79033 63.9914551,159.239728 C65.6511393,166.169355 67.3343179,173.096862 69.1558752,179.988332 C64.681194,179.362991 59.870265,179.119214 55.7749402,181.308968 C55.5637077,181.421317 55.7188989,181.698799 55.9277605,181.665094 C60.7774872,180.825654 65.4549948,182.411264 70.112888,183.549597 C76.6546305,205.782062 85.0953106,227.450448 94.029585,248.847924 C91.2663185,247.968207 88.0590325,248.941195 85.1750616,249.010937 C76.0920622,249.9481 67.1125237,251.932233 58.5317404,255.018451 C47.7459481,258.509974 40.1200222,263.063093 39.682469,275.283953 M30.9807659,113.04504 C28.3254866,110.189669 26.2388109,106.543613 26.6420926,102.674978 C28.2371138,100.550938 28.7651952,97.7803588 29.6941873,95.3254181 C33.3260938,85.052866 36.6971928,74.7018814 40.650259,64.5397709 C49.0586075,67.1216877 57.3309481,70.2187158 65.1338352,74.2864005 C66.5693543,75.0179436 67.9897854,75.7768321 69.392973,76.563278 C70.8629791,77.3857605 72.466622,78.8145059 74.2297672,78.4053844 C72.302809,81.1293277 68.3346548,83.9635007 67.6643148,87.1111921 C67.5199007,88.1077102 68.2268831,89.0319431 69.3132219,88.8093641 C86.3174417,100.868908 103.877764,112.674075 119.950836,126.107038 C131.98678,135.620913 141.227126,143.336986 145.354782,158.773372 C148.137448,168.772469 148.145854,179.223085 147.736537,189.504116 C147.656786,191.502875 147.654631,193.548695 147.492973,195.560385 C147.734382,197.065443 147.275274,200.128555 145.581103,200.18367 C145.619901,200.548275 145.740605,200.885323 145.932439,201.182095 C145.878553,201.253957 145.822512,201.322002 145.764315,201.391956 C145.680253,200.980714 145.598346,200.571593 145.520751,200.160352 C144.201625,194.326661 144.024879,187.558139 144.244734,181.347124 C144.337202,179.566492 141.602172,179.608888 141.449136,181.347124 C141.037448,186.042482 140.62576,190.73784 140.214072,195.431077 C139.720262,198.472991 140.498589,202.451856 138.062949,204.764558 C135.586355,202.479413 136.40542,197.972718 136.526124,195.024076 C136.719898,190.214249 136.92919,185.406542 137.108091,180.596715 C137.164133,179.072579 134.635808,178.680416 134.34892,180.22999 C133.536537,184.647653 132.65712,189.052598 131.710669,193.444824 C131.139694,195.142784 130.747405,202.761347 127.893611,201.438591 C126.192973,200.279061 127.419415,193.480861 127.19525,191.229633 C127.300866,186.773813 127.363158,182.324352 127.691,177.879131 C127.824637,176.08578 124.899713,175.704216 124.498802,177.455171 C123.847861,180.289344 123.22494,183.123517 122.660216,185.976768 C121.420842,190.786595 121.871328,197.307101 117.396646,200.503759 C115.644278,188.009657 118.165921,175.602466 118.519628,163.152879 C118.308395,159.118899 117.614345,155.125195 117.002202,151.139971 C116.325396,146.732906 115.930951,141.935798 117.515195,137.685599 C117.081953,135.782018 115.37916,140.931013 115.219658,141.359212 C113.937175,138.83665 110.813951,138.641628 108.343823,137.855183 C102.853932,136.08091 97.2304047,134.743316 91.6758509,133.166184 C76.9453986,129.081329 62.1979183,125.060068 47.4463427,121.047286 C41.5533859,119.41928 35.3500464,117.492381 30.9807659,113.04504 M178.488116,179.502898 C176.455541,168.503043 176.511583,157.357345 177.380223,146.236873 C178.33508,128.990178 179.261917,111.739243 180.253416,94.4946684 C184.557818,125.706607 189.146737,156.88251 192.655569,188.194079 C192.905599,190.373234 192.867017,192.679577 193.968444,194.623433 C187.881498,195.437437 181.393425,196.257799 175.474819,194.190994 C178.072117,189.707617 178.988176,184.603138 178.488116,179.502898 M209.244005,102.026319 C213.845857,131.608131 211.220538,161.709295 215.684442,191.257191 C209.49188,191.950365 203.346737,192.976349 197.218623,194.104082 C197.889178,190.453786 196.617472,186.684781 196.397618,183.009048 C193.069412,156.791146 189.394612,130.590627 184.525487,104.601876 C183.331161,98.382382 182.124333,92.1883257 180.740544,86.0027485 C180.949621,82.2570615 181.132833,78.5113744 181.253538,74.7633556 C188.010824,70.5218473 195.630283,67.776494 203.51055,66.3924764 C205.639904,78.2379202 207.767533,90.0748848 209.244005,102.026319 M155.972451,9.06883786 C155.703022,8.6088412 155.446525,8.13824554 155.200805,7.66129049 C156.032803,7.69308749 156.843246,7.72276469 157.662311,7.85843191 C157.625669,9.17482787 157.698954,10.5018228 157.714042,11.8288178 C157.304294,10.8579493 156.502688,9.97187276 155.972451,9.06883786 M294.959154,194.44749 C275.30375,180.176995 243.019442,189.268818 220.249652,190.73572 C215.908607,162.315346 217.680374,133.431159 213.634409,104.964362 C209.907879,76.5251216 205.978522,47.6894787 196.619628,20.4415662 C192.75709,9.90594698 186.075244,6.77733378 175.073908,6.86212579 C169.491334,6.64378636 163.5876,5.75135046 158.162372,5.87832649 C156.972572,5.89761667 155.728887,6.05448189 154.655481,6.53355675 C153.146677,3.13763674 152.327612,-0.5084197 151.913768,-4.18203354 C151.887903,-4.41521157 151.590453,-4.45760758 151.50208,-4.23502855 C150.226063,-1.03624996 150.090271,2.45506106 150.784105,5.80434546 C151.286537,8.20395935 154.276124,17.6476695 157.748529,13.9528576 C158.024209,21.7007276 156.31926,30.9536557 148.71726,34.9749168 C135.433319,40.7577319 117.07096,35.492148 109.376276,23.2185046 C107.889026,20.7658957 106.606543,18.1562096 104.959791,15.8013235 C116.433167,12.5580291 122.873389,-1.16767758 120.17069,-11.6204126 C118.500229,-3.49097866 115.454385,5.59236544 107.869628,10.1456964 C80.2496791,10.0842222 57.2858995,22.6440387 44.3101861,46.8349872 C41.7710847,50.3477082 39.4238169,53.9977923 37.2726937,57.7118943 C36.11501,60.1963002 32.7247277,63.6515746 35.6022322,66.0511885 C32.2785528,74.907714 29.3299189,83.8869759 26.2131612,92.8136668 C25.3572383,95.7877465 23.4001041,98.9080925 23.7904532,102.034798 C23.3679882,103.961696 23.3873871,106.240482 24.355177,108.093187 C25.2733919,111.395836 27.3337714,115.838937 30.75035,117.240125 C33.6494089,119.883516 37.3158024,121.704424 41.1395425,123.075935 C30.9419681,149.683668 27.0602468,178.379404 23.6050859,206.492195 C20.2186834,231.086118 18.4708418,261.002859 39.6889353,278.777172 C40.1006233,283.862785 43.1223264,290.343014 49.0974053,290.398129 C53.2356233,294.455214 58.2795546,292.229424 62.8857174,290.245503 C70.6603682,287.370842 78.8143755,285.776964 86.9166524,284.888556 C87.7852923,285.567104 89.1992571,285.454543 89.973058,284.664069 C94.8809815,283.534216 101.683532,288.108745 102.675031,283.964535 C109.003386,283.351701 115.262767,282.202981 121.584655,281.532912 C118.920323,284.984159 119.112372,290.073587 121.119081,293.802316 C116.008547,303.839782 127.913009,309.652275 135.19191,313.770834 C145.018319,319.451899 155.280556,324.842763 166.518774,327.197649 C176.399284,329.272934 186.749895,328.643565 196.283164,325.328197 C201.292609,324.070944 208.289148,319.943905 205.316589,314.129293 C209.084503,303.063935 182.624394,291.597936 174.841121,286.056566 C178.022542,285.660375 178.138935,279.067584 169.864224,282.855879 C168.864102,282.18793 167.881224,281.498995 166.909124,280.797553 C200.378489,276.956475 264.298104,266.389271 288.520872,243.546304 C301.828307,231.80049 309.506179,208.041769 294.959154,194.44749" id="ðŸ–-Ink" fill="#000000"></path>
                </g>
                <g id="Head" stroke-width="1" transform="translate(74.362477, 38.736000)">
                    <g id="head/Afro">
                        <path d="M42.0273724,17.7910313 C74.6283467,16.1869879 89.3397157,39.1526896 90.2912972,49.410381 C90.9518434,56.530821 86.7470363,64.7379426 86.7470363,71.1006459 C86.7470363,74.3484101 90.7214746,81.3209757 88.8712286,86.0545836 C84.7529967,96.5905311 76.0332918,108.283475 64.9217447,108.283475 C53.8101975,108.283475 39.3492455,111.357967 27.0714675,93.7692839 C25.9194622,92.1189644 11.3485463,82.7393304 9.93297038,73.8265323 C6.40688764,51.6254881 18.7651965,18.9355843 42.0273724,17.7910313 Z" id="âœ‹-Skin" fill="#D08B5B"></path>
                        <path d="M40.4904224,3.49854944 C41.656203,2.16430944 43.6242644,1.63061344 45.3729354,1.73390944 C47.9131327,1.88454944 50.1223085,3.45335744 52.6496005,3.56956544 C55.2992779,3.69222944 57.8566823,2.77332544 60.5130275,3.19942144 C62.1412488,3.46196544 63.7544139,4.21731744 64.797594,5.49130144 C68.4110838,4.45618944 72.3343013,5.82701344 74.6357502,8.82044544 C77.4749208,8.37928544 80.5635942,10.2603486 81.4325525,12.9974774 C85.0395896,13.1136854 88.4444434,16.0124294 88.8466593,19.6450054 C90.2879685,20.0259094 91.5395695,21.0203486 92.3074361,22.3350054 C93.2000541,23.8586214 93.3484653,25.6060454 93.1871488,27.3233414 C94.8841985,28.1905974 95.7467041,30.0542294 95.9725472,32.0254614 C97.5233366,33.1832374 98.1965642,35.2642214 97.8803838,37.2289974 C99.0676733,37.8982694 99.6808911,39.4563174 99.6742234,40.8465094 C99.6677707,42.1441654 99.3238439,43.2935486 99.8077934,44.5457974 C100.238905,45.6611387 100.393676,46.5906766 100.156538,47.7589693 L100.132362,47.8727894 C100.09042,48.0632414 100.055145,48.2459462 100.023527,48.4260686 C100.344655,48.7079806 100.616312,49.061339 100.820216,49.472371 C101.563993,50.974467 101.453222,52.6876742 100.886033,54.211075 C101.13446,55.1811966 101.102842,56.205979 100.735686,57.1384406 C101.423325,58.1294366 101.784889,59.3448862 101.678635,60.6059582 C101.559476,62.0178854 100.91507,63.2821854 99.9379221,64.2170142 C100.198179,66.1456366 99.4143963,68.2294182 97.9971769,69.5873302 C98.1982849,70.7418782 98.0247083,71.9519478 97.393423,73.046455 C96.9434575,73.826555 96.3377678,74.407595 95.6389447,74.8126014 C95.6619592,75.456695 95.5748482,76.1154222 95.3606199,76.7754406 C95.0631523,77.6913318 94.5594146,78.535131 93.8965113,79.2147326 C94.2920594,81.7450542 92.7778351,84.5527686 90.1126712,85.2627134 C89.8887639,85.3223238 89.6751809,85.3496542 89.4706315,85.3539582 C89.2058574,87.787655 88.627699,90.1875654 87.7324999,92.4667486 C85.4568617,98.2704774 81.3185555,103.344893 75.9219805,106.510485 C73.25273,108.074989 70.2543938,109.146685 67.1936819,109.594301 C64.9911738,109.917101 62.8725503,109.837477 60.6616538,109.617973 C57.8867948,109.340365 55.0992455,108.925029 52.4020334,108.210565 L51.9682056,108.095177 C50.8500722,107.795481 49.6711766,107.449668 48.7025082,106.846197 C47.6184612,106.170469 47.055144,105.128901 46.8056411,103.902261 C46.6664294,103.219539 47.0986534,102.485236 47.8456679,102.471098 L47.8937747,102.471181 C48.0572421,102.474625 48.2193329,102.468427 48.3834611,102.458097 L48.5069925,102.449661 L48.5132301,102.449661 C48.5218337,102.447509 48.5263505,102.447509 48.534739,102.447509 C48.6078691,102.436749 48.6788484,102.415229 48.7498277,102.404469 C49.5716385,102.266053 50.2903719,102.403313 51.0620713,102.660125 L51.1588209,102.692837 C52.4579565,103.140453 53.7463377,103.555789 55.088491,103.863525 C56.475813,104.179869 57.8803421,104.431653 59.2891729,104.629637 L59.4289806,104.646853 L59.4719983,104.653309 L59.4935072,104.655461 L59.4935072,104.655461 C59.497809,104.655461 59.5021107,104.655461 59.5064125,104.657613 L59.9215337,104.709261 L59.9215337,104.709261 C60.2486835,104.747997 60.5754033,104.782429 60.902338,104.816861 C61.5045863,104.877117 62.1068346,104.924461 62.7090829,104.958893 C73.1043188,105.544237 81.8347683,97.3558774 84.4696046,87.5384534 C85.4245984,83.9855014 85.4869741,80.4411574 85.2052079,76.8946614 C85.1148707,76.6364214 85.0610985,76.3502054 85.0632494,76.0360134 C85.0632494,75.8724614 85.072068,75.7110614 85.0826074,75.5475094 C84.7322279,72.1172214 84.123527,68.6847814 83.7426049,65.2415814 C83.2975864,61.2194934 83.0500194,57.1739486 83.1403566,53.1258214 C83.1855252,51.1266134 83.398463,49.1467734 83.6780783,47.1671486 L83.77917,46.4559126 L83.77917,46.4559126 C82.515524,46.2090782 81.3407096,45.609531 80.405289,44.7416294 C78.375282,45.9144694 75.7479738,46.018411 73.7442076,44.779935 C71.4986818,46.1888494 68.3613984,46.3166782 66.1001711,44.939183 C64.7334976,45.9153302 63.0114976,46.3364766 61.3211157,45.9659022 C60.5607772,45.7993374 59.8047405,45.4388774 59.1573236,44.9398286 C58.695098,45.0213894 58.22685,45.0530238 57.761183,45.0287062 L57.6650383,45.0825062 L57.6650383,45.0825062 C56.5917458,45.6484822 55.4027356,46.0209934 54.1790961,45.9794598 C53.2731426,45.9489014 52.3398728,45.7700702 51.4758616,45.4317758 C50.5529161,45.9891438 49.5428596,46.3696174 48.4622541,46.5060542 C46.8841485,46.7051142 45.1810763,46.3558446 43.8686052,45.4601822 C41.4701513,46.8271326 38.519995,47.0375982 35.9311876,46.1191246 C35.400994,47.0175846 34.6673266,47.7923046 33.8082624,48.3894846 C33.9620508,48.940827 34.011091,49.5287534 33.9581792,50.0940838 C33.8712834,51.0246086 33.6381272,51.858939 33.256775,52.6082654 C33.6587757,53.444963 33.7796556,54.4723278 33.5546728,55.5035662 C33.2339756,56.974243 32.378783,58.253607 31.2715065,59.249983 C31.1738562,61.5969542 29.8874108,63.7975894 27.7937376,65.0201406 C27.6876989,65.081903 27.5823055,65.1322598 27.4771271,65.177667 C27.384639,65.3042046 27.2740834,65.415463 27.1478263,65.5092902 C25.8164274,66.740019 23.7094187,66.642103 22.0405456,65.9467918 C22.0082823,65.9482982 21.9762341,65.9510958 21.9435406,65.9517414 C21.3475299,65.9668054 20.9412274,65.7343894 20.700113,65.3922214 C20.4572779,65.4053486 20.2161635,65.4309574 19.9733283,65.4761494 C19.0869479,65.6418534 18.1147471,65.9603494 17.3124663,66.3737486 C15.2304079,67.4452294 14.2668106,69.3389894 13.9785918,71.6158054 C13.6647774,74.0992134 14.3786567,76.6299654 16.2996137,78.3106774 C17.2328835,79.1284374 18.4266256,79.6406134 19.6397258,79.8558134 C20.9797283,80.0946854 22.4122189,79.5071894 23.4016268,80.6585094 C23.5995084,80.8866214 23.7350143,81.2051174 23.6274699,81.5128534 C23.2919316,82.4726454 22.7391537,82.8406374 21.8744972,82.9740614 C23.1241624,84.4567894 24.4060909,85.8900214 25.8256762,87.2221094 C27.3614094,88.6661014 28.9487638,90.0649014 30.33415,91.6573814 C31.7986888,93.3423974 33.1214842,95.1285574 34.0399129,97.1729574 C34.5647293,98.3479494 34.9863031,99.5595254 35.4403553,100.762493 L35.5214403,100.972077 C36.0276833,102.250202 36.701079,103.48225 35.9219388,104.816861 C35.6122111,105.341949 34.911022,105.849821 34.265756,105.765893 C32.4484717,105.533477 31.8397708,104.304685 31.2803251,102.703597 C30.8587513,101.494173 30.5361183,100.250317 30.0824963,99.0516534 C29.9975362,98.8297822 29.9050481,98.610063 29.8080431,98.391635 C28.7601311,98.6838766 27.607901,98.451891 26.6726954,97.8540654 C25.6733934,98.2971622 24.566332,98.5181726 23.4971262,98.4994502 C22.0654959,98.4742718 20.7575417,98.076367 19.6330581,97.358675 C19.5435812,97.335003 19.4536741,97.3121918 19.3644123,97.286583 C17.653812,97.9420822 15.6504761,97.8250134 14.1016225,96.762571 C13.098664,96.0745766 12.4129613,95.1563182 12.0232206,94.133903 C10.7273113,94.109155 9.44538276,93.6494878 8.51684493,92.729723 C7.6642334,91.8852782 7.16587293,90.7957206 7.01789192,89.6635534 C5.90244203,89.442543 4.85668087,88.9030366 4.03654774,87.994247 C3.35170538,87.2352366 2.93550879,86.2685582 2.79484079,85.2648654 C1.43634069,84.877075 0.211195574,83.9895902 -0.457945307,82.7521902 C-1.08062703,81.6002246 -1.1705341,80.3505582 -0.865968532,79.2138718 L-0.944906077,79.1002462 L-0.944906077,79.1002462 C-2.34427302,78.3674902 -3.41218832,77.1679654 -3.52188354,75.454543 C-3.55285631,74.9666846 -3.50037468,74.478611 -3.36809514,74.0167918 C-3.41584483,73.500527 -3.38530223,72.9844774 -3.25001145,72.4852134 C-5.1320374,70.6538614 -5.81386851,67.7120774 -4.79219728,65.2803174 C-6.63120549,63.3004774 -7.11730591,60.1693174 -5.76869989,57.8195486 C-6.69358121,56.7002934 -7.16892719,55.2735174 -7.08934438,53.7499014 C-6.99040359,51.8477486 -6.11929444,50.1861894 -5.07611434,48.6475094 C-5.85043359,47.7910134 -6.26340385,46.5966534 -6.23307635,45.4431814 C-6.1902737,43.7710774 -5.30195745,42.3313894 -4.18973389,41.1391814 C-5.15999893,38.1952454 -4.07595198,35.0016774 -1.6949203,33.1380454 C-2.17671894,32.3439574 -2.35524255,31.3604934 -2.19801272,30.3641174 C-1.9229143,28.6231494 -0.617326019,27.4373974 0.791504831,26.4991254 C0.49683334,25.5395486 0.574265265,24.5042214 1.04315859,23.5121494 C1.66906664,22.1886694 2.84990349,21.3493894 4.08236162,20.6392294 C4.40069287,17.7039014 7.67864434,15.1968214 10.4274777,16.7118294 C9.74564655,14.5275494 11.7096213,12.1689574 13.9680524,11.9193254 C15.0733931,8.56650944 18.8869154,6.45324544 22.315429,7.28606944 C24.0684017,4.88874144 27.331297,3.96574864 30.1016392,4.99418944 C33.14751,2.65926944 36.926403,2.31279744 40.4904224,3.49854944 Z M18.7944273,69.330489 C20.9345597,69.214281 22.5391212,70.961705 23.666401,72.560641 C24.7244222,74.060585 22.010003,75.644457 21.2184767,73.991721 C20.9345597,73.402073 20.6119266,72.777993 20.1795984,72.261513 C20.107006,72.363195 20.0428826,72.4685085 19.9790618,72.5765457 L19.9150393,72.685457 C19.8677198,72.765081 19.8182494,72.846857 19.7773826,72.930785 C19.7816843,72.945849 19.7171577,73.143833 19.7150068,73.152441 C19.5386341,73.688289 19.1536254,74.032609 18.6290241,74.217681 C17.9512797,74.454401 17.3103154,73.944377 17.0930758,73.346121 C16.7469982,72.390633 17.5512147,71.557809 18.3879097,71.179057 C17.5662709,71.045633 16.7575375,71.325393 16.1638927,71.958081 C16.0823741,72.046313 15.9445023,71.975297 15.9404156,71.865545 C15.8713721,70.365601 17.4393686,69.403657 18.7944273,69.330489 Z" id="ðŸ–-Ink" fill="#000000"></path>
                    </g>
                    <g id="face/Smile" transform="translate(34.271403, 40.027200)" fill="#000000">
                        <path d="M31.5957688,51.8473944 C30.1468266,51.2572405 28.8540038,50.2728249 27.9088256,49.0152978 C27.5802219,48.5781297 27.4950205,48.116487 27.5639544,47.6942558 C27.6414657,47.2194866 27.9227946,46.7891929 28.3064642,46.5005651 C28.6913222,46.2110432 29.1727306,46.0682582 29.6381523,46.1410459 C30.0425763,46.2042942 30.4451612,46.425373 30.7637771,46.8838825 L30.8303439,46.9755736 C31.3922687,47.7345737 32.1245084,48.3573242 32.9588444,48.7587229 C33.7630086,49.145606 34.662385,49.3261792 35.5930929,49.2211722 C37.365686,49.0212555 38.5874463,48.0641454 39.8860443,46.7644062 C40.0470093,46.6003108 40.2080774,46.4310712 40.3699263,46.2591075 C40.472137,46.1032232 40.61398,46.0030362 40.7714641,45.9504698 C40.9463224,45.8921041 41.1441278,45.8954064 41.3253025,45.9585317 C41.5000463,46.0194163 41.6562586,46.1347898 41.7610031,46.2883446 C41.8605543,46.4342858 41.9169968,46.6145765 41.8986827,46.8219555 C41.7798197,48.1689226 41.0744859,49.3710332 40.0725887,50.3149441 C38.9598538,51.3632776 37.4848425,52.0885217 36.0961838,52.3428876 C34.5662896,52.6230814 33.0073683,52.4223386 31.5957688,51.8473944 L31.5957688,51.8473944 Z M36.8178979,31.0678116 C38.4455478,32.0555895 40.9255864,34.3588946 39.1746097,36.8077162 C37.1135427,38.966923 34.1460715,36.4912449 32.6837532,35.3715921 C31.327823,34.5038549 29.8043596,36.73561 31.0623923,37.7488395 C41.6291355,45.5595743 45.9173436,31.3261018 37.6411405,29.9064271 C36.7299008,29.7499851 36.391464,30.7622318 36.8178979,31.0678116 Z M17.8821928,21.9819053 C18.0620268,19.7532347 21.4617222,19.2471437 21.7999098,21.4525133 C22.1027483,23.4280493 21.7462395,25.2428309 20.8549675,27.0214589 C20.0033555,28.7206781 17.8628979,27.9279123 17.7010248,26.3806243 C17.4840406,24.3065491 17.7703257,23.3682659 17.8821928,21.9819053 Z M43.7611324,20.9952348 C44.2351123,20.3754588 44.9194627,19.9523756 45.7393898,20.1914628 C48.3011233,20.9388524 47.5460747,24.569922 46.6463965,26.3373596 C46.157544,27.2971516 44.5773953,27.5405428 43.8632999,26.6954524 C42.6993655,25.3173116 42.1419702,22.5651188 43.6216758,21.2076372 C43.6617668,21.137482 43.7063843,21.0666812 43.7611324,20.9952348 Z M20.8188855,12.2299236 L21.2235405,12.15921 C22.4753733,11.9430534 24.0318834,11.735351 24.9174435,12.7401628 C25.3871126,13.272998 25.5487702,14.2633484 24.9174435,14.7733724 C23.8069639,15.6707564 22.5792286,15.3229932 21.2484636,15.3989588 C20.1517787,15.4617972 19.0977714,15.6429956 18.0413931,15.9444908 C15.7238704,16.6058004 13.8354945,17.8130724 11.8561594,19.1387044 C11.5964296,19.312586 11.3313112,18.9809628 11.4552486,18.7384324 C12.5978443,16.5040108 14.8121217,14.66857 17.0300634,13.5497452 C18.2138279,12.9525652 19.5092438,12.4571748 20.8188855,12.2299236 Z M41.4259083,11.2290042 L41.7356291,11.2922904 C45.1061324,11.995695 49.4852051,13.4008034 51.0813011,16.706158 C51.1421197,17.1735469 51.077859,17.2737177 51.0256036,17.3391635 L51.0082053,17.3609417 C50.9651468,17.4168286 50.9307894,17.4938685 50.7278795,17.5574809 C50.6715721,17.5440864 50.6147041,17.5298999 50.5572338,17.514863 C49.8256113,17.3234371 49.2467565,17.0597209 48.6863636,16.7860839 L48.0787556,16.4872143 C47.3738089,16.1421156 46.662638,15.8095769 45.9089602,15.5640842 C44.300547,15.0402993 42.6461558,14.6713255 40.9661329,14.4743019 C40.6020009,14.4316349 40.2513646,14.3089362 39.9747378,14.0986507 C39.7121634,13.8990476 39.5115735,13.6226923 39.4201157,13.2553561 C39.3015865,12.7799642 39.3356492,12.4200536 39.5911244,11.9911805 C39.7832261,11.6691061 40.0580927,11.4458663 40.3737092,11.3176745 C40.6954665,11.1869885 41.0617841,11.1561793 41.4259083,11.2290042 Z" id="ðŸ–-Ink"></path>
                    </g>
                    <g id="facial-hair/*-None" transform="translate(26.511840, 72.737600)"></g>
                    <g id="mask/medical-mask" transform="translate(4.741955, 60.471200)">
                        <path d="M84.7640419,15.1406542 C84.3577426,10.0010326 77.8666527,7.82385424 74.6335015,7.17825424 C63.8675392,4.65137584 54.7082374,11.134491 41.8709029,11.2670542 C40.5752714,11.287283 36.8700801,11.0690702 35.1470261,10.614783 C26.4048009,8.63149984 17.6716284,6.52189424 9.09386278,3.92077184 C7.83271828,4.21559584 7.45961263,5.85907824 8.32545052,6.79541344 C16.5411032,9.70427184 29.1100862,12.3090526 35.7475301,12.6055982 C35.6201439,21.1662542 31.0937322,29.7742542 24.8429733,34.5086542 C34.7844821,45.4849302 57.9702714,49.094695 71.6154627,43.3331454 C78.3277001,41.3218862 85.4106721,23.3182542 84.7640419,15.1406542" id="ðŸŽ¨-Color" fill="#FFFFFF"></path>
                        <path d="M8.40017942,4.17985112 C8.03052247,4.16543272 8.24606588,3.08943272 9.07871008,3.24287032 C19.8222559,5.75145672 33.2075018,10.5297575 44.2504375,10.4946799 C52.3740531,10.2291231 59.6531697,5.71207512 67.8216184,5.68474472 C73.3125868,5.78976232 80.314299,6.56943192 84.157007,10.9685503 C89.2255103,27.0177359 77.81184,48.8467631 59.8534095,48.9730855 L56.4543393,48.7275465 C44.8681097,47.8753068 32.1751222,46.5117678 24.7071163,36.6976471 L24.6489196,36.7475735 L24.6489196,36.7475735 C23.5321891,35.9995383 23.5944812,34.3840319 24.5435188,33.5531447 L24.571755,33.5974759 L24.571755,33.5974759 C24.5898607,33.5682087 24.6099062,33.5402327 24.6293051,33.5116111 L24.6172347,33.4739511 L24.6172347,33.4739511 C24.9823652,33.0913255 25.3975018,32.7334479 25.7749183,32.4130151 L25.7768582,32.4192559 L25.7768582,32.4192559 C31.3844356,27.7547959 35.0458716,20.7016159 35.256673,13.3979431 C33.4001976,13.9071063 2.20977262,7.45110632 7.7774745,5.87562712 C11.7598546,7.21976632 15.7657289,8.43370952 19.852432,9.39995752 C19.9209748,9.36143672 20.0192626,9.37155112 20.0569827,9.44751672 C25.0562966,10.6758783 30.1564848,11.3778607 35.2633549,11.9462039 C35.2579663,11.7025975 35.2486979,11.4589911 35.2361964,11.2149543 C26.1557835,9.45009912 17.2538406,6.82982392 8.40017942,4.17985112 Z M81.9269948,10.6933095 C63.3021041,1.29961432 54.0570161,15.1776471 36.0442687,11.3565559 C37.9287647,19.7506471 33.275398,28.8000223 26.9550185,34.2846095 C36.1384611,42.2203247 40.1130817,43.4220015 52.159803,44.7099735 L53.7335721,44.8970691 C56.0997709,45.1768473 58.4881772,45.437819 60.8617216,45.4786679 C73.1735613,44.5840815 82.4766305,31.7951759 83.8688254,20.2077319 L83.8763707,19.8876357 C83.938775,16.9469032 83.8034855,13.8341044 82.498616,11.1400647 C82.2582851,11.0565671 82.0494235,10.9061423 81.9269948,10.6933095 Z M55.9979414,18.0672882 C56.641554,17.9226738 57.2983148,18.6237954 56.899344,19.237761 C55.6101788,21.222981 52.4574253,21.9921058 50.2524162,22.3041458 C47.6988734,22.6654666 45.2235729,22.3805418 42.7978473,21.5109186 C42.6678746,21.4642202 42.677143,21.234817 42.8327653,21.2533242 C45.1360622,21.5270586 47.5104885,21.3267074 49.7484757,20.7181218 C52.0177168,20.2767466 53.8500513,18.7699162 55.9979414,18.0672882 Z M73.4976887,16.6373057 C73.4870046,16.2600601 75.3445577,17.3515545 75.6383434,17.4985361 C77.9071533,18.8586001 80.5333342,18.9582377 83.0355777,19.4921489 C83.6188382,19.7155265 83.617976,20.4558145 83.0353622,20.6791921 C79.9123537,21.5083577 75.1727696,19.3322553 73.4976887,16.6373057 Z" id="ðŸ–-Ink" fill="#000000"></path>
                    </g>
                    <g id="accessories/*-None" transform="translate(10.130540, 51.863200)"></g>
                </g>
            </g>
        </g>
    </g>
</svg>