<svg xmlns="http://www.w3.org/2000/svg" width="433.312" height="626" viewBox="0 0 433.312 626">
  <g id="peep-sitting-17" transform="translate(20.312)">
    <g id="BODY" transform="translate(-20.311 159.505)">
      <path id="_Skin" data-name="âœ‹ Skin" d="M350.3,189.877a29.727,29.727,0,0,0-6.4-.791c-7.4-.435-14.949,3.089-22.207,4.678-3.177.784-6.541,1.708-9.941,2.4-3.018.409-6.139.716-9.276.911-2.536.076-5.486-.118-6.352,2.544a38.825,38.825,0,0,1-14.467.559,8.542,8.542,0,0,0,.244-4.827c.237-.395.561-.928.733-1.288h-.584c-8.528-3.409-17.75-5.737-26.322-9.269-11.189-4.027-27.669-11.808-40.6-17.121a56.022,56.022,0,0,0,.83-14.4l.52-.419a9.562,9.562,0,0,1,.917-2.887c.61-1.616.624-3.822.866-5.648a41.061,41.061,0,0,0-.077-13.193c-.4-5.752-4.284-10.187-8.471-13.744-5.141-5.077-10.288-10.03-15.306-15.3C166.63,73.8,164.433,38.188,120.954,27.365l-.021-.168c-.343-.382-.483-.684-.873-.081-1.436-.549-3.226-.5-4.428-1.432a17.149,17.149,0,0,1-4.639-6.852c-.763-5.035-.223-12.794-4.64-16.016C101.447-.119,75.38-2.209,73.132,4.207a9,9,0,0,0-2.465,5C69.215,11.955,68.3,15,66.835,17.783c-3.11,6.248-5.127,4.863-10.618,6.291-.6-1.327-2.406-1.059-3.724-.867-15.97,2.241-35.441,8.358-42.279,23.347l.582-.074c-11.8,22.144-4.148,50.306-2.037,73.773a196.779,196.779,0,0,1-4.886,61.275c-5.7,20.641-6.023,43.73,5.278,62.414,1.149,2.139,2.547,5.161,5.022,3.819a14.767,14.767,0,0,0,4.983,2.347,15.921,15.921,0,0,0,1.788,1.428c.028.041,1.006-.522,1.057-.537,1.848,2.633,103.295,11.433,113.822,12.8,9.275,1.117,21.531,3.968,29.089-2.713,6.246-1.782,12.782-6.422,17.774-11.029,3.029,43.869,4.7,133.711,7.407,134.337,1.183.4,2.779.88,4.118,1.263.008,3.152.243,6.733-.005,9.831-.415,3.5-1.466,7.632-1.942,11.31-2.045-.137-2.646,1.912-2.884,3.3-1.765,11.493-1.713,20.759-1.586,33.391,20.755,12.208,45.08,18.922,68.435,26.812,2.237,1.679,7.084-.137,9.667-.591,8.967-1.763,19.157-6.978,16.893-16.541-1.657-7.2-8.616-11.342-14.473-15.578-6.408-4.636-13.164-9.269-19.058-14.789a109.472,109.472,0,0,1-12.2-12.918c-1.749-2.334-3.614-6.17-5.967-7.89,2.486-2.944-2.537-.185-4.438-.014a145.664,145.664,0,0,0-4.164-15.348l1.614.073c5.3-4.943,8.271-28.671,8.64-35.711,2.657-45.89,2.594-98.782-8.064-137.43,8.1,4.978,16.972,9.136,25.023,14.059,5.076,2.97,10.227,7.093,15.918,8.533a1.38,1.38,0,0,0,2.468.435c1.019.125,2.331-.3,2.443-.76,1.042-2.127,2.551-4.42,2.369-6.731l-1.4-3.238c3.131,1.271,6.536,3.946,9.878,4.191,6.751,22.513,20.053,9.9,32.853,1.14,7.725-5.39,16.175-11.343,24.3-17.09,6.9-5.479,20.363-10.678,13.762-21.531" transform="translate(70.463 -7.512)" fill="#d08b5b"/>
      <path id="_Top" data-name="ðŸ‘• Top" d="M12.649,221.231C9.07,217-.132,200.082,0,181.568c.145-20.17,9.808-42.645,10.03-63.261A274,274,0,0,0,5.939,66.289c-3.094-22.8.616-52.878,26.346-60.3A69.571,69.571,0,0,1,54.321,0c.6.125.992.757,1.316,1.41l.066.135.137.287c3.219,9.717,13.435,15.138,22.646,18.745l.563.219.571.218c15.047,6.672,40.016,3.561,42.346-15.934,35.258,9.358,44.809,48.973,67.261,73.1,5.262,5.9,10.79,11.542,16.176,17.32,1.7,1.665,3.252,4.165,5.626,4.753a15.9,15.9,0,0,1,2.619,7.4c-7.624-3.4-16.23-1.787-24.3.79-2.355.752-26.573,12.707-40.676,9.865-.721-.145.64,28.337-.767,28.72-12.2,3.321-49.447,6.627-56.913,4.655-12.123-3.2-27.237,16.207-41.279,35.615-13.01,17.981-25.1,35.962-33.044,35.963A5.124,5.124,0,0,1,12.649,221.231ZM204.37,117.352a1.869,1.869,0,0,0,.284-.9,38.57,38.57,0,0,0,7.733-4.273c2.014,1.433,2.439,3.65,2.206,6.128-.092.963-.212,1.926-.335,2.886C211.728,118.568,207.974,117.638,204.37,117.352Z" transform="translate(70.462 17.027)" fill="#e86bbb"/>
      <path id="_Shoes" data-name="ðŸ‘Ÿ Shoes" d="M69.01,280.379h0l-.271-.167a16.285,16.285,0,0,0-2.809-1.376c-1.005-.386-2.257-.787-4.187-1.34l-1.508-.431-.622-.182-.309-.092c-1.323-.4-2.191-.693-3.1-1.06l-.291-.12-.974-.329c-8.708-2.945-17.489-6.151-26.1-9.528-8.6-3.371-17.254-7-25.734-10.8l-1-.449L.57,253.815l-.036-.6c-.4-6.834-.574-12.757-.527-18.108A152.471,152.471,0,0,1,.9,219.458l.037-.324,2,.188a5.51,5.51,0,0,0,.34,2.36,5.94,5.94,0,0,0,1.222,1.97,5.653,5.653,0,0,0,4.1,1.861,5.033,5.033,0,0,0,1.611-.265l.111-.039.052-.017.153-.048a12.766,12.766,0,0,0,3.425-1.855l1.133-.775.288-.194.209-.137c.105-.068.2-.131.3-.192l.14-.088A58.07,58.07,0,0,1,25.756,217a51.1,51.1,0,0,1,10.186-2.8c.555-.1,1.141-.191,1.793-.272l.708-.084.728-.077,2.259-.221.886-.094.341.477C45.78,218.3,49,222.41,52.213,226.138a128.359,128.359,0,0,0,10.006,10.4,95.785,95.785,0,0,0,10.412,8.4,71.869,71.869,0,0,0,10.772,6.2l.49.223.045.026a22.764,22.764,0,0,1,5.533,4.539,17.247,17.247,0,0,1,3.43,5.682,11.367,11.367,0,0,1,.636,3.4,9.3,9.3,0,0,1-.482,3.219,9.874,9.874,0,0,1-1.623,2.949,13.386,13.386,0,0,1-2.786,2.6l-.137.1-.023.016a40.9,40.9,0,0,1-9.119,4.442,38.652,38.652,0,0,1-9.8,2.013l-.243.016ZM102.981,52a8.683,8.683,0,0,1-2.533-.372,9.137,9.137,0,0,1-2.385-1.138l-.121-.082-.053-.036-.183-.164-.153-.14-.15-.14-.147-.141a30.64,30.64,0,0,1-2.607-2.949l-.939-1.168-.375-.462-.277-.336-.2-.237a22.268,22.268,0,0,0-1.6-1.743l-.174-.167L89.9,41.6l1.544-.542a18.457,18.457,0,0,0,8.258-6.386,28.381,28.381,0,0,0,3.053-4.993,31.961,31.961,0,0,0,2.1-5.723l.074-.286.016-.044a11.876,11.876,0,0,0,.552-3.929l.018-1.356.009-.446.008-.3.01-.3a10.253,10.253,0,0,1,.988-4.682l.086-.167.028-.054.035-.05c.042-.061.046-.071.029-.1l-.355-.6.421-.538c.182-.233.382-.463.63-.724l.1-.109.233-.241.331-.052c5.173-.817,10.426-1.826,16.059-3.086,5.431-1.215,11.254-2.672,17.8-4.454l1.283-.35.639-.172.431-.115.427-.112c2.14-.556,3.729-.906,5.155-1.134A26.008,26.008,0,0,1,154.1.2l.357,0,.25,0c.264,0,.491.019.9.056l.407.037.188.016.18.013c.209.014.383.021.533.021a2.48,2.48,0,0,0,.827-.117l.042-.014L158.4,0l.45.481a17.523,17.523,0,0,1,3.335,4.764,9.115,9.115,0,0,1,.792,2.993,7.229,7.229,0,0,1-.376,2.929l-.053.149-.012.028a11.357,11.357,0,0,1-2.917,3.789,47.106,47.106,0,0,1-5.842,4.347l-.763.5-.55.355-.085.055c-.984.636-2.472,1.6-3,1.943l-.289.192c-1.206.805-2.089,1.443-2.777,2.005l-.117.1-1.678,1.165-3.452,2.4-2.561,1.783L136.748,31.2c-6.833,4.764-13.24,9.257-19.588,13.735l-.323.218-.254.175-.364.254-.514.364L114,47.169l-.341.242-.337.236-.341.236-.345.236-.339.229a28.341,28.341,0,0,1-4.66,2.628,12.1,12.1,0,0,1-4.1,1C103.349,51.991,103.163,52,102.981,52Z" transform="translate(259.532 181.877)" fill="#fff"/>
      <path id="_Ink" data-name="ðŸ– Ink" d="M260.891,464.742a6.4,6.4,0,0,1-2.814-.589,80.054,80.054,0,0,1-9.832-2.795c-1.409-.466-2.867-.948-4.291-1.38-9.375-3.1-18.717-6.49-27.765-10.081-9.152-3.632-18.246-7.563-27.03-11.686a1.894,1.894,0,0,1-1.025-1.686c.034-.982.016-2.722-.006-4.926v-.009c-.054-5.327-.137-13.377.409-20.17a45.534,45.534,0,0,1,1.371-8.744,9.6,9.6,0,0,1,1.192-2.727,2.355,2.355,0,0,1,1.612-1.132,66.245,66.245,0,0,0,1.233-9.717c.172-3,.192-6.215.059-9.816a51.8,51.8,0,0,0-5.865-1.566c-.545-.171-1.169-.3-1.831-.444a19.207,19.207,0,0,1-2.492-.645,4.341,4.341,0,0,1-1.936-1.223,1.122,1.122,0,0,1-.57-.437,1.2,1.2,0,0,1-.168-.8c1.014-9.492,1.829-19.42,2.423-29.507.485-8.075.824-16.418,1.007-24.8.176-8.069.213-16.418.11-24.813-.1-8.049-.33-16.4-.686-24.807-.34-8.018-.8-16.355-1.382-24.777a57.1,57.1,0,0,1-7.472,5.518,42.352,42.352,0,0,1-4.09,2.208,35.58,35.58,0,0,1-4.32,1.7,13.3,13.3,0,0,1-6.028,3.257,38.711,38.711,0,0,1-6.922,1.1c-.713.044-1.458.066-2.212.066a78.257,78.257,0,0,1-11.006-1.046c-1.242-.178-2.526-.361-3.791-.52a71.113,71.113,0,0,0-8.944-.531c-2.99,0-6.218.158-9.868.482-3.39.3-6.862.723-9.85,1.094l-3.257.406c-4.6.5-8.767.874-12.749,1.133-4.585.3-8.813.444-12.928.444-3.978,0-7.845-.143-11.493-.424-3.927-.3-7.747-.778-11.354-1.411a97.2,97.2,0,0,1-11.084-2.607,83.162,83.162,0,0,1-10.683-4.01c-.157.014-.32.021-.483.021a8.162,8.162,0,0,1-3.1-.7,16.7,16.7,0,0,1-3.1-1.751,28.886,28.886,0,0,1-5.043-4.579,1.231,1.231,0,0,1-.653.192,3.478,3.478,0,0,1-1.974-1.135c-.177-.157-.344-.305-.508-.436a21.61,21.61,0,0,1-2.307-.835,12.565,12.565,0,0,1-2.2-1.2,3.417,3.417,0,0,1-1.059.177c-2.437,0-3.966-2.952-5.082-5.108-.137-.264-.278-.538-.413-.788a63.412,63.412,0,0,1-4.11-8.373,61.081,61.081,0,0,1-2.673-8.374A65.166,65.166,0,0,1,.41,211.054a76.712,76.712,0,0,1-.41-8.4c.012-2.694.148-5.449.416-8.422.239-2.649.579-5.414,1.038-8.452.854-5.646,2.01-11.43,3.127-17.024h0c1.3-6.493,2.638-13.208,3.555-19.9.494-3.6.826-6.9,1.017-10.082a95.325,95.325,0,0,0,.093-10.185c.089-2.492.078-5.045-.033-7.805-.1-2.459-.277-5.026-.542-7.847C8.179,107.7,7.447,102.35,6.74,97.18v0C6.1,92.468,5.43,87.6,4.946,82.825a132.98,132.98,0,0,1-.765-14.25,76.919,76.919,0,0,1,1.29-14.056,61.9,61.9,0,0,1,1.737-6.926A58.11,58.11,0,0,1,9.844,40.75a20.18,20.18,0,0,1,4.08-8.2,34.75,34.75,0,0,1,7.289-6.68,53.935,53.935,0,0,1,8.957-5.018,60.162,60.162,0,0,1,9.082-3.214c.82-.135,2.168-.495,3.729-.911,3.48-.928,8.245-2.2,11.6-2.2a7.191,7.191,0,0,1,2.562.38,2.252,2.252,0,0,1,1.4,1.31,2.439,2.439,0,0,1,1.4-.876,7.117,7.117,0,0,1,1.7-.16c1.521-.369,2.881-1.532,4.157-3.556a40.008,40.008,0,0,0,2.82-5.895C69.894,2.658,70.992,0,72.468,0a1.523,1.523,0,0,1,.748.216c1.582,1.374.26,3.6-.905,5.57a12,12,0,0,0-1.2,2.367l-.289.567a25.841,25.841,0,0,1-2.253,3.756,10.607,10.607,0,0,1-3.226,2.931,2.858,2.858,0,0,1-1.463.738,13.054,13.054,0,0,1-1.847.245h0c-1.124.1-2.186.186-2.591.759a1.3,1.3,0,0,0-.1,1.124A12.147,12.147,0,0,0,60.8,21.352a18,18,0,0,0,2.317,2.825,32.965,32.965,0,0,0,6.4,4.859,61.7,61.7,0,0,0,7.433,3.756c2.214.95,4.533,1.823,6.89,2.595a36.3,36.3,0,0,0,6.393,1.726,39.953,39.953,0,0,0,6.957.616,34.191,34.191,0,0,0,7.616-.822,24.254,24.254,0,0,0,6.829-2.627,17.264,17.264,0,0,0,5.274-4.674,16.891,16.891,0,0,0,2.949-6.962,9.2,9.2,0,0,1-4.959-3,15.656,15.656,0,0,1-1.938-2.616,18.1,18.1,0,0,1-1.438-3.022,15.194,15.194,0,0,1-1-5.642,9.284,9.284,0,0,1,.42-2.546A6.431,6.431,0,0,1,112.078,3.7a23.814,23.814,0,0,0,1.313,7.448,14.717,14.717,0,0,0,4.18,6.228l.219.2a7.979,7.979,0,0,0,1.071.855,2.284,2.284,0,0,0,1.21.417,1.443,1.443,0,0,0,.222-.017,1.429,1.429,0,0,1,1.192-.636,2.162,2.162,0,0,1,1.894,1.4,55.719,55.719,0,0,1,9.192,2.4,52.618,52.618,0,0,1,8.09,3.682,56.3,56.3,0,0,1,7.147,4.787,67.486,67.486,0,0,1,6.364,5.712c1.931,1.959,3.808,4.071,5.739,6.455,1.721,2.125,3.446,4.421,5.274,7.017,3.4,4.827,6.646,10,9.787,15h0C178.182,69.746,181.5,75.027,185,79.985c1.885,2.671,3.669,5.034,5.453,7.224,2,2.46,3.957,4.642,5.97,6.669,3.844,4.042,7.888,8.015,11.8,11.857,1.131,1.111,2.3,2.261,3.464,3.41a28.065,28.065,0,0,1,3.6,3.4,24.154,24.154,0,0,1,2.852,3.957,20.166,20.166,0,0,1,2.729,9.339,36.036,36.036,0,0,1,.231,5.66c-.056,1.723-.218,3.576-.495,5.664l-.035.341q-.033.337-.066.69a16.341,16.341,0,0,1-1.419,6.244,5.694,5.694,0,0,0-.121.635,2.158,2.158,0,0,1-.6,1.457,56.791,56.791,0,0,1-.717,12.994l1.9.848c12,5.338,22.052,9.6,31.634,13.409,11.49,4.569,22.057,8.384,32.3,11.661a2.08,2.08,0,0,1,.369-.036.98.98,0,0,1,.975.579,1.834,1.834,0,0,1,.044,1.153,2.612,2.612,0,0,1-.578,1.116,7.963,7.963,0,0,1-.016,3.508,26.332,26.332,0,0,0,3.724.255,36.285,36.285,0,0,0,4.159-.254c1.243-.143,2.591-.349,4.12-.631a4.073,4.073,0,0,1,2.777-2.261,15.2,15.2,0,0,1,3.757-.4h.009l.586-.015c3.263-.2,6.468-.524,9.528-.951,5.186-1.157,10.4-2.581,15.433-3.958,2.531-.692,5.147-1.407,7.729-2.079a29.268,29.268,0,0,1,7.918-1.068,32.048,32.048,0,0,1,8,1.022,22.32,22.32,0,0,1,2.379,3.154,11.919,11.919,0,0,1,1.767,4.278,9.642,9.642,0,0,1-.107,4.027,12.641,12.641,0,0,1-2.958,5.4,19.23,19.23,0,0,1-2.413,2.274,23.708,23.708,0,0,1-2.831,1.93c-10.14,7.179-20.954,14.825-31.867,22.446l-.774.551c-.554.4-1.134.813-1.646,1.181a111.2,111.2,0,0,1-10.265,6.833,30.681,30.681,0,0,1-5,2.3,17.728,17.728,0,0,1-2.414.647,12.639,12.639,0,0,1-2.334.23,9.428,9.428,0,0,1-3.545-.663,9.914,9.914,0,0,1-3.232-2.165,16.432,16.432,0,0,1-2.853-3.929,33.094,33.094,0,0,1-2.409-5.953,12.638,12.638,0,0,1-4.319-1.665c-.674-.358-1.37-.729-2.07-1.026.5,2.324-.753,4.671-1.859,6.742-.148.277-.3.564-.447.846a2.438,2.438,0,0,1-1.27,1.331,4.3,4.3,0,0,1-1.841.375h-.051a2.245,2.245,0,0,1-1.588.61,2.82,2.82,0,0,1-1.312-.326,2.334,2.334,0,0,1-.958-.9,29.357,29.357,0,0,1-5.971-2.528c-1.9-1.036-3.762-2.234-5.562-3.393-1.36-.876-2.766-1.781-4.177-2.608-4.26-2.584-8.716-4.985-13.025-7.307l-.012-.006c-3.063-1.651-6.231-3.358-9.3-5.117,1.5,6.183,2.814,12.626,3.921,19.147,1.055,6.219,1.951,12.715,2.663,19.307.674,6.236,1.206,12.772,1.581,19.427.352,6.23.579,12.793.676,19.509.17,11.764-.046,24.556-.66,39.107-.547,12.968-1.338,25.832-2.168,38.966l-.023.467a31.488,31.488,0,0,1-.6,5,15.469,15.469,0,0,1-1.4,3.976,15.178,15.178,0,0,1-2.5,3.428,29.753,29.753,0,0,1-3.9,3.352,100.685,100.685,0,0,1,2.815,10.094c.12.361.438.4.746.445.377.05.733.1.739.692a7.476,7.476,0,0,1,1.644-.172,7.168,7.168,0,0,1,2.152.3,2.587,2.587,0,0,1,1.487,1.008,1.949,1.949,0,0,1-.106,1.975,34.289,34.289,0,0,1,3.814,3.807c1.177,1.353,2.3,2.793,3.394,4.187l0,.006c1.337,1.71,2.72,3.477,4.21,5.1a65.6,65.6,0,0,0,5.492,5.789c1.825,1.714,3.808,3.413,6.064,5.195,4.187,3.306,8.67,6.376,13,9.346l.223.153a42.2,42.2,0,0,1,7.017,4.433,27.859,27.859,0,0,1,4.949,4.956,17.759,17.759,0,0,1,2.8,5.214,12.415,12.415,0,0,1,.576,5.207,11.719,11.719,0,0,1-1.454,4.47,15.359,15.359,0,0,1-3.386,4.056,24.347,24.347,0,0,1-5.375,3.448,40.357,40.357,0,0,1-7.423,2.646l-.239.056c-.685.165-1.387.37-2.13.587A20.153,20.153,0,0,1,260.891,464.742ZM192.5,401.124a153.9,153.9,0,0,0-.923,16.931c-.02,5.047.153,10.6.528,16.974,8.921,4.031,18.037,7.881,27.093,11.444,9.117,3.587,18.417,6.978,27.642,10.079a47.041,47.041,0,0,0,5.261,1.719,30.636,30.636,0,0,1,7.733,2.965,37.537,37.537,0,0,0,9.729-1.961,39.91,39.91,0,0,0,8.942-4.348,11.238,11.238,0,0,0,3.617-3.873,8.3,8.3,0,0,0,.973-4.284,12.928,12.928,0,0,0-2.838-7.114,21.6,21.6,0,0,0-6.256-5.524,67.521,67.521,0,0,1-6.135-3.164c-1.959-1.138-3.941-2.414-5.891-3.793a99.841,99.841,0,0,1-11-9.1,150.331,150.331,0,0,1-18.563-21.689c-.528.057-1.069.108-1.545.154-1.365.131-2.777.266-4.172.521a50.242,50.242,0,0,0-10.158,2.811,57.106,57.106,0,0,0-9.423,4.76c-.538.335-1.069.7-1.582,1.053a15.848,15.848,0,0,1-4.307,2.345,6.079,6.079,0,0,1-4.713-.215,6.917,6.917,0,0,1-2.148-1.574A6.821,6.821,0,0,1,192.5,401.124Zm3.372-21.268a18.547,18.547,0,0,0,.7,5.35v0c.294,1.343.627,2.865.855,4.488a26.876,26.876,0,0,1,.257,5.235c-.08.6-.194,1.227-.3,1.831v0a15.806,15.806,0,0,0-.389,4.459,4.416,4.416,0,0,0,.819,2.262,1.839,1.839,0,0,0,1.469.66,6.424,6.424,0,0,0,3.06-1.13c1.119-.67,2.288-1.541,3.418-2.383a17.67,17.67,0,0,1,4.025-2.557,50.487,50.487,0,0,1,7.608-3.385,53.649,53.649,0,0,1,8.036-2.122,4.639,4.639,0,0,0-.674-2.2,5.2,5.2,0,0,1-.687-2.03c-.144-1.672-.19-3.339-.235-4.951v-.01c-.025-.878-.05-1.785-.091-2.7a23.93,23.93,0,0,1-9.683,1.622,66.43,66.43,0,0,1-9.684-.8C201.629,381.092,198.769,380.538,195.876,379.857Zm38.22,16.026a2.949,2.949,0,0,1-.388.215c.3.357.583.732.861,1.094a16.737,16.737,0,0,0,2.148,2.447l-.5-.772A30.142,30.142,0,0,0,234.1,395.882ZM13.786,121.193h0a9.725,9.725,0,0,1-1.984,3.975c.239,1.932.415,3.92.525,5.909.1,1.894.152,3.852.141,5.82-.021,3.627-.233,7.357-.648,11.4-.771,7.506-2.133,14.905-3.45,22.061v.009c-1.019,5.537-2.073,11.263-2.806,16.841-.394,3-.669,5.734-.841,8.358-.192,2.94-.251,5.672-.179,8.353a72.709,72.709,0,0,0,.7,8.376,64.421,64.421,0,0,0,1.791,8.427,63.613,63.613,0,0,0,3.1,8.507,69.762,69.762,0,0,0,4.62,8.615,3.871,3.871,0,0,1,.84.532c.118-.078.251-.17.418-.29,1.593-2.815,3.313-5.635,5.258-8.622,1.733-2.66,3.606-5.393,5.727-8.353,3.941-5.5,8.158-10.97,12.237-16.26,5.582-7.239,11.354-14.725,16.5-22.4.845-1.647,1.86-3.267,2.934-4.982,1.981-3.162,4.03-6.431,5.03-10-3.125-1.232-6.108-2.573-8.865-3.984a82.483,82.483,0,0,1-7.659-4.443,76.448,76.448,0,0,1-12.613-10.375,112.174,112.174,0,0,1-10.521-12.545c-3.379-4.592-6.776-9.685-10.249-14.934Zm331,61.89a29.511,29.511,0,0,0-5.821.642c-1.874.376-3.69.865-5.7,1.418-6.284,1.717-11.886,3.131-17.124,4.323-6.138,1.4-11.808,2.5-17.333,3.373a9.455,9.455,0,0,0-.665.753,1.058,1.058,0,0,1-.06,1.193,8.345,8.345,0,0,0-.845,2.861,26.4,26.4,0,0,0-.147,3.036v0a15.728,15.728,0,0,1-.622,5.146,32.835,32.835,0,0,1-1.953,5.522,30.656,30.656,0,0,1-3.044,5.257,23.313,23.313,0,0,1-4.074,4.378,16.789,16.789,0,0,1-5.044,2.885,35.849,35.849,0,0,1,3.167,3.609,32.1,32.1,0,0,0,3.561,3.971,8.185,8.185,0,0,0,2.222,1.085,7.683,7.683,0,0,0,2.251.332,12.652,12.652,0,0,0,5.884-1.734,49.686,49.686,0,0,0,5.487-3.578c.789-.565,1.533-1.1,2.249-1.578,9.146-6.453,18.629-13.085,28.992-20.277a61.164,61.164,0,0,1,5.472-3.783h0c2.188-1.408,4.449-2.864,6.37-4.389a13.546,13.546,0,0,0,4.178-4.709,6.251,6.251,0,0,0,.353-2.706,8.16,8.16,0,0,0-.7-2.587,16.559,16.559,0,0,0-3.151-4.486,3.63,3.63,0,0,1-1.249.19c-.378,0-.768-.036-1.146-.072h0c-.34-.032-.692-.065-1.035-.071-.155,0-.314-.005-.473-.005Zm-62.519,9.223c-1,2.033-1.917,4.136-2.81,6.431-.8,2.049-1.555,4.2-2.317,6.589-1.45,4.539-2.7,9.293-3.812,13.487,1.321.363,2.606.842,3.848,1.3h0c1.1.41,2.236.833,3.387,1.172a2.628,2.628,0,0,0,.575.062,5.032,5.032,0,0,0,2.683-.99A16.292,16.292,0,0,0,286.537,218a39.737,39.737,0,0,0,4.078-5.232,28.538,28.538,0,0,0,2.257-4.636,26.819,26.819,0,0,0,1.354-4.971,33.7,33.7,0,0,0,.265-3.4v0c.048-1.092.1-2.22.253-3.307a11.067,11.067,0,0,1,.9-3.17,50.177,50.177,0,0,1-5.145.3,24.445,24.445,0,0,1-8.233-1.268ZM129.852,169.771a.756.756,0,0,0-.745.536l-.993,2.987-.362,1.089h0c-1.783,5.371-3.627,10.924-5.529,16.355-2.134,6.092-4.116,11.379-6.061,16.164a.618.618,0,0,0,.038.606.858.858,0,0,0,1.458-.193c1.941-4.777,3.919-10.056,6.049-16.136,1.9-5.419,3.739-10.961,5.519-16.321l0-.008c.426-1.283.909-2.737,1.374-4.133a.663.663,0,0,0-.076-.625.836.836,0,0,0-.674-.321Zm61.014,9.982a.577.577,0,0,1,.44.221,4.909,4.909,0,0,1,.647,2.567,35.932,35.932,0,0,1,.009,4.138c-.131,2.892-.461,5.761-.543,6.371a32.4,32.4,0,0,1-.616,3.56c-.224,1.058-.455,2.152-.581,3.23a11.536,11.536,0,0,0,.026,3.235,25.7,25.7,0,0,0,4.769-8.384c1.12-2.908,2.19-5.889,3.225-8.772.464-1.292.943-2.628,1.421-3.939a1.255,1.255,0,0,1,.479-.608,1.21,1.21,0,0,1,1.568.221,1.157,1.157,0,0,1,.217,1c-.1,4.845-.178,9.589-.255,14.427l-.058,3.607c0,.1-.01.232-.021.383v0c-.04.592-.1,1.4.2,1.713a.391.391,0,0,0,.3.126.877.877,0,0,0,.361-.1,20.754,20.754,0,0,0,3.827-5.935,36.513,36.513,0,0,0,2.3-7.365,51.5,51.5,0,0,0,.987-7.784,50.945,50.945,0,0,0-.121-7.193c-.921.022-1.835.033-2.718.033-2.959,0-5.814-.126-8.485-.374a70.135,70.135,0,0,1-8.358-1.269,55.8,55.8,0,0,1-8.076-2.385,47.567,47.567,0,0,1-7.637-3.722,60.33,60.33,0,0,1-4.045,11.357c-1.008,2.325-2.05,4.729-2.866,7.143,3.845-.846,6.833-4.352,9.249-7.669l.069-.1c.112-.172.223-.35.341-.538a11.7,11.7,0,0,1,1.38-1.909,2.608,2.608,0,0,1,1.889-.932,2.754,2.754,0,0,1,1.181.294c1.224.71,1.866,2.072,1.964,4.165a29.952,29.952,0,0,1-.55,5.787,28.24,28.24,0,0,0-.427,3.51,61.949,61.949,0,0,1-2.059,9.964c-.39,1.474-.794,3-1.141,4.514,2.143-1.463,3.131-3.99,4.086-6.434.316-.809.615-1.574.955-2.305l5.328-12.765C190.051,180.121,190.5,179.754,190.866,179.753Zm91.948,11.3c-.052.165-.115.338-.165.477l.016,0c.029.006.061.012.092.021C282.782,191.364,282.8,191.205,282.813,191.055ZM151.458,137.4c.041,1.093.084,2.207.127,3.284v.035c.217,5.5.441,11.2.328,16.778a79.494,79.494,0,0,1,8.464,1.123,58.25,58.25,0,0,1,6.645,1.664,76.256,76.256,0,0,1,10.129,4.167h0c1.75.827,3.4,1.609,5.207,2.353a48.259,48.259,0,0,0,5.893,2.021,51.786,51.786,0,0,0,7.383,1.414,79.97,79.97,0,0,0,9.679.533h0c1.414,0,2.906-.029,4.434-.086.983-.658,1.894-2.145,2.707-4.42a45.127,45.127,0,0,0,1.811-7.362,69.207,69.207,0,0,0,1.083-13.584,8.07,8.07,0,0,0-3.086-6.93,13.3,13.3,0,0,0-3.375-1.951A21.813,21.813,0,0,0,205,135.284a1.667,1.667,0,0,1-.874.233,2.859,2.859,0,0,1-1.706-.656,2.613,2.613,0,0,1-.984-1.439,1.258,1.258,0,0,1,.134-.91,1.861,1.861,0,0,1,.92-.733,33.472,33.472,0,0,0,10.379-5.223,32.193,32.193,0,0,0-3.778-.65,33.881,33.881,0,0,0-3.73-.2,39.534,39.534,0,0,0-6.23.512,56.413,56.413,0,0,0-6.144,1.35c-4.074,1.118-8.184,2.635-12.158,4.1l-.082.03c-3.982,1.47-8.1,2.99-12.241,4.122a57.053,57.053,0,0,1-6.217,1.358,40.4,40.4,0,0,1-6.324.515,34.625,34.625,0,0,1-4.509-.292ZM55.824,17.027a68.339,68.339,0,0,0-11.247,2.082A70.7,70.7,0,0,0,33.789,23.02a36.5,36.5,0,0,0-4.57,1.649,33.467,33.467,0,0,0-4.076,2.137,32.523,32.523,0,0,0-6.76,5.56,36.624,36.624,0,0,0-5.052,6.982A46.285,46.285,0,0,0,9.806,47.4a67.986,67.986,0,0,0-3.171,17.92c-.152,2.966-.154,6.049,0,9.164.14,2.923.413,5.894.812,8.831A114.662,114.662,0,0,0,9.119,96.208a98.861,98.861,0,0,0,3.22,12.516,86.343,86.343,0,0,0,4.931,11.909,78.223,78.223,0,0,0,6.81,11.07,83.056,83.056,0,0,0,7.023,9.255,71.9,71.9,0,0,0,7.664,7.516,67.385,67.385,0,0,0,8.241,5.932,68.663,68.663,0,0,0,8.753,4.5,75.659,75.659,0,0,0,9.2,3.232,88.916,88.916,0,0,0,9.585,2.116c3.141.518,6.473.907,9.9,1.155,3.213.233,6.631.351,10.16.351,3.48,0,7.064-.109,10.957-.332,3.465-.2,7.094-.485,11.094-.874,7.427-.723,14.987-1.7,22.3-2.637l.133-.017,2.048-.263a5.649,5.649,0,0,1,2.629-.716,5.126,5.126,0,0,0,3.1-1.038,1.488,1.488,0,0,1-.422-.222,4.246,4.246,0,0,0,1.454-2.612l.313.031c.189-4.032.168-8.081.148-12v0c-.013-2.44-.025-4.963.013-7.455-7.232-1.981-14.866-3.5-22.249-4.966h0c-7.216-1.435-14.678-2.918-21.824-4.841a2.46,2.46,0,0,1-1.452.452,6.964,6.964,0,0,1-2.736-.831c-.335-.152-.651-.3-.962-.417-4.072-1.73-8.312-3.43-12.6-5.052l-1.059-.4c-3.091-1.157-5.791-2.2-8.253-3.2l-1.024-.416c-.276-.113-.623-.277-1.024-.468a12.707,12.707,0,0,0-4.722-1.539,2.2,2.2,0,0,0-1.485.478l.138.3c.737,1.6,3.061,6.964,2.05,8.537a.964.964,0,0,1-.87.435,2.827,2.827,0,0,1-.967-.21,4.364,4.364,0,0,1-1.175-1.434,16.556,16.556,0,0,1-1.067-2.352c-.682-1.8-1.322-4.035-1.941-6.192v0a69.28,69.28,0,0,0-2.12-6.611,9.851,9.851,0,0,0-1.157-2.182,1.8,1.8,0,0,0-1.282-.862,33.489,33.489,0,0,0-2.231,9.857,1.132,1.132,0,0,1-.355.7,1.037,1.037,0,0,1-.7.3.809.809,0,0,1-.627-.309,6.639,6.639,0,0,1-1.232-2.573,7.255,7.255,0,0,1-.087-2.629A22.425,22.425,0,0,1,57.1,105.84a18.8,18.8,0,0,0,1.836-6.366,21.935,21.935,0,0,0-.072-3.409,30.236,30.236,0,0,0-.522-3.35c-.465-2.217-1.139-4.44-1.792-6.591v0c-.572-1.885-1.164-3.834-1.608-5.763l-.09-.436c-.145-.694-.3-1.4-.463-2.139-.4-1.815-.812-3.691-1.092-5.514a21.069,21.069,0,0,1-.277-5.105l.849,3.194c.774,2.9,1.687,6.274,2.726,9.545.528,1.674,1.159,3.39,1.769,5.05h0A64.217,64.217,0,0,1,61.323,94.5a23.661,23.661,0,0,1,.482,4.869,17.86,17.86,0,0,1-.729,4.939,4.26,4.26,0,0,1,2.359.793,6.539,6.539,0,0,1,1.716,1.9,25.563,25.563,0,0,1,2.262,5.367A26.768,26.768,0,0,0,68.8,115.96a2.24,2.24,0,0,1,1.154-.728,6.321,6.321,0,0,1,1.822-.225,22.306,22.306,0,0,1,4.652.632c1.62.362,3.528.891,5.672,1.573,3.944,1.254,7.978,2.787,11.22,4.019,2.117.8,3.789,1.44,4.791,1.751l.941-1.067c2.6-2.95,5.15-5.812,7.661-8.4a68.517,68.517,0,0,1,7.423-6.771,32.052,32.052,0,0,1,7.715-4.518,23.58,23.58,0,0,1,4.133-1.22,22.939,22.939,0,0,1,4.4-.424c5.581,0,11.69,1.963,18.676,6a85.281,85.281,0,0,1-2.289-9.231c-.564-2.93-1.024-6.008-1.4-9.409-.707-6.314-1.025-12.773-1.332-19.02l-.005-.1c-.05-1.026-.1-2.087-.156-3.127a23.628,23.628,0,0,0-.117-3.319,35,35,0,0,1-.15-4.541c.1-1.606.469-2.6,1.125-3.04a4.166,4.166,0,0,1,1.066.313v1.35a42.061,42.061,0,0,0,.207,4.579c.2,1.8.542,2.925,1.023,3.357l.5,5.177c.63,6.426,1.334,13.273,2.406,20.128.557,3.566,1.164,6.82,1.854,9.948.766,3.473,1.61,6.683,2.581,9.813,2.347,1.31,4.733,2.753,7.093,4.289,2.24,1.457,4.53,3.046,6.806,4.721,4.163,3.064,8.373,6.475,12.873,10.43l.945-.344.955-.35.041-.015c6.96-2.552,14.849-5.444,22.4-5.444a26.026,26.026,0,0,1,4.911.45,21.758,21.758,0,0,1,4.745,1.485,13.894,13.894,0,0,0-.841-3.853,18.461,18.461,0,0,0-1.778-3.548c-1.756-.435-3.055-1.907-4.311-3.331-.449-.508-.872-.989-1.315-1.422-1.87-2.007-3.79-4.031-5.646-5.989l-.015-.015,0,0c-3.483-3.673-7.084-7.472-10.513-11.313-1.813-1.948-3.582-4.035-5.408-6.381-1.627-2.09-3.262-4.339-5-6.874C177.1,77.241,174,72.227,171,67.378l0,0c-2.962-4.795-6.024-9.753-9.217-14.426-1.718-2.515-3.336-4.749-4.944-6.828-1.805-2.334-3.553-4.415-5.344-6.362a73.8,73.8,0,0,0-5.877-5.739,60.268,60.268,0,0,0-6.542-4.959,53.311,53.311,0,0,0-15.609-6.952,20,20,0,0,1-3.068,8.672,20.106,20.106,0,0,1-6.116,5.941,27.747,27.747,0,0,1-8.155,3.415,37.77,37.77,0,0,1-9.187,1.093,41.9,41.9,0,0,1-8.26-.821,36.442,36.442,0,0,1-7.56-2.367l-.571-.219c-2.683-1.034-5.009-2.045-7.11-3.09a47.74,47.74,0,0,1-6.77-4.026,33.356,33.356,0,0,1-3.008-2.441A26.574,26.574,0,0,1,61.04,25.5a22.182,22.182,0,0,1-2.14-3.125,20.033,20.033,0,0,1-1.557-3.514l-.136-.287C56.879,17.9,56.476,17.163,55.824,17.027ZM213.891,129.206h0a38.673,38.673,0,0,1-7.734,4.274,1.821,1.821,0,0,1-.284.9,21.169,21.169,0,0,1,5.347,1.044,13.089,13.089,0,0,1,2.436,1.13,10.328,10.328,0,0,1,2.106,1.668c.118-.923.241-1.906.335-2.886a8.727,8.727,0,0,0-.26-3.456,5.053,5.053,0,0,0-1.945-2.672Zm-109.324-2.754a.887.887,0,0,1,.118.285c.628.067,1.263.139,1.888.216ZM10.281,109.675h0c.106.7.21,1.44.319,2.252l.1.752.015-.066a1.166,1.166,0,0,1,.276-.5l.043-.044C10.773,111.278,10.52,110.472,10.281,109.675ZM123.624,20.783c.025.216.042.458.05.739.279,0,.611,0,.953.013A5.147,5.147,0,0,1,123.624,20.783ZM11.713,208.583h0a.385.385,0,0,1-.422-.379,5.513,5.513,0,0,1,.823-2.463c.555-1.1,1.389-2.52,2.478-4.215,2.48-3.86,5.654-8.2,7.88-11.156,2.88-3.829,5.932-7.682,8.372-10.572,2.572-3.046,4.27-4.795,4.78-4.926a2.148,2.148,0,0,1,.554-.093c.209,0,.344.064.4.191.381.851-2.734,4.33-4.795,6.632h0l0,0a22.331,22.331,0,0,0-1.634,1.919c-5.69,6.71-10.949,13.843-16.282,21.171l-1.588,2.185c-.142.206-.843,1.249-.7,1.526a.14.14,0,0,0,.136.068.478.478,0,0,0,.117-.017l.018,0a.056.056,0,0,1,.054.041.063.063,0,0,1-.025.072A.974.974,0,0,1,11.713,208.583Zm.131-17.528h0c-.079-.059-.077-.217.007-.471.539-1.634,4.472-7.2,8.953-12.675,2.338-2.856,4.507-5.294,6.27-7.052a25.161,25.161,0,0,1,2.514-2.248,3.424,3.424,0,0,1,1.692-.842.488.488,0,0,1,.393.167,1.783,1.783,0,0,1,.106,1.359c-2.919,3.45-6.112,6.756-9.2,9.953h0c-3.635,3.764-7.394,7.656-10.733,11.808Zm44.7-41.316a1.431,1.431,0,0,1-.987-.406,9.739,9.739,0,0,1-1.7-2.674,9.021,9.021,0,0,1-.669-2.826,12.922,12.922,0,0,1,1.075-5.8,26.038,26.038,0,0,1,3.176-5.493,41.644,41.644,0,0,1,3.935-4.573.031.031,0,0,1,.023-.011.042.042,0,0,1,.036.022.03.03,0,0,1,0,.032,33.182,33.182,0,0,0-3.024,4.45,21.408,21.408,0,0,0-2.051,4.925,12.087,12.087,0,0,0,1.48,10.177,1.5,1.5,0,0,1,.194.762,1.387,1.387,0,0,1-.2.67A1.536,1.536,0,0,1,56.542,149.739ZM32.136,129.958a1.9,1.9,0,0,1-1.567-.813,6.3,6.3,0,0,1-.661-1.952,5.776,5.776,0,0,1,.022-1.9,8.857,8.857,0,0,1,1.656-3.615,23.115,23.115,0,0,1,3.073-3.368c1.163-1.079,2.408-2.109,3.613-3.1h0a38.858,38.858,0,0,0,4.379-3.969,21.633,21.633,0,0,1,1.9-1.723c1.536-1.285,3.124-2.614,3.572-4.6l.028-.132a.133.133,0,0,1,.133-.117.109.109,0,0,1,.08.031.113.113,0,0,1,.028.085c-.075,1.755-1.223,3.056-2.334,4.313l-.01.012c-.126.143-.257.29-.382.435l-5.4,6.224c-.51.613-1.049,1.213-1.619,1.848l0,.005a27.94,27.94,0,0,0-3.745,4.828,9.586,9.586,0,0,0-1.055,2.738,7.725,7.725,0,0,0-.02,3.067,1.654,1.654,0,0,1-.457,1.214A1.744,1.744,0,0,1,32.136,129.958ZM177.28,107.422a.511.511,0,0,1-.472-.365.49.49,0,0,1,.21-.564c2.108-1.486,4.218-3.033,6.258-4.53l.062-.045a.625.625,0,0,1,.066,0c.082,0,.131.022.146.064.124.352-2.041,2.086-3.781,3.479a20.376,20.376,0,0,0-2.143,1.823A.531.531,0,0,1,177.28,107.422ZM159.9,94.651a.178.178,0,0,1-.156-.122.127.127,0,0,1,.041-.149l.4-.318c.361-.286.724-.577,1.076-.859a36.759,36.759,0,0,1,8.762-5.747.861.861,0,0,1,.327-.067.811.811,0,0,1,.574.248,1.189,1.189,0,0,1,.315.574.889.889,0,0,1-.447,1.05c-1.165.569-2.367,1.092-3.53,1.6a41.26,41.26,0,0,0-7.286,3.766A.131.131,0,0,1,159.9,94.651ZM33.6,80.629c-1.021,0-3.405-1.556-5.146-2.693a14.1,14.1,0,0,0-2.019-1.212,31.12,31.12,0,0,0-5.2-2.34,27,27,0,0,1-6.479-3.142,8.216,8.216,0,0,1-2.241-2.436,7.042,7.042,0,0,1-.677-1.578,8.189,8.189,0,0,1-.307-1.873,7.65,7.65,0,0,0,4.074,5.067,30.906,30.906,0,0,0,6.5,2.487l.2.058,1.331.507a47.443,47.443,0,0,1,5.58,2.448A17.27,17.27,0,0,1,34,79.57c.131.424.135.724.011.892A.482.482,0,0,1,33.6,80.629Z" transform="translate(68.959 0)"/>
    </g>
    <g id="Head" transform="translate(86.512 45.072)">
      <g id="HEAD-2" data-name="HEAD">
        <path id="_Skin-2" data-name="âœ‹ Skin" d="M104.058,32.745C95.255,9.569,79.386-7.4,52.634,3.258a2.39,2.39,0,0,0-2.729-.051A69.452,69.452,0,0,0,20.29,43.6,22.666,22.666,0,0,0,12.43,46.55C7.209,49.824,3.7,55.032.4,60.105a3.012,3.012,0,0,0,1.787,4.4,15.622,15.622,0,0,0,2.406.264,10.251,10.251,0,0,1-.774,2.009,2.819,2.819,0,0,0,3.13,4.041,4.037,4.037,0,0,0,.724.3c.029,1.28.686,2.994,1.987,3.252,2.1.452,4.9-1.16,4.4-3.514a6.313,6.313,0,0,0,1.886.048c.069,1.226.048,2.506.217,3.637a8.511,8.511,0,0,0,10.951,7.29c.311,1.661.677,3.995,2.312,4.9,1.911,5.365,5.212,11.488,10.617,13.933a2.778,2.778,0,0,0,1.229,3.56,48.854,48.854,0,0,0,32.957,5.456,32.12,32.12,0,0,0,13.007-3.431,60.907,60.907,0,0,0,8.588-5.621c2.738-2.057,5.664-4.059,7.849-6.73a21.789,21.789,0,0,0,4.195-9.945,86.28,86.28,0,0,0-3.817-48.378C96.671,16.127,111.443,52.186,104.058,32.745Z" transform="translate(-4.254 15.353)" fill="#d08b5b"/>
        <path id="_Hair" data-name="ðŸ’ˆ Hair" d="M12,2.88C20.222-1.97,30.7-.715,35.638,6.8a14.028,14.028,0,0,1,1.856,4.376l.067.275.067.289a33.429,33.429,0,0,1,.548,3.382l.212,1.734.061.472a24.607,24.607,0,0,0,.667,3.571l.056.2.325,1.119-1.226.453c-2.349.849-2.84.925-4.2.216a5.288,5.288,0,0,1-2.346-2.809l-.106-.221-.235-.493-.127-.26a6.981,6.981,0,0,0-1.4-2.348c-.736-.5-3.056-.7-4.669-.505l-.084.011-.07.015-.119.027c-2.713.642-5.186,2.834-6.817,5.15A12.435,12.435,0,0,0,15.936,28.1l-.005.163L15.9,29.51l-2.63-.056.026-.485-.039.086c-.829,1.748-2.91,2.912-4.652,1.755l-.062-.042-.063-.045a3.159,3.159,0,0,1-.441-4.607l.056-.06L8.147,26,8.136,26l-.013,0H8.116a2.517,2.517,0,0,0-1.261.736l-.126.118-.252.273-.261.279-.112.115c-.072.072-.138.136-.2.192a2.326,2.326,0,0,1-.245.2,1.453,1.453,0,0,1-.255.143,1.282,1.282,0,0,1-1.68-.63,1.472,1.472,0,0,1-.118-.36,2.613,2.613,0,0,1-.044-.4c0-.1-.006-.2,0-.319l0-.182.006-.2.007-.157.03-.584a14.619,14.619,0,0,1,1.472-5.578l.087-.177.033-.064-.09.121a5.354,5.354,0,0,1-1.864,1.668l-.1.047-.1.043a2.028,2.028,0,0,1-2.572-.537,2.857,2.857,0,0,1-.451-2.052,12.233,12.233,0,0,1,1.906-4.842l.161-.277.633-1.073A26.892,26.892,0,0,1,12,2.88Z" transform="translate(-3.854 58.075)" fill="#e8e1e1"/>
        <path id="_Ink-2" data-name="ðŸ– Ink" d="M71.979,112.444h0a30.152,30.152,0,0,1-7.765-.985,26.529,26.529,0,0,1-7.294-3.169,1.821,1.821,0,0,1-.795-.98,1.936,1.936,0,0,1-.007-1.145,2.224,2.224,0,0,1,.65-1.04,1.644,1.644,0,0,1,1.095-.438,1.739,1.739,0,0,1,.975.32,20.722,20.722,0,0,0,4.559,2.377,25.971,25.971,0,0,0,8.767,1.453A38.227,38.227,0,0,0,84.3,106.69a47.276,47.276,0,0,0,9.544-4.443,42.039,42.039,0,0,0,8.247-6.532,27.314,27.314,0,0,0,5.838-8.77,23.913,23.913,0,0,0,1.7-10.369,76.75,76.75,0,0,0-1.061-8.241c-.262-1.581-.534-3.217-.739-4.831-.4-3.143-.675-6.352-.94-9.456v-.014c-.06-.706-.123-1.435-.186-2.153l-.125-1.395a109.021,109.021,0,0,0-1.6-11.868A45.147,45.147,0,0,0,101.22,27.3,45.9,45.9,0,0,0,88.455,11.752,43.891,43.891,0,0,0,79.382,6.3a40.973,40.973,0,0,0-10.13-3.051,28.292,28.292,0,0,0-4.516-.364,30.138,30.138,0,0,0-9.568,1.6A38.169,38.169,0,0,0,46.34,8.841a52.458,52.458,0,0,0-8.424,6.925,55.8,55.8,0,0,0-6.872,8.472c-.938,1.42-1.848,2.948-2.7,4.542-.8,1.5-1.584,3.095-2.319,4.752-.983,2.215-1.756,4.546-2.5,6.8-.276.832-.561,1.692-.852,2.534.2-.006.391-.009.579-.009a19.519,19.519,0,0,1,2.136.118,17.4,17.4,0,0,1,6.672,2.162,16.9,16.9,0,0,1,2.856,2.043A16.316,16.316,0,0,1,37.285,49.8a12.436,12.436,0,0,1,1.366,2.41,15.693,15.693,0,0,1,.835,2.544,40.244,40.244,0,0,1,.789,5.331,39.918,39.918,0,0,0,.839,5.569.966.966,0,0,1-.428,1.053,6.142,6.142,0,0,1-3.321.983,5.554,5.554,0,0,1-3.371-1.1,5.235,5.235,0,0,1-1.8-2.529,5.048,5.048,0,0,1-.256-1.535,4.666,4.666,0,0,1,.247-1.55.247.247,0,0,1,.238-.174.241.241,0,0,1,.246.24c.1,2.728,2.124,4.948,4.506,4.948a4.15,4.15,0,0,0,1.937-.5,33.352,33.352,0,0,1-.929-5.3,39.253,39.253,0,0,0-.714-4.478,13.039,13.039,0,0,0-1.734-4.177A13.512,13.512,0,0,0,33.3,48.741a13.366,13.366,0,0,0-2.947-1.934,14.7,14.7,0,0,0-3.306-1.125,16.78,16.78,0,0,0-3.511-.364,18.951,18.951,0,0,0-5.044.7,19.46,19.46,0,0,0-4.71,1.993A22.947,22.947,0,0,0,8.79,52.031a29.189,29.189,0,0,0-3.848,5.146l-.63,1.07a23.457,23.457,0,0,0-1.2,2.256,7.988,7.988,0,0,0-.7,2.365,1.6,1.6,0,0,0,.252,1.216.643.643,0,0,0,.5.216,1.327,1.327,0,0,0,.524-.128,5.27,5.27,0,0,0,2-1.976,1.194,1.194,0,0,1,1.006-.56,1.3,1.3,0,0,1,1.1.609,1.113,1.113,0,0,1,.006,1.127l-.024.044a14.271,14.271,0,0,0-1.228,2.855,13.011,13.011,0,0,0-.546,3.057l-.03.578c-.031.675-.012,1.026.056,1.042h.005A4.21,4.21,0,0,0,6.8,70.2c.09-.1.16-.175.192-.2a3.982,3.982,0,0,1,2.038-1.193,1.224,1.224,0,0,1,.22-.02,1.453,1.453,0,0,1,1.306.891,1.031,1.031,0,0,1,.057.589,1.087,1.087,0,0,1-.339.574l-.039.036a1.9,1.9,0,0,0,.126,2.886,1.457,1.457,0,0,0,.877.3,2.1,2.1,0,0,0,1.471-.724,2.872,2.872,0,0,0,.78-1.491l.006-.048a1.22,1.22,0,0,1,.41-.8,1.144,1.144,0,0,1,.742-.271A1.07,1.07,0,0,1,15.723,71.8a3.906,3.906,0,0,1-.263,1.71,4.549,4.549,0,0,1-.918,1.45,4.98,4.98,0,0,1-1.537,1.118,4.389,4.389,0,0,1-1.83.418,3.749,3.749,0,0,1-1.847-.478A3.987,3.987,0,0,1,7.95,74.732a4.644,4.644,0,0,1-.7-1.739,3.074,3.074,0,0,1-1.163.36c-.076.007-.152.01-.226.01a2.163,2.163,0,0,1-1.525-.6,2.669,2.669,0,0,1-.762-1.5,11.118,11.118,0,0,1,.286-4.59,3.143,3.143,0,0,1-.735.09,3.033,3.033,0,0,1-1.53-.426A3.184,3.184,0,0,1,0,63.408a8.829,8.829,0,0,1,.813-3.434,33.687,33.687,0,0,1,3.539-6.22A30.53,30.53,0,0,1,9.2,48.434a24.418,24.418,0,0,1,5.95-3.819A19.941,19.941,0,0,1,22,42.9a24.215,24.215,0,0,1,.6-4.486,49.968,49.968,0,0,1,3.794-10.877,53.6,53.6,0,0,1,6.174-9.877A49.755,49.755,0,0,1,50.491,3.246a37.269,37.269,0,0,1,5.736-2.125A30.885,30.885,0,0,1,62.249.072C62.927.024,63.623,0,64.319,0A37.613,37.613,0,0,1,75.633,1.873,45.789,45.789,0,0,1,85.408,6.3a47.818,47.818,0,0,1,8.515,6.541,45.545,45.545,0,0,1,6.923,8.528,47.621,47.621,0,0,1,4.727,9.92,53.281,53.281,0,0,1,1.553,5.526c.4,1.755.738,3.6,1.039,5.639.559,3.787.894,7.673,1.218,11.431v0c.1,1.19.209,2.421.32,3.627.408,4.418,1.079,8.777,1.789,13.224l.111.7a50.025,50.025,0,0,1,.675,6.457,25.98,25.98,0,0,1-.551,6.452,27.354,27.354,0,0,1-4.445,9.806,35.516,35.516,0,0,1-3.463,4.18,41.092,41.092,0,0,1-4.007,3.636,51.13,51.13,0,0,1-13,7.49,45.184,45.184,0,0,1-7.33,2.194A37.258,37.258,0,0,1,71.979,112.444Zm-27.854-6.37a6.631,6.631,0,0,1-3.387-1.106,24.643,24.643,0,0,1-2.933-2.18l-.04-.033a24.876,24.876,0,0,1-4.85-5.5,32.613,32.613,0,0,1-3.228-6.3,33.027,33.027,0,0,1-1.822-6.866,8.549,8.549,0,0,1-2.435.341h-.018a7.86,7.86,0,0,1-2.669-.472,8.681,8.681,0,0,1-2.373-1.312,11.153,11.153,0,0,1-3.1-3.778,12.833,12.833,0,0,1-.9-2.28,14.223,14.223,0,0,1,1.85-11.815,12.987,12.987,0,0,1,1.51-1.778,13.219,13.219,0,0,1,1.8-1.481,12.655,12.655,0,0,1,4.241-1.887l.132-.03a11.065,11.065,0,0,1,2.185-.234,5.741,5.741,0,0,1,1.465.164,2.034,2.034,0,0,1,1.071.61,1.5,1.5,0,0,1,.261,1.286.1.1,0,0,1-.105.084.125.125,0,0,1-.121-.084c-.152-.518-.607-.78-1.353-.78a9.8,9.8,0,0,0-3.212.845A13.435,13.435,0,0,0,22.511,63.7a12.355,12.355,0,0,0-1.562,1.63,11.987,11.987,0,0,0-1.229,1.881,11.007,11.007,0,0,0-1.254,4.3,12.131,12.131,0,0,0,.506,4.531,10.33,10.33,0,0,0,.919,2.093,8.944,8.944,0,0,0,1.387,1.813,6.637,6.637,0,0,0,1.8,1.3,5.327,5.327,0,0,0,2.146.542l.09,0a6.129,6.129,0,0,0,1.586-.3l.006,0a6.1,6.1,0,0,1,1.568-.295,1.979,1.979,0,0,1,.9.2.831.831,0,0,1,.424.74,1.853,1.853,0,0,1-.629,1.256c.6,1.095,1.179,2.226,1.739,3.32a51.917,51.917,0,0,0,4.809,8.134,27.736,27.736,0,0,0,4.628,4.779,18.659,18.659,0,0,0,2.651,1.748c.182.1.36.194.533.285h0a6.128,6.128,0,0,1,2.265,1.7,1.655,1.655,0,0,1,.105,1.623,1.621,1.621,0,0,1-1.194,1.057A4.313,4.313,0,0,1,44.125,106.073ZM31.573,74.432a1.657,1.657,0,0,1-.445-.063,10,10,0,0,1-2.6-1.331A11.63,11.63,0,0,0,26.2,71.784a5.9,5.9,0,0,0-1.971-.345,4.842,4.842,0,0,0-2.757.823.187.187,0,0,1-.108.034.241.241,0,0,1-.2-.13.2.2,0,0,1,0-.21,5.315,5.315,0,0,1,2.005-1.816,6.959,6.959,0,0,1,2.628-.726c.222-.02.45-.029.676-.029a8.623,8.623,0,0,1,2.944.536l.477.173a7.3,7.3,0,0,1,2.809,1.559,1.587,1.587,0,0,1,.433.871,1.683,1.683,0,0,1-.121.9,1.706,1.706,0,0,1-.563.715A1.5,1.5,0,0,1,31.573,74.432Z" transform="translate(-5.005 14.022)"/>
      </g>
      <g id="FACE" transform="translate(39.871 46.574)">
        <path id="_Ink-3" data-name="ðŸ– Ink" d="M27.09,48.029a9.564,9.564,0,0,1-3.623-.722A10.237,10.237,0,0,1,21.1,45.951a10.064,10.064,0,0,1-1.925-1.939,1.983,1.983,0,0,1-.4-1.537,2.216,2.216,0,0,1,.864-1.389,2.13,2.13,0,0,1,1.267-.44,1.841,1.841,0,0,1,.283.022,1.956,1.956,0,0,1,1.309.864l.077.107a6.757,6.757,0,0,0,2.476,2.075,5.629,5.629,0,0,0,2.456.572,5.45,5.45,0,0,0,.609-.034,6.4,6.4,0,0,0,2.7-.95,12.657,12.657,0,0,0,2.29-1.909c.164-.167.338-.348.563-.588a.891.891,0,0,1,.467-.359.959.959,0,0,1,.3-.048,1.035,1.035,0,0,1,.847.442.942.942,0,0,1,.16.621,5.694,5.694,0,0,1-.677,2.208,7.372,7.372,0,0,1-1.448,1.856,9.307,9.307,0,0,1-2.193,1.526,9.139,9.139,0,0,1-2.433.833A8.975,8.975,0,0,1,27.09,48.029Zm2.55-14.419h0a8.765,8.765,0,0,1-3.121-.628,15.772,15.772,0,0,1-3.671-2.08,1.408,1.408,0,0,1-.512-.814,1.683,1.683,0,0,1,.073-.914,2.078,2.078,0,0,1,.618-.892,1.506,1.506,0,0,1,.963-.375,1.368,1.368,0,0,1,.745.228l.248.191,0,0a19.875,19.875,0,0,0,2.3,1.6,5.667,5.667,0,0,0,2.754.877,2.978,2.978,0,0,0,1.164-.228,3.252,3.252,0,0,0,1.084-.767,3.315,3.315,0,0,0,.631-2.672,5.045,5.045,0,0,0-1.341-2.37,9.778,9.778,0,0,0-2.031-1.637.628.628,0,0,1-.17-.723.943.943,0,0,1,.313-.45.961.961,0,0,1,.6-.2,1.279,1.279,0,0,1,.215.019,6.816,6.816,0,0,1,2.395.864,5.429,5.429,0,0,1,1.611,1.483,5.885,5.885,0,0,1,1.028,3.936,6.477,6.477,0,0,1-.527,2.066A6.026,6.026,0,0,1,33.821,31.9,5.678,5.678,0,0,1,29.64,33.611ZM9.329,19.531A2.09,2.09,0,0,1,7.3,17.675a15.027,15.027,0,0,1,.08-3.919c.047-.381.1-.774.13-1.2A2.345,2.345,0,0,1,8.4,10.88a2.745,2.745,0,0,1,1.687-.592,2.081,2.081,0,0,1,1.276.4,1.888,1.888,0,0,1,.7,1.252,10.5,10.5,0,0,1-1.1,6.48,2.08,2.08,0,0,1-.734.848A1.7,1.7,0,0,1,9.329,19.531Zm29.815-.889a1.792,1.792,0,0,1-1.4-.6,5.476,5.476,0,0,1-.857-1.452,6.319,6.319,0,0,1-.437-1.75,3.706,3.706,0,0,1,1.013-3.184,2.1,2.1,0,0,1,.162-.247,2.3,2.3,0,0,1,1.765-1.014,1.915,1.915,0,0,1,.536.079,2.58,2.58,0,0,1,1.725,1.5,5.306,5.306,0,0,1,.213,2.907,9.719,9.719,0,0,1-.883,2.742,1.781,1.781,0,0,1-.763.752A2.314,2.314,0,0,1,39.143,18.642ZM.33,9.3a.325.325,0,0,1-.271-.166.362.362,0,0,1-.022-.356A12.354,12.354,0,0,1,2.81,5.277,17.148,17.148,0,0,1,6.523,2.745,15.978,15.978,0,0,1,10.93,1.21l.471-.082A11.486,11.486,0,0,1,13.325.919,2.975,2.975,0,0,1,15.7,1.8a2.012,2.012,0,0,1,.477,1.431,1.31,1.31,0,0,1-.477.935,3.661,3.661,0,0,1-2.507.734c-.2,0-.4-.005-.6-.01h-.007c-.19,0-.405-.01-.619-.01-.2,0-.372,0-.537.014A16.971,16.971,0,0,0,7.7,5.532,25.365,25.365,0,0,0,.5,9.248.309.309,0,0,1,.33,9.3Zm45.4-1.9h0l-.2-.05a11.239,11.239,0,0,1-2.176-.848l-.707-.348A19.648,19.648,0,0,0,40.12,5.089a29.826,29.826,0,0,0-5.75-1.268,2.351,2.351,0,0,1-1.153-.437,1.726,1.726,0,0,1-.645-.981,1.754,1.754,0,0,1,.2-1.471A1.876,1.876,0,0,1,33.68.148,2.05,2.05,0,0,1,34.456,0,2.289,2.289,0,0,1,34.9.045l.36.074a25.76,25.76,0,0,1,6.21,2.014,12.559,12.559,0,0,1,2.731,1.793,7.963,7.963,0,0,1,1.931,2.492c.068.52,0,.649-.065.737l-.02.025-.018.024a.5.5,0,0,1-.308.2Z" transform="translate(13.29 13.021)"/>
      </g>
    </g>
  </g>
</svg>
