<svg xmlns="http://www.w3.org/2000/svg" width="433.312" height="626" viewBox="0 0 433.312 626">
  <g id="peep-sitting-6" transform="translate(20.312)">
    <g id="BODY" transform="translate(-20.311 159.505)">
      <path id="_Skin" data-name="âœ‹ Skin" d="M350.3,189.877a29.727,29.727,0,0,0-6.4-.791c-7.4-.435-14.949,3.089-22.207,4.678-3.177.784-6.541,1.708-9.941,2.4-3.018.409-6.139.716-9.276.911-2.536.076-5.486-.118-6.352,2.544a38.825,38.825,0,0,1-14.467.559,8.542,8.542,0,0,0,.244-4.827c.237-.395.561-.928.733-1.288h-.584c-8.528-3.409-17.75-5.737-26.322-9.269-11.189-4.027-27.669-11.808-40.6-17.121a56.022,56.022,0,0,0,.83-14.4l.52-.419a9.562,9.562,0,0,1,.917-2.887c.61-1.616.624-3.822.866-5.648a41.061,41.061,0,0,0-.077-13.193c-.4-5.752-4.284-10.187-8.471-13.744-5.141-5.077-10.288-10.03-15.306-15.3C166.63,73.8,164.433,38.188,120.954,27.365l-.021-.168c-.343-.382-.483-.684-.873-.081-1.436-.549-3.226-.5-4.428-1.432a17.149,17.149,0,0,1-4.639-6.852c-.763-5.035-.223-12.794-4.64-16.016C101.447-.119,75.38-2.209,73.132,4.207a9,9,0,0,0-2.465,5C69.215,11.955,68.3,15,66.835,17.783c-3.11,6.248-5.127,4.863-10.618,6.291-.6-1.327-2.406-1.059-3.724-.867-15.97,2.241-35.441,8.358-42.279,23.347l.582-.074c-11.8,22.144-4.148,50.306-2.037,73.773a196.779,196.779,0,0,1-4.886,61.275c-5.7,20.641-6.023,43.73,5.278,62.414,1.149,2.139,2.547,5.161,5.022,3.819a14.767,14.767,0,0,0,4.983,2.347,15.921,15.921,0,0,0,1.788,1.428c.028.041,1.006-.522,1.057-.537,1.848,2.633,103.295,11.433,113.822,12.8,9.275,1.117,21.531,3.968,29.089-2.713,6.246-1.782,12.782-6.422,17.774-11.029,3.029,43.869,4.7,133.711,7.407,134.337,1.183.4,2.779.88,4.118,1.263.008,3.152.243,6.733-.005,9.831-.415,3.5-1.466,7.632-1.942,11.31-2.045-.137-2.646,1.912-2.884,3.3-1.765,11.493-1.713,20.759-1.586,33.391,20.755,12.208,45.08,18.922,68.435,26.812,2.237,1.679,7.084-.137,9.667-.591,8.967-1.763,19.157-6.978,16.893-16.541-1.657-7.2-8.616-11.342-14.473-15.578-6.408-4.636-13.164-9.269-19.058-14.789a109.472,109.472,0,0,1-12.2-12.918c-1.749-2.334-3.614-6.17-5.967-7.89,2.486-2.944-2.537-.185-4.438-.014a145.664,145.664,0,0,0-4.164-15.348l1.614.073c5.3-4.943,8.271-28.671,8.64-35.711,2.657-45.89,2.594-98.782-8.064-137.43,8.1,4.978,16.972,9.136,25.023,14.059,5.076,2.97,10.227,7.093,15.918,8.533a1.38,1.38,0,0,0,2.468.435c1.019.125,2.331-.3,2.443-.76,1.042-2.127,2.551-4.42,2.369-6.731l-1.4-3.238c3.131,1.271,6.536,3.946,9.878,4.191,6.751,22.513,20.053,9.9,32.853,1.14,7.725-5.39,16.175-11.343,24.3-17.09,6.9-5.479,20.363-10.678,13.762-21.531" transform="translate(70.463 -7.512)" fill="#d08b5b"/>
      <path id="_Top" data-name="ðŸ‘• Top" d="M12.649,221.231C9.07,217-.132,200.082,0,181.568c.145-20.17,9.808-42.645,10.03-63.261A274,274,0,0,0,5.939,66.289c-3.094-22.8.616-52.878,26.346-60.3A69.571,69.571,0,0,1,54.321,0c.6.125.992.757,1.316,1.41l.066.135.137.287c3.219,9.717,13.435,15.138,22.646,18.745l.563.219.571.218c15.047,6.672,40.016,3.561,42.346-15.934,35.258,9.358,44.809,48.973,67.261,73.1,5.262,5.9,10.79,11.542,16.176,17.32,1.7,1.665,3.252,4.165,5.626,4.753a15.9,15.9,0,0,1,2.619,7.4c-7.624-3.4-16.23-1.787-24.3.79-2.355.752-26.573,12.707-40.676,9.865-.721-.145.64,28.337-.767,28.72-12.2,3.321-49.447,6.627-56.913,4.655-12.123-3.2-27.237,16.207-41.279,35.615-13.01,17.981-25.1,35.962-33.044,35.963A5.124,5.124,0,0,1,12.649,221.231ZM204.37,117.352a1.869,1.869,0,0,0,.284-.9,38.57,38.57,0,0,0,7.733-4.273c2.014,1.433,2.439,3.65,2.206,6.128-.092.963-.212,1.926-.335,2.886C211.728,118.568,207.974,117.638,204.37,117.352Z" transform="translate(70.462 17.027)" fill="#e86bbb"/>
      <path id="_Shoes" data-name="ðŸ‘Ÿ Shoes" d="M69.01,280.379h0l-.271-.167a16.285,16.285,0,0,0-2.809-1.376c-1.005-.386-2.257-.787-4.187-1.34l-1.508-.431-.622-.182-.309-.092c-1.323-.4-2.191-.693-3.1-1.06l-.291-.12-.974-.329c-8.708-2.945-17.489-6.151-26.1-9.528-8.6-3.371-17.254-7-25.734-10.8l-1-.449L.57,253.815l-.036-.6c-.4-6.834-.574-12.757-.527-18.108A152.471,152.471,0,0,1,.9,219.458l.037-.324,2,.188a5.51,5.51,0,0,0,.34,2.36,5.94,5.94,0,0,0,1.222,1.97,5.653,5.653,0,0,0,4.1,1.861,5.033,5.033,0,0,0,1.611-.265l.111-.039.052-.017.153-.048a12.766,12.766,0,0,0,3.425-1.855l1.133-.775.288-.194.209-.137c.105-.068.2-.131.3-.192l.14-.088A58.07,58.07,0,0,1,25.756,217a51.1,51.1,0,0,1,10.186-2.8c.555-.1,1.141-.191,1.793-.272l.708-.084.728-.077,2.259-.221.886-.094.341.477C45.78,218.3,49,222.41,52.213,226.138a128.359,128.359,0,0,0,10.006,10.4,95.785,95.785,0,0,0,10.412,8.4,71.869,71.869,0,0,0,10.772,6.2l.49.223.045.026a22.764,22.764,0,0,1,5.533,4.539,17.247,17.247,0,0,1,3.43,5.682,11.367,11.367,0,0,1,.636,3.4,9.3,9.3,0,0,1-.482,3.219,9.874,9.874,0,0,1-1.623,2.949,13.386,13.386,0,0,1-2.786,2.6l-.137.1-.023.016a40.9,40.9,0,0,1-9.119,4.442,38.652,38.652,0,0,1-9.8,2.013l-.243.016ZM102.981,52a8.683,8.683,0,0,1-2.533-.372,9.137,9.137,0,0,1-2.385-1.138l-.121-.082-.053-.036-.183-.164-.153-.14-.15-.14-.147-.141a30.64,30.64,0,0,1-2.607-2.949l-.939-1.168-.375-.462-.277-.336-.2-.237a22.268,22.268,0,0,0-1.6-1.743l-.174-.167L89.9,41.6l1.544-.542a18.457,18.457,0,0,0,8.258-6.386,28.381,28.381,0,0,0,3.053-4.993,31.961,31.961,0,0,0,2.1-5.723l.074-.286.016-.044a11.876,11.876,0,0,0,.552-3.929l.018-1.356.009-.446.008-.3.01-.3a10.253,10.253,0,0,1,.988-4.682l.086-.167.028-.054.035-.05c.042-.061.046-.071.029-.1l-.355-.6.421-.538c.182-.233.382-.463.63-.724l.1-.109.233-.241.331-.052c5.173-.817,10.426-1.826,16.059-3.086,5.431-1.215,11.254-2.672,17.8-4.454l1.283-.35.639-.172.431-.115.427-.112c2.14-.556,3.729-.906,5.155-1.134A26.008,26.008,0,0,1,154.1.2l.357,0,.25,0c.264,0,.491.019.9.056l.407.037.188.016.18.013c.209.014.383.021.533.021a2.48,2.48,0,0,0,.827-.117l.042-.014L158.4,0l.45.481a17.523,17.523,0,0,1,3.335,4.764,9.115,9.115,0,0,1,.792,2.993,7.229,7.229,0,0,1-.376,2.929l-.053.149-.012.028a11.357,11.357,0,0,1-2.917,3.789,47.106,47.106,0,0,1-5.842,4.347l-.763.5-.55.355-.085.055c-.984.636-2.472,1.6-3,1.943l-.289.192c-1.206.805-2.089,1.443-2.777,2.005l-.117.1-1.678,1.165-3.452,2.4-2.561,1.783L136.748,31.2c-6.833,4.764-13.24,9.257-19.588,13.735l-.323.218-.254.175-.364.254-.514.364L114,47.169l-.341.242-.337.236-.341.236-.345.236-.339.229a28.341,28.341,0,0,1-4.66,2.628,12.1,12.1,0,0,1-4.1,1C103.349,51.991,103.163,52,102.981,52Z" transform="translate(259.532 181.877)" fill="#fff"/>
      <path id="_Ink" data-name="ðŸ– Ink" d="M260.891,464.742a6.4,6.4,0,0,1-2.814-.589,80.054,80.054,0,0,1-9.832-2.795c-1.409-.466-2.867-.948-4.291-1.38-9.375-3.1-18.717-6.49-27.765-10.081-9.152-3.632-18.246-7.563-27.03-11.686a1.894,1.894,0,0,1-1.025-1.686c.034-.982.016-2.722-.006-4.926v-.009c-.054-5.327-.137-13.377.409-20.17a45.534,45.534,0,0,1,1.371-8.744,9.6,9.6,0,0,1,1.192-2.727,2.355,2.355,0,0,1,1.612-1.132,66.245,66.245,0,0,0,1.233-9.717c.172-3,.192-6.215.059-9.816a51.8,51.8,0,0,0-5.865-1.566c-.545-.171-1.169-.3-1.831-.444a19.207,19.207,0,0,1-2.492-.645,4.341,4.341,0,0,1-1.936-1.223,1.122,1.122,0,0,1-.57-.437,1.2,1.2,0,0,1-.168-.8c1.014-9.492,1.829-19.42,2.423-29.507.485-8.075.824-16.418,1.007-24.8.176-8.069.213-16.418.11-24.813-.1-8.049-.33-16.4-.686-24.807-.34-8.018-.8-16.355-1.382-24.777a57.1,57.1,0,0,1-7.472,5.518,42.352,42.352,0,0,1-4.09,2.208,35.58,35.58,0,0,1-4.32,1.7,13.3,13.3,0,0,1-6.028,3.257,38.711,38.711,0,0,1-6.922,1.1c-.713.044-1.458.066-2.212.066a78.257,78.257,0,0,1-11.006-1.046c-1.242-.178-2.526-.361-3.791-.52a71.113,71.113,0,0,0-8.944-.531c-2.99,0-6.218.158-9.868.482-3.39.3-6.862.723-9.85,1.094l-3.257.406c-4.6.5-8.767.874-12.749,1.133-4.585.3-8.813.444-12.928.444-3.978,0-7.845-.143-11.493-.424-3.927-.3-7.747-.778-11.354-1.411a97.2,97.2,0,0,1-11.084-2.607,83.162,83.162,0,0,1-10.683-4.01c-.157.014-.32.021-.483.021a8.162,8.162,0,0,1-3.1-.7,16.7,16.7,0,0,1-3.1-1.751,28.886,28.886,0,0,1-5.043-4.579,1.231,1.231,0,0,1-.653.192,3.478,3.478,0,0,1-1.974-1.135c-.177-.157-.344-.305-.508-.436a21.61,21.61,0,0,1-2.307-.835,12.565,12.565,0,0,1-2.2-1.2,3.417,3.417,0,0,1-1.059.177c-2.437,0-3.966-2.952-5.082-5.108-.137-.264-.278-.538-.413-.788a63.412,63.412,0,0,1-4.11-8.373,61.081,61.081,0,0,1-2.673-8.374A65.166,65.166,0,0,1,.41,211.054a76.712,76.712,0,0,1-.41-8.4c.012-2.694.148-5.449.416-8.422.239-2.649.579-5.414,1.038-8.452.854-5.646,2.01-11.43,3.127-17.024h0c1.3-6.493,2.638-13.208,3.555-19.9.494-3.6.826-6.9,1.017-10.082a95.325,95.325,0,0,0,.093-10.185c.089-2.492.078-5.045-.033-7.805-.1-2.459-.277-5.026-.542-7.847C8.179,107.7,7.447,102.35,6.74,97.18v0C6.1,92.468,5.43,87.6,4.946,82.825a132.98,132.98,0,0,1-.765-14.25,76.919,76.919,0,0,1,1.29-14.056,61.9,61.9,0,0,1,1.737-6.926A58.11,58.11,0,0,1,9.844,40.75a20.18,20.18,0,0,1,4.08-8.2,34.75,34.75,0,0,1,7.289-6.68,53.935,53.935,0,0,1,8.957-5.018,60.162,60.162,0,0,1,9.082-3.214c.82-.135,2.168-.495,3.729-.911,3.48-.928,8.245-2.2,11.6-2.2a7.191,7.191,0,0,1,2.562.38,2.252,2.252,0,0,1,1.4,1.31,2.439,2.439,0,0,1,1.4-.876,7.117,7.117,0,0,1,1.7-.16c1.521-.369,2.881-1.532,4.157-3.556a40.008,40.008,0,0,0,2.82-5.895C69.894,2.658,70.992,0,72.468,0a1.523,1.523,0,0,1,.748.216c1.582,1.374.26,3.6-.905,5.57a12,12,0,0,0-1.2,2.367l-.289.567a25.841,25.841,0,0,1-2.253,3.756,10.607,10.607,0,0,1-3.226,2.931,2.858,2.858,0,0,1-1.463.738,13.054,13.054,0,0,1-1.847.245h0c-1.124.1-2.186.186-2.591.759a1.3,1.3,0,0,0-.1,1.124A12.147,12.147,0,0,0,60.8,21.352a18,18,0,0,0,2.317,2.825,32.965,32.965,0,0,0,6.4,4.859,61.7,61.7,0,0,0,7.433,3.756c2.214.95,4.533,1.823,6.89,2.595a36.3,36.3,0,0,0,6.393,1.726,39.953,39.953,0,0,0,6.957.616,34.191,34.191,0,0,0,7.616-.822,24.254,24.254,0,0,0,6.829-2.627,17.264,17.264,0,0,0,5.274-4.674,16.891,16.891,0,0,0,2.949-6.962,9.2,9.2,0,0,1-4.959-3,15.656,15.656,0,0,1-1.938-2.616,18.1,18.1,0,0,1-1.438-3.022,15.194,15.194,0,0,1-1-5.642,9.284,9.284,0,0,1,.42-2.546A6.431,6.431,0,0,1,112.078,3.7a23.814,23.814,0,0,0,1.313,7.448,14.717,14.717,0,0,0,4.18,6.228l.219.2a7.979,7.979,0,0,0,1.071.855,2.284,2.284,0,0,0,1.21.417,1.443,1.443,0,0,0,.222-.017,1.429,1.429,0,0,1,1.192-.636,2.162,2.162,0,0,1,1.894,1.4,55.719,55.719,0,0,1,9.192,2.4,52.618,52.618,0,0,1,8.09,3.682,56.3,56.3,0,0,1,7.147,4.787,67.486,67.486,0,0,1,6.364,5.712c1.931,1.959,3.808,4.071,5.739,6.455,1.721,2.125,3.446,4.421,5.274,7.017,3.4,4.827,6.646,10,9.787,15h0C178.182,69.746,181.5,75.027,185,79.985c1.885,2.671,3.669,5.034,5.453,7.224,2,2.46,3.957,4.642,5.97,6.669,3.844,4.042,7.888,8.015,11.8,11.857,1.131,1.111,2.3,2.261,3.464,3.41a28.065,28.065,0,0,1,3.6,3.4,24.154,24.154,0,0,1,2.852,3.957,20.166,20.166,0,0,1,2.729,9.339,36.036,36.036,0,0,1,.231,5.66c-.056,1.723-.218,3.576-.495,5.664l-.035.341q-.033.337-.066.69a16.341,16.341,0,0,1-1.419,6.244,5.694,5.694,0,0,0-.121.635,2.158,2.158,0,0,1-.6,1.457,56.791,56.791,0,0,1-.717,12.994l1.9.848c12,5.338,22.052,9.6,31.634,13.409,11.49,4.569,22.057,8.384,32.3,11.661a2.08,2.08,0,0,1,.369-.036.98.98,0,0,1,.975.579,1.834,1.834,0,0,1,.044,1.153,2.612,2.612,0,0,1-.578,1.116,7.963,7.963,0,0,1-.016,3.508,26.332,26.332,0,0,0,3.724.255,36.285,36.285,0,0,0,4.159-.254c1.243-.143,2.591-.349,4.12-.631a4.073,4.073,0,0,1,2.777-2.261,15.2,15.2,0,0,1,3.757-.4h.009l.586-.015c3.263-.2,6.468-.524,9.528-.951,5.186-1.157,10.4-2.581,15.433-3.958,2.531-.692,5.147-1.407,7.729-2.079a29.268,29.268,0,0,1,7.918-1.068,32.048,32.048,0,0,1,8,1.022,22.32,22.32,0,0,1,2.379,3.154,11.919,11.919,0,0,1,1.767,4.278,9.642,9.642,0,0,1-.107,4.027,12.641,12.641,0,0,1-2.958,5.4,19.23,19.23,0,0,1-2.413,2.274,23.708,23.708,0,0,1-2.831,1.93c-10.14,7.179-20.954,14.825-31.867,22.446l-.774.551c-.554.4-1.134.813-1.646,1.181a111.2,111.2,0,0,1-10.265,6.833,30.681,30.681,0,0,1-5,2.3,17.728,17.728,0,0,1-2.414.647,12.639,12.639,0,0,1-2.334.23,9.428,9.428,0,0,1-3.545-.663,9.914,9.914,0,0,1-3.232-2.165,16.432,16.432,0,0,1-2.853-3.929,33.094,33.094,0,0,1-2.409-5.953,12.638,12.638,0,0,1-4.319-1.665c-.674-.358-1.37-.729-2.07-1.026.5,2.324-.753,4.671-1.859,6.742-.148.277-.3.564-.447.846a2.438,2.438,0,0,1-1.27,1.331,4.3,4.3,0,0,1-1.841.375h-.051a2.245,2.245,0,0,1-1.588.61,2.82,2.82,0,0,1-1.312-.326,2.334,2.334,0,0,1-.958-.9,29.357,29.357,0,0,1-5.971-2.528c-1.9-1.036-3.762-2.234-5.562-3.393-1.36-.876-2.766-1.781-4.177-2.608-4.26-2.584-8.716-4.985-13.025-7.307l-.012-.006c-3.063-1.651-6.231-3.358-9.3-5.117,1.5,6.183,2.814,12.626,3.921,19.147,1.055,6.219,1.951,12.715,2.663,19.307.674,6.236,1.206,12.772,1.581,19.427.352,6.23.579,12.793.676,19.509.17,11.764-.046,24.556-.66,39.107-.547,12.968-1.338,25.832-2.168,38.966l-.023.467a31.488,31.488,0,0,1-.6,5,15.469,15.469,0,0,1-1.4,3.976,15.178,15.178,0,0,1-2.5,3.428,29.753,29.753,0,0,1-3.9,3.352,100.685,100.685,0,0,1,2.815,10.094c.12.361.438.4.746.445.377.05.733.1.739.692a7.476,7.476,0,0,1,1.644-.172,7.168,7.168,0,0,1,2.152.3,2.587,2.587,0,0,1,1.487,1.008,1.949,1.949,0,0,1-.106,1.975,34.289,34.289,0,0,1,3.814,3.807c1.177,1.353,2.3,2.793,3.394,4.187l0,.006c1.337,1.71,2.72,3.477,4.21,5.1a65.6,65.6,0,0,0,5.492,5.789c1.825,1.714,3.808,3.413,6.064,5.195,4.187,3.306,8.67,6.376,13,9.346l.223.153a42.2,42.2,0,0,1,7.017,4.433,27.859,27.859,0,0,1,4.949,4.956,17.759,17.759,0,0,1,2.8,5.214,12.415,12.415,0,0,1,.576,5.207,11.719,11.719,0,0,1-1.454,4.47,15.359,15.359,0,0,1-3.386,4.056,24.347,24.347,0,0,1-5.375,3.448,40.357,40.357,0,0,1-7.423,2.646l-.239.056c-.685.165-1.387.37-2.13.587A20.153,20.153,0,0,1,260.891,464.742ZM192.5,401.124a153.9,153.9,0,0,0-.923,16.931c-.02,5.047.153,10.6.528,16.974,8.921,4.031,18.037,7.881,27.093,11.444,9.117,3.587,18.417,6.978,27.642,10.079a47.041,47.041,0,0,0,5.261,1.719,30.636,30.636,0,0,1,7.733,2.965,37.537,37.537,0,0,0,9.729-1.961,39.91,39.91,0,0,0,8.942-4.348,11.238,11.238,0,0,0,3.617-3.873,8.3,8.3,0,0,0,.973-4.284,12.928,12.928,0,0,0-2.838-7.114,21.6,21.6,0,0,0-6.256-5.524,67.521,67.521,0,0,1-6.135-3.164c-1.959-1.138-3.941-2.414-5.891-3.793a99.841,99.841,0,0,1-11-9.1,150.331,150.331,0,0,1-18.563-21.689c-.528.057-1.069.108-1.545.154-1.365.131-2.777.266-4.172.521a50.242,50.242,0,0,0-10.158,2.811,57.106,57.106,0,0,0-9.423,4.76c-.538.335-1.069.7-1.582,1.053a15.848,15.848,0,0,1-4.307,2.345,6.079,6.079,0,0,1-4.713-.215,6.917,6.917,0,0,1-2.148-1.574A6.821,6.821,0,0,1,192.5,401.124Zm3.372-21.268a18.547,18.547,0,0,0,.7,5.35v0c.294,1.343.627,2.865.855,4.488a26.876,26.876,0,0,1,.257,5.235c-.08.6-.194,1.227-.3,1.831v0a15.806,15.806,0,0,0-.389,4.459,4.416,4.416,0,0,0,.819,2.262,1.839,1.839,0,0,0,1.469.66,6.424,6.424,0,0,0,3.06-1.13c1.119-.67,2.288-1.541,3.418-2.383a17.67,17.67,0,0,1,4.025-2.557,50.487,50.487,0,0,1,7.608-3.385,53.649,53.649,0,0,1,8.036-2.122,4.639,4.639,0,0,0-.674-2.2,5.2,5.2,0,0,1-.687-2.03c-.144-1.672-.19-3.339-.235-4.951v-.01c-.025-.878-.05-1.785-.091-2.7a23.93,23.93,0,0,1-9.683,1.622,66.43,66.43,0,0,1-9.684-.8C201.629,381.092,198.769,380.538,195.876,379.857Zm38.22,16.026a2.949,2.949,0,0,1-.388.215c.3.357.583.732.861,1.094a16.737,16.737,0,0,0,2.148,2.447l-.5-.772A30.142,30.142,0,0,0,234.1,395.882ZM13.786,121.193h0a9.725,9.725,0,0,1-1.984,3.975c.239,1.932.415,3.92.525,5.909.1,1.894.152,3.852.141,5.82-.021,3.627-.233,7.357-.648,11.4-.771,7.506-2.133,14.905-3.45,22.061v.009c-1.019,5.537-2.073,11.263-2.806,16.841-.394,3-.669,5.734-.841,8.358-.192,2.94-.251,5.672-.179,8.353a72.709,72.709,0,0,0,.7,8.376,64.421,64.421,0,0,0,1.791,8.427,63.613,63.613,0,0,0,3.1,8.507,69.762,69.762,0,0,0,4.62,8.615,3.871,3.871,0,0,1,.84.532c.118-.078.251-.17.418-.29,1.593-2.815,3.313-5.635,5.258-8.622,1.733-2.66,3.606-5.393,5.727-8.353,3.941-5.5,8.158-10.97,12.237-16.26,5.582-7.239,11.354-14.725,16.5-22.4.845-1.647,1.86-3.267,2.934-4.982,1.981-3.162,4.03-6.431,5.03-10-3.125-1.232-6.108-2.573-8.865-3.984a82.483,82.483,0,0,1-7.659-4.443,76.448,76.448,0,0,1-12.613-10.375,112.174,112.174,0,0,1-10.521-12.545c-3.379-4.592-6.776-9.685-10.249-14.934Zm331,61.89a29.511,29.511,0,0,0-5.821.642c-1.874.376-3.69.865-5.7,1.418-6.284,1.717-11.886,3.131-17.124,4.323-6.138,1.4-11.808,2.5-17.333,3.373a9.455,9.455,0,0,0-.665.753,1.058,1.058,0,0,1-.06,1.193,8.345,8.345,0,0,0-.845,2.861,26.4,26.4,0,0,0-.147,3.036v0a15.728,15.728,0,0,1-.622,5.146,32.835,32.835,0,0,1-1.953,5.522,30.656,30.656,0,0,1-3.044,5.257,23.313,23.313,0,0,1-4.074,4.378,16.789,16.789,0,0,1-5.044,2.885,35.849,35.849,0,0,1,3.167,3.609,32.1,32.1,0,0,0,3.561,3.971,8.185,8.185,0,0,0,2.222,1.085,7.683,7.683,0,0,0,2.251.332,12.652,12.652,0,0,0,5.884-1.734,49.686,49.686,0,0,0,5.487-3.578c.789-.565,1.533-1.1,2.249-1.578,9.146-6.453,18.629-13.085,28.992-20.277a61.164,61.164,0,0,1,5.472-3.783h0c2.188-1.408,4.449-2.864,6.37-4.389a13.546,13.546,0,0,0,4.178-4.709,6.251,6.251,0,0,0,.353-2.706,8.16,8.16,0,0,0-.7-2.587,16.559,16.559,0,0,0-3.151-4.486,3.63,3.63,0,0,1-1.249.19c-.378,0-.768-.036-1.146-.072h0c-.34-.032-.692-.065-1.035-.071-.155,0-.314-.005-.473-.005Zm-62.519,9.223c-1,2.033-1.917,4.136-2.81,6.431-.8,2.049-1.555,4.2-2.317,6.589-1.45,4.539-2.7,9.293-3.812,13.487,1.321.363,2.606.842,3.848,1.3h0c1.1.41,2.236.833,3.387,1.172a2.628,2.628,0,0,0,.575.062,5.032,5.032,0,0,0,2.683-.99A16.292,16.292,0,0,0,286.537,218a39.737,39.737,0,0,0,4.078-5.232,28.538,28.538,0,0,0,2.257-4.636,26.819,26.819,0,0,0,1.354-4.971,33.7,33.7,0,0,0,.265-3.4v0c.048-1.092.1-2.22.253-3.307a11.067,11.067,0,0,1,.9-3.17,50.177,50.177,0,0,1-5.145.3,24.445,24.445,0,0,1-8.233-1.268ZM129.852,169.771a.756.756,0,0,0-.745.536l-.993,2.987-.362,1.089h0c-1.783,5.371-3.627,10.924-5.529,16.355-2.134,6.092-4.116,11.379-6.061,16.164a.618.618,0,0,0,.038.606.858.858,0,0,0,1.458-.193c1.941-4.777,3.919-10.056,6.049-16.136,1.9-5.419,3.739-10.961,5.519-16.321l0-.008c.426-1.283.909-2.737,1.374-4.133a.663.663,0,0,0-.076-.625.836.836,0,0,0-.674-.321Zm61.014,9.982a.577.577,0,0,1,.44.221,4.909,4.909,0,0,1,.647,2.567,35.932,35.932,0,0,1,.009,4.138c-.131,2.892-.461,5.761-.543,6.371a32.4,32.4,0,0,1-.616,3.56c-.224,1.058-.455,2.152-.581,3.23a11.536,11.536,0,0,0,.026,3.235,25.7,25.7,0,0,0,4.769-8.384c1.12-2.908,2.19-5.889,3.225-8.772.464-1.292.943-2.628,1.421-3.939a1.255,1.255,0,0,1,.479-.608,1.21,1.21,0,0,1,1.568.221,1.157,1.157,0,0,1,.217,1c-.1,4.845-.178,9.589-.255,14.427l-.058,3.607c0,.1-.01.232-.021.383v0c-.04.592-.1,1.4.2,1.713a.391.391,0,0,0,.3.126.877.877,0,0,0,.361-.1,20.754,20.754,0,0,0,3.827-5.935,36.513,36.513,0,0,0,2.3-7.365,51.5,51.5,0,0,0,.987-7.784,50.945,50.945,0,0,0-.121-7.193c-.921.022-1.835.033-2.718.033-2.959,0-5.814-.126-8.485-.374a70.135,70.135,0,0,1-8.358-1.269,55.8,55.8,0,0,1-8.076-2.385,47.567,47.567,0,0,1-7.637-3.722,60.33,60.33,0,0,1-4.045,11.357c-1.008,2.325-2.05,4.729-2.866,7.143,3.845-.846,6.833-4.352,9.249-7.669l.069-.1c.112-.172.223-.35.341-.538a11.7,11.7,0,0,1,1.38-1.909,2.608,2.608,0,0,1,1.889-.932,2.754,2.754,0,0,1,1.181.294c1.224.71,1.866,2.072,1.964,4.165a29.952,29.952,0,0,1-.55,5.787,28.24,28.24,0,0,0-.427,3.51,61.949,61.949,0,0,1-2.059,9.964c-.39,1.474-.794,3-1.141,4.514,2.143-1.463,3.131-3.99,4.086-6.434.316-.809.615-1.574.955-2.305l5.328-12.765C190.051,180.121,190.5,179.754,190.866,179.753Zm91.948,11.3c-.052.165-.115.338-.165.477l.016,0c.029.006.061.012.092.021C282.782,191.364,282.8,191.205,282.813,191.055ZM151.458,137.4c.041,1.093.084,2.207.127,3.284v.035c.217,5.5.441,11.2.328,16.778a79.494,79.494,0,0,1,8.464,1.123,58.25,58.25,0,0,1,6.645,1.664,76.256,76.256,0,0,1,10.129,4.167h0c1.75.827,3.4,1.609,5.207,2.353a48.259,48.259,0,0,0,5.893,2.021,51.786,51.786,0,0,0,7.383,1.414,79.97,79.97,0,0,0,9.679.533h0c1.414,0,2.906-.029,4.434-.086.983-.658,1.894-2.145,2.707-4.42a45.127,45.127,0,0,0,1.811-7.362,69.207,69.207,0,0,0,1.083-13.584,8.07,8.07,0,0,0-3.086-6.93,13.3,13.3,0,0,0-3.375-1.951A21.813,21.813,0,0,0,205,135.284a1.667,1.667,0,0,1-.874.233,2.859,2.859,0,0,1-1.706-.656,2.613,2.613,0,0,1-.984-1.439,1.258,1.258,0,0,1,.134-.91,1.861,1.861,0,0,1,.92-.733,33.472,33.472,0,0,0,10.379-5.223,32.193,32.193,0,0,0-3.778-.65,33.881,33.881,0,0,0-3.73-.2,39.534,39.534,0,0,0-6.23.512,56.413,56.413,0,0,0-6.144,1.35c-4.074,1.118-8.184,2.635-12.158,4.1l-.082.03c-3.982,1.47-8.1,2.99-12.241,4.122a57.053,57.053,0,0,1-6.217,1.358,40.4,40.4,0,0,1-6.324.515,34.625,34.625,0,0,1-4.509-.292ZM55.824,17.027a68.339,68.339,0,0,0-11.247,2.082A70.7,70.7,0,0,0,33.789,23.02a36.5,36.5,0,0,0-4.57,1.649,33.467,33.467,0,0,0-4.076,2.137,32.523,32.523,0,0,0-6.76,5.56,36.624,36.624,0,0,0-5.052,6.982A46.285,46.285,0,0,0,9.806,47.4a67.986,67.986,0,0,0-3.171,17.92c-.152,2.966-.154,6.049,0,9.164.14,2.923.413,5.894.812,8.831A114.662,114.662,0,0,0,9.119,96.208a98.861,98.861,0,0,0,3.22,12.516,86.343,86.343,0,0,0,4.931,11.909,78.223,78.223,0,0,0,6.81,11.07,83.056,83.056,0,0,0,7.023,9.255,71.9,71.9,0,0,0,7.664,7.516,67.385,67.385,0,0,0,8.241,5.932,68.663,68.663,0,0,0,8.753,4.5,75.659,75.659,0,0,0,9.2,3.232,88.916,88.916,0,0,0,9.585,2.116c3.141.518,6.473.907,9.9,1.155,3.213.233,6.631.351,10.16.351,3.48,0,7.064-.109,10.957-.332,3.465-.2,7.094-.485,11.094-.874,7.427-.723,14.987-1.7,22.3-2.637l.133-.017,2.048-.263a5.649,5.649,0,0,1,2.629-.716,5.126,5.126,0,0,0,3.1-1.038,1.488,1.488,0,0,1-.422-.222,4.246,4.246,0,0,0,1.454-2.612l.313.031c.189-4.032.168-8.081.148-12v0c-.013-2.44-.025-4.963.013-7.455-7.232-1.981-14.866-3.5-22.249-4.966h0c-7.216-1.435-14.678-2.918-21.824-4.841a2.46,2.46,0,0,1-1.452.452,6.964,6.964,0,0,1-2.736-.831c-.335-.152-.651-.3-.962-.417-4.072-1.73-8.312-3.43-12.6-5.052l-1.059-.4c-3.091-1.157-5.791-2.2-8.253-3.2l-1.024-.416c-.276-.113-.623-.277-1.024-.468a12.707,12.707,0,0,0-4.722-1.539,2.2,2.2,0,0,0-1.485.478l.138.3c.737,1.6,3.061,6.964,2.05,8.537a.964.964,0,0,1-.87.435,2.827,2.827,0,0,1-.967-.21,4.364,4.364,0,0,1-1.175-1.434,16.556,16.556,0,0,1-1.067-2.352c-.682-1.8-1.322-4.035-1.941-6.192v0a69.28,69.28,0,0,0-2.12-6.611,9.851,9.851,0,0,0-1.157-2.182,1.8,1.8,0,0,0-1.282-.862,33.489,33.489,0,0,0-2.231,9.857,1.132,1.132,0,0,1-.355.7,1.037,1.037,0,0,1-.7.3.809.809,0,0,1-.627-.309,6.639,6.639,0,0,1-1.232-2.573,7.255,7.255,0,0,1-.087-2.629A22.425,22.425,0,0,1,57.1,105.84a18.8,18.8,0,0,0,1.836-6.366,21.935,21.935,0,0,0-.072-3.409,30.236,30.236,0,0,0-.522-3.35c-.465-2.217-1.139-4.44-1.792-6.591v0c-.572-1.885-1.164-3.834-1.608-5.763l-.09-.436c-.145-.694-.3-1.4-.463-2.139-.4-1.815-.812-3.691-1.092-5.514a21.069,21.069,0,0,1-.277-5.105l.849,3.194c.774,2.9,1.687,6.274,2.726,9.545.528,1.674,1.159,3.39,1.769,5.05h0A64.217,64.217,0,0,1,61.323,94.5a23.661,23.661,0,0,1,.482,4.869,17.86,17.86,0,0,1-.729,4.939,4.26,4.26,0,0,1,2.359.793,6.539,6.539,0,0,1,1.716,1.9,25.563,25.563,0,0,1,2.262,5.367A26.768,26.768,0,0,0,68.8,115.96a2.24,2.24,0,0,1,1.154-.728,6.321,6.321,0,0,1,1.822-.225,22.306,22.306,0,0,1,4.652.632c1.62.362,3.528.891,5.672,1.573,3.944,1.254,7.978,2.787,11.22,4.019,2.117.8,3.789,1.44,4.791,1.751l.941-1.067c2.6-2.95,5.15-5.812,7.661-8.4a68.517,68.517,0,0,1,7.423-6.771,32.052,32.052,0,0,1,7.715-4.518,23.58,23.58,0,0,1,4.133-1.22,22.939,22.939,0,0,1,4.4-.424c5.581,0,11.69,1.963,18.676,6a85.281,85.281,0,0,1-2.289-9.231c-.564-2.93-1.024-6.008-1.4-9.409-.707-6.314-1.025-12.773-1.332-19.02l-.005-.1c-.05-1.026-.1-2.087-.156-3.127a23.628,23.628,0,0,0-.117-3.319,35,35,0,0,1-.15-4.541c.1-1.606.469-2.6,1.125-3.04a4.166,4.166,0,0,1,1.066.313v1.35a42.061,42.061,0,0,0,.207,4.579c.2,1.8.542,2.925,1.023,3.357l.5,5.177c.63,6.426,1.334,13.273,2.406,20.128.557,3.566,1.164,6.82,1.854,9.948.766,3.473,1.61,6.683,2.581,9.813,2.347,1.31,4.733,2.753,7.093,4.289,2.24,1.457,4.53,3.046,6.806,4.721,4.163,3.064,8.373,6.475,12.873,10.43l.945-.344.955-.35.041-.015c6.96-2.552,14.849-5.444,22.4-5.444a26.026,26.026,0,0,1,4.911.45,21.758,21.758,0,0,1,4.745,1.485,13.894,13.894,0,0,0-.841-3.853,18.461,18.461,0,0,0-1.778-3.548c-1.756-.435-3.055-1.907-4.311-3.331-.449-.508-.872-.989-1.315-1.422-1.87-2.007-3.79-4.031-5.646-5.989l-.015-.015,0,0c-3.483-3.673-7.084-7.472-10.513-11.313-1.813-1.948-3.582-4.035-5.408-6.381-1.627-2.09-3.262-4.339-5-6.874C177.1,77.241,174,72.227,171,67.378l0,0c-2.962-4.795-6.024-9.753-9.217-14.426-1.718-2.515-3.336-4.749-4.944-6.828-1.805-2.334-3.553-4.415-5.344-6.362a73.8,73.8,0,0,0-5.877-5.739,60.268,60.268,0,0,0-6.542-4.959,53.311,53.311,0,0,0-15.609-6.952,20,20,0,0,1-3.068,8.672,20.106,20.106,0,0,1-6.116,5.941,27.747,27.747,0,0,1-8.155,3.415,37.77,37.77,0,0,1-9.187,1.093,41.9,41.9,0,0,1-8.26-.821,36.442,36.442,0,0,1-7.56-2.367l-.571-.219c-2.683-1.034-5.009-2.045-7.11-3.09a47.74,47.74,0,0,1-6.77-4.026,33.356,33.356,0,0,1-3.008-2.441A26.574,26.574,0,0,1,61.04,25.5a22.182,22.182,0,0,1-2.14-3.125,20.033,20.033,0,0,1-1.557-3.514l-.136-.287C56.879,17.9,56.476,17.163,55.824,17.027ZM213.891,129.206h0a38.673,38.673,0,0,1-7.734,4.274,1.821,1.821,0,0,1-.284.9,21.169,21.169,0,0,1,5.347,1.044,13.089,13.089,0,0,1,2.436,1.13,10.328,10.328,0,0,1,2.106,1.668c.118-.923.241-1.906.335-2.886a8.727,8.727,0,0,0-.26-3.456,5.053,5.053,0,0,0-1.945-2.672Zm-109.324-2.754a.887.887,0,0,1,.118.285c.628.067,1.263.139,1.888.216ZM10.281,109.675h0c.106.7.21,1.44.319,2.252l.1.752.015-.066a1.166,1.166,0,0,1,.276-.5l.043-.044C10.773,111.278,10.52,110.472,10.281,109.675ZM123.624,20.783c.025.216.042.458.05.739.279,0,.611,0,.953.013A5.147,5.147,0,0,1,123.624,20.783ZM11.713,208.583h0a.385.385,0,0,1-.422-.379,5.513,5.513,0,0,1,.823-2.463c.555-1.1,1.389-2.52,2.478-4.215,2.48-3.86,5.654-8.2,7.88-11.156,2.88-3.829,5.932-7.682,8.372-10.572,2.572-3.046,4.27-4.795,4.78-4.926a2.148,2.148,0,0,1,.554-.093c.209,0,.344.064.4.191.381.851-2.734,4.33-4.795,6.632h0l0,0a22.331,22.331,0,0,0-1.634,1.919c-5.69,6.71-10.949,13.843-16.282,21.171l-1.588,2.185c-.142.206-.843,1.249-.7,1.526a.14.14,0,0,0,.136.068.478.478,0,0,0,.117-.017l.018,0a.056.056,0,0,1,.054.041.063.063,0,0,1-.025.072A.974.974,0,0,1,11.713,208.583Zm.131-17.528h0c-.079-.059-.077-.217.007-.471.539-1.634,4.472-7.2,8.953-12.675,2.338-2.856,4.507-5.294,6.27-7.052a25.161,25.161,0,0,1,2.514-2.248,3.424,3.424,0,0,1,1.692-.842.488.488,0,0,1,.393.167,1.783,1.783,0,0,1,.106,1.359c-2.919,3.45-6.112,6.756-9.2,9.953h0c-3.635,3.764-7.394,7.656-10.733,11.808Zm44.7-41.316a1.431,1.431,0,0,1-.987-.406,9.739,9.739,0,0,1-1.7-2.674,9.021,9.021,0,0,1-.669-2.826,12.922,12.922,0,0,1,1.075-5.8,26.038,26.038,0,0,1,3.176-5.493,41.644,41.644,0,0,1,3.935-4.573.031.031,0,0,1,.023-.011.042.042,0,0,1,.036.022.03.03,0,0,1,0,.032,33.182,33.182,0,0,0-3.024,4.45,21.408,21.408,0,0,0-2.051,4.925,12.087,12.087,0,0,0,1.48,10.177,1.5,1.5,0,0,1,.194.762,1.387,1.387,0,0,1-.2.67A1.536,1.536,0,0,1,56.542,149.739ZM32.136,129.958a1.9,1.9,0,0,1-1.567-.813,6.3,6.3,0,0,1-.661-1.952,5.776,5.776,0,0,1,.022-1.9,8.857,8.857,0,0,1,1.656-3.615,23.115,23.115,0,0,1,3.073-3.368c1.163-1.079,2.408-2.109,3.613-3.1h0a38.858,38.858,0,0,0,4.379-3.969,21.633,21.633,0,0,1,1.9-1.723c1.536-1.285,3.124-2.614,3.572-4.6l.028-.132a.133.133,0,0,1,.133-.117.109.109,0,0,1,.08.031.113.113,0,0,1,.028.085c-.075,1.755-1.223,3.056-2.334,4.313l-.01.012c-.126.143-.257.29-.382.435l-5.4,6.224c-.51.613-1.049,1.213-1.619,1.848l0,.005a27.94,27.94,0,0,0-3.745,4.828,9.586,9.586,0,0,0-1.055,2.738,7.725,7.725,0,0,0-.02,3.067,1.654,1.654,0,0,1-.457,1.214A1.744,1.744,0,0,1,32.136,129.958ZM177.28,107.422a.511.511,0,0,1-.472-.365.49.49,0,0,1,.21-.564c2.108-1.486,4.218-3.033,6.258-4.53l.062-.045a.625.625,0,0,1,.066,0c.082,0,.131.022.146.064.124.352-2.041,2.086-3.781,3.479a20.376,20.376,0,0,0-2.143,1.823A.531.531,0,0,1,177.28,107.422ZM159.9,94.651a.178.178,0,0,1-.156-.122.127.127,0,0,1,.041-.149l.4-.318c.361-.286.724-.577,1.076-.859a36.759,36.759,0,0,1,8.762-5.747.861.861,0,0,1,.327-.067.811.811,0,0,1,.574.248,1.189,1.189,0,0,1,.315.574.889.889,0,0,1-.447,1.05c-1.165.569-2.367,1.092-3.53,1.6a41.26,41.26,0,0,0-7.286,3.766A.131.131,0,0,1,159.9,94.651ZM33.6,80.629c-1.021,0-3.405-1.556-5.146-2.693a14.1,14.1,0,0,0-2.019-1.212,31.12,31.12,0,0,0-5.2-2.34,27,27,0,0,1-6.479-3.142,8.216,8.216,0,0,1-2.241-2.436,7.042,7.042,0,0,1-.677-1.578,8.189,8.189,0,0,1-.307-1.873,7.65,7.65,0,0,0,4.074,5.067,30.906,30.906,0,0,0,6.5,2.487l.2.058,1.331.507a47.443,47.443,0,0,1,5.58,2.448A17.27,17.27,0,0,1,34,79.57c.131.424.135.724.011.892A.482.482,0,0,1,33.6,80.629Z" transform="translate(68.959 0)"/>
    </g>
    <g id="Head" transform="translate(86.512 45.072)">
      <g id="HEAD-2" data-name="HEAD">
        <path id="_Skin-2" data-name="âœ‹ Skin" d="M60.325,112.662a23.136,23.136,0,0,1-13.876-4.153c-4.495-1.6-9.916-4.078-13.209-6.674-1.284.328-2.821-1.037-3.8-1.758C23.323,95.51,18.526,88.825,17.1,82.128,14.91,84.9,11.787,85.016,8.8,83.638c-6.271-3.559-6.036-11.052-3.779-16.65C.271,56.331-3.018,28.2,4.226,16.846c1.482-1.7,3.657-2.715,5.222-4.457a32.168,32.168,0,0,1,4.339-4.282c4.946-3.767,13.465-5.773,18.8-6.716C54.853-3.425,71.961,5.233,92.13,12.536a35.568,35.568,0,0,1-4.607,8.024c5.007,1.87,2.707,6.075-1.177,8.207l-2.313-1.125c3.605,12.907,11.9,45,8.322,55.311-2.855,16.081-15.383,29.826-32.03,29.709" transform="translate(11.593 14.909)" fill="#d08b5b"/>
        <path id="_Hair" data-name="ðŸ’ˆ Hair" d="M4.492,65.722C.04,54.253-2.748,27.776,4.226,16.846c1.482-1.7,3.656-2.715,5.222-4.457a32.153,32.153,0,0,1,4.34-4.281c4.946-3.767,13.465-5.773,18.8-6.716C54.853-3.425,71.961,5.233,92.13,12.537a35.556,35.556,0,0,1-4.607,8.023c5.007,1.87,2.707,6.075-1.177,8.207l-1.707-.83c-.45-2.409-1.651-7.124-4.192-7.377-3.42-.34-10.989,6.062-14.284,6.062s-20.04-7.161-29.238-7.161S19.9,27.063,16.786,32.573s4.63,12.353,4.63,12.353-4.63,5.939-4.63,8.536S17.868,64.2,17.868,64.2s-4.986-1.637-7.837-1.637-4.95,3.16-4.95,3.16ZM17.868,64.2Z" transform="translate(11.511 15.024)" fill="#ecdcbf"/>
        <path id="_Ink-2" data-name="ðŸ– Ink" d="M61.939,116.1a30.126,30.126,0,0,1-4.847-.387,25.543,25.543,0,0,1-4.716-1.227,20.209,20.209,0,0,1-4.285-2.168,16.482,16.482,0,0,1-3.552-3.209.913.913,0,0,1-.211-.566.924.924,0,0,1,.191-.58.85.85,0,0,1,.679-.338.893.893,0,0,1,.441.12l.442.246a45.469,45.469,0,0,0,5.043,2.444,26.854,26.854,0,0,0,5.371,1.58,29.461,29.461,0,0,0,5.148.457,28.74,28.74,0,0,0,6.381-.717A27.851,27.851,0,0,0,77.39,107.7a31.4,31.4,0,0,0,7.269-6.85,38.181,38.181,0,0,0,5.491-9.876A42.4,42.4,0,0,0,92.721,79.9a49.6,49.6,0,0,0,.152-6.817c-.092-2.144-.305-4.362-.651-6.779-.64-4.477-1.63-8.883-2.673-13.379-2.4-10.335-4.765-19.361-7.232-27.594a1.971,1.971,0,0,1-.081-.767,2.97,2.97,0,0,0-1.089-.2,4.439,4.439,0,0,0-1.427.26,16.865,16.865,0,0,0-4.337,2.642l-.07.053c-.44.334-.9.678-1.3.954a10.541,10.541,0,0,1-5.325,2.015c-.176.011-.356.017-.535.017a10.587,10.587,0,0,1-2.743-.387,19.212,19.212,0,0,1-2.62-.93c-.949-.407-1.886-.83-2.792-1.24l-.034-.015a53.243,53.243,0,0,0-8.031-3.113,43.364,43.364,0,0,0-11.273-1.495l-.4,0a35.751,35.751,0,0,0-5.234.413,25.257,25.257,0,0,0-4.983,1.292,18.894,18.894,0,0,0-4.472,2.4,16.857,16.857,0,0,0-3.7,3.724,12.505,12.505,0,0,0-1.985,3.866,8,8,0,0,0-.319,2.1,7.327,7.327,0,0,0,.308,2.19,11.447,11.447,0,0,0,1,2.319,20.258,20.258,0,0,0,1.386,2.119l.341.46a5.824,5.824,0,0,1,1.162,2.267,2.912,2.912,0,0,1-.444,2.12,10.14,10.14,0,0,1-1.051,1.342l-.012.014a11.509,11.509,0,0,0-.771.939,12.233,12.233,0,0,0-1.225,2.15,12.6,12.6,0,0,0-.977,4.668,32.185,32.185,0,0,0,.465,5.672l.007.047c.188,1.319.381,2.683.459,4.048a.791.791,0,0,1-.161.545.775.775,0,0,1-.512.289.871.871,0,0,1-.114.007c-.026,0-.052,0-.079,0,.032.129.06.262.085.394-.128-.165-.268-.329-.416-.488L19,68a.859.859,0,0,1-.36-.373,7.969,7.969,0,0,0-.658-.548,7.563,7.563,0,0,0-1.926-1.051,6.286,6.286,0,0,0-2.08-.393H13.9a5.367,5.367,0,0,0-3.685,1.42A8.009,8.009,0,0,0,8.1,70.674a15.009,15.009,0,0,0-.582,4.2,13.636,13.636,0,0,0,.6,4.3,6.773,6.773,0,0,0,2.431,3.516,5.936,5.936,0,0,0,3.344,1.117h.041a8.267,8.267,0,0,0,2.742-.644l.082-.029c.281-.1.571-.2.858-.3a1.554,1.554,0,0,1,.481-.079,1.375,1.375,0,0,1,.4.058,1.424,1.424,0,0,1,.72.506,1.752,1.752,0,0,1,.34.85,1.7,1.7,0,0,1-.134.9c-.03.068-.063.136-.1.208l.531.874a55.259,55.259,0,0,0,6.818,9.485,40.082,40.082,0,0,0,5.02,4.562l.261.194c.162.119.35.273.515.408l.168.139a3.149,3.149,0,0,0,1.585.9h.067a2.808,2.808,0,0,0,.376-.031l.025,0a3.115,3.115,0,0,1,.407-.032,1.256,1.256,0,0,1,.49.088,1.551,1.551,0,0,1,.693.613,1.508,1.508,0,0,1,.243.839,1.631,1.631,0,0,1-.232.849,2.406,2.406,0,0,1-1.084.981,2.282,2.282,0,0,1-.913.182,3.026,3.026,0,0,1-.552-.053,9.847,9.847,0,0,1-3.583-1.983l-.174-.133a38.071,38.071,0,0,1-5.531-5.077,31.443,31.443,0,0,1-6.658-11.088,5.4,5.4,0,0,1-1.518.677,7.455,7.455,0,0,1-1.719.258c-.112,0-.227.006-.341.006a11.1,11.1,0,0,1-4.56-1.024,9.7,9.7,0,0,1-3.6-2.947,12.316,12.316,0,0,1-2.012-4.189,17.265,17.265,0,0,1-.544-5.558,17.712,17.712,0,0,1,1.124-5.286c.039-.1.078-.2.112-.279A61.76,61.76,0,0,1,2.335,61.2a72.644,72.644,0,0,1-1.5-7.71A91.95,91.95,0,0,1,.052,37.839,73.383,73.383,0,0,1,1.676,23.192a13.836,13.836,0,0,1,2.82-5.8,16.154,16.154,0,0,1,2.8-2.428l.04-.029A16.465,16.465,0,0,0,9.758,12.89l.345-.379.1-.114.121-.133a28.59,28.59,0,0,1,4.017-3.879A27.331,27.331,0,0,1,20.11,5.17a51.172,51.172,0,0,1,6.775-2.281c2.075-.553,4.3-1.042,6.988-1.537A79.217,79.217,0,0,1,48.148,0a67.176,67.176,0,0,1,8.12.485A61.086,61.086,0,0,1,64.3,2.013c4.644,1.216,9.209,2.9,13.624,4.533l.292.108.008,0,.951.351C82.508,8.236,85.9,9.48,89.18,10.683l.465.171,4.868,1.786a1.77,1.77,0,0,1,.893.754,1.267,1.267,0,0,1,.094,1.123,35.212,35.212,0,0,1-3.781,7.1,4.592,4.592,0,0,1,1.326,1.406,4.9,4.9,0,0,1,.706,2.449,4.831,4.831,0,0,1-.427,2.072A6.778,6.778,0,0,1,92.158,29.3a16.65,16.65,0,0,1-3.332,2.674,1.711,1.711,0,0,1-.621.255c1.8,6.9,4.122,16,6.067,25.256l.122.587a99.416,99.416,0,0,1,1.98,13.407,51.775,51.775,0,0,1-.7,13.495,45.153,45.153,0,0,1-3.721,11.224,39.3,39.3,0,0,1-6.668,9.744,32.382,32.382,0,0,1-9.181,6.82,32.043,32.043,0,0,1-10.983,3.178A31.316,31.316,0,0,1,61.939,116.1ZM48.3,2.95h0a72.263,72.263,0,0,0-8.17.478c-2.633.3-5.35.75-8.077,1.335l-.583.126C29,5.427,27.133,5.9,25.408,6.43A37.193,37.193,0,0,0,19.6,8.7a20.841,20.841,0,0,0-5.049,3.423c-.651.612-1.25,1.293-1.829,1.952L12.7,14.1a22.012,22.012,0,0,1-2.66,2.693l-.92.737a10.557,10.557,0,0,0-3.376,3.891,22.788,22.788,0,0,0-1.508,5.693c-.384,2.351-.669,4.815-.847,7.325-.168,2.369-.245,4.849-.23,7.372a101.353,101.353,0,0,0,.869,12.271c.459,3.6,1.1,7.451,2.018,12.123a7.791,7.791,0,0,1,5.344-3.529,7.253,7.253,0,0,1,6.249,2.253,22.641,22.641,0,0,1-1.083-9.3,14.719,14.719,0,0,1,1.736-5.434,16.765,16.765,0,0,1,1.9-2.7l.246-.283.028-.033a1.014,1.014,0,0,0,.258-.41.507.507,0,0,0-.059-.328,3.538,3.538,0,0,0-.545-.751l-.008-.009-.045-.052c-.132-.154-.282-.328-.4-.491a17.993,17.993,0,0,1-2.52-4.566,11.827,11.827,0,0,1-.608-2.509,9.965,9.965,0,0,1,.017-2.621,13.282,13.282,0,0,1,1.866-4.956A22.428,22.428,0,0,1,21.734,26.3a18.283,18.283,0,0,1,4.043-3.051A23.066,23.066,0,0,1,30.451,21.3a35.5,35.5,0,0,1,10.123-1.34c.646,0,1.31.014,1.973.041a46.525,46.525,0,0,1,12.423,2.211,47.918,47.918,0,0,1,5.789,2.312l.416.2.673.329.049.024a22.614,22.614,0,0,0,4.487,1.816,6.556,6.556,0,0,0,1.56.2,5.936,5.936,0,0,0,1.594-.218,7.557,7.557,0,0,0,1.453-.577,20.453,20.453,0,0,0,2.7-1.771l.138-.1c.749-.549,1.524-1.116,2.354-1.617l.169-.1a9.9,9.9,0,0,1,4.843-1.412h.11a6.319,6.319,0,0,1,2.151.4A5.632,5.632,0,0,1,85.368,22.9a1.545,1.545,0,0,1,.44.728,2,2,0,0,1,.3.649c.4,1.517.822,3.094,1.242,4.687l.337-.218a6.447,6.447,0,0,0,2.577-2.479,2.175,2.175,0,0,0-.076-1.628,1,1,0,0,0-.345-.437.6.6,0,0,0-.336-.1l-.062,0a2.124,2.124,0,0,1-.27.017,1.907,1.907,0,0,1-.746-.148,1.677,1.677,0,0,1-.783-.662,1.508,1.508,0,0,1-.217-.986,1.716,1.716,0,0,1,.428-.921,27.741,27.741,0,0,0,4.232-6.491L84.87,12.25c-2.116-.783-4.906-1.815-7.723-2.851l-1.41-.519a116.611,116.611,0,0,0-14.263-4.5,56.642,56.642,0,0,0-6.553-1.082,63.069,63.069,0,0,0-6.62-.343ZM19.872,77.074h-.049a3.47,3.47,0,0,1-2.194-.951c-.084-.065-.167-.129-.254-.194a9.022,9.022,0,0,0-2.135-1.2,9.9,9.9,0,0,0-3.586-.691,9.351,9.351,0,0,0-1.61.14.75.75,0,0,1-.511-.093A.811.811,0,0,1,9.2,73.7a.716.716,0,0,1-.013-.538.7.7,0,0,1,.366-.386,11.728,11.728,0,0,1,2.344-.831,10.683,10.683,0,0,1,2.458-.292,10.1,10.1,0,0,1,1.355.091l.209.03a11.034,11.034,0,0,1,3.739,1.162,4.132,4.132,0,0,1,1.131.934,2.684,2.684,0,0,1,.582,1.247,1.791,1.791,0,0,1-.319,1.371A1.452,1.452,0,0,1,19.872,77.074Z" transform="translate(10.01 13.021)"/>
      </g>
      <g id="FACE" transform="translate(39.871 46.574)">
        <path id="teeth" d="M3.682.84C6.421-.807,16.657.4,24.7.84c6.386.349,10.947-.343,12.406.638,3.3,2.217,1.7,12.935-3.987,14.4s-26.75,3.513-30.382,0S-1.232,3.794,3.682.84Z" transform="translate(16.178 48.689)" fill="#fff"/>
        <path id="_Ink-3" data-name="ðŸ– Ink" d="M23.8,51.582c-.489,0-1.021,0-1.626-.01l-.693-.009c-.367-.005-.764-.008-1.251-.008l-1.132,0h-.026c-.385,0-.782,0-1.191,0a33.025,33.025,0,0,1-9.45-.993,13.111,13.111,0,0,1-2.092-.839,10.124,10.124,0,0,1-1.853-1.21,9.067,9.067,0,0,1-1.548-1.648A9.931,9.931,0,0,1,1.76,44.717a10.579,10.579,0,0,1-.614-2.211,10.936,10.936,0,0,1,1.028-6.694,8.7,8.7,0,0,1,1.568-2.161,9.989,9.989,0,0,1,2.086-1.6,13.273,13.273,0,0,1,5.04-1.632,17.052,17.052,0,0,1,2.042-.119,38.007,38.007,0,0,1,7.334.966c1.078.214,2.193.436,3.292.609a59.368,59.368,0,0,0,6.685.708c.475.021.951.032,1.355.04a1.18,1.18,0,0,1,.747-.981,5.818,5.818,0,0,1,2.586-.612c.091,0,.185,0,.28.006a21.234,21.234,0,0,1,2.97.32,10.837,10.837,0,0,1,2.61.814A7.946,7.946,0,0,1,43.023,33.7a6.927,6.927,0,0,1,1.631,2.511,7.806,7.806,0,0,1,.481,2.874,9.5,9.5,0,0,1-.518,2.923,10.164,10.164,0,0,1-1.368,2.66,14.165,14.165,0,0,1-1.824,2.078,14.357,14.357,0,0,1-2.1,1.619,16.271,16.271,0,0,1-2.318,1.216,20.012,20.012,0,0,1-2.492.869,29.54,29.54,0,0,1-5.307.923C27.643,51.516,25.923,51.582,23.8,51.582ZM32.221,41.54l-.061,0c-3.041.117-6.222.205-9.456.262.091.78.19,1.614.3,2.424.08.591.17,1.214.275,1.9.013.086.037.186.063.293a1.932,1.932,0,0,1,.086.657l-.015.105a.956.956,0,0,1,.418.362,1.428,1.428,0,0,1,.091.175l0,0c.295,0,.569,0,.838,0a39.237,39.237,0,0,0,6.74-.476l0-.054a1.044,1.044,0,0,1,.354-.68,16.768,16.768,0,0,0,.18-2.151c.013-.315.026-.641.047-.953.029-.432.061-.871.091-1.3v-.006Q32.2,41.827,32.221,41.54ZM11.295,47.346h0l.059.009c.083.014.169.028.255.04a41.779,41.779,0,0,0,5.753.315c.55,0,1.109,0,1.65-.008h.005c.492,0,1-.007,1.5-.008a12.222,12.222,0,0,1-.113-2.037c0-.254,0-.494-.006-.713l0-.12c-.045-.983-.077-1.985-.1-2.977-1.576.027-3.267.052-4.961.052-.651,0-1.257,0-1.854-.011l-1.031-.016c.07.373.142.752.213,1.118v0h0c.15.779.3,1.585.438,2.383a1.577,1.577,0,0,1-.35,1.322,1.884,1.884,0,0,1-1.4.649ZM4.866,41.634h0a6.888,6.888,0,0,0,.462,1.753,5.705,5.705,0,0,0,2.254,2.645,9.436,9.436,0,0,0,3.291,1.238,1.229,1.229,0,0,1-.814-1.058,31.937,31.937,0,0,1-.283-4.366c-1.489-.014-3.219-.043-4.91-.213Zm33.089-.312c-.274,0-.568,0-.854.015-.935.042-1.885.081-2.8.118l-.415.017.032.468v.01c.039.562.079,1.144.121,1.716.019.255.033.518.047.773a15.821,15.821,0,0,0,.21,2.111,13.093,13.093,0,0,0,3.038-1.47,10.486,10.486,0,0,0,2.507-2.333,7.329,7.329,0,0,0,.932-1.61,10.306,10.306,0,0,1-2.314.187h-.5ZM10.376,34.249h0a8.995,8.995,0,0,0-2.743,1.109,5.844,5.844,0,0,0-2.027,2.1,6.252,6.252,0,0,0-.636,1.7,7.178,7.178,0,0,0-.159,1.832c1.654-.192,3.365-.265,4.974-.323.006-.329.013-.622.022-.9L9.833,39q0-.148.009-.3a16.86,16.86,0,0,1,.534-4.454Zm3.525-.358h0c-.5,0-.988.016-1.45.048-.345.024-.7.061-1.043.112a16.491,16.491,0,0,1,.432,3.25c.036.54.07,1.049.128,1.538.061.524.143,1.088.248,1.725l.412-.019c1.958-.106,3.95-.182,5.876-.255l1.776-.069c0-.529,0-1,.01-1.436l.009-.479c.009-.358.008-.721.007-1.107a19.678,19.678,0,0,1,.125-2.774l-.855-.1-.207-.024a48.683,48.683,0,0,0-5.467-.416Zm8.029.686h0c.042.343.071.692.1,1.03v0c.014.171.029.348.045.521.091.975.2,1.988.326,3.1l.107.9c2.81-.127,5.8-.272,9.406-.454l.443-.024.124-1.733c.08-1.094.173-2.271.308-3.461l-.1-.036a1.6,1.6,0,0,1-.329-.187,48.4,48.4,0,0,1-7.5.489h-.032c-.858,0-1.778-.046-2.895-.145Zm11.51.086c.1,1.163.165,2.348.231,3.494.027.465.054.945.083,1.417l2.067-.11,1.033-.058c.372-.021.769-.068,1.188-.116a16.5,16.5,0,0,1,1.878-.147,4.793,4.793,0,0,1,1.318.159,3.428,3.428,0,0,0-1.329-3.18,5.143,5.143,0,0,0-1.985-.873,15.24,15.24,0,0,0-2.146-.27,13.822,13.822,0,0,1-2.337-.316ZM29.16,28.68a4.024,4.024,0,0,1-3.007-1.057,1.8,1.8,0,0,1-.508-1.026,2.037,2.037,0,0,1,.153-1.068,2.233,2.233,0,0,1,.689-.9,1.7,1.7,0,0,1,1.031-.365,1.73,1.73,0,0,1,.98.32,2.438,2.438,0,0,0,1.366.322,9.97,9.97,0,0,0,2.663-.46l.067-.019a4.259,4.259,0,0,0,1.188-.569,2.817,2.817,0,0,0,.912-.973A1.591,1.591,0,0,0,34.8,21.6a2.037,2.037,0,0,0-1.4-1.213,6.84,6.84,0,0,0-1.928-.306c-.116,0-.235-.006-.355-.006a20.808,20.808,0,0,0-2.776.249c-.6.081-1.215.164-1.827.211h-.02a.23.23,0,0,1-.223-.183.261.261,0,0,1,.112-.3,13.777,13.777,0,0,1,2.951-1.2,13.3,13.3,0,0,1,3.578-.548,5.629,5.629,0,0,1,3.191.811,3.706,3.706,0,0,1,1.567,2.909,4.9,4.9,0,0,1-1.027,3.4,7.05,7.05,0,0,1-2.855,2.2l-.083.035a15.518,15.518,0,0,1-2.121.7A10.192,10.192,0,0,1,29.16,28.68Zm14.308-8.218a1.069,1.069,0,0,1-.11-.006l-.175-.016a1.588,1.588,0,0,1-.261-.042,1.733,1.733,0,0,1-.869-.592,1.451,1.451,0,0,1-.337-.989l.013-.207A6.637,6.637,0,0,0,41.457,16a2.567,2.567,0,0,0-.678-1.018,2.613,2.613,0,0,0-1.241-.592,2.366,2.366,0,0,0-.47-.049,2.056,2.056,0,0,0-1.711.949,3.7,3.7,0,0,0-.613,2.022.388.388,0,0,1-.382.376.35.35,0,0,1-.184-.052A2.551,2.551,0,0,1,35,16.007a3.612,3.612,0,0,1,.158-2.047,4.161,4.161,0,0,1,1.547-2,4.625,4.625,0,0,1,2.419-.794c.086,0,.173-.006.259-.006a5.377,5.377,0,0,1,4.293,2.187,7.044,7.044,0,0,1,1.3,2.8,6.746,6.746,0,0,1-.036,3.106,1.693,1.693,0,0,1-.548.833A1.459,1.459,0,0,1,43.469,20.462ZM5.386,19.718a.525.525,0,0,1-.228-.056,1.74,1.74,0,0,1-.786-.749,2.562,2.562,0,0,1-.283-1.059,4.987,4.987,0,0,1,.4-2.186A6.874,6.874,0,0,1,5.943,13.52a5.7,5.7,0,0,1,2.19-1.38,5.942,5.942,0,0,1,1.882-.3,6.556,6.556,0,0,1,3.425,1,7.026,7.026,0,0,1,2.483,2.6,1.152,1.152,0,0,1,.96,1.155,3.21,3.21,0,0,1-.868,2.091,1.7,1.7,0,0,1-1.268.55,2.026,2.026,0,0,1-1.135-.356,1.819,1.819,0,0,1-.723-.964l-.017-.058a3.171,3.171,0,0,0-1.13-1.666,3.1,3.1,0,0,0-1.874-.655,2.852,2.852,0,0,0-2.212,1.06,7.022,7.022,0,0,0-.768,1.277A5.452,5.452,0,0,1,5.7,19.593.47.47,0,0,1,5.386,19.718ZM.221,14.191a.159.159,0,0,1-.155-.149,12.167,12.167,0,0,1,.055-2.974,14.954,14.954,0,0,1,.738-3A15.332,15.332,0,0,1,2.182,5.279,12.924,12.924,0,0,1,3.993,2.923,10.417,10.417,0,0,1,6.972.908,9.069,9.069,0,0,1,10.677,0,4.342,4.342,0,0,1,13,.594,3.832,3.832,0,0,1,14.564,2.62,1.7,1.7,0,0,1,14.393,4a1.727,1.727,0,0,1-1.112.874,4.278,4.278,0,0,1-.842.079,9.858,9.858,0,0,1-1.555-.165h0a9.9,9.9,0,0,0-1.567-.165c-.127,0-.253,0-.374.014A6.5,6.5,0,0,0,5.495,5.888a8.472,8.472,0,0,0-2,2.281,25.437,25.437,0,0,0-1.391,2.7A20.789,20.789,0,0,1,.351,14.119.158.158,0,0,1,.221,14.191ZM46.4,11.231a2.315,2.315,0,0,1-.644-.09c-1.585-.458-2-1.569-2.483-2.856-.093-.247-.188-.5-.295-.759A6.5,6.5,0,0,0,40.9,4.879a9.652,9.652,0,0,0-5.635-1.7,8.95,8.95,0,0,0-2.531.343.146.146,0,0,1-.042.006.2.2,0,0,1-.171-.112.141.141,0,0,1,.013-.153c.12-.155.227-.3.331-.447a5.275,5.275,0,0,1,1.082-1.2A7.658,7.658,0,0,1,38.635.037a8.769,8.769,0,0,1,2.608.4,9.754,9.754,0,0,1,2.354,1.1A10.016,10.016,0,0,1,45.588,3.21,11.011,11.011,0,0,1,47,5.112a6.02,6.02,0,0,1,.327.756,7.653,7.653,0,0,0,.34.8A2.586,2.586,0,0,1,48.965,8.5a2.067,2.067,0,0,1-.075.927,2.256,2.256,0,0,1-.533.877l-.052.053-.154.153A2.518,2.518,0,0,1,46.4,11.231Z" transform="translate(12.538 16.276)"/>
      </g>
    </g>
  </g>
</svg>
