<svg xmlns="http://www.w3.org/2000/svg" width="433.312" height="626" viewBox="0 0 433.312 626">
  <g id="peep-sitting-11" transform="translate(20.312)">
    <g id="BODY" transform="translate(-20.311 159.505)">
      <path id="_Skin" data-name="âœ‹ Skin" d="M180.555,400.012a63.777,63.777,0,0,1-13.089-1.358c-13.424-2.814-25.62-9.452-36-15.454-.5-.281-.992-.558-1.516-.851h0l-.1-.057-.005,0c-4.061-2.269-9.115-5.093-12.282-8.536-3.476-3.78-4.074-7.546-1.882-11.852l.347-.681-.362-.674c-2.269-4.218-2.1-9.437.41-12.691l2.11-2.734-3.47.368c-3.494.37-7.016.872-10.423,1.357h-.014c-3.781.539-7.691,1.1-11.549,1.469l-1.071.1-.246,1.03c-.137.574-.306.922-1.5.922a20.775,20.775,0,0,1-3.88-.62h0a28.274,28.274,0,0,0-5.87-.844,10.6,10.6,0,0,0-2.406.255l-.433.1-.308.315a1.256,1.256,0,0,1-.875.327,1.09,1.09,0,0,1-.66-.2l-.486-.379-.617.068a118.062,118.062,0,0,0-28.32,6.319l-.038.014-.18.078h0c-3,1.295-6.112,2.634-8.941,2.634a7.157,7.157,0,0,1-5.288-2.212l-.435-.426-.613-.006c-6.223-.057-9.067-7.3-9.46-12.161l-.049-.612-.474-.4C9.73,333.536,3.327,321.054,1,304.464c-2.119-15.111-.492-31.044,1.379-44.636,4.327-35.216,8.842-66.8,20.316-96.753l.536-1.4-1.429-.512a33.832,33.832,0,0,1-11.579-6.486l-.2-.18-.247-.1c-4.063-1.667-6.055-7.822-6.568-9.669l-.041-.149L3.1,144.44a9.173,9.173,0,0,1-.524-6.063l.053-.244-.031-.248c-.268-2.15.621-4.4,1.562-6.777.43-1.087.874-2.211,1.2-3.331,1.1-3.162,2.205-6.378,3.271-9.487l.04-.115.01-.029v0C11.1,111.09,13.595,103.8,16.257,96.7l.365-.972-.8-.67c-1.371-1.144-.913-2.49,1.064-5.709a23.828,23.828,0,0,0,1.245-2.188A148.572,148.572,0,0,1,26.2,74.684l.058-.08.046-.087C40.8,47.492,66.5,32.609,98.685,32.609h.656l.362-.218c6.032-3.622,10.338-9.837,13.163-19l.09-.292-.035-.3a20.958,20.958,0,0,1-.167-3.026,9.093,9.093,0,0,1,2.93-6.661C119.043.24,124.141,0,129.075,0h.708c6.308.018,10.761,1.112,14.015,3.442,3.78,2.708,5.87,7.079,6.388,13.362.154,1.875.149,3.817.145,5.695v.543l.063.209a37.137,37.137,0,0,0,1.578,4.266l.611,1.375,1.389-.62a8.9,8.9,0,0,1,3.483-.63c.411-.01.814-.014,1.233-.014,3.353,0,6.939.305,10.406.6h.011c2.615.223,5.318.454,7.94.556l.036,0h.018l.505,0c6.364,0,10.977,1,14.518,3.145,3.813,2.31,6.554,6.018,8.627,11.669,11.12,32.395,15.69,67.283,19.723,98.063,2.287,16.1,2.983,32.6,3.656,48.554v.018c.71,16.84,1.445,34.254,4.044,51.276l.205,1.346,1.381-.089c6.073-.391,12.635-1.234,19.582-2.126h.012c10.562-1.357,21.483-2.76,32.041-2.76,14.763,0,25.954,2.9,34.213,8.866,5.757,5.417,8.735,12.754,8.613,21.216-.173,11.96-6.508,25.182-16.139,33.685l-.036.033c-12.174,11.484-34.395,21.445-66.046,29.6-29.107,7.5-59.213,11.582-74.567,13.345l-3.8.437,3.085,2.227c1.243.9,2.383,1.692,3.483,2.427l.706.471.774-.354a10.978,10.978,0,0,1,4.4-1.223c.7,0,1.542.152,1.588.874a1.221,1.221,0,0,1-1.018,1.264l-3.777.471,3.084,2.2c2.057,1.465,5.124,3.23,8.676,5.273l.018.01c11.645,6.7,29.243,16.825,26.216,25.717l-.2.584.281.551a4.891,4.891,0,0,1,.212,4.517c-1.437,3.1-5.932,5.458-9.749,6.417l-.065.016-.064.022A62.908,62.908,0,0,1,180.555,400.012Zm3.815-272.4-2.993.115c-.806,14.019-1.587,28.259-2.342,42.03-.3,5.466-.649,11.83-1,18.173-1.195,15.316-.782,27.713,1.3,39.013a26.89,26.89,0,0,1-3.321,16.158l-.89,1.536,1.693.591a31.407,31.407,0,0,0,10.478,1.6,90.1,90.1,0,0,0,11.743-1.025l2.186-.292-1.073-1.9a12.976,12.976,0,0,1-1.192-5.318v0l0-.037h0c-.045-.513-.091-1.043-.151-1.567-3.233-28.857-7.32-58.091-11.272-86.363l0-.011C186.546,143.288,185.433,135.325,184.37,127.612Z" transform="translate(26.831 -19.281)" fill="#d08b5b"/>
      <path id="_Shoes" data-name="ðŸ‘Ÿ Shoes" d="M156.821,89.4A19.215,19.215,0,0,1,153,89.078c-1.488-.226-7.64-2.087-12.9-3.753-6.292-1.993-11.52-3.762-12.713-4.3L105.627,68.416l-.667-.292-.751-.329-.636-.253a25.813,25.813,0,0,1-3.753-1.856,17.767,17.767,0,0,1-3.43-2.636,9.883,9.883,0,0,1-2.282-3.383,7.114,7.114,0,0,1-.31-4.1,13.653,13.653,0,0,0,.43-4.26,14.868,14.868,0,0,0-.575-2.956,9.357,9.357,0,0,1-.425-4.227A31.144,31.144,0,0,1,94.5,38.893a32.063,32.063,0,0,1,2.262-5.156,18.311,18.311,0,0,0,5.079,4.1,11.194,11.194,0,0,0,5.223,1.377,9.316,9.316,0,0,0,3.03-.5,10.156,10.156,0,0,0,2.821-1.517,13.173,13.173,0,0,0,2.513-2.539,18.812,18.812,0,0,0,2.108-3.569l.1-.2.1-.2c.183-.364.359-.73.546-1.117a24.416,24.416,0,0,1,2.279-4.045,7.39,7.39,0,0,1,3.615-2.76,6.171,6.171,0,0,1,3.385-1.111,3.944,3.944,0,0,1,2.691.988,2.4,2.4,0,0,0,.281-.666,114.533,114.533,0,0,0,8.741,7.837c3.407,2.882,10.235,8.555,17.7,14.158,4.155,3.121,8.485,5.949,12.673,8.683h0c3.848,2.512,7.482,4.886,10.6,7.242a50.9,50.9,0,0,1,4.233,3.529,24.307,24.307,0,0,1,3.178,3.565,10.739,10.739,0,0,1,1.311,2.94,31.719,31.719,0,0,1,.9,3.826c.217,1.23.378,2.493.455,3.558a8.005,8.005,0,0,1-.032,2.136,9.842,9.842,0,0,1-1.978,1.4c-.893.542-2.075,1.217-3.513,2.006-2.437,1.338-4.822,2.572-4.845,2.584l-.021.006c-3.825,1.033-7.068,1.755-9.116,2.178-2.555.528-4.946.947-7.1,1.244A51.833,51.833,0,0,1,156.821,89.4ZM15.942,48.027a3.872,3.872,0,0,1-1.966-.528A7.906,7.906,0,0,1,12.5,46.338l-.2-.194-.012-.011A3.953,3.953,0,0,0,9.7,44.648a2.3,2.3,0,0,0-.233.012c-.967.1-1.53.14-1.94.14a1.826,1.826,0,0,1-1.405-.445,10.727,10.727,0,0,1-2.389-3.319A34.031,34.031,0,0,1,1.72,36.087a41.492,41.492,0,0,1-1.34-5.2,16.9,16.9,0,0,1-.359-4.061,16.931,16.931,0,0,1,.828-3.484,18.034,18.034,0,0,1,1.514-3.214,23.6,23.6,0,0,1,4.82-5.642A48.025,48.025,0,0,1,22.142,6.173,88.178,88.178,0,0,1,31.22,3.4c3.018-.756,6.193-1.4,9.437-1.921A115.064,115.064,0,0,1,58.49,0C60.824,0,63.013.089,65,.265l.442,1.013c2.144,4.9,6.687,15.057,8.521,19.13a16.175,16.175,0,0,0-1.384-2.136c-.2-.259-.343-.385-.442-.385a.1.1,0,0,0-.08.038c-.2.222-.046,1.371.181,3.109a58.875,58.875,0,0,1,.618,7.457,38.571,38.571,0,0,1-.933,8.067c-.492,2.217-1.045,3.76-1.252,3.81a.141.141,0,0,1-.033,0,7.268,7.268,0,0,1-1.271-.389c-.662-.231-1.567-.546-2.618-.858a33.015,33.015,0,0,0-3.554-.858,23.174,23.174,0,0,0-4.089-.39,16.836,16.836,0,0,0-2.631.2c-1.039.165-2.19.336-3.409.516h0a153.42,153.42,0,0,0-18.1,3.488c-3.051.832-6.063,1.922-8.976,2.976a71.48,71.48,0,0,1-9.051,2.865A4.9,4.9,0,0,1,15.942,48.027Z" transform="translate(47.143 291.321)" fill="#fff"/>
      <path id="_Top" data-name="ðŸ‘• Top" d="M152.541,227.423a55.009,55.009,0,0,1-8.456-.713l-.487-.078-1.98-.333.22-2.1.036-.349c.395-3.886.671-7.66.82-11.219.153-3.642.18-7.185.079-10.531-.1-3.411-.341-6.735-.709-9.879a93.831,93.831,0,0,0-1.544-9.263,75.641,75.641,0,0,0-2.872-9.879,62.6,62.6,0,0,0-4.077-8.887,55.656,55.656,0,0,0-5.332-7.873,54.252,54.252,0,0,0-6.637-6.836l-.3-.254-.042-.036-.745,1.008-2.019-1.717c-4.394-3.729-10.663-8.867-18.631-15.271-6.375-5.124-13.846-11.065-22.206-17.659C63.4,104.306,51.394,94.977,51.274,94.884L58.965,83.87l-.013-.013a3.678,3.678,0,0,0-.319-.271l-.125-.095-.062-.045c-.169-.123-2.061-1.011-5.351-2.471-2.151-.954-6.538-2.878-11.756-5.04-5.1-2.112-9.583-3.871-13.331-5.228A66.248,66.248,0,0,0,17.93,67.674l-.441-.073-.441-.071-.357-.056-.561-.085-2.339-.352.871-2.2c.113-.286.233-.584.354-.887a22.422,22.422,0,0,1,3.494-5.933,26.814,26.814,0,0,0,2.67-4.029l.179-.337.355-.718.4-.795,0,0c1.18-2.359,2.518-5.031,4.041-7.78A90.024,90.024,0,0,1,31.424,35.9c1.049-1.481,2.143-2.909,3.251-4.243,1.2-1.446,2.461-2.834,3.745-4.123a57.424,57.424,0,0,1,4.3-3.907,55.31,55.31,0,0,1,4.922-3.595,85.789,85.789,0,0,1,14.4-7.43A104.834,104.834,0,0,1,75.3,8.252c4.177-1.074,7.668-1.7,9.86-2.043,2.5-.387,4.017-.509,4.222-.509a.1.1,0,0,1,.026,0A64.157,64.157,0,0,0,91.9,12.629a64.657,64.657,0,0,0,3.163,6.516,44.678,44.678,0,0,0,4.489,6.646,38.569,38.569,0,0,0,8.556,7.2c1.438.924,2.948,1.8,4.367,2.524a26.467,26.467,0,0,0,3.276,1.454l.251.085.257.085a42.975,42.975,0,0,0,6.552,1.578,42.376,42.376,0,0,0,6.633.528,39.658,39.658,0,0,0,6.64-.553,35.416,35.416,0,0,0,6.284-1.664l.2-.073.122-.053a18.717,18.717,0,0,0,3.229-1.836,18.218,18.218,0,0,0,2.742-2.4,19.977,19.977,0,0,0,2.269-2.948,24.143,24.143,0,0,0,1.811-3.478l.073-.174.072-.176a36.449,36.449,0,0,0,2.352-9.775A58.853,58.853,0,0,0,155.3,4.76l-.024-.276-.036-.4,0-.024L152.85,0,157.9.178l.445.018c1.6.069,3.31.184,5.9.4l.672.056,4.866.773c1.568.248,2.948.464,4.221.662l2.644.409,3.133.479.345.055a29.633,29.633,0,0,1,6.043,1.52,15.036,15.036,0,0,1,4.516,2.684l.117.1.051.045.048.049A25.252,25.252,0,0,1,193.761,11a37.124,37.124,0,0,1,2.528,4.466,56.835,56.835,0,0,1,2.235,5.361c.688,1.9,1.355,4.005,1.983,6.257l.162.588.147.539c1.554,5.761,7.923,40.006,7.987,40.352l-2.2.166c-.271.02-.541.045-.8.072a32.811,32.811,0,0,0-6.118,1.279,43.182,43.182,0,0,0-6.2,2.445,45.9,45.9,0,0,0-5.856,3.387,39.252,39.252,0,0,0-5.086,4.1c-.361.347-.728.717-1.092,1.1l-.218.231-1.959,2.092c-.017.255-1.707,26.225-3.257,52.876-.908,15.618-1.589,28.375-2.024,37.915-.543,11.924-.7,18.827-.468,20.517l.053.382.061.278a55.354,55.354,0,0,1,1.18,8,34.881,34.881,0,0,1-.178,6.945,22.809,22.809,0,0,1-1.548,5.849,17.345,17.345,0,0,1-2.932,4.71l-.148.166-.153.167a16.815,16.815,0,0,1-3.24,2.7,19.425,19.425,0,0,1-3.975,1.931,25.559,25.559,0,0,1-4.7,1.159A35.977,35.977,0,0,1,152.541,227.423ZM3.653,226h0L0,225.185c.325-2.607.661-5.164,1-7.6l.163-1.172c.516-3.687,1.081-7.474,1.729-11.578l.2-1.262.124-.9.082-.583c.667-4.709,1.4-9.065,2.384-14.125.926-4.771,2.127-10.46,4.015-19.025l1.663-7.529c.552-2.515,1.771-7.436,4.437-16.6,1.6-5.493,2.971-9.941,2.984-9.986l.729.234.5.157c.918.288,1.924.65,3.088,1.068h0c2.073.746,4.423,1.591,7.18,2.344l4.532,1.235c1.264.347,2.2.608,3.131.873l1.4.4.62.183,2.421.725-1.256,2.074-.5.829c-3.457,5.741-6.817,11.672-9.989,17.63-3.163,5.942-6.223,12.07-9.094,18.214s-5.62,12.442-8.187,18.755-5.008,12.785-7.266,19.255c-.685,1.963-1.371,3.979-2.04,5.99L3.653,226Z" transform="translate(30.091 7.011)" fill="#ffcf77"/>
      <path id="_Ink" data-name="ðŸ– Ink" d="M182.055,395.629h0a65.335,65.335,0,0,1-13.4-1.391,90.675,90.675,0,0,1-18.839-6.36c-2.82-1.276-5.741-2.722-8.928-4.418-2.585-1.376-5.343-2.915-8.679-4.844-.516-.292-1.043-.586-1.6-.9h0c-2.086-1.165-4.451-2.486-6.669-3.945a31.817,31.817,0,0,1-5.989-4.886,15.845,15.845,0,0,1-2.128-2.867,10.933,10.933,0,0,1-1.224-3.187,9.92,9.92,0,0,1-.076-3.537,13.139,13.139,0,0,1,1.316-3.915,15.07,15.07,0,0,1-1.767-7.259,11.658,11.658,0,0,1,2.309-7.017c-3.471.368-6.982.868-10.377,1.352h-.007c-3.8.541-7.729,1.1-11.616,1.477a2.477,2.477,0,0,1-1.06,1.619,3.5,3.5,0,0,1-1.9.444,21.635,21.635,0,0,1-4.207-.655l-.054-.012-.3-.066a25.053,25.053,0,0,0-5.191-.732,9.113,9.113,0,0,0-2.064.216,2.741,2.741,0,0,1-1.96.78,2.6,2.6,0,0,1-1.6-.519,137.15,137.15,0,0,0-14.121,2.25c-2.39.516-4.738,1.1-6.977,1.744-2.351.673-4.659,1.426-6.859,2.24l-.145.062c-1.553.669-3.159,1.361-4.763,1.883a15.561,15.561,0,0,1-4.784.875,8.7,8.7,0,0,1-6.349-2.643,8.768,8.768,0,0,1-4.575-1.308,11.2,11.2,0,0,1-3.325-3.258,17.108,17.108,0,0,1-2.111-4.356,20.212,20.212,0,0,1-.935-4.6,54.435,54.435,0,0,1-4.321-4.038,53.107,53.107,0,0,1-3.731-4.34,53.785,53.785,0,0,1-3.178-4.611c-.953-1.55-1.848-3.183-2.661-4.853A63.753,63.753,0,0,1,3.29,309.742a80.478,80.478,0,0,1-2.283-10.923,106.443,106.443,0,0,1-.941-11.295c-.116-3.588-.079-7.433.11-11.429.169-3.574.453-7.278.87-11.324.345-3.348.783-6.94,1.34-10.982.964-7.847,2.021-16.26,3.215-24.612,1.3-9.105,2.624-17.144,4.043-24.575,1.67-8.744,3.474-16.675,5.514-24.247,1.1-4.076,2.279-8.083,3.509-11.909,1.288-4.006,2.673-7.949,4.118-11.718a35.279,35.279,0,0,1-12.087-6.79,8.592,8.592,0,0,1-2.689-1.81,14.035,14.035,0,0,1-2.121-2.682,21.55,21.55,0,0,1-1.576-3.1,26.377,26.377,0,0,1-1.054-3.055,8.83,8.83,0,0,1-.935-3.492,12.717,12.717,0,0,1,.278-3.557c-.315-2.519.686-5.048,1.653-7.493.422-1.068.859-2.172,1.165-3.236,1.12-3.208,2.24-6.476,3.323-9.637,2.423-7.07,4.928-14.381,7.6-21.5a3.526,3.526,0,0,1-1.2-1.743,3.728,3.728,0,0,1,.013-1.916,14.74,14.74,0,0,1,1.932-3.942,22.112,22.112,0,0,0,1.194-2.1,150.158,150.158,0,0,1,8.188-12.656,87.643,87.643,0,0,1,6.177-9.9,80.628,80.628,0,0,1,7.189-8.62,76.85,76.85,0,0,1,8.129-7.331,76.031,76.031,0,0,1,9-6.028,78.036,78.036,0,0,1,9.792-4.712,82.726,82.726,0,0,1,10.515-3.382,90.018,90.018,0,0,1,11.166-2.039,99.89,99.89,0,0,1,11.745-.683h.235a22.3,22.3,0,0,0,3.069-2.221,24.2,24.2,0,0,0,2.617-2.641,28.071,28.071,0,0,0,2.208-2.985,33.986,33.986,0,0,0,1.842-3.255,47.07,47.07,0,0,0,2.76-7.021c.672-2.173,1.266-4.529,1.815-7.2a22.81,22.81,0,0,1,.69,4.708,26.364,26.364,0,0,1-.251,4.878,29.051,29.051,0,0,1-1.136,4.86,29.961,29.961,0,0,1-1.966,4.654,28.926,28.926,0,0,1-2.739,4.261,26.547,26.547,0,0,1-3.456,3.68,23.892,23.892,0,0,1-4.117,2.911,22.071,22.071,0,0,1-4.722,1.956c1.214,1.737,2.275,3.622,3.3,5.446.592,1.052,1.2,2.139,1.837,3.184a33.894,33.894,0,0,0,13.741,12.085,41.215,41.215,0,0,0,8.9,3.217,40.787,40.787,0,0,0,9.385,1.11,36.862,36.862,0,0,0,7.063-.671,32.275,32.275,0,0,0,6.677-2.062,18.4,18.4,0,0,0,8.69-10.6,31.958,31.958,0,0,0,1.554-6.889,45.617,45.617,0,0,0,.263-6.967,2.65,2.65,0,0,1-1.891.986,3.128,3.128,0,0,1-2.248-1.306,13.4,13.4,0,0,1-1.871-3.049,31.843,31.843,0,0,1-2.093-6.113,22.25,22.25,0,0,1-.442-5.906,18.741,18.741,0,0,1,1.277-5.775.251.251,0,0,1,.234-.17.247.247,0,0,1,.245.232,49.608,49.608,0,0,0,1.117,6.355,37.081,37.081,0,0,0,2.073,6.113,10.356,10.356,0,0,1,4.08-.762c.408-.01.83-.014,1.257-.014,3.42,0,7.042.309,10.544.607h0c2.6.221,5.286.45,7.871.552l.5,0a41.124,41.124,0,0,1,8.489.768,21.5,21.5,0,0,1,6.819,2.6,18.121,18.121,0,0,1,2.832,2.121,19.821,19.821,0,0,1,2.474,2.744,25.1,25.1,0,0,1,2.135,3.421,35.166,35.166,0,0,1,1.816,4.153c1.325,3.858,2.6,7.886,3.8,11.971,1.14,3.9,2.243,7.974,3.278,12.118,1.915,7.67,3.641,15.705,5.278,24.565,2.956,16,5.119,31.973,7.44,49.694.552,3.882,1.024,7.85,1.445,12.132.375,3.815.7,7.794.992,12.165.544,8.118.893,16.386,1.23,24.381.354,8.4.721,17.089,1.314,25.616.32,4.589.678,8.768,1.095,12.773.468,4.5,1,8.661,1.62,12.733,6.027-.388,12.569-1.229,19.5-2.118h0c5.227-.671,10.633-1.366,16.05-1.89,6.122-.593,11.416-.881,16.185-.881,3.407,0,6.651.15,9.641.445a69.14,69.14,0,0,1,9.2,1.51,51.107,51.107,0,0,1,8.576,2.834,43.105,43.105,0,0,1,4,2,40.134,40.134,0,0,1,3.769,2.424,28.152,28.152,0,0,1,7.092,10.406,31.537,31.537,0,0,1,2.056,11.955,45.45,45.45,0,0,1-4.845,19.089,53.021,53.021,0,0,1-5.234,8.541,48.031,48.031,0,0,1-6.559,7.139,63.038,63.038,0,0,1-5.805,4.818c-2.059,1.52-4.337,3.031-6.768,4.493-2.353,1.414-4.914,2.819-7.611,4.177-2.606,1.311-5.41,2.613-8.335,3.87-5.536,2.379-11.714,4.687-18.363,6.859-6.128,2-12.8,3.936-19.824,5.747-12.219,3.15-25.746,6-40.2,8.461-6.029,1.028-12.242,1.991-18.467,2.865-5.388.756-10.806,1.448-16.1,2.055,1.23.888,2.355,1.671,3.438,2.395a12.651,12.651,0,0,1,5.031-1.361,4.523,4.523,0,0,1,1.357.189,2.759,2.759,0,0,1,.947.5,2.177,2.177,0,0,1,.787,1.572,2.735,2.735,0,0,1-.575,1.816,2.619,2.619,0,0,1-1.756,1c2,1.425,5.046,3.177,8.571,5.2,6.131,3.527,13.76,7.916,19.361,12.637a38.9,38.9,0,0,1,3.779,3.6,20.755,20.755,0,0,1,2.723,3.7,11.1,11.1,0,0,1,1.353,3.754,7.941,7.941,0,0,1-.333,3.768,6.347,6.347,0,0,1,.257,5.75,8.87,8.87,0,0,1-1.83,2.558,14.913,14.913,0,0,1-2.685,2.094,22.549,22.549,0,0,1-6.251,2.628,64.271,64.271,0,0,1-10.471,2.674A65.288,65.288,0,0,1,182.055,395.629ZM116.969,357.3a8.868,8.868,0,0,0-.043,2.451,8.589,8.589,0,0,0,.589,2.212,10.3,10.3,0,0,0,1.109,1.992,14.048,14.048,0,0,0,1.516,1.789,35.592,35.592,0,0,0,7.888,5.48c4.621,2.885,8.832,5.336,12.874,7.492,2.3,1.225,4.572,2.371,6.766,3.406,2.35,1.11,4.686,2.13,6.942,3.033,2.4.959,4.78,1.817,7.087,2.55,2.433.773,4.855,1.432,7.2,1.958a72.443,72.443,0,0,0,7.281,1.255,62.484,62.484,0,0,0,7.33.443h0c1.851,0,3.7-.089,5.5-.266a53.478,53.478,0,0,0,5.5-.829,52.3,52.3,0,0,0,5.481-1.438,53.048,53.048,0,0,0,5.451-2.094l.056-.023a16.481,16.481,0,0,0,2.761-1.38,4.543,4.543,0,0,0,1.908-2.3,63.853,63.853,0,0,1-12.193,3.611,67.759,67.759,0,0,1-12.727,1.2,67.049,67.049,0,0,1-12.721-1.211c-.555-.141-1.179-.259-1.839-.383h0a18.979,18.979,0,0,1-3.99-1.055,4.2,4.2,0,0,1-2.581-2.612c-3.929-1.747-7.92-3.506-11.78-5.207-6.251-2.754-12.714-5.6-19.051-8.463C127.132,366.116,120.811,362.912,116.969,357.3Zm2.463-16.59a15.746,15.746,0,0,0-1.179,2.7,12.1,12.1,0,0,0-.54,2.548,10.584,10.584,0,0,0,.59,4.66,13,13,0,0,0,1.472,2.85,18.254,18.254,0,0,0,2.16,2.6,31.772,31.772,0,0,0,5.763,4.467,61.317,61.317,0,0,0,6.658,3.545c2.37,1.1,4.62,2.01,6.315,2.681,5.535,2.423,11.492,5.043,17.253,7.576l8.34,3.666.356.161.049.022h0c1.189.539,2.419,1.1,3.658,1.558a19.275,19.275,0,0,0,3.838,1.038,54.439,54.439,0,0,0,11.03,1.094,68.329,68.329,0,0,0,12.163-1.14c2.272-.413,4.57-.935,7.026-1.6.265-.072.559-.139.87-.21h0a15.137,15.137,0,0,0,1.927-.531,3.392,3.392,0,0,0,1.52-.987,4.289,4.289,0,0,0-.13-2.528,9.726,9.726,0,0,0-1.547-2.75,23.667,23.667,0,0,0-2.706-2.908c-1.017-.943-2.231-1.953-3.607-3-2.359-1.8-5.264-3.769-8.881-6.025-3.158-1.97-6.464-3.91-9.38-5.622h0c-4.8-2.817-8.945-5.251-10.945-6.913-.491.114-.917.22-1.3.323a55.5,55.5,0,0,0-8.2,2.974.252.252,0,0,1-.1.023.2.2,0,0,1-.184-.115.213.213,0,0,1,.035-.229,28.368,28.368,0,0,1,6.2-5.547,66.487,66.487,0,0,1-6.929-5.994,33.412,33.412,0,0,0-4.282,1.424c-1.283.52-2.63,1.145-4.119,1.911-.273,0-.413-.084-.418-.248-.007-.254.3-.7.926-1.314a24.74,24.74,0,0,1,2.113-1.826,17.071,17.071,0,0,1,3.545-2.344,45.37,45.37,0,0,1-3.976-5.385l0-.005c-.516-.777-1.05-1.581-1.6-2.359a2.4,2.4,0,0,1-.281.666,3.944,3.944,0,0,0-2.691-.988,6.173,6.173,0,0,0-3.385,1.111,7.39,7.39,0,0,0-3.615,2.76,24.42,24.42,0,0,0-2.278,4.045c-.257.532-.5,1.035-.754,1.524a18.81,18.81,0,0,1-2.108,3.569,13.172,13.172,0,0,1-2.513,2.539,10.158,10.158,0,0,1-2.821,1.517,9.32,9.32,0,0,1-3.03.5,11.193,11.193,0,0,1-5.223-1.376,18.316,18.316,0,0,1-5.079-4.1ZM78.694,312.682a101.236,101.236,0,0,0-15.327,1.113,64.019,64.019,0,0,0-14.8,3.969,40.184,40.184,0,0,0-6.429,3.351,29.584,29.584,0,0,0-5.366,4.421,24.3,24.3,0,0,0-3.993,5.608,24.646,24.646,0,0,0-2.309,6.914,17.19,17.19,0,0,0,.045,3.122,15.724,15.724,0,0,0,.65,3.131,12.582,12.582,0,0,0,1.327,2.884,9.982,9.982,0,0,0,2.075,2.38,6.008,6.008,0,0,0,4,1.448c2.158,0,4.4-.956,6.57-1.88a33.131,33.131,0,0,1,3.293-1.273c3.066-1.067,6.247-2.017,9.456-2.824,3.143-.79,6.392-1.464,9.657-2-.055-2.267-.117-4.836-.307-7.349a48.147,48.147,0,0,0-1.044-7.245c.237-.469.51-.707.809-.707a1.1,1.1,0,0,1,.74.412c1.238,1.289,2.534,5.271,3.2,7.529.421,1.435.818,2.961,1.119,4.3a14.749,14.749,0,0,1,.414,2.362c.9-.111,1.8-.213,2.686-.3-.1-2.993-.122-5.287-.07-7.435a64.465,64.465,0,0,1,.567-7.406.191.191,0,0,1,.19-.174.179.179,0,0,1,.171.127,65.33,65.33,0,0,1,2.41,7.575,10.861,10.861,0,0,1,.56,2.376,10.363,10.363,0,0,0,.594,2.453,3.474,3.474,0,0,0,.642,1,3.147,3.147,0,0,0,1.057.74,25.1,25.1,0,0,0,5.076,1.321c1.044.2,2.122.4,3.162.677a8.4,8.4,0,0,0,1.575-.214.686.686,0,0,0,.556-.716A.8.8,0,0,0,91,341.59a4.567,4.567,0,0,0,.163-.533l.206-.013h.025l.2-.013a6.275,6.275,0,0,1-.083-2.32,20.59,20.59,0,0,1,.5-2.346,10.932,10.932,0,0,0,.494-4.483,12.323,12.323,0,0,0-1.161-4.818,13.666,13.666,0,0,0-2.829-3.967,15.4,15.4,0,0,0-4.043-2.849,15.727,15.727,0,0,0-4.8-1.464.308.308,0,0,1-.244-.316.322.322,0,0,1,.244-.333,9.81,9.81,0,0,1,2.033-.21,13.054,13.054,0,0,1,6.336,1.8,16.8,16.8,0,0,1,2.737,1.931,15.994,15.994,0,0,1,2.217,2.337,16.163,16.163,0,0,1,1.384,2.136c-2.079-4.616-3.963-8.873-5.76-13.013C85.373,312.827,82.036,312.682,78.694,312.682Zm2-6.54h-.005c-.482,0-.938.009-1.376.043A126.229,126.229,0,0,0,63.041,308.3c-1.169.286-2.374.573-3.54.851h0a149.476,149.476,0,0,0-15.912,4.422,55.96,55.96,0,0,0-7.49,3.277c-1.22.652-2.39,1.35-3.477,2.075a35.982,35.982,0,0,0-3.241,2.43,13.484,13.484,0,0,0-2.467,3.481,19.062,19.062,0,0,0-1.471,4.12,29.546,29.546,0,0,0-.641,8.639A16.953,16.953,0,0,0,26.35,343.6a19.843,19.843,0,0,0,3.46,5.094,30.059,30.059,0,0,1-1.913-6.123,22.009,22.009,0,0,1-.372-5.554,19.023,19.023,0,0,1,1.007-5,19.976,19.976,0,0,1,2.222-4.459,28.939,28.939,0,0,1,8.7-8.2,54.742,54.742,0,0,1,12.218-5.65,84.277,84.277,0,0,1,13.815-3.267c2.289-.349,4.613-.616,6.907-.792,2.237-.172,4.453-.259,6.587-.259a64.017,64.017,0,0,1,8.235.493c-.8-1.868-1.469-3.423-2.134-5a3.429,3.429,0,0,1-1.984,1.081,12.577,12.577,0,0,1-2.4.173Zm58.1,13.5a23.192,23.192,0,0,1-3.928,3.036,37.419,37.419,0,0,1-4.6,2.411,106.993,106.993,0,0,1-10.068,3.692l-.006,0c-2.107.694-4.1,1.349-5.975,2.057.62.654,1.253,1.331,1.812,1.928a78.825,78.825,0,0,0,6.887,6.818,16.81,16.81,0,0,0,3.218,2.155,7,7,0,0,0,3.092.8,5.2,5.2,0,0,0,2.332-.557,7.892,7.892,0,0,0,2.275-1.792,17.113,17.113,0,0,0,2.227-3.211,38.261,38.261,0,0,0,2.188-4.811,15.859,15.859,0,0,1,1.987-2.825,12.961,12.961,0,0,1,2.6-2.271,33.244,33.244,0,0,1-4.035-7.437ZM96.4,332.918h0a18.142,18.142,0,0,1-.316,5.608,1.849,1.849,0,0,1,.991.778,2.016,2.016,0,0,1,.308,1.227c.539-.061,1.249-.142,1.971-.234,2.212-.276,4.456-.6,6.627-.913h.006c3.637-.526,7.4-1.069,11.119-1.4a48.566,48.566,0,0,1-4.215-6.724c-3.2,1.01-6.432,1.956-9.594,2.814a11.163,11.163,0,0,1-3.718.793A3.065,3.065,0,0,1,96.4,332.918Zm-1-4.494h0a17.793,17.793,0,0,1,.951,4.045,2.062,2.062,0,0,1,.293-.892v0c.033-.066.065-.128.095-.191l-.446-.987-.151-.333Zm-31.8-105.8c.735,3.184,1.552,6.58,2.57,10.686,1.456,5.875,3.053,11.932,4.745,18,1.621,5.815,3.382,11.827,5.233,17.87,1.6,5.235,3.457,10.5,5.508,15.645.518,3.123,1.178,6.449,1.961,9.886.52,2.286.955,4.19,1.428,6.155.124.518.228,1.061.337,1.636v0a14.432,14.432,0,0,0,1.191,4.094.943.943,0,0,0,.858.521,1.209,1.209,0,0,0,.94-.463.985.985,0,0,0,.171-.874c-.47-1.751-.936-3.535-1.386-5.259-.966-3.7-1.965-7.531-3.07-11.262a.448.448,0,0,0,.246-.556c-1.994-7.7-4.348-15.43-6.624-22.906l0-.005c-1.276-4.191-2.6-8.524-3.84-12.812-3.175-10.942-6-21.725-8.343-30.83a4.809,4.809,0,0,0,.449-.257.622.622,0,0,0,.269-.7.6.6,0,0,0-.583-.439c-.159,0-.326-.009-.5-.016-.338-1.316-.578-2.252-.832-3.245-.379-1.482-.755-2.992-1.119-4.452l0-.008c-.467-1.874-.95-3.811-1.444-5.713-.3-1.149-.583-2.327-.858-3.466l0-.009v0c-.531-2.2-1.081-4.482-1.765-6.672a.243.243,0,0,0-.24-.161.236.236,0,0,0-.177.071.19.19,0,0,0-.045.152,149.805,149.805,0,0,0,2.733,15.389l.006.027c.177.829.36,1.686.537,2.525.353,1.678.739,3.438,1.178,5.383a14.211,14.211,0,0,1-1.734-.351c-.441-.12-.883-.255-1.312-.386h0a23.721,23.721,0,0,0-2.542-.673,9.817,9.817,0,0,0-1.784-.178,6.079,6.079,0,0,0-2.04.325,4.69,4.69,0,0,0-1.778,1.13.165.165,0,0,0-.035.184.18.18,0,0,0,.16.114.171.171,0,0,0,.089-.026,4.548,4.548,0,0,1,2.4-.663,11.951,11.951,0,0,1,4.505,1.294l.02.009a11.89,11.89,0,0,0,4.448,1.286H63.6Zm74.2,41.059a.1.1,0,0,0-.107.1,36.129,36.129,0,0,0,.708,7.13c.106.639.216,1.3.311,1.935.535,3.56,1.037,6.472,1.581,9.163q.116.576.232,1.154l.027.133c1.138,5.665,2.315,11.524,4.439,16.924a.526.526,0,0,0,.9.172.515.515,0,0,0,.1-.442c-.655-3.489-1.571-6.992-2.457-10.381v0c-.656-2.509-1.334-5.1-1.9-7.672-.656-2.971-1.294-5.883-1.88-8.837-.2-1.012-.37-2.067-.533-3.088a42.1,42.1,0,0,0-1.316-6.215A.1.1,0,0,0,137.8,263.682Zm80.134.976a.962.962,0,0,0-.172.016c-10.152,1.855-20.17,4.218-29.484,6.495l-.379.093h0c-9.454,2.312-19.231,4.7-28.769,7.323a73.6,73.6,0,0,0-7.886,2.511c-1.039.416-2.256.922-3.409,1.51l-.3.153-.021.01a4.992,4.992,0,0,0-2.364,1.839.08.08,0,0,0,0,.078.089.089,0,0,0,.072.044c.067,0,.135.007.2.007a5.428,5.428,0,0,0,2.137-.6l.01,0c.184-.08.375-.163.565-.239,1.047-.419,2.173-.858,3.306-1.233,2.082-.69,4.31-1.332,6.81-1.962,3.251-.819,6.567-1.618,9.773-2.391l.02,0,.034-.008c1.537-.37,3.126-.753,4.688-1.133,9.76-2.376,19.74-4.706,29.126-6.887,4.971-1.156,10.3-2.492,16.3-4.085a.768.768,0,0,0,.467-.319.723.723,0,0,0,.1-.481A.826.826,0,0,0,217.939,264.658ZM132.7,222.083h0a1.892,1.892,0,0,1,1.345.541,1.381,1.381,0,0,1,.392,1.033c-.138,3.717-.294,7.471-.444,11.1l0,.081c-.076,1.837-.155,3.737-.23,5.6-.022.541-.064,1.122-.109,1.737-.237,3.278-.532,7.356,1.9,9.6,2.025-1.923,2.14-4.827,2.251-7.635v0a27.134,27.134,0,0,1,.252-3.224q.718-8.191,1.437-16.388a1.6,1.6,0,0,1,.6-1.149A1.846,1.846,0,0,1,141.23,223a1.571,1.571,0,0,1,1.143.451,1.422,1.422,0,0,1,.362,1.085c-.145,4.088-.121,7.722.071,11.11a66.537,66.537,0,0,0,1.413,10.781c.1.53.2,1.044.284,1.433.074-.088.135-.164.2-.244a2.63,2.63,0,0,1-.409-1.162,1.677,1.677,0,0,0,1.261-.671,5.1,5.1,0,0,0,.91-2.293,7.854,7.854,0,0,0,.054-2.416c.126-1.57.169-3.178.211-4.734.021-.761.042-1.547.072-2.313.139-3.481.209-6.341.223-9,.017-3.263-.054-6.208-.216-9a83.853,83.853,0,0,0-2.778-17.756,59.086,59.086,0,0,0-2.074-6.336,52.6,52.6,0,0,0-2.6-5.624,53.674,53.674,0,0,0-6.653-9.629c-1.221-1.423-2.525-2.818-3.989-4.265-1.331-1.316-2.767-2.648-4.389-4.072-3.133-2.75-6.584-5.5-9.85-8.083-3.62-3.026-7.377-6.045-11.488-9.23-3.662-2.838-7.52-5.742-11.793-8.877-7.939-5.825-16.121-11.568-24.033-17.122l-.017-.012c-3.8-2.671-7.738-5.432-11.579-8.157a1.861,1.861,0,0,1-.372.039,1.489,1.489,0,0,1-1.142-.516,1.868,1.868,0,0,1-.4-1.5c.507-2.381,2.628-4.6,4.679-6.746a31.849,31.849,0,0,0,2.959-3.384,3.267,3.267,0,0,1-.737.084,7.485,7.485,0,0,1-3.781-1.551c-.384-.244-.746-.474-1.109-.677-1.616-.906-3.283-1.8-4.955-2.649-2.207-1.151-4.53-2.277-6.9-3.346-2.26-1.018-4.64-2.018-7.073-2.972-4.487-1.76-9.232-3.4-14.506-5.022-3.182,8.183-6.089,16.611-8.9,24.762l0,0c-1.251,3.626-2.544,7.376-3.844,11.055-.306.808-.579,1.66-.843,2.485a20.14,20.14,0,0,1-2.708,6.066c-.514,4.933,2.461,9.284,5.048,12.066a27.891,27.891,0,0,0,8.913,5.886,76.477,76.477,0,0,0,10.243,3.425c15.594,4.243,33.717,9.181,51.456,14.1,2.281.648,4.609,1.271,6.862,1.874l.006,0h0c4.125,1.1,8.391,2.245,12.521,3.58.613.2,1.274.362,1.913.524,2.415.611,4.912,1.243,6.086,3.553.016-.042.044-.122.083-.234l0-.006c.172-.491.575-1.639,1.011-2.643.542-1.248.961-1.881,1.246-1.881.144,0,.255.165.329.489a22.36,22.36,0,0,0-1.285,7.759,49.193,49.193,0,0,0,.688,7.9c.1.662.21,1.355.306,1.966a118.372,118.372,0,0,1,1.46,12.012c-.139,4.875-.57,9.825-.987,14.613v0c-.411,4.719-.836,9.6-.981,14.4-.078,2.587-.07,4.947.023,7.214.1,2.544.313,4.908.638,7.227a9.383,9.383,0,0,0,2.339-2.409,12.764,12.764,0,0,0,1.463-2.975,37.469,37.469,0,0,0,1.448-6.775,47.848,47.848,0,0,1,.873-4.743c.587-2.968,1.267-6.119,2.139-9.915a1.612,1.612,0,0,1,.673-1,1.982,1.982,0,0,1,1.115-.321,2.093,2.093,0,0,1,1.52.614,1.545,1.545,0,0,1,.405,1.2c-.328,4.45-.429,8.981-.527,13.362-.015.675-.032,1.44-.05,2.172a27.457,27.457,0,0,1-.094,3.635c-.2,3.259-.455,7.316.906,8.244a1.76,1.76,0,0,0,.736.179,1.636,1.636,0,0,0,1.275-.718,6.163,6.163,0,0,0,.9-1.8,31.919,31.919,0,0,0,1.063-4.708,19.28,19.28,0,0,1,.464-2.256c1.1-5.092,2.13-10.266,3.069-15.376A1.4,1.4,0,0,1,132.7,222.083Zm-6.348-56.757a1.8,1.8,0,0,1,1.2.479,56.852,56.852,0,0,1,7.634,7.639,58.288,58.288,0,0,1,5.865,8.6,65.461,65.461,0,0,1,4.286,9.375,78.259,78.259,0,0,1,2.895,9.957,96.834,96.834,0,0,1,1.692,10.349c.369,3.356.6,6.906.678,10.552.075,3.37.025,6.924-.147,10.563-.157,3.313-.42,6.807-.784,10.385a52.645,52.645,0,0,0,8.078.686h0a32.784,32.784,0,0,0,5.2-.39,22.181,22.181,0,0,0,4.4-1.158,16.254,16.254,0,0,0,3.6-1.909,14,14,0,0,0,2.8-2.642c3.928-4.9,4.735-12.669,2.4-23.106-.338-2.36-.571-4.776-.713-7.385-.127-2.323-.177-4.747-.155-7.411.041-4.945.335-9.969.619-14.828l0-.066q.054-.925.108-1.85c.694-11.2,1.315-22.587,1.915-33.6.929-17.038,1.889-34.655,3.143-51.965.239-3.407.642-6.857,1.233-10.545.528-3.3,1.194-6.7,2.037-10.418a.25.25,0,0,1,.266-.226.345.345,0,0,1,.356.308c.426,3.662.71,7.012.868,10.24.178,3.61.195,6.972.052,10.277a41.685,41.685,0,0,1,5.293-4.285,48.812,48.812,0,0,1,6.184-3.606A40.611,40.611,0,0,1,210.7,85.3c-.931-3.98-1.759-8.942-2.635-14.2a244.026,244.026,0,0,0-4.851-24.043c-.55-1.993-1.132-3.868-1.73-5.572-.644-1.837-1.331-3.544-2.04-5.073a36.462,36.462,0,0,0-2.4-4.412,23.176,23.176,0,0,0-2.816-3.59c-2.834-2.517-6.657-3.272-10.018-3.781-6.506-.987-13.112-2.045-19.5-3.067l-2.766-.443a2.264,2.264,0,0,1,.744.733,2.4,2.4,0,0,1,.349,1.112c.5,5.332.636,13.2-1.6,20.4a30.607,30.607,0,0,1-1.888,4.711,24.389,24.389,0,0,1-2.682,4.21,20.892,20.892,0,0,1-8.149,6.225,37.916,37.916,0,0,1-6.884,1.864,42.268,42.268,0,0,1-7.206.612,45.24,45.24,0,0,1-10.417-1.224,44.144,44.144,0,0,1-9.828-3.586,38.809,38.809,0,0,1-8.5-5.816,33.012,33.012,0,0,1-6.434-7.913,42.7,42.7,0,0,1-2.2-5.26,45.89,45.89,0,0,0-1.992-4.856c-.154.024-.309.038-.458.052l-.02,0c-.157-.388-.3-.786-.442-1.17-.2-.536-.4-1.089-.633-1.625a.691.691,0,0,0-.055-.675.949.949,0,0,0-.781-.4.976.976,0,0,0-.581.195,2.48,2.48,0,0,1,.248-.261c-.021-.022-.043-.043-.064-.064h0l-.027-.026A83.661,83.661,0,0,0,72.673,33.64,85.364,85.364,0,0,0,54.9,43.413,83.988,83.988,0,0,0,40,57.063a80.091,80.091,0,0,0-11.13,16.921,138.619,138.619,0,0,0-6.236,13.571c2.527.4,5.112.9,7.683,1.5,2.482.575,5.024,1.251,7.556,2.01A146.913,146.913,0,0,1,52.56,96.372a27.061,27.061,0,0,0,2.883,1.273h0a35.857,35.857,0,0,1,4.982,2.3c1.686,1.024,2.455,2.015,2.351,3.028,2.515-2.892,5.1-6.183,7.892-10.061,2.49-3.454,4.913-7.041,7.256-10.51v0l.624-.923a.4.4,0,0,1,.133-.027.161.161,0,0,1,.147.079c.182.3-.189,1.461-1.1,3.456-.767,1.674-1.762,3.6-2.421,4.878-.375.727-.646,1.253-.727,1.441a144.435,144.435,0,0,1-7.448,12.779c-1.418,2.142-2.874,4.166-4.326,6.015a72.413,72.413,0,0,1-4.849,5.58,17.512,17.512,0,0,0,3.146,2.06c2.456,1.4,5.24,2.992,5.142,4.713,5.129,3.125,10.324,6.453,15.44,9.892,4.969,3.34,10.012,6.884,14.988,10.533,4.82,3.534,9.718,7.271,14.558,11.105,4.675,3.7,9.436,7.61,14.15,11.61A1.922,1.922,0,0,1,126.347,165.326Zm58.28-41.853h0c-.806,14.022-1.586,28.235-2.34,41.98l-.008.15c-.325,5.925-.661,12.051-.995,18.075a190.564,190.564,0,0,0-.621,19.406c.079,3.321.27,6.576.569,9.673.318,3.292.769,6.531,1.341,9.628a30.146,30.146,0,0,1-.4,8.814,26.93,26.93,0,0,1-3.1,8.276,29.919,29.919,0,0,0,9.974,1.514c1.741,0,3.64-.1,5.806-.316,1.885-.185,3.713-.424,5.735-.695a14.252,14.252,0,0,1-1.377-5.918v0c-.045-.514-.091-1.045-.15-1.561-1.45-12.938-3.2-27.067-5.339-43.2-1.911-14.383-3.954-28.993-5.929-43.122-1.04-7.436-2.115-15.125-3.16-22.708Zm27.057-32.7h0A76.642,76.642,0,0,0,198.247,94.4a68.176,68.176,0,0,0-12.457,6.117c-.124,3.849-.314,8-.6,13.078,1.619,7.238,3.007,14.367,4.4,21.641,2.652,14.154,5.13,29.043,7.578,45.516,2.017,13.573,4,28.1,6.234,45.716.09,1.5.334,3.036.57,4.524v0c.219,1.381.446,2.809.55,4.209a16.315,16.315,0,0,1-.164,4.175c5.862-1.079,13.6-2.43,21.483-3.312-.618-4.094-1.135-8.28-1.581-12.8-.4-4.026-.728-8.226-1.012-12.842-.527-8.573-.807-17.31-1.077-25.76v0c-.275-8.615-.56-17.523-1.108-26.268-.295-4.707-.64-8.992-1.056-13.1-.467-4.611-1.009-8.882-1.659-13.057-1.719-13.914-4.236-27.918-6.67-41.461ZM23.913,157.118c-1.64,9.686-3.8,19.448-5.893,28.888l0,.008c-1.338,6.043-2.723,12.291-3.957,18.461-1.384,6.923-2.429,13.011-3.193,18.612-.8,4.986-1.478,9.555-2.086,13.968,2.254-6.459,4.692-12.925,7.247-19.218,2.573-6.339,5.335-12.675,8.209-18.832,2.895-6.2,5.981-12.392,9.172-18.393,3.217-6.05,6.628-12.073,10.137-17.9-2.4-.7-4.862-1.364-7.238-2.009C32.226,159.594,28,158.447,23.913,157.118ZM155.481,22.435c.3.579.6,1.13.9,1.638.238.4.528.815.809,1.212a11.078,11.078,0,0,1,1.217,2c-.006-.536-.021-1.078-.035-1.6v0c-.026-.99-.053-2.014-.026-3.015a22.235,22.235,0,0,0-2.823-.228Z" transform="translate(25.077 -13.521)"/>
    </g>
    <g id="Head" transform="translate(86.512 45.072)">
      <g id="HEAD-2" data-name="HEAD">
        <path id="_Skin-2" data-name="âœ‹ Skin" d="M46.45,0C60.659,0,79,8.919,80.563,18.053c1.843,10.765,11.712,52.07,9.484,65.316s-14.238,22.781-33.455,22.781S23.03,95.664,19.737,92.063s-9.4-16.457-9.4-16.457S.051,74.237,0,65.844A12.512,12.512,0,0,1,6.692,54.4s-2.4-33.123,3.648-41.746S32.242,0,46.45,0Z" transform="translate(14.115 18.845)" fill="#d08b5b"/>
        <path id="_Ink-2" data-name="ðŸ– Ink" d="M58.268,115.454c-.944,0-1.893-.033-2.821-.1a41.817,41.817,0,0,1-5.76-.811l-.209-.045a11.143,11.143,0,0,1-2.645-.832,4.548,4.548,0,0,1-1.973-1.871,1.209,1.209,0,0,1-.071-.936.848.848,0,0,1,.454-.526,5.337,5.337,0,0,1,2.213-.532,5.683,5.683,0,0,1,.645.039,17.07,17.07,0,0,1,1.949.378c.384.09.782.183,1.174.258a36.893,36.893,0,0,0,6.036.614c.294.006.592.01.885.01a36.463,36.463,0,0,0,10.878-1.607,39.612,39.612,0,0,0,4.872-1.881,35.346,35.346,0,0,0,4.637-2.586,25.908,25.908,0,0,0,7.473-7.316,16.584,16.584,0,0,0,1.318-2.443,17.511,17.511,0,0,0,.877-2.541,22.327,22.327,0,0,0,.686-5.291,61.637,61.637,0,0,0-1.1-10.841l0-.01c-.088-.548-.18-1.114-.266-1.666l-.036-.23c-1.418-9.13-2.546-16.524-3.551-23.267l-.493-3.326c-.261-1.768-.518-3.431-.767-5.04v0a157.6,157.6,0,0,1-2.122-18.894.146.146,0,0,1,.038-.111.175.175,0,0,1,.285.066c1.541,5.095,2.773,9.58,3.876,14.114,1.056,4.341,2.031,8.887,3.068,14.306l.587,3.056.251,1.3c1.463,7.6,2.976,15.449,4.244,23.2l.079.489a52.48,52.48,0,0,1,.675,6.382,27.567,27.567,0,0,1-.459,6.388,19.417,19.417,0,0,1-2.109,5.658,23.506,23.506,0,0,1-3.611,4.854,34.843,34.843,0,0,1-9.4,6.849,42.6,42.6,0,0,1-5.4,2.281,46.016,46.016,0,0,1-5.608,1.539A43.354,43.354,0,0,1,58.268,115.454ZM26.337,104.38a3.719,3.719,0,0,1-1.509-.347,7.757,7.757,0,0,1-1.363-.8l-.07-.05a32.287,32.287,0,0,1-5.885-5.354,29.352,29.352,0,0,1-4.182-6.51,31.2,31.2,0,0,1-2.363-7.359,2.684,2.684,0,0,1-1.149,1.31,3.7,3.7,0,0,1-1.834.433,6.513,6.513,0,0,1-1.1-.1,6.815,6.815,0,0,1-2.7-1.094,7.85,7.85,0,0,1-2.061-2.061A12.927,12.927,0,0,1,.271,76.731a22.7,22.7,0,0,1-.127-5.992,12.753,12.753,0,0,1,1.221-4.126,8.146,8.146,0,0,1,2.7-3.153,20.949,20.949,0,0,1-1.671-6.005,38.28,38.28,0,0,1-.263-6.277A112.12,112.12,0,0,1,3.406,38.908c.148-1.047.3-2.128.443-3.186l1.942-14.5.08-.585c.21-1.529.476-3.331.855-5.1a30.8,30.8,0,0,1,1.46-4.953A19.78,19.78,0,0,1,10.6,6.141,14.346,14.346,0,0,1,14.239,2.65a13.824,13.824,0,0,1,2.508-1.3,17.28,17.28,0,0,1,2.7-.813A26.428,26.428,0,0,1,25.081,0h.3l.479.006c3.276.05,15.61.334,25.521.563C56.3.683,60.951.79,63.7.851l1.966.041c1.324.025,3.366.051,5.34.076,1.908.024,3.882.049,5.212.074l.156,0,1.246.021h.006c.894.014,1.818.028,2.727.057l.194.007a3.744,3.744,0,0,1,2.6.892,1.708,1.708,0,0,1,.514,1.413L83.65,3.5l1.969.173a1.839,1.839,0,0,1,1.459.858,1.822,1.822,0,0,1,.054,1.675l-.027.059a37.451,37.451,0,0,0-1.615,7.056c-.21,1.227-.392,2.286-.554,2.983a28.679,28.679,0,0,0-.6,3.461c-.015.137-.028.277-.041.412a4.789,4.789,0,0,1-.58,2.23,2.56,2.56,0,0,1-.99.9,2.735,2.735,0,0,1-1.251.31,2.029,2.029,0,0,1-1.35-.47,1.947,1.947,0,0,1-.615-1.467,1.656,1.656,0,0,1,.007-.225c-3.37-.148-7.3-.226-11.355-.226-5.289,0-10.464.135-14.571.381a145.216,145.216,0,0,0-21.39,2.9c-1.787.379-3.581.8-5.33,1.239-.357.09-.727.17-1.119.254a11.188,11.188,0,0,0-3.4,1.113,2.607,2.607,0,0,0-1.236,1.749,7.035,7.035,0,0,0-.03,2.217c.092.869.218,1.021.378,1.214a2.259,2.259,0,0,1,.473,1.013l.025.092a28.405,28.405,0,0,0,1.6,4.62c.082.179.175.36.266.535a2.994,2.994,0,0,1,.5,2.1,3.518,3.518,0,0,1-.963,1.517,5.45,5.45,0,0,1-2.893,1.19,8.037,8.037,0,0,0-1.831.512,2.806,2.806,0,0,0-1.381,1.313,11.966,11.966,0,0,0-1.115,3.89c-.19,1.387-.244,2.845-.292,4.131q-.011.307-.023.606l-.007.162a53.025,53.025,0,0,0,.068,5.7c.028.433.079.872.128,1.3a16.911,16.911,0,0,1,.149,1.917,5.55,5.55,0,0,1-.295,1.885,1.545,1.545,0,0,1-.544.749,1.336,1.336,0,0,1-.782.25,1.565,1.565,0,0,1-1.246-.66c-.079-.105-.156-.218-.234-.344l-.071-.116,0,0c.065.1.13.213.2.338a.129.129,0,0,1,0,.13.137.137,0,0,1-.113.068.116.116,0,0,1-.086-.04,4,4,0,0,0-1.383-.992,3.939,3.939,0,0,0-1.548-.306,5.179,5.179,0,0,0-1.688.3,6.928,6.928,0,0,0-1.6.808,6,6,0,0,0-2.141,2.735,10.2,10.2,0,0,0-.729,3.443,23.261,23.261,0,0,0,.144,4,13.655,13.655,0,0,0,1.022,3.854,5.5,5.5,0,0,0,.839,1.371,3.1,3.1,0,0,0,1.3.911,3.638,3.638,0,0,0,1.08.166c.114.006.232.012.352.022a4.752,4.752,0,0,1,.7.13,3.9,3.9,0,0,0,.851.139c.033,0,.065,0,.1,0l.058,0a1.033,1.033,0,0,1,.806.441,1.021,1.021,0,0,1,.191.887l-.014.041c-.009.027-.019.056-.03.088a.264.264,0,0,1,.067.09A38.9,38.9,0,0,0,14.672,88.8a57.326,57.326,0,0,0,4.064,5.025,41.776,41.776,0,0,0,4.719,4.445,21.872,21.872,0,0,0,2.615,1.891,3.854,3.854,0,0,0,.929.4c.069.019.143.035.215.05a2.459,2.459,0,0,1,.283.07l.161.055.006,0,.026.008A1.177,1.177,0,0,1,28.3,101a1.225,1.225,0,0,1,.385.578,2.016,2.016,0,0,1-.123,1.606,2.289,2.289,0,0,1-1.439,1.086A2.937,2.937,0,0,1,26.337,104.38ZM12.526,77.168a1.844,1.844,0,0,1-1.072-.321A1.819,1.819,0,0,1,10.76,75.8l-.021-.083A5.417,5.417,0,0,0,9.05,73.006a5.5,5.5,0,0,0-2.884-1.384.248.248,0,0,1-.2-.2.159.159,0,0,1,.1-.176,6.037,6.037,0,0,1,5.946.314,7.3,7.3,0,0,1,2.454,2.585,2.14,2.14,0,0,1,.306,1.038,1.69,1.69,0,0,1-.233.876,2.164,2.164,0,0,1-.858.806A2.488,2.488,0,0,1,12.526,77.168Z" transform="translate(13.261 11.268)"/>
      </g>
      <g id="FACE" transform="translate(39.871 46.574)">
        <path id="teeth" d="M3.083,1.919c4.2-2.811,25.46-2.261,27.422-.1s6.5,8.311-3.217,11.333S5.551,15.111,2.418,11.411l-.185-.221C-.728,7.591-1.033,4.673,3.083,1.919Z" transform="translate(21.437 50.76)" fill="#fff"/>
        <path id="_Ink-3" data-name="ðŸ– Ink" d="M22.17,53.612a33.24,33.24,0,0,1-9.814-1.356,17.489,17.489,0,0,1-3.918-1.739,9.86,9.86,0,0,1-2.794-2.484,7.483,7.483,0,0,1-.927-7,8.109,8.109,0,0,1,1.894-2.154,8.555,8.555,0,0,1,2.361-1.3,16.121,16.121,0,0,1,5.6-.805c1.422,0,2.887.1,4.18.179l.115.007c1.361.088,2.645.172,3.861.172.233,0,.46,0,.673-.009.3.022.625.032,1,.032,1.069,0,2.348-.087,3.7-.178l.316-.021c1.561-.105,3.087-.2,4.589-.2a20.426,20.426,0,0,1,4.017.334,9.546,9.546,0,0,1,1.717.505,5.81,5.81,0,0,1,1.414.809,10,10,0,0,1,2.152,4.215,5.616,5.616,0,0,1-.444,3.595,8.523,8.523,0,0,1-2.837,3.155,18.814,18.814,0,0,1-4.66,2.32A37.81,37.81,0,0,1,22.17,53.612Zm.378-5.972a2.962,2.962,0,0,0-1.467.454,2.443,2.443,0,0,0-.94.9,5.269,5.269,0,0,0-.18,2.065c0,.04,0,.078.006.1,1.056.106,2.137.16,3.213.16.712,0,1.437-.024,2.152-.07-.079-.262-.147-.538-.212-.8a5.735,5.735,0,0,0-.662-1.819,2.061,2.061,0,0,0-.674-.646,2.657,2.657,0,0,0-1.088-.334c-.048,0-.1-.006-.148-.006Zm6.23.431h0a2.428,2.428,0,0,0-.608.078A2.188,2.188,0,0,0,26.86,49.2a3.05,3.05,0,0,0-.41,1.7.336.336,0,0,1-.053.174l-.019.038a30.959,30.959,0,0,0,4.544-.888,2.656,2.656,0,0,0-.805-1.66,2,2,0,0,0-1.34-.487ZM15.552,46.68h0a2.49,2.49,0,0,0-.427.035,1.873,1.873,0,0,0-.958.52,2.578,2.578,0,0,0-.542.846,4.134,4.134,0,0,0-.3,1.424,28.932,28.932,0,0,0,4.554,1.235c.267.053.555.1.907.163l.02-.247a6.164,6.164,0,0,0-.028-1.2,3.445,3.445,0,0,0-.5-1.469,3.458,3.458,0,0,0-2.734-1.31Zm18.818-.066h0a2.648,2.648,0,0,0-1.116.257,3.02,3.02,0,0,0-.949.706,2.944,2.944,0,0,0-.749,2.307c.315-.1.631-.2.939-.311a20.463,20.463,0,0,0,3.954-1.745,2.453,2.453,0,0,0-2.078-1.215ZM21.058,38.951h0a16.894,16.894,0,0,0-3.047.251l-.044.482-.023.237c-.155,1.6-.3,3.108.535,3.748a3.81,3.81,0,0,0,2.072.4,11.41,11.41,0,0,0,2.6-.3c.049-.012.1-.078.155-.194a7.658,7.658,0,0,0,.407-2.167,5.2,5.2,0,0,0-.224-2.34c-.851-.077-1.668-.115-2.429-.115Zm5.854-.084a12.4,12.4,0,0,0-.305,2.514,2.257,2.257,0,0,0,.5,1.725,3.428,3.428,0,0,0,1.993.454,3.961,3.961,0,0,0,1.815-.33c.257-.169.409-.639.452-1.4a16.168,16.168,0,0,0-.118-2.538,24.132,24.132,0,0,0-4.334-.429Zm5.311.461h0l-.013.257c-.095,1.908.136,3.054.686,3.407a2.113,2.113,0,0,0,1.127.327,2.369,2.369,0,0,0,1.559-.625,5.141,5.141,0,0,0,1.367-2.249c-.131-.343-.748-.616-1.836-.811a24.379,24.379,0,0,0-2.488-.274c-.177-.013-.316-.023-.4-.031Zm-15.191-.11h0l-.725.007-.411.005a16.863,16.863,0,0,0-3.216.309,3.533,3.533,0,0,0-.366,1.514,2.12,2.12,0,0,0,.326,1.137,2.165,2.165,0,0,0,.875.767,2.641,2.641,0,0,0,1.159.264,2.463,2.463,0,0,0,1.937-.889,3.346,3.346,0,0,0,.46-2.946l-.039-.168Zm11.1-5.608h0a8.766,8.766,0,0,1-3.122-.628,15.772,15.772,0,0,1-3.671-2.08,1.408,1.408,0,0,1-.512-.814,1.683,1.683,0,0,1,.073-.914,2.078,2.078,0,0,1,.618-.892,1.506,1.506,0,0,1,.963-.375,1.368,1.368,0,0,1,.745.228l.251.193a19.874,19.874,0,0,0,2.3,1.6,5.667,5.667,0,0,0,2.754.877,2.978,2.978,0,0,0,1.164-.228,3.253,3.253,0,0,0,1.084-.767,3.315,3.315,0,0,0,.631-2.672,5.045,5.045,0,0,0-1.342-2.37,9.779,9.779,0,0,0-2.031-1.637.628.628,0,0,1-.17-.723.943.943,0,0,1,.313-.45.962.962,0,0,1,.6-.2,1.28,1.28,0,0,1,.215.019,6.816,6.816,0,0,1,2.395.864A5.429,5.429,0,0,1,33,24.124,5.885,5.885,0,0,1,34.03,28.06a6.477,6.477,0,0,1-.527,2.066A6.027,6.027,0,0,1,32.316,31.9,5.678,5.678,0,0,1,28.135,33.611ZM39.987,22.867a2.128,2.128,0,0,1-1.257-.43,3.682,3.682,0,0,1-1.014-1.175,7.53,7.53,0,0,1-.884-3.694,7.529,7.529,0,0,1,.884-3.694A3.682,3.682,0,0,1,38.73,12.7a2.054,2.054,0,0,1,2.515,0,3.682,3.682,0,0,1,1.014,1.175,7.529,7.529,0,0,1,.884,3.694,7.53,7.53,0,0,1-.884,3.694,3.682,3.682,0,0,1-1.014,1.175A2.126,2.126,0,0,1,39.987,22.867Zm-28.145,0a2.127,2.127,0,0,1-1.257-.43,3.686,3.686,0,0,1-1.014-1.175,7.532,7.532,0,0,1-.884-3.694,7.532,7.532,0,0,1,.884-3.694A3.686,3.686,0,0,1,10.585,12.7a2.054,2.054,0,0,1,2.515,0,3.682,3.682,0,0,1,1.014,1.175A7.529,7.529,0,0,1,15,17.568a7.53,7.53,0,0,1-.884,3.694A3.682,3.682,0,0,1,13.1,22.437,2.128,2.128,0,0,1,11.842,22.867ZM.33,9.3a.325.325,0,0,1-.271-.166.362.362,0,0,1-.022-.356A12.354,12.354,0,0,1,2.81,5.277,17.148,17.148,0,0,1,6.523,2.745,15.978,15.978,0,0,1,10.93,1.21l.471-.082.241-.041A10.619,10.619,0,0,1,13.325.919,2.975,2.975,0,0,1,15.7,1.8a2.012,2.012,0,0,1,.477,1.431,1.31,1.31,0,0,1-.477.935,3.661,3.661,0,0,1-2.507.734c-.2,0-.4-.005-.6-.01h-.007c-.191,0-.406-.01-.619-.01-.2,0-.372,0-.537.014A16.971,16.971,0,0,0,7.7,5.532,25.366,25.366,0,0,0,.5,9.248.31.31,0,0,1,.33,9.3Zm46.65-1.9h0l-.2-.05A11.236,11.236,0,0,1,44.6,6.511L43.9,6.163a19.655,19.655,0,0,0-2.524-1.074,29.824,29.824,0,0,0-5.75-1.268,2.351,2.351,0,0,1-1.153-.437,1.726,1.726,0,0,1-.645-.981,1.753,1.753,0,0,1,.2-1.471,1.874,1.874,0,0,1,.91-.784A2.052,2.052,0,0,1,35.71,0a2.289,2.289,0,0,1,.448.045l.36.074.239.05a25.069,25.069,0,0,1,6.092,2.024,12.363,12.363,0,0,1,2.659,1.776,7.934,7.934,0,0,1,1.882,2.449c.068.52.005.649-.065.737l-.02.025-.018.024a.5.5,0,0,1-.308.2Z" transform="translate(14.795 13.021)"/>
      </g>
    </g>
  </g>
</svg>
