<svg xmlns="http://www.w3.org/2000/svg" width="433.312" height="626" viewBox="0 0 433.312 626">
  <g id="peep-sitting-18" transform="translate(20.312)">
    <g id="BODY" transform="translate(-20.311 159.505)">
      <path id="_Skin" data-name="âœ‹ Skin" d="M333.349,374.335c-7.443-10.577-23.131-12.328-33.209-19.741-5.309-4.066-10.928-6.756-15.054-12.23,6.569-7.709-1.555-25.779-3.227-36.214-6.625-27.321-12.752-55.079-20.631-82.369,13.655,4.246,10.1-21.175,8.147-27.053-.135-.808-1.137-.969-1.751-1.224.172-1.154.645-1.407-.79-1.726-.48-6.916,1.479-14.661-2.061-20.771-3.991-6.669-13.531-12.25-21.414-12.342-5.537-21.963-6.552-32.321-32.785-23.012a8.536,8.536,0,0,0-.25-6.262c-3.945-11.906-8.9-24.93-13.213-37C192.142,80.512,187,66.155,180.359,52.815c-4.628-8.472-19.107-10.736-28.921-9.334-2.341-4.125-8.242-15.536-15.708-12.9q-.084-5.162-.154-10.325c-.039-2.992.277-6.059-.875-8.9-1.22-3.009-3.7-4.6-6.622-5.749C119.247,2.7,109.1-1.985,99.781.911c-8.143,3.712-7.194,17.668-11.135,25.255-5.522-8.178-14.939-2.695-16.932,6.076C49.03,41.273,29.531,31.014,28.08,66.466c1.251,6.463,2.314,12.525,1.721,19.05l-.686.07C23.309,117,21.076,150.671,22.479,185.677c-.281,13.783-5.31,26.647-10.173,39.085-3.577,9.146-7.271,18.6-9.022,28.305-1.942,8.081-9.079,46.942,6.792,34.041.608,44.211,40.054,49.871,75.575,40.106,37.709-7.83,80.16-5.579,103.7-43.457,7.984,13.646,10.738,22.071,12.743,36.34,2.2,10.453,5.393,22.325,11.264,29.239-5.055,9.088-7.531,20.158-7.287,27.373.1,2.834-1.2,4.147.663,5.908,8.948,8.451,28.911,8.546,44.091,12.309,10.409,1.323,48.045,6.385,53.8,3.085,4.011,1.12-.654-9.306,3.358-9.529,1.372.01,1.556-1.735,2.965-1.671,9,.409,28.393,3.051,23.7-4.194Z" transform="translate(44.886 -13.522)" fill="#d08b5b"/>
      <path id="_Shoes" data-name="ðŸ‘Ÿ Shoes" d="M88.036,59.507c-22.78-.863-54.324-7.262-76.511-12.069C5.763,46.357,1.666,43.35.466,40.8-.077,39.64.1,37.553.621,35.116,1.042,33.16-.2,30.979.029,28.873a32.17,32.17,0,0,1,3.415-9.644C5.536,15.687,6.968,6.648,7.124,6.743c2.784,1.7,5.94,2.433,9.189,3.341.042.012.836,2.027.878,2.038l.043.121a10.208,10.208,0,0,0,3.437,4.672c1.526,1.362,3.315,1.341,5.239,1.586,4.775.608,7.859-1.749,12.39-4.881l.336-.009c.5-.011,1.023-.01,1.55-.009,2.656.005,5.535.032,7.59-1.635q.083-.067.162-.137.074.071.155.138a2.7,2.7,0,0,0,.311.22c.456-.27.9-.542,1.349-.813,1.508-.917,5.637-3.226,5.674-3.164,1.245,2.1,21.568-9.721,23.331-8.05C81.016,2.3,86.136,10.453,93.7,13.969c13.393,6.225,22.671,10.732,29.692,15.991s3.321,8.468,4.012,8.764c1.755.751,1.09,6.2,1,7.011-.076.714-9.777,1.923-15.8,1.753-6.824-.193-10.1-1.773-10.711-.852-2.457,3.348-.824,10.618-.824,10.618A18.373,18.373,0,0,1,88.036,59.507Z" transform="translate(250.99 326.86)" fill="#fff"/>
      <path id="_Jacket" data-name="ðŸ§¥ Jacket" d="M2.343,263.111c-.521-1.024-4.855-8.314-.231-30.239,4.651-22.052,17.961-52.216,18.556-57.091-.021-5.438.207-17.414.123-22.857l.551-11.33.5-10.24c3.106-63.242,6.925-97.58,7.443-99.509,1.886-7.014,6.15-12.918,13.976-15.822l.238-.087a56.106,56.106,0,0,1,7.676-2.1l1.625-.349.407-.09.561-.13.26-.062c3.759-.9,10.886-1.2,15.7-4.288,3.786-2.426,4.822-6.264,6.935-7.59A9.927,9.927,0,0,1,81.418,0h.131a8.376,8.376,0,0,1,2.2.3,9.3,9.3,0,0,1,2.19,1.82q.159.179.307.361c-.058.14-.116.28-.172.419l-.113.281a8.925,8.925,0,0,0-.709,2.6l-.088,1.335L84.435,6.6a78.269,78.269,0,0,0,4.6,10.051l1.583,3.012L96.019,30c1.234,2.351,2.38,4.523,3.124,5.906l.155.305.318.637a4.656,4.656,0,0,0,1.773,2.172c.085.047.171.089.257.127q.05.156.1.313c.463,1.531,24.237,87.848,24.274,87.881.43.389,34.852,9.354,43.1,11.062.643.133,1.288.276,1.933.42a11.635,11.635,0,0,0,2.312.171h.156c2.149-.011,4.862-.243,6.573-.266q.213-.543.418-1.089l.159-.426a4.69,4.69,0,0,1,.5-.059c.071,0,.143-.007.216-.008h.11c3.049.029,7.416,2.974,10.239,5l1.085.783.214.153.628.442-.287.577c-4.3,8.672-8.141,17.56-11.678,26.57h0q-1.01,2.555-1.981,5.125l-.484,1.285-1.179-.2-.453-.08c-1.66-.3-81.7-.257-81.7-.257l-92.854,87.7A7.709,7.709,0,0,1,2.343,263.111ZM206.732,131.46c-2.986-.033-11.911-16.279-15.046-16.276-6.69.007-24.324,0-24.324,0S150.206,72.805,145.7,58.271c-7.106-22.938-6.764-34.825-7-35.66a2.311,2.311,0,0,0-.209-.9l-.1-.21q-.658-2.347-1.33-4.69l-.45-1.562-.957.168c-.047-.125-.091-.25-.136-.378a45.108,45.108,0,0,1-1.779-6.9q-.062-.353-.119-.706c.23-.064.471-.118.728-.164a7.559,7.559,0,0,1,1.153-.119l.137,0c.181,0,.36.006.538.018l.16.014.139.072c3.693,1.959,7.042,7.364,9.826,13.6l3.614-.43,1.41-.16c.764-.085,1.412-.15,1.78-.174l.165-.009.563.058c8.6.9,19.7,2.538,24.257,10.523,4.559,11.028,30.386,82.109,31.371,83.094a.78.78,0,0,0,.116.1l1.166.776-3.3.542c-.344.144,2.479,16.291-.709,16.291Z" transform="translate(47.287 8.514)" fill="#e86bbb"/>
      <path id="_Top" data-name="ðŸ‘• Top" d="M31.405,74.5a117.292,117.292,0,0,1-11.882-2.412c-.507-1.013-4.369-15.972-4.369-15.972Q11.957,44.771,8.831,33.4C5.968,23.052.05.772,0,.6A61.188,61.188,0,0,0,18,4.089C26.671,4.187,38.918.034,38.964,0c.033.112,22,60.37,21.9,60.4a101.85,101.85,0,0,0-15.6,6.114A123.069,123.069,0,0,0,31.405,74.5Z" transform="translate(153.774 63.269)" fill="#fff"/>
      <path id="_Ink" data-name="ðŸ– Ink" d="M294.14,396.053h0c-3.69,0-8.017-.245-12.859-.727-4.152-.413-8.811-1.014-13.847-1.786-9.218-1.413-18.049-3.135-24.5-4.392h-.006c-2.111-.412-3.934-.767-5.444-1.048-7.176-1.6-14.8-3.355-22.248-5.732a14.36,14.36,0,0,1-4.636-2.046,10,10,0,0,1-3.4-3.655,6.085,6.085,0,0,1-.665-2.477,6.161,6.161,0,0,1,.537-2.737,13.582,13.582,0,0,1-.916-2.353,12.93,12.93,0,0,1-.433-2.328,15.343,15.343,0,0,1,.306-4.593,44.39,44.39,0,0,1,3.365-9.024c.76-1.665,1.545-3.385,2.181-5.079a23.587,23.587,0,0,0,1.368-5.1,22.073,22.073,0,0,1-3.14-2.731c-.046.2-.087.4-.128.586l-.027.126c-.074-.047-.15-.093-.224-.138h0a3.758,3.758,0,0,1-.729-.524c.145-.3.276-.56.4-.8l.009-.018,0-.009a15.13,15.13,0,0,1-2.177-3.168,22.3,22.3,0,0,1-1.472-3.617,61.444,61.444,0,0,1-1.729-7.762v0c-.112-.631-.228-1.283-.346-1.914-.454-2.581-.906-5.326-1.343-7.98v0c-.709-4.3-1.379-8.371-1.894-10.73-.388-1.76-.876-3.568-1.452-5.374-.546-1.712-1.188-3.482-1.91-5.259a.721.721,0,0,0-.049-.286c-4.167-11.045-7.983-22.42-11.674-33.42-2.287-6.817-4.652-13.867-7.077-20.767-1.925-5.479-3.729-10.4-5.515-15.043a.773.773,0,0,0-.748-.506.794.794,0,0,0-.656.312.61.61,0,0,0-.047.593c4.541,11.809,8.629,24,12.583,35.795,2,5.961,4.065,12.125,6.168,18.17.354,1.019.706,2.018,1.065,3.037l-.118-.21-.009-.016c-.066-.117-.133-.238-.2-.358a76.982,76.982,0,0,1-14.131,17.076,75.167,75.167,0,0,1-8.834,6.914,62.137,62.137,0,0,1-9.5,5.232,77.315,77.315,0,0,1-9.891,3.556c-3.148.906-6.463,1.674-10.133,2.348-6.822,1.253-13.894,1.983-20.732,2.689-5.763.6-11.721,1.211-17.563,2.138,4.984-3.718,9.831-7.795,14.518-11.737,1.834-1.542,3.731-3.137,5.608-4.688a.627.627,0,0,0,.186-.732.832.832,0,0,0-.733-.566.635.635,0,0,0-.365.118c-5.668,3.895-11.6,7.6-17.333,11.178-4.362,2.723-8.872,5.539-13.235,8.421l-.355.07c-.284.056-.578.113-.868.172-.485.122-1.008.249-1.645.4-.716.237-1.452.467-2.186.686a15.477,15.477,0,0,1-4.2.73h-.155a113.581,113.581,0,0,1-21.4,2.232c-13.692,0-24.639-3.242-32.537-9.638a35.314,35.314,0,0,1-5.711-5.846,38.583,38.583,0,0,1-4.471-7.424,48.359,48.359,0,0,1-3.094-9.1A66.6,66.6,0,0,1,10.166,284.3a6.9,6.9,0,0,1-1.974,1.132,6.821,6.821,0,0,1-1.969.314,4.856,4.856,0,0,1-3.657-1.615,9.5,9.5,0,0,1-2.093-4.165,15.843,15.843,0,0,1-.443-4.8c-.039-2.269.009-4.615.143-6.974.128-2.258.339-4.6.626-6.947A133.955,133.955,0,0,1,3.245,247.51c.426-2.356.967-4.735,1.653-7.273.611-2.262,1.325-4.6,2.182-7.144,1.592-4.73,3.447-9.475,5.241-14.064,2.411-6.166,4.9-12.543,6.777-18.935a89.236,89.236,0,0,0,2.3-9.7,65.039,65.039,0,0,0,1.006-9.985c-.352-8.8-.478-17.618-.374-26.209.106-8.8.457-17.616,1.042-26.188.6-8.781,1.462-17.553,2.562-26.075,1.127-8.724,2.536-17.428,4.187-25.871a75.809,75.809,0,0,1-1.44-8.394,58.524,58.524,0,0,1-.356-8.149A46.748,46.748,0,0,1,28.9,51.7a40.016,40.016,0,0,1,2.249-7.422,28.62,28.62,0,0,1,2.31-3.984,22.449,22.449,0,0,1,2.609-3.107A20.4,20.4,0,0,1,42.04,33.1a26.175,26.175,0,0,1,3.289-1.232c1.06-.322,2.186-.6,3.444-.86,2.339-.477,4.7-.783,7.208-1.107,5.294-.685,10.768-1.394,15.884-3.832a18.6,18.6,0,0,1,3.2-6.308A11.479,11.479,0,0,1,77.6,17.446a11.158,11.158,0,0,1,3.349-1.478,10.76,10.76,0,0,1,2.322-.256,8.958,8.958,0,0,1,3.407.635,6.709,6.709,0,0,1,2.759,2.038c.041-.108.085-.228.135-.368.3-.839.6-1.694.888-2.521l.009-.026A127.358,127.358,0,0,1,96.6.165.3.3,0,0,1,96.877,0a.385.385,0,0,1,.277.116.288.288,0,0,1,.08.22,127.507,127.507,0,0,1-2.374,16.3l0,.021c-.182.958-.37,1.948-.551,2.921-.071.379-.128.788-.188,1.221v0a14.124,14.124,0,0,1-.6,2.857,3.5,3.5,0,0,1-1.694,2.083,2.7,2.7,0,0,1-1.144.3c1.822,2.786,3.94,6.643,5.487,9.459,1,1.82,1.722,3.135,1.949,3.4,2.728,4.791,4.969,8.778,7.051,12.55.092.158.19.324.276.47l.007.013c.076.128.154.261.231.392,2.231,3.065,2.911,6.579,3.631,10.3.21,1.086.427,2.208.687,3.332.48,1.649.924,3.18,1.357,4.68,2.637.781,4.843,1.418,7.207,1.916a50.433,50.433,0,0,0,10.115,1.031,48.524,48.524,0,0,0,8.191-.692,45.735,45.735,0,0,0,7.948-2.109,2.992,2.992,0,0,1,1.088-.238c-1.44-5.183-2.572-9.853-3.461-14.276a130.785,130.785,0,0,1-2.133-14.505,2.151,2.151,0,0,1-1.474-1.072,35.163,35.163,0,0,1-4.529-15.367A33.825,33.825,0,0,1,137.062,9.56a.287.287,0,0,1,.277-.165.4.4,0,0,1,.293.125.264.264,0,0,1,.067.213,51.978,51.978,0,0,0,.133,14.068,6.592,6.592,0,0,1,1.517-.178,7.135,7.135,0,0,1,2.189.357,9.771,9.771,0,0,1,2.088.979,17.836,17.836,0,0,1,3.8,3.277,36.661,36.661,0,0,1,3.172,4.123c1,1.489,1.846,2.924,2.395,3.874.125.225.236.43.339.626a39.447,39.447,0,0,1,4.552-.249,59.2,59.2,0,0,1,5.945.321,33.069,33.069,0,0,1,5.457.9,27.159,27.159,0,0,1,5.2,1.891,21.256,21.256,0,0,1,4.575,2.992,17.853,17.853,0,0,1,3.579,4.211c1.608,3.226,3.158,6.561,4.74,10.2,1.409,3.239,2.811,6.644,4.286,10.41,2.738,6.993,5.315,14.193,7.807,21.156l0,.006c2.111,5.9,4.294,12,6.561,17.933,2.249,6.265,4.283,12.085,6.219,17.791.133.426.286.856.434,1.272a17.837,17.837,0,0,1,.714,2.333,5.864,5.864,0,0,1,.039,2.422,42.6,42.6,0,0,1,13.653-2.652,18.611,18.611,0,0,1,4.981.608,9.638,9.638,0,0,1,3.852,2,13.627,13.627,0,0,1,2.33,2.419,18.481,18.481,0,0,1,1.761,2.87,34.726,34.726,0,0,1,2.321,6.335c.457,1.712.9,3.459,1.334,5.148v0c.587,2.3,1.194,4.679,1.838,7.006a22.894,22.894,0,0,1,6.078,1.222,31.626,31.626,0,0,1,6.083,2.814,31.2,31.2,0,0,1,5.384,4.023,22.37,22.37,0,0,1,3.98,4.849,15.686,15.686,0,0,1,1.484,3.509,20.709,20.709,0,0,1,.695,3.669,55.008,55.008,0,0,1,.075,7.586v0c-.068,1.885-.138,3.834-.057,5.71a1.347,1.347,0,0,1,.707.5,1.735,1.735,0,0,1,.306,1.357,2.432,2.432,0,0,1,1.507,1.643A39.916,39.916,0,0,1,273,196.453a54.9,54.9,0,0,1,.7,6.913c.142,3.936-.139,9.411-2.285,13.143a8.747,8.747,0,0,1-2.082,2.5,7.057,7.057,0,0,1-2.913,1.388,4.955,4.955,0,0,1-.633.04,6.557,6.557,0,0,1-1.529-.195c.248.8.456,1.539.608,2.076.05.176.1.342.134.473,2.652,9.727,5.408,20.4,8.423,32.642,2.691,10.92,5.334,22.032,7.889,32.778l.008.035c.965,4.06,1.964,8.257,2.95,12.384.354,2.171,1.122,5.044,2.012,8.371v0a135.23,135.23,0,0,1,3.213,14.007l.02.159c.57,4.456,1.216,9.507-1.336,13.451a13.914,13.914,0,0,1,3.8,2.254,44.548,44.548,0,0,1,3.317,3.062,34.923,34.923,0,0,0,4.237,3.757,18.82,18.82,0,0,0,2.886,2.3,40.241,40.241,0,0,0,3.685,2.15c2.671,1.4,5.66,2.707,8.825,4.1,5.2,2.283,10.586,4.643,14.657,7.485a25.287,25.287,0,0,1,2.785,2.229,15.726,15.726,0,0,1,2.157,2.448,10.729,10.729,0,0,1,1.389,2.706,9.236,9.236,0,0,1,.483,3,1.782,1.782,0,0,1,.938,1.284c.775,3.729.544,6.384-.685,7.892a3.716,3.716,0,0,1-1.447,1.078,5.662,5.662,0,0,1-2.212.4l-.18,0a94.079,94.079,0,0,1-10.967.83,32.77,32.77,0,0,1-10.213-1.43,13.936,13.936,0,0,1-2.672,3.686,1.061,1.061,0,0,1,.832.383,2.873,2.873,0,0,1,.36,1.94,22.641,22.641,0,0,1-.374,2.6,10.62,10.62,0,0,0-.284,2.326,11.151,11.151,0,0,1-2.7,1.364,22.178,22.178,0,0,1-3.543.916A52.559,52.559,0,0,1,294.14,396.053ZM207.983,372.9a5.733,5.733,0,0,0,.469,1.9,6.253,6.253,0,0,0,1.028,1.592,8.778,8.778,0,0,0,1.476,1.321,13.586,13.586,0,0,0,1.812,1.086,40.359,40.359,0,0,0,8.374,2.717c.691.168,1.343.327,1.931.483,5.2,1.382,10.529,2.669,15.825,3.826,5.261,1.149,10.638,2.2,15.98,3.125,5.309.919,10.727,1.737,16.1,2.432,5.344.691,10.791,1.278,16.189,1.746,2.654.216,5.508.417,8.394.417a47.807,47.807,0,0,0,5.716-.315,33.151,33.151,0,0,0,5.608-1.141c.1-1.427.22-3.114.353-4.8a17.96,17.96,0,0,1-4.575,2.143,17.133,17.133,0,0,1-5.018.764,15.483,15.483,0,0,1-4.235-.581c-1.855.088-3.772.133-5.7.133-4.111,0-8.308-.2-12.831-.6-4.025-.358-8.213-.872-12.8-1.572-8.522-1.3-17.118-3.049-25.432-4.741l-.018,0c-3.173-.646-6.454-1.314-9.665-1.943-1.028-.232-2.062-.439-3.156-.658h0a52.682,52.682,0,0,1-8.7-2.263,18.874,18.874,0,0,1-3.892-2.014A13.848,13.848,0,0,1,207.983,372.9Zm81.079,11.738a21.537,21.537,0,0,1,4.7.669c.931.2,1.893.414,2.883.548.384.031.775.047,1.163.047a13.589,13.589,0,0,0,5.28-1.039,10.855,10.855,0,0,0,2.32-1.337,9.39,9.39,0,0,0,1.892-1.915,11.09,11.09,0,0,0,1.835-4.389,7.474,7.474,0,0,0-.38-3.84,8.723,8.723,0,0,0-1.488-2.505,12.319,12.319,0,0,0-2.3-2.1,19.373,19.373,0,0,0-6.187-2.829c-2.407-.921-4.873-1.749-7.484-2.626h0a98.925,98.925,0,0,1-15.5-6.194,35.359,35.359,0,0,1-6.7-4.591,27.448,27.448,0,0,1-2.847-2.912,25.688,25.688,0,0,1-2.421-3.416,37.253,37.253,0,0,0-4.575,2.5c-.48.292-.977.594-1.479.889a3.025,3.025,0,0,1-.472-.316,7.3,7.3,0,0,1-3.421,1.449,22.485,22.485,0,0,1-3.874.243H249.1c-.409,0-.888,0-1.351.017a35.424,35.424,0,0,1-3.2,1.963,30.034,30.034,0,0,1-3.387,1.58,19.049,19.049,0,0,1-6.845,1.436,10.327,10.327,0,0,1-6.1-1.815,10.5,10.5,0,0,1-2.46-2.483,15.306,15.306,0,0,1-1.9-3.724,43.3,43.3,0,0,1-4.8-1.637,31.985,31.985,0,0,1-4.45-2.232,18.139,18.139,0,0,1-.343,6.132c-.424,2.08-1.08,4.182-1.714,6.215-1.531,4.91-2.978,9.547-.912,12.975a7.111,7.111,0,0,0,1.289,1.563,9.763,9.763,0,0,0,1.924,1.352,15.861,15.861,0,0,0,2.645,1.119,27.306,27.306,0,0,0,3.452.864c11.332,2.455,22.415,4.813,33.422,6.665,6.012,1.012,11.528,1.8,16.861,2.4,5.956.673,11.512,1.1,16.985,1.309C288.492,384.652,288.777,384.641,289.062,384.641Zm44.521-8.989c-5.325,1.844-11.129,2.468-16.741,3.071-1.351.145-2.747.3-4.107.46a13.955,13.955,0,0,1-.542,1.722c2.311-.192,4.672-.273,6.955-.35,2.179-.074,4.433-.151,6.641-.325a49.6,49.6,0,0,0,6.58-.916c.072-.014.2-.027.345-.043.473-.051,1.189-.129,1.343-.326a.052.052,0,0,1-.037.025c-.1,0-.112-.691-.116-.951,0-.056,0-.091,0-.106A15.588,15.588,0,0,0,333.583,375.652Zm-64.867-31.269a9.3,9.3,0,0,0-2.866.649h0c-.368.124-.749.253-1.114.356-.021.063-.038.11-.054.153a40.488,40.488,0,0,0,3.256,2.886c1.091.868,2.263,1.71,3.484,2.5A57.205,57.205,0,0,0,278.927,355a149.481,149.481,0,0,0,16.179,5.9l.01,0c1.23.4,2.5.8,3.743,1.213a46.607,46.607,0,0,1,4.832,1.8A23.291,23.291,0,0,1,308.2,366.5a14.919,14.919,0,0,1,1.885,1.665,11.644,11.644,0,0,1,1.508,1.962,10.253,10.253,0,0,1,1.032,2.293,10.807,10.807,0,0,1,.458,2.66c4.859-.373,9.658-.916,14.263-1.614,3.486-.051,5.432-.758,5.784-2.1.21-.8-.064-2.255-2.558-4.663a28.253,28.253,0,0,0-2.816-2.352,31.907,31.907,0,0,0-2.823-1.865,64.944,64.944,0,0,0-6.4-3.5c-2.216-1.072-4.533-2.091-6.774-3.076a99.232,99.232,0,0,1-13.575-6.813,36.65,36.65,0,0,1-5.85-4.574,29.388,29.388,0,0,1-2.522-2.781,27.814,27.814,0,0,1-2.189-3.187,5.249,5.249,0,0,0-.822-.249,18.872,18.872,0,0,1-3.445,2.851,22.049,22.049,0,0,1-3.992,2.029,25.638,25.638,0,0,1-4.324,1.249,27.994,27.994,0,0,1-4.44.509A3.231,3.231,0,0,0,268.716,344.383Zm-43.11,4.021h0a12.785,12.785,0,0,0,3.756,2.418,10.677,10.677,0,0,0,4.036.785,14.029,14.029,0,0,0,5.388-1.175c-2.417-.256-4.84-.553-7.2-.884C229.469,349.239,227.456,348.853,225.607,348.4ZM30.693,79.545h0c-1.136,11.3-1.937,22.7-2.66,33.421-.369,4.371-.643,8.837-.839,13.651-.174,4.29-.281,8.759-.328,13.662-.086,9.109.058,18.371.2,27.328v.009c.1,6.133.194,12.475.217,18.707a87.1,87.1,0,0,1-1.568,8.893c-.627,2.758-1.394,5.6-2.342,8.691-1.762,5.741-3.9,11.491-5.976,17.051h0c-1.888,5.067-3.84,10.307-5.5,15.535-.9,2.814-1.637,5.4-2.269,7.905-.709,2.812-1.261,5.451-1.687,8.067-.585,2.919-1.058,5.805-1.406,8.581-.368,2.938-.608,5.854-.713,8.667.014.924-.034,1.9-.081,2.84-.126,2.537-.257,5.16.779,7.321.007-.009.026-.035.05-.073a17.4,17.4,0,0,1,1.448-1.746l0,0c.333-.369.677-.751.97-1.111s.616-.753.915-1.124c3.554-4.386,7-8.984,10.338-13.429l0,0c2.947-3.928,5.994-7.99,9.1-11.891,3.487-4.377,6.684-8.084,9.773-11.335,5.92-5.55,12.362-10.762,18.592-15.8h0c6.354-5.14,12.923-10.456,18.939-16.129,3.238-3.054,6.062-5.965,8.633-8.9,1.393-1.59,2.725-3.207,3.961-4.806,1.3-1.677,2.531-3.393,3.669-5.1a28.547,28.547,0,0,1,3.473-4.3,37.051,37.051,0,0,1-5.545-3.606,40.138,40.138,0,0,1-4.125-3.8,55.84,55.84,0,0,1-3.631-4.249c-2.292-2.948-4.389-6.137-6.418-9.22v0c-.941-1.429-1.913-2.907-2.888-4.335-1.923-2.972-4.07-6.2-6.344-9.623-3.151-4.74-6.723-10.112-10.259-15.657-4.046-6.345-7.476-12.022-10.485-17.356-1.754-3.109-3.4-6.162-4.886-9.074-1.61-3.152-3.095-6.251-4.412-9.21-1.409-3.166-2.675-6.278-3.761-9.25-1.152-3.152-2.139-6.245-2.934-9.193Zm201.8,120.692a.878.878,0,0,0-.658.308.746.746,0,0,0-.158.634c1.743,9.393,4.121,18.8,6.42,27.9v0c1.662,6.577,3.38,13.379,4.845,20.121a.641.641,0,0,0,.656.539.861.861,0,0,0,.656-.308.723.723,0,0,0,.139-.63c-1.465-6.742-3.184-13.543-4.845-20.12v0c-2.3-9.1-4.677-18.512-6.42-27.9A.616.616,0,0,0,232.494,200.237Zm-33.409-37.512c-1.027,2.58-2.082,5.2-3.1,7.727l-.015.038c-2.339,5.8-4.757,11.8-7,17.751,10.125.258,20.929,1.793,31.377,3.278,1.7.241,3.455.491,5.161.728a35.327,35.327,0,0,1,7.906,1.691,42.3,42.3,0,0,1,7.266,3.263,66.591,66.591,0,0,1,12.806,9.7,93.791,93.791,0,0,0,7.886,6.385c.2.143.416.3.642.473l0,0c1.008.756,2.15,1.613,3.159,1.613a1.49,1.49,0,0,0,.955-.333,2.807,2.807,0,0,0,.78-1.152c1.919-4.767,1.44-9.954.977-14.97l0-.019q-.038-.409-.075-.816c-.138-.985-.328-1.975-.511-2.932-.067-.347-.135-.7-.2-1.06a7.822,7.822,0,0,1-1.2-2.39c-.127-.345-.257-.7-.407-1.05a30.9,30.9,0,0,0-3.06-5.54,31.657,31.657,0,0,0-4.112-4.811,30.777,30.777,0,0,0-4.4-3.7,32.369,32.369,0,0,0-4.771-2.72,39.22,39.22,0,0,0-5.6-2.08,56.569,56.569,0,0,0-5.88-1.356c-3.994-.717-8.186-1.119-12.24-1.508-1.411-.135-2.87-.275-4.3-.427a1.231,1.231,0,0,1-.513.1,1.76,1.76,0,0,1-.35-.037,3.531,3.531,0,0,1-.546-.22,81.055,81.055,0,0,1-10.675-1.8A39.843,39.843,0,0,1,199.085,162.725Zm-29.264,27.311h0a28.227,28.227,0,0,0,6.083,1.948c2.37.556,4.78,1,6.384,1.274.647-1.718,1.294-3.4,1.921-5l-.1-.021-.086-.017c.068,0,.138,0,.205,0,3.957-10.137,7.887-19.108,12.016-27.426-.272-.193-.581-.417-.909-.654-2.695-1.952-7.2-5.218-10.311-5.218-.089,0-.177,0-.262.008-1.229,3.274-2.709,6.517-4.14,9.653l0,.006c-.962,2.108-1.957,4.288-2.865,6.456a96.957,96.957,0,0,0-4.325,12.475l0,.008c-.331,1.115-.672,2.268-1.019,3.4-.05.188-.106.373-.16.553-.09.3-.184.614-.252.934a1.985,1.985,0,0,1-.78,1.233,2.226,2.226,0,0,1-1.3.394ZM71.5,27.334A20.1,20.1,0,0,1,68.062,29.5a27.907,27.907,0,0,1-3.745,1.534,74.762,74.762,0,0,1-8,2.015,64.573,64.573,0,0,0-9.015,2.379,22.159,22.159,0,0,0-5.815,3.1,20.151,20.151,0,0,0-4.228,4.309A25.961,25.961,0,0,0,32.882,54a40.176,40.176,0,0,0-.5,6.316,51.4,51.4,0,0,0,.4,6.442,61.723,61.723,0,0,0,2.817,12.173c.919,3.291,2,6.649,3.2,9.983,1.149,3.175,2.452,6.433,3.874,9.682a206.039,206.039,0,0,0,9.369,18.615c3.065,5.439,6.621,11.287,10.871,17.877,3.784,5.867,7.746,11.751,11.576,17.44l.006.008.02.03c2.07,3.075,4.211,6.254,6.29,9.381a57.423,57.423,0,0,0,8.555,11.365,44.122,44.122,0,0,0,5.285,4.6,38.036,38.036,0,0,0,5.976,3.613A34.886,34.886,0,0,0,110,184.52c2.779.5,5.628.9,8.708,1.235,2.743.3,5.609.529,8.762.712,5.856.339,11.833.447,17.612.551h0c6.1.11,12.411.224,18.588.61a5.816,5.816,0,0,1,1.571-2.643,3.758,3.758,0,0,1,2.524-1.179,2.422,2.422,0,0,1,.67.094c.621-2.371,1.346-4.72,2.154-6.982.858-2.4,1.819-4.724,2.856-6.908a54.2,54.2,0,0,1,7.906-12.378,2.083,2.083,0,0,1-.282.018c-.042,0-.084,0-.126,0a38.855,38.855,0,0,1-6.517-1.065c-.63-.14-1.28-.285-1.921-.417-9-1.863-17.084-3.548-24.728-5.151-1.46-.305-2.981-.6-4.452-.878h0c-3.366-.644-6.846-1.31-10.194-2.249a2.067,2.067,0,0,1-.669.105,3.7,3.7,0,0,1-2.4-1.064,33.382,33.382,0,0,1-7.575-3.648,25.716,25.716,0,0,1-4.041-3.737,47.839,47.839,0,0,1-3.9-5.089c-1.225-1.821-2.487-3.9-3.748-6.189-1.17-2.119-2.381-4.487-3.6-7.037-4.7-9.836-9.05-21.391-12.887-31.585v0c-3.077-8.175-5.984-15.9-8.567-21.379,8.2,14.231,15.915,30.6,23.381,46.429l0,.01c1.319,2.8,2.683,5.69,4.01,8.485a61.8,61.8,0,0,0,5.583,10.109,27.225,27.225,0,0,0,3.735,4.25,22.64,22.64,0,0,0,2.234,1.8,21.73,21.73,0,0,0,2.528,1.533c-2.093-7.446-4.2-15-6.228-22.315l0-.007c-3.858-13.874-7.848-28.219-11.912-42.286-.582-1.856-1.08-3.511-1.522-5.058-.564-1.991-1.027-3.773-1.414-5.449-.3-1.291-.467-2.636-.632-3.936a30.9,30.9,0,0,0-.935-5.083l0-.014,0-.024A4.127,4.127,0,0,1,103.2,55.42a13.1,13.1,0,0,1-.941-1.674l0,0c-.076-.151-.154-.308-.232-.461-2.418-4.5-4.754-8.964-6.721-12.743-.772-1.544-1.6-3.1-2.392-4.613l0-.005A88.322,88.322,0,0,1,87.076,23.31c.059-.5.222-.75.486-.75a.915.915,0,0,1,.493.2A11.967,11.967,0,0,1,89.1,19.243l.1-.235a7.384,7.384,0,0,0-2.008-.928,7.654,7.654,0,0,0-2.131-.3A9.079,9.079,0,0,0,80.614,19,10.621,10.621,0,0,0,78.929,20.3a10.823,10.823,0,0,0-1.334,1.543,13.939,13.939,0,0,0-1.813,3.632A41.293,41.293,0,0,0,74.194,33.8c-.162,1.334-.315,2.593-.521,3.806-.233,1.68-.471,3.469-.588,5.253a26.387,26.387,0,0,0,.121,5.274,2.624,2.624,0,0,1-.053,1.044,2.548,2.548,0,0,0,.617.075,5.717,5.717,0,0,0,3.117-1.37,33.911,33.911,0,0,1,5.664-4.042,15.988,15.988,0,0,1,2.91-1.254,9.867,9.867,0,0,1,2.887-.464,7.611,7.611,0,0,1,2.069.281,7.729,7.729,0,0,1,2.006.9,9.985,9.985,0,0,1,1.921,1.6,15.219,15.219,0,0,1,1.814,2.381l.219.3c1.277,1.74,2.6,3.539,3.8,5.363a44.88,44.88,0,0,1,3.255,5.7.313.313,0,0,1-.008.31.306.306,0,0,1-.257.139.345.345,0,0,1-.214-.078,45.208,45.208,0,0,1-4.838-4.485c-1.512-1.6-2.972-3.3-4.384-4.94v0l-.055-.064-.744-.866a10.674,10.674,0,0,0-1.97-1.9,4.353,4.353,0,0,0-2.533-.8c-.06,0-.122,0-.184,0a7.377,7.377,0,0,0-2.044.367,9.48,9.48,0,0,0-1.836.838,25.753,25.753,0,0,0-3.325,2.458A25.414,25.414,0,0,1,77.7,52.1a9.289,9.289,0,0,1-1.846.83,7.252,7.252,0,0,1-2.055.346c-.131.011-.265.017-.4.017a5.025,5.025,0,0,1-2.231-.533,4.385,4.385,0,0,1-1.647-1.378A3,3,0,0,1,69,50.153a2.631,2.631,0,0,1,.133-1.355c-.008-.036-.013-.075-.017-.11a31.281,31.281,0,0,1-.062-6.5c.175-2.113.486-4.18.845-6.469l.05-.331A71.571,71.571,0,0,1,71.5,27.334ZM245.628,154.61a102.363,102.363,0,0,0,3.317,10.161,21.6,21.6,0,0,0,1.166,2.856v0a15.049,15.049,0,0,1,1.433,4.045,37.487,37.487,0,0,1,7.521,5.094,43.286,43.286,0,0,1,6.2,6.665c.039-.705.089-1.422.138-2.115a34.473,34.473,0,0,0-.208-9.483,21.193,21.193,0,0,0-7.259-11.286,27.685,27.685,0,0,0-5.816-3.733A28.382,28.382,0,0,0,245.628,154.61Zm-61.953.574a2.567,2.567,0,0,0-.767.521.046.046,0,0,1-.012.007c0,.081,0,.162-.005.253C183.158,155.687,183.422,155.424,183.676,155.183Zm-15.332-24.6c-.511.005-1.041.014-1.576.025-1.655.061-3.338.175-4.966.286-1.115.076-2.267.154-3.4.215-2.133.114-4.3.233-6.4.348l-.064,0-1.054.058c-.8.058-1.733.127-2.655.192l-3.681.262-.061,0c-2.4.171-4.884.348-7.326.517-1.229.085-2.475.165-3.68.243l-.1.006-1.632.106c-.376.024-.769.065-1.149.1h0c-.586.061-1.191.124-1.782.134l.715,2.563.072.259.5,1.8a21.574,21.574,0,0,1,.6,2.2,18.353,18.353,0,0,0,.789,2.729,70.517,70.517,0,0,0,7.628,1.978c.905.192,1.844.39,2.791.586a59.811,59.811,0,0,1,8.1-5.972,71.741,71.741,0,0,1,8.923-4.658,72.832,72.832,0,0,1,9.732-3.38C168.569,131.027,168.465,130.832,168.344,130.586Zm20.38-2.407a29.767,29.767,0,0,1,10.013,1.453,11.567,11.567,0,0,1,4.034,3.65,64.023,64.023,0,0,0,3.418,9.663.6.6,0,0,0,.559.391.85.85,0,0,0,.686-.4.766.766,0,0,0,.055-.753,59.871,59.871,0,0,1-2.789-7.58,39.09,39.09,0,0,1,6.01-3.1,1.542,1.542,0,0,1-.231-.19,6.858,6.858,0,0,1-1.394-2.1,20.84,20.84,0,0,1-.839-2.389c-.183-.6-.373-1.216-.6-1.805-2.339-7.019-4.765-13.817-6.831-19.541-2.563-6.709-5.1-13.566-7.547-20.2-4.534-12.272-9.223-24.962-14.284-37.221-4.843-8.491-15-9.493-23.965-10.378l-1.321-.131a71.752,71.752,0,0,1,3.57,8.259c1.034,2.814,1.967,5.722,2.869,8.534v0c.545,1.7,1.109,3.457,1.689,5.175.075.2.148.416.223.666a2.4,2.4,0,0,1-.192,1.91,2.816,2.816,0,0,1-1.689,1.4,2.712,2.712,0,0,1-.715.1,2.5,2.5,0,0,1-1.571-.567,3.518,3.518,0,0,1-1.026-1.41A6.156,6.156,0,0,0,153.8,58.4a8.762,8.762,0,0,0-3.324-.525,5.817,5.817,0,0,1-2.544-.409c1.434,5.212,3.154,11.387,5.042,17.669,1.938,6.448,3.8,12.165,5.695,17.477,1.605,4.58,3.344,9.219,5.316,14.183,1.756,4.421,3.657,9,5.811,13.987.65,1.5,1.357,3.112,2.224,5.071.152.342.324.689.505,1.057.248.5.5,1.022.721,1.55a1.644,1.644,0,0,1,.286.789,6.553,6.553,0,0,1,.173.711,82.47,82.47,0,0,1,8.952-1.452,28.854,28.854,0,0,0-1.994-5.788,35.367,35.367,0,0,1-1.767-4.779c-.959-3.04-1.752-5.718-2.422-8.187-.812-2.988-1.463-5.723-1.99-8.361a74.434,74.434,0,0,1-1.6-16.971h.012a.239.239,0,0,1,.133.04c-.014-.1-.029-.205-.048-.313a.249.249,0,0,1,.07-.01c.158,0,.329.155.508.46a6.683,6.683,0,0,1,.487,1.134c.311.9.589,2,.792,2.8.107.422.191.756.251.948.778,2.872,1.4,5.831,2.005,8.693v0c.548,2.6,1.114,5.284,1.794,7.9a149.993,149.993,0,0,0,5.3,16.354c.138.353.268.712.4,1.093h0a10.975,10.975,0,0,0,2.316,4.317,1.645,1.645,0,0,1,.276.358C187.7,128.187,188.222,128.179,188.723,128.179ZM162.69,117.212c-3.9.055-8.1.238-13.2.577-1.9.178-3.8.387-5.652.623-.841.107-1.713.22-2.482.32-2.337.3-4.753.616-7.14.877-1.76.192-3.336.336-4.819.442-.829.059-1.64.107-2.413.142-.392.018-.8.034-1.208.047h-.012l-.021,0h-.006l-.072.008a1.846,1.846,0,0,1-.367.232l.328,1.175.023.083.007.024c.533,1.911,1.084,3.887,1.631,5.828l.764,2.742a16.368,16.368,0,0,1,2.524-.2h0c.389-.012.79-.023,1.175-.048l1.53-.1c1.271-.084,2.585-.171,3.881-.25,2.376-.146,4.792-.289,7.128-.427h.024l.293-.017,3.377-.2c1.5-.09,3.032-.194,4.512-.294h.009c4.307-.292,8.76-.595,13.138-.595.582,0,1.16.005,1.72.016-.118-.31-.258-.671-.4-1C165.4,123.594,164,120.323,162.69,117.212Zm-6.311-15.564c-2.935.27-5.92.528-8.807.778h-.016c-3.2.277-6.509.564-9.762.867-1.79.167-3.7.349-5.846.557-1.769.215-3.566.442-5.3.662l-.027,0c-1.7.215-3.46.438-5.2.65-.039.344-.067.7-.082,1.049,1.248,4.511,2.209,7.973,3.114,11.227a9.277,9.277,0,0,1,1.821-.149c.16,0,.325,0,.473-.01,4.062-.151,8.19-.591,12.046-1.044,1.289-.151,2.607-.317,3.882-.477a124.366,124.366,0,0,1,15.369-1.288c1.223,0,2.419.038,3.554.113C159.654,109.931,157.949,105.7,156.38,101.648Zm-35.464.155a1.106,1.106,0,0,1,.631.182c.082.057.154.11.22.162a6.6,6.6,0,0,0,1.017-.119c.223-.038.432-.073.621-.09l2.48-.223c1.524-.136,3.026-.268,4.465-.392,3.065-.264,6.154-.522,9.182-.764l.251-.02h.007c5.149-.413,10.474-.84,15.717-1.159-1.526-4-2.879-7.715-4.137-11.356-6.291.036-12.486.456-18.807.922-1.285.095-2.64.2-4.142.329-1.134.147-2.452.318-3.749.49-1.589.21-3.216.428-4.835.649l-2.194.3-.587.081c1.1,3.93,2.181,7.851,3.112,11.217A1.462,1.462,0,0,1,120.915,101.8Zm-8.633-27.95c1.27,4.438,2.6,9.15,4.185,14.829,4.028-.536,7.939-1.039,11.622-1.5,4.647-.578,8.8-1.066,12.7-1.492l.362-.04.084-.009h0a46.527,46.527,0,0,1,5.041-.369,15.216,15.216,0,0,1,4.341.559c-1.381-4.088-2.583-7.893-3.675-11.632a11.194,11.194,0,0,1-3.082,1.272c-1.159.326-2.364.567-3.426.78h0c-.732.147-1.364.273-1.855.4a53.54,53.54,0,0,1-8.871.752,46.5,46.5,0,0,1-8.946-.843A37.387,37.387,0,0,1,112.282,73.853Zm28.011-42.892a.343.343,0,0,1,.348.259c.652,2.243,1.328,4.614,2.011,7.046l.039.079.034.071a2.467,2.467,0,0,1,.256,1.024c1.073,3.838,2.136,7.732,3.163,11.5l.055.2q.4,1.468.8,2.935c.711-1.515,2.482-1.833,3.842-1.833a12.655,12.655,0,0,1,3.633.6c-.958-3.209-1.965-6.24-2.991-9.008a85.777,85.777,0,0,0-3.84-8.934c-3.238-6.371-6.513-9.938-9.734-10.6a44.709,44.709,0,0,0,1.873,7.525c.038.108.083.236.13.363v-.13c0-.242,0-.492.009-.739a.328.328,0,0,1,.091-.245A.389.389,0,0,1,140.293,30.961Z" transform="translate(43.632 -8.263)"/>
    </g>
    <g id="Head" transform="translate(86.512 45.072)">
      <g id="HEAD-2" data-name="HEAD">
        <path id="_Skin-2" data-name="âœ‹ Skin" d="M46.45,0C60.659,0,79,8.919,80.563,18.053c1.843,10.765,11.712,52.07,9.484,65.316s-14.238,22.781-33.455,22.781S23.03,95.664,19.737,92.063s-9.4-16.457-9.4-16.457S.051,74.237,0,65.844A12.512,12.512,0,0,1,6.692,54.4s-2.4-33.123,3.648-41.746S32.242,0,46.45,0Z" transform="translate(14.115 18.845)" fill="#d08b5b"/>
        <path id="_Ink-2" data-name="ðŸ– Ink" d="M58.268,115.454c-.944,0-1.893-.033-2.821-.1a41.817,41.817,0,0,1-5.76-.811l-.209-.045a11.143,11.143,0,0,1-2.645-.832,4.548,4.548,0,0,1-1.973-1.871,1.209,1.209,0,0,1-.071-.936.848.848,0,0,1,.454-.526,5.337,5.337,0,0,1,2.213-.532,5.683,5.683,0,0,1,.645.039,17.07,17.07,0,0,1,1.949.378c.384.09.782.183,1.174.258a36.893,36.893,0,0,0,6.036.614c.294.006.592.01.885.01a36.463,36.463,0,0,0,10.878-1.607,39.612,39.612,0,0,0,4.872-1.881,35.346,35.346,0,0,0,4.637-2.586,25.908,25.908,0,0,0,7.473-7.316,16.584,16.584,0,0,0,1.318-2.443,17.511,17.511,0,0,0,.877-2.541,22.327,22.327,0,0,0,.686-5.291,61.637,61.637,0,0,0-1.1-10.841l0-.01c-.088-.548-.18-1.114-.266-1.666l-.036-.23c-1.418-9.13-2.546-16.524-3.551-23.267l-.493-3.326c-.261-1.768-.518-3.431-.767-5.04v0a157.6,157.6,0,0,1-2.122-18.894.146.146,0,0,1,.038-.111.175.175,0,0,1,.285.066c1.541,5.095,2.773,9.58,3.876,14.114,1.056,4.341,2.031,8.887,3.068,14.306l.587,3.056.251,1.3c1.463,7.6,2.976,15.449,4.244,23.2l.079.489a52.48,52.48,0,0,1,.675,6.382,27.567,27.567,0,0,1-.459,6.388,19.417,19.417,0,0,1-2.109,5.658,23.506,23.506,0,0,1-3.611,4.854,34.843,34.843,0,0,1-9.4,6.849,42.6,42.6,0,0,1-5.4,2.281,46.016,46.016,0,0,1-5.608,1.539A43.354,43.354,0,0,1,58.268,115.454ZM26.337,104.38a3.719,3.719,0,0,1-1.509-.347,7.757,7.757,0,0,1-1.363-.8l-.07-.05a32.287,32.287,0,0,1-5.885-5.354,29.352,29.352,0,0,1-4.182-6.51,31.2,31.2,0,0,1-2.363-7.359,2.684,2.684,0,0,1-1.149,1.31,3.7,3.7,0,0,1-1.834.433,6.513,6.513,0,0,1-1.1-.1,6.815,6.815,0,0,1-2.7-1.094,7.85,7.85,0,0,1-2.061-2.061A12.927,12.927,0,0,1,.271,76.731a22.7,22.7,0,0,1-.127-5.992,12.753,12.753,0,0,1,1.221-4.126,8.146,8.146,0,0,1,2.7-3.153,20.949,20.949,0,0,1-1.671-6.005,38.28,38.28,0,0,1-.263-6.277A112.12,112.12,0,0,1,3.406,38.908c.148-1.047.3-2.128.443-3.186l1.942-14.5.08-.585c.21-1.529.476-3.331.855-5.1a30.8,30.8,0,0,1,1.46-4.953A19.78,19.78,0,0,1,10.6,6.141,14.346,14.346,0,0,1,14.239,2.65a13.824,13.824,0,0,1,2.508-1.3,17.28,17.28,0,0,1,2.7-.813A26.428,26.428,0,0,1,25.081,0h.3l.479.006c3.276.05,15.61.334,25.521.563C56.3.683,60.951.79,63.7.851l1.966.041c1.324.025,3.366.051,5.34.076,1.908.024,3.882.049,5.212.074l.156,0,1.246.021h.006c.894.014,1.818.028,2.727.057l.194.007a3.744,3.744,0,0,1,2.6.892,1.708,1.708,0,0,1,.514,1.413L83.65,3.5l1.969.173a1.839,1.839,0,0,1,1.459.858,1.822,1.822,0,0,1,.054,1.675l-.027.059a37.451,37.451,0,0,0-1.615,7.056c-.21,1.227-.392,2.286-.554,2.983a28.679,28.679,0,0,0-.6,3.461c-.015.137-.028.277-.041.412a4.789,4.789,0,0,1-.58,2.23,2.56,2.56,0,0,1-.99.9,2.735,2.735,0,0,1-1.251.31,2.029,2.029,0,0,1-1.35-.47,1.947,1.947,0,0,1-.615-1.467,1.656,1.656,0,0,1,.007-.225c-3.37-.148-7.3-.226-11.355-.226-5.289,0-10.464.135-14.571.381a145.216,145.216,0,0,0-21.39,2.9c-1.787.379-3.581.8-5.33,1.239-.357.09-.727.17-1.119.254a11.188,11.188,0,0,0-3.4,1.113,2.607,2.607,0,0,0-1.236,1.749,7.035,7.035,0,0,0-.03,2.217c.092.869.218,1.021.378,1.214a2.259,2.259,0,0,1,.473,1.013l.025.092a28.405,28.405,0,0,0,1.6,4.62c.082.179.175.36.266.535a2.994,2.994,0,0,1,.5,2.1,3.518,3.518,0,0,1-.963,1.517,5.45,5.45,0,0,1-2.893,1.19,8.037,8.037,0,0,0-1.831.512,2.806,2.806,0,0,0-1.381,1.313,11.966,11.966,0,0,0-1.115,3.89c-.19,1.387-.244,2.845-.292,4.131q-.011.307-.023.606l-.007.162a53.025,53.025,0,0,0,.068,5.7c.028.433.079.872.128,1.3a16.911,16.911,0,0,1,.149,1.917,5.55,5.55,0,0,1-.295,1.885,1.545,1.545,0,0,1-.544.749,1.336,1.336,0,0,1-.782.25,1.565,1.565,0,0,1-1.246-.66c-.079-.105-.156-.218-.234-.344l-.071-.116,0,0c.065.1.13.213.2.338a.129.129,0,0,1,0,.13.137.137,0,0,1-.113.068.116.116,0,0,1-.086-.04,4,4,0,0,0-1.383-.992,3.939,3.939,0,0,0-1.548-.306,5.179,5.179,0,0,0-1.688.3,6.928,6.928,0,0,0-1.6.808,6,6,0,0,0-2.141,2.735,10.2,10.2,0,0,0-.729,3.443,23.261,23.261,0,0,0,.144,4,13.655,13.655,0,0,0,1.022,3.854,5.5,5.5,0,0,0,.839,1.371,3.1,3.1,0,0,0,1.3.911,3.638,3.638,0,0,0,1.08.166c.114.006.232.012.352.022a4.752,4.752,0,0,1,.7.13,3.9,3.9,0,0,0,.851.139c.033,0,.065,0,.1,0l.058,0a1.033,1.033,0,0,1,.806.441,1.021,1.021,0,0,1,.191.887l-.014.041c-.009.027-.019.056-.03.088a.264.264,0,0,1,.067.09A38.9,38.9,0,0,0,14.672,88.8a57.326,57.326,0,0,0,4.064,5.025,41.776,41.776,0,0,0,4.719,4.445,21.872,21.872,0,0,0,2.615,1.891,3.854,3.854,0,0,0,.929.4c.069.019.143.035.215.05a2.459,2.459,0,0,1,.283.07l.161.055.006,0,.026.008A1.177,1.177,0,0,1,28.3,101a1.225,1.225,0,0,1,.385.578,2.016,2.016,0,0,1-.123,1.606,2.289,2.289,0,0,1-1.439,1.086A2.937,2.937,0,0,1,26.337,104.38ZM12.526,77.168a1.844,1.844,0,0,1-1.072-.321A1.819,1.819,0,0,1,10.76,75.8l-.021-.083A5.417,5.417,0,0,0,9.05,73.006a5.5,5.5,0,0,0-2.884-1.384.248.248,0,0,1-.2-.2.159.159,0,0,1,.1-.176,6.037,6.037,0,0,1,5.946.314,7.3,7.3,0,0,1,2.454,2.585,2.14,2.14,0,0,1,.306,1.038,1.69,1.69,0,0,1-.233.876,2.164,2.164,0,0,1-.858.806A2.488,2.488,0,0,1,12.526,77.168Z" transform="translate(13.261 11.268)"/>
      </g>
      <g id="FACE" transform="translate(39.871 46.574)">
        <path id="_Ink-3" data-name="ðŸ– Ink" d="M27.09,48.029a9.564,9.564,0,0,1-3.623-.722A10.237,10.237,0,0,1,21.1,45.951a10.064,10.064,0,0,1-1.925-1.939,1.983,1.983,0,0,1-.4-1.537,2.216,2.216,0,0,1,.864-1.389,2.13,2.13,0,0,1,1.267-.44,1.841,1.841,0,0,1,.283.022,1.956,1.956,0,0,1,1.309.864l.077.107a6.757,6.757,0,0,0,2.476,2.075,5.629,5.629,0,0,0,2.456.572,5.45,5.45,0,0,0,.609-.034,6.4,6.4,0,0,0,2.7-.95,12.657,12.657,0,0,0,2.29-1.909c.164-.167.338-.348.563-.588a.891.891,0,0,1,.467-.359.959.959,0,0,1,.3-.048,1.035,1.035,0,0,1,.847.442.942.942,0,0,1,.16.621,5.694,5.694,0,0,1-.677,2.208,7.372,7.372,0,0,1-1.448,1.856,9.307,9.307,0,0,1-2.193,1.526,9.139,9.139,0,0,1-2.433.833A8.975,8.975,0,0,1,27.09,48.029Zm2.55-14.419h0a8.765,8.765,0,0,1-3.121-.628,15.772,15.772,0,0,1-3.671-2.08,1.408,1.408,0,0,1-.512-.814,1.683,1.683,0,0,1,.073-.914,2.078,2.078,0,0,1,.618-.892,1.506,1.506,0,0,1,.963-.375,1.368,1.368,0,0,1,.745.228l.248.191,0,0a19.875,19.875,0,0,0,2.3,1.6,5.667,5.667,0,0,0,2.754.877,2.978,2.978,0,0,0,1.164-.228,3.252,3.252,0,0,0,1.084-.767,3.315,3.315,0,0,0,.631-2.672,5.045,5.045,0,0,0-1.341-2.37,9.778,9.778,0,0,0-2.031-1.637.628.628,0,0,1-.17-.723.943.943,0,0,1,.313-.45.961.961,0,0,1,.6-.2,1.279,1.279,0,0,1,.215.019,6.816,6.816,0,0,1,2.395.864,5.429,5.429,0,0,1,1.611,1.483,5.885,5.885,0,0,1,1.028,3.936,6.477,6.477,0,0,1-.527,2.066A6.026,6.026,0,0,1,33.821,31.9,5.678,5.678,0,0,1,29.64,33.611ZM9.329,19.531A2.09,2.09,0,0,1,7.3,17.675a15.027,15.027,0,0,1,.08-3.919c.047-.381.1-.774.13-1.2A2.345,2.345,0,0,1,8.4,10.88a2.745,2.745,0,0,1,1.687-.592,2.081,2.081,0,0,1,1.276.4,1.888,1.888,0,0,1,.7,1.252,10.5,10.5,0,0,1-1.1,6.48,2.08,2.08,0,0,1-.734.848A1.7,1.7,0,0,1,9.329,19.531Zm29.815-.889a1.792,1.792,0,0,1-1.4-.6,5.476,5.476,0,0,1-.857-1.452,6.319,6.319,0,0,1-.437-1.75,3.706,3.706,0,0,1,1.013-3.184,2.1,2.1,0,0,1,.162-.247,2.3,2.3,0,0,1,1.765-1.014,1.915,1.915,0,0,1,.536.079,2.58,2.58,0,0,1,1.725,1.5,5.306,5.306,0,0,1,.213,2.907,9.719,9.719,0,0,1-.883,2.742,1.781,1.781,0,0,1-.763.752A2.314,2.314,0,0,1,39.143,18.642ZM.33,9.3a.325.325,0,0,1-.271-.166.362.362,0,0,1-.022-.356A12.354,12.354,0,0,1,2.81,5.277,17.148,17.148,0,0,1,6.523,2.745,15.978,15.978,0,0,1,10.93,1.21l.471-.082A11.486,11.486,0,0,1,13.325.919,2.975,2.975,0,0,1,15.7,1.8a2.012,2.012,0,0,1,.477,1.431,1.31,1.31,0,0,1-.477.935,3.661,3.661,0,0,1-2.507.734c-.2,0-.4-.005-.6-.01h-.007c-.19,0-.405-.01-.619-.01-.2,0-.372,0-.537.014A16.971,16.971,0,0,0,7.7,5.532,25.365,25.365,0,0,0,.5,9.248.309.309,0,0,1,.33,9.3Zm45.4-1.9h0l-.2-.05a11.239,11.239,0,0,1-2.176-.848l-.707-.348A19.648,19.648,0,0,0,40.12,5.089a29.826,29.826,0,0,0-5.75-1.268,2.351,2.351,0,0,1-1.153-.437,1.726,1.726,0,0,1-.645-.981,1.754,1.754,0,0,1,.2-1.471A1.876,1.876,0,0,1,33.68.148,2.05,2.05,0,0,1,34.456,0,2.289,2.289,0,0,1,34.9.045l.36.074a25.76,25.76,0,0,1,6.21,2.014,12.559,12.559,0,0,1,2.731,1.793,7.963,7.963,0,0,1,1.931,2.492c.068.52,0,.649-.065.737l-.02.025-.018.024a.5.5,0,0,1-.308.2Z" transform="translate(13.29 13.021)"/>
      </g>
    </g>
  </g>
</svg>
