<svg xmlns="http://www.w3.org/2000/svg" width="433.312" height="626" viewBox="0 0 433.312 626">
  <g id="peep-sitting-12" transform="translate(20.312)">
    <g id="BODY" transform="translate(-20.311 159.505)">
      <path id="_Skin" data-name="âœ‹ Skin" d="M180.555,400.012a63.777,63.777,0,0,1-13.089-1.358c-13.424-2.814-25.62-9.452-36-15.454-.5-.281-.992-.558-1.516-.851h0l-.1-.057-.005,0c-4.061-2.269-9.115-5.093-12.282-8.536-3.476-3.78-4.074-7.546-1.882-11.852l.347-.681-.362-.674c-2.269-4.218-2.1-9.437.41-12.691l2.11-2.734-3.47.368c-3.494.37-7.016.872-10.423,1.357h-.014c-3.781.539-7.691,1.1-11.549,1.469l-1.071.1-.246,1.03c-.137.574-.306.922-1.5.922a20.775,20.775,0,0,1-3.88-.62h0a28.274,28.274,0,0,0-5.87-.844,10.6,10.6,0,0,0-2.406.255l-.433.1-.308.315a1.256,1.256,0,0,1-.875.327,1.09,1.09,0,0,1-.66-.2l-.486-.379-.617.068a118.062,118.062,0,0,0-28.32,6.319l-.038.014-.18.078h0c-3,1.295-6.112,2.634-8.941,2.634a7.157,7.157,0,0,1-5.288-2.212l-.435-.426-.613-.006c-6.223-.057-9.067-7.3-9.46-12.161l-.049-.612-.474-.4C9.73,333.536,3.327,321.054,1,304.464c-2.119-15.111-.492-31.044,1.379-44.636,4.327-35.216,8.842-66.8,20.316-96.753l.536-1.4-1.429-.512a33.832,33.832,0,0,1-11.579-6.486l-.2-.18-.247-.1c-4.063-1.667-6.055-7.822-6.568-9.669l-.041-.149L3.1,144.44a9.173,9.173,0,0,1-.524-6.063l.053-.244-.031-.248c-.268-2.15.621-4.4,1.562-6.777.43-1.087.874-2.211,1.2-3.331,1.1-3.162,2.205-6.378,3.271-9.487l.04-.115.01-.029v0C11.1,111.09,13.595,103.8,16.257,96.7l.365-.972-.8-.67c-1.371-1.144-.913-2.49,1.064-5.709a23.828,23.828,0,0,0,1.245-2.188A148.572,148.572,0,0,1,26.2,74.684l.058-.08.046-.087C40.8,47.492,66.5,32.609,98.685,32.609h.656l.362-.218c6.032-3.622,10.338-9.837,13.163-19l.09-.292-.035-.3a20.958,20.958,0,0,1-.167-3.026,9.093,9.093,0,0,1,2.93-6.661C119.043.24,124.141,0,129.075,0h.708c6.308.018,10.761,1.112,14.015,3.442,3.78,2.708,5.87,7.079,6.388,13.362.154,1.875.149,3.817.145,5.695v.543l.063.209a37.137,37.137,0,0,0,1.578,4.266l.611,1.375,1.389-.62a8.9,8.9,0,0,1,3.483-.63c.411-.01.814-.014,1.233-.014,3.353,0,6.939.305,10.406.6h.011c2.615.223,5.318.454,7.94.556l.036,0h.018l.505,0c6.364,0,10.977,1,14.518,3.145,3.813,2.31,6.554,6.018,8.627,11.669,11.12,32.395,15.69,67.283,19.723,98.063,2.287,16.1,2.983,32.6,3.656,48.554v.018c.71,16.84,1.445,34.254,4.044,51.276l.205,1.346,1.381-.089c6.073-.391,12.635-1.234,19.582-2.126h.012c10.562-1.357,21.483-2.76,32.041-2.76,14.763,0,25.954,2.9,34.213,8.866,5.757,5.417,8.735,12.754,8.613,21.216-.173,11.96-6.508,25.182-16.139,33.685l-.036.033c-12.174,11.484-34.395,21.445-66.046,29.6-29.107,7.5-59.213,11.582-74.567,13.345l-3.8.437,3.085,2.227c1.243.9,2.383,1.692,3.483,2.427l.706.471.774-.354a10.978,10.978,0,0,1,4.4-1.223c.7,0,1.542.152,1.588.874a1.221,1.221,0,0,1-1.018,1.264l-3.777.471,3.084,2.2c2.057,1.465,5.124,3.23,8.676,5.273l.018.01c11.645,6.7,29.243,16.825,26.216,25.717l-.2.584.281.551a4.891,4.891,0,0,1,.212,4.517c-1.437,3.1-5.932,5.458-9.749,6.417l-.065.016-.064.022A62.908,62.908,0,0,1,180.555,400.012Zm3.815-272.4-2.993.115c-.806,14.019-1.587,28.259-2.342,42.03-.3,5.466-.649,11.83-1,18.173-1.195,15.316-.782,27.713,1.3,39.013a26.89,26.89,0,0,1-3.321,16.158l-.89,1.536,1.693.591a31.407,31.407,0,0,0,10.478,1.6,90.1,90.1,0,0,0,11.743-1.025l2.186-.292-1.073-1.9a12.976,12.976,0,0,1-1.192-5.318v0l0-.037h0c-.045-.513-.091-1.043-.151-1.567-3.233-28.857-7.32-58.091-11.272-86.363l0-.011C186.546,143.288,185.433,135.325,184.37,127.612Z" transform="translate(26.831 -19.281)" fill="#d08b5b"/>
      <path id="_Shoes" data-name="ðŸ‘Ÿ Shoes" d="M156.821,89.4A19.215,19.215,0,0,1,153,89.078c-1.488-.226-7.64-2.087-12.9-3.753-6.292-1.993-11.52-3.762-12.713-4.3L105.627,68.416l-.667-.292-.751-.329-.636-.253a25.813,25.813,0,0,1-3.753-1.856,17.767,17.767,0,0,1-3.43-2.636,9.883,9.883,0,0,1-2.282-3.383,7.114,7.114,0,0,1-.31-4.1,13.653,13.653,0,0,0,.43-4.26,14.868,14.868,0,0,0-.575-2.956,9.357,9.357,0,0,1-.425-4.227A31.144,31.144,0,0,1,94.5,38.893a32.063,32.063,0,0,1,2.262-5.156,18.311,18.311,0,0,0,5.079,4.1,11.194,11.194,0,0,0,5.223,1.377,9.316,9.316,0,0,0,3.03-.5,10.156,10.156,0,0,0,2.821-1.517,13.173,13.173,0,0,0,2.513-2.539,18.812,18.812,0,0,0,2.108-3.569l.1-.2.1-.2c.183-.364.359-.73.546-1.117a24.416,24.416,0,0,1,2.279-4.045,7.39,7.39,0,0,1,3.615-2.76,6.171,6.171,0,0,1,3.385-1.111,3.944,3.944,0,0,1,2.691.988,2.4,2.4,0,0,0,.281-.666,114.533,114.533,0,0,0,8.741,7.837c3.407,2.882,10.235,8.555,17.7,14.158,4.155,3.121,8.485,5.949,12.673,8.683h0c3.848,2.512,7.482,4.886,10.6,7.242a50.9,50.9,0,0,1,4.233,3.529,24.307,24.307,0,0,1,3.178,3.565,10.739,10.739,0,0,1,1.311,2.94,31.719,31.719,0,0,1,.9,3.826c.217,1.23.378,2.493.455,3.558a8.005,8.005,0,0,1-.032,2.136,9.842,9.842,0,0,1-1.978,1.4c-.893.542-2.075,1.217-3.513,2.006-2.437,1.338-4.822,2.572-4.845,2.584l-.021.006c-3.825,1.033-7.068,1.755-9.116,2.178-2.555.528-4.946.947-7.1,1.244A51.833,51.833,0,0,1,156.821,89.4ZM15.942,48.027a3.872,3.872,0,0,1-1.966-.528A7.906,7.906,0,0,1,12.5,46.338l-.2-.194-.012-.011A3.953,3.953,0,0,0,9.7,44.648a2.3,2.3,0,0,0-.233.012c-.967.1-1.53.14-1.94.14a1.826,1.826,0,0,1-1.405-.445,10.727,10.727,0,0,1-2.389-3.319A34.031,34.031,0,0,1,1.72,36.087a41.492,41.492,0,0,1-1.34-5.2,16.9,16.9,0,0,1-.359-4.061,16.931,16.931,0,0,1,.828-3.484,18.034,18.034,0,0,1,1.514-3.214,23.6,23.6,0,0,1,4.82-5.642A48.025,48.025,0,0,1,22.142,6.173,88.178,88.178,0,0,1,31.22,3.4c3.018-.756,6.193-1.4,9.437-1.921A115.064,115.064,0,0,1,58.49,0C60.824,0,63.013.089,65,.265l.442,1.013c2.144,4.9,6.687,15.057,8.521,19.13a16.175,16.175,0,0,0-1.384-2.136c-.2-.259-.343-.385-.442-.385a.1.1,0,0,0-.08.038c-.2.222-.046,1.371.181,3.109a58.875,58.875,0,0,1,.618,7.457,38.571,38.571,0,0,1-.933,8.067c-.492,2.217-1.045,3.76-1.252,3.81a.141.141,0,0,1-.033,0,7.268,7.268,0,0,1-1.271-.389c-.662-.231-1.567-.546-2.618-.858a33.015,33.015,0,0,0-3.554-.858,23.174,23.174,0,0,0-4.089-.39,16.836,16.836,0,0,0-2.631.2c-1.039.165-2.19.336-3.409.516h0a153.42,153.42,0,0,0-18.1,3.488c-3.051.832-6.063,1.922-8.976,2.976a71.48,71.48,0,0,1-9.051,2.865A4.9,4.9,0,0,1,15.942,48.027Z" transform="translate(47.143 291.321)" fill="#fff"/>
      <path id="_Pants" data-name="ðŸ‘– Pants" d="M44.906,0,46.28.377l60.828,17c.389.254.678.438.956.607l.2.119,1.151.682-.268,1.309a37.366,37.366,0,0,0-.418,10.206l.016.236.033.48.048.654.017.223.331,4.033.062.809c.049.654.084,1.2.116,1.772l.007.132.047.926.018.4a77.984,77.984,0,0,1-.858,13.671l-.037.282-.105.791-.073.692-.305,2.827-.106,1.01A138.234,138.234,0,0,0,107,76l0,.243c.135,6.4,1.118,10.731,2.753,12.223l.05.044.043.037h.01a2.04,2.04,0,0,0,.935-.4l.214-.132c.132-.083.383-.241.5-.313l.128-.078a5.6,5.6,0,0,1,.66-.344,3.263,3.263,0,0,1,1.016-.266l.1-.006h.015l.093-.082a8.455,8.455,0,0,0,.867-.9l.113-.14.1-.126.658-.865.447-.772a16.547,16.547,0,0,0,.932-1.889l.1-.251.09-.229,3.9-10.089-.268,10.812c-.091,3.671,1.284,5.574,2.977,5.593,1.782.02,3.606-1.935,4.133-5.408l.018-.12,3.731.472a13.615,13.615,0,0,0,1.782,7.556c.542.842,1.051,1.238,1.416,1.269.441.037,1.136-.374,2.069-1.573h0l-.019.024.04-.056a10.346,10.346,0,0,0,1.5-4.933l.017-.159.015-.158,1.307-13.72,2.417,13.569q.356,2,.8,4.01l.056.25.041-.015a2.756,2.756,0,0,0,.335-.163l.058-.033.054-.032a7.467,7.467,0,0,0,2.14-2.124l.036-.063.432-.786.884-.158a1.152,1.152,0,0,0,.436-.182l.042-.032.635-.517.812.113c11.839,1.642,20.559.258,26.108-5.546l.167-.177.865-.929,1.186.454c5.275,2.021,76.106-6.895,82.016-7.448l1.311-.121,1.1-.1a252.141,252.141,0,0,1,25.641-.6l.515.006.717.043.661.042a67.968,67.968,0,0,1,16.869,2.846c6.038,1.976,10.807,5.05,14.181,9.517l.151.2.164.249c4.429,6.828,5.764,15.066,4.225,23.689a48.079,48.079,0,0,1-10.322,21.843l-.167.2-.3.376c-11.017,13.569-33.7,24.477-65.21,33.152l-.958.262-.983.266c-23.349,6.289-49.582,10.907-75.266,14l-.8.1-1.587.188-5.3.62,3.374-3.429-.015-.005c-.351-.115-5.775,1.011-5.775,1.011l-1.159-.963c-.665-.556-1.165-.985-1.639-1.41l-.223-.2-.892-.819.161-1a.232.232,0,0,0-.04-.1l-.016-.028s-3.922-4.582-4.226-4.848l-.051-.044-.074-.062L153,166.3c-.708-.528-8.1-.274-8.1-.274s-5.1-8.645-5.769-9.558l-.161-.22-1.67-.012.632-1.061a13.2,13.2,0,0,0,1.725-5.189l.023-.2.014-.129-.1.07a2.931,2.931,0,0,0-1.259,1.408l-.015.054-.011.045-.01.047-.054.2a11.752,11.752,0,0,1-4.8,6.508c-1.693,1.191-26.034,9.665-32.058,11.2l-.42.106-1.5.378-1.076-2.284q-2.484-5.3-6.437-14.17l-1.3-2.918-1.332-3.008-6.344-3.718-4.357.073-2.541.047-.38.008-2.4.052-.433.046a129.77,129.77,0,0,0-29.116,6.5l-.471.166-.491.176-.262.085-.466.153c-6.554,2.174-10.931,4.39-14.072,7.335-3.648,3.42-5.591,7.89-5.85,14.1l-.008.2-.153,4.276-3.048-3.007C9.843,164.832,3.9,152.681,1.367,138.838a87.205,87.205,0,0,1,1.8-38.641l.052-.183.009-.124A62.065,62.065,0,0,1,5.089,89.1l.093-.361.1-.363c.705-2.667,1.406-4.956,2.665-8.765l.14-.422,1.671-5.005A387.464,387.464,0,0,1,43.749,1.919l.422-.7Z" transform="translate(25.703 149.054)" fill="#78e185"/>
      <path id="_Ink" data-name="ðŸ– Ink" d="M182.054,395.629h0a65.331,65.331,0,0,1-13.406-1.391,90.667,90.667,0,0,1-18.839-6.36c-2.82-1.276-5.74-2.721-8.928-4.418-2.586-1.377-5.344-2.916-8.679-4.844-.506-.286-1.022-.575-1.569-.88l-.03-.017h0c-2.087-1.165-4.452-2.486-6.67-3.945a31.815,31.815,0,0,1-5.989-4.886,15.84,15.84,0,0,1-2.128-2.867,10.931,10.931,0,0,1-1.224-3.188,9.922,9.922,0,0,1-.076-3.537,13.139,13.139,0,0,1,1.316-3.915,15.067,15.067,0,0,1-1.767-7.259,11.658,11.658,0,0,1,2.309-7.017c-3.471.368-6.982.868-10.377,1.352h0c-3.8.541-7.731,1.1-11.619,1.477a2.476,2.476,0,0,1-1.06,1.619,3.5,3.5,0,0,1-1.9.444,21.632,21.632,0,0,1-4.206-.655l-.357-.078a25.044,25.044,0,0,0-5.191-.732,9.112,9.112,0,0,0-2.063.216,2.741,2.741,0,0,1-1.96.78,2.6,2.6,0,0,1-1.6-.519,116.575,116.575,0,0,0-27.957,6.233l-.144.062c-1.553.669-3.159,1.361-4.763,1.883a15.558,15.558,0,0,1-4.784.876,8.7,8.7,0,0,1-6.35-2.643,8.767,8.767,0,0,1-4.575-1.308,11.2,11.2,0,0,1-3.324-3.258,17.1,17.1,0,0,1-2.111-4.356,20.208,20.208,0,0,1-.935-4.6,54.439,54.439,0,0,1-4.321-4.038,53.1,53.1,0,0,1-3.731-4.34,53.763,53.763,0,0,1-3.178-4.611c-.953-1.55-1.848-3.183-2.661-4.853A63.75,63.75,0,0,1,3.29,309.742a80.475,80.475,0,0,1-2.283-10.923,106.443,106.443,0,0,1-.941-11.295c-.116-3.588-.079-7.433.11-11.429.169-3.574.453-7.278.87-11.324.345-3.348.783-6.94,1.34-10.982.964-7.847,2.021-16.26,3.215-24.612,1.3-9.105,2.624-17.144,4.043-24.575,1.67-8.744,3.474-16.675,5.514-24.247,1.1-4.076,2.279-8.083,3.509-11.909,1.288-4.006,2.673-7.949,4.118-11.718a35.279,35.279,0,0,1-12.087-6.79,8.591,8.591,0,0,1-2.689-1.81,14.035,14.035,0,0,1-2.121-2.681,21.551,21.551,0,0,1-1.576-3.1A26.376,26.376,0,0,1,3.258,139.3a8.831,8.831,0,0,1-.935-3.492,12.716,12.716,0,0,1,.278-3.557c-.315-2.519.686-5.048,1.653-7.493.422-1.068.859-2.172,1.165-3.236,1.117-3.2,2.234-6.459,3.314-9.611l.005-.015c2.424-7.073,4.93-14.387,7.6-21.513a3.527,3.527,0,0,1-1.2-1.743,3.727,3.727,0,0,1,.013-1.916,14.742,14.742,0,0,1,1.932-3.943,22.107,22.107,0,0,0,1.194-2.1,150.116,150.116,0,0,1,8.187-12.656,87.632,87.632,0,0,1,6.177-9.9,80.628,80.628,0,0,1,7.189-8.62,76.85,76.85,0,0,1,8.129-7.331,76.036,76.036,0,0,1,9-6.028,78.039,78.039,0,0,1,9.792-4.712,82.73,82.73,0,0,1,10.515-3.382,90.027,90.027,0,0,1,11.166-2.039,99.89,99.89,0,0,1,11.745-.683h.235a22.3,22.3,0,0,0,3.069-2.221,24.2,24.2,0,0,0,2.617-2.641,28.06,28.06,0,0,0,2.208-2.985,33.99,33.99,0,0,0,1.842-3.255,47.07,47.07,0,0,0,2.76-7.021c.672-2.173,1.266-4.529,1.815-7.2a22.81,22.81,0,0,1,.69,4.708,26.364,26.364,0,0,1-.251,4.878,29.051,29.051,0,0,1-1.136,4.86,29.961,29.961,0,0,1-1.966,4.654,28.927,28.927,0,0,1-2.739,4.261,26.547,26.547,0,0,1-3.456,3.68,23.9,23.9,0,0,1-4.117,2.912,22.074,22.074,0,0,1-4.722,1.956c1.214,1.737,2.275,3.623,3.3,5.447v0c.591,1.051,1.2,2.137,1.835,3.181a33.9,33.9,0,0,0,13.741,12.085,41.217,41.217,0,0,0,8.9,3.217,40.79,40.79,0,0,0,9.385,1.11,36.866,36.866,0,0,0,7.063-.671,32.277,32.277,0,0,0,6.677-2.062,18.4,18.4,0,0,0,8.69-10.6,31.963,31.963,0,0,0,1.554-6.889,45.617,45.617,0,0,0,.263-6.967,2.65,2.65,0,0,1-1.891.986,3.128,3.128,0,0,1-2.247-1.306,13.4,13.4,0,0,1-1.871-3.049,31.853,31.853,0,0,1-2.093-6.113,22.249,22.249,0,0,1-.442-5.906,18.745,18.745,0,0,1,1.277-5.775.251.251,0,0,1,.234-.17.246.246,0,0,1,.245.232,49.632,49.632,0,0,0,1.117,6.355,37.079,37.079,0,0,0,2.072,6.113,10.361,10.361,0,0,1,4.08-.762c.405-.01.828-.014,1.255-.014,3.421,0,7.043.309,10.546.607h0c2.6.222,5.287.451,7.872.552l.5,0a41.128,41.128,0,0,1,8.489.768,21.5,21.5,0,0,1,6.819,2.6,18.121,18.121,0,0,1,2.832,2.121,19.819,19.819,0,0,1,2.474,2.744,25.105,25.105,0,0,1,2.135,3.421,35.158,35.158,0,0,1,1.816,4.153c1.325,3.858,2.6,7.886,3.8,11.971,1.141,3.9,2.244,7.975,3.278,12.118,1.915,7.671,3.641,15.706,5.278,24.565,2.956,16,5.118,31.973,7.44,49.694.552,3.881,1.024,7.85,1.445,12.133.375,3.815.7,7.794.992,12.165.544,8.12.893,16.387,1.23,24.382v.009c.354,8.4.721,17.084,1.314,25.607.32,4.589.678,8.767,1.095,12.773.468,4.5,1,8.662,1.62,12.733,6.026-.388,12.567-1.228,19.493-2.118h0c5.228-.671,10.633-1.366,16.052-1.89,6.122-.593,11.417-.881,16.185-.881,3.407,0,6.65.15,9.641.445a69.14,69.14,0,0,1,9.2,1.51,51.106,51.106,0,0,1,8.576,2.834,43.1,43.1,0,0,1,4,2,40.154,40.154,0,0,1,3.769,2.424,28.153,28.153,0,0,1,7.092,10.406,31.536,31.536,0,0,1,2.056,11.955,45.45,45.45,0,0,1-4.845,19.089,53.021,53.021,0,0,1-5.234,8.541,48.031,48.031,0,0,1-6.559,7.139,63.033,63.033,0,0,1-5.805,4.818c-2.06,1.52-4.337,3.031-6.768,4.492-2.353,1.414-4.914,2.819-7.611,4.177-2.606,1.311-5.41,2.613-8.335,3.87-5.536,2.379-11.714,4.687-18.363,6.859-6.129,2-12.8,3.936-19.824,5.747-12.218,3.15-25.745,6-40.2,8.461-6.029,1.028-12.242,1.991-18.467,2.865-5.386.756-10.8,1.447-16.1,2.055,1.228.887,2.353,1.67,3.438,2.4a12.651,12.651,0,0,1,5.031-1.361,4.524,4.524,0,0,1,1.357.189,2.758,2.758,0,0,1,.947.5,2.177,2.177,0,0,1,.787,1.572,2.735,2.735,0,0,1-.575,1.816,2.619,2.619,0,0,1-1.757,1c2,1.425,5.046,3.177,8.572,5.2,6.13,3.527,13.76,7.915,19.361,12.637a38.888,38.888,0,0,1,3.778,3.6,20.758,20.758,0,0,1,2.723,3.7,11.1,11.1,0,0,1,1.353,3.754,7.941,7.941,0,0,1-.333,3.768,6.347,6.347,0,0,1,.257,5.751,8.87,8.87,0,0,1-1.83,2.558,14.913,14.913,0,0,1-2.685,2.094,22.549,22.549,0,0,1-6.251,2.628,64.265,64.265,0,0,1-10.471,2.674A65.3,65.3,0,0,1,182.054,395.629ZM116.969,357.3a8.869,8.869,0,0,0-.043,2.451,8.59,8.59,0,0,0,.589,2.212,10.3,10.3,0,0,0,1.108,1.992,14.048,14.048,0,0,0,1.516,1.789,35.594,35.594,0,0,0,7.888,5.48c4.621,2.885,8.832,5.336,12.874,7.492,2.3,1.225,4.573,2.371,6.766,3.406,2.351,1.11,4.686,2.13,6.942,3.033,2.4.959,4.78,1.817,7.087,2.55,2.432.773,4.855,1.432,7.2,1.958a72.45,72.45,0,0,0,7.281,1.255,62.493,62.493,0,0,0,7.33.443h0c1.85,0,3.7-.089,5.5-.266a53.473,53.473,0,0,0,5.5-.829,52.293,52.293,0,0,0,5.481-1.438,53.05,53.05,0,0,0,5.451-2.094l.056-.023a16.476,16.476,0,0,0,2.761-1.38,4.543,4.543,0,0,0,1.908-2.3,63.844,63.844,0,0,1-12.193,3.611,67.752,67.752,0,0,1-12.727,1.2,67.06,67.06,0,0,1-12.722-1.211c-.557-.142-1.181-.259-1.841-.383a18.98,18.98,0,0,1-3.991-1.055,4.2,4.2,0,0,1-2.581-2.612c-3.929-1.747-7.92-3.506-11.78-5.207l0,0c-6.251-2.755-12.715-5.6-19.047-8.461C127.132,366.116,120.811,362.912,116.969,357.3Zm2.462-16.59a15.748,15.748,0,0,0-1.179,2.7,12.1,12.1,0,0,0-.54,2.547,10.585,10.585,0,0,0,.59,4.66,13,13,0,0,0,1.472,2.85,18.257,18.257,0,0,0,2.16,2.6,31.771,31.771,0,0,0,5.763,4.467,61.322,61.322,0,0,0,6.658,3.545c2.37,1.1,4.62,2.01,6.315,2.681,5.487,2.4,11.4,5,17.123,7.519l.008,0,.022.01,8.439,3.71.4.182c1.191.54,2.421,1.1,3.66,1.559a19.273,19.273,0,0,0,3.839,1.038,54.436,54.436,0,0,0,11.03,1.094,68.326,68.326,0,0,0,12.163-1.141c2.27-.412,4.569-.935,7.026-1.6.265-.072.559-.139.87-.21h0a15.137,15.137,0,0,0,1.927-.531,3.392,3.392,0,0,0,1.52-.987,4.288,4.288,0,0,0-.13-2.527,9.726,9.726,0,0,0-1.547-2.75,23.669,23.669,0,0,0-2.706-2.908c-1.017-.943-2.231-1.953-3.607-3-2.359-1.8-5.265-3.77-8.881-6.025-3.159-1.97-6.465-3.911-9.381-5.622-4.8-2.817-8.946-5.251-10.945-6.913-.5.117-.917.22-1.3.323a55.483,55.483,0,0,0-8.2,2.974.252.252,0,0,1-.1.023.2.2,0,0,1-.184-.115.213.213,0,0,1,.034-.229,28.385,28.385,0,0,1,6.2-5.547,66.4,66.4,0,0,1-6.928-5.994,33.4,33.4,0,0,0-4.282,1.424c-1.282.52-2.63,1.145-4.118,1.911-.273,0-.413-.084-.418-.248-.007-.254.3-.7.926-1.314a24.755,24.755,0,0,1,2.113-1.826,17.074,17.074,0,0,1,3.545-2.344,45.418,45.418,0,0,1-3.976-5.386l0-.006c-.516-.777-1.049-1.579-1.6-2.357a2.4,2.4,0,0,1-.281.666,3.944,3.944,0,0,0-2.691-.988,6.171,6.171,0,0,0-3.385,1.111,7.39,7.39,0,0,0-3.615,2.76,24.416,24.416,0,0,0-2.279,4.045c-.257.533-.5,1.036-.754,1.524a18.812,18.812,0,0,1-2.108,3.569,13.173,13.173,0,0,1-2.513,2.539,10.158,10.158,0,0,1-2.821,1.517,9.318,9.318,0,0,1-3.03.5,11.19,11.19,0,0,1-5.223-1.376,18.314,18.314,0,0,1-5.079-4.1ZM78.694,312.682a101.241,101.241,0,0,0-15.327,1.113,64.015,64.015,0,0,0-14.8,3.969,40.17,40.17,0,0,0-6.429,3.351,29.585,29.585,0,0,0-5.367,4.421,24.3,24.3,0,0,0-3.993,5.608,24.648,24.648,0,0,0-2.309,6.914,17.191,17.191,0,0,0,.045,3.122,15.724,15.724,0,0,0,.65,3.131,12.582,12.582,0,0,0,1.327,2.884,9.982,9.982,0,0,0,2.075,2.38,6.008,6.008,0,0,0,4,1.448c2.158,0,4.4-.956,6.57-1.88a33.168,33.168,0,0,1,3.293-1.272c3.067-1.067,6.248-2.017,9.456-2.824,3.143-.79,6.392-1.464,9.657-2-.055-2.267-.117-4.836-.307-7.349a48.145,48.145,0,0,0-1.044-7.245c.237-.469.51-.707.809-.707a1.1,1.1,0,0,1,.74.412c1.238,1.289,2.534,5.27,3.2,7.529.421,1.434.818,2.96,1.119,4.3a14.748,14.748,0,0,1,.414,2.362c.906-.112,1.81-.215,2.686-.3-.1-2.993-.122-5.286-.07-7.435a64.465,64.465,0,0,1,.567-7.406.191.191,0,0,1,.19-.174.179.179,0,0,1,.171.127,65.351,65.351,0,0,1,2.41,7.575,10.862,10.862,0,0,1,.56,2.374,10.364,10.364,0,0,0,.594,2.454,3.474,3.474,0,0,0,.642,1,3.147,3.147,0,0,0,1.057.74,25.1,25.1,0,0,0,5.074,1.321h0c1.043.195,2.121.4,3.162.677a8.4,8.4,0,0,0,1.575-.215.686.686,0,0,0,.556-.716A.8.8,0,0,0,91,341.59a4.573,4.573,0,0,0,.163-.533l.2-.012h.032l.2-.013a6.276,6.276,0,0,1-.083-2.32,20.581,20.581,0,0,1,.5-2.344h0a10.932,10.932,0,0,0,.494-4.483,12.321,12.321,0,0,0-1.16-4.818,13.666,13.666,0,0,0-2.829-3.967,15.4,15.4,0,0,0-4.043-2.849,15.728,15.728,0,0,0-4.8-1.464.308.308,0,0,1-.244-.316.322.322,0,0,1,.244-.333,9.806,9.806,0,0,1,2.034-.21,13.053,13.053,0,0,1,6.335,1.8,16.813,16.813,0,0,1,2.737,1.931,15.994,15.994,0,0,1,2.216,2.337,16.182,16.182,0,0,1,1.384,2.136c-2.083-4.624-3.967-8.881-5.76-13.013C85.374,312.827,82.037,312.682,78.694,312.682Zm6.391-7.794a3.428,3.428,0,0,1-1.984,1.081,12.577,12.577,0,0,1-2.4.174c-.485,0-.943.009-1.383.043A126.177,126.177,0,0,0,63.041,308.3c-1.177.288-2.378.574-3.54.851a149.484,149.484,0,0,0-15.914,4.422,55.961,55.961,0,0,0-7.49,3.277c-1.22.652-2.39,1.35-3.477,2.075a35.972,35.972,0,0,0-3.241,2.43,13.487,13.487,0,0,0-2.467,3.481,19.065,19.065,0,0,0-1.471,4.12,29.546,29.546,0,0,0-.641,8.639,16.95,16.95,0,0,0,1.55,6.013,19.837,19.837,0,0,0,3.461,5.093,30.057,30.057,0,0,1-1.913-6.123,22.008,22.008,0,0,1-.372-5.554,19.024,19.024,0,0,1,1.006-5,19.98,19.98,0,0,1,2.222-4.459,28.94,28.94,0,0,1,8.7-8.2,54.743,54.743,0,0,1,12.218-5.65,84.281,84.281,0,0,1,13.815-3.267c2.29-.349,4.614-.616,6.907-.792,2.237-.172,4.453-.259,6.587-.259a64.01,64.01,0,0,1,8.235.493l-.085-.2C86.5,308.21,85.782,306.536,85.085,304.888Zm53.708,14.75a23.188,23.188,0,0,1-3.928,3.036,37.422,37.422,0,0,1-4.6,2.411,107.015,107.015,0,0,1-10.067,3.691c-2.11.695-4.1,1.35-5.982,2.059.6.637,1.206,1.281,1.789,1.9l.023.024a78.8,78.8,0,0,0,6.887,6.818,16.806,16.806,0,0,0,3.218,2.155,7,7,0,0,0,3.092.8,5.2,5.2,0,0,0,2.332-.557,7.891,7.891,0,0,0,2.275-1.792,17.109,17.109,0,0,0,2.227-3.211,38.261,38.261,0,0,0,2.188-4.811,15.865,15.865,0,0,1,1.988-2.825,12.967,12.967,0,0,1,2.6-2.271,33.242,33.242,0,0,1-4.035-7.436ZM96.4,332.918h0a18.138,18.138,0,0,1-.316,5.609,1.85,1.85,0,0,1,.991.778,2.015,2.015,0,0,1,.308,1.227c.49-.055,1.228-.14,1.971-.234,2.218-.276,4.463-.6,6.633-.914h0c3.636-.525,7.4-1.069,11.116-1.4a48.591,48.591,0,0,1-4.215-6.724c-3.206,1.01-6.434,1.957-9.594,2.814a11.159,11.159,0,0,1-3.718.793A3.065,3.065,0,0,1,96.4,332.918Zm70.729,1.3h0a3.1,3.1,0,0,1,2.623,1.117,1.369,1.369,0,0,1-.223,1.8c5.349-.626,10.8-1.333,16.21-2.1,6.46-.918,12.883-1.93,19.092-3.007,15.292-2.652,29.451-5.722,42.083-9.125,7.373-1.986,14.308-4.111,20.615-6.315a188.642,188.642,0,0,0,18.747-7.615c2.945-1.4,5.738-2.858,8.3-4.325,2.659-1.522,5.145-3.1,7.389-4.687a65.593,65.593,0,0,0,6.329-5.062,56.324,56.324,0,0,0,8.588-10.145,47.824,47.824,0,0,0,2.908-5.181,46.02,46.02,0,0,0,2.239-5.533,41.963,41.963,0,0,0,1.462-5.752,34.257,34.257,0,0,0,.162-11.627,27.916,27.916,0,0,0-4.241-10.9,22.186,22.186,0,0,0-2.892-3.189,24.33,24.33,0,0,0-3.365-2.549,29.129,29.129,0,0,0-3.744-1.984,36.8,36.8,0,0,0-4.029-1.5,54.307,54.307,0,0,0-8.535-1.834c-2.5-.351-5.218-.6-8.543-.8-.891-.012-1.8-.018-2.7-.018-4.307,0-8.7.13-13.431.4-4.213.237-8.6.579-13.407,1.044-8.933.864-17.99,2.034-26.749,3.165-5.8.749-11.8,1.524-17.692,2.2-2.37.358-4.836.814-7.22,1.255-5.806,1.073-11.809,2.182-17.684,2.182a33.856,33.856,0,0,1-12.3-2.087,19.428,19.428,0,0,1-4.111,3.349,22.217,22.217,0,0,1-4.716,2.141,29.184,29.184,0,0,1-5.12,1.135,40.552,40.552,0,0,1-5.325.333,62.687,62.687,0,0,1-8.64-.654,3.019,3.019,0,0,1-1.334.607c-.643,1.168-2.81,3.443-4.486,3.443a1.711,1.711,0,0,1-1.587-1.176c-.354-1.563-.672-3.135-.946-4.672a12.7,12.7,0,0,1-1.938,6.255c-1.187,1.527-2.366,2.3-3.5,2.3a3.217,3.217,0,0,1-2.379-1.245,11.511,11.511,0,0,1-2.23-4.607,17.313,17.313,0,0,1-.492-2.674,11.583,11.583,0,0,1-.016-2.388,9.907,9.907,0,0,1-2.283,5.345,5.08,5.08,0,0,1-3.7,1.8,3.989,3.989,0,0,1-1.58-.323,4.363,4.363,0,0,1-1.4-.974,6.215,6.215,0,0,1-1.422-2.462,11.314,11.314,0,0,1-.479-3.759,18.924,18.924,0,0,1-1.251,2.632c2.72,6.625,5.79,13.24,8.759,19.638,2.6,5.608,5.295,11.407,7.74,17.192,1.316,3.113,2.458,5.974,3.491,8.746,1.159,3.111,2.152,6.031,3.035,8.925a48.516,48.516,0,0,0,10.971-3.749c6.086-3.293,12.192-6.807,18.1-10.2,5.042-2.9,10.256-5.9,15.44-8.755,5.814-3.2,10.971-5.87,15.766-8.163,1.337-.693,4.139-1.966,7.313-3.323,2.785-1.191,7.156-3,12.161-4.871,7.718-2.882,18.085-6.317,23.647-6.317a7.248,7.248,0,0,1,2.458.345,2.1,2.1,0,0,1,1.294,1.111,2.6,2.6,0,0,1-.346,2.023,2.058,2.058,0,0,1-1.384.971c-2.889.443-5.841,1.016-8.773,1.7-2.8.654-5.666,1.434-8.533,2.317a162.973,162.973,0,0,0-16.482,6.129C208,272.239,202.786,274.7,196.9,277.7c-5.25,2.668-10.542,5.5-15.66,8.24h0c-6.3,3.371-12.811,6.857-19.306,10.069-3.5,1.729-6.707,3.242-9.817,4.627-3.491,1.554-6.766,2.908-10.012,4.138a23.3,23.3,0,0,1,.3,6.541,16.49,16.49,0,0,1-.658,3.187,14.358,14.358,0,0,1-1.35,3.021c1.4,1.937,2.916,3.822,4.377,5.645l0,0c.627.782,1.275,1.59,1.907,2.393.087,0,.18,0,.275,0a21.862,21.862,0,0,0,2.286-.167l.017,0a22.114,22.114,0,0,1,2.344-.169,7,7,0,0,1,1.806.209,4.488,4.488,0,0,1,1.639.8,14.077,14.077,0,0,1,1.916,2.06v0c.2.248.41.5.618.748a8.065,8.065,0,0,0,1.054,1.216c.828.841,1.683,1.71,1.5,2.834.789.725,1.609,1.413,2.382,2.054.351-.08.735-.185,1.141-.3A13.773,13.773,0,0,1,167.131,334.218ZM46.629,163.571c-3.466,5.738-6.82,11.62-9.97,17.482-3.171,5.9-6.22,11.943-9.061,17.954-2.863,6.057-5.591,12.244-8.108,18.389-2.538,6.2-4.931,12.517-7.112,18.786-.294.887-.6,1.794-.866,2.593C10.275,242.467,9,246.284,7.981,250.1c-.547,2.054-.974,3.939-1.307,5.763a52.424,52.424,0,0,0-.748,5.863A81.951,81.951,0,0,0,3.873,270.9a86.436,86.436,0,0,0-.983,19.3,82.115,82.115,0,0,0,1.175,9.688,70.816,70.816,0,0,0,5.943,18.37,56.836,56.836,0,0,0,11.082,15.579,29.4,29.4,0,0,1,.574-4.929,22.014,22.014,0,0,1,1.3-4.183,19.1,19.1,0,0,1,1.977-3.527,19.822,19.822,0,0,1,2.6-2.96,27.983,27.983,0,0,1,6.831-4.583,63.08,63.08,0,0,1,8.648-3.4,131.529,131.529,0,0,1,31-6.99c1.088-.026,2.24-.166,3.354-.3a32.517,32.517,0,0,1,3.856-.314,10.1,10.1,0,0,1,3.091.426c-6.01-14.4-10.762-26.353-14.956-37.625-5.1-13.706-9.308-26.251-12.868-38.354-.825-.2-1.662-.418-2.472-.628-1.744-.451-3.546-.918-5.335-1.263a28.483,28.483,0,0,0-5.4-.576,19.1,19.1,0,0,0-3.292.274.257.257,0,0,1-.041,0,.261.261,0,0,1-.248-.192.2.2,0,0,1,.111-.226,19.243,19.243,0,0,1,9.265-2.044,45.29,45.29,0,0,1,6.3.507c-2.008-7.6-3.854-15.145-6.008-24.143.029-.136.073-.205.131-.205.126,0,.29.352.32.531.056-.268.144-.4.262-.4.188,0,.455.343.8,1.019a24.46,24.46,0,0,1,.966,2.291c.643,1.715,1.2,3.508,1.287,3.811,2.863,8.635,5.823,17.273,8.8,25.674,3.036,8.575,6.176,17.153,9.332,25.5,3.219,8.508,6.548,17.016,9.894,25.289,3.41,8.43,6.937,16.86,10.484,25.056,3.675,8.414,6.76,15.244,9.709,21.493,3.3-.831,6.645-1.77,10.232-2.872,3.184-.978,6.485-2.063,10.092-3.316.979-.374,2-.72,3.087-1.087h0a37.62,37.62,0,0,0,7.668-3.232,12.2,12.2,0,0,0,3.016-2.537,9.29,9.29,0,0,0,1.868-3.586,15.932,15.932,0,0,0,.335-2.983,24.033,24.033,0,0,0-.164-3.265,43.983,43.983,0,0,0-1.514-7.151,158.8,158.8,0,0,0-5.6-15.22,130.254,130.254,0,0,1-4.611-12.444c-1.214-3.889-2.829-7.7-4.39-11.382a123.225,123.225,0,0,1-4.426-11.5,10.084,10.084,0,0,1-2.222,2.146.544.544,0,0,0-.383-.147,3,3,0,0,0-1.311.6l-.261.164a4.075,4.075,0,0,1-2.061.767,2.109,2.109,0,0,1-.922-.214,5.961,5.961,0,0,1-1.82-2.261,15.146,15.146,0,0,1-1.172-3.5,46.2,46.2,0,0,1-.839-9.377,171.6,171.6,0,0,1,1.254-18.751v0c.076-.7.142-1.306.2-1.836.3-2.253.638-4.915.837-7.58a58.743,58.743,0,0,0,.116-7.621c-.081-1.711-.228-3.458-.369-5.148-.2-2.371-.4-4.823-.435-7.232a33.633,33.633,0,0,1,.6-7.191c-.577-.342-1.147-.718-1.7-1.081-.314-.207-.638-.42-.956-.623a21.287,21.287,0,0,1-4.618-.991h0c-.845-.248-1.719-.5-2.577-.69-11.943-3.161-24.05-6.511-35.757-9.751h0C57.323,166.517,51.933,165.026,46.629,163.571ZM95.4,328.424h0a17.789,17.789,0,0,1,.951,4.045,2.06,2.06,0,0,1,.292-.891l0,0c.033-.065.064-.127.094-.19l-.508-1.121-.12-.265ZM132.7,222.083h0a1.893,1.893,0,0,1,1.345.541,1.381,1.381,0,0,1,.392,1.033c-.138,3.716-.294,7.471-.444,11.1l0,.086c-.076,1.835-.154,3.733-.23,5.6-.022.54-.064,1.121-.109,1.737h0c-.237,3.277-.531,7.355,1.9,9.6,2.025-1.923,2.14-4.827,2.251-7.635a27.123,27.123,0,0,1,.252-3.225l.529-6.029.134-1.526.775-8.833a1.6,1.6,0,0,1,.6-1.149A1.847,1.847,0,0,1,141.23,223a1.571,1.571,0,0,1,1.143.451,1.422,1.422,0,0,1,.362,1.085c-.145,4.088-.122,7.722.071,11.11a66.524,66.524,0,0,0,1.414,10.781c.1.522.2,1.04.283,1.433.063-.076.131-.158.2-.244a2.633,2.633,0,0,1-.409-1.162,1.676,1.676,0,0,0,1.261-.671,5.094,5.094,0,0,0,.91-2.293,7.855,7.855,0,0,0,.054-2.416c.126-1.568.169-3.175.211-4.729.021-.762.042-1.55.072-2.318.139-3.481.209-6.34.223-9,.017-3.263-.054-6.209-.216-9a83.852,83.852,0,0,0-2.778-17.756,59.092,59.092,0,0,0-2.074-6.336,52.593,52.593,0,0,0-2.6-5.624,53.672,53.672,0,0,0-6.652-9.629c-1.22-1.423-2.525-2.818-3.989-4.265-1.331-1.316-2.766-2.648-4.389-4.072-3.133-2.75-6.584-5.5-9.85-8.083-3.619-3.025-7.377-6.045-11.49-9.232-3.662-2.837-7.52-5.741-11.794-8.878-7.94-5.826-16.123-11.57-24.036-17.125-3.8-2.671-7.739-5.433-11.59-8.164a1.861,1.861,0,0,1-.372.039,1.488,1.488,0,0,1-1.142-.516,1.868,1.868,0,0,1-.4-1.5c.507-2.381,2.628-4.6,4.679-6.746a31.861,31.861,0,0,0,2.959-3.384,3.267,3.267,0,0,1-.737.084,7.485,7.485,0,0,1-3.782-1.551h0c-.383-.243-.745-.473-1.107-.676-1.619-.907-3.286-1.8-4.955-2.649-2.207-1.151-4.53-2.277-6.9-3.346-2.26-1.018-4.64-2.018-7.073-2.972-4.486-1.759-9.231-3.4-14.506-5.022-3.183,8.185-6.09,16.614-8.9,24.765-1.249,3.622-2.541,7.368-3.845,11.056-.306.808-.579,1.66-.843,2.485a20.142,20.142,0,0,1-2.708,6.067c-.514,4.933,2.461,9.284,5.048,12.066a27.892,27.892,0,0,0,8.913,5.886,76.458,76.458,0,0,0,10.243,3.425c15.595,4.243,33.718,9.182,51.456,14.1,2.279.647,4.605,1.27,6.856,1.872l.011,0c4.126,1.1,8.392,2.245,12.524,3.581.612.2,1.273.362,1.913.524,2.415.611,4.912,1.243,6.086,3.553.015-.041.043-.12.081-.229l0-.009v0c.172-.49.574-1.638,1.009-2.641.542-1.249.962-1.883,1.247-1.883.144,0,.255.165.329.489a22.36,22.36,0,0,0-1.285,7.759,49.194,49.194,0,0,0,.688,7.9c.1.632.2,1.276.3,1.9l.011.069a118.29,118.29,0,0,1,1.46,12.01c-.139,4.875-.57,9.825-.987,14.613v0c-.411,4.719-.836,9.6-.981,14.4-.078,2.587-.07,4.947.023,7.214.1,2.544.313,4.908.638,7.227a9.383,9.383,0,0,0,2.339-2.409,12.764,12.764,0,0,0,1.463-2.975,37.468,37.468,0,0,0,1.448-6.775,47.859,47.859,0,0,1,.873-4.744c.587-2.968,1.267-6.119,2.139-9.915a1.612,1.612,0,0,1,.673-1,1.982,1.982,0,0,1,1.115-.321,2.093,2.093,0,0,1,1.52.614,1.545,1.545,0,0,1,.405,1.2c-.328,4.45-.429,8.981-.527,13.362-.015.675-.032,1.44-.05,2.172a27.457,27.457,0,0,1-.094,3.635c-.2,3.26-.455,7.316.906,8.244a1.758,1.758,0,0,0,.736.178,1.636,1.636,0,0,0,1.275-.718,6.163,6.163,0,0,0,.9-1.8,31.918,31.918,0,0,0,1.063-4.708,19.257,19.257,0,0,1,.464-2.256c1.1-5.092,2.13-10.265,3.069-15.377A1.4,1.4,0,0,1,132.7,222.083Zm51.931-98.611h0c-.8,13.984-1.584,28.206-2.338,41.959l0,.034c-.311,5.66-.662,12.075-1,18.212a190.56,190.56,0,0,0-.621,19.406c.079,3.321.27,6.576.569,9.673.318,3.292.769,6.531,1.341,9.628a30.146,30.146,0,0,1-.4,8.815,26.929,26.929,0,0,1-3.1,8.276,29.918,29.918,0,0,0,9.974,1.514c1.741,0,3.64-.1,5.806-.316,1.885-.185,3.713-.424,5.735-.695a14.252,14.252,0,0,1-1.377-5.918v0c-.045-.514-.091-1.045-.15-1.561-1.45-12.938-3.2-27.067-5.339-43.2-1.911-14.383-3.954-28.993-5.929-43.122-1.04-7.436-2.115-15.125-3.16-22.708Zm27.057-32.7A76.639,76.639,0,0,0,198.247,94.4a68.182,68.182,0,0,0-12.457,6.117c-.124,3.849-.314,8-.6,13.078,1.618,7.232,3.006,14.363,4.4,21.641,2.651,14.155,5.13,29.043,7.578,45.516,2.017,13.573,4,28.1,6.234,45.716.09,1.5.333,3.036.569,4.523h0c.219,1.382.446,2.81.55,4.211a16.312,16.312,0,0,1-.164,4.174c5.861-1.079,13.6-2.43,21.483-3.313-.618-4.093-1.135-8.279-1.581-12.8-.4-4.026-.728-8.226-1.012-12.842-.527-8.573-.807-17.31-1.077-25.761v0c-.275-8.615-.56-17.523-1.108-26.268-.295-4.707-.64-8.992-1.056-13.1-.467-4.611-1.009-8.882-1.659-13.057-.771-6.239-1.768-13.035-3.05-20.777C214.16,104.552,212.9,97.547,211.684,90.773Zm-56.2-68.338c.3.579.6,1.13.9,1.638.237.4.528.815.809,1.211h0a11.074,11.074,0,0,1,1.216,2c-.006-.537-.021-1.08-.035-1.605-.026-.99-.054-2.014-.026-3.015a22.241,22.241,0,0,0-2.823-.228Z" transform="translate(25.077 -13.521)"/>
    </g>
    <g id="Head" transform="translate(86.512 45.072)">
      <g id="HEAD-2" data-name="HEAD">
        <path id="_Skin-2" data-name="âœ‹ Skin" d="M38.029.093C75.956-1.773,93.071,24.949,94.178,36.884c.768,8.285-4.123,17.835-4.123,25.238,0,3.779,4.624,11.892,2.471,17.4-4.791,12.259-14.935,25.865-27.862,25.865S34.913,108.965,20.63,88.5c-1.34-1.92-18.292-12.834-19.939-23.2C-3.411,39.462,10.966,1.425,38.029.093Z" transform="translate(10.865 20.608)" fill="#d08b5b"/>
        <path id="_Ink-2" data-name="ðŸ– Ink" d="M82.825,125.769a40,40,0,0,1-4-.223,60.587,60.587,0,0,1-9.609-1.638l-.5-.134a14.1,14.1,0,0,1-3.8-1.453,4.517,4.517,0,0,1-1.467-1.472,5.972,5.972,0,0,1-.739-1.953,1.477,1.477,0,0,1,.28-1.208,1.2,1.2,0,0,1,.93-.458h.16c.139,0,.287-.005.465-.016l.144-.01H64.7a.08.08,0,0,1,.025,0c.044-.006.088-.016.13-.026s.08-.018.12-.024a4.575,4.575,0,0,1,.757-.064,5.989,5.989,0,0,1,1.933.361l.112.038a44.638,44.638,0,0,0,4.572,1.362c1.551.354,3.2.654,4.887.891l.163.02.05.007.025,0a.03.03,0,0,1,.015,0l.483.06c.382.045.766.086,1.139.125h0c.7.07,1.4.125,2.1.165.405.023.816.034,1.22.034a21.8,21.8,0,0,0,8.222-1.62,24.821,24.821,0,0,0,7.047-4.393,29.29,29.29,0,0,0,8.826-14.291,30.116,30.116,0,0,0,.968-6.2,45.573,45.573,0,0,0-.112-6.19,2.961,2.961,0,0,1-.165-1c0-.2.011-.389.023-.568-.216-2.113-.521-4.263-.816-6.342-.263-1.851-.534-3.764-.743-5.65a106.091,106.091,0,0,1-.7-14.1,58.7,58.7,0,0,1,.625-6.933l.118-.828a8.059,8.059,0,0,1-3.925-1.995,8.058,8.058,0,0,1-4.005,1.075A7.1,7.1,0,0,1,94.05,50.1a8.907,8.907,0,0,1-4.681,1.312,8.077,8.077,0,0,1-4.212-1.126,7.318,7.318,0,0,1-1.959,1,6.9,6.9,0,0,1-2.168.352,6.7,6.7,0,0,1-1.433-.155,6.413,6.413,0,0,1-2.517-1.194,7.312,7.312,0,0,1-1.266.113c-.119,0-.239,0-.358-.009l-.112.063A8.254,8.254,0,0,1,71.506,51.5c-.072,0-.145,0-.217,0a9.61,9.61,0,0,1-3.145-.637,8.927,8.927,0,0,1-3.506,1.25,8.1,8.1,0,0,1-1.011.063,7.743,7.743,0,0,1-4.333-1.28,11,11,0,0,1-5.44,1.417,11.312,11.312,0,0,1-3.794-.65A8.531,8.531,0,0,1,47.59,54.3a5.539,5.539,0,0,1,.175,1.984,8.074,8.074,0,0,1-.816,2.925,5.237,5.237,0,0,1,.346,3.369,8.3,8.3,0,0,1-2.656,4.359,8.187,8.187,0,0,1-4.046,6.714,3.339,3.339,0,0,1-.368.183,1.817,1.817,0,0,1-.383.386,4.474,4.474,0,0,1-3.107,1.1,7.459,7.459,0,0,1-2.835-.592l-.042,0h0l-.068,0h-.063a1.606,1.606,0,0,1-1.383-.652,6.486,6.486,0,0,0-.845.1,11.758,11.758,0,0,0-3.1,1.044,6.955,6.955,0,0,0-1.581,1.106,6.637,6.637,0,0,0-1.141,1.417,9.112,9.112,0,0,0-1.157,3.576,9.76,9.76,0,0,0,.375,4.245,8.246,8.246,0,0,0,.909,1.909,7.838,7.838,0,0,0,1.416,1.636,7.385,7.385,0,0,0,1.821,1.162,8.656,8.656,0,0,0,2.065.636,5.93,5.93,0,0,0,1.032.075c.162,0,.326,0,.484-.006h.008c.157,0,.319-.006.476-.006a4.408,4.408,0,0,1,1.271.147,2.3,2.3,0,0,1,1.1.724,1.047,1.047,0,0,1,.263.994,2.284,2.284,0,0,1-2.039,1.7,56.686,56.686,0,0,0,4.6,4.943c.347.326.7.656,1.046.975l.013.012a55.811,55.811,0,0,1,4.186,4.173,34.462,34.462,0,0,1,2.394,3.052,21.256,21.256,0,0,1,1.917,3.366c.468,1.047.872,2.138,1.262,3.192v0c.119.322.243.656.366.983l.094.244c.065.164.134.33.2.491a8.811,8.811,0,0,1,.639,1.966,3.153,3.153,0,0,1,0,1,2.943,2.943,0,0,1-.375,1.02,2.5,2.5,0,0,1-.742.77,1.859,1.859,0,0,1-1.018.345,1.293,1.293,0,0,1-.166-.011c-2.157-.276-2.849-1.777-3.473-3.563-.211-.606-.4-1.23-.591-1.833-.247-.8-.5-1.622-.8-2.416-.092-.239-.2-.49-.319-.768a4.049,4.049,0,0,1-1.088.146,4.825,4.825,0,0,1-2.56-.772,8.818,8.818,0,0,1-3.548.752h-.147a8.9,8.9,0,0,1-2.382-.361,8.355,8.355,0,0,1-2.114-.966l-.061-.016-.015,0h0c-.076-.02-.156-.041-.233-.063a7.055,7.055,0,0,1-2.533.471,6.306,6.306,0,0,1-3.59-1.081,6.6,6.6,0,0,1-1.476-1.383,6.472,6.472,0,0,1-.941-1.675,6.379,6.379,0,0,1-2.2-.426,5.465,5.465,0,0,1-1.879-1.207,5.962,5.962,0,0,1-1.179-1.658,6.276,6.276,0,0,1-.564-1.909,6.487,6.487,0,0,1-1.863-.671,6.129,6.129,0,0,1-1.605-1.271,5.667,5.667,0,0,1-.96-1.481,6.263,6.263,0,0,1-.485-1.695,6.7,6.7,0,0,1-2.193-1.091,5.713,5.713,0,0,1-1.591-1.833,5.526,5.526,0,0,1-.642-2.065,5.646,5.646,0,0,1,.167-2.052l-.092-.132A6.044,6.044,0,0,1,5.1,88.343a4.665,4.665,0,0,1-.936-2.549,4.924,4.924,0,0,1,.179-1.673,5.028,5.028,0,0,1,.137-1.782,7.636,7.636,0,0,1-1.371-1.811,7.965,7.965,0,0,1-.793-2.119,7.709,7.709,0,0,1-.159-2.25,7.1,7.1,0,0,1,.529-2.2A7.738,7.738,0,0,1,.724,69.776,7.457,7.457,0,0,1,.761,67.46a6.717,6.717,0,0,1,.785-2.186A6.687,6.687,0,0,1,.34,63.083a6.985,6.985,0,0,1-.33-2.544,9.087,9.087,0,0,1,.759-3.127A16.6,16.6,0,0,1,2.352,54.6a5.22,5.22,0,0,1-1.024-1.735,5.56,5.56,0,0,1-.322-1.994,6.307,6.307,0,0,1,.722-2.713,10.257,10.257,0,0,1,1.655-2.295,8.192,8.192,0,0,1-.412-2.595,8.4,8.4,0,0,1,.4-2.531,8.681,8.681,0,0,1,2.913-4.184A4.784,4.784,0,0,1,5.7,33.328a5.193,5.193,0,0,1,1.244-2.6,10.472,10.472,0,0,1,2.234-1.9,4.754,4.754,0,0,1,.293-3.476,5.966,5.966,0,0,1,1.5-1.939,12.253,12.253,0,0,1,2.033-1.4,5.52,5.52,0,0,1,.594-1.939,6.179,6.179,0,0,1,1.215-1.626,5.754,5.754,0,0,1,1.647-1.119,4.638,4.638,0,0,1,1.89-.416,4.172,4.172,0,0,1,2.035.53,3.567,3.567,0,0,1-.1-1.72,4.349,4.349,0,0,1,.653-1.6A5.217,5.217,0,0,1,22.478,12.6a4.748,4.748,0,0,1,2.029-.739,7.647,7.647,0,0,1,1.216-2.278,8.447,8.447,0,0,1,1.866-1.77,8.572,8.572,0,0,1,4.844-1.554,7.567,7.567,0,0,1,1.785.211,7.631,7.631,0,0,1,2.81-2.336,8.1,8.1,0,0,1,3.532-.814,7.777,7.777,0,0,1,2.716.484,12.085,12.085,0,0,1,3.586-1.9A12.436,12.436,0,0,1,50.753,1.3a14.6,14.6,0,0,1,4.61.773A5.734,5.734,0,0,1,57.711.5,8.171,8.171,0,0,1,60.55,0c.165,0,.331,0,.494.014a15.228,15.228,0,0,1,4.2,1.069A14.791,14.791,0,0,0,69.509,2.15c.189.009.386.013.585.013A27.083,27.083,0,0,0,73.5,1.876h.006A27.032,27.032,0,0,1,76.9,1.588a10.99,10.99,0,0,1,1.757.132,9.27,9.27,0,0,1,2.747.892,7.025,7.025,0,0,1,2.237,1.775,10.324,10.324,0,0,1,2.844-.4,10.628,10.628,0,0,1,2.445.287A10.975,10.975,0,0,1,95.087,8.26a6.386,6.386,0,0,1,.977-.075,7.478,7.478,0,0,1,4.251,1.39,7.007,7.007,0,0,1,2.68,3.545,8.691,8.691,0,0,1,3.052.671,9.513,9.513,0,0,1,2.659,1.662,8.508,8.508,0,0,1,2.914,5.4,6.727,6.727,0,0,1,4.026,3.13,9.432,9.432,0,0,1,1.024,5.8,5.4,5.4,0,0,1,2.262,2.254,8.728,8.728,0,0,1,.978,3.217,5.665,5.665,0,0,1,1.924,2.675,6.877,6.877,0,0,1,.3,3.379,3.885,3.885,0,0,1,1.564,1.79,5.788,5.788,0,0,1,.523,2.419c0,.445-.039.878-.074,1.3a6.392,6.392,0,0,0,.23,3.007,7.629,7.629,0,0,1,.494,1.846,5.842,5.842,0,0,1-.089,1.892l-.028.133c-.046.209-.087.42-.127.644a3.936,3.936,0,0,1,.927,1.218,6.037,6.037,0,0,1,.61,2.748,8.1,8.1,0,0,1-.534,2.766,5.513,5.513,0,0,1-.175,3.406,6.284,6.284,0,0,1,.895,1.9,6.042,6.042,0,0,1,.2,2.135,6.586,6.586,0,0,1-2.025,4.2,7.115,7.115,0,0,1-.4,3.373,7.615,7.615,0,0,1-1.861,2.875,5.924,5.924,0,0,1-.7,4.025,5.539,5.539,0,0,1-2.041,2.055,6.614,6.614,0,0,1-.324,2.284,7.317,7.317,0,0,1-1.7,2.838,6.279,6.279,0,0,1-.058,2.225,6.623,6.623,0,0,1-.808,2.087,5.906,5.906,0,0,1-3.536,2.724,3.167,3.167,0,0,1-.747.106,32.16,32.16,0,0,1-2.022,8.276,34.136,34.136,0,0,1-2.381,4.884,33.708,33.708,0,0,1-3.128,4.437,32.447,32.447,0,0,1-3.808,3.862,30.793,30.793,0,0,1-4.423,3.157,28.644,28.644,0,0,1-4.906,2.281,27.792,27.792,0,0,1-5.248,1.307A24.615,24.615,0,0,1,82.825,125.769ZM34.208,84.91a1.351,1.351,0,0,1-1.265-.818,9.664,9.664,0,0,0-1.209-2.013c-.08.112-.151.227-.233.367l-.075.127-.014.024c-.05.085-.1.172-.146.261a1.81,1.81,0,0,1-.064.229l-.009.028a1.919,1.919,0,0,1-1.263,1.239,1.208,1.208,0,0,1-.4.069,1.34,1.34,0,0,1-.851-.325,1.781,1.781,0,0,1-.536-.758,1.6,1.6,0,0,1,.237-1.512,3.168,3.168,0,0,1,1.269-1.009,2.859,2.859,0,0,0-2.587.906.137.137,0,0,1-.1.046.162.162,0,0,1-.158-.154,2.294,2.294,0,0,1,.263-1.185,2.87,2.87,0,0,1,.776-.912,4.172,4.172,0,0,1,2.281-.852c.078,0,.158-.006.235-.006A4.418,4.418,0,0,1,32.029,79a6.027,6.027,0,0,1,1.459.872,12.148,12.148,0,0,1,2.3,2.558,1.349,1.349,0,0,1,.122,1.454A2.016,2.016,0,0,1,34.208,84.91Z" transform="translate(-8.258 2.003)"/>
      </g>
      <g id="FACE" transform="translate(39.871 46.574)">
        <path id="_Ink-3" data-name="ðŸ– Ink" d="M26.4,46.772a9.565,9.565,0,0,1-5.294-1.563,10.084,10.084,0,0,1-2.19-1.889,7.91,7.91,0,0,1-1.335-2.129,6.03,6.03,0,0,1-.476-2.418.746.746,0,0,1,.177-.476.832.832,0,0,1,.443-.265.856.856,0,0,1,.2-.023.786.786,0,0,1,.323.068.688.688,0,0,1,.341.335c.159.208.368.482.579.746a14.544,14.544,0,0,0,2.4,2.456,7.445,7.445,0,0,0,2.99,1.4,6.411,6.411,0,0,0,1.374.149,6.734,6.734,0,0,0,2.32-.419A7.891,7.891,0,0,0,31.5,40.468a1.745,1.745,0,0,1,1.327-.655h.012a2.042,2.042,0,0,1,1.411.624,2.2,2.2,0,0,1,.659,1.435,1.918,1.918,0,0,1-.546,1.409,10.935,10.935,0,0,1-2.3,1.873,11.148,11.148,0,0,1-2.711,1.2A10.606,10.606,0,0,1,26.4,46.772Zm2.987-13.927h0a8.766,8.766,0,0,1-3.122-.628,15.772,15.772,0,0,1-3.671-2.08,1.408,1.408,0,0,1-.512-.814,1.683,1.683,0,0,1,.073-.914,2.078,2.078,0,0,1,.618-.892,1.506,1.506,0,0,1,.963-.375,1.368,1.368,0,0,1,.745.228l.243.187.008.006a19.873,19.873,0,0,0,2.3,1.6,5.667,5.667,0,0,0,2.754.877,2.978,2.978,0,0,0,1.164-.228,3.252,3.252,0,0,0,1.084-.767,3.315,3.315,0,0,0,.631-2.672A5.045,5.045,0,0,0,31.323,24a9.778,9.778,0,0,0-2.031-1.637.628.628,0,0,1-.17-.723.943.943,0,0,1,.313-.45.961.961,0,0,1,.6-.2,1.278,1.278,0,0,1,.216.019,6.816,6.816,0,0,1,2.395.864,5.429,5.429,0,0,1,1.611,1.483,5.885,5.885,0,0,1,1.028,3.936,6.477,6.477,0,0,1-.527,2.066,6.027,6.027,0,0,1-1.187,1.775A5.678,5.678,0,0,1,29.389,32.845Zm-24-9.623a1.2,1.2,0,0,1-.348-.051.706.706,0,0,1-.476-.41,5.815,5.815,0,0,1,.292-4.388A10.276,10.276,0,0,1,6.4,15.837a6.354,6.354,0,0,1,1.662-1.49,5.579,5.579,0,0,1,2.643-.68,5.3,5.3,0,0,1,2.548.656,6.627,6.627,0,0,1,1.76,1.445,18.22,18.22,0,0,1,1.366,1.816c.18.262.366.532.555.795a1.6,1.6,0,0,1,.269,1.487,1.924,1.924,0,0,1-1.093,1.127,2.1,2.1,0,0,1-.805.165,1.84,1.84,0,0,1-.718-.142,1.93,1.93,0,0,1-1.036-1.093,7.452,7.452,0,0,0-.8-1.459,4.388,4.388,0,0,0-1.171-1.158,2.112,2.112,0,0,0-2.118-.162A6.916,6.916,0,0,0,7,19.6a4.805,4.805,0,0,0-.808,2.866.65.65,0,0,1-.211.547.821.821,0,0,1-.457.2A1.078,1.078,0,0,1,5.386,23.221Zm36.35-3.535a1.568,1.568,0,0,1-.452-.073,1.71,1.71,0,0,1-.706-.421,1.4,1.4,0,0,1-.393-.709,2.9,2.9,0,0,0-1.021-1.7,2.076,2.076,0,0,0-1.285-.457,2.1,2.1,0,0,0-.345.029,3.13,3.13,0,0,0-1.754,1.05,3.845,3.845,0,0,0-.368.536l-.011.018a3.913,3.913,0,0,1-.728.954.711.711,0,0,1-.451.169.674.674,0,0,1-.2-.031,2.855,2.855,0,0,1-.647-.9,1.775,1.775,0,0,1-.129-.78,3.086,3.086,0,0,1,.569-1.564,6.086,6.086,0,0,1,1.571-1.534,5.239,5.239,0,0,1,1.738-.818,4.7,4.7,0,0,1,.985-.1A5.031,5.031,0,0,1,41,14.29a5.48,5.48,0,0,1,2.245,3.43,1.822,1.822,0,0,1-.092,1.013,1.422,1.422,0,0,1-.664.737A1.58,1.58,0,0,1,41.736,19.686ZM.861,13.006a.419.419,0,0,1-.054,0,.509.509,0,0,1-.265-.128A1.921,1.921,0,0,1,0,11.291,6.842,6.842,0,0,1,.7,8.63,17,17,0,0,1,2.041,6.383a11.827,11.827,0,0,1,1.722-1.96A14.905,14.905,0,0,1,8.582,1.492,10.375,10.375,0,0,1,12.017.736c.071,0,.143,0,.213,0a4.133,4.133,0,0,1,1.278.243,3.363,3.363,0,0,1,1.138.706,2.108,2.108,0,0,1,.631,1.541,2.2,2.2,0,0,1-.634,1.576,3.261,3.261,0,0,1-1.348.787,7.846,7.846,0,0,1-1.471.262,13.4,13.4,0,0,0-1.433.211A13.481,13.481,0,0,0,6.929,7.328a12.811,12.811,0,0,0-3.245,2.3c-.212.226-.413.466-.608.7l-.005.006c-.181.216-.352.419-.534.618-.2.221-.389.444-.611.712a3.026,3.026,0,0,0-.173.3c-.044.092-.087.177-.13.259-.081.152-.159.285-.231.4-.144.242-.219.3-.278.326A.623.623,0,0,1,.861,13.006Zm42.923-.549a.492.492,0,0,1-.081-.007.484.484,0,0,1-.247-.12.463.463,0,0,1-.139-.239,8.979,8.979,0,0,0-1.309-3.173A6.856,6.856,0,0,0,39.4,6.692,16.8,16.8,0,0,0,35.74,5.465c-.352-.083-.73-.139-1.1-.192l-.017,0A9.274,9.274,0,0,1,32.888,4.9a3.075,3.075,0,0,1-1.427-.962,2.66,2.66,0,0,1-.493-.961,2.448,2.448,0,0,1-.059-1.035A2.125,2.125,0,0,1,32.063.368,3.482,3.482,0,0,1,33.677,0a10.576,10.576,0,0,1,3.877,1.081l.085.036,0,0,.283.12A12.728,12.728,0,0,1,42.364,4.2,9.572,9.572,0,0,1,44.645,8.4a5.045,5.045,0,0,1-.46,3.83.455.455,0,0,1-.208.183A.48.48,0,0,1,43.784,12.457Z" transform="translate(13.541 13.787)"/>
      </g>
    </g>
  </g>
</svg>
