<svg xmlns="http://www.w3.org/2000/svg" width="433.312" height="626" viewBox="0 0 433.312 626">
  <g id="peep-sitting-10" transform="translate(20.312)">
    <g id="BODY" transform="translate(-20.311 159.505)">
      <path id="_Skin" data-name="âœ‹ Skin" d="M131.8,369.682a37.484,37.484,0,0,1-7.939-.837,36.584,36.584,0,0,1-7.157-2.356,41.326,41.326,0,0,1-6.461-3.643,52.116,52.116,0,0,1-5.85-4.7,82.933,82.933,0,0,1-10.209-11.626c-3.2-4.315-6.118-8.822-8.792-13.049l-.3.2c-1.151.762-2.341,1.55-3.457,2.211a7.1,7.1,0,0,1-1.731,1.886,9.56,9.56,0,0,1-2.227,1.242,18.346,18.346,0,0,1-5.022,1.123c-.317.016-.635.024-.942.024a14.723,14.723,0,0,1-3.5-.4,11.515,11.515,0,0,1-5.253-2.86,14.812,14.812,0,0,1-1.924-2.239c-2.31-3.271-3.673-7.588-4.991-11.762-.18-.57-.366-1.16-.553-1.741a4.721,4.721,0,0,0-.616.625c-.545.611-1.223,1.371-1.831,1.371a.664.664,0,0,1-.282-.062c-.652-.144-1.309-.294-1.946-.438-1.982-.451-4.03-.916-6.065-1.259a37.317,37.317,0,0,0-6.21-.57c-.594,0-1.188.018-1.767.054a5.083,5.083,0,0,0-1.038-.091,25.641,25.641,0,0,0-5.095.747c-2.072.455-4.443,1.068-6.953,1.718l-.058.015-1.724.445c-2.793.718-5.761,1.458-8.546,2.011a39.893,39.893,0,0,1-7.5.914,11.3,11.3,0,0,1-3.155-.377A3.957,3.957,0,0,1,.656,325a3.067,3.067,0,0,1-.619-1.512A5.784,5.784,0,0,1,.2,321.383c.987-3.652,4.9-6.033,8.675-8.336a36.162,36.162,0,0,0,5.312-3.659A18.052,18.052,0,0,0,16.6,305.9a21.631,21.631,0,0,0,1.54-3.733,54.541,54.541,0,0,0,1.633-7.928A50.819,50.819,0,0,1,21.806,285a109.968,109.968,0,0,1,4.241-12.242,65.327,65.327,0,0,1,6.379-11.735c.246-14.793.645-30.606,1.892-46.013.326-4.034.7-7.937,1.122-11.6.448-3.927.959-7.717,1.517-11.263.593-3.765,1.259-7.377,1.98-10.737.76-3.543,1.605-6.915,2.511-10.022.5-1.9,1.027-3.835,1.534-5.709,2.168-8.013,4.41-16.3,5.829-24.592a103.809,103.809,0,0,0,1.425-12.5c.1-2.138.128-4.254.067-6.291-.063-2.139-.221-4.263-.467-6.314l-1.287-.034a3.818,3.818,0,0,0-1.769-.479,2.321,2.321,0,0,0-.35.025,2.318,2.318,0,0,0-1.543-.546,4.63,4.63,0,0,1-.912-.162c-.817-7.622-1.217-13.44-1.3-18.864-.047-3.133.016-6.065.192-8.962.186-3.068.493-6,.939-8.975a43.241,43.241,0,0,1,1.133-6.944,33.158,33.158,0,0,1,2.1-5.932,28.41,28.41,0,0,1,6.847-9.2,33.627,33.627,0,0,1,4.63-3.458,43.521,43.521,0,0,1,5.355-2.82,71.362,71.362,0,0,1,12.642-4.1c5.63-1.844,10.082-3.479,14.009-5.145A82.853,82.853,0,0,0,102.4,34.289a57.681,57.681,0,0,0,10.046-7.94,58,58,0,0,0,4.433-4.944,65.862,65.862,0,0,0,4.09-5.744c.7-1.175,1.307-2.445,1.9-3.674v0c.545-1.135,1.109-2.309,1.739-3.4A16.272,16.272,0,0,1,126.8,5.536a11.961,11.961,0,0,1,2.669-2.452,15.932,15.932,0,0,1,3.389-1.727A23.186,23.186,0,0,1,140.869,0a26.339,26.339,0,0,1,5,.476,22.711,22.711,0,0,1,4.639,1.406,13.332,13.332,0,0,1,6.59,5.459,45.377,45.377,0,0,1,2.383,9.366,62,62,0,0,0,1.546,7.012,26,26,0,0,0,1.9,4.854,23.828,23.828,0,0,0,2.636,4.042,25.636,25.636,0,0,0,3.268,3.346,31.677,31.677,0,0,0,3.793,2.766,42.97,42.97,0,0,0,4.213,2.3c1.378.662,2.859,1.3,4.528,1.953,3.1,1.212,6.392,2.286,9.576,3.325,3.794,1.238,7.716,2.517,11.331,4.036a52.222,52.222,0,0,1,5.212,2.507,33.905,33.905,0,0,1,4.67,3.095,21.1,21.1,0,0,1,4.3,4.263,23.817,23.817,0,0,1,2.877,5.048,32.822,32.822,0,0,1,1.764,5.59,53.013,53.013,0,0,1,.961,5.887c.338,3.032.777,6.072,1.2,9.012v0c.483,3.351.982,6.816,1.325,10.223a80.393,80.393,0,0,1,.444,10.277,1.866,1.866,0,0,0,.337.025c.142,0,.3-.008.458-.016h.019c.15-.008.336-.018.514-.018a2.127,2.127,0,0,1,.808.121.77.77,0,0,1,.481.537,1.864,1.864,0,0,1-1.114,1.01,10.063,10.063,0,0,1-2.219.646,51.442,51.442,0,0,1-5.475.622c-1.03.079-1.919.148-2.467.238.386,2.043.69,4.128.927,6.375.212,2,.367,4.09.473,6.381.2,4.255.194,8.585.189,12.772v0c0,3.759-.007,7.645.135,11.469a101.56,101.56,0,0,0,1.009,11.47c.627,3.018,1.366,6.064,2.258,9.313.8,2.895,1.695,5.885,2.751,9.142,1.962,6.052,4.181,12.134,6.328,18.016,1.919,5.259,3.9,10.7,5.7,16.115.653,1.688,1.254,3.44,1.835,5.134.709,2.068,1.442,4.206,2.28,6.254a37.635,37.635,0,0,0,2.975,5.91l-.06.046c.491.814,1.066,1.672,1.709,2.549.314.113.639.264.954.411h0c.3.142.619.288.92.4l.136-.229.33.443.97-.409c1.468.733,3.02,1.562,4.49,2.4,4.538,2.75,8.768,5.549,12.932,8.557,3.818,2.759,7.529,5.657,11.344,8.86,7.343,6.167,14.242,12.787,21.251,19.594l-1.942,1.573c.644.895,1.4,2.031,2.061,3.033l.088.133.1.153a12.014,12.014,0,0,1,2.5-1.649,44.215,44.215,0,0,1,7.359,12.823,58.5,58.5,0,0,1,2.237,7.326,66.187,66.187,0,0,1,1.328,7.609c1.17,10.124.078,20.459-3,28.354a29.278,29.278,0,0,1-3.683,6.419,35.707,35.707,0,0,1-5,5.337,23.2,23.2,0,0,1-3.144,3.775,15.841,15.841,0,0,1-4.627,3.2l-.163.23-.294.416c-.186.025-1.334.285-1.4.555-3.539.6-7.15,1.574-10.643,2.521h0c-2.87.777-5.837,1.581-8.783,2.181-1.587.323-3.039.562-4.438.731a39.082,39.082,0,0,1-4.477.295,30.79,30.79,0,0,1-4.633-.4,35.338,35.338,0,0,1-4.51-1.047,48.345,48.345,0,0,1-8.679-3.641,137.568,137.568,0,0,1-16.216-10.67h0c-2.734-1.989-5.316-3.867-7.912-5.6a88.348,88.348,0,0,0-11.729-6.916c-4.06-2.035-8.216-3.861-12.236-5.626l-1.988-.874c.33,1.684.432,2.755.025,3.591s-1.312,1.425-3.139,2.06a8.751,8.751,0,0,1-3.243.583,16.534,16.534,0,0,1-6.733-1.7c.029,2.031.109,4.1.187,6.109v.01c.132,3.405.268,6.926.174,10.559q0,.305,0,.615v0c0,1.738,0,3.536-.111,5.328a25.683,25.683,0,0,1-.8,5.225,14.831,14.831,0,0,1-.875,2.386,11.36,11.36,0,0,1-1.307,2.134,10.187,10.187,0,0,1-1.825,1.808,11.277,11.277,0,0,1-2.429,1.407c-3.273,1.288-6.618,2.468-9.94,3.508-3.442,1.077-6.887,2.012-10.238,2.778a96.076,96.076,0,0,1-20.047,2.592C133.321,369.66,132.551,369.682,131.8,369.682ZM69.237,224.48l-.919,2.33c-5.253,13.1-11.236,27.171-16.415,38.6.127,1.11.36,2.247.585,3.347a32.239,32.239,0,0,1,.66,4.128,12.191,12.191,0,0,1-.016,2.061,9.155,9.155,0,0,1-.432,2.051,48.351,48.351,0,0,1,4.384-2.522c1.442-.734,2.988-1.435,4.595-2.083a83.374,83.374,0,0,1,9.607-3.152l.367,2.452c.585-.019,1.521-.03,2.273-.04h.108l.387,0c-.115-.982-.269-2.7-.34-3.7h0A82.474,82.474,0,0,1,74.392,252c.626-5.835,1.692-11.49,2.551-15.765.337-2.483-.1-5.893-1.83-7.914a4.687,4.687,0,0,0-3.6-1.7.39.39,0,0,1-.058,0c-.49,0-1.178-.878-1.68-1.52A5.629,5.629,0,0,0,69.237,224.48Z" transform="translate(20.563 -19.531)" fill="#d08b5b"/>
      <path id="_Shoes" data-name="ðŸ‘Ÿ Shoes" d="M24.35,69.339a11.232,11.232,0,0,1-3.663-.609,10.569,10.569,0,0,1-3.78-2.138,12.819,12.819,0,0,1-2.583-3.3,29.114,29.114,0,0,1-2.013-4.79l-.063-.185L11.875,57.2l-.359-1.1a33.944,33.944,0,0,0-2.644-6.521,13.81,13.81,0,0,0-2.659-3.427l-.078-.069a9.518,9.518,0,0,0-.867-.637l-.434-.291A7.729,7.729,0,0,1,2.044,42.5,9.494,9.494,0,0,1,1,39.083l-.069-.488c-.016-.121-.033-.258-.058-.468L.79,37.416c-.018-.146-.033-.264-.047-.37L.721,36.89.7,36.754c-.219-1.463-.39-2.976-.51-4.5l-.038-.508-.026-.389L.1,30.884A42.255,42.255,0,0,1,.637,20.393,26.42,26.42,0,0,1,1.91,15.905a22.258,22.258,0,0,1,2.031-4.012,19.493,19.493,0,0,1,1.8-2.372A19.921,19.921,0,0,1,7.862,7.461a24.5,24.5,0,0,1,5.256-3.31l.244-.115.255-.118A56.129,56.129,0,0,1,23.408.693l.643-.168L26.076,0l.176,1.179.9-.016.181,1.711c.09.856.194,1.708.308,2.533.165,1.2.367,2.44.6,3.676l.1.531.217,1.116-.889.71a20.7,20.7,0,0,0-3.053,3.15,24.474,24.474,0,0,0-4.183,7.58,23.758,23.758,0,0,0-1.019,4.087,22.711,22.711,0,0,0-.265,4.153,15.622,15.622,0,0,0,.623,3.933c.105.355.21.671.32.966l.057.15.325.837-.449.778a1.022,1.022,0,0,0-.109.944l.019.03L36.971,62.895l1.146,1.682-1.643,1.038c-.143.09-.291.189-.466.31l-.18.126-.934.66-1.017-.524a.89.89,0,0,0-.389-.094.556.556,0,0,0-.108.01,3.974,3.974,0,0,0-1.63.761l-.684.48a11.307,11.307,0,0,1-1.375.833A12.564,12.564,0,0,1,25.431,69.3C25.034,69.327,24.68,69.339,24.35,69.339ZM136.256,58.067c-.361,0-.732-.016-1.1-.049L134.975,58l-1.554-.158-.129-1.555c-.191-2.294-.419-4.577-.68-6.785l-.1-.835-.427-3.486,3.349,1.686.455.225c1.992.979,3.93,1.82,7.679,3.334l1.44.58,3.508,1.409-3.242,1.944a6.876,6.876,0,0,0-.589.4l-.585.445-.174.131c-.168.124-.311.226-.466.331a14.794,14.794,0,0,1-3.39,1.752A11.465,11.465,0,0,1,136.256,58.067Z" transform="translate(67.577 249.063)" fill="#fff"/>
      <path id="_Pants" data-name="ðŸ‘– Pants" d="M146.927,1.566l1-1.566,1.659,1.024.25.148.434.261.228.324c.2.285,37.886,19.364,44.083,23.192l.777.482a153.788,153.788,0,0,1,25.792,19.5c8.511,8.178,14.9,17,18.764,26.519a59.282,59.282,0,0,1,3.426,32.727A61.345,61.345,0,0,1,231.9,130.462l-.288.377-.133.119q-.86.764-1.79,1.457l-.267.2-.3.216-6.474,1.6-1.181.3-1.072.273-4.944,1.269c-4.135,1.054-6.573,1.633-9.285,2.187l-.292.059-.618.123a32.889,32.889,0,0,1-16.43-.576,53.65,53.65,0,0,1-13.355-6.694l-.252-.164-.262-.171-.515-.339-.523-.347c-2.211-1.471-31.09-18.466-36.579-20.506l-1.273-.471-1.233-.451-1.059-.384c-8.3-2.994-21.44-6.274-21.44-6.274l1.994,22.083.156,1.729c.186,2.142.267,3.443.253,4.191l0,.089-.022.667-.012.459-.034,1.9c-.011.5-.024.888-.043,1.265l-.018.324-.026.393a12.15,12.15,0,0,1-2.189,6.872c-1.382,1.787-25.614,9.205-31.62,10.164l-.254.04-.482.075c-8.106,1.238-15.488,1.168-22.148-.5a38.42,38.42,0,0,1-19.105-11.728l-.334-.366a106.267,106.267,0,0,1-9.483-12.5l-.72-1.064-3.011-4.478-.717-1.054-8.081-11.787L4.679,91.89a1.294,1.294,0,0,0-1.246-.626l-.048.01-2.357.585.023-2.425C1.063,88.128-.119,86.28.01,84.857a26.122,26.122,0,0,1,2.167-8.267c1.177-2.607,8.444-13.664,8.444-13.664-1.556-8,.763-35.93.763-35.93.276-2.032.876-17.421.876-17.421l2.577,1.529c9.413,5.585,23.3,9.884,38.6,10.029l.806.006a10.817,10.817,0,0,0,3.115-.188l.04-.015.2-.075.16-.059c.079-.028.158-.055.241-.081a8.369,8.369,0,0,1,1.035-.246l.156-.027c2.591-.431,8.72-.665,21.215-.693l1.616,0c14.226-.012,29.17-3.056,43.906-8.129,5.086-1.751,9.79-3.625,14.018-5.508l.519-.232q1.538-.692,2.832-1.312l.214-.1.418-.2.44-.215.4-.2.25-.125.226-.114.087-.082a10.423,10.423,0,0,0,1.385-1.642l.112-.167Z" transform="translate(86.088 194.742)" fill="#9fd8e5"/>
      <path id="_Ink" data-name="ðŸ– Ink" d="M135.685,363.515a54.59,54.59,0,0,1-8.774-.682,42.467,42.467,0,0,1-8.47-2.27A39.675,39.675,0,0,1,112.9,357.9a42.871,42.871,0,0,1-5.012-3.413,49.263,49.263,0,0,1-4.524-4.058,59.126,59.126,0,0,1-4.078-4.6c-4.235-5.293-8.091-11.024-11.494-16.08h0l-1.211-1.8c-.735.486-1.474.956-2.2,1.395a4.006,4.006,0,0,1-1.106,1.33,13.86,13.86,0,0,1-2.638,1.725,16.517,16.517,0,0,1-3.066,1.131,16.881,16.881,0,0,1-3.23.5c-.289.017-.584.025-.875.025a15.616,15.616,0,0,1-2.853-.265,15.788,15.788,0,0,1-2.762-.78,15.2,15.2,0,0,1-2.567-1.273,14.151,14.151,0,0,1-2.265-1.744,14.337,14.337,0,0,1-2-2.371,18.673,18.673,0,0,1-1.482-2.642,48.121,48.121,0,0,1-2.09-5.724c-.307-.966-.624-1.964-.967-2.93a2.2,2.2,0,0,1-.816.523,2.815,2.815,0,0,1-.982.168,3.479,3.479,0,0,1-.562-.047c-1.316-.211-2.63-.541-3.9-.86-1.3-.327-2.645-.664-4-.876a41.541,41.541,0,0,0-6.44-.477c-.449,0-.909.006-1.367.019a42.969,42.969,0,0,0-7.319.879c-2.507.5-5.024,1.183-7.156,1.783l-1.239.35c-2.073.585-4.285,1.2-6.542,1.681a40.87,40.87,0,0,1-6.68.923l-.559.024c-.564.022-1.031.032-1.47.032a17.356,17.356,0,0,1-2.682-.181,7.932,7.932,0,0,1-2.441-.745,4.22,4.22,0,0,1-1.413-1.161,4.253,4.253,0,0,1-.747-1.538,6.223,6.223,0,0,1,.209-3.533,11.183,11.183,0,0,1,1.115-2.335,13.087,13.087,0,0,1,1.554-2,21.308,21.308,0,0,1,3.991-3.219c.819-.53,1.7-1.04,2.554-1.533a27.782,27.782,0,0,0,5.165-3.52,11.882,11.882,0,0,0,2.959-4.794,36.248,36.248,0,0,0,1.356-5.545l.028-.152c.786-4.24,1.654-8.752,2.856-13.2a93.9,93.9,0,0,1,4.489-12.74c1.03-2.384,1.939-4.305,2.859-6.047a44.983,44.983,0,0,1,3.513-5.686.118.118,0,0,1,.007-.016v0a3.535,3.535,0,0,1-.06-.453c-.03-.451-.017-.917,0-1.367.006-.192.011-.39.013-.583l.038-4.149c.032-3.121.065-5.682.105-8.058.081-4.972.2-10.832.464-16.594.23-5.031.552-9.954.957-14.632.431-4.978.972-9.872,1.609-14.546.671-4.926,1.472-9.782,2.379-14.434.95-4.869,2.05-9.678,3.269-14.3.517-1.959,1.053-3.951,1.572-5.877l0-.006c1.916-7.114,3.9-14.47,5.335-21.814.489-2.5.9-5.035,1.209-7.544s.54-5.038.679-7.555a94.984,94.984,0,0,0-.334-10.759,1.308,1.308,0,0,1-.572-.153,4.109,4.109,0,0,0-.82-.316l-.742.02h-.044a1.1,1.1,0,0,1-.907-.419c-.149-.042-.267-.078-.373-.115a7.906,7.906,0,0,1-2.144-.456.432.432,0,0,1-.3-.4c-.085-.767-.168-1.547-.248-2.319a9.23,9.23,0,0,1-.218-2.173c-.369-3.836-.619-7.292-.765-10.566-.168-3.763-.2-7.226-.092-10.588a1.067,1.067,0,0,1,.035-.984,99.049,99.049,0,0,1,1.058-11.228l.083-.528a54.862,54.862,0,0,1,3.352-12.736,30.066,30.066,0,0,1,3.12-5.708,24.776,24.776,0,0,1,2.06-2.546,23.4,23.4,0,0,1,2.447-2.287,33.007,33.007,0,0,1,4.637-3.119,45.637,45.637,0,0,1,5.011-2.4c3.434-1.414,7.069-2.519,10.584-3.587l.031-.01c.8-.242,1.617-.492,2.421-.741l.7-.219a128.453,128.453,0,0,0,14.652-5.491c2.451-1.111,4.8-2.3,6.97-3.533a71.7,71.7,0,0,0,6.591-4.217,57.261,57.261,0,0,0,10.534-9.81,43.965,43.965,0,0,0,4.15-5.917c.735-1.255,1.369-2.573,1.982-3.849h0c.4-.828.809-1.683,1.245-2.515a1.727,1.727,0,0,1,.664-.713A1.7,1.7,0,0,1,126.009,0,2.164,2.164,0,0,1,127.7.843a1.728,1.728,0,0,1,.279,1.556,24.591,24.591,0,0,1-1.5,3.829A35.094,35.094,0,0,1,124.393,9.9a59.067,59.067,0,0,1-5.077,6.635,62.081,62.081,0,0,1-12.124,10.6,7.058,7.058,0,0,0,.278,4.855,1.047,1.047,0,0,1,.035.8,1.033,1.033,0,0,1-.482.52c.21.779.386,1.586.555,2.366.19.875.387,1.781.634,2.649a40.28,40.28,0,0,0,5.717,12.017,35.8,35.8,0,0,0,8.246,8.488,30.5,30.5,0,0,0,10.7,5.014,30.946,30.946,0,0,0,7.378.892,29.765,29.765,0,0,0,8.075-1.1,26.712,26.712,0,0,0,11.6-6.7,24.734,24.734,0,0,0,3.347-4.083,22.7,22.7,0,0,0,2.349-4.7,21.612,21.612,0,0,0,1.176-5.216,30.667,30.667,0,0,0-.762-10.069,42.936,42.936,0,0,0-1.585-5.145c-.242-.642-.517-1.282-.783-1.9a25.375,25.375,0,0,1-1.268-3.383,1.486,1.486,0,0,1-.045-.5,6.773,6.773,0,0,1-.938-2.6,6.317,6.317,0,0,1,.224-2.787,1.24,1.24,0,0,1,.105-.248c-.04-.331-.076-.63-.105-.937-.078-.774-.092-1.552-.106-2.3-.008-.458-.017-.93-.04-1.4-.021-.421-.063-.829-.1-1.224a12.857,12.857,0,0,1-.1-2.2.152.152,0,0,1,.152-.147.163.163,0,0,1,.134.073,7.6,7.6,0,0,1,1.063,2.534c.078.28.158.569.253.87l.043.135c.377,1.157.676,2.285.993,3.478l.017.064.131.492a20.8,20.8,0,0,0,2.53,5.945,27.013,27.013,0,0,0,8.112,7.925,42.589,42.589,0,0,0,4.426,2.517c1.427.708,2.945,1.376,4.64,2.043,3.149,1.239,6.445,2.283,9.633,3.293h0c3.68,1.166,7.486,2.372,11.079,3.882a50.793,50.793,0,0,1,5.26,2.549,37.6,37.6,0,0,1,4.924,3.279,27.466,27.466,0,0,1,3.9,3.747,23.629,23.629,0,0,1,3.022,4.481,27.768,27.768,0,0,1,2.243,6.239c.528,2.183.875,4.426,1.184,6.537l.109.746c.757,5.212,1.426,10.379,1.988,15.357.281,2.475.55,5.046.8,7.642.046.472.11.946.178,1.448v0a15.458,15.458,0,0,1,.2,3.8,2.533,2.533,0,0,1,.669.09,2.625,2.625,0,0,1,1.225.711,1.937,1.937,0,0,1,.538,1.282,2.155,2.155,0,0,1-.473,1.464,3.347,3.347,0,0,1-1.265.9,13.27,13.27,0,0,1-3.315.8h-.005c-.216.032-.419.063-.606.094l-.116.02c-1.876.324-3.581.539-5.213.659a77.451,77.451,0,0,1,1.021,10.154c.159,3.085.224,6.161.272,9.831l.05,4.022c.016,1.41.02,2.841.024,4.226.009,3.064.019,6.232.154,9.342a75.893,75.893,0,0,0,.911,9.27,83.732,83.732,0,0,0,2.253,9.6c.871,2.988,1.846,5.914,3.042,9.389l.9,2.6c.455,1.316.916,2.654,1.362,3.947l0,.012c2.108,6.112,4.287,12.432,6.5,18.622.988,2.758,1.988,5.565,2.955,8.28l.021.06,1.043,2.928c.224.629.452,1.269.671,1.888l.006.017.008.024c.431,1.215.877,2.471,1.323,3.7.127.35.265.705.4,1.048.127.328.259.667.382,1a1.278,1.278,0,0,1,.281.463,29.292,29.292,0,0,0,2.478,5.406A44.642,44.642,0,0,1,249.3,221.9a.064.064,0,0,1,.015.019l.007.011a1.207,1.207,0,0,1,.472-.1,1.3,1.3,0,0,1,.579.142c1.476.735,2.978,1.535,4.592,2.446l.018.007.03.013a.049.049,0,0,1,.01.015,127.188,127.188,0,0,1,13.331,8.777c3.8,2.832,7.754,6.022,12.432,10.039,4.2,3.6,8.292,7.211,12.169,10.719a101.95,101.95,0,0,1,10.747,10.978,53.767,53.767,0,0,1,4.391,6.214,42.533,42.533,0,0,1,3.332,6.834,50.473,50.473,0,0,1,2.212,7.839c.485,2.383.872,4.946,1.219,8.065l.037.337c.272,2.506.442,4.927.5,7.2a66.612,66.612,0,0,1-.18,7.251,50.977,50.977,0,0,1-1.083,7.142,40.913,40.913,0,0,1-2.2,6.869A32.775,32.775,0,0,1,308.412,329a31.576,31.576,0,0,1-4.836,5.334c-.093.082-.19.163-.283.241h0l-.182.153a20.739,20.739,0,0,1-8.019,7.322l-.365.517-.184.257-1.271.326-.12.12a1.181,1.181,0,0,1-.833.361,1.21,1.21,0,0,1-.493-.108l-4.423,1.138-4.423,1.136c-.642.165-1.3.336-1.929.5l-.029.008c-2.6.678-5.282,1.379-7.956,1.924a49.673,49.673,0,0,1-8.1,1.043c-.355.013-.717.02-1.076.02a30.639,30.639,0,0,1-3.978-.264,34.359,34.359,0,0,1-3.892-.748,43.8,43.8,0,0,1-7.5-2.683,66.332,66.332,0,0,1-7.313-3.978c-2.378-1.473-4.741-3.087-6.94-4.611-2.607-1.806-5.232-3.68-7.771-5.492l-.008-.006-.01-.007c-1.771-1.264-3.6-2.57-5.411-3.843-1.639-1.153-3.179-2.208-4.709-3.227h0c-.339-.176-.689-.358-1.029-.524l-.256-.123c-.995-.469-1.985-1-2.942-1.507h0c-.571-.3-1.161-.619-1.747-.918-3.427-1.752-6.876-3.37-9.5-4.585-.918-.427-1.929-.873-3.089-1.362a3.271,3.271,0,0,1-.012.916c-.3,1.959-2.5,3.03-4.373,3.744a11.029,11.029,0,0,1-3.893.678c-.214,0-.431-.006-.646-.017a14.851,14.851,0,0,1-2.273-.291,12.937,12.937,0,0,1-2.2-.661.169.169,0,0,0,0,.035c.259,3.827.384,7.914.37,12.146l-.007,1.386q0,.442,0,.886a53.8,53.8,0,0,1-.806,11.133,12.783,12.783,0,0,1-2.6,5.453,13.554,13.554,0,0,1-4.807,3.676,68.845,68.845,0,0,1-9.6,3.371l-1,.3-.736.221c-4.214,1.273-8.072,2.275-11.795,3.062-2.034.43-4.051.8-5.994,1.095-2.048.313-4.084.556-6.051.724C139.439,363.432,137.526,363.515,135.685,363.515Zm-65.77-68.028a3.02,3.02,0,0,1,1.467.393,3.473,3.473,0,0,1,1.16,1.067l3.942,5.749,7.815,11.4,7.813,11.4c.947,1.381,1.9,2.8,2.817,4.169,1.768,2.635,3.6,5.359,5.492,7.969a84.6,84.6,0,0,0,6.059,7.506,42.994,42.994,0,0,0,3.931,3.782,37.918,37.918,0,0,0,4.332,3.165,35.031,35.031,0,0,0,4.745,2.485,34.429,34.429,0,0,0,5.17,1.744,42.12,42.12,0,0,0,5.541.989,50.985,50.985,0,0,0,5.646.3h0a68.111,68.111,0,0,0,10.216-.826c3.423-.522,7.017-1.255,10.987-2.24,3.169-.786,6.5-1.71,10.81-3l.523-.156c.449-.135.911-.263,1.4-.4l.006,0c2.686-.745,5.731-1.59,7.425-3.779a8.914,8.914,0,0,0,1.61-4.143,32.622,32.622,0,0,0,.292-4.629h0v0c.007-.469.014-.912.027-1.344l0-.134a192.3,192.3,0,0,0-4.734-49.053c-.94-4.144-1.958-8.175-3.027-11.981-1.144-4.073-2.387-8.039-3.7-11.789l-.684-1.961c-1.1-3.161-2.286-6.519-3.528-9.777-1.733-3.613-3.663-7.183-5.735-10.61a1.12,1.12,0,0,1-.045-1.171,1.407,1.407,0,0,1,1.194-.69,1.16,1.16,0,0,1,1.015.6,126.539,126.539,0,0,1,8.17,16c.22.443.446.907.692,1.417a33.681,33.681,0,0,1,2.5-6.242,37.869,37.869,0,0,1,4.611-6.891l.176-.213a17.577,17.577,0,0,1,2.949-2.92A8.532,8.532,0,0,1,182.775,240a2.328,2.328,0,0,1,.379-.032,1.986,1.986,0,0,1,.935.227,1.76,1.76,0,0,1,.653.6,1.885,1.885,0,0,1,.064,1.842,16.965,16.965,0,0,1-3.672,4.71h0c-.392.4-.8.806-1.191,1.226a35.284,35.284,0,0,0-4.288,5.669,49.938,49.938,0,0,0-3.365,6.628c-.14.328-.282.672-.406.975-.2.5-.415,1.01-.639,1.506a163.945,163.945,0,0,1,9.664,30.834c.022.1.042.2.06.293q.015.077.03.153c.782.455,1.554.984,2.3,1.494.566.388,1.151.789,1.725,1.145l1.022.634c1.235.765,2.676,1.648,4.139,2.456,1.826,1.007,3.637,1.918,5.384,2.71.515.234,1.038.448,1.544.655h0a15.418,15.418,0,0,1,4.1,2.181,1.123,1.123,0,0,1,.323,1.3,1.393,1.393,0,0,1-1.247.963h-.016a8.671,8.671,0,0,1-2.632-.48,20.957,20.957,0,0,1-2.479-1.051l-1.116-.544a57.177,57.177,0,0,1-5.637-3.123,48.144,48.144,0,0,1-5.341-3.861l-.468-.394c-.378-.319-.681-.581-.954-.826l.2,1.058c.035.19.067.363.1.53.281.155.589.315.943.491.064.21.13.417.2.613a.75.75,0,0,0-.328.806c.264,1.128.42,2.292.571,3.418l.007.053q.025.184.05.367l.044.321-.574-.436c.13.883.248,1.766.346,2.514a48.072,48.072,0,0,1,9.754,1.871c3.094.891,6.1,1.97,9.417,3.185,3.218,1.177,6.52,2.557,10.093,4.219l.8.372c1.268.593,2.624,1.243,3.94,1.977.138.078.28.16.423.244l.209.124.5-.132c.631.2,1.316.414,2.094.666,2.664,1.832,5.247,3.681,8.308,5.892l3.046,2.2c3.694,2.666,6.811,4.876,10.018,6.994l.512.337c2.469,1.618,4.525,2.847,6.468,3.87a41.119,41.119,0,0,0,6.927,2.935,27.233,27.233,0,0,0,4.195.952,29.4,29.4,0,0,0,4.213.3,37.336,37.336,0,0,0,7.355-.775c4.17-.833,8.366-1.914,12.425-2.96h0c1.575-.406,3.2-.825,4.805-1.224,1.75-.435,3.635-.9,5.93-1.467.664-.482,1.307-1,1.913-1.538a58.141,58.141,0,0,0,7.163-12.163,60.577,60.577,0,0,0,4.1-13.541,57.409,57.409,0,0,0-3.318-31.691A62.263,62.263,0,0,0,301,271.095a71.324,71.324,0,0,0-4.316-6.7c-1.515-2.091-3.2-4.187-5-6.229-1.707-1.934-3.567-3.87-5.529-5.755-1.916-1.842-3.979-3.687-6.13-5.484-2.028-1.694-4.2-3.4-6.469-5.079-4.066-3.01-8.533-6.013-13.656-9.179-6.258-3.866-12.934-7.694-20.412-11.7a26.642,26.642,0,0,1-2.771-1.25c-1.976-.854-3.756-1.646-5.444-2.422-1.854-.823-3.562-1.589-5.221-2.343-1.324-.6-2.72-1.242-4.151-1.9l-1.381-.641c-.192-.089-.389-.179-.579-.266l-.014-.006a16.326,16.326,0,0,1-3.542-1.991,5.91,5.91,0,0,1-1.118-1.184l-.181-.107c-.087-.051-.175-.1-.261-.156a12.315,12.315,0,0,1-2.194,2.6c-.682.337-1.34.693-1.893,1-.459.161-.918.33-1.364.5-.833.289-1.652.6-2.625.977a3.311,3.311,0,0,1-.614-.118,31.839,31.839,0,0,1-6.891,2.108l-.04.005c-1.756.766-3.673,1.546-5.86,2.387-2.521.969-5.157,1.88-7.835,2.708-2.575.8-5.263,1.54-7.991,2.209-4.548,1.115-9.429,2.083-14.507,2.877-4.612.721-9.416,1.312-14.684,1.805-4.793.447-9.159.776-13.348,1.005-4.727.258-9.1.384-13.381.384-.461,0-.932,0-1.4,0a109.021,109.021,0,0,1-19.657-1.692,65.971,65.971,0,0,1-9.512-2.52,49.544,49.544,0,0,1-8.836-4.081c-.023.262-.056.526-.088.782-.013.108-.027.219-.04.329l-.042.389a42.374,42.374,0,0,1,.14,7.63c-.154,2.2-.462,4.424-.76,6.572v0c-.256,1.846-.521,3.755-.687,5.643a2.48,2.48,0,0,1-.893,1.8,88.946,88.946,0,0,0,.96,25.456,1.927,1.927,0,0,1,.629.553,14,14,0,0,0,.3,1.5v.007a.261.261,0,0,1-.009.041,3.225,3.225,0,0,1-.3.756,65.015,65.015,0,0,0,2.73,8.736,58.1,58.1,0,0,0,4.043,8.289,74.535,74.535,0,0,0,6.45,9.078c2.444,2.995,5.16,5.989,7.343,8.394l1.413,1.558c2.671,2.946,5.5,6.095,8.074,9.36,1.579,2,2.822,3.677,3.909,5.276l.436.64a16.6,16.6,0,0,1,2.6,5.1,2.407,2.407,0,0,1-.451,2.116,2.775,2.775,0,0,1-.918.761,2.513,2.513,0,0,1-1.14.285,2.238,2.238,0,0,1-1.656-.74,25.08,25.08,0,0,1-2.839-3.929v0c-.394-.628-.8-1.277-1.23-1.9-1.179-1.711-2.468-3.421-3.942-5.226-2.472-3.027-5.136-5.979-7.712-8.834l0,0-.716-.794-1.079-1.2c-2.519-2.805-5.189-5.837-7.657-8.994a72.062,72.062,0,0,1-6.557-9.8,66.326,66.326,0,0,1-5.657-14.06c-.411.39-.719.7-1,.994a24.026,24.026,0,0,0-6.4,14.235c-.126,1.4-.194,2.687-.206,3.926A2.8,2.8,0,0,1,69.914,295.487ZM74.39,262.96l-1.117.29a57.065,57.065,0,0,0-10.45,3.493,22.647,22.647,0,0,0-4.578,2.869,18.26,18.26,0,0,0-1.981,1.885,17.53,17.53,0,0,0-1.72,2.249,20.443,20.443,0,0,0-2.094,4.345,26.566,26.566,0,0,0-1.141,4.7,43.54,43.54,0,0,0-.258,9.673c.1,1.474.26,2.944.461,4.369l.07.483c.052.35.1.716.142,1.1a11.054,11.054,0,0,0,.976,4,7.1,7.1,0,0,0,2.359,2.128A12.511,12.511,0,0,1,56.5,305.6a13.876,13.876,0,0,1,1.671,1.827,17.567,17.567,0,0,1,1.363,2.069,40.846,40.846,0,0,1,2.968,7.393c.179.547.364,1.112.553,1.669l.109.32a28.179,28.179,0,0,0,1.589,3.871,11.8,11.8,0,0,0,2.452,3.3,8.726,8.726,0,0,0,3.077,1.73,9.37,9.37,0,0,0,3.09.521c.29,0,.607-.011.97-.032a10.159,10.159,0,0,0,1.779-.308,8.992,8.992,0,0,0,1.745-.618,11.587,11.587,0,0,0,1.5-.948,6.5,6.5,0,0,1,2.668-1.294,2.424,2.424,0,0,1,.475-.046,2.785,2.785,0,0,1,1.253.3c.289-.2.514-.356.727-.491l-.113-.166c-.2-.291-.422-.62-.639-.935L67.406,299.944a2.476,2.476,0,0,1-.419-1.479,3.174,3.174,0,0,1,.431-1.494c-.15-.386-.289-.8-.426-1.262a17.519,17.519,0,0,1-.7-4.41,24.613,24.613,0,0,1,.29-4.517,25.631,25.631,0,0,1,1.1-4.393,26.339,26.339,0,0,1,4.506-8.158l.188-.227a22.854,22.854,0,0,1,3.144-3.2c-.283-1.453-.524-2.9-.717-4.309-.157-1.132-.3-2.323-.411-3.538ZM183.4,309.276c.306,2.5.571,5.092.787,7.693a10.8,10.8,0,0,0,1.089.056,9.588,9.588,0,0,0,3.189-.537,13.147,13.147,0,0,0,2.964-1.538c.279-.189.545-.392.8-.589h0a11.729,11.729,0,0,1,1.095-.774l-1.51-.607C189.226,311.933,186.225,310.7,183.4,309.276ZM34.263,255.045c-.25.449-.5.9-.746,1.337-.934,1.67-1.9,3.4-2.777,5.138a61.016,61.016,0,0,0-3.684,8.867c-.756,3.153-1.442,6.576-2.1,10.467-.337,1.993-.627,4.029-.907,6v0c-.316,2.22-.643,4.515-1.039,6.76a25.848,25.848,0,0,1-1.631,5.722,17.9,17.9,0,0,1-1.373,2.61,15.609,15.609,0,0,1-1.851,2.36,31.555,31.555,0,0,1-6.266,4.685c-.448.28-.912.57-1.37.863l-.425.274a15.392,15.392,0,0,0-2.854,2.233,6.162,6.162,0,0,0-1.6,2.451l.212.053a2.195,2.195,0,0,0,.252.049,22.042,22.042,0,0,0,2.487.13c.213,0,.433,0,.655-.007a32.9,32.9,0,0,0,6.439-.849c2.188-.489,4.379-1.111,6.5-1.713,2.092-.594,4.256-1.209,6.414-1.695a50.512,50.512,0,0,1,11.066-1.261c.89,0,1.786.026,2.663.077l.474.028c3.461.217,7.914.666,11.653,2.233-.16-.273-.331-.545-.506-.807a13.216,13.216,0,0,0-2.961-2.764l0,0c-.252-.192-.512-.392-.761-.588a8.987,8.987,0,0,1-3.33-5.8,71.106,71.106,0,0,1-1.088-11.683,46.986,46.986,0,0,1,.291-5.648,34.244,34.244,0,0,1,1.092-5.561,25.316,25.316,0,0,1,2.122-5.194,20.592,20.592,0,0,1,3.381-4.545c.015-.012.03-.027.045-.042.013-.258.02-.511.023-.771a2.851,2.851,0,0,1-1.3-.975,2.609,2.609,0,0,1-.511-1.582,37.708,37.708,0,0,1,.469-5.967,2.3,2.3,0,0,1-1-.784,2.25,2.25,0,0,1-.407-1.3,9.246,9.246,0,0,1,1.162-3.9v0c.106-.226.215-.46.319-.691l.058-.131c.573-1.294,1.129-2.555,1.8-4.069l2.393-5.425c.459-1.039.84-1.9,1.2-2.711,2.568-5.772,5.269-11.6,7.882-17.232,1.633-3.523,3.322-7.165,4.965-10.765,2-4.375,3.535-7.937,4.842-11.211.717-2.962,1.56-5.944,2.376-8.828.317-1.121.645-2.28.962-3.425a121.942,121.942,0,0,0,2.874-12.33,84.838,84.838,0,0,0,1.068-13.061c.046-4-.12-8.261-.508-13.016-.386-4.728-.952-9.409-1.4-12.958l-.073-.574c-1.013-7.952-2.189-17.378-3.225-27A206.929,206.929,0,0,0,54.3,109.294c-.594,0-1.2,0-1.792.008a95.6,95.6,0,0,1-.517,22.243c-.173,2.21-.414,4.544-.737,7.134-.517,4.158-1.233,8.678-2.189,13.819-.852,4.583-1.812,9.225-2.741,13.715v.006c-.989,4.782-2.012,9.727-2.906,14.611-1,5.478-1.735,10.3-2.239,14.733-.523,4.608-.941,9.41-1.279,14.679-.283,4.422-.511,9.237-.7,14.718-.148,4.378-.257,9.17-.333,14.648-.033,2.347-.061,4.822-.085,7.567l-.03,3.661c0,.136,0,.272,0,.417a5.8,5.8,0,0,1-.125,1.6,4.57,4.57,0,0,1-.815,1.448l-.09.123-.133.184a2.3,2.3,0,0,1-1.87,1.031A2.157,2.157,0,0,1,34.263,255.045Zm37.055-35.289c-1.316,3.336-2.7,6.705-4.047,9.964l-.1.233c-1.954,4.738-3.944,9.371-5.633,13.278l-3.86,8.915c-.409.939-.834,1.92-1.209,2.786l-.083.192-.38.878c-.074.172-.149.351-.215.508a15.979,15.979,0,0,1-.723,1.565c.041.256.075.5.1.694v.005c.022.161.041.3.058.4l.007.04c.1.512.189,1.033.28,1.538l0,.023c.26,1.442.528,2.933.854,4.389A3.008,3.008,0,0,1,56.4,266.4c.523-.31,1.078-.6,1.65-.876a32.651,32.651,0,0,1,5.313-2.382l.032-.012.73-.277c3.262-1.248,6.6-2.188,10.008-3.12a95.621,95.621,0,0,1,.675-18.512c.315-2.335.653-4.445,1.033-6.45.135-.709.292-1.427.443-2.122a41.586,41.586,0,0,0,.763-4.18c.23-2.049,0-5.029-1.389-6.687a3.411,3.411,0,0,0-2.487-1.247l-.113-.006A2.325,2.325,0,0,1,71.318,219.756ZM299.1,263.481h0c.457.641.921,1.315,1.379,2.005a1.655,1.655,0,0,1,.261-.168C300.229,264.73,299.677,264.111,299.1,263.481ZM74.327,262.274l-1.114.308h.053c.356-.009.725-.019,1.086-.024C74.342,262.461,74.335,262.368,74.327,262.274Zm171.735-42.846h0c.374.617.772,1.225,1.182,1.807l.21.294.782.328a1.3,1.3,0,0,1,.3.168c.086.033.173.066.251.094l.1.036C247.8,221.214,246.805,220.2,246.062,219.428Zm-19.434-7.792a1.3,1.3,0,0,1,.584.145c4.649,2.336,8.827,4.492,12.774,6.59l.675.293c-.033-.064-.064-.128-.093-.189l-.035-.072a2.369,2.369,0,0,1-.692-.4c-1.484-1.237-2.029-3.145-2.557-4.99-.126-.442-.257-.9-.4-1.335l-2.073-6.263c-1.492-4.5-2.871-8.674-4.218-12.76-1.648-5-3.389-10.063-5.074-14.96v0l-.006-.017c-.854-2.481-1.736-5.047-2.6-7.573l-.265-.783c-1.867-5.527-2.723-8.59-3.26-10.642a76.473,76.473,0,0,1-2.1-10.922,98.836,98.836,0,0,1-.551-9.973c-.034-3.334.044-6.724.12-10v-.016c.029-1.233.058-2.507.081-3.758l.014-.8c.01-.636.019-1.293.027-1.874.084-5.992.17-12.187,1.331-18.067-.3.011-.588.018-.848.023-.215,0-.431,0-.641,0a45.727,45.727,0,0,1-6.232-.43c-1.476-.2-2.594-.4-3.626-.643-.67-.157-1.228-.29-1.8-.456a2.46,2.46,0,0,1-.668-.32l-.006,0-.128-.079c-.1,3.129-.222,6.2-.348,9.332-.135,3.369-.292,6.79-.444,10.1-.319,6.951-.649,14.138-.795,21.21l-.014.7c-.07,3.775-.1,8.75.313,13.758a65.808,65.808,0,0,0,2.419,13.524,45.788,45.788,0,0,0,2.446,6.358c.866,1.854,1.879,3.767,3.188,6.021l.813,1.395c.959,1.651,2.061,3.579,3,5.572a27.97,27.97,0,0,1,2.085,5.936,18.931,18.931,0,0,1,.263,6.1,1.12,1.12,0,0,1,.078.919l-.2.636a11.3,11.3,0,0,0-.475,2.058,3.709,3.709,0,0,0,.266,2.014,3.043,3.043,0,0,0,.236.41l1.371.613c.61.274,1.331.6,2.052.94,2.042.966,4.041,1.982,5.554,2.76A1.185,1.185,0,0,1,226.628,211.635ZM103.665,29.387a2.639,2.639,0,0,1,.709.1c0-.182,0-.365,0-.543-.1.063-.209.127-.309.189h0c-.138.085-.281.174-.423.257Zm26.213,315.551a6.145,6.145,0,0,1-3.087-.854,6.88,6.88,0,0,1-2.349-2.288,9.39,9.39,0,0,1-1.346-4.285,15.5,15.5,0,0,1,.356-4.512,44.957,44.957,0,0,1,3.16-8.588,59.718,59.718,0,0,1,3-5.592c.435-.745.884-1.513,1.315-2.283a.158.158,0,0,1,.139-.088.19.19,0,0,1,.155.089.178.178,0,0,1,.009.177,40.932,40.932,0,0,0-2.327,7.452,45.033,45.033,0,0,0-1.142,6.8l-.059.743-.018.219-.007.082a23.321,23.321,0,0,0-.117,3.1,6.948,6.948,0,0,0,.728,2.949,6.726,6.726,0,0,0,3.477,3.251l.089.024a1.51,1.51,0,0,1,1.2,1.431,1.891,1.891,0,0,1-.287,1.084,1.793,1.793,0,0,1-.917.745A5.831,5.831,0,0,1,129.878,344.938Zm158.9-35.311a1.741,1.741,0,0,1-1-.3,1.612,1.612,0,0,1-.637-.951,57.221,57.221,0,0,0-2.755-8.014,55.181,55.181,0,0,0-3.973-7.589,49.592,49.592,0,0,0-5.142-6.823,42.961,42.961,0,0,0-6.262-5.717.186.186,0,0,1-.066-.214.154.154,0,0,1,.244-.092,61.038,61.038,0,0,1,6.84,5.272,47.664,47.664,0,0,1,5.9,6.289,57.13,57.13,0,0,1,8.636,15.946,1.494,1.494,0,0,1-.161,1.4A2.027,2.027,0,0,1,288.781,309.627Zm-75.056-26.642a1.473,1.473,0,0,1-.811-.235,1.1,1.1,0,0,1-.477-.7,28.092,28.092,0,0,1-.57-5.161,33.885,33.885,0,0,1,.31-5.15,50.112,50.112,0,0,1,2.537-10.044c.578-1.634,1.225-3.237,1.924-4.764.717-1.568,1.511-3.1,2.359-4.566a43.928,43.928,0,0,1,4.385-5.913c.543-.653,1.105-1.327,1.643-2a.1.1,0,0,1,.082-.041.147.147,0,0,1,.122.077.118.118,0,0,1,0,.122,43.594,43.594,0,0,0-3.365,7.288c-.15.386-.32.823-.488,1.249l-.232.583a74.943,74.943,0,0,0-3,9.135,105.925,105.925,0,0,0-2.159,12.252c-.31,2.278-.63,4.634-1.031,6.937a1.053,1.053,0,0,1-.444.7A1.39,1.39,0,0,1,213.725,282.985ZM97.365,267.5h0a.256.256,0,0,1-.215-.141.206.206,0,0,1,.006-.218,33.13,33.13,0,0,1,6.267-6.754,47.983,47.983,0,0,1,7.675-5.14l.348-.188a47.522,47.522,0,0,1,7.752-3.374,31.469,31.469,0,0,1,4.123-1.043,23.876,23.876,0,0,1,4.176-.386c.6,0,1.2.026,1.776.078a1.639,1.639,0,0,1,1.066.508,1.68,1.68,0,0,1,.449.986,1.432,1.432,0,0,1-.215.927,1.531,1.531,0,0,1-.886.622c-1.936.558-3.912,1.038-5.824,1.5h0a72.338,72.338,0,0,0-11.228,3.385,54.91,54.91,0,0,0-7.842,4.157c-2.556,1.606-5.023,3.371-7.309,5.04A.19.19,0,0,1,97.365,267.5Zm-23.791-113.2a14.912,14.912,0,0,1-3.483-.562c-.411-.1-.836-.2-1.258-.293a48.948,48.948,0,0,0-5.958-.9c-3.511-.307-7.086-.342-10.542-.376h-.024l-1.8-.019a.4.4,0,0,1-.419-.319.5.5,0,0,1,.3-.557,33.943,33.943,0,0,1,12.719-2.421c.247,0,.5-.005.742-.005a53.541,53.541,0,0,1,5.363.27l1.056.113a17.21,17.21,0,0,1,3.008.521,6.416,6.416,0,0,1,2.65,1.473,1.582,1.582,0,0,1,.45.776,1.782,1.782,0,0,1-.011.872,1.806,1.806,0,0,1-.423.775,1.6,1.6,0,0,1-.778.462A6.412,6.412,0,0,1,73.575,154.308Z" transform="translate(18.557 -11.768)"/>
    </g>
    <g id="Head" transform="translate(86.512 45.072)">
      <g id="HEAD-2" data-name="HEAD">
        <path id="_Skin-2" data-name="âœ‹ Skin" d="M25.413.083c37.927-1.866,63.661,28.065,64.768,40,.768,8.285.247,19.335.247,26.738,0,3.779,1.906,15.266-.247,20.774-4.791,12.259-10.2,21.862-25.2,21.862s-37.862-7.779-45.713-17.812C17.833,89.814.02,76.4.02,65.865.02,43.378-1.65,1.415,25.413.083Z" transform="translate(11.993 15.909)" fill="#d08b5b"/>
        <path id="_Ink-2" data-name="ðŸ– Ink" d="M90.9,135.6a29.612,29.612,0,0,1-7.654-1.02l-.319-.087a29.656,29.656,0,0,1-4.462-1.565,16.532,16.532,0,0,1-2.1-1.133,10.921,10.921,0,0,1-1.795-1.429,1.545,1.545,0,0,1-.435-.91,1.971,1.971,0,0,1,.142-1,1.555,1.555,0,0,1,1.395-1.049,1.5,1.5,0,0,1,.556.112,26.08,26.08,0,0,1,2.461,1.186c.725.381,1.474.775,2.246,1.1A27.329,27.329,0,0,0,91.3,131.863a26.025,26.025,0,0,0,3.539-.24,24.11,24.11,0,0,0,7.887-2.52,25.672,25.672,0,0,0,6.531-4.875A26.894,26.894,0,0,0,114,117.568a26.565,26.565,0,0,0,2.541-7.879,56.093,56.093,0,0,0,.437-9.275l-.036-3.393c-.025-2.568-.042-5.556.067-8.515.126-3.474.367-7.05.736-10.935l.18-1.892c.195-2.019.438-4.362.869-6.627h0c-.328,0-2.728-4.07-4.5-7.131a3.116,3.116,0,0,1-1.178-1.658,2.558,2.558,0,0,1-.067-.436c-.325-.512-.67-1.01-1.023-1.482l-.078-.035c-.06-.027-.107-.05-.135-.066a4.915,4.915,0,0,1-1.07-.824,5.253,5.253,0,0,1-.818-1.076,5.094,5.094,0,0,1-.375-.82,26.56,26.56,0,0,0-2.011-1.788c-.039-.031-.079-.062-.119-.091l-.092-.07a5.051,5.051,0,0,1-2.252-1.562c-.237-.147-.48-.293-.723-.436a5.891,5.891,0,0,1-2.182-.472,10.307,10.307,0,0,1-1.775-1.025,9.5,9.5,0,0,0-1.9-1.072,2.168,2.168,0,0,0-.774-.134,5.87,5.87,0,0,0-1.563.3l-.017,0a5.955,5.955,0,0,1-1.613.305,2.628,2.628,0,0,1-.374-.026,3.8,3.8,0,0,1-1.1-.336,21.037,21.037,0,0,1-2.693,2.445,13.147,13.147,0,0,1-4.5,2.02,5.088,5.088,0,0,1-2.821,1.63,57.444,57.444,0,0,1-8.117,5.338,2.8,2.8,0,0,1-1.351.375,11.47,11.47,0,0,1-2.91,1.3,2.393,2.393,0,0,1-.667.093,2.647,2.647,0,0,1-.32-.02l-.9.731a3.193,3.193,0,0,1-1.928.768c-.371.284-.765.562-1.2.849a2.546,2.546,0,0,1-1.4.381c-.064,0-.13,0-.195-.006a2.639,2.639,0,0,1-1.874.783,2.884,2.884,0,0,1-1.11-.226c-.147.086-.28.157-.419.222a4.664,4.664,0,0,1-.642.247,4.742,4.742,0,0,1-3.464,1.518,4.622,4.622,0,0,1-.462-.023,6.576,6.576,0,0,1-1.58.7,5.975,5.975,0,0,1-1.685.248c-.116,0-.233,0-.347-.011-.182.915-.339,1.855-.48,2.874l-.014.7c0,.12,0,.205,0,.262v.023c.062,1.565.11,3.157.157,4.7v.007c.045,1.495.092,3.04.152,4.56l.011.244c.011.221.026.455.041.7v0c.123,1.966.292,4.658-.955,5.987a2.441,2.441,0,0,1-.877.6,3.338,3.338,0,0,1-1.246.218l-.126,0a4.739,4.739,0,0,1-2.168-.691,15.779,15.779,0,0,1-1.923-1.332l-.162-.126L44.6,87c-.3-.04-.613-.092-.911-.143a12.684,12.684,0,0,0-1.663-.209c-.136,0-.276-.007-.414-.007a12.658,12.658,0,0,0-2.826.323,8.326,8.326,0,0,0-4.824,2.787c-.092.116-.186.248-.3.413a2.181,2.181,0,0,1-.423.784,8.023,8.023,0,0,0-.509,4.218,11.756,11.756,0,0,0,4.15,7.576,12.082,12.082,0,0,0,3.976,2.16l.15.048c2.013.629,2.8,1.845,3.884,3.527l.035.054a35.859,35.859,0,0,0,3.5,4.527c.771.859,1.657,1.688,2.513,2.489,1.9,1.781,3.871,3.622,4.859,6.017a.765.765,0,0,1-.082.736,1.1,1.1,0,0,1-.878.476.829.829,0,0,1-.224-.03,9.6,9.6,0,0,1-3.2-1.653,29.152,29.152,0,0,1-2.7-2.428l0,0-.211-.206c-1.356-1.322-2.543-2.589-3.631-3.873a2.605,2.605,0,0,1-.779.219,8.422,8.422,0,0,1-1.028.067,4.635,4.635,0,0,1-2.5-.635c-.051,0-.1.007-.155.007a1.834,1.834,0,0,1-1.224-.48,6.11,6.11,0,0,1-.9-1.033c-.21.018-.391.027-.554.027a3.444,3.444,0,0,1-.569-.043,1.438,1.438,0,0,1-.5-.137,2.18,2.18,0,0,1-.808-.556,2.3,2.3,0,0,1-.528-.951,2.742,2.742,0,0,1-.079-1.09,2.584,2.584,0,0,1-.3-.08,2.682,2.682,0,0,1-1.523-1.3,5.7,5.7,0,0,1-1.531-1.263,5.494,5.494,0,0,1-1.082-1.966,4.679,4.679,0,0,1-.654-.368,4.57,4.57,0,0,1-1.671-2.066,3.78,3.78,0,0,1-.1-2.628l.02-.055c.029-.077.084-.214.151-.368l0-.024c-.009-.114-.018-.233-.025-.35l-.021-.376-.3-.128a5.027,5.027,0,0,1-1.844-1.137,3.219,3.219,0,0,1-.853-1.957,1.487,1.487,0,0,1,.312-1v-.094c-.105-.054-.2-.106-.272-.154a2.776,2.776,0,0,1-.961-1.048,2.647,2.647,0,0,1-.3-1.382,3.874,3.874,0,0,1,1.091-2.24l.157-.183.029-.033.014-.016-.364-.114a3.456,3.456,0,0,1-.608-.237,3.536,3.536,0,0,1-1.426-1.373L23.159,88c-.038-.059-.077-.12-.112-.184a3.234,3.234,0,0,1-.2-2.487,2.466,2.466,0,0,1,.112-.27,3.158,3.158,0,0,1-1.406-.93,3.162,3.162,0,0,1-.288-3.417,3.483,3.483,0,0,1-.034-1.028,2.79,2.79,0,0,1-.827-1.351,2.509,2.509,0,0,1,.1-1.491,5.066,5.066,0,0,1,.81-1.393,3.039,3.039,0,0,1,.023-2.209,3.768,3.768,0,0,1-.181-1.113,3.67,3.67,0,0,1,.177-1.176,3.778,3.778,0,0,1,.5-.991,3.029,3.029,0,0,1-.618-1.234,2.307,2.307,0,0,1,.092-1.367,11.37,11.37,0,0,1,.865-1.779,3.623,3.623,0,0,1-.273-1.4,3.328,3.328,0,0,1,.242-1.266,3.606,3.606,0,0,1,.645-1.019,3.006,3.006,0,0,1,.162-1.707,2.3,2.3,0,0,1,1.111-1.241,8.745,8.745,0,0,1,1.484-.526c.228-.713.45-1.37.678-2.01.362-1.013.766-2.058,1.2-3.1a8.163,8.163,0,0,1-.769.6,11.066,11.066,0,0,1-2.9,2.554,3.717,3.717,0,0,1-1.884.537,3.277,3.277,0,0,1-1.75-.5,3.545,3.545,0,0,1-1.27-1.427,4.315,4.315,0,0,1-2.571.921,3.7,3.7,0,0,1-.432-.025,3.4,3.4,0,0,1-1.708-.694,2.8,2.8,0,0,1-1-1.532,2.593,2.593,0,0,1-.075-.581A8.741,8.741,0,0,1,10.771,54.4a1.585,1.585,0,0,1-.493.079,1.745,1.745,0,0,1-1.166-.469,1.853,1.853,0,0,1-.6-1.118,1.737,1.737,0,0,1,.183-1.07l-.1-.04-.051-.023a2.318,2.318,0,0,1-1.182-1.277,2.376,2.376,0,0,1-.861.162,2.174,2.174,0,0,1-1.276-.4,2.12,2.12,0,0,1-.8-1.153,9.151,9.151,0,0,1-.125-4.66,5.359,5.359,0,0,1-1.535-1.778,5.812,5.812,0,0,1-.031-5.52,1.949,1.949,0,0,1-1.122-1.149,2.489,2.489,0,0,1,.084-2,2.673,2.673,0,0,1-1.257-2.24,1.933,1.933,0,0,1-.314-.868A2.244,2.244,0,0,1,.27,29.846a4.633,4.633,0,0,1,.805-1.336,6.945,6.945,0,0,1,1.173-1.085,7.8,7.8,0,0,1-.826-2.1,1.943,1.943,0,0,1-1.4-1.651,2.016,2.016,0,0,1,.349-1.44,2.066,2.066,0,0,1,1.179-.808,6.317,6.317,0,0,1,.4-.964,4.215,4.215,0,0,1-.3-1.852,4.967,4.967,0,0,1,.512-1.931A4.2,4.2,0,0,1,3.2,15.333a5.615,5.615,0,0,1,1.44-.872,2.319,2.319,0,0,1,.988-2.539A13.2,13.2,0,0,1,9.2,9.983a4.108,4.108,0,0,1,.4-2.158A2.854,2.854,0,0,1,11.21,6.4a3.592,3.592,0,0,1,1.213-.191h.021a4.332,4.332,0,0,1,1.482-1.685,2.066,2.066,0,0,1,1.216-.353,2.505,2.505,0,0,1,2.233,1.207l.027.058c.017.039.036.077.053.113l0,0,.033.07a2.966,2.966,0,0,1,.8-1.5,3.264,3.264,0,0,1,.984-.7,2.454,2.454,0,0,1,1-.212,3.255,3.255,0,0,1,1.266.283,7.271,7.271,0,0,1,.726-1.38A3.272,3.272,0,0,1,23.4,1.063,2.757,2.757,0,0,1,24.732.724a2.921,2.921,0,0,1,1.6.488A4.756,4.756,0,0,1,28.047.219,4.465,4.465,0,0,1,29.372,0a3.768,3.768,0,0,1,3.2,2.024,1.507,1.507,0,0,1,.292-.029,1.557,1.557,0,0,1,.369.046c.067.016.234.081.3.109a1.577,1.577,0,0,1,.227.12l.042-.022a3.277,3.277,0,0,1,.517-.469,1.711,1.711,0,0,1,1-.336,1.656,1.656,0,0,1,.243.018l.187-.069a4.744,4.744,0,0,1,1.562-.275,3.733,3.733,0,0,1,1.561.327,3.474,3.474,0,0,1,1.3,1.028,4.347,4.347,0,0,1,.525.876,3.3,3.3,0,0,1,.894.451,3.3,3.3,0,0,1,.589-.214,3.82,3.82,0,0,1,.95-.12,4.077,4.077,0,0,1,2.433.827,3.723,3.723,0,0,1,1.074,1.3,2.96,2.96,0,0,1,.867.364,4.844,4.844,0,0,1,.724-.3,7.587,7.587,0,0,1,2.232-.33c.191,0,.384.007.574.021a3.356,3.356,0,0,1,1.65.606,3.5,3.5,0,0,1,1.155,1.323,2.434,2.434,0,0,1-.18,2.514l-.042.06a7.274,7.274,0,0,0-.459.737,5.884,5.884,0,0,1,1.38.845,5.331,5.331,0,0,1,1.241,1.453,5.91,5.91,0,0,1,.647,1.7,10.125,10.125,0,0,1,.013,3.744l-.017.1h0a1.886,1.886,0,0,1,1.483.992,1.389,1.389,0,0,1-.059,1.383l-.032.052c-.554.857-1.069,1.786-1.567,2.685-.307.554-.624,1.126-.949,1.68A39.877,39.877,0,0,0,48.508,28.4a31.136,31.136,0,0,0-3.731,3.791,21.7,21.7,0,0,0-1.545,2.173,1.128,1.128,0,0,0,.492.116,1.091,1.091,0,0,0,.747-.309A33.777,33.777,0,0,1,56.729,27.1a1.1,1.1,0,0,0,.658-.564,49.5,49.5,0,0,1,6.1-1.328c.284-.271.58-.54.866-.8h0c.284-.259.578-.527.86-.8a1.814,1.814,0,0,1,2.3-.246c.322-.147.658-.281,1.026-.409l.216-.074.115-.04c.049-.017.1-.035.15-.051a10.105,10.105,0,0,1,3-.445,15.888,15.888,0,0,1,4,.588l.3.079a5.26,5.26,0,0,0,1.368.2,6.034,6.034,0,0,0,1.509-.224l.121-.031a9.366,9.366,0,0,1,2.307-.357,4.63,4.63,0,0,1,1.217.152A6.061,6.061,0,0,1,85.708,24.7l.083.089a1.138,1.138,0,0,0,1.009.451h.11l.543-.016c.293-.008.534-.012.76-.012a9.223,9.223,0,0,1,2.58.293,4.933,4.933,0,0,1,2.254,1.336,9.01,9.01,0,0,1,1.542,2.175l.053.113c.018.04.034.072.046.1a3.3,3.3,0,0,0,.436-.122,2.948,2.948,0,0,1,.29-.085,6.728,6.728,0,0,1,1.277-.128,5.317,5.317,0,0,1,4.257,2.125c.162.2.371.5.573.8.189.276.385.561.544.762a3.939,3.939,0,0,1,.327.312,3.215,3.215,0,0,0,1.346.361c.2.024.384.047.56.082a8.977,8.977,0,0,1,2.425.8,4.832,4.832,0,0,1,1.033.717,3.82,3.82,0,0,1,.785,1.009,6.98,6.98,0,0,1,.595,1.93l0,.011.03.144a4.376,4.376,0,0,1,1.324,1.456,7.107,7.107,0,0,1,.451.975,5.6,5.6,0,0,0,.6,1.209,3.425,3.425,0,0,0,1.158.9l0,0,.2.115.19.112a8.553,8.553,0,0,1,1.929,1.472,4.979,4.979,0,0,1,1.187,2.1l.042.153c.011.038.027.086.045.141.085.265.214.666.149.756a.042.042,0,0,1-.036.018.1.1,0,0,1-.043-.011,2.015,2.015,0,0,0,.5.155c.094.021.182.04.249.062a4.145,4.145,0,0,1,2.458,1.848,5.572,5.572,0,0,1,.575,2.067v0q.016.114.033.229l.051.326c.013.083.029.175.044.259l.016.087,0,0c.185.08.369.168.546.261A2.767,2.767,0,0,1,122.276,55a2.122,2.122,0,0,1-.374,1.206,3.6,3.6,0,0,1,.422.883,4.75,4.75,0,0,1,.151,1.969,11.231,11.231,0,0,1-.519,2.239c-.035.11-.061.234-.089.366a2.611,2.611,0,0,1-.176.6,1.52,1.52,0,0,1,.356,1.1,2.651,2.651,0,0,1-.248.85,1.6,1.6,0,0,1-.575.667,13.619,13.619,0,0,1-1.3,3.448,1.366,1.366,0,0,1-.213.3c.042,2.274-.037,4.593-.114,6.836-.057,1.666-.115,3.389-.124,5.078-.02,3.912.051,8.14.218,12.926.044,1.255.11,2.541.174,3.784v0c.15,2.926.3,5.952.2,8.915a40.677,40.677,0,0,1-.376,4.419,29.21,29.21,0,0,1-.949,4.346,28.267,28.267,0,0,1-3.809,7.889,30.225,30.225,0,0,1-5.985,6.4,28.872,28.872,0,0,1-16.5,6.328C91.94,135.586,91.42,135.6,90.9,135.6ZM46.512,99.371a1.328,1.328,0,0,1-.639-.172,4.988,4.988,0,0,1-1.428-1.383,9.5,9.5,0,0,0-.706-.826,11.342,11.342,0,0,0-2.382-1.79,15.565,15.565,0,0,0-5.775-1.76.161.161,0,0,1-.149-.146.259.259,0,0,1,.149-.26,7.986,7.986,0,0,1,2.923-.517,11,11,0,0,1,3.871.729l.154.06A14.65,14.65,0,0,1,45.7,95.023a4.641,4.641,0,0,1,2.053,2.731,1.429,1.429,0,0,1-.305,1.168A1.226,1.226,0,0,1,46.512,99.371Z" transform="translate(-16.515 -8.514)"/>
      </g>
      <g id="FACE" transform="translate(39.871 46.574)">
        <path id="teeth" d="M3.083,1.919c4.2-2.811,25.46-2.261,27.422-.1s6.5,8.311-3.217,11.333S5.551,15.111,2.418,11.411l-.185-.221C-.728,7.591-1.033,4.673,3.083,1.919Z" transform="translate(21.437 50.76)" fill="#fff"/>
        <path id="_Ink-3" data-name="ðŸ– Ink" d="M22.17,53.612a33.24,33.24,0,0,1-9.814-1.356,17.489,17.489,0,0,1-3.918-1.739,9.86,9.86,0,0,1-2.794-2.484,7.483,7.483,0,0,1-.927-7,8.109,8.109,0,0,1,1.894-2.154,8.555,8.555,0,0,1,2.361-1.3,16.121,16.121,0,0,1,5.6-.805c1.422,0,2.887.1,4.18.179l.115.007c1.361.088,2.645.172,3.861.172.233,0,.46,0,.673-.009.3.022.625.032,1,.032,1.069,0,2.348-.087,3.7-.178l.316-.021c1.561-.105,3.087-.2,4.589-.2a20.426,20.426,0,0,1,4.017.334,9.546,9.546,0,0,1,1.717.505,5.81,5.81,0,0,1,1.414.809,10,10,0,0,1,2.152,4.215,5.616,5.616,0,0,1-.444,3.595,8.523,8.523,0,0,1-2.837,3.155,18.814,18.814,0,0,1-4.66,2.32A37.81,37.81,0,0,1,22.17,53.612Zm.378-5.972a2.962,2.962,0,0,0-1.467.454,2.443,2.443,0,0,0-.94.9,5.269,5.269,0,0,0-.18,2.065c0,.04,0,.078.006.1,1.056.106,2.137.16,3.213.16.712,0,1.437-.024,2.152-.07-.079-.262-.147-.538-.212-.8a5.735,5.735,0,0,0-.662-1.819,2.061,2.061,0,0,0-.674-.646,2.657,2.657,0,0,0-1.088-.334c-.048,0-.1-.006-.148-.006Zm6.23.431h0a2.428,2.428,0,0,0-.608.078A2.188,2.188,0,0,0,26.86,49.2a3.05,3.05,0,0,0-.41,1.7.336.336,0,0,1-.053.174l-.019.038a30.959,30.959,0,0,0,4.544-.888,2.656,2.656,0,0,0-.805-1.66,2,2,0,0,0-1.34-.487ZM15.552,46.68h0a2.49,2.49,0,0,0-.427.035,1.873,1.873,0,0,0-.958.52,2.578,2.578,0,0,0-.542.846,4.134,4.134,0,0,0-.3,1.424,28.932,28.932,0,0,0,4.554,1.235c.267.053.555.1.907.163l.02-.247a6.164,6.164,0,0,0-.028-1.2,3.445,3.445,0,0,0-.5-1.469,3.458,3.458,0,0,0-2.734-1.31Zm18.818-.066h0a2.648,2.648,0,0,0-1.116.257,3.02,3.02,0,0,0-.949.706,2.944,2.944,0,0,0-.749,2.307c.315-.1.631-.2.939-.311a20.463,20.463,0,0,0,3.954-1.745,2.453,2.453,0,0,0-2.078-1.215ZM21.058,38.951h0a16.894,16.894,0,0,0-3.047.251l-.044.482-.023.237c-.155,1.6-.3,3.108.535,3.748a3.81,3.81,0,0,0,2.072.4,11.41,11.41,0,0,0,2.6-.3c.049-.012.1-.078.155-.194a7.658,7.658,0,0,0,.407-2.167,5.2,5.2,0,0,0-.224-2.34c-.851-.077-1.668-.115-2.429-.115Zm5.854-.084a12.4,12.4,0,0,0-.305,2.514,2.257,2.257,0,0,0,.5,1.725,3.428,3.428,0,0,0,1.993.454,3.961,3.961,0,0,0,1.815-.33c.257-.169.409-.639.452-1.4a16.168,16.168,0,0,0-.118-2.538,24.132,24.132,0,0,0-4.334-.429Zm5.311.461h0l-.013.257c-.095,1.908.136,3.054.686,3.407a2.113,2.113,0,0,0,1.127.327,2.369,2.369,0,0,0,1.559-.625,5.141,5.141,0,0,0,1.367-2.249c-.131-.343-.748-.616-1.836-.811a24.379,24.379,0,0,0-2.488-.274c-.177-.013-.316-.023-.4-.031Zm-15.191-.11h0l-.725.007-.411.005a16.863,16.863,0,0,0-3.216.309,3.533,3.533,0,0,0-.366,1.514,2.12,2.12,0,0,0,.326,1.137,2.165,2.165,0,0,0,.875.767,2.641,2.641,0,0,0,1.159.264,2.463,2.463,0,0,0,1.937-.889,3.346,3.346,0,0,0,.46-2.946l-.039-.168Zm11.1-5.608h0a8.766,8.766,0,0,1-3.122-.628,15.772,15.772,0,0,1-3.671-2.08,1.408,1.408,0,0,1-.512-.814,1.683,1.683,0,0,1,.073-.914,2.078,2.078,0,0,1,.618-.892,1.506,1.506,0,0,1,.963-.375,1.368,1.368,0,0,1,.745.228l.251.193a19.874,19.874,0,0,0,2.3,1.6,5.667,5.667,0,0,0,2.754.877,2.978,2.978,0,0,0,1.164-.228,3.253,3.253,0,0,0,1.084-.767,3.315,3.315,0,0,0,.631-2.672,5.045,5.045,0,0,0-1.342-2.37,9.779,9.779,0,0,0-2.031-1.637.628.628,0,0,1-.17-.723.943.943,0,0,1,.313-.45.962.962,0,0,1,.6-.2,1.28,1.28,0,0,1,.215.019,6.816,6.816,0,0,1,2.395.864A5.429,5.429,0,0,1,33,24.124,5.885,5.885,0,0,1,34.03,28.06a6.477,6.477,0,0,1-.527,2.066A6.027,6.027,0,0,1,32.316,31.9,5.678,5.678,0,0,1,28.135,33.611ZM39.987,22.867a2.128,2.128,0,0,1-1.257-.43,3.682,3.682,0,0,1-1.014-1.175,7.53,7.53,0,0,1-.884-3.694,7.529,7.529,0,0,1,.884-3.694A3.682,3.682,0,0,1,38.73,12.7a2.054,2.054,0,0,1,2.515,0,3.682,3.682,0,0,1,1.014,1.175,7.529,7.529,0,0,1,.884,3.694,7.53,7.53,0,0,1-.884,3.694,3.682,3.682,0,0,1-1.014,1.175A2.126,2.126,0,0,1,39.987,22.867Zm-28.145,0a2.127,2.127,0,0,1-1.257-.43,3.686,3.686,0,0,1-1.014-1.175,7.532,7.532,0,0,1-.884-3.694,7.532,7.532,0,0,1,.884-3.694A3.686,3.686,0,0,1,10.585,12.7a2.054,2.054,0,0,1,2.515,0,3.682,3.682,0,0,1,1.014,1.175A7.529,7.529,0,0,1,15,17.568a7.53,7.53,0,0,1-.884,3.694A3.682,3.682,0,0,1,13.1,22.437,2.128,2.128,0,0,1,11.842,22.867ZM.33,9.3a.325.325,0,0,1-.271-.166.362.362,0,0,1-.022-.356A12.354,12.354,0,0,1,2.81,5.277,17.148,17.148,0,0,1,6.523,2.745,15.978,15.978,0,0,1,10.93,1.21l.471-.082.241-.041A10.619,10.619,0,0,1,13.325.919,2.975,2.975,0,0,1,15.7,1.8a2.012,2.012,0,0,1,.477,1.431,1.31,1.31,0,0,1-.477.935,3.661,3.661,0,0,1-2.507.734c-.2,0-.4-.005-.6-.01h-.007c-.191,0-.406-.01-.619-.01-.2,0-.372,0-.537.014A16.971,16.971,0,0,0,7.7,5.532,25.366,25.366,0,0,0,.5,9.248.31.31,0,0,1,.33,9.3Zm46.65-1.9h0l-.2-.05A11.236,11.236,0,0,1,44.6,6.511L43.9,6.163a19.655,19.655,0,0,0-2.524-1.074,29.824,29.824,0,0,0-5.75-1.268,2.351,2.351,0,0,1-1.153-.437,1.726,1.726,0,0,1-.645-.981,1.753,1.753,0,0,1,.2-1.471,1.874,1.874,0,0,1,.91-.784A2.052,2.052,0,0,1,35.71,0a2.289,2.289,0,0,1,.448.045l.36.074.239.05a25.069,25.069,0,0,1,6.092,2.024,12.363,12.363,0,0,1,2.659,1.776,7.934,7.934,0,0,1,1.882,2.449c.068.52.005.649-.065.737l-.02.025-.018.024a.5.5,0,0,1-.308.2Z" transform="translate(14.795 13.021)"/>
      </g>
    </g>
  </g>
</svg>
