<?xml version="1.0" encoding="UTF-8"?>
<svg width="853px" height="844px" viewBox="0 0 853 844" version="1.1" xmlns="http://www.w3.org/2000/svg" xmlns:xlink="http://www.w3.org/1999/xlink">
    <!-- Generator: Sketch 62 (91390) - https://sketch.com -->
    <title>peep-sitting-13</title>
    <desc>Created with Sketch.</desc>
    <g id="Introduction" stroke="none" stroke-width="1" fill="none" fill-rule="evenodd">
        <g id="variations-sitting" transform="translate(-2028.000000, -1546.000000)">
            <g id="a-person/sitting" transform="translate(2269.000000, 1531.000000)">
                <g id="pose/sitting/bike" transform="translate(-20.311475, 159.504800)">
                    <path d="M611.173805,540.096674 C598.293877,705.120189 373.463747,728.813755 328.581744,569.808824 L328.553787,569.819067 C328.396052,569.200923 328.057241,567.962842 327.876679,567.352124 L327.905405,567.345722 C323.922522,551.770484 322.438271,534.911842 323.569092,518.588891 L323.571657,518.589403 C325.723783,484.907456 340.081038,451.239592 363.122973,426.63571 L363.125282,426.638783 C369.547036,419.686581 376.604861,413.424733 384.13897,407.882689 C398.37491,450.80812 419.01978,489.193751 445.183337,521.120107 L444.170752,522.368687 C445.432379,523.066468 446.685285,523.76348 447.937422,524.464846 C448.370618,524.989526 448.842028,525.577198 449.269581,526.118267 C447.52295,530.576638 451.231143,534.903136 455.615674,535.756093 C454.280437,538.89265 457.551074,540.13278 459.513918,540.697918 C465.981838,542.177214 473.580581,542.499089 478.477816,538.876518 C484.800825,533.092491 482.580988,521.6791 475.746813,517.342872 C475.774513,517.269637 475.798366,517.195121 475.822475,517.120862 C474.90684,517.023813 474.078922,516.685037 473.398736,516.129885 C469.98011,514.809095 465.990302,514.822666 462.641695,516.300938 C439.906511,479.370276 417.105667,439.233664 404.488118,395.479602 C409.818036,392.818048 415.359036,390.461725 420.985189,388.487965 L420.981598,388.480539 C421.132921,388.429326 421.587661,388.275942 421.73052,388.22268 L421.73129,388.226009 C426.952973,386.42996 432.328543,384.925826 437.737713,383.761236 L437.736944,383.756627 C438.213741,383.658809 439.208628,383.450115 439.689015,383.347945 L439.689785,383.354346 C449.33088,381.412851 459.375675,380.497414 469.379433,380.639531 L469.37969,380.637738 C469.754664,380.644396 471.178386,380.673075 471.640051,380.682294 L471.639281,380.691256 C475.037902,380.785232 478.534754,381.035921 481.948764,381.363942 C481.915421,381.489927 481.862073,381.654066 481.795645,381.844067 C482.074696,381.858663 482.346821,381.900658 482.613048,381.965698 C482.652289,381.795158 482.692557,381.624618 482.730772,381.454078 C485.425098,381.758541 488.146611,382.125996 490.822726,382.580002 L490.822983,382.578721 L492.739147,382.910327 L492.737865,382.916985 C527.086478,388.977308 559.450959,409.348669 580.532872,437.258624 L580.531589,437.259392 C589.428891,448.84742 596.580332,461.759055 601.805092,475.667812 L601.806888,475.667044 L602.646091,477.942706 L602.640705,477.944243 C609.660571,497.499008 612.599323,518.969149 611.139693,540.098467 L611.173805,540.096674 Z M365.577233,323.464517 C313.936205,372.613386 256.653122,418.336855 212.930923,475.13417 L204.754843,470.199259 L205.580453,470.041266 C202.847656,469.770092 200.321325,467.216086 198.297695,465.554215 C202.656321,465.860214 204.044393,466.669128 206.641,461.695807 C215.739639,445.351346 223.58691,428.676047 233.398308,412.543353 C241.425116,398.320914 249.458593,384.232654 257.48104,369.864257 C261.719634,363.674365 268.803107,347.196237 257.128893,338.910697 C287.71494,324.962762 322.954309,308.207826 355.620411,287.883582 C358.262928,299.831383 362.386618,311.388171 366.176371,322.906037 L365.577233,323.464517 Z M190.089299,237.02547 C185.711949,233.003435 180.893454,229.120957 178.695931,223.288789 C185.457778,224.400629 192.147297,225.042332 199.614465,225.164731 C200.041248,225.164731 200.434176,224.764756 200.439306,224.319456 C200.591398,215.71665 200.579087,206.247572 199.7999,197.05402 C203.471159,198.872348 206.419657,196.79693 209.743898,195.01522 C213.225875,197.615062 216.821473,196.844302 221.076994,195.015732 C221.117005,195.003697 238.270408,188.653251 238.309137,188.647361 C242.134284,187.451019 243.776015,186.311524 244.738585,183.88171 C245.233592,184.013328 246.231557,184.274259 246.726308,184.401012 C250.833584,190.490015 310.443969,209.395396 315.742595,202.384042 C321.285905,204.7355 327.914125,202.83267 333.782138,202.412721 C338.368519,202.798357 343.031844,203.829025 347.611557,203.248778 C348.516419,207.993432 349.431541,212.73911 350.349484,217.480435 C338.04125,235.40585 336.209468,243.524947 339.717093,265.061922 C340.474736,269.517989 341.944881,271.014441 347.433816,271.662545 C314.817727,289.508579 282.019025,306.61074 249.811766,325.693063 C254.368139,314.906267 258.897325,303.912825 263.185419,293.131918 C264.707117,289.821492 266.743827,284.956743 266.906179,280.426417 C268.166523,263.603624 215.629865,248.176649 195.048346,242.607973 C194.466392,240.214009 191.824132,238.802571 190.089299,237.02547 L190.089299,237.02547 Z M357.637116,267.862264 C357.873591,267.45307 358.802819,265.500307 359.028522,265.048606 C359.554306,266.042144 360.585357,267.883261 361.243999,268.779493 C359.959032,269.239901 356.814071,270.958874 355.568089,271.616197 L357.637116,267.862264 Z M174.676628,353.516468 C174.12263,355.758073 173.619672,357.887009 173.133642,359.933747 C160.965446,366.272414 148.864192,372.066684 136.655473,378.27783 L137.041732,378.989951 C130.132922,383.02991 122.615997,385.474832 115.829784,389.670224 C110.525002,366.802728 106.480564,343.638195 103.474615,320.291343 C106.275636,320.187892 109.060243,319.925424 111.89076,319.348506 C114.71589,319.418669 117.362511,319.10678 119.61133,318.364699 C135.312542,329.945301 151.927593,340.66424 169.003026,350.248292 C170.900981,351.511468 172.878444,351.921686 175.022876,352.117321 L174.676628,353.516468 Z M172.70455,526.90311 C170.800184,526.715413 169.074841,528.710171 167.240494,529.3657 C161.547913,532.308415 155.98742,535.303624 150.513874,538.35363 C148.618228,527.340728 143.876676,517.149798 143.552741,505.762782 L143.370127,506.106935 C142.681478,504.770269 141.280839,502.386803 140.474978,501.103654 C141.823295,501.417848 144.372453,502.002447 145.70179,502.304093 L145.552518,502.510739 C147.275297,502.214214 149.625426,503.306337 151.254845,503.517336 C157.164665,504.634041 163.201442,505.779938 169.194874,506.650308 C167.653427,509.052467 167.736527,509.18178 170.59064,509.187158 C168.958142,512.458662 168.579321,516.419496 168.735518,519.865894 C168.78194,520.49172 169.035343,520.36676 169.354405,520.612071 C169.986628,522.410169 171.225941,523.649275 173.332414,524.436679 L172.70455,526.90311 Z M120.640586,401.728902 L120.105824,400.058581 L120.769852,399.834266 C120.664438,399.573335 120.24894,399.424048 119.92398,399.490625 L119.86345,399.300368 C136.242027,392.312317 152.272046,384.455176 168.426972,377.01107 C158.940534,404.378932 140.088205,428.038442 135.354348,457.064334 L132.857769,457.227192 C127.297019,438.460855 122.74911,419.239489 118.350986,400.651118 L119.133251,400.386858 C119.025273,401.20499 119.838059,401.920439 120.640586,401.728902 L120.640586,401.728902 Z M132.430473,537.26458 C130.652295,537.868641 128.501707,538.084505 126.521423,537.881188 C117.909327,536.222646 109.135392,534.868055 100.576387,533.527803 C105.444383,486.857145 89.8726941,439.307667 58.1273562,405.068263 C69.9323757,394.335753 82.4565659,383.033495 95.8371438,371.028335 C108.340559,431.66767 122.553672,491.528308 133.543341,536.890467 L132.430473,537.26458 Z M79.4467694,518.878502 C79.3690558,522.59761 79.1351458,526.359225 78.7955659,530.062201 C43.3258773,524.525534 5.20751661,518.767881 -33.0947405,514.184805 L-31.387864,512.344968 C-29.2411238,509.707741 -32.8526231,505.37561 -34.9891041,504.166208 C-38.9994303,501.778645 -43.4937348,502.680767 -47.9311007,504.792034 L-49.4015024,502.734797 C-41.2084952,495.321675 -33.0013817,487.971802 -24.8442818,480.519246 C-15.3660518,484.556645 -5.77189267,488.045293 3.78969343,491.744172 L3.41548866,494.043136 C5.55196967,494.053122 7.70409598,493.773242 9.74875705,493.981168 C33.370594,502.786266 58.2981721,511.259247 79.4678008,517.918253 L79.4467694,518.878502 Z M77.1161328,542.22433 C75.672918,550.289396 73.530538,558.246147 70.7964578,565.929163 L70.7767088,565.918664 C40.9431752,660.293721 -88.4444746,692.387288 -155.595381,617.347804 C-231.01906,543.535646 -194.217213,396.982455 -88.5496316,374.78867 C-82.5010563,385.662017 -77.4199248,396.626523 -71.9940838,407.637121 C-69.3849095,414.002675 -64.6751615,419.656621 -63.607434,426.630589 C-62.9028826,429.192021 -62.2437282,431.752685 -61.6094524,434.313092 C-61.5058343,434.361233 -61.4022163,434.408861 -61.2973158,434.454441 C-61.3050102,434.420896 -61.3129611,434.387864 -61.3206555,434.354319 L-58.9848893,433.387156 C-54.3146393,441.412533 -48.3435211,455.480819 -43.0264277,464.038558 C-36.1391618,474.40182 -36.4723298,473.648217 -31.3442624,474.241011 C-37.4390041,480.287506 -43.627874,486.431563 -49.7228722,492.469864 C-55.1289643,497.719737 -60.2357438,504.393851 -68.3705299,505.889791 C-71.0161243,506.133566 -73.2605836,506.980121 -74.8328079,508.763112 C-75.2000877,509.871367 -75.7494685,510.911765 -76.3732287,511.905046 C-79.163991,522.39711 -64.7910906,530.554105 -57.2908368,521.668089 C-12.13876,528.586747 32.1748827,533.807428 77.347478,540.936828 L77.1161328,542.22433 Z M-19.6113139,355.875863 C-1.52970827,355.623382 20.341907,357.822224 44.2674166,356.486325 C45.6924212,356.105299 47.3277397,355.823114 48.4200893,355.030076 C54.7972159,358.27162 61.2777039,361.614311 67.8346232,364.640503 C67.3296134,367.481816 70.4063513,369.174415 71.3855931,371.659795 C63.3852027,379.184561 55.1521846,386.543653 47.5598544,394.595148 C28.3930805,377.214899 5.01926006,364.665854 -19.949355,358.397605 L-19.6113139,355.875863 Z M629.962784,506.105143 C620.835419,431.452575 554.980764,365.088363 479.268032,361.193082 L478.885619,358.722297 C482.496606,357.318285 485.666446,354.425503 488.308706,350.122564 C464.372424,347.727063 439.664906,350.549426 417.649149,358.650855 C413.562392,360.233857 409.126821,361.806873 404.594301,361.214591 C403.936942,359.91403 403.140058,358.556878 402.263665,357.190764 C402.226731,357.184875 402.190055,357.175912 402.153122,357.163109 C400.814551,356.690154 399.53138,356.040002 398.880176,354.713066 C398.278473,353.486252 398.298222,352.009773 398.048154,350.690007 C398.002757,350.450585 398.059952,350.245476 398.173573,350.086971 C396.075821,346.478995 394.125801,342.829793 389.624828,342.425464 L391.105745,340.845791 C391.726684,340.125988 391.355813,338.85001 390.290651,338.631073 C384.273879,316.897951 376.918023,296.076426 371.20159,274.206052 L369.368525,274.733549 C369.133589,274.137682 367.68345,270.528171 367.416197,269.86035 L370.659647,272.111941 L370.272875,270.612673 C398.705257,281.649646 426.313567,286.513371 452.833375,281.889324 L452.846712,281.811736 C455.979876,280.862498 458.921192,279.511748 461.35519,277.788677 C462.892533,277.90237 463.302645,276.986933 464.051055,274.475434 C465.613276,269.324403 467.369397,264.133425 469.03498,259.107098 C478.590154,227.904386 491.750159,197.936169 500.412012,166.897339 C500.638741,166.710666 501.431008,165.956039 501.273017,165.914812 C467.153697,146.020503 385.032035,152.061109 340.504487,158.732406 C341.277263,170.740127 343.578147,182.496647 345.801319,193.923865 C329.630748,182.455676 314.183452,168.960722 294.768405,163.204606 L299.338115,162.27406 C300.085755,162.151149 300.561013,160.705654 299.776952,160.401447 C299.776952,160.401447 298.877732,160.079572 298.877732,160.079572 C300.550497,147.113906 285.935992,145.589799 277.755553,151.97123 C275.965833,153.450269 273.969647,158.54471 277.283629,159.663208 L277.136153,162.147308 C274.411819,162.557014 270.918557,164.0929 268.004684,165.583206 C268.659222,161.622115 267.196258,156.197093 262.571918,159.931821 C196.283812,129.624573 225.040897,98.494583 219.657376,49.356213 C219.313948,34.6026925 217.536283,33.6752201 203.493473,27.0646105 C195.391004,22.1220172 186.680163,18.661024 178.289666,14.3150654 L178.885982,13.7199672 C178.111412,12.1738384 176.435057,8.82807505 175.511727,6.98516532 L175.168044,7.0865676 C173.890259,4.00404053 172.9064,0.879518569 172.326755,-2.36535459 C171.98974,-6.13490776 170.224899,-8.42004413 166.02093,-9.14035885 C155.448811,-11.3640393 144.874641,-9.66145394 140.637843,1.49561428 L140.585008,1.5045766 C139.557035,4.45241276 137.573416,7.46247305 135.102741,8.8992615 L136.631877,10.2648635 C136.56827,10.382398 136.504406,10.4996764 136.439516,10.6164426 L134.03963,9.90124924 C134.045529,9.77167966 134.059892,9.59115286 134.070921,9.45979081 C132.72286,10.0725577 131.124988,10.532965 129.490439,10.5314286 C78.2974811,1.84821768 62.9681657,41.8601258 70.5779366,85.9875329 C67.5624976,97.3750608 64.8984365,108.781538 62.1479416,120.115548 C54.1224161,157.948075 30.0242953,181.462138 21.8166688,218.033027 C19.6519749,226.920835 10.6664436,243.265552 18.5552651,248.965589 C17.2028444,259.410793 21.5914791,270.63239 29.4190018,278.486714 C17.592951,278.818064 1.11357784,298.086291 15.0612338,307.566124 C20.1359533,309.788524 26.2314644,309.531946 31.7673355,310.490914 L31.3405523,311.911058 C31.5675373,313.171417 33.6899119,313.090244 34.7135249,312.965796 C34.7109601,315.989684 34.3262396,319.289611 35.5624747,321.967809 C35.6986658,323.495245 36.3260166,323.994063 36.6378967,323.889331 C38.6802494,323.955397 40.7523539,323.702403 42.8159945,323.822242 C45.9396682,328.850105 50.6142784,332.025072 55.4481629,329.457495 C58.3892226,327.927498 58.338696,323.840167 61.1220204,321.768846 C68.4076002,317.198829 76.6852458,317.950128 84.3858108,318.072271 C87.5766824,328.771493 89.015024,339.630756 91.5249403,350.430868 C88.2342979,354.559426 84.4686539,358.748416 80.1479866,363.134833 L79.5839863,363.003215 L79.0122917,363.179901 C75.7285743,360.245124 72.0827066,355.237234 67.4227158,357.061451 C28.5179864,321.87665 -34.0821897,327.286564 -82.1827643,327.631229 C-103.93922,327.88832 -126.404074,328.125438 -148.467024,329.128706 C-154.761051,329.274151 -158.82139,329.739424 -159.038116,334.468458 C-163.19874,334.649497 -166.288302,335.671202 -170.201935,335.974384 C-172.646449,336.103442 -173.92013,336.299332 -174.003743,336.994809 C-173.530793,343.744718 -173.264823,350.806773 -170.909308,357.111383 C-168.443506,363.350185 -160.921964,363.345063 -155.17937,361.041746 C-153.024935,360.118883 -154.882366,357.452208 -154.94546,355.820809 C-156.255305,350.47696 -157.073221,345.009174 -157.319955,339.390822 C-154.60511,339.603101 -152.229846,339.73011 -149.102069,339.771849 L-149.048977,341.219904 C-143.548244,341.434232 -120.168781,341.845986 -114.46748,341.0509 C-116.806068,343.876081 -117.7117,346.776544 -115.466215,349.958169 C-109.534851,356.560073 -98.5990432,353.554878 -90.8099926,354.549951 L-90.6894468,357.076815 C-213.375779,379.893865 -260.086743,546.211027 -171.099103,631.835783 C-84.0786667,726.303536 82.2998564,670.051642 99.1188094,544.3315 C106.359249,545.546535 113.635595,546.50704 120.857311,548.039597 C116.592557,551.918235 110.469089,553.880983 106.2841,557.593178 C99.0241682,564.656769 96.8722984,569.296179 100.20013,572.93898 L100.261942,572.88751 C102.927542,574.369879 106.180225,574.244406 109.153602,573.236017 C111.03745,573.492083 112.992856,573.78784 114.865675,573.788096 C117.911122,573.725104 120.789601,572.962282 121.594179,570.557819 C121.682922,569.643662 119.931417,568.08729 119.078107,567.324724 C123.773236,564.049635 128.494013,560.286996 133.881895,556.738428 C135.201486,556.080338 135.822938,555.428649 136.284346,554.270973 C159.452982,562.553184 183.709608,544.846706 198.480565,531.701794 C198.462868,531.777078 198.446454,531.855434 198.428756,531.931229 C200.222836,530.166932 202.108736,528.449751 204.154166,528.146056 C204.749201,527.544812 205.413998,526.977369 206.162151,526.450641 L217.081544,526.837557 C220.024655,526.942032 223.946239,527.585271 226.619021,526.594038 C232.80943,523.618547 230.16204,514.496694 227.014513,510.29362 C231.974586,509.998376 237.010064,510.081341 241.937307,509.417617 C254.564603,507.940626 250.975161,495.312201 240.85137,492.454756 C238.045219,488.840891 225.580019,485.009882 225.238131,480.469313 C272.245586,430.57145 323.037922,383.019924 370.113857,335.871189 C371.662485,340.951802 371.986933,346.37452 372.035664,351.507883 C372.043359,363.853867 375.323742,376.077964 378.302761,387.869565 C269.508172,456.535045 283.897487,636.040137 403.556325,684.843829 C520.792451,738.503307 648.144929,628.627272 629.962784,506.105143 L629.962784,506.105143 Z" id="ðŸŽ¨-Background" fill="#FFFFFF"></path>
                    <path d="M478.317447,358.807585 C482.80021,357.064542 486.063665,353.481405 488.458679,349.535934 C488.994722,348.706791 488.271448,347.827459 487.412239,347.741677 C465.498561,345.56921 442.774405,347.633361 421.817399,354.432691 C416.090963,355.902 410.521749,359.436484 404.370838,358.892856 C403.485212,357.208451 402.468524,355.583966 401.399001,354.014279 C423.155713,334.10563 447.691902,311.811979 452.94385,281.685257 C455.692549,280.80106 458.343786,279.58244 460.722897,277.957955 C463.328994,277.937726 463.840159,275.004485 464.46238,273.003583 C466.177208,267.489449 468.017454,262.01347 469.840773,256.533905 C478.352328,230.680163 487.602547,205.078647 496.812242,179.459462 C498.253405,175.186226 499.866154,170.889176 500.572244,166.447961 C504.3166,163.176969 495.93867,161.240083 493.803985,160.137205 C476.875002,153.274114 458.547431,150.849677 440.337842,150.621266 C406.559898,150.170077 372.359017,150.395415 339.046072,156.399916 C338.567736,154.510914 337.832663,154.797452 338.125307,156.62423 C337.950901,156.69977 337.981678,156.9543 338.148391,157.012427 C338.797286,168.05068 340.782443,179.013394 342.895841,189.903129 C328.796349,179.822564 315.215716,168.21866 298.560654,162.420549 C300.584797,162.008538 301.206249,158.81539 299.176207,158.088418 C299.920513,144.386562 284.749189,143.158467 275.918316,149.865102 C273.216808,152.138459 271.515062,158.448447 275.87497,159.77948 C273.187057,160.263445 270.773577,161.200904 268.370356,162.37036 C268.600676,158.156019 265.665002,154.375967 261.41461,157.347618 C197.907007,127.184534 224.742542,102.445193 219.901476,48.1350507 C219.532658,32.7083317 217.261524,31.5340113 203.0084,24.7994655 C195.475317,20.1777234 187.288209,16.8578228 179.412724,12.8647237 C179.412724,12.8647237 174.983053,4.02275161 174.983053,4.02275161 C176.023337,7.62560556 175.350076,11.8245821 177.871278,14.9106941 C177.786639,19.0543602 176.830224,21.071139 173.167172,23.3496177 C161.185951,32.0341089 132.801531,26.1845285 134.297837,8.67240492 C137.304043,6.71400925 138.402035,2.94189542 139.116846,-0.374932393 C139.201741,-0.697576031 138.691345,-0.942119423 138.545151,-0.61204986 C136.95087,4.17715963 134.056746,7.79204871 128.634495,8.1554069 C85.8315218,2.17881761 67.8073677,24.327023 66.6850098,61.2190184 C66.1997491,71.6314456 66.8614683,74.4691732 68.2387676,84.7968424 C65.2610311,96.05941 62.6090247,107.41032 59.8621205,118.73102 C54.5996575,142.458638 47.3843533,152.899745 36.1446165,174.597785 C29.5076754,188.158036 22.757883,201.821738 19.5359773,216.62468 C17.5582576,224.805232 8.31445057,242.085616 16.1753157,248.418394 C15.1347751,258.594215 18.9819798,268.901911 25.8553957,276.493767 C13.044717,278.580964 -0.715195355,298.932096 13.428668,307.593541 C18.3241078,309.775227 23.8427947,309.670752 29.0783273,310.435366 C28.5804991,312.09314 30.8988246,313.308687 32.3751253,313.219576 C32.3315236,315.891372 32.1796873,318.674558 33.2840915,321.212432 C33.4887628,322.636417 33.9750495,323.973595 35.5534293,324.060914 C37.394958,324.133637 39.2141729,323.912652 41.0680126,323.972571 C44.0180491,328.551038 49.374897,332.487547 54.9610382,329.507958 C58.3063109,327.934686 58.2167993,323.811505 60.8931714,321.657731 C66.9671382,317.728393 75.3525056,318.01826 82.3810921,318.217735 C85.3111232,328.30419 86.753825,338.771415 89.1026717,349.004596 C85.8381902,353.063504 82.3377469,356.902452 78.7023949,360.615926 C78.5746678,360.586222 78.4415545,360.588527 78.3099801,360.629242 C75.2191358,357.749007 71.5406951,353.151847 66.7075801,354.531021 C30.4692201,322.885313 -21.0899915,324.363841 -66.6570535,325.039856 C-93.1860948,325.400397 -119.728986,325.503592 -146.237765,326.584704 C-151.183988,327.088899 -160.225945,325.747879 -161.190568,332.174633 C-163.614307,332.389729 -166.001112,332.704435 -168.402794,333.210422 C-170.58698,334.017031 -176.208772,332.872158 -176.322906,335.888876 C-175.839184,342.767331 -175.577574,349.963821 -173.132804,356.481734 C-170.02298,363.689235 -162.309848,363.579382 -155.855777,361.163652 C-154.386145,360.738326 -153.660306,359.321767 -153.962952,357.887795 C-154.768301,354.062163 -155.763444,350.317192 -156.309747,346.43625 C-156.627783,344.190548 -156.845791,341.929994 -156.98429,339.66688 C-154.71444,339.833323 -152.436894,339.911423 -150.15422,339.9442 C-172.329251,341.89056 -121.162454,341.813228 -118.112134,341.499291 C-119.738219,343.885829 -119.199611,347.340933 -117.509405,349.641945 C-111.62549,356.616681 -100.182365,353.82607 -91.9819197,354.715133 C-217.916575,380.634171 -262.05735,543.116739 -173.039958,631.63479 C-81.294385,726.714029 78.5267059,671.596253 99.1446454,544.698205 C105.031895,545.679708 110.963515,546.466856 116.813831,547.635799 C112.953546,550.614363 107.867797,552.250115 104.36402,555.560285 C100.435254,559.312682 93.3430607,566.746545 97.7699109,572.148777 C96.1725515,573.630889 93.2381603,577.141047 95.9496701,578.790371 C96.0915037,578.842352 96.237954,578.740182 96.3107944,578.627513 C117.554546,584.392591 140.215864,585.568192 162.131081,584.03333 C182.037544,584.029233 195.306809,571.39415 197.865714,552.2706 C200.017327,543.763563 197.665146,532.571414 205.537809,526.638612 C209.025941,526.762292 212.514074,526.885716 216.002206,527.00914 C219.185127,527.122577 222.991295,527.79808 226.058799,526.67651 C232.292553,524.013931 231.168656,515.115881 228.218363,510.360984 C232.505432,510.156387 236.82892,510.166886 241.085981,509.577165 C255.169315,507.557057 251.750176,493.975553 240.590974,490.254908 C238.254951,487.264053 226.4012,482.951383 225.485309,479.420227 C225.514291,478.786719 226.353495,478.178306 226.787716,477.737615 L228.366352,476.135152 C274.668487,429.474224 321.532057,383.347707 368.397679,337.232457 C370.127639,343.878659 369.432064,350.762492 370.034023,357.53007 C370.977871,367.205282 373.404944,376.783189 375.802266,386.196957 C266.709133,458.483728 280.668075,632.940216 402.014554,684.912985 C542.893291,745.279865 674.955261,595.60625 618.365958,462.258403 C595.773376,405.628043 540.318229,362.827571 478.317447,358.807585 Z M608.612011,590.557901 C569.368471,691.955834 433.120999,722.204188 357.181282,641.306673 C289.474326,574.178103 299.520404,451.136672 378.715882,396.822176 C379.390425,399.143161 380.090616,401.459026 380.816456,403.76772 C287.295782,470.007996 302.023138,623.769199 408.667653,668.90986 C535.140148,723.067643 653.47683,588.611029 602.698088,468.985779 C573.510885,392.589142 478.323859,352.1368 403.484186,390.148574 C402.804769,387.90236 402.152797,385.649744 401.499028,383.394567 C534.386095,321.213456 662.579829,463.400203 608.612011,590.557901 M482.398049,530.146721 C484.542224,531.930992 486.696659,533.70041 488.861353,535.45933 C486.301679,535.217348 483.742006,534.975621 481.179767,534.743625 C481.842512,533.280974 482.241083,531.729211 482.398049,530.146721 Z M477.191498,533.014665 C477.29922,532.845917 477.401812,532.674608 477.499275,532.500483 C477.412071,532.704824 477.319739,532.903788 477.219711,533.103007 C477.209452,533.072792 477.201758,533.04488 477.191498,533.014665 M476.288688,534.315226 C476.491307,534.058135 476.681103,533.793362 476.860639,533.526285 C476.873463,533.57673 476.886287,533.624615 476.899111,533.67506 C476.763176,533.901935 476.611853,534.121127 476.447706,534.330334 C476.393845,534.325212 476.339984,534.320091 476.288688,534.315226 M468.481427,531.104409 C468.458344,531.104409 468.442955,531.02887 468.455779,530.79713 C468.514769,530.817103 468.545547,530.824785 468.540417,530.824785 C468.594278,530.834771 468.522464,531.104409 468.481427,531.104409 M468.553241,526.349001 C467.894087,523.571705 465.047156,521.676557 464.218724,519.428551 C464.175635,519.337391 464.323112,519.078764 464.367483,519.027807 C468.753553,517.492433 474.719285,520.950353 474.36765,525.839941 C471.627158,524.662291 470.367327,527.883606 468.607102,529.269694 C468.709694,528.286911 468.789203,527.354317 468.553241,526.349001 M462.525954,534.194106 C462.456704,534.380779 462.423362,534.582303 462.423362,534.778706 C461.535427,535.050392 460.317402,535.407093 459.938068,536.212934 C459.593615,536.119469 459.240954,536.024725 458.901887,535.917945 C460.245844,535.643186 461.494903,535.083681 462.525954,534.194106 M457.483551,518.216332 C457.469188,517.175935 459.192223,517.028184 459.989364,516.6236 C459.579765,517.332391 459.273271,518.29981 459.258395,519.143805 C458.647972,518.884154 458.01703,518.674947 457.378394,518.528733 C457.525357,518.513626 457.781838,518.169728 457.483551,518.216332 M453.941558,526.09191 C453.106971,524.737063 452.125677,523.483362 451.425486,522.019174 C451.499865,521.9485 451.576809,521.878082 451.653754,521.812529 C463.393883,520.307114 464.598059,531.992448 457.447644,532.918896 C457.327355,531.018115 457.110372,531.04321 457.257848,532.931699 C454.518382,532.978303 451.541928,532.038027 450.155909,529.650464 C450.297742,529.59285 450.196689,529.40336 450.073835,529.504251 C449.914817,529.209262 449.781447,528.89174 449.67629,528.55911 C451.491914,531.106458 455.5125,528.768316 453.941558,526.09191 M362.121606,427.394197 C368.296369,420.595891 375.190047,414.310997 382.455365,408.863441 C396.025225,449.171618 416.020944,487.668126 443.156561,520.82232 C442.147311,520.30353 441.151398,519.764766 440.158306,519.219344 C437.834594,516.106858 435.180023,513.201016 432.67421,510.229878 C409.239348,482.565235 386.101233,454.56412 362.121606,427.394197 M328.402139,567.029498 C324.322563,551.577685 322.744952,535.125164 323.729067,518.977362 C361.772536,525.300153 400.905533,521.729051 438.701498,529.705775 C401.937866,542.126275 364.875948,553.815449 328.402139,567.029498 M339.91041,563.718048 C370.36437,554.023119 400.682651,543.917203 431.030172,533.909361 C434.549081,532.745027 438.1475,531.724346 441.566383,530.295496 C442.664119,530.509823 443.764419,530.706226 444.869849,530.872669 C445.998363,531.041417 446.472851,529.537027 445.349467,529.163938 C405.639133,519.284641 364.093939,523.881033 323.741891,518.773277 C325.710891,485.24036 339.302039,452.396774 362.024143,427.500208 C386.034291,457.560097 410.990852,486.970857 435.498059,516.671484 C403.802991,499.415427 370.775251,484.50084 336.622333,472.580951 C373.276704,487.076868 411.041891,504.754155 446.065048,524.355524 C446.316142,524.661267 446.569031,524.972644 446.821664,525.290422 C446.277926,527.18813 446.508758,529.040514 447.280764,530.655781 C415.374357,550.86454 381.790824,569.495161 350.389683,590.509505 C350.033688,590.956085 350.351724,591.611358 350.962147,591.477692 C383.056555,573.013001 414.226607,552.496707 445.593124,532.719932 C440.61997,538.874232 435.93664,545.267697 431.455929,551.795085 C425.451725,556.487757 419.444956,561.185295 413.438187,565.880272 C393.593792,581.430671 373.765812,597.009238 354.068124,612.74042 C378.803085,594.683643 403.915586,574.788053 428.64234,555.953347 C410.384532,583.219807 394.88081,612.242883 382.647725,642.592126 C382.091163,643.952863 384.312282,644.517489 384.871409,643.194394 C398.307387,611.52436 414.702378,581.086006 433.628317,552.256261 C439.537111,546.945956 447.383869,542.788462 452.518605,536.987022 C452.402676,536.462342 451.784559,535.998606 451.261339,536.381681 C446.280491,540.020897 441.456096,543.889292 436.618878,547.727471 C440.263463,542.256356 443.990122,536.840296 447.678309,531.394277 C448.834522,533.305812 450.80583,534.821981 453.064395,535.519762 C452.438583,538.227152 455.162661,539.904387 457.62205,540.665928 C460.062461,585.038647 462.649065,629.464115 466.367516,673.73876 C466.586037,674.789656 468.122355,674.472134 468.186475,673.496777 C465.546779,629.26003 462.127127,584.997932 458.201696,540.839797 C464.661153,542.275049 472.608195,542.871684 478.199466,538.803557 C489.604376,581.475739 497.913569,624.843653 504.213495,668.501947 C504.33481,669.167207 505.463323,669.018432 505.417157,668.343185 C500.915671,624.298232 491.765736,580.588213 478.86888,538.183621 C479.651145,537.387254 480.302605,536.467464 480.825824,535.47956 C484.052347,535.976072 487.291693,536.419579 490.536169,536.817762 C519.806216,559.987417 549.824671,582.571191 581.211706,602.854465 C581.804689,603.148685 582.494621,602.390217 581.956012,601.906251 C551.989622,580.38464 521.513349,559.446861 492.198162,537.019287 C530.870263,541.286121 569.882971,542.330616 608.724863,540.343284 C593.402216,703.386125 373.842756,726.28102 328.44574,567.188259 C332.318593,566.293563 336.129891,564.927705 339.91041,563.718048 M481.700422,512.687091 C515.382187,489.397598 547.238324,463.230431 577.903623,436.1847 C587.190006,448.117649 594.649736,461.632064 599.922458,475.955393 C559.912555,486.476393 520.456393,499.176005 481.972291,514.216576 C480.995101,514.657778 481.685034,516.24795 482.70326,515.923002 C521.284312,501.281382 560.418078,487.989489 599.986578,476.131823 C607.279083,495.918072 610.283493,517.473228 608.837714,538.738004 C574.037183,540.339955 539.116875,539.853173 504.39893,536.88562 C499.687387,536.490254 494.983538,536.041625 490.277124,535.595302 C487.66359,533.654831 485.04749,531.721785 482.428826,529.794118 C482.835348,524.513517 480.516253,518.951243 476.173272,515.723782 C476.541321,514.322587 476.470019,512.778251 476.627242,511.33378 C477.494145,509.607381 478.294364,507.8459 479.143314,506.162264 C496.628603,470.907045 517.05726,437.205636 537.51849,403.566196 C514.241619,433.992771 494.831188,469.04621 477.2351,503.458203 C480.209759,463.12954 485.568658,423.042349 490.884982,382.963607 C525.21359,388.996531 556.499059,408.539773 577.721522,435.947582 C547.683574,460.458768 517.328103,484.615302 485.973384,507.49048 C485.176757,508.183908 478.16125,512.694517 481.700422,512.687091 M428.04987,401.708691 C426.102415,397.097959 424.034414,392.58018 421.760973,388.109773 C426.94444,386.350597 432.209981,384.9092 437.547336,383.782764 C442.200659,422.874881 448.646265,461.847672 456.667174,500.393856 C456.860304,501.028645 457.968299,500.945423 457.896484,500.229974 C450.60834,461.50019 443.956523,422.641093 438.150065,383.656523 C448.262827,381.561388 458.721838,380.616503 469.186748,380.826477 C464.758872,423.314291 462.623417,466.172121 463.286675,508.876567 C463.328737,509.60482 464.40339,509.607381 464.441862,508.876567 C464.888907,466.158806 466.392395,423.459225 469.535561,380.836464 C472.756954,380.907138 475.960393,381.090994 479.145878,381.380861 C478.242042,383.884166 475.67929,390.671205 480.520356,390.385691 C480.966889,390.312456 481.205415,389.84872 481.241323,389.455402 C481.432657,386.866315 482.108739,384.249317 482.687872,381.751389 C485.203943,382.046121 487.704626,382.409224 490.192486,382.840183 C482.407539,422.083124 478.403881,461.990301 475.018597,501.797356 C474.707487,506.797564 474.851885,509.108051 472.351715,513.674995 C469.135452,512.487103 465.392378,512.439219 462.151493,513.629671 C439.111353,476.151028 417.373364,437.430207 404.98716,395.045331 C409.782829,392.686448 414.771884,390.581326 419.801463,388.792702 C421.031286,393.6152 422.54093,398.328102 424.27448,402.993888 C424.979801,404.914386 425.826186,406.927835 427.254781,408.445029 C431.400273,410.397279 428.859579,403.315251 428.04987,401.708691 M375.635553,363.245728 C374.337506,356.432826 374.677599,349.496756 373.976126,342.638274 C377.624045,342.218069 381.284019,341.447565 384.981696,341.390975 C386.722428,341.324909 388.529845,341.554857 390.226718,341.128763 C394.432996,344.070709 395.845176,349.14108 398.205821,353.419693 C400.197134,356.995148 401.490564,360.90989 402.591634,364.825914 C403.084077,366.574847 404.02023,368.93117 406.392673,368.230572 C407.813574,367.81216 408.903615,365.889357 407.569917,364.7578 C406.570926,364.018536 406.382413,362.524389 405.710435,361.479126 C412.724146,359.551202 419.627826,357.285527 426.510988,354.955579 C445.521566,349.856785 465.471887,348.141653 485.096222,349.901341 C482.265448,352.939824 477.78089,353.576917 474.249669,355.646702 C473.405593,355.869992 472.676932,355.95475 471.82593,356.365736 C470.892085,357.260944 469.751517,357.817121 468.541443,358.384308 C444.293794,358.044764 420.545769,363.100794 398.639273,373.286091 C396.079599,364.026986 393.694332,354.717437 391.639925,345.350017 C391.560416,344.979489 390.980771,345.070392 390.980771,345.43836 C393.28935,395.414323 427.969848,475.616361 459.596949,514.884653 C458.731328,515.616234 455.926203,517.04278 456.801313,518.405309 C454.721258,517.93722 449.184361,517.711113 449.927641,520.995933 C449.917382,520.995933 449.909687,520.995933 449.901993,520.998494 C412.671824,475.326238 386.268458,420.931338 375.635553,363.245728 M372.434679,334.394729 C370.206378,326.398544 367.250442,318.607725 365.99728,310.372374 C363.732046,297.469957 359.918953,284.923473 356.077903,272.429738 C356.299502,272.378525 356.483142,272.226421 356.533156,271.938859 C356.870941,270.003509 358.460862,269.121104 360.357278,268.739565 C363.632531,267.880463 365.623588,269.01919 368.406912,270.488243 C368.391523,270.624214 368.384598,270.759929 368.394601,270.893596 C373.851733,292.683052 381.383277,314.468668 387.2695,336.327774 C382.516407,336.728518 377.689961,337.923324 373.704257,340.571818 C373.393915,338.505106 372.975852,336.446333 372.434679,334.394729 M311.50778,389.337099 C284.242384,416.502413 257.50585,444.18575 229.973971,471.056843 C228.06268,473.517385 223.488866,476.330787 223.041052,479.257369 C221.582448,478.377013 220.124614,477.496657 218.666267,476.616301 C219.568052,476.090852 218.954551,474.974659 218.070976,474.754698 C221.147971,474.628201 215.25867,473.923507 214.553092,473.934261 C214.665944,473.831067 214.7711,473.715069 214.868563,473.589084 C259.028574,418.490769 315.970025,374.103198 363.904144,322.18446 C365.122169,326.12737 366.398415,330.037503 367.564118,333.991424 C348.753852,352.31323 330.059002,370.758459 311.50778,389.337099 M238.598122,491.570577 C238.710204,492.275528 239.433478,492.615328 239.983372,493.018633 C237.657608,493.891819 235.233356,493.930485 232.758065,493.808341 C227.497141,493.602464 222.238781,493.370724 216.979396,493.112865 C188.747325,491.949299 160.618873,489.00428 132.44092,487.223338 C132.258306,480.680586 132.195981,474.031823 134.167032,467.681889 C134.305532,467.724652 134.446596,467.757428 134.58766,467.777657 C136.065243,473.497412 144.340067,479.967953 150.681543,479.11346 C158.151019,477.640566 162.546066,470.478133 168.787002,466.694241 C171.955303,464.488741 175.417787,462.539307 179.248577,461.7391 C180.241156,462.037673 181.310679,462.081205 182.190406,461.467158 C188.653967,460.884607 194.597641,464.947356 199.915761,468.147929 C196.65923,468.866708 190.370333,470.149856 188.943276,473.34915 C188.410054,475.552089 190.979987,475.980744 192.570165,475.902644 C193.590956,475.852199 193.850001,474.403119 192.816386,474.115812 C192.693532,474.083548 192.468855,473.979585 192.239561,473.88228 C192.290857,473.79829 192.353182,473.715069 192.425253,473.632615 C193.568129,473.880487 194.905161,472.97222 195.960578,472.590681 C198.437921,471.689583 200.969382,470.921896 203.54624,470.349076 C205.65656,471.627103 207.766367,472.905643 209.877456,474.183926 C207.158765,474.801046 202.141753,476.501583 202.034032,479.773343 C202.084045,481.171721 203.726289,481.435726 204.427249,480.675721 C204.773498,480.506973 204.906868,480.111351 204.847877,479.750809 C206.98641,476.619886 211.404283,477.828519 214.711341,477.112301 C222.671977,481.935055 230.633638,486.753456 238.598122,491.570577 M132.276003,488.441702 C132.311397,488.251957 132.343714,488.062212 132.369105,487.873491 C133.005433,488.086794 133.718705,488.207401 134.440953,488.295744 C133.712293,488.290623 132.983889,488.314693 132.276003,488.441702 M241.805664,494.237252 C249.849657,498.990869 249.101503,506.026549 239.239066,506.394004 C227.362489,507.394711 215.306375,507.269495 203.409023,506.812672 C180.381451,505.866507 157.519821,502.461336 135.154481,496.956165 C131.699435,496.512914 130.960259,494.010122 130.982334,490.949872 C131.873072,489.614486 134.02366,489.813706 135.655644,489.8219 C165.331699,490.439532 194.875153,494.921718 224.61225,495.596709 C227.091645,495.358311 236.722225,497.133619 237.402154,495.025937 C238.750214,494.902257 240.529162,495.005195 241.805664,494.237252 M222.237242,517.714698 C222.226983,518.508504 222.229548,519.300005 222.232113,520.093811 C218.733721,520.242586 215.240459,520.275362 211.749762,520.199567 C212.0006,519.346353 211.830297,518.387897 211.334264,517.608943 C211.471225,516.662266 211.086761,515.685372 210.403241,515.058522 C210.428889,514.577117 210.323732,514.083165 210.113418,513.631976 C214.211717,513.934134 218.302834,514.343841 222.391131,514.761229 C222.406519,515.741451 222.250066,516.910906 222.237242,517.714698 M197.040616,529.098385 C179.701265,543.869574 156.118926,560.997342 132.366284,550.267393 C128.496253,548.523837 124.741381,546.623568 120.596659,545.560125 C61.5946451,535.505422 2.19047012,526.846282 -57.4724934,521.527783 C-53.8735617,518.201481 -54.4319193,513.151083 -53.6817144,508.773117 C-53.6765848,508.770812 -53.6714552,508.768251 -53.6663256,508.76313 C-53.8976708,510.375068 -52.6198859,511.504064 -51.1040873,511.651303 C-8.42653247,515.991116 33.961456,523.316407 76.3999712,529.615127 C76.3948416,529.685546 76.3871472,529.758524 76.3794527,529.829199 C86.6676476,530.936686 96.8494031,533.032077 107.082711,534.589729 C113.615265,535.671097 120.134994,536.898423 126.688066,537.835882 C127.155117,537.903228 127.530861,537.704264 127.766053,537.40902 C129.011778,537.464074 130.235702,537.370866 131.440903,537.074341 C135.364539,550.782855 152.463055,553.794963 150.516626,536.029078 C155.995302,534.05583 161.446022,532.002178 166.863143,529.869657 C168.873948,528.912481 175.414453,527.907165 172.377469,524.713249 C181.168076,526.6381 189.894049,525.722406 198.75134,526.396885 C198.079362,527.230893 197.515105,528.138136 197.040616,529.098385 M193.778187,545.560125 C192.151332,562.91656 185.247908,578.402942 165.356834,579.359862 C142.477764,581.525416 119.418132,579.833841 96.5593238,578.171202 C96.6365244,577.961996 96.583946,577.799138 96.3659377,577.997845 C96.4056921,576.042779 97.9609888,574.498186 99.4219006,573.284432 C102.165984,574.569373 105.425079,574.322269 108.231743,573.435767 C112.64859,574.04034 117.785378,574.828512 121.055759,571.283785 C122.675945,569.575566 121.521014,567.6986 120.060615,566.341448 C124.138139,563.398733 128.213098,560.443471 132.279337,557.485648 C133.469406,556.623729 135.228861,556.036568 135.903404,554.708352 C158.006621,561.608573 179.262683,547.723117 195.327328,534.075804 C194.450165,537.876085 194.237287,541.966489 193.778187,545.560125 M99.0446181,568.057861 C99.9976989,563.313207 103.485831,559.272479 106.948572,555.997134 C111.403122,554.175734 115.253661,551.345688 119.320413,548.860052 C122.239672,547.866771 129.281339,552.398377 132.520429,553.440824 C125.042489,559.651201 116.738425,564.818365 107.962952,569.083919 C106.881631,569.621146 105.757477,570.169384 104.583054,570.515074 C104.045984,570.231864 103.143686,570.399588 102.815905,570.850521 C100.880761,571.024134 98.7642851,570.423146 99.0446181,568.057861 M79.0699312,575.446912 C40.698168,673.374122 -91.6379796,702.001575 -165.276812,624.297976 C-247.327173,542.731615 -208.763819,392.710262 -93.3771726,365.886797 C-93.1309515,367.441888 -92.7282774,368.959081 -92.2101872,370.448363 C-201.194828,396.864427 -235.946628,541.592632 -159.439064,618.809449 C-77.593887,704.69821 61.0309013,654.285141 79.8881034,541.671501 C82.7632478,542.115008 85.6358273,542.561331 88.5084068,543.012264 C86.5565916,554.121192 83.4070133,564.965603 79.0699312,575.446912 M-59.21143,361.897538 C-22.9086934,361.766688 12.5127768,375.579421 39.3070187,399.627127 C38.9941128,400.139516 38.4201098,400.625018 38.3249556,401.216531 C37.3072417,402.224664 36.2887584,403.233054 35.2733528,404.241443 C2.44028195,372.818769 -46.2917471,359.223693 -90.7585086,370.093199 C-91.4099686,368.654106 -91.9588365,367.177371 -92.3538161,365.64507 C-81.5559949,363.15252 -70.4786102,361.897538 -59.21143,361.897538 M-93.5618384,351.544519 C-100.385497,350.845201 -112.832487,353.454774 -116.917192,347.021362 C-117.973635,345.34003 -118.289105,343.225434 -117.391424,341.486487 C-75.6510487,341.326446 -33.7898707,338.794974 7.91203296,340.522653 C20.6511537,341.219666 32.2935646,347.232105 43.0698414,353.501122 C42.9177486,353.613279 42.7925862,353.744641 42.6953802,353.889575 C8.68916831,353.198707 -25.2552318,353.170028 -59.21143,351.312266 C-70.7040564,351.746299 -82.0758805,351.956529 -93.5618384,351.544519 M-135.62461,336.597412 C-142.787336,336.778963 -149.958782,337.183548 -157.076623,337.948418 C-157.105606,335.601314 -156.79706,331.977974 -160.097961,332.046088 C-158.811969,327.685022 -145.658376,329.766329 -141.647024,329.142295 C-117.334742,328.666524 -93.0142529,328.338759 -68.6986368,328.154903 C-22.4326659,326.780851 28.4525154,327.034101 65.7586029,356.952897 C65.8996671,357.030997 66.0715089,357.04124 66.2356563,356.927802 C69.4750027,354.98349 73.5389333,360.761116 75.724402,362.647813 C73.9880303,364.204696 72.0636585,365.531632 70.2634232,367.003502 C69.4757721,366.081919 68.6198973,365.196954 67.9999844,364.148618 C68.8220038,363.38682 69.0030789,362.003294 67.7027237,361.302696 C60.8187921,357.587941 53.719417,354.228606 46.7200693,350.727923 C41.6348341,348.49272 37.257741,345.043249 32.1468578,342.860027 C29.0998717,341.516959 25.9528582,340.425604 22.7417247,339.558564 C17.3069069,337.645748 11.7438489,336.403314 5.90892171,335.889132 C-41.2301081,334.398058 -88.4771162,335.497607 -135.62461,336.597412 M-162.047212,357.419193 C-161.270589,357.111402 -160.607331,356.449214 -160.298016,355.47104 C-160.17747,355.967553 -160.051795,356.458945 -159.91586,356.947775 C-160.613487,357.15186 -161.331632,357.320864 -162.047212,357.419193 M65.536491,365.216159 C65.9740464,367.195808 67.8048029,368.559105 68.7524977,370.296004 C61.2340337,377.351913 53.5568085,384.249573 46.4543556,391.705201 C27.3593963,374.647083 4.22153773,362.303148 -20.6701332,356.048214 C0.437683656,356.463298 21.5444746,356.866602 42.6522915,357.265554 C43.3576123,357.278101 43.8349222,356.941886 44.0906331,356.478662 C45.2206853,356.184954 46.5754144,355.902256 47.4377012,355.385258 C53.4213869,358.427839 59.3989171,361.503196 65.4833996,364.332218 C65.4687802,364.678675 65.4903245,364.994917 65.536491,365.216159 M-65.8978718,425.788917 C-60.2440197,446.294968 -57.1547143,467.662171 -49.6070117,487.58644 C-49.5693091,487.678368 -49.4041357,487.673759 -49.4164468,487.560834 C-49.5139093,486.499951 -49.4241412,485.443933 -49.5498166,484.380489 C-52.5229364,467.074243 -57.1895957,450.078605 -61.1042547,432.961336 C-56.1300755,440.854582 -43.1270365,473.448247 -35.2330854,474.161136 C-40.70458,479.590256 -46.1760745,485.020399 -51.6503903,490.443885 C-56.8605314,495.500428 -61.9632073,502.136132 -69.5783643,503.513513 C-72.2365262,503.877383 -75.0488329,504.516269 -76.7444242,506.754545 C-78.0191314,504.965153 -77.5831149,502.535596 -76.3981758,500.633022 C-70.8897481,492.518791 -59.1147369,495.965444 -52.1017957,490.005499 C-50.8270885,488.760505 -52.9302271,486.794683 -54.4049889,487.981807 C-57.1313746,490.174503 -60.6990158,490.761407 -64.0768615,491.348568 C-75.3309612,453.342683 -86.2713855,415.179062 -98.4195756,377.434366 C-95.7137082,376.582433 -92.9821929,375.823965 -90.2327239,375.156143 C-84.4519141,385.618504 -79.4938932,396.321054 -74.2157848,407.011313 C-71.6368753,413.34998 -66.8891682,419.0746 -65.8978718,425.788917 M-11.2906481,556.779929 C-12.9695683,555.010254 -18.72473,557.756566 -15.5997739,559.59794 C-12.9167333,560.030948 -10.1005795,560.003293 -7.38701776,560.121851 C17.8367952,560.926924 43.0154676,563.403854 68.0874442,565.661079 C35.4244197,659.079984 -86.2854919,689.550603 -155.702402,615.356906 C-227.162947,543.139785 -198.639771,408.388694 -98.8530273,377.570337 C-88.4458256,415.764942 -76.7369863,453.645098 -65.4798088,491.600793 C-68.4139436,492.152616 -71.301912,492.895977 -73.920576,494.375528 C-79.2545971,497.038619 -83.3770051,504.82739 -78.3346022,509.564618 C-82.4416214,521.526503 -66.9394383,531.262658 -57.8649083,521.925966 C-13.7000242,528.683814 30.6826117,533.950075 74.8200524,540.890242 C73.470966,548.400413 71.5447988,555.779478 69.041551,562.989795 C66.6552581,561.725851 63.7249705,562.000611 61.1034853,561.482332 C58.3258035,561.132289 55.5455569,560.804781 52.7601806,560.517474 C31.5064265,558.354737 10.1682903,556.956871 -11.2060096,556.984014 C-11.1906208,556.916156 -11.213704,556.835496 -11.2906481,556.779929 M84.7640507,358.00789 C86.4878549,356.392879 88.4035063,354.849823 89.9493132,353.064529 C91.098345,358.574309 92.251737,364.084089 93.4148752,369.594126 C44.8105733,414.462333 -5.01277949,458.120882 -53.3252068,503.256422 C-53.647346,502.676432 -54.5055292,502.488735 -55.1487818,502.432401 C-55.0000232,502.432401 -55.7284273,502.545838 -55.8438435,502.556081 C-55.7745938,502.543278 -55.7053441,502.533291 -55.6335296,502.520744 C-56.9087497,502.540717 -58.1062563,503.525804 -58.3547857,504.718305 C-59.0190697,506.435487 -57.9600625,508.591053 -56.1567494,509.100881 C-56.2644712,509.745913 -56.3285912,510.398626 -56.3798873,511.049034 C-57.2311455,510.122586 -58.5563793,509.857558 -59.6064097,509.168995 C-61.2399328,508.010807 -63.295879,506.568897 -65.3261771,506.84212 C-69.4498676,505.608392 -72.5745673,509.368215 -68.3164811,509.516221 C-67.1541123,509.335694 -66.0520164,509.034816 -64.9724908,509.106259 C-63.0004137,511.73222 -60.9357471,517.448645 -56.7851262,515.247499 C-57.217552,517.477325 -58.7397627,520.64461 -61.068091,521.253536 C-61.3081565,521.352121 -60.9988413,521.459413 -60.8708576,521.449683 C-69.5560505,527.680546 -80.6229195,517.536732 -75.3104428,508.581579 C-73.7015418,505.970214 -70.4124382,505.93795 -67.6981071,505.351045 C-66.1517873,504.955167 -64.656507,504.322427 -63.2689485,503.543729 C-47.7600969,491.795403 -35.32311,476.352296 -21.1233339,463.0983 C14.2647939,428.159323 49.0681465,392.638051 84.7640507,358.00789 M-42.8146435,496.510098 C-37.0848733,491.313487 -31.3525383,486.111754 -25.6227681,480.910022 C-16.4428247,484.795317 -7.01999443,488.227118 2.29254929,491.829972 C-12.777721,492.54619 -28.0303488,493.304659 -42.8146435,496.510098 M-35.4100569,501.933327 C-39.7681703,499.257434 -45.1560523,500.382333 -49.5318629,502.535596 C-47.7031583,500.72367 -45.6564454,499.073066 -43.7713151,497.376882 C-28.7533668,496.535448 -13.7905618,494.554263 1.26919283,494.252104 C3.60059889,494.173748 5.93456974,494.113316 8.2659758,494.073114 C12.1670414,495.529619 16.0758014,496.971273 19.9896909,498.390137 C38.9138344,505.183322 57.9472385,511.70354 77.1309401,517.74261 C77.0591256,521.008736 76.8821542,524.252073 76.6025906,527.477997 C40.6486673,521.87296 4.65422002,516.475593 -31.4807784,512.107357 C-28.6246137,509.029439 -32.4415537,503.546034 -35.4100569,501.933327 M90.7705632,521.81765 C90.6705358,524.44105 90.5038236,527.052159 90.2755562,529.650464 C87.410671,529.189033 84.5457859,528.732979 81.6809008,528.28179 C81.9450756,525.310651 82.1271766,522.324149 82.2220743,519.322795 C85.0613114,520.18958 87.9082429,521.028709 90.7705632,521.81765 M82.2887592,516.215174 C82.850964,479.676806 70.0500316,443.306674 46.1712014,415.62513 C47.7767681,414.160686 49.3848997,412.69906 50.9930313,411.234872 C77.489756,440.368056 91.7703234,479.434567 90.8628961,518.697737 C87.9954462,517.903931 85.1382555,517.072228 82.2887592,516.215174 M89.0495803,451.698737 C81.7604097,434.077785 71.6320021,418.077222 58.9028842,404.047345 C70.5678653,393.447221 82.2705491,382.891397 93.9996503,372.36374 C105.259649,426.779638 117.92003,480.970709 130.987446,534.943613 C129.29801,535.511568 127.502135,535.654197 125.730625,535.515921 C117.509149,533.932406 109.214575,532.637223 100.932313,531.341271 C103.479676,504.273518 99.4293386,476.647029 89.0495803,451.698737 M134.309122,537.21569 C134.174727,536.83748 134.055463,536.437248 133.958514,536.04265 C134.072135,536.434687 134.18909,536.825957 134.309122,537.21569 M171.154315,515.695615 C173.153322,510.406564 179.048009,508.165727 182.52973,513.481921 C187.204853,523.37735 168.957561,524.961889 171.154315,515.695615 M167.671056,509.304966 C166.461751,512.263557 166.36275,515.604199 166.419432,518.783263 C166.434821,519.567083 166.796458,520.101493 167.296594,520.391104 C168.155803,522.513126 169.83575,523.770668 171.846555,524.526832 C169.513097,524.204701 167.732354,526.280887 165.673074,527.092105 C160.541416,529.745977 155.453872,532.467707 150.404288,535.268561 C148.383736,524.815675 143.902768,514.797078 143.789917,504.009514 C143.475472,501.095222 148.656375,503.729633 150.253478,503.689687 C155.50363,504.758508 160.784559,505.701088 166.083443,506.517684 C165.405052,507.651034 166.327868,509.265276 167.671056,509.304966 M142.114844,501.928718 C142.241546,501.95791 142.369016,501.984797 142.495717,502.013732 C142.431341,502.102843 142.37235,502.195027 142.321054,502.29182 C142.254113,502.169677 142.187172,502.047277 142.114844,501.928718 M86.6797022,317.045976 C91.0732099,317.567583 95.4692825,318.079204 99.8679199,318.547805 C104.269122,361.529827 113.532422,403.997412 125.823984,445.506796 C126.557261,448.014198 127.306184,450.519296 128.052542,453.026954 C129.121039,455.423991 128.99126,460.467218 132.458873,460.426248 C132.30755,461.965975 132.204958,463.513384 132.153662,465.065914 C130.94564,467.56589 129.986403,470.174183 129.424711,472.83292 C128.54524,477.294108 128.278501,481.870527 128.008683,486.404182 C127.331319,497.657531 129.167462,499.394173 140.25767,501.506721 C143.177699,513.117283 144.57013,525.310395 147.022339,537.112495 C147.434502,539.298277 148.021842,541.430542 147.407828,543.570489 C145.852275,546.671709 142.619085,546.356235 140.005037,544.379403 C137.465882,541.931664 136.757483,538.471183 135.752081,535.270353 C125.457217,501.3349 118.560462,466.532407 111.583941,431.827218 C104.369149,393.32815 94.0571019,355.508426 86.6797022,317.045976 M119.370683,399.422786 C119.386072,399.395131 119.352729,399.354928 119.321952,399.374902 C134.641521,392.847513 149.907229,385.416467 165.111382,378.371825 C155.432328,404.501607 137.483323,427.838216 133.053908,455.756365 C127.526244,437.100393 123.041942,418.168637 118.565335,399.248917 C118.724353,399.604337 119.15011,399.84888 119.370683,399.422786 M116.844352,389.377558 C134.774121,379.793506 153.006281,370.561288 170.464126,360.133241 C169.306118,364.934486 168.095531,369.716525 166.516894,374.395114 C157.071237,378.90009 147.709962,383.576886 138.311754,388.187874 C132.301651,391.160036 126.261796,394.092764 120.437641,397.40908 C119.899032,397.730955 118.541995,398.198789 118.503779,398.986961 C117.759987,395.798678 117.034147,392.605787 116.326262,389.410078 C116.498103,389.440294 116.675075,389.432868 116.844352,389.377558 M105.233488,327.416408 C104.549199,325.125382 104.541761,322.767779 104.018284,320.386874 C106.348664,320.27062 108.679045,319.973583 110.970953,319.523162 C113.440858,319.566181 115.992837,319.364401 118.331938,318.666364 C134.001602,330.189607 150.284768,340.683975 167.281462,350.220912 C168.879078,351.234678 170.533376,351.869723 172.397988,352.101463 C171.915805,354.052177 171.451575,356.005451 170.987346,357.96103 C153.032955,367.29593 134.445826,375.841121 116.849225,385.672534 C123.071694,382.832501 129.219527,379.815783 135.357101,376.779092 C129.029475,380.502297 122.012174,382.858364 115.69532,386.552378 C111.705512,366.952289 106.581805,347.357577 105.233488,327.416408 M177.658399,459.670084 C169.575422,462.213591 162.626601,467.410714 156.144317,472.651113 C150.107027,478.300705 141.731406,474.434103 137.281216,468.766842 C137.683634,468.163805 136.405336,468.159452 136.173991,467.485742 C147.940282,452.127905 159.915604,450.441964 178.484266,450.451399 C177.293684,453.346781 177.087987,456.597031 177.658399,459.670084 M60.572571,316.191482 C57.1213719,317.619564 55.0246453,320.642172 53.76584,323.976668 C52.2190072,327.212323 48.3153768,325.523821 46.527709,323.464792 C44.1575744,319.981521 41.348602,317.795226 36.8917436,319.15289 C35.5936968,316.9077 35.3541441,314.280459 34.7752681,311.829135 C43.6074242,313.87741 52.5201151,315.174899 61.5677146,315.757962 C61.2342902,315.894189 60.9008658,316.037842 60.572571,316.191482 M20.2128288,229.696612 C20.8950664,227.559482 21.8158308,225.493027 22.9776866,223.540008 C23.180306,223.199696 22.7801968,222.791526 22.4595964,222.907268 C28.4620051,195.601374 43.9777817,174.644645 53.2226146,148.451615 C60.5361508,125.68757 65.9137735,112.189799 68.7619874,88.4811255 C74.5148409,117.01281 77.2435349,138.80918 104.053166,156.397611 C121.84264,167.880396 142.646015,174.554254 163.482732,178.259791 C159.431369,182.794982 158.779653,189.036344 158.389033,194.814994 C157.639085,205.019239 156.223313,215.497732 158.027396,225.641801 C148.531982,226.931864 138.917048,226.231266 129.468313,224.885637 C91.8654776,217.769809 51.5972989,222.877565 18.9586401,243.270435 C18.4174666,238.711429 18.8201407,234.059215 20.2128288,229.696612 M75.11244,37.8158317 C81.4639185,12.8744542 98.8525143,9.40398657 125.862456,11.3170585 C128.450086,11.1170706 131.002065,10.590086 133.164194,9.39067112 C126.334893,66.3375293 161.004876,86.5442394 169.930647,141.218508 C135.558438,126.478303 113.481126,109.159254 111.802462,72.7650515 C111.437747,67.02686 111.719875,61.2960944 111.691662,55.5576468 C111.689098,55.3358934 111.381321,55.3082382 111.312071,55.5072018 C97.4493105,105.759717 136.664894,141.630263 186.935292,152.433192 C184.439739,158.286101 182.469457,161.561958 179.974416,167.415635 C179.968774,167.424086 179.96467,167.432536 179.964157,167.44073 C179.958515,167.44918 179.953641,167.463008 179.951333,167.468641 C178.857445,169.997041 177.723802,172.593298 176.157989,174.880483 C175.957935,175.172654 175.321863,175.729855 175.975888,175.157546 C175.804046,175.306321 175.647593,175.520392 175.49114,175.694261 C172.758856,175.894505 165.588436,171.700138 163.631491,173.272386 C137.623361,168.023537 107.485642,162.606965 91.6036112,140.095401 C74.8085108,107.332476 66.3200384,73.6786963 75.11244,37.8158317 M137.501276,22.6139389 C148.494536,33.6268418 172.544438,34.7776041 181.059328,20.4417278 C180.535339,69.7124842 178.117499,88.6001964 173.793241,137.682744 C163.843856,87.3623715 136.747994,71.3367132 134.921084,19.2999279 C135.659748,20.4896123 136.534346,21.6083663 137.501276,22.6139389 M184.717763,17.1215712 C190.236194,19.4704681 195.359388,22.6095858 200.141463,26.1678842 C205.255424,30.0157937 212.707973,30.0088799 214.096557,36.9006504 C215.589529,52.4536102 215.003472,58.1628662 214.679281,73.7811229 C210.698706,122.372535 209.751524,137.67583 259.632072,162.682761 C259.760312,163.300137 259.960367,163.912647 260.204023,164.507234 C253.674291,166.833084 246.044515,165.874372 239.977986,169.439328 C237.302127,165.880518 234.134338,162.076908 229.557191,160.971469 C227.666931,160.520536 225.822837,160.7195 223.932577,161.044704 C222.871775,161.13151 221.71351,161.697929 220.798388,160.989138 C213.979602,157.065176 207.118241,155.732607 201.857573,149.959846 C197.94471,146.433556 199.970904,138.296279 199.204797,133.307594 C197.427902,100.462471 199.806757,85.2833685 201.909126,52.5158343 C201.995816,50.0460741 202.175352,47.5737532 201.854752,45.1165402 C201.834233,44.9577791 201.634179,44.9250026 201.572624,45.0788985 C193.581466,78.395439 194.452987,95.7539228 194.379633,129.832005 C194.258318,139.591975 195.686144,146.468381 197.189888,156.077272 C197.327874,157.347618 199.305338,157.41061 199.256606,156.077272 C199.160426,153.489465 199.300208,153.660518 199.417676,151.060676 C201.43592,152.513084 202.502621,151.761017 203.911468,153.721205 C206.142077,156.496709 208.924632,158.802075 211.698466,161.034461 C204.507271,159.816866 197.715929,156.522316 190.537815,154.933424 C190.948696,153.86281 191.359834,152.791941 191.808418,151.735155 C191.793029,151.777918 191.780205,151.805573 191.775076,151.823241 C191.998983,151.270394 192.298295,153.434667 192.590683,152.906914 C194.203944,151.795586 194.170602,148.574783 191.810983,148.12129 C187.563925,147.309047 183.379192,146.211803 179.289614,144.854907 C182.56615,91.8921857 188.248728,68.886414 182.322494,15.890148 C183.124251,16.3203395 183.932164,16.7256926 184.717763,17.1215712 M263.122769,167.196443 C265.249504,166.40571 264.198704,164.467543 263.492101,162.964946 C263.962742,162.65741 264.376958,162.146558 264.551365,161.58654 C264.734748,166.385736 266.220795,171.108369 269.024381,175.056912 C260.653377,176.002821 252.244926,176.729026 243.89444,177.786068 C243.784154,177.521551 243.671302,177.2619 243.553321,177.00737 C246.672891,175.452791 242.287847,172.47141 241.152666,170.928866 C248.415419,169.287993 256.089566,169.775031 263.122769,167.196443 M275.926267,163.239705 C298.853811,162.296612 317.656896,176.908784 334.952389,189.817859 C337.80958,191.529919 340.187922,194.848283 343.811476,194.595801 C344.124382,196.203642 344.437288,197.808922 344.745064,199.411642 C337.119135,199.188608 328.8597,198.594022 322.567212,193.887522 C309.261526,180.33444 291.556177,168.896979 271.514805,172.161058 C269.895645,169.527415 268.770209,166.538608 268.475513,163.471445 C270.927465,163.199246 273.479444,163.201807 275.926267,163.239705 M280.617291,153.277442 C283.979492,151.83963 290.808537,149.755505 292.777023,154.015938 C292.761634,154.015938 292.979643,154.580308 292.977078,154.572882 C293.335637,155.638631 293.374366,156.724352 293.236123,157.995209 C288.991117,158.07587 284.72508,157.749898 280.535218,157.093088 C280.545477,156.11517 279.860675,155.114719 278.87579,154.781832 C279.304112,154.159591 279.888887,153.695855 280.617291,153.277442 M320.632068,197.720067 C320.669001,197.687547 320.7026,197.654258 320.73389,197.620457 C322.5608,198.910776 324.534159,199.943492 326.622935,200.758551 C323.529013,201.085292 320.35789,201.490389 317.303979,200.824872 C318.432492,199.788827 319.524329,198.703362 320.632068,197.720067 M203.321819,191.33454 C202.831942,191.594191 202.347194,191.825931 201.867576,192.007482 C201.764984,191.949611 201.664956,191.88918 201.567494,191.825931 C200.061698,190.653403 198.070898,189.209189 198.194778,187.105604 C199.943974,188.461731 201.626484,189.903129 203.321819,191.33454 M226.646139,163.977944 C233.63651,164.116476 236.446765,171.594127 240.693566,175.896042 C238.509892,177.794006 243.19271,181.323881 240.388098,183.584947 C233.177154,186.793715 225.415803,188.926236 218.015833,191.75833 C216.063761,192.450989 214.204279,193.181803 212.224251,192.625114 C212.266057,192.562634 212.302221,192.496569 212.341206,192.432553 C211.774897,192.078157 210.573287,192.043844 210.557642,191.229297 C209.454777,190.655196 208.26599,190.139478 207.405242,189.172571 C207.317783,189.208421 207.230579,189.245038 207.143376,189.283192 C199.980907,183.391361 191.26827,175.804114 181.228605,177.400432 C184.870882,171.101711 187.110725,164.104953 189.647058,157.311768 C198.131171,158.712195 205.434191,163.707794 214.165807,164.416074 C218.421841,164.590199 222.819453,162.751642 227.078308,164.216854 C226.936988,164.133889 226.792846,164.054508 226.646139,163.977944 M175.547566,181.377399 C177.784074,181.279069 179.322956,180.054304 180.513025,178.45901 C185.976825,180.001554 191.324183,182.083886 195.930057,185.429905 C192.031812,187.366023 193.584544,191.719664 195.755907,194.328468 C196.442248,203.193742 196.820043,212.098194 196.509702,220.989587 C188.969437,220.453128 181.48765,219.288794 174.108712,217.685563 C171.792438,205.693206 173.313623,193.370268 173.895833,181.28163 C174.442136,181.362291 174.993569,181.402493 175.547566,181.377399 M163.50838,217.980295 C163.15931,210.893914 163.728697,203.813167 164.034165,196.737797 C164.268331,190.908189 164.050836,184.773607 166.622051,179.371375 C168.636448,179.916284 170.514653,180.429185 172.49545,180.996884 C168.31713,190.971182 167.84854,202.253466 168.373299,212.924777 C168.368939,221.615157 170.374102,222.512158 178.68432,223.633217 C177.783561,229.283833 181.542537,234.324756 185.457965,238.071263 C174.225154,235.374116 163.257029,231.295235 151.669249,230.283773 C153.849588,229.938851 161.887681,229.808769 162.331136,227.491625 C165.428905,225.794929 163.331922,220.845934 163.50838,217.980295 M347.953633,216.082587 C335.897776,233.26797 333.794381,243.551084 337.420756,264.175438 C337.843436,267.129676 339.390012,270.503094 342.662444,271.135835 C312.18335,287.774772 281.376986,303.913867 251.458045,321.52176 C255.513768,311.883677 259.476389,302.209746 263.343342,292.496892 C267.137456,284.267175 270.378597,273.940274 261.342026,267.791608 C241.388371,254.509701 218.219991,246.279471 194.988774,240.425025 C194.143415,238.094309 191.655556,236.745352 189.959451,235.008965 C186.391554,231.550277 182.070117,228.446496 179.861565,223.814512 C186.041715,224.765286 192.294961,225.22851 198.546156,225.336826 C199.713141,225.357055 200.674942,224.356348 200.687766,223.232473 C200.825753,214.730557 200.829857,206.221471 200.18763,197.735943 C203.207429,198.68595 206.046666,196.728322 208.623267,195.394472 C212.310941,197.885998 216.751129,196.767756 220.526519,195.094363 C226.233206,192.9854 231.937328,190.875925 237.64145,188.76645 C241.084955,187.742697 245.236602,185.781997 244.858806,181.616821 C251.920992,180.862961 258.949835,179.881971 266.010738,179.099176 C269.594537,179.073313 275.070648,178.144817 272.299635,173.463923 C290.538976,174.641317 306.523342,182.863096 318.702053,196.04232 C316.91695,197.62942 315.154418,199.246223 313.339819,200.80029 C311.289772,202.483926 308.494906,200.718092 306.150676,200.526043 C289.359423,196.888364 272.330156,193.97484 256.192671,187.988008 C252.843295,186.507176 249.620876,184.754658 246.544908,182.774497 C245.160427,181.882874 243.873922,184.064303 245.250452,184.950549 C253.865625,190.915103 264.09483,193.340308 273.913153,196.596192 C281.137947,198.867757 310.020964,207.611655 315.026947,202.753052 C320.704908,204.80696 326.906089,203.017568 332.742555,202.589169 C336.902409,202.933835 341.350547,203.882305 345.535024,203.517154 C346.335242,207.708192 347.143155,211.894366 347.953633,216.082587 M242.663848,343.007522 C242.474309,343.11046 242.282205,343.209302 242.093948,343.313777 C242.118314,343.257955 242.142423,343.202132 242.166789,343.146566 C242.32991,343.097401 242.498674,343.053614 242.663848,343.007522 M351.462284,277.993292 C352.020641,280.757017 352.361247,283.532776 353.101193,286.264492 C350.462524,285.514474 343.435219,291.092624 340.559306,292.332497 C336.940368,294.364384 333.311172,296.375273 329.671716,298.371311 C312.226182,307.973544 294.626503,317.300506 276.748029,326.103812 C276.286108,324.570742 267.105652,331.386717 265.192822,331.781059 C258.119608,336.139565 250.283621,339.174208 242.563307,342.234713 C245.397415,336.880109 246.795232,330.193704 250.369542,325.50308 C261.96989,318.522967 273.866473,312.031428 285.690472,305.430293 C305.520504,294.336985 326.037903,284.176271 344.719673,271.244663 C346.934893,270.712813 349.086763,270.986036 351.262229,271.468465 C350.63693,273.573074 351.032936,275.89995 351.462284,277.993292 M212.272213,475.636078 C211.983416,475.670904 211.694619,475.705216 211.406079,475.741066 C211.645631,475.673464 211.886723,475.608935 212.129353,475.549784 C212.177059,475.57872 212.224507,475.607399 212.272213,475.636078 M211.32144,471.50752 C211.200895,471.668586 211.118821,471.845016 211.072654,472.031432 C209.796152,471.260672 208.519649,470.490937 207.243147,469.720689 C207.777395,469.618263 208.311131,469.511995 208.844353,469.395485 C209.884381,469.167842 209.680223,467.409434 208.587873,467.534138 C205.832505,468.093899 203.287194,467.80224 201.1007,465.978023 C204.489061,466.197984 206.052052,462.10041 207.625559,459.735893 C216.165071,443.809076 224.120064,427.587783 233.471593,412.08194 C241.504813,397.848746 249.601127,383.649353 257.567406,369.379798 C263.352063,360.101233 267.843289,346.675416 258.400967,338.157368 C290.923953,323.298605 323.397182,307.55129 353.739829,288.804927 C356.301554,299.883895 360.109518,310.620758 363.668182,321.42087 C311.576517,369.98053 256.605604,416.549274 211.32144,471.50752 M353.401275,244.097017 C354.37154,249.0898 355.349499,254.086167 356.314891,259.082022 C355.115846,261.752794 354.914765,265.2924 352.403823,267.164245 C351.457154,267.650515 350.241437,266.972707 349.277071,266.808825 C347.130588,266.125896 344.555782,267.932188 342.71374,266.610117 C341.395431,265.253734 341.349265,262.597557 341.100479,260.863732 C340.313085,255.377253 339.602634,249.810114 339.761652,244.258339 C339.664959,234.90321 344.464475,226.921621 348.471723,218.756688 C350.108068,227.204318 351.757236,235.649387 353.401275,244.097017 M358.064087,266.725603 C358.134363,266.853124 358.21182,266.977829 358.29338,267.100997 C358.10179,267.18345 357.912764,267.273585 357.726815,267.371659 C357.844283,267.158868 357.957648,266.944028 358.064087,266.725603 M369.395387,272.38211 C369.435911,272.639968 369.479,272.897315 369.526962,273.153638 C369.406416,272.849943 369.285614,272.545992 369.163786,272.242553 C369.2356,272.292742 369.312801,272.33909 369.395387,272.38211 M379.536619,274.795279 C402.294374,281.689866 427.437139,286.569723 451.127969,282.20712 C441.385564,309.585738 420.783014,331.008763 399.362804,350.183782 C397.059867,346.822911 395.276816,341.701583 391.008214,340.612533 C392.053371,339.497876 391.810484,337.266769 390.331875,336.602533 C384.289712,314.859425 376.754833,293.50861 371.125091,271.681768 C373.882767,272.835347 376.698664,273.858332 379.536619,274.795279 M456.259627,168.124939 C456.571507,167.204637 458.057041,167.60154 457.744392,168.52722 C451.056154,191.329931 444.7452,214.38077 439.988516,237.644145 C440.210884,239.243023 437.67019,239.410747 438.625323,236.256009 C443.646438,213.370844 449.432378,190.55661 456.259627,168.124939 Z M-165.140364,357.315743 C-165.984185,357.104232 -166.668987,356.670711 -167.228114,356.100964 C-166.843394,356.121193 -166.450979,356.07843 -166.079082,355.969858 C-165.61947,356.692733 -164.90389,357.261201 -164.15548,357.482186 C-164.488904,357.45197 -164.817199,357.398964 -165.140364,357.315743 M-170.182767,336.297558 C-170.759848,337.383792 -170.811144,339.016727 -170.944514,340.183622 C-171.00094,340.685256 -171.047106,341.189194 -171.080448,341.693389 C-171.339494,340.125494 -171.621622,338.560673 -171.988389,337.015824 C-171.38566,336.768976 -170.785496,336.529298 -170.182767,336.297558 Z M42.6797524,278.064542 C75.037277,282.925467 88.4670851,283.568585 98.1125759,284.430454 C78.2515616,285.912267 33.0703701,280.458193 33.3644806,277.844317 C33.3644806,276.875081 41.439319,277.878197 42.6797524,278.064542 Z" id="ðŸ–-Ink" fill="#000000"></path>
                </g>
                <g id="Head" stroke-width="1" transform="translate(86.511840, 45.072000)">
                    <g id="head/Long-Afro">
                        <path d="M102.438444,68.8460778 C100.717234,47.8938578 95.4763721,29.3367138 70.8505888,28.5454498 C59.7374534,28.6446082 48.393369,31.0021242 38.1739386,35.3640922 C13.3347594,47.8004586 5.45365622,93.243301 27.337641,111.536023 C27.2074971,111.609891 27.1761523,111.823482 27.3298675,111.926647 C31.8510515,114.963999 36.8765117,117.462991 41.9097455,119.562845 C55.3168238,125.222887 71.0998432,127.681314 84.7729768,121.541756 C105.639382,112.675593 105.952329,88.004933 102.438444,68.8460778 L102.438444,68.8460778 Z" id="ðŸŽ¨-Background" fill="#FFFFFF"></path>
                        <path d="M143.510805,59.0802524 C144.3684,58.3090204 145.007836,57.2974044 145.331315,56.1630924 C145.62721,55.1289404 145.647271,53.9996364 145.333822,52.9679884 C144.997805,51.8612204 144.273112,50.9798124 144.436105,49.8279724 C144.453658,49.7152924 144.476227,49.5976044 144.511333,49.4799164 C145.13823,47.3114524 146.680398,45.7464524 146.128728,43.3426124 C145.973258,42.6640284 145.67987,42.0530524 145.271133,41.5722844 C145.316269,41.0514524 145.356391,40.5256124 145.388989,39.9997724 C146.294229,37.8838924 146.26163,35.3698764 145.296209,33.2865484 C145.178352,32.2198444 145.000313,31.1631564 144.749554,30.1239964 C144.864903,29.2050284 144.704417,28.1934124 144.408522,27.3896284 C143.888698,25.9753692 143.246254,24.5816428 142.549144,23.2109532 C142.631142,22.8361044 142.594281,22.4399716 142.387154,22.0876588 C142.010514,21.447386 141.512757,20.8844868 141.003967,20.334358 C140.644128,19.6925828 140.281782,19.056066 139.922444,18.4278124 C139.75594,18.1391012 139.572134,17.8188396 139.369521,17.4795476 C139.921692,16.4564132 140.216584,15.4593204 139.632567,14.2561484 C139.413153,13.8041764 138.809827,13.470894 138.313073,13.5004412 C137.77018,13.5327428 137.222272,13.5570316 136.671354,13.5778148 C135.641738,12.3363316 134.474957,11.2218012 133.224672,10.5802764 C131.95834,9.5085644 130.674454,8.4568844 129.425674,7.3826684 C129.072104,7.0771804 128.716026,6.7716924 128.362456,6.4662044 C128.359949,6.4586924 128.357441,6.4486764 128.354933,6.4411644 C128.094144,5.4921484 127.800756,4.5556524 127.507368,3.6141484 C127.324314,3.0307164 127.269147,2.4197404 126.699924,2.1017324 C125.511327,1.4381724 123.683294,1.3330044 122.319165,1.2203244 C122.183756,1.1001324 122.048346,0.9824444 121.912936,0.8622524 C122.532311,-0.7853796 122.421977,-2.5356756 121.642116,-4.1858116 C121.376312,-4.7467076 120.453519,-4.9996116 119.946986,-4.6290196 C118.778449,-3.7726516 117.391752,-3.4696676 116.0201,-3.5948676 C114.003998,-5.1423396 105.871885,-12.140018 104.615332,-12.878698 C104.599785,-12.9052404 104.587247,-12.9317828 104.570697,-12.9580748 C103.864309,-14.084374 103.006463,-14.9888188 102.042044,-15.7139772 C101.904377,-15.8574564 101.766711,-16.001186 101.629044,-16.1449156 C101.750161,-17.0035372 102.068875,-17.8326116 102.581928,-18.5262196 C102.637095,-18.6063476 102.699785,-18.6839716 102.762474,-18.7590916 C103.660191,-19.8257956 102.564375,-21.1979876 101.31058,-20.6395956 C101.220307,-20.5995316 101.130034,-20.5594676 101.03976,-20.5168996 C100.075843,-20.087714 99.0093651,-19.6212188 97.8987537,-19.22759 C97.4922735,-19.3795828 97.0780197,-19.5173028 96.7001259,-19.6690452 L92.6538794,-21.29339 C91.9878636,-21.5608172 91.2837325,-21.7874292 90.6395327,-22.1016812 C90.4148527,-23.5938148 88.9173202,-24.572378 87.3621132,-24.5212964 C87.4518849,-24.807754 87.5857902,-25.0859484 87.7746117,-25.3496196 C87.8297786,-25.4272436 87.8899608,-25.5023636 87.9526505,-25.5749796 C88.7525716,-26.5039636 87.6843384,-28.2267156 86.5408776,-27.4003956 C86.4606347,-27.3428036 86.3778843,-27.2852116 86.2976414,-27.2276196 C85.9799298,-27.005014 85.6546954,-26.7961804 85.3259505,-26.5938572 C84.7996074,-26.8232236 84.2068132,-26.8755572 83.5864356,-26.6329196 C82.212778,-26.0958116 80.9464453,-25.5496892 79.7370349,-24.7078444 C79.6878861,-24.6735396 79.636982,-24.6447436 79.5873318,-24.612442 C78.9870148,-25.3365988 78.03388,-25.8208724 77.1755321,-25.815614 C77.157979,-25.815614 77.144438,-25.8158644 77.128891,-25.8161148 C76.4871988,-26.7924244 75.3108885,-27.3598308 74.1749505,-27.2218604 C74.2516827,-28.6228484 72.8471818,-29.8730956 71.5685619,-30.0250884 C70.07454,-30.2023716 68.7279644,-29.336238 68.2796074,-27.8809132 C68.1547294,-27.475766 68.0301022,-27.0703684 67.9052243,-26.6649708 C66.7452134,-27.2496548 65.5210081,-27.6976204 64.2421375,-27.9212276 C61.3300737,-28.4305412 58.4827058,-27.8881748 55.6764623,-27.0808852 C55.3961138,-27.0002564 55.116016,-26.917374 54.8359183,-26.834742 C54.435707,-27.2977316 54.0603208,-27.7717388 53.7014848,-28.2141956 C53.0821101,-28.9779156 51.5951095,-28.3669396 51.6954131,-27.3853716 C51.7651241,-26.7080396 51.48954,-26.2207612 51.0459474,-25.874458 C50.5587228,-25.8033444 50.0877974,-25.78181 49.3776481,-25.7960828 C48.4390573,-25.8151132 48.0120148,-25.84441 47.0305443,-26.2265204 C46.5731599,-26.4043044 46.0036863,-26.8718012 45.7371296,-27.2914716 C44.7152868,-28.9007924 42.1196809,-29.3342348 40.8834392,-27.7997836 C39.5825018,-28.368442 37.9400306,-27.5841892 37.2178448,-26.4784228 C36.8399511,-25.9002492 36.0515649,-25.5769828 35.059061,-25.2990388 C34.3140561,-25.090706 33.5522504,-24.932954 32.7869341,-24.7949836 C32.4459019,-25.2569716 31.7277282,-25.5667164 31.2008837,-25.1793476 C30.8440537,-24.9161772 30.4975048,-24.6459956 30.1557203,-24.3690532 C27.5202437,-24.006474 24.8985588,-23.9934532 22.3857033,-25.0195924 C20.2582644,-25.8884804 18.3048521,-23.5154396 18.6559146,-21.5232572 C18.0397999,-21.2029956 17.3712765,-20.9899052 16.7626845,-20.6543692 C15.4349158,-19.9216988 14.3446159,-18.7635988 13.6801047,-17.4029252 C13.5609942,-17.159286 13.4534186,-16.9118908 13.3508582,-16.6632436 C12.8546062,-16.2598492 12.3638709,-15.8456876 11.8849213,-15.4087396 C11.0875078,-15.8168916 10.2926019,-16.2250436 9.49518846,-16.6331956 C8.89838215,-16.9386836 7.89283874,-16.7258436 7.77498203,-15.9345796 C7.58189763,-14.6324996 7.11297838,-13.5532756 6.44345197,-12.6493316 C4.26686424,-11.5075076 2.17302696,-10.2254596 0.169462902,-8.8006836 C-2.1350119,-8.0795316 -4.5849269,-7.6588596 -6.59852131,-7.1856036 C-7.28810844,-7.0228436 -7.66424687,-6.1239076 -7.27557049,-5.5254516 C-6.8643258,-4.8919396 -6.45308112,-4.2584276 -6.04434402,-3.6249156 C-7.19031245,-2.5081316 -8.26606837,-1.3412676 -9.28164214,-0.1343396 C-12.1076956,3.2210204 -14.4723525,6.8993964 -16.5887581,10.7956204 C-17.426293,11.1336604 -18.2638279,11.4691964 -19.1013628,11.8072364 C-19.9088067,12.1327564 -20.2724072,13.0692524 -19.6179263,13.7578524 C-19.3069852,14.0858764 -19.0286427,14.4314284 -18.7904217,14.7945084 C-19.9765116,16.7551404 -21.373239,18.5429964 -23.3266512,19.7148684 C-23.92095,20.0704364 -24.3673009,20.6288284 -24.6055219,21.2623404 C-24.8086367,21.3975564 -25.0092438,21.5427884 -25.2073434,21.6905244 C-25.7590131,22.1061884 -26.0925225,23.0126364 -25.4455644,23.5509964 C-24.9916907,23.9316044 -24.5654005,24.3823244 -24.2043076,24.8806204 C-24.1265723,25.1635724 -24.0463294,25.4490284 -23.9660866,25.7319804 C-25.7815814,27.3996444 -27.2911503,29.3377404 -28.4245808,31.5112124 C-28.6928929,31.4686444 -28.9687277,31.4961884 -29.1919032,31.6614524 C-31.2180356,33.1563404 -31.2782177,35.5376444 -30.4632511,37.6660444 C-30.9547387,40.8736684 -30.6387824,44.1614204 -29.6909135,47.2688844 C-30.9371855,48.5108684 -31.6869548,50.3037324 -31.9928808,52.0314924 C-32.5320125,55.0663404 -32.5696264,59.7337964 -32.7100514,62.8312444 C-34.0691649,64.1408364 -35.0370945,65.8360444 -35.5762262,67.6589564 C-36.0300999,67.8843164 -36.4839736,68.1096764 -36.9378474,68.3350364 C-37.3415693,68.5353564 -37.6374648,69.0637004 -37.6138712,69.5094124 C-37.4970398,71.6653564 -36.6068455,73.3680764 -35.4257709,74.9105404 C-35.0070034,76.0999404 -34.3876288,77.1966924 -33.5751698,78.2483724 C-33.0134697,78.9695244 -32.4643076,79.6606284 -31.9803428,80.4393724 C-31.930191,80.5169964 -31.9000999,80.5896124 -31.8775316,80.6396924 C-32.0681084,80.8450204 -32.2260866,81.1855644 -32.364004,81.4284524 C-33.5225104,83.4667084 -33.5400635,85.8555244 -31.8950848,87.6308604 C-32.5144594,88.1366684 -32.5345201,89.1583004 -31.9878656,89.7843004 C-28.429596,93.8432844 -25.4631175,98.7786684 -20.5256737,100.934612 C-20.5031054,100.972172 -20.4830447,101.009732 -20.4654916,101.047292 C-21.4660198,103.451132 -21.6014296,104.700628 -20.7839554,107.184596 C-20.7789403,107.207132 -20.7714175,107.227164 -20.7638947,107.2497 C-20.3275741,108.55178 -19.5251455,110.637612 -18.0782663,111.04326 C-17.621885,111.170964 -17.1730265,111.228556 -16.7291831,111.226052 C-15.5807071,112.330316 -14.4347387,113.437084 -13.2887702,114.543852 C-13.1884667,115.092228 -13.1257769,115.645612 -13.1057162,116.204004 C-13.0731175,117.137996 -12.1929536,117.894204 -11.2450848,117.618764 C-10.9115753,117.521108 -9.06598944,115.730748 -8.72746485,115.740764 C-8.55694876,115.911036 -8.39144784,116.081308 -8.22594693,116.254084 C-7.61660267,116.892604 -6.77154499,117.899212 -6.70133248,118.56778 C-6.56592265,119.827292 -5.73841809,121.269596 -4.40187286,121.525004 C-3.90035495,122.033316 -3.09792629,122.18606 -2.48356685,121.5225 C-2.44344542,121.479932 -2.40332398,121.437364 -2.36069496,121.399804 C-2.29549763,121.392292 -2.23280789,121.38478 -2.16761056,121.377268 C-1.871715,122.258676 -1.57581943,123.140084 -1.27741627,124.018988 C-0.693147905,125.751756 1.5386068,126.866036 3.1234034,125.85442 C3.37917753,126.007164 3.62993649,126.169924 3.88069545,126.332684 C4.26184906,126.575572 4.64801785,126.823468 5.044217,127.05634 C5.06678531,127.121444 5.08935361,127.186548 5.10941433,127.249148 C5.36518846,128.027892 6.42840644,128.44606 7.08288731,127.997844 C7.28600206,128.062948 7.494132,128.115532 7.70476952,128.1581 C8.81061651,128.375948 9.92398628,128.315852 10.9922194,127.947764 C11.7570342,127.687348 12.4867428,127.189052 13.3092322,127.121444 C13.3606378,127.117188 13.4135479,127.120693 13.4657058,127.119191 C14.1367367,128.491884 15.6701277,129.674773 16.8785352,130.076665 C18.4613257,130.603256 20.0812285,130.414956 21.522591,129.770176 C21.9115182,130.546666 22.3999966,131.28184 22.9835127,131.961676 C23.3069917,132.337276 23.8912601,132.257148 24.2247695,131.961676 C24.8581866,131.401031 25.4875916,130.837631 26.1159936,130.27348 C26.5708703,130.09845 27.03001,129.888364 27.5089596,129.693052 C29.0069936,129.082076 30.649214,128.828922 32.0346572,127.946012 C32.6923979,127.526842 33.3110203,126.991988 33.8205625,126.372248 C34.7804678,125.818864 35.662387,125.129512 36.4567914,124.3395 C36.8529905,124.342004 37.2667428,124.249356 37.6679571,124.046532 C39.3455345,123.195172 40.2282061,121.462404 40.3059413,119.689572 C41.6650549,116.496972 42.4674835,113.091532 42.6881514,109.605964 C42.7583639,108.461636 42.7709019,107.307292 42.6831362,106.162964 C42.6229541,105.356676 42.4198393,104.818316 42.1139134,104.089652 C42.0111022,103.851772 41.9183214,103.633924 41.8456013,103.39354 C41.8631545,102.622308 41.8731848,101.851076 41.8832152,101.082348 C42.0913451,100.433812 42.4624684,99.8303484 42.9790318,99.3220364 C43.7789529,98.5357804 44.145061,96.9031724 43.41786,95.9316204 C42.9439256,95.3031164 42.4724987,94.6746124 41.9985643,94.0461084 C42.1314665,91.3493004 42.7784247,87.0574444 41.3440834,86.6067244 C41.401758,86.2060844 41.5246299,85.8104524 41.5948424,85.4123164 C41.9308594,83.4992604 41.7302522,81.7890284 40.7121709,80.1163564 C40.4990257,79.7683004 40.3184793,79.4603084 40.1705315,79.1598284 C40.0777507,78.6089484 39.9849699,78.0580684 39.8921891,77.5071884 C39.7492565,76.6583324 39.6088315,75.8019644 39.4884672,74.9405884 C39.4257774,73.8438364 39.3681029,72.7470844 39.3054131,71.6478284 C39.2477386,70.6362124 39.1825412,69.6245964 39.1148363,68.6104764 C39.1424198,68.1572524 39.1825412,67.7040284 39.2402158,67.2508044 C39.5837556,64.5489884 40.6896026,63.5498924 42.605401,61.6718924 C42.9063117,61.6243164 43.2047149,61.5717324 43.4981029,61.5116364 C44.8647392,61.2286844 46.2940652,60.7904844 47.700823,60.9482364 C49.227945,61.1185084 50.5945813,61.7770604 52.0790743,60.9357164 C52.5153949,60.6853164 53.4758017,59.9942124 53.5585522,59.4458364 C53.5635673,59.4107804 53.5710901,59.3807324 53.5811205,59.3581964 C53.6839316,59.3431724 53.8168339,59.3306524 53.8995843,59.3281484 C55.0781514,59.2880844 56.2040591,59.7513244 57.3926566,59.6236204 C58.7994143,59.4733804 60.0582243,58.8498844 60.8857288,57.9259084 C61.9464392,58.1863244 63.0297179,58.3040124 64.1305497,58.1587804 C65.0533427,58.0385884 65.8808472,57.7381084 66.6983214,57.2923964 C67.2926202,56.9718844 67.1045509,56.8792364 67.751509,57.1396524 C69.2234641,57.7356044 70.5549942,58.5218604 72.2125109,58.1137084 C73.0726141,57.9033724 73.8148606,57.4401324 74.4392504,56.8166364 C74.5871982,56.6714044 74.8379571,56.4535564 75.0059656,56.2482284 C75.7933488,56.6463644 77.7743445,57.5453004 78.1003311,57.6254284 C79.0231241,57.8507884 80.001084,57.8157324 80.8988011,57.5152524 C81.5582971,57.2949004 82.365741,56.6939404 82.9449942,56.5712444 C83.6947634,56.4109884 85.3598029,57.4526524 86.2550124,57.8107244 C87.8247634,58.4392284 89.4872953,58.5944764 91.0771071,57.9459404 C91.6237616,57.7230844 92.6869796,56.8341644 93.0957167,56.8416764 C93.7602279,57.6604844 95.6158442,62.1401404 96.1725291,63.7752524 C98.4268521,70.3858124 99.0111205,91.0262844 97.9704708,96.2921964 C97.9303494,96.4474444 97.8877203,96.6001884 97.8450913,96.7554364 C96.5662206,101.335252 95.2346906,105.992692 93.0957167,110.259508 C91.0771071,114.280932 88.2861599,117.901716 84.2815394,120.097724 C80.1289711,122.376364 75.254217,122.97482 70.5850852,122.666828 C67.5784854,122.471516 64.6220373,121.868052 61.7132334,121.111844 C60.1936341,120.718716 58.6865728,120.280516 57.1870342,119.824788 C56.5325534,119.626972 55.8680421,119.441676 55.2260992,119.211308 C54.0926687,118.803156 53.49837,118.770604 52.4125837,119.29394 C51.4245934,119.7697 51.1713269,121.174444 51.6853828,122.058356 C52.5229177,123.50066 54.0575625,123.60082 55.5395479,124.021492 C57.0491168,124.449676 58.5637009,124.860332 60.0883154,125.22842 C63.0096572,125.92954 65.9786432,126.4679 68.9727052,126.715796 C74.3339316,127.164012 79.8581514,126.472908 84.7379207,124.136676 C85.2895904,123.871252 85.8211994,123.5883 86.3352553,123.282812 C86.1446784,123.548236 85.951594,123.81366 85.7560021,124.07658 C85.2143627,124.805244 85.615577,126.044724 86.3753767,126.44286 C86.6161053,126.56806 86.8568339,126.688252 87.1000701,126.80594 C87.1326687,126.883564 87.167775,126.961188 87.2078964,127.038812 C87.9024987,128.431036 89.3569007,129.252348 90.8388861,129.607916 C92.599214,130.028588 94.5701794,129.730612 96.3605983,129.678028 C98.0206226,129.627948 99.6806469,129.577868 101.338164,129.527788 C101.729348,129.517772 102.120532,129.505252 102.511715,129.492732 C104.482681,129.432636 106.451139,129.375044 108.419596,129.314948 C110.174909,129.262364 110.092159,129.39758 111.739645,128.69646 C112.474369,128.380956 113.07619,127.935244 113.582723,127.341796 C113.89868,127.201572 114.204606,127.041316 114.497994,126.858524 C115.440847,126.272588 116.278382,125.486332 117.05072,124.619948 C118.362189,125.033108 120.200252,124.649996 120.456026,123.004868 C120.867271,120.373164 124.292638,119.248868 125.892481,117.345828 C127.183889,115.810876 128.106682,113.800164 128.059038,111.86958 C131.313889,110.297068 133.084247,106.152948 133.498,102.637332 C133.691084,101.007228 133.660993,99.2619404 133.939335,97.6042924 C134.062207,97.4715804 134.172541,97.3313564 134.265322,97.1811164 C135.082796,95.8615084 135.794952,94.5018364 136.421849,93.1096124 C137.27443,92.4961324 138.300034,92.1180284 139.373282,92.0554284 C142.011266,91.9026844 142.507769,88.3495084 139.992657,87.4931404 C139.980119,87.4881324 139.970088,87.4856284 139.95755,87.4806204 C140.639615,85.7779004 140.58194,83.7621804 139.754436,82.1496044 C139.789542,81.9743244 139.82214,81.8015484 139.854739,81.6262684 C141.266512,80.1113484 142.076464,78.0054844 141.98619,75.9547084 C142.630641,75.5014844 143.352827,75.1509244 144.142717,74.9330764 C145.363913,74.5975404 145.371436,73.1101644 144.468704,72.4441004 C144.105103,72.1761724 143.804193,71.8631724 143.553434,71.5176204 C144.177824,69.6446284 143.93208,67.4786684 142.655717,65.9412124 C143.465668,64.9045564 144.27562,63.8679004 145.085571,62.8312444 C145.622195,62.1451484 145.905553,60.9807884 145.085571,60.3297484 C144.561485,59.9115804 144.037399,59.4959164 143.510805,59.0802524 Z" id="ðŸ–-Ink" fill="#000000"></path>
                    </g>
                    <g id="face/Smile" transform="translate(39.870674, 46.574400)" fill="#000000">
                        <path d="M36.7578944,60.328009 C35.0722236,59.6413244 33.5681791,58.4958892 32.4685774,57.0326699 C32.0862863,56.5239948 31.9871646,55.9868418 32.067361,55.4955467 C32.1575361,54.9431201 32.4848286,54.4424437 32.9311823,54.1066054 C33.3789185,53.7697269 33.9389796,53.6035867 34.4804419,53.6882802 C34.9509409,53.7618739 35.4193003,54.0191143 35.7899717,54.5526217 L35.8674142,54.6593105 C36.5211464,55.5424593 37.3730196,56.2670723 38.3436696,56.7341274 C39.2792185,57.1842925 40.3255353,57.3944019 41.4083024,57.2722189 C43.4705023,57.0396021 44.8918742,55.9259388 46.4026374,54.4136027 C46.5899009,54.2226665 46.7772844,54.0257446 46.9655762,53.8256529 C47.0844862,53.6442708 47.2495035,53.5276964 47.4327174,53.4665318 C47.6361441,53.3986193 47.866267,53.4024617 48.0770421,53.4759123 C48.2803356,53.5467557 48.4620699,53.6810008 48.5839276,53.8596723 C48.6997435,54.029485 48.7654076,54.2392656 48.7441012,54.4805653 C48.6058184,56.0478541 47.785247,57.4465926 46.6196595,58.5448977 C45.3251257,59.7647059 43.6091266,60.6085773 41.9935885,60.9045495 C40.2137398,61.2305742 38.4001214,60.9969962 36.7578944,60.328009 L36.7578944,60.328009 Z M42.8332164,36.1495355 C44.7267922,37.2988829 47.6120202,39.9789369 45.5749685,42.8283092 C43.1771637,45.3406948 39.7248663,42.4600731 38.023634,41.15728 C36.4461716,40.1476081 34.6738043,42.7444087 36.1373747,43.9233709 C48.4305154,53.011698 53.4193322,36.4500738 43.7909606,34.7981847 C42.7308423,34.6161536 42.3371117,35.7939723 42.8332164,36.1495355 Z M20.8037905,25.5774586 C21.0130058,22.9842471 24.9681444,22.3953754 25.3615852,24.9614746 C25.7139016,27.2601466 25.2991463,29.3717698 24.262258,31.4413258 C23.2715094,33.4184842 20.7813432,32.4960467 20.5930232,30.6956707 C20.3405881,28.2823415 20.6736466,27.1905845 20.8037905,25.5774586 Z M50.9108385,24.4293996 C51.4622574,23.7082476 52.2584171,23.2159612 53.2123042,23.4941556 C56.1925744,24.3637948 55.3141658,28.588794 54.2674979,30.6453292 C53.6987766,31.7621132 51.8604627,32.0453156 51.0296982,31.0619948 C49.6755999,29.4584332 49.0271372,26.2560676 50.7485974,24.6765444 C50.7952386,24.594914 50.8471457,24.5125324 50.9108385,24.4293996 Z M24.2202809,14.2303572 L24.6910485,14.148077 C26.1474061,13.896564 27.9582193,13.6548879 28.9884625,14.8240556 C29.5348662,15.444046 29.7229355,16.5963868 28.9884625,17.1898348 C27.6965523,18.2340028 26.2682293,17.8293564 24.7200435,17.9177476 C23.444182,17.9908644 22.2179707,18.2017012 20.989001,18.5525116 C18.2928407,19.3219908 16.0959415,20.7267348 13.793222,22.2691988 C13.4910575,22.471522 13.182624,22.0856556 13.3268104,21.8034548 C14.6560836,19.2035516 17.2321304,17.06789 19.81244,15.7660604 C21.1896082,15.0712004 22.6966695,14.4947796 24.2202809,14.2303572 Z M48.1940849,13.0657186 L48.5544079,13.1393565 C52.475585,13.9578161 57.5701119,15.5927563 59.4269784,19.4387638 C59.4977336,19.9826029 59.422974,20.0991585 59.3621811,20.1753092 L59.3419403,20.2006496 C59.2918468,20.2656779 59.2518761,20.3553191 59.0158148,20.4293365 C58.9503078,20.4137511 58.8841487,20.3972441 58.8172889,20.3797477 C57.9661338,20.1570104 57.2927054,19.8501586 56.6407554,19.5317631 L55.9338762,19.1840077 C55.1137551,18.7824617 54.286393,18.39553 53.409579,18.1098824 C51.5383829,17.5004226 49.6136967,17.0710962 47.6591912,16.8418457 C47.2355672,16.7921997 46.8276439,16.6494314 46.5058217,16.4047497 C46.2003479,16.1724977 45.9669855,15.8509394 45.8605853,15.4235184 C45.7226908,14.8703673 45.7623187,14.4515865 46.0595335,13.9525632 C46.2830208,13.5778074 46.6027952,13.3180527 46.9699772,13.1688927 C47.3443033,13.0168305 47.7704699,12.9809819 48.1940849,13.0657186 Z" id="ðŸ–-Ink"></path>
                    </g>
                    <g id="facial-hair/*-None" transform="translate(30.843352, 84.635200)"></g>
                    <g id="accessories/*-None" transform="translate(11.785671, 60.346400)"></g>
                </g>
            </g>
        </g>
    </g>
</svg>