<svg xmlns="http://www.w3.org/2000/svg" width="433.311" height="626" viewBox="0 0 433.311 626">
  <g id="peep-sitting-1" transform="translate(20.311)">
    <g id="BODY" transform="translate(-20.311 159.505)">
      <path id="_Skin" data-name="âœ‹ Skin" d="M333.349,374.335c-7.443-10.577-23.131-12.328-33.209-19.741-5.309-4.066-10.928-6.756-15.054-12.23,6.569-7.709-1.555-25.779-3.227-36.214-6.625-27.321-12.752-55.079-20.631-82.369,13.655,4.246,10.1-21.175,8.147-27.053-.135-.808-1.137-.969-1.751-1.224.172-1.154.645-1.407-.79-1.726-.48-6.916,1.479-14.661-2.061-20.771-3.991-6.669-13.531-12.25-21.414-12.342-5.537-21.963-6.552-32.321-32.785-23.012a8.536,8.536,0,0,0-.25-6.262c-3.945-11.906-8.9-24.93-13.213-37C192.142,80.512,187,66.155,180.359,52.815c-4.628-8.472-19.107-10.736-28.921-9.334-2.341-4.125-8.242-15.536-15.708-12.9q-.084-5.162-.154-10.325c-.039-2.992.277-6.059-.875-8.9-1.22-3.009-3.7-4.6-6.622-5.749C119.247,2.7,109.1-1.985,99.781.911c-8.143,3.712-7.194,17.668-11.135,25.255-5.522-8.178-14.939-2.695-16.932,6.076C49.03,41.273,29.531,31.014,28.08,66.466c1.251,6.463,2.314,12.525,1.721,19.05l-.686.07C23.309,117,21.076,150.671,22.479,185.677c-.281,13.783-5.31,26.647-10.173,39.085-3.577,9.146-7.271,18.6-9.022,28.305-1.942,8.081-9.079,46.942,6.792,34.041.608,44.211,40.054,49.871,75.575,40.106,37.709-7.83,80.16-5.579,103.7-43.457,7.984,13.646,10.738,22.071,12.743,36.34,2.2,10.453,5.393,22.325,11.264,29.239-5.055,9.088-7.531,20.158-7.287,27.373.1,2.834-1.2,4.147.663,5.908,8.948,8.451,28.911,8.546,44.091,12.309,10.409,1.323,48.045,6.385,53.8,3.085,4.011,1.12-.654-9.306,3.358-9.529,1.372.01,1.556-1.735,2.965-1.671,9,.409,28.393,3.051,23.7-4.194Z" transform="translate(44.886 -13.522)" fill="#d08b5b"/>
      <path id="_Shoes" data-name="ðŸ‘Ÿ Shoes" d="M88.036,59.507c-22.78-.863-54.324-7.262-76.511-12.069C5.763,46.357,1.666,43.35.466,40.8-.077,39.64.1,37.553.621,35.116,1.042,33.16-.2,30.979.029,28.873a32.17,32.17,0,0,1,3.415-9.644C5.536,15.687,6.968,6.648,7.124,6.743c2.784,1.7,5.94,2.433,9.189,3.341.042.012.836,2.027.878,2.038l.043.121a10.208,10.208,0,0,0,3.437,4.672c1.526,1.362,3.315,1.341,5.239,1.586,4.775.608,7.859-1.749,12.39-4.881l.336-.009c.5-.011,1.023-.01,1.55-.009,2.656.005,5.535.032,7.59-1.635q.083-.067.162-.137.074.071.155.138a2.7,2.7,0,0,0,.311.22c.456-.27.9-.542,1.349-.813,1.508-.917,5.637-3.226,5.674-3.164,1.245,2.1,21.568-9.721,23.331-8.05C81.016,2.3,86.136,10.453,93.7,13.969c13.393,6.225,22.671,10.732,29.692,15.991s3.321,8.468,4.012,8.764c1.755.751,1.09,6.2,1,7.011-.076.714-9.777,1.923-15.8,1.753-6.824-.193-10.1-1.773-10.711-.852-2.457,3.348-.824,10.618-.824,10.618A18.373,18.373,0,0,1,88.036,59.507Z" transform="translate(250.99 326.86)" fill="#fff"/>
      <path id="_Pants" data-name="ðŸ‘– Pants" d="M245.635,219.488h0l-.886-.049-.926-.046c-.873-.041-1.843-.08-3.052-.122l-.995-.034-3.632-.117-1.553-.055-1.085-.043c-3.822-.158-6.631-.36-9.391-.675a54.78,54.78,0,0,1-11.668-2.456l-.241-.084-.34-.122a30.338,30.338,0,0,1-4.216-1.894,23.089,23.089,0,0,1-3.556-2.393,19.278,19.278,0,0,1-2.87-2.92,18.452,18.452,0,0,1-2.16-3.473l-.1-.2-.095-.239-.073-.191a49.328,49.328,0,0,1-1.8-6.708c-.587-2.768-1.237-6.315-2.045-11.163L193.9,180.08l-.189-1.111c-.118-.683-.218-1.235-.3-1.686a69.474,69.474,0,0,0-4.442-13.995,127.265,127.265,0,0,0-8.039-15.295,3.663,3.663,0,0,0-1.191-1.288l-.043-.024.427.772-.557,1.029a56.905,56.905,0,0,1-5.677,8.524,59.611,59.611,0,0,1-7.121,7.4,68.632,68.632,0,0,1-8.523,6.341,84.75,84.75,0,0,1-9.883,5.334c-10.779,4.956-23.49,8.449-40,10.994l-.479.073-.475.063c-3.578.483-11.771,1.825-19.923,3.264-9.087,1.6-15.157,2.805-16.236,3.212l-.068.028-.2.089-.22.038c-4.99.875-9.3,1.5-13.19,1.918a104.357,104.357,0,0,1-11.152.645c-.453,0-.911,0-1.361-.011l-.252,0c-9.086-.179-16.514-1.934-22.708-5.367a35.483,35.483,0,0,1-7.612-5.662,38.033,38.033,0,0,1-3.27-3.636,42.606,42.606,0,0,1-2.911-4.19,49.843,49.843,0,0,1-2.552-4.757c-.788-1.676-1.526-3.472-2.193-5.337s-1.285-3.866-1.832-5.93S.669,157.244.241,154.977l-.1-.555L0,153.665l.433-.636c.3-.44.578-.829.933-1.3l.242-.32.684-.89.214-.274.143-.181.9-1.109c2.018-2.51,4.115-5.2,7.013-9l1.347-1.768,3.226-4.245c5.12-6.732,8.647-11.176,11.8-14.859a120.633,120.633,0,0,1,9.868-10.345l.448-.414.962-.813c1.8-1.519,3.722-3.1,6.218-5.14l1.784-1.452,5.244-4.256,1.7-1.388c7.659-6.263,12.176-10.2,16.666-14.516l.155-.149c3.278-3.16,6.141-6.181,8.753-9.234a98.309,98.309,0,0,0,7.157-9.412l.254-.383.036-.048a28.06,28.06,0,0,0,2.624-4.85l.812-1.794,1.912.768a48.7,48.7,0,0,0,5.447,1.8,60.617,60.617,0,0,0,5.995,1.274,123.1,123.1,0,0,0,14.8,1.329l14.11.553c7.808.3,13.192.488,18.586.649l1.8.053,2.785.078.929.04.533.761a6.613,6.613,0,0,0,2.037,1.806,15.288,15.288,0,0,0,3.285,1.418l.274.085a45.962,45.962,0,0,0,7.445,1.443l.214.028,2.594.33.545.072.414.057.5.072.234.035.016-.018a.792.792,0,0,0,.089-.133l.023-.048.015-.037c.64-1.836,1.332-3.76,2.058-5.718l.218-.587a1.762,1.762,0,0,1,.03-.51.792.792,0,0,1,.551-.648,4.457,4.457,0,0,1,1.078-.1,33.364,33.364,0,0,1,4.794.554,28.486,28.486,0,0,0,4.388.328,37.6,37.6,0,0,1,5.733.453l4.741.812,8.914,1.523,5.04.878.464.082.237.186.082.029.093.03.108.033.121.036c.346.1.82.219,1.448.366l.7.159,1.1.246.074.017c1.223.273,2.745.612,3.4.764l.541.127.7.169a30.634,30.634,0,0,1,5.723,1.807l.079.039.075.038.026.011a19.072,19.072,0,0,1,2.523,1.286,31.456,31.456,0,0,1,2.77,1.9c1.844,1.4,4.082,3.313,7.257,6.22l.366.336,2.34,2.155c2.741,2.519,4.675,4.212,6.272,5.492a28.779,28.779,0,0,0,4.4,3.009l.162.085,1.2.612.119,1.146.024.214.027.222c.114.919.289,1.907.6,3.411l.069.328.324,1.519.1.492.072.349c.152.751.267,1.376.362,1.967l.03.191,1.755,8.175c1.416,6.57,2.982,13.771,4.928,22.663l1.429,6.523,6.8,31.008,1.645,7.541.691,3.181.11.548.07.334c.113.53.252,1.133.464,2.019l.321,1.33.35,1.444.17.711.167.709a80.553,80.553,0,0,1,1.627,8.639,29.284,29.284,0,0,1,.113,6.67c-.509,4.8-2.565,8.089-6.112,9.777l-.056.026-.042.023-.2.1a12.182,12.182,0,0,1-3.039,1.115,33.312,33.312,0,0,1-4.218.6l-1.1.1-.141.015-.163.02a48.391,48.391,0,0,0-5.405,1.121l-.3.081-.289.081a18.615,18.615,0,0,0-2.321.8c-.151.067-.287.132-.4.194l-.062.034-.031.2-.55.453a26.6,26.6,0,0,1-5.644,3.575l-.231.109-.429.2ZM241.173,45.093h0L237.1,43.565A44.8,44.8,0,0,0,231.993,42c-1.77-.434-3.633-.794-5.7-1.1l-.567-.082-.431-.06a13.954,13.954,0,0,1-2.858-.765,18.332,18.332,0,0,0-5.337-1.153l-.693-.048-2-.138-2.636-.185,0-.022-4.351-.293-.748-.056-.178-.015c-.131-.012-.216-.02-.285-.029s-.122-.016-.179-.027l-.394-.074-.152-.03c-.1-.02-.182-.039-.251-.058l-.069-.02-.311-.038a41.749,41.749,0,0,1-7.091-1.545c-2.207-.671-4.278-1.453-6.282-2.209l-.048-.018-.49-.185-.254-.1-.244-.094-2.152-.851-.593-.828c.023-.047.048-.1.074-.158a2.752,2.752,0,0,0,.153-.42l.009-.037,0-.026-.032-.029a5.144,5.144,0,0,0-.612-.433l-.122-.077-.773-.475-.253-.157-.233-.148c-.117-.075-.223-.145-.326-.213l-.173-.117-.152-.095c-.917-.569-1.765-1.185-2.584-1.781a14.842,14.842,0,0,0-4.2-2.451l-.153-.043-.129-.035-.088-.02a7.154,7.154,0,0,0-1.478-.152,5.46,5.46,0,0,0-1.055.093l-.1.022-.093.023a1.981,1.981,0,0,0-.3.1l-.034.016-.026.014-3.979,2.03a.539.539,0,0,0-.093-.146l-.009-.009,0,0-.337-.108a55.169,55.169,0,0,0-6.014-1.465l-.793-.156-2.912-.56-.6-.119c-1.064-.21-1.848-.376-2.624-.554l-.579-.135-4.358-.911-5.415-1.12-13.133-2.712-5.95-1.246,3.847-2.478.524-.336c2.016-1.284,4.068-2.505,6.1-3.631l.588-.324.03-.015a96.081,96.081,0,0,1,22.469-8.083A81.105,81.105,0,0,1,170.1,1.924a74.275,74.275,0,0,1,8.232-.466,69.4,69.4,0,0,1,6.973.349l.46.048.094.02a8.391,8.391,0,0,1,3.158,1.355,11.859,11.859,0,0,1,2.6,2.615l.112.15,2.32-.644c1.047-.294,1.763-.5,2.127-.616l.161-.052,2.236-.77c3.165-1.087,5.46-1.814,7.444-2.356a46.813,46.813,0,0,1,5.88-1.244A29.536,29.536,0,0,1,216.018,0a19.285,19.285,0,0,1,4.677.537,14.277,14.277,0,0,1,4.025,1.678l.133.083.141.089.123.113a18.355,18.355,0,0,1,3.049,3.619,23.643,23.643,0,0,1,2.229,4.472l.129.343.085.232a58.369,58.369,0,0,1,2.137,8.237l.376,1.816.151.711a45.939,45.939,0,0,0,1.57,5.921l.055.156.016.054a112.036,112.036,0,0,0,3.91,11.411l.134.323,2.214,5.3Z" transform="translate(53.412 120.693)" fill="#ffcf77"/>
      <path id="_Jacket" data-name="ðŸ§¥ Jacket" d="M155.727,145.09c-.13-.027-3.211-.659-6.555-1.426-1.982-.455-3.653-.864-4.967-1.217a20.183,20.183,0,0,1-3.225-1.05l-.09-.047.006-.022c.175-.672,1.1-4.235,2.251-8.349,2.1-7.525,3.306-11.1,3.95-12.771a90.773,90.773,0,0,1,6.621-12.972c.509-.858.845-1.424.916-1.608l.663-1.751,1.156-.119c.084-.009.162-.015.237-.02l.163-.012h.008c.228-.017.541-.041.933-.041a13.37,13.37,0,0,1,5.221,1.206c2.119.91,7.949,4.619,8.007,4.657l-.806,1.621c-1.055,2.125-3.409,7.278-8.631,19.756-3.08,7.36-5.744,13.891-5.856,14.165h0ZM78.555,91.921a3.614,3.614,0,0,1-1.858-.665,12.559,12.559,0,0,1-2.17-1.834,40.34,40.34,0,0,1-4.747-6.2,72.854,72.854,0,0,1-4.41-7.95,50.573,50.573,0,0,1-3.017-7.754,15.722,15.722,0,0,1-.714-4.462,2.814,2.814,0,0,1,1.051-2.5,2.152,2.152,0,0,1,1.136-.307c1.455,0,3.385,1.239,5.582,3.582a46.857,46.857,0,0,1,6.066,8.458,48.192,48.192,0,0,1,4.617,10.607,19.023,19.023,0,0,1,.763,4.6,6.49,6.49,0,0,1-.709,3.418A1.8,1.8,0,0,1,78.555,91.921ZM156.078,64.99c-1.086,0-2.214-.7-3.35-2.076a22.4,22.4,0,0,1-3.059-5.381,55.148,55.148,0,0,1-2.49-7.412,70.577,70.577,0,0,1-1.643-8.172,54.016,54.016,0,0,1-.508-5.813,29.776,29.776,0,0,1,.228-5.007,11.117,11.117,0,0,1,1.079-3.677,3.452,3.452,0,0,1,2.043-1.824,2.617,2.617,0,0,1,.71-.1c1.094,0,2.223.694,3.357,2.062a22.036,22.036,0,0,1,3.043,5.348,53.784,53.784,0,0,1,2.466,7.374,70.782,70.782,0,0,1,1.625,8.141,54.912,54.912,0,0,1,.509,5.859,30.435,30.435,0,0,1-.224,5.048,11.311,11.311,0,0,1-1.069,3.7,3.409,3.409,0,0,1-2.026,1.828A2.554,2.554,0,0,1,156.078,64.99ZM13.465,61.806A3.175,3.175,0,0,1,11.3,60.491a18.043,18.043,0,0,1-2.269-3.465,79.274,79.274,0,0,1-4.37-10.515C2,38.913.02,31.292,0,31.216L2.408,21.05l.006.012c.453.988,4.52,9.917,7.955,19.143a105.5,105.5,0,0,1,4.31,13.8,21.044,21.044,0,0,1,.592,5,5.1,5.1,0,0,1-.3,1.655,1.787,1.787,0,0,1-.777.951A1.511,1.511,0,0,1,13.465,61.806ZM54.182,16.418A4.659,4.659,0,0,1,50.45,14.6a13.382,13.382,0,0,1-1.971-3.092,41.456,41.456,0,0,1-2.32-6.564v0c-.147-.519-.263-.929-.357-1.209-.171-.511.915-1.671,1.787-2.6A8.589,8.589,0,0,0,48.548.016.03.03,0,0,1,48.576,0c.08,0,.3.206.63.518A19.385,19.385,0,0,0,51.858,2.68a11.875,11.875,0,0,0,4.464,1.843,22.006,22.006,0,0,0,3.841.294c1.945,0,3.954-.171,5.845-.346l.508-.047c1.648-.154,3.2-.3,4.439-.3a5.168,5.168,0,0,1,2.419.4c.36.2.363,1.659.206,3.013-.151,1.3-.485,2.748-.862,2.857h-.01a3.6,3.6,0,0,1-.476-.121c-.308-.088-.729-.207-1.237-.329a14.727,14.727,0,0,0-3.377-.45,6.427,6.427,0,0,0-2.769.539,21.155,21.155,0,0,0-4.183,2.958,26.5,26.5,0,0,1-3.133,2.364,8.207,8.207,0,0,1-1.63.772A5.354,5.354,0,0,1,54.182,16.418Zm66.54-2.567h0a.443.443,0,0,1-.108-.01,2.379,2.379,0,0,1-.82-1.09,5.366,5.366,0,0,1-.531-2.469,10.985,10.985,0,0,1,.808-3.5,8.5,8.5,0,0,1,1.266-2.326,5.665,5.665,0,0,1,2.279-.983c1.025-.286,2.338-.571,3.9-.849a55.868,55.868,0,0,1,6.36-.821.954.954,0,0,1,.154.009,7.736,7.736,0,0,1,1.687,2.134,11.776,11.776,0,0,1,.968,1.927,4.862,4.862,0,0,1,.38,1.906,3.352,3.352,0,0,1-1.5,2.492,4.158,4.158,0,0,1-1.91.835.27.27,0,0,1-.1-.016C133.084,11.2,122.1,13.851,120.722,13.852Z" transform="translate(71.566 42.302)" fill="#fff"/>
      <path id="_Top" data-name="ðŸ‘• Top" d="M31.405,74.5a117.292,117.292,0,0,1-11.882-2.412c-.507-1.013-4.369-15.972-4.369-15.972Q11.957,44.771,8.831,33.4C5.968,23.052.05.772,0,.6A61.188,61.188,0,0,0,18,4.089C26.671,4.187,38.918.034,38.964,0c.033.112,22,60.37,21.9,60.4a101.85,101.85,0,0,0-15.6,6.114A123.069,123.069,0,0,0,31.405,74.5Z" transform="translate(153.774 63.269)" fill="#fff"/>
      <path id="_Ink" data-name="ðŸ– Ink" d="M294.141,396.053h0c-3.69,0-8.017-.245-12.859-.727-4.152-.413-8.81-1.014-13.847-1.786-9.219-1.413-18.05-3.135-24.5-4.393-2.113-.412-3.938-.768-5.449-1.049-7.175-1.6-14.8-3.355-22.248-5.732a14.36,14.36,0,0,1-4.636-2.046,10,10,0,0,1-3.4-3.655,6.084,6.084,0,0,1-.665-2.477,6.162,6.162,0,0,1,.537-2.737,13.576,13.576,0,0,1-.917-2.349,12.907,12.907,0,0,1-.434-2.323,15.273,15.273,0,0,1,.3-4.581,44.142,44.142,0,0,1,3.356-9c.779-1.707,1.584-3.47,2.23-5.209a22.826,22.826,0,0,0,1.352-5.24,12.872,12.872,0,0,0-1.773-1.813,13.573,13.573,0,0,0-2.1-1.445l.008-.015v0l.005-.01a18.644,18.644,0,0,1-2.279-3.358,19.1,19.1,0,0,1-1.555-3.987c-.987-3.462-2.181-10.708-3.234-17.1l0-.01c-.708-4.3-1.378-8.362-1.892-10.718a61.834,61.834,0,0,0-1.661-6.022c-.63-1.91-1.379-3.889-2.227-5.88a110.445,110.445,0,0,0-5.751-11.43,59.5,59.5,0,0,1-14.131,15.824,77.068,77.068,0,0,1-8.834,6.053,88.686,88.686,0,0,1-9.5,4.841,107.365,107.365,0,0,1-11.825,4.374c-3.77,1.16-7.745,2.191-12.152,3.151-8.185,1.784-16.651,3.044-24.838,4.263h0c-7.273,1.083-14.793,2.2-22.079,3.684-.485.122-1.008.249-1.645.4-.715.236-1.451.467-2.186.686a15.477,15.477,0,0,1-4.2.73h-.154c-3.751.726-7.428,1.282-10.929,1.653a99.909,99.909,0,0,1-10.461.578c-13.275,0-23.98-3.052-31.816-9.071a35.305,35.305,0,0,1-5.694-5.492,37.675,37.675,0,0,1-4.541-6.968,45.994,45.994,0,0,1-3.264-8.538,61.882,61.882,0,0,1-1.862-10.2,1,1,0,0,1-.349.063,1.092,1.092,0,0,1-.318-.049c-.226-.069-.461-.149-.7-.239-.986-.34-1.814-.647-2.6-.967-.065,0-.131,0-.2,0a4.859,4.859,0,0,1-3.659-1.616,9.5,9.5,0,0,1-2.092-4.163,15.826,15.826,0,0,1-.443-4.8c-.039-2.269.009-4.615.143-6.974C.3,265.934.512,263.6.8,261.244A133.971,133.971,0,0,1,3.245,247.51c.426-2.356.967-4.735,1.653-7.273.611-2.262,1.325-4.6,2.182-7.144,1.592-4.73,3.447-9.475,5.241-14.064,2.411-6.166,4.9-12.543,6.777-18.935a89.238,89.238,0,0,0,2.3-9.7,65.038,65.038,0,0,0,1.006-9.985c-.343-8.583-.472-17.187-.381-25.572.093-8.589.417-17.186.965-25.554.561-8.567,1.371-17.13,2.408-25.451,1.061-8.514,2.389-17.014,3.947-25.263a117.037,117.037,0,0,0,6.141,18.386c1.387,3.389,2.877,6.8,4.318,10.1l.044.1c.292.668.593,1.358.889,2.036a.59.59,0,0,0,.553.393.853.853,0,0,0,.684-.394.775.775,0,0,0,.063-.757c-.3-.691-.618-1.418-.874-2C38.276,99.822,35.29,92.985,33.024,86a80.845,80.845,0,0,1-2.794-10.626c-.339-1.907-.6-3.859-.856-5.747v0c-.185-1.373-.376-2.792-.6-4.192-.191-1.215-.432-2.653-.768-4.107a48.392,48.392,0,0,1,.731-8.77,40.256,40.256,0,0,1,2.412-8.282,28.619,28.619,0,0,1,2.31-3.984,22.449,22.449,0,0,1,2.609-3.107A20.4,20.4,0,0,1,42.04,33.1a26.173,26.173,0,0,1,3.289-1.232c1.06-.322,2.186-.6,3.444-.86,2.339-.477,4.7-.783,7.208-1.107,5.294-.685,10.768-1.394,15.884-3.832a18.6,18.6,0,0,1,3.2-6.308A11.478,11.478,0,0,1,77.6,17.446a11.159,11.159,0,0,1,3.349-1.478,10.76,10.76,0,0,1,2.322-.256,8.958,8.958,0,0,1,3.407.635,6.708,6.708,0,0,1,2.759,2.038c.042-.111.087-.232.135-.368.3-.843.6-1.7.892-2.532l.005-.015A127.367,127.367,0,0,1,96.6.165.3.3,0,0,1,96.878,0a.386.386,0,0,1,.277.116.288.288,0,0,1,.08.22,127.475,127.475,0,0,1-2.374,16.3c-.173.912-.37,1.945-.555,2.943-.072.381-.128.789-.188,1.222a14.121,14.121,0,0,1-.6,2.857,3.5,3.5,0,0,1-1.694,2.083,2.7,2.7,0,0,1-1.144.3c1.822,2.786,3.94,6.643,5.487,9.459l0,0c1,1.818,1.72,3.132,1.947,3.4,2.728,4.791,4.969,8.778,7.051,12.55.094.162.2.333.276.47l.015.026c.073.124.149.252.223.378,2.231,3.065,2.911,6.58,3.631,10.3v.006c.21,1.084.427,2.2.686,3.325.464,1.6.921,3.171,1.357,4.68,2.637.781,4.842,1.418,7.207,1.916a50.432,50.432,0,0,0,10.115,1.031,48.523,48.523,0,0,0,8.191-.692,45.732,45.732,0,0,0,7.948-2.109,2.992,2.992,0,0,1,1.089-.238c-1.44-5.182-2.572-9.852-3.461-14.276a130.781,130.781,0,0,1-2.134-14.505,2.151,2.151,0,0,1-1.474-1.072,35.164,35.164,0,0,1-4.529-15.367A33.823,33.823,0,0,1,137.062,9.56a.287.287,0,0,1,.277-.165.4.4,0,0,1,.293.125.264.264,0,0,1,.067.213,51.974,51.974,0,0,0,.133,14.068,6.592,6.592,0,0,1,1.516-.178,7.136,7.136,0,0,1,2.189.357,9.773,9.773,0,0,1,2.088.979,17.836,17.836,0,0,1,3.8,3.277,36.67,36.67,0,0,1,3.172,4.123c1,1.488,1.845,2.924,2.395,3.874.133.24.24.439.338.626a39.448,39.448,0,0,1,4.552-.249,59.192,59.192,0,0,1,5.944.321,33.069,33.069,0,0,1,5.457.9,27.157,27.157,0,0,1,5.2,1.891,21.255,21.255,0,0,1,4.575,2.992,17.851,17.851,0,0,1,3.579,4.211c1.608,3.225,3.158,6.561,4.74,10.2,1.409,3.239,2.811,6.644,4.286,10.41,2.739,6.995,5.316,14.2,7.809,21.162,2.11,5.9,4.293,12,6.561,17.933,2.248,6.263,4.282,12.082,6.219,17.791.133.427.286.857.434,1.272h0a17.839,17.839,0,0,1,.713,2.332,5.863,5.863,0,0,1,.038,2.422,42.606,42.606,0,0,1,13.653-2.652,18.611,18.611,0,0,1,4.981.608,9.638,9.638,0,0,1,3.852,2,13.625,13.625,0,0,1,2.33,2.419,18.481,18.481,0,0,1,1.761,2.87,34.724,34.724,0,0,1,2.321,6.335c.46,1.724.9,3.465,1.334,5.149v.005c.587,2.3,1.194,4.677,1.837,7a22.893,22.893,0,0,1,6.078,1.222,31.623,31.623,0,0,1,6.083,2.814,31.2,31.2,0,0,1,5.384,4.023,22.368,22.368,0,0,1,3.98,4.849,15.691,15.691,0,0,1,1.484,3.509,20.711,20.711,0,0,1,.695,3.669,55,55,0,0,1,.075,7.585v0c-.068,1.885-.138,3.835-.057,5.711a1.347,1.347,0,0,1,.707.5,1.736,1.736,0,0,1,.306,1.357,2.431,2.431,0,0,1,1.507,1.643A39.918,39.918,0,0,1,273,196.453a54.9,54.9,0,0,1,.7,6.913c.142,3.936-.139,9.411-2.285,13.143a8.744,8.744,0,0,1-2.082,2.5,7.058,7.058,0,0,1-2.913,1.388,4.955,4.955,0,0,1-.633.04,6.558,6.558,0,0,1-1.529-.195c.247.8.455,1.534.606,2.071v0c.05.176.1.342.134.473,2.653,9.729,5.408,20.407,8.423,32.642,2.69,10.914,5.333,22.029,7.889,32.778l.008.035c.965,4.06,1.964,8.257,2.95,12.384.354,2.171,1.122,5.046,2.013,8.374a126.01,126.01,0,0,1,3.344,14.908,33.007,33.007,0,0,1,.323,6.925,15.92,15.92,0,0,1-.486,2.959,9.682,9.682,0,0,1-1.036,2.482c-.05.074-.1.147-.156.218l-.091.126a13.91,13.91,0,0,1,3.8,2.254,44.542,44.542,0,0,1,3.317,3.062,34.918,34.918,0,0,0,4.237,3.757,18.819,18.819,0,0,0,2.886,2.3,40.24,40.24,0,0,0,3.685,2.15c2.671,1.4,5.66,2.707,8.825,4.1,5.2,2.283,10.586,4.643,14.657,7.485a25.283,25.283,0,0,1,2.785,2.229,15.72,15.72,0,0,1,2.157,2.448,10.729,10.729,0,0,1,1.389,2.706,9.234,9.234,0,0,1,.483,3,1.782,1.782,0,0,1,.938,1.284c.775,3.729.544,6.384-.685,7.892a3.717,3.717,0,0,1-1.447,1.078,5.662,5.662,0,0,1-2.212.4l-.18,0a94.079,94.079,0,0,1-10.967.83,32.771,32.771,0,0,1-10.213-1.43,13.936,13.936,0,0,1-2.672,3.686,1.061,1.061,0,0,1,.831.383,2.873,2.873,0,0,1,.36,1.94,22.632,22.632,0,0,1-.374,2.6v0a10.627,10.627,0,0,0-.284,2.326,11.15,11.15,0,0,1-2.7,1.364,22.175,22.175,0,0,1-3.543.916A52.559,52.559,0,0,1,294.141,396.053ZM207.983,372.9a5.733,5.733,0,0,0,.468,1.9,6.251,6.251,0,0,0,1.028,1.592,8.777,8.777,0,0,0,1.476,1.321,13.587,13.587,0,0,0,1.812,1.086,40.36,40.36,0,0,0,8.374,2.717c.691.168,1.343.327,1.931.483,5.2,1.382,10.529,2.669,15.825,3.826,5.262,1.149,10.638,2.2,15.98,3.125,5.309.919,10.727,1.737,16.1,2.432,5.344.691,10.791,1.278,16.189,1.746,2.654.216,5.508.417,8.394.417a47.807,47.807,0,0,0,5.716-.315,33.15,33.15,0,0,0,5.608-1.141c.1-1.424.219-3.109.353-4.8a17.961,17.961,0,0,1-4.575,2.143,17.133,17.133,0,0,1-5.019.764,15.483,15.483,0,0,1-4.235-.581c-1.855.088-3.772.133-5.7.133-4.111,0-8.308-.2-12.831-.6-4.024-.358-8.212-.872-12.8-1.572-8.521-1.3-17.116-3.048-25.429-4.74h-.009c-3.177-.647-6.462-1.315-9.676-1.945-1.03-.232-2.065-.439-3.16-.659a52.682,52.682,0,0,1-8.7-2.263,18.869,18.869,0,0,1-3.892-2.014,13.848,13.848,0,0,1-3.229-3.049Zm81.079,11.738a21.536,21.536,0,0,1,4.7.669h0c.93.2,1.891.413,2.881.548.384.031.775.047,1.163.047a13.59,13.59,0,0,0,5.28-1.039,10.855,10.855,0,0,0,2.32-1.337,9.388,9.388,0,0,0,1.892-1.915,11.09,11.09,0,0,0,1.835-4.389,7.473,7.473,0,0,0-.38-3.84,8.724,8.724,0,0,0-1.488-2.505,12.317,12.317,0,0,0-2.3-2.1,19.372,19.372,0,0,0-6.187-2.829c-2.425-.931-4.919-1.769-7.56-2.656-5.317-1.786-10.815-3.632-15.672-6.29a34.426,34.426,0,0,1-6.718-4.694,26.686,26.686,0,0,1-2.824-2.985,25.08,25.08,0,0,1-2.369-3.506c-1.72.821-3.093,1.618-4.3,2.321-2.942,1.708-5.066,2.942-9.384,2.942-.68,0-1.421-.031-2.2-.093a35.457,35.457,0,0,1-3.2,1.963,30.046,30.046,0,0,1-3.387,1.58,19.049,19.049,0,0,1-6.845,1.436,10.327,10.327,0,0,1-6.1-1.815,10.5,10.5,0,0,1-2.46-2.484,15.318,15.318,0,0,1-1.9-3.725,43.451,43.451,0,0,1-4.8-1.638,31.963,31.963,0,0,1-4.45-2.232,18.131,18.131,0,0,1-.342,6.133c-.424,2.08-1.08,4.183-1.715,6.217-1.531,4.91-2.978,9.547-.912,12.975a7.112,7.112,0,0,0,1.289,1.563,9.762,9.762,0,0,0,1.924,1.353,15.854,15.854,0,0,0,2.645,1.119,27.293,27.293,0,0,0,3.452.864c11.332,2.455,22.415,4.813,33.422,6.665,6.012,1.012,11.527,1.8,16.861,2.4,5.956.673,11.512,1.1,16.985,1.309C288.492,384.652,288.777,384.641,289.062,384.641Zm44.522-8.989h0c-5.325,1.844-11.128,2.468-16.741,3.071-1.351.145-2.747.3-4.107.46a13.97,13.97,0,0,1-.542,1.722c2.311-.192,4.672-.273,6.955-.35,2.179-.074,4.433-.151,6.641-.325a49.6,49.6,0,0,0,6.58-.916c.073-.014.2-.027.345-.043.473-.051,1.189-.129,1.343-.326a.052.052,0,0,1-.037.025c-.1,0-.112-.691-.116-.951v-.01c0-.047,0-.081,0-.1a15.594,15.594,0,0,0-.32-2.261ZM286.8,338.31a18.716,18.716,0,0,1-3.431,2.964,14.071,14.071,0,0,1-3.337,1.625,26.063,26.063,0,0,1-6.731,1.032,29.724,29.724,0,0,0-8.726,1.513,40.485,40.485,0,0,0,3.267,2.912c1.1.875,2.272,1.724,3.5,2.524a57.152,57.152,0,0,0,7.547,4.1,149.4,149.4,0,0,0,16.274,5.941c1.212.39,2.466.793,3.7,1.2a46.615,46.615,0,0,1,4.832,1.8A23.29,23.29,0,0,1,308.2,366.5a14.913,14.913,0,0,1,1.885,1.665,11.647,11.647,0,0,1,1.508,1.962,10.253,10.253,0,0,1,1.032,2.293,10.807,10.807,0,0,1,.458,2.66c4.856-.373,9.655-.915,14.263-1.614,3.486-.051,5.432-.758,5.784-2.1.21-.8-.064-2.255-2.558-4.663a28.26,28.26,0,0,0-2.816-2.352,31.907,31.907,0,0,0-2.823-1.865,64.952,64.952,0,0,0-6.4-3.5c-2.215-1.071-4.532-2.09-6.773-3.076h0a99.221,99.221,0,0,1-13.574-6.813,36.655,36.655,0,0,1-5.85-4.574,29.4,29.4,0,0,1-2.522-2.781,27.817,27.817,0,0,1-2.189-3.187,5.282,5.282,0,0,0-.822-.249ZM225.6,348.4h0a12.8,12.8,0,0,0,3.759,2.423,10.681,10.681,0,0,0,4.042.787,14.023,14.023,0,0,0,5.388-1.175l-.608-.068A96.986,96.986,0,0,1,225.6,348.4ZM163.076,203.463a.068.068,0,0,1,.07.059,30.2,30.2,0,0,1,.257,6.589v.021c-.018.532-.036,1.082-.046,1.611-.02,1.056-.057,2.13-.092,3.168q-.012.349-.024.7a57.7,57.7,0,0,0,1.027,6.336c.442,2.017,1.006,4.085,1.676,6.148a85.31,85.31,0,0,0,4.932,11.844c1.735,3.469,3.837,7.208,6.425,11.429,2.307,3.763,4.783,7.559,7.177,11.23l0,.007c2.7,4.138,5.489,8.417,8.066,12.689,1.552,2.573,2.9,4.924,4.11,7.19,1.376,2.569,2.559,4.975,3.614,7.355,1.14,2.571,2.129,5.12,2.939,7.576a66.935,66.935,0,0,1,2.083,7.852c.279,1.455.631,3.6,1.039,6.09v0c1.178,7.179,2.79,17.01,4.387,20.991a16.3,16.3,0,0,0,2.663,4.019A18.519,18.519,0,0,0,217,339.44a25.274,25.274,0,0,0,4.384,2.258,37.34,37.34,0,0,0,4.95,1.578,68.346,68.346,0,0,0,10.81,1.648c3.675.3,7.254.417,10.715.527,2.555.081,4.967.158,7.1.307a27.615,27.615,0,0,0,5.332-3.242,9.665,9.665,0,0,0,.031-2.39,18.648,18.648,0,0,0-.381-2.3c-3.94-15.5-8.438-31.865-13.2-49.187v0c-6.608-24.038-13.442-48.9-18.943-72.221-.37-1.134-.68-2.306-.981-3.44v0c-.153-.576-.311-1.172-.473-1.749-.36-1.277-.734-2.559-1.1-3.8v-.005c-.508-1.74-1.034-3.54-1.516-5.318-.253-.933-.5-1.883-.744-2.8l-.006-.021c-.172-.654-.349-1.33-.529-2a8.209,8.209,0,0,0-.481-1.407,3.077,3.077,0,0,0-.819-1.079c-4.019-.708-8.109-1.4-12.064-2.079l-.01,0h0c-6.7-1.142-13.638-2.323-20.436-3.6-.958,2.549-1.825,4.937-2.648,7.3a2.393,2.393,0,0,1-2.039,1.692,1.624,1.624,0,0,1-.175-.009c-.854-.139-1.885-.269-2.977-.407h-.007a63.843,63.843,0,0,1-9.068-1.609,19.244,19.244,0,0,1-4.143-1.628,8.669,8.669,0,0,1-2.963-2.526c-10.773-.288-21.724-.72-32.315-1.138l-.051,0-4.43-.174a134.06,134.06,0,0,1-13.865-1.143,58.983,58.983,0,0,1-13.428-3.427,19.284,19.284,0,0,1-2.849,5.171c-1.224,1.851-2.553,3.713-3.951,5.534-1.333,1.736-2.771,3.492-4.276,5.219-2.778,3.188-5.833,6.351-9.341,9.671-6.515,6.165-13.635,11.939-20.52,17.522-3.676,2.981-7.476,6.062-11.135,9.164-8.662,7.982-15.854,17.448-22.809,26.6l-.625.823c-3.477,4.577-7.072,9.31-10.752,13.853-.308.379-.611.775-.933,1.193-.418.545-.849,1.107-1.3,1.649a84.456,84.456,0,0,0,2.7,10.88,57.687,57.687,0,0,0,3.675,8.854,42.16,42.16,0,0,0,4.564,7.006,34.78,34.78,0,0,0,5.368,5.335,33.694,33.694,0,0,0,6.088,3.841,38.25,38.25,0,0,0,6.724,2.524,48.954,48.954,0,0,0,7.275,1.385,67.5,67.5,0,0,0,7.741.422,104.9,104.9,0,0,0,11.709-.716c3.62-.405,7.624-1,12.243-1.8,3.223-1.4,6.586-2.658,9.838-3.876a141.4,141.4,0,0,0,14.476-6.045,27.82,27.82,0,0,0,4.3-2.592,38.7,38.7,0,0,0,3.832-3.211c2.432-2.3,4.682-4.9,6.858-7.414,1.247-1.442,2.536-2.931,3.834-4.333,3.3-3.884,6.542-7.951,9.639-12.086,3.054-4.08,6.046-8.334,8.893-12.645.76-1.653,1.408-3,2.04-4.225,1.964-3.817,3.908-7.7,5.789-11.46l.992-1.982c2.23-4.453,4.443-8.9,6.577-13.23,1.088-2.2,2.143-4.368,3.1-6.592.389-.9.763-1.869,1.112-2.866l0-.016c-.022-.091-.045-.184-.067-.277a25.827,25.827,0,0,1-.579-3.7c-.1-1.158-.146-2.383-.135-3.744a59.863,59.863,0,0,1,.675-7.784c.053-.382.106-.778.156-1.162l0-.035a33.156,33.156,0,0,1,1.541-7.368A.1.1,0,0,1,163.076,203.463Zm60.976-8.166h0a18.4,18.4,0,0,1,1.028,2.994c.09.32.192.684.295,1.025.5,1.668.965,3.318,1.39,4.852,8.518,23.852,16,52.16,23.228,79.535l.006.022c2.386,9.032,4.853,18.371,7.273,27.21,2.708,9.893,5.1,18.214,7.315,25.438a24.641,24.641,0,0,1,.664,3.919,11.852,11.852,0,0,1,3.239-1.051c1.125-.212,2.307-.322,3.449-.429a36.247,36.247,0,0,0,3.651-.466,11.716,11.716,0,0,0,3.443-1.2,7.868,7.868,0,0,0,2.487-1.783,8.525,8.525,0,0,0,1.588-2.495,12.78,12.78,0,0,0,.832-3.048,21.275,21.275,0,0,0,.217-3.444c-.057-4.785-1.376-10.213-2.436-14.575V311.8c-.4-1.659-.784-3.225-1.03-4.5-2.249-10.353-4.558-20.867-6.791-31.035l0-.02c-3.462-15.762-7.042-32.061-10.472-48.109-.192-1.256-.466-2.539-.732-3.78v0a49.521,49.521,0,0,1-.9-5.063,34.36,34.36,0,0,1-6.094-4.234c-2.134-1.769-4.379-3.838-6.549-5.839l0,0c-2.362-2.177-4.8-4.428-7.1-6.288a41.7,41.7,0,0,0-3.353-2.483,18.308,18.308,0,0,0-3.118-1.691,29.023,29.023,0,0,0-5.622-2.153c-2-.558-4.017-.953-5.894-1.3Zm-61.028,36.49h0c-1.156,3.426-2.529,6.839-3.857,10.139v0l-.029.072a191.031,191.031,0,0,1-8.427,18.332,199.463,199.463,0,0,1-10.292,17.378,207.188,207.188,0,0,1-25.477,31.279,23.742,23.742,0,0,1-4.385,3.633,35.887,35.887,0,0,1-5.011,2.69c4.549-.824,8.3-1.418,11.806-1.868a201.153,201.153,0,0,0,20.2-4.037c3.505-.908,6.876-1.916,10.018-3,3.4-1.167,6.644-2.46,9.651-3.841a83.008,83.008,0,0,0,9.051-4.83,67.53,67.53,0,0,0,8.217-5.965,58.148,58.148,0,0,0,7.149-7.244,54.686,54.686,0,0,0,5.847-8.668c-2.021-3.305-4.167-6.637-6.243-9.858l0,0c-3.438-5.337-6.993-10.855-10.053-16.372-1.647-2.969-3.024-5.7-4.211-8.36a72.54,72.54,0,0,1-3.238-8.578,6.928,6.928,0,0,1-.713-.906ZM10.166,284.3c-.056.044-.114.087-.17.128l0,0-.081.059.154.089.009.005.119.069c0-.055-.008-.109-.013-.168l0-.021C10.174,284.409,10.169,284.354,10.166,284.3Zm188.92-121.574c-1.039,2.609-2.1,5.228-3.117,7.762l-.006.015c-2.337,5.8-4.754,11.791-7,17.739,10.125.258,20.929,1.793,31.377,3.278,1.7.242,3.459.492,5.161.728a35.326,35.326,0,0,1,7.906,1.691,42.3,42.3,0,0,1,7.266,3.263,66.6,66.6,0,0,1,12.806,9.7,93.765,93.765,0,0,0,7.886,6.385c.2.143.416.3.642.473l0,0c1.008.756,2.15,1.613,3.159,1.613a1.49,1.49,0,0,0,.955-.333,2.808,2.808,0,0,0,.78-1.152c1.919-4.767,1.44-9.954.977-14.97l-.008-.086q-.035-.376-.069-.75c-.138-.986-.328-1.976-.511-2.933l0-.017c-.065-.341-.133-.694-.2-1.041a7.821,7.821,0,0,1-1.2-2.39c-.126-.345-.257-.7-.407-1.05a30.907,30.907,0,0,0-3.06-5.54,31.657,31.657,0,0,0-4.112-4.811,30.777,30.777,0,0,0-4.4-3.7,32.366,32.366,0,0,0-4.771-2.72,39.213,39.213,0,0,0-5.6-2.08,56.563,56.563,0,0,0-5.88-1.356c-3.995-.717-8.186-1.119-12.24-1.508h0c-1.41-.135-2.869-.275-4.3-.426a1.231,1.231,0,0,1-.513.1,1.76,1.76,0,0,1-.35-.037,3.531,3.531,0,0,1-.546-.22,81.052,81.052,0,0,1-10.675-1.8A39.842,39.842,0,0,1,199.085,162.725Zm-29.264,27.311h0a28.222,28.222,0,0,0,6.083,1.948c2.369.556,4.78,1,6.384,1.274.648-1.72,1.295-3.4,1.921-5l-.1-.021-.086-.017c.068,0,.138,0,.205,0,3.956-10.136,7.887-19.107,12.016-27.426-.274-.194-.6-.428-.909-.654-2.695-1.952-7.2-5.218-10.311-5.218-.089,0-.178,0-.262.008-1.229,3.273-2.709,6.516-4.14,9.653l0,.007c-.962,2.108-1.957,4.288-2.865,6.456a97,97,0,0,0-4.325,12.476v0c-.329,1.111-.669,2.259-1.02,3.4-.05.186-.105.372-.159.552-.091.3-.184.615-.252.935a1.984,1.984,0,0,1-.78,1.233,2.226,2.226,0,0,1-1.3.394Zm75.807-35.427a102.375,102.375,0,0,0,3.317,10.161,21.6,21.6,0,0,0,1.167,2.857,15.048,15.048,0,0,1,1.433,4.046,37.484,37.484,0,0,1,7.521,5.094,43.281,43.281,0,0,1,6.2,6.665c.039-.705.089-1.422.138-2.115a34.47,34.47,0,0,0-.208-9.483,21.194,21.194,0,0,0-7.26-11.286,27.688,27.688,0,0,0-5.816-3.733A28.38,28.38,0,0,0,245.628,154.61Zm-19.852-24.093a35.3,35.3,0,0,0-8.906,1.356c-3.026.8-5.978,1.818-8.832,2.8l-.014,0c-1.235.426-2.4.829-3.523,1.2l.293.469c.177.284.336.539.494.788,4.233,6.708,8.272,13.478,12.006,20.125.432.783.876,1.577,1.306,2.345l.012.022c1,1.783,2.029,3.626,2.988,5.466a2.874,2.874,0,0,1,.283.771l1.883.131.062,0c3.89.268,7.911.546,11.809,1.086,2.1.291,4,.632,5.8,1.044a48.432,48.432,0,0,1,5.671,1.646L247,169.5a111.513,111.513,0,0,1-4.323-12.435,62.923,62.923,0,0,1-2.1-8.266h0a61.024,61.024,0,0,0-2.288-8.843,22.021,22.021,0,0,0-1.923-4,16.27,16.27,0,0,0-2.853-3.464,12.222,12.222,0,0,0-3.648-1.523A17.315,17.315,0,0,0,225.777,130.516Zm-39.339,22.609h0a8.7,8.7,0,0,1,2.085.244,22.162,22.162,0,0,1,4.071,1.548,40.972,40.972,0,0,1,3.8,2.141c.426.294.834.544,1.229.786a6.124,6.124,0,0,1,1.96,1.553,1.8,1.8,0,0,1,.3,1.02,3.565,3.565,0,0,1-.357,1.411,49.716,49.716,0,0,0,8.795,2.475,90.253,90.253,0,0,0,9.062,1.2l-.071-.141-.059-.117c-.2-.391-.4-.8-.624-1.169-1-1.842-2.024-3.692-3.039-5.5-3.829-6.82-7.811-13.529-11.836-19.942-.139-.221-.282-.453-.409-.658-1.516-2.45-3.083-4.984-6.1-5.622a67.139,67.139,0,0,0-7.109-.375,72.2,72.2,0,0,0-8.091.463,79.007,79.007,0,0,0-8.005,1.334,93.941,93.941,0,0,0-21.962,7.9c-2.177,1.191-4.376,2.491-6.535,3.866,3.552.742,7.166,1.486,10.66,2.2l.041.009c4.291.883,8.729,1.8,13.107,2.718,1.744.415,3.542.758,5.281,1.09h0a71.194,71.194,0,0,1,8.857,2.087,2.158,2.158,0,0,1,1.279,1.332,2.042,2.042,0,0,1,1.339-1.47A6.27,6.27,0,0,1,186.438,153.126Zm-2.762,2.057h0a2.565,2.565,0,0,0-.767.521.047.047,0,0,1-.012.007c0,.081,0,.162-.005.253.267-.277.531-.54.785-.781Zm-71.394-81.33c2.954,10.327,5.866,20.853,8.683,31.032l.009.034c2.057,7.435,4.184,15.123,6.311,22.675l1.37,4.916,1.451,5.205a21.556,21.556,0,0,1,.6,2.2h0a18.366,18.366,0,0,0,.789,2.728,70.415,70.415,0,0,0,7.628,1.978c.757.161,1.535.323,2.262.475a65.609,65.609,0,0,1,7.8-5.339,71.152,71.152,0,0,1,9.751-5.18,72.851,72.851,0,0,1,9.732-3.38,17.672,17.672,0,0,1-1.189-2.679v0c-.176-.465-.343-.9-.518-1.305-2.159-4.989-3.922-9.134-5.547-13.045-1.962-4.721-3.691-9.025-5.286-13.158-3.736-9.682-6.739-18.451-9.18-26.809a11.193,11.193,0,0,1-3.082,1.272c-1.159.326-2.363.567-3.426.779h0c-.732.146-1.364.273-1.855.4a53.542,53.542,0,0,1-8.871.752,46.5,46.5,0,0,1-8.946-.843A37.384,37.384,0,0,1,112.282,73.853Zm-20.161,38.99a.843.843,0,0,0-.72.416.661.661,0,0,0,.035.7,35.976,35.976,0,0,1,2.519,4.95c.735,1.725,1.4,3.533,2.045,5.281a63.6,63.6,0,0,0,3.911,9.128,23.643,23.643,0,0,0,2.773,3.994,18.433,18.433,0,0,0,3.755,3.31.7.7,0,0,0,.39.127.784.784,0,0,0,.369-1.425,17.272,17.272,0,0,1-3.595-3.2,22.894,22.894,0,0,1-2.664-3.9,63.068,63.068,0,0,1-3.769-8.956c-.627-1.733-1.275-3.524-1.989-5.224a34.085,34.085,0,0,0-2.446-4.847A.707.707,0,0,0,92.122,112.843ZM177.1,78.218a.874.874,0,0,0-.658.308.741.741,0,0,0-.154.633c.521,2.712,1.028,5.473,1.519,8.145l0,.021v0c1.549,8.432,3.151,17.152,5.41,25.581a.681.681,0,0,0,.687.532.836.836,0,0,0,.655-.31.687.687,0,0,0,.11-.622c-2.26-8.434-3.862-17.158-5.412-25.594-.491-2.674-1-5.438-1.521-8.156A.621.621,0,0,0,177.1,78.218ZM76.489,52.712a.811.811,0,0,0-.655.312.643.643,0,0,0-.073.607c.7,2.093,1.339,3.978,2.1,5.857A36.959,36.959,0,0,0,80.6,65.06a.782.782,0,0,0,.662.37.716.716,0,0,0,.367-.1,41.6,41.6,0,0,0,4.737-3.476h0c1.2-.972,2.443-1.977,3.754-2.853a12.171,12.171,0,0,1,1.929-1.076,6.879,6.879,0,0,1,2.127-.563c.184-.017.372-.025.558-.025a7.543,7.543,0,0,1,2.469.442,13.958,13.958,0,0,1,2.3,1.061.752.752,0,0,0,.37.1.794.794,0,0,0,.732-.609.672.672,0,0,0-.343-.791,13.767,13.767,0,0,0-2.756-1.2,9.732,9.732,0,0,0-2.8-.43,8.525,8.525,0,0,0-2.173.281,9.333,9.333,0,0,0-2.171.887,35.142,35.142,0,0,0-4.966,3.6,44.547,44.547,0,0,1-3.893,2.953A38.057,38.057,0,0,1,79.1,58.548c-.677-1.716-1.255-3.423-1.887-5.317A.733.733,0,0,0,76.489,52.712Zm77.588,2.326a4.252,4.252,0,0,0-2.225.6,5.229,5.229,0,0,0-1.576,1.531,12.608,12.608,0,0,0-1.72,4.285.715.715,0,0,0,.127.627.852.852,0,0,0,.656.31.656.656,0,0,0,.667-.537,12.265,12.265,0,0,1,1.3-3.53,4.077,4.077,0,0,1,1.184-1.272,3.041,3.041,0,0,1,1.707-.5,4.116,4.116,0,0,1,.662.056,18.827,18.827,0,0,1,5.257,2.03c.729.368,1.483.748,2.22,1.067a1,1,0,0,0,.392.084.709.709,0,0,0,.713-.533c.5-1.738-.326-3.054-1.376-4.473a.772.772,0,0,0-.633-.323.854.854,0,0,0-.748.429.6.6,0,0,0,.081.652l.167.224a4.914,4.914,0,0,1,1.13,2.165c-.425-.207-.863-.429-1.286-.645-2.1-1.07-4.278-2.176-6.545-2.245Z" transform="translate(43.632 -8.263)"/>
    </g>
    <g id="Head" transform="translate(86.512 45.072)">
      <g id="HEAD-2" data-name="HEAD">
        <path id="_Skin-2" data-name="âœ‹ Skin" d="M38.029.093C75.956-1.773,93.071,24.949,94.178,36.884c.768,8.285-4.123,17.835-4.123,25.238,0,3.779,4.624,11.892,2.471,17.4-4.791,12.259-14.935,25.865-27.862,25.865S34.913,108.965,20.63,88.5c-1.34-1.92-18.292-12.834-19.939-23.2C-3.411,39.462,10.966,1.425,38.029.093Z" transform="translate(10.865 20.608)" fill="#d08b5b"/>
        <path id="_Ink-2" data-name="ðŸ– Ink" d="M82.825,125.769a40,40,0,0,1-4-.223,60.587,60.587,0,0,1-9.609-1.638l-.5-.134a14.1,14.1,0,0,1-3.8-1.453,4.517,4.517,0,0,1-1.467-1.472,5.972,5.972,0,0,1-.739-1.953,1.477,1.477,0,0,1,.28-1.208,1.2,1.2,0,0,1,.93-.458h.16c.139,0,.287-.005.465-.016l.144-.01H64.7a.08.08,0,0,1,.025,0c.044-.006.088-.016.13-.026s.08-.018.12-.024a4.575,4.575,0,0,1,.757-.064,5.989,5.989,0,0,1,1.933.361l.112.038a44.638,44.638,0,0,0,4.572,1.362c1.551.354,3.2.654,4.887.891l.163.02.05.007.025,0a.03.03,0,0,1,.015,0l.483.06c.382.045.766.086,1.139.125h0c.7.07,1.4.125,2.1.165.405.023.816.034,1.22.034a21.8,21.8,0,0,0,8.222-1.62,24.821,24.821,0,0,0,7.047-4.393,29.29,29.29,0,0,0,8.826-14.291,30.116,30.116,0,0,0,.968-6.2,45.573,45.573,0,0,0-.112-6.19,2.961,2.961,0,0,1-.165-1c0-.2.011-.389.023-.568-.216-2.113-.521-4.263-.816-6.342-.263-1.851-.534-3.764-.743-5.65a106.091,106.091,0,0,1-.7-14.1,58.7,58.7,0,0,1,.625-6.933l.118-.828a8.059,8.059,0,0,1-3.925-1.995,8.058,8.058,0,0,1-4.005,1.075A7.1,7.1,0,0,1,94.05,50.1a8.907,8.907,0,0,1-4.681,1.312,8.077,8.077,0,0,1-4.212-1.126,7.318,7.318,0,0,1-1.959,1,6.9,6.9,0,0,1-2.168.352,6.7,6.7,0,0,1-1.433-.155,6.413,6.413,0,0,1-2.517-1.194,7.312,7.312,0,0,1-1.266.113c-.119,0-.239,0-.358-.009l-.112.063A8.254,8.254,0,0,1,71.506,51.5c-.072,0-.145,0-.217,0a9.61,9.61,0,0,1-3.145-.637,8.927,8.927,0,0,1-3.506,1.25,8.1,8.1,0,0,1-1.011.063,7.743,7.743,0,0,1-4.333-1.28,11,11,0,0,1-5.44,1.417,11.312,11.312,0,0,1-3.794-.65A8.531,8.531,0,0,1,47.59,54.3a5.539,5.539,0,0,1,.175,1.984,8.074,8.074,0,0,1-.816,2.925,5.237,5.237,0,0,1,.346,3.369,8.3,8.3,0,0,1-2.656,4.359,8.187,8.187,0,0,1-4.046,6.714,3.339,3.339,0,0,1-.368.183,1.817,1.817,0,0,1-.383.386,4.474,4.474,0,0,1-3.107,1.1,7.459,7.459,0,0,1-2.835-.592l-.042,0h0l-.068,0h-.063a1.606,1.606,0,0,1-1.383-.652,6.486,6.486,0,0,0-.845.1,11.758,11.758,0,0,0-3.1,1.044,6.955,6.955,0,0,0-1.581,1.106,6.637,6.637,0,0,0-1.141,1.417,9.112,9.112,0,0,0-1.157,3.576,9.76,9.76,0,0,0,.375,4.245,8.246,8.246,0,0,0,.909,1.909,7.838,7.838,0,0,0,1.416,1.636,7.385,7.385,0,0,0,1.821,1.162,8.656,8.656,0,0,0,2.065.636,5.93,5.93,0,0,0,1.032.075c.162,0,.326,0,.484-.006h.008c.157,0,.319-.006.476-.006a4.408,4.408,0,0,1,1.271.147,2.3,2.3,0,0,1,1.1.724,1.047,1.047,0,0,1,.263.994,2.284,2.284,0,0,1-2.039,1.7,56.686,56.686,0,0,0,4.6,4.943c.347.326.7.656,1.046.975l.013.012a55.811,55.811,0,0,1,4.186,4.173,34.462,34.462,0,0,1,2.394,3.052,21.256,21.256,0,0,1,1.917,3.366c.468,1.047.872,2.138,1.262,3.192v0c.119.322.243.656.366.983l.094.244c.065.164.134.33.2.491a8.811,8.811,0,0,1,.639,1.966,3.153,3.153,0,0,1,0,1,2.943,2.943,0,0,1-.375,1.02,2.5,2.5,0,0,1-.742.77,1.859,1.859,0,0,1-1.018.345,1.293,1.293,0,0,1-.166-.011c-2.157-.276-2.849-1.777-3.473-3.563-.211-.606-.4-1.23-.591-1.833-.247-.8-.5-1.622-.8-2.416-.092-.239-.2-.49-.319-.768a4.049,4.049,0,0,1-1.088.146,4.825,4.825,0,0,1-2.56-.772,8.818,8.818,0,0,1-3.548.752h-.147a8.9,8.9,0,0,1-2.382-.361,8.355,8.355,0,0,1-2.114-.966l-.061-.016-.015,0h0c-.076-.02-.156-.041-.233-.063a7.055,7.055,0,0,1-2.533.471,6.306,6.306,0,0,1-3.59-1.081,6.6,6.6,0,0,1-1.476-1.383,6.472,6.472,0,0,1-.941-1.675,6.379,6.379,0,0,1-2.2-.426,5.465,5.465,0,0,1-1.879-1.207,5.962,5.962,0,0,1-1.179-1.658,6.276,6.276,0,0,1-.564-1.909,6.487,6.487,0,0,1-1.863-.671,6.129,6.129,0,0,1-1.605-1.271,5.667,5.667,0,0,1-.96-1.481,6.263,6.263,0,0,1-.485-1.695,6.7,6.7,0,0,1-2.193-1.091,5.713,5.713,0,0,1-1.591-1.833,5.526,5.526,0,0,1-.642-2.065,5.646,5.646,0,0,1,.167-2.052l-.092-.132A6.044,6.044,0,0,1,5.1,88.343a4.665,4.665,0,0,1-.936-2.549,4.924,4.924,0,0,1,.179-1.673,5.028,5.028,0,0,1,.137-1.782,7.636,7.636,0,0,1-1.371-1.811,7.965,7.965,0,0,1-.793-2.119,7.709,7.709,0,0,1-.159-2.25,7.1,7.1,0,0,1,.529-2.2A7.738,7.738,0,0,1,.724,69.776,7.457,7.457,0,0,1,.761,67.46a6.717,6.717,0,0,1,.785-2.186A6.687,6.687,0,0,1,.34,63.083a6.985,6.985,0,0,1-.33-2.544,9.087,9.087,0,0,1,.759-3.127A16.6,16.6,0,0,1,2.352,54.6a5.22,5.22,0,0,1-1.024-1.735,5.56,5.56,0,0,1-.322-1.994,6.307,6.307,0,0,1,.722-2.713,10.257,10.257,0,0,1,1.655-2.295,8.192,8.192,0,0,1-.412-2.595,8.4,8.4,0,0,1,.4-2.531,8.681,8.681,0,0,1,2.913-4.184A4.784,4.784,0,0,1,5.7,33.328a5.193,5.193,0,0,1,1.244-2.6,10.472,10.472,0,0,1,2.234-1.9,4.754,4.754,0,0,1,.293-3.476,5.966,5.966,0,0,1,1.5-1.939,12.253,12.253,0,0,1,2.033-1.4,5.52,5.52,0,0,1,.594-1.939,6.179,6.179,0,0,1,1.215-1.626,5.754,5.754,0,0,1,1.647-1.119,4.638,4.638,0,0,1,1.89-.416,4.172,4.172,0,0,1,2.035.53,3.567,3.567,0,0,1-.1-1.72,4.349,4.349,0,0,1,.653-1.6A5.217,5.217,0,0,1,22.478,12.6a4.748,4.748,0,0,1,2.029-.739,7.647,7.647,0,0,1,1.216-2.278,8.447,8.447,0,0,1,1.866-1.77,8.572,8.572,0,0,1,4.844-1.554,7.567,7.567,0,0,1,1.785.211,7.631,7.631,0,0,1,2.81-2.336,8.1,8.1,0,0,1,3.532-.814,7.777,7.777,0,0,1,2.716.484,12.085,12.085,0,0,1,3.586-1.9A12.436,12.436,0,0,1,50.753,1.3a14.6,14.6,0,0,1,4.61.773A5.734,5.734,0,0,1,57.711.5,8.171,8.171,0,0,1,60.55,0c.165,0,.331,0,.494.014a15.228,15.228,0,0,1,4.2,1.069A14.791,14.791,0,0,0,69.509,2.15c.189.009.386.013.585.013A27.083,27.083,0,0,0,73.5,1.876h.006A27.032,27.032,0,0,1,76.9,1.588a10.99,10.99,0,0,1,1.757.132,9.27,9.27,0,0,1,2.747.892,7.025,7.025,0,0,1,2.237,1.775,10.324,10.324,0,0,1,2.844-.4,10.628,10.628,0,0,1,2.445.287A10.975,10.975,0,0,1,95.087,8.26a6.386,6.386,0,0,1,.977-.075,7.478,7.478,0,0,1,4.251,1.39,7.007,7.007,0,0,1,2.68,3.545,8.691,8.691,0,0,1,3.052.671,9.513,9.513,0,0,1,2.659,1.662,8.508,8.508,0,0,1,2.914,5.4,6.727,6.727,0,0,1,4.026,3.13,9.432,9.432,0,0,1,1.024,5.8,5.4,5.4,0,0,1,2.262,2.254,8.728,8.728,0,0,1,.978,3.217,5.665,5.665,0,0,1,1.924,2.675,6.877,6.877,0,0,1,.3,3.379,3.885,3.885,0,0,1,1.564,1.79,5.788,5.788,0,0,1,.523,2.419c0,.445-.039.878-.074,1.3a6.392,6.392,0,0,0,.23,3.007,7.629,7.629,0,0,1,.494,1.846,5.842,5.842,0,0,1-.089,1.892l-.028.133c-.046.209-.087.42-.127.644a3.936,3.936,0,0,1,.927,1.218,6.037,6.037,0,0,1,.61,2.748,8.1,8.1,0,0,1-.534,2.766,5.513,5.513,0,0,1-.175,3.406,6.284,6.284,0,0,1,.895,1.9,6.042,6.042,0,0,1,.2,2.135,6.586,6.586,0,0,1-2.025,4.2,7.115,7.115,0,0,1-.4,3.373,7.615,7.615,0,0,1-1.861,2.875,5.924,5.924,0,0,1-.7,4.025,5.539,5.539,0,0,1-2.041,2.055,6.614,6.614,0,0,1-.324,2.284,7.317,7.317,0,0,1-1.7,2.838,6.279,6.279,0,0,1-.058,2.225,6.623,6.623,0,0,1-.808,2.087,5.906,5.906,0,0,1-3.536,2.724,3.167,3.167,0,0,1-.747.106,32.16,32.16,0,0,1-2.022,8.276,34.136,34.136,0,0,1-2.381,4.884,33.708,33.708,0,0,1-3.128,4.437,32.447,32.447,0,0,1-3.808,3.862,30.793,30.793,0,0,1-4.423,3.157,28.644,28.644,0,0,1-4.906,2.281,27.792,27.792,0,0,1-5.248,1.307A24.615,24.615,0,0,1,82.825,125.769ZM34.208,84.91a1.351,1.351,0,0,1-1.265-.818,9.664,9.664,0,0,0-1.209-2.013c-.08.112-.151.227-.233.367l-.075.127-.014.024c-.05.085-.1.172-.146.261a1.81,1.81,0,0,1-.064.229l-.009.028a1.919,1.919,0,0,1-1.263,1.239,1.208,1.208,0,0,1-.4.069,1.34,1.34,0,0,1-.851-.325,1.781,1.781,0,0,1-.536-.758,1.6,1.6,0,0,1,.237-1.512,3.168,3.168,0,0,1,1.269-1.009,2.859,2.859,0,0,0-2.587.906.137.137,0,0,1-.1.046.162.162,0,0,1-.158-.154,2.294,2.294,0,0,1,.263-1.185,2.87,2.87,0,0,1,.776-.912,4.172,4.172,0,0,1,2.281-.852c.078,0,.158-.006.235-.006A4.418,4.418,0,0,1,32.029,79a6.027,6.027,0,0,1,1.459.872,12.148,12.148,0,0,1,2.3,2.558,1.349,1.349,0,0,1,.122,1.454A2.016,2.016,0,0,1,34.208,84.91Z" transform="translate(-8.258 2.003)"/>
      </g>
      <g id="FACE" transform="translate(39.871 46.574)">
        <path id="_Ink-3" data-name="ðŸ– Ink" d="M26.4,46.772a9.565,9.565,0,0,1-5.294-1.563,10.084,10.084,0,0,1-2.19-1.889,7.91,7.91,0,0,1-1.335-2.129,6.03,6.03,0,0,1-.476-2.418.746.746,0,0,1,.177-.476.832.832,0,0,1,.443-.265.856.856,0,0,1,.2-.023.786.786,0,0,1,.323.068.688.688,0,0,1,.341.335c.159.208.368.482.579.746a14.544,14.544,0,0,0,2.4,2.456,7.445,7.445,0,0,0,2.99,1.4,6.411,6.411,0,0,0,1.374.149,6.734,6.734,0,0,0,2.32-.419A7.891,7.891,0,0,0,31.5,40.468a1.745,1.745,0,0,1,1.327-.655h.012a2.042,2.042,0,0,1,1.411.624,2.2,2.2,0,0,1,.659,1.435,1.918,1.918,0,0,1-.546,1.409,10.935,10.935,0,0,1-2.3,1.873,11.148,11.148,0,0,1-2.711,1.2A10.606,10.606,0,0,1,26.4,46.772Zm2.987-13.927h0a8.766,8.766,0,0,1-3.122-.628,15.772,15.772,0,0,1-3.671-2.08,1.408,1.408,0,0,1-.512-.814,1.683,1.683,0,0,1,.073-.914,2.078,2.078,0,0,1,.618-.892,1.506,1.506,0,0,1,.963-.375,1.368,1.368,0,0,1,.745.228l.243.187.008.006a19.873,19.873,0,0,0,2.3,1.6,5.667,5.667,0,0,0,2.754.877,2.978,2.978,0,0,0,1.164-.228,3.252,3.252,0,0,0,1.084-.767,3.315,3.315,0,0,0,.631-2.672A5.045,5.045,0,0,0,31.323,24a9.778,9.778,0,0,0-2.031-1.637.628.628,0,0,1-.17-.723.943.943,0,0,1,.313-.45.961.961,0,0,1,.6-.2,1.278,1.278,0,0,1,.216.019,6.816,6.816,0,0,1,2.395.864,5.429,5.429,0,0,1,1.611,1.483,5.885,5.885,0,0,1,1.028,3.936,6.477,6.477,0,0,1-.527,2.066,6.027,6.027,0,0,1-1.187,1.775A5.678,5.678,0,0,1,29.389,32.845Zm-24-9.623a1.2,1.2,0,0,1-.348-.051.706.706,0,0,1-.476-.41,5.815,5.815,0,0,1,.292-4.388A10.276,10.276,0,0,1,6.4,15.837a6.354,6.354,0,0,1,1.662-1.49,5.579,5.579,0,0,1,2.643-.68,5.3,5.3,0,0,1,2.548.656,6.627,6.627,0,0,1,1.76,1.445,18.22,18.22,0,0,1,1.366,1.816c.18.262.366.532.555.795a1.6,1.6,0,0,1,.269,1.487,1.924,1.924,0,0,1-1.093,1.127,2.1,2.1,0,0,1-.805.165,1.84,1.84,0,0,1-.718-.142,1.93,1.93,0,0,1-1.036-1.093,7.452,7.452,0,0,0-.8-1.459,4.388,4.388,0,0,0-1.171-1.158,2.112,2.112,0,0,0-2.118-.162A6.916,6.916,0,0,0,7,19.6a4.805,4.805,0,0,0-.808,2.866.65.65,0,0,1-.211.547.821.821,0,0,1-.457.2A1.078,1.078,0,0,1,5.386,23.221Zm36.35-3.535a1.568,1.568,0,0,1-.452-.073,1.71,1.71,0,0,1-.706-.421,1.4,1.4,0,0,1-.393-.709,2.9,2.9,0,0,0-1.021-1.7,2.076,2.076,0,0,0-1.285-.457,2.1,2.1,0,0,0-.345.029,3.13,3.13,0,0,0-1.754,1.05,3.845,3.845,0,0,0-.368.536l-.011.018a3.913,3.913,0,0,1-.728.954.711.711,0,0,1-.451.169.674.674,0,0,1-.2-.031,2.855,2.855,0,0,1-.647-.9,1.775,1.775,0,0,1-.129-.78,3.086,3.086,0,0,1,.569-1.564,6.086,6.086,0,0,1,1.571-1.534,5.239,5.239,0,0,1,1.738-.818,4.7,4.7,0,0,1,.985-.1A5.031,5.031,0,0,1,41,14.29a5.48,5.48,0,0,1,2.245,3.43,1.822,1.822,0,0,1-.092,1.013,1.422,1.422,0,0,1-.664.737A1.58,1.58,0,0,1,41.736,19.686ZM.861,13.006a.419.419,0,0,1-.054,0,.509.509,0,0,1-.265-.128A1.921,1.921,0,0,1,0,11.291,6.842,6.842,0,0,1,.7,8.63,17,17,0,0,1,2.041,6.383a11.827,11.827,0,0,1,1.722-1.96A14.905,14.905,0,0,1,8.582,1.492,10.375,10.375,0,0,1,12.017.736c.071,0,.143,0,.213,0a4.133,4.133,0,0,1,1.278.243,3.363,3.363,0,0,1,1.138.706,2.108,2.108,0,0,1,.631,1.541,2.2,2.2,0,0,1-.634,1.576,3.261,3.261,0,0,1-1.348.787,7.846,7.846,0,0,1-1.471.262,13.4,13.4,0,0,0-1.433.211A13.481,13.481,0,0,0,6.929,7.328a12.811,12.811,0,0,0-3.245,2.3c-.212.226-.413.466-.608.7l-.005.006c-.181.216-.352.419-.534.618-.2.221-.389.444-.611.712a3.026,3.026,0,0,0-.173.3c-.044.092-.087.177-.13.259-.081.152-.159.285-.231.4-.144.242-.219.3-.278.326A.623.623,0,0,1,.861,13.006Zm42.923-.549a.492.492,0,0,1-.081-.007.484.484,0,0,1-.247-.12.463.463,0,0,1-.139-.239,8.979,8.979,0,0,0-1.309-3.173A6.856,6.856,0,0,0,39.4,6.692,16.8,16.8,0,0,0,35.74,5.465c-.352-.083-.73-.139-1.1-.192l-.017,0A9.274,9.274,0,0,1,32.888,4.9a3.075,3.075,0,0,1-1.427-.962,2.66,2.66,0,0,1-.493-.961,2.448,2.448,0,0,1-.059-1.035A2.125,2.125,0,0,1,32.063.368,3.482,3.482,0,0,1,33.677,0a10.576,10.576,0,0,1,3.877,1.081l.085.036,0,0,.283.12A12.728,12.728,0,0,1,42.364,4.2,9.572,9.572,0,0,1,44.645,8.4a5.045,5.045,0,0,1-.46,3.83.455.455,0,0,1-.208.183A.48.48,0,0,1,43.784,12.457Z" transform="translate(13.541 13.787)"/>
      </g>
    </g>
  </g>
</svg>
