<svg xmlns="http://www.w3.org/2000/svg" width="433.312" height="626" viewBox="0 0 433.312 626">
  <g id="peep-sitting-9" transform="translate(20.312)">
    <g id="BODY" transform="translate(-20.311 159.505)">
      <path id="_Skin" data-name="âœ‹ Skin" d="M131.8,369.682a37.484,37.484,0,0,1-7.939-.837,36.584,36.584,0,0,1-7.157-2.356,41.326,41.326,0,0,1-6.461-3.643,52.116,52.116,0,0,1-5.85-4.7,82.933,82.933,0,0,1-10.209-11.626c-3.2-4.315-6.118-8.822-8.792-13.049l-.3.2c-1.151.762-2.341,1.55-3.457,2.211a7.1,7.1,0,0,1-1.731,1.886,9.56,9.56,0,0,1-2.227,1.242,18.346,18.346,0,0,1-5.022,1.123c-.317.016-.635.024-.942.024a14.723,14.723,0,0,1-3.5-.4,11.515,11.515,0,0,1-5.253-2.86,14.812,14.812,0,0,1-1.924-2.239c-2.31-3.271-3.673-7.588-4.991-11.762-.18-.57-.366-1.16-.553-1.741a4.721,4.721,0,0,0-.616.625c-.545.611-1.223,1.371-1.831,1.371a.664.664,0,0,1-.282-.062c-.652-.144-1.309-.294-1.946-.438-1.982-.451-4.03-.916-6.065-1.259a37.317,37.317,0,0,0-6.21-.57c-.594,0-1.188.018-1.767.054a5.083,5.083,0,0,0-1.038-.091,25.641,25.641,0,0,0-5.095.747c-2.072.455-4.443,1.068-6.953,1.718l-.058.015-1.724.445c-2.793.718-5.761,1.458-8.546,2.011a39.893,39.893,0,0,1-7.5.914,11.3,11.3,0,0,1-3.155-.377A3.957,3.957,0,0,1,.656,325a3.067,3.067,0,0,1-.619-1.512A5.784,5.784,0,0,1,.2,321.383c.987-3.652,4.9-6.033,8.675-8.336a36.162,36.162,0,0,0,5.312-3.659A18.052,18.052,0,0,0,16.6,305.9a21.631,21.631,0,0,0,1.54-3.733,54.541,54.541,0,0,0,1.633-7.928A50.819,50.819,0,0,1,21.806,285a109.968,109.968,0,0,1,4.241-12.242,65.327,65.327,0,0,1,6.379-11.735c.246-14.793.645-30.606,1.892-46.013.326-4.034.7-7.937,1.122-11.6.448-3.927.959-7.717,1.517-11.263.593-3.765,1.259-7.377,1.98-10.737.76-3.543,1.605-6.915,2.511-10.022.5-1.9,1.027-3.835,1.534-5.709,2.168-8.013,4.41-16.3,5.829-24.592a103.809,103.809,0,0,0,1.425-12.5c.1-2.138.128-4.254.067-6.291-.063-2.139-.221-4.263-.467-6.314l-1.287-.034a3.818,3.818,0,0,0-1.769-.479,2.321,2.321,0,0,0-.35.025,2.318,2.318,0,0,0-1.543-.546,4.63,4.63,0,0,1-.912-.162c-.817-7.622-1.217-13.44-1.3-18.864-.047-3.133.016-6.065.192-8.962.186-3.068.493-6,.939-8.975a43.241,43.241,0,0,1,1.133-6.944,33.158,33.158,0,0,1,2.1-5.932,28.41,28.41,0,0,1,6.847-9.2,33.627,33.627,0,0,1,4.63-3.458,43.521,43.521,0,0,1,5.355-2.82,71.362,71.362,0,0,1,12.642-4.1c5.63-1.844,10.082-3.479,14.009-5.145A82.853,82.853,0,0,0,102.4,34.289a57.681,57.681,0,0,0,10.046-7.94,58,58,0,0,0,4.433-4.944,65.862,65.862,0,0,0,4.09-5.744c.7-1.175,1.307-2.445,1.9-3.674v0c.545-1.135,1.109-2.309,1.739-3.4A16.272,16.272,0,0,1,126.8,5.536a11.961,11.961,0,0,1,2.669-2.452,15.932,15.932,0,0,1,3.389-1.727A23.186,23.186,0,0,1,140.869,0a26.339,26.339,0,0,1,5,.476,22.711,22.711,0,0,1,4.639,1.406,13.332,13.332,0,0,1,6.59,5.459,45.377,45.377,0,0,1,2.383,9.366,62,62,0,0,0,1.546,7.012,26,26,0,0,0,1.9,4.854,23.828,23.828,0,0,0,2.636,4.042,25.636,25.636,0,0,0,3.268,3.346,31.677,31.677,0,0,0,3.793,2.766,42.97,42.97,0,0,0,4.213,2.3c1.378.662,2.859,1.3,4.528,1.953,3.1,1.212,6.392,2.286,9.576,3.325,3.794,1.238,7.716,2.517,11.331,4.036a52.222,52.222,0,0,1,5.212,2.507,33.905,33.905,0,0,1,4.67,3.095,21.1,21.1,0,0,1,4.3,4.263,23.817,23.817,0,0,1,2.877,5.048,32.822,32.822,0,0,1,1.764,5.59,53.013,53.013,0,0,1,.961,5.887c.338,3.032.777,6.072,1.2,9.012v0c.483,3.351.982,6.816,1.325,10.223a80.393,80.393,0,0,1,.444,10.277,1.866,1.866,0,0,0,.337.025c.142,0,.3-.008.458-.016h.019c.15-.008.336-.018.514-.018a2.127,2.127,0,0,1,.808.121.77.77,0,0,1,.481.537,1.864,1.864,0,0,1-1.114,1.01,10.063,10.063,0,0,1-2.219.646,51.442,51.442,0,0,1-5.475.622c-1.03.079-1.919.148-2.467.238.386,2.043.69,4.128.927,6.375.212,2,.367,4.09.473,6.381.2,4.255.194,8.585.189,12.772v0c0,3.759-.007,7.645.135,11.469a101.56,101.56,0,0,0,1.009,11.47c.627,3.018,1.366,6.064,2.258,9.313.8,2.895,1.695,5.885,2.751,9.142,1.962,6.052,4.181,12.134,6.328,18.016,1.919,5.259,3.9,10.7,5.7,16.115.653,1.688,1.254,3.44,1.835,5.134.709,2.068,1.442,4.206,2.28,6.254a37.635,37.635,0,0,0,2.975,5.91l-.06.046c.491.814,1.066,1.672,1.709,2.549.314.113.639.264.954.411h0c.3.142.619.288.92.4l.136-.229.33.443.97-.409c1.468.733,3.02,1.562,4.49,2.4,4.538,2.75,8.768,5.549,12.932,8.557,3.818,2.759,7.529,5.657,11.344,8.86,7.343,6.167,14.242,12.787,21.251,19.594l-1.942,1.573c.644.895,1.4,2.031,2.061,3.033l.088.133.1.153a12.014,12.014,0,0,1,2.5-1.649,44.215,44.215,0,0,1,7.359,12.823,58.5,58.5,0,0,1,2.237,7.326,66.187,66.187,0,0,1,1.328,7.609c1.17,10.124.078,20.459-3,28.354a29.278,29.278,0,0,1-3.683,6.419,35.707,35.707,0,0,1-5,5.337,23.2,23.2,0,0,1-3.144,3.775,15.841,15.841,0,0,1-4.627,3.2l-.163.23-.294.416c-.186.025-1.334.285-1.4.555-3.539.6-7.15,1.574-10.643,2.521h0c-2.87.777-5.837,1.581-8.783,2.181-1.587.323-3.039.562-4.438.731a39.082,39.082,0,0,1-4.477.295,30.79,30.79,0,0,1-4.633-.4,35.338,35.338,0,0,1-4.51-1.047,48.345,48.345,0,0,1-8.679-3.641,137.568,137.568,0,0,1-16.216-10.67h0c-2.734-1.989-5.316-3.867-7.912-5.6a88.348,88.348,0,0,0-11.729-6.916c-4.06-2.035-8.216-3.861-12.236-5.626l-1.988-.874c.33,1.684.432,2.755.025,3.591s-1.312,1.425-3.139,2.06a8.751,8.751,0,0,1-3.243.583,16.534,16.534,0,0,1-6.733-1.7c.029,2.031.109,4.1.187,6.109v.01c.132,3.405.268,6.926.174,10.559q0,.305,0,.615v0c0,1.738,0,3.536-.111,5.328a25.683,25.683,0,0,1-.8,5.225,14.831,14.831,0,0,1-.875,2.386,11.36,11.36,0,0,1-1.307,2.134,10.187,10.187,0,0,1-1.825,1.808,11.277,11.277,0,0,1-2.429,1.407c-3.273,1.288-6.618,2.468-9.94,3.508-3.442,1.077-6.887,2.012-10.238,2.778a96.076,96.076,0,0,1-20.047,2.592C133.321,369.66,132.551,369.682,131.8,369.682ZM69.237,224.48l-.919,2.33c-5.253,13.1-11.236,27.171-16.415,38.6.127,1.11.36,2.247.585,3.347a32.239,32.239,0,0,1,.66,4.128,12.191,12.191,0,0,1-.016,2.061,9.155,9.155,0,0,1-.432,2.051,48.351,48.351,0,0,1,4.384-2.522c1.442-.734,2.988-1.435,4.595-2.083a83.374,83.374,0,0,1,9.607-3.152l.367,2.452c.585-.019,1.521-.03,2.273-.04h.108l.387,0c-.115-.982-.269-2.7-.34-3.7h0A82.474,82.474,0,0,1,74.392,252c.626-5.835,1.692-11.49,2.551-15.765.337-2.483-.1-5.893-1.83-7.914a4.687,4.687,0,0,0-3.6-1.7.39.39,0,0,1-.058,0c-.49,0-1.178-.878-1.68-1.52A5.629,5.629,0,0,0,69.237,224.48Z" transform="translate(20.563 -19.531)" fill="#d08b5b"/>
      <path id="_Top" data-name="ðŸ‘• Top" d="M72.647,196.646c-3.5,0-6.674-.111-9.7-.339a89.172,89.172,0,0,1-9.612-1.22A61.91,61.91,0,0,1,36.2,189.408a10.124,10.124,0,0,0-.968-1.216c-.193-.218-.392-.443-.575-.672a2.726,2.726,0,0,0-.37-1.505A2.279,2.279,0,0,0,33.17,185a13.736,13.736,0,0,1-.845-2.5c.24-2.312.548-4.373.94-6.3.775-3.78,1.794-7.6,2.688-10.89l.369-1.352c1.335-4.888,2.284-8.932,2.986-12.727a87.736,87.736,0,0,0,1.483-12.979,119.206,119.206,0,0,0-.328-13.344c-.3-3.949-.773-8.166-1.485-13.271-1.068-7.674-2.374-15.754-4.11-25.429l-.24-1.334a19.661,19.661,0,0,0-.749-2.8A27.56,27.56,0,0,0,32.806,79.4c-.776-1.671-1.523-2.794-1.858-2.794a.133.133,0,0,0-.1.047c-.094.1-.118.382-.07.824a4.2,4.2,0,0,0-.949-.091c-.229,0-.46.01-.705.021h0c-.186.008-.379.016-.574.02-.775.016-1.554.017-2.286.017H25.97c-.451,0-.917,0-1.375,0l-3.947.016-3.949.018c-4.346.019-9,.083-13.589.413l-.026-.006c-.267-.065-.542-.132-.816-.214a1.9,1.9,0,0,1-1.127-.805A2.877,2.877,0,0,1,.77,75.5a40.07,40.07,0,0,1,.105-5.173c.064-1.01.13-2.053.148-3.065.045-2.617.034-5.241-.033-7.8L.965,58.6c-.009-.3-.012-.613-.015-.94v0C.934,56,.917,54.122,0,52.744c.112-1.591.24-3.059.391-4.487a81.362,81.362,0,0,1,3.34-16.6,26.535,26.535,0,0,1,2.5-5.53,22.884,22.884,0,0,1,3.781-4.741,26.8,26.8,0,0,1,4.542-3.464,37.81,37.81,0,0,1,5.085-2.582A99.157,99.157,0,0,1,30.518,11.7l.865-.253c5.085-1.489,9.5-2.982,13.492-4.564,2.282-.9,4.481-1.86,6.534-2.841,2.2-1.05,4.314-2.169,6.289-3.327a.435.435,0,0,0,0,.376.36.36,0,0,0,.262.188,1.763,1.763,0,0,1,1.088.709,9.406,9.406,0,0,0,.517,1.73,1.41,1.41,0,0,0,.176.308c.072.527.1,1.062.132,1.535.017.284.033.552.056.781a33.978,33.978,0,0,0,1.141,6.072,39.337,39.337,0,0,0,2.188,5.864,38.1,38.1,0,0,0,3.1,5.436,37.048,37.048,0,0,0,3.977,4.843,36.45,36.45,0,0,0,4.734,4.09,34.916,34.916,0,0,0,5.37,3.2A33.051,33.051,0,0,0,86.321,38a34.544,34.544,0,0,0,8.727,1.119,31.769,31.769,0,0,0,15.983-4.169,30.8,30.8,0,0,0,4.8-3.447,29.33,29.33,0,0,0,4.017-4.3,27.039,27.039,0,0,0,3.027-5.018,25.02,25.02,0,0,0,1.83-5.612,30.271,30.271,0,0,0,.558-6.272,36.808,36.808,0,0,0-.643-6.268c-.14-.745-.277-1.412-.419-2.038a35.142,35.142,0,0,0,4.156,3.045,46.524,46.524,0,0,0,4.547,2.5,77.5,77.5,0,0,0,9.63,3.781l.689.225c.991.321,1.995.639,2.966.946h0c2.8.887,5.7,1.8,8.482,2.866A51.419,51.419,0,0,1,162.76,19.2a31.525,31.525,0,0,1,4.153,2.925A21.577,21.577,0,0,1,170.4,25.8a20.187,20.187,0,0,1,2.8,5.452,35.924,35.924,0,0,1,1.44,5.986c.941,5.725,1.622,11.578,2.186,16.614.314,2.814.6,5.633.863,8.378.158,1.692.283,3.1.394,4.442l.026.293a7.631,7.631,0,0,0,.506,2.381c-2.166.578-4.333.986-5.978,1.277a62.834,62.834,0,0,1-7.2.816c-1.258.076-2.532.1-3.729.12-.146,0-.3,0-.482,0l-.549,0h-.069l-.48,0h-.278a3.151,3.151,0,0,0-.715.108c-.076.018-.155.036-.235.053a19.171,19.171,0,0,0-.149-3.48,3.278,3.278,0,0,0-.6-1.661.532.532,0,0,0-.384-.183c-.253,0-.532.215-.808.622a7.5,7.5,0,0,0-.82,1.817,28.947,28.947,0,0,0-1.181,6.926l-.054.784c-.16,2.33-.325,4.7-.484,6.991l0,.066v.006c-.54,7.771-1.1,15.806-1.577,23.714l-.052.884c-.313,5.412-.422,9.778-.343,13.74a90.563,90.563,0,0,0,1.225,13.676,59.414,59.414,0,0,0,1.569,6.736,57.211,57.211,0,0,0,2.36,6.5,73.455,73.455,0,0,0,3.881,7.367c.872,1.513,1.774,3.078,2.589,4.657a25.728,25.728,0,0,1,2.243,5.761,15.253,15.253,0,0,1,.421,2.971,12.026,12.026,0,0,1-.253,2.98A11.8,11.8,0,0,1,165,176.414a.9.9,0,0,1-.085.378c-.678,1.477-2.276,2.332-3.721,3.017-.98.465-1.995.9-2.977,1.321h0c-.529.227-1.076.461-1.612.7l-.572.256a44,44,0,0,1-7.884,2.7l-.058.024,0,0-.09.037a129.19,129.19,0,0,1-13.431,4.507c-4.419,1.229-9.129,2.306-14,3.2-4.466.82-9.248,1.519-14.214,2.079-4.46.5-9.124.919-13.863,1.239-4.461.3-9.139.528-13.9.672C76.463,196.614,74.52,196.646,72.647,196.646ZM58.881.543h0a2.638,2.638,0,0,0-.708-.1h-.026c.144-.084.287-.173.426-.259h0c.095-.059.2-.125.307-.188,0,.178-.005.361,0,.543Z" transform="translate(64.044 17.177)" fill="#8fa7df"/>
      <path id="_Shoes" data-name="ðŸ‘Ÿ Shoes" d="M24.35,69.339a11.232,11.232,0,0,1-3.663-.609,10.569,10.569,0,0,1-3.78-2.138,12.819,12.819,0,0,1-2.583-3.3,29.114,29.114,0,0,1-2.013-4.79l-.063-.185L11.875,57.2l-.359-1.1a33.944,33.944,0,0,0-2.644-6.521,13.81,13.81,0,0,0-2.659-3.427l-.078-.069a9.518,9.518,0,0,0-.867-.637l-.434-.291A7.729,7.729,0,0,1,2.044,42.5,9.494,9.494,0,0,1,1,39.083l-.069-.488c-.016-.121-.033-.258-.058-.468L.79,37.416c-.018-.146-.033-.264-.047-.37L.721,36.89.7,36.754c-.219-1.463-.39-2.976-.51-4.5l-.038-.508-.026-.389L.1,30.884A42.255,42.255,0,0,1,.637,20.393,26.42,26.42,0,0,1,1.91,15.905a22.258,22.258,0,0,1,2.031-4.012,19.493,19.493,0,0,1,1.8-2.372A19.921,19.921,0,0,1,7.862,7.461a24.5,24.5,0,0,1,5.256-3.31l.244-.115.255-.118A56.129,56.129,0,0,1,23.408.693l.643-.168L26.076,0l.176,1.179.9-.016.181,1.711c.09.856.194,1.708.308,2.533.165,1.2.367,2.44.6,3.676l.1.531.217,1.116-.889.71a20.7,20.7,0,0,0-3.053,3.15,24.474,24.474,0,0,0-4.183,7.58,23.758,23.758,0,0,0-1.019,4.087,22.711,22.711,0,0,0-.265,4.153,15.622,15.622,0,0,0,.623,3.933c.105.355.21.671.32.966l.057.15.325.837-.449.778a1.022,1.022,0,0,0-.109.944l.019.03L36.971,62.895l1.146,1.682-1.643,1.038c-.143.09-.291.189-.466.31l-.18.126-.934.66-1.017-.524a.89.89,0,0,0-.389-.094.556.556,0,0,0-.108.01,3.974,3.974,0,0,0-1.63.761l-.684.48a11.307,11.307,0,0,1-1.375.833A12.564,12.564,0,0,1,25.431,69.3C25.034,69.327,24.68,69.339,24.35,69.339ZM136.256,58.067c-.361,0-.732-.016-1.1-.049L134.975,58l-1.554-.158-.129-1.555c-.191-2.294-.419-4.577-.68-6.785l-.1-.835-.427-3.486,3.349,1.686.455.225c1.992.979,3.93,1.82,7.679,3.334l1.44.58,3.508,1.409-3.242,1.944a6.876,6.876,0,0,0-.589.4l-.585.445-.174.131c-.168.124-.311.226-.466.331a14.794,14.794,0,0,1-3.39,1.752A11.465,11.465,0,0,1,136.256,58.067Z" transform="translate(67.577 249.063)" fill="#fff"/>
      <path id="_Ink" data-name="ðŸ– Ink" d="M135.686,363.515a54.6,54.6,0,0,1-8.774-.682,42.472,42.472,0,0,1-8.471-2.27A39.671,39.671,0,0,1,112.9,357.9a42.871,42.871,0,0,1-5.012-3.413,49.265,49.265,0,0,1-4.524-4.058,59.154,59.154,0,0,1-4.078-4.6c-4.242-5.3-8.108-11.048-11.847-16.6l-.859-1.276c-.733.485-1.472.955-2.2,1.395a4.008,4.008,0,0,1-1.106,1.33,13.856,13.856,0,0,1-2.638,1.725,16.526,16.526,0,0,1-3.066,1.131,16.874,16.874,0,0,1-3.23.5c-.289.017-.584.025-.875.025a15.615,15.615,0,0,1-2.853-.265,15.78,15.78,0,0,1-2.762-.78,15.2,15.2,0,0,1-2.567-1.273,14.151,14.151,0,0,1-2.265-1.744,14.336,14.336,0,0,1-2-2.371,18.672,18.672,0,0,1-1.482-2.642,48.132,48.132,0,0,1-2.09-5.723c-.307-.967-.625-1.965-.967-2.931a2.206,2.206,0,0,1-.816.523,2.816,2.816,0,0,1-.982.168,3.481,3.481,0,0,1-.562-.047c-1.316-.211-2.63-.541-3.9-.86-1.3-.326-2.645-.664-4-.875a41.523,41.523,0,0,0-6.438-.477c-.449,0-.91.006-1.368.019-5.194.14-10.1,1.422-15.1,2.837-2.432.689-4.625,1.3-6.845,1.788a41.52,41.52,0,0,1-6.994.992c-.64.029-1.329.057-2.03.057a17.356,17.356,0,0,1-2.681-.181,7.928,7.928,0,0,1-2.44-.745,4.22,4.22,0,0,1-1.413-1.161,4.252,4.252,0,0,1-.747-1.538,6.222,6.222,0,0,1,.209-3.533,11.182,11.182,0,0,1,1.115-2.335,13.086,13.086,0,0,1,1.554-2,21.3,21.3,0,0,1,3.991-3.219c.819-.53,1.7-1.04,2.554-1.533a27.782,27.782,0,0,0,5.165-3.52,11.94,11.94,0,0,0,2.986-4.869A38.1,38.1,0,0,0,19.1,290.2c.786-4.24,1.654-8.752,2.856-13.2a93.9,93.9,0,0,1,4.489-12.74c1.03-2.384,1.939-4.305,2.859-6.047a44.972,44.972,0,0,1,3.513-5.687.117.117,0,0,1,.007-.016v0a3.535,3.535,0,0,1-.06-.453c-.03-.451-.017-.917,0-1.367.006-.192.011-.39.013-.583l.018-1.927q.01-1.111.02-2.222c.032-3.121.065-5.682.105-8.058.081-4.972.2-10.832.464-16.594.23-5.031.552-9.954.957-14.632.431-4.978.972-9.872,1.609-14.546.671-4.926,1.472-9.782,2.379-14.434.95-4.869,2.05-9.678,3.269-14.3.514-1.949,1.047-3.93,1.563-5.845l.01-.037c1.916-7.115,3.9-14.471,5.335-21.814.489-2.5.9-5.035,1.209-7.544s.54-5.038.679-7.555a94.987,94.987,0,0,0-.334-10.76,1.3,1.3,0,0,1-.572-.153,4.12,4.12,0,0,0-.82-.315l-.35.009h-.006l-.386.011h-.044a1.1,1.1,0,0,1-.907-.419c-.145-.04-.264-.077-.373-.115a7.905,7.905,0,0,1-2.144-.456.432.432,0,0,1-.3-.4c-.085-.77-.169-1.55-.248-2.319a9.23,9.23,0,0,1-.218-2.173c-.369-3.836-.619-7.292-.765-10.566-.168-3.763-.2-7.226-.092-10.588a1.068,1.068,0,0,1,.035-.984,99.046,99.046,0,0,1,1.058-11.228c.382-2.482.8-4.646,1.285-6.614a44.761,44.761,0,0,1,2.047-6.4A30.367,30.367,0,0,1,50.4,51.286a24.851,24.851,0,0,1,2.091-2.606,23.407,23.407,0,0,1,2.492-2.336,33.007,33.007,0,0,1,4.637-3.119,45.624,45.624,0,0,1,5.011-2.4C68.064,39.41,71.7,38.3,75.213,37.236h0c.764-.232,1.63-.5,2.453-.75a131.4,131.4,0,0,0,15.018-5.559c2.516-1.129,4.92-2.338,7.145-3.594a71.852,71.852,0,0,0,6.752-4.307,57.266,57.266,0,0,0,10.534-9.811,43.961,43.961,0,0,0,4.15-5.917c.735-1.255,1.369-2.574,1.982-3.849l0,0c.4-.827.808-1.682,1.244-2.513a1.727,1.727,0,0,1,.664-.713A1.7,1.7,0,0,1,126.009,0,2.164,2.164,0,0,1,127.7.843a1.728,1.728,0,0,1,.279,1.556,24.594,24.594,0,0,1-1.5,3.829A35.1,35.1,0,0,1,124.393,9.9a59.061,59.061,0,0,1-5.077,6.635,62.1,62.1,0,0,1-12.124,10.6,7.058,7.058,0,0,0,.278,4.855,1.048,1.048,0,0,1,.035.8,1.032,1.032,0,0,1-.482.519c.211.78.386,1.586.555,2.366.19.876.387,1.782.634,2.649a40.278,40.278,0,0,0,5.717,12.017,35.8,35.8,0,0,0,8.246,8.488,30.5,30.5,0,0,0,10.7,5.014,30.95,30.95,0,0,0,7.378.893,29.766,29.766,0,0,0,8.075-1.1,26.712,26.712,0,0,0,11.6-6.7,24.734,24.734,0,0,0,3.347-4.083,22.7,22.7,0,0,0,2.349-4.7,21.612,21.612,0,0,0,1.176-5.216,30.667,30.667,0,0,0-.762-10.069,42.964,42.964,0,0,0-1.585-5.146c-.241-.639-.516-1.278-.781-1.9l0,0a25.373,25.373,0,0,1-1.268-3.384,1.487,1.487,0,0,1-.045-.5,6.773,6.773,0,0,1-.938-2.6,6.317,6.317,0,0,1,.224-2.787,1.244,1.244,0,0,1,.105-.248c-.039-.319-.076-.631-.105-.937-.078-.774-.092-1.552-.106-2.3-.008-.458-.017-.93-.04-1.4-.021-.421-.063-.829-.1-1.224a12.857,12.857,0,0,1-.1-2.2.152.152,0,0,1,.152-.148.163.163,0,0,1,.134.072,7.6,7.6,0,0,1,1.063,2.533v0c.089.321.182.653.3,1,.377,1.156.676,2.283.993,3.476l.148.558a20.807,20.807,0,0,0,2.53,5.944,27.011,27.011,0,0,0,8.112,7.925,42.583,42.583,0,0,0,4.426,2.518c1.427.708,2.945,1.376,4.64,2.043,3.148,1.239,6.444,2.283,9.632,3.293h0c3.681,1.167,7.488,2.373,11.081,3.883a50.793,50.793,0,0,1,5.259,2.549,37.6,37.6,0,0,1,4.924,3.279,27.466,27.466,0,0,1,3.9,3.747,23.629,23.629,0,0,1,3.022,4.481c2.187,4.248,2.872,8.962,3.536,13.521.757,5.212,1.426,10.379,1.989,15.357.28,2.473.55,5.045.8,7.642.046.473.11.948.178,1.451a15.457,15.457,0,0,1,.2,3.8,2.521,2.521,0,0,1,.669.09,2.625,2.625,0,0,1,1.225.711,1.938,1.938,0,0,1,.538,1.282,2.155,2.155,0,0,1-.473,1.463,3.347,3.347,0,0,1-1.264.9,13.265,13.265,0,0,1-3.314.8h-.007c-.26.039-.5.076-.721.113-1.877.324-3.582.539-5.213.658a77.446,77.446,0,0,1,1.021,10.154c.2,3.881.248,7.838.294,11.664q.01.871.022,1.742c.021,1.55.025,3.133.03,4.665v.006c.009,3.064.019,6.232.154,9.343a75.894,75.894,0,0,0,.912,9.271,86.38,86.38,0,0,0,2.527,10.522c1.037,3.458,2.237,6.929,3.4,10.286l.074.214.2.565c.464,1.343.944,2.736,1.368,3.965,2.107,6.109,4.286,12.427,6.5,18.616.988,2.758,1.988,5.565,2.955,8.28l.021.06,1.043,2.928c.224.629.452,1.269.671,1.888l.006.017.008.024c.431,1.215.877,2.471,1.323,3.7.127.35.265.7.4,1.047s.259.668.382,1a1.275,1.275,0,0,1,.281.463,29.292,29.292,0,0,0,2.478,5.406A44.686,44.686,0,0,1,249.3,221.9a.068.068,0,0,1,.015.019l.008.011a1.207,1.207,0,0,1,.472-.1,1.3,1.3,0,0,1,.579.142c1.476.735,2.978,1.535,4.592,2.446l.018.007.03.013a.052.052,0,0,1,.01.014,127.25,127.25,0,0,1,13.331,8.777c3.8,2.832,7.754,6.022,12.432,10.039,4.2,3.6,8.292,7.211,12.169,10.719a101.971,101.971,0,0,1,10.747,10.978,53.775,53.775,0,0,1,4.391,6.214,42.537,42.537,0,0,1,3.332,6.834,50.725,50.725,0,0,1,2.246,8.006c.486,2.418.874,5.035,1.222,8.235.272,2.506.442,4.927.5,7.2a66.61,66.61,0,0,1-.18,7.251,50.975,50.975,0,0,1-1.083,7.142,40.909,40.909,0,0,1-2.2,6.869A32.775,32.775,0,0,1,308.412,329a31.578,31.578,0,0,1-4.836,5.335c-.1.085-.2.171-.29.247l-.007.005-.17.143a20.739,20.739,0,0,1-8.019,7.322l-.167.236-.03.042,0,0c-.114.162-.232.329-.35.492l-.554.142-.059.015-.658.168-.12.12a1.181,1.181,0,0,1-.833.361,1.21,1.21,0,0,1-.494-.108c-3.5.9-6.316,1.624-8.847,2.274-.638.164-1.289.334-1.918.5l-.037.01c-2.6.678-5.283,1.379-7.957,1.924a49.658,49.658,0,0,1-8.1,1.043c-.356.013-.719.02-1.077.02a30.635,30.635,0,0,1-3.978-.264,34.344,34.344,0,0,1-3.891-.748,43.8,43.8,0,0,1-7.5-2.683,66.366,66.366,0,0,1-7.313-3.978c-2.378-1.473-4.741-3.086-6.94-4.611-2.6-1.8-5.228-3.677-7.764-5.487l-.006,0,0,0c-1.775-1.267-3.611-2.577-5.426-3.853-1.636-1.151-3.177-2.207-4.709-3.228l-.008,0h0c-.421-.219-.856-.445-1.28-.644-.995-.469-1.985-1-2.943-1.507-.572-.305-1.164-.62-1.749-.919-3.418-1.748-6.872-3.368-9.5-4.585-.92-.428-1.931-.873-3.089-1.362a3.271,3.271,0,0,1-.012.916c-.3,1.958-2.5,3.029-4.373,3.743a11.028,11.028,0,0,1-3.894.678c-.214,0-.431-.006-.645-.016a14.871,14.871,0,0,1-2.273-.291,12.96,12.96,0,0,1-2.2-.661.169.169,0,0,0,0,.035c.278,4.109.4,8.33.366,12.906,0,.511-.005,1.044-.007,1.514a53.789,53.789,0,0,1-.806,11.131,12.783,12.783,0,0,1-2.6,5.453,13.554,13.554,0,0,1-4.807,3.677,68.883,68.883,0,0,1-9.6,3.372l-.024.007c-.564.167-1.147.34-1.716.512-4.213,1.273-8.071,2.275-11.795,3.062-2.034.43-4.051.8-5.994,1.095-2.048.313-4.084.556-6.051.724C139.438,363.432,137.525,363.515,135.686,363.515ZM74.39,262.96l-.307.079A63.69,63.69,0,0,0,63.2,266.564a23.205,23.205,0,0,0-4.793,2.917,18.364,18.364,0,0,0-2.07,1.936,17.534,17.534,0,0,0-1.791,2.327,20.443,20.443,0,0,0-2.094,4.345,26.562,26.562,0,0,0-1.141,4.7,43.538,43.538,0,0,0-.258,9.673c.117,1.641.3,3.274.532,4.853.052.35.1.716.142,1.1a11.052,11.052,0,0,0,.976,4,7.1,7.1,0,0,0,2.359,2.128A12.5,12.5,0,0,1,56.5,305.6a13.882,13.882,0,0,1,1.671,1.827,17.565,17.565,0,0,1,1.363,2.069,40.831,40.831,0,0,1,2.968,7.391v0c.18.548.365,1.115.552,1.668a30.457,30.457,0,0,0,1.622,4.044,11.935,11.935,0,0,0,2.528,3.443,8.73,8.73,0,0,0,3.077,1.73,9.373,9.373,0,0,0,3.091.521c.29,0,.607-.011.969-.032a10.158,10.158,0,0,0,1.779-.308,9,9,0,0,0,1.745-.618,11.585,11.585,0,0,0,1.505-.948,6.5,6.5,0,0,1,2.668-1.294,2.422,2.422,0,0,1,.475-.046,2.785,2.785,0,0,1,1.253.3c.282-.2.513-.355.727-.491l-.083-.122-.006-.009c-.217-.319-.442-.649-.663-.971L78.9,316.7l-1.767-2.577-9.724-14.181a2.476,2.476,0,0,1-.419-1.479,3.176,3.176,0,0,1,.431-1.494c-.15-.387-.289-.8-.426-1.262a17.514,17.514,0,0,1-.7-4.409,24.613,24.613,0,0,1,.29-4.517,25.631,25.631,0,0,1,1.1-4.393,26.344,26.344,0,0,1,4.506-8.158,23.468,23.468,0,0,1,3.332-3.425c-.283-1.453-.524-2.9-.717-4.309-.157-1.132-.3-2.323-.411-3.538ZM183.4,309.276c.306,2.5.571,5.092.787,7.693a10.8,10.8,0,0,0,1.089.056,9.588,9.588,0,0,0,3.189-.537,13.155,13.155,0,0,0,2.964-1.538c.279-.189.545-.392.8-.589h0a11.729,11.729,0,0,1,1.095-.774l-.129-.052C189.94,312.226,186.571,310.873,183.4,309.276ZM34.263,255.045c-.25.449-.5.9-.746,1.337-.934,1.67-1.9,3.4-2.777,5.138a61.016,61.016,0,0,0-3.684,8.867c-.756,3.153-1.442,6.576-2.1,10.467-.337,1.993-.627,4.029-.907,6v0c-.316,2.22-.643,4.515-1.039,6.76a25.847,25.847,0,0,1-1.631,5.722,17.9,17.9,0,0,1-1.373,2.61,15.606,15.606,0,0,1-1.851,2.36,31.561,31.561,0,0,1-6.268,4.687c-.447.28-.91.569-1.368.862a17.011,17.011,0,0,0-3.28,2.506,6.165,6.165,0,0,0-1.6,2.451l.057.015.009,0a3.282,3.282,0,0,0,.4.086,22.022,22.022,0,0,0,2.489.13c.213,0,.432,0,.653-.007a32.919,32.919,0,0,0,6.439-.849c2.188-.489,4.379-1.111,6.5-1.713,2.092-.594,4.256-1.209,6.414-1.695a50.521,50.521,0,0,1,11.067-1.261c.889,0,1.785.026,2.662.077a56.616,56.616,0,0,1,6.136.629,26.584,26.584,0,0,1,5.991,1.632c-.162-.275-.332-.546-.506-.806a13.218,13.218,0,0,0-2.962-2.765l-.01-.007c-.25-.191-.508-.388-.755-.583a8.987,8.987,0,0,1-3.33-5.8,71.1,71.1,0,0,1-1.088-11.684,46.985,46.985,0,0,1,.291-5.648,34.245,34.245,0,0,1,1.092-5.561,25.315,25.315,0,0,1,2.122-5.194,20.59,20.59,0,0,1,3.381-4.545c.015-.013.031-.028.045-.043.013-.258.02-.51.023-.771a2.851,2.851,0,0,1-1.3-.975,2.609,2.609,0,0,1-.511-1.582,37.705,37.705,0,0,1,.469-5.967,2.3,2.3,0,0,1-1-.784,2.25,2.25,0,0,1-.407-1.3,9.246,9.246,0,0,1,1.162-3.9c.126-.269.255-.547.378-.823.629-1.422,1.262-2.855,1.8-4.069.44-1,.884-2,1.314-2.978l.014-.033c.741-1.681,1.507-3.418,2.265-5.125,2.568-5.772,5.269-11.6,7.882-17.232,1.633-3.523,3.322-7.165,4.965-10.765,2-4.375,3.535-7.937,4.842-11.211.717-2.962,1.56-5.944,2.376-8.828.317-1.121.645-2.28.962-3.425a121.977,121.977,0,0,0,2.874-12.33,84.838,84.838,0,0,0,1.068-13.061c.047-4.082-.127-8.434-.532-13.3-.395-4.744-.955-9.357-1.452-13.243-1.013-7.952-2.189-17.378-3.225-27A206.966,206.966,0,0,0,54.3,109.294c-.59,0-1.192,0-1.787.008a95.6,95.6,0,0,1-.517,22.243c-.173,2.21-.414,4.543-.737,7.134-.517,4.158-1.233,8.678-2.189,13.819-.852,4.585-1.813,9.228-2.741,13.718-.989,4.783-2.012,9.728-2.907,14.613-1,5.478-1.736,10.3-2.239,14.733-.523,4.608-.941,9.41-1.279,14.679-.283,4.422-.511,9.237-.7,14.718-.148,4.378-.257,9.17-.333,14.648-.033,2.346-.061,4.821-.085,7.567l-.013,1.521q-.009,1.07-.018,2.14c0,.136,0,.272,0,.417a5.8,5.8,0,0,1-.125,1.6,4.568,4.568,0,0,1-.816,1.449c-.07.095-.149.2-.222.306a2.3,2.3,0,0,1-1.87,1.031A2.157,2.157,0,0,1,34.263,255.045Zm135.648-1.686a.8.8,0,0,0-.637.464c-.5.816-.042,2.081.322,3.1v0c.106.3.207.577.271.813.475,1.752.953,3.665,1.5,6.021.932,4,1.743,8.039,2.408,12.013.674,4.026,1.221,8.112,1.625,12.144.193,1.919.355,3.876.511,5.768v.008c.218,2.638.444,5.367.757,8.037a.875.875,0,0,0,.289.576.8.8,0,0,0,.525.193.784.784,0,0,0,.785-.769,66.026,66.026,0,0,0-.1-12.2c-.323-3.511-.885-7.352-1.767-12.087-.692-3.713-1.609-7.581-2.8-11.826-.512-1.82-1.125-3.757-1.872-5.92-.3-.88-.628-1.79-.963-2.7-.092-.25-.189-.509-.274-.738l0-.01c-.073-.2-.149-.4-.223-.6-.033-.089-.075-.181-.12-.278a1.076,1.076,0,0,1-.166-.769.511.511,0,0,1,.313-.27.085.085,0,0,0-.045.092.054.054,0,0,0,.055.047h.01a.322.322,0,0,0,.3-.372A.814.814,0,0,0,169.911,253.358ZM178.5,286.3a.084.084,0,0,0-.075.058.073.073,0,0,0,.019.084,29.965,29.965,0,0,0,4.677,3.236c1.686.97,3.478,1.859,5.06,2.643a63.733,63.733,0,0,0,10.713,4.349.68.68,0,0,0,.189.027.809.809,0,0,0,.741-.668.6.6,0,0,0-.36-.711c-1.621-.692-3.283-1.362-4.89-2.01-1.918-.773-3.9-1.571-5.827-2.414-1.256-.55-2.521-1.159-3.745-1.748h0a67.233,67.233,0,0,0-6.476-2.842A.07.07,0,0,0,178.5,286.3ZM71.318,219.756c-1.316,3.336-2.7,6.705-4.047,9.964l-.1.233c-2.086,5.058-4.284,10.165-6.349,14.931-1.089,2.512-2.194,5.066-3.144,7.262-.419.964-.854,1.967-1.237,2.852l-.075.173-.36.831c-.074.17-.146.343-.216.51a15.953,15.953,0,0,1-.722,1.563c.041.256.075.5.1.693s.047.343.067.447c.1.52.192,1.049.284,1.56.26,1.442.529,2.934.854,4.39A3.008,3.008,0,0,1,56.4,266.4c.523-.31,1.078-.6,1.65-.876a32.652,32.652,0,0,1,5.311-2.382l.017-.007.748-.284c3.261-1.247,6.594-2.187,10.008-3.12a95.619,95.619,0,0,1,.675-18.512c.315-2.335.653-4.445,1.033-6.45.135-.708.292-1.428.443-2.123a41.594,41.594,0,0,0,.763-4.18c.233-2.073,0-5.079-1.424-6.728a3.422,3.422,0,0,0-2.566-1.212A2.325,2.325,0,0,1,71.318,219.756ZM299.1,263.481h0c.459.644.923,1.318,1.379,2.005a1.655,1.655,0,0,1,.261-.168C300.229,264.73,299.677,264.112,299.1,263.481ZM74.327,262.274l-.509.141-.6.167h.053c.356-.009.725-.019,1.086-.024C74.342,262.461,74.335,262.368,74.327,262.274ZM74.2,83.186a.142.142,0,0,1,.144.107c.895,3.549,1.551,7.234,2.185,10.8v0c.266,1.5.542,3.043.831,4.554.7,3.64,1.358,7.345,2,10.927.247,1.385.5,2.817.76,4.242,1.855,10.263,3.238,18.767,4.351,26.763.711,5.105,1.183,9.322,1.485,13.271a119.2,119.2,0,0,1,.328,13.344A87.732,87.732,0,0,1,84.8,180.173c-.7,3.8-1.651,7.839-2.986,12.727-1.027,3.757-2.19,8.016-3.057,12.242-.393,1.927-.7,3.988-.94,6.3a13.746,13.746,0,0,0,.845,2.5,2.279,2.279,0,0,1,1.117,1.011,2.726,2.726,0,0,1,.37,1.505c.183.229.382.454.574.672a10.107,10.107,0,0,1,.968,1.216,61.9,61.9,0,0,0,17.132,5.679,89.191,89.191,0,0,0,9.611,1.22c3.03.228,6.2.339,9.7.339,1.877,0,3.82-.032,5.94-.1,4.763-.144,9.441-.37,13.9-.672,4.738-.32,9.4-.737,13.863-1.239,4.966-.559,9.748-1.259,14.214-2.079,4.87-.894,9.58-1.971,14-3.2a129.14,129.14,0,0,0,13.431-4.507l.09-.036.063-.026a43.969,43.969,0,0,0,7.884-2.7c.725-.329,1.468-.647,2.187-.955h0c.981-.42,2-.855,2.974-1.32a13.392,13.392,0,0,0,2.133-1.2,4.69,4.69,0,0,0,1.588-1.815.9.9,0,0,0,.085-.378,11.809,11.809,0,0,0,1.482-3.819,12.027,12.027,0,0,0,.253-2.98,15.261,15.261,0,0,0-.421-2.971,25.728,25.728,0,0,0-2.243-5.761c-.815-1.58-1.717-3.144-2.589-4.657h0a73.44,73.44,0,0,1-3.88-7.366,57.207,57.207,0,0,1-2.36-6.5,59.41,59.41,0,0,1-1.569-6.735,91.312,91.312,0,0,1-1.233-14.119c-.067-4.085.058-8.459.4-14.181.479-7.9,1.037-15.933,1.576-23.7l0-.024v-.006c.16-2.31.326-4.7.488-7.047.419-6.117.837-11.1,1.315-15.692.591-5.682,1.278-10.786,2.1-15.6a.17.17,0,0,1,.177-.153.234.234,0,0,1,.237.208c.25,4.122.377,8.441.388,13.2.009,3.95-.061,8.148-.22,13.212.08-.016.16-.035.236-.053a3.137,3.137,0,0,1,.714-.107h.279l.485,0h.059l.554,0c.177,0,.334,0,.482,0,1.252-.02,2.48-.045,3.729-.12a62.939,62.939,0,0,0,7.2-.816c1.644-.291,3.809-.7,5.978-1.277a8.4,8.4,0,0,1-.532-2.674c-.111-1.335-.236-2.747-.394-4.442-.259-2.745-.549-5.563-.863-8.378-.565-5.037-1.246-10.89-2.187-16.614a35.905,35.905,0,0,0-1.44-5.986,20.183,20.183,0,0,0-2.8-5.452,21.574,21.574,0,0,0-3.491-3.68,31.52,31.52,0,0,0-4.152-2.925,51.418,51.418,0,0,0-8.087-3.829c-2.784-1.063-5.681-1.98-8.483-2.867l-.013,0c-1.2-.379-2.433-.77-3.644-1.168a77.481,77.481,0,0,1-9.63-3.781,46.538,46.538,0,0,1-4.547-2.5,35.151,35.151,0,0,1-4.156-3.045c.143.631.279,1.3.419,2.038a36.8,36.8,0,0,1,.643,6.268,30.269,30.269,0,0,1-.558,6.272,25.017,25.017,0,0,1-1.83,5.612,27.039,27.039,0,0,1-3.027,5.018,29.336,29.336,0,0,1-4.017,4.3,30.8,30.8,0,0,1-4.8,3.448,31.775,31.775,0,0,1-15.984,4.169,34.542,34.542,0,0,1-8.726-1.119,33.051,33.051,0,0,1-5.885-2.161,34.911,34.911,0,0,1-5.37-3.2,36.446,36.446,0,0,1-4.734-4.09,37.044,37.044,0,0,1-3.977-4.843,38.09,38.09,0,0,1-3.1-5.436,39.344,39.344,0,0,1-2.187-5.864,33.973,33.973,0,0,1-1.141-6.072c-.023-.229-.039-.5-.056-.782h0c-.028-.472-.06-1.007-.132-1.533a1.411,1.411,0,0,1-.176-.308,9.4,9.4,0,0,1-.517-1.73,1.764,1.764,0,0,0-1.088-.709.36.36,0,0,1-.262-.187.436.436,0,0,1,0-.376C101.213,30.81,99.1,31.93,96.9,32.979c-2.053.981-4.252,1.937-6.534,2.841C86.373,37.4,81.96,38.9,76.875,40.384l-.865.253a99.162,99.162,0,0,0-10.878,3.637,37.808,37.808,0,0,0-5.085,2.582,26.8,26.8,0,0,0-4.542,3.464,22.883,22.883,0,0,0-3.781,4.741,26.536,26.536,0,0,0-2.5,5.53,81.346,81.346,0,0,0-3.34,16.6c-.151,1.427-.279,2.895-.391,4.487.917,1.377.934,3.253.95,4.908v0c0,.328.006.638.015.943.089,2.837.108,5.753.058,8.666-.018,1.011-.084,2.053-.148,3.061v0a40.068,40.068,0,0,0-.105,5.173,2.878,2.878,0,0,0,.37,1.371,1.9,1.9,0,0,0,1.127.805c.274.082.55.149.816.214l.027.007c4.588-.33,9.242-.394,13.589-.413,2.652-.013,5.251-.025,7.9-.035.391,0,.79,0,1.164,0h.486c.736,0,1.52,0,2.3-.018.194,0,.387-.012.573-.02h.005c.244-.011.475-.02.7-.02a4.2,4.2,0,0,1,.95.091c-.324-3.03-.667-6.277-.981-9.493-.128-1.315-.274-2.655-.415-3.95v0h0c-.345-3.158-.7-6.423-.825-9.634a.135.135,0,0,1,.037-.1A.162.162,0,0,1,74.2,83.186ZM246.062,219.428h0c.434.717.9,1.424,1.392,2.1l.4.168.381.16a1.313,1.313,0,0,1,.3.168c.088.034.179.068.267.1h0l.016.006.065.024C247.8,221.212,246.8,220.2,246.062,219.428Zm-19.434-7.792a1.3,1.3,0,0,1,.584.145c4.649,2.336,8.827,4.492,12.774,6.59l.317.138.025.011.332.144c-.034-.067-.066-.132-.1-.2l-.031-.065a2.365,2.365,0,0,1-.692-.4c-1.485-1.237-2.03-3.145-2.557-4.99v0c-.138-.482-.28-.981-.436-1.452l-.821-2.479q-.622-1.878-1.213-3.663c-1.492-4.5-2.871-8.674-4.218-12.76-1.648-5-3.389-10.063-5.074-14.96v0l-.006-.017c-.854-2.481-1.736-5.047-2.6-7.573-1.1-3.246-2.374-7.095-3.42-11.026a77.23,77.23,0,0,1-2.2-11.319,98.839,98.839,0,0,1-.551-9.973c-.034-3.334.044-6.724.12-10v-.015c.029-1.233.058-2.508.081-3.76.016-.9.029-1.844.041-2.679.084-5.991.17-12.187,1.331-18.067-.291.01-.576.018-.848.023-.215,0-.431,0-.641,0a45.762,45.762,0,0,1-6.232-.43c-1-.137-2.309-.335-3.626-.644-.67-.157-1.228-.29-1.8-.456a2.476,2.476,0,0,1-.668-.32l-.135-.083c-.1,3.132-.222,6.2-.348,9.332-.135,3.369-.292,6.789-.444,10.1v0c-.319,6.95-.649,14.136-.795,21.206a136.857,136.857,0,0,0,.271,14.112,66.258,66.258,0,0,0,2.447,13.875,46,46,0,0,0,2.516,6.508c.887,1.884,1.931,3.842,3.287,6.163l.079.135c2.3,3.934,4.674,8,5.646,12.477a18.931,18.931,0,0,1,.263,6.1,1.12,1.12,0,0,1,.078.919l-.085.275-.008.025a13.992,13.992,0,0,0-.557,2.212,3.84,3.84,0,0,0,.244,2.2,3.04,3.04,0,0,0,.236.411l.593.265.01,0c.926.413,1.883.841,2.82,1.283,2.042.966,4.041,1.982,5.554,2.76A1.185,1.185,0,0,1,226.628,211.635ZM103.665,29.387a2.641,2.641,0,0,1,.708.1c0-.182,0-.365,0-.543-.1.061-.206.125-.307.187l-.005,0c-.137.085-.279.173-.423.257Z" transform="translate(18.557 -11.768)"/>
    </g>
    <g id="Head" transform="translate(86.512 45.072)">
      <g id="HEAD-2" data-name="HEAD">
        <path id="_Skin-2" data-name="âœ‹ Skin" d="M99.066,43.833c-.948-15.575-6-33.234-20.864-40.881C45.433-10.208,2.347,22.934.066,56.791-.729,68.38,5.7,81.044,17.452,84.266c2.613,3.464,6.564,5.579,10.464,7.415,46.449,24.115,76.454,4.512,71.15-47.848Z" transform="translate(9.008 23.788)" fill="#d08b5b"/>
        <path id="_Ink-2" data-name="ðŸ– Ink" d="M139.926,49.959q-2.462-6.843-5.2-13.582a140.211,140.211,0,0,0-5.588-13C115.961-1.5,92-1.5,79.613,1.75,73.189-1.02,61.158-.239,54.47,2.26,43.642,6.306,30.442,22.221,25.93,29.371c-9.964,15.787-16.182,36.8-9.564,55.043a41.113,41.113,0,0,0,3.21,6.721A26.206,26.206,0,0,1,16.9,94.189a93.607,93.607,0,0,0-8.491,9.084A45.175,45.175,0,0,0,2.179,113.92c-2.962,7.275-3.1,15.512.811,22.453,3.407,6.04,9.441,10.537,16.24,10.966.349.049.7.093,1.05.128a19.666,19.666,0,0,0,3.253,4.044c3.841,3.656,13,5.531,18.219,5.652.268.215.538.431.808.644a58.346,58.346,0,0,0,10.217,6.846c2.485,1.214,5.743,2.229,8.335,1.352a4.522,4.522,0,0,0,4.271-.023,11.3,11.3,0,0,0,4.424-4.908c2.3-4.73,1.747-9.906,1.156-14.959-.651-5.581-1.276-11.165-1.912-16.747a69.171,69.171,0,0,0-2.345-13.006,29.894,29.894,0,0,0-2.745-6.24,1.026,1.026,0,0,0-.023-.486,5.948,5.948,0,0,0-2.1-2.727c-.12-.108-.24-.218-.358-.331a11.27,11.27,0,0,0-1.5-1.442c-.205-.208-.408-.418-.611-.629A50.93,50.93,0,0,1,54.69,98.9c-1.371-1.928-2.61-3.941-3.788-5.992-1.2-2.086-1.992-4.387-3.188-6.458a.328.328,0,0,0-.508-.065,1.63,1.63,0,0,0-.563,1.257l-.185.028a1.259,1.259,0,0,0-1.539-1.079,6.093,6.093,0,0,1-3.4-.118c.193-1.28.37-2.562.546-3.846.32-2.364.618-4.735.873-7.106a10.3,10.3,0,0,1,1.832.631,8.827,8.827,0,0,1,2.355,1.532c.681.626,1.151,1.47,1.982,1.906a1.261,1.261,0,0,0,1.829-1.407c-.568-2.186-3.783-3.438-5.773-3.851a9.2,9.2,0,0,0-2.079-.188q.236-2.284.413-4.57.083-1.082.153-2.166a11.365,11.365,0,0,1,4.812-.388c.53.423,1.061.841,1.574,1.265,1.629,1.347,3.25,2.7,4.852,4.082.145.123.288.245.433.371a1.194,1.194,0,0,0,1.977-1.152c-1.306-9.5,4.509-17.057,11.318-22.912,7.537-6.483,21.24-7.238,30.2-18.467,4.128.841,13.345,3.338,17.148,9.4,5.325,8.5,4.629,16.113,5.035,25.754s1.436,19.711-.753,29.224c-2.019,8.772-7.487,16.266-15.97,19.711-.21.085-.423.168-.636.248A25.661,25.661,0,0,1,89.85,115.8c-5.107-.967-9.371-3.305-13.62-6.182-.245-.163-.6.173-.418.418,5.6,7.427,16.6,9.908,25.326,7.948q.612-.139,1.216-.3a22.979,22.979,0,0,0,.983,17.25,23.221,23.221,0,0,0,6.7,8.383c3.13,2.474,7.014,4.472,9.186,7.945,1.989,3.183,1.4,6.758-2.007,8.6a1.687,1.687,0,0,0-.338,2.632c.325.25.651.506.983.756a39.215,39.215,0,0,0,7.992,4.244c7.532.894,12.6-4.64,15.842-11.168,3.811-7.662,2.82-17-1.379-24.3-3.368-5.854-10-11.624-7.364-19.033a21.411,21.411,0,0,1,4.734-6.941c2.132-2.321,4.424-4.495,6.468-6.9A24.555,24.555,0,0,0,149,91.17c1.469-4.377.738-9.11-.365-13.479C146.267,68.311,143.2,59.056,139.926,49.959Z" transform="translate(-21.27 7.973)"/>
      </g>
      <g id="FACE" transform="translate(39.871 46.574)">
        <path id="_Ink-3" data-name="ðŸ– Ink" d="M27.09,48.029a9.564,9.564,0,0,1-3.623-.722A10.237,10.237,0,0,1,21.1,45.951a10.064,10.064,0,0,1-1.925-1.939,1.983,1.983,0,0,1-.4-1.537,2.216,2.216,0,0,1,.864-1.389,2.13,2.13,0,0,1,1.267-.44,1.841,1.841,0,0,1,.283.022,1.956,1.956,0,0,1,1.309.864l.077.107a6.757,6.757,0,0,0,2.476,2.075,5.629,5.629,0,0,0,2.456.572,5.45,5.45,0,0,0,.609-.034,6.4,6.4,0,0,0,2.7-.95,12.657,12.657,0,0,0,2.29-1.909c.164-.167.338-.348.563-.588a.891.891,0,0,1,.467-.359.959.959,0,0,1,.3-.048,1.035,1.035,0,0,1,.847.442.942.942,0,0,1,.16.621,5.694,5.694,0,0,1-.677,2.208,7.372,7.372,0,0,1-1.448,1.856,9.307,9.307,0,0,1-2.193,1.526,9.139,9.139,0,0,1-2.433.833A8.975,8.975,0,0,1,27.09,48.029Zm2.55-14.419h0a8.765,8.765,0,0,1-3.121-.628,15.772,15.772,0,0,1-3.671-2.08,1.408,1.408,0,0,1-.512-.814,1.683,1.683,0,0,1,.073-.914,2.078,2.078,0,0,1,.618-.892,1.506,1.506,0,0,1,.963-.375,1.368,1.368,0,0,1,.745.228l.248.191,0,0a19.875,19.875,0,0,0,2.3,1.6,5.667,5.667,0,0,0,2.754.877,2.978,2.978,0,0,0,1.164-.228,3.252,3.252,0,0,0,1.084-.767,3.315,3.315,0,0,0,.631-2.672,5.045,5.045,0,0,0-1.341-2.37,9.778,9.778,0,0,0-2.031-1.637.628.628,0,0,1-.17-.723.943.943,0,0,1,.313-.45.961.961,0,0,1,.6-.2,1.279,1.279,0,0,1,.215.019,6.816,6.816,0,0,1,2.395.864,5.429,5.429,0,0,1,1.611,1.483,5.885,5.885,0,0,1,1.028,3.936,6.477,6.477,0,0,1-.527,2.066A6.026,6.026,0,0,1,33.821,31.9,5.678,5.678,0,0,1,29.64,33.611ZM9.329,19.531A2.09,2.09,0,0,1,7.3,17.675a15.027,15.027,0,0,1,.08-3.919c.047-.381.1-.774.13-1.2A2.345,2.345,0,0,1,8.4,10.88a2.745,2.745,0,0,1,1.687-.592,2.081,2.081,0,0,1,1.276.4,1.888,1.888,0,0,1,.7,1.252,10.5,10.5,0,0,1-1.1,6.48,2.08,2.08,0,0,1-.734.848A1.7,1.7,0,0,1,9.329,19.531Zm29.815-.889a1.792,1.792,0,0,1-1.4-.6,5.476,5.476,0,0,1-.857-1.452,6.319,6.319,0,0,1-.437-1.75,3.706,3.706,0,0,1,1.013-3.184,2.1,2.1,0,0,1,.162-.247,2.3,2.3,0,0,1,1.765-1.014,1.915,1.915,0,0,1,.536.079,2.58,2.58,0,0,1,1.725,1.5,5.306,5.306,0,0,1,.213,2.907,9.719,9.719,0,0,1-.883,2.742,1.781,1.781,0,0,1-.763.752A2.314,2.314,0,0,1,39.143,18.642ZM.33,9.3a.325.325,0,0,1-.271-.166.362.362,0,0,1-.022-.356A12.354,12.354,0,0,1,2.81,5.277,17.148,17.148,0,0,1,6.523,2.745,15.978,15.978,0,0,1,10.93,1.21l.471-.082A11.486,11.486,0,0,1,13.325.919,2.975,2.975,0,0,1,15.7,1.8a2.012,2.012,0,0,1,.477,1.431,1.31,1.31,0,0,1-.477.935,3.661,3.661,0,0,1-2.507.734c-.2,0-.4-.005-.6-.01h-.007c-.19,0-.405-.01-.619-.01-.2,0-.372,0-.537.014A16.971,16.971,0,0,0,7.7,5.532,25.365,25.365,0,0,0,.5,9.248.309.309,0,0,1,.33,9.3Zm45.4-1.9h0l-.2-.05a11.239,11.239,0,0,1-2.176-.848l-.707-.348A19.648,19.648,0,0,0,40.12,5.089a29.826,29.826,0,0,0-5.75-1.268,2.351,2.351,0,0,1-1.153-.437,1.726,1.726,0,0,1-.645-.981,1.754,1.754,0,0,1,.2-1.471A1.876,1.876,0,0,1,33.68.148,2.05,2.05,0,0,1,34.456,0,2.289,2.289,0,0,1,34.9.045l.36.074a25.76,25.76,0,0,1,6.21,2.014,12.559,12.559,0,0,1,2.731,1.793,7.963,7.963,0,0,1,1.931,2.492c.068.52,0,.649-.065.737l-.02.025-.018.024a.5.5,0,0,1-.308.2Z" transform="translate(13.29 13.021)"/>
      </g>
    </g>
  </g>
</svg>
