<svg xmlns="http://www.w3.org/2000/svg" width="462.399" height="626" viewBox="0 0 462.399 626">
  <g id="peep-sitting-5" transform="translate(49.399)">
    <g id="BODY" transform="translate(-20.311 159.505)">
      <path id="_Skin" data-name="âœ‹ Skin" d="M88.4,371.243h-.084c-3.325,0-6.527-.083-9.515-.246a106.576,106.576,0,0,1-11.482-1.187,39.925,39.925,0,0,1-10.062-2.8,13.131,13.131,0,0,1-3.44-2.216,6.126,6.126,0,0,1-1.815-2.872,14.576,14.576,0,0,1-1.881-7.489,11.687,11.687,0,0,1,.7-3.823,8.626,8.626,0,0,1,2.046-3.193,27.677,27.677,0,0,1,.811-11.951A29.128,29.128,0,0,1,56,329.778a27.442,27.442,0,0,1,3.5-5.07l.013.019a63.663,63.663,0,0,0,4.652-7.849,19.434,19.434,0,0,0,1.949-6.528,19.071,19.071,0,0,0-.662-6.794,59.166,59.166,0,0,0-3.181-8.648c-1.173-.045-2.406-.088-3.494-.126-4.641-.163-9.44-.332-14.149-.73-2.537-.215-4.835-.476-7.027-.8-2.463-.364-4.726-.8-6.917-1.32l.384-2.293c-.365-.1-2.31-.608-2.736-.718.011.086.032.232.058.416l0,.014v0c.106.756.283,2.02.278,2.329a1.814,1.814,0,0,1-1.182.586.655.655,0,0,1-.671-.607c-3.8-16.263-7.435-32.618-10.947-48.434-2.449-11.03-4.981-22.436-7.557-33.745-.419-1.772-.854-3.571-1.316-5.476-1.666-6.88-3.555-14.678-4.936-22.561a114.526,114.526,0,0,1-2.013-23.56c.067-1.943.21-3.838.424-5.633a54.146,54.146,0,0,1,.921-5.419,44.438,44.438,0,0,1,1.481-5.151,37.7,37.7,0,0,1,2.1-4.827,33.7,33.7,0,0,1,2.788-4.448,32.367,32.367,0,0,1,3.536-4.015,33.846,33.846,0,0,1,4.347-3.526,38.468,38.468,0,0,1,5.22-2.981l-.668-2.849c-1.785,0-2.5-1.946-3.321-4.695-1.644-4.433-1.246-9.207,1.184-14.188a33.174,33.174,0,0,1,4.009-6.2,47.528,47.528,0,0,1,4.886-5.178C35.987,79.737,44.323,69.7,52.384,59.992l.1-.115c5.678-6.9,11.276-13.653,17.331-20.3A194.677,194.677,0,0,1,89.837,20.214a119.091,119.091,0,0,1,11.034-8.106c1.923-1.24,3.865-2.4,5.773-3.444,1.978-1.083,3.978-2.078,5.945-2.955,2.034-.907,4.092-1.717,6.117-2.406A64.695,64.695,0,0,1,125,1.509,59.849,59.849,0,0,1,131.46.388a57.13,57.13,0,0,1,15.654.327l-.135,1.654c1.437.181,2.918.412,4.35.635h0a66.635,66.635,0,0,0,10.152,1.055,25.97,25.97,0,0,0,4.69-.4,60.448,60.448,0,0,1,10.291-.877A63.652,63.652,0,0,1,203.4,8.808a60.384,60.384,0,0,1,11.755,7.249,55.543,55.543,0,0,1,9.7,9.827l.491-3.257c.046-.307.156-.591.642-.591h.04c.607,0,.931.495,1.168.979a39.615,39.615,0,0,1,7.635,4.05,46.327,46.327,0,0,1,6.613,5.48,59.505,59.505,0,0,1,5.7,6.612,80.243,80.243,0,0,1,4.906,7.448,130.457,130.457,0,0,1,7.872,16.212c2.268,5.5,4.269,11.071,6.035,15.986l.014.039c.407,1.133.792,2.2,1.178,3.27a18.227,18.227,0,0,1,.68,3.54,2.749,2.749,0,0,1-.087,1.115l-1.337.8A140.929,140.929,0,0,1,283.2,117.486a337.2,337.2,0,0,1,11.282,31.871,27.819,27.819,0,0,1,1.23,3.91,12.178,12.178,0,0,1,.325,3.379,7.674,7.674,0,0,1-.759,2.962,9.143,9.143,0,0,1-2.02,2.661,104.233,104.233,0,0,1,16.534,12.167,66.571,66.571,0,0,1,12.347,14.71,45.863,45.863,0,0,1,3.9,8.166,37.954,37.954,0,0,1,2,8.63,35.629,35.629,0,0,1-.178,9.038,37.846,37.846,0,0,1-.995,4.654,41.648,41.648,0,0,1-1.645,4.734,56.156,56.156,0,0,1-5.261,7.759,74.447,74.447,0,0,1-6.626,7.177c-2.32,2.216-4.926,4.454-7.746,6.652-2.621,2.043-5.522,4.124-8.622,6.186-5.355,3.562-11.534,7.227-18.891,11.205-6.5,3.515-13.086,6.831-19.455,10.038l0,0c-3.9,1.964-7.585,3.819-11.179,5.682a115.777,115.777,0,0,1-12.721,5.553h0c-4.243,1.662-8.63,3.381-12.764,5.469a56.133,56.133,0,0,0-5.97,3.451,38.065,38.065,0,0,0-5.321,4.25,7.578,7.578,0,0,1-1.094,1.3,1.81,1.81,0,0,1-1.051.583.519.519,0,0,1-.069,0,1.123,1.123,0,0,1-.164.012h0c-.72,0-1.531-.688-2.408-2.044a35.291,35.291,0,0,1-3.156-6.979c-.95-2.67-1.9-5.818-2.74-9.1-1.6-6.244-2.487-11.664-2.06-12.607A28.239,28.239,0,0,1,193,270.168c-1.671.278-3.4.462-5.068.64h-.007c-1.829.195-3.719.4-5.536.72a6.538,6.538,0,0,0,.478.807c.568.869,1.212,1.854.362,2.7a46.3,46.3,0,0,1-1.2,10.589,13.979,13.979,0,0,1,2.188-.192c1.428,0,2.219.311,2.369.618a.232.232,0,0,1-.012.238c-.149.238-.68.381-1.419.381a11.431,11.431,0,0,1-3.034-.51l-.062.585c-.184,1.721-.527,4.924-.668,6.227a11.04,11.04,0,0,1,4.043-.822,3.55,3.55,0,0,1,2.488.714c-.163.525-.737.769-1.807.769a18.93,18.93,0,0,1-1.946-.146h0l-.03,0a18.331,18.331,0,0,0-1.87-.142,3.336,3.336,0,0,0-.9.1c-.634,4.7-1,9.434-1.352,14.011-.2,2.535-.4,5.157-.644,7.75a21.65,21.65,0,0,0,4.1,3c1.474.858,3.051,1.62,4.576,2.358,1.718.831,3.493,1.689,5.11,2.68a21.883,21.883,0,0,1,2.315,1.615,15.568,15.568,0,0,1,2.035,1.949,9.561,9.561,0,0,1,2.6,7.542,9.787,9.787,0,0,1-.382,1.943,9.512,9.512,0,0,1-.774,1.83,9.091,9.091,0,0,1-2.7,3.03,5.237,5.237,0,0,1,1.21,2.685,6.248,6.248,0,0,1-.284,2.881,6.812,6.812,0,0,1-1.7,2.706,5.866,5.866,0,0,1-2.819,1.539,18.064,18.064,0,0,1-4.153.456c-4.02,0-8.09-1.128-12.025-2.22l-.1-.027-.928-.257c-9.3-3.064-19.042-7.84-29.778-14.6a20.992,20.992,0,0,1-8.913-11.711c-10.888-33.569-13.8-56.4-8.661-67.849a8.642,8.642,0,0,1,5.272-1.442,9.74,9.74,0,0,0,3.641-.617,5.318,5.318,0,0,0,1.829-1.237,7.852,7.852,0,0,0,1.565-2.868c-4.232-.416-8.983-.475-14.013-.537a171.977,171.977,0,0,1-17.4-.8,52.268,52.268,0,0,1-7.919-1.478,32.107,32.107,0,0,1-3.541-1.2A23.571,23.571,0,0,1,94.349,243l.4-.848a24.114,24.114,0,0,1-3.16-3.194c-.432-.486-.8-.905-1.059-1.167.828,9.96,1.531,19.61,2.091,28.682.616,9.981,1.08,19.614,1.379,28.632,2.058,3.463,3.835,7.1,5.779,11.151l.065.063c1.353,1.328,3.618,3.552,2.257,5.029l0,.006c.476,1.117,11.7,27.509,15.182,41.007a3.176,3.176,0,0,1,2.169,1.038,7.183,7.183,0,0,1,1.462,2.43,14.943,14.943,0,0,1,.8,3.117,17.153,17.153,0,0,1,.193,3.1c-.512,6.892-9.309,7.658-17.07,8.334l-.132.012a155.9,155.9,0,0,1-16.221.85H88.4ZM227.018,252.986a1.561,1.561,0,0,0-1.112.46,1.593,1.593,0,0,0-.464,1.14l1.575,0ZM88.04,152.154l-1.719,2.4c4.205,4.406,8.112,8.883,11.611,13.306l2.657-1.221c-1.284-6.533-5.272-11.136-12.55-14.487ZM224.334,98.838,222.86,101.5c-2.775,5.007-6.124,9.933-9.362,14.7-7.149,10.517-14.541,21.392-16.817,34.4-.263,1.6-.378,7.253-.38,7.31l2.119-.863a213.024,213.024,0,0,1,21.843-7.1l.018-.005c2.8-.8,5.69-1.624,8.534-2.486,1.157-.309,2.309-.671,3.422-1.022h0a32.061,32.061,0,0,1,7.94-1.788L241,144.6l.409-.708a12.8,12.8,0,0,0,1.453-9.37,32.314,32.314,0,0,0-3.7-8.846,104.594,104.594,0,0,0-6.734-11.841l0,0a95.936,95.936,0,0,1-6.864-12.207ZM82.663,91.891h0l-2.208,1.237A45.156,45.156,0,0,1,72.712,96.7L69.3,97.84l3.206,1.625a31.436,31.436,0,0,1,6.331,4.3l1.607,1.383.776-1.972A23.061,23.061,0,0,0,82.7,94.42l-.033-2.529Z" transform="translate(-27.834 -14.022)" fill="#d08b5b"/>
      <path id="_Shoes" data-name="ðŸ‘Ÿ Shoes" d="M34.79,123.268a105.216,105.216,0,0,1-14.943-.925,34.762,34.762,0,0,1-10.1-2.969,21.377,21.377,0,0,1-5.851-4.1,12.85,12.85,0,0,1-3.362-5.2c-.043-.213-.085-.413-.125-.605l-.005-.025c-.726-3.5-.726-3.5,2.056-10.2l.08-.192a12.3,12.3,0,0,0,.625-3.945,33.341,33.341,0,0,1,.57-4.925A27.448,27.448,0,0,1,6.054,83.53c2.292-4.681,10-17.906,10.074-18.039a20.3,20.3,0,0,0,1.1-3.158A8.211,8.211,0,0,0,17.379,59a17.928,17.928,0,0,1,3.714-2.181,31.205,31.205,0,0,1,4.681-1.643,40.884,40.884,0,0,1,5.21-1.036,40.314,40.314,0,0,1,5.3-.361,28.876,28.876,0,0,1,5.732.528,14.415,14.415,0,0,1,4.558,1.656,2.689,2.689,0,0,0,.793,1.276,2.1,2.1,0,0,0,1.185.526,6.88,6.88,0,0,1,.812,1.189,4.209,4.209,0,0,0,1.448,1.7C52.552,66.4,55.327,73.1,58.265,80.184c4.09,9.869,8.32,20.073,9.977,28.386-.038.012-.059.03-.064.054-.016.084.173.243.459.482A6.705,6.705,0,0,1,71,112.326a6.273,6.273,0,0,1,.194,1.914,11.612,11.612,0,0,1-.252,2A4.647,4.647,0,0,1,70,118.586a50.391,50.391,0,0,1-7.173,2.045c-2.629.57-5.579,1.062-8.768,1.463-3.052.384-6.282.68-9.6.879C41.217,123.169,37.964,123.268,34.79,123.268ZM138.3,102.8a34.422,34.422,0,0,1-7.166-.922c-2.358-.518-4.531-1.147-6.117-1.606l-.012,0-.146-.042-.288-.082a149.234,149.234,0,0,1-14.882-6.178A159.483,159.483,0,0,1,95.51,86.345a11.439,11.439,0,0,1-2.775-2.324,19.978,19.978,0,0,1-2.285-3.188,32.862,32.862,0,0,1-3.027-7.081c-.657-2.336-1.348-4.734-2.017-7.054v-.005c-2.7-9.379-5.5-19.076-7.219-28.8a106.952,106.952,0,0,1-1.637-14.628c-.095-2.5-.08-4.96.045-7.325a70.917,70.917,0,0,1,.761-7.314A16.956,16.956,0,0,1,81.679,6.37a70.044,70.044,0,0,1,8.316-2.9A4.813,4.813,0,0,0,91.8,2.022,4.063,4.063,0,0,1,93.569.648,54.067,54.067,0,0,1,102.613,0c3.176,0,6.138.171,8.3.3h0c1.191.069,2.132.123,2.71.125l-.241.408A30.654,30.654,0,0,0,111.268,7.3a37.051,37.051,0,0,0-.843,5.414,23.811,23.811,0,0,0,.2,5.717,11.724,11.724,0,0,0,1.544,4.225,11.067,11.067,0,0,0,2.623,2.914,16.28,16.28,0,0,0,6.421,2.892,10.4,10.4,0,0,0,2.182.261,5.927,5.927,0,0,0,2.4-.483,14.671,14.671,0,0,0,2.113-1.2,25.081,25.081,0,0,1,3.275-1.847c0,.045.167.1.423.182a5.831,5.831,0,0,1,1.836.871,2.015,2.015,0,0,1,.75,2.2c-.58,2.392-1.376,7.278-2.218,12.451-.6,3.687-1.221,7.5-1.794,10.586-.244,1.313-.484,2.48-.7,3.51a40.069,40.069,0,0,0-.9,5.5,15.63,15.63,0,0,0,.589,5.26c.824,3.033,7.148,6.783,12.23,9.8a42.931,42.931,0,0,1,6.075,3.975c1.162,1.106,1.752,2.864,1.752,5.223a25.432,25.432,0,0,1-1.148,6.869,52.847,52.847,0,0,1-2.243,6.177,27.889,27.889,0,0,1-1.535,3.148,5.555,5.555,0,0,1-2.55,1.445A12.682,12.682,0,0,1,138.3,102.8Z" transform="translate(22.532 232.975)" fill="#fff"/>
      <path id="_Pants" data-name="ðŸ‘– Pants" d="M11.56,5.524C22.781-1.708,35.209-1.6,48.551,4.453c9.93,4.505,19.488,11.71,30.573,22.062l.336.315.392.374A154.211,154.211,0,0,1,96.315,45.417l.31.409c.2.256.345.292.513.214l.027-.013,1.524-.8.931,1.445a7.691,7.691,0,0,1,1.2,3.927l.007.179a14.228,14.228,0,0,1-.131,2.311l-.048.39-.115.887a11.906,11.906,0,0,0-.133,3.346l.022.138.024.132.089.47-.56,1.734q-2.248,6.969-4.381,13.775l-.426,1.36-.786,2.522-.324.986-.168.518-.079.253c-.112.366-.2.675-.265.974l-.038.171c-.317,1.474-.129,2.04.712,2.362a2.164,2.164,0,0,0,1.929-.338l.082-.05,4.419-2.728L99,84.914c-.254.759-.549,1.49-.975,2.447l-.072.162-.131.29L97.26,89.05l-.123.274a14.754,14.754,0,0,0-1.43,4.344l-.015.132.016.123a3.641,3.641,0,0,0,.224.885l.023.052.024.049.034.064a.377.377,0,0,0,.087.117l.009.005.006,0,.022,0a.774.774,0,0,0,.186,0,3.057,3.057,0,0,0,.877-.246,17.675,17.675,0,0,0,4.862-3.63l.113-.113.144-.146,6.31-6.531-3.041,8.325a15.4,15.4,0,0,0-1.27,5.923,2.141,2.141,0,0,0,.1.508.781.781,0,0,0,.042.1l.01.018.041.006c1.194.14,3.977-1.579,6.78-4.513l.2-.207.2-.211,4.4-4.788-1.169,6.4c-.306,1.676.023,2.761.987,3.317l.089.049.071.041c.958.526,2.119-.128,3.876-2.2l.159-.189.158-.191.254-.313.59-.74.139-.18c4.722-6.175,7.683-14.149,8.847-23.035l.036-.281.035-.279.377-3.087,1.277.882-.223-1.506,4.071,4.207c9.513,9.83,19.83,12.356,29.984,8.416,9.15-3.551,17.728-12.3,23.627-23.754l.178-.348.205-.416a96.866,96.866,0,0,0,4.45-10.408l.105-.3c1.415-4.125,1.93-7.245,1.426-8.58l-.019-.048-.809-1.976,2.065-.55,19.715-5.262c7.116-1.89,12.488-3.293,17.841-4.654l.626-.159,5.542-1.4L239.18,26.5c-2.705,6.571-5.518,11.909-11.361,21.975l-.746,1.283-2.516,4.312-.783,1.35c-6.076,10.521-9.357,17.061-11.8,24.192l-.077.225-.157.466c-3.263,9.78-4.088,19.06-2.164,28.73l.038.192.183.559a120.759,120.759,0,0,0,6.153,15.694l.1.2.2.381.1.186a21.435,21.435,0,0,0,1.774,2.878l.133.171a6.224,6.224,0,0,0,.6.664l.065.059.008-.014a8.784,8.784,0,0,0,.7-2.181l.026-.124.025-.122,1.011-4.989,2.516,4.52.091.167c.269.5.5.986.819,1.7l.109.245.494,1.134.239.54a16.663,16.663,0,0,0,.835,1.665l.036.06.1.166.051.081.027.031c.542.591,1.5.415,2.041-.527l.034-.061.032-.062a8.157,8.157,0,0,0,.671-3.852l0-.212c0-.223-.009-.435-.018-.691l0-.112-.083-1.89-.01-.3,0-.093-.007-.368-.01-.341c-.013-.522-.018-1.063-.018-1.714v-.335l.009-2.139c0-.909-.006-1.519-.027-2.138l-.006-.177-.463-10.793,4.25,10.2c.583,1.392,1.161,2.731,1.976,4.584l.172.391,2.231,5.047.629,1.435.412.949.022-.01.236-.279a6.048,6.048,0,0,0,.98-3.269l.011-.134.009-.132.006-.1.011-.213.114-2.916.109-2.887.649-17.833.712-18.126L243.849,97a46.14,46.14,0,0,0,4.628,11.222l.256.474.259.474.126.228.021-.042a5.564,5.564,0,0,0,.258-.618l.043-.128.024-.077.02-.07.148-.541.33-.344a3.18,3.18,0,0,0,.666-1.6l.017-.1.018-.118,0-.066c.164-5.123-1.821-27.085-2.936-34.668l-.067-.446-.026-.184-.03-.194-.037-.23c-.012-.074-.025-.148-.04-.23l-.032-.176-.294-1.535c-.052-.278-.094-.51-.132-.737l-.014-.085-.052-.327a11.158,11.158,0,0,1,0-4.189,6.269,6.269,0,0,1,2.8-4.023l.106-.068.18-.113.843-.291.637-.217c1.442-.487,2.955-.976,4.893-1.584l.662-.207,6.173-1.916,1.394-.44.875-.28a111.133,111.133,0,0,0,13.842-5.26A48.422,48.422,0,0,0,292.3,39.766l.2-.187,1.051-1.011,1.241.765q1.912,1.179,3.759,2.417l.526.355.157.106.376.385,5.015,5.1.838.862c6.529,6.742,10.568,11.508,13.917,16.807l.106.167.221.354c4.707,7.6,7.057,15.227,6.78,23.437l-.009.249,0,.169c-.172,6.292-2.552,12.029-6.838,17.4-3.4,4.257-7.789,8.091-13.635,12.245l-.575.406-.58.405a356.038,356.038,0,0,1-56.464,32.859c-6.341,2.984-12.988,5.909-20.158,8.891l-.674.28-1.317.544-.734.3-.748.306-.472.2c-6.793,2.828-11.088,5.258-14.593,8.646l-.121.117-1.682,1.645-1.235-2c-5.034-8.156-7.937-17.534-10.159-30.523l-.121-.716-.12-.719-.281-3.232c-.167-1.889-.3-3.316-.433-4.654l-.1-.934-.136-1.272-.112-.64-.3-1.726-.2-1.141-.109-.609-.118-.653c-.137-.751-.273-1.468-.409-2.159l-.058-.295c-.184-.929-.364-1.784-.538-2.559l-.115-.5-.138.048a83.163,83.163,0,0,1-29.612,4.567l-.361-.012-.3-.011-1.031.015c-3.959.051-7.918.036-12.968-.039l-2.234-.036-3.39-.062-8.475-.168c-6.256-.117-10.14-.157-14.2-.135l-.458,0-1.564.013-2.3.029-.9.015-3.679.078-1.292.023a83.414,83.414,0,0,1-8.973-.2l-.541-.049-.464-.045-.213-.047-.207-.048a22.4,22.4,0,0,1-5.66-2.366l-1.152-.614c-.839-.444-1.37-.712-1.931-.968l-.147-.067-1.009-.454-.11-1.313a41.323,41.323,0,0,0-.777-5.447l-.062-.262-.014-.055-.012.073a21.291,21.291,0,0,0-.207,3.737l.006.209.007.193L89.034,119c.089,3.441.2,6.822.385,11.378l.11,2.713.607,14.441.114,2.858c.251,6.472.406,11.626.487,16.641l.016,1.073.031,2.409-1.681.2c-17.778,2.1-36.392,1.431-59.09-1.525l-.689-.09-1.305-.172-1.171-5.266c-1.307-5.855-2.594-11.519-4.28-18.848l-1.454-6.3L14.7,110.828c-.677-2.928-1.268-5.494-1.821-7.9L11.9,98.664l-1.239-5.455-.07-.37c-.393-2.061-.894-4.352-1.56-7.161l-.242-1.014-.443-1.822L6.368,74.851l-.686-2.777-.416-1.713C3.755,64.087,2.684,59.118,1.832,54.219L1.726,53.6C-.017,43.348-.5,34.67.546,27.128c1.244-9.007,4.665-16.172,10.637-21.3l.182-.155.093-.079Z" transform="translate(-27.583 108.423)" fill="#8fa7df"/>
      <path id="_Ink" data-name="ðŸ– Ink" d="M90.076,374.249a157.89,157.89,0,0,1-20.466-1.342,43.943,43.943,0,0,1-5.051-.709,25.811,25.811,0,0,1-4.869-1.475,16.338,16.338,0,0,1-4.242-2.573,13.126,13.126,0,0,1-3.171-4,15.427,15.427,0,0,1-1.553-3.821,16.108,16.108,0,0,1-.533-4.211,13.263,13.263,0,0,1,.662-4.122,10.162,10.162,0,0,1,2.031-3.554,27.7,27.7,0,0,1-.152-5.985,29.9,29.9,0,0,1,1.092-5.89,31.242,31.242,0,0,1,5.464-10.615l.151-.189-.013,0a.09.09,0,0,1-.06-.093c0-.037.046-.163.42-.238l.051-.01-.018.029c-.021.032-.038.053-.053.073l-.03.04a.925.925,0,0,1,.519-.183,3.006,3.006,0,0,0-.357.03l-.059.01.222-.344a75.37,75.37,0,0,0,4.263-7.194,17.905,17.905,0,0,0,1.881-5.809,16.6,16.6,0,0,0-.5-6.106,55.942,55.942,0,0,0-2.865-8.084l-4.905-.175c-9.289-.34-18.35-.83-27.069-3.067a2.8,2.8,0,0,1-1.764.64,2.2,2.2,0,0,1-1.328-.418,2.266,2.266,0,0,1-.835-1.339c-3.769-16.106-7.415-32.526-10.94-48.406L16,245.083c-2.457-11.068-5-22.514-7.561-33.762-.566-2.515-1.18-5.105-1.829-7.847-1.642-6.929-3.5-14.783-4.806-22.556A106.771,106.771,0,0,1,.1,157.833c.1-1.9.275-3.748.523-5.5a51.807,51.807,0,0,1,1.025-5.3,43.554,43.554,0,0,1,1.588-5.055A38.045,38.045,0,0,1,5.45,137.21,34.675,34.675,0,0,1,12,128.758a37.349,37.349,0,0,1,4.459-3.6,43.042,43.042,0,0,1,5.331-3.116,3.674,3.674,0,0,1-3.239-1.927,15.549,15.549,0,0,1-1.524-3.841l0-.007c-.1-.343-.2-.666-.3-.972a17.656,17.656,0,0,1-.71-3.765,17.873,17.873,0,0,1,.1-3.669,22.2,22.2,0,0,1,2.193-6.956,41.817,41.817,0,0,1,9.211-11.721c4.038-4.048,8.289-8.648,13-14.063,4.2-4.829,8.363-9.846,12.392-14.7h0c3.557-4.284,7.234-8.714,10.925-13,4.136-4.807,7.846-8.917,11.342-12.565,4.2-4.379,8.178-8.2,12.175-11.692,2.165-1.89,4.363-3.7,6.53-5.382,2.273-1.763,4.593-3.445,6.895-5a83.3,83.3,0,0,1,9.046-5.224,78,78,0,0,1,9.714-4.035,69.426,69.426,0,0,1,10.153-2.6A60.319,60.319,0,0,1,140.056,0a53.4,53.4,0,0,1,9.092.769,49.586,49.586,0,0,1,8.926,2.418.184.184,0,0,1,.129.211.182.182,0,0,1-.18.155h0a.227.227,0,0,1-.049-.006,53.439,53.439,0,0,0-9.223-1.167c1.542.188,3.1.433,4.6.67A62.331,62.331,0,0,0,162.98,4.06a26.055,26.055,0,0,0,4.525-.374,65.533,65.533,0,0,1,23.9.488A64.086,64.086,0,0,1,204.07,8.193a60.934,60.934,0,0,1,11.524,6.6,57.921,57.921,0,0,1,9.854,9.112,2.066,2.066,0,0,1,2.131-1.871,2.6,2.6,0,0,1,2.235,1.25,32.344,32.344,0,0,1,6.673,3.286,41.119,41.119,0,0,1,5.963,4.693,56.074,56.074,0,0,1,5.307,5.8,78.075,78.075,0,0,1,4.705,6.6,126.177,126.177,0,0,1,7.82,14.39c2.3,4.886,4.335,9.768,6.059,13.96.194.717.645,1.927,1.217,3.458a86.778,86.778,0,0,1,2.807,8.4,15.658,15.658,0,0,1,.57,3.606,3.881,3.881,0,0,1-.174,1.268,1.382,1.382,0,0,1-.576.765c1.614,2.211,3.2,4.549,4.7,6.947,1.443,2.3,2.861,4.727,4.217,7.219,2.536,4.661,4.9,9.6,7.212,15.083,2.007,4.755,3.96,9.879,5.97,15.665,1.588,4.572,3.189,9.48,5.191,15.913l.189.517a22.088,22.088,0,0,1,1.488,6.45,9.6,9.6,0,0,1-.386,3.169,8.2,8.2,0,0,1-1.635,2.938,108.9,108.9,0,0,1,9.614,6.577,83.068,83.068,0,0,1,8.732,7.715,64.532,64.532,0,0,1,7.341,8.954,55.438,55.438,0,0,1,2.99,4.973,51.775,51.775,0,0,1,2.451,5.32,41.369,41.369,0,0,1,2.491,7.949,35.276,35.276,0,0,1,.7,7.6,33.8,33.8,0,0,1-.918,7.214,36.156,36.156,0,0,1-2.371,6.788,45.652,45.652,0,0,1-8.427,12.143,66.1,66.1,0,0,1-12.222,9.975c-4.421,3.2-9.07,6.365-13.818,9.407-4.584,2.937-9.4,5.846-14.3,8.647-4.721,2.695-9.67,5.369-14.71,7.948-4.831,2.473-9.89,4.932-15.036,7.31-6.137,2.833-12.689,5.674-20.62,8.942l-.689.282a68.3,68.3,0,0,0-8.017,3.81,30.141,30.141,0,0,0-6.988,5.361,6.869,6.869,0,0,1-1.67,1.786,2.872,2.872,0,0,1-1.638.56c-1.507,0-3.062-1.392-4.622-4.138a48.831,48.831,0,0,1-3.8-9.416c-.969-3.134-1.889-6.754-2.59-10.192a46.164,46.164,0,0,1-.985-6.467,40.919,40.919,0,0,1-7.651,1.257h0c-1.314.132-2.673.268-3.977.466a2.7,2.7,0,0,1,.37,1.383,2.6,2.6,0,0,1-.438,1.424,43.132,43.132,0,0,1-.842,8.463c.245-.022.486-.033.714-.033a4.659,4.659,0,0,1,2.607.669,2.007,2.007,0,0,1,.955,1.471,1.643,1.643,0,0,1-.454,1.253,3.43,3.43,0,0,1-2.558.887,7.956,7.956,0,0,1-1.718-.205l-.306,2.867a6.564,6.564,0,0,1,1.9-.252,7.984,7.984,0,0,1,2.67.437,2.618,2.618,0,0,1,1.639,1.289,1.438,1.438,0,0,1-.013,1.068,3.733,3.733,0,0,1-.948,1.313,4.354,4.354,0,0,1-1.995.421,14.333,14.333,0,0,1-1.657-.131h-.012a14.537,14.537,0,0,0-1.691-.132c-.112,0-.221,0-.326.008-.533,4.195-.861,8.465-1.178,12.595v0c-.178,2.325-.363,4.729-.582,7.1a23.022,23.022,0,0,0,3.8,2.618c1.349.764,2.786,1.458,4.175,2.128a57.618,57.618,0,0,1,5.234,2.753,22.107,22.107,0,0,1,2.392,1.69,16.258,16.258,0,0,1,2.118,2.064,11.571,11.571,0,0,1,2.36,3.895,11.391,11.391,0,0,1,.548,2.156,11.082,11.082,0,0,1,.113,2.2,10.5,10.5,0,0,1-3.511,7.363,6.514,6.514,0,0,1,.9,3.13,7.451,7.451,0,0,1-.606,3.115,8.4,8.4,0,0,1-2.159,2.987,7.782,7.782,0,0,1-3.293,1.741,19.176,19.176,0,0,1-4.481.5c-4.281,0-8.564-1.192-12.706-2.344l-.014,0-.794-.221c-2.544-.837-5.153-1.813-7.757-2.9-2.465-1.03-5-2.193-7.543-3.457-4.64-2.309-9.363-4.977-14.438-8.157l-.406-.255a21.969,21.969,0,0,1-5.911-5.406,22.872,22.872,0,0,1-3.639-7.137l-.34-1.051c-1.846-5.73-3.387-10.88-4.712-15.746-1.843-6.77-3.29-13.089-4.3-18.782-.594-3.345-1.049-6.543-1.353-9.505a85.006,85.006,0,0,1-.478-9.035,50.023,50.023,0,0,1,.653-8.155,27.444,27.444,0,0,1,2.042-6.866,4.96,4.96,0,0,1,2.258-1.453,8.164,8.164,0,0,1,2.493-.314c.414,0,.821.015,1.215.029h.016c.4.015.786.028,1.167.028a5.568,5.568,0,0,0,2.418-.4,3.487,3.487,0,0,0,1.762-1.876c-3.413-.267-7.352-.313-11.522-.363-3.032-.036-6.168-.073-9.31-.2-3.553-.141-6.589-.376-9.28-.719a50.378,50.378,0,0,1-8.525-1.755,30.018,30.018,0,0,1-3.753-1.426,21.549,21.549,0,0,1-3.292-1.878c.254,3.651.543,7.362.821,10.951v.008c.445,5.734.906,11.663,1.24,17.5.374,6.549.546,12.284.524,17.533a5.716,5.716,0,0,0,.326,2.48,4.848,4.848,0,0,1,.22,2.844c1.912,3.266,3.574,6.668,5.394,10.457l.107.1c1.272,1.2,2.741,3.238,2.7,5.008a2.677,2.677,0,0,1-.986,2.035c7.971,11.664,12.248,25.451,15.682,38.612a4.286,4.286,0,0,1,2.369,1.627,10.269,10.269,0,0,1,1.564,2.995,18.294,18.294,0,0,1,.822,3.456A15.107,15.107,0,0,1,125,363.69a9.62,9.62,0,0,1-.7,2.69,8.068,8.068,0,0,1-1.315,2.1,9.059,9.059,0,0,1-1.816,1.583,12.523,12.523,0,0,1-2.2,1.154c-3.146,1.289-7.009,1.652-10.417,1.972h0c-.729.068-1.418.133-2.083.205-4.012.421-8.113.691-12.189.8C92.878,374.23,91.467,374.249,90.076,374.249ZM53.3,351.494h0a22.223,22.223,0,0,0,.149,3.573,16.273,16.273,0,0,0,.682,3.053,13.176,13.176,0,0,0,1.166,2.572,12.251,12.251,0,0,0,1.6,2.129,13.867,13.867,0,0,0,3.392,2.606,20.208,20.208,0,0,0,4.2,1.706,40.455,40.455,0,0,0,9.986,1.36c5.079.483,10.225.727,15.295.727,2.066,0,4.155-.041,6.21-.121l3.377-.2c3.15-.185,5.794-.368,8.462-.658a69.368,69.368,0,0,0,8.349-1.373,4.539,4.539,0,0,0,3.261-2.243,4.7,4.7,0,0,0,.52-2.295,7.026,7.026,0,0,0-.565-2.589,2.077,2.077,0,0,1-.833.183,1.592,1.592,0,0,1-.92-.281A4.647,4.647,0,0,1,116.3,358.3a64.441,64.441,0,0,1-13.363,4.23,71.4,71.4,0,0,1-14.138,1.4,72.767,72.767,0,0,1-16.794-1.956,66.4,66.4,0,0,1-15.64-5.822,2.376,2.376,0,0,1-2.053-1.357,10.028,10.028,0,0,1-.84-2.579C53.415,351.96,53.36,351.721,53.3,351.494Zm5.64,2.2a2.459,2.459,0,0,1-.7,1.765c2.361.765,4.74,1.443,7.07,2.013s4.675,1.05,6.979,1.428,4.626.663,6.916.851,4.6.282,6.879.282c2.4,0,4.833-.1,7.245-.31,2.4-.2,4.84-.515,7.267-.923,2.406-.4,4.869-.919,7.323-1.527,2.428-.6,4.921-1.316,7.411-2.121-.84-4.211-2.006-8.746-3.567-13.865-1.391-4.562-2.959-9.156-4.475-13.6l0-.007c-1.564-4.581-3.181-9.317-4.6-14.021a4.209,4.209,0,0,1-1.448-1.7,6.873,6.873,0,0,0-.812-1.189,2.1,2.1,0,0,1-1.185-.526,2.689,2.689,0,0,1-.793-1.276,26.385,26.385,0,0,0-7.067-2.8,35.2,35.2,0,0,0-8.478-1.072,24.876,24.876,0,0,0-6.277.742,13.908,13.908,0,0,0-5.117,2.413c.439,2.533-.56,4.874-1.526,7.139l-.051.121c.848-.2,3.4-.6,6.445-.939a98.007,98.007,0,0,1,10.278-.65,30.213,30.213,0,0,1,5.589.419c1.631.32,2.657.827,3.05,1.506a1.762,1.762,0,0,1-.166,1.826,3.752,3.752,0,0,1-1.325.689,5.109,5.109,0,0,1-1.449.189,15.471,15.471,0,0,1-2.666-.321c-.612-.11-1.19-.213-1.758-.267-2.461-.2-5-.308-7.542-.308a102.55,102.55,0,0,0-11.511.666c-.229.641-.4,1.326-.57,1.988a15.261,15.261,0,0,1-.879,2.741,67.3,67.3,0,0,1,9.794-2.4,89.035,89.035,0,0,1,10.031-1.085l.373-.019c.4-.021.824-.053,1.2-.08h0c.776-.057,1.578-.116,2.363-.116a8.892,8.892,0,0,1,2.691.347,5.052,5.052,0,0,1,2.292,1.44,2.272,2.272,0,0,1,.459,1.078,1.658,1.658,0,0,1-.179.949,3.6,3.6,0,0,1-1.8,1.489,6.293,6.293,0,0,1-2.449.549h0a3.684,3.684,0,0,1-.427-.024c-2.181-.065-4.494-.1-6.876-.1-6.918,0-13.836.273-20.329.552l-.4.656c-3.239,5.355-5.15,9-5.966,12.927a23.8,23.8,0,0,0-.406,6.357,57.766,57.766,0,0,0,1.18,8.152l-.017-.014A.245.245,0,0,1,58.942,353.689Zm78.909-98.943a10.772,10.772,0,0,1-2.731.849,13.881,13.881,0,0,0-2.317.647,4.006,4.006,0,0,0-1.822,1.381,70.921,70.921,0,0,0-.761,7.315c-.124,2.365-.139,4.83-.045,7.325a106.957,106.957,0,0,0,1.637,14.628c1.718,9.725,4.515,19.423,7.22,28.8l0,.012c.668,2.317,1.359,4.712,2.015,7.045a17.913,17.913,0,0,0,8.087,10.59c4.745,2.894,9.056,5.306,13.178,7.374,2.319,1.163,4.623,2.237,6.847,3.193,2.369,1.018,4.735,1.938,7.032,2.735l.288.082c.515.148,1.117.329,1.7.5,1.645.5,3.693,1.112,5.78,1.595a27.836,27.836,0,0,0,6.163.84,10.507,10.507,0,0,0,3.024-.389,5.138,5.138,0,0,0,2.278-1.338,2.765,2.765,0,0,0,.537-1.7,1.91,1.91,0,0,0-.772-1.414l-.472-.179a5.726,5.726,0,0,1-1.346-.684,1.844,1.844,0,0,1-.791-1.214l-.01-.073.035-.013a1.779,1.779,0,0,1-.043-1.612,3.1,3.1,0,0,1,.894-1.139,3.379,3.379,0,0,1,1.257-.66,3.11,3.11,0,0,0,2.222-.937,6.311,6.311,0,0,0,1.289-2.3,8.716,8.716,0,0,0,.038-2.05,7.751,7.751,0,0,0-.42-1.831A9.473,9.473,0,0,0,195.9,329a32.624,32.624,0,0,0-6.476-4.984c-1.385-.9-2.816-1.826-4.069-2.8a14.564,14.564,0,0,1-3.152-3.19,1.83,1.83,0,0,1-.706,1.151,2.027,2.027,0,0,1-1.192.37,2.191,2.191,0,0,1-1.552-.62,1.861,1.861,0,0,1-.535-1.36c-.11-5.531.82-11.16,1.719-16.6.245-1.484.5-3.017.726-4.523-.079,0-.163-.005-.249-.005a13.273,13.273,0,0,0-1.812.17h0a13.283,13.283,0,0,1-1.811.17h0a4.679,4.679,0,0,1-1.034-.106c-.09-.565.54-1.209,1.872-1.913a28.4,28.4,0,0,1,3.253-1.379l.02-.007c.162-.06.3-.112.415-.155.264-1.228.541-2.437.822-3.591-.835.05-1.6.076-2.26.076a11.591,11.591,0,0,1-2.732-.242c-.559-.147-.855-.356-.878-.621-.019-.222.152-.475.508-.752a6.985,6.985,0,0,1,1.476-.817,22.584,22.584,0,0,1,4.856-1.377c.176-.6.35-1.271.531-2.057l.078-.343a26.627,26.627,0,0,0,.687-5.025,25.977,25.977,0,0,1-10.707,2.619,17.281,17.281,0,0,1-3.624-.376,12.931,12.931,0,0,1-2.95-1.077,13.442,13.442,0,0,1-2.55-1.7,14.552,14.552,0,0,1-2.109-2.2,15.7,15.7,0,0,1-1.63-2.593,16.324,16.324,0,0,1-1.7-6.451,15.105,15.105,0,0,1,.2-3.343,13.925,13.925,0,0,1,.972-3.222,6.063,6.063,0,0,1-.195-2.137,9,9,0,0,1,.457-2.13,20.931,20.931,0,0,1,1.925-3.936c-5.762-.02-11.458-.176-17.272-.348a16.239,16.239,0,0,0-2.35,1.993,11.177,11.177,0,0,0-1.584,2.07,9.5,9.5,0,0,0-1.294,4.369c-.171,3.014.853,6.236,1.938,9.647.328,1.032.667,2.1.978,3.175,2.488,8.678,4.593,17.617,6.628,26.261v0c.775,3.294,1.577,6.7,2.389,10.042a33.857,33.857,0,0,0,11.587,20.5,33.5,33.5,0,0,0,6.757,4.423,41.2,41.2,0,0,0,6.894,2.857,42.021,42.021,0,0,0,7.294,1.58c.331.034.672.055,1,.077a11.092,11.092,0,0,1,2.357.32,3.568,3.568,0,0,1,1.941,1.3,2.188,2.188,0,0,1,.574,1.425,1.878,1.878,0,0,1-.574,1.414,3.6,3.6,0,0,1-1.669,1.025,7.652,7.652,0,0,1-2.249.294,32.1,32.1,0,0,1-7.314-1.259h0c-.753-.191-1.464-.371-2.046-.493a53.253,53.253,0,0,1-8.5-3.346,40.019,40.019,0,0,1-6.757-4.268,36.7,36.7,0,0,1-9.345-11.026,51.454,51.454,0,0,1-3.111-6.618c-.857-2.189-1.648-4.564-2.419-7.261-1.44-5.04-2.59-10.447-3.807-16.173l-.029-.136c-.62-3.344-1.5-6.8-2.341-10.146a120.319,120.319,0,0,1-3.037-14.468,44.462,44.462,0,0,1-.35-7.237,34.191,34.191,0,0,1,.326-3.6,30.591,30.591,0,0,1,.741-3.58ZM59.722,325.552a1.871,1.871,0,0,0-.215.151l-.068.057.017,0a.159.159,0,0,0,.033,0,.288.288,0,0,0,.243-.208c-.006.006-.009.008-.011.008S59.719,325.56,59.722,325.552Zm10.971-8.581c-.322.043-.65.083-.968.123l-.032,0-.024,0-.391.049-.093.253C69.668,317.257,70.161,317.116,70.692,316.971Zm20.9-20.393c-4.055.412-8.193.5-12.2.594-4.293.1-8.73.195-13.079.688a30.435,30.435,0,0,1,3.809,7.444,14.816,14.816,0,0,1,2.792-2.071,16.149,16.149,0,0,1,3.106-1.359,19.787,19.787,0,0,1,3.336-.744,25.761,25.761,0,0,1,3.483-.227,39.04,39.04,0,0,1,6.976.694c2.02.371,4.175.889,6.589,1.586-.574-1.673-1.09-3.334-1.535-4.935a2.737,2.737,0,0,1-.433.034,3.293,3.293,0,0,1-1.641-.463,3.181,3.181,0,0,1-1.209-1.242h0Zm119.72-56.125h0a83.341,83.341,0,0,1-13.634,6.38,9.725,9.725,0,0,1,1.152,4.7c.056.735.115,1.495.242,2.2.371,3.39.665,6.812.95,10.121l.107.646a124,124,0,0,0,3.548,15.793,72.6,72.6,0,0,0,2.765,7.6,55.923,55.923,0,0,0,3.712,7.169,35.677,35.677,0,0,1,8.128-5.809,91.2,91.2,0,0,1,9.149-4.152c8.063-3.32,15.277-6.484,22.054-9.673,4.94-2.32,9.846-4.748,14.582-7.218,4.838-2.523,9.635-5.16,14.256-7.837,4.719-2.734,9.389-5.588,13.879-8.481,4.582-2.953,9.107-6.031,13.45-9.149l.6-.419c2.823-1.984,5.2-3.813,7.261-5.59a50.568,50.568,0,0,0,6.444-6.551,35.272,35.272,0,0,0,2.611-3.685,28.757,28.757,0,0,0,2.043-3.984,25.126,25.126,0,0,0,1.352-4.3,24.24,24.24,0,0,0,.54-4.641,35.776,35.776,0,0,0-.342-6.58,36.952,36.952,0,0,0-1.457-6.161,42.721,42.721,0,0,0-2.4-5.789,53.975,53.975,0,0,0-3.171-5.465c-4.665-7.091-10.914-13.426-16.957-19.552-1.973-2-3.837-3.89-5.661-5.817a41.526,41.526,0,0,1-3.57,3.228,46.811,46.811,0,0,1-3.866,2.791,61.075,61.075,0,0,1-8.426,4.515,162.867,162.867,0,0,1-18.264,6.449c-3.178.982-6.464,2-9.57,3.077a4.554,4.554,0,0,0-1.6,1.635,5.028,5.028,0,0,0-.591,2.022,16.572,16.572,0,0,0,.464,4.53c.131.677.255,1.317.339,1.934.863,5.593,1.549,11.241,2.039,16.789,1.3-1.5,4.082-2.076,6.54-2.588,1.03-.214,2-.417,2.793-.67l.358-.081c.564-.129,1.142-.271,1.7-.409h0a28.856,28.856,0,0,1,6.765-1.106,11.638,11.638,0,0,1,2.512.259,1.5,1.5,0,0,1,1.178,1.259,1.913,1.913,0,0,1-.108,1.022,1.662,1.662,0,0,1-.666.806c-2.475,1.535-5.431,1.831-8.29,2.117-.568.057-1.156.116-1.727.183l-.872.1a65.327,65.327,0,0,1-7.713.586c-.466,0-.928-.009-1.372-.028a1.114,1.114,0,0,1-.173.014,1.156,1.156,0,0,1-.832-.356c.1,1.584.233,3.2.361,4.767v.005A104.66,104.66,0,0,1,254.453,230a5.172,5.172,0,0,1-1.219,2.955l-.024.089a7.008,7.008,0,0,1-.829,1.852c-.441.667-.921,1.02-1.39,1.02a1.534,1.534,0,0,1-1.142-.7l-.3-.53a53.357,53.357,0,0,1-5.62-13.171c-.181,4.582-.348,9.227-.509,13.719v.01c-.17,4.746-.346,9.654-.539,14.481l-.012.226a12.823,12.823,0,0,1-.37,2.51,5.673,5.673,0,0,1-1.077,2.235.881.881,0,0,1-.2.706.8.8,0,0,1-.6.266.869.869,0,0,1-.355-.077l-.078.036a2.657,2.657,0,0,1-1,.25.825.825,0,0,1-.8-.451c-.844-1.972-1.726-3.962-2.579-5.887l0-.009,0,0c-1.139-2.57-2.316-5.228-3.416-7.869.054,1.262.047,2.546.04,3.788v.005c-.006,1.092-.012,2.221.023,3.33.008.544.033,1.1.061,1.679v0a28.419,28.419,0,0,1,.021,3.464,8.39,8.39,0,0,1-.835,3.256,3.791,3.791,0,0,1-1.321,1.49,3.2,3.2,0,0,1-1.728.526,2.849,2.849,0,0,1-2.284-1.157,22.907,22.907,0,0,1-1.672-3.35c-.387-.894-.787-1.817-1.259-2.665a13.036,13.036,0,0,1-1.32,3.963,2,2,0,0,1-1.623,1.184c-.811,0-1.742-.717-2.767-2.132a30.119,30.119,0,0,1-2.744-4.948,89.378,89.378,0,0,1-3.674-9.641ZM31.866,125.968a32.019,32.019,0,0,0-4.373.3,30.822,30.822,0,0,0-4.363.931,31.6,31.6,0,0,0-4.338,1.619,34.575,34.575,0,0,0-4.3,2.363,26.6,26.6,0,0,0-2.989,2.961,27.008,27.008,0,0,0-2.435,3.317A29.415,29.415,0,0,0,7.15,141.1,33.866,33.866,0,0,0,5.7,145.018a44.65,44.65,0,0,0-1.628,8.56,68.005,68.005,0,0,0-.209,9.275A128.043,128.043,0,0,0,6.43,182.416c1.3,6.555,2.884,12.891,4.412,19.018v0c1.4,5.629,2.73,10.946,3.577,15.469,2.392,10.564,4.882,21.292,7.291,31.667l.013.058h0c3.245,13.977,6.6,28.43,9.759,42.675,6.851.9,13.052,1.566,18.956,2.028,6.746.527,12.974.784,19.041.784,3.629,0,7.218-.1,10.668-.285,3.612-.2,7.195-.506,10.647-.914-.122-9.57-.537-19.294-.939-28.7-.334-7.807-.679-15.88-.854-23.826-.089-2.224-.149-4.488-.207-6.677v0c-.089-3.346-.181-6.8-.376-10.2-.219-3.806-.548-7.125-1.006-10.146a64.378,64.378,0,0,1-.567-7.386,64.435,64.435,0,0,0-.628-7.884,22.916,22.916,0,0,0-.909-3.717,15.708,15.708,0,0,0-1.622-3.414,26.078,26.078,0,0,0-1.625-2.153h0a11.92,11.92,0,0,1-2.859-4.97.114.114,0,0,1,.028-.09.153.153,0,0,1,.112-.045.151.151,0,0,1,.1.035c.523.459,1.009.966,1.479,1.456l0,0a19.489,19.489,0,0,0,1.917,1.825l.926.716a14.39,14.39,0,0,1,3.937,4.084,13.381,13.381,0,0,0-.372-2.174c-.352-1.68-.789-3.77-.507-4.117a.124.124,0,0,1,.1-.05.286.286,0,0,1,.155.062l.2.554c.64,1.757,1.373,3.846,1.965,6.02a35.3,35.3,0,0,1,1.158,6.228c.848,8.655,1.483,17.48,2.1,26.014v0c.414,5.756.842,11.708,1.333,17.558.972.437,1.933.951,2.863,1.449a23.585,23.585,0,0,0,5.969,2.515c2.08.205,4.315.3,7.034.3,1.766,0,3.563-.04,5.3-.079h.012c1.114-.025,2.265-.051,3.411-.066l.493-.006c1.766-.026,3.564-.039,5.5-.039,5.787,0,11.652.12,17.325.236h.028c5.675.116,11.543.235,17.322.235,2.035,0,3.924-.014,5.774-.043,1.007.039,2.032.059,3.046.059a80.806,80.806,0,0,0,11-.758,82.023,82.023,0,0,0,10.818-2.246,80.857,80.857,0,0,0,10.41-3.689,77.673,77.673,0,0,0,9.773-5.09,55.427,55.427,0,0,1-1.208-8.47,54.027,54.027,0,0,1,.1-8.091,58.548,58.548,0,0,1,1.224-7.769,69.961,69.961,0,0,1,2.162-7.5c.823-2.369,1.777-4.755,2.914-7.3,1.014-2.265,2.153-4.6,3.482-7.146,2.47-4.728,5.243-9.476,7.925-14.067,2.3-3.939,4.679-8.011,6.872-12.078a132.643,132.643,0,0,0,5.98-12.423c-10.427,2.627-20.989,5.452-31.2,8.184-2.9.776-5.9,1.578-8.877,2.37a8.694,8.694,0,0,1,.1,4.563,38.638,38.638,0,0,1-1.709,6.078,104.944,104.944,0,0,1-4.609,10.655,66.217,66.217,0,0,1-6.693,10.614,52.493,52.493,0,0,1-8.254,8.542,37.207,37.207,0,0,1-9.431,5.694,27.159,27.159,0,0,1-10.225,2.071h0a25.165,25.165,0,0,1-5.52-.617,27.433,27.433,0,0,1-5.581-1.925,33.386,33.386,0,0,1-5.585-3.344,44.081,44.081,0,0,1-5.534-4.873c.008.056.014.111.021.169v.008l0,.028a21.733,21.733,0,0,0-2.307-1.78,58.118,58.118,0,0,1-3.073,13,43.583,43.583,0,0,1-6.373,11.705l-.6.748a17.645,17.645,0,0,1-2.359,2.528,6.465,6.465,0,0,1-1.391.909,3.574,3.574,0,0,1-1.5.356,3.254,3.254,0,0,1-1.661-.477,3.844,3.844,0,0,1-1.9-2.276,6.331,6.331,0,0,1-.1-3.062,25.673,25.673,0,0,1-4.621,4.044,7.628,7.628,0,0,1-3.836,1.5,1.914,1.914,0,0,1-1.671-.8,4.454,4.454,0,0,1-.486-2.925,22.165,22.165,0,0,1,1.367-5.357l-.149.154a27.2,27.2,0,0,1-3.45,2.99,7.57,7.57,0,0,1-3.988,1.724c-1.4,0-2.222-1.067-2.434-3.173a19.144,19.144,0,0,1,2.021-6.143,34.43,34.43,0,0,0,1.4-3.352,4.65,4.65,0,0,1-2.428.776,3.467,3.467,0,0,1-1.246-.233,2.938,2.938,0,0,1-2.051-2.975,12.9,12.9,0,0,1,.872-3.929l0-.006c.1-.293.19-.571.271-.834,1.895-6.1,3.9-12.42,5.959-18.785a14.167,14.167,0,0,1,.11-4.509,17.673,17.673,0,0,0,.232-3.155,6.568,6.568,0,0,0-.24-1.515,5.441,5.441,0,0,0-.664-1.463,2.267,2.267,0,0,1-1.045.261,2.14,2.14,0,0,1-.992-.244,2.7,2.7,0,0,1-.911-.8c-2.411-3.206-5.126-6.471-8.07-9.7-2.685-2.948-5.661-5.979-8.845-9.009-3.744-3.508-7.131-6.487-10.354-9.107-1.948-1.584-3.882-3.071-5.746-4.421-2.046-1.481-4.08-2.849-6.048-4.066-2.128-1.316-4.245-2.5-6.294-3.511a58.706,58.706,0,0,0-6.481-2.756,45.188,45.188,0,0,0-6.612-1.8,36.2,36.2,0,0,0-6.684-.645h0Zm-.149,166.478h0c0,.026,0,.049.006.074v.034c.191.013.374.029.568.047H32.3c-.117-.029-.235-.061-.35-.092l-.006,0-.009,0-.22-.059Zm137.09-40.483c-.79,0-2.5,3.158-3.068,4.2-.052.1-.1.179-.126.231a18.61,18.61,0,0,0-1.274,4.983,15.722,15.722,0,0,0-.283,3.12,14.139,14.139,0,0,0,.335,2.927,12.448,12.448,0,0,0,.9,2.634,10.8,10.8,0,0,0,1.422,2.24,9.067,9.067,0,0,0,7.137,3.351,12.567,12.567,0,0,0,4.749-1.006c-.131-.011-.271-.016-.431-.016-.241,0-.488.013-.726.025h0c-.238.012-.484.025-.722.025a2.713,2.713,0,0,1-1.726-.475.025.025,0,0,0,.008-.008l0,0a.64.64,0,0,1-.054-.615c.338-.692,2.107-.967,3.529-1.188a8.585,8.585,0,0,0,1.59-.327c1.019-.213,2.056-.425,3.059-.63l.03-.006.013,0c2.782-.569,5.66-1.158,8.471-1.82.568-.134,1.15-.293,1.713-.448a21.561,21.561,0,0,1,3.992-.829c-.569-5.852-.761-10.093-.9-13.189-.247-5.474-.322-7.126-2.049-7.126a14.329,14.329,0,0,0-3.317.752h0a69.576,69.576,0,0,1-7.855,1.9c-1.9.339-3.906.609-5.964.8-2.4.225-4.953.354-7.591.383a.546.546,0,0,1-.093.468.5.5,0,0,1-.375.171c-.078,0-.134-.022-.143-.056s.02-.064.078-.1C169.07,252.086,168.96,251.964,168.806,251.964Zm59.8,4.028a.063.063,0,0,0-.048.019.113.113,0,0,0-.023.085c0,.051.028.1.059.1.015,0,.038-.013.061-.078.007-.019.015-.037.023-.055h0c.007-.016.013-.029.019-.043A.194.194,0,0,0,228.608,255.992Zm-5.589-43.8h0a101.65,101.65,0,0,0,.216,22.265,84.525,84.525,0,0,0,5.479,21.535,103.625,103.625,0,0,0,.554-11.792c-.011-4.017-.17-8.162-.325-12.171v0c-.216-5.611-.439-11.414-.254-16.917a1.483,1.483,0,0,1,.409-1.088,1.6,1.6,0,0,1,1.135-.444,1.7,1.7,0,0,1,1.1.384,1.537,1.537,0,0,1,.539,1.148l.106,3.448a118.282,118.282,0,0,0,1.484,17.581,48.627,48.627,0,0,0,2.276,8.42,38.183,38.183,0,0,0,1.764,4,34.665,34.665,0,0,0,2.274,3.812c.195-4.476.087-9.106-.018-13.583-.124-5.3-.252-10.788.117-16.112a67.274,67.274,0,0,1,.987-7.914,48.452,48.452,0,0,1,2.1-7.723,1.169,1.169,0,0,1,.445-.54,1.124,1.124,0,0,1,.609-.18.957.957,0,0,1,.977,1,92.324,92.324,0,0,0,1.573,12.971,53.2,53.2,0,0,0,1.791,7.109c.759,2.211,1.567,3.672,2.4,4.342a17.682,17.682,0,0,0,.792-4.67c.08-1.619.011-3.248-.065-4.777-.229-5.354-.721-10.9-1.5-16.964-.65-5.028-1.493-10.38-2.655-16.845a7.175,7.175,0,0,1-.073-1.727,6.133,6.133,0,0,1,.369-1.7,3.925,3.925,0,0,1,2.3-2.4,15.414,15.414,0,0,1,2.926-2.117c1.044-.6,2.108-1.118,3.108-1.591a46.449,46.449,0,0,1,6.815-2.64c2.365-.733,4.842-1.368,7.237-1.981h0c2.259-.578,4.594-1.176,6.835-1.857a50.042,50.042,0,0,0,6.492-2.411,28.125,28.125,0,0,0,5.8-3.518,23,23,0,0,0,2.531-2.347,22.647,22.647,0,0,0,2.227-2.83l.408-.615a14.445,14.445,0,0,0,2.312-4.721c-.766-2.858-1.773-5.708-2.747-8.465l-.006-.016c-.465-1.315-.945-2.676-1.392-4.016-1.374-4.076-2.63-7.659-3.837-10.954l-.446-1.21c-1.543-4.207-3.154-8.248-4.788-12.01-1.766-4.067-3.634-7.981-5.552-11.636-2.045-3.9-4.223-7.64-6.473-11.132a124.913,124.913,0,0,0-7.55-10.5,44.425,44.425,0,0,0-5.015.642,41.108,41.108,0,0,0-4.622,1.148,42.759,42.759,0,0,0-8.334,3.628,62.248,62.248,0,0,0-7.574,5.1c-2.131,1.65-4.4,3.561-7.357,6.2-.807.7-1.545,1.309-2.257,1.87,2.956,5.177,6.119,10.341,9.178,15.335l.006.009c1.422,2.321,2.892,4.721,4.322,7.092l.845,1.406a33.229,33.229,0,0,1,3.383,6.867c.906,2.864.517,6.707-1.192,11.748a116.463,116.463,0,0,1-5.693,13.02c-1.21,2.484-2.352,4.83-3.151,6.783-1.573,2.772-3.142,5.472-4.66,8.084-3.555,6.116-6.912,11.893-9.745,17.6-1.515,3.053-2.762,5.847-3.813,8.543a70.055,70.055,0,0,0-2.773,8.632,53.941,53.941,0,0,0-1.425,18.318c.153,1.627.383,3.29.685,4.942.308,1.686.7,3.414,1.163,5.136a79.241,79.241,0,0,0,3.888,10.951,12.818,12.818,0,0,0,.188-3.845,23.818,23.818,0,0,1,.078-3.984,3.739,3.739,0,0,1,.449-1.416,1.247,1.247,0,0,1,.944-.631l-.053-.53a96.443,96.443,0,0,1-.424-13.65A46.914,46.914,0,0,1,223.02,212.188ZM167.571,251.9a1.785,1.785,0,0,0-.629.46c-.069.067-.14.136-.212.2l-.058.049.165-.131.108-.088h0c.135-.11.275-.223.467-.369l.157-.118h0Zm-73.616-8.348h0l.075.982c.449.091.9.205,1.327.316l.1.025a9.755,9.755,0,0,1-1.5-1.322Zm148.457-26.242a111.411,111.411,0,0,0-.735,14.3q-.01,1.192-.022,2.324c.081-1.794.161-3.668.232-5.321V228.6C242.045,224.9,242.209,221.07,242.412,217.307ZM122.919,196.581a1.725,1.725,0,0,1,1.3.578,1.687,1.687,0,0,1,.358,1.41,61.122,61.122,0,0,1-1.68,6.844,46.11,46.11,0,0,1-2.583,6.553l-.548,3.2c-.348,2.034-.718,4.217-1.07,6.4a.856.856,0,0,1,.377-.086.966.966,0,0,1,.232.029,32.383,32.383,0,0,0,2.5-2.833,35.86,35.86,0,0,0,2.143-3.053,45.381,45.381,0,0,0,3.4-6.621,106.606,106.606,0,0,0,4.533-14.275,12.849,12.849,0,0,1-.472-3.785c.012-1.269.154-2.57.291-3.827a32.348,32.348,0,0,0,.282-4.765,19.531,19.531,0,0,0,.06-3.947,23.106,23.106,0,0,0-.667-3.825,37.1,37.1,0,0,0-2.878-7.342,23.185,23.185,0,0,0-.749-4.021,22.636,22.636,0,0,0-1.363-3.618,27.09,27.09,0,0,0-4.207-6.248,48.572,48.572,0,0,0-5.583-5.3c-2.011-1.662-4.16-3.261-6.238-4.809-2.534-1.887-5.154-3.837-7.485-5.875a69.258,69.258,0,0,1-5.871-6.693c-1.841-2.356-3.623-4.844-5.346-7.25l0,0c-1.632-2.279-3.32-4.636-5.05-6.869a71.775,71.775,0,0,0-5.471-6.355,41.383,41.383,0,0,0-6.325-5.346,33.668,33.668,0,0,0-3.618-2.14,32.178,32.178,0,0,0-3.995-1.7c-.208.013-.419.02-.63.02a13.741,13.741,0,0,1-4.529-.861.089.089,0,0,1-.059-.092.067.067,0,0,1,.059-.066c.942-.153,1.9-.359,2.825-.557h0l.007,0c.736-.158,1.5-.321,2.247-.457a1.8,1.8,0,0,1,.8-1.046,2.484,2.484,0,0,1,1.29-.328,3.674,3.674,0,0,1,1.568.368c1.776-.777,3.583-1.657,5.37-2.614,1.7-.91,3.436-1.92,5.161-3a115.215,115.215,0,0,0,9.787-6.92C97.408,80.506,103.385,75,109.165,69.67h0l.414-.382A75.292,75.292,0,0,0,90.185,56.4a84.817,84.817,0,0,0-10.931-4.183,89.166,89.166,0,0,0-11.4-2.676C63.2,54.8,58.695,60.349,54.335,65.712v0l0,.005c-3.527,4.339-7.174,8.826-10.877,13.136C39.3,83.69,35.51,87.787,31.873,91.381c-4.734,4.273-7.878,8.235-9.611,12.114a18.7,18.7,0,0,0-1.176,3.485,15.334,15.334,0,0,0-.384,3.631,14.717,14.717,0,0,0,.558,3.758,17.2,17.2,0,0,0,1.651,3.867,1.764,1.764,0,0,1,1.072,1.414,2.052,2.052,0,0,1-.09.985,1.853,1.853,0,0,1-.586.834,3.082,3.082,0,0,0,.426-.143h0a4.094,4.094,0,0,1,1.026-.3c.076,0,.125.018.146.054s.01.112-.043.206A28.574,28.574,0,0,0,16,127.308a27.967,27.967,0,0,1,4.01-2.459,27.1,27.1,0,0,1,4.178-1.675,28.268,28.268,0,0,1,4.306-.956,31.313,31.313,0,0,1,4.391-.3,45.632,45.632,0,0,1,17.945,4.128,72.123,72.123,0,0,1,8.376,4.316,84.578,84.578,0,0,1,7.511,5.067c3.347,2.442,6.674,5.08,9.889,7.841,3.117,2.677,6.222,5.549,9.227,8.536a22.963,22.963,0,0,1,5.853,2.278l.245.123c5.921,2.84,9.584,6.234,11.529,10.679a22.433,22.433,0,0,1,1.7,7.127,51.9,51.9,0,0,1-.093,8.654,57.7,57.7,0,0,0-3.249,7.606c-.926,2.616-1.746,5.33-2.539,7.956l0,.006c-.687,2.275-1.4,4.627-2.171,6.893-.667,1.477-.888,2.462-.639,2.847a.4.4,0,0,0,.36.179,3.66,3.66,0,0,0,1.969-1.245,6.372,6.372,0,0,0,1.6-2.422,22.026,22.026,0,0,0,3.01-5.909c.246-.631.5-1.283.763-1.9l.079-.185a2.034,2.034,0,0,1,.568-.788,1.348,1.348,0,0,1,.871-.322,1.5,1.5,0,0,1,.412.06,1.694,1.694,0,0,1,.978.838,1.2,1.2,0,0,1,.091.962l-.554,1.425c-.253.65-.512,1.313-.763,1.954l-.031.078v0c-2.394,6.128-4.87,12.465-6.8,18.826a22.045,22.045,0,0,0,4.311-3.394,30.97,30.97,0,0,0,3.487-4.218,83.383,83.383,0,0,0,5.514-9.644c.414-.8.841-1.637,1.266-2.446a1.475,1.475,0,0,1,1.317-.844,1.848,1.848,0,0,1,1.518.873,1.666,1.666,0,0,1,.069,1.666c-.719,1.466-1.675,3.391-2.7,5.286a78.98,78.98,0,0,0-3.226,8.032c-.867,2.527-1.681,5.241-2.489,8.3,3.618-2.155,6.5-5.487,8.8-10.188a50.852,50.852,0,0,0,2.552-6.378c.745-2.241,1.395-4.555,1.917-6.414v0a1.681,1.681,0,0,1,.521-1.185A1.548,1.548,0,0,1,122.919,196.581ZM89,155.022h0c4.238,4.44,8.175,8.952,11.7,13.411a17.526,17.526,0,0,0-1.538-4.547,16.015,16.015,0,0,0-2.545-3.643A23.6,23.6,0,0,0,89,155.022Zm136.766-51.294h0c-2.808,5.065-6.176,10.021-9.434,14.813a182.508,182.508,0,0,0-10.144,16.1,69.736,69.736,0,0,0-3.916,8.558c-.561,1.5-1.053,3.012-1.464,4.49-.431,1.551-.786,3.12-1.056,4.663a31.822,31.822,0,0,0-.306,4.521c0,.093,0,.185-.006.276,3.21-1.307,6.774-2.573,10.9-3.872,3.677-1.159,7.45-2.236,11.1-3.277l.007,0c2.806-.8,5.708-1.629,8.546-2.489,1.135-.3,2.28-.663,3.386-1.01a33.677,33.677,0,0,1,8.317-1.856,11.473,11.473,0,0,0,1.219-8.585,21.55,21.55,0,0,0-1.436-4.161c-.651-1.449-1.415-2.855-2.075-4.041a102.99,102.99,0,0,0-6.668-11.726,97.123,97.123,0,0,1-6.968-12.4ZM82.782,95.943h0c-1.429.8-2.71,1.466-3.917,2.032a37.576,37.576,0,0,1-4.085,1.654,30.77,30.77,0,0,1,3.455,2.052,36.537,36.537,0,0,1,3.178,2.452,21.575,21.575,0,0,0,1.369-8.191Zm65.23-92.267h0c-.345,3.039-.585,6.016-.711,8.848-.137,3.052-.147,6.044-.032,8.892a86.353,86.353,0,0,0,.8,8.839,72.95,72.95,0,0,0,1.792,8.69,43.3,43.3,0,0,0,2.058,6.009,46.436,46.436,0,0,0,2.941,5.752,46.977,46.977,0,0,0,3.734,5.327,44.866,44.866,0,0,0,4.436,4.734,40.9,40.9,0,0,0,5.047,3.974,36.282,36.282,0,0,0,5.567,3.046,30.745,30.745,0,0,0,12.332,2.638h0a29.663,29.663,0,0,0,5.226-.468,32.778,32.778,0,0,0,6.91-2.262,33.7,33.7,0,0,0,6.025-3.564,38.621,38.621,0,0,0,5.191-4.648,47.111,47.111,0,0,0,4.408-5.512,64.82,64.82,0,0,0,6.673-12.742,91.8,91.8,0,0,0,4.159-13.573A56.61,56.61,0,0,0,215.8,18.78,59.4,59.4,0,0,0,193.669,7.544a57.148,57.148,0,0,0-12.347-1.868c-.649-.027-1.339-.04-2.051-.04-2.767,0-5.667.2-8.47.4l-.066,0c-2.836.2-5.769.4-8.656.4a41.066,41.066,0,0,1-7.221-.567,25.055,25.055,0,0,1-6.847-2.2Zm34,231.637a14.2,14.2,0,0,1-5.109-1.033,20.479,20.479,0,0,1-4.55-2.5,19.014,19.014,0,0,1-7.277-10.407.161.161,0,0,1,.025-.145.194.194,0,0,1,.152-.074.166.166,0,0,1,.147.083,18.239,18.239,0,0,0,3.713,4.582,22.008,22.008,0,0,0,4.791,3.215,31.074,31.074,0,0,0,5.472,2.091,45.54,45.54,0,0,0,5.756,1.208,1.166,1.166,0,0,1,.68.419,1.2,1.2,0,0,1,.241.684,1.46,1.46,0,0,1-.22.832,1.3,1.3,0,0,1-.7.556A9.913,9.913,0,0,1,182.007,235.312ZM131.938,227.7a1.951,1.951,0,0,1-1.528-.735,10.141,10.141,0,0,0,2.435.526A2.1,2.1,0,0,1,131.938,227.7ZM136.6,201c-.23-.432-.451-.813-.674-1.163a3.983,3.983,0,0,1,.622.892.508.508,0,0,1,.044.2v0c0,.025,0,.05.008.074Z" transform="translate(-29.088 -16.027)"/>
    </g>
    <g id="Head" transform="translate(86.512 45.072)">
      <g id="HEAD-2" data-name="HEAD">
        <path id="_Skin-2" data-name="âœ‹ Skin" d="M63.256,0C74.46,0,87.9,5.435,89.044,5.544l.031,0q.9,0,7.048,5.373l-4.438,8.662.359.343c1.719,1.649,3.186,3.152,4.344,4.337,9.457,9.674,11.156,47.657,8.928,60.9s-6.356,26.207-25.574,26.207-40.6-11.563-43.89-15.164a9.349,9.349,0,0,0-7.4-3.45l-.335-.425-.4-.057q-5.682-.823-8.142-2.216c-3.2-1.814-6.725-11.349-6.725-13.449,0-2.079-5.258-17.207-5.363-18.808l0-.044c0-1.338-6.869-7.49-6.869-9.444s-1.385-1.835,0-8.72l.4-2.022c1.473-7.33,4.357-19.467,15.353-24.741C28.454,7.036,51.94,0,63.256,0Z" transform="translate(-2 14.7)" fill="#d08b5b"/>
        <path id="_Hat" data-name="ðŸ§¢ Hat" d="M28.454,92.758l-.335-.425-.4-.057q-5.682-.823-8.142-2.216c-3.2-1.814-6.725-11.349-6.725-13.449,0-2.079-5.258-17.207-5.363-18.807l0-.044c0-1.338-6.869-7.49-6.869-9.444s-1.385-1.835,0-8.719l.4-2.022c1.473-7.33,4.357-19.467,15.353-24.741C28.454,7.036,51.94,0,63.257,0,74.46,0,87.9,5.435,89.044,5.544l.031,0q.9,0,7.048,5.373L95.083,12.95c-13.533.4-35.787,1.6-45.5,5.293C35.137,23.729,31.446,59.924,31.446,59.924a61.91,61.91,0,0,0-10.093,6.3c-5.046,3.9-2.555,4.033-2.555,4.033s-.217,8.367,1.338,11.686S30.9,85.844,30.9,85.844l1.56,5.228-.216,2.423A8.374,8.374,0,0,0,28.454,92.758Z" transform="translate(-2.002 14.774)" fill="#9ddadb"/>
        <path id="_Ink-2" data-name="ðŸ– Ink" d="M78.766,116.7a26.869,26.869,0,0,1-9.171-1.616,27.349,27.349,0,0,1-8.515-5,9.707,9.707,0,0,0-.919-.837c-.757-.642-1.7-1.441-1.629-1.818a.241.241,0,0,1,.179-.177c.248.263.518.534.823.829a.16.16,0,0,1-.01-.093l-.264-.239c-.536-.5-.782-.813-.731-.943.018-.046.073-.069.164-.069a.938.938,0,0,1,.16.017c.019.022.038.042.059.063l.043.045a3.587,3.587,0,0,1,.363.245l.047.038-.015-.015c-.294-.314-.458-.577-.418-.67.011-.026.038-.039.079-.039a.808.808,0,0,1,.295.092l.084.041c.269.283.549.563.856.854a.165.165,0,0,1,.018-.1l-.27-.262c-.242-.237-.229-.258-.126-.42v0l.029-.047c-.135-.189-.188-.324-.155-.389a.1.1,0,0,1,.1-.044.843.843,0,0,1,.62.421.5.5,0,0,1,.115-.013c.363,0,.7.392,1,.738a1.777,1.777,0,0,0,.542.5,28.015,28.015,0,0,0,7.709,4.243,24.172,24.172,0,0,0,8.091,1.415,23.221,23.221,0,0,0,9.228-1.913,26.278,26.278,0,0,0,8.295-5.741,33.064,33.064,0,0,0,4.8-6.245,42.415,42.415,0,0,0,3.713-8.1A65.228,65.228,0,0,0,107.066,69.7l-.007-.777c-.035-3.538-.141-6.664-.322-9.556-.215-3.431-.535-6.542-.979-9.509a78.54,78.54,0,0,0-1.938-9.284,59.842,59.842,0,0,0-3.2-8.879,33.151,33.151,0,0,0-1.709-3.225c-.439-.793-.908-1.561-1.394-2.284a20.726,20.726,0,0,1-4.126-.764c-.506-.128-.959-.259-1.386-.4-3.852.21-7.724.435-11.468.652h0c-2.8.162-5.689.33-8.575.492l-2.107.131a54.32,54.32,0,0,0-8.53,1.058,19.554,19.554,0,0,0-7.7,3.435,9.2,9.2,0,0,0-1.6,1.449,11.9,11.9,0,0,0-1.232,1.7,30.99,30.99,0,0,0-1.852,3.811,35.48,35.48,0,0,1-1.56,3.3A11.155,11.155,0,0,1,45.2,43.9a16.557,16.557,0,0,0-2.956,2.49A10.687,10.687,0,0,0,40.5,48.934a22.4,22.4,0,0,0-1.614,5.946v0c-.1.537-.2,1.093-.309,1.674a23.894,23.894,0,0,0,.414,3.385,16.216,16.216,0,0,1,.34,5.13,4.255,4.255,0,0,1-.9,2.061,4.012,4.012,0,0,1-.906.8,5.574,5.574,0,0,1-1.283.6c.322.459.345.641.308.713a.1.1,0,0,1-.1.049.918.918,0,0,1-.661-.547h0a.112.112,0,0,1-.024,0c.283.526.3.71.261.772a.064.064,0,0,1-.059.031c-.175,0-.618-.444-.68-.73A.453.453,0,0,1,35.1,68.7c.266.43.283.589.251.647a.074.074,0,0,1-.07.035A1,1,0,0,1,34.733,69c-.047-.065-.066-.118-.055-.154a4.963,4.963,0,0,0-2.2-1.845,6.879,6.879,0,0,0-2.759-.551,7.6,7.6,0,0,0-2.028.273.106.106,0,0,1-.106.075.145.145,0,0,1-.084-.027,7.044,7.044,0,0,0-4.924,4.119,11.664,11.664,0,0,0-.975,3.363,14.871,14.871,0,0,0-.053,3.656,12.765,12.765,0,0,0,2.27,6.227,6.254,6.254,0,0,0,5.08,2.74,6.83,6.83,0,0,0,1.306-.13.931.931,0,0,1,.182-.021.283.283,0,0,1,.253.11.117.117,0,0,0,.057.046c-.057-.151-.064-.26-.02-.323a.156.156,0,0,1,.136-.06.412.412,0,0,1,.264.105.074.074,0,0,1,.025.051l.039,0,.019,0h.006l.013,0h0c-.038-.211-.034-.346.011-.4a.074.074,0,0,1,.059-.027c.223,0,.77.77.844.994.009.028.01.046,0,.052a.317.317,0,0,1,.118-.04l-.042-.116c-.077-.205-.122-.3-.149-.357a.311.311,0,0,1-.037-.2c0-.02,0-.043,0-.069a1.862,1.862,0,0,0-.118-.251c-.034-.061-.034-.061-.017-.176l0-.012,0-.03a.344.344,0,0,1,.206-.084c.241,0,.383.379.5.683.064.17.119.317.176.346a.523.523,0,0,1-.112-.521.176.176,0,0,1,.159-.1.3.3,0,0,1,.181.075A48.355,48.355,0,0,0,36.783,93.1a35.291,35.291,0,0,0,4.927,5.774c.333.263.774.605,1.234.926a16.923,16.923,0,0,0,2.922,1.877,16.737,16.737,0,0,1,2.518,1.578.147.147,0,0,1-.025.07l.034.03.034.032.511.245a2.741,2.741,0,0,1,.4.428,2.816,2.816,0,0,1,.336.483.239.239,0,0,1-.02.2.121.121,0,0,1-.1.043.345.345,0,0,1-.138-.035c-.058-.02-.116-.042-.173-.064h0l-.088-.033,0,.006a.056.056,0,0,0,.008.011c.026.039.142.312.094.4a.054.054,0,0,1-.051.029.142.142,0,0,1-.044-.008l-.027-.01c-.092-.034-.183-.07-.272-.106l-.094-.037c.111.139.216.289.309.421l0,0,.076.108a.852.852,0,0,1,.228.448c0,.083-.045.125-.121.125l-.032,0c-.14-.046-.281-.1-.431-.15l.041.078c.078.154.163.352.122.419a.053.053,0,0,1-.049.024.221.221,0,0,1-.084-.022c-.2-.062-.407-.137-.638-.231a.057.057,0,0,1-.054.034.17.17,0,0,1-.069-.019,12.89,12.89,0,0,1-1.932-.871c-.327-.238-.662-.478-.986-.71l-.651-.467a12.649,12.649,0,0,1-1.481-1.037A32.271,32.271,0,0,1,34.9,95.551,6.272,6.272,0,0,1,30.66,96.92a17.751,17.751,0,0,1-5.868-1.212A39.6,39.6,0,0,1,19.326,93.2a10.48,10.48,0,0,1-2.578-2,11.128,11.128,0,0,1-1.782-2.564,14.556,14.556,0,0,1-1.1-2.979,20.781,20.781,0,0,1-.546-3.247,12.572,12.572,0,0,0-.791-2.919c-.357-.9-.79-1.766-1.247-2.679A29.864,29.864,0,0,1,8.9,70.968a33.5,33.5,0,0,1-.982-9.712.078.078,0,0,1-.025,0,2.553,2.553,0,0,1-.513-.213,2.559,2.559,0,0,1-.473-.291L6.727,60.5a1.55,1.55,0,0,1-.245-.163l-.034.043c-.024.029-.041.044-.05.044a.006.006,0,0,1-.005,0c-.009-.012.006-.067.017-.107,0-.016.008-.03.01-.038L6.1,59.848c-.424-.579-.87-1.2-1.3-1.794v0c-.335-.464-.652-.9-.948-1.308l-.021.037c-.014.027-.023.047-.017.057A26.876,26.876,0,0,1,1.61,53.1a14.778,14.778,0,0,1-1.318-4.03A11.539,11.539,0,0,1,.01,45.948a16.834,16.834,0,0,1,.412-3.006,84.419,84.419,0,0,1,5.633-14.3,63.453,63.453,0,0,1,4.639-7.9,31.242,31.242,0,0,1,5.565-6.251A14.261,14.261,0,0,1,19.329,12.2a45.2,45.2,0,0,1,4.85-2.424A111.071,111.071,0,0,1,37.641,5.068,149.77,149.77,0,0,1,53.49,1.448C56.217.985,58.853.627,61.324.384,63.924.129,66.362,0,68.572,0a43.918,43.918,0,0,1,5.234.287l.519.067a30.722,30.722,0,0,1,4.086.8A34.68,34.68,0,0,1,90.827,6.274c.6.424,1.459.894,2.448,1.44a27.409,27.409,0,0,1,5.888,3.946A7.944,7.944,0,0,1,100.2,12.9a4.934,4.934,0,0,1,.641,1.35,3.834,3.834,0,0,1,.133,1.464,4.554,4.554,0,0,1-.487,1.583A9.393,9.393,0,0,1,101.5,20.46a6.791,6.791,0,0,1-.289,3.141,7.416,7.416,0,0,1-.555,1.916,55.725,55.725,0,0,1,5.367,10.447,120.2,120.2,0,0,1,2.959,13.431,102.811,102.811,0,0,1,1.275,13.565,118.758,118.758,0,0,1-.092,13.247c-.157,2.331-.4,4.592-.719,6.719a64.811,64.811,0,0,1-1.33,6.585,51.077,51.077,0,0,1-2.062,6.3,41.365,41.365,0,0,1-2.917,5.87,35.492,35.492,0,0,1-3.893,5.289,33.473,33.473,0,0,1-4.99,4.56,24.086,24.086,0,0,1-7.237,3.848A26.1,26.1,0,0,1,78.766,116.7Zm-19.18-9.338h0l.088.11a.746.746,0,0,0,.17.161.139.139,0,0,1,0-.055c-.051-.039-.1-.082-.156-.127ZM11.319,43.354a69.106,69.106,0,0,1-.1,9.3c-.1,1.785-.209,3.632-.215,5.462a37.014,37.014,0,0,0,.373,5.611,30.277,30.277,0,0,0,1.542,6.029,37.845,37.845,0,0,0,3.291,6.716,16.707,16.707,0,0,1,1.821,5.88,21.228,21.228,0,0,0,.5,2.462,6.974,6.974,0,0,0,1.05,2.217c1.117,1.542,3.054,2.731,6.094,3.741l.272.1a21.184,21.184,0,0,0,2.476.786,10.569,10.569,0,0,0,2.5.331,6.862,6.862,0,0,0,1.441-.146l-.184-.3c-.123-.2-.18-.323-.151-.421.019-.064.076-.117.179-.167a.345.345,0,0,0-.017-.03l-.01-.018c-.229-.432-.443-.857-.636-1.262-.066.022-.132.039-.2.057l-.049.013a.188.188,0,0,1,.027.163.158.158,0,0,1-.119.077,4.369,4.369,0,0,1-1.422.238c-.091,0-.183,0-.275-.008l-.125-.009a5.706,5.706,0,0,1-1.437-.27l-.016,0c-.115-.019-.234-.038-.35-.063a8.483,8.483,0,0,1-3.258-1.6A11.1,11.1,0,0,1,21.1,85.455a13.557,13.557,0,0,1-2.077-3.763,16.7,16.7,0,0,1-.7-8.687,13.2,13.2,0,0,1,2.945-6.334,10.086,10.086,0,0,1,2.682-2.17,10.291,10.291,0,0,1,3.492-1.165,59.818,59.818,0,0,1,1.114-9.676,88,88,0,0,1,2.89-11.082A79.915,79.915,0,0,1,35.96,31.6a50.51,50.51,0,0,1,5.994-9.377c3.257-4,9.035-7.363,16.708-9.715a73.74,73.74,0,0,1,11.1-2.443A79.489,79.489,0,0,1,81,9.244c2.187,0,4.3.1,6.292.3l.669.224a20.312,20.312,0,0,1,4.138.972c.922.286,1.876.581,2.834.779a16.625,16.625,0,0,0-2.694-1.626,29.144,29.144,0,0,0-2.908-1.213A31.289,31.289,0,0,0,83.07,5.793,55.781,55.781,0,0,0,76.487,4.03a12.7,12.7,0,0,0-2.758-.366c-1.711-.147-3.483-.222-5.264-.222A80.851,80.851,0,0,0,53.7,4.91c-4.213.778-8.672,1.847-14.458,3.464l-.773.222c-.626.179-1.26.357-1.872.529-5.78,1.625-11.756,3.305-16.613,6.818a28.717,28.717,0,0,0-2.656,2.313,32.517,32.517,0,0,0-2.351,2.584,42.169,42.169,0,0,0-3.938,5.789c-1.059,1.846-2.093,3.905-3.163,6.3-1,2.235-1.91,4.484-2.683,6.417a16.012,16.012,0,0,0-1.4,4.813,15.658,15.658,0,0,0,1.649,9.215,15.024,15.024,0,0,0,2.768,3.745,71.774,71.774,0,0,1,2.491-12.8,3.117,3.117,0,0,0,.146-.5c.064-.285.091-.4.473-.462ZM38.481,80.623c-.159,0-.527-.32-.807-.589a.337.337,0,0,1-.025.252.089.089,0,0,1-.071.03c-.133,0-.387-.194-.776-.592-.13-.133-.252-.265-.35-.371a1.768,1.768,0,0,0-.216-.22,24.666,24.666,0,0,0-4.7-2.875,15.821,15.821,0,0,0-5.2-1.514l-.115-.013c-.418-.054-.649-.15-.728-.3a.376.376,0,0,1,.042-.358,1.118,1.118,0,0,1-.419-.174c-.1-.076-.112-.145-.107-.19.012-.1.133-.175.289-.175h.017c-.185-.122-.267-.256-.23-.378a.347.347,0,0,1,.338-.2.377.377,0,0,1,.148.029.29.29,0,0,1-.007-.259.228.228,0,0,1,.2-.072,1.505,1.505,0,0,1,.264.032l.036.007a1.137,1.137,0,0,0,.177.026.065.065,0,0,0,.046-.012c.15-.232.279-.345.393-.345a.215.215,0,0,1,.125.046l.019.014h0a.122.122,0,0,0,.059.031c.014,0,.026-.011.036-.035a1.028,1.028,0,0,1,.44-.156.224.224,0,0,1,.124.034l.017.011a.106.106,0,0,0,.056.023.089.089,0,0,0,.048-.018c.191-.016.386-.023.581-.023a9.168,9.168,0,0,1,3.192.623,14.816,14.816,0,0,1,3.055,1.6,20.532,20.532,0,0,1,2.7,2.18,20.762,20.762,0,0,1,2.13,2.359.136.136,0,0,1-.1.042c-.212,0-.553-.364-.682-.5l0,0-.029-.031a.114.114,0,0,1-.043.028l.069.1c.213.306.306.491.275.55a.041.041,0,0,1-.04.02,2.268,2.268,0,0,1-.74-.494,3.862,3.862,0,0,1-.665-.68.161.161,0,0,1-.077.023l-.025,0c.027.026.062.059.1.1h0a2.321,2.321,0,0,1,.616.745l.127.106c.582.5.884.964.83,1.109a.065.065,0,0,1-.068.041c-.169,0-.552-.3-1.024-.808a.218.218,0,0,1,.022.18l.047.031c.379.265.74.82.689.982A.058.058,0,0,1,38.481,80.623Zm-14.3-39.1a1.2,1.2,0,0,1-.608-.158l-.9-.607c-1.466-.982-2.926-1.942-4.676-2.9a1.433,1.433,0,0,1-.905-1.149.8.8,0,0,1,.566-.7,3.037,3.037,0,0,1,1.03-.151,9.287,9.287,0,0,1,6.156,2.672,2.578,2.578,0,0,1,.706,2.116A1.524,1.524,0,0,1,24.176,41.525Zm7.617-9.38a3.471,3.471,0,0,1-2.063-.714l-.82-.534c-1.713-1.122-3.007-2.015-3.958-2.729-1.3-.975-1.916-1.6-1.841-1.847.026-.086.134-.13.322-.13.733,0,2.714.659,5.89,1.96.291.125.6.236.922.353a4.737,4.737,0,0,1,2.712,1.716,1.44,1.44,0,0,1,.1,1.393A1.419,1.419,0,0,1,31.793,32.144ZM38.4,22.6a2.35,2.35,0,0,1-1.2-.339,51.419,51.419,0,0,0-4.618-2.586c-.785-.4-1.6-.822-2.364-1.247a.378.378,0,0,1,.043-.34.812.812,0,0,1,.65-.193,18.289,18.289,0,0,1,4.27,1.057l.388.128.2.074.375.138.008,0a5.979,5.979,0,0,1,3.05,1.839,1.058,1.058,0,0,1,.151,1.052A1.046,1.046,0,0,1,38.4,22.6Zm8.08-7.838a6.444,6.444,0,0,1-3.693-1.691c-.431-.32-.877-.65-1.328-.923-.439-.479-.617-.821-.532-1.016.057-.129.23-.195.515-.195a15.229,15.229,0,0,1,5.183,1.819l.028.021a1.168,1.168,0,0,1,.488,1.068,1.1,1.1,0,0,1-.594.916Zm8.9-4.3a2.675,2.675,0,0,1-1.107-.289,6.989,6.989,0,0,1-1.5-1,8.035,8.035,0,0,1-1.171-.975c-.216-.236-.306-.417-.267-.538s.2-.18.481-.18a10.549,10.549,0,0,1,4.02,1.318,1.1,1.1,0,0,1,.42,1.165A.86.86,0,0,1,55.385,10.456Z" transform="translate(-3.753 12.77)"/>
      </g>
      <g id="FACE" transform="translate(39.871 46.574)">
        <path id="_Ink-3" data-name="ðŸ– Ink" d="M20.795,48.325a2.2,2.2,0,0,1-1.955-1.5,2.116,2.116,0,0,1-.1-1.184,2.013,2.013,0,0,1,.684-1.113l.062-.052a2.9,2.9,0,0,0,.761-1.024,6.4,6.4,0,0,0,.455-1.386,11.352,11.352,0,0,0,.233-2.77,10.789,10.789,0,0,0-.527-2.871l-.063-.184c-.088-.249-.979-2.444-1.388-2.444a.107.107,0,0,0-.072.028l-.017.018a.172.172,0,0,1-.132.068.178.178,0,0,1-.151-.093.187.187,0,0,1,.006-.193.963.963,0,0,1,.816-.548c.447,0,1.229.369,2.415,2.126A14.856,14.856,0,0,1,23.3,37.938a12.809,12.809,0,0,1,.562,2.631,7.855,7.855,0,0,0,1.713.187A8.64,8.64,0,0,0,27.2,40.6a8.583,8.583,0,0,0,2.954-1.3c.365-.222.743-.451,1.154-.669a1.68,1.68,0,0,1,.8-.195A2.412,2.412,0,0,1,34.069,39.6a1.989,1.989,0,0,1,.238,1.532,2.821,2.821,0,0,1-.818,1.335A5.29,5.29,0,0,1,31.3,43.647a9.467,9.467,0,0,1-2.649.367,8.718,8.718,0,0,1-1.639-.148A8.382,8.382,0,0,1,23.916,42.6q0,.05,0,.1c0,.08-.008.164-.014.246l-.018.2a11.257,11.257,0,0,1-.512,2.559,4.7,4.7,0,0,1-1.34,2.136A1.9,1.9,0,0,1,20.795,48.325ZM29.89,31.107h0a8.765,8.765,0,0,1-3.122-.628A15.772,15.772,0,0,1,23.1,28.4a1.408,1.408,0,0,1-.512-.814,1.683,1.683,0,0,1,.073-.914,2.078,2.078,0,0,1,.618-.892,1.506,1.506,0,0,1,.963-.375,1.368,1.368,0,0,1,.745.228l.245.189.006,0a19.875,19.875,0,0,0,2.3,1.6,5.667,5.667,0,0,0,2.754.877,2.978,2.978,0,0,0,1.164-.228,3.253,3.253,0,0,0,1.084-.767,3.315,3.315,0,0,0,.631-2.672,5.045,5.045,0,0,0-1.341-2.37,9.777,9.777,0,0,0-2.031-1.637.628.628,0,0,1-.17-.723.944.944,0,0,1,.313-.45.961.961,0,0,1,.6-.2,1.278,1.278,0,0,1,.216.019,6.816,6.816,0,0,1,2.395.864,5.429,5.429,0,0,1,1.611,1.483,5.885,5.885,0,0,1,1.028,3.936,6.477,6.477,0,0,1-.527,2.066A6.027,6.027,0,0,1,34.071,29.4,5.678,5.678,0,0,1,29.89,31.107ZM5.219,17.844a.3.3,0,0,1-.27-.166,4.166,4.166,0,0,1-.5-2.089,4.9,4.9,0,0,1,.516-2.031,6.647,6.647,0,0,1,1.916-2.32A6.231,6.231,0,0,1,9.573,10a6.811,6.811,0,0,1,1.184-.1,6.964,6.964,0,0,1,2.141.339,7.236,7.236,0,0,1,1.952.978l.116.083a7.4,7.4,0,0,1,2.01,2.121,3.526,3.526,0,0,1,.477,1.32,2.517,2.517,0,0,1-.209,1.386,1.123,1.123,0,0,1-.512.535,1.556,1.556,0,0,1-.726.17,1.679,1.679,0,0,1-.766-.18A3.34,3.34,0,0,1,14,15.222a4.423,4.423,0,0,0-.985-1.288A4.189,4.189,0,0,0,10.459,13c-.1,0-.2,0-.3.014A4.358,4.358,0,0,0,7.248,14.63,9.66,9.66,0,0,0,5.572,17.6.388.388,0,0,1,5.219,17.844Zm38.992-.63A2,2,0,0,1,43.1,16.88a1.729,1.729,0,0,1-.7-.992c-.069-.256-.119-.5-.166-.744a3.639,3.639,0,0,0-.759-1.858,2.916,2.916,0,0,0-.936-.723,2.6,2.6,0,0,0-1.14-.263c-.058,0-.117,0-.175.006A3.989,3.989,0,0,0,36.7,13.523a6.321,6.321,0,0,0-.738.963,5.168,5.168,0,0,1-.863,1.073.409.409,0,0,1-.263.1.37.37,0,0,1-.253-.1,2.272,2.272,0,0,1-.537-2.041,5.452,5.452,0,0,1,.791-2.074A6.168,6.168,0,0,1,36.72,9.605a5.648,5.648,0,0,1,2.5-.832c.132-.011.267-.016.4-.016a7.022,7.022,0,0,1,5.259,2.737,5.084,5.084,0,0,1,1.1,4.394,1.688,1.688,0,0,1-.675,1A1.923,1.923,0,0,1,44.211,17.213ZM.926,10.226a.461.461,0,0,1-.355-.15C-.363,9.021.021,7.548.507,6.5A10.282,10.282,0,0,1,2.822,3.374,14.174,14.174,0,0,1,6.327,1.146a10.44,10.44,0,0,1,4.169-1,5.857,5.857,0,0,1,1.8.266A2.393,2.393,0,0,1,13.5,1.33a2.792,2.792,0,0,1,.512,1.43,1.927,1.927,0,0,1-1.157,1.956A12.2,12.2,0,0,1,9.3,5.546a12.244,12.244,0,0,0-3.668.868A6.976,6.976,0,0,0,3.063,8.265c-.107.131-.212.267-.323.411a4.794,4.794,0,0,1-1.528,1.483A.665.665,0,0,1,.926,10.226ZM44.674,7.91a1.857,1.857,0,0,1-.937-.258,5.216,5.216,0,0,1-1.477-1.5A7.786,7.786,0,0,0,41.3,5.027a8.322,8.322,0,0,0-2.515-1.56,8.686,8.686,0,0,0-3.14-.619h-.062a7.944,7.944,0,0,0-1.485.191c-.321.062-.652.126-.974.16a.035.035,0,0,1,0,.035c-.018.028-.087.044-.2.044a2.829,2.829,0,0,1-.763-.128c-.295-.126-.269-.494-.183-.7a3.113,3.113,0,0,1,1.425-1.377A8.829,8.829,0,0,1,37.725,0,11.6,11.6,0,0,1,39.7.174a9.7,9.7,0,0,1,4.042,1.7l.135.1A9.637,9.637,0,0,1,45.738,3.72a3.483,3.483,0,0,1,.847,2.3,2,2,0,0,1-.606,1.349A1.872,1.872,0,0,1,44.674,7.91Z" transform="translate(13.04 15.525)"/>
      </g>
    </g>
  </g>
</svg>
